<?xml version="1.0" encoding="utf-8" standalone="no"?>
<!DOCTYPE svg PUBLIC "-//W3C//DTD SVG 1.1//EN"
  "http://www.w3.org/Graphics/SVG/1.1/DTD/svg11.dtd">
<svg height="144pt" version="1.1" viewBox="0 0 144 144" width="144pt" xmlns="http://www.w3.org/2000/svg" xmlns:xlink="http://www.w3.org/1999/xlink">
 <metadata>
  <rdf:RDF xmlns:cc="http://creativecommons.org/ns#" xmlns:dc="http://purl.org/dc/elements/1.1/" xmlns:rdf="http://www.w3.org/1999/02/22-rdf-syntax-ns#">
   <cc:Work>
    <dc:type rdf:resource="http://purl.org/dc/dcmitype/StillImage"/>
    <dc:date>2022-12-15T11:16:54.191654</dc:date>
    <dc:format>image/svg+xml</dc:format>
    <dc:creator>
     <cc:Agent>
      <dc:title>Matplotlib v3.4.2, https://matplotlib.org/</dc:title>
     </cc:Agent>
    </dc:creator>
   </cc:Work>
  </rdf:RDF>
 </metadata>
 <defs>
  <style type="text/css">*{stroke-linecap:butt;stroke-linejoin:round;}</style>
 </defs>
 <g id="figure_1">
  <g id="patch_1">
   <path d="M 0 144 
L 144 144 
L 144 0 
L 0 0 
z
" style="fill:#ffffff;"/>
  </g>
  <g id="axes_1">
   <g id="patch_2">
    <path d="M 18 128.16 
L 129.6 128.16 
L 129.6 17.28 
L 18 17.28 
z
" style="fill:#ffffff;"/>
   </g>
   <g id="matplotlib.axis_1">
    <g id="xtick_1">
     <g id="text_1">
      <!-- Original -->
      <g style="fill:#262626;" transform="translate(41.78125 204.0725)rotate(-90)scale(0.2 -0.2)">
       <defs>
        <path d="M 309 2231 
Q 309 3372 921 4017 
Q 1534 4663 2503 4663 
Q 3138 4663 3647 4359 
Q 4156 4056 4423 3514 
Q 4691 2972 4691 2284 
Q 4691 1588 4409 1038 
Q 4128 488 3612 205 
Q 3097 -78 2500 -78 
Q 1853 -78 1343 234 
Q 834 547 571 1087 
Q 309 1628 309 2231 
z
M 934 2222 
Q 934 1394 1379 917 
Q 1825 441 2497 441 
Q 3181 441 3623 922 
Q 4066 1403 4066 2288 
Q 4066 2847 3877 3264 
Q 3688 3681 3323 3911 
Q 2959 4141 2506 4141 
Q 1863 4141 1398 3698 
Q 934 3256 934 2222 
z
" id="ArialMT-4f" transform="scale(0.015625)"/>
        <path d="M 416 0 
L 416 3319 
L 922 3319 
L 922 2816 
Q 1116 3169 1280 3281 
Q 1444 3394 1641 3394 
Q 1925 3394 2219 3213 
L 2025 2691 
Q 1819 2813 1613 2813 
Q 1428 2813 1281 2702 
Q 1134 2591 1072 2394 
Q 978 2094 978 1738 
L 978 0 
L 416 0 
z
" id="ArialMT-72" transform="scale(0.015625)"/>
        <path d="M 425 3934 
L 425 4581 
L 988 4581 
L 988 3934 
L 425 3934 
z
M 425 0 
L 425 3319 
L 988 3319 
L 988 0 
L 425 0 
z
" id="ArialMT-69" transform="scale(0.015625)"/>
        <path d="M 319 -275 
L 866 -356 
Q 900 -609 1056 -725 
Q 1266 -881 1628 -881 
Q 2019 -881 2231 -725 
Q 2444 -569 2519 -288 
Q 2563 -116 2559 434 
Q 2191 0 1641 0 
Q 956 0 581 494 
Q 206 988 206 1678 
Q 206 2153 378 2554 
Q 550 2956 876 3175 
Q 1203 3394 1644 3394 
Q 2231 3394 2613 2919 
L 2613 3319 
L 3131 3319 
L 3131 450 
Q 3131 -325 2973 -648 
Q 2816 -972 2473 -1159 
Q 2131 -1347 1631 -1347 
Q 1038 -1347 672 -1080 
Q 306 -813 319 -275 
z
M 784 1719 
Q 784 1066 1043 766 
Q 1303 466 1694 466 
Q 2081 466 2343 764 
Q 2606 1063 2606 1700 
Q 2606 2309 2336 2618 
Q 2066 2928 1684 2928 
Q 1309 2928 1046 2623 
Q 784 2319 784 1719 
z
" id="ArialMT-67" transform="scale(0.015625)"/>
        <path d="M 422 0 
L 422 3319 
L 928 3319 
L 928 2847 
Q 1294 3394 1984 3394 
Q 2284 3394 2536 3286 
Q 2788 3178 2913 3003 
Q 3038 2828 3088 2588 
Q 3119 2431 3119 2041 
L 3119 0 
L 2556 0 
L 2556 2019 
Q 2556 2363 2490 2533 
Q 2425 2703 2258 2804 
Q 2091 2906 1866 2906 
Q 1506 2906 1245 2678 
Q 984 2450 984 1813 
L 984 0 
L 422 0 
z
" id="ArialMT-6e" transform="scale(0.015625)"/>
        <path d="M 2588 409 
Q 2275 144 1986 34 
Q 1697 -75 1366 -75 
Q 819 -75 525 192 
Q 231 459 231 875 
Q 231 1119 342 1320 
Q 453 1522 633 1644 
Q 813 1766 1038 1828 
Q 1203 1872 1538 1913 
Q 2219 1994 2541 2106 
Q 2544 2222 2544 2253 
Q 2544 2597 2384 2738 
Q 2169 2928 1744 2928 
Q 1347 2928 1158 2789 
Q 969 2650 878 2297 
L 328 2372 
Q 403 2725 575 2942 
Q 747 3159 1072 3276 
Q 1397 3394 1825 3394 
Q 2250 3394 2515 3294 
Q 2781 3194 2906 3042 
Q 3031 2891 3081 2659 
Q 3109 2516 3109 2141 
L 3109 1391 
Q 3109 606 3145 398 
Q 3181 191 3288 0 
L 2700 0 
Q 2613 175 2588 409 
z
M 2541 1666 
Q 2234 1541 1622 1453 
Q 1275 1403 1131 1340 
Q 988 1278 909 1158 
Q 831 1038 831 891 
Q 831 666 1001 516 
Q 1172 366 1500 366 
Q 1825 366 2078 508 
Q 2331 650 2450 897 
Q 2541 1088 2541 1459 
L 2541 1666 
z
" id="ArialMT-61" transform="scale(0.015625)"/>
        <path d="M 409 0 
L 409 4581 
L 972 4581 
L 972 0 
L 409 0 
z
" id="ArialMT-6c" transform="scale(0.015625)"/>
       </defs>
       <use xlink:href="#ArialMT-4f"/>
       <use x="77.783203" xlink:href="#ArialMT-72"/>
       <use x="111.083984" xlink:href="#ArialMT-69"/>
       <use x="133.300781" xlink:href="#ArialMT-67"/>
       <use x="188.916016" xlink:href="#ArialMT-69"/>
       <use x="211.132812" xlink:href="#ArialMT-6e"/>
       <use x="266.748047" xlink:href="#ArialMT-61"/>
       <use x="322.363281" xlink:href="#ArialMT-6c"/>
      </g>
     </g>
    </g>
    <g id="xtick_2">
     <g id="text_2">
      <!-- Mutated -->
      <g style="fill:#262626;" transform="translate(78.970312 207.419375)rotate(-90)scale(0.2 -0.2)">
       <defs>
        <path d="M 475 0 
L 475 4581 
L 1388 4581 
L 2472 1338 
Q 2622 884 2691 659 
Q 2769 909 2934 1394 
L 4031 4581 
L 4847 4581 
L 4847 0 
L 4263 0 
L 4263 3834 
L 2931 0 
L 2384 0 
L 1059 3900 
L 1059 0 
L 475 0 
z
" id="ArialMT-4d" transform="scale(0.015625)"/>
        <path d="M 2597 0 
L 2597 488 
Q 2209 -75 1544 -75 
Q 1250 -75 995 37 
Q 741 150 617 320 
Q 494 491 444 738 
Q 409 903 409 1263 
L 409 3319 
L 972 3319 
L 972 1478 
Q 972 1038 1006 884 
Q 1059 663 1231 536 
Q 1403 409 1656 409 
Q 1909 409 2131 539 
Q 2353 669 2445 892 
Q 2538 1116 2538 1541 
L 2538 3319 
L 3100 3319 
L 3100 0 
L 2597 0 
z
" id="ArialMT-75" transform="scale(0.015625)"/>
        <path d="M 1650 503 
L 1731 6 
Q 1494 -44 1306 -44 
Q 1000 -44 831 53 
Q 663 150 594 308 
Q 525 466 525 972 
L 525 2881 
L 113 2881 
L 113 3319 
L 525 3319 
L 525 4141 
L 1084 4478 
L 1084 3319 
L 1650 3319 
L 1650 2881 
L 1084 2881 
L 1084 941 
Q 1084 700 1114 631 
Q 1144 563 1211 522 
Q 1278 481 1403 481 
Q 1497 481 1650 503 
z
" id="ArialMT-74" transform="scale(0.015625)"/>
        <path d="M 2694 1069 
L 3275 997 
Q 3138 488 2766 206 
Q 2394 -75 1816 -75 
Q 1088 -75 661 373 
Q 234 822 234 1631 
Q 234 2469 665 2931 
Q 1097 3394 1784 3394 
Q 2450 3394 2872 2941 
Q 3294 2488 3294 1666 
Q 3294 1616 3291 1516 
L 816 1516 
Q 847 969 1125 678 
Q 1403 388 1819 388 
Q 2128 388 2347 550 
Q 2566 713 2694 1069 
z
M 847 1978 
L 2700 1978 
Q 2663 2397 2488 2606 
Q 2219 2931 1791 2931 
Q 1403 2931 1139 2672 
Q 875 2413 847 1978 
z
" id="ArialMT-65" transform="scale(0.015625)"/>
        <path d="M 2575 0 
L 2575 419 
Q 2259 -75 1647 -75 
Q 1250 -75 917 144 
Q 584 363 401 755 
Q 219 1147 219 1656 
Q 219 2153 384 2558 
Q 550 2963 881 3178 
Q 1213 3394 1622 3394 
Q 1922 3394 2156 3267 
Q 2391 3141 2538 2938 
L 2538 4581 
L 3097 4581 
L 3097 0 
L 2575 0 
z
M 797 1656 
Q 797 1019 1065 703 
Q 1334 388 1700 388 
Q 2069 388 2326 689 
Q 2584 991 2584 1609 
Q 2584 2291 2321 2609 
Q 2059 2928 1675 2928 
Q 1300 2928 1048 2622 
Q 797 2316 797 1656 
z
" id="ArialMT-64" transform="scale(0.015625)"/>
       </defs>
       <use xlink:href="#ArialMT-4d"/>
       <use x="83.300781" xlink:href="#ArialMT-75"/>
       <use x="138.916016" xlink:href="#ArialMT-74"/>
       <use x="166.699219" xlink:href="#ArialMT-61"/>
       <use x="222.314453" xlink:href="#ArialMT-74"/>
       <use x="250.097656" xlink:href="#ArialMT-65"/>
       <use x="305.712891" xlink:href="#ArialMT-64"/>
      </g>
     </g>
    </g>
    <g id="xtick_3">
     <g id="text_3">
      <!-- STORM -->
      <g style="fill:#262626;" transform="translate(116.170312 207.025625)rotate(-90)scale(0.2 -0.2)">
       <defs>
        <path d="M 288 1472 
L 859 1522 
Q 900 1178 1048 958 
Q 1197 738 1509 602 
Q 1822 466 2213 466 
Q 2559 466 2825 569 
Q 3091 672 3220 851 
Q 3350 1031 3350 1244 
Q 3350 1459 3225 1620 
Q 3100 1781 2813 1891 
Q 2628 1963 1997 2114 
Q 1366 2266 1113 2400 
Q 784 2572 623 2826 
Q 463 3081 463 3397 
Q 463 3744 659 4045 
Q 856 4347 1234 4503 
Q 1613 4659 2075 4659 
Q 2584 4659 2973 4495 
Q 3363 4331 3572 4012 
Q 3781 3694 3797 3291 
L 3216 3247 
Q 3169 3681 2898 3903 
Q 2628 4125 2100 4125 
Q 1550 4125 1298 3923 
Q 1047 3722 1047 3438 
Q 1047 3191 1225 3031 
Q 1400 2872 2139 2705 
Q 2878 2538 3153 2413 
Q 3553 2228 3743 1945 
Q 3934 1663 3934 1294 
Q 3934 928 3725 604 
Q 3516 281 3123 101 
Q 2731 -78 2241 -78 
Q 1619 -78 1198 103 
Q 778 284 539 648 
Q 300 1013 288 1472 
z
" id="ArialMT-53" transform="scale(0.015625)"/>
        <path d="M 1659 0 
L 1659 4041 
L 150 4041 
L 150 4581 
L 3781 4581 
L 3781 4041 
L 2266 4041 
L 2266 0 
L 1659 0 
z
" id="ArialMT-54" transform="scale(0.015625)"/>
        <path d="M 503 0 
L 503 4581 
L 2534 4581 
Q 3147 4581 3465 4457 
Q 3784 4334 3975 4021 
Q 4166 3709 4166 3331 
Q 4166 2844 3850 2509 
Q 3534 2175 2875 2084 
Q 3116 1969 3241 1856 
Q 3506 1613 3744 1247 
L 4541 0 
L 3778 0 
L 3172 953 
Q 2906 1366 2734 1584 
Q 2563 1803 2427 1890 
Q 2291 1978 2150 2013 
Q 2047 2034 1813 2034 
L 1109 2034 
L 1109 0 
L 503 0 
z
M 1109 2559 
L 2413 2559 
Q 2828 2559 3062 2645 
Q 3297 2731 3419 2920 
Q 3541 3109 3541 3331 
Q 3541 3656 3305 3865 
Q 3069 4075 2559 4075 
L 1109 4075 
L 1109 2559 
z
" id="ArialMT-52" transform="scale(0.015625)"/>
       </defs>
       <use xlink:href="#ArialMT-53"/>
       <use x="66.699219" xlink:href="#ArialMT-54"/>
       <use x="126.033203" xlink:href="#ArialMT-4f"/>
       <use x="203.816406" xlink:href="#ArialMT-52"/>
       <use x="276.033203" xlink:href="#ArialMT-4d"/>
      </g>
     </g>
    </g>
    <g id="text_4">
     <!-- Method -->
     <g style="fill:#262626;" transform="translate(40.448437 225.735)scale(0.2 -0.2)">
      <defs>
       <path d="M 422 0 
L 422 4581 
L 984 4581 
L 984 2938 
Q 1378 3394 1978 3394 
Q 2347 3394 2619 3248 
Q 2891 3103 3008 2847 
Q 3125 2591 3125 2103 
L 3125 0 
L 2563 0 
L 2563 2103 
Q 2563 2525 2380 2717 
Q 2197 2909 1863 2909 
Q 1613 2909 1392 2779 
Q 1172 2650 1078 2428 
Q 984 2206 984 1816 
L 984 0 
L 422 0 
z
" id="ArialMT-68" transform="scale(0.015625)"/>
       <path d="M 213 1659 
Q 213 2581 725 3025 
Q 1153 3394 1769 3394 
Q 2453 3394 2887 2945 
Q 3322 2497 3322 1706 
Q 3322 1066 3130 698 
Q 2938 331 2570 128 
Q 2203 -75 1769 -75 
Q 1072 -75 642 372 
Q 213 819 213 1659 
z
M 791 1659 
Q 791 1022 1069 705 
Q 1347 388 1769 388 
Q 2188 388 2466 706 
Q 2744 1025 2744 1678 
Q 2744 2294 2464 2611 
Q 2184 2928 1769 2928 
Q 1347 2928 1069 2612 
Q 791 2297 791 1659 
z
" id="ArialMT-6f" transform="scale(0.015625)"/>
      </defs>
      <use xlink:href="#ArialMT-4d"/>
      <use x="83.300781" xlink:href="#ArialMT-65"/>
      <use x="138.916016" xlink:href="#ArialMT-74"/>
      <use x="166.699219" xlink:href="#ArialMT-68"/>
      <use x="222.314453" xlink:href="#ArialMT-6f"/>
      <use x="277.929688" xlink:href="#ArialMT-64"/>
     </g>
    </g>
   </g>
   <g id="matplotlib.axis_2">
    <g id="ytick_1">
     <g id="text_5">
      <!-- 0 -->
      <g style="fill:#262626;" transform="translate(-0.121875 120.704433)scale(0.2 -0.2)">
       <defs>
        <path d="M 266 2259 
Q 266 3072 433 3567 
Q 600 4063 929 4331 
Q 1259 4600 1759 4600 
Q 2128 4600 2406 4451 
Q 2684 4303 2865 4023 
Q 3047 3744 3150 3342 
Q 3253 2941 3253 2259 
Q 3253 1453 3087 958 
Q 2922 463 2592 192 
Q 2263 -78 1759 -78 
Q 1097 -78 719 397 
Q 266 969 266 2259 
z
M 844 2259 
Q 844 1131 1108 757 
Q 1372 384 1759 384 
Q 2147 384 2411 759 
Q 2675 1134 2675 2259 
Q 2675 3391 2411 3762 
Q 2147 4134 1753 4134 
Q 1366 4134 1134 3806 
Q 844 3388 844 2259 
z
" id="ArialMT-30" transform="scale(0.015625)"/>
       </defs>
       <use xlink:href="#ArialMT-30"/>
      </g>
     </g>
    </g>
    <g id="ytick_2">
     <g id="text_6">
      <!-- 1 -->
      <g style="fill:#262626;" transform="translate(-0.121875 39.051192)scale(0.2 -0.2)">
       <defs>
        <path d="M 2384 0 
L 1822 0 
L 1822 3584 
Q 1619 3391 1289 3197 
Q 959 3003 697 2906 
L 697 3450 
Q 1169 3672 1522 3987 
Q 1875 4303 2022 4600 
L 2384 4600 
L 2384 0 
z
" id="ArialMT-31" transform="scale(0.015625)"/>
       </defs>
       <use xlink:href="#ArialMT-31"/>
      </g>
     </g>
    </g>
    <g id="text_7">
     <!-- Predictions -->
     <g style="fill:#262626;" transform="translate(-8.096875 122.185625)rotate(-90)scale(0.2 -0.2)">
      <defs>
       <path d="M 494 0 
L 494 4581 
L 2222 4581 
Q 2678 4581 2919 4538 
Q 3256 4481 3484 4323 
Q 3713 4166 3852 3881 
Q 3991 3597 3991 3256 
Q 3991 2672 3619 2267 
Q 3247 1863 2275 1863 
L 1100 1863 
L 1100 0 
L 494 0 
z
M 1100 2403 
L 2284 2403 
Q 2872 2403 3119 2622 
Q 3366 2841 3366 3238 
Q 3366 3525 3220 3729 
Q 3075 3934 2838 4000 
Q 2684 4041 2272 4041 
L 1100 4041 
L 1100 2403 
z
" id="ArialMT-50" transform="scale(0.015625)"/>
       <path d="M 2588 1216 
L 3141 1144 
Q 3050 572 2676 248 
Q 2303 -75 1759 -75 
Q 1078 -75 664 370 
Q 250 816 250 1647 
Q 250 2184 428 2587 
Q 606 2991 970 3192 
Q 1334 3394 1763 3394 
Q 2303 3394 2647 3120 
Q 2991 2847 3088 2344 
L 2541 2259 
Q 2463 2594 2264 2762 
Q 2066 2931 1784 2931 
Q 1359 2931 1093 2626 
Q 828 2322 828 1663 
Q 828 994 1084 691 
Q 1341 388 1753 388 
Q 2084 388 2306 591 
Q 2528 794 2588 1216 
z
" id="ArialMT-63" transform="scale(0.015625)"/>
       <path d="M 197 991 
L 753 1078 
Q 800 744 1014 566 
Q 1228 388 1613 388 
Q 2000 388 2187 545 
Q 2375 703 2375 916 
Q 2375 1106 2209 1216 
Q 2094 1291 1634 1406 
Q 1016 1563 777 1677 
Q 538 1791 414 1992 
Q 291 2194 291 2438 
Q 291 2659 392 2848 
Q 494 3038 669 3163 
Q 800 3259 1026 3326 
Q 1253 3394 1513 3394 
Q 1903 3394 2198 3281 
Q 2494 3169 2634 2976 
Q 2775 2784 2828 2463 
L 2278 2388 
Q 2241 2644 2061 2787 
Q 1881 2931 1553 2931 
Q 1166 2931 1000 2803 
Q 834 2675 834 2503 
Q 834 2394 903 2306 
Q 972 2216 1119 2156 
Q 1203 2125 1616 2013 
Q 2213 1853 2448 1751 
Q 2684 1650 2818 1456 
Q 2953 1263 2953 975 
Q 2953 694 2789 445 
Q 2625 197 2315 61 
Q 2006 -75 1616 -75 
Q 969 -75 630 194 
Q 291 463 197 991 
z
" id="ArialMT-73" transform="scale(0.015625)"/>
      </defs>
      <use xlink:href="#ArialMT-50"/>
      <use x="66.699219" xlink:href="#ArialMT-72"/>
      <use x="100" xlink:href="#ArialMT-65"/>
      <use x="155.615234" xlink:href="#ArialMT-64"/>
      <use x="211.230469" xlink:href="#ArialMT-69"/>
      <use x="233.447266" xlink:href="#ArialMT-63"/>
      <use x="283.447266" xlink:href="#ArialMT-74"/>
      <use x="311.230469" xlink:href="#ArialMT-69"/>
      <use x="333.447266" xlink:href="#ArialMT-6f"/>
      <use x="389.0625" xlink:href="#ArialMT-6e"/>
      <use x="444.677734" xlink:href="#ArialMT-73"/>
     </g>
    </g>
   </g>
   <g id="PolyCollection_1">
    <defs>
     <path d="M 36.600328 -30.453378 
L 36.599672 -30.453378 
L 36.599595 -30.453378 
L 36.599505 -30.453378 
L 36.599403 -30.453378 
L 36.599288 -30.453378 
L 36.599161 -30.453378 
L 36.599023 -30.453378 
L 36.598876 -30.453379 
L 36.598721 -30.453379 
L 36.598562 -30.453379 
L 36.598403 -30.453379 
L 36.598247 -30.453379 
L 36.598098 -30.453379 
L 36.597961 -30.453379 
L 36.597839 -30.453379 
L 36.597737 -30.453379 
L 36.597659 -30.453379 
L 36.597606 -30.453379 
L 36.59758 -30.453379 
L 36.597583 -30.453379 
L 36.597615 -30.453379 
L 36.597673 -30.45338 
L 36.597757 -30.45338 
L 36.597864 -30.45338 
L 36.597989 -30.45338 
L 36.598129 -30.45338 
L 36.59828 -30.45338 
L 36.598437 -30.45338 
L 36.598596 -30.45338 
L 36.598754 -30.45338 
L 36.598908 -30.45338 
L 36.599053 -30.45338 
L 36.599189 -30.45338 
L 36.599314 -30.45338 
L 36.599426 -30.453381 
L 36.599526 -30.453381 
L 36.599612 -30.453381 
L 36.599687 -30.453381 
L 36.59975 -30.453381 
L 36.599803 -30.453381 
L 36.599847 -30.453381 
L 36.599882 -30.453381 
L 36.59991 -30.453381 
L 36.599932 -30.453381 
L 36.599949 -30.453381 
L 36.599962 -30.453381 
L 36.599972 -30.453381 
L 36.599979 -30.453382 
L 36.599984 -30.453382 
L 36.599987 -30.453382 
L 36.599988 -30.453382 
L 36.599988 -30.453382 
L 36.599987 -30.453382 
L 36.599985 -30.453382 
L 36.599981 -30.453382 
L 36.599976 -30.453382 
L 36.599969 -30.453382 
L 36.599961 -30.453382 
L 36.59995 -30.453382 
L 36.599938 -30.453382 
L 36.599923 -30.453382 
L 36.599905 -30.453383 
L 36.599885 -30.453383 
L 36.599862 -30.453383 
L 36.599837 -30.453383 
L 36.599808 -30.453383 
L 36.599778 -30.453383 
L 36.599746 -30.453383 
L 36.599712 -30.453383 
L 36.599678 -30.453383 
L 36.599644 -30.453383 
L 36.599611 -30.453383 
L 36.599579 -30.453383 
L 36.59955 -30.453383 
L 36.599525 -30.453384 
L 36.599504 -30.453384 
L 36.599488 -30.453384 
L 36.599478 -30.453384 
L 36.599474 -30.453384 
L 36.599476 -30.453384 
L 36.599483 -30.453384 
L 36.599497 -30.453384 
L 36.599516 -30.453384 
L 36.599539 -30.453384 
L 36.599567 -30.453384 
L 36.599597 -30.453384 
L 36.59963 -30.453384 
L 36.599664 -30.453384 
L 36.599698 -30.453385 
L 36.599732 -30.453385 
L 36.599765 -30.453385 
L 36.599796 -30.453385 
L 36.599825 -30.453385 
L 36.599852 -30.453385 
L 36.599876 -30.453385 
L 36.599897 -30.453385 
L 36.599916 -30.453385 
L 36.599932 -30.453385 
L 36.599946 -30.453385 
L 36.599957 -30.453385 
L 36.600043 -30.453385 
L 36.600043 -30.453385 
L 36.600054 -30.453385 
L 36.600068 -30.453385 
L 36.600084 -30.453385 
L 36.600103 -30.453385 
L 36.600124 -30.453385 
L 36.600148 -30.453385 
L 36.600175 -30.453385 
L 36.600204 -30.453385 
L 36.600235 -30.453385 
L 36.600268 -30.453385 
L 36.600302 -30.453385 
L 36.600336 -30.453384 
L 36.60037 -30.453384 
L 36.600403 -30.453384 
L 36.600433 -30.453384 
L 36.600461 -30.453384 
L 36.600484 -30.453384 
L 36.600503 -30.453384 
L 36.600517 -30.453384 
L 36.600524 -30.453384 
L 36.600526 -30.453384 
L 36.600522 -30.453384 
L 36.600512 -30.453384 
L 36.600496 -30.453384 
L 36.600475 -30.453384 
L 36.60045 -30.453383 
L 36.600421 -30.453383 
L 36.600389 -30.453383 
L 36.600356 -30.453383 
L 36.600322 -30.453383 
L 36.600288 -30.453383 
L 36.600254 -30.453383 
L 36.600222 -30.453383 
L 36.600192 -30.453383 
L 36.600163 -30.453383 
L 36.600138 -30.453383 
L 36.600115 -30.453383 
L 36.600095 -30.453383 
L 36.600077 -30.453382 
L 36.600062 -30.453382 
L 36.60005 -30.453382 
L 36.600039 -30.453382 
L 36.600031 -30.453382 
L 36.600024 -30.453382 
L 36.600019 -30.453382 
L 36.600015 -30.453382 
L 36.600013 -30.453382 
L 36.600012 -30.453382 
L 36.600012 -30.453382 
L 36.600013 -30.453382 
L 36.600016 -30.453382 
L 36.600021 -30.453382 
L 36.600028 -30.453381 
L 36.600038 -30.453381 
L 36.600051 -30.453381 
L 36.600068 -30.453381 
L 36.60009 -30.453381 
L 36.600118 -30.453381 
L 36.600153 -30.453381 
L 36.600197 -30.453381 
L 36.60025 -30.453381 
L 36.600313 -30.453381 
L 36.600388 -30.453381 
L 36.600474 -30.453381 
L 36.600574 -30.453381 
L 36.600686 -30.45338 
L 36.600811 -30.45338 
L 36.600947 -30.45338 
L 36.601092 -30.45338 
L 36.601246 -30.45338 
L 36.601404 -30.45338 
L 36.601563 -30.45338 
L 36.60172 -30.45338 
L 36.601871 -30.45338 
L 36.602011 -30.45338 
L 36.602136 -30.45338 
L 36.602243 -30.45338 
L 36.602327 -30.45338 
L 36.602385 -30.453379 
L 36.602417 -30.453379 
L 36.60242 -30.453379 
L 36.602394 -30.453379 
L 36.602341 -30.453379 
L 36.602263 -30.453379 
L 36.602161 -30.453379 
L 36.602039 -30.453379 
L 36.601902 -30.453379 
L 36.601753 -30.453379 
L 36.601597 -30.453379 
L 36.601438 -30.453379 
L 36.601279 -30.453379 
L 36.601124 -30.453379 
L 36.600977 -30.453378 
L 36.600839 -30.453378 
L 36.600712 -30.453378 
L 36.600597 -30.453378 
L 36.600495 -30.453378 
L 36.600405 -30.453378 
L 36.600328 -30.453378 
z
" id="m9df53bd3df" style="stroke:#262626;stroke-width:0.75;"/>
    </defs>
    <g clip-path="url(#p080039d552)">
     <use style="fill:#7f9dd2;stroke:#262626;stroke-width:0.75;" x="0" xlink:href="#m9df53bd3df" y="144"/>
    </g>
   </g>
   <g id="PolyCollection_2">
    <defs>
     <path d="M 73.8 -20.88 
L 73.8 -20.88 
L 73.8 -21.898182 
L 73.8 -22.916364 
L 73.8 -23.934545 
L 73.8 -24.952727 
L 73.8 -25.970909 
L 73.8 -26.989091 
L 73.8 -28.007273 
L 73.8 -29.025455 
L 73.8 -30.043636 
L 73.8 -31.061818 
L 73.8 -32.08 
L 73.8 -33.098182 
L 73.8 -34.116364 
L 73.8 -35.134545 
L 73.8 -36.152727 
L 73.8 -37.170909 
L 73.8 -38.189091 
L 73.8 -39.207273 
L 73.8 -40.225455 
L 73.8 -41.243636 
L 73.8 -42.261818 
L 73.8 -43.28 
L 73.8 -44.298182 
L 73.8 -45.316364 
L 73.8 -46.334545 
L 73.8 -47.352727 
L 73.8 -48.370909 
L 73.8 -49.389091 
L 73.8 -50.407273 
L 73.8 -51.425455 
L 73.8 -52.443636 
L 73.8 -53.461818 
L 73.8 -54.48 
L 73.8 -55.498182 
L 73.8 -56.516364 
L 73.8 -57.534545 
L 73.8 -58.552727 
L 73.8 -59.570909 
L 73.8 -60.589091 
L 73.8 -61.607273 
L 73.8 -62.625455 
L 73.8 -63.643636 
L 73.8 -64.661818 
L 73.8 -65.68 
L 73.8 -66.698182 
L 73.8 -67.716364 
L 73.8 -68.734545 
L 73.8 -69.752727 
L 73.8 -70.770909 
L 73.8 -71.789091 
L 73.8 -72.807273 
L 73.8 -73.825455 
L 73.8 -74.843636 
L 73.8 -75.861818 
L 73.8 -76.88 
L 73.8 -77.898182 
L 73.8 -78.916364 
L 73.8 -79.934545 
L 73.8 -80.952727 
L 73.8 -81.970909 
L 73.8 -82.989091 
L 73.8 -84.007273 
L 73.8 -85.025455 
L 73.8 -86.043636 
L 73.8 -87.061818 
L 73.8 -88.08 
L 73.8 -89.098182 
L 73.8 -90.116364 
L 73.8 -91.134545 
L 73.8 -92.152727 
L 73.8 -93.170909 
L 73.8 -94.189091 
L 73.8 -95.207273 
L 73.8 -96.225455 
L 73.8 -97.243636 
L 73.8 -98.261818 
L 73.8 -99.28 
L 73.8 -100.298182 
L 73.8 -101.316364 
L 73.8 -102.334545 
L 73.8 -103.352727 
L 73.8 -104.370909 
L 73.8 -105.389091 
L 73.8 -106.407273 
L 73.8 -107.425455 
L 73.8 -108.443636 
L 73.8 -109.461818 
L 73.8 -110.48 
L 73.8 -111.498182 
L 73.8 -112.516364 
L 73.8 -113.534545 
L 73.8 -114.552727 
L 73.8 -115.570909 
L 73.8 -116.589091 
L 73.8 -117.607273 
L 73.8 -118.625455 
L 73.8 -119.643636 
L 73.8 -120.661818 
L 73.8 -121.68 
L 73.8 -121.68 
L 73.8 -121.68 
L 73.8 -120.661818 
L 73.8 -119.643636 
L 73.8 -118.625455 
L 73.8 -117.607273 
L 73.8 -116.589091 
L 73.8 -115.570909 
L 73.8 -114.552727 
L 73.8 -113.534545 
L 73.8 -112.516364 
L 73.8 -111.498182 
L 73.8 -110.48 
L 73.8 -109.461818 
L 73.8 -108.443636 
L 73.8 -107.425455 
L 73.8 -106.407273 
L 73.8 -105.389091 
L 73.8 -104.370909 
L 73.8 -103.352727 
L 73.8 -102.334545 
L 73.8 -101.316364 
L 73.8 -100.298182 
L 73.8 -99.28 
L 73.8 -98.261818 
L 73.8 -97.243636 
L 73.8 -96.225455 
L 73.8 -95.207273 
L 73.8 -94.189091 
L 73.8 -93.170909 
L 73.8 -92.152727 
L 73.8 -91.134545 
L 73.8 -90.116364 
L 73.8 -89.098182 
L 73.8 -88.08 
L 73.8 -87.061818 
L 73.8 -86.043636 
L 73.8 -85.025455 
L 73.8 -84.007273 
L 73.8 -82.989091 
L 73.8 -81.970909 
L 73.8 -80.952727 
L 73.8 -79.934545 
L 73.8 -78.916364 
L 73.8 -77.898182 
L 73.8 -76.88 
L 73.8 -75.861818 
L 73.8 -74.843636 
L 73.8 -73.825455 
L 73.8 -72.807273 
L 73.8 -71.789091 
L 73.8 -70.770909 
L 73.8 -69.752727 
L 73.8 -68.734545 
L 73.8 -67.716364 
L 73.8 -66.698182 
L 73.8 -65.68 
L 73.8 -64.661818 
L 73.8 -63.643636 
L 73.8 -62.625455 
L 73.8 -61.607273 
L 73.8 -60.589091 
L 73.8 -59.570909 
L 73.8 -58.552727 
L 73.8 -57.534545 
L 73.8 -56.516364 
L 73.8 -55.498182 
L 73.8 -54.48 
L 73.8 -53.461818 
L 73.8 -52.443636 
L 73.8 -51.425455 
L 73.8 -50.407273 
L 73.8 -49.389091 
L 73.8 -48.370909 
L 73.8 -47.352727 
L 73.8 -46.334545 
L 73.8 -45.316364 
L 73.8 -44.298182 
L 73.8 -43.28 
L 73.8 -42.261818 
L 73.8 -41.243636 
L 73.8 -40.225455 
L 73.8 -39.207273 
L 73.8 -38.189091 
L 73.8 -37.170909 
L 73.8 -36.152727 
L 73.8 -35.134545 
L 73.8 -34.116364 
L 73.8 -33.098182 
L 73.8 -32.08 
L 73.8 -31.061818 
L 73.8 -30.043636 
L 73.8 -29.025455 
L 73.8 -28.007273 
L 73.8 -26.989091 
L 73.8 -25.970909 
L 73.8 -24.952727 
L 73.8 -23.934545 
L 73.8 -22.916364 
L 73.8 -21.898182 
L 73.8 -20.88 
z
" id="m2c40a98a3e" style="stroke:#262626;stroke-width:0.75;"/>
    </defs>
    <g clip-path="url(#p080039d552)">
     <use style="fill:#1a1a66;stroke:#262626;stroke-width:0.75;" x="0" xlink:href="#m2c40a98a3e" y="144"/>
    </g>
   </g>
   <g id="PolyCollection_3">
    <defs>
     <path d="M 113.009455 -30.453384 
L 108.990545 -30.453384 
L 108.687248 -30.453384 
L 108.35177 -30.453384 
L 107.98312 -30.453384 
L 107.580708 -30.453384 
L 107.144416 -30.453384 
L 106.674663 -30.453384 
L 106.172461 -30.453384 
L 105.639472 -30.453384 
L 105.078039 -30.453384 
L 104.491217 -30.453384 
L 103.882778 -30.453384 
L 103.257202 -30.453384 
L 102.619648 -30.453384 
L 101.975901 -30.453384 
L 101.332301 -30.453384 
L 100.695649 -30.453384 
L 100.0731 -30.453384 
L 99.472026 -30.453384 
L 98.899881 -30.453384 
L 98.364041 -30.453384 
L 97.871647 -30.453384 
L 97.429442 -30.453384 
L 97.043613 -30.453384 
L 96.719641 -30.453384 
L 96.462159 -30.453384 
L 96.274841 -30.453384 
L 96.160296 -30.453384 
L 96.12 -30.453384 
L 96.154251 -30.453384 
L 96.262151 -30.453384 
L 96.441626 -30.453384 
L 96.689463 -30.453384 
L 97.001389 -30.453384 
L 97.372167 -30.453384 
L 97.795716 -30.453384 
L 98.26525 -30.453384 
L 98.773433 -30.453384 
L 99.312541 -30.453384 
L 99.87463 -30.453384 
L 100.4517 -30.453384 
L 101.035861 -30.453384 
L 101.619485 -30.453384 
L 102.195342 -30.453384 
L 102.756729 -30.453384 
L 103.297576 -30.453384 
L 103.812527 -30.453384 
L 104.297012 -30.453384 
L 104.747288 -30.453384 
L 105.160463 -30.453384 
L 105.534501 -30.453384 
L 105.868211 -30.453384 
L 106.161212 -30.453384 
L 106.413891 -30.453384 
L 106.627344 -30.453384 
L 106.80331 -30.453384 
L 106.944095 -30.453384 
L 107.052486 -30.453384 
L 107.131673 -30.453384 
L 107.185154 -30.453384 
L 107.21665 -30.453384 
L 107.230016 -30.453384 
L 107.22916 -30.453384 
L 107.217962 -30.453384 
L 107.200195 -30.453384 
L 107.179464 -30.453384 
L 107.159138 -30.453384 
L 107.1423 -30.453384 
L 107.131702 -30.453384 
L 107.129729 -30.453384 
L 107.138376 -30.453384 
L 107.159226 -30.453384 
L 107.193448 -30.453384 
L 107.2418 -30.453384 
L 107.304635 -30.453384 
L 107.381926 -30.453384 
L 107.473292 -30.453384 
L 107.57803 -30.453384 
L 107.695156 -30.453384 
L 107.823446 -30.453384 
L 107.961482 -30.453384 
L 108.107702 -30.453384 
L 108.260442 -30.453384 
L 108.417989 -30.453384 
L 108.578619 -30.453384 
L 108.74064 -30.453384 
L 108.902428 -30.453384 
L 109.06246 -30.453384 
L 109.219338 -30.453384 
L 109.371809 -30.453384 
L 109.518784 -30.453384 
L 109.659341 -30.453384 
L 109.792735 -30.453384 
L 109.918392 -30.453384 
L 110.035909 -30.453384 
L 110.145038 -30.453384 
L 110.245682 -30.453384 
L 110.337873 -30.453384 
L 110.421764 -30.453384 
L 110.497603 -30.453384 
L 111.502397 -30.453384 
L 111.502397 -30.453384 
L 111.578236 -30.453384 
L 111.662127 -30.453384 
L 111.754318 -30.453384 
L 111.854962 -30.453384 
L 111.964091 -30.453384 
L 112.081608 -30.453384 
L 112.207265 -30.453384 
L 112.340659 -30.453384 
L 112.481216 -30.453384 
L 112.628191 -30.453384 
L 112.780662 -30.453384 
L 112.93754 -30.453384 
L 113.097572 -30.453384 
L 113.25936 -30.453384 
L 113.421381 -30.453384 
L 113.582011 -30.453384 
L 113.739558 -30.453384 
L 113.892298 -30.453384 
L 114.038518 -30.453384 
L 114.176554 -30.453384 
L 114.304844 -30.453384 
L 114.42197 -30.453384 
L 114.526708 -30.453384 
L 114.618074 -30.453384 
L 114.695365 -30.453384 
L 114.7582 -30.453384 
L 114.806552 -30.453384 
L 114.840774 -30.453384 
L 114.861624 -30.453384 
L 114.870271 -30.453384 
L 114.868298 -30.453384 
L 114.8577 -30.453384 
L 114.840862 -30.453384 
L 114.820536 -30.453384 
L 114.799805 -30.453384 
L 114.782038 -30.453384 
L 114.77084 -30.453384 
L 114.769984 -30.453384 
L 114.78335 -30.453384 
L 114.814846 -30.453384 
L 114.868327 -30.453384 
L 114.947514 -30.453384 
L 115.055905 -30.453384 
L 115.19669 -30.453384 
L 115.372656 -30.453384 
L 115.586109 -30.453384 
L 115.838788 -30.453384 
L 116.131789 -30.453384 
L 116.465499 -30.453384 
L 116.839537 -30.453384 
L 117.252712 -30.453384 
L 117.702988 -30.453384 
L 118.187473 -30.453384 
L 118.702424 -30.453384 
L 119.243271 -30.453384 
L 119.804658 -30.453384 
L 120.380515 -30.453384 
L 120.964139 -30.453384 
L 121.5483 -30.453384 
L 122.12537 -30.453384 
L 122.687459 -30.453384 
L 123.226567 -30.453384 
L 123.73475 -30.453384 
L 124.204284 -30.453384 
L 124.627833 -30.453384 
L 124.998611 -30.453384 
L 125.310537 -30.453384 
L 125.558374 -30.453384 
L 125.737849 -30.453384 
L 125.845749 -30.453384 
L 125.88 -30.453384 
L 125.839704 -30.453384 
L 125.725159 -30.453384 
L 125.537841 -30.453384 
L 125.280359 -30.453384 
L 124.956387 -30.453384 
L 124.570558 -30.453384 
L 124.128353 -30.453384 
L 123.635959 -30.453384 
L 123.100119 -30.453384 
L 122.527974 -30.453384 
L 121.9269 -30.453384 
L 121.304351 -30.453384 
L 120.667699 -30.453384 
L 120.024099 -30.453384 
L 119.380352 -30.453384 
L 118.742798 -30.453384 
L 118.117222 -30.453384 
L 117.508783 -30.453384 
L 116.921961 -30.453384 
L 116.360528 -30.453384 
L 115.827539 -30.453384 
L 115.325337 -30.453384 
L 114.855584 -30.453384 
L 114.419292 -30.453384 
L 114.01688 -30.453384 
L 113.64823 -30.453384 
L 113.312752 -30.453384 
L 113.009455 -30.453384 
z
" id="md82a022299" style="stroke:#262626;stroke-width:0.75;"/>
    </defs>
    <g clip-path="url(#p080039d552)">
     <use style="fill:#cc8733;stroke:#262626;stroke-width:0.75;" x="0" xlink:href="#md82a022299" y="144"/>
    </g>
   </g>
   <g id="line2d_1">
    <path clip-path="url(#p080039d552)" d="M 36.6 113.546621 
L 36.6 113.546621 
" style="fill:none;stroke:#262626;stroke-linecap:round;stroke-width:0.75;"/>
   </g>
   <g id="line2d_2">
    <path clip-path="url(#p080039d552)" d="M 36.6 113.546621 
L 36.6 113.546621 
" style="fill:none;stroke:#262626;stroke-linecap:round;stroke-width:2.25;"/>
   </g>
   <g id="line2d_3">
    <path clip-path="url(#p080039d552)" d="M 73.8 113.546621 
L 73.8 113.546621 
" style="fill:none;stroke:#262626;stroke-linecap:round;stroke-width:0.75;"/>
   </g>
   <g id="line2d_4">
    <path clip-path="url(#p080039d552)" d="M 73.8 113.546621 
L 73.8 113.546621 
" style="fill:none;stroke:#262626;stroke-linecap:round;stroke-width:2.25;"/>
   </g>
   <g id="line2d_5">
    <path clip-path="url(#p080039d552)" d="M 111 113.546616 
L 111 113.546616 
" style="fill:none;stroke:#262626;stroke-linecap:round;stroke-width:0.75;"/>
   </g>
   <g id="line2d_6">
    <path clip-path="url(#p080039d552)" d="M 111 113.546616 
L 111 113.546616 
" style="fill:none;stroke:#262626;stroke-linecap:round;stroke-width:2.25;"/>
   </g>
   <g id="patch_3">
    <path d="M 18 128.16 
L 18 17.28 
" style="fill:none;stroke:#262626;stroke-linecap:square;stroke-linejoin:miter;stroke-width:0.8;"/>
   </g>
   <g id="patch_4">
    <path d="M 18 128.16 
L 129.6 128.16 
" style="fill:none;stroke:#262626;stroke-linecap:square;stroke-linejoin:miter;stroke-width:0.8;"/>
   </g>
   <g id="PathCollection_1">
    <defs>
     <path d="M 0 0.75 
C 0.198902 0.75 0.389685 0.670975 0.53033 0.53033 
C 0.670975 0.389685 0.75 0.198902 0.75 0 
C 0.75 -0.198902 0.670975 -0.389685 0.53033 -0.53033 
C 0.389685 -0.670975 0.198902 -0.75 0 -0.75 
C -0.198902 -0.75 -0.389685 -0.670975 -0.53033 -0.53033 
C -0.670975 -0.389685 -0.75 -0.198902 -0.75 0 
C -0.75 0.198902 -0.670975 0.389685 -0.53033 0.53033 
C -0.389685 0.670975 -0.198902 0.75 0 0.75 
z
" id="m5102acbdeb" style="stroke:#262626;"/>
    </defs>
    <g clip-path="url(#p080039d552)">
     <use style="fill:#ffffff;stroke:#262626;" x="36.6" xlink:href="#m5102acbdeb" y="113.546621"/>
    </g>
   </g>
   <g id="PathCollection_2">
    <g clip-path="url(#p080039d552)">
     <use style="fill:#ffffff;stroke:#262626;" x="73.8" xlink:href="#m5102acbdeb" y="113.546621"/>
    </g>
   </g>
   <g id="PathCollection_3">
    <g clip-path="url(#p080039d552)">
     <use style="fill:#ffffff;stroke:#262626;" x="111" xlink:href="#m5102acbdeb" y="113.546616"/>
    </g>
   </g>
   <g id="text_8">
    <!-- Random -->
    <g style="fill:#262626;" transform="translate(28.445625 11.28)scale(0.24 -0.24)">
     <defs>
      <path d="M 422 0 
L 422 3319 
L 925 3319 
L 925 2853 
Q 1081 3097 1340 3245 
Q 1600 3394 1931 3394 
Q 2300 3394 2536 3241 
Q 2772 3088 2869 2813 
Q 3263 3394 3894 3394 
Q 4388 3394 4653 3120 
Q 4919 2847 4919 2278 
L 4919 0 
L 4359 0 
L 4359 2091 
Q 4359 2428 4304 2576 
Q 4250 2725 4106 2815 
Q 3963 2906 3769 2906 
Q 3419 2906 3187 2673 
Q 2956 2441 2956 1928 
L 2956 0 
L 2394 0 
L 2394 2156 
Q 2394 2531 2256 2718 
Q 2119 2906 1806 2906 
Q 1569 2906 1367 2781 
Q 1166 2656 1075 2415 
Q 984 2175 984 1722 
L 984 0 
L 422 0 
z
" id="ArialMT-6d" transform="scale(0.015625)"/>
     </defs>
     <use xlink:href="#ArialMT-52"/>
     <use x="72.216797" xlink:href="#ArialMT-61"/>
     <use x="127.832031" xlink:href="#ArialMT-6e"/>
     <use x="183.447266" xlink:href="#ArialMT-64"/>
     <use x="239.0625" xlink:href="#ArialMT-6f"/>
     <use x="294.677734" xlink:href="#ArialMT-6d"/>
    </g>
   </g>
  </g>
 </g>
 <defs>
  <clipPath id="p080039d552">
   <rect height="110.88" width="111.6" x="18" y="17.28"/>
  </clipPath>
 </defs>
</svg>
