<?xml version="1.0" encoding="utf-8" standalone="no"?>
<!DOCTYPE svg PUBLIC "-//W3C//DTD SVG 1.1//EN"
  "http://www.w3.org/Graphics/SVG/1.1/DTD/svg11.dtd">
<svg height="144pt" version="1.1" viewBox="0 0 144 144" width="144pt" xmlns="http://www.w3.org/2000/svg" xmlns:xlink="http://www.w3.org/1999/xlink">
 <metadata>
  <rdf:RDF xmlns:cc="http://creativecommons.org/ns#" xmlns:dc="http://purl.org/dc/elements/1.1/" xmlns:rdf="http://www.w3.org/1999/02/22-rdf-syntax-ns#">
   <cc:Work>
    <dc:type rdf:resource="http://purl.org/dc/dcmitype/StillImage"/>
    <dc:date>2023-01-27T12:56:08.036873</dc:date>
    <dc:format>image/svg+xml</dc:format>
    <dc:creator>
     <cc:Agent>
      <dc:title>Matplotlib v3.4.2, https://matplotlib.org/</dc:title>
     </cc:Agent>
    </dc:creator>
   </cc:Work>
  </rdf:RDF>
 </metadata>
 <defs>
  <style type="text/css">*{stroke-linecap:butt;stroke-linejoin:round;}</style>
 </defs>
 <g id="figure_1">
  <g id="patch_1">
   <path d="M 0 144 
L 144 144 
L 144 0 
L 0 0 
z
" style="fill:#ffffff;"/>
  </g>
  <g id="axes_1">
   <g id="patch_2">
    <path d="M 18 128.16 
L 129.6 128.16 
L 129.6 17.28 
L 18 17.28 
z
" style="fill:#ffffff;"/>
   </g>
   <g id="matplotlib.axis_1">
    <g id="xtick_1">
     <g id="text_1">
      <!-- Original -->
      <g style="fill:#262626;" transform="translate(41.78125 204.0725)rotate(-90)scale(0.2 -0.2)">
       <defs>
        <path d="M 309 2231 
Q 309 3372 921 4017 
Q 1534 4663 2503 4663 
Q 3138 4663 3647 4359 
Q 4156 4056 4423 3514 
Q 4691 2972 4691 2284 
Q 4691 1588 4409 1038 
Q 4128 488 3612 205 
Q 3097 -78 2500 -78 
Q 1853 -78 1343 234 
Q 834 547 571 1087 
Q 309 1628 309 2231 
z
M 934 2222 
Q 934 1394 1379 917 
Q 1825 441 2497 441 
Q 3181 441 3623 922 
Q 4066 1403 4066 2288 
Q 4066 2847 3877 3264 
Q 3688 3681 3323 3911 
Q 2959 4141 2506 4141 
Q 1863 4141 1398 3698 
Q 934 3256 934 2222 
z
" id="ArialMT-4f" transform="scale(0.015625)"/>
        <path d="M 416 0 
L 416 3319 
L 922 3319 
L 922 2816 
Q 1116 3169 1280 3281 
Q 1444 3394 1641 3394 
Q 1925 3394 2219 3213 
L 2025 2691 
Q 1819 2813 1613 2813 
Q 1428 2813 1281 2702 
Q 1134 2591 1072 2394 
Q 978 2094 978 1738 
L 978 0 
L 416 0 
z
" id="ArialMT-72" transform="scale(0.015625)"/>
        <path d="M 425 3934 
L 425 4581 
L 988 4581 
L 988 3934 
L 425 3934 
z
M 425 0 
L 425 3319 
L 988 3319 
L 988 0 
L 425 0 
z
" id="ArialMT-69" transform="scale(0.015625)"/>
        <path d="M 319 -275 
L 866 -356 
Q 900 -609 1056 -725 
Q 1266 -881 1628 -881 
Q 2019 -881 2231 -725 
Q 2444 -569 2519 -288 
Q 2563 -116 2559 434 
Q 2191 0 1641 0 
Q 956 0 581 494 
Q 206 988 206 1678 
Q 206 2153 378 2554 
Q 550 2956 876 3175 
Q 1203 3394 1644 3394 
Q 2231 3394 2613 2919 
L 2613 3319 
L 3131 3319 
L 3131 450 
Q 3131 -325 2973 -648 
Q 2816 -972 2473 -1159 
Q 2131 -1347 1631 -1347 
Q 1038 -1347 672 -1080 
Q 306 -813 319 -275 
z
M 784 1719 
Q 784 1066 1043 766 
Q 1303 466 1694 466 
Q 2081 466 2343 764 
Q 2606 1063 2606 1700 
Q 2606 2309 2336 2618 
Q 2066 2928 1684 2928 
Q 1309 2928 1046 2623 
Q 784 2319 784 1719 
z
" id="ArialMT-67" transform="scale(0.015625)"/>
        <path d="M 422 0 
L 422 3319 
L 928 3319 
L 928 2847 
Q 1294 3394 1984 3394 
Q 2284 3394 2536 3286 
Q 2788 3178 2913 3003 
Q 3038 2828 3088 2588 
Q 3119 2431 3119 2041 
L 3119 0 
L 2556 0 
L 2556 2019 
Q 2556 2363 2490 2533 
Q 2425 2703 2258 2804 
Q 2091 2906 1866 2906 
Q 1506 2906 1245 2678 
Q 984 2450 984 1813 
L 984 0 
L 422 0 
z
" id="ArialMT-6e" transform="scale(0.015625)"/>
        <path d="M 2588 409 
Q 2275 144 1986 34 
Q 1697 -75 1366 -75 
Q 819 -75 525 192 
Q 231 459 231 875 
Q 231 1119 342 1320 
Q 453 1522 633 1644 
Q 813 1766 1038 1828 
Q 1203 1872 1538 1913 
Q 2219 1994 2541 2106 
Q 2544 2222 2544 2253 
Q 2544 2597 2384 2738 
Q 2169 2928 1744 2928 
Q 1347 2928 1158 2789 
Q 969 2650 878 2297 
L 328 2372 
Q 403 2725 575 2942 
Q 747 3159 1072 3276 
Q 1397 3394 1825 3394 
Q 2250 3394 2515 3294 
Q 2781 3194 2906 3042 
Q 3031 2891 3081 2659 
Q 3109 2516 3109 2141 
L 3109 1391 
Q 3109 606 3145 398 
Q 3181 191 3288 0 
L 2700 0 
Q 2613 175 2588 409 
z
M 2541 1666 
Q 2234 1541 1622 1453 
Q 1275 1403 1131 1340 
Q 988 1278 909 1158 
Q 831 1038 831 891 
Q 831 666 1001 516 
Q 1172 366 1500 366 
Q 1825 366 2078 508 
Q 2331 650 2450 897 
Q 2541 1088 2541 1459 
L 2541 1666 
z
" id="ArialMT-61" transform="scale(0.015625)"/>
        <path d="M 409 0 
L 409 4581 
L 972 4581 
L 972 0 
L 409 0 
z
" id="ArialMT-6c" transform="scale(0.015625)"/>
       </defs>
       <use xlink:href="#ArialMT-4f"/>
       <use x="77.783203" xlink:href="#ArialMT-72"/>
       <use x="111.083984" xlink:href="#ArialMT-69"/>
       <use x="133.300781" xlink:href="#ArialMT-67"/>
       <use x="188.916016" xlink:href="#ArialMT-69"/>
       <use x="211.132812" xlink:href="#ArialMT-6e"/>
       <use x="266.748047" xlink:href="#ArialMT-61"/>
       <use x="322.363281" xlink:href="#ArialMT-6c"/>
      </g>
     </g>
    </g>
    <g id="xtick_2">
     <g id="text_2">
      <!-- Mutated -->
      <g style="fill:#262626;" transform="translate(78.970312 207.419375)rotate(-90)scale(0.2 -0.2)">
       <defs>
        <path d="M 475 0 
L 475 4581 
L 1388 4581 
L 2472 1338 
Q 2622 884 2691 659 
Q 2769 909 2934 1394 
L 4031 4581 
L 4847 4581 
L 4847 0 
L 4263 0 
L 4263 3834 
L 2931 0 
L 2384 0 
L 1059 3900 
L 1059 0 
L 475 0 
z
" id="ArialMT-4d" transform="scale(0.015625)"/>
        <path d="M 2597 0 
L 2597 488 
Q 2209 -75 1544 -75 
Q 1250 -75 995 37 
Q 741 150 617 320 
Q 494 491 444 738 
Q 409 903 409 1263 
L 409 3319 
L 972 3319 
L 972 1478 
Q 972 1038 1006 884 
Q 1059 663 1231 536 
Q 1403 409 1656 409 
Q 1909 409 2131 539 
Q 2353 669 2445 892 
Q 2538 1116 2538 1541 
L 2538 3319 
L 3100 3319 
L 3100 0 
L 2597 0 
z
" id="ArialMT-75" transform="scale(0.015625)"/>
        <path d="M 1650 503 
L 1731 6 
Q 1494 -44 1306 -44 
Q 1000 -44 831 53 
Q 663 150 594 308 
Q 525 466 525 972 
L 525 2881 
L 113 2881 
L 113 3319 
L 525 3319 
L 525 4141 
L 1084 4478 
L 1084 3319 
L 1650 3319 
L 1650 2881 
L 1084 2881 
L 1084 941 
Q 1084 700 1114 631 
Q 1144 563 1211 522 
Q 1278 481 1403 481 
Q 1497 481 1650 503 
z
" id="ArialMT-74" transform="scale(0.015625)"/>
        <path d="M 2694 1069 
L 3275 997 
Q 3138 488 2766 206 
Q 2394 -75 1816 -75 
Q 1088 -75 661 373 
Q 234 822 234 1631 
Q 234 2469 665 2931 
Q 1097 3394 1784 3394 
Q 2450 3394 2872 2941 
Q 3294 2488 3294 1666 
Q 3294 1616 3291 1516 
L 816 1516 
Q 847 969 1125 678 
Q 1403 388 1819 388 
Q 2128 388 2347 550 
Q 2566 713 2694 1069 
z
M 847 1978 
L 2700 1978 
Q 2663 2397 2488 2606 
Q 2219 2931 1791 2931 
Q 1403 2931 1139 2672 
Q 875 2413 847 1978 
z
" id="ArialMT-65" transform="scale(0.015625)"/>
        <path d="M 2575 0 
L 2575 419 
Q 2259 -75 1647 -75 
Q 1250 -75 917 144 
Q 584 363 401 755 
Q 219 1147 219 1656 
Q 219 2153 384 2558 
Q 550 2963 881 3178 
Q 1213 3394 1622 3394 
Q 1922 3394 2156 3267 
Q 2391 3141 2538 2938 
L 2538 4581 
L 3097 4581 
L 3097 0 
L 2575 0 
z
M 797 1656 
Q 797 1019 1065 703 
Q 1334 388 1700 388 
Q 2069 388 2326 689 
Q 2584 991 2584 1609 
Q 2584 2291 2321 2609 
Q 2059 2928 1675 2928 
Q 1300 2928 1048 2622 
Q 797 2316 797 1656 
z
" id="ArialMT-64" transform="scale(0.015625)"/>
       </defs>
       <use xlink:href="#ArialMT-4d"/>
       <use x="83.300781" xlink:href="#ArialMT-75"/>
       <use x="138.916016" xlink:href="#ArialMT-74"/>
       <use x="166.699219" xlink:href="#ArialMT-61"/>
       <use x="222.314453" xlink:href="#ArialMT-74"/>
       <use x="250.097656" xlink:href="#ArialMT-65"/>
       <use x="305.712891" xlink:href="#ArialMT-64"/>
      </g>
     </g>
    </g>
    <g id="xtick_3">
     <g id="text_3">
      <!-- STORM -->
      <g style="fill:#262626;" transform="translate(116.170312 207.025625)rotate(-90)scale(0.2 -0.2)">
       <defs>
        <path d="M 288 1472 
L 859 1522 
Q 900 1178 1048 958 
Q 1197 738 1509 602 
Q 1822 466 2213 466 
Q 2559 466 2825 569 
Q 3091 672 3220 851 
Q 3350 1031 3350 1244 
Q 3350 1459 3225 1620 
Q 3100 1781 2813 1891 
Q 2628 1963 1997 2114 
Q 1366 2266 1113 2400 
Q 784 2572 623 2826 
Q 463 3081 463 3397 
Q 463 3744 659 4045 
Q 856 4347 1234 4503 
Q 1613 4659 2075 4659 
Q 2584 4659 2973 4495 
Q 3363 4331 3572 4012 
Q 3781 3694 3797 3291 
L 3216 3247 
Q 3169 3681 2898 3903 
Q 2628 4125 2100 4125 
Q 1550 4125 1298 3923 
Q 1047 3722 1047 3438 
Q 1047 3191 1225 3031 
Q 1400 2872 2139 2705 
Q 2878 2538 3153 2413 
Q 3553 2228 3743 1945 
Q 3934 1663 3934 1294 
Q 3934 928 3725 604 
Q 3516 281 3123 101 
Q 2731 -78 2241 -78 
Q 1619 -78 1198 103 
Q 778 284 539 648 
Q 300 1013 288 1472 
z
" id="ArialMT-53" transform="scale(0.015625)"/>
        <path d="M 1659 0 
L 1659 4041 
L 150 4041 
L 150 4581 
L 3781 4581 
L 3781 4041 
L 2266 4041 
L 2266 0 
L 1659 0 
z
" id="ArialMT-54" transform="scale(0.015625)"/>
        <path d="M 503 0 
L 503 4581 
L 2534 4581 
Q 3147 4581 3465 4457 
Q 3784 4334 3975 4021 
Q 4166 3709 4166 3331 
Q 4166 2844 3850 2509 
Q 3534 2175 2875 2084 
Q 3116 1969 3241 1856 
Q 3506 1613 3744 1247 
L 4541 0 
L 3778 0 
L 3172 953 
Q 2906 1366 2734 1584 
Q 2563 1803 2427 1890 
Q 2291 1978 2150 2013 
Q 2047 2034 1813 2034 
L 1109 2034 
L 1109 0 
L 503 0 
z
M 1109 2559 
L 2413 2559 
Q 2828 2559 3062 2645 
Q 3297 2731 3419 2920 
Q 3541 3109 3541 3331 
Q 3541 3656 3305 3865 
Q 3069 4075 2559 4075 
L 1109 4075 
L 1109 2559 
z
" id="ArialMT-52" transform="scale(0.015625)"/>
       </defs>
       <use xlink:href="#ArialMT-53"/>
       <use x="66.699219" xlink:href="#ArialMT-54"/>
       <use x="126.033203" xlink:href="#ArialMT-4f"/>
       <use x="203.816406" xlink:href="#ArialMT-52"/>
       <use x="276.033203" xlink:href="#ArialMT-4d"/>
      </g>
     </g>
    </g>
    <g id="text_4">
     <!-- Method -->
     <g style="fill:#262626;" transform="translate(40.448437 225.735)scale(0.2 -0.2)">
      <defs>
       <path d="M 422 0 
L 422 4581 
L 984 4581 
L 984 2938 
Q 1378 3394 1978 3394 
Q 2347 3394 2619 3248 
Q 2891 3103 3008 2847 
Q 3125 2591 3125 2103 
L 3125 0 
L 2563 0 
L 2563 2103 
Q 2563 2525 2380 2717 
Q 2197 2909 1863 2909 
Q 1613 2909 1392 2779 
Q 1172 2650 1078 2428 
Q 984 2206 984 1816 
L 984 0 
L 422 0 
z
" id="ArialMT-68" transform="scale(0.015625)"/>
       <path d="M 213 1659 
Q 213 2581 725 3025 
Q 1153 3394 1769 3394 
Q 2453 3394 2887 2945 
Q 3322 2497 3322 1706 
Q 3322 1066 3130 698 
Q 2938 331 2570 128 
Q 2203 -75 1769 -75 
Q 1072 -75 642 372 
Q 213 819 213 1659 
z
M 791 1659 
Q 791 1022 1069 705 
Q 1347 388 1769 388 
Q 2188 388 2466 706 
Q 2744 1025 2744 1678 
Q 2744 2294 2464 2611 
Q 2184 2928 1769 2928 
Q 1347 2928 1069 2612 
Q 791 2297 791 1659 
z
" id="ArialMT-6f" transform="scale(0.015625)"/>
      </defs>
      <use xlink:href="#ArialMT-4d"/>
      <use x="83.300781" xlink:href="#ArialMT-65"/>
      <use x="138.916016" xlink:href="#ArialMT-74"/>
      <use x="166.699219" xlink:href="#ArialMT-68"/>
      <use x="222.314453" xlink:href="#ArialMT-6f"/>
      <use x="277.929688" xlink:href="#ArialMT-64"/>
     </g>
    </g>
   </g>
   <g id="matplotlib.axis_2">
    <g id="ytick_1">
     <g id="text_5">
      <!-- 0 -->
      <g style="fill:#262626;" transform="translate(-0.121875 122.459987)scale(0.2 -0.2)">
       <defs>
        <path d="M 266 2259 
Q 266 3072 433 3567 
Q 600 4063 929 4331 
Q 1259 4600 1759 4600 
Q 2128 4600 2406 4451 
Q 2684 4303 2865 4023 
Q 3047 3744 3150 3342 
Q 3253 2941 3253 2259 
Q 3253 1453 3087 958 
Q 2922 463 2592 192 
Q 2263 -78 1759 -78 
Q 1097 -78 719 397 
Q 266 969 266 2259 
z
M 844 2259 
Q 844 1131 1108 757 
Q 1372 384 1759 384 
Q 2147 384 2411 759 
Q 2675 1134 2675 2259 
Q 2675 3391 2411 3762 
Q 2147 4134 1753 4134 
Q 1366 4134 1134 3806 
Q 844 3388 844 2259 
z
" id="ArialMT-30" transform="scale(0.015625)"/>
       </defs>
       <use xlink:href="#ArialMT-30"/>
      </g>
     </g>
    </g>
    <g id="ytick_2">
     <g id="text_6">
      <!-- 1 -->
      <g style="fill:#262626;" transform="translate(-0.121875 34.562767)scale(0.2 -0.2)">
       <defs>
        <path d="M 2384 0 
L 1822 0 
L 1822 3584 
Q 1619 3391 1289 3197 
Q 959 3003 697 2906 
L 697 3450 
Q 1169 3672 1522 3987 
Q 1875 4303 2022 4600 
L 2384 4600 
L 2384 0 
z
" id="ArialMT-31" transform="scale(0.015625)"/>
       </defs>
       <use xlink:href="#ArialMT-31"/>
      </g>
     </g>
    </g>
    <g id="text_7">
     <!-- Predictions -->
     <g style="fill:#262626;" transform="translate(-8.096875 122.185625)rotate(-90)scale(0.2 -0.2)">
      <defs>
       <path d="M 494 0 
L 494 4581 
L 2222 4581 
Q 2678 4581 2919 4538 
Q 3256 4481 3484 4323 
Q 3713 4166 3852 3881 
Q 3991 3597 3991 3256 
Q 3991 2672 3619 2267 
Q 3247 1863 2275 1863 
L 1100 1863 
L 1100 0 
L 494 0 
z
M 1100 2403 
L 2284 2403 
Q 2872 2403 3119 2622 
Q 3366 2841 3366 3238 
Q 3366 3525 3220 3729 
Q 3075 3934 2838 4000 
Q 2684 4041 2272 4041 
L 1100 4041 
L 1100 2403 
z
" id="ArialMT-50" transform="scale(0.015625)"/>
       <path d="M 2588 1216 
L 3141 1144 
Q 3050 572 2676 248 
Q 2303 -75 1759 -75 
Q 1078 -75 664 370 
Q 250 816 250 1647 
Q 250 2184 428 2587 
Q 606 2991 970 3192 
Q 1334 3394 1763 3394 
Q 2303 3394 2647 3120 
Q 2991 2847 3088 2344 
L 2541 2259 
Q 2463 2594 2264 2762 
Q 2066 2931 1784 2931 
Q 1359 2931 1093 2626 
Q 828 2322 828 1663 
Q 828 994 1084 691 
Q 1341 388 1753 388 
Q 2084 388 2306 591 
Q 2528 794 2588 1216 
z
" id="ArialMT-63" transform="scale(0.015625)"/>
       <path d="M 197 991 
L 753 1078 
Q 800 744 1014 566 
Q 1228 388 1613 388 
Q 2000 388 2187 545 
Q 2375 703 2375 916 
Q 2375 1106 2209 1216 
Q 2094 1291 1634 1406 
Q 1016 1563 777 1677 
Q 538 1791 414 1992 
Q 291 2194 291 2438 
Q 291 2659 392 2848 
Q 494 3038 669 3163 
Q 800 3259 1026 3326 
Q 1253 3394 1513 3394 
Q 1903 3394 2198 3281 
Q 2494 3169 2634 2976 
Q 2775 2784 2828 2463 
L 2278 2388 
Q 2241 2644 2061 2787 
Q 1881 2931 1553 2931 
Q 1166 2931 1000 2803 
Q 834 2675 834 2503 
Q 834 2394 903 2306 
Q 972 2216 1119 2156 
Q 1203 2125 1616 2013 
Q 2213 1853 2448 1751 
Q 2684 1650 2818 1456 
Q 2953 1263 2953 975 
Q 2953 694 2789 445 
Q 2625 197 2315 61 
Q 2006 -75 1616 -75 
Q 969 -75 630 194 
Q 291 463 197 991 
z
" id="ArialMT-73" transform="scale(0.015625)"/>
      </defs>
      <use xlink:href="#ArialMT-50"/>
      <use x="66.699219" xlink:href="#ArialMT-72"/>
      <use x="100" xlink:href="#ArialMT-65"/>
      <use x="155.615234" xlink:href="#ArialMT-64"/>
      <use x="211.230469" xlink:href="#ArialMT-69"/>
      <use x="233.447266" xlink:href="#ArialMT-63"/>
      <use x="283.447266" xlink:href="#ArialMT-74"/>
      <use x="311.230469" xlink:href="#ArialMT-69"/>
      <use x="333.447266" xlink:href="#ArialMT-6f"/>
      <use x="389.0625" xlink:href="#ArialMT-6e"/>
      <use x="444.677734" xlink:href="#ArialMT-73"/>
     </g>
    </g>
   </g>
   <g id="PolyCollection_1">
    <defs>
     <path d="M 36.64124 -20.88 
L 36.55876 -20.88 
L 36.534081 -21.854827 
L 36.500967 -22.829654 
L 36.460152 -23.804481 
L 36.414361 -24.779308 
L 36.368332 -25.754135 
L 36.328164 -26.728962 
L 36.30003 -27.70379 
L 36.288622 -28.678617 
L 36.295843 -29.653444 
L 36.320283 -30.628271 
L 36.357647 -31.603098 
L 36.40199 -32.577925 
L 36.447246 -33.552752 
L 36.488544 -34.527579 
L 36.522908 -35.502406 
L 36.549303 -36.477233 
L 36.568186 -37.45206 
L 36.580867 -38.426887 
L 36.588921 -39.401714 
L 36.593795 -40.376541 
L 36.596626 -41.351369 
L 36.598216 -42.326196 
L 36.599082 -43.301023 
L 36.599541 -44.27585 
L 36.599778 -45.250677 
L 36.599897 -46.225504 
L 36.599954 -47.200331 
L 36.59998 -48.175158 
L 36.599992 -49.149985 
L 36.599997 -50.124812 
L 36.599999 -51.099639 
L 36.6 -52.074466 
L 36.6 -53.049293 
L 36.6 -54.02412 
L 36.6 -54.998948 
L 36.6 -55.973775 
L 36.6 -56.948602 
L 36.6 -57.923429 
L 36.6 -58.898256 
L 36.6 -59.873083 
L 36.6 -60.84791 
L 36.6 -61.822737 
L 36.6 -62.797564 
L 36.6 -63.772391 
L 36.6 -64.747218 
L 36.6 -65.722045 
L 36.6 -66.696872 
L 36.6 -67.671699 
L 36.599999 -68.646527 
L 36.599998 -69.621354 
L 36.599996 -70.596181 
L 36.59999 -71.571008 
L 36.599978 -72.545835 
L 36.599953 -73.520662 
L 36.599906 -74.495489 
L 36.599823 -75.470316 
L 36.599688 -76.445143 
L 36.599481 -77.41997 
L 36.599189 -78.394797 
L 36.598809 -79.369624 
L 36.598357 -80.344451 
L 36.597871 -81.319278 
L 36.597407 -82.294106 
L 36.597032 -83.268933 
L 36.596808 -84.24376 
L 36.596774 -85.218587 
L 36.596936 -86.193414 
L 36.597265 -87.168241 
L 36.597707 -88.143068 
L 36.598193 -89.117895 
L 36.598662 -90.092722 
L 36.599069 -91.067549 
L 36.599391 -92.042376 
L 36.599625 -93.017203 
L 36.599783 -93.99203 
L 36.59988 -94.966857 
L 36.599933 -95.941685 
L 36.599954 -96.916512 
L 36.59995 -97.891339 
L 36.599918 -98.866166 
L 36.599852 -99.840993 
L 36.599736 -100.81582 
L 36.599553 -101.790647 
L 36.599288 -102.765474 
L 36.598935 -103.740301 
L 36.598503 -104.715128 
L 36.598022 -105.689955 
L 36.597544 -106.664782 
L 36.597135 -107.639609 
L 36.596858 -108.614436 
L 36.596763 -109.589264 
L 36.596866 -110.564091 
L 36.597149 -111.538918 
L 36.597562 -112.513745 
L 36.598041 -113.488572 
L 36.598521 -114.463399 
L 36.598951 -115.438226 
L 36.599301 -116.413053 
L 36.599562 -117.38788 
L 36.600438 -117.38788 
L 36.600438 -117.38788 
L 36.600699 -116.413053 
L 36.601049 -115.438226 
L 36.601479 -114.463399 
L 36.601959 -113.488572 
L 36.602438 -112.513745 
L 36.602851 -111.538918 
L 36.603134 -110.564091 
L 36.603237 -109.589264 
L 36.603142 -108.614436 
L 36.602865 -107.639609 
L 36.602456 -106.664782 
L 36.601978 -105.689955 
L 36.601497 -104.715128 
L 36.601065 -103.740301 
L 36.600712 -102.765474 
L 36.600447 -101.790647 
L 36.600264 -100.81582 
L 36.600148 -99.840993 
L 36.600082 -98.866166 
L 36.60005 -97.891339 
L 36.600046 -96.916512 
L 36.600067 -95.941685 
L 36.60012 -94.966857 
L 36.600217 -93.99203 
L 36.600375 -93.017203 
L 36.600609 -92.042376 
L 36.600931 -91.067549 
L 36.601338 -90.092722 
L 36.601807 -89.117895 
L 36.602293 -88.143068 
L 36.602735 -87.168241 
L 36.603064 -86.193414 
L 36.603226 -85.218587 
L 36.603192 -84.24376 
L 36.602968 -83.268933 
L 36.602593 -82.294106 
L 36.602129 -81.319278 
L 36.601643 -80.344451 
L 36.601191 -79.369624 
L 36.600811 -78.394797 
L 36.600519 -77.41997 
L 36.600312 -76.445143 
L 36.600177 -75.470316 
L 36.600094 -74.495489 
L 36.600047 -73.520662 
L 36.600022 -72.545835 
L 36.60001 -71.571008 
L 36.600004 -70.596181 
L 36.600002 -69.621354 
L 36.600001 -68.646527 
L 36.6 -67.671699 
L 36.6 -66.696872 
L 36.6 -65.722045 
L 36.6 -64.747218 
L 36.6 -63.772391 
L 36.6 -62.797564 
L 36.6 -61.822737 
L 36.6 -60.84791 
L 36.6 -59.873083 
L 36.6 -58.898256 
L 36.6 -57.923429 
L 36.6 -56.948602 
L 36.6 -55.973775 
L 36.6 -54.998948 
L 36.6 -54.02412 
L 36.6 -53.049293 
L 36.6 -52.074466 
L 36.600001 -51.099639 
L 36.600003 -50.124812 
L 36.600008 -49.149985 
L 36.60002 -48.175158 
L 36.600046 -47.200331 
L 36.600103 -46.225504 
L 36.600222 -45.250677 
L 36.600459 -44.27585 
L 36.600918 -43.301023 
L 36.601784 -42.326196 
L 36.603374 -41.351369 
L 36.606205 -40.376541 
L 36.611079 -39.401714 
L 36.619133 -38.426887 
L 36.631814 -37.45206 
L 36.650697 -36.477233 
L 36.677092 -35.502406 
L 36.711456 -34.527579 
L 36.752754 -33.552752 
L 36.79801 -32.577925 
L 36.842353 -31.603098 
L 36.879717 -30.628271 
L 36.904157 -29.653444 
L 36.911378 -28.678617 
L 36.89997 -27.70379 
L 36.871836 -26.728962 
L 36.831668 -25.754135 
L 36.785639 -24.779308 
L 36.739848 -23.804481 
L 36.699033 -22.829654 
L 36.665919 -21.854827 
L 36.64124 -20.88 
z
" id="mcef55406ce" style="stroke:#262626;stroke-width:0.75;"/>
    </defs>
    <g clip-path="url(#p6e69d2bbc2)">
     <use style="fill:#7f9dd2;stroke:#262626;stroke-width:0.75;" x="0" xlink:href="#mcef55406ce" y="144"/>
    </g>
   </g>
   <g id="PolyCollection_2">
    <defs>
     <path d="M 73.861752 -23.612872 
L 73.738248 -23.612872 
L 73.674835 -24.603449 
L 73.581943 -25.594026 
L 73.473436 -26.584603 
L 73.379503 -27.57518 
L 73.334321 -28.565757 
L 73.356229 -29.556334 
L 73.435774 -30.546911 
L 73.542091 -31.537488 
L 73.641871 -32.528065 
L 73.715348 -33.518642 
L 73.759579 -34.509219 
L 73.781798 -35.499796 
L 73.791239 -36.490373 
L 73.794696 -37.48095 
L 73.795867 -38.471527 
L 73.796344 -39.462105 
L 73.79667 -40.452682 
L 73.796973 -41.443259 
L 73.797254 -42.433836 
L 73.7975 -43.424413 
L 73.797711 -44.41499 
L 73.797884 -45.405567 
L 73.79802 -46.396144 
L 73.79812 -47.386721 
L 73.798202 -48.377298 
L 73.798287 -49.367875 
L 73.798389 -50.358452 
L 73.798507 -51.349029 
L 73.798631 -52.339606 
L 73.798746 -53.330183 
L 73.798845 -54.32076 
L 73.798924 -55.311337 
L 73.79898 -56.301914 
L 73.799013 -57.292491 
L 73.799018 -58.283069 
L 73.798987 -59.273646 
L 73.798915 -60.264223 
L 73.798804 -61.2548 
L 73.798665 -62.245377 
L 73.798518 -63.235954 
L 73.798392 -64.226531 
L 73.798315 -65.217108 
L 73.798303 -66.207685 
L 73.798348 -67.198262 
L 73.798423 -68.188839 
L 73.798501 -69.179416 
L 73.798569 -70.169993 
L 73.798636 -71.16057 
L 73.79872 -72.151147 
L 73.798829 -73.141724 
L 73.798952 -74.132301 
L 73.799067 -75.122878 
L 73.79915 -76.113456 
L 73.799193 -77.104033 
L 73.799201 -78.09461 
L 73.799185 -79.085187 
L 73.799155 -80.075764 
L 73.799119 -81.066341 
L 73.799083 -82.056918 
L 73.799059 -83.047495 
L 73.799055 -84.038072 
L 73.799072 -85.028649 
L 73.799094 -86.019226 
L 73.799102 -87.009803 
L 73.799081 -88.00038 
L 73.799033 -88.990957 
L 73.798967 -89.981534 
L 73.798901 -90.972111 
L 73.798852 -91.962688 
L 73.798835 -92.953265 
L 73.798861 -93.943842 
L 73.798926 -94.93442 
L 73.799009 -95.924997 
L 73.799076 -96.915574 
L 73.799089 -97.906151 
L 73.799027 -98.896728 
L 73.79889 -99.887305 
L 73.798704 -100.877882 
L 73.798506 -101.868459 
L 73.798335 -102.859036 
L 73.798214 -103.849613 
L 73.798141 -104.84019 
L 73.798095 -105.830767 
L 73.798038 -106.821344 
L 73.797928 -107.811921 
L 73.797716 -108.802498 
L 73.797347 -109.793075 
L 73.796761 -110.783652 
L 73.795912 -111.774229 
L 73.794833 -112.764807 
L 73.793693 -113.755384 
L 73.792811 -114.745961 
L 73.792544 -115.736538 
L 73.793092 -116.727115 
L 73.79435 -117.717692 
L 73.795954 -118.708269 
L 73.797476 -119.698846 
L 73.798633 -120.689423 
L 73.799359 -121.68 
L 73.800641 -121.68 
L 73.800641 -121.68 
L 73.801367 -120.689423 
L 73.802524 -119.698846 
L 73.804046 -118.708269 
L 73.80565 -117.717692 
L 73.806908 -116.727115 
L 73.807456 -115.736538 
L 73.807189 -114.745961 
L 73.806307 -113.755384 
L 73.805167 -112.764807 
L 73.804088 -111.774229 
L 73.803239 -110.783652 
L 73.802653 -109.793075 
L 73.802284 -108.802498 
L 73.802072 -107.811921 
L 73.801962 -106.821344 
L 73.801905 -105.830767 
L 73.801859 -104.84019 
L 73.801786 -103.849613 
L 73.801665 -102.859036 
L 73.801494 -101.868459 
L 73.801296 -100.877882 
L 73.80111 -99.887305 
L 73.800973 -98.896728 
L 73.800911 -97.906151 
L 73.800924 -96.915574 
L 73.800991 -95.924997 
L 73.801074 -94.93442 
L 73.801139 -93.943842 
L 73.801165 -92.953265 
L 73.801148 -91.962688 
L 73.801099 -90.972111 
L 73.801033 -89.981534 
L 73.800967 -88.990957 
L 73.800919 -88.00038 
L 73.800898 -87.009803 
L 73.800906 -86.019226 
L 73.800928 -85.028649 
L 73.800945 -84.038072 
L 73.800941 -83.047495 
L 73.800917 -82.056918 
L 73.800881 -81.066341 
L 73.800845 -80.075764 
L 73.800815 -79.085187 
L 73.800799 -78.09461 
L 73.800807 -77.104033 
L 73.80085 -76.113456 
L 73.800933 -75.122878 
L 73.801048 -74.132301 
L 73.801171 -73.141724 
L 73.80128 -72.151147 
L 73.801364 -71.16057 
L 73.801431 -70.169993 
L 73.801499 -69.179416 
L 73.801577 -68.188839 
L 73.801652 -67.198262 
L 73.801697 -66.207685 
L 73.801685 -65.217108 
L 73.801608 -64.226531 
L 73.801482 -63.235954 
L 73.801335 -62.245377 
L 73.801196 -61.2548 
L 73.801085 -60.264223 
L 73.801013 -59.273646 
L 73.800982 -58.283069 
L 73.800987 -57.292491 
L 73.80102 -56.301914 
L 73.801076 -55.311337 
L 73.801155 -54.32076 
L 73.801254 -53.330183 
L 73.801369 -52.339606 
L 73.801493 -51.349029 
L 73.801611 -50.358452 
L 73.801713 -49.367875 
L 73.801798 -48.377298 
L 73.80188 -47.386721 
L 73.80198 -46.396144 
L 73.802116 -45.405567 
L 73.802289 -44.41499 
L 73.8025 -43.424413 
L 73.802746 -42.433836 
L 73.803027 -41.443259 
L 73.80333 -40.452682 
L 73.803656 -39.462105 
L 73.804133 -38.471527 
L 73.805304 -37.48095 
L 73.808761 -36.490373 
L 73.818202 -35.499796 
L 73.840421 -34.509219 
L 73.884652 -33.518642 
L 73.958129 -32.528065 
L 74.057909 -31.537488 
L 74.164226 -30.546911 
L 74.243771 -29.556334 
L 74.265679 -28.565757 
L 74.220497 -27.57518 
L 74.126564 -26.584603 
L 74.018057 -25.594026 
L 73.925165 -24.603449 
L 73.861752 -23.612872 
z
" id="mfd25e6d31c" style="stroke:#262626;stroke-width:0.75;"/>
    </defs>
    <g clip-path="url(#p6e69d2bbc2)">
     <use style="fill:#1a1a66;stroke:#262626;stroke-width:0.75;" x="0" xlink:href="#mfd25e6d31c" y="144"/>
    </g>
   </g>
   <g id="PolyCollection_3">
    <defs>
     <path d="M 111.969219 -28.593415 
L 110.030781 -28.593415 
L 109.8852 -28.596971 
L 109.723416 -28.600527 
L 109.544606 -28.604084 
L 109.348069 -28.60764 
L 109.133257 -28.611196 
L 108.899803 -28.614752 
L 108.64755 -28.618309 
L 108.37658 -28.621865 
L 108.087242 -28.625421 
L 107.780168 -28.628977 
L 107.456296 -28.632533 
L 107.116879 -28.63609 
L 106.763492 -28.639646 
L 106.398026 -28.643202 
L 106.022684 -28.646758 
L 105.639955 -28.650315 
L 105.252588 -28.653871 
L 104.863558 -28.657427 
L 104.476012 -28.660983 
L 104.093224 -28.66454 
L 103.718523 -28.668096 
L 103.355233 -28.671652 
L 103.006595 -28.675208 
L 102.675692 -28.678765 
L 102.365374 -28.682321 
L 102.07818 -28.685877 
L 101.816266 -28.689433 
L 101.58134 -28.69299 
L 101.374599 -28.696546 
L 101.196687 -28.700102 
L 101.047651 -28.703658 
L 100.926923 -28.707215 
L 100.833309 -28.710771 
L 100.765001 -28.714327 
L 100.719598 -28.717883 
L 100.694147 -28.72144 
L 100.685204 -28.724996 
L 100.688904 -28.728552 
L 100.70105 -28.732108 
L 100.717209 -28.735664 
L 100.732821 -28.739221 
L 100.743316 -28.742777 
L 100.744235 -28.746333 
L 100.731346 -28.749889 
L 100.70077 -28.753446 
L 100.649087 -28.757002 
L 100.573445 -28.760558 
L 100.471653 -28.764114 
L 100.342258 -28.767671 
L 100.184604 -28.771227 
L 99.998879 -28.774783 
L 99.786131 -28.778339 
L 99.548272 -28.781896 
L 99.288051 -28.785452 
L 99.00901 -28.789008 
L 98.71542 -28.792564 
L 98.412192 -28.796121 
L 98.104773 -28.799677 
L 97.799028 -28.803233 
L 97.501111 -28.806789 
L 97.21732 -28.810346 
L 96.953955 -28.813902 
L 96.717171 -28.817458 
L 96.512836 -28.821014 
L 96.346396 -28.82457 
L 96.222745 -28.828127 
L 96.14612 -28.831683 
L 96.12 -28.835239 
L 96.147036 -28.838795 
L 96.228994 -28.842352 
L 96.366726 -28.845908 
L 96.560158 -28.849464 
L 96.808308 -28.85302 
L 97.109318 -28.856577 
L 97.460514 -28.860133 
L 97.858476 -28.863689 
L 98.299127 -28.867245 
L 98.77784 -28.870802 
L 99.289541 -28.874358 
L 99.828832 -28.877914 
L 100.390105 -28.88147 
L 100.967662 -28.885027 
L 101.555827 -28.888583 
L 102.149053 -28.892139 
L 102.74202 -28.895695 
L 103.329717 -28.899252 
L 103.907515 -28.902808 
L 104.471231 -28.906364 
L 105.017163 -28.90992 
L 105.542126 -28.913477 
L 106.043465 -28.917033 
L 106.519057 -28.920589 
L 106.967303 -28.924145 
L 107.387104 -28.927701 
L 107.777834 -28.931258 
L 108.139302 -28.934814 
L 108.471709 -28.93837 
L 108.775604 -28.941926 
L 109.05183 -28.945483 
L 112.94817 -28.945483 
L 112.94817 -28.945483 
L 113.224396 -28.941926 
L 113.528291 -28.93837 
L 113.860698 -28.934814 
L 114.222166 -28.931258 
L 114.612896 -28.927701 
L 115.032697 -28.924145 
L 115.480943 -28.920589 
L 115.956535 -28.917033 
L 116.457874 -28.913477 
L 116.982837 -28.90992 
L 117.528769 -28.906364 
L 118.092485 -28.902808 
L 118.670283 -28.899252 
L 119.25798 -28.895695 
L 119.850947 -28.892139 
L 120.444173 -28.888583 
L 121.032338 -28.885027 
L 121.609895 -28.88147 
L 122.171168 -28.877914 
L 122.710459 -28.874358 
L 123.22216 -28.870802 
L 123.700873 -28.867245 
L 124.141524 -28.863689 
L 124.539486 -28.860133 
L 124.890682 -28.856577 
L 125.191692 -28.85302 
L 125.439842 -28.849464 
L 125.633274 -28.845908 
L 125.771006 -28.842352 
L 125.852964 -28.838795 
L 125.88 -28.835239 
L 125.85388 -28.831683 
L 125.777255 -28.828127 
L 125.653604 -28.82457 
L 125.487164 -28.821014 
L 125.282829 -28.817458 
L 125.046045 -28.813902 
L 124.78268 -28.810346 
L 124.498889 -28.806789 
L 124.200972 -28.803233 
L 123.895227 -28.799677 
L 123.587808 -28.796121 
L 123.28458 -28.792564 
L 122.99099 -28.789008 
L 122.711949 -28.785452 
L 122.451728 -28.781896 
L 122.213869 -28.778339 
L 122.001121 -28.774783 
L 121.815396 -28.771227 
L 121.657742 -28.767671 
L 121.528347 -28.764114 
L 121.426555 -28.760558 
L 121.350913 -28.757002 
L 121.29923 -28.753446 
L 121.268654 -28.749889 
L 121.255765 -28.746333 
L 121.256684 -28.742777 
L 121.267179 -28.739221 
L 121.282791 -28.735664 
L 121.29895 -28.732108 
L 121.311096 -28.728552 
L 121.314796 -28.724996 
L 121.305853 -28.72144 
L 121.280402 -28.717883 
L 121.234999 -28.714327 
L 121.166691 -28.710771 
L 121.073077 -28.707215 
L 120.952349 -28.703658 
L 120.803313 -28.700102 
L 120.625401 -28.696546 
L 120.41866 -28.69299 
L 120.183734 -28.689433 
L 119.92182 -28.685877 
L 119.634626 -28.682321 
L 119.324308 -28.678765 
L 118.993405 -28.675208 
L 118.644767 -28.671652 
L 118.281477 -28.668096 
L 117.906776 -28.66454 
L 117.523988 -28.660983 
L 117.136442 -28.657427 
L 116.747412 -28.653871 
L 116.360045 -28.650315 
L 115.977316 -28.646758 
L 115.601974 -28.643202 
L 115.236508 -28.639646 
L 114.883121 -28.63609 
L 114.543704 -28.632533 
L 114.219832 -28.628977 
L 113.912758 -28.625421 
L 113.62342 -28.621865 
L 113.35245 -28.618309 
L 113.100197 -28.614752 
L 112.866743 -28.611196 
L 112.651931 -28.60764 
L 112.455394 -28.604084 
L 112.276584 -28.600527 
L 112.1148 -28.596971 
L 111.969219 -28.593415 
z
" id="m8dc2ca195c" style="stroke:#262626;stroke-width:0.75;"/>
    </defs>
    <g clip-path="url(#p6e69d2bbc2)">
     <use style="fill:#cc8733;stroke:#262626;stroke-width:0.75;" x="0" xlink:href="#m8dc2ca195c" y="144"/>
    </g>
   </g>
   <g id="line2d_1">
    <path clip-path="url(#p6e69d2bbc2)" d="M 36.6 115.302174 
L 36.6 115.298242 
" style="fill:none;stroke:#262626;stroke-linecap:round;stroke-width:0.75;"/>
   </g>
   <g id="line2d_2">
    <path clip-path="url(#p6e69d2bbc2)" d="M 36.6 115.302172 
L 36.6 115.300175 
" style="fill:none;stroke:#262626;stroke-linecap:round;stroke-width:2.25;"/>
   </g>
   <g id="line2d_3">
    <path clip-path="url(#p6e69d2bbc2)" d="M 73.8 115.302174 
L 73.8 115.29177 
" style="fill:none;stroke:#262626;stroke-linecap:round;stroke-width:0.75;"/>
   </g>
   <g id="line2d_4">
    <path clip-path="url(#p6e69d2bbc2)" d="M 73.8 115.302172 
L 73.8 115.298002 
" style="fill:none;stroke:#262626;stroke-linecap:round;stroke-width:2.25;"/>
   </g>
   <g id="line2d_5">
    <path clip-path="url(#p6e69d2bbc2)" d="M 111 115.301078 
L 111 115.160024 
" style="fill:none;stroke:#262626;stroke-linecap:round;stroke-width:0.75;"/>
   </g>
   <g id="line2d_6">
    <path clip-path="url(#p6e69d2bbc2)" d="M 111 115.283808 
L 111 115.160024 
" style="fill:none;stroke:#262626;stroke-linecap:round;stroke-width:2.25;"/>
   </g>
   <g id="patch_3">
    <path d="M 18 128.16 
L 18 17.28 
" style="fill:none;stroke:#262626;stroke-linecap:square;stroke-linejoin:miter;stroke-width:0.8;"/>
   </g>
   <g id="patch_4">
    <path d="M 18 128.16 
L 129.6 128.16 
" style="fill:none;stroke:#262626;stroke-linecap:square;stroke-linejoin:miter;stroke-width:0.8;"/>
   </g>
   <g id="PathCollection_1">
    <defs>
     <path d="M 0 0.75 
C 0.198902 0.75 0.389685 0.670975 0.53033 0.53033 
C 0.670975 0.389685 0.75 0.198902 0.75 0 
C 0.75 -0.198902 0.670975 -0.389685 0.53033 -0.53033 
C 0.389685 -0.670975 0.198902 -0.75 0 -0.75 
C -0.198902 -0.75 -0.389685 -0.670975 -0.53033 -0.53033 
C -0.670975 -0.389685 -0.75 -0.198902 -0.75 0 
C -0.75 0.198902 -0.670975 0.389685 -0.53033 0.53033 
C -0.389685 0.670975 -0.198902 0.75 0 0.75 
z
" id="m4bea6470ba" style="stroke:#262626;"/>
    </defs>
    <g clip-path="url(#p6e69d2bbc2)">
     <use style="fill:#ffffff;stroke:#262626;" x="36.6" xlink:href="#m4bea6470ba" y="115.302114"/>
    </g>
   </g>
   <g id="PathCollection_2">
    <g clip-path="url(#p6e69d2bbc2)">
     <use style="fill:#ffffff;stroke:#262626;" x="73.8" xlink:href="#m4bea6470ba" y="115.302063"/>
    </g>
   </g>
   <g id="PathCollection_3">
    <g clip-path="url(#p6e69d2bbc2)">
     <use style="fill:#ffffff;stroke:#262626;" x="111" xlink:href="#m4bea6470ba" y="115.160024"/>
    </g>
   </g>
   <g id="text_8">
    <!-- Bottom 10% -->
    <g style="fill:#262626;" transform="translate(8.435625 11.28)scale(0.24 -0.24)">
     <defs>
      <path d="M 469 0 
L 469 4581 
L 2188 4581 
Q 2713 4581 3030 4442 
Q 3347 4303 3526 4014 
Q 3706 3725 3706 3409 
Q 3706 3116 3547 2856 
Q 3388 2597 3066 2438 
Q 3481 2316 3704 2022 
Q 3928 1728 3928 1328 
Q 3928 1006 3792 729 
Q 3656 453 3456 303 
Q 3256 153 2954 76 
Q 2653 0 2216 0 
L 469 0 
z
M 1075 2656 
L 2066 2656 
Q 2469 2656 2644 2709 
Q 2875 2778 2992 2937 
Q 3109 3097 3109 3338 
Q 3109 3566 3000 3739 
Q 2891 3913 2687 3977 
Q 2484 4041 1991 4041 
L 1075 4041 
L 1075 2656 
z
M 1075 541 
L 2216 541 
Q 2509 541 2628 563 
Q 2838 600 2978 687 
Q 3119 775 3209 942 
Q 3300 1109 3300 1328 
Q 3300 1584 3169 1773 
Q 3038 1963 2805 2039 
Q 2572 2116 2134 2116 
L 1075 2116 
L 1075 541 
z
" id="ArialMT-42" transform="scale(0.015625)"/>
      <path d="M 422 0 
L 422 3319 
L 925 3319 
L 925 2853 
Q 1081 3097 1340 3245 
Q 1600 3394 1931 3394 
Q 2300 3394 2536 3241 
Q 2772 3088 2869 2813 
Q 3263 3394 3894 3394 
Q 4388 3394 4653 3120 
Q 4919 2847 4919 2278 
L 4919 0 
L 4359 0 
L 4359 2091 
Q 4359 2428 4304 2576 
Q 4250 2725 4106 2815 
Q 3963 2906 3769 2906 
Q 3419 2906 3187 2673 
Q 2956 2441 2956 1928 
L 2956 0 
L 2394 0 
L 2394 2156 
Q 2394 2531 2256 2718 
Q 2119 2906 1806 2906 
Q 1569 2906 1367 2781 
Q 1166 2656 1075 2415 
Q 984 2175 984 1722 
L 984 0 
L 422 0 
z
" id="ArialMT-6d" transform="scale(0.015625)"/>
      <path id="ArialMT-20" transform="scale(0.015625)"/>
      <path d="M 372 3481 
Q 372 3972 619 4315 
Q 866 4659 1334 4659 
Q 1766 4659 2048 4351 
Q 2331 4044 2331 3447 
Q 2331 2866 2045 2552 
Q 1759 2238 1341 2238 
Q 925 2238 648 2547 
Q 372 2856 372 3481 
z
M 1350 4272 
Q 1141 4272 1002 4090 
Q 863 3909 863 3425 
Q 863 2984 1003 2804 
Q 1144 2625 1350 2625 
Q 1563 2625 1702 2806 
Q 1841 2988 1841 3469 
Q 1841 3913 1700 4092 
Q 1559 4272 1350 4272 
z
M 1353 -169 
L 3859 4659 
L 4316 4659 
L 1819 -169 
L 1353 -169 
z
M 3334 1075 
Q 3334 1569 3581 1911 
Q 3828 2253 4300 2253 
Q 4731 2253 5014 1945 
Q 5297 1638 5297 1041 
Q 5297 459 5011 145 
Q 4725 -169 4303 -169 
Q 3888 -169 3611 142 
Q 3334 453 3334 1075 
z
M 4316 1866 
Q 4103 1866 3964 1684 
Q 3825 1503 3825 1019 
Q 3825 581 3965 400 
Q 4106 219 4313 219 
Q 4528 219 4667 400 
Q 4806 581 4806 1063 
Q 4806 1506 4665 1686 
Q 4525 1866 4316 1866 
z
" id="ArialMT-25" transform="scale(0.015625)"/>
     </defs>
     <use xlink:href="#ArialMT-42"/>
     <use x="66.699219" xlink:href="#ArialMT-6f"/>
     <use x="122.314453" xlink:href="#ArialMT-74"/>
     <use x="150.097656" xlink:href="#ArialMT-74"/>
     <use x="177.880859" xlink:href="#ArialMT-6f"/>
     <use x="233.496094" xlink:href="#ArialMT-6d"/>
     <use x="316.796875" xlink:href="#ArialMT-20"/>
     <use x="344.580078" xlink:href="#ArialMT-31"/>
     <use x="400.195312" xlink:href="#ArialMT-30"/>
     <use x="455.810547" xlink:href="#ArialMT-25"/>
    </g>
   </g>
  </g>
 </g>
 <defs>
  <clipPath id="p6e69d2bbc2">
   <rect height="110.88" width="111.6" x="18" y="17.28"/>
  </clipPath>
 </defs>
</svg>
