<?xml version="1.0" encoding="utf-8" standalone="no"?>
<!DOCTYPE svg PUBLIC "-//W3C//DTD SVG 1.1//EN"
  "http://www.w3.org/Graphics/SVG/1.1/DTD/svg11.dtd">
<svg height="144pt" version="1.1" viewBox="0 0 144 144" width="144pt" xmlns="http://www.w3.org/2000/svg" xmlns:xlink="http://www.w3.org/1999/xlink">
 <metadata>
  <rdf:RDF xmlns:cc="http://creativecommons.org/ns#" xmlns:dc="http://purl.org/dc/elements/1.1/" xmlns:rdf="http://www.w3.org/1999/02/22-rdf-syntax-ns#">
   <cc:Work>
    <dc:type rdf:resource="http://purl.org/dc/dcmitype/StillImage"/>
    <dc:date>2022-12-16T08:31:50.276895</dc:date>
    <dc:format>image/svg+xml</dc:format>
    <dc:creator>
     <cc:Agent>
      <dc:title>Matplotlib v3.4.2, https://matplotlib.org/</dc:title>
     </cc:Agent>
    </dc:creator>
   </cc:Work>
  </rdf:RDF>
 </metadata>
 <defs>
  <style type="text/css">*{stroke-linecap:butt;stroke-linejoin:round;}</style>
 </defs>
 <g id="figure_1">
  <g id="patch_1">
   <path d="M 0 144 
L 144 144 
L 144 0 
L 0 0 
z
" style="fill:#ffffff;"/>
  </g>
  <g id="axes_1">
   <g id="patch_2">
    <path d="M 18 128.16 
L 129.6 128.16 
L 129.6 17.28 
L 18 17.28 
z
" style="fill:#ffffff;"/>
   </g>
   <g id="matplotlib.axis_1">
    <g id="xtick_1">
     <g id="text_1">
      <!-- Original -->
      <g style="fill:#262626;" transform="translate(41.78125 204.0725)rotate(-90)scale(0.2 -0.2)">
       <defs>
        <path d="M 309 2231 
Q 309 3372 921 4017 
Q 1534 4663 2503 4663 
Q 3138 4663 3647 4359 
Q 4156 4056 4423 3514 
Q 4691 2972 4691 2284 
Q 4691 1588 4409 1038 
Q 4128 488 3612 205 
Q 3097 -78 2500 -78 
Q 1853 -78 1343 234 
Q 834 547 571 1087 
Q 309 1628 309 2231 
z
M 934 2222 
Q 934 1394 1379 917 
Q 1825 441 2497 441 
Q 3181 441 3623 922 
Q 4066 1403 4066 2288 
Q 4066 2847 3877 3264 
Q 3688 3681 3323 3911 
Q 2959 4141 2506 4141 
Q 1863 4141 1398 3698 
Q 934 3256 934 2222 
z
" id="ArialMT-4f" transform="scale(0.015625)"/>
        <path d="M 416 0 
L 416 3319 
L 922 3319 
L 922 2816 
Q 1116 3169 1280 3281 
Q 1444 3394 1641 3394 
Q 1925 3394 2219 3213 
L 2025 2691 
Q 1819 2813 1613 2813 
Q 1428 2813 1281 2702 
Q 1134 2591 1072 2394 
Q 978 2094 978 1738 
L 978 0 
L 416 0 
z
" id="ArialMT-72" transform="scale(0.015625)"/>
        <path d="M 425 3934 
L 425 4581 
L 988 4581 
L 988 3934 
L 425 3934 
z
M 425 0 
L 425 3319 
L 988 3319 
L 988 0 
L 425 0 
z
" id="ArialMT-69" transform="scale(0.015625)"/>
        <path d="M 319 -275 
L 866 -356 
Q 900 -609 1056 -725 
Q 1266 -881 1628 -881 
Q 2019 -881 2231 -725 
Q 2444 -569 2519 -288 
Q 2563 -116 2559 434 
Q 2191 0 1641 0 
Q 956 0 581 494 
Q 206 988 206 1678 
Q 206 2153 378 2554 
Q 550 2956 876 3175 
Q 1203 3394 1644 3394 
Q 2231 3394 2613 2919 
L 2613 3319 
L 3131 3319 
L 3131 450 
Q 3131 -325 2973 -648 
Q 2816 -972 2473 -1159 
Q 2131 -1347 1631 -1347 
Q 1038 -1347 672 -1080 
Q 306 -813 319 -275 
z
M 784 1719 
Q 784 1066 1043 766 
Q 1303 466 1694 466 
Q 2081 466 2343 764 
Q 2606 1063 2606 1700 
Q 2606 2309 2336 2618 
Q 2066 2928 1684 2928 
Q 1309 2928 1046 2623 
Q 784 2319 784 1719 
z
" id="ArialMT-67" transform="scale(0.015625)"/>
        <path d="M 422 0 
L 422 3319 
L 928 3319 
L 928 2847 
Q 1294 3394 1984 3394 
Q 2284 3394 2536 3286 
Q 2788 3178 2913 3003 
Q 3038 2828 3088 2588 
Q 3119 2431 3119 2041 
L 3119 0 
L 2556 0 
L 2556 2019 
Q 2556 2363 2490 2533 
Q 2425 2703 2258 2804 
Q 2091 2906 1866 2906 
Q 1506 2906 1245 2678 
Q 984 2450 984 1813 
L 984 0 
L 422 0 
z
" id="ArialMT-6e" transform="scale(0.015625)"/>
        <path d="M 2588 409 
Q 2275 144 1986 34 
Q 1697 -75 1366 -75 
Q 819 -75 525 192 
Q 231 459 231 875 
Q 231 1119 342 1320 
Q 453 1522 633 1644 
Q 813 1766 1038 1828 
Q 1203 1872 1538 1913 
Q 2219 1994 2541 2106 
Q 2544 2222 2544 2253 
Q 2544 2597 2384 2738 
Q 2169 2928 1744 2928 
Q 1347 2928 1158 2789 
Q 969 2650 878 2297 
L 328 2372 
Q 403 2725 575 2942 
Q 747 3159 1072 3276 
Q 1397 3394 1825 3394 
Q 2250 3394 2515 3294 
Q 2781 3194 2906 3042 
Q 3031 2891 3081 2659 
Q 3109 2516 3109 2141 
L 3109 1391 
Q 3109 606 3145 398 
Q 3181 191 3288 0 
L 2700 0 
Q 2613 175 2588 409 
z
M 2541 1666 
Q 2234 1541 1622 1453 
Q 1275 1403 1131 1340 
Q 988 1278 909 1158 
Q 831 1038 831 891 
Q 831 666 1001 516 
Q 1172 366 1500 366 
Q 1825 366 2078 508 
Q 2331 650 2450 897 
Q 2541 1088 2541 1459 
L 2541 1666 
z
" id="ArialMT-61" transform="scale(0.015625)"/>
        <path d="M 409 0 
L 409 4581 
L 972 4581 
L 972 0 
L 409 0 
z
" id="ArialMT-6c" transform="scale(0.015625)"/>
       </defs>
       <use xlink:href="#ArialMT-4f"/>
       <use x="77.783203" xlink:href="#ArialMT-72"/>
       <use x="111.083984" xlink:href="#ArialMT-69"/>
       <use x="133.300781" xlink:href="#ArialMT-67"/>
       <use x="188.916016" xlink:href="#ArialMT-69"/>
       <use x="211.132812" xlink:href="#ArialMT-6e"/>
       <use x="266.748047" xlink:href="#ArialMT-61"/>
       <use x="322.363281" xlink:href="#ArialMT-6c"/>
      </g>
     </g>
    </g>
    <g id="xtick_2">
     <g id="text_2">
      <!-- Mutated -->
      <g style="fill:#262626;" transform="translate(78.970312 207.419375)rotate(-90)scale(0.2 -0.2)">
       <defs>
        <path d="M 475 0 
L 475 4581 
L 1388 4581 
L 2472 1338 
Q 2622 884 2691 659 
Q 2769 909 2934 1394 
L 4031 4581 
L 4847 4581 
L 4847 0 
L 4263 0 
L 4263 3834 
L 2931 0 
L 2384 0 
L 1059 3900 
L 1059 0 
L 475 0 
z
" id="ArialMT-4d" transform="scale(0.015625)"/>
        <path d="M 2597 0 
L 2597 488 
Q 2209 -75 1544 -75 
Q 1250 -75 995 37 
Q 741 150 617 320 
Q 494 491 444 738 
Q 409 903 409 1263 
L 409 3319 
L 972 3319 
L 972 1478 
Q 972 1038 1006 884 
Q 1059 663 1231 536 
Q 1403 409 1656 409 
Q 1909 409 2131 539 
Q 2353 669 2445 892 
Q 2538 1116 2538 1541 
L 2538 3319 
L 3100 3319 
L 3100 0 
L 2597 0 
z
" id="ArialMT-75" transform="scale(0.015625)"/>
        <path d="M 1650 503 
L 1731 6 
Q 1494 -44 1306 -44 
Q 1000 -44 831 53 
Q 663 150 594 308 
Q 525 466 525 972 
L 525 2881 
L 113 2881 
L 113 3319 
L 525 3319 
L 525 4141 
L 1084 4478 
L 1084 3319 
L 1650 3319 
L 1650 2881 
L 1084 2881 
L 1084 941 
Q 1084 700 1114 631 
Q 1144 563 1211 522 
Q 1278 481 1403 481 
Q 1497 481 1650 503 
z
" id="ArialMT-74" transform="scale(0.015625)"/>
        <path d="M 2694 1069 
L 3275 997 
Q 3138 488 2766 206 
Q 2394 -75 1816 -75 
Q 1088 -75 661 373 
Q 234 822 234 1631 
Q 234 2469 665 2931 
Q 1097 3394 1784 3394 
Q 2450 3394 2872 2941 
Q 3294 2488 3294 1666 
Q 3294 1616 3291 1516 
L 816 1516 
Q 847 969 1125 678 
Q 1403 388 1819 388 
Q 2128 388 2347 550 
Q 2566 713 2694 1069 
z
M 847 1978 
L 2700 1978 
Q 2663 2397 2488 2606 
Q 2219 2931 1791 2931 
Q 1403 2931 1139 2672 
Q 875 2413 847 1978 
z
" id="ArialMT-65" transform="scale(0.015625)"/>
        <path d="M 2575 0 
L 2575 419 
Q 2259 -75 1647 -75 
Q 1250 -75 917 144 
Q 584 363 401 755 
Q 219 1147 219 1656 
Q 219 2153 384 2558 
Q 550 2963 881 3178 
Q 1213 3394 1622 3394 
Q 1922 3394 2156 3267 
Q 2391 3141 2538 2938 
L 2538 4581 
L 3097 4581 
L 3097 0 
L 2575 0 
z
M 797 1656 
Q 797 1019 1065 703 
Q 1334 388 1700 388 
Q 2069 388 2326 689 
Q 2584 991 2584 1609 
Q 2584 2291 2321 2609 
Q 2059 2928 1675 2928 
Q 1300 2928 1048 2622 
Q 797 2316 797 1656 
z
" id="ArialMT-64" transform="scale(0.015625)"/>
       </defs>
       <use xlink:href="#ArialMT-4d"/>
       <use x="83.300781" xlink:href="#ArialMT-75"/>
       <use x="138.916016" xlink:href="#ArialMT-74"/>
       <use x="166.699219" xlink:href="#ArialMT-61"/>
       <use x="222.314453" xlink:href="#ArialMT-74"/>
       <use x="250.097656" xlink:href="#ArialMT-65"/>
       <use x="305.712891" xlink:href="#ArialMT-64"/>
      </g>
     </g>
    </g>
    <g id="xtick_3">
     <g id="text_3">
      <!-- STORM -->
      <g style="fill:#262626;" transform="translate(116.170312 207.025625)rotate(-90)scale(0.2 -0.2)">
       <defs>
        <path d="M 288 1472 
L 859 1522 
Q 900 1178 1048 958 
Q 1197 738 1509 602 
Q 1822 466 2213 466 
Q 2559 466 2825 569 
Q 3091 672 3220 851 
Q 3350 1031 3350 1244 
Q 3350 1459 3225 1620 
Q 3100 1781 2813 1891 
Q 2628 1963 1997 2114 
Q 1366 2266 1113 2400 
Q 784 2572 623 2826 
Q 463 3081 463 3397 
Q 463 3744 659 4045 
Q 856 4347 1234 4503 
Q 1613 4659 2075 4659 
Q 2584 4659 2973 4495 
Q 3363 4331 3572 4012 
Q 3781 3694 3797 3291 
L 3216 3247 
Q 3169 3681 2898 3903 
Q 2628 4125 2100 4125 
Q 1550 4125 1298 3923 
Q 1047 3722 1047 3438 
Q 1047 3191 1225 3031 
Q 1400 2872 2139 2705 
Q 2878 2538 3153 2413 
Q 3553 2228 3743 1945 
Q 3934 1663 3934 1294 
Q 3934 928 3725 604 
Q 3516 281 3123 101 
Q 2731 -78 2241 -78 
Q 1619 -78 1198 103 
Q 778 284 539 648 
Q 300 1013 288 1472 
z
" id="ArialMT-53" transform="scale(0.015625)"/>
        <path d="M 1659 0 
L 1659 4041 
L 150 4041 
L 150 4581 
L 3781 4581 
L 3781 4041 
L 2266 4041 
L 2266 0 
L 1659 0 
z
" id="ArialMT-54" transform="scale(0.015625)"/>
        <path d="M 503 0 
L 503 4581 
L 2534 4581 
Q 3147 4581 3465 4457 
Q 3784 4334 3975 4021 
Q 4166 3709 4166 3331 
Q 4166 2844 3850 2509 
Q 3534 2175 2875 2084 
Q 3116 1969 3241 1856 
Q 3506 1613 3744 1247 
L 4541 0 
L 3778 0 
L 3172 953 
Q 2906 1366 2734 1584 
Q 2563 1803 2427 1890 
Q 2291 1978 2150 2013 
Q 2047 2034 1813 2034 
L 1109 2034 
L 1109 0 
L 503 0 
z
M 1109 2559 
L 2413 2559 
Q 2828 2559 3062 2645 
Q 3297 2731 3419 2920 
Q 3541 3109 3541 3331 
Q 3541 3656 3305 3865 
Q 3069 4075 2559 4075 
L 1109 4075 
L 1109 2559 
z
" id="ArialMT-52" transform="scale(0.015625)"/>
       </defs>
       <use xlink:href="#ArialMT-53"/>
       <use x="66.699219" xlink:href="#ArialMT-54"/>
       <use x="126.033203" xlink:href="#ArialMT-4f"/>
       <use x="203.816406" xlink:href="#ArialMT-52"/>
       <use x="276.033203" xlink:href="#ArialMT-4d"/>
      </g>
     </g>
    </g>
    <g id="text_4">
     <!-- Method -->
     <g style="fill:#262626;" transform="translate(40.448437 225.735)scale(0.2 -0.2)">
      <defs>
       <path d="M 422 0 
L 422 4581 
L 984 4581 
L 984 2938 
Q 1378 3394 1978 3394 
Q 2347 3394 2619 3248 
Q 2891 3103 3008 2847 
Q 3125 2591 3125 2103 
L 3125 0 
L 2563 0 
L 2563 2103 
Q 2563 2525 2380 2717 
Q 2197 2909 1863 2909 
Q 1613 2909 1392 2779 
Q 1172 2650 1078 2428 
Q 984 2206 984 1816 
L 984 0 
L 422 0 
z
" id="ArialMT-68" transform="scale(0.015625)"/>
       <path d="M 213 1659 
Q 213 2581 725 3025 
Q 1153 3394 1769 3394 
Q 2453 3394 2887 2945 
Q 3322 2497 3322 1706 
Q 3322 1066 3130 698 
Q 2938 331 2570 128 
Q 2203 -75 1769 -75 
Q 1072 -75 642 372 
Q 213 819 213 1659 
z
M 791 1659 
Q 791 1022 1069 705 
Q 1347 388 1769 388 
Q 2188 388 2466 706 
Q 2744 1025 2744 1678 
Q 2744 2294 2464 2611 
Q 2184 2928 1769 2928 
Q 1347 2928 1069 2612 
Q 791 2297 791 1659 
z
" id="ArialMT-6f" transform="scale(0.015625)"/>
      </defs>
      <use xlink:href="#ArialMT-4d"/>
      <use x="83.300781" xlink:href="#ArialMT-65"/>
      <use x="138.916016" xlink:href="#ArialMT-74"/>
      <use x="166.699219" xlink:href="#ArialMT-68"/>
      <use x="222.314453" xlink:href="#ArialMT-6f"/>
      <use x="277.929688" xlink:href="#ArialMT-64"/>
     </g>
    </g>
   </g>
   <g id="matplotlib.axis_2">
    <g id="ytick_1">
     <g id="text_5">
      <!-- 0 -->
      <g style="fill:#262626;" transform="translate(-0.121875 125.836177)scale(0.2 -0.2)">
       <defs>
        <path d="M 266 2259 
Q 266 3072 433 3567 
Q 600 4063 929 4331 
Q 1259 4600 1759 4600 
Q 2128 4600 2406 4451 
Q 2684 4303 2865 4023 
Q 3047 3744 3150 3342 
Q 3253 2941 3253 2259 
Q 3253 1453 3087 958 
Q 2922 463 2592 192 
Q 2263 -78 1759 -78 
Q 1097 -78 719 397 
Q 266 969 266 2259 
z
M 844 2259 
Q 844 1131 1108 757 
Q 1372 384 1759 384 
Q 2147 384 2411 759 
Q 2675 1134 2675 2259 
Q 2675 3391 2411 3762 
Q 2147 4134 1753 4134 
Q 1366 4134 1134 3806 
Q 844 3388 844 2259 
z
" id="ArialMT-30" transform="scale(0.015625)"/>
       </defs>
       <use xlink:href="#ArialMT-30"/>
      </g>
     </g>
    </g>
    <g id="ytick_2">
     <g id="text_6">
      <!-- 1 -->
      <g style="fill:#262626;" transform="translate(-0.121875 32.951181)scale(0.2 -0.2)">
       <defs>
        <path d="M 2384 0 
L 1822 0 
L 1822 3584 
Q 1619 3391 1289 3197 
Q 959 3003 697 2906 
L 697 3450 
Q 1169 3672 1522 3987 
Q 1875 4303 2022 4600 
L 2384 4600 
L 2384 0 
z
" id="ArialMT-31" transform="scale(0.015625)"/>
       </defs>
       <use xlink:href="#ArialMT-31"/>
      </g>
     </g>
    </g>
    <g id="text_7">
     <!-- Predictions -->
     <g style="fill:#262626;" transform="translate(-8.096875 122.185625)rotate(-90)scale(0.2 -0.2)">
      <defs>
       <path d="M 494 0 
L 494 4581 
L 2222 4581 
Q 2678 4581 2919 4538 
Q 3256 4481 3484 4323 
Q 3713 4166 3852 3881 
Q 3991 3597 3991 3256 
Q 3991 2672 3619 2267 
Q 3247 1863 2275 1863 
L 1100 1863 
L 1100 0 
L 494 0 
z
M 1100 2403 
L 2284 2403 
Q 2872 2403 3119 2622 
Q 3366 2841 3366 3238 
Q 3366 3525 3220 3729 
Q 3075 3934 2838 4000 
Q 2684 4041 2272 4041 
L 1100 4041 
L 1100 2403 
z
" id="ArialMT-50" transform="scale(0.015625)"/>
       <path d="M 2588 1216 
L 3141 1144 
Q 3050 572 2676 248 
Q 2303 -75 1759 -75 
Q 1078 -75 664 370 
Q 250 816 250 1647 
Q 250 2184 428 2587 
Q 606 2991 970 3192 
Q 1334 3394 1763 3394 
Q 2303 3394 2647 3120 
Q 2991 2847 3088 2344 
L 2541 2259 
Q 2463 2594 2264 2762 
Q 2066 2931 1784 2931 
Q 1359 2931 1093 2626 
Q 828 2322 828 1663 
Q 828 994 1084 691 
Q 1341 388 1753 388 
Q 2084 388 2306 591 
Q 2528 794 2588 1216 
z
" id="ArialMT-63" transform="scale(0.015625)"/>
       <path d="M 197 991 
L 753 1078 
Q 800 744 1014 566 
Q 1228 388 1613 388 
Q 2000 388 2187 545 
Q 2375 703 2375 916 
Q 2375 1106 2209 1216 
Q 2094 1291 1634 1406 
Q 1016 1563 777 1677 
Q 538 1791 414 1992 
Q 291 2194 291 2438 
Q 291 2659 392 2848 
Q 494 3038 669 3163 
Q 800 3259 1026 3326 
Q 1253 3394 1513 3394 
Q 1903 3394 2198 3281 
Q 2494 3169 2634 2976 
Q 2775 2784 2828 2463 
L 2278 2388 
Q 2241 2644 2061 2787 
Q 1881 2931 1553 2931 
Q 1166 2931 1000 2803 
Q 834 2675 834 2503 
Q 834 2394 903 2306 
Q 972 2216 1119 2156 
Q 1203 2125 1616 2013 
Q 2213 1853 2448 1751 
Q 2684 1650 2818 1456 
Q 2953 1263 2953 975 
Q 2953 694 2789 445 
Q 2625 197 2315 61 
Q 2006 -75 1616 -75 
Q 969 -75 630 194 
Q 291 463 197 991 
z
" id="ArialMT-73" transform="scale(0.015625)"/>
      </defs>
      <use xlink:href="#ArialMT-50"/>
      <use x="66.699219" xlink:href="#ArialMT-72"/>
      <use x="100" xlink:href="#ArialMT-65"/>
      <use x="155.615234" xlink:href="#ArialMT-64"/>
      <use x="211.230469" xlink:href="#ArialMT-69"/>
      <use x="233.447266" xlink:href="#ArialMT-63"/>
      <use x="283.447266" xlink:href="#ArialMT-74"/>
      <use x="311.230469" xlink:href="#ArialMT-69"/>
      <use x="333.447266" xlink:href="#ArialMT-6f"/>
      <use x="389.0625" xlink:href="#ArialMT-6e"/>
      <use x="444.677734" xlink:href="#ArialMT-73"/>
     </g>
    </g>
   </g>
   <g id="PolyCollection_1">
    <defs>
     <path d="M 38.234461 -20.88 
L 34.965539 -20.88 
L 33.774324 -21.533084 
L 32.118079 -22.186167 
L 30.077244 -22.839251 
L 27.889119 -23.492334 
L 25.924095 -24.145418 
L 24.590695 -24.798502 
L 24.198499 -25.451585 
L 24.841195 -26.104669 
L 26.360127 -26.757753 
L 28.407753 -27.410836 
L 30.576446 -28.06392 
L 32.527668 -28.717003 
L 34.067124 -29.370087 
L 35.149723 -30.023171 
L 35.83495 -30.676254 
L 36.227849 -31.329338 
L 36.432898 -31.982422 
L 36.530664 -32.635505 
L 36.573382 -33.288589 
L 36.590534 -33.941672 
L 36.596878 -34.594756 
L 36.599044 -35.24784 
L 36.599728 -35.900923 
L 36.599928 -36.554007 
L 36.599982 -37.207091 
L 36.599996 -37.860174 
L 36.599999 -38.513258 
L 36.6 -39.166341 
L 36.6 -39.819425 
L 36.6 -40.472509 
L 36.6 -41.125592 
L 36.6 -41.778676 
L 36.6 -42.43176 
L 36.6 -43.084843 
L 36.6 -43.737927 
L 36.6 -44.39101 
L 36.6 -45.044094 
L 36.6 -45.697178 
L 36.6 -46.350261 
L 36.6 -47.003345 
L 36.6 -47.656429 
L 36.6 -48.309512 
L 36.6 -48.962596 
L 36.6 -49.615679 
L 36.6 -50.268763 
L 36.6 -50.921847 
L 36.6 -51.57493 
L 36.6 -52.228014 
L 36.6 -52.881098 
L 36.6 -53.534181 
L 36.6 -54.187265 
L 36.6 -54.840348 
L 36.6 -55.493432 
L 36.6 -56.146516 
L 36.6 -56.799599 
L 36.6 -57.452683 
L 36.6 -58.105767 
L 36.6 -58.75885 
L 36.6 -59.411934 
L 36.6 -60.065017 
L 36.6 -60.718101 
L 36.6 -61.371185 
L 36.6 -62.024268 
L 36.6 -62.677352 
L 36.6 -63.330436 
L 36.6 -63.983519 
L 36.6 -64.636603 
L 36.6 -65.289686 
L 36.6 -65.94277 
L 36.6 -66.595854 
L 36.6 -67.248937 
L 36.6 -67.902021 
L 36.6 -68.555105 
L 36.6 -69.208188 
L 36.6 -69.861272 
L 36.599999 -70.514355 
L 36.599994 -71.167439 
L 36.599979 -71.820523 
L 36.599932 -72.473606 
L 36.599797 -73.12669 
L 36.599443 -73.779774 
L 36.598594 -74.432857 
L 36.596748 -75.085941 
L 36.593099 -75.739024 
L 36.586571 -76.392108 
L 36.576031 -77.045192 
L 36.560764 -77.698275 
L 36.541093 -78.351359 
L 36.518886 -79.004443 
L 36.497562 -79.657526 
L 36.481349 -80.31061 
L 36.473956 -80.963693 
L 36.477195 -81.616777 
L 36.490263 -82.269861 
L 36.510064 -82.922944 
L 36.532399 -83.576028 
L 36.553396 -84.229112 
L 36.570534 -84.882195 
L 36.582913 -85.535279 
L 36.617087 -85.535279 
L 36.617087 -85.535279 
L 36.629466 -84.882195 
L 36.646604 -84.229112 
L 36.667601 -83.576028 
L 36.689936 -82.922944 
L 36.709737 -82.269861 
L 36.722805 -81.616777 
L 36.726044 -80.963693 
L 36.718651 -80.31061 
L 36.702438 -79.657526 
L 36.681114 -79.004443 
L 36.658907 -78.351359 
L 36.639236 -77.698275 
L 36.623969 -77.045192 
L 36.613429 -76.392108 
L 36.606901 -75.739024 
L 36.603252 -75.085941 
L 36.601406 -74.432857 
L 36.600557 -73.779774 
L 36.600203 -73.12669 
L 36.600068 -72.473606 
L 36.600021 -71.820523 
L 36.600006 -71.167439 
L 36.600001 -70.514355 
L 36.6 -69.861272 
L 36.6 -69.208188 
L 36.6 -68.555105 
L 36.6 -67.902021 
L 36.6 -67.248937 
L 36.6 -66.595854 
L 36.6 -65.94277 
L 36.6 -65.289686 
L 36.6 -64.636603 
L 36.6 -63.983519 
L 36.6 -63.330436 
L 36.6 -62.677352 
L 36.6 -62.024268 
L 36.6 -61.371185 
L 36.6 -60.718101 
L 36.6 -60.065017 
L 36.6 -59.411934 
L 36.6 -58.75885 
L 36.6 -58.105767 
L 36.6 -57.452683 
L 36.6 -56.799599 
L 36.6 -56.146516 
L 36.6 -55.493432 
L 36.6 -54.840348 
L 36.6 -54.187265 
L 36.6 -53.534181 
L 36.6 -52.881098 
L 36.6 -52.228014 
L 36.6 -51.57493 
L 36.6 -50.921847 
L 36.6 -50.268763 
L 36.6 -49.615679 
L 36.6 -48.962596 
L 36.6 -48.309512 
L 36.6 -47.656429 
L 36.6 -47.003345 
L 36.6 -46.350261 
L 36.6 -45.697178 
L 36.6 -45.044094 
L 36.6 -44.39101 
L 36.6 -43.737927 
L 36.6 -43.084843 
L 36.6 -42.43176 
L 36.6 -41.778676 
L 36.6 -41.125592 
L 36.6 -40.472509 
L 36.6 -39.819425 
L 36.6 -39.166341 
L 36.600001 -38.513258 
L 36.600004 -37.860174 
L 36.600018 -37.207091 
L 36.600072 -36.554007 
L 36.600272 -35.900923 
L 36.600956 -35.24784 
L 36.603122 -34.594756 
L 36.609466 -33.941672 
L 36.626618 -33.288589 
L 36.669336 -32.635505 
L 36.767102 -31.982422 
L 36.972151 -31.329338 
L 37.36505 -30.676254 
L 38.050277 -30.023171 
L 39.132876 -29.370087 
L 40.672332 -28.717003 
L 42.623554 -28.06392 
L 44.792247 -27.410836 
L 46.839873 -26.757753 
L 48.358805 -26.104669 
L 49.001501 -25.451585 
L 48.609305 -24.798502 
L 47.275905 -24.145418 
L 45.310881 -23.492334 
L 43.122756 -22.839251 
L 41.081921 -22.186167 
L 39.425676 -21.533084 
L 38.234461 -20.88 
z
" id="m83a280982b" style="stroke:#262626;stroke-width:0.75;"/>
    </defs>
    <g clip-path="url(#pffaed2be39)">
     <use style="fill:#7f9dd2;stroke:#262626;stroke-width:0.75;" x="0" xlink:href="#m83a280982b" y="144"/>
    </g>
   </g>
   <g id="PolyCollection_2">
    <defs>
     <path d="M 75.83624 -21.848068 
L 71.76376 -21.848068 
L 68.272807 -22.856471 
L 63.076798 -23.864874 
L 58.92 -24.873278 
L 59.009794 -25.881681 
L 63.234363 -26.890084 
L 68.326363 -27.898488 
L 71.684684 -28.906891 
L 73.128697 -29.915295 
L 73.571251 -30.923698 
L 73.684947 -31.932101 
L 73.719104 -32.940505 
L 73.733155 -33.948908 
L 73.740878 -34.957311 
L 73.748258 -35.965715 
L 73.756871 -36.974118 
L 73.764396 -37.982521 
L 73.767723 -38.990925 
L 73.766499 -39.999328 
L 73.763712 -41.007731 
L 73.7628 -42.016135 
L 73.764895 -43.024538 
L 73.769172 -44.032942 
L 73.774518 -45.041345 
L 73.779466 -46.049748 
L 73.781911 -47.058152 
L 73.781205 -48.066555 
L 73.779492 -49.074958 
L 73.779234 -50.083362 
L 73.780465 -51.091765 
L 73.781573 -52.100168 
L 73.781736 -53.108572 
L 73.781512 -54.116975 
L 73.781536 -55.125378 
L 73.781538 -56.133782 
L 73.78111 -57.142185 
L 73.781004 -58.150589 
L 73.782491 -59.158992 
L 73.785555 -60.167395 
L 73.788998 -61.175799 
L 73.792079 -62.184202 
L 73.794755 -63.192605 
L 73.796662 -64.201009 
L 73.79693 -65.209412 
L 73.794918 -66.217815 
L 73.790858 -67.226219 
L 73.786041 -68.234622 
L 73.782326 -69.243025 
L 73.78095 -70.251429 
L 73.781619 -71.259832 
L 73.783095 -72.268236 
L 73.784664 -73.276639 
L 73.786433 -74.285042 
L 73.788225 -75.293446 
L 73.789074 -76.301849 
L 73.788266 -77.310252 
L 73.786089 -78.318656 
L 73.78337 -79.327059 
L 73.781469 -80.335462 
L 73.782147 -81.343866 
L 73.78557 -82.352269 
L 73.789526 -83.360672 
L 73.792114 -84.369076 
L 73.793642 -85.377479 
L 73.795186 -86.385883 
L 73.796809 -87.394286 
L 73.797672 -88.402689 
L 73.79714 -89.411093 
L 73.795545 -90.419496 
L 73.794081 -91.427899 
L 73.793652 -92.436303 
L 73.793632 -93.444706 
L 73.79232 -94.453109 
L 73.788922 -95.461513 
L 73.784539 -96.469916 
L 73.780973 -97.478319 
L 73.779207 -98.486723 
L 73.779184 -99.495126 
L 73.780252 -100.50353 
L 73.781521 -101.511933 
L 73.782266 -102.520336 
L 73.782198 -103.52874 
L 73.78132 -104.537143 
L 73.779737 -105.545546 
L 73.777608 -106.55395 
L 73.775191 -107.562353 
L 73.772831 -108.570756 
L 73.770751 -109.57916 
L 73.769376 -110.587563 
L 73.769596 -111.595966 
L 73.770851 -112.60437 
L 73.769354 -113.612773 
L 73.761143 -114.621177 
L 73.747865 -115.62958 
L 73.737766 -116.637983 
L 73.739313 -117.646387 
L 73.753419 -118.65479 
L 73.772526 -119.663193 
L 73.787793 -120.671597 
L 73.795979 -121.68 
L 73.804021 -121.68 
L 73.804021 -121.68 
L 73.812207 -120.671597 
L 73.827474 -119.663193 
L 73.846581 -118.65479 
L 73.860687 -117.646387 
L 73.862234 -116.637983 
L 73.852135 -115.62958 
L 73.838857 -114.621177 
L 73.830646 -113.612773 
L 73.829149 -112.60437 
L 73.830404 -111.595966 
L 73.830624 -110.587563 
L 73.829249 -109.57916 
L 73.827169 -108.570756 
L 73.824809 -107.562353 
L 73.822392 -106.55395 
L 73.820263 -105.545546 
L 73.81868 -104.537143 
L 73.817802 -103.52874 
L 73.817734 -102.520336 
L 73.818479 -101.511933 
L 73.819748 -100.50353 
L 73.820816 -99.495126 
L 73.820793 -98.486723 
L 73.819027 -97.478319 
L 73.815461 -96.469916 
L 73.811078 -95.461513 
L 73.80768 -94.453109 
L 73.806368 -93.444706 
L 73.806348 -92.436303 
L 73.805919 -91.427899 
L 73.804455 -90.419496 
L 73.80286 -89.411093 
L 73.802328 -88.402689 
L 73.803191 -87.394286 
L 73.804814 -86.385883 
L 73.806358 -85.377479 
L 73.807886 -84.369076 
L 73.810474 -83.360672 
L 73.81443 -82.352269 
L 73.817853 -81.343866 
L 73.818531 -80.335462 
L 73.81663 -79.327059 
L 73.813911 -78.318656 
L 73.811734 -77.310252 
L 73.810926 -76.301849 
L 73.811775 -75.293446 
L 73.813567 -74.285042 
L 73.815336 -73.276639 
L 73.816905 -72.268236 
L 73.818381 -71.259832 
L 73.81905 -70.251429 
L 73.817674 -69.243025 
L 73.813959 -68.234622 
L 73.809142 -67.226219 
L 73.805082 -66.217815 
L 73.80307 -65.209412 
L 73.803338 -64.201009 
L 73.805245 -63.192605 
L 73.807921 -62.184202 
L 73.811002 -61.175799 
L 73.814445 -60.167395 
L 73.817509 -59.158992 
L 73.818996 -58.150589 
L 73.81889 -57.142185 
L 73.818462 -56.133782 
L 73.818464 -55.125378 
L 73.818488 -54.116975 
L 73.818264 -53.108572 
L 73.818427 -52.100168 
L 73.819535 -51.091765 
L 73.820766 -50.083362 
L 73.820508 -49.074958 
L 73.818795 -48.066555 
L 73.818089 -47.058152 
L 73.820534 -46.049748 
L 73.825482 -45.041345 
L 73.830828 -44.032942 
L 73.835105 -43.024538 
L 73.8372 -42.016135 
L 73.836288 -41.007731 
L 73.833501 -39.999328 
L 73.832277 -38.990925 
L 73.835604 -37.982521 
L 73.843129 -36.974118 
L 73.851742 -35.965715 
L 73.859122 -34.957311 
L 73.866845 -33.948908 
L 73.880896 -32.940505 
L 73.915053 -31.932101 
L 74.028749 -30.923698 
L 74.471303 -29.915295 
L 75.915316 -28.906891 
L 79.273637 -27.898488 
L 84.365637 -26.890084 
L 88.590206 -25.881681 
L 88.68 -24.873278 
L 84.523202 -23.864874 
L 79.327193 -22.856471 
L 75.83624 -21.848068 
z
" id="m60c5352b31" style="stroke:#262626;stroke-width:0.75;"/>
    </defs>
    <g clip-path="url(#pffaed2be39)">
     <use style="fill:#1a1a66;stroke:#262626;stroke-width:0.75;" x="0" xlink:href="#m60c5352b31" y="144"/>
    </g>
   </g>
   <g id="line2d_1">
    <path clip-path="url(#pffaed2be39)" d="M 36.6 118.678365 
L 36.6 118.674701 
" style="fill:none;stroke:#262626;stroke-linecap:round;stroke-width:0.75;"/>
   </g>
   <g id="line2d_2">
    <path clip-path="url(#pffaed2be39)" d="M 36.6 118.678364 
L 36.6 118.676814 
" style="fill:none;stroke:#262626;stroke-linecap:round;stroke-width:2.25;"/>
   </g>
   <g id="line2d_3">
    <path clip-path="url(#pffaed2be39)" d="M 73.8 118.678365 
L 73.8 118.671398 
" style="fill:none;stroke:#262626;stroke-linecap:round;stroke-width:0.75;"/>
   </g>
   <g id="line2d_4">
    <path clip-path="url(#pffaed2be39)" d="M 73.8 118.678364 
L 73.8 118.675576 
" style="fill:none;stroke:#262626;stroke-linecap:round;stroke-width:2.25;"/>
   </g>
   <g id="line2d_5">
    <path clip-path="url(#pffaed2be39)" d="M 96.12 118.678293 
L 125.88 118.678293 
" style="fill:none;stroke:#262626;stroke-linecap:round;stroke-width:0.75;"/>
   </g>
   <g id="patch_3">
    <path d="M 18 128.16 
L 18 17.28 
" style="fill:none;stroke:#262626;stroke-linecap:square;stroke-linejoin:miter;stroke-width:0.8;"/>
   </g>
   <g id="patch_4">
    <path d="M 18 128.16 
L 129.6 128.16 
" style="fill:none;stroke:#262626;stroke-linecap:square;stroke-linejoin:miter;stroke-width:0.8;"/>
   </g>
   <g id="PathCollection_1">
    <defs>
     <path d="M 0 0.75 
C 0.198902 0.75 0.389685 0.670975 0.53033 0.53033 
C 0.670975 0.389685 0.75 0.198902 0.75 0 
C 0.75 -0.198902 0.670975 -0.389685 0.53033 -0.53033 
C 0.389685 -0.670975 0.198902 -0.75 0 -0.75 
C -0.198902 -0.75 -0.389685 -0.670975 -0.53033 -0.53033 
C -0.670975 -0.389685 -0.75 -0.198902 -0.75 0 
C -0.75 0.198902 -0.670975 0.389685 -0.53033 0.53033 
C -0.389685 0.670975 -0.198902 0.75 0 0.75 
z
" id="mb0366235db" style="stroke:#262626;"/>
    </defs>
    <g clip-path="url(#pffaed2be39)">
     <use style="fill:#ffffff;stroke:#262626;" x="36.6" xlink:href="#mb0366235db" y="118.678328"/>
    </g>
   </g>
   <g id="PathCollection_2">
    <g clip-path="url(#pffaed2be39)">
     <use style="fill:#ffffff;stroke:#262626;" x="73.8" xlink:href="#mb0366235db" y="118.678311"/>
    </g>
   </g>
   <g id="text_8">
    <!-- Bottom 10% -->
    <g style="fill:#262626;" transform="translate(8.435625 11.28)scale(0.24 -0.24)">
     <defs>
      <path d="M 469 0 
L 469 4581 
L 2188 4581 
Q 2713 4581 3030 4442 
Q 3347 4303 3526 4014 
Q 3706 3725 3706 3409 
Q 3706 3116 3547 2856 
Q 3388 2597 3066 2438 
Q 3481 2316 3704 2022 
Q 3928 1728 3928 1328 
Q 3928 1006 3792 729 
Q 3656 453 3456 303 
Q 3256 153 2954 76 
Q 2653 0 2216 0 
L 469 0 
z
M 1075 2656 
L 2066 2656 
Q 2469 2656 2644 2709 
Q 2875 2778 2992 2937 
Q 3109 3097 3109 3338 
Q 3109 3566 3000 3739 
Q 2891 3913 2687 3977 
Q 2484 4041 1991 4041 
L 1075 4041 
L 1075 2656 
z
M 1075 541 
L 2216 541 
Q 2509 541 2628 563 
Q 2838 600 2978 687 
Q 3119 775 3209 942 
Q 3300 1109 3300 1328 
Q 3300 1584 3169 1773 
Q 3038 1963 2805 2039 
Q 2572 2116 2134 2116 
L 1075 2116 
L 1075 541 
z
" id="ArialMT-42" transform="scale(0.015625)"/>
      <path d="M 422 0 
L 422 3319 
L 925 3319 
L 925 2853 
Q 1081 3097 1340 3245 
Q 1600 3394 1931 3394 
Q 2300 3394 2536 3241 
Q 2772 3088 2869 2813 
Q 3263 3394 3894 3394 
Q 4388 3394 4653 3120 
Q 4919 2847 4919 2278 
L 4919 0 
L 4359 0 
L 4359 2091 
Q 4359 2428 4304 2576 
Q 4250 2725 4106 2815 
Q 3963 2906 3769 2906 
Q 3419 2906 3187 2673 
Q 2956 2441 2956 1928 
L 2956 0 
L 2394 0 
L 2394 2156 
Q 2394 2531 2256 2718 
Q 2119 2906 1806 2906 
Q 1569 2906 1367 2781 
Q 1166 2656 1075 2415 
Q 984 2175 984 1722 
L 984 0 
L 422 0 
z
" id="ArialMT-6d" transform="scale(0.015625)"/>
      <path id="ArialMT-20" transform="scale(0.015625)"/>
      <path d="M 372 3481 
Q 372 3972 619 4315 
Q 866 4659 1334 4659 
Q 1766 4659 2048 4351 
Q 2331 4044 2331 3447 
Q 2331 2866 2045 2552 
Q 1759 2238 1341 2238 
Q 925 2238 648 2547 
Q 372 2856 372 3481 
z
M 1350 4272 
Q 1141 4272 1002 4090 
Q 863 3909 863 3425 
Q 863 2984 1003 2804 
Q 1144 2625 1350 2625 
Q 1563 2625 1702 2806 
Q 1841 2988 1841 3469 
Q 1841 3913 1700 4092 
Q 1559 4272 1350 4272 
z
M 1353 -169 
L 3859 4659 
L 4316 4659 
L 1819 -169 
L 1353 -169 
z
M 3334 1075 
Q 3334 1569 3581 1911 
Q 3828 2253 4300 2253 
Q 4731 2253 5014 1945 
Q 5297 1638 5297 1041 
Q 5297 459 5011 145 
Q 4725 -169 4303 -169 
Q 3888 -169 3611 142 
Q 3334 453 3334 1075 
z
M 4316 1866 
Q 4103 1866 3964 1684 
Q 3825 1503 3825 1019 
Q 3825 581 3965 400 
Q 4106 219 4313 219 
Q 4528 219 4667 400 
Q 4806 581 4806 1063 
Q 4806 1506 4665 1686 
Q 4525 1866 4316 1866 
z
" id="ArialMT-25" transform="scale(0.015625)"/>
     </defs>
     <use xlink:href="#ArialMT-42"/>
     <use x="66.699219" xlink:href="#ArialMT-6f"/>
     <use x="122.314453" xlink:href="#ArialMT-74"/>
     <use x="150.097656" xlink:href="#ArialMT-74"/>
     <use x="177.880859" xlink:href="#ArialMT-6f"/>
     <use x="233.496094" xlink:href="#ArialMT-6d"/>
     <use x="316.796875" xlink:href="#ArialMT-20"/>
     <use x="344.580078" xlink:href="#ArialMT-31"/>
     <use x="400.195312" xlink:href="#ArialMT-30"/>
     <use x="455.810547" xlink:href="#ArialMT-25"/>
    </g>
   </g>
  </g>
 </g>
 <defs>
  <clipPath id="pffaed2be39">
   <rect height="110.88" width="111.6" x="18" y="17.28"/>
  </clipPath>
 </defs>
</svg>
