<?xml version="1.0" encoding="utf-8" standalone="no"?>
<!DOCTYPE svg PUBLIC "-//W3C//DTD SVG 1.1//EN"
  "http://www.w3.org/Graphics/SVG/1.1/DTD/svg11.dtd">
<svg height="216pt" version="1.1" viewBox="0 0 306 216" width="306pt" xmlns="http://www.w3.org/2000/svg" xmlns:xlink="http://www.w3.org/1999/xlink">
 <metadata>
  <rdf:RDF xmlns:cc="http://creativecommons.org/ns#" xmlns:dc="http://purl.org/dc/elements/1.1/" xmlns:rdf="http://www.w3.org/1999/02/22-rdf-syntax-ns#">
   <cc:Work>
    <dc:type rdf:resource="http://purl.org/dc/dcmitype/StillImage"/>
    <dc:date>2023-01-27T12:56:17.463252</dc:date>
    <dc:format>image/svg+xml</dc:format>
    <dc:creator>
     <cc:Agent>
      <dc:title>Matplotlib v3.4.2, https://matplotlib.org/</dc:title>
     </cc:Agent>
    </dc:creator>
   </cc:Work>
  </rdf:RDF>
 </metadata>
 <defs>
  <style type="text/css">*{stroke-linecap:butt;stroke-linejoin:round;}</style>
 </defs>
 <g id="figure_1">
  <g id="patch_1">
   <path d="M 0 216 
L 306 216 
L 306 0 
L 0 0 
z
" style="fill:#ffffff;"/>
  </g>
  <g id="axes_1">
   <g id="patch_2">
    <path d="M 94.94 141.64 
L 284.4 141.64 
L 284.4 28.8 
L 94.94 28.8 
z
" style="fill:#ffffff;"/>
   </g>
   <g id="line2d_1">
    <path clip-path="url(#p2acc8be979)" d="M 94.94 141.64 
L 284.4 141.64 
" style="fill:none;stroke:#000000;stroke-linecap:round;stroke-width:0.5;"/>
   </g>
   <g id="patch_3">
    <path clip-path="url(#p2acc8be979)" d="M 105.558702 136.297943 
L 105.558702 136.934429 
L 101.148734 136.934429 
L 101.148734 141.64 
L 99.349968 141.64 
L 99.349968 136.934429 
L 94.94 136.934429 
L 94.94 136.297943 
L 105.558702 136.297943 
z
" style="fill:#ff0000;"/>
   </g>
   <g id="patch_4">
    <path clip-path="url(#p2acc8be979)" d="M 100.416455 114.348498 
Q 102.054581 114.348498 103.249628 115.484363 
Q 104.981434 117.115464 105.368811 121.204576 
L 103.811705 121.204576 
Q 103.525603 118.919217 102.63185 117.874221 
Q 101.738096 116.829226 100.375945 116.829226 
Q 98.763138 116.829226 97.659238 119.005542 
Q 96.555339 121.177315 96.555339 125.47997 
Q 96.555339 129.196519 97.464284 131.531856 
Q 98.37576 133.867193 100.431646 133.867193 
Q 102.006475 133.867193 103.039482 132.231548 
Q 104.072489 130.59136 104.095276 126.92479 
L 100.456965 126.92479 
L 100.456965 124.584909 
L 105.558702 124.584909 
L 105.558702 135.743641 
L 104.54595 135.743641 
L 104.166168 133.058458 
Q 103.368626 134.635038 102.750848 135.248405 
Q 101.712777 136.297943 100.115161 136.297943 
Q 98.05168 136.297943 96.562935 133.898998 
Q 94.94 130.886685 94.94 125.634448 
Q 94.94 120.395841 96.522425 117.301746 
Q 98.026361 114.348498 100.416455 114.348498 
z
M 100.155671 114.316694 
L 100.155671 114.316694 
z
" style="fill:#ffa600;"/>
   </g>
   <g id="patch_5">
    <path clip-path="url(#p2acc8be979)" d="M 100.523163 79.987412 
Q 102.797109 79.987412 104.051431 83.253486 
Q 105.305752 86.51246 105.443962 90.658955 
L 103.863673 90.658955 
Q 103.595077 87.513583 102.791894 85.674641 
Q 101.988711 83.828599 100.53881 83.828599 
Q 98.770765 83.828599 97.683339 87.215376 
Q 96.595913 90.595053 96.595913 97.581613 
Q 96.595913 103.311443 97.576421 106.875724 
Q 98.559538 110.432905 100.507517 110.432905 
Q 102.299032 110.432905 103.237817 106.68402 
Q 103.733287 104.710175 103.978414 101.486702 
L 105.558702 101.486702 
Q 105.347475 106.634319 104.158348 110.120498 
Q 102.731916 114.316694 100.311937 114.316694 
Q 98.225748 114.316694 96.807139 110.873115 
Q 94.94 106.329012 94.94 96.828995 
Q 94.94 89.622331 96.342962 85.007226 
Q 97.858057 79.987412 100.523163 79.987412 
z
M 100.197196 79.987412 
L 100.197196 79.987412 
z
" style="fill:#0000ff;"/>
   </g>
   <g id="patch_6">
    <path clip-path="url(#p2acc8be979)" d="M 102.067515 59.015179 
L 100.261014 36.403967 
L 98.340473 59.015179 
L 102.067515 59.015179 
z
M 99.418672 28.8 
L 101.240724 28.8 
L 105.558702 79.987412 
L 103.791078 79.987412 
L 102.58588 64.656832 
L 97.879128 64.656832 
L 96.590992 79.987412 
L 94.94 79.987412 
L 99.418672 28.8 
z
M 100.253239 28.8 
L 100.253239 28.8 
z
" style="fill:#008000;"/>
   </g>
   <g id="patch_7">
    <path clip-path="url(#p2acc8be979)" d="M 116.736283 124.869445 
L 116.736283 126.867592 
L 112.326315 126.867592 
L 112.326315 141.64 
L 110.527549 141.64 
L 110.527549 126.867592 
L 106.117581 126.867592 
L 106.117581 124.869445 
L 116.736283 124.869445 
z
" style="fill:#ff0000;"/>
   </g>
   <g id="patch_8">
    <path clip-path="url(#p2acc8be979)" d="M 111.700744 104.792945 
Q 113.97469 104.792945 115.229012 106.703016 
Q 116.483333 108.608934 116.621543 111.033892 
L 115.041255 111.033892 
Q 114.772658 109.194412 113.969475 108.118959 
Q 113.166292 107.039354 111.716391 107.039354 
Q 109.948346 107.039354 108.86092 109.020014 
Q 107.773494 110.996521 107.773494 115.082411 
Q 107.773494 118.433339 108.754002 120.517807 
Q 109.737119 122.598122 111.685098 122.598122 
Q 113.476613 122.598122 114.415398 120.405694 
Q 114.910868 119.251347 115.155995 117.366191 
L 116.736283 117.366191 
Q 116.525057 120.376628 115.335929 122.41542 
Q 113.909497 124.869445 111.489518 124.869445 
Q 109.403329 124.869445 107.98472 122.855567 
Q 106.117581 120.198078 106.117581 114.642264 
Q 106.117581 110.427653 107.520543 107.72864 
Q 109.035638 104.792945 111.700744 104.792945 
z
M 111.374777 104.792945 
L 111.374777 104.792945 
z
" style="fill:#0000ff;"/>
   </g>
   <g id="patch_9">
    <path clip-path="url(#p2acc8be979)" d="M 111.594036 80.87592 
Q 113.232162 80.87592 114.427209 82.113605 
Q 116.159015 83.890921 116.546392 88.346587 
L 114.989286 88.346587 
Q 114.703184 85.856365 113.809431 84.717694 
Q 112.915677 83.579024 111.553526 83.579024 
Q 109.940719 83.579024 108.83682 85.950429 
Q 107.73292 88.316882 107.73292 93.005233 
Q 107.73292 97.054939 108.641865 99.599619 
Q 109.553341 102.144299 111.609227 102.144299 
Q 113.184056 102.144299 114.217063 100.362033 
Q 115.25007 98.574816 115.272857 94.579569 
L 111.634546 94.579569 
L 111.634546 92.029937 
L 116.736283 92.029937 
L 116.736283 104.188955 
L 115.723531 104.188955 
L 115.34375 101.263068 
Q 114.546208 102.980974 113.928429 103.649324 
Q 112.890358 104.792945 111.292743 104.792945 
Q 109.229261 104.792945 107.740516 102.178955 
Q 106.117581 98.896614 106.117581 93.173558 
Q 106.117581 87.465355 107.700006 84.093901 
Q 109.203942 80.87592 111.594036 80.87592 
z
M 111.333253 80.841265 
L 111.333253 80.841265 
z
" style="fill:#ffa600;"/>
   </g>
   <g id="patch_10">
    <path clip-path="url(#p2acc8be979)" d="M 113.245097 59.519196 
L 111.438595 36.530809 
L 109.518054 59.519196 
L 113.245097 59.519196 
z
M 110.596253 28.8 
L 112.418305 28.8 
L 116.736283 80.841265 
L 114.968659 80.841265 
L 113.763461 65.254957 
L 109.056709 65.254957 
L 107.768573 80.841265 
L 106.117581 80.841265 
L 110.596253 28.8 
z
M 111.43082 28.8 
L 111.43082 28.8 
z
" style="fill:#008000;"/>
   </g>
   <g id="patch_11">
    <path clip-path="url(#p2acc8be979)" d="M 122.771617 122.92613 
Q 124.409743 122.92613 125.60479 123.894557 
Q 127.336596 125.285217 127.723973 128.771551 
L 126.166868 128.771551 
Q 125.880765 126.823078 124.987012 125.932126 
Q 124.093258 125.041173 122.731107 125.041173 
Q 121.1183 125.041173 120.014401 126.896678 
Q 118.910501 128.748309 118.910501 132.416708 
Q 118.910501 135.585399 119.819446 137.576483 
Q 120.730923 139.567568 122.786809 139.567568 
Q 124.361638 139.567568 125.394644 138.173034 
Q 126.427651 136.774626 126.450438 133.648546 
L 122.812127 133.648546 
L 122.812127 131.653588 
L 127.913864 131.653588 
L 127.913864 141.167408 
L 126.901113 141.167408 
L 126.521331 138.878048 
Q 125.723789 140.222224 125.10601 140.745174 
Q 124.06794 141.64 122.470324 141.64 
Q 120.406842 141.64 118.918097 139.594684 
Q 117.295162 137.026417 117.295162 132.548414 
Q 117.295162 128.082032 118.877587 125.444039 
Q 120.381523 122.92613 122.771617 122.92613 
z
M 122.510834 122.899014 
L 122.510834 122.899014 
z
" style="fill:#ffa600;"/>
   </g>
   <g id="patch_12">
    <path clip-path="url(#p2acc8be979)" d="M 122.878326 100.808296 
Q 125.152272 100.808296 126.406593 102.909999 
Q 127.660914 105.007132 127.799124 107.67538 
L 126.218836 107.67538 
Q 125.950239 105.651349 125.147056 104.468 
Q 124.343873 103.280081 122.893972 103.280081 
Q 121.125927 103.280081 120.038501 105.459455 
Q 118.951075 107.63426 118.951075 112.130075 
Q 118.951075 115.817192 119.931584 118.110788 
Q 120.9147 120.399816 122.862679 120.399816 
Q 124.654194 120.399816 125.592979 117.987428 
Q 126.088449 116.717268 126.333576 114.64298 
L 127.913864 114.64298 
Q 127.702638 117.955445 126.51351 120.198784 
Q 125.087078 122.899014 122.667099 122.899014 
Q 120.58091 122.899014 119.162301 120.683089 
Q 117.295162 117.758982 117.295162 111.64577 
Q 117.295162 107.008318 118.698124 104.038521 
Q 120.213219 100.808296 122.878326 100.808296 
z
M 122.552359 100.808296 
L 122.552359 100.808296 
z
" style="fill:#0000ff;"/>
   </g>
   <g id="patch_13">
    <path clip-path="url(#p2acc8be979)" d="M 127.913864 70.551238 
L 127.913864 74.15625 
L 123.503896 74.15625 
L 123.503896 100.808296 
L 121.705131 100.808296 
L 121.705131 74.15625 
L 117.295162 74.15625 
L 117.295162 70.551238 
L 127.913864 70.551238 
z
" style="fill:#ff0000;"/>
   </g>
   <g id="patch_14">
    <path clip-path="url(#p2acc8be979)" d="M 124.422678 53.445144 
L 122.616176 35.00221 
L 120.695635 53.445144 
L 124.422678 53.445144 
z
M 121.773834 28.8 
L 123.595886 28.8 
L 127.913864 70.551238 
L 126.14624 70.551238 
L 124.941042 58.046783 
L 120.23429 58.046783 
L 118.946154 70.551238 
L 117.295162 70.551238 
L 121.773834 28.8 
z
M 122.608401 28.8 
L 122.608401 28.8 
z
" style="fill:#008000;"/>
   </g>
   <g id="patch_15">
    <path clip-path="url(#p2acc8be979)" d="M 134.055907 136.27605 
Q 136.329853 136.27605 137.584174 136.786374 
Q 138.838495 137.295589 138.976705 137.943478 
L 137.396417 137.943478 
Q 137.12782 137.452014 136.324637 137.164679 
Q 135.521454 136.876235 134.071553 136.876235 
Q 132.303508 136.876235 131.216082 137.405419 
Q 130.128656 137.933494 130.128656 139.025144 
Q 130.128656 139.92043 131.109165 140.477349 
Q 132.092281 141.033158 134.04026 141.033158 
Q 135.831775 141.033158 136.77056 140.447395 
Q 137.26603 140.138981 137.511157 139.635314 
L 139.091445 139.635314 
Q 138.880219 140.439629 137.691091 140.984344 
Q 136.264659 141.64 133.84468 141.64 
Q 131.758491 141.64 130.339883 141.101941 
Q 128.472743 140.391925 128.472743 138.907547 
Q 128.472743 137.781506 129.875705 137.060396 
Q 131.3908 136.27605 134.055907 136.27605 
z
M 133.72994 136.27605 
L 133.72994 136.27605 
z
" style="fill:#0000ff;"/>
   </g>
   <g id="patch_16">
    <path clip-path="url(#p2acc8be979)" d="M 139.091445 126.708514 
L 139.091445 127.848449 
L 134.681477 127.848449 
L 134.681477 136.27605 
L 132.882712 136.27605 
L 132.882712 127.848449 
L 128.472743 127.848449 
L 128.472743 126.708514 
L 139.091445 126.708514 
z
" style="fill:#ff0000;"/>
   </g>
   <g id="patch_17">
    <path clip-path="url(#p2acc8be979)" d="M 133.949198 82.918933 
Q 135.587324 82.918933 136.782371 85.185005 
Q 138.514177 88.439085 138.901554 96.596945 
L 137.344449 96.596945 
Q 137.058346 92.037608 136.164593 89.952821 
Q 135.270839 87.868035 133.908688 87.868035 
Q 132.295881 87.868035 131.191982 92.209829 
Q 130.088082 96.54256 130.088082 105.126441 
Q 130.088082 112.54103 130.997027 117.200075 
Q 131.908504 121.859119 133.96439 121.859119 
Q 135.539219 121.859119 136.572225 118.595975 
Q 137.605232 115.323767 137.628019 108.008885 
L 133.989709 108.008885 
L 133.989709 103.340776 
L 139.091445 103.340776 
L 139.091445 125.602671 
L 138.078694 125.602671 
L 137.698912 120.245676 
Q 136.90137 123.390984 136.283591 124.614663 
Q 135.245521 126.708514 133.647905 126.708514 
Q 131.584423 126.708514 130.095678 121.922569 
Q 128.472743 115.912945 128.472743 105.434627 
Q 128.472743 94.983502 130.055168 88.810721 
Q 131.559104 82.918933 133.949198 82.918933 
z
M 133.688415 82.855483 
L 133.688415 82.855483 
z
" style="fill:#ffa600;"/>
   </g>
   <g id="patch_18">
    <path clip-path="url(#p2acc8be979)" d="M 135.600259 60.708159 
L 133.793758 36.830024 
L 131.873216 60.708159 
L 135.600259 60.708159 
z
M 132.951415 28.8 
L 134.773467 28.8 
L 139.091445 82.855483 
L 137.323822 82.855483 
L 136.118624 66.665919 
L 131.411872 66.665919 
L 130.123735 82.855483 
L 128.472743 82.855483 
L 132.951415 28.8 
z
M 133.785982 28.8 
L 133.785982 28.8 
z
" style="fill:#008000;"/>
   </g>
   <g id="patch_19">
    <path clip-path="url(#p2acc8be979)" d="M 150.269027 135.225153 
L 150.269027 135.989458 
L 145.859058 135.989458 
L 145.859058 141.64 
L 144.060293 141.64 
L 144.060293 135.989458 
L 139.650324 135.989458 
L 139.650324 135.225153 
L 150.269027 135.225153 
z
" style="fill:#ff0000;"/>
   </g>
   <g id="patch_20">
    <path clip-path="url(#p2acc8be979)" d="M 146.77784 131.305194 
L 144.971339 127.078889 
L 143.050797 131.305194 
L 146.77784 131.305194 
z
M 144.128996 125.657617 
L 145.951048 125.657617 
L 150.269027 135.225153 
L 148.501403 135.225153 
L 147.296205 132.359686 
L 142.589453 132.359686 
L 141.301316 135.225153 
L 139.650324 135.225153 
L 144.128996 125.657617 
z
M 144.963563 125.657617 
L 144.963563 125.657617 
z
" style="fill:#008000;"/>
   </g>
   <g id="patch_21">
    <path clip-path="url(#p2acc8be979)" d="M 145.233488 111.886496 
Q 147.507434 111.886496 148.761755 113.196675 
Q 150.016076 114.504006 150.154286 116.167364 
L 148.573998 116.167364 
Q 148.305401 114.905604 147.502218 114.167916 
Q 146.699036 113.42738 145.249134 113.42738 
Q 143.481089 113.42738 142.393663 114.785979 
Q 141.306237 116.14173 141.306237 118.944374 
Q 141.306237 121.242884 142.286746 122.672688 
Q 143.269862 124.099644 145.217841 124.099644 
Q 147.009356 124.099644 147.948141 122.595786 
Q 148.443611 121.803982 148.688738 120.510892 
L 150.269027 120.510892 
Q 150.0578 122.575848 148.868672 123.974322 
Q 147.44224 125.657617 145.022261 125.657617 
Q 142.936072 125.657617 141.517464 124.276233 
Q 139.650324 122.453375 139.650324 118.642463 
Q 139.650324 115.751524 141.053287 113.900184 
Q 142.568381 111.886496 145.233488 111.886496 
z
M 144.907521 111.886496 
L 144.907521 111.886496 
z
" style="fill:#0000ff;"/>
   </g>
   <g id="patch_22">
    <path clip-path="url(#p2acc8be979)" d="M 145.12678 28.920216 
Q 146.764906 28.920216 147.959953 33.213648 
Q 149.691758 39.379016 150.079136 54.835372 
L 148.52203 54.835372 
Q 148.235927 46.196986 147.342174 42.247029 
Q 146.448421 38.297072 145.086269 38.297072 
Q 143.473462 38.297072 142.369563 46.523287 
Q 141.265664 54.732329 141.265664 70.99585 
Q 141.265664 85.043959 142.174608 93.871255 
Q 143.086085 102.698551 145.141971 102.698551 
Q 146.7168 102.698551 147.749807 96.516009 
Q 148.782813 90.316294 148.8056 76.457095 
L 145.16729 76.457095 
L 145.16729 67.612625 
L 150.269027 67.612625 
L 150.269027 109.791301 
L 149.256275 109.791301 
L 148.876493 99.641628 
Q 148.078951 105.600911 147.461172 107.919365 
Q 146.423102 111.886496 144.825486 111.886496 
Q 142.762004 111.886496 141.273259 102.818768 
Q 139.650324 91.432586 139.650324 71.579756 
Q 139.650324 51.778448 141.232749 40.083139 
Q 142.736685 28.920216 145.12678 28.920216 
z
M 144.865996 28.8 
L 144.865996 28.8 
z
" style="fill:#ffa600;"/>
   </g>
   <g id="patch_23">
    <path clip-path="url(#p2acc8be979)" d="M 161.446608 122.855227 
L 161.446608 125.09336 
L 157.036639 125.09336 
L 157.036639 141.64 
L 155.237874 141.64 
L 155.237874 125.09336 
L 150.827906 125.09336 
L 150.827906 122.855227 
L 161.446608 122.855227 
z
" style="fill:#ff0000;"/>
   </g>
   <g id="patch_24">
    <path clip-path="url(#p2acc8be979)" d="M 156.304361 102.938947 
Q 157.942487 102.938947 159.137534 103.969597 
Q 160.869339 105.449611 161.256717 109.159951 
L 159.699611 109.159951 
Q 159.413509 107.086283 158.519755 106.138085 
Q 157.626002 105.189887 156.263851 105.189887 
Q 154.651043 105.189887 153.547144 107.164612 
Q 152.443245 109.135215 152.443245 113.039317 
Q 152.443245 116.411604 153.352189 118.53062 
Q 154.263666 120.649636 156.319552 120.649636 
Q 157.894381 120.649636 158.927388 119.1655 
Q 159.960394 117.677242 159.983181 114.350304 
L 156.344871 114.350304 
L 156.344871 112.227165 
L 161.446608 112.227165 
L 161.446608 122.35227 
L 160.433856 122.35227 
L 160.054074 119.915813 
Q 159.256532 121.346355 158.638753 121.902906 
Q 157.600683 122.855227 156.003067 122.855227 
Q 153.939585 122.855227 152.45084 120.678494 
Q 150.827906 117.945211 150.827906 113.179485 
Q 150.827906 108.426128 152.41033 105.618637 
Q 153.914267 102.938947 156.304361 102.938947 
z
M 156.043577 102.910089 
L 156.043577 102.910089 
z
" style="fill:#ffa600;"/>
   </g>
   <g id="patch_25">
    <path clip-path="url(#p2acc8be979)" d="M 156.411069 72.696818 
Q 158.685015 72.696818 159.939336 75.571297 
Q 161.193657 78.439527 161.331867 82.088865 
L 159.751579 82.088865 
Q 159.482982 79.320617 158.679799 77.70216 
Q 157.876617 76.077455 156.426715 76.077455 
Q 154.65867 76.077455 153.571244 79.058164 
Q 152.483818 82.032625 152.483818 88.18151 
Q 152.483818 93.224346 153.464327 96.361277 
Q 154.447444 99.491959 156.395423 99.491959 
Q 158.186937 99.491959 159.125722 96.192557 
Q 159.621192 94.455372 159.866319 91.618387 
L 161.446608 91.618387 
Q 161.235381 96.148815 160.046253 99.217009 
Q 158.619822 102.910089 156.199842 102.910089 
Q 154.113653 102.910089 152.695045 99.879389 
Q 150.827906 95.880114 150.827906 87.51913 
Q 150.827906 81.17653 152.230868 77.114767 
Q 153.745962 72.696818 156.411069 72.696818 
z
M 156.085102 72.696818 
L 156.085102 72.696818 
z
" style="fill:#0000ff;"/>
   </g>
   <g id="patch_26">
    <path clip-path="url(#p2acc8be979)" d="M 157.955421 54.711648 
L 156.14892 35.320939 
L 154.228378 54.711648 
L 157.955421 54.711648 
z
M 155.306577 28.8 
L 157.128629 28.8 
L 161.446608 72.696818 
L 159.678984 72.696818 
L 158.473786 59.549764 
L 153.767034 59.549764 
L 152.478897 72.696818 
L 150.827906 72.696818 
L 155.306577 28.8 
z
M 156.141144 28.8 
L 156.141144 28.8 
z
" style="fill:#008000;"/>
   </g>
   <g id="patch_27">
    <path clip-path="url(#p2acc8be979)" d="M 167.58865 136.27605 
Q 169.862596 136.27605 171.116917 136.786374 
Q 172.371238 137.295589 172.509448 137.943478 
L 170.92916 137.943478 
Q 170.660563 137.452014 169.857381 137.164679 
Q 169.054198 136.876235 167.604296 136.876235 
Q 165.836251 136.876235 164.748825 137.405419 
Q 163.661399 137.933494 163.661399 139.025144 
Q 163.661399 139.92043 164.641908 140.477349 
Q 165.625025 141.033158 167.573004 141.033158 
Q 169.364518 141.033158 170.303304 140.447395 
Q 170.798773 140.138981 171.043901 139.635314 
L 172.624189 139.635314 
Q 172.412962 140.439629 171.223834 140.984344 
Q 169.797403 141.64 167.377423 141.64 
Q 165.291234 141.64 163.872626 141.101941 
Q 162.005487 140.391925 162.005487 138.907547 
Q 162.005487 137.781506 163.408449 137.060396 
Q 164.923544 136.27605 167.58865 136.27605 
z
M 167.262683 136.27605 
L 167.262683 136.27605 
z
" style="fill:#0000ff;"/>
   </g>
   <g id="patch_28">
    <path clip-path="url(#p2acc8be979)" d="M 172.624189 130.912099 
L 172.624189 131.551193 
L 168.21422 131.551193 
L 168.21422 136.27605 
L 166.415455 136.27605 
L 166.415455 131.551193 
L 162.005487 131.551193 
L 162.005487 130.912099 
L 172.624189 130.912099 
z
" style="fill:#ff0000;"/>
   </g>
   <g id="patch_29">
    <path clip-path="url(#p2acc8be979)" d="M 169.133002 121.448581 
L 167.326501 111.24549 
L 165.40596 121.448581 
L 169.133002 121.448581 
z
M 166.484158 107.814272 
L 168.30621 107.814272 
L 172.624189 130.912099 
L 170.856565 130.912099 
L 169.651367 123.994323 
L 164.944615 123.994323 
L 163.656478 130.912099 
L 162.005487 130.912099 
L 166.484158 107.814272 
z
M 167.318725 107.814272 
L 167.318725 107.814272 
z
" style="fill:#008000;"/>
   </g>
   <g id="patch_30">
    <path clip-path="url(#p2acc8be979)" d="M 167.481942 28.914324 
Q 169.120068 28.914324 170.315115 32.997327 
Q 172.04692 38.860519 172.434298 53.55933 
L 170.877192 53.55933 
Q 170.59109 45.344328 169.697336 41.587965 
Q 168.803583 37.831602 167.441432 37.831602 
Q 165.828625 37.831602 164.724725 45.654636 
Q 163.620826 53.461338 163.620826 68.927753 
Q 163.620826 82.287338 164.52977 90.681992 
Q 165.441247 99.076646 167.497133 99.076646 
Q 169.071962 99.076646 170.104969 93.197122 
Q 171.137976 87.301266 171.160763 74.121332 
L 167.522452 74.121332 
L 167.522452 65.710346 
L 172.624189 65.710346 
L 172.624189 105.821767 
L 171.611437 105.821767 
L 171.231655 96.169548 
Q 170.434113 101.836756 169.816335 104.041578 
Q 168.778264 107.814272 167.180648 107.814272 
Q 165.117166 107.814272 163.628421 99.19097 
Q 162.005487 88.362847 162.005487 69.483041 
Q 162.005487 50.652232 163.587911 39.530132 
Q 165.091848 28.914324 167.481942 28.914324 
z
M 167.221158 28.8 
L 167.221158 28.8 
z
" style="fill:#ffa600;"/>
   </g>
   <g id="patch_31">
    <path clip-path="url(#p2acc8be979)" d="M 178.766231 134.174257 
Q 181.040177 134.174257 182.294498 134.884545 
Q 183.548819 135.593289 183.68703 136.495045 
L 182.106741 136.495045 
Q 181.838145 135.811007 181.034962 135.411084 
Q 180.231779 135.009617 178.781878 135.009617 
Q 177.013832 135.009617 175.926406 135.746155 
Q 174.83898 136.481148 174.83898 138.000547 
Q 174.83898 139.246639 175.819489 140.021779 
Q 176.802606 140.795375 178.750585 140.795375 
Q 180.5421 140.795375 181.480885 139.980088 
Q 181.976355 139.550827 182.221482 138.849804 
L 183.80177 138.849804 
Q 183.590543 139.969279 182.401416 140.727435 
Q 180.974984 141.64 178.555005 141.64 
Q 176.468816 141.64 175.050207 140.89111 
Q 173.183068 139.902883 173.183068 137.836872 
Q 173.183068 136.269606 174.58603 135.265938 
Q 176.101125 134.174257 178.766231 134.174257 
z
M 178.440264 134.174257 
L 178.440264 134.174257 
z
" style="fill:#0000ff;"/>
   </g>
   <g id="patch_32">
    <path clip-path="url(#p2acc8be979)" d="M 180.310583 123.867544 
L 178.504082 112.755362 
L 176.583541 123.867544 
L 180.310583 123.867544 
z
M 177.661739 109.018425 
L 179.483791 109.018425 
L 183.80177 134.174257 
L 182.034146 134.174257 
L 180.828948 126.64011 
L 176.122196 126.64011 
L 174.83406 134.174257 
L 173.183068 134.174257 
L 177.661739 109.018425 
z
M 178.496307 109.018425 
L 178.496307 109.018425 
z
" style="fill:#008000;"/>
   </g>
   <g id="patch_33">
    <path clip-path="url(#p2acc8be979)" d="M 183.80177 73.944757 
L 183.80177 78.12365 
L 179.391802 78.12365 
L 179.391802 109.018425 
L 177.593036 109.018425 
L 177.593036 78.12365 
L 173.183068 78.12365 
L 173.183068 73.944757 
L 183.80177 73.944757 
z
" style="fill:#ff0000;"/>
   </g>
   <g id="patch_34">
    <path clip-path="url(#p2acc8be979)" d="M 178.659523 28.865319 
Q 180.297649 28.865319 181.492696 31.19814 
Q 183.224501 34.548072 183.611879 42.946228 
L 182.054773 42.946228 
Q 181.768671 38.252592 180.874917 36.106396 
Q 179.981164 33.960201 178.619013 33.960201 
Q 177.006206 33.960201 175.902306 38.429886 
Q 174.798407 42.890241 174.798407 51.726968 
Q 174.798407 59.359959 175.707352 64.156239 
Q 176.618828 68.95252 178.674714 68.95252 
Q 180.249543 68.95252 181.28255 65.593257 
Q 182.315557 62.224663 182.338344 54.694316 
L 178.700033 54.694316 
L 178.700033 49.888704 
L 183.80177 49.888704 
L 183.80177 72.806341 
L 182.789018 72.806341 
L 182.409236 67.291551 
Q 181.611694 70.529507 180.993916 71.789231 
Q 179.955845 73.944757 178.358229 73.944757 
Q 176.294748 73.944757 174.806003 69.017839 
Q 173.183068 62.831197 173.183068 52.044231 
Q 173.183068 41.28526 174.765492 34.930654 
Q 176.269429 28.865319 178.659523 28.865319 
z
M 178.398739 28.8 
L 178.398739 28.8 
z
" style="fill:#ffa600;"/>
   </g>
   <g id="patch_35">
    <path clip-path="url(#p2acc8be979)" d="M 194.979351 137.326946 
L 194.979351 137.84083 
L 190.569383 137.84083 
L 190.569383 141.64 
L 188.770617 141.64 
L 188.770617 137.84083 
L 184.360649 137.84083 
L 184.360649 137.326946 
L 194.979351 137.326946 
z
" style="fill:#ff0000;"/>
   </g>
   <g id="patch_36">
    <path clip-path="url(#p2acc8be979)" d="M 189.943812 131.962996 
Q 192.217758 131.962996 193.472079 132.47332 
Q 194.726401 132.982535 194.864611 133.630424 
L 193.284322 133.630424 
Q 193.015726 133.13896 192.212543 132.851625 
Q 191.40936 132.563181 189.959459 132.563181 
Q 188.191414 132.563181 187.103988 133.092365 
Q 186.016561 133.62044 186.016561 134.71209 
Q 186.016561 135.607376 186.99707 136.164295 
Q 187.980187 136.720104 189.928166 136.720104 
Q 191.719681 136.720104 192.658466 136.134341 
Q 193.153936 135.825927 193.399063 135.32226 
L 194.979351 135.32226 
Q 194.768124 136.126575 193.578997 136.67129 
Q 192.152565 137.326946 189.732586 137.326946 
Q 187.646397 137.326946 186.227788 136.788887 
Q 184.360649 136.078871 184.360649 134.594493 
Q 184.360649 133.468452 185.763611 132.747342 
Q 187.278706 131.962996 189.943812 131.962996 
z
M 189.617845 131.962996 
L 189.617845 131.962996 
z
" style="fill:#0000ff;"/>
   </g>
   <g id="patch_37">
    <path clip-path="url(#p2acc8be979)" d="M 191.488164 119.054936 
L 189.681663 105.138113 
L 187.761122 119.054936 
L 191.488164 119.054936 
z
M 188.83932 100.457998 
L 190.661373 100.457998 
L 194.979351 131.962996 
L 193.211727 131.962996 
L 192.006529 122.52728 
L 187.299777 122.52728 
L 186.011641 131.962996 
L 184.360649 131.962996 
L 188.83932 100.457998 
z
M 189.673888 100.457998 
L 189.673888 100.457998 
z
" style="fill:#008000;"/>
   </g>
   <g id="patch_38">
    <path clip-path="url(#p2acc8be979)" d="M 189.837104 28.90368 
Q 191.47523 28.90368 192.670277 32.606553 
Q 194.402083 37.923879 194.78946 51.254222 
L 193.232354 51.254222 
Q 192.946252 43.804041 192.052498 40.397398 
Q 191.158745 36.990755 189.796594 36.990755 
Q 188.183787 36.990755 187.079887 44.08546 
Q 185.975988 51.165353 185.975988 65.191836 
Q 185.975988 77.307636 186.884933 84.920743 
Q 187.796409 92.53385 189.852295 92.53385 
Q 191.427124 92.53385 192.460131 87.201712 
Q 193.493138 81.854764 193.515925 69.90189 
L 189.877614 69.90189 
L 189.877614 62.273972 
L 194.979351 62.273972 
L 194.979351 98.650996 
L 193.966599 98.650996 
L 193.586817 89.897404 
Q 192.789275 95.036992 192.171497 97.036543 
Q 191.133426 100.457998 189.53581 100.457998 
Q 187.472329 100.457998 185.983584 92.63753 
Q 184.360649 82.817511 184.360649 65.695426 
Q 184.360649 48.617776 185.943074 38.53115 
Q 187.44701 28.90368 189.837104 28.90368 
z
M 189.57632 28.8 
L 189.57632 28.8 
z
" style="fill:#ffa600;"/>
   </g>
   <g id="patch_39">
    <path clip-path="url(#p2acc8be979)" d="M 206.156932 134.174257 
L 206.156932 135.063771 
L 201.746964 135.063771 
L 201.746964 141.64 
L 199.948198 141.64 
L 199.948198 135.063771 
L 195.53823 135.063771 
L 195.53823 134.174257 
L 206.156932 134.174257 
z
" style="fill:#ff0000;"/>
   </g>
   <g id="patch_40">
    <path clip-path="url(#p2acc8be979)" d="M 202.665746 129.393162 
L 200.859244 124.238425 
L 198.938703 129.393162 
L 202.665746 129.393162 
z
M 200.016902 122.504928 
L 201.838954 122.504928 
L 206.156932 134.174257 
L 204.389308 134.174257 
L 203.18411 130.679304 
L 198.477358 130.679304 
L 197.189222 134.174257 
L 195.53823 134.174257 
L 200.016902 122.504928 
z
M 200.851469 122.504928 
L 200.851469 122.504928 
z
" style="fill:#008000;"/>
   </g>
   <g id="patch_41">
    <path clip-path="url(#p2acc8be979)" d="M 201.121393 102.55979 
Q 203.395339 102.55979 204.649661 104.457363 
Q 205.903982 106.35081 206.042192 108.759903 
L 204.461904 108.759903 
Q 204.193307 106.932458 203.390124 105.864042 
Q 202.586941 104.791501 201.13704 104.791501 
Q 199.368995 104.791501 198.281569 106.759201 
Q 197.194143 108.722776 197.194143 112.781931 
Q 197.194143 116.110934 198.174651 118.181763 
Q 199.157768 120.248467 201.105747 120.248467 
Q 202.897262 120.248467 203.836047 118.070384 
Q 204.331517 116.92359 204.576644 115.050768 
L 206.156932 115.050768 
Q 205.945706 118.041508 204.756578 120.06696 
Q 203.330146 122.504928 200.910167 122.504928 
Q 198.823978 122.504928 197.405369 120.504227 
Q 195.53823 117.864126 195.53823 112.344665 
Q 195.53823 108.15763 196.941192 105.476277 
Q 198.456287 102.55979 201.121393 102.55979 
z
M 200.795426 102.55979 
L 200.795426 102.55979 
z
" style="fill:#0000ff;"/>
   </g>
   <g id="patch_42">
    <path clip-path="url(#p2acc8be979)" d="M 201.014685 28.906721 
Q 202.652811 28.906721 203.847858 32.718203 
Q 205.579664 38.19149 205.967041 51.912824 
L 204.409935 51.912824 
Q 204.123833 44.244123 203.23008 40.73756 
Q 202.336326 37.230997 200.974175 37.230997 
Q 199.361368 37.230997 198.257469 44.533796 
Q 197.153569 51.821348 197.153569 66.25924 
Q 197.153569 78.730408 198.062514 86.566814 
Q 198.97399 94.40322 201.029876 94.40322 
Q 202.604705 94.40322 203.637712 88.914687 
Q 204.670719 83.410907 204.693506 71.107445 
L 201.055195 71.107445 
L 201.055195 63.255793 
L 206.156932 63.255793 
L 206.156932 100.699787 
L 205.14418 100.699787 
L 204.764399 91.689445 
Q 203.966857 96.979782 203.349078 99.037982 
Q 202.311007 102.55979 200.713392 102.55979 
Q 198.64991 102.55979 197.161165 94.509941 
Q 195.53823 84.401892 195.53823 66.777602 
Q 195.53823 49.199049 197.120655 38.816573 
Q 198.624591 28.906721 201.014685 28.906721 
z
M 200.753902 28.8 
L 200.753902 28.8 
z
" style="fill:#ffa600;"/>
   </g>
   <g id="patch_43">
    <path clip-path="url(#p2acc8be979)" d="M 217.334513 135.225153 
L 217.334513 135.989458 
L 212.924545 135.989458 
L 212.924545 141.64 
L 211.12578 141.64 
L 211.12578 135.989458 
L 206.715811 135.989458 
L 206.715811 135.225153 
L 217.334513 135.225153 
z
" style="fill:#ff0000;"/>
   </g>
   <g id="patch_44">
    <path clip-path="url(#p2acc8be979)" d="M 212.298975 112.105433 
Q 214.572921 112.105433 215.827242 114.305034 
Q 217.081563 116.499853 217.219773 119.29239 
L 215.639485 119.29239 
Q 215.370888 117.174079 214.567705 115.935608 
Q 213.764522 114.692355 212.314621 114.692355 
Q 210.546576 114.692355 209.45915 116.973246 
Q 208.371724 119.249355 208.371724 123.954588 
Q 208.371724 127.813454 209.352233 130.213888 
Q 210.335349 132.609541 212.283328 132.609541 
Q 214.074843 132.609541 215.013628 130.084781 
Q 215.509098 128.755457 215.754225 126.584546 
L 217.334513 126.584546 
Q 217.123287 130.051309 215.934159 132.399144 
Q 214.507727 135.225153 212.087748 135.225153 
Q 210.001559 135.225153 208.58295 132.906009 
Q 206.715811 129.845694 206.715811 123.447724 
Q 206.715811 118.594256 208.118773 115.486124 
Q 209.633868 112.105433 212.298975 112.105433 
z
M 211.973008 112.105433 
L 211.973008 112.105433 
z
" style="fill:#0000ff;"/>
   </g>
   <g id="patch_45">
    <path clip-path="url(#p2acc8be979)" d="M 213.843327 96.23722 
L 212.036825 79.128909 
L 210.116284 96.23722 
L 213.843327 96.23722 
z
M 211.194483 73.375522 
L 213.016535 73.375522 
L 217.334513 112.105433 
L 215.566889 112.105433 
L 214.361691 100.505862 
L 209.654939 100.505862 
L 208.366803 112.105433 
L 206.715811 112.105433 
L 211.194483 73.375522 
z
M 212.02905 73.375522 
L 212.02905 73.375522 
z
" style="fill:#008000;"/>
   </g>
   <g id="patch_46">
    <path clip-path="url(#p2acc8be979)" d="M 212.192266 28.864495 
Q 213.830392 28.864495 215.025439 31.167902 
Q 216.757245 34.475594 217.144622 42.767857 
L 215.587517 42.767857 
Q 215.301414 38.133403 214.407661 36.014269 
Q 213.513907 33.895135 212.151756 33.895135 
Q 210.538949 33.895135 209.43505 38.308462 
Q 208.33115 42.712575 208.33115 51.437879 
Q 208.33115 58.974625 209.240095 63.710428 
Q 210.151572 68.446232 212.207458 68.446232 
Q 213.782287 68.446232 214.815293 65.129327 
Q 215.8483 61.803208 215.871087 54.367812 
L 212.232776 54.367812 
L 212.232776 49.622794 
L 217.334513 49.622794 
L 217.334513 72.25146 
L 216.321762 72.25146 
L 215.94198 66.806207 
Q 215.144438 70.003335 214.526659 71.247174 
Q 213.488589 73.375522 211.890973 73.375522 
Q 209.827491 73.375522 208.338746 68.510727 
Q 206.715811 62.402094 206.715811 51.751142 
Q 206.715811 41.127831 208.298236 34.853352 
Q 209.802172 28.864495 212.192266 28.864495 
z
M 211.931483 28.8 
L 211.931483 28.8 
z
" style="fill:#ffa600;"/>
   </g>
   <g id="patch_47">
    <path clip-path="url(#p2acc8be979)" d="M 228.512094 137.326946 
L 228.512094 137.84083 
L 224.102126 137.84083 
L 224.102126 141.64 
L 222.303361 141.64 
L 222.303361 137.84083 
L 217.893392 137.84083 
L 217.893392 137.326946 
L 228.512094 137.326946 
z
" style="fill:#ff0000;"/>
   </g>
   <g id="patch_48">
    <path clip-path="url(#p2acc8be979)" d="M 223.476556 122.504928 
Q 225.750502 122.504928 227.004823 123.915089 
Q 228.259144 125.322185 228.397354 127.112476 
L 226.817066 127.112476 
Q 226.548469 125.75443 225.745286 124.960448 
Q 224.942103 124.1634 223.492202 124.1634 
Q 221.724157 124.1634 220.636731 125.625676 
Q 219.549305 127.084886 219.549305 130.101404 
Q 219.549305 132.575317 220.529814 134.114232 
Q 221.51293 135.650081 223.460909 135.650081 
Q 225.252424 135.650081 226.191209 134.031461 
Q 226.686679 133.179234 226.931806 131.787466 
L 228.512094 131.787466 
Q 228.300868 134.010002 227.11174 135.515196 
Q 225.685308 137.326946 223.265329 137.326946 
Q 221.17914 137.326946 219.760531 135.840146 
Q 217.893392 133.878183 217.893392 129.776454 
Q 217.893392 126.664903 219.296354 124.672284 
Q 220.811449 122.504928 223.476556 122.504928 
z
M 223.150589 122.504928 
L 223.150589 122.504928 
z
" style="fill:#0000ff;"/>
   </g>
   <g id="patch_49">
    <path clip-path="url(#p2acc8be979)" d="M 225.020908 110.458004 
L 223.214407 97.469614 
L 221.293865 110.458004 
L 225.020908 110.458004 
z
M 222.372064 93.101723 
L 224.194116 93.101723 
L 228.512094 122.504928 
L 226.744471 122.504928 
L 225.539273 113.698697 
L 220.832521 113.698697 
L 219.544384 122.504928 
L 217.893392 122.504928 
L 222.372064 93.101723 
z
M 223.206631 93.101723 
L 223.206631 93.101723 
z
" style="fill:#008000;"/>
   </g>
   <g id="patch_50">
    <path clip-path="url(#p2acc8be979)" d="M 223.369847 28.893037 
Q 225.007973 28.893037 226.20302 32.21578 
Q 227.934826 36.987239 228.322203 48.949114 
L 226.765098 48.949114 
Q 226.478995 42.263755 225.585242 39.206831 
Q 224.691488 36.149908 223.329337 36.149908 
Q 221.71653 36.149908 220.612631 42.516283 
Q 219.508731 48.869368 219.508731 61.455918 
Q 219.508731 72.327934 220.417676 79.159493 
Q 221.329153 85.991053 223.385039 85.991053 
Q 224.959868 85.991053 225.992874 81.206303 
Q 227.025881 76.408262 227.048668 65.682448 
L 223.410357 65.682448 
L 223.410357 58.837597 
L 228.512094 58.837597 
L 228.512094 91.480224 
L 227.499343 91.480224 
L 227.119561 83.62526 
Q 226.322019 88.237227 225.70424 90.031508 
Q 224.66617 93.101723 223.068554 93.101723 
Q 221.005072 93.101723 219.516327 86.08409 
Q 217.893392 77.272175 217.893392 61.907811 
Q 217.893392 46.583321 219.475817 37.532169 
Q 220.979753 28.893037 223.369847 28.893037 
z
M 223.109064 28.8 
L 223.109064 28.8 
z
" style="fill:#ffa600;"/>
   </g>
   <g id="patch_51">
    <path clip-path="url(#p2acc8be979)" d="M 234.654137 132.072464 
Q 236.928083 132.072464 238.182404 132.982716 
Q 239.436725 133.890989 239.574935 135.046612 
L 237.994647 135.046612 
Q 237.72605 134.17 236.922867 133.657489 
Q 236.119685 133.142999 234.669783 133.142999 
Q 232.901738 133.142999 231.814312 134.08689 
Q 230.726886 135.028803 230.726886 136.97595 
Q 230.726886 138.572848 231.707395 139.566209 
Q 232.690511 140.557592 234.63849 140.557592 
Q 236.430005 140.557592 237.36879 139.512782 
Q 237.86426 138.962673 238.109387 138.064294 
L 239.689676 138.064294 
Q 239.478449 139.49893 238.289321 140.470525 
Q 236.862889 141.64 234.44291 141.64 
Q 232.356721 141.64 230.938113 140.680278 
Q 229.070973 139.413841 229.070973 136.766196 
Q 229.070973 134.757706 230.473936 133.471481 
Q 231.98903 132.072464 234.654137 132.072464 
z
M 234.32817 132.072464 
L 234.32817 132.072464 
z
" style="fill:#0000ff;"/>
   </g>
   <g id="patch_52">
    <path clip-path="url(#p2acc8be979)" d="M 234.547429 108.177301 
Q 236.185554 108.177301 237.380602 109.413855 
Q 239.112407 111.189546 239.499785 115.641139 
L 237.942679 115.641139 
Q 237.656576 113.153193 236.762823 112.015564 
Q 235.86907 110.877934 234.506918 110.877934 
Q 232.894111 110.877934 231.790212 113.247171 
Q 230.686312 115.611462 230.686312 120.295527 
Q 230.686312 124.341531 231.595257 126.883885 
Q 232.506734 129.426239 234.56262 129.426239 
Q 236.137449 129.426239 237.170456 127.645602 
Q 238.203462 125.860018 238.226249 121.868423 
L 234.587939 121.868423 
L 234.587939 119.321123 
L 239.689676 119.321123 
L 239.689676 131.469026 
L 238.676924 131.469026 
L 238.297142 128.545813 
Q 237.4996 130.26215 236.881821 130.929889 
Q 235.843751 132.072464 234.246135 132.072464 
Q 232.182653 132.072464 230.693908 129.460863 
Q 229.070973 126.181522 229.070973 120.463698 
Q 229.070973 114.760713 230.653398 111.392341 
Q 232.157334 108.177301 234.547429 108.177301 
z
M 234.286645 108.142678 
L 234.286645 108.142678 
z
" style="fill:#ffa600;"/>
   </g>
   <g id="patch_53">
    <path clip-path="url(#p2acc8be979)" d="M 239.689676 73.725821 
L 239.689676 77.826457 
L 235.279707 77.826457 
L 235.279707 108.142678 
L 233.480942 108.142678 
L 233.480942 77.826457 
L 229.070973 77.826457 
L 229.070973 73.725821 
L 239.689676 73.725821 
z
" style="fill:#ff0000;"/>
   </g>
   <g id="patch_54">
    <path clip-path="url(#p2acc8be979)" d="M 236.198489 55.319053 
L 234.391988 35.473799 
L 232.471446 55.319053 
L 236.198489 55.319053 
z
M 233.549645 28.8 
L 235.371697 28.8 
L 239.689676 73.725821 
L 237.922052 73.725821 
L 236.716854 60.270581 
L 232.010102 60.270581 
L 230.721965 73.725821 
L 229.070973 73.725821 
L 233.549645 28.8 
z
M 234.384212 28.8 
L 234.384212 28.8 
z
" style="fill:#008000;"/>
   </g>
   <g id="patch_55">
    <path clip-path="url(#p2acc8be979)" d="M 245.72501 132.086307 
Q 247.363136 132.086307 248.558183 132.580702 
Q 250.289988 133.290654 250.677366 135.070477 
L 249.12026 135.070477 
Q 248.834158 134.075753 247.940404 133.62091 
Q 247.046651 133.166066 245.6845 133.166066 
Q 244.071692 133.166066 242.967793 134.113327 
Q 241.863894 135.058611 241.863894 136.93138 
Q 241.863894 138.549041 242.772838 139.565518 
Q 243.684315 140.581994 245.740201 140.581994 
Q 247.31503 140.581994 248.348037 139.870065 
Q 249.381043 139.156159 249.40383 137.560251 
L 245.76552 137.560251 
L 245.76552 136.541797 
L 250.867257 136.541797 
L 250.867257 141.398735 
L 249.854505 141.398735 
L 249.474723 140.229985 
Q 248.677181 140.916205 248.059402 141.183179 
Q 247.021332 141.64 245.423716 141.64 
Q 243.360234 141.64 241.871489 140.595837 
Q 240.248555 139.284701 240.248555 136.998618 
Q 240.248555 134.718467 241.830979 133.371735 
Q 243.334916 132.086307 245.72501 132.086307 
z
M 245.464226 132.072464 
L 245.464226 132.072464 
z
" style="fill:#ffa600;"/>
   </g>
   <g id="patch_56">
    <path clip-path="url(#p2acc8be979)" d="M 245.831718 113.112542 
Q 248.105664 113.112542 249.359985 114.916381 
Q 250.614306 116.716299 250.752516 119.006391 
L 249.172228 119.006391 
Q 248.903631 117.269215 248.100448 116.253575 
Q 247.297266 115.234014 245.847364 115.234014 
Q 244.079319 115.234014 242.991893 117.104517 
Q 241.904467 118.971099 241.904467 122.829747 
Q 241.904467 125.994309 242.884976 127.962847 
Q 243.868093 129.927464 245.816071 129.927464 
Q 247.607586 129.927464 248.546371 127.856969 
Q 249.041841 126.766823 249.286968 124.986512 
L 250.867257 124.986512 
Q 250.65603 127.82952 249.466902 129.754922 
Q 248.040471 132.072464 245.620491 132.072464 
Q 243.534302 132.072464 242.115694 130.17059 
Q 240.248555 127.6609 240.248555 122.41408 
Q 240.248555 118.433868 241.651517 115.884965 
Q 243.166611 113.112542 245.831718 113.112542 
z
M 245.505751 113.112542 
L 245.505751 113.112542 
z
" style="fill:#0000ff;"/>
   </g>
   <g id="patch_57">
    <path clip-path="url(#p2acc8be979)" d="M 247.37607 104.913816 
L 245.569569 96.07436 
L 243.649027 104.913816 
L 247.37607 104.913816 
z
M 244.727226 93.101723 
L 246.549278 93.101723 
L 250.867257 113.112542 
L 249.099633 113.112542 
L 247.894435 107.119321 
L 243.187683 107.119321 
L 241.899546 113.112542 
L 240.248555 113.112542 
L 244.727226 93.101723 
z
M 245.561793 93.101723 
L 245.561793 93.101723 
z
" style="fill:#008000;"/>
   </g>
   <g id="patch_58">
    <path clip-path="url(#p2acc8be979)" d="M 250.867257 28.8 
L 250.867257 36.461303 
L 246.457288 36.461303 
L 246.457288 93.101723 
L 244.658523 93.101723 
L 244.658523 36.461303 
L 240.248555 36.461303 
L 240.248555 28.8 
L 250.867257 28.8 
z
" style="fill:#ff0000;"/>
   </g>
   <g id="patch_59">
    <path clip-path="url(#p2acc8be979)" d="M 256.902591 129.987555 
Q 258.540717 129.987555 259.735764 130.590559 
Q 261.467569 131.456473 261.854947 133.627286 
L 260.297841 133.627286 
Q 260.011739 132.414043 259.117985 131.859279 
Q 258.224232 131.304516 256.862081 131.304516 
Q 255.249274 131.304516 254.145374 132.459871 
Q 253.041475 133.612814 253.041475 135.896992 
Q 253.041475 137.870021 253.950419 139.109796 
Q 254.861896 140.349572 256.917782 140.349572 
Q 258.492611 140.349572 259.525618 139.481247 
Q 260.558625 138.610509 260.581411 136.664013 
L 256.943101 136.664013 
L 256.943101 135.421825 
L 262.044838 135.421825 
L 262.044838 141.345734 
L 261.032086 141.345734 
L 260.652304 139.920233 
Q 259.854762 140.757203 259.236984 141.082825 
Q 258.198913 141.64 256.601297 141.64 
Q 254.537815 141.64 253.04907 140.366456 
Q 251.426136 138.76729 251.426136 135.979001 
Q 251.426136 133.197947 253.00856 131.555365 
Q 254.512497 129.987555 256.902591 129.987555 
z
M 256.641807 129.970671 
L 256.641807 129.970671 
z
" style="fill:#ffa600;"/>
   </g>
   <g id="patch_60">
    <path clip-path="url(#p2acc8be979)" d="M 257.009299 102.603578 
Q 259.283245 102.603578 260.537566 105.207272 
Q 261.791887 107.805307 261.930097 111.110867 
L 260.349809 111.110867 
Q 260.081212 108.603396 259.27803 107.137402 
Q 258.474847 105.665749 257.024945 105.665749 
Q 255.2569 105.665749 254.169474 108.365667 
Q 253.082048 111.059925 253.082048 116.629567 
Q 253.082048 121.197353 254.062557 124.038776 
Q 255.045674 126.874539 256.993653 126.874539 
Q 258.785167 126.874539 259.723952 123.88595 
Q 260.219422 122.312413 260.46455 119.74268 
L 262.044838 119.74268 
Q 261.833611 123.846329 260.644483 126.62549 
Q 259.218052 129.970671 256.798072 129.970671 
Q 254.711883 129.970671 253.293275 127.225472 
Q 251.426136 123.60294 251.426136 116.029585 
Q 251.426136 110.284477 252.829098 106.605343 
Q 254.344193 102.603578 257.009299 102.603578 
z
M 256.683332 102.603578 
L 256.683332 102.603578 
z
" style="fill:#0000ff;"/>
   </g>
   <g id="patch_61">
    <path clip-path="url(#p2acc8be979)" d="M 262.044838 69.347086 
L 262.044838 73.309469 
L 257.634869 73.309469 
L 257.634869 102.603578 
L 255.836104 102.603578 
L 255.836104 73.309469 
L 251.426136 73.309469 
L 251.426136 69.347086 
L 262.044838 69.347086 
z
" style="fill:#ff0000;"/>
   </g>
   <g id="patch_62">
    <path clip-path="url(#p2acc8be979)" d="M 258.553651 52.73435 
L 256.74715 34.823331 
L 254.826609 52.73435 
L 258.553651 52.73435 
z
M 255.904807 28.8 
L 257.726859 28.8 
L 262.044838 69.347086 
L 260.277214 69.347086 
L 259.072016 57.203273 
L 254.365264 57.203273 
L 253.077127 69.347086 
L 251.426136 69.347086 
L 255.904807 28.8 
z
M 256.739374 28.8 
L 256.739374 28.8 
z
" style="fill:#008000;"/>
   </g>
   <g id="patch_63">
    <path clip-path="url(#p2acc8be979)" d="M 268.080172 135.234435 
Q 269.718298 135.234435 270.913345 135.565917 
Q 272.64515 136.041926 273.032528 137.235262 
L 271.475422 137.235262 
Q 271.18932 136.56832 270.295566 136.263356 
Q 269.401813 135.958392 268.039662 135.958392 
Q 266.426855 135.958392 265.322955 136.593512 
Q 264.219056 137.227307 264.219056 138.482962 
Q 264.219056 139.567572 265.128001 140.2491 
Q 266.039477 140.930628 268.095363 140.930628 
Q 269.670192 140.930628 270.703199 140.453293 
Q 271.736206 139.974633 271.758993 138.904608 
L 268.120682 138.904608 
L 268.120682 138.221754 
L 273.222419 138.221754 
L 273.222419 141.478237 
L 272.209667 141.478237 
L 271.829885 140.694612 
Q 271.032343 141.15471 270.414565 141.33371 
Q 269.376494 141.64 267.778878 141.64 
Q 265.715397 141.64 264.226651 140.939909 
Q 262.603717 140.060818 262.603717 138.528044 
Q 262.603717 136.999247 264.186141 136.096289 
Q 265.690078 135.234435 268.080172 135.234435 
z
M 267.819388 135.225153 
L 267.819388 135.225153 
z
" style="fill:#ffa600;"/>
   </g>
   <g id="patch_64">
    <path clip-path="url(#p2acc8be979)" d="M 269.731232 131.735761 
L 267.924731 127.973673 
L 266.00419 131.735761 
L 269.731232 131.735761 
z
M 267.082388 126.708514 
L 268.90444 126.708514 
L 273.222419 135.225153 
L 271.454795 135.225153 
L 270.249597 132.674428 
L 265.542845 132.674428 
L 264.254709 135.225153 
L 262.603717 135.225153 
L 267.082388 126.708514 
z
M 267.916956 126.708514 
L 267.916956 126.708514 
z
" style="fill:#008000;"/>
   </g>
   <g id="patch_65">
    <path clip-path="url(#p2acc8be979)" d="M 273.222419 105.603011 
L 273.222419 108.117651 
L 268.812451 108.117651 
L 268.812451 126.708514 
L 267.013685 126.708514 
L 267.013685 108.117651 
L 262.603717 108.117651 
L 262.603717 105.603011 
L 273.222419 105.603011 
z
" style="fill:#ff0000;"/>
   </g>
   <g id="patch_66">
    <path clip-path="url(#p2acc8be979)" d="M 268.18688 28.8 
Q 270.460826 28.8 271.715147 36.107008 
Q 272.969468 43.398132 273.107678 52.674855 
L 271.52739 52.674855 
Q 271.258793 45.637889 270.455611 41.523725 
Q 269.652428 37.393677 268.202527 37.393677 
Q 266.434481 37.393677 265.347055 44.970727 
Q 264.259629 52.531892 264.259629 68.162536 
Q 264.259629 80.98157 265.240138 88.95574 
Q 266.223255 96.914025 268.171234 96.914025 
Q 269.962749 96.914025 270.901534 88.526851 
Q 271.397003 84.110876 271.642131 76.899176 
L 273.222419 76.899176 
Q 273.011192 88.415657 271.822065 96.215094 
Q 270.395633 105.603011 267.975654 105.603011 
Q 265.889465 105.603011 264.470856 97.898883 
Q 262.603717 87.73261 262.603717 66.478747 
Q 262.603717 50.355675 264.006679 40.030554 
Q 265.521774 28.8 268.18688 28.8 
z
M 267.860913 28.8 
L 267.860913 28.8 
z
" style="fill:#0000ff;"/>
   </g>
   <g id="patch_67">
    <path clip-path="url(#p2acc8be979)" d="M 280.908813 138.581176 
L 279.102312 135.283304 
L 277.181771 138.581176 
L 280.908813 138.581176 
z
M 278.259969 134.174257 
L 280.082022 134.174257 
L 284.4 141.64 
L 282.632376 141.64 
L 281.427178 139.404017 
L 276.720426 139.404017 
L 275.43229 141.64 
L 273.781298 141.64 
L 278.259969 134.174257 
z
M 279.094537 134.174257 
L 279.094537 134.174257 
z
" style="fill:#008000;"/>
   </g>
   <g id="patch_68">
    <path clip-path="url(#p2acc8be979)" d="M 279.257753 126.719316 
Q 280.895879 126.719316 282.090926 127.105102 
Q 283.822732 127.659092 284.210109 129.047924 
L 282.653003 129.047924 
Q 282.366901 128.271721 281.473147 127.916798 
Q 280.579394 127.561874 279.217243 127.561874 
Q 277.604436 127.561874 276.500536 128.301041 
Q 275.396637 129.038665 275.396637 130.500025 
Q 275.396637 131.762319 276.305582 132.555496 
Q 277.217058 133.348673 279.272944 133.348673 
Q 280.847773 133.348673 281.88078 132.793141 
Q 282.913787 132.236065 282.936574 130.990746 
L 279.298263 130.990746 
L 279.298263 130.196025 
L 284.4 130.196025 
L 284.4 133.985993 
L 283.387248 133.985993 
L 283.007466 133.073993 
Q 282.209924 133.609465 281.592146 133.81779 
Q 280.554075 134.174257 278.956459 134.174257 
Q 276.892978 134.174257 275.404233 133.359475 
Q 273.781298 132.336369 273.781298 130.552492 
Q 273.781298 128.773244 275.363723 127.722361 
Q 276.867659 126.719316 279.257753 126.719316 
z
M 278.996969 126.708514 
L 278.996969 126.708514 
z
" style="fill:#ffa600;"/>
   </g>
   <g id="patch_69">
    <path clip-path="url(#p2acc8be979)" d="M 279.364461 93.014148 
Q 281.638407 93.014148 282.892728 96.219817 
Q 284.14705 99.418517 284.28526 103.488322 
L 282.704971 103.488322 
Q 282.436375 100.401124 281.633192 98.596193 
Q 280.830009 96.784293 279.380108 96.784293 
Q 277.612063 96.784293 276.524636 100.108432 
Q 275.43721 103.425603 275.43721 110.282946 
Q 275.43721 115.906804 276.417719 119.405164 
Q 277.400836 122.896556 279.348815 122.896556 
Q 281.14033 122.896556 282.079115 119.217005 
Q 282.574585 117.279667 282.819712 114.115811 
L 284.4 114.115811 
Q 284.188773 119.168223 282.999646 122.589926 
Q 281.573214 126.708514 279.153235 126.708514 
Q 277.067046 126.708514 275.648437 123.328624 
Q 273.781298 118.868563 273.781298 109.544249 
Q 273.781298 102.470871 275.18426 97.941122 
Q 276.699355 93.014148 279.364461 93.014148 
z
M 279.038494 93.014148 
L 279.038494 93.014148 
z
" style="fill:#0000ff;"/>
   </g>
   <g id="patch_70">
    <path clip-path="url(#p2acc8be979)" d="M 284.4 28.8 
L 284.4 36.450869 
L 279.990032 36.450869 
L 279.990032 93.014148 
L 278.191266 93.014148 
L 278.191266 36.450869 
L 273.781298 36.450869 
L 273.781298 28.8 
L 284.4 28.8 
z
" style="fill:#ff0000;"/>
   </g>
   <g id="matplotlib.axis_1">
    <g id="xtick_1">
     <g id="text_1">
      <!-- 0 -->
      <g style="fill:#262626;" transform="translate(94.688414 162.986875)scale(0.2 -0.2)">
       <defs>
        <path d="M 1731 4475 
Q 2600 4475 2988 3759 
Q 3288 3206 3288 2244 
Q 3288 1331 3016 734 
Q 2622 -122 1728 -122 
Q 922 -122 528 578 
Q 200 1163 200 2147 
Q 200 2909 397 3456 
Q 766 4475 1731 4475 
z
M 1725 391 
Q 2163 391 2422 778 
Q 2681 1166 2681 2222 
Q 2681 2984 2493 3476 
Q 2306 3969 1766 3969 
Q 1269 3969 1039 3501 
Q 809 3034 809 2125 
Q 809 1441 956 1025 
Q 1181 391 1725 391 
z
" id="Helvetica-30" transform="scale(0.015625)"/>
       </defs>
       <use xlink:href="#Helvetica-30"/>
      </g>
     </g>
    </g>
    <g id="xtick_2">
     <g id="text_2">
      <!-- 10 -->
      <g style="fill:#262626;" transform="translate(200.903287 162.986875)scale(0.2 -0.2)">
       <defs>
        <path d="M 613 3169 
L 613 3600 
Q 1222 3659 1462 3798 
Q 1703 3938 1822 4456 
L 2266 4456 
L 2266 0 
L 1666 0 
L 1666 3169 
L 613 3169 
z
" id="Helvetica-31" transform="scale(0.015625)"/>
       </defs>
       <use xlink:href="#Helvetica-31"/>
       <use x="55.615234" xlink:href="#Helvetica-30"/>
      </g>
     </g>
    </g>
    <g id="text_3">
     <!-- Position -->
     <g style="fill:#262626;" transform="translate(145.20125 189.089219)scale(0.25 -0.25)">
      <defs>
       <path d="M 547 4591 
L 2613 4591 
Q 3225 4591 3600 4245 
Q 3975 3900 3975 3275 
Q 3975 2738 3640 2339 
Q 3306 1941 2613 1941 
L 1169 1941 
L 1169 0 
L 547 0 
L 547 4591 
z
M 3347 3272 
Q 3347 3778 2972 3959 
Q 2766 4056 2406 4056 
L 1169 4056 
L 1169 2466 
L 2406 2466 
Q 2825 2466 3086 2644 
Q 3347 2822 3347 3272 
z
" id="Helvetica-50" transform="scale(0.015625)"/>
       <path d="M 1741 363 
Q 2300 363 2508 786 
Q 2716 1209 2716 1728 
Q 2716 2197 2566 2491 
Q 2328 2953 1747 2953 
Q 1231 2953 997 2559 
Q 763 2166 763 1609 
Q 763 1075 997 719 
Q 1231 363 1741 363 
z
M 1763 3444 
Q 2409 3444 2856 3012 
Q 3303 2581 3303 1744 
Q 3303 934 2909 406 
Q 2516 -122 1688 -122 
Q 997 -122 590 345 
Q 184 813 184 1600 
Q 184 2444 612 2944 
Q 1041 3444 1763 3444 
z
M 1744 3428 
L 1744 3428 
z
" id="Helvetica-6f" transform="scale(0.015625)"/>
       <path d="M 747 1050 
Q 772 769 888 619 
Q 1100 347 1625 347 
Q 1938 347 2175 483 
Q 2413 619 2413 903 
Q 2413 1119 2222 1231 
Q 2100 1300 1741 1391 
L 1294 1503 
Q 866 1609 663 1741 
Q 300 1969 300 2372 
Q 300 2847 642 3140 
Q 984 3434 1563 3434 
Q 2319 3434 2653 2991 
Q 2863 2709 2856 2384 
L 2325 2384 
Q 2309 2575 2191 2731 
Q 1997 2953 1519 2953 
Q 1200 2953 1036 2831 
Q 872 2709 872 2509 
Q 872 2291 1088 2159 
Q 1213 2081 1456 2022 
L 1828 1931 
Q 2434 1784 2641 1647 
Q 2969 1431 2969 969 
Q 2969 522 2630 197 
Q 2291 -128 1597 -128 
Q 850 -128 539 211 
Q 228 550 206 1050 
L 747 1050 
z
M 1578 3428 
L 1578 3428 
z
" id="Helvetica-73" transform="scale(0.015625)"/>
       <path d="M 413 3331 
L 984 3331 
L 984 0 
L 413 0 
L 413 3331 
z
M 413 4591 
L 984 4591 
L 984 3953 
L 413 3953 
L 413 4591 
z
" id="Helvetica-69" transform="scale(0.015625)"/>
       <path d="M 525 4281 
L 1094 4281 
L 1094 3347 
L 1628 3347 
L 1628 2888 
L 1094 2888 
L 1094 703 
Q 1094 528 1213 469 
Q 1278 434 1431 434 
Q 1472 434 1519 436 
Q 1566 438 1628 444 
L 1628 0 
Q 1531 -28 1426 -40 
Q 1322 -53 1200 -53 
Q 806 -53 665 148 
Q 525 350 525 672 
L 525 2888 
L 72 2888 
L 72 3347 
L 525 3347 
L 525 4281 
z
" id="Helvetica-74" transform="scale(0.015625)"/>
       <path d="M 413 3347 
L 947 3347 
L 947 2872 
Q 1184 3166 1450 3294 
Q 1716 3422 2041 3422 
Q 2753 3422 3003 2925 
Q 3141 2653 3141 2147 
L 3141 0 
L 2569 0 
L 2569 2109 
Q 2569 2416 2478 2603 
Q 2328 2916 1934 2916 
Q 1734 2916 1606 2875 
Q 1375 2806 1200 2600 
Q 1059 2434 1017 2257 
Q 975 2081 975 1753 
L 975 0 
L 413 0 
L 413 3347 
z
M 1734 3428 
L 1734 3428 
z
" id="Helvetica-6e" transform="scale(0.015625)"/>
      </defs>
      <use xlink:href="#Helvetica-50"/>
      <use x="66.699219" xlink:href="#Helvetica-6f"/>
      <use x="122.314453" xlink:href="#Helvetica-73"/>
      <use x="172.314453" xlink:href="#Helvetica-69"/>
      <use x="194.53125" xlink:href="#Helvetica-74"/>
      <use x="222.314453" xlink:href="#Helvetica-69"/>
      <use x="244.53125" xlink:href="#Helvetica-6f"/>
      <use x="300.146484" xlink:href="#Helvetica-6e"/>
     </g>
    </g>
   </g>
   <g id="matplotlib.axis_2">
    <g id="ytick_1">
     <g id="text_4">
      <!-- 0 -->
      <g style="fill:#262626;" transform="translate(76.818125 148.813438)scale(0.2 -0.2)">
       <use xlink:href="#Helvetica-30"/>
      </g>
     </g>
    </g>
    <g id="ytick_2">
     <g id="text_5">
      <!-- 0.25 -->
      <g style="fill:#262626;" transform="translate(49.018125 120.603437)scale(0.2 -0.2)">
       <defs>
        <path d="M 547 681 
L 1200 681 
L 1200 0 
L 547 0 
L 547 681 
z
" id="Helvetica-2e" transform="scale(0.015625)"/>
        <path d="M 200 0 
Q 231 578 439 1006 
Q 647 1434 1250 1784 
L 1850 2131 
Q 2253 2366 2416 2531 
Q 2672 2791 2672 3125 
Q 2672 3516 2437 3745 
Q 2203 3975 1813 3975 
Q 1234 3975 1013 3538 
Q 894 3303 881 2888 
L 309 2888 
Q 319 3472 525 3841 
Q 891 4491 1816 4491 
Q 2584 4491 2939 4075 
Q 3294 3659 3294 3150 
Q 3294 2613 2916 2231 
Q 2697 2009 2131 1694 
L 1703 1456 
Q 1397 1288 1222 1134 
Q 909 863 828 531 
L 3272 531 
L 3272 0 
L 200 0 
z
" id="Helvetica-32" transform="scale(0.015625)"/>
        <path d="M 791 1141 
Q 847 659 1238 475 
Q 1438 381 1700 381 
Q 2200 381 2440 700 
Q 2681 1019 2681 1406 
Q 2681 1875 2395 2131 
Q 2109 2388 1709 2388 
Q 1419 2388 1211 2275 
Q 1003 2163 856 1963 
L 369 1991 
L 709 4400 
L 3034 4400 
L 3034 3856 
L 1131 3856 
L 941 2613 
Q 1097 2731 1238 2791 
Q 1488 2894 1816 2894 
Q 2431 2894 2859 2497 
Q 3288 2100 3288 1491 
Q 3288 856 2895 371 
Q 2503 -113 1644 -113 
Q 1097 -113 676 195 
Q 256 503 206 1141 
L 791 1141 
z
" id="Helvetica-35" transform="scale(0.015625)"/>
       </defs>
       <use xlink:href="#Helvetica-30"/>
       <use x="55.615234" xlink:href="#Helvetica-2e"/>
       <use x="83.398438" xlink:href="#Helvetica-32"/>
       <use x="139.013672" xlink:href="#Helvetica-35"/>
      </g>
     </g>
    </g>
    <g id="ytick_3">
     <g id="text_6">
      <!-- 0.50 -->
      <g style="fill:#262626;" transform="translate(49.018125 92.393438)scale(0.2 -0.2)">
       <use xlink:href="#Helvetica-30"/>
       <use x="55.615234" xlink:href="#Helvetica-2e"/>
       <use x="83.398438" xlink:href="#Helvetica-35"/>
       <use x="139.013672" xlink:href="#Helvetica-30"/>
      </g>
     </g>
    </g>
    <g id="ytick_4">
     <g id="text_7">
      <!-- 0.75 -->
      <g style="fill:#262626;" transform="translate(49.018125 64.183437)scale(0.2 -0.2)">
       <defs>
        <path d="M 3347 4400 
L 3347 3909 
Q 3131 3700 2773 3181 
Q 2416 2663 2141 2063 
Q 1869 1478 1728 997 
Q 1638 688 1494 0 
L 872 0 
Q 1084 1281 1809 2550 
Q 2238 3294 2709 3834 
L 234 3834 
L 234 4400 
L 3347 4400 
z
" id="Helvetica-37" transform="scale(0.015625)"/>
       </defs>
       <use xlink:href="#Helvetica-30"/>
       <use x="55.615234" xlink:href="#Helvetica-2e"/>
       <use x="83.398438" xlink:href="#Helvetica-37"/>
       <use x="139.013672" xlink:href="#Helvetica-35"/>
      </g>
     </g>
    </g>
    <g id="ytick_5">
     <g id="text_8">
      <!-- 1.0 -->
      <g style="fill:#262626;" transform="translate(60.14 35.973437)scale(0.2 -0.2)">
       <use xlink:href="#Helvetica-31"/>
       <use x="55.615234" xlink:href="#Helvetica-2e"/>
       <use x="83.398438" xlink:href="#Helvetica-30"/>
      </g>
     </g>
    </g>
    <g id="text_9">
     <!-- Probability -->
     <g style="fill:#262626;" transform="translate(39.65875 143.579375)rotate(-90)scale(0.25 -0.25)">
      <defs>
       <path d="M 428 3347 
L 963 3347 
L 963 2769 
Q 1028 2938 1284 3180 
Q 1541 3422 1875 3422 
Q 1891 3422 1928 3419 
Q 1966 3416 2056 3406 
L 2056 2813 
Q 2006 2822 1964 2825 
Q 1922 2828 1872 2828 
Q 1447 2828 1219 2554 
Q 991 2281 991 1925 
L 991 0 
L 428 0 
L 428 3347 
z
" id="Helvetica-72" transform="scale(0.015625)"/>
       <path d="M 369 4606 
L 916 4606 
L 916 2941 
Q 1100 3181 1356 3307 
Q 1613 3434 1913 3434 
Q 2538 3434 2927 3004 
Q 3316 2575 3316 1738 
Q 3316 944 2931 419 
Q 2547 -106 1866 -106 
Q 1484 -106 1222 78 
Q 1066 188 888 428 
L 888 0 
L 369 0 
L 369 4606 
z
M 1831 391 
Q 2288 391 2514 753 
Q 2741 1116 2741 1709 
Q 2741 2238 2514 2584 
Q 2288 2931 1847 2931 
Q 1463 2931 1173 2647 
Q 884 2363 884 1709 
Q 884 1238 1003 944 
Q 1225 391 1831 391 
z
" id="Helvetica-62" transform="scale(0.015625)"/>
       <path d="M 844 891 
Q 844 647 1022 506 
Q 1200 366 1444 366 
Q 1741 366 2019 503 
Q 2488 731 2488 1250 
L 2488 1703 
Q 2384 1638 2221 1594 
Q 2059 1550 1903 1531 
L 1563 1488 
Q 1256 1447 1103 1359 
Q 844 1213 844 891 
z
M 2206 2028 
Q 2400 2053 2466 2191 
Q 2503 2266 2503 2406 
Q 2503 2694 2298 2823 
Q 2094 2953 1713 2953 
Q 1272 2953 1088 2716 
Q 984 2584 953 2325 
L 428 2325 
Q 444 2944 830 3186 
Q 1216 3428 1725 3428 
Q 2316 3428 2684 3203 
Q 3050 2978 3050 2503 
L 3050 575 
Q 3050 488 3086 434 
Q 3122 381 3238 381 
Q 3275 381 3322 386 
Q 3369 391 3422 400 
L 3422 -16 
Q 3291 -53 3222 -62 
Q 3153 -72 3034 -72 
Q 2744 -72 2613 134 
Q 2544 244 2516 444 
Q 2344 219 2022 53 
Q 1700 -113 1313 -113 
Q 847 -113 551 170 
Q 256 453 256 878 
Q 256 1344 547 1600 
Q 838 1856 1309 1916 
L 2206 2028 
z
M 1741 3428 
L 1741 3428 
z
" id="Helvetica-61" transform="scale(0.015625)"/>
       <path d="M 428 4591 
L 991 4591 
L 991 0 
L 428 0 
L 428 4591 
z
" id="Helvetica-6c" transform="scale(0.015625)"/>
       <path d="M 2503 3347 
L 3125 3347 
Q 3006 3025 2597 1878 
Q 2291 1016 2084 472 
Q 1597 -809 1397 -1090 
Q 1197 -1372 709 -1372 
Q 591 -1372 527 -1362 
Q 463 -1353 369 -1328 
L 369 -816 
Q 516 -856 581 -865 
Q 647 -875 697 -875 
Q 853 -875 926 -823 
Q 1000 -772 1050 -697 
Q 1066 -672 1162 -440 
Q 1259 -209 1303 -97 
L 66 3347 
L 703 3347 
L 1600 622 
L 2503 3347 
z
M 1597 3428 
L 1597 3428 
z
" id="Helvetica-79" transform="scale(0.015625)"/>
      </defs>
      <use xlink:href="#Helvetica-50"/>
      <use x="66.699219" xlink:href="#Helvetica-72"/>
      <use x="100" xlink:href="#Helvetica-6f"/>
      <use x="155.615234" xlink:href="#Helvetica-62"/>
      <use x="211.230469" xlink:href="#Helvetica-61"/>
      <use x="266.845703" xlink:href="#Helvetica-62"/>
      <use x="322.460938" xlink:href="#Helvetica-69"/>
      <use x="344.677734" xlink:href="#Helvetica-6c"/>
      <use x="366.894531" xlink:href="#Helvetica-69"/>
      <use x="389.111328" xlink:href="#Helvetica-74"/>
      <use x="416.894531" xlink:href="#Helvetica-79"/>
     </g>
    </g>
   </g>
   <g id="patch_71">
    <path d="M 94.94 141.64 
L 94.94 28.8 
" style="fill:none;stroke:#000000;stroke-linecap:square;stroke-linejoin:miter;"/>
   </g>
  </g>
 </g>
 <defs>
  <clipPath id="p2acc8be979">
   <rect height="112.84" width="189.46" x="94.94" y="28.8"/>
  </clipPath>
 </defs>
</svg>
