<?xml version="1.0" encoding="utf-8" standalone="no"?>
<!DOCTYPE svg PUBLIC "-//W3C//DTD SVG 1.1//EN"
  "http://www.w3.org/Graphics/SVG/1.1/DTD/svg11.dtd">
<svg height="216pt" version="1.1" viewBox="0 0 306 216" width="306pt" xmlns="http://www.w3.org/2000/svg" xmlns:xlink="http://www.w3.org/1999/xlink">
 <metadata>
  <rdf:RDF xmlns:cc="http://creativecommons.org/ns#" xmlns:dc="http://purl.org/dc/elements/1.1/" xmlns:rdf="http://www.w3.org/1999/02/22-rdf-syntax-ns#">
   <cc:Work>
    <dc:type rdf:resource="http://purl.org/dc/dcmitype/StillImage"/>
    <dc:date>2023-01-27T12:56:16.859188</dc:date>
    <dc:format>image/svg+xml</dc:format>
    <dc:creator>
     <cc:Agent>
      <dc:title>Matplotlib v3.4.2, https://matplotlib.org/</dc:title>
     </cc:Agent>
    </dc:creator>
   </cc:Work>
  </rdf:RDF>
 </metadata>
 <defs>
  <style type="text/css">*{stroke-linecap:butt;stroke-linejoin:round;}</style>
 </defs>
 <g id="figure_1">
  <g id="patch_1">
   <path d="M 0 216 
L 306 216 
L 306 0 
L 0 0 
z
" style="fill:#ffffff;"/>
  </g>
  <g id="axes_1">
   <g id="patch_2">
    <path d="M 94.94 141.64 
L 284.4 141.64 
L 284.4 28.8 
L 94.94 28.8 
z
" style="fill:#ffffff;"/>
   </g>
   <g id="line2d_1">
    <path clip-path="url(#p3fe9135e77)" d="M 94.94 141.64 
L 284.4 141.64 
" style="fill:none;stroke:#000000;stroke-linecap:round;stroke-width:0.5;"/>
   </g>
   <g id="patch_3">
    <path clip-path="url(#p3fe9135e77)" d="M 100.416455 121.785164 
Q 102.054581 121.785164 103.249628 122.812635 
Q 104.981434 124.288082 105.368811 127.986975 
L 103.811705 127.986975 
Q 103.525603 125.919705 102.63185 124.974432 
Q 101.738096 124.029159 100.375945 124.029159 
Q 98.763138 124.029159 97.659238 125.997792 
Q 96.555339 127.962316 96.555339 131.854373 
Q 96.555339 135.216256 97.464284 137.328735 
Q 98.37576 139.441214 100.431646 139.441214 
Q 102.006475 139.441214 103.039482 137.961656 
Q 104.072489 136.477989 104.095276 133.161315 
L 100.456965 133.161315 
L 100.456965 131.044726 
L 105.558702 131.044726 
L 105.558702 141.138595 
L 104.54595 141.138595 
L 104.166168 138.709655 
Q 103.368626 140.135784 102.750848 140.690617 
Q 101.712777 141.64 100.115161 141.64 
Q 98.05168 141.64 96.562935 139.469983 
Q 94.94 136.745132 94.94 131.994109 
Q 94.94 127.255416 96.522425 124.456587 
Q 98.026361 121.785164 100.416455 121.785164 
z
M 100.155671 121.756395 
L 100.155671 121.756395 
z
" style="fill:#ffa600;"/>
   </g>
   <g id="patch_4">
    <path clip-path="url(#p3fe9135e77)" d="M 105.558702 98.750392 
L 105.558702 101.491469 
L 101.148734 101.491469 
L 101.148734 121.756395 
L 99.349968 121.756395 
L 99.349968 101.491469 
L 94.94 101.491469 
L 94.94 98.750392 
L 105.558702 98.750392 
z
" style="fill:#ff0000;"/>
   </g>
   <g id="patch_5">
    <path clip-path="url(#p3fe9135e77)" d="M 100.523163 71.581191 
Q 102.797109 71.581191 104.051431 74.166058 
Q 105.305752 76.745306 105.443962 80.026964 
L 103.863673 80.026964 
Q 103.595077 77.537624 102.791894 76.082232 
Q 101.988711 74.62122 100.53881 74.62122 
Q 98.770765 74.62122 97.683339 77.301615 
Q 96.595913 79.97639 96.595913 85.505758 
Q 96.595913 90.040514 97.576421 92.861391 
Q 98.559538 95.676648 100.507517 95.676648 
Q 102.299032 95.676648 103.237817 92.70967 
Q 103.733287 91.147511 103.978414 88.59636 
L 105.558702 88.59636 
Q 105.347475 92.670335 104.158348 95.4294 
Q 102.731916 98.750392 100.311937 98.750392 
Q 98.225748 98.750392 96.807139 96.025043 
Q 94.94 92.428706 94.94 84.910115 
Q 94.94 79.206549 96.342962 75.55402 
Q 97.858057 71.581191 100.523163 71.581191 
z
M 100.197196 71.581191 
L 100.197196 71.581191 
z
" style="fill:#0000ff;"/>
   </g>
   <g id="patch_6">
    <path clip-path="url(#p3fe9135e77)" d="M 102.067515 54.05311 
L 100.261014 35.155211 
L 98.340473 54.05311 
L 102.067515 54.05311 
z
M 99.418672 28.8 
L 101.240724 28.8 
L 105.558702 71.581191 
L 103.791078 71.581191 
L 102.58588 58.768267 
L 97.879128 58.768267 
L 96.590992 71.581191 
L 94.94 71.581191 
L 99.418672 28.8 
z
M 100.253239 28.8 
L 100.253239 28.8 
z
" style="fill:#008000;"/>
   </g>
   <g id="patch_7">
    <path clip-path="url(#p3fe9135e77)" d="M 111.594036 121.785164 
Q 113.232162 121.785164 114.427209 122.812635 
Q 116.159015 124.288082 116.546392 127.986975 
L 114.989286 127.986975 
Q 114.703184 125.919705 113.809431 124.974432 
Q 112.915677 124.029159 111.553526 124.029159 
Q 109.940719 124.029159 108.83682 125.997792 
Q 107.73292 127.962316 107.73292 131.854373 
Q 107.73292 135.216256 108.641865 137.328735 
Q 109.553341 139.441214 111.609227 139.441214 
Q 113.184056 139.441214 114.217063 137.961656 
Q 115.25007 136.477989 115.272857 133.161315 
L 111.634546 133.161315 
L 111.634546 131.044726 
L 116.736283 131.044726 
L 116.736283 141.138595 
L 115.723531 141.138595 
L 115.34375 138.709655 
Q 114.546208 140.135784 113.928429 140.690617 
Q 112.890358 141.64 111.292743 141.64 
Q 109.229261 141.64 107.740516 139.469983 
Q 106.117581 136.745132 106.117581 131.994109 
Q 106.117581 127.255416 107.700006 124.456587 
Q 109.203942 121.785164 111.594036 121.785164 
z
M 111.333253 121.756395 
L 111.333253 121.756395 
z
" style="fill:#ffa600;"/>
   </g>
   <g id="patch_8">
    <path clip-path="url(#p3fe9135e77)" d="M 116.736283 100.831991 
L 116.736283 103.325053 
L 112.326315 103.325053 
L 112.326315 121.756395 
L 110.527549 121.756395 
L 110.527549 103.325053 
L 106.117581 103.325053 
L 106.117581 100.831991 
L 116.736283 100.831991 
z
" style="fill:#ff0000;"/>
   </g>
   <g id="patch_9">
    <path clip-path="url(#p3fe9135e77)" d="M 111.700744 72.621991 
Q 113.97469 72.621991 115.229012 75.305879 
Q 116.483333 77.983933 116.621543 81.391304 
L 115.041255 81.391304 
Q 114.772658 78.806603 113.969475 77.295457 
Q 113.166292 75.778477 111.716391 75.778477 
Q 109.948346 75.778477 108.86092 78.561552 
Q 107.773494 81.338793 107.773494 87.07998 
Q 107.773494 91.788454 108.754002 94.717393 
Q 109.737119 97.640497 111.685098 97.640497 
Q 113.476613 97.640497 114.415398 94.55986 
Q 114.910868 92.937858 115.155995 90.288977 
L 116.736283 90.288977 
Q 116.525057 94.519019 115.335929 97.383778 
Q 113.909497 100.831991 111.489518 100.831991 
Q 109.403329 100.831991 107.98472 98.002239 
Q 106.117581 94.268133 106.117581 86.461519 
Q 106.117581 80.539461 107.520543 76.74701 
Q 109.035638 72.621991 111.700744 72.621991 
z
M 111.374777 72.621991 
L 111.374777 72.621991 
z
" style="fill:#0000ff;"/>
   </g>
   <g id="patch_10">
    <path clip-path="url(#p3fe9135e77)" d="M 113.245097 54.667479 
L 111.438595 35.309823 
L 109.518054 54.667479 
L 113.245097 54.667479 
z
M 110.596253 28.8 
L 112.418305 28.8 
L 116.736283 72.621991 
L 114.968659 72.621991 
L 113.763461 59.497347 
L 109.056709 59.497347 
L 107.768573 72.621991 
L 106.117581 72.621991 
L 110.596253 28.8 
z
M 111.43082 28.8 
L 111.43082 28.8 
z
" style="fill:#008000;"/>
   </g>
   <g id="patch_11">
    <path clip-path="url(#p3fe9135e77)" d="M 122.771617 120.745871 
Q 124.409743 120.745871 125.60479 121.827124 
Q 127.336596 123.379803 127.723973 127.272313 
L 126.166868 127.272313 
Q 125.880765 125.096832 124.987012 124.102079 
Q 124.093258 123.107327 122.731107 123.107327 
Q 121.1183 123.107327 120.014401 125.179007 
Q 118.910501 127.246363 118.910501 131.342148 
Q 118.910501 134.880007 119.819446 137.103063 
Q 120.730923 139.326119 122.786809 139.326119 
Q 124.361638 139.326119 125.394644 137.769115 
Q 126.427651 136.207786 126.450438 132.717502 
L 122.812127 132.717502 
L 122.812127 130.490121 
L 127.913864 130.490121 
L 127.913864 141.112349 
L 126.901113 141.112349 
L 126.521331 138.556267 
Q 125.723789 140.057046 125.10601 140.640922 
Q 124.06794 141.64 122.470324 141.64 
Q 120.406842 141.64 118.918097 139.356394 
Q 117.295162 136.488912 117.295162 131.489199 
Q 117.295162 126.502461 118.877587 123.557128 
Q 120.381523 120.745871 122.771617 120.745871 
z
M 122.510834 120.715596 
L 122.510834 120.715596 
z
" style="fill:#ffa600;"/>
   </g>
   <g id="patch_12">
    <path clip-path="url(#p3fe9135e77)" d="M 127.913864 97.709593 
L 127.913864 100.450669 
L 123.503896 100.450669 
L 123.503896 120.715596 
L 121.705131 120.715596 
L 121.705131 100.450669 
L 117.295162 100.450669 
L 117.295162 97.709593 
L 127.913864 97.709593 
z
" style="fill:#ff0000;"/>
   </g>
   <g id="patch_13">
    <path clip-path="url(#p3fe9135e77)" d="M 122.878326 69.499593 
Q 125.152272 69.499593 126.406593 72.183481 
Q 127.660914 74.861535 127.799124 78.268906 
L 126.218836 78.268906 
Q 125.950239 75.684205 125.147056 74.173059 
Q 124.343873 72.656079 122.893972 72.656079 
Q 121.125927 72.656079 120.038501 75.439154 
Q 118.951075 78.216395 118.951075 83.957582 
Q 118.951075 88.666056 119.931584 91.594995 
Q 120.9147 94.518099 122.862679 94.518099 
Q 124.654194 94.518099 125.592979 91.437462 
Q 126.088449 89.81546 126.333576 87.166579 
L 127.913864 87.166579 
Q 127.702638 91.396621 126.51351 94.26138 
Q 125.087078 97.709593 122.667099 97.709593 
Q 120.58091 97.709593 119.162301 94.879841 
Q 117.295162 91.145735 117.295162 83.339121 
Q 117.295162 77.417063 118.698124 73.624612 
Q 120.213219 69.499593 122.878326 69.499593 
z
M 122.552359 69.499593 
L 122.552359 69.499593 
z
" style="fill:#0000ff;"/>
   </g>
   <g id="patch_14">
    <path clip-path="url(#p3fe9135e77)" d="M 124.422678 52.824373 
L 122.616176 34.845986 
L 120.695635 52.824373 
L 124.422678 52.824373 
z
M 121.773834 28.8 
L 123.595886 28.8 
L 127.913864 69.499593 
L 126.14624 69.499593 
L 124.941042 57.310105 
L 120.23429 57.310105 
L 118.946154 69.499593 
L 117.295162 69.499593 
L 121.773834 28.8 
z
M 122.608401 28.8 
L 122.608401 28.8 
z
" style="fill:#008000;"/>
   </g>
   <g id="patch_15">
    <path clip-path="url(#p3fe9135e77)" d="M 139.091445 124.878793 
L 139.091445 126.875827 
L 134.681477 126.875827 
L 134.681477 141.64 
L 132.882712 141.64 
L 132.882712 126.875827 
L 128.472743 126.875827 
L 128.472743 124.878793 
L 139.091445 124.878793 
z
" style="fill:#ff0000;"/>
   </g>
   <g id="patch_16">
    <path clip-path="url(#p3fe9135e77)" d="M 133.949198 107.102544 
Q 135.587324 107.102544 136.782371 108.02245 
Q 138.514177 109.343434 138.901554 112.655092 
L 137.344449 112.655092 
Q 137.058346 110.804243 136.164593 109.95793 
Q 135.270839 109.111617 133.908688 109.111617 
Q 132.295881 109.111617 131.191982 110.874156 
Q 130.088082 112.633015 130.088082 116.117616 
Q 130.088082 119.127546 130.997027 121.018871 
Q 131.908504 122.910196 133.96439 122.910196 
Q 135.539219 122.910196 136.572225 121.585532 
Q 137.605232 120.257189 137.628019 117.287735 
L 133.989709 117.287735 
L 133.989709 115.39273 
L 139.091445 115.39273 
L 139.091445 124.429879 
L 138.078694 124.429879 
L 137.698912 122.255223 
Q 136.90137 123.532052 136.283591 124.028801 
Q 135.245521 124.878793 133.647905 124.878793 
Q 131.584423 124.878793 130.095678 122.935953 
Q 128.472743 120.496365 128.472743 116.242723 
Q 128.472743 112.00012 130.055168 109.494298 
Q 131.559104 107.102544 133.949198 107.102544 
z
M 133.688415 107.076787 
L 133.688415 107.076787 
z
" style="fill:#ffa600;"/>
   </g>
   <g id="patch_17">
    <path clip-path="url(#p3fe9135e77)" d="M 135.600259 91.254429 
L 133.793758 74.195555 
L 131.873216 91.254429 
L 135.600259 91.254429 
z
M 132.951415 68.458793 
L 134.773467 68.458793 
L 139.091445 107.076787 
L 137.323822 107.076787 
L 136.118624 95.510736 
L 131.411872 95.510736 
L 130.123735 107.076787 
L 128.472743 107.076787 
L 132.951415 68.458793 
z
M 133.785982 68.458793 
L 133.785982 68.458793 
z
" style="fill:#008000;"/>
   </g>
   <g id="patch_18">
    <path clip-path="url(#p3fe9135e77)" d="M 134.055907 28.8 
Q 136.329853 28.8 137.584174 32.573122 
Q 138.838495 36.338042 138.976705 41.128266 
L 137.396417 41.128266 
Q 137.12782 37.494585 136.324637 35.370154 
Q 135.521454 33.23752 134.071553 33.23752 
Q 132.303508 33.23752 131.216082 37.150083 
Q 130.128656 41.054444 130.128656 49.125644 
Q 130.128656 55.745013 131.109165 59.862637 
Q 132.092281 63.972059 134.04026 63.972059 
Q 135.831775 63.972059 136.77056 59.641171 
Q 137.26603 57.360893 137.511157 53.636986 
L 139.091445 53.636986 
Q 138.880219 59.583754 137.691091 63.611152 
Q 136.264659 68.458793 133.84468 68.458793 
Q 131.758491 68.458793 130.339883 64.48061 
Q 128.472743 59.231049 128.472743 48.256186 
Q 128.472743 39.93071 129.875705 34.599124 
Q 131.3908 28.8 134.055907 28.8 
z
M 133.72994 28.8 
L 133.72994 28.8 
z
" style="fill:#0000ff;"/>
   </g>
   <g id="patch_19">
    <path clip-path="url(#p3fe9135e77)" d="M 150.269027 122.797194 
L 150.269027 125.042242 
L 145.859058 125.042242 
L 145.859058 141.64 
L 144.060293 141.64 
L 144.060293 125.042242 
L 139.650324 125.042242 
L 139.650324 122.797194 
L 150.269027 122.797194 
z
" style="fill:#ff0000;"/>
   </g>
   <g id="patch_20">
    <path clip-path="url(#p3fe9135e77)" d="M 145.12678 93.588717 
Q 146.764906 93.588717 147.959953 95.10023 
Q 149.691758 97.270763 150.079136 102.71221 
L 148.52203 102.71221 
Q 148.235927 99.671046 147.342174 98.280454 
Q 146.448421 96.889862 145.086269 96.889862 
Q 143.473462 96.889862 142.369563 99.785921 
Q 141.265664 102.675934 141.265664 108.401545 
Q 141.265664 113.347215 142.174608 116.454886 
Q 143.086085 119.562557 145.141971 119.562557 
Q 146.7168 119.562557 147.749807 117.385978 
Q 148.782813 115.203353 148.8056 110.324189 
L 145.16729 110.324189 
L 145.16729 107.210473 
L 150.269027 107.210473 
L 150.269027 122.059576 
L 149.256275 122.059576 
L 148.876493 118.486359 
Q 148.078951 120.584339 147.461172 121.400556 
Q 146.423102 122.797194 144.825486 122.797194 
Q 142.762004 122.797194 141.273259 119.604879 
Q 139.650324 115.596347 139.650324 108.607111 
Q 139.650324 101.636013 141.232749 97.518651 
Q 142.736685 93.588717 145.12678 93.588717 
z
M 144.865996 93.546395 
L 144.865996 93.546395 
z
" style="fill:#ffa600;"/>
   </g>
   <g id="patch_21">
    <path clip-path="url(#p3fe9135e77)" d="M 146.77784 81.135483 
L 144.971339 67.754659 
L 143.050797 81.135483 
L 146.77784 81.135483 
z
M 144.128996 63.254796 
L 145.951048 63.254796 
L 150.269027 93.546395 
L 148.501403 93.546395 
L 147.296205 84.474091 
L 142.589453 84.474091 
L 141.301316 93.546395 
L 139.650324 93.546395 
L 144.128996 63.254796 
z
M 144.963563 63.254796 
L 144.963563 63.254796 
z
" style="fill:#008000;"/>
   </g>
   <g id="patch_22">
    <path clip-path="url(#p3fe9135e77)" d="M 145.233488 28.8 
Q 147.507434 28.8 148.761755 32.078016 
Q 150.016076 35.348905 150.154286 39.51056 
L 148.573998 39.51056 
Q 148.305401 36.353689 147.502218 34.508023 
Q 146.699036 32.655232 145.249134 32.655232 
Q 143.481089 32.655232 142.393663 36.054391 
Q 141.306237 39.446425 141.306237 46.458528 
Q 141.306237 52.209308 142.286746 55.786621 
Q 143.269862 59.356808 145.217841 59.356808 
Q 147.009356 59.356808 147.948141 55.594216 
Q 148.443611 53.613154 148.688738 50.377895 
L 150.269027 50.377895 
Q 150.0578 55.544333 148.868672 59.043259 
Q 147.44224 63.254796 145.022261 63.254796 
Q 142.936072 63.254796 141.517464 59.798627 
Q 139.650324 55.23791 139.650324 45.70316 
Q 139.650324 38.470147 141.053287 33.838168 
Q 142.568381 28.8 145.233488 28.8 
z
M 144.907521 28.8 
L 144.907521 28.8 
z
" style="fill:#0000ff;"/>
   </g>
   <g id="patch_23">
    <path clip-path="url(#p3fe9135e77)" d="M 161.446608 124.878793 
L 161.446608 126.875827 
L 157.036639 126.875827 
L 157.036639 141.64 
L 155.237874 141.64 
L 155.237874 126.875827 
L 150.827906 126.875827 
L 150.827906 124.878793 
L 161.446608 124.878793 
z
" style="fill:#ff0000;"/>
   </g>
   <g id="patch_24">
    <path clip-path="url(#p3fe9135e77)" d="M 156.304361 101.906077 
Q 157.942487 101.906077 159.137534 103.094895 
Q 160.869339 104.802037 161.256717 109.081782 
L 159.699611 109.081782 
Q 159.413509 106.68988 158.519755 105.596168 
Q 157.626002 104.502455 156.263851 104.502455 
Q 154.651043 104.502455 153.547144 106.78023 
Q 152.443245 109.05325 152.443245 113.556492 
Q 152.443245 117.446304 153.352189 119.890514 
Q 154.263666 122.334723 156.319552 122.334723 
Q 157.894381 122.334723 158.927388 120.622825 
Q 159.960394 118.906172 159.983181 115.068668 
L 156.344871 115.068668 
L 156.344871 112.619704 
L 161.446608 112.619704 
L 161.446608 124.29865 
L 160.433856 124.29865 
L 160.054074 121.488285 
Q 159.256532 123.138364 158.638753 123.780326 
Q 157.600683 124.878793 156.003067 124.878793 
Q 153.939585 124.878793 152.45084 122.36801 
Q 150.827906 119.215265 150.827906 113.718171 
Q 150.827906 108.235343 152.41033 104.997003 
Q 153.914267 101.906077 156.304361 101.906077 
z
M 156.043577 101.87279 
L 156.043577 101.87279 
z
" style="fill:#ffa600;"/>
   </g>
   <g id="patch_25">
    <path clip-path="url(#p3fe9135e77)" d="M 157.955421 87.756155 
L 156.14892 72.536306 
L 154.228378 87.756155 
L 157.955421 87.756155 
z
M 155.306577 67.417994 
L 157.128629 67.417994 
L 161.446608 101.87279 
L 159.678984 101.87279 
L 158.473786 91.553612 
L 153.767034 91.553612 
L 152.478897 101.87279 
L 150.827906 101.87279 
L 155.306577 67.417994 
z
M 156.141144 67.417994 
L 156.141144 67.417994 
z
" style="fill:#008000;"/>
   </g>
   <g id="patch_26">
    <path clip-path="url(#p3fe9135e77)" d="M 156.411069 28.8 
Q 158.685015 28.8 159.939336 32.474101 
Q 161.193657 36.140214 161.331867 40.804725 
L 159.751579 40.804725 
Q 159.482982 37.266406 158.679799 35.197728 
Q 157.876617 33.121062 156.426715 33.121062 
Q 154.65867 33.121062 153.571244 36.930945 
Q 152.483818 40.73284 152.483818 48.592221 
Q 152.483818 55.037872 153.464327 59.047434 
Q 154.447444 63.049009 156.395423 63.049009 
Q 158.186937 63.049009 159.125722 58.83178 
Q 159.621192 56.611345 159.866319 52.985168 
L 161.446608 52.985168 
Q 161.235381 58.77587 160.046253 62.697573 
Q 158.619822 67.417994 156.199842 67.417994 
Q 154.113653 67.417994 152.695045 63.544214 
Q 150.827906 58.432421 150.827906 47.74558 
Q 150.827906 39.638597 152.230868 34.446933 
Q 153.745962 28.8 156.411069 28.8 
z
M 156.085102 28.8 
L 156.085102 28.8 
z
" style="fill:#0000ff;"/>
   </g>
   <g id="patch_27">
    <path clip-path="url(#p3fe9135e77)" d="M 172.624189 124.878793 
L 172.624189 126.875827 
L 168.21422 126.875827 
L 168.21422 141.64 
L 166.415455 141.64 
L 166.415455 126.875827 
L 162.005487 126.875827 
L 162.005487 124.878793 
L 172.624189 124.878793 
z
" style="fill:#ff0000;"/>
   </g>
   <g id="patch_28">
    <path clip-path="url(#p3fe9135e77)" d="M 167.481942 101.906077 
Q 169.120068 101.906077 170.315115 103.094895 
Q 172.04692 104.802037 172.434298 109.081782 
L 170.877192 109.081782 
Q 170.59109 106.68988 169.697336 105.596168 
Q 168.803583 104.502455 167.441432 104.502455 
Q 165.828625 104.502455 164.724725 106.78023 
Q 163.620826 109.05325 163.620826 113.556492 
Q 163.620826 117.446304 164.52977 119.890514 
Q 165.441247 122.334723 167.497133 122.334723 
Q 169.071962 122.334723 170.104969 120.622825 
Q 171.137976 118.906172 171.160763 115.068668 
L 167.522452 115.068668 
L 167.522452 112.619704 
L 172.624189 112.619704 
L 172.624189 124.29865 
L 171.611437 124.29865 
L 171.231655 121.488285 
Q 170.434113 123.138364 169.816335 123.780326 
Q 168.778264 124.878793 167.180648 124.878793 
Q 165.117166 124.878793 163.628421 122.36801 
Q 162.005487 119.215265 162.005487 113.718171 
Q 162.005487 108.235343 163.587911 104.997003 
Q 165.091848 101.906077 167.481942 101.906077 
z
M 167.221158 101.87279 
L 167.221158 101.87279 
z
" style="fill:#ffa600;"/>
   </g>
   <g id="patch_29">
    <path clip-path="url(#p3fe9135e77)" d="M 169.133002 90.31474 
L 167.326501 77.853428 
L 165.40596 90.31474 
L 169.133002 90.31474 
z
M 166.484158 73.66279 
L 168.30621 73.66279 
L 172.624189 101.87279 
L 170.856565 101.87279 
L 169.651367 93.423923 
L 164.944615 93.423923 
L 163.656478 101.87279 
L 162.005487 101.87279 
L 166.484158 73.66279 
z
M 167.318725 73.66279 
L 167.318725 73.66279 
z
" style="fill:#008000;"/>
   </g>
   <g id="patch_30">
    <path clip-path="url(#p3fe9135e77)" d="M 167.58865 28.8 
Q 169.862596 28.8 171.116917 33.068228 
Q 172.371238 37.327178 172.509448 42.745972 
L 170.92916 42.745972 
Q 170.660563 38.635482 169.857381 36.232284 
Q 169.054198 33.819808 167.604296 33.819808 
Q 165.836251 33.819808 164.748825 38.245775 
Q 163.661399 42.662463 163.661399 51.79276 
Q 163.661399 59.280717 164.641908 63.938653 
Q 165.625025 68.58731 167.573004 68.58731 
Q 169.364518 68.58731 170.303304 63.688126 
Q 170.798773 61.108632 171.043901 56.896076 
L 172.624189 56.896076 
Q 172.412962 63.623175 171.223834 68.179045 
Q 169.797403 73.66279 167.377423 73.66279 
Q 165.291234 73.66279 163.872626 69.162593 
Q 162.005487 63.224189 162.005487 50.809212 
Q 162.005487 41.391273 163.408449 35.360081 
Q 164.923544 28.8 167.58865 28.8 
z
M 167.262683 28.8 
L 167.262683 28.8 
z
" style="fill:#0000ff;"/>
   </g>
   <g id="patch_31">
    <path clip-path="url(#p3fe9135e77)" d="M 183.80177 120.715596 
L 183.80177 123.208658 
L 179.391802 123.208658 
L 179.391802 141.64 
L 177.593036 141.64 
L 177.593036 123.208658 
L 173.183068 123.208658 
L 173.183068 120.715596 
L 183.80177 120.715596 
z
" style="fill:#ff0000;"/>
   </g>
   <g id="patch_32">
    <path clip-path="url(#p3fe9135e77)" d="M 178.659523 98.782173 
Q 180.297649 98.782173 181.492696 99.917208 
Q 183.224501 101.547119 183.611879 105.633246 
L 182.054773 105.633246 
Q 181.768671 103.349555 180.874917 102.305323 
Q 179.981164 101.26109 178.619013 101.26109 
Q 177.006206 101.26109 175.902306 103.435818 
Q 174.798407 105.606005 174.798407 109.905519 
Q 174.798407 113.619355 175.707352 115.952987 
Q 176.618828 118.28662 178.674714 118.28662 
Q 180.249543 118.28662 181.28255 116.652169 
Q 182.315557 115.013178 182.338344 111.349284 
L 178.700033 111.349284 
L 178.700033 109.011111 
L 183.80177 109.011111 
L 183.80177 120.161698 
L 182.789018 120.161698 
L 182.409236 117.478475 
Q 181.611694 119.053904 180.993916 119.666823 
Q 179.955845 120.715596 178.358229 120.715596 
Q 176.294748 120.715596 174.806003 118.318401 
Q 173.183068 115.308287 173.183068 110.059884 
Q 173.183068 104.825101 174.765492 101.733265 
Q 176.269429 98.782173 178.659523 98.782173 
z
M 178.398739 98.750392 
L 178.398739 98.750392 
z
" style="fill:#ffa600;"/>
   </g>
   <g id="patch_33">
    <path clip-path="url(#p3fe9135e77)" d="M 180.310583 85.060188 
L 178.504082 70.300095 
L 176.583541 85.060188 
L 180.310583 85.060188 
z
M 177.661739 65.336395 
L 179.483791 65.336395 
L 183.80177 98.750392 
L 182.034146 98.750392 
L 180.828948 88.742933 
L 176.122196 88.742933 
L 174.83406 98.750392 
L 173.183068 98.750392 
L 177.661739 65.336395 
z
M 178.496307 65.336395 
L 178.496307 65.336395 
z
" style="fill:#008000;"/>
   </g>
   <g id="patch_34">
    <path clip-path="url(#p3fe9135e77)" d="M 178.766231 28.8 
Q 181.040177 28.8 182.294498 32.276058 
Q 183.548819 35.74456 183.68703 40.157643 
L 182.106741 40.157643 
Q 181.838145 36.810047 181.034962 34.852875 
Q 180.231779 32.888147 178.781878 32.888147 
Q 177.013832 32.888147 175.926406 36.492668 
Q 174.83898 40.089633 174.83898 47.525375 
Q 174.83898 53.62359 175.819489 57.417028 
Q 176.802606 61.202908 178.750585 61.202908 
Q 180.5421 61.202908 181.480885 57.212998 
Q 181.976355 55.11225 182.221482 51.681531 
L 183.80177 51.681531 
Q 183.590543 57.160101 182.401416 60.870416 
Q 180.974984 65.336395 178.555005 65.336395 
Q 176.468816 65.336395 175.050207 61.671421 
Q 173.183068 56.835166 173.183068 46.72437 
Q 173.183068 39.054372 174.58603 34.14255 
Q 176.101125 28.8 178.766231 28.8 
z
M 178.440264 28.8 
L 178.440264 28.8 
z
" style="fill:#0000ff;"/>
   </g>
   <g id="patch_35">
    <path clip-path="url(#p3fe9135e77)" d="M 194.979351 131.12359 
L 194.979351 132.376579 
L 190.569383 132.376579 
L 190.569383 141.64 
L 188.770617 141.64 
L 188.770617 132.376579 
L 184.360649 132.376579 
L 184.360649 131.12359 
L 194.979351 131.12359 
z
" style="fill:#ff0000;"/>
   </g>
   <g id="patch_36">
    <path clip-path="url(#p3fe9135e77)" d="M 189.837104 106.072286 
Q 191.47523 106.072286 192.670277 107.368669 
Q 194.402083 109.230275 194.78946 113.897254 
L 193.232354 113.897254 
Q 192.946252 111.288931 192.052498 110.096259 
Q 191.158745 108.903587 189.796594 108.903587 
Q 188.183787 108.903587 187.079887 111.387456 
Q 185.975988 113.86614 185.975988 118.776839 
Q 185.975988 123.018604 186.884933 125.683967 
Q 187.796409 128.34933 189.852295 128.34933 
Q 191.427124 128.34933 192.460131 126.482539 
Q 193.493138 124.610562 193.515925 120.425838 
L 189.877614 120.425838 
L 189.877614 117.755289 
L 194.979351 117.755289 
L 194.979351 130.490955 
L 193.966599 130.490955 
L 193.586817 127.426306 
Q 192.789275 129.225685 192.171497 129.925732 
Q 191.133426 131.12359 189.53581 131.12359 
Q 187.472329 131.12359 185.983584 128.385629 
Q 184.360649 124.947621 184.360649 118.953147 
Q 184.360649 112.974229 185.943074 109.442882 
Q 187.44701 106.072286 189.837104 106.072286 
z
M 189.57632 106.035988 
L 189.57632 106.035988 
z
" style="fill:#ffa600;"/>
   </g>
   <g id="patch_37">
    <path clip-path="url(#p3fe9135e77)" d="M 191.488164 95.330799 
L 189.681663 83.789 
L 187.761122 95.330799 
L 191.488164 95.330799 
z
M 188.83932 79.907586 
L 190.661373 79.907586 
L 194.979351 106.035988 
L 193.211727 106.035988 
L 192.006529 98.210557 
L 187.299777 98.210557 
L 186.011641 106.035988 
L 184.360649 106.035988 
L 188.83932 79.907586 
z
M 189.673888 79.907586 
L 189.673888 79.907586 
z
" style="fill:#008000;"/>
   </g>
   <g id="patch_38">
    <path clip-path="url(#p3fe9135e77)" d="M 189.943812 28.8 
Q 192.217758 28.8 193.472079 33.662356 
Q 194.726401 38.514141 194.864611 44.687219 
L 193.284322 44.687219 
Q 193.015726 40.004559 192.212543 37.266841 
Q 191.40936 34.518553 189.959459 34.518553 
Q 188.191414 34.518553 187.103988 39.560605 
Q 186.016561 44.592086 186.016561 54.993299 
Q 186.016561 63.523562 186.99707 68.829872 
Q 187.980187 74.125611 189.928166 74.125611 
Q 191.719681 74.125611 192.658466 68.544473 
Q 193.153936 65.605919 193.399063 60.806985 
L 194.979351 60.806985 
Q 194.768124 68.47048 193.578997 73.660516 
Q 192.152565 79.907586 189.732586 79.907586 
Q 187.646397 79.907586 186.227788 74.780972 
Q 184.360649 68.015956 184.360649 53.872843 
Q 184.360649 43.143949 185.763611 36.273229 
Q 187.278706 28.8 189.943812 28.8 
z
M 189.617845 28.8 
L 189.617845 28.8 
z
" style="fill:#0000ff;"/>
   </g>
   <g id="patch_39">
    <path clip-path="url(#p3fe9135e77)" d="M 206.156932 126.960392 
L 206.156932 128.709411 
L 201.746964 128.709411 
L 201.746964 141.64 
L 199.948198 141.64 
L 199.948198 128.709411 
L 195.53823 128.709411 
L 195.53823 126.960392 
L 206.156932 126.960392 
z
" style="fill:#ff0000;"/>
   </g>
   <g id="patch_40">
    <path clip-path="url(#p3fe9135e77)" d="M 201.014685 95.673328 
Q 202.652811 95.673328 203.847858 97.292406 
Q 205.579664 99.617402 205.967041 105.446083 
L 204.409935 105.446083 
Q 204.123833 102.188498 203.23008 100.698946 
Q 202.336326 99.209394 200.974175 99.209394 
Q 199.361368 99.209394 198.257469 102.311548 
Q 197.153569 105.407225 197.153569 111.540293 
Q 197.153569 116.837916 198.062514 120.166741 
Q 198.97399 123.495565 201.029876 123.495565 
Q 202.604705 123.495565 203.637712 121.164093 
Q 204.670719 118.826144 204.693506 113.59976 
L 201.055195 113.59976 
L 201.055195 110.264459 
L 206.156932 110.264459 
L 206.156932 126.170282 
L 205.14418 126.170282 
L 204.764399 122.342781 
Q 203.966857 124.590062 203.349078 125.464364 
Q 202.311007 126.960392 200.713392 126.960392 
Q 198.64991 126.960392 197.161165 123.540899 
Q 195.53823 119.247104 195.53823 111.760487 
Q 195.53823 104.2933 197.120655 99.882931 
Q 198.624591 95.673328 201.014685 95.673328 
z
M 200.753902 95.627994 
L 200.753902 95.627994 
z
" style="fill:#ffa600;"/>
   </g>
   <g id="patch_41">
    <path clip-path="url(#p3fe9135e77)" d="M 202.665746 81.937789 
L 200.859244 67.177697 
L 198.938703 81.937789 
L 202.665746 81.937789 
z
M 200.016902 62.213997 
L 201.838954 62.213997 
L 206.156932 95.627994 
L 204.389308 95.627994 
L 203.18411 85.620535 
L 198.477358 85.620535 
L 197.189222 95.627994 
L 195.53823 95.627994 
L 200.016902 62.213997 
z
M 200.851469 62.213997 
L 200.851469 62.213997 
z
" style="fill:#008000;"/>
   </g>
   <g id="patch_42">
    <path clip-path="url(#p3fe9135e77)" d="M 201.121393 28.8 
Q 203.395339 28.8 204.649661 31.978995 
Q 205.903982 35.151078 206.042192 39.187019 
L 204.461904 39.187019 
Q 204.193307 36.125509 203.390124 34.335597 
Q 202.586941 32.538774 201.13704 32.538774 
Q 199.368995 32.538774 198.281569 35.835253 
Q 197.194143 39.124821 197.194143 45.925105 
Q 197.194143 51.502168 198.174651 54.971418 
Q 199.157768 58.433758 201.105747 58.433758 
Q 202.897262 58.433758 203.836047 54.784825 
Q 204.331517 52.863606 204.576644 49.726077 
L 206.156932 49.726077 
Q 205.945706 54.736449 204.756578 58.12968 
Q 203.330146 62.213997 200.910167 62.213997 
Q 198.823978 62.213997 197.405369 58.862231 
Q 195.53823 54.439282 195.53823 45.192554 
Q 195.53823 38.178034 196.941192 33.685976 
Q 198.456287 28.8 201.121393 28.8 
z
M 200.795426 28.8 
L 200.795426 28.8 
z
" style="fill:#0000ff;"/>
   </g>
   <g id="patch_43">
    <path clip-path="url(#p3fe9135e77)" d="M 217.334513 125.919593 
L 217.334513 127.792619 
L 212.924545 127.792619 
L 212.924545 141.64 
L 211.12578 141.64 
L 211.12578 127.792619 
L 206.715811 127.792619 
L 206.715811 125.919593 
L 217.334513 125.919593 
z
" style="fill:#ff0000;"/>
   </g>
   <g id="patch_44">
    <path clip-path="url(#p3fe9135e77)" d="M 212.192266 100.868289 
Q 213.830392 100.868289 215.025439 102.164672 
Q 216.757245 104.026278 217.144622 108.693257 
L 215.587517 108.693257 
Q 215.301414 106.084934 214.407661 104.892262 
Q 213.513907 103.69959 212.151756 103.69959 
Q 210.538949 103.69959 209.43505 106.183459 
Q 208.33115 108.662143 208.33115 113.572842 
Q 208.33115 117.814607 209.240095 120.47997 
Q 210.151572 123.145333 212.207458 123.145333 
Q 213.782287 123.145333 214.815293 121.278542 
Q 215.8483 119.406565 215.871087 115.221841 
L 212.232776 115.221841 
L 212.232776 112.551292 
L 217.334513 112.551292 
L 217.334513 125.286958 
L 216.321762 125.286958 
L 215.94198 122.222309 
Q 215.144438 124.021688 214.526659 124.721735 
Q 213.488589 125.919593 211.890973 125.919593 
Q 209.827491 125.919593 208.338746 123.181632 
Q 206.715811 119.743624 206.715811 113.74915 
Q 206.715811 107.770232 208.298236 104.238885 
Q 209.802172 100.868289 212.192266 100.868289 
z
M 211.931483 100.831991 
L 211.931483 100.831991 
z
" style="fill:#ffa600;"/>
   </g>
   <g id="patch_45">
    <path clip-path="url(#p3fe9135e77)" d="M 213.843327 86.715356 
L 212.036825 71.495507 
L 210.116284 86.715356 
L 213.843327 86.715356 
z
M 211.194483 66.377194 
L 213.016535 66.377194 
L 217.334513 100.831991 
L 215.566889 100.831991 
L 214.361691 90.512813 
L 209.654939 90.512813 
L 208.366803 100.831991 
L 206.715811 100.831991 
L 211.194483 66.377194 
z
M 212.02905 66.377194 
L 212.02905 66.377194 
z
" style="fill:#008000;"/>
   </g>
   <g id="patch_46">
    <path clip-path="url(#p3fe9135e77)" d="M 212.298975 28.8 
Q 214.572921 28.8 215.827242 32.37508 
Q 217.081563 35.942387 217.219773 40.481184 
L 215.639485 40.481184 
Q 215.370888 37.038227 214.567705 35.025302 
Q 213.764522 33.004604 212.314621 33.004604 
Q 210.546576 33.004604 209.45915 36.711806 
Q 208.371724 40.411237 208.371724 48.058798 
Q 208.371724 54.330731 209.352233 58.232231 
Q 210.335349 62.125959 212.283328 62.125959 
Q 214.074843 62.125959 215.013628 58.022389 
Q 215.509098 55.861798 215.754225 52.33335 
L 217.334513 52.33335 
Q 217.123287 57.967986 215.934159 61.783994 
Q 214.507727 66.377194 212.087748 66.377194 
Q 210.001559 66.377194 208.58295 62.607817 
Q 206.715811 57.633793 206.715811 47.234975 
Q 206.715811 39.346485 208.118773 34.294742 
Q 209.633868 28.8 212.298975 28.8 
z
M 211.973008 28.8 
L 211.973008 28.8 
z
" style="fill:#0000ff;"/>
   </g>
   <g id="patch_47">
    <path clip-path="url(#p3fe9135e77)" d="M 228.512094 123.837994 
L 228.512094 125.959034 
L 224.102126 125.959034 
L 224.102126 141.64 
L 222.303361 141.64 
L 222.303361 125.959034 
L 217.893392 125.959034 
L 217.893392 123.837994 
L 228.512094 123.837994 
z
" style="fill:#ff0000;"/>
   </g>
   <g id="patch_48">
    <path clip-path="url(#p3fe9135e77)" d="M 225.020908 112.706374 
L 223.214407 100.704819 
L 221.293865 112.706374 
L 225.020908 112.706374 
z
M 222.372064 96.668793 
L 224.194116 96.668793 
L 228.512094 123.837994 
L 226.744471 123.837994 
L 225.539273 115.700845 
L 220.832521 115.700845 
L 219.544384 123.837994 
L 217.893392 123.837994 
L 222.372064 96.668793 
z
M 223.206631 96.668793 
L 223.206631 96.668793 
z
" style="fill:#008000;"/>
   </g>
   <g id="patch_49">
    <path clip-path="url(#p3fe9135e77)" d="M 223.476556 63.254796 
Q 225.750502 63.254796 227.004823 66.433791 
Q 228.259144 69.605875 228.397354 73.641815 
L 226.817066 73.641815 
Q 226.548469 70.580305 225.745286 68.790393 
Q 224.942103 66.99357 223.492202 66.99357 
Q 221.724157 66.99357 220.636731 70.290049 
Q 219.549305 73.579618 219.549305 80.379902 
Q 219.549305 85.956964 220.529814 89.426214 
Q 221.51293 92.888554 223.460909 92.888554 
Q 225.252424 92.888554 226.191209 89.239621 
Q 226.686679 87.318403 226.931806 84.180873 
L 228.512094 84.180873 
Q 228.300868 89.191245 227.11174 92.584476 
Q 225.685308 96.668793 223.265329 96.668793 
Q 221.17914 96.668793 219.760531 93.317027 
Q 217.893392 88.894078 217.893392 79.647351 
Q 217.893392 72.63283 219.296354 68.140773 
Q 220.811449 63.254796 223.476556 63.254796 
z
M 223.150589 63.254796 
L 223.150589 63.254796 
z
" style="fill:#0000ff;"/>
   </g>
   <g id="patch_50">
    <path clip-path="url(#p3fe9135e77)" d="M 223.369847 28.849852 
Q 225.007973 28.849852 226.20302 30.630278 
Q 227.934826 33.186969 228.322203 39.596501 
L 226.765098 39.596501 
Q 226.478995 36.014285 225.585242 34.376293 
Q 224.691488 32.738301 223.329337 32.738301 
Q 221.71653 32.738301 220.612631 36.149597 
Q 219.508731 39.553771 219.508731 46.298023 
Q 219.508731 52.123575 220.417676 55.78413 
Q 221.329153 59.444686 223.385039 59.444686 
Q 224.959868 59.444686 225.992874 56.880873 
Q 227.025881 54.309938 227.048668 48.562724 
L 223.410357 48.562724 
L 223.410357 44.895047 
L 228.512094 44.895047 
L 228.512094 62.385949 
L 227.499343 62.385949 
L 227.119561 58.177022 
Q 226.322019 60.648253 225.70424 61.609683 
Q 224.66617 63.254796 223.068554 63.254796 
Q 221.005072 63.254796 219.516327 59.494537 
Q 217.893392 54.772849 217.893392 46.540161 
Q 217.893392 38.328838 219.475817 33.478958 
Q 220.979753 28.849852 223.369847 28.849852 
z
M 223.109064 28.8 
L 223.109064 28.8 
z
" style="fill:#ffa600;"/>
   </g>
   <g id="patch_51">
    <path clip-path="url(#p3fe9135e77)" d="M 239.689676 125.919593 
L 239.689676 127.792619 
L 235.279707 127.792619 
L 235.279707 141.64 
L 233.480942 141.64 
L 233.480942 127.792619 
L 229.070973 127.792619 
L 229.070973 125.919593 
L 239.689676 125.919593 
z
" style="fill:#ff0000;"/>
   </g>
   <g id="patch_52">
    <path clip-path="url(#p3fe9135e77)" d="M 236.198489 114.787973 
L 234.391988 102.786418 
L 232.471446 114.787973 
L 236.198489 114.787973 
z
M 233.549645 98.750392 
L 235.371697 98.750392 
L 239.689676 125.919593 
L 237.922052 125.919593 
L 236.716854 117.782444 
L 232.010102 117.782444 
L 230.721965 125.919593 
L 229.070973 125.919593 
L 233.549645 98.750392 
z
M 234.384212 98.750392 
L 234.384212 98.750392 
z
" style="fill:#008000;"/>
   </g>
   <g id="patch_53">
    <path clip-path="url(#p3fe9135e77)" d="M 234.547429 67.463328 
Q 236.185554 67.463328 237.380602 69.082406 
Q 239.112407 71.407402 239.499785 77.236083 
L 237.942679 77.236083 
Q 237.656576 73.978498 236.762823 72.488946 
Q 235.86907 70.999394 234.506918 70.999394 
Q 232.894111 70.999394 231.790212 74.101548 
Q 230.686312 77.197225 230.686312 83.330293 
Q 230.686312 88.627916 231.595257 91.956741 
Q 232.506734 95.285565 234.56262 95.285565 
Q 236.137449 95.285565 237.170456 92.954093 
Q 238.203462 90.616144 238.226249 85.38976 
L 234.587939 85.38976 
L 234.587939 82.054459 
L 239.689676 82.054459 
L 239.689676 97.960282 
L 238.676924 97.960282 
L 238.297142 94.132781 
Q 237.4996 96.380062 236.881821 97.254364 
Q 235.843751 98.750392 234.246135 98.750392 
Q 232.182653 98.750392 230.693908 95.330899 
Q 229.070973 91.037104 229.070973 83.550487 
Q 229.070973 76.0833 230.653398 71.672931 
Q 232.157334 67.463328 234.547429 67.463328 
z
M 234.286645 67.417994 
L 234.286645 67.417994 
z
" style="fill:#ffa600;"/>
   </g>
   <g id="patch_54">
    <path clip-path="url(#p3fe9135e77)" d="M 234.654137 28.8 
Q 236.928083 28.8 238.182404 32.474101 
Q 239.436725 36.140214 239.574935 40.804725 
L 237.994647 40.804725 
Q 237.72605 37.266406 236.922867 35.197728 
Q 236.119685 33.121062 234.669783 33.121062 
Q 232.901738 33.121062 231.814312 36.930945 
Q 230.726886 40.73284 230.726886 48.592221 
Q 230.726886 55.037872 231.707395 59.047434 
Q 232.690511 63.049009 234.63849 63.049009 
Q 236.430005 63.049009 237.36879 58.83178 
Q 237.86426 56.611345 238.109387 52.985168 
L 239.689676 52.985168 
Q 239.478449 58.77587 238.289321 62.697573 
Q 236.862889 67.417994 234.44291 67.417994 
Q 232.356721 67.417994 230.938113 63.544214 
Q 229.070973 58.432421 229.070973 47.74558 
Q 229.070973 39.638597 230.473936 34.446933 
Q 231.98903 28.8 234.654137 28.8 
z
M 234.32817 28.8 
L 234.32817 28.8 
z
" style="fill:#0000ff;"/>
   </g>
   <g id="patch_55">
    <path clip-path="url(#p3fe9135e77)" d="M 250.867257 130.08279 
L 250.867257 131.459787 
L 246.457288 131.459787 
L 246.457288 141.64 
L 244.658523 141.64 
L 244.658523 131.459787 
L 240.248555 131.459787 
L 240.248555 130.08279 
L 250.867257 130.08279 
z
" style="fill:#ff0000;"/>
   </g>
   <g id="patch_56">
    <path clip-path="url(#p3fe9135e77)" d="M 247.37607 118.52474 
L 245.569569 106.063428 
L 243.649027 118.52474 
L 247.37607 118.52474 
z
M 244.727226 101.87279 
L 246.549278 101.87279 
L 250.867257 130.08279 
L 249.099633 130.08279 
L 247.894435 121.633923 
L 243.187683 121.633923 
L 241.899546 130.08279 
L 240.248555 130.08279 
L 244.727226 101.87279 
z
M 245.561793 101.87279 
L 245.561793 101.87279 
z
" style="fill:#008000;"/>
   </g>
   <g id="patch_57">
    <path clip-path="url(#p3fe9135e77)" d="M 245.72501 69.546433 
Q 247.363136 69.546433 248.558183 71.219293 
Q 250.289988 73.621521 250.677366 79.643819 
L 249.12026 79.643819 
Q 248.834158 76.278024 247.940404 74.738992 
Q 247.046651 73.19996 245.6845 73.19996 
Q 244.071692 73.19996 242.967793 76.405161 
Q 241.863894 79.60367 241.863894 85.940466 
Q 241.863894 91.414066 242.772838 94.853467 
Q 243.684315 98.292869 245.740201 98.292869 
Q 247.31503 98.292869 248.348037 95.883949 
Q 249.381043 93.468339 249.40383 88.068345 
L 245.76552 88.068345 
L 245.76552 84.622252 
L 250.867257 84.622252 
L 250.867257 101.056434 
L 249.854505 101.056434 
L 249.474723 97.101792 
Q 248.677181 99.423722 248.059402 100.327067 
Q 247.021332 101.87279 245.423716 101.87279 
Q 243.360234 101.87279 241.871489 98.339709 
Q 240.248555 93.903282 240.248555 86.167975 
Q 240.248555 78.452742 241.830979 73.89587 
Q 243.334916 69.546433 245.72501 69.546433 
z
M 245.464226 69.499593 
L 245.464226 69.499593 
z
" style="fill:#ffa600;"/>
   </g>
   <g id="patch_58">
    <path clip-path="url(#p3fe9135e77)" d="M 245.831718 28.8 
Q 248.105664 28.8 249.359985 32.672143 
Q 250.614306 36.535869 250.752516 41.451807 
L 249.172228 41.451807 
Q 248.903631 37.722765 248.100448 35.54258 
Q 247.297266 33.353977 245.847364 33.353977 
Q 244.079319 33.353977 242.991893 37.369221 
Q 241.904467 41.376048 241.904467 49.659067 
Q 241.904467 56.452153 242.884976 60.67784 
Q 243.868093 64.895109 245.816071 64.895109 
Q 247.607586 64.895109 248.546371 60.450562 
Q 249.041841 58.110441 249.286968 54.288804 
L 250.867257 54.288804 
Q 250.65603 60.391638 249.466902 64.52473 
Q 248.040471 69.499593 245.620491 69.499593 
Q 243.534302 69.499593 242.115694 65.417007 
Q 240.248555 60.029677 240.248555 48.766791 
Q 240.248555 40.222823 241.651517 34.751316 
Q 243.166611 28.8 245.831718 28.8 
z
M 245.505751 28.8 
L 245.505751 28.8 
z
" style="fill:#0000ff;"/>
   </g>
   <g id="patch_59">
    <path clip-path="url(#p3fe9135e77)" d="M 262.044838 125.919593 
L 262.044838 127.792619 
L 257.634869 127.792619 
L 257.634869 141.64 
L 255.836104 141.64 
L 255.836104 127.792619 
L 251.426136 127.792619 
L 251.426136 125.919593 
L 262.044838 125.919593 
z
" style="fill:#ff0000;"/>
   </g>
   <g id="patch_60">
    <path clip-path="url(#p3fe9135e77)" d="M 258.553651 114.787973 
L 256.74715 102.786418 
L 254.826609 114.787973 
L 258.553651 114.787973 
z
M 255.904807 98.750392 
L 257.726859 98.750392 
L 262.044838 125.919593 
L 260.277214 125.919593 
L 259.072016 117.782444 
L 254.365264 117.782444 
L 253.077127 125.919593 
L 251.426136 125.919593 
L 255.904807 98.750392 
z
M 256.739374 98.750392 
L 256.739374 98.750392 
z
" style="fill:#008000;"/>
   </g>
   <g id="patch_61">
    <path clip-path="url(#p3fe9135e77)" d="M 256.902591 70.581208 
Q 258.540717 70.581208 259.735764 72.038939 
Q 261.467569 74.13224 261.854947 79.38007 
L 260.297841 79.38007 
Q 260.011739 76.447116 259.117985 75.106004 
Q 258.224232 73.764892 256.862081 73.764892 
Q 255.249274 73.764892 254.145374 76.557903 
Q 253.041475 79.345084 253.041475 84.866967 
Q 253.041475 89.636661 253.950419 92.633755 
Q 254.861896 95.630849 256.917782 95.630849 
Q 258.492611 95.630849 259.525618 93.531717 
Q 260.558625 91.426754 260.581411 86.7212 
L 256.943101 86.7212 
L 256.943101 83.718275 
L 262.044838 83.718275 
L 262.044838 98.03902 
L 261.032086 98.03902 
L 260.652304 94.592945 
Q 259.854762 96.616275 259.236984 97.403449 
Q 258.198913 98.750392 256.601297 98.750392 
Q 254.537815 98.750392 253.04907 95.671665 
Q 251.426136 91.805764 251.426136 85.065218 
Q 251.426136 78.342165 253.00856 74.371308 
Q 254.512497 70.581208 256.902591 70.581208 
z
M 256.641807 70.540392 
L 256.641807 70.540392 
z
" style="fill:#ffa600;"/>
   </g>
   <g id="patch_62">
    <path clip-path="url(#p3fe9135e77)" d="M 257.009299 28.8 
Q 259.283245 28.8 260.537566 32.771164 
Q 261.791887 36.733696 261.930097 41.775348 
L 260.349809 41.775348 
Q 260.081212 37.950944 259.27803 35.715006 
Q 258.474847 33.470435 257.024945 33.470435 
Q 255.2569 33.470435 254.169474 37.58836 
Q 253.082048 41.697652 253.082048 50.19249 
Q 253.082048 57.159294 254.062557 61.493043 
Q 255.045674 65.818159 256.993653 65.818159 
Q 258.785167 65.818159 259.723952 61.259953 
Q 260.219422 58.859989 260.46455 54.940622 
L 262.044838 54.940622 
Q 261.833611 61.199522 260.644483 65.438309 
Q 259.218052 70.540392 256.798072 70.540392 
Q 254.711883 70.540392 253.293275 66.353403 
Q 251.426136 60.828305 251.426136 49.277396 
Q 251.426136 40.514935 252.829098 34.903507 
Q 254.344193 28.8 257.009299 28.8 
z
M 256.683332 28.8 
L 256.683332 28.8 
z
" style="fill:#0000ff;"/>
   </g>
   <g id="patch_63">
    <path clip-path="url(#p3fe9135e77)" d="M 273.222419 123.837994 
L 273.222419 125.959034 
L 268.812451 125.959034 
L 268.812451 141.64 
L 267.013685 141.64 
L 267.013685 125.959034 
L 262.603717 125.959034 
L 262.603717 123.837994 
L 273.222419 123.837994 
z
" style="fill:#ff0000;"/>
   </g>
   <g id="patch_64">
    <path clip-path="url(#p3fe9135e77)" d="M 269.731232 112.706374 
L 267.924731 100.704819 
L 266.00419 112.706374 
L 269.731232 112.706374 
z
M 267.082388 96.668793 
L 268.90444 96.668793 
L 273.222419 123.837994 
L 271.454795 123.837994 
L 270.249597 115.700845 
L 265.542845 115.700845 
L 264.254709 123.837994 
L 262.603717 123.837994 
L 267.082388 96.668793 
z
M 267.916956 96.668793 
L 267.916956 96.668793 
z
" style="fill:#008000;"/>
   </g>
   <g id="patch_65">
    <path clip-path="url(#p3fe9135e77)" d="M 268.18688 69.499593 
Q 270.460826 69.499593 271.715147 72.08446 
Q 272.969468 74.663707 273.107678 77.945365 
L 271.52739 77.945365 
Q 271.258793 75.456025 270.455611 74.000633 
Q 269.652428 72.539621 268.202527 72.539621 
Q 266.434481 72.539621 265.347055 75.220016 
Q 264.259629 77.894791 264.259629 83.424159 
Q 264.259629 87.958915 265.240138 90.779792 
Q 266.223255 93.595049 268.171234 93.595049 
Q 269.962749 93.595049 270.901534 90.628071 
Q 271.397003 89.065912 271.642131 86.514761 
L 273.222419 86.514761 
Q 273.011192 90.588736 271.822065 93.347801 
Q 270.395633 96.668793 267.975654 96.668793 
Q 265.889465 96.668793 264.470856 93.943444 
Q 262.603717 90.347107 262.603717 82.828516 
Q 262.603717 77.12495 264.006679 73.472421 
Q 265.521774 69.499593 268.18688 69.499593 
z
M 267.860913 69.499593 
L 267.860913 69.499593 
z
" style="fill:#0000ff;"/>
   </g>
   <g id="patch_66">
    <path clip-path="url(#p3fe9135e77)" d="M 268.080172 28.858887 
Q 269.718298 28.858887 270.913345 30.962008 
Q 272.64515 33.98209 273.032528 41.553324 
L 271.475422 41.553324 
Q 271.18932 37.321845 270.295566 35.386974 
Q 269.401813 33.452103 268.039662 33.452103 
Q 266.426855 33.452103 265.322955 37.481682 
Q 264.219056 41.502849 264.219056 49.469471 
Q 264.219056 56.350882 265.128001 60.674898 
Q 266.039477 64.998914 268.095363 64.998914 
Q 269.670192 64.998914 270.703199 61.97042 
Q 271.736206 58.933514 271.758993 52.14464 
L 268.120682 52.14464 
L 268.120682 47.812212 
L 273.222419 47.812212 
L 273.222419 68.47327 
L 272.209667 68.47327 
L 271.829885 63.501492 
Q 271.032343 66.420624 270.414565 67.556309 
Q 269.376494 69.499593 267.778878 69.499593 
Q 265.715397 69.499593 264.226651 65.057802 
Q 262.603717 59.480325 262.603717 49.755495 
Q 262.603717 40.055902 264.186141 34.327001 
Q 265.690078 28.858887 268.080172 28.858887 
z
M 267.819388 28.8 
L 267.819388 28.8 
z
" style="fill:#ffa600;"/>
   </g>
   <g id="patch_67">
    <path clip-path="url(#p3fe9135e77)" d="M 284.4 133.205188 
L 284.4 134.210164 
L 279.990032 134.210164 
L 279.990032 141.64 
L 278.191266 141.64 
L 278.191266 134.210164 
L 273.781298 134.210164 
L 273.781298 133.205188 
L 284.4 133.205188 
z
" style="fill:#ff0000;"/>
   </g>
   <g id="patch_68">
    <path clip-path="url(#p3fe9135e77)" d="M 279.364461 111.239985 
Q 281.638407 111.239985 282.892728 113.329745 
Q 284.14705 115.414963 284.28526 118.068051 
L 282.704971 118.068051 
Q 282.436375 116.05552 281.633192 114.878894 
Q 280.830009 113.697725 279.380108 113.697725 
Q 277.612063 113.697725 276.524636 115.864716 
Q 275.43721 118.027164 275.43721 122.497435 
Q 275.43721 126.163603 276.417719 128.444168 
Q 277.400836 130.72019 279.348815 130.72019 
Q 281.14033 130.72019 282.079115 128.321508 
Q 282.574585 127.058566 282.819712 124.996063 
L 284.4 124.996063 
Q 284.188773 128.289707 282.999646 130.5203 
Q 281.573214 133.205188 279.153235 133.205188 
Q 277.067046 133.205188 275.648437 131.001854 
Q 273.781298 128.09436 273.781298 122.015882 
Q 273.781298 117.404779 275.18426 114.451856 
Q 276.699355 111.239985 279.364461 111.239985 
z
M 279.038494 111.239985 
L 279.038494 111.239985 
z
" style="fill:#0000ff;"/>
   </g>
   <g id="patch_69">
    <path clip-path="url(#p3fe9135e77)" d="M 279.257753 77.874334 
Q 280.895879 77.874334 282.090926 79.600977 
Q 283.822732 82.080436 284.210109 88.296351 
L 282.653003 88.296351 
Q 282.366901 84.822345 281.473147 83.233834 
Q 280.579394 81.645322 279.217243 81.645322 
Q 277.604436 81.645322 276.500536 84.95357 
Q 275.396637 88.254912 275.396637 94.795436 
Q 275.396637 100.445012 276.305582 103.99499 
Q 277.217058 107.544968 279.272944 107.544968 
Q 280.847773 107.544968 281.88078 105.058602 
Q 282.913787 102.56533 282.936574 96.991726 
L 279.298263 96.991726 
L 279.298263 93.434841 
L 284.4 93.434841 
L 284.4 110.397383 
L 283.387248 110.397383 
L 283.007466 106.315599 
Q 282.209924 108.712179 281.592146 109.644566 
Q 280.554075 111.239985 278.956459 111.239985 
Q 276.892978 111.239985 275.404233 107.593314 
Q 273.781298 103.014257 273.781298 95.030259 
Q 273.781298 87.066981 275.363723 82.363606 
Q 276.867659 77.874334 279.257753 77.874334 
z
M 278.996969 77.825988 
L 278.996969 77.825988 
z
" style="fill:#ffa600;"/>
   </g>
   <g id="patch_70">
    <path clip-path="url(#p3fe9135e77)" d="M 280.908813 57.739322 
L 279.102312 36.082885 
L 277.181771 57.739322 
L 280.908813 57.739322 
z
M 278.259969 28.8 
L 280.082022 28.8 
L 284.4 77.825988 
L 282.632376 77.825988 
L 281.427178 63.142752 
L 276.720426 63.142752 
L 275.43229 77.825988 
L 273.781298 77.825988 
L 278.259969 28.8 
z
M 279.094537 28.8 
L 279.094537 28.8 
z
" style="fill:#008000;"/>
   </g>
   <g id="matplotlib.axis_1">
    <g id="xtick_1">
     <g id="text_1">
      <!-- 0 -->
      <g style="fill:#262626;" transform="translate(94.688414 162.986875)scale(0.2 -0.2)">
       <defs>
        <path d="M 1731 4475 
Q 2600 4475 2988 3759 
Q 3288 3206 3288 2244 
Q 3288 1331 3016 734 
Q 2622 -122 1728 -122 
Q 922 -122 528 578 
Q 200 1163 200 2147 
Q 200 2909 397 3456 
Q 766 4475 1731 4475 
z
M 1725 391 
Q 2163 391 2422 778 
Q 2681 1166 2681 2222 
Q 2681 2984 2493 3476 
Q 2306 3969 1766 3969 
Q 1269 3969 1039 3501 
Q 809 3034 809 2125 
Q 809 1441 956 1025 
Q 1181 391 1725 391 
z
" id="Helvetica-30" transform="scale(0.015625)"/>
       </defs>
       <use xlink:href="#Helvetica-30"/>
      </g>
     </g>
    </g>
    <g id="xtick_2">
     <g id="text_2">
      <!-- 10 -->
      <g style="fill:#262626;" transform="translate(200.903287 162.986875)scale(0.2 -0.2)">
       <defs>
        <path d="M 613 3169 
L 613 3600 
Q 1222 3659 1462 3798 
Q 1703 3938 1822 4456 
L 2266 4456 
L 2266 0 
L 1666 0 
L 1666 3169 
L 613 3169 
z
" id="Helvetica-31" transform="scale(0.015625)"/>
       </defs>
       <use xlink:href="#Helvetica-31"/>
       <use x="55.615234" xlink:href="#Helvetica-30"/>
      </g>
     </g>
    </g>
    <g id="text_3">
     <!-- Position -->
     <g style="fill:#262626;" transform="translate(145.20125 189.089219)scale(0.25 -0.25)">
      <defs>
       <path d="M 547 4591 
L 2613 4591 
Q 3225 4591 3600 4245 
Q 3975 3900 3975 3275 
Q 3975 2738 3640 2339 
Q 3306 1941 2613 1941 
L 1169 1941 
L 1169 0 
L 547 0 
L 547 4591 
z
M 3347 3272 
Q 3347 3778 2972 3959 
Q 2766 4056 2406 4056 
L 1169 4056 
L 1169 2466 
L 2406 2466 
Q 2825 2466 3086 2644 
Q 3347 2822 3347 3272 
z
" id="Helvetica-50" transform="scale(0.015625)"/>
       <path d="M 1741 363 
Q 2300 363 2508 786 
Q 2716 1209 2716 1728 
Q 2716 2197 2566 2491 
Q 2328 2953 1747 2953 
Q 1231 2953 997 2559 
Q 763 2166 763 1609 
Q 763 1075 997 719 
Q 1231 363 1741 363 
z
M 1763 3444 
Q 2409 3444 2856 3012 
Q 3303 2581 3303 1744 
Q 3303 934 2909 406 
Q 2516 -122 1688 -122 
Q 997 -122 590 345 
Q 184 813 184 1600 
Q 184 2444 612 2944 
Q 1041 3444 1763 3444 
z
M 1744 3428 
L 1744 3428 
z
" id="Helvetica-6f" transform="scale(0.015625)"/>
       <path d="M 747 1050 
Q 772 769 888 619 
Q 1100 347 1625 347 
Q 1938 347 2175 483 
Q 2413 619 2413 903 
Q 2413 1119 2222 1231 
Q 2100 1300 1741 1391 
L 1294 1503 
Q 866 1609 663 1741 
Q 300 1969 300 2372 
Q 300 2847 642 3140 
Q 984 3434 1563 3434 
Q 2319 3434 2653 2991 
Q 2863 2709 2856 2384 
L 2325 2384 
Q 2309 2575 2191 2731 
Q 1997 2953 1519 2953 
Q 1200 2953 1036 2831 
Q 872 2709 872 2509 
Q 872 2291 1088 2159 
Q 1213 2081 1456 2022 
L 1828 1931 
Q 2434 1784 2641 1647 
Q 2969 1431 2969 969 
Q 2969 522 2630 197 
Q 2291 -128 1597 -128 
Q 850 -128 539 211 
Q 228 550 206 1050 
L 747 1050 
z
M 1578 3428 
L 1578 3428 
z
" id="Helvetica-73" transform="scale(0.015625)"/>
       <path d="M 413 3331 
L 984 3331 
L 984 0 
L 413 0 
L 413 3331 
z
M 413 4591 
L 984 4591 
L 984 3953 
L 413 3953 
L 413 4591 
z
" id="Helvetica-69" transform="scale(0.015625)"/>
       <path d="M 525 4281 
L 1094 4281 
L 1094 3347 
L 1628 3347 
L 1628 2888 
L 1094 2888 
L 1094 703 
Q 1094 528 1213 469 
Q 1278 434 1431 434 
Q 1472 434 1519 436 
Q 1566 438 1628 444 
L 1628 0 
Q 1531 -28 1426 -40 
Q 1322 -53 1200 -53 
Q 806 -53 665 148 
Q 525 350 525 672 
L 525 2888 
L 72 2888 
L 72 3347 
L 525 3347 
L 525 4281 
z
" id="Helvetica-74" transform="scale(0.015625)"/>
       <path d="M 413 3347 
L 947 3347 
L 947 2872 
Q 1184 3166 1450 3294 
Q 1716 3422 2041 3422 
Q 2753 3422 3003 2925 
Q 3141 2653 3141 2147 
L 3141 0 
L 2569 0 
L 2569 2109 
Q 2569 2416 2478 2603 
Q 2328 2916 1934 2916 
Q 1734 2916 1606 2875 
Q 1375 2806 1200 2600 
Q 1059 2434 1017 2257 
Q 975 2081 975 1753 
L 975 0 
L 413 0 
L 413 3347 
z
M 1734 3428 
L 1734 3428 
z
" id="Helvetica-6e" transform="scale(0.015625)"/>
      </defs>
      <use xlink:href="#Helvetica-50"/>
      <use x="66.699219" xlink:href="#Helvetica-6f"/>
      <use x="122.314453" xlink:href="#Helvetica-73"/>
      <use x="172.314453" xlink:href="#Helvetica-69"/>
      <use x="194.53125" xlink:href="#Helvetica-74"/>
      <use x="222.314453" xlink:href="#Helvetica-69"/>
      <use x="244.53125" xlink:href="#Helvetica-6f"/>
      <use x="300.146484" xlink:href="#Helvetica-6e"/>
     </g>
    </g>
   </g>
   <g id="matplotlib.axis_2">
    <g id="ytick_1">
     <g id="text_4">
      <!-- 0 -->
      <g style="fill:#262626;" transform="translate(76.818125 148.813438)scale(0.2 -0.2)">
       <use xlink:href="#Helvetica-30"/>
      </g>
     </g>
    </g>
    <g id="ytick_2">
     <g id="text_5">
      <!-- 0.25 -->
      <g style="fill:#262626;" transform="translate(49.018125 120.603438)scale(0.2 -0.2)">
       <defs>
        <path d="M 547 681 
L 1200 681 
L 1200 0 
L 547 0 
L 547 681 
z
" id="Helvetica-2e" transform="scale(0.015625)"/>
        <path d="M 200 0 
Q 231 578 439 1006 
Q 647 1434 1250 1784 
L 1850 2131 
Q 2253 2366 2416 2531 
Q 2672 2791 2672 3125 
Q 2672 3516 2437 3745 
Q 2203 3975 1813 3975 
Q 1234 3975 1013 3538 
Q 894 3303 881 2888 
L 309 2888 
Q 319 3472 525 3841 
Q 891 4491 1816 4491 
Q 2584 4491 2939 4075 
Q 3294 3659 3294 3150 
Q 3294 2613 2916 2231 
Q 2697 2009 2131 1694 
L 1703 1456 
Q 1397 1288 1222 1134 
Q 909 863 828 531 
L 3272 531 
L 3272 0 
L 200 0 
z
" id="Helvetica-32" transform="scale(0.015625)"/>
        <path d="M 791 1141 
Q 847 659 1238 475 
Q 1438 381 1700 381 
Q 2200 381 2440 700 
Q 2681 1019 2681 1406 
Q 2681 1875 2395 2131 
Q 2109 2388 1709 2388 
Q 1419 2388 1211 2275 
Q 1003 2163 856 1963 
L 369 1991 
L 709 4400 
L 3034 4400 
L 3034 3856 
L 1131 3856 
L 941 2613 
Q 1097 2731 1238 2791 
Q 1488 2894 1816 2894 
Q 2431 2894 2859 2497 
Q 3288 2100 3288 1491 
Q 3288 856 2895 371 
Q 2503 -113 1644 -113 
Q 1097 -113 676 195 
Q 256 503 206 1141 
L 791 1141 
z
" id="Helvetica-35" transform="scale(0.015625)"/>
       </defs>
       <use xlink:href="#Helvetica-30"/>
       <use x="55.615234" xlink:href="#Helvetica-2e"/>
       <use x="83.398438" xlink:href="#Helvetica-32"/>
       <use x="139.013672" xlink:href="#Helvetica-35"/>
      </g>
     </g>
    </g>
    <g id="ytick_3">
     <g id="text_6">
      <!-- 0.50 -->
      <g style="fill:#262626;" transform="translate(49.018125 92.393438)scale(0.2 -0.2)">
       <use xlink:href="#Helvetica-30"/>
       <use x="55.615234" xlink:href="#Helvetica-2e"/>
       <use x="83.398438" xlink:href="#Helvetica-35"/>
       <use x="139.013672" xlink:href="#Helvetica-30"/>
      </g>
     </g>
    </g>
    <g id="ytick_4">
     <g id="text_7">
      <!-- 0.75 -->
      <g style="fill:#262626;" transform="translate(49.018125 64.183437)scale(0.2 -0.2)">
       <defs>
        <path d="M 3347 4400 
L 3347 3909 
Q 3131 3700 2773 3181 
Q 2416 2663 2141 2063 
Q 1869 1478 1728 997 
Q 1638 688 1494 0 
L 872 0 
Q 1084 1281 1809 2550 
Q 2238 3294 2709 3834 
L 234 3834 
L 234 4400 
L 3347 4400 
z
" id="Helvetica-37" transform="scale(0.015625)"/>
       </defs>
       <use xlink:href="#Helvetica-30"/>
       <use x="55.615234" xlink:href="#Helvetica-2e"/>
       <use x="83.398438" xlink:href="#Helvetica-37"/>
       <use x="139.013672" xlink:href="#Helvetica-35"/>
      </g>
     </g>
    </g>
    <g id="ytick_5">
     <g id="text_8">
      <!-- 1.0 -->
      <g style="fill:#262626;" transform="translate(60.14 35.973438)scale(0.2 -0.2)">
       <use xlink:href="#Helvetica-31"/>
       <use x="55.615234" xlink:href="#Helvetica-2e"/>
       <use x="83.398438" xlink:href="#Helvetica-30"/>
      </g>
     </g>
    </g>
    <g id="text_9">
     <!-- Probability -->
     <g style="fill:#262626;" transform="translate(39.65875 143.579375)rotate(-90)scale(0.25 -0.25)">
      <defs>
       <path d="M 428 3347 
L 963 3347 
L 963 2769 
Q 1028 2938 1284 3180 
Q 1541 3422 1875 3422 
Q 1891 3422 1928 3419 
Q 1966 3416 2056 3406 
L 2056 2813 
Q 2006 2822 1964 2825 
Q 1922 2828 1872 2828 
Q 1447 2828 1219 2554 
Q 991 2281 991 1925 
L 991 0 
L 428 0 
L 428 3347 
z
" id="Helvetica-72" transform="scale(0.015625)"/>
       <path d="M 369 4606 
L 916 4606 
L 916 2941 
Q 1100 3181 1356 3307 
Q 1613 3434 1913 3434 
Q 2538 3434 2927 3004 
Q 3316 2575 3316 1738 
Q 3316 944 2931 419 
Q 2547 -106 1866 -106 
Q 1484 -106 1222 78 
Q 1066 188 888 428 
L 888 0 
L 369 0 
L 369 4606 
z
M 1831 391 
Q 2288 391 2514 753 
Q 2741 1116 2741 1709 
Q 2741 2238 2514 2584 
Q 2288 2931 1847 2931 
Q 1463 2931 1173 2647 
Q 884 2363 884 1709 
Q 884 1238 1003 944 
Q 1225 391 1831 391 
z
" id="Helvetica-62" transform="scale(0.015625)"/>
       <path d="M 844 891 
Q 844 647 1022 506 
Q 1200 366 1444 366 
Q 1741 366 2019 503 
Q 2488 731 2488 1250 
L 2488 1703 
Q 2384 1638 2221 1594 
Q 2059 1550 1903 1531 
L 1563 1488 
Q 1256 1447 1103 1359 
Q 844 1213 844 891 
z
M 2206 2028 
Q 2400 2053 2466 2191 
Q 2503 2266 2503 2406 
Q 2503 2694 2298 2823 
Q 2094 2953 1713 2953 
Q 1272 2953 1088 2716 
Q 984 2584 953 2325 
L 428 2325 
Q 444 2944 830 3186 
Q 1216 3428 1725 3428 
Q 2316 3428 2684 3203 
Q 3050 2978 3050 2503 
L 3050 575 
Q 3050 488 3086 434 
Q 3122 381 3238 381 
Q 3275 381 3322 386 
Q 3369 391 3422 400 
L 3422 -16 
Q 3291 -53 3222 -62 
Q 3153 -72 3034 -72 
Q 2744 -72 2613 134 
Q 2544 244 2516 444 
Q 2344 219 2022 53 
Q 1700 -113 1313 -113 
Q 847 -113 551 170 
Q 256 453 256 878 
Q 256 1344 547 1600 
Q 838 1856 1309 1916 
L 2206 2028 
z
M 1741 3428 
L 1741 3428 
z
" id="Helvetica-61" transform="scale(0.015625)"/>
       <path d="M 428 4591 
L 991 4591 
L 991 0 
L 428 0 
L 428 4591 
z
" id="Helvetica-6c" transform="scale(0.015625)"/>
       <path d="M 2503 3347 
L 3125 3347 
Q 3006 3025 2597 1878 
Q 2291 1016 2084 472 
Q 1597 -809 1397 -1090 
Q 1197 -1372 709 -1372 
Q 591 -1372 527 -1362 
Q 463 -1353 369 -1328 
L 369 -816 
Q 516 -856 581 -865 
Q 647 -875 697 -875 
Q 853 -875 926 -823 
Q 1000 -772 1050 -697 
Q 1066 -672 1162 -440 
Q 1259 -209 1303 -97 
L 66 3347 
L 703 3347 
L 1600 622 
L 2503 3347 
z
M 1597 3428 
L 1597 3428 
z
" id="Helvetica-79" transform="scale(0.015625)"/>
      </defs>
      <use xlink:href="#Helvetica-50"/>
      <use x="66.699219" xlink:href="#Helvetica-72"/>
      <use x="100" xlink:href="#Helvetica-6f"/>
      <use x="155.615234" xlink:href="#Helvetica-62"/>
      <use x="211.230469" xlink:href="#Helvetica-61"/>
      <use x="266.845703" xlink:href="#Helvetica-62"/>
      <use x="322.460938" xlink:href="#Helvetica-69"/>
      <use x="344.677734" xlink:href="#Helvetica-6c"/>
      <use x="366.894531" xlink:href="#Helvetica-69"/>
      <use x="389.111328" xlink:href="#Helvetica-74"/>
      <use x="416.894531" xlink:href="#Helvetica-79"/>
     </g>
    </g>
   </g>
   <g id="patch_71">
    <path d="M 94.94 141.64 
L 94.94 28.8 
" style="fill:none;stroke:#000000;stroke-linecap:square;stroke-linejoin:miter;"/>
   </g>
  </g>
 </g>
 <defs>
  <clipPath id="p3fe9135e77">
   <rect height="112.84" width="189.46" x="94.94" y="28.8"/>
  </clipPath>
 </defs>
</svg>
