<?xml version="1.0" encoding="utf-8" standalone="no"?>
<!DOCTYPE svg PUBLIC "-//W3C//DTD SVG 1.1//EN"
  "http://www.w3.org/Graphics/SVG/1.1/DTD/svg11.dtd">
<svg height="216pt" version="1.1" viewBox="0 0 306 216" width="306pt" xmlns="http://www.w3.org/2000/svg" xmlns:xlink="http://www.w3.org/1999/xlink">
 <metadata>
  <rdf:RDF xmlns:cc="http://creativecommons.org/ns#" xmlns:dc="http://purl.org/dc/elements/1.1/" xmlns:rdf="http://www.w3.org/1999/02/22-rdf-syntax-ns#">
   <cc:Work>
    <dc:type rdf:resource="http://purl.org/dc/dcmitype/StillImage"/>
    <dc:date>2023-01-27T12:56:18.439083</dc:date>
    <dc:format>image/svg+xml</dc:format>
    <dc:creator>
     <cc:Agent>
      <dc:title>Matplotlib v3.4.2, https://matplotlib.org/</dc:title>
     </cc:Agent>
    </dc:creator>
   </cc:Work>
  </rdf:RDF>
 </metadata>
 <defs>
  <style type="text/css">*{stroke-linecap:butt;stroke-linejoin:round;}</style>
 </defs>
 <g id="figure_1">
  <g id="patch_1">
   <path d="M 0 216 
L 306 216 
L 306 0 
L 0 0 
z
" style="fill:#ffffff;"/>
  </g>
  <g id="axes_1">
   <g id="patch_2">
    <path d="M 94.94 141.64 
L 284.4 141.64 
L 284.4 28.8 
L 94.94 28.8 
z
" style="fill:#ffffff;"/>
   </g>
   <g id="line2d_1">
    <path clip-path="url(#p2c4944fbe3)" d="M 94.94 141.64 
L 284.4 141.64 
" style="fill:none;stroke:#000000;stroke-linecap:round;stroke-width:0.5;"/>
   </g>
   <g id="patch_3">
    <path clip-path="url(#p2c4944fbe3)" d="M 102.067515 136.503089 
L 100.261014 130.964728 
L 98.340473 136.503089 
L 102.067515 136.503089 
z
M 99.418672 129.102222 
L 101.240724 129.102222 
L 105.558702 141.64 
L 103.791078 141.64 
L 102.58588 137.884948 
L 97.879128 137.884948 
L 96.590992 141.64 
L 94.94 141.64 
L 99.418672 129.102222 
z
M 100.253239 129.102222 
L 100.253239 129.102222 
z
" style="fill:#008000;"/>
   </g>
   <g id="patch_4">
    <path clip-path="url(#p2c4944fbe3)" d="M 105.558702 116.564444 
L 105.558702 118.058272 
L 101.148734 118.058272 
L 101.148734 129.102222 
L 99.349968 129.102222 
L 99.349968 118.058272 
L 94.94 118.058272 
L 94.94 116.564444 
L 105.558702 116.564444 
z
" style="fill:#ff0000;"/>
   </g>
   <g id="patch_5">
    <path clip-path="url(#p2c4944fbe3)" d="M 100.416455 91.52517 
Q 102.054581 91.52517 103.249628 92.820931 
Q 104.981434 94.681643 105.368811 99.34638 
L 103.811705 99.34638 
Q 103.525603 96.73931 102.63185 95.547211 
Q 101.738096 94.355111 100.375945 94.355111 
Q 98.763138 94.355111 97.659238 96.837788 
Q 96.555339 99.315282 96.555339 104.223622 
Q 96.555339 108.46335 97.464284 111.127434 
Q 98.37576 113.791517 100.431646 113.791517 
Q 102.006475 113.791517 103.039482 111.925622 
Q 104.072489 110.054544 104.095276 105.871829 
L 100.456965 105.871829 
L 100.456965 103.202563 
L 105.558702 103.202563 
L 105.558702 115.932113 
L 104.54595 115.932113 
L 104.166168 112.868936 
Q 103.368626 114.667451 102.750848 115.367162 
Q 101.712777 116.564444 100.115161 116.564444 
Q 98.05168 116.564444 96.562935 113.827798 
Q 94.94 110.391442 94.94 104.399846 
Q 94.94 98.423799 96.522425 94.894147 
Q 98.026361 91.52517 100.416455 91.52517 
z
M 100.155671 91.488889 
L 100.155671 91.488889 
z
" style="fill:#ffa600;"/>
   </g>
   <g id="patch_6">
    <path clip-path="url(#p2c4944fbe3)" d="M 100.523163 28.8 
Q 102.797109 28.8 104.051431 34.764196 
Q 105.305752 40.715427 105.443962 48.287363 
L 103.863673 48.287363 
Q 103.595077 42.543583 102.791894 39.185481 
Q 101.988711 35.814413 100.53881 35.814413 
Q 98.770765 35.814413 97.683339 41.999026 
Q 96.595913 48.170672 96.595913 60.928866 
Q 96.595913 71.392141 97.576421 77.900894 
Q 98.559538 84.396682 100.507517 84.396682 
Q 102.299032 84.396682 103.237817 77.550822 
Q 103.733287 73.946373 103.978414 68.05997 
L 105.558702 68.05997 
Q 105.347475 77.460062 104.158348 83.826193 
Q 102.731916 91.488889 100.311937 91.488889 
Q 98.225748 91.488889 96.807139 85.200552 
Q 94.94 76.902539 94.94 59.554508 
Q 94.94 46.394379 96.342962 37.96671 
Q 97.858057 28.8 100.523163 28.8 
z
M 100.197196 28.8 
L 100.197196 28.8 
z
" style="fill:#0000ff;"/>
   </g>
   <g id="patch_7">
    <path clip-path="url(#p2c4944fbe3)" d="M 113.245097 136.503089 
L 111.438595 130.964728 
L 109.518054 136.503089 
L 113.245097 136.503089 
z
M 110.596253 129.102222 
L 112.418305 129.102222 
L 116.736283 141.64 
L 114.968659 141.64 
L 113.763461 137.884948 
L 109.056709 137.884948 
L 107.768573 141.64 
L 106.117581 141.64 
L 110.596253 129.102222 
z
M 111.43082 129.102222 
L 111.43082 129.102222 
z
" style="fill:#008000;"/>
   </g>
   <g id="patch_8">
    <path clip-path="url(#p2c4944fbe3)" d="M 116.736283 116.564444 
L 116.736283 118.058272 
L 112.326315 118.058272 
L 112.326315 129.102222 
L 110.527549 129.102222 
L 110.527549 118.058272 
L 106.117581 118.058272 
L 106.117581 116.564444 
L 116.736283 116.564444 
z
" style="fill:#ff0000;"/>
   </g>
   <g id="patch_9">
    <path clip-path="url(#p2c4944fbe3)" d="M 111.700744 78.951111 
Q 113.97469 78.951111 115.229012 82.529629 
Q 116.483333 86.100367 116.621543 90.643529 
L 115.041255 90.643529 
Q 114.772658 87.197261 113.969475 85.1824 
Q 113.166292 83.159759 111.716391 83.159759 
Q 109.948346 83.159759 108.86092 86.870526 
Q 107.773494 90.573514 107.773494 98.228431 
Q 107.773494 104.506395 108.754002 108.411647 
Q 109.737119 112.30912 111.685098 112.30912 
Q 113.476613 112.30912 114.415398 108.201604 
Q 114.910868 106.038935 115.155995 102.507093 
L 116.736283 102.507093 
Q 116.525057 108.147148 115.335929 111.966827 
Q 113.909497 116.564444 111.489518 116.564444 
Q 109.403329 116.564444 107.98472 112.791442 
Q 106.117581 107.812635 106.117581 97.403816 
Q 106.117581 89.507738 107.520543 84.451137 
Q 109.035638 78.951111 111.700744 78.951111 
z
M 111.374777 78.951111 
L 111.374777 78.951111 
z
" style="fill:#0000ff;"/>
   </g>
   <g id="patch_10">
    <path clip-path="url(#p2c4944fbe3)" d="M 111.594036 28.872563 
Q 113.232162 28.872563 114.427209 31.464083 
Q 116.159015 35.185507 116.546392 44.514982 
L 114.989286 44.514982 
Q 114.703184 39.300842 113.809431 36.916643 
Q 112.915677 34.532444 111.553526 34.532444 
Q 109.940719 34.532444 108.83682 39.497798 
Q 107.73292 44.452786 107.73292 54.269467 
Q 107.73292 62.748923 108.641865 68.07709 
Q 109.553341 73.405257 111.609227 73.405257 
Q 113.184056 73.405257 114.217063 69.673467 
Q 115.25007 65.93131 115.272857 57.565881 
L 111.634546 57.565881 
L 111.634546 52.227348 
L 116.736283 52.227348 
L 116.736283 77.686449 
L 115.723531 77.686449 
L 115.34375 71.560094 
Q 114.546208 75.157125 113.928429 76.556546 
Q 112.890358 78.951111 111.292743 78.951111 
Q 109.229261 78.951111 107.740516 73.477819 
Q 106.117581 66.605106 106.117581 54.621914 
Q 106.117581 42.669819 107.700006 35.610517 
Q 109.203942 28.872563 111.594036 28.872563 
z
M 111.333253 28.8 
L 111.333253 28.8 
z
" style="fill:#ffa600;"/>
   </g>
   <g id="patch_11">
    <path clip-path="url(#p2c4944fbe3)" d="M 127.913864 129.102222 
L 127.913864 130.59605 
L 123.503896 130.59605 
L 123.503896 141.64 
L 121.705131 141.64 
L 121.705131 130.59605 
L 117.295162 130.59605 
L 117.295162 129.102222 
L 127.913864 129.102222 
z
" style="fill:#ff0000;"/>
   </g>
   <g id="patch_12">
    <path clip-path="url(#p2c4944fbe3)" d="M 122.878326 104.026667 
Q 125.152272 104.026667 126.406593 106.412345 
Q 127.660914 108.792837 127.799124 111.821612 
L 126.218836 111.821612 
Q 125.950239 109.5241 125.147056 108.180859 
Q 124.343873 106.832432 122.893972 106.832432 
Q 121.125927 106.832432 120.038501 109.306277 
Q 118.951075 111.774936 118.951075 116.878213 
Q 118.951075 121.063523 119.931584 123.667024 
Q 120.9147 126.265339 122.862679 126.265339 
Q 124.654194 126.265339 125.592979 123.526995 
Q 126.088449 122.085216 126.333576 119.730655 
L 127.913864 119.730655 
Q 127.702638 123.490691 126.51351 126.037144 
Q 125.087078 129.102222 122.667099 129.102222 
Q 120.58091 129.102222 119.162301 126.586887 
Q 117.295162 123.267682 117.295162 116.32847 
Q 117.295162 111.064418 118.698124 107.693351 
Q 120.213219 104.026667 122.878326 104.026667 
z
M 122.552359 104.026667 
L 122.552359 104.026667 
z
" style="fill:#0000ff;"/>
   </g>
   <g id="patch_13">
    <path clip-path="url(#p2c4944fbe3)" d="M 122.771617 78.987392 
Q 124.409743 78.987392 125.60479 80.283153 
Q 127.336596 82.143865 127.723973 86.808602 
L 126.166868 86.808602 
Q 125.880765 84.201532 124.987012 83.009433 
Q 124.093258 81.817333 122.731107 81.817333 
Q 121.1183 81.817333 120.014401 84.30001 
Q 118.910501 86.777504 118.910501 91.685844 
Q 118.910501 95.925573 119.819446 98.589656 
Q 120.730923 101.253739 122.786809 101.253739 
Q 124.361638 101.253739 125.394644 99.387844 
Q 126.427651 97.516766 126.450438 93.334052 
L 122.812127 93.334052 
L 122.812127 90.664785 
L 127.913864 90.664785 
L 127.913864 103.394336 
L 126.901113 103.394336 
L 126.521331 100.331158 
Q 125.723789 102.129673 125.10601 102.829384 
Q 124.06794 104.026667 122.470324 104.026667 
Q 120.406842 104.026667 118.918097 101.290021 
Q 117.295162 97.853664 117.295162 91.862068 
Q 117.295162 85.886021 118.877587 82.356369 
Q 120.381523 78.987392 122.771617 78.987392 
z
M 122.510834 78.951111 
L 122.510834 78.951111 
z
" style="fill:#ffa600;"/>
   </g>
   <g id="patch_14">
    <path clip-path="url(#p2c4944fbe3)" d="M 124.422678 58.403466 
L 122.616176 36.250023 
L 120.695635 58.403466 
L 124.422678 58.403466 
z
M 121.773834 28.8 
L 123.595886 28.8 
L 127.913864 78.951111 
L 126.14624 78.951111 
L 124.941042 63.930902 
L 120.23429 63.930902 
L 118.946154 78.951111 
L 117.295162 78.951111 
L 121.773834 28.8 
z
M 122.608401 28.8 
L 122.608401 28.8 
z
" style="fill:#008000;"/>
   </g>
   <g id="patch_15">
    <path clip-path="url(#p2c4944fbe3)" d="M 135.600259 136.503089 
L 133.793758 130.964728 
L 131.873216 136.503089 
L 135.600259 136.503089 
z
M 132.951415 129.102222 
L 134.773467 129.102222 
L 139.091445 141.64 
L 137.323822 141.64 
L 136.118624 137.884948 
L 131.411872 137.884948 
L 130.123735 141.64 
L 128.472743 141.64 
L 132.951415 129.102222 
z
M 133.785982 129.102222 
L 133.785982 129.102222 
z
" style="fill:#008000;"/>
   </g>
   <g id="patch_16">
    <path clip-path="url(#p2c4944fbe3)" d="M 133.949198 116.582585 
Q 135.587324 116.582585 136.782371 117.230465 
Q 138.514177 118.160821 138.901554 120.49319 
L 137.344449 120.49319 
Q 137.058346 119.189655 136.164593 118.593605 
Q 135.270839 117.997555 133.908688 117.997555 
Q 132.295881 117.997555 131.191982 119.238894 
Q 130.088082 120.477641 130.088082 122.931811 
Q 130.088082 125.051675 130.997027 126.383717 
Q 131.908504 127.715759 133.96439 127.715759 
Q 135.539219 127.715759 136.572225 126.782811 
Q 137.605232 125.847272 137.628019 123.755915 
L 133.989709 123.755915 
L 133.989709 122.421282 
L 139.091445 122.421282 
L 139.091445 128.786057 
L 138.078694 128.786057 
L 137.698912 127.254468 
Q 136.90137 128.153726 136.283591 128.503581 
Q 135.245521 129.102222 133.647905 129.102222 
Q 131.584423 129.102222 130.095678 127.733899 
Q 128.472743 126.015721 128.472743 123.019923 
Q 128.472743 120.031899 130.055168 118.267074 
Q 131.559104 116.582585 133.949198 116.582585 
z
M 133.688415 116.564444 
L 133.688415 116.564444 
z
" style="fill:#ffa600;"/>
   </g>
   <g id="patch_17">
    <path clip-path="url(#p2c4944fbe3)" d="M 139.091445 91.488889 
L 139.091445 94.476545 
L 134.681477 94.476545 
L 134.681477 116.564444 
L 132.882712 116.564444 
L 132.882712 94.476545 
L 128.472743 94.476545 
L 128.472743 91.488889 
L 139.091445 91.488889 
z
" style="fill:#ff0000;"/>
   </g>
   <g id="patch_18">
    <path clip-path="url(#p2c4944fbe3)" d="M 134.055907 28.8 
Q 136.329853 28.8 137.584174 34.764196 
Q 138.838495 40.715427 138.976705 48.287363 
L 137.396417 48.287363 
Q 137.12782 42.543583 136.324637 39.185481 
Q 135.521454 35.814413 134.071553 35.814413 
Q 132.303508 35.814413 131.216082 41.999026 
Q 130.128656 48.170672 130.128656 60.928866 
Q 130.128656 71.392141 131.109165 77.900894 
Q 132.092281 84.396682 134.04026 84.396682 
Q 135.831775 84.396682 136.77056 77.550822 
Q 137.26603 73.946373 137.511157 68.05997 
L 139.091445 68.05997 
Q 138.880219 77.460062 137.691091 83.826193 
Q 136.264659 91.488889 133.84468 91.488889 
Q 131.758491 91.488889 130.339883 85.200552 
Q 128.472743 76.902539 128.472743 59.554508 
Q 128.472743 46.394379 129.875705 37.96671 
Q 131.3908 28.8 134.055907 28.8 
z
M 133.72994 28.8 
L 133.72994 28.8 
z
" style="fill:#0000ff;"/>
   </g>
   <g id="patch_19">
    <path clip-path="url(#p2c4944fbe3)" d="M 150.269027 129.102222 
L 150.269027 130.59605 
L 145.859058 130.59605 
L 145.859058 141.64 
L 144.060293 141.64 
L 144.060293 130.59605 
L 139.650324 130.59605 
L 139.650324 129.102222 
L 150.269027 129.102222 
z
" style="fill:#ff0000;"/>
   </g>
   <g id="patch_20">
    <path clip-path="url(#p2c4944fbe3)" d="M 146.77784 118.8284 
L 144.971339 107.751678 
L 143.050797 118.8284 
L 146.77784 118.8284 
z
M 144.128996 104.026667 
L 145.951048 104.026667 
L 150.269027 129.102222 
L 148.501403 129.102222 
L 147.296205 121.592118 
L 142.589453 121.592118 
L 141.301316 129.102222 
L 139.650324 129.102222 
L 144.128996 104.026667 
z
M 144.963563 104.026667 
L 144.963563 104.026667 
z
" style="fill:#008000;"/>
   </g>
   <g id="patch_21">
    <path clip-path="url(#p2c4944fbe3)" d="M 145.12678 78.987392 
Q 146.764906 78.987392 147.959953 80.283153 
Q 149.691758 82.143865 150.079136 86.808602 
L 148.52203 86.808602 
Q 148.235927 84.201532 147.342174 83.009433 
Q 146.448421 81.817333 145.086269 81.817333 
Q 143.473462 81.817333 142.369563 84.30001 
Q 141.265664 86.777504 141.265664 91.685844 
Q 141.265664 95.925573 142.174608 98.589656 
Q 143.086085 101.253739 145.141971 101.253739 
Q 146.7168 101.253739 147.749807 99.387844 
Q 148.782813 97.516766 148.8056 93.334052 
L 145.16729 93.334052 
L 145.16729 90.664785 
L 150.269027 90.664785 
L 150.269027 103.394336 
L 149.256275 103.394336 
L 148.876493 100.331158 
Q 148.078951 102.129673 147.461172 102.829384 
Q 146.423102 104.026667 144.825486 104.026667 
Q 142.762004 104.026667 141.273259 101.290021 
Q 139.650324 97.853664 139.650324 91.862068 
Q 139.650324 85.886021 141.232749 82.356369 
Q 142.736685 78.987392 145.12678 78.987392 
z
M 144.865996 78.951111 
L 144.865996 78.951111 
z
" style="fill:#ffa600;"/>
   </g>
   <g id="patch_22">
    <path clip-path="url(#p2c4944fbe3)" d="M 145.233488 28.8 
Q 147.507434 28.8 148.761755 33.571357 
Q 150.016076 38.332341 150.154286 44.38989 
L 148.573998 44.38989 
Q 148.305401 39.794866 147.502218 37.108385 
Q 146.699036 34.411531 145.249134 34.411531 
Q 143.481089 34.411531 142.393663 39.35922 
Q 141.306237 44.296538 141.306237 54.503093 
Q 141.306237 62.873713 142.286746 68.080715 
Q 143.269862 73.277345 145.217841 73.277345 
Q 147.009356 73.277345 147.948141 67.800657 
Q 148.443611 64.917098 148.688738 60.207976 
L 150.269027 60.207976 
Q 150.0578 67.72805 148.868672 72.820955 
Q 147.44224 78.951111 145.022261 78.951111 
Q 142.936072 78.951111 141.517464 73.920441 
Q 139.650324 67.282031 139.650324 53.403606 
Q 139.650324 42.875503 141.053287 36.133368 
Q 142.568381 28.8 145.233488 28.8 
z
M 144.907521 28.8 
L 144.907521 28.8 
z
" style="fill:#0000ff;"/>
   </g>
   <g id="patch_23">
    <path clip-path="url(#p2c4944fbe3)" d="M 156.304361 129.120363 
Q 157.942487 129.120363 159.137534 129.768243 
Q 160.869339 130.698599 161.256717 133.030968 
L 159.699611 133.030968 
Q 159.413509 131.727433 158.519755 131.131383 
Q 157.626002 130.535333 156.263851 130.535333 
Q 154.651043 130.535333 153.547144 131.776672 
Q 152.443245 133.015419 152.443245 135.469589 
Q 152.443245 137.589453 153.352189 138.921495 
Q 154.263666 140.253536 156.319552 140.253536 
Q 157.894381 140.253536 158.927388 139.320589 
Q 159.960394 138.38505 159.983181 136.293693 
L 156.344871 136.293693 
L 156.344871 134.959059 
L 161.446608 134.959059 
L 161.446608 141.323834 
L 160.433856 141.323834 
L 160.054074 139.792246 
Q 159.256532 140.691503 158.638753 141.041359 
Q 157.600683 141.64 156.003067 141.64 
Q 153.939585 141.64 152.45084 140.271677 
Q 150.827906 138.553499 150.827906 135.557701 
Q 150.827906 132.569677 152.41033 130.804851 
Q 153.914267 129.120363 156.304361 129.120363 
z
M 156.043577 129.102222 
L 156.043577 129.102222 
z
" style="fill:#ffa600;"/>
   </g>
   <g id="patch_24">
    <path clip-path="url(#p2c4944fbe3)" d="M 156.411069 104.026667 
Q 158.685015 104.026667 159.939336 106.412345 
Q 161.193657 108.792837 161.331867 111.821612 
L 159.751579 111.821612 
Q 159.482982 109.5241 158.679799 108.180859 
Q 157.876617 106.832432 156.426715 106.832432 
Q 154.65867 106.832432 153.571244 109.306277 
Q 152.483818 111.774936 152.483818 116.878213 
Q 152.483818 121.063523 153.464327 123.667024 
Q 154.447444 126.265339 156.395423 126.265339 
Q 158.186937 126.265339 159.125722 123.526995 
Q 159.621192 122.085216 159.866319 119.730655 
L 161.446608 119.730655 
Q 161.235381 123.490691 160.046253 126.037144 
Q 158.619822 129.102222 156.199842 129.102222 
Q 154.113653 129.102222 152.695045 126.586887 
Q 150.827906 123.267682 150.827906 116.32847 
Q 150.827906 111.064418 152.230868 107.693351 
Q 153.745962 104.026667 156.411069 104.026667 
z
M 156.085102 104.026667 
L 156.085102 104.026667 
z
" style="fill:#0000ff;"/>
   </g>
   <g id="patch_25">
    <path clip-path="url(#p2c4944fbe3)" d="M 161.446608 78.951111 
L 161.446608 81.938767 
L 157.036639 81.938767 
L 157.036639 104.026667 
L 155.237874 104.026667 
L 155.237874 81.938767 
L 150.827906 81.938767 
L 150.827906 78.951111 
L 161.446608 78.951111 
z
" style="fill:#ff0000;"/>
   </g>
   <g id="patch_26">
    <path clip-path="url(#p2c4944fbe3)" d="M 157.955421 58.403466 
L 156.14892 36.250023 
L 154.228378 58.403466 
L 157.955421 58.403466 
z
M 155.306577 28.8 
L 157.128629 28.8 
L 161.446608 78.951111 
L 159.678984 78.951111 
L 158.473786 63.930902 
L 153.767034 63.930902 
L 152.478897 78.951111 
L 150.827906 78.951111 
L 155.306577 28.8 
z
M 156.141144 28.8 
L 156.141144 28.8 
z
" style="fill:#008000;"/>
   </g>
   <g id="patch_27">
    <path clip-path="url(#p2c4944fbe3)" d="M 167.481942 129.120363 
Q 169.120068 129.120363 170.315115 129.768243 
Q 172.04692 130.698599 172.434298 133.030968 
L 170.877192 133.030968 
Q 170.59109 131.727433 169.697336 131.131383 
Q 168.803583 130.535333 167.441432 130.535333 
Q 165.828625 130.535333 164.724725 131.776672 
Q 163.620826 133.015419 163.620826 135.469589 
Q 163.620826 137.589453 164.52977 138.921495 
Q 165.441247 140.253536 167.497133 140.253536 
Q 169.071962 140.253536 170.104969 139.320589 
Q 171.137976 138.38505 171.160763 136.293693 
L 167.522452 136.293693 
L 167.522452 134.959059 
L 172.624189 134.959059 
L 172.624189 141.323834 
L 171.611437 141.323834 
L 171.231655 139.792246 
Q 170.434113 140.691503 169.816335 141.041359 
Q 168.778264 141.64 167.180648 141.64 
Q 165.117166 141.64 163.628421 140.271677 
Q 162.005487 138.553499 162.005487 135.557701 
Q 162.005487 132.569677 163.587911 130.804851 
Q 165.091848 129.120363 167.481942 129.120363 
z
M 167.221158 129.102222 
L 167.221158 129.102222 
z
" style="fill:#ffa600;"/>
   </g>
   <g id="patch_28">
    <path clip-path="url(#p2c4944fbe3)" d="M 172.624189 116.564444 
L 172.624189 118.058272 
L 168.21422 118.058272 
L 168.21422 129.102222 
L 166.415455 129.102222 
L 166.415455 118.058272 
L 162.005487 118.058272 
L 162.005487 116.564444 
L 172.624189 116.564444 
z
" style="fill:#ff0000;"/>
   </g>
   <g id="patch_29">
    <path clip-path="url(#p2c4944fbe3)" d="M 167.58865 91.488889 
Q 169.862596 91.488889 171.116917 93.874567 
Q 172.371238 96.25506 172.509448 99.283834 
L 170.92916 99.283834 
Q 170.660563 96.986322 169.857381 95.643081 
Q 169.054198 94.294654 167.604296 94.294654 
Q 165.836251 94.294654 164.748825 96.768499 
Q 163.661399 99.237158 163.661399 104.340435 
Q 163.661399 108.525745 164.641908 111.129246 
Q 165.625025 113.727562 167.573004 113.727562 
Q 169.364518 113.727562 170.303304 110.989218 
Q 170.798773 109.547438 171.043901 107.192877 
L 172.624189 107.192877 
Q 172.412962 110.952914 171.223834 113.499366 
Q 169.797403 116.564444 167.377423 116.564444 
Q 165.291234 116.564444 163.872626 114.04911 
Q 162.005487 110.729905 162.005487 103.790692 
Q 162.005487 98.52664 163.408449 95.155573 
Q 164.923544 91.488889 167.58865 91.488889 
z
M 167.262683 91.488889 
L 167.262683 91.488889 
z
" style="fill:#0000ff;"/>
   </g>
   <g id="patch_30">
    <path clip-path="url(#p2c4944fbe3)" d="M 169.133002 65.804332 
L 167.326501 38.112529 
L 165.40596 65.804332 
L 169.133002 65.804332 
z
M 166.484158 28.8 
L 168.30621 28.8 
L 172.624189 91.488889 
L 170.856565 91.488889 
L 169.651367 72.713628 
L 164.944615 72.713628 
L 163.656478 91.488889 
L 162.005487 91.488889 
L 166.484158 28.8 
z
M 167.318725 28.8 
L 167.318725 28.8 
z
" style="fill:#008000;"/>
   </g>
   <g id="patch_31">
    <path clip-path="url(#p2c4944fbe3)" d="M 178.659523 129.120363 
Q 180.297649 129.120363 181.492696 129.768243 
Q 183.224501 130.698599 183.611879 133.030968 
L 182.054773 133.030968 
Q 181.768671 131.727433 180.874917 131.131383 
Q 179.981164 130.535333 178.619013 130.535333 
Q 177.006206 130.535333 175.902306 131.776672 
Q 174.798407 133.015419 174.798407 135.469589 
Q 174.798407 137.589453 175.707352 138.921495 
Q 176.618828 140.253536 178.674714 140.253536 
Q 180.249543 140.253536 181.28255 139.320589 
Q 182.315557 138.38505 182.338344 136.293693 
L 178.700033 136.293693 
L 178.700033 134.959059 
L 183.80177 134.959059 
L 183.80177 141.323834 
L 182.789018 141.323834 
L 182.409236 139.792246 
Q 181.611694 140.691503 180.993916 141.041359 
Q 179.955845 141.64 178.358229 141.64 
Q 176.294748 141.64 174.806003 140.271677 
Q 173.183068 138.553499 173.183068 135.557701 
Q 173.183068 132.569677 174.765492 130.804851 
Q 176.269429 129.120363 178.659523 129.120363 
z
M 178.398739 129.102222 
L 178.398739 129.102222 
z
" style="fill:#ffa600;"/>
   </g>
   <g id="patch_32">
    <path clip-path="url(#p2c4944fbe3)" d="M 183.80177 116.564444 
L 183.80177 118.058272 
L 179.391802 118.058272 
L 179.391802 129.102222 
L 177.593036 129.102222 
L 177.593036 118.058272 
L 173.183068 118.058272 
L 173.183068 116.564444 
L 183.80177 116.564444 
z
" style="fill:#ff0000;"/>
   </g>
   <g id="patch_33">
    <path clip-path="url(#p2c4944fbe3)" d="M 178.766231 91.488889 
Q 181.040177 91.488889 182.294498 93.874567 
Q 183.548819 96.25506 183.68703 99.283834 
L 182.106741 99.283834 
Q 181.838145 96.986322 181.034962 95.643081 
Q 180.231779 94.294654 178.781878 94.294654 
Q 177.013832 94.294654 175.926406 96.768499 
Q 174.83898 99.237158 174.83898 104.340435 
Q 174.83898 108.525745 175.819489 111.129246 
Q 176.802606 113.727562 178.750585 113.727562 
Q 180.5421 113.727562 181.480885 110.989218 
Q 181.976355 109.547438 182.221482 107.192877 
L 183.80177 107.192877 
Q 183.590543 110.952914 182.401416 113.499366 
Q 180.974984 116.564444 178.555005 116.564444 
Q 176.468816 116.564444 175.050207 114.04911 
Q 173.183068 110.729905 173.183068 103.790692 
Q 173.183068 98.52664 174.58603 95.155573 
Q 176.101125 91.488889 178.766231 91.488889 
z
M 178.440264 91.488889 
L 178.440264 91.488889 
z
" style="fill:#0000ff;"/>
   </g>
   <g id="patch_34">
    <path clip-path="url(#p2c4944fbe3)" d="M 180.310583 65.804332 
L 178.504082 38.112529 
L 176.583541 65.804332 
L 180.310583 65.804332 
z
M 177.661739 28.8 
L 179.483791 28.8 
L 183.80177 91.488889 
L 182.034146 91.488889 
L 180.828948 72.713628 
L 176.122196 72.713628 
L 174.83406 91.488889 
L 173.183068 91.488889 
L 177.661739 28.8 
z
M 178.496307 28.8 
L 178.496307 28.8 
z
" style="fill:#008000;"/>
   </g>
   <g id="patch_35">
    <path clip-path="url(#p2c4944fbe3)" d="M 189.943812 129.102222 
Q 192.217758 129.102222 193.472079 130.295061 
Q 194.726401 131.485308 194.864611 132.999695 
L 193.284322 132.999695 
Q 193.015726 131.850939 192.212543 131.179318 
Q 191.40936 130.505105 189.959459 130.505105 
Q 188.191414 130.505105 187.103988 131.742027 
Q 186.016561 132.976357 186.016561 135.527995 
Q 186.016561 137.62065 186.99707 138.922401 
Q 187.980187 140.221559 189.928166 140.221559 
Q 191.719681 140.221559 192.658466 138.852387 
Q 193.153936 138.131497 193.399063 136.954216 
L 194.979351 136.954216 
Q 194.768124 138.834235 193.578997 140.107461 
Q 192.152565 141.64 189.732586 141.64 
Q 187.646397 141.64 186.227788 140.382333 
Q 184.360649 138.72273 184.360649 135.253124 
Q 184.360649 132.621098 185.763611 130.935564 
Q 187.278706 129.102222 189.943812 129.102222 
z
M 189.617845 129.102222 
L 189.617845 129.102222 
z
" style="fill:#0000ff;"/>
   </g>
   <g id="patch_36">
    <path clip-path="url(#p2c4944fbe3)" d="M 189.837104 116.582585 
Q 191.47523 116.582585 192.670277 117.230465 
Q 194.402083 118.160821 194.78946 120.49319 
L 193.232354 120.49319 
Q 192.946252 119.189655 192.052498 118.593605 
Q 191.158745 117.997555 189.796594 117.997555 
Q 188.183787 117.997555 187.079887 119.238894 
Q 185.975988 120.477641 185.975988 122.931811 
Q 185.975988 125.051675 186.884933 126.383717 
Q 187.796409 127.715759 189.852295 127.715759 
Q 191.427124 127.715759 192.460131 126.782811 
Q 193.493138 125.847272 193.515925 123.755915 
L 189.877614 123.755915 
L 189.877614 122.421282 
L 194.979351 122.421282 
L 194.979351 128.786057 
L 193.966599 128.786057 
L 193.586817 127.254468 
Q 192.789275 128.153726 192.171497 128.503581 
Q 191.133426 129.102222 189.53581 129.102222 
Q 187.472329 129.102222 185.983584 127.733899 
Q 184.360649 126.015721 184.360649 123.019923 
Q 184.360649 120.031899 185.943074 118.267074 
Q 187.44701 116.582585 189.837104 116.582585 
z
M 189.57632 116.564444 
L 189.57632 116.564444 
z
" style="fill:#ffa600;"/>
   </g>
   <g id="patch_37">
    <path clip-path="url(#p2c4944fbe3)" d="M 194.979351 91.488889 
L 194.979351 94.476545 
L 190.569383 94.476545 
L 190.569383 116.564444 
L 188.770617 116.564444 
L 188.770617 94.476545 
L 184.360649 94.476545 
L 184.360649 91.488889 
L 194.979351 91.488889 
z
" style="fill:#ff0000;"/>
   </g>
   <g id="patch_38">
    <path clip-path="url(#p2c4944fbe3)" d="M 191.488164 65.804332 
L 189.681663 38.112529 
L 187.761122 65.804332 
L 191.488164 65.804332 
z
M 188.83932 28.8 
L 190.661373 28.8 
L 194.979351 91.488889 
L 193.211727 91.488889 
L 192.006529 72.713628 
L 187.299777 72.713628 
L 186.011641 91.488889 
L 184.360649 91.488889 
L 188.83932 28.8 
z
M 189.673888 28.8 
L 189.673888 28.8 
z
" style="fill:#008000;"/>
   </g>
   <g id="patch_39">
    <path clip-path="url(#p2c4944fbe3)" d="M 202.665746 136.503089 
L 200.859244 130.964728 
L 198.938703 136.503089 
L 202.665746 136.503089 
z
M 200.016902 129.102222 
L 201.838954 129.102222 
L 206.156932 141.64 
L 204.389308 141.64 
L 203.18411 137.884948 
L 198.477358 137.884948 
L 197.189222 141.64 
L 195.53823 141.64 
L 200.016902 129.102222 
z
M 200.851469 129.102222 
L 200.851469 129.102222 
z
" style="fill:#008000;"/>
   </g>
   <g id="patch_40">
    <path clip-path="url(#p2c4944fbe3)" d="M 206.156932 116.564444 
L 206.156932 118.058272 
L 201.746964 118.058272 
L 201.746964 129.102222 
L 199.948198 129.102222 
L 199.948198 118.058272 
L 195.53823 118.058272 
L 195.53823 116.564444 
L 206.156932 116.564444 
z
" style="fill:#ff0000;"/>
   </g>
   <g id="patch_41">
    <path clip-path="url(#p2c4944fbe3)" d="M 201.014685 91.52517 
Q 202.652811 91.52517 203.847858 92.820931 
Q 205.579664 94.681643 205.967041 99.34638 
L 204.409935 99.34638 
Q 204.123833 96.73931 203.23008 95.547211 
Q 202.336326 94.355111 200.974175 94.355111 
Q 199.361368 94.355111 198.257469 96.837788 
Q 197.153569 99.315282 197.153569 104.223622 
Q 197.153569 108.46335 198.062514 111.127434 
Q 198.97399 113.791517 201.029876 113.791517 
Q 202.604705 113.791517 203.637712 111.925622 
Q 204.670719 110.054544 204.693506 105.871829 
L 201.055195 105.871829 
L 201.055195 103.202563 
L 206.156932 103.202563 
L 206.156932 115.932113 
L 205.14418 115.932113 
L 204.764399 112.868936 
Q 203.966857 114.667451 203.349078 115.367162 
Q 202.311007 116.564444 200.713392 116.564444 
Q 198.64991 116.564444 197.161165 113.827798 
Q 195.53823 110.391442 195.53823 104.399846 
Q 195.53823 98.423799 197.120655 94.894147 
Q 198.624591 91.52517 201.014685 91.52517 
z
M 200.753902 91.488889 
L 200.753902 91.488889 
z
" style="fill:#ffa600;"/>
   </g>
   <g id="patch_42">
    <path clip-path="url(#p2c4944fbe3)" d="M 201.121393 28.8 
Q 203.395339 28.8 204.649661 34.764196 
Q 205.903982 40.715427 206.042192 48.287363 
L 204.461904 48.287363 
Q 204.193307 42.543583 203.390124 39.185481 
Q 202.586941 35.814413 201.13704 35.814413 
Q 199.368995 35.814413 198.281569 41.999026 
Q 197.194143 48.170672 197.194143 60.928866 
Q 197.194143 71.392141 198.174651 77.900894 
Q 199.157768 84.396682 201.105747 84.396682 
Q 202.897262 84.396682 203.836047 77.550822 
Q 204.331517 73.946373 204.576644 68.05997 
L 206.156932 68.05997 
Q 205.945706 77.460062 204.756578 83.826193 
Q 203.330146 91.488889 200.910167 91.488889 
Q 198.823978 91.488889 197.405369 85.200552 
Q 195.53823 76.902539 195.53823 59.554508 
Q 195.53823 46.394379 196.941192 37.96671 
Q 198.456287 28.8 201.121393 28.8 
z
M 200.795426 28.8 
L 200.795426 28.8 
z
" style="fill:#0000ff;"/>
   </g>
   <g id="patch_43">
    <path clip-path="url(#p2c4944fbe3)" d="M 212.192266 129.120363 
Q 213.830392 129.120363 215.025439 129.768243 
Q 216.757245 130.698599 217.144622 133.030968 
L 215.587517 133.030968 
Q 215.301414 131.727433 214.407661 131.131383 
Q 213.513907 130.535333 212.151756 130.535333 
Q 210.538949 130.535333 209.43505 131.776672 
Q 208.33115 133.015419 208.33115 135.469589 
Q 208.33115 137.589453 209.240095 138.921495 
Q 210.151572 140.253536 212.207458 140.253536 
Q 213.782287 140.253536 214.815293 139.320589 
Q 215.8483 138.38505 215.871087 136.293693 
L 212.232776 136.293693 
L 212.232776 134.959059 
L 217.334513 134.959059 
L 217.334513 141.323834 
L 216.321762 141.323834 
L 215.94198 139.792246 
Q 215.144438 140.691503 214.526659 141.041359 
Q 213.488589 141.64 211.890973 141.64 
Q 209.827491 141.64 208.338746 140.271677 
Q 206.715811 138.553499 206.715811 135.557701 
Q 206.715811 132.569677 208.298236 130.804851 
Q 209.802172 129.120363 212.192266 129.120363 
z
M 211.931483 129.102222 
L 211.931483 129.102222 
z
" style="fill:#ffa600;"/>
   </g>
   <g id="patch_44">
    <path clip-path="url(#p2c4944fbe3)" d="M 217.334513 116.564444 
L 217.334513 118.058272 
L 212.924545 118.058272 
L 212.924545 129.102222 
L 211.12578 129.102222 
L 211.12578 118.058272 
L 206.715811 118.058272 
L 206.715811 116.564444 
L 217.334513 116.564444 
z
" style="fill:#ff0000;"/>
   </g>
   <g id="patch_45">
    <path clip-path="url(#p2c4944fbe3)" d="M 212.298975 91.488889 
Q 214.572921 91.488889 215.827242 93.874567 
Q 217.081563 96.25506 217.219773 99.283834 
L 215.639485 99.283834 
Q 215.370888 96.986322 214.567705 95.643081 
Q 213.764522 94.294654 212.314621 94.294654 
Q 210.546576 94.294654 209.45915 96.768499 
Q 208.371724 99.237158 208.371724 104.340435 
Q 208.371724 108.525745 209.352233 111.129246 
Q 210.335349 113.727562 212.283328 113.727562 
Q 214.074843 113.727562 215.013628 110.989218 
Q 215.509098 109.547438 215.754225 107.192877 
L 217.334513 107.192877 
Q 217.123287 110.952914 215.934159 113.499366 
Q 214.507727 116.564444 212.087748 116.564444 
Q 210.001559 116.564444 208.58295 114.04911 
Q 206.715811 110.729905 206.715811 103.790692 
Q 206.715811 98.52664 208.118773 95.155573 
Q 209.633868 91.488889 212.298975 91.488889 
z
M 211.973008 91.488889 
L 211.973008 91.488889 
z
" style="fill:#0000ff;"/>
   </g>
   <g id="patch_46">
    <path clip-path="url(#p2c4944fbe3)" d="M 213.843327 65.804332 
L 212.036825 38.112529 
L 210.116284 65.804332 
L 213.843327 65.804332 
z
M 211.194483 28.8 
L 213.016535 28.8 
L 217.334513 91.488889 
L 215.566889 91.488889 
L 214.361691 72.713628 
L 209.654939 72.713628 
L 208.366803 91.488889 
L 206.715811 91.488889 
L 211.194483 28.8 
z
M 212.02905 28.8 
L 212.02905 28.8 
z
" style="fill:#008000;"/>
   </g>
   <g id="patch_47">
    <path clip-path="url(#p2c4944fbe3)" d="M 223.476556 129.102222 
Q 225.750502 129.102222 227.004823 130.295061 
Q 228.259144 131.485308 228.397354 132.999695 
L 226.817066 132.999695 
Q 226.548469 131.850939 225.745286 131.179318 
Q 224.942103 130.505105 223.492202 130.505105 
Q 221.724157 130.505105 220.636731 131.742027 
Q 219.549305 132.976357 219.549305 135.527995 
Q 219.549305 137.62065 220.529814 138.922401 
Q 221.51293 140.221559 223.460909 140.221559 
Q 225.252424 140.221559 226.191209 138.852387 
Q 226.686679 138.131497 226.931806 136.954216 
L 228.512094 136.954216 
Q 228.300868 138.834235 227.11174 140.107461 
Q 225.685308 141.64 223.265329 141.64 
Q 221.17914 141.64 219.760531 140.382333 
Q 217.893392 138.72273 217.893392 135.253124 
Q 217.893392 132.621098 219.296354 130.935564 
Q 220.811449 129.102222 223.476556 129.102222 
z
M 223.150589 129.102222 
L 223.150589 129.102222 
z
" style="fill:#0000ff;"/>
   </g>
   <g id="patch_48">
    <path clip-path="url(#p2c4944fbe3)" d="M 228.512094 116.564444 
L 228.512094 118.058272 
L 224.102126 118.058272 
L 224.102126 129.102222 
L 222.303361 129.102222 
L 222.303361 118.058272 
L 217.893392 118.058272 
L 217.893392 116.564444 
L 228.512094 116.564444 
z
" style="fill:#ff0000;"/>
   </g>
   <g id="patch_49">
    <path clip-path="url(#p2c4944fbe3)" d="M 223.369847 91.52517 
Q 225.007973 91.52517 226.20302 92.820931 
Q 227.934826 94.681643 228.322203 99.34638 
L 226.765098 99.34638 
Q 226.478995 96.73931 225.585242 95.547211 
Q 224.691488 94.355111 223.329337 94.355111 
Q 221.71653 94.355111 220.612631 96.837788 
Q 219.508731 99.315282 219.508731 104.223622 
Q 219.508731 108.46335 220.417676 111.127434 
Q 221.329153 113.791517 223.385039 113.791517 
Q 224.959868 113.791517 225.992874 111.925622 
Q 227.025881 110.054544 227.048668 105.871829 
L 223.410357 105.871829 
L 223.410357 103.202563 
L 228.512094 103.202563 
L 228.512094 115.932113 
L 227.499343 115.932113 
L 227.119561 112.868936 
Q 226.322019 114.667451 225.70424 115.367162 
Q 224.66617 116.564444 223.068554 116.564444 
Q 221.005072 116.564444 219.516327 113.827798 
Q 217.893392 110.391442 217.893392 104.399846 
Q 217.893392 98.423799 219.475817 94.894147 
Q 220.979753 91.52517 223.369847 91.52517 
z
M 223.109064 91.488889 
L 223.109064 91.488889 
z
" style="fill:#ffa600;"/>
   </g>
   <g id="patch_50">
    <path clip-path="url(#p2c4944fbe3)" d="M 225.020908 65.804332 
L 223.214407 38.112529 
L 221.293865 65.804332 
L 225.020908 65.804332 
z
M 222.372064 28.8 
L 224.194116 28.8 
L 228.512094 91.488889 
L 226.744471 91.488889 
L 225.539273 72.713628 
L 220.832521 72.713628 
L 219.544384 91.488889 
L 217.893392 91.488889 
L 222.372064 28.8 
z
M 223.206631 28.8 
L 223.206631 28.8 
z
" style="fill:#008000;"/>
   </g>
   <g id="patch_51">
    <path clip-path="url(#p2c4944fbe3)" d="M 236.198489 136.503089 
L 234.391988 130.964728 
L 232.471446 136.503089 
L 236.198489 136.503089 
z
M 233.549645 129.102222 
L 235.371697 129.102222 
L 239.689676 141.64 
L 237.922052 141.64 
L 236.716854 137.884948 
L 232.010102 137.884948 
L 230.721965 141.64 
L 229.070973 141.64 
L 233.549645 129.102222 
z
M 234.384212 129.102222 
L 234.384212 129.102222 
z
" style="fill:#008000;"/>
   </g>
   <g id="patch_52">
    <path clip-path="url(#p2c4944fbe3)" d="M 239.689676 116.564444 
L 239.689676 118.058272 
L 235.279707 118.058272 
L 235.279707 129.102222 
L 233.480942 129.102222 
L 233.480942 118.058272 
L 229.070973 118.058272 
L 229.070973 116.564444 
L 239.689676 116.564444 
z
" style="fill:#ff0000;"/>
   </g>
   <g id="patch_53">
    <path clip-path="url(#p2c4944fbe3)" d="M 234.547429 91.52517 
Q 236.185554 91.52517 237.380602 92.820931 
Q 239.112407 94.681643 239.499785 99.34638 
L 237.942679 99.34638 
Q 237.656576 96.73931 236.762823 95.547211 
Q 235.86907 94.355111 234.506918 94.355111 
Q 232.894111 94.355111 231.790212 96.837788 
Q 230.686312 99.315282 230.686312 104.223622 
Q 230.686312 108.46335 231.595257 111.127434 
Q 232.506734 113.791517 234.56262 113.791517 
Q 236.137449 113.791517 237.170456 111.925622 
Q 238.203462 110.054544 238.226249 105.871829 
L 234.587939 105.871829 
L 234.587939 103.202563 
L 239.689676 103.202563 
L 239.689676 115.932113 
L 238.676924 115.932113 
L 238.297142 112.868936 
Q 237.4996 114.667451 236.881821 115.367162 
Q 235.843751 116.564444 234.246135 116.564444 
Q 232.182653 116.564444 230.693908 113.827798 
Q 229.070973 110.391442 229.070973 104.399846 
Q 229.070973 98.423799 230.653398 94.894147 
Q 232.157334 91.52517 234.547429 91.52517 
z
M 234.286645 91.488889 
L 234.286645 91.488889 
z
" style="fill:#ffa600;"/>
   </g>
   <g id="patch_54">
    <path clip-path="url(#p2c4944fbe3)" d="M 234.654137 28.8 
Q 236.928083 28.8 238.182404 34.764196 
Q 239.436725 40.715427 239.574935 48.287363 
L 237.994647 48.287363 
Q 237.72605 42.543583 236.922867 39.185481 
Q 236.119685 35.814413 234.669783 35.814413 
Q 232.901738 35.814413 231.814312 41.999026 
Q 230.726886 48.170672 230.726886 60.928866 
Q 230.726886 71.392141 231.707395 77.900894 
Q 232.690511 84.396682 234.63849 84.396682 
Q 236.430005 84.396682 237.36879 77.550822 
Q 237.86426 73.946373 238.109387 68.05997 
L 239.689676 68.05997 
Q 239.478449 77.460062 238.289321 83.826193 
Q 236.862889 91.488889 234.44291 91.488889 
Q 232.356721 91.488889 230.938113 85.200552 
Q 229.070973 76.902539 229.070973 59.554508 
Q 229.070973 46.394379 230.473936 37.96671 
Q 231.98903 28.8 234.654137 28.8 
z
M 234.32817 28.8 
L 234.32817 28.8 
z
" style="fill:#0000ff;"/>
   </g>
   <g id="patch_55">
    <path clip-path="url(#p2c4944fbe3)" d="M 247.37607 136.503089 
L 245.569569 130.964728 
L 243.649027 136.503089 
L 247.37607 136.503089 
z
M 244.727226 129.102222 
L 246.549278 129.102222 
L 250.867257 141.64 
L 249.099633 141.64 
L 247.894435 137.884948 
L 243.187683 137.884948 
L 241.899546 141.64 
L 240.248555 141.64 
L 244.727226 129.102222 
z
M 245.561793 129.102222 
L 245.561793 129.102222 
z
" style="fill:#008000;"/>
   </g>
   <g id="patch_56">
    <path clip-path="url(#p2c4944fbe3)" d="M 245.72501 116.582585 
Q 247.363136 116.582585 248.558183 117.230465 
Q 250.289988 118.160821 250.677366 120.49319 
L 249.12026 120.49319 
Q 248.834158 119.189655 247.940404 118.593605 
Q 247.046651 117.997555 245.6845 117.997555 
Q 244.071692 117.997555 242.967793 119.238894 
Q 241.863894 120.477641 241.863894 122.931811 
Q 241.863894 125.051675 242.772838 126.383717 
Q 243.684315 127.715759 245.740201 127.715759 
Q 247.31503 127.715759 248.348037 126.782811 
Q 249.381043 125.847272 249.40383 123.755915 
L 245.76552 123.755915 
L 245.76552 122.421282 
L 250.867257 122.421282 
L 250.867257 128.786057 
L 249.854505 128.786057 
L 249.474723 127.254468 
Q 248.677181 128.153726 248.059402 128.503581 
Q 247.021332 129.102222 245.423716 129.102222 
Q 243.360234 129.102222 241.871489 127.733899 
Q 240.248555 126.015721 240.248555 123.019923 
Q 240.248555 120.031899 241.830979 118.267074 
Q 243.334916 116.582585 245.72501 116.582585 
z
M 245.464226 116.564444 
L 245.464226 116.564444 
z
" style="fill:#ffa600;"/>
   </g>
   <g id="patch_57">
    <path clip-path="url(#p2c4944fbe3)" d="M 250.867257 104.026667 
L 250.867257 105.520495 
L 246.457288 105.520495 
L 246.457288 116.564444 
L 244.658523 116.564444 
L 244.658523 105.520495 
L 240.248555 105.520495 
L 240.248555 104.026667 
L 250.867257 104.026667 
z
" style="fill:#ff0000;"/>
   </g>
   <g id="patch_58">
    <path clip-path="url(#p2c4944fbe3)" d="M 245.831718 28.8 
Q 248.105664 28.8 249.359985 35.957036 
Q 250.614306 43.098512 250.752516 52.184836 
L 249.172228 52.184836 
Q 248.903631 45.292299 248.100448 41.262577 
Q 247.297266 37.217296 245.847364 37.217296 
Q 244.079319 37.217296 242.991893 44.638831 
Q 241.904467 52.044807 241.904467 67.354639 
Q 241.904467 79.910569 242.884976 87.721073 
Q 243.868093 95.516018 245.816071 95.516018 
Q 247.607586 95.516018 248.546371 87.300986 
Q 249.041841 82.975647 249.286968 75.911964 
L 250.867257 75.911964 
Q 250.65603 87.192074 249.466902 94.831432 
Q 248.040471 104.026667 245.620491 104.026667 
Q 243.534302 104.026667 242.115694 96.480662 
Q 240.248555 86.523047 240.248555 65.705409 
Q 240.248555 49.913255 241.651517 39.800052 
Q 243.166611 28.8 245.831718 28.8 
z
M 245.505751 28.8 
L 245.505751 28.8 
z
" style="fill:#0000ff;"/>
   </g>
   <g id="patch_59">
    <path clip-path="url(#p2c4944fbe3)" d="M 257.009299 129.102222 
Q 259.283245 129.102222 260.537566 130.295061 
Q 261.791887 131.485308 261.930097 132.999695 
L 260.349809 132.999695 
Q 260.081212 131.850939 259.27803 131.179318 
Q 258.474847 130.505105 257.024945 130.505105 
Q 255.2569 130.505105 254.169474 131.742027 
Q 253.082048 132.976357 253.082048 135.527995 
Q 253.082048 137.62065 254.062557 138.922401 
Q 255.045674 140.221559 256.993653 140.221559 
Q 258.785167 140.221559 259.723952 138.852387 
Q 260.219422 138.131497 260.46455 136.954216 
L 262.044838 136.954216 
Q 261.833611 138.834235 260.644483 140.107461 
Q 259.218052 141.64 256.798072 141.64 
Q 254.711883 141.64 253.293275 140.382333 
Q 251.426136 138.72273 251.426136 135.253124 
Q 251.426136 132.621098 252.829098 130.935564 
Q 254.344193 129.102222 257.009299 129.102222 
z
M 256.683332 129.102222 
L 256.683332 129.102222 
z
" style="fill:#0000ff;"/>
   </g>
   <g id="patch_60">
    <path clip-path="url(#p2c4944fbe3)" d="M 262.044838 116.564444 
L 262.044838 118.058272 
L 257.634869 118.058272 
L 257.634869 129.102222 
L 255.836104 129.102222 
L 255.836104 118.058272 
L 251.426136 118.058272 
L 251.426136 116.564444 
L 262.044838 116.564444 
z
" style="fill:#ff0000;"/>
   </g>
   <g id="patch_61">
    <path clip-path="url(#p2c4944fbe3)" d="M 258.553651 106.290622 
L 256.74715 95.213901 
L 254.826609 106.290622 
L 258.553651 106.290622 
z
M 255.904807 91.488889 
L 257.726859 91.488889 
L 262.044838 116.564444 
L 260.277214 116.564444 
L 259.072016 109.05434 
L 254.365264 109.05434 
L 253.077127 116.564444 
L 251.426136 116.564444 
L 255.904807 91.488889 
z
M 256.739374 91.488889 
L 256.739374 91.488889 
z
" style="fill:#008000;"/>
   </g>
   <g id="patch_62">
    <path clip-path="url(#p2c4944fbe3)" d="M 256.902591 28.890703 
Q 258.540717 28.890703 259.735764 32.130104 
Q 261.467569 36.781884 261.854947 48.443728 
L 260.297841 48.443728 
Q 260.011739 41.926053 259.117985 38.945804 
Q 258.224232 35.965555 256.862081 35.965555 
Q 255.249274 35.965555 254.145374 42.172247 
Q 253.041475 48.365982 253.041475 60.636833 
Q 253.041475 71.236154 253.950419 77.896362 
Q 254.861896 84.556571 256.917782 84.556571 
Q 258.492611 84.556571 259.525618 79.891833 
Q 260.558625 75.214138 260.581411 64.757352 
L 256.943101 64.757352 
L 256.943101 58.084185 
L 262.044838 58.084185 
L 262.044838 89.908061 
L 261.032086 89.908061 
L 260.652304 82.250117 
Q 259.854762 86.746406 259.236984 88.495682 
Q 258.198913 91.488889 256.601297 91.488889 
Q 254.537815 91.488889 253.04907 84.647274 
Q 251.426136 76.056382 251.426136 61.077392 
Q 251.426136 46.137274 253.00856 37.313146 
Q 254.512497 28.890703 256.902591 28.890703 
z
M 256.641807 28.8 
L 256.641807 28.8 
z
" style="fill:#ffa600;"/>
   </g>
   <g id="patch_63">
    <path clip-path="url(#p2c4944fbe3)" d="M 268.080172 129.120363 
Q 269.718298 129.120363 270.913345 129.768243 
Q 272.64515 130.698599 273.032528 133.030968 
L 271.475422 133.030968 
Q 271.18932 131.727433 270.295566 131.131383 
Q 269.401813 130.535333 268.039662 130.535333 
Q 266.426855 130.535333 265.322955 131.776672 
Q 264.219056 133.015419 264.219056 135.469589 
Q 264.219056 137.589453 265.128001 138.921495 
Q 266.039477 140.253536 268.095363 140.253536 
Q 269.670192 140.253536 270.703199 139.320589 
Q 271.736206 138.38505 271.758993 136.293693 
L 268.120682 136.293693 
L 268.120682 134.959059 
L 273.222419 134.959059 
L 273.222419 141.323834 
L 272.209667 141.323834 
L 271.829885 139.792246 
Q 271.032343 140.691503 270.414565 141.041359 
Q 269.376494 141.64 267.778878 141.64 
Q 265.715397 141.64 264.226651 140.271677 
Q 262.603717 138.553499 262.603717 135.557701 
Q 262.603717 132.569677 264.186141 130.804851 
Q 265.690078 129.120363 268.080172 129.120363 
z
M 267.819388 129.102222 
L 267.819388 129.102222 
z
" style="fill:#ffa600;"/>
   </g>
   <g id="patch_64">
    <path clip-path="url(#p2c4944fbe3)" d="M 269.731232 118.8284 
L 267.924731 107.751678 
L 266.00419 118.8284 
L 269.731232 118.8284 
z
M 267.082388 104.026667 
L 268.90444 104.026667 
L 273.222419 129.102222 
L 271.454795 129.102222 
L 270.249597 121.592118 
L 265.542845 121.592118 
L 264.254709 129.102222 
L 262.603717 129.102222 
L 267.082388 104.026667 
z
M 267.916956 104.026667 
L 267.916956 104.026667 
z
" style="fill:#008000;"/>
   </g>
   <g id="patch_65">
    <path clip-path="url(#p2c4944fbe3)" d="M 273.222419 78.951111 
L 273.222419 81.938767 
L 268.812451 81.938767 
L 268.812451 104.026667 
L 267.013685 104.026667 
L 267.013685 81.938767 
L 262.603717 81.938767 
L 262.603717 78.951111 
L 273.222419 78.951111 
z
" style="fill:#ff0000;"/>
   </g>
   <g id="patch_66">
    <path clip-path="url(#p2c4944fbe3)" d="M 268.18688 28.8 
Q 270.460826 28.8 271.715147 33.571357 
Q 272.969468 38.332341 273.107678 44.38989 
L 271.52739 44.38989 
Q 271.258793 39.794866 270.455611 37.108385 
Q 269.652428 34.411531 268.202527 34.411531 
Q 266.434481 34.411531 265.347055 39.35922 
Q 264.259629 44.296538 264.259629 54.503093 
Q 264.259629 62.873713 265.240138 68.080715 
Q 266.223255 73.277345 268.171234 73.277345 
Q 269.962749 73.277345 270.901534 67.800657 
Q 271.397003 64.917098 271.642131 60.207976 
L 273.222419 60.207976 
Q 273.011192 67.72805 271.822065 72.820955 
Q 270.395633 78.951111 267.975654 78.951111 
Q 265.889465 78.951111 264.470856 73.920441 
Q 262.603717 67.282031 262.603717 53.403606 
Q 262.603717 42.875503 264.006679 36.133368 
Q 265.521774 28.8 268.18688 28.8 
z
M 267.860913 28.8 
L 267.860913 28.8 
z
" style="fill:#0000ff;"/>
   </g>
   <g id="patch_67">
    <path clip-path="url(#p2c4944fbe3)" d="M 279.364461 129.102222 
Q 281.638407 129.102222 282.892728 130.295061 
Q 284.14705 131.485308 284.28526 132.999695 
L 282.704971 132.999695 
Q 282.436375 131.850939 281.633192 131.179318 
Q 280.830009 130.505105 279.380108 130.505105 
Q 277.612063 130.505105 276.524636 131.742027 
Q 275.43721 132.976357 275.43721 135.527995 
Q 275.43721 137.62065 276.417719 138.922401 
Q 277.400836 140.221559 279.348815 140.221559 
Q 281.14033 140.221559 282.079115 138.852387 
Q 282.574585 138.131497 282.819712 136.954216 
L 284.4 136.954216 
Q 284.188773 138.834235 282.999646 140.107461 
Q 281.573214 141.64 279.153235 141.64 
Q 277.067046 141.64 275.648437 140.382333 
Q 273.781298 138.72273 273.781298 135.253124 
Q 273.781298 132.621098 275.18426 130.935564 
Q 276.699355 129.102222 279.364461 129.102222 
z
M 279.038494 129.102222 
L 279.038494 129.102222 
z
" style="fill:#0000ff;"/>
   </g>
   <g id="patch_68">
    <path clip-path="url(#p2c4944fbe3)" d="M 284.4 116.564444 
L 284.4 118.058272 
L 279.990032 118.058272 
L 279.990032 129.102222 
L 278.191266 129.102222 
L 278.191266 118.058272 
L 273.781298 118.058272 
L 273.781298 116.564444 
L 284.4 116.564444 
z
" style="fill:#ff0000;"/>
   </g>
   <g id="patch_69">
    <path clip-path="url(#p2c4944fbe3)" d="M 279.257753 91.52517 
Q 280.895879 91.52517 282.090926 92.820931 
Q 283.822732 94.681643 284.210109 99.34638 
L 282.653003 99.34638 
Q 282.366901 96.73931 281.473147 95.547211 
Q 280.579394 94.355111 279.217243 94.355111 
Q 277.604436 94.355111 276.500536 96.837788 
Q 275.396637 99.315282 275.396637 104.223622 
Q 275.396637 108.46335 276.305582 111.127434 
Q 277.217058 113.791517 279.272944 113.791517 
Q 280.847773 113.791517 281.88078 111.925622 
Q 282.913787 110.054544 282.936574 105.871829 
L 279.298263 105.871829 
L 279.298263 103.202563 
L 284.4 103.202563 
L 284.4 115.932113 
L 283.387248 115.932113 
L 283.007466 112.868936 
Q 282.209924 114.667451 281.592146 115.367162 
Q 280.554075 116.564444 278.956459 116.564444 
Q 276.892978 116.564444 275.404233 113.827798 
Q 273.781298 110.391442 273.781298 104.399846 
Q 273.781298 98.423799 275.363723 94.894147 
Q 276.867659 91.52517 279.257753 91.52517 
z
M 278.996969 91.488889 
L 278.996969 91.488889 
z
" style="fill:#ffa600;"/>
   </g>
   <g id="patch_70">
    <path clip-path="url(#p2c4944fbe3)" d="M 280.908813 65.804332 
L 279.102312 38.112529 
L 277.181771 65.804332 
L 280.908813 65.804332 
z
M 278.259969 28.8 
L 280.082022 28.8 
L 284.4 91.488889 
L 282.632376 91.488889 
L 281.427178 72.713628 
L 276.720426 72.713628 
L 275.43229 91.488889 
L 273.781298 91.488889 
L 278.259969 28.8 
z
M 279.094537 28.8 
L 279.094537 28.8 
z
" style="fill:#008000;"/>
   </g>
   <g id="matplotlib.axis_1">
    <g id="xtick_1">
     <g id="text_1">
      <!-- 0 -->
      <g style="fill:#262626;" transform="translate(94.688414 162.986875)scale(0.2 -0.2)">
       <defs>
        <path d="M 1731 4475 
Q 2600 4475 2988 3759 
Q 3288 3206 3288 2244 
Q 3288 1331 3016 734 
Q 2622 -122 1728 -122 
Q 922 -122 528 578 
Q 200 1163 200 2147 
Q 200 2909 397 3456 
Q 766 4475 1731 4475 
z
M 1725 391 
Q 2163 391 2422 778 
Q 2681 1166 2681 2222 
Q 2681 2984 2493 3476 
Q 2306 3969 1766 3969 
Q 1269 3969 1039 3501 
Q 809 3034 809 2125 
Q 809 1441 956 1025 
Q 1181 391 1725 391 
z
" id="Helvetica-30" transform="scale(0.015625)"/>
       </defs>
       <use xlink:href="#Helvetica-30"/>
      </g>
     </g>
    </g>
    <g id="xtick_2">
     <g id="text_2">
      <!-- 10 -->
      <g style="fill:#262626;" transform="translate(200.903287 162.986875)scale(0.2 -0.2)">
       <defs>
        <path d="M 613 3169 
L 613 3600 
Q 1222 3659 1462 3798 
Q 1703 3938 1822 4456 
L 2266 4456 
L 2266 0 
L 1666 0 
L 1666 3169 
L 613 3169 
z
" id="Helvetica-31" transform="scale(0.015625)"/>
       </defs>
       <use xlink:href="#Helvetica-31"/>
       <use x="55.615234" xlink:href="#Helvetica-30"/>
      </g>
     </g>
    </g>
    <g id="text_3">
     <!-- Position -->
     <g style="fill:#262626;" transform="translate(145.20125 189.089219)scale(0.25 -0.25)">
      <defs>
       <path d="M 547 4591 
L 2613 4591 
Q 3225 4591 3600 4245 
Q 3975 3900 3975 3275 
Q 3975 2738 3640 2339 
Q 3306 1941 2613 1941 
L 1169 1941 
L 1169 0 
L 547 0 
L 547 4591 
z
M 3347 3272 
Q 3347 3778 2972 3959 
Q 2766 4056 2406 4056 
L 1169 4056 
L 1169 2466 
L 2406 2466 
Q 2825 2466 3086 2644 
Q 3347 2822 3347 3272 
z
" id="Helvetica-50" transform="scale(0.015625)"/>
       <path d="M 1741 363 
Q 2300 363 2508 786 
Q 2716 1209 2716 1728 
Q 2716 2197 2566 2491 
Q 2328 2953 1747 2953 
Q 1231 2953 997 2559 
Q 763 2166 763 1609 
Q 763 1075 997 719 
Q 1231 363 1741 363 
z
M 1763 3444 
Q 2409 3444 2856 3012 
Q 3303 2581 3303 1744 
Q 3303 934 2909 406 
Q 2516 -122 1688 -122 
Q 997 -122 590 345 
Q 184 813 184 1600 
Q 184 2444 612 2944 
Q 1041 3444 1763 3444 
z
M 1744 3428 
L 1744 3428 
z
" id="Helvetica-6f" transform="scale(0.015625)"/>
       <path d="M 747 1050 
Q 772 769 888 619 
Q 1100 347 1625 347 
Q 1938 347 2175 483 
Q 2413 619 2413 903 
Q 2413 1119 2222 1231 
Q 2100 1300 1741 1391 
L 1294 1503 
Q 866 1609 663 1741 
Q 300 1969 300 2372 
Q 300 2847 642 3140 
Q 984 3434 1563 3434 
Q 2319 3434 2653 2991 
Q 2863 2709 2856 2384 
L 2325 2384 
Q 2309 2575 2191 2731 
Q 1997 2953 1519 2953 
Q 1200 2953 1036 2831 
Q 872 2709 872 2509 
Q 872 2291 1088 2159 
Q 1213 2081 1456 2022 
L 1828 1931 
Q 2434 1784 2641 1647 
Q 2969 1431 2969 969 
Q 2969 522 2630 197 
Q 2291 -128 1597 -128 
Q 850 -128 539 211 
Q 228 550 206 1050 
L 747 1050 
z
M 1578 3428 
L 1578 3428 
z
" id="Helvetica-73" transform="scale(0.015625)"/>
       <path d="M 413 3331 
L 984 3331 
L 984 0 
L 413 0 
L 413 3331 
z
M 413 4591 
L 984 4591 
L 984 3953 
L 413 3953 
L 413 4591 
z
" id="Helvetica-69" transform="scale(0.015625)"/>
       <path d="M 525 4281 
L 1094 4281 
L 1094 3347 
L 1628 3347 
L 1628 2888 
L 1094 2888 
L 1094 703 
Q 1094 528 1213 469 
Q 1278 434 1431 434 
Q 1472 434 1519 436 
Q 1566 438 1628 444 
L 1628 0 
Q 1531 -28 1426 -40 
Q 1322 -53 1200 -53 
Q 806 -53 665 148 
Q 525 350 525 672 
L 525 2888 
L 72 2888 
L 72 3347 
L 525 3347 
L 525 4281 
z
" id="Helvetica-74" transform="scale(0.015625)"/>
       <path d="M 413 3347 
L 947 3347 
L 947 2872 
Q 1184 3166 1450 3294 
Q 1716 3422 2041 3422 
Q 2753 3422 3003 2925 
Q 3141 2653 3141 2147 
L 3141 0 
L 2569 0 
L 2569 2109 
Q 2569 2416 2478 2603 
Q 2328 2916 1934 2916 
Q 1734 2916 1606 2875 
Q 1375 2806 1200 2600 
Q 1059 2434 1017 2257 
Q 975 2081 975 1753 
L 975 0 
L 413 0 
L 413 3347 
z
M 1734 3428 
L 1734 3428 
z
" id="Helvetica-6e" transform="scale(0.015625)"/>
      </defs>
      <use xlink:href="#Helvetica-50"/>
      <use x="66.699219" xlink:href="#Helvetica-6f"/>
      <use x="122.314453" xlink:href="#Helvetica-73"/>
      <use x="172.314453" xlink:href="#Helvetica-69"/>
      <use x="194.53125" xlink:href="#Helvetica-74"/>
      <use x="222.314453" xlink:href="#Helvetica-69"/>
      <use x="244.53125" xlink:href="#Helvetica-6f"/>
      <use x="300.146484" xlink:href="#Helvetica-6e"/>
     </g>
    </g>
   </g>
   <g id="matplotlib.axis_2">
    <g id="ytick_1">
     <g id="text_4">
      <!-- 0 -->
      <g style="fill:#262626;" transform="translate(76.818125 148.813438)scale(0.2 -0.2)">
       <use xlink:href="#Helvetica-30"/>
      </g>
     </g>
    </g>
    <g id="ytick_2">
     <g id="text_5">
      <!-- 0.25 -->
      <g style="fill:#262626;" transform="translate(49.018125 120.603437)scale(0.2 -0.2)">
       <defs>
        <path d="M 547 681 
L 1200 681 
L 1200 0 
L 547 0 
L 547 681 
z
" id="Helvetica-2e" transform="scale(0.015625)"/>
        <path d="M 200 0 
Q 231 578 439 1006 
Q 647 1434 1250 1784 
L 1850 2131 
Q 2253 2366 2416 2531 
Q 2672 2791 2672 3125 
Q 2672 3516 2437 3745 
Q 2203 3975 1813 3975 
Q 1234 3975 1013 3538 
Q 894 3303 881 2888 
L 309 2888 
Q 319 3472 525 3841 
Q 891 4491 1816 4491 
Q 2584 4491 2939 4075 
Q 3294 3659 3294 3150 
Q 3294 2613 2916 2231 
Q 2697 2009 2131 1694 
L 1703 1456 
Q 1397 1288 1222 1134 
Q 909 863 828 531 
L 3272 531 
L 3272 0 
L 200 0 
z
" id="Helvetica-32" transform="scale(0.015625)"/>
        <path d="M 791 1141 
Q 847 659 1238 475 
Q 1438 381 1700 381 
Q 2200 381 2440 700 
Q 2681 1019 2681 1406 
Q 2681 1875 2395 2131 
Q 2109 2388 1709 2388 
Q 1419 2388 1211 2275 
Q 1003 2163 856 1963 
L 369 1991 
L 709 4400 
L 3034 4400 
L 3034 3856 
L 1131 3856 
L 941 2613 
Q 1097 2731 1238 2791 
Q 1488 2894 1816 2894 
Q 2431 2894 2859 2497 
Q 3288 2100 3288 1491 
Q 3288 856 2895 371 
Q 2503 -113 1644 -113 
Q 1097 -113 676 195 
Q 256 503 206 1141 
L 791 1141 
z
" id="Helvetica-35" transform="scale(0.015625)"/>
       </defs>
       <use xlink:href="#Helvetica-30"/>
       <use x="55.615234" xlink:href="#Helvetica-2e"/>
       <use x="83.398438" xlink:href="#Helvetica-32"/>
       <use x="139.013672" xlink:href="#Helvetica-35"/>
      </g>
     </g>
    </g>
    <g id="ytick_3">
     <g id="text_6">
      <!-- 0.50 -->
      <g style="fill:#262626;" transform="translate(49.018125 92.393438)scale(0.2 -0.2)">
       <use xlink:href="#Helvetica-30"/>
       <use x="55.615234" xlink:href="#Helvetica-2e"/>
       <use x="83.398438" xlink:href="#Helvetica-35"/>
       <use x="139.013672" xlink:href="#Helvetica-30"/>
      </g>
     </g>
    </g>
    <g id="ytick_4">
     <g id="text_7">
      <!-- 0.75 -->
      <g style="fill:#262626;" transform="translate(49.018125 64.183437)scale(0.2 -0.2)">
       <defs>
        <path d="M 3347 4400 
L 3347 3909 
Q 3131 3700 2773 3181 
Q 2416 2663 2141 2063 
Q 1869 1478 1728 997 
Q 1638 688 1494 0 
L 872 0 
Q 1084 1281 1809 2550 
Q 2238 3294 2709 3834 
L 234 3834 
L 234 4400 
L 3347 4400 
z
" id="Helvetica-37" transform="scale(0.015625)"/>
       </defs>
       <use xlink:href="#Helvetica-30"/>
       <use x="55.615234" xlink:href="#Helvetica-2e"/>
       <use x="83.398438" xlink:href="#Helvetica-37"/>
       <use x="139.013672" xlink:href="#Helvetica-35"/>
      </g>
     </g>
    </g>
    <g id="ytick_5">
     <g id="text_8">
      <!-- 1.0 -->
      <g style="fill:#262626;" transform="translate(60.14 35.973437)scale(0.2 -0.2)">
       <use xlink:href="#Helvetica-31"/>
       <use x="55.615234" xlink:href="#Helvetica-2e"/>
       <use x="83.398438" xlink:href="#Helvetica-30"/>
      </g>
     </g>
    </g>
    <g id="text_9">
     <!-- Probability -->
     <g style="fill:#262626;" transform="translate(39.65875 143.579375)rotate(-90)scale(0.25 -0.25)">
      <defs>
       <path d="M 428 3347 
L 963 3347 
L 963 2769 
Q 1028 2938 1284 3180 
Q 1541 3422 1875 3422 
Q 1891 3422 1928 3419 
Q 1966 3416 2056 3406 
L 2056 2813 
Q 2006 2822 1964 2825 
Q 1922 2828 1872 2828 
Q 1447 2828 1219 2554 
Q 991 2281 991 1925 
L 991 0 
L 428 0 
L 428 3347 
z
" id="Helvetica-72" transform="scale(0.015625)"/>
       <path d="M 369 4606 
L 916 4606 
L 916 2941 
Q 1100 3181 1356 3307 
Q 1613 3434 1913 3434 
Q 2538 3434 2927 3004 
Q 3316 2575 3316 1738 
Q 3316 944 2931 419 
Q 2547 -106 1866 -106 
Q 1484 -106 1222 78 
Q 1066 188 888 428 
L 888 0 
L 369 0 
L 369 4606 
z
M 1831 391 
Q 2288 391 2514 753 
Q 2741 1116 2741 1709 
Q 2741 2238 2514 2584 
Q 2288 2931 1847 2931 
Q 1463 2931 1173 2647 
Q 884 2363 884 1709 
Q 884 1238 1003 944 
Q 1225 391 1831 391 
z
" id="Helvetica-62" transform="scale(0.015625)"/>
       <path d="M 844 891 
Q 844 647 1022 506 
Q 1200 366 1444 366 
Q 1741 366 2019 503 
Q 2488 731 2488 1250 
L 2488 1703 
Q 2384 1638 2221 1594 
Q 2059 1550 1903 1531 
L 1563 1488 
Q 1256 1447 1103 1359 
Q 844 1213 844 891 
z
M 2206 2028 
Q 2400 2053 2466 2191 
Q 2503 2266 2503 2406 
Q 2503 2694 2298 2823 
Q 2094 2953 1713 2953 
Q 1272 2953 1088 2716 
Q 984 2584 953 2325 
L 428 2325 
Q 444 2944 830 3186 
Q 1216 3428 1725 3428 
Q 2316 3428 2684 3203 
Q 3050 2978 3050 2503 
L 3050 575 
Q 3050 488 3086 434 
Q 3122 381 3238 381 
Q 3275 381 3322 386 
Q 3369 391 3422 400 
L 3422 -16 
Q 3291 -53 3222 -62 
Q 3153 -72 3034 -72 
Q 2744 -72 2613 134 
Q 2544 244 2516 444 
Q 2344 219 2022 53 
Q 1700 -113 1313 -113 
Q 847 -113 551 170 
Q 256 453 256 878 
Q 256 1344 547 1600 
Q 838 1856 1309 1916 
L 2206 2028 
z
M 1741 3428 
L 1741 3428 
z
" id="Helvetica-61" transform="scale(0.015625)"/>
       <path d="M 428 4591 
L 991 4591 
L 991 0 
L 428 0 
L 428 4591 
z
" id="Helvetica-6c" transform="scale(0.015625)"/>
       <path d="M 2503 3347 
L 3125 3347 
Q 3006 3025 2597 1878 
Q 2291 1016 2084 472 
Q 1597 -809 1397 -1090 
Q 1197 -1372 709 -1372 
Q 591 -1372 527 -1362 
Q 463 -1353 369 -1328 
L 369 -816 
Q 516 -856 581 -865 
Q 647 -875 697 -875 
Q 853 -875 926 -823 
Q 1000 -772 1050 -697 
Q 1066 -672 1162 -440 
Q 1259 -209 1303 -97 
L 66 3347 
L 703 3347 
L 1600 622 
L 2503 3347 
z
M 1597 3428 
L 1597 3428 
z
" id="Helvetica-79" transform="scale(0.015625)"/>
      </defs>
      <use xlink:href="#Helvetica-50"/>
      <use x="66.699219" xlink:href="#Helvetica-72"/>
      <use x="100" xlink:href="#Helvetica-6f"/>
      <use x="155.615234" xlink:href="#Helvetica-62"/>
      <use x="211.230469" xlink:href="#Helvetica-61"/>
      <use x="266.845703" xlink:href="#Helvetica-62"/>
      <use x="322.460938" xlink:href="#Helvetica-69"/>
      <use x="344.677734" xlink:href="#Helvetica-6c"/>
      <use x="366.894531" xlink:href="#Helvetica-69"/>
      <use x="389.111328" xlink:href="#Helvetica-74"/>
      <use x="416.894531" xlink:href="#Helvetica-79"/>
     </g>
    </g>
   </g>
   <g id="patch_71">
    <path d="M 94.94 141.64 
L 94.94 28.8 
" style="fill:none;stroke:#000000;stroke-linecap:square;stroke-linejoin:miter;"/>
   </g>
  </g>
 </g>
 <defs>
  <clipPath id="p2c4944fbe3">
   <rect height="112.84" width="189.46" x="94.94" y="28.8"/>
  </clipPath>
 </defs>
</svg>
