<?xml version="1.0" encoding="utf-8" standalone="no"?>
<!DOCTYPE svg PUBLIC "-//W3C//DTD SVG 1.1//EN"
  "http://www.w3.org/Graphics/SVG/1.1/DTD/svg11.dtd">
<svg height="216pt" version="1.1" viewBox="0 0 306 216" width="306pt" xmlns="http://www.w3.org/2000/svg" xmlns:xlink="http://www.w3.org/1999/xlink">
 <metadata>
  <rdf:RDF xmlns:cc="http://creativecommons.org/ns#" xmlns:dc="http://purl.org/dc/elements/1.1/" xmlns:rdf="http://www.w3.org/1999/02/22-rdf-syntax-ns#">
   <cc:Work>
    <dc:type rdf:resource="http://purl.org/dc/dcmitype/StillImage"/>
    <dc:date>2022-12-16T08:32:27.482692</dc:date>
    <dc:format>image/svg+xml</dc:format>
    <dc:creator>
     <cc:Agent>
      <dc:title>Matplotlib v3.4.2, https://matplotlib.org/</dc:title>
     </cc:Agent>
    </dc:creator>
   </cc:Work>
  </rdf:RDF>
 </metadata>
 <defs>
  <style type="text/css">*{stroke-linecap:butt;stroke-linejoin:round;}</style>
 </defs>
 <g id="figure_1">
  <g id="patch_1">
   <path d="M 0 216 
L 306 216 
L 306 0 
L 0 0 
z
" style="fill:#ffffff;"/>
  </g>
  <g id="axes_1">
   <g id="patch_2">
    <path d="M 94.94 141.64 
L 284.4 141.64 
L 284.4 28.8 
L 94.94 28.8 
z
" style="fill:#ffffff;"/>
   </g>
   <g id="line2d_1">
    <path clip-path="url(#p899a65e95c)" d="M 94.94 141.64 
L 284.4 141.64 
" style="fill:none;stroke:#000000;stroke-linecap:round;stroke-width:0.5;"/>
   </g>
   <g id="patch_3">
    <path clip-path="url(#p899a65e95c)" d="M 100.523163 129.102222 
Q 102.797109 129.102222 104.051431 130.295061 
Q 105.305752 131.485308 105.443962 132.999695 
L 103.863673 132.999695 
Q 103.595077 131.850939 102.791894 131.179318 
Q 101.988711 130.505105 100.53881 130.505105 
Q 98.770765 130.505105 97.683339 131.742027 
Q 96.595913 132.976357 96.595913 135.527995 
Q 96.595913 137.62065 97.576421 138.922401 
Q 98.559538 140.221559 100.507517 140.221559 
Q 102.299032 140.221559 103.237817 138.852387 
Q 103.733287 138.131497 103.978414 136.954216 
L 105.558702 136.954216 
Q 105.347475 138.834235 104.158348 140.107461 
Q 102.731916 141.64 100.311937 141.64 
Q 98.225748 141.64 96.807139 140.382333 
Q 94.94 138.72273 94.94 135.253124 
Q 94.94 132.621098 96.342962 130.935564 
Q 97.858057 129.102222 100.523163 129.102222 
z
M 100.197196 129.102222 
L 100.197196 129.102222 
z
" style="fill:#0000ff;"/>
   </g>
   <g id="patch_4">
    <path clip-path="url(#p899a65e95c)" d="M 100.416455 116.582585 
Q 102.054581 116.582585 103.249628 117.230465 
Q 104.981434 118.160821 105.368811 120.49319 
L 103.811705 120.49319 
Q 103.525603 119.189655 102.63185 118.593605 
Q 101.738096 117.997555 100.375945 117.997555 
Q 98.763138 117.997555 97.659238 119.238894 
Q 96.555339 120.477641 96.555339 122.931811 
Q 96.555339 125.051675 97.464284 126.383717 
Q 98.37576 127.715759 100.431646 127.715759 
Q 102.006475 127.715759 103.039482 126.782811 
Q 104.072489 125.847272 104.095276 123.755915 
L 100.456965 123.755915 
L 100.456965 122.421282 
L 105.558702 122.421282 
L 105.558702 128.786057 
L 104.54595 128.786057 
L 104.166168 127.254468 
Q 103.368626 128.153726 102.750848 128.503581 
Q 101.712777 129.102222 100.115161 129.102222 
Q 98.05168 129.102222 96.562935 127.733899 
Q 94.94 126.015721 94.94 123.019923 
Q 94.94 120.031899 96.522425 118.267074 
Q 98.026361 116.582585 100.416455 116.582585 
z
M 100.155671 116.564444 
L 100.155671 116.564444 
z
" style="fill:#ffa600;"/>
   </g>
   <g id="patch_5">
    <path clip-path="url(#p899a65e95c)" d="M 105.558702 104.026667 
L 105.558702 105.520495 
L 101.148734 105.520495 
L 101.148734 116.564444 
L 99.349968 116.564444 
L 99.349968 105.520495 
L 94.94 105.520495 
L 94.94 104.026667 
L 105.558702 104.026667 
z
" style="fill:#ff0000;"/>
   </g>
   <g id="patch_6">
    <path clip-path="url(#p899a65e95c)" d="M 102.067515 73.205199 
L 100.261014 39.975035 
L 98.340473 73.205199 
L 102.067515 73.205199 
z
M 99.418672 28.8 
L 101.240724 28.8 
L 105.558702 104.026667 
L 103.791078 104.026667 
L 102.58588 81.496354 
L 97.879128 81.496354 
L 96.590992 104.026667 
L 94.94 104.026667 
L 99.418672 28.8 
z
M 100.253239 28.8 
L 100.253239 28.8 
z
" style="fill:#008000;"/>
   </g>
   <g id="patch_7">
    <path clip-path="url(#p899a65e95c)" d="M 113.245097 136.503089 
L 111.438595 130.964728 
L 109.518054 136.503089 
L 113.245097 136.503089 
z
M 110.596253 129.102222 
L 112.418305 129.102222 
L 116.736283 141.64 
L 114.968659 141.64 
L 113.763461 137.884948 
L 109.056709 137.884948 
L 107.768573 141.64 
L 106.117581 141.64 
L 110.596253 129.102222 
z
M 111.43082 129.102222 
L 111.43082 129.102222 
z
" style="fill:#008000;"/>
   </g>
   <g id="patch_8">
    <path clip-path="url(#p899a65e95c)" d="M 111.594036 116.582585 
Q 113.232162 116.582585 114.427209 117.230465 
Q 116.159015 118.160821 116.546392 120.49319 
L 114.989286 120.49319 
Q 114.703184 119.189655 113.809431 118.593605 
Q 112.915677 117.997555 111.553526 117.997555 
Q 109.940719 117.997555 108.83682 119.238894 
Q 107.73292 120.477641 107.73292 122.931811 
Q 107.73292 125.051675 108.641865 126.383717 
Q 109.553341 127.715759 111.609227 127.715759 
Q 113.184056 127.715759 114.217063 126.782811 
Q 115.25007 125.847272 115.272857 123.755915 
L 111.634546 123.755915 
L 111.634546 122.421282 
L 116.736283 122.421282 
L 116.736283 128.786057 
L 115.723531 128.786057 
L 115.34375 127.254468 
Q 114.546208 128.153726 113.928429 128.503581 
Q 112.890358 129.102222 111.292743 129.102222 
Q 109.229261 129.102222 107.740516 127.733899 
Q 106.117581 126.015721 106.117581 123.019923 
Q 106.117581 120.031899 107.700006 118.267074 
Q 109.203942 116.582585 111.594036 116.582585 
z
M 111.333253 116.564444 
L 111.333253 116.564444 
z
" style="fill:#ffa600;"/>
   </g>
   <g id="patch_9">
    <path clip-path="url(#p899a65e95c)" d="M 116.736283 104.026667 
L 116.736283 105.520495 
L 112.326315 105.520495 
L 112.326315 116.564444 
L 110.527549 116.564444 
L 110.527549 105.520495 
L 106.117581 105.520495 
L 106.117581 104.026667 
L 116.736283 104.026667 
z
" style="fill:#ff0000;"/>
   </g>
   <g id="patch_10">
    <path clip-path="url(#p899a65e95c)" d="M 111.700744 28.8 
Q 113.97469 28.8 115.229012 35.957036 
Q 116.483333 43.098512 116.621543 52.184836 
L 115.041255 52.184836 
Q 114.772658 45.292299 113.969475 41.262577 
Q 113.166292 37.217296 111.716391 37.217296 
Q 109.948346 37.217296 108.86092 44.638831 
Q 107.773494 52.044807 107.773494 67.354639 
Q 107.773494 79.910569 108.754002 87.721073 
Q 109.737119 95.516018 111.685098 95.516018 
Q 113.476613 95.516018 114.415398 87.300986 
Q 114.910868 82.975647 115.155995 75.911964 
L 116.736283 75.911964 
Q 116.525057 87.192074 115.335929 94.831432 
Q 113.909497 104.026667 111.489518 104.026667 
Q 109.403329 104.026667 107.98472 96.480662 
Q 106.117581 86.523047 106.117581 65.705409 
Q 106.117581 49.913255 107.520543 39.800052 
Q 109.035638 28.8 111.700744 28.8 
z
M 111.374777 28.8 
L 111.374777 28.8 
z
" style="fill:#0000ff;"/>
   </g>
   <g id="patch_11">
    <path clip-path="url(#p899a65e95c)" d="M 122.878326 129.102222 
Q 125.152272 129.102222 126.406593 130.295061 
Q 127.660914 131.485308 127.799124 132.999695 
L 126.218836 132.999695 
Q 125.950239 131.850939 125.147056 131.179318 
Q 124.343873 130.505105 122.893972 130.505105 
Q 121.125927 130.505105 120.038501 131.742027 
Q 118.951075 132.976357 118.951075 135.527995 
Q 118.951075 137.62065 119.931584 138.922401 
Q 120.9147 140.221559 122.862679 140.221559 
Q 124.654194 140.221559 125.592979 138.852387 
Q 126.088449 138.131497 126.333576 136.954216 
L 127.913864 136.954216 
Q 127.702638 138.834235 126.51351 140.107461 
Q 125.087078 141.64 122.667099 141.64 
Q 120.58091 141.64 119.162301 140.382333 
Q 117.295162 138.72273 117.295162 135.253124 
Q 117.295162 132.621098 118.698124 130.935564 
Q 120.213219 129.102222 122.878326 129.102222 
z
M 122.552359 129.102222 
L 122.552359 129.102222 
z
" style="fill:#0000ff;"/>
   </g>
   <g id="patch_12">
    <path clip-path="url(#p899a65e95c)" d="M 122.771617 116.582585 
Q 124.409743 116.582585 125.60479 117.230465 
Q 127.336596 118.160821 127.723973 120.49319 
L 126.166868 120.49319 
Q 125.880765 119.189655 124.987012 118.593605 
Q 124.093258 117.997555 122.731107 117.997555 
Q 121.1183 117.997555 120.014401 119.238894 
Q 118.910501 120.477641 118.910501 122.931811 
Q 118.910501 125.051675 119.819446 126.383717 
Q 120.730923 127.715759 122.786809 127.715759 
Q 124.361638 127.715759 125.394644 126.782811 
Q 126.427651 125.847272 126.450438 123.755915 
L 122.812127 123.755915 
L 122.812127 122.421282 
L 127.913864 122.421282 
L 127.913864 128.786057 
L 126.901113 128.786057 
L 126.521331 127.254468 
Q 125.723789 128.153726 125.10601 128.503581 
Q 124.06794 129.102222 122.470324 129.102222 
Q 120.406842 129.102222 118.918097 127.733899 
Q 117.295162 126.015721 117.295162 123.019923 
Q 117.295162 120.031899 118.877587 118.267074 
Q 120.381523 116.582585 122.771617 116.582585 
z
M 122.510834 116.564444 
L 122.510834 116.564444 
z
" style="fill:#ffa600;"/>
   </g>
   <g id="patch_13">
    <path clip-path="url(#p899a65e95c)" d="M 127.913864 104.026667 
L 127.913864 105.520495 
L 123.503896 105.520495 
L 123.503896 116.564444 
L 121.705131 116.564444 
L 121.705131 105.520495 
L 117.295162 105.520495 
L 117.295162 104.026667 
L 127.913864 104.026667 
z
" style="fill:#ff0000;"/>
   </g>
   <g id="patch_14">
    <path clip-path="url(#p899a65e95c)" d="M 124.422678 73.205199 
L 122.616176 39.975035 
L 120.695635 73.205199 
L 124.422678 73.205199 
z
M 121.773834 28.8 
L 123.595886 28.8 
L 127.913864 104.026667 
L 126.14624 104.026667 
L 124.941042 81.496354 
L 120.23429 81.496354 
L 118.946154 104.026667 
L 117.295162 104.026667 
L 121.773834 28.8 
z
M 122.608401 28.8 
L 122.608401 28.8 
z
" style="fill:#008000;"/>
   </g>
   <g id="patch_15">
    <path clip-path="url(#p899a65e95c)" d="M 134.055907 129.102222 
Q 136.329853 129.102222 137.584174 130.295061 
Q 138.838495 131.485308 138.976705 132.999695 
L 137.396417 132.999695 
Q 137.12782 131.850939 136.324637 131.179318 
Q 135.521454 130.505105 134.071553 130.505105 
Q 132.303508 130.505105 131.216082 131.742027 
Q 130.128656 132.976357 130.128656 135.527995 
Q 130.128656 137.62065 131.109165 138.922401 
Q 132.092281 140.221559 134.04026 140.221559 
Q 135.831775 140.221559 136.77056 138.852387 
Q 137.26603 138.131497 137.511157 136.954216 
L 139.091445 136.954216 
Q 138.880219 138.834235 137.691091 140.107461 
Q 136.264659 141.64 133.84468 141.64 
Q 131.758491 141.64 130.339883 140.382333 
Q 128.472743 138.72273 128.472743 135.253124 
Q 128.472743 132.621098 129.875705 130.935564 
Q 131.3908 129.102222 134.055907 129.102222 
z
M 133.72994 129.102222 
L 133.72994 129.102222 
z
" style="fill:#0000ff;"/>
   </g>
   <g id="patch_16">
    <path clip-path="url(#p899a65e95c)" d="M 133.949198 116.582585 
Q 135.587324 116.582585 136.782371 117.230465 
Q 138.514177 118.160821 138.901554 120.49319 
L 137.344449 120.49319 
Q 137.058346 119.189655 136.164593 118.593605 
Q 135.270839 117.997555 133.908688 117.997555 
Q 132.295881 117.997555 131.191982 119.238894 
Q 130.088082 120.477641 130.088082 122.931811 
Q 130.088082 125.051675 130.997027 126.383717 
Q 131.908504 127.715759 133.96439 127.715759 
Q 135.539219 127.715759 136.572225 126.782811 
Q 137.605232 125.847272 137.628019 123.755915 
L 133.989709 123.755915 
L 133.989709 122.421282 
L 139.091445 122.421282 
L 139.091445 128.786057 
L 138.078694 128.786057 
L 137.698912 127.254468 
Q 136.90137 128.153726 136.283591 128.503581 
Q 135.245521 129.102222 133.647905 129.102222 
Q 131.584423 129.102222 130.095678 127.733899 
Q 128.472743 126.015721 128.472743 123.019923 
Q 128.472743 120.031899 130.055168 118.267074 
Q 131.559104 116.582585 133.949198 116.582585 
z
M 133.688415 116.564444 
L 133.688415 116.564444 
z
" style="fill:#ffa600;"/>
   </g>
   <g id="patch_17">
    <path clip-path="url(#p899a65e95c)" d="M 139.091445 104.026667 
L 139.091445 105.520495 
L 134.681477 105.520495 
L 134.681477 116.564444 
L 132.882712 116.564444 
L 132.882712 105.520495 
L 128.472743 105.520495 
L 128.472743 104.026667 
L 139.091445 104.026667 
z
" style="fill:#ff0000;"/>
   </g>
   <g id="patch_18">
    <path clip-path="url(#p899a65e95c)" d="M 135.600259 73.205199 
L 133.793758 39.975035 
L 131.873216 73.205199 
L 135.600259 73.205199 
z
M 132.951415 28.8 
L 134.773467 28.8 
L 139.091445 104.026667 
L 137.323822 104.026667 
L 136.118624 81.496354 
L 131.411872 81.496354 
L 130.123735 104.026667 
L 128.472743 104.026667 
L 132.951415 28.8 
z
M 133.785982 28.8 
L 133.785982 28.8 
z
" style="fill:#008000;"/>
   </g>
   <g id="patch_19">
    <path clip-path="url(#p899a65e95c)" d="M 146.77784 136.503089 
L 144.971339 130.964728 
L 143.050797 136.503089 
L 146.77784 136.503089 
z
M 144.128996 129.102222 
L 145.951048 129.102222 
L 150.269027 141.64 
L 148.501403 141.64 
L 147.296205 137.884948 
L 142.589453 137.884948 
L 141.301316 141.64 
L 139.650324 141.64 
L 144.128996 129.102222 
z
M 144.963563 129.102222 
L 144.963563 129.102222 
z
" style="fill:#008000;"/>
   </g>
   <g id="patch_20">
    <path clip-path="url(#p899a65e95c)" d="M 145.233488 116.564444 
Q 147.507434 116.564444 148.761755 117.757284 
Q 150.016076 118.94753 150.154286 120.461917 
L 148.573998 120.461917 
Q 148.305401 119.313161 147.502218 118.641541 
Q 146.699036 117.967327 145.249134 117.967327 
Q 143.481089 117.967327 142.393663 119.20425 
Q 141.306237 120.438579 141.306237 122.990218 
Q 141.306237 125.082873 142.286746 126.384623 
Q 143.269862 127.683781 145.217841 127.683781 
Q 147.009356 127.683781 147.948141 126.314609 
Q 148.443611 125.593719 148.688738 124.416438 
L 150.269027 124.416438 
Q 150.0578 126.296457 148.868672 127.569683 
Q 147.44224 129.102222 145.022261 129.102222 
Q 142.936072 129.102222 141.517464 127.844555 
Q 139.650324 126.184952 139.650324 122.715346 
Q 139.650324 120.08332 141.053287 118.397787 
Q 142.568381 116.564444 145.233488 116.564444 
z
M 144.907521 116.564444 
L 144.907521 116.564444 
z
" style="fill:#0000ff;"/>
   </g>
   <g id="patch_21">
    <path clip-path="url(#p899a65e95c)" d="M 150.269027 104.026667 
L 150.269027 105.520495 
L 145.859058 105.520495 
L 145.859058 116.564444 
L 144.060293 116.564444 
L 144.060293 105.520495 
L 139.650324 105.520495 
L 139.650324 104.026667 
L 150.269027 104.026667 
z
" style="fill:#ff0000;"/>
   </g>
   <g id="patch_22">
    <path clip-path="url(#p899a65e95c)" d="M 145.12678 28.908844 
Q 146.764906 28.908844 147.959953 32.796125 
Q 149.691758 38.378261 150.079136 52.372473 
L 148.52203 52.372473 
Q 148.235927 44.551264 147.342174 40.974965 
Q 146.448421 37.398666 145.086269 37.398666 
Q 143.473462 37.398666 142.369563 44.846697 
Q 141.265664 52.279179 141.265664 67.0042 
Q 141.265664 79.723384 142.174608 87.715635 
Q 143.086085 95.707885 145.141971 95.707885 
Q 146.7168 95.707885 147.749807 90.1102 
Q 148.782813 84.496966 148.8056 71.948822 
L 145.16729 71.948822 
L 145.16729 63.941022 
L 150.269027 63.941022 
L 150.269027 102.129673 
L 149.256275 102.129673 
L 148.876493 92.940141 
Q 148.078951 98.335687 147.461172 100.434819 
Q 146.423102 104.026667 144.825486 104.026667 
Q 142.762004 104.026667 141.273259 95.816729 
Q 139.650324 85.507659 139.650324 67.53287 
Q 139.650324 49.604729 141.232749 39.015775 
Q 142.736685 28.908844 145.12678 28.908844 
z
M 144.865996 28.8 
L 144.865996 28.8 
z
" style="fill:#ffa600;"/>
   </g>
   <g id="patch_23">
    <path clip-path="url(#p899a65e95c)" d="M 157.955421 136.503089 
L 156.14892 130.964728 
L 154.228378 136.503089 
L 157.955421 136.503089 
z
M 155.306577 129.102222 
L 157.128629 129.102222 
L 161.446608 141.64 
L 159.678984 141.64 
L 158.473786 137.884948 
L 153.767034 137.884948 
L 152.478897 141.64 
L 150.827906 141.64 
L 155.306577 129.102222 
z
M 156.141144 129.102222 
L 156.141144 129.102222 
z
" style="fill:#008000;"/>
   </g>
   <g id="patch_24">
    <path clip-path="url(#p899a65e95c)" d="M 156.411069 116.564444 
Q 158.685015 116.564444 159.939336 117.757284 
Q 161.193657 118.94753 161.331867 120.461917 
L 159.751579 120.461917 
Q 159.482982 119.313161 158.679799 118.641541 
Q 157.876617 117.967327 156.426715 117.967327 
Q 154.65867 117.967327 153.571244 119.20425 
Q 152.483818 120.438579 152.483818 122.990218 
Q 152.483818 125.082873 153.464327 126.384623 
Q 154.447444 127.683781 156.395423 127.683781 
Q 158.186937 127.683781 159.125722 126.314609 
Q 159.621192 125.593719 159.866319 124.416438 
L 161.446608 124.416438 
Q 161.235381 126.296457 160.046253 127.569683 
Q 158.619822 129.102222 156.199842 129.102222 
Q 154.113653 129.102222 152.695045 127.844555 
Q 150.827906 126.184952 150.827906 122.715346 
Q 150.827906 120.08332 152.230868 118.397787 
Q 153.745962 116.564444 156.411069 116.564444 
z
M 156.085102 116.564444 
L 156.085102 116.564444 
z
" style="fill:#0000ff;"/>
   </g>
   <g id="patch_25">
    <path clip-path="url(#p899a65e95c)" d="M 156.304361 104.044807 
Q 157.942487 104.044807 159.137534 104.692688 
Q 160.869339 105.623043 161.256717 107.955412 
L 159.699611 107.955412 
Q 159.413509 106.651877 158.519755 106.055827 
Q 157.626002 105.459778 156.263851 105.459778 
Q 154.651043 105.459778 153.547144 106.701116 
Q 152.443245 107.939863 152.443245 110.394033 
Q 152.443245 112.513897 153.352189 113.845939 
Q 154.263666 115.177981 156.319552 115.177981 
Q 157.894381 115.177981 158.927388 114.245033 
Q 159.960394 113.309494 159.983181 111.218137 
L 156.344871 111.218137 
L 156.344871 109.883504 
L 161.446608 109.883504 
L 161.446608 116.248279 
L 160.433856 116.248279 
L 160.054074 114.71669 
Q 159.256532 115.615948 158.638753 115.965803 
Q 157.600683 116.564444 156.003067 116.564444 
Q 153.939585 116.564444 152.45084 115.196121 
Q 150.827906 113.477943 150.827906 110.482145 
Q 150.827906 107.494122 152.41033 105.729296 
Q 153.914267 104.044807 156.304361 104.044807 
z
M 156.043577 104.026667 
L 156.043577 104.026667 
z
" style="fill:#ffa600;"/>
   </g>
   <g id="patch_26">
    <path clip-path="url(#p899a65e95c)" d="M 161.446608 28.8 
L 161.446608 37.762968 
L 157.036639 37.762968 
L 157.036639 104.026667 
L 155.237874 104.026667 
L 155.237874 37.762968 
L 150.827906 37.762968 
L 150.827906 28.8 
L 161.446608 28.8 
z
" style="fill:#ff0000;"/>
   </g>
   <g id="patch_27">
    <path clip-path="url(#p899a65e95c)" d="M 169.133002 136.503089 
L 167.326501 130.964728 
L 165.40596 136.503089 
L 169.133002 136.503089 
z
M 166.484158 129.102222 
L 168.30621 129.102222 
L 172.624189 141.64 
L 170.856565 141.64 
L 169.651367 137.884948 
L 164.944615 137.884948 
L 163.656478 141.64 
L 162.005487 141.64 
L 166.484158 129.102222 
z
M 167.318725 129.102222 
L 167.318725 129.102222 
z
" style="fill:#008000;"/>
   </g>
   <g id="patch_28">
    <path clip-path="url(#p899a65e95c)" d="M 167.58865 116.564444 
Q 169.862596 116.564444 171.116917 117.757284 
Q 172.371238 118.94753 172.509448 120.461917 
L 170.92916 120.461917 
Q 170.660563 119.313161 169.857381 118.641541 
Q 169.054198 117.967327 167.604296 117.967327 
Q 165.836251 117.967327 164.748825 119.20425 
Q 163.661399 120.438579 163.661399 122.990218 
Q 163.661399 125.082873 164.641908 126.384623 
Q 165.625025 127.683781 167.573004 127.683781 
Q 169.364518 127.683781 170.303304 126.314609 
Q 170.798773 125.593719 171.043901 124.416438 
L 172.624189 124.416438 
Q 172.412962 126.296457 171.223834 127.569683 
Q 169.797403 129.102222 167.377423 129.102222 
Q 165.291234 129.102222 163.872626 127.844555 
Q 162.005487 126.184952 162.005487 122.715346 
Q 162.005487 120.08332 163.408449 118.397787 
Q 164.923544 116.564444 167.58865 116.564444 
z
M 167.262683 116.564444 
L 167.262683 116.564444 
z
" style="fill:#0000ff;"/>
   </g>
   <g id="patch_29">
    <path clip-path="url(#p899a65e95c)" d="M 172.624189 104.026667 
L 172.624189 105.520495 
L 168.21422 105.520495 
L 168.21422 116.564444 
L 166.415455 116.564444 
L 166.415455 105.520495 
L 162.005487 105.520495 
L 162.005487 104.026667 
L 172.624189 104.026667 
z
" style="fill:#ff0000;"/>
   </g>
   <g id="patch_30">
    <path clip-path="url(#p899a65e95c)" d="M 167.481942 28.908844 
Q 169.120068 28.908844 170.315115 32.796125 
Q 172.04692 38.378261 172.434298 52.372473 
L 170.877192 52.372473 
Q 170.59109 44.551264 169.697336 40.974965 
Q 168.803583 37.398666 167.441432 37.398666 
Q 165.828625 37.398666 164.724725 44.846697 
Q 163.620826 52.279179 163.620826 67.0042 
Q 163.620826 79.723384 164.52977 87.715635 
Q 165.441247 95.707885 167.497133 95.707885 
Q 169.071962 95.707885 170.104969 90.1102 
Q 171.137976 84.496966 171.160763 71.948822 
L 167.522452 71.948822 
L 167.522452 63.941022 
L 172.624189 63.941022 
L 172.624189 102.129673 
L 171.611437 102.129673 
L 171.231655 92.940141 
Q 170.434113 98.335687 169.816335 100.434819 
Q 168.778264 104.026667 167.180648 104.026667 
Q 165.117166 104.026667 163.628421 95.816729 
Q 162.005487 85.507659 162.005487 67.53287 
Q 162.005487 49.604729 163.587911 39.015775 
Q 165.091848 28.908844 167.481942 28.908844 
z
M 167.221158 28.8 
L 167.221158 28.8 
z
" style="fill:#ffa600;"/>
   </g>
   <g id="patch_31">
    <path clip-path="url(#p899a65e95c)" d="M 180.310583 136.503089 
L 178.504082 130.964728 
L 176.583541 136.503089 
L 180.310583 136.503089 
z
M 177.661739 129.102222 
L 179.483791 129.102222 
L 183.80177 141.64 
L 182.034146 141.64 
L 180.828948 137.884948 
L 176.122196 137.884948 
L 174.83406 141.64 
L 173.183068 141.64 
L 177.661739 129.102222 
z
M 178.496307 129.102222 
L 178.496307 129.102222 
z
" style="fill:#008000;"/>
   </g>
   <g id="patch_32">
    <path clip-path="url(#p899a65e95c)" d="M 178.659523 116.582585 
Q 180.297649 116.582585 181.492696 117.230465 
Q 183.224501 118.160821 183.611879 120.49319 
L 182.054773 120.49319 
Q 181.768671 119.189655 180.874917 118.593605 
Q 179.981164 117.997555 178.619013 117.997555 
Q 177.006206 117.997555 175.902306 119.238894 
Q 174.798407 120.477641 174.798407 122.931811 
Q 174.798407 125.051675 175.707352 126.383717 
Q 176.618828 127.715759 178.674714 127.715759 
Q 180.249543 127.715759 181.28255 126.782811 
Q 182.315557 125.847272 182.338344 123.755915 
L 178.700033 123.755915 
L 178.700033 122.421282 
L 183.80177 122.421282 
L 183.80177 128.786057 
L 182.789018 128.786057 
L 182.409236 127.254468 
Q 181.611694 128.153726 180.993916 128.503581 
Q 179.955845 129.102222 178.358229 129.102222 
Q 176.294748 129.102222 174.806003 127.733899 
Q 173.183068 126.015721 173.183068 123.019923 
Q 173.183068 120.031899 174.765492 118.267074 
Q 176.269429 116.582585 178.659523 116.582585 
z
M 178.398739 116.564444 
L 178.398739 116.564444 
z
" style="fill:#ffa600;"/>
   </g>
   <g id="patch_33">
    <path clip-path="url(#p899a65e95c)" d="M 183.80177 104.026667 
L 183.80177 105.520495 
L 179.391802 105.520495 
L 179.391802 116.564444 
L 177.593036 116.564444 
L 177.593036 105.520495 
L 173.183068 105.520495 
L 173.183068 104.026667 
L 183.80177 104.026667 
z
" style="fill:#ff0000;"/>
   </g>
   <g id="patch_34">
    <path clip-path="url(#p899a65e95c)" d="M 178.766231 28.8 
Q 181.040177 28.8 182.294498 35.957036 
Q 183.548819 43.098512 183.68703 52.184836 
L 182.106741 52.184836 
Q 181.838145 45.292299 181.034962 41.262577 
Q 180.231779 37.217296 178.781878 37.217296 
Q 177.013832 37.217296 175.926406 44.638831 
Q 174.83898 52.044807 174.83898 67.354639 
Q 174.83898 79.910569 175.819489 87.721073 
Q 176.802606 95.516018 178.750585 95.516018 
Q 180.5421 95.516018 181.480885 87.300986 
Q 181.976355 82.975647 182.221482 75.911964 
L 183.80177 75.911964 
Q 183.590543 87.192074 182.401416 94.831432 
Q 180.974984 104.026667 178.555005 104.026667 
Q 176.468816 104.026667 175.050207 96.480662 
Q 173.183068 86.523047 173.183068 65.705409 
Q 173.183068 49.913255 174.58603 39.800052 
Q 176.101125 28.8 178.766231 28.8 
z
M 178.440264 28.8 
L 178.440264 28.8 
z
" style="fill:#0000ff;"/>
   </g>
   <g id="patch_35">
    <path clip-path="url(#p899a65e95c)" d="M 189.943812 129.102222 
Q 192.217758 129.102222 193.472079 130.295061 
Q 194.726401 131.485308 194.864611 132.999695 
L 193.284322 132.999695 
Q 193.015726 131.850939 192.212543 131.179318 
Q 191.40936 130.505105 189.959459 130.505105 
Q 188.191414 130.505105 187.103988 131.742027 
Q 186.016561 132.976357 186.016561 135.527995 
Q 186.016561 137.62065 186.99707 138.922401 
Q 187.980187 140.221559 189.928166 140.221559 
Q 191.719681 140.221559 192.658466 138.852387 
Q 193.153936 138.131497 193.399063 136.954216 
L 194.979351 136.954216 
Q 194.768124 138.834235 193.578997 140.107461 
Q 192.152565 141.64 189.732586 141.64 
Q 187.646397 141.64 186.227788 140.382333 
Q 184.360649 138.72273 184.360649 135.253124 
Q 184.360649 132.621098 185.763611 130.935564 
Q 187.278706 129.102222 189.943812 129.102222 
z
M 189.617845 129.102222 
L 189.617845 129.102222 
z
" style="fill:#0000ff;"/>
   </g>
   <g id="patch_36">
    <path clip-path="url(#p899a65e95c)" d="M 189.837104 116.582585 
Q 191.47523 116.582585 192.670277 117.230465 
Q 194.402083 118.160821 194.78946 120.49319 
L 193.232354 120.49319 
Q 192.946252 119.189655 192.052498 118.593605 
Q 191.158745 117.997555 189.796594 117.997555 
Q 188.183787 117.997555 187.079887 119.238894 
Q 185.975988 120.477641 185.975988 122.931811 
Q 185.975988 125.051675 186.884933 126.383717 
Q 187.796409 127.715759 189.852295 127.715759 
Q 191.427124 127.715759 192.460131 126.782811 
Q 193.493138 125.847272 193.515925 123.755915 
L 189.877614 123.755915 
L 189.877614 122.421282 
L 194.979351 122.421282 
L 194.979351 128.786057 
L 193.966599 128.786057 
L 193.586817 127.254468 
Q 192.789275 128.153726 192.171497 128.503581 
Q 191.133426 129.102222 189.53581 129.102222 
Q 187.472329 129.102222 185.983584 127.733899 
Q 184.360649 126.015721 184.360649 123.019923 
Q 184.360649 120.031899 185.943074 118.267074 
Q 187.44701 116.582585 189.837104 116.582585 
z
M 189.57632 116.564444 
L 189.57632 116.564444 
z
" style="fill:#ffa600;"/>
   </g>
   <g id="patch_37">
    <path clip-path="url(#p899a65e95c)" d="M 194.979351 104.026667 
L 194.979351 105.520495 
L 190.569383 105.520495 
L 190.569383 116.564444 
L 188.770617 116.564444 
L 188.770617 105.520495 
L 184.360649 105.520495 
L 184.360649 104.026667 
L 194.979351 104.026667 
z
" style="fill:#ff0000;"/>
   </g>
   <g id="patch_38">
    <path clip-path="url(#p899a65e95c)" d="M 191.488164 73.205199 
L 189.681663 39.975035 
L 187.761122 73.205199 
L 191.488164 73.205199 
z
M 188.83932 28.8 
L 190.661373 28.8 
L 194.979351 104.026667 
L 193.211727 104.026667 
L 192.006529 81.496354 
L 187.299777 81.496354 
L 186.011641 104.026667 
L 184.360649 104.026667 
L 188.83932 28.8 
z
M 189.673888 28.8 
L 189.673888 28.8 
z
" style="fill:#008000;"/>
   </g>
   <g id="patch_39">
    <path clip-path="url(#p899a65e95c)" d="M 201.121393 129.102222 
Q 203.395339 129.102222 204.649661 130.295061 
Q 205.903982 131.485308 206.042192 132.999695 
L 204.461904 132.999695 
Q 204.193307 131.850939 203.390124 131.179318 
Q 202.586941 130.505105 201.13704 130.505105 
Q 199.368995 130.505105 198.281569 131.742027 
Q 197.194143 132.976357 197.194143 135.527995 
Q 197.194143 137.62065 198.174651 138.922401 
Q 199.157768 140.221559 201.105747 140.221559 
Q 202.897262 140.221559 203.836047 138.852387 
Q 204.331517 138.131497 204.576644 136.954216 
L 206.156932 136.954216 
Q 205.945706 138.834235 204.756578 140.107461 
Q 203.330146 141.64 200.910167 141.64 
Q 198.823978 141.64 197.405369 140.382333 
Q 195.53823 138.72273 195.53823 135.253124 
Q 195.53823 132.621098 196.941192 130.935564 
Q 198.456287 129.102222 201.121393 129.102222 
z
M 200.795426 129.102222 
L 200.795426 129.102222 
z
" style="fill:#0000ff;"/>
   </g>
   <g id="patch_40">
    <path clip-path="url(#p899a65e95c)" d="M 201.014685 116.582585 
Q 202.652811 116.582585 203.847858 117.230465 
Q 205.579664 118.160821 205.967041 120.49319 
L 204.409935 120.49319 
Q 204.123833 119.189655 203.23008 118.593605 
Q 202.336326 117.997555 200.974175 117.997555 
Q 199.361368 117.997555 198.257469 119.238894 
Q 197.153569 120.477641 197.153569 122.931811 
Q 197.153569 125.051675 198.062514 126.383717 
Q 198.97399 127.715759 201.029876 127.715759 
Q 202.604705 127.715759 203.637712 126.782811 
Q 204.670719 125.847272 204.693506 123.755915 
L 201.055195 123.755915 
L 201.055195 122.421282 
L 206.156932 122.421282 
L 206.156932 128.786057 
L 205.14418 128.786057 
L 204.764399 127.254468 
Q 203.966857 128.153726 203.349078 128.503581 
Q 202.311007 129.102222 200.713392 129.102222 
Q 198.64991 129.102222 197.161165 127.733899 
Q 195.53823 126.015721 195.53823 123.019923 
Q 195.53823 120.031899 197.120655 118.267074 
Q 198.624591 116.582585 201.014685 116.582585 
z
M 200.753902 116.564444 
L 200.753902 116.564444 
z
" style="fill:#ffa600;"/>
   </g>
   <g id="patch_41">
    <path clip-path="url(#p899a65e95c)" d="M 206.156932 104.026667 
L 206.156932 105.520495 
L 201.746964 105.520495 
L 201.746964 116.564444 
L 199.948198 116.564444 
L 199.948198 105.520495 
L 195.53823 105.520495 
L 195.53823 104.026667 
L 206.156932 104.026667 
z
" style="fill:#ff0000;"/>
   </g>
   <g id="patch_42">
    <path clip-path="url(#p899a65e95c)" d="M 202.665746 73.205199 
L 200.859244 39.975035 
L 198.938703 73.205199 
L 202.665746 73.205199 
z
M 200.016902 28.8 
L 201.838954 28.8 
L 206.156932 104.026667 
L 204.389308 104.026667 
L 203.18411 81.496354 
L 198.477358 81.496354 
L 197.189222 104.026667 
L 195.53823 104.026667 
L 200.016902 28.8 
z
M 200.851469 28.8 
L 200.851469 28.8 
z
" style="fill:#008000;"/>
   </g>
   <g id="patch_43">
    <path clip-path="url(#p899a65e95c)" d="M 212.298975 129.102222 
Q 214.572921 129.102222 215.827242 130.295061 
Q 217.081563 131.485308 217.219773 132.999695 
L 215.639485 132.999695 
Q 215.370888 131.850939 214.567705 131.179318 
Q 213.764522 130.505105 212.314621 130.505105 
Q 210.546576 130.505105 209.45915 131.742027 
Q 208.371724 132.976357 208.371724 135.527995 
Q 208.371724 137.62065 209.352233 138.922401 
Q 210.335349 140.221559 212.283328 140.221559 
Q 214.074843 140.221559 215.013628 138.852387 
Q 215.509098 138.131497 215.754225 136.954216 
L 217.334513 136.954216 
Q 217.123287 138.834235 215.934159 140.107461 
Q 214.507727 141.64 212.087748 141.64 
Q 210.001559 141.64 208.58295 140.382333 
Q 206.715811 138.72273 206.715811 135.253124 
Q 206.715811 132.621098 208.118773 130.935564 
Q 209.633868 129.102222 212.298975 129.102222 
z
M 211.973008 129.102222 
L 211.973008 129.102222 
z
" style="fill:#0000ff;"/>
   </g>
   <g id="patch_44">
    <path clip-path="url(#p899a65e95c)" d="M 212.192266 116.582585 
Q 213.830392 116.582585 215.025439 117.230465 
Q 216.757245 118.160821 217.144622 120.49319 
L 215.587517 120.49319 
Q 215.301414 119.189655 214.407661 118.593605 
Q 213.513907 117.997555 212.151756 117.997555 
Q 210.538949 117.997555 209.43505 119.238894 
Q 208.33115 120.477641 208.33115 122.931811 
Q 208.33115 125.051675 209.240095 126.383717 
Q 210.151572 127.715759 212.207458 127.715759 
Q 213.782287 127.715759 214.815293 126.782811 
Q 215.8483 125.847272 215.871087 123.755915 
L 212.232776 123.755915 
L 212.232776 122.421282 
L 217.334513 122.421282 
L 217.334513 128.786057 
L 216.321762 128.786057 
L 215.94198 127.254468 
Q 215.144438 128.153726 214.526659 128.503581 
Q 213.488589 129.102222 211.890973 129.102222 
Q 209.827491 129.102222 208.338746 127.733899 
Q 206.715811 126.015721 206.715811 123.019923 
Q 206.715811 120.031899 208.298236 118.267074 
Q 209.802172 116.582585 212.192266 116.582585 
z
M 211.931483 116.564444 
L 211.931483 116.564444 
z
" style="fill:#ffa600;"/>
   </g>
   <g id="patch_45">
    <path clip-path="url(#p899a65e95c)" d="M 217.334513 104.026667 
L 217.334513 105.520495 
L 212.924545 105.520495 
L 212.924545 116.564444 
L 211.12578 116.564444 
L 211.12578 105.520495 
L 206.715811 105.520495 
L 206.715811 104.026667 
L 217.334513 104.026667 
z
" style="fill:#ff0000;"/>
   </g>
   <g id="patch_46">
    <path clip-path="url(#p899a65e95c)" d="M 213.843327 73.205199 
L 212.036825 39.975035 
L 210.116284 73.205199 
L 213.843327 73.205199 
z
M 211.194483 28.8 
L 213.016535 28.8 
L 217.334513 104.026667 
L 215.566889 104.026667 
L 214.361691 81.496354 
L 209.654939 81.496354 
L 208.366803 104.026667 
L 206.715811 104.026667 
L 211.194483 28.8 
z
M 212.02905 28.8 
L 212.02905 28.8 
z
" style="fill:#008000;"/>
   </g>
   <g id="patch_47">
    <path clip-path="url(#p899a65e95c)" d="M 225.020908 136.503089 
L 223.214407 130.964728 
L 221.293865 136.503089 
L 225.020908 136.503089 
z
M 222.372064 129.102222 
L 224.194116 129.102222 
L 228.512094 141.64 
L 226.744471 141.64 
L 225.539273 137.884948 
L 220.832521 137.884948 
L 219.544384 141.64 
L 217.893392 141.64 
L 222.372064 129.102222 
z
M 223.206631 129.102222 
L 223.206631 129.102222 
z
" style="fill:#008000;"/>
   </g>
   <g id="patch_48">
    <path clip-path="url(#p899a65e95c)" d="M 223.476556 116.564444 
Q 225.750502 116.564444 227.004823 117.757284 
Q 228.259144 118.94753 228.397354 120.461917 
L 226.817066 120.461917 
Q 226.548469 119.313161 225.745286 118.641541 
Q 224.942103 117.967327 223.492202 117.967327 
Q 221.724157 117.967327 220.636731 119.20425 
Q 219.549305 120.438579 219.549305 122.990218 
Q 219.549305 125.082873 220.529814 126.384623 
Q 221.51293 127.683781 223.460909 127.683781 
Q 225.252424 127.683781 226.191209 126.314609 
Q 226.686679 125.593719 226.931806 124.416438 
L 228.512094 124.416438 
Q 228.300868 126.296457 227.11174 127.569683 
Q 225.685308 129.102222 223.265329 129.102222 
Q 221.17914 129.102222 219.760531 127.844555 
Q 217.893392 126.184952 217.893392 122.715346 
Q 217.893392 120.08332 219.296354 118.397787 
Q 220.811449 116.564444 223.476556 116.564444 
z
M 223.150589 116.564444 
L 223.150589 116.564444 
z
" style="fill:#0000ff;"/>
   </g>
   <g id="patch_49">
    <path clip-path="url(#p899a65e95c)" d="M 228.512094 104.026667 
L 228.512094 105.520495 
L 224.102126 105.520495 
L 224.102126 116.564444 
L 222.303361 116.564444 
L 222.303361 105.520495 
L 217.893392 105.520495 
L 217.893392 104.026667 
L 228.512094 104.026667 
z
" style="fill:#ff0000;"/>
   </g>
   <g id="patch_50">
    <path clip-path="url(#p899a65e95c)" d="M 223.369847 28.908844 
Q 225.007973 28.908844 226.20302 32.796125 
Q 227.934826 38.378261 228.322203 52.372473 
L 226.765098 52.372473 
Q 226.478995 44.551264 225.585242 40.974965 
Q 224.691488 37.398666 223.329337 37.398666 
Q 221.71653 37.398666 220.612631 44.846697 
Q 219.508731 52.279179 219.508731 67.0042 
Q 219.508731 79.723384 220.417676 87.715635 
Q 221.329153 95.707885 223.385039 95.707885 
Q 224.959868 95.707885 225.992874 90.1102 
Q 227.025881 84.496966 227.048668 71.948822 
L 223.410357 71.948822 
L 223.410357 63.941022 
L 228.512094 63.941022 
L 228.512094 102.129673 
L 227.499343 102.129673 
L 227.119561 92.940141 
Q 226.322019 98.335687 225.70424 100.434819 
Q 224.66617 104.026667 223.068554 104.026667 
Q 221.005072 104.026667 219.516327 95.816729 
Q 217.893392 85.507659 217.893392 67.53287 
Q 217.893392 49.604729 219.475817 39.015775 
Q 220.979753 28.908844 223.369847 28.908844 
z
M 223.109064 28.8 
L 223.109064 28.8 
z
" style="fill:#ffa600;"/>
   </g>
   <g id="patch_51">
    <path clip-path="url(#p899a65e95c)" d="M 236.198489 136.503089 
L 234.391988 130.964728 
L 232.471446 136.503089 
L 236.198489 136.503089 
z
M 233.549645 129.102222 
L 235.371697 129.102222 
L 239.689676 141.64 
L 237.922052 141.64 
L 236.716854 137.884948 
L 232.010102 137.884948 
L 230.721965 141.64 
L 229.070973 141.64 
L 233.549645 129.102222 
z
M 234.384212 129.102222 
L 234.384212 129.102222 
z
" style="fill:#008000;"/>
   </g>
   <g id="patch_52">
    <path clip-path="url(#p899a65e95c)" d="M 234.654137 116.564444 
Q 236.928083 116.564444 238.182404 117.757284 
Q 239.436725 118.94753 239.574935 120.461917 
L 237.994647 120.461917 
Q 237.72605 119.313161 236.922867 118.641541 
Q 236.119685 117.967327 234.669783 117.967327 
Q 232.901738 117.967327 231.814312 119.20425 
Q 230.726886 120.438579 230.726886 122.990218 
Q 230.726886 125.082873 231.707395 126.384623 
Q 232.690511 127.683781 234.63849 127.683781 
Q 236.430005 127.683781 237.36879 126.314609 
Q 237.86426 125.593719 238.109387 124.416438 
L 239.689676 124.416438 
Q 239.478449 126.296457 238.289321 127.569683 
Q 236.862889 129.102222 234.44291 129.102222 
Q 232.356721 129.102222 230.938113 127.844555 
Q 229.070973 126.184952 229.070973 122.715346 
Q 229.070973 120.08332 230.473936 118.397787 
Q 231.98903 116.564444 234.654137 116.564444 
z
M 234.32817 116.564444 
L 234.32817 116.564444 
z
" style="fill:#0000ff;"/>
   </g>
   <g id="patch_53">
    <path clip-path="url(#p899a65e95c)" d="M 234.547429 104.044807 
Q 236.185554 104.044807 237.380602 104.692688 
Q 239.112407 105.623043 239.499785 107.955412 
L 237.942679 107.955412 
Q 237.656576 106.651877 236.762823 106.055827 
Q 235.86907 105.459778 234.506918 105.459778 
Q 232.894111 105.459778 231.790212 106.701116 
Q 230.686312 107.939863 230.686312 110.394033 
Q 230.686312 112.513897 231.595257 113.845939 
Q 232.506734 115.177981 234.56262 115.177981 
Q 236.137449 115.177981 237.170456 114.245033 
Q 238.203462 113.309494 238.226249 111.218137 
L 234.587939 111.218137 
L 234.587939 109.883504 
L 239.689676 109.883504 
L 239.689676 116.248279 
L 238.676924 116.248279 
L 238.297142 114.71669 
Q 237.4996 115.615948 236.881821 115.965803 
Q 235.843751 116.564444 234.246135 116.564444 
Q 232.182653 116.564444 230.693908 115.196121 
Q 229.070973 113.477943 229.070973 110.482145 
Q 229.070973 107.494122 230.653398 105.729296 
Q 232.157334 104.044807 234.547429 104.044807 
z
M 234.286645 104.026667 
L 234.286645 104.026667 
z
" style="fill:#ffa600;"/>
   </g>
   <g id="patch_54">
    <path clip-path="url(#p899a65e95c)" d="M 239.689676 28.8 
L 239.689676 37.762968 
L 235.279707 37.762968 
L 235.279707 104.026667 
L 233.480942 104.026667 
L 233.480942 37.762968 
L 229.070973 37.762968 
L 229.070973 28.8 
L 239.689676 28.8 
z
" style="fill:#ff0000;"/>
   </g>
   <g id="patch_55">
    <path clip-path="url(#p899a65e95c)" d="M 245.831718 129.102222 
Q 248.105664 129.102222 249.359985 130.295061 
Q 250.614306 131.485308 250.752516 132.999695 
L 249.172228 132.999695 
Q 248.903631 131.850939 248.100448 131.179318 
Q 247.297266 130.505105 245.847364 130.505105 
Q 244.079319 130.505105 242.991893 131.742027 
Q 241.904467 132.976357 241.904467 135.527995 
Q 241.904467 137.62065 242.884976 138.922401 
Q 243.868093 140.221559 245.816071 140.221559 
Q 247.607586 140.221559 248.546371 138.852387 
Q 249.041841 138.131497 249.286968 136.954216 
L 250.867257 136.954216 
Q 250.65603 138.834235 249.466902 140.107461 
Q 248.040471 141.64 245.620491 141.64 
Q 243.534302 141.64 242.115694 140.382333 
Q 240.248555 138.72273 240.248555 135.253124 
Q 240.248555 132.621098 241.651517 130.935564 
Q 243.166611 129.102222 245.831718 129.102222 
z
M 245.505751 129.102222 
L 245.505751 129.102222 
z
" style="fill:#0000ff;"/>
   </g>
   <g id="patch_56">
    <path clip-path="url(#p899a65e95c)" d="M 245.72501 116.582585 
Q 247.363136 116.582585 248.558183 117.230465 
Q 250.289988 118.160821 250.677366 120.49319 
L 249.12026 120.49319 
Q 248.834158 119.189655 247.940404 118.593605 
Q 247.046651 117.997555 245.6845 117.997555 
Q 244.071692 117.997555 242.967793 119.238894 
Q 241.863894 120.477641 241.863894 122.931811 
Q 241.863894 125.051675 242.772838 126.383717 
Q 243.684315 127.715759 245.740201 127.715759 
Q 247.31503 127.715759 248.348037 126.782811 
Q 249.381043 125.847272 249.40383 123.755915 
L 245.76552 123.755915 
L 245.76552 122.421282 
L 250.867257 122.421282 
L 250.867257 128.786057 
L 249.854505 128.786057 
L 249.474723 127.254468 
Q 248.677181 128.153726 248.059402 128.503581 
Q 247.021332 129.102222 245.423716 129.102222 
Q 243.360234 129.102222 241.871489 127.733899 
Q 240.248555 126.015721 240.248555 123.019923 
Q 240.248555 120.031899 241.830979 118.267074 
Q 243.334916 116.582585 245.72501 116.582585 
z
M 245.464226 116.564444 
L 245.464226 116.564444 
z
" style="fill:#ffa600;"/>
   </g>
   <g id="patch_57">
    <path clip-path="url(#p899a65e95c)" d="M 250.867257 104.026667 
L 250.867257 105.520495 
L 246.457288 105.520495 
L 246.457288 116.564444 
L 244.658523 116.564444 
L 244.658523 105.520495 
L 240.248555 105.520495 
L 240.248555 104.026667 
L 250.867257 104.026667 
z
" style="fill:#ff0000;"/>
   </g>
   <g id="patch_58">
    <path clip-path="url(#p899a65e95c)" d="M 247.37607 73.205199 
L 245.569569 39.975035 
L 243.649027 73.205199 
L 247.37607 73.205199 
z
M 244.727226 28.8 
L 246.549278 28.8 
L 250.867257 104.026667 
L 249.099633 104.026667 
L 247.894435 81.496354 
L 243.187683 81.496354 
L 241.899546 104.026667 
L 240.248555 104.026667 
L 244.727226 28.8 
z
M 245.561793 28.8 
L 245.561793 28.8 
z
" style="fill:#008000;"/>
   </g>
   <g id="patch_59">
    <path clip-path="url(#p899a65e95c)" d="M 257.009299 129.102222 
Q 259.283245 129.102222 260.537566 130.295061 
Q 261.791887 131.485308 261.930097 132.999695 
L 260.349809 132.999695 
Q 260.081212 131.850939 259.27803 131.179318 
Q 258.474847 130.505105 257.024945 130.505105 
Q 255.2569 130.505105 254.169474 131.742027 
Q 253.082048 132.976357 253.082048 135.527995 
Q 253.082048 137.62065 254.062557 138.922401 
Q 255.045674 140.221559 256.993653 140.221559 
Q 258.785167 140.221559 259.723952 138.852387 
Q 260.219422 138.131497 260.46455 136.954216 
L 262.044838 136.954216 
Q 261.833611 138.834235 260.644483 140.107461 
Q 259.218052 141.64 256.798072 141.64 
Q 254.711883 141.64 253.293275 140.382333 
Q 251.426136 138.72273 251.426136 135.253124 
Q 251.426136 132.621098 252.829098 130.935564 
Q 254.344193 129.102222 257.009299 129.102222 
z
M 256.683332 129.102222 
L 256.683332 129.102222 
z
" style="fill:#0000ff;"/>
   </g>
   <g id="patch_60">
    <path clip-path="url(#p899a65e95c)" d="M 256.902591 116.582585 
Q 258.540717 116.582585 259.735764 117.230465 
Q 261.467569 118.160821 261.854947 120.49319 
L 260.297841 120.49319 
Q 260.011739 119.189655 259.117985 118.593605 
Q 258.224232 117.997555 256.862081 117.997555 
Q 255.249274 117.997555 254.145374 119.238894 
Q 253.041475 120.477641 253.041475 122.931811 
Q 253.041475 125.051675 253.950419 126.383717 
Q 254.861896 127.715759 256.917782 127.715759 
Q 258.492611 127.715759 259.525618 126.782811 
Q 260.558625 125.847272 260.581411 123.755915 
L 256.943101 123.755915 
L 256.943101 122.421282 
L 262.044838 122.421282 
L 262.044838 128.786057 
L 261.032086 128.786057 
L 260.652304 127.254468 
Q 259.854762 128.153726 259.236984 128.503581 
Q 258.198913 129.102222 256.601297 129.102222 
Q 254.537815 129.102222 253.04907 127.733899 
Q 251.426136 126.015721 251.426136 123.019923 
Q 251.426136 120.031899 253.00856 118.267074 
Q 254.512497 116.582585 256.902591 116.582585 
z
M 256.641807 116.564444 
L 256.641807 116.564444 
z
" style="fill:#ffa600;"/>
   </g>
   <g id="patch_61">
    <path clip-path="url(#p899a65e95c)" d="M 262.044838 104.026667 
L 262.044838 105.520495 
L 257.634869 105.520495 
L 257.634869 116.564444 
L 255.836104 116.564444 
L 255.836104 105.520495 
L 251.426136 105.520495 
L 251.426136 104.026667 
L 262.044838 104.026667 
z
" style="fill:#ff0000;"/>
   </g>
   <g id="patch_62">
    <path clip-path="url(#p899a65e95c)" d="M 258.553651 73.205199 
L 256.74715 39.975035 
L 254.826609 73.205199 
L 258.553651 73.205199 
z
M 255.904807 28.8 
L 257.726859 28.8 
L 262.044838 104.026667 
L 260.277214 104.026667 
L 259.072016 81.496354 
L 254.365264 81.496354 
L 253.077127 104.026667 
L 251.426136 104.026667 
L 255.904807 28.8 
z
M 256.739374 28.8 
L 256.739374 28.8 
z
" style="fill:#008000;"/>
   </g>
   <g id="patch_63">
    <path clip-path="url(#p899a65e95c)" d="M 268.18688 129.102222 
Q 270.460826 129.102222 271.715147 130.295061 
Q 272.969468 131.485308 273.107678 132.999695 
L 271.52739 132.999695 
Q 271.258793 131.850939 270.455611 131.179318 
Q 269.652428 130.505105 268.202527 130.505105 
Q 266.434481 130.505105 265.347055 131.742027 
Q 264.259629 132.976357 264.259629 135.527995 
Q 264.259629 137.62065 265.240138 138.922401 
Q 266.223255 140.221559 268.171234 140.221559 
Q 269.962749 140.221559 270.901534 138.852387 
Q 271.397003 138.131497 271.642131 136.954216 
L 273.222419 136.954216 
Q 273.011192 138.834235 271.822065 140.107461 
Q 270.395633 141.64 267.975654 141.64 
Q 265.889465 141.64 264.470856 140.382333 
Q 262.603717 138.72273 262.603717 135.253124 
Q 262.603717 132.621098 264.006679 130.935564 
Q 265.521774 129.102222 268.18688 129.102222 
z
M 267.860913 129.102222 
L 267.860913 129.102222 
z
" style="fill:#0000ff;"/>
   </g>
   <g id="patch_64">
    <path clip-path="url(#p899a65e95c)" d="M 268.080172 116.582585 
Q 269.718298 116.582585 270.913345 117.230465 
Q 272.64515 118.160821 273.032528 120.49319 
L 271.475422 120.49319 
Q 271.18932 119.189655 270.295566 118.593605 
Q 269.401813 117.997555 268.039662 117.997555 
Q 266.426855 117.997555 265.322955 119.238894 
Q 264.219056 120.477641 264.219056 122.931811 
Q 264.219056 125.051675 265.128001 126.383717 
Q 266.039477 127.715759 268.095363 127.715759 
Q 269.670192 127.715759 270.703199 126.782811 
Q 271.736206 125.847272 271.758993 123.755915 
L 268.120682 123.755915 
L 268.120682 122.421282 
L 273.222419 122.421282 
L 273.222419 128.786057 
L 272.209667 128.786057 
L 271.829885 127.254468 
Q 271.032343 128.153726 270.414565 128.503581 
Q 269.376494 129.102222 267.778878 129.102222 
Q 265.715397 129.102222 264.226651 127.733899 
Q 262.603717 126.015721 262.603717 123.019923 
Q 262.603717 120.031899 264.186141 118.267074 
Q 265.690078 116.582585 268.080172 116.582585 
z
M 267.819388 116.564444 
L 267.819388 116.564444 
z
" style="fill:#ffa600;"/>
   </g>
   <g id="patch_65">
    <path clip-path="url(#p899a65e95c)" d="M 273.222419 104.026667 
L 273.222419 105.520495 
L 268.812451 105.520495 
L 268.812451 116.564444 
L 267.013685 116.564444 
L 267.013685 105.520495 
L 262.603717 105.520495 
L 262.603717 104.026667 
L 273.222419 104.026667 
z
" style="fill:#ff0000;"/>
   </g>
   <g id="patch_66">
    <path clip-path="url(#p899a65e95c)" d="M 269.731232 73.205199 
L 267.924731 39.975035 
L 266.00419 73.205199 
L 269.731232 73.205199 
z
M 267.082388 28.8 
L 268.90444 28.8 
L 273.222419 104.026667 
L 271.454795 104.026667 
L 270.249597 81.496354 
L 265.542845 81.496354 
L 264.254709 104.026667 
L 262.603717 104.026667 
L 267.082388 28.8 
z
M 267.916956 28.8 
L 267.916956 28.8 
z
" style="fill:#008000;"/>
   </g>
   <g id="patch_67">
    <path clip-path="url(#p899a65e95c)" d="M 279.364461 129.102222 
Q 281.638407 129.102222 282.892728 130.295061 
Q 284.14705 131.485308 284.28526 132.999695 
L 282.704971 132.999695 
Q 282.436375 131.850939 281.633192 131.179318 
Q 280.830009 130.505105 279.380108 130.505105 
Q 277.612063 130.505105 276.524636 131.742027 
Q 275.43721 132.976357 275.43721 135.527995 
Q 275.43721 137.62065 276.417719 138.922401 
Q 277.400836 140.221559 279.348815 140.221559 
Q 281.14033 140.221559 282.079115 138.852387 
Q 282.574585 138.131497 282.819712 136.954216 
L 284.4 136.954216 
Q 284.188773 138.834235 282.999646 140.107461 
Q 281.573214 141.64 279.153235 141.64 
Q 277.067046 141.64 275.648437 140.382333 
Q 273.781298 138.72273 273.781298 135.253124 
Q 273.781298 132.621098 275.18426 130.935564 
Q 276.699355 129.102222 279.364461 129.102222 
z
M 279.038494 129.102222 
L 279.038494 129.102222 
z
" style="fill:#0000ff;"/>
   </g>
   <g id="patch_68">
    <path clip-path="url(#p899a65e95c)" d="M 279.257753 116.582585 
Q 280.895879 116.582585 282.090926 117.230465 
Q 283.822732 118.160821 284.210109 120.49319 
L 282.653003 120.49319 
Q 282.366901 119.189655 281.473147 118.593605 
Q 280.579394 117.997555 279.217243 117.997555 
Q 277.604436 117.997555 276.500536 119.238894 
Q 275.396637 120.477641 275.396637 122.931811 
Q 275.396637 125.051675 276.305582 126.383717 
Q 277.217058 127.715759 279.272944 127.715759 
Q 280.847773 127.715759 281.88078 126.782811 
Q 282.913787 125.847272 282.936574 123.755915 
L 279.298263 123.755915 
L 279.298263 122.421282 
L 284.4 122.421282 
L 284.4 128.786057 
L 283.387248 128.786057 
L 283.007466 127.254468 
Q 282.209924 128.153726 281.592146 128.503581 
Q 280.554075 129.102222 278.956459 129.102222 
Q 276.892978 129.102222 275.404233 127.733899 
Q 273.781298 126.015721 273.781298 123.019923 
Q 273.781298 120.031899 275.363723 118.267074 
Q 276.867659 116.582585 279.257753 116.582585 
z
M 278.996969 116.564444 
L 278.996969 116.564444 
z
" style="fill:#ffa600;"/>
   </g>
   <g id="patch_69">
    <path clip-path="url(#p899a65e95c)" d="M 284.4 104.026667 
L 284.4 105.520495 
L 279.990032 105.520495 
L 279.990032 116.564444 
L 278.191266 116.564444 
L 278.191266 105.520495 
L 273.781298 105.520495 
L 273.781298 104.026667 
L 284.4 104.026667 
z
" style="fill:#ff0000;"/>
   </g>
   <g id="patch_70">
    <path clip-path="url(#p899a65e95c)" d="M 280.908813 73.205199 
L 279.102312 39.975035 
L 277.181771 73.205199 
L 280.908813 73.205199 
z
M 278.259969 28.8 
L 280.082022 28.8 
L 284.4 104.026667 
L 282.632376 104.026667 
L 281.427178 81.496354 
L 276.720426 81.496354 
L 275.43229 104.026667 
L 273.781298 104.026667 
L 278.259969 28.8 
z
M 279.094537 28.8 
L 279.094537 28.8 
z
" style="fill:#008000;"/>
   </g>
   <g id="matplotlib.axis_1">
    <g id="xtick_1">
     <g id="text_1">
      <!-- 0 -->
      <g style="fill:#262626;" transform="translate(94.688414 162.986875)scale(0.2 -0.2)">
       <defs>
        <path d="M 1731 4475 
Q 2600 4475 2988 3759 
Q 3288 3206 3288 2244 
Q 3288 1331 3016 734 
Q 2622 -122 1728 -122 
Q 922 -122 528 578 
Q 200 1163 200 2147 
Q 200 2909 397 3456 
Q 766 4475 1731 4475 
z
M 1725 391 
Q 2163 391 2422 778 
Q 2681 1166 2681 2222 
Q 2681 2984 2493 3476 
Q 2306 3969 1766 3969 
Q 1269 3969 1039 3501 
Q 809 3034 809 2125 
Q 809 1441 956 1025 
Q 1181 391 1725 391 
z
" id="Helvetica-30" transform="scale(0.015625)"/>
       </defs>
       <use xlink:href="#Helvetica-30"/>
      </g>
     </g>
    </g>
    <g id="xtick_2">
     <g id="text_2">
      <!-- 10 -->
      <g style="fill:#262626;" transform="translate(200.903287 162.986875)scale(0.2 -0.2)">
       <defs>
        <path d="M 613 3169 
L 613 3600 
Q 1222 3659 1462 3798 
Q 1703 3938 1822 4456 
L 2266 4456 
L 2266 0 
L 1666 0 
L 1666 3169 
L 613 3169 
z
" id="Helvetica-31" transform="scale(0.015625)"/>
       </defs>
       <use xlink:href="#Helvetica-31"/>
       <use x="55.615234" xlink:href="#Helvetica-30"/>
      </g>
     </g>
    </g>
    <g id="text_3">
     <!-- Position -->
     <g style="fill:#262626;" transform="translate(145.20125 189.089219)scale(0.25 -0.25)">
      <defs>
       <path d="M 547 4591 
L 2613 4591 
Q 3225 4591 3600 4245 
Q 3975 3900 3975 3275 
Q 3975 2738 3640 2339 
Q 3306 1941 2613 1941 
L 1169 1941 
L 1169 0 
L 547 0 
L 547 4591 
z
M 3347 3272 
Q 3347 3778 2972 3959 
Q 2766 4056 2406 4056 
L 1169 4056 
L 1169 2466 
L 2406 2466 
Q 2825 2466 3086 2644 
Q 3347 2822 3347 3272 
z
" id="Helvetica-50" transform="scale(0.015625)"/>
       <path d="M 1741 363 
Q 2300 363 2508 786 
Q 2716 1209 2716 1728 
Q 2716 2197 2566 2491 
Q 2328 2953 1747 2953 
Q 1231 2953 997 2559 
Q 763 2166 763 1609 
Q 763 1075 997 719 
Q 1231 363 1741 363 
z
M 1763 3444 
Q 2409 3444 2856 3012 
Q 3303 2581 3303 1744 
Q 3303 934 2909 406 
Q 2516 -122 1688 -122 
Q 997 -122 590 345 
Q 184 813 184 1600 
Q 184 2444 612 2944 
Q 1041 3444 1763 3444 
z
M 1744 3428 
L 1744 3428 
z
" id="Helvetica-6f" transform="scale(0.015625)"/>
       <path d="M 747 1050 
Q 772 769 888 619 
Q 1100 347 1625 347 
Q 1938 347 2175 483 
Q 2413 619 2413 903 
Q 2413 1119 2222 1231 
Q 2100 1300 1741 1391 
L 1294 1503 
Q 866 1609 663 1741 
Q 300 1969 300 2372 
Q 300 2847 642 3140 
Q 984 3434 1563 3434 
Q 2319 3434 2653 2991 
Q 2863 2709 2856 2384 
L 2325 2384 
Q 2309 2575 2191 2731 
Q 1997 2953 1519 2953 
Q 1200 2953 1036 2831 
Q 872 2709 872 2509 
Q 872 2291 1088 2159 
Q 1213 2081 1456 2022 
L 1828 1931 
Q 2434 1784 2641 1647 
Q 2969 1431 2969 969 
Q 2969 522 2630 197 
Q 2291 -128 1597 -128 
Q 850 -128 539 211 
Q 228 550 206 1050 
L 747 1050 
z
M 1578 3428 
L 1578 3428 
z
" id="Helvetica-73" transform="scale(0.015625)"/>
       <path d="M 413 3331 
L 984 3331 
L 984 0 
L 413 0 
L 413 3331 
z
M 413 4591 
L 984 4591 
L 984 3953 
L 413 3953 
L 413 4591 
z
" id="Helvetica-69" transform="scale(0.015625)"/>
       <path d="M 525 4281 
L 1094 4281 
L 1094 3347 
L 1628 3347 
L 1628 2888 
L 1094 2888 
L 1094 703 
Q 1094 528 1213 469 
Q 1278 434 1431 434 
Q 1472 434 1519 436 
Q 1566 438 1628 444 
L 1628 0 
Q 1531 -28 1426 -40 
Q 1322 -53 1200 -53 
Q 806 -53 665 148 
Q 525 350 525 672 
L 525 2888 
L 72 2888 
L 72 3347 
L 525 3347 
L 525 4281 
z
" id="Helvetica-74" transform="scale(0.015625)"/>
       <path d="M 413 3347 
L 947 3347 
L 947 2872 
Q 1184 3166 1450 3294 
Q 1716 3422 2041 3422 
Q 2753 3422 3003 2925 
Q 3141 2653 3141 2147 
L 3141 0 
L 2569 0 
L 2569 2109 
Q 2569 2416 2478 2603 
Q 2328 2916 1934 2916 
Q 1734 2916 1606 2875 
Q 1375 2806 1200 2600 
Q 1059 2434 1017 2257 
Q 975 2081 975 1753 
L 975 0 
L 413 0 
L 413 3347 
z
M 1734 3428 
L 1734 3428 
z
" id="Helvetica-6e" transform="scale(0.015625)"/>
      </defs>
      <use xlink:href="#Helvetica-50"/>
      <use x="66.699219" xlink:href="#Helvetica-6f"/>
      <use x="122.314453" xlink:href="#Helvetica-73"/>
      <use x="172.314453" xlink:href="#Helvetica-69"/>
      <use x="194.53125" xlink:href="#Helvetica-74"/>
      <use x="222.314453" xlink:href="#Helvetica-69"/>
      <use x="244.53125" xlink:href="#Helvetica-6f"/>
      <use x="300.146484" xlink:href="#Helvetica-6e"/>
     </g>
    </g>
   </g>
   <g id="matplotlib.axis_2">
    <g id="ytick_1">
     <g id="text_4">
      <!-- 0 -->
      <g style="fill:#262626;" transform="translate(76.818125 148.813438)scale(0.2 -0.2)">
       <use xlink:href="#Helvetica-30"/>
      </g>
     </g>
    </g>
    <g id="ytick_2">
     <g id="text_5">
      <!-- 0.25 -->
      <g style="fill:#262626;" transform="translate(49.018125 120.603437)scale(0.2 -0.2)">
       <defs>
        <path d="M 547 681 
L 1200 681 
L 1200 0 
L 547 0 
L 547 681 
z
" id="Helvetica-2e" transform="scale(0.015625)"/>
        <path d="M 200 0 
Q 231 578 439 1006 
Q 647 1434 1250 1784 
L 1850 2131 
Q 2253 2366 2416 2531 
Q 2672 2791 2672 3125 
Q 2672 3516 2437 3745 
Q 2203 3975 1813 3975 
Q 1234 3975 1013 3538 
Q 894 3303 881 2888 
L 309 2888 
Q 319 3472 525 3841 
Q 891 4491 1816 4491 
Q 2584 4491 2939 4075 
Q 3294 3659 3294 3150 
Q 3294 2613 2916 2231 
Q 2697 2009 2131 1694 
L 1703 1456 
Q 1397 1288 1222 1134 
Q 909 863 828 531 
L 3272 531 
L 3272 0 
L 200 0 
z
" id="Helvetica-32" transform="scale(0.015625)"/>
        <path d="M 791 1141 
Q 847 659 1238 475 
Q 1438 381 1700 381 
Q 2200 381 2440 700 
Q 2681 1019 2681 1406 
Q 2681 1875 2395 2131 
Q 2109 2388 1709 2388 
Q 1419 2388 1211 2275 
Q 1003 2163 856 1963 
L 369 1991 
L 709 4400 
L 3034 4400 
L 3034 3856 
L 1131 3856 
L 941 2613 
Q 1097 2731 1238 2791 
Q 1488 2894 1816 2894 
Q 2431 2894 2859 2497 
Q 3288 2100 3288 1491 
Q 3288 856 2895 371 
Q 2503 -113 1644 -113 
Q 1097 -113 676 195 
Q 256 503 206 1141 
L 791 1141 
z
" id="Helvetica-35" transform="scale(0.015625)"/>
       </defs>
       <use xlink:href="#Helvetica-30"/>
       <use x="55.615234" xlink:href="#Helvetica-2e"/>
       <use x="83.398438" xlink:href="#Helvetica-32"/>
       <use x="139.013672" xlink:href="#Helvetica-35"/>
      </g>
     </g>
    </g>
    <g id="ytick_3">
     <g id="text_6">
      <!-- 0.50 -->
      <g style="fill:#262626;" transform="translate(49.018125 92.393438)scale(0.2 -0.2)">
       <use xlink:href="#Helvetica-30"/>
       <use x="55.615234" xlink:href="#Helvetica-2e"/>
       <use x="83.398438" xlink:href="#Helvetica-35"/>
       <use x="139.013672" xlink:href="#Helvetica-30"/>
      </g>
     </g>
    </g>
    <g id="ytick_4">
     <g id="text_7">
      <!-- 0.75 -->
      <g style="fill:#262626;" transform="translate(49.018125 64.183437)scale(0.2 -0.2)">
       <defs>
        <path d="M 3347 4400 
L 3347 3909 
Q 3131 3700 2773 3181 
Q 2416 2663 2141 2063 
Q 1869 1478 1728 997 
Q 1638 688 1494 0 
L 872 0 
Q 1084 1281 1809 2550 
Q 2238 3294 2709 3834 
L 234 3834 
L 234 4400 
L 3347 4400 
z
" id="Helvetica-37" transform="scale(0.015625)"/>
       </defs>
       <use xlink:href="#Helvetica-30"/>
       <use x="55.615234" xlink:href="#Helvetica-2e"/>
       <use x="83.398438" xlink:href="#Helvetica-37"/>
       <use x="139.013672" xlink:href="#Helvetica-35"/>
      </g>
     </g>
    </g>
    <g id="ytick_5">
     <g id="text_8">
      <!-- 1.0 -->
      <g style="fill:#262626;" transform="translate(60.14 35.973437)scale(0.2 -0.2)">
       <use xlink:href="#Helvetica-31"/>
       <use x="55.615234" xlink:href="#Helvetica-2e"/>
       <use x="83.398438" xlink:href="#Helvetica-30"/>
      </g>
     </g>
    </g>
    <g id="text_9">
     <!-- Probability -->
     <g style="fill:#262626;" transform="translate(39.65875 143.579375)rotate(-90)scale(0.25 -0.25)">
      <defs>
       <path d="M 428 3347 
L 963 3347 
L 963 2769 
Q 1028 2938 1284 3180 
Q 1541 3422 1875 3422 
Q 1891 3422 1928 3419 
Q 1966 3416 2056 3406 
L 2056 2813 
Q 2006 2822 1964 2825 
Q 1922 2828 1872 2828 
Q 1447 2828 1219 2554 
Q 991 2281 991 1925 
L 991 0 
L 428 0 
L 428 3347 
z
" id="Helvetica-72" transform="scale(0.015625)"/>
       <path d="M 369 4606 
L 916 4606 
L 916 2941 
Q 1100 3181 1356 3307 
Q 1613 3434 1913 3434 
Q 2538 3434 2927 3004 
Q 3316 2575 3316 1738 
Q 3316 944 2931 419 
Q 2547 -106 1866 -106 
Q 1484 -106 1222 78 
Q 1066 188 888 428 
L 888 0 
L 369 0 
L 369 4606 
z
M 1831 391 
Q 2288 391 2514 753 
Q 2741 1116 2741 1709 
Q 2741 2238 2514 2584 
Q 2288 2931 1847 2931 
Q 1463 2931 1173 2647 
Q 884 2363 884 1709 
Q 884 1238 1003 944 
Q 1225 391 1831 391 
z
" id="Helvetica-62" transform="scale(0.015625)"/>
       <path d="M 844 891 
Q 844 647 1022 506 
Q 1200 366 1444 366 
Q 1741 366 2019 503 
Q 2488 731 2488 1250 
L 2488 1703 
Q 2384 1638 2221 1594 
Q 2059 1550 1903 1531 
L 1563 1488 
Q 1256 1447 1103 1359 
Q 844 1213 844 891 
z
M 2206 2028 
Q 2400 2053 2466 2191 
Q 2503 2266 2503 2406 
Q 2503 2694 2298 2823 
Q 2094 2953 1713 2953 
Q 1272 2953 1088 2716 
Q 984 2584 953 2325 
L 428 2325 
Q 444 2944 830 3186 
Q 1216 3428 1725 3428 
Q 2316 3428 2684 3203 
Q 3050 2978 3050 2503 
L 3050 575 
Q 3050 488 3086 434 
Q 3122 381 3238 381 
Q 3275 381 3322 386 
Q 3369 391 3422 400 
L 3422 -16 
Q 3291 -53 3222 -62 
Q 3153 -72 3034 -72 
Q 2744 -72 2613 134 
Q 2544 244 2516 444 
Q 2344 219 2022 53 
Q 1700 -113 1313 -113 
Q 847 -113 551 170 
Q 256 453 256 878 
Q 256 1344 547 1600 
Q 838 1856 1309 1916 
L 2206 2028 
z
M 1741 3428 
L 1741 3428 
z
" id="Helvetica-61" transform="scale(0.015625)"/>
       <path d="M 428 4591 
L 991 4591 
L 991 0 
L 428 0 
L 428 4591 
z
" id="Helvetica-6c" transform="scale(0.015625)"/>
       <path d="M 2503 3347 
L 3125 3347 
Q 3006 3025 2597 1878 
Q 2291 1016 2084 472 
Q 1597 -809 1397 -1090 
Q 1197 -1372 709 -1372 
Q 591 -1372 527 -1362 
Q 463 -1353 369 -1328 
L 369 -816 
Q 516 -856 581 -865 
Q 647 -875 697 -875 
Q 853 -875 926 -823 
Q 1000 -772 1050 -697 
Q 1066 -672 1162 -440 
Q 1259 -209 1303 -97 
L 66 3347 
L 703 3347 
L 1600 622 
L 2503 3347 
z
M 1597 3428 
L 1597 3428 
z
" id="Helvetica-79" transform="scale(0.015625)"/>
      </defs>
      <use xlink:href="#Helvetica-50"/>
      <use x="66.699219" xlink:href="#Helvetica-72"/>
      <use x="100" xlink:href="#Helvetica-6f"/>
      <use x="155.615234" xlink:href="#Helvetica-62"/>
      <use x="211.230469" xlink:href="#Helvetica-61"/>
      <use x="266.845703" xlink:href="#Helvetica-62"/>
      <use x="322.460938" xlink:href="#Helvetica-69"/>
      <use x="344.677734" xlink:href="#Helvetica-6c"/>
      <use x="366.894531" xlink:href="#Helvetica-69"/>
      <use x="389.111328" xlink:href="#Helvetica-74"/>
      <use x="416.894531" xlink:href="#Helvetica-79"/>
     </g>
    </g>
   </g>
   <g id="patch_71">
    <path d="M 94.94 141.64 
L 94.94 28.8 
" style="fill:none;stroke:#000000;stroke-linecap:square;stroke-linejoin:miter;"/>
   </g>
  </g>
 </g>
 <defs>
  <clipPath id="p899a65e95c">
   <rect height="112.84" width="189.46" x="94.94" y="28.8"/>
  </clipPath>
 </defs>
</svg>
