<?xml version="1.0" encoding="utf-8" standalone="no"?>
<!DOCTYPE svg PUBLIC "-//W3C//DTD SVG 1.1//EN"
  "http://www.w3.org/Graphics/SVG/1.1/DTD/svg11.dtd">
<svg height="216pt" version="1.1" viewBox="0 0 306 216" width="306pt" xmlns="http://www.w3.org/2000/svg" xmlns:xlink="http://www.w3.org/1999/xlink">
 <metadata>
  <rdf:RDF xmlns:cc="http://creativecommons.org/ns#" xmlns:dc="http://purl.org/dc/elements/1.1/" xmlns:rdf="http://www.w3.org/1999/02/22-rdf-syntax-ns#">
   <cc:Work>
    <dc:type rdf:resource="http://purl.org/dc/dcmitype/StillImage"/>
    <dc:date>2023-01-27T12:56:18.848455</dc:date>
    <dc:format>image/svg+xml</dc:format>
    <dc:creator>
     <cc:Agent>
      <dc:title>Matplotlib v3.4.2, https://matplotlib.org/</dc:title>
     </cc:Agent>
    </dc:creator>
   </cc:Work>
  </rdf:RDF>
 </metadata>
 <defs>
  <style type="text/css">*{stroke-linecap:butt;stroke-linejoin:round;}</style>
 </defs>
 <g id="figure_1">
  <g id="patch_1">
   <path d="M 0 216 
L 306 216 
L 306 0 
L 0 0 
z
" style="fill:#ffffff;"/>
  </g>
  <g id="axes_1">
   <g id="patch_2">
    <path d="M 94.94 141.64 
L 284.4 141.64 
L 284.4 28.8 
L 94.94 28.8 
z
" style="fill:#ffffff;"/>
   </g>
   <g id="line2d_1">
    <path clip-path="url(#p918fa1a4de)" d="M 94.94 141.64 
L 284.4 141.64 
" style="fill:none;stroke:#000000;stroke-linecap:round;stroke-width:0.5;"/>
   </g>
   <g id="patch_3">
    <path clip-path="url(#p918fa1a4de)" d="M 102.067515 136.503089 
L 100.261014 130.964728 
L 98.340473 136.503089 
L 102.067515 136.503089 
z
M 99.418672 129.102222 
L 101.240724 129.102222 
L 105.558702 141.64 
L 103.791078 141.64 
L 102.58588 137.884948 
L 97.879128 137.884948 
L 96.590992 141.64 
L 94.94 141.64 
L 99.418672 129.102222 
z
M 100.253239 129.102222 
L 100.253239 129.102222 
z
" style="fill:#008000;"/>
   </g>
   <g id="patch_4">
    <path clip-path="url(#p918fa1a4de)" d="M 105.558702 116.564444 
L 105.558702 118.058272 
L 101.148734 118.058272 
L 101.148734 129.102222 
L 99.349968 129.102222 
L 99.349968 118.058272 
L 94.94 118.058272 
L 94.94 116.564444 
L 105.558702 116.564444 
z
" style="fill:#ff0000;"/>
   </g>
   <g id="patch_5">
    <path clip-path="url(#p918fa1a4de)" d="M 100.523163 91.488889 
Q 102.797109 91.488889 104.051431 93.874567 
Q 105.305752 96.25506 105.443962 99.283834 
L 103.863673 99.283834 
Q 103.595077 96.986322 102.791894 95.643081 
Q 101.988711 94.294654 100.53881 94.294654 
Q 98.770765 94.294654 97.683339 96.768499 
Q 96.595913 99.237158 96.595913 104.340435 
Q 96.595913 108.525745 97.576421 111.129246 
Q 98.559538 113.727562 100.507517 113.727562 
Q 102.299032 113.727562 103.237817 110.989218 
Q 103.733287 109.547438 103.978414 107.192877 
L 105.558702 107.192877 
Q 105.347475 110.952914 104.158348 113.499366 
Q 102.731916 116.564444 100.311937 116.564444 
Q 98.225748 116.564444 96.807139 114.04911 
Q 94.94 110.729905 94.94 103.790692 
Q 94.94 98.52664 96.342962 95.155573 
Q 97.858057 91.488889 100.523163 91.488889 
z
M 100.197196 91.488889 
L 100.197196 91.488889 
z
" style="fill:#0000ff;"/>
   </g>
   <g id="patch_6">
    <path clip-path="url(#p918fa1a4de)" d="M 100.416455 28.890703 
Q 102.054581 28.890703 103.249628 32.130104 
Q 104.981434 36.781884 105.368811 48.443728 
L 103.811705 48.443728 
Q 103.525603 41.926053 102.63185 38.945804 
Q 101.738096 35.965555 100.375945 35.965555 
Q 98.763138 35.965555 97.659238 42.172247 
Q 96.555339 48.365982 96.555339 60.636833 
Q 96.555339 71.236154 97.464284 77.896362 
Q 98.37576 84.556571 100.431646 84.556571 
Q 102.006475 84.556571 103.039482 79.891833 
Q 104.072489 75.214138 104.095276 64.757352 
L 100.456965 64.757352 
L 100.456965 58.084185 
L 105.558702 58.084185 
L 105.558702 89.908061 
L 104.54595 89.908061 
L 104.166168 82.250117 
Q 103.368626 86.746406 102.750848 88.495682 
Q 101.712777 91.488889 100.115161 91.488889 
Q 98.05168 91.488889 96.562935 84.647274 
Q 94.94 76.056382 94.94 61.077392 
Q 94.94 46.137274 96.522425 37.313146 
Q 98.026361 28.890703 100.416455 28.890703 
z
M 100.155671 28.8 
L 100.155671 28.8 
z
" style="fill:#ffa600;"/>
   </g>
   <g id="patch_7">
    <path clip-path="url(#p918fa1a4de)" d="M 111.594036 129.120363 
Q 113.232162 129.120363 114.427209 129.768243 
Q 116.159015 130.698599 116.546392 133.030968 
L 114.989286 133.030968 
Q 114.703184 131.727433 113.809431 131.131383 
Q 112.915677 130.535333 111.553526 130.535333 
Q 109.940719 130.535333 108.83682 131.776672 
Q 107.73292 133.015419 107.73292 135.469589 
Q 107.73292 137.589453 108.641865 138.921495 
Q 109.553341 140.253536 111.609227 140.253536 
Q 113.184056 140.253536 114.217063 139.320589 
Q 115.25007 138.38505 115.272857 136.293693 
L 111.634546 136.293693 
L 111.634546 134.959059 
L 116.736283 134.959059 
L 116.736283 141.323834 
L 115.723531 141.323834 
L 115.34375 139.792246 
Q 114.546208 140.691503 113.928429 141.041359 
Q 112.890358 141.64 111.292743 141.64 
Q 109.229261 141.64 107.740516 140.271677 
Q 106.117581 138.553499 106.117581 135.557701 
Q 106.117581 132.569677 107.700006 130.804851 
Q 109.203942 129.120363 111.594036 129.120363 
z
M 111.333253 129.102222 
L 111.333253 129.102222 
z
" style="fill:#ffa600;"/>
   </g>
   <g id="patch_8">
    <path clip-path="url(#p918fa1a4de)" d="M 116.736283 116.564444 
L 116.736283 118.058272 
L 112.326315 118.058272 
L 112.326315 129.102222 
L 110.527549 129.102222 
L 110.527549 118.058272 
L 106.117581 118.058272 
L 106.117581 116.564444 
L 116.736283 116.564444 
z
" style="fill:#ff0000;"/>
   </g>
   <g id="patch_9">
    <path clip-path="url(#p918fa1a4de)" d="M 111.700744 91.488889 
Q 113.97469 91.488889 115.229012 93.874567 
Q 116.483333 96.25506 116.621543 99.283834 
L 115.041255 99.283834 
Q 114.772658 96.986322 113.969475 95.643081 
Q 113.166292 94.294654 111.716391 94.294654 
Q 109.948346 94.294654 108.86092 96.768499 
Q 107.773494 99.237158 107.773494 104.340435 
Q 107.773494 108.525745 108.754002 111.129246 
Q 109.737119 113.727562 111.685098 113.727562 
Q 113.476613 113.727562 114.415398 110.989218 
Q 114.910868 109.547438 115.155995 107.192877 
L 116.736283 107.192877 
Q 116.525057 110.952914 115.335929 113.499366 
Q 113.909497 116.564444 111.489518 116.564444 
Q 109.403329 116.564444 107.98472 114.04911 
Q 106.117581 110.729905 106.117581 103.790692 
Q 106.117581 98.52664 107.520543 95.155573 
Q 109.035638 91.488889 111.700744 91.488889 
z
M 111.374777 91.488889 
L 111.374777 91.488889 
z
" style="fill:#0000ff;"/>
   </g>
   <g id="patch_10">
    <path clip-path="url(#p918fa1a4de)" d="M 113.245097 65.804332 
L 111.438595 38.112529 
L 109.518054 65.804332 
L 113.245097 65.804332 
z
M 110.596253 28.8 
L 112.418305 28.8 
L 116.736283 91.488889 
L 114.968659 91.488889 
L 113.763461 72.713628 
L 109.056709 72.713628 
L 107.768573 91.488889 
L 106.117581 91.488889 
L 110.596253 28.8 
z
M 111.43082 28.8 
L 111.43082 28.8 
z
" style="fill:#008000;"/>
   </g>
   <g id="patch_11">
    <path clip-path="url(#p918fa1a4de)" d="M 122.878326 129.102222 
Q 125.152272 129.102222 126.406593 130.295061 
Q 127.660914 131.485308 127.799124 132.999695 
L 126.218836 132.999695 
Q 125.950239 131.850939 125.147056 131.179318 
Q 124.343873 130.505105 122.893972 130.505105 
Q 121.125927 130.505105 120.038501 131.742027 
Q 118.951075 132.976357 118.951075 135.527995 
Q 118.951075 137.62065 119.931584 138.922401 
Q 120.9147 140.221559 122.862679 140.221559 
Q 124.654194 140.221559 125.592979 138.852387 
Q 126.088449 138.131497 126.333576 136.954216 
L 127.913864 136.954216 
Q 127.702638 138.834235 126.51351 140.107461 
Q 125.087078 141.64 122.667099 141.64 
Q 120.58091 141.64 119.162301 140.382333 
Q 117.295162 138.72273 117.295162 135.253124 
Q 117.295162 132.621098 118.698124 130.935564 
Q 120.213219 129.102222 122.878326 129.102222 
z
M 122.552359 129.102222 
L 122.552359 129.102222 
z
" style="fill:#0000ff;"/>
   </g>
   <g id="patch_12">
    <path clip-path="url(#p918fa1a4de)" d="M 124.422678 118.8284 
L 122.616176 107.751678 
L 120.695635 118.8284 
L 124.422678 118.8284 
z
M 121.773834 104.026667 
L 123.595886 104.026667 
L 127.913864 129.102222 
L 126.14624 129.102222 
L 124.941042 121.592118 
L 120.23429 121.592118 
L 118.946154 129.102222 
L 117.295162 129.102222 
L 121.773834 104.026667 
z
M 122.608401 104.026667 
L 122.608401 104.026667 
z
" style="fill:#008000;"/>
   </g>
   <g id="patch_13">
    <path clip-path="url(#p918fa1a4de)" d="M 122.771617 78.987392 
Q 124.409743 78.987392 125.60479 80.283153 
Q 127.336596 82.143865 127.723973 86.808602 
L 126.166868 86.808602 
Q 125.880765 84.201532 124.987012 83.009433 
Q 124.093258 81.817333 122.731107 81.817333 
Q 121.1183 81.817333 120.014401 84.30001 
Q 118.910501 86.777504 118.910501 91.685844 
Q 118.910501 95.925573 119.819446 98.589656 
Q 120.730923 101.253739 122.786809 101.253739 
Q 124.361638 101.253739 125.394644 99.387844 
Q 126.427651 97.516766 126.450438 93.334052 
L 122.812127 93.334052 
L 122.812127 90.664785 
L 127.913864 90.664785 
L 127.913864 103.394336 
L 126.901113 103.394336 
L 126.521331 100.331158 
Q 125.723789 102.129673 125.10601 102.829384 
Q 124.06794 104.026667 122.470324 104.026667 
Q 120.406842 104.026667 118.918097 101.290021 
Q 117.295162 97.853664 117.295162 91.862068 
Q 117.295162 85.886021 118.877587 82.356369 
Q 120.381523 78.987392 122.771617 78.987392 
z
M 122.510834 78.951111 
L 122.510834 78.951111 
z
" style="fill:#ffa600;"/>
   </g>
   <g id="patch_14">
    <path clip-path="url(#p918fa1a4de)" d="M 127.913864 28.8 
L 127.913864 34.775312 
L 123.503896 34.775312 
L 123.503896 78.951111 
L 121.705131 78.951111 
L 121.705131 34.775312 
L 117.295162 34.775312 
L 117.295162 28.8 
L 127.913864 28.8 
z
" style="fill:#ff0000;"/>
   </g>
   <g id="patch_15">
    <path clip-path="url(#p918fa1a4de)" d="M 134.055907 129.102222 
Q 136.329853 129.102222 137.584174 130.295061 
Q 138.838495 131.485308 138.976705 132.999695 
L 137.396417 132.999695 
Q 137.12782 131.850939 136.324637 131.179318 
Q 135.521454 130.505105 134.071553 130.505105 
Q 132.303508 130.505105 131.216082 131.742027 
Q 130.128656 132.976357 130.128656 135.527995 
Q 130.128656 137.62065 131.109165 138.922401 
Q 132.092281 140.221559 134.04026 140.221559 
Q 135.831775 140.221559 136.77056 138.852387 
Q 137.26603 138.131497 137.511157 136.954216 
L 139.091445 136.954216 
Q 138.880219 138.834235 137.691091 140.107461 
Q 136.264659 141.64 133.84468 141.64 
Q 131.758491 141.64 130.339883 140.382333 
Q 128.472743 138.72273 128.472743 135.253124 
Q 128.472743 132.621098 129.875705 130.935564 
Q 131.3908 129.102222 134.055907 129.102222 
z
M 133.72994 129.102222 
L 133.72994 129.102222 
z
" style="fill:#0000ff;"/>
   </g>
   <g id="patch_16">
    <path clip-path="url(#p918fa1a4de)" d="M 139.091445 116.564444 
L 139.091445 118.058272 
L 134.681477 118.058272 
L 134.681477 129.102222 
L 132.882712 129.102222 
L 132.882712 118.058272 
L 128.472743 118.058272 
L 128.472743 116.564444 
L 139.091445 116.564444 
z
" style="fill:#ff0000;"/>
   </g>
   <g id="patch_17">
    <path clip-path="url(#p918fa1a4de)" d="M 135.600259 101.15371 
L 133.793758 84.538629 
L 131.873216 101.15371 
L 135.600259 101.15371 
z
M 132.951415 78.951111 
L 134.773467 78.951111 
L 139.091445 116.564444 
L 137.323822 116.564444 
L 136.118624 105.299288 
L 131.411872 105.299288 
L 130.123735 116.564444 
L 128.472743 116.564444 
L 132.951415 78.951111 
z
M 133.785982 78.951111 
L 133.785982 78.951111 
z
" style="fill:#008000;"/>
   </g>
   <g id="patch_18">
    <path clip-path="url(#p918fa1a4de)" d="M 133.949198 28.872563 
Q 135.587324 28.872563 136.782371 31.464083 
Q 138.514177 35.185507 138.901554 44.514982 
L 137.344449 44.514982 
Q 137.058346 39.300842 136.164593 36.916643 
Q 135.270839 34.532444 133.908688 34.532444 
Q 132.295881 34.532444 131.191982 39.497798 
Q 130.088082 44.452786 130.088082 54.269467 
Q 130.088082 62.748923 130.997027 68.07709 
Q 131.908504 73.405257 133.96439 73.405257 
Q 135.539219 73.405257 136.572225 69.673467 
Q 137.605232 65.93131 137.628019 57.565881 
L 133.989709 57.565881 
L 133.989709 52.227348 
L 139.091445 52.227348 
L 139.091445 77.686449 
L 138.078694 77.686449 
L 137.698912 71.560094 
Q 136.90137 75.157125 136.283591 76.556546 
Q 135.245521 78.951111 133.647905 78.951111 
Q 131.584423 78.951111 130.095678 73.477819 
Q 128.472743 66.605106 128.472743 54.621914 
Q 128.472743 42.669819 130.055168 35.610517 
Q 131.559104 28.872563 133.949198 28.872563 
z
M 133.688415 28.8 
L 133.688415 28.8 
z
" style="fill:#ffa600;"/>
   </g>
   <g id="patch_19">
    <path clip-path="url(#p918fa1a4de)" d="M 146.77784 136.503089 
L 144.971339 130.964728 
L 143.050797 136.503089 
L 146.77784 136.503089 
z
M 144.128996 129.102222 
L 145.951048 129.102222 
L 150.269027 141.64 
L 148.501403 141.64 
L 147.296205 137.884948 
L 142.589453 137.884948 
L 141.301316 141.64 
L 139.650324 141.64 
L 144.128996 129.102222 
z
M 144.963563 129.102222 
L 144.963563 129.102222 
z
" style="fill:#008000;"/>
   </g>
   <g id="patch_20">
    <path clip-path="url(#p918fa1a4de)" d="M 145.233488 116.564444 
Q 147.507434 116.564444 148.761755 117.757284 
Q 150.016076 118.94753 150.154286 120.461917 
L 148.573998 120.461917 
Q 148.305401 119.313161 147.502218 118.641541 
Q 146.699036 117.967327 145.249134 117.967327 
Q 143.481089 117.967327 142.393663 119.20425 
Q 141.306237 120.438579 141.306237 122.990218 
Q 141.306237 125.082873 142.286746 126.384623 
Q 143.269862 127.683781 145.217841 127.683781 
Q 147.009356 127.683781 147.948141 126.314609 
Q 148.443611 125.593719 148.688738 124.416438 
L 150.269027 124.416438 
Q 150.0578 126.296457 148.868672 127.569683 
Q 147.44224 129.102222 145.022261 129.102222 
Q 142.936072 129.102222 141.517464 127.844555 
Q 139.650324 126.184952 139.650324 122.715346 
Q 139.650324 120.08332 141.053287 118.397787 
Q 142.568381 116.564444 145.233488 116.564444 
z
M 144.907521 116.564444 
L 144.907521 116.564444 
z
" style="fill:#0000ff;"/>
   </g>
   <g id="patch_21">
    <path clip-path="url(#p918fa1a4de)" d="M 150.269027 104.026667 
L 150.269027 105.520495 
L 145.859058 105.520495 
L 145.859058 116.564444 
L 144.060293 116.564444 
L 144.060293 105.520495 
L 139.650324 105.520495 
L 139.650324 104.026667 
L 150.269027 104.026667 
z
" style="fill:#ff0000;"/>
   </g>
   <g id="patch_22">
    <path clip-path="url(#p918fa1a4de)" d="M 145.12678 28.908844 
Q 146.764906 28.908844 147.959953 32.796125 
Q 149.691758 38.378261 150.079136 52.372473 
L 148.52203 52.372473 
Q 148.235927 44.551264 147.342174 40.974965 
Q 146.448421 37.398666 145.086269 37.398666 
Q 143.473462 37.398666 142.369563 44.846697 
Q 141.265664 52.279179 141.265664 67.0042 
Q 141.265664 79.723384 142.174608 87.715635 
Q 143.086085 95.707885 145.141971 95.707885 
Q 146.7168 95.707885 147.749807 90.1102 
Q 148.782813 84.496966 148.8056 71.948822 
L 145.16729 71.948822 
L 145.16729 63.941022 
L 150.269027 63.941022 
L 150.269027 102.129673 
L 149.256275 102.129673 
L 148.876493 92.940141 
Q 148.078951 98.335687 147.461172 100.434819 
Q 146.423102 104.026667 144.825486 104.026667 
Q 142.762004 104.026667 141.273259 95.816729 
Q 139.650324 85.507659 139.650324 67.53287 
Q 139.650324 49.604729 141.232749 39.015775 
Q 142.736685 28.908844 145.12678 28.908844 
z
M 144.865996 28.8 
L 144.865996 28.8 
z
" style="fill:#ffa600;"/>
   </g>
   <g id="patch_23">
    <path clip-path="url(#p918fa1a4de)" d="M 157.955421 136.503089 
L 156.14892 130.964728 
L 154.228378 136.503089 
L 157.955421 136.503089 
z
M 155.306577 129.102222 
L 157.128629 129.102222 
L 161.446608 141.64 
L 159.678984 141.64 
L 158.473786 137.884948 
L 153.767034 137.884948 
L 152.478897 141.64 
L 150.827906 141.64 
L 155.306577 129.102222 
z
M 156.141144 129.102222 
L 156.141144 129.102222 
z
" style="fill:#008000;"/>
   </g>
   <g id="patch_24">
    <path clip-path="url(#p918fa1a4de)" d="M 156.304361 104.062948 
Q 157.942487 104.062948 159.137534 105.358708 
Q 160.869339 107.21942 161.256717 111.884158 
L 159.699611 111.884158 
Q 159.413509 109.277088 158.519755 108.084988 
Q 157.626002 106.892889 156.263851 106.892889 
Q 154.651043 106.892889 153.547144 109.375566 
Q 152.443245 111.85306 152.443245 116.7614 
Q 152.443245 121.001128 153.352189 123.665212 
Q 154.263666 126.329295 156.319552 126.329295 
Q 157.894381 126.329295 158.927388 124.4634 
Q 159.960394 122.592322 159.983181 118.409607 
L 156.344871 118.409607 
L 156.344871 115.740341 
L 161.446608 115.740341 
L 161.446608 128.469891 
L 160.433856 128.469891 
L 160.054074 125.406714 
Q 159.256532 127.205229 158.638753 127.90494 
Q 157.600683 129.102222 156.003067 129.102222 
Q 153.939585 129.102222 152.45084 126.365576 
Q 150.827906 122.92922 150.827906 116.937623 
Q 150.827906 110.961576 152.41033 107.431925 
Q 153.914267 104.062948 156.304361 104.062948 
z
M 156.043577 104.026667 
L 156.043577 104.026667 
z
" style="fill:#ffa600;"/>
   </g>
   <g id="patch_25">
    <path clip-path="url(#p918fa1a4de)" d="M 161.446608 78.951111 
L 161.446608 81.938767 
L 157.036639 81.938767 
L 157.036639 104.026667 
L 155.237874 104.026667 
L 155.237874 81.938767 
L 150.827906 81.938767 
L 150.827906 78.951111 
L 161.446608 78.951111 
z
" style="fill:#ff0000;"/>
   </g>
   <g id="patch_26">
    <path clip-path="url(#p918fa1a4de)" d="M 156.411069 28.8 
Q 158.685015 28.8 159.939336 33.571357 
Q 161.193657 38.332341 161.331867 44.38989 
L 159.751579 44.38989 
Q 159.482982 39.794866 158.679799 37.108385 
Q 157.876617 34.411531 156.426715 34.411531 
Q 154.65867 34.411531 153.571244 39.35922 
Q 152.483818 44.296538 152.483818 54.503093 
Q 152.483818 62.873713 153.464327 68.080715 
Q 154.447444 73.277345 156.395423 73.277345 
Q 158.186937 73.277345 159.125722 67.800657 
Q 159.621192 64.917098 159.866319 60.207976 
L 161.446608 60.207976 
Q 161.235381 67.72805 160.046253 72.820955 
Q 158.619822 78.951111 156.199842 78.951111 
Q 154.113653 78.951111 152.695045 73.920441 
Q 150.827906 67.282031 150.827906 53.403606 
Q 150.827906 42.875503 152.230868 36.133368 
Q 153.745962 28.8 156.411069 28.8 
z
M 156.085102 28.8 
L 156.085102 28.8 
z
" style="fill:#0000ff;"/>
   </g>
   <g id="patch_27">
    <path clip-path="url(#p918fa1a4de)" d="M 169.133002 136.503089 
L 167.326501 130.964728 
L 165.40596 136.503089 
L 169.133002 136.503089 
z
M 166.484158 129.102222 
L 168.30621 129.102222 
L 172.624189 141.64 
L 170.856565 141.64 
L 169.651367 137.884948 
L 164.944615 137.884948 
L 163.656478 141.64 
L 162.005487 141.64 
L 166.484158 129.102222 
z
M 167.318725 129.102222 
L 167.318725 129.102222 
z
" style="fill:#008000;"/>
   </g>
   <g id="patch_28">
    <path clip-path="url(#p918fa1a4de)" d="M 167.58865 116.564444 
Q 169.862596 116.564444 171.116917 117.757284 
Q 172.371238 118.94753 172.509448 120.461917 
L 170.92916 120.461917 
Q 170.660563 119.313161 169.857381 118.641541 
Q 169.054198 117.967327 167.604296 117.967327 
Q 165.836251 117.967327 164.748825 119.20425 
Q 163.661399 120.438579 163.661399 122.990218 
Q 163.661399 125.082873 164.641908 126.384623 
Q 165.625025 127.683781 167.573004 127.683781 
Q 169.364518 127.683781 170.303304 126.314609 
Q 170.798773 125.593719 171.043901 124.416438 
L 172.624189 124.416438 
Q 172.412962 126.296457 171.223834 127.569683 
Q 169.797403 129.102222 167.377423 129.102222 
Q 165.291234 129.102222 163.872626 127.844555 
Q 162.005487 126.184952 162.005487 122.715346 
Q 162.005487 120.08332 163.408449 118.397787 
Q 164.923544 116.564444 167.58865 116.564444 
z
M 167.262683 116.564444 
L 167.262683 116.564444 
z
" style="fill:#0000ff;"/>
   </g>
   <g id="patch_29">
    <path clip-path="url(#p918fa1a4de)" d="M 172.624189 104.026667 
L 172.624189 105.520495 
L 168.21422 105.520495 
L 168.21422 116.564444 
L 166.415455 116.564444 
L 166.415455 105.520495 
L 162.005487 105.520495 
L 162.005487 104.026667 
L 172.624189 104.026667 
z
" style="fill:#ff0000;"/>
   </g>
   <g id="patch_30">
    <path clip-path="url(#p918fa1a4de)" d="M 167.481942 28.908844 
Q 169.120068 28.908844 170.315115 32.796125 
Q 172.04692 38.378261 172.434298 52.372473 
L 170.877192 52.372473 
Q 170.59109 44.551264 169.697336 40.974965 
Q 168.803583 37.398666 167.441432 37.398666 
Q 165.828625 37.398666 164.724725 44.846697 
Q 163.620826 52.279179 163.620826 67.0042 
Q 163.620826 79.723384 164.52977 87.715635 
Q 165.441247 95.707885 167.497133 95.707885 
Q 169.071962 95.707885 170.104969 90.1102 
Q 171.137976 84.496966 171.160763 71.948822 
L 167.522452 71.948822 
L 167.522452 63.941022 
L 172.624189 63.941022 
L 172.624189 102.129673 
L 171.611437 102.129673 
L 171.231655 92.940141 
Q 170.434113 98.335687 169.816335 100.434819 
Q 168.778264 104.026667 167.180648 104.026667 
Q 165.117166 104.026667 163.628421 95.816729 
Q 162.005487 85.507659 162.005487 67.53287 
Q 162.005487 49.604729 163.587911 39.015775 
Q 165.091848 28.908844 167.481942 28.908844 
z
M 167.221158 28.8 
L 167.221158 28.8 
z
" style="fill:#ffa600;"/>
   </g>
   <g id="patch_31">
    <path clip-path="url(#p918fa1a4de)" d="M 178.766231 129.102222 
Q 181.040177 129.102222 182.294498 130.295061 
Q 183.548819 131.485308 183.68703 132.999695 
L 182.106741 132.999695 
Q 181.838145 131.850939 181.034962 131.179318 
Q 180.231779 130.505105 178.781878 130.505105 
Q 177.013832 130.505105 175.926406 131.742027 
Q 174.83898 132.976357 174.83898 135.527995 
Q 174.83898 137.62065 175.819489 138.922401 
Q 176.802606 140.221559 178.750585 140.221559 
Q 180.5421 140.221559 181.480885 138.852387 
Q 181.976355 138.131497 182.221482 136.954216 
L 183.80177 136.954216 
Q 183.590543 138.834235 182.401416 140.107461 
Q 180.974984 141.64 178.555005 141.64 
Q 176.468816 141.64 175.050207 140.382333 
Q 173.183068 138.72273 173.183068 135.253124 
Q 173.183068 132.621098 174.58603 130.935564 
Q 176.101125 129.102222 178.766231 129.102222 
z
M 178.440264 129.102222 
L 178.440264 129.102222 
z
" style="fill:#0000ff;"/>
   </g>
   <g id="patch_32">
    <path clip-path="url(#p918fa1a4de)" d="M 178.659523 104.062948 
Q 180.297649 104.062948 181.492696 105.358708 
Q 183.224501 107.21942 183.611879 111.884158 
L 182.054773 111.884158 
Q 181.768671 109.277088 180.874917 108.084988 
Q 179.981164 106.892889 178.619013 106.892889 
Q 177.006206 106.892889 175.902306 109.375566 
Q 174.798407 111.85306 174.798407 116.7614 
Q 174.798407 121.001128 175.707352 123.665212 
Q 176.618828 126.329295 178.674714 126.329295 
Q 180.249543 126.329295 181.28255 124.4634 
Q 182.315557 122.592322 182.338344 118.409607 
L 178.700033 118.409607 
L 178.700033 115.740341 
L 183.80177 115.740341 
L 183.80177 128.469891 
L 182.789018 128.469891 
L 182.409236 125.406714 
Q 181.611694 127.205229 180.993916 127.90494 
Q 179.955845 129.102222 178.358229 129.102222 
Q 176.294748 129.102222 174.806003 126.365576 
Q 173.183068 122.92922 173.183068 116.937623 
Q 173.183068 110.961576 174.765492 107.431925 
Q 176.269429 104.062948 178.659523 104.062948 
z
M 178.398739 104.026667 
L 178.398739 104.026667 
z
" style="fill:#ffa600;"/>
   </g>
   <g id="patch_33">
    <path clip-path="url(#p918fa1a4de)" d="M 183.80177 78.951111 
L 183.80177 81.938767 
L 179.391802 81.938767 
L 179.391802 104.026667 
L 177.593036 104.026667 
L 177.593036 81.938767 
L 173.183068 81.938767 
L 173.183068 78.951111 
L 183.80177 78.951111 
z
" style="fill:#ff0000;"/>
   </g>
   <g id="patch_34">
    <path clip-path="url(#p918fa1a4de)" d="M 180.310583 58.403466 
L 178.504082 36.250023 
L 176.583541 58.403466 
L 180.310583 58.403466 
z
M 177.661739 28.8 
L 179.483791 28.8 
L 183.80177 78.951111 
L 182.034146 78.951111 
L 180.828948 63.930902 
L 176.122196 63.930902 
L 174.83406 78.951111 
L 173.183068 78.951111 
L 177.661739 28.8 
z
M 178.496307 28.8 
L 178.496307 28.8 
z
" style="fill:#008000;"/>
   </g>
   <g id="patch_35">
    <path clip-path="url(#p918fa1a4de)" d="M 191.488164 136.503089 
L 189.681663 130.964728 
L 187.761122 136.503089 
L 191.488164 136.503089 
z
M 188.83932 129.102222 
L 190.661373 129.102222 
L 194.979351 141.64 
L 193.211727 141.64 
L 192.006529 137.884948 
L 187.299777 137.884948 
L 186.011641 141.64 
L 184.360649 141.64 
L 188.83932 129.102222 
z
M 189.673888 129.102222 
L 189.673888 129.102222 
z
" style="fill:#008000;"/>
   </g>
   <g id="patch_36">
    <path clip-path="url(#p918fa1a4de)" d="M 189.943812 116.564444 
Q 192.217758 116.564444 193.472079 117.757284 
Q 194.726401 118.94753 194.864611 120.461917 
L 193.284322 120.461917 
Q 193.015726 119.313161 192.212543 118.641541 
Q 191.40936 117.967327 189.959459 117.967327 
Q 188.191414 117.967327 187.103988 119.20425 
Q 186.016561 120.438579 186.016561 122.990218 
Q 186.016561 125.082873 186.99707 126.384623 
Q 187.980187 127.683781 189.928166 127.683781 
Q 191.719681 127.683781 192.658466 126.314609 
Q 193.153936 125.593719 193.399063 124.416438 
L 194.979351 124.416438 
Q 194.768124 126.296457 193.578997 127.569683 
Q 192.152565 129.102222 189.732586 129.102222 
Q 187.646397 129.102222 186.227788 127.844555 
Q 184.360649 126.184952 184.360649 122.715346 
Q 184.360649 120.08332 185.763611 118.397787 
Q 187.278706 116.564444 189.943812 116.564444 
z
M 189.617845 116.564444 
L 189.617845 116.564444 
z
" style="fill:#0000ff;"/>
   </g>
   <g id="patch_37">
    <path clip-path="url(#p918fa1a4de)" d="M 194.979351 104.026667 
L 194.979351 105.520495 
L 190.569383 105.520495 
L 190.569383 116.564444 
L 188.770617 116.564444 
L 188.770617 105.520495 
L 184.360649 105.520495 
L 184.360649 104.026667 
L 194.979351 104.026667 
z
" style="fill:#ff0000;"/>
   </g>
   <g id="patch_38">
    <path clip-path="url(#p918fa1a4de)" d="M 189.837104 28.908844 
Q 191.47523 28.908844 192.670277 32.796125 
Q 194.402083 38.378261 194.78946 52.372473 
L 193.232354 52.372473 
Q 192.946252 44.551264 192.052498 40.974965 
Q 191.158745 37.398666 189.796594 37.398666 
Q 188.183787 37.398666 187.079887 44.846697 
Q 185.975988 52.279179 185.975988 67.0042 
Q 185.975988 79.723384 186.884933 87.715635 
Q 187.796409 95.707885 189.852295 95.707885 
Q 191.427124 95.707885 192.460131 90.1102 
Q 193.493138 84.496966 193.515925 71.948822 
L 189.877614 71.948822 
L 189.877614 63.941022 
L 194.979351 63.941022 
L 194.979351 102.129673 
L 193.966599 102.129673 
L 193.586817 92.940141 
Q 192.789275 98.335687 192.171497 100.434819 
Q 191.133426 104.026667 189.53581 104.026667 
Q 187.472329 104.026667 185.983584 95.816729 
Q 184.360649 85.507659 184.360649 67.53287 
Q 184.360649 49.604729 185.943074 39.015775 
Q 187.44701 28.908844 189.837104 28.908844 
z
M 189.57632 28.8 
L 189.57632 28.8 
z
" style="fill:#ffa600;"/>
   </g>
   <g id="patch_39">
    <path clip-path="url(#p918fa1a4de)" d="M 202.665746 136.503089 
L 200.859244 130.964728 
L 198.938703 136.503089 
L 202.665746 136.503089 
z
M 200.016902 129.102222 
L 201.838954 129.102222 
L 206.156932 141.64 
L 204.389308 141.64 
L 203.18411 137.884948 
L 198.477358 137.884948 
L 197.189222 141.64 
L 195.53823 141.64 
L 200.016902 129.102222 
z
M 200.851469 129.102222 
L 200.851469 129.102222 
z
" style="fill:#008000;"/>
   </g>
   <g id="patch_40">
    <path clip-path="url(#p918fa1a4de)" d="M 206.156932 116.564444 
L 206.156932 118.058272 
L 201.746964 118.058272 
L 201.746964 129.102222 
L 199.948198 129.102222 
L 199.948198 118.058272 
L 195.53823 118.058272 
L 195.53823 116.564444 
L 206.156932 116.564444 
z
" style="fill:#ff0000;"/>
   </g>
   <g id="patch_41">
    <path clip-path="url(#p918fa1a4de)" d="M 201.121393 91.488889 
Q 203.395339 91.488889 204.649661 93.874567 
Q 205.903982 96.25506 206.042192 99.283834 
L 204.461904 99.283834 
Q 204.193307 96.986322 203.390124 95.643081 
Q 202.586941 94.294654 201.13704 94.294654 
Q 199.368995 94.294654 198.281569 96.768499 
Q 197.194143 99.237158 197.194143 104.340435 
Q 197.194143 108.525745 198.174651 111.129246 
Q 199.157768 113.727562 201.105747 113.727562 
Q 202.897262 113.727562 203.836047 110.989218 
Q 204.331517 109.547438 204.576644 107.192877 
L 206.156932 107.192877 
Q 205.945706 110.952914 204.756578 113.499366 
Q 203.330146 116.564444 200.910167 116.564444 
Q 198.823978 116.564444 197.405369 114.04911 
Q 195.53823 110.729905 195.53823 103.790692 
Q 195.53823 98.52664 196.941192 95.155573 
Q 198.456287 91.488889 201.121393 91.488889 
z
M 200.795426 91.488889 
L 200.795426 91.488889 
z
" style="fill:#0000ff;"/>
   </g>
   <g id="patch_42">
    <path clip-path="url(#p918fa1a4de)" d="M 201.014685 28.890703 
Q 202.652811 28.890703 203.847858 32.130104 
Q 205.579664 36.781884 205.967041 48.443728 
L 204.409935 48.443728 
Q 204.123833 41.926053 203.23008 38.945804 
Q 202.336326 35.965555 200.974175 35.965555 
Q 199.361368 35.965555 198.257469 42.172247 
Q 197.153569 48.365982 197.153569 60.636833 
Q 197.153569 71.236154 198.062514 77.896362 
Q 198.97399 84.556571 201.029876 84.556571 
Q 202.604705 84.556571 203.637712 79.891833 
Q 204.670719 75.214138 204.693506 64.757352 
L 201.055195 64.757352 
L 201.055195 58.084185 
L 206.156932 58.084185 
L 206.156932 89.908061 
L 205.14418 89.908061 
L 204.764399 82.250117 
Q 203.966857 86.746406 203.349078 88.495682 
Q 202.311007 91.488889 200.713392 91.488889 
Q 198.64991 91.488889 197.161165 84.647274 
Q 195.53823 76.056382 195.53823 61.077392 
Q 195.53823 46.137274 197.120655 37.313146 
Q 198.624591 28.890703 201.014685 28.890703 
z
M 200.753902 28.8 
L 200.753902 28.8 
z
" style="fill:#ffa600;"/>
   </g>
   <g id="patch_43">
    <path clip-path="url(#p918fa1a4de)" d="M 212.192266 129.120363 
Q 213.830392 129.120363 215.025439 129.768243 
Q 216.757245 130.698599 217.144622 133.030968 
L 215.587517 133.030968 
Q 215.301414 131.727433 214.407661 131.131383 
Q 213.513907 130.535333 212.151756 130.535333 
Q 210.538949 130.535333 209.43505 131.776672 
Q 208.33115 133.015419 208.33115 135.469589 
Q 208.33115 137.589453 209.240095 138.921495 
Q 210.151572 140.253536 212.207458 140.253536 
Q 213.782287 140.253536 214.815293 139.320589 
Q 215.8483 138.38505 215.871087 136.293693 
L 212.232776 136.293693 
L 212.232776 134.959059 
L 217.334513 134.959059 
L 217.334513 141.323834 
L 216.321762 141.323834 
L 215.94198 139.792246 
Q 215.144438 140.691503 214.526659 141.041359 
Q 213.488589 141.64 211.890973 141.64 
Q 209.827491 141.64 208.338746 140.271677 
Q 206.715811 138.553499 206.715811 135.557701 
Q 206.715811 132.569677 208.298236 130.804851 
Q 209.802172 129.120363 212.192266 129.120363 
z
M 211.931483 129.102222 
L 211.931483 129.102222 
z
" style="fill:#ffa600;"/>
   </g>
   <g id="patch_44">
    <path clip-path="url(#p918fa1a4de)" d="M 217.334513 116.564444 
L 217.334513 118.058272 
L 212.924545 118.058272 
L 212.924545 129.102222 
L 211.12578 129.102222 
L 211.12578 118.058272 
L 206.715811 118.058272 
L 206.715811 116.564444 
L 217.334513 116.564444 
z
" style="fill:#ff0000;"/>
   </g>
   <g id="patch_45">
    <path clip-path="url(#p918fa1a4de)" d="M 212.298975 91.488889 
Q 214.572921 91.488889 215.827242 93.874567 
Q 217.081563 96.25506 217.219773 99.283834 
L 215.639485 99.283834 
Q 215.370888 96.986322 214.567705 95.643081 
Q 213.764522 94.294654 212.314621 94.294654 
Q 210.546576 94.294654 209.45915 96.768499 
Q 208.371724 99.237158 208.371724 104.340435 
Q 208.371724 108.525745 209.352233 111.129246 
Q 210.335349 113.727562 212.283328 113.727562 
Q 214.074843 113.727562 215.013628 110.989218 
Q 215.509098 109.547438 215.754225 107.192877 
L 217.334513 107.192877 
Q 217.123287 110.952914 215.934159 113.499366 
Q 214.507727 116.564444 212.087748 116.564444 
Q 210.001559 116.564444 208.58295 114.04911 
Q 206.715811 110.729905 206.715811 103.790692 
Q 206.715811 98.52664 208.118773 95.155573 
Q 209.633868 91.488889 212.298975 91.488889 
z
M 211.973008 91.488889 
L 211.973008 91.488889 
z
" style="fill:#0000ff;"/>
   </g>
   <g id="patch_46">
    <path clip-path="url(#p918fa1a4de)" d="M 213.843327 65.804332 
L 212.036825 38.112529 
L 210.116284 65.804332 
L 213.843327 65.804332 
z
M 211.194483 28.8 
L 213.016535 28.8 
L 217.334513 91.488889 
L 215.566889 91.488889 
L 214.361691 72.713628 
L 209.654939 72.713628 
L 208.366803 91.488889 
L 206.715811 91.488889 
L 211.194483 28.8 
z
M 212.02905 28.8 
L 212.02905 28.8 
z
" style="fill:#008000;"/>
   </g>
   <g id="patch_47">
    <path clip-path="url(#p918fa1a4de)" d="M 223.476556 129.102222 
Q 225.750502 129.102222 227.004823 130.295061 
Q 228.259144 131.485308 228.397354 132.999695 
L 226.817066 132.999695 
Q 226.548469 131.850939 225.745286 131.179318 
Q 224.942103 130.505105 223.492202 130.505105 
Q 221.724157 130.505105 220.636731 131.742027 
Q 219.549305 132.976357 219.549305 135.527995 
Q 219.549305 137.62065 220.529814 138.922401 
Q 221.51293 140.221559 223.460909 140.221559 
Q 225.252424 140.221559 226.191209 138.852387 
Q 226.686679 138.131497 226.931806 136.954216 
L 228.512094 136.954216 
Q 228.300868 138.834235 227.11174 140.107461 
Q 225.685308 141.64 223.265329 141.64 
Q 221.17914 141.64 219.760531 140.382333 
Q 217.893392 138.72273 217.893392 135.253124 
Q 217.893392 132.621098 219.296354 130.935564 
Q 220.811449 129.102222 223.476556 129.102222 
z
M 223.150589 129.102222 
L 223.150589 129.102222 
z
" style="fill:#0000ff;"/>
   </g>
   <g id="patch_48">
    <path clip-path="url(#p918fa1a4de)" d="M 228.512094 116.564444 
L 228.512094 118.058272 
L 224.102126 118.058272 
L 224.102126 129.102222 
L 222.303361 129.102222 
L 222.303361 118.058272 
L 217.893392 118.058272 
L 217.893392 116.564444 
L 228.512094 116.564444 
z
" style="fill:#ff0000;"/>
   </g>
   <g id="patch_49">
    <path clip-path="url(#p918fa1a4de)" d="M 225.020908 106.290622 
L 223.214407 95.213901 
L 221.293865 106.290622 
L 225.020908 106.290622 
z
M 222.372064 91.488889 
L 224.194116 91.488889 
L 228.512094 116.564444 
L 226.744471 116.564444 
L 225.539273 109.05434 
L 220.832521 109.05434 
L 219.544384 116.564444 
L 217.893392 116.564444 
L 222.372064 91.488889 
z
M 223.206631 91.488889 
L 223.206631 91.488889 
z
" style="fill:#008000;"/>
   </g>
   <g id="patch_50">
    <path clip-path="url(#p918fa1a4de)" d="M 223.369847 28.890703 
Q 225.007973 28.890703 226.20302 32.130104 
Q 227.934826 36.781884 228.322203 48.443728 
L 226.765098 48.443728 
Q 226.478995 41.926053 225.585242 38.945804 
Q 224.691488 35.965555 223.329337 35.965555 
Q 221.71653 35.965555 220.612631 42.172247 
Q 219.508731 48.365982 219.508731 60.636833 
Q 219.508731 71.236154 220.417676 77.896362 
Q 221.329153 84.556571 223.385039 84.556571 
Q 224.959868 84.556571 225.992874 79.891833 
Q 227.025881 75.214138 227.048668 64.757352 
L 223.410357 64.757352 
L 223.410357 58.084185 
L 228.512094 58.084185 
L 228.512094 89.908061 
L 227.499343 89.908061 
L 227.119561 82.250117 
Q 226.322019 86.746406 225.70424 88.495682 
Q 224.66617 91.488889 223.068554 91.488889 
Q 221.005072 91.488889 219.516327 84.647274 
Q 217.893392 76.056382 217.893392 61.077392 
Q 217.893392 46.137274 219.475817 37.313146 
Q 220.979753 28.890703 223.369847 28.890703 
z
M 223.109064 28.8 
L 223.109064 28.8 
z
" style="fill:#ffa600;"/>
   </g>
   <g id="patch_51">
    <path clip-path="url(#p918fa1a4de)" d="M 236.198489 136.503089 
L 234.391988 130.964728 
L 232.471446 136.503089 
L 236.198489 136.503089 
z
M 233.549645 129.102222 
L 235.371697 129.102222 
L 239.689676 141.64 
L 237.922052 141.64 
L 236.716854 137.884948 
L 232.010102 137.884948 
L 230.721965 141.64 
L 229.070973 141.64 
L 233.549645 129.102222 
z
M 234.384212 129.102222 
L 234.384212 129.102222 
z
" style="fill:#008000;"/>
   </g>
   <g id="patch_52">
    <path clip-path="url(#p918fa1a4de)" d="M 234.654137 116.564444 
Q 236.928083 116.564444 238.182404 117.757284 
Q 239.436725 118.94753 239.574935 120.461917 
L 237.994647 120.461917 
Q 237.72605 119.313161 236.922867 118.641541 
Q 236.119685 117.967327 234.669783 117.967327 
Q 232.901738 117.967327 231.814312 119.20425 
Q 230.726886 120.438579 230.726886 122.990218 
Q 230.726886 125.082873 231.707395 126.384623 
Q 232.690511 127.683781 234.63849 127.683781 
Q 236.430005 127.683781 237.36879 126.314609 
Q 237.86426 125.593719 238.109387 124.416438 
L 239.689676 124.416438 
Q 239.478449 126.296457 238.289321 127.569683 
Q 236.862889 129.102222 234.44291 129.102222 
Q 232.356721 129.102222 230.938113 127.844555 
Q 229.070973 126.184952 229.070973 122.715346 
Q 229.070973 120.08332 230.473936 118.397787 
Q 231.98903 116.564444 234.654137 116.564444 
z
M 234.32817 116.564444 
L 234.32817 116.564444 
z
" style="fill:#0000ff;"/>
   </g>
   <g id="patch_53">
    <path clip-path="url(#p918fa1a4de)" d="M 234.547429 104.044807 
Q 236.185554 104.044807 237.380602 104.692688 
Q 239.112407 105.623043 239.499785 107.955412 
L 237.942679 107.955412 
Q 237.656576 106.651877 236.762823 106.055827 
Q 235.86907 105.459778 234.506918 105.459778 
Q 232.894111 105.459778 231.790212 106.701116 
Q 230.686312 107.939863 230.686312 110.394033 
Q 230.686312 112.513897 231.595257 113.845939 
Q 232.506734 115.177981 234.56262 115.177981 
Q 236.137449 115.177981 237.170456 114.245033 
Q 238.203462 113.309494 238.226249 111.218137 
L 234.587939 111.218137 
L 234.587939 109.883504 
L 239.689676 109.883504 
L 239.689676 116.248279 
L 238.676924 116.248279 
L 238.297142 114.71669 
Q 237.4996 115.615948 236.881821 115.965803 
Q 235.843751 116.564444 234.246135 116.564444 
Q 232.182653 116.564444 230.693908 115.196121 
Q 229.070973 113.477943 229.070973 110.482145 
Q 229.070973 107.494122 230.653398 105.729296 
Q 232.157334 104.044807 234.547429 104.044807 
z
M 234.286645 104.026667 
L 234.286645 104.026667 
z
" style="fill:#ffa600;"/>
   </g>
   <g id="patch_54">
    <path clip-path="url(#p918fa1a4de)" d="M 239.689676 28.8 
L 239.689676 37.762968 
L 235.279707 37.762968 
L 235.279707 104.026667 
L 233.480942 104.026667 
L 233.480942 37.762968 
L 229.070973 37.762968 
L 229.070973 28.8 
L 239.689676 28.8 
z
" style="fill:#ff0000;"/>
   </g>
   <g id="patch_55">
    <path clip-path="url(#p918fa1a4de)" d="M 247.37607 136.503089 
L 245.569569 130.964728 
L 243.649027 136.503089 
L 247.37607 136.503089 
z
M 244.727226 129.102222 
L 246.549278 129.102222 
L 250.867257 141.64 
L 249.099633 141.64 
L 247.894435 137.884948 
L 243.187683 137.884948 
L 241.899546 141.64 
L 240.248555 141.64 
L 244.727226 129.102222 
z
M 245.561793 129.102222 
L 245.561793 129.102222 
z
" style="fill:#008000;"/>
   </g>
   <g id="patch_56">
    <path clip-path="url(#p918fa1a4de)" d="M 245.72501 116.582585 
Q 247.363136 116.582585 248.558183 117.230465 
Q 250.289988 118.160821 250.677366 120.49319 
L 249.12026 120.49319 
Q 248.834158 119.189655 247.940404 118.593605 
Q 247.046651 117.997555 245.6845 117.997555 
Q 244.071692 117.997555 242.967793 119.238894 
Q 241.863894 120.477641 241.863894 122.931811 
Q 241.863894 125.051675 242.772838 126.383717 
Q 243.684315 127.715759 245.740201 127.715759 
Q 247.31503 127.715759 248.348037 126.782811 
Q 249.381043 125.847272 249.40383 123.755915 
L 245.76552 123.755915 
L 245.76552 122.421282 
L 250.867257 122.421282 
L 250.867257 128.786057 
L 249.854505 128.786057 
L 249.474723 127.254468 
Q 248.677181 128.153726 248.059402 128.503581 
Q 247.021332 129.102222 245.423716 129.102222 
Q 243.360234 129.102222 241.871489 127.733899 
Q 240.248555 126.015721 240.248555 123.019923 
Q 240.248555 120.031899 241.830979 118.267074 
Q 243.334916 116.582585 245.72501 116.582585 
z
M 245.464226 116.564444 
L 245.464226 116.564444 
z
" style="fill:#ffa600;"/>
   </g>
   <g id="patch_57">
    <path clip-path="url(#p918fa1a4de)" d="M 245.831718 91.488889 
Q 248.105664 91.488889 249.359985 93.874567 
Q 250.614306 96.25506 250.752516 99.283834 
L 249.172228 99.283834 
Q 248.903631 96.986322 248.100448 95.643081 
Q 247.297266 94.294654 245.847364 94.294654 
Q 244.079319 94.294654 242.991893 96.768499 
Q 241.904467 99.237158 241.904467 104.340435 
Q 241.904467 108.525745 242.884976 111.129246 
Q 243.868093 113.727562 245.816071 113.727562 
Q 247.607586 113.727562 248.546371 110.989218 
Q 249.041841 109.547438 249.286968 107.192877 
L 250.867257 107.192877 
Q 250.65603 110.952914 249.466902 113.499366 
Q 248.040471 116.564444 245.620491 116.564444 
Q 243.534302 116.564444 242.115694 114.04911 
Q 240.248555 110.729905 240.248555 103.790692 
Q 240.248555 98.52664 241.651517 95.155573 
Q 243.166611 91.488889 245.831718 91.488889 
z
M 245.505751 91.488889 
L 245.505751 91.488889 
z
" style="fill:#0000ff;"/>
   </g>
   <g id="patch_58">
    <path clip-path="url(#p918fa1a4de)" d="M 250.867257 28.8 
L 250.867257 36.26914 
L 246.457288 36.26914 
L 246.457288 91.488889 
L 244.658523 91.488889 
L 244.658523 36.26914 
L 240.248555 36.26914 
L 240.248555 28.8 
L 250.867257 28.8 
z
" style="fill:#ff0000;"/>
   </g>
   <g id="patch_59">
    <path clip-path="url(#p918fa1a4de)" d="M 256.902591 129.120363 
Q 258.540717 129.120363 259.735764 129.768243 
Q 261.467569 130.698599 261.854947 133.030968 
L 260.297841 133.030968 
Q 260.011739 131.727433 259.117985 131.131383 
Q 258.224232 130.535333 256.862081 130.535333 
Q 255.249274 130.535333 254.145374 131.776672 
Q 253.041475 133.015419 253.041475 135.469589 
Q 253.041475 137.589453 253.950419 138.921495 
Q 254.861896 140.253536 256.917782 140.253536 
Q 258.492611 140.253536 259.525618 139.320589 
Q 260.558625 138.38505 260.581411 136.293693 
L 256.943101 136.293693 
L 256.943101 134.959059 
L 262.044838 134.959059 
L 262.044838 141.323834 
L 261.032086 141.323834 
L 260.652304 139.792246 
Q 259.854762 140.691503 259.236984 141.041359 
Q 258.198913 141.64 256.601297 141.64 
Q 254.537815 141.64 253.04907 140.271677 
Q 251.426136 138.553499 251.426136 135.557701 
Q 251.426136 132.569677 253.00856 130.804851 
Q 254.512497 129.120363 256.902591 129.120363 
z
M 256.641807 129.102222 
L 256.641807 129.102222 
z
" style="fill:#ffa600;"/>
   </g>
   <g id="patch_60">
    <path clip-path="url(#p918fa1a4de)" d="M 258.553651 118.8284 
L 256.74715 107.751678 
L 254.826609 118.8284 
L 258.553651 118.8284 
z
M 255.904807 104.026667 
L 257.726859 104.026667 
L 262.044838 129.102222 
L 260.277214 129.102222 
L 259.072016 121.592118 
L 254.365264 121.592118 
L 253.077127 129.102222 
L 251.426136 129.102222 
L 255.904807 104.026667 
z
M 256.739374 104.026667 
L 256.739374 104.026667 
z
" style="fill:#008000;"/>
   </g>
   <g id="patch_61">
    <path clip-path="url(#p918fa1a4de)" d="M 257.009299 78.951111 
Q 259.283245 78.951111 260.537566 81.33679 
Q 261.791887 83.717282 261.930097 86.746056 
L 260.349809 86.746056 
Q 260.081212 84.448544 259.27803 83.105303 
Q 258.474847 81.756876 257.024945 81.756876 
Q 255.2569 81.756876 254.169474 84.230721 
Q 253.082048 86.69938 253.082048 91.802657 
Q 253.082048 95.987967 254.062557 98.591469 
Q 255.045674 101.189784 256.993653 101.189784 
Q 258.785167 101.189784 259.723952 98.45144 
Q 260.219422 97.00966 260.46455 94.655099 
L 262.044838 94.655099 
Q 261.833611 98.415136 260.644483 100.961588 
Q 259.218052 104.026667 256.798072 104.026667 
Q 254.711883 104.026667 253.293275 101.511332 
Q 251.426136 98.192127 251.426136 91.252914 
Q 251.426136 85.988863 252.829098 82.617795 
Q 254.344193 78.951111 257.009299 78.951111 
z
M 256.683332 78.951111 
L 256.683332 78.951111 
z
" style="fill:#0000ff;"/>
   </g>
   <g id="patch_62">
    <path clip-path="url(#p918fa1a4de)" d="M 262.044838 28.8 
L 262.044838 34.775312 
L 257.634869 34.775312 
L 257.634869 78.951111 
L 255.836104 78.951111 
L 255.836104 34.775312 
L 251.426136 34.775312 
L 251.426136 28.8 
L 262.044838 28.8 
z
" style="fill:#ff0000;"/>
   </g>
   <g id="patch_63">
    <path clip-path="url(#p918fa1a4de)" d="M 269.731232 136.503089 
L 267.924731 130.964728 
L 266.00419 136.503089 
L 269.731232 136.503089 
z
M 267.082388 129.102222 
L 268.90444 129.102222 
L 273.222419 141.64 
L 271.454795 141.64 
L 270.249597 137.884948 
L 265.542845 137.884948 
L 264.254709 141.64 
L 262.603717 141.64 
L 267.082388 129.102222 
z
M 267.916956 129.102222 
L 267.916956 129.102222 
z
" style="fill:#008000;"/>
   </g>
   <g id="patch_64">
    <path clip-path="url(#p918fa1a4de)" d="M 268.080172 116.582585 
Q 269.718298 116.582585 270.913345 117.230465 
Q 272.64515 118.160821 273.032528 120.49319 
L 271.475422 120.49319 
Q 271.18932 119.189655 270.295566 118.593605 
Q 269.401813 117.997555 268.039662 117.997555 
Q 266.426855 117.997555 265.322955 119.238894 
Q 264.219056 120.477641 264.219056 122.931811 
Q 264.219056 125.051675 265.128001 126.383717 
Q 266.039477 127.715759 268.095363 127.715759 
Q 269.670192 127.715759 270.703199 126.782811 
Q 271.736206 125.847272 271.758993 123.755915 
L 268.120682 123.755915 
L 268.120682 122.421282 
L 273.222419 122.421282 
L 273.222419 128.786057 
L 272.209667 128.786057 
L 271.829885 127.254468 
Q 271.032343 128.153726 270.414565 128.503581 
Q 269.376494 129.102222 267.778878 129.102222 
Q 265.715397 129.102222 264.226651 127.733899 
Q 262.603717 126.015721 262.603717 123.019923 
Q 262.603717 120.031899 264.186141 118.267074 
Q 265.690078 116.582585 268.080172 116.582585 
z
M 267.819388 116.564444 
L 267.819388 116.564444 
z
" style="fill:#ffa600;"/>
   </g>
   <g id="patch_65">
    <path clip-path="url(#p918fa1a4de)" d="M 273.222419 78.951111 
L 273.222419 83.432595 
L 268.812451 83.432595 
L 268.812451 116.564444 
L 267.013685 116.564444 
L 267.013685 83.432595 
L 262.603717 83.432595 
L 262.603717 78.951111 
L 273.222419 78.951111 
z
" style="fill:#ff0000;"/>
   </g>
   <g id="patch_66">
    <path clip-path="url(#p918fa1a4de)" d="M 268.18688 28.8 
Q 270.460826 28.8 271.715147 33.571357 
Q 272.969468 38.332341 273.107678 44.38989 
L 271.52739 44.38989 
Q 271.258793 39.794866 270.455611 37.108385 
Q 269.652428 34.411531 268.202527 34.411531 
Q 266.434481 34.411531 265.347055 39.35922 
Q 264.259629 44.296538 264.259629 54.503093 
Q 264.259629 62.873713 265.240138 68.080715 
Q 266.223255 73.277345 268.171234 73.277345 
Q 269.962749 73.277345 270.901534 67.800657 
Q 271.397003 64.917098 271.642131 60.207976 
L 273.222419 60.207976 
Q 273.011192 67.72805 271.822065 72.820955 
Q 270.395633 78.951111 267.975654 78.951111 
Q 265.889465 78.951111 264.470856 73.920441 
Q 262.603717 67.282031 262.603717 53.403606 
Q 262.603717 42.875503 264.006679 36.133368 
Q 265.521774 28.8 268.18688 28.8 
z
M 267.860913 28.8 
L 267.860913 28.8 
z
" style="fill:#0000ff;"/>
   </g>
   <g id="patch_67">
    <path clip-path="url(#p918fa1a4de)" d="M 280.908813 136.503089 
L 279.102312 130.964728 
L 277.181771 136.503089 
L 280.908813 136.503089 
z
M 278.259969 129.102222 
L 280.082022 129.102222 
L 284.4 141.64 
L 282.632376 141.64 
L 281.427178 137.884948 
L 276.720426 137.884948 
L 275.43229 141.64 
L 273.781298 141.64 
L 278.259969 129.102222 
z
M 279.094537 129.102222 
L 279.094537 129.102222 
z
" style="fill:#008000;"/>
   </g>
   <g id="patch_68">
    <path clip-path="url(#p918fa1a4de)" d="M 279.257753 116.582585 
Q 280.895879 116.582585 282.090926 117.230465 
Q 283.822732 118.160821 284.210109 120.49319 
L 282.653003 120.49319 
Q 282.366901 119.189655 281.473147 118.593605 
Q 280.579394 117.997555 279.217243 117.997555 
Q 277.604436 117.997555 276.500536 119.238894 
Q 275.396637 120.477641 275.396637 122.931811 
Q 275.396637 125.051675 276.305582 126.383717 
Q 277.217058 127.715759 279.272944 127.715759 
Q 280.847773 127.715759 281.88078 126.782811 
Q 282.913787 125.847272 282.936574 123.755915 
L 279.298263 123.755915 
L 279.298263 122.421282 
L 284.4 122.421282 
L 284.4 128.786057 
L 283.387248 128.786057 
L 283.007466 127.254468 
Q 282.209924 128.153726 281.592146 128.503581 
Q 280.554075 129.102222 278.956459 129.102222 
Q 276.892978 129.102222 275.404233 127.733899 
Q 273.781298 126.015721 273.781298 123.019923 
Q 273.781298 120.031899 275.363723 118.267074 
Q 276.867659 116.582585 279.257753 116.582585 
z
M 278.996969 116.564444 
L 278.996969 116.564444 
z
" style="fill:#ffa600;"/>
   </g>
   <g id="patch_69">
    <path clip-path="url(#p918fa1a4de)" d="M 279.364461 91.488889 
Q 281.638407 91.488889 282.892728 93.874567 
Q 284.14705 96.25506 284.28526 99.283834 
L 282.704971 99.283834 
Q 282.436375 96.986322 281.633192 95.643081 
Q 280.830009 94.294654 279.380108 94.294654 
Q 277.612063 94.294654 276.524636 96.768499 
Q 275.43721 99.237158 275.43721 104.340435 
Q 275.43721 108.525745 276.417719 111.129246 
Q 277.400836 113.727562 279.348815 113.727562 
Q 281.14033 113.727562 282.079115 110.989218 
Q 282.574585 109.547438 282.819712 107.192877 
L 284.4 107.192877 
Q 284.188773 110.952914 282.999646 113.499366 
Q 281.573214 116.564444 279.153235 116.564444 
Q 277.067046 116.564444 275.648437 114.04911 
Q 273.781298 110.729905 273.781298 103.790692 
Q 273.781298 98.52664 275.18426 95.155573 
Q 276.699355 91.488889 279.364461 91.488889 
z
M 279.038494 91.488889 
L 279.038494 91.488889 
z
" style="fill:#0000ff;"/>
   </g>
   <g id="patch_70">
    <path clip-path="url(#p918fa1a4de)" d="M 284.4 28.8 
L 284.4 36.26914 
L 279.990032 36.26914 
L 279.990032 91.488889 
L 278.191266 91.488889 
L 278.191266 36.26914 
L 273.781298 36.26914 
L 273.781298 28.8 
L 284.4 28.8 
z
" style="fill:#ff0000;"/>
   </g>
   <g id="matplotlib.axis_1">
    <g id="xtick_1">
     <g id="text_1">
      <!-- 0 -->
      <g style="fill:#262626;" transform="translate(94.688414 162.986875)scale(0.2 -0.2)">
       <defs>
        <path d="M 1731 4475 
Q 2600 4475 2988 3759 
Q 3288 3206 3288 2244 
Q 3288 1331 3016 734 
Q 2622 -122 1728 -122 
Q 922 -122 528 578 
Q 200 1163 200 2147 
Q 200 2909 397 3456 
Q 766 4475 1731 4475 
z
M 1725 391 
Q 2163 391 2422 778 
Q 2681 1166 2681 2222 
Q 2681 2984 2493 3476 
Q 2306 3969 1766 3969 
Q 1269 3969 1039 3501 
Q 809 3034 809 2125 
Q 809 1441 956 1025 
Q 1181 391 1725 391 
z
" id="Helvetica-30" transform="scale(0.015625)"/>
       </defs>
       <use xlink:href="#Helvetica-30"/>
      </g>
     </g>
    </g>
    <g id="xtick_2">
     <g id="text_2">
      <!-- 10 -->
      <g style="fill:#262626;" transform="translate(200.903287 162.986875)scale(0.2 -0.2)">
       <defs>
        <path d="M 613 3169 
L 613 3600 
Q 1222 3659 1462 3798 
Q 1703 3938 1822 4456 
L 2266 4456 
L 2266 0 
L 1666 0 
L 1666 3169 
L 613 3169 
z
" id="Helvetica-31" transform="scale(0.015625)"/>
       </defs>
       <use xlink:href="#Helvetica-31"/>
       <use x="55.615234" xlink:href="#Helvetica-30"/>
      </g>
     </g>
    </g>
    <g id="text_3">
     <!-- Position -->
     <g style="fill:#262626;" transform="translate(145.20125 189.089219)scale(0.25 -0.25)">
      <defs>
       <path d="M 547 4591 
L 2613 4591 
Q 3225 4591 3600 4245 
Q 3975 3900 3975 3275 
Q 3975 2738 3640 2339 
Q 3306 1941 2613 1941 
L 1169 1941 
L 1169 0 
L 547 0 
L 547 4591 
z
M 3347 3272 
Q 3347 3778 2972 3959 
Q 2766 4056 2406 4056 
L 1169 4056 
L 1169 2466 
L 2406 2466 
Q 2825 2466 3086 2644 
Q 3347 2822 3347 3272 
z
" id="Helvetica-50" transform="scale(0.015625)"/>
       <path d="M 1741 363 
Q 2300 363 2508 786 
Q 2716 1209 2716 1728 
Q 2716 2197 2566 2491 
Q 2328 2953 1747 2953 
Q 1231 2953 997 2559 
Q 763 2166 763 1609 
Q 763 1075 997 719 
Q 1231 363 1741 363 
z
M 1763 3444 
Q 2409 3444 2856 3012 
Q 3303 2581 3303 1744 
Q 3303 934 2909 406 
Q 2516 -122 1688 -122 
Q 997 -122 590 345 
Q 184 813 184 1600 
Q 184 2444 612 2944 
Q 1041 3444 1763 3444 
z
M 1744 3428 
L 1744 3428 
z
" id="Helvetica-6f" transform="scale(0.015625)"/>
       <path d="M 747 1050 
Q 772 769 888 619 
Q 1100 347 1625 347 
Q 1938 347 2175 483 
Q 2413 619 2413 903 
Q 2413 1119 2222 1231 
Q 2100 1300 1741 1391 
L 1294 1503 
Q 866 1609 663 1741 
Q 300 1969 300 2372 
Q 300 2847 642 3140 
Q 984 3434 1563 3434 
Q 2319 3434 2653 2991 
Q 2863 2709 2856 2384 
L 2325 2384 
Q 2309 2575 2191 2731 
Q 1997 2953 1519 2953 
Q 1200 2953 1036 2831 
Q 872 2709 872 2509 
Q 872 2291 1088 2159 
Q 1213 2081 1456 2022 
L 1828 1931 
Q 2434 1784 2641 1647 
Q 2969 1431 2969 969 
Q 2969 522 2630 197 
Q 2291 -128 1597 -128 
Q 850 -128 539 211 
Q 228 550 206 1050 
L 747 1050 
z
M 1578 3428 
L 1578 3428 
z
" id="Helvetica-73" transform="scale(0.015625)"/>
       <path d="M 413 3331 
L 984 3331 
L 984 0 
L 413 0 
L 413 3331 
z
M 413 4591 
L 984 4591 
L 984 3953 
L 413 3953 
L 413 4591 
z
" id="Helvetica-69" transform="scale(0.015625)"/>
       <path d="M 525 4281 
L 1094 4281 
L 1094 3347 
L 1628 3347 
L 1628 2888 
L 1094 2888 
L 1094 703 
Q 1094 528 1213 469 
Q 1278 434 1431 434 
Q 1472 434 1519 436 
Q 1566 438 1628 444 
L 1628 0 
Q 1531 -28 1426 -40 
Q 1322 -53 1200 -53 
Q 806 -53 665 148 
Q 525 350 525 672 
L 525 2888 
L 72 2888 
L 72 3347 
L 525 3347 
L 525 4281 
z
" id="Helvetica-74" transform="scale(0.015625)"/>
       <path d="M 413 3347 
L 947 3347 
L 947 2872 
Q 1184 3166 1450 3294 
Q 1716 3422 2041 3422 
Q 2753 3422 3003 2925 
Q 3141 2653 3141 2147 
L 3141 0 
L 2569 0 
L 2569 2109 
Q 2569 2416 2478 2603 
Q 2328 2916 1934 2916 
Q 1734 2916 1606 2875 
Q 1375 2806 1200 2600 
Q 1059 2434 1017 2257 
Q 975 2081 975 1753 
L 975 0 
L 413 0 
L 413 3347 
z
M 1734 3428 
L 1734 3428 
z
" id="Helvetica-6e" transform="scale(0.015625)"/>
      </defs>
      <use xlink:href="#Helvetica-50"/>
      <use x="66.699219" xlink:href="#Helvetica-6f"/>
      <use x="122.314453" xlink:href="#Helvetica-73"/>
      <use x="172.314453" xlink:href="#Helvetica-69"/>
      <use x="194.53125" xlink:href="#Helvetica-74"/>
      <use x="222.314453" xlink:href="#Helvetica-69"/>
      <use x="244.53125" xlink:href="#Helvetica-6f"/>
      <use x="300.146484" xlink:href="#Helvetica-6e"/>
     </g>
    </g>
   </g>
   <g id="matplotlib.axis_2">
    <g id="ytick_1">
     <g id="text_4">
      <!-- 0 -->
      <g style="fill:#262626;" transform="translate(76.818125 148.813438)scale(0.2 -0.2)">
       <use xlink:href="#Helvetica-30"/>
      </g>
     </g>
    </g>
    <g id="ytick_2">
     <g id="text_5">
      <!-- 0.25 -->
      <g style="fill:#262626;" transform="translate(49.018125 120.603437)scale(0.2 -0.2)">
       <defs>
        <path d="M 547 681 
L 1200 681 
L 1200 0 
L 547 0 
L 547 681 
z
" id="Helvetica-2e" transform="scale(0.015625)"/>
        <path d="M 200 0 
Q 231 578 439 1006 
Q 647 1434 1250 1784 
L 1850 2131 
Q 2253 2366 2416 2531 
Q 2672 2791 2672 3125 
Q 2672 3516 2437 3745 
Q 2203 3975 1813 3975 
Q 1234 3975 1013 3538 
Q 894 3303 881 2888 
L 309 2888 
Q 319 3472 525 3841 
Q 891 4491 1816 4491 
Q 2584 4491 2939 4075 
Q 3294 3659 3294 3150 
Q 3294 2613 2916 2231 
Q 2697 2009 2131 1694 
L 1703 1456 
Q 1397 1288 1222 1134 
Q 909 863 828 531 
L 3272 531 
L 3272 0 
L 200 0 
z
" id="Helvetica-32" transform="scale(0.015625)"/>
        <path d="M 791 1141 
Q 847 659 1238 475 
Q 1438 381 1700 381 
Q 2200 381 2440 700 
Q 2681 1019 2681 1406 
Q 2681 1875 2395 2131 
Q 2109 2388 1709 2388 
Q 1419 2388 1211 2275 
Q 1003 2163 856 1963 
L 369 1991 
L 709 4400 
L 3034 4400 
L 3034 3856 
L 1131 3856 
L 941 2613 
Q 1097 2731 1238 2791 
Q 1488 2894 1816 2894 
Q 2431 2894 2859 2497 
Q 3288 2100 3288 1491 
Q 3288 856 2895 371 
Q 2503 -113 1644 -113 
Q 1097 -113 676 195 
Q 256 503 206 1141 
L 791 1141 
z
" id="Helvetica-35" transform="scale(0.015625)"/>
       </defs>
       <use xlink:href="#Helvetica-30"/>
       <use x="55.615234" xlink:href="#Helvetica-2e"/>
       <use x="83.398438" xlink:href="#Helvetica-32"/>
       <use x="139.013672" xlink:href="#Helvetica-35"/>
      </g>
     </g>
    </g>
    <g id="ytick_3">
     <g id="text_6">
      <!-- 0.50 -->
      <g style="fill:#262626;" transform="translate(49.018125 92.393438)scale(0.2 -0.2)">
       <use xlink:href="#Helvetica-30"/>
       <use x="55.615234" xlink:href="#Helvetica-2e"/>
       <use x="83.398438" xlink:href="#Helvetica-35"/>
       <use x="139.013672" xlink:href="#Helvetica-30"/>
      </g>
     </g>
    </g>
    <g id="ytick_4">
     <g id="text_7">
      <!-- 0.75 -->
      <g style="fill:#262626;" transform="translate(49.018125 64.183437)scale(0.2 -0.2)">
       <defs>
        <path d="M 3347 4400 
L 3347 3909 
Q 3131 3700 2773 3181 
Q 2416 2663 2141 2063 
Q 1869 1478 1728 997 
Q 1638 688 1494 0 
L 872 0 
Q 1084 1281 1809 2550 
Q 2238 3294 2709 3834 
L 234 3834 
L 234 4400 
L 3347 4400 
z
" id="Helvetica-37" transform="scale(0.015625)"/>
       </defs>
       <use xlink:href="#Helvetica-30"/>
       <use x="55.615234" xlink:href="#Helvetica-2e"/>
       <use x="83.398438" xlink:href="#Helvetica-37"/>
       <use x="139.013672" xlink:href="#Helvetica-35"/>
      </g>
     </g>
    </g>
    <g id="ytick_5">
     <g id="text_8">
      <!-- 1.0 -->
      <g style="fill:#262626;" transform="translate(60.14 35.973437)scale(0.2 -0.2)">
       <use xlink:href="#Helvetica-31"/>
       <use x="55.615234" xlink:href="#Helvetica-2e"/>
       <use x="83.398438" xlink:href="#Helvetica-30"/>
      </g>
     </g>
    </g>
    <g id="text_9">
     <!-- Probability -->
     <g style="fill:#262626;" transform="translate(39.65875 143.579375)rotate(-90)scale(0.25 -0.25)">
      <defs>
       <path d="M 428 3347 
L 963 3347 
L 963 2769 
Q 1028 2938 1284 3180 
Q 1541 3422 1875 3422 
Q 1891 3422 1928 3419 
Q 1966 3416 2056 3406 
L 2056 2813 
Q 2006 2822 1964 2825 
Q 1922 2828 1872 2828 
Q 1447 2828 1219 2554 
Q 991 2281 991 1925 
L 991 0 
L 428 0 
L 428 3347 
z
" id="Helvetica-72" transform="scale(0.015625)"/>
       <path d="M 369 4606 
L 916 4606 
L 916 2941 
Q 1100 3181 1356 3307 
Q 1613 3434 1913 3434 
Q 2538 3434 2927 3004 
Q 3316 2575 3316 1738 
Q 3316 944 2931 419 
Q 2547 -106 1866 -106 
Q 1484 -106 1222 78 
Q 1066 188 888 428 
L 888 0 
L 369 0 
L 369 4606 
z
M 1831 391 
Q 2288 391 2514 753 
Q 2741 1116 2741 1709 
Q 2741 2238 2514 2584 
Q 2288 2931 1847 2931 
Q 1463 2931 1173 2647 
Q 884 2363 884 1709 
Q 884 1238 1003 944 
Q 1225 391 1831 391 
z
" id="Helvetica-62" transform="scale(0.015625)"/>
       <path d="M 844 891 
Q 844 647 1022 506 
Q 1200 366 1444 366 
Q 1741 366 2019 503 
Q 2488 731 2488 1250 
L 2488 1703 
Q 2384 1638 2221 1594 
Q 2059 1550 1903 1531 
L 1563 1488 
Q 1256 1447 1103 1359 
Q 844 1213 844 891 
z
M 2206 2028 
Q 2400 2053 2466 2191 
Q 2503 2266 2503 2406 
Q 2503 2694 2298 2823 
Q 2094 2953 1713 2953 
Q 1272 2953 1088 2716 
Q 984 2584 953 2325 
L 428 2325 
Q 444 2944 830 3186 
Q 1216 3428 1725 3428 
Q 2316 3428 2684 3203 
Q 3050 2978 3050 2503 
L 3050 575 
Q 3050 488 3086 434 
Q 3122 381 3238 381 
Q 3275 381 3322 386 
Q 3369 391 3422 400 
L 3422 -16 
Q 3291 -53 3222 -62 
Q 3153 -72 3034 -72 
Q 2744 -72 2613 134 
Q 2544 244 2516 444 
Q 2344 219 2022 53 
Q 1700 -113 1313 -113 
Q 847 -113 551 170 
Q 256 453 256 878 
Q 256 1344 547 1600 
Q 838 1856 1309 1916 
L 2206 2028 
z
M 1741 3428 
L 1741 3428 
z
" id="Helvetica-61" transform="scale(0.015625)"/>
       <path d="M 428 4591 
L 991 4591 
L 991 0 
L 428 0 
L 428 4591 
z
" id="Helvetica-6c" transform="scale(0.015625)"/>
       <path d="M 2503 3347 
L 3125 3347 
Q 3006 3025 2597 1878 
Q 2291 1016 2084 472 
Q 1597 -809 1397 -1090 
Q 1197 -1372 709 -1372 
Q 591 -1372 527 -1362 
Q 463 -1353 369 -1328 
L 369 -816 
Q 516 -856 581 -865 
Q 647 -875 697 -875 
Q 853 -875 926 -823 
Q 1000 -772 1050 -697 
Q 1066 -672 1162 -440 
Q 1259 -209 1303 -97 
L 66 3347 
L 703 3347 
L 1600 622 
L 2503 3347 
z
M 1597 3428 
L 1597 3428 
z
" id="Helvetica-79" transform="scale(0.015625)"/>
      </defs>
      <use xlink:href="#Helvetica-50"/>
      <use x="66.699219" xlink:href="#Helvetica-72"/>
      <use x="100" xlink:href="#Helvetica-6f"/>
      <use x="155.615234" xlink:href="#Helvetica-62"/>
      <use x="211.230469" xlink:href="#Helvetica-61"/>
      <use x="266.845703" xlink:href="#Helvetica-62"/>
      <use x="322.460938" xlink:href="#Helvetica-69"/>
      <use x="344.677734" xlink:href="#Helvetica-6c"/>
      <use x="366.894531" xlink:href="#Helvetica-69"/>
      <use x="389.111328" xlink:href="#Helvetica-74"/>
      <use x="416.894531" xlink:href="#Helvetica-79"/>
     </g>
    </g>
   </g>
   <g id="patch_71">
    <path d="M 94.94 141.64 
L 94.94 28.8 
" style="fill:none;stroke:#000000;stroke-linecap:square;stroke-linejoin:miter;"/>
   </g>
  </g>
 </g>
 <defs>
  <clipPath id="p918fa1a4de">
   <rect height="112.84" width="189.46" x="94.94" y="28.8"/>
  </clipPath>
 </defs>
</svg>
