<?xml version="1.0" encoding="utf-8" standalone="no"?>
<!DOCTYPE svg PUBLIC "-//W3C//DTD SVG 1.1//EN"
  "http://www.w3.org/Graphics/SVG/1.1/DTD/svg11.dtd">
<svg height="216pt" version="1.1" viewBox="0 0 306 216" width="306pt" xmlns="http://www.w3.org/2000/svg" xmlns:xlink="http://www.w3.org/1999/xlink">
 <metadata>
  <rdf:RDF xmlns:cc="http://creativecommons.org/ns#" xmlns:dc="http://purl.org/dc/elements/1.1/" xmlns:rdf="http://www.w3.org/1999/02/22-rdf-syntax-ns#">
   <cc:Work>
    <dc:type rdf:resource="http://purl.org/dc/dcmitype/StillImage"/>
    <dc:date>2022-12-16T08:32:26.038707</dc:date>
    <dc:format>image/svg+xml</dc:format>
    <dc:creator>
     <cc:Agent>
      <dc:title>Matplotlib v3.4.2, https://matplotlib.org/</dc:title>
     </cc:Agent>
    </dc:creator>
   </cc:Work>
  </rdf:RDF>
 </metadata>
 <defs>
  <style type="text/css">*{stroke-linecap:butt;stroke-linejoin:round;}</style>
 </defs>
 <g id="figure_1">
  <g id="patch_1">
   <path d="M 0 216 
L 306 216 
L 306 0 
L 0 0 
z
" style="fill:#ffffff;"/>
  </g>
  <g id="axes_1">
   <g id="patch_2">
    <path d="M 94.94 141.64 
L 284.4 141.64 
L 284.4 28.8 
L 94.94 28.8 
z
" style="fill:#ffffff;"/>
   </g>
   <g id="line2d_1">
    <path clip-path="url(#pb9f4687469)" d="M 94.94 141.64 
L 284.4 141.64 
" style="fill:none;stroke:#000000;stroke-linecap:round;stroke-width:0.5;"/>
   </g>
   <g id="patch_3">
    <path clip-path="url(#pb9f4687469)" d="M 100.523163 118.633997 
Q 102.797109 118.633997 104.051431 120.822779 
Q 105.305752 123.006803 105.443962 125.785604 
L 103.863673 125.785604 
Q 103.595077 123.677712 102.791894 122.445333 
Q 101.988711 121.208195 100.53881 121.208195 
Q 98.770765 121.208195 97.683339 123.477867 
Q 96.595913 125.742781 96.595913 130.424871 
Q 96.595913 134.264756 97.576421 136.653383 
Q 98.559538 139.037253 100.507517 139.037253 
Q 102.299032 139.037253 103.237817 136.524911 
Q 103.733287 135.202126 103.978414 133.041893 
L 105.558702 133.041893 
Q 105.347475 136.491604 104.158348 138.827891 
Q 102.731916 141.64 100.311937 141.64 
Q 98.225748 141.64 96.807139 139.332262 
Q 94.94 136.287 94.94 129.920499 
Q 94.94 125.090904 96.342962 121.99806 
Q 97.858057 118.633997 100.523163 118.633997 
z
M 100.197196 118.633997 
L 100.197196 118.633997 
z
" style="fill:#0000ff;"/>
   </g>
   <g id="patch_4">
    <path clip-path="url(#pb9f4687469)" d="M 105.558702 95.627994 
L 105.558702 98.369071 
L 101.148734 98.369071 
L 101.148734 118.633997 
L 99.349968 118.633997 
L 99.349968 98.369071 
L 94.94 98.369071 
L 94.94 95.627994 
L 105.558702 95.627994 
z
" style="fill:#ff0000;"/>
   </g>
   <g id="patch_5">
    <path clip-path="url(#pb9f4687469)" d="M 100.416455 68.498104 
Q 102.054581 68.498104 103.249628 69.902052 
Q 104.981434 71.918121 105.368811 76.972334 
L 103.811705 76.972334 
Q 103.525603 74.14759 102.63185 72.855958 
Q 101.738096 71.564326 100.375945 71.564326 
Q 98.763138 71.564326 97.659238 74.25429 
Q 96.555339 76.938639 96.555339 82.256794 
Q 96.555339 86.850511 97.464284 89.737028 
Q 98.37576 92.623545 100.431646 92.623545 
Q 102.006475 92.623545 103.039482 90.60186 
Q 104.072489 88.574559 104.095276 84.042615 
L 100.456965 84.042615 
L 100.456965 81.150483 
L 105.558702 81.150483 
L 105.558702 94.942867 
L 104.54595 94.942867 
L 104.166168 91.623934 
Q 103.368626 93.572614 102.750848 94.330746 
Q 101.712777 95.627994 100.115161 95.627994 
Q 98.05168 95.627994 96.562935 92.662856 
Q 94.94 88.939586 94.94 82.447731 
Q 94.94 75.972723 96.522425 72.148368 
Q 98.026361 68.498104 100.416455 68.498104 
z
M 100.155671 68.458793 
L 100.155671 68.458793 
z
" style="fill:#ffa600;"/>
   </g>
   <g id="patch_6">
    <path clip-path="url(#pb9f4687469)" d="M 102.067515 52.210004 
L 100.261014 34.691374 
L 98.340473 52.210004 
L 102.067515 52.210004 
z
M 99.418672 28.8 
L 101.240724 28.8 
L 105.558702 68.458793 
L 103.791078 68.458793 
L 102.58588 56.581024 
L 97.879128 56.581024 
L 96.590992 68.458793 
L 94.94 68.458793 
L 99.418672 28.8 
z
M 100.253239 28.8 
L 100.253239 28.8 
z
" style="fill:#008000;"/>
   </g>
   <g id="patch_7">
    <path clip-path="url(#pb9f4687469)" d="M 116.736283 118.633997 
L 116.736283 121.375074 
L 112.326315 121.375074 
L 112.326315 141.64 
L 110.527549 141.64 
L 110.527549 121.375074 
L 106.117581 121.375074 
L 106.117581 118.633997 
L 116.736283 118.633997 
z
" style="fill:#ff0000;"/>
   </g>
   <g id="patch_8">
    <path clip-path="url(#pb9f4687469)" d="M 111.594036 91.504107 
Q 113.232162 91.504107 114.427209 92.908055 
Q 116.159015 94.924124 116.546392 99.978337 
L 114.989286 99.978337 
Q 114.703184 97.153593 113.809431 95.861961 
Q 112.915677 94.570329 111.553526 94.570329 
Q 109.940719 94.570329 108.83682 97.260293 
Q 107.73292 99.944642 107.73292 105.262797 
Q 107.73292 109.856514 108.641865 112.743031 
Q 109.553341 115.629548 111.609227 115.629548 
Q 113.184056 115.629548 114.217063 113.607863 
Q 115.25007 111.580562 115.272857 107.048618 
L 111.634546 107.048618 
L 111.634546 104.156486 
L 116.736283 104.156486 
L 116.736283 117.94887 
L 115.723531 117.94887 
L 115.34375 114.629937 
Q 114.546208 116.578617 113.928429 117.336749 
Q 112.890358 118.633997 111.292743 118.633997 
Q 109.229261 118.633997 107.740516 115.668859 
Q 106.117581 111.945589 106.117581 105.453734 
Q 106.117581 98.978726 107.700006 95.154372 
Q 109.203942 91.504107 111.594036 91.504107 
z
M 111.333253 91.464796 
L 111.333253 91.464796 
z
" style="fill:#ffa600;"/>
   </g>
   <g id="patch_9">
    <path clip-path="url(#pb9f4687469)" d="M 111.700744 63.254796 
Q 113.97469 63.254796 115.229012 65.938685 
Q 116.483333 68.616738 116.621543 72.02411 
L 115.041255 72.02411 
Q 114.772658 69.439409 113.969475 67.928263 
Q 113.166292 66.411282 111.716391 66.411282 
Q 109.948346 66.411282 108.86092 69.194358 
Q 107.773494 71.971599 107.773494 77.712786 
Q 107.773494 82.42126 108.754002 85.350199 
Q 109.737119 88.273303 111.685098 88.273303 
Q 113.476613 88.273303 114.415398 85.192666 
Q 114.910868 83.570664 115.155995 80.921783 
L 116.736283 80.921783 
Q 116.525057 85.151824 115.335929 88.016583 
Q 113.909497 91.464796 111.489518 91.464796 
Q 109.403329 91.464796 107.98472 88.635045 
Q 106.117581 84.900939 106.117581 77.094325 
Q 106.117581 71.172267 107.520543 67.379816 
Q 109.035638 63.254796 111.700744 63.254796 
z
M 111.374777 63.254796 
L 111.374777 63.254796 
z
" style="fill:#0000ff;"/>
   </g>
   <g id="patch_10">
    <path clip-path="url(#pb9f4687469)" d="M 113.245097 49.138161 
L 111.438595 33.918312 
L 109.518054 49.138161 
L 113.245097 49.138161 
z
M 110.596253 28.8 
L 112.418305 28.8 
L 116.736283 63.254796 
L 114.968659 63.254796 
L 113.763461 52.935619 
L 109.056709 52.935619 
L 107.768573 63.254796 
L 106.117581 63.254796 
L 110.596253 28.8 
z
M 111.43082 28.8 
L 111.43082 28.8 
z
" style="fill:#008000;"/>
   </g>
   <g id="patch_11">
    <path clip-path="url(#pb9f4687469)" d="M 122.878326 120.715596 
Q 125.152272 120.715596 126.406593 122.706335 
Q 127.660914 124.692747 127.799124 127.220121 
L 126.218836 127.220121 
Q 125.950239 125.302952 125.147056 124.182079 
Q 124.343873 123.056879 122.893972 123.056879 
Q 121.125927 123.056879 120.038501 125.121189 
Q 118.951075 127.181172 118.951075 131.439623 
Q 118.951075 134.932073 119.931584 137.104576 
Q 120.9147 139.272751 122.862679 139.272751 
Q 124.654194 139.272751 125.592979 136.987728 
Q 126.088449 135.784629 126.333576 133.819856 
L 127.913864 133.819856 
Q 127.702638 136.957434 126.51351 139.082332 
Q 125.087078 141.64 122.667099 141.64 
Q 120.58091 141.64 119.162301 139.541068 
Q 117.295162 136.771343 117.295162 130.980888 
Q 117.295162 126.588278 118.698124 123.775276 
Q 120.213219 120.715596 122.878326 120.715596 
z
M 122.552359 120.715596 
L 122.552359 120.715596 
z
" style="fill:#0000ff;"/>
   </g>
   <g id="patch_12">
    <path clip-path="url(#pb9f4687469)" d="M 122.771617 95.664293 
Q 124.409743 95.664293 125.60479 96.960675 
Q 127.336596 98.822281 127.723973 103.48926 
L 126.166868 103.48926 
Q 125.880765 100.880937 124.987012 99.688265 
Q 124.093258 98.495593 122.731107 98.495593 
Q 121.1183 98.495593 120.014401 100.979462 
Q 118.910501 103.458147 118.910501 108.368845 
Q 118.910501 112.61061 119.819446 115.275973 
Q 120.730923 117.941336 122.786809 117.941336 
Q 124.361638 117.941336 125.394644 116.074545 
Q 126.427651 114.202568 126.450438 110.017844 
L 122.812127 110.017844 
L 122.812127 107.347295 
L 127.913864 107.347295 
L 127.913864 120.082961 
L 126.901113 120.082961 
L 126.521331 117.018312 
Q 125.723789 118.817691 125.10601 119.517738 
Q 124.06794 120.715596 122.470324 120.715596 
Q 120.406842 120.715596 118.918097 117.977635 
Q 117.295162 114.539628 117.295162 108.545153 
Q 117.295162 102.566235 118.877587 99.034888 
Q 120.381523 95.664293 122.771617 95.664293 
z
M 122.510834 95.627994 
L 122.510834 95.627994 
z
" style="fill:#ffa600;"/>
   </g>
   <g id="patch_13">
    <path clip-path="url(#pb9f4687469)" d="M 127.913864 66.377194 
L 127.913864 69.862315 
L 123.503896 69.862315 
L 123.503896 95.627994 
L 121.705131 95.627994 
L 121.705131 69.862315 
L 117.295162 69.862315 
L 117.295162 66.377194 
L 127.913864 66.377194 
z
" style="fill:#ff0000;"/>
   </g>
   <g id="patch_14">
    <path clip-path="url(#pb9f4687469)" d="M 124.422678 50.981267 
L 122.616176 34.382149 
L 120.695635 50.981267 
L 124.422678 50.981267 
z
M 121.773834 28.8 
L 123.595886 28.8 
L 127.913864 66.377194 
L 126.14624 66.377194 
L 124.941042 55.122862 
L 120.23429 55.122862 
L 118.946154 66.377194 
L 117.295162 66.377194 
L 121.773834 28.8 
z
M 122.608401 28.8 
L 122.608401 28.8 
z
" style="fill:#008000;"/>
   </g>
   <g id="patch_15">
    <path clip-path="url(#pb9f4687469)" d="M 139.091445 122.797194 
L 139.091445 125.042242 
L 134.681477 125.042242 
L 134.681477 141.64 
L 132.882712 141.64 
L 132.882712 125.042242 
L 128.472743 125.042242 
L 128.472743 122.797194 
L 139.091445 122.797194 
z
" style="fill:#ff0000;"/>
   </g>
   <g id="patch_16">
    <path clip-path="url(#pb9f4687469)" d="M 134.055907 94.587194 
Q 136.329853 94.587194 137.584174 97.271083 
Q 138.838495 99.949137 138.976705 103.356508 
L 137.396417 103.356508 
Q 137.12782 100.771807 136.324637 99.260661 
Q 135.521454 97.743681 134.071553 97.743681 
Q 132.303508 97.743681 131.216082 100.526756 
Q 130.128656 103.303997 130.128656 109.045184 
Q 130.128656 113.753658 131.109165 116.682597 
Q 132.092281 119.605701 134.04026 119.605701 
Q 135.831775 119.605701 136.77056 116.525064 
Q 137.26603 114.903062 137.511157 112.254181 
L 139.091445 112.254181 
Q 138.880219 116.484222 137.691091 119.348981 
Q 136.264659 122.797194 133.84468 122.797194 
Q 131.758491 122.797194 130.339883 119.967443 
Q 128.472743 116.233337 128.472743 108.426723 
Q 128.472743 102.504665 129.875705 98.712214 
Q 131.3908 94.587194 134.055907 94.587194 
z
M 133.72994 94.587194 
L 133.72994 94.587194 
z
" style="fill:#0000ff;"/>
   </g>
   <g id="patch_17">
    <path clip-path="url(#pb9f4687469)" d="M 133.949198 65.378717 
Q 135.587324 65.378717 136.782371 66.89023 
Q 138.514177 69.060763 138.901554 74.50221 
L 137.344449 74.50221 
Q 137.058346 71.461046 136.164593 70.070454 
Q 135.270839 68.679862 133.908688 68.679862 
Q 132.295881 68.679862 131.191982 71.575921 
Q 130.088082 74.465934 130.088082 80.191545 
Q 130.088082 85.137215 130.997027 88.244886 
Q 131.908504 91.352557 133.96439 91.352557 
Q 135.539219 91.352557 136.572225 89.175978 
Q 137.605232 86.993353 137.628019 82.114189 
L 133.989709 82.114189 
L 133.989709 79.000473 
L 139.091445 79.000473 
L 139.091445 93.849576 
L 138.078694 93.849576 
L 137.698912 90.276359 
Q 136.90137 92.374339 136.283591 93.190556 
Q 135.245521 94.587194 133.647905 94.587194 
Q 131.584423 94.587194 130.095678 91.394879 
Q 128.472743 87.386347 128.472743 80.397111 
Q 128.472743 73.426013 130.055168 69.308651 
Q 131.559104 65.378717 133.949198 65.378717 
z
M 133.688415 65.336395 
L 133.688415 65.336395 
z
" style="fill:#ffa600;"/>
   </g>
   <g id="patch_18">
    <path clip-path="url(#pb9f4687469)" d="M 135.600259 50.366898 
L 133.793758 34.227537 
L 131.873216 50.366898 
L 135.600259 50.366898 
z
M 132.951415 28.8 
L 134.773467 28.8 
L 139.091445 65.336395 
L 137.323822 65.336395 
L 136.118624 54.393781 
L 131.411872 54.393781 
L 130.123735 65.336395 
L 128.472743 65.336395 
L 132.951415 28.8 
z
M 133.785982 28.8 
L 133.785982 28.8 
z
" style="fill:#008000;"/>
   </g>
   <g id="patch_19">
    <path clip-path="url(#pb9f4687469)" d="M 145.233488 118.633997 
Q 147.507434 118.633997 148.761755 120.822779 
Q 150.016076 123.006803 150.154286 125.785604 
L 148.573998 125.785604 
Q 148.305401 123.677712 147.502218 122.445333 
Q 146.699036 121.208195 145.249134 121.208195 
Q 143.481089 121.208195 142.393663 123.477867 
Q 141.306237 125.742781 141.306237 130.424871 
Q 141.306237 134.264756 142.286746 136.653383 
Q 143.269862 139.037253 145.217841 139.037253 
Q 147.009356 139.037253 147.948141 136.524911 
Q 148.443611 135.202126 148.688738 133.041893 
L 150.269027 133.041893 
Q 150.0578 136.491604 148.868672 138.827891 
Q 147.44224 141.64 145.022261 141.64 
Q 142.936072 141.64 141.517464 139.332262 
Q 139.650324 136.287 139.650324 129.920499 
Q 139.650324 125.090904 141.053287 121.99806 
Q 142.568381 118.633997 145.233488 118.633997 
z
M 144.907521 118.633997 
L 144.907521 118.633997 
z
" style="fill:#0000ff;"/>
   </g>
   <g id="patch_20">
    <path clip-path="url(#pb9f4687469)" d="M 150.269027 93.546395 
L 150.269027 96.535486 
L 145.859058 96.535486 
L 145.859058 118.633997 
L 144.060293 118.633997 
L 144.060293 96.535486 
L 139.650324 96.535486 
L 139.650324 93.546395 
L 150.269027 93.546395 
z
" style="fill:#ff0000;"/>
   </g>
   <g id="patch_21">
    <path clip-path="url(#pb9f4687469)" d="M 145.12678 67.455798 
Q 146.764906 67.455798 147.959953 68.805964 
Q 149.691758 70.744801 150.079136 75.605397 
L 148.52203 75.605397 
Q 148.235927 72.888864 147.342174 71.646712 
Q 146.448421 70.40456 145.086269 70.40456 
Q 143.473462 70.40456 142.369563 72.991477 
Q 141.265664 75.572993 141.265664 80.68742 
Q 141.265664 85.105161 142.174608 87.881101 
Q 143.086085 90.657041 145.141971 90.657041 
Q 146.7168 90.657041 147.749807 88.712803 
Q 148.782813 86.763164 148.8056 82.40483 
L 145.16729 82.40483 
L 145.16729 79.623489 
L 150.269027 79.623489 
L 150.269027 92.887514 
L 149.256275 92.887514 
L 148.876493 89.695723 
Q 148.078951 91.569753 147.461172 92.298842 
Q 146.423102 93.546395 144.825486 93.546395 
Q 142.762004 93.546395 141.273259 90.694846 
Q 139.650324 87.114207 139.650324 80.871042 
Q 139.650324 74.644079 141.232749 70.966229 
Q 142.736685 67.455798 145.12678 67.455798 
z
M 144.865996 67.417994 
L 144.865996 67.417994 
z
" style="fill:#ffa600;"/>
   </g>
   <g id="patch_22">
    <path clip-path="url(#pb9f4687469)" d="M 146.77784 51.595636 
L 144.971339 34.536761 
L 143.050797 51.595636 
L 146.77784 51.595636 
z
M 144.128996 28.8 
L 145.951048 28.8 
L 150.269027 67.417994 
L 148.501403 67.417994 
L 147.296205 55.851943 
L 142.589453 55.851943 
L 141.301316 67.417994 
L 139.650324 67.417994 
L 144.128996 28.8 
z
M 144.963563 28.8 
L 144.963563 28.8 
z
" style="fill:#008000;"/>
   </g>
   <g id="patch_23">
    <path clip-path="url(#pb9f4687469)" d="M 156.304361 119.706577 
Q 157.942487 119.706577 159.137534 120.841613 
Q 160.869339 122.471523 161.256717 126.557651 
L 159.699611 126.557651 
Q 159.413509 124.273959 158.519755 123.229727 
Q 157.626002 122.185494 156.263851 122.185494 
Q 154.651043 122.185494 153.547144 124.360222 
Q 152.443245 126.53041 152.443245 130.829924 
Q 152.443245 134.543759 153.352189 136.877392 
Q 154.263666 139.211024 156.319552 139.211024 
Q 157.894381 139.211024 158.927388 137.576574 
Q 159.960394 135.937583 159.983181 132.273688 
L 156.344871 132.273688 
L 156.344871 129.935516 
L 161.446608 129.935516 
L 161.446608 141.086103 
L 160.433856 141.086103 
L 160.054074 138.402879 
Q 159.256532 139.978308 158.638753 140.591227 
Q 157.600683 141.64 156.003067 141.64 
Q 153.939585 141.64 152.45084 139.242805 
Q 150.827906 136.232692 150.827906 130.984288 
Q 150.827906 125.749505 152.41033 122.657669 
Q 153.914267 119.706577 156.304361 119.706577 
z
M 156.043577 119.674796 
L 156.043577 119.674796 
z
" style="fill:#ffa600;"/>
   </g>
   <g id="patch_24">
    <path clip-path="url(#pb9f4687469)" d="M 161.446608 94.587194 
L 161.446608 97.576286 
L 157.036639 97.576286 
L 157.036639 119.674796 
L 155.237874 119.674796 
L 155.237874 97.576286 
L 150.827906 97.576286 
L 150.827906 94.587194 
L 161.446608 94.587194 
z
" style="fill:#ff0000;"/>
   </g>
   <g id="patch_25">
    <path clip-path="url(#pb9f4687469)" d="M 156.411069 68.458793 
Q 158.685015 68.458793 159.939336 70.944639 
Q 161.193657 73.425081 161.331867 76.581024 
L 159.751579 76.581024 
Q 159.482982 74.187047 158.679799 72.787407 
Q 157.876617 71.382364 156.426715 71.382364 
Q 154.65867 71.382364 153.571244 73.960078 
Q 152.483818 76.532388 152.483818 81.849937 
Q 152.483818 86.210975 153.464327 88.923789 
Q 154.447444 91.6312 156.395423 91.6312 
Q 158.186937 91.6312 159.125722 88.777881 
Q 159.621192 87.275565 159.866319 84.822144 
L 161.446608 84.822144 
Q 161.235381 88.740053 160.046253 91.393423 
Q 158.619822 94.587194 156.199842 94.587194 
Q 154.113653 94.587194 152.695045 91.966248 
Q 150.827906 88.50768 150.827906 81.277111 
Q 150.827906 75.792038 152.230868 72.27943 
Q 153.745962 68.458793 156.411069 68.458793 
z
M 156.085102 68.458793 
L 156.085102 68.458793 
z
" style="fill:#0000ff;"/>
   </g>
   <g id="patch_26">
    <path clip-path="url(#pb9f4687469)" d="M 157.955421 52.210004 
L 156.14892 34.691374 
L 154.228378 52.210004 
L 157.955421 52.210004 
z
M 155.306577 28.8 
L 157.128629 28.8 
L 161.446608 68.458793 
L 159.678984 68.458793 
L 158.473786 56.581024 
L 153.767034 56.581024 
L 152.478897 68.458793 
L 150.827906 68.458793 
L 155.306577 28.8 
z
M 156.141144 28.8 
L 156.141144 28.8 
z
" style="fill:#008000;"/>
   </g>
   <g id="patch_27">
    <path clip-path="url(#pb9f4687469)" d="M 167.481942 119.706577 
Q 169.120068 119.706577 170.315115 120.841613 
Q 172.04692 122.471523 172.434298 126.557651 
L 170.877192 126.557651 
Q 170.59109 124.273959 169.697336 123.229727 
Q 168.803583 122.185494 167.441432 122.185494 
Q 165.828625 122.185494 164.724725 124.360222 
Q 163.620826 126.53041 163.620826 130.829924 
Q 163.620826 134.543759 164.52977 136.877392 
Q 165.441247 139.211024 167.497133 139.211024 
Q 169.071962 139.211024 170.104969 137.576574 
Q 171.137976 135.937583 171.160763 132.273688 
L 167.522452 132.273688 
L 167.522452 129.935516 
L 172.624189 129.935516 
L 172.624189 141.086103 
L 171.611437 141.086103 
L 171.231655 138.402879 
Q 170.434113 139.978308 169.816335 140.591227 
Q 168.778264 141.64 167.180648 141.64 
Q 165.117166 141.64 163.628421 139.242805 
Q 162.005487 136.232692 162.005487 130.984288 
Q 162.005487 125.749505 163.587911 122.657669 
Q 165.091848 119.706577 167.481942 119.706577 
z
M 167.221158 119.674796 
L 167.221158 119.674796 
z
" style="fill:#ffa600;"/>
   </g>
   <g id="patch_28">
    <path clip-path="url(#pb9f4687469)" d="M 167.58865 94.587194 
Q 169.862596 94.587194 171.116917 96.974019 
Q 172.371238 99.355655 172.509448 102.385884 
L 170.92916 102.385884 
Q 170.660563 100.087269 169.857381 98.743382 
Q 169.054198 97.394308 167.604296 97.394308 
Q 165.836251 97.394308 164.748825 99.869341 
Q 163.661399 102.339186 163.661399 107.444915 
Q 163.661399 111.632235 164.641908 114.236987 
Q 165.625025 116.836551 167.573004 116.836551 
Q 169.364518 116.836551 170.303304 114.096891 
Q 170.798773 112.654419 171.043901 110.298727 
L 172.624189 110.298727 
Q 172.412962 114.06057 171.223834 116.608246 
Q 169.797403 119.674796 167.377423 119.674796 
Q 165.291234 119.674796 163.872626 117.158253 
Q 162.005487 113.837454 162.005487 106.894907 
Q 162.005487 101.628327 163.408449 98.25564 
Q 164.923544 94.587194 167.58865 94.587194 
z
M 167.262683 94.587194 
L 167.262683 94.587194 
z
" style="fill:#0000ff;"/>
   </g>
   <g id="patch_29">
    <path clip-path="url(#pb9f4687469)" d="M 172.624189 66.377194 
L 172.624189 69.738308 
L 168.21422 69.738308 
L 168.21422 94.587194 
L 166.415455 94.587194 
L 166.415455 69.738308 
L 162.005487 69.738308 
L 162.005487 66.377194 
L 172.624189 66.377194 
z
" style="fill:#ff0000;"/>
   </g>
   <g id="patch_30">
    <path clip-path="url(#pb9f4687469)" d="M 169.133002 50.981267 
L 167.326501 34.382149 
L 165.40596 50.981267 
L 169.133002 50.981267 
z
M 166.484158 28.8 
L 168.30621 28.8 
L 172.624189 66.377194 
L 170.856565 66.377194 
L 169.651367 55.122862 
L 164.944615 55.122862 
L 163.656478 66.377194 
L 162.005487 66.377194 
L 166.484158 28.8 
z
M 167.318725 28.8 
L 167.318725 28.8 
z
" style="fill:#008000;"/>
   </g>
   <g id="patch_31">
    <path clip-path="url(#pb9f4687469)" d="M 183.80177 123.837994 
L 183.80177 125.959034 
L 179.391802 125.959034 
L 179.391802 141.64 
L 177.593036 141.64 
L 177.593036 125.959034 
L 173.183068 125.959034 
L 173.183068 123.837994 
L 183.80177 123.837994 
z
" style="fill:#ff0000;"/>
   </g>
   <g id="patch_32">
    <path clip-path="url(#pb9f4687469)" d="M 178.766231 103.954389 
Q 181.040177 103.954389 182.294498 105.846107 
Q 183.548819 107.733713 183.68703 110.135373 
L 182.106741 110.135373 
Q 181.838145 108.313566 181.034962 107.248446 
Q 180.231779 106.179214 178.781878 106.179214 
Q 177.013832 106.179214 175.926406 108.140844 
Q 174.83898 110.098361 174.83898 114.144993 
Q 174.83898 117.463725 175.819489 119.528166 
Q 176.802606 121.588494 178.750585 121.588494 
Q 180.5421 121.588494 181.480885 119.41713 
Q 181.976355 118.273874 182.221482 116.406831 
L 183.80177 116.406831 
Q 183.590543 119.388343 182.401416 121.407547 
Q 180.974984 123.837994 178.555005 123.837994 
Q 176.468816 123.837994 175.050207 121.843465 
Q 173.183068 119.211509 173.183068 113.709076 
Q 173.183068 109.534958 174.58603 106.861878 
Q 176.101125 103.954389 178.766231 103.954389 
z
M 178.440264 103.954389 
L 178.440264 103.954389 
z
" style="fill:#0000ff;"/>
   </g>
   <g id="patch_33">
    <path clip-path="url(#pb9f4687469)" d="M 178.659523 71.628031 
Q 180.297649 71.628031 181.492696 73.300892 
Q 183.224501 75.70312 183.611879 81.725418 
L 182.054773 81.725418 
Q 181.768671 78.359622 180.874917 76.820591 
Q 179.981164 75.281559 178.619013 75.281559 
Q 177.006206 75.281559 175.902306 78.48676 
Q 174.798407 81.685269 174.798407 88.022065 
Q 174.798407 93.495665 175.707352 96.935066 
Q 176.618828 100.374467 178.674714 100.374467 
Q 180.249543 100.374467 181.28255 97.965548 
Q 182.315557 95.549937 182.338344 90.149944 
L 178.700033 90.149944 
L 178.700033 86.703851 
L 183.80177 86.703851 
L 183.80177 103.138033 
L 182.789018 103.138033 
L 182.409236 99.183391 
Q 181.611694 101.505321 180.993916 102.408666 
Q 179.955845 103.954389 178.358229 103.954389 
Q 176.294748 103.954389 174.806003 100.421307 
Q 173.183068 95.984881 173.183068 88.249574 
Q 173.183068 80.534341 174.765492 75.977469 
Q 176.269429 71.628031 178.659523 71.628031 
z
M 178.398739 71.581191 
L 178.398739 71.581191 
z
" style="fill:#ffa600;"/>
   </g>
   <g id="patch_34">
    <path clip-path="url(#pb9f4687469)" d="M 180.310583 54.05311 
L 178.504082 35.155211 
L 176.583541 54.05311 
L 180.310583 54.05311 
z
M 177.661739 28.8 
L 179.483791 28.8 
L 183.80177 71.581191 
L 182.034146 71.581191 
L 180.828948 58.768267 
L 176.122196 58.768267 
L 174.83406 71.581191 
L 173.183068 71.581191 
L 177.661739 28.8 
z
M 178.496307 28.8 
L 178.496307 28.8 
z
" style="fill:#008000;"/>
   </g>
   <g id="patch_35">
    <path clip-path="url(#pb9f4687469)" d="M 189.837104 121.785164 
Q 191.47523 121.785164 192.670277 122.812635 
Q 194.402083 124.288082 194.78946 127.986975 
L 193.232354 127.986975 
Q 192.946252 125.919705 192.052498 124.974432 
Q 191.158745 124.029159 189.796594 124.029159 
Q 188.183787 124.029159 187.079887 125.997792 
Q 185.975988 127.962316 185.975988 131.854373 
Q 185.975988 135.216256 186.884933 137.328735 
Q 187.796409 139.441214 189.852295 139.441214 
Q 191.427124 139.441214 192.460131 137.961656 
Q 193.493138 136.477989 193.515925 133.161315 
L 189.877614 133.161315 
L 189.877614 131.044726 
L 194.979351 131.044726 
L 194.979351 141.138595 
L 193.966599 141.138595 
L 193.586817 138.709655 
Q 192.789275 140.135784 192.171497 140.690617 
Q 191.133426 141.64 189.53581 141.64 
Q 187.472329 141.64 185.983584 139.469983 
Q 184.360649 136.745132 184.360649 131.994109 
Q 184.360649 127.255416 185.943074 124.456587 
Q 187.44701 121.785164 189.837104 121.785164 
z
M 189.57632 121.756395 
L 189.57632 121.756395 
z
" style="fill:#ffa600;"/>
   </g>
   <g id="patch_36">
    <path clip-path="url(#pb9f4687469)" d="M 189.943812 98.750392 
Q 192.217758 98.750392 193.472079 100.939174 
Q 194.726401 103.123198 194.864611 105.902 
L 193.284322 105.902 
Q 193.015726 103.794107 192.212543 102.561728 
Q 191.40936 101.32459 189.959459 101.32459 
Q 188.191414 101.32459 187.103988 103.594262 
Q 186.016561 105.859176 186.016561 110.541266 
Q 186.016561 114.381151 186.99707 116.769778 
Q 187.980187 119.153648 189.928166 119.153648 
Q 191.719681 119.153648 192.658466 116.641306 
Q 193.153936 115.318521 193.399063 113.158288 
L 194.979351 113.158288 
Q 194.768124 116.607999 193.578997 118.944286 
Q 192.152565 121.756395 189.732586 121.756395 
Q 187.646397 121.756395 186.227788 119.448657 
Q 184.360649 116.403395 184.360649 110.036894 
Q 184.360649 105.207299 185.763611 102.114455 
Q 187.278706 98.750392 189.943812 98.750392 
z
M 189.617845 98.750392 
L 189.617845 98.750392 
z
" style="fill:#0000ff;"/>
   </g>
   <g id="patch_37">
    <path clip-path="url(#pb9f4687469)" d="M 194.979351 75.744389 
L 194.979351 78.485466 
L 190.569383 78.485466 
L 190.569383 98.750392 
L 188.770617 98.750392 
L 188.770617 78.485466 
L 184.360649 78.485466 
L 184.360649 75.744389 
L 194.979351 75.744389 
z
" style="fill:#ff0000;"/>
   </g>
   <g id="patch_38">
    <path clip-path="url(#pb9f4687469)" d="M 191.488164 56.510585 
L 189.681663 35.77366 
L 187.761122 56.510585 
L 191.488164 56.510585 
z
M 188.83932 28.8 
L 190.661373 28.8 
L 194.979351 75.744389 
L 193.211727 75.744389 
L 192.006529 61.68459 
L 187.299777 61.68459 
L 186.011641 75.744389 
L 184.360649 75.744389 
L 188.83932 28.8 
z
M 189.673888 28.8 
L 189.673888 28.8 
z
" style="fill:#008000;"/>
   </g>
   <g id="patch_39">
    <path clip-path="url(#pb9f4687469)" d="M 206.156932 116.552398 
L 206.156932 119.541489 
L 201.746964 119.541489 
L 201.746964 141.64 
L 199.948198 141.64 
L 199.948198 119.541489 
L 195.53823 119.541489 
L 195.53823 116.552398 
L 206.156932 116.552398 
z
" style="fill:#ff0000;"/>
   </g>
   <g id="patch_40">
    <path clip-path="url(#pb9f4687469)" d="M 201.121393 88.342398 
Q 203.395339 88.342398 204.649661 91.026286 
Q 205.903982 93.70434 206.042192 97.111711 
L 204.461904 97.111711 
Q 204.193307 94.52701 203.390124 93.015865 
Q 202.586941 91.498884 201.13704 91.498884 
Q 199.368995 91.498884 198.281569 94.28196 
Q 197.194143 97.059201 197.194143 102.800388 
Q 197.194143 107.508861 198.174651 110.4378 
Q 199.157768 113.360905 201.105747 113.360905 
Q 202.897262 113.360905 203.836047 110.280268 
Q 204.331517 108.658266 204.576644 106.009385 
L 206.156932 106.009385 
Q 205.945706 110.239426 204.756578 113.104185 
Q 203.330146 116.552398 200.910167 116.552398 
Q 198.823978 116.552398 197.405369 113.722646 
Q 195.53823 109.988541 195.53823 102.181927 
Q 195.53823 96.259869 196.941192 92.467418 
Q 198.456287 88.342398 201.121393 88.342398 
z
M 200.795426 88.342398 
L 200.795426 88.342398 
z
" style="fill:#0000ff;"/>
   </g>
   <g id="patch_41">
    <path clip-path="url(#pb9f4687469)" d="M 202.665746 76.357917 
L 200.859244 63.436849 
L 198.938703 76.357917 
L 202.665746 76.357917 
z
M 200.016902 59.091599 
L 201.838954 59.091599 
L 206.156932 88.342398 
L 204.389308 88.342398 
L 203.18411 79.581812 
L 198.477358 79.581812 
L 197.189222 88.342398 
L 195.53823 88.342398 
L 200.016902 59.091599 
z
M 200.851469 59.091599 
L 200.851469 59.091599 
z
" style="fill:#008000;"/>
   </g>
   <g id="patch_42">
    <path clip-path="url(#pb9f4687469)" d="M 201.014685 28.843828 
Q 202.652811 28.843828 203.847858 30.409124 
Q 205.579664 32.656888 205.967041 38.291952 
L 204.409935 38.291952 
Q 204.123833 35.142577 203.23008 33.702506 
Q 202.336326 32.262434 200.974175 32.262434 
Q 199.361368 32.262434 198.257469 35.26154 
Q 197.153569 38.254385 197.153569 44.183724 
Q 197.153569 49.305371 198.062514 52.523619 
Q 198.97399 55.741866 201.029876 55.741866 
Q 202.604705 55.741866 203.637712 53.487841 
Q 204.670719 51.227554 204.693506 46.17478 
L 201.055195 46.17478 
L 201.055195 42.950271 
L 206.156932 42.950271 
L 206.156932 58.327735 
L 205.14418 58.327735 
L 204.764399 54.627376 
Q 203.966857 56.800006 203.349078 57.645266 
Q 202.311007 59.091599 200.713392 59.091599 
Q 198.64991 59.091599 197.161165 55.785695 
Q 195.53823 51.634531 195.53823 44.396604 
Q 195.53823 37.177462 197.120655 32.913597 
Q 198.624591 28.843828 201.014685 28.843828 
z
M 200.753902 28.8 
L 200.753902 28.8 
z
" style="fill:#ffa600;"/>
   </g>
   <g id="patch_43">
    <path clip-path="url(#pb9f4687469)" d="M 212.192266 118.667284 
Q 213.830392 118.667284 215.025439 119.856102 
Q 216.757245 121.563244 217.144622 125.842988 
L 215.587517 125.842988 
Q 215.301414 123.451087 214.407661 122.357374 
Q 213.513907 121.263662 212.151756 121.263662 
Q 210.538949 121.263662 209.43505 123.541437 
Q 208.33115 125.814457 208.33115 130.317699 
Q 208.33115 134.207511 209.240095 136.65172 
Q 210.151572 139.09593 212.207458 139.09593 
Q 213.782287 139.09593 214.815293 137.384032 
Q 215.8483 135.667379 215.871087 131.829875 
L 212.232776 131.829875 
L 212.232776 129.38091 
L 217.334513 129.38091 
L 217.334513 141.059857 
L 216.321762 141.059857 
L 215.94198 138.249491 
Q 215.144438 139.899571 214.526659 140.541532 
Q 213.488589 141.64 211.890973 141.64 
Q 209.827491 141.64 208.338746 139.129217 
Q 206.715811 135.976472 206.715811 130.479378 
Q 206.715811 124.99655 208.298236 121.75821 
Q 209.802172 118.667284 212.192266 118.667284 
z
M 211.931483 118.633997 
L 211.931483 118.633997 
z
" style="fill:#ffa600;"/>
   </g>
   <g id="patch_44">
    <path clip-path="url(#pb9f4687469)" d="M 212.298975 93.546395 
Q 214.572921 93.546395 215.827242 95.93322 
Q 217.081563 98.314855 217.219773 101.345085 
L 215.639485 101.345085 
Q 215.370888 99.046469 214.567705 97.702583 
Q 213.764522 96.353508 212.314621 96.353508 
Q 210.546576 96.353508 209.45915 98.828542 
Q 208.371724 101.298386 208.371724 106.404115 
Q 208.371724 110.591436 209.352233 113.196188 
Q 210.335349 115.795751 212.283328 115.795751 
Q 214.074843 115.795751 215.013628 113.056092 
Q 215.509098 111.613619 215.754225 109.257927 
L 217.334513 109.257927 
Q 217.123287 113.01977 215.934159 115.567446 
Q 214.507727 118.633997 212.087748 118.633997 
Q 210.001559 118.633997 208.58295 116.117454 
Q 206.715811 112.796654 206.715811 105.854108 
Q 206.715811 100.587528 208.118773 97.214841 
Q 209.633868 93.546395 212.298975 93.546395 
z
M 211.973008 93.546395 
L 211.973008 93.546395 
z
" style="fill:#0000ff;"/>
   </g>
   <g id="patch_45">
    <path clip-path="url(#pb9f4687469)" d="M 217.334513 66.377194 
L 217.334513 69.6143 
L 212.924545 69.6143 
L 212.924545 93.546395 
L 211.12578 93.546395 
L 211.12578 69.6143 
L 206.715811 69.6143 
L 206.715811 66.377194 
L 217.334513 66.377194 
z
" style="fill:#ff0000;"/>
   </g>
   <g id="patch_46">
    <path clip-path="url(#pb9f4687469)" d="M 213.843327 50.981267 
L 212.036825 34.382149 
L 210.116284 50.981267 
L 213.843327 50.981267 
z
M 211.194483 28.8 
L 213.016535 28.8 
L 217.334513 66.377194 
L 215.566889 66.377194 
L 214.361691 55.122862 
L 209.654939 55.122862 
L 208.366803 66.377194 
L 206.715811 66.377194 
L 211.194483 28.8 
z
M 212.02905 28.8 
L 212.02905 28.8 
z
" style="fill:#008000;"/>
   </g>
   <g id="patch_47">
    <path clip-path="url(#pb9f4687469)" d="M 223.369847 118.667284 
Q 225.007973 118.667284 226.20302 119.856102 
Q 227.934826 121.563244 228.322203 125.842988 
L 226.765098 125.842988 
Q 226.478995 123.451087 225.585242 122.357374 
Q 224.691488 121.263662 223.329337 121.263662 
Q 221.71653 121.263662 220.612631 123.541437 
Q 219.508731 125.814457 219.508731 130.317699 
Q 219.508731 134.207511 220.417676 136.65172 
Q 221.329153 139.09593 223.385039 139.09593 
Q 224.959868 139.09593 225.992874 137.384032 
Q 227.025881 135.667379 227.048668 131.829875 
L 223.410357 131.829875 
L 223.410357 129.38091 
L 228.512094 129.38091 
L 228.512094 141.059857 
L 227.499343 141.059857 
L 227.119561 138.249491 
Q 226.322019 139.899571 225.70424 140.541532 
Q 224.66617 141.64 223.068554 141.64 
Q 221.005072 141.64 219.516327 139.129217 
Q 217.893392 135.976472 217.893392 130.479378 
Q 217.893392 124.99655 219.475817 121.75821 
Q 220.979753 118.667284 223.369847 118.667284 
z
M 223.109064 118.633997 
L 223.109064 118.633997 
z
" style="fill:#ffa600;"/>
   </g>
   <g id="patch_48">
    <path clip-path="url(#pb9f4687469)" d="M 228.512094 93.546395 
L 228.512094 96.535486 
L 224.102126 96.535486 
L 224.102126 118.633997 
L 222.303361 118.633997 
L 222.303361 96.535486 
L 217.893392 96.535486 
L 217.893392 93.546395 
L 228.512094 93.546395 
z
" style="fill:#ff0000;"/>
   </g>
   <g id="patch_49">
    <path clip-path="url(#pb9f4687469)" d="M 223.476556 67.417994 
Q 225.750502 67.417994 227.004823 69.90384 
Q 228.259144 72.384281 228.397354 75.540225 
L 226.817066 75.540225 
Q 226.548469 73.146247 225.745286 71.746608 
Q 224.942103 70.341565 223.492202 70.341565 
Q 221.724157 70.341565 220.636731 72.919279 
Q 219.549305 75.491589 219.549305 80.809137 
Q 219.549305 85.170175 220.529814 87.88299 
Q 221.51293 90.5904 223.460909 90.5904 
Q 225.252424 90.5904 226.191209 87.737081 
Q 226.686679 86.234766 226.931806 83.781344 
L 228.512094 83.781344 
Q 228.300868 87.699253 227.11174 90.352624 
Q 225.685308 93.546395 223.265329 93.546395 
Q 221.17914 93.546395 219.760531 90.925449 
Q 217.893392 87.466881 217.893392 80.236312 
Q 217.893392 74.751239 219.296354 71.238631 
Q 220.811449 67.417994 223.476556 67.417994 
z
M 223.150589 67.417994 
L 223.150589 67.417994 
z
" style="fill:#0000ff;"/>
   </g>
   <g id="patch_50">
    <path clip-path="url(#pb9f4687469)" d="M 225.020908 51.595636 
L 223.214407 34.536761 
L 221.293865 51.595636 
L 225.020908 51.595636 
z
M 222.372064 28.8 
L 224.194116 28.8 
L 228.512094 67.417994 
L 226.744471 67.417994 
L 225.539273 55.851943 
L 220.832521 55.851943 
L 219.544384 67.417994 
L 217.893392 67.417994 
L 222.372064 28.8 
z
M 223.206631 28.8 
L 223.206631 28.8 
z
" style="fill:#008000;"/>
   </g>
   <g id="patch_51">
    <path clip-path="url(#pb9f4687469)" d="M 239.689676 119.674796 
L 239.689676 122.291866 
L 235.279707 122.291866 
L 235.279707 141.64 
L 233.480942 141.64 
L 233.480942 122.291866 
L 229.070973 122.291866 
L 229.070973 119.674796 
L 239.689676 119.674796 
z
" style="fill:#ff0000;"/>
   </g>
   <g id="patch_52">
    <path clip-path="url(#pb9f4687469)" d="M 234.547429 94.623493 
Q 236.185554 94.623493 237.380602 95.919876 
Q 239.112407 97.781482 239.499785 102.44846 
L 237.942679 102.44846 
Q 237.656576 99.840138 236.762823 98.647466 
Q 235.86907 97.454793 234.506918 97.454793 
Q 232.894111 97.454793 231.790212 99.938663 
Q 230.686312 102.417347 230.686312 107.328046 
Q 230.686312 111.56981 231.595257 114.235174 
Q 232.506734 116.900537 234.56262 116.900537 
Q 236.137449 116.900537 237.170456 115.033746 
Q 238.203462 113.161769 238.226249 108.977045 
L 234.587939 108.977045 
L 234.587939 106.306496 
L 239.689676 106.306496 
L 239.689676 119.042161 
L 238.676924 119.042161 
L 238.297142 115.977512 
Q 237.4996 117.776892 236.881821 118.476939 
Q 235.843751 119.674796 234.246135 119.674796 
Q 232.182653 119.674796 230.693908 116.936836 
Q 229.070973 113.498828 229.070973 107.504354 
Q 229.070973 101.525436 230.653398 97.994089 
Q 232.157334 94.623493 234.547429 94.623493 
z
M 234.286645 94.587194 
L 234.286645 94.587194 
z
" style="fill:#ffa600;"/>
   </g>
   <g id="patch_53">
    <path clip-path="url(#pb9f4687469)" d="M 234.654137 67.417994 
Q 236.928083 67.417994 238.182404 70.002861 
Q 239.436725 72.582109 239.574935 75.863766 
L 237.994647 75.863766 
Q 237.72605 73.374427 236.922867 71.919034 
Q 236.119685 70.458022 234.669783 70.458022 
Q 232.901738 70.458022 231.814312 73.138417 
Q 230.726886 75.813193 230.726886 81.34256 
Q 230.726886 85.877316 231.707395 88.698193 
Q 232.690511 91.51345 234.63849 91.51345 
Q 236.430005 91.51345 237.36879 88.546473 
Q 237.86426 86.984314 238.109387 84.433162 
L 239.689676 84.433162 
Q 239.478449 88.507138 238.289321 91.266202 
Q 236.862889 94.587194 234.44291 94.587194 
Q 232.356721 94.587194 230.938113 91.861845 
Q 229.070973 88.265509 229.070973 80.746917 
Q 229.070973 75.043352 230.473936 71.390822 
Q 231.98903 67.417994 234.654137 67.417994 
z
M 234.32817 67.417994 
L 234.32817 67.417994 
z
" style="fill:#0000ff;"/>
   </g>
   <g id="patch_54">
    <path clip-path="url(#pb9f4687469)" d="M 236.198489 51.595636 
L 234.391988 34.536761 
L 232.471446 51.595636 
L 236.198489 51.595636 
z
M 233.549645 28.8 
L 235.371697 28.8 
L 239.689676 67.417994 
L 237.922052 67.417994 
L 236.716854 55.851943 
L 232.010102 55.851943 
L 230.721965 67.417994 
L 229.070973 67.417994 
L 233.549645 28.8 
z
M 234.384212 28.8 
L 234.384212 28.8 
z
" style="fill:#008000;"/>
   </g>
   <g id="patch_55">
    <path clip-path="url(#pb9f4687469)" d="M 245.831718 118.633997 
Q 248.105664 118.633997 249.359985 120.822779 
Q 250.614306 123.006803 250.752516 125.785604 
L 249.172228 125.785604 
Q 248.903631 123.677712 248.100448 122.445333 
Q 247.297266 121.208195 245.847364 121.208195 
Q 244.079319 121.208195 242.991893 123.477867 
Q 241.904467 125.742781 241.904467 130.424871 
Q 241.904467 134.264756 242.884976 136.653383 
Q 243.868093 139.037253 245.816071 139.037253 
Q 247.607586 139.037253 248.546371 136.524911 
Q 249.041841 135.202126 249.286968 133.041893 
L 250.867257 133.041893 
Q 250.65603 136.491604 249.466902 138.827891 
Q 248.040471 141.64 245.620491 141.64 
Q 243.534302 141.64 242.115694 139.332262 
Q 240.248555 136.287 240.248555 129.920499 
Q 240.248555 125.090904 241.651517 121.99806 
Q 243.166611 118.633997 245.831718 118.633997 
z
M 245.505751 118.633997 
L 245.505751 118.633997 
z
" style="fill:#0000ff;"/>
   </g>
   <g id="patch_56">
    <path clip-path="url(#pb9f4687469)" d="M 250.867257 94.587194 
L 250.867257 97.452279 
L 246.457288 97.452279 
L 246.457288 118.633997 
L 244.658523 118.633997 
L 244.658523 97.452279 
L 240.248555 97.452279 
L 240.248555 94.587194 
L 250.867257 94.587194 
z
" style="fill:#ff0000;"/>
   </g>
   <g id="patch_57">
    <path clip-path="url(#pb9f4687469)" d="M 245.72501 65.378717 
Q 247.363136 65.378717 248.558183 66.89023 
Q 250.289988 69.060763 250.677366 74.50221 
L 249.12026 74.50221 
Q 248.834158 71.461046 247.940404 70.070454 
Q 247.046651 68.679862 245.6845 68.679862 
Q 244.071692 68.679862 242.967793 71.575921 
Q 241.863894 74.465934 241.863894 80.191545 
Q 241.863894 85.137215 242.772838 88.244886 
Q 243.684315 91.352557 245.740201 91.352557 
Q 247.31503 91.352557 248.348037 89.175978 
Q 249.381043 86.993353 249.40383 82.114189 
L 245.76552 82.114189 
L 245.76552 79.000473 
L 250.867257 79.000473 
L 250.867257 93.849576 
L 249.854505 93.849576 
L 249.474723 90.276359 
Q 248.677181 92.374339 248.059402 93.190556 
Q 247.021332 94.587194 245.423716 94.587194 
Q 243.360234 94.587194 241.871489 91.394879 
Q 240.248555 87.386347 240.248555 80.397111 
Q 240.248555 73.426013 241.830979 69.308651 
Q 243.334916 65.378717 245.72501 65.378717 
z
M 245.464226 65.336395 
L 245.464226 65.336395 
z
" style="fill:#ffa600;"/>
   </g>
   <g id="patch_58">
    <path clip-path="url(#pb9f4687469)" d="M 247.37607 50.366898 
L 245.569569 34.227537 
L 243.649027 50.366898 
L 247.37607 50.366898 
z
M 244.727226 28.8 
L 246.549278 28.8 
L 250.867257 65.336395 
L 249.099633 65.336395 
L 247.894435 54.393781 
L 243.187683 54.393781 
L 241.899546 65.336395 
L 240.248555 65.336395 
L 244.727226 28.8 
z
M 245.561793 28.8 
L 245.561793 28.8 
z
" style="fill:#008000;"/>
   </g>
   <g id="patch_59">
    <path clip-path="url(#pb9f4687469)" d="M 262.044838 123.837994 
L 262.044838 125.959034 
L 257.634869 125.959034 
L 257.634869 141.64 
L 255.836104 141.64 
L 255.836104 125.959034 
L 251.426136 125.959034 
L 251.426136 123.837994 
L 262.044838 123.837994 
z
" style="fill:#ff0000;"/>
   </g>
   <g id="patch_60">
    <path clip-path="url(#pb9f4687469)" d="M 256.902591 103.983158 
Q 258.540717 103.983158 259.735764 105.010628 
Q 261.467569 106.486076 261.854947 110.184969 
L 260.297841 110.184969 
Q 260.011739 108.117699 259.117985 107.172426 
Q 258.224232 106.227153 256.862081 106.227153 
Q 255.249274 106.227153 254.145374 108.195786 
Q 253.041475 110.160309 253.041475 114.052367 
Q 253.041475 117.41425 253.950419 119.526729 
Q 254.861896 121.639207 256.917782 121.639207 
Q 258.492611 121.639207 259.525618 120.15965 
Q 260.558625 118.675983 260.581411 115.359309 
L 256.943101 115.359309 
L 256.943101 113.24272 
L 262.044838 113.24272 
L 262.044838 123.336588 
L 261.032086 123.336588 
L 260.652304 120.907649 
Q 259.854762 122.333777 259.236984 122.888611 
Q 258.198913 123.837994 256.601297 123.837994 
Q 254.537815 123.837994 253.04907 121.667977 
Q 251.426136 118.943125 251.426136 114.192103 
Q 251.426136 109.45341 253.00856 106.654581 
Q 254.512497 103.983158 256.902591 103.983158 
z
M 256.641807 103.954389 
L 256.641807 103.954389 
z
" style="fill:#ffa600;"/>
   </g>
   <g id="patch_61">
    <path clip-path="url(#pb9f4687469)" d="M 257.009299 76.785188 
Q 259.283245 76.785188 260.537566 79.370055 
Q 261.791887 81.949303 261.930097 85.230961 
L 260.349809 85.230961 
Q 260.081212 82.741621 259.27803 81.286229 
Q 258.474847 79.825217 257.024945 79.825217 
Q 255.2569 79.825217 254.169474 82.505612 
Q 253.082048 85.180387 253.082048 90.709755 
Q 253.082048 95.244511 254.062557 98.065387 
Q 255.045674 100.880645 256.993653 100.880645 
Q 258.785167 100.880645 259.723952 97.913667 
Q 260.219422 96.351508 260.46455 93.800357 
L 262.044838 93.800357 
Q 261.833611 97.874332 260.644483 100.633397 
Q 259.218052 103.954389 256.798072 103.954389 
Q 254.711883 103.954389 253.293275 101.22904 
Q 251.426136 97.632703 251.426136 90.114112 
Q 251.426136 84.410546 252.829098 80.758017 
Q 254.344193 76.785188 257.009299 76.785188 
z
M 256.683332 76.785188 
L 256.683332 76.785188 
z
" style="fill:#0000ff;"/>
   </g>
   <g id="patch_62">
    <path clip-path="url(#pb9f4687469)" d="M 258.553651 57.124953 
L 256.74715 35.928272 
L 254.826609 57.124953 
L 258.553651 57.124953 
z
M 255.904807 28.8 
L 257.726859 28.8 
L 262.044838 76.785188 
L 260.277214 76.785188 
L 259.072016 62.413671 
L 254.365264 62.413671 
L 253.077127 76.785188 
L 251.426136 76.785188 
L 255.904807 28.8 
z
M 256.739374 28.8 
L 256.739374 28.8 
z
" style="fill:#008000;"/>
   </g>
   <g id="patch_63">
    <path clip-path="url(#pb9f4687469)" d="M 268.080172 121.785164 
Q 269.718298 121.785164 270.913345 122.812635 
Q 272.64515 124.288082 273.032528 127.986975 
L 271.475422 127.986975 
Q 271.18932 125.919705 270.295566 124.974432 
Q 269.401813 124.029159 268.039662 124.029159 
Q 266.426855 124.029159 265.322955 125.997792 
Q 264.219056 127.962316 264.219056 131.854373 
Q 264.219056 135.216256 265.128001 137.328735 
Q 266.039477 139.441214 268.095363 139.441214 
Q 269.670192 139.441214 270.703199 137.961656 
Q 271.736206 136.477989 271.758993 133.161315 
L 268.120682 133.161315 
L 268.120682 131.044726 
L 273.222419 131.044726 
L 273.222419 141.138595 
L 272.209667 141.138595 
L 271.829885 138.709655 
Q 271.032343 140.135784 270.414565 140.690617 
Q 269.376494 141.64 267.778878 141.64 
Q 265.715397 141.64 264.226651 139.469983 
Q 262.603717 136.745132 262.603717 131.994109 
Q 262.603717 127.255416 264.186141 124.456587 
Q 265.690078 121.785164 268.080172 121.785164 
z
M 267.819388 121.756395 
L 267.819388 121.756395 
z
" style="fill:#ffa600;"/>
   </g>
   <g id="patch_64">
    <path clip-path="url(#pb9f4687469)" d="M 273.222419 98.750392 
L 273.222419 101.491469 
L 268.812451 101.491469 
L 268.812451 121.756395 
L 267.013685 121.756395 
L 267.013685 101.491469 
L 262.603717 101.491469 
L 262.603717 98.750392 
L 273.222419 98.750392 
z
" style="fill:#ff0000;"/>
   </g>
   <g id="patch_65">
    <path clip-path="url(#pb9f4687469)" d="M 268.18688 66.377194 
Q 270.460826 66.377194 271.715147 69.457168 
Q 272.969468 72.530445 273.107678 76.440672 
L 271.52739 76.440672 
Q 271.258793 73.474524 270.455611 71.740365 
Q 269.652428 69.999511 268.202527 69.999511 
Q 266.434481 69.999511 265.347055 73.193309 
Q 264.259629 76.380412 264.259629 82.968877 
Q 264.259629 88.372221 265.240138 91.733409 
Q 266.223255 95.087902 268.171234 95.087902 
Q 269.962749 95.087902 270.901534 91.552628 
Q 271.397003 89.691253 271.642131 86.651453 
L 273.222419 86.651453 
Q 273.011192 91.505759 271.822065 94.793296 
Q 270.395633 98.750392 267.975654 98.750392 
Q 265.889465 98.750392 264.470856 95.503029 
Q 262.603717 91.217849 262.603717 82.259144 
Q 262.603717 75.463116 264.006679 71.11098 
Q 265.521774 66.377194 268.18688 66.377194 
z
M 267.860913 66.377194 
L 267.860913 66.377194 
z
" style="fill:#0000ff;"/>
   </g>
   <g id="patch_66">
    <path clip-path="url(#pb9f4687469)" d="M 269.731232 50.981267 
L 267.924731 34.382149 
L 266.00419 50.981267 
L 269.731232 50.981267 
z
M 267.082388 28.8 
L 268.90444 28.8 
L 273.222419 66.377194 
L 271.454795 66.377194 
L 270.249597 55.122862 
L 265.542845 55.122862 
L 264.254709 66.377194 
L 262.603717 66.377194 
L 267.082388 28.8 
z
M 267.916956 28.8 
L 267.916956 28.8 
z
" style="fill:#008000;"/>
   </g>
   <g id="patch_67">
    <path clip-path="url(#pb9f4687469)" d="M 279.257753 117.62799 
Q 280.895879 117.62799 282.090926 118.870591 
Q 283.822732 120.654965 284.210109 125.128326 
L 282.653003 125.128326 
Q 282.366901 122.628214 281.473147 121.485022 
Q 280.579394 120.34183 279.217243 120.34183 
Q 277.604436 120.34183 276.500536 122.722652 
Q 275.396637 125.098504 275.396637 129.805474 
Q 275.396637 133.871262 276.305582 136.426049 
Q 277.217058 138.980835 279.272944 138.980835 
Q 280.847773 138.980835 281.88078 137.191491 
Q 282.913787 135.397176 282.936574 131.386062 
L 279.298263 131.386062 
L 279.298263 128.826305 
L 284.4 128.826305 
L 284.4 141.033611 
L 283.387248 141.033611 
L 283.007466 138.096104 
Q 282.209924 139.820833 281.592146 140.491837 
Q 280.554075 141.64 278.956459 141.64 
Q 276.892978 141.64 275.404233 139.015628 
Q 273.781298 135.720252 273.781298 129.974468 
Q 273.781298 124.243595 275.363723 120.858751 
Q 276.867659 117.62799 279.257753 117.62799 
z
M 278.996969 117.593198 
L 278.996969 117.593198 
z
" style="fill:#ffa600;"/>
   </g>
   <g id="patch_68">
    <path clip-path="url(#pb9f4687469)" d="M 284.4 90.423997 
L 284.4 93.661103 
L 279.990032 93.661103 
L 279.990032 117.593198 
L 278.191266 117.593198 
L 278.191266 93.661103 
L 273.781298 93.661103 
L 273.781298 90.423997 
L 284.4 90.423997 
z
" style="fill:#ff0000;"/>
   </g>
   <g id="patch_69">
    <path clip-path="url(#pb9f4687469)" d="M 279.364461 60.132398 
Q 281.638407 60.132398 282.892728 63.014329 
Q 284.14705 65.889995 284.28526 69.548794 
L 282.704971 69.548794 
Q 282.436375 66.773369 281.633192 65.150717 
Q 280.830009 63.521799 279.380108 63.521799 
Q 277.612063 63.521799 276.524636 66.510236 
Q 275.43721 69.492408 275.43721 75.657234 
Q 275.43721 80.713143 276.417719 83.858207 
Q 277.400836 86.997005 279.348815 86.997005 
Q 281.14033 86.997005 282.079115 83.68905 
Q 282.574585 81.947361 282.819712 79.103021 
L 284.4 79.103021 
Q 284.188773 83.645194 282.999646 86.721342 
Q 281.573214 90.423997 279.153235 90.423997 
Q 277.067046 90.423997 275.648437 87.385439 
Q 273.781298 83.375797 273.781298 74.993137 
Q 273.781298 68.634094 275.18426 64.5618 
Q 276.699355 60.132398 279.364461 60.132398 
z
M 279.038494 60.132398 
L 279.038494 60.132398 
z
" style="fill:#0000ff;"/>
   </g>
   <g id="patch_70">
    <path clip-path="url(#pb9f4687469)" d="M 280.908813 47.295055 
L 279.102312 33.454475 
L 277.181771 47.295055 
L 280.908813 47.295055 
z
M 278.259969 28.8 
L 280.082022 28.8 
L 284.4 60.132398 
L 282.632376 60.132398 
L 281.427178 50.748376 
L 276.720426 50.748376 
L 275.43229 60.132398 
L 273.781298 60.132398 
L 278.259969 28.8 
z
M 279.094537 28.8 
L 279.094537 28.8 
z
" style="fill:#008000;"/>
   </g>
   <g id="matplotlib.axis_1">
    <g id="xtick_1">
     <g id="text_1">
      <!-- 0 -->
      <g style="fill:#262626;" transform="translate(94.688414 162.986875)scale(0.2 -0.2)">
       <defs>
        <path d="M 1731 4475 
Q 2600 4475 2988 3759 
Q 3288 3206 3288 2244 
Q 3288 1331 3016 734 
Q 2622 -122 1728 -122 
Q 922 -122 528 578 
Q 200 1163 200 2147 
Q 200 2909 397 3456 
Q 766 4475 1731 4475 
z
M 1725 391 
Q 2163 391 2422 778 
Q 2681 1166 2681 2222 
Q 2681 2984 2493 3476 
Q 2306 3969 1766 3969 
Q 1269 3969 1039 3501 
Q 809 3034 809 2125 
Q 809 1441 956 1025 
Q 1181 391 1725 391 
z
" id="Helvetica-30" transform="scale(0.015625)"/>
       </defs>
       <use xlink:href="#Helvetica-30"/>
      </g>
     </g>
    </g>
    <g id="xtick_2">
     <g id="text_2">
      <!-- 10 -->
      <g style="fill:#262626;" transform="translate(200.903287 162.986875)scale(0.2 -0.2)">
       <defs>
        <path d="M 613 3169 
L 613 3600 
Q 1222 3659 1462 3798 
Q 1703 3938 1822 4456 
L 2266 4456 
L 2266 0 
L 1666 0 
L 1666 3169 
L 613 3169 
z
" id="Helvetica-31" transform="scale(0.015625)"/>
       </defs>
       <use xlink:href="#Helvetica-31"/>
       <use x="55.615234" xlink:href="#Helvetica-30"/>
      </g>
     </g>
    </g>
    <g id="text_3">
     <!-- Position -->
     <g style="fill:#262626;" transform="translate(145.20125 189.089219)scale(0.25 -0.25)">
      <defs>
       <path d="M 547 4591 
L 2613 4591 
Q 3225 4591 3600 4245 
Q 3975 3900 3975 3275 
Q 3975 2738 3640 2339 
Q 3306 1941 2613 1941 
L 1169 1941 
L 1169 0 
L 547 0 
L 547 4591 
z
M 3347 3272 
Q 3347 3778 2972 3959 
Q 2766 4056 2406 4056 
L 1169 4056 
L 1169 2466 
L 2406 2466 
Q 2825 2466 3086 2644 
Q 3347 2822 3347 3272 
z
" id="Helvetica-50" transform="scale(0.015625)"/>
       <path d="M 1741 363 
Q 2300 363 2508 786 
Q 2716 1209 2716 1728 
Q 2716 2197 2566 2491 
Q 2328 2953 1747 2953 
Q 1231 2953 997 2559 
Q 763 2166 763 1609 
Q 763 1075 997 719 
Q 1231 363 1741 363 
z
M 1763 3444 
Q 2409 3444 2856 3012 
Q 3303 2581 3303 1744 
Q 3303 934 2909 406 
Q 2516 -122 1688 -122 
Q 997 -122 590 345 
Q 184 813 184 1600 
Q 184 2444 612 2944 
Q 1041 3444 1763 3444 
z
M 1744 3428 
L 1744 3428 
z
" id="Helvetica-6f" transform="scale(0.015625)"/>
       <path d="M 747 1050 
Q 772 769 888 619 
Q 1100 347 1625 347 
Q 1938 347 2175 483 
Q 2413 619 2413 903 
Q 2413 1119 2222 1231 
Q 2100 1300 1741 1391 
L 1294 1503 
Q 866 1609 663 1741 
Q 300 1969 300 2372 
Q 300 2847 642 3140 
Q 984 3434 1563 3434 
Q 2319 3434 2653 2991 
Q 2863 2709 2856 2384 
L 2325 2384 
Q 2309 2575 2191 2731 
Q 1997 2953 1519 2953 
Q 1200 2953 1036 2831 
Q 872 2709 872 2509 
Q 872 2291 1088 2159 
Q 1213 2081 1456 2022 
L 1828 1931 
Q 2434 1784 2641 1647 
Q 2969 1431 2969 969 
Q 2969 522 2630 197 
Q 2291 -128 1597 -128 
Q 850 -128 539 211 
Q 228 550 206 1050 
L 747 1050 
z
M 1578 3428 
L 1578 3428 
z
" id="Helvetica-73" transform="scale(0.015625)"/>
       <path d="M 413 3331 
L 984 3331 
L 984 0 
L 413 0 
L 413 3331 
z
M 413 4591 
L 984 4591 
L 984 3953 
L 413 3953 
L 413 4591 
z
" id="Helvetica-69" transform="scale(0.015625)"/>
       <path d="M 525 4281 
L 1094 4281 
L 1094 3347 
L 1628 3347 
L 1628 2888 
L 1094 2888 
L 1094 703 
Q 1094 528 1213 469 
Q 1278 434 1431 434 
Q 1472 434 1519 436 
Q 1566 438 1628 444 
L 1628 0 
Q 1531 -28 1426 -40 
Q 1322 -53 1200 -53 
Q 806 -53 665 148 
Q 525 350 525 672 
L 525 2888 
L 72 2888 
L 72 3347 
L 525 3347 
L 525 4281 
z
" id="Helvetica-74" transform="scale(0.015625)"/>
       <path d="M 413 3347 
L 947 3347 
L 947 2872 
Q 1184 3166 1450 3294 
Q 1716 3422 2041 3422 
Q 2753 3422 3003 2925 
Q 3141 2653 3141 2147 
L 3141 0 
L 2569 0 
L 2569 2109 
Q 2569 2416 2478 2603 
Q 2328 2916 1934 2916 
Q 1734 2916 1606 2875 
Q 1375 2806 1200 2600 
Q 1059 2434 1017 2257 
Q 975 2081 975 1753 
L 975 0 
L 413 0 
L 413 3347 
z
M 1734 3428 
L 1734 3428 
z
" id="Helvetica-6e" transform="scale(0.015625)"/>
      </defs>
      <use xlink:href="#Helvetica-50"/>
      <use x="66.699219" xlink:href="#Helvetica-6f"/>
      <use x="122.314453" xlink:href="#Helvetica-73"/>
      <use x="172.314453" xlink:href="#Helvetica-69"/>
      <use x="194.53125" xlink:href="#Helvetica-74"/>
      <use x="222.314453" xlink:href="#Helvetica-69"/>
      <use x="244.53125" xlink:href="#Helvetica-6f"/>
      <use x="300.146484" xlink:href="#Helvetica-6e"/>
     </g>
    </g>
   </g>
   <g id="matplotlib.axis_2">
    <g id="ytick_1">
     <g id="text_4">
      <!-- 0 -->
      <g style="fill:#262626;" transform="translate(76.818125 148.813438)scale(0.2 -0.2)">
       <use xlink:href="#Helvetica-30"/>
      </g>
     </g>
    </g>
    <g id="ytick_2">
     <g id="text_5">
      <!-- 0.25 -->
      <g style="fill:#262626;" transform="translate(49.018125 120.603438)scale(0.2 -0.2)">
       <defs>
        <path d="M 547 681 
L 1200 681 
L 1200 0 
L 547 0 
L 547 681 
z
" id="Helvetica-2e" transform="scale(0.015625)"/>
        <path d="M 200 0 
Q 231 578 439 1006 
Q 647 1434 1250 1784 
L 1850 2131 
Q 2253 2366 2416 2531 
Q 2672 2791 2672 3125 
Q 2672 3516 2437 3745 
Q 2203 3975 1813 3975 
Q 1234 3975 1013 3538 
Q 894 3303 881 2888 
L 309 2888 
Q 319 3472 525 3841 
Q 891 4491 1816 4491 
Q 2584 4491 2939 4075 
Q 3294 3659 3294 3150 
Q 3294 2613 2916 2231 
Q 2697 2009 2131 1694 
L 1703 1456 
Q 1397 1288 1222 1134 
Q 909 863 828 531 
L 3272 531 
L 3272 0 
L 200 0 
z
" id="Helvetica-32" transform="scale(0.015625)"/>
        <path d="M 791 1141 
Q 847 659 1238 475 
Q 1438 381 1700 381 
Q 2200 381 2440 700 
Q 2681 1019 2681 1406 
Q 2681 1875 2395 2131 
Q 2109 2388 1709 2388 
Q 1419 2388 1211 2275 
Q 1003 2163 856 1963 
L 369 1991 
L 709 4400 
L 3034 4400 
L 3034 3856 
L 1131 3856 
L 941 2613 
Q 1097 2731 1238 2791 
Q 1488 2894 1816 2894 
Q 2431 2894 2859 2497 
Q 3288 2100 3288 1491 
Q 3288 856 2895 371 
Q 2503 -113 1644 -113 
Q 1097 -113 676 195 
Q 256 503 206 1141 
L 791 1141 
z
" id="Helvetica-35" transform="scale(0.015625)"/>
       </defs>
       <use xlink:href="#Helvetica-30"/>
       <use x="55.615234" xlink:href="#Helvetica-2e"/>
       <use x="83.398438" xlink:href="#Helvetica-32"/>
       <use x="139.013672" xlink:href="#Helvetica-35"/>
      </g>
     </g>
    </g>
    <g id="ytick_3">
     <g id="text_6">
      <!-- 0.50 -->
      <g style="fill:#262626;" transform="translate(49.018125 92.393438)scale(0.2 -0.2)">
       <use xlink:href="#Helvetica-30"/>
       <use x="55.615234" xlink:href="#Helvetica-2e"/>
       <use x="83.398438" xlink:href="#Helvetica-35"/>
       <use x="139.013672" xlink:href="#Helvetica-30"/>
      </g>
     </g>
    </g>
    <g id="ytick_4">
     <g id="text_7">
      <!-- 0.75 -->
      <g style="fill:#262626;" transform="translate(49.018125 64.183437)scale(0.2 -0.2)">
       <defs>
        <path d="M 3347 4400 
L 3347 3909 
Q 3131 3700 2773 3181 
Q 2416 2663 2141 2063 
Q 1869 1478 1728 997 
Q 1638 688 1494 0 
L 872 0 
Q 1084 1281 1809 2550 
Q 2238 3294 2709 3834 
L 234 3834 
L 234 4400 
L 3347 4400 
z
" id="Helvetica-37" transform="scale(0.015625)"/>
       </defs>
       <use xlink:href="#Helvetica-30"/>
       <use x="55.615234" xlink:href="#Helvetica-2e"/>
       <use x="83.398438" xlink:href="#Helvetica-37"/>
       <use x="139.013672" xlink:href="#Helvetica-35"/>
      </g>
     </g>
    </g>
    <g id="ytick_5">
     <g id="text_8">
      <!-- 1.0 -->
      <g style="fill:#262626;" transform="translate(60.14 35.973438)scale(0.2 -0.2)">
       <use xlink:href="#Helvetica-31"/>
       <use x="55.615234" xlink:href="#Helvetica-2e"/>
       <use x="83.398438" xlink:href="#Helvetica-30"/>
      </g>
     </g>
    </g>
    <g id="text_9">
     <!-- Probability -->
     <g style="fill:#262626;" transform="translate(39.65875 143.579375)rotate(-90)scale(0.25 -0.25)">
      <defs>
       <path d="M 428 3347 
L 963 3347 
L 963 2769 
Q 1028 2938 1284 3180 
Q 1541 3422 1875 3422 
Q 1891 3422 1928 3419 
Q 1966 3416 2056 3406 
L 2056 2813 
Q 2006 2822 1964 2825 
Q 1922 2828 1872 2828 
Q 1447 2828 1219 2554 
Q 991 2281 991 1925 
L 991 0 
L 428 0 
L 428 3347 
z
" id="Helvetica-72" transform="scale(0.015625)"/>
       <path d="M 369 4606 
L 916 4606 
L 916 2941 
Q 1100 3181 1356 3307 
Q 1613 3434 1913 3434 
Q 2538 3434 2927 3004 
Q 3316 2575 3316 1738 
Q 3316 944 2931 419 
Q 2547 -106 1866 -106 
Q 1484 -106 1222 78 
Q 1066 188 888 428 
L 888 0 
L 369 0 
L 369 4606 
z
M 1831 391 
Q 2288 391 2514 753 
Q 2741 1116 2741 1709 
Q 2741 2238 2514 2584 
Q 2288 2931 1847 2931 
Q 1463 2931 1173 2647 
Q 884 2363 884 1709 
Q 884 1238 1003 944 
Q 1225 391 1831 391 
z
" id="Helvetica-62" transform="scale(0.015625)"/>
       <path d="M 844 891 
Q 844 647 1022 506 
Q 1200 366 1444 366 
Q 1741 366 2019 503 
Q 2488 731 2488 1250 
L 2488 1703 
Q 2384 1638 2221 1594 
Q 2059 1550 1903 1531 
L 1563 1488 
Q 1256 1447 1103 1359 
Q 844 1213 844 891 
z
M 2206 2028 
Q 2400 2053 2466 2191 
Q 2503 2266 2503 2406 
Q 2503 2694 2298 2823 
Q 2094 2953 1713 2953 
Q 1272 2953 1088 2716 
Q 984 2584 953 2325 
L 428 2325 
Q 444 2944 830 3186 
Q 1216 3428 1725 3428 
Q 2316 3428 2684 3203 
Q 3050 2978 3050 2503 
L 3050 575 
Q 3050 488 3086 434 
Q 3122 381 3238 381 
Q 3275 381 3322 386 
Q 3369 391 3422 400 
L 3422 -16 
Q 3291 -53 3222 -62 
Q 3153 -72 3034 -72 
Q 2744 -72 2613 134 
Q 2544 244 2516 444 
Q 2344 219 2022 53 
Q 1700 -113 1313 -113 
Q 847 -113 551 170 
Q 256 453 256 878 
Q 256 1344 547 1600 
Q 838 1856 1309 1916 
L 2206 2028 
z
M 1741 3428 
L 1741 3428 
z
" id="Helvetica-61" transform="scale(0.015625)"/>
       <path d="M 428 4591 
L 991 4591 
L 991 0 
L 428 0 
L 428 4591 
z
" id="Helvetica-6c" transform="scale(0.015625)"/>
       <path d="M 2503 3347 
L 3125 3347 
Q 3006 3025 2597 1878 
Q 2291 1016 2084 472 
Q 1597 -809 1397 -1090 
Q 1197 -1372 709 -1372 
Q 591 -1372 527 -1362 
Q 463 -1353 369 -1328 
L 369 -816 
Q 516 -856 581 -865 
Q 647 -875 697 -875 
Q 853 -875 926 -823 
Q 1000 -772 1050 -697 
Q 1066 -672 1162 -440 
Q 1259 -209 1303 -97 
L 66 3347 
L 703 3347 
L 1600 622 
L 2503 3347 
z
M 1597 3428 
L 1597 3428 
z
" id="Helvetica-79" transform="scale(0.015625)"/>
      </defs>
      <use xlink:href="#Helvetica-50"/>
      <use x="66.699219" xlink:href="#Helvetica-72"/>
      <use x="100" xlink:href="#Helvetica-6f"/>
      <use x="155.615234" xlink:href="#Helvetica-62"/>
      <use x="211.230469" xlink:href="#Helvetica-61"/>
      <use x="266.845703" xlink:href="#Helvetica-62"/>
      <use x="322.460938" xlink:href="#Helvetica-69"/>
      <use x="344.677734" xlink:href="#Helvetica-6c"/>
      <use x="366.894531" xlink:href="#Helvetica-69"/>
      <use x="389.111328" xlink:href="#Helvetica-74"/>
      <use x="416.894531" xlink:href="#Helvetica-79"/>
     </g>
    </g>
   </g>
   <g id="patch_71">
    <path d="M 94.94 141.64 
L 94.94 28.8 
" style="fill:none;stroke:#000000;stroke-linecap:square;stroke-linejoin:miter;"/>
   </g>
  </g>
 </g>
 <defs>
  <clipPath id="pb9f4687469">
   <rect height="112.84" width="189.46" x="94.94" y="28.8"/>
  </clipPath>
 </defs>
</svg>
