<?xml version="1.0" encoding="utf-8" standalone="no"?>
<!DOCTYPE svg PUBLIC "-//W3C//DTD SVG 1.1//EN"
  "http://www.w3.org/Graphics/SVG/1.1/DTD/svg11.dtd">
<svg height="216pt" version="1.1" viewBox="0 0 306 216" width="306pt" xmlns="http://www.w3.org/2000/svg" xmlns:xlink="http://www.w3.org/1999/xlink">
 <metadata>
  <rdf:RDF xmlns:cc="http://creativecommons.org/ns#" xmlns:dc="http://purl.org/dc/elements/1.1/" xmlns:rdf="http://www.w3.org/1999/02/22-rdf-syntax-ns#">
   <cc:Work>
    <dc:type rdf:resource="http://purl.org/dc/dcmitype/StillImage"/>
    <dc:date>2023-01-27T03:41:24.129753</dc:date>
    <dc:format>image/svg+xml</dc:format>
    <dc:creator>
     <cc:Agent>
      <dc:title>Matplotlib v3.4.2, https://matplotlib.org/</dc:title>
     </cc:Agent>
    </dc:creator>
   </cc:Work>
  </rdf:RDF>
 </metadata>
 <defs>
  <style type="text/css">*{stroke-linecap:butt;stroke-linejoin:round;}</style>
 </defs>
 <g id="figure_1">
  <g id="patch_1">
   <path d="M 0 216 
L 306 216 
L 306 0 
L 0 0 
z
" style="fill:#ffffff;"/>
  </g>
  <g id="axes_1">
   <g id="patch_2">
    <path d="M 94.94 141.64 
L 284.4 141.64 
L 284.4 28.8 
L 94.94 28.8 
z
" style="fill:#ffffff;"/>
   </g>
   <g id="line2d_1">
    <path clip-path="url(#p665c59720c)" d="M 94.94 141.64 
L 284.4 141.64 
" style="fill:none;stroke:#000000;stroke-linecap:round;stroke-width:0.5;"/>
   </g>
   <g id="patch_3">
    <path clip-path="url(#p665c59720c)" d="M 105.558702 133.977097 
L 105.558702 134.890103 
L 101.148734 134.890103 
L 101.148734 141.64 
L 99.349968 141.64 
L 99.349968 134.890103 
L 94.94 134.890103 
L 94.94 133.977097 
L 105.558702 133.977097 
z
" style="fill:#ff0000;"/>
   </g>
   <g id="patch_4">
    <path clip-path="url(#p665c59720c)" d="M 100.416455 110.233964 
Q 102.054581 110.233964 103.249628 111.46265 
Q 104.981434 113.227044 105.368811 117.650314 
L 103.811705 117.650314 
Q 103.525603 115.178197 102.63185 114.047806 
Q 101.738096 112.917415 100.375945 112.917415 
Q 98.763138 112.917415 97.659238 115.271577 
Q 96.555339 117.620826 96.555339 122.275089 
Q 96.555339 126.295351 97.464284 128.82153 
Q 98.37576 131.347709 100.431646 131.347709 
Q 102.006475 131.347709 103.039482 129.5784 
Q 104.072489 127.804177 104.095276 123.837978 
L 100.456965 123.837978 
L 100.456965 121.306884 
L 105.558702 121.306884 
L 105.558702 133.377498 
L 104.54595 133.377498 
L 104.166168 130.472884 
Q 103.368626 132.178301 102.750848 132.841791 
Q 101.712777 133.977097 100.115161 133.977097 
Q 98.05168 133.977097 96.562935 131.382112 
Q 94.94 128.123636 94.94 122.442191 
Q 94.94 116.775489 96.522425 113.428548 
Q 98.026361 110.233964 100.416455 110.233964 
z
M 100.155671 110.199561 
L 100.155671 110.199561 
z
" style="fill:#ffa600;"/>
   </g>
   <g id="patch_5">
    <path clip-path="url(#p665c59720c)" d="M 100.523163 76.993648 
Q 102.797109 76.993648 104.051431 80.152846 
Q 105.305752 83.305176 105.443962 87.315983 
L 103.863673 87.315983 
Q 103.595077 84.273538 102.791894 82.494773 
Q 101.988711 80.709139 100.53881 80.709139 
Q 98.770765 80.709139 97.683339 83.98509 
Q 96.595913 87.254172 96.595913 94.012108 
Q 96.595913 99.554439 97.576421 103.002085 
Q 98.559538 106.442863 100.507517 106.442863 
Q 102.299032 106.442863 103.237817 102.816654 
Q 103.733287 100.907399 103.978414 97.789409 
L 105.558702 97.789409 
Q 105.347475 102.768579 104.158348 106.140679 
Q 102.731916 110.199561 100.311937 110.199561 
Q 98.225748 110.199561 96.807139 106.868668 
Q 94.94 102.473263 94.94 93.284119 
Q 94.94 86.313281 96.342962 81.849198 
Q 97.858057 76.993648 100.523163 76.993648 
z
M 100.197196 76.993648 
L 100.197196 76.993648 
z
" style="fill:#0000ff;"/>
   </g>
   <g id="patch_6">
    <path clip-path="url(#p665c59720c)" d="M 102.067515 57.248004 
L 100.261014 35.959239 
L 98.340473 57.248004 
L 102.067515 57.248004 
z
M 99.418672 28.8 
L 101.240724 28.8 
L 105.558702 76.993648 
L 103.791078 76.993648 
L 102.58588 62.559698 
L 97.879128 62.559698 
L 96.590992 76.993648 
L 94.94 76.993648 
L 99.418672 28.8 
z
M 100.253239 28.8 
L 100.253239 28.8 
z
" style="fill:#008000;"/>
   </g>
   <g id="patch_7">
    <path clip-path="url(#p665c59720c)" d="M 111.700744 121.618788 
Q 113.97469 121.618788 115.229012 123.523598 
Q 116.483333 125.424268 116.621543 127.842549 
L 115.041255 127.842549 
Q 114.772658 126.008134 113.969475 124.935643 
Q 113.166292 123.859011 111.716391 123.859011 
Q 109.948346 123.859011 108.86092 125.834216 
Q 107.773494 127.805281 107.773494 131.879918 
Q 107.773494 135.221618 108.754002 137.300345 
Q 109.737119 139.374932 111.685098 139.374932 
Q 113.476613 139.374932 114.415398 137.188541 
Q 114.910868 136.037373 115.155995 134.157409 
L 116.736283 134.157409 
Q 116.525057 137.159555 115.335929 139.192733 
Q 113.909497 141.64 111.489518 141.64 
Q 109.403329 141.64 107.98472 139.631667 
Q 106.117581 136.981497 106.117581 131.440984 
Q 106.117581 127.237978 107.520543 124.546399 
Q 109.035638 121.618788 111.700744 121.618788 
z
M 111.374777 121.618788 
L 111.374777 121.618788 
z
" style="fill:#0000ff;"/>
   </g>
   <g id="patch_8">
    <path clip-path="url(#p665c59720c)" d="M 111.594036 97.763128 
Q 113.232162 97.763128 114.427209 98.997638 
Q 116.159015 100.770393 116.546392 105.214627 
L 114.989286 105.214627 
Q 114.703184 102.730794 113.809431 101.595045 
Q 112.915677 100.459297 111.553526 100.459297 
Q 109.940719 100.459297 108.83682 102.824617 
Q 107.73292 105.184999 107.73292 109.861321 
Q 107.73292 113.900635 108.641865 116.438787 
Q 109.553341 118.976938 111.609227 118.976938 
Q 113.184056 118.976938 114.217063 117.199245 
Q 115.25007 115.416613 115.272857 111.431617 
L 111.634546 111.431617 
L 111.634546 108.888527 
L 116.736283 108.888527 
L 116.736283 121.016348 
L 115.723531 121.016348 
L 115.34375 118.097967 
Q 114.546208 119.811466 113.928429 120.478102 
Q 112.890358 121.618788 111.292743 121.618788 
Q 109.229261 121.618788 107.740516 119.011504 
Q 106.117581 115.737585 106.117581 110.029214 
Q 106.117581 104.335656 107.700006 100.972853 
Q 109.203942 97.763128 111.594036 97.763128 
z
M 111.333253 97.728562 
L 111.333253 97.728562 
z
" style="fill:#ffa600;"/>
   </g>
   <g id="patch_9">
    <path clip-path="url(#p665c59720c)" d="M 116.736283 72.673875 
L 116.736283 75.659044 
L 112.326315 75.659044 
L 112.326315 97.728562 
L 110.527549 97.728562 
L 110.527549 75.659044 
L 106.117581 75.659044 
L 106.117581 72.673875 
L 116.736283 72.673875 
z
" style="fill:#ff0000;"/>
   </g>
   <g id="patch_10">
    <path clip-path="url(#p665c59720c)" d="M 113.245097 54.698105 
L 111.438595 35.317531 
L 109.518054 54.698105 
L 113.245097 54.698105 
z
M 110.596253 28.8 
L 112.418305 28.8 
L 116.736283 72.673875 
L 114.968659 72.673875 
L 113.763461 59.533692 
L 109.056709 59.533692 
L 107.768573 72.673875 
L 106.117581 72.673875 
L 110.596253 28.8 
z
M 111.43082 28.8 
L 111.43082 28.8 
z
" style="fill:#008000;"/>
   </g>
   <g id="patch_11">
    <path clip-path="url(#p665c59720c)" d="M 122.878326 119.853316 
Q 125.152272 119.853316 126.406593 121.926092 
Q 127.660914 123.994363 127.799124 126.625888 
L 126.218836 126.625888 
Q 125.950239 124.629714 125.147056 123.46265 
Q 124.343873 122.291081 122.893972 122.291081 
Q 121.125927 122.291081 120.038501 124.44046 
Q 118.951075 126.585333 118.951075 131.019273 
Q 118.951075 134.655644 119.931584 136.917674 
Q 120.9147 139.175198 122.862679 139.175198 
Q 124.654194 139.175198 125.592979 136.796011 
Q 126.088449 135.543333 126.333576 133.497593 
L 127.913864 133.497593 
Q 127.702638 136.764469 126.51351 138.976933 
Q 125.087078 141.64 122.667099 141.64 
Q 120.58091 141.64 119.162301 139.454573 
Q 117.295162 136.570709 117.295162 130.541633 
Q 117.295162 125.968007 118.698124 123.039083 
Q 120.213219 119.853316 122.878326 119.853316 
z
M 122.552359 119.853316 
L 122.552359 119.853316 
z
" style="fill:#0000ff;"/>
   </g>
   <g id="patch_12">
    <path clip-path="url(#p665c59720c)" d="M 127.913864 94.911318 
L 127.913864 97.883061 
L 123.503896 97.883061 
L 123.503896 119.853316 
L 121.705131 119.853316 
L 121.705131 97.883061 
L 117.295162 97.883061 
L 117.295162 94.911318 
L 127.913864 94.911318 
z
" style="fill:#ff0000;"/>
   </g>
   <g id="patch_13">
    <path clip-path="url(#p665c59720c)" d="M 122.771617 66.442063 
Q 124.409743 66.442063 125.60479 67.915322 
Q 127.336596 70.030922 127.723973 75.334654 
L 126.166868 75.334654 
Q 125.880765 72.370457 124.987012 71.015059 
Q 124.093258 69.659661 122.731107 69.659661 
Q 121.1183 69.659661 120.014401 72.482425 
Q 118.910501 75.299296 118.910501 80.880001 
Q 118.910501 85.700504 119.819446 88.729524 
Q 120.730923 91.758544 122.786809 91.758544 
Q 124.361638 91.758544 125.394644 89.637051 
Q 126.427651 87.509666 126.450438 82.753986 
L 122.812127 82.753986 
L 122.812127 79.719073 
L 127.913864 79.719073 
L 127.913864 94.192368 
L 126.901113 94.192368 
L 126.521331 90.709584 
Q 125.723789 92.754467 125.10601 93.550027 
Q 124.06794 94.911318 122.470324 94.911318 
Q 120.406842 94.911318 118.918097 91.799795 
Q 117.295162 87.892713 117.295162 81.080364 
Q 117.295162 74.285694 118.877587 70.272537 
Q 120.381523 66.442063 122.771617 66.442063 
z
M 122.510834 66.400812 
L 122.510834 66.400812 
z
" style="fill:#ffa600;"/>
   </g>
   <g id="patch_14">
    <path clip-path="url(#p665c59720c)" d="M 124.422678 50.995208 
L 122.616176 34.385658 
L 120.695635 50.995208 
L 124.422678 50.995208 
z
M 121.773834 28.8 
L 123.595886 28.8 
L 127.913864 66.400812 
L 126.14624 66.400812 
L 124.941042 55.139406 
L 120.23429 55.139406 
L 118.946154 66.400812 
L 117.295162 66.400812 
L 121.773834 28.8 
z
M 122.608401 28.8 
L 122.608401 28.8 
z
" style="fill:#008000;"/>
   </g>
   <g id="patch_15">
    <path clip-path="url(#p665c59720c)" d="M 134.055907 138.74763 
Q 136.329853 138.74763 137.584174 139.022809 
Q 138.838495 139.29739 138.976705 139.646747 
L 137.396417 139.646747 
Q 137.12782 139.381738 136.324637 139.2268 
Q 135.521454 139.071264 134.071553 139.071264 
Q 132.303508 139.071264 131.216082 139.356613 
Q 130.128656 139.641363 130.128656 140.230007 
Q 130.128656 140.712767 131.109165 141.013071 
Q 132.092281 141.312776 134.04026 141.312776 
Q 135.831775 141.312776 136.77056 140.996919 
Q 137.26603 140.830615 137.511157 140.559025 
L 139.091445 140.559025 
Q 138.880219 140.992731 137.691091 141.286455 
Q 136.264659 141.64 133.84468 141.64 
Q 131.758491 141.64 130.339883 141.349866 
Q 128.472743 140.967008 128.472743 140.166596 
Q 128.472743 139.559408 129.875705 139.170568 
Q 131.3908 138.74763 134.055907 138.74763 
z
M 133.72994 138.74763 
L 133.72994 138.74763 
z
" style="fill:#0000ff;"/>
   </g>
   <g id="patch_16">
    <path clip-path="url(#p665c59720c)" d="M 139.091445 132.098935 
L 139.091445 132.891101 
L 134.681477 132.891101 
L 134.681477 138.74763 
L 132.882712 138.74763 
L 132.882712 132.891101 
L 128.472743 132.891101 
L 128.472743 132.098935 
L 139.091445 132.098935 
z
" style="fill:#ff0000;"/>
   </g>
   <g id="patch_17">
    <path clip-path="url(#p665c59720c)" d="M 133.949198 89.263771 
Q 135.587324 89.263771 136.782371 91.480454 
Q 138.514177 94.663609 138.901554 102.643664 
L 137.344449 102.643664 
Q 137.058346 98.1837 136.164593 96.144352 
Q 135.270839 94.105005 133.908688 94.105005 
Q 132.295881 94.105005 131.191982 98.352168 
Q 130.088082 102.590464 130.088082 110.987255 
Q 130.088082 118.240239 130.997027 122.797737 
Q 131.908504 127.355235 133.96439 127.355235 
Q 135.539219 127.355235 136.572225 124.163213 
Q 137.605232 120.962324 137.628019 113.806875 
L 133.989709 113.806875 
L 133.989709 109.24051 
L 139.091445 109.24051 
L 139.091445 131.017194 
L 138.078694 131.017194 
L 137.698912 125.776958 
Q 136.90137 128.853712 136.283591 130.050721 
Q 135.245521 132.098935 133.647905 132.098935 
Q 131.584423 132.098935 130.095678 127.417302 
Q 128.472743 121.538662 128.472743 111.288724 
Q 128.472743 101.065387 130.055168 95.027145 
Q 131.559104 89.263771 133.949198 89.263771 
z
M 133.688415 89.201704 
L 133.688415 89.201704 
z
" style="fill:#ffa600;"/>
   </g>
   <g id="patch_18">
    <path clip-path="url(#p665c59720c)" d="M 135.600259 64.454241 
L 133.793758 37.772765 
L 131.873216 64.454241 
L 135.600259 64.454241 
z
M 132.951415 28.8 
L 134.773467 28.8 
L 139.091445 89.201704 
L 137.323822 89.201704 
L 136.118624 71.111453 
L 131.411872 71.111453 
L 130.123735 89.201704 
L 128.472743 89.201704 
L 132.951415 28.8 
z
M 133.785982 28.8 
L 133.785982 28.8 
z
" style="fill:#008000;"/>
   </g>
   <g id="patch_19">
    <path clip-path="url(#p665c59720c)" d="M 150.269027 138.63494 
L 150.269027 138.992981 
L 145.859058 138.992981 
L 145.859058 141.64 
L 144.060293 141.64 
L 144.060293 138.992981 
L 139.650324 138.992981 
L 139.650324 138.63494 
L 150.269027 138.63494 
z
" style="fill:#ff0000;"/>
   </g>
   <g id="patch_20">
    <path clip-path="url(#p665c59720c)" d="M 146.77784 135.141362 
L 144.971339 131.37476 
L 143.050797 135.141362 
L 146.77784 135.141362 
z
M 144.128996 130.108083 
L 145.951048 130.108083 
L 150.269027 138.63494 
L 148.501403 138.63494 
L 147.296205 136.081155 
L 142.589453 136.081155 
L 141.301316 138.63494 
L 139.650324 138.63494 
L 144.128996 130.108083 
z
M 144.963563 130.108083 
L 144.963563 130.108083 
z
" style="fill:#008000;"/>
   </g>
   <g id="patch_21">
    <path clip-path="url(#p665c59720c)" d="M 145.233488 118.501039 
Q 147.507434 118.501039 148.761755 119.605328 
Q 150.016076 120.707217 150.154286 122.109185 
L 148.573998 122.109185 
Q 148.305401 121.045706 147.502218 120.423943 
Q 146.699036 119.799779 145.249134 119.799779 
Q 143.481089 119.799779 142.393663 120.94488 
Q 141.306237 122.087579 141.306237 124.449799 
Q 141.306237 126.387107 142.286746 127.592223 
Q 143.269862 128.794938 145.217841 128.794938 
Q 147.009356 128.794938 147.948141 127.527406 
Q 148.443611 126.860031 148.688738 125.770145 
L 150.269027 125.770145 
Q 150.0578 127.510601 148.868672 128.68931 
Q 147.44224 130.108083 145.022261 130.108083 
Q 142.936072 130.108083 141.517464 128.943777 
Q 139.650324 127.407374 139.650324 124.195332 
Q 139.650324 121.758693 141.053287 120.198284 
Q 142.568381 118.501039 145.233488 118.501039 
z
M 144.907521 118.501039 
L 144.907521 118.501039 
z
" style="fill:#0000ff;"/>
   </g>
   <g id="patch_22">
    <path clip-path="url(#p665c59720c)" d="M 145.12678 28.929787 
Q 146.764906 28.929787 147.959953 33.56502 
Q 149.691758 40.221215 150.079136 56.908056 
L 148.52203 56.908056 
Q 148.235927 47.581966 147.342174 43.317551 
Q 146.448421 39.053136 145.086269 39.053136 
Q 143.473462 39.053136 142.369563 47.934244 
Q 141.265664 56.79681 141.265664 74.355075 
Q 141.265664 89.521559 142.174608 99.051599 
Q 143.086085 108.581639 145.141971 108.581639 
Q 146.7168 108.581639 147.749807 101.906903 
Q 148.782813 95.213626 148.8056 80.251092 
L 145.16729 80.251092 
L 145.16729 70.702511 
L 150.269027 70.702511 
L 150.269027 116.239045 
L 149.256275 116.239045 
L 148.876493 105.281353 
Q 148.078951 111.715057 147.461172 114.218083 
Q 146.423102 118.501039 144.825486 118.501039 
Q 142.762004 118.501039 141.273259 108.711425 
Q 139.650324 96.418786 139.650324 74.985467 
Q 139.650324 53.60777 141.232749 40.981394 
Q 142.736685 28.929787 145.12678 28.929787 
z
M 144.865996 28.8 
L 144.865996 28.8 
z
" style="fill:#ffa600;"/>
   </g>
   <g id="patch_23">
    <path clip-path="url(#p665c59720c)" d="M 161.446608 125.525366 
L 161.446608 127.445363 
L 157.036639 127.445363 
L 157.036639 141.64 
L 155.237874 141.64 
L 155.237874 127.445363 
L 150.827906 127.445363 
L 150.827906 125.525366 
L 161.446608 125.525366 
z
" style="fill:#ff0000;"/>
   </g>
   <g id="patch_24">
    <path clip-path="url(#p665c59720c)" d="M 156.304361 107.108497 
Q 157.942487 107.108497 159.137534 108.061553 
Q 160.869339 109.430143 161.256717 112.861147 
L 159.699611 112.861147 
Q 159.413509 110.943597 158.519755 110.066785 
Q 157.626002 109.189973 156.263851 109.189973 
Q 154.651043 109.189973 153.547144 111.016029 
Q 152.443245 112.838274 152.443245 116.448453 
Q 152.443245 119.566855 153.352189 121.52634 
Q 154.263666 123.485825 156.319552 123.485825 
Q 157.894381 123.485825 158.927388 122.113423 
Q 159.960394 120.737209 159.983181 117.660741 
L 156.344871 117.660741 
L 156.344871 115.697444 
L 161.446608 115.697444 
L 161.446608 125.060274 
L 160.433856 125.060274 
L 160.054074 122.807248 
Q 159.256532 124.130091 158.638753 124.644742 
Q 157.600683 125.525366 156.003067 125.525366 
Q 153.939585 125.525366 152.45084 123.51251 
Q 150.827906 120.985004 150.827906 116.578069 
Q 150.827906 112.182571 152.41033 109.586444 
Q 153.914267 107.108497 156.304361 107.108497 
z
M 156.043577 107.081811 
L 156.043577 107.081811 
z
" style="fill:#ffa600;"/>
   </g>
   <g id="patch_25">
    <path clip-path="url(#p665c59720c)" d="M 157.955421 91.353012 
L 156.14892 74.39501 
L 154.228378 91.353012 
L 157.955421 91.353012 
z
M 155.306577 68.69217 
L 157.128629 68.69217 
L 161.446608 107.081811 
L 159.678984 107.081811 
L 158.473786 95.584151 
L 153.767034 95.584151 
L 152.478897 107.081811 
L 150.827906 107.081811 
L 155.306577 68.69217 
z
M 156.141144 68.69217 
L 156.141144 68.69217 
z
" style="fill:#008000;"/>
   </g>
   <g id="patch_26">
    <path clip-path="url(#p665c59720c)" d="M 156.411069 28.8 
Q 158.685015 28.8 159.939336 32.595325 
Q 161.193657 36.3824 161.331867 41.200813 
L 159.751579 41.200813 
Q 159.482982 37.54575 158.679799 35.408817 
Q 157.876617 33.263633 156.426715 33.263633 
Q 154.65867 33.263633 153.571244 37.19922 
Q 152.483818 41.126557 152.483818 49.245253 
Q 152.483818 55.903574 153.464327 60.045429 
Q 154.447444 64.179033 156.395423 64.179033 
Q 158.186937 64.179033 159.125722 59.82266 
Q 159.621192 57.528963 159.866319 53.783142 
L 161.446608 53.783142 
Q 161.235381 59.764905 160.046253 63.816002 
Q 158.619822 68.69217 156.199842 68.69217 
Q 154.113653 68.69217 152.695045 64.690577 
Q 150.827906 59.410125 150.827906 48.370678 
Q 150.827906 39.99621 152.230868 34.63325 
Q 153.745962 28.8 156.411069 28.8 
z
M 156.085102 28.8 
L 156.085102 28.8 
z
" style="fill:#0000ff;"/>
   </g>
   <g id="patch_27">
    <path clip-path="url(#p665c59720c)" d="M 172.624189 138.52225 
L 172.624189 138.893718 
L 168.21422 138.893718 
L 168.21422 141.64 
L 166.415455 141.64 
L 166.415455 138.893718 
L 162.005487 138.893718 
L 162.005487 138.52225 
L 172.624189 138.52225 
z
" style="fill:#ff0000;"/>
   </g>
   <g id="patch_28">
    <path clip-path="url(#p665c59720c)" d="M 167.58865 134.803489 
Q 169.862596 134.803489 171.116917 135.15729 
Q 172.371238 135.510323 172.509448 135.959497 
L 170.92916 135.959497 
Q 170.660563 135.61877 169.857381 135.419565 
Q 169.054198 135.21959 167.604296 135.21959 
Q 165.836251 135.21959 164.748825 135.586467 
Q 163.661399 135.952574 163.661399 136.709402 
Q 163.661399 137.330093 164.641908 137.716198 
Q 165.625025 138.101534 167.573004 138.101534 
Q 169.364518 138.101534 170.303304 137.695432 
Q 170.798773 137.481612 171.043901 137.132426 
L 172.624189 137.132426 
Q 172.412962 137.690048 171.223834 138.067692 
Q 169.797403 138.52225 167.377423 138.52225 
Q 165.291234 138.52225 163.872626 138.14922 
Q 162.005487 137.656975 162.005487 136.627874 
Q 162.005487 135.847203 163.408449 135.347266 
Q 164.923544 134.803489 167.58865 134.803489 
z
M 167.262683 134.803489 
L 167.262683 134.803489 
z
" style="fill:#0000ff;"/>
   </g>
   <g id="patch_29">
    <path clip-path="url(#p665c59720c)" d="M 169.133002 125.738653 
L 167.326501 115.965401 
L 165.40596 125.738653 
L 169.133002 125.738653 
z
M 166.484158 112.678735 
L 168.30621 112.678735 
L 172.624189 134.803489 
L 170.856565 134.803489 
L 169.651367 128.177147 
L 164.944615 128.177147 
L 163.656478 134.803489 
L 162.005487 134.803489 
L 166.484158 112.678735 
z
M 167.318725 112.678735 
L 167.318725 112.678735 
z
" style="fill:#008000;"/>
   </g>
   <g id="patch_30">
    <path clip-path="url(#p665c59720c)" d="M 167.481942 28.921362 
Q 169.120068 28.921362 170.315115 33.255733 
Q 172.04692 39.479889 172.434298 55.083622 
L 170.877192 55.083622 
Q 170.59109 46.362869 169.697336 42.375248 
Q 168.803583 38.387627 167.441432 38.387627 
Q 165.828625 38.387627 164.724725 46.692281 
Q 163.620826 54.979597 163.620826 71.398192 
Q 163.620826 85.580252 164.52977 94.491717 
Q 165.441247 103.403182 167.497133 103.403182 
Q 169.071962 103.403182 170.104969 97.161689 
Q 171.137976 90.902858 171.160763 76.911511 
L 167.522452 76.911511 
L 167.522452 67.982708 
L 172.624189 67.982708 
L 172.624189 110.563562 
L 171.611437 110.563562 
L 171.231655 100.317111 
Q 170.434113 106.333217 169.816335 108.673777 
Q 168.778264 112.678735 167.180648 112.678735 
Q 165.117166 112.678735 163.628421 103.524545 
Q 162.005487 92.029795 162.005487 71.987666 
Q 162.005487 51.99755 163.587911 40.190725 
Q 165.091848 28.921362 167.481942 28.921362 
z
M 167.221158 28.8 
L 167.221158 28.8 
z
" style="fill:#ffa600;"/>
   </g>
   <g id="patch_31">
    <path clip-path="url(#p665c59720c)" d="M 178.766231 137.846112 
Q 181.040177 137.846112 182.294498 138.207061 
Q 183.548819 138.567225 183.68703 139.025474 
L 182.106741 139.025474 
Q 181.838145 138.677864 181.034962 138.474634 
Q 180.231779 138.270619 178.781878 138.270619 
Q 177.013832 138.270619 175.926406 138.644908 
Q 174.83898 139.018412 174.83898 139.790529 
Q 174.83898 140.423759 175.819489 140.817664 
Q 176.802606 141.210785 178.750585 141.210785 
Q 180.5421 141.210785 181.480885 140.796478 
Q 181.976355 140.578339 182.221482 140.222098 
L 183.80177 140.222098 
Q 183.590543 140.790985 182.401416 141.176259 
Q 180.974984 141.64 178.555005 141.64 
Q 176.468816 141.64 175.050207 141.259434 
Q 173.183068 140.757244 173.183068 139.707353 
Q 173.183068 138.910911 174.58603 138.400875 
Q 176.101125 137.846112 178.766231 137.846112 
z
M 178.440264 137.846112 
L 178.440264 137.846112 
z
" style="fill:#0000ff;"/>
   </g>
   <g id="patch_32">
    <path clip-path="url(#p665c59720c)" d="M 180.310583 128.165667 
L 178.504082 117.728697 
L 176.583541 128.165667 
L 180.310583 128.165667 
z
M 177.661739 114.218828 
L 179.483791 114.218828 
L 183.80177 137.846112 
L 182.034146 137.846112 
L 180.828948 130.769764 
L 176.122196 130.769764 
L 174.83406 137.846112 
L 173.183068 137.846112 
L 177.661739 114.218828 
z
M 178.496307 114.218828 
L 178.496307 114.218828 
z
" style="fill:#008000;"/>
   </g>
   <g id="patch_33">
    <path clip-path="url(#p665c59720c)" d="M 183.80177 75.265739 
L 183.80177 79.90685 
L 179.391802 79.90685 
L 179.391802 114.218828 
L 177.593036 114.218828 
L 177.593036 79.90685 
L 173.183068 79.90685 
L 173.183068 75.265739 
L 183.80177 75.265739 
z
" style="fill:#ff0000;"/>
   </g>
   <g id="patch_34">
    <path clip-path="url(#p665c59720c)" d="M 178.659523 28.86723 
Q 180.297649 28.86723 181.492696 31.268312 
Q 183.224501 34.716266 183.611879 43.360161 
L 182.054773 43.360161 
Q 181.768671 38.529184 180.874917 36.320189 
Q 179.981164 34.111193 178.619013 34.111193 
Q 177.006206 34.111193 175.902306 38.711667 
Q 174.798407 43.302535 174.798407 52.397834 
Q 174.798407 60.254174 175.707352 65.190799 
Q 176.618828 70.127424 178.674714 70.127424 
Q 180.249543 70.127424 181.28255 66.669865 
Q 182.315557 63.202703 182.338344 55.45201 
L 178.700033 55.45201 
L 178.700033 50.505781 
L 183.80177 50.505781 
L 183.80177 74.094011 
L 182.789018 74.094011 
L 182.409236 68.417853 
Q 181.611694 71.750555 180.993916 73.047139 
Q 179.955845 75.265739 178.358229 75.265739 
Q 176.294748 75.265739 174.806003 70.194654 
Q 173.183068 63.826984 173.183068 52.724381 
Q 173.183068 41.650591 174.765492 35.110044 
Q 176.269429 28.86723 178.659523 28.86723 
z
M 178.398739 28.8 
L 178.398739 28.8 
z
" style="fill:#ffa600;"/>
   </g>
   <g id="patch_35">
    <path clip-path="url(#p665c59720c)" d="M 194.979351 139.235952 
L 194.979351 139.522385 
L 190.569383 139.522385 
L 190.569383 141.64 
L 188.770617 141.64 
L 188.770617 139.522385 
L 184.360649 139.522385 
L 184.360649 139.235952 
L 194.979351 139.235952 
z
" style="fill:#ff0000;"/>
   </g>
   <g id="patch_36">
    <path clip-path="url(#p665c59720c)" d="M 189.943812 135.141558 
Q 192.217758 135.141558 193.472079 135.531097 
Q 194.726401 135.919789 194.864611 136.414334 
L 193.284322 136.414334 
Q 193.015726 136.039191 192.212543 135.819864 
Q 191.40936 135.59969 189.959459 135.59969 
Q 188.191414 135.59969 187.103988 136.003625 
Q 186.016561 136.406713 186.016561 137.239988 
Q 186.016561 137.923375 186.99707 138.34848 
Q 187.980187 138.772739 189.928166 138.772739 
Q 191.719681 138.772739 192.658466 138.325616 
Q 193.153936 138.090199 193.399063 137.705741 
L 194.979351 137.705741 
Q 194.768124 138.319688 193.578997 138.735479 
Q 192.152565 139.235952 189.732586 139.235952 
Q 187.646397 139.235952 186.227788 138.825242 
Q 184.360649 138.283275 184.360649 137.150225 
Q 184.360649 136.290698 185.763611 135.740263 
Q 187.278706 135.141558 189.943812 135.141558 
z
M 189.617845 135.141558 
L 189.617845 135.141558 
z
" style="fill:#0000ff;"/>
   </g>
   <g id="patch_37">
    <path clip-path="url(#p665c59720c)" d="M 191.488164 123.183362 
L 189.681663 110.290634 
L 187.761122 123.183362 
L 191.488164 123.183362 
z
M 188.83932 105.954913 
L 190.661373 105.954913 
L 194.979351 135.141558 
L 193.211727 135.141558 
L 192.006529 126.400187 
L 187.299777 126.400187 
L 186.011641 135.141558 
L 184.360649 135.141558 
L 188.83932 105.954913 
z
M 189.673888 105.954913 
L 189.673888 105.954913 
z
" style="fill:#008000;"/>
   </g>
   <g id="patch_38">
    <path clip-path="url(#p665c59720c)" d="M 189.837104 28.911634 
Q 191.47523 28.911634 192.670277 32.898556 
Q 194.402083 38.623776 194.78946 52.976695 
L 193.232354 52.976695 
Q 192.946252 44.955008 192.052498 41.28704 
Q 191.158745 37.619071 189.796594 37.619071 
Q 188.183787 37.619071 187.079887 45.258014 
Q 185.975988 52.881009 185.975988 67.983469 
Q 185.975988 81.028677 186.884933 89.225789 
Q 187.796409 97.4229 189.852295 97.4229 
Q 191.427124 97.4229 192.460131 91.681733 
Q 193.493138 85.924618 193.515925 73.054834 
L 189.877614 73.054834 
L 189.877614 64.841774 
L 194.979351 64.841774 
L 194.979351 104.009296 
L 193.966599 104.009296 
L 193.586817 94.584212 
Q 192.789275 100.11806 192.171497 102.270998 
Q 191.133426 105.954913 189.53581 105.954913 
Q 187.472329 105.954913 185.983584 97.534534 
Q 184.360649 86.961217 184.360649 68.52569 
Q 184.360649 50.138006 185.943074 39.277631 
Q 187.44701 28.911634 189.837104 28.911634 
z
M 189.57632 28.8 
L 189.57632 28.8 
z
" style="fill:#ffa600;"/>
   </g>
   <g id="patch_39">
    <path clip-path="url(#p665c59720c)" d="M 206.156932 135.85526 
L 206.156932 136.544489 
L 201.746964 136.544489 
L 201.746964 141.64 
L 199.948198 141.64 
L 199.948198 136.544489 
L 195.53823 136.544489 
L 195.53823 135.85526 
L 206.156932 135.85526 
z
" style="fill:#ff0000;"/>
   </g>
   <g id="patch_40">
    <path clip-path="url(#p665c59720c)" d="M 201.121393 119.21474 
Q 203.395339 119.21474 204.649661 120.797913 
Q 205.903982 122.377644 206.042192 124.387584 
L 204.461904 124.387584 
Q 204.193307 122.86292 203.390124 121.971525 
Q 202.586941 121.076689 201.13704 121.076689 
Q 199.368995 121.076689 198.281569 122.71837 
Q 197.194143 124.356609 197.194143 127.743222 
Q 197.194143 130.520657 198.174651 132.24838 
Q 199.157768 133.972661 201.105747 133.972661 
Q 202.897262 133.972661 203.836047 132.155454 
Q 204.331517 131.198668 204.576644 129.636145 
L 206.156932 129.636145 
Q 205.945706 132.131363 204.756578 133.821227 
Q 203.330146 135.85526 200.910167 135.85526 
Q 198.823978 135.85526 197.405369 134.186045 
Q 195.53823 131.98337 195.53823 127.378404 
Q 195.53823 123.885099 196.941192 121.648008 
Q 198.456287 119.21474 201.121393 119.21474 
z
M 200.795426 119.21474 
L 200.795426 119.21474 
z
" style="fill:#0000ff;"/>
   </g>
   <g id="patch_41">
    <path clip-path="url(#p665c59720c)" d="M 202.665746 112.166022 
L 200.859244 104.566448 
L 198.938703 112.166022 
L 202.665746 112.166022 
z
M 200.016902 102.010772 
L 201.838954 102.010772 
L 206.156932 119.21474 
L 204.389308 119.21474 
L 203.18411 114.062169 
L 198.477358 114.062169 
L 197.189222 119.21474 
L 195.53823 119.21474 
L 200.016902 102.010772 
z
M 200.851469 102.010772 
L 200.851469 102.010772 
z
" style="fill:#008000;"/>
   </g>
   <g id="patch_42">
    <path clip-path="url(#p665c59720c)" d="M 201.014685 28.905927 
Q 202.652811 28.905927 203.847858 32.689039 
Q 205.579664 38.121587 205.967041 51.740788 
L 204.409935 51.740788 
Q 204.123833 44.129167 203.23008 40.648705 
Q 202.336326 37.168242 200.974175 37.168242 
Q 199.361368 37.168242 198.257469 44.416684 
Q 197.153569 51.649993 197.153569 65.980419 
Q 197.153569 78.35876 198.062514 86.136837 
Q 198.97399 93.914914 201.029876 93.914914 
Q 202.604705 93.914914 203.637712 88.467233 
Q 204.670719 83.004421 204.693506 70.792537 
L 201.055195 70.792537 
L 201.055195 62.999327 
L 206.156932 62.999327 
L 206.156932 100.164614 
L 205.14418 100.164614 
L 204.764399 91.221339 
Q 203.966857 96.472297 203.349078 98.515177 
Q 202.311007 102.010772 200.713392 102.010772 
Q 198.64991 102.010772 197.161165 94.020841 
Q 195.53823 83.988029 195.53823 66.494922 
Q 195.53823 49.047212 197.120655 38.742017 
Q 198.624591 28.905927 201.014685 28.905927 
z
M 200.753902 28.8 
L 200.753902 28.8 
z
" style="fill:#ffa600;"/>
   </g>
   <g id="patch_43">
    <path clip-path="url(#p665c59720c)" d="M 217.334513 136.493835 
L 217.334513 137.106981 
L 212.924545 137.106981 
L 212.924545 141.64 
L 211.12578 141.64 
L 211.12578 137.106981 
L 206.715811 137.106981 
L 206.715811 136.493835 
L 217.334513 136.493835 
z
" style="fill:#ff0000;"/>
   </g>
   <g id="patch_44">
    <path clip-path="url(#p665c59720c)" d="M 212.298975 113.354874 
Q 214.572921 113.354874 215.827242 115.556305 
Q 217.081563 117.752951 217.219773 120.547812 
L 215.639485 120.547812 
Q 215.370888 118.427738 214.567705 117.188236 
Q 213.764522 115.943949 212.314621 115.943949 
Q 210.546576 115.943949 209.45915 118.226738 
Q 208.371724 120.504741 208.371724 125.21389 
Q 208.371724 129.075967 209.352233 131.478399 
Q 210.335349 133.876045 212.283328 133.876045 
Q 214.074843 133.876045 215.013628 131.349185 
Q 215.509098 130.018754 215.754225 127.846037 
L 217.334513 127.846037 
Q 217.123287 131.315685 215.934159 133.665474 
Q 214.507727 136.493835 212.087748 136.493835 
Q 210.001559 136.493835 208.58295 134.17276 
Q 206.715811 131.109899 206.715811 124.706604 
Q 206.715811 119.849097 208.118773 116.738378 
Q 209.633868 113.354874 212.298975 113.354874 
z
M 211.973008 113.354874 
L 211.973008 113.354874 
z
" style="fill:#0000ff;"/>
   </g>
   <g id="patch_45">
    <path clip-path="url(#p665c59720c)" d="M 212.192266 77.158785 
Q 213.830392 77.158785 215.025439 79.031901 
Q 216.757245 81.721695 217.144622 88.464912 
L 215.587517 88.464912 
Q 215.301414 84.696203 214.407661 82.972937 
Q 213.513907 81.24967 212.151756 81.24967 
Q 210.538949 81.24967 209.43505 84.83856 
Q 208.33115 88.419957 208.33115 95.515319 
Q 208.33115 101.644154 209.240095 105.49528 
Q 210.151572 109.346406 212.207458 109.346406 
Q 213.782287 109.346406 214.815293 106.649119 
Q 215.8483 103.94434 215.871087 97.897923 
L 212.232776 97.897923 
L 212.232776 94.039304 
L 217.334513 94.039304 
L 217.334513 112.440793 
L 216.321762 112.440793 
L 215.94198 108.012747 
Q 215.144438 110.612632 214.526659 111.624115 
Q 213.488589 113.354874 211.890973 113.354874 
Q 209.827491 113.354874 208.338746 109.398853 
Q 206.715811 104.43135 206.715811 95.770063 
Q 206.715811 87.131254 208.298236 82.028886 
Q 209.802172 77.158785 212.192266 77.158785 
z
M 211.931483 77.106338 
L 211.931483 77.106338 
z
" style="fill:#ffa600;"/>
   </g>
   <g id="patch_46">
    <path clip-path="url(#p665c59720c)" d="M 213.843327 57.314523 
L 212.036825 35.97598 
L 210.116284 57.314523 
L 213.843327 57.314523 
z
M 211.194483 28.8 
L 213.016535 28.8 
L 217.334513 77.106338 
L 215.566889 77.106338 
L 214.361691 62.638637 
L 209.654939 62.638637 
L 208.366803 77.106338 
L 206.715811 77.106338 
L 211.194483 28.8 
z
M 212.02905 28.8 
L 212.02905 28.8 
z
" style="fill:#008000;"/>
   </g>
   <g id="patch_47">
    <path clip-path="url(#p665c59720c)" d="M 228.512094 138.935446 
L 228.512094 139.257683 
L 224.102126 139.257683 
L 224.102126 141.64 
L 222.303361 141.64 
L 222.303361 139.257683 
L 217.893392 139.257683 
L 217.893392 138.935446 
L 228.512094 138.935446 
z
" style="fill:#ff0000;"/>
   </g>
   <g id="patch_48">
    <path clip-path="url(#p665c59720c)" d="M 223.476556 126.577137 
Q 225.750502 126.577137 227.004823 127.752902 
Q 228.259144 128.92611 228.397354 130.41882 
L 226.817066 130.41882 
Q 226.548469 129.286508 225.745286 128.624501 
Q 224.942103 127.959939 223.492202 127.959939 
Q 221.724157 127.959939 220.636731 129.179155 
Q 219.549305 130.395816 219.549305 132.91093 
Q 219.549305 134.97363 220.529814 136.256747 
Q 221.51293 137.537309 223.460909 137.537309 
Q 225.252424 137.537309 226.191209 136.187735 
Q 226.686679 135.477164 226.931806 134.316736 
L 228.512094 134.316736 
Q 228.300868 136.169843 227.11174 137.424844 
Q 225.685308 138.935446 223.265329 138.935446 
Q 221.17914 138.935446 219.760531 137.695781 
Q 217.893392 136.059935 217.893392 132.639993 
Q 217.893392 130.045643 219.296354 128.384236 
Q 220.811449 126.577137 223.476556 126.577137 
z
M 223.150589 126.577137 
L 223.150589 126.577137 
z
" style="fill:#0000ff;"/>
   </g>
   <g id="patch_49">
    <path clip-path="url(#p665c59720c)" d="M 225.020908 113.295383 
L 223.214407 98.97566 
L 221.293865 113.295383 
L 225.020908 113.295383 
z
M 222.372064 94.160053 
L 224.194116 94.160053 
L 228.512094 126.577137 
L 226.744471 126.577137 
L 225.539273 116.868252 
L 220.832521 116.868252 
L 219.544384 126.577137 
L 217.893392 126.577137 
L 222.372064 94.160053 
z
M 223.206631 94.160053 
L 223.206631 94.160053 
z
" style="fill:#008000;"/>
   </g>
   <g id="patch_50">
    <path clip-path="url(#p665c59720c)" d="M 223.369847 28.894568 
Q 225.007973 28.894568 226.20302 32.272 
Q 227.934826 37.121991 228.322203 49.280744 
L 226.765098 49.280744 
Q 226.478995 42.485352 225.585242 39.378115 
Q 224.691488 36.270878 223.329337 36.270878 
Q 221.71653 36.270878 220.612631 42.742037 
Q 219.508731 49.199686 219.508731 61.993396 
Q 219.508731 73.044352 220.417676 79.988351 
Q 221.329153 86.93235 223.385039 86.93235 
Q 224.959868 86.93235 225.992874 82.068849 
Q 227.025881 77.191838 227.048668 66.289489 
L 223.410357 66.289489 
L 223.410357 59.33198 
L 228.512094 59.33198 
L 228.512094 92.511867 
L 227.499343 92.511867 
L 227.119561 84.527619 
Q 226.322019 89.215494 225.70424 91.039307 
Q 224.66617 94.160053 223.068554 94.160053 
Q 221.005072 94.160053 219.516327 87.026918 
Q 217.893392 78.06997 217.893392 62.452727 
Q 217.893392 46.876013 219.475817 37.67589 
Q 220.979753 28.894568 223.369847 28.894568 
z
M 223.109064 28.8 
L 223.109064 28.8 
z
" style="fill:#ffa600;"/>
   </g>
   <g id="patch_51">
    <path clip-path="url(#p665c59720c)" d="M 234.654137 136.944594 
Q 236.928083 136.944594 238.182404 137.391313 
Q 239.436725 137.837061 239.574935 138.4042 
L 237.994647 138.4042 
Q 237.72605 137.97399 236.922867 137.722468 
Q 236.119685 137.469974 234.669783 137.469974 
Q 232.901738 137.469974 231.814312 137.933203 
Q 230.726886 138.39546 230.726886 139.35105 
Q 230.726886 140.134751 231.707395 140.622257 
Q 232.690511 141.108793 234.63849 141.108793 
Q 236.430005 141.108793 237.36879 140.596037 
Q 237.86426 140.326063 238.109387 139.885171 
L 239.689676 139.885171 
Q 239.478449 140.589239 238.289321 141.066063 
Q 236.862889 141.64 234.44291 141.64 
Q 232.356721 141.64 230.938113 141.169003 
Q 229.070973 140.54748 229.070973 139.248111 
Q 229.070973 138.262415 230.473936 137.631182 
Q 231.98903 136.944594 234.654137 136.944594 
z
M 234.32817 136.944594 
L 234.32817 136.944594 
z
" style="fill:#0000ff;"/>
   </g>
   <g id="patch_52">
    <path clip-path="url(#p665c59720c)" d="M 234.547429 120.628223 
Q 236.185554 120.628223 237.380602 121.47258 
Q 239.112407 122.685078 239.499785 125.724767 
L 237.942679 125.724767 
Q 237.656576 124.025919 236.762823 123.249109 
Q 235.86907 122.4723 234.506918 122.4723 
Q 232.894111 122.4723 231.790212 124.09009 
Q 230.686312 125.704502 230.686312 128.90293 
Q 230.686312 131.665669 231.595257 133.401668 
Q 232.506734 135.137668 234.56262 135.137668 
Q 236.137449 135.137668 237.170456 133.921793 
Q 238.203462 132.70254 238.226249 129.976953 
L 234.587939 129.976953 
L 234.587939 128.237576 
L 239.689676 128.237576 
L 239.689676 136.532547 
L 238.676924 136.532547 
L 238.297142 134.536485 
Q 237.4996 135.708454 236.881821 136.164407 
Q 235.843751 136.944594 234.246135 136.944594 
Q 232.182653 136.944594 230.693908 135.16131 
Q 229.070973 132.922073 229.070973 129.017762 
Q 229.070973 125.123584 230.653398 122.823553 
Q 232.157334 120.628223 234.547429 120.628223 
z
M 234.286645 120.604581 
L 234.286645 120.604581 
z
" style="fill:#ffa600;"/>
   </g>
   <g id="patch_53">
    <path clip-path="url(#p665c59720c)" d="M 239.689676 81.951997 
L 239.689676 86.557304 
L 235.279707 86.557304 
L 235.279707 120.604581 
L 233.480942 120.604581 
L 233.480942 86.557304 
L 229.070973 86.557304 
L 229.070973 81.951997 
L 239.689676 81.951997 
z
" style="fill:#ff0000;"/>
   </g>
   <g id="patch_54">
    <path clip-path="url(#p665c59720c)" d="M 236.198489 60.174845 
L 234.391988 36.69581 
L 232.471446 60.174845 
L 236.198489 60.174845 
z
M 233.549645 28.8 
L 235.371697 28.8 
L 239.689676 81.951997 
L 237.922052 81.951997 
L 236.716854 66.033026 
L 232.010102 66.033026 
L 230.721965 81.951997 
L 229.070973 81.951997 
L 233.549645 28.8 
z
M 234.384212 28.8 
L 234.384212 28.8 
z
" style="fill:#008000;"/>
   </g>
   <g id="patch_55">
    <path clip-path="url(#p665c59720c)" d="M 245.72501 133.162989 
Q 247.363136 133.162989 248.558183 133.601667 
Q 250.289988 134.231608 250.677366 135.810848 
L 249.12026 135.810848 
Q 248.834158 134.928228 247.940404 134.524645 
Q 247.046651 134.121061 245.6845 134.121061 
Q 244.071692 134.121061 242.967793 134.961568 
Q 241.863894 135.80032 241.863894 137.462032 
Q 241.863894 138.897386 242.772838 139.799308 
Q 243.684315 140.701229 245.740201 140.701229 
Q 247.31503 140.701229 248.348037 140.069533 
Q 249.381043 139.436082 249.40383 138.02003 
L 245.76552 138.02003 
L 245.76552 137.116354 
L 250.867257 137.116354 
L 250.867257 141.425925 
L 249.854505 141.425925 
L 249.474723 140.388891 
Q 248.677181 140.997776 248.059402 141.234662 
Q 247.021332 141.64 245.423716 141.64 
Q 243.360234 141.64 241.871489 140.713512 
Q 240.248555 139.550139 240.248555 137.521692 
Q 240.248555 135.49851 241.830979 134.303551 
Q 243.334916 133.162989 245.72501 133.162989 
z
M 245.464226 133.150706 
L 245.464226 133.150706 
z
" style="fill:#ffa600;"/>
   </g>
   <g id="patch_56">
    <path clip-path="url(#p665c59720c)" d="M 245.831718 116.698003 
Q 248.105664 116.698003 249.359985 118.263306 
Q 250.614306 119.825207 250.752516 121.812462 
L 249.172228 121.812462 
Q 248.903631 120.305007 248.100448 119.423673 
Q 247.297266 118.538936 245.847364 118.538936 
Q 244.079319 118.538936 242.991893 120.162088 
Q 241.904467 121.781837 241.904467 125.130226 
Q 241.904467 127.876313 242.884976 129.584536 
Q 243.868093 131.289355 245.816071 131.289355 
Q 247.607586 131.289355 248.546371 129.492659 
Q 249.041841 128.546671 249.286968 127.001784 
L 250.867257 127.001784 
Q 250.65603 129.468839 249.466902 131.139631 
Q 248.040471 133.150706 245.620491 133.150706 
Q 243.534302 133.150706 242.115694 131.500331 
Q 240.248555 129.322517 240.248555 124.769525 
Q 240.248555 121.315649 241.651517 119.103806 
Q 243.166611 116.698003 245.831718 116.698003 
z
M 245.505751 116.698003 
L 245.505751 116.698003 
z
" style="fill:#0000ff;"/>
   </g>
   <g id="patch_57">
    <path clip-path="url(#p665c59720c)" d="M 247.37607 109.126017 
L 245.569569 100.962282 
L 243.649027 109.126017 
L 247.37607 109.126017 
z
M 244.727226 98.216884 
L 246.549278 98.216884 
L 250.867257 116.698003 
L 249.099633 116.698003 
L 247.894435 111.162926 
L 243.187683 111.162926 
L 241.899546 116.698003 
L 240.248555 116.698003 
L 244.727226 98.216884 
z
M 245.561793 98.216884 
L 245.561793 98.216884 
z
" style="fill:#008000;"/>
   </g>
   <g id="patch_58">
    <path clip-path="url(#p665c59720c)" d="M 250.867257 28.8 
L 250.867257 37.070755 
L 246.457288 37.070755 
L 246.457288 98.216884 
L 244.658523 98.216884 
L 244.658523 37.070755 
L 240.248555 37.070755 
L 240.248555 28.8 
L 250.867257 28.8 
z
" style="fill:#ff0000;"/>
   </g>
   <g id="patch_59">
    <path clip-path="url(#p665c59720c)" d="M 256.902591 133.688113 
Q 258.540717 133.688113 259.735764 134.099616 
Q 261.467569 134.690535 261.854947 136.171946 
L 260.297841 136.171946 
Q 260.011739 135.344002 259.117985 134.965419 
Q 258.224232 134.586836 256.862081 134.586836 
Q 255.249274 134.586836 254.145374 135.375276 
Q 253.041475 136.16207 253.041475 137.720844 
Q 253.041475 139.067282 253.950419 139.913333 
Q 254.861896 140.759383 256.917782 140.759383 
Q 258.492611 140.759383 259.525618 140.166819 
Q 260.558625 139.572608 260.581411 138.244276 
L 256.943101 138.244276 
L 256.943101 137.39658 
L 262.044838 137.39658 
L 262.044838 141.439186 
L 261.032086 141.439186 
L 260.652304 140.466393 
Q 259.854762 141.037559 259.236984 141.259771 
Q 258.198913 141.64 256.601297 141.64 
Q 254.537815 141.64 253.04907 140.770905 
Q 251.426136 139.679599 251.426136 137.776809 
Q 251.426136 135.878956 253.00856 134.758021 
Q 254.512497 133.688113 256.902591 133.688113 
z
M 256.641807 133.676591 
L 256.641807 133.676591 
z
" style="fill:#ffa600;"/>
   </g>
   <g id="patch_60">
    <path clip-path="url(#p665c59720c)" d="M 257.009299 107.983329 
Q 259.283245 107.983329 260.537566 110.427776 
Q 261.791887 112.866909 261.930097 115.970293 
L 260.349809 115.970293 
Q 260.081212 113.616185 259.27803 112.239855 
Q 258.474847 110.858211 257.024945 110.858211 
Q 255.2569 110.858211 254.169474 113.392996 
Q 253.082048 115.922467 253.082048 121.151458 
Q 253.082048 125.439868 254.062557 128.107504 
Q 255.045674 130.769825 256.993653 130.769825 
Q 258.785167 130.769825 259.723952 127.964025 
Q 260.219422 126.486729 260.46455 124.074166 
L 262.044838 124.074166 
Q 261.833611 127.926827 260.644483 130.536008 
Q 259.218052 133.676591 256.798072 133.676591 
Q 254.711883 133.676591 253.293275 131.099294 
Q 251.426136 127.698324 251.426136 120.588172 
Q 251.426136 115.194447 252.829098 111.740337 
Q 254.344193 107.983329 257.009299 107.983329 
z
M 256.683332 107.983329 
L 256.683332 107.983329 
z
" style="fill:#0000ff;"/>
   </g>
   <g id="patch_61">
    <path clip-path="url(#p665c59720c)" d="M 262.044838 75.566245 
L 262.044838 79.428616 
L 257.634869 79.428616 
L 257.634869 107.983329 
L 255.836104 107.983329 
L 255.836104 79.428616 
L 251.426136 79.428616 
L 251.426136 75.566245 
L 262.044838 75.566245 
z
" style="fill:#ff0000;"/>
   </g>
   <g id="patch_62">
    <path clip-path="url(#p665c59720c)" d="M 258.553651 56.405429 
L 256.74715 35.747196 
L 254.826609 56.405429 
L 258.553651 56.405429 
z
M 255.904807 28.8 
L 257.726859 28.8 
L 262.044838 75.566245 
L 260.277214 75.566245 
L 259.072016 61.5598 
L 254.365264 61.5598 
L 253.077127 75.566245 
L 251.426136 75.566245 
L 255.904807 28.8 
z
M 256.739374 28.8 
L 256.739374 28.8 
z
" style="fill:#008000;"/>
   </g>
   <g id="patch_63">
    <path clip-path="url(#p665c59720c)" d="M 268.080172 136.951388 
Q 269.718298 136.951388 270.913345 137.194019 
Q 272.64515 137.542438 273.032528 138.415912 
L 271.475422 138.415912 
Q 271.18932 137.927737 270.295566 137.704516 
Q 269.401813 137.481295 268.039662 137.481295 
Q 266.426855 137.481295 265.322955 137.946177 
Q 264.219056 138.410089 264.219056 139.329177 
Q 264.219056 140.123067 265.128001 140.621918 
Q 266.039477 141.120768 268.095363 141.120768 
Q 269.670192 141.120768 270.703199 140.771379 
Q 271.736206 140.421019 271.758993 139.637804 
L 268.120682 139.637804 
L 268.120682 139.137983 
L 273.222419 139.137983 
L 273.222419 141.521596 
L 272.209667 141.521596 
L 271.829885 140.948015 
Q 271.032343 141.284787 270.414565 141.415808 
Q 269.376494 141.64 267.778878 141.64 
Q 265.715397 141.64 264.226651 141.127562 
Q 262.603717 140.484103 262.603717 139.362175 
Q 262.603717 138.243158 264.186141 137.58223 
Q 265.690078 136.951388 268.080172 136.951388 
z
M 267.819388 136.944594 
L 267.819388 136.944594 
z
" style="fill:#ffa600;"/>
   </g>
   <g id="patch_64">
    <path clip-path="url(#p665c59720c)" d="M 269.731232 133.158601 
L 267.924731 129.076734 
L 266.00419 133.158601 
L 269.731232 133.158601 
z
M 267.082388 127.704035 
L 268.90444 127.704035 
L 273.222419 136.944594 
L 271.454795 136.944594 
L 270.249597 134.177055 
L 265.542845 134.177055 
L 264.254709 136.944594 
L 262.603717 136.944594 
L 267.082388 127.704035 
z
M 267.916956 127.704035 
L 267.916956 127.704035 
z
" style="fill:#008000;"/>
   </g>
   <g id="patch_65">
    <path clip-path="url(#p665c59720c)" d="M 273.222419 99.268655 
L 273.222419 102.656621 
L 268.812451 102.656621 
L 268.812451 127.704035 
L 267.013685 127.704035 
L 267.013685 102.656621 
L 262.603717 102.656621 
L 262.603717 99.268655 
L 273.222419 99.268655 
z
" style="fill:#ff0000;"/>
   </g>
   <g id="patch_66">
    <path clip-path="url(#p665c59720c)" d="M 268.18688 28.8 
Q 270.460826 28.8 271.715147 35.50436 
Q 272.969468 42.194146 273.107678 50.705768 
L 271.52739 50.705768 
Q 271.258793 44.249178 270.455611 40.474331 
Q 269.652428 36.684911 268.202527 36.684911 
Q 266.434481 36.684911 265.347055 43.637041 
Q 264.259629 50.574596 264.259629 64.916097 
Q 264.259629 76.677876 265.240138 83.994374 
Q 266.223255 91.296296 268.171234 91.296296 
Q 269.962749 91.296296 270.901534 83.600857 
Q 271.397003 79.549091 271.642131 72.932179 
L 273.222419 72.932179 
Q 273.011192 83.498834 271.822065 90.65501 
Q 270.395633 99.268655 267.975654 99.268655 
Q 265.889465 99.268655 264.470856 92.199928 
Q 262.603717 82.872122 262.603717 63.371179 
Q 262.603717 48.577862 264.006679 39.10431 
Q 265.521774 28.8 268.18688 28.8 
z
M 267.860913 28.8 
L 267.860913 28.8 
z
" style="fill:#0000ff;"/>
   </g>
   <g id="patch_67">
    <path clip-path="url(#p665c59720c)" d="M 280.908813 140.039418 
L 279.102312 138.31375 
L 277.181771 140.039418 
L 280.908813 140.039418 
z
M 278.259969 137.733422 
L 280.082022 137.733422 
L 284.4 141.64 
L 282.632376 141.64 
L 281.427178 140.469984 
L 276.720426 140.469984 
L 275.43229 141.64 
L 273.781298 141.64 
L 278.259969 137.733422 
z
M 279.094537 137.733422 
L 279.094537 137.733422 
z
" style="fill:#008000;"/>
   </g>
   <g id="patch_68">
    <path clip-path="url(#p665c59720c)" d="M 279.257753 133.119827 
Q 280.895879 133.119827 282.090926 133.358577 
Q 283.822732 133.701421 284.210109 134.560919 
L 282.653003 134.560919 
Q 282.366901 134.080555 281.473147 133.860906 
Q 280.579394 133.641256 279.217243 133.641256 
Q 277.604436 133.641256 276.500536 134.0987 
Q 275.396637 134.555189 275.396637 135.459572 
Q 275.396637 136.24076 276.305582 136.731629 
Q 277.217058 137.222498 279.272944 137.222498 
Q 280.847773 137.222498 281.88078 136.878699 
Q 282.913787 136.533945 282.936574 135.763262 
L 279.298263 135.763262 
L 279.298263 135.271438 
L 284.4 135.271438 
L 284.4 137.616912 
L 283.387248 137.616912 
L 283.007466 137.052509 
Q 282.209924 137.383893 281.592146 137.512818 
Q 280.554075 137.733422 278.956459 137.733422 
Q 276.892978 137.733422 275.404233 137.229183 
Q 273.781298 136.59602 273.781298 135.492042 
Q 273.781298 134.39093 275.363723 133.740576 
Q 276.867659 133.119827 279.257753 133.119827 
z
M 278.996969 133.113142 
L 278.996969 133.113142 
z
" style="fill:#ffa600;"/>
   </g>
   <g id="patch_69">
    <path clip-path="url(#p665c59720c)" d="M 279.364461 97.12755 
Q 281.638407 97.12755 282.892728 100.551205 
Q 284.14705 103.967417 284.28526 108.313971 
L 282.704971 108.313971 
Q 282.436375 105.016842 281.633192 103.089176 
Q 280.830009 101.154066 279.380108 101.154066 
Q 277.612063 101.154066 276.524636 104.704248 
Q 275.43721 108.246986 275.43721 115.570631 
Q 275.43721 121.576913 276.417719 125.313163 
Q 277.400836 129.04197 279.348815 129.04197 
Q 281.14033 129.04197 282.079115 125.112209 
Q 282.574585 123.043131 282.819712 119.664132 
L 284.4 119.664132 
Q 284.188773 125.06011 282.999646 128.71449 
Q 281.573214 133.113142 279.153235 133.113142 
Q 277.067046 133.113142 275.648437 129.503419 
Q 273.781298 124.740073 273.781298 114.781702 
Q 273.781298 107.227333 275.18426 102.389559 
Q 276.699355 97.12755 279.364461 97.12755 
z
M 279.038494 97.12755 
L 279.038494 97.12755 
z
" style="fill:#0000ff;"/>
   </g>
   <g id="patch_70">
    <path clip-path="url(#p665c59720c)" d="M 284.4 28.8 
L 284.4 36.940965 
L 279.990032 36.940965 
L 279.990032 97.12755 
L 278.191266 97.12755 
L 278.191266 36.940965 
L 273.781298 36.940965 
L 273.781298 28.8 
L 284.4 28.8 
z
" style="fill:#ff0000;"/>
   </g>
   <g id="matplotlib.axis_1">
    <g id="xtick_1">
     <g id="text_1">
      <!-- 0 -->
      <g style="fill:#262626;" transform="translate(94.688414 162.986875)scale(0.2 -0.2)">
       <defs>
        <path d="M 1731 4475 
Q 2600 4475 2988 3759 
Q 3288 3206 3288 2244 
Q 3288 1331 3016 734 
Q 2622 -122 1728 -122 
Q 922 -122 528 578 
Q 200 1163 200 2147 
Q 200 2909 397 3456 
Q 766 4475 1731 4475 
z
M 1725 391 
Q 2163 391 2422 778 
Q 2681 1166 2681 2222 
Q 2681 2984 2493 3476 
Q 2306 3969 1766 3969 
Q 1269 3969 1039 3501 
Q 809 3034 809 2125 
Q 809 1441 956 1025 
Q 1181 391 1725 391 
z
" id="Helvetica-30" transform="scale(0.015625)"/>
       </defs>
       <use xlink:href="#Helvetica-30"/>
      </g>
     </g>
    </g>
    <g id="xtick_2">
     <g id="text_2">
      <!-- 10 -->
      <g style="fill:#262626;" transform="translate(200.903287 162.986875)scale(0.2 -0.2)">
       <defs>
        <path d="M 613 3169 
L 613 3600 
Q 1222 3659 1462 3798 
Q 1703 3938 1822 4456 
L 2266 4456 
L 2266 0 
L 1666 0 
L 1666 3169 
L 613 3169 
z
" id="Helvetica-31" transform="scale(0.015625)"/>
       </defs>
       <use xlink:href="#Helvetica-31"/>
       <use x="55.615234" xlink:href="#Helvetica-30"/>
      </g>
     </g>
    </g>
    <g id="text_3">
     <!-- Position -->
     <g style="fill:#262626;" transform="translate(145.20125 189.089219)scale(0.25 -0.25)">
      <defs>
       <path d="M 547 4591 
L 2613 4591 
Q 3225 4591 3600 4245 
Q 3975 3900 3975 3275 
Q 3975 2738 3640 2339 
Q 3306 1941 2613 1941 
L 1169 1941 
L 1169 0 
L 547 0 
L 547 4591 
z
M 3347 3272 
Q 3347 3778 2972 3959 
Q 2766 4056 2406 4056 
L 1169 4056 
L 1169 2466 
L 2406 2466 
Q 2825 2466 3086 2644 
Q 3347 2822 3347 3272 
z
" id="Helvetica-50" transform="scale(0.015625)"/>
       <path d="M 1741 363 
Q 2300 363 2508 786 
Q 2716 1209 2716 1728 
Q 2716 2197 2566 2491 
Q 2328 2953 1747 2953 
Q 1231 2953 997 2559 
Q 763 2166 763 1609 
Q 763 1075 997 719 
Q 1231 363 1741 363 
z
M 1763 3444 
Q 2409 3444 2856 3012 
Q 3303 2581 3303 1744 
Q 3303 934 2909 406 
Q 2516 -122 1688 -122 
Q 997 -122 590 345 
Q 184 813 184 1600 
Q 184 2444 612 2944 
Q 1041 3444 1763 3444 
z
M 1744 3428 
L 1744 3428 
z
" id="Helvetica-6f" transform="scale(0.015625)"/>
       <path d="M 747 1050 
Q 772 769 888 619 
Q 1100 347 1625 347 
Q 1938 347 2175 483 
Q 2413 619 2413 903 
Q 2413 1119 2222 1231 
Q 2100 1300 1741 1391 
L 1294 1503 
Q 866 1609 663 1741 
Q 300 1969 300 2372 
Q 300 2847 642 3140 
Q 984 3434 1563 3434 
Q 2319 3434 2653 2991 
Q 2863 2709 2856 2384 
L 2325 2384 
Q 2309 2575 2191 2731 
Q 1997 2953 1519 2953 
Q 1200 2953 1036 2831 
Q 872 2709 872 2509 
Q 872 2291 1088 2159 
Q 1213 2081 1456 2022 
L 1828 1931 
Q 2434 1784 2641 1647 
Q 2969 1431 2969 969 
Q 2969 522 2630 197 
Q 2291 -128 1597 -128 
Q 850 -128 539 211 
Q 228 550 206 1050 
L 747 1050 
z
M 1578 3428 
L 1578 3428 
z
" id="Helvetica-73" transform="scale(0.015625)"/>
       <path d="M 413 3331 
L 984 3331 
L 984 0 
L 413 0 
L 413 3331 
z
M 413 4591 
L 984 4591 
L 984 3953 
L 413 3953 
L 413 4591 
z
" id="Helvetica-69" transform="scale(0.015625)"/>
       <path d="M 525 4281 
L 1094 4281 
L 1094 3347 
L 1628 3347 
L 1628 2888 
L 1094 2888 
L 1094 703 
Q 1094 528 1213 469 
Q 1278 434 1431 434 
Q 1472 434 1519 436 
Q 1566 438 1628 444 
L 1628 0 
Q 1531 -28 1426 -40 
Q 1322 -53 1200 -53 
Q 806 -53 665 148 
Q 525 350 525 672 
L 525 2888 
L 72 2888 
L 72 3347 
L 525 3347 
L 525 4281 
z
" id="Helvetica-74" transform="scale(0.015625)"/>
       <path d="M 413 3347 
L 947 3347 
L 947 2872 
Q 1184 3166 1450 3294 
Q 1716 3422 2041 3422 
Q 2753 3422 3003 2925 
Q 3141 2653 3141 2147 
L 3141 0 
L 2569 0 
L 2569 2109 
Q 2569 2416 2478 2603 
Q 2328 2916 1934 2916 
Q 1734 2916 1606 2875 
Q 1375 2806 1200 2600 
Q 1059 2434 1017 2257 
Q 975 2081 975 1753 
L 975 0 
L 413 0 
L 413 3347 
z
M 1734 3428 
L 1734 3428 
z
" id="Helvetica-6e" transform="scale(0.015625)"/>
      </defs>
      <use xlink:href="#Helvetica-50"/>
      <use x="66.699219" xlink:href="#Helvetica-6f"/>
      <use x="122.314453" xlink:href="#Helvetica-73"/>
      <use x="172.314453" xlink:href="#Helvetica-69"/>
      <use x="194.53125" xlink:href="#Helvetica-74"/>
      <use x="222.314453" xlink:href="#Helvetica-69"/>
      <use x="244.53125" xlink:href="#Helvetica-6f"/>
      <use x="300.146484" xlink:href="#Helvetica-6e"/>
     </g>
    </g>
   </g>
   <g id="matplotlib.axis_2">
    <g id="ytick_1">
     <g id="text_4">
      <!-- 0 -->
      <g style="fill:#262626;" transform="translate(76.818125 148.813438)scale(0.2 -0.2)">
       <use xlink:href="#Helvetica-30"/>
      </g>
     </g>
    </g>
    <g id="ytick_2">
     <g id="text_5">
      <!-- 0.25 -->
      <g style="fill:#262626;" transform="translate(49.018125 120.603437)scale(0.2 -0.2)">
       <defs>
        <path d="M 547 681 
L 1200 681 
L 1200 0 
L 547 0 
L 547 681 
z
" id="Helvetica-2e" transform="scale(0.015625)"/>
        <path d="M 200 0 
Q 231 578 439 1006 
Q 647 1434 1250 1784 
L 1850 2131 
Q 2253 2366 2416 2531 
Q 2672 2791 2672 3125 
Q 2672 3516 2437 3745 
Q 2203 3975 1813 3975 
Q 1234 3975 1013 3538 
Q 894 3303 881 2888 
L 309 2888 
Q 319 3472 525 3841 
Q 891 4491 1816 4491 
Q 2584 4491 2939 4075 
Q 3294 3659 3294 3150 
Q 3294 2613 2916 2231 
Q 2697 2009 2131 1694 
L 1703 1456 
Q 1397 1288 1222 1134 
Q 909 863 828 531 
L 3272 531 
L 3272 0 
L 200 0 
z
" id="Helvetica-32" transform="scale(0.015625)"/>
        <path d="M 791 1141 
Q 847 659 1238 475 
Q 1438 381 1700 381 
Q 2200 381 2440 700 
Q 2681 1019 2681 1406 
Q 2681 1875 2395 2131 
Q 2109 2388 1709 2388 
Q 1419 2388 1211 2275 
Q 1003 2163 856 1963 
L 369 1991 
L 709 4400 
L 3034 4400 
L 3034 3856 
L 1131 3856 
L 941 2613 
Q 1097 2731 1238 2791 
Q 1488 2894 1816 2894 
Q 2431 2894 2859 2497 
Q 3288 2100 3288 1491 
Q 3288 856 2895 371 
Q 2503 -113 1644 -113 
Q 1097 -113 676 195 
Q 256 503 206 1141 
L 791 1141 
z
" id="Helvetica-35" transform="scale(0.015625)"/>
       </defs>
       <use xlink:href="#Helvetica-30"/>
       <use x="55.615234" xlink:href="#Helvetica-2e"/>
       <use x="83.398438" xlink:href="#Helvetica-32"/>
       <use x="139.013672" xlink:href="#Helvetica-35"/>
      </g>
     </g>
    </g>
    <g id="ytick_3">
     <g id="text_6">
      <!-- 0.50 -->
      <g style="fill:#262626;" transform="translate(49.018125 92.393438)scale(0.2 -0.2)">
       <use xlink:href="#Helvetica-30"/>
       <use x="55.615234" xlink:href="#Helvetica-2e"/>
       <use x="83.398438" xlink:href="#Helvetica-35"/>
       <use x="139.013672" xlink:href="#Helvetica-30"/>
      </g>
     </g>
    </g>
    <g id="ytick_4">
     <g id="text_7">
      <!-- 0.75 -->
      <g style="fill:#262626;" transform="translate(49.018125 64.183437)scale(0.2 -0.2)">
       <defs>
        <path d="M 3347 4400 
L 3347 3909 
Q 3131 3700 2773 3181 
Q 2416 2663 2141 2063 
Q 1869 1478 1728 997 
Q 1638 688 1494 0 
L 872 0 
Q 1084 1281 1809 2550 
Q 2238 3294 2709 3834 
L 234 3834 
L 234 4400 
L 3347 4400 
z
" id="Helvetica-37" transform="scale(0.015625)"/>
       </defs>
       <use xlink:href="#Helvetica-30"/>
       <use x="55.615234" xlink:href="#Helvetica-2e"/>
       <use x="83.398438" xlink:href="#Helvetica-37"/>
       <use x="139.013672" xlink:href="#Helvetica-35"/>
      </g>
     </g>
    </g>
    <g id="ytick_5">
     <g id="text_8">
      <!-- 1.0 -->
      <g style="fill:#262626;" transform="translate(60.14 35.973437)scale(0.2 -0.2)">
       <use xlink:href="#Helvetica-31"/>
       <use x="55.615234" xlink:href="#Helvetica-2e"/>
       <use x="83.398438" xlink:href="#Helvetica-30"/>
      </g>
     </g>
    </g>
    <g id="text_9">
     <!-- Probability -->
     <g style="fill:#262626;" transform="translate(39.65875 143.579375)rotate(-90)scale(0.25 -0.25)">
      <defs>
       <path d="M 428 3347 
L 963 3347 
L 963 2769 
Q 1028 2938 1284 3180 
Q 1541 3422 1875 3422 
Q 1891 3422 1928 3419 
Q 1966 3416 2056 3406 
L 2056 2813 
Q 2006 2822 1964 2825 
Q 1922 2828 1872 2828 
Q 1447 2828 1219 2554 
Q 991 2281 991 1925 
L 991 0 
L 428 0 
L 428 3347 
z
" id="Helvetica-72" transform="scale(0.015625)"/>
       <path d="M 369 4606 
L 916 4606 
L 916 2941 
Q 1100 3181 1356 3307 
Q 1613 3434 1913 3434 
Q 2538 3434 2927 3004 
Q 3316 2575 3316 1738 
Q 3316 944 2931 419 
Q 2547 -106 1866 -106 
Q 1484 -106 1222 78 
Q 1066 188 888 428 
L 888 0 
L 369 0 
L 369 4606 
z
M 1831 391 
Q 2288 391 2514 753 
Q 2741 1116 2741 1709 
Q 2741 2238 2514 2584 
Q 2288 2931 1847 2931 
Q 1463 2931 1173 2647 
Q 884 2363 884 1709 
Q 884 1238 1003 944 
Q 1225 391 1831 391 
z
" id="Helvetica-62" transform="scale(0.015625)"/>
       <path d="M 844 891 
Q 844 647 1022 506 
Q 1200 366 1444 366 
Q 1741 366 2019 503 
Q 2488 731 2488 1250 
L 2488 1703 
Q 2384 1638 2221 1594 
Q 2059 1550 1903 1531 
L 1563 1488 
Q 1256 1447 1103 1359 
Q 844 1213 844 891 
z
M 2206 2028 
Q 2400 2053 2466 2191 
Q 2503 2266 2503 2406 
Q 2503 2694 2298 2823 
Q 2094 2953 1713 2953 
Q 1272 2953 1088 2716 
Q 984 2584 953 2325 
L 428 2325 
Q 444 2944 830 3186 
Q 1216 3428 1725 3428 
Q 2316 3428 2684 3203 
Q 3050 2978 3050 2503 
L 3050 575 
Q 3050 488 3086 434 
Q 3122 381 3238 381 
Q 3275 381 3322 386 
Q 3369 391 3422 400 
L 3422 -16 
Q 3291 -53 3222 -62 
Q 3153 -72 3034 -72 
Q 2744 -72 2613 134 
Q 2544 244 2516 444 
Q 2344 219 2022 53 
Q 1700 -113 1313 -113 
Q 847 -113 551 170 
Q 256 453 256 878 
Q 256 1344 547 1600 
Q 838 1856 1309 1916 
L 2206 2028 
z
M 1741 3428 
L 1741 3428 
z
" id="Helvetica-61" transform="scale(0.015625)"/>
       <path d="M 428 4591 
L 991 4591 
L 991 0 
L 428 0 
L 428 4591 
z
" id="Helvetica-6c" transform="scale(0.015625)"/>
       <path d="M 2503 3347 
L 3125 3347 
Q 3006 3025 2597 1878 
Q 2291 1016 2084 472 
Q 1597 -809 1397 -1090 
Q 1197 -1372 709 -1372 
Q 591 -1372 527 -1362 
Q 463 -1353 369 -1328 
L 369 -816 
Q 516 -856 581 -865 
Q 647 -875 697 -875 
Q 853 -875 926 -823 
Q 1000 -772 1050 -697 
Q 1066 -672 1162 -440 
Q 1259 -209 1303 -97 
L 66 3347 
L 703 3347 
L 1600 622 
L 2503 3347 
z
M 1597 3428 
L 1597 3428 
z
" id="Helvetica-79" transform="scale(0.015625)"/>
      </defs>
      <use xlink:href="#Helvetica-50"/>
      <use x="66.699219" xlink:href="#Helvetica-72"/>
      <use x="100" xlink:href="#Helvetica-6f"/>
      <use x="155.615234" xlink:href="#Helvetica-62"/>
      <use x="211.230469" xlink:href="#Helvetica-61"/>
      <use x="266.845703" xlink:href="#Helvetica-62"/>
      <use x="322.460938" xlink:href="#Helvetica-69"/>
      <use x="344.677734" xlink:href="#Helvetica-6c"/>
      <use x="366.894531" xlink:href="#Helvetica-69"/>
      <use x="389.111328" xlink:href="#Helvetica-74"/>
      <use x="416.894531" xlink:href="#Helvetica-79"/>
     </g>
    </g>
   </g>
   <g id="patch_71">
    <path d="M 94.94 141.64 
L 94.94 28.8 
" style="fill:none;stroke:#000000;stroke-linecap:square;stroke-linejoin:miter;"/>
   </g>
  </g>
 </g>
 <defs>
  <clipPath id="p665c59720c">
   <rect height="112.84" width="189.46" x="94.94" y="28.8"/>
  </clipPath>
 </defs>
</svg>
