<?xml version="1.0" encoding="utf-8" standalone="no"?>
<!DOCTYPE svg PUBLIC "-//W3C//DTD SVG 1.1//EN"
  "http://www.w3.org/Graphics/SVG/1.1/DTD/svg11.dtd">
<svg height="216pt" version="1.1" viewBox="0 0 306 216" width="306pt" xmlns="http://www.w3.org/2000/svg" xmlns:xlink="http://www.w3.org/1999/xlink">
 <metadata>
  <rdf:RDF xmlns:cc="http://creativecommons.org/ns#" xmlns:dc="http://purl.org/dc/elements/1.1/" xmlns:rdf="http://www.w3.org/1999/02/22-rdf-syntax-ns#">
   <cc:Work>
    <dc:type rdf:resource="http://purl.org/dc/dcmitype/StillImage"/>
    <dc:date>2023-01-27T12:56:18.032640</dc:date>
    <dc:format>image/svg+xml</dc:format>
    <dc:creator>
     <cc:Agent>
      <dc:title>Matplotlib v3.4.2, https://matplotlib.org/</dc:title>
     </cc:Agent>
    </dc:creator>
   </cc:Work>
  </rdf:RDF>
 </metadata>
 <defs>
  <style type="text/css">*{stroke-linecap:butt;stroke-linejoin:round;}</style>
 </defs>
 <g id="figure_1">
  <g id="patch_1">
   <path d="M 0 216 
L 306 216 
L 306 0 
L 0 0 
z
" style="fill:#ffffff;"/>
  </g>
  <g id="axes_1">
   <g id="patch_2">
    <path d="M 94.94 141.64 
L 284.4 141.64 
L 284.4 28.8 
L 94.94 28.8 
z
" style="fill:#ffffff;"/>
   </g>
   <g id="line2d_1">
    <path clip-path="url(#p5f5e9c4478)" d="M 94.94 141.64 
L 284.4 141.64 
" style="fill:none;stroke:#000000;stroke-linecap:round;stroke-width:0.5;"/>
   </g>
   <g id="patch_3">
    <path clip-path="url(#p5f5e9c4478)" d="M 105.558702 139.366795 
L 105.558702 139.637639 
L 101.148734 139.637639 
L 101.148734 141.64 
L 99.349968 141.64 
L 99.349968 139.637639 
L 94.94 139.637639 
L 94.94 139.366795 
L 105.558702 139.366795 
z
" style="fill:#ff0000;"/>
   </g>
   <g id="patch_4">
    <path clip-path="url(#p5f5e9c4478)" d="M 100.416455 128.438439 
Q 102.054581 128.438439 103.249628 129.003972 
Q 104.981434 129.816077 105.368811 131.851995 
L 103.811705 131.851995 
Q 103.525603 130.714143 102.63185 130.193853 
Q 101.738096 129.673563 100.375945 129.673563 
Q 98.763138 129.673563 97.659238 130.757124 
Q 96.555339 131.838423 96.555339 133.980661 
Q 96.555339 135.831084 97.464284 136.99382 
Q 98.37576 138.156555 100.431646 138.156555 
Q 102.006475 138.156555 103.039482 137.342188 
Q 104.072489 136.525559 104.095276 134.700019 
L 100.456965 134.700019 
L 100.456965 133.535021 
L 105.558702 133.535021 
L 105.558702 139.090815 
L 104.54595 139.090815 
L 104.166168 137.753896 
Q 103.368626 138.538855 102.750848 138.844243 
Q 101.712777 139.366795 100.115161 139.366795 
Q 98.05168 139.366795 96.562935 138.17239 
Q 94.94 136.672597 94.94 134.057573 
Q 94.94 131.449336 96.522425 129.908825 
Q 98.026361 128.438439 100.416455 128.438439 
z
M 100.155671 128.422604 
L 100.155671 128.422604 
z
" style="fill:#ffa600;"/>
   </g>
   <g id="patch_5">
    <path clip-path="url(#p5f5e9c4478)" d="M 102.067515 110.073749 
L 100.261014 90.290932 
L 98.340473 110.073749 
L 102.067515 110.073749 
z
M 99.418672 83.638131 
L 101.240724 83.638131 
L 105.558702 128.422604 
L 103.791078 128.422604 
L 102.58588 115.009698 
L 97.879128 115.009698 
L 96.590992 128.422604 
L 94.94 128.422604 
L 99.418672 83.638131 
z
M 100.253239 83.638131 
L 100.253239 83.638131 
z
" style="fill:#008000;"/>
   </g>
   <g id="patch_6">
    <path clip-path="url(#p5f5e9c4478)" d="M 100.523163 28.8 
Q 102.797109 28.8 104.051431 34.017278 
Q 105.305752 39.223215 105.443962 45.846889 
L 103.863673 45.846889 
Q 103.595077 40.822424 102.791894 37.884869 
Q 101.988711 34.935973 100.53881 34.935973 
Q 98.770765 34.935973 97.683339 40.346064 
Q 96.595913 45.744812 96.595913 56.905251 
Q 96.595913 66.058172 97.576421 71.75181 
Q 98.559538 77.434107 100.507517 77.434107 
Q 102.299032 77.434107 103.237817 71.445578 
Q 103.733287 68.292528 103.978414 63.143301 
L 105.558702 63.143301 
Q 105.347475 71.366185 104.158348 76.935063 
Q 102.731916 83.638131 100.311937 83.638131 
Q 98.225748 83.638131 96.807139 78.137305 
Q 94.94 70.878483 94.94 55.703009 
Q 94.94 44.190971 96.342962 36.81873 
Q 97.858057 28.8 100.523163 28.8 
z
M 100.197196 28.8 
L 100.197196 28.8 
z
" style="fill:#0000ff;"/>
   </g>
   <g id="patch_7">
    <path clip-path="url(#p5f5e9c4478)" d="M 111.700744 139.437101 
Q 113.97469 139.437101 115.229012 139.646684 
Q 116.483333 139.855811 116.621543 140.12189 
L 115.041255 140.12189 
Q 114.772658 139.920053 113.969475 139.802048 
Q 113.166292 139.683589 111.716391 139.683589 
Q 109.948346 139.683589 108.86092 139.900917 
Q 107.773494 140.11779 107.773494 140.566115 
Q 107.773494 140.933797 108.754002 141.162515 
Q 109.737119 141.390779 111.685098 141.390779 
Q 113.476613 141.390779 114.415398 141.150214 
Q 114.910868 141.023553 115.155995 140.816703 
L 116.736283 140.816703 
Q 116.525057 141.147024 115.335929 141.370731 
Q 113.909497 141.64 111.489518 141.64 
Q 109.403329 141.64 107.98472 141.419027 
Q 106.117581 141.127433 106.117581 140.51782 
Q 106.117581 140.05537 107.520543 139.759221 
Q 109.035638 139.437101 111.700744 139.437101 
z
M 111.374777 139.437101 
L 111.374777 139.437101 
z
" style="fill:#0000ff;"/>
   </g>
   <g id="patch_8">
    <path clip-path="url(#p5f5e9c4478)" d="M 111.594036 120.248124 
Q 113.232162 120.248124 114.427209 121.241137 
Q 116.159015 122.667103 116.546392 126.241949 
L 114.989286 126.241949 
Q 114.703184 124.244007 113.809431 123.330435 
Q 112.915677 122.416864 111.553526 122.416864 
Q 109.940719 122.416864 108.83682 124.319476 
Q 107.73292 126.218116 107.73292 129.979648 
Q 107.73292 133.228786 108.641865 135.27042 
Q 109.553341 137.312054 111.609227 137.312054 
Q 113.184056 137.312054 114.217063 135.882115 
Q 115.25007 134.448205 115.272857 131.24276 
L 111.634546 131.24276 
L 111.634546 129.197154 
L 116.736283 129.197154 
L 116.736283 138.952511 
L 115.723531 138.952511 
L 115.34375 136.605029 
Q 114.546208 137.98333 113.928429 138.519557 
Q 112.890358 139.437101 111.292743 139.437101 
Q 109.229261 139.437101 107.740516 137.339858 
Q 106.117581 134.706388 106.117581 130.114698 
Q 106.117581 125.534924 107.700006 122.829957 
Q 109.203942 120.248124 111.594036 120.248124 
z
M 111.333253 120.22032 
L 111.333253 120.22032 
z
" style="fill:#ffa600;"/>
   </g>
   <g id="patch_9">
    <path clip-path="url(#p5f5e9c4478)" d="M 116.736283 83.310039 
L 116.736283 87.707757 
L 112.326315 87.707757 
L 112.326315 120.22032 
L 110.527549 120.22032 
L 110.527549 87.707757 
L 106.117581 87.707757 
L 106.117581 83.310039 
L 116.736283 83.310039 
z
" style="fill:#ff0000;"/>
   </g>
   <g id="patch_10">
    <path clip-path="url(#p5f5e9c4478)" d="M 113.245097 60.976477 
L 111.438595 36.897549 
L 109.518054 60.976477 
L 113.245097 60.976477 
z
M 110.596253 28.8 
L 112.418305 28.8 
L 116.736283 83.310039 
L 114.968659 83.310039 
L 113.763461 66.984336 
L 109.056709 66.984336 
L 107.768573 83.310039 
L 106.117581 83.310039 
L 110.596253 28.8 
z
M 111.43082 28.8 
L 111.43082 28.8 
z
" style="fill:#008000;"/>
   </g>
   <g id="patch_11">
    <path clip-path="url(#p5f5e9c4478)" d="M 122.878326 137.163896 
Q 125.152272 137.163896 126.406593 137.589751 
Q 127.660914 138.01468 127.799124 138.55533 
L 126.218836 138.55533 
Q 125.950239 138.145214 125.147056 137.905439 
Q 124.343873 137.664738 122.893972 137.664738 
Q 121.125927 137.664738 120.038501 138.106331 
Q 118.951075 138.546998 118.951075 139.457957 
Q 118.951075 140.205055 119.931584 140.669792 
Q 120.9147 141.133603 122.862679 141.133603 
Q 124.654194 141.133603 125.592979 140.644796 
Q 126.088449 140.387432 126.333576 139.967131 
L 127.913864 139.967131 
Q 127.702638 140.638316 126.51351 141.092869 
Q 125.087078 141.64 122.667099 141.64 
Q 120.58091 141.64 119.162301 141.191001 
Q 117.295162 140.598507 117.295162 139.359825 
Q 117.295162 138.420168 118.698124 137.818416 
Q 120.213219 137.163896 122.878326 137.163896 
z
M 122.552359 137.163896 
L 122.552359 137.163896 
z
" style="fill:#0000ff;"/>
   </g>
   <g id="patch_12">
    <path clip-path="url(#p5f5e9c4478)" d="M 122.771617 121.017074 
Q 124.409743 121.017074 125.60479 121.852658 
Q 127.336596 123.052557 127.723973 126.060658 
L 126.166868 126.060658 
Q 125.880765 124.379464 124.987012 123.610727 
Q 124.093258 122.841989 122.731107 122.841989 
Q 121.1183 122.841989 120.014401 124.442968 
Q 118.910501 126.040604 118.910501 129.205796 
Q 118.910501 131.939826 119.819446 133.657786 
Q 120.730923 135.375747 122.786809 135.375747 
Q 124.361638 135.375747 125.394644 134.172506 
Q 126.427651 132.965923 126.450438 130.268658 
L 122.812127 130.268658 
L 122.812127 128.547356 
L 127.913864 128.547356 
L 127.913864 136.756131 
L 126.901113 136.756131 
L 126.521331 134.780811 
Q 125.723789 135.940601 125.10601 136.391817 
Q 124.06794 137.163896 122.470324 137.163896 
Q 120.406842 137.163896 118.918097 135.399143 
Q 117.295162 133.183175 117.295162 129.319435 
Q 117.295162 125.465723 118.877587 123.189592 
Q 120.381523 121.017074 122.771617 121.017074 
z
M 122.510834 120.993678 
L 122.510834 120.993678 
z
" style="fill:#ffa600;"/>
   </g>
   <g id="patch_13">
    <path clip-path="url(#p5f5e9c4478)" d="M 127.913864 92.473163 
L 127.913864 95.871273 
L 123.503896 95.871273 
L 123.503896 120.993678 
L 121.705131 120.993678 
L 121.705131 95.871273 
L 117.295162 95.871273 
L 117.295162 92.473163 
L 127.913864 92.473163 
z
" style="fill:#ff0000;"/>
   </g>
   <g id="patch_14">
    <path clip-path="url(#p5f5e9c4478)" d="M 124.422678 66.385335 
L 122.616176 38.258745 
L 120.695635 66.385335 
L 124.422678 66.385335 
z
M 121.773834 28.8 
L 123.595886 28.8 
L 127.913864 92.473163 
L 126.14624 92.473163 
L 124.941042 73.403113 
L 120.23429 73.403113 
L 118.946154 92.473163 
L 117.295162 92.473163 
L 121.773834 28.8 
z
M 122.608401 28.8 
L 122.608401 28.8 
z
" style="fill:#008000;"/>
   </g>
   <g id="patch_15">
    <path clip-path="url(#p5f5e9c4478)" d="M 134.055907 139.319925 
Q 136.329853 139.319925 137.584174 139.540656 
Q 138.838495 139.760907 138.976705 140.04114 
L 137.396417 140.04114 
Q 137.12782 139.828566 136.324637 139.704285 
Q 135.521454 139.579524 134.071553 139.579524 
Q 132.303508 139.579524 131.216082 139.808413 
Q 130.128656 140.036821 130.128656 140.508994 
Q 130.128656 140.896232 131.109165 141.137117 
Q 132.092281 141.377522 134.04026 141.377522 
Q 135.831775 141.377522 136.77056 141.124161 
Q 137.26603 140.990763 137.511157 140.772911 
L 139.091445 140.772911 
Q 138.880219 141.120802 137.691091 141.356409 
Q 136.264659 141.64 133.84468 141.64 
Q 131.758491 141.64 130.339883 141.407273 
Q 128.472743 141.100169 128.472743 140.458129 
Q 128.472743 139.971082 129.875705 139.659179 
Q 131.3908 139.319925 134.055907 139.319925 
z
M 133.72994 139.319925 
L 133.72994 139.319925 
z
" style="fill:#0000ff;"/>
   </g>
   <g id="patch_16">
    <path clip-path="url(#p5f5e9c4478)" d="M 139.091445 136.99985 
L 139.091445 137.276278 
L 134.681477 137.276278 
L 134.681477 139.319925 
L 132.882712 139.319925 
L 132.882712 137.276278 
L 128.472743 137.276278 
L 128.472743 136.99985 
L 139.091445 136.99985 
z
" style="fill:#ff0000;"/>
   </g>
   <g id="patch_17">
    <path clip-path="url(#p5f5e9c4478)" d="M 133.949198 114.815521 
Q 135.587324 114.815521 136.782371 115.963541 
Q 138.514177 117.612097 138.901554 121.744967 
L 137.344449 121.744967 
Q 137.058346 119.435152 136.164593 118.378974 
Q 135.270839 117.322796 133.908688 117.322796 
Q 132.295881 117.322796 131.191982 119.522401 
Q 130.088082 121.717415 130.088082 126.066113 
Q 130.088082 129.822433 130.997027 132.182761 
Q 131.908504 134.543089 133.96439 134.543089 
Q 135.539219 134.543089 136.572225 132.889941 
Q 137.605232 131.2322 137.628019 127.526393 
L 133.989709 127.526393 
L 133.989709 125.161473 
L 139.091445 125.161473 
L 139.091445 136.439617 
L 138.078694 136.439617 
L 137.698912 133.725699 
Q 136.90137 135.31915 136.283591 135.93908 
Q 135.245521 136.99985 133.647905 136.99985 
Q 131.584423 136.99985 130.095678 134.575233 
Q 128.472743 131.530686 128.472743 126.222243 
Q 128.472743 120.927577 130.055168 117.800372 
Q 131.559104 114.815521 133.949198 114.815521 
z
M 133.688415 114.783377 
L 133.688415 114.783377 
z
" style="fill:#ffa600;"/>
   </g>
   <g id="patch_18">
    <path clip-path="url(#p5f5e9c4478)" d="M 135.600259 79.554727 
L 133.793758 41.572961 
L 131.873216 79.554727 
L 135.600259 79.554727 
z
M 132.951415 28.8 
L 134.773467 28.8 
L 139.091445 114.783377 
L 137.323822 114.783377 
L 136.118624 89.03144 
L 131.411872 89.03144 
L 130.123735 114.783377 
L 128.472743 114.783377 
L 132.951415 28.8 
z
M 133.785982 28.8 
L 133.785982 28.8 
z
" style="fill:#008000;"/>
   </g>
   <g id="patch_19">
    <path clip-path="url(#p5f5e9c4478)" d="M 146.77784 140.670228 
L 144.971339 139.624668 
L 143.050797 140.670228 
L 146.77784 140.670228 
z
M 144.128996 139.273055 
L 145.951048 139.273055 
L 150.269027 141.64 
L 148.501403 141.64 
L 147.296205 140.931102 
L 142.589453 140.931102 
L 141.301316 141.64 
L 139.650324 141.64 
L 144.128996 139.273055 
z
M 144.963563 139.273055 
L 144.963563 139.273055 
z
" style="fill:#008000;"/>
   </g>
   <g id="patch_20">
    <path clip-path="url(#p5f5e9c4478)" d="M 145.233488 136.90611 
Q 147.507434 136.90611 148.761755 137.1313 
Q 150.016076 137.356001 150.154286 137.641895 
L 148.573998 137.641895 
Q 148.305401 137.425027 147.502218 137.298235 
Q 146.699036 137.170953 145.249134 137.170953 
Q 143.481089 137.170953 142.393663 137.404466 
Q 141.306237 137.637489 141.306237 138.1192 
Q 141.306237 138.514262 142.286746 138.760013 
Q 143.269862 139.005274 145.217841 139.005274 
Q 147.009356 139.005274 147.948141 138.746795 
Q 148.443611 138.610702 148.688738 138.388449 
L 150.269027 138.388449 
Q 150.0578 138.743368 148.868672 138.983735 
Q 147.44224 139.273055 145.022261 139.273055 
Q 142.936072 139.273055 141.517464 139.035626 
Q 139.650324 138.722318 139.650324 138.067308 
Q 139.650324 137.570421 141.053287 137.252218 
Q 142.568381 136.90611 145.233488 136.90611 
z
M 144.907521 136.90611 
L 144.907521 136.90611 
z
" style="fill:#0000ff;"/>
   </g>
   <g id="patch_21">
    <path clip-path="url(#p5f5e9c4478)" d="M 150.269027 134.539165 
L 150.269027 134.821178 
L 145.859058 134.821178 
L 145.859058 136.90611 
L 144.060293 136.90611 
L 144.060293 134.821178 
L 139.650324 134.821178 
L 139.650324 134.539165 
L 150.269027 134.539165 
z
" style="fill:#ff0000;"/>
   </g>
   <g id="patch_22">
    <path clip-path="url(#p5f5e9c4478)" d="M 145.12678 28.952992 
Q 146.764906 28.952992 147.959953 34.416983 
Q 149.691758 42.263275 150.079136 61.933645 
L 148.52203 61.933645 
Q 148.235927 50.940094 147.342174 45.913222 
Q 146.448421 40.886349 145.086269 40.886349 
Q 143.473462 40.886349 142.369563 51.355357 
Q 141.265664 61.802509 141.265664 82.500109 
Q 141.265664 100.37829 142.174608 111.612256 
Q 143.086085 122.846223 145.141971 122.846223 
Q 146.7168 122.846223 147.749807 114.978075 
Q 148.782813 107.088071 148.8056 89.450307 
L 145.16729 89.450307 
L 145.16729 78.194484 
L 150.269027 78.194484 
L 150.269027 131.872737 
L 149.256275 131.872737 
L 148.876493 118.955861 
Q 148.078951 126.539881 147.461172 129.490437 
Q 146.423102 134.539165 144.825486 134.539165 
Q 142.762004 134.539165 141.273259 122.999215 
Q 139.650324 108.508709 139.650324 83.243212 
Q 139.650324 58.043283 141.232749 43.15937 
Q 142.736685 28.952992 145.12678 28.952992 
z
M 144.865996 28.8 
L 144.865996 28.8 
z
" style="fill:#ffa600;"/>
   </g>
   <g id="patch_23">
    <path clip-path="url(#p5f5e9c4478)" d="M 156.304361 127.458878 
Q 157.942487 127.458878 159.137534 128.192739 
Q 160.869339 129.246563 161.256717 131.888461 
L 159.699611 131.888461 
Q 159.413509 130.411933 158.519755 129.736782 
Q 157.626002 129.06163 156.263851 129.06163 
Q 154.651043 129.06163 153.547144 130.467707 
Q 152.443245 131.870848 152.443245 134.650712 
Q 152.443245 137.051904 153.352189 138.560721 
Q 154.263666 140.069538 156.319552 140.069538 
Q 157.894381 140.069538 158.927388 139.012779 
Q 159.960394 137.953084 159.983181 135.584183 
L 156.344871 135.584183 
L 156.344871 134.07243 
L 161.446608 134.07243 
L 161.446608 141.281876 
L 160.433856 141.281876 
L 160.054074 139.54703 
Q 159.256532 140.565628 158.638753 140.961913 
Q 157.600683 141.64 156.003067 141.64 
Q 153.939585 141.64 152.45084 140.090086 
Q 150.827906 138.143888 150.827906 134.750517 
Q 150.827906 131.365952 152.41033 129.366916 
Q 153.914267 127.458878 156.304361 127.458878 
z
M 156.043577 127.43833 
L 156.043577 127.43833 
z
" style="fill:#ffa600;"/>
   </g>
   <g id="patch_24">
    <path clip-path="url(#p5f5e9c4478)" d="M 161.446608 106.698268 
L 161.446608 109.169367 
L 157.036639 109.169367 
L 157.036639 127.43833 
L 155.237874 127.43833 
L 155.237874 109.169367 
L 150.827906 109.169367 
L 150.827906 106.698268 
L 161.446608 106.698268 
z
" style="fill:#ff0000;"/>
   </g>
   <g id="patch_25">
    <path clip-path="url(#p5f5e9c4478)" d="M 157.955421 92.554959 
L 156.14892 77.306351 
L 154.228378 92.554959 
L 157.955421 92.554959 
z
M 155.306577 72.178368 
L 157.128629 72.178368 
L 161.446608 106.698268 
L 159.678984 106.698268 
L 158.473786 96.359592 
L 153.767034 96.359592 
L 152.478897 106.698268 
L 150.827906 106.698268 
L 155.306577 72.178368 
z
M 156.141144 72.178368 
L 156.141144 72.178368 
z
" style="fill:#008000;"/>
   </g>
   <g id="patch_26">
    <path clip-path="url(#p5f5e9c4478)" d="M 156.411069 28.8 
Q 158.685015 28.8 159.939336 32.927001 
Q 161.193657 37.04503 161.331867 42.284527 
L 159.751579 42.284527 
Q 159.482982 38.310045 158.679799 35.986365 
Q 157.876617 33.653712 156.426715 33.653712 
Q 154.65867 33.653712 153.571244 37.933232 
Q 152.483818 42.203781 152.483818 51.031974 
Q 152.483818 58.272169 153.464327 62.775983 
Q 154.447444 67.270825 156.395423 67.270825 
Q 158.186937 67.270825 159.125722 62.533746 
Q 159.621192 60.039602 159.866319 55.966432 
L 161.446608 55.966432 
Q 161.235381 62.470944 160.046253 66.876069 
Q 158.619822 72.178368 156.199842 72.178368 
Q 154.113653 72.178368 152.695045 67.827073 
Q 150.827906 62.085159 150.827906 50.08097 
Q 150.827906 40.974652 152.230868 35.143021 
Q 153.745962 28.8 156.411069 28.8 
z
M 156.085102 28.8 
L 156.085102 28.8 
z
" style="fill:#0000ff;"/>
   </g>
   <g id="patch_27">
    <path clip-path="url(#p5f5e9c4478)" d="M 167.58865 139.273055 
Q 169.862596 139.273055 171.116917 139.498245 
Q 172.371238 139.722946 172.509448 140.00884 
L 170.92916 140.00884 
Q 170.660563 139.791972 169.857381 139.66518 
Q 169.054198 139.537898 167.604296 139.537898 
Q 165.836251 139.537898 164.748825 139.771411 
Q 163.661399 140.004434 163.661399 140.486145 
Q 163.661399 140.881207 164.641908 141.126958 
Q 165.625025 141.372219 167.573004 141.372219 
Q 169.364518 141.372219 170.303304 141.11374 
Q 170.798773 140.977647 171.043901 140.755394 
L 172.624189 140.755394 
Q 172.412962 141.110313 171.223834 141.35068 
Q 169.797403 141.64 167.377423 141.64 
Q 165.291234 141.64 163.872626 141.402571 
Q 162.005487 141.089263 162.005487 140.434253 
Q 162.005487 139.937366 163.408449 139.619163 
Q 164.923544 139.273055 167.58865 139.273055 
z
M 167.262683 139.273055 
L 167.262683 139.273055 
z
" style="fill:#0000ff;"/>
   </g>
   <g id="patch_28">
    <path clip-path="url(#p5f5e9c4478)" d="M 172.624189 136.90611 
L 172.624189 137.188122 
L 168.21422 137.188122 
L 168.21422 139.273055 
L 166.415455 139.273055 
L 166.415455 137.188122 
L 162.005487 137.188122 
L 162.005487 136.90611 
L 172.624189 136.90611 
z
" style="fill:#ff0000;"/>
   </g>
   <g id="patch_29">
    <path clip-path="url(#p5f5e9c4478)" d="M 169.133002 135.014574 
L 167.326501 132.975216 
L 165.40596 135.014574 
L 169.133002 135.014574 
z
M 166.484158 132.289396 
L 168.30621 132.289396 
L 172.624189 136.90611 
L 170.856565 136.90611 
L 169.651367 135.523409 
L 164.944615 135.523409 
L 163.656478 136.90611 
L 162.005487 136.90611 
L 166.484158 132.289396 
z
M 167.318725 132.289396 
L 167.318725 132.289396 
z
" style="fill:#008000;"/>
   </g>
   <g id="patch_30">
    <path clip-path="url(#p5f5e9c4478)" d="M 167.481942 28.949737 
Q 169.120068 28.949737 170.315115 34.297473 
Q 172.04692 41.976823 172.434298 61.228674 
L 170.877192 61.228674 
Q 170.59109 50.469028 169.697336 45.549111 
Q 168.803583 40.629193 167.441432 40.629193 
Q 165.828625 40.629193 164.724725 50.875456 
Q 163.620826 61.100328 163.620826 81.357554 
Q 163.620826 98.855347 164.52977 109.850294 
Q 165.441247 120.84524 167.497133 120.84524 
Q 169.071962 120.84524 170.104969 113.144499 
Q 171.137976 105.422368 171.160763 88.159875 
L 167.522452 88.159875 
L 167.522452 77.143537 
L 172.624189 77.143537 
L 172.624189 129.6797 
L 171.611437 129.6797 
L 171.231655 117.037651 
Q 170.434113 124.460309 169.816335 127.348087 
Q 168.778264 132.289396 167.180648 132.289396 
Q 165.117166 132.289396 163.628421 120.994976 
Q 162.005487 106.812779 162.005487 82.084846 
Q 162.005487 57.421085 163.587911 42.853851 
Q 165.091848 28.949737 167.481942 28.949737 
z
M 167.221158 28.8 
L 167.221158 28.8 
z
" style="fill:#ffa600;"/>
   </g>
   <g id="patch_31">
    <path clip-path="url(#p5f5e9c4478)" d="M 178.766231 139.34336 
Q 181.040177 139.34336 182.294498 139.561862 
Q 183.548819 139.779888 183.68703 140.05729 
L 182.106741 140.05729 
Q 181.838145 139.846864 181.034962 139.723838 
Q 180.231779 139.600337 178.781878 139.600337 
Q 177.013832 139.600337 175.926406 139.826913 
Q 174.83898 140.053015 174.83898 140.520418 
Q 174.83898 140.903745 175.819489 141.142197 
Q 176.802606 141.380173 178.750585 141.380173 
Q 180.5421 141.380173 181.480885 141.129372 
Q 181.976355 140.997321 182.221482 140.78167 
L 183.80177 140.78167 
Q 183.590543 141.126047 182.401416 141.359273 
Q 180.974984 141.64 178.555005 141.64 
Q 176.468816 141.64 175.050207 141.409624 
Q 173.183068 141.105622 173.183068 140.470068 
Q 173.183068 139.987939 174.58603 139.679187 
Q 176.101125 139.34336 178.766231 139.34336 
z
M 178.440264 139.34336 
L 178.440264 139.34336 
z
" style="fill:#0000ff;"/>
   </g>
   <g id="patch_32">
    <path clip-path="url(#p5f5e9c4478)" d="M 183.80177 127.789857 
L 183.80177 129.166412 
L 179.391802 129.166412 
L 179.391802 139.34336 
L 177.593036 139.34336 
L 177.593036 129.166412 
L 173.183068 129.166412 
L 173.183068 127.789857 
L 183.80177 127.789857 
z
" style="fill:#ff0000;"/>
   </g>
   <g id="patch_33">
    <path clip-path="url(#p5f5e9c4478)" d="M 178.659523 100.527469 
Q 180.297649 100.527469 181.492696 101.938274 
Q 183.224501 103.964189 183.611879 109.043086 
L 182.054773 109.043086 
Q 181.768671 106.204547 180.874917 104.906607 
Q 179.981164 103.608666 178.619013 103.608666 
Q 177.006206 103.608666 175.902306 106.311768 
Q 174.798407 109.009226 174.798407 114.353354 
Q 174.798407 118.969507 175.707352 121.870121 
Q 176.618828 124.770735 178.674714 124.770735 
Q 180.249543 124.770735 181.28255 122.739176 
Q 182.315557 120.701975 182.338344 116.147897 
L 178.700033 116.147897 
L 178.700033 113.24164 
L 183.80177 113.24164 
L 183.80177 127.101384 
L 182.789018 127.101384 
L 182.409236 123.766242 
Q 181.611694 125.724439 180.993916 126.486273 
Q 179.955845 127.789857 178.358229 127.789857 
Q 176.294748 127.789857 174.806003 124.810237 
Q 173.183068 121.068784 173.183068 114.545223 
Q 173.183068 108.038593 174.765492 104.195561 
Q 176.269429 100.527469 178.659523 100.527469 
z
M 178.398739 100.487967 
L 178.398739 100.487967 
z
" style="fill:#ffa600;"/>
   </g>
   <g id="patch_34">
    <path clip-path="url(#p5f5e9c4478)" d="M 180.310583 71.116356 
L 178.504082 39.449356 
L 176.583541 71.116356 
L 180.310583 71.116356 
z
M 177.661739 28.8 
L 179.483791 28.8 
L 183.80177 100.487967 
L 182.034146 100.487967 
L 180.828948 79.017491 
L 176.122196 79.017491 
L 174.83406 100.487967 
L 173.183068 100.487967 
L 177.661739 28.8 
z
M 178.496307 28.8 
L 178.496307 28.8 
z
" style="fill:#008000;"/>
   </g>
   <g id="patch_35">
    <path clip-path="url(#p5f5e9c4478)" d="M 189.943812 139.273055 
Q 192.217758 139.273055 193.472079 139.498245 
Q 194.726401 139.722946 194.864611 140.00884 
L 193.284322 140.00884 
Q 193.015726 139.791972 192.212543 139.66518 
Q 191.40936 139.537898 189.959459 139.537898 
Q 188.191414 139.537898 187.103988 139.771411 
Q 186.016561 140.004434 186.016561 140.486145 
Q 186.016561 140.881207 186.99707 141.126958 
Q 187.980187 141.372219 189.928166 141.372219 
Q 191.719681 141.372219 192.658466 141.11374 
Q 193.153936 140.977647 193.399063 140.755394 
L 194.979351 140.755394 
Q 194.768124 141.110313 193.578997 141.35068 
Q 192.152565 141.64 189.732586 141.64 
Q 187.646397 141.64 186.227788 141.402571 
Q 184.360649 141.089263 184.360649 140.434253 
Q 184.360649 139.937366 185.763611 139.619163 
Q 187.278706 139.273055 189.943812 139.273055 
z
M 189.617845 139.273055 
L 189.617845 139.273055 
z
" style="fill:#0000ff;"/>
   </g>
   <g id="patch_36">
    <path clip-path="url(#p5f5e9c4478)" d="M 194.979351 136.90611 
L 194.979351 137.188122 
L 190.569383 137.188122 
L 190.569383 139.273055 
L 188.770617 139.273055 
L 188.770617 137.188122 
L 184.360649 137.188122 
L 184.360649 136.90611 
L 194.979351 136.90611 
z
" style="fill:#ff0000;"/>
   </g>
   <g id="patch_37">
    <path clip-path="url(#p5f5e9c4478)" d="M 191.488164 135.475456 
L 189.681663 133.932997 
L 187.761122 135.475456 
L 191.488164 135.475456 
z
M 188.83932 133.41428 
L 190.661373 133.41428 
L 194.979351 136.90611 
L 193.211727 136.90611 
L 192.006529 135.860311 
L 187.299777 135.860311 
L 186.011641 136.90611 
L 184.360649 136.90611 
L 188.83932 133.41428 
z
M 189.673888 133.41428 
L 189.673888 133.41428 
z
" style="fill:#008000;"/>
   </g>
   <g id="patch_38">
    <path clip-path="url(#p5f5e9c4478)" d="M 189.837104 28.951364 
Q 191.47523 28.951364 192.670277 34.357228 
Q 194.402083 42.120049 194.78946 61.581159 
L 193.232354 61.581159 
Q 192.946252 50.704561 192.052498 45.731166 
Q 191.158745 40.757771 189.796594 40.757771 
Q 188.183787 40.757771 187.079887 51.115407 
Q 185.975988 61.451419 185.975988 81.928832 
Q 185.975988 99.616819 186.884933 110.731275 
Q 187.796409 121.845731 189.852295 121.845731 
Q 191.427124 121.845731 192.460131 114.061287 
Q 193.493138 106.25522 193.515925 88.805091 
L 189.877614 88.805091 
L 189.877614 77.669011 
L 194.979351 77.669011 
L 194.979351 130.776219 
L 193.966599 130.776219 
L 193.586817 117.996756 
Q 192.789275 125.500095 192.171497 128.419262 
Q 191.133426 133.41428 189.53581 133.41428 
Q 187.472329 133.41428 185.983584 121.997096 
Q 184.360649 107.660744 184.360649 82.664029 
Q 184.360649 57.732184 185.943074 43.006611 
Q 187.44701 28.951364 189.837104 28.951364 
z
M 189.57632 28.8 
L 189.57632 28.8 
z
" style="fill:#ffa600;"/>
   </g>
   <g id="patch_39">
    <path clip-path="url(#p5f5e9c4478)" d="M 202.665746 140.670228 
L 200.859244 139.624668 
L 198.938703 140.670228 
L 202.665746 140.670228 
z
M 200.016902 139.273055 
L 201.838954 139.273055 
L 206.156932 141.64 
L 204.389308 141.64 
L 203.18411 140.931102 
L 198.477358 140.931102 
L 197.189222 141.64 
L 195.53823 141.64 
L 200.016902 139.273055 
z
M 200.851469 139.273055 
L 200.851469 139.273055 
z
" style="fill:#008000;"/>
   </g>
   <g id="patch_40">
    <path clip-path="url(#p5f5e9c4478)" d="M 206.156932 136.90611 
L 206.156932 137.188122 
L 201.746964 137.188122 
L 201.746964 139.273055 
L 199.948198 139.273055 
L 199.948198 137.188122 
L 195.53823 137.188122 
L 195.53823 136.90611 
L 206.156932 136.90611 
z
" style="fill:#ff0000;"/>
   </g>
   <g id="patch_41">
    <path clip-path="url(#p5f5e9c4478)" d="M 201.121393 133.41428 
Q 203.395339 133.41428 204.649661 133.746492 
Q 205.903982 134.077981 206.042192 134.499745 
L 204.461904 134.499745 
Q 204.193307 134.179811 203.390124 133.992761 
Q 202.586941 133.80499 201.13704 133.80499 
Q 199.368995 133.80499 198.281569 134.149478 
Q 197.194143 134.493245 197.194143 135.203888 
Q 197.194143 135.786702 198.174651 136.149246 
Q 199.157768 136.511067 201.105747 136.511067 
Q 202.897262 136.511067 203.836047 136.129747 
Q 204.331517 135.928976 204.576644 135.601097 
L 206.156932 135.601097 
Q 205.945706 136.124691 204.756578 136.479291 
Q 203.330146 136.90611 200.910167 136.90611 
Q 198.823978 136.90611 197.405369 136.555844 
Q 195.53823 136.093637 195.53823 135.127335 
Q 195.53823 134.394304 196.941192 133.924875 
Q 198.456287 133.41428 201.121393 133.41428 
z
M 200.795426 133.41428 
L 200.795426 133.41428 
z
" style="fill:#0000ff;"/>
   </g>
   <g id="patch_42">
    <path clip-path="url(#p5f5e9c4478)" d="M 201.014685 28.951364 
Q 202.652811 28.951364 203.847858 34.357228 
Q 205.579664 42.120049 205.967041 61.581159 
L 204.409935 61.581159 
Q 204.123833 50.704561 203.23008 45.731166 
Q 202.336326 40.757771 200.974175 40.757771 
Q 199.361368 40.757771 198.257469 51.115407 
Q 197.153569 61.451419 197.153569 81.928832 
Q 197.153569 99.616819 198.062514 110.731275 
Q 198.97399 121.845731 201.029876 121.845731 
Q 202.604705 121.845731 203.637712 114.061287 
Q 204.670719 106.25522 204.693506 88.805091 
L 201.055195 88.805091 
L 201.055195 77.669011 
L 206.156932 77.669011 
L 206.156932 130.776219 
L 205.14418 130.776219 
L 204.764399 117.996756 
Q 203.966857 125.500095 203.349078 128.419262 
Q 202.311007 133.41428 200.713392 133.41428 
Q 198.64991 133.41428 197.161165 121.997096 
Q 195.53823 107.660744 195.53823 82.664029 
Q 195.53823 57.732184 197.120655 43.006611 
Q 198.624591 28.951364 201.014685 28.951364 
z
M 200.753902 28.8 
L 200.753902 28.8 
z
" style="fill:#ffa600;"/>
   </g>
   <g id="patch_43">
    <path clip-path="url(#p5f5e9c4478)" d="M 217.334513 139.29649 
L 217.334513 139.57571 
L 212.924545 139.57571 
L 212.924545 141.64 
L 211.12578 141.64 
L 211.12578 139.57571 
L 206.715811 139.57571 
L 206.715811 139.29649 
L 217.334513 139.29649 
z
" style="fill:#ff0000;"/>
   </g>
   <g id="patch_44">
    <path clip-path="url(#p5f5e9c4478)" d="M 212.298975 134.703211 
Q 214.572921 134.703211 215.827242 135.140214 
Q 217.081563 135.576266 217.219773 136.13107 
L 215.639485 136.13107 
Q 215.370888 135.710217 214.567705 135.464166 
Q 213.764522 135.217164 212.314621 135.217164 
Q 210.546576 135.217164 209.45915 135.670317 
Q 208.371724 136.12252 208.371724 137.057326 
Q 208.371724 137.823981 209.352233 138.300884 
Q 210.335349 138.776837 212.283328 138.776837 
Q 214.074843 138.776837 215.013628 138.275234 
Q 215.509098 138.011132 215.754225 137.579829 
L 217.334513 137.579829 
Q 217.123287 138.268584 215.934159 138.735037 
Q 214.507727 139.29649 212.087748 139.29649 
Q 210.001559 139.29649 208.58295 138.835737 
Q 206.715811 138.227733 206.715811 136.956625 
Q 206.715811 135.992369 208.118773 135.374865 
Q 209.633868 134.703211 212.298975 134.703211 
z
M 211.973008 134.703211 
L 211.973008 134.703211 
z
" style="fill:#0000ff;"/>
   </g>
   <g id="patch_45">
    <path clip-path="url(#p5f5e9c4478)" d="M 212.192266 104.679483 
Q 213.830392 104.679483 215.025439 106.233184 
Q 216.757245 108.4643 217.144622 114.057625 
L 215.587517 114.057625 
Q 215.301414 110.931578 214.407661 109.502172 
Q 213.513907 108.072767 212.151756 108.072767 
Q 210.538949 108.072767 209.43505 111.049659 
Q 208.33115 114.020336 208.33115 119.905758 
Q 208.33115 124.989469 209.240095 128.183879 
Q 210.151572 131.37829 212.207458 131.37829 
Q 213.782287 131.37829 214.815293 129.140959 
Q 215.8483 126.897414 215.871087 121.882066 
L 212.232776 121.882066 
L 212.232776 118.681441 
L 217.334513 118.681441 
L 217.334513 133.945004 
L 216.321762 133.945004 
L 215.94198 130.272054 
Q 215.144438 132.428592 214.526659 133.267591 
Q 213.488589 134.703211 211.890973 134.703211 
Q 209.827491 134.703211 208.338746 131.421793 
Q 206.715811 127.301377 206.715811 120.117061 
Q 206.715811 112.95139 208.298236 108.719107 
Q 209.802172 104.679483 212.192266 104.679483 
z
M 211.931483 104.635979 
L 211.931483 104.635979 
z
" style="fill:#ffa600;"/>
   </g>
   <g id="patch_46">
    <path clip-path="url(#p5f5e9c4478)" d="M 213.843327 73.564867 
L 212.036825 40.06555 
L 210.116284 73.564867 
L 213.843327 73.564867 
z
M 211.194483 28.8 
L 213.016535 28.8 
L 217.334513 104.635979 
L 215.566889 104.635979 
L 214.361691 81.923178 
L 209.654939 81.923178 
L 208.366803 104.635979 
L 206.715811 104.635979 
L 211.194483 28.8 
z
M 212.02905 28.8 
L 212.02905 28.8 
z
" style="fill:#008000;"/>
   </g>
   <g id="patch_47">
    <path clip-path="url(#p5f5e9c4478)" d="M 223.476556 139.273055 
Q 225.750502 139.273055 227.004823 139.498245 
Q 228.259144 139.722946 228.397354 140.00884 
L 226.817066 140.00884 
Q 226.548469 139.791972 225.745286 139.66518 
Q 224.942103 139.537898 223.492202 139.537898 
Q 221.724157 139.537898 220.636731 139.771411 
Q 219.549305 140.004434 219.549305 140.486145 
Q 219.549305 140.881207 220.529814 141.126958 
Q 221.51293 141.372219 223.460909 141.372219 
Q 225.252424 141.372219 226.191209 141.11374 
Q 226.686679 140.977647 226.931806 140.755394 
L 228.512094 140.755394 
Q 228.300868 141.110313 227.11174 141.35068 
Q 225.685308 141.64 223.265329 141.64 
Q 221.17914 141.64 219.760531 141.402571 
Q 217.893392 141.089263 217.893392 140.434253 
Q 217.893392 139.937366 219.296354 139.619163 
Q 220.811449 139.273055 223.476556 139.273055 
z
M 223.150589 139.273055 
L 223.150589 139.273055 
z
" style="fill:#0000ff;"/>
   </g>
   <g id="patch_48">
    <path clip-path="url(#p5f5e9c4478)" d="M 228.512094 136.90611 
L 228.512094 137.188122 
L 224.102126 137.188122 
L 224.102126 139.273055 
L 222.303361 139.273055 
L 222.303361 137.188122 
L 217.893392 137.188122 
L 217.893392 136.90611 
L 228.512094 136.90611 
z
" style="fill:#ff0000;"/>
   </g>
   <g id="patch_49">
    <path clip-path="url(#p5f5e9c4478)" d="M 225.020908 135.014574 
L 223.214407 132.975216 
L 221.293865 135.014574 
L 225.020908 135.014574 
z
M 222.372064 132.289396 
L 224.194116 132.289396 
L 228.512094 136.90611 
L 226.744471 136.90611 
L 225.539273 135.523409 
L 220.832521 135.523409 
L 219.544384 136.90611 
L 217.893392 136.90611 
L 222.372064 132.289396 
z
M 223.206631 132.289396 
L 223.206631 132.289396 
z
" style="fill:#008000;"/>
   </g>
   <g id="patch_50">
    <path clip-path="url(#p5f5e9c4478)" d="M 223.369847 28.949737 
Q 225.007973 28.949737 226.20302 34.297473 
Q 227.934826 41.976823 228.322203 61.228674 
L 226.765098 61.228674 
Q 226.478995 50.469028 225.585242 45.549111 
Q 224.691488 40.629193 223.329337 40.629193 
Q 221.71653 40.629193 220.612631 50.875456 
Q 219.508731 61.100328 219.508731 81.357554 
Q 219.508731 98.855347 220.417676 109.850294 
Q 221.329153 120.84524 223.385039 120.84524 
Q 224.959868 120.84524 225.992874 113.144499 
Q 227.025881 105.422368 227.048668 88.159875 
L 223.410357 88.159875 
L 223.410357 77.143537 
L 228.512094 77.143537 
L 228.512094 129.6797 
L 227.499343 129.6797 
L 227.119561 117.037651 
Q 226.322019 124.460309 225.70424 127.348087 
Q 224.66617 132.289396 223.068554 132.289396 
Q 221.005072 132.289396 219.516327 120.994976 
Q 217.893392 106.812779 217.893392 82.084846 
Q 217.893392 57.421085 219.475817 42.853851 
Q 220.979753 28.949737 223.369847 28.949737 
z
M 223.109064 28.8 
L 223.109064 28.8 
z
" style="fill:#ffa600;"/>
   </g>
   <g id="patch_51">
    <path clip-path="url(#p5f5e9c4478)" d="M 234.654137 139.319925 
Q 236.928083 139.319925 238.182404 139.540656 
Q 239.436725 139.760907 239.574935 140.04114 
L 237.994647 140.04114 
Q 237.72605 139.828566 236.922867 139.704285 
Q 236.119685 139.579524 234.669783 139.579524 
Q 232.901738 139.579524 231.814312 139.808413 
Q 230.726886 140.036821 230.726886 140.508994 
Q 230.726886 140.896232 231.707395 141.137117 
Q 232.690511 141.377522 234.63849 141.377522 
Q 236.430005 141.377522 237.36879 141.124161 
Q 237.86426 140.990763 238.109387 140.772911 
L 239.689676 140.772911 
Q 239.478449 141.120802 238.289321 141.356409 
Q 236.862889 141.64 234.44291 141.64 
Q 232.356721 141.64 230.938113 141.407273 
Q 229.070973 141.100169 229.070973 140.458129 
Q 229.070973 139.971082 230.473936 139.659179 
Q 231.98903 139.319925 234.654137 139.319925 
z
M 234.32817 139.319925 
L 234.32817 139.319925 
z
" style="fill:#0000ff;"/>
   </g>
   <g id="patch_52">
    <path clip-path="url(#p5f5e9c4478)" d="M 234.547429 113.765825 
Q 236.185554 113.765825 237.380602 115.088227 
Q 239.112407 116.987197 239.499785 121.747845 
L 237.942679 121.747845 
Q 237.656576 119.087171 236.762823 117.870561 
Q 235.86907 116.653951 234.506918 116.653951 
Q 232.894111 116.653951 231.790212 119.187674 
Q 230.686312 121.716107 230.686312 126.725367 
Q 230.686312 131.052267 231.595257 133.771126 
Q 232.506734 136.489984 234.56262 136.489984 
Q 236.137449 136.489984 237.170456 134.585725 
Q 238.203462 132.676176 238.226249 128.407462 
L 234.587939 128.407462 
L 234.587939 125.683314 
L 239.689676 125.683314 
L 239.689676 138.674593 
L 238.676924 138.674593 
L 238.297142 135.548434 
Q 237.4996 137.383928 236.881821 138.098026 
Q 235.843751 139.319925 234.246135 139.319925 
Q 232.182653 139.319925 230.693908 136.527012 
Q 229.070973 133.020001 229.070973 126.905213 
Q 229.070973 120.806294 230.653398 117.204071 
Q 232.157334 113.765825 234.547429 113.765825 
z
M 234.286645 113.728798 
L 234.286645 113.728798 
z
" style="fill:#ffa600;"/>
   </g>
   <g id="patch_53">
    <path clip-path="url(#p5f5e9c4478)" d="M 239.689676 88.0908 
L 239.689676 91.145468 
L 235.279707 91.145468 
L 235.279707 113.728798 
L 233.480942 113.728798 
L 233.480942 91.145468 
L 229.070973 91.145468 
L 229.070973 88.0908 
L 239.689676 88.0908 
z
" style="fill:#ff0000;"/>
   </g>
   <g id="patch_54">
    <path clip-path="url(#p5f5e9c4478)" d="M 236.198489 63.79849 
L 234.391988 37.607738 
L 232.471446 63.79849 
L 236.198489 63.79849 
z
M 233.549645 28.8 
L 235.371697 28.8 
L 239.689676 88.0908 
L 237.922052 88.0908 
L 236.716854 70.333263 
L 232.010102 70.333263 
L 230.721965 88.0908 
L 229.070973 88.0908 
L 233.549645 28.8 
z
M 234.384212 28.8 
L 234.384212 28.8 
z
" style="fill:#008000;"/>
   </g>
   <g id="patch_55">
    <path clip-path="url(#p5f5e9c4478)" d="M 245.831718 139.273055 
Q 248.105664 139.273055 249.359985 139.498245 
Q 250.614306 139.722946 250.752516 140.00884 
L 249.172228 140.00884 
Q 248.903631 139.791972 248.100448 139.66518 
Q 247.297266 139.537898 245.847364 139.537898 
Q 244.079319 139.537898 242.991893 139.771411 
Q 241.904467 140.004434 241.904467 140.486145 
Q 241.904467 140.881207 242.884976 141.126958 
Q 243.868093 141.372219 245.816071 141.372219 
Q 247.607586 141.372219 248.546371 141.11374 
Q 249.041841 140.977647 249.286968 140.755394 
L 250.867257 140.755394 
Q 250.65603 141.110313 249.466902 141.35068 
Q 248.040471 141.64 245.620491 141.64 
Q 243.534302 141.64 242.115694 141.402571 
Q 240.248555 141.089263 240.248555 140.434253 
Q 240.248555 139.937366 241.651517 139.619163 
Q 243.166611 139.273055 245.831718 139.273055 
z
M 245.505751 139.273055 
L 245.505751 139.273055 
z
" style="fill:#0000ff;"/>
   </g>
   <g id="patch_56">
    <path clip-path="url(#p5f5e9c4478)" d="M 245.72501 136.909535 
Q 247.363136 136.909535 248.558183 137.031845 
Q 250.289988 137.207482 250.677366 137.647798 
L 249.12026 137.647798 
Q 248.834158 137.401711 247.940404 137.289185 
Q 247.046651 137.17666 245.6845 137.17666 
Q 244.071692 137.17666 242.967793 137.411006 
Q 241.863894 137.644863 241.863894 138.108174 
Q 241.863894 138.508372 242.772838 138.759842 
Q 243.684315 139.011311 245.740201 139.011311 
Q 247.31503 139.011311 248.348037 138.835185 
Q 249.381043 138.658569 249.40383 138.263752 
L 245.76552 138.263752 
L 245.76552 138.011793 
L 250.867257 138.011793 
L 250.867257 139.213368 
L 249.854505 139.213368 
L 249.474723 138.924227 
Q 248.677181 139.093993 248.059402 139.160041 
Q 247.021332 139.273055 245.423716 139.273055 
Q 243.360234 139.273055 241.871489 139.014736 
Q 240.248555 138.69037 240.248555 138.124808 
Q 240.248555 137.560714 241.830979 137.227541 
Q 243.334916 136.909535 245.72501 136.909535 
z
M 245.464226 136.90611 
L 245.464226 136.90611 
z
" style="fill:#ffa600;"/>
   </g>
   <g id="patch_57">
    <path clip-path="url(#p5f5e9c4478)" d="M 247.37607 135.014574 
L 245.569569 132.975216 
L 243.649027 135.014574 
L 247.37607 135.014574 
z
M 244.727226 132.289396 
L 246.549278 132.289396 
L 250.867257 136.90611 
L 249.099633 136.90611 
L 247.894435 135.523409 
L 243.187683 135.523409 
L 241.899546 136.90611 
L 240.248555 136.90611 
L 244.727226 132.289396 
z
M 245.561793 132.289396 
L 245.561793 132.289396 
z
" style="fill:#008000;"/>
   </g>
   <g id="patch_58">
    <path clip-path="url(#p5f5e9c4478)" d="M 250.867257 28.8 
L 250.867257 41.130364 
L 246.457288 41.130364 
L 246.457288 132.289396 
L 244.658523 132.289396 
L 244.658523 41.130364 
L 240.248555 41.130364 
L 240.248555 28.8 
L 250.867257 28.8 
z
" style="fill:#ff0000;"/>
   </g>
   <g id="patch_59">
    <path clip-path="url(#p5f5e9c4478)" d="M 256.902591 139.27648 
Q 258.540717 139.27648 259.735764 139.39879 
Q 261.467569 139.574427 261.854947 140.014743 
L 260.297841 140.014743 
Q 260.011739 139.768656 259.117985 139.65613 
Q 258.224232 139.543605 256.862081 139.543605 
Q 255.249274 139.543605 254.145374 139.777951 
Q 253.041475 140.011808 253.041475 140.475119 
Q 253.041475 140.875317 253.950419 141.126787 
Q 254.861896 141.378256 256.917782 141.378256 
Q 258.492611 141.378256 259.525618 141.20213 
Q 260.558625 141.025514 260.581411 140.630697 
L 256.943101 140.630697 
L 256.943101 140.378738 
L 262.044838 140.378738 
L 262.044838 141.580313 
L 261.032086 141.580313 
L 260.652304 141.291172 
Q 259.854762 141.460938 259.236984 141.526985 
Q 258.198913 141.64 256.601297 141.64 
Q 254.537815 141.64 253.04907 141.381681 
Q 251.426136 141.057315 251.426136 140.491753 
Q 251.426136 139.927659 253.00856 139.594486 
Q 254.512497 139.27648 256.902591 139.27648 
z
M 256.641807 139.273055 
L 256.641807 139.273055 
z
" style="fill:#ffa600;"/>
   </g>
   <g id="patch_60">
    <path clip-path="url(#p5f5e9c4478)" d="M 257.009299 135.781225 
Q 259.283245 135.781225 260.537566 136.113437 
Q 261.791887 136.444926 261.930097 136.86669 
L 260.349809 136.86669 
Q 260.081212 136.546756 259.27803 136.359706 
Q 258.474847 136.171935 257.024945 136.171935 
Q 255.2569 136.171935 254.169474 136.516423 
Q 253.082048 136.86019 253.082048 137.570833 
Q 253.082048 138.153647 254.062557 138.516191 
Q 255.045674 138.878012 256.993653 138.878012 
Q 258.785167 138.878012 259.723952 138.496692 
Q 260.219422 138.29592 260.46455 137.968042 
L 262.044838 137.968042 
Q 261.833611 138.491636 260.644483 138.846236 
Q 259.218052 139.273055 256.798072 139.273055 
Q 254.711883 139.273055 253.293275 138.922789 
Q 251.426136 138.460582 251.426136 137.49428 
Q 251.426136 136.761249 252.829098 136.29182 
Q 254.344193 135.781225 257.009299 135.781225 
z
M 256.683332 135.781225 
L 256.683332 135.781225 
z
" style="fill:#0000ff;"/>
   </g>
   <g id="patch_61">
    <path clip-path="url(#p5f5e9c4478)" d="M 262.044838 99.831784 
L 262.044838 104.115022 
L 257.634869 104.115022 
L 257.634869 135.781225 
L 255.836104 135.781225 
L 255.836104 104.115022 
L 251.426136 104.115022 
L 251.426136 99.831784 
L 262.044838 99.831784 
z
" style="fill:#ff0000;"/>
   </g>
   <g id="patch_62">
    <path clip-path="url(#p5f5e9c4478)" d="M 258.553651 70.729021 
L 256.74715 39.351879 
L 254.826609 70.729021 
L 258.553651 70.729021 
z
M 255.904807 28.8 
L 257.726859 28.8 
L 262.044838 99.831784 
L 260.277214 99.831784 
L 259.072016 78.557834 
L 254.365264 78.557834 
L 253.077127 99.831784 
L 251.426136 99.831784 
L 255.904807 28.8 
z
M 256.739374 28.8 
L 256.739374 28.8 
z
" style="fill:#008000;"/>
   </g>
   <g id="patch_63">
    <path clip-path="url(#p5f5e9c4478)" d="M 269.731232 140.747042 
L 267.924731 139.784299 
L 266.00419 140.747042 
L 269.731232 140.747042 
z
M 267.082388 139.460536 
L 268.90444 139.460536 
L 273.222419 141.64 
L 271.454795 141.64 
L 270.249597 140.987253 
L 265.542845 140.987253 
L 264.254709 141.64 
L 262.603717 141.64 
L 267.082388 139.460536 
z
M 267.916956 139.460536 
L 267.916956 139.460536 
z
" style="fill:#008000;"/>
   </g>
   <g id="patch_64">
    <path clip-path="url(#p5f5e9c4478)" d="M 268.080172 137.284225 
Q 269.718298 137.284225 270.913345 137.396847 
Q 272.64515 137.558573 273.032528 137.964012 
L 271.475422 137.964012 
Q 271.18932 137.737417 270.295566 137.633804 
Q 269.401813 137.530192 268.039662 137.530192 
Q 266.426855 137.530192 265.322955 137.745976 
Q 264.219056 137.96131 264.219056 138.387922 
Q 264.219056 138.756422 265.128001 138.987973 
Q 266.039477 139.219524 268.095363 139.219524 
Q 269.670192 139.219524 270.703199 139.057348 
Q 271.736206 138.894722 271.758993 138.531178 
L 268.120682 138.531178 
L 268.120682 138.299176 
L 273.222419 138.299176 
L 273.222419 139.405576 
L 272.209667 139.405576 
L 271.829885 139.139337 
Q 271.032343 139.295657 270.414565 139.356473 
Q 269.376494 139.460536 267.778878 139.460536 
Q 265.715397 139.460536 264.226651 139.222678 
Q 262.603717 138.924004 262.603717 138.403239 
Q 262.603717 137.883825 264.186141 137.577043 
Q 265.690078 137.284225 268.080172 137.284225 
z
M 267.819388 137.281072 
L 267.819388 137.281072 
z
" style="fill:#ffa600;"/>
   </g>
   <g id="patch_65">
    <path clip-path="url(#p5f5e9c4478)" d="M 273.222419 100.487967 
L 273.222419 104.871724 
L 268.812451 104.871724 
L 268.812451 137.281072 
L 267.013685 137.281072 
L 267.013685 104.871724 
L 262.603717 104.871724 
L 262.603717 100.487967 
L 273.222419 100.487967 
z
" style="fill:#ff0000;"/>
   </g>
   <g id="patch_66">
    <path clip-path="url(#p5f5e9c4478)" d="M 268.18688 28.8 
Q 270.460826 28.8 271.715147 35.620365 
Q 272.969468 42.425903 273.107678 51.084801 
L 271.52739 51.084801 
Q 271.258793 44.516493 270.455611 40.676331 
Q 269.652428 36.821342 268.202527 36.821342 
Q 266.434481 36.821342 265.347055 43.893764 
Q 264.259629 50.951359 264.259629 65.54101 
Q 264.259629 77.506302 265.240138 84.949396 
Q 266.223255 92.377663 268.171234 92.377663 
Q 269.962749 92.377663 270.901534 84.54907 
Q 271.397003 80.427198 271.642131 73.695794 
L 273.222419 73.695794 
Q 273.011192 84.445282 271.822065 91.72528 
Q 270.395633 100.487967 267.975654 100.487967 
Q 265.889465 100.487967 264.470856 93.29693 
Q 262.603717 83.807726 262.603717 63.96936 
Q 262.603717 48.920077 264.006679 39.282604 
Q 265.521774 28.8 268.18688 28.8 
z
M 267.860913 28.8 
L 267.860913 28.8 
z
" style="fill:#0000ff;"/>
   </g>
   <g id="patch_67">
    <path clip-path="url(#p5f5e9c4478)" d="M 280.908813 140.670228 
L 279.102312 139.624668 
L 277.181771 140.670228 
L 280.908813 140.670228 
z
M 278.259969 139.273055 
L 280.082022 139.273055 
L 284.4 141.64 
L 282.632376 141.64 
L 281.427178 140.931102 
L 276.720426 140.931102 
L 275.43229 141.64 
L 273.781298 141.64 
L 278.259969 139.273055 
z
M 279.094537 139.273055 
L 279.094537 139.273055 
z
" style="fill:#008000;"/>
   </g>
   <g id="patch_68">
    <path clip-path="url(#p5f5e9c4478)" d="M 279.257753 136.909535 
Q 280.895879 136.909535 282.090926 137.031845 
Q 283.822732 137.207482 284.210109 137.647798 
L 282.653003 137.647798 
Q 282.366901 137.401711 281.473147 137.289185 
Q 280.579394 137.17666 279.217243 137.17666 
Q 277.604436 137.17666 276.500536 137.411006 
Q 275.396637 137.644863 275.396637 138.108174 
Q 275.396637 138.508372 276.305582 138.759842 
Q 277.217058 139.011311 279.272944 139.011311 
Q 280.847773 139.011311 281.88078 138.835185 
Q 282.913787 138.658569 282.936574 138.263752 
L 279.298263 138.263752 
L 279.298263 138.011793 
L 284.4 138.011793 
L 284.4 139.213368 
L 283.387248 139.213368 
L 283.007466 138.924227 
Q 282.209924 139.093993 281.592146 139.160041 
Q 280.554075 139.273055 278.956459 139.273055 
Q 276.892978 139.273055 275.404233 139.014736 
Q 273.781298 138.69037 273.781298 138.124808 
Q 273.781298 137.560714 275.363723 137.227541 
Q 276.867659 136.909535 279.257753 136.909535 
z
M 278.996969 136.90611 
L 278.996969 136.90611 
z
" style="fill:#ffa600;"/>
   </g>
   <g id="patch_69">
    <path clip-path="url(#p5f5e9c4478)" d="M 279.364461 133.41428 
Q 281.638407 133.41428 282.892728 133.746492 
Q 284.14705 134.077981 284.28526 134.499745 
L 282.704971 134.499745 
Q 282.436375 134.179811 281.633192 133.992761 
Q 280.830009 133.80499 279.380108 133.80499 
Q 277.612063 133.80499 276.524636 134.149478 
Q 275.43721 134.493245 275.43721 135.203888 
Q 275.43721 135.786702 276.417719 136.149246 
Q 277.400836 136.511067 279.348815 136.511067 
Q 281.14033 136.511067 282.079115 136.129747 
Q 282.574585 135.928976 282.819712 135.601097 
L 284.4 135.601097 
Q 284.188773 136.124691 282.999646 136.479291 
Q 281.573214 136.90611 279.153235 136.90611 
Q 277.067046 136.90611 275.648437 136.555844 
Q 273.781298 136.093637 273.781298 135.127335 
Q 273.781298 134.394304 275.18426 133.924875 
Q 276.699355 133.41428 279.364461 133.41428 
z
M 279.038494 133.41428 
L 279.038494 133.41428 
z
" style="fill:#0000ff;"/>
   </g>
   <g id="patch_70">
    <path clip-path="url(#p5f5e9c4478)" d="M 284.4 28.8 
L 284.4 41.264389 
L 279.990032 41.264389 
L 279.990032 133.41428 
L 278.191266 133.41428 
L 278.191266 41.264389 
L 273.781298 41.264389 
L 273.781298 28.8 
L 284.4 28.8 
z
" style="fill:#ff0000;"/>
   </g>
   <g id="matplotlib.axis_1">
    <g id="xtick_1">
     <g id="text_1">
      <!-- 0 -->
      <g style="fill:#262626;" transform="translate(94.688414 162.986875)scale(0.2 -0.2)">
       <defs>
        <path d="M 1731 4475 
Q 2600 4475 2988 3759 
Q 3288 3206 3288 2244 
Q 3288 1331 3016 734 
Q 2622 -122 1728 -122 
Q 922 -122 528 578 
Q 200 1163 200 2147 
Q 200 2909 397 3456 
Q 766 4475 1731 4475 
z
M 1725 391 
Q 2163 391 2422 778 
Q 2681 1166 2681 2222 
Q 2681 2984 2493 3476 
Q 2306 3969 1766 3969 
Q 1269 3969 1039 3501 
Q 809 3034 809 2125 
Q 809 1441 956 1025 
Q 1181 391 1725 391 
z
" id="Helvetica-30" transform="scale(0.015625)"/>
       </defs>
       <use xlink:href="#Helvetica-30"/>
      </g>
     </g>
    </g>
    <g id="xtick_2">
     <g id="text_2">
      <!-- 10 -->
      <g style="fill:#262626;" transform="translate(200.903287 162.986875)scale(0.2 -0.2)">
       <defs>
        <path d="M 613 3169 
L 613 3600 
Q 1222 3659 1462 3798 
Q 1703 3938 1822 4456 
L 2266 4456 
L 2266 0 
L 1666 0 
L 1666 3169 
L 613 3169 
z
" id="Helvetica-31" transform="scale(0.015625)"/>
       </defs>
       <use xlink:href="#Helvetica-31"/>
       <use x="55.615234" xlink:href="#Helvetica-30"/>
      </g>
     </g>
    </g>
    <g id="text_3">
     <!-- Position -->
     <g style="fill:#262626;" transform="translate(145.20125 189.089219)scale(0.25 -0.25)">
      <defs>
       <path d="M 547 4591 
L 2613 4591 
Q 3225 4591 3600 4245 
Q 3975 3900 3975 3275 
Q 3975 2738 3640 2339 
Q 3306 1941 2613 1941 
L 1169 1941 
L 1169 0 
L 547 0 
L 547 4591 
z
M 3347 3272 
Q 3347 3778 2972 3959 
Q 2766 4056 2406 4056 
L 1169 4056 
L 1169 2466 
L 2406 2466 
Q 2825 2466 3086 2644 
Q 3347 2822 3347 3272 
z
" id="Helvetica-50" transform="scale(0.015625)"/>
       <path d="M 1741 363 
Q 2300 363 2508 786 
Q 2716 1209 2716 1728 
Q 2716 2197 2566 2491 
Q 2328 2953 1747 2953 
Q 1231 2953 997 2559 
Q 763 2166 763 1609 
Q 763 1075 997 719 
Q 1231 363 1741 363 
z
M 1763 3444 
Q 2409 3444 2856 3012 
Q 3303 2581 3303 1744 
Q 3303 934 2909 406 
Q 2516 -122 1688 -122 
Q 997 -122 590 345 
Q 184 813 184 1600 
Q 184 2444 612 2944 
Q 1041 3444 1763 3444 
z
M 1744 3428 
L 1744 3428 
z
" id="Helvetica-6f" transform="scale(0.015625)"/>
       <path d="M 747 1050 
Q 772 769 888 619 
Q 1100 347 1625 347 
Q 1938 347 2175 483 
Q 2413 619 2413 903 
Q 2413 1119 2222 1231 
Q 2100 1300 1741 1391 
L 1294 1503 
Q 866 1609 663 1741 
Q 300 1969 300 2372 
Q 300 2847 642 3140 
Q 984 3434 1563 3434 
Q 2319 3434 2653 2991 
Q 2863 2709 2856 2384 
L 2325 2384 
Q 2309 2575 2191 2731 
Q 1997 2953 1519 2953 
Q 1200 2953 1036 2831 
Q 872 2709 872 2509 
Q 872 2291 1088 2159 
Q 1213 2081 1456 2022 
L 1828 1931 
Q 2434 1784 2641 1647 
Q 2969 1431 2969 969 
Q 2969 522 2630 197 
Q 2291 -128 1597 -128 
Q 850 -128 539 211 
Q 228 550 206 1050 
L 747 1050 
z
M 1578 3428 
L 1578 3428 
z
" id="Helvetica-73" transform="scale(0.015625)"/>
       <path d="M 413 3331 
L 984 3331 
L 984 0 
L 413 0 
L 413 3331 
z
M 413 4591 
L 984 4591 
L 984 3953 
L 413 3953 
L 413 4591 
z
" id="Helvetica-69" transform="scale(0.015625)"/>
       <path d="M 525 4281 
L 1094 4281 
L 1094 3347 
L 1628 3347 
L 1628 2888 
L 1094 2888 
L 1094 703 
Q 1094 528 1213 469 
Q 1278 434 1431 434 
Q 1472 434 1519 436 
Q 1566 438 1628 444 
L 1628 0 
Q 1531 -28 1426 -40 
Q 1322 -53 1200 -53 
Q 806 -53 665 148 
Q 525 350 525 672 
L 525 2888 
L 72 2888 
L 72 3347 
L 525 3347 
L 525 4281 
z
" id="Helvetica-74" transform="scale(0.015625)"/>
       <path d="M 413 3347 
L 947 3347 
L 947 2872 
Q 1184 3166 1450 3294 
Q 1716 3422 2041 3422 
Q 2753 3422 3003 2925 
Q 3141 2653 3141 2147 
L 3141 0 
L 2569 0 
L 2569 2109 
Q 2569 2416 2478 2603 
Q 2328 2916 1934 2916 
Q 1734 2916 1606 2875 
Q 1375 2806 1200 2600 
Q 1059 2434 1017 2257 
Q 975 2081 975 1753 
L 975 0 
L 413 0 
L 413 3347 
z
M 1734 3428 
L 1734 3428 
z
" id="Helvetica-6e" transform="scale(0.015625)"/>
      </defs>
      <use xlink:href="#Helvetica-50"/>
      <use x="66.699219" xlink:href="#Helvetica-6f"/>
      <use x="122.314453" xlink:href="#Helvetica-73"/>
      <use x="172.314453" xlink:href="#Helvetica-69"/>
      <use x="194.53125" xlink:href="#Helvetica-74"/>
      <use x="222.314453" xlink:href="#Helvetica-69"/>
      <use x="244.53125" xlink:href="#Helvetica-6f"/>
      <use x="300.146484" xlink:href="#Helvetica-6e"/>
     </g>
    </g>
   </g>
   <g id="matplotlib.axis_2">
    <g id="ytick_1">
     <g id="text_4">
      <!-- 0 -->
      <g style="fill:#262626;" transform="translate(76.818125 148.813438)scale(0.2 -0.2)">
       <use xlink:href="#Helvetica-30"/>
      </g>
     </g>
    </g>
    <g id="ytick_2">
     <g id="text_5">
      <!-- 0.25 -->
      <g style="fill:#262626;" transform="translate(49.018125 120.603437)scale(0.2 -0.2)">
       <defs>
        <path d="M 547 681 
L 1200 681 
L 1200 0 
L 547 0 
L 547 681 
z
" id="Helvetica-2e" transform="scale(0.015625)"/>
        <path d="M 200 0 
Q 231 578 439 1006 
Q 647 1434 1250 1784 
L 1850 2131 
Q 2253 2366 2416 2531 
Q 2672 2791 2672 3125 
Q 2672 3516 2437 3745 
Q 2203 3975 1813 3975 
Q 1234 3975 1013 3538 
Q 894 3303 881 2888 
L 309 2888 
Q 319 3472 525 3841 
Q 891 4491 1816 4491 
Q 2584 4491 2939 4075 
Q 3294 3659 3294 3150 
Q 3294 2613 2916 2231 
Q 2697 2009 2131 1694 
L 1703 1456 
Q 1397 1288 1222 1134 
Q 909 863 828 531 
L 3272 531 
L 3272 0 
L 200 0 
z
" id="Helvetica-32" transform="scale(0.015625)"/>
        <path d="M 791 1141 
Q 847 659 1238 475 
Q 1438 381 1700 381 
Q 2200 381 2440 700 
Q 2681 1019 2681 1406 
Q 2681 1875 2395 2131 
Q 2109 2388 1709 2388 
Q 1419 2388 1211 2275 
Q 1003 2163 856 1963 
L 369 1991 
L 709 4400 
L 3034 4400 
L 3034 3856 
L 1131 3856 
L 941 2613 
Q 1097 2731 1238 2791 
Q 1488 2894 1816 2894 
Q 2431 2894 2859 2497 
Q 3288 2100 3288 1491 
Q 3288 856 2895 371 
Q 2503 -113 1644 -113 
Q 1097 -113 676 195 
Q 256 503 206 1141 
L 791 1141 
z
" id="Helvetica-35" transform="scale(0.015625)"/>
       </defs>
       <use xlink:href="#Helvetica-30"/>
       <use x="55.615234" xlink:href="#Helvetica-2e"/>
       <use x="83.398438" xlink:href="#Helvetica-32"/>
       <use x="139.013672" xlink:href="#Helvetica-35"/>
      </g>
     </g>
    </g>
    <g id="ytick_3">
     <g id="text_6">
      <!-- 0.50 -->
      <g style="fill:#262626;" transform="translate(49.018125 92.393438)scale(0.2 -0.2)">
       <use xlink:href="#Helvetica-30"/>
       <use x="55.615234" xlink:href="#Helvetica-2e"/>
       <use x="83.398438" xlink:href="#Helvetica-35"/>
       <use x="139.013672" xlink:href="#Helvetica-30"/>
      </g>
     </g>
    </g>
    <g id="ytick_4">
     <g id="text_7">
      <!-- 0.75 -->
      <g style="fill:#262626;" transform="translate(49.018125 64.183437)scale(0.2 -0.2)">
       <defs>
        <path d="M 3347 4400 
L 3347 3909 
Q 3131 3700 2773 3181 
Q 2416 2663 2141 2063 
Q 1869 1478 1728 997 
Q 1638 688 1494 0 
L 872 0 
Q 1084 1281 1809 2550 
Q 2238 3294 2709 3834 
L 234 3834 
L 234 4400 
L 3347 4400 
z
" id="Helvetica-37" transform="scale(0.015625)"/>
       </defs>
       <use xlink:href="#Helvetica-30"/>
       <use x="55.615234" xlink:href="#Helvetica-2e"/>
       <use x="83.398438" xlink:href="#Helvetica-37"/>
       <use x="139.013672" xlink:href="#Helvetica-35"/>
      </g>
     </g>
    </g>
    <g id="ytick_5">
     <g id="text_8">
      <!-- 1.0 -->
      <g style="fill:#262626;" transform="translate(60.14 35.973437)scale(0.2 -0.2)">
       <use xlink:href="#Helvetica-31"/>
       <use x="55.615234" xlink:href="#Helvetica-2e"/>
       <use x="83.398438" xlink:href="#Helvetica-30"/>
      </g>
     </g>
    </g>
    <g id="text_9">
     <!-- Probability -->
     <g style="fill:#262626;" transform="translate(39.65875 143.579375)rotate(-90)scale(0.25 -0.25)">
      <defs>
       <path d="M 428 3347 
L 963 3347 
L 963 2769 
Q 1028 2938 1284 3180 
Q 1541 3422 1875 3422 
Q 1891 3422 1928 3419 
Q 1966 3416 2056 3406 
L 2056 2813 
Q 2006 2822 1964 2825 
Q 1922 2828 1872 2828 
Q 1447 2828 1219 2554 
Q 991 2281 991 1925 
L 991 0 
L 428 0 
L 428 3347 
z
" id="Helvetica-72" transform="scale(0.015625)"/>
       <path d="M 369 4606 
L 916 4606 
L 916 2941 
Q 1100 3181 1356 3307 
Q 1613 3434 1913 3434 
Q 2538 3434 2927 3004 
Q 3316 2575 3316 1738 
Q 3316 944 2931 419 
Q 2547 -106 1866 -106 
Q 1484 -106 1222 78 
Q 1066 188 888 428 
L 888 0 
L 369 0 
L 369 4606 
z
M 1831 391 
Q 2288 391 2514 753 
Q 2741 1116 2741 1709 
Q 2741 2238 2514 2584 
Q 2288 2931 1847 2931 
Q 1463 2931 1173 2647 
Q 884 2363 884 1709 
Q 884 1238 1003 944 
Q 1225 391 1831 391 
z
" id="Helvetica-62" transform="scale(0.015625)"/>
       <path d="M 844 891 
Q 844 647 1022 506 
Q 1200 366 1444 366 
Q 1741 366 2019 503 
Q 2488 731 2488 1250 
L 2488 1703 
Q 2384 1638 2221 1594 
Q 2059 1550 1903 1531 
L 1563 1488 
Q 1256 1447 1103 1359 
Q 844 1213 844 891 
z
M 2206 2028 
Q 2400 2053 2466 2191 
Q 2503 2266 2503 2406 
Q 2503 2694 2298 2823 
Q 2094 2953 1713 2953 
Q 1272 2953 1088 2716 
Q 984 2584 953 2325 
L 428 2325 
Q 444 2944 830 3186 
Q 1216 3428 1725 3428 
Q 2316 3428 2684 3203 
Q 3050 2978 3050 2503 
L 3050 575 
Q 3050 488 3086 434 
Q 3122 381 3238 381 
Q 3275 381 3322 386 
Q 3369 391 3422 400 
L 3422 -16 
Q 3291 -53 3222 -62 
Q 3153 -72 3034 -72 
Q 2744 -72 2613 134 
Q 2544 244 2516 444 
Q 2344 219 2022 53 
Q 1700 -113 1313 -113 
Q 847 -113 551 170 
Q 256 453 256 878 
Q 256 1344 547 1600 
Q 838 1856 1309 1916 
L 2206 2028 
z
M 1741 3428 
L 1741 3428 
z
" id="Helvetica-61" transform="scale(0.015625)"/>
       <path d="M 428 4591 
L 991 4591 
L 991 0 
L 428 0 
L 428 4591 
z
" id="Helvetica-6c" transform="scale(0.015625)"/>
       <path d="M 2503 3347 
L 3125 3347 
Q 3006 3025 2597 1878 
Q 2291 1016 2084 472 
Q 1597 -809 1397 -1090 
Q 1197 -1372 709 -1372 
Q 591 -1372 527 -1362 
Q 463 -1353 369 -1328 
L 369 -816 
Q 516 -856 581 -865 
Q 647 -875 697 -875 
Q 853 -875 926 -823 
Q 1000 -772 1050 -697 
Q 1066 -672 1162 -440 
Q 1259 -209 1303 -97 
L 66 3347 
L 703 3347 
L 1600 622 
L 2503 3347 
z
M 1597 3428 
L 1597 3428 
z
" id="Helvetica-79" transform="scale(0.015625)"/>
      </defs>
      <use xlink:href="#Helvetica-50"/>
      <use x="66.699219" xlink:href="#Helvetica-72"/>
      <use x="100" xlink:href="#Helvetica-6f"/>
      <use x="155.615234" xlink:href="#Helvetica-62"/>
      <use x="211.230469" xlink:href="#Helvetica-61"/>
      <use x="266.845703" xlink:href="#Helvetica-62"/>
      <use x="322.460938" xlink:href="#Helvetica-69"/>
      <use x="344.677734" xlink:href="#Helvetica-6c"/>
      <use x="366.894531" xlink:href="#Helvetica-69"/>
      <use x="389.111328" xlink:href="#Helvetica-74"/>
      <use x="416.894531" xlink:href="#Helvetica-79"/>
     </g>
    </g>
   </g>
   <g id="patch_71">
    <path d="M 94.94 141.64 
L 94.94 28.8 
" style="fill:none;stroke:#000000;stroke-linecap:square;stroke-linejoin:miter;"/>
   </g>
  </g>
 </g>
 <defs>
  <clipPath id="p5f5e9c4478">
   <rect height="112.84" width="189.46" x="94.94" y="28.8"/>
  </clipPath>
 </defs>
</svg>
