<?xml version="1.0" encoding="utf-8" standalone="no"?>
<!DOCTYPE svg PUBLIC "-//W3C//DTD SVG 1.1//EN"
  "http://www.w3.org/Graphics/SVG/1.1/DTD/svg11.dtd">
<svg height="288pt" version="1.1" viewBox="0 0 432 288" width="432pt" xmlns="http://www.w3.org/2000/svg" xmlns:xlink="http://www.w3.org/1999/xlink">
 <metadata>
  <rdf:RDF xmlns:cc="http://creativecommons.org/ns#" xmlns:dc="http://purl.org/dc/elements/1.1/" xmlns:rdf="http://www.w3.org/1999/02/22-rdf-syntax-ns#">
   <cc:Work>
    <dc:type rdf:resource="http://purl.org/dc/dcmitype/StillImage"/>
    <dc:date>2022-12-15T20:32:55.539310</dc:date>
    <dc:format>image/svg+xml</dc:format>
    <dc:creator>
     <cc:Agent>
      <dc:title>Matplotlib v3.4.2, https://matplotlib.org/</dc:title>
     </cc:Agent>
    </dc:creator>
   </cc:Work>
  </rdf:RDF>
 </metadata>
 <defs>
  <style type="text/css">*{stroke-linecap:butt;stroke-linejoin:round;}</style>
 </defs>
 <g id="figure_1">
  <g id="patch_1">
   <path d="M 0 288 
L 432 288 
L 432 0 
L 0 0 
z
" style="fill:#ffffff;"/>
  </g>
  <g id="axes_1">
   <g id="patch_2">
    <path d="M 96.52 211.94 
L 410.4 211.94 
L 410.4 21.6 
L 96.52 21.6 
z
" style="fill:#ffffff;"/>
   </g>
   <g id="matplotlib.axis_1">
    <g id="xtick_1">
     <g id="line2d_1">
      <path clip-path="url(#p7beeacbac0)" d="M 110.787273 211.94 
L 110.787273 21.6 
" style="fill:none;stroke:#cccccc;stroke-linecap:round;stroke-width:0.8;"/>
     </g>
     <g id="text_1">
      <!-- 0 -->
      <g style="fill:#262626;" transform="translate(105.226335 239.786875)scale(0.2 -0.2)">
       <defs>
        <path d="M 1731 4475 
Q 2600 4475 2988 3759 
Q 3288 3206 3288 2244 
Q 3288 1331 3016 734 
Q 2622 -122 1728 -122 
Q 922 -122 528 578 
Q 200 1163 200 2147 
Q 200 2909 397 3456 
Q 766 4475 1731 4475 
z
M 1725 391 
Q 2163 391 2422 778 
Q 2681 1166 2681 2222 
Q 2681 2984 2493 3476 
Q 2306 3969 1766 3969 
Q 1269 3969 1039 3501 
Q 809 3034 809 2125 
Q 809 1441 956 1025 
Q 1181 391 1725 391 
z
" id="Helvetica-30" transform="scale(0.015625)"/>
       </defs>
       <use xlink:href="#Helvetica-30"/>
      </g>
     </g>
    </g>
    <g id="xtick_2">
     <g id="line2d_2">
      <path clip-path="url(#p7beeacbac0)" d="M 260.969091 211.94 
L 260.969091 21.6 
" style="fill:none;stroke:#cccccc;stroke-linecap:round;stroke-width:0.8;"/>
     </g>
     <g id="text_2">
      <!-- 10 -->
      <g style="fill:#262626;" transform="translate(249.847216 239.786875)scale(0.2 -0.2)">
       <defs>
        <path d="M 613 3169 
L 613 3600 
Q 1222 3659 1462 3798 
Q 1703 3938 1822 4456 
L 2266 4456 
L 2266 0 
L 1666 0 
L 1666 3169 
L 613 3169 
z
" id="Helvetica-31" transform="scale(0.015625)"/>
       </defs>
       <use xlink:href="#Helvetica-31"/>
       <use x="55.615234" xlink:href="#Helvetica-30"/>
      </g>
     </g>
    </g>
    <g id="text_3">
     <!-- Position -->
     <g style="fill:#262626;" transform="translate(217.885 262.3025)scale(0.2 -0.2)">
      <defs>
       <path d="M 547 4591 
L 2613 4591 
Q 3225 4591 3600 4245 
Q 3975 3900 3975 3275 
Q 3975 2738 3640 2339 
Q 3306 1941 2613 1941 
L 1169 1941 
L 1169 0 
L 547 0 
L 547 4591 
z
M 3347 3272 
Q 3347 3778 2972 3959 
Q 2766 4056 2406 4056 
L 1169 4056 
L 1169 2466 
L 2406 2466 
Q 2825 2466 3086 2644 
Q 3347 2822 3347 3272 
z
" id="Helvetica-50" transform="scale(0.015625)"/>
       <path d="M 1741 363 
Q 2300 363 2508 786 
Q 2716 1209 2716 1728 
Q 2716 2197 2566 2491 
Q 2328 2953 1747 2953 
Q 1231 2953 997 2559 
Q 763 2166 763 1609 
Q 763 1075 997 719 
Q 1231 363 1741 363 
z
M 1763 3444 
Q 2409 3444 2856 3012 
Q 3303 2581 3303 1744 
Q 3303 934 2909 406 
Q 2516 -122 1688 -122 
Q 997 -122 590 345 
Q 184 813 184 1600 
Q 184 2444 612 2944 
Q 1041 3444 1763 3444 
z
M 1744 3428 
L 1744 3428 
z
" id="Helvetica-6f" transform="scale(0.015625)"/>
       <path d="M 747 1050 
Q 772 769 888 619 
Q 1100 347 1625 347 
Q 1938 347 2175 483 
Q 2413 619 2413 903 
Q 2413 1119 2222 1231 
Q 2100 1300 1741 1391 
L 1294 1503 
Q 866 1609 663 1741 
Q 300 1969 300 2372 
Q 300 2847 642 3140 
Q 984 3434 1563 3434 
Q 2319 3434 2653 2991 
Q 2863 2709 2856 2384 
L 2325 2384 
Q 2309 2575 2191 2731 
Q 1997 2953 1519 2953 
Q 1200 2953 1036 2831 
Q 872 2709 872 2509 
Q 872 2291 1088 2159 
Q 1213 2081 1456 2022 
L 1828 1931 
Q 2434 1784 2641 1647 
Q 2969 1431 2969 969 
Q 2969 522 2630 197 
Q 2291 -128 1597 -128 
Q 850 -128 539 211 
Q 228 550 206 1050 
L 747 1050 
z
M 1578 3428 
L 1578 3428 
z
" id="Helvetica-73" transform="scale(0.015625)"/>
       <path d="M 413 3331 
L 984 3331 
L 984 0 
L 413 0 
L 413 3331 
z
M 413 4591 
L 984 4591 
L 984 3953 
L 413 3953 
L 413 4591 
z
" id="Helvetica-69" transform="scale(0.015625)"/>
       <path d="M 525 4281 
L 1094 4281 
L 1094 3347 
L 1628 3347 
L 1628 2888 
L 1094 2888 
L 1094 703 
Q 1094 528 1213 469 
Q 1278 434 1431 434 
Q 1472 434 1519 436 
Q 1566 438 1628 444 
L 1628 0 
Q 1531 -28 1426 -40 
Q 1322 -53 1200 -53 
Q 806 -53 665 148 
Q 525 350 525 672 
L 525 2888 
L 72 2888 
L 72 3347 
L 525 3347 
L 525 4281 
z
" id="Helvetica-74" transform="scale(0.015625)"/>
       <path d="M 413 3347 
L 947 3347 
L 947 2872 
Q 1184 3166 1450 3294 
Q 1716 3422 2041 3422 
Q 2753 3422 3003 2925 
Q 3141 2653 3141 2147 
L 3141 0 
L 2569 0 
L 2569 2109 
Q 2569 2416 2478 2603 
Q 2328 2916 1934 2916 
Q 1734 2916 1606 2875 
Q 1375 2806 1200 2600 
Q 1059 2434 1017 2257 
Q 975 2081 975 1753 
L 975 0 
L 413 0 
L 413 3347 
z
M 1734 3428 
L 1734 3428 
z
" id="Helvetica-6e" transform="scale(0.015625)"/>
      </defs>
      <use xlink:href="#Helvetica-50"/>
      <use x="66.699219" xlink:href="#Helvetica-6f"/>
      <use x="122.314453" xlink:href="#Helvetica-73"/>
      <use x="172.314453" xlink:href="#Helvetica-69"/>
      <use x="194.53125" xlink:href="#Helvetica-74"/>
      <use x="222.314453" xlink:href="#Helvetica-69"/>
      <use x="244.53125" xlink:href="#Helvetica-6f"/>
      <use x="300.146484" xlink:href="#Helvetica-6e"/>
     </g>
    </g>
   </g>
   <g id="matplotlib.axis_2">
    <g id="ytick_1">
     <g id="line2d_3">
      <path clip-path="url(#p7beeacbac0)" d="M 96.52 199.860762 
L 410.4 199.860762 
" style="fill:none;stroke:#cccccc;stroke-linecap:round;stroke-width:0.8;"/>
     </g>
     <g id="text_4">
      <!-- 0.00 -->
      <g style="fill:#262626;" transform="translate(44.098125 207.0342)scale(0.2 -0.2)">
       <defs>
        <path d="M 547 681 
L 1200 681 
L 1200 0 
L 547 0 
L 547 681 
z
" id="Helvetica-2e" transform="scale(0.015625)"/>
       </defs>
       <use xlink:href="#Helvetica-30"/>
       <use x="55.615234" xlink:href="#Helvetica-2e"/>
       <use x="83.398438" xlink:href="#Helvetica-30"/>
       <use x="139.013672" xlink:href="#Helvetica-30"/>
      </g>
     </g>
    </g>
    <g id="ytick_2">
     <g id="line2d_4">
      <path clip-path="url(#p7beeacbac0)" d="M 96.52 151.468398 
L 410.4 151.468398 
" style="fill:none;stroke:#cccccc;stroke-linecap:round;stroke-width:0.8;"/>
     </g>
     <g id="text_5">
      <!-- 0.05 -->
      <g style="fill:#262626;" transform="translate(44.098125 158.641835)scale(0.2 -0.2)">
       <defs>
        <path d="M 791 1141 
Q 847 659 1238 475 
Q 1438 381 1700 381 
Q 2200 381 2440 700 
Q 2681 1019 2681 1406 
Q 2681 1875 2395 2131 
Q 2109 2388 1709 2388 
Q 1419 2388 1211 2275 
Q 1003 2163 856 1963 
L 369 1991 
L 709 4400 
L 3034 4400 
L 3034 3856 
L 1131 3856 
L 941 2613 
Q 1097 2731 1238 2791 
Q 1488 2894 1816 2894 
Q 2431 2894 2859 2497 
Q 3288 2100 3288 1491 
Q 3288 856 2895 371 
Q 2503 -113 1644 -113 
Q 1097 -113 676 195 
Q 256 503 206 1141 
L 791 1141 
z
" id="Helvetica-35" transform="scale(0.015625)"/>
       </defs>
       <use xlink:href="#Helvetica-30"/>
       <use x="55.615234" xlink:href="#Helvetica-2e"/>
       <use x="83.398438" xlink:href="#Helvetica-30"/>
       <use x="139.013672" xlink:href="#Helvetica-35"/>
      </g>
     </g>
    </g>
    <g id="ytick_3">
     <g id="line2d_5">
      <path clip-path="url(#p7beeacbac0)" d="M 96.52 103.076034 
L 410.4 103.076034 
" style="fill:none;stroke:#cccccc;stroke-linecap:round;stroke-width:0.8;"/>
     </g>
     <g id="text_6">
      <!-- 0.10 -->
      <g style="fill:#262626;" transform="translate(44.098125 110.249471)scale(0.2 -0.2)">
       <use xlink:href="#Helvetica-30"/>
       <use x="55.615234" xlink:href="#Helvetica-2e"/>
       <use x="83.398438" xlink:href="#Helvetica-31"/>
       <use x="139.013672" xlink:href="#Helvetica-30"/>
      </g>
     </g>
    </g>
    <g id="ytick_4">
     <g id="line2d_6">
      <path clip-path="url(#p7beeacbac0)" d="M 96.52 54.683669 
L 410.4 54.683669 
" style="fill:none;stroke:#cccccc;stroke-linecap:round;stroke-width:0.8;"/>
     </g>
     <g id="text_7">
      <!-- 0.15 -->
      <g style="fill:#262626;" transform="translate(44.098125 61.857107)scale(0.2 -0.2)">
       <use xlink:href="#Helvetica-30"/>
       <use x="55.615234" xlink:href="#Helvetica-2e"/>
       <use x="83.398438" xlink:href="#Helvetica-31"/>
       <use x="139.013672" xlink:href="#Helvetica-35"/>
      </g>
     </g>
    </g>
    <g id="text_8">
     <!-- Std Dev of Subunit Mismatch -->
     <g style="fill:#262626;" transform="translate(35.929375 245.709062)rotate(-90)scale(0.2 -0.2)">
      <defs>
       <path d="M 894 1481 
Q 916 1091 1078 847 
Q 1388 391 2169 391 
Q 2519 391 2806 491 
Q 3363 684 3363 1184 
Q 3363 1559 3128 1719 
Q 2891 1875 2384 1991 
L 1763 2131 
Q 1153 2269 900 2434 
Q 463 2722 463 3294 
Q 463 3913 891 4309 
Q 1319 4706 2103 4706 
Q 2825 4706 3329 4357 
Q 3834 4009 3834 3244 
L 3250 3244 
Q 3203 3613 3050 3809 
Q 2766 4169 2084 4169 
Q 1534 4169 1293 3937 
Q 1053 3706 1053 3400 
Q 1053 3063 1334 2906 
Q 1519 2806 2169 2656 
L 2813 2509 
Q 3278 2403 3531 2219 
Q 3969 1897 3969 1284 
Q 3969 522 3414 194 
Q 2859 -134 2125 -134 
Q 1269 -134 784 303 
Q 300 738 309 1481 
L 894 1481 
z
M 2150 4716 
L 2150 4716 
z
" id="Helvetica-53" transform="scale(0.015625)"/>
       <path d="M 769 1634 
Q 769 1097 997 734 
Q 1225 372 1728 372 
Q 2119 372 2370 708 
Q 2622 1044 2622 1672 
Q 2622 2306 2362 2611 
Q 2103 2916 1722 2916 
Q 1297 2916 1033 2591 
Q 769 2266 769 1634 
z
M 1616 3406 
Q 2000 3406 2259 3244 
Q 2409 3150 2600 2916 
L 2600 4606 
L 3141 4606 
L 3141 0 
L 2634 0 
L 2634 466 
Q 2438 156 2169 18 
Q 1900 -119 1553 -119 
Q 994 -119 584 351 
Q 175 822 175 1603 
Q 175 2334 548 2870 
Q 922 3406 1616 3406 
z
" id="Helvetica-64" transform="scale(0.015625)"/>
       <path id="Helvetica-20" transform="scale(0.015625)"/>
       <path d="M 2250 531 
Q 2566 531 2769 597 
Q 3131 719 3363 1066 
Q 3547 1344 3628 1778 
Q 3675 2038 3675 2259 
Q 3675 3113 3336 3584 
Q 2997 4056 2244 4056 
L 1141 4056 
L 1141 531 
L 2250 531 
z
M 516 4591 
L 2375 4591 
Q 3322 4591 3844 3919 
Q 4309 3313 4309 2366 
Q 4309 1634 4034 1044 
Q 3550 0 2369 0 
L 516 0 
L 516 4591 
z
" id="Helvetica-44" transform="scale(0.015625)"/>
       <path d="M 1806 3422 
Q 2163 3422 2497 3255 
Q 2831 3088 3006 2822 
Q 3175 2569 3231 2231 
Q 3281 2000 3281 1494 
L 828 1494 
Q 844 984 1069 676 
Q 1294 369 1766 369 
Q 2206 369 2469 659 
Q 2619 828 2681 1050 
L 3234 1050 
Q 3213 866 3089 639 
Q 2966 413 2813 269 
Q 2556 19 2178 -69 
Q 1975 -119 1719 -119 
Q 1094 -119 659 336 
Q 225 791 225 1609 
Q 225 2416 662 2919 
Q 1100 3422 1806 3422 
z
M 2703 1941 
Q 2669 2306 2544 2525 
Q 2313 2931 1772 2931 
Q 1384 2931 1121 2651 
Q 859 2372 844 1941 
L 2703 1941 
z
M 1753 3428 
L 1753 3428 
z
" id="Helvetica-65" transform="scale(0.015625)"/>
       <path d="M 688 3347 
L 1581 622 
L 2516 3347 
L 3131 3347 
L 1869 0 
L 1269 0 
L 34 3347 
L 688 3347 
z
" id="Helvetica-76" transform="scale(0.015625)"/>
       <path d="M 553 3856 
Q 566 4206 675 4369 
Q 872 4656 1434 4656 
Q 1488 4656 1544 4653 
Q 1600 4650 1672 4644 
L 1672 4131 
Q 1584 4138 1545 4139 
Q 1506 4141 1472 4141 
Q 1216 4141 1166 4008 
Q 1116 3875 1116 3331 
L 1672 3331 
L 1672 2888 
L 1109 2888 
L 1109 0 
L 553 0 
L 553 2888 
L 88 2888 
L 88 3331 
L 553 3331 
L 553 3856 
z
" id="Helvetica-66" transform="scale(0.015625)"/>
       <path d="M 975 3347 
L 975 1125 
Q 975 869 1056 706 
Q 1206 406 1616 406 
Q 2203 406 2416 931 
Q 2531 1213 2531 1703 
L 2531 3347 
L 3094 3347 
L 3094 0 
L 2563 0 
L 2569 494 
Q 2459 303 2297 172 
Q 1975 -91 1516 -91 
Q 800 -91 541 388 
Q 400 644 400 1072 
L 400 3347 
L 975 3347 
z
M 1747 3428 
L 1747 3428 
z
" id="Helvetica-75" transform="scale(0.015625)"/>
       <path d="M 369 4606 
L 916 4606 
L 916 2941 
Q 1100 3181 1356 3307 
Q 1613 3434 1913 3434 
Q 2538 3434 2927 3004 
Q 3316 2575 3316 1738 
Q 3316 944 2931 419 
Q 2547 -106 1866 -106 
Q 1484 -106 1222 78 
Q 1066 188 888 428 
L 888 0 
L 369 0 
L 369 4606 
z
M 1831 391 
Q 2288 391 2514 753 
Q 2741 1116 2741 1709 
Q 2741 2238 2514 2584 
Q 2288 2931 1847 2931 
Q 1463 2931 1173 2647 
Q 884 2363 884 1709 
Q 884 1238 1003 944 
Q 1225 391 1831 391 
z
" id="Helvetica-62" transform="scale(0.015625)"/>
       <path d="M 472 4591 
L 1363 4591 
L 2681 709 
L 3991 4591 
L 4872 4591 
L 4872 0 
L 4281 0 
L 4281 2709 
Q 4281 2850 4287 3175 
Q 4294 3500 4294 3872 
L 2984 0 
L 2369 0 
L 1050 3872 
L 1050 3731 
Q 1050 3563 1058 3217 
Q 1066 2872 1066 2709 
L 1066 0 
L 472 0 
L 472 4591 
z
" id="Helvetica-4d" transform="scale(0.015625)"/>
       <path d="M 413 3347 
L 969 3347 
L 969 2872 
Q 1169 3119 1331 3231 
Q 1609 3422 1963 3422 
Q 2363 3422 2606 3225 
Q 2744 3113 2856 2894 
Q 3044 3163 3297 3292 
Q 3550 3422 3866 3422 
Q 4541 3422 4784 2934 
Q 4916 2672 4916 2228 
L 4916 0 
L 4331 0 
L 4331 2325 
Q 4331 2659 4164 2784 
Q 3997 2909 3756 2909 
Q 3425 2909 3186 2687 
Q 2947 2466 2947 1947 
L 2947 0 
L 2375 0 
L 2375 2184 
Q 2375 2525 2294 2681 
Q 2166 2916 1816 2916 
Q 1497 2916 1236 2669 
Q 975 2422 975 1775 
L 975 0 
L 413 0 
L 413 3347 
z
" id="Helvetica-6d" transform="scale(0.015625)"/>
       <path d="M 844 891 
Q 844 647 1022 506 
Q 1200 366 1444 366 
Q 1741 366 2019 503 
Q 2488 731 2488 1250 
L 2488 1703 
Q 2384 1638 2221 1594 
Q 2059 1550 1903 1531 
L 1563 1488 
Q 1256 1447 1103 1359 
Q 844 1213 844 891 
z
M 2206 2028 
Q 2400 2053 2466 2191 
Q 2503 2266 2503 2406 
Q 2503 2694 2298 2823 
Q 2094 2953 1713 2953 
Q 1272 2953 1088 2716 
Q 984 2584 953 2325 
L 428 2325 
Q 444 2944 830 3186 
Q 1216 3428 1725 3428 
Q 2316 3428 2684 3203 
Q 3050 2978 3050 2503 
L 3050 575 
Q 3050 488 3086 434 
Q 3122 381 3238 381 
Q 3275 381 3322 386 
Q 3369 391 3422 400 
L 3422 -16 
Q 3291 -53 3222 -62 
Q 3153 -72 3034 -72 
Q 2744 -72 2613 134 
Q 2544 244 2516 444 
Q 2344 219 2022 53 
Q 1700 -113 1313 -113 
Q 847 -113 551 170 
Q 256 453 256 878 
Q 256 1344 547 1600 
Q 838 1856 1309 1916 
L 2206 2028 
z
M 1741 3428 
L 1741 3428 
z
" id="Helvetica-61" transform="scale(0.015625)"/>
       <path d="M 1703 3444 
Q 2269 3444 2623 3169 
Q 2978 2894 3050 2222 
L 2503 2222 
Q 2453 2531 2275 2736 
Q 2097 2941 1703 2941 
Q 1166 2941 934 2416 
Q 784 2075 784 1575 
Q 784 1072 996 728 
Q 1209 384 1666 384 
Q 2016 384 2220 598 
Q 2425 813 2503 1184 
L 3050 1184 
Q 2956 519 2581 211 
Q 2206 -97 1622 -97 
Q 966 -97 575 383 
Q 184 863 184 1581 
Q 184 2463 612 2953 
Q 1041 3444 1703 3444 
z
M 1616 3428 
L 1616 3428 
z
" id="Helvetica-63" transform="scale(0.015625)"/>
       <path d="M 413 4606 
L 975 4606 
L 975 2894 
Q 1175 3147 1334 3250 
Q 1606 3428 2013 3428 
Q 2741 3428 3000 2919 
Q 3141 2641 3141 2147 
L 3141 0 
L 2563 0 
L 2563 2109 
Q 2563 2478 2469 2650 
Q 2316 2925 1894 2925 
Q 1544 2925 1259 2684 
Q 975 2444 975 1775 
L 975 0 
L 413 0 
L 413 4606 
z
" id="Helvetica-68" transform="scale(0.015625)"/>
      </defs>
      <use xlink:href="#Helvetica-53"/>
      <use x="66.699219" xlink:href="#Helvetica-74"/>
      <use x="94.482422" xlink:href="#Helvetica-64"/>
      <use x="150.097656" xlink:href="#Helvetica-20"/>
      <use x="177.880859" xlink:href="#Helvetica-44"/>
      <use x="250.097656" xlink:href="#Helvetica-65"/>
      <use x="305.712891" xlink:href="#Helvetica-76"/>
      <use x="355.712891" xlink:href="#Helvetica-20"/>
      <use x="383.496094" xlink:href="#Helvetica-6f"/>
      <use x="439.111328" xlink:href="#Helvetica-66"/>
      <use x="466.894531" xlink:href="#Helvetica-20"/>
      <use x="494.677734" xlink:href="#Helvetica-53"/>
      <use x="561.376953" xlink:href="#Helvetica-75"/>
      <use x="616.992188" xlink:href="#Helvetica-62"/>
      <use x="672.607422" xlink:href="#Helvetica-75"/>
      <use x="728.222656" xlink:href="#Helvetica-6e"/>
      <use x="783.837891" xlink:href="#Helvetica-69"/>
      <use x="806.054688" xlink:href="#Helvetica-74"/>
      <use x="833.837891" xlink:href="#Helvetica-20"/>
      <use x="861.621094" xlink:href="#Helvetica-4d"/>
      <use x="944.921875" xlink:href="#Helvetica-69"/>
      <use x="967.138672" xlink:href="#Helvetica-73"/>
      <use x="1017.138672" xlink:href="#Helvetica-6d"/>
      <use x="1100.439453" xlink:href="#Helvetica-61"/>
      <use x="1156.054688" xlink:href="#Helvetica-74"/>
      <use x="1183.837891" xlink:href="#Helvetica-63"/>
      <use x="1233.837891" xlink:href="#Helvetica-68"/>
     </g>
    </g>
   </g>
   <g id="PolyCollection_1">
    <defs>
     <path d="M 110.787273 -220.407429 
L 110.787273 -119.710202 
L 125.805455 -111.860261 
L 140.823636 -112.715436 
L 155.841818 -131.580706 
L 170.86 -112.278299 
L 185.878182 -124.320355 
L 200.896364 -112.715436 
L 215.914545 -126.987102 
L 230.932727 -139.703369 
L 245.950909 -131.580706 
L 260.969091 -119.2056 
L 275.987273 -94.605659 
L 291.005455 -124.824688 
L 306.023636 -133.89966 
L 321.041818 -118.244318 
L 336.06 -146.830537 
L 351.078182 -125.87818 
L 366.096364 -119.2056 
L 381.114545 -106.053652 
L 396.132727 -111.860261 
L 396.132727 -203.713746 
L 396.132727 -203.713746 
L 381.114545 -195.350088 
L 366.096364 -218.318692 
L 351.078182 -228.409718 
L 336.06 -257.748182 
L 321.041818 -214.093296 
L 306.023636 -242.338524 
L 291.005455 -224.276533 
L 275.987273 -175.864206 
L 260.969091 -218.318692 
L 245.950909 -234.284121 
L 230.932727 -248.111743 
L 215.914545 -232.487475 
L 200.896364 -208.045249 
L 185.878182 -222.187527 
L 170.86 -205.889047 
L 155.841818 -234.284121 
L 140.823636 -208.045249 
L 125.805455 -203.713746 
L 110.787273 -220.407429 
z
" id="me7e3facd0d" style="stroke:#808080;stroke-opacity:0.2;"/>
    </defs>
    <g clip-path="url(#p7beeacbac0)">
     <use style="fill:#808080;fill-opacity:0.2;stroke:#808080;stroke-opacity:0.2;" x="0" xlink:href="#me7e3facd0d" y="288"/>
    </g>
   </g>
   <g id="PolyCollection_2">
    <defs>
     <path d="M 110.787273 -88.139238 
L 110.787273 -88.139238 
L 125.805455 -88.139238 
L 140.823636 -88.139238 
L 155.841818 -88.139238 
L 170.86 -88.139238 
L 185.878182 -88.139238 
L 200.896364 -88.139238 
L 215.914545 -88.139238 
L 230.932727 -88.139238 
L 245.950909 -88.139238 
L 260.969091 -88.139238 
L 275.987273 -88.139238 
L 291.005455 -88.139238 
L 306.023636 -88.139238 
L 321.041818 -88.139238 
L 336.06 -88.139238 
L 351.078182 -88.139238 
L 366.096364 -88.139238 
L 381.114545 -88.139238 
L 396.132727 -88.139238 
L 396.132727 -88.139238 
L 396.132727 -88.139238 
L 381.114545 -88.139238 
L 366.096364 -88.139238 
L 351.078182 -88.139238 
L 336.06 -88.139238 
L 321.041818 -88.139238 
L 306.023636 -88.139238 
L 291.005455 -88.139238 
L 275.987273 -88.139238 
L 260.969091 -88.139238 
L 245.950909 -88.139238 
L 230.932727 -88.139238 
L 215.914545 -88.139238 
L 200.896364 -88.139238 
L 185.878182 -88.139238 
L 170.86 -88.139238 
L 155.841818 -88.139238 
L 140.823636 -88.139238 
L 125.805455 -88.139238 
L 110.787273 -88.139238 
z
" id="m3585fe59e3" style="stroke:#ff7f0e;stroke-opacity:0.2;"/>
    </defs>
    <g clip-path="url(#p7beeacbac0)">
     <use style="fill:#ff7f0e;fill-opacity:0.2;stroke:#ff7f0e;stroke-opacity:0.2;" x="0" xlink:href="#m3585fe59e3" y="288"/>
    </g>
   </g>
   <g id="PolyCollection_3">
    <defs>
     <path d="M 110.787273 -154.306636 
L 110.787273 -89.026267 
L 125.805455 -105.064701 
L 140.823636 -93.954259 
L 155.841818 -130.499728 
L 170.86 -117.352601 
L 185.878182 -99.332858 
L 200.896364 -105.064701 
L 215.914545 -93.954259 
L 230.932727 -99.332858 
L 245.950909 -99.332858 
L 260.969091 -99.332858 
L 275.987273 -105.064701 
L 291.005455 -117.352601 
L 306.023636 -123.831944 
L 321.041818 -84.711818 
L 336.06 -89.026267 
L 351.078182 -105.064701 
L 366.096364 -99.332858 
L 381.114545 -99.332858 
L 396.132727 -99.332858 
L 396.132727 -177.527258 
L 396.132727 -177.527258 
L 381.114545 -177.527258 
L 366.096364 -177.527258 
L 351.078182 -188.559022 
L 336.06 -154.306636 
L 321.041818 -141.857478 
L 306.023636 -220.082598 
L 291.005455 -209.798335 
L 275.987273 -188.559022 
L 260.969091 -177.527258 
L 245.950909 -177.527258 
L 230.932727 -177.527258 
L 215.914545 -166.14225 
L 200.896364 -188.559022 
L 185.878182 -177.527258 
L 170.86 -209.798335 
L 155.841818 -230.178422 
L 140.823636 -166.14225 
L 125.805455 -188.559022 
L 110.787273 -154.306636 
z
" id="m26e1dfdbf6" style="stroke:#1f77b4;stroke-opacity:0.2;"/>
    </defs>
    <g clip-path="url(#p7beeacbac0)">
     <use style="fill:#1f77b4;fill-opacity:0.2;stroke:#1f77b4;stroke-opacity:0.2;" x="0" xlink:href="#m26e1dfdbf6" y="288"/>
    </g>
   </g>
   <g id="line2d_7">
    <path clip-path="url(#p7beeacbac0)" d="M 110.787273 117.941184 
L 125.805455 130.212996 
L 140.823636 127.619657 
L 155.841818 105.067586 
L 170.86 128.916327 
L 185.878182 114.746059 
L 200.896364 127.619657 
L 215.914545 108.262712 
L 230.932727 94.092444 
L 245.950909 105.067586 
L 260.969091 119.237854 
L 275.987273 152.765067 
L 291.005455 113.44939 
L 306.023636 99.880908 
L 321.041818 121.831193 
L 336.06 85.710641 
L 351.078182 110.856051 
L 366.096364 119.237854 
L 381.114545 137.29813 
L 396.132727 130.212996 
" style="fill:none;stroke:#808080;stroke-linecap:round;stroke-opacity:0.8;stroke-width:0.7;"/>
    <defs>
     <path d="M -0 2.5 
L 2.5 -2.5 
L -2.5 -2.5 
z
" id="m2fe187bd56" style="stroke:#000000;stroke-linejoin:miter;stroke-opacity:0.8;"/>
    </defs>
    <g clip-path="url(#p7beeacbac0)">
     <use style="fill:#808080;fill-opacity:0.8;stroke:#000000;stroke-linejoin:miter;stroke-opacity:0.8;" x="110.787273" xlink:href="#m2fe187bd56" y="117.941184"/>
     <use style="fill:#808080;fill-opacity:0.8;stroke:#000000;stroke-linejoin:miter;stroke-opacity:0.8;" x="125.805455" xlink:href="#m2fe187bd56" y="130.212996"/>
     <use style="fill:#808080;fill-opacity:0.8;stroke:#000000;stroke-linejoin:miter;stroke-opacity:0.8;" x="140.823636" xlink:href="#m2fe187bd56" y="127.619657"/>
     <use style="fill:#808080;fill-opacity:0.8;stroke:#000000;stroke-linejoin:miter;stroke-opacity:0.8;" x="155.841818" xlink:href="#m2fe187bd56" y="105.067586"/>
     <use style="fill:#808080;fill-opacity:0.8;stroke:#000000;stroke-linejoin:miter;stroke-opacity:0.8;" x="170.86" xlink:href="#m2fe187bd56" y="128.916327"/>
     <use style="fill:#808080;fill-opacity:0.8;stroke:#000000;stroke-linejoin:miter;stroke-opacity:0.8;" x="185.878182" xlink:href="#m2fe187bd56" y="114.746059"/>
     <use style="fill:#808080;fill-opacity:0.8;stroke:#000000;stroke-linejoin:miter;stroke-opacity:0.8;" x="200.896364" xlink:href="#m2fe187bd56" y="127.619657"/>
     <use style="fill:#808080;fill-opacity:0.8;stroke:#000000;stroke-linejoin:miter;stroke-opacity:0.8;" x="215.914545" xlink:href="#m2fe187bd56" y="108.262712"/>
     <use style="fill:#808080;fill-opacity:0.8;stroke:#000000;stroke-linejoin:miter;stroke-opacity:0.8;" x="230.932727" xlink:href="#m2fe187bd56" y="94.092444"/>
     <use style="fill:#808080;fill-opacity:0.8;stroke:#000000;stroke-linejoin:miter;stroke-opacity:0.8;" x="245.950909" xlink:href="#m2fe187bd56" y="105.067586"/>
     <use style="fill:#808080;fill-opacity:0.8;stroke:#000000;stroke-linejoin:miter;stroke-opacity:0.8;" x="260.969091" xlink:href="#m2fe187bd56" y="119.237854"/>
     <use style="fill:#808080;fill-opacity:0.8;stroke:#000000;stroke-linejoin:miter;stroke-opacity:0.8;" x="275.987273" xlink:href="#m2fe187bd56" y="152.765067"/>
     <use style="fill:#808080;fill-opacity:0.8;stroke:#000000;stroke-linejoin:miter;stroke-opacity:0.8;" x="291.005455" xlink:href="#m2fe187bd56" y="113.44939"/>
     <use style="fill:#808080;fill-opacity:0.8;stroke:#000000;stroke-linejoin:miter;stroke-opacity:0.8;" x="306.023636" xlink:href="#m2fe187bd56" y="99.880908"/>
     <use style="fill:#808080;fill-opacity:0.8;stroke:#000000;stroke-linejoin:miter;stroke-opacity:0.8;" x="321.041818" xlink:href="#m2fe187bd56" y="121.831193"/>
     <use style="fill:#808080;fill-opacity:0.8;stroke:#000000;stroke-linejoin:miter;stroke-opacity:0.8;" x="336.06" xlink:href="#m2fe187bd56" y="85.710641"/>
     <use style="fill:#808080;fill-opacity:0.8;stroke:#000000;stroke-linejoin:miter;stroke-opacity:0.8;" x="351.078182" xlink:href="#m2fe187bd56" y="110.856051"/>
     <use style="fill:#808080;fill-opacity:0.8;stroke:#000000;stroke-linejoin:miter;stroke-opacity:0.8;" x="366.096364" xlink:href="#m2fe187bd56" y="119.237854"/>
     <use style="fill:#808080;fill-opacity:0.8;stroke:#000000;stroke-linejoin:miter;stroke-opacity:0.8;" x="381.114545" xlink:href="#m2fe187bd56" y="137.29813"/>
     <use style="fill:#808080;fill-opacity:0.8;stroke:#000000;stroke-linejoin:miter;stroke-opacity:0.8;" x="396.132727" xlink:href="#m2fe187bd56" y="130.212996"/>
    </g>
   </g>
   <g id="line2d_8">
    <path clip-path="url(#p7beeacbac0)" d="M 110.787273 117.941184 
L 125.805455 130.212996 
L 140.823636 127.619657 
L 155.841818 105.067586 
L 170.86 128.916327 
L 185.878182 114.746059 
L 200.896364 127.619657 
L 215.914545 108.262712 
L 230.932727 94.092444 
L 245.950909 105.067586 
L 260.969091 119.237854 
L 275.987273 152.765067 
L 291.005455 113.44939 
L 306.023636 99.880908 
L 321.041818 121.831193 
L 336.06 85.710641 
L 351.078182 110.856051 
L 366.096364 119.237854 
L 381.114545 137.29813 
L 396.132727 130.212996 
" style="fill:none;stroke:#808080;stroke-linecap:round;stroke-width:0.7;"/>
   </g>
   <g id="line2d_9">
    <path clip-path="url(#p7beeacbac0)" d="M 110.787273 168.289798 
L 125.805455 176.139739 
L 140.823636 175.284564 
L 155.841818 156.419294 
L 170.86 175.721701 
L 185.878182 163.679645 
L 200.896364 175.284564 
L 215.914545 161.012898 
L 230.932727 148.296631 
L 245.950909 156.419294 
L 260.969091 168.7944 
L 275.987273 193.394341 
L 291.005455 163.175312 
L 306.023636 154.10034 
L 321.041818 169.755682 
L 336.06 141.169463 
L 351.078182 162.12182 
L 366.096364 168.7944 
L 381.114545 181.946348 
L 396.132727 176.139739 
" style="fill:none;stroke:#808080;stroke-dasharray:1.85,0.8;stroke-dashoffset:0;stroke-width:0.5;"/>
   </g>
   <g id="line2d_10">
    <path clip-path="url(#p7beeacbac0)" d="M 110.787273 67.592571 
L 125.805455 84.286254 
L 140.823636 79.954751 
L 155.841818 53.715879 
L 170.86 82.110953 
L 185.878182 65.812473 
L 200.896364 79.954751 
L 215.914545 55.512525 
L 230.932727 39.888257 
L 245.950909 53.715879 
L 260.969091 69.681308 
L 275.987273 112.135794 
L 291.005455 63.723467 
L 306.023636 45.661476 
L 321.041818 73.906704 
L 336.06 30.251818 
L 351.078182 59.590282 
L 366.096364 69.681308 
L 381.114545 92.649912 
L 396.132727 84.286254 
" style="fill:none;stroke:#808080;stroke-dasharray:1.85,0.8;stroke-dashoffset:0;stroke-width:0.5;"/>
   </g>
   <g id="line2d_11">
    <path clip-path="url(#p7beeacbac0)" d="M 110.787273 199.860762 
L 125.805455 199.860762 
L 140.823636 199.860762 
L 155.841818 199.860762 
L 170.86 199.860762 
L 185.878182 199.860762 
L 200.896364 199.860762 
L 215.914545 199.860762 
L 230.932727 199.860762 
L 245.950909 199.860762 
L 260.969091 199.860762 
L 275.987273 199.860762 
L 291.005455 199.860762 
L 306.023636 199.860762 
L 321.041818 199.860762 
L 336.06 199.860762 
L 351.078182 199.860762 
L 366.096364 199.860762 
L 381.114545 199.860762 
L 396.132727 199.860762 
" style="fill:none;stroke:#ff7f0e;stroke-linecap:round;stroke-opacity:0.8;stroke-width:0.7;"/>
    <defs>
     <path d="M 0 -2.5 
L -2.5 2.5 
L 2.5 2.5 
z
" id="mff480da0f7" style="stroke:#000000;stroke-linejoin:miter;stroke-opacity:0.8;"/>
    </defs>
    <g clip-path="url(#p7beeacbac0)">
     <use style="fill:#ff7f0e;fill-opacity:0.8;stroke:#000000;stroke-linejoin:miter;stroke-opacity:0.8;" x="110.787273" xlink:href="#mff480da0f7" y="199.860762"/>
     <use style="fill:#ff7f0e;fill-opacity:0.8;stroke:#000000;stroke-linejoin:miter;stroke-opacity:0.8;" x="125.805455" xlink:href="#mff480da0f7" y="199.860762"/>
     <use style="fill:#ff7f0e;fill-opacity:0.8;stroke:#000000;stroke-linejoin:miter;stroke-opacity:0.8;" x="140.823636" xlink:href="#mff480da0f7" y="199.860762"/>
     <use style="fill:#ff7f0e;fill-opacity:0.8;stroke:#000000;stroke-linejoin:miter;stroke-opacity:0.8;" x="155.841818" xlink:href="#mff480da0f7" y="199.860762"/>
     <use style="fill:#ff7f0e;fill-opacity:0.8;stroke:#000000;stroke-linejoin:miter;stroke-opacity:0.8;" x="170.86" xlink:href="#mff480da0f7" y="199.860762"/>
     <use style="fill:#ff7f0e;fill-opacity:0.8;stroke:#000000;stroke-linejoin:miter;stroke-opacity:0.8;" x="185.878182" xlink:href="#mff480da0f7" y="199.860762"/>
     <use style="fill:#ff7f0e;fill-opacity:0.8;stroke:#000000;stroke-linejoin:miter;stroke-opacity:0.8;" x="200.896364" xlink:href="#mff480da0f7" y="199.860762"/>
     <use style="fill:#ff7f0e;fill-opacity:0.8;stroke:#000000;stroke-linejoin:miter;stroke-opacity:0.8;" x="215.914545" xlink:href="#mff480da0f7" y="199.860762"/>
     <use style="fill:#ff7f0e;fill-opacity:0.8;stroke:#000000;stroke-linejoin:miter;stroke-opacity:0.8;" x="230.932727" xlink:href="#mff480da0f7" y="199.860762"/>
     <use style="fill:#ff7f0e;fill-opacity:0.8;stroke:#000000;stroke-linejoin:miter;stroke-opacity:0.8;" x="245.950909" xlink:href="#mff480da0f7" y="199.860762"/>
     <use style="fill:#ff7f0e;fill-opacity:0.8;stroke:#000000;stroke-linejoin:miter;stroke-opacity:0.8;" x="260.969091" xlink:href="#mff480da0f7" y="199.860762"/>
     <use style="fill:#ff7f0e;fill-opacity:0.8;stroke:#000000;stroke-linejoin:miter;stroke-opacity:0.8;" x="275.987273" xlink:href="#mff480da0f7" y="199.860762"/>
     <use style="fill:#ff7f0e;fill-opacity:0.8;stroke:#000000;stroke-linejoin:miter;stroke-opacity:0.8;" x="291.005455" xlink:href="#mff480da0f7" y="199.860762"/>
     <use style="fill:#ff7f0e;fill-opacity:0.8;stroke:#000000;stroke-linejoin:miter;stroke-opacity:0.8;" x="306.023636" xlink:href="#mff480da0f7" y="199.860762"/>
     <use style="fill:#ff7f0e;fill-opacity:0.8;stroke:#000000;stroke-linejoin:miter;stroke-opacity:0.8;" x="321.041818" xlink:href="#mff480da0f7" y="199.860762"/>
     <use style="fill:#ff7f0e;fill-opacity:0.8;stroke:#000000;stroke-linejoin:miter;stroke-opacity:0.8;" x="336.06" xlink:href="#mff480da0f7" y="199.860762"/>
     <use style="fill:#ff7f0e;fill-opacity:0.8;stroke:#000000;stroke-linejoin:miter;stroke-opacity:0.8;" x="351.078182" xlink:href="#mff480da0f7" y="199.860762"/>
     <use style="fill:#ff7f0e;fill-opacity:0.8;stroke:#000000;stroke-linejoin:miter;stroke-opacity:0.8;" x="366.096364" xlink:href="#mff480da0f7" y="199.860762"/>
     <use style="fill:#ff7f0e;fill-opacity:0.8;stroke:#000000;stroke-linejoin:miter;stroke-opacity:0.8;" x="381.114545" xlink:href="#mff480da0f7" y="199.860762"/>
     <use style="fill:#ff7f0e;fill-opacity:0.8;stroke:#000000;stroke-linejoin:miter;stroke-opacity:0.8;" x="396.132727" xlink:href="#mff480da0f7" y="199.860762"/>
    </g>
   </g>
   <g id="line2d_12">
    <path clip-path="url(#p7beeacbac0)" d="M 110.787273 199.860762 
L 125.805455 199.860762 
L 140.823636 199.860762 
L 155.841818 199.860762 
L 170.86 199.860762 
L 185.878182 199.860762 
L 200.896364 199.860762 
L 215.914545 199.860762 
L 230.932727 199.860762 
L 245.950909 199.860762 
L 260.969091 199.860762 
L 275.987273 199.860762 
L 291.005455 199.860762 
L 306.023636 199.860762 
L 321.041818 199.860762 
L 336.06 199.860762 
L 351.078182 199.860762 
L 366.096364 199.860762 
L 381.114545 199.860762 
L 396.132727 199.860762 
" style="fill:none;stroke:#ff7f0e;stroke-linecap:round;stroke-width:0.7;"/>
   </g>
   <g id="line2d_13">
    <path clip-path="url(#p7beeacbac0)" d="M 110.787273 199.860762 
L 125.805455 199.860762 
L 140.823636 199.860762 
L 155.841818 199.860762 
L 170.86 199.860762 
L 185.878182 199.860762 
L 200.896364 199.860762 
L 215.914545 199.860762 
L 230.932727 199.860762 
L 245.950909 199.860762 
L 260.969091 199.860762 
L 275.987273 199.860762 
L 291.005455 199.860762 
L 306.023636 199.860762 
L 321.041818 199.860762 
L 336.06 199.860762 
L 351.078182 199.860762 
L 366.096364 199.860762 
L 381.114545 199.860762 
L 396.132727 199.860762 
" style="fill:none;stroke:#ff7f0e;stroke-dasharray:1.85,0.8;stroke-dashoffset:0;stroke-width:0.5;"/>
   </g>
   <g id="line2d_14">
    <path clip-path="url(#p7beeacbac0)" d="M 110.787273 199.860762 
L 125.805455 199.860762 
L 140.823636 199.860762 
L 155.841818 199.860762 
L 170.86 199.860762 
L 185.878182 199.860762 
L 200.896364 199.860762 
L 215.914545 199.860762 
L 230.932727 199.860762 
L 245.950909 199.860762 
L 260.969091 199.860762 
L 275.987273 199.860762 
L 291.005455 199.860762 
L 306.023636 199.860762 
L 321.041818 199.860762 
L 336.06 199.860762 
L 351.078182 199.860762 
L 366.096364 199.860762 
L 381.114545 199.860762 
L 396.132727 199.860762 
" style="fill:none;stroke:#ff7f0e;stroke-dasharray:1.85,0.8;stroke-dashoffset:0;stroke-width:0.5;"/>
   </g>
   <g id="line2d_15">
    <path clip-path="url(#p7beeacbac0)" d="M 110.787273 166.333549 
L 125.805455 141.188139 
L 140.823636 157.951745 
L 155.841818 107.660925 
L 170.86 124.424532 
L 185.878182 149.569942 
L 200.896364 141.188139 
L 215.914545 157.951745 
L 230.932727 149.569942 
L 245.950909 149.569942 
L 260.969091 149.569942 
L 275.987273 141.188139 
L 291.005455 124.424532 
L 306.023636 116.042729 
L 321.041818 174.715352 
L 336.06 166.333549 
L 351.078182 141.188139 
L 366.096364 149.569942 
L 381.114545 149.569942 
L 396.132727 149.569942 
" style="fill:none;stroke:#1f77b4;stroke-linecap:round;stroke-opacity:0.8;stroke-width:0.7;"/>
    <defs>
     <path d="M 0 2.5 
C 0.663008 2.5 1.29895 2.236584 1.767767 1.767767 
C 2.236584 1.29895 2.5 0.663008 2.5 0 
C 2.5 -0.663008 2.236584 -1.29895 1.767767 -1.767767 
C 1.29895 -2.236584 0.663008 -2.5 0 -2.5 
C -0.663008 -2.5 -1.29895 -2.236584 -1.767767 -1.767767 
C -2.236584 -1.29895 -2.5 -0.663008 -2.5 0 
C -2.5 0.663008 -2.236584 1.29895 -1.767767 1.767767 
C -1.29895 2.236584 -0.663008 2.5 0 2.5 
z
" id="m0e0b663321" style="stroke:#000000;stroke-opacity:0.8;"/>
    </defs>
    <g clip-path="url(#p7beeacbac0)">
     <use style="fill:#1f77b4;fill-opacity:0.8;stroke:#000000;stroke-opacity:0.8;" x="110.787273" xlink:href="#m0e0b663321" y="166.333549"/>
     <use style="fill:#1f77b4;fill-opacity:0.8;stroke:#000000;stroke-opacity:0.8;" x="125.805455" xlink:href="#m0e0b663321" y="141.188139"/>
     <use style="fill:#1f77b4;fill-opacity:0.8;stroke:#000000;stroke-opacity:0.8;" x="140.823636" xlink:href="#m0e0b663321" y="157.951745"/>
     <use style="fill:#1f77b4;fill-opacity:0.8;stroke:#000000;stroke-opacity:0.8;" x="155.841818" xlink:href="#m0e0b663321" y="107.660925"/>
     <use style="fill:#1f77b4;fill-opacity:0.8;stroke:#000000;stroke-opacity:0.8;" x="170.86" xlink:href="#m0e0b663321" y="124.424532"/>
     <use style="fill:#1f77b4;fill-opacity:0.8;stroke:#000000;stroke-opacity:0.8;" x="185.878182" xlink:href="#m0e0b663321" y="149.569942"/>
     <use style="fill:#1f77b4;fill-opacity:0.8;stroke:#000000;stroke-opacity:0.8;" x="200.896364" xlink:href="#m0e0b663321" y="141.188139"/>
     <use style="fill:#1f77b4;fill-opacity:0.8;stroke:#000000;stroke-opacity:0.8;" x="215.914545" xlink:href="#m0e0b663321" y="157.951745"/>
     <use style="fill:#1f77b4;fill-opacity:0.8;stroke:#000000;stroke-opacity:0.8;" x="230.932727" xlink:href="#m0e0b663321" y="149.569942"/>
     <use style="fill:#1f77b4;fill-opacity:0.8;stroke:#000000;stroke-opacity:0.8;" x="245.950909" xlink:href="#m0e0b663321" y="149.569942"/>
     <use style="fill:#1f77b4;fill-opacity:0.8;stroke:#000000;stroke-opacity:0.8;" x="260.969091" xlink:href="#m0e0b663321" y="149.569942"/>
     <use style="fill:#1f77b4;fill-opacity:0.8;stroke:#000000;stroke-opacity:0.8;" x="275.987273" xlink:href="#m0e0b663321" y="141.188139"/>
     <use style="fill:#1f77b4;fill-opacity:0.8;stroke:#000000;stroke-opacity:0.8;" x="291.005455" xlink:href="#m0e0b663321" y="124.424532"/>
     <use style="fill:#1f77b4;fill-opacity:0.8;stroke:#000000;stroke-opacity:0.8;" x="306.023636" xlink:href="#m0e0b663321" y="116.042729"/>
     <use style="fill:#1f77b4;fill-opacity:0.8;stroke:#000000;stroke-opacity:0.8;" x="321.041818" xlink:href="#m0e0b663321" y="174.715352"/>
     <use style="fill:#1f77b4;fill-opacity:0.8;stroke:#000000;stroke-opacity:0.8;" x="336.06" xlink:href="#m0e0b663321" y="166.333549"/>
     <use style="fill:#1f77b4;fill-opacity:0.8;stroke:#000000;stroke-opacity:0.8;" x="351.078182" xlink:href="#m0e0b663321" y="141.188139"/>
     <use style="fill:#1f77b4;fill-opacity:0.8;stroke:#000000;stroke-opacity:0.8;" x="366.096364" xlink:href="#m0e0b663321" y="149.569942"/>
     <use style="fill:#1f77b4;fill-opacity:0.8;stroke:#000000;stroke-opacity:0.8;" x="381.114545" xlink:href="#m0e0b663321" y="149.569942"/>
     <use style="fill:#1f77b4;fill-opacity:0.8;stroke:#000000;stroke-opacity:0.8;" x="396.132727" xlink:href="#m0e0b663321" y="149.569942"/>
    </g>
   </g>
   <g id="line2d_16">
    <path clip-path="url(#p7beeacbac0)" d="M 110.787273 166.333549 
L 125.805455 141.188139 
L 140.823636 157.951745 
L 155.841818 107.660925 
L 170.86 124.424532 
L 185.878182 149.569942 
L 200.896364 141.188139 
L 215.914545 157.951745 
L 230.932727 149.569942 
L 245.950909 149.569942 
L 260.969091 149.569942 
L 275.987273 141.188139 
L 291.005455 124.424532 
L 306.023636 116.042729 
L 321.041818 174.715352 
L 336.06 166.333549 
L 351.078182 141.188139 
L 366.096364 149.569942 
L 381.114545 149.569942 
L 396.132727 149.569942 
" style="fill:none;stroke:#1f77b4;stroke-linecap:round;stroke-width:0.7;"/>
   </g>
   <g id="line2d_17">
    <path clip-path="url(#p7beeacbac0)" d="M 110.787273 198.973733 
L 125.805455 182.935299 
L 140.823636 194.045741 
L 155.841818 157.500272 
L 170.86 170.647399 
L 185.878182 188.667142 
L 200.896364 182.935299 
L 215.914545 194.045741 
L 230.932727 188.667142 
L 245.950909 188.667142 
L 260.969091 188.667142 
L 275.987273 182.935299 
L 291.005455 170.647399 
L 306.023636 164.168056 
L 321.041818 203.288182 
L 336.06 198.973733 
L 351.078182 182.935299 
L 366.096364 188.667142 
L 381.114545 188.667142 
L 396.132727 188.667142 
" style="fill:none;stroke:#1f77b4;stroke-dasharray:1.85,0.8;stroke-dashoffset:0;stroke-width:0.5;"/>
   </g>
   <g id="line2d_18">
    <path clip-path="url(#p7beeacbac0)" d="M 110.787273 133.693364 
L 125.805455 99.440978 
L 140.823636 121.85775 
L 155.841818 57.821578 
L 170.86 78.201665 
L 185.878182 110.472742 
L 200.896364 99.440978 
L 215.914545 121.85775 
L 230.932727 110.472742 
L 245.950909 110.472742 
L 260.969091 110.472742 
L 275.987273 99.440978 
L 291.005455 78.201665 
L 306.023636 67.917402 
L 321.041818 146.142522 
L 336.06 133.693364 
L 351.078182 99.440978 
L 366.096364 110.472742 
L 381.114545 110.472742 
L 396.132727 110.472742 
" style="fill:none;stroke:#1f77b4;stroke-dasharray:1.85,0.8;stroke-dashoffset:0;stroke-width:0.5;"/>
   </g>
   <g id="patch_3">
    <path d="M 96.52 211.94 
L 96.52 21.6 
" style="fill:none;stroke:#cccccc;stroke-linecap:square;stroke-linejoin:miter;stroke-width:0.8;"/>
   </g>
   <g id="patch_4">
    <path d="M 96.52 211.94 
L 410.4 211.94 
" style="fill:none;stroke:#cccccc;stroke-linecap:square;stroke-linejoin:miter;stroke-width:0.8;"/>
   </g>
   <g id="legend_1">
    <g id="patch_5">
     <path d="M 110.52 123.146875 
L 283.460625 123.146875 
Q 287.460625 123.146875 287.460625 119.146875 
L 287.460625 35.6 
Q 287.460625 31.6 283.460625 31.6 
L 110.52 31.6 
Q 106.52 31.6 106.52 35.6 
L 106.52 119.146875 
Q 106.52 123.146875 110.52 123.146875 
z
" style="fill:#ffffff;opacity:0.8;stroke:#cccccc;stroke-linejoin:miter;"/>
    </g>
    <g id="line2d_19">
     <path d="M 114.52 46.946875 
L 154.52 46.946875 
" style="fill:none;stroke:#808080;stroke-linecap:round;stroke-opacity:0.8;stroke-width:0.7;"/>
    </g>
    <g id="line2d_20">
     <g>
      <use style="fill:#808080;fill-opacity:0.8;stroke:#000000;stroke-linejoin:miter;stroke-opacity:0.8;" x="134.52" xlink:href="#m2fe187bd56" y="46.946875"/>
     </g>
    </g>
    <g id="text_9">
     <!-- Random -->
     <g style="fill:#262626;" transform="translate(170.52 53.946875)scale(0.2 -0.2)">
      <defs>
       <path d="M 2622 2488 
Q 3059 2488 3314 2663 
Q 3569 2838 3569 3294 
Q 3569 3784 3213 3963 
Q 3022 4056 2703 4056 
L 1184 4056 
L 1184 2488 
L 2622 2488 
z
M 563 4591 
L 2688 4591 
Q 3213 4591 3553 4438 
Q 4200 4144 4200 3353 
Q 4200 2941 4029 2678 
Q 3859 2416 3553 2256 
Q 3822 2147 3958 1969 
Q 4094 1791 4109 1391 
L 4131 775 
Q 4141 513 4175 384 
Q 4231 166 4375 103 
L 4375 0 
L 3613 0 
Q 3581 59 3562 153 
Q 3544 247 3531 516 
L 3494 1281 
Q 3472 1731 3159 1884 
Q 2981 1969 2600 1969 
L 1184 1969 
L 1184 0 
L 563 0 
L 563 4591 
z
" id="Helvetica-52" transform="scale(0.015625)"/>
      </defs>
      <use xlink:href="#Helvetica-52"/>
      <use x="72.216797" xlink:href="#Helvetica-61"/>
      <use x="127.832031" xlink:href="#Helvetica-6e"/>
      <use x="183.447266" xlink:href="#Helvetica-64"/>
      <use x="239.0625" xlink:href="#Helvetica-6f"/>
      <use x="294.677734" xlink:href="#Helvetica-6d"/>
     </g>
    </g>
    <g id="line2d_21">
     <path d="M 114.52 75.4625 
L 154.52 75.4625 
" style="fill:none;stroke:#ff7f0e;stroke-linecap:round;stroke-opacity:0.8;stroke-width:0.7;"/>
    </g>
    <g id="line2d_22">
     <g>
      <use style="fill:#ff7f0e;fill-opacity:0.8;stroke:#000000;stroke-linejoin:miter;stroke-opacity:0.8;" x="134.52" xlink:href="#mff480da0f7" y="75.4625"/>
     </g>
    </g>
    <g id="text_10">
     <!-- Bottom 10% -->
     <g style="fill:#262626;" transform="translate(170.52 82.4625)scale(0.2 -0.2)">
      <defs>
       <path d="M 2213 2650 
Q 2606 2650 2825 2759 
Q 3169 2931 3169 3378 
Q 3169 3828 2803 3984 
Q 2597 4072 2191 4072 
L 1081 4072 
L 1081 2650 
L 2213 2650 
z
M 2422 531 
Q 2994 531 3238 863 
Q 3391 1072 3391 1369 
Q 3391 1869 2944 2050 
Q 2706 2147 2316 2147 
L 1081 2147 
L 1081 531 
L 2422 531 
z
M 472 4591 
L 2444 4591 
Q 3250 4591 3591 4109 
Q 3791 3825 3791 3453 
Q 3791 3019 3544 2741 
Q 3416 2594 3175 2472 
Q 3528 2338 3703 2169 
Q 4013 1869 4013 1341 
Q 4013 897 3734 538 
Q 3319 0 2413 0 
L 472 0 
L 472 4591 
z
" id="Helvetica-42" transform="scale(0.015625)"/>
       <path d="M 4363 2175 
Q 4813 2175 5131 1856 
Q 5450 1538 5450 1088 
Q 5450 638 5131 319 
Q 4813 0 4363 0 
Q 3909 0 3590 319 
Q 3272 638 3272 1088 
Q 3272 1538 3590 1856 
Q 3909 2175 4363 2175 
z
M 3909 4456 
L 4256 4456 
L 1753 -119 
L 1406 -119 
L 3909 4456 
z
M 1294 2606 
Q 1563 2606 1752 2795 
Q 1941 2984 1941 3250 
Q 1941 3516 1752 3705 
Q 1563 3894 1294 3894 
Q 1028 3894 839 3706 
Q 650 3519 650 3250 
Q 650 2984 839 2795 
Q 1028 2606 1294 2606 
z
M 1294 4341 
Q 1747 4341 2065 4020 
Q 2384 3700 2384 3250 
Q 2384 2800 2065 2481 
Q 1747 2163 1294 2163 
Q 844 2163 525 2481 
Q 206 2800 206 3250 
Q 206 3700 525 4020 
Q 844 4341 1294 4341 
z
M 4363 444 
Q 4628 444 4817 633 
Q 5006 822 5006 1088 
Q 5006 1353 4817 1542 
Q 4628 1731 4363 1731 
Q 4094 1731 3905 1542 
Q 3716 1353 3716 1088 
Q 3716 822 3905 633 
Q 4094 444 4363 444 
z
" id="Helvetica-25" transform="scale(0.015625)"/>
      </defs>
      <use xlink:href="#Helvetica-42"/>
      <use x="66.699219" xlink:href="#Helvetica-6f"/>
      <use x="122.314453" xlink:href="#Helvetica-74"/>
      <use x="150.097656" xlink:href="#Helvetica-74"/>
      <use x="177.880859" xlink:href="#Helvetica-6f"/>
      <use x="233.496094" xlink:href="#Helvetica-6d"/>
      <use x="316.796875" xlink:href="#Helvetica-20"/>
      <use x="344.580078" xlink:href="#Helvetica-31"/>
      <use x="400.195312" xlink:href="#Helvetica-30"/>
      <use x="455.810547" xlink:href="#Helvetica-25"/>
     </g>
    </g>
    <g id="line2d_23">
     <path d="M 114.52 103.978125 
L 154.52 103.978125 
" style="fill:none;stroke:#1f77b4;stroke-linecap:round;stroke-opacity:0.8;stroke-width:0.7;"/>
    </g>
    <g id="line2d_24">
     <g>
      <use style="fill:#1f77b4;fill-opacity:0.8;stroke:#000000;stroke-opacity:0.8;" x="134.52" xlink:href="#m0e0b663321" y="103.978125"/>
     </g>
    </g>
    <g id="text_11">
     <!-- Top 10% -->
     <g style="fill:#262626;" transform="translate(170.52 110.978125)scale(0.2 -0.2)">
      <defs>
       <path d="M 3828 4591 
L 3828 4044 
L 2281 4044 
L 2281 0 
L 1650 0 
L 1650 4044 
L 103 4044 
L 103 4591 
L 3828 4591 
z
" id="Helvetica-54" transform="scale(0.015625)"/>
       <path d="M 1825 378 
Q 2219 378 2480 708 
Q 2741 1038 2741 1694 
Q 2741 2094 2625 2381 
Q 2406 2934 1825 2934 
Q 1241 2934 1025 2350 
Q 909 2038 909 1556 
Q 909 1169 1025 897 
Q 1244 378 1825 378 
z
M 369 3331 
L 916 3331 
L 916 2888 
Q 1084 3116 1284 3241 
Q 1569 3428 1953 3428 
Q 2522 3428 2919 2992 
Q 3316 2556 3316 1747 
Q 3316 653 2744 184 
Q 2381 -113 1900 -113 
Q 1522 -113 1266 53 
Q 1116 147 931 375 
L 931 -1334 
L 369 -1334 
L 369 3331 
z
" id="Helvetica-70" transform="scale(0.015625)"/>
      </defs>
      <use xlink:href="#Helvetica-54"/>
      <use x="61.083984" xlink:href="#Helvetica-6f"/>
      <use x="116.699219" xlink:href="#Helvetica-70"/>
      <use x="172.314453" xlink:href="#Helvetica-20"/>
      <use x="200.097656" xlink:href="#Helvetica-31"/>
      <use x="255.712891" xlink:href="#Helvetica-30"/>
      <use x="311.328125" xlink:href="#Helvetica-25"/>
     </g>
    </g>
   </g>
  </g>
 </g>
 <defs>
  <clipPath id="p7beeacbac0">
   <rect height="190.34" width="313.88" x="96.52" y="21.6"/>
  </clipPath>
 </defs>
</svg>
