<?xml version="1.0" encoding="utf-8" standalone="no"?>
<!DOCTYPE svg PUBLIC "-//W3C//DTD SVG 1.1//EN"
  "http://www.w3.org/Graphics/SVG/1.1/DTD/svg11.dtd">
<svg height="144pt" version="1.1" viewBox="0 0 144 144" width="144pt" xmlns="http://www.w3.org/2000/svg" xmlns:xlink="http://www.w3.org/1999/xlink">
 <metadata>
  <rdf:RDF xmlns:cc="http://creativecommons.org/ns#" xmlns:dc="http://purl.org/dc/elements/1.1/" xmlns:rdf="http://www.w3.org/1999/02/22-rdf-syntax-ns#">
   <cc:Work>
    <dc:type rdf:resource="http://purl.org/dc/dcmitype/StillImage"/>
    <dc:date>2022-11-07T10:50:59.591943</dc:date>
    <dc:format>image/svg+xml</dc:format>
    <dc:creator>
     <cc:Agent>
      <dc:title>Matplotlib v3.4.2, https://matplotlib.org/</dc:title>
     </cc:Agent>
    </dc:creator>
   </cc:Work>
  </rdf:RDF>
 </metadata>
 <defs>
  <style type="text/css">*{stroke-linecap:butt;stroke-linejoin:round;}</style>
 </defs>
 <g id="figure_1">
  <g id="patch_1">
   <path d="M 0 144 
L 144 144 
L 144 0 
L 0 0 
z
" style="fill:#ffffff;"/>
  </g>
  <g id="axes_1">
   <g id="patch_2">
    <path d="M 42.32 76.96 
L 133.2 76.96 
L 133.2 25.44 
L 42.32 25.44 
z
" style="fill:#ffffff;"/>
   </g>
   <g id="matplotlib.axis_1">
    <g id="xtick_1">
     <g id="text_1">
      <!-- Original -->
      <g style="fill:#262626;" transform="translate(60.057292 118.41625)rotate(-90)scale(0.1 -0.1)">
       <defs>
        <path d="M 309 2231 
Q 309 3372 921 4017 
Q 1534 4663 2503 4663 
Q 3138 4663 3647 4359 
Q 4156 4056 4423 3514 
Q 4691 2972 4691 2284 
Q 4691 1588 4409 1038 
Q 4128 488 3612 205 
Q 3097 -78 2500 -78 
Q 1853 -78 1343 234 
Q 834 547 571 1087 
Q 309 1628 309 2231 
z
M 934 2222 
Q 934 1394 1379 917 
Q 1825 441 2497 441 
Q 3181 441 3623 922 
Q 4066 1403 4066 2288 
Q 4066 2847 3877 3264 
Q 3688 3681 3323 3911 
Q 2959 4141 2506 4141 
Q 1863 4141 1398 3698 
Q 934 3256 934 2222 
z
" id="ArialMT-4f" transform="scale(0.015625)"/>
        <path d="M 416 0 
L 416 3319 
L 922 3319 
L 922 2816 
Q 1116 3169 1280 3281 
Q 1444 3394 1641 3394 
Q 1925 3394 2219 3213 
L 2025 2691 
Q 1819 2813 1613 2813 
Q 1428 2813 1281 2702 
Q 1134 2591 1072 2394 
Q 978 2094 978 1738 
L 978 0 
L 416 0 
z
" id="ArialMT-72" transform="scale(0.015625)"/>
        <path d="M 425 3934 
L 425 4581 
L 988 4581 
L 988 3934 
L 425 3934 
z
M 425 0 
L 425 3319 
L 988 3319 
L 988 0 
L 425 0 
z
" id="ArialMT-69" transform="scale(0.015625)"/>
        <path d="M 319 -275 
L 866 -356 
Q 900 -609 1056 -725 
Q 1266 -881 1628 -881 
Q 2019 -881 2231 -725 
Q 2444 -569 2519 -288 
Q 2563 -116 2559 434 
Q 2191 0 1641 0 
Q 956 0 581 494 
Q 206 988 206 1678 
Q 206 2153 378 2554 
Q 550 2956 876 3175 
Q 1203 3394 1644 3394 
Q 2231 3394 2613 2919 
L 2613 3319 
L 3131 3319 
L 3131 450 
Q 3131 -325 2973 -648 
Q 2816 -972 2473 -1159 
Q 2131 -1347 1631 -1347 
Q 1038 -1347 672 -1080 
Q 306 -813 319 -275 
z
M 784 1719 
Q 784 1066 1043 766 
Q 1303 466 1694 466 
Q 2081 466 2343 764 
Q 2606 1063 2606 1700 
Q 2606 2309 2336 2618 
Q 2066 2928 1684 2928 
Q 1309 2928 1046 2623 
Q 784 2319 784 1719 
z
" id="ArialMT-67" transform="scale(0.015625)"/>
        <path d="M 422 0 
L 422 3319 
L 928 3319 
L 928 2847 
Q 1294 3394 1984 3394 
Q 2284 3394 2536 3286 
Q 2788 3178 2913 3003 
Q 3038 2828 3088 2588 
Q 3119 2431 3119 2041 
L 3119 0 
L 2556 0 
L 2556 2019 
Q 2556 2363 2490 2533 
Q 2425 2703 2258 2804 
Q 2091 2906 1866 2906 
Q 1506 2906 1245 2678 
Q 984 2450 984 1813 
L 984 0 
L 422 0 
z
" id="ArialMT-6e" transform="scale(0.015625)"/>
        <path d="M 2588 409 
Q 2275 144 1986 34 
Q 1697 -75 1366 -75 
Q 819 -75 525 192 
Q 231 459 231 875 
Q 231 1119 342 1320 
Q 453 1522 633 1644 
Q 813 1766 1038 1828 
Q 1203 1872 1538 1913 
Q 2219 1994 2541 2106 
Q 2544 2222 2544 2253 
Q 2544 2597 2384 2738 
Q 2169 2928 1744 2928 
Q 1347 2928 1158 2789 
Q 969 2650 878 2297 
L 328 2372 
Q 403 2725 575 2942 
Q 747 3159 1072 3276 
Q 1397 3394 1825 3394 
Q 2250 3394 2515 3294 
Q 2781 3194 2906 3042 
Q 3031 2891 3081 2659 
Q 3109 2516 3109 2141 
L 3109 1391 
Q 3109 606 3145 398 
Q 3181 191 3288 0 
L 2700 0 
Q 2613 175 2588 409 
z
M 2541 1666 
Q 2234 1541 1622 1453 
Q 1275 1403 1131 1340 
Q 988 1278 909 1158 
Q 831 1038 831 891 
Q 831 666 1001 516 
Q 1172 366 1500 366 
Q 1825 366 2078 508 
Q 2331 650 2450 897 
Q 2541 1088 2541 1459 
L 2541 1666 
z
" id="ArialMT-61" transform="scale(0.015625)"/>
        <path d="M 409 0 
L 409 4581 
L 972 4581 
L 972 0 
L 409 0 
z
" id="ArialMT-6c" transform="scale(0.015625)"/>
       </defs>
       <use xlink:href="#ArialMT-4f"/>
       <use x="77.783203" xlink:href="#ArialMT-72"/>
       <use x="111.083984" xlink:href="#ArialMT-69"/>
       <use x="133.300781" xlink:href="#ArialMT-67"/>
       <use x="188.916016" xlink:href="#ArialMT-69"/>
       <use x="211.132812" xlink:href="#ArialMT-6e"/>
       <use x="266.748047" xlink:href="#ArialMT-61"/>
       <use x="322.363281" xlink:href="#ArialMT-6c"/>
      </g>
     </g>
    </g>
    <g id="xtick_2">
     <g id="text_2">
      <!-- Mutated -->
      <g style="fill:#262626;" transform="translate(90.345156 120.089687)rotate(-90)scale(0.1 -0.1)">
       <defs>
        <path d="M 475 0 
L 475 4581 
L 1388 4581 
L 2472 1338 
Q 2622 884 2691 659 
Q 2769 909 2934 1394 
L 4031 4581 
L 4847 4581 
L 4847 0 
L 4263 0 
L 4263 3834 
L 2931 0 
L 2384 0 
L 1059 3900 
L 1059 0 
L 475 0 
z
" id="ArialMT-4d" transform="scale(0.015625)"/>
        <path d="M 2597 0 
L 2597 488 
Q 2209 -75 1544 -75 
Q 1250 -75 995 37 
Q 741 150 617 320 
Q 494 491 444 738 
Q 409 903 409 1263 
L 409 3319 
L 972 3319 
L 972 1478 
Q 972 1038 1006 884 
Q 1059 663 1231 536 
Q 1403 409 1656 409 
Q 1909 409 2131 539 
Q 2353 669 2445 892 
Q 2538 1116 2538 1541 
L 2538 3319 
L 3100 3319 
L 3100 0 
L 2597 0 
z
" id="ArialMT-75" transform="scale(0.015625)"/>
        <path d="M 1650 503 
L 1731 6 
Q 1494 -44 1306 -44 
Q 1000 -44 831 53 
Q 663 150 594 308 
Q 525 466 525 972 
L 525 2881 
L 113 2881 
L 113 3319 
L 525 3319 
L 525 4141 
L 1084 4478 
L 1084 3319 
L 1650 3319 
L 1650 2881 
L 1084 2881 
L 1084 941 
Q 1084 700 1114 631 
Q 1144 563 1211 522 
Q 1278 481 1403 481 
Q 1497 481 1650 503 
z
" id="ArialMT-74" transform="scale(0.015625)"/>
        <path d="M 2694 1069 
L 3275 997 
Q 3138 488 2766 206 
Q 2394 -75 1816 -75 
Q 1088 -75 661 373 
Q 234 822 234 1631 
Q 234 2469 665 2931 
Q 1097 3394 1784 3394 
Q 2450 3394 2872 2941 
Q 3294 2488 3294 1666 
Q 3294 1616 3291 1516 
L 816 1516 
Q 847 969 1125 678 
Q 1403 388 1819 388 
Q 2128 388 2347 550 
Q 2566 713 2694 1069 
z
M 847 1978 
L 2700 1978 
Q 2663 2397 2488 2606 
Q 2219 2931 1791 2931 
Q 1403 2931 1139 2672 
Q 875 2413 847 1978 
z
" id="ArialMT-65" transform="scale(0.015625)"/>
        <path d="M 2575 0 
L 2575 419 
Q 2259 -75 1647 -75 
Q 1250 -75 917 144 
Q 584 363 401 755 
Q 219 1147 219 1656 
Q 219 2153 384 2558 
Q 550 2963 881 3178 
Q 1213 3394 1622 3394 
Q 1922 3394 2156 3267 
Q 2391 3141 2538 2938 
L 2538 4581 
L 3097 4581 
L 3097 0 
L 2575 0 
z
M 797 1656 
Q 797 1019 1065 703 
Q 1334 388 1700 388 
Q 2069 388 2326 689 
Q 2584 991 2584 1609 
Q 2584 2291 2321 2609 
Q 2059 2928 1675 2928 
Q 1300 2928 1048 2622 
Q 797 2316 797 1656 
z
" id="ArialMT-64" transform="scale(0.015625)"/>
       </defs>
       <use xlink:href="#ArialMT-4d"/>
       <use x="83.300781" xlink:href="#ArialMT-75"/>
       <use x="138.916016" xlink:href="#ArialMT-74"/>
       <use x="166.699219" xlink:href="#ArialMT-61"/>
       <use x="222.314453" xlink:href="#ArialMT-74"/>
       <use x="250.097656" xlink:href="#ArialMT-65"/>
       <use x="305.712891" xlink:href="#ArialMT-64"/>
      </g>
     </g>
    </g>
    <g id="xtick_3">
     <g id="text_3">
      <!-- STORM -->
      <g style="fill:#262626;" transform="translate(120.63849 119.892812)rotate(-90)scale(0.1 -0.1)">
       <defs>
        <path d="M 288 1472 
L 859 1522 
Q 900 1178 1048 958 
Q 1197 738 1509 602 
Q 1822 466 2213 466 
Q 2559 466 2825 569 
Q 3091 672 3220 851 
Q 3350 1031 3350 1244 
Q 3350 1459 3225 1620 
Q 3100 1781 2813 1891 
Q 2628 1963 1997 2114 
Q 1366 2266 1113 2400 
Q 784 2572 623 2826 
Q 463 3081 463 3397 
Q 463 3744 659 4045 
Q 856 4347 1234 4503 
Q 1613 4659 2075 4659 
Q 2584 4659 2973 4495 
Q 3363 4331 3572 4012 
Q 3781 3694 3797 3291 
L 3216 3247 
Q 3169 3681 2898 3903 
Q 2628 4125 2100 4125 
Q 1550 4125 1298 3923 
Q 1047 3722 1047 3438 
Q 1047 3191 1225 3031 
Q 1400 2872 2139 2705 
Q 2878 2538 3153 2413 
Q 3553 2228 3743 1945 
Q 3934 1663 3934 1294 
Q 3934 928 3725 604 
Q 3516 281 3123 101 
Q 2731 -78 2241 -78 
Q 1619 -78 1198 103 
Q 778 284 539 648 
Q 300 1013 288 1472 
z
" id="ArialMT-53" transform="scale(0.015625)"/>
        <path d="M 1659 0 
L 1659 4041 
L 150 4041 
L 150 4581 
L 3781 4581 
L 3781 4041 
L 2266 4041 
L 2266 0 
L 1659 0 
z
" id="ArialMT-54" transform="scale(0.015625)"/>
        <path d="M 503 0 
L 503 4581 
L 2534 4581 
Q 3147 4581 3465 4457 
Q 3784 4334 3975 4021 
Q 4166 3709 4166 3331 
Q 4166 2844 3850 2509 
Q 3534 2175 2875 2084 
Q 3116 1969 3241 1856 
Q 3506 1613 3744 1247 
L 4541 0 
L 3778 0 
L 3172 953 
Q 2906 1366 2734 1584 
Q 2563 1803 2427 1890 
Q 2291 1978 2150 2013 
Q 2047 2034 1813 2034 
L 1109 2034 
L 1109 0 
L 503 0 
z
M 1109 2559 
L 2413 2559 
Q 2828 2559 3062 2645 
Q 3297 2731 3419 2920 
Q 3541 3109 3541 3331 
Q 3541 3656 3305 3865 
Q 3069 4075 2559 4075 
L 1109 4075 
L 1109 2559 
z
" id="ArialMT-52" transform="scale(0.015625)"/>
       </defs>
       <use xlink:href="#ArialMT-53"/>
       <use x="66.699219" xlink:href="#ArialMT-54"/>
       <use x="126.033203" xlink:href="#ArialMT-4f"/>
       <use x="203.816406" xlink:href="#ArialMT-52"/>
       <use x="276.033203" xlink:href="#ArialMT-4d"/>
      </g>
     </g>
    </g>
    <g id="text_4">
     <!-- Method -->
     <g style="fill:#262626;" transform="translate(71.084219 131.2475)scale(0.1 -0.1)">
      <defs>
       <path d="M 422 0 
L 422 4581 
L 984 4581 
L 984 2938 
Q 1378 3394 1978 3394 
Q 2347 3394 2619 3248 
Q 2891 3103 3008 2847 
Q 3125 2591 3125 2103 
L 3125 0 
L 2563 0 
L 2563 2103 
Q 2563 2525 2380 2717 
Q 2197 2909 1863 2909 
Q 1613 2909 1392 2779 
Q 1172 2650 1078 2428 
Q 984 2206 984 1816 
L 984 0 
L 422 0 
z
" id="ArialMT-68" transform="scale(0.015625)"/>
       <path d="M 213 1659 
Q 213 2581 725 3025 
Q 1153 3394 1769 3394 
Q 2453 3394 2887 2945 
Q 3322 2497 3322 1706 
Q 3322 1066 3130 698 
Q 2938 331 2570 128 
Q 2203 -75 1769 -75 
Q 1072 -75 642 372 
Q 213 819 213 1659 
z
M 791 1659 
Q 791 1022 1069 705 
Q 1347 388 1769 388 
Q 2188 388 2466 706 
Q 2744 1025 2744 1678 
Q 2744 2294 2464 2611 
Q 2184 2928 1769 2928 
Q 1347 2928 1069 2612 
Q 791 2297 791 1659 
z
" id="ArialMT-6f" transform="scale(0.015625)"/>
      </defs>
      <use xlink:href="#ArialMT-4d"/>
      <use x="83.300781" xlink:href="#ArialMT-65"/>
      <use x="138.916016" xlink:href="#ArialMT-74"/>
      <use x="166.699219" xlink:href="#ArialMT-68"/>
      <use x="222.314453" xlink:href="#ArialMT-6f"/>
      <use x="277.929688" xlink:href="#ArialMT-64"/>
     </g>
    </g>
   </g>
   <g id="matplotlib.axis_2">
    <g id="ytick_1">
     <g id="text_5">
      <!-- −1 -->
      <g style="fill:#262626;" transform="translate(23.918438 72.915478)scale(0.1 -0.1)">
       <defs>
        <path d="M 3381 1997 
L 356 1997 
L 356 2522 
L 3381 2522 
L 3381 1997 
z
" id="ArialMT-2212" transform="scale(0.015625)"/>
        <path d="M 2384 0 
L 1822 0 
L 1822 3584 
Q 1619 3391 1289 3197 
Q 959 3003 697 2906 
L 697 3450 
Q 1169 3672 1522 3987 
Q 1875 4303 2022 4600 
L 2384 4600 
L 2384 0 
z
" id="ArialMT-31" transform="scale(0.015625)"/>
       </defs>
       <use xlink:href="#ArialMT-2212"/>
       <use x="58.398438" xlink:href="#ArialMT-31"/>
      </g>
     </g>
    </g>
    <g id="ytick_2">
     <g id="text_6">
      <!-- 0 -->
      <g style="fill:#262626;" transform="translate(29.759063 54.224794)scale(0.1 -0.1)">
       <defs>
        <path d="M 266 2259 
Q 266 3072 433 3567 
Q 600 4063 929 4331 
Q 1259 4600 1759 4600 
Q 2128 4600 2406 4451 
Q 2684 4303 2865 4023 
Q 3047 3744 3150 3342 
Q 3253 2941 3253 2259 
Q 3253 1453 3087 958 
Q 2922 463 2592 192 
Q 2263 -78 1759 -78 
Q 1097 -78 719 397 
Q 266 969 266 2259 
z
M 844 2259 
Q 844 1131 1108 757 
Q 1372 384 1759 384 
Q 2147 384 2411 759 
Q 2675 1134 2675 2259 
Q 2675 3391 2411 3762 
Q 2147 4134 1753 4134 
Q 1366 4134 1134 3806 
Q 844 3388 844 2259 
z
" id="ArialMT-30" transform="scale(0.015625)"/>
       </defs>
       <use xlink:href="#ArialMT-30"/>
      </g>
     </g>
    </g>
    <g id="ytick_3">
     <g id="text_7">
      <!-- 1 -->
      <g style="fill:#262626;" transform="translate(29.759063 35.53411)scale(0.1 -0.1)">
       <use xlink:href="#ArialMT-31"/>
      </g>
     </g>
    </g>
    <g id="text_8">
     <!-- Predictions -->
     <g style="fill:#262626;" transform="translate(17.930938 75.932813)rotate(-90)scale(0.1 -0.1)">
      <defs>
       <path d="M 494 0 
L 494 4581 
L 2222 4581 
Q 2678 4581 2919 4538 
Q 3256 4481 3484 4323 
Q 3713 4166 3852 3881 
Q 3991 3597 3991 3256 
Q 3991 2672 3619 2267 
Q 3247 1863 2275 1863 
L 1100 1863 
L 1100 0 
L 494 0 
z
M 1100 2403 
L 2284 2403 
Q 2872 2403 3119 2622 
Q 3366 2841 3366 3238 
Q 3366 3525 3220 3729 
Q 3075 3934 2838 4000 
Q 2684 4041 2272 4041 
L 1100 4041 
L 1100 2403 
z
" id="ArialMT-50" transform="scale(0.015625)"/>
       <path d="M 2588 1216 
L 3141 1144 
Q 3050 572 2676 248 
Q 2303 -75 1759 -75 
Q 1078 -75 664 370 
Q 250 816 250 1647 
Q 250 2184 428 2587 
Q 606 2991 970 3192 
Q 1334 3394 1763 3394 
Q 2303 3394 2647 3120 
Q 2991 2847 3088 2344 
L 2541 2259 
Q 2463 2594 2264 2762 
Q 2066 2931 1784 2931 
Q 1359 2931 1093 2626 
Q 828 2322 828 1663 
Q 828 994 1084 691 
Q 1341 388 1753 388 
Q 2084 388 2306 591 
Q 2528 794 2588 1216 
z
" id="ArialMT-63" transform="scale(0.015625)"/>
       <path d="M 197 991 
L 753 1078 
Q 800 744 1014 566 
Q 1228 388 1613 388 
Q 2000 388 2187 545 
Q 2375 703 2375 916 
Q 2375 1106 2209 1216 
Q 2094 1291 1634 1406 
Q 1016 1563 777 1677 
Q 538 1791 414 1992 
Q 291 2194 291 2438 
Q 291 2659 392 2848 
Q 494 3038 669 3163 
Q 800 3259 1026 3326 
Q 1253 3394 1513 3394 
Q 1903 3394 2198 3281 
Q 2494 3169 2634 2976 
Q 2775 2784 2828 2463 
L 2278 2388 
Q 2241 2644 2061 2787 
Q 1881 2931 1553 2931 
Q 1166 2931 1000 2803 
Q 834 2675 834 2503 
Q 834 2394 903 2306 
Q 972 2216 1119 2156 
Q 1203 2125 1616 2013 
Q 2213 1853 2448 1751 
Q 2684 1650 2818 1456 
Q 2953 1263 2953 975 
Q 2953 694 2789 445 
Q 2625 197 2315 61 
Q 2006 -75 1616 -75 
Q 969 -75 630 194 
Q 291 463 197 991 
z
" id="ArialMT-73" transform="scale(0.015625)"/>
      </defs>
      <use xlink:href="#ArialMT-50"/>
      <use x="66.699219" xlink:href="#ArialMT-72"/>
      <use x="100" xlink:href="#ArialMT-65"/>
      <use x="155.615234" xlink:href="#ArialMT-64"/>
      <use x="211.230469" xlink:href="#ArialMT-69"/>
      <use x="233.447266" xlink:href="#ArialMT-63"/>
      <use x="283.447266" xlink:href="#ArialMT-74"/>
      <use x="311.230469" xlink:href="#ArialMT-69"/>
      <use x="333.447266" xlink:href="#ArialMT-6f"/>
      <use x="389.0625" xlink:href="#ArialMT-6e"/>
      <use x="444.677734" xlink:href="#ArialMT-73"/>
     </g>
    </g>
   </g>
   <g id="PolyCollection_1">
    <defs>
     <path d="M 57.482479 -70.09494 
L 57.450854 -70.09494 
L 57.442283 -70.560831 
L 57.430408 -71.026723 
L 57.414559 -71.492614 
L 57.394102 -71.958505 
L 57.36841 -72.424397 
L 57.336789 -72.890288 
L 57.298348 -73.356179 
L 57.251858 -73.822071 
L 57.195674 -74.287962 
L 57.127803 -74.753853 
L 57.046163 -75.219745 
L 56.949038 -75.685636 
L 56.835626 -76.151527 
L 56.706535 -76.617419 
L 56.564039 -77.08331 
L 56.411955 -77.549201 
L 56.25512 -78.015093 
L 56.098569 -78.480984 
L 55.946653 -78.946875 
L 55.802333 -79.412767 
L 55.666888 -79.878658 
L 55.54008 -80.344549 
L 55.420699 -80.810441 
L 55.307286 -81.276332 
L 55.19877 -81.742223 
L 55.094872 -82.208115 
L 54.996197 -82.674006 
L 54.90411 -83.139897 
L 54.820504 -83.605789 
L 54.747587 -84.07168 
L 54.68772 -84.537571 
L 54.643287 -85.003463 
L 54.616527 -85.469354 
L 54.609306 -85.935245 
L 54.622861 -86.401137 
L 54.65757 -86.867028 
L 54.712851 -87.332919 
L 54.787192 -87.798811 
L 54.878328 -88.264702 
L 54.983477 -88.730593 
L 55.09961 -89.196485 
L 55.223699 -89.662376 
L 55.352951 -90.128267 
L 55.485016 -90.594159 
L 55.618148 -91.06005 
L 55.75126 -91.525941 
L 55.883838 -91.991833 
L 56.015695 -92.457724 
L 56.146638 -92.923615 
L 56.276143 -93.389507 
L 56.403159 -93.855398 
L 56.526129 -94.321289 
L 56.643192 -94.787181 
L 56.752508 -95.253072 
L 56.852571 -95.718963 
L 56.942417 -96.184855 
L 57.021694 -96.650746 
L 57.090602 -97.116637 
L 57.149772 -97.582529 
L 57.200126 -98.04842 
L 57.242766 -98.514311 
L 57.278868 -98.980203 
L 57.309592 -99.446094 
L 57.33599 -99.911985 
L 57.358925 -100.377877 
L 57.379021 -100.843768 
L 57.396656 -101.309659 
L 57.412007 -101.775551 
L 57.425131 -102.241442 
L 57.436051 -102.707333 
L 57.444827 -103.173225 
L 57.451592 -103.639116 
L 57.456549 -104.105007 
L 57.459941 -104.570899 
L 57.462002 -105.03679 
L 57.462917 -105.502681 
L 57.462783 -105.968573 
L 57.461603 -106.434464 
L 57.459289 -106.900355 
L 57.455706 -107.366247 
L 57.450726 -107.832138 
L 57.444303 -108.298029 
L 57.436552 -108.763921 
L 57.427804 -109.229812 
L 57.41863 -109.695703 
L 57.409804 -110.161595 
L 57.402209 -110.627486 
L 57.396699 -111.093377 
L 57.393939 -111.559269 
L 57.394275 -112.02516 
L 57.397667 -112.491051 
L 57.403689 -112.956943 
L 57.411623 -113.422834 
L 57.420598 -113.888725 
L 57.429745 -114.354616 
L 57.438331 -114.820508 
L 57.445843 -115.286399 
L 57.452012 -115.75229 
L 57.456791 -116.218182 
L 57.476542 -116.218182 
L 57.476542 -116.218182 
L 57.481321 -115.75229 
L 57.487491 -115.286399 
L 57.495002 -114.820508 
L 57.503588 -114.354616 
L 57.512735 -113.888725 
L 57.52171 -113.422834 
L 57.529645 -112.956943 
L 57.535667 -112.491051 
L 57.539058 -112.02516 
L 57.539395 -111.559269 
L 57.536634 -111.093377 
L 57.531124 -110.627486 
L 57.523529 -110.161595 
L 57.514703 -109.695703 
L 57.505529 -109.229812 
L 57.496781 -108.763921 
L 57.48903 -108.298029 
L 57.482607 -107.832138 
L 57.477627 -107.366247 
L 57.474044 -106.900355 
L 57.471731 -106.434464 
L 57.47055 -105.968573 
L 57.470417 -105.502681 
L 57.471331 -105.03679 
L 57.473393 -104.570899 
L 57.476784 -104.105007 
L 57.481742 -103.639116 
L 57.488506 -103.173225 
L 57.497282 -102.707333 
L 57.508202 -102.241442 
L 57.521326 -101.775551 
L 57.536677 -101.309659 
L 57.554312 -100.843768 
L 57.574408 -100.377877 
L 57.597344 -99.911985 
L 57.623742 -99.446094 
L 57.654465 -98.980203 
L 57.690567 -98.514311 
L 57.733207 -98.04842 
L 57.783562 -97.582529 
L 57.842731 -97.116637 
L 57.911639 -96.650746 
L 57.990916 -96.184855 
L 58.080763 -95.718963 
L 58.180825 -95.253072 
L 58.290141 -94.787181 
L 58.407205 -94.321289 
L 58.530174 -93.855398 
L 58.657191 -93.389507 
L 58.786695 -92.923615 
L 58.917638 -92.457724 
L 59.049495 -91.991833 
L 59.182073 -91.525941 
L 59.315185 -91.06005 
L 59.448317 -90.594159 
L 59.580383 -90.128267 
L 59.709634 -89.662376 
L 59.833723 -89.196485 
L 59.949856 -88.730593 
L 60.055005 -88.264702 
L 60.146141 -87.798811 
L 60.220482 -87.332919 
L 60.275763 -86.867028 
L 60.310473 -86.401137 
L 60.324027 -85.935245 
L 60.316806 -85.469354 
L 60.290046 -85.003463 
L 60.245613 -84.537571 
L 60.185747 -84.07168 
L 60.112829 -83.605789 
L 60.029223 -83.139897 
L 59.937136 -82.674006 
L 59.838461 -82.208115 
L 59.734563 -81.742223 
L 59.626047 -81.276332 
L 59.512634 -80.810441 
L 59.393253 -80.344549 
L 59.266445 -79.878658 
L 59.131 -79.412767 
L 58.986681 -78.946875 
L 58.834764 -78.480984 
L 58.678213 -78.015093 
L 58.521378 -77.549201 
L 58.369294 -77.08331 
L 58.226799 -76.617419 
L 58.097708 -76.151527 
L 57.984295 -75.685636 
L 57.88717 -75.219745 
L 57.80553 -74.753853 
L 57.737659 -74.287962 
L 57.681476 -73.822071 
L 57.634985 -73.356179 
L 57.596544 -72.890288 
L 57.564924 -72.424397 
L 57.539231 -71.958505 
L 57.518774 -71.492614 
L 57.502926 -71.026723 
L 57.49105 -70.560831 
L 57.482479 -70.09494 
z
" id="m8997244a67" style="stroke:#262626;stroke-width:0.75;"/>
    </defs>
    <g clip-path="url(#p785082406c)">
     <use style="fill:#7f9dd2;stroke:#262626;stroke-width:0.75;" x="0" xlink:href="#m8997244a67" y="144"/>
    </g>
   </g>
   <g id="PolyCollection_2">
    <defs>
     <path d="M 87.760018 -69.381818 
L 87.759982 -69.381818 
L 87.759893 -69.787698 
L 87.759792 -70.193577 
L 87.75985 -70.599457 
L 87.759883 -71.005336 
L 87.759758 -71.411216 
L 87.759633 -71.817095 
L 87.759386 -72.222975 
L 87.758687 -72.628854 
L 87.757989 -73.034734 
L 87.757601 -73.440613 
L 87.75672 -73.846493 
L 87.754759 -74.252372 
L 87.75233 -74.658252 
L 87.749606 -75.064131 
L 87.746255 -75.470011 
L 87.741446 -75.87589 
L 87.734663 -76.28177 
L 87.727119 -76.687649 
L 87.716781 -77.093529 
L 87.701764 -77.499408 
L 87.682873 -77.905288 
L 87.65801 -78.311167 
L 87.625598 -78.717046 
L 87.585263 -79.122926 
L 87.53643 -79.528805 
L 87.483066 -79.934685 
L 87.423593 -80.340564 
L 87.34734 -80.746444 
L 87.256466 -81.152323 
L 87.155757 -81.558203 
L 87.037802 -81.964082 
L 86.908666 -82.369962 
L 86.773086 -82.775841 
L 86.62413 -83.181721 
L 86.470677 -83.5876 
L 86.315736 -83.99348 
L 86.156366 -84.399359 
L 85.985639 -84.805239 
L 85.806296 -85.211118 
L 85.613666 -85.616998 
L 85.410815 -86.022877 
L 85.20574 -86.428757 
L 85.007722 -86.834636 
L 84.839937 -87.240516 
L 84.702676 -87.646395 
L 84.574112 -88.052275 
L 84.45827 -88.458154 
L 84.385026 -88.864034 
L 84.360054 -89.269913 
L 84.375658 -89.675793 
L 84.413882 -90.081672 
L 84.464242 -90.487552 
L 84.554672 -90.893431 
L 84.682425 -91.299311 
L 84.798567 -91.70519 
L 84.907137 -92.11107 
L 85.024297 -92.516949 
L 85.141253 -92.922829 
L 85.261471 -93.328708 
L 85.374801 -93.734588 
L 85.47053 -94.140467 
L 85.573856 -94.546347 
L 85.685784 -94.952226 
L 85.805709 -95.358106 
L 85.949431 -95.763985 
L 86.10405 -96.169865 
L 86.253792 -96.575744 
L 86.391891 -96.981624 
L 86.522041 -97.387503 
L 86.644041 -97.793383 
L 86.753555 -98.199262 
L 86.849506 -98.605142 
L 86.936593 -99.011021 
L 87.015756 -99.416901 
L 87.090677 -99.82278 
L 87.166101 -100.22866 
L 87.235707 -100.634539 
L 87.308901 -101.040419 
L 87.385946 -101.446298 
L 87.4545 -101.852178 
L 87.515498 -102.258057 
L 87.570536 -102.663937 
L 87.613545 -103.069816 
L 87.645243 -103.475696 
L 87.669829 -103.881575 
L 87.69156 -104.287454 
L 87.708749 -104.693334 
L 87.722084 -105.099213 
L 87.73412 -105.505093 
L 87.742831 -105.910972 
L 87.747993 -106.316852 
L 87.752341 -106.722731 
L 87.755695 -107.128611 
L 87.757426 -107.53449 
L 87.758454 -107.94037 
L 87.758993 -108.346249 
L 87.759406 -108.752129 
L 87.759812 -109.158008 
L 87.759975 -109.563888 
L 87.760025 -109.563888 
L 87.760025 -109.563888 
L 87.760188 -109.158008 
L 87.760594 -108.752129 
L 87.761007 -108.346249 
L 87.761546 -107.94037 
L 87.762574 -107.53449 
L 87.764305 -107.128611 
L 87.767659 -106.722731 
L 87.772007 -106.316852 
L 87.777169 -105.910972 
L 87.78588 -105.505093 
L 87.797916 -105.099213 
L 87.811251 -104.693334 
L 87.82844 -104.287454 
L 87.850171 -103.881575 
L 87.874757 -103.475696 
L 87.906455 -103.069816 
L 87.949464 -102.663937 
L 88.004502 -102.258057 
L 88.0655 -101.852178 
L 88.134054 -101.446298 
L 88.211099 -101.040419 
L 88.284293 -100.634539 
L 88.353899 -100.22866 
L 88.429323 -99.82278 
L 88.504244 -99.416901 
L 88.583407 -99.011021 
L 88.670494 -98.605142 
L 88.766445 -98.199262 
L 88.875959 -97.793383 
L 88.997959 -97.387503 
L 89.128109 -96.981624 
L 89.266208 -96.575744 
L 89.41595 -96.169865 
L 89.570569 -95.763985 
L 89.714291 -95.358106 
L 89.834216 -94.952226 
L 89.946144 -94.546347 
L 90.04947 -94.140467 
L 90.145199 -93.734588 
L 90.258529 -93.328708 
L 90.378747 -92.922829 
L 90.495703 -92.516949 
L 90.612863 -92.11107 
L 90.721433 -91.70519 
L 90.837575 -91.299311 
L 90.965328 -90.893431 
L 91.055758 -90.487552 
L 91.106118 -90.081672 
L 91.144342 -89.675793 
L 91.159946 -89.269913 
L 91.134974 -88.864034 
L 91.06173 -88.458154 
L 90.945888 -88.052275 
L 90.817324 -87.646395 
L 90.680063 -87.240516 
L 90.512278 -86.834636 
L 90.31426 -86.428757 
L 90.109185 -86.022877 
L 89.906334 -85.616998 
L 89.713704 -85.211118 
L 89.534361 -84.805239 
L 89.363634 -84.399359 
L 89.204264 -83.99348 
L 89.049323 -83.5876 
L 88.89587 -83.181721 
L 88.746914 -82.775841 
L 88.611334 -82.369962 
L 88.482198 -81.964082 
L 88.364243 -81.558203 
L 88.263534 -81.152323 
L 88.17266 -80.746444 
L 88.096407 -80.340564 
L 88.036934 -79.934685 
L 87.98357 -79.528805 
L 87.934737 -79.122926 
L 87.894402 -78.717046 
L 87.86199 -78.311167 
L 87.837127 -77.905288 
L 87.818236 -77.499408 
L 87.803219 -77.093529 
L 87.792881 -76.687649 
L 87.785337 -76.28177 
L 87.778554 -75.87589 
L 87.773745 -75.470011 
L 87.770394 -75.064131 
L 87.76767 -74.658252 
L 87.765241 -74.252372 
L 87.76328 -73.846493 
L 87.762399 -73.440613 
L 87.762011 -73.034734 
L 87.761313 -72.628854 
L 87.760614 -72.222975 
L 87.760367 -71.817095 
L 87.760242 -71.411216 
L 87.760117 -71.005336 
L 87.76015 -70.599457 
L 87.760208 -70.193577 
L 87.760107 -69.787698 
L 87.760018 -69.381818 
z
" id="m964c2820d8" style="stroke:#262626;stroke-width:0.75;"/>
    </defs>
    <g clip-path="url(#p785082406c)">
     <use style="fill:#1a1a66;stroke:#262626;stroke-width:0.75;" x="0" xlink:href="#m964c2820d8" y="144"/>
    </g>
   </g>
   <g id="PolyCollection_3">
    <defs>
     <path d="M 118.593613 -93.406632 
L 117.513054 -93.406632 
L 117.419935 -93.473687 
L 117.314919 -93.540742 
L 117.197251 -93.607797 
L 117.066251 -93.674852 
L 116.921334 -93.741907 
L 116.762025 -93.808962 
L 116.587975 -93.876017 
L 116.398971 -93.943072 
L 116.194948 -94.010127 
L 115.975984 -94.077182 
L 115.742308 -94.144237 
L 115.494284 -94.211291 
L 115.23241 -94.278346 
L 114.957295 -94.345401 
L 114.669644 -94.412456 
L 114.37024 -94.479511 
L 114.059922 -94.546566 
L 113.739562 -94.613621 
L 113.410058 -94.680676 
L 113.072309 -94.747731 
L 112.727217 -94.814786 
L 112.375683 -94.881841 
L 112.018614 -94.948896 
L 111.656934 -95.015951 
L 111.291607 -95.083005 
L 110.923665 -95.15006 
L 110.554232 -95.217115 
L 110.184564 -95.28417 
L 109.816076 -95.351225 
L 109.450373 -95.41828 
L 109.089272 -95.485335 
L 108.73482 -95.55239 
L 108.389294 -95.619445 
L 108.055194 -95.6865 
L 107.73522 -95.753555 
L 107.432233 -95.82061 
L 107.149203 -95.887665 
L 106.889142 -95.95472 
L 106.655031 -96.021774 
L 106.44973 -96.088829 
L 106.275893 -96.155884 
L 106.135872 -96.222939 
L 106.031637 -96.289994 
L 105.964689 -96.357049 
L 105.936 -96.424104 
L 105.945954 -96.491159 
L 105.99432 -96.558214 
L 106.080235 -96.625269 
L 106.202215 -96.692324 
L 106.358186 -96.759379 
L 106.545537 -96.826434 
L 106.761195 -96.893489 
L 107.001707 -96.960543 
L 107.263352 -97.027598 
L 107.542241 -97.094653 
L 107.834442 -97.161708 
L 108.13609 -97.228763 
L 108.443497 -97.295818 
L 108.753254 -97.362873 
L 109.062316 -97.429928 
L 109.368073 -97.496983 
L 109.668399 -97.564038 
L 109.961681 -97.631093 
L 110.246831 -97.698148 
L 110.523267 -97.765203 
L 110.790886 -97.832257 
L 111.050008 -97.899312 
L 111.301318 -97.966367 
L 111.545783 -98.033422 
L 111.784574 -98.100477 
L 112.018981 -98.167532 
L 112.25032 -98.234587 
L 112.479862 -98.301642 
L 112.708754 -98.368697 
L 112.937962 -98.435752 
L 113.168218 -98.502807 
L 113.399987 -98.569862 
L 113.633454 -98.636917 
L 113.868509 -98.703972 
L 114.104766 -98.771026 
L 114.341583 -98.838081 
L 114.578093 -98.905136 
L 114.813249 -98.972191 
L 115.04587 -99.039246 
L 115.27469 -99.106301 
L 115.498411 -99.173356 
L 115.715754 -99.240411 
L 115.925499 -99.307466 
L 116.12653 -99.374521 
L 116.317866 -99.441576 
L 116.498686 -99.508631 
L 116.668347 -99.575686 
L 116.826391 -99.64274 
L 116.972553 -99.709795 
L 117.106749 -99.77685 
L 117.229069 -99.843905 
L 117.339759 -99.91096 
L 117.439204 -99.978015 
L 117.527907 -100.04507 
L 118.578759 -100.04507 
L 118.578759 -100.04507 
L 118.667462 -99.978015 
L 118.766908 -99.91096 
L 118.877598 -99.843905 
L 118.999917 -99.77685 
L 119.134113 -99.709795 
L 119.280275 -99.64274 
L 119.43832 -99.575686 
L 119.60798 -99.508631 
L 119.7888 -99.441576 
L 119.980136 -99.374521 
L 120.181168 -99.307466 
L 120.390913 -99.240411 
L 120.608256 -99.173356 
L 120.831977 -99.106301 
L 121.060797 -99.039246 
L 121.293418 -98.972191 
L 121.528574 -98.905136 
L 121.765084 -98.838081 
L 122.001901 -98.771026 
L 122.238158 -98.703972 
L 122.473213 -98.636917 
L 122.706679 -98.569862 
L 122.938449 -98.502807 
L 123.168705 -98.435752 
L 123.397912 -98.368697 
L 123.626805 -98.301642 
L 123.856347 -98.234587 
L 124.087686 -98.167532 
L 124.322092 -98.100477 
L 124.560884 -98.033422 
L 124.805349 -97.966367 
L 125.056658 -97.899312 
L 125.315781 -97.832257 
L 125.583399 -97.765203 
L 125.859836 -97.698148 
L 126.144985 -97.631093 
L 126.438268 -97.564038 
L 126.738594 -97.496983 
L 127.04435 -97.429928 
L 127.353413 -97.362873 
L 127.66317 -97.295818 
L 127.970577 -97.228763 
L 128.272225 -97.161708 
L 128.564426 -97.094653 
L 128.843315 -97.027598 
L 129.104959 -96.960543 
L 129.345472 -96.893489 
L 129.561129 -96.826434 
L 129.748481 -96.759379 
L 129.904452 -96.692324 
L 130.026432 -96.625269 
L 130.112346 -96.558214 
L 130.160712 -96.491159 
L 130.170667 -96.424104 
L 130.141977 -96.357049 
L 130.07503 -96.289994 
L 129.970795 -96.222939 
L 129.830774 -96.155884 
L 129.656936 -96.088829 
L 129.451636 -96.021774 
L 129.217524 -95.95472 
L 128.957464 -95.887665 
L 128.674433 -95.82061 
L 128.371446 -95.753555 
L 128.051472 -95.6865 
L 127.717373 -95.619445 
L 127.371847 -95.55239 
L 127.017394 -95.485335 
L 126.656294 -95.41828 
L 126.29059 -95.351225 
L 125.922102 -95.28417 
L 125.552434 -95.217115 
L 125.183002 -95.15006 
L 124.81506 -95.083005 
L 124.449733 -95.015951 
L 124.088053 -94.948896 
L 123.730983 -94.881841 
L 123.37945 -94.814786 
L 123.034358 -94.747731 
L 122.696609 -94.680676 
L 122.367104 -94.613621 
L 122.046745 -94.546566 
L 121.736426 -94.479511 
L 121.437023 -94.412456 
L 121.149372 -94.345401 
L 120.874257 -94.278346 
L 120.612382 -94.211291 
L 120.364359 -94.144237 
L 120.130682 -94.077182 
L 119.911719 -94.010127 
L 119.707695 -93.943072 
L 119.518692 -93.876017 
L 119.344642 -93.808962 
L 119.185333 -93.741907 
L 119.040416 -93.674852 
L 118.909416 -93.607797 
L 118.791748 -93.540742 
L 118.686732 -93.473687 
L 118.593613 -93.406632 
z
" id="m8ca8acfa44" style="stroke:#262626;stroke-width:0.75;"/>
    </defs>
    <g clip-path="url(#p785082406c)">
     <use style="fill:#cc8733;stroke:#262626;stroke-width:0.75;" x="0" xlink:href="#m8ca8acfa44" y="144"/>
    </g>
   </g>
   <g id="line2d_1">
    <path clip-path="url(#p785082406c)" d="M 57.466667 69.42919 
L 57.466667 44.412669 
" style="fill:none;stroke:#262626;stroke-linecap:round;stroke-width:0.75;"/>
   </g>
   <g id="line2d_2">
    <path clip-path="url(#p785082406c)" d="M 57.466667 61.356414 
L 57.466667 54.524102 
" style="fill:none;stroke:#262626;stroke-linecap:round;stroke-width:2.25;"/>
   </g>
   <g id="line2d_3">
    <path clip-path="url(#p785082406c)" d="M 87.76 66.919398 
L 87.76 40.12253 
" style="fill:none;stroke:#262626;stroke-linecap:round;stroke-width:0.75;"/>
   </g>
   <g id="line2d_4">
    <path clip-path="url(#p785082406c)" d="M 87.76 56.872473 
L 87.76 50.172069 
" style="fill:none;stroke:#262626;stroke-linecap:round;stroke-width:2.25;"/>
   </g>
   <g id="line2d_5">
    <path clip-path="url(#p785082406c)" d="M 118.053333 47.692336 
L 118.053333 46.990968 
" style="fill:none;stroke:#262626;stroke-linecap:round;stroke-width:0.75;"/>
   </g>
   <g id="line2d_6">
    <path clip-path="url(#p785082406c)" d="M 118.053333 47.692336 
L 118.053333 46.990968 
" style="fill:none;stroke:#262626;stroke-linecap:round;stroke-width:2.25;"/>
   </g>
   <g id="patch_3">
    <path d="M 42.32 76.96 
L 42.32 25.44 
" style="fill:none;stroke:#262626;stroke-linecap:square;stroke-linejoin:miter;stroke-width:0.8;"/>
   </g>
   <g id="patch_4">
    <path d="M 42.32 76.96 
L 133.2 76.96 
" style="fill:none;stroke:#262626;stroke-linecap:square;stroke-linejoin:miter;stroke-width:0.8;"/>
   </g>
   <g id="PathCollection_1">
    <defs>
     <path d="M 0 0.75 
C 0.198902 0.75 0.389685 0.670975 0.53033 0.53033 
C 0.670975 0.389685 0.75 0.198902 0.75 0 
C 0.75 -0.198902 0.670975 -0.389685 0.53033 -0.53033 
C 0.389685 -0.670975 0.198902 -0.75 0 -0.75 
C -0.198902 -0.75 -0.389685 -0.670975 -0.53033 -0.53033 
C -0.670975 -0.389685 -0.75 -0.198902 -0.75 0 
C -0.75 0.198902 -0.670975 0.389685 -0.53033 0.53033 
C -0.389685 0.670975 -0.198902 0.75 0 0.75 
z
" id="m0e22c64095" style="stroke:#262626;"/>
    </defs>
    <g clip-path="url(#p785082406c)">
     <use style="fill:#ffffff;stroke:#262626;" x="57.466667" xlink:href="#m0e22c64095" y="58.060021"/>
    </g>
   </g>
   <g id="PathCollection_2">
    <g clip-path="url(#p785082406c)">
     <use style="fill:#ffffff;stroke:#262626;" x="87.76" xlink:href="#m0e22c64095" y="53.740427"/>
    </g>
   </g>
   <g id="PathCollection_3">
    <g clip-path="url(#p785082406c)">
     <use style="fill:#ffffff;stroke:#262626;" x="118.053333" xlink:href="#m0e22c64095" y="47.648389"/>
    </g>
   </g>
   <g id="text_9">
    <!-- Bottom 10% -->
    <g style="fill:#262626;" transform="translate(55.077813 19.44)scale(0.12 -0.12)">
     <defs>
      <path d="M 469 0 
L 469 4581 
L 2188 4581 
Q 2713 4581 3030 4442 
Q 3347 4303 3526 4014 
Q 3706 3725 3706 3409 
Q 3706 3116 3547 2856 
Q 3388 2597 3066 2438 
Q 3481 2316 3704 2022 
Q 3928 1728 3928 1328 
Q 3928 1006 3792 729 
Q 3656 453 3456 303 
Q 3256 153 2954 76 
Q 2653 0 2216 0 
L 469 0 
z
M 1075 2656 
L 2066 2656 
Q 2469 2656 2644 2709 
Q 2875 2778 2992 2937 
Q 3109 3097 3109 3338 
Q 3109 3566 3000 3739 
Q 2891 3913 2687 3977 
Q 2484 4041 1991 4041 
L 1075 4041 
L 1075 2656 
z
M 1075 541 
L 2216 541 
Q 2509 541 2628 563 
Q 2838 600 2978 687 
Q 3119 775 3209 942 
Q 3300 1109 3300 1328 
Q 3300 1584 3169 1773 
Q 3038 1963 2805 2039 
Q 2572 2116 2134 2116 
L 1075 2116 
L 1075 541 
z
" id="ArialMT-42" transform="scale(0.015625)"/>
      <path d="M 422 0 
L 422 3319 
L 925 3319 
L 925 2853 
Q 1081 3097 1340 3245 
Q 1600 3394 1931 3394 
Q 2300 3394 2536 3241 
Q 2772 3088 2869 2813 
Q 3263 3394 3894 3394 
Q 4388 3394 4653 3120 
Q 4919 2847 4919 2278 
L 4919 0 
L 4359 0 
L 4359 2091 
Q 4359 2428 4304 2576 
Q 4250 2725 4106 2815 
Q 3963 2906 3769 2906 
Q 3419 2906 3187 2673 
Q 2956 2441 2956 1928 
L 2956 0 
L 2394 0 
L 2394 2156 
Q 2394 2531 2256 2718 
Q 2119 2906 1806 2906 
Q 1569 2906 1367 2781 
Q 1166 2656 1075 2415 
Q 984 2175 984 1722 
L 984 0 
L 422 0 
z
" id="ArialMT-6d" transform="scale(0.015625)"/>
      <path id="ArialMT-20" transform="scale(0.015625)"/>
      <path d="M 372 3481 
Q 372 3972 619 4315 
Q 866 4659 1334 4659 
Q 1766 4659 2048 4351 
Q 2331 4044 2331 3447 
Q 2331 2866 2045 2552 
Q 1759 2238 1341 2238 
Q 925 2238 648 2547 
Q 372 2856 372 3481 
z
M 1350 4272 
Q 1141 4272 1002 4090 
Q 863 3909 863 3425 
Q 863 2984 1003 2804 
Q 1144 2625 1350 2625 
Q 1563 2625 1702 2806 
Q 1841 2988 1841 3469 
Q 1841 3913 1700 4092 
Q 1559 4272 1350 4272 
z
M 1353 -169 
L 3859 4659 
L 4316 4659 
L 1819 -169 
L 1353 -169 
z
M 3334 1075 
Q 3334 1569 3581 1911 
Q 3828 2253 4300 2253 
Q 4731 2253 5014 1945 
Q 5297 1638 5297 1041 
Q 5297 459 5011 145 
Q 4725 -169 4303 -169 
Q 3888 -169 3611 142 
Q 3334 453 3334 1075 
z
M 4316 1866 
Q 4103 1866 3964 1684 
Q 3825 1503 3825 1019 
Q 3825 581 3965 400 
Q 4106 219 4313 219 
Q 4528 219 4667 400 
Q 4806 581 4806 1063 
Q 4806 1506 4665 1686 
Q 4525 1866 4316 1866 
z
" id="ArialMT-25" transform="scale(0.015625)"/>
     </defs>
     <use xlink:href="#ArialMT-42"/>
     <use x="66.699219" xlink:href="#ArialMT-6f"/>
     <use x="122.314453" xlink:href="#ArialMT-74"/>
     <use x="150.097656" xlink:href="#ArialMT-74"/>
     <use x="177.880859" xlink:href="#ArialMT-6f"/>
     <use x="233.496094" xlink:href="#ArialMT-6d"/>
     <use x="316.796875" xlink:href="#ArialMT-20"/>
     <use x="344.580078" xlink:href="#ArialMT-31"/>
     <use x="400.195312" xlink:href="#ArialMT-30"/>
     <use x="455.810547" xlink:href="#ArialMT-25"/>
    </g>
   </g>
  </g>
 </g>
 <defs>
  <clipPath id="p785082406c">
   <rect height="51.52" width="90.88" x="42.32" y="25.44"/>
  </clipPath>
 </defs>
</svg>
