<?xml version="1.0" encoding="utf-8" standalone="no"?>
<!DOCTYPE svg PUBLIC "-//W3C//DTD SVG 1.1//EN"
  "http://www.w3.org/Graphics/SVG/1.1/DTD/svg11.dtd">
<svg height="144pt" version="1.1" viewBox="0 0 144 144" width="144pt" xmlns="http://www.w3.org/2000/svg" xmlns:xlink="http://www.w3.org/1999/xlink">
 <metadata>
  <rdf:RDF xmlns:cc="http://creativecommons.org/ns#" xmlns:dc="http://purl.org/dc/elements/1.1/" xmlns:rdf="http://www.w3.org/1999/02/22-rdf-syntax-ns#">
   <cc:Work>
    <dc:type rdf:resource="http://purl.org/dc/dcmitype/StillImage"/>
    <dc:date>2022-11-07T10:51:00.499046</dc:date>
    <dc:format>image/svg+xml</dc:format>
    <dc:creator>
     <cc:Agent>
      <dc:title>Matplotlib v3.4.2, https://matplotlib.org/</dc:title>
     </cc:Agent>
    </dc:creator>
   </cc:Work>
  </rdf:RDF>
 </metadata>
 <defs>
  <style type="text/css">*{stroke-linecap:butt;stroke-linejoin:round;}</style>
 </defs>
 <g id="figure_1">
  <g id="patch_1">
   <path d="M 0 144 
L 144 144 
L 144 0 
L 0 0 
z
" style="fill:#ffffff;"/>
  </g>
  <g id="axes_1">
   <g id="patch_2">
    <path d="M 42.32 76.96 
L 133.2 76.96 
L 133.2 25.44 
L 42.32 25.44 
z
" style="fill:#ffffff;"/>
   </g>
   <g id="matplotlib.axis_1">
    <g id="xtick_1">
     <g id="text_1">
      <!-- Original -->
      <g style="fill:#262626;" transform="translate(60.057292 118.41625)rotate(-90)scale(0.1 -0.1)">
       <defs>
        <path d="M 309 2231 
Q 309 3372 921 4017 
Q 1534 4663 2503 4663 
Q 3138 4663 3647 4359 
Q 4156 4056 4423 3514 
Q 4691 2972 4691 2284 
Q 4691 1588 4409 1038 
Q 4128 488 3612 205 
Q 3097 -78 2500 -78 
Q 1853 -78 1343 234 
Q 834 547 571 1087 
Q 309 1628 309 2231 
z
M 934 2222 
Q 934 1394 1379 917 
Q 1825 441 2497 441 
Q 3181 441 3623 922 
Q 4066 1403 4066 2288 
Q 4066 2847 3877 3264 
Q 3688 3681 3323 3911 
Q 2959 4141 2506 4141 
Q 1863 4141 1398 3698 
Q 934 3256 934 2222 
z
" id="ArialMT-4f" transform="scale(0.015625)"/>
        <path d="M 416 0 
L 416 3319 
L 922 3319 
L 922 2816 
Q 1116 3169 1280 3281 
Q 1444 3394 1641 3394 
Q 1925 3394 2219 3213 
L 2025 2691 
Q 1819 2813 1613 2813 
Q 1428 2813 1281 2702 
Q 1134 2591 1072 2394 
Q 978 2094 978 1738 
L 978 0 
L 416 0 
z
" id="ArialMT-72" transform="scale(0.015625)"/>
        <path d="M 425 3934 
L 425 4581 
L 988 4581 
L 988 3934 
L 425 3934 
z
M 425 0 
L 425 3319 
L 988 3319 
L 988 0 
L 425 0 
z
" id="ArialMT-69" transform="scale(0.015625)"/>
        <path d="M 319 -275 
L 866 -356 
Q 900 -609 1056 -725 
Q 1266 -881 1628 -881 
Q 2019 -881 2231 -725 
Q 2444 -569 2519 -288 
Q 2563 -116 2559 434 
Q 2191 0 1641 0 
Q 956 0 581 494 
Q 206 988 206 1678 
Q 206 2153 378 2554 
Q 550 2956 876 3175 
Q 1203 3394 1644 3394 
Q 2231 3394 2613 2919 
L 2613 3319 
L 3131 3319 
L 3131 450 
Q 3131 -325 2973 -648 
Q 2816 -972 2473 -1159 
Q 2131 -1347 1631 -1347 
Q 1038 -1347 672 -1080 
Q 306 -813 319 -275 
z
M 784 1719 
Q 784 1066 1043 766 
Q 1303 466 1694 466 
Q 2081 466 2343 764 
Q 2606 1063 2606 1700 
Q 2606 2309 2336 2618 
Q 2066 2928 1684 2928 
Q 1309 2928 1046 2623 
Q 784 2319 784 1719 
z
" id="ArialMT-67" transform="scale(0.015625)"/>
        <path d="M 422 0 
L 422 3319 
L 928 3319 
L 928 2847 
Q 1294 3394 1984 3394 
Q 2284 3394 2536 3286 
Q 2788 3178 2913 3003 
Q 3038 2828 3088 2588 
Q 3119 2431 3119 2041 
L 3119 0 
L 2556 0 
L 2556 2019 
Q 2556 2363 2490 2533 
Q 2425 2703 2258 2804 
Q 2091 2906 1866 2906 
Q 1506 2906 1245 2678 
Q 984 2450 984 1813 
L 984 0 
L 422 0 
z
" id="ArialMT-6e" transform="scale(0.015625)"/>
        <path d="M 2588 409 
Q 2275 144 1986 34 
Q 1697 -75 1366 -75 
Q 819 -75 525 192 
Q 231 459 231 875 
Q 231 1119 342 1320 
Q 453 1522 633 1644 
Q 813 1766 1038 1828 
Q 1203 1872 1538 1913 
Q 2219 1994 2541 2106 
Q 2544 2222 2544 2253 
Q 2544 2597 2384 2738 
Q 2169 2928 1744 2928 
Q 1347 2928 1158 2789 
Q 969 2650 878 2297 
L 328 2372 
Q 403 2725 575 2942 
Q 747 3159 1072 3276 
Q 1397 3394 1825 3394 
Q 2250 3394 2515 3294 
Q 2781 3194 2906 3042 
Q 3031 2891 3081 2659 
Q 3109 2516 3109 2141 
L 3109 1391 
Q 3109 606 3145 398 
Q 3181 191 3288 0 
L 2700 0 
Q 2613 175 2588 409 
z
M 2541 1666 
Q 2234 1541 1622 1453 
Q 1275 1403 1131 1340 
Q 988 1278 909 1158 
Q 831 1038 831 891 
Q 831 666 1001 516 
Q 1172 366 1500 366 
Q 1825 366 2078 508 
Q 2331 650 2450 897 
Q 2541 1088 2541 1459 
L 2541 1666 
z
" id="ArialMT-61" transform="scale(0.015625)"/>
        <path d="M 409 0 
L 409 4581 
L 972 4581 
L 972 0 
L 409 0 
z
" id="ArialMT-6c" transform="scale(0.015625)"/>
       </defs>
       <use xlink:href="#ArialMT-4f"/>
       <use x="77.783203" xlink:href="#ArialMT-72"/>
       <use x="111.083984" xlink:href="#ArialMT-69"/>
       <use x="133.300781" xlink:href="#ArialMT-67"/>
       <use x="188.916016" xlink:href="#ArialMT-69"/>
       <use x="211.132812" xlink:href="#ArialMT-6e"/>
       <use x="266.748047" xlink:href="#ArialMT-61"/>
       <use x="322.363281" xlink:href="#ArialMT-6c"/>
      </g>
     </g>
    </g>
    <g id="xtick_2">
     <g id="text_2">
      <!-- Mutated -->
      <g style="fill:#262626;" transform="translate(90.345156 120.089687)rotate(-90)scale(0.1 -0.1)">
       <defs>
        <path d="M 475 0 
L 475 4581 
L 1388 4581 
L 2472 1338 
Q 2622 884 2691 659 
Q 2769 909 2934 1394 
L 4031 4581 
L 4847 4581 
L 4847 0 
L 4263 0 
L 4263 3834 
L 2931 0 
L 2384 0 
L 1059 3900 
L 1059 0 
L 475 0 
z
" id="ArialMT-4d" transform="scale(0.015625)"/>
        <path d="M 2597 0 
L 2597 488 
Q 2209 -75 1544 -75 
Q 1250 -75 995 37 
Q 741 150 617 320 
Q 494 491 444 738 
Q 409 903 409 1263 
L 409 3319 
L 972 3319 
L 972 1478 
Q 972 1038 1006 884 
Q 1059 663 1231 536 
Q 1403 409 1656 409 
Q 1909 409 2131 539 
Q 2353 669 2445 892 
Q 2538 1116 2538 1541 
L 2538 3319 
L 3100 3319 
L 3100 0 
L 2597 0 
z
" id="ArialMT-75" transform="scale(0.015625)"/>
        <path d="M 1650 503 
L 1731 6 
Q 1494 -44 1306 -44 
Q 1000 -44 831 53 
Q 663 150 594 308 
Q 525 466 525 972 
L 525 2881 
L 113 2881 
L 113 3319 
L 525 3319 
L 525 4141 
L 1084 4478 
L 1084 3319 
L 1650 3319 
L 1650 2881 
L 1084 2881 
L 1084 941 
Q 1084 700 1114 631 
Q 1144 563 1211 522 
Q 1278 481 1403 481 
Q 1497 481 1650 503 
z
" id="ArialMT-74" transform="scale(0.015625)"/>
        <path d="M 2694 1069 
L 3275 997 
Q 3138 488 2766 206 
Q 2394 -75 1816 -75 
Q 1088 -75 661 373 
Q 234 822 234 1631 
Q 234 2469 665 2931 
Q 1097 3394 1784 3394 
Q 2450 3394 2872 2941 
Q 3294 2488 3294 1666 
Q 3294 1616 3291 1516 
L 816 1516 
Q 847 969 1125 678 
Q 1403 388 1819 388 
Q 2128 388 2347 550 
Q 2566 713 2694 1069 
z
M 847 1978 
L 2700 1978 
Q 2663 2397 2488 2606 
Q 2219 2931 1791 2931 
Q 1403 2931 1139 2672 
Q 875 2413 847 1978 
z
" id="ArialMT-65" transform="scale(0.015625)"/>
        <path d="M 2575 0 
L 2575 419 
Q 2259 -75 1647 -75 
Q 1250 -75 917 144 
Q 584 363 401 755 
Q 219 1147 219 1656 
Q 219 2153 384 2558 
Q 550 2963 881 3178 
Q 1213 3394 1622 3394 
Q 1922 3394 2156 3267 
Q 2391 3141 2538 2938 
L 2538 4581 
L 3097 4581 
L 3097 0 
L 2575 0 
z
M 797 1656 
Q 797 1019 1065 703 
Q 1334 388 1700 388 
Q 2069 388 2326 689 
Q 2584 991 2584 1609 
Q 2584 2291 2321 2609 
Q 2059 2928 1675 2928 
Q 1300 2928 1048 2622 
Q 797 2316 797 1656 
z
" id="ArialMT-64" transform="scale(0.015625)"/>
       </defs>
       <use xlink:href="#ArialMT-4d"/>
       <use x="83.300781" xlink:href="#ArialMT-75"/>
       <use x="138.916016" xlink:href="#ArialMT-74"/>
       <use x="166.699219" xlink:href="#ArialMT-61"/>
       <use x="222.314453" xlink:href="#ArialMT-74"/>
       <use x="250.097656" xlink:href="#ArialMT-65"/>
       <use x="305.712891" xlink:href="#ArialMT-64"/>
      </g>
     </g>
    </g>
    <g id="xtick_3">
     <g id="text_3">
      <!-- STORM -->
      <g style="fill:#262626;" transform="translate(120.63849 119.892812)rotate(-90)scale(0.1 -0.1)">
       <defs>
        <path d="M 288 1472 
L 859 1522 
Q 900 1178 1048 958 
Q 1197 738 1509 602 
Q 1822 466 2213 466 
Q 2559 466 2825 569 
Q 3091 672 3220 851 
Q 3350 1031 3350 1244 
Q 3350 1459 3225 1620 
Q 3100 1781 2813 1891 
Q 2628 1963 1997 2114 
Q 1366 2266 1113 2400 
Q 784 2572 623 2826 
Q 463 3081 463 3397 
Q 463 3744 659 4045 
Q 856 4347 1234 4503 
Q 1613 4659 2075 4659 
Q 2584 4659 2973 4495 
Q 3363 4331 3572 4012 
Q 3781 3694 3797 3291 
L 3216 3247 
Q 3169 3681 2898 3903 
Q 2628 4125 2100 4125 
Q 1550 4125 1298 3923 
Q 1047 3722 1047 3438 
Q 1047 3191 1225 3031 
Q 1400 2872 2139 2705 
Q 2878 2538 3153 2413 
Q 3553 2228 3743 1945 
Q 3934 1663 3934 1294 
Q 3934 928 3725 604 
Q 3516 281 3123 101 
Q 2731 -78 2241 -78 
Q 1619 -78 1198 103 
Q 778 284 539 648 
Q 300 1013 288 1472 
z
" id="ArialMT-53" transform="scale(0.015625)"/>
        <path d="M 1659 0 
L 1659 4041 
L 150 4041 
L 150 4581 
L 3781 4581 
L 3781 4041 
L 2266 4041 
L 2266 0 
L 1659 0 
z
" id="ArialMT-54" transform="scale(0.015625)"/>
        <path d="M 503 0 
L 503 4581 
L 2534 4581 
Q 3147 4581 3465 4457 
Q 3784 4334 3975 4021 
Q 4166 3709 4166 3331 
Q 4166 2844 3850 2509 
Q 3534 2175 2875 2084 
Q 3116 1969 3241 1856 
Q 3506 1613 3744 1247 
L 4541 0 
L 3778 0 
L 3172 953 
Q 2906 1366 2734 1584 
Q 2563 1803 2427 1890 
Q 2291 1978 2150 2013 
Q 2047 2034 1813 2034 
L 1109 2034 
L 1109 0 
L 503 0 
z
M 1109 2559 
L 2413 2559 
Q 2828 2559 3062 2645 
Q 3297 2731 3419 2920 
Q 3541 3109 3541 3331 
Q 3541 3656 3305 3865 
Q 3069 4075 2559 4075 
L 1109 4075 
L 1109 2559 
z
" id="ArialMT-52" transform="scale(0.015625)"/>
       </defs>
       <use xlink:href="#ArialMT-53"/>
       <use x="66.699219" xlink:href="#ArialMT-54"/>
       <use x="126.033203" xlink:href="#ArialMT-4f"/>
       <use x="203.816406" xlink:href="#ArialMT-52"/>
       <use x="276.033203" xlink:href="#ArialMT-4d"/>
      </g>
     </g>
    </g>
    <g id="text_4">
     <!-- Method -->
     <g style="fill:#262626;" transform="translate(71.084219 131.2475)scale(0.1 -0.1)">
      <defs>
       <path d="M 422 0 
L 422 4581 
L 984 4581 
L 984 2938 
Q 1378 3394 1978 3394 
Q 2347 3394 2619 3248 
Q 2891 3103 3008 2847 
Q 3125 2591 3125 2103 
L 3125 0 
L 2563 0 
L 2563 2103 
Q 2563 2525 2380 2717 
Q 2197 2909 1863 2909 
Q 1613 2909 1392 2779 
Q 1172 2650 1078 2428 
Q 984 2206 984 1816 
L 984 0 
L 422 0 
z
" id="ArialMT-68" transform="scale(0.015625)"/>
       <path d="M 213 1659 
Q 213 2581 725 3025 
Q 1153 3394 1769 3394 
Q 2453 3394 2887 2945 
Q 3322 2497 3322 1706 
Q 3322 1066 3130 698 
Q 2938 331 2570 128 
Q 2203 -75 1769 -75 
Q 1072 -75 642 372 
Q 213 819 213 1659 
z
M 791 1659 
Q 791 1022 1069 705 
Q 1347 388 1769 388 
Q 2188 388 2466 706 
Q 2744 1025 2744 1678 
Q 2744 2294 2464 2611 
Q 2184 2928 1769 2928 
Q 1347 2928 1069 2612 
Q 791 2297 791 1659 
z
" id="ArialMT-6f" transform="scale(0.015625)"/>
      </defs>
      <use xlink:href="#ArialMT-4d"/>
      <use x="83.300781" xlink:href="#ArialMT-65"/>
      <use x="138.916016" xlink:href="#ArialMT-74"/>
      <use x="166.699219" xlink:href="#ArialMT-68"/>
      <use x="222.314453" xlink:href="#ArialMT-6f"/>
      <use x="277.929688" xlink:href="#ArialMT-64"/>
     </g>
    </g>
   </g>
   <g id="matplotlib.axis_2">
    <g id="ytick_1">
     <g id="text_5">
      <!-- −1 -->
      <g style="fill:#262626;" transform="translate(23.918438 75.126495)scale(0.1 -0.1)">
       <defs>
        <path d="M 3381 1997 
L 356 1997 
L 356 2522 
L 3381 2522 
L 3381 1997 
z
" id="ArialMT-2212" transform="scale(0.015625)"/>
        <path d="M 2384 0 
L 1822 0 
L 1822 3584 
Q 1619 3391 1289 3197 
Q 959 3003 697 2906 
L 697 3450 
Q 1169 3672 1522 3987 
Q 1875 4303 2022 4600 
L 2384 4600 
L 2384 0 
z
" id="ArialMT-31" transform="scale(0.015625)"/>
       </defs>
       <use xlink:href="#ArialMT-2212"/>
       <use x="58.398438" xlink:href="#ArialMT-31"/>
      </g>
     </g>
    </g>
    <g id="ytick_2">
     <g id="text_6">
      <!-- 0 -->
      <g style="fill:#262626;" transform="translate(29.759063 56.555705)scale(0.1 -0.1)">
       <defs>
        <path d="M 266 2259 
Q 266 3072 433 3567 
Q 600 4063 929 4331 
Q 1259 4600 1759 4600 
Q 2128 4600 2406 4451 
Q 2684 4303 2865 4023 
Q 3047 3744 3150 3342 
Q 3253 2941 3253 2259 
Q 3253 1453 3087 958 
Q 2922 463 2592 192 
Q 2263 -78 1759 -78 
Q 1097 -78 719 397 
Q 266 969 266 2259 
z
M 844 2259 
Q 844 1131 1108 757 
Q 1372 384 1759 384 
Q 2147 384 2411 759 
Q 2675 1134 2675 2259 
Q 2675 3391 2411 3762 
Q 2147 4134 1753 4134 
Q 1366 4134 1134 3806 
Q 844 3388 844 2259 
z
" id="ArialMT-30" transform="scale(0.015625)"/>
       </defs>
       <use xlink:href="#ArialMT-30"/>
      </g>
     </g>
    </g>
    <g id="ytick_3">
     <g id="text_7">
      <!-- 1 -->
      <g style="fill:#262626;" transform="translate(29.759063 37.984916)scale(0.1 -0.1)">
       <use xlink:href="#ArialMT-31"/>
      </g>
     </g>
    </g>
    <g id="text_8">
     <!-- Predictions -->
     <g style="fill:#262626;" transform="translate(17.930938 75.932813)rotate(-90)scale(0.1 -0.1)">
      <defs>
       <path d="M 494 0 
L 494 4581 
L 2222 4581 
Q 2678 4581 2919 4538 
Q 3256 4481 3484 4323 
Q 3713 4166 3852 3881 
Q 3991 3597 3991 3256 
Q 3991 2672 3619 2267 
Q 3247 1863 2275 1863 
L 1100 1863 
L 1100 0 
L 494 0 
z
M 1100 2403 
L 2284 2403 
Q 2872 2403 3119 2622 
Q 3366 2841 3366 3238 
Q 3366 3525 3220 3729 
Q 3075 3934 2838 4000 
Q 2684 4041 2272 4041 
L 1100 4041 
L 1100 2403 
z
" id="ArialMT-50" transform="scale(0.015625)"/>
       <path d="M 2588 1216 
L 3141 1144 
Q 3050 572 2676 248 
Q 2303 -75 1759 -75 
Q 1078 -75 664 370 
Q 250 816 250 1647 
Q 250 2184 428 2587 
Q 606 2991 970 3192 
Q 1334 3394 1763 3394 
Q 2303 3394 2647 3120 
Q 2991 2847 3088 2344 
L 2541 2259 
Q 2463 2594 2264 2762 
Q 2066 2931 1784 2931 
Q 1359 2931 1093 2626 
Q 828 2322 828 1663 
Q 828 994 1084 691 
Q 1341 388 1753 388 
Q 2084 388 2306 591 
Q 2528 794 2588 1216 
z
" id="ArialMT-63" transform="scale(0.015625)"/>
       <path d="M 197 991 
L 753 1078 
Q 800 744 1014 566 
Q 1228 388 1613 388 
Q 2000 388 2187 545 
Q 2375 703 2375 916 
Q 2375 1106 2209 1216 
Q 2094 1291 1634 1406 
Q 1016 1563 777 1677 
Q 538 1791 414 1992 
Q 291 2194 291 2438 
Q 291 2659 392 2848 
Q 494 3038 669 3163 
Q 800 3259 1026 3326 
Q 1253 3394 1513 3394 
Q 1903 3394 2198 3281 
Q 2494 3169 2634 2976 
Q 2775 2784 2828 2463 
L 2278 2388 
Q 2241 2644 2061 2787 
Q 1881 2931 1553 2931 
Q 1166 2931 1000 2803 
Q 834 2675 834 2503 
Q 834 2394 903 2306 
Q 972 2216 1119 2156 
Q 1203 2125 1616 2013 
Q 2213 1853 2448 1751 
Q 2684 1650 2818 1456 
Q 2953 1263 2953 975 
Q 2953 694 2789 445 
Q 2625 197 2315 61 
Q 2006 -75 1616 -75 
Q 969 -75 630 194 
Q 291 463 197 991 
z
" id="ArialMT-73" transform="scale(0.015625)"/>
      </defs>
      <use xlink:href="#ArialMT-50"/>
      <use x="66.699219" xlink:href="#ArialMT-72"/>
      <use x="100" xlink:href="#ArialMT-65"/>
      <use x="155.615234" xlink:href="#ArialMT-64"/>
      <use x="211.230469" xlink:href="#ArialMT-69"/>
      <use x="233.447266" xlink:href="#ArialMT-63"/>
      <use x="283.447266" xlink:href="#ArialMT-74"/>
      <use x="311.230469" xlink:href="#ArialMT-69"/>
      <use x="333.447266" xlink:href="#ArialMT-6f"/>
      <use x="389.0625" xlink:href="#ArialMT-6e"/>
      <use x="444.677734" xlink:href="#ArialMT-73"/>
     </g>
    </g>
   </g>
   <g id="PolyCollection_1">
    <defs>
     <path d="M 57.48174 -72.748742 
L 57.451593 -72.748742 
L 57.445727 -73.125198 
L 57.438152 -73.501654 
L 57.428578 -73.87811 
L 57.416721 -74.254566 
L 57.402319 -74.631022 
L 57.385133 -75.007478 
L 57.364952 -75.383934 
L 57.34158 -75.76039 
L 57.314823 -76.136846 
L 57.284465 -76.513302 
L 57.250246 -76.889758 
L 57.211841 -77.266214 
L 57.168853 -77.64267 
L 57.120832 -78.019126 
L 57.067304 -78.395582 
L 57.007838 -78.772038 
L 56.942125 -79.148494 
L 56.870072 -79.52495 
L 56.791881 -79.901406 
L 56.708112 -80.277862 
L 56.619693 -80.654318 
L 56.527878 -81.030774 
L 56.434138 -81.40723 
L 56.339997 -81.783686 
L 56.246828 -82.160142 
L 56.15565 -82.536598 
L 56.06695 -82.913054 
L 55.980581 -83.28951 
L 55.895759 -83.665966 
L 55.811173 -84.042422 
L 55.725201 -84.418879 
L 55.636209 -84.795335 
L 55.542879 -85.171791 
L 55.444513 -85.548247 
L 55.341254 -85.924703 
L 55.234191 -86.301159 
L 55.125308 -86.677615 
L 55.017292 -87.054071 
L 54.913226 -87.430527 
L 54.81622 -87.806983 
L 54.729037 -88.183439 
L 54.653773 -88.559895 
L 54.591653 -88.936351 
L 54.542951 -89.312807 
L 54.507055 -89.689263 
L 54.482646 -90.065719 
L 54.467951 -90.442175 
L 54.461024 -90.818631 
L 54.460005 -91.195087 
L 54.463319 -91.571543 
L 54.469791 -91.947999 
L 54.478679 -92.324455 
L 54.489628 -92.700911 
L 54.502591 -93.077367 
L 54.517725 -93.453823 
L 54.535305 -93.830279 
L 54.555666 -94.206735 
L 54.579186 -94.583191 
L 54.606297 -94.959647 
L 54.63752 -95.336103 
L 54.673491 -95.712559 
L 54.714982 -96.089015 
L 54.76288 -96.465471 
L 54.818135 -96.841927 
L 54.881672 -97.218384 
L 54.954275 -97.59484 
L 55.036466 -97.971296 
L 55.128391 -98.347752 
L 55.229731 -98.724208 
L 55.339661 -99.100664 
L 55.45686 -99.47712 
L 55.57958 -99.853576 
L 55.705763 -100.230032 
L 55.833204 -100.606488 
L 55.959726 -100.982944 
L 56.083353 -101.3594 
L 56.202452 -101.735856 
L 56.315832 -102.112312 
L 56.42278 -102.488768 
L 56.523033 -102.865224 
L 56.616706 -103.24168 
L 56.704168 -103.618136 
L 56.785921 -103.994592 
L 56.862469 -104.371048 
L 56.934222 -104.747504 
L 57.001436 -105.12396 
L 57.064193 -105.500416 
L 57.122423 -105.876872 
L 57.175947 -106.253328 
L 57.224552 -106.629784 
L 57.268045 -107.00624 
L 57.30632 -107.382696 
L 57.33939 -107.759152 
L 57.36741 -108.135608 
L 57.390666 -108.512064 
L 57.409562 -108.88852 
L 57.424583 -109.264976 
L 57.436262 -109.641432 
L 57.445139 -110.017889 
L 57.488195 -110.017889 
L 57.488195 -110.017889 
L 57.497072 -109.641432 
L 57.50875 -109.264976 
L 57.523772 -108.88852 
L 57.542668 -108.512064 
L 57.565924 -108.135608 
L 57.593943 -107.759152 
L 57.627014 -107.382696 
L 57.665288 -107.00624 
L 57.708782 -106.629784 
L 57.757386 -106.253328 
L 57.810911 -105.876872 
L 57.86914 -105.500416 
L 57.931897 -105.12396 
L 57.999111 -104.747504 
L 58.070864 -104.371048 
L 58.147412 -103.994592 
L 58.229165 -103.618136 
L 58.316627 -103.24168 
L 58.4103 -102.865224 
L 58.510554 -102.488768 
L 58.617501 -102.112312 
L 58.730882 -101.735856 
L 58.849981 -101.3594 
L 58.973607 -100.982944 
L 59.100129 -100.606488 
L 59.22757 -100.230032 
L 59.353754 -99.853576 
L 59.476473 -99.47712 
L 59.593673 -99.100664 
L 59.703603 -98.724208 
L 59.804943 -98.347752 
L 59.896867 -97.971296 
L 59.979058 -97.59484 
L 60.051661 -97.218384 
L 60.115198 -96.841927 
L 60.170453 -96.465471 
L 60.218351 -96.089015 
L 60.259842 -95.712559 
L 60.295814 -95.336103 
L 60.327036 -94.959647 
L 60.354148 -94.583191 
L 60.377668 -94.206735 
L 60.398029 -93.830279 
L 60.415609 -93.453823 
L 60.430743 -93.077367 
L 60.443706 -92.700911 
L 60.454655 -92.324455 
L 60.463542 -91.947999 
L 60.470015 -91.571543 
L 60.473329 -91.195087 
L 60.472309 -90.818631 
L 60.465382 -90.442175 
L 60.450687 -90.065719 
L 60.426278 -89.689263 
L 60.390383 -89.312807 
L 60.341681 -88.936351 
L 60.27956 -88.559895 
L 60.204297 -88.183439 
L 60.117113 -87.806983 
L 60.020108 -87.430527 
L 59.916042 -87.054071 
L 59.808025 -86.677615 
L 59.699142 -86.301159 
L 59.592079 -85.924703 
L 59.48882 -85.548247 
L 59.390454 -85.171791 
L 59.297124 -84.795335 
L 59.208133 -84.418879 
L 59.122161 -84.042422 
L 59.037574 -83.665966 
L 58.952753 -83.28951 
L 58.866384 -82.913054 
L 58.777684 -82.536598 
L 58.686505 -82.160142 
L 58.593337 -81.783686 
L 58.499195 -81.40723 
L 58.405455 -81.030774 
L 58.31364 -80.654318 
L 58.225221 -80.277862 
L 58.141452 -79.901406 
L 58.063261 -79.52495 
L 57.991208 -79.148494 
L 57.925496 -78.772038 
L 57.86603 -78.395582 
L 57.812501 -78.019126 
L 57.76448 -77.64267 
L 57.721493 -77.266214 
L 57.683087 -76.889758 
L 57.648868 -76.513302 
L 57.618511 -76.136846 
L 57.591754 -75.76039 
L 57.568382 -75.383934 
L 57.5482 -75.007478 
L 57.531015 -74.631022 
L 57.516612 -74.254566 
L 57.504756 -73.87811 
L 57.495181 -73.501654 
L 57.487606 -73.125198 
L 57.48174 -72.748742 
z
" id="mb4fa3437ee" style="stroke:#262626;stroke-width:0.75;"/>
    </defs>
    <g clip-path="url(#pa701627948)">
     <use style="fill:#7f9dd2;stroke:#262626;stroke-width:0.75;" x="0" xlink:href="#mb4fa3437ee" y="144"/>
    </g>
   </g>
   <g id="PolyCollection_2">
    <defs>
     <path d="M 87.760018 -69.381818 
L 87.759982 -69.381818 
L 87.759901 -69.854913 
L 87.759858 -70.328007 
L 87.759868 -70.801102 
L 87.759852 -71.274197 
L 87.759853 -71.747291 
L 87.759703 -72.220386 
L 87.759291 -72.69348 
L 87.758589 -73.166575 
L 87.757305 -73.639669 
L 87.755104 -74.112764 
L 87.75087 -74.585859 
L 87.74139 -75.058953 
L 87.72752 -75.532048 
L 87.709432 -76.005142 
L 87.682693 -76.478237 
L 87.646286 -76.951331 
L 87.599638 -77.424426 
L 87.537923 -77.897521 
L 87.468649 -78.370615 
L 87.382744 -78.84371 
L 87.277795 -79.316804 
L 87.162056 -79.789899 
L 87.011283 -80.262994 
L 86.861803 -80.736088 
L 86.718005 -81.209183 
L 86.554012 -81.682277 
L 86.374656 -82.155372 
L 86.200768 -82.628466 
L 86.017196 -83.101561 
L 85.811497 -83.574656 
L 85.612332 -84.04775 
L 85.408896 -84.520845 
L 85.199082 -84.993939 
L 84.965507 -85.467034 
L 84.745541 -85.940129 
L 84.538867 -86.413223 
L 84.329923 -86.886318 
L 84.141542 -87.359412 
L 84.003998 -87.832507 
L 83.911583 -88.305601 
L 83.830224 -88.778696 
L 83.744185 -89.251791 
L 83.681088 -89.724885 
L 83.663681 -90.19798 
L 83.676869 -90.671074 
L 83.716115 -91.144169 
L 83.784055 -91.617264 
L 83.869003 -92.090358 
L 83.987519 -92.563453 
L 84.172459 -93.036547 
L 84.370699 -93.509642 
L 84.587595 -93.982736 
L 84.80767 -94.455831 
L 85.028019 -94.928926 
L 85.263069 -95.40202 
L 85.500509 -95.875115 
L 85.720797 -96.348209 
L 85.947024 -96.821304 
L 86.172648 -97.294399 
L 86.396418 -97.767493 
L 86.596538 -98.240588 
L 86.757677 -98.713682 
L 86.897557 -99.186777 
L 87.02677 -99.659871 
L 87.134549 -100.132966 
L 87.225402 -100.606061 
L 87.304691 -101.079155 
L 87.37813 -101.55225 
L 87.437267 -102.025344 
L 87.492141 -102.498439 
L 87.538978 -102.971534 
L 87.576795 -103.444628 
L 87.608507 -103.917723 
L 87.632837 -104.390817 
L 87.646311 -104.863912 
L 87.65464 -105.337006 
L 87.664591 -105.810101 
L 87.679102 -106.283196 
L 87.693429 -106.75629 
L 87.704068 -107.229385 
L 87.714427 -107.702479 
L 87.723855 -108.175574 
L 87.729186 -108.648669 
L 87.73072 -109.121763 
L 87.736439 -109.594858 
L 87.745122 -110.067952 
L 87.750233 -110.541047 
L 87.752328 -111.014141 
L 87.754 -111.487236 
L 87.755929 -111.960331 
L 87.757614 -112.433425 
L 87.759011 -112.90652 
L 87.75956 -113.379614 
L 87.759673 -113.852709 
L 87.759766 -114.325803 
L 87.759716 -114.798898 
L 87.759736 -115.271993 
L 87.759877 -115.745087 
L 87.75998 -116.218182 
L 87.76002 -116.218182 
L 87.76002 -116.218182 
L 87.760123 -115.745087 
L 87.760264 -115.271993 
L 87.760284 -114.798898 
L 87.760234 -114.325803 
L 87.760327 -113.852709 
L 87.76044 -113.379614 
L 87.760989 -112.90652 
L 87.762386 -112.433425 
L 87.764071 -111.960331 
L 87.766 -111.487236 
L 87.767672 -111.014141 
L 87.769767 -110.541047 
L 87.774878 -110.067952 
L 87.783561 -109.594858 
L 87.78928 -109.121763 
L 87.790814 -108.648669 
L 87.796145 -108.175574 
L 87.805573 -107.702479 
L 87.815932 -107.229385 
L 87.826571 -106.75629 
L 87.840898 -106.283196 
L 87.855409 -105.810101 
L 87.86536 -105.337006 
L 87.873689 -104.863912 
L 87.887163 -104.390817 
L 87.911493 -103.917723 
L 87.943205 -103.444628 
L 87.981022 -102.971534 
L 88.027859 -102.498439 
L 88.082733 -102.025344 
L 88.14187 -101.55225 
L 88.215309 -101.079155 
L 88.294598 -100.606061 
L 88.385451 -100.132966 
L 88.49323 -99.659871 
L 88.622443 -99.186777 
L 88.762323 -98.713682 
L 88.923462 -98.240588 
L 89.123582 -97.767493 
L 89.347352 -97.294399 
L 89.572976 -96.821304 
L 89.799203 -96.348209 
L 90.019491 -95.875115 
L 90.256931 -95.40202 
L 90.491981 -94.928926 
L 90.71233 -94.455831 
L 90.932405 -93.982736 
L 91.149301 -93.509642 
L 91.347541 -93.036547 
L 91.532481 -92.563453 
L 91.650997 -92.090358 
L 91.735945 -91.617264 
L 91.803885 -91.144169 
L 91.843131 -90.671074 
L 91.856319 -90.19798 
L 91.838912 -89.724885 
L 91.775815 -89.251791 
L 91.689776 -88.778696 
L 91.608417 -88.305601 
L 91.516002 -87.832507 
L 91.378458 -87.359412 
L 91.190077 -86.886318 
L 90.981133 -86.413223 
L 90.774459 -85.940129 
L 90.554493 -85.467034 
L 90.320918 -84.993939 
L 90.111104 -84.520845 
L 89.907668 -84.04775 
L 89.708503 -83.574656 
L 89.502804 -83.101561 
L 89.319232 -82.628466 
L 89.145344 -82.155372 
L 88.965988 -81.682277 
L 88.801995 -81.209183 
L 88.658197 -80.736088 
L 88.508717 -80.262994 
L 88.357944 -79.789899 
L 88.242205 -79.316804 
L 88.137256 -78.84371 
L 88.051351 -78.370615 
L 87.982077 -77.897521 
L 87.920362 -77.424426 
L 87.873714 -76.951331 
L 87.837307 -76.478237 
L 87.810568 -76.005142 
L 87.79248 -75.532048 
L 87.77861 -75.058953 
L 87.76913 -74.585859 
L 87.764896 -74.112764 
L 87.762695 -73.639669 
L 87.761411 -73.166575 
L 87.760709 -72.69348 
L 87.760297 -72.220386 
L 87.760147 -71.747291 
L 87.760148 -71.274197 
L 87.760132 -70.801102 
L 87.760142 -70.328007 
L 87.760099 -69.854913 
L 87.760018 -69.381818 
z
" id="m14b4d60d8f" style="stroke:#262626;stroke-width:0.75;"/>
    </defs>
    <g clip-path="url(#pa701627948)">
     <use style="fill:#1a1a66;stroke:#262626;stroke-width:0.75;" x="0" xlink:href="#m14b4d60d8f" y="144"/>
    </g>
   </g>
   <g id="PolyCollection_3">
    <defs>
     <path d="M 118.509365 -99.25097 
L 117.597302 -99.25097 
L 117.525478 -99.346739 
L 117.445698 -99.442507 
L 117.357698 -99.538276 
L 117.261317 -99.634044 
L 117.156515 -99.729813 
L 117.043387 -99.825581 
L 116.922183 -99.92135 
L 116.793311 -100.017118 
L 116.657351 -100.112887 
L 116.515052 -100.208655 
L 116.367334 -100.304424 
L 116.215275 -100.400192 
L 116.060098 -100.495961 
L 115.903148 -100.591729 
L 115.745866 -100.687498 
L 115.589751 -100.783267 
L 115.436323 -100.879035 
L 115.287077 -100.974804 
L 115.143437 -101.070572 
L 115.006703 -101.166341 
L 114.878004 -101.262109 
L 114.758247 -101.357878 
L 114.648072 -101.453646 
L 114.547812 -101.549415 
L 114.457457 -101.645183 
L 114.376633 -101.740952 
L 114.304583 -101.83672 
L 114.240163 -101.932489 
L 114.181853 -102.028257 
L 114.127775 -102.124026 
L 114.075724 -102.219794 
L 114.023217 -102.315563 
L 113.967543 -102.411331 
L 113.905833 -102.5071 
L 113.83513 -102.602868 
L 113.752471 -102.698637 
L 113.654971 -102.794405 
L 113.539905 -102.890174 
L 113.404798 -102.985942 
L 113.247499 -103.081711 
L 113.066262 -103.177479 
L 112.859812 -103.273248 
L 112.6274 -103.369016 
L 112.368849 -103.464785 
L 112.084588 -103.560553 
L 111.775664 -103.656322 
L 111.44375 -103.75209 
L 111.091131 -103.847859 
L 110.720673 -103.943627 
L 110.335786 -104.039396 
L 109.940363 -104.135164 
L 109.538722 -104.230933 
L 109.13552 -104.326702 
L 108.735674 -104.42247 
L 108.344267 -104.518239 
L 107.966455 -104.614007 
L 107.607367 -104.709776 
L 107.272013 -104.805544 
L 106.965186 -104.901313 
L 106.691377 -104.997081 
L 106.454687 -105.09285 
L 106.258759 -105.188618 
L 106.106707 -105.284387 
L 106.001066 -105.380155 
L 105.943745 -105.475924 
L 105.936 -105.571692 
L 105.978416 -105.667461 
L 106.070901 -105.763229 
L 106.212693 -105.858998 
L 106.402384 -105.954766 
L 106.637951 -106.050535 
L 106.916796 -106.146303 
L 107.235807 -106.242072 
L 107.591413 -106.33784 
L 107.979659 -106.433609 
L 108.396281 -106.529377 
L 108.836783 -106.625146 
L 109.296521 -106.720914 
L 109.770787 -106.816683 
L 110.254889 -106.912451 
L 110.744224 -107.00822 
L 111.234361 -107.103988 
L 111.721097 -107.199757 
L 112.20052 -107.295525 
L 112.66906 -107.391294 
L 113.123525 -107.487062 
L 113.561132 -107.582831 
L 113.979525 -107.678599 
L 114.376787 -107.774368 
L 114.751433 -107.870137 
L 115.102403 -107.965905 
L 115.429044 -108.061674 
L 115.73108 -108.157442 
L 116.008584 -108.253211 
L 116.261939 -108.348979 
L 116.491801 -108.444748 
L 116.699053 -108.540516 
L 116.884769 -108.636285 
L 117.050167 -108.732053 
L 119.0565 -108.732053 
L 119.0565 -108.732053 
L 119.221898 -108.636285 
L 119.407613 -108.540516 
L 119.614866 -108.444748 
L 119.844727 -108.348979 
L 120.098083 -108.253211 
L 120.375587 -108.157442 
L 120.677623 -108.061674 
L 121.004264 -107.965905 
L 121.355234 -107.870137 
L 121.72988 -107.774368 
L 122.127141 -107.678599 
L 122.545535 -107.582831 
L 122.983142 -107.487062 
L 123.437606 -107.391294 
L 123.906146 -107.295525 
L 124.38557 -107.199757 
L 124.872305 -107.103988 
L 125.362442 -107.00822 
L 125.851778 -106.912451 
L 126.335879 -106.816683 
L 126.810146 -106.720914 
L 127.269884 -106.625146 
L 127.710386 -106.529377 
L 128.127007 -106.433609 
L 128.515254 -106.33784 
L 128.87086 -106.242072 
L 129.18987 -106.146303 
L 129.468716 -106.050535 
L 129.704282 -105.954766 
L 129.893974 -105.858998 
L 130.035766 -105.763229 
L 130.128251 -105.667461 
L 130.170667 -105.571692 
L 130.162922 -105.475924 
L 130.105601 -105.380155 
L 129.999959 -105.284387 
L 129.847907 -105.188618 
L 129.651979 -105.09285 
L 129.41529 -104.997081 
L 129.141481 -104.901313 
L 128.834654 -104.805544 
L 128.4993 -104.709776 
L 128.140212 -104.614007 
L 127.7624 -104.518239 
L 127.370993 -104.42247 
L 126.971147 -104.326702 
L 126.567945 -104.230933 
L 126.166303 -104.135164 
L 125.770881 -104.039396 
L 125.385993 -103.943627 
L 125.015535 -103.847859 
L 124.662916 -103.75209 
L 124.331003 -103.656322 
L 124.022079 -103.560553 
L 123.737817 -103.464785 
L 123.479267 -103.369016 
L 123.246855 -103.273248 
L 123.040405 -103.177479 
L 122.859168 -103.081711 
L 122.701869 -102.985942 
L 122.566761 -102.890174 
L 122.451696 -102.794405 
L 122.354196 -102.698637 
L 122.271537 -102.602868 
L 122.200834 -102.5071 
L 122.139124 -102.411331 
L 122.08345 -102.315563 
L 122.030942 -102.219794 
L 121.978892 -102.124026 
L 121.924813 -102.028257 
L 121.866504 -101.932489 
L 121.802084 -101.83672 
L 121.730034 -101.740952 
L 121.64921 -101.645183 
L 121.558855 -101.549415 
L 121.458595 -101.453646 
L 121.34842 -101.357878 
L 121.228663 -101.262109 
L 121.099964 -101.166341 
L 120.96323 -101.070572 
L 120.819589 -100.974804 
L 120.670344 -100.879035 
L 120.516915 -100.783267 
L 120.3608 -100.687498 
L 120.203518 -100.591729 
L 120.046569 -100.495961 
L 119.891392 -100.400192 
L 119.739333 -100.304424 
L 119.591615 -100.208655 
L 119.449316 -100.112887 
L 119.313356 -100.017118 
L 119.184484 -99.92135 
L 119.063279 -99.825581 
L 118.950152 -99.729813 
L 118.845349 -99.634044 
L 118.748968 -99.538276 
L 118.660968 -99.442507 
L 118.581189 -99.346739 
L 118.509365 -99.25097 
z
" id="m83c87dd337" style="stroke:#262626;stroke-width:0.75;"/>
    </defs>
    <g clip-path="url(#pa701627948)">
     <use style="fill:#cc8733;stroke:#262626;stroke-width:0.75;" x="0" xlink:href="#m83c87dd337" y="144"/>
    </g>
   </g>
   <g id="line2d_1">
    <path clip-path="url(#pa701627948)" d="M 57.466667 66.408813 
L 57.466667 38.824557 
" style="fill:none;stroke:#262626;stroke-linecap:round;stroke-width:0.75;"/>
   </g>
   <g id="line2d_2">
    <path clip-path="url(#pa701627948)" d="M 57.466667 56.202639 
L 57.466667 47.331158 
" style="fill:none;stroke:#262626;stroke-linecap:round;stroke-width:2.25;"/>
   </g>
   <g id="line2d_3">
    <path clip-path="url(#pa701627948)" d="M 87.76 67.978545 
L 87.76 39.75454 
" style="fill:none;stroke:#262626;stroke-linecap:round;stroke-width:0.75;"/>
   </g>
   <g id="line2d_4">
    <path clip-path="url(#pa701627948)" d="M 87.76 57.39544 
L 87.76 50.338555 
" style="fill:none;stroke:#262626;stroke-linecap:round;stroke-width:2.25;"/>
   </g>
   <g id="line2d_5">
    <path clip-path="url(#pa701627948)" d="M 118.053333 39.109466 
L 118.053333 37.841199 
" style="fill:none;stroke:#262626;stroke-linecap:round;stroke-width:0.75;"/>
   </g>
   <g id="line2d_6">
    <path clip-path="url(#pa701627948)" d="M 118.053333 39.109466 
L 118.053333 37.841199 
" style="fill:none;stroke:#262626;stroke-linecap:round;stroke-width:2.25;"/>
   </g>
   <g id="patch_3">
    <path d="M 42.32 76.96 
L 42.32 25.44 
" style="fill:none;stroke:#262626;stroke-linecap:square;stroke-linejoin:miter;stroke-width:0.8;"/>
   </g>
   <g id="patch_4">
    <path d="M 42.32 76.96 
L 133.2 76.96 
" style="fill:none;stroke:#262626;stroke-linecap:square;stroke-linejoin:miter;stroke-width:0.8;"/>
   </g>
   <g id="PathCollection_1">
    <defs>
     <path d="M 0 0.75 
C 0.198902 0.75 0.389685 0.670975 0.53033 0.53033 
C 0.670975 0.389685 0.75 0.198902 0.75 0 
C 0.75 -0.198902 0.670975 -0.389685 0.53033 -0.53033 
C 0.389685 -0.670975 0.198902 -0.75 0 -0.75 
C -0.198902 -0.75 -0.389685 -0.670975 -0.53033 -0.53033 
C -0.670975 -0.389685 -0.75 -0.198902 -0.75 0 
C -0.75 0.198902 -0.670975 0.389685 -0.53033 0.53033 
C -0.389685 0.670975 -0.198902 0.75 0 0.75 
z
" id="m3794d8ddb3" style="stroke:#262626;"/>
    </defs>
    <g clip-path="url(#pa701627948)">
     <use style="fill:#ffffff;stroke:#262626;" x="57.466667" xlink:href="#m3794d8ddb3" y="51.682794"/>
    </g>
   </g>
   <g id="PathCollection_2">
    <g clip-path="url(#pa701627948)">
     <use style="fill:#ffffff;stroke:#262626;" x="87.76" xlink:href="#m3794d8ddb3" y="53.850189"/>
    </g>
   </g>
   <g id="PathCollection_3">
    <g clip-path="url(#pa701627948)">
     <use style="fill:#ffffff;stroke:#262626;" x="118.053333" xlink:href="#m3794d8ddb3" y="38.976893"/>
    </g>
   </g>
   <g id="text_9">
    <!-- Random -->
    <g style="fill:#262626;" transform="translate(65.082813 19.44)scale(0.12 -0.12)">
     <defs>
      <path d="M 422 0 
L 422 3319 
L 925 3319 
L 925 2853 
Q 1081 3097 1340 3245 
Q 1600 3394 1931 3394 
Q 2300 3394 2536 3241 
Q 2772 3088 2869 2813 
Q 3263 3394 3894 3394 
Q 4388 3394 4653 3120 
Q 4919 2847 4919 2278 
L 4919 0 
L 4359 0 
L 4359 2091 
Q 4359 2428 4304 2576 
Q 4250 2725 4106 2815 
Q 3963 2906 3769 2906 
Q 3419 2906 3187 2673 
Q 2956 2441 2956 1928 
L 2956 0 
L 2394 0 
L 2394 2156 
Q 2394 2531 2256 2718 
Q 2119 2906 1806 2906 
Q 1569 2906 1367 2781 
Q 1166 2656 1075 2415 
Q 984 2175 984 1722 
L 984 0 
L 422 0 
z
" id="ArialMT-6d" transform="scale(0.015625)"/>
     </defs>
     <use xlink:href="#ArialMT-52"/>
     <use x="72.216797" xlink:href="#ArialMT-61"/>
     <use x="127.832031" xlink:href="#ArialMT-6e"/>
     <use x="183.447266" xlink:href="#ArialMT-64"/>
     <use x="239.0625" xlink:href="#ArialMT-6f"/>
     <use x="294.677734" xlink:href="#ArialMT-6d"/>
    </g>
   </g>
  </g>
 </g>
 <defs>
  <clipPath id="pa701627948">
   <rect height="51.52" width="90.88" x="42.32" y="25.44"/>
  </clipPath>
 </defs>
</svg>
