<?xml version="1.0" encoding="utf-8" standalone="no"?>
<!DOCTYPE svg PUBLIC "-//W3C//DTD SVG 1.1//EN"
  "http://www.w3.org/Graphics/SVG/1.1/DTD/svg11.dtd">
<svg height="144pt" version="1.1" viewBox="0 0 144 144" width="144pt" xmlns="http://www.w3.org/2000/svg" xmlns:xlink="http://www.w3.org/1999/xlink">
 <metadata>
  <rdf:RDF xmlns:cc="http://creativecommons.org/ns#" xmlns:dc="http://purl.org/dc/elements/1.1/" xmlns:rdf="http://www.w3.org/1999/02/22-rdf-syntax-ns#">
   <cc:Work>
    <dc:type rdf:resource="http://purl.org/dc/dcmitype/StillImage"/>
    <dc:date>2022-11-07T10:51:01.584817</dc:date>
    <dc:format>image/svg+xml</dc:format>
    <dc:creator>
     <cc:Agent>
      <dc:title>Matplotlib v3.4.2, https://matplotlib.org/</dc:title>
     </cc:Agent>
    </dc:creator>
   </cc:Work>
  </rdf:RDF>
 </metadata>
 <defs>
  <style type="text/css">*{stroke-linecap:butt;stroke-linejoin:round;}</style>
 </defs>
 <g id="figure_1">
  <g id="patch_1">
   <path d="M 0 144 
L 144 144 
L 144 0 
L 0 0 
z
" style="fill:#ffffff;"/>
  </g>
  <g id="axes_1">
   <g id="patch_2">
    <path d="M 42.32 76.96 
L 133.2 76.96 
L 133.2 25.56 
L 42.32 25.56 
z
" style="fill:#ffffff;"/>
   </g>
   <g id="matplotlib.axis_1">
    <g id="xtick_1">
     <g id="text_1">
      <!-- Original -->
      <g style="fill:#262626;" transform="translate(60.057292 118.41625)rotate(-90)scale(0.1 -0.1)">
       <defs>
        <path d="M 309 2231 
Q 309 3372 921 4017 
Q 1534 4663 2503 4663 
Q 3138 4663 3647 4359 
Q 4156 4056 4423 3514 
Q 4691 2972 4691 2284 
Q 4691 1588 4409 1038 
Q 4128 488 3612 205 
Q 3097 -78 2500 -78 
Q 1853 -78 1343 234 
Q 834 547 571 1087 
Q 309 1628 309 2231 
z
M 934 2222 
Q 934 1394 1379 917 
Q 1825 441 2497 441 
Q 3181 441 3623 922 
Q 4066 1403 4066 2288 
Q 4066 2847 3877 3264 
Q 3688 3681 3323 3911 
Q 2959 4141 2506 4141 
Q 1863 4141 1398 3698 
Q 934 3256 934 2222 
z
" id="ArialMT-4f" transform="scale(0.015625)"/>
        <path d="M 416 0 
L 416 3319 
L 922 3319 
L 922 2816 
Q 1116 3169 1280 3281 
Q 1444 3394 1641 3394 
Q 1925 3394 2219 3213 
L 2025 2691 
Q 1819 2813 1613 2813 
Q 1428 2813 1281 2702 
Q 1134 2591 1072 2394 
Q 978 2094 978 1738 
L 978 0 
L 416 0 
z
" id="ArialMT-72" transform="scale(0.015625)"/>
        <path d="M 425 3934 
L 425 4581 
L 988 4581 
L 988 3934 
L 425 3934 
z
M 425 0 
L 425 3319 
L 988 3319 
L 988 0 
L 425 0 
z
" id="ArialMT-69" transform="scale(0.015625)"/>
        <path d="M 319 -275 
L 866 -356 
Q 900 -609 1056 -725 
Q 1266 -881 1628 -881 
Q 2019 -881 2231 -725 
Q 2444 -569 2519 -288 
Q 2563 -116 2559 434 
Q 2191 0 1641 0 
Q 956 0 581 494 
Q 206 988 206 1678 
Q 206 2153 378 2554 
Q 550 2956 876 3175 
Q 1203 3394 1644 3394 
Q 2231 3394 2613 2919 
L 2613 3319 
L 3131 3319 
L 3131 450 
Q 3131 -325 2973 -648 
Q 2816 -972 2473 -1159 
Q 2131 -1347 1631 -1347 
Q 1038 -1347 672 -1080 
Q 306 -813 319 -275 
z
M 784 1719 
Q 784 1066 1043 766 
Q 1303 466 1694 466 
Q 2081 466 2343 764 
Q 2606 1063 2606 1700 
Q 2606 2309 2336 2618 
Q 2066 2928 1684 2928 
Q 1309 2928 1046 2623 
Q 784 2319 784 1719 
z
" id="ArialMT-67" transform="scale(0.015625)"/>
        <path d="M 422 0 
L 422 3319 
L 928 3319 
L 928 2847 
Q 1294 3394 1984 3394 
Q 2284 3394 2536 3286 
Q 2788 3178 2913 3003 
Q 3038 2828 3088 2588 
Q 3119 2431 3119 2041 
L 3119 0 
L 2556 0 
L 2556 2019 
Q 2556 2363 2490 2533 
Q 2425 2703 2258 2804 
Q 2091 2906 1866 2906 
Q 1506 2906 1245 2678 
Q 984 2450 984 1813 
L 984 0 
L 422 0 
z
" id="ArialMT-6e" transform="scale(0.015625)"/>
        <path d="M 2588 409 
Q 2275 144 1986 34 
Q 1697 -75 1366 -75 
Q 819 -75 525 192 
Q 231 459 231 875 
Q 231 1119 342 1320 
Q 453 1522 633 1644 
Q 813 1766 1038 1828 
Q 1203 1872 1538 1913 
Q 2219 1994 2541 2106 
Q 2544 2222 2544 2253 
Q 2544 2597 2384 2738 
Q 2169 2928 1744 2928 
Q 1347 2928 1158 2789 
Q 969 2650 878 2297 
L 328 2372 
Q 403 2725 575 2942 
Q 747 3159 1072 3276 
Q 1397 3394 1825 3394 
Q 2250 3394 2515 3294 
Q 2781 3194 2906 3042 
Q 3031 2891 3081 2659 
Q 3109 2516 3109 2141 
L 3109 1391 
Q 3109 606 3145 398 
Q 3181 191 3288 0 
L 2700 0 
Q 2613 175 2588 409 
z
M 2541 1666 
Q 2234 1541 1622 1453 
Q 1275 1403 1131 1340 
Q 988 1278 909 1158 
Q 831 1038 831 891 
Q 831 666 1001 516 
Q 1172 366 1500 366 
Q 1825 366 2078 508 
Q 2331 650 2450 897 
Q 2541 1088 2541 1459 
L 2541 1666 
z
" id="ArialMT-61" transform="scale(0.015625)"/>
        <path d="M 409 0 
L 409 4581 
L 972 4581 
L 972 0 
L 409 0 
z
" id="ArialMT-6c" transform="scale(0.015625)"/>
       </defs>
       <use xlink:href="#ArialMT-4f"/>
       <use x="77.783203" xlink:href="#ArialMT-72"/>
       <use x="111.083984" xlink:href="#ArialMT-69"/>
       <use x="133.300781" xlink:href="#ArialMT-67"/>
       <use x="188.916016" xlink:href="#ArialMT-69"/>
       <use x="211.132812" xlink:href="#ArialMT-6e"/>
       <use x="266.748047" xlink:href="#ArialMT-61"/>
       <use x="322.363281" xlink:href="#ArialMT-6c"/>
      </g>
     </g>
    </g>
    <g id="xtick_2">
     <g id="text_2">
      <!-- Mutated -->
      <g style="fill:#262626;" transform="translate(90.345156 120.089687)rotate(-90)scale(0.1 -0.1)">
       <defs>
        <path d="M 475 0 
L 475 4581 
L 1388 4581 
L 2472 1338 
Q 2622 884 2691 659 
Q 2769 909 2934 1394 
L 4031 4581 
L 4847 4581 
L 4847 0 
L 4263 0 
L 4263 3834 
L 2931 0 
L 2384 0 
L 1059 3900 
L 1059 0 
L 475 0 
z
" id="ArialMT-4d" transform="scale(0.015625)"/>
        <path d="M 2597 0 
L 2597 488 
Q 2209 -75 1544 -75 
Q 1250 -75 995 37 
Q 741 150 617 320 
Q 494 491 444 738 
Q 409 903 409 1263 
L 409 3319 
L 972 3319 
L 972 1478 
Q 972 1038 1006 884 
Q 1059 663 1231 536 
Q 1403 409 1656 409 
Q 1909 409 2131 539 
Q 2353 669 2445 892 
Q 2538 1116 2538 1541 
L 2538 3319 
L 3100 3319 
L 3100 0 
L 2597 0 
z
" id="ArialMT-75" transform="scale(0.015625)"/>
        <path d="M 1650 503 
L 1731 6 
Q 1494 -44 1306 -44 
Q 1000 -44 831 53 
Q 663 150 594 308 
Q 525 466 525 972 
L 525 2881 
L 113 2881 
L 113 3319 
L 525 3319 
L 525 4141 
L 1084 4478 
L 1084 3319 
L 1650 3319 
L 1650 2881 
L 1084 2881 
L 1084 941 
Q 1084 700 1114 631 
Q 1144 563 1211 522 
Q 1278 481 1403 481 
Q 1497 481 1650 503 
z
" id="ArialMT-74" transform="scale(0.015625)"/>
        <path d="M 2694 1069 
L 3275 997 
Q 3138 488 2766 206 
Q 2394 -75 1816 -75 
Q 1088 -75 661 373 
Q 234 822 234 1631 
Q 234 2469 665 2931 
Q 1097 3394 1784 3394 
Q 2450 3394 2872 2941 
Q 3294 2488 3294 1666 
Q 3294 1616 3291 1516 
L 816 1516 
Q 847 969 1125 678 
Q 1403 388 1819 388 
Q 2128 388 2347 550 
Q 2566 713 2694 1069 
z
M 847 1978 
L 2700 1978 
Q 2663 2397 2488 2606 
Q 2219 2931 1791 2931 
Q 1403 2931 1139 2672 
Q 875 2413 847 1978 
z
" id="ArialMT-65" transform="scale(0.015625)"/>
        <path d="M 2575 0 
L 2575 419 
Q 2259 -75 1647 -75 
Q 1250 -75 917 144 
Q 584 363 401 755 
Q 219 1147 219 1656 
Q 219 2153 384 2558 
Q 550 2963 881 3178 
Q 1213 3394 1622 3394 
Q 1922 3394 2156 3267 
Q 2391 3141 2538 2938 
L 2538 4581 
L 3097 4581 
L 3097 0 
L 2575 0 
z
M 797 1656 
Q 797 1019 1065 703 
Q 1334 388 1700 388 
Q 2069 388 2326 689 
Q 2584 991 2584 1609 
Q 2584 2291 2321 2609 
Q 2059 2928 1675 2928 
Q 1300 2928 1048 2622 
Q 797 2316 797 1656 
z
" id="ArialMT-64" transform="scale(0.015625)"/>
       </defs>
       <use xlink:href="#ArialMT-4d"/>
       <use x="83.300781" xlink:href="#ArialMT-75"/>
       <use x="138.916016" xlink:href="#ArialMT-74"/>
       <use x="166.699219" xlink:href="#ArialMT-61"/>
       <use x="222.314453" xlink:href="#ArialMT-74"/>
       <use x="250.097656" xlink:href="#ArialMT-65"/>
       <use x="305.712891" xlink:href="#ArialMT-64"/>
      </g>
     </g>
    </g>
    <g id="xtick_3">
     <g id="text_3">
      <!-- STORM -->
      <g style="fill:#262626;" transform="translate(120.63849 119.892812)rotate(-90)scale(0.1 -0.1)">
       <defs>
        <path d="M 288 1472 
L 859 1522 
Q 900 1178 1048 958 
Q 1197 738 1509 602 
Q 1822 466 2213 466 
Q 2559 466 2825 569 
Q 3091 672 3220 851 
Q 3350 1031 3350 1244 
Q 3350 1459 3225 1620 
Q 3100 1781 2813 1891 
Q 2628 1963 1997 2114 
Q 1366 2266 1113 2400 
Q 784 2572 623 2826 
Q 463 3081 463 3397 
Q 463 3744 659 4045 
Q 856 4347 1234 4503 
Q 1613 4659 2075 4659 
Q 2584 4659 2973 4495 
Q 3363 4331 3572 4012 
Q 3781 3694 3797 3291 
L 3216 3247 
Q 3169 3681 2898 3903 
Q 2628 4125 2100 4125 
Q 1550 4125 1298 3923 
Q 1047 3722 1047 3438 
Q 1047 3191 1225 3031 
Q 1400 2872 2139 2705 
Q 2878 2538 3153 2413 
Q 3553 2228 3743 1945 
Q 3934 1663 3934 1294 
Q 3934 928 3725 604 
Q 3516 281 3123 101 
Q 2731 -78 2241 -78 
Q 1619 -78 1198 103 
Q 778 284 539 648 
Q 300 1013 288 1472 
z
" id="ArialMT-53" transform="scale(0.015625)"/>
        <path d="M 1659 0 
L 1659 4041 
L 150 4041 
L 150 4581 
L 3781 4581 
L 3781 4041 
L 2266 4041 
L 2266 0 
L 1659 0 
z
" id="ArialMT-54" transform="scale(0.015625)"/>
        <path d="M 503 0 
L 503 4581 
L 2534 4581 
Q 3147 4581 3465 4457 
Q 3784 4334 3975 4021 
Q 4166 3709 4166 3331 
Q 4166 2844 3850 2509 
Q 3534 2175 2875 2084 
Q 3116 1969 3241 1856 
Q 3506 1613 3744 1247 
L 4541 0 
L 3778 0 
L 3172 953 
Q 2906 1366 2734 1584 
Q 2563 1803 2427 1890 
Q 2291 1978 2150 2013 
Q 2047 2034 1813 2034 
L 1109 2034 
L 1109 0 
L 503 0 
z
M 1109 2559 
L 2413 2559 
Q 2828 2559 3062 2645 
Q 3297 2731 3419 2920 
Q 3541 3109 3541 3331 
Q 3541 3656 3305 3865 
Q 3069 4075 2559 4075 
L 1109 4075 
L 1109 2559 
z
" id="ArialMT-52" transform="scale(0.015625)"/>
       </defs>
       <use xlink:href="#ArialMT-53"/>
       <use x="66.699219" xlink:href="#ArialMT-54"/>
       <use x="126.033203" xlink:href="#ArialMT-4f"/>
       <use x="203.816406" xlink:href="#ArialMT-52"/>
       <use x="276.033203" xlink:href="#ArialMT-4d"/>
      </g>
     </g>
    </g>
    <g id="text_4">
     <!-- Method -->
     <g style="fill:#262626;" transform="translate(71.084219 131.2475)scale(0.1 -0.1)">
      <defs>
       <path d="M 422 0 
L 422 4581 
L 984 4581 
L 984 2938 
Q 1378 3394 1978 3394 
Q 2347 3394 2619 3248 
Q 2891 3103 3008 2847 
Q 3125 2591 3125 2103 
L 3125 0 
L 2563 0 
L 2563 2103 
Q 2563 2525 2380 2717 
Q 2197 2909 1863 2909 
Q 1613 2909 1392 2779 
Q 1172 2650 1078 2428 
Q 984 2206 984 1816 
L 984 0 
L 422 0 
z
" id="ArialMT-68" transform="scale(0.015625)"/>
       <path d="M 213 1659 
Q 213 2581 725 3025 
Q 1153 3394 1769 3394 
Q 2453 3394 2887 2945 
Q 3322 2497 3322 1706 
Q 3322 1066 3130 698 
Q 2938 331 2570 128 
Q 2203 -75 1769 -75 
Q 1072 -75 642 372 
Q 213 819 213 1659 
z
M 791 1659 
Q 791 1022 1069 705 
Q 1347 388 1769 388 
Q 2188 388 2466 706 
Q 2744 1025 2744 1678 
Q 2744 2294 2464 2611 
Q 2184 2928 1769 2928 
Q 1347 2928 1069 2612 
Q 791 2297 791 1659 
z
" id="ArialMT-6f" transform="scale(0.015625)"/>
      </defs>
      <use xlink:href="#ArialMT-4d"/>
      <use x="83.300781" xlink:href="#ArialMT-65"/>
      <use x="138.916016" xlink:href="#ArialMT-74"/>
      <use x="166.699219" xlink:href="#ArialMT-68"/>
      <use x="222.314453" xlink:href="#ArialMT-6f"/>
      <use x="277.929688" xlink:href="#ArialMT-64"/>
     </g>
    </g>
   </g>
   <g id="matplotlib.axis_2">
    <g id="ytick_1">
     <g id="text_5">
      <!-- −1 -->
      <g style="fill:#262626;" transform="translate(23.918438 78.303908)scale(0.1 -0.1)">
       <defs>
        <path d="M 3381 1997 
L 356 1997 
L 356 2522 
L 3381 2522 
L 3381 1997 
z
" id="ArialMT-2212" transform="scale(0.015625)"/>
        <path d="M 2384 0 
L 1822 0 
L 1822 3584 
Q 1619 3391 1289 3197 
Q 959 3003 697 2906 
L 697 3450 
Q 1169 3672 1522 3987 
Q 1875 4303 2022 4600 
L 2384 4600 
L 2384 0 
z
" id="ArialMT-31" transform="scale(0.015625)"/>
       </defs>
       <use xlink:href="#ArialMT-2212"/>
       <use x="58.398438" xlink:href="#ArialMT-31"/>
      </g>
     </g>
    </g>
    <g id="ytick_2">
     <g id="text_6">
      <!-- 0 -->
      <g style="fill:#262626;" transform="translate(29.759063 59.560898)scale(0.1 -0.1)">
       <defs>
        <path d="M 266 2259 
Q 266 3072 433 3567 
Q 600 4063 929 4331 
Q 1259 4600 1759 4600 
Q 2128 4600 2406 4451 
Q 2684 4303 2865 4023 
Q 3047 3744 3150 3342 
Q 3253 2941 3253 2259 
Q 3253 1453 3087 958 
Q 2922 463 2592 192 
Q 2263 -78 1759 -78 
Q 1097 -78 719 397 
Q 266 969 266 2259 
z
M 844 2259 
Q 844 1131 1108 757 
Q 1372 384 1759 384 
Q 2147 384 2411 759 
Q 2675 1134 2675 2259 
Q 2675 3391 2411 3762 
Q 2147 4134 1753 4134 
Q 1366 4134 1134 3806 
Q 844 3388 844 2259 
z
" id="ArialMT-30" transform="scale(0.015625)"/>
       </defs>
       <use xlink:href="#ArialMT-30"/>
      </g>
     </g>
    </g>
    <g id="ytick_3">
     <g id="text_7">
      <!-- 1 -->
      <g style="fill:#262626;" transform="translate(29.759063 40.817889)scale(0.1 -0.1)">
       <use xlink:href="#ArialMT-31"/>
      </g>
     </g>
    </g>
    <g id="text_8">
     <!-- Predictions -->
     <g style="fill:#262626;" transform="translate(17.930938 75.992812)rotate(-90)scale(0.1 -0.1)">
      <defs>
       <path d="M 494 0 
L 494 4581 
L 2222 4581 
Q 2678 4581 2919 4538 
Q 3256 4481 3484 4323 
Q 3713 4166 3852 3881 
Q 3991 3597 3991 3256 
Q 3991 2672 3619 2267 
Q 3247 1863 2275 1863 
L 1100 1863 
L 1100 0 
L 494 0 
z
M 1100 2403 
L 2284 2403 
Q 2872 2403 3119 2622 
Q 3366 2841 3366 3238 
Q 3366 3525 3220 3729 
Q 3075 3934 2838 4000 
Q 2684 4041 2272 4041 
L 1100 4041 
L 1100 2403 
z
" id="ArialMT-50" transform="scale(0.015625)"/>
       <path d="M 2588 1216 
L 3141 1144 
Q 3050 572 2676 248 
Q 2303 -75 1759 -75 
Q 1078 -75 664 370 
Q 250 816 250 1647 
Q 250 2184 428 2587 
Q 606 2991 970 3192 
Q 1334 3394 1763 3394 
Q 2303 3394 2647 3120 
Q 2991 2847 3088 2344 
L 2541 2259 
Q 2463 2594 2264 2762 
Q 2066 2931 1784 2931 
Q 1359 2931 1093 2626 
Q 828 2322 828 1663 
Q 828 994 1084 691 
Q 1341 388 1753 388 
Q 2084 388 2306 591 
Q 2528 794 2588 1216 
z
" id="ArialMT-63" transform="scale(0.015625)"/>
       <path d="M 197 991 
L 753 1078 
Q 800 744 1014 566 
Q 1228 388 1613 388 
Q 2000 388 2187 545 
Q 2375 703 2375 916 
Q 2375 1106 2209 1216 
Q 2094 1291 1634 1406 
Q 1016 1563 777 1677 
Q 538 1791 414 1992 
Q 291 2194 291 2438 
Q 291 2659 392 2848 
Q 494 3038 669 3163 
Q 800 3259 1026 3326 
Q 1253 3394 1513 3394 
Q 1903 3394 2198 3281 
Q 2494 3169 2634 2976 
Q 2775 2784 2828 2463 
L 2278 2388 
Q 2241 2644 2061 2787 
Q 1881 2931 1553 2931 
Q 1166 2931 1000 2803 
Q 834 2675 834 2503 
Q 834 2394 903 2306 
Q 972 2216 1119 2156 
Q 1203 2125 1616 2013 
Q 2213 1853 2448 1751 
Q 2684 1650 2818 1456 
Q 2953 1263 2953 975 
Q 2953 694 2789 445 
Q 2625 197 2315 61 
Q 2006 -75 1616 -75 
Q 969 -75 630 194 
Q 291 463 197 991 
z
" id="ArialMT-73" transform="scale(0.015625)"/>
      </defs>
      <use xlink:href="#ArialMT-50"/>
      <use x="66.699219" xlink:href="#ArialMT-72"/>
      <use x="100" xlink:href="#ArialMT-65"/>
      <use x="155.615234" xlink:href="#ArialMT-64"/>
      <use x="211.230469" xlink:href="#ArialMT-69"/>
      <use x="233.447266" xlink:href="#ArialMT-63"/>
      <use x="283.447266" xlink:href="#ArialMT-74"/>
      <use x="311.230469" xlink:href="#ArialMT-69"/>
      <use x="333.447266" xlink:href="#ArialMT-6f"/>
      <use x="389.0625" xlink:href="#ArialMT-6e"/>
      <use x="444.677734" xlink:href="#ArialMT-73"/>
     </g>
    </g>
   </g>
   <g id="PolyCollection_1">
    <defs>
     <path d="M 57.477621 -79.226657 
L 57.455712 -79.226657 
L 57.451253 -79.599152 
L 57.445658 -79.971647 
L 57.438933 -80.344141 
L 57.431202 -80.716636 
L 57.422736 -81.089131 
L 57.413948 -81.461626 
L 57.405367 -81.83412 
L 57.397588 -82.206615 
L 57.39119 -82.57911 
L 57.386656 -82.951605 
L 57.384287 -83.324099 
L 57.384139 -83.696594 
L 57.385999 -84.069089 
L 57.389394 -84.441584 
L 57.393647 -84.814078 
L 57.397964 -85.186573 
L 57.40153 -85.559068 
L 57.403609 -85.931563 
L 57.403622 -86.304057 
L 57.401184 -86.676552 
L 57.396101 -87.049047 
L 57.38832 -87.421541 
L 57.377846 -87.794036 
L 57.364633 -88.166531 
L 57.348482 -88.539026 
L 57.328959 -88.91152 
L 57.305368 -89.284015 
L 57.276779 -89.65651 
L 57.242114 -90.029005 
L 57.200282 -90.401499 
L 57.150326 -90.773994 
L 57.091556 -91.146489 
L 57.023632 -91.518984 
L 56.946583 -91.891478 
L 56.860753 -92.263973 
L 56.766711 -92.636468 
L 56.665136 -93.008963 
L 56.55673 -93.381457 
L 56.442183 -93.753952 
L 56.322207 -94.126447 
L 56.19762 -94.498942 
L 56.069476 -94.871436 
L 55.939171 -95.243931 
L 55.808512 -95.616426 
L 55.679698 -95.98892 
L 55.555204 -96.361415 
L 55.437585 -96.73391 
L 55.329201 -97.106405 
L 55.231933 -97.478899 
L 55.146913 -97.851394 
L 55.074337 -98.223889 
L 55.013392 -98.596384 
L 54.962328 -98.968878 
L 54.91868 -99.341373 
L 54.879624 -99.713868 
L 54.842415 -100.086363 
L 54.804852 -100.458857 
L 54.765667 -100.831352 
L 54.724789 -101.203847 
L 54.683396 -101.576342 
L 54.643758 -101.948836 
L 54.608888 -102.321331 
L 54.582059 -102.693826 
L 54.566312 -103.066321 
L 54.564025 -103.438815 
L 54.576657 -103.81131 
L 54.604678 -104.183805 
L 54.6477 -104.556299 
L 54.704743 -104.928794 
L 54.774547 -105.301289 
L 54.855858 -105.673784 
L 54.947598 -106.046278 
L 55.048908 -106.418773 
L 55.159061 -106.791268 
L 55.277295 -107.163763 
L 55.40263 -107.536257 
L 55.533737 -107.908752 
L 55.668896 -108.281247 
L 55.80607 -108.653742 
L 55.943076 -109.026236 
L 56.077806 -109.398731 
L 56.208443 -109.771226 
L 56.333627 -110.143721 
L 56.452526 -110.516215 
L 56.564794 -110.88871 
L 56.670452 -111.261205 
L 56.769703 -111.633699 
L 56.862753 -112.006194 
L 56.949667 -112.378689 
L 57.030299 -112.751184 
L 57.104307 -113.123678 
L 57.171234 -113.496173 
L 57.230631 -113.868668 
L 57.282189 -114.241163 
L 57.325836 -114.613657 
L 57.361793 -114.986152 
L 57.390571 -115.358647 
L 57.412917 -115.731142 
L 57.429738 -116.103636 
L 57.503595 -116.103636 
L 57.503595 -116.103636 
L 57.520416 -115.731142 
L 57.542763 -115.358647 
L 57.57154 -114.986152 
L 57.607498 -114.613657 
L 57.651145 -114.241163 
L 57.702702 -113.868668 
L 57.762099 -113.496173 
L 57.829026 -113.123678 
L 57.903034 -112.751184 
L 57.983666 -112.378689 
L 58.07058 -112.006194 
L 58.16363 -111.633699 
L 58.262881 -111.261205 
L 58.368539 -110.88871 
L 58.480808 -110.516215 
L 58.599706 -110.143721 
L 58.724891 -109.771226 
L 58.855528 -109.398731 
L 58.990257 -109.026236 
L 59.127263 -108.653742 
L 59.264438 -108.281247 
L 59.399596 -107.908752 
L 59.530703 -107.536257 
L 59.656038 -107.163763 
L 59.774272 -106.791268 
L 59.884425 -106.418773 
L 59.985735 -106.046278 
L 60.077475 -105.673784 
L 60.158786 -105.301289 
L 60.228591 -104.928794 
L 60.285633 -104.556299 
L 60.328655 -104.183805 
L 60.356676 -103.81131 
L 60.369308 -103.438815 
L 60.367022 -103.066321 
L 60.351274 -102.693826 
L 60.324446 -102.321331 
L 60.289575 -101.948836 
L 60.249938 -101.576342 
L 60.208545 -101.203847 
L 60.167666 -100.831352 
L 60.128482 -100.458857 
L 60.090918 -100.086363 
L 60.053709 -99.713868 
L 60.014653 -99.341373 
L 59.971005 -98.968878 
L 59.919941 -98.596384 
L 59.858996 -98.223889 
L 59.78642 -97.851394 
L 59.7014 -97.478899 
L 59.604132 -97.106405 
L 59.495749 -96.73391 
L 59.378129 -96.361415 
L 59.253636 -95.98892 
L 59.124821 -95.616426 
L 58.994162 -95.243931 
L 58.863857 -94.871436 
L 58.735713 -94.498942 
L 58.611127 -94.126447 
L 58.49115 -93.753952 
L 58.376603 -93.381457 
L 58.268197 -93.008963 
L 58.166622 -92.636468 
L 58.07258 -92.263973 
L 57.986751 -91.891478 
L 57.909701 -91.518984 
L 57.841778 -91.146489 
L 57.783008 -90.773994 
L 57.733052 -90.401499 
L 57.691219 -90.029005 
L 57.656554 -89.65651 
L 57.627965 -89.284015 
L 57.604375 -88.91152 
L 57.584852 -88.539026 
L 57.5687 -88.166531 
L 57.555487 -87.794036 
L 57.545013 -87.421541 
L 57.537233 -87.049047 
L 57.532149 -86.676552 
L 57.529711 -86.304057 
L 57.529724 -85.931563 
L 57.531804 -85.559068 
L 57.53537 -85.186573 
L 57.539686 -84.814078 
L 57.54394 -84.441584 
L 57.547334 -84.069089 
L 57.549194 -83.696594 
L 57.549046 -83.324099 
L 57.546677 -82.951605 
L 57.542143 -82.57911 
L 57.535746 -82.206615 
L 57.527966 -81.83412 
L 57.519386 -81.461626 
L 57.510597 -81.089131 
L 57.502131 -80.716636 
L 57.494401 -80.344141 
L 57.487675 -79.971647 
L 57.482081 -79.599152 
L 57.477621 -79.226657 
z
" id="m7e69bf3036" style="stroke:#262626;stroke-width:0.75;"/>
    </defs>
    <g clip-path="url(#p5b5e778e7b)">
     <use style="fill:#7f9dd2;stroke:#262626;stroke-width:0.75;" x="0" xlink:href="#m7e69bf3036" y="144"/>
    </g>
   </g>
   <g id="PolyCollection_2">
    <defs>
     <path d="M 87.760016 -69.376364 
L 87.759984 -69.376364 
L 87.759916 -69.776833 
L 87.75988 -70.177303 
L 87.759895 -70.577772 
L 87.759738 -70.978241 
L 87.759504 -71.378711 
L 87.759353 -71.77918 
L 87.759417 -72.17965 
L 87.759302 -72.580119 
L 87.758927 -72.980589 
L 87.758443 -73.381058 
L 87.757982 -73.781528 
L 87.757213 -74.181997 
L 87.756059 -74.582466 
L 87.753663 -74.982936 
L 87.748753 -75.383405 
L 87.741525 -75.783875 
L 87.734129 -76.184344 
L 87.725487 -76.584814 
L 87.713679 -76.985283 
L 87.698012 -77.385753 
L 87.681417 -77.786222 
L 87.65953 -78.186691 
L 87.633872 -78.587161 
L 87.609505 -78.98763 
L 87.581001 -79.3881 
L 87.542874 -79.788569 
L 87.497728 -80.189039 
L 87.444049 -80.589508 
L 87.38096 -80.989978 
L 87.321592 -81.390447 
L 87.258505 -81.790916 
L 87.174643 -82.191386 
L 87.080675 -82.591855 
L 86.973786 -82.992325 
L 86.842592 -83.392794 
L 86.694876 -83.793264 
L 86.538355 -84.193733 
L 86.363418 -84.594203 
L 86.165892 -84.994672 
L 85.960039 -85.395141 
L 85.751421 -85.795611 
L 85.541639 -86.19608 
L 85.319176 -86.59655 
L 85.065941 -86.997019 
L 84.811178 -87.397489 
L 84.58787 -87.797958 
L 84.405933 -88.198428 
L 84.233794 -88.598897 
L 84.079804 -88.999366 
L 83.97021 -89.399836 
L 83.923419 -89.800305 
L 83.919455 -90.200775 
L 83.941111 -90.601244 
L 83.992225 -91.001714 
L 84.094248 -91.402183 
L 84.228494 -91.802653 
L 84.37046 -92.203122 
L 84.521901 -92.603591 
L 84.687673 -93.004061 
L 84.857635 -93.40453 
L 85.031062 -93.805 
L 85.218516 -94.205469 
L 85.402294 -94.605939 
L 85.576385 -95.006408 
L 85.747942 -95.406878 
L 85.90648 -95.807347 
L 86.051108 -96.207816 
L 86.190866 -96.608286 
L 86.333231 -97.008755 
L 86.479615 -97.409225 
L 86.617892 -97.809694 
L 86.750977 -98.210164 
L 86.871933 -98.610633 
L 86.979141 -99.011103 
L 87.076117 -99.411572 
L 87.163409 -99.812041 
L 87.237191 -100.212511 
L 87.297987 -100.61298 
L 87.353796 -101.01345 
L 87.414767 -101.413919 
L 87.471963 -101.814389 
L 87.524455 -102.214858 
L 87.579085 -102.615328 
L 87.624592 -103.015797 
L 87.658131 -103.416266 
L 87.686435 -103.816736 
L 87.710499 -104.217205 
L 87.727579 -104.617675 
L 87.736642 -105.018144 
L 87.743179 -105.418614 
L 87.749063 -105.819083 
L 87.753601 -106.219553 
L 87.756158 -106.620022 
L 87.757736 -107.020491 
L 87.758786 -107.420961 
L 87.759265 -107.82143 
L 87.759584 -108.2219 
L 87.759847 -108.622369 
L 87.759977 -109.022839 
L 87.760023 -109.022839 
L 87.760023 -109.022839 
L 87.760153 -108.622369 
L 87.760416 -108.2219 
L 87.760735 -107.82143 
L 87.761214 -107.420961 
L 87.762264 -107.020491 
L 87.763842 -106.620022 
L 87.766399 -106.219553 
L 87.770937 -105.819083 
L 87.776821 -105.418614 
L 87.783358 -105.018144 
L 87.792421 -104.617675 
L 87.809501 -104.217205 
L 87.833565 -103.816736 
L 87.861869 -103.416266 
L 87.895408 -103.015797 
L 87.940915 -102.615328 
L 87.995545 -102.214858 
L 88.048037 -101.814389 
L 88.105233 -101.413919 
L 88.166204 -101.01345 
L 88.222013 -100.61298 
L 88.282809 -100.212511 
L 88.356591 -99.812041 
L 88.443883 -99.411572 
L 88.540859 -99.011103 
L 88.648067 -98.610633 
L 88.769023 -98.210164 
L 88.902108 -97.809694 
L 89.040385 -97.409225 
L 89.186769 -97.008755 
L 89.329134 -96.608286 
L 89.468892 -96.207816 
L 89.61352 -95.807347 
L 89.772058 -95.406878 
L 89.943615 -95.006408 
L 90.117706 -94.605939 
L 90.301484 -94.205469 
L 90.488938 -93.805 
L 90.662365 -93.40453 
L 90.832327 -93.004061 
L 90.998099 -92.603591 
L 91.14954 -92.203122 
L 91.291506 -91.802653 
L 91.425752 -91.402183 
L 91.527775 -91.001714 
L 91.578889 -90.601244 
L 91.600545 -90.200775 
L 91.596581 -89.800305 
L 91.54979 -89.399836 
L 91.440196 -88.999366 
L 91.286206 -88.598897 
L 91.114067 -88.198428 
L 90.93213 -87.797958 
L 90.708822 -87.397489 
L 90.454059 -86.997019 
L 90.200824 -86.59655 
L 89.978361 -86.19608 
L 89.768579 -85.795611 
L 89.559961 -85.395141 
L 89.354108 -84.994672 
L 89.156582 -84.594203 
L 88.981645 -84.193733 
L 88.825124 -83.793264 
L 88.677408 -83.392794 
L 88.546214 -82.992325 
L 88.439325 -82.591855 
L 88.345357 -82.191386 
L 88.261495 -81.790916 
L 88.198408 -81.390447 
L 88.13904 -80.989978 
L 88.075951 -80.589508 
L 88.022272 -80.189039 
L 87.977126 -79.788569 
L 87.938999 -79.3881 
L 87.910495 -78.98763 
L 87.886128 -78.587161 
L 87.86047 -78.186691 
L 87.838583 -77.786222 
L 87.821988 -77.385753 
L 87.806321 -76.985283 
L 87.794513 -76.584814 
L 87.785871 -76.184344 
L 87.778475 -75.783875 
L 87.771247 -75.383405 
L 87.766337 -74.982936 
L 87.763941 -74.582466 
L 87.762787 -74.181997 
L 87.762018 -73.781528 
L 87.761557 -73.381058 
L 87.761073 -72.980589 
L 87.760698 -72.580119 
L 87.760583 -72.17965 
L 87.760647 -71.77918 
L 87.760496 -71.378711 
L 87.760262 -70.978241 
L 87.760105 -70.577772 
L 87.76012 -70.177303 
L 87.760084 -69.776833 
L 87.760016 -69.376364 
z
" id="mebac7f3f04" style="stroke:#262626;stroke-width:0.75;"/>
    </defs>
    <g clip-path="url(#p5b5e778e7b)">
     <use style="fill:#1a1a66;stroke:#262626;stroke-width:0.75;" x="0" xlink:href="#mebac7f3f04" y="144"/>
    </g>
   </g>
   <g id="PolyCollection_3">
    <defs>
     <path d="M 118.555993 -98.802906 
L 117.550673 -98.802906 
L 117.47385 -98.868958 
L 117.38853 -98.935009 
L 117.294334 -99.001061 
L 117.190958 -99.067112 
L 117.078186 -99.133164 
L 116.955901 -99.199215 
L 116.824103 -99.265267 
L 116.682914 -99.331319 
L 116.532586 -99.39737 
L 116.37351 -99.463422 
L 116.206213 -99.529473 
L 116.031356 -99.595525 
L 115.849731 -99.661576 
L 115.662248 -99.727628 
L 115.469923 -99.793679 
L 115.273859 -99.859731 
L 115.075223 -99.925782 
L 114.875226 -99.991834 
L 114.675093 -100.057885 
L 114.476036 -100.123937 
L 114.279225 -100.189988 
L 114.085762 -100.25604 
L 113.896648 -100.322091 
L 113.712766 -100.388143 
L 113.534847 -100.454194 
L 113.363461 -100.520246 
L 113.198996 -100.586297 
L 113.041646 -100.652349 
L 112.891406 -100.7184 
L 112.748072 -100.784452 
L 112.611237 -100.850503 
L 112.480306 -100.916555 
L 112.354498 -100.982607 
L 112.232868 -101.048658 
L 112.114321 -101.11471 
L 111.997631 -101.180761 
L 111.881469 -101.246813 
L 111.764424 -101.312864 
L 111.64503 -101.378916 
L 111.521798 -101.444967 
L 111.393245 -101.511019 
L 111.257925 -101.57707 
L 111.114464 -101.643122 
L 110.961593 -101.709173 
L 110.798188 -101.775225 
L 110.623302 -101.841276 
L 110.436209 -101.907328 
L 110.236433 -101.973379 
L 110.023794 -102.039431 
L 109.798435 -102.105482 
L 109.560861 -102.171534 
L 109.311956 -102.237585 
L 109.053013 -102.303637 
L 108.785741 -102.369688 
L 108.51227 -102.43574 
L 108.235146 -102.501791 
L 107.957307 -102.567843 
L 107.682058 -102.633895 
L 107.413021 -102.699946 
L 107.154083 -102.765998 
L 106.909323 -102.832049 
L 106.682933 -102.898101 
L 106.47913 -102.964152 
L 106.302061 -103.030204 
L 106.155701 -103.096255 
L 106.043757 -103.162307 
L 105.969564 -103.228358 
L 105.936 -103.29441 
L 105.945399 -103.360461 
L 105.999481 -103.426513 
L 106.099299 -103.492564 
L 106.245198 -103.558616 
L 106.436795 -103.624667 
L 106.672981 -103.690719 
L 106.951938 -103.75677 
L 107.271179 -103.822822 
L 107.627604 -103.888873 
L 108.017567 -103.954925 
L 108.436967 -104.020976 
L 108.881341 -104.087028 
L 109.345963 -104.153079 
L 109.825952 -104.219131 
L 110.316376 -104.285183 
L 110.812356 -104.351234 
L 111.309161 -104.417286 
L 111.802294 -104.483337 
L 112.28757 -104.549389 
L 112.76118 -104.61544 
L 113.219739 -104.681492 
L 113.660322 -104.747543 
L 114.080488 -104.813595 
L 114.478285 -104.879646 
L 114.852247 -104.945698 
L 115.201375 -105.011749 
L 115.525115 -105.077801 
L 115.823317 -105.143852 
L 116.096204 -105.209904 
L 116.344317 -105.275955 
L 116.568475 -105.342007 
L 119.538191 -105.342007 
L 119.538191 -105.342007 
L 119.762349 -105.275955 
L 120.010463 -105.209904 
L 120.283349 -105.143852 
L 120.581552 -105.077801 
L 120.905291 -105.011749 
L 121.254419 -104.945698 
L 121.628381 -104.879646 
L 122.026179 -104.813595 
L 122.446345 -104.747543 
L 122.886928 -104.681492 
L 123.345487 -104.61544 
L 123.819097 -104.549389 
L 124.304373 -104.483337 
L 124.797506 -104.417286 
L 125.294311 -104.351234 
L 125.790291 -104.285183 
L 126.280715 -104.219131 
L 126.760704 -104.153079 
L 127.225325 -104.087028 
L 127.669699 -104.020976 
L 128.0891 -103.954925 
L 128.479063 -103.888873 
L 128.835487 -103.822822 
L 129.154729 -103.75677 
L 129.433686 -103.690719 
L 129.669872 -103.624667 
L 129.861469 -103.558616 
L 130.007368 -103.492564 
L 130.107186 -103.426513 
L 130.161268 -103.360461 
L 130.170667 -103.29441 
L 130.137103 -103.228358 
L 130.06291 -103.162307 
L 129.950965 -103.096255 
L 129.804606 -103.030204 
L 129.627537 -102.964152 
L 129.423734 -102.898101 
L 129.197344 -102.832049 
L 128.952583 -102.765998 
L 128.693646 -102.699946 
L 128.424609 -102.633895 
L 128.14936 -102.567843 
L 127.871521 -102.501791 
L 127.594396 -102.43574 
L 127.320926 -102.369688 
L 127.053654 -102.303637 
L 126.79471 -102.237585 
L 126.545806 -102.171534 
L 126.308231 -102.105482 
L 126.082873 -102.039431 
L 125.870234 -101.973379 
L 125.670458 -101.907328 
L 125.483364 -101.841276 
L 125.308479 -101.775225 
L 125.145074 -101.709173 
L 124.992203 -101.643122 
L 124.848742 -101.57707 
L 124.713422 -101.511019 
L 124.584869 -101.444967 
L 124.461637 -101.378916 
L 124.342243 -101.312864 
L 124.225197 -101.246813 
L 124.109035 -101.180761 
L 123.992346 -101.11471 
L 123.873798 -101.048658 
L 123.752169 -100.982607 
L 123.626361 -100.916555 
L 123.495429 -100.850503 
L 123.358595 -100.784452 
L 123.21526 -100.7184 
L 123.065021 -100.652349 
L 122.907671 -100.586297 
L 122.743205 -100.520246 
L 122.57182 -100.454194 
L 122.393901 -100.388143 
L 122.210018 -100.322091 
L 122.020905 -100.25604 
L 121.827442 -100.189988 
L 121.630631 -100.123937 
L 121.431574 -100.057885 
L 121.23144 -99.991834 
L 121.031443 -99.925782 
L 120.832808 -99.859731 
L 120.636744 -99.793679 
L 120.444419 -99.727628 
L 120.256936 -99.661576 
L 120.075311 -99.595525 
L 119.900454 -99.529473 
L 119.733156 -99.463422 
L 119.57408 -99.39737 
L 119.423753 -99.331319 
L 119.282564 -99.265267 
L 119.150766 -99.199215 
L 119.028481 -99.133164 
L 118.915708 -99.067112 
L 118.812333 -99.001061 
L 118.718137 -98.935009 
L 118.632817 -98.868958 
L 118.555993 -98.802906 
z
" id="mc8d7392218" style="stroke:#262626;stroke-width:0.75;"/>
    </defs>
    <g clip-path="url(#p5b5e778e7b)">
     <use style="fill:#cc8733;stroke:#262626;stroke-width:0.75;" x="0" xlink:href="#mc8d7392218" y="144"/>
    </g>
   </g>
   <g id="line2d_1">
    <path clip-path="url(#p5b5e778e7b)" d="M 57.466667 54.781824 
L 57.466667 32.064352 
" style="fill:none;stroke:#262626;stroke-linecap:round;stroke-width:0.75;"/>
   </g>
   <g id="line2d_2">
    <path clip-path="url(#p5b5e778e7b)" d="M 57.466667 45.748436 
L 57.466667 38.529398 
" style="fill:none;stroke:#262626;stroke-linecap:round;stroke-width:2.25;"/>
   </g>
   <g id="line2d_3">
    <path clip-path="url(#p5b5e778e7b)" d="M 87.76 65.305078 
L 87.76 41.171244 
" style="fill:none;stroke:#262626;stroke-linecap:round;stroke-width:0.75;"/>
   </g>
   <g id="line2d_4">
    <path clip-path="url(#p5b5e778e7b)" d="M 87.76 56.254778 
L 87.76 50.220833 
" style="fill:none;stroke:#262626;stroke-linecap:round;stroke-width:2.25;"/>
   </g>
   <g id="line2d_5">
    <path clip-path="url(#p5b5e778e7b)" d="M 118.053333 43.345675 
L 118.053333 40.509412 
" style="fill:none;stroke:#262626;stroke-linecap:round;stroke-width:0.75;"/>
   </g>
   <g id="line2d_6">
    <path clip-path="url(#p5b5e778e7b)" d="M 118.053333 42.002664 
L 118.053333 40.509412 
" style="fill:none;stroke:#262626;stroke-linecap:round;stroke-width:2.25;"/>
   </g>
   <g id="patch_3">
    <path d="M 42.32 76.96 
L 42.32 25.56 
" style="fill:none;stroke:#262626;stroke-linecap:square;stroke-linejoin:miter;stroke-width:0.8;"/>
   </g>
   <g id="patch_4">
    <path d="M 42.32 76.96 
L 133.2 76.96 
" style="fill:none;stroke:#262626;stroke-linecap:square;stroke-linejoin:miter;stroke-width:0.8;"/>
   </g>
   <g id="PathCollection_1">
    <defs>
     <path d="M 0 0.75 
C 0.198902 0.75 0.389685 0.670975 0.53033 0.53033 
C 0.670975 0.389685 0.75 0.198902 0.75 0 
C 0.75 -0.198902 0.670975 -0.389685 0.53033 -0.53033 
C 0.389685 -0.670975 0.198902 -0.75 0 -0.75 
C -0.198902 -0.75 -0.389685 -0.670975 -0.53033 -0.53033 
C -0.670975 -0.389685 -0.75 -0.198902 -0.75 0 
C -0.75 0.198902 -0.670975 0.389685 -0.53033 0.53033 
C -0.389685 0.670975 -0.198902 0.75 0 0.75 
z
" id="m12e1a083fe" style="stroke:#262626;"/>
    </defs>
    <g clip-path="url(#p5b5e778e7b)">
     <use style="fill:#ffffff;stroke:#262626;" x="57.466667" xlink:href="#m12e1a083fe" y="41.523959"/>
    </g>
   </g>
   <g id="PathCollection_2">
    <g clip-path="url(#p5b5e778e7b)">
     <use style="fill:#ffffff;stroke:#262626;" x="87.76" xlink:href="#m12e1a083fe" y="53.361541"/>
    </g>
   </g>
   <g id="PathCollection_3">
    <g clip-path="url(#p5b5e778e7b)">
     <use style="fill:#ffffff;stroke:#262626;" x="118.053333" xlink:href="#m12e1a083fe" y="40.509412"/>
    </g>
   </g>
   <g id="text_9">
    <!-- Top 10% -->
    <g style="fill:#262626;" transform="translate(64.414375 19.56)scale(0.12 -0.12)">
     <defs>
      <path d="M 422 -1272 
L 422 3319 
L 934 3319 
L 934 2888 
Q 1116 3141 1344 3267 
Q 1572 3394 1897 3394 
Q 2322 3394 2647 3175 
Q 2972 2956 3137 2557 
Q 3303 2159 3303 1684 
Q 3303 1175 3120 767 
Q 2938 359 2589 142 
Q 2241 -75 1856 -75 
Q 1575 -75 1351 44 
Q 1128 163 984 344 
L 984 -1272 
L 422 -1272 
z
M 931 1641 
Q 931 1000 1190 694 
Q 1450 388 1819 388 
Q 2194 388 2461 705 
Q 2728 1022 2728 1688 
Q 2728 2322 2467 2637 
Q 2206 2953 1844 2953 
Q 1484 2953 1207 2617 
Q 931 2281 931 1641 
z
" id="ArialMT-70" transform="scale(0.015625)"/>
      <path id="ArialMT-20" transform="scale(0.015625)"/>
      <path d="M 372 3481 
Q 372 3972 619 4315 
Q 866 4659 1334 4659 
Q 1766 4659 2048 4351 
Q 2331 4044 2331 3447 
Q 2331 2866 2045 2552 
Q 1759 2238 1341 2238 
Q 925 2238 648 2547 
Q 372 2856 372 3481 
z
M 1350 4272 
Q 1141 4272 1002 4090 
Q 863 3909 863 3425 
Q 863 2984 1003 2804 
Q 1144 2625 1350 2625 
Q 1563 2625 1702 2806 
Q 1841 2988 1841 3469 
Q 1841 3913 1700 4092 
Q 1559 4272 1350 4272 
z
M 1353 -169 
L 3859 4659 
L 4316 4659 
L 1819 -169 
L 1353 -169 
z
M 3334 1075 
Q 3334 1569 3581 1911 
Q 3828 2253 4300 2253 
Q 4731 2253 5014 1945 
Q 5297 1638 5297 1041 
Q 5297 459 5011 145 
Q 4725 -169 4303 -169 
Q 3888 -169 3611 142 
Q 3334 453 3334 1075 
z
M 4316 1866 
Q 4103 1866 3964 1684 
Q 3825 1503 3825 1019 
Q 3825 581 3965 400 
Q 4106 219 4313 219 
Q 4528 219 4667 400 
Q 4806 581 4806 1063 
Q 4806 1506 4665 1686 
Q 4525 1866 4316 1866 
z
" id="ArialMT-25" transform="scale(0.015625)"/>
     </defs>
     <use xlink:href="#ArialMT-54"/>
     <use x="49.958984" xlink:href="#ArialMT-6f"/>
     <use x="105.574219" xlink:href="#ArialMT-70"/>
     <use x="161.189453" xlink:href="#ArialMT-20"/>
     <use x="188.972656" xlink:href="#ArialMT-31"/>
     <use x="244.587891" xlink:href="#ArialMT-30"/>
     <use x="300.203125" xlink:href="#ArialMT-25"/>
    </g>
   </g>
  </g>
 </g>
 <defs>
  <clipPath id="p5b5e778e7b">
   <rect height="51.4" width="90.88" x="42.32" y="25.56"/>
  </clipPath>
 </defs>
</svg>
