<?xml version="1.0" encoding="utf-8" standalone="no"?>
<!DOCTYPE svg PUBLIC "-//W3C//DTD SVG 1.1//EN"
  "http://www.w3.org/Graphics/SVG/1.1/DTD/svg11.dtd">
<svg height="288pt" version="1.1" viewBox="0 0 432 288" width="432pt" xmlns="http://www.w3.org/2000/svg" xmlns:xlink="http://www.w3.org/1999/xlink">
 <metadata>
  <rdf:RDF xmlns:cc="http://creativecommons.org/ns#" xmlns:dc="http://purl.org/dc/elements/1.1/" xmlns:rdf="http://www.w3.org/1999/02/22-rdf-syntax-ns#">
   <cc:Work>
    <dc:type rdf:resource="http://purl.org/dc/dcmitype/StillImage"/>
    <dc:date>2022-01-22T01:37:48.247026</dc:date>
    <dc:format>image/svg+xml</dc:format>
    <dc:creator>
     <cc:Agent>
      <dc:title>Matplotlib v3.4.2, https://matplotlib.org/</dc:title>
     </cc:Agent>
    </dc:creator>
   </cc:Work>
  </rdf:RDF>
 </metadata>
 <defs>
  <style type="text/css">*{stroke-linecap:butt;stroke-linejoin:round;}</style>
 </defs>
 <g id="figure_1">
  <g id="patch_1">
   <path d="M 0 288 
L 432 288 
L 432 0 
L 0 0 
z
" style="fill:#ffffff;"/>
  </g>
  <g id="axes_1">
   <g id="patch_2">
    <path d="M 96.52 211.94 
L 410.4 211.94 
L 410.4 24.154498 
L 96.52 24.154498 
z
" style="fill:#ffffff;"/>
   </g>
   <g id="matplotlib.axis_1">
    <g id="xtick_1">
     <g id="line2d_1">
      <path clip-path="url(#p21af516aac)" d="M 110.787273 211.94 
L 110.787273 24.154498 
" style="fill:none;stroke:#cccccc;stroke-linecap:round;stroke-width:0.8;"/>
     </g>
     <g id="text_1">
      <!-- 0 -->
      <g style="fill:#262626;" transform="translate(105.226335 239.786875)scale(0.2 -0.2)">
       <defs>
        <path d="M 1731 4475 
Q 2600 4475 2988 3759 
Q 3288 3206 3288 2244 
Q 3288 1331 3016 734 
Q 2622 -122 1728 -122 
Q 922 -122 528 578 
Q 200 1163 200 2147 
Q 200 2909 397 3456 
Q 766 4475 1731 4475 
z
M 1725 391 
Q 2163 391 2422 778 
Q 2681 1166 2681 2222 
Q 2681 2984 2493 3476 
Q 2306 3969 1766 3969 
Q 1269 3969 1039 3501 
Q 809 3034 809 2125 
Q 809 1441 956 1025 
Q 1181 391 1725 391 
z
" id="Helvetica-30" transform="scale(0.015625)"/>
       </defs>
       <use xlink:href="#Helvetica-30"/>
      </g>
     </g>
    </g>
    <g id="xtick_2">
     <g id="line2d_2">
      <path clip-path="url(#p21af516aac)" d="M 260.969091 211.94 
L 260.969091 24.154498 
" style="fill:none;stroke:#cccccc;stroke-linecap:round;stroke-width:0.8;"/>
     </g>
     <g id="text_2">
      <!-- 10 -->
      <g style="fill:#262626;" transform="translate(249.847216 239.786875)scale(0.2 -0.2)">
       <defs>
        <path d="M 613 3169 
L 613 3600 
Q 1222 3659 1462 3798 
Q 1703 3938 1822 4456 
L 2266 4456 
L 2266 0 
L 1666 0 
L 1666 3169 
L 613 3169 
z
" id="Helvetica-31" transform="scale(0.015625)"/>
       </defs>
       <use xlink:href="#Helvetica-31"/>
       <use x="55.615234" xlink:href="#Helvetica-30"/>
      </g>
     </g>
    </g>
    <g id="text_3">
     <!-- Position -->
     <g style="fill:#262626;" transform="translate(217.885 262.3025)scale(0.2 -0.2)">
      <defs>
       <path d="M 547 4591 
L 2613 4591 
Q 3225 4591 3600 4245 
Q 3975 3900 3975 3275 
Q 3975 2738 3640 2339 
Q 3306 1941 2613 1941 
L 1169 1941 
L 1169 0 
L 547 0 
L 547 4591 
z
M 3347 3272 
Q 3347 3778 2972 3959 
Q 2766 4056 2406 4056 
L 1169 4056 
L 1169 2466 
L 2406 2466 
Q 2825 2466 3086 2644 
Q 3347 2822 3347 3272 
z
" id="Helvetica-50" transform="scale(0.015625)"/>
       <path d="M 1741 363 
Q 2300 363 2508 786 
Q 2716 1209 2716 1728 
Q 2716 2197 2566 2491 
Q 2328 2953 1747 2953 
Q 1231 2953 997 2559 
Q 763 2166 763 1609 
Q 763 1075 997 719 
Q 1231 363 1741 363 
z
M 1763 3444 
Q 2409 3444 2856 3012 
Q 3303 2581 3303 1744 
Q 3303 934 2909 406 
Q 2516 -122 1688 -122 
Q 997 -122 590 345 
Q 184 813 184 1600 
Q 184 2444 612 2944 
Q 1041 3444 1763 3444 
z
M 1744 3428 
L 1744 3428 
z
" id="Helvetica-6f" transform="scale(0.015625)"/>
       <path d="M 747 1050 
Q 772 769 888 619 
Q 1100 347 1625 347 
Q 1938 347 2175 483 
Q 2413 619 2413 903 
Q 2413 1119 2222 1231 
Q 2100 1300 1741 1391 
L 1294 1503 
Q 866 1609 663 1741 
Q 300 1969 300 2372 
Q 300 2847 642 3140 
Q 984 3434 1563 3434 
Q 2319 3434 2653 2991 
Q 2863 2709 2856 2384 
L 2325 2384 
Q 2309 2575 2191 2731 
Q 1997 2953 1519 2953 
Q 1200 2953 1036 2831 
Q 872 2709 872 2509 
Q 872 2291 1088 2159 
Q 1213 2081 1456 2022 
L 1828 1931 
Q 2434 1784 2641 1647 
Q 2969 1431 2969 969 
Q 2969 522 2630 197 
Q 2291 -128 1597 -128 
Q 850 -128 539 211 
Q 228 550 206 1050 
L 747 1050 
z
M 1578 3428 
L 1578 3428 
z
" id="Helvetica-73" transform="scale(0.015625)"/>
       <path d="M 413 3331 
L 984 3331 
L 984 0 
L 413 0 
L 413 3331 
z
M 413 4591 
L 984 4591 
L 984 3953 
L 413 3953 
L 413 4591 
z
" id="Helvetica-69" transform="scale(0.015625)"/>
       <path d="M 525 4281 
L 1094 4281 
L 1094 3347 
L 1628 3347 
L 1628 2888 
L 1094 2888 
L 1094 703 
Q 1094 528 1213 469 
Q 1278 434 1431 434 
Q 1472 434 1519 436 
Q 1566 438 1628 444 
L 1628 0 
Q 1531 -28 1426 -40 
Q 1322 -53 1200 -53 
Q 806 -53 665 148 
Q 525 350 525 672 
L 525 2888 
L 72 2888 
L 72 3347 
L 525 3347 
L 525 4281 
z
" id="Helvetica-74" transform="scale(0.015625)"/>
       <path d="M 413 3347 
L 947 3347 
L 947 2872 
Q 1184 3166 1450 3294 
Q 1716 3422 2041 3422 
Q 2753 3422 3003 2925 
Q 3141 2653 3141 2147 
L 3141 0 
L 2569 0 
L 2569 2109 
Q 2569 2416 2478 2603 
Q 2328 2916 1934 2916 
Q 1734 2916 1606 2875 
Q 1375 2806 1200 2600 
Q 1059 2434 1017 2257 
Q 975 2081 975 1753 
L 975 0 
L 413 0 
L 413 3347 
z
M 1734 3428 
L 1734 3428 
z
" id="Helvetica-6e" transform="scale(0.015625)"/>
      </defs>
      <use xlink:href="#Helvetica-50"/>
      <use x="66.699219" xlink:href="#Helvetica-6f"/>
      <use x="122.314453" xlink:href="#Helvetica-73"/>
      <use x="172.314453" xlink:href="#Helvetica-69"/>
      <use x="194.53125" xlink:href="#Helvetica-74"/>
      <use x="222.314453" xlink:href="#Helvetica-69"/>
      <use x="244.53125" xlink:href="#Helvetica-6f"/>
      <use x="300.146484" xlink:href="#Helvetica-6e"/>
     </g>
    </g>
   </g>
   <g id="matplotlib.axis_2">
    <g id="ytick_1">
     <g id="line2d_3">
      <path clip-path="url(#p21af516aac)" d="M 96.52 202.660639 
L 410.4 202.660639 
" style="fill:none;stroke:#cccccc;stroke-linecap:round;stroke-width:0.8;"/>
     </g>
     <g id="text_4">
      <!-- 0.0 -->
      <g style="fill:#262626;" transform="translate(55.22 209.834076)scale(0.2 -0.2)">
       <defs>
        <path d="M 547 681 
L 1200 681 
L 1200 0 
L 547 0 
L 547 681 
z
" id="Helvetica-2e" transform="scale(0.015625)"/>
       </defs>
       <use xlink:href="#Helvetica-30"/>
       <use x="55.615234" xlink:href="#Helvetica-2e"/>
       <use x="83.398438" xlink:href="#Helvetica-30"/>
      </g>
     </g>
    </g>
    <g id="ytick_2">
     <g id="line2d_4">
      <path clip-path="url(#p21af516aac)" d="M 96.52 115.413542 
L 410.4 115.413542 
" style="fill:none;stroke:#cccccc;stroke-linecap:round;stroke-width:0.8;"/>
     </g>
     <g id="text_5">
      <!-- 0.5 -->
      <g style="fill:#262626;" transform="translate(55.22 122.58698)scale(0.2 -0.2)">
       <defs>
        <path d="M 791 1141 
Q 847 659 1238 475 
Q 1438 381 1700 381 
Q 2200 381 2440 700 
Q 2681 1019 2681 1406 
Q 2681 1875 2395 2131 
Q 2109 2388 1709 2388 
Q 1419 2388 1211 2275 
Q 1003 2163 856 1963 
L 369 1991 
L 709 4400 
L 3034 4400 
L 3034 3856 
L 1131 3856 
L 941 2613 
Q 1097 2731 1238 2791 
Q 1488 2894 1816 2894 
Q 2431 2894 2859 2497 
Q 3288 2100 3288 1491 
Q 3288 856 2895 371 
Q 2503 -113 1644 -113 
Q 1097 -113 676 195 
Q 256 503 206 1141 
L 791 1141 
z
" id="Helvetica-35" transform="scale(0.015625)"/>
       </defs>
       <use xlink:href="#Helvetica-30"/>
       <use x="55.615234" xlink:href="#Helvetica-2e"/>
       <use x="83.398438" xlink:href="#Helvetica-35"/>
      </g>
     </g>
    </g>
    <g id="ytick_3">
     <g id="line2d_5">
      <path clip-path="url(#p21af516aac)" d="M 96.52 28.166446 
L 410.4 28.166446 
" style="fill:none;stroke:#cccccc;stroke-linecap:round;stroke-width:0.8;"/>
     </g>
     <g id="text_6">
      <!-- 1.0 -->
      <g style="fill:#262626;" transform="translate(55.22 35.339883)scale(0.2 -0.2)">
       <use xlink:href="#Helvetica-31"/>
       <use x="55.615234" xlink:href="#Helvetica-2e"/>
       <use x="83.398438" xlink:href="#Helvetica-30"/>
      </g>
     </g>
    </g>
    <g id="text_7">
     <!-- Std Dev of 1 Monomer Mismatch -->
     <g style="fill:#262626;" transform="translate(47.05125 263.644124)rotate(-90)scale(0.2 -0.2)">
      <defs>
       <path d="M 894 1481 
Q 916 1091 1078 847 
Q 1388 391 2169 391 
Q 2519 391 2806 491 
Q 3363 684 3363 1184 
Q 3363 1559 3128 1719 
Q 2891 1875 2384 1991 
L 1763 2131 
Q 1153 2269 900 2434 
Q 463 2722 463 3294 
Q 463 3913 891 4309 
Q 1319 4706 2103 4706 
Q 2825 4706 3329 4357 
Q 3834 4009 3834 3244 
L 3250 3244 
Q 3203 3613 3050 3809 
Q 2766 4169 2084 4169 
Q 1534 4169 1293 3937 
Q 1053 3706 1053 3400 
Q 1053 3063 1334 2906 
Q 1519 2806 2169 2656 
L 2813 2509 
Q 3278 2403 3531 2219 
Q 3969 1897 3969 1284 
Q 3969 522 3414 194 
Q 2859 -134 2125 -134 
Q 1269 -134 784 303 
Q 300 738 309 1481 
L 894 1481 
z
M 2150 4716 
L 2150 4716 
z
" id="Helvetica-53" transform="scale(0.015625)"/>
       <path d="M 769 1634 
Q 769 1097 997 734 
Q 1225 372 1728 372 
Q 2119 372 2370 708 
Q 2622 1044 2622 1672 
Q 2622 2306 2362 2611 
Q 2103 2916 1722 2916 
Q 1297 2916 1033 2591 
Q 769 2266 769 1634 
z
M 1616 3406 
Q 2000 3406 2259 3244 
Q 2409 3150 2600 2916 
L 2600 4606 
L 3141 4606 
L 3141 0 
L 2634 0 
L 2634 466 
Q 2438 156 2169 18 
Q 1900 -119 1553 -119 
Q 994 -119 584 351 
Q 175 822 175 1603 
Q 175 2334 548 2870 
Q 922 3406 1616 3406 
z
" id="Helvetica-64" transform="scale(0.015625)"/>
       <path id="Helvetica-20" transform="scale(0.015625)"/>
       <path d="M 2250 531 
Q 2566 531 2769 597 
Q 3131 719 3363 1066 
Q 3547 1344 3628 1778 
Q 3675 2038 3675 2259 
Q 3675 3113 3336 3584 
Q 2997 4056 2244 4056 
L 1141 4056 
L 1141 531 
L 2250 531 
z
M 516 4591 
L 2375 4591 
Q 3322 4591 3844 3919 
Q 4309 3313 4309 2366 
Q 4309 1634 4034 1044 
Q 3550 0 2369 0 
L 516 0 
L 516 4591 
z
" id="Helvetica-44" transform="scale(0.015625)"/>
       <path d="M 1806 3422 
Q 2163 3422 2497 3255 
Q 2831 3088 3006 2822 
Q 3175 2569 3231 2231 
Q 3281 2000 3281 1494 
L 828 1494 
Q 844 984 1069 676 
Q 1294 369 1766 369 
Q 2206 369 2469 659 
Q 2619 828 2681 1050 
L 3234 1050 
Q 3213 866 3089 639 
Q 2966 413 2813 269 
Q 2556 19 2178 -69 
Q 1975 -119 1719 -119 
Q 1094 -119 659 336 
Q 225 791 225 1609 
Q 225 2416 662 2919 
Q 1100 3422 1806 3422 
z
M 2703 1941 
Q 2669 2306 2544 2525 
Q 2313 2931 1772 2931 
Q 1384 2931 1121 2651 
Q 859 2372 844 1941 
L 2703 1941 
z
M 1753 3428 
L 1753 3428 
z
" id="Helvetica-65" transform="scale(0.015625)"/>
       <path d="M 688 3347 
L 1581 622 
L 2516 3347 
L 3131 3347 
L 1869 0 
L 1269 0 
L 34 3347 
L 688 3347 
z
" id="Helvetica-76" transform="scale(0.015625)"/>
       <path d="M 553 3856 
Q 566 4206 675 4369 
Q 872 4656 1434 4656 
Q 1488 4656 1544 4653 
Q 1600 4650 1672 4644 
L 1672 4131 
Q 1584 4138 1545 4139 
Q 1506 4141 1472 4141 
Q 1216 4141 1166 4008 
Q 1116 3875 1116 3331 
L 1672 3331 
L 1672 2888 
L 1109 2888 
L 1109 0 
L 553 0 
L 553 2888 
L 88 2888 
L 88 3331 
L 553 3331 
L 553 3856 
z
" id="Helvetica-66" transform="scale(0.015625)"/>
       <path d="M 472 4591 
L 1363 4591 
L 2681 709 
L 3991 4591 
L 4872 4591 
L 4872 0 
L 4281 0 
L 4281 2709 
Q 4281 2850 4287 3175 
Q 4294 3500 4294 3872 
L 2984 0 
L 2369 0 
L 1050 3872 
L 1050 3731 
Q 1050 3563 1058 3217 
Q 1066 2872 1066 2709 
L 1066 0 
L 472 0 
L 472 4591 
z
" id="Helvetica-4d" transform="scale(0.015625)"/>
       <path d="M 413 3347 
L 969 3347 
L 969 2872 
Q 1169 3119 1331 3231 
Q 1609 3422 1963 3422 
Q 2363 3422 2606 3225 
Q 2744 3113 2856 2894 
Q 3044 3163 3297 3292 
Q 3550 3422 3866 3422 
Q 4541 3422 4784 2934 
Q 4916 2672 4916 2228 
L 4916 0 
L 4331 0 
L 4331 2325 
Q 4331 2659 4164 2784 
Q 3997 2909 3756 2909 
Q 3425 2909 3186 2687 
Q 2947 2466 2947 1947 
L 2947 0 
L 2375 0 
L 2375 2184 
Q 2375 2525 2294 2681 
Q 2166 2916 1816 2916 
Q 1497 2916 1236 2669 
Q 975 2422 975 1775 
L 975 0 
L 413 0 
L 413 3347 
z
" id="Helvetica-6d" transform="scale(0.015625)"/>
       <path d="M 428 3347 
L 963 3347 
L 963 2769 
Q 1028 2938 1284 3180 
Q 1541 3422 1875 3422 
Q 1891 3422 1928 3419 
Q 1966 3416 2056 3406 
L 2056 2813 
Q 2006 2822 1964 2825 
Q 1922 2828 1872 2828 
Q 1447 2828 1219 2554 
Q 991 2281 991 1925 
L 991 0 
L 428 0 
L 428 3347 
z
" id="Helvetica-72" transform="scale(0.015625)"/>
       <path d="M 844 891 
Q 844 647 1022 506 
Q 1200 366 1444 366 
Q 1741 366 2019 503 
Q 2488 731 2488 1250 
L 2488 1703 
Q 2384 1638 2221 1594 
Q 2059 1550 1903 1531 
L 1563 1488 
Q 1256 1447 1103 1359 
Q 844 1213 844 891 
z
M 2206 2028 
Q 2400 2053 2466 2191 
Q 2503 2266 2503 2406 
Q 2503 2694 2298 2823 
Q 2094 2953 1713 2953 
Q 1272 2953 1088 2716 
Q 984 2584 953 2325 
L 428 2325 
Q 444 2944 830 3186 
Q 1216 3428 1725 3428 
Q 2316 3428 2684 3203 
Q 3050 2978 3050 2503 
L 3050 575 
Q 3050 488 3086 434 
Q 3122 381 3238 381 
Q 3275 381 3322 386 
Q 3369 391 3422 400 
L 3422 -16 
Q 3291 -53 3222 -62 
Q 3153 -72 3034 -72 
Q 2744 -72 2613 134 
Q 2544 244 2516 444 
Q 2344 219 2022 53 
Q 1700 -113 1313 -113 
Q 847 -113 551 170 
Q 256 453 256 878 
Q 256 1344 547 1600 
Q 838 1856 1309 1916 
L 2206 2028 
z
M 1741 3428 
L 1741 3428 
z
" id="Helvetica-61" transform="scale(0.015625)"/>
       <path d="M 1703 3444 
Q 2269 3444 2623 3169 
Q 2978 2894 3050 2222 
L 2503 2222 
Q 2453 2531 2275 2736 
Q 2097 2941 1703 2941 
Q 1166 2941 934 2416 
Q 784 2075 784 1575 
Q 784 1072 996 728 
Q 1209 384 1666 384 
Q 2016 384 2220 598 
Q 2425 813 2503 1184 
L 3050 1184 
Q 2956 519 2581 211 
Q 2206 -97 1622 -97 
Q 966 -97 575 383 
Q 184 863 184 1581 
Q 184 2463 612 2953 
Q 1041 3444 1703 3444 
z
M 1616 3428 
L 1616 3428 
z
" id="Helvetica-63" transform="scale(0.015625)"/>
       <path d="M 413 4606 
L 975 4606 
L 975 2894 
Q 1175 3147 1334 3250 
Q 1606 3428 2013 3428 
Q 2741 3428 3000 2919 
Q 3141 2641 3141 2147 
L 3141 0 
L 2563 0 
L 2563 2109 
Q 2563 2478 2469 2650 
Q 2316 2925 1894 2925 
Q 1544 2925 1259 2684 
Q 975 2444 975 1775 
L 975 0 
L 413 0 
L 413 4606 
z
" id="Helvetica-68" transform="scale(0.015625)"/>
      </defs>
      <use xlink:href="#Helvetica-53"/>
      <use x="66.699219" xlink:href="#Helvetica-74"/>
      <use x="94.482422" xlink:href="#Helvetica-64"/>
      <use x="150.097656" xlink:href="#Helvetica-20"/>
      <use x="177.880859" xlink:href="#Helvetica-44"/>
      <use x="250.097656" xlink:href="#Helvetica-65"/>
      <use x="305.712891" xlink:href="#Helvetica-76"/>
      <use x="355.712891" xlink:href="#Helvetica-20"/>
      <use x="383.496094" xlink:href="#Helvetica-6f"/>
      <use x="439.111328" xlink:href="#Helvetica-66"/>
      <use x="466.894531" xlink:href="#Helvetica-20"/>
      <use x="494.677734" xlink:href="#Helvetica-31"/>
      <use x="550.292969" xlink:href="#Helvetica-20"/>
      <use x="578.076172" xlink:href="#Helvetica-4d"/>
      <use x="661.376953" xlink:href="#Helvetica-6f"/>
      <use x="716.992188" xlink:href="#Helvetica-6e"/>
      <use x="772.607422" xlink:href="#Helvetica-6f"/>
      <use x="828.222656" xlink:href="#Helvetica-6d"/>
      <use x="911.523438" xlink:href="#Helvetica-65"/>
      <use x="967.138672" xlink:href="#Helvetica-72"/>
      <use x="1000.439453" xlink:href="#Helvetica-20"/>
      <use x="1028.222656" xlink:href="#Helvetica-4d"/>
      <use x="1111.523438" xlink:href="#Helvetica-69"/>
      <use x="1133.740234" xlink:href="#Helvetica-73"/>
      <use x="1183.740234" xlink:href="#Helvetica-6d"/>
      <use x="1267.041016" xlink:href="#Helvetica-61"/>
      <use x="1322.65625" xlink:href="#Helvetica-74"/>
      <use x="1350.439453" xlink:href="#Helvetica-63"/>
      <use x="1400.439453" xlink:href="#Helvetica-68"/>
     </g>
    </g>
   </g>
   <g id="PolyCollection_1">
    <defs>
     <path d="M 110.787273 -85.339361 
L 110.787273 -85.339361 
L 125.805455 -85.339361 
L 140.823636 -106.455338 
L 155.841818 -106.232672 
L 170.86 -126.398459 
L 185.878182 -109.065386 
L 200.896364 -121.570112 
L 215.914545 -118.008189 
L 230.932727 -105.72992 
L 245.950909 -148.63497 
L 260.969091 -102.523246 
L 275.987273 -101.773008 
L 291.005455 -114.827942 
L 306.023636 -184.98781 
L 321.041818 -218.233379 
L 336.06 -180.715687 
L 351.078182 -116.267512 
L 366.096364 -218.257556 
L 381.114545 -85.339361 
L 396.132727 -85.339361 
L 396.132727 -85.339361 
L 396.132727 -85.339361 
L 381.114545 -85.339361 
L 366.096364 -233.428596 
L 351.078182 -146.268111 
L 336.06 -220.673736 
L 321.041818 -255.309797 
L 306.023636 -223.196987 
L 291.005455 -138.967044 
L 275.987273 -119.358795 
L 260.969091 -119.996352 
L 245.950909 -170.85857 
L 230.932727 -124.644779 
L 215.914545 -139.286303 
L 200.896364 -146.651499 
L 185.878182 -130.372526 
L 170.86 -149.367833 
L 155.841818 -122.831763 
L 140.823636 -128.668745 
L 125.805455 -85.339361 
L 110.787273 -85.339361 
z
" id="m1d9a0b308b" style="stroke:#ff8c00;stroke-opacity:0.2;"/>
    </defs>
    <g clip-path="url(#p21af516aac)">
     <use style="fill:#ff8c00;fill-opacity:0.2;stroke:#ff8c00;stroke-opacity:0.2;" x="0" xlink:href="#m1d9a0b308b" y="288"/>
    </g>
   </g>
   <g id="PolyCollection_2">
    <defs>
     <path d="M 110.787273 -85.339361 
L 110.787273 -85.339361 
L 125.805455 -84.722687 
L 140.823636 -108.288226 
L 155.841818 -119.439238 
L 170.86 -128.468637 
L 185.878182 -119.799886 
L 200.896364 -134.064156 
L 215.914545 -124.239986 
L 230.932727 -125.197269 
L 245.950909 -136.039051 
L 260.969091 -121.0455 
L 275.987273 -121.957729 
L 291.005455 -120.635674 
L 306.023636 -127.832256 
L 321.041818 -112.878098 
L 336.06 -113.091714 
L 351.078182 -99.282393 
L 366.096364 -99.745564 
L 381.114545 -85.339361 
L 396.132727 -85.339361 
L 396.132727 -85.339361 
L 396.132727 -85.339361 
L 381.114545 -85.339361 
L 366.096364 -115.596206 
L 351.078182 -121.283946 
L 336.06 -141.649643 
L 321.041818 -138.61041 
L 306.023636 -156.222614 
L 291.005455 -149.139774 
L 275.987273 -153.188206 
L 260.969091 -149.086507 
L 245.950909 -168.147528 
L 230.932727 -157.089976 
L 215.914545 -152.966579 
L 200.896364 -164.470358 
L 185.878182 -145.698464 
L 170.86 -158.52355 
L 155.841818 -146.230263 
L 140.823636 -132.679948 
L 125.805455 -89.066465 
L 110.787273 -85.339361 
z
" id="m561ab9bf83" style="stroke:#808080;stroke-opacity:0.2;"/>
    </defs>
    <g clip-path="url(#p21af516aac)">
     <use style="fill:#808080;fill-opacity:0.2;stroke:#808080;stroke-opacity:0.2;" x="0" xlink:href="#m561ab9bf83" y="288"/>
    </g>
   </g>
   <g id="PolyCollection_3">
    <defs>
     <path d="M 110.787273 -85.339361 
L 110.787273 -85.339361 
L 125.805455 -84.760498 
L 140.823636 -117.467397 
L 155.841818 -143.037174 
L 170.86 -153.484868 
L 185.878182 -136.184344 
L 200.896364 -154.618915 
L 215.914545 -141.452007 
L 230.932727 -140.092879 
L 245.950909 -179.00368 
L 260.969091 -135.981003 
L 275.987273 -133.727345 
L 291.005455 -141.797319 
L 306.023636 -146.215432 
L 321.041818 -147.919752 
L 336.06 -122.378437 
L 351.078182 -118.576258 
L 366.096364 -137.192286 
L 381.114545 -85.339361 
L 396.132727 -85.339361 
L 396.132727 -85.339361 
L 396.132727 -85.339361 
L 381.114545 -85.339361 
L 366.096364 -149.598749 
L 351.078182 -137.076677 
L 336.06 -146.169152 
L 321.041818 -173.663218 
L 306.023636 -168.428905 
L 291.005455 -167.222391 
L 275.987273 -158.589361 
L 260.969091 -160.468133 
L 245.950909 -201.16654 
L 230.932727 -166.765719 
L 215.914545 -166.895884 
L 200.896364 -178.64544 
L 185.878182 -159.661028 
L 170.86 -177.803734 
L 155.841818 -163.42746 
L 140.823636 -136.331863 
L 125.805455 -88.763628 
L 110.787273 -85.339361 
z
" id="m33c2b9c591" style="stroke:#f4a460;stroke-opacity:0.2;"/>
    </defs>
    <g clip-path="url(#p21af516aac)">
     <use style="fill:#f4a460;fill-opacity:0.2;stroke:#f4a460;stroke-opacity:0.2;" x="0" xlink:href="#m33c2b9c591" y="288"/>
    </g>
   </g>
   <g id="PolyCollection_4">
    <defs>
     <path d="M 110.787273 -85.339361 
L 110.787273 -85.339361 
L 125.805455 -84.595705 
L 140.823636 -98.92443 
L 155.841818 -104.827869 
L 170.86 -113.298711 
L 185.878182 -103.897071 
L 200.896364 -118.612043 
L 215.914545 -113.631722 
L 230.932727 -107.182412 
L 245.950909 -129.555157 
L 260.969091 -102.155566 
L 275.987273 -105.831189 
L 291.005455 -109.054552 
L 306.023636 -135.658414 
L 321.041818 -154.213445 
L 336.06 -141.137628 
L 351.078182 -135.55637 
L 366.096364 -180.521377 
L 381.114545 -85.339361 
L 396.132727 -85.339361 
L 396.132727 -85.339361 
L 396.132727 -85.339361 
L 381.114545 -85.339361 
L 366.096364 -192.952461 
L 351.078182 -160.182773 
L 336.06 -168.435835 
L 321.041818 -183.569818 
L 306.023636 -164.115325 
L 291.005455 -128.924274 
L 275.987273 -125.43947 
L 260.969091 -118.352566 
L 245.950909 -150.447592 
L 230.932727 -125.372613 
L 215.914545 -131.408967 
L 200.896364 -137.428283 
L 185.878182 -120.090815 
L 170.86 -132.746626 
L 155.841818 -120.407322 
L 140.823636 -118.459567 
L 125.805455 -87.594182 
L 110.787273 -85.339361 
z
" id="mdc80b5c77b" style="stroke:#556b2f;stroke-opacity:0.2;"/>
    </defs>
    <g clip-path="url(#p21af516aac)">
     <use style="fill:#556b2f;fill-opacity:0.2;stroke:#556b2f;stroke-opacity:0.2;" x="0" xlink:href="#mdc80b5c77b" y="288"/>
    </g>
   </g>
   <g id="line2d_6">
    <path clip-path="url(#p21af516aac)" d="M 110.787273 202.660639 
L 125.805455 202.660639 
L 140.823636 170.437958 
L 155.841818 173.467782 
L 170.86 150.116854 
L 185.878182 168.281044 
L 200.896364 153.889194 
L 215.914545 159.352754 
L 230.932727 172.812651 
L 245.950909 128.25323 
L 260.969091 176.740201 
L 275.987273 177.434098 
L 291.005455 161.102507 
L 306.023636 83.907602 
L 321.041818 51.228412 
L 336.06 87.305289 
L 351.078182 156.732189 
L 366.096364 62.156924 
L 381.114545 202.660639 
L 396.132727 202.660639 
" style="fill:none;stroke:#ff8c00;stroke-linecap:round;stroke-opacity:0.8;stroke-width:0.7;"/>
    <defs>
     <path d="M 0 -2.5 
L -2.5 2.5 
L 2.5 2.5 
z
" id="me7fc854131" style="stroke:#000000;stroke-linejoin:miter;stroke-opacity:0.8;"/>
    </defs>
    <g clip-path="url(#p21af516aac)">
     <use style="fill:#ff8c00;fill-opacity:0.8;stroke:#000000;stroke-linejoin:miter;stroke-opacity:0.8;" x="110.787273" xlink:href="#me7fc854131" y="202.660639"/>
     <use style="fill:#ff8c00;fill-opacity:0.8;stroke:#000000;stroke-linejoin:miter;stroke-opacity:0.8;" x="125.805455" xlink:href="#me7fc854131" y="202.660639"/>
     <use style="fill:#ff8c00;fill-opacity:0.8;stroke:#000000;stroke-linejoin:miter;stroke-opacity:0.8;" x="140.823636" xlink:href="#me7fc854131" y="170.437958"/>
     <use style="fill:#ff8c00;fill-opacity:0.8;stroke:#000000;stroke-linejoin:miter;stroke-opacity:0.8;" x="155.841818" xlink:href="#me7fc854131" y="173.467782"/>
     <use style="fill:#ff8c00;fill-opacity:0.8;stroke:#000000;stroke-linejoin:miter;stroke-opacity:0.8;" x="170.86" xlink:href="#me7fc854131" y="150.116854"/>
     <use style="fill:#ff8c00;fill-opacity:0.8;stroke:#000000;stroke-linejoin:miter;stroke-opacity:0.8;" x="185.878182" xlink:href="#me7fc854131" y="168.281044"/>
     <use style="fill:#ff8c00;fill-opacity:0.8;stroke:#000000;stroke-linejoin:miter;stroke-opacity:0.8;" x="200.896364" xlink:href="#me7fc854131" y="153.889194"/>
     <use style="fill:#ff8c00;fill-opacity:0.8;stroke:#000000;stroke-linejoin:miter;stroke-opacity:0.8;" x="215.914545" xlink:href="#me7fc854131" y="159.352754"/>
     <use style="fill:#ff8c00;fill-opacity:0.8;stroke:#000000;stroke-linejoin:miter;stroke-opacity:0.8;" x="230.932727" xlink:href="#me7fc854131" y="172.812651"/>
     <use style="fill:#ff8c00;fill-opacity:0.8;stroke:#000000;stroke-linejoin:miter;stroke-opacity:0.8;" x="245.950909" xlink:href="#me7fc854131" y="128.25323"/>
     <use style="fill:#ff8c00;fill-opacity:0.8;stroke:#000000;stroke-linejoin:miter;stroke-opacity:0.8;" x="260.969091" xlink:href="#me7fc854131" y="176.740201"/>
     <use style="fill:#ff8c00;fill-opacity:0.8;stroke:#000000;stroke-linejoin:miter;stroke-opacity:0.8;" x="275.987273" xlink:href="#me7fc854131" y="177.434098"/>
     <use style="fill:#ff8c00;fill-opacity:0.8;stroke:#000000;stroke-linejoin:miter;stroke-opacity:0.8;" x="291.005455" xlink:href="#me7fc854131" y="161.102507"/>
     <use style="fill:#ff8c00;fill-opacity:0.8;stroke:#000000;stroke-linejoin:miter;stroke-opacity:0.8;" x="306.023636" xlink:href="#me7fc854131" y="83.907602"/>
     <use style="fill:#ff8c00;fill-opacity:0.8;stroke:#000000;stroke-linejoin:miter;stroke-opacity:0.8;" x="321.041818" xlink:href="#me7fc854131" y="51.228412"/>
     <use style="fill:#ff8c00;fill-opacity:0.8;stroke:#000000;stroke-linejoin:miter;stroke-opacity:0.8;" x="336.06" xlink:href="#me7fc854131" y="87.305289"/>
     <use style="fill:#ff8c00;fill-opacity:0.8;stroke:#000000;stroke-linejoin:miter;stroke-opacity:0.8;" x="351.078182" xlink:href="#me7fc854131" y="156.732189"/>
     <use style="fill:#ff8c00;fill-opacity:0.8;stroke:#000000;stroke-linejoin:miter;stroke-opacity:0.8;" x="366.096364" xlink:href="#me7fc854131" y="62.156924"/>
     <use style="fill:#ff8c00;fill-opacity:0.8;stroke:#000000;stroke-linejoin:miter;stroke-opacity:0.8;" x="381.114545" xlink:href="#me7fc854131" y="202.660639"/>
     <use style="fill:#ff8c00;fill-opacity:0.8;stroke:#000000;stroke-linejoin:miter;stroke-opacity:0.8;" x="396.132727" xlink:href="#me7fc854131" y="202.660639"/>
    </g>
   </g>
   <g id="line2d_7">
    <path clip-path="url(#p21af516aac)" d="M 110.787273 202.660639 
L 125.805455 202.660639 
L 140.823636 170.437958 
L 155.841818 173.467782 
L 170.86 150.116854 
L 185.878182 168.281044 
L 200.896364 153.889194 
L 215.914545 159.352754 
L 230.932727 172.812651 
L 245.950909 128.25323 
L 260.969091 176.740201 
L 275.987273 177.434098 
L 291.005455 161.102507 
L 306.023636 83.907602 
L 321.041818 51.228412 
L 336.06 87.305289 
L 351.078182 156.732189 
L 366.096364 62.156924 
L 381.114545 202.660639 
L 396.132727 202.660639 
" style="fill:none;stroke:#ff8c00;stroke-linecap:round;stroke-width:0.7;"/>
   </g>
   <g id="line2d_8">
    <path clip-path="url(#p21af516aac)" d="M 110.787273 202.660639 
L 125.805455 202.660639 
L 140.823636 181.544662 
L 155.841818 181.767328 
L 170.86 161.601541 
L 185.878182 178.934614 
L 200.896364 166.429888 
L 215.914545 169.991811 
L 230.932727 182.27008 
L 245.950909 139.36503 
L 260.969091 185.476754 
L 275.987273 186.226992 
L 291.005455 173.172058 
L 306.023636 103.01219 
L 321.041818 69.766621 
L 336.06 107.284313 
L 351.078182 171.732488 
L 366.096364 69.742444 
L 381.114545 202.660639 
L 396.132727 202.660639 
" style="fill:none;stroke:#ff8c00;stroke-dasharray:1.85,0.8;stroke-dashoffset:0;stroke-width:0.5;"/>
   </g>
   <g id="line2d_9">
    <path clip-path="url(#p21af516aac)" d="M 110.787273 202.660639 
L 125.805455 202.660639 
L 140.823636 159.331255 
L 155.841818 165.168237 
L 170.86 138.632167 
L 185.878182 157.627474 
L 200.896364 141.348501 
L 215.914545 148.713697 
L 230.932727 163.355221 
L 245.950909 117.14143 
L 260.969091 168.003648 
L 275.987273 168.641205 
L 291.005455 149.032956 
L 306.023636 64.803013 
L 321.041818 32.690203 
L 336.06 67.326264 
L 351.078182 141.731889 
L 366.096364 54.571404 
L 381.114545 202.660639 
L 396.132727 202.660639 
" style="fill:none;stroke:#ff8c00;stroke-dasharray:1.85,0.8;stroke-dashoffset:0;stroke-width:0.5;"/>
   </g>
   <g id="line2d_10">
    <path clip-path="url(#p21af516aac)" d="M 110.787273 202.660639 
L 125.805455 201.105424 
L 140.823636 167.515913 
L 155.841818 155.16525 
L 170.86 144.503907 
L 185.878182 155.250825 
L 200.896364 138.732743 
L 215.914545 149.396717 
L 230.932727 146.856377 
L 245.950909 135.90671 
L 260.969091 152.933997 
L 275.987273 150.427032 
L 291.005455 153.112276 
L 306.023636 145.972565 
L 321.041818 162.255746 
L 336.06 160.629321 
L 351.078182 177.71683 
L 366.096364 180.329115 
L 381.114545 202.660639 
L 396.132727 202.660639 
" style="fill:none;stroke:#808080;stroke-linecap:round;stroke-opacity:0.8;stroke-width:0.7;"/>
    <defs>
     <path d="M 0 -2.5 
L -2.5 2.5 
L 2.5 2.5 
z
" id="me96b2e4bbd" style="stroke:#000000;stroke-linejoin:miter;stroke-opacity:0.8;"/>
    </defs>
    <g clip-path="url(#p21af516aac)">
     <use style="fill:#808080;fill-opacity:0.8;stroke:#000000;stroke-linejoin:miter;stroke-opacity:0.8;" x="110.787273" xlink:href="#me96b2e4bbd" y="202.660639"/>
     <use style="fill:#808080;fill-opacity:0.8;stroke:#000000;stroke-linejoin:miter;stroke-opacity:0.8;" x="125.805455" xlink:href="#me96b2e4bbd" y="201.105424"/>
     <use style="fill:#808080;fill-opacity:0.8;stroke:#000000;stroke-linejoin:miter;stroke-opacity:0.8;" x="140.823636" xlink:href="#me96b2e4bbd" y="167.515913"/>
     <use style="fill:#808080;fill-opacity:0.8;stroke:#000000;stroke-linejoin:miter;stroke-opacity:0.8;" x="155.841818" xlink:href="#me96b2e4bbd" y="155.16525"/>
     <use style="fill:#808080;fill-opacity:0.8;stroke:#000000;stroke-linejoin:miter;stroke-opacity:0.8;" x="170.86" xlink:href="#me96b2e4bbd" y="144.503907"/>
     <use style="fill:#808080;fill-opacity:0.8;stroke:#000000;stroke-linejoin:miter;stroke-opacity:0.8;" x="185.878182" xlink:href="#me96b2e4bbd" y="155.250825"/>
     <use style="fill:#808080;fill-opacity:0.8;stroke:#000000;stroke-linejoin:miter;stroke-opacity:0.8;" x="200.896364" xlink:href="#me96b2e4bbd" y="138.732743"/>
     <use style="fill:#808080;fill-opacity:0.8;stroke:#000000;stroke-linejoin:miter;stroke-opacity:0.8;" x="215.914545" xlink:href="#me96b2e4bbd" y="149.396717"/>
     <use style="fill:#808080;fill-opacity:0.8;stroke:#000000;stroke-linejoin:miter;stroke-opacity:0.8;" x="230.932727" xlink:href="#me96b2e4bbd" y="146.856377"/>
     <use style="fill:#808080;fill-opacity:0.8;stroke:#000000;stroke-linejoin:miter;stroke-opacity:0.8;" x="245.950909" xlink:href="#me96b2e4bbd" y="135.90671"/>
     <use style="fill:#808080;fill-opacity:0.8;stroke:#000000;stroke-linejoin:miter;stroke-opacity:0.8;" x="260.969091" xlink:href="#me96b2e4bbd" y="152.933997"/>
     <use style="fill:#808080;fill-opacity:0.8;stroke:#000000;stroke-linejoin:miter;stroke-opacity:0.8;" x="275.987273" xlink:href="#me96b2e4bbd" y="150.427032"/>
     <use style="fill:#808080;fill-opacity:0.8;stroke:#000000;stroke-linejoin:miter;stroke-opacity:0.8;" x="291.005455" xlink:href="#me96b2e4bbd" y="153.112276"/>
     <use style="fill:#808080;fill-opacity:0.8;stroke:#000000;stroke-linejoin:miter;stroke-opacity:0.8;" x="306.023636" xlink:href="#me96b2e4bbd" y="145.972565"/>
     <use style="fill:#808080;fill-opacity:0.8;stroke:#000000;stroke-linejoin:miter;stroke-opacity:0.8;" x="321.041818" xlink:href="#me96b2e4bbd" y="162.255746"/>
     <use style="fill:#808080;fill-opacity:0.8;stroke:#000000;stroke-linejoin:miter;stroke-opacity:0.8;" x="336.06" xlink:href="#me96b2e4bbd" y="160.629321"/>
     <use style="fill:#808080;fill-opacity:0.8;stroke:#000000;stroke-linejoin:miter;stroke-opacity:0.8;" x="351.078182" xlink:href="#me96b2e4bbd" y="177.71683"/>
     <use style="fill:#808080;fill-opacity:0.8;stroke:#000000;stroke-linejoin:miter;stroke-opacity:0.8;" x="366.096364" xlink:href="#me96b2e4bbd" y="180.329115"/>
     <use style="fill:#808080;fill-opacity:0.8;stroke:#000000;stroke-linejoin:miter;stroke-opacity:0.8;" x="381.114545" xlink:href="#me96b2e4bbd" y="202.660639"/>
     <use style="fill:#808080;fill-opacity:0.8;stroke:#000000;stroke-linejoin:miter;stroke-opacity:0.8;" x="396.132727" xlink:href="#me96b2e4bbd" y="202.660639"/>
    </g>
   </g>
   <g id="line2d_11">
    <path clip-path="url(#p21af516aac)" d="M 110.787273 202.660639 
L 125.805455 201.105424 
L 140.823636 167.515913 
L 155.841818 155.16525 
L 170.86 144.503907 
L 185.878182 155.250825 
L 200.896364 138.732743 
L 215.914545 149.396717 
L 230.932727 146.856377 
L 245.950909 135.90671 
L 260.969091 152.933997 
L 275.987273 150.427032 
L 291.005455 153.112276 
L 306.023636 145.972565 
L 321.041818 162.255746 
L 336.06 160.629321 
L 351.078182 177.71683 
L 366.096364 180.329115 
L 381.114545 202.660639 
L 396.132727 202.660639 
" style="fill:none;stroke:#808080;stroke-linecap:round;stroke-width:0.7;"/>
   </g>
   <g id="line2d_12">
    <path clip-path="url(#p21af516aac)" d="M 110.787273 202.660639 
L 125.805455 203.277313 
L 140.823636 179.711774 
L 155.841818 168.560762 
L 170.86 159.531363 
L 185.878182 168.200114 
L 200.896364 153.935844 
L 215.914545 163.760014 
L 230.932727 162.802731 
L 245.950909 151.960949 
L 260.969091 166.9545 
L 275.987273 166.042271 
L 291.005455 167.364326 
L 306.023636 160.167744 
L 321.041818 175.121902 
L 336.06 174.908286 
L 351.078182 188.717607 
L 366.096364 188.254436 
L 381.114545 202.660639 
L 396.132727 202.660639 
" style="fill:none;stroke:#808080;stroke-dasharray:1.85,0.8;stroke-dashoffset:0;stroke-width:0.5;"/>
   </g>
   <g id="line2d_13">
    <path clip-path="url(#p21af516aac)" d="M 110.787273 202.660639 
L 125.805455 198.933535 
L 140.823636 155.320052 
L 155.841818 141.769737 
L 170.86 129.47645 
L 185.878182 142.301536 
L 200.896364 123.529642 
L 215.914545 135.033421 
L 230.932727 130.910024 
L 245.950909 119.852472 
L 260.969091 138.913493 
L 275.987273 134.811794 
L 291.005455 138.860226 
L 306.023636 131.777386 
L 321.041818 149.38959 
L 336.06 146.350357 
L 351.078182 166.716054 
L 366.096364 172.403794 
L 381.114545 202.660639 
L 396.132727 202.660639 
" style="fill:none;stroke:#808080;stroke-dasharray:1.85,0.8;stroke-dashoffset:0;stroke-width:0.5;"/>
   </g>
   <g id="line2d_14">
    <path clip-path="url(#p21af516aac)" d="M 110.787273 202.660639 
L 125.805455 201.237937 
L 140.823636 161.10037 
L 155.841818 134.767683 
L 170.86 122.355699 
L 185.878182 140.077314 
L 200.896364 121.367822 
L 215.914545 133.826055 
L 230.932727 134.570701 
L 245.950909 97.91489 
L 260.969091 139.775432 
L 275.987273 141.841647 
L 291.005455 133.490145 
L 306.023636 130.677831 
L 321.041818 127.208515 
L 336.06 153.726205 
L 351.078182 160.173532 
L 366.096364 144.604482 
L 381.114545 202.660639 
L 396.132727 202.660639 
" style="fill:none;stroke:#f4a460;stroke-linecap:round;stroke-opacity:0.8;stroke-width:0.7;"/>
    <defs>
     <path d="M 0 -2.5 
L -2.5 2.5 
L 2.5 2.5 
z
" id="m4ee26cffac" style="stroke:#000000;stroke-linejoin:miter;stroke-opacity:0.8;"/>
    </defs>
    <g clip-path="url(#p21af516aac)">
     <use style="fill:#f4a460;fill-opacity:0.8;stroke:#000000;stroke-linejoin:miter;stroke-opacity:0.8;" x="110.787273" xlink:href="#m4ee26cffac" y="202.660639"/>
     <use style="fill:#f4a460;fill-opacity:0.8;stroke:#000000;stroke-linejoin:miter;stroke-opacity:0.8;" x="125.805455" xlink:href="#m4ee26cffac" y="201.237937"/>
     <use style="fill:#f4a460;fill-opacity:0.8;stroke:#000000;stroke-linejoin:miter;stroke-opacity:0.8;" x="140.823636" xlink:href="#m4ee26cffac" y="161.10037"/>
     <use style="fill:#f4a460;fill-opacity:0.8;stroke:#000000;stroke-linejoin:miter;stroke-opacity:0.8;" x="155.841818" xlink:href="#m4ee26cffac" y="134.767683"/>
     <use style="fill:#f4a460;fill-opacity:0.8;stroke:#000000;stroke-linejoin:miter;stroke-opacity:0.8;" x="170.86" xlink:href="#m4ee26cffac" y="122.355699"/>
     <use style="fill:#f4a460;fill-opacity:0.8;stroke:#000000;stroke-linejoin:miter;stroke-opacity:0.8;" x="185.878182" xlink:href="#m4ee26cffac" y="140.077314"/>
     <use style="fill:#f4a460;fill-opacity:0.8;stroke:#000000;stroke-linejoin:miter;stroke-opacity:0.8;" x="200.896364" xlink:href="#m4ee26cffac" y="121.367822"/>
     <use style="fill:#f4a460;fill-opacity:0.8;stroke:#000000;stroke-linejoin:miter;stroke-opacity:0.8;" x="215.914545" xlink:href="#m4ee26cffac" y="133.826055"/>
     <use style="fill:#f4a460;fill-opacity:0.8;stroke:#000000;stroke-linejoin:miter;stroke-opacity:0.8;" x="230.932727" xlink:href="#m4ee26cffac" y="134.570701"/>
     <use style="fill:#f4a460;fill-opacity:0.8;stroke:#000000;stroke-linejoin:miter;stroke-opacity:0.8;" x="245.950909" xlink:href="#m4ee26cffac" y="97.91489"/>
     <use style="fill:#f4a460;fill-opacity:0.8;stroke:#000000;stroke-linejoin:miter;stroke-opacity:0.8;" x="260.969091" xlink:href="#m4ee26cffac" y="139.775432"/>
     <use style="fill:#f4a460;fill-opacity:0.8;stroke:#000000;stroke-linejoin:miter;stroke-opacity:0.8;" x="275.987273" xlink:href="#m4ee26cffac" y="141.841647"/>
     <use style="fill:#f4a460;fill-opacity:0.8;stroke:#000000;stroke-linejoin:miter;stroke-opacity:0.8;" x="291.005455" xlink:href="#m4ee26cffac" y="133.490145"/>
     <use style="fill:#f4a460;fill-opacity:0.8;stroke:#000000;stroke-linejoin:miter;stroke-opacity:0.8;" x="306.023636" xlink:href="#m4ee26cffac" y="130.677831"/>
     <use style="fill:#f4a460;fill-opacity:0.8;stroke:#000000;stroke-linejoin:miter;stroke-opacity:0.8;" x="321.041818" xlink:href="#m4ee26cffac" y="127.208515"/>
     <use style="fill:#f4a460;fill-opacity:0.8;stroke:#000000;stroke-linejoin:miter;stroke-opacity:0.8;" x="336.06" xlink:href="#m4ee26cffac" y="153.726205"/>
     <use style="fill:#f4a460;fill-opacity:0.8;stroke:#000000;stroke-linejoin:miter;stroke-opacity:0.8;" x="351.078182" xlink:href="#m4ee26cffac" y="160.173532"/>
     <use style="fill:#f4a460;fill-opacity:0.8;stroke:#000000;stroke-linejoin:miter;stroke-opacity:0.8;" x="366.096364" xlink:href="#m4ee26cffac" y="144.604482"/>
     <use style="fill:#f4a460;fill-opacity:0.8;stroke:#000000;stroke-linejoin:miter;stroke-opacity:0.8;" x="381.114545" xlink:href="#m4ee26cffac" y="202.660639"/>
     <use style="fill:#f4a460;fill-opacity:0.8;stroke:#000000;stroke-linejoin:miter;stroke-opacity:0.8;" x="396.132727" xlink:href="#m4ee26cffac" y="202.660639"/>
    </g>
   </g>
   <g id="line2d_15">
    <path clip-path="url(#p21af516aac)" d="M 110.787273 202.660639 
L 125.805455 201.237937 
L 140.823636 161.10037 
L 155.841818 134.767683 
L 170.86 122.355699 
L 185.878182 140.077314 
L 200.896364 121.367822 
L 215.914545 133.826055 
L 230.932727 134.570701 
L 245.950909 97.91489 
L 260.969091 139.775432 
L 275.987273 141.841647 
L 291.005455 133.490145 
L 306.023636 130.677831 
L 321.041818 127.208515 
L 336.06 153.726205 
L 351.078182 160.173532 
L 366.096364 144.604482 
L 381.114545 202.660639 
L 396.132727 202.660639 
" style="fill:none;stroke:#f4a460;stroke-linecap:round;stroke-width:0.7;"/>
   </g>
   <g id="line2d_16">
    <path clip-path="url(#p21af516aac)" d="M 110.787273 202.660639 
L 125.805455 203.239502 
L 140.823636 170.532603 
L 155.841818 144.962826 
L 170.86 134.515132 
L 185.878182 151.815656 
L 200.896364 133.381085 
L 215.914545 146.547993 
L 230.932727 147.907121 
L 245.950909 108.99632 
L 260.969091 152.018997 
L 275.987273 154.272655 
L 291.005455 146.202681 
L 306.023636 141.784568 
L 321.041818 140.080248 
L 336.06 165.621563 
L 351.078182 169.423742 
L 366.096364 150.807714 
L 381.114545 202.660639 
L 396.132727 202.660639 
" style="fill:none;stroke:#f4a460;stroke-dasharray:1.85,0.8;stroke-dashoffset:0;stroke-width:0.5;"/>
   </g>
   <g id="line2d_17">
    <path clip-path="url(#p21af516aac)" d="M 110.787273 202.660639 
L 125.805455 199.236372 
L 140.823636 151.668137 
L 155.841818 124.57254 
L 170.86 110.196266 
L 185.878182 128.338972 
L 200.896364 109.35456 
L 215.914545 121.104116 
L 230.932727 121.234281 
L 245.950909 86.83346 
L 260.969091 127.531867 
L 275.987273 129.410639 
L 291.005455 120.777609 
L 306.023636 119.571095 
L 321.041818 114.336782 
L 336.06 141.830848 
L 351.078182 150.923323 
L 366.096364 138.401251 
L 381.114545 202.660639 
L 396.132727 202.660639 
" style="fill:none;stroke:#f4a460;stroke-dasharray:1.85,0.8;stroke-dashoffset:0;stroke-width:0.5;"/>
   </g>
   <g id="line2d_18">
    <path clip-path="url(#p21af516aac)" d="M 110.787273 202.660639 
L 125.805455 201.905057 
L 140.823636 179.308002 
L 155.841818 175.382405 
L 170.86 164.977331 
L 185.878182 176.006057 
L 200.896364 159.979837 
L 215.914545 165.479655 
L 230.932727 171.722487 
L 245.950909 147.998626 
L 260.969091 177.745934 
L 275.987273 172.36467 
L 291.005455 169.010587 
L 306.023636 138.11313 
L 321.041818 119.108369 
L 336.06 133.213269 
L 351.078182 140.130429 
L 366.096364 101.263081 
L 381.114545 202.660639 
L 396.132727 202.660639 
" style="fill:none;stroke:#556b2f;stroke-linecap:round;stroke-opacity:0.8;stroke-width:0.7;"/>
    <defs>
     <path d="M 0 -2.5 
L -2.5 2.5 
L 2.5 2.5 
z
" id="m816c441e11" style="stroke:#000000;stroke-linejoin:miter;stroke-opacity:0.8;"/>
    </defs>
    <g clip-path="url(#p21af516aac)">
     <use style="fill:#556b2f;fill-opacity:0.8;stroke:#000000;stroke-linejoin:miter;stroke-opacity:0.8;" x="110.787273" xlink:href="#m816c441e11" y="202.660639"/>
     <use style="fill:#556b2f;fill-opacity:0.8;stroke:#000000;stroke-linejoin:miter;stroke-opacity:0.8;" x="125.805455" xlink:href="#m816c441e11" y="201.905057"/>
     <use style="fill:#556b2f;fill-opacity:0.8;stroke:#000000;stroke-linejoin:miter;stroke-opacity:0.8;" x="140.823636" xlink:href="#m816c441e11" y="179.308002"/>
     <use style="fill:#556b2f;fill-opacity:0.8;stroke:#000000;stroke-linejoin:miter;stroke-opacity:0.8;" x="155.841818" xlink:href="#m816c441e11" y="175.382405"/>
     <use style="fill:#556b2f;fill-opacity:0.8;stroke:#000000;stroke-linejoin:miter;stroke-opacity:0.8;" x="170.86" xlink:href="#m816c441e11" y="164.977331"/>
     <use style="fill:#556b2f;fill-opacity:0.8;stroke:#000000;stroke-linejoin:miter;stroke-opacity:0.8;" x="185.878182" xlink:href="#m816c441e11" y="176.006057"/>
     <use style="fill:#556b2f;fill-opacity:0.8;stroke:#000000;stroke-linejoin:miter;stroke-opacity:0.8;" x="200.896364" xlink:href="#m816c441e11" y="159.979837"/>
     <use style="fill:#556b2f;fill-opacity:0.8;stroke:#000000;stroke-linejoin:miter;stroke-opacity:0.8;" x="215.914545" xlink:href="#m816c441e11" y="165.479655"/>
     <use style="fill:#556b2f;fill-opacity:0.8;stroke:#000000;stroke-linejoin:miter;stroke-opacity:0.8;" x="230.932727" xlink:href="#m816c441e11" y="171.722487"/>
     <use style="fill:#556b2f;fill-opacity:0.8;stroke:#000000;stroke-linejoin:miter;stroke-opacity:0.8;" x="245.950909" xlink:href="#m816c441e11" y="147.998626"/>
     <use style="fill:#556b2f;fill-opacity:0.8;stroke:#000000;stroke-linejoin:miter;stroke-opacity:0.8;" x="260.969091" xlink:href="#m816c441e11" y="177.745934"/>
     <use style="fill:#556b2f;fill-opacity:0.8;stroke:#000000;stroke-linejoin:miter;stroke-opacity:0.8;" x="275.987273" xlink:href="#m816c441e11" y="172.36467"/>
     <use style="fill:#556b2f;fill-opacity:0.8;stroke:#000000;stroke-linejoin:miter;stroke-opacity:0.8;" x="291.005455" xlink:href="#m816c441e11" y="169.010587"/>
     <use style="fill:#556b2f;fill-opacity:0.8;stroke:#000000;stroke-linejoin:miter;stroke-opacity:0.8;" x="306.023636" xlink:href="#m816c441e11" y="138.11313"/>
     <use style="fill:#556b2f;fill-opacity:0.8;stroke:#000000;stroke-linejoin:miter;stroke-opacity:0.8;" x="321.041818" xlink:href="#m816c441e11" y="119.108369"/>
     <use style="fill:#556b2f;fill-opacity:0.8;stroke:#000000;stroke-linejoin:miter;stroke-opacity:0.8;" x="336.06" xlink:href="#m816c441e11" y="133.213269"/>
     <use style="fill:#556b2f;fill-opacity:0.8;stroke:#000000;stroke-linejoin:miter;stroke-opacity:0.8;" x="351.078182" xlink:href="#m816c441e11" y="140.130429"/>
     <use style="fill:#556b2f;fill-opacity:0.8;stroke:#000000;stroke-linejoin:miter;stroke-opacity:0.8;" x="366.096364" xlink:href="#m816c441e11" y="101.263081"/>
     <use style="fill:#556b2f;fill-opacity:0.8;stroke:#000000;stroke-linejoin:miter;stroke-opacity:0.8;" x="381.114545" xlink:href="#m816c441e11" y="202.660639"/>
     <use style="fill:#556b2f;fill-opacity:0.8;stroke:#000000;stroke-linejoin:miter;stroke-opacity:0.8;" x="396.132727" xlink:href="#m816c441e11" y="202.660639"/>
    </g>
   </g>
   <g id="line2d_19">
    <path clip-path="url(#p21af516aac)" d="M 110.787273 202.660639 
L 125.805455 201.905057 
L 140.823636 179.308002 
L 155.841818 175.382405 
L 170.86 164.977331 
L 185.878182 176.006057 
L 200.896364 159.979837 
L 215.914545 165.479655 
L 230.932727 171.722487 
L 245.950909 147.998626 
L 260.969091 177.745934 
L 275.987273 172.36467 
L 291.005455 169.010587 
L 306.023636 138.11313 
L 321.041818 119.108369 
L 336.06 133.213269 
L 351.078182 140.130429 
L 366.096364 101.263081 
L 381.114545 202.660639 
L 396.132727 202.660639 
" style="fill:none;stroke:#556b2f;stroke-linecap:round;stroke-width:0.7;"/>
   </g>
   <g id="line2d_20">
    <path clip-path="url(#p21af516aac)" d="M 110.787273 202.660639 
L 125.805455 203.404295 
L 140.823636 189.07557 
L 155.841818 183.172131 
L 170.86 174.701289 
L 185.878182 184.102929 
L 200.896364 169.387957 
L 215.914545 174.368278 
L 230.932727 180.817588 
L 245.950909 158.444843 
L 260.969091 185.844434 
L 275.987273 182.168811 
L 291.005455 178.945448 
L 306.023636 152.341586 
L 321.041818 133.786555 
L 336.06 146.862372 
L 351.078182 152.44363 
L 366.096364 107.478623 
L 381.114545 202.660639 
L 396.132727 202.660639 
" style="fill:none;stroke:#556b2f;stroke-dasharray:1.85,0.8;stroke-dashoffset:0;stroke-width:0.5;"/>
   </g>
   <g id="line2d_21">
    <path clip-path="url(#p21af516aac)" d="M 110.787273 202.660639 
L 125.805455 200.405818 
L 140.823636 169.540433 
L 155.841818 167.592678 
L 170.86 155.253374 
L 185.878182 167.909185 
L 200.896364 150.571717 
L 215.914545 156.591033 
L 230.932727 162.627387 
L 245.950909 137.552408 
L 260.969091 169.647434 
L 275.987273 162.56053 
L 291.005455 159.075726 
L 306.023636 123.884675 
L 321.041818 104.430182 
L 336.06 119.564165 
L 351.078182 127.817227 
L 366.096364 95.047539 
L 381.114545 202.660639 
L 396.132727 202.660639 
" style="fill:none;stroke:#556b2f;stroke-dasharray:1.85,0.8;stroke-dashoffset:0;stroke-width:0.5;"/>
   </g>
   <g id="patch_3">
    <path d="M 96.52 211.94 
L 96.52 24.154498 
" style="fill:none;stroke:#cccccc;stroke-linecap:square;stroke-linejoin:miter;stroke-width:0.8;"/>
   </g>
   <g id="patch_4">
    <path d="M 96.52 211.94 
L 410.4 211.94 
" style="fill:none;stroke:#cccccc;stroke-linecap:square;stroke-linejoin:miter;stroke-width:0.8;"/>
   </g>
   <g id="legend_1">
    <g id="patch_5">
     <path d="M 110.52 154.216998 
L 241.2075 154.216998 
Q 245.2075 154.216998 245.2075 150.216998 
L 245.2075 38.154498 
Q 245.2075 34.154498 241.2075 34.154498 
L 110.52 34.154498 
Q 106.52 34.154498 106.52 38.154498 
L 106.52 150.216998 
Q 106.52 154.216998 110.52 154.216998 
z
" style="fill:#ffffff;opacity:0.8;stroke:#cccccc;stroke-linejoin:miter;"/>
    </g>
    <g id="line2d_22">
     <path d="M 114.52 49.501373 
L 154.52 49.501373 
" style="fill:none;stroke:#ff8c00;stroke-linecap:round;stroke-opacity:0.8;stroke-width:0.7;"/>
    </g>
    <g id="line2d_23">
     <g>
      <use style="fill:#ff8c00;fill-opacity:0.8;stroke:#000000;stroke-linejoin:miter;stroke-opacity:0.8;" x="134.52" xlink:href="#me7fc854131" y="49.501373"/>
     </g>
    </g>
    <g id="text_8">
     <!-- Class a -->
     <g style="fill:#262626;" transform="translate(170.52 56.501373)scale(0.2 -0.2)">
      <defs>
       <path d="M 2422 4716 
Q 3294 4716 3775 4256 
Q 4256 3797 4309 3213 
L 3703 3213 
Q 3600 3656 3292 3915 
Q 2984 4175 2428 4175 
Q 1750 4175 1333 3698 
Q 916 3222 916 2238 
Q 916 1431 1292 929 
Q 1669 428 2416 428 
Q 3103 428 3463 956 
Q 3653 1234 3747 1688 
L 4353 1688 
Q 4272 963 3816 472 
Q 3269 -119 2341 -119 
Q 1541 -119 997 366 
Q 281 1006 281 2344 
Q 281 3359 819 4009 
Q 1400 4716 2422 4716 
z
M 2297 4716 
L 2297 4716 
z
" id="Helvetica-43" transform="scale(0.015625)"/>
       <path d="M 428 4591 
L 991 4591 
L 991 0 
L 428 0 
L 428 4591 
z
" id="Helvetica-6c" transform="scale(0.015625)"/>
      </defs>
      <use xlink:href="#Helvetica-43"/>
      <use x="72.216797" xlink:href="#Helvetica-6c"/>
      <use x="94.433594" xlink:href="#Helvetica-61"/>
      <use x="150.048828" xlink:href="#Helvetica-73"/>
      <use x="200.048828" xlink:href="#Helvetica-73"/>
      <use x="250.048828" xlink:href="#Helvetica-20"/>
      <use x="277.832031" xlink:href="#Helvetica-61"/>
     </g>
    </g>
    <g id="line2d_24">
     <path d="M 114.52 78.016998 
L 154.52 78.016998 
" style="fill:none;stroke:#808080;stroke-linecap:round;stroke-opacity:0.8;stroke-width:0.7;"/>
    </g>
    <g id="line2d_25">
     <g>
      <use style="fill:#808080;fill-opacity:0.8;stroke:#000000;stroke-linejoin:miter;stroke-opacity:0.8;" x="134.52" xlink:href="#me96b2e4bbd" y="78.016998"/>
     </g>
    </g>
    <g id="text_9">
     <!-- Class d -->
     <g style="fill:#262626;" transform="translate(170.52 85.016998)scale(0.2 -0.2)">
      <use xlink:href="#Helvetica-43"/>
      <use x="72.216797" xlink:href="#Helvetica-6c"/>
      <use x="94.433594" xlink:href="#Helvetica-61"/>
      <use x="150.048828" xlink:href="#Helvetica-73"/>
      <use x="200.048828" xlink:href="#Helvetica-73"/>
      <use x="250.048828" xlink:href="#Helvetica-20"/>
      <use x="277.832031" xlink:href="#Helvetica-64"/>
     </g>
    </g>
    <g id="line2d_26">
     <path d="M 114.52 106.532623 
L 154.52 106.532623 
" style="fill:none;stroke:#f4a460;stroke-linecap:round;stroke-opacity:0.8;stroke-width:0.7;"/>
    </g>
    <g id="line2d_27">
     <g>
      <use style="fill:#f4a460;fill-opacity:0.8;stroke:#000000;stroke-linejoin:miter;stroke-opacity:0.8;" x="134.52" xlink:href="#m4ee26cffac" y="106.532623"/>
     </g>
    </g>
    <g id="text_10">
     <!-- Class c -->
     <g style="fill:#262626;" transform="translate(170.52 113.532623)scale(0.2 -0.2)">
      <use xlink:href="#Helvetica-43"/>
      <use x="72.216797" xlink:href="#Helvetica-6c"/>
      <use x="94.433594" xlink:href="#Helvetica-61"/>
      <use x="150.048828" xlink:href="#Helvetica-73"/>
      <use x="200.048828" xlink:href="#Helvetica-73"/>
      <use x="250.048828" xlink:href="#Helvetica-20"/>
      <use x="277.832031" xlink:href="#Helvetica-63"/>
     </g>
    </g>
    <g id="line2d_28">
     <path d="M 114.52 135.048248 
L 154.52 135.048248 
" style="fill:none;stroke:#556b2f;stroke-linecap:round;stroke-opacity:0.8;stroke-width:0.7;"/>
    </g>
    <g id="line2d_29">
     <g>
      <use style="fill:#556b2f;fill-opacity:0.8;stroke:#000000;stroke-linejoin:miter;stroke-opacity:0.8;" x="134.52" xlink:href="#m816c441e11" y="135.048248"/>
     </g>
    </g>
    <g id="text_11">
     <!-- Class b -->
     <g style="fill:#262626;" transform="translate(170.52 142.048248)scale(0.2 -0.2)">
      <defs>
       <path d="M 369 4606 
L 916 4606 
L 916 2941 
Q 1100 3181 1356 3307 
Q 1613 3434 1913 3434 
Q 2538 3434 2927 3004 
Q 3316 2575 3316 1738 
Q 3316 944 2931 419 
Q 2547 -106 1866 -106 
Q 1484 -106 1222 78 
Q 1066 188 888 428 
L 888 0 
L 369 0 
L 369 4606 
z
M 1831 391 
Q 2288 391 2514 753 
Q 2741 1116 2741 1709 
Q 2741 2238 2514 2584 
Q 2288 2931 1847 2931 
Q 1463 2931 1173 2647 
Q 884 2363 884 1709 
Q 884 1238 1003 944 
Q 1225 391 1831 391 
z
" id="Helvetica-62" transform="scale(0.015625)"/>
      </defs>
      <use xlink:href="#Helvetica-43"/>
      <use x="72.216797" xlink:href="#Helvetica-6c"/>
      <use x="94.433594" xlink:href="#Helvetica-61"/>
      <use x="150.048828" xlink:href="#Helvetica-73"/>
      <use x="200.048828" xlink:href="#Helvetica-73"/>
      <use x="250.048828" xlink:href="#Helvetica-20"/>
      <use x="277.832031" xlink:href="#Helvetica-62"/>
     </g>
    </g>
   </g>
  </g>
 </g>
 <defs>
  <clipPath id="p21af516aac">
   <rect height="187.785502" width="313.88" x="96.52" y="24.154498"/>
  </clipPath>
 </defs>
</svg>
