<?xml version="1.0" encoding="utf-8" standalone="no"?>
<!DOCTYPE svg PUBLIC "-//W3C//DTD SVG 1.1//EN"
  "http://www.w3.org/Graphics/SVG/1.1/DTD/svg11.dtd">
<svg height="288pt" version="1.1" viewBox="0 0 432 288" width="432pt" xmlns="http://www.w3.org/2000/svg" xmlns:xlink="http://www.w3.org/1999/xlink">
 <metadata>
  <rdf:RDF xmlns:cc="http://creativecommons.org/ns#" xmlns:dc="http://purl.org/dc/elements/1.1/" xmlns:rdf="http://www.w3.org/1999/02/22-rdf-syntax-ns#">
   <cc:Work>
    <dc:type rdf:resource="http://purl.org/dc/dcmitype/StillImage"/>
    <dc:date>2022-12-18T02:38:49.724881</dc:date>
    <dc:format>image/svg+xml</dc:format>
    <dc:creator>
     <cc:Agent>
      <dc:title>Matplotlib v3.4.2, https://matplotlib.org/</dc:title>
     </cc:Agent>
    </dc:creator>
   </cc:Work>
  </rdf:RDF>
 </metadata>
 <defs>
  <style type="text/css">*{stroke-linecap:butt;stroke-linejoin:round;}</style>
 </defs>
 <g id="figure_1">
  <g id="patch_1">
   <path d="M 0 288 
L 432 288 
L 432 0 
L 0 0 
z
" style="fill:#ffffff;"/>
  </g>
  <g id="axes_1">
   <g id="patch_2">
    <path d="M 96.52 211.94 
L 410.4 211.94 
L 410.4 21.6 
L 96.52 21.6 
z
" style="fill:#ffffff;"/>
   </g>
   <g id="matplotlib.axis_1">
    <g id="xtick_1">
     <g id="line2d_1">
      <path clip-path="url(#pea6843b6cc)" d="M 110.787273 211.94 
L 110.787273 21.6 
" style="fill:none;stroke:#cccccc;stroke-linecap:round;stroke-width:0.8;"/>
     </g>
     <g id="text_1">
      <!-- 0 -->
      <g style="fill:#262626;" transform="translate(105.226335 239.786875)scale(0.2 -0.2)">
       <defs>
        <path d="M 1731 4475 
Q 2600 4475 2988 3759 
Q 3288 3206 3288 2244 
Q 3288 1331 3016 734 
Q 2622 -122 1728 -122 
Q 922 -122 528 578 
Q 200 1163 200 2147 
Q 200 2909 397 3456 
Q 766 4475 1731 4475 
z
M 1725 391 
Q 2163 391 2422 778 
Q 2681 1166 2681 2222 
Q 2681 2984 2493 3476 
Q 2306 3969 1766 3969 
Q 1269 3969 1039 3501 
Q 809 3034 809 2125 
Q 809 1441 956 1025 
Q 1181 391 1725 391 
z
" id="Helvetica-30" transform="scale(0.015625)"/>
       </defs>
       <use xlink:href="#Helvetica-30"/>
      </g>
     </g>
    </g>
    <g id="xtick_2">
     <g id="line2d_2">
      <path clip-path="url(#pea6843b6cc)" d="M 159.984765 211.94 
L 159.984765 21.6 
" style="fill:none;stroke:#cccccc;stroke-linecap:round;stroke-width:0.8;"/>
     </g>
     <g id="text_2">
      <!-- 10 -->
      <g style="fill:#262626;" transform="translate(148.86289 239.786875)scale(0.2 -0.2)">
       <defs>
        <path d="M 613 3169 
L 613 3600 
Q 1222 3659 1462 3798 
Q 1703 3938 1822 4456 
L 2266 4456 
L 2266 0 
L 1666 0 
L 1666 3169 
L 613 3169 
z
" id="Helvetica-31" transform="scale(0.015625)"/>
       </defs>
       <use xlink:href="#Helvetica-31"/>
       <use x="55.615234" xlink:href="#Helvetica-30"/>
      </g>
     </g>
    </g>
    <g id="xtick_3">
     <g id="line2d_3">
      <path clip-path="url(#pea6843b6cc)" d="M 209.182257 211.94 
L 209.182257 21.6 
" style="fill:none;stroke:#cccccc;stroke-linecap:round;stroke-width:0.8;"/>
     </g>
     <g id="text_3">
      <!-- 20 -->
      <g style="fill:#262626;" transform="translate(198.060382 239.786875)scale(0.2 -0.2)">
       <defs>
        <path d="M 200 0 
Q 231 578 439 1006 
Q 647 1434 1250 1784 
L 1850 2131 
Q 2253 2366 2416 2531 
Q 2672 2791 2672 3125 
Q 2672 3516 2437 3745 
Q 2203 3975 1813 3975 
Q 1234 3975 1013 3538 
Q 894 3303 881 2888 
L 309 2888 
Q 319 3472 525 3841 
Q 891 4491 1816 4491 
Q 2584 4491 2939 4075 
Q 3294 3659 3294 3150 
Q 3294 2613 2916 2231 
Q 2697 2009 2131 1694 
L 1703 1456 
Q 1397 1288 1222 1134 
Q 909 863 828 531 
L 3272 531 
L 3272 0 
L 200 0 
z
" id="Helvetica-32" transform="scale(0.015625)"/>
       </defs>
       <use xlink:href="#Helvetica-32"/>
       <use x="55.615234" xlink:href="#Helvetica-30"/>
      </g>
     </g>
    </g>
    <g id="xtick_4">
     <g id="line2d_4">
      <path clip-path="url(#pea6843b6cc)" d="M 258.379749 211.94 
L 258.379749 21.6 
" style="fill:none;stroke:#cccccc;stroke-linecap:round;stroke-width:0.8;"/>
     </g>
     <g id="text_4">
      <!-- 30 -->
      <g style="fill:#262626;" transform="translate(247.257874 239.786875)scale(0.2 -0.2)">
       <defs>
        <path d="M 1663 -122 
Q 869 -122 511 314 
Q 153 750 153 1375 
L 741 1375 
Q 778 941 903 744 
Q 1122 391 1694 391 
Q 2138 391 2406 628 
Q 2675 866 2675 1241 
Q 2675 1703 2392 1887 
Q 2109 2072 1606 2072 
Q 1550 2072 1492 2070 
Q 1434 2069 1375 2066 
L 1375 2563 
Q 1463 2553 1522 2550 
Q 1581 2547 1650 2547 
Q 1966 2547 2169 2647 
Q 2525 2822 2525 3272 
Q 2525 3606 2287 3787 
Q 2050 3969 1734 3969 
Q 1172 3969 956 3594 
Q 838 3388 822 3006 
L 266 3006 
Q 266 3506 466 3856 
Q 809 4481 1675 4481 
Q 2359 4481 2734 4176 
Q 3109 3872 3109 3294 
Q 3109 2881 2888 2625 
Q 2750 2466 2531 2375 
Q 2884 2278 3082 2001 
Q 3281 1725 3281 1325 
Q 3281 684 2859 281 
Q 2438 -122 1663 -122 
z
" id="Helvetica-33" transform="scale(0.015625)"/>
       </defs>
       <use xlink:href="#Helvetica-33"/>
       <use x="55.615234" xlink:href="#Helvetica-30"/>
      </g>
     </g>
    </g>
    <g id="xtick_5">
     <g id="line2d_5">
      <path clip-path="url(#pea6843b6cc)" d="M 307.577241 211.94 
L 307.577241 21.6 
" style="fill:none;stroke:#cccccc;stroke-linecap:round;stroke-width:0.8;"/>
     </g>
     <g id="text_5">
      <!-- 40 -->
      <g style="fill:#262626;" transform="translate(296.455366 239.786875)scale(0.2 -0.2)">
       <defs>
        <path d="M 2116 1584 
L 2116 3613 
L 681 1584 
L 2116 1584 
z
M 2125 0 
L 2125 1094 
L 163 1094 
L 163 1644 
L 2213 4488 
L 2688 4488 
L 2688 1584 
L 3347 1584 
L 3347 1094 
L 2688 1094 
L 2688 0 
L 2125 0 
z
" id="Helvetica-34" transform="scale(0.015625)"/>
       </defs>
       <use xlink:href="#Helvetica-34"/>
       <use x="55.615234" xlink:href="#Helvetica-30"/>
      </g>
     </g>
    </g>
    <g id="xtick_6">
     <g id="line2d_6">
      <path clip-path="url(#pea6843b6cc)" d="M 356.774734 211.94 
L 356.774734 21.6 
" style="fill:none;stroke:#cccccc;stroke-linecap:round;stroke-width:0.8;"/>
     </g>
     <g id="text_6">
      <!-- 50 -->
      <g style="fill:#262626;" transform="translate(345.652859 239.786875)scale(0.2 -0.2)">
       <defs>
        <path d="M 791 1141 
Q 847 659 1238 475 
Q 1438 381 1700 381 
Q 2200 381 2440 700 
Q 2681 1019 2681 1406 
Q 2681 1875 2395 2131 
Q 2109 2388 1709 2388 
Q 1419 2388 1211 2275 
Q 1003 2163 856 1963 
L 369 1991 
L 709 4400 
L 3034 4400 
L 3034 3856 
L 1131 3856 
L 941 2613 
Q 1097 2731 1238 2791 
Q 1488 2894 1816 2894 
Q 2431 2894 2859 2497 
Q 3288 2100 3288 1491 
Q 3288 856 2895 371 
Q 2503 -113 1644 -113 
Q 1097 -113 676 195 
Q 256 503 206 1141 
L 791 1141 
z
" id="Helvetica-35" transform="scale(0.015625)"/>
       </defs>
       <use xlink:href="#Helvetica-35"/>
       <use x="55.615234" xlink:href="#Helvetica-30"/>
      </g>
     </g>
    </g>
    <g id="text_7">
     <!-- Position -->
     <g style="fill:#262626;" transform="translate(217.885 262.3025)scale(0.2 -0.2)">
      <defs>
       <path d="M 547 4591 
L 2613 4591 
Q 3225 4591 3600 4245 
Q 3975 3900 3975 3275 
Q 3975 2738 3640 2339 
Q 3306 1941 2613 1941 
L 1169 1941 
L 1169 0 
L 547 0 
L 547 4591 
z
M 3347 3272 
Q 3347 3778 2972 3959 
Q 2766 4056 2406 4056 
L 1169 4056 
L 1169 2466 
L 2406 2466 
Q 2825 2466 3086 2644 
Q 3347 2822 3347 3272 
z
" id="Helvetica-50" transform="scale(0.015625)"/>
       <path d="M 1741 363 
Q 2300 363 2508 786 
Q 2716 1209 2716 1728 
Q 2716 2197 2566 2491 
Q 2328 2953 1747 2953 
Q 1231 2953 997 2559 
Q 763 2166 763 1609 
Q 763 1075 997 719 
Q 1231 363 1741 363 
z
M 1763 3444 
Q 2409 3444 2856 3012 
Q 3303 2581 3303 1744 
Q 3303 934 2909 406 
Q 2516 -122 1688 -122 
Q 997 -122 590 345 
Q 184 813 184 1600 
Q 184 2444 612 2944 
Q 1041 3444 1763 3444 
z
M 1744 3428 
L 1744 3428 
z
" id="Helvetica-6f" transform="scale(0.015625)"/>
       <path d="M 747 1050 
Q 772 769 888 619 
Q 1100 347 1625 347 
Q 1938 347 2175 483 
Q 2413 619 2413 903 
Q 2413 1119 2222 1231 
Q 2100 1300 1741 1391 
L 1294 1503 
Q 866 1609 663 1741 
Q 300 1969 300 2372 
Q 300 2847 642 3140 
Q 984 3434 1563 3434 
Q 2319 3434 2653 2991 
Q 2863 2709 2856 2384 
L 2325 2384 
Q 2309 2575 2191 2731 
Q 1997 2953 1519 2953 
Q 1200 2953 1036 2831 
Q 872 2709 872 2509 
Q 872 2291 1088 2159 
Q 1213 2081 1456 2022 
L 1828 1931 
Q 2434 1784 2641 1647 
Q 2969 1431 2969 969 
Q 2969 522 2630 197 
Q 2291 -128 1597 -128 
Q 850 -128 539 211 
Q 228 550 206 1050 
L 747 1050 
z
M 1578 3428 
L 1578 3428 
z
" id="Helvetica-73" transform="scale(0.015625)"/>
       <path d="M 413 3331 
L 984 3331 
L 984 0 
L 413 0 
L 413 3331 
z
M 413 4591 
L 984 4591 
L 984 3953 
L 413 3953 
L 413 4591 
z
" id="Helvetica-69" transform="scale(0.015625)"/>
       <path d="M 525 4281 
L 1094 4281 
L 1094 3347 
L 1628 3347 
L 1628 2888 
L 1094 2888 
L 1094 703 
Q 1094 528 1213 469 
Q 1278 434 1431 434 
Q 1472 434 1519 436 
Q 1566 438 1628 444 
L 1628 0 
Q 1531 -28 1426 -40 
Q 1322 -53 1200 -53 
Q 806 -53 665 148 
Q 525 350 525 672 
L 525 2888 
L 72 2888 
L 72 3347 
L 525 3347 
L 525 4281 
z
" id="Helvetica-74" transform="scale(0.015625)"/>
       <path d="M 413 3347 
L 947 3347 
L 947 2872 
Q 1184 3166 1450 3294 
Q 1716 3422 2041 3422 
Q 2753 3422 3003 2925 
Q 3141 2653 3141 2147 
L 3141 0 
L 2569 0 
L 2569 2109 
Q 2569 2416 2478 2603 
Q 2328 2916 1934 2916 
Q 1734 2916 1606 2875 
Q 1375 2806 1200 2600 
Q 1059 2434 1017 2257 
Q 975 2081 975 1753 
L 975 0 
L 413 0 
L 413 3347 
z
M 1734 3428 
L 1734 3428 
z
" id="Helvetica-6e" transform="scale(0.015625)"/>
      </defs>
      <use xlink:href="#Helvetica-50"/>
      <use x="66.699219" xlink:href="#Helvetica-6f"/>
      <use x="122.314453" xlink:href="#Helvetica-73"/>
      <use x="172.314453" xlink:href="#Helvetica-69"/>
      <use x="194.53125" xlink:href="#Helvetica-74"/>
      <use x="222.314453" xlink:href="#Helvetica-69"/>
      <use x="244.53125" xlink:href="#Helvetica-6f"/>
      <use x="300.146484" xlink:href="#Helvetica-6e"/>
     </g>
    </g>
   </g>
   <g id="matplotlib.axis_2">
    <g id="ytick_1">
     <g id="line2d_7">
      <path clip-path="url(#pea6843b6cc)" d="M 96.52 193.040266 
L 410.4 193.040266 
" style="fill:none;stroke:#cccccc;stroke-linecap:round;stroke-width:0.8;"/>
     </g>
     <g id="text_8">
      <!-- 0.00 -->
      <g style="fill:#262626;" transform="translate(44.098125 200.213704)scale(0.2 -0.2)">
       <defs>
        <path d="M 547 681 
L 1200 681 
L 1200 0 
L 547 0 
L 547 681 
z
" id="Helvetica-2e" transform="scale(0.015625)"/>
       </defs>
       <use xlink:href="#Helvetica-30"/>
       <use x="55.615234" xlink:href="#Helvetica-2e"/>
       <use x="83.398438" xlink:href="#Helvetica-30"/>
       <use x="139.013672" xlink:href="#Helvetica-30"/>
      </g>
     </g>
    </g>
    <g id="ytick_2">
     <g id="line2d_8">
      <path clip-path="url(#pea6843b6cc)" d="M 96.52 128.719561 
L 410.4 128.719561 
" style="fill:none;stroke:#cccccc;stroke-linecap:round;stroke-width:0.8;"/>
     </g>
     <g id="text_9">
      <!-- 0.05 -->
      <g style="fill:#262626;" transform="translate(44.098125 135.892999)scale(0.2 -0.2)">
       <use xlink:href="#Helvetica-30"/>
       <use x="55.615234" xlink:href="#Helvetica-2e"/>
       <use x="83.398438" xlink:href="#Helvetica-30"/>
       <use x="139.013672" xlink:href="#Helvetica-35"/>
      </g>
     </g>
    </g>
    <g id="ytick_3">
     <g id="line2d_9">
      <path clip-path="url(#pea6843b6cc)" d="M 96.52 64.398856 
L 410.4 64.398856 
" style="fill:none;stroke:#cccccc;stroke-linecap:round;stroke-width:0.8;"/>
     </g>
     <g id="text_10">
      <!-- 0.10 -->
      <g style="fill:#262626;" transform="translate(44.098125 71.572294)scale(0.2 -0.2)">
       <use xlink:href="#Helvetica-30"/>
       <use x="55.615234" xlink:href="#Helvetica-2e"/>
       <use x="83.398438" xlink:href="#Helvetica-31"/>
       <use x="139.013672" xlink:href="#Helvetica-30"/>
      </g>
     </g>
    </g>
    <g id="text_11">
     <!-- Std Dev of Subunit Mismatch -->
     <g style="fill:#262626;" transform="translate(35.929375 245.709062)rotate(-90)scale(0.2 -0.2)">
      <defs>
       <path d="M 894 1481 
Q 916 1091 1078 847 
Q 1388 391 2169 391 
Q 2519 391 2806 491 
Q 3363 684 3363 1184 
Q 3363 1559 3128 1719 
Q 2891 1875 2384 1991 
L 1763 2131 
Q 1153 2269 900 2434 
Q 463 2722 463 3294 
Q 463 3913 891 4309 
Q 1319 4706 2103 4706 
Q 2825 4706 3329 4357 
Q 3834 4009 3834 3244 
L 3250 3244 
Q 3203 3613 3050 3809 
Q 2766 4169 2084 4169 
Q 1534 4169 1293 3937 
Q 1053 3706 1053 3400 
Q 1053 3063 1334 2906 
Q 1519 2806 2169 2656 
L 2813 2509 
Q 3278 2403 3531 2219 
Q 3969 1897 3969 1284 
Q 3969 522 3414 194 
Q 2859 -134 2125 -134 
Q 1269 -134 784 303 
Q 300 738 309 1481 
L 894 1481 
z
M 2150 4716 
L 2150 4716 
z
" id="Helvetica-53" transform="scale(0.015625)"/>
       <path d="M 769 1634 
Q 769 1097 997 734 
Q 1225 372 1728 372 
Q 2119 372 2370 708 
Q 2622 1044 2622 1672 
Q 2622 2306 2362 2611 
Q 2103 2916 1722 2916 
Q 1297 2916 1033 2591 
Q 769 2266 769 1634 
z
M 1616 3406 
Q 2000 3406 2259 3244 
Q 2409 3150 2600 2916 
L 2600 4606 
L 3141 4606 
L 3141 0 
L 2634 0 
L 2634 466 
Q 2438 156 2169 18 
Q 1900 -119 1553 -119 
Q 994 -119 584 351 
Q 175 822 175 1603 
Q 175 2334 548 2870 
Q 922 3406 1616 3406 
z
" id="Helvetica-64" transform="scale(0.015625)"/>
       <path id="Helvetica-20" transform="scale(0.015625)"/>
       <path d="M 2250 531 
Q 2566 531 2769 597 
Q 3131 719 3363 1066 
Q 3547 1344 3628 1778 
Q 3675 2038 3675 2259 
Q 3675 3113 3336 3584 
Q 2997 4056 2244 4056 
L 1141 4056 
L 1141 531 
L 2250 531 
z
M 516 4591 
L 2375 4591 
Q 3322 4591 3844 3919 
Q 4309 3313 4309 2366 
Q 4309 1634 4034 1044 
Q 3550 0 2369 0 
L 516 0 
L 516 4591 
z
" id="Helvetica-44" transform="scale(0.015625)"/>
       <path d="M 1806 3422 
Q 2163 3422 2497 3255 
Q 2831 3088 3006 2822 
Q 3175 2569 3231 2231 
Q 3281 2000 3281 1494 
L 828 1494 
Q 844 984 1069 676 
Q 1294 369 1766 369 
Q 2206 369 2469 659 
Q 2619 828 2681 1050 
L 3234 1050 
Q 3213 866 3089 639 
Q 2966 413 2813 269 
Q 2556 19 2178 -69 
Q 1975 -119 1719 -119 
Q 1094 -119 659 336 
Q 225 791 225 1609 
Q 225 2416 662 2919 
Q 1100 3422 1806 3422 
z
M 2703 1941 
Q 2669 2306 2544 2525 
Q 2313 2931 1772 2931 
Q 1384 2931 1121 2651 
Q 859 2372 844 1941 
L 2703 1941 
z
M 1753 3428 
L 1753 3428 
z
" id="Helvetica-65" transform="scale(0.015625)"/>
       <path d="M 688 3347 
L 1581 622 
L 2516 3347 
L 3131 3347 
L 1869 0 
L 1269 0 
L 34 3347 
L 688 3347 
z
" id="Helvetica-76" transform="scale(0.015625)"/>
       <path d="M 553 3856 
Q 566 4206 675 4369 
Q 872 4656 1434 4656 
Q 1488 4656 1544 4653 
Q 1600 4650 1672 4644 
L 1672 4131 
Q 1584 4138 1545 4139 
Q 1506 4141 1472 4141 
Q 1216 4141 1166 4008 
Q 1116 3875 1116 3331 
L 1672 3331 
L 1672 2888 
L 1109 2888 
L 1109 0 
L 553 0 
L 553 2888 
L 88 2888 
L 88 3331 
L 553 3331 
L 553 3856 
z
" id="Helvetica-66" transform="scale(0.015625)"/>
       <path d="M 975 3347 
L 975 1125 
Q 975 869 1056 706 
Q 1206 406 1616 406 
Q 2203 406 2416 931 
Q 2531 1213 2531 1703 
L 2531 3347 
L 3094 3347 
L 3094 0 
L 2563 0 
L 2569 494 
Q 2459 303 2297 172 
Q 1975 -91 1516 -91 
Q 800 -91 541 388 
Q 400 644 400 1072 
L 400 3347 
L 975 3347 
z
M 1747 3428 
L 1747 3428 
z
" id="Helvetica-75" transform="scale(0.015625)"/>
       <path d="M 369 4606 
L 916 4606 
L 916 2941 
Q 1100 3181 1356 3307 
Q 1613 3434 1913 3434 
Q 2538 3434 2927 3004 
Q 3316 2575 3316 1738 
Q 3316 944 2931 419 
Q 2547 -106 1866 -106 
Q 1484 -106 1222 78 
Q 1066 188 888 428 
L 888 0 
L 369 0 
L 369 4606 
z
M 1831 391 
Q 2288 391 2514 753 
Q 2741 1116 2741 1709 
Q 2741 2238 2514 2584 
Q 2288 2931 1847 2931 
Q 1463 2931 1173 2647 
Q 884 2363 884 1709 
Q 884 1238 1003 944 
Q 1225 391 1831 391 
z
" id="Helvetica-62" transform="scale(0.015625)"/>
       <path d="M 472 4591 
L 1363 4591 
L 2681 709 
L 3991 4591 
L 4872 4591 
L 4872 0 
L 4281 0 
L 4281 2709 
Q 4281 2850 4287 3175 
Q 4294 3500 4294 3872 
L 2984 0 
L 2369 0 
L 1050 3872 
L 1050 3731 
Q 1050 3563 1058 3217 
Q 1066 2872 1066 2709 
L 1066 0 
L 472 0 
L 472 4591 
z
" id="Helvetica-4d" transform="scale(0.015625)"/>
       <path d="M 413 3347 
L 969 3347 
L 969 2872 
Q 1169 3119 1331 3231 
Q 1609 3422 1963 3422 
Q 2363 3422 2606 3225 
Q 2744 3113 2856 2894 
Q 3044 3163 3297 3292 
Q 3550 3422 3866 3422 
Q 4541 3422 4784 2934 
Q 4916 2672 4916 2228 
L 4916 0 
L 4331 0 
L 4331 2325 
Q 4331 2659 4164 2784 
Q 3997 2909 3756 2909 
Q 3425 2909 3186 2687 
Q 2947 2466 2947 1947 
L 2947 0 
L 2375 0 
L 2375 2184 
Q 2375 2525 2294 2681 
Q 2166 2916 1816 2916 
Q 1497 2916 1236 2669 
Q 975 2422 975 1775 
L 975 0 
L 413 0 
L 413 3347 
z
" id="Helvetica-6d" transform="scale(0.015625)"/>
       <path d="M 844 891 
Q 844 647 1022 506 
Q 1200 366 1444 366 
Q 1741 366 2019 503 
Q 2488 731 2488 1250 
L 2488 1703 
Q 2384 1638 2221 1594 
Q 2059 1550 1903 1531 
L 1563 1488 
Q 1256 1447 1103 1359 
Q 844 1213 844 891 
z
M 2206 2028 
Q 2400 2053 2466 2191 
Q 2503 2266 2503 2406 
Q 2503 2694 2298 2823 
Q 2094 2953 1713 2953 
Q 1272 2953 1088 2716 
Q 984 2584 953 2325 
L 428 2325 
Q 444 2944 830 3186 
Q 1216 3428 1725 3428 
Q 2316 3428 2684 3203 
Q 3050 2978 3050 2503 
L 3050 575 
Q 3050 488 3086 434 
Q 3122 381 3238 381 
Q 3275 381 3322 386 
Q 3369 391 3422 400 
L 3422 -16 
Q 3291 -53 3222 -62 
Q 3153 -72 3034 -72 
Q 2744 -72 2613 134 
Q 2544 244 2516 444 
Q 2344 219 2022 53 
Q 1700 -113 1313 -113 
Q 847 -113 551 170 
Q 256 453 256 878 
Q 256 1344 547 1600 
Q 838 1856 1309 1916 
L 2206 2028 
z
M 1741 3428 
L 1741 3428 
z
" id="Helvetica-61" transform="scale(0.015625)"/>
       <path d="M 1703 3444 
Q 2269 3444 2623 3169 
Q 2978 2894 3050 2222 
L 2503 2222 
Q 2453 2531 2275 2736 
Q 2097 2941 1703 2941 
Q 1166 2941 934 2416 
Q 784 2075 784 1575 
Q 784 1072 996 728 
Q 1209 384 1666 384 
Q 2016 384 2220 598 
Q 2425 813 2503 1184 
L 3050 1184 
Q 2956 519 2581 211 
Q 2206 -97 1622 -97 
Q 966 -97 575 383 
Q 184 863 184 1581 
Q 184 2463 612 2953 
Q 1041 3444 1703 3444 
z
M 1616 3428 
L 1616 3428 
z
" id="Helvetica-63" transform="scale(0.015625)"/>
       <path d="M 413 4606 
L 975 4606 
L 975 2894 
Q 1175 3147 1334 3250 
Q 1606 3428 2013 3428 
Q 2741 3428 3000 2919 
Q 3141 2641 3141 2147 
L 3141 0 
L 2563 0 
L 2563 2109 
Q 2563 2478 2469 2650 
Q 2316 2925 1894 2925 
Q 1544 2925 1259 2684 
Q 975 2444 975 1775 
L 975 0 
L 413 0 
L 413 4606 
z
" id="Helvetica-68" transform="scale(0.015625)"/>
      </defs>
      <use xlink:href="#Helvetica-53"/>
      <use x="66.699219" xlink:href="#Helvetica-74"/>
      <use x="94.482422" xlink:href="#Helvetica-64"/>
      <use x="150.097656" xlink:href="#Helvetica-20"/>
      <use x="177.880859" xlink:href="#Helvetica-44"/>
      <use x="250.097656" xlink:href="#Helvetica-65"/>
      <use x="305.712891" xlink:href="#Helvetica-76"/>
      <use x="355.712891" xlink:href="#Helvetica-20"/>
      <use x="383.496094" xlink:href="#Helvetica-6f"/>
      <use x="439.111328" xlink:href="#Helvetica-66"/>
      <use x="466.894531" xlink:href="#Helvetica-20"/>
      <use x="494.677734" xlink:href="#Helvetica-53"/>
      <use x="561.376953" xlink:href="#Helvetica-75"/>
      <use x="616.992188" xlink:href="#Helvetica-62"/>
      <use x="672.607422" xlink:href="#Helvetica-75"/>
      <use x="728.222656" xlink:href="#Helvetica-6e"/>
      <use x="783.837891" xlink:href="#Helvetica-69"/>
      <use x="806.054688" xlink:href="#Helvetica-74"/>
      <use x="833.837891" xlink:href="#Helvetica-20"/>
      <use x="861.621094" xlink:href="#Helvetica-4d"/>
      <use x="944.921875" xlink:href="#Helvetica-69"/>
      <use x="967.138672" xlink:href="#Helvetica-73"/>
      <use x="1017.138672" xlink:href="#Helvetica-6d"/>
      <use x="1100.439453" xlink:href="#Helvetica-61"/>
      <use x="1156.054688" xlink:href="#Helvetica-74"/>
      <use x="1183.837891" xlink:href="#Helvetica-63"/>
      <use x="1233.837891" xlink:href="#Helvetica-68"/>
     </g>
    </g>
   </g>
   <g id="PolyCollection_1">
    <defs>
     <path d="M 110.787273 -110.566254 
L 110.787273 -94.29658 
L 115.707022 -96.008387 
L 120.626771 -93.24922 
L 125.54652 -93.801833 
L 130.46627 -95.340966 
L 135.386019 -92.517244 
L 140.305768 -93.415844 
L 145.225517 -95.397742 
L 150.145266 -96.317889 
L 155.065016 -96.870667 
L 159.984765 -96.867683 
L 164.904514 -90.201035 
L 169.824263 -98.296435 
L 174.744013 -93.645047 
L 179.663762 -93.332455 
L 184.583511 -101.608181 
L 189.50326 -94.63737 
L 194.423009 -98.829727 
L 199.342759 -96.878254 
L 204.262508 -94.603441 
L 209.182257 -97.510129 
L 214.102006 -96.790189 
L 219.021755 -96.720283 
L 223.941505 -98.03561 
L 228.861254 -104.709417 
L 233.781003 -97.468679 
L 238.700752 -107.089421 
L 243.620502 -103.272164 
L 248.540251 -101.173292 
L 253.46 -127.842628 
L 258.379749 -94.407648 
L 263.299498 -95.784687 
L 268.219248 -93.609272 
L 273.138997 -95.709477 
L 278.058746 -94.197237 
L 282.978495 -95.439525 
L 287.898245 -94.455917 
L 292.817994 -92.823939 
L 297.737743 -94.943473 
L 302.657492 -91.952651 
L 307.577241 -94.737336 
L 312.496991 -107.577785 
L 317.41674 -98.862748 
L 322.336489 -107.990472 
L 327.256238 -103.339195 
L 332.175987 -97.959665 
L 337.095737 -95.118783 
L 342.015486 -95.483887 
L 346.935235 -93.222532 
L 351.854984 -94.710469 
L 356.774734 -99.112317 
L 361.694483 -93.508255 
L 366.614232 -94.378711 
L 371.533981 -98.526677 
L 376.45373 -98.920796 
L 381.37348 -101.992205 
L 386.293229 -95.908292 
L 391.212978 -88.534563 
L 396.132727 -94.964025 
L 396.132727 -103.94003 
L 396.132727 -103.94003 
L 391.212978 -125.00594 
L 386.293229 -134.539643 
L 381.37348 -138.830798 
L 376.45373 -125.61848 
L 371.533981 -154.538902 
L 366.614232 -114.105599 
L 361.694483 -112.920561 
L 356.774734 -141.762545 
L 351.854984 -98.984406 
L 346.935235 -103.258475 
L 342.015486 -97.98383 
L 337.095737 -151.291865 
L 332.175987 -119.699508 
L 327.256238 -148.19534 
L 322.336489 -162.569229 
L 317.41674 -146.560991 
L 312.496991 -162.904247 
L 307.577241 -101.735365 
L 302.657492 -107.350587 
L 297.737743 -98.232942 
L 292.817994 -104.967712 
L 287.898245 -102.078003 
L 282.978495 -98.545378 
L 278.058746 -106.509936 
L 273.138997 -98.710398 
L 268.219248 -126.111923 
L 263.299498 -100.267942 
L 258.379749 -99.21113 
L 253.46 -218.774506 
L 248.540251 -157.453464 
L 243.620502 -166.362496 
L 238.700752 -157.512111 
L 233.781003 -141.844918 
L 228.861254 -132.457427 
L 223.941505 -151.198874 
L 219.021755 -116.816925 
L 214.102006 -137.791077 
L 209.182257 -120.902753 
L 204.262508 -117.708272 
L 199.342759 -122.238461 
L 194.423009 -138.694132 
L 189.50326 -134.181028 
L 184.583511 -156.049636 
L 179.663762 -146.610986 
L 174.744013 -142.671901 
L 169.824263 -132.090717 
L 164.904514 -122.460592 
L 159.984765 -119.469753 
L 155.065016 -106.977079 
L 150.145266 -105.954145 
L 145.225517 -115.984783 
L 140.305768 -119.883203 
L 135.386019 -129.026303 
L 130.46627 -105.420219 
L 125.54652 -116.972083 
L 120.626771 -104.807876 
L 115.707022 -101.981546 
L 110.787273 -110.566254 
z
" id="m920ff37e5f" style="stroke:#808080;stroke-opacity:0.2;"/>
    </defs>
    <g clip-path="url(#pea6843b6cc)">
     <use style="fill:#808080;fill-opacity:0.2;stroke:#808080;stroke-opacity:0.2;" x="0" xlink:href="#m920ff37e5f" y="288"/>
    </g>
   </g>
   <g id="PolyCollection_2">
    <defs>
     <path d="M 110.787273 -97.427681 
L 110.787273 -94.433733 
L 115.707022 -94.283574 
L 120.626771 -93.706818 
L 125.54652 -90.477683 
L 130.46627 -91.638119 
L 135.386019 -90.423377 
L 140.305768 -93.891015 
L 145.225517 -94.578253 
L 150.145266 -94.44242 
L 155.065016 -93.930709 
L 159.984765 -92.13048 
L 164.904514 -88.257888 
L 169.824263 -87.71768 
L 174.744013 -85.594864 
L 179.663762 -89.791563 
L 184.583511 -88.480553 
L 189.50326 -89.107429 
L 194.423009 -87.685701 
L 199.342759 -95.020816 
L 204.262508 -91.458621 
L 209.182257 -91.870867 
L 214.102006 -87.884911 
L 219.021755 -94.630682 
L 223.941505 -91.569822 
L 228.861254 -91.894141 
L 233.781003 -92.545246 
L 238.700752 -90.854518 
L 243.620502 -94.629437 
L 248.540251 -94.318872 
L 253.46 -88.970728 
L 258.379749 -94.331921 
L 263.299498 -93.725736 
L 268.219248 -94.442667 
L 273.138997 -94.092835 
L 278.058746 -94.483127 
L 282.978495 -93.975447 
L 287.898245 -94.294364 
L 292.817994 -94.584672 
L 297.737743 -93.95171 
L 302.657492 -94.552971 
L 307.577241 -94.516962 
L 312.496991 -94.653321 
L 317.41674 -94.75437 
L 322.336489 -94.713894 
L 327.256238 -94.436167 
L 332.175987 -94.649357 
L 337.095737 -94.630945 
L 342.015486 -93.905752 
L 346.935235 -88.675768 
L 351.854984 -94.264644 
L 356.774734 -92.534922 
L 361.694483 -89.475015 
L 366.614232 -97.153154 
L 371.533981 -89.251016 
L 376.45373 -88.264971 
L 381.37348 -87.255286 
L 386.293229 -85.568849 
L 391.212978 -84.711818 
L 396.132727 -89.107604 
L 396.132727 -141.416596 
L 396.132727 -141.416596 
L 391.212978 -131.078806 
L 386.293229 -128.709422 
L 381.37348 -124.137317 
L 376.45373 -134.828189 
L 371.533981 -124.953213 
L 366.614232 -161.043511 
L 361.694483 -140.825201 
L 356.774734 -160.252001 
L 351.854984 -97.962588 
L 346.935235 -114.962999 
L 342.015486 -98.844065 
L 337.095737 -97.469175 
L 332.175987 -97.539588 
L 327.256238 -99.799951 
L 322.336489 -97.928713 
L 317.41674 -96.736487 
L 312.496991 -97.525703 
L 307.577241 -97.278635 
L 302.657492 -97.167628 
L 297.737743 -100.687762 
L 292.817994 -97.046196 
L 287.898245 -97.979498 
L 282.978495 -99.487821 
L 278.058746 -97.409458 
L 273.138997 -99.780994 
L 268.219248 -97.562015 
L 263.299498 -99.58035 
L 258.379749 -98.650099 
L 253.46 -130.449604 
L 248.540251 -100.985542 
L 243.620502 -100.170492 
L 238.700752 -117.705904 
L 233.781003 -104.049701 
L 228.861254 -107.61418 
L 223.941505 -118.607905 
L 219.021755 -99.977267 
L 214.102006 -117.011179 
L 209.182257 -118.180204 
L 204.262508 -119.984886 
L 199.342759 -100.936434 
L 194.423009 -126.767735 
L 189.50326 -128.849224 
L 184.583511 -125.242639 
L 179.663762 -136.205029 
L 174.744013 -127.17056 
L 169.824263 -140.443584 
L 164.904514 -118.576986 
L 159.984765 -104.652056 
L 155.065016 -100.315945 
L 150.145266 -97.621653 
L 145.225517 -97.207202 
L 140.305768 -100.375877 
L 135.386019 -111.231064 
L 130.46627 -107.480659 
L 125.54652 -111.654254 
L 120.626771 -100.930945 
L 115.707022 -98.082715 
L 110.787273 -97.427681 
z
" id="m2c88b1d630" style="stroke:#ff7f0e;stroke-opacity:0.2;"/>
    </defs>
    <g clip-path="url(#pea6843b6cc)">
     <use style="fill:#ff7f0e;fill-opacity:0.2;stroke:#ff7f0e;stroke-opacity:0.2;" x="0" xlink:href="#m2c88b1d630" y="288"/>
    </g>
   </g>
   <g id="PolyCollection_3">
    <defs>
     <path d="M 110.787273 -121.584716 
L 110.787273 -102.296573 
L 115.707022 -115.49554 
L 120.626771 -102.648066 
L 125.54652 -106.300297 
L 130.46627 -97.87679 
L 135.386019 -105.144525 
L 140.305768 -105.660225 
L 145.225517 -105.084403 
L 150.145266 -100.592877 
L 155.065016 -98.923585 
L 159.984765 -104.239876 
L 164.904514 -103.26406 
L 169.824263 -101.026357 
L 174.744013 -110.551849 
L 179.663762 -127.329882 
L 184.583511 -107.758482 
L 189.50326 -109.754203 
L 194.423009 -144.665146 
L 199.342759 -112.25249 
L 204.262508 -111.146608 
L 209.182257 -120.232258 
L 214.102006 -110.594256 
L 219.021755 -106.510421 
L 223.941505 -112.251052 
L 228.861254 -115.566256 
L 233.781003 -115.016732 
L 238.700752 -127.010226 
L 243.620502 -128.667885 
L 248.540251 -139.051944 
L 253.46 -158.292716 
L 258.379749 -104.072587 
L 263.299498 -92.147182 
L 268.219248 -156.485182 
L 273.138997 -97.50347 
L 278.058746 -126.302361 
L 282.978495 -96.484599 
L 287.898245 -112.907686 
L 292.817994 -113.535614 
L 297.737743 -99.719314 
L 302.657492 -136.410899 
L 307.577241 -100.197644 
L 312.496991 -162.625533 
L 317.41674 -146.102186 
L 322.336489 -126.086045 
L 327.256238 -120.994724 
L 332.175987 -117.075759 
L 337.095737 -112.995807 
L 342.015486 -98.394291 
L 346.935235 -101.693465 
L 351.854984 -107.342487 
L 356.774734 -152.740982 
L 361.694483 -115.230287 
L 366.614232 -111.598971 
L 371.533981 -152.618599 
L 376.45373 -108.048693 
L 381.37348 -110.483748 
L 386.293229 -118.726477 
L 391.212978 -106.239899 
L 396.132727 -104.48707 
L 396.132727 -158.148127 
L 396.132727 -158.148127 
L 391.212978 -162.084966 
L 386.293229 -194.524763 
L 381.37348 -180.59592 
L 376.45373 -157.693058 
L 371.533981 -251.079883 
L 366.614232 -179.477495 
L 361.694483 -176.418199 
L 356.774734 -257.748182 
L 351.854984 -165.227055 
L 346.935235 -147.637669 
L 342.015486 -113.426169 
L 337.095737 -180.228047 
L 332.175987 -176.277943 
L 327.256238 -186.995242 
L 322.336489 -192.348117 
L 317.41674 -243.299497 
L 312.496991 -256.060302 
L 307.577241 -137.500808 
L 302.657492 -220.416247 
L 297.737743 -125.348469 
L 292.817994 -169.744967 
L 287.898245 -165.222806 
L 282.978495 -117.078583 
L 278.058746 -203.730759 
L 273.138997 -113.507869 
L 268.219248 -250.484579 
L 263.299498 -122.772284 
L 258.379749 -137.697149 
L 253.46 -250.50799 
L 248.540251 -222.471624 
L 243.620502 -204.064444 
L 238.700752 -209.78135 
L 233.781003 -170.487605 
L 228.861254 -186.988028 
L 223.941505 -173.295901 
L 219.021755 -172.186273 
L 214.102006 -176.723318 
L 209.182257 -196.831463 
L 204.262508 -171.85996 
L 199.342759 -171.80327 
L 194.423009 -242.545798 
L 189.50326 -179.738666 
L 184.583511 -153.717794 
L 179.663762 -205.57821 
L 174.744013 -176.703058 
L 169.824263 -151.399442 
L 164.904514 -141.48413 
L 159.984765 -146.437965 
L 155.065016 -148.862707 
L 150.145266 -152.007998 
L 145.225517 -158.244808 
L 140.305768 -124.97756 
L 135.386019 -127.809916 
L 130.46627 -133.618427 
L 125.54652 -150.842869 
L 120.626771 -136.594749 
L 115.707022 -181.013005 
L 110.787273 -121.584716 
z
" id="m522cbe065e" style="stroke:#1f77b4;stroke-opacity:0.2;"/>
    </defs>
    <g clip-path="url(#pea6843b6cc)">
     <use style="fill:#1f77b4;fill-opacity:0.2;stroke:#1f77b4;stroke-opacity:0.2;" x="0" xlink:href="#m522cbe065e" y="288"/>
    </g>
   </g>
   <g id="line2d_10">
    <path clip-path="url(#pea6843b6cc)" d="M 110.787273 185.568583 
L 115.707022 189.005033 
L 120.626771 188.971452 
L 125.54652 182.613042 
L 130.46627 187.619408 
L 135.386019 177.228227 
L 140.305768 181.350476 
L 145.225517 182.308738 
L 150.145266 186.863983 
L 155.065016 186.076127 
L 159.984765 179.831282 
L 164.904514 181.669187 
L 169.824263 172.806424 
L 174.744013 169.841526 
L 179.663762 168.02828 
L 184.583511 159.171092 
L 189.50326 173.590801 
L 194.423009 169.23807 
L 199.342759 178.441643 
L 204.262508 181.844144 
L 209.182257 178.793559 
L 214.102006 170.709367 
L 219.021755 181.231396 
L 223.941505 163.382758 
L 228.861254 169.416578 
L 233.781003 168.343201 
L 238.700752 155.699234 
L 243.620502 153.18267 
L 248.540251 158.686622 
L 253.46 114.691433 
L 258.379749 191.190611 
L 263.299498 189.973686 
L 268.219248 178.139403 
L 273.138997 190.790062 
L 278.058746 187.646413 
L 282.978495 191.007548 
L 287.898245 189.73304 
L 292.817994 189.104175 
L 297.737743 191.411792 
L 302.657492 188.348381 
L 307.577241 189.763649 
L 312.496991 152.758984 
L 317.41674 165.28813 
L 322.336489 152.720149 
L 327.256238 162.232733 
L 332.175987 179.170414 
L 337.095737 164.794676 
L 342.015486 191.266142 
L 346.935235 189.759496 
L 351.854984 191.152562 
L 356.774734 167.562569 
L 361.694483 184.785592 
L 366.614232 183.757845 
L 371.533981 161.46721 
L 376.45373 175.730362 
L 381.37348 167.588498 
L 386.293229 172.776033 
L 391.212978 181.229749 
L 396.132727 188.547972 
" style="fill:none;stroke:#808080;stroke-linecap:round;stroke-opacity:0.8;stroke-width:0.7;"/>
    <defs>
     <path d="M -0 2.5 
L 2.5 -2.5 
L -2.5 -2.5 
z
" id="mc19b93e96e" style="stroke:#000000;stroke-linejoin:miter;stroke-opacity:0.8;"/>
    </defs>
    <g clip-path="url(#pea6843b6cc)">
     <use style="fill:#808080;fill-opacity:0.8;stroke:#000000;stroke-linejoin:miter;stroke-opacity:0.8;" x="110.787273" xlink:href="#mc19b93e96e" y="185.568583"/>
     <use style="fill:#808080;fill-opacity:0.8;stroke:#000000;stroke-linejoin:miter;stroke-opacity:0.8;" x="115.707022" xlink:href="#mc19b93e96e" y="189.005033"/>
     <use style="fill:#808080;fill-opacity:0.8;stroke:#000000;stroke-linejoin:miter;stroke-opacity:0.8;" x="120.626771" xlink:href="#mc19b93e96e" y="188.971452"/>
     <use style="fill:#808080;fill-opacity:0.8;stroke:#000000;stroke-linejoin:miter;stroke-opacity:0.8;" x="125.54652" xlink:href="#mc19b93e96e" y="182.613042"/>
     <use style="fill:#808080;fill-opacity:0.8;stroke:#000000;stroke-linejoin:miter;stroke-opacity:0.8;" x="130.46627" xlink:href="#mc19b93e96e" y="187.619408"/>
     <use style="fill:#808080;fill-opacity:0.8;stroke:#000000;stroke-linejoin:miter;stroke-opacity:0.8;" x="135.386019" xlink:href="#mc19b93e96e" y="177.228227"/>
     <use style="fill:#808080;fill-opacity:0.8;stroke:#000000;stroke-linejoin:miter;stroke-opacity:0.8;" x="140.305768" xlink:href="#mc19b93e96e" y="181.350476"/>
     <use style="fill:#808080;fill-opacity:0.8;stroke:#000000;stroke-linejoin:miter;stroke-opacity:0.8;" x="145.225517" xlink:href="#mc19b93e96e" y="182.308738"/>
     <use style="fill:#808080;fill-opacity:0.8;stroke:#000000;stroke-linejoin:miter;stroke-opacity:0.8;" x="150.145266" xlink:href="#mc19b93e96e" y="186.863983"/>
     <use style="fill:#808080;fill-opacity:0.8;stroke:#000000;stroke-linejoin:miter;stroke-opacity:0.8;" x="155.065016" xlink:href="#mc19b93e96e" y="186.076127"/>
     <use style="fill:#808080;fill-opacity:0.8;stroke:#000000;stroke-linejoin:miter;stroke-opacity:0.8;" x="159.984765" xlink:href="#mc19b93e96e" y="179.831282"/>
     <use style="fill:#808080;fill-opacity:0.8;stroke:#000000;stroke-linejoin:miter;stroke-opacity:0.8;" x="164.904514" xlink:href="#mc19b93e96e" y="181.669187"/>
     <use style="fill:#808080;fill-opacity:0.8;stroke:#000000;stroke-linejoin:miter;stroke-opacity:0.8;" x="169.824263" xlink:href="#mc19b93e96e" y="172.806424"/>
     <use style="fill:#808080;fill-opacity:0.8;stroke:#000000;stroke-linejoin:miter;stroke-opacity:0.8;" x="174.744013" xlink:href="#mc19b93e96e" y="169.841526"/>
     <use style="fill:#808080;fill-opacity:0.8;stroke:#000000;stroke-linejoin:miter;stroke-opacity:0.8;" x="179.663762" xlink:href="#mc19b93e96e" y="168.02828"/>
     <use style="fill:#808080;fill-opacity:0.8;stroke:#000000;stroke-linejoin:miter;stroke-opacity:0.8;" x="184.583511" xlink:href="#mc19b93e96e" y="159.171092"/>
     <use style="fill:#808080;fill-opacity:0.8;stroke:#000000;stroke-linejoin:miter;stroke-opacity:0.8;" x="189.50326" xlink:href="#mc19b93e96e" y="173.590801"/>
     <use style="fill:#808080;fill-opacity:0.8;stroke:#000000;stroke-linejoin:miter;stroke-opacity:0.8;" x="194.423009" xlink:href="#mc19b93e96e" y="169.23807"/>
     <use style="fill:#808080;fill-opacity:0.8;stroke:#000000;stroke-linejoin:miter;stroke-opacity:0.8;" x="199.342759" xlink:href="#mc19b93e96e" y="178.441643"/>
     <use style="fill:#808080;fill-opacity:0.8;stroke:#000000;stroke-linejoin:miter;stroke-opacity:0.8;" x="204.262508" xlink:href="#mc19b93e96e" y="181.844144"/>
     <use style="fill:#808080;fill-opacity:0.8;stroke:#000000;stroke-linejoin:miter;stroke-opacity:0.8;" x="209.182257" xlink:href="#mc19b93e96e" y="178.793559"/>
     <use style="fill:#808080;fill-opacity:0.8;stroke:#000000;stroke-linejoin:miter;stroke-opacity:0.8;" x="214.102006" xlink:href="#mc19b93e96e" y="170.709367"/>
     <use style="fill:#808080;fill-opacity:0.8;stroke:#000000;stroke-linejoin:miter;stroke-opacity:0.8;" x="219.021755" xlink:href="#mc19b93e96e" y="181.231396"/>
     <use style="fill:#808080;fill-opacity:0.8;stroke:#000000;stroke-linejoin:miter;stroke-opacity:0.8;" x="223.941505" xlink:href="#mc19b93e96e" y="163.382758"/>
     <use style="fill:#808080;fill-opacity:0.8;stroke:#000000;stroke-linejoin:miter;stroke-opacity:0.8;" x="228.861254" xlink:href="#mc19b93e96e" y="169.416578"/>
     <use style="fill:#808080;fill-opacity:0.8;stroke:#000000;stroke-linejoin:miter;stroke-opacity:0.8;" x="233.781003" xlink:href="#mc19b93e96e" y="168.343201"/>
     <use style="fill:#808080;fill-opacity:0.8;stroke:#000000;stroke-linejoin:miter;stroke-opacity:0.8;" x="238.700752" xlink:href="#mc19b93e96e" y="155.699234"/>
     <use style="fill:#808080;fill-opacity:0.8;stroke:#000000;stroke-linejoin:miter;stroke-opacity:0.8;" x="243.620502" xlink:href="#mc19b93e96e" y="153.18267"/>
     <use style="fill:#808080;fill-opacity:0.8;stroke:#000000;stroke-linejoin:miter;stroke-opacity:0.8;" x="248.540251" xlink:href="#mc19b93e96e" y="158.686622"/>
     <use style="fill:#808080;fill-opacity:0.8;stroke:#000000;stroke-linejoin:miter;stroke-opacity:0.8;" x="253.46" xlink:href="#mc19b93e96e" y="114.691433"/>
     <use style="fill:#808080;fill-opacity:0.8;stroke:#000000;stroke-linejoin:miter;stroke-opacity:0.8;" x="258.379749" xlink:href="#mc19b93e96e" y="191.190611"/>
     <use style="fill:#808080;fill-opacity:0.8;stroke:#000000;stroke-linejoin:miter;stroke-opacity:0.8;" x="263.299498" xlink:href="#mc19b93e96e" y="189.973686"/>
     <use style="fill:#808080;fill-opacity:0.8;stroke:#000000;stroke-linejoin:miter;stroke-opacity:0.8;" x="268.219248" xlink:href="#mc19b93e96e" y="178.139403"/>
     <use style="fill:#808080;fill-opacity:0.8;stroke:#000000;stroke-linejoin:miter;stroke-opacity:0.8;" x="273.138997" xlink:href="#mc19b93e96e" y="190.790062"/>
     <use style="fill:#808080;fill-opacity:0.8;stroke:#000000;stroke-linejoin:miter;stroke-opacity:0.8;" x="278.058746" xlink:href="#mc19b93e96e" y="187.646413"/>
     <use style="fill:#808080;fill-opacity:0.8;stroke:#000000;stroke-linejoin:miter;stroke-opacity:0.8;" x="282.978495" xlink:href="#mc19b93e96e" y="191.007548"/>
     <use style="fill:#808080;fill-opacity:0.8;stroke:#000000;stroke-linejoin:miter;stroke-opacity:0.8;" x="287.898245" xlink:href="#mc19b93e96e" y="189.73304"/>
     <use style="fill:#808080;fill-opacity:0.8;stroke:#000000;stroke-linejoin:miter;stroke-opacity:0.8;" x="292.817994" xlink:href="#mc19b93e96e" y="189.104175"/>
     <use style="fill:#808080;fill-opacity:0.8;stroke:#000000;stroke-linejoin:miter;stroke-opacity:0.8;" x="297.737743" xlink:href="#mc19b93e96e" y="191.411792"/>
     <use style="fill:#808080;fill-opacity:0.8;stroke:#000000;stroke-linejoin:miter;stroke-opacity:0.8;" x="302.657492" xlink:href="#mc19b93e96e" y="188.348381"/>
     <use style="fill:#808080;fill-opacity:0.8;stroke:#000000;stroke-linejoin:miter;stroke-opacity:0.8;" x="307.577241" xlink:href="#mc19b93e96e" y="189.763649"/>
     <use style="fill:#808080;fill-opacity:0.8;stroke:#000000;stroke-linejoin:miter;stroke-opacity:0.8;" x="312.496991" xlink:href="#mc19b93e96e" y="152.758984"/>
     <use style="fill:#808080;fill-opacity:0.8;stroke:#000000;stroke-linejoin:miter;stroke-opacity:0.8;" x="317.41674" xlink:href="#mc19b93e96e" y="165.28813"/>
     <use style="fill:#808080;fill-opacity:0.8;stroke:#000000;stroke-linejoin:miter;stroke-opacity:0.8;" x="322.336489" xlink:href="#mc19b93e96e" y="152.720149"/>
     <use style="fill:#808080;fill-opacity:0.8;stroke:#000000;stroke-linejoin:miter;stroke-opacity:0.8;" x="327.256238" xlink:href="#mc19b93e96e" y="162.232733"/>
     <use style="fill:#808080;fill-opacity:0.8;stroke:#000000;stroke-linejoin:miter;stroke-opacity:0.8;" x="332.175987" xlink:href="#mc19b93e96e" y="179.170414"/>
     <use style="fill:#808080;fill-opacity:0.8;stroke:#000000;stroke-linejoin:miter;stroke-opacity:0.8;" x="337.095737" xlink:href="#mc19b93e96e" y="164.794676"/>
     <use style="fill:#808080;fill-opacity:0.8;stroke:#000000;stroke-linejoin:miter;stroke-opacity:0.8;" x="342.015486" xlink:href="#mc19b93e96e" y="191.266142"/>
     <use style="fill:#808080;fill-opacity:0.8;stroke:#000000;stroke-linejoin:miter;stroke-opacity:0.8;" x="346.935235" xlink:href="#mc19b93e96e" y="189.759496"/>
     <use style="fill:#808080;fill-opacity:0.8;stroke:#000000;stroke-linejoin:miter;stroke-opacity:0.8;" x="351.854984" xlink:href="#mc19b93e96e" y="191.152562"/>
     <use style="fill:#808080;fill-opacity:0.8;stroke:#000000;stroke-linejoin:miter;stroke-opacity:0.8;" x="356.774734" xlink:href="#mc19b93e96e" y="167.562569"/>
     <use style="fill:#808080;fill-opacity:0.8;stroke:#000000;stroke-linejoin:miter;stroke-opacity:0.8;" x="361.694483" xlink:href="#mc19b93e96e" y="184.785592"/>
     <use style="fill:#808080;fill-opacity:0.8;stroke:#000000;stroke-linejoin:miter;stroke-opacity:0.8;" x="366.614232" xlink:href="#mc19b93e96e" y="183.757845"/>
     <use style="fill:#808080;fill-opacity:0.8;stroke:#000000;stroke-linejoin:miter;stroke-opacity:0.8;" x="371.533981" xlink:href="#mc19b93e96e" y="161.46721"/>
     <use style="fill:#808080;fill-opacity:0.8;stroke:#000000;stroke-linejoin:miter;stroke-opacity:0.8;" x="376.45373" xlink:href="#mc19b93e96e" y="175.730362"/>
     <use style="fill:#808080;fill-opacity:0.8;stroke:#000000;stroke-linejoin:miter;stroke-opacity:0.8;" x="381.37348" xlink:href="#mc19b93e96e" y="167.588498"/>
     <use style="fill:#808080;fill-opacity:0.8;stroke:#000000;stroke-linejoin:miter;stroke-opacity:0.8;" x="386.293229" xlink:href="#mc19b93e96e" y="172.776033"/>
     <use style="fill:#808080;fill-opacity:0.8;stroke:#000000;stroke-linejoin:miter;stroke-opacity:0.8;" x="391.212978" xlink:href="#mc19b93e96e" y="181.229749"/>
     <use style="fill:#808080;fill-opacity:0.8;stroke:#000000;stroke-linejoin:miter;stroke-opacity:0.8;" x="396.132727" xlink:href="#mc19b93e96e" y="188.547972"/>
    </g>
   </g>
   <g id="line2d_11">
    <path clip-path="url(#pea6843b6cc)" d="M 110.787273 185.568583 
L 115.707022 189.005033 
L 120.626771 188.971452 
L 125.54652 182.613042 
L 130.46627 187.619408 
L 135.386019 177.228227 
L 140.305768 181.350476 
L 145.225517 182.308738 
L 150.145266 186.863983 
L 155.065016 186.076127 
L 159.984765 179.831282 
L 164.904514 181.669187 
L 169.824263 172.806424 
L 174.744013 169.841526 
L 179.663762 168.02828 
L 184.583511 159.171092 
L 189.50326 173.590801 
L 194.423009 169.23807 
L 199.342759 178.441643 
L 204.262508 181.844144 
L 209.182257 178.793559 
L 214.102006 170.709367 
L 219.021755 181.231396 
L 223.941505 163.382758 
L 228.861254 169.416578 
L 233.781003 168.343201 
L 238.700752 155.699234 
L 243.620502 153.18267 
L 248.540251 158.686622 
L 253.46 114.691433 
L 258.379749 191.190611 
L 263.299498 189.973686 
L 268.219248 178.139403 
L 273.138997 190.790062 
L 278.058746 187.646413 
L 282.978495 191.007548 
L 287.898245 189.73304 
L 292.817994 189.104175 
L 297.737743 191.411792 
L 302.657492 188.348381 
L 307.577241 189.763649 
L 312.496991 152.758984 
L 317.41674 165.28813 
L 322.336489 152.720149 
L 327.256238 162.232733 
L 332.175987 179.170414 
L 337.095737 164.794676 
L 342.015486 191.266142 
L 346.935235 189.759496 
L 351.854984 191.152562 
L 356.774734 167.562569 
L 361.694483 184.785592 
L 366.614232 183.757845 
L 371.533981 161.46721 
L 376.45373 175.730362 
L 381.37348 167.588498 
L 386.293229 172.776033 
L 391.212978 181.229749 
L 396.132727 188.547972 
" style="fill:none;stroke:#808080;stroke-linecap:round;stroke-width:0.7;"/>
   </g>
   <g id="line2d_12">
    <path clip-path="url(#pea6843b6cc)" d="M 110.787273 193.70342 
L 115.707022 191.991613 
L 120.626771 194.75078 
L 125.54652 194.198167 
L 130.46627 192.659034 
L 135.386019 195.482756 
L 140.305768 194.584156 
L 145.225517 192.602258 
L 150.145266 191.682111 
L 155.065016 191.129333 
L 159.984765 191.132317 
L 164.904514 197.798965 
L 169.824263 189.703565 
L 174.744013 194.354953 
L 179.663762 194.667545 
L 184.583511 186.391819 
L 189.50326 193.36263 
L 194.423009 189.170273 
L 199.342759 191.121746 
L 204.262508 193.396559 
L 209.182257 190.489871 
L 214.102006 191.209811 
L 219.021755 191.279717 
L 223.941505 189.96439 
L 228.861254 183.290583 
L 233.781003 190.531321 
L 238.700752 180.910579 
L 243.620502 184.727836 
L 248.540251 186.826708 
L 253.46 160.157372 
L 258.379749 193.592352 
L 263.299498 192.215313 
L 268.219248 194.390728 
L 273.138997 192.290523 
L 278.058746 193.802763 
L 282.978495 192.560475 
L 287.898245 193.544083 
L 292.817994 195.176061 
L 297.737743 193.056527 
L 302.657492 196.047349 
L 307.577241 193.262664 
L 312.496991 180.422215 
L 317.41674 189.137252 
L 322.336489 180.009528 
L 327.256238 184.660805 
L 332.175987 190.040335 
L 337.095737 192.881217 
L 342.015486 192.516113 
L 346.935235 194.777468 
L 351.854984 193.289531 
L 356.774734 188.887683 
L 361.694483 194.491745 
L 366.614232 193.621289 
L 371.533981 189.473323 
L 376.45373 189.079204 
L 381.37348 186.007795 
L 386.293229 192.091708 
L 391.212978 199.465437 
L 396.132727 193.035975 
" style="fill:none;stroke:#808080;stroke-dasharray:1.85,0.8;stroke-dashoffset:0;stroke-width:0.5;"/>
   </g>
   <g id="line2d_13">
    <path clip-path="url(#pea6843b6cc)" d="M 110.787273 177.433746 
L 115.707022 186.018454 
L 120.626771 183.192124 
L 125.54652 171.027917 
L 130.46627 182.579781 
L 135.386019 158.973697 
L 140.305768 168.116797 
L 145.225517 172.015217 
L 150.145266 182.045855 
L 155.065016 181.022921 
L 159.984765 168.530247 
L 164.904514 165.539408 
L 169.824263 155.909283 
L 174.744013 145.328099 
L 179.663762 141.389014 
L 184.583511 131.950364 
L 189.50326 153.818972 
L 194.423009 149.305868 
L 199.342759 165.761539 
L 204.262508 170.291728 
L 209.182257 167.097247 
L 214.102006 150.208923 
L 219.021755 171.183075 
L 223.941505 136.801126 
L 228.861254 155.542573 
L 233.781003 146.155082 
L 238.700752 130.487889 
L 243.620502 121.637504 
L 248.540251 130.546536 
L 253.46 69.225494 
L 258.379749 188.78887 
L 263.299498 187.732058 
L 268.219248 161.888077 
L 273.138997 189.289602 
L 278.058746 181.490064 
L 282.978495 189.454622 
L 287.898245 185.921997 
L 292.817994 183.032288 
L 297.737743 189.767058 
L 302.657492 180.649413 
L 307.577241 186.264635 
L 312.496991 125.095753 
L 317.41674 141.439009 
L 322.336489 125.430771 
L 327.256238 139.80466 
L 332.175987 168.300492 
L 337.095737 136.708135 
L 342.015486 190.01617 
L 346.935235 184.741525 
L 351.854984 189.015594 
L 356.774734 146.237455 
L 361.694483 175.079439 
L 366.614232 173.894401 
L 371.533981 133.461098 
L 376.45373 162.38152 
L 381.37348 149.169202 
L 386.293229 153.460357 
L 391.212978 162.99406 
L 396.132727 184.05997 
" style="fill:none;stroke:#808080;stroke-dasharray:1.85,0.8;stroke-dashoffset:0;stroke-width:0.5;"/>
   </g>
   <g id="line2d_14">
    <path clip-path="url(#pea6843b6cc)" d="M 110.787273 192.069293 
L 115.707022 191.816855 
L 120.626771 190.681118 
L 125.54652 186.934031 
L 130.46627 188.440611 
L 135.386019 187.172779 
L 140.305768 190.866554 
L 145.225517 192.107272 
L 150.145266 191.967963 
L 155.065016 190.876673 
L 159.984765 189.608732 
L 164.904514 184.582563 
L 169.824263 173.919368 
L 174.744013 181.617288 
L 179.663762 175.001704 
L 184.583511 181.138404 
L 189.50326 179.021673 
L 194.423009 180.773282 
L 199.342759 190.021375 
L 204.262508 182.278247 
L 209.182257 182.974464 
L 214.102006 185.551955 
L 219.021755 190.696026 
L 223.941505 182.911136 
L 228.861254 188.24584 
L 233.781003 189.702527 
L 238.700752 183.719789 
L 243.620502 190.600036 
L 248.540251 190.347793 
L 253.46 178.289834 
L 258.379749 191.50899 
L 263.299498 191.346957 
L 268.219248 191.997659 
L 273.138997 191.063085 
L 278.058746 192.053708 
L 282.978495 191.268366 
L 287.898245 191.863069 
L 292.817994 192.184566 
L 297.737743 190.680264 
L 302.657492 192.139701 
L 307.577241 192.102201 
L 312.496991 191.910488 
L 317.41674 192.254571 
L 322.336489 191.678696 
L 327.256238 190.881941 
L 332.175987 191.905527 
L 337.095737 191.94994 
L 342.015486 191.625092 
L 346.935235 186.180616 
L 351.854984 191.886384 
L 356.774734 161.606539 
L 361.694483 172.849892 
L 366.614232 158.901667 
L 371.533981 180.897885 
L 376.45373 176.45342 
L 381.37348 182.303699 
L 386.293229 180.860865 
L 391.212978 180.104688 
L 396.132727 172.7379 
" style="fill:none;stroke:#ff7f0e;stroke-linecap:round;stroke-opacity:0.8;stroke-width:0.7;"/>
    <defs>
     <path d="M 0 -2.5 
L -2.5 2.5 
L 2.5 2.5 
z
" id="m6b2579f66e" style="stroke:#000000;stroke-linejoin:miter;stroke-opacity:0.8;"/>
    </defs>
    <g clip-path="url(#pea6843b6cc)">
     <use style="fill:#ff7f0e;fill-opacity:0.8;stroke:#000000;stroke-linejoin:miter;stroke-opacity:0.8;" x="110.787273" xlink:href="#m6b2579f66e" y="192.069293"/>
     <use style="fill:#ff7f0e;fill-opacity:0.8;stroke:#000000;stroke-linejoin:miter;stroke-opacity:0.8;" x="115.707022" xlink:href="#m6b2579f66e" y="191.816855"/>
     <use style="fill:#ff7f0e;fill-opacity:0.8;stroke:#000000;stroke-linejoin:miter;stroke-opacity:0.8;" x="120.626771" xlink:href="#m6b2579f66e" y="190.681118"/>
     <use style="fill:#ff7f0e;fill-opacity:0.8;stroke:#000000;stroke-linejoin:miter;stroke-opacity:0.8;" x="125.54652" xlink:href="#m6b2579f66e" y="186.934031"/>
     <use style="fill:#ff7f0e;fill-opacity:0.8;stroke:#000000;stroke-linejoin:miter;stroke-opacity:0.8;" x="130.46627" xlink:href="#m6b2579f66e" y="188.440611"/>
     <use style="fill:#ff7f0e;fill-opacity:0.8;stroke:#000000;stroke-linejoin:miter;stroke-opacity:0.8;" x="135.386019" xlink:href="#m6b2579f66e" y="187.172779"/>
     <use style="fill:#ff7f0e;fill-opacity:0.8;stroke:#000000;stroke-linejoin:miter;stroke-opacity:0.8;" x="140.305768" xlink:href="#m6b2579f66e" y="190.866554"/>
     <use style="fill:#ff7f0e;fill-opacity:0.8;stroke:#000000;stroke-linejoin:miter;stroke-opacity:0.8;" x="145.225517" xlink:href="#m6b2579f66e" y="192.107272"/>
     <use style="fill:#ff7f0e;fill-opacity:0.8;stroke:#000000;stroke-linejoin:miter;stroke-opacity:0.8;" x="150.145266" xlink:href="#m6b2579f66e" y="191.967963"/>
     <use style="fill:#ff7f0e;fill-opacity:0.8;stroke:#000000;stroke-linejoin:miter;stroke-opacity:0.8;" x="155.065016" xlink:href="#m6b2579f66e" y="190.876673"/>
     <use style="fill:#ff7f0e;fill-opacity:0.8;stroke:#000000;stroke-linejoin:miter;stroke-opacity:0.8;" x="159.984765" xlink:href="#m6b2579f66e" y="189.608732"/>
     <use style="fill:#ff7f0e;fill-opacity:0.8;stroke:#000000;stroke-linejoin:miter;stroke-opacity:0.8;" x="164.904514" xlink:href="#m6b2579f66e" y="184.582563"/>
     <use style="fill:#ff7f0e;fill-opacity:0.8;stroke:#000000;stroke-linejoin:miter;stroke-opacity:0.8;" x="169.824263" xlink:href="#m6b2579f66e" y="173.919368"/>
     <use style="fill:#ff7f0e;fill-opacity:0.8;stroke:#000000;stroke-linejoin:miter;stroke-opacity:0.8;" x="174.744013" xlink:href="#m6b2579f66e" y="181.617288"/>
     <use style="fill:#ff7f0e;fill-opacity:0.8;stroke:#000000;stroke-linejoin:miter;stroke-opacity:0.8;" x="179.663762" xlink:href="#m6b2579f66e" y="175.001704"/>
     <use style="fill:#ff7f0e;fill-opacity:0.8;stroke:#000000;stroke-linejoin:miter;stroke-opacity:0.8;" x="184.583511" xlink:href="#m6b2579f66e" y="181.138404"/>
     <use style="fill:#ff7f0e;fill-opacity:0.8;stroke:#000000;stroke-linejoin:miter;stroke-opacity:0.8;" x="189.50326" xlink:href="#m6b2579f66e" y="179.021673"/>
     <use style="fill:#ff7f0e;fill-opacity:0.8;stroke:#000000;stroke-linejoin:miter;stroke-opacity:0.8;" x="194.423009" xlink:href="#m6b2579f66e" y="180.773282"/>
     <use style="fill:#ff7f0e;fill-opacity:0.8;stroke:#000000;stroke-linejoin:miter;stroke-opacity:0.8;" x="199.342759" xlink:href="#m6b2579f66e" y="190.021375"/>
     <use style="fill:#ff7f0e;fill-opacity:0.8;stroke:#000000;stroke-linejoin:miter;stroke-opacity:0.8;" x="204.262508" xlink:href="#m6b2579f66e" y="182.278247"/>
     <use style="fill:#ff7f0e;fill-opacity:0.8;stroke:#000000;stroke-linejoin:miter;stroke-opacity:0.8;" x="209.182257" xlink:href="#m6b2579f66e" y="182.974464"/>
     <use style="fill:#ff7f0e;fill-opacity:0.8;stroke:#000000;stroke-linejoin:miter;stroke-opacity:0.8;" x="214.102006" xlink:href="#m6b2579f66e" y="185.551955"/>
     <use style="fill:#ff7f0e;fill-opacity:0.8;stroke:#000000;stroke-linejoin:miter;stroke-opacity:0.8;" x="219.021755" xlink:href="#m6b2579f66e" y="190.696026"/>
     <use style="fill:#ff7f0e;fill-opacity:0.8;stroke:#000000;stroke-linejoin:miter;stroke-opacity:0.8;" x="223.941505" xlink:href="#m6b2579f66e" y="182.911136"/>
     <use style="fill:#ff7f0e;fill-opacity:0.8;stroke:#000000;stroke-linejoin:miter;stroke-opacity:0.8;" x="228.861254" xlink:href="#m6b2579f66e" y="188.24584"/>
     <use style="fill:#ff7f0e;fill-opacity:0.8;stroke:#000000;stroke-linejoin:miter;stroke-opacity:0.8;" x="233.781003" xlink:href="#m6b2579f66e" y="189.702527"/>
     <use style="fill:#ff7f0e;fill-opacity:0.8;stroke:#000000;stroke-linejoin:miter;stroke-opacity:0.8;" x="238.700752" xlink:href="#m6b2579f66e" y="183.719789"/>
     <use style="fill:#ff7f0e;fill-opacity:0.8;stroke:#000000;stroke-linejoin:miter;stroke-opacity:0.8;" x="243.620502" xlink:href="#m6b2579f66e" y="190.600036"/>
     <use style="fill:#ff7f0e;fill-opacity:0.8;stroke:#000000;stroke-linejoin:miter;stroke-opacity:0.8;" x="248.540251" xlink:href="#m6b2579f66e" y="190.347793"/>
     <use style="fill:#ff7f0e;fill-opacity:0.8;stroke:#000000;stroke-linejoin:miter;stroke-opacity:0.8;" x="253.46" xlink:href="#m6b2579f66e" y="178.289834"/>
     <use style="fill:#ff7f0e;fill-opacity:0.8;stroke:#000000;stroke-linejoin:miter;stroke-opacity:0.8;" x="258.379749" xlink:href="#m6b2579f66e" y="191.50899"/>
     <use style="fill:#ff7f0e;fill-opacity:0.8;stroke:#000000;stroke-linejoin:miter;stroke-opacity:0.8;" x="263.299498" xlink:href="#m6b2579f66e" y="191.346957"/>
     <use style="fill:#ff7f0e;fill-opacity:0.8;stroke:#000000;stroke-linejoin:miter;stroke-opacity:0.8;" x="268.219248" xlink:href="#m6b2579f66e" y="191.997659"/>
     <use style="fill:#ff7f0e;fill-opacity:0.8;stroke:#000000;stroke-linejoin:miter;stroke-opacity:0.8;" x="273.138997" xlink:href="#m6b2579f66e" y="191.063085"/>
     <use style="fill:#ff7f0e;fill-opacity:0.8;stroke:#000000;stroke-linejoin:miter;stroke-opacity:0.8;" x="278.058746" xlink:href="#m6b2579f66e" y="192.053708"/>
     <use style="fill:#ff7f0e;fill-opacity:0.8;stroke:#000000;stroke-linejoin:miter;stroke-opacity:0.8;" x="282.978495" xlink:href="#m6b2579f66e" y="191.268366"/>
     <use style="fill:#ff7f0e;fill-opacity:0.8;stroke:#000000;stroke-linejoin:miter;stroke-opacity:0.8;" x="287.898245" xlink:href="#m6b2579f66e" y="191.863069"/>
     <use style="fill:#ff7f0e;fill-opacity:0.8;stroke:#000000;stroke-linejoin:miter;stroke-opacity:0.8;" x="292.817994" xlink:href="#m6b2579f66e" y="192.184566"/>
     <use style="fill:#ff7f0e;fill-opacity:0.8;stroke:#000000;stroke-linejoin:miter;stroke-opacity:0.8;" x="297.737743" xlink:href="#m6b2579f66e" y="190.680264"/>
     <use style="fill:#ff7f0e;fill-opacity:0.8;stroke:#000000;stroke-linejoin:miter;stroke-opacity:0.8;" x="302.657492" xlink:href="#m6b2579f66e" y="192.139701"/>
     <use style="fill:#ff7f0e;fill-opacity:0.8;stroke:#000000;stroke-linejoin:miter;stroke-opacity:0.8;" x="307.577241" xlink:href="#m6b2579f66e" y="192.102201"/>
     <use style="fill:#ff7f0e;fill-opacity:0.8;stroke:#000000;stroke-linejoin:miter;stroke-opacity:0.8;" x="312.496991" xlink:href="#m6b2579f66e" y="191.910488"/>
     <use style="fill:#ff7f0e;fill-opacity:0.8;stroke:#000000;stroke-linejoin:miter;stroke-opacity:0.8;" x="317.41674" xlink:href="#m6b2579f66e" y="192.254571"/>
     <use style="fill:#ff7f0e;fill-opacity:0.8;stroke:#000000;stroke-linejoin:miter;stroke-opacity:0.8;" x="322.336489" xlink:href="#m6b2579f66e" y="191.678696"/>
     <use style="fill:#ff7f0e;fill-opacity:0.8;stroke:#000000;stroke-linejoin:miter;stroke-opacity:0.8;" x="327.256238" xlink:href="#m6b2579f66e" y="190.881941"/>
     <use style="fill:#ff7f0e;fill-opacity:0.8;stroke:#000000;stroke-linejoin:miter;stroke-opacity:0.8;" x="332.175987" xlink:href="#m6b2579f66e" y="191.905527"/>
     <use style="fill:#ff7f0e;fill-opacity:0.8;stroke:#000000;stroke-linejoin:miter;stroke-opacity:0.8;" x="337.095737" xlink:href="#m6b2579f66e" y="191.94994"/>
     <use style="fill:#ff7f0e;fill-opacity:0.8;stroke:#000000;stroke-linejoin:miter;stroke-opacity:0.8;" x="342.015486" xlink:href="#m6b2579f66e" y="191.625092"/>
     <use style="fill:#ff7f0e;fill-opacity:0.8;stroke:#000000;stroke-linejoin:miter;stroke-opacity:0.8;" x="346.935235" xlink:href="#m6b2579f66e" y="186.180616"/>
     <use style="fill:#ff7f0e;fill-opacity:0.8;stroke:#000000;stroke-linejoin:miter;stroke-opacity:0.8;" x="351.854984" xlink:href="#m6b2579f66e" y="191.886384"/>
     <use style="fill:#ff7f0e;fill-opacity:0.8;stroke:#000000;stroke-linejoin:miter;stroke-opacity:0.8;" x="356.774734" xlink:href="#m6b2579f66e" y="161.606539"/>
     <use style="fill:#ff7f0e;fill-opacity:0.8;stroke:#000000;stroke-linejoin:miter;stroke-opacity:0.8;" x="361.694483" xlink:href="#m6b2579f66e" y="172.849892"/>
     <use style="fill:#ff7f0e;fill-opacity:0.8;stroke:#000000;stroke-linejoin:miter;stroke-opacity:0.8;" x="366.614232" xlink:href="#m6b2579f66e" y="158.901667"/>
     <use style="fill:#ff7f0e;fill-opacity:0.8;stroke:#000000;stroke-linejoin:miter;stroke-opacity:0.8;" x="371.533981" xlink:href="#m6b2579f66e" y="180.897885"/>
     <use style="fill:#ff7f0e;fill-opacity:0.8;stroke:#000000;stroke-linejoin:miter;stroke-opacity:0.8;" x="376.45373" xlink:href="#m6b2579f66e" y="176.45342"/>
     <use style="fill:#ff7f0e;fill-opacity:0.8;stroke:#000000;stroke-linejoin:miter;stroke-opacity:0.8;" x="381.37348" xlink:href="#m6b2579f66e" y="182.303699"/>
     <use style="fill:#ff7f0e;fill-opacity:0.8;stroke:#000000;stroke-linejoin:miter;stroke-opacity:0.8;" x="386.293229" xlink:href="#m6b2579f66e" y="180.860865"/>
     <use style="fill:#ff7f0e;fill-opacity:0.8;stroke:#000000;stroke-linejoin:miter;stroke-opacity:0.8;" x="391.212978" xlink:href="#m6b2579f66e" y="180.104688"/>
     <use style="fill:#ff7f0e;fill-opacity:0.8;stroke:#000000;stroke-linejoin:miter;stroke-opacity:0.8;" x="396.132727" xlink:href="#m6b2579f66e" y="172.7379"/>
    </g>
   </g>
   <g id="line2d_15">
    <path clip-path="url(#pea6843b6cc)" d="M 110.787273 192.069293 
L 115.707022 191.816855 
L 120.626771 190.681118 
L 125.54652 186.934031 
L 130.46627 188.440611 
L 135.386019 187.172779 
L 140.305768 190.866554 
L 145.225517 192.107272 
L 150.145266 191.967963 
L 155.065016 190.876673 
L 159.984765 189.608732 
L 164.904514 184.582563 
L 169.824263 173.919368 
L 174.744013 181.617288 
L 179.663762 175.001704 
L 184.583511 181.138404 
L 189.50326 179.021673 
L 194.423009 180.773282 
L 199.342759 190.021375 
L 204.262508 182.278247 
L 209.182257 182.974464 
L 214.102006 185.551955 
L 219.021755 190.696026 
L 223.941505 182.911136 
L 228.861254 188.24584 
L 233.781003 189.702527 
L 238.700752 183.719789 
L 243.620502 190.600036 
L 248.540251 190.347793 
L 253.46 178.289834 
L 258.379749 191.50899 
L 263.299498 191.346957 
L 268.219248 191.997659 
L 273.138997 191.063085 
L 278.058746 192.053708 
L 282.978495 191.268366 
L 287.898245 191.863069 
L 292.817994 192.184566 
L 297.737743 190.680264 
L 302.657492 192.139701 
L 307.577241 192.102201 
L 312.496991 191.910488 
L 317.41674 192.254571 
L 322.336489 191.678696 
L 327.256238 190.881941 
L 332.175987 191.905527 
L 337.095737 191.94994 
L 342.015486 191.625092 
L 346.935235 186.180616 
L 351.854984 191.886384 
L 356.774734 161.606539 
L 361.694483 172.849892 
L 366.614232 158.901667 
L 371.533981 180.897885 
L 376.45373 176.45342 
L 381.37348 182.303699 
L 386.293229 180.860865 
L 391.212978 180.104688 
L 396.132727 172.7379 
" style="fill:none;stroke:#ff7f0e;stroke-linecap:round;stroke-width:0.7;"/>
   </g>
   <g id="line2d_16">
    <path clip-path="url(#pea6843b6cc)" d="M 110.787273 193.566267 
L 115.707022 193.716426 
L 120.626771 194.293182 
L 125.54652 197.522317 
L 130.46627 196.361881 
L 135.386019 197.576623 
L 140.305768 194.108985 
L 145.225517 193.421747 
L 150.145266 193.55758 
L 155.065016 194.069291 
L 159.984765 195.86952 
L 164.904514 199.742112 
L 169.824263 200.28232 
L 174.744013 202.405136 
L 179.663762 198.208437 
L 184.583511 199.519447 
L 189.50326 198.892571 
L 194.423009 200.314299 
L 199.342759 192.979184 
L 204.262508 196.541379 
L 209.182257 196.129133 
L 214.102006 200.115089 
L 219.021755 193.369318 
L 223.941505 196.430178 
L 228.861254 196.105859 
L 233.781003 195.454754 
L 238.700752 197.145482 
L 243.620502 193.370563 
L 248.540251 193.681128 
L 253.46 199.029272 
L 258.379749 193.668079 
L 263.299498 194.274264 
L 268.219248 193.557333 
L 273.138997 193.907165 
L 278.058746 193.516873 
L 282.978495 194.024553 
L 287.898245 193.705636 
L 292.817994 193.415328 
L 297.737743 194.04829 
L 302.657492 193.447029 
L 307.577241 193.483038 
L 312.496991 193.346679 
L 317.41674 193.24563 
L 322.336489 193.286106 
L 327.256238 193.563833 
L 332.175987 193.350643 
L 337.095737 193.369055 
L 342.015486 194.094248 
L 346.935235 199.324232 
L 351.854984 193.735356 
L 356.774734 195.465078 
L 361.694483 198.524985 
L 366.614232 190.846846 
L 371.533981 198.748984 
L 376.45373 199.735029 
L 381.37348 200.744714 
L 386.293229 202.431151 
L 391.212978 203.288182 
L 396.132727 198.892396 
" style="fill:none;stroke:#ff7f0e;stroke-dasharray:1.85,0.8;stroke-dashoffset:0;stroke-width:0.5;"/>
   </g>
   <g id="line2d_17">
    <path clip-path="url(#pea6843b6cc)" d="M 110.787273 190.572319 
L 115.707022 189.917285 
L 120.626771 187.069055 
L 125.54652 176.345746 
L 130.46627 180.519341 
L 135.386019 176.768936 
L 140.305768 187.624123 
L 145.225517 190.792798 
L 150.145266 190.378347 
L 155.065016 187.684055 
L 159.984765 183.347944 
L 164.904514 169.423014 
L 169.824263 147.556416 
L 174.744013 160.82944 
L 179.663762 151.794971 
L 184.583511 162.757361 
L 189.50326 159.150776 
L 194.423009 161.232265 
L 199.342759 187.063566 
L 204.262508 168.015114 
L 209.182257 169.819796 
L 214.102006 170.988821 
L 219.021755 188.022733 
L 223.941505 169.392095 
L 228.861254 180.38582 
L 233.781003 183.950299 
L 238.700752 170.294096 
L 243.620502 187.829508 
L 248.540251 187.014458 
L 253.46 157.550396 
L 258.379749 189.349901 
L 263.299498 188.41965 
L 268.219248 190.437985 
L 273.138997 188.219006 
L 278.058746 190.590542 
L 282.978495 188.512179 
L 287.898245 190.020502 
L 292.817994 190.953804 
L 297.737743 187.312238 
L 302.657492 190.832372 
L 307.577241 190.721365 
L 312.496991 190.474297 
L 317.41674 191.263513 
L 322.336489 190.071287 
L 327.256238 188.200049 
L 332.175987 190.460412 
L 337.095737 190.530825 
L 342.015486 189.155935 
L 346.935235 173.037001 
L 351.854984 190.037412 
L 356.774734 127.747999 
L 361.694483 147.174799 
L 366.614232 126.956489 
L 371.533981 163.046787 
L 376.45373 153.171811 
L 381.37348 163.862683 
L 386.293229 159.290578 
L 391.212978 156.921194 
L 396.132727 146.583404 
" style="fill:none;stroke:#ff7f0e;stroke-dasharray:1.85,0.8;stroke-dashoffset:0;stroke-width:0.5;"/>
   </g>
   <g id="line2d_18">
    <path clip-path="url(#pea6843b6cc)" d="M 110.787273 176.059355 
L 115.707022 139.745727 
L 120.626771 168.378593 
L 125.54652 159.428417 
L 130.46627 172.252392 
L 135.386019 171.52278 
L 140.305768 172.681107 
L 145.225517 156.335394 
L 150.145266 161.699562 
L 155.065016 164.106854 
L 159.984765 162.661079 
L 164.904514 165.625905 
L 169.824263 161.787101 
L 174.744013 144.372547 
L 179.663762 121.545954 
L 184.583511 157.261862 
L 189.50326 143.253566 
L 194.423009 94.394528 
L 199.342759 145.97212 
L 204.262508 146.496716 
L 209.182257 129.468139 
L 214.102006 144.341213 
L 219.021755 148.651653 
L 223.941505 145.226523 
L 228.861254 136.722858 
L 233.781003 145.247831 
L 238.700752 119.604212 
L 243.620502 121.633836 
L 248.540251 107.238216 
L 253.46 83.599647 
L 258.379749 167.115132 
L 263.299498 180.540267 
L 268.219248 84.515119 
L 273.138997 182.49433 
L 278.058746 122.98344 
L 282.978495 181.218409 
L 287.898245 148.934754 
L 292.817994 146.359709 
L 297.737743 175.466109 
L 302.657492 109.586427 
L 307.577241 169.150774 
L 312.496991 78.657082 
L 317.41674 93.299159 
L 322.336489 128.782919 
L 327.256238 134.005017 
L 332.175987 141.323149 
L 337.095737 141.388073 
L 342.015486 182.08977 
L 346.935235 163.334433 
L 351.854984 151.715229 
L 356.774734 82.755418 
L 361.694483 142.175757 
L 366.614232 142.461767 
L 371.533981 86.150759 
L 376.45373 155.129124 
L 381.37348 142.460166 
L 386.293229 131.37438 
L 391.212978 153.837567 
L 396.132727 156.682401 
" style="fill:none;stroke:#1f77b4;stroke-linecap:round;stroke-opacity:0.8;stroke-width:0.7;"/>
    <defs>
     <path d="M 0 2.5 
C 0.663008 2.5 1.29895 2.236584 1.767767 1.767767 
C 2.236584 1.29895 2.5 0.663008 2.5 0 
C 2.5 -0.663008 2.236584 -1.29895 1.767767 -1.767767 
C 1.29895 -2.236584 0.663008 -2.5 0 -2.5 
C -0.663008 -2.5 -1.29895 -2.236584 -1.767767 -1.767767 
C -2.236584 -1.29895 -2.5 -0.663008 -2.5 0 
C -2.5 0.663008 -2.236584 1.29895 -1.767767 1.767767 
C -1.29895 2.236584 -0.663008 2.5 0 2.5 
z
" id="m16fe44607e" style="stroke:#000000;stroke-opacity:0.8;"/>
    </defs>
    <g clip-path="url(#pea6843b6cc)">
     <use style="fill:#1f77b4;fill-opacity:0.8;stroke:#000000;stroke-opacity:0.8;" x="110.787273" xlink:href="#m16fe44607e" y="176.059355"/>
     <use style="fill:#1f77b4;fill-opacity:0.8;stroke:#000000;stroke-opacity:0.8;" x="115.707022" xlink:href="#m16fe44607e" y="139.745727"/>
     <use style="fill:#1f77b4;fill-opacity:0.8;stroke:#000000;stroke-opacity:0.8;" x="120.626771" xlink:href="#m16fe44607e" y="168.378593"/>
     <use style="fill:#1f77b4;fill-opacity:0.8;stroke:#000000;stroke-opacity:0.8;" x="125.54652" xlink:href="#m16fe44607e" y="159.428417"/>
     <use style="fill:#1f77b4;fill-opacity:0.8;stroke:#000000;stroke-opacity:0.8;" x="130.46627" xlink:href="#m16fe44607e" y="172.252392"/>
     <use style="fill:#1f77b4;fill-opacity:0.8;stroke:#000000;stroke-opacity:0.8;" x="135.386019" xlink:href="#m16fe44607e" y="171.52278"/>
     <use style="fill:#1f77b4;fill-opacity:0.8;stroke:#000000;stroke-opacity:0.8;" x="140.305768" xlink:href="#m16fe44607e" y="172.681107"/>
     <use style="fill:#1f77b4;fill-opacity:0.8;stroke:#000000;stroke-opacity:0.8;" x="145.225517" xlink:href="#m16fe44607e" y="156.335394"/>
     <use style="fill:#1f77b4;fill-opacity:0.8;stroke:#000000;stroke-opacity:0.8;" x="150.145266" xlink:href="#m16fe44607e" y="161.699562"/>
     <use style="fill:#1f77b4;fill-opacity:0.8;stroke:#000000;stroke-opacity:0.8;" x="155.065016" xlink:href="#m16fe44607e" y="164.106854"/>
     <use style="fill:#1f77b4;fill-opacity:0.8;stroke:#000000;stroke-opacity:0.8;" x="159.984765" xlink:href="#m16fe44607e" y="162.661079"/>
     <use style="fill:#1f77b4;fill-opacity:0.8;stroke:#000000;stroke-opacity:0.8;" x="164.904514" xlink:href="#m16fe44607e" y="165.625905"/>
     <use style="fill:#1f77b4;fill-opacity:0.8;stroke:#000000;stroke-opacity:0.8;" x="169.824263" xlink:href="#m16fe44607e" y="161.787101"/>
     <use style="fill:#1f77b4;fill-opacity:0.8;stroke:#000000;stroke-opacity:0.8;" x="174.744013" xlink:href="#m16fe44607e" y="144.372547"/>
     <use style="fill:#1f77b4;fill-opacity:0.8;stroke:#000000;stroke-opacity:0.8;" x="179.663762" xlink:href="#m16fe44607e" y="121.545954"/>
     <use style="fill:#1f77b4;fill-opacity:0.8;stroke:#000000;stroke-opacity:0.8;" x="184.583511" xlink:href="#m16fe44607e" y="157.261862"/>
     <use style="fill:#1f77b4;fill-opacity:0.8;stroke:#000000;stroke-opacity:0.8;" x="189.50326" xlink:href="#m16fe44607e" y="143.253566"/>
     <use style="fill:#1f77b4;fill-opacity:0.8;stroke:#000000;stroke-opacity:0.8;" x="194.423009" xlink:href="#m16fe44607e" y="94.394528"/>
     <use style="fill:#1f77b4;fill-opacity:0.8;stroke:#000000;stroke-opacity:0.8;" x="199.342759" xlink:href="#m16fe44607e" y="145.97212"/>
     <use style="fill:#1f77b4;fill-opacity:0.8;stroke:#000000;stroke-opacity:0.8;" x="204.262508" xlink:href="#m16fe44607e" y="146.496716"/>
     <use style="fill:#1f77b4;fill-opacity:0.8;stroke:#000000;stroke-opacity:0.8;" x="209.182257" xlink:href="#m16fe44607e" y="129.468139"/>
     <use style="fill:#1f77b4;fill-opacity:0.8;stroke:#000000;stroke-opacity:0.8;" x="214.102006" xlink:href="#m16fe44607e" y="144.341213"/>
     <use style="fill:#1f77b4;fill-opacity:0.8;stroke:#000000;stroke-opacity:0.8;" x="219.021755" xlink:href="#m16fe44607e" y="148.651653"/>
     <use style="fill:#1f77b4;fill-opacity:0.8;stroke:#000000;stroke-opacity:0.8;" x="223.941505" xlink:href="#m16fe44607e" y="145.226523"/>
     <use style="fill:#1f77b4;fill-opacity:0.8;stroke:#000000;stroke-opacity:0.8;" x="228.861254" xlink:href="#m16fe44607e" y="136.722858"/>
     <use style="fill:#1f77b4;fill-opacity:0.8;stroke:#000000;stroke-opacity:0.8;" x="233.781003" xlink:href="#m16fe44607e" y="145.247831"/>
     <use style="fill:#1f77b4;fill-opacity:0.8;stroke:#000000;stroke-opacity:0.8;" x="238.700752" xlink:href="#m16fe44607e" y="119.604212"/>
     <use style="fill:#1f77b4;fill-opacity:0.8;stroke:#000000;stroke-opacity:0.8;" x="243.620502" xlink:href="#m16fe44607e" y="121.633836"/>
     <use style="fill:#1f77b4;fill-opacity:0.8;stroke:#000000;stroke-opacity:0.8;" x="248.540251" xlink:href="#m16fe44607e" y="107.238216"/>
     <use style="fill:#1f77b4;fill-opacity:0.8;stroke:#000000;stroke-opacity:0.8;" x="253.46" xlink:href="#m16fe44607e" y="83.599647"/>
     <use style="fill:#1f77b4;fill-opacity:0.8;stroke:#000000;stroke-opacity:0.8;" x="258.379749" xlink:href="#m16fe44607e" y="167.115132"/>
     <use style="fill:#1f77b4;fill-opacity:0.8;stroke:#000000;stroke-opacity:0.8;" x="263.299498" xlink:href="#m16fe44607e" y="180.540267"/>
     <use style="fill:#1f77b4;fill-opacity:0.8;stroke:#000000;stroke-opacity:0.8;" x="268.219248" xlink:href="#m16fe44607e" y="84.515119"/>
     <use style="fill:#1f77b4;fill-opacity:0.8;stroke:#000000;stroke-opacity:0.8;" x="273.138997" xlink:href="#m16fe44607e" y="182.49433"/>
     <use style="fill:#1f77b4;fill-opacity:0.8;stroke:#000000;stroke-opacity:0.8;" x="278.058746" xlink:href="#m16fe44607e" y="122.98344"/>
     <use style="fill:#1f77b4;fill-opacity:0.8;stroke:#000000;stroke-opacity:0.8;" x="282.978495" xlink:href="#m16fe44607e" y="181.218409"/>
     <use style="fill:#1f77b4;fill-opacity:0.8;stroke:#000000;stroke-opacity:0.8;" x="287.898245" xlink:href="#m16fe44607e" y="148.934754"/>
     <use style="fill:#1f77b4;fill-opacity:0.8;stroke:#000000;stroke-opacity:0.8;" x="292.817994" xlink:href="#m16fe44607e" y="146.359709"/>
     <use style="fill:#1f77b4;fill-opacity:0.8;stroke:#000000;stroke-opacity:0.8;" x="297.737743" xlink:href="#m16fe44607e" y="175.466109"/>
     <use style="fill:#1f77b4;fill-opacity:0.8;stroke:#000000;stroke-opacity:0.8;" x="302.657492" xlink:href="#m16fe44607e" y="109.586427"/>
     <use style="fill:#1f77b4;fill-opacity:0.8;stroke:#000000;stroke-opacity:0.8;" x="307.577241" xlink:href="#m16fe44607e" y="169.150774"/>
     <use style="fill:#1f77b4;fill-opacity:0.8;stroke:#000000;stroke-opacity:0.8;" x="312.496991" xlink:href="#m16fe44607e" y="78.657082"/>
     <use style="fill:#1f77b4;fill-opacity:0.8;stroke:#000000;stroke-opacity:0.8;" x="317.41674" xlink:href="#m16fe44607e" y="93.299159"/>
     <use style="fill:#1f77b4;fill-opacity:0.8;stroke:#000000;stroke-opacity:0.8;" x="322.336489" xlink:href="#m16fe44607e" y="128.782919"/>
     <use style="fill:#1f77b4;fill-opacity:0.8;stroke:#000000;stroke-opacity:0.8;" x="327.256238" xlink:href="#m16fe44607e" y="134.005017"/>
     <use style="fill:#1f77b4;fill-opacity:0.8;stroke:#000000;stroke-opacity:0.8;" x="332.175987" xlink:href="#m16fe44607e" y="141.323149"/>
     <use style="fill:#1f77b4;fill-opacity:0.8;stroke:#000000;stroke-opacity:0.8;" x="337.095737" xlink:href="#m16fe44607e" y="141.388073"/>
     <use style="fill:#1f77b4;fill-opacity:0.8;stroke:#000000;stroke-opacity:0.8;" x="342.015486" xlink:href="#m16fe44607e" y="182.08977"/>
     <use style="fill:#1f77b4;fill-opacity:0.8;stroke:#000000;stroke-opacity:0.8;" x="346.935235" xlink:href="#m16fe44607e" y="163.334433"/>
     <use style="fill:#1f77b4;fill-opacity:0.8;stroke:#000000;stroke-opacity:0.8;" x="351.854984" xlink:href="#m16fe44607e" y="151.715229"/>
     <use style="fill:#1f77b4;fill-opacity:0.8;stroke:#000000;stroke-opacity:0.8;" x="356.774734" xlink:href="#m16fe44607e" y="82.755418"/>
     <use style="fill:#1f77b4;fill-opacity:0.8;stroke:#000000;stroke-opacity:0.8;" x="361.694483" xlink:href="#m16fe44607e" y="142.175757"/>
     <use style="fill:#1f77b4;fill-opacity:0.8;stroke:#000000;stroke-opacity:0.8;" x="366.614232" xlink:href="#m16fe44607e" y="142.461767"/>
     <use style="fill:#1f77b4;fill-opacity:0.8;stroke:#000000;stroke-opacity:0.8;" x="371.533981" xlink:href="#m16fe44607e" y="86.150759"/>
     <use style="fill:#1f77b4;fill-opacity:0.8;stroke:#000000;stroke-opacity:0.8;" x="376.45373" xlink:href="#m16fe44607e" y="155.129124"/>
     <use style="fill:#1f77b4;fill-opacity:0.8;stroke:#000000;stroke-opacity:0.8;" x="381.37348" xlink:href="#m16fe44607e" y="142.460166"/>
     <use style="fill:#1f77b4;fill-opacity:0.8;stroke:#000000;stroke-opacity:0.8;" x="386.293229" xlink:href="#m16fe44607e" y="131.37438"/>
     <use style="fill:#1f77b4;fill-opacity:0.8;stroke:#000000;stroke-opacity:0.8;" x="391.212978" xlink:href="#m16fe44607e" y="153.837567"/>
     <use style="fill:#1f77b4;fill-opacity:0.8;stroke:#000000;stroke-opacity:0.8;" x="396.132727" xlink:href="#m16fe44607e" y="156.682401"/>
    </g>
   </g>
   <g id="line2d_19">
    <path clip-path="url(#pea6843b6cc)" d="M 110.787273 176.059355 
L 115.707022 139.745727 
L 120.626771 168.378593 
L 125.54652 159.428417 
L 130.46627 172.252392 
L 135.386019 171.52278 
L 140.305768 172.681107 
L 145.225517 156.335394 
L 150.145266 161.699562 
L 155.065016 164.106854 
L 159.984765 162.661079 
L 164.904514 165.625905 
L 169.824263 161.787101 
L 174.744013 144.372547 
L 179.663762 121.545954 
L 184.583511 157.261862 
L 189.50326 143.253566 
L 194.423009 94.394528 
L 199.342759 145.97212 
L 204.262508 146.496716 
L 209.182257 129.468139 
L 214.102006 144.341213 
L 219.021755 148.651653 
L 223.941505 145.226523 
L 228.861254 136.722858 
L 233.781003 145.247831 
L 238.700752 119.604212 
L 243.620502 121.633836 
L 248.540251 107.238216 
L 253.46 83.599647 
L 258.379749 167.115132 
L 263.299498 180.540267 
L 268.219248 84.515119 
L 273.138997 182.49433 
L 278.058746 122.98344 
L 282.978495 181.218409 
L 287.898245 148.934754 
L 292.817994 146.359709 
L 297.737743 175.466109 
L 302.657492 109.586427 
L 307.577241 169.150774 
L 312.496991 78.657082 
L 317.41674 93.299159 
L 322.336489 128.782919 
L 327.256238 134.005017 
L 332.175987 141.323149 
L 337.095737 141.388073 
L 342.015486 182.08977 
L 346.935235 163.334433 
L 351.854984 151.715229 
L 356.774734 82.755418 
L 361.694483 142.175757 
L 366.614232 142.461767 
L 371.533981 86.150759 
L 376.45373 155.129124 
L 381.37348 142.460166 
L 386.293229 131.37438 
L 391.212978 153.837567 
L 396.132727 156.682401 
" style="fill:none;stroke:#1f77b4;stroke-linecap:round;stroke-width:0.7;"/>
   </g>
   <g id="line2d_20">
    <path clip-path="url(#pea6843b6cc)" d="M 110.787273 185.703427 
L 115.707022 172.50446 
L 120.626771 185.351934 
L 125.54652 181.699703 
L 130.46627 190.12321 
L 135.386019 182.855475 
L 140.305768 182.339775 
L 145.225517 182.915597 
L 150.145266 187.407123 
L 155.065016 189.076415 
L 159.984765 183.760124 
L 164.904514 184.73594 
L 169.824263 186.973643 
L 174.744013 177.448151 
L 179.663762 160.670118 
L 184.583511 180.241518 
L 189.50326 178.245797 
L 194.423009 143.334854 
L 199.342759 175.74751 
L 204.262508 176.853392 
L 209.182257 167.767742 
L 214.102006 177.405744 
L 219.021755 181.489579 
L 223.941505 175.748948 
L 228.861254 172.433744 
L 233.781003 172.983268 
L 238.700752 160.989774 
L 243.620502 159.332115 
L 248.540251 148.948056 
L 253.46 129.707284 
L 258.379749 183.927413 
L 263.299498 195.852818 
L 268.219248 131.514818 
L 273.138997 190.49653 
L 278.058746 161.697639 
L 282.978495 191.515401 
L 287.898245 175.092314 
L 292.817994 174.464386 
L 297.737743 188.280686 
L 302.657492 151.589101 
L 307.577241 187.802356 
L 312.496991 125.374467 
L 317.41674 141.897814 
L 322.336489 161.913955 
L 327.256238 167.005276 
L 332.175987 170.924241 
L 337.095737 175.004193 
L 342.015486 189.605709 
L 346.935235 186.306535 
L 351.854984 180.657513 
L 356.774734 135.259018 
L 361.694483 172.769713 
L 366.614232 176.401029 
L 371.533981 135.381401 
L 376.45373 179.951307 
L 381.37348 177.516252 
L 386.293229 169.273523 
L 391.212978 181.760101 
L 396.132727 183.51293 
" style="fill:none;stroke:#1f77b4;stroke-dasharray:1.85,0.8;stroke-dashoffset:0;stroke-width:0.5;"/>
   </g>
   <g id="line2d_21">
    <path clip-path="url(#pea6843b6cc)" d="M 110.787273 166.415284 
L 115.707022 106.986995 
L 120.626771 151.405251 
L 125.54652 137.157131 
L 130.46627 154.381573 
L 135.386019 160.190084 
L 140.305768 163.02244 
L 145.225517 129.755192 
L 150.145266 135.992002 
L 155.065016 139.137293 
L 159.984765 141.562035 
L 164.904514 146.51587 
L 169.824263 136.600558 
L 174.744013 111.296942 
L 179.663762 82.42179 
L 184.583511 134.282206 
L 189.50326 108.261334 
L 194.423009 45.454202 
L 199.342759 116.19673 
L 204.262508 116.14004 
L 209.182257 91.168537 
L 214.102006 111.276682 
L 219.021755 115.813727 
L 223.941505 114.704099 
L 228.861254 101.011972 
L 233.781003 117.512395 
L 238.700752 78.21865 
L 243.620502 83.935556 
L 248.540251 65.528376 
L 253.46 37.49201 
L 258.379749 150.302851 
L 263.299498 165.227716 
L 268.219248 37.515421 
L 273.138997 174.492131 
L 278.058746 84.269241 
L 282.978495 170.921417 
L 287.898245 122.777194 
L 292.817994 118.255033 
L 297.737743 162.651531 
L 302.657492 67.583753 
L 307.577241 150.499192 
L 312.496991 31.939698 
L 317.41674 44.700503 
L 322.336489 95.651883 
L 327.256238 101.004758 
L 332.175987 111.722057 
L 337.095737 107.771953 
L 342.015486 174.573831 
L 346.935235 140.362331 
L 351.854984 122.772945 
L 356.774734 30.251818 
L 361.694483 111.581801 
L 366.614232 108.522505 
L 371.533981 36.920117 
L 376.45373 130.306942 
L 381.37348 107.40408 
L 386.293229 93.475237 
L 391.212978 125.915034 
L 396.132727 129.851873 
" style="fill:none;stroke:#1f77b4;stroke-dasharray:1.85,0.8;stroke-dashoffset:0;stroke-width:0.5;"/>
   </g>
   <g id="patch_3">
    <path d="M 96.52 211.94 
L 96.52 21.6 
" style="fill:none;stroke:#cccccc;stroke-linecap:square;stroke-linejoin:miter;stroke-width:0.8;"/>
   </g>
   <g id="patch_4">
    <path d="M 96.52 211.94 
L 410.4 211.94 
" style="fill:none;stroke:#cccccc;stroke-linecap:square;stroke-linejoin:miter;stroke-width:0.8;"/>
   </g>
   <g id="legend_1">
    <g id="patch_5">
     <path d="M 110.52 123.146875 
L 283.460625 123.146875 
Q 287.460625 123.146875 287.460625 119.146875 
L 287.460625 35.6 
Q 287.460625 31.6 283.460625 31.6 
L 110.52 31.6 
Q 106.52 31.6 106.52 35.6 
L 106.52 119.146875 
Q 106.52 123.146875 110.52 123.146875 
z
" style="fill:#ffffff;opacity:0.8;stroke:#cccccc;stroke-linejoin:miter;"/>
    </g>
    <g id="line2d_22">
     <path d="M 114.52 46.946875 
L 154.52 46.946875 
" style="fill:none;stroke:#808080;stroke-linecap:round;stroke-opacity:0.8;stroke-width:0.7;"/>
    </g>
    <g id="line2d_23">
     <g>
      <use style="fill:#808080;fill-opacity:0.8;stroke:#000000;stroke-linejoin:miter;stroke-opacity:0.8;" x="134.52" xlink:href="#mc19b93e96e" y="46.946875"/>
     </g>
    </g>
    <g id="text_12">
     <!-- Random -->
     <g style="fill:#262626;" transform="translate(170.52 53.946875)scale(0.2 -0.2)">
      <defs>
       <path d="M 2622 2488 
Q 3059 2488 3314 2663 
Q 3569 2838 3569 3294 
Q 3569 3784 3213 3963 
Q 3022 4056 2703 4056 
L 1184 4056 
L 1184 2488 
L 2622 2488 
z
M 563 4591 
L 2688 4591 
Q 3213 4591 3553 4438 
Q 4200 4144 4200 3353 
Q 4200 2941 4029 2678 
Q 3859 2416 3553 2256 
Q 3822 2147 3958 1969 
Q 4094 1791 4109 1391 
L 4131 775 
Q 4141 513 4175 384 
Q 4231 166 4375 103 
L 4375 0 
L 3613 0 
Q 3581 59 3562 153 
Q 3544 247 3531 516 
L 3494 1281 
Q 3472 1731 3159 1884 
Q 2981 1969 2600 1969 
L 1184 1969 
L 1184 0 
L 563 0 
L 563 4591 
z
" id="Helvetica-52" transform="scale(0.015625)"/>
      </defs>
      <use xlink:href="#Helvetica-52"/>
      <use x="72.216797" xlink:href="#Helvetica-61"/>
      <use x="127.832031" xlink:href="#Helvetica-6e"/>
      <use x="183.447266" xlink:href="#Helvetica-64"/>
      <use x="239.0625" xlink:href="#Helvetica-6f"/>
      <use x="294.677734" xlink:href="#Helvetica-6d"/>
     </g>
    </g>
    <g id="line2d_24">
     <path d="M 114.52 75.4625 
L 154.52 75.4625 
" style="fill:none;stroke:#ff7f0e;stroke-linecap:round;stroke-opacity:0.8;stroke-width:0.7;"/>
    </g>
    <g id="line2d_25">
     <g>
      <use style="fill:#ff7f0e;fill-opacity:0.8;stroke:#000000;stroke-linejoin:miter;stroke-opacity:0.8;" x="134.52" xlink:href="#m6b2579f66e" y="75.4625"/>
     </g>
    </g>
    <g id="text_13">
     <!-- Bottom 10% -->
     <g style="fill:#262626;" transform="translate(170.52 82.4625)scale(0.2 -0.2)">
      <defs>
       <path d="M 2213 2650 
Q 2606 2650 2825 2759 
Q 3169 2931 3169 3378 
Q 3169 3828 2803 3984 
Q 2597 4072 2191 4072 
L 1081 4072 
L 1081 2650 
L 2213 2650 
z
M 2422 531 
Q 2994 531 3238 863 
Q 3391 1072 3391 1369 
Q 3391 1869 2944 2050 
Q 2706 2147 2316 2147 
L 1081 2147 
L 1081 531 
L 2422 531 
z
M 472 4591 
L 2444 4591 
Q 3250 4591 3591 4109 
Q 3791 3825 3791 3453 
Q 3791 3019 3544 2741 
Q 3416 2594 3175 2472 
Q 3528 2338 3703 2169 
Q 4013 1869 4013 1341 
Q 4013 897 3734 538 
Q 3319 0 2413 0 
L 472 0 
L 472 4591 
z
" id="Helvetica-42" transform="scale(0.015625)"/>
       <path d="M 4363 2175 
Q 4813 2175 5131 1856 
Q 5450 1538 5450 1088 
Q 5450 638 5131 319 
Q 4813 0 4363 0 
Q 3909 0 3590 319 
Q 3272 638 3272 1088 
Q 3272 1538 3590 1856 
Q 3909 2175 4363 2175 
z
M 3909 4456 
L 4256 4456 
L 1753 -119 
L 1406 -119 
L 3909 4456 
z
M 1294 2606 
Q 1563 2606 1752 2795 
Q 1941 2984 1941 3250 
Q 1941 3516 1752 3705 
Q 1563 3894 1294 3894 
Q 1028 3894 839 3706 
Q 650 3519 650 3250 
Q 650 2984 839 2795 
Q 1028 2606 1294 2606 
z
M 1294 4341 
Q 1747 4341 2065 4020 
Q 2384 3700 2384 3250 
Q 2384 2800 2065 2481 
Q 1747 2163 1294 2163 
Q 844 2163 525 2481 
Q 206 2800 206 3250 
Q 206 3700 525 4020 
Q 844 4341 1294 4341 
z
M 4363 444 
Q 4628 444 4817 633 
Q 5006 822 5006 1088 
Q 5006 1353 4817 1542 
Q 4628 1731 4363 1731 
Q 4094 1731 3905 1542 
Q 3716 1353 3716 1088 
Q 3716 822 3905 633 
Q 4094 444 4363 444 
z
" id="Helvetica-25" transform="scale(0.015625)"/>
      </defs>
      <use xlink:href="#Helvetica-42"/>
      <use x="66.699219" xlink:href="#Helvetica-6f"/>
      <use x="122.314453" xlink:href="#Helvetica-74"/>
      <use x="150.097656" xlink:href="#Helvetica-74"/>
      <use x="177.880859" xlink:href="#Helvetica-6f"/>
      <use x="233.496094" xlink:href="#Helvetica-6d"/>
      <use x="316.796875" xlink:href="#Helvetica-20"/>
      <use x="344.580078" xlink:href="#Helvetica-31"/>
      <use x="400.195312" xlink:href="#Helvetica-30"/>
      <use x="455.810547" xlink:href="#Helvetica-25"/>
     </g>
    </g>
    <g id="line2d_26">
     <path d="M 114.52 103.978125 
L 154.52 103.978125 
" style="fill:none;stroke:#1f77b4;stroke-linecap:round;stroke-opacity:0.8;stroke-width:0.7;"/>
    </g>
    <g id="line2d_27">
     <g>
      <use style="fill:#1f77b4;fill-opacity:0.8;stroke:#000000;stroke-opacity:0.8;" x="134.52" xlink:href="#m16fe44607e" y="103.978125"/>
     </g>
    </g>
    <g id="text_14">
     <!-- Top 10% -->
     <g style="fill:#262626;" transform="translate(170.52 110.978125)scale(0.2 -0.2)">
      <defs>
       <path d="M 3828 4591 
L 3828 4044 
L 2281 4044 
L 2281 0 
L 1650 0 
L 1650 4044 
L 103 4044 
L 103 4591 
L 3828 4591 
z
" id="Helvetica-54" transform="scale(0.015625)"/>
       <path d="M 1825 378 
Q 2219 378 2480 708 
Q 2741 1038 2741 1694 
Q 2741 2094 2625 2381 
Q 2406 2934 1825 2934 
Q 1241 2934 1025 2350 
Q 909 2038 909 1556 
Q 909 1169 1025 897 
Q 1244 378 1825 378 
z
M 369 3331 
L 916 3331 
L 916 2888 
Q 1084 3116 1284 3241 
Q 1569 3428 1953 3428 
Q 2522 3428 2919 2992 
Q 3316 2556 3316 1747 
Q 3316 653 2744 184 
Q 2381 -113 1900 -113 
Q 1522 -113 1266 53 
Q 1116 147 931 375 
L 931 -1334 
L 369 -1334 
L 369 3331 
z
" id="Helvetica-70" transform="scale(0.015625)"/>
      </defs>
      <use xlink:href="#Helvetica-54"/>
      <use x="61.083984" xlink:href="#Helvetica-6f"/>
      <use x="116.699219" xlink:href="#Helvetica-70"/>
      <use x="172.314453" xlink:href="#Helvetica-20"/>
      <use x="200.097656" xlink:href="#Helvetica-31"/>
      <use x="255.712891" xlink:href="#Helvetica-30"/>
      <use x="311.328125" xlink:href="#Helvetica-25"/>
     </g>
    </g>
   </g>
  </g>
 </g>
 <defs>
  <clipPath id="pea6843b6cc">
   <rect height="190.34" width="313.88" x="96.52" y="21.6"/>
  </clipPath>
 </defs>
</svg>
