<?xml version="1.0" encoding="utf-8" standalone="no"?>
<!DOCTYPE svg PUBLIC "-//W3C//DTD SVG 1.1//EN"
  "http://www.w3.org/Graphics/SVG/1.1/DTD/svg11.dtd">
<svg height="144pt" version="1.1" viewBox="0 0 144 144" width="144pt" xmlns="http://www.w3.org/2000/svg" xmlns:xlink="http://www.w3.org/1999/xlink">
 <metadata>
  <rdf:RDF xmlns:cc="http://creativecommons.org/ns#" xmlns:dc="http://purl.org/dc/elements/1.1/" xmlns:rdf="http://www.w3.org/1999/02/22-rdf-syntax-ns#">
   <cc:Work>
    <dc:type rdf:resource="http://purl.org/dc/dcmitype/StillImage"/>
    <dc:date>2022-12-21T12:19:02.237367</dc:date>
    <dc:format>image/svg+xml</dc:format>
    <dc:creator>
     <cc:Agent>
      <dc:title>Matplotlib v3.4.2, https://matplotlib.org/</dc:title>
     </cc:Agent>
    </dc:creator>
   </cc:Work>
  </rdf:RDF>
 </metadata>
 <defs>
  <style type="text/css">*{stroke-linecap:butt;stroke-linejoin:round;}</style>
 </defs>
 <g id="figure_1">
  <g id="patch_1">
   <path d="M 0 144 
L 144 144 
L 144 0 
L 0 0 
z
" style="fill:#ffffff;"/>
  </g>
  <g id="axes_1">
   <g id="patch_2">
    <path d="M 18 128.16 
L 129.6 128.16 
L 129.6 17.28 
L 18 17.28 
z
" style="fill:#ffffff;"/>
   </g>
   <g id="matplotlib.axis_1">
    <g id="xtick_1">
     <g id="text_1">
      <!-- Original -->
      <g style="fill:#262626;" transform="translate(41.78125 204.0725)rotate(-90)scale(0.2 -0.2)">
       <defs>
        <path d="M 309 2231 
Q 309 3372 921 4017 
Q 1534 4663 2503 4663 
Q 3138 4663 3647 4359 
Q 4156 4056 4423 3514 
Q 4691 2972 4691 2284 
Q 4691 1588 4409 1038 
Q 4128 488 3612 205 
Q 3097 -78 2500 -78 
Q 1853 -78 1343 234 
Q 834 547 571 1087 
Q 309 1628 309 2231 
z
M 934 2222 
Q 934 1394 1379 917 
Q 1825 441 2497 441 
Q 3181 441 3623 922 
Q 4066 1403 4066 2288 
Q 4066 2847 3877 3264 
Q 3688 3681 3323 3911 
Q 2959 4141 2506 4141 
Q 1863 4141 1398 3698 
Q 934 3256 934 2222 
z
" id="ArialMT-4f" transform="scale(0.015625)"/>
        <path d="M 416 0 
L 416 3319 
L 922 3319 
L 922 2816 
Q 1116 3169 1280 3281 
Q 1444 3394 1641 3394 
Q 1925 3394 2219 3213 
L 2025 2691 
Q 1819 2813 1613 2813 
Q 1428 2813 1281 2702 
Q 1134 2591 1072 2394 
Q 978 2094 978 1738 
L 978 0 
L 416 0 
z
" id="ArialMT-72" transform="scale(0.015625)"/>
        <path d="M 425 3934 
L 425 4581 
L 988 4581 
L 988 3934 
L 425 3934 
z
M 425 0 
L 425 3319 
L 988 3319 
L 988 0 
L 425 0 
z
" id="ArialMT-69" transform="scale(0.015625)"/>
        <path d="M 319 -275 
L 866 -356 
Q 900 -609 1056 -725 
Q 1266 -881 1628 -881 
Q 2019 -881 2231 -725 
Q 2444 -569 2519 -288 
Q 2563 -116 2559 434 
Q 2191 0 1641 0 
Q 956 0 581 494 
Q 206 988 206 1678 
Q 206 2153 378 2554 
Q 550 2956 876 3175 
Q 1203 3394 1644 3394 
Q 2231 3394 2613 2919 
L 2613 3319 
L 3131 3319 
L 3131 450 
Q 3131 -325 2973 -648 
Q 2816 -972 2473 -1159 
Q 2131 -1347 1631 -1347 
Q 1038 -1347 672 -1080 
Q 306 -813 319 -275 
z
M 784 1719 
Q 784 1066 1043 766 
Q 1303 466 1694 466 
Q 2081 466 2343 764 
Q 2606 1063 2606 1700 
Q 2606 2309 2336 2618 
Q 2066 2928 1684 2928 
Q 1309 2928 1046 2623 
Q 784 2319 784 1719 
z
" id="ArialMT-67" transform="scale(0.015625)"/>
        <path d="M 422 0 
L 422 3319 
L 928 3319 
L 928 2847 
Q 1294 3394 1984 3394 
Q 2284 3394 2536 3286 
Q 2788 3178 2913 3003 
Q 3038 2828 3088 2588 
Q 3119 2431 3119 2041 
L 3119 0 
L 2556 0 
L 2556 2019 
Q 2556 2363 2490 2533 
Q 2425 2703 2258 2804 
Q 2091 2906 1866 2906 
Q 1506 2906 1245 2678 
Q 984 2450 984 1813 
L 984 0 
L 422 0 
z
" id="ArialMT-6e" transform="scale(0.015625)"/>
        <path d="M 2588 409 
Q 2275 144 1986 34 
Q 1697 -75 1366 -75 
Q 819 -75 525 192 
Q 231 459 231 875 
Q 231 1119 342 1320 
Q 453 1522 633 1644 
Q 813 1766 1038 1828 
Q 1203 1872 1538 1913 
Q 2219 1994 2541 2106 
Q 2544 2222 2544 2253 
Q 2544 2597 2384 2738 
Q 2169 2928 1744 2928 
Q 1347 2928 1158 2789 
Q 969 2650 878 2297 
L 328 2372 
Q 403 2725 575 2942 
Q 747 3159 1072 3276 
Q 1397 3394 1825 3394 
Q 2250 3394 2515 3294 
Q 2781 3194 2906 3042 
Q 3031 2891 3081 2659 
Q 3109 2516 3109 2141 
L 3109 1391 
Q 3109 606 3145 398 
Q 3181 191 3288 0 
L 2700 0 
Q 2613 175 2588 409 
z
M 2541 1666 
Q 2234 1541 1622 1453 
Q 1275 1403 1131 1340 
Q 988 1278 909 1158 
Q 831 1038 831 891 
Q 831 666 1001 516 
Q 1172 366 1500 366 
Q 1825 366 2078 508 
Q 2331 650 2450 897 
Q 2541 1088 2541 1459 
L 2541 1666 
z
" id="ArialMT-61" transform="scale(0.015625)"/>
        <path d="M 409 0 
L 409 4581 
L 972 4581 
L 972 0 
L 409 0 
z
" id="ArialMT-6c" transform="scale(0.015625)"/>
       </defs>
       <use xlink:href="#ArialMT-4f"/>
       <use x="77.783203" xlink:href="#ArialMT-72"/>
       <use x="111.083984" xlink:href="#ArialMT-69"/>
       <use x="133.300781" xlink:href="#ArialMT-67"/>
       <use x="188.916016" xlink:href="#ArialMT-69"/>
       <use x="211.132812" xlink:href="#ArialMT-6e"/>
       <use x="266.748047" xlink:href="#ArialMT-61"/>
       <use x="322.363281" xlink:href="#ArialMT-6c"/>
      </g>
     </g>
    </g>
    <g id="xtick_2">
     <g id="text_2">
      <!-- Mutated -->
      <g style="fill:#262626;" transform="translate(78.970312 207.419375)rotate(-90)scale(0.2 -0.2)">
       <defs>
        <path d="M 475 0 
L 475 4581 
L 1388 4581 
L 2472 1338 
Q 2622 884 2691 659 
Q 2769 909 2934 1394 
L 4031 4581 
L 4847 4581 
L 4847 0 
L 4263 0 
L 4263 3834 
L 2931 0 
L 2384 0 
L 1059 3900 
L 1059 0 
L 475 0 
z
" id="ArialMT-4d" transform="scale(0.015625)"/>
        <path d="M 2597 0 
L 2597 488 
Q 2209 -75 1544 -75 
Q 1250 -75 995 37 
Q 741 150 617 320 
Q 494 491 444 738 
Q 409 903 409 1263 
L 409 3319 
L 972 3319 
L 972 1478 
Q 972 1038 1006 884 
Q 1059 663 1231 536 
Q 1403 409 1656 409 
Q 1909 409 2131 539 
Q 2353 669 2445 892 
Q 2538 1116 2538 1541 
L 2538 3319 
L 3100 3319 
L 3100 0 
L 2597 0 
z
" id="ArialMT-75" transform="scale(0.015625)"/>
        <path d="M 1650 503 
L 1731 6 
Q 1494 -44 1306 -44 
Q 1000 -44 831 53 
Q 663 150 594 308 
Q 525 466 525 972 
L 525 2881 
L 113 2881 
L 113 3319 
L 525 3319 
L 525 4141 
L 1084 4478 
L 1084 3319 
L 1650 3319 
L 1650 2881 
L 1084 2881 
L 1084 941 
Q 1084 700 1114 631 
Q 1144 563 1211 522 
Q 1278 481 1403 481 
Q 1497 481 1650 503 
z
" id="ArialMT-74" transform="scale(0.015625)"/>
        <path d="M 2694 1069 
L 3275 997 
Q 3138 488 2766 206 
Q 2394 -75 1816 -75 
Q 1088 -75 661 373 
Q 234 822 234 1631 
Q 234 2469 665 2931 
Q 1097 3394 1784 3394 
Q 2450 3394 2872 2941 
Q 3294 2488 3294 1666 
Q 3294 1616 3291 1516 
L 816 1516 
Q 847 969 1125 678 
Q 1403 388 1819 388 
Q 2128 388 2347 550 
Q 2566 713 2694 1069 
z
M 847 1978 
L 2700 1978 
Q 2663 2397 2488 2606 
Q 2219 2931 1791 2931 
Q 1403 2931 1139 2672 
Q 875 2413 847 1978 
z
" id="ArialMT-65" transform="scale(0.015625)"/>
        <path d="M 2575 0 
L 2575 419 
Q 2259 -75 1647 -75 
Q 1250 -75 917 144 
Q 584 363 401 755 
Q 219 1147 219 1656 
Q 219 2153 384 2558 
Q 550 2963 881 3178 
Q 1213 3394 1622 3394 
Q 1922 3394 2156 3267 
Q 2391 3141 2538 2938 
L 2538 4581 
L 3097 4581 
L 3097 0 
L 2575 0 
z
M 797 1656 
Q 797 1019 1065 703 
Q 1334 388 1700 388 
Q 2069 388 2326 689 
Q 2584 991 2584 1609 
Q 2584 2291 2321 2609 
Q 2059 2928 1675 2928 
Q 1300 2928 1048 2622 
Q 797 2316 797 1656 
z
" id="ArialMT-64" transform="scale(0.015625)"/>
       </defs>
       <use xlink:href="#ArialMT-4d"/>
       <use x="83.300781" xlink:href="#ArialMT-75"/>
       <use x="138.916016" xlink:href="#ArialMT-74"/>
       <use x="166.699219" xlink:href="#ArialMT-61"/>
       <use x="222.314453" xlink:href="#ArialMT-74"/>
       <use x="250.097656" xlink:href="#ArialMT-65"/>
       <use x="305.712891" xlink:href="#ArialMT-64"/>
      </g>
     </g>
    </g>
    <g id="xtick_3">
     <g id="text_3">
      <!-- STORM -->
      <g style="fill:#262626;" transform="translate(116.170312 207.025625)rotate(-90)scale(0.2 -0.2)">
       <defs>
        <path d="M 288 1472 
L 859 1522 
Q 900 1178 1048 958 
Q 1197 738 1509 602 
Q 1822 466 2213 466 
Q 2559 466 2825 569 
Q 3091 672 3220 851 
Q 3350 1031 3350 1244 
Q 3350 1459 3225 1620 
Q 3100 1781 2813 1891 
Q 2628 1963 1997 2114 
Q 1366 2266 1113 2400 
Q 784 2572 623 2826 
Q 463 3081 463 3397 
Q 463 3744 659 4045 
Q 856 4347 1234 4503 
Q 1613 4659 2075 4659 
Q 2584 4659 2973 4495 
Q 3363 4331 3572 4012 
Q 3781 3694 3797 3291 
L 3216 3247 
Q 3169 3681 2898 3903 
Q 2628 4125 2100 4125 
Q 1550 4125 1298 3923 
Q 1047 3722 1047 3438 
Q 1047 3191 1225 3031 
Q 1400 2872 2139 2705 
Q 2878 2538 3153 2413 
Q 3553 2228 3743 1945 
Q 3934 1663 3934 1294 
Q 3934 928 3725 604 
Q 3516 281 3123 101 
Q 2731 -78 2241 -78 
Q 1619 -78 1198 103 
Q 778 284 539 648 
Q 300 1013 288 1472 
z
" id="ArialMT-53" transform="scale(0.015625)"/>
        <path d="M 1659 0 
L 1659 4041 
L 150 4041 
L 150 4581 
L 3781 4581 
L 3781 4041 
L 2266 4041 
L 2266 0 
L 1659 0 
z
" id="ArialMT-54" transform="scale(0.015625)"/>
        <path d="M 503 0 
L 503 4581 
L 2534 4581 
Q 3147 4581 3465 4457 
Q 3784 4334 3975 4021 
Q 4166 3709 4166 3331 
Q 4166 2844 3850 2509 
Q 3534 2175 2875 2084 
Q 3116 1969 3241 1856 
Q 3506 1613 3744 1247 
L 4541 0 
L 3778 0 
L 3172 953 
Q 2906 1366 2734 1584 
Q 2563 1803 2427 1890 
Q 2291 1978 2150 2013 
Q 2047 2034 1813 2034 
L 1109 2034 
L 1109 0 
L 503 0 
z
M 1109 2559 
L 2413 2559 
Q 2828 2559 3062 2645 
Q 3297 2731 3419 2920 
Q 3541 3109 3541 3331 
Q 3541 3656 3305 3865 
Q 3069 4075 2559 4075 
L 1109 4075 
L 1109 2559 
z
" id="ArialMT-52" transform="scale(0.015625)"/>
       </defs>
       <use xlink:href="#ArialMT-53"/>
       <use x="66.699219" xlink:href="#ArialMT-54"/>
       <use x="126.033203" xlink:href="#ArialMT-4f"/>
       <use x="203.816406" xlink:href="#ArialMT-52"/>
       <use x="276.033203" xlink:href="#ArialMT-4d"/>
      </g>
     </g>
    </g>
    <g id="text_4">
     <!-- Method -->
     <g style="fill:#262626;" transform="translate(40.448437 225.735)scale(0.2 -0.2)">
      <defs>
       <path d="M 422 0 
L 422 4581 
L 984 4581 
L 984 2938 
Q 1378 3394 1978 3394 
Q 2347 3394 2619 3248 
Q 2891 3103 3008 2847 
Q 3125 2591 3125 2103 
L 3125 0 
L 2563 0 
L 2563 2103 
Q 2563 2525 2380 2717 
Q 2197 2909 1863 2909 
Q 1613 2909 1392 2779 
Q 1172 2650 1078 2428 
Q 984 2206 984 1816 
L 984 0 
L 422 0 
z
" id="ArialMT-68" transform="scale(0.015625)"/>
       <path d="M 213 1659 
Q 213 2581 725 3025 
Q 1153 3394 1769 3394 
Q 2453 3394 2887 2945 
Q 3322 2497 3322 1706 
Q 3322 1066 3130 698 
Q 2938 331 2570 128 
Q 2203 -75 1769 -75 
Q 1072 -75 642 372 
Q 213 819 213 1659 
z
M 791 1659 
Q 791 1022 1069 705 
Q 1347 388 1769 388 
Q 2188 388 2466 706 
Q 2744 1025 2744 1678 
Q 2744 2294 2464 2611 
Q 2184 2928 1769 2928 
Q 1347 2928 1069 2612 
Q 791 2297 791 1659 
z
" id="ArialMT-6f" transform="scale(0.015625)"/>
      </defs>
      <use xlink:href="#ArialMT-4d"/>
      <use x="83.300781" xlink:href="#ArialMT-65"/>
      <use x="138.916016" xlink:href="#ArialMT-74"/>
      <use x="166.699219" xlink:href="#ArialMT-68"/>
      <use x="222.314453" xlink:href="#ArialMT-6f"/>
      <use x="277.929688" xlink:href="#ArialMT-64"/>
     </g>
    </g>
   </g>
   <g id="matplotlib.axis_2">
    <g id="ytick_1">
     <g id="text_5">
      <!-- 0 -->
      <g style="fill:#262626;" transform="translate(-0.121875 107.741629)scale(0.2 -0.2)">
       <defs>
        <path d="M 266 2259 
Q 266 3072 433 3567 
Q 600 4063 929 4331 
Q 1259 4600 1759 4600 
Q 2128 4600 2406 4451 
Q 2684 4303 2865 4023 
Q 3047 3744 3150 3342 
Q 3253 2941 3253 2259 
Q 3253 1453 3087 958 
Q 2922 463 2592 192 
Q 2263 -78 1759 -78 
Q 1097 -78 719 397 
Q 266 969 266 2259 
z
M 844 2259 
Q 844 1131 1108 757 
Q 1372 384 1759 384 
Q 2147 384 2411 759 
Q 2675 1134 2675 2259 
Q 2675 3391 2411 3762 
Q 2147 4134 1753 4134 
Q 1366 4134 1134 3806 
Q 844 3388 844 2259 
z
" id="ArialMT-30" transform="scale(0.015625)"/>
       </defs>
       <use xlink:href="#ArialMT-30"/>
      </g>
     </g>
    </g>
    <g id="ytick_2">
     <g id="text_6">
      <!-- 1 -->
      <g style="fill:#262626;" transform="translate(-0.121875 52.472981)scale(0.2 -0.2)">
       <defs>
        <path d="M 2384 0 
L 1822 0 
L 1822 3584 
Q 1619 3391 1289 3197 
Q 959 3003 697 2906 
L 697 3450 
Q 1169 3672 1522 3987 
Q 1875 4303 2022 4600 
L 2384 4600 
L 2384 0 
z
" id="ArialMT-31" transform="scale(0.015625)"/>
       </defs>
       <use xlink:href="#ArialMT-31"/>
      </g>
     </g>
    </g>
    <g id="text_7">
     <!-- Predictions -->
     <g style="fill:#262626;" transform="translate(-8.096875 122.185625)rotate(-90)scale(0.2 -0.2)">
      <defs>
       <path d="M 494 0 
L 494 4581 
L 2222 4581 
Q 2678 4581 2919 4538 
Q 3256 4481 3484 4323 
Q 3713 4166 3852 3881 
Q 3991 3597 3991 3256 
Q 3991 2672 3619 2267 
Q 3247 1863 2275 1863 
L 1100 1863 
L 1100 0 
L 494 0 
z
M 1100 2403 
L 2284 2403 
Q 2872 2403 3119 2622 
Q 3366 2841 3366 3238 
Q 3366 3525 3220 3729 
Q 3075 3934 2838 4000 
Q 2684 4041 2272 4041 
L 1100 4041 
L 1100 2403 
z
" id="ArialMT-50" transform="scale(0.015625)"/>
       <path d="M 2588 1216 
L 3141 1144 
Q 3050 572 2676 248 
Q 2303 -75 1759 -75 
Q 1078 -75 664 370 
Q 250 816 250 1647 
Q 250 2184 428 2587 
Q 606 2991 970 3192 
Q 1334 3394 1763 3394 
Q 2303 3394 2647 3120 
Q 2991 2847 3088 2344 
L 2541 2259 
Q 2463 2594 2264 2762 
Q 2066 2931 1784 2931 
Q 1359 2931 1093 2626 
Q 828 2322 828 1663 
Q 828 994 1084 691 
Q 1341 388 1753 388 
Q 2084 388 2306 591 
Q 2528 794 2588 1216 
z
" id="ArialMT-63" transform="scale(0.015625)"/>
       <path d="M 197 991 
L 753 1078 
Q 800 744 1014 566 
Q 1228 388 1613 388 
Q 2000 388 2187 545 
Q 2375 703 2375 916 
Q 2375 1106 2209 1216 
Q 2094 1291 1634 1406 
Q 1016 1563 777 1677 
Q 538 1791 414 1992 
Q 291 2194 291 2438 
Q 291 2659 392 2848 
Q 494 3038 669 3163 
Q 800 3259 1026 3326 
Q 1253 3394 1513 3394 
Q 1903 3394 2198 3281 
Q 2494 3169 2634 2976 
Q 2775 2784 2828 2463 
L 2278 2388 
Q 2241 2644 2061 2787 
Q 1881 2931 1553 2931 
Q 1166 2931 1000 2803 
Q 834 2675 834 2503 
Q 834 2394 903 2306 
Q 972 2216 1119 2156 
Q 1203 2125 1616 2013 
Q 2213 1853 2448 1751 
Q 2684 1650 2818 1456 
Q 2953 1263 2953 975 
Q 2953 694 2789 445 
Q 2625 197 2315 61 
Q 2006 -75 1616 -75 
Q 969 -75 630 194 
Q 291 463 197 991 
z
" id="ArialMT-73" transform="scale(0.015625)"/>
      </defs>
      <use xlink:href="#ArialMT-50"/>
      <use x="66.699219" xlink:href="#ArialMT-72"/>
      <use x="100" xlink:href="#ArialMT-65"/>
      <use x="155.615234" xlink:href="#ArialMT-64"/>
      <use x="211.230469" xlink:href="#ArialMT-69"/>
      <use x="233.447266" xlink:href="#ArialMT-63"/>
      <use x="283.447266" xlink:href="#ArialMT-74"/>
      <use x="311.230469" xlink:href="#ArialMT-69"/>
      <use x="333.447266" xlink:href="#ArialMT-6f"/>
      <use x="389.0625" xlink:href="#ArialMT-6e"/>
      <use x="444.677734" xlink:href="#ArialMT-73"/>
     </g>
    </g>
   </g>
   <g id="PolyCollection_1">
    <defs>
     <path d="M 37.231995 -36.694185 
L 35.968005 -36.694185 
L 35.670744 -37.338908 
L 35.281449 -37.983631 
L 34.794226 -38.628354 
L 34.212681 -39.273077 
L 33.552616 -39.9178 
L 32.843192 -40.562523 
L 32.125837 -41.207246 
L 31.450592 -41.851969 
L 30.870192 -42.496692 
L 30.432812 -43.141415 
L 30.174863 -43.786138 
L 30.115381 -44.430861 
L 30.253206 -45.075584 
L 30.567578 -45.720307 
L 31.021929 -46.36503 
L 31.569965 -47.009753 
L 32.162692 -47.654476 
L 32.754966 -48.299199 
L 33.310445 -48.943922 
L 33.804355 -49.588645 
L 34.223973 -50.233368 
L 34.567273 -50.878091 
L 34.840348 -51.522814 
L 35.054358 -52.167537 
L 35.222605 -52.81226 
L 35.358154 -53.456983 
L 35.472219 -54.101706 
L 35.573319 -54.746429 
L 35.667094 -55.391152 
L 35.756609 -56.035875 
L 35.842936 -56.680598 
L 35.925829 -57.32532 
L 36.004365 -57.970043 
L 36.077456 -58.614766 
L 36.144185 -59.259489 
L 36.203966 -59.904212 
L 36.256557 -60.548935 
L 36.301967 -61.193658 
L 36.34032 -61.838381 
L 36.371721 -62.483104 
L 36.396173 -63.127827 
L 36.413577 -63.77255 
L 36.423802 -64.417273 
L 36.426822 -65.061996 
L 36.422873 -65.706719 
L 36.412587 -66.351442 
L 36.39706 -66.996165 
L 36.37782 -67.640888 
L 36.356702 -68.285611 
L 36.335646 -68.930334 
L 36.316465 -69.575057 
L 36.300638 -70.21978 
L 36.289176 -70.864503 
L 36.282596 -71.509226 
L 36.280991 -72.153949 
L 36.284162 -72.798672 
L 36.291782 -73.443395 
L 36.303503 -74.088118 
L 36.319014 -74.732841 
L 36.338005 -75.377564 
L 36.360093 -76.022287 
L 36.384736 -76.66701 
L 36.411175 -77.311733 
L 36.438451 -77.956456 
L 36.465481 -78.601179 
L 36.491185 -79.245902 
L 36.51462 -79.890625 
L 36.535095 -80.535348 
L 36.552229 -81.180071 
L 36.565945 -81.824794 
L 36.576423 -82.469517 
L 36.584009 -83.11424 
L 36.589121 -83.758963 
L 36.59216 -84.403686 
L 36.593449 -85.048409 
L 36.593194 -85.693132 
L 36.591486 -86.337855 
L 36.588325 -86.982578 
L 36.583664 -87.627301 
L 36.577476 -88.272024 
L 36.569821 -88.916747 
L 36.560913 -89.56147 
L 36.551153 -90.206193 
L 36.541139 -90.850916 
L 36.531626 -91.495639 
L 36.523441 -92.140362 
L 36.517372 -92.785085 
L 36.514042 -93.429808 
L 36.513809 -94.074531 
L 36.516698 -94.719254 
L 36.522398 -95.363977 
L 36.53032 -96.008699 
L 36.539693 -96.653422 
L 36.549691 -97.298145 
L 36.559548 -97.942868 
L 36.568649 -98.587591 
L 36.57658 -99.232314 
L 36.583137 -99.877037 
L 36.588296 -100.52176 
L 36.611704 -100.52176 
L 36.611704 -100.52176 
L 36.616863 -99.877037 
L 36.62342 -99.232314 
L 36.631351 -98.587591 
L 36.640452 -97.942868 
L 36.650309 -97.298145 
L 36.660307 -96.653422 
L 36.66968 -96.008699 
L 36.677602 -95.363977 
L 36.683302 -94.719254 
L 36.686191 -94.074531 
L 36.685958 -93.429808 
L 36.682628 -92.785085 
L 36.676559 -92.140362 
L 36.668374 -91.495639 
L 36.658861 -90.850916 
L 36.648847 -90.206193 
L 36.639087 -89.56147 
L 36.630179 -88.916747 
L 36.622524 -88.272024 
L 36.616336 -87.627301 
L 36.611675 -86.982578 
L 36.608514 -86.337855 
L 36.606806 -85.693132 
L 36.606551 -85.048409 
L 36.60784 -84.403686 
L 36.610879 -83.758963 
L 36.615991 -83.11424 
L 36.623577 -82.469517 
L 36.634055 -81.824794 
L 36.647771 -81.180071 
L 36.664905 -80.535348 
L 36.68538 -79.890625 
L 36.708815 -79.245902 
L 36.734519 -78.601179 
L 36.761549 -77.956456 
L 36.788825 -77.311733 
L 36.815264 -76.66701 
L 36.839907 -76.022287 
L 36.861995 -75.377564 
L 36.880986 -74.732841 
L 36.896497 -74.088118 
L 36.908218 -73.443395 
L 36.915838 -72.798672 
L 36.919009 -72.153949 
L 36.917404 -71.509226 
L 36.910824 -70.864503 
L 36.899362 -70.21978 
L 36.883535 -69.575057 
L 36.864354 -68.930334 
L 36.843298 -68.285611 
L 36.82218 -67.640888 
L 36.80294 -66.996165 
L 36.787413 -66.351442 
L 36.777127 -65.706719 
L 36.773178 -65.061996 
L 36.776198 -64.417273 
L 36.786423 -63.77255 
L 36.803827 -63.127827 
L 36.828279 -62.483104 
L 36.85968 -61.838381 
L 36.898033 -61.193658 
L 36.943443 -60.548935 
L 36.996034 -59.904212 
L 37.055815 -59.259489 
L 37.122544 -58.614766 
L 37.195635 -57.970043 
L 37.274171 -57.32532 
L 37.357064 -56.680598 
L 37.443391 -56.035875 
L 37.532906 -55.391152 
L 37.626681 -54.746429 
L 37.727781 -54.101706 
L 37.841846 -53.456983 
L 37.977395 -52.81226 
L 38.145642 -52.167537 
L 38.359652 -51.522814 
L 38.632727 -50.878091 
L 38.976027 -50.233368 
L 39.395645 -49.588645 
L 39.889555 -48.943922 
L 40.445034 -48.299199 
L 41.037308 -47.654476 
L 41.630035 -47.009753 
L 42.178071 -46.36503 
L 42.632422 -45.720307 
L 42.946794 -45.075584 
L 43.084619 -44.430861 
L 43.025137 -43.786138 
L 42.767188 -43.141415 
L 42.329808 -42.496692 
L 41.749408 -41.851969 
L 41.074163 -41.207246 
L 40.356808 -40.562523 
L 39.647384 -39.9178 
L 38.987319 -39.273077 
L 38.405774 -38.628354 
L 37.918551 -37.983631 
L 37.529256 -37.338908 
L 37.231995 -36.694185 
z
" id="m03990c5292" style="stroke:#262626;stroke-width:0.75;"/>
    </defs>
    <g clip-path="url(#pa3905aab9d)">
     <use style="fill:#7f9dd2;stroke:#262626;stroke-width:0.75;" x="0" xlink:href="#m03990c5292" y="144"/>
    </g>
   </g>
   <g id="PolyCollection_2">
    <defs>
     <path d="M 74.698816 -41.999216 
L 72.901184 -41.999216 
L 70.017121 -42.545535 
L 64.408373 -43.091853 
L 59.39113 -43.638172 
L 58.92 -44.184491 
L 61.919342 -44.73081 
L 65.143599 -45.277129 
L 67.313105 -45.823448 
L 68.613965 -46.369767 
L 69.458055 -46.916086 
L 70.101932 -47.462404 
L 70.633907 -48.008723 
L 71.057451 -48.555042 
L 71.372893 -49.101361 
L 71.60666 -49.64768 
L 71.794491 -50.193999 
L 71.95999 -50.740318 
L 72.107 -51.286637 
L 72.234989 -51.832955 
L 72.348757 -52.379274 
L 72.449176 -52.925593 
L 72.533495 -53.471912 
L 72.603872 -54.018231 
L 72.665436 -54.56455 
L 72.719005 -55.110869 
L 72.762528 -55.657188 
L 72.799434 -56.203506 
L 72.835368 -56.749825 
L 72.869789 -57.296144 
L 72.899688 -57.842463 
L 72.929591 -58.388782 
L 72.968443 -58.935101 
L 73.015918 -59.48142 
L 73.06266 -60.027739 
L 73.10232 -60.574058 
L 73.13593 -61.120376 
L 73.168323 -61.666695 
L 73.202133 -62.213014 
L 73.234643 -62.759333 
L 73.262575 -63.305652 
L 73.28723 -63.851971 
L 73.312057 -64.39829 
L 73.335535 -64.944609 
L 73.354197 -65.490927 
L 73.370065 -66.037246 
L 73.385026 -66.583565 
L 73.399674 -67.129884 
L 73.416669 -67.676203 
L 73.434818 -68.222522 
L 73.450115 -68.768841 
L 73.461739 -69.31516 
L 73.471731 -69.861478 
L 73.482211 -70.407797 
L 73.492217 -70.954116 
L 73.500596 -71.500435 
L 73.50779 -72.046754 
L 73.512431 -72.593073 
L 73.514078 -73.139392 
L 73.515482 -73.685711 
L 73.519264 -74.232029 
L 73.525078 -74.778348 
L 73.530024 -75.324667 
L 73.532963 -75.870986 
L 73.53714 -76.417305 
L 73.544606 -76.963624 
L 73.552233 -77.509943 
L 73.557607 -78.056262 
L 73.562641 -78.60258 
L 73.569543 -79.148899 
L 73.578032 -79.695218 
L 73.588107 -80.241537 
L 73.59997 -80.787856 
L 73.609514 -81.334175 
L 73.613481 -81.880494 
L 73.615496 -82.426813 
L 73.619676 -82.973131 
L 73.62535 -83.51945 
L 73.630641 -84.065769 
L 73.635937 -84.612088 
L 73.64228 -85.158407 
L 73.649358 -85.704726 
L 73.656716 -86.251045 
L 73.664847 -86.797364 
L 73.674303 -87.343682 
L 73.685308 -87.890001 
L 73.698309 -88.43632 
L 73.713014 -88.982639 
L 73.727754 -89.528958 
L 73.74107 -90.075277 
L 73.752972 -90.621596 
L 73.76365 -91.167915 
L 73.772737 -91.714233 
L 73.78041 -92.260552 
L 73.787098 -92.806871 
L 73.792408 -93.35319 
L 73.795954 -93.899509 
L 73.798063 -94.445828 
L 73.799216 -94.992147 
L 73.799756 -95.538466 
L 73.799948 -96.084784 
L 73.800052 -96.084784 
L 73.800052 -96.084784 
L 73.800244 -95.538466 
L 73.800784 -94.992147 
L 73.801937 -94.445828 
L 73.804046 -93.899509 
L 73.807592 -93.35319 
L 73.812902 -92.806871 
L 73.81959 -92.260552 
L 73.827263 -91.714233 
L 73.83635 -91.167915 
L 73.847028 -90.621596 
L 73.85893 -90.075277 
L 73.872246 -89.528958 
L 73.886986 -88.982639 
L 73.901691 -88.43632 
L 73.914692 -87.890001 
L 73.925697 -87.343682 
L 73.935153 -86.797364 
L 73.943284 -86.251045 
L 73.950642 -85.704726 
L 73.95772 -85.158407 
L 73.964063 -84.612088 
L 73.969359 -84.065769 
L 73.97465 -83.51945 
L 73.980324 -82.973131 
L 73.984504 -82.426813 
L 73.986519 -81.880494 
L 73.990486 -81.334175 
L 74.00003 -80.787856 
L 74.011893 -80.241537 
L 74.021968 -79.695218 
L 74.030457 -79.148899 
L 74.037359 -78.60258 
L 74.042393 -78.056262 
L 74.047767 -77.509943 
L 74.055394 -76.963624 
L 74.06286 -76.417305 
L 74.067037 -75.870986 
L 74.069976 -75.324667 
L 74.074922 -74.778348 
L 74.080736 -74.232029 
L 74.084518 -73.685711 
L 74.085922 -73.139392 
L 74.087569 -72.593073 
L 74.09221 -72.046754 
L 74.099404 -71.500435 
L 74.107783 -70.954116 
L 74.117789 -70.407797 
L 74.128269 -69.861478 
L 74.138261 -69.31516 
L 74.149885 -68.768841 
L 74.165182 -68.222522 
L 74.183331 -67.676203 
L 74.200326 -67.129884 
L 74.214974 -66.583565 
L 74.229935 -66.037246 
L 74.245803 -65.490927 
L 74.264465 -64.944609 
L 74.287943 -64.39829 
L 74.31277 -63.851971 
L 74.337425 -63.305652 
L 74.365357 -62.759333 
L 74.397867 -62.213014 
L 74.431677 -61.666695 
L 74.46407 -61.120376 
L 74.49768 -60.574058 
L 74.53734 -60.027739 
L 74.584082 -59.48142 
L 74.631557 -58.935101 
L 74.670409 -58.388782 
L 74.700312 -57.842463 
L 74.730211 -57.296144 
L 74.764632 -56.749825 
L 74.800566 -56.203506 
L 74.837472 -55.657188 
L 74.880995 -55.110869 
L 74.934564 -54.56455 
L 74.996128 -54.018231 
L 75.066505 -53.471912 
L 75.150824 -52.925593 
L 75.251243 -52.379274 
L 75.365011 -51.832955 
L 75.493 -51.286637 
L 75.64001 -50.740318 
L 75.805509 -50.193999 
L 75.99334 -49.64768 
L 76.227107 -49.101361 
L 76.542549 -48.555042 
L 76.966093 -48.008723 
L 77.498068 -47.462404 
L 78.141945 -46.916086 
L 78.986035 -46.369767 
L 80.286895 -45.823448 
L 82.456401 -45.277129 
L 85.680658 -44.73081 
L 88.68 -44.184491 
L 88.20887 -43.638172 
L 83.191627 -43.091853 
L 77.582879 -42.545535 
L 74.698816 -41.999216 
z
" id="m3851ec13f6" style="stroke:#262626;stroke-width:0.75;"/>
    </defs>
    <g clip-path="url(#pa3905aab9d)">
     <use style="fill:#1a1a66;stroke:#262626;stroke-width:0.75;" x="0" xlink:href="#m3851ec13f6" y="144"/>
    </g>
   </g>
   <g id="PolyCollection_3">
    <defs>
     <path d="M 111.101748 -20.88 
L 110.898252 -20.88 
L 110.8829 -21.898182 
L 110.865887 -22.916364 
L 110.847147 -23.934545 
L 110.826632 -24.952727 
L 110.804313 -25.970909 
L 110.780186 -26.989091 
L 110.754272 -28.007273 
L 110.726619 -29.025455 
L 110.697307 -30.043636 
L 110.666448 -31.061818 
L 110.634183 -32.08 
L 110.600689 -33.098182 
L 110.566171 -34.116364 
L 110.530862 -35.134545 
L 110.495022 -36.152727 
L 110.458932 -37.170909 
L 110.422888 -38.189091 
L 110.387198 -39.207273 
L 110.352172 -40.225455 
L 110.31812 -41.243636 
L 110.285339 -42.261818 
L 110.254109 -43.28 
L 110.224683 -44.298182 
L 110.197286 -45.316364 
L 110.172101 -46.334545 
L 110.149268 -47.352727 
L 110.128879 -48.370909 
L 110.110975 -49.389091 
L 110.095542 -50.407273 
L 110.082516 -51.425455 
L 110.071778 -52.443636 
L 110.063163 -53.461818 
L 110.05646 -54.48 
L 110.051421 -55.498182 
L 110.047766 -56.516364 
L 110.045191 -57.534545 
L 110.043381 -58.552727 
L 110.042012 -59.570909 
L 110.040767 -60.589091 
L 110.039344 -61.607273 
L 110.037463 -62.625455 
L 110.034876 -63.643636 
L 110.031373 -64.661818 
L 110.026792 -65.68 
L 110.021018 -66.698182 
L 110.013994 -67.716364 
L 110.005716 -68.734545 
L 109.996238 -69.752727 
L 109.985667 -70.770909 
L 109.974166 -71.789091 
L 109.961944 -72.807273 
L 109.949255 -73.825455 
L 109.936388 -74.843636 
L 109.923663 -75.861818 
L 109.911422 -76.88 
L 109.900018 -77.898182 
L 109.88981 -78.916364 
L 109.881153 -79.934545 
L 109.874388 -80.952727 
L 109.869835 -81.970909 
L 109.867789 -82.989091 
L 109.868505 -84.007273 
L 109.8722 -85.025455 
L 109.879045 -86.043636 
L 109.889163 -87.061818 
L 109.902623 -88.08 
L 109.919443 -89.098182 
L 109.939589 -90.116364 
L 109.962972 -91.134545 
L 109.989458 -92.152727 
L 110.018865 -93.170909 
L 110.050969 -94.189091 
L 110.085509 -95.207273 
L 110.122197 -96.225455 
L 110.160715 -97.243636 
L 110.200731 -98.261818 
L 110.241899 -99.28 
L 110.283869 -100.298182 
L 110.326292 -101.316364 
L 110.368829 -102.334545 
L 110.41115 -103.352727 
L 110.452948 -104.370909 
L 110.493935 -105.389091 
L 110.53385 -106.407273 
L 110.572463 -107.425455 
L 110.609573 -108.443636 
L 110.645013 -109.461818 
L 110.678646 -110.48 
L 110.710372 -111.498182 
L 110.740117 -112.516364 
L 110.767842 -113.534545 
L 110.793533 -114.552727 
L 110.817202 -115.570909 
L 110.838884 -116.589091 
L 110.858634 -117.607273 
L 110.876524 -118.625455 
L 110.892639 -119.643636 
L 110.907076 -120.661818 
L 110.919939 -121.68 
L 111.080061 -121.68 
L 111.080061 -121.68 
L 111.092924 -120.661818 
L 111.107361 -119.643636 
L 111.123476 -118.625455 
L 111.141366 -117.607273 
L 111.161116 -116.589091 
L 111.182798 -115.570909 
L 111.206467 -114.552727 
L 111.232158 -113.534545 
L 111.259883 -112.516364 
L 111.289628 -111.498182 
L 111.321354 -110.48 
L 111.354987 -109.461818 
L 111.390427 -108.443636 
L 111.427537 -107.425455 
L 111.46615 -106.407273 
L 111.506065 -105.389091 
L 111.547052 -104.370909 
L 111.58885 -103.352727 
L 111.631171 -102.334545 
L 111.673708 -101.316364 
L 111.716131 -100.298182 
L 111.758101 -99.28 
L 111.799269 -98.261818 
L 111.839285 -97.243636 
L 111.877803 -96.225455 
L 111.914491 -95.207273 
L 111.949031 -94.189091 
L 111.981135 -93.170909 
L 112.010542 -92.152727 
L 112.037028 -91.134545 
L 112.060411 -90.116364 
L 112.080557 -89.098182 
L 112.097377 -88.08 
L 112.110837 -87.061818 
L 112.120955 -86.043636 
L 112.1278 -85.025455 
L 112.131495 -84.007273 
L 112.132211 -82.989091 
L 112.130165 -81.970909 
L 112.125612 -80.952727 
L 112.118847 -79.934545 
L 112.11019 -78.916364 
L 112.099982 -77.898182 
L 112.088578 -76.88 
L 112.076337 -75.861818 
L 112.063612 -74.843636 
L 112.050745 -73.825455 
L 112.038056 -72.807273 
L 112.025834 -71.789091 
L 112.014333 -70.770909 
L 112.003762 -69.752727 
L 111.994284 -68.734545 
L 111.986006 -67.716364 
L 111.978982 -66.698182 
L 111.973208 -65.68 
L 111.968627 -64.661818 
L 111.965124 -63.643636 
L 111.962537 -62.625455 
L 111.960656 -61.607273 
L 111.959233 -60.589091 
L 111.957988 -59.570909 
L 111.956619 -58.552727 
L 111.954809 -57.534545 
L 111.952234 -56.516364 
L 111.948579 -55.498182 
L 111.94354 -54.48 
L 111.936837 -53.461818 
L 111.928222 -52.443636 
L 111.917484 -51.425455 
L 111.904458 -50.407273 
L 111.889025 -49.389091 
L 111.871121 -48.370909 
L 111.850732 -47.352727 
L 111.827899 -46.334545 
L 111.802714 -45.316364 
L 111.775317 -44.298182 
L 111.745891 -43.28 
L 111.714661 -42.261818 
L 111.68188 -41.243636 
L 111.647828 -40.225455 
L 111.612802 -39.207273 
L 111.577112 -38.189091 
L 111.541068 -37.170909 
L 111.504978 -36.152727 
L 111.469138 -35.134545 
L 111.433829 -34.116364 
L 111.399311 -33.098182 
L 111.365817 -32.08 
L 111.333552 -31.061818 
L 111.302693 -30.043636 
L 111.273381 -29.025455 
L 111.245728 -28.007273 
L 111.219814 -26.989091 
L 111.195687 -25.970909 
L 111.173368 -24.952727 
L 111.152853 -23.934545 
L 111.134113 -22.916364 
L 111.1171 -21.898182 
L 111.101748 -20.88 
z
" id="mfa9a57003b" style="stroke:#262626;stroke-width:0.75;"/>
    </defs>
    <g clip-path="url(#pa3905aab9d)">
     <use style="fill:#cc8733;stroke:#262626;stroke-width:0.75;" x="0" xlink:href="#mfa9a57003b" y="144"/>
    </g>
   </g>
   <g id="line2d_1">
    <path clip-path="url(#pa3905aab9d)" d="M 36.6 100.583684 
L 36.6 91.242021 
" style="fill:none;stroke:#262626;stroke-linecap:round;stroke-width:0.75;"/>
   </g>
   <g id="line2d_2">
    <path clip-path="url(#pa3905aab9d)" d="M 36.6 100.48427 
L 36.6 96.647457 
" style="fill:none;stroke:#262626;stroke-linecap:round;stroke-width:2.25;"/>
   </g>
   <g id="line2d_3">
    <path clip-path="url(#pa3905aab9d)" d="M 73.8 100.583797 
L 73.8 80.937734 
" style="fill:none;stroke:#262626;stroke-linecap:round;stroke-width:0.75;"/>
   </g>
   <g id="line2d_4">
    <path clip-path="url(#pa3905aab9d)" d="M 73.8 100.046052 
L 73.8 92.4027 
" style="fill:none;stroke:#262626;stroke-linecap:round;stroke-width:2.25;"/>
   </g>
   <g id="line2d_5">
    <path clip-path="url(#pa3905aab9d)" d="M 111 94.108467 
L 111 51.331533 
" style="fill:none;stroke:#262626;stroke-linecap:round;stroke-width:0.75;"/>
   </g>
   <g id="line2d_6">
    <path clip-path="url(#pa3905aab9d)" d="M 111 93.122101 
L 111 57.058968 
" style="fill:none;stroke:#262626;stroke-linecap:round;stroke-width:2.25;"/>
   </g>
   <g id="patch_3">
    <path d="M 18 128.16 
L 18 17.28 
" style="fill:none;stroke:#262626;stroke-linecap:square;stroke-linejoin:miter;stroke-width:0.8;"/>
   </g>
   <g id="patch_4">
    <path d="M 18 128.16 
L 129.6 128.16 
" style="fill:none;stroke:#262626;stroke-linecap:square;stroke-linejoin:miter;stroke-width:0.8;"/>
   </g>
   <g id="PathCollection_1">
    <defs>
     <path d="M 0 0.75 
C 0.198902 0.75 0.389685 0.670975 0.53033 0.53033 
C 0.670975 0.389685 0.75 0.198902 0.75 0 
C 0.75 -0.198902 0.670975 -0.389685 0.53033 -0.53033 
C 0.389685 -0.670975 0.198902 -0.75 0 -0.75 
C -0.198902 -0.75 -0.389685 -0.670975 -0.53033 -0.53033 
C -0.670975 -0.389685 -0.75 -0.198902 -0.75 0 
C -0.75 0.198902 -0.670975 0.389685 -0.53033 0.53033 
C -0.389685 0.670975 -0.198902 0.75 0 0.75 
z
" id="m33c208d419" style="stroke:#262626;"/>
    </defs>
    <g clip-path="url(#pa3905aab9d)">
     <use style="fill:#ffffff;stroke:#262626;" x="36.6" xlink:href="#m33c208d419" y="99.957992"/>
    </g>
   </g>
   <g id="PathCollection_2">
    <g clip-path="url(#pa3905aab9d)">
     <use style="fill:#ffffff;stroke:#262626;" x="73.8" xlink:href="#m33c208d419" y="98.352932"/>
    </g>
   </g>
   <g id="PathCollection_3">
    <g clip-path="url(#pa3905aab9d)">
     <use style="fill:#ffffff;stroke:#262626;" x="111" xlink:href="#m33c208d419" y="67.638348"/>
    </g>
   </g>
   <g id="text_8">
    <!-- Classa -->
    <g style="fill:#262626;" transform="translate(37.12125 11.28)scale(0.24 -0.24)">
     <defs>
      <path d="M 3763 1606 
L 4369 1453 
Q 4178 706 3683 314 
Q 3188 -78 2472 -78 
Q 1731 -78 1267 223 
Q 803 525 561 1097 
Q 319 1669 319 2325 
Q 319 3041 592 3573 
Q 866 4106 1370 4382 
Q 1875 4659 2481 4659 
Q 3169 4659 3637 4309 
Q 4106 3959 4291 3325 
L 3694 3184 
Q 3534 3684 3231 3912 
Q 2928 4141 2469 4141 
Q 1941 4141 1586 3887 
Q 1231 3634 1087 3207 
Q 944 2781 944 2328 
Q 944 1744 1114 1308 
Q 1284 872 1643 656 
Q 2003 441 2422 441 
Q 2931 441 3284 734 
Q 3638 1028 3763 1606 
z
" id="ArialMT-43" transform="scale(0.015625)"/>
     </defs>
     <use xlink:href="#ArialMT-43"/>
     <use x="72.216797" xlink:href="#ArialMT-6c"/>
     <use x="94.433594" xlink:href="#ArialMT-61"/>
     <use x="150.048828" xlink:href="#ArialMT-73"/>
     <use x="200.048828" xlink:href="#ArialMT-73"/>
     <use x="250.048828" xlink:href="#ArialMT-61"/>
    </g>
   </g>
  </g>
 </g>
 <defs>
  <clipPath id="pa3905aab9d">
   <rect height="110.88" width="111.6" x="18" y="17.28"/>
  </clipPath>
 </defs>
</svg>
