<?xml version="1.0" encoding="utf-8" standalone="no"?>
<!DOCTYPE svg PUBLIC "-//W3C//DTD SVG 1.1//EN"
  "http://www.w3.org/Graphics/SVG/1.1/DTD/svg11.dtd">
<svg height="144pt" version="1.1" viewBox="0 0 144 144" width="144pt" xmlns="http://www.w3.org/2000/svg" xmlns:xlink="http://www.w3.org/1999/xlink">
 <metadata>
  <rdf:RDF xmlns:cc="http://creativecommons.org/ns#" xmlns:dc="http://purl.org/dc/elements/1.1/" xmlns:rdf="http://www.w3.org/1999/02/22-rdf-syntax-ns#">
   <cc:Work>
    <dc:type rdf:resource="http://purl.org/dc/dcmitype/StillImage"/>
    <dc:date>2022-12-17T13:47:13.746133</dc:date>
    <dc:format>image/svg+xml</dc:format>
    <dc:creator>
     <cc:Agent>
      <dc:title>Matplotlib v3.4.2, https://matplotlib.org/</dc:title>
     </cc:Agent>
    </dc:creator>
   </cc:Work>
  </rdf:RDF>
 </metadata>
 <defs>
  <style type="text/css">*{stroke-linecap:butt;stroke-linejoin:round;}</style>
 </defs>
 <g id="figure_1">
  <g id="patch_1">
   <path d="M 0 144 
L 144 144 
L 144 0 
L 0 0 
z
" style="fill:#ffffff;"/>
  </g>
  <g id="axes_1">
   <g id="patch_2">
    <path d="M 18 128.16 
L 129.6 128.16 
L 129.6 17.28 
L 18 17.28 
z
" style="fill:#ffffff;"/>
   </g>
   <g id="matplotlib.axis_1">
    <g id="xtick_1">
     <g id="text_1">
      <!-- Original -->
      <g style="fill:#262626;" transform="translate(41.78125 204.0725)rotate(-90)scale(0.2 -0.2)">
       <defs>
        <path d="M 309 2231 
Q 309 3372 921 4017 
Q 1534 4663 2503 4663 
Q 3138 4663 3647 4359 
Q 4156 4056 4423 3514 
Q 4691 2972 4691 2284 
Q 4691 1588 4409 1038 
Q 4128 488 3612 205 
Q 3097 -78 2500 -78 
Q 1853 -78 1343 234 
Q 834 547 571 1087 
Q 309 1628 309 2231 
z
M 934 2222 
Q 934 1394 1379 917 
Q 1825 441 2497 441 
Q 3181 441 3623 922 
Q 4066 1403 4066 2288 
Q 4066 2847 3877 3264 
Q 3688 3681 3323 3911 
Q 2959 4141 2506 4141 
Q 1863 4141 1398 3698 
Q 934 3256 934 2222 
z
" id="ArialMT-4f" transform="scale(0.015625)"/>
        <path d="M 416 0 
L 416 3319 
L 922 3319 
L 922 2816 
Q 1116 3169 1280 3281 
Q 1444 3394 1641 3394 
Q 1925 3394 2219 3213 
L 2025 2691 
Q 1819 2813 1613 2813 
Q 1428 2813 1281 2702 
Q 1134 2591 1072 2394 
Q 978 2094 978 1738 
L 978 0 
L 416 0 
z
" id="ArialMT-72" transform="scale(0.015625)"/>
        <path d="M 425 3934 
L 425 4581 
L 988 4581 
L 988 3934 
L 425 3934 
z
M 425 0 
L 425 3319 
L 988 3319 
L 988 0 
L 425 0 
z
" id="ArialMT-69" transform="scale(0.015625)"/>
        <path d="M 319 -275 
L 866 -356 
Q 900 -609 1056 -725 
Q 1266 -881 1628 -881 
Q 2019 -881 2231 -725 
Q 2444 -569 2519 -288 
Q 2563 -116 2559 434 
Q 2191 0 1641 0 
Q 956 0 581 494 
Q 206 988 206 1678 
Q 206 2153 378 2554 
Q 550 2956 876 3175 
Q 1203 3394 1644 3394 
Q 2231 3394 2613 2919 
L 2613 3319 
L 3131 3319 
L 3131 450 
Q 3131 -325 2973 -648 
Q 2816 -972 2473 -1159 
Q 2131 -1347 1631 -1347 
Q 1038 -1347 672 -1080 
Q 306 -813 319 -275 
z
M 784 1719 
Q 784 1066 1043 766 
Q 1303 466 1694 466 
Q 2081 466 2343 764 
Q 2606 1063 2606 1700 
Q 2606 2309 2336 2618 
Q 2066 2928 1684 2928 
Q 1309 2928 1046 2623 
Q 784 2319 784 1719 
z
" id="ArialMT-67" transform="scale(0.015625)"/>
        <path d="M 422 0 
L 422 3319 
L 928 3319 
L 928 2847 
Q 1294 3394 1984 3394 
Q 2284 3394 2536 3286 
Q 2788 3178 2913 3003 
Q 3038 2828 3088 2588 
Q 3119 2431 3119 2041 
L 3119 0 
L 2556 0 
L 2556 2019 
Q 2556 2363 2490 2533 
Q 2425 2703 2258 2804 
Q 2091 2906 1866 2906 
Q 1506 2906 1245 2678 
Q 984 2450 984 1813 
L 984 0 
L 422 0 
z
" id="ArialMT-6e" transform="scale(0.015625)"/>
        <path d="M 2588 409 
Q 2275 144 1986 34 
Q 1697 -75 1366 -75 
Q 819 -75 525 192 
Q 231 459 231 875 
Q 231 1119 342 1320 
Q 453 1522 633 1644 
Q 813 1766 1038 1828 
Q 1203 1872 1538 1913 
Q 2219 1994 2541 2106 
Q 2544 2222 2544 2253 
Q 2544 2597 2384 2738 
Q 2169 2928 1744 2928 
Q 1347 2928 1158 2789 
Q 969 2650 878 2297 
L 328 2372 
Q 403 2725 575 2942 
Q 747 3159 1072 3276 
Q 1397 3394 1825 3394 
Q 2250 3394 2515 3294 
Q 2781 3194 2906 3042 
Q 3031 2891 3081 2659 
Q 3109 2516 3109 2141 
L 3109 1391 
Q 3109 606 3145 398 
Q 3181 191 3288 0 
L 2700 0 
Q 2613 175 2588 409 
z
M 2541 1666 
Q 2234 1541 1622 1453 
Q 1275 1403 1131 1340 
Q 988 1278 909 1158 
Q 831 1038 831 891 
Q 831 666 1001 516 
Q 1172 366 1500 366 
Q 1825 366 2078 508 
Q 2331 650 2450 897 
Q 2541 1088 2541 1459 
L 2541 1666 
z
" id="ArialMT-61" transform="scale(0.015625)"/>
        <path d="M 409 0 
L 409 4581 
L 972 4581 
L 972 0 
L 409 0 
z
" id="ArialMT-6c" transform="scale(0.015625)"/>
       </defs>
       <use xlink:href="#ArialMT-4f"/>
       <use x="77.783203" xlink:href="#ArialMT-72"/>
       <use x="111.083984" xlink:href="#ArialMT-69"/>
       <use x="133.300781" xlink:href="#ArialMT-67"/>
       <use x="188.916016" xlink:href="#ArialMT-69"/>
       <use x="211.132812" xlink:href="#ArialMT-6e"/>
       <use x="266.748047" xlink:href="#ArialMT-61"/>
       <use x="322.363281" xlink:href="#ArialMT-6c"/>
      </g>
     </g>
    </g>
    <g id="xtick_2">
     <g id="text_2">
      <!-- Mutated -->
      <g style="fill:#262626;" transform="translate(78.970312 207.419375)rotate(-90)scale(0.2 -0.2)">
       <defs>
        <path d="M 475 0 
L 475 4581 
L 1388 4581 
L 2472 1338 
Q 2622 884 2691 659 
Q 2769 909 2934 1394 
L 4031 4581 
L 4847 4581 
L 4847 0 
L 4263 0 
L 4263 3834 
L 2931 0 
L 2384 0 
L 1059 3900 
L 1059 0 
L 475 0 
z
" id="ArialMT-4d" transform="scale(0.015625)"/>
        <path d="M 2597 0 
L 2597 488 
Q 2209 -75 1544 -75 
Q 1250 -75 995 37 
Q 741 150 617 320 
Q 494 491 444 738 
Q 409 903 409 1263 
L 409 3319 
L 972 3319 
L 972 1478 
Q 972 1038 1006 884 
Q 1059 663 1231 536 
Q 1403 409 1656 409 
Q 1909 409 2131 539 
Q 2353 669 2445 892 
Q 2538 1116 2538 1541 
L 2538 3319 
L 3100 3319 
L 3100 0 
L 2597 0 
z
" id="ArialMT-75" transform="scale(0.015625)"/>
        <path d="M 1650 503 
L 1731 6 
Q 1494 -44 1306 -44 
Q 1000 -44 831 53 
Q 663 150 594 308 
Q 525 466 525 972 
L 525 2881 
L 113 2881 
L 113 3319 
L 525 3319 
L 525 4141 
L 1084 4478 
L 1084 3319 
L 1650 3319 
L 1650 2881 
L 1084 2881 
L 1084 941 
Q 1084 700 1114 631 
Q 1144 563 1211 522 
Q 1278 481 1403 481 
Q 1497 481 1650 503 
z
" id="ArialMT-74" transform="scale(0.015625)"/>
        <path d="M 2694 1069 
L 3275 997 
Q 3138 488 2766 206 
Q 2394 -75 1816 -75 
Q 1088 -75 661 373 
Q 234 822 234 1631 
Q 234 2469 665 2931 
Q 1097 3394 1784 3394 
Q 2450 3394 2872 2941 
Q 3294 2488 3294 1666 
Q 3294 1616 3291 1516 
L 816 1516 
Q 847 969 1125 678 
Q 1403 388 1819 388 
Q 2128 388 2347 550 
Q 2566 713 2694 1069 
z
M 847 1978 
L 2700 1978 
Q 2663 2397 2488 2606 
Q 2219 2931 1791 2931 
Q 1403 2931 1139 2672 
Q 875 2413 847 1978 
z
" id="ArialMT-65" transform="scale(0.015625)"/>
        <path d="M 2575 0 
L 2575 419 
Q 2259 -75 1647 -75 
Q 1250 -75 917 144 
Q 584 363 401 755 
Q 219 1147 219 1656 
Q 219 2153 384 2558 
Q 550 2963 881 3178 
Q 1213 3394 1622 3394 
Q 1922 3394 2156 3267 
Q 2391 3141 2538 2938 
L 2538 4581 
L 3097 4581 
L 3097 0 
L 2575 0 
z
M 797 1656 
Q 797 1019 1065 703 
Q 1334 388 1700 388 
Q 2069 388 2326 689 
Q 2584 991 2584 1609 
Q 2584 2291 2321 2609 
Q 2059 2928 1675 2928 
Q 1300 2928 1048 2622 
Q 797 2316 797 1656 
z
" id="ArialMT-64" transform="scale(0.015625)"/>
       </defs>
       <use xlink:href="#ArialMT-4d"/>
       <use x="83.300781" xlink:href="#ArialMT-75"/>
       <use x="138.916016" xlink:href="#ArialMT-74"/>
       <use x="166.699219" xlink:href="#ArialMT-61"/>
       <use x="222.314453" xlink:href="#ArialMT-74"/>
       <use x="250.097656" xlink:href="#ArialMT-65"/>
       <use x="305.712891" xlink:href="#ArialMT-64"/>
      </g>
     </g>
    </g>
    <g id="xtick_3">
     <g id="text_3">
      <!-- STORM -->
      <g style="fill:#262626;" transform="translate(116.170312 207.025625)rotate(-90)scale(0.2 -0.2)">
       <defs>
        <path d="M 288 1472 
L 859 1522 
Q 900 1178 1048 958 
Q 1197 738 1509 602 
Q 1822 466 2213 466 
Q 2559 466 2825 569 
Q 3091 672 3220 851 
Q 3350 1031 3350 1244 
Q 3350 1459 3225 1620 
Q 3100 1781 2813 1891 
Q 2628 1963 1997 2114 
Q 1366 2266 1113 2400 
Q 784 2572 623 2826 
Q 463 3081 463 3397 
Q 463 3744 659 4045 
Q 856 4347 1234 4503 
Q 1613 4659 2075 4659 
Q 2584 4659 2973 4495 
Q 3363 4331 3572 4012 
Q 3781 3694 3797 3291 
L 3216 3247 
Q 3169 3681 2898 3903 
Q 2628 4125 2100 4125 
Q 1550 4125 1298 3923 
Q 1047 3722 1047 3438 
Q 1047 3191 1225 3031 
Q 1400 2872 2139 2705 
Q 2878 2538 3153 2413 
Q 3553 2228 3743 1945 
Q 3934 1663 3934 1294 
Q 3934 928 3725 604 
Q 3516 281 3123 101 
Q 2731 -78 2241 -78 
Q 1619 -78 1198 103 
Q 778 284 539 648 
Q 300 1013 288 1472 
z
" id="ArialMT-53" transform="scale(0.015625)"/>
        <path d="M 1659 0 
L 1659 4041 
L 150 4041 
L 150 4581 
L 3781 4581 
L 3781 4041 
L 2266 4041 
L 2266 0 
L 1659 0 
z
" id="ArialMT-54" transform="scale(0.015625)"/>
        <path d="M 503 0 
L 503 4581 
L 2534 4581 
Q 3147 4581 3465 4457 
Q 3784 4334 3975 4021 
Q 4166 3709 4166 3331 
Q 4166 2844 3850 2509 
Q 3534 2175 2875 2084 
Q 3116 1969 3241 1856 
Q 3506 1613 3744 1247 
L 4541 0 
L 3778 0 
L 3172 953 
Q 2906 1366 2734 1584 
Q 2563 1803 2427 1890 
Q 2291 1978 2150 2013 
Q 2047 2034 1813 2034 
L 1109 2034 
L 1109 0 
L 503 0 
z
M 1109 2559 
L 2413 2559 
Q 2828 2559 3062 2645 
Q 3297 2731 3419 2920 
Q 3541 3109 3541 3331 
Q 3541 3656 3305 3865 
Q 3069 4075 2559 4075 
L 1109 4075 
L 1109 2559 
z
" id="ArialMT-52" transform="scale(0.015625)"/>
       </defs>
       <use xlink:href="#ArialMT-53"/>
       <use x="66.699219" xlink:href="#ArialMT-54"/>
       <use x="126.033203" xlink:href="#ArialMT-4f"/>
       <use x="203.816406" xlink:href="#ArialMT-52"/>
       <use x="276.033203" xlink:href="#ArialMT-4d"/>
      </g>
     </g>
    </g>
    <g id="text_4">
     <!-- Method -->
     <g style="fill:#262626;" transform="translate(40.448437 225.735)scale(0.2 -0.2)">
      <defs>
       <path d="M 422 0 
L 422 4581 
L 984 4581 
L 984 2938 
Q 1378 3394 1978 3394 
Q 2347 3394 2619 3248 
Q 2891 3103 3008 2847 
Q 3125 2591 3125 2103 
L 3125 0 
L 2563 0 
L 2563 2103 
Q 2563 2525 2380 2717 
Q 2197 2909 1863 2909 
Q 1613 2909 1392 2779 
Q 1172 2650 1078 2428 
Q 984 2206 984 1816 
L 984 0 
L 422 0 
z
" id="ArialMT-68" transform="scale(0.015625)"/>
       <path d="M 213 1659 
Q 213 2581 725 3025 
Q 1153 3394 1769 3394 
Q 2453 3394 2887 2945 
Q 3322 2497 3322 1706 
Q 3322 1066 3130 698 
Q 2938 331 2570 128 
Q 2203 -75 1769 -75 
Q 1072 -75 642 372 
Q 213 819 213 1659 
z
M 791 1659 
Q 791 1022 1069 705 
Q 1347 388 1769 388 
Q 2188 388 2466 706 
Q 2744 1025 2744 1678 
Q 2744 2294 2464 2611 
Q 2184 2928 1769 2928 
Q 1347 2928 1069 2612 
Q 791 2297 791 1659 
z
" id="ArialMT-6f" transform="scale(0.015625)"/>
      </defs>
      <use xlink:href="#ArialMT-4d"/>
      <use x="83.300781" xlink:href="#ArialMT-65"/>
      <use x="138.916016" xlink:href="#ArialMT-74"/>
      <use x="166.699219" xlink:href="#ArialMT-68"/>
      <use x="222.314453" xlink:href="#ArialMT-6f"/>
      <use x="277.929688" xlink:href="#ArialMT-64"/>
     </g>
    </g>
   </g>
   <g id="matplotlib.axis_2">
    <g id="ytick_1">
     <g id="text_5">
      <!-- 0 -->
      <g style="fill:#262626;" transform="translate(-0.121875 128.895931)scale(0.2 -0.2)">
       <defs>
        <path d="M 266 2259 
Q 266 3072 433 3567 
Q 600 4063 929 4331 
Q 1259 4600 1759 4600 
Q 2128 4600 2406 4451 
Q 2684 4303 2865 4023 
Q 3047 3744 3150 3342 
Q 3253 2941 3253 2259 
Q 3253 1453 3087 958 
Q 2922 463 2592 192 
Q 2263 -78 1759 -78 
Q 1097 -78 719 397 
Q 266 969 266 2259 
z
M 844 2259 
Q 844 1131 1108 757 
Q 1372 384 1759 384 
Q 2147 384 2411 759 
Q 2675 1134 2675 2259 
Q 2675 3391 2411 3762 
Q 2147 4134 1753 4134 
Q 1366 4134 1134 3806 
Q 844 3388 844 2259 
z
" id="ArialMT-30" transform="scale(0.015625)"/>
       </defs>
       <use xlink:href="#ArialMT-30"/>
      </g>
     </g>
    </g>
    <g id="ytick_2">
     <g id="text_6">
      <!-- 1 -->
      <g style="fill:#262626;" transform="translate(-0.121875 39.278619)scale(0.2 -0.2)">
       <defs>
        <path d="M 2384 0 
L 1822 0 
L 1822 3584 
Q 1619 3391 1289 3197 
Q 959 3003 697 2906 
L 697 3450 
Q 1169 3672 1522 3987 
Q 1875 4303 2022 4600 
L 2384 4600 
L 2384 0 
z
" id="ArialMT-31" transform="scale(0.015625)"/>
       </defs>
       <use xlink:href="#ArialMT-31"/>
      </g>
     </g>
    </g>
    <g id="text_7">
     <!-- Predictions -->
     <g style="fill:#262626;" transform="translate(-8.096875 122.185625)rotate(-90)scale(0.2 -0.2)">
      <defs>
       <path d="M 494 0 
L 494 4581 
L 2222 4581 
Q 2678 4581 2919 4538 
Q 3256 4481 3484 4323 
Q 3713 4166 3852 3881 
Q 3991 3597 3991 3256 
Q 3991 2672 3619 2267 
Q 3247 1863 2275 1863 
L 1100 1863 
L 1100 0 
L 494 0 
z
M 1100 2403 
L 2284 2403 
Q 2872 2403 3119 2622 
Q 3366 2841 3366 3238 
Q 3366 3525 3220 3729 
Q 3075 3934 2838 4000 
Q 2684 4041 2272 4041 
L 1100 4041 
L 1100 2403 
z
" id="ArialMT-50" transform="scale(0.015625)"/>
       <path d="M 2588 1216 
L 3141 1144 
Q 3050 572 2676 248 
Q 2303 -75 1759 -75 
Q 1078 -75 664 370 
Q 250 816 250 1647 
Q 250 2184 428 2587 
Q 606 2991 970 3192 
Q 1334 3394 1763 3394 
Q 2303 3394 2647 3120 
Q 2991 2847 3088 2344 
L 2541 2259 
Q 2463 2594 2264 2762 
Q 2066 2931 1784 2931 
Q 1359 2931 1093 2626 
Q 828 2322 828 1663 
Q 828 994 1084 691 
Q 1341 388 1753 388 
Q 2084 388 2306 591 
Q 2528 794 2588 1216 
z
" id="ArialMT-63" transform="scale(0.015625)"/>
       <path d="M 197 991 
L 753 1078 
Q 800 744 1014 566 
Q 1228 388 1613 388 
Q 2000 388 2187 545 
Q 2375 703 2375 916 
Q 2375 1106 2209 1216 
Q 2094 1291 1634 1406 
Q 1016 1563 777 1677 
Q 538 1791 414 1992 
Q 291 2194 291 2438 
Q 291 2659 392 2848 
Q 494 3038 669 3163 
Q 800 3259 1026 3326 
Q 1253 3394 1513 3394 
Q 1903 3394 2198 3281 
Q 2494 3169 2634 2976 
Q 2775 2784 2828 2463 
L 2278 2388 
Q 2241 2644 2061 2787 
Q 1881 2931 1553 2931 
Q 1166 2931 1000 2803 
Q 834 2675 834 2503 
Q 834 2394 903 2306 
Q 972 2216 1119 2156 
Q 1203 2125 1616 2013 
Q 2213 1853 2448 1751 
Q 2684 1650 2818 1456 
Q 2953 1263 2953 975 
Q 2953 694 2789 445 
Q 2625 197 2315 61 
Q 2006 -75 1616 -75 
Q 969 -75 630 194 
Q 291 463 197 991 
z
" id="ArialMT-73" transform="scale(0.015625)"/>
      </defs>
      <use xlink:href="#ArialMT-50"/>
      <use x="66.699219" xlink:href="#ArialMT-72"/>
      <use x="100" xlink:href="#ArialMT-65"/>
      <use x="155.615234" xlink:href="#ArialMT-64"/>
      <use x="211.230469" xlink:href="#ArialMT-69"/>
      <use x="233.447266" xlink:href="#ArialMT-63"/>
      <use x="283.447266" xlink:href="#ArialMT-74"/>
      <use x="311.230469" xlink:href="#ArialMT-69"/>
      <use x="333.447266" xlink:href="#ArialMT-6f"/>
      <use x="389.0625" xlink:href="#ArialMT-6e"/>
      <use x="444.677734" xlink:href="#ArialMT-73"/>
     </g>
    </g>
   </g>
   <g id="PolyCollection_1">
    <defs>
     <path d="M 36.621134 -39.752394 
L 36.578866 -39.752394 
L 36.570641 -40.579946 
L 36.560156 -41.407497 
L 36.547144 -42.235049 
L 36.531418 -43.0626 
L 36.512903 -43.890152 
L 36.491658 -44.717703 
L 36.467893 -45.545255 
L 36.441974 -46.372807 
L 36.414419 -47.200358 
L 36.385889 -48.02791 
L 36.35717 -48.855461 
L 36.329156 -49.683013 
L 36.302828 -50.510564 
L 36.279218 -51.338116 
L 36.25937 -52.165668 
L 36.244276 -52.993219 
L 36.234801 -53.820771 
L 36.231593 -54.648322 
L 36.234988 -55.475874 
L 36.244935 -56.303425 
L 36.260943 -57.130977 
L 36.282076 -57.958529 
L 36.306993 -58.78608 
L 36.334043 -59.613632 
L 36.361392 -60.441183 
L 36.387172 -61.268735 
L 36.409626 -62.096287 
L 36.427233 -62.923838 
L 36.438787 -63.75139 
L 36.443436 -64.578941 
L 36.440662 -65.406493 
L 36.430219 -66.234044 
L 36.412039 -67.061596 
L 36.386122 -67.889148 
L 36.352427 -68.716699 
L 36.310788 -69.544251 
L 36.260861 -70.371802 
L 36.202132 -71.199354 
L 36.133967 -72.026905 
L 36.05572 -72.854457 
L 35.966883 -73.682009 
L 35.867253 -74.50956 
L 35.757105 -75.337112 
L 35.637329 -76.164663 
L 35.50952 -76.992215 
L 35.375981 -77.819766 
L 35.239643 -78.647318 
L 35.103885 -79.47487 
L 34.972272 -80.302421 
L 34.848226 -81.129973 
L 34.734672 -81.957524 
L 34.633708 -82.785076 
L 34.546331 -83.612628 
L 34.472269 -84.440179 
L 34.409949 -85.267731 
L 34.356601 -86.095282 
L 34.308494 -86.922834 
L 34.261268 -87.750385 
L 34.210323 -88.577937 
L 34.151198 -89.405489 
L 34.079894 -90.23304 
L 33.993091 -91.060592 
L 33.888227 -91.888143 
L 33.763421 -92.715695 
L 33.617258 -93.543246 
L 33.448484 -94.370798 
L 33.255661 -95.19835 
L 33.036896 -96.025901 
L 32.789732 -96.853453 
L 32.511291 -97.681004 
L 32.198747 -98.508556 
L 31.850125 -99.336107 
L 31.46537 -100.163659 
L 31.047546 -100.991211 
L 30.603948 -101.818762 
L 30.146902 -102.646314 
L 29.693988 -103.473865 
L 29.267518 -104.301417 
L 28.893193 -105.128968 
L 28.59799 -105.95652 
L 28.407517 -106.784072 
L 28.34315 -107.611623 
L 28.419393 -108.439175 
L 28.64186 -109.266726 
L 29.006228 -110.094278 
L 29.49835 -110.92183 
L 30.095524 -111.749381 
L 30.768751 -112.576933 
L 31.485629 -113.404484 
L 32.213455 -114.232036 
L 32.922122 -115.059587 
L 33.586418 -115.887139 
L 34.187519 -116.714691 
L 34.713578 -117.542242 
L 35.159484 -118.369794 
L 35.525956 -119.197345 
L 35.818229 -120.024897 
L 36.044574 -120.852448 
L 36.214874 -121.68 
L 36.985126 -121.68 
L 36.985126 -121.68 
L 37.155426 -120.852448 
L 37.381771 -120.024897 
L 37.674044 -119.197345 
L 38.040516 -118.369794 
L 38.486422 -117.542242 
L 39.012481 -116.714691 
L 39.613582 -115.887139 
L 40.277878 -115.059587 
L 40.986545 -114.232036 
L 41.714371 -113.404484 
L 42.431249 -112.576933 
L 43.104476 -111.749381 
L 43.70165 -110.92183 
L 44.193772 -110.094278 
L 44.55814 -109.266726 
L 44.780607 -108.439175 
L 44.85685 -107.611623 
L 44.792483 -106.784072 
L 44.60201 -105.95652 
L 44.306807 -105.128968 
L 43.932482 -104.301417 
L 43.506012 -103.473865 
L 43.053098 -102.646314 
L 42.596052 -101.818762 
L 42.152454 -100.991211 
L 41.73463 -100.163659 
L 41.349875 -99.336107 
L 41.001253 -98.508556 
L 40.688709 -97.681004 
L 40.410268 -96.853453 
L 40.163104 -96.025901 
L 39.944339 -95.19835 
L 39.751516 -94.370798 
L 39.582742 -93.543246 
L 39.436579 -92.715695 
L 39.311773 -91.888143 
L 39.206909 -91.060592 
L 39.120106 -90.23304 
L 39.048802 -89.405489 
L 38.989677 -88.577937 
L 38.938732 -87.750385 
L 38.891506 -86.922834 
L 38.843399 -86.095282 
L 38.790051 -85.267731 
L 38.727731 -84.440179 
L 38.653669 -83.612628 
L 38.566292 -82.785076 
L 38.465328 -81.957524 
L 38.351774 -81.129973 
L 38.227728 -80.302421 
L 38.096115 -79.47487 
L 37.960357 -78.647318 
L 37.824019 -77.819766 
L 37.69048 -76.992215 
L 37.562671 -76.164663 
L 37.442895 -75.337112 
L 37.332747 -74.50956 
L 37.233117 -73.682009 
L 37.14428 -72.854457 
L 37.066033 -72.026905 
L 36.997868 -71.199354 
L 36.939139 -70.371802 
L 36.889212 -69.544251 
L 36.847573 -68.716699 
L 36.813878 -67.889148 
L 36.787961 -67.061596 
L 36.769781 -66.234044 
L 36.759338 -65.406493 
L 36.756564 -64.578941 
L 36.761213 -63.75139 
L 36.772767 -62.923838 
L 36.790374 -62.096287 
L 36.812828 -61.268735 
L 36.838608 -60.441183 
L 36.865957 -59.613632 
L 36.893007 -58.78608 
L 36.917924 -57.958529 
L 36.939057 -57.130977 
L 36.955065 -56.303425 
L 36.965012 -55.475874 
L 36.968407 -54.648322 
L 36.965199 -53.820771 
L 36.955724 -52.993219 
L 36.94063 -52.165668 
L 36.920782 -51.338116 
L 36.897172 -50.510564 
L 36.870844 -49.683013 
L 36.84283 -48.855461 
L 36.814111 -48.02791 
L 36.785581 -47.200358 
L 36.758026 -46.372807 
L 36.732107 -45.545255 
L 36.708342 -44.717703 
L 36.687097 -43.890152 
L 36.668582 -43.0626 
L 36.652856 -42.235049 
L 36.639844 -41.407497 
L 36.629359 -40.579946 
L 36.621134 -39.752394 
z
" id="m60ef9107d7" style="stroke:#262626;stroke-width:0.75;"/>
    </defs>
    <g clip-path="url(#pc30012c500)">
     <use style="fill:#7f9dd2;stroke:#262626;stroke-width:0.75;" x="0" xlink:href="#m60ef9107d7" y="144"/>
    </g>
   </g>
   <g id="PolyCollection_2">
    <defs>
     <path d="M 73.800166 -20.88 
L 73.799834 -20.88 
L 73.799535 -21.830371 
L 73.799088 -22.780742 
L 73.798707 -23.731113 
L 73.798526 -24.681484 
L 73.798307 -25.631855 
L 73.797794 -26.582226 
L 73.797204 -27.532597 
L 73.79669 -28.482968 
L 73.795509 -29.433339 
L 73.792463 -30.38371 
L 73.787017 -31.334081 
L 73.779788 -32.284452 
L 73.772555 -33.234823 
L 73.76746 -34.185194 
L 73.76523 -35.135565 
L 73.764273 -36.085936 
L 73.761784 -37.036307 
L 73.756034 -37.986678 
L 73.747747 -38.937049 
L 73.739012 -39.88742 
L 73.731301 -40.837791 
L 73.724774 -41.788162 
L 73.71835 -42.738533 
L 73.710083 -43.688904 
L 73.698675 -44.639275 
L 73.684959 -45.589646 
L 73.670698 -46.540017 
L 73.655808 -47.490388 
L 73.639152 -48.440759 
L 73.622323 -49.39113 
L 73.608935 -50.341501 
L 73.599684 -51.291872 
L 73.591658 -52.242243 
L 73.582907 -53.192614 
L 73.573707 -54.142985 
L 73.563213 -55.093356 
L 73.550221 -56.043727 
L 73.537586 -56.994098 
L 73.530451 -57.944469 
L 73.528306 -58.89484 
L 73.523949 -59.845211 
L 73.512268 -60.795582 
L 73.493371 -61.745953 
L 73.468454 -62.696324 
L 73.441085 -63.646695 
L 73.417882 -64.597066 
L 73.399723 -65.547437 
L 73.378017 -66.497808 
L 73.346584 -67.448179 
L 73.311282 -68.39855 
L 73.280181 -69.348921 
L 73.249923 -70.299292 
L 73.211513 -71.249663 
L 73.163865 -72.200034 
L 73.111836 -73.150405 
L 73.057209 -74.100776 
L 72.99978 -75.051147 
L 72.942163 -76.001518 
L 72.887626 -76.951889 
L 72.835383 -77.90226 
L 72.779185 -78.852631 
L 72.712804 -79.803002 
L 72.640595 -80.753373 
L 72.573203 -81.703744 
L 72.508613 -82.654115 
L 72.432598 -83.604486 
L 72.339255 -84.554857 
L 72.234317 -85.505228 
L 72.121882 -86.455599 
L 72.005323 -87.40597 
L 71.894186 -88.356341 
L 71.795967 -89.306712 
L 71.704976 -90.257083 
L 71.603594 -91.207454 
L 71.476478 -92.157825 
L 71.323273 -93.108196 
L 71.148975 -94.058567 
L 70.948169 -95.008938 
L 70.710623 -95.959309 
L 70.432868 -96.90968 
L 70.115616 -97.860051 
L 69.75741 -98.810422 
L 69.354396 -99.760793 
L 68.899225 -100.711164 
L 68.378573 -101.661535 
L 67.771535 -102.611906 
L 67.037887 -103.562277 
L 66.101976 -104.512648 
L 64.868706 -105.463019 
L 63.286255 -106.41339 
L 61.447257 -107.363761 
L 59.734628 -108.314132 
L 58.92 -109.264503 
L 59.901417 -110.214874 
L 62.922688 -111.165245 
L 66.992698 -112.115616 
L 70.518757 -113.065987 
L 72.615585 -114.016358 
L 73.486249 -114.966729 
L 74.113751 -114.966729 
L 74.113751 -114.966729 
L 74.984415 -114.016358 
L 77.081243 -113.065987 
L 80.607302 -112.115616 
L 84.677312 -111.165245 
L 87.698583 -110.214874 
L 88.68 -109.264503 
L 87.865372 -108.314132 
L 86.152743 -107.363761 
L 84.313745 -106.41339 
L 82.731294 -105.463019 
L 81.498024 -104.512648 
L 80.562113 -103.562277 
L 79.828465 -102.611906 
L 79.221427 -101.661535 
L 78.700775 -100.711164 
L 78.245604 -99.760793 
L 77.84259 -98.810422 
L 77.484384 -97.860051 
L 77.167132 -96.90968 
L 76.889377 -95.959309 
L 76.651831 -95.008938 
L 76.451025 -94.058567 
L 76.276727 -93.108196 
L 76.123522 -92.157825 
L 75.996406 -91.207454 
L 75.895024 -90.257083 
L 75.804033 -89.306712 
L 75.705814 -88.356341 
L 75.594677 -87.40597 
L 75.478118 -86.455599 
L 75.365683 -85.505228 
L 75.260745 -84.554857 
L 75.167402 -83.604486 
L 75.091387 -82.654115 
L 75.026797 -81.703744 
L 74.959405 -80.753373 
L 74.887196 -79.803002 
L 74.820815 -78.852631 
L 74.764617 -77.90226 
L 74.712374 -76.951889 
L 74.657837 -76.001518 
L 74.60022 -75.051147 
L 74.542791 -74.100776 
L 74.488164 -73.150405 
L 74.436135 -72.200034 
L 74.388487 -71.249663 
L 74.350077 -70.299292 
L 74.319819 -69.348921 
L 74.288718 -68.39855 
L 74.253416 -67.448179 
L 74.221983 -66.497808 
L 74.200277 -65.547437 
L 74.182118 -64.597066 
L 74.158915 -63.646695 
L 74.131546 -62.696324 
L 74.106629 -61.745953 
L 74.087732 -60.795582 
L 74.076051 -59.845211 
L 74.071694 -58.89484 
L 74.069549 -57.944469 
L 74.062414 -56.994098 
L 74.049779 -56.043727 
L 74.036787 -55.093356 
L 74.026293 -54.142985 
L 74.017093 -53.192614 
L 74.008342 -52.242243 
L 74.000316 -51.291872 
L 73.991065 -50.341501 
L 73.977677 -49.39113 
L 73.960848 -48.440759 
L 73.944192 -47.490388 
L 73.929302 -46.540017 
L 73.915041 -45.589646 
L 73.901325 -44.639275 
L 73.889917 -43.688904 
L 73.88165 -42.738533 
L 73.875226 -41.788162 
L 73.868699 -40.837791 
L 73.860988 -39.88742 
L 73.852253 -38.937049 
L 73.843966 -37.986678 
L 73.838216 -37.036307 
L 73.835727 -36.085936 
L 73.83477 -35.135565 
L 73.83254 -34.185194 
L 73.827445 -33.234823 
L 73.820212 -32.284452 
L 73.812983 -31.334081 
L 73.807537 -30.38371 
L 73.804491 -29.433339 
L 73.80331 -28.482968 
L 73.802796 -27.532597 
L 73.802206 -26.582226 
L 73.801693 -25.631855 
L 73.801474 -24.681484 
L 73.801293 -23.731113 
L 73.800912 -22.780742 
L 73.800465 -21.830371 
L 73.800166 -20.88 
z
" id="m426d81d10e" style="stroke:#262626;stroke-width:0.75;"/>
    </defs>
    <g clip-path="url(#pc30012c500)">
     <use style="fill:#1a1a66;stroke:#262626;stroke-width:0.75;" x="0" xlink:href="#m426d81d10e" y="144"/>
    </g>
   </g>
   <g id="line2d_1">
    <path clip-path="url(#pc30012c500)" d="M 36.6 67.250496 
L 36.6 32.478796 
" style="fill:none;stroke:#262626;stroke-linecap:round;stroke-width:0.75;"/>
   </g>
   <g id="line2d_2">
    <path clip-path="url(#pc30012c500)" d="M 36.6 49.296236 
L 36.6 35.016056 
" style="fill:none;stroke:#262626;stroke-linecap:round;stroke-width:2.25;"/>
   </g>
   <g id="line2d_3">
    <path clip-path="url(#pc30012c500)" d="M 73.8 67.542741 
L 73.8 32.177166 
" style="fill:none;stroke:#262626;stroke-linecap:round;stroke-width:0.75;"/>
   </g>
   <g id="line2d_4">
    <path clip-path="url(#pc30012c500)" d="M 73.8 47.95422 
L 73.8 34.893753 
" style="fill:none;stroke:#262626;stroke-linecap:round;stroke-width:2.25;"/>
   </g>
   <g id="line2d_5">
    <path clip-path="url(#pc30012c500)" d="M 96.12 32.316748 
L 125.88 32.316748 
" style="fill:none;stroke:#262626;stroke-linecap:round;stroke-width:0.75;"/>
   </g>
   <g id="patch_3">
    <path d="M 18 128.16 
L 18 17.28 
" style="fill:none;stroke:#262626;stroke-linecap:square;stroke-linejoin:miter;stroke-width:0.8;"/>
   </g>
   <g id="patch_4">
    <path d="M 18 128.16 
L 129.6 128.16 
" style="fill:none;stroke:#262626;stroke-linecap:square;stroke-linejoin:miter;stroke-width:0.8;"/>
   </g>
   <g id="PathCollection_1">
    <defs>
     <path d="M 0 0.75 
C 0.198902 0.75 0.389685 0.670975 0.53033 0.53033 
C 0.670975 0.389685 0.75 0.198902 0.75 0 
C 0.75 -0.198902 0.670975 -0.389685 0.53033 -0.53033 
C 0.389685 -0.670975 0.198902 -0.75 0 -0.75 
C -0.198902 -0.75 -0.389685 -0.670975 -0.53033 -0.53033 
C -0.670975 -0.389685 -0.75 -0.198902 -0.75 0 
C -0.75 0.198902 -0.670975 0.389685 -0.53033 0.53033 
C -0.389685 0.670975 -0.198902 0.75 0 0.75 
z
" id="me0cb4d7a78" style="stroke:#262626;"/>
    </defs>
    <g clip-path="url(#pc30012c500)">
     <use style="fill:#ffffff;stroke:#262626;" x="36.6" xlink:href="#me0cb4d7a78" y="38.662057"/>
    </g>
   </g>
   <g id="PathCollection_2">
    <g clip-path="url(#pc30012c500)">
     <use style="fill:#ffffff;stroke:#262626;" x="73.8" xlink:href="#me0cb4d7a78" y="38.786549"/>
    </g>
   </g>
   <g id="text_8">
    <!-- Class0.0 -->
    <g style="fill:#262626;" transform="translate(27.114375 11.28)scale(0.24 -0.24)">
     <defs>
      <path d="M 3763 1606 
L 4369 1453 
Q 4178 706 3683 314 
Q 3188 -78 2472 -78 
Q 1731 -78 1267 223 
Q 803 525 561 1097 
Q 319 1669 319 2325 
Q 319 3041 592 3573 
Q 866 4106 1370 4382 
Q 1875 4659 2481 4659 
Q 3169 4659 3637 4309 
Q 4106 3959 4291 3325 
L 3694 3184 
Q 3534 3684 3231 3912 
Q 2928 4141 2469 4141 
Q 1941 4141 1586 3887 
Q 1231 3634 1087 3207 
Q 944 2781 944 2328 
Q 944 1744 1114 1308 
Q 1284 872 1643 656 
Q 2003 441 2422 441 
Q 2931 441 3284 734 
Q 3638 1028 3763 1606 
z
" id="ArialMT-43" transform="scale(0.015625)"/>
      <path d="M 581 0 
L 581 641 
L 1222 641 
L 1222 0 
L 581 0 
z
" id="ArialMT-2e" transform="scale(0.015625)"/>
     </defs>
     <use xlink:href="#ArialMT-43"/>
     <use x="72.216797" xlink:href="#ArialMT-6c"/>
     <use x="94.433594" xlink:href="#ArialMT-61"/>
     <use x="150.048828" xlink:href="#ArialMT-73"/>
     <use x="200.048828" xlink:href="#ArialMT-73"/>
     <use x="250.048828" xlink:href="#ArialMT-30"/>
     <use x="305.664062" xlink:href="#ArialMT-2e"/>
     <use x="333.447266" xlink:href="#ArialMT-30"/>
    </g>
   </g>
  </g>
 </g>
 <defs>
  <clipPath id="pc30012c500">
   <rect height="110.88" width="111.6" x="18" y="17.28"/>
  </clipPath>
 </defs>
</svg>
