<?xml version="1.0" encoding="utf-8" standalone="no"?>
<!DOCTYPE svg PUBLIC "-//W3C//DTD SVG 1.1//EN"
  "http://www.w3.org/Graphics/SVG/1.1/DTD/svg11.dtd">
<svg height="216pt" version="1.1" viewBox="0 0 306 216" width="306pt" xmlns="http://www.w3.org/2000/svg" xmlns:xlink="http://www.w3.org/1999/xlink">
 <metadata>
  <rdf:RDF xmlns:cc="http://creativecommons.org/ns#" xmlns:dc="http://purl.org/dc/elements/1.1/" xmlns:rdf="http://www.w3.org/1999/02/22-rdf-syntax-ns#">
   <cc:Work>
    <dc:type rdf:resource="http://purl.org/dc/dcmitype/StillImage"/>
    <dc:date>2022-03-15T02:03:59.095118</dc:date>
    <dc:format>image/svg+xml</dc:format>
    <dc:creator>
     <cc:Agent>
      <dc:title>Matplotlib v3.4.2, https://matplotlib.org/</dc:title>
     </cc:Agent>
    </dc:creator>
   </cc:Work>
  </rdf:RDF>
 </metadata>
 <defs>
  <style type="text/css">*{stroke-linecap:butt;stroke-linejoin:round;}</style>
 </defs>
 <g id="figure_1">
  <g id="patch_1">
   <path d="M 0 216 
L 306 216 
L 306 0 
L 0 0 
z
" style="fill:#ffffff;"/>
  </g>
  <g id="axes_1">
   <g id="patch_2">
    <path d="M 94.94 141.64 
L 284.4 141.64 
L 284.4 28.8 
L 94.94 28.8 
z
" style="fill:#ffffff;"/>
   </g>
   <g id="line2d_1">
    <path clip-path="url(#pb218df35fc)" d="M 94.94 141.64 
L 284.4 141.64 
" style="fill:none;stroke:#000000;stroke-linecap:round;stroke-width:0.5;"/>
   </g>
   <g id="patch_3">
    <path clip-path="url(#pb218df35fc)" d="M 100.416455 118.938665 
Q 102.054581 118.938665 103.249628 120.113439 
Q 104.981434 121.800415 105.368811 126.029601 
L 103.811705 126.029601 
Q 103.525603 123.665956 102.63185 122.585164 
Q 101.738096 121.504372 100.375945 121.504372 
Q 98.763138 121.504372 97.659238 123.755239 
Q 96.555339 126.001407 96.555339 130.451451 
Q 96.555339 134.295312 97.464284 136.710648 
Q 98.37576 139.125983 100.431646 139.125983 
Q 102.006475 139.125983 103.039482 137.434309 
Q 104.072489 135.737935 104.095276 131.945764 
L 100.456965 131.945764 
L 100.456965 129.525729 
L 105.558702 129.525729 
L 105.558702 141.06671 
L 104.54595 141.06671 
L 104.166168 138.289544 
Q 103.368626 139.920131 102.750848 140.554509 
Q 101.712777 141.64 100.115161 141.64 
Q 98.05168 141.64 96.562935 139.158877 
Q 94.94 136.043376 94.94 130.611221 
Q 94.94 125.193162 96.522425 121.993078 
Q 98.026361 118.938665 100.416455 118.938665 
z
M 100.155671 118.905771 
L 100.155671 118.905771 
z
" style="fill:#ffa600;"/>
   </g>
   <g id="patch_4">
    <path clip-path="url(#pb218df35fc)" d="M 100.523163 96.11513 
Q 102.797109 96.11513 104.051431 98.283423 
Q 105.305752 100.447002 105.443962 103.199791 
L 103.863673 103.199791 
Q 103.595077 101.11163 102.791894 99.890787 
Q 101.988711 98.665231 100.53881 98.665231 
Q 98.770765 98.665231 97.683339 100.913656 
Q 96.595913 103.157367 96.595913 107.795628 
Q 96.595913 111.599568 97.576421 113.965835 
Q 98.559538 116.327388 100.507517 116.327388 
Q 102.299032 116.327388 103.237817 113.838566 
Q 103.733287 112.528163 103.978414 110.388152 
L 105.558702 110.388152 
Q 105.347475 113.80557 104.158348 116.119987 
Q 102.731916 118.905771 100.311937 118.905771 
Q 98.225748 118.905771 96.807139 116.619637 
Q 94.94 113.602882 94.94 107.295978 
Q 94.94 102.511593 96.342962 99.447702 
Q 97.858057 96.11513 100.523163 96.11513 
z
M 100.197196 96.11513 
L 100.197196 96.11513 
z
" style="fill:#0000ff;"/>
   </g>
   <g id="patch_5">
    <path clip-path="url(#pb218df35fc)" d="M 105.558702 72.060849 
L 105.558702 74.926824 
L 101.148734 74.926824 
L 101.148734 96.11513 
L 99.349968 96.11513 
L 99.349968 74.926824 
L 94.94 74.926824 
L 94.94 72.060849 
L 105.558702 72.060849 
z
" style="fill:#ff0000;"/>
   </g>
   <g id="patch_6">
    <path clip-path="url(#pb218df35fc)" d="M 102.067515 54.336245 
L 100.261014 35.226465 
L 98.340473 54.336245 
L 102.067515 54.336245 
z
M 99.418672 28.8 
L 101.240724 28.8 
L 105.558702 72.060849 
L 103.791078 72.060849 
L 102.58588 59.104267 
L 97.879128 59.104267 
L 96.590992 72.060849 
L 94.94 72.060849 
L 99.418672 28.8 
z
M 100.253239 28.8 
L 100.253239 28.8 
z
" style="fill:#008000;"/>
   </g>
   <g id="patch_7">
    <path clip-path="url(#pb218df35fc)" d="M 111.594036 118.98373 
Q 113.232162 118.98373 114.427209 120.156172 
Q 116.159015 121.839798 116.546392 126.06059 
L 114.989286 126.06059 
Q 114.703184 123.701636 113.809431 122.62299 
Q 112.915677 121.544343 111.553526 121.544343 
Q 109.940719 121.544343 108.83682 123.790742 
Q 107.73292 126.032451 107.73292 130.473662 
Q 107.73292 134.309892 108.641865 136.720433 
Q 109.553341 139.130974 111.609227 139.130974 
Q 113.184056 139.130974 114.217063 137.442657 
Q 115.25007 135.749651 115.272857 131.965008 
L 111.634546 131.965008 
L 111.634546 129.549777 
L 116.736283 129.549777 
L 116.736283 141.067848 
L 115.723531 141.067848 
L 115.34375 138.296195 
Q 114.546208 139.923545 113.928429 140.556664 
Q 112.890358 141.64 111.292743 141.64 
Q 109.229261 141.64 107.740516 139.163802 
Q 106.117581 136.054486 106.117581 130.633114 
Q 106.117581 125.225811 107.700006 122.032079 
Q 109.203942 118.98373 111.594036 118.98373 
z
M 111.333253 118.950901 
L 111.333253 118.950901 
z
" style="fill:#ffa600;"/>
   </g>
   <g id="patch_8">
    <path clip-path="url(#pb218df35fc)" d="M 116.736283 95.765373 
L 116.736283 98.527839 
L 112.326315 98.527839 
L 112.326315 118.950901 
L 110.527549 118.950901 
L 110.527549 98.527839 
L 106.117581 98.527839 
L 106.117581 95.765373 
L 116.736283 95.765373 
z
" style="fill:#ff0000;"/>
   </g>
   <g id="patch_9">
    <path clip-path="url(#pb218df35fc)" d="M 111.700744 66.754315 
Q 113.97469 66.754315 115.229012 69.514416 
Q 116.483333 72.268516 116.621543 75.772644 
L 115.041255 75.772644 
Q 114.772658 73.114547 113.969475 71.560491 
Q 113.166292 70.000434 111.716391 70.000434 
Q 109.948346 70.000434 108.86092 72.862538 
Q 107.773494 75.718642 107.773494 81.622857 
Q 107.773494 86.465034 108.754002 89.477143 
Q 109.737119 92.483253 111.685098 92.483253 
Q 113.476613 92.483253 114.415398 89.315138 
Q 114.910868 87.647077 115.155995 84.922978 
L 116.736283 84.922978 
Q 116.525057 89.273136 115.335929 92.219243 
Q 113.909497 95.765373 111.489518 95.765373 
Q 109.403329 95.765373 107.98472 92.855267 
Q 106.117581 89.015127 106.117581 80.986834 
Q 106.117581 74.896612 107.520543 70.99647 
Q 109.035638 66.754315 111.700744 66.754315 
z
M 111.374777 66.754315 
L 111.374777 66.754315 
z
" style="fill:#0000ff;"/>
   </g>
   <g id="patch_10">
    <path clip-path="url(#pb218df35fc)" d="M 113.245097 51.203876 
L 111.438595 34.438171 
L 109.518054 51.203876 
L 113.245097 51.203876 
z
M 110.596253 28.8 
L 112.418305 28.8 
L 116.736283 66.754315 
L 114.968659 66.754315 
L 113.763461 55.387035 
L 109.056709 55.387035 
L 107.768573 66.754315 
L 106.117581 66.754315 
L 110.596253 28.8 
z
M 111.43082 28.8 
L 111.43082 28.8 
z
" style="fill:#008000;"/>
   </g>
   <g id="patch_11">
    <path clip-path="url(#pb218df35fc)" d="M 127.913864 118.383016 
L 127.913864 121.153996 
L 123.503896 121.153996 
L 123.503896 141.64 
L 121.705131 141.64 
L 121.705131 121.153996 
L 117.295162 121.153996 
L 117.295162 118.383016 
L 127.913864 118.383016 
z
" style="fill:#ff0000;"/>
   </g>
   <g id="patch_12">
    <path clip-path="url(#pb218df35fc)" d="M 122.771617 94.108172 
Q 124.409743 94.108172 125.60479 95.364374 
Q 127.336596 97.16828 127.723973 101.690606 
L 126.166868 101.690606 
Q 125.880765 99.163128 124.987012 98.007422 
Q 124.093258 96.851717 122.731107 96.851717 
Q 121.1183 96.851717 120.014401 99.258599 
Q 118.910501 101.660457 118.910501 106.41895 
Q 118.910501 110.529242 119.819446 113.111993 
Q 120.730923 115.694744 122.786809 115.694744 
Q 124.361638 115.694744 125.394644 113.885813 
Q 126.427651 112.071858 126.450438 108.016838 
L 122.812127 108.016838 
L 122.812127 105.429063 
L 127.913864 105.429063 
L 127.913864 117.769989 
L 126.901113 117.769989 
L 126.521331 114.800328 
Q 125.723789 116.543936 125.10601 117.222285 
Q 124.06794 118.383016 122.470324 118.383016 
Q 120.406842 118.383016 118.918097 115.729917 
Q 117.295162 112.39847 117.295162 106.589793 
Q 117.295162 100.79619 118.877587 97.374297 
Q 120.381523 94.108172 122.771617 94.108172 
z
M 122.510834 94.072998 
L 122.510834 94.072998 
z
" style="fill:#ffa600;"/>
   </g>
   <g id="patch_13">
    <path clip-path="url(#pb218df35fc)" d="M 122.878326 65.475633 
Q 125.152272 65.475633 126.406593 68.196375 
Q 127.660914 70.911202 127.799124 74.365362 
L 126.218836 74.365362 
Q 125.950239 71.745169 125.147056 70.213273 
Q 124.343873 68.675462 122.893972 68.675462 
Q 121.125927 68.675462 120.038501 71.496753 
Q 118.951075 74.31213 118.951075 80.132152 
Q 118.951075 84.90528 119.931584 87.874438 
Q 120.9147 90.837681 122.862679 90.837681 
Q 124.654194 90.837681 125.592979 87.714742 
Q 126.088449 86.070468 126.333576 83.385213 
L 127.913864 83.385213 
Q 127.702638 87.67334 126.51351 90.577436 
Q 125.087078 94.072998 122.667099 94.072998 
Q 120.58091 94.072998 119.162301 91.20439 
Q 117.295162 87.419009 117.295162 79.505199 
Q 117.295162 73.501822 118.698124 69.657295 
Q 120.213219 65.475633 122.878326 65.475633 
z
M 122.552359 65.475633 
L 122.552359 65.475633 
z
" style="fill:#0000ff;"/>
   </g>
   <g id="patch_14">
    <path clip-path="url(#pb218df35fc)" d="M 124.422678 50.449088 
L 122.616176 34.248221 
L 120.695635 50.449088 
L 124.422678 50.449088 
z
M 121.773834 28.8 
L 123.595886 28.8 
L 127.913864 65.475633 
L 126.14624 65.475633 
L 124.941042 54.491317 
L 120.23429 54.491317 
L 118.946154 65.475633 
L 117.295162 65.475633 
L 121.773834 28.8 
z
M 122.608401 28.8 
L 122.608401 28.8 
z
" style="fill:#008000;"/>
   </g>
   <g id="patch_15">
    <path clip-path="url(#pb218df35fc)" d="M 134.055907 122.440953 
Q 136.329853 122.440953 137.584174 124.267543 
Q 138.838495 126.090162 138.976705 128.409137 
L 137.396417 128.409137 
Q 137.12782 126.650051 136.324637 125.621602 
Q 135.521454 124.589182 134.071553 124.589182 
Q 132.303508 124.589182 131.216082 126.483276 
Q 130.128656 128.373399 130.128656 132.280713 
Q 130.128656 135.485187 131.109165 137.478552 
Q 132.092281 139.467947 134.04026 139.467947 
Q 135.831775 139.467947 136.77056 137.371339 
Q 137.26603 136.267444 137.511157 134.464679 
L 139.091445 134.464679 
Q 138.880219 137.343543 137.691091 139.293229 
Q 136.264659 141.64 133.84468 141.64 
Q 131.758491 141.64 130.339883 139.714139 
Q 128.472743 137.172797 128.472743 131.859803 
Q 128.472743 127.829393 129.875705 125.248342 
Q 131.3908 122.440953 134.055907 122.440953 
z
M 133.72994 122.440953 
L 133.72994 122.440953 
z
" style="fill:#0000ff;"/>
   </g>
   <g id="patch_16">
    <path clip-path="url(#pb218df35fc)" d="M 139.091445 100.233241 
L 139.091445 102.879204 
L 134.681477 102.879204 
L 134.681477 122.440953 
L 132.882712 122.440953 
L 132.882712 102.879204 
L 128.472743 102.879204 
L 128.472743 100.233241 
L 139.091445 100.233241 
z
" style="fill:#ff0000;"/>
   </g>
   <g id="patch_17">
    <path clip-path="url(#pb218df35fc)" d="M 133.949198 72.240561 
Q 135.587324 72.240561 136.782371 73.689157 
Q 138.514177 75.769342 138.901554 80.98429 
L 137.344449 80.98429 
Q 137.058346 78.069713 136.164593 76.737004 
Q 135.270839 75.404296 133.908688 75.404296 
Q 132.295881 75.404296 131.191982 78.179807 
Q 130.088082 80.949523 130.088082 86.436807 
Q 130.088082 91.176615 130.997027 94.15493 
Q 131.908504 97.133244 133.96439 97.133244 
Q 135.539219 97.133244 136.572225 95.047265 
Q 137.605232 92.955492 137.628019 88.279422 
L 133.989709 88.279422 
L 133.989709 85.295313 
L 139.091445 85.295313 
L 139.091445 99.526326 
L 138.078694 99.526326 
L 137.698912 96.101843 
Q 136.90137 98.112496 136.283591 98.894738 
Q 135.245521 100.233241 133.647905 100.233241 
Q 131.584423 100.233241 130.095678 97.173805 
Q 128.472743 93.332127 128.472743 86.633816 
Q 128.472743 79.952889 130.055168 76.006912 
Q 131.559104 72.240561 133.949198 72.240561 
z
M 133.688415 72.2 
L 133.688415 72.2 
z
" style="fill:#ffa600;"/>
   </g>
   <g id="patch_18">
    <path clip-path="url(#pb218df35fc)" d="M 135.600259 54.418384 
L 133.793758 35.247136 
L 131.873216 54.418384 
L 135.600259 54.418384 
z
M 132.951415 28.8 
L 134.773467 28.8 
L 139.091445 72.2 
L 137.323822 72.2 
L 136.118624 59.201743 
L 131.411872 59.201743 
L 130.123735 72.2 
L 128.472743 72.2 
L 132.951415 28.8 
z
M 133.785982 28.8 
L 133.785982 28.8 
z
" style="fill:#008000;"/>
   </g>
   <g id="patch_19">
    <path clip-path="url(#pb218df35fc)" d="M 150.269027 124.727539 
L 150.269027 126.742594 
L 145.859058 126.742594 
L 145.859058 141.64 
L 144.060293 141.64 
L 144.060293 126.742594 
L 139.650324 126.742594 
L 139.650324 124.727539 
L 150.269027 124.727539 
z
" style="fill:#ff0000;"/>
   </g>
   <g id="patch_20">
    <path clip-path="url(#pb218df35fc)" d="M 145.233488 96.998925 
Q 147.507434 96.998925 148.761755 99.637015 
Q 150.016076 102.269369 150.154286 105.618596 
L 148.573998 105.618596 
Q 148.305401 103.078001 147.502218 101.592642 
Q 146.699036 100.101548 145.249134 100.101548 
Q 143.481089 100.101548 142.393663 102.837132 
Q 141.306237 105.566981 141.306237 111.210198 
Q 141.306237 115.838325 142.286746 118.717283 
Q 143.269862 121.590507 145.217841 121.590507 
Q 147.009356 121.590507 147.948141 118.562439 
Q 148.443611 116.968115 148.688738 114.364436 
L 150.269027 114.364436 
Q 150.0578 118.522294 148.868672 121.338168 
Q 147.44224 124.727539 145.022261 124.727539 
Q 142.936072 124.727539 141.517464 121.946075 
Q 139.650324 118.27569 139.650324 110.602291 
Q 139.650324 104.781289 141.053287 101.053554 
Q 142.568381 96.998925 145.233488 96.998925 
z
M 144.907521 96.998925 
L 144.907521 96.998925 
z
" style="fill:#0000ff;"/>
   </g>
   <g id="patch_21">
    <path clip-path="url(#pb218df35fc)" d="M 146.77784 83.426961 
L 144.971339 68.794348 
L 143.050797 83.426961 
L 146.77784 83.426961 
z
M 144.128996 63.873518 
L 145.951048 63.873518 
L 150.269027 96.998925 
L 148.501403 96.998925 
L 147.296205 87.077898 
L 142.589453 87.077898 
L 141.301316 96.998925 
L 139.650324 96.998925 
L 144.128996 63.873518 
z
M 144.963563 63.873518 
L 144.963563 63.873518 
z
" style="fill:#008000;"/>
   </g>
   <g id="patch_22">
    <path clip-path="url(#pb218df35fc)" d="M 145.12678 28.850747 
Q 146.764906 28.850747 147.959953 30.663145 
Q 149.691758 33.265748 150.079136 39.790379 
L 148.52203 39.790379 
Q 148.235927 36.143835 147.342174 34.476429 
Q 146.448421 32.809023 145.086269 32.809023 
Q 143.473462 32.809023 142.369563 36.281577 
Q 141.265664 39.746881 141.265664 46.612244 
Q 141.265664 52.542408 142.174608 56.268698 
Q 143.086085 59.994987 145.141971 59.994987 
Q 146.7168 59.994987 147.749807 57.385135 
Q 148.782813 54.768033 148.8056 48.917613 
L 145.16729 48.917613 
L 145.16729 45.184074 
L 150.269027 45.184074 
L 150.269027 62.989068 
L 149.256275 62.989068 
L 148.876493 58.70456 
Q 148.078951 61.220168 147.461172 62.198863 
Q 146.423102 63.873518 144.825486 63.873518 
Q 142.762004 63.873518 141.273259 60.045734 
Q 139.650324 55.239256 139.650324 46.85873 
Q 139.650324 38.499952 141.232749 33.562981 
Q 142.736685 28.850747 145.12678 28.850747 
z
M 144.865996 28.8 
L 144.865996 28.8 
z
" style="fill:#ffa600;"/>
   </g>
   <g id="patch_23">
    <path clip-path="url(#pb218df35fc)" d="M 156.411069 120.195737 
Q 158.685015 120.195737 159.939336 122.235935 
Q 161.193657 124.271699 161.331867 126.861864 
L 159.751579 126.861864 
Q 159.482982 124.897064 158.679799 123.748344 
Q 157.876617 122.595188 156.426715 122.595188 
Q 154.65867 122.595188 153.571244 124.710785 
Q 152.483818 126.821947 152.483818 131.186199 
Q 152.483818 134.765417 153.464327 136.991895 
Q 154.447444 139.213938 156.395423 139.213938 
Q 158.186937 139.213938 159.125722 136.872144 
Q 159.621192 135.639154 159.866319 133.625567 
L 161.446608 133.625567 
Q 161.235381 136.841098 160.046253 139.018788 
Q 158.619822 141.64 156.199842 141.64 
Q 154.113653 141.64 152.695045 139.488921 
Q 150.827906 136.650383 150.827906 130.716066 
Q 150.827906 126.214323 152.230868 123.331433 
Q 153.745962 120.195737 156.411069 120.195737 
z
M 156.085102 120.195737 
L 156.085102 120.195737 
z
" style="fill:#0000ff;"/>
   </g>
   <g id="patch_24">
    <path clip-path="url(#pb218df35fc)" d="M 156.304361 96.401583 
Q 157.942487 96.401583 159.137534 97.632909 
Q 160.869339 99.401094 161.256717 103.83387 
L 159.699611 103.83387 
Q 159.413509 101.356441 158.519755 100.22362 
Q 157.626002 99.0908 156.263851 99.0908 
Q 154.651043 99.0908 153.547144 101.450022 
Q 152.443245 103.804318 152.443245 108.468583 
Q 152.443245 112.497483 153.352189 115.02909 
Q 154.263666 117.560698 156.319552 117.560698 
Q 157.894381 117.560698 158.927388 115.787588 
Q 159.960394 114.009552 159.983181 110.03483 
L 156.344871 110.03483 
L 156.344871 107.498297 
L 161.446608 107.498297 
L 161.446608 119.594849 
L 160.433856 119.594849 
L 160.054074 116.683993 
Q 159.256532 118.393075 158.638753 119.057991 
Q 157.600683 120.195737 156.003067 120.195737 
Q 153.939585 120.195737 152.45084 117.595175 
Q 150.827906 114.329697 150.827906 108.636043 
Q 150.827906 102.957165 152.41033 99.603032 
Q 153.914267 96.401583 156.304361 96.401583 
z
M 156.043577 96.367106 
L 156.043577 96.367106 
z
" style="fill:#ffa600;"/>
   </g>
   <g id="patch_25">
    <path clip-path="url(#pb218df35fc)" d="M 161.446608 72.467019 
L 161.446608 75.314623 
L 157.036639 75.314623 
L 157.036639 96.367106 
L 155.237874 96.367106 
L 155.237874 75.314623 
L 150.827906 75.314623 
L 150.827906 72.467019 
L 161.446608 72.467019 
z
" style="fill:#ff0000;"/>
   </g>
   <g id="patch_26">
    <path clip-path="url(#pb218df35fc)" d="M 157.955421 54.576001 
L 156.14892 35.286802 
L 154.228378 54.576001 
L 157.955421 54.576001 
z
M 155.306577 28.8 
L 157.128629 28.8 
L 161.446608 72.467019 
L 159.678984 72.467019 
L 158.473786 59.38879 
L 153.767034 59.38879 
L 152.478897 72.467019 
L 150.827906 72.467019 
L 155.306577 28.8 
z
M 156.141144 28.8 
L 156.141144 28.8 
z
" style="fill:#008000;"/>
   </g>
   <g id="patch_27">
    <path clip-path="url(#pb218df35fc)" d="M 172.624189 124.667366 
L 172.624189 126.68959 
L 168.21422 126.68959 
L 168.21422 141.64 
L 166.415455 141.64 
L 166.415455 126.68959 
L 162.005487 126.68959 
L 162.005487 124.667366 
L 172.624189 124.667366 
z
" style="fill:#ff0000;"/>
   </g>
   <g id="patch_28">
    <path clip-path="url(#pb218df35fc)" d="M 167.58865 104.595806 
Q 169.862596 104.595806 171.116917 106.505406 
Q 172.371238 108.410855 172.509448 110.835217 
L 170.92916 110.835217 
Q 170.660563 108.996189 169.857381 107.921001 
Q 169.054198 106.841662 167.604296 106.841662 
Q 165.836251 106.841662 164.748825 108.821834 
Q 163.661399 110.797856 163.661399 114.88274 
Q 163.661399 118.232843 164.641908 120.316798 
Q 165.625025 122.396602 167.573004 122.396602 
Q 169.364518 122.396602 170.303304 120.204713 
Q 170.798773 119.05065 171.043901 117.165958 
L 172.624189 117.165958 
Q 172.412962 120.175654 171.223834 122.213944 
Q 169.797403 124.667366 167.377423 124.667366 
Q 165.291234 124.667366 163.872626 122.653983 
Q 162.005487 119.997148 162.005487 114.442701 
Q 162.005487 110.229127 163.408449 107.530779 
Q 164.923544 104.595806 167.58865 104.595806 
z
M 167.262683 104.595806 
L 167.262683 104.595806 
z
" style="fill:#0000ff;"/>
   </g>
   <g id="patch_29">
    <path clip-path="url(#pb218df35fc)" d="M 169.133002 89.917498 
L 167.326501 74.092081 
L 165.40596 89.917498 
L 169.133002 89.917498 
z
M 166.484158 68.770121 
L 168.30621 68.770121 
L 172.624189 104.595806 
L 170.856565 104.595806 
L 169.651367 93.866048 
L 164.944615 93.866048 
L 163.656478 104.595806 
L 162.005487 104.595806 
L 166.484158 68.770121 
z
M 167.318725 68.770121 
L 167.318725 68.770121 
z
" style="fill:#008000;"/>
   </g>
   <g id="patch_30">
    <path clip-path="url(#pb218df35fc)" d="M 167.481942 28.857832 
Q 169.120068 28.857832 170.315115 30.923258 
Q 172.04692 33.889209 172.434298 41.324742 
L 170.877192 41.324742 
Q 170.59109 37.169106 169.697336 35.268914 
Q 168.803583 33.368722 167.441432 33.368722 
Q 165.828625 33.368722 164.724725 37.326078 
Q 163.620826 41.275172 163.620826 49.099005 
Q 163.620826 55.857079 164.52977 60.103594 
Q 165.441247 64.35011 167.497133 64.35011 
Q 169.071962 64.35011 170.104969 61.375897 
Q 171.137976 58.393422 171.160763 51.726227 
L 167.522452 51.726227 
L 167.522452 47.47145 
L 172.624189 47.47145 
L 172.624189 67.762193 
L 171.611437 67.762193 
L 171.231655 62.879527 
Q 170.434113 65.746338 169.816335 66.861668 
Q 168.778264 68.770121 167.180648 68.770121 
Q 165.117166 68.770121 163.628421 64.407942 
Q 162.005487 58.930433 162.005487 49.379903 
Q 162.005487 39.854159 163.587911 34.227939 
Q 165.091848 28.857832 167.481942 28.857832 
z
M 167.221158 28.8 
L 167.221158 28.8 
z
" style="fill:#ffa600;"/>
   </g>
   <g id="patch_31">
    <path clip-path="url(#pb218df35fc)" d="M 183.80177 124.64104 
L 183.80177 126.666401 
L 179.391802 126.666401 
L 179.391802 141.64 
L 177.593036 141.64 
L 177.593036 126.666401 
L 173.183068 126.666401 
L 173.183068 124.64104 
L 183.80177 124.64104 
z
" style="fill:#ff0000;"/>
   </g>
   <g id="patch_32">
    <path clip-path="url(#pb218df35fc)" d="M 178.766231 103.8474 
Q 181.040177 103.8474 182.294498 105.825699 
Q 183.548819 107.799697 183.68703 110.311276 
L 182.106741 110.311276 
Q 181.838145 108.406089 181.034962 107.29222 
Q 180.231779 106.174052 178.781878 106.174052 
Q 177.013832 106.174052 175.926406 108.225461 
Q 174.83898 110.27257 174.83898 114.504409 
Q 174.83898 117.975033 175.819489 120.133959 
Q 176.802606 122.288585 178.750585 122.288585 
Q 180.5421 122.288585 181.480885 120.017842 
Q 181.976355 118.822261 182.221482 116.869767 
L 183.80177 116.869767 
Q 183.590543 119.987737 182.401416 122.099356 
Q 180.974984 124.64104 178.555005 124.64104 
Q 176.468816 124.64104 175.050207 122.555225 
Q 173.183068 119.802809 173.183068 114.048541 
Q 173.183068 109.683381 174.58603 106.887959 
Q 176.101125 103.8474 178.766231 103.8474 
z
M 178.440264 103.8474 
L 178.440264 103.8474 
z
" style="fill:#0000ff;"/>
   </g>
   <g id="patch_33">
    <path clip-path="url(#pb218df35fc)" d="M 178.659523 67.232344 
Q 180.297649 67.232344 181.492696 69.127141 
Q 183.224501 71.848069 183.611879 78.669338 
L 182.054773 78.669338 
Q 181.768671 74.857007 180.874917 73.113794 
Q 179.981164 71.37058 178.619013 71.37058 
Q 177.006206 71.37058 175.902306 75.001011 
Q 174.798407 78.623863 174.798407 85.801354 
Q 174.798407 92.00113 175.707352 95.896832 
Q 176.618828 99.792535 178.674714 99.792535 
Q 180.249543 99.792535 181.28255 97.064027 
Q 182.315557 94.32794 182.338344 88.211536 
L 178.700033 88.211536 
L 178.700033 84.308254 
L 183.80177 84.308254 
L 183.80177 102.922739 
L 182.789018 102.922739 
L 182.409236 98.443439 
Q 181.611694 101.073418 180.993916 102.096608 
Q 179.955845 103.8474 178.358229 103.8474 
Q 176.294748 103.8474 174.806003 99.845589 
Q 173.183068 94.820588 173.183068 86.059046 
Q 173.183068 77.320243 174.765492 72.158816 
Q 176.269429 67.232344 178.659523 67.232344 
z
M 178.398739 67.179289 
L 178.398739 67.179289 
z
" style="fill:#ffa600;"/>
   </g>
   <g id="patch_34">
    <path clip-path="url(#pb218df35fc)" d="M 180.310583 51.454732 
L 178.504082 34.501302 
L 176.583541 51.454732 
L 180.310583 51.454732 
z
M 177.661739 28.8 
L 179.483791 28.8 
L 183.80177 67.179289 
L 182.034146 67.179289 
L 180.828948 55.68473 
L 176.122196 55.68473 
L 174.83406 67.179289 
L 173.183068 67.179289 
L 177.661739 28.8 
z
M 178.496307 28.8 
L 178.496307 28.8 
z
" style="fill:#008000;"/>
   </g>
   <g id="patch_35">
    <path clip-path="url(#pb218df35fc)" d="M 194.979351 124.919341 
L 194.979351 126.911544 
L 190.569383 126.911544 
L 190.569383 141.64 
L 188.770617 141.64 
L 188.770617 126.911544 
L 184.360649 126.911544 
L 184.360649 124.919341 
L 194.979351 124.919341 
z
" style="fill:#ff0000;"/>
   </g>
   <g id="patch_36">
    <path clip-path="url(#pb218df35fc)" d="M 189.943812 105.099757 
Q 192.217758 105.099757 193.472079 106.985385 
Q 194.726401 108.866913 194.864611 111.26084 
L 193.284322 111.26084 
Q 193.015726 109.444899 192.212543 108.383209 
Q 191.40936 107.317419 189.959459 107.317419 
Q 188.191414 107.317419 187.103988 109.272733 
Q 186.016561 111.223947 186.016561 115.25755 
Q 186.016561 118.565597 186.99707 120.62339 
Q 187.980187 122.677084 189.928166 122.677084 
Q 191.719681 122.677084 192.658466 120.512712 
Q 193.153936 119.373137 193.399063 117.512105 
L 194.979351 117.512105 
Q 194.768124 120.484018 193.578997 122.49672 
Q 192.152565 124.919341 189.732586 124.919341 
Q 187.646397 124.919341 186.227788 122.931234 
Q 184.360649 120.307753 184.360649 114.823036 
Q 184.360649 110.662358 185.763611 107.997885 
Q 187.278706 105.099757 189.943812 105.099757 
z
M 189.617845 105.099757 
L 189.617845 105.099757 
z
" style="fill:#0000ff;"/>
   </g>
   <g id="patch_37">
    <path clip-path="url(#pb218df35fc)" d="M 189.837104 75.052879 
Q 191.47523 75.052879 192.670277 76.607778 
Q 194.402083 78.840614 194.78946 84.438252 
L 193.232354 84.438252 
Q 192.946252 81.309794 192.052498 79.879287 
Q 191.158745 78.448779 189.796594 78.448779 
Q 188.183787 78.448779 187.079887 81.427967 
Q 185.975988 84.400935 185.975988 90.290894 
Q 185.975988 95.378525 186.884933 98.575399 
Q 187.796409 101.772272 189.852295 101.772272 
Q 191.427124 101.772272 192.460131 99.533217 
Q 193.493138 97.287942 193.515925 92.268726 
L 189.877614 92.268726 
L 189.877614 89.065633 
L 194.979351 89.065633 
L 194.979351 104.340966 
L 193.966599 104.340966 
L 193.586817 100.665184 
Q 192.789275 102.823384 192.171497 103.66303 
Q 191.133426 105.099757 189.53581 105.099757 
Q 187.472329 105.099757 185.983584 101.81581 
Q 184.360649 97.692216 184.360649 90.50236 
Q 184.360649 83.331164 185.943074 79.095617 
Q 187.44701 75.052879 189.837104 75.052879 
z
M 189.57632 75.009341 
L 189.57632 75.009341 
z
" style="fill:#ffa600;"/>
   </g>
   <g id="patch_38">
    <path clip-path="url(#pb218df35fc)" d="M 191.488164 56.076697 
L 189.681663 35.664468 
L 187.761122 56.076697 
L 191.488164 56.076697 
z
M 188.83932 28.8 
L 190.661373 28.8 
L 194.979351 75.009341 
L 193.211727 75.009341 
L 192.006529 61.169689 
L 187.299777 61.169689 
L 186.011641 75.009341 
L 184.360649 75.009341 
L 188.83932 28.8 
z
M 189.673888 28.8 
L 189.673888 28.8 
z
" style="fill:#008000;"/>
   </g>
   <g id="patch_39">
    <path clip-path="url(#pb218df35fc)" d="M 206.156932 122.60643 
L 206.156932 124.874207 
L 201.746964 124.874207 
L 201.746964 141.64 
L 199.948198 141.64 
L 199.948198 124.874207 
L 195.53823 124.874207 
L 195.53823 122.60643 
L 206.156932 122.60643 
z
" style="fill:#ff0000;"/>
   </g>
   <g id="patch_40">
    <path clip-path="url(#pb218df35fc)" d="M 201.121393 97.7887 
Q 203.395339 97.7887 204.649661 100.149849 
Q 205.903982 102.505865 206.042192 105.503498 
L 204.461904 105.503498 
Q 204.193307 103.229609 203.390124 101.900179 
Q 202.586941 100.565617 201.13704 100.565617 
Q 199.368995 100.565617 198.281569 103.014026 
Q 197.194143 105.457302 197.194143 110.508107 
Q 197.194143 114.650384 198.174651 117.227116 
Q 199.157768 119.798716 201.105747 119.798716 
Q 202.897262 119.798716 203.836047 117.088527 
Q 204.331517 115.661572 204.576644 113.33122 
L 206.156932 113.33122 
Q 205.945706 117.052597 204.756578 119.572867 
Q 203.330146 122.60643 200.910167 122.60643 
Q 198.823978 122.60643 197.405369 120.116957 
Q 195.53823 116.831881 195.53823 109.964017 
Q 195.53823 104.75409 196.941192 101.417684 
Q 198.456287 97.7887 201.121393 97.7887 
z
M 200.795426 97.7887 
L 200.795426 97.7887 
z
" style="fill:#0000ff;"/>
   </g>
   <g id="patch_41">
    <path clip-path="url(#pb218df35fc)" d="M 201.014685 69.285287 
Q 202.652811 69.285287 203.847858 70.760313 
Q 205.579664 72.878452 205.967041 78.188547 
L 204.409935 78.188547 
Q 204.123833 75.220794 203.23008 73.863769 
Q 202.336326 72.506745 200.974175 72.506745 
Q 199.361368 72.506745 198.257469 75.332896 
Q 197.153569 78.153147 197.153569 83.740547 
Q 197.153569 88.566834 198.062514 91.599489 
Q 198.97399 94.632143 201.029876 94.632143 
Q 202.604705 94.632143 203.637712 92.508105 
Q 204.670719 90.378167 204.693506 85.616781 
L 201.055195 85.616781 
L 201.055195 82.578226 
L 206.156932 82.578226 
L 206.156932 97.068887 
L 205.14418 97.068887 
L 204.764399 93.581924 
Q 203.966857 95.629261 203.349078 96.425776 
Q 202.311007 97.7887 200.713392 97.7887 
Q 198.64991 97.7887 197.161165 94.673444 
Q 195.53823 90.761674 195.53823 83.941151 
Q 195.53823 77.138328 197.120655 73.120356 
Q 198.624591 69.285287 201.014685 69.285287 
z
M 200.753902 69.243986 
L 200.753902 69.243986 
z
" style="fill:#ffa600;"/>
   </g>
   <g id="patch_42">
    <path clip-path="url(#pb218df35fc)" d="M 202.665746 52.673492 
L 200.859244 34.808015 
L 198.938703 52.673492 
L 202.665746 52.673492 
z
M 200.016902 28.8 
L 201.838954 28.8 
L 206.156932 69.243986 
L 204.389308 69.243986 
L 203.18411 57.131052 
L 198.477358 57.131052 
L 197.189222 69.243986 
L 195.53823 69.243986 
L 200.016902 28.8 
z
M 200.851469 28.8 
L 200.851469 28.8 
z
" style="fill:#008000;"/>
   </g>
   <g id="patch_43">
    <path clip-path="url(#pb218df35fc)" d="M 217.334513 123.674506 
L 217.334513 125.815026 
L 212.924545 125.815026 
L 212.924545 141.64 
L 211.12578 141.64 
L 211.12578 125.815026 
L 206.715811 125.815026 
L 206.715811 123.674506 
L 217.334513 123.674506 
z
" style="fill:#ff0000;"/>
   </g>
   <g id="patch_44">
    <path clip-path="url(#pb218df35fc)" d="M 212.192266 95.937192 
Q 213.830392 95.937192 215.025439 97.372574 
Q 216.757245 99.433782 217.144622 104.601156 
L 215.587517 104.601156 
Q 215.301414 101.713168 214.407661 100.392617 
Q 213.513907 99.072066 212.151756 99.072066 
Q 210.538949 99.072066 209.43505 101.822257 
Q 208.33115 104.566706 208.33115 110.003932 
Q 208.33115 114.7005 209.240095 117.651645 
Q 210.151572 120.602789 212.207458 120.602789 
Q 213.782287 120.602789 214.815293 118.53584 
Q 215.8483 116.463149 215.871087 111.829737 
L 212.232776 111.829737 
L 212.232776 108.872851 
L 217.334513 108.872851 
L 217.334513 122.97404 
L 216.321762 122.97404 
L 215.94198 119.580798 
Q 215.144438 121.573107 214.526659 122.348213 
Q 213.488589 123.674506 211.890973 123.674506 
Q 209.827491 123.674506 208.338746 120.64298 
Q 206.715811 116.836348 206.715811 110.199144 
Q 206.715811 103.579164 208.298236 99.669185 
Q 209.802172 95.937192 212.192266 95.937192 
z
M 211.931483 95.897002 
L 211.931483 95.897002 
z
" style="fill:#ffa600;"/>
   </g>
   <g id="patch_45">
    <path clip-path="url(#pb218df35fc)" d="M 212.298975 63.726846 
Q 214.572921 63.726846 215.827242 66.787502 
Q 217.081563 69.841504 217.219773 73.727207 
L 215.639485 73.727207 
Q 215.370888 70.779662 214.567705 69.056379 
Q 213.764522 67.326443 212.314621 67.326443 
Q 210.546576 67.326443 209.45915 70.500211 
Q 208.371724 73.667324 208.371724 80.214467 
Q 208.371724 85.583922 209.352233 88.924029 
Q 210.335349 92.257483 212.283328 92.257483 
Q 214.074843 92.257483 215.013628 88.744382 
Q 215.509098 86.894681 215.754225 83.873947 
L 217.334513 83.873947 
Q 217.123287 88.697807 215.934159 91.964724 
Q 214.507727 95.897002 212.087748 95.897002 
Q 210.001559 95.897002 208.58295 92.670006 
Q 206.715811 88.411702 206.715811 79.509185 
Q 206.715811 72.755781 208.118773 68.430941 
Q 209.633868 63.726846 212.298975 63.726846 
z
M 211.973008 63.726846 
L 211.973008 63.726846 
z
" style="fill:#0000ff;"/>
   </g>
   <g id="patch_46">
    <path clip-path="url(#pb218df35fc)" d="M 213.843327 49.416805 
L 212.036825 33.988436 
L 210.116284 49.416805 
L 213.843327 49.416805 
z
M 211.194483 28.8 
L 213.016535 28.8 
L 217.334513 63.726846 
L 215.566889 63.726846 
L 214.361691 53.26629 
L 209.654939 53.26629 
L 208.366803 63.726846 
L 206.715811 63.726846 
L 211.194483 28.8 
z
M 212.02905 28.8 
L 212.02905 28.8 
z
" style="fill:#008000;"/>
   </g>
   <g id="patch_47">
    <path clip-path="url(#pb218df35fc)" d="M 228.512094 125.821941 
L 228.512094 127.706602 
L 224.102126 127.706602 
L 224.102126 141.64 
L 222.303361 141.64 
L 222.303361 127.706602 
L 217.893392 127.706602 
L 217.893392 125.821941 
L 228.512094 125.821941 
z
" style="fill:#ff0000;"/>
   </g>
   <g id="patch_48">
    <path clip-path="url(#pb218df35fc)" d="M 223.369847 99.196223 
Q 225.007973 99.196223 226.20302 100.57408 
Q 227.934826 102.552684 228.322203 107.512971 
L 226.765098 107.512971 
Q 226.478995 104.740722 225.585242 103.473093 
Q 224.691488 102.205464 223.329337 102.205464 
Q 221.71653 102.205464 220.612631 104.845439 
Q 219.508731 107.479902 219.508731 112.699226 
Q 219.508731 117.207576 220.417676 120.040451 
Q 221.329153 122.873326 223.385039 122.873326 
Q 224.959868 122.873326 225.992874 120.889211 
Q 227.025881 118.899585 227.048668 114.451861 
L 223.410357 114.451861 
L 223.410357 111.613475 
L 228.512094 111.613475 
L 228.512094 125.149547 
L 227.499343 125.149547 
L 227.119561 121.892292 
Q 226.322019 123.804758 225.70424 124.548801 
Q 224.66617 125.821941 223.068554 125.821941 
Q 221.005072 125.821941 219.516327 122.911906 
Q 217.893392 119.257828 217.893392 112.886615 
Q 217.893392 106.531936 219.475817 102.778652 
Q 220.979753 99.196223 223.369847 99.196223 
z
M 223.109064 99.157643 
L 223.109064 99.157643 
z
" style="fill:#ffa600;"/>
   </g>
   <g id="patch_49">
    <path clip-path="url(#pb218df35fc)" d="M 223.476556 71.225945 
Q 225.750502 71.225945 227.004823 73.883355 
Q 228.259144 76.534989 228.397354 79.908746 
L 226.817066 79.908746 
Q 226.548469 77.349543 225.745286 75.853306 
Q 224.942103 74.351291 223.492202 74.351291 
Q 221.724157 74.351291 220.636731 77.10691 
Q 219.549305 79.856753 219.549305 85.541301 
Q 219.549305 90.203324 220.529814 93.103368 
Q 221.51293 95.997635 223.460909 95.997635 
Q 225.252424 95.997635 226.191209 92.947389 
Q 226.686679 91.341389 226.931806 88.71864 
L 228.512094 88.71864 
Q 228.300868 92.906951 227.11174 95.743448 
Q 225.685308 99.157643 223.265329 99.157643 
Q 221.17914 99.157643 219.760531 96.355808 
Q 217.893392 92.65854 217.893392 84.928941 
Q 217.893392 79.065306 219.296354 75.310269 
Q 220.811449 71.225945 223.476556 71.225945 
z
M 223.150589 71.225945 
L 223.150589 71.225945 
z
" style="fill:#0000ff;"/>
   </g>
   <g id="patch_50">
    <path clip-path="url(#pb218df35fc)" d="M 225.020908 53.843413 
L 223.214407 35.102438 
L 221.293865 53.843413 
L 225.020908 53.843413 
z
M 222.372064 28.8 
L 224.194116 28.8 
L 228.512094 71.225945 
L 226.744471 71.225945 
L 225.539273 58.519416 
L 220.832521 58.519416 
L 219.544384 71.225945 
L 217.893392 71.225945 
L 222.372064 28.8 
z
M 223.206631 28.8 
L 223.206631 28.8 
z
" style="fill:#008000;"/>
   </g>
   <g id="patch_51">
    <path clip-path="url(#pb218df35fc)" d="M 234.547429 121.090504 
Q 236.185554 121.090504 237.380602 122.153922 
Q 239.112407 123.680991 239.499785 127.509297 
L 237.942679 127.509297 
Q 237.656576 125.369699 236.762823 124.391354 
Q 235.86907 123.413009 234.506918 123.413009 
Q 232.894111 123.413009 231.790212 125.450519 
Q 230.686312 127.483775 230.686312 131.512004 
Q 230.686312 134.991508 231.595257 137.177897 
Q 232.506734 139.364285 234.56262 139.364285 
Q 236.137449 139.364285 237.170456 137.832962 
Q 238.203462 136.297386 238.226249 132.864672 
L 234.587939 132.864672 
L 234.587939 130.67403 
L 239.689676 130.67403 
L 239.689676 141.121052 
L 238.676924 141.121052 
L 238.297142 138.607131 
Q 237.4996 140.083156 236.881821 140.657401 
Q 235.843751 141.64 234.246135 141.64 
Q 232.182653 141.64 230.693908 139.39406 
Q 229.070973 136.573875 229.070973 131.656628 
Q 229.070973 126.752143 230.653398 123.855391 
Q 232.157334 121.090504 234.547429 121.090504 
z
M 234.286645 121.060728 
L 234.286645 121.060728 
z
" style="fill:#ffa600;"/>
   </g>
   <g id="patch_52">
    <path clip-path="url(#pb218df35fc)" d="M 234.654137 98.713865 
Q 236.928083 98.713865 238.182404 100.839937 
Q 239.436725 102.961386 239.574935 105.660573 
L 237.994647 105.660573 
Q 237.72605 103.613074 236.922867 102.416003 
Q 236.119685 101.21431 234.669783 101.21431 
Q 232.901738 101.21431 231.814312 103.418954 
Q 230.726886 105.618976 230.726886 110.166921 
Q 230.726886 113.89679 231.707395 116.216982 
Q 232.690511 118.532551 234.63849 118.532551 
Q 236.430005 118.532551 237.36879 116.092191 
Q 237.86426 114.807304 238.109387 112.708963 
L 239.689676 112.708963 
Q 239.478449 116.059837 238.289321 118.329188 
Q 236.862889 121.060728 234.44291 121.060728 
Q 232.356721 121.060728 230.938113 118.819109 
Q 229.070973 115.861096 229.070973 109.677 
Q 229.070973 104.985777 230.473936 101.981545 
Q 231.98903 98.713865 234.654137 98.713865 
z
M 234.32817 98.713865 
L 234.32817 98.713865 
z
" style="fill:#0000ff;"/>
   </g>
   <g id="patch_53">
    <path clip-path="url(#pb218df35fc)" d="M 239.689676 71.034142 
L 239.689676 74.332075 
L 235.279707 74.332075 
L 235.279707 98.713865 
L 233.480942 98.713865 
L 233.480942 74.332075 
L 229.070973 74.332075 
L 229.070973 71.034142 
L 239.689676 71.034142 
z
" style="fill:#ff0000;"/>
   </g>
   <g id="patch_54">
    <path clip-path="url(#pb218df35fc)" d="M 236.198489 53.730195 
L 234.391988 35.073946 
L 232.471446 53.730195 
L 236.198489 53.730195 
z
M 233.549645 28.8 
L 235.371697 28.8 
L 239.689676 71.034142 
L 237.922052 71.034142 
L 236.716854 58.385058 
L 232.010102 58.385058 
L 230.721965 71.034142 
L 229.070973 71.034142 
L 233.549645 28.8 
z
M 234.384212 28.8 
L 234.384212 28.8 
z
" style="fill:#008000;"/>
   </g>
   <g id="patch_55">
    <path clip-path="url(#pb218df35fc)" d="M 245.72501 118.6495 
Q 247.363136 118.6495 248.558183 119.839238 
Q 250.289988 121.547702 250.677366 125.830759 
L 249.12026 125.830759 
Q 248.834158 123.437006 247.940404 122.342447 
Q 247.046651 121.247888 245.6845 121.247888 
Q 244.071692 121.247888 242.967793 123.527426 
Q 241.863894 125.802206 241.863894 130.308934 
Q 241.863894 134.201757 242.772838 136.647859 
Q 243.684315 139.09396 245.740201 139.09396 
Q 247.31503 139.09396 248.348037 137.380737 
Q 249.381043 135.662755 249.40383 131.822281 
L 245.76552 131.822281 
L 245.76552 129.37142 
L 250.867257 129.37142 
L 250.867257 141.059408 
L 249.854505 141.059408 
L 249.474723 138.246867 
Q 248.677181 139.898223 248.059402 140.540682 
Q 247.021332 141.64 245.423716 141.64 
Q 243.360234 141.64 241.871489 139.127273 
Q 240.248555 135.972087 240.248555 130.470738 
Q 240.248555 124.983666 241.830979 121.742819 
Q 243.334916 118.6495 245.72501 118.6495 
z
M 245.464226 118.616187 
L 245.464226 118.616187 
z
" style="fill:#ffa600;"/>
   </g>
   <g id="patch_56">
    <path clip-path="url(#pb218df35fc)" d="M 250.867257 92.982357 
L 250.867257 96.036529 
L 246.457288 96.036529 
L 246.457288 118.616187 
L 244.658523 118.616187 
L 244.658523 96.036529 
L 240.248555 96.036529 
L 240.248555 92.982357 
L 250.867257 92.982357 
z
" style="fill:#ff0000;"/>
   </g>
   <g id="patch_57">
    <path clip-path="url(#pb218df35fc)" d="M 245.831718 66.9574 
Q 248.105664 66.9574 249.359985 69.433404 
Q 250.614306 71.904026 250.752516 75.047475 
L 249.172228 75.047475 
Q 248.903631 72.662975 248.100448 71.268877 
Q 247.297266 69.869397 245.847364 69.869397 
Q 244.079319 69.869397 242.991893 72.436905 
Q 241.904467 74.999031 241.904467 80.295527 
Q 241.904467 84.6393 242.884976 87.341374 
Q 243.868093 90.038065 245.816071 90.038065 
Q 247.607586 90.038065 248.546371 87.196043 
Q 249.041841 85.699675 249.286968 83.255967 
L 250.867257 83.255967 
Q 250.65603 87.158365 249.466902 89.80123 
Q 248.040471 92.982357 245.620491 92.982357 
Q 243.534302 92.982357 242.115694 90.371787 
Q 240.248555 86.926912 240.248555 79.72497 
Q 240.248555 74.261613 241.651517 70.762911 
Q 243.166611 66.9574 245.831718 66.9574 
z
M 245.505751 66.9574 
L 245.505751 66.9574 
z
" style="fill:#0000ff;"/>
   </g>
   <g id="patch_58">
    <path clip-path="url(#pb218df35fc)" d="M 247.37607 51.323754 
L 245.569569 34.46834 
L 243.649027 51.323754 
L 247.37607 51.323754 
z
M 244.727226 28.8 
L 246.549278 28.8 
L 250.867257 66.9574 
L 249.099633 66.9574 
L 247.894435 55.529296 
L 243.187683 55.529296 
L 241.899546 66.9574 
L 240.248555 66.9574 
L 244.727226 28.8 
z
M 245.561793 28.8 
L 245.561793 28.8 
z
" style="fill:#008000;"/>
   </g>
   <g id="patch_59">
    <path clip-path="url(#pb218df35fc)" d="M 262.044838 123.343553 
L 262.044838 125.523504 
L 257.634869 125.523504 
L 257.634869 141.64 
L 255.836104 141.64 
L 255.836104 125.523504 
L 251.426136 125.523504 
L 251.426136 123.343553 
L 262.044838 123.343553 
z
" style="fill:#ff0000;"/>
   </g>
   <g id="patch_60">
    <path clip-path="url(#pb218df35fc)" d="M 256.902591 98.591775 
Q 258.540717 98.591775 259.735764 99.872657 
Q 261.467569 101.712005 261.854947 106.323183 
L 260.297841 106.323183 
Q 260.011739 103.746047 259.117985 102.567635 
Q 258.224232 101.389223 256.862081 101.389223 
Q 255.249274 101.389223 254.145374 103.843394 
Q 253.041475 106.292442 253.041475 111.144426 
Q 253.041475 115.335474 253.950419 117.968969 
Q 254.861896 120.602464 256.917782 120.602464 
Q 258.492611 120.602464 259.525618 118.757993 
Q 260.558625 116.908398 260.581411 112.773708 
L 256.943101 112.773708 
L 256.943101 110.13509 
L 262.044838 110.13509 
L 262.044838 122.718482 
L 261.032086 122.718482 
L 260.652304 119.690475 
Q 259.854762 121.468341 259.236984 122.160017 
Q 258.198913 123.343553 256.601297 123.343553 
Q 254.537815 123.343553 253.04907 120.638328 
Q 251.426136 117.241427 251.426136 111.318626 
Q 251.426136 105.411194 253.00856 101.92207 
Q 254.512497 98.591775 256.902591 98.591775 
z
M 256.641807 98.55591 
L 256.641807 98.55591 
z
" style="fill:#ffa600;"/>
   </g>
   <g id="patch_61">
    <path clip-path="url(#pb218df35fc)" d="M 257.009299 65.46435 
Q 259.283245 65.46435 260.537566 68.612668 
Q 261.791887 71.754142 261.930097 75.751137 
L 260.349809 75.751137 
Q 260.081212 72.71917 259.27803 70.94653 
Q 258.474847 69.167046 257.024945 69.167046 
Q 255.2569 69.167046 254.169474 72.431715 
Q 253.082048 75.689539 253.082048 82.424202 
Q 253.082048 87.947447 254.062557 91.38322 
Q 255.045674 94.812149 256.993653 94.812149 
Q 258.785167 94.812149 259.723952 91.198428 
Q 260.219422 89.295748 260.46455 86.188495 
L 262.044838 86.188495 
Q 261.833611 91.150518 260.644483 94.511006 
Q 259.218052 98.55591 256.798072 98.55591 
Q 254.711883 98.55591 253.293275 95.236488 
Q 251.426136 90.856219 251.426136 81.69872 
Q 251.426136 74.751888 252.829098 70.303178 
Q 254.344193 65.46435 257.009299 65.46435 
z
M 256.683332 65.46435 
L 256.683332 65.46435 
z
" style="fill:#0000ff;"/>
   </g>
   <g id="patch_62">
    <path clip-path="url(#pb218df35fc)" d="M 258.553651 50.442428 
L 256.74715 34.246545 
L 254.826609 50.442428 
L 258.553651 50.442428 
z
M 255.904807 28.8 
L 257.726859 28.8 
L 262.044838 65.46435 
L 260.277214 65.46435 
L 259.072016 54.483413 
L 254.365264 54.483413 
L 253.077127 65.46435 
L 251.426136 65.46435 
L 255.904807 28.8 
z
M 256.739374 28.8 
L 256.739374 28.8 
z
" style="fill:#008000;"/>
   </g>
   <g id="patch_63">
    <path clip-path="url(#pb218df35fc)" d="M 268.080172 122.059394 
Q 269.718298 122.059394 270.913345 123.072673 
Q 272.64515 124.527742 273.032528 128.175547 
L 271.475422 128.175547 
Q 271.18932 126.13683 270.295566 125.204613 
Q 269.401813 124.272396 268.039662 124.272396 
Q 266.426855 124.272396 265.322955 126.213839 
Q 264.219056 128.151228 264.219056 131.98953 
Q 264.219056 135.304979 265.128001 137.388281 
Q 266.039477 139.471583 268.095363 139.471583 
Q 269.670192 139.471583 270.703199 138.012461 
Q 271.736206 136.549286 271.758993 133.278421 
L 268.120682 133.278421 
L 268.120682 131.191066 
L 273.222419 131.191066 
L 273.222419 141.14552 
L 272.209667 141.14552 
L 271.829885 138.750128 
Q 271.032343 140.156559 270.414565 140.70373 
Q 269.376494 141.64 267.778878 141.64 
Q 265.715397 141.64 264.226651 139.499955 
Q 262.603717 136.812738 262.603717 132.127336 
Q 262.603717 127.454092 264.186141 124.69392 
Q 265.690078 122.059394 268.080172 122.059394 
z
M 267.819388 122.031023 
L 267.819388 122.031023 
z
" style="fill:#ffa600;"/>
   </g>
   <g id="patch_64">
    <path clip-path="url(#pb218df35fc)" d="M 273.222419 100.932756 
L 273.222419 103.446533 
L 268.812451 103.446533 
L 268.812451 122.031023 
L 267.013685 122.031023 
L 267.013685 103.446533 
L 262.603717 103.446533 
L 262.603717 100.932756 
L 273.222419 100.932756 
z
" style="fill:#ff0000;"/>
   </g>
   <g id="patch_65">
    <path clip-path="url(#pb218df35fc)" d="M 269.731232 87.012555 
L 267.924731 72.004491 
L 266.00419 87.012555 
L 269.731232 87.012555 
z
M 267.082388 66.9574 
L 268.90444 66.9574 
L 273.222419 100.932756 
L 271.454795 100.932756 
L 270.249597 90.75717 
L 265.542845 90.75717 
L 264.254709 100.932756 
L 262.603717 100.932756 
L 267.082388 66.9574 
z
M 267.916956 66.9574 
L 267.916956 66.9574 
z
" style="fill:#008000;"/>
   </g>
   <g id="patch_66">
    <path clip-path="url(#pb218df35fc)" d="M 268.18688 28.8 
Q 270.460826 28.8 271.715147 32.43028 
Q 272.969468 36.052668 273.107678 40.661546 
L 271.52739 40.661546 
Q 271.258793 37.165428 270.455611 35.121422 
Q 269.652428 33.069525 268.202527 33.069525 
Q 266.434481 33.069525 265.347055 36.833968 
Q 264.259629 40.590518 264.259629 48.356161 
Q 264.259629 54.724935 265.240138 58.686675 
Q 266.223255 62.640524 268.171234 62.640524 
Q 269.962749 62.640524 270.901534 58.473594 
Q 271.397003 56.279642 271.642131 52.696713 
L 273.222419 52.696713 
Q 273.011192 58.41835 271.822065 62.29328 
Q 270.395633 66.9574 267.975654 66.9574 
Q 265.889465 66.9574 264.470856 63.129822 
Q 262.603717 58.078998 262.603717 47.519618 
Q 262.603717 39.509326 264.006679 34.379583 
Q 265.521774 28.8 268.18688 28.8 
z
M 267.860913 28.8 
L 267.860913 28.8 
z
" style="fill:#0000ff;"/>
   </g>
   <g id="patch_67">
    <path clip-path="url(#pb218df35fc)" d="M 279.257753 120.28685 
Q 280.895879 120.28685 282.090926 121.391857 
Q 283.822732 122.978646 284.210109 126.956671 
L 282.653003 126.956671 
Q 282.366901 124.733397 281.473147 123.716791 
Q 280.579394 122.700185 279.217243 122.700185 
Q 277.604436 122.700185 276.500536 124.817378 
Q 275.396637 126.93015 275.396637 131.115916 
Q 275.396637 134.731498 276.305582 137.003392 
Q 277.217058 139.275286 279.272944 139.275286 
Q 280.847773 139.275286 281.88078 137.684076 
Q 282.913787 136.088446 282.936574 132.521485 
L 279.298263 132.521485 
L 279.298263 130.245171 
L 284.4 130.245171 
L 284.4 141.100757 
L 283.387248 141.100757 
L 283.007466 138.488521 
Q 282.209924 140.02227 281.592146 140.618974 
Q 280.554075 141.64 278.956459 141.64 
Q 276.892978 141.64 275.404233 139.306226 
Q 273.781298 136.375748 273.781298 131.266197 
Q 273.781298 126.169906 275.363723 123.159868 
Q 276.867659 120.28685 279.257753 120.28685 
z
M 278.996969 120.25591 
L 278.996969 120.25591 
z
" style="fill:#ffa600;"/>
   </g>
   <g id="patch_68">
    <path clip-path="url(#pb218df35fc)" d="M 280.908813 110.560769 
L 279.102312 100.107953 
L 277.181771 110.560769 
L 280.908813 110.560769 
z
M 278.259969 96.592756 
L 280.082022 96.592756 
L 284.4 120.25591 
L 282.632376 120.25591 
L 281.427178 113.168818 
L 276.720426 113.168818 
L 275.43229 120.25591 
L 273.781298 120.25591 
L 278.259969 96.592756 
z
M 279.094537 96.592756 
L 279.094537 96.592756 
z
" style="fill:#008000;"/>
   </g>
   <g id="patch_69">
    <path clip-path="url(#pb218df35fc)" d="M 284.4 71.726135 
L 284.4 74.688897 
L 279.990032 74.688897 
L 279.990032 96.592756 
L 278.191266 96.592756 
L 278.191266 74.688897 
L 273.781298 74.688897 
L 273.781298 71.726135 
L 284.4 71.726135 
z
" style="fill:#ff0000;"/>
   </g>
   <g id="patch_70">
    <path clip-path="url(#pb218df35fc)" d="M 279.364461 28.8 
Q 281.638407 28.8 282.892728 32.883976 
Q 284.14705 36.959073 284.28526 42.143946 
L 282.704971 42.143946 
Q 282.436375 38.2109 281.633192 35.911445 
Q 280.830009 33.60311 279.380108 33.60311 
Q 277.612063 33.60311 276.524636 37.838016 
Q 275.43721 42.064043 275.43721 50.800199 
Q 275.43721 57.964913 276.417719 62.421773 
Q 277.400836 66.869755 279.348815 66.869755 
Q 281.14033 66.869755 282.079115 62.182062 
Q 282.574585 59.71392 282.819712 55.683214 
L 284.4 55.683214 
Q 284.188773 62.119914 282.999646 66.479114 
Q 281.573214 71.726135 279.153235 71.726135 
Q 277.067046 71.726135 275.648437 67.420204 
Q 273.781298 61.738151 273.781298 49.859109 
Q 273.781298 40.847728 275.18426 35.076893 
Q 276.699355 28.8 279.364461 28.8 
z
M 279.038494 28.8 
L 279.038494 28.8 
z
" style="fill:#0000ff;"/>
   </g>
   <g id="matplotlib.axis_1">
    <g id="xtick_1">
     <g id="line2d_2">
      <path clip-path="url(#pb218df35fc)" d="M 100.249351 141.64 
L 100.249351 28.8 
" style="fill:none;stroke:#cccccc;stroke-linecap:round;stroke-width:0.8;"/>
     </g>
     <g id="text_1">
      <!-- 0 -->
      <g style="fill:#262626;" transform="translate(94.688414 162.986875)scale(0.2 -0.2)">
       <defs>
        <path d="M 1731 4475 
Q 2600 4475 2988 3759 
Q 3288 3206 3288 2244 
Q 3288 1331 3016 734 
Q 2622 -122 1728 -122 
Q 922 -122 528 578 
Q 200 1163 200 2147 
Q 200 2909 397 3456 
Q 766 4475 1731 4475 
z
M 1725 391 
Q 2163 391 2422 778 
Q 2681 1166 2681 2222 
Q 2681 2984 2493 3476 
Q 2306 3969 1766 3969 
Q 1269 3969 1039 3501 
Q 809 3034 809 2125 
Q 809 1441 956 1025 
Q 1181 391 1725 391 
z
" id="Helvetica-30" transform="scale(0.015625)"/>
       </defs>
       <use xlink:href="#Helvetica-30"/>
      </g>
     </g>
    </g>
    <g id="xtick_2">
     <g id="line2d_3">
      <path clip-path="url(#pb218df35fc)" d="M 212.025162 141.64 
L 212.025162 28.8 
" style="fill:none;stroke:#cccccc;stroke-linecap:round;stroke-width:0.8;"/>
     </g>
     <g id="text_2">
      <!-- 10 -->
      <g style="fill:#262626;" transform="translate(200.903287 162.986875)scale(0.2 -0.2)">
       <defs>
        <path d="M 613 3169 
L 613 3600 
Q 1222 3659 1462 3798 
Q 1703 3938 1822 4456 
L 2266 4456 
L 2266 0 
L 1666 0 
L 1666 3169 
L 613 3169 
z
" id="Helvetica-31" transform="scale(0.015625)"/>
       </defs>
       <use xlink:href="#Helvetica-31"/>
       <use x="55.615234" xlink:href="#Helvetica-30"/>
      </g>
     </g>
    </g>
    <g id="text_3">
     <!-- Position -->
     <g style="fill:#262626;" transform="translate(145.20125 189.089219)scale(0.25 -0.25)">
      <defs>
       <path d="M 547 4591 
L 2613 4591 
Q 3225 4591 3600 4245 
Q 3975 3900 3975 3275 
Q 3975 2738 3640 2339 
Q 3306 1941 2613 1941 
L 1169 1941 
L 1169 0 
L 547 0 
L 547 4591 
z
M 3347 3272 
Q 3347 3778 2972 3959 
Q 2766 4056 2406 4056 
L 1169 4056 
L 1169 2466 
L 2406 2466 
Q 2825 2466 3086 2644 
Q 3347 2822 3347 3272 
z
" id="Helvetica-50" transform="scale(0.015625)"/>
       <path d="M 1741 363 
Q 2300 363 2508 786 
Q 2716 1209 2716 1728 
Q 2716 2197 2566 2491 
Q 2328 2953 1747 2953 
Q 1231 2953 997 2559 
Q 763 2166 763 1609 
Q 763 1075 997 719 
Q 1231 363 1741 363 
z
M 1763 3444 
Q 2409 3444 2856 3012 
Q 3303 2581 3303 1744 
Q 3303 934 2909 406 
Q 2516 -122 1688 -122 
Q 997 -122 590 345 
Q 184 813 184 1600 
Q 184 2444 612 2944 
Q 1041 3444 1763 3444 
z
M 1744 3428 
L 1744 3428 
z
" id="Helvetica-6f" transform="scale(0.015625)"/>
       <path d="M 747 1050 
Q 772 769 888 619 
Q 1100 347 1625 347 
Q 1938 347 2175 483 
Q 2413 619 2413 903 
Q 2413 1119 2222 1231 
Q 2100 1300 1741 1391 
L 1294 1503 
Q 866 1609 663 1741 
Q 300 1969 300 2372 
Q 300 2847 642 3140 
Q 984 3434 1563 3434 
Q 2319 3434 2653 2991 
Q 2863 2709 2856 2384 
L 2325 2384 
Q 2309 2575 2191 2731 
Q 1997 2953 1519 2953 
Q 1200 2953 1036 2831 
Q 872 2709 872 2509 
Q 872 2291 1088 2159 
Q 1213 2081 1456 2022 
L 1828 1931 
Q 2434 1784 2641 1647 
Q 2969 1431 2969 969 
Q 2969 522 2630 197 
Q 2291 -128 1597 -128 
Q 850 -128 539 211 
Q 228 550 206 1050 
L 747 1050 
z
M 1578 3428 
L 1578 3428 
z
" id="Helvetica-73" transform="scale(0.015625)"/>
       <path d="M 413 3331 
L 984 3331 
L 984 0 
L 413 0 
L 413 3331 
z
M 413 4591 
L 984 4591 
L 984 3953 
L 413 3953 
L 413 4591 
z
" id="Helvetica-69" transform="scale(0.015625)"/>
       <path d="M 525 4281 
L 1094 4281 
L 1094 3347 
L 1628 3347 
L 1628 2888 
L 1094 2888 
L 1094 703 
Q 1094 528 1213 469 
Q 1278 434 1431 434 
Q 1472 434 1519 436 
Q 1566 438 1628 444 
L 1628 0 
Q 1531 -28 1426 -40 
Q 1322 -53 1200 -53 
Q 806 -53 665 148 
Q 525 350 525 672 
L 525 2888 
L 72 2888 
L 72 3347 
L 525 3347 
L 525 4281 
z
" id="Helvetica-74" transform="scale(0.015625)"/>
       <path d="M 413 3347 
L 947 3347 
L 947 2872 
Q 1184 3166 1450 3294 
Q 1716 3422 2041 3422 
Q 2753 3422 3003 2925 
Q 3141 2653 3141 2147 
L 3141 0 
L 2569 0 
L 2569 2109 
Q 2569 2416 2478 2603 
Q 2328 2916 1934 2916 
Q 1734 2916 1606 2875 
Q 1375 2806 1200 2600 
Q 1059 2434 1017 2257 
Q 975 2081 975 1753 
L 975 0 
L 413 0 
L 413 3347 
z
M 1734 3428 
L 1734 3428 
z
" id="Helvetica-6e" transform="scale(0.015625)"/>
      </defs>
      <use xlink:href="#Helvetica-50"/>
      <use x="66.699219" xlink:href="#Helvetica-6f"/>
      <use x="122.314453" xlink:href="#Helvetica-73"/>
      <use x="172.314453" xlink:href="#Helvetica-69"/>
      <use x="194.53125" xlink:href="#Helvetica-74"/>
      <use x="222.314453" xlink:href="#Helvetica-69"/>
      <use x="244.53125" xlink:href="#Helvetica-6f"/>
      <use x="300.146484" xlink:href="#Helvetica-6e"/>
     </g>
    </g>
   </g>
   <g id="matplotlib.axis_2">
    <g id="ytick_1">
     <g id="line2d_4">
      <path clip-path="url(#pb218df35fc)" d="M 94.94 141.64 
L 284.4 141.64 
" style="fill:none;stroke:#cccccc;stroke-linecap:round;stroke-width:0.8;"/>
     </g>
     <g id="text_4">
      <!-- 0 -->
      <g style="fill:#262626;" transform="translate(76.818125 148.813438)scale(0.2 -0.2)">
       <use xlink:href="#Helvetica-30"/>
      </g>
     </g>
    </g>
    <g id="ytick_2">
     <g id="line2d_5">
      <path clip-path="url(#pb218df35fc)" d="M 94.94 113.43 
L 284.4 113.43 
" style="fill:none;stroke:#cccccc;stroke-linecap:round;stroke-width:0.8;"/>
     </g>
     <g id="text_5">
      <!-- 0.25 -->
      <g style="fill:#262626;" transform="translate(49.018125 120.603438)scale(0.2 -0.2)">
       <defs>
        <path d="M 547 681 
L 1200 681 
L 1200 0 
L 547 0 
L 547 681 
z
" id="Helvetica-2e" transform="scale(0.015625)"/>
        <path d="M 200 0 
Q 231 578 439 1006 
Q 647 1434 1250 1784 
L 1850 2131 
Q 2253 2366 2416 2531 
Q 2672 2791 2672 3125 
Q 2672 3516 2437 3745 
Q 2203 3975 1813 3975 
Q 1234 3975 1013 3538 
Q 894 3303 881 2888 
L 309 2888 
Q 319 3472 525 3841 
Q 891 4491 1816 4491 
Q 2584 4491 2939 4075 
Q 3294 3659 3294 3150 
Q 3294 2613 2916 2231 
Q 2697 2009 2131 1694 
L 1703 1456 
Q 1397 1288 1222 1134 
Q 909 863 828 531 
L 3272 531 
L 3272 0 
L 200 0 
z
" id="Helvetica-32" transform="scale(0.015625)"/>
        <path d="M 791 1141 
Q 847 659 1238 475 
Q 1438 381 1700 381 
Q 2200 381 2440 700 
Q 2681 1019 2681 1406 
Q 2681 1875 2395 2131 
Q 2109 2388 1709 2388 
Q 1419 2388 1211 2275 
Q 1003 2163 856 1963 
L 369 1991 
L 709 4400 
L 3034 4400 
L 3034 3856 
L 1131 3856 
L 941 2613 
Q 1097 2731 1238 2791 
Q 1488 2894 1816 2894 
Q 2431 2894 2859 2497 
Q 3288 2100 3288 1491 
Q 3288 856 2895 371 
Q 2503 -113 1644 -113 
Q 1097 -113 676 195 
Q 256 503 206 1141 
L 791 1141 
z
" id="Helvetica-35" transform="scale(0.015625)"/>
       </defs>
       <use xlink:href="#Helvetica-30"/>
       <use x="55.615234" xlink:href="#Helvetica-2e"/>
       <use x="83.398438" xlink:href="#Helvetica-32"/>
       <use x="139.013672" xlink:href="#Helvetica-35"/>
      </g>
     </g>
    </g>
    <g id="ytick_3">
     <g id="line2d_6">
      <path clip-path="url(#pb218df35fc)" d="M 94.94 85.22 
L 284.4 85.22 
" style="fill:none;stroke:#cccccc;stroke-linecap:round;stroke-width:0.8;"/>
     </g>
     <g id="text_6">
      <!-- 0.50 -->
      <g style="fill:#262626;" transform="translate(49.018125 92.393438)scale(0.2 -0.2)">
       <use xlink:href="#Helvetica-30"/>
       <use x="55.615234" xlink:href="#Helvetica-2e"/>
       <use x="83.398438" xlink:href="#Helvetica-35"/>
       <use x="139.013672" xlink:href="#Helvetica-30"/>
      </g>
     </g>
    </g>
    <g id="ytick_4">
     <g id="line2d_7">
      <path clip-path="url(#pb218df35fc)" d="M 94.94 57.01 
L 284.4 57.01 
" style="fill:none;stroke:#cccccc;stroke-linecap:round;stroke-width:0.8;"/>
     </g>
     <g id="text_7">
      <!-- 0.75 -->
      <g style="fill:#262626;" transform="translate(49.018125 64.183437)scale(0.2 -0.2)">
       <defs>
        <path d="M 3347 4400 
L 3347 3909 
Q 3131 3700 2773 3181 
Q 2416 2663 2141 2063 
Q 1869 1478 1728 997 
Q 1638 688 1494 0 
L 872 0 
Q 1084 1281 1809 2550 
Q 2238 3294 2709 3834 
L 234 3834 
L 234 4400 
L 3347 4400 
z
" id="Helvetica-37" transform="scale(0.015625)"/>
       </defs>
       <use xlink:href="#Helvetica-30"/>
       <use x="55.615234" xlink:href="#Helvetica-2e"/>
       <use x="83.398438" xlink:href="#Helvetica-37"/>
       <use x="139.013672" xlink:href="#Helvetica-35"/>
      </g>
     </g>
    </g>
    <g id="ytick_5">
     <g id="line2d_8">
      <path clip-path="url(#pb218df35fc)" d="M 94.94 28.8 
L 284.4 28.8 
" style="fill:none;stroke:#cccccc;stroke-linecap:round;stroke-width:0.8;"/>
     </g>
     <g id="text_8">
      <!-- 1.0 -->
      <g style="fill:#262626;" transform="translate(60.14 35.973438)scale(0.2 -0.2)">
       <use xlink:href="#Helvetica-31"/>
       <use x="55.615234" xlink:href="#Helvetica-2e"/>
       <use x="83.398438" xlink:href="#Helvetica-30"/>
      </g>
     </g>
    </g>
    <g id="text_9">
     <!-- Probability -->
     <g style="fill:#262626;" transform="translate(39.65875 143.579375)rotate(-90)scale(0.25 -0.25)">
      <defs>
       <path d="M 428 3347 
L 963 3347 
L 963 2769 
Q 1028 2938 1284 3180 
Q 1541 3422 1875 3422 
Q 1891 3422 1928 3419 
Q 1966 3416 2056 3406 
L 2056 2813 
Q 2006 2822 1964 2825 
Q 1922 2828 1872 2828 
Q 1447 2828 1219 2554 
Q 991 2281 991 1925 
L 991 0 
L 428 0 
L 428 3347 
z
" id="Helvetica-72" transform="scale(0.015625)"/>
       <path d="M 369 4606 
L 916 4606 
L 916 2941 
Q 1100 3181 1356 3307 
Q 1613 3434 1913 3434 
Q 2538 3434 2927 3004 
Q 3316 2575 3316 1738 
Q 3316 944 2931 419 
Q 2547 -106 1866 -106 
Q 1484 -106 1222 78 
Q 1066 188 888 428 
L 888 0 
L 369 0 
L 369 4606 
z
M 1831 391 
Q 2288 391 2514 753 
Q 2741 1116 2741 1709 
Q 2741 2238 2514 2584 
Q 2288 2931 1847 2931 
Q 1463 2931 1173 2647 
Q 884 2363 884 1709 
Q 884 1238 1003 944 
Q 1225 391 1831 391 
z
" id="Helvetica-62" transform="scale(0.015625)"/>
       <path d="M 844 891 
Q 844 647 1022 506 
Q 1200 366 1444 366 
Q 1741 366 2019 503 
Q 2488 731 2488 1250 
L 2488 1703 
Q 2384 1638 2221 1594 
Q 2059 1550 1903 1531 
L 1563 1488 
Q 1256 1447 1103 1359 
Q 844 1213 844 891 
z
M 2206 2028 
Q 2400 2053 2466 2191 
Q 2503 2266 2503 2406 
Q 2503 2694 2298 2823 
Q 2094 2953 1713 2953 
Q 1272 2953 1088 2716 
Q 984 2584 953 2325 
L 428 2325 
Q 444 2944 830 3186 
Q 1216 3428 1725 3428 
Q 2316 3428 2684 3203 
Q 3050 2978 3050 2503 
L 3050 575 
Q 3050 488 3086 434 
Q 3122 381 3238 381 
Q 3275 381 3322 386 
Q 3369 391 3422 400 
L 3422 -16 
Q 3291 -53 3222 -62 
Q 3153 -72 3034 -72 
Q 2744 -72 2613 134 
Q 2544 244 2516 444 
Q 2344 219 2022 53 
Q 1700 -113 1313 -113 
Q 847 -113 551 170 
Q 256 453 256 878 
Q 256 1344 547 1600 
Q 838 1856 1309 1916 
L 2206 2028 
z
M 1741 3428 
L 1741 3428 
z
" id="Helvetica-61" transform="scale(0.015625)"/>
       <path d="M 428 4591 
L 991 4591 
L 991 0 
L 428 0 
L 428 4591 
z
" id="Helvetica-6c" transform="scale(0.015625)"/>
       <path d="M 2503 3347 
L 3125 3347 
Q 3006 3025 2597 1878 
Q 2291 1016 2084 472 
Q 1597 -809 1397 -1090 
Q 1197 -1372 709 -1372 
Q 591 -1372 527 -1362 
Q 463 -1353 369 -1328 
L 369 -816 
Q 516 -856 581 -865 
Q 647 -875 697 -875 
Q 853 -875 926 -823 
Q 1000 -772 1050 -697 
Q 1066 -672 1162 -440 
Q 1259 -209 1303 -97 
L 66 3347 
L 703 3347 
L 1600 622 
L 2503 3347 
z
M 1597 3428 
L 1597 3428 
z
" id="Helvetica-79" transform="scale(0.015625)"/>
      </defs>
      <use xlink:href="#Helvetica-50"/>
      <use x="66.699219" xlink:href="#Helvetica-72"/>
      <use x="100" xlink:href="#Helvetica-6f"/>
      <use x="155.615234" xlink:href="#Helvetica-62"/>
      <use x="211.230469" xlink:href="#Helvetica-61"/>
      <use x="266.845703" xlink:href="#Helvetica-62"/>
      <use x="322.460938" xlink:href="#Helvetica-69"/>
      <use x="344.677734" xlink:href="#Helvetica-6c"/>
      <use x="366.894531" xlink:href="#Helvetica-69"/>
      <use x="389.111328" xlink:href="#Helvetica-74"/>
      <use x="416.894531" xlink:href="#Helvetica-79"/>
     </g>
    </g>
   </g>
   <g id="patch_71">
    <path d="M 94.94 141.64 
L 94.94 28.8 
" style="fill:none;stroke:#000000;stroke-linecap:square;stroke-linejoin:miter;"/>
   </g>
  </g>
 </g>
 <defs>
  <clipPath id="pb218df35fc">
   <rect height="112.84" width="189.46" x="94.94" y="28.8"/>
  </clipPath>
 </defs>
</svg>
