<?xml version="1.0" encoding="utf-8" standalone="no"?>
<!DOCTYPE svg PUBLIC "-//W3C//DTD SVG 1.1//EN"
  "http://www.w3.org/Graphics/SVG/1.1/DTD/svg11.dtd">
<svg height="216pt" version="1.1" viewBox="0 0 306 216" width="306pt" xmlns="http://www.w3.org/2000/svg" xmlns:xlink="http://www.w3.org/1999/xlink">
 <metadata>
  <rdf:RDF xmlns:cc="http://creativecommons.org/ns#" xmlns:dc="http://purl.org/dc/elements/1.1/" xmlns:rdf="http://www.w3.org/1999/02/22-rdf-syntax-ns#">
   <cc:Work>
    <dc:type rdf:resource="http://purl.org/dc/dcmitype/StillImage"/>
    <dc:date>2022-03-15T02:04:36.457435</dc:date>
    <dc:format>image/svg+xml</dc:format>
    <dc:creator>
     <cc:Agent>
      <dc:title>Matplotlib v3.4.2, https://matplotlib.org/</dc:title>
     </cc:Agent>
    </dc:creator>
   </cc:Work>
  </rdf:RDF>
 </metadata>
 <defs>
  <style type="text/css">*{stroke-linecap:butt;stroke-linejoin:round;}</style>
 </defs>
 <g id="figure_1">
  <g id="patch_1">
   <path d="M 0 216 
L 306 216 
L 306 0 
L 0 0 
z
" style="fill:#ffffff;"/>
  </g>
  <g id="axes_1">
   <g id="patch_2">
    <path d="M 94.94 141.64 
L 284.4 141.64 
L 284.4 28.8 
L 94.94 28.8 
z
" style="fill:#ffffff;"/>
   </g>
   <g id="line2d_1">
    <path clip-path="url(#p265ffefc06)" d="M 94.94 141.64 
L 284.4 141.64 
" style="fill:none;stroke:#000000;stroke-linecap:round;stroke-width:0.5;"/>
   </g>
   <g id="patch_3">
    <path clip-path="url(#p265ffefc06)" d="M 105.558702 136.196815 
L 105.558702 136.84535 
L 101.148734 136.84535 
L 101.148734 141.64 
L 99.349968 141.64 
L 99.349968 136.84535 
L 94.94 136.84535 
L 94.94 136.196815 
L 105.558702 136.196815 
z
" style="fill:#ff0000;"/>
   </g>
   <g id="patch_4">
    <path clip-path="url(#p265ffefc06)" d="M 100.416455 107.511348 
Q 102.054581 107.511348 103.249628 108.995795 
Q 104.981434 111.127462 105.368811 116.471474 
L 103.811705 116.471474 
Q 103.525603 113.484765 102.63185 112.119073 
Q 101.738096 110.753381 100.375945 110.753381 
Q 98.763138 110.753381 97.659238 113.597583 
Q 96.555339 116.435847 96.555339 122.058935 
Q 96.555339 126.916048 97.464284 129.968072 
Q 98.37576 133.020097 100.431646 133.020097 
Q 102.006475 133.020097 103.039482 130.882492 
Q 104.072489 128.73895 104.095276 123.947153 
L 100.456965 123.947153 
L 100.456965 120.88919 
L 105.558702 120.88919 
L 105.558702 135.472405 
L 104.54595 135.472405 
L 104.166168 131.96317 
Q 103.368626 134.023584 102.750848 134.825185 
Q 101.712777 136.196815 100.115161 136.196815 
Q 98.05168 136.196815 96.562935 133.061661 
Q 94.94 129.124906 94.94 122.26082 
Q 94.94 115.414547 96.522425 111.370912 
Q 98.026361 107.511348 100.416455 107.511348 
z
M 100.155671 107.469783 
L 100.155671 107.469783 
z
" style="fill:#ffa600;"/>
   </g>
   <g id="patch_5">
    <path clip-path="url(#p265ffefc06)" d="M 100.523163 72.742545 
Q 102.797109 72.742545 104.051431 76.046481 
Q 105.305752 79.343234 105.443962 83.537796 
L 103.863673 83.537796 
Q 103.595077 80.355962 102.791894 78.495703 
Q 101.988711 76.628261 100.53881 76.628261 
Q 98.770765 76.628261 97.683339 80.054299 
Q 96.595913 83.473154 96.595913 90.540704 
Q 96.595913 96.336956 97.576421 99.942555 
Q 98.559538 103.540972 100.507517 103.540972 
Q 102.299032 103.540972 103.237817 99.748629 
Q 103.733287 97.751902 103.978414 94.491061 
L 105.558702 94.491061 
Q 105.347475 99.698352 104.158348 103.224944 
Q 102.731916 107.469783 100.311937 107.469783 
Q 98.225748 107.469783 96.807139 103.986286 
Q 94.94 99.389505 94.94 89.779362 
Q 94.94 82.489156 96.342962 77.820551 
Q 97.858057 72.742545 100.523163 72.742545 
z
M 100.197196 72.742545 
L 100.197196 72.742545 
z
" style="fill:#0000ff;"/>
   </g>
   <g id="patch_6">
    <path clip-path="url(#p265ffefc06)" d="M 102.067515 54.73864 
L 100.261014 35.327732 
L 98.340473 54.73864 
L 102.067515 54.73864 
z
M 99.418672 28.8 
L 101.240724 28.8 
L 105.558702 72.742545 
L 103.791078 72.742545 
L 102.58588 59.581796 
L 97.879128 59.581796 
L 96.590992 72.742545 
L 94.94 72.742545 
L 99.418672 28.8 
z
M 100.253239 28.8 
L 100.253239 28.8 
z
" style="fill:#008000;"/>
   </g>
   <g id="patch_7">
    <path clip-path="url(#p265ffefc06)" d="M 111.700744 133.164251 
Q 113.97469 133.164251 115.229012 133.97063 
Q 116.483333 134.775257 116.621543 135.799008 
L 115.041255 135.799008 
Q 114.772658 135.022429 113.969475 134.568403 
Q 113.166292 134.112623 111.716391 134.112623 
Q 109.948346 134.112623 108.86092 134.948803 
Q 107.773494 135.783231 107.773494 137.508182 
Q 107.773494 138.922852 108.754002 139.802857 
Q 109.737119 140.68111 111.685098 140.68111 
Q 113.476613 140.68111 114.415398 139.755526 
Q 114.910868 139.268193 115.155995 138.472331 
L 116.736283 138.472331 
Q 116.525057 139.743255 115.335929 140.603978 
Q 113.909497 141.64 111.489518 141.64 
Q 109.403329 141.64 107.98472 140.789796 
Q 106.117581 139.667876 106.117581 137.322364 
Q 106.117581 135.54307 107.520543 134.403621 
Q 109.035638 133.164251 111.700744 133.164251 
z
M 111.374777 133.164251 
L 111.374777 133.164251 
z
" style="fill:#0000ff;"/>
   </g>
   <g id="patch_8">
    <path clip-path="url(#p265ffefc06)" d="M 111.594036 109.280834 
Q 113.232162 109.280834 114.427209 110.51678 
Q 116.159015 112.291598 116.546392 116.741003 
L 114.989286 116.741003 
Q 114.703184 114.25428 113.809431 113.11721 
Q 112.915677 111.98014 111.553526 111.98014 
Q 109.940719 111.98014 108.83682 114.348212 
Q 107.73292 116.71134 107.73292 121.393103 
Q 107.73292 125.437118 108.641865 127.978222 
Q 109.553341 130.519327 111.609227 130.519327 
Q 113.184056 130.519327 114.217063 128.739565 
Q 115.25007 126.954859 115.272857 122.965226 
L 111.634546 122.965226 
L 111.634546 120.419178 
L 116.736283 120.419178 
L 116.736283 132.561109 
L 115.723531 132.561109 
L 115.34375 129.639333 
Q 114.546208 131.354826 113.928429 132.022237 
Q 112.890358 133.164251 111.292743 133.164251 
Q 109.229261 133.164251 107.740516 130.553933 
Q 106.117581 127.276205 106.117581 121.561192 
Q 106.117581 115.86101 107.700006 112.494293 
Q 109.203942 109.280834 111.594036 109.280834 
z
M 111.333253 109.246228 
L 111.333253 109.246228 
z
" style="fill:#ffa600;"/>
   </g>
   <g id="patch_9">
    <path clip-path="url(#p265ffefc06)" d="M 116.736283 70.952928 
L 116.736283 75.515427 
L 112.326315 75.515427 
L 112.326315 109.246228 
L 110.527549 109.246228 
L 110.527549 75.515427 
L 106.117581 75.515427 
L 106.117581 70.952928 
L 116.736283 70.952928 
z
" style="fill:#ff0000;"/>
   </g>
   <g id="patch_10">
    <path clip-path="url(#p265ffefc06)" d="M 113.245097 53.682255 
L 111.438595 35.061881 
L 109.518054 53.682255 
L 113.245097 53.682255 
z
M 110.596253 28.8 
L 112.418305 28.8 
L 116.736283 70.952928 
L 114.968659 70.952928 
L 113.763461 58.328167 
L 109.056709 58.328167 
L 107.768573 70.952928 
L 106.117581 70.952928 
L 110.596253 28.8 
z
M 111.43082 28.8 
L 111.43082 28.8 
z
" style="fill:#008000;"/>
   </g>
   <g id="patch_11">
    <path clip-path="url(#p265ffefc06)" d="M 122.878326 130.091227 
Q 125.152272 130.091227 126.406593 131.189973 
Q 127.660914 132.28633 127.799124 133.681259 
L 126.218836 133.681259 
Q 125.950239 132.623119 125.147056 132.004478 
Q 124.343873 131.383447 122.893972 131.383447 
Q 121.125927 131.383447 120.038501 132.522799 
Q 118.951075 133.659762 118.951075 136.010122 
Q 118.951075 137.937705 119.931584 139.136771 
Q 120.9147 140.333448 122.862679 140.333448 
Q 124.654194 140.333448 125.592979 139.072279 
Q 126.088449 138.408254 126.333576 137.32384 
L 127.913864 137.32384 
Q 127.702638 139.055559 126.51351 140.228351 
Q 125.087078 141.64 122.667099 141.64 
Q 120.58091 141.64 119.162301 140.48154 
Q 117.295162 138.95285 117.295162 135.756933 
Q 117.295162 133.332527 118.698124 131.779951 
Q 120.213219 130.091227 122.878326 130.091227 
z
M 122.552359 130.091227 
L 122.552359 130.091227 
z
" style="fill:#0000ff;"/>
   </g>
   <g id="patch_12">
    <path clip-path="url(#p265ffefc06)" d="M 127.913864 98.565918 
L 127.913864 102.322037 
L 123.503896 102.322037 
L 123.503896 130.091227 
L 121.705131 130.091227 
L 121.705131 102.322037 
L 117.295162 102.322037 
L 117.295162 98.565918 
L 127.913864 98.565918 
z
" style="fill:#ff0000;"/>
   </g>
   <g id="patch_13">
    <path clip-path="url(#p265ffefc06)" d="M 122.771617 66.416322 
Q 124.409743 66.416322 125.60479 68.080035 
Q 127.336596 70.469127 127.723973 76.458495 
L 126.166868 76.458495 
Q 125.880765 73.111104 124.987012 71.580488 
Q 124.093258 70.049872 122.731107 70.049872 
Q 121.1183 70.049872 120.014401 73.237546 
Q 118.910501 76.418566 118.910501 82.720712 
Q 118.910501 88.164382 119.819446 91.584977 
Q 120.730923 95.005571 122.786809 95.005571 
Q 124.361638 95.005571 125.394644 92.609824 
Q 126.427651 90.207422 126.450438 84.836956 
L 122.812127 84.836956 
L 122.812127 81.409706 
L 127.913864 81.409706 
L 127.913864 97.754026 
L 126.901113 97.754026 
L 126.521331 93.821008 
Q 125.723789 96.130242 125.10601 97.028647 
Q 124.06794 98.565918 122.470324 98.565918 
Q 120.406842 98.565918 118.918097 95.052155 
Q 117.295162 90.639988 117.295162 82.946977 
Q 117.295162 75.273931 118.877587 70.741976 
Q 120.381523 66.416322 122.771617 66.416322 
z
M 122.510834 66.369738 
L 122.510834 66.369738 
z
" style="fill:#ffa600;"/>
   </g>
   <g id="patch_14">
    <path clip-path="url(#p265ffefc06)" d="M 124.422678 50.976865 
L 122.616176 34.381041 
L 120.695635 50.976865 
L 124.422678 50.976865 
z
M 121.773834 28.8 
L 123.595886 28.8 
L 127.913864 66.369738 
L 126.14624 66.369738 
L 124.941042 55.117638 
L 120.23429 55.117638 
L 118.946154 66.369738 
L 117.295162 66.369738 
L 121.773834 28.8 
z
M 122.608401 28.8 
L 122.608401 28.8 
z
" style="fill:#008000;"/>
   </g>
   <g id="patch_15">
    <path clip-path="url(#p265ffefc06)" d="M 134.055907 137.151842 
Q 136.329853 137.151842 137.584174 137.578844 
Q 138.838495 138.004917 138.976705 138.547023 
L 137.396417 138.547023 
Q 137.12782 138.135802 136.324637 137.895382 
Q 135.521454 137.654033 134.071553 137.654033 
Q 132.303508 137.654033 131.216082 138.096815 
Q 130.128656 138.538669 130.128656 139.452081 
Q 130.128656 140.20119 131.109165 140.667179 
Q 132.092281 141.132239 134.04026 141.132239 
Q 135.831775 141.132239 136.77056 140.642116 
Q 137.26603 140.384058 137.511157 139.962626 
L 139.091445 139.962626 
Q 138.880219 140.635618 137.691091 141.091396 
Q 136.264659 141.64 133.84468 141.64 
Q 131.758491 141.64 130.339883 141.189792 
Q 128.472743 140.595703 128.472743 139.353685 
Q 128.472743 138.411497 129.875705 137.808125 
Q 131.3908 137.151842 134.055907 137.151842 
z
M 133.72994 137.151842 
L 133.72994 137.151842 
z
" style="fill:#0000ff;"/>
   </g>
   <g id="patch_16">
    <path clip-path="url(#p265ffefc06)" d="M 139.091445 128.604583 
L 139.091445 129.622957 
L 134.681477 129.622957 
L 134.681477 137.151842 
L 132.882712 137.151842 
L 132.882712 129.622957 
L 128.472743 129.622957 
L 128.472743 128.604583 
L 139.091445 128.604583 
z
" style="fill:#ff0000;"/>
   </g>
   <g id="patch_17">
    <path clip-path="url(#p265ffefc06)" d="M 133.949198 92.334111 
Q 135.587324 92.334111 136.782371 94.211076 
Q 138.514177 96.906398 138.901554 103.663472 
L 137.344449 103.663472 
Q 137.058346 99.887019 136.164593 98.160211 
Q 135.270839 96.433403 133.908688 96.433403 
Q 132.295881 96.433403 131.191982 100.029668 
Q 130.088082 103.618425 130.088082 110.728369 
Q 130.088082 116.869798 130.997027 120.728838 
Q 131.908504 124.587878 133.96439 124.587878 
Q 135.539219 124.587878 136.572225 121.885049 
Q 137.605232 119.174711 137.628019 113.115868 
L 133.989709 113.115868 
L 133.989709 109.24932 
L 139.091445 109.24932 
L 139.091445 127.688625 
L 138.078694 127.688625 
L 137.698912 123.251479 
Q 136.90137 125.856707 136.283591 126.870268 
Q 135.245521 128.604583 133.647905 128.604583 
Q 131.584423 128.604583 130.095678 124.640433 
Q 128.472743 119.662722 128.472743 110.983636 
Q 128.472743 102.327073 130.055168 97.21422 
Q 131.559104 92.334111 133.949198 92.334111 
z
M 133.688415 92.281556 
L 133.688415 92.281556 
z
" style="fill:#ffa600;"/>
   </g>
   <g id="patch_18">
    <path clip-path="url(#p265ffefc06)" d="M 135.600259 66.272232 
L 133.793758 38.230281 
L 131.873216 66.272232 
L 135.600259 66.272232 
z
M 132.951415 28.8 
L 134.773467 28.8 
L 139.091445 92.281556 
L 137.323822 92.281556 
L 136.118624 73.268892 
L 131.411872 73.268892 
L 130.123735 92.281556 
L 128.472743 92.281556 
L 132.951415 28.8 
z
M 133.785982 28.8 
L 133.785982 28.8 
z
" style="fill:#008000;"/>
   </g>
   <g id="patch_19">
    <path clip-path="url(#p265ffefc06)" d="M 150.269027 137.113265 
L 150.269027 137.652608 
L 145.859058 137.652608 
L 145.859058 141.64 
L 144.060293 141.64 
L 144.060293 137.652608 
L 139.650324 137.652608 
L 139.650324 137.113265 
L 150.269027 137.113265 
z
" style="fill:#ff0000;"/>
   </g>
   <g id="patch_20">
    <path clip-path="url(#p265ffefc06)" d="M 145.233488 131.570343 
Q 147.507434 131.570343 148.761755 132.097694 
Q 150.016076 132.623899 150.154286 133.293406 
L 148.573998 133.293406 
Q 148.305401 132.785544 147.502218 132.488622 
Q 146.699036 132.190554 145.249134 132.190554 
Q 143.481089 132.190554 142.393663 132.737395 
Q 141.306237 133.283089 141.306237 134.411162 
Q 141.306237 135.33632 142.286746 135.911821 
Q 143.269862 136.486175 145.217841 136.486175 
Q 147.009356 136.486175 147.948141 135.880868 
Q 148.443611 135.562164 148.688738 135.041691 
L 150.269027 135.041691 
Q 150.0578 135.872843 148.868672 136.435733 
Q 147.44224 137.113265 145.022261 137.113265 
Q 142.936072 137.113265 141.517464 136.557253 
Q 139.650324 135.823547 139.650324 134.289642 
Q 139.650324 133.12603 141.053287 132.380859 
Q 142.568381 131.570343 145.233488 131.570343 
z
M 144.907521 131.570343 
L 144.907521 131.570343 
z
" style="fill:#0000ff;"/>
   </g>
   <g id="patch_21">
    <path clip-path="url(#p265ffefc06)" d="M 146.77784 128.051444 
L 144.971339 124.257542 
L 143.050797 128.051444 
L 146.77784 128.051444 
z
M 144.128996 122.981684 
L 145.951048 122.981684 
L 150.269027 131.570343 
L 148.501403 131.570343 
L 147.296205 128.998048 
L 142.589453 128.998048 
L 141.301316 131.570343 
L 139.650324 131.570343 
L 144.128996 122.981684 
z
M 144.963563 122.981684 
L 144.963563 122.981684 
z
" style="fill:#008000;"/>
   </g>
   <g id="patch_22">
    <path clip-path="url(#p265ffefc06)" d="M 145.12678 28.936269 
Q 146.764906 28.936269 147.959953 33.803037 
Q 149.691758 40.791715 150.079136 58.312078 
L 148.52203 58.312078 
Q 148.235927 48.520142 147.342174 44.042716 
Q 146.448421 39.56529 145.086269 39.56529 
Q 143.473462 39.56529 142.369563 48.890016 
Q 141.265664 58.195276 141.265664 76.630591 
Q 141.265664 92.554654 142.174608 102.560728 
Q 143.086085 112.566802 145.141971 112.566802 
Q 146.7168 112.566802 147.749807 105.558657 
Q 148.782813 98.531044 148.8056 82.821119 
L 145.16729 82.821119 
L 145.16729 72.795578 
L 150.269027 72.795578 
L 150.269027 120.606702 
L 149.256275 120.606702 
L 148.876493 109.101663 
Q 148.078951 115.856736 147.461172 118.484791 
Q 146.423102 122.981684 144.825486 122.981684 
Q 142.762004 122.981684 141.273259 112.703071 
Q 139.650324 99.796404 139.650324 77.292471 
Q 139.650324 54.846939 141.232749 41.589865 
Q 142.736685 28.936269 145.12678 28.936269 
z
M 144.865996 28.8 
L 144.865996 28.8 
z
" style="fill:#ffa600;"/>
   </g>
   <g id="patch_23">
    <path clip-path="url(#p265ffefc06)" d="M 161.446608 118.789914 
L 161.446608 121.512414 
L 157.036639 121.512414 
L 157.036639 141.64 
L 155.237874 141.64 
L 155.237874 121.512414 
L 150.827906 121.512414 
L 150.827906 118.789914 
L 161.446608 118.789914 
z
" style="fill:#ff0000;"/>
   </g>
   <g id="patch_24">
    <path clip-path="url(#p265ffefc06)" d="M 156.304361 93.651256 
Q 157.942487 93.651256 159.137534 94.95216 
Q 160.869339 96.820257 161.256717 101.503509 
L 159.699611 101.503509 
Q 159.413509 98.886092 158.519755 97.68926 
Q 157.626002 96.492429 156.263851 96.492429 
Q 154.651043 96.492429 153.547144 98.98496 
Q 152.443245 101.472288 152.443245 106.40011 
Q 152.443245 110.656666 153.352189 113.331323 
Q 154.263666 116.005981 156.319552 116.005981 
Q 157.894381 116.005981 158.927388 114.13268 
Q 159.960394 112.254175 159.983181 108.054859 
L 156.344871 108.054859 
L 156.344871 105.374998 
L 161.446608 105.374998 
L 161.446608 118.155073 
L 160.433856 118.155073 
L 160.054074 115.079738 
Q 159.256532 116.885391 158.638753 117.587879 
Q 157.600683 118.789914 156.003067 118.789914 
Q 153.939585 118.789914 152.45084 116.042406 
Q 150.827906 112.59241 150.827906 106.577033 
Q 150.827906 100.577266 152.41033 97.033605 
Q 153.914267 93.651256 156.304361 93.651256 
z
M 156.043577 93.614831 
L 156.043577 93.614831 
z
" style="fill:#ffa600;"/>
   </g>
   <g id="patch_25">
    <path clip-path="url(#p265ffefc06)" d="M 156.411069 64.054149 
Q 158.685015 64.054149 159.939336 66.866541 
Q 161.193657 69.672819 161.331867 73.243333 
L 159.751579 73.243333 
Q 159.482982 70.534878 158.679799 68.951379 
Q 157.876617 67.361766 156.426715 67.361766 
Q 154.65867 67.361766 153.571244 70.278094 
Q 152.483818 73.188308 152.483818 79.204381 
Q 152.483818 84.138294 153.464327 87.207469 
Q 154.447444 90.27053 156.395423 90.27053 
Q 158.186937 90.27053 159.125722 87.042394 
Q 159.621192 85.342731 159.866319 82.567023 
L 161.446608 82.567023 
Q 161.235381 86.999597 160.046253 90.001519 
Q 158.619822 93.614831 156.199842 93.614831 
Q 154.113653 93.614831 152.695045 90.649592 
Q 150.827906 86.736699 150.827906 78.556308 
Q 150.827906 72.350705 152.230868 68.376673 
Q 153.745962 64.054149 156.411069 64.054149 
z
M 156.085102 64.054149 
L 156.085102 64.054149 
z
" style="fill:#0000ff;"/>
   </g>
   <g id="patch_26">
    <path clip-path="url(#p265ffefc06)" d="M 157.955421 49.610008 
L 156.14892 34.037057 
L 154.228378 49.610008 
L 157.955421 49.610008 
z
M 155.306577 28.8 
L 157.128629 28.8 
L 161.446608 64.054149 
L 159.678984 64.054149 
L 158.473786 53.495566 
L 153.767034 53.495566 
L 152.478897 64.054149 
L 150.827906 64.054149 
L 155.306577 28.8 
z
M 156.141144 28.8 
L 156.141144 28.8 
z
" style="fill:#008000;"/>
   </g>
   <g id="patch_27">
    <path clip-path="url(#p265ffefc06)" d="M 167.58865 137.115147 
Q 169.862596 137.115147 171.116917 137.545639 
Q 172.371238 137.975196 172.509448 138.521735 
L 170.92916 138.521735 
Q 170.660563 138.107152 169.857381 137.864766 
Q 169.054198 137.621444 167.604296 137.621444 
Q 165.836251 137.621444 164.748825 138.067846 
Q 163.661399 138.513312 163.661399 139.434192 
Q 163.661399 140.189427 164.641908 140.659225 
Q 165.625025 141.128088 167.573004 141.128088 
Q 169.364518 141.128088 170.303304 140.633957 
Q 170.798773 140.37379 171.043901 139.948912 
L 172.624189 139.948912 
Q 172.412962 140.627406 171.223834 141.08691 
Q 169.797403 141.64 167.377423 141.64 
Q 165.291234 141.64 163.872626 141.186111 
Q 162.005487 140.587164 162.005487 139.334992 
Q 162.005487 138.3851 163.408449 137.776795 
Q 164.923544 137.115147 167.58865 137.115147 
z
M 167.262683 137.115147 
L 167.262683 137.115147 
z
" style="fill:#0000ff;"/>
   </g>
   <g id="patch_28">
    <path clip-path="url(#p265ffefc06)" d="M 172.624189 132.590293 
L 172.624189 133.129412 
L 168.21422 133.129412 
L 168.21422 137.115147 
L 166.415455 137.115147 
L 166.415455 133.129412 
L 162.005487 133.129412 
L 162.005487 132.590293 
L 172.624189 132.590293 
z
" style="fill:#ff0000;"/>
   </g>
   <g id="patch_29">
    <path clip-path="url(#p265ffefc06)" d="M 169.133002 127.823896 
L 167.326501 122.685005 
L 165.40596 127.823896 
L 169.133002 127.823896 
z
M 166.484158 120.956838 
L 168.30621 120.956838 
L 172.624189 132.590293 
L 170.856565 132.590293 
L 169.651367 129.106085 
L 164.944615 129.106085 
L 163.656478 132.590293 
L 162.005487 132.590293 
L 166.484158 120.956838 
z
M 167.318725 120.956838 
L 167.318725 120.956838 
z
" style="fill:#008000;"/>
   </g>
   <g id="patch_30">
    <path clip-path="url(#p265ffefc06)" d="M 167.481942 28.93334 
Q 169.120068 28.93334 170.315115 33.695475 
Q 172.04692 40.533901 172.434298 57.677587 
L 170.877192 57.677587 
Q 170.59109 48.096171 169.697336 43.715007 
Q 168.803583 39.333843 167.441432 39.333843 
Q 165.828625 39.333843 164.724725 48.458094 
Q 163.620826 57.563296 163.620826 75.602264 
Q 163.620826 91.18397 164.52977 100.974919 
Q 165.441247 110.765869 167.497133 110.765869 
Q 169.071962 110.765869 170.104969 103.908394 
Q 171.137976 97.031871 171.160763 81.659699 
L 167.522452 81.659699 
L 167.522452 71.849701 
L 172.624189 71.849701 
L 172.624189 118.632916 
L 171.611437 118.632916 
L 171.231655 107.375229 
Q 170.434113 113.985072 169.816335 116.556625 
Q 168.778264 120.956838 167.180648 120.956838 
Q 165.117166 120.956838 163.628421 110.899209 
Q 162.005487 98.270027 162.005487 76.249914 
Q 162.005487 54.286947 163.587911 41.314891 
Q 165.091848 28.93334 167.481942 28.93334 
z
M 167.221158 28.8 
L 167.221158 28.8 
z
" style="fill:#ffa600;"/>
   </g>
   <g id="patch_31">
    <path clip-path="url(#p265ffefc06)" d="M 178.766231 137.261929 
Q 181.040177 137.261929 182.294498 137.678457 
Q 183.548819 138.09408 183.68703 138.622889 
L 182.106741 138.622889 
Q 181.838145 138.221754 181.034962 137.987231 
Q 180.231779 137.751802 178.781878 137.751802 
Q 177.013832 137.751802 175.926406 138.183724 
Q 174.83898 138.614739 174.83898 139.505747 
Q 174.83898 140.236482 175.819489 140.691041 
Q 176.802606 141.144694 178.750585 141.144694 
Q 180.5421 141.144694 181.480885 140.666592 
Q 181.976355 140.414865 182.221482 140.00377 
L 183.80177 140.00377 
Q 183.590543 140.660254 182.401416 141.104852 
Q 180.974984 141.64 178.555005 141.64 
Q 176.468816 141.64 175.050207 141.200835 
Q 173.183068 140.621318 173.183068 139.409765 
Q 173.183068 138.490687 174.58603 137.902115 
Q 176.101125 137.261929 178.766231 137.261929 
z
M 178.440264 137.261929 
L 178.440264 137.261929 
z
" style="fill:#0000ff;"/>
   </g>
   <g id="patch_32">
    <path clip-path="url(#p265ffefc06)" d="M 183.80177 115.929537 
L 183.80177 118.471209 
L 179.391802 118.471209 
L 179.391802 137.261929 
L 177.593036 137.261929 
L 177.593036 118.471209 
L 173.183068 118.471209 
L 173.183068 115.929537 
L 183.80177 115.929537 
z
" style="fill:#ff0000;"/>
   </g>
   <g id="patch_33">
    <path clip-path="url(#p265ffefc06)" d="M 180.310583 100.648461 
L 178.504082 84.173171 
L 176.583541 100.648461 
L 180.310583 100.648461 
z
M 177.661739 78.632664 
L 179.483791 78.632664 
L 183.80177 115.929537 
L 182.034146 115.929537 
L 180.828948 104.75916 
L 176.122196 104.75916 
L 174.83406 115.929537 
L 173.183068 115.929537 
L 177.661739 78.632664 
z
M 178.496307 78.632664 
L 178.496307 78.632664 
z
" style="fill:#008000;"/>
   </g>
   <g id="patch_34">
    <path clip-path="url(#p265ffefc06)" d="M 178.659523 28.872102 
Q 180.297649 28.872102 181.492696 31.447167 
Q 183.224501 35.144961 183.611879 44.415196 
L 182.054773 44.415196 
Q 181.768671 39.234165 180.874917 36.865105 
Q 179.981164 34.496044 178.619013 34.496044 
Q 177.006206 34.496044 175.902306 39.42987 
Q 174.798407 44.353395 174.798407 54.107742 
Q 174.798407 62.533356 175.707352 67.82769 
Q 176.618828 73.122024 178.674714 73.122024 
Q 180.249543 73.122024 181.28255 69.41393 
Q 182.315557 65.695536 182.338344 57.383225 
L 178.700033 57.383225 
L 178.700033 52.078591 
L 183.80177 52.078591 
L 183.80177 77.376032 
L 182.789018 77.376032 
L 182.409236 71.288578 
Q 181.611694 74.862769 180.993916 76.253304 
Q 179.955845 78.632664 178.358229 78.632664 
Q 176.294748 78.632664 174.806003 73.194126 
Q 173.183068 66.365053 173.183068 54.457951 
Q 173.183068 42.58175 174.765492 35.567272 
Q 176.269429 28.872102 178.659523 28.872102 
z
M 178.398739 28.8 
L 178.398739 28.8 
z
" style="fill:#ffa600;"/>
   </g>
   <g id="patch_35">
    <path clip-path="url(#p265ffefc06)" d="M 189.943812 137.113265 
Q 192.217758 137.113265 193.472079 137.543937 
Q 194.726401 137.973672 194.864611 138.520438 
L 193.284322 138.520438 
Q 193.015726 138.105682 192.212543 137.863196 
Q 191.40936 137.619772 189.959459 137.619772 
Q 188.191414 137.619772 187.103988 138.06636 
Q 186.016561 138.512012 186.016561 139.433275 
Q 186.016561 140.188823 186.99707 140.658817 
Q 187.980187 141.127875 189.928166 141.127875 
Q 191.719681 141.127875 192.658466 140.633539 
Q 193.153936 140.373263 193.399063 139.948209 
L 194.979351 139.948209 
Q 194.768124 140.626985 193.578997 141.08668 
Q 192.152565 141.64 189.732586 141.64 
Q 187.646397 141.64 186.227788 141.185922 
Q 184.360649 140.586727 184.360649 139.334033 
Q 184.360649 138.383747 185.763611 137.775189 
Q 187.278706 137.113265 189.943812 137.113265 
z
M 189.617845 137.113265 
L 189.617845 137.113265 
z
" style="fill:#0000ff;"/>
   </g>
   <g id="patch_36">
    <path clip-path="url(#p265ffefc06)" d="M 194.979351 132.58653 
L 194.979351 133.125873 
L 190.569383 133.125873 
L 190.569383 137.113265 
L 188.770617 137.113265 
L 188.770617 133.125873 
L 184.360649 133.125873 
L 184.360649 132.58653 
L 194.979351 132.58653 
z
" style="fill:#ff0000;"/>
   </g>
   <g id="patch_37">
    <path clip-path="url(#p265ffefc06)" d="M 191.488164 125.326294 
L 189.681663 117.498671 
L 187.761122 125.326294 
L 191.488164 125.326294 
z
M 188.83932 114.866305 
L 190.661373 114.866305 
L 194.979351 132.58653 
L 193.211727 132.58653 
L 192.006529 127.27934 
L 187.299777 127.27934 
L 186.011641 132.58653 
L 184.360649 132.58653 
L 188.83932 114.866305 
z
M 189.673888 114.866305 
L 189.673888 114.866305 
z
" style="fill:#008000;"/>
   </g>
   <g id="patch_38">
    <path clip-path="url(#p265ffefc06)" d="M 189.837104 28.924528 
Q 191.47523 28.924528 192.670277 33.371939 
Q 194.402083 39.758422 194.78946 55.769102 
L 193.232354 55.769102 
Q 192.946252 46.820911 192.052498 42.729292 
Q 191.158745 38.637674 189.796594 38.637674 
Q 188.183787 38.637674 187.079887 47.158914 
Q 185.975988 55.662365 185.975988 72.509159 
Q 185.975988 87.061089 186.884933 96.204967 
Q 187.796409 105.348844 189.852295 105.348844 
Q 191.427124 105.348844 192.460131 98.944572 
Q 193.493138 92.52251 193.515925 78.166266 
L 189.877614 78.166266 
L 189.877614 69.004599 
L 194.979351 69.004599 
L 194.979351 112.695968 
L 193.966599 112.695968 
L 193.586817 102.182287 
Q 192.789275 108.355294 192.171497 110.756896 
Q 191.133426 114.866305 189.53581 114.866305 
Q 187.472329 114.866305 185.983584 105.473372 
Q 184.360649 93.678837 184.360649 73.114007 
Q 184.360649 52.602546 185.943074 40.487797 
Q 187.44701 28.924528 189.837104 28.924528 
z
M 189.57632 28.8 
L 189.57632 28.8 
z
" style="fill:#ffa600;"/>
   </g>
   <g id="patch_39">
    <path clip-path="url(#p265ffefc06)" d="M 206.156932 135.080892 
L 206.156932 135.862384 
L 201.746964 135.862384 
L 201.746964 141.64 
L 199.948198 141.64 
L 199.948198 135.862384 
L 195.53823 135.862384 
L 195.53823 135.080892 
L 206.156932 135.080892 
z
" style="fill:#ff0000;"/>
   </g>
   <g id="patch_40">
    <path clip-path="url(#p265ffefc06)" d="M 201.121393 124.457037 
Q 203.395339 124.457037 204.649661 125.467786 
Q 205.903982 126.476338 206.042192 127.75955 
L 204.461904 127.75955 
Q 204.193307 126.786155 203.390124 126.217059 
Q 202.586941 125.645766 201.13704 125.645766 
Q 199.368995 125.645766 198.281569 126.693869 
Q 197.194143 127.739775 197.194143 129.9019 
Q 197.194143 131.675106 198.174651 132.778141 
Q 199.157768 133.878979 201.105747 133.878979 
Q 202.897262 133.878979 203.836047 132.718814 
Q 204.331517 132.10797 204.576644 131.110404 
L 206.156932 131.110404 
Q 205.945706 132.703433 204.756578 133.782298 
Q 203.330146 135.080892 200.910167 135.080892 
Q 198.823978 135.080892 197.405369 134.01521 
Q 195.53823 132.60895 195.53823 129.668988 
Q 195.53823 127.438747 196.941192 126.010514 
Q 198.456287 124.457037 201.121393 124.457037 
z
M 200.795426 124.457037 
L 200.795426 124.457037 
z
" style="fill:#0000ff;"/>
   </g>
   <g id="patch_41">
    <path clip-path="url(#p265ffefc06)" d="M 202.665746 118.857561 
L 200.859244 112.820486 
L 198.938703 118.857561 
L 202.665746 118.857561 
z
M 200.016902 110.790267 
L 201.838954 110.790267 
L 206.156932 124.457037 
L 204.389308 124.457037 
L 203.18411 120.363852 
L 198.477358 120.363852 
L 197.189222 124.457037 
L 195.53823 124.457037 
L 200.016902 110.790267 
z
M 200.851469 110.790267 
L 200.851469 110.790267 
z
" style="fill:#008000;"/>
   </g>
   <g id="patch_42">
    <path clip-path="url(#p265ffefc06)" d="M 201.014685 28.91863 
Q 202.652811 28.91863 203.847858 33.155415 
Q 205.579664 39.239439 205.967041 54.491865 
L 204.409935 54.491865 
Q 204.123833 45.967454 203.23008 42.069611 
Q 202.336326 38.171769 200.974175 38.171769 
Q 199.361368 38.171769 198.257469 46.289449 
Q 197.153569 54.390183 197.153569 70.439125 
Q 197.153569 84.301886 198.062514 93.012716 
Q 198.97399 101.723547 201.029876 101.723547 
Q 202.604705 101.723547 203.637712 95.622576 
Q 204.670719 89.504658 204.693506 75.828316 
L 201.055195 75.828316 
L 201.055195 67.100538 
L 206.156932 67.100538 
L 206.156932 108.722716 
L 205.14418 108.722716 
L 204.764399 98.706956 
Q 203.966857 104.587613 203.349078 106.875477 
Q 202.311007 110.790267 200.713392 110.790267 
Q 198.64991 110.790267 197.161165 101.842177 
Q 195.53823 90.606222 195.53823 71.015328 
Q 195.53823 51.475274 197.120655 39.934271 
Q 198.624591 28.91863 201.014685 28.91863 
z
M 200.753902 28.8 
L 200.753902 28.8 
z
" style="fill:#ffa600;"/>
   </g>
   <g id="patch_43">
    <path clip-path="url(#p265ffefc06)" d="M 217.334513 137.151842 
L 217.334513 137.686589 
L 212.924545 137.686589 
L 212.924545 141.64 
L 211.12578 141.64 
L 211.12578 137.686589 
L 206.715811 137.686589 
L 206.715811 137.151842 
L 217.334513 137.151842 
z
" style="fill:#ff0000;"/>
   </g>
   <g id="patch_44">
    <path clip-path="url(#p265ffefc06)" d="M 212.298975 123.534941 
Q 214.572921 123.534941 215.827242 124.830448 
Q 217.081563 126.123138 217.219773 127.767868 
L 215.639485 127.767868 
Q 215.370888 126.520239 214.567705 125.790813 
Q 213.764522 125.05857 212.314621 125.05857 
Q 210.546576 125.05857 209.45915 126.401954 
Q 208.371724 127.742521 208.371724 130.513779 
Q 208.371724 132.786548 209.352233 134.20034 
Q 210.335349 135.611316 212.283328 135.611316 
Q 214.074843 135.611316 215.013628 134.1243 
Q 215.509098 133.341363 215.754225 132.062754 
L 217.334513 132.062754 
Q 217.123287 134.104585 215.934159 135.487398 
Q 214.507727 137.151842 212.087748 137.151842 
Q 210.001559 137.151842 208.58295 135.785928 
Q 206.715811 133.983484 206.715811 130.215249 
Q 206.715811 127.356686 208.118773 125.526079 
Q 209.633868 123.534941 212.298975 123.534941 
z
M 211.973008 123.534941 
L 211.973008 123.534941 
z
" style="fill:#0000ff;"/>
   </g>
   <g id="patch_45">
    <path clip-path="url(#p265ffefc06)" d="M 212.192266 88.410723 
Q 213.830392 88.410723 215.025439 90.22837 
Q 216.757245 92.838512 217.144622 99.382042 
L 215.587517 99.382042 
Q 215.301414 95.724936 214.407661 94.0527 
Q 213.513907 92.380465 212.151756 92.380465 
Q 210.538949 92.380465 209.43505 95.863077 
Q 208.33115 99.338419 208.33115 106.223667 
Q 208.33115 112.17101 209.240095 115.908093 
Q 210.151572 119.645176 212.207458 119.645176 
Q 213.782287 119.645176 214.815293 117.027763 
Q 215.8483 114.403081 215.871087 108.535715 
L 212.232776 108.535715 
L 212.232776 104.791361 
L 217.334513 104.791361 
L 217.334513 122.647929 
L 216.321762 122.647929 
L 215.94198 118.351011 
Q 215.144438 120.873905 214.526659 121.855435 
Q 213.488589 123.534941 211.890973 123.534941 
Q 209.827491 123.534941 208.338746 119.69607 
Q 206.715811 114.875669 206.715811 106.470867 
Q 206.715811 98.087877 208.298236 93.136606 
Q 209.802172 88.410723 212.192266 88.410723 
z
M 211.931483 88.359829 
L 211.931483 88.359829 
z
" style="fill:#ffa600;"/>
   </g>
   <g id="patch_46">
    <path clip-path="url(#p265ffefc06)" d="M 213.843327 63.957294 
L 212.036825 37.647703 
L 210.116284 63.957294 
L 213.843327 63.957294 
z
M 211.194483 28.8 
L 213.016535 28.8 
L 217.334513 88.359829 
L 215.566889 88.359829 
L 214.361691 70.521718 
L 209.654939 70.521718 
L 208.366803 88.359829 
L 206.715811 88.359829 
L 211.194483 28.8 
z
M 212.02905 28.8 
L 212.02905 28.8 
z
" style="fill:#008000;"/>
   </g>
   <g id="patch_47">
    <path clip-path="url(#p265ffefc06)" d="M 228.512094 137.113265 
L 228.512094 137.652608 
L 224.102126 137.652608 
L 224.102126 141.64 
L 222.303361 141.64 
L 222.303361 137.652608 
L 217.893392 137.652608 
L 217.893392 137.113265 
L 228.512094 137.113265 
z
" style="fill:#ff0000;"/>
   </g>
   <g id="patch_48">
    <path clip-path="url(#p265ffefc06)" d="M 223.476556 127.508419 
Q 225.750502 127.508419 227.004823 128.42222 
Q 228.259144 129.334035 228.397354 130.494165 
L 226.817066 130.494165 
Q 226.548469 129.614135 225.745286 129.099625 
Q 224.942103 128.583129 223.492202 128.583129 
Q 221.724157 128.583129 220.636731 129.530701 
Q 219.549305 130.476287 219.549305 132.431027 
Q 219.549305 134.034152 220.529814 135.031387 
Q 221.51293 136.026636 223.460909 136.026636 
Q 225.252424 136.026636 226.191209 134.977751 
Q 226.686679 134.425497 226.931806 133.523615 
L 228.512094 133.523615 
Q 228.300868 134.963845 227.11174 135.939229 
Q 225.685308 137.113265 223.265329 137.113265 
Q 221.17914 137.113265 219.760531 136.1498 
Q 217.893392 134.878425 217.893392 132.220455 
Q 217.893392 130.204133 219.296354 128.912892 
Q 220.811449 127.508419 223.476556 127.508419 
z
M 223.150589 127.508419 
L 223.150589 127.508419 
z
" style="fill:#0000ff;"/>
   </g>
   <g id="patch_49">
    <path clip-path="url(#p265ffefc06)" d="M 225.020908 118.583953 
L 223.214407 108.962041 
L 221.293865 118.583953 
L 225.020908 118.583953 
z
M 222.372064 105.72627 
L 224.194116 105.72627 
L 228.512094 127.508419 
L 226.744471 127.508419 
L 225.539273 120.984687 
L 220.832521 120.984687 
L 219.544384 127.508419 
L 217.893392 127.508419 
L 222.372064 105.72627 
z
M 223.206631 105.72627 
L 223.206631 105.72627 
z
" style="fill:#008000;"/>
   </g>
   <g id="patch_50">
    <path clip-path="url(#p265ffefc06)" d="M 223.369847 28.911303 
Q 225.007973 28.911303 226.20302 32.88641 
Q 227.934826 38.594664 228.322203 52.905049 
L 226.765098 52.905049 
Q 226.478995 44.907133 225.585242 41.250035 
Q 224.691488 37.592937 223.329337 37.592937 
Q 221.71653 37.592937 220.612631 45.209242 
Q 219.508731 52.809646 219.508731 67.867351 
Q 219.508731 80.873901 220.417676 89.046721 
Q 221.329153 97.219541 223.385039 97.219541 
Q 224.959868 97.219541 225.992874 91.495387 
Q 227.025881 85.755333 227.048668 72.923687 
L 223.410357 72.923687 
L 223.410357 64.734967 
L 228.512094 64.734967 
L 228.512094 103.786418 
L 227.499343 103.786418 
L 227.119561 94.389265 
Q 226.322019 99.906714 225.70424 102.053271 
Q 224.66617 105.72627 223.068554 105.72627 
Q 221.005072 105.72627 219.516327 97.330844 
Q 217.893392 86.788861 217.893392 68.407966 
Q 217.893392 50.074773 219.475817 39.246581 
Q 220.979753 28.911303 223.369847 28.911303 
z
M 223.109064 28.8 
L 223.109064 28.8 
z
" style="fill:#ffa600;"/>
   </g>
   <g id="patch_51">
    <path clip-path="url(#p265ffefc06)" d="M 234.654137 137.249697 
Q 236.928083 137.249697 238.182404 137.667389 
Q 239.436725 138.084173 239.574935 138.614459 
L 237.994647 138.614459 
Q 237.72605 138.212204 236.922867 137.977026 
Q 236.119685 137.740939 234.669783 137.740939 
Q 232.901738 137.740939 231.814312 138.174067 
Q 230.726886 138.606287 230.726886 139.499784 
Q 230.726886 140.232561 231.707395 140.688389 
Q 232.690511 141.14331 234.63849 141.14331 
Q 236.430005 141.14331 237.36879 140.663873 
Q 237.86426 140.411442 238.109387 139.999198 
L 239.689676 139.999198 
Q 239.478449 140.657517 238.289321 141.103357 
Q 236.862889 141.64 234.44291 141.64 
Q 232.356721 141.64 230.938113 141.199608 
Q 229.070973 140.618471 229.070973 139.403534 
Q 229.070973 138.481888 230.473936 137.891671 
Q 231.98903 137.249697 234.654137 137.249697 
z
M 234.32817 137.249697 
L 234.32817 137.249697 
z
" style="fill:#0000ff;"/>
   </g>
   <g id="patch_52">
    <path clip-path="url(#p265ffefc06)" d="M 234.547429 110.449911 
Q 236.185554 110.449911 237.380602 111.836776 
Q 239.112407 113.828315 239.499785 118.82103 
L 237.942679 118.82103 
Q 237.656576 116.030657 236.762823 114.754741 
Q 235.86907 113.478825 234.506918 113.478825 
Q 232.894111 113.478825 231.790212 116.136059 
Q 230.686312 118.787746 230.686312 124.041192 
Q 230.686312 128.579015 231.595257 131.43041 
Q 232.506734 134.281805 234.56262 134.281805 
Q 236.137449 134.281805 237.170456 132.284719 
Q 238.203462 130.282086 238.226249 125.805284 
L 234.587939 125.805284 
L 234.587939 122.948342 
L 239.689676 122.948342 
L 239.689676 136.572907 
L 238.676924 136.572907 
L 238.297142 133.294357 
Q 237.4996 135.219326 236.881821 135.968234 
Q 235.843751 137.249697 234.246135 137.249697 
Q 232.182653 137.249697 230.693908 134.320638 
Q 229.070973 130.642671 229.070973 124.229805 
Q 229.070973 117.833582 230.653398 114.055761 
Q 232.157334 110.449911 234.547429 110.449911 
z
M 234.286645 110.411079 
L 234.286645 110.411079 
z
" style="fill:#ffa600;"/>
   </g>
   <g id="patch_53">
    <path clip-path="url(#p265ffefc06)" d="M 239.689676 80.89462 
L 239.689676 84.411393 
L 235.279707 84.411393 
L 235.279707 110.411079 
L 233.480942 110.411079 
L 233.480942 84.411393 
L 229.070973 84.411393 
L 229.070973 80.89462 
L 239.689676 80.89462 
z
" style="fill:#ff0000;"/>
   </g>
   <g id="patch_54">
    <path clip-path="url(#p265ffefc06)" d="M 236.198489 59.550691 
L 234.391988 36.538735 
L 232.471446 59.550691 
L 236.198489 59.550691 
z
M 233.549645 28.8 
L 235.371697 28.8 
L 239.689676 80.89462 
L 237.922052 80.89462 
L 236.716854 65.292333 
L 232.010102 65.292333 
L 230.721965 80.89462 
L 229.070973 80.89462 
L 233.549645 28.8 
z
M 234.384212 28.8 
L 234.384212 28.8 
z
" style="fill:#008000;"/>
   </g>
   <g id="patch_55">
    <path clip-path="url(#p265ffefc06)" d="M 245.831718 135.080892 
Q 248.105664 135.080892 249.359985 135.704923 
Q 250.614306 136.327597 250.752516 137.119845 
L 249.172228 137.119845 
Q 248.903631 136.518876 248.100448 136.167519 
Q 247.297266 135.814806 245.847364 135.814806 
Q 244.079319 135.814806 242.991893 136.461899 
Q 241.904467 137.107636 241.904467 138.442519 
Q 241.904467 139.537287 242.884976 140.218295 
Q 243.868093 140.897946 245.816071 140.897946 
Q 247.607586 140.897946 248.546371 140.181667 
Q 249.041841 139.804535 249.286968 139.188643 
L 250.867257 139.188643 
Q 250.65603 140.172171 249.466902 140.838256 
Q 248.040471 141.64 245.620491 141.64 
Q 243.534302 141.64 242.115694 140.982054 
Q 240.248555 140.113837 240.248555 138.298721 
Q 240.248555 136.921783 241.651517 136.04 
Q 243.166611 135.080892 245.831718 135.080892 
z
M 245.505751 135.080892 
L 245.505751 135.080892 
z
" style="fill:#0000ff;"/>
   </g>
   <g id="patch_56">
    <path clip-path="url(#p265ffefc06)" d="M 245.72501 126.501841 
Q 247.363136 126.501841 248.558183 126.945799 
Q 250.289988 127.583323 250.677366 129.181573 
L 249.12026 129.181573 
Q 248.834158 128.288329 247.940404 127.879887 
Q 247.046651 127.471446 245.6845 127.471446 
Q 244.071692 127.471446 242.967793 128.32207 
Q 241.863894 129.170918 241.863894 130.852632 
Q 241.863894 132.305264 242.772838 133.218042 
Q 243.684315 134.130821 245.740201 134.130821 
Q 247.31503 134.130821 248.348037 133.491521 
Q 249.381043 132.850445 249.40383 131.417347 
L 245.76552 131.417347 
L 245.76552 130.502793 
L 250.867257 130.502793 
L 250.867257 134.86424 
L 249.854505 134.86424 
L 249.474723 133.814722 
Q 248.677181 134.430937 248.059402 134.670674 
Q 247.021332 135.080892 245.423716 135.080892 
Q 243.360234 135.080892 241.871489 134.143252 
Q 240.248555 132.965874 240.248555 130.913011 
Q 240.248555 128.865475 241.830979 127.656132 
Q 243.334916 126.501841 245.72501 126.501841 
z
M 245.464226 126.48941 
L 245.464226 126.48941 
z
" style="fill:#ffa600;"/>
   </g>
   <g id="patch_57">
    <path clip-path="url(#p265ffefc06)" d="M 247.37607 118.391855 
L 245.569569 109.661476 
L 243.649027 118.391855 
L 247.37607 118.391855 
z
M 244.727226 106.72552 
L 246.549278 106.72552 
L 250.867257 126.48941 
L 249.099633 126.48941 
L 247.894435 120.570144 
L 243.187683 120.570144 
L 241.899546 126.48941 
L 240.248555 126.48941 
L 244.727226 106.72552 
z
M 245.561793 106.72552 
L 245.561793 106.72552 
z
" style="fill:#008000;"/>
   </g>
   <g id="patch_58">
    <path clip-path="url(#p265ffefc06)" d="M 250.867257 28.8 
L 250.867257 38.084526 
L 246.457288 38.084526 
L 246.457288 106.72552 
L 244.658523 106.72552 
L 244.658523 38.084526 
L 240.248555 38.084526 
L 240.248555 28.8 
L 250.867257 28.8 
z
" style="fill:#ff0000;"/>
   </g>
   <g id="patch_59">
    <path clip-path="url(#p265ffefc06)" d="M 256.902591 133.097592 
Q 258.540717 133.097592 259.735764 133.539654 
Q 261.467569 134.174455 261.854947 135.765879 
L 260.297841 135.765879 
Q 260.011739 134.87645 259.117985 134.469752 
Q 258.224232 134.063055 256.862081 134.063055 
Q 255.249274 134.063055 254.145374 134.910046 
Q 253.041475 135.755269 253.041475 137.4298 
Q 253.041475 138.876228 253.950419 139.785107 
Q 254.861896 140.693987 256.917782 140.693987 
Q 258.492611 140.693987 259.525618 140.057418 
Q 260.558625 139.41908 260.581411 137.992103 
L 256.943101 137.992103 
L 256.943101 137.081455 
L 262.044838 137.081455 
L 262.044838 141.424274 
L 261.032086 141.424274 
L 260.652304 140.379239 
Q 259.854762 140.992821 259.236984 141.231535 
Q 258.198913 141.64 256.601297 141.64 
Q 254.537815 141.64 253.04907 140.706365 
Q 251.426136 139.534016 251.426136 137.489921 
Q 251.426136 135.45113 253.00856 134.246953 
Q 254.512497 133.097592 256.902591 133.097592 
z
M 256.641807 133.085214 
L 256.641807 133.085214 
z
" style="fill:#ffa600;"/>
   </g>
   <g id="patch_60">
    <path clip-path="url(#p265ffefc06)" d="M 257.009299 117.439703 
Q 259.283245 117.439703 260.537566 118.928211 
Q 261.791887 120.413483 261.930097 122.30324 
L 260.349809 122.30324 
Q 260.081212 120.869743 259.27803 120.031648 
Q 258.474847 119.190318 257.024945 119.190318 
Q 255.2569 119.190318 254.169474 120.733836 
Q 253.082048 122.274117 253.082048 125.45823 
Q 253.082048 128.06959 254.062557 129.694005 
Q 255.045674 131.315184 256.993653 131.315184 
Q 258.785167 131.315184 259.723952 129.606636 
Q 260.219422 128.70706 260.46455 127.237967 
L 262.044838 127.237967 
Q 261.833611 129.583985 260.644483 131.172805 
Q 259.218052 133.085214 256.798072 133.085214 
Q 254.711883 133.085214 253.293275 131.515809 
Q 251.426136 129.444842 251.426136 125.115226 
Q 251.426136 121.830801 252.829098 119.727475 
Q 254.344193 117.439703 257.009299 117.439703 
z
M 256.683332 117.439703 
L 256.683332 117.439703 
z
" style="fill:#0000ff;"/>
   </g>
   <g id="patch_61">
    <path clip-path="url(#p265ffefc06)" d="M 262.044838 86.413078 
L 262.044838 90.109781 
L 257.634869 90.109781 
L 257.634869 117.439703 
L 255.836104 117.439703 
L 255.836104 90.109781 
L 251.426136 90.109781 
L 251.426136 86.413078 
L 262.044838 86.413078 
z
" style="fill:#ff0000;"/>
   </g>
   <g id="patch_62">
    <path clip-path="url(#p265ffefc06)" d="M 258.553651 62.808156 
L 256.74715 37.35851 
L 254.826609 62.808156 
L 258.553651 62.808156 
z
M 255.904807 28.8 
L 257.726859 28.8 
L 262.044838 86.413078 
L 260.277214 86.413078 
L 259.072016 69.158018 
L 254.365264 69.158018 
L 253.077127 86.413078 
L 251.426136 86.413078 
L 255.904807 28.8 
z
M 256.739374 28.8 
L 256.739374 28.8 
z
" style="fill:#008000;"/>
   </g>
   <g id="patch_63">
    <path clip-path="url(#p265ffefc06)" d="M 268.080172 137.172429 
Q 269.718298 137.172429 270.913345 137.403622 
Q 272.64515 137.735615 273.032528 138.567909 
L 271.475422 138.567909 
Q 271.18932 138.102749 270.295566 137.890052 
Q 269.401813 137.677355 268.039662 137.677355 
Q 266.426855 137.677355 265.322955 138.12032 
Q 264.219056 138.562361 264.219056 139.438119 
Q 264.219056 140.194582 265.128001 140.669915 
Q 266.039477 141.145247 268.095363 141.145247 
Q 269.670192 141.145247 270.703199 140.81233 
Q 271.736206 140.478487 271.758993 139.732197 
L 268.120682 139.732197 
L 268.120682 139.255939 
L 273.222419 139.255939 
L 273.222419 141.527178 
L 272.209667 141.527178 
L 271.829885 140.980638 
Q 271.032343 141.301534 270.414565 141.426378 
Q 269.376494 141.64 267.778878 141.64 
Q 265.715397 141.64 264.226651 141.151721 
Q 262.603717 140.538597 262.603717 139.469562 
Q 262.603717 138.4033 264.186141 137.773531 
Q 265.690078 137.172429 268.080172 137.172429 
z
M 267.819388 137.165956 
L 267.819388 137.165956 
z
" style="fill:#ffa600;"/>
   </g>
   <g id="patch_64">
    <path clip-path="url(#p265ffefc06)" d="M 269.731232 133.669801 
L 267.924731 129.900423 
L 266.00419 133.669801 
L 269.731232 133.669801 
z
M 267.082388 128.632811 
L 268.90444 128.632811 
L 273.222419 137.165956 
L 271.454795 137.165956 
L 270.249597 134.610287 
L 265.542845 134.610287 
L 264.254709 137.165956 
L 262.603717 137.165956 
L 267.082388 128.632811 
z
M 267.916956 128.632811 
L 267.916956 128.632811 
z
" style="fill:#008000;"/>
   </g>
   <g id="patch_65">
    <path clip-path="url(#p265ffefc06)" d="M 273.222419 86.595616 
L 273.222419 91.604186 
L 268.812451 91.604186 
L 268.812451 128.632811 
L 267.013685 128.632811 
L 267.013685 91.604186 
L 262.603717 91.604186 
L 262.603717 86.595616 
L 273.222419 86.595616 
z
" style="fill:#ff0000;"/>
   </g>
   <g id="patch_66">
    <path clip-path="url(#p265ffefc06)" d="M 268.18688 28.8 
Q 270.460826 28.8 271.715147 34.298652 
Q 272.969468 39.785351 273.107678 46.766248 
L 271.52739 46.766248 
Q 271.258793 41.470807 270.455611 38.374827 
Q 269.652428 35.266893 268.202527 35.266893 
Q 266.434481 35.266893 265.347055 40.968756 
Q 264.259629 46.658666 264.259629 58.421 
Q 264.259629 68.067549 265.240138 74.068252 
Q 266.223255 80.057001 268.171234 80.057001 
Q 269.962749 80.057001 270.901534 73.745505 
Q 271.397003 70.422406 271.642131 64.995476 
L 273.222419 64.995476 
Q 273.011192 73.661829 271.822065 79.531043 
Q 270.395633 86.595616 267.975654 86.595616 
Q 265.889465 86.595616 264.470856 80.798124 
Q 262.603717 73.147825 262.603717 57.153919 
Q 262.603717 45.021024 264.006679 37.251189 
Q 265.521774 28.8 268.18688 28.8 
z
M 267.860913 28.8 
L 267.860913 28.8 
z
" style="fill:#0000ff;"/>
   </g>
   <g id="patch_67">
    <path clip-path="url(#p265ffefc06)" d="M 280.908813 139.78533 
L 279.102312 137.785718 
L 277.181771 139.78533 
L 280.908813 139.78533 
z
M 278.259969 137.113265 
L 280.082022 137.113265 
L 284.4 141.64 
L 282.632376 141.64 
L 281.427178 140.284247 
L 276.720426 140.284247 
L 275.43229 141.64 
L 273.781298 141.64 
L 278.259969 137.113265 
z
M 279.094537 137.113265 
L 279.094537 137.113265 
z
" style="fill:#008000;"/>
   </g>
   <g id="patch_68">
    <path clip-path="url(#p265ffefc06)" d="M 279.257753 132.593079 
Q 280.895879 132.593079 282.090926 132.826995 
Q 283.822732 133.162898 284.210109 134.004994 
L 282.653003 134.004994 
Q 282.366901 133.534356 281.473147 133.319153 
Q 280.579394 133.103951 279.217243 133.103951 
Q 277.604436 133.103951 276.500536 133.552133 
Q 275.396637 133.99938 275.396637 134.885452 
Q 275.396637 135.650824 276.305582 136.131755 
Q 277.217058 136.612685 279.272944 136.612685 
Q 280.847773 136.612685 281.88078 136.275847 
Q 282.913787 135.938073 282.936574 135.182993 
L 279.298263 135.182993 
L 279.298263 134.701127 
L 284.4 134.701127 
L 284.4 136.999114 
L 283.387248 136.999114 
L 283.007466 136.446137 
Q 282.209924 136.770812 281.592146 136.897127 
Q 280.554075 137.113265 278.956459 137.113265 
Q 276.892978 137.113265 275.404233 136.619235 
Q 273.781298 135.998891 273.781298 134.917265 
Q 273.781298 133.838446 275.363723 133.20126 
Q 276.867659 132.593079 279.257753 132.593079 
z
M 278.996969 132.58653 
L 278.996969 132.58653 
z
" style="fill:#ffa600;"/>
   </g>
   <g id="patch_69">
    <path clip-path="url(#p265ffefc06)" d="M 279.364461 110.807203 
Q 281.638407 110.807203 282.892728 112.87928 
Q 284.14705 114.946852 284.28526 117.577488 
L 282.704971 117.577488 
Q 282.436375 115.581989 281.633192 114.415319 
Q 280.830009 113.244146 279.380108 113.244146 
Q 277.612063 113.244146 276.524636 115.392799 
Q 275.43721 117.536948 275.43721 121.96939 
Q 275.43721 125.604533 276.417719 127.865799 
Q 277.400836 130.12256 279.348815 130.12256 
Q 281.14033 130.12256 282.079115 127.744177 
Q 282.574585 126.491922 282.819712 124.446872 
L 284.4 124.446872 
Q 284.188773 127.712645 282.999646 129.924362 
Q 281.573214 132.58653 279.153235 132.58653 
Q 277.067046 132.58653 275.648437 130.40184 
Q 273.781298 127.518951 273.781298 121.491911 
Q 273.781298 116.919829 275.18426 113.991895 
Q 276.699355 110.807203 279.364461 110.807203 
z
M 279.038494 110.807203 
L 279.038494 110.807203 
z
" style="fill:#0000ff;"/>
   </g>
   <g id="patch_70">
    <path clip-path="url(#p265ffefc06)" d="M 284.4 28.8 
L 284.4 38.570843 
L 279.990032 38.570843 
L 279.990032 110.807203 
L 278.191266 110.807203 
L 278.191266 38.570843 
L 273.781298 38.570843 
L 273.781298 28.8 
L 284.4 28.8 
z
" style="fill:#ff0000;"/>
   </g>
   <g id="matplotlib.axis_1">
    <g id="xtick_1">
     <g id="line2d_2">
      <path clip-path="url(#p265ffefc06)" d="M 100.249351 141.64 
L 100.249351 28.8 
" style="fill:none;stroke:#cccccc;stroke-linecap:round;stroke-width:0.8;"/>
     </g>
     <g id="text_1">
      <!-- 0 -->
      <g style="fill:#262626;" transform="translate(94.688414 162.986875)scale(0.2 -0.2)">
       <defs>
        <path d="M 1731 4475 
Q 2600 4475 2988 3759 
Q 3288 3206 3288 2244 
Q 3288 1331 3016 734 
Q 2622 -122 1728 -122 
Q 922 -122 528 578 
Q 200 1163 200 2147 
Q 200 2909 397 3456 
Q 766 4475 1731 4475 
z
M 1725 391 
Q 2163 391 2422 778 
Q 2681 1166 2681 2222 
Q 2681 2984 2493 3476 
Q 2306 3969 1766 3969 
Q 1269 3969 1039 3501 
Q 809 3034 809 2125 
Q 809 1441 956 1025 
Q 1181 391 1725 391 
z
" id="Helvetica-30" transform="scale(0.015625)"/>
       </defs>
       <use xlink:href="#Helvetica-30"/>
      </g>
     </g>
    </g>
    <g id="xtick_2">
     <g id="line2d_3">
      <path clip-path="url(#p265ffefc06)" d="M 212.025162 141.64 
L 212.025162 28.8 
" style="fill:none;stroke:#cccccc;stroke-linecap:round;stroke-width:0.8;"/>
     </g>
     <g id="text_2">
      <!-- 10 -->
      <g style="fill:#262626;" transform="translate(200.903287 162.986875)scale(0.2 -0.2)">
       <defs>
        <path d="M 613 3169 
L 613 3600 
Q 1222 3659 1462 3798 
Q 1703 3938 1822 4456 
L 2266 4456 
L 2266 0 
L 1666 0 
L 1666 3169 
L 613 3169 
z
" id="Helvetica-31" transform="scale(0.015625)"/>
       </defs>
       <use xlink:href="#Helvetica-31"/>
       <use x="55.615234" xlink:href="#Helvetica-30"/>
      </g>
     </g>
    </g>
    <g id="text_3">
     <!-- Position -->
     <g style="fill:#262626;" transform="translate(145.20125 189.089219)scale(0.25 -0.25)">
      <defs>
       <path d="M 547 4591 
L 2613 4591 
Q 3225 4591 3600 4245 
Q 3975 3900 3975 3275 
Q 3975 2738 3640 2339 
Q 3306 1941 2613 1941 
L 1169 1941 
L 1169 0 
L 547 0 
L 547 4591 
z
M 3347 3272 
Q 3347 3778 2972 3959 
Q 2766 4056 2406 4056 
L 1169 4056 
L 1169 2466 
L 2406 2466 
Q 2825 2466 3086 2644 
Q 3347 2822 3347 3272 
z
" id="Helvetica-50" transform="scale(0.015625)"/>
       <path d="M 1741 363 
Q 2300 363 2508 786 
Q 2716 1209 2716 1728 
Q 2716 2197 2566 2491 
Q 2328 2953 1747 2953 
Q 1231 2953 997 2559 
Q 763 2166 763 1609 
Q 763 1075 997 719 
Q 1231 363 1741 363 
z
M 1763 3444 
Q 2409 3444 2856 3012 
Q 3303 2581 3303 1744 
Q 3303 934 2909 406 
Q 2516 -122 1688 -122 
Q 997 -122 590 345 
Q 184 813 184 1600 
Q 184 2444 612 2944 
Q 1041 3444 1763 3444 
z
M 1744 3428 
L 1744 3428 
z
" id="Helvetica-6f" transform="scale(0.015625)"/>
       <path d="M 747 1050 
Q 772 769 888 619 
Q 1100 347 1625 347 
Q 1938 347 2175 483 
Q 2413 619 2413 903 
Q 2413 1119 2222 1231 
Q 2100 1300 1741 1391 
L 1294 1503 
Q 866 1609 663 1741 
Q 300 1969 300 2372 
Q 300 2847 642 3140 
Q 984 3434 1563 3434 
Q 2319 3434 2653 2991 
Q 2863 2709 2856 2384 
L 2325 2384 
Q 2309 2575 2191 2731 
Q 1997 2953 1519 2953 
Q 1200 2953 1036 2831 
Q 872 2709 872 2509 
Q 872 2291 1088 2159 
Q 1213 2081 1456 2022 
L 1828 1931 
Q 2434 1784 2641 1647 
Q 2969 1431 2969 969 
Q 2969 522 2630 197 
Q 2291 -128 1597 -128 
Q 850 -128 539 211 
Q 228 550 206 1050 
L 747 1050 
z
M 1578 3428 
L 1578 3428 
z
" id="Helvetica-73" transform="scale(0.015625)"/>
       <path d="M 413 3331 
L 984 3331 
L 984 0 
L 413 0 
L 413 3331 
z
M 413 4591 
L 984 4591 
L 984 3953 
L 413 3953 
L 413 4591 
z
" id="Helvetica-69" transform="scale(0.015625)"/>
       <path d="M 525 4281 
L 1094 4281 
L 1094 3347 
L 1628 3347 
L 1628 2888 
L 1094 2888 
L 1094 703 
Q 1094 528 1213 469 
Q 1278 434 1431 434 
Q 1472 434 1519 436 
Q 1566 438 1628 444 
L 1628 0 
Q 1531 -28 1426 -40 
Q 1322 -53 1200 -53 
Q 806 -53 665 148 
Q 525 350 525 672 
L 525 2888 
L 72 2888 
L 72 3347 
L 525 3347 
L 525 4281 
z
" id="Helvetica-74" transform="scale(0.015625)"/>
       <path d="M 413 3347 
L 947 3347 
L 947 2872 
Q 1184 3166 1450 3294 
Q 1716 3422 2041 3422 
Q 2753 3422 3003 2925 
Q 3141 2653 3141 2147 
L 3141 0 
L 2569 0 
L 2569 2109 
Q 2569 2416 2478 2603 
Q 2328 2916 1934 2916 
Q 1734 2916 1606 2875 
Q 1375 2806 1200 2600 
Q 1059 2434 1017 2257 
Q 975 2081 975 1753 
L 975 0 
L 413 0 
L 413 3347 
z
M 1734 3428 
L 1734 3428 
z
" id="Helvetica-6e" transform="scale(0.015625)"/>
      </defs>
      <use xlink:href="#Helvetica-50"/>
      <use x="66.699219" xlink:href="#Helvetica-6f"/>
      <use x="122.314453" xlink:href="#Helvetica-73"/>
      <use x="172.314453" xlink:href="#Helvetica-69"/>
      <use x="194.53125" xlink:href="#Helvetica-74"/>
      <use x="222.314453" xlink:href="#Helvetica-69"/>
      <use x="244.53125" xlink:href="#Helvetica-6f"/>
      <use x="300.146484" xlink:href="#Helvetica-6e"/>
     </g>
    </g>
   </g>
   <g id="matplotlib.axis_2">
    <g id="ytick_1">
     <g id="line2d_4">
      <path clip-path="url(#p265ffefc06)" d="M 94.94 141.64 
L 284.4 141.64 
" style="fill:none;stroke:#cccccc;stroke-linecap:round;stroke-width:0.8;"/>
     </g>
     <g id="text_4">
      <!-- 0 -->
      <g style="fill:#262626;" transform="translate(76.818125 148.813438)scale(0.2 -0.2)">
       <use xlink:href="#Helvetica-30"/>
      </g>
     </g>
    </g>
    <g id="ytick_2">
     <g id="line2d_5">
      <path clip-path="url(#p265ffefc06)" d="M 94.94 113.43 
L 284.4 113.43 
" style="fill:none;stroke:#cccccc;stroke-linecap:round;stroke-width:0.8;"/>
     </g>
     <g id="text_5">
      <!-- 0.25 -->
      <g style="fill:#262626;" transform="translate(49.018125 120.603438)scale(0.2 -0.2)">
       <defs>
        <path d="M 547 681 
L 1200 681 
L 1200 0 
L 547 0 
L 547 681 
z
" id="Helvetica-2e" transform="scale(0.015625)"/>
        <path d="M 200 0 
Q 231 578 439 1006 
Q 647 1434 1250 1784 
L 1850 2131 
Q 2253 2366 2416 2531 
Q 2672 2791 2672 3125 
Q 2672 3516 2437 3745 
Q 2203 3975 1813 3975 
Q 1234 3975 1013 3538 
Q 894 3303 881 2888 
L 309 2888 
Q 319 3472 525 3841 
Q 891 4491 1816 4491 
Q 2584 4491 2939 4075 
Q 3294 3659 3294 3150 
Q 3294 2613 2916 2231 
Q 2697 2009 2131 1694 
L 1703 1456 
Q 1397 1288 1222 1134 
Q 909 863 828 531 
L 3272 531 
L 3272 0 
L 200 0 
z
" id="Helvetica-32" transform="scale(0.015625)"/>
        <path d="M 791 1141 
Q 847 659 1238 475 
Q 1438 381 1700 381 
Q 2200 381 2440 700 
Q 2681 1019 2681 1406 
Q 2681 1875 2395 2131 
Q 2109 2388 1709 2388 
Q 1419 2388 1211 2275 
Q 1003 2163 856 1963 
L 369 1991 
L 709 4400 
L 3034 4400 
L 3034 3856 
L 1131 3856 
L 941 2613 
Q 1097 2731 1238 2791 
Q 1488 2894 1816 2894 
Q 2431 2894 2859 2497 
Q 3288 2100 3288 1491 
Q 3288 856 2895 371 
Q 2503 -113 1644 -113 
Q 1097 -113 676 195 
Q 256 503 206 1141 
L 791 1141 
z
" id="Helvetica-35" transform="scale(0.015625)"/>
       </defs>
       <use xlink:href="#Helvetica-30"/>
       <use x="55.615234" xlink:href="#Helvetica-2e"/>
       <use x="83.398438" xlink:href="#Helvetica-32"/>
       <use x="139.013672" xlink:href="#Helvetica-35"/>
      </g>
     </g>
    </g>
    <g id="ytick_3">
     <g id="line2d_6">
      <path clip-path="url(#p265ffefc06)" d="M 94.94 85.22 
L 284.4 85.22 
" style="fill:none;stroke:#cccccc;stroke-linecap:round;stroke-width:0.8;"/>
     </g>
     <g id="text_6">
      <!-- 0.50 -->
      <g style="fill:#262626;" transform="translate(49.018125 92.393438)scale(0.2 -0.2)">
       <use xlink:href="#Helvetica-30"/>
       <use x="55.615234" xlink:href="#Helvetica-2e"/>
       <use x="83.398438" xlink:href="#Helvetica-35"/>
       <use x="139.013672" xlink:href="#Helvetica-30"/>
      </g>
     </g>
    </g>
    <g id="ytick_4">
     <g id="line2d_7">
      <path clip-path="url(#p265ffefc06)" d="M 94.94 57.01 
L 284.4 57.01 
" style="fill:none;stroke:#cccccc;stroke-linecap:round;stroke-width:0.8;"/>
     </g>
     <g id="text_7">
      <!-- 0.75 -->
      <g style="fill:#262626;" transform="translate(49.018125 64.183437)scale(0.2 -0.2)">
       <defs>
        <path d="M 3347 4400 
L 3347 3909 
Q 3131 3700 2773 3181 
Q 2416 2663 2141 2063 
Q 1869 1478 1728 997 
Q 1638 688 1494 0 
L 872 0 
Q 1084 1281 1809 2550 
Q 2238 3294 2709 3834 
L 234 3834 
L 234 4400 
L 3347 4400 
z
" id="Helvetica-37" transform="scale(0.015625)"/>
       </defs>
       <use xlink:href="#Helvetica-30"/>
       <use x="55.615234" xlink:href="#Helvetica-2e"/>
       <use x="83.398438" xlink:href="#Helvetica-37"/>
       <use x="139.013672" xlink:href="#Helvetica-35"/>
      </g>
     </g>
    </g>
    <g id="ytick_5">
     <g id="line2d_8">
      <path clip-path="url(#p265ffefc06)" d="M 94.94 28.8 
L 284.4 28.8 
" style="fill:none;stroke:#cccccc;stroke-linecap:round;stroke-width:0.8;"/>
     </g>
     <g id="text_8">
      <!-- 1.0 -->
      <g style="fill:#262626;" transform="translate(60.14 35.973438)scale(0.2 -0.2)">
       <use xlink:href="#Helvetica-31"/>
       <use x="55.615234" xlink:href="#Helvetica-2e"/>
       <use x="83.398438" xlink:href="#Helvetica-30"/>
      </g>
     </g>
    </g>
    <g id="text_9">
     <!-- Probability -->
     <g style="fill:#262626;" transform="translate(39.65875 143.579375)rotate(-90)scale(0.25 -0.25)">
      <defs>
       <path d="M 428 3347 
L 963 3347 
L 963 2769 
Q 1028 2938 1284 3180 
Q 1541 3422 1875 3422 
Q 1891 3422 1928 3419 
Q 1966 3416 2056 3406 
L 2056 2813 
Q 2006 2822 1964 2825 
Q 1922 2828 1872 2828 
Q 1447 2828 1219 2554 
Q 991 2281 991 1925 
L 991 0 
L 428 0 
L 428 3347 
z
" id="Helvetica-72" transform="scale(0.015625)"/>
       <path d="M 369 4606 
L 916 4606 
L 916 2941 
Q 1100 3181 1356 3307 
Q 1613 3434 1913 3434 
Q 2538 3434 2927 3004 
Q 3316 2575 3316 1738 
Q 3316 944 2931 419 
Q 2547 -106 1866 -106 
Q 1484 -106 1222 78 
Q 1066 188 888 428 
L 888 0 
L 369 0 
L 369 4606 
z
M 1831 391 
Q 2288 391 2514 753 
Q 2741 1116 2741 1709 
Q 2741 2238 2514 2584 
Q 2288 2931 1847 2931 
Q 1463 2931 1173 2647 
Q 884 2363 884 1709 
Q 884 1238 1003 944 
Q 1225 391 1831 391 
z
" id="Helvetica-62" transform="scale(0.015625)"/>
       <path d="M 844 891 
Q 844 647 1022 506 
Q 1200 366 1444 366 
Q 1741 366 2019 503 
Q 2488 731 2488 1250 
L 2488 1703 
Q 2384 1638 2221 1594 
Q 2059 1550 1903 1531 
L 1563 1488 
Q 1256 1447 1103 1359 
Q 844 1213 844 891 
z
M 2206 2028 
Q 2400 2053 2466 2191 
Q 2503 2266 2503 2406 
Q 2503 2694 2298 2823 
Q 2094 2953 1713 2953 
Q 1272 2953 1088 2716 
Q 984 2584 953 2325 
L 428 2325 
Q 444 2944 830 3186 
Q 1216 3428 1725 3428 
Q 2316 3428 2684 3203 
Q 3050 2978 3050 2503 
L 3050 575 
Q 3050 488 3086 434 
Q 3122 381 3238 381 
Q 3275 381 3322 386 
Q 3369 391 3422 400 
L 3422 -16 
Q 3291 -53 3222 -62 
Q 3153 -72 3034 -72 
Q 2744 -72 2613 134 
Q 2544 244 2516 444 
Q 2344 219 2022 53 
Q 1700 -113 1313 -113 
Q 847 -113 551 170 
Q 256 453 256 878 
Q 256 1344 547 1600 
Q 838 1856 1309 1916 
L 2206 2028 
z
M 1741 3428 
L 1741 3428 
z
" id="Helvetica-61" transform="scale(0.015625)"/>
       <path d="M 428 4591 
L 991 4591 
L 991 0 
L 428 0 
L 428 4591 
z
" id="Helvetica-6c" transform="scale(0.015625)"/>
       <path d="M 2503 3347 
L 3125 3347 
Q 3006 3025 2597 1878 
Q 2291 1016 2084 472 
Q 1597 -809 1397 -1090 
Q 1197 -1372 709 -1372 
Q 591 -1372 527 -1362 
Q 463 -1353 369 -1328 
L 369 -816 
Q 516 -856 581 -865 
Q 647 -875 697 -875 
Q 853 -875 926 -823 
Q 1000 -772 1050 -697 
Q 1066 -672 1162 -440 
Q 1259 -209 1303 -97 
L 66 3347 
L 703 3347 
L 1600 622 
L 2503 3347 
z
M 1597 3428 
L 1597 3428 
z
" id="Helvetica-79" transform="scale(0.015625)"/>
      </defs>
      <use xlink:href="#Helvetica-50"/>
      <use x="66.699219" xlink:href="#Helvetica-72"/>
      <use x="100" xlink:href="#Helvetica-6f"/>
      <use x="155.615234" xlink:href="#Helvetica-62"/>
      <use x="211.230469" xlink:href="#Helvetica-61"/>
      <use x="266.845703" xlink:href="#Helvetica-62"/>
      <use x="322.460938" xlink:href="#Helvetica-69"/>
      <use x="344.677734" xlink:href="#Helvetica-6c"/>
      <use x="366.894531" xlink:href="#Helvetica-69"/>
      <use x="389.111328" xlink:href="#Helvetica-74"/>
      <use x="416.894531" xlink:href="#Helvetica-79"/>
     </g>
    </g>
   </g>
   <g id="patch_71">
    <path d="M 94.94 141.64 
L 94.94 28.8 
" style="fill:none;stroke:#000000;stroke-linecap:square;stroke-linejoin:miter;"/>
   </g>
  </g>
 </g>
 <defs>
  <clipPath id="p265ffefc06">
   <rect height="112.84" width="189.46" x="94.94" y="28.8"/>
  </clipPath>
 </defs>
</svg>
