<?xml version="1.0" encoding="utf-8" standalone="no"?>
<!DOCTYPE svg PUBLIC "-//W3C//DTD SVG 1.1//EN"
  "http://www.w3.org/Graphics/SVG/1.1/DTD/svg11.dtd">
<svg height="144pt" version="1.1" viewBox="0 0 144 144" width="144pt" xmlns="http://www.w3.org/2000/svg" xmlns:xlink="http://www.w3.org/1999/xlink">
 <metadata>
  <rdf:RDF xmlns:cc="http://creativecommons.org/ns#" xmlns:dc="http://purl.org/dc/elements/1.1/" xmlns:rdf="http://www.w3.org/1999/02/22-rdf-syntax-ns#">
   <cc:Work>
    <dc:type rdf:resource="http://purl.org/dc/dcmitype/StillImage"/>
    <dc:date>2022-12-17T01:46:13.235985</dc:date>
    <dc:format>image/svg+xml</dc:format>
    <dc:creator>
     <cc:Agent>
      <dc:title>Matplotlib v3.4.2, https://matplotlib.org/</dc:title>
     </cc:Agent>
    </dc:creator>
   </cc:Work>
  </rdf:RDF>
 </metadata>
 <defs>
  <style type="text/css">*{stroke-linecap:butt;stroke-linejoin:round;}</style>
 </defs>
 <g id="figure_1">
  <g id="patch_1">
   <path d="M 0 144 
L 144 144 
L 144 0 
L 0 0 
z
" style="fill:#ffffff;"/>
  </g>
  <g id="axes_1">
   <g id="patch_2">
    <path d="M 18 128.16 
L 129.6 128.16 
L 129.6 17.28 
L 18 17.28 
z
" style="fill:#ffffff;"/>
   </g>
   <g id="matplotlib.axis_1">
    <g id="xtick_1">
     <g id="text_1">
      <!-- Original -->
      <g style="fill:#262626;" transform="translate(51.08125 204.0725)rotate(-90)scale(0.2 -0.2)">
       <defs>
        <path d="M 309 2231 
Q 309 3372 921 4017 
Q 1534 4663 2503 4663 
Q 3138 4663 3647 4359 
Q 4156 4056 4423 3514 
Q 4691 2972 4691 2284 
Q 4691 1588 4409 1038 
Q 4128 488 3612 205 
Q 3097 -78 2500 -78 
Q 1853 -78 1343 234 
Q 834 547 571 1087 
Q 309 1628 309 2231 
z
M 934 2222 
Q 934 1394 1379 917 
Q 1825 441 2497 441 
Q 3181 441 3623 922 
Q 4066 1403 4066 2288 
Q 4066 2847 3877 3264 
Q 3688 3681 3323 3911 
Q 2959 4141 2506 4141 
Q 1863 4141 1398 3698 
Q 934 3256 934 2222 
z
" id="ArialMT-4f" transform="scale(0.015625)"/>
        <path d="M 416 0 
L 416 3319 
L 922 3319 
L 922 2816 
Q 1116 3169 1280 3281 
Q 1444 3394 1641 3394 
Q 1925 3394 2219 3213 
L 2025 2691 
Q 1819 2813 1613 2813 
Q 1428 2813 1281 2702 
Q 1134 2591 1072 2394 
Q 978 2094 978 1738 
L 978 0 
L 416 0 
z
" id="ArialMT-72" transform="scale(0.015625)"/>
        <path d="M 425 3934 
L 425 4581 
L 988 4581 
L 988 3934 
L 425 3934 
z
M 425 0 
L 425 3319 
L 988 3319 
L 988 0 
L 425 0 
z
" id="ArialMT-69" transform="scale(0.015625)"/>
        <path d="M 319 -275 
L 866 -356 
Q 900 -609 1056 -725 
Q 1266 -881 1628 -881 
Q 2019 -881 2231 -725 
Q 2444 -569 2519 -288 
Q 2563 -116 2559 434 
Q 2191 0 1641 0 
Q 956 0 581 494 
Q 206 988 206 1678 
Q 206 2153 378 2554 
Q 550 2956 876 3175 
Q 1203 3394 1644 3394 
Q 2231 3394 2613 2919 
L 2613 3319 
L 3131 3319 
L 3131 450 
Q 3131 -325 2973 -648 
Q 2816 -972 2473 -1159 
Q 2131 -1347 1631 -1347 
Q 1038 -1347 672 -1080 
Q 306 -813 319 -275 
z
M 784 1719 
Q 784 1066 1043 766 
Q 1303 466 1694 466 
Q 2081 466 2343 764 
Q 2606 1063 2606 1700 
Q 2606 2309 2336 2618 
Q 2066 2928 1684 2928 
Q 1309 2928 1046 2623 
Q 784 2319 784 1719 
z
" id="ArialMT-67" transform="scale(0.015625)"/>
        <path d="M 422 0 
L 422 3319 
L 928 3319 
L 928 2847 
Q 1294 3394 1984 3394 
Q 2284 3394 2536 3286 
Q 2788 3178 2913 3003 
Q 3038 2828 3088 2588 
Q 3119 2431 3119 2041 
L 3119 0 
L 2556 0 
L 2556 2019 
Q 2556 2363 2490 2533 
Q 2425 2703 2258 2804 
Q 2091 2906 1866 2906 
Q 1506 2906 1245 2678 
Q 984 2450 984 1813 
L 984 0 
L 422 0 
z
" id="ArialMT-6e" transform="scale(0.015625)"/>
        <path d="M 2588 409 
Q 2275 144 1986 34 
Q 1697 -75 1366 -75 
Q 819 -75 525 192 
Q 231 459 231 875 
Q 231 1119 342 1320 
Q 453 1522 633 1644 
Q 813 1766 1038 1828 
Q 1203 1872 1538 1913 
Q 2219 1994 2541 2106 
Q 2544 2222 2544 2253 
Q 2544 2597 2384 2738 
Q 2169 2928 1744 2928 
Q 1347 2928 1158 2789 
Q 969 2650 878 2297 
L 328 2372 
Q 403 2725 575 2942 
Q 747 3159 1072 3276 
Q 1397 3394 1825 3394 
Q 2250 3394 2515 3294 
Q 2781 3194 2906 3042 
Q 3031 2891 3081 2659 
Q 3109 2516 3109 2141 
L 3109 1391 
Q 3109 606 3145 398 
Q 3181 191 3288 0 
L 2700 0 
Q 2613 175 2588 409 
z
M 2541 1666 
Q 2234 1541 1622 1453 
Q 1275 1403 1131 1340 
Q 988 1278 909 1158 
Q 831 1038 831 891 
Q 831 666 1001 516 
Q 1172 366 1500 366 
Q 1825 366 2078 508 
Q 2331 650 2450 897 
Q 2541 1088 2541 1459 
L 2541 1666 
z
" id="ArialMT-61" transform="scale(0.015625)"/>
        <path d="M 409 0 
L 409 4581 
L 972 4581 
L 972 0 
L 409 0 
z
" id="ArialMT-6c" transform="scale(0.015625)"/>
       </defs>
       <use xlink:href="#ArialMT-4f"/>
       <use x="77.783203" xlink:href="#ArialMT-72"/>
       <use x="111.083984" xlink:href="#ArialMT-69"/>
       <use x="133.300781" xlink:href="#ArialMT-67"/>
       <use x="188.916016" xlink:href="#ArialMT-69"/>
       <use x="211.132812" xlink:href="#ArialMT-6e"/>
       <use x="266.748047" xlink:href="#ArialMT-61"/>
       <use x="322.363281" xlink:href="#ArialMT-6c"/>
      </g>
     </g>
    </g>
    <g id="xtick_2">
     <g id="text_2">
      <!-- Mutated -->
      <g style="fill:#262626;" transform="translate(106.870312 207.419375)rotate(-90)scale(0.2 -0.2)">
       <defs>
        <path d="M 475 0 
L 475 4581 
L 1388 4581 
L 2472 1338 
Q 2622 884 2691 659 
Q 2769 909 2934 1394 
L 4031 4581 
L 4847 4581 
L 4847 0 
L 4263 0 
L 4263 3834 
L 2931 0 
L 2384 0 
L 1059 3900 
L 1059 0 
L 475 0 
z
" id="ArialMT-4d" transform="scale(0.015625)"/>
        <path d="M 2597 0 
L 2597 488 
Q 2209 -75 1544 -75 
Q 1250 -75 995 37 
Q 741 150 617 320 
Q 494 491 444 738 
Q 409 903 409 1263 
L 409 3319 
L 972 3319 
L 972 1478 
Q 972 1038 1006 884 
Q 1059 663 1231 536 
Q 1403 409 1656 409 
Q 1909 409 2131 539 
Q 2353 669 2445 892 
Q 2538 1116 2538 1541 
L 2538 3319 
L 3100 3319 
L 3100 0 
L 2597 0 
z
" id="ArialMT-75" transform="scale(0.015625)"/>
        <path d="M 1650 503 
L 1731 6 
Q 1494 -44 1306 -44 
Q 1000 -44 831 53 
Q 663 150 594 308 
Q 525 466 525 972 
L 525 2881 
L 113 2881 
L 113 3319 
L 525 3319 
L 525 4141 
L 1084 4478 
L 1084 3319 
L 1650 3319 
L 1650 2881 
L 1084 2881 
L 1084 941 
Q 1084 700 1114 631 
Q 1144 563 1211 522 
Q 1278 481 1403 481 
Q 1497 481 1650 503 
z
" id="ArialMT-74" transform="scale(0.015625)"/>
        <path d="M 2694 1069 
L 3275 997 
Q 3138 488 2766 206 
Q 2394 -75 1816 -75 
Q 1088 -75 661 373 
Q 234 822 234 1631 
Q 234 2469 665 2931 
Q 1097 3394 1784 3394 
Q 2450 3394 2872 2941 
Q 3294 2488 3294 1666 
Q 3294 1616 3291 1516 
L 816 1516 
Q 847 969 1125 678 
Q 1403 388 1819 388 
Q 2128 388 2347 550 
Q 2566 713 2694 1069 
z
M 847 1978 
L 2700 1978 
Q 2663 2397 2488 2606 
Q 2219 2931 1791 2931 
Q 1403 2931 1139 2672 
Q 875 2413 847 1978 
z
" id="ArialMT-65" transform="scale(0.015625)"/>
        <path d="M 2575 0 
L 2575 419 
Q 2259 -75 1647 -75 
Q 1250 -75 917 144 
Q 584 363 401 755 
Q 219 1147 219 1656 
Q 219 2153 384 2558 
Q 550 2963 881 3178 
Q 1213 3394 1622 3394 
Q 1922 3394 2156 3267 
Q 2391 3141 2538 2938 
L 2538 4581 
L 3097 4581 
L 3097 0 
L 2575 0 
z
M 797 1656 
Q 797 1019 1065 703 
Q 1334 388 1700 388 
Q 2069 388 2326 689 
Q 2584 991 2584 1609 
Q 2584 2291 2321 2609 
Q 2059 2928 1675 2928 
Q 1300 2928 1048 2622 
Q 797 2316 797 1656 
z
" id="ArialMT-64" transform="scale(0.015625)"/>
       </defs>
       <use xlink:href="#ArialMT-4d"/>
       <use x="83.300781" xlink:href="#ArialMT-75"/>
       <use x="138.916016" xlink:href="#ArialMT-74"/>
       <use x="166.699219" xlink:href="#ArialMT-61"/>
       <use x="222.314453" xlink:href="#ArialMT-74"/>
       <use x="250.097656" xlink:href="#ArialMT-65"/>
       <use x="305.712891" xlink:href="#ArialMT-64"/>
      </g>
     </g>
    </g>
    <g id="text_3">
     <!-- Method -->
     <g style="fill:#262626;" transform="translate(40.448437 225.735)scale(0.2 -0.2)">
      <defs>
       <path d="M 422 0 
L 422 4581 
L 984 4581 
L 984 2938 
Q 1378 3394 1978 3394 
Q 2347 3394 2619 3248 
Q 2891 3103 3008 2847 
Q 3125 2591 3125 2103 
L 3125 0 
L 2563 0 
L 2563 2103 
Q 2563 2525 2380 2717 
Q 2197 2909 1863 2909 
Q 1613 2909 1392 2779 
Q 1172 2650 1078 2428 
Q 984 2206 984 1816 
L 984 0 
L 422 0 
z
" id="ArialMT-68" transform="scale(0.015625)"/>
       <path d="M 213 1659 
Q 213 2581 725 3025 
Q 1153 3394 1769 3394 
Q 2453 3394 2887 2945 
Q 3322 2497 3322 1706 
Q 3322 1066 3130 698 
Q 2938 331 2570 128 
Q 2203 -75 1769 -75 
Q 1072 -75 642 372 
Q 213 819 213 1659 
z
M 791 1659 
Q 791 1022 1069 705 
Q 1347 388 1769 388 
Q 2188 388 2466 706 
Q 2744 1025 2744 1678 
Q 2744 2294 2464 2611 
Q 2184 2928 1769 2928 
Q 1347 2928 1069 2612 
Q 791 2297 791 1659 
z
" id="ArialMT-6f" transform="scale(0.015625)"/>
      </defs>
      <use xlink:href="#ArialMT-4d"/>
      <use x="83.300781" xlink:href="#ArialMT-65"/>
      <use x="138.916016" xlink:href="#ArialMT-74"/>
      <use x="166.699219" xlink:href="#ArialMT-68"/>
      <use x="222.314453" xlink:href="#ArialMT-6f"/>
      <use x="277.929688" xlink:href="#ArialMT-64"/>
     </g>
    </g>
   </g>
   <g id="matplotlib.axis_2">
    <g id="ytick_1">
     <g id="text_4">
      <!-- 0 -->
      <g style="fill:#262626;" transform="translate(-0.121875 111.354561)scale(0.2 -0.2)">
       <defs>
        <path d="M 266 2259 
Q 266 3072 433 3567 
Q 600 4063 929 4331 
Q 1259 4600 1759 4600 
Q 2128 4600 2406 4451 
Q 2684 4303 2865 4023 
Q 3047 3744 3150 3342 
Q 3253 2941 3253 2259 
Q 3253 1453 3087 958 
Q 2922 463 2592 192 
Q 2263 -78 1759 -78 
Q 1097 -78 719 397 
Q 266 969 266 2259 
z
M 844 2259 
Q 844 1131 1108 757 
Q 1372 384 1759 384 
Q 2147 384 2411 759 
Q 2675 1134 2675 2259 
Q 2675 3391 2411 3762 
Q 2147 4134 1753 4134 
Q 1366 4134 1134 3806 
Q 844 3388 844 2259 
z
" id="ArialMT-30" transform="scale(0.015625)"/>
       </defs>
       <use xlink:href="#ArialMT-30"/>
      </g>
     </g>
    </g>
    <g id="ytick_2">
     <g id="text_5">
      <!-- 1 -->
      <g style="fill:#262626;" transform="translate(-0.121875 48.401064)scale(0.2 -0.2)">
       <defs>
        <path d="M 2384 0 
L 1822 0 
L 1822 3584 
Q 1619 3391 1289 3197 
Q 959 3003 697 2906 
L 697 3450 
Q 1169 3672 1522 3987 
Q 1875 4303 2022 4600 
L 2384 4600 
L 2384 0 
z
" id="ArialMT-31" transform="scale(0.015625)"/>
       </defs>
       <use xlink:href="#ArialMT-31"/>
      </g>
     </g>
    </g>
    <g id="text_6">
     <!-- Predictions -->
     <g style="fill:#262626;" transform="translate(-8.096875 122.185625)rotate(-90)scale(0.2 -0.2)">
      <defs>
       <path d="M 494 0 
L 494 4581 
L 2222 4581 
Q 2678 4581 2919 4538 
Q 3256 4481 3484 4323 
Q 3713 4166 3852 3881 
Q 3991 3597 3991 3256 
Q 3991 2672 3619 2267 
Q 3247 1863 2275 1863 
L 1100 1863 
L 1100 0 
L 494 0 
z
M 1100 2403 
L 2284 2403 
Q 2872 2403 3119 2622 
Q 3366 2841 3366 3238 
Q 3366 3525 3220 3729 
Q 3075 3934 2838 4000 
Q 2684 4041 2272 4041 
L 1100 4041 
L 1100 2403 
z
" id="ArialMT-50" transform="scale(0.015625)"/>
       <path d="M 2588 1216 
L 3141 1144 
Q 3050 572 2676 248 
Q 2303 -75 1759 -75 
Q 1078 -75 664 370 
Q 250 816 250 1647 
Q 250 2184 428 2587 
Q 606 2991 970 3192 
Q 1334 3394 1763 3394 
Q 2303 3394 2647 3120 
Q 2991 2847 3088 2344 
L 2541 2259 
Q 2463 2594 2264 2762 
Q 2066 2931 1784 2931 
Q 1359 2931 1093 2626 
Q 828 2322 828 1663 
Q 828 994 1084 691 
Q 1341 388 1753 388 
Q 2084 388 2306 591 
Q 2528 794 2588 1216 
z
" id="ArialMT-63" transform="scale(0.015625)"/>
       <path d="M 197 991 
L 753 1078 
Q 800 744 1014 566 
Q 1228 388 1613 388 
Q 2000 388 2187 545 
Q 2375 703 2375 916 
Q 2375 1106 2209 1216 
Q 2094 1291 1634 1406 
Q 1016 1563 777 1677 
Q 538 1791 414 1992 
Q 291 2194 291 2438 
Q 291 2659 392 2848 
Q 494 3038 669 3163 
Q 800 3259 1026 3326 
Q 1253 3394 1513 3394 
Q 1903 3394 2198 3281 
Q 2494 3169 2634 2976 
Q 2775 2784 2828 2463 
L 2278 2388 
Q 2241 2644 2061 2787 
Q 1881 2931 1553 2931 
Q 1166 2931 1000 2803 
Q 834 2675 834 2503 
Q 834 2394 903 2306 
Q 972 2216 1119 2156 
Q 1203 2125 1616 2013 
Q 2213 1853 2448 1751 
Q 2684 1650 2818 1456 
Q 2953 1263 2953 975 
Q 2953 694 2789 445 
Q 2625 197 2315 61 
Q 2006 -75 1616 -75 
Q 969 -75 630 194 
Q 291 463 197 991 
z
" id="ArialMT-73" transform="scale(0.015625)"/>
      </defs>
      <use xlink:href="#ArialMT-50"/>
      <use x="66.699219" xlink:href="#ArialMT-72"/>
      <use x="100" xlink:href="#ArialMT-65"/>
      <use x="155.615234" xlink:href="#ArialMT-64"/>
      <use x="211.230469" xlink:href="#ArialMT-69"/>
      <use x="233.447266" xlink:href="#ArialMT-63"/>
      <use x="283.447266" xlink:href="#ArialMT-74"/>
      <use x="311.230469" xlink:href="#ArialMT-69"/>
      <use x="333.447266" xlink:href="#ArialMT-6f"/>
      <use x="389.0625" xlink:href="#ArialMT-6e"/>
      <use x="444.677734" xlink:href="#ArialMT-73"/>
     </g>
    </g>
   </g>
   <g id="PolyCollection_1">
    <defs>
     <path d="M 47.231719 -20.88 
L 44.568281 -20.88 
L 44.258018 -21.898182 
L 43.89878 -22.916364 
L 43.489029 -23.934545 
L 43.028823 -24.952727 
L 42.52014 -25.970909 
L 41.967143 -26.989091 
L 41.376356 -28.007273 
L 40.75673 -29.025455 
L 40.119558 -30.043636 
L 39.478249 -31.061818 
L 38.847929 -32.08 
L 38.244904 -33.098182 
L 37.685988 -34.116364 
L 37.187741 -35.134545 
L 36.765664 -36.152727 
L 36.433403 -37.170909 
L 36.202013 -38.189091 
L 36.079355 -39.207273 
L 36.069645 -40.225455 
L 36.17322 -41.243636 
L 36.386512 -42.261818 
L 36.702258 -43.28 
L 37.109909 -44.298182 
L 37.596211 -45.316364 
L 38.145926 -46.334545 
L 38.742615 -47.352727 
L 39.369453 -48.370909 
L 40.009998 -49.389091 
L 40.648878 -50.407273 
L 41.27236 -51.425455 
L 41.868768 -52.443636 
L 42.428742 -53.461818 
L 42.945345 -54.48 
L 43.414018 -55.498182 
L 43.832429 -56.516364 
L 44.20021 -57.534545 
L 44.51865 -58.552727 
L 44.790342 -59.570909 
L 45.018833 -60.589091 
L 45.208291 -61.607273 
L 45.3632 -62.625455 
L 45.488111 -63.643636 
L 45.587435 -64.661818 
L 45.665295 -65.68 
L 45.725421 -66.698182 
L 45.771087 -67.716364 
L 45.80509 -68.734545 
L 45.829747 -69.752727 
L 45.846917 -70.770909 
L 45.858028 -71.789091 
L 45.86412 -72.807273 
L 45.865881 -73.825455 
L 45.863684 -74.843636 
L 45.857628 -75.861818 
L 45.847564 -76.88 
L 45.833134 -77.898182 
L 45.813802 -78.916364 
L 45.788884 -79.934545 
L 45.757588 -80.952727 
L 45.719062 -81.970909 
L 45.672438 -82.989091 
L 45.616901 -84.007273 
L 45.551747 -85.025455 
L 45.47646 -86.043636 
L 45.390787 -87.061818 
L 45.294809 -88.08 
L 45.189008 -89.098182 
L 45.074319 -90.116364 
L 44.952166 -91.134545 
L 44.824467 -92.152727 
L 44.693613 -93.170909 
L 44.562418 -94.189091 
L 44.434029 -95.207273 
L 44.311816 -96.225455 
L 44.199224 -97.243636 
L 44.09962 -98.261818 
L 44.016125 -99.28 
L 43.951454 -100.298182 
L 43.907768 -101.316364 
L 43.886554 -102.334545 
L 43.888543 -103.352727 
L 43.913665 -104.370909 
L 43.961058 -105.389091 
L 44.029112 -106.407273 
L 44.115561 -107.425455 
L 44.217612 -108.443636 
L 44.332089 -109.461818 
L 44.4556 -110.48 
L 44.584702 -111.498182 
L 44.716054 -112.516364 
L 44.846559 -113.534545 
L 44.973471 -114.552727 
L 45.094475 -115.570909 
L 45.20774 -116.589091 
L 45.311928 -117.607273 
L 45.406187 -118.625455 
L 45.490112 -119.643636 
L 45.56369 -120.661818 
L 45.627238 -121.68 
L 46.172762 -121.68 
L 46.172762 -121.68 
L 46.23631 -120.661818 
L 46.309888 -119.643636 
L 46.393813 -118.625455 
L 46.488072 -117.607273 
L 46.59226 -116.589091 
L 46.705525 -115.570909 
L 46.826529 -114.552727 
L 46.953441 -113.534545 
L 47.083946 -112.516364 
L 47.215298 -111.498182 
L 47.3444 -110.48 
L 47.467911 -109.461818 
L 47.582388 -108.443636 
L 47.684439 -107.425455 
L 47.770888 -106.407273 
L 47.838942 -105.389091 
L 47.886335 -104.370909 
L 47.911457 -103.352727 
L 47.913446 -102.334545 
L 47.892232 -101.316364 
L 47.848546 -100.298182 
L 47.783875 -99.28 
L 47.70038 -98.261818 
L 47.600776 -97.243636 
L 47.488184 -96.225455 
L 47.365971 -95.207273 
L 47.237582 -94.189091 
L 47.106387 -93.170909 
L 46.975533 -92.152727 
L 46.847834 -91.134545 
L 46.725681 -90.116364 
L 46.610992 -89.098182 
L 46.505191 -88.08 
L 46.409213 -87.061818 
L 46.32354 -86.043636 
L 46.248253 -85.025455 
L 46.183099 -84.007273 
L 46.127562 -82.989091 
L 46.080938 -81.970909 
L 46.042412 -80.952727 
L 46.011116 -79.934545 
L 45.986198 -78.916364 
L 45.966866 -77.898182 
L 45.952436 -76.88 
L 45.942372 -75.861818 
L 45.936316 -74.843636 
L 45.934119 -73.825455 
L 45.93588 -72.807273 
L 45.941972 -71.789091 
L 45.953083 -70.770909 
L 45.970253 -69.752727 
L 45.99491 -68.734545 
L 46.028913 -67.716364 
L 46.074579 -66.698182 
L 46.134705 -65.68 
L 46.212565 -64.661818 
L 46.311889 -63.643636 
L 46.4368 -62.625455 
L 46.591709 -61.607273 
L 46.781167 -60.589091 
L 47.009658 -59.570909 
L 47.28135 -58.552727 
L 47.59979 -57.534545 
L 47.967571 -56.516364 
L 48.385982 -55.498182 
L 48.854655 -54.48 
L 49.371258 -53.461818 
L 49.931232 -52.443636 
L 50.52764 -51.425455 
L 51.151122 -50.407273 
L 51.790002 -49.389091 
L 52.430547 -48.370909 
L 53.057385 -47.352727 
L 53.654074 -46.334545 
L 54.203789 -45.316364 
L 54.690091 -44.298182 
L 55.097742 -43.28 
L 55.413488 -42.261818 
L 55.62678 -41.243636 
L 55.730355 -40.225455 
L 55.720645 -39.207273 
L 55.597987 -38.189091 
L 55.366597 -37.170909 
L 55.034336 -36.152727 
L 54.612259 -35.134545 
L 54.114012 -34.116364 
L 53.555096 -33.098182 
L 52.952071 -32.08 
L 52.321751 -31.061818 
L 51.680442 -30.043636 
L 51.04327 -29.025455 
L 50.423644 -28.007273 
L 49.832857 -26.989091 
L 49.27986 -25.970909 
L 48.771177 -24.952727 
L 48.310971 -23.934545 
L 47.90122 -22.916364 
L 47.541982 -21.898182 
L 47.231719 -20.88 
z
" id="m8ed6bd0a36" style="stroke:#262626;stroke-width:0.75;"/>
    </defs>
    <g clip-path="url(#pca01a71a74)">
     <use style="fill:#7f9dd2;stroke:#262626;stroke-width:0.75;" x="0" xlink:href="#m8ed6bd0a36" y="144"/>
    </g>
   </g>
   <g id="PolyCollection_2">
    <defs>
     <path d="M 104.730436 -31.412323 
L 98.669564 -31.412323 
L 97.332364 -32.21773 
L 95.632876 -33.023138 
L 93.57704 -33.828546 
L 91.218083 -34.633953 
L 88.663466 -35.439361 
L 86.072895 -36.244768 
L 83.645313 -37.050176 
L 81.595357 -37.855584 
L 80.122666 -38.660991 
L 79.38 -39.466399 
L 79.447152 -40.271807 
L 80.316834 -41.077214 
L 81.895977 -41.882622 
L 84.022134 -42.688029 
L 86.49098 -43.493437 
L 89.088474 -44.298845 
L 91.620731 -45.104252 
L 93.936001 -45.90966 
L 95.935829 -46.715068 
L 97.575386 -47.520475 
L 98.855377 -48.325883 
L 99.809133 -49.13129 
L 100.488586 -49.936698 
L 100.95197 -50.742106 
L 101.254815 -51.547513 
L 101.444638 -52.352921 
L 101.558822 -53.158329 
L 101.624773 -53.963736 
L 101.661365 -54.769144 
L 101.680876 -55.574551 
L 101.690876 -56.379959 
L 101.695805 -57.185367 
L 101.698141 -57.990774 
L 101.699206 -58.796182 
L 101.699673 -59.601589 
L 101.69987 -60.406997 
L 101.69995 -61.212405 
L 101.699982 -62.017812 
L 101.699994 -62.82322 
L 101.699998 -63.628628 
L 101.699999 -64.434035 
L 101.7 -65.239443 
L 101.7 -66.04485 
L 101.7 -66.850258 
L 101.7 -67.655666 
L 101.7 -68.461073 
L 101.7 -69.266481 
L 101.7 -70.071889 
L 101.7 -70.877296 
L 101.7 -71.682704 
L 101.7 -72.488111 
L 101.7 -73.293519 
L 101.7 -74.098927 
L 101.7 -74.904334 
L 101.7 -75.709742 
L 101.7 -76.51515 
L 101.7 -77.320557 
L 101.7 -78.125965 
L 101.7 -78.931372 
L 101.699999 -79.73678 
L 101.699996 -80.542188 
L 101.69999 -81.347595 
L 101.699975 -82.153003 
L 101.699937 -82.958411 
L 101.699846 -83.763818 
L 101.699639 -84.569226 
L 101.699186 -85.374633 
L 101.69823 -86.180041 
L 101.696289 -86.985449 
L 101.692504 -87.790856 
L 101.685404 -88.596264 
L 101.672607 -89.401671 
L 101.650452 -90.207079 
L 101.613621 -91.012487 
L 101.55486 -91.817894 
L 101.46495 -92.623302 
L 101.333115 -93.42871 
L 101.148058 -94.234117 
L 100.899702 -95.039525 
L 100.581579 -95.844932 
L 100.193552 -96.65034 
L 99.744321 -97.455748 
L 99.252987 -98.261155 
L 98.748996 -99.066563 
L 98.269966 -99.871971 
L 97.857428 -100.677378 
L 97.551027 -101.482786 
L 97.382283 -102.288193 
L 97.369254 -103.093601 
L 97.513353 -103.899009 
L 97.799099 -104.704416 
L 98.196852 -105.509824 
L 98.667875 -106.315232 
L 99.170523 -107.120639 
L 99.666195 -107.926047 
L 100.123903 -108.731454 
L 100.522797 -109.536862 
L 100.852548 -110.34227 
L 101.112005 -111.147677 
L 102.287995 -111.147677 
L 102.287995 -111.147677 
L 102.547452 -110.34227 
L 102.877203 -109.536862 
L 103.276097 -108.731454 
L 103.733805 -107.926047 
L 104.229477 -107.120639 
L 104.732125 -106.315232 
L 105.203148 -105.509824 
L 105.600901 -104.704416 
L 105.886647 -103.899009 
L 106.030746 -103.093601 
L 106.017717 -102.288193 
L 105.848973 -101.482786 
L 105.542572 -100.677378 
L 105.130034 -99.871971 
L 104.651004 -99.066563 
L 104.147013 -98.261155 
L 103.655679 -97.455748 
L 103.206448 -96.65034 
L 102.818421 -95.844932 
L 102.500298 -95.039525 
L 102.251942 -94.234117 
L 102.066885 -93.42871 
L 101.93505 -92.623302 
L 101.84514 -91.817894 
L 101.786379 -91.012487 
L 101.749548 -90.207079 
L 101.727393 -89.401671 
L 101.714596 -88.596264 
L 101.707496 -87.790856 
L 101.703711 -86.985449 
L 101.70177 -86.180041 
L 101.700814 -85.374633 
L 101.700361 -84.569226 
L 101.700154 -83.763818 
L 101.700063 -82.958411 
L 101.700025 -82.153003 
L 101.70001 -81.347595 
L 101.700004 -80.542188 
L 101.700001 -79.73678 
L 101.7 -78.931372 
L 101.7 -78.125965 
L 101.7 -77.320557 
L 101.7 -76.51515 
L 101.7 -75.709742 
L 101.7 -74.904334 
L 101.7 -74.098927 
L 101.7 -73.293519 
L 101.7 -72.488111 
L 101.7 -71.682704 
L 101.7 -70.877296 
L 101.7 -70.071889 
L 101.7 -69.266481 
L 101.7 -68.461073 
L 101.7 -67.655666 
L 101.7 -66.850258 
L 101.7 -66.04485 
L 101.7 -65.239443 
L 101.700001 -64.434035 
L 101.700002 -63.628628 
L 101.700006 -62.82322 
L 101.700018 -62.017812 
L 101.70005 -61.212405 
L 101.70013 -60.406997 
L 101.700327 -59.601589 
L 101.700794 -58.796182 
L 101.701859 -57.990774 
L 101.704195 -57.185367 
L 101.709124 -56.379959 
L 101.719124 -55.574551 
L 101.738635 -54.769144 
L 101.775227 -53.963736 
L 101.841178 -53.158329 
L 101.955362 -52.352921 
L 102.145185 -51.547513 
L 102.44803 -50.742106 
L 102.911414 -49.936698 
L 103.590867 -49.13129 
L 104.544623 -48.325883 
L 105.824614 -47.520475 
L 107.464171 -46.715068 
L 109.463999 -45.90966 
L 111.779269 -45.104252 
L 114.311526 -44.298845 
L 116.90902 -43.493437 
L 119.377866 -42.688029 
L 121.504023 -41.882622 
L 123.083166 -41.077214 
L 123.952848 -40.271807 
L 124.02 -39.466399 
L 123.277334 -38.660991 
L 121.804643 -37.855584 
L 119.754687 -37.050176 
L 117.327105 -36.244768 
L 114.736534 -35.439361 
L 112.181917 -34.633953 
L 109.82296 -33.828546 
L 107.767124 -33.023138 
L 106.067636 -32.21773 
L 104.730436 -31.412323 
z
" id="m338defa99b" style="stroke:#262626;stroke-width:0.75;"/>
    </defs>
    <g clip-path="url(#pca01a71a74)">
     <use style="fill:#1a1a66;stroke:#262626;stroke-width:0.75;" x="0" xlink:href="#m338defa99b" y="144"/>
    </g>
   </g>
   <g id="line2d_1">
    <path clip-path="url(#pca01a71a74)" d="M 45.9 104.196748 
L 45.9 104.196748 
" style="fill:none;stroke:#262626;stroke-linecap:round;stroke-width:0.75;"/>
   </g>
   <g id="line2d_2">
    <path clip-path="url(#pca01a71a74)" d="M 45.9 104.196748 
L 45.9 104.196748 
" style="fill:none;stroke:#262626;stroke-linecap:round;stroke-width:2.25;"/>
   </g>
   <g id="line2d_3">
    <path clip-path="url(#pca01a71a74)" d="M 101.7 104.196748 
L 101.7 104.196748 
" style="fill:none;stroke:#262626;stroke-linecap:round;stroke-width:0.75;"/>
   </g>
   <g id="line2d_4">
    <path clip-path="url(#pca01a71a74)" d="M 101.7 104.196748 
L 101.7 104.196748 
" style="fill:none;stroke:#262626;stroke-linecap:round;stroke-width:2.25;"/>
   </g>
   <g id="patch_3">
    <path d="M 18 128.16 
L 18 17.28 
" style="fill:none;stroke:#262626;stroke-linecap:square;stroke-linejoin:miter;stroke-width:0.8;"/>
   </g>
   <g id="patch_4">
    <path d="M 18 128.16 
L 129.6 128.16 
" style="fill:none;stroke:#262626;stroke-linecap:square;stroke-linejoin:miter;stroke-width:0.8;"/>
   </g>
   <g id="PathCollection_1">
    <defs>
     <path d="M 0 0.75 
C 0.198902 0.75 0.389685 0.670975 0.53033 0.53033 
C 0.670975 0.389685 0.75 0.198902 0.75 0 
C 0.75 -0.198902 0.670975 -0.389685 0.53033 -0.53033 
C 0.389685 -0.670975 0.198902 -0.75 0 -0.75 
C -0.198902 -0.75 -0.389685 -0.670975 -0.53033 -0.53033 
C -0.670975 -0.389685 -0.75 -0.198902 -0.75 0 
C -0.75 0.198902 -0.670975 0.389685 -0.53033 0.53033 
C -0.389685 0.670975 -0.198902 0.75 0 0.75 
z
" id="m74974ab492" style="stroke:#262626;"/>
    </defs>
    <g clip-path="url(#pca01a71a74)">
     <use style="fill:#ffffff;stroke:#262626;" x="45.9" xlink:href="#m74974ab492" y="104.196748"/>
    </g>
   </g>
   <g id="PathCollection_2">
    <g clip-path="url(#pca01a71a74)">
     <use style="fill:#ffffff;stroke:#262626;" x="101.7" xlink:href="#m74974ab492" y="104.196748"/>
    </g>
   </g>
   <g id="text_7">
    <!-- Random -->
    <g style="fill:#262626;" transform="translate(28.445625 11.28)scale(0.24 -0.24)">
     <defs>
      <path d="M 503 0 
L 503 4581 
L 2534 4581 
Q 3147 4581 3465 4457 
Q 3784 4334 3975 4021 
Q 4166 3709 4166 3331 
Q 4166 2844 3850 2509 
Q 3534 2175 2875 2084 
Q 3116 1969 3241 1856 
Q 3506 1613 3744 1247 
L 4541 0 
L 3778 0 
L 3172 953 
Q 2906 1366 2734 1584 
Q 2563 1803 2427 1890 
Q 2291 1978 2150 2013 
Q 2047 2034 1813 2034 
L 1109 2034 
L 1109 0 
L 503 0 
z
M 1109 2559 
L 2413 2559 
Q 2828 2559 3062 2645 
Q 3297 2731 3419 2920 
Q 3541 3109 3541 3331 
Q 3541 3656 3305 3865 
Q 3069 4075 2559 4075 
L 1109 4075 
L 1109 2559 
z
" id="ArialMT-52" transform="scale(0.015625)"/>
      <path d="M 422 0 
L 422 3319 
L 925 3319 
L 925 2853 
Q 1081 3097 1340 3245 
Q 1600 3394 1931 3394 
Q 2300 3394 2536 3241 
Q 2772 3088 2869 2813 
Q 3263 3394 3894 3394 
Q 4388 3394 4653 3120 
Q 4919 2847 4919 2278 
L 4919 0 
L 4359 0 
L 4359 2091 
Q 4359 2428 4304 2576 
Q 4250 2725 4106 2815 
Q 3963 2906 3769 2906 
Q 3419 2906 3187 2673 
Q 2956 2441 2956 1928 
L 2956 0 
L 2394 0 
L 2394 2156 
Q 2394 2531 2256 2718 
Q 2119 2906 1806 2906 
Q 1569 2906 1367 2781 
Q 1166 2656 1075 2415 
Q 984 2175 984 1722 
L 984 0 
L 422 0 
z
" id="ArialMT-6d" transform="scale(0.015625)"/>
     </defs>
     <use xlink:href="#ArialMT-52"/>
     <use x="72.216797" xlink:href="#ArialMT-61"/>
     <use x="127.832031" xlink:href="#ArialMT-6e"/>
     <use x="183.447266" xlink:href="#ArialMT-64"/>
     <use x="239.0625" xlink:href="#ArialMT-6f"/>
     <use x="294.677734" xlink:href="#ArialMT-6d"/>
    </g>
   </g>
  </g>
 </g>
 <defs>
  <clipPath id="pca01a71a74">
   <rect height="110.88" width="111.6" x="18" y="17.28"/>
  </clipPath>
 </defs>
</svg>
