<?xml version="1.0" encoding="utf-8" standalone="no"?>
<!DOCTYPE svg PUBLIC "-//W3C//DTD SVG 1.1//EN"
  "http://www.w3.org/Graphics/SVG/1.1/DTD/svg11.dtd">
<svg height="216pt" version="1.1" viewBox="0 0 360 216" width="360pt" xmlns="http://www.w3.org/2000/svg" xmlns:xlink="http://www.w3.org/1999/xlink">
 <metadata>
  <rdf:RDF xmlns:cc="http://creativecommons.org/ns#" xmlns:dc="http://purl.org/dc/elements/1.1/" xmlns:rdf="http://www.w3.org/1999/02/22-rdf-syntax-ns#">
   <cc:Work>
    <dc:type rdf:resource="http://purl.org/dc/dcmitype/StillImage"/>
    <dc:date>2021-12-22T07:22:38.355045</dc:date>
    <dc:format>image/svg+xml</dc:format>
    <dc:creator>
     <cc:Agent>
      <dc:title>Matplotlib v3.4.2, https://matplotlib.org/</dc:title>
     </cc:Agent>
    </dc:creator>
   </cc:Work>
  </rdf:RDF>
 </metadata>
 <defs>
  <style type="text/css">*{stroke-linecap:butt;stroke-linejoin:round;}</style>
 </defs>
 <g id="figure_1">
  <g id="patch_1">
   <path d="M 0 216 
L 360 216 
L 360 0 
L 0 0 
z
" style="fill:#ffffff;"/>
  </g>
  <g id="axes_1">
   <g id="patch_2">
    <path d="M 94.94 141.64 
L 338.4 141.64 
L 338.4 28.8 
L 94.94 28.8 
z
" style="fill:#ffffff;"/>
   </g>
   <g id="line2d_1">
    <path clip-path="url(#p069cf1c818)" d="M 94.94 77.873534 
L 338.4 77.873534 
" style="fill:none;stroke:#000000;stroke-linecap:round;stroke-width:0.5;"/>
   </g>
   <g id="patch_3">
    <path clip-path="url(#p069cf1c818)" d="M 106.533333 73.115191 
L 106.533333 73.682129 
L 101.718599 73.682129 
L 101.718599 77.873534 
L 99.754735 77.873534 
L 99.754735 73.682129 
L 94.94 73.682129 
L 94.94 73.115191 
L 106.533333 73.115191 
z
" style="fill:#ff0000;"/>
   </g>
   <g id="patch_4">
    <path clip-path="url(#p069cf1c818)" d="M 102.72171 63.002559 
L 100.7494 52.099626 
L 98.652583 63.002559 
L 102.72171 63.002559 
z
M 99.829744 48.433058 
L 101.819032 48.433058 
L 106.533333 73.115191 
L 104.603469 73.115191 
L 103.287653 65.722916 
L 98.148894 65.722916 
L 96.742527 73.115191 
L 94.94 73.115191 
L 99.829744 48.433058 
z
M 100.740911 48.433058 
L 100.740911 48.433058 
z
" style="fill:#008000;"/>
   </g>
   <g id="patch_5">
    <path clip-path="url(#p069cf1c818)" d="M 113.239119 75.454394 
Q 115.721778 75.454394 117.091227 75.68455 
Q 118.460675 75.914205 118.61157 76.206404 
L 116.886236 76.206404 
Q 116.592987 75.984753 115.716084 75.855165 
Q 114.839182 75.725077 113.256202 75.725077 
Q 111.325878 75.725077 110.138643 75.963739 
Q 108.951408 76.201901 108.951408 76.694234 
Q 108.951408 77.098008 110.021913 77.349178 
Q 111.095264 77.599848 113.222037 77.599848 
Q 115.177985 77.599848 116.202936 77.335669 
Q 116.743882 77.196575 117.011508 76.969421 
L 118.736842 76.969421 
Q 118.506228 77.332167 117.207957 77.577833 
Q 115.650601 77.873534 113.008505 77.873534 
Q 110.730837 77.873534 109.182022 77.630869 
Q 107.143509 77.310652 107.143509 76.641198 
Q 107.143509 76.133354 108.675241 75.808134 
Q 110.329398 75.454394 113.239119 75.454394 
z
M 112.883234 75.454394 
L 112.883234 75.454394 
z
" style="fill:#0000ff;"/>
   </g>
   <g id="patch_6">
    <path clip-path="url(#p069cf1c818)" d="M 118.736842 62.043124 
L 118.736842 63.641025 
L 113.922107 63.641025 
L 113.922107 75.454394 
L 111.958243 75.454394 
L 111.958243 63.641025 
L 107.143509 63.641025 
L 107.143509 62.043124 
L 118.736842 62.043124 
z
" style="fill:#ff0000;"/>
   </g>
   <g id="patch_7">
    <path clip-path="url(#p069cf1c818)" d="M 127.128728 68.481276 
L 125.156418 58.355015 
L 123.059601 68.481276 
L 127.128728 68.481276 
z
M 124.236761 54.949635 
L 126.226049 54.949635 
L 130.940351 77.873534 
L 129.010487 77.873534 
L 127.69467 71.007849 
L 122.555912 71.007849 
L 121.149545 77.873534 
L 119.347018 77.873534 
L 124.236761 54.949635 
z
M 125.147929 54.949635 
L 125.147929 54.949635 
z
" style="fill:#008000;"/>
   </g>
   <g id="patch_8">
    <path clip-path="url(#p069cf1c818)" d="M 143.14386 66.528383 
L 143.14386 67.880114 
L 138.329125 67.880114 
L 138.329125 77.873534 
L 136.365261 77.873534 
L 136.365261 67.880114 
L 131.550526 67.880114 
L 131.550526 66.528383 
L 143.14386 66.528383 
z
" style="fill:#ff0000;"/>
   </g>
   <g id="patch_9">
    <path clip-path="url(#p069cf1c818)" d="M 139.332237 54.356125 
L 137.359927 41.232607 
L 135.26311 54.356125 
L 139.332237 54.356125 
z
M 136.44027 36.819274 
L 138.429558 36.819274 
L 143.14386 66.528383 
L 141.213996 66.528383 
L 139.898179 57.630534 
L 134.759421 57.630534 
L 133.353053 66.528383 
L 131.550526 66.528383 
L 136.44027 36.819274 
z
M 137.351438 36.819274 
L 137.351438 36.819274 
z
" style="fill:#008000;"/>
   </g>
   <g id="patch_10">
    <path clip-path="url(#p069cf1c818)" d="M 149.849646 75.454394 
Q 152.332305 75.454394 153.701753 75.68455 
Q 155.071201 75.914205 155.222097 76.206404 
L 153.496763 76.206404 
Q 153.203513 75.984753 152.32661 75.855165 
Q 151.449708 75.725077 149.866728 75.725077 
Q 147.936404 75.725077 146.749169 75.963739 
Q 145.561935 76.201901 145.561935 76.694234 
Q 145.561935 77.098008 146.632439 77.349178 
Q 147.70579 77.599848 149.832563 77.599848 
Q 151.788511 77.599848 152.813462 77.335669 
Q 153.354408 77.196575 153.622034 76.969421 
L 155.347368 76.969421 
Q 155.116754 77.332167 153.818483 77.577833 
Q 152.261127 77.873534 149.619032 77.873534 
Q 147.341363 77.873534 145.792549 77.630869 
Q 143.754035 77.310652 143.754035 76.641198 
Q 143.754035 76.133354 145.285767 75.808134 
Q 146.939924 75.454394 149.849646 75.454394 
z
M 149.49376 75.454394 
L 149.49376 75.454394 
z
" style="fill:#0000ff;"/>
   </g>
   <g id="patch_11">
    <path clip-path="url(#p069cf1c818)" d="M 151.535745 61.359107 
L 149.563435 46.162276 
L 147.466618 61.359107 
L 151.535745 61.359107 
z
M 148.643779 41.051704 
L 150.633067 41.051704 
L 155.347368 75.454394 
L 153.417504 75.454394 
L 152.101688 65.150822 
L 146.962929 65.150822 
L 145.556562 75.454394 
L 143.754035 75.454394 
L 148.643779 41.051704 
z
M 149.554946 41.051704 
L 149.554946 41.051704 
z
" style="fill:#008000;"/>
   </g>
   <g id="patch_12">
    <path clip-path="url(#p069cf1c818)" d="M 162.053155 75.454394 
Q 164.535813 75.454394 165.905262 75.68455 
Q 167.27471 75.914205 167.425605 76.206404 
L 165.700271 76.206404 
Q 165.407022 75.984753 164.530119 75.855165 
Q 163.653217 75.725077 162.070237 75.725077 
Q 160.139913 75.725077 158.952678 75.963739 
Q 157.765443 76.201901 157.765443 76.694234 
Q 157.765443 77.098008 158.835948 77.349178 
Q 159.909299 77.599848 162.036072 77.599848 
Q 163.99202 77.599848 165.016971 77.335669 
Q 165.557917 77.196575 165.825543 76.969421 
L 167.550877 76.969421 
Q 167.320263 77.332167 166.021992 77.577833 
Q 164.464636 77.873534 161.822541 77.873534 
Q 159.544872 77.873534 157.996057 77.630869 
Q 155.957544 77.310652 155.957544 76.641198 
Q 155.957544 76.133354 157.489276 75.808134 
Q 159.143433 75.454394 162.053155 75.454394 
z
M 161.697269 75.454394 
L 161.697269 75.454394 
z
" style="fill:#0000ff;"/>
   </g>
   <g id="patch_13">
    <path clip-path="url(#p069cf1c818)" d="M 167.550877 73.035254 
L 167.550877 73.323485 
L 162.736143 73.323485 
L 162.736143 75.454394 
L 160.772279 75.454394 
L 160.772279 73.323485 
L 155.957544 73.323485 
L 155.957544 73.035254 
L 167.550877 73.035254 
z
" style="fill:#ff0000;"/>
   </g>
   <g id="patch_14">
    <path clip-path="url(#p069cf1c818)" d="M 163.739254 65.918114 
L 161.766944 58.244769 
L 159.670127 65.918114 
L 163.739254 65.918114 
z
M 160.847288 55.664286 
L 162.836576 55.664286 
L 167.550877 73.035254 
L 165.621013 73.035254 
L 164.305197 67.832666 
L 159.166438 67.832666 
L 157.760071 73.035254 
L 155.957544 73.035254 
L 160.847288 55.664286 
z
M 161.758455 55.664286 
L 161.758455 55.664286 
z
" style="fill:#008000;"/>
   </g>
   <g id="patch_15">
    <path clip-path="url(#p069cf1c818)" d="M 179.754386 66.528383 
L 179.754386 67.880114 
L 174.939651 67.880114 
L 174.939651 77.873534 
L 172.975787 77.873534 
L 172.975787 67.880114 
L 168.161053 67.880114 
L 168.161053 66.528383 
L 179.754386 66.528383 
z
" style="fill:#ff0000;"/>
   </g>
   <g id="patch_16">
    <path clip-path="url(#p069cf1c818)" d="M 175.942763 61.033589 
L 173.970453 55.109377 
L 171.873636 61.033589 
L 175.942763 61.033589 
z
M 173.050796 53.117113 
L 175.040084 53.117113 
L 179.754386 66.528383 
L 177.824522 66.528383 
L 176.508705 62.511721 
L 171.369947 62.511721 
L 169.96358 66.528383 
L 168.161053 66.528383 
L 173.050796 53.117113 
z
M 173.961964 53.117113 
L 173.961964 53.117113 
z
" style="fill:#008000;"/>
   </g>
   <g id="patch_17">
    <path clip-path="url(#p069cf1c818)" d="M 188.146272 68.481276 
L 186.173962 58.355015 
L 184.077145 68.481276 
L 188.146272 68.481276 
z
M 185.254305 54.949635 
L 187.243593 54.949635 
L 191.957895 77.873534 
L 190.028031 77.873534 
L 188.712214 71.007849 
L 183.573456 71.007849 
L 182.167088 77.873534 
L 180.364561 77.873534 
L 185.254305 54.949635 
z
M 186.165473 54.949635 
L 186.165473 54.949635 
z
" style="fill:#008000;"/>
   </g>
   <g id="patch_18">
    <path clip-path="url(#p069cf1c818)" d="M 200.34978 75.923971 
L 198.377471 73.82205 
L 196.280653 75.923971 
L 200.34978 75.923971 
z
M 197.457814 73.115191 
L 199.447102 73.115191 
L 204.161404 77.873534 
L 202.231539 77.873534 
L 200.915723 76.448415 
L 195.776964 76.448415 
L 194.370597 77.873534 
L 192.56807 77.873534 
L 197.457814 73.115191 
z
M 198.368981 73.115191 
L 198.368981 73.115191 
z
" style="fill:#008000;"/>
   </g>
   <g id="patch_19">
    <path clip-path="url(#p069cf1c818)" d="M 204.161404 63.898272 
L 204.161404 64.996433 
L 199.346669 64.996433 
L 199.346669 73.115191 
L 197.382805 73.115191 
L 197.382805 64.996433 
L 192.56807 64.996433 
L 192.56807 63.898272 
L 204.161404 63.898272 
z
" style="fill:#ff0000;"/>
   </g>
   <g id="patch_20">
    <path clip-path="url(#p069cf1c818)" d="M 216.364912 64.462264 
L 216.364912 66.060165 
L 211.550178 66.060165 
L 211.550178 77.873534 
L 209.586314 77.873534 
L 209.586314 66.060165 
L 204.771579 66.060165 
L 204.771579 64.462264 
L 216.364912 64.462264 
z
" style="fill:#ff0000;"/>
   </g>
   <g id="patch_21">
    <path clip-path="url(#p069cf1c818)" d="M 212.553289 55.070007 
L 210.580979 44.943745 
L 208.484162 55.070007 
L 212.553289 55.070007 
z
M 209.661323 41.538366 
L 211.650611 41.538366 
L 216.364912 64.462264 
L 214.435048 64.462264 
L 213.119232 57.596579 
L 207.980473 57.596579 
L 206.574106 64.462264 
L 204.771579 64.462264 
L 209.661323 41.538366 
z
M 210.57249 41.538366 
L 210.57249 41.538366 
z
" style="fill:#008000;"/>
   </g>
   <g id="patch_22">
    <path clip-path="url(#p069cf1c818)" d="M 228.568421 70.850811 
L 228.568421 71.687541 
L 223.753686 71.687541 
L 223.753686 77.873534 
L 221.789822 77.873534 
L 221.789822 71.687541 
L 216.975088 71.687541 
L 216.975088 70.850811 
L 228.568421 70.850811 
z
" style="fill:#ff0000;"/>
   </g>
   <g id="patch_23">
    <path clip-path="url(#p069cf1c818)" d="M 224.756798 63.733671 
L 222.784488 56.060326 
L 220.687671 63.733671 
L 224.756798 63.733671 
z
M 221.864831 53.479843 
L 223.85412 53.479843 
L 228.568421 70.850811 
L 226.638557 70.850811 
L 225.32274 65.648223 
L 220.183982 65.648223 
L 218.777615 70.850811 
L 216.975088 70.850811 
L 221.864831 53.479843 
z
M 222.775999 53.479843 
L 222.775999 53.479843 
z
" style="fill:#008000;"/>
   </g>
   <g id="patch_24">
    <path clip-path="url(#p069cf1c818)" d="M 236.960307 71.556226 
L 234.987997 64.745221 
L 232.89118 71.556226 
L 236.960307 71.556226 
z
M 234.06834 62.454735 
L 236.057628 62.454735 
L 240.77193 77.873534 
L 238.842066 77.873534 
L 237.526249 73.255619 
L 232.387491 73.255619 
L 230.981124 77.873534 
L 229.178596 77.873534 
L 234.06834 62.454735 
z
M 234.979508 62.454735 
L 234.979508 62.454735 
z
" style="fill:#008000;"/>
   </g>
   <g id="patch_25">
    <path clip-path="url(#p069cf1c818)" d="M 247.477716 68.656615 
Q 249.960375 68.656615 251.329823 69.533509 
Q 252.699271 70.408497 252.850167 71.521771 
L 251.124833 71.521771 
Q 250.831583 70.677284 249.954681 70.183554 
Q 249.077778 69.687919 247.494798 69.687919 
Q 245.564474 69.687919 244.37724 70.597219 
Q 243.190005 71.504614 243.190005 73.380405 
Q 243.190005 74.918782 244.260509 75.87574 
Q 245.33386 76.830792 247.460633 76.830792 
Q 249.416581 76.830792 250.441532 75.82427 
Q 250.982479 75.294321 251.250105 74.428865 
L 252.975439 74.428865 
Q 252.744825 75.810926 251.446554 76.746915 
Q 249.889198 77.873534 247.247102 77.873534 
Q 244.969433 77.873534 243.420619 76.948982 
Q 241.382105 75.728956 241.382105 73.178338 
Q 241.382105 71.243452 242.913837 70.004363 
Q 244.567994 68.656615 247.477716 68.656615 
z
M 247.12183 68.656615 
L 247.12183 68.656615 
z
" style="fill:#0000ff;"/>
   </g>
   <g id="patch_26">
    <path clip-path="url(#p069cf1c818)" d="M 249.163815 64.00834 
L 247.191506 58.996803 
L 245.094688 64.00834 
L 249.163815 64.00834 
z
M 246.271849 57.311464 
L 248.261137 57.311464 
L 252.975439 68.656615 
L 251.045574 68.656615 
L 249.729758 65.258753 
L 244.591 65.258753 
L 243.184632 68.656615 
L 241.382105 68.656615 
L 246.271849 57.311464 
z
M 247.183016 57.311464 
L 247.183016 57.311464 
z
" style="fill:#008000;"/>
   </g>
   <g id="patch_27">
    <path clip-path="url(#p069cf1c818)" d="M 261.367324 74.996221 
L 259.395014 71.894047 
L 257.298197 74.996221 
L 261.367324 74.996221 
z
M 258.475358 70.850811 
L 260.464646 70.850811 
L 265.178947 77.873534 
L 263.249083 77.873534 
L 261.933267 75.770235 
L 256.794508 75.770235 
L 255.388141 77.873534 
L 253.585614 77.873534 
L 258.475358 70.850811 
z
M 259.386525 70.850811 
L 259.386525 70.850811 
z
" style="fill:#008000;"/>
   </g>
   <g id="patch_28">
    <path clip-path="url(#p069cf1c818)" d="M 265.178947 57.439541 
L 265.178947 59.037442 
L 260.364213 59.037442 
L 260.364213 70.850811 
L 258.400349 70.850811 
L 258.400349 59.037442 
L 253.585614 59.037442 
L 253.585614 57.439541 
L 265.178947 57.439541 
z
" style="fill:#ff0000;"/>
   </g>
   <g id="patch_29">
    <path clip-path="url(#p069cf1c818)" d="M 277.382456 58.602783 
L 277.382456 60.898819 
L 272.567721 60.898819 
L 272.567721 77.873534 
L 270.603857 77.873534 
L 270.603857 60.898819 
L 265.789123 60.898819 
L 265.789123 58.602783 
L 277.382456 58.602783 
z
" style="fill:#ff0000;"/>
   </g>
   <g id="patch_30">
    <path clip-path="url(#p069cf1c818)" d="M 273.570833 49.949247 
L 271.598523 40.619438 
L 269.501706 49.949247 
L 273.570833 49.949247 
z
M 270.678867 37.481898 
L 272.668155 37.481898 
L 277.382456 58.602783 
L 275.452592 58.602783 
L 274.136776 52.277099 
L 268.998017 52.277099 
L 267.59165 58.602783 
L 265.789123 58.602783 
L 270.678867 37.481898 
z
M 271.590034 37.481898 
L 271.590034 37.481898 
z
" style="fill:#008000;"/>
   </g>
   <g id="patch_31">
    <path clip-path="url(#p069cf1c818)" d="M 285.774342 65.701276 
L 283.802032 52.577758 
L 281.705215 65.701276 
L 285.774342 65.701276 
z
M 282.882375 48.164425 
L 284.871663 48.164425 
L 289.585965 77.873534 
L 287.656101 77.873534 
L 286.340284 68.975685 
L 281.201526 68.975685 
L 279.795159 77.873534 
L 277.992632 77.873534 
L 282.882375 48.164425 
z
M 283.793543 48.164425 
L 283.793543 48.164425 
z
" style="fill:#008000;"/>
   </g>
   <g id="patch_32">
    <path clip-path="url(#p069cf1c818)" d="M 296.291751 75.454394 
Q 298.77441 75.454394 300.143858 75.68455 
Q 301.513306 75.914205 301.664202 76.206404 
L 299.938868 76.206404 
Q 299.645618 75.984753 298.768716 75.855165 
Q 297.891813 75.725077 296.308834 75.725077 
Q 294.378509 75.725077 293.191275 75.963739 
Q 292.00404 76.201901 292.00404 76.694234 
Q 292.00404 77.098008 293.074544 77.349178 
Q 294.147895 77.599848 296.274669 77.599848 
Q 298.230616 77.599848 299.255567 77.335669 
Q 299.796514 77.196575 300.06414 76.969421 
L 301.789474 76.969421 
Q 301.55886 77.332167 300.260589 77.577833 
Q 298.703233 77.873534 296.061137 77.873534 
Q 293.783468 77.873534 292.234654 77.630869 
Q 290.19614 77.310652 290.19614 76.641198 
Q 290.19614 76.133354 291.727873 75.808134 
Q 293.382029 75.454394 296.291751 75.454394 
z
M 295.935865 75.454394 
L 295.935865 75.454394 
z
" style="fill:#0000ff;"/>
   </g>
   <g id="patch_33">
    <path clip-path="url(#p069cf1c818)" d="M 297.977851 64.638845 
L 296.005541 52.978062 
L 293.908724 64.638845 
L 297.977851 64.638845 
z
M 295.085884 49.056635 
L 297.075172 49.056635 
L 301.789474 75.454394 
L 299.85961 75.454394 
L 298.543793 67.548291 
L 293.405035 67.548291 
L 291.998667 75.454394 
L 290.19614 75.454394 
L 295.085884 49.056635 
z
M 295.997052 49.056635 
L 295.997052 49.056635 
z
" style="fill:#008000;"/>
   </g>
   <g id="patch_34">
    <path clip-path="url(#p069cf1c818)" d="M 313.992982 70.850811 
L 313.992982 71.687541 
L 309.178248 71.687541 
L 309.178248 77.873534 
L 307.214384 77.873534 
L 307.214384 71.687541 
L 302.399649 71.687541 
L 302.399649 70.850811 
L 313.992982 70.850811 
z
" style="fill:#ff0000;"/>
   </g>
   <g id="patch_35">
    <path clip-path="url(#p069cf1c818)" d="M 310.181359 62.197275 
L 308.209049 52.867466 
L 306.112232 62.197275 
L 310.181359 62.197275 
z
M 307.289393 49.729926 
L 309.278681 49.729926 
L 313.992982 70.850811 
L 312.063118 70.850811 
L 310.747302 64.525127 
L 305.608543 64.525127 
L 304.202176 70.850811 
L 302.399649 70.850811 
L 307.289393 49.729926 
z
M 308.20056 49.729926 
L 308.20056 49.729926 
z
" style="fill:#008000;"/>
   </g>
   <g id="patch_36">
    <path clip-path="url(#p069cf1c818)" d="M 326.196491 75.454394 
L 326.196491 75.742625 
L 321.381757 75.742625 
L 321.381757 77.873534 
L 319.417893 77.873534 
L 319.417893 75.742625 
L 314.603158 75.742625 
L 314.603158 75.454394 
L 326.196491 75.454394 
z
" style="fill:#ff0000;"/>
   </g>
   <g id="patch_37">
    <path clip-path="url(#p069cf1c818)" d="M 322.384868 68.337253 
L 320.412558 60.663909 
L 318.315741 68.337253 
L 322.384868 68.337253 
z
M 319.492902 58.083425 
L 321.48219 58.083425 
L 326.196491 75.454394 
L 324.266627 75.454394 
L 322.950811 70.251806 
L 317.812052 70.251806 
L 316.405685 75.454394 
L 314.603158 75.454394 
L 319.492902 58.083425 
z
M 320.404069 58.083425 
L 320.404069 58.083425 
z
" style="fill:#008000;"/>
   </g>
   <g id="patch_38">
    <path clip-path="url(#p069cf1c818)" d="M 338.4 73.115191 
L 338.4 73.682129 
L 333.585265 73.682129 
L 333.585265 77.873534 
L 331.621401 77.873534 
L 331.621401 73.682129 
L 326.806667 73.682129 
L 326.806667 73.115191 
L 338.4 73.115191 
z
" style="fill:#ff0000;"/>
   </g>
   <g id="patch_39">
    <path clip-path="url(#p069cf1c818)" d="M 334.588377 63.722934 
L 332.616067 53.596673 
L 330.51925 63.722934 
L 334.588377 63.722934 
z
M 331.69641 50.191293 
L 333.685698 50.191293 
L 338.4 73.115191 
L 336.470136 73.115191 
L 335.154319 66.249506 
L 330.015561 66.249506 
L 328.609194 73.115191 
L 326.806667 73.115191 
L 331.69641 50.191293 
z
M 332.607578 50.191293 
L 332.607578 50.191293 
z
" style="fill:#008000;"/>
   </g>
   <g id="patch_40">
    <path clip-path="url(#p069cf1c818)" d="M 101.035611 91.390212 
Q 103.518269 91.390212 104.887718 90.10424 
Q 106.257166 88.821065 106.408062 87.18844 
L 104.682728 87.18844 
Q 104.389478 88.426886 103.512575 89.150944 
Q 102.635673 89.877798 101.052693 89.877798 
Q 99.122369 89.877798 97.935134 88.544301 
Q 96.747899 87.2136 96.747899 84.46274 
Q 96.747899 82.206698 97.818404 80.803312 
Q 98.891755 79.402721 101.018528 79.402721 
Q 102.974476 79.402721 103.999427 80.878793 
Q 104.540373 81.655967 104.807999 82.925165 
L 106.533333 82.925165 
Q 106.302719 80.898362 105.004448 79.525727 
Q 103.447092 77.873534 100.804997 77.873534 
Q 98.527328 77.873534 96.978513 79.229395 
Q 94.94 81.018573 94.94 84.759072 
Q 94.94 87.596596 96.471732 89.41373 
Q 98.125889 91.390212 101.035611 91.390212 
z
M 100.679725 91.390212 
L 100.679725 91.390212 
z
" style="fill:none;opacity:0;"/>
   </g>
   <g id="patch_41">
    <path clip-path="url(#p069cf1c818)" d="M 100.919108 117.914422 
Q 102.707589 117.914422 104.012322 116.541818 
Q 105.903081 114.570757 106.326013 109.629381 
L 104.62599 109.629381 
Q 104.313627 112.391061 103.337841 113.653858 
Q 102.362055 114.916654 100.87488 114.916654 
Q 99.114042 114.916654 97.908822 112.286743 
Q 96.703602 109.662324 96.703602 104.462898 
Q 96.703602 99.971736 97.695974 97.149661 
Q 98.69111 94.327586 100.935694 94.327586 
Q 102.655068 94.327586 103.782888 96.304136 
Q 104.910709 98.286177 104.935587 102.716945 
L 100.963337 102.716945 
L 100.963337 105.54451 
L 106.533333 105.54451 
L 106.533333 92.060043 
L 105.427627 92.060043 
L 105.012987 95.30488 
Q 104.142243 93.399705 103.467762 92.658498 
Q 102.334413 91.390212 100.590161 91.390212 
Q 98.337283 91.390212 96.711895 94.289153 
Q 94.94 97.9293 94.94 104.276223 
Q 94.94 110.606676 96.667667 114.34565 
Q 98.309641 117.914422 100.919108 117.914422 
z
M 100.634389 117.952855 
L 100.634389 117.952855 
z
" style="fill:none;opacity:0;"/>
   </g>
   <g id="patch_42">
    <path clip-path="url(#p069cf1c818)" d="M 113.122617 97.58456 
Q 114.911097 97.58456 116.215831 96.564532 
Q 118.106589 95.099772 118.529522 91.42767 
L 116.829498 91.42767 
Q 116.517136 93.479967 115.54135 94.418393 
Q 114.565564 95.356819 113.078389 95.356819 
Q 111.317551 95.356819 110.112331 93.402444 
Q 108.907111 91.45215 108.907111 87.588283 
Q 108.907111 84.250751 109.899482 82.153572 
Q 110.894618 80.056394 113.139203 80.056394 
Q 114.858576 80.056394 115.986397 81.525235 
Q 117.114218 82.998156 117.139096 86.290807 
L 113.166845 86.290807 
L 113.166845 88.392065 
L 118.736842 88.392065 
L 118.736842 78.371307 
L 117.631136 78.371307 
L 117.216496 80.782654 
Q 116.345752 79.366855 115.671271 78.81604 
Q 114.537921 77.873534 112.793669 77.873534 
Q 110.540792 77.873534 108.915404 80.027833 
Q 107.143509 82.732948 107.143509 87.449559 
Q 107.143509 92.15393 108.871175 94.932487 
Q 110.51315 97.58456 113.122617 97.58456 
z
M 112.837898 97.613121 
L 112.837898 97.613121 
z
" style="fill:none;opacity:0;"/>
   </g>
   <g id="patch_43">
    <path clip-path="url(#p069cf1c818)" d="M 125.442628 93.467177 
Q 127.925287 93.467177 129.294735 92.725391 
Q 130.664184 91.985217 130.815079 91.04347 
L 129.089745 91.04347 
Q 128.796495 91.757843 127.919593 92.175501 
Q 127.04269 92.594772 125.459711 92.594772 
Q 123.529387 92.594772 122.342152 91.825571 
Q 121.154917 91.057984 121.154917 89.471205 
Q 121.154917 88.169854 122.225421 87.360339 
Q 123.298773 86.552437 125.425546 86.552437 
Q 127.381494 86.552437 128.406445 87.403878 
Q 128.947391 87.852176 129.215017 88.584287 
L 130.940351 88.584287 
Q 130.709737 87.415167 129.411466 86.62339 
Q 127.85411 85.670356 125.212014 85.670356 
Q 122.934346 85.670356 121.385531 86.452457 
Q 119.347018 87.484507 119.347018 89.642139 
Q 119.347018 91.278907 120.87875 92.327084 
Q 122.532907 93.467177 125.442628 93.467177 
z
M 125.086742 93.467177 
L 125.086742 93.467177 
z
" style="fill:none;opacity:0;"/>
   </g>
   <g id="patch_44">
    <path clip-path="url(#p069cf1c818)" d="M 125.326126 106.964299 
Q 127.114606 106.964299 128.41934 106.265835 
Q 130.310098 105.26284 130.733031 102.748369 
L 129.033007 102.748369 
Q 128.720645 104.153679 127.744859 104.796266 
Q 126.769073 105.438853 125.281898 105.438853 
Q 123.52106 105.438853 122.31584 104.100596 
Q 121.11062 102.765132 121.11062 100.11935 
Q 121.11062 97.833975 122.102991 96.397933 
Q 123.098127 94.961891 125.342711 94.961891 
Q 127.062085 94.961891 128.189906 95.967679 
Q 129.317726 96.976261 129.342605 99.230904 
L 125.370354 99.230904 
L 125.370354 100.66974 
L 130.940351 100.66974 
L 130.940351 93.808028 
L 129.834644 93.808028 
L 129.420004 95.459197 
Q 128.54926 94.489729 127.874779 94.112558 
Q 126.74143 93.467177 124.997178 93.467177 
Q 122.744301 93.467177 121.118912 94.942334 
Q 119.347018 96.794661 119.347018 100.024359 
Q 119.347018 103.245676 121.074684 105.148292 
Q 122.716658 106.964299 125.326126 106.964299 
z
M 125.041406 106.983856 
L 125.041406 106.983856 
z
" style="fill:none;opacity:0;"/>
   </g>
   <g id="patch_45">
    <path clip-path="url(#p069cf1c818)" d="M 130.940351 85.670356 
L 130.940351 84.741394 
L 126.125616 84.741394 
L 126.125616 77.873534 
L 124.161752 77.873534 
L 124.161752 84.741394 
L 119.347018 84.741394 
L 119.347018 85.670356 
L 130.940351 85.670356 
z
" style="fill:none;opacity:0;"/>
   </g>
   <g id="patch_46">
    <path clip-path="url(#p069cf1c818)" d="M 137.646137 94.433317 
Q 140.128796 94.433317 141.498244 92.857826 
Q 142.867692 91.285759 143.018588 89.285571 
L 141.293254 89.285571 
Q 141.000004 90.802837 140.123102 91.689907 
Q 139.246199 92.580402 137.66322 92.580402 
Q 135.732895 92.580402 134.545661 90.946686 
Q 133.358426 89.316395 133.358426 85.946214 
Q 133.358426 83.182254 134.42893 81.462914 
Q 135.502281 79.746998 137.629054 79.746998 
Q 139.585002 79.746998 140.609953 81.555388 
Q 141.1509 82.507533 141.418526 84.062474 
L 143.14386 84.062474 
Q 142.913246 81.579363 141.614975 79.897697 
Q 140.057619 77.873534 137.415523 77.873534 
Q 135.137854 77.873534 133.58904 79.534649 
Q 131.550526 81.726637 131.550526 86.309262 
Q 131.550526 89.785618 133.082258 92.011855 
Q 134.736415 94.433317 137.646137 94.433317 
z
M 137.290251 94.433317 
L 137.290251 94.433317 
z
" style="fill:none;opacity:0;"/>
   </g>
   <g id="patch_47">
    <path clip-path="url(#p069cf1c818)" d="M 137.529635 141.571698 
Q 139.318115 141.571698 140.622849 139.132328 
Q 142.513607 135.629393 142.93654 126.847662 
L 141.236516 126.847662 
Q 140.924154 131.755674 139.948368 133.999894 
Q 138.972582 136.244114 137.485406 136.244114 
Q 135.724569 136.244114 134.519348 131.570282 
Q 133.314128 126.906207 133.314128 117.665874 
Q 133.314128 109.684257 134.3065 104.668912 
Q 135.301636 99.653568 137.54622 99.653568 
Q 139.265594 99.653568 140.393415 103.166261 
Q 141.521235 106.688711 141.546114 114.562996 
L 137.573863 114.562996 
L 137.573863 119.588098 
L 143.14386 119.588098 
L 143.14386 95.623729 
L 142.038153 95.623729 
L 141.623513 101.3904 
Q 140.752769 98.004554 140.078288 96.687295 
Q 138.944939 94.433317 137.200687 94.433317 
Q 134.94781 94.433317 133.322421 99.585266 
Q 131.550526 106.054474 131.550526 117.33412 
Q 131.550526 128.584493 133.278193 135.229336 
Q 134.920167 141.571698 137.529635 141.571698 
z
M 137.244915 141.64 
L 137.244915 141.64 
z
" style="fill:none;opacity:0;"/>
   </g>
   <g id="patch_48">
    <path clip-path="url(#p069cf1c818)" d="M 149.733143 136.939929 
Q 151.521624 136.939929 152.826357 134.740249 
Q 154.717116 131.581509 155.140048 123.662662 
L 153.440025 123.662662 
Q 153.127662 128.088418 152.151876 130.112123 
Q 151.17609 132.135829 149.688915 132.135829 
Q 147.928077 132.135829 146.722857 127.921242 
Q 145.517637 123.715454 145.517637 115.383067 
Q 145.517637 108.185715 146.510009 103.663173 
Q 147.505145 99.140632 149.749729 99.140632 
Q 151.469103 99.140632 152.596923 102.308171 
Q 153.724744 105.484508 153.749622 112.585075 
L 149.777372 112.585075 
L 149.777372 117.116415 
L 155.347368 117.116415 
L 155.347368 95.506761 
L 154.241662 95.506761 
L 153.827022 100.706804 
Q 152.956278 97.653648 152.281797 96.465821 
Q 151.148448 94.433317 149.404196 94.433317 
Q 147.151319 94.433317 145.52593 99.079041 
Q 143.754035 104.912592 143.754035 115.083911 
Q 143.754035 125.228834 145.481702 131.220762 
Q 147.123676 136.939929 149.733143 136.939929 
z
M 149.448424 137.00152 
L 149.448424 137.00152 
z
" style="fill:none;opacity:0;"/>
   </g>
   <g id="patch_49">
    <path clip-path="url(#p069cf1c818)" d="M 155.347368 94.433317 
L 155.347368 92.460283 
L 150.532634 92.460283 
L 150.532634 77.873534 
L 148.56877 77.873534 
L 148.56877 92.460283 
L 143.754035 92.460283 
L 143.754035 94.433317 
L 155.347368 94.433317 
z
" style="fill:none;opacity:0;"/>
   </g>
   <g id="patch_50">
    <path clip-path="url(#p069cf1c818)" d="M 161.936652 108.067511 
Q 163.725132 108.067511 165.029866 106.505 
Q 166.920624 104.261233 167.343557 98.63619 
L 165.643533 98.63619 
Q 165.331171 101.779964 164.355385 103.217475 
Q 163.379599 104.654986 161.892424 104.654986 
Q 160.131586 104.654986 158.926366 101.661213 
Q 157.721146 98.673691 157.721146 92.754896 
Q 157.721146 87.642357 158.713517 84.429833 
Q 159.708653 81.217309 161.953238 81.217309 
Q 163.672611 81.217309 164.800432 83.467326 
Q 165.928253 85.723593 165.953131 90.767381 
L 161.98088 90.767381 
L 161.98088 93.986155 
L 167.550877 93.986155 
L 167.550877 78.636039 
L 166.445171 78.636039 
L 166.030531 82.329817 
Q 165.159787 80.161051 164.485306 79.317295 
Q 163.351957 77.873534 161.607704 77.873534 
Q 159.354827 77.873534 157.729439 81.173559 
Q 155.957544 85.31734 155.957544 92.542394 
Q 155.957544 99.748699 157.68521 104.004981 
Q 159.327185 108.067511 161.936652 108.067511 
z
M 161.651933 108.111262 
L 161.651933 108.111262 
z
" style="fill:none;opacity:0;"/>
   </g>
   <g id="patch_51">
    <path clip-path="url(#p069cf1c818)" d="M 174.256663 85.670356 
Q 176.739322 85.670356 178.10877 84.928569 
Q 179.478219 84.188395 179.629114 83.246649 
L 177.90378 83.246649 
Q 177.61053 83.961021 176.733628 84.378679 
Q 175.856726 84.79795 174.273746 84.79795 
Q 172.343422 84.79795 171.156187 84.02875 
Q 169.968952 83.261162 169.968952 81.674384 
Q 169.968952 80.373032 171.039456 79.563517 
Q 172.112808 78.755615 174.239581 78.755615 
Q 176.195529 78.755615 177.22048 79.607057 
Q 177.761426 80.055354 178.029052 80.787465 
L 179.754386 80.787465 
Q 179.523772 79.618345 178.225501 78.826568 
Q 176.668145 77.873534 174.026049 77.873534 
Q 171.748381 77.873534 170.199566 78.655635 
Q 168.161053 79.687686 168.161053 81.845317 
Q 168.161053 83.482085 169.692785 84.530262 
Q 171.346942 85.670356 174.256663 85.670356 
z
M 173.900778 85.670356 
L 173.900778 85.670356 
z
" style="fill:none;opacity:0;"/>
   </g>
   <g id="patch_52">
    <path clip-path="url(#p069cf1c818)" d="M 174.140161 108.70593 
Q 175.928641 108.70593 177.233375 107.513859 
Q 179.124133 105.802045 179.547066 101.510591 
L 177.847042 101.510591 
Q 177.53468 103.909037 176.558894 105.005742 
Q 175.583108 106.102447 174.095933 106.102447 
Q 172.335095 106.102447 171.129875 103.81844 
Q 169.924655 101.539201 169.924655 97.023637 
Q 169.924655 93.123181 170.917026 90.672284 
Q 171.912162 88.221387 174.156746 88.221387 
Q 175.87612 88.221387 177.003941 89.937969 
Q 178.131762 91.659319 178.15664 95.507323 
L 174.184389 95.507323 
L 174.184389 97.962989 
L 179.754386 97.962989 
L 179.754386 86.252086 
L 178.648679 86.252086 
L 178.234039 89.070141 
Q 177.363296 87.415547 176.688815 86.771829 
Q 175.555465 85.670356 173.811213 85.670356 
Q 171.558336 85.670356 169.932947 88.188009 
Q 168.161053 91.34938 168.161053 96.861515 
Q 168.161053 102.359345 169.888719 105.606546 
Q 171.530693 108.70593 174.140161 108.70593 
z
M 173.855441 108.739308 
L 173.855441 108.739308 
z
" style="fill:none;opacity:0;"/>
   </g>
   <g id="patch_53">
    <path clip-path="url(#p069cf1c818)" d="M 186.34367 110.572246 
Q 188.13215 110.572246 189.436884 109.009734 
Q 191.327642 106.765967 191.750575 101.140924 
L 190.050551 101.140924 
Q 189.738189 104.284698 188.762403 105.722209 
Q 187.786617 107.15972 186.299441 107.15972 
Q 184.538604 107.15972 183.333384 104.165947 
Q 182.128163 101.178425 182.128163 95.25963 
Q 182.128163 90.147091 183.120535 86.934567 
Q 184.115671 83.722043 186.360255 83.722043 
Q 188.079629 83.722043 189.20745 85.97206 
Q 190.33527 88.228327 190.360149 93.272115 
L 186.387898 93.272115 
L 186.387898 96.490889 
L 191.957895 96.490889 
L 191.957895 81.140773 
L 190.852188 81.140773 
L 190.437548 84.834551 
Q 189.566804 82.665785 188.892323 81.822029 
Q 187.758974 80.378268 186.014722 80.378268 
Q 183.761845 80.378268 182.136456 83.678293 
Q 180.364561 87.822074 180.364561 95.047128 
Q 180.364561 102.253433 182.092228 106.509715 
Q 183.734202 110.572246 186.34367 110.572246 
z
M 186.05895 110.615996 
L 186.05895 110.615996 
z
" style="fill:none;opacity:0;"/>
   </g>
   <g id="patch_54">
    <path clip-path="url(#p069cf1c818)" d="M 191.957895 80.378268 
L 191.957895 80.079838 
L 187.14316 80.079838 
L 187.14316 77.873534 
L 185.179296 77.873534 
L 185.179296 80.079838 
L 180.364561 80.079838 
L 180.364561 80.378268 
L 191.957895 80.378268 
z
" style="fill:none;opacity:0;"/>
   </g>
   <g id="patch_55">
    <path clip-path="url(#p069cf1c818)" d="M 198.547178 94.409357 
Q 200.335659 94.409357 201.640393 93.553643 
Q 203.531151 92.324837 203.954084 89.244265 
L 202.25406 89.244265 
Q 201.941698 90.965963 200.965912 91.75322 
Q 199.990125 92.540477 198.50295 92.540477 
Q 196.742112 92.540477 195.536892 90.900928 
Q 194.331672 89.264803 194.331672 86.023357 
Q 194.331672 83.22346 195.324044 81.464111 
Q 196.31918 79.704762 198.563764 79.704762 
Q 200.283138 79.704762 201.410958 80.936991 
Q 202.538779 82.172642 202.563658 84.934888 
L 198.591407 84.934888 
L 198.591407 86.69766 
L 204.161404 86.69766 
L 204.161404 78.291122 
L 203.055697 78.291122 
L 202.641057 80.314031 
Q 201.770313 79.126299 201.095832 78.664214 
Q 199.962483 77.873534 198.218231 77.873534 
Q 195.965354 77.873534 194.339965 79.680802 
Q 192.56807 81.950157 192.56807 85.90698 
Q 192.56807 89.853534 194.295737 92.1845 
Q 195.937711 94.409357 198.547178 94.409357 
z
M 198.262459 94.433317 
L 198.262459 94.433317 
z
" style="fill:none;opacity:0;"/>
   </g>
   <g id="patch_56">
    <path clip-path="url(#p069cf1c818)" d="M 210.86719 127.850849 
Q 213.349848 127.850849 214.719297 124.974044 
Q 216.088745 122.103492 216.239641 118.4512 
L 214.514307 118.4512 
Q 214.221057 121.221689 213.344154 122.841455 
Q 212.467252 124.467476 210.884272 124.467476 
Q 208.953948 124.467476 207.766713 121.484354 
Q 206.579478 118.507485 206.579478 112.353623 
Q 206.579478 107.306705 207.649983 104.167235 
Q 208.723334 101.034018 210.850107 101.034018 
Q 212.806055 101.034018 213.831006 104.336091 
Q 214.371952 106.074682 214.639578 108.913964 
L 216.364912 108.913964 
Q 216.134298 104.379868 214.836027 101.309191 
Q 213.278671 97.613121 210.636576 97.613121 
Q 208.358907 97.613121 206.810092 100.646275 
Q 204.771579 104.648787 204.771579 113.016539 
Q 204.771579 119.364273 206.303311 123.429324 
Q 207.957468 127.850849 210.86719 127.850849 
z
M 210.511304 127.850849 
L 210.511304 127.850849 
z
" style="fill:none;opacity:0;"/>
   </g>
   <g id="patch_57">
    <path clip-path="url(#p069cf1c818)" d="M 210.750687 97.58456 
Q 212.539168 97.58456 213.843901 96.564532 
Q 215.73466 95.099772 216.157592 91.42767 
L 214.457568 91.42767 
Q 214.145206 93.479967 213.16942 94.418393 
Q 212.193634 95.356819 210.706459 95.356819 
Q 208.945621 95.356819 207.740401 93.402444 
Q 206.535181 91.45215 206.535181 87.588283 
Q 206.535181 84.250751 207.527553 82.153572 
Q 208.522688 80.056394 210.767273 80.056394 
Q 212.486647 80.056394 213.614467 81.525235 
Q 214.742288 82.998156 214.767166 86.290807 
L 210.794915 86.290807 
L 210.794915 88.392065 
L 216.364912 88.392065 
L 216.364912 78.371307 
L 215.259206 78.371307 
L 214.844566 80.782654 
Q 213.973822 79.366855 213.299341 78.81604 
Q 212.165992 77.873534 210.421739 77.873534 
Q 208.168862 77.873534 206.543474 80.027833 
Q 204.771579 82.732948 204.771579 87.449559 
Q 204.771579 92.15393 206.499245 94.932487 
Q 208.14122 97.58456 210.750687 97.58456 
z
M 210.465968 97.613121 
L 210.465968 97.613121 
z
" style="fill:none;opacity:0;"/>
   </g>
   <g id="patch_58">
    <path clip-path="url(#p069cf1c818)" d="M 223.070698 82.974876 
Q 225.553357 82.974876 226.922805 82.489536 
Q 228.292254 82.005252 228.443149 81.389081 
L 226.717815 81.389081 
Q 226.424565 81.856484 225.547663 82.129752 
Q 224.670761 82.404074 223.087781 82.404074 
Q 221.157457 82.404074 219.970222 81.900798 
Q 218.782987 81.398577 218.782987 80.360372 
Q 218.782987 79.508917 219.853491 78.979264 
Q 220.926843 78.450666 223.053616 78.450666 
Q 225.009564 78.450666 226.034515 79.007751 
Q 226.575461 79.301065 226.843087 79.780075 
L 228.568421 79.780075 
Q 228.337807 79.015137 227.039536 78.49709 
Q 225.48218 77.873534 222.840084 77.873534 
Q 220.562416 77.873534 219.013601 78.38525 
Q 216.975088 79.060506 216.975088 80.472211 
Q 216.975088 81.543124 218.50682 82.22893 
Q 220.160977 82.974876 223.070698 82.974876 
z
M 222.714813 82.974876 
L 222.714813 82.974876 
z
" style="fill:none;opacity:0;"/>
   </g>
   <g id="patch_59">
    <path clip-path="url(#p069cf1c818)" d="M 222.954196 109.499086 
Q 224.742676 109.499086 226.04741 108.126482 
Q 227.938168 106.155421 228.361101 101.214045 
L 226.661077 101.214045 
Q 226.348715 103.975725 225.372929 105.238522 
Q 224.397143 106.501318 222.909968 106.501318 
Q 221.14913 106.501318 219.94391 103.871407 
Q 218.73869 101.246988 218.73869 96.047562 
Q 218.73869 91.556399 219.731061 88.734325 
Q 220.726197 85.91225 222.970782 85.91225 
Q 224.690155 85.91225 225.817976 87.8888 
Q 226.945797 89.870841 226.970675 94.301609 
L 222.998424 94.301609 
L 222.998424 97.129174 
L 228.568421 97.129174 
L 228.568421 83.644707 
L 227.462714 83.644707 
L 227.048075 86.889544 
Q 226.177331 84.984369 225.50285 84.243162 
Q 224.3695 82.974876 222.625248 82.974876 
Q 220.372371 82.974876 218.746982 85.873817 
Q 216.975088 89.513964 216.975088 95.860887 
Q 216.975088 102.191339 218.702754 105.930314 
Q 220.344728 109.499086 222.954196 109.499086 
z
M 222.669477 109.537519 
L 222.669477 109.537519 
z
" style="fill:none;opacity:0;"/>
   </g>
   <g id="patch_60">
    <path clip-path="url(#p069cf1c818)" d="M 235.157705 97.58456 
Q 236.946185 97.58456 238.250919 96.564532 
Q 240.141677 95.099772 240.56461 91.42767 
L 238.864586 91.42767 
Q 238.552224 93.479967 237.576438 94.418393 
Q 236.600652 95.356819 235.113476 95.356819 
Q 233.352639 95.356819 232.147419 93.402444 
Q 230.942198 91.45215 230.942198 87.588283 
Q 230.942198 84.250751 231.93457 82.153572 
Q 232.929706 80.056394 235.17429 80.056394 
Q 236.893664 80.056394 238.021485 81.525235 
Q 239.149305 82.998156 239.174184 86.290807 
L 235.201933 86.290807 
L 235.201933 88.392065 
L 240.77193 88.392065 
L 240.77193 78.371307 
L 239.666223 78.371307 
L 239.251583 80.782654 
Q 238.380839 79.366855 237.706358 78.81604 
Q 236.573009 77.873534 234.828757 77.873534 
Q 232.57588 77.873534 230.950491 80.027833 
Q 229.178596 82.732948 229.178596 87.449559 
Q 229.178596 92.15393 230.906263 94.932487 
Q 232.548237 97.58456 235.157705 97.58456 
z
M 234.872985 97.613121 
L 234.872985 97.613121 
z
" style="fill:none;opacity:0;"/>
   </g>
   <g id="patch_61">
    <path clip-path="url(#p069cf1c818)" d="M 247.361214 104.397744 
Q 249.149694 104.397744 250.454428 103.025139 
Q 252.345186 101.054079 252.768119 96.112703 
L 251.068095 96.112703 
Q 250.755733 98.874383 249.779947 100.137179 
Q 248.804161 101.399976 247.316985 101.399976 
Q 245.556148 101.399976 244.350927 98.770065 
Q 243.145707 96.145645 243.145707 90.946219 
Q 243.145707 86.455057 244.138079 83.632982 
Q 245.133215 80.810907 247.377799 80.810907 
Q 249.097173 80.810907 250.224994 82.787458 
Q 251.352814 84.769499 251.377693 89.200266 
L 247.405442 89.200266 
L 247.405442 92.027832 
L 252.975439 92.027832 
L 252.975439 78.543365 
L 251.869732 78.543365 
L 251.455092 81.788202 
Q 250.584348 79.883027 249.909867 79.14182 
Q 248.776518 77.873534 247.032266 77.873534 
Q 244.779389 77.873534 243.154 80.772474 
Q 241.382105 84.412622 241.382105 90.759545 
Q 241.382105 97.089997 243.109772 100.828972 
Q 244.751746 104.397744 247.361214 104.397744 
z
M 247.076494 104.436177 
L 247.076494 104.436177 
z
" style="fill:none;opacity:0;"/>
   </g>
   <g id="patch_62">
    <path clip-path="url(#p069cf1c818)" d="M 259.681225 80.378268 
Q 262.163884 80.378268 263.533332 80.139968 
Q 264.90278 79.902187 265.053676 79.59965 
L 263.328342 79.59965 
Q 263.035092 79.829143 262.158189 79.963316 
Q 261.281287 80.098007 259.698307 80.098007 
Q 257.767983 80.098007 256.580748 79.850901 
Q 255.393514 79.604313 255.393514 79.094559 
Q 255.393514 78.676499 256.464018 78.416442 
Q 257.537369 78.156903 259.664142 78.156903 
Q 261.62009 78.156903 262.645041 78.430429 
Q 263.185987 78.574445 263.453613 78.809636 
L 265.178947 78.809636 
Q 264.948333 78.434055 263.650062 78.179697 
Q 262.092706 77.873534 259.450611 77.873534 
Q 257.172942 77.873534 255.624127 78.124784 
Q 253.585614 78.456331 253.585614 79.149472 
Q 253.585614 79.675284 255.117346 80.012012 
Q 256.771503 80.378268 259.681225 80.378268 
z
M 259.325339 80.378268 
L 259.325339 80.378268 
z
" style="fill:none;opacity:0;"/>
   </g>
   <g id="patch_63">
    <path clip-path="url(#p069cf1c818)" d="M 259.564722 103.413842 
Q 261.353203 103.413842 262.657936 102.221771 
Q 264.548695 100.509958 264.971627 96.218503 
L 263.271604 96.218503 
Q 262.959241 98.616949 261.983455 99.713654 
Q 261.007669 100.810359 259.520494 100.810359 
Q 257.759656 100.810359 256.554436 98.526352 
Q 255.349216 96.247113 255.349216 91.731549 
Q 255.349216 87.831094 256.341588 85.380196 
Q 257.336724 82.929299 259.581308 82.929299 
Q 261.300682 82.929299 262.428502 84.645881 
Q 263.556323 86.367231 263.581201 90.215235 
L 259.608951 90.215235 
L 259.608951 92.670901 
L 265.178947 92.670901 
L 265.178947 80.959998 
L 264.073241 80.959998 
L 263.658601 83.778053 
Q 262.787857 82.123459 262.113376 81.479741 
Q 260.980027 80.378268 259.235775 80.378268 
Q 256.982897 80.378268 255.357509 82.895921 
Q 253.585614 86.057292 253.585614 91.569427 
Q 253.585614 97.067257 255.313281 100.314458 
Q 256.955255 103.413842 259.564722 103.413842 
z
M 259.280003 103.44722 
L 259.280003 103.44722 
z
" style="fill:none;opacity:0;"/>
   </g>
   <g id="patch_64">
    <path clip-path="url(#p069cf1c818)" d="M 271.884733 137.00152 
Q 274.367392 137.00152 275.736841 132.951598 
Q 277.106289 128.91048 277.257184 123.76884 
L 275.53185 123.76884 
Q 275.238601 127.669091 274.361698 129.949373 
Q 273.484796 132.23846 271.901816 132.23846 
Q 269.971492 132.23846 268.784257 128.038867 
Q 267.597022 123.848078 267.597022 115.184766 
Q 267.597022 108.079794 268.667527 103.660096 
Q 269.740878 99.249203 271.867651 99.249203 
Q 273.823599 99.249203 274.84855 103.897809 
Q 275.389496 106.345371 275.657122 110.342468 
L 277.382456 110.342468 
Q 277.151842 103.959438 275.853571 99.636587 
Q 274.296215 94.433317 271.65412 94.433317 
Q 269.376451 94.433317 267.827636 98.703344 
Q 265.789123 104.338018 265.789123 116.118009 
Q 265.789123 125.05425 267.320855 130.776966 
Q 268.975012 137.00152 271.884733 137.00152 
z
M 271.528848 137.00152 
L 271.528848 137.00152 
z
" style="fill:none;opacity:0;"/>
   </g>
   <g id="patch_65">
    <path clip-path="url(#p069cf1c818)" d="M 271.768231 94.409357 
Q 273.556711 94.409357 274.861445 93.553643 
Q 276.752203 92.324837 277.175136 89.244265 
L 275.475112 89.244265 
Q 275.16275 90.965963 274.186964 91.75322 
Q 273.211178 92.540477 271.724003 92.540477 
Q 269.963165 92.540477 268.757945 90.900928 
Q 267.552725 89.264803 267.552725 86.023357 
Q 267.552725 83.22346 268.545096 81.464111 
Q 269.540232 79.704762 271.784817 79.704762 
Q 273.50419 79.704762 274.632011 80.936991 
Q 275.759832 82.172642 275.78471 84.934888 
L 271.812459 84.934888 
L 271.812459 86.69766 
L 277.382456 86.69766 
L 277.382456 78.291122 
L 276.27675 78.291122 
L 275.86211 80.314031 
Q 274.991366 79.126299 274.316885 78.664214 
Q 273.183535 77.873534 271.439283 77.873534 
Q 269.186406 77.873534 267.561018 79.680802 
Q 265.789123 81.950157 265.789123 85.90698 
Q 265.789123 89.853534 267.516789 92.1845 
Q 269.158764 94.409357 271.768231 94.409357 
z
M 271.483512 94.433317 
L 271.483512 94.433317 
z
" style="fill:none;opacity:0;"/>
   </g>
   <g id="patch_66">
    <path clip-path="url(#p069cf1c818)" d="M 284.088242 80.378268 
Q 286.570901 80.378268 287.940349 80.139968 
Q 289.309798 79.902187 289.460693 79.59965 
L 287.735359 79.59965 
Q 287.442109 79.829143 286.565207 79.963316 
Q 285.688304 80.098007 284.105325 80.098007 
Q 282.175001 80.098007 280.987766 79.850901 
Q 279.800531 79.604313 279.800531 79.094559 
Q 279.800531 78.676499 280.871035 78.416442 
Q 281.944387 78.156903 284.07116 78.156903 
Q 286.027108 78.156903 287.052059 78.430429 
Q 287.593005 78.574445 287.860631 78.809636 
L 289.585965 78.809636 
Q 289.355351 78.434055 288.05708 78.179697 
Q 286.499724 77.873534 283.857628 77.873534 
Q 281.57996 77.873534 280.031145 78.124784 
Q 277.992632 78.456331 277.992632 79.149472 
Q 277.992632 79.675284 279.524364 80.012012 
Q 281.178521 80.378268 284.088242 80.378268 
z
M 283.732357 80.378268 
L 283.732357 80.378268 
z
" style="fill:none;opacity:0;"/>
   </g>
   <g id="patch_67">
    <path clip-path="url(#p069cf1c818)" d="M 283.97174 123.639344 
Q 285.76022 123.639344 287.064954 121.664611 
Q 288.955712 118.828895 289.378645 111.719857 
L 287.678621 111.719857 
Q 287.366259 115.693019 286.390473 117.509773 
Q 285.414687 119.326528 283.927512 119.326528 
Q 282.166674 119.326528 280.961454 115.54294 
Q 279.756234 111.767251 279.756234 104.286964 
Q 279.756234 97.825638 280.748605 93.765588 
Q 281.743741 89.705538 283.988325 89.705538 
Q 285.707699 89.705538 286.83552 92.549153 
Q 287.963341 95.400667 287.988219 101.775104 
L 284.015968 101.775104 
L 284.015968 105.843053 
L 289.585965 105.843053 
L 289.585965 86.443279 
L 288.480258 86.443279 
L 288.065618 91.111547 
Q 287.194874 88.370619 286.520393 87.304263 
Q 285.387044 85.47961 283.642792 85.47961 
Q 281.389915 85.47961 279.764526 89.650245 
Q 277.992632 94.887236 277.992632 104.0184 
Q 277.992632 113.125867 279.720298 118.505039 
Q 281.362272 123.639344 283.97174 123.639344 
z
M 283.68702 123.694636 
L 283.68702 123.694636 
z
" style="fill:none;opacity:0;"/>
   </g>
   <g id="patch_68">
    <path clip-path="url(#p069cf1c818)" d="M 289.585965 85.47961 
L 289.585965 84.871805 
L 284.77123 84.871805 
L 284.77123 80.378268 
L 282.807366 80.378268 
L 282.807366 84.871805 
L 277.992632 84.871805 
L 277.992632 85.47961 
L 289.585965 85.47961 
z
" style="fill:none;opacity:0;"/>
   </g>
   <g id="patch_69">
    <path clip-path="url(#p069cf1c818)" d="M 296.175249 119.735076 
Q 297.963729 119.735076 299.268463 117.972257 
Q 301.159221 115.440848 301.582154 109.094699 
L 299.88213 109.094699 
Q 299.569768 112.641491 298.593982 114.263285 
Q 297.618196 115.885079 296.13102 115.885079 
Q 294.370183 115.885079 293.164962 112.507517 
Q 291.959742 109.137006 291.959742 102.459447 
Q 291.959742 96.691502 292.952114 93.067145 
Q 293.94725 89.442789 296.191834 89.442789 
Q 297.911208 89.442789 299.039029 91.981249 
Q 300.166849 94.52676 300.191728 100.217141 
L 296.219477 100.217141 
L 296.219477 103.848548 
L 301.789474 103.848548 
L 301.789474 86.530611 
L 300.683767 86.530611 
L 300.269127 90.697916 
Q 299.398383 88.251123 298.723902 87.299201 
Q 297.590553 85.670356 295.846301 85.670356 
Q 293.593424 85.670356 291.968035 89.39343 
Q 290.19614 94.068427 290.19614 102.219703 
Q 290.19614 110.349826 291.923807 115.151746 
Q 293.565781 119.735076 296.175249 119.735076 
z
M 295.890529 119.784435 
L 295.890529 119.784435 
z
" style="fill:none;opacity:0;"/>
   </g>
   <g id="patch_70">
    <path clip-path="url(#p069cf1c818)" d="M 301.789474 85.670356 
L 301.789474 84.741394 
L 296.974739 84.741394 
L 296.974739 77.873534 
L 295.010875 77.873534 
L 295.010875 84.741394 
L 290.19614 84.741394 
L 290.19614 85.670356 
L 301.789474 85.670356 
z
" style="fill:none;opacity:0;"/>
   </g>
   <g id="patch_71">
    <path clip-path="url(#p069cf1c818)" d="M 308.49526 91.390212 
Q 310.977919 91.390212 312.347367 90.10424 
Q 313.716815 88.821065 313.867711 87.18844 
L 312.142377 87.18844 
Q 311.849127 88.426886 310.972224 89.150944 
Q 310.095322 89.877798 308.512342 89.877798 
Q 306.582018 89.877798 305.394783 88.544301 
Q 304.207549 87.2136 304.207549 84.46274 
Q 304.207549 82.206698 305.278053 80.803312 
Q 306.351404 79.402721 308.478177 79.402721 
Q 310.434125 79.402721 311.459076 80.878793 
Q 312.000022 81.655967 312.267648 82.925165 
L 313.992982 82.925165 
Q 313.762369 80.898362 312.464097 79.525727 
Q 310.906741 77.873534 308.264646 77.873534 
Q 305.986977 77.873534 304.438163 79.229395 
Q 302.399649 81.018573 302.399649 84.759072 
Q 302.399649 87.596596 303.931381 89.41373 
Q 305.585538 91.390212 308.49526 91.390212 
z
M 308.139374 91.390212 
L 308.139374 91.390212 
z
" style="fill:none;opacity:0;"/>
   </g>
   <g id="patch_72">
    <path clip-path="url(#p069cf1c818)" d="M 308.378757 114.425786 
Q 310.167238 114.425786 311.471971 113.233715 
Q 313.36273 111.521902 313.785662 107.230447 
L 312.085639 107.230447 
Q 311.773277 109.628894 310.79749 110.725599 
Q 309.821704 111.822304 308.334529 111.822304 
Q 306.573691 111.822304 305.368471 109.538296 
Q 304.163251 107.259057 304.163251 102.743493 
Q 304.163251 98.843038 305.155623 96.392141 
Q 306.150759 93.941243 308.395343 93.941243 
Q 310.114717 93.941243 311.242537 95.657825 
Q 312.370358 97.379175 312.395236 101.227179 
L 308.422986 101.227179 
L 308.422986 103.682845 
L 313.992982 103.682845 
L 313.992982 91.971942 
L 312.887276 91.971942 
L 312.472636 94.789998 
Q 311.601892 93.135403 310.927411 92.491685 
Q 309.794062 91.390212 308.04981 91.390212 
Q 305.796933 91.390212 304.171544 93.907865 
Q 302.399649 97.069237 302.399649 102.581372 
Q 302.399649 108.079202 304.127316 111.326402 
Q 305.76929 114.425786 308.378757 114.425786 
z
M 308.094038 114.459164 
L 308.094038 114.459164 
z
" style="fill:none;opacity:0;"/>
   </g>
   <g id="patch_73">
    <path clip-path="url(#p069cf1c818)" d="M 320.698769 80.378268 
Q 323.181427 80.378268 324.550876 80.139968 
Q 325.920324 79.902187 326.071219 79.59965 
L 324.345885 79.59965 
Q 324.052636 79.829143 323.175733 79.963316 
Q 322.298831 80.098007 320.715851 80.098007 
Q 318.785527 80.098007 317.598292 79.850901 
Q 316.411057 79.604313 316.411057 79.094559 
Q 316.411057 78.676499 317.481562 78.416442 
Q 318.554913 78.156903 320.681686 78.156903 
Q 322.637634 78.156903 323.662585 78.430429 
Q 324.203531 78.574445 324.471157 78.809636 
L 326.196491 78.809636 
Q 325.965877 78.434055 324.667606 78.179697 
Q 323.11025 77.873534 320.468155 77.873534 
Q 318.190486 77.873534 316.641671 78.124784 
Q 314.603158 78.456331 314.603158 79.149472 
Q 314.603158 79.675284 316.13489 80.012012 
Q 317.789047 80.378268 320.698769 80.378268 
z
M 320.342883 80.378268 
L 320.342883 80.378268 
z
" style="fill:none;opacity:0;"/>
   </g>
   <g id="patch_74">
    <path clip-path="url(#p069cf1c818)" d="M 320.582266 103.413842 
Q 322.370747 103.413842 323.67548 102.221771 
Q 325.566238 100.509958 325.989171 96.218503 
L 324.289147 96.218503 
Q 323.976785 98.616949 323.000999 99.713654 
Q 322.025213 100.810359 320.538038 100.810359 
Q 318.7772 100.810359 317.57198 98.526352 
Q 316.36676 96.247113 316.36676 91.731549 
Q 316.36676 87.831094 317.359132 85.380196 
Q 318.354267 82.929299 320.598852 82.929299 
Q 322.318225 82.929299 323.446046 84.645881 
Q 324.573867 86.367231 324.598745 90.215235 
L 320.626494 90.215235 
L 320.626494 92.670901 
L 326.196491 92.670901 
L 326.196491 80.959998 
L 325.090785 80.959998 
L 324.676145 83.778053 
Q 323.805401 82.123459 323.13092 81.479741 
Q 321.997571 80.378268 320.253318 80.378268 
Q 318.000441 80.378268 316.375053 82.895921 
Q 314.603158 86.057292 314.603158 91.569427 
Q 314.603158 97.067257 316.330824 100.314458 
Q 317.972799 103.413842 320.582266 103.413842 
z
M 320.297547 103.44722 
L 320.297547 103.44722 
z
" style="fill:none;opacity:0;"/>
   </g>
   <g id="patch_75">
    <path clip-path="url(#p069cf1c818)" d="M 332.902277 82.974876 
Q 335.384936 82.974876 336.754384 82.489536 
Q 338.123833 82.005252 338.274728 81.389081 
L 336.549394 81.389081 
Q 336.256144 81.856484 335.379242 82.129752 
Q 334.50234 82.404074 332.91936 82.404074 
Q 330.989036 82.404074 329.801801 81.900798 
Q 328.614566 81.398577 328.614566 80.360372 
Q 328.614566 79.508917 329.68507 78.979264 
Q 330.758422 78.450666 332.885195 78.450666 
Q 334.841143 78.450666 335.866094 79.007751 
Q 336.40704 79.301065 336.674666 79.780075 
L 338.4 79.780075 
Q 338.169386 79.015137 336.871115 78.49709 
Q 335.313759 77.873534 332.671663 77.873534 
Q 330.393995 77.873534 328.84518 78.38525 
Q 326.806667 79.060506 326.806667 80.472211 
Q 326.806667 81.543124 328.338399 82.22893 
Q 329.992556 82.974876 332.902277 82.974876 
z
M 332.546392 82.974876 
L 332.546392 82.974876 
z
" style="fill:none;opacity:0;"/>
   </g>
   <g id="patch_76">
    <path clip-path="url(#p069cf1c818)" d="M 332.785775 117.039597 
Q 334.574255 117.039597 335.878989 115.276777 
Q 337.769747 112.745369 338.19268 106.399219 
L 336.492656 106.399219 
Q 336.180294 109.946012 335.204508 111.567805 
Q 334.228722 113.189599 332.741547 113.189599 
Q 330.980709 113.189599 329.775489 109.812037 
Q 328.570269 106.441527 328.570269 99.763967 
Q 328.570269 93.996022 329.56264 90.371666 
Q 330.557776 86.747309 332.802361 86.747309 
Q 334.521734 86.747309 335.649555 89.285769 
Q 336.777376 91.83128 336.802254 97.521661 
L 332.830003 97.521661 
L 332.830003 101.153069 
L 338.4 101.153069 
L 338.4 83.835132 
L 337.294293 83.835132 
L 336.879653 88.002437 
Q 336.00891 85.555643 335.334429 84.603721 
Q 334.201079 82.974876 332.456827 82.974876 
Q 330.20395 82.974876 328.578561 86.69795 
Q 326.806667 91.372947 326.806667 99.524224 
Q 326.806667 107.654346 328.534333 112.456266 
Q 330.176307 117.039597 332.785775 117.039597 
z
M 332.501055 117.088956 
L 332.501055 117.088956 
z
" style="fill:none;opacity:0;"/>
   </g>
   <g id="matplotlib.axis_1">
    <g id="xtick_1">
     <g id="line2d_2">
      <path clip-path="url(#p069cf1c818)" d="M 100.736667 141.64 
L 100.736667 28.8 
" style="fill:none;stroke:#cccccc;stroke-linecap:round;stroke-width:0.8;"/>
     </g>
     <g id="text_1">
      <!-- 0 -->
      <g style="fill:#262626;" transform="translate(95.175729 162.986875)scale(0.2 -0.2)">
       <defs>
        <path d="M 1731 4475 
Q 2600 4475 2988 3759 
Q 3288 3206 3288 2244 
Q 3288 1331 3016 734 
Q 2622 -122 1728 -122 
Q 922 -122 528 578 
Q 200 1163 200 2147 
Q 200 2909 397 3456 
Q 766 4475 1731 4475 
z
M 1725 391 
Q 2163 391 2422 778 
Q 2681 1166 2681 2222 
Q 2681 2984 2493 3476 
Q 2306 3969 1766 3969 
Q 1269 3969 1039 3501 
Q 809 3034 809 2125 
Q 809 1441 956 1025 
Q 1181 391 1725 391 
z
" id="Helvetica-30" transform="scale(0.015625)"/>
       </defs>
       <use xlink:href="#Helvetica-30"/>
      </g>
     </g>
    </g>
    <g id="xtick_2">
     <g id="line2d_3">
      <path clip-path="url(#p069cf1c818)" d="M 222.771754 141.64 
L 222.771754 28.8 
" style="fill:none;stroke:#cccccc;stroke-linecap:round;stroke-width:0.8;"/>
     </g>
     <g id="text_2">
      <!-- 10 -->
      <g style="fill:#262626;" transform="translate(211.649879 162.986875)scale(0.2 -0.2)">
       <defs>
        <path d="M 613 3169 
L 613 3600 
Q 1222 3659 1462 3798 
Q 1703 3938 1822 4456 
L 2266 4456 
L 2266 0 
L 1666 0 
L 1666 3169 
L 613 3169 
z
" id="Helvetica-31" transform="scale(0.015625)"/>
       </defs>
       <use xlink:href="#Helvetica-31"/>
       <use x="55.615234" xlink:href="#Helvetica-30"/>
      </g>
     </g>
    </g>
    <g id="text_3">
     <!-- Position -->
     <g style="fill:#262626;" transform="translate(172.20125 189.089219)scale(0.25 -0.25)">
      <defs>
       <path d="M 547 4591 
L 2613 4591 
Q 3225 4591 3600 4245 
Q 3975 3900 3975 3275 
Q 3975 2738 3640 2339 
Q 3306 1941 2613 1941 
L 1169 1941 
L 1169 0 
L 547 0 
L 547 4591 
z
M 3347 3272 
Q 3347 3778 2972 3959 
Q 2766 4056 2406 4056 
L 1169 4056 
L 1169 2466 
L 2406 2466 
Q 2825 2466 3086 2644 
Q 3347 2822 3347 3272 
z
" id="Helvetica-50" transform="scale(0.015625)"/>
       <path d="M 1741 363 
Q 2300 363 2508 786 
Q 2716 1209 2716 1728 
Q 2716 2197 2566 2491 
Q 2328 2953 1747 2953 
Q 1231 2953 997 2559 
Q 763 2166 763 1609 
Q 763 1075 997 719 
Q 1231 363 1741 363 
z
M 1763 3444 
Q 2409 3444 2856 3012 
Q 3303 2581 3303 1744 
Q 3303 934 2909 406 
Q 2516 -122 1688 -122 
Q 997 -122 590 345 
Q 184 813 184 1600 
Q 184 2444 612 2944 
Q 1041 3444 1763 3444 
z
M 1744 3428 
L 1744 3428 
z
" id="Helvetica-6f" transform="scale(0.015625)"/>
       <path d="M 747 1050 
Q 772 769 888 619 
Q 1100 347 1625 347 
Q 1938 347 2175 483 
Q 2413 619 2413 903 
Q 2413 1119 2222 1231 
Q 2100 1300 1741 1391 
L 1294 1503 
Q 866 1609 663 1741 
Q 300 1969 300 2372 
Q 300 2847 642 3140 
Q 984 3434 1563 3434 
Q 2319 3434 2653 2991 
Q 2863 2709 2856 2384 
L 2325 2384 
Q 2309 2575 2191 2731 
Q 1997 2953 1519 2953 
Q 1200 2953 1036 2831 
Q 872 2709 872 2509 
Q 872 2291 1088 2159 
Q 1213 2081 1456 2022 
L 1828 1931 
Q 2434 1784 2641 1647 
Q 2969 1431 2969 969 
Q 2969 522 2630 197 
Q 2291 -128 1597 -128 
Q 850 -128 539 211 
Q 228 550 206 1050 
L 747 1050 
z
M 1578 3428 
L 1578 3428 
z
" id="Helvetica-73" transform="scale(0.015625)"/>
       <path d="M 413 3331 
L 984 3331 
L 984 0 
L 413 0 
L 413 3331 
z
M 413 4591 
L 984 4591 
L 984 3953 
L 413 3953 
L 413 4591 
z
" id="Helvetica-69" transform="scale(0.015625)"/>
       <path d="M 525 4281 
L 1094 4281 
L 1094 3347 
L 1628 3347 
L 1628 2888 
L 1094 2888 
L 1094 703 
Q 1094 528 1213 469 
Q 1278 434 1431 434 
Q 1472 434 1519 436 
Q 1566 438 1628 444 
L 1628 0 
Q 1531 -28 1426 -40 
Q 1322 -53 1200 -53 
Q 806 -53 665 148 
Q 525 350 525 672 
L 525 2888 
L 72 2888 
L 72 3347 
L 525 3347 
L 525 4281 
z
" id="Helvetica-74" transform="scale(0.015625)"/>
       <path d="M 413 3347 
L 947 3347 
L 947 2872 
Q 1184 3166 1450 3294 
Q 1716 3422 2041 3422 
Q 2753 3422 3003 2925 
Q 3141 2653 3141 2147 
L 3141 0 
L 2569 0 
L 2569 2109 
Q 2569 2416 2478 2603 
Q 2328 2916 1934 2916 
Q 1734 2916 1606 2875 
Q 1375 2806 1200 2600 
Q 1059 2434 1017 2257 
Q 975 2081 975 1753 
L 975 0 
L 413 0 
L 413 3347 
z
M 1734 3428 
L 1734 3428 
z
" id="Helvetica-6e" transform="scale(0.015625)"/>
      </defs>
      <use xlink:href="#Helvetica-50"/>
      <use x="66.699219" xlink:href="#Helvetica-6f"/>
      <use x="122.314453" xlink:href="#Helvetica-73"/>
      <use x="172.314453" xlink:href="#Helvetica-69"/>
      <use x="194.53125" xlink:href="#Helvetica-74"/>
      <use x="222.314453" xlink:href="#Helvetica-69"/>
      <use x="244.53125" xlink:href="#Helvetica-6f"/>
      <use x="300.146484" xlink:href="#Helvetica-6e"/>
     </g>
    </g>
   </g>
   <g id="matplotlib.axis_2">
    <g id="ytick_1">
     <g id="line2d_4">
      <path clip-path="url(#p069cf1c818)" d="M 94.94 77.873534 
L 338.4 77.873534 
" style="fill:none;stroke:#cccccc;stroke-linecap:round;stroke-width:0.8;"/>
     </g>
     <g id="text_4">
      <!-- 0 -->
      <g style="fill:#262626;" transform="translate(76.818125 85.046971)scale(0.2 -0.2)">
       <use xlink:href="#Helvetica-30"/>
      </g>
     </g>
    </g>
    <g id="ytick_2">
     <g id="line2d_5">
      <path clip-path="url(#p069cf1c818)" d="M 94.94 65.60515 
L 338.4 65.60515 
" style="fill:none;stroke:#cccccc;stroke-linecap:round;stroke-width:0.8;"/>
     </g>
     <g id="text_5">
      <!-- 0.25 -->
      <g style="fill:#262626;" transform="translate(49.018125 72.778588)scale(0.2 -0.2)">
       <defs>
        <path d="M 547 681 
L 1200 681 
L 1200 0 
L 547 0 
L 547 681 
z
" id="Helvetica-2e" transform="scale(0.015625)"/>
        <path d="M 200 0 
Q 231 578 439 1006 
Q 647 1434 1250 1784 
L 1850 2131 
Q 2253 2366 2416 2531 
Q 2672 2791 2672 3125 
Q 2672 3516 2437 3745 
Q 2203 3975 1813 3975 
Q 1234 3975 1013 3538 
Q 894 3303 881 2888 
L 309 2888 
Q 319 3472 525 3841 
Q 891 4491 1816 4491 
Q 2584 4491 2939 4075 
Q 3294 3659 3294 3150 
Q 3294 2613 2916 2231 
Q 2697 2009 2131 1694 
L 1703 1456 
Q 1397 1288 1222 1134 
Q 909 863 828 531 
L 3272 531 
L 3272 0 
L 200 0 
z
" id="Helvetica-32" transform="scale(0.015625)"/>
        <path d="M 791 1141 
Q 847 659 1238 475 
Q 1438 381 1700 381 
Q 2200 381 2440 700 
Q 2681 1019 2681 1406 
Q 2681 1875 2395 2131 
Q 2109 2388 1709 2388 
Q 1419 2388 1211 2275 
Q 1003 2163 856 1963 
L 369 1991 
L 709 4400 
L 3034 4400 
L 3034 3856 
L 1131 3856 
L 941 2613 
Q 1097 2731 1238 2791 
Q 1488 2894 1816 2894 
Q 2431 2894 2859 2497 
Q 3288 2100 3288 1491 
Q 3288 856 2895 371 
Q 2503 -113 1644 -113 
Q 1097 -113 676 195 
Q 256 503 206 1141 
L 791 1141 
z
" id="Helvetica-35" transform="scale(0.015625)"/>
       </defs>
       <use xlink:href="#Helvetica-30"/>
       <use x="55.615234" xlink:href="#Helvetica-2e"/>
       <use x="83.398438" xlink:href="#Helvetica-32"/>
       <use x="139.013672" xlink:href="#Helvetica-35"/>
      </g>
     </g>
    </g>
    <g id="ytick_3">
     <g id="line2d_6">
      <path clip-path="url(#p069cf1c818)" d="M 94.94 53.336767 
L 338.4 53.336767 
" style="fill:none;stroke:#cccccc;stroke-linecap:round;stroke-width:0.8;"/>
     </g>
     <g id="text_6">
      <!-- 0.50 -->
      <g style="fill:#262626;" transform="translate(49.018125 60.510204)scale(0.2 -0.2)">
       <use xlink:href="#Helvetica-30"/>
       <use x="55.615234" xlink:href="#Helvetica-2e"/>
       <use x="83.398438" xlink:href="#Helvetica-35"/>
       <use x="139.013672" xlink:href="#Helvetica-30"/>
      </g>
     </g>
    </g>
    <g id="ytick_4">
     <g id="line2d_7">
      <path clip-path="url(#p069cf1c818)" d="M 94.94 41.068383 
L 338.4 41.068383 
" style="fill:none;stroke:#cccccc;stroke-linecap:round;stroke-width:0.8;"/>
     </g>
     <g id="text_7">
      <!-- 0.75 -->
      <g style="fill:#262626;" transform="translate(49.018125 48.241821)scale(0.2 -0.2)">
       <defs>
        <path d="M 3347 4400 
L 3347 3909 
Q 3131 3700 2773 3181 
Q 2416 2663 2141 2063 
Q 1869 1478 1728 997 
Q 1638 688 1494 0 
L 872 0 
Q 1084 1281 1809 2550 
Q 2238 3294 2709 3834 
L 234 3834 
L 234 4400 
L 3347 4400 
z
" id="Helvetica-37" transform="scale(0.015625)"/>
       </defs>
       <use xlink:href="#Helvetica-30"/>
       <use x="55.615234" xlink:href="#Helvetica-2e"/>
       <use x="83.398438" xlink:href="#Helvetica-37"/>
       <use x="139.013672" xlink:href="#Helvetica-35"/>
      </g>
     </g>
    </g>
    <g id="ytick_5">
     <g id="line2d_8">
      <path clip-path="url(#p069cf1c818)" d="M 94.94 28.8 
L 338.4 28.8 
" style="fill:none;stroke:#cccccc;stroke-linecap:round;stroke-width:0.8;"/>
     </g>
     <g id="text_8">
      <!-- 1.0 -->
      <g style="fill:#262626;" transform="translate(60.14 35.973437)scale(0.2 -0.2)">
       <use xlink:href="#Helvetica-31"/>
       <use x="55.615234" xlink:href="#Helvetica-2e"/>
       <use x="83.398438" xlink:href="#Helvetica-30"/>
      </g>
     </g>
    </g>
    <g id="text_9">
     <!-- Probability -->
     <g style="fill:#262626;" transform="translate(39.65875 143.579375)rotate(-90)scale(0.25 -0.25)">
      <defs>
       <path d="M 428 3347 
L 963 3347 
L 963 2769 
Q 1028 2938 1284 3180 
Q 1541 3422 1875 3422 
Q 1891 3422 1928 3419 
Q 1966 3416 2056 3406 
L 2056 2813 
Q 2006 2822 1964 2825 
Q 1922 2828 1872 2828 
Q 1447 2828 1219 2554 
Q 991 2281 991 1925 
L 991 0 
L 428 0 
L 428 3347 
z
" id="Helvetica-72" transform="scale(0.015625)"/>
       <path d="M 369 4606 
L 916 4606 
L 916 2941 
Q 1100 3181 1356 3307 
Q 1613 3434 1913 3434 
Q 2538 3434 2927 3004 
Q 3316 2575 3316 1738 
Q 3316 944 2931 419 
Q 2547 -106 1866 -106 
Q 1484 -106 1222 78 
Q 1066 188 888 428 
L 888 0 
L 369 0 
L 369 4606 
z
M 1831 391 
Q 2288 391 2514 753 
Q 2741 1116 2741 1709 
Q 2741 2238 2514 2584 
Q 2288 2931 1847 2931 
Q 1463 2931 1173 2647 
Q 884 2363 884 1709 
Q 884 1238 1003 944 
Q 1225 391 1831 391 
z
" id="Helvetica-62" transform="scale(0.015625)"/>
       <path d="M 844 891 
Q 844 647 1022 506 
Q 1200 366 1444 366 
Q 1741 366 2019 503 
Q 2488 731 2488 1250 
L 2488 1703 
Q 2384 1638 2221 1594 
Q 2059 1550 1903 1531 
L 1563 1488 
Q 1256 1447 1103 1359 
Q 844 1213 844 891 
z
M 2206 2028 
Q 2400 2053 2466 2191 
Q 2503 2266 2503 2406 
Q 2503 2694 2298 2823 
Q 2094 2953 1713 2953 
Q 1272 2953 1088 2716 
Q 984 2584 953 2325 
L 428 2325 
Q 444 2944 830 3186 
Q 1216 3428 1725 3428 
Q 2316 3428 2684 3203 
Q 3050 2978 3050 2503 
L 3050 575 
Q 3050 488 3086 434 
Q 3122 381 3238 381 
Q 3275 381 3322 386 
Q 3369 391 3422 400 
L 3422 -16 
Q 3291 -53 3222 -62 
Q 3153 -72 3034 -72 
Q 2744 -72 2613 134 
Q 2544 244 2516 444 
Q 2344 219 2022 53 
Q 1700 -113 1313 -113 
Q 847 -113 551 170 
Q 256 453 256 878 
Q 256 1344 547 1600 
Q 838 1856 1309 1916 
L 2206 2028 
z
M 1741 3428 
L 1741 3428 
z
" id="Helvetica-61" transform="scale(0.015625)"/>
       <path d="M 428 4591 
L 991 4591 
L 991 0 
L 428 0 
L 428 4591 
z
" id="Helvetica-6c" transform="scale(0.015625)"/>
       <path d="M 2503 3347 
L 3125 3347 
Q 3006 3025 2597 1878 
Q 2291 1016 2084 472 
Q 1597 -809 1397 -1090 
Q 1197 -1372 709 -1372 
Q 591 -1372 527 -1362 
Q 463 -1353 369 -1328 
L 369 -816 
Q 516 -856 581 -865 
Q 647 -875 697 -875 
Q 853 -875 926 -823 
Q 1000 -772 1050 -697 
Q 1066 -672 1162 -440 
Q 1259 -209 1303 -97 
L 66 3347 
L 703 3347 
L 1600 622 
L 2503 3347 
z
M 1597 3428 
L 1597 3428 
z
" id="Helvetica-79" transform="scale(0.015625)"/>
      </defs>
      <use xlink:href="#Helvetica-50"/>
      <use x="66.699219" xlink:href="#Helvetica-72"/>
      <use x="100" xlink:href="#Helvetica-6f"/>
      <use x="155.615234" xlink:href="#Helvetica-62"/>
      <use x="211.230469" xlink:href="#Helvetica-61"/>
      <use x="266.845703" xlink:href="#Helvetica-62"/>
      <use x="322.460938" xlink:href="#Helvetica-69"/>
      <use x="344.677734" xlink:href="#Helvetica-6c"/>
      <use x="366.894531" xlink:href="#Helvetica-69"/>
      <use x="389.111328" xlink:href="#Helvetica-74"/>
      <use x="416.894531" xlink:href="#Helvetica-79"/>
     </g>
    </g>
   </g>
   <g id="patch_77">
    <path d="M 94.94 141.64 
L 94.94 28.8 
" style="fill:none;stroke:#000000;stroke-linecap:square;stroke-linejoin:miter;"/>
   </g>
  </g>
 </g>
 <defs>
  <clipPath id="p069cf1c818">
   <rect height="112.84" width="243.46" x="94.94" y="28.8"/>
  </clipPath>
 </defs>
</svg>
