<?xml version="1.0" encoding="utf-8" standalone="no"?>
<!DOCTYPE svg PUBLIC "-//W3C//DTD SVG 1.1//EN"
  "http://www.w3.org/Graphics/SVG/1.1/DTD/svg11.dtd">
<svg height="216pt" version="1.1" viewBox="0 0 360 216" width="360pt" xmlns="http://www.w3.org/2000/svg" xmlns:xlink="http://www.w3.org/1999/xlink">
 <metadata>
  <rdf:RDF xmlns:cc="http://creativecommons.org/ns#" xmlns:dc="http://purl.org/dc/elements/1.1/" xmlns:rdf="http://www.w3.org/1999/02/22-rdf-syntax-ns#">
   <cc:Work>
    <dc:type rdf:resource="http://purl.org/dc/dcmitype/StillImage"/>
    <dc:date>2021-12-22T07:22:54.134370</dc:date>
    <dc:format>image/svg+xml</dc:format>
    <dc:creator>
     <cc:Agent>
      <dc:title>Matplotlib v3.4.2, https://matplotlib.org/</dc:title>
     </cc:Agent>
    </dc:creator>
   </cc:Work>
  </rdf:RDF>
 </metadata>
 <defs>
  <style type="text/css">*{stroke-linecap:butt;stroke-linejoin:round;}</style>
 </defs>
 <g id="figure_1">
  <g id="patch_1">
   <path d="M 0 216 
L 360 216 
L 360 0 
L 0 0 
z
" style="fill:#ffffff;"/>
  </g>
  <g id="axes_1">
   <g id="patch_2">
    <path d="M 94.94 141.64 
L 338.4 141.64 
L 338.4 28.8 
L 94.94 28.8 
z
" style="fill:#ffffff;"/>
   </g>
   <g id="line2d_1">
    <path clip-path="url(#p16ece7ee7c)" d="M 94.94 91.332898 
L 338.4 91.332898 
" style="fill:none;stroke:#000000;stroke-linecap:round;stroke-width:0.5;"/>
   </g>
   <g id="patch_3">
    <path clip-path="url(#p16ece7ee7c)" d="M 106.533333 76.876121 
L 106.533333 78.59859 
L 101.718599 78.59859 
L 101.718599 91.332898 
L 99.754735 91.332898 
L 99.754735 78.59859 
L 94.94 78.59859 
L 94.94 76.876121 
L 106.533333 76.876121 
z
" style="fill:#ff0000;"/>
   </g>
   <g id="patch_4">
    <path clip-path="url(#p16ece7ee7c)" d="M 118.736842 88.250263 
L 118.736842 88.617547 
L 113.922107 88.617547 
L 113.922107 91.332898 
L 111.958243 91.332898 
L 111.958243 88.617547 
L 107.143509 88.617547 
L 107.143509 88.250263 
L 118.736842 88.250263 
z
" style="fill:#ff0000;"/>
   </g>
   <g id="patch_5">
    <path clip-path="url(#p16ece7ee7c)" d="M 113.122617 82.195626 
Q 114.911097 82.195626 116.215831 82.508948 
Q 118.106589 82.958878 118.529522 84.086838 
L 116.829498 84.086838 
Q 116.517136 83.456434 115.54135 83.168178 
Q 114.565564 82.879921 113.078389 82.879921 
Q 111.317551 82.879921 110.112331 83.480246 
Q 108.907111 84.079318 108.907111 85.266183 
Q 108.907111 86.291373 109.899482 86.935563 
Q 110.894618 87.579753 113.139203 87.579753 
Q 114.858576 87.579753 115.986397 87.128569 
Q 117.114218 86.676132 117.139096 85.664728 
L 113.166845 85.664728 
L 113.166845 85.019285 
L 118.736842 85.019285 
L 118.736842 88.097361 
L 117.631136 88.097361 
L 117.216496 87.356668 
Q 116.345752 87.791559 115.671271 87.960753 
Q 114.537921 88.250263 112.793669 88.250263 
Q 110.540792 88.250263 108.915404 87.588526 
Q 107.143509 86.757596 107.143509 85.308794 
Q 107.143509 83.863753 108.871175 83.010263 
Q 110.51315 82.195626 113.122617 82.195626 
z
M 112.837898 82.186853 
L 112.837898 82.186853 
z
" style="fill:#ffa600;"/>
   </g>
   <g id="patch_6">
    <path clip-path="url(#p16ece7ee7c)" d="M 113.239119 73.238012 
Q 115.721778 73.238012 117.091227 74.089402 
Q 118.460675 74.93894 118.61157 76.019834 
L 116.886236 76.019834 
Q 116.592987 75.199909 115.716084 74.72054 
Q 114.839182 74.23932 113.256202 74.23932 
Q 111.325878 74.23932 110.138643 75.122174 
Q 108.951408 76.003176 108.951408 77.824409 
Q 108.951408 79.318041 110.021913 80.247166 
Q 111.095264 81.17444 113.222037 81.17444 
Q 115.177985 81.17444 116.202936 80.197193 
Q 116.743882 79.682658 117.011508 78.842374 
L 118.736842 78.842374 
Q 118.506228 80.184237 117.207957 81.093003 
Q 115.650601 82.186853 113.008505 82.186853 
Q 110.730837 82.186853 109.182022 81.289192 
Q 107.143509 80.104651 107.143509 77.628219 
Q 107.143509 75.74961 108.675241 74.54656 
Q 110.329398 73.238012 113.239119 73.238012 
z
M 112.883234 73.238012 
L 112.883234 73.238012 
z
" style="fill:#0000ff;"/>
   </g>
   <g id="patch_7">
    <path clip-path="url(#p16ece7ee7c)" d="M 130.940351 85.269488 
L 130.940351 85.99192 
L 126.125616 85.99192 
L 126.125616 91.332898 
L 124.161752 91.332898 
L 124.161752 85.99192 
L 119.347018 85.99192 
L 119.347018 85.269488 
L 130.940351 85.269488 
z
" style="fill:#ff0000;"/>
   </g>
   <g id="patch_8">
    <path clip-path="url(#p16ece7ee7c)" d="M 125.442628 68.179919 
Q 127.925287 68.179919 129.294735 69.805814 
Q 130.664184 71.428174 130.815079 73.492354 
L 129.089745 73.492354 
Q 128.796495 71.926546 127.919593 71.011097 
Q 127.04269 70.092113 125.459711 70.092113 
Q 123.529387 70.092113 122.342152 71.778095 
Q 121.154917 73.460543 121.154917 76.938544 
Q 121.154917 79.790929 122.225421 81.565275 
Q 123.298773 83.336087 125.425546 83.336087 
Q 127.381494 83.336087 128.406445 81.469842 
Q 128.947391 80.487236 129.215017 78.882549 
L 130.940351 78.882549 
Q 130.709737 81.445101 129.411466 83.180567 
Q 127.85411 85.269488 125.212014 85.269488 
Q 122.934346 85.269488 121.385531 83.555229 
Q 119.347018 81.293115 119.347018 76.563881 
Q 119.347018 72.976309 120.87875 70.678849 
Q 122.532907 68.179919 125.442628 68.179919 
z
M 125.086742 68.179919 
L 125.086742 68.179919 
z
" style="fill:#0000ff;"/>
   </g>
   <g id="patch_9">
    <path clip-path="url(#p16ece7ee7c)" d="M 137.646137 79.588062 
Q 140.128796 79.588062 141.498244 80.705461 
Q 142.867692 81.820431 143.018588 83.239042 
L 141.293254 83.239042 
Q 141.000004 82.162938 140.123102 81.533794 
Q 139.246199 80.90222 137.66322 80.90222 
Q 135.732895 80.90222 134.545661 82.060914 
Q 133.358426 83.21718 133.358426 85.607442 
Q 133.358426 87.567749 134.42893 88.787172 
Q 135.502281 90.004165 137.629054 90.004165 
Q 139.585002 90.004165 140.609953 88.721585 
Q 141.1509 88.046287 141.418526 86.943463 
L 143.14386 86.943463 
Q 142.913246 88.704581 141.614975 89.897283 
Q 140.057619 91.332898 137.415523 91.332898 
Q 135.137854 91.332898 133.58904 90.154771 
Q 131.550526 88.600129 131.550526 85.349955 
Q 131.550526 82.884389 133.082258 81.305455 
Q 134.736415 79.588062 137.646137 79.588062 
z
M 137.290251 79.588062 
L 137.290251 79.588062 
z
" style="fill:#0000ff;"/>
   </g>
   <g id="patch_10">
    <path clip-path="url(#p16ece7ee7c)" d="M 137.529635 52.713307 
Q 139.318115 52.713307 140.622849 54.104052 
Q 142.513607 56.101162 142.93654 61.107843 
L 141.236516 61.107843 
Q 140.924154 58.309665 139.948368 57.030179 
Q 138.972582 55.750694 137.485406 55.750694 
Q 135.724569 55.750694 134.519348 58.415361 
Q 133.314128 61.074466 133.314128 66.342607 
Q 133.314128 70.893124 134.3065 73.752496 
Q 135.301636 76.611867 137.54622 76.611867 
Q 139.265594 76.611867 140.393415 74.609195 
Q 141.521235 72.600959 141.546114 68.111635 
L 137.573863 68.111635 
L 137.573863 65.2467 
L 143.14386 65.2467 
L 143.14386 78.909378 
L 142.038153 78.909378 
L 141.623513 75.621657 
Q 140.752769 77.552011 140.078288 78.303013 
Q 138.944939 79.588062 137.200687 79.588062 
Q 134.94781 79.588062 133.322421 76.650808 
Q 131.550526 72.962553 131.550526 66.531748 
Q 131.550526 60.117633 133.278193 56.329244 
Q 134.920167 52.713307 137.529635 52.713307 
z
M 137.244915 52.674366 
L 137.244915 52.674366 
z
" style="fill:#ffa600;"/>
   </g>
   <g id="patch_11">
    <path clip-path="url(#p16ece7ee7c)" d="M 149.733143 85.278261 
Q 151.521624 85.278261 152.826357 85.591583 
Q 154.717116 86.041514 155.140048 87.169474 
L 153.440025 87.169474 
Q 153.127662 86.53907 152.151876 86.250813 
Q 151.17609 85.962557 149.688915 85.962557 
Q 147.928077 85.962557 146.722857 86.562882 
Q 145.517637 87.161954 145.517637 88.348818 
Q 145.517637 89.374008 146.510009 90.018199 
Q 147.505145 90.662389 149.749729 90.662389 
Q 151.469103 90.662389 152.596923 90.211205 
Q 153.724744 89.758768 153.749622 88.747364 
L 149.777372 88.747364 
L 149.777372 88.10192 
L 155.347368 88.10192 
L 155.347368 91.179997 
L 154.241662 91.179997 
L 153.827022 90.439304 
Q 152.956278 90.874195 152.281797 91.043389 
Q 151.148448 91.332898 149.404196 91.332898 
Q 147.151319 91.332898 145.52593 90.671162 
Q 143.754035 89.840232 143.754035 88.39143 
Q 143.754035 86.946388 145.481702 86.092899 
Q 147.123676 85.278261 149.733143 85.278261 
z
M 149.448424 85.269488 
L 149.448424 85.269488 
z
" style="fill:#ffa600;"/>
   </g>
   <g id="patch_12">
    <path clip-path="url(#p16ece7ee7c)" d="M 151.535745 77.219537 
L 149.563435 68.540482 
L 147.466618 77.219537 
L 151.535745 77.219537 
z
M 148.643779 65.621787 
L 150.633067 65.621787 
L 155.347368 85.269488 
L 153.417504 85.269488 
L 152.101688 79.385021 
L 146.962929 79.385021 
L 145.556562 85.269488 
L 143.754035 85.269488 
L 148.643779 65.621787 
z
M 149.554946 65.621787 
L 149.554946 65.621787 
z
" style="fill:#008000;"/>
   </g>
   <g id="patch_13">
    <path clip-path="url(#p16ece7ee7c)" d="M 161.936652 62.163943 
Q 163.725132 62.163943 165.029866 63.673411 
Q 166.920624 65.841007 167.343557 71.275091 
L 165.643533 71.275091 
Q 165.331171 68.238041 164.355385 66.849331 
Q 163.379599 65.460621 161.892424 65.460621 
Q 160.131586 65.460621 158.926366 68.352761 
Q 157.721146 71.238863 157.721146 76.956727 
Q 157.721146 81.895706 158.713517 84.999172 
Q 159.708653 88.102637 161.953238 88.102637 
Q 163.672611 88.102637 164.800432 85.929004 
Q 165.928253 83.749332 165.953131 78.87677 
L 161.98088 78.87677 
L 161.98088 75.767267 
L 167.550877 75.767267 
L 167.550877 90.596278 
L 166.445171 90.596278 
L 166.030531 87.027896 
Q 165.159787 89.123037 164.485306 89.93815 
Q 163.351957 91.332898 161.607704 91.332898 
Q 159.354827 91.332898 157.729439 88.144902 
Q 155.957544 84.141794 155.957544 77.162015 
Q 155.957544 70.20035 157.68521 66.088559 
Q 159.327185 62.163943 161.936652 62.163943 
z
M 161.651933 62.121678 
L 161.651933 62.121678 
z
" style="fill:#ffa600;"/>
   </g>
   <g id="patch_14">
    <path clip-path="url(#p16ece7ee7c)" d="M 175.942763 88.84863 
L 173.970453 86.170217 
L 171.873636 88.84863 
L 175.942763 88.84863 
z
M 173.050796 85.269488 
L 175.040084 85.269488 
L 179.754386 91.332898 
L 177.824522 91.332898 
L 176.508705 89.516913 
L 171.369947 89.516913 
L 169.96358 91.332898 
L 168.161053 91.332898 
L 173.050796 85.269488 
z
M 173.961964 85.269488 
L 173.961964 85.269488 
z
" style="fill:#008000;"/>
   </g>
   <g id="patch_15">
    <path clip-path="url(#p16ece7ee7c)" d="M 174.256663 63.134196 
Q 176.739322 63.134196 178.10877 65.240139 
Q 179.478219 67.341504 179.629114 70.015136 
L 177.90378 70.015136 
Q 177.61053 67.987021 176.733628 66.801284 
Q 175.856726 65.610968 174.273746 65.610968 
Q 172.343422 65.610968 171.156187 67.79474 
Q 169.968952 69.973933 169.968952 74.47882 
Q 169.968952 78.173376 171.039456 80.471601 
Q 172.112808 82.765247 174.239581 82.765247 
Q 176.195529 82.765247 177.22048 80.347991 
Q 177.761426 79.075269 178.029052 76.996795 
L 179.754386 76.996795 
Q 179.523772 80.315944 178.225501 82.563809 
Q 176.668145 85.269488 174.026049 85.269488 
Q 171.748381 85.269488 170.199566 83.049092 
Q 168.161053 80.119084 168.161053 73.993537 
Q 168.161053 69.346728 169.692785 66.370939 
Q 171.346942 63.134196 174.256663 63.134196 
z
M 173.900778 63.134196 
L 173.900778 63.134196 
z
" style="fill:#0000ff;"/>
   </g>
   <g id="patch_16">
    <path clip-path="url(#p16ece7ee7c)" d="M 186.34367 88.254723 
Q 188.13215 88.254723 189.436884 88.414016 
Q 191.327642 88.64276 191.750575 89.216215 
L 190.050551 89.216215 
Q 189.738189 88.895717 188.762403 88.749168 
Q 187.786617 88.602618 186.299441 88.602618 
Q 184.538604 88.602618 183.333384 88.907824 
Q 182.128163 89.212392 182.128163 89.815793 
Q 182.128163 90.336999 183.120535 90.664505 
Q 184.115671 90.992012 186.360255 90.992012 
Q 188.079629 90.992012 189.20745 90.76263 
Q 190.33527 90.532611 190.360149 90.018414 
L 186.387898 90.018414 
L 186.387898 89.69027 
L 191.957895 89.69027 
L 191.957895 91.255163 
L 190.852188 91.255163 
L 190.437548 90.878595 
Q 189.566804 91.099694 188.892323 91.185712 
Q 187.758974 91.332898 186.014722 91.332898 
Q 183.761845 91.332898 182.136456 90.996472 
Q 180.364561 90.574027 180.364561 89.837457 
Q 180.364561 89.102798 182.092228 88.668884 
Q 183.734202 88.254723 186.34367 88.254723 
z
M 186.05895 88.250263 
L 186.05895 88.250263 
z
" style="fill:#ffa600;"/>
   </g>
   <g id="patch_17">
    <path clip-path="url(#p16ece7ee7c)" d="M 186.460172 71.160693 
Q 188.942831 71.160693 190.312279 72.786588 
Q 191.681727 74.408948 191.832623 76.473128 
L 190.107289 76.473128 
Q 189.814039 74.907321 188.937137 73.991871 
Q 188.060234 73.072887 186.477255 73.072887 
Q 184.54693 73.072887 183.359696 74.758869 
Q 182.172461 76.441317 182.172461 79.919318 
Q 182.172461 82.771704 183.242965 84.54605 
Q 184.316316 86.316861 186.44309 86.316861 
Q 188.399038 86.316861 189.423988 84.450617 
Q 189.964935 83.468011 190.232561 81.863323 
L 191.957895 81.863323 
Q 191.727281 84.425875 190.42901 86.161341 
Q 188.871654 88.250263 186.229558 88.250263 
Q 183.951889 88.250263 182.403075 86.536004 
Q 180.364561 84.273889 180.364561 79.544656 
Q 180.364561 75.957083 181.896294 73.659623 
Q 183.55045 71.160693 186.460172 71.160693 
z
M 186.104286 71.160693 
L 186.104286 71.160693 
z
" style="fill:#0000ff;"/>
   </g>
   <g id="patch_18">
    <path clip-path="url(#p16ece7ee7c)" d="M 200.34978 82.263745 
L 198.377471 72.485837 
L 196.280653 82.263745 
L 200.34978 82.263745 
z
M 197.457814 69.197606 
L 199.447102 69.197606 
L 204.161404 91.332898 
L 202.231539 91.332898 
L 200.915723 84.7034 
L 195.776964 84.7034 
L 194.370597 91.332898 
L 192.56807 91.332898 
L 197.457814 69.197606 
z
M 198.368981 69.197606 
L 198.368981 69.197606 
z
" style="fill:#008000;"/>
   </g>
   <g id="patch_19">
    <path clip-path="url(#p16ece7ee7c)" d="M 210.86719 74.243329 
Q 213.349848 74.243329 214.719297 75.869224 
Q 216.088745 77.491584 216.239641 79.555764 
L 214.514307 79.555764 
Q 214.221057 77.989956 213.344154 77.074507 
Q 212.467252 76.155523 210.884272 76.155523 
Q 208.953948 76.155523 207.766713 77.841505 
Q 206.579478 79.523953 206.579478 83.001954 
Q 206.579478 85.854339 207.649983 87.628685 
Q 208.723334 89.399497 210.850107 89.399497 
Q 212.806055 89.399497 213.831006 87.533253 
Q 214.371952 86.550646 214.639578 84.945959 
L 216.364912 84.945959 
Q 216.134298 87.508511 214.836027 89.243977 
Q 213.278671 91.332898 210.636576 91.332898 
Q 208.358907 91.332898 206.810092 89.61864 
Q 204.771579 87.356525 204.771579 82.627291 
Q 204.771579 79.039719 206.303311 76.742259 
Q 207.957468 74.243329 210.86719 74.243329 
z
M 210.511304 74.243329 
L 210.511304 74.243329 
z
" style="fill:#0000ff;"/>
   </g>
   <g id="patch_20">
    <path clip-path="url(#p16ece7ee7c)" d="M 210.750687 54.624055 
Q 212.539168 54.624055 213.843901 55.639335 
Q 215.73466 57.097277 216.157592 60.752286 
L 214.457568 60.752286 
Q 214.145206 58.709542 213.16942 57.775485 
Q 212.193634 56.841427 210.706459 56.841427 
Q 208.945621 56.841427 207.740401 58.786704 
Q 206.535181 60.727919 206.535181 64.5738 
Q 206.535181 67.895797 207.527553 69.983213 
Q 208.522688 72.070629 210.767273 72.070629 
Q 212.486647 72.070629 213.614467 70.608626 
Q 214.742288 69.142561 214.767166 65.865237 
L 210.794915 65.865237 
L 210.794915 63.77376 
L 216.364912 63.77376 
L 216.364912 73.747872 
L 215.259206 73.747872 
L 214.844566 71.34775 
Q 213.973822 72.756959 213.299341 73.30521 
Q 212.165992 74.243329 210.421739 74.243329 
Q 208.168862 74.243329 206.543474 72.099057 
Q 204.771579 69.406534 204.771579 64.711879 
Q 204.771579 60.029406 206.499245 57.263783 
Q 208.14122 54.624055 210.750687 54.624055 
z
M 210.465968 54.595627 
L 210.465968 54.595627 
z
" style="fill:#ffa600;"/>
   </g>
   <g id="patch_21">
    <path clip-path="url(#p16ece7ee7c)" d="M 228.568421 88.250263 
L 228.568421 88.617547 
L 223.753686 88.617547 
L 223.753686 91.332898 
L 221.789822 91.332898 
L 221.789822 88.617547 
L 216.975088 88.617547 
L 216.975088 88.250263 
L 228.568421 88.250263 
z
" style="fill:#ff0000;"/>
   </g>
   <g id="patch_22">
    <path clip-path="url(#p16ece7ee7c)" d="M 223.070698 76.505426 
Q 225.553357 76.505426 226.922805 77.622825 
Q 228.292254 78.737795 228.443149 80.156406 
L 226.717815 80.156406 
Q 226.424565 79.080302 225.547663 78.451158 
Q 224.670761 77.819584 223.087781 77.819584 
Q 221.157457 77.819584 219.970222 78.978279 
Q 218.782987 80.134544 218.782987 82.524807 
Q 218.782987 84.485113 219.853491 85.704536 
Q 220.926843 86.921529 223.053616 86.921529 
Q 225.009564 86.921529 226.034515 85.638949 
Q 226.575461 84.963652 226.843087 83.860827 
L 228.568421 83.860827 
Q 228.337807 85.621945 227.039536 86.814648 
Q 225.48218 88.250263 222.840084 88.250263 
Q 220.562416 88.250263 219.013601 87.072135 
Q 216.975088 85.517493 216.975088 82.267319 
Q 216.975088 79.801753 218.50682 78.22282 
Q 220.160977 76.505426 223.070698 76.505426 
z
M 222.714813 76.505426 
L 222.714813 76.505426 
z
" style="fill:#0000ff;"/>
   </g>
   <g id="patch_23">
    <path clip-path="url(#p16ece7ee7c)" d="M 222.954196 56.886152 
Q 224.742676 56.886152 226.04741 57.901432 
Q 227.938168 59.359374 228.361101 63.014383 
L 226.661077 63.014383 
Q 226.348715 60.971639 225.372929 60.037582 
Q 224.397143 59.103524 222.909968 59.103524 
Q 221.14913 59.103524 219.94391 61.048801 
Q 218.73869 62.990016 218.73869 66.835898 
Q 218.73869 70.157894 219.731061 72.24531 
Q 220.726197 74.332726 222.970782 74.332726 
Q 224.690155 74.332726 225.817976 72.870723 
Q 226.945797 71.404658 226.970675 68.127334 
L 222.998424 68.127334 
L 222.998424 66.035857 
L 228.568421 66.035857 
L 228.568421 76.009969 
L 227.462714 76.009969 
L 227.048075 73.609847 
Q 226.177331 75.019056 225.50285 75.567307 
Q 224.3695 76.505426 222.625248 76.505426 
Q 220.372371 76.505426 218.746982 74.361154 
Q 216.975088 71.668631 216.975088 66.973976 
Q 216.975088 62.291504 218.702754 59.52588 
Q 220.344728 56.886152 222.954196 56.886152 
z
M 222.669477 56.857724 
L 222.669477 56.857724 
z
" style="fill:#ffa600;"/>
   </g>
   <g id="patch_24">
    <path clip-path="url(#p16ece7ee7c)" d="M 240.77193 85.269488 
L 240.77193 85.99192 
L 235.957195 85.99192 
L 235.957195 91.332898 
L 233.993331 91.332898 
L 233.993331 85.99192 
L 229.178596 85.99192 
L 229.178596 85.269488 
L 240.77193 85.269488 
z
" style="fill:#ff0000;"/>
   </g>
   <g id="patch_25">
    <path clip-path="url(#p16ece7ee7c)" d="M 235.157705 65.650214 
Q 236.946185 65.650214 238.250919 66.665495 
Q 240.141677 68.123437 240.56461 71.778445 
L 238.864586 71.778445 
Q 238.552224 69.735702 237.576438 68.801644 
Q 236.600652 67.867586 235.113476 67.867586 
Q 233.352639 67.867586 232.147419 69.812863 
Q 230.942198 71.754079 230.942198 75.59996 
Q 230.942198 78.921957 231.93457 81.009373 
Q 232.929706 83.096789 235.17429 83.096789 
Q 236.893664 83.096789 238.021485 81.634785 
Q 239.149305 80.168721 239.174184 76.891396 
L 235.201933 76.891396 
L 235.201933 74.799919 
L 240.77193 74.799919 
L 240.77193 84.774032 
L 239.666223 84.774032 
L 239.251583 82.373909 
Q 238.380839 83.783118 237.706358 84.331369 
Q 236.573009 85.269488 234.828757 85.269488 
Q 232.57588 85.269488 230.950491 83.125217 
Q 229.178596 80.432694 229.178596 75.738038 
Q 229.178596 71.055566 230.906263 68.289943 
Q 232.548237 65.650214 235.157705 65.650214 
z
M 234.872985 65.621787 
L 234.872985 65.621787 
z
" style="fill:#ffa600;"/>
   </g>
   <g id="patch_26">
    <path clip-path="url(#p16ece7ee7c)" d="M 249.163815 90.069897 
L 247.191506 88.708193 
L 245.094688 90.069897 
L 249.163815 90.069897 
z
M 246.271849 88.250263 
L 248.261137 88.250263 
L 252.975439 91.332898 
L 251.045574 91.332898 
L 249.729758 90.409652 
L 244.591 90.409652 
L 243.184632 91.332898 
L 241.382105 91.332898 
L 246.271849 88.250263 
z
M 247.183016 88.250263 
L 247.183016 88.250263 
z
" style="fill:#008000;"/>
   </g>
   <g id="patch_27">
    <path clip-path="url(#p16ece7ee7c)" d="M 247.361214 76.522419 
Q 249.149694 76.522419 250.454428 77.129325 
Q 252.345186 78.000841 252.768119 80.185701 
L 251.068095 80.185701 
Q 250.755733 78.964607 249.779947 78.406254 
Q 248.804161 77.847901 247.316985 77.847901 
Q 245.556148 77.847901 244.350927 79.010732 
Q 243.145707 80.171136 243.145707 82.470094 
Q 243.145707 84.455889 244.138079 85.703687 
Q 245.133215 86.951485 247.377799 86.951485 
Q 249.097173 86.951485 250.224994 86.077541 
Q 251.352814 85.201169 251.377693 83.242078 
L 247.405442 83.242078 
L 247.405442 81.991852 
L 252.975439 81.991852 
L 252.975439 87.954093 
L 251.869732 87.954093 
L 251.455092 86.519368 
Q 250.584348 87.361753 249.909867 87.689482 
Q 248.776518 88.250263 247.032266 88.250263 
Q 244.779389 88.250263 243.154 86.968478 
Q 241.382105 85.358964 241.382105 82.552633 
Q 241.382105 79.753585 243.109772 78.100374 
Q 244.751746 76.522419 247.361214 76.522419 
z
M 247.076494 76.505426 
L 247.076494 76.505426 
z
" style="fill:#ffa600;"/>
   </g>
   <g id="patch_28">
    <path clip-path="url(#p16ece7ee7c)" d="M 259.564722 79.605055 
Q 261.353203 79.605055 262.657936 80.21196 
Q 264.548695 81.083477 264.971627 83.268337 
L 263.271604 83.268337 
Q 262.959241 82.047243 261.983455 81.48889 
Q 261.007669 80.930537 259.520494 80.930537 
Q 257.759656 80.930537 256.554436 82.093368 
Q 255.349216 83.253771 255.349216 85.55273 
Q 255.349216 87.538525 256.341588 88.786322 
Q 257.336724 90.03412 259.581308 90.03412 
Q 261.300682 90.03412 262.428502 89.160176 
Q 263.556323 88.283805 263.581201 86.324713 
L 259.608951 86.324713 
L 259.608951 85.074488 
L 265.178947 85.074488 
L 265.178947 91.036728 
L 264.073241 91.036728 
L 263.658601 89.602004 
Q 262.787857 90.444389 262.113376 90.772118 
Q 260.980027 91.332898 259.235775 91.332898 
Q 256.982897 91.332898 255.357509 90.051114 
Q 253.585614 88.4416 253.585614 85.635269 
Q 253.585614 82.83622 255.313281 81.183009 
Q 256.955255 79.605055 259.564722 79.605055 
z
M 259.280003 79.588062 
L 259.280003 79.588062 
z
" style="fill:#ffa600;"/>
   </g>
   <g id="patch_29">
    <path clip-path="url(#p16ece7ee7c)" d="M 259.681225 59.94036 
Q 262.163884 59.94036 263.533332 61.809634 
Q 264.90278 63.674845 265.053676 66.048011 
L 263.328342 66.048011 
Q 263.035092 64.247819 262.158189 63.195336 
Q 261.281287 62.138789 259.698307 62.138789 
Q 257.767983 62.138789 256.580748 64.077146 
Q 255.393514 66.011439 255.393514 70.010061 
Q 255.393514 73.289419 256.464018 75.329366 
Q 257.537369 77.36525 259.664142 77.36525 
Q 261.62009 77.36525 262.645041 75.219648 
Q 263.185987 74.089956 263.453613 72.245063 
L 265.178947 72.245063 
Q 264.948333 75.191203 263.650062 77.18645 
Q 262.092706 79.588062 259.450611 79.588062 
Q 257.172942 79.588062 255.624127 77.617196 
Q 253.585614 75.016466 253.585614 69.579315 
Q 253.585614 65.45472 255.117346 62.813354 
Q 256.771503 59.94036 259.681225 59.94036 
z
M 259.325339 59.94036 
L 259.325339 59.94036 
z
" style="fill:#0000ff;"/>
   </g>
   <g id="patch_30">
    <path clip-path="url(#p16ece7ee7c)" d="M 273.570833 90.069897 
L 271.598523 88.708193 
L 269.501706 90.069897 
L 273.570833 90.069897 
z
M 270.678867 88.250263 
L 272.668155 88.250263 
L 277.382456 91.332898 
L 275.452592 91.332898 
L 274.136776 90.409652 
L 268.998017 90.409652 
L 267.59165 91.332898 
L 265.789123 91.332898 
L 270.678867 88.250263 
z
M 271.590034 88.250263 
L 271.590034 88.250263 
z
" style="fill:#008000;"/>
   </g>
   <g id="patch_31">
    <path clip-path="url(#p16ece7ee7c)" d="M 271.884733 82.186853 
Q 274.367392 82.186853 275.736841 82.763723 
Q 277.106289 83.339339 277.257184 84.071714 
L 275.53185 84.071714 
Q 275.238601 83.516163 274.361698 83.19136 
Q 273.484796 82.865302 271.901816 82.865302 
Q 269.971492 82.865302 268.784257 83.463492 
Q 267.597022 84.060427 267.597022 85.294429 
Q 267.597022 86.30646 268.667527 86.936001 
Q 269.740878 87.564288 271.867651 87.564288 
Q 273.823599 87.564288 274.84855 86.902141 
Q 275.389496 86.553511 275.657122 85.984165 
L 277.382456 85.984165 
Q 277.151842 86.893363 275.853571 87.509109 
Q 274.296215 88.250263 271.65412 88.250263 
Q 269.376451 88.250263 267.827636 87.642041 
Q 265.789123 86.839438 265.789123 85.161498 
Q 265.789123 83.88862 267.320855 83.073477 
Q 268.975012 82.186853 271.884733 82.186853 
z
M 271.528848 82.186853 
L 271.528848 82.186853 
z
" style="fill:#0000ff;"/>
   </g>
   <g id="patch_32">
    <path clip-path="url(#p16ece7ee7c)" d="M 271.768231 73.25096 
Q 273.556711 73.25096 274.861445 73.713385 
Q 276.752203 74.377427 277.175136 76.042155 
L 275.475112 76.042155 
Q 275.16275 75.111757 274.186964 74.686326 
Q 273.211178 74.260896 271.724003 74.260896 
Q 269.963165 74.260896 268.757945 75.146901 
Q 267.552725 76.031057 267.552725 77.782721 
Q 267.552725 79.295774 268.545096 80.246519 
Q 269.540232 81.197264 271.784817 81.197264 
Q 273.50419 81.197264 274.632011 80.531373 
Q 275.759832 79.863632 275.78471 78.370925 
L 271.812459 78.370925 
L 271.812459 77.41833 
L 277.382456 77.41833 
L 277.382456 81.961189 
L 276.27675 81.961189 
L 275.86211 80.868018 
Q 274.991366 81.509863 274.316885 81.759572 
Q 273.183535 82.186853 271.439283 82.186853 
Q 269.186406 82.186853 267.561018 81.210212 
Q 265.789123 79.983862 265.789123 77.845611 
Q 265.789123 75.712909 267.516789 74.453264 
Q 269.158764 73.25096 271.768231 73.25096 
z
M 271.483512 73.238012 
L 271.483512 73.238012 
z
" style="fill:#ffa600;"/>
   </g>
   <g id="patch_33">
    <path clip-path="url(#p16ece7ee7c)" d="M 283.97174 88.254723 
Q 285.76022 88.254723 287.064954 88.414016 
Q 288.955712 88.64276 289.378645 89.216215 
L 287.678621 89.216215 
Q 287.366259 88.895717 286.390473 88.749168 
Q 285.414687 88.602618 283.927512 88.602618 
Q 282.166674 88.602618 280.961454 88.907824 
Q 279.756234 89.212392 279.756234 89.815793 
Q 279.756234 90.336999 280.748605 90.664505 
Q 281.743741 90.992012 283.988325 90.992012 
Q 285.707699 90.992012 286.83552 90.76263 
Q 287.963341 90.532611 287.988219 90.018414 
L 284.015968 90.018414 
L 284.015968 89.69027 
L 289.585965 89.69027 
L 289.585965 91.255163 
L 288.480258 91.255163 
L 288.065618 90.878595 
Q 287.194874 91.099694 286.520393 91.185712 
Q 285.387044 91.332898 283.642792 91.332898 
Q 281.389915 91.332898 279.764526 90.996472 
Q 277.992632 90.574027 277.992632 89.837457 
Q 277.992632 89.102798 279.720298 88.668884 
Q 281.362272 88.254723 283.97174 88.254723 
z
M 283.68702 88.250263 
L 283.68702 88.250263 
z
" style="fill:#ffa600;"/>
   </g>
   <g id="patch_34">
    <path clip-path="url(#p16ece7ee7c)" d="M 289.585965 82.186853 
L 289.585965 82.909285 
L 284.77123 82.909285 
L 284.77123 88.250263 
L 282.807366 88.250263 
L 282.807366 82.909285 
L 277.992632 82.909285 
L 277.992632 82.186853 
L 289.585965 82.186853 
z
" style="fill:#ff0000;"/>
   </g>
   <g id="patch_35">
    <path clip-path="url(#p16ece7ee7c)" d="M 296.175249 64.458144 
Q 297.963729 64.458144 299.268463 65.848889 
Q 301.159221 67.845999 301.582154 72.85268 
L 299.88213 72.85268 
Q 299.569768 70.054501 298.593982 68.775016 
Q 297.618196 67.495531 296.13102 67.495531 
Q 294.370183 67.495531 293.164962 70.160198 
Q 291.959742 72.819302 291.959742 78.087444 
Q 291.959742 82.637961 292.952114 85.497333 
Q 293.94725 88.356704 296.191834 88.356704 
Q 297.911208 88.356704 299.039029 86.354032 
Q 300.166849 84.345796 300.191728 79.856471 
L 296.219477 79.856471 
L 296.219477 76.991537 
L 301.789474 76.991537 
L 301.789474 90.654215 
L 300.683767 90.654215 
L 300.269127 87.366494 
Q 299.398383 89.296848 298.723902 90.04785 
Q 297.590553 91.332898 295.846301 91.332898 
Q 293.593424 91.332898 291.968035 88.395645 
Q 290.19614 84.70739 290.19614 78.276585 
Q 290.19614 71.86247 291.923807 68.074081 
Q 293.565781 64.458144 296.175249 64.458144 
z
M 295.890529 64.419203 
L 295.890529 64.419203 
z
" style="fill:#ffa600;"/>
   </g>
   <g id="patch_36">
    <path clip-path="url(#p16ece7ee7c)" d="M 310.181359 87.666427 
L 308.209049 83.713422 
L 306.112232 87.666427 
L 310.181359 87.666427 
z
M 307.289393 82.384058 
L 309.278681 82.384058 
L 313.992982 91.332898 
L 312.063118 91.332898 
L 310.747302 88.652729 
L 305.608543 88.652729 
L 304.202176 91.332898 
L 302.399649 91.332898 
L 307.289393 82.384058 
z
M 308.20056 82.384058 
L 308.20056 82.384058 
z
" style="fill:#008000;"/>
   </g>
   <g id="patch_37">
    <path clip-path="url(#p16ece7ee7c)" d="M 308.378757 55.509304 
Q 310.167238 55.509304 311.471971 56.900049 
Q 313.36273 58.897158 313.785662 63.90384 
L 312.085639 63.90384 
Q 311.773277 61.105661 310.79749 59.826176 
Q 309.821704 58.546691 308.334529 58.546691 
Q 306.573691 58.546691 305.368471 61.211358 
Q 304.163251 63.870462 304.163251 69.138604 
Q 304.163251 73.689121 305.155623 76.548493 
Q 306.150759 79.407864 308.395343 79.407864 
Q 310.114717 79.407864 311.242537 77.405191 
Q 312.370358 75.396956 312.395236 70.907631 
L 308.422986 70.907631 
L 308.422986 68.042697 
L 313.992982 68.042697 
L 313.992982 81.705375 
L 312.887276 81.705375 
L 312.472636 78.417654 
Q 311.601892 80.348008 310.927411 81.09901 
Q 309.794062 82.384058 308.04981 82.384058 
Q 305.796933 82.384058 304.171544 79.446805 
Q 302.399649 75.758549 302.399649 69.327745 
Q 302.399649 62.91363 304.127316 59.125241 
Q 305.76929 55.509304 308.378757 55.509304 
z
M 308.094038 55.470363 
L 308.094038 55.470363 
z
" style="fill:#ffa600;"/>
   </g>
   <g id="patch_38">
    <path clip-path="url(#p16ece7ee7c)" d="M 320.698769 76.876121 
Q 323.181427 76.876121 324.550876 78.251533 
Q 325.920324 79.623955 326.071219 81.37013 
L 324.345885 81.37013 
Q 324.052636 80.045549 323.175733 79.271132 
Q 322.298831 78.493725 320.715851 78.493725 
Q 318.785527 78.493725 317.598292 79.919968 
Q 316.411057 81.34322 316.411057 84.285406 
Q 316.411057 86.698357 317.481562 88.199351 
Q 318.554913 89.697354 320.681686 89.697354 
Q 322.637634 89.697354 323.662585 88.11862 
Q 324.203531 87.287393 324.471157 85.929921 
L 326.196491 85.929921 
Q 325.965877 88.09769 324.667606 89.565793 
Q 323.11025 91.332898 320.468155 91.332898 
Q 318.190486 91.332898 316.641671 89.882735 
Q 314.603158 87.969119 314.603158 83.968463 
Q 314.603158 80.933586 316.13489 78.990069 
Q 317.789047 76.876121 320.698769 76.876121 
z
M 320.342883 76.876121 
L 320.342883 76.876121 
z
" style="fill:#0000ff;"/>
   </g>
   <g id="patch_39">
    <path clip-path="url(#p16ece7ee7c)" d="M 332.902277 88.250263 
Q 335.384936 88.250263 336.754384 88.543543 
Q 338.123833 88.836187 338.274728 89.208526 
L 336.549394 89.208526 
Q 336.256144 88.926083 335.379242 88.760954 
Q 334.50234 88.595186 332.91936 88.595186 
Q 330.989036 88.595186 329.801801 88.899306 
Q 328.614566 89.202787 328.614566 89.830153 
Q 328.614566 90.34467 329.68507 90.664728 
Q 330.758422 90.984149 332.885195 90.984149 
Q 334.841143 90.984149 335.866094 90.647514 
Q 336.40704 90.47027 336.674666 90.180815 
L 338.4 90.180815 
Q 338.169386 90.643051 336.871115 90.956096 
Q 335.313759 91.332898 332.671663 91.332898 
Q 330.393995 91.332898 328.84518 91.023678 
Q 326.806667 90.615636 326.806667 89.762571 
Q 326.806667 89.115441 328.338399 88.701022 
Q 329.992556 88.250263 332.902277 88.250263 
z
M 332.546392 88.250263 
L 332.546392 88.250263 
z
" style="fill:#0000ff;"/>
   </g>
   <g id="patch_40">
    <path clip-path="url(#p16ece7ee7c)" d="M 332.785775 68.630989 
Q 334.574255 68.630989 335.878989 69.646269 
Q 337.769747 71.104211 338.19268 74.75922 
L 336.492656 74.75922 
Q 336.180294 72.716476 335.204508 71.782418 
Q 334.228722 70.848361 332.741547 70.848361 
Q 330.980709 70.848361 329.775489 72.793637 
Q 328.570269 74.734853 328.570269 78.580734 
Q 328.570269 81.902731 329.56264 83.990147 
Q 330.557776 86.077563 332.802361 86.077563 
Q 334.521734 86.077563 335.649555 84.61556 
Q 336.777376 83.149495 336.802254 79.872171 
L 332.830003 79.872171 
L 332.830003 77.780694 
L 338.4 77.780694 
L 338.4 87.754806 
L 337.294293 87.754806 
L 336.879653 85.354684 
Q 336.00891 86.763892 335.334429 87.312144 
Q 334.201079 88.250263 332.456827 88.250263 
Q 330.20395 88.250263 328.578561 86.105991 
Q 326.806667 83.413468 326.806667 78.718812 
Q 326.806667 74.03634 328.534333 71.270717 
Q 330.176307 68.630989 332.785775 68.630989 
z
M 332.501055 68.602561 
L 332.501055 68.602561 
z
" style="fill:#ffa600;"/>
   </g>
   <g id="patch_41">
    <path clip-path="url(#p16ece7ee7c)" d="M 102.72171 101.786928 
L 100.7494 106.175664 
L 98.652583 101.786928 
L 102.72171 101.786928 
z
M 99.829744 107.651561 
L 101.819032 107.651561 
L 106.533333 97.71631 
L 104.603469 97.71631 
L 103.287653 100.691908 
L 98.148894 100.691908 
L 96.742527 97.71631 
L 94.94 97.71631 
L 99.829744 107.651561 
z
M 100.740911 107.651561 
L 100.740911 107.651561 
z
" style="fill:none;opacity:0;"/>
   </g>
   <g id="patch_42">
    <path clip-path="url(#p16ece7ee7c)" d="M 101.035611 97.71631 
Q 103.518269 97.71631 104.887718 97.412652 
Q 106.257166 97.109655 106.408062 96.724142 
L 104.682728 96.724142 
Q 104.389478 97.016577 103.512575 97.187549 
Q 102.635673 97.359182 101.052693 97.359182 
Q 99.122369 97.359182 97.935134 97.044302 
Q 96.747899 96.730083 96.747899 96.080519 
Q 96.747899 95.547798 97.818404 95.216415 
Q 98.891755 94.885693 101.018528 94.885693 
Q 102.974476 94.885693 103.999427 95.234239 
Q 104.540373 95.417754 104.807999 95.71745 
L 106.533333 95.71745 
Q 106.302719 95.23886 105.004448 94.914738 
Q 103.447092 94.524604 100.804997 94.524604 
Q 98.527328 94.524604 96.978513 94.844765 
Q 94.94 95.267245 94.94 96.150493 
Q 94.94 96.82052 96.471732 97.249601 
Q 98.125889 97.71631 101.035611 97.71631 
z
M 100.679725 97.71631 
L 100.679725 97.71631 
z
" style="fill:none;opacity:0;"/>
   </g>
   <g id="patch_43">
    <path clip-path="url(#p16ece7ee7c)" d="M 100.919108 94.519986 
Q 102.707589 94.519986 104.012322 94.355057 
Q 105.903081 94.118219 106.326013 93.524475 
L 104.62599 93.524475 
Q 104.313627 93.856312 103.337841 94.008046 
Q 102.362055 94.159781 100.87488 94.159781 
Q 99.114042 94.159781 97.908822 93.843777 
Q 96.703602 93.528433 96.703602 92.903682 
Q 96.703602 92.364034 97.695974 92.02494 
Q 98.69111 91.685846 100.935694 91.685846 
Q 102.655068 91.685846 103.782888 91.923344 
Q 104.910709 92.161502 104.935587 92.693892 
L 100.963337 92.693892 
L 100.963337 93.033646 
L 106.533333 93.033646 
L 106.533333 91.413384 
L 105.427627 91.413384 
L 105.012987 91.803276 
Q 104.142243 91.574354 103.467762 91.485293 
Q 102.334413 91.332898 100.590161 91.332898 
Q 98.337283 91.332898 96.711895 91.681228 
Q 94.94 92.11862 94.94 92.881252 
Q 94.94 93.641904 96.667667 94.091171 
Q 98.309641 94.519986 100.919108 94.519986 
z
M 100.634389 94.524604 
L 100.634389 94.524604 
z
" style="fill:none;opacity:0;"/>
   </g>
   <g id="patch_44">
    <path clip-path="url(#p16ece7ee7c)" d="M 114.925219 99.978543 
L 112.952909 109.299844 
L 110.856092 99.978543 
L 114.925219 99.978543 
z
M 112.033252 112.434522 
L 114.022541 112.434522 
L 118.736842 91.332898 
L 116.806978 91.332898 
L 115.491162 97.652814 
L 110.352403 97.652814 
L 108.946036 91.332898 
L 107.143509 91.332898 
L 112.033252 112.434522 
z
M 112.94442 112.434522 
L 112.94442 112.434522 
z
" style="fill:none;opacity:0;"/>
   </g>
   <g id="patch_45">
    <path clip-path="url(#p16ece7ee7c)" d="M 127.128728 92.640587 
L 125.156418 94.050471 
L 123.059601 92.640587 
L 127.128728 92.640587 
z
M 124.236761 94.524604 
L 126.226049 94.524604 
L 130.940351 91.332898 
L 129.010487 91.332898 
L 127.69467 92.288811 
L 122.555912 92.288811 
L 121.149545 91.332898 
L 119.347018 91.332898 
L 124.236761 94.524604 
z
M 125.147929 94.524604 
L 125.147929 94.524604 
z
" style="fill:none;opacity:0;"/>
   </g>
   <g id="patch_46">
    <path clip-path="url(#p16ece7ee7c)" d="M 125.326126 119.641761 
Q 127.114606 119.641761 128.41934 118.34197 
Q 130.310098 116.47547 130.733031 111.796224 
L 129.033007 111.796224 
Q 128.720645 114.411403 127.744859 115.60721 
Q 126.769073 116.803018 125.281898 116.803018 
Q 123.52106 116.803018 122.31584 114.312619 
Q 121.11062 111.827419 121.11062 106.903811 
Q 121.11062 102.650896 122.102991 99.978526 
Q 123.098127 97.306156 125.342711 97.306156 
Q 127.062085 97.306156 128.189906 99.177855 
Q 129.317726 101.054753 129.342605 105.250477 
L 125.370354 105.250477 
L 125.370354 107.928046 
L 130.940351 107.928046 
L 130.940351 95.158902 
L 129.834644 95.158902 
L 129.420004 98.231607 
Q 128.54926 96.427498 127.874779 95.725611 
Q 126.74143 94.524604 124.997178 94.524604 
Q 122.744301 94.524604 121.118912 97.269762 
Q 119.347018 100.716807 119.347018 106.72704 
Q 119.347018 112.721675 121.074684 116.262305 
Q 122.716658 119.641761 125.326126 119.641761 
z
M 125.041406 119.678155 
L 125.041406 119.678155 
z
" style="fill:none;opacity:0;"/>
   </g>
   <g id="patch_47">
    <path clip-path="url(#p16ece7ee7c)" d="M 139.332237 126.792228 
L 137.359927 137.903402 
L 135.26311 126.792228 
L 139.332237 126.792228 
z
M 136.44027 141.64 
L 138.429558 141.64 
L 143.14386 116.486449 
L 141.213996 116.486449 
L 139.898179 124.019913 
L 134.759421 124.019913 
L 133.353053 116.486449 
L 131.550526 116.486449 
L 136.44027 141.64 
z
M 137.351438 141.64 
L 137.351438 141.64 
z
" style="fill:none;opacity:0;"/>
   </g>
   <g id="patch_48">
    <path clip-path="url(#p16ece7ee7c)" d="M 143.14386 116.486449 
L 143.14386 113.4895 
L 138.329125 113.4895 
L 138.329125 91.332898 
L 136.365261 91.332898 
L 136.365261 113.4895 
L 131.550526 113.4895 
L 131.550526 116.486449 
L 143.14386 116.486449 
z
" style="fill:none;opacity:0;"/>
   </g>
   <g id="patch_49">
    <path clip-path="url(#p16ece7ee7c)" d="M 149.849646 97.833382 
Q 152.332305 97.833382 153.701753 97.214929 
Q 155.071201 96.59782 155.222097 95.812653 
L 153.496763 95.812653 
Q 153.203513 96.40825 152.32661 96.756466 
Q 151.449708 97.106027 149.866728 97.106027 
Q 147.936404 97.106027 146.749169 96.464718 
Q 145.561935 95.824753 145.561935 94.5018 
Q 145.561935 93.416818 146.632439 92.741897 
Q 147.70579 92.06832 149.832563 92.06832 
Q 151.788511 92.06832 152.813462 92.778197 
Q 153.354408 93.151958 153.622034 93.762345 
L 155.347368 93.762345 
Q 155.116754 92.787608 153.818483 92.127477 
Q 152.261127 91.332898 149.619032 91.332898 
Q 147.341363 91.332898 145.792549 91.984963 
Q 143.754035 92.84542 143.754035 94.644313 
Q 143.754035 96.008944 145.285767 96.882846 
Q 146.939924 97.833382 149.849646 97.833382 
z
M 149.49376 97.833382 
L 149.49376 97.833382 
z
" style="fill:none;opacity:0;"/>
   </g>
   <g id="patch_50">
    <path clip-path="url(#p16ece7ee7c)" d="M 155.347368 122.986933 
L 155.347368 119.989984 
L 150.532634 119.989984 
L 150.532634 97.833382 
L 148.56877 97.833382 
L 148.56877 119.989984 
L 143.754035 119.989984 
L 143.754035 122.986933 
L 155.347368 122.986933 
z
" style="fill:none;opacity:0;"/>
   </g>
   <g id="patch_51">
    <path clip-path="url(#p16ece7ee7c)" d="M 163.739254 115.144659 
L 161.766944 126.255834 
L 159.670127 115.144659 
L 163.739254 115.144659 
z
M 160.847288 129.992432 
L 162.836576 129.992432 
L 167.550877 104.838881 
L 165.621013 104.838881 
L 164.305197 112.372345 
L 159.166438 112.372345 
L 157.760071 104.838881 
L 155.957544 104.838881 
L 160.847288 129.992432 
z
M 161.758455 129.992432 
L 161.758455 129.992432 
z
" style="fill:none;opacity:0;"/>
   </g>
   <g id="patch_52">
    <path clip-path="url(#p16ece7ee7c)" d="M 167.550877 104.838881 
L 167.550877 103.229695 
L 162.736143 103.229695 
L 162.736143 91.332898 
L 160.772279 91.332898 
L 160.772279 103.229695 
L 155.957544 103.229695 
L 155.957544 104.838881 
L 167.550877 104.838881 
z
" style="fill:none;opacity:0;"/>
   </g>
   <g id="patch_53">
    <path clip-path="url(#p16ece7ee7c)" d="M 174.140161 127.186907 
Q 175.928641 127.186907 177.233375 125.667888 
Q 179.124133 123.486577 179.547066 118.018108 
L 177.847042 118.018108 
Q 177.53468 121.074375 176.558894 122.471872 
Q 175.583108 123.86937 174.095933 123.86937 
Q 172.335095 123.86937 171.129875 120.958929 
Q 169.924655 118.054565 169.924655 112.30052 
Q 169.924655 107.33029 170.917026 104.207186 
Q 171.912162 101.084083 174.156746 101.084083 
Q 175.87612 101.084083 177.003941 103.271471 
Q 178.131762 105.464934 178.15664 110.368328 
L 174.184389 110.368328 
L 174.184389 113.497507 
L 179.754386 113.497507 
L 179.754386 98.574663 
L 178.648679 98.574663 
L 178.234039 102.165625 
Q 177.363296 100.057226 176.688815 99.236956 
Q 175.555465 97.833382 173.811213 97.833382 
Q 171.558336 97.833382 169.932947 101.041551 
Q 168.161053 105.069989 168.161053 112.093934 
Q 168.161053 119.09965 169.888719 123.237458 
Q 171.530693 127.186907 174.140161 127.186907 
z
M 173.855441 127.22944 
L 173.855441 127.22944 
z
" style="fill:none;opacity:0;"/>
   </g>
   <g id="patch_54">
    <path clip-path="url(#p16ece7ee7c)" d="M 179.754386 97.833382 
L 179.754386 97.058874 
L 174.939651 97.058874 
L 174.939651 91.332898 
L 172.975787 91.332898 
L 172.975787 97.058874 
L 168.161053 97.058874 
L 168.161053 97.833382 
L 179.754386 97.833382 
z
" style="fill:none;opacity:0;"/>
   </g>
   <g id="patch_55">
    <path clip-path="url(#p16ece7ee7c)" d="M 188.146272 93.996242 
L 186.173962 96.867725 
L 184.077145 93.996242 
L 188.146272 93.996242 
z
M 185.254305 97.833382 
L 187.243593 97.833382 
L 191.957895 91.332898 
L 190.028031 91.332898 
L 188.712214 93.279787 
L 183.573456 93.279787 
L 182.167088 91.332898 
L 180.364561 91.332898 
L 185.254305 97.833382 
z
M 186.165473 97.833382 
L 186.165473 97.833382 
z
" style="fill:none;opacity:0;"/>
   </g>
   <g id="patch_56">
    <path clip-path="url(#p16ece7ee7c)" d="M 191.957895 115.057271 
L 191.957895 113.00511 
L 187.14316 113.00511 
L 187.14316 97.833382 
L 185.179296 97.833382 
L 185.179296 113.00511 
L 180.364561 113.00511 
L 180.364561 115.057271 
L 191.957895 115.057271 
z
" style="fill:none;opacity:0;"/>
   </g>
   <g id="patch_57">
    <path clip-path="url(#p16ece7ee7c)" d="M 198.663681 118.935006 
Q 201.14634 118.935006 202.515788 116.927406 
Q 203.885236 114.92417 204.036132 112.375391 
L 202.310798 112.375391 
Q 202.017548 114.308797 201.140645 115.439163 
Q 200.263743 116.573894 198.680763 116.573894 
Q 196.750439 116.573894 195.563204 114.4921 
Q 194.37597 112.41467 194.37597 108.120151 
Q 194.37597 104.598122 195.446474 102.407219 
Q 196.519825 100.220681 198.646598 100.220681 
Q 200.602546 100.220681 201.627497 102.525057 
Q 202.168443 103.738345 202.43607 105.71976 
L 204.161404 105.71976 
Q 203.93079 102.555607 202.632518 100.412712 
Q 201.075163 97.833382 198.433067 97.833382 
Q 196.155398 97.833382 194.606584 99.950091 
Q 192.56807 102.743274 192.56807 108.582772 
Q 192.56807 113.012586 194.099802 115.849412 
Q 195.753959 118.935006 198.663681 118.935006 
z
M 198.307795 118.935006 
L 198.307795 118.935006 
z
" style="fill:none;opacity:0;"/>
   </g>
   <g id="patch_58">
    <path clip-path="url(#p16ece7ee7c)" d="M 204.161404 97.833382 
L 204.161404 97.058874 
L 199.346669 97.058874 
L 199.346669 91.332898 
L 197.382805 91.332898 
L 197.382805 97.058874 
L 192.56807 97.058874 
L 192.56807 97.833382 
L 204.161404 97.833382 
z
" style="fill:none;opacity:0;"/>
   </g>
   <g id="patch_59">
    <path clip-path="url(#p16ece7ee7c)" d="M 212.553289 118.706887 
L 210.580979 133.658676 
L 208.484162 118.706887 
L 212.553289 118.706887 
z
M 209.661323 138.686842 
L 211.650611 138.686842 
L 216.364912 104.838881 
L 214.435048 104.838881 
L 213.119232 114.976312 
L 207.980473 114.976312 
L 206.574106 104.838881 
L 204.771579 104.838881 
L 209.661323 138.686842 
z
M 210.57249 138.686842 
L 210.57249 138.686842 
z
" style="fill:none;opacity:0;"/>
   </g>
   <g id="patch_60">
    <path clip-path="url(#p16ece7ee7c)" d="M 216.364912 104.838881 
L 216.364912 103.229695 
L 211.550178 103.229695 
L 211.550178 91.332898 
L 209.586314 91.332898 
L 209.586314 103.229695 
L 204.771579 103.229695 
L 204.771579 104.838881 
L 216.364912 104.838881 
z
" style="fill:none;opacity:0;"/>
   </g>
   <g id="patch_61">
    <path clip-path="url(#p16ece7ee7c)" d="M 224.756798 111.28446 
L 222.784488 132.795234 
L 220.687671 111.28446 
L 224.756798 111.28446 
z
M 221.864831 140.029134 
L 223.85412 140.029134 
L 228.568421 91.332898 
L 226.638557 91.332898 
L 225.32274 105.917373 
L 220.183982 105.917373 
L 218.777615 91.332898 
L 216.975088 91.332898 
L 221.864831 140.029134 
z
M 222.775999 140.029134 
L 222.775999 140.029134 
z
" style="fill:none;opacity:0;"/>
   </g>
   <g id="patch_62">
    <path clip-path="url(#p16ece7ee7c)" d="M 236.960307 96.866497 
L 234.987997 102.832547 
L 232.89118 96.866497 
L 236.960307 96.866497 
z
M 234.06834 104.838881 
L 236.057628 104.838881 
L 240.77193 91.332898 
L 238.842066 91.332898 
L 237.526249 95.377927 
L 232.387491 95.377927 
L 230.981124 91.332898 
L 229.178596 91.332898 
L 234.06834 104.838881 
z
M 234.979508 104.838881 
L 234.979508 104.838881 
z
" style="fill:none;opacity:0;"/>
   </g>
   <g id="patch_63">
    <path clip-path="url(#p16ece7ee7c)" d="M 235.274207 122.062769 
Q 237.756866 122.062769 239.126314 120.424095 
Q 240.495763 118.788984 240.646658 116.70858 
L 238.921324 116.70858 
Q 238.628074 118.286694 237.751172 119.209339 
Q 236.874269 120.135546 235.29129 120.135546 
Q 233.360966 120.135546 232.173731 118.436313 
Q 230.986496 116.740641 230.986496 113.235304 
Q 230.986496 110.3605 232.057 108.572208 
Q 233.130352 106.787478 235.257125 106.787478 
Q 237.213073 106.787478 238.238023 108.668391 
Q 238.77897 109.65872 239.046596 111.27602 
L 240.77193 111.27602 
Q 240.541316 108.693327 239.243045 106.944221 
Q 237.685689 104.838881 235.043593 104.838881 
Q 232.765925 104.838881 231.21711 106.566613 
Q 229.178596 108.846507 229.178596 113.612911 
Q 229.178596 117.228681 230.710329 119.544199 
Q 232.364485 122.062769 235.274207 122.062769 
z
M 234.918321 122.062769 
L 234.918321 122.062769 
z
" style="fill:none;opacity:0;"/>
   </g>
   <g id="patch_64">
    <path clip-path="url(#p16ece7ee7c)" d="M 247.477716 108.030587 
Q 249.960375 108.030587 251.329823 106.745633 
Q 252.699271 105.463472 252.850167 103.83214 
L 251.124833 103.83214 
Q 250.831583 105.069606 249.954681 105.793091 
Q 249.077778 106.519369 247.494798 106.519369 
Q 245.564474 106.519369 244.37724 105.186928 
Q 243.190005 103.85728 243.190005 101.108596 
Q 243.190005 98.85434 244.260509 97.452064 
Q 245.33386 96.052582 247.460633 96.052582 
Q 249.416581 96.052582 250.441532 97.527485 
Q 250.982479 98.304044 251.250105 99.572238 
L 252.975439 99.572238 
Q 252.744825 97.547039 251.446554 96.17549 
Q 249.889198 94.524604 247.247102 94.524604 
Q 244.969433 94.524604 243.420619 95.879392 
Q 241.382105 97.667154 241.382105 101.404694 
Q 241.382105 104.239973 242.913837 106.055668 
Q 244.567994 108.030587 247.477716 108.030587 
z
M 247.12183 108.030587 
L 247.12183 108.030587 
z
" style="fill:none;opacity:0;"/>
   </g>
   <g id="patch_65">
    <path clip-path="url(#p16ece7ee7c)" d="M 252.975439 94.524604 
L 252.975439 94.144325 
L 248.160704 94.144325 
L 248.160704 91.332898 
L 246.19684 91.332898 
L 246.19684 94.144325 
L 241.382105 94.144325 
L 241.382105 94.524604 
L 252.975439 94.524604 
z
" style="fill:none;opacity:0;"/>
   </g>
   <g id="patch_66">
    <path clip-path="url(#p16ece7ee7c)" d="M 261.367324 115.144659 
L 259.395014 126.255834 
L 257.298197 115.144659 
L 261.367324 115.144659 
z
M 258.475358 129.992432 
L 260.464646 129.992432 
L 265.178947 104.838881 
L 263.249083 104.838881 
L 261.933267 112.372345 
L 256.794508 112.372345 
L 255.388141 104.838881 
L 253.585614 104.838881 
L 258.475358 129.992432 
z
M 259.386525 129.992432 
L 259.386525 129.992432 
z
" style="fill:none;opacity:0;"/>
   </g>
   <g id="patch_67">
    <path clip-path="url(#p16ece7ee7c)" d="M 265.178947 104.838881 
L 265.178947 103.229695 
L 260.364213 103.229695 
L 260.364213 91.332898 
L 258.400349 91.332898 
L 258.400349 103.229695 
L 253.585614 103.229695 
L 253.585614 104.838881 
L 265.178947 104.838881 
z
" style="fill:none;opacity:0;"/>
   </g>
   <g id="patch_68">
    <path clip-path="url(#p16ece7ee7c)" d="M 277.382456 112.434522 
L 277.382456 109.920345 
L 272.567721 109.920345 
L 272.567721 91.332898 
L 270.603857 91.332898 
L 270.603857 109.920345 
L 265.789123 109.920345 
L 265.789123 112.434522 
L 277.382456 112.434522 
z
" style="fill:none;opacity:0;"/>
   </g>
   <g id="patch_69">
    <path clip-path="url(#p16ece7ee7c)" d="M 284.088242 101.268149 
Q 286.570901 101.268149 287.940349 100.322913 
Q 289.309798 99.379732 289.460693 98.179694 
L 287.735359 98.179694 
Q 287.442109 99.089997 286.565207 99.622206 
Q 285.688304 100.15647 284.105325 100.15647 
Q 282.175001 100.15647 280.987766 99.176301 
Q 279.800531 98.198187 279.800531 96.176205 
Q 279.800531 94.517932 280.871035 93.486392 
Q 281.944387 92.456907 284.07116 92.456907 
Q 286.027108 92.456907 287.052059 93.541873 
Q 287.593005 94.113125 287.860631 95.046031 
L 289.585965 95.046031 
Q 289.355351 93.556257 288.05708 92.547321 
Q 286.499724 91.332898 283.857628 91.332898 
Q 281.57996 91.332898 280.031145 92.329506 
Q 277.992632 93.644616 277.992632 96.39402 
Q 277.992632 98.479703 279.524364 99.815363 
Q 281.178521 101.268149 284.088242 101.268149 
z
M 283.732357 101.268149 
L 283.732357 101.268149 
z
" style="fill:none;opacity:0;"/>
   </g>
   <g id="patch_70">
    <path clip-path="url(#p16ece7ee7c)" d="M 297.977851 93.996242 
L 296.005541 96.867725 
L 293.908724 93.996242 
L 297.977851 93.996242 
z
M 295.085884 97.833382 
L 297.075172 97.833382 
L 301.789474 91.332898 
L 299.85961 91.332898 
L 298.543793 93.279787 
L 293.405035 93.279787 
L 291.998667 91.332898 
L 290.19614 91.332898 
L 295.085884 97.833382 
z
M 295.997052 97.833382 
L 295.997052 97.833382 
z
" style="fill:none;opacity:0;"/>
   </g>
   <g id="patch_71">
    <path clip-path="url(#p16ece7ee7c)" d="M 296.291751 124.845347 
Q 298.77441 124.845347 300.143858 123.560393 
Q 301.513306 122.278233 301.664202 120.6469 
L 299.938868 120.6469 
Q 299.645618 121.884367 298.768716 122.607852 
Q 297.891813 123.33413 296.308834 123.33413 
Q 294.378509 123.33413 293.191275 122.001689 
Q 292.00404 120.672041 292.00404 117.923357 
Q 292.00404 115.669101 293.074544 114.266825 
Q 294.147895 112.867343 296.274669 112.867343 
Q 298.230616 112.867343 299.255567 114.342246 
Q 299.796514 115.118805 300.06414 116.386999 
L 301.789474 116.386999 
Q 301.55886 114.3618 300.260589 112.990251 
Q 298.703233 111.339365 296.061137 111.339365 
Q 293.783468 111.339365 292.234654 112.694153 
Q 290.19614 114.481915 290.19614 118.219455 
Q 290.19614 121.054733 291.727873 122.870429 
Q 293.382029 124.845347 296.291751 124.845347 
z
M 295.935865 124.845347 
L 295.935865 124.845347 
z
" style="fill:none;opacity:0;"/>
   </g>
   <g id="patch_72">
    <path clip-path="url(#p16ece7ee7c)" d="M 301.789474 111.339365 
L 301.789474 109.730179 
L 296.974739 109.730179 
L 296.974739 97.833382 
L 295.010875 97.833382 
L 295.010875 109.730179 
L 290.19614 109.730179 
L 290.19614 111.339365 
L 301.789474 111.339365 
z
" style="fill:none;opacity:0;"/>
   </g>
   <g id="patch_73">
    <path clip-path="url(#p16ece7ee7c)" d="M 308.49526 138.686842 
Q 310.977919 138.686842 312.347367 135.46656 
Q 313.716815 132.253279 313.867711 128.164922 
L 312.142377 128.164922 
Q 311.849127 131.266193 310.972224 133.079351 
Q 310.095322 134.899511 308.512342 134.899511 
Q 306.582018 134.899511 305.394783 131.560219 
Q 304.207549 128.227927 304.207549 121.339324 
Q 304.207549 115.68983 305.278053 112.175523 
Q 306.351404 108.668216 308.478177 108.668216 
Q 310.434125 108.668216 311.459076 112.364539 
Q 312.000022 114.31071 312.267648 117.488988 
L 313.992982 117.488988 
Q 313.762369 112.413544 312.464097 108.976243 
Q 310.906741 104.838881 308.264646 104.838881 
Q 305.986977 104.838881 304.438163 108.234178 
Q 302.399649 112.71457 302.399649 122.081389 
Q 302.399649 129.187011 303.931381 133.737409 
Q 305.585538 138.686842 308.49526 138.686842 
z
M 308.139374 138.686842 
L 308.139374 138.686842 
z
" style="fill:none;opacity:0;"/>
   </g>
   <g id="patch_74">
    <path clip-path="url(#p16ece7ee7c)" d="M 313.992982 104.838881 
L 313.992982 103.229695 
L 309.178248 103.229695 
L 309.178248 91.332898 
L 307.214384 91.332898 
L 307.214384 103.229695 
L 302.399649 103.229695 
L 302.399649 104.838881 
L 313.992982 104.838881 
z
" style="fill:none;opacity:0;"/>
   </g>
   <g id="patch_75">
    <path clip-path="url(#p16ece7ee7c)" d="M 322.384868 101.904 
L 320.412558 106.292737 
L 318.315741 101.904 
L 322.384868 101.904 
z
M 319.492902 107.768633 
L 321.48219 107.768633 
L 326.196491 97.833382 
L 324.266627 97.833382 
L 322.950811 100.80898 
L 317.812052 100.80898 
L 316.405685 97.833382 
L 314.603158 97.833382 
L 319.492902 107.768633 
z
M 320.404069 107.768633 
L 320.404069 107.768633 
z
" style="fill:none;opacity:0;"/>
   </g>
   <g id="patch_76">
    <path clip-path="url(#p16ece7ee7c)" d="M 320.582266 97.823977 
Q 322.370747 97.823977 323.67548 97.488069 
Q 325.566238 97.005706 325.989171 95.796438 
L 324.289147 95.796438 
Q 323.976785 96.472285 323.000999 96.78132 
Q 322.025213 97.090355 320.538038 97.090355 
Q 318.7772 97.090355 317.57198 96.446756 
Q 316.36676 95.8045 316.36676 94.532082 
Q 316.36676 93.432993 317.359132 92.742367 
Q 318.354267 92.051741 320.598852 92.051741 
Q 322.318225 92.051741 323.446046 92.535447 
Q 324.573867 93.020498 324.598745 94.104808 
L 320.626494 94.104808 
L 320.626494 94.796777 
L 326.196491 94.796777 
L 326.196491 91.496821 
L 325.090785 91.496821 
L 324.676145 92.290907 
Q 323.805401 91.824667 323.13092 91.643277 
Q 321.997571 91.332898 320.253318 91.332898 
Q 318.000441 91.332898 316.375053 92.042335 
Q 314.603158 92.933162 314.603158 94.486399 
Q 314.603158 96.035605 316.330824 96.950617 
Q 317.972799 97.823977 320.582266 97.823977 
z
M 320.297547 97.833382 
L 320.297547 97.833382 
z
" style="fill:none;opacity:0;"/>
   </g>
   <g id="patch_77">
    <path clip-path="url(#p16ece7ee7c)" d="M 334.588377 104.830383 
L 332.616067 115.941557 
L 330.51925 104.830383 
L 334.588377 104.830383 
z
M 331.69641 119.678155 
L 333.685698 119.678155 
L 338.4 94.524604 
L 336.470136 94.524604 
L 335.154319 102.058068 
L 330.015561 102.058068 
L 328.609194 94.524604 
L 326.806667 94.524604 
L 331.69641 119.678155 
z
M 332.607578 119.678155 
L 332.607578 119.678155 
z
" style="fill:none;opacity:0;"/>
   </g>
   <g id="patch_78">
    <path clip-path="url(#p16ece7ee7c)" d="M 338.4 94.524604 
L 338.4 94.144325 
L 333.585265 94.144325 
L 333.585265 91.332898 
L 331.621401 91.332898 
L 331.621401 94.144325 
L 326.806667 94.144325 
L 326.806667 94.524604 
L 338.4 94.524604 
z
" style="fill:none;opacity:0;"/>
   </g>
   <g id="matplotlib.axis_1">
    <g id="xtick_1">
     <g id="line2d_2">
      <path clip-path="url(#p16ece7ee7c)" d="M 100.736667 141.64 
L 100.736667 28.8 
" style="fill:none;stroke:#cccccc;stroke-linecap:round;stroke-width:0.8;"/>
     </g>
     <g id="text_1">
      <!-- 0 -->
      <g style="fill:#262626;" transform="translate(95.175729 162.986875)scale(0.2 -0.2)">
       <defs>
        <path d="M 1731 4475 
Q 2600 4475 2988 3759 
Q 3288 3206 3288 2244 
Q 3288 1331 3016 734 
Q 2622 -122 1728 -122 
Q 922 -122 528 578 
Q 200 1163 200 2147 
Q 200 2909 397 3456 
Q 766 4475 1731 4475 
z
M 1725 391 
Q 2163 391 2422 778 
Q 2681 1166 2681 2222 
Q 2681 2984 2493 3476 
Q 2306 3969 1766 3969 
Q 1269 3969 1039 3501 
Q 809 3034 809 2125 
Q 809 1441 956 1025 
Q 1181 391 1725 391 
z
" id="Helvetica-30" transform="scale(0.015625)"/>
       </defs>
       <use xlink:href="#Helvetica-30"/>
      </g>
     </g>
    </g>
    <g id="xtick_2">
     <g id="line2d_3">
      <path clip-path="url(#p16ece7ee7c)" d="M 222.771754 141.64 
L 222.771754 28.8 
" style="fill:none;stroke:#cccccc;stroke-linecap:round;stroke-width:0.8;"/>
     </g>
     <g id="text_2">
      <!-- 10 -->
      <g style="fill:#262626;" transform="translate(211.649879 162.986875)scale(0.2 -0.2)">
       <defs>
        <path d="M 613 3169 
L 613 3600 
Q 1222 3659 1462 3798 
Q 1703 3938 1822 4456 
L 2266 4456 
L 2266 0 
L 1666 0 
L 1666 3169 
L 613 3169 
z
" id="Helvetica-31" transform="scale(0.015625)"/>
       </defs>
       <use xlink:href="#Helvetica-31"/>
       <use x="55.615234" xlink:href="#Helvetica-30"/>
      </g>
     </g>
    </g>
    <g id="text_3">
     <!-- Position -->
     <g style="fill:#262626;" transform="translate(172.20125 189.089219)scale(0.25 -0.25)">
      <defs>
       <path d="M 547 4591 
L 2613 4591 
Q 3225 4591 3600 4245 
Q 3975 3900 3975 3275 
Q 3975 2738 3640 2339 
Q 3306 1941 2613 1941 
L 1169 1941 
L 1169 0 
L 547 0 
L 547 4591 
z
M 3347 3272 
Q 3347 3778 2972 3959 
Q 2766 4056 2406 4056 
L 1169 4056 
L 1169 2466 
L 2406 2466 
Q 2825 2466 3086 2644 
Q 3347 2822 3347 3272 
z
" id="Helvetica-50" transform="scale(0.015625)"/>
       <path d="M 1741 363 
Q 2300 363 2508 786 
Q 2716 1209 2716 1728 
Q 2716 2197 2566 2491 
Q 2328 2953 1747 2953 
Q 1231 2953 997 2559 
Q 763 2166 763 1609 
Q 763 1075 997 719 
Q 1231 363 1741 363 
z
M 1763 3444 
Q 2409 3444 2856 3012 
Q 3303 2581 3303 1744 
Q 3303 934 2909 406 
Q 2516 -122 1688 -122 
Q 997 -122 590 345 
Q 184 813 184 1600 
Q 184 2444 612 2944 
Q 1041 3444 1763 3444 
z
M 1744 3428 
L 1744 3428 
z
" id="Helvetica-6f" transform="scale(0.015625)"/>
       <path d="M 747 1050 
Q 772 769 888 619 
Q 1100 347 1625 347 
Q 1938 347 2175 483 
Q 2413 619 2413 903 
Q 2413 1119 2222 1231 
Q 2100 1300 1741 1391 
L 1294 1503 
Q 866 1609 663 1741 
Q 300 1969 300 2372 
Q 300 2847 642 3140 
Q 984 3434 1563 3434 
Q 2319 3434 2653 2991 
Q 2863 2709 2856 2384 
L 2325 2384 
Q 2309 2575 2191 2731 
Q 1997 2953 1519 2953 
Q 1200 2953 1036 2831 
Q 872 2709 872 2509 
Q 872 2291 1088 2159 
Q 1213 2081 1456 2022 
L 1828 1931 
Q 2434 1784 2641 1647 
Q 2969 1431 2969 969 
Q 2969 522 2630 197 
Q 2291 -128 1597 -128 
Q 850 -128 539 211 
Q 228 550 206 1050 
L 747 1050 
z
M 1578 3428 
L 1578 3428 
z
" id="Helvetica-73" transform="scale(0.015625)"/>
       <path d="M 413 3331 
L 984 3331 
L 984 0 
L 413 0 
L 413 3331 
z
M 413 4591 
L 984 4591 
L 984 3953 
L 413 3953 
L 413 4591 
z
" id="Helvetica-69" transform="scale(0.015625)"/>
       <path d="M 525 4281 
L 1094 4281 
L 1094 3347 
L 1628 3347 
L 1628 2888 
L 1094 2888 
L 1094 703 
Q 1094 528 1213 469 
Q 1278 434 1431 434 
Q 1472 434 1519 436 
Q 1566 438 1628 444 
L 1628 0 
Q 1531 -28 1426 -40 
Q 1322 -53 1200 -53 
Q 806 -53 665 148 
Q 525 350 525 672 
L 525 2888 
L 72 2888 
L 72 3347 
L 525 3347 
L 525 4281 
z
" id="Helvetica-74" transform="scale(0.015625)"/>
       <path d="M 413 3347 
L 947 3347 
L 947 2872 
Q 1184 3166 1450 3294 
Q 1716 3422 2041 3422 
Q 2753 3422 3003 2925 
Q 3141 2653 3141 2147 
L 3141 0 
L 2569 0 
L 2569 2109 
Q 2569 2416 2478 2603 
Q 2328 2916 1934 2916 
Q 1734 2916 1606 2875 
Q 1375 2806 1200 2600 
Q 1059 2434 1017 2257 
Q 975 2081 975 1753 
L 975 0 
L 413 0 
L 413 3347 
z
M 1734 3428 
L 1734 3428 
z
" id="Helvetica-6e" transform="scale(0.015625)"/>
      </defs>
      <use xlink:href="#Helvetica-50"/>
      <use x="66.699219" xlink:href="#Helvetica-6f"/>
      <use x="122.314453" xlink:href="#Helvetica-73"/>
      <use x="172.314453" xlink:href="#Helvetica-69"/>
      <use x="194.53125" xlink:href="#Helvetica-74"/>
      <use x="222.314453" xlink:href="#Helvetica-69"/>
      <use x="244.53125" xlink:href="#Helvetica-6f"/>
      <use x="300.146484" xlink:href="#Helvetica-6e"/>
     </g>
    </g>
   </g>
   <g id="matplotlib.axis_2">
    <g id="ytick_1">
     <g id="line2d_4">
      <path clip-path="url(#p16ece7ee7c)" d="M 94.94 91.332898 
L 338.4 91.332898 
" style="fill:none;stroke:#cccccc;stroke-linecap:round;stroke-width:0.8;"/>
     </g>
     <g id="text_4">
      <!-- 0 -->
      <g style="fill:#262626;" transform="translate(76.818125 98.506336)scale(0.2 -0.2)">
       <use xlink:href="#Helvetica-30"/>
      </g>
     </g>
    </g>
    <g id="ytick_2">
     <g id="line2d_5">
      <path clip-path="url(#p16ece7ee7c)" d="M 94.94 75.699674 
L 338.4 75.699674 
" style="fill:none;stroke:#cccccc;stroke-linecap:round;stroke-width:0.8;"/>
     </g>
     <g id="text_5">
      <!-- 0.25 -->
      <g style="fill:#262626;" transform="translate(49.018125 82.873111)scale(0.2 -0.2)">
       <defs>
        <path d="M 547 681 
L 1200 681 
L 1200 0 
L 547 0 
L 547 681 
z
" id="Helvetica-2e" transform="scale(0.015625)"/>
        <path d="M 200 0 
Q 231 578 439 1006 
Q 647 1434 1250 1784 
L 1850 2131 
Q 2253 2366 2416 2531 
Q 2672 2791 2672 3125 
Q 2672 3516 2437 3745 
Q 2203 3975 1813 3975 
Q 1234 3975 1013 3538 
Q 894 3303 881 2888 
L 309 2888 
Q 319 3472 525 3841 
Q 891 4491 1816 4491 
Q 2584 4491 2939 4075 
Q 3294 3659 3294 3150 
Q 3294 2613 2916 2231 
Q 2697 2009 2131 1694 
L 1703 1456 
Q 1397 1288 1222 1134 
Q 909 863 828 531 
L 3272 531 
L 3272 0 
L 200 0 
z
" id="Helvetica-32" transform="scale(0.015625)"/>
        <path d="M 791 1141 
Q 847 659 1238 475 
Q 1438 381 1700 381 
Q 2200 381 2440 700 
Q 2681 1019 2681 1406 
Q 2681 1875 2395 2131 
Q 2109 2388 1709 2388 
Q 1419 2388 1211 2275 
Q 1003 2163 856 1963 
L 369 1991 
L 709 4400 
L 3034 4400 
L 3034 3856 
L 1131 3856 
L 941 2613 
Q 1097 2731 1238 2791 
Q 1488 2894 1816 2894 
Q 2431 2894 2859 2497 
Q 3288 2100 3288 1491 
Q 3288 856 2895 371 
Q 2503 -113 1644 -113 
Q 1097 -113 676 195 
Q 256 503 206 1141 
L 791 1141 
z
" id="Helvetica-35" transform="scale(0.015625)"/>
       </defs>
       <use xlink:href="#Helvetica-30"/>
       <use x="55.615234" xlink:href="#Helvetica-2e"/>
       <use x="83.398438" xlink:href="#Helvetica-32"/>
       <use x="139.013672" xlink:href="#Helvetica-35"/>
      </g>
     </g>
    </g>
    <g id="ytick_3">
     <g id="line2d_6">
      <path clip-path="url(#p16ece7ee7c)" d="M 94.94 60.066449 
L 338.4 60.066449 
" style="fill:none;stroke:#cccccc;stroke-linecap:round;stroke-width:0.8;"/>
     </g>
     <g id="text_6">
      <!-- 0.50 -->
      <g style="fill:#262626;" transform="translate(49.018125 67.239887)scale(0.2 -0.2)">
       <use xlink:href="#Helvetica-30"/>
       <use x="55.615234" xlink:href="#Helvetica-2e"/>
       <use x="83.398438" xlink:href="#Helvetica-35"/>
       <use x="139.013672" xlink:href="#Helvetica-30"/>
      </g>
     </g>
    </g>
    <g id="ytick_4">
     <g id="line2d_7">
      <path clip-path="url(#p16ece7ee7c)" d="M 94.94 44.433225 
L 338.4 44.433225 
" style="fill:none;stroke:#cccccc;stroke-linecap:round;stroke-width:0.8;"/>
     </g>
     <g id="text_7">
      <!-- 0.75 -->
      <g style="fill:#262626;" transform="translate(49.018125 51.606662)scale(0.2 -0.2)">
       <defs>
        <path d="M 3347 4400 
L 3347 3909 
Q 3131 3700 2773 3181 
Q 2416 2663 2141 2063 
Q 1869 1478 1728 997 
Q 1638 688 1494 0 
L 872 0 
Q 1084 1281 1809 2550 
Q 2238 3294 2709 3834 
L 234 3834 
L 234 4400 
L 3347 4400 
z
" id="Helvetica-37" transform="scale(0.015625)"/>
       </defs>
       <use xlink:href="#Helvetica-30"/>
       <use x="55.615234" xlink:href="#Helvetica-2e"/>
       <use x="83.398438" xlink:href="#Helvetica-37"/>
       <use x="139.013672" xlink:href="#Helvetica-35"/>
      </g>
     </g>
    </g>
    <g id="ytick_5">
     <g id="line2d_8">
      <path clip-path="url(#p16ece7ee7c)" d="M 94.94 28.8 
L 338.4 28.8 
" style="fill:none;stroke:#cccccc;stroke-linecap:round;stroke-width:0.8;"/>
     </g>
     <g id="text_8">
      <!-- 1.0 -->
      <g style="fill:#262626;" transform="translate(60.14 35.973437)scale(0.2 -0.2)">
       <use xlink:href="#Helvetica-31"/>
       <use x="55.615234" xlink:href="#Helvetica-2e"/>
       <use x="83.398438" xlink:href="#Helvetica-30"/>
      </g>
     </g>
    </g>
    <g id="text_9">
     <!-- Probability -->
     <g style="fill:#262626;" transform="translate(39.65875 143.579375)rotate(-90)scale(0.25 -0.25)">
      <defs>
       <path d="M 428 3347 
L 963 3347 
L 963 2769 
Q 1028 2938 1284 3180 
Q 1541 3422 1875 3422 
Q 1891 3422 1928 3419 
Q 1966 3416 2056 3406 
L 2056 2813 
Q 2006 2822 1964 2825 
Q 1922 2828 1872 2828 
Q 1447 2828 1219 2554 
Q 991 2281 991 1925 
L 991 0 
L 428 0 
L 428 3347 
z
" id="Helvetica-72" transform="scale(0.015625)"/>
       <path d="M 369 4606 
L 916 4606 
L 916 2941 
Q 1100 3181 1356 3307 
Q 1613 3434 1913 3434 
Q 2538 3434 2927 3004 
Q 3316 2575 3316 1738 
Q 3316 944 2931 419 
Q 2547 -106 1866 -106 
Q 1484 -106 1222 78 
Q 1066 188 888 428 
L 888 0 
L 369 0 
L 369 4606 
z
M 1831 391 
Q 2288 391 2514 753 
Q 2741 1116 2741 1709 
Q 2741 2238 2514 2584 
Q 2288 2931 1847 2931 
Q 1463 2931 1173 2647 
Q 884 2363 884 1709 
Q 884 1238 1003 944 
Q 1225 391 1831 391 
z
" id="Helvetica-62" transform="scale(0.015625)"/>
       <path d="M 844 891 
Q 844 647 1022 506 
Q 1200 366 1444 366 
Q 1741 366 2019 503 
Q 2488 731 2488 1250 
L 2488 1703 
Q 2384 1638 2221 1594 
Q 2059 1550 1903 1531 
L 1563 1488 
Q 1256 1447 1103 1359 
Q 844 1213 844 891 
z
M 2206 2028 
Q 2400 2053 2466 2191 
Q 2503 2266 2503 2406 
Q 2503 2694 2298 2823 
Q 2094 2953 1713 2953 
Q 1272 2953 1088 2716 
Q 984 2584 953 2325 
L 428 2325 
Q 444 2944 830 3186 
Q 1216 3428 1725 3428 
Q 2316 3428 2684 3203 
Q 3050 2978 3050 2503 
L 3050 575 
Q 3050 488 3086 434 
Q 3122 381 3238 381 
Q 3275 381 3322 386 
Q 3369 391 3422 400 
L 3422 -16 
Q 3291 -53 3222 -62 
Q 3153 -72 3034 -72 
Q 2744 -72 2613 134 
Q 2544 244 2516 444 
Q 2344 219 2022 53 
Q 1700 -113 1313 -113 
Q 847 -113 551 170 
Q 256 453 256 878 
Q 256 1344 547 1600 
Q 838 1856 1309 1916 
L 2206 2028 
z
M 1741 3428 
L 1741 3428 
z
" id="Helvetica-61" transform="scale(0.015625)"/>
       <path d="M 428 4591 
L 991 4591 
L 991 0 
L 428 0 
L 428 4591 
z
" id="Helvetica-6c" transform="scale(0.015625)"/>
       <path d="M 2503 3347 
L 3125 3347 
Q 3006 3025 2597 1878 
Q 2291 1016 2084 472 
Q 1597 -809 1397 -1090 
Q 1197 -1372 709 -1372 
Q 591 -1372 527 -1362 
Q 463 -1353 369 -1328 
L 369 -816 
Q 516 -856 581 -865 
Q 647 -875 697 -875 
Q 853 -875 926 -823 
Q 1000 -772 1050 -697 
Q 1066 -672 1162 -440 
Q 1259 -209 1303 -97 
L 66 3347 
L 703 3347 
L 1600 622 
L 2503 3347 
z
M 1597 3428 
L 1597 3428 
z
" id="Helvetica-79" transform="scale(0.015625)"/>
      </defs>
      <use xlink:href="#Helvetica-50"/>
      <use x="66.699219" xlink:href="#Helvetica-72"/>
      <use x="100" xlink:href="#Helvetica-6f"/>
      <use x="155.615234" xlink:href="#Helvetica-62"/>
      <use x="211.230469" xlink:href="#Helvetica-61"/>
      <use x="266.845703" xlink:href="#Helvetica-62"/>
      <use x="322.460938" xlink:href="#Helvetica-69"/>
      <use x="344.677734" xlink:href="#Helvetica-6c"/>
      <use x="366.894531" xlink:href="#Helvetica-69"/>
      <use x="389.111328" xlink:href="#Helvetica-74"/>
      <use x="416.894531" xlink:href="#Helvetica-79"/>
     </g>
    </g>
   </g>
   <g id="patch_79">
    <path d="M 94.94 141.64 
L 94.94 28.8 
" style="fill:none;stroke:#000000;stroke-linecap:square;stroke-linejoin:miter;"/>
   </g>
  </g>
 </g>
 <defs>
  <clipPath id="p16ece7ee7c">
   <rect height="112.84" width="243.46" x="94.94" y="28.8"/>
  </clipPath>
 </defs>
</svg>
