<?xml version="1.0" encoding="utf-8" standalone="no"?>
<!DOCTYPE svg PUBLIC "-//W3C//DTD SVG 1.1//EN"
  "http://www.w3.org/Graphics/SVG/1.1/DTD/svg11.dtd">
<svg height="216pt" version="1.1" viewBox="0 0 360 216" width="360pt" xmlns="http://www.w3.org/2000/svg" xmlns:xlink="http://www.w3.org/1999/xlink">
 <metadata>
  <rdf:RDF xmlns:cc="http://creativecommons.org/ns#" xmlns:dc="http://purl.org/dc/elements/1.1/" xmlns:rdf="http://www.w3.org/1999/02/22-rdf-syntax-ns#">
   <cc:Work>
    <dc:type rdf:resource="http://purl.org/dc/dcmitype/StillImage"/>
    <dc:date>2021-12-22T07:23:01.957387</dc:date>
    <dc:format>image/svg+xml</dc:format>
    <dc:creator>
     <cc:Agent>
      <dc:title>Matplotlib v3.4.2, https://matplotlib.org/</dc:title>
     </cc:Agent>
    </dc:creator>
   </cc:Work>
  </rdf:RDF>
 </metadata>
 <defs>
  <style type="text/css">*{stroke-linecap:butt;stroke-linejoin:round;}</style>
 </defs>
 <g id="figure_1">
  <g id="patch_1">
   <path d="M 0 216 
L 360 216 
L 360 0 
L 0 0 
z
" style="fill:#ffffff;"/>
  </g>
  <g id="axes_1">
   <g id="patch_2">
    <path d="M 94.94 141.64 
L 338.4 141.64 
L 338.4 28.8 
L 94.94 28.8 
z
" style="fill:#ffffff;"/>
   </g>
   <g id="line2d_1">
    <path clip-path="url(#pf73f7d8d93)" d="M 94.94 79.255076 
L 338.4 79.255076 
" style="fill:none;stroke:#000000;stroke-linecap:round;stroke-width:0.5;"/>
   </g>
   <g id="patch_3">
    <path clip-path="url(#pf73f7d8d93)" d="M 101.035611 67.590531 
Q 103.518269 67.590531 104.887718 68.700291 
Q 106.257166 69.807639 106.408062 71.216552 
L 104.682728 71.216552 
Q 104.389478 70.147804 103.512575 69.522961 
Q 102.635673 68.895705 101.052693 68.895705 
Q 99.122369 68.895705 97.935134 70.046479 
Q 96.747899 71.194839 96.747899 73.568761 
Q 96.747899 75.515667 97.818404 76.726753 
Q 98.891755 77.935426 101.018528 77.935426 
Q 102.974476 77.935426 103.999427 76.661615 
Q 104.540373 75.990933 104.807999 74.895648 
L 106.533333 74.895648 
Q 106.302719 76.644727 105.004448 77.829275 
Q 103.447092 79.255076 100.804997 79.255076 
Q 98.527328 79.255076 96.978513 78.085003 
Q 94.94 76.540988 94.94 73.313034 
Q 94.94 70.864324 96.471732 69.296184 
Q 98.125889 67.590531 101.035611 67.590531 
z
M 100.679725 67.590531 
L 100.679725 67.590531 
z
" style="fill:#0000ff;"/>
   </g>
   <g id="patch_4">
    <path clip-path="url(#pf73f7d8d93)" d="M 100.919108 37.089232 
Q 102.707589 37.089232 104.012322 38.667647 
Q 105.903081 40.934252 106.326013 46.616547 
L 104.62599 46.616547 
Q 104.313627 43.440775 103.337841 41.988633 
Q 102.362055 40.536491 100.87488 40.536491 
Q 99.114042 40.536491 97.908822 43.560735 
Q 96.703602 46.578665 96.703602 52.557703 
Q 96.703602 57.722278 97.695974 60.9675 
Q 98.69111 64.212722 100.935694 64.212722 
Q 102.655068 64.212722 103.782888 61.939804 
Q 104.910709 59.660572 104.935587 54.565447 
L 100.963337 54.565447 
L 100.963337 51.313911 
L 106.533333 51.313911 
L 106.533333 66.820264 
L 105.427627 66.820264 
L 105.012987 63.08889 
Q 104.142243 65.279731 103.467762 66.132075 
Q 102.334413 67.590531 100.590161 67.590531 
Q 98.337283 67.590531 96.711895 64.256918 
Q 94.94 60.07096 94.94 52.772367 
Q 94.94 45.492715 96.667667 41.193112 
Q 98.309641 37.089232 100.919108 37.089232 
z
M 100.634389 37.045036 
L 100.634389 37.045036 
z
" style="fill:#ffa600;"/>
   </g>
   <g id="patch_5">
    <path clip-path="url(#pf73f7d8d93)" d="M 113.239119 69.778678 
Q 115.721778 69.778678 117.091227 70.680259 
Q 118.460675 71.57988 118.61157 72.724495 
L 116.886236 72.724495 
Q 116.592987 71.856234 115.716084 71.348605 
Q 114.839182 70.839015 113.256202 70.839015 
Q 111.325878 70.839015 110.138643 71.773916 
Q 108.951408 72.706856 108.951408 74.635455 
Q 108.951408 76.217141 110.021913 77.20104 
Q 111.095264 78.182979 113.222037 78.182979 
Q 115.177985 78.182979 116.202936 77.148121 
Q 116.743882 76.603253 117.011508 75.713432 
L 118.736842 75.713432 
Q 118.506228 77.134401 117.207957 78.096741 
Q 115.650601 79.255076 113.008505 79.255076 
Q 110.730837 79.255076 109.182022 78.304496 
Q 107.143509 77.050123 107.143509 74.427699 
Q 107.143509 72.438341 108.675241 71.164368 
Q 110.329398 69.778678 113.239119 69.778678 
z
M 112.883234 69.778678 
L 112.883234 69.778678 
z
" style="fill:#0000ff;"/>
   </g>
   <g id="patch_6">
    <path clip-path="url(#pf73f7d8d93)" d="M 113.122617 49.994075 
Q 114.911097 49.994075 116.215831 51.017911 
Q 118.106589 52.488139 118.529522 56.173948 
L 116.829498 56.173948 
Q 116.517136 54.11399 115.54135 53.172061 
Q 114.565564 52.230132 113.078389 52.230132 
Q 111.317551 52.230132 110.112331 54.191802 
Q 108.907111 56.149376 108.907111 60.027666 
Q 108.907111 63.377657 109.899482 65.482663 
Q 110.894618 67.587669 113.139203 67.587669 
Q 114.858576 67.587669 115.986397 66.113346 
Q 117.114218 64.634927 117.139096 61.329985 
L 113.166845 61.329985 
L 113.166845 59.220883 
L 118.736842 59.220883 
L 118.736842 69.279046 
L 117.631136 69.279046 
L 117.216496 66.858698 
Q 116.345752 68.279782 115.671271 68.832654 
Q 114.537921 69.778678 112.793669 69.778678 
Q 110.540792 69.778678 108.915404 67.616337 
Q 107.143509 64.901124 107.143509 60.166907 
Q 107.143509 55.444977 108.871175 52.656048 
Q 110.51315 49.994075 113.122617 49.994075 
z
M 112.837898 49.965407 
L 112.837898 49.965407 
z
" style="fill:#ffa600;"/>
   </g>
   <g id="patch_7">
    <path clip-path="url(#pf73f7d8d93)" d="M 125.442628 76.767831 
Q 127.925287 76.767831 129.294735 77.004467 
Q 130.664184 77.240588 130.815079 77.541012 
L 129.089745 77.541012 
Q 128.796495 77.313122 127.919593 77.179886 
Q 127.04269 77.046135 125.459711 77.046135 
Q 123.529387 77.046135 122.342152 77.291516 
Q 121.154917 77.536382 121.154917 78.042576 
Q 121.154917 78.457717 122.225421 78.715959 
Q 123.298773 78.973686 125.425546 78.973686 
Q 127.381494 78.973686 128.406445 78.702069 
Q 128.947391 78.559059 129.215017 78.32551 
L 130.940351 78.32551 
Q 130.709737 78.698468 129.411466 78.951051 
Q 127.85411 79.255076 125.212014 79.255076 
Q 122.934346 79.255076 121.385531 79.00558 
Q 119.347018 78.676348 119.347018 77.988047 
Q 119.347018 77.465906 120.87875 77.13153 
Q 122.532907 76.767831 125.442628 76.767831 
z
M 125.086742 76.767831 
L 125.086742 76.767831 
z
" style="fill:#0000ff;"/>
   </g>
   <g id="patch_8">
    <path clip-path="url(#pf73f7d8d93)" d="M 125.326126 56.983228 
Q 127.114606 56.983228 128.41934 58.007064 
Q 130.310098 59.477292 130.733031 63.163101 
L 129.033007 63.163101 
Q 128.720645 61.103143 127.744859 60.161215 
Q 126.769073 59.219286 125.281898 59.219286 
Q 123.52106 59.219286 122.31584 61.180955 
Q 121.11062 63.138529 121.11062 67.016819 
Q 121.11062 70.36681 122.102991 72.471816 
Q 123.098127 74.576823 125.342711 74.576823 
Q 127.062085 74.576823 128.189906 73.102499 
Q 129.317726 71.62408 129.342605 68.319138 
L 125.370354 68.319138 
L 125.370354 66.210036 
L 130.940351 66.210036 
L 130.940351 76.2682 
L 129.834644 76.2682 
L 129.420004 73.847852 
Q 128.54926 75.268936 127.874779 75.821807 
Q 126.74143 76.767831 124.997178 76.767831 
Q 122.744301 76.767831 121.118912 74.60549 
Q 119.347018 71.890278 119.347018 67.156061 
Q 119.347018 62.43413 121.074684 59.645201 
Q 122.716658 56.983228 125.326126 56.983228 
z
M 125.041406 56.954561 
L 125.041406 56.954561 
z
" style="fill:#ffa600;"/>
   </g>
   <g id="patch_9">
    <path clip-path="url(#pf73f7d8d93)" d="M 137.646137 63.4022 
Q 140.128796 63.4022 141.498244 64.910436 
Q 142.867692 66.415394 143.018588 68.330199 
L 141.293254 68.330199 
Q 141.000004 66.877701 140.123102 66.028499 
Q 139.246199 65.176017 137.66322 65.176017 
Q 135.732895 65.176017 134.545661 66.739993 
Q 133.358426 68.30069 133.358426 71.527004 
Q 133.358426 74.172975 134.42893 75.81892 
Q 135.502281 77.461586 137.629054 77.461586 
Q 139.585002 77.461586 140.609953 75.730393 
Q 141.1509 74.818894 141.418526 73.33033 
L 143.14386 73.33033 
Q 142.913246 75.707442 141.614975 77.31732 
Q 140.057619 79.255076 137.415523 79.255076 
Q 135.137854 79.255076 133.58904 77.66487 
Q 131.550526 75.566454 131.550526 71.179454 
Q 131.550526 67.851497 133.082258 65.720294 
Q 134.736415 63.4022 137.646137 63.4022 
z
M 137.290251 63.4022 
L 137.290251 63.4022 
z
" style="fill:#0000ff;"/>
   </g>
   <g id="patch_10">
    <path clip-path="url(#pf73f7d8d93)" d="M 137.529635 38.061921 
Q 139.318115 38.061921 140.622849 39.373258 
Q 142.513607 41.256338 142.93654 45.977152 
L 141.236516 45.977152 
Q 140.924154 43.338742 139.948368 42.132312 
Q 138.972582 40.925881 137.485406 40.925881 
Q 135.724569 40.925881 134.519348 43.438403 
Q 133.314128 45.94568 133.314128 50.913025 
Q 133.314128 55.20372 134.3065 57.899829 
Q 135.301636 60.595939 137.54622 60.595939 
Q 139.265594 60.595939 140.393415 58.707613 
Q 141.521235 56.814042 141.546114 52.581046 
L 137.573863 52.581046 
L 137.573863 49.879691 
L 143.14386 49.879691 
L 143.14386 62.762268 
L 142.038153 62.762268 
L 141.623513 59.662267 
Q 140.752769 61.482402 140.078288 62.190525 
Q 138.944939 63.4022 137.200687 63.4022 
Q 134.94781 63.4022 133.322421 60.632656 
Q 131.550526 57.15499 131.550526 51.091367 
Q 131.550526 45.04348 133.278193 41.471398 
Q 134.920167 38.061921 137.529635 38.061921 
z
M 137.244915 38.025204 
L 137.244915 38.025204 
z
" style="fill:#ffa600;"/>
   </g>
   <g id="patch_11">
    <path clip-path="url(#pf73f7d8d93)" d="M 149.849646 72.034646 
Q 152.332305 72.034646 153.701753 72.721595 
Q 155.071201 73.40705 155.222097 74.279177 
L 153.496763 74.279177 
Q 153.203513 73.617615 152.32661 73.230833 
Q 151.449708 72.842558 149.866728 72.842558 
Q 147.936404 72.842558 146.749169 73.554894 
Q 145.561935 74.265737 145.561935 75.73521 
Q 145.561935 76.940357 146.632439 77.690027 
Q 147.70579 78.438204 149.832563 78.438204 
Q 151.788511 78.438204 152.813462 77.649706 
Q 153.354408 77.23455 153.622034 76.556562 
L 155.347368 76.556562 
Q 155.116754 77.639253 153.818483 78.372496 
Q 152.261127 79.255076 149.619032 79.255076 
Q 147.341363 79.255076 145.792549 78.530793 
Q 143.754035 77.575038 143.754035 75.576913 
Q 143.754035 74.061145 145.285767 73.090457 
Q 146.939924 72.034646 149.849646 72.034646 
z
M 149.49376 72.034646 
L 149.49376 72.034646 
z
" style="fill:#0000ff;"/>
   </g>
   <g id="patch_12">
    <path clip-path="url(#pf73f7d8d93)" d="M 149.733143 46.694367 
Q 151.521624 46.694367 152.826357 48.005704 
Q 154.717116 49.888785 155.140048 54.609598 
L 153.440025 54.609598 
Q 153.127662 51.971188 152.151876 50.764758 
Q 151.17609 49.558328 149.688915 49.558328 
Q 147.928077 49.558328 146.722857 52.07085 
Q 145.517637 54.578126 145.517637 59.545471 
Q 145.517637 63.836166 146.510009 66.532275 
Q 147.505145 69.228385 149.749729 69.228385 
Q 151.469103 69.228385 152.596923 67.340059 
Q 153.724744 65.446488 153.749622 61.213492 
L 149.777372 61.213492 
L 149.777372 58.512138 
L 155.347368 58.512138 
L 155.347368 71.394714 
L 154.241662 71.394714 
L 153.827022 68.294713 
Q 152.956278 70.114849 152.281797 70.822971 
Q 151.148448 72.034646 149.404196 72.034646 
Q 147.151319 72.034646 145.52593 69.265102 
Q 143.754035 65.787436 143.754035 59.723813 
Q 143.754035 53.675926 145.481702 50.103844 
Q 147.123676 46.694367 149.733143 46.694367 
z
M 149.448424 46.65765 
L 149.448424 46.65765 
z
" style="fill:#ffa600;"/>
   </g>
   <g id="patch_13">
    <path clip-path="url(#pf73f7d8d93)" d="M 162.053155 59.441805 
Q 164.535813 59.441805 165.905262 61.326832 
Q 167.27471 63.207761 167.425605 65.600926 
L 165.700271 65.600926 
Q 165.407022 63.785563 164.530119 62.724211 
Q 163.653217 61.658761 162.070237 61.658761 
Q 160.139913 61.658761 158.952678 63.613452 
Q 157.765443 65.564045 157.765443 69.596363 
Q 157.765443 72.903355 158.835948 74.960493 
Q 159.909299 77.013533 162.036072 77.013533 
Q 163.99202 77.013533 165.016971 74.84985 
Q 165.557917 73.710639 165.825543 71.850199 
L 167.550877 71.850199 
Q 167.320263 74.821165 166.021992 76.833226 
Q 164.464636 79.255076 161.822541 79.255076 
Q 159.544872 79.255076 157.996057 77.267602 
Q 155.957544 74.644956 155.957544 69.161987 
Q 155.957544 65.002634 157.489276 62.33901 
Q 159.143433 59.441805 162.053155 59.441805 
z
M 161.697269 59.441805 
L 161.697269 59.441805 
z
" style="fill:#0000ff;"/>
   </g>
   <g id="patch_14">
    <path clip-path="url(#pf73f7d8d93)" d="M 161.936652 37.757735 
Q 163.725132 37.757735 165.029866 38.879867 
Q 166.920624 40.491247 167.343557 44.530921 
L 165.643533 44.530921 
Q 165.331171 42.273192 164.355385 41.240831 
Q 163.379599 40.20847 161.892424 40.20847 
Q 160.131586 40.20847 158.926366 42.358474 
Q 157.721146 44.50399 157.721146 48.754624 
Q 157.721146 52.426239 158.713517 54.733341 
Q 159.708653 57.040444 161.953238 57.040444 
Q 163.672611 57.040444 164.800432 55.424574 
Q 165.928253 53.804216 165.953131 50.181976 
L 161.98088 50.181976 
L 161.98088 47.870385 
L 167.550877 47.870385 
L 167.550877 58.894205 
L 166.445171 58.894205 
L 166.030531 56.241486 
Q 165.159787 57.799005 164.485306 58.404956 
Q 163.351957 59.441805 161.607704 59.441805 
Q 159.354827 59.441805 157.729439 57.071864 
Q 155.957544 54.095971 155.957544 48.907234 
Q 155.957544 43.731963 157.68521 40.675277 
Q 159.327185 37.757735 161.936652 37.757735 
z
M 161.651933 37.726315 
L 161.651933 37.726315 
z
" style="fill:#ffa600;"/>
   </g>
   <g id="patch_15">
    <path clip-path="url(#pf73f7d8d93)" d="M 174.256663 76.767831 
Q 176.739322 76.767831 178.10877 77.004467 
Q 179.478219 77.240588 179.629114 77.541012 
L 177.90378 77.541012 
Q 177.61053 77.313122 176.733628 77.179886 
Q 175.856726 77.046135 174.273746 77.046135 
Q 172.343422 77.046135 171.156187 77.291516 
Q 169.968952 77.536382 169.968952 78.042576 
Q 169.968952 78.457717 171.039456 78.715959 
Q 172.112808 78.973686 174.239581 78.973686 
Q 176.195529 78.973686 177.22048 78.702069 
Q 177.761426 78.559059 178.029052 78.32551 
L 179.754386 78.32551 
Q 179.523772 78.698468 178.225501 78.951051 
Q 176.668145 79.255076 174.026049 79.255076 
Q 171.748381 79.255076 170.199566 79.00558 
Q 168.161053 78.676348 168.161053 77.988047 
Q 168.161053 77.465906 169.692785 77.13153 
Q 171.346942 76.767831 174.256663 76.767831 
z
M 173.900778 76.767831 
L 173.900778 76.767831 
z
" style="fill:#0000ff;"/>
   </g>
   <g id="patch_16">
    <path clip-path="url(#pf73f7d8d93)" d="M 174.140161 53.23267 
Q 175.928641 53.23267 177.233375 54.450594 
Q 179.124133 56.199533 179.547066 60.584059 
L 177.847042 60.584059 
Q 177.53468 58.133596 176.558894 57.013106 
Q 175.583108 55.892616 174.095933 55.892616 
Q 172.335095 55.892616 171.129875 58.226158 
Q 169.924655 60.554829 169.924655 65.168324 
Q 169.924655 69.153371 170.917026 71.657423 
Q 171.912162 74.161474 174.156746 74.161474 
Q 175.87612 74.161474 177.003941 72.407664 
Q 178.131762 70.648982 178.15664 66.717523 
L 174.184389 66.717523 
L 174.184389 64.2086 
L 179.754386 64.2086 
L 179.754386 76.173485 
L 178.648679 76.173485 
L 178.234039 73.294312 
Q 177.363296 74.984791 176.688815 75.64247 
Q 175.555465 76.767831 173.811213 76.767831 
Q 171.558336 76.767831 169.932947 74.195576 
Q 168.161053 70.965642 168.161053 65.333962 
Q 168.161053 59.716897 169.888719 56.399272 
Q 171.530693 53.23267 174.140161 53.23267 
z
M 173.855441 53.198568 
L 173.855441 53.198568 
z
" style="fill:#ffa600;"/>
   </g>
   <g id="patch_17">
    <path clip-path="url(#pf73f7d8d93)" d="M 191.957895 76.767831 
L 191.957895 77.064177 
L 187.14316 77.064177 
L 187.14316 79.255076 
L 185.179296 79.255076 
L 185.179296 77.064177 
L 180.364561 77.064177 
L 180.364561 76.767831 
L 191.957895 76.767831 
z
" style="fill:#ff0000;"/>
   </g>
   <g id="patch_18">
    <path clip-path="url(#pf73f7d8d93)" d="M 186.34367 43.018813 
Q 188.13215 43.018813 189.436884 44.765295 
Q 191.327642 47.273243 191.750575 53.560578 
L 190.050551 53.560578 
Q 189.738189 50.046657 188.762403 48.439893 
Q 187.786617 46.83313 186.299441 46.83313 
Q 184.538604 46.83313 183.333384 50.179389 
Q 182.128163 53.518663 182.128163 60.134337 
Q 182.128163 65.848826 183.120535 69.439593 
Q 184.115671 73.03036 186.360255 73.03036 
Q 188.079629 73.03036 189.20745 70.515426 
Q 190.33527 67.993506 190.360149 62.355862 
L 186.387898 62.355862 
L 186.387898 58.758109 
L 191.957895 58.758109 
L 191.957895 75.915548 
L 190.852188 75.915548 
L 190.437548 71.786865 
Q 189.566804 74.210982 188.892323 75.154082 
Q 187.758974 76.767831 186.014722 76.767831 
Q 183.761845 76.767831 182.136456 73.079261 
Q 180.364561 68.447591 180.364561 60.371858 
Q 180.364561 52.317083 182.092228 47.559666 
Q 183.734202 43.018813 186.34367 43.018813 
z
M 186.05895 42.969911 
L 186.05895 42.969911 
z
" style="fill:#ffa600;"/>
   </g>
   <g id="patch_19">
    <path clip-path="url(#pf73f7d8d93)" d="M 198.547178 72.045093 
Q 200.335659 72.045093 201.640393 72.418203 
Q 203.531151 72.95399 203.954084 74.297187 
L 202.25406 74.297187 
Q 201.941698 73.546489 200.965912 73.203227 
Q 199.990125 72.859966 198.50295 72.859966 
Q 196.742112 72.859966 195.536892 73.574845 
Q 194.331672 74.288232 194.331672 75.701574 
Q 194.331672 76.922391 195.324044 77.689505 
Q 196.31918 78.45662 198.563764 78.45662 
Q 200.283138 78.45662 201.410958 77.919341 
Q 202.538779 77.38057 202.563658 76.17617 
L 198.591407 76.17617 
L 198.591407 75.407563 
L 204.161404 75.407563 
L 204.161404 79.072998 
L 203.055697 79.072998 
L 202.641057 78.190966 
Q 201.770313 78.708843 201.095832 78.910322 
Q 199.962483 79.255076 198.218231 79.255076 
Q 195.965354 79.255076 194.339965 78.467067 
Q 192.56807 77.477579 192.56807 75.752317 
Q 192.56807 74.031532 194.295737 73.01518 
Q 195.937711 72.045093 198.547178 72.045093 
z
M 198.262459 72.034646 
L 198.262459 72.034646 
z
" style="fill:#ffa600;"/>
   </g>
   <g id="patch_20">
    <path clip-path="url(#pf73f7d8d93)" d="M 198.663681 60.370101 
Q 201.14634 60.370101 202.515788 61.479861 
Q 203.885236 62.587209 204.036132 63.996122 
L 202.310798 63.996122 
Q 202.017548 62.927375 201.140645 62.302531 
Q 200.263743 61.675276 198.680763 61.675276 
Q 196.750439 61.675276 195.563204 62.826049 
Q 194.37597 63.974409 194.37597 66.348331 
Q 194.37597 68.295237 195.446474 69.506323 
Q 196.519825 70.714996 198.646598 70.714996 
Q 200.602546 70.714996 201.627497 69.441185 
Q 202.168443 68.770503 202.43607 67.675218 
L 204.161404 67.675218 
Q 203.93079 69.424297 202.632518 70.608845 
Q 201.075163 72.034646 198.433067 72.034646 
Q 196.155398 72.034646 194.606584 70.864573 
Q 192.56807 69.320559 192.56807 66.092604 
Q 192.56807 63.643894 194.099802 62.075754 
Q 195.753959 60.370101 198.663681 60.370101 
z
M 198.307795 60.370101 
L 198.307795 60.370101 
z
" style="fill:#0000ff;"/>
   </g>
   <g id="patch_21">
    <path clip-path="url(#pf73f7d8d93)" d="M 210.750687 74.369853 
Q 212.539168 74.369853 213.843901 74.622659 
Q 215.73466 74.985688 216.157592 75.89579 
L 214.457568 75.89579 
Q 214.145206 75.387144 213.16942 75.154563 
Q 212.193634 74.921981 210.706459 74.921981 
Q 208.945621 74.921981 207.740401 75.406357 
Q 206.535181 75.889722 206.535181 76.847352 
Q 206.535181 77.674533 207.527553 78.194302 
Q 208.522688 78.714071 210.767273 78.714071 
Q 212.486647 78.714071 213.614467 78.350031 
Q 214.742288 77.984979 214.767166 77.168921 
L 210.794915 77.168921 
L 210.794915 76.64814 
L 216.364912 76.64814 
L 216.364912 79.131707 
L 215.259206 79.131707 
L 214.844566 78.534073 
Q 213.973822 78.884968 213.299341 79.021483 
Q 212.165992 79.255076 210.421739 79.255076 
Q 208.168862 79.255076 206.543474 78.72115 
Q 204.771579 78.050708 204.771579 76.881733 
Q 204.771579 75.715792 206.499245 75.027148 
Q 208.14122 74.369853 210.750687 74.369853 
z
M 210.465968 74.362774 
L 210.465968 74.362774 
z
" style="fill:#ffa600;"/>
   </g>
   <g id="patch_22">
    <path clip-path="url(#pf73f7d8d93)" d="M 210.86719 47.221853 
Q 213.349848 47.221853 214.719297 49.80403 
Q 216.088745 52.380593 216.239641 55.658834 
L 214.514307 55.658834 
Q 214.221057 53.172086 213.344154 51.718208 
Q 212.467252 50.258717 210.884272 50.258717 
Q 208.953948 50.258717 207.766713 52.936322 
Q 206.579478 55.608313 206.579478 61.131926 
Q 206.579478 65.661962 207.649983 68.479902 
Q 208.723334 71.292229 210.850107 71.292229 
Q 212.806055 71.292229 213.831006 68.32834 
Q 214.371952 66.767807 214.639578 64.219311 
L 216.364912 64.219311 
Q 216.134298 68.289046 214.836027 71.045239 
Q 213.278671 74.362774 210.636576 74.362774 
Q 208.358907 74.362774 206.810092 71.640262 
Q 204.771579 68.047668 204.771579 60.536903 
Q 204.771579 54.839274 206.303311 51.190546 
Q 207.957468 47.221853 210.86719 47.221853 
z
M 210.511304 47.221853 
L 210.511304 47.221853 
z
" style="fill:#0000ff;"/>
   </g>
   <g id="patch_23">
    <path clip-path="url(#pf73f7d8d93)" d="M 223.070698 69.778678 
Q 225.553357 69.778678 226.922805 70.680259 
Q 228.292254 71.57988 228.443149 72.724495 
L 226.717815 72.724495 
Q 226.424565 71.856234 225.547663 71.348605 
Q 224.670761 70.839015 223.087781 70.839015 
Q 221.157457 70.839015 219.970222 71.773916 
Q 218.782987 72.706856 218.782987 74.635455 
Q 218.782987 76.217141 219.853491 77.20104 
Q 220.926843 78.182979 223.053616 78.182979 
Q 225.009564 78.182979 226.034515 77.148121 
Q 226.575461 76.603253 226.843087 75.713432 
L 228.568421 75.713432 
Q 228.337807 77.134401 227.039536 78.096741 
Q 225.48218 79.255076 222.840084 79.255076 
Q 220.562416 79.255076 219.013601 78.304496 
Q 216.975088 77.050123 216.975088 74.427699 
Q 216.975088 72.438341 218.50682 71.164368 
Q 220.160977 69.778678 223.070698 69.778678 
z
M 222.714813 69.778678 
L 222.714813 69.778678 
z
" style="fill:#0000ff;"/>
   </g>
   <g id="patch_24">
    <path clip-path="url(#pf73f7d8d93)" d="M 222.954196 48.094608 
Q 224.742676 48.094608 226.04741 49.216739 
Q 227.938168 50.82812 228.361101 54.867794 
L 226.661077 54.867794 
Q 226.348715 52.610065 225.372929 51.577704 
Q 224.397143 50.545343 222.909968 50.545343 
Q 221.14913 50.545343 219.94391 52.695347 
Q 218.73869 54.840863 218.73869 59.091497 
Q 218.73869 62.763111 219.731061 65.070214 
Q 220.726197 67.377316 222.970782 67.377316 
Q 224.690155 67.377316 225.817976 65.761447 
Q 226.945797 64.141089 226.970675 60.518848 
L 222.998424 60.518848 
L 222.998424 58.207257 
L 228.568421 58.207257 
L 228.568421 69.231078 
L 227.462714 69.231078 
L 227.048075 66.578359 
Q 226.177331 68.135877 225.50285 68.741828 
Q 224.3695 69.778678 222.625248 69.778678 
Q 220.372371 69.778678 218.746982 67.408736 
Q 216.975088 64.432843 216.975088 59.244107 
Q 216.975088 54.068836 218.702754 51.01215 
Q 220.344728 48.094608 222.954196 48.094608 
z
M 222.669477 48.063188 
L 222.669477 48.063188 
z
" style="fill:#ffa600;"/>
   </g>
   <g id="patch_25">
    <path clip-path="url(#pf73f7d8d93)" d="M 240.77193 69.778678 
L 240.77193 70.907754 
L 235.957195 70.907754 
L 235.957195 79.255076 
L 233.993331 79.255076 
L 233.993331 70.907754 
L 229.178596 70.907754 
L 229.178596 69.778678 
L 240.77193 69.778678 
z
" style="fill:#ff0000;"/>
   </g>
   <g id="patch_26">
    <path clip-path="url(#pf73f7d8d93)" d="M 235.157705 58.13101 
Q 236.946185 58.13101 238.250919 58.733767 
Q 240.141677 59.599325 240.56461 61.769249 
L 238.864586 61.769249 
Q 238.552224 60.556503 237.576438 60.001966 
Q 236.600652 59.44743 235.113476 59.44743 
Q 233.352639 59.44743 232.147419 60.602312 
Q 230.942198 61.754783 230.942198 64.038024 
Q 230.942198 66.010244 231.93457 67.249511 
Q 232.929706 68.488779 235.17429 68.488779 
Q 236.893664 68.488779 238.021485 67.62081 
Q 239.149305 66.750429 239.174184 64.804731 
L 235.201933 64.804731 
L 235.201933 63.563052 
L 240.77193 63.563052 
L 240.77193 69.484533 
L 239.666223 69.484533 
L 239.251583 68.059616 
Q 238.380839 68.896242 237.706358 69.221731 
Q 236.573009 69.778678 234.828757 69.778678 
Q 232.57588 69.778678 230.950491 68.505656 
Q 229.178596 66.907146 229.178596 64.119999 
Q 229.178596 61.340086 230.906263 59.698177 
Q 232.548237 58.13101 235.157705 58.13101 
z
M 234.872985 58.114133 
L 234.872985 58.114133 
z
" style="fill:#ffa600;"/>
   </g>
   <g id="patch_27">
    <path clip-path="url(#pf73f7d8d93)" d="M 247.361214 69.792389 
Q 249.149694 69.792389 250.454428 70.282075 
Q 252.345186 70.985264 252.768119 72.748132 
L 251.068095 72.748132 
Q 250.755733 71.762885 249.779947 71.312374 
Q 248.804161 70.861863 247.316985 70.861863 
Q 245.556148 70.861863 244.350927 71.800101 
Q 243.145707 72.73638 243.145707 74.591309 
Q 243.145707 76.193561 244.138079 77.200355 
Q 245.133215 78.207149 247.377799 78.207149 
Q 249.097173 78.207149 250.224994 77.502001 
Q 251.352814 76.794895 251.377693 75.214189 
L 247.405442 75.214189 
L 247.405442 74.205437 
L 252.975439 74.205437 
L 252.975439 79.016109 
L 251.869732 79.016109 
L 251.455092 77.858492 
Q 250.584348 78.538176 249.909867 78.802606 
Q 248.776518 79.255076 247.032266 79.255076 
Q 244.779389 79.255076 243.154 78.22086 
Q 241.382105 76.922213 241.382105 74.657907 
Q 241.382105 72.399476 243.109772 71.065572 
Q 244.751746 69.792389 247.361214 69.792389 
z
M 247.076494 69.778678 
L 247.076494 69.778678 
z
" style="fill:#ffa600;"/>
   </g>
   <g id="patch_28">
    <path clip-path="url(#pf73f7d8d93)" d="M 247.477716 55.989848 
Q 249.960375 55.989848 251.329823 57.301712 
Q 252.699271 58.610724 252.850167 60.27622 
L 251.124833 60.27622 
Q 250.831583 59.012838 249.954681 58.274202 
Q 249.077778 57.532714 247.494798 57.532714 
Q 245.564474 57.532714 244.37724 58.893059 
Q 243.190005 60.250553 243.190005 63.056801 
Q 243.190005 65.358267 244.260509 66.78991 
Q 245.33386 68.218701 247.460633 68.218701 
Q 249.416581 68.218701 250.441532 66.712909 
Q 250.982479 65.920087 251.250105 64.625334 
L 252.975439 64.625334 
Q 252.744825 66.692946 251.446554 68.093218 
Q 249.889198 69.778678 247.247102 69.778678 
Q 244.969433 69.778678 243.420619 68.395517 
Q 241.382105 66.570315 241.382105 62.754502 
Q 241.382105 59.859846 242.913837 58.006125 
Q 244.567994 55.989848 247.477716 55.989848 
z
M 247.12183 55.989848 
L 247.12183 55.989848 
z
" style="fill:#0000ff;"/>
   </g>
   <g id="patch_29">
    <path clip-path="url(#pf73f7d8d93)" d="M 259.681225 65.466246 
Q 262.163884 65.466246 263.533332 66.77811 
Q 264.90278 68.087122 265.053676 69.752618 
L 263.328342 69.752618 
Q 263.035092 68.489236 262.158189 67.7506 
Q 261.281287 67.009112 259.698307 67.009112 
Q 257.767983 67.009112 256.580748 68.369457 
Q 255.393514 69.726951 255.393514 72.533199 
Q 255.393514 74.834665 256.464018 76.266308 
Q 257.537369 77.695099 259.664142 77.695099 
Q 261.62009 77.695099 262.645041 76.189307 
Q 263.185987 75.396485 263.453613 74.101732 
L 265.178947 74.101732 
Q 264.948333 76.169344 263.650062 77.569616 
Q 262.092706 79.255076 259.450611 79.255076 
Q 257.172942 79.255076 255.624127 77.871915 
Q 253.585614 76.046713 253.585614 72.2309 
Q 253.585614 69.336244 255.117346 67.482523 
Q 256.771503 65.466246 259.681225 65.466246 
z
M 259.325339 65.466246 
L 259.325339 65.466246 
z
" style="fill:#0000ff;"/>
   </g>
   <g id="patch_30">
    <path clip-path="url(#pf73f7d8d93)" d="M 259.564722 43.782175 
Q 261.353203 43.782175 262.657936 44.904307 
Q 264.548695 46.515688 264.971627 50.555361 
L 263.271604 50.555361 
Q 262.959241 48.297633 261.983455 47.265272 
Q 261.007669 46.232911 259.520494 46.232911 
Q 257.759656 46.232911 256.554436 48.382915 
Q 255.349216 50.52843 255.349216 54.779065 
Q 255.349216 58.450679 256.341588 60.757782 
Q 257.336724 63.064884 259.581308 63.064884 
Q 261.300682 63.064884 262.428502 61.449015 
Q 263.556323 59.828657 263.581201 56.206416 
L 259.608951 56.206416 
L 259.608951 53.894825 
L 265.178947 53.894825 
L 265.178947 64.918645 
L 264.073241 64.918645 
L 263.658601 62.265926 
Q 262.787857 63.823445 262.113376 64.429396 
Q 260.980027 65.466246 259.235775 65.466246 
Q 256.982897 65.466246 255.357509 63.096304 
Q 253.585614 60.120411 253.585614 54.931674 
Q 253.585614 49.756404 255.313281 46.699717 
Q 256.955255 43.782175 259.564722 43.782175 
z
M 259.280003 43.750756 
L 259.280003 43.750756 
z
" style="fill:#ffa600;"/>
   </g>
   <g id="patch_31">
    <path clip-path="url(#pf73f7d8d93)" d="M 271.884733 72.034646 
Q 274.367392 72.034646 275.736841 72.721595 
Q 277.106289 73.40705 277.257184 74.279177 
L 275.53185 74.279177 
Q 275.238601 73.617615 274.361698 73.230833 
Q 273.484796 72.842558 271.901816 72.842558 
Q 269.971492 72.842558 268.784257 73.554894 
Q 267.597022 74.265737 267.597022 75.73521 
Q 267.597022 76.940357 268.667527 77.690027 
Q 269.740878 78.438204 271.867651 78.438204 
Q 273.823599 78.438204 274.84855 77.649706 
Q 275.389496 77.23455 275.657122 76.556562 
L 277.382456 76.556562 
Q 277.151842 77.639253 275.853571 78.372496 
Q 274.296215 79.255076 271.65412 79.255076 
Q 269.376451 79.255076 267.827636 78.530793 
Q 265.789123 77.575038 265.789123 75.576913 
Q 265.789123 74.061145 267.320855 73.090457 
Q 268.975012 72.034646 271.884733 72.034646 
z
M 271.528848 72.034646 
L 271.528848 72.034646 
z
" style="fill:#0000ff;"/>
   </g>
   <g id="patch_32">
    <path clip-path="url(#pf73f7d8d93)" d="M 271.768231 46.694367 
Q 273.556711 46.694367 274.861445 48.005704 
Q 276.752203 49.888785 277.175136 54.609598 
L 275.475112 54.609598 
Q 275.16275 51.971188 274.186964 50.764758 
Q 273.211178 49.558328 271.724003 49.558328 
Q 269.963165 49.558328 268.757945 52.07085 
Q 267.552725 54.578126 267.552725 59.545471 
Q 267.552725 63.836166 268.545096 66.532275 
Q 269.540232 69.228385 271.784817 69.228385 
Q 273.50419 69.228385 274.632011 67.340059 
Q 275.759832 65.446488 275.78471 61.213492 
L 271.812459 61.213492 
L 271.812459 58.512138 
L 277.382456 58.512138 
L 277.382456 71.394714 
L 276.27675 71.394714 
L 275.86211 68.294713 
Q 274.991366 70.114849 274.316885 70.822971 
Q 273.183535 72.034646 271.439283 72.034646 
Q 269.186406 72.034646 267.561018 69.265102 
Q 265.789123 65.787436 265.789123 59.723813 
Q 265.789123 53.675926 267.516789 50.103844 
Q 269.158764 46.694367 271.768231 46.694367 
z
M 271.483512 46.65765 
L 271.483512 46.65765 
z
" style="fill:#ffa600;"/>
   </g>
   <g id="patch_33">
    <path clip-path="url(#pf73f7d8d93)" d="M 284.088242 74.362774 
Q 286.570901 74.362774 287.940349 74.828226 
Q 289.309798 75.292666 289.460693 75.883587 
L 287.735359 75.883587 
Q 287.442109 75.435337 286.565207 75.173267 
Q 285.688304 74.910186 284.105325 74.910186 
Q 282.175001 74.910186 280.987766 75.392839 
Q 279.800531 75.87448 279.800531 76.870142 
Q 279.800531 77.686706 280.871035 78.194656 
Q 281.944387 78.701593 284.07116 78.701593 
Q 286.027108 78.701593 287.052059 78.167336 
Q 287.593005 77.886041 287.860631 77.42666 
L 289.585965 77.42666 
Q 289.355351 78.160253 288.05708 78.657072 
Q 286.499724 79.255076 283.857628 79.255076 
Q 281.57996 79.255076 280.031145 78.764328 
Q 277.992632 78.116743 277.992632 76.762886 
Q 277.992632 75.735857 279.524364 75.078153 
Q 281.178521 74.362774 284.088242 74.362774 
z
M 283.732357 74.362774 
L 283.732357 74.362774 
z
" style="fill:#0000ff;"/>
   </g>
   <g id="patch_34">
    <path clip-path="url(#pf73f7d8d93)" d="M 283.97174 47.261123 
Q 285.76022 47.261123 287.064954 48.663609 
Q 288.955712 50.67758 289.378645 55.726532 
L 287.678621 55.726532 
Q 287.366259 52.904729 286.390473 51.614441 
Q 285.414687 50.324153 283.927512 50.324153 
Q 282.166674 50.324153 280.961454 53.011318 
Q 279.756234 55.692872 279.756234 61.005492 
Q 279.756234 65.594428 280.748605 68.47794 
Q 281.743741 71.361453 283.988325 71.361453 
Q 285.707699 71.361453 286.83552 69.341872 
Q 287.963341 67.316681 287.988219 62.789455 
L 284.015968 62.789455 
L 284.015968 59.900332 
L 289.585965 59.900332 
L 289.585965 73.678361 
L 288.480258 73.678361 
L 288.065618 70.362882 
Q 287.194874 72.309534 286.520393 73.066877 
Q 285.387044 74.362774 283.642792 74.362774 
Q 281.389915 74.362774 279.764526 71.400722 
Q 277.992632 67.681328 277.992632 61.19623 
Q 277.992632 54.727961 279.720298 50.907588 
Q 281.362272 47.261123 283.97174 47.261123 
z
M 283.68702 47.221853 
L 283.68702 47.221853 
z
" style="fill:#ffa600;"/>
   </g>
   <g id="patch_35">
    <path clip-path="url(#pf73f7d8d93)" d="M 296.291751 74.362774 
Q 298.77441 74.362774 300.143858 74.828226 
Q 301.513306 75.292666 301.664202 75.883587 
L 299.938868 75.883587 
Q 299.645618 75.435337 298.768716 75.173267 
Q 297.891813 74.910186 296.308834 74.910186 
Q 294.378509 74.910186 293.191275 75.392839 
Q 292.00404 75.87448 292.00404 76.870142 
Q 292.00404 77.686706 293.074544 78.194656 
Q 294.147895 78.701593 296.274669 78.701593 
Q 298.230616 78.701593 299.255567 78.167336 
Q 299.796514 77.886041 300.06414 77.42666 
L 301.789474 77.42666 
Q 301.55886 78.160253 300.260589 78.657072 
Q 298.703233 79.255076 296.061137 79.255076 
Q 293.783468 79.255076 292.234654 78.764328 
Q 290.19614 78.116743 290.19614 76.762886 
Q 290.19614 75.735857 291.727873 75.078153 
Q 293.382029 74.362774 296.291751 74.362774 
z
M 295.935865 74.362774 
L 295.935865 74.362774 
z
" style="fill:#0000ff;"/>
   </g>
   <g id="patch_36">
    <path clip-path="url(#pf73f7d8d93)" d="M 296.175249 50.827613 
Q 297.963729 50.827613 299.268463 52.045537 
Q 301.159221 53.794475 301.582154 58.179001 
L 299.88213 58.179001 
Q 299.569768 55.728539 298.593982 54.608049 
Q 297.618196 53.487559 296.13102 53.487559 
Q 294.370183 53.487559 293.164962 55.821101 
Q 291.959742 58.149771 291.959742 62.763267 
Q 291.959742 66.748314 292.952114 69.252366 
Q 293.94725 71.756417 296.191834 71.756417 
Q 297.911208 71.756417 299.039029 70.002607 
Q 300.166849 68.243925 300.191728 64.312466 
L 296.219477 64.312466 
L 296.219477 61.803543 
L 301.789474 61.803543 
L 301.789474 73.768427 
L 300.683767 73.768427 
L 300.269127 70.889255 
Q 299.398383 72.579734 298.723902 73.237412 
Q 297.590553 74.362774 295.846301 74.362774 
Q 293.593424 74.362774 291.968035 71.790519 
Q 290.19614 68.560585 290.19614 62.928905 
Q 290.19614 57.31184 291.923807 53.994215 
Q 293.565781 50.827613 296.175249 50.827613 
z
M 295.890529 50.793511 
L 295.890529 50.793511 
z
" style="fill:#ffa600;"/>
   </g>
   <g id="patch_37">
    <path clip-path="url(#pf73f7d8d93)" d="M 308.49526 61.395072 
Q 310.977919 61.395072 312.347367 63.094265 
Q 313.716815 64.789765 313.867711 66.947003 
L 312.142377 66.947003 
Q 311.849127 65.310605 310.972224 64.353885 
Q 310.095322 63.393471 308.512342 63.393471 
Q 306.582018 63.393471 305.394783 65.155461 
Q 304.207549 66.913758 304.207549 70.548555 
Q 304.207549 73.529532 305.278053 75.383869 
Q 306.351404 77.234513 308.478177 77.234513 
Q 310.434125 77.234513 311.459076 75.284134 
Q 312.000022 74.25723 312.267648 72.5802 
L 313.992982 72.5802 
Q 313.762369 75.258277 312.464097 77.071981 
Q 310.906741 79.255076 308.264646 79.255076 
Q 305.986977 79.255076 304.438163 77.463535 
Q 302.399649 75.099439 302.399649 70.157001 
Q 302.399649 66.407693 303.931381 64.006659 
Q 305.585538 61.395072 308.49526 61.395072 
z
M 308.139374 61.395072 
L 308.139374 61.395072 
z
" style="fill:#0000ff;"/>
   </g>
   <g id="patch_38">
    <path clip-path="url(#pf73f7d8d93)" d="M 308.378757 43.560908 
Q 310.167238 43.560908 311.471971 44.483811 
Q 313.36273 45.809098 313.785662 49.131546 
L 312.085639 49.131546 
Q 311.773277 47.274667 310.79749 46.425597 
Q 309.821704 45.576527 308.334529 45.576527 
Q 306.573691 45.576527 305.368471 47.344808 
Q 304.163251 49.109397 304.163251 52.605351 
Q 304.163251 55.625087 305.155623 57.522574 
Q 306.150759 59.420061 308.395343 59.420061 
Q 310.114717 59.420061 311.242537 58.091082 
Q 312.370358 56.758411 312.395236 53.779282 
L 308.422986 53.779282 
L 308.422986 51.878104 
L 313.992982 51.878104 
L 313.992982 60.944695 
L 312.887276 60.944695 
L 312.472636 58.762954 
Q 311.601892 60.043943 310.927411 60.54231 
Q 309.794062 61.395072 308.04981 61.395072 
Q 305.796933 61.395072 304.171544 59.445902 
Q 302.399649 56.998365 302.399649 52.730865 
Q 302.399649 48.47444 304.127316 45.960454 
Q 305.76929 43.560908 308.378757 43.560908 
z
M 308.094038 43.535067 
L 308.094038 43.535067 
z
" style="fill:#ffa600;"/>
   </g>
   <g id="patch_39">
    <path clip-path="url(#pf73f7d8d93)" d="M 320.698769 63.4022 
Q 323.181427 63.4022 324.550876 64.910436 
Q 325.920324 66.415394 326.071219 68.330199 
L 324.345885 68.330199 
Q 324.052636 66.877701 323.175733 66.028499 
Q 322.298831 65.176017 320.715851 65.176017 
Q 318.785527 65.176017 317.598292 66.739993 
Q 316.411057 68.30069 316.411057 71.527004 
Q 316.411057 74.172975 317.481562 75.81892 
Q 318.554913 77.461586 320.681686 77.461586 
Q 322.637634 77.461586 323.662585 75.730393 
Q 324.203531 74.818894 324.471157 73.33033 
L 326.196491 73.33033 
Q 325.965877 75.707442 324.667606 77.31732 
Q 323.11025 79.255076 320.468155 79.255076 
Q 318.190486 79.255076 316.641671 77.66487 
Q 314.603158 75.566454 314.603158 71.179454 
Q 314.603158 67.851497 316.13489 65.720294 
Q 317.789047 63.4022 320.698769 63.4022 
z
M 320.342883 63.4022 
L 320.342883 63.4022 
z
" style="fill:#0000ff;"/>
   </g>
   <g id="patch_40">
    <path clip-path="url(#pf73f7d8d93)" d="M 320.582266 45.568037 
Q 322.370747 45.568037 323.67548 46.490939 
Q 325.566238 47.816227 325.989171 51.138675 
L 324.289147 51.138675 
Q 323.976785 49.281796 323.000999 48.432725 
Q 322.025213 47.583655 320.538038 47.583655 
Q 318.7772 47.583655 317.57198 49.351936 
Q 316.36676 51.116525 316.36676 54.612479 
Q 316.36676 57.632215 317.359132 59.529702 
Q 318.354267 61.427189 320.598852 61.427189 
Q 322.318225 61.427189 323.446046 60.09821 
Q 324.573867 58.765539 324.598745 55.786411 
L 320.626494 55.786411 
L 320.626494 53.885232 
L 326.196491 53.885232 
L 326.196491 62.951824 
L 325.090785 62.951824 
L 324.676145 60.770083 
Q 323.805401 62.051071 323.13092 62.549438 
Q 321.997571 63.4022 320.253318 63.4022 
Q 318.000441 63.4022 316.375053 61.45303 
Q 314.603158 59.005494 314.603158 54.737994 
Q 314.603158 50.481568 316.330824 47.967583 
Q 317.972799 45.568037 320.582266 45.568037 
z
M 320.297547 45.542196 
L 320.297547 45.542196 
z
" style="fill:#ffa600;"/>
   </g>
   <g id="patch_41">
    <path clip-path="url(#pf73f7d8d93)" d="M 332.785775 48.753777 
Q 334.574255 48.753777 335.878989 50.332193 
Q 337.769747 52.598797 338.19268 58.281092 
L 336.492656 58.281092 
Q 336.180294 55.105321 335.204508 53.653178 
Q 334.228722 52.201036 332.741547 52.201036 
Q 330.980709 52.201036 329.775489 55.22528 
Q 328.570269 58.24321 328.570269 64.222248 
Q 328.570269 69.386823 329.56264 72.632045 
Q 330.557776 75.877267 332.802361 75.877267 
Q 334.521734 75.877267 335.649555 73.604349 
Q 336.777376 71.325117 336.802254 66.229992 
L 332.830003 66.229992 
L 332.830003 62.978457 
L 338.4 62.978457 
L 338.4 78.484809 
L 337.294293 78.484809 
L 336.879653 74.753435 
Q 336.00891 76.944276 335.334429 77.79662 
Q 334.201079 79.255076 332.456827 79.255076 
Q 330.20395 79.255076 328.578561 75.921463 
Q 326.806667 71.735505 326.806667 64.436912 
Q 326.806667 57.157261 328.534333 52.857657 
Q 330.176307 48.753777 332.785775 48.753777 
z
M 332.501055 48.709582 
L 332.501055 48.709582 
z
" style="fill:#ffa600;"/>
   </g>
   <g id="patch_42">
    <path clip-path="url(#pf73f7d8d93)" d="M 102.72171 90.444567 
L 100.7494 102.508515 
L 98.652583 90.444567 
L 102.72171 90.444567 
z
M 99.829744 106.565524 
L 101.819032 106.565524 
L 106.533333 79.255076 
L 104.603469 79.255076 
L 103.287653 87.434528 
L 98.148894 87.434528 
L 96.742527 79.255076 
L 94.94 79.255076 
L 99.829744 106.565524 
z
M 100.740911 106.565524 
L 100.740911 106.565524 
z
" style="fill:none;opacity:0;"/>
   </g>
   <g id="patch_43">
    <path clip-path="url(#pf73f7d8d93)" d="M 106.533333 141.64 
L 106.533333 137.461011 
L 101.718599 137.461011 
L 101.718599 106.565524 
L 99.754735 106.565524 
L 99.754735 137.461011 
L 94.94 137.461011 
L 94.94 141.64 
L 106.533333 141.64 
z
" style="fill:none;opacity:0;"/>
   </g>
   <g id="patch_44">
    <path clip-path="url(#pf73f7d8d93)" d="M 114.925219 97.186895 
L 112.952909 116.520085 
L 110.856092 97.186895 
L 114.925219 97.186895 
z
M 112.033252 123.02168 
L 114.022541 123.02168 
L 118.736842 79.255076 
L 116.806978 79.255076 
L 115.491162 92.363131 
L 110.352403 92.363131 
L 108.946036 79.255076 
L 107.143509 79.255076 
L 112.033252 123.02168 
z
M 112.94442 123.02168 
L 112.94442 123.02168 
z
" style="fill:none;opacity:0;"/>
   </g>
   <g id="patch_45">
    <path clip-path="url(#pf73f7d8d93)" d="M 127.128728 98.846172 
L 125.156418 104.985038 
L 123.059601 98.846172 
L 127.128728 98.846172 
z
M 124.236761 107.049489 
L 126.226049 107.049489 
L 130.940351 93.152283 
L 129.010487 93.152283 
L 127.69467 97.314482 
L 122.555912 97.314482 
L 121.149545 93.152283 
L 119.347018 93.152283 
L 124.236761 107.049489 
z
M 125.147929 107.049489 
L 125.147929 107.049489 
z
" style="fill:none;opacity:0;"/>
   </g>
   <g id="patch_46">
    <path clip-path="url(#pf73f7d8d93)" d="M 130.940351 93.152283 
L 130.940351 91.496484 
L 126.125616 91.496484 
L 126.125616 79.255076 
L 124.161752 79.255076 
L 124.161752 91.496484 
L 119.347018 91.496484 
L 119.347018 93.152283 
L 130.940351 93.152283 
z
" style="fill:none;opacity:0;"/>
   </g>
   <g id="patch_47">
    <path clip-path="url(#pf73f7d8d93)" d="M 139.332237 117.344004 
L 137.359927 132.837586 
L 135.26311 117.344004 
L 139.332237 117.344004 
z
M 136.44027 138.047953 
L 138.429558 138.047953 
L 143.14386 102.973477 
L 141.213996 102.973477 
L 139.898179 113.478248 
L 134.759421 113.478248 
L 133.353053 102.973477 
L 131.550526 102.973477 
L 136.44027 138.047953 
z
M 137.351438 138.047953 
L 137.351438 138.047953 
z
" style="fill:none;opacity:0;"/>
   </g>
   <g id="patch_48">
    <path clip-path="url(#pf73f7d8d93)" d="M 143.14386 102.973477 
L 143.14386 100.14752 
L 138.329125 100.14752 
L 138.329125 79.255076 
L 136.365261 79.255076 
L 136.365261 100.14752 
L 131.550526 100.14752 
L 131.550526 102.973477 
L 143.14386 102.973477 
z
" style="fill:none;opacity:0;"/>
   </g>
   <g id="patch_49">
    <path clip-path="url(#pf73f7d8d93)" d="M 151.535745 104.522993 
L 149.563435 120.016576 
L 147.466618 104.522993 
L 151.535745 104.522993 
z
M 148.643779 125.226942 
L 150.633067 125.226942 
L 155.347368 90.152466 
L 153.417504 90.152466 
L 152.101688 100.657237 
L 146.962929 100.657237 
L 145.556562 90.152466 
L 143.754035 90.152466 
L 148.643779 125.226942 
z
M 149.554946 125.226942 
L 149.554946 125.226942 
z
" style="fill:none;opacity:0;"/>
   </g>
   <g id="patch_50">
    <path clip-path="url(#pf73f7d8d93)" d="M 155.347368 90.152466 
L 155.347368 88.854084 
L 150.532634 88.854084 
L 150.532634 79.255076 
L 148.56877 79.255076 
L 148.56877 88.854084 
L 143.754035 88.854084 
L 143.754035 90.152466 
L 155.347368 90.152466 
z
" style="fill:none;opacity:0;"/>
   </g>
   <g id="patch_51">
    <path clip-path="url(#pf73f7d8d93)" d="M 163.739254 115.64843 
L 161.766944 133.004538 
L 159.670127 115.64843 
L 163.739254 115.64843 
z
M 160.847288 138.841257 
L 162.836576 138.841257 
L 167.550877 99.550382 
L 165.621013 99.550382 
L 164.305197 111.317961 
L 159.166438 111.317961 
L 157.760071 99.550382 
L 155.957544 99.550382 
L 160.847288 138.841257 
z
M 161.758455 138.841257 
L 161.758455 138.841257 
z
" style="fill:none;opacity:0;"/>
   </g>
   <g id="patch_52">
    <path clip-path="url(#pf73f7d8d93)" d="M 167.550877 99.550382 
L 167.550877 97.132275 
L 162.736143 97.132275 
L 162.736143 79.255076 
L 160.772279 79.255076 
L 160.772279 97.132275 
L 155.957544 97.132275 
L 155.957544 99.550382 
L 167.550877 99.550382 
z
" style="fill:none;opacity:0;"/>
   </g>
   <g id="patch_53">
    <path clip-path="url(#pf73f7d8d93)" d="M 175.942763 98.460889 
L 173.970453 110.524837 
L 171.873636 98.460889 
L 175.942763 98.460889 
z
M 173.050796 114.581846 
L 175.040084 114.581846 
L 179.754386 87.271398 
L 177.824522 87.271398 
L 176.508705 95.45085 
L 171.369947 95.45085 
L 169.96358 87.271398 
L 168.161053 87.271398 
L 173.050796 114.581846 
z
M 173.961964 114.581846 
L 173.961964 114.581846 
z
" style="fill:none;opacity:0;"/>
   </g>
   <g id="patch_54">
    <path clip-path="url(#pf73f7d8d93)" d="M 179.754386 87.271398 
L 179.754386 86.316284 
L 174.939651 86.316284 
L 174.939651 79.255076 
L 172.975787 79.255076 
L 172.975787 86.316284 
L 168.161053 86.316284 
L 168.161053 87.271398 
L 179.754386 87.271398 
z
" style="fill:none;opacity:0;"/>
   </g>
   <g id="patch_55">
    <path clip-path="url(#pf73f7d8d93)" d="M 188.146272 115.711094 
L 186.173962 129.444155 
L 184.077145 115.711094 
L 188.146272 115.711094 
z
M 185.254305 134.062472 
L 187.243593 134.062472 
L 191.957895 102.973477 
L 190.028031 102.973477 
L 188.712214 112.2846 
L 183.573456 112.2846 
L 182.167088 102.973477 
L 180.364561 102.973477 
L 185.254305 134.062472 
z
M 186.165473 134.062472 
L 186.165473 134.062472 
z
" style="fill:none;opacity:0;"/>
   </g>
   <g id="patch_56">
    <path clip-path="url(#pf73f7d8d93)" d="M 186.460172 102.973477 
Q 188.942831 102.973477 190.312279 100.716917 
Q 191.681727 98.465264 191.832623 95.600414 
L 190.107289 95.600414 
Q 189.814039 97.773579 188.937137 99.04412 
Q 188.060234 100.319567 186.477255 100.319567 
Q 184.54693 100.319567 183.359696 97.979613 
Q 182.172461 95.644564 182.172461 90.81749 
Q 182.172461 86.8587 183.242965 84.396107 
Q 184.316316 81.938419 186.44309 81.938419 
Q 188.399038 81.938419 189.423988 84.528557 
Q 189.964935 85.892304 190.232561 88.11943 
L 191.957895 88.11943 
Q 191.727281 84.562896 190.42901 82.154264 
Q 188.871654 79.255076 186.229558 79.255076 
Q 183.951889 79.255076 182.403075 81.634274 
Q 180.364561 84.773835 180.364561 91.337479 
Q 180.364561 96.316627 181.896294 99.505243 
Q 183.55045 102.973477 186.460172 102.973477 
z
M 186.104286 102.973477 
L 186.104286 102.973477 
z
" style="fill:none;opacity:0;"/>
   </g>
   <g id="patch_57">
    <path clip-path="url(#pf73f7d8d93)" d="M 200.34978 94.617286 
L 198.377471 99.431032 
L 196.280653 94.617286 
L 200.34978 94.617286 
z
M 197.457814 101.049856 
L 199.447102 101.049856 
L 204.161404 90.152466 
L 202.231539 90.152466 
L 200.915723 93.416224 
L 195.776964 93.416224 
L 194.370597 90.152466 
L 192.56807 90.152466 
L 197.457814 101.049856 
z
M 198.368981 101.049856 
L 198.368981 101.049856 
z
" style="fill:none;opacity:0;"/>
   </g>
   <g id="patch_58">
    <path clip-path="url(#pf73f7d8d93)" d="M 204.161404 90.152466 
L 204.161404 88.854084 
L 199.346669 88.854084 
L 199.346669 79.255076 
L 197.382805 79.255076 
L 197.382805 88.854084 
L 192.56807 88.854084 
L 192.56807 90.152466 
L 204.161404 90.152466 
z
" style="fill:none;opacity:0;"/>
   </g>
   <g id="patch_59">
    <path clip-path="url(#pf73f7d8d93)" d="M 212.553289 105.8899 
L 210.580979 119.622961 
L 208.484162 105.8899 
L 212.553289 105.8899 
z
M 209.661323 124.241278 
L 211.650611 124.241278 
L 216.364912 93.152283 
L 214.435048 93.152283 
L 213.119232 102.463406 
L 207.980473 102.463406 
L 206.574106 93.152283 
L 204.771579 93.152283 
L 209.661323 124.241278 
z
M 210.57249 124.241278 
L 210.57249 124.241278 
z
" style="fill:none;opacity:0;"/>
   </g>
   <g id="patch_60">
    <path clip-path="url(#pf73f7d8d93)" d="M 216.364912 93.152283 
L 216.364912 91.496484 
L 211.550178 91.496484 
L 211.550178 79.255076 
L 209.586314 79.255076 
L 209.586314 91.496484 
L 204.771579 91.496484 
L 204.771579 93.152283 
L 216.364912 93.152283 
z
" style="fill:none;opacity:0;"/>
   </g>
   <g id="patch_61">
    <path clip-path="url(#pf73f7d8d93)" d="M 224.756798 107.865667 
L 222.784488 116.83079 
L 220.687671 107.865667 
L 224.756798 107.865667 
z
M 221.864831 119.845689 
L 223.85412 119.845689 
L 228.568421 99.550382 
L 226.638557 99.550382 
L 225.32274 105.628807 
L 220.183982 105.628807 
L 218.777615 99.550382 
L 216.975088 99.550382 
L 221.864831 119.845689 
z
M 222.775999 119.845689 
L 222.775999 119.845689 
z
" style="fill:none;opacity:0;"/>
   </g>
   <g id="patch_62">
    <path clip-path="url(#pf73f7d8d93)" d="M 228.568421 99.550382 
L 228.568421 97.132275 
L 223.753686 97.132275 
L 223.753686 79.255076 
L 221.789822 79.255076 
L 221.789822 97.132275 
L 216.975088 97.132275 
L 216.975088 99.550382 
L 228.568421 99.550382 
z
" style="fill:none;opacity:0;"/>
   </g>
   <g id="patch_63">
    <path clip-path="url(#pf73f7d8d93)" d="M 236.960307 92.815318 
L 234.987997 101.780442 
L 232.89118 92.815318 
L 236.960307 92.815318 
z
M 234.06834 104.79534 
L 236.057628 104.79534 
L 240.77193 84.500034 
L 238.842066 84.500034 
L 237.526249 90.578458 
L 232.387491 90.578458 
L 230.981124 84.500034 
L 229.178596 84.500034 
L 234.06834 104.79534 
z
M 234.979508 104.79534 
L 234.979508 104.79534 
z
" style="fill:none;opacity:0;"/>
   </g>
   <g id="patch_64">
    <path clip-path="url(#pf73f7d8d93)" d="M 235.274207 84.500034 
Q 237.756866 84.500034 239.126314 84.001031 
Q 240.495763 83.503112 240.646658 82.869595 
L 238.921324 82.869595 
Q 238.628074 83.350157 237.751172 83.631117 
Q 236.874269 83.913163 235.29129 83.913163 
Q 233.360966 83.913163 232.173731 83.395718 
Q 230.986496 82.879358 230.986496 81.811925 
Q 230.986496 80.9365 232.057 80.391936 
Q 233.130352 79.848456 235.257125 79.848456 
Q 237.213073 79.848456 238.238023 80.421225 
Q 238.77897 80.722796 239.046596 81.215291 
L 240.77193 81.215291 
Q 240.541316 80.428818 239.243045 79.896187 
Q 237.685689 79.255076 235.043593 79.255076 
Q 232.765925 79.255076 231.21711 79.781199 
Q 229.178596 80.475464 229.178596 81.926913 
Q 229.178596 83.027974 230.710329 83.733088 
Q 232.364485 84.500034 235.274207 84.500034 
z
M 234.918321 84.500034 
L 234.918321 84.500034 
z
" style="fill:none;opacity:0;"/>
   </g>
   <g id="patch_65">
    <path clip-path="url(#pf73f7d8d93)" d="M 249.163815 93.019815 
L 247.191506 105.083764 
L 245.094688 93.019815 
L 249.163815 93.019815 
z
M 246.271849 109.140772 
L 248.261137 109.140772 
L 252.975439 81.830325 
L 251.045574 81.830325 
L 249.729758 90.009777 
L 244.591 90.009777 
L 243.184632 81.830325 
L 241.382105 81.830325 
L 246.271849 109.140772 
z
M 247.183016 109.140772 
L 247.183016 109.140772 
z
" style="fill:none;opacity:0;"/>
   </g>
   <g id="patch_66">
    <path clip-path="url(#pf73f7d8d93)" d="M 252.975439 81.830325 
L 252.975439 81.523494 
L 248.160704 81.523494 
L 248.160704 79.255076 
L 246.19684 79.255076 
L 246.19684 81.523494 
L 241.382105 81.523494 
L 241.382105 81.830325 
L 252.975439 81.830325 
z
" style="fill:none;opacity:0;"/>
   </g>
   <g id="patch_67">
    <path clip-path="url(#pf73f7d8d93)" d="M 261.367324 109.018676 
L 259.395014 122.751737 
L 257.298197 109.018676 
L 261.367324 109.018676 
z
M 258.475358 127.370054 
L 260.464646 127.370054 
L 265.178947 96.281059 
L 263.249083 96.281059 
L 261.933267 105.592182 
L 256.794508 105.592182 
L 255.388141 96.281059 
L 253.585614 96.281059 
L 258.475358 127.370054 
z
M 259.386525 127.370054 
L 259.386525 127.370054 
z
" style="fill:none;opacity:0;"/>
   </g>
   <g id="patch_68">
    <path clip-path="url(#pf73f7d8d93)" d="M 265.178947 96.281059 
L 265.178947 94.252478 
L 260.364213 94.252478 
L 260.364213 79.255076 
L 258.400349 79.255076 
L 258.400349 94.252478 
L 253.585614 94.252478 
L 253.585614 96.281059 
L 265.178947 96.281059 
z
" style="fill:none;opacity:0;"/>
   </g>
   <g id="patch_69">
    <path clip-path="url(#pf73f7d8d93)" d="M 273.570833 105.8899 
L 271.598523 119.622961 
L 269.501706 105.8899 
L 273.570833 105.8899 
z
M 270.678867 124.241278 
L 272.668155 124.241278 
L 277.382456 93.152283 
L 275.452592 93.152283 
L 274.136776 102.463406 
L 268.998017 102.463406 
L 267.59165 93.152283 
L 265.789123 93.152283 
L 270.678867 124.241278 
z
M 271.590034 124.241278 
L 271.590034 124.241278 
z
" style="fill:none;opacity:0;"/>
   </g>
   <g id="patch_70">
    <path clip-path="url(#pf73f7d8d93)" d="M 277.382456 93.152283 
L 277.382456 91.496484 
L 272.567721 91.496484 
L 272.567721 79.255076 
L 270.603857 79.255076 
L 270.603857 91.496484 
L 265.789123 91.496484 
L 265.789123 93.152283 
L 277.382456 93.152283 
z
" style="fill:none;opacity:0;"/>
   </g>
   <g id="patch_71">
    <path clip-path="url(#pf73f7d8d93)" d="M 285.774342 101.7161 
L 283.802032 123.155946 
L 281.705215 101.7161 
L 285.774342 101.7161 
z
M 282.882375 130.365993 
L 284.871663 130.365993 
L 289.585965 81.830325 
L 287.656101 81.830325 
L 286.340284 96.36671 
L 281.201526 96.36671 
L 279.795159 81.830325 
L 277.992632 81.830325 
L 282.882375 130.365993 
z
M 283.793543 130.365993 
L 283.793543 130.365993 
z
" style="fill:none;opacity:0;"/>
   </g>
   <g id="patch_72">
    <path clip-path="url(#pf73f7d8d93)" d="M 289.585965 81.830325 
L 289.585965 81.523494 
L 284.77123 81.523494 
L 284.77123 79.255076 
L 282.807366 79.255076 
L 282.807366 81.523494 
L 277.992632 81.523494 
L 277.992632 81.830325 
L 289.585965 81.830325 
z
" style="fill:none;opacity:0;"/>
   </g>
   <g id="patch_73">
    <path clip-path="url(#pf73f7d8d93)" d="M 297.977851 101.341957 
L 296.005541 113.405905 
L 293.908724 101.341957 
L 297.977851 101.341957 
z
M 295.085884 117.462914 
L 297.075172 117.462914 
L 301.789474 90.152466 
L 299.85961 90.152466 
L 298.543793 98.331918 
L 293.405035 98.331918 
L 291.998667 90.152466 
L 290.19614 90.152466 
L 295.085884 117.462914 
z
M 295.997052 117.462914 
L 295.997052 117.462914 
z
" style="fill:none;opacity:0;"/>
   </g>
   <g id="patch_74">
    <path clip-path="url(#pf73f7d8d93)" d="M 301.789474 90.152466 
L 301.789474 88.854084 
L 296.974739 88.854084 
L 296.974739 79.255076 
L 295.010875 79.255076 
L 295.010875 88.854084 
L 290.19614 88.854084 
L 290.19614 90.152466 
L 301.789474 90.152466 
z
" style="fill:none;opacity:0;"/>
   </g>
   <g id="patch_75">
    <path clip-path="url(#pf73f7d8d93)" d="M 310.181359 105.203217 
L 308.209049 124.536407 
L 306.112232 105.203217 
L 310.181359 105.203217 
z
M 307.289393 131.038002 
L 309.278681 131.038002 
L 313.992982 87.271398 
L 312.063118 87.271398 
L 310.747302 100.379453 
L 305.608543 100.379453 
L 304.202176 87.271398 
L 302.399649 87.271398 
L 307.289393 131.038002 
z
M 308.20056 131.038002 
L 308.20056 131.038002 
z
" style="fill:none;opacity:0;"/>
   </g>
   <g id="patch_76">
    <path clip-path="url(#pf73f7d8d93)" d="M 313.992982 87.271398 
L 313.992982 86.316284 
L 309.178248 86.316284 
L 309.178248 79.255076 
L 307.214384 79.255076 
L 307.214384 86.316284 
L 302.399649 86.316284 
L 302.399649 87.271398 
L 313.992982 87.271398 
z
" style="fill:none;opacity:0;"/>
   </g>
   <g id="patch_77">
    <path clip-path="url(#pf73f7d8d93)" d="M 322.384868 104.522993 
L 320.412558 120.016576 
L 318.315741 104.522993 
L 322.384868 104.522993 
z
M 319.492902 125.226942 
L 321.48219 125.226942 
L 326.196491 90.152466 
L 324.266627 90.152466 
L 322.950811 100.657237 
L 317.812052 100.657237 
L 316.405685 90.152466 
L 314.603158 90.152466 
L 319.492902 125.226942 
z
M 320.404069 125.226942 
L 320.404069 125.226942 
z
" style="fill:none;opacity:0;"/>
   </g>
   <g id="patch_78">
    <path clip-path="url(#pf73f7d8d93)" d="M 326.196491 90.152466 
L 326.196491 88.854084 
L 321.381757 88.854084 
L 321.381757 79.255076 
L 319.417893 79.255076 
L 319.417893 88.854084 
L 314.603158 88.854084 
L 314.603158 90.152466 
L 326.196491 90.152466 
z
" style="fill:none;opacity:0;"/>
   </g>
   <g id="patch_79">
    <path clip-path="url(#pf73f7d8d93)" d="M 334.588377 102.431853 
L 332.616067 121.765043 
L 330.51925 102.431853 
L 334.588377 102.431853 
z
M 331.69641 128.266638 
L 333.685698 128.266638 
L 338.4 84.500034 
L 336.470136 84.500034 
L 335.154319 97.608089 
L 330.015561 97.608089 
L 328.609194 84.500034 
L 326.806667 84.500034 
L 331.69641 128.266638 
z
M 332.607578 128.266638 
L 332.607578 128.266638 
z
" style="fill:none;opacity:0;"/>
   </g>
   <g id="patch_80">
    <path clip-path="url(#pf73f7d8d93)" d="M 338.4 84.500034 
L 338.4 83.875117 
L 333.585265 83.875117 
L 333.585265 79.255076 
L 331.621401 79.255076 
L 331.621401 83.875117 
L 326.806667 83.875117 
L 326.806667 84.500034 
L 338.4 84.500034 
z
" style="fill:none;opacity:0;"/>
   </g>
   <g id="matplotlib.axis_1">
    <g id="xtick_1">
     <g id="line2d_2">
      <path clip-path="url(#pf73f7d8d93)" d="M 100.736667 141.64 
L 100.736667 28.8 
" style="fill:none;stroke:#cccccc;stroke-linecap:round;stroke-width:0.8;"/>
     </g>
     <g id="text_1">
      <!-- 0 -->
      <g style="fill:#262626;" transform="translate(95.175729 162.986875)scale(0.2 -0.2)">
       <defs>
        <path d="M 1731 4475 
Q 2600 4475 2988 3759 
Q 3288 3206 3288 2244 
Q 3288 1331 3016 734 
Q 2622 -122 1728 -122 
Q 922 -122 528 578 
Q 200 1163 200 2147 
Q 200 2909 397 3456 
Q 766 4475 1731 4475 
z
M 1725 391 
Q 2163 391 2422 778 
Q 2681 1166 2681 2222 
Q 2681 2984 2493 3476 
Q 2306 3969 1766 3969 
Q 1269 3969 1039 3501 
Q 809 3034 809 2125 
Q 809 1441 956 1025 
Q 1181 391 1725 391 
z
" id="Helvetica-30" transform="scale(0.015625)"/>
       </defs>
       <use xlink:href="#Helvetica-30"/>
      </g>
     </g>
    </g>
    <g id="xtick_2">
     <g id="line2d_3">
      <path clip-path="url(#pf73f7d8d93)" d="M 222.771754 141.64 
L 222.771754 28.8 
" style="fill:none;stroke:#cccccc;stroke-linecap:round;stroke-width:0.8;"/>
     </g>
     <g id="text_2">
      <!-- 10 -->
      <g style="fill:#262626;" transform="translate(211.649879 162.986875)scale(0.2 -0.2)">
       <defs>
        <path d="M 613 3169 
L 613 3600 
Q 1222 3659 1462 3798 
Q 1703 3938 1822 4456 
L 2266 4456 
L 2266 0 
L 1666 0 
L 1666 3169 
L 613 3169 
z
" id="Helvetica-31" transform="scale(0.015625)"/>
       </defs>
       <use xlink:href="#Helvetica-31"/>
       <use x="55.615234" xlink:href="#Helvetica-30"/>
      </g>
     </g>
    </g>
    <g id="text_3">
     <!-- Position -->
     <g style="fill:#262626;" transform="translate(172.20125 189.089219)scale(0.25 -0.25)">
      <defs>
       <path d="M 547 4591 
L 2613 4591 
Q 3225 4591 3600 4245 
Q 3975 3900 3975 3275 
Q 3975 2738 3640 2339 
Q 3306 1941 2613 1941 
L 1169 1941 
L 1169 0 
L 547 0 
L 547 4591 
z
M 3347 3272 
Q 3347 3778 2972 3959 
Q 2766 4056 2406 4056 
L 1169 4056 
L 1169 2466 
L 2406 2466 
Q 2825 2466 3086 2644 
Q 3347 2822 3347 3272 
z
" id="Helvetica-50" transform="scale(0.015625)"/>
       <path d="M 1741 363 
Q 2300 363 2508 786 
Q 2716 1209 2716 1728 
Q 2716 2197 2566 2491 
Q 2328 2953 1747 2953 
Q 1231 2953 997 2559 
Q 763 2166 763 1609 
Q 763 1075 997 719 
Q 1231 363 1741 363 
z
M 1763 3444 
Q 2409 3444 2856 3012 
Q 3303 2581 3303 1744 
Q 3303 934 2909 406 
Q 2516 -122 1688 -122 
Q 997 -122 590 345 
Q 184 813 184 1600 
Q 184 2444 612 2944 
Q 1041 3444 1763 3444 
z
M 1744 3428 
L 1744 3428 
z
" id="Helvetica-6f" transform="scale(0.015625)"/>
       <path d="M 747 1050 
Q 772 769 888 619 
Q 1100 347 1625 347 
Q 1938 347 2175 483 
Q 2413 619 2413 903 
Q 2413 1119 2222 1231 
Q 2100 1300 1741 1391 
L 1294 1503 
Q 866 1609 663 1741 
Q 300 1969 300 2372 
Q 300 2847 642 3140 
Q 984 3434 1563 3434 
Q 2319 3434 2653 2991 
Q 2863 2709 2856 2384 
L 2325 2384 
Q 2309 2575 2191 2731 
Q 1997 2953 1519 2953 
Q 1200 2953 1036 2831 
Q 872 2709 872 2509 
Q 872 2291 1088 2159 
Q 1213 2081 1456 2022 
L 1828 1931 
Q 2434 1784 2641 1647 
Q 2969 1431 2969 969 
Q 2969 522 2630 197 
Q 2291 -128 1597 -128 
Q 850 -128 539 211 
Q 228 550 206 1050 
L 747 1050 
z
M 1578 3428 
L 1578 3428 
z
" id="Helvetica-73" transform="scale(0.015625)"/>
       <path d="M 413 3331 
L 984 3331 
L 984 0 
L 413 0 
L 413 3331 
z
M 413 4591 
L 984 4591 
L 984 3953 
L 413 3953 
L 413 4591 
z
" id="Helvetica-69" transform="scale(0.015625)"/>
       <path d="M 525 4281 
L 1094 4281 
L 1094 3347 
L 1628 3347 
L 1628 2888 
L 1094 2888 
L 1094 703 
Q 1094 528 1213 469 
Q 1278 434 1431 434 
Q 1472 434 1519 436 
Q 1566 438 1628 444 
L 1628 0 
Q 1531 -28 1426 -40 
Q 1322 -53 1200 -53 
Q 806 -53 665 148 
Q 525 350 525 672 
L 525 2888 
L 72 2888 
L 72 3347 
L 525 3347 
L 525 4281 
z
" id="Helvetica-74" transform="scale(0.015625)"/>
       <path d="M 413 3347 
L 947 3347 
L 947 2872 
Q 1184 3166 1450 3294 
Q 1716 3422 2041 3422 
Q 2753 3422 3003 2925 
Q 3141 2653 3141 2147 
L 3141 0 
L 2569 0 
L 2569 2109 
Q 2569 2416 2478 2603 
Q 2328 2916 1934 2916 
Q 1734 2916 1606 2875 
Q 1375 2806 1200 2600 
Q 1059 2434 1017 2257 
Q 975 2081 975 1753 
L 975 0 
L 413 0 
L 413 3347 
z
M 1734 3428 
L 1734 3428 
z
" id="Helvetica-6e" transform="scale(0.015625)"/>
      </defs>
      <use xlink:href="#Helvetica-50"/>
      <use x="66.699219" xlink:href="#Helvetica-6f"/>
      <use x="122.314453" xlink:href="#Helvetica-73"/>
      <use x="172.314453" xlink:href="#Helvetica-69"/>
      <use x="194.53125" xlink:href="#Helvetica-74"/>
      <use x="222.314453" xlink:href="#Helvetica-69"/>
      <use x="244.53125" xlink:href="#Helvetica-6f"/>
      <use x="300.146484" xlink:href="#Helvetica-6e"/>
     </g>
    </g>
   </g>
   <g id="matplotlib.axis_2">
    <g id="ytick_1">
     <g id="line2d_4">
      <path clip-path="url(#pf73f7d8d93)" d="M 94.94 79.255076 
L 338.4 79.255076 
" style="fill:none;stroke:#cccccc;stroke-linecap:round;stroke-width:0.8;"/>
     </g>
     <g id="text_4">
      <!-- 0 -->
      <g style="fill:#262626;" transform="translate(76.818125 86.428514)scale(0.2 -0.2)">
       <use xlink:href="#Helvetica-30"/>
      </g>
     </g>
    </g>
    <g id="ytick_2">
     <g id="line2d_5">
      <path clip-path="url(#pf73f7d8d93)" d="M 94.94 66.641307 
L 338.4 66.641307 
" style="fill:none;stroke:#cccccc;stroke-linecap:round;stroke-width:0.8;"/>
     </g>
     <g id="text_5">
      <!-- 0.25 -->
      <g style="fill:#262626;" transform="translate(49.018125 73.814745)scale(0.2 -0.2)">
       <defs>
        <path d="M 547 681 
L 1200 681 
L 1200 0 
L 547 0 
L 547 681 
z
" id="Helvetica-2e" transform="scale(0.015625)"/>
        <path d="M 200 0 
Q 231 578 439 1006 
Q 647 1434 1250 1784 
L 1850 2131 
Q 2253 2366 2416 2531 
Q 2672 2791 2672 3125 
Q 2672 3516 2437 3745 
Q 2203 3975 1813 3975 
Q 1234 3975 1013 3538 
Q 894 3303 881 2888 
L 309 2888 
Q 319 3472 525 3841 
Q 891 4491 1816 4491 
Q 2584 4491 2939 4075 
Q 3294 3659 3294 3150 
Q 3294 2613 2916 2231 
Q 2697 2009 2131 1694 
L 1703 1456 
Q 1397 1288 1222 1134 
Q 909 863 828 531 
L 3272 531 
L 3272 0 
L 200 0 
z
" id="Helvetica-32" transform="scale(0.015625)"/>
        <path d="M 791 1141 
Q 847 659 1238 475 
Q 1438 381 1700 381 
Q 2200 381 2440 700 
Q 2681 1019 2681 1406 
Q 2681 1875 2395 2131 
Q 2109 2388 1709 2388 
Q 1419 2388 1211 2275 
Q 1003 2163 856 1963 
L 369 1991 
L 709 4400 
L 3034 4400 
L 3034 3856 
L 1131 3856 
L 941 2613 
Q 1097 2731 1238 2791 
Q 1488 2894 1816 2894 
Q 2431 2894 2859 2497 
Q 3288 2100 3288 1491 
Q 3288 856 2895 371 
Q 2503 -113 1644 -113 
Q 1097 -113 676 195 
Q 256 503 206 1141 
L 791 1141 
z
" id="Helvetica-35" transform="scale(0.015625)"/>
       </defs>
       <use xlink:href="#Helvetica-30"/>
       <use x="55.615234" xlink:href="#Helvetica-2e"/>
       <use x="83.398438" xlink:href="#Helvetica-32"/>
       <use x="139.013672" xlink:href="#Helvetica-35"/>
      </g>
     </g>
    </g>
    <g id="ytick_3">
     <g id="line2d_6">
      <path clip-path="url(#pf73f7d8d93)" d="M 94.94 54.027538 
L 338.4 54.027538 
" style="fill:none;stroke:#cccccc;stroke-linecap:round;stroke-width:0.8;"/>
     </g>
     <g id="text_6">
      <!-- 0.50 -->
      <g style="fill:#262626;" transform="translate(49.018125 61.200976)scale(0.2 -0.2)">
       <use xlink:href="#Helvetica-30"/>
       <use x="55.615234" xlink:href="#Helvetica-2e"/>
       <use x="83.398438" xlink:href="#Helvetica-35"/>
       <use x="139.013672" xlink:href="#Helvetica-30"/>
      </g>
     </g>
    </g>
    <g id="ytick_4">
     <g id="line2d_7">
      <path clip-path="url(#pf73f7d8d93)" d="M 94.94 41.413769 
L 338.4 41.413769 
" style="fill:none;stroke:#cccccc;stroke-linecap:round;stroke-width:0.8;"/>
     </g>
     <g id="text_7">
      <!-- 0.75 -->
      <g style="fill:#262626;" transform="translate(49.018125 48.587207)scale(0.2 -0.2)">
       <defs>
        <path d="M 3347 4400 
L 3347 3909 
Q 3131 3700 2773 3181 
Q 2416 2663 2141 2063 
Q 1869 1478 1728 997 
Q 1638 688 1494 0 
L 872 0 
Q 1084 1281 1809 2550 
Q 2238 3294 2709 3834 
L 234 3834 
L 234 4400 
L 3347 4400 
z
" id="Helvetica-37" transform="scale(0.015625)"/>
       </defs>
       <use xlink:href="#Helvetica-30"/>
       <use x="55.615234" xlink:href="#Helvetica-2e"/>
       <use x="83.398438" xlink:href="#Helvetica-37"/>
       <use x="139.013672" xlink:href="#Helvetica-35"/>
      </g>
     </g>
    </g>
    <g id="ytick_5">
     <g id="line2d_8">
      <path clip-path="url(#pf73f7d8d93)" d="M 94.94 28.8 
L 338.4 28.8 
" style="fill:none;stroke:#cccccc;stroke-linecap:round;stroke-width:0.8;"/>
     </g>
     <g id="text_8">
      <!-- 1.0 -->
      <g style="fill:#262626;" transform="translate(60.14 35.973437)scale(0.2 -0.2)">
       <use xlink:href="#Helvetica-31"/>
       <use x="55.615234" xlink:href="#Helvetica-2e"/>
       <use x="83.398438" xlink:href="#Helvetica-30"/>
      </g>
     </g>
    </g>
    <g id="text_9">
     <!-- Probability -->
     <g style="fill:#262626;" transform="translate(39.65875 143.579375)rotate(-90)scale(0.25 -0.25)">
      <defs>
       <path d="M 428 3347 
L 963 3347 
L 963 2769 
Q 1028 2938 1284 3180 
Q 1541 3422 1875 3422 
Q 1891 3422 1928 3419 
Q 1966 3416 2056 3406 
L 2056 2813 
Q 2006 2822 1964 2825 
Q 1922 2828 1872 2828 
Q 1447 2828 1219 2554 
Q 991 2281 991 1925 
L 991 0 
L 428 0 
L 428 3347 
z
" id="Helvetica-72" transform="scale(0.015625)"/>
       <path d="M 369 4606 
L 916 4606 
L 916 2941 
Q 1100 3181 1356 3307 
Q 1613 3434 1913 3434 
Q 2538 3434 2927 3004 
Q 3316 2575 3316 1738 
Q 3316 944 2931 419 
Q 2547 -106 1866 -106 
Q 1484 -106 1222 78 
Q 1066 188 888 428 
L 888 0 
L 369 0 
L 369 4606 
z
M 1831 391 
Q 2288 391 2514 753 
Q 2741 1116 2741 1709 
Q 2741 2238 2514 2584 
Q 2288 2931 1847 2931 
Q 1463 2931 1173 2647 
Q 884 2363 884 1709 
Q 884 1238 1003 944 
Q 1225 391 1831 391 
z
" id="Helvetica-62" transform="scale(0.015625)"/>
       <path d="M 844 891 
Q 844 647 1022 506 
Q 1200 366 1444 366 
Q 1741 366 2019 503 
Q 2488 731 2488 1250 
L 2488 1703 
Q 2384 1638 2221 1594 
Q 2059 1550 1903 1531 
L 1563 1488 
Q 1256 1447 1103 1359 
Q 844 1213 844 891 
z
M 2206 2028 
Q 2400 2053 2466 2191 
Q 2503 2266 2503 2406 
Q 2503 2694 2298 2823 
Q 2094 2953 1713 2953 
Q 1272 2953 1088 2716 
Q 984 2584 953 2325 
L 428 2325 
Q 444 2944 830 3186 
Q 1216 3428 1725 3428 
Q 2316 3428 2684 3203 
Q 3050 2978 3050 2503 
L 3050 575 
Q 3050 488 3086 434 
Q 3122 381 3238 381 
Q 3275 381 3322 386 
Q 3369 391 3422 400 
L 3422 -16 
Q 3291 -53 3222 -62 
Q 3153 -72 3034 -72 
Q 2744 -72 2613 134 
Q 2544 244 2516 444 
Q 2344 219 2022 53 
Q 1700 -113 1313 -113 
Q 847 -113 551 170 
Q 256 453 256 878 
Q 256 1344 547 1600 
Q 838 1856 1309 1916 
L 2206 2028 
z
M 1741 3428 
L 1741 3428 
z
" id="Helvetica-61" transform="scale(0.015625)"/>
       <path d="M 428 4591 
L 991 4591 
L 991 0 
L 428 0 
L 428 4591 
z
" id="Helvetica-6c" transform="scale(0.015625)"/>
       <path d="M 2503 3347 
L 3125 3347 
Q 3006 3025 2597 1878 
Q 2291 1016 2084 472 
Q 1597 -809 1397 -1090 
Q 1197 -1372 709 -1372 
Q 591 -1372 527 -1362 
Q 463 -1353 369 -1328 
L 369 -816 
Q 516 -856 581 -865 
Q 647 -875 697 -875 
Q 853 -875 926 -823 
Q 1000 -772 1050 -697 
Q 1066 -672 1162 -440 
Q 1259 -209 1303 -97 
L 66 3347 
L 703 3347 
L 1600 622 
L 2503 3347 
z
M 1597 3428 
L 1597 3428 
z
" id="Helvetica-79" transform="scale(0.015625)"/>
      </defs>
      <use xlink:href="#Helvetica-50"/>
      <use x="66.699219" xlink:href="#Helvetica-72"/>
      <use x="100" xlink:href="#Helvetica-6f"/>
      <use x="155.615234" xlink:href="#Helvetica-62"/>
      <use x="211.230469" xlink:href="#Helvetica-61"/>
      <use x="266.845703" xlink:href="#Helvetica-62"/>
      <use x="322.460938" xlink:href="#Helvetica-69"/>
      <use x="344.677734" xlink:href="#Helvetica-6c"/>
      <use x="366.894531" xlink:href="#Helvetica-69"/>
      <use x="389.111328" xlink:href="#Helvetica-74"/>
      <use x="416.894531" xlink:href="#Helvetica-79"/>
     </g>
    </g>
   </g>
   <g id="patch_81">
    <path d="M 94.94 141.64 
L 94.94 28.8 
" style="fill:none;stroke:#000000;stroke-linecap:square;stroke-linejoin:miter;"/>
   </g>
  </g>
 </g>
 <defs>
  <clipPath id="pf73f7d8d93">
   <rect height="112.84" width="243.46" x="94.94" y="28.8"/>
  </clipPath>
 </defs>
</svg>
