<?xml version="1.0" encoding="utf-8" standalone="no"?>
<!DOCTYPE svg PUBLIC "-//W3C//DTD SVG 1.1//EN"
  "http://www.w3.org/Graphics/SVG/1.1/DTD/svg11.dtd">
<svg height="216pt" version="1.1" viewBox="0 0 360 216" width="360pt" xmlns="http://www.w3.org/2000/svg" xmlns:xlink="http://www.w3.org/1999/xlink">
 <metadata>
  <rdf:RDF xmlns:cc="http://creativecommons.org/ns#" xmlns:dc="http://purl.org/dc/elements/1.1/" xmlns:rdf="http://www.w3.org/1999/02/22-rdf-syntax-ns#">
   <cc:Work>
    <dc:type rdf:resource="http://purl.org/dc/dcmitype/StillImage"/>
    <dc:date>2022-12-20T02:58:34.525946</dc:date>
    <dc:format>image/svg+xml</dc:format>
    <dc:creator>
     <cc:Agent>
      <dc:title>Matplotlib v3.4.2, https://matplotlib.org/</dc:title>
     </cc:Agent>
    </dc:creator>
   </cc:Work>
  </rdf:RDF>
 </metadata>
 <defs>
  <style type="text/css">*{stroke-linecap:butt;stroke-linejoin:round;}</style>
 </defs>
 <g id="figure_1">
  <g id="patch_1">
   <path d="M 0 216 
L 360 216 
L 360 0 
L 0 0 
z
" style="fill:#ffffff;"/>
  </g>
  <g id="axes_1">
   <g id="patch_2">
    <path d="M 94.94 141.64 
L 338.4 141.64 
L 338.4 28.8 
L 94.94 28.8 
z
" style="fill:#ffffff;"/>
   </g>
   <g id="line2d_1">
    <path clip-path="url(#p92a4cddc89)" d="M 94.94 141.64 
L 338.4 141.64 
" style="fill:none;stroke:#000000;stroke-linecap:round;stroke-width:0.5;"/>
   </g>
   <g id="patch_3">
    <path clip-path="url(#p92a4cddc89)" d="M 100.919108 122.74783 
Q 102.707589 122.74783 104.012322 123.725483 
Q 105.903081 125.129393 106.326013 128.648944 
L 104.62599 128.648944 
Q 104.313627 126.681906 103.337841 125.782465 
Q 102.362055 124.883024 100.87488 124.883024 
Q 99.114042 124.883024 97.908822 126.756208 
Q 96.703602 128.625481 96.703602 132.328831 
Q 96.703602 135.527712 97.695974 137.537767 
Q 98.69111 139.547822 100.935694 139.547822 
Q 102.655068 139.547822 103.782888 138.140002 
Q 104.910709 136.72827 104.935587 133.572406 
L 100.963337 133.572406 
L 100.963337 131.55844 
L 106.533333 131.55844 
L 106.533333 141.162905 
L 105.427627 141.162905 
L 105.012987 138.851733 
Q 104.142243 140.208716 103.467762 140.736648 
Q 102.334413 141.64 100.590161 141.64 
Q 98.337283 141.64 96.711895 139.575196 
Q 94.94 136.98246 94.94 132.461792 
Q 94.94 127.952855 96.667667 125.289728 
Q 98.309641 122.74783 100.919108 122.74783 
z
M 100.634389 122.720456 
L 100.634389 122.720456 
z
" style="fill:#ffa600;"/>
   </g>
   <g id="patch_4">
    <path clip-path="url(#p92a4cddc89)" d="M 101.035611 97.903197 
Q 103.518269 97.903197 104.887718 100.264301 
Q 106.257166 102.620273 106.408062 105.617848 
L 104.682728 105.617848 
Q 104.389478 103.344002 103.512575 102.014598 
Q 102.635673 100.680061 101.052693 100.680061 
Q 99.122369 100.680061 97.935134 103.128423 
Q 96.747899 105.571653 96.747899 110.622363 
Q 96.747899 114.764561 97.818404 117.341244 
Q 98.891755 119.912795 101.018528 119.912795 
Q 102.974476 119.912795 103.999427 117.202658 
Q 104.540373 115.775729 104.807999 113.445422 
L 106.533333 113.445422 
Q 106.302719 117.166728 105.004448 119.68695 
Q 103.447092 122.720456 100.804997 122.720456 
Q 98.527328 122.720456 96.978513 120.23103 
Q 94.94 116.946016 94.94 110.078282 
Q 94.94 104.868454 96.471732 101.532112 
Q 98.125889 97.903197 101.035611 97.903197 
z
M 100.679725 97.903197 
L 100.679725 97.903197 
z
" style="fill:#0000ff;"/>
   </g>
   <g id="patch_5">
    <path clip-path="url(#p92a4cddc89)" d="M 106.533333 67.12965 
L 106.533333 70.7962 
L 101.718599 70.7962 
L 101.718599 97.903197 
L 99.754735 97.903197 
L 99.754735 70.7962 
L 94.94 70.7962 
L 94.94 67.12965 
L 106.533333 67.12965 
z
" style="fill:#ff0000;"/>
   </g>
   <g id="patch_6">
    <path clip-path="url(#p92a4cddc89)" d="M 102.72171 51.42543 
L 100.7494 34.493928 
L 98.652583 51.42543 
L 102.72171 51.42543 
z
M 99.829744 28.8 
L 101.819032 28.8 
L 106.533333 67.12965 
L 104.603469 67.12965 
L 103.287653 55.649957 
L 98.148894 55.649957 
L 96.742527 67.12965 
L 94.94 67.12965 
L 99.829744 28.8 
z
M 100.740911 28.8 
L 100.740911 28.8 
z
" style="fill:#008000;"/>
   </g>
   <g id="patch_7">
    <path clip-path="url(#p92a4cddc89)" d="M 113.122617 122.56505 
Q 114.911097 122.56505 116.215831 123.552161 
Q 118.106589 124.969654 118.529522 128.523257 
L 116.829498 128.523257 
Q 116.517136 126.537188 115.54135 125.629045 
Q 114.565564 124.720902 113.078389 124.720902 
Q 111.317551 124.720902 110.112331 126.612208 
Q 108.907111 128.499566 108.907111 132.238746 
Q 108.907111 135.468576 109.899482 137.498078 
Q 110.894618 139.527581 113.139203 139.527581 
Q 114.858576 139.527581 115.986397 138.106139 
Q 117.114218 136.68075 117.139096 133.494353 
L 113.166845 133.494353 
L 113.166845 131.460902 
L 118.736842 131.460902 
L 118.736842 141.158289 
L 117.631136 141.158289 
L 117.216496 138.824757 
Q 116.345752 140.194868 115.671271 140.727909 
Q 114.537921 141.64 112.793669 141.64 
Q 110.540792 141.64 108.915404 139.55522 
Q 107.143509 136.937399 107.143509 132.372993 
Q 107.143509 127.820433 108.871175 125.13154 
Q 110.51315 122.56505 113.122617 122.56505 
z
M 112.837898 122.53741 
L 112.837898 122.53741 
z
" style="fill:#ffa600;"/>
   </g>
   <g id="patch_8">
    <path clip-path="url(#p92a4cddc89)" d="M 113.239119 97.877571 
Q 115.721778 97.877571 117.091227 100.223698 
Q 118.460675 102.564725 118.61157 105.543287 
L 116.886236 105.543287 
Q 116.592987 103.283864 115.716084 101.962893 
Q 114.839182 100.636821 113.256202 100.636821 
Q 111.325878 100.636821 110.138643 103.069653 
Q 108.951408 105.497385 108.951408 110.516057 
Q 108.951408 114.631981 110.021913 117.19232 
Q 111.095264 119.747559 113.222037 119.747559 
Q 115.177985 119.747559 116.202936 117.054613 
Q 116.743882 115.636735 117.011508 113.32121 
L 118.736842 113.32121 
Q 118.506228 117.018911 117.207957 119.523147 
Q 115.650601 122.53741 113.008505 122.53741 
Q 110.730837 122.53741 109.182022 120.063776 
Q 107.143509 116.799599 107.143509 109.975428 
Q 107.143509 104.798647 108.675241 101.483467 
Q 110.329398 97.877571 113.239119 97.877571 
z
M 112.883234 97.877571 
L 112.883234 97.877571 
z
" style="fill:#0000ff;"/>
   </g>
   <g id="patch_9">
    <path clip-path="url(#p92a4cddc89)" d="M 118.736842 66.855082 
L 118.736842 70.551292 
L 113.922107 70.551292 
L 113.922107 97.877571 
L 111.958243 97.877571 
L 111.958243 70.551292 
L 107.143509 70.551292 
L 107.143509 66.855082 
L 118.736842 66.855082 
z
" style="fill:#ff0000;"/>
   </g>
   <g id="patch_10">
    <path clip-path="url(#p92a4cddc89)" d="M 114.925219 51.263357 
L 112.952909 34.45314 
L 110.856092 51.263357 
L 114.925219 51.263357 
z
M 112.033252 28.8 
L 114.022541 28.8 
L 118.736842 66.855082 
L 116.806978 66.855082 
L 115.491162 55.457622 
L 110.352403 55.457622 
L 108.946036 66.855082 
L 107.143509 66.855082 
L 112.033252 28.8 
z
M 112.94442 28.8 
L 112.94442 28.8 
z
" style="fill:#008000;"/>
   </g>
   <g id="patch_11">
    <path clip-path="url(#p92a4cddc89)" d="M 125.326126 123.051245 
Q 127.114606 123.051245 128.41934 124.013197 
Q 130.310098 125.394559 130.733031 128.857586 
L 129.033007 128.857586 
Q 128.720645 126.922139 127.744859 126.037143 
Q 126.769073 125.152148 125.281898 125.152148 
Q 123.52106 125.152148 122.31584 126.995247 
Q 121.11062 128.834499 121.11062 132.478372 
Q 121.11062 135.625878 122.102991 137.603651 
Q 123.098127 139.581423 125.342711 139.581423 
Q 127.062085 139.581423 128.189906 138.196213 
Q 129.317726 136.807155 129.342605 133.701974 
L 125.370354 133.701974 
L 125.370354 131.720354 
L 130.940351 131.720354 
L 130.940351 141.170568 
L 129.834644 141.170568 
L 129.420004 138.896514 
Q 128.54926 140.231703 127.874779 140.751157 
Q 126.74143 141.64 124.997178 141.64 
Q 122.744301 141.64 121.118912 139.608358 
Q 119.347018 137.057262 119.347018 132.609197 
Q 119.347018 128.172676 121.074684 125.55232 
Q 122.716658 123.051245 125.326126 123.051245 
z
M 125.041406 123.02431 
L 125.041406 123.02431 
z
" style="fill:#ffa600;"/>
   </g>
   <g id="patch_12">
    <path clip-path="url(#p92a4cddc89)" d="M 125.442628 98.463315 
Q 127.925287 98.463315 129.294735 100.800039 
Q 130.664184 103.131682 130.815079 106.098305 
L 129.089745 106.098305 
Q 128.796495 103.847939 127.919593 102.532262 
Q 127.04269 101.211505 125.459711 101.211505 
Q 123.529387 101.211505 122.342152 103.634586 
Q 121.154917 106.052586 121.154917 111.051143 
Q 121.154917 115.150568 122.225421 117.700645 
Q 123.298773 120.245641 125.425546 120.245641 
Q 127.381494 120.245641 128.406445 117.563489 
Q 128.947391 116.151296 129.215017 113.845051 
L 130.940351 113.845051 
Q 130.709737 117.52793 129.411466 120.022129 
Q 127.85411 123.02431 125.212014 123.02431 
Q 122.934346 123.02431 121.385531 120.560591 
Q 119.347018 117.309498 119.347018 110.51268 
Q 119.347018 105.356649 120.87875 102.054757 
Q 122.532907 98.463315 125.442628 98.463315 
z
M 125.086742 98.463315 
L 125.086742 98.463315 
z
" style="fill:#0000ff;"/>
   </g>
   <g id="patch_13">
    <path clip-path="url(#p92a4cddc89)" d="M 130.940351 67.422522 
L 130.940351 71.120913 
L 126.125616 71.120913 
L 126.125616 98.463315 
L 124.161752 98.463315 
L 124.161752 71.120913 
L 119.347018 71.120913 
L 119.347018 67.422522 
L 130.940351 67.422522 
z
" style="fill:#ff0000;"/>
   </g>
   <g id="patch_14">
    <path clip-path="url(#p92a4cddc89)" d="M 127.128728 51.598309 
L 125.156418 34.537434 
L 123.059601 51.598309 
L 127.128728 51.598309 
z
M 124.236761 28.8 
L 126.226049 28.8 
L 130.940351 67.422522 
L 129.010487 67.422522 
L 127.69467 55.855115 
L 122.555912 55.855115 
L 121.149545 67.422522 
L 119.347018 67.422522 
L 124.236761 28.8 
z
M 125.147929 28.8 
L 125.147929 28.8 
z
" style="fill:#008000;"/>
   </g>
   <g id="patch_15">
    <path clip-path="url(#p92a4cddc89)" d="M 137.529635 122.385925 
Q 139.318115 122.385925 140.622849 123.382306 
Q 142.513607 124.81311 142.93654 128.400083 
L 141.236516 128.400083 
Q 140.924154 126.395364 139.948368 125.478693 
Q 138.972582 124.562022 137.485406 124.562022 
Q 135.724569 124.562022 134.519348 126.471089 
Q 133.314128 128.37617 133.314128 132.150463 
Q 133.314128 135.410623 134.3065 137.459183 
Q 135.301636 139.507744 137.54622 139.507744 
Q 139.265594 139.507744 140.393415 138.072954 
Q 141.521235 136.63418 141.546114 133.41786 
L 137.573863 133.41786 
L 137.573863 131.365314 
L 143.14386 131.365314 
L 143.14386 141.153766 
L 142.038153 141.153766 
L 141.623513 138.79832 
Q 140.752769 140.181298 140.078288 140.719344 
Q 138.944939 141.64 137.200687 141.64 
Q 134.94781 141.64 133.322421 139.535642 
Q 131.550526 136.893239 131.550526 132.285971 
Q 131.550526 127.69066 133.278193 124.976517 
Q 134.920167 122.385925 137.529635 122.385925 
z
M 137.244915 122.358026 
L 137.244915 122.358026 
z
" style="fill:#ffa600;"/>
   </g>
   <g id="patch_16">
    <path clip-path="url(#p92a4cddc89)" d="M 137.646137 97.91418 
Q 140.128796 97.91418 141.498244 100.239758 
Q 142.867692 102.56028 143.018588 105.512753 
L 141.293254 105.512753 
Q 141.000004 103.27312 140.123102 101.963719 
Q 139.246199 100.649262 137.66322 100.649262 
Q 135.732895 100.649262 134.545661 103.060785 
Q 133.358426 105.467252 133.358426 110.441967 
Q 133.358426 114.52184 134.42893 117.059753 
Q 135.502281 119.592611 137.629054 119.592611 
Q 139.585002 119.592611 140.609953 116.923252 
Q 141.1509 115.517794 141.418526 113.222549 
L 143.14386 113.222549 
Q 142.913246 116.887862 141.614975 119.370164 
Q 140.057619 122.358026 137.415523 122.358026 
Q 135.137854 122.358026 133.58904 119.906058 
Q 131.550526 116.670471 131.550526 109.906073 
Q 131.550526 104.774635 133.082258 101.488492 
Q 134.736415 97.91418 137.646137 97.91418 
z
M 137.290251 97.91418 
L 137.290251 97.91418 
z
" style="fill:#0000ff;"/>
   </g>
   <g id="patch_17">
    <path clip-path="url(#p92a4cddc89)" d="M 143.14386 66.994197 
L 143.14386 70.678194 
L 138.329125 70.678194 
L 138.329125 97.91418 
L 136.365261 97.91418 
L 136.365261 70.678194 
L 131.550526 70.678194 
L 131.550526 66.994197 
L 143.14386 66.994197 
z
" style="fill:#ff0000;"/>
   </g>
   <g id="patch_18">
    <path clip-path="url(#p92a4cddc89)" d="M 139.332237 51.345474 
L 137.359927 34.473806 
L 135.26311 51.345474 
L 139.332237 51.345474 
z
M 136.44027 28.8 
L 138.429558 28.8 
L 143.14386 66.994197 
L 141.213996 66.994197 
L 139.898179 55.555072 
L 134.759421 55.555072 
L 133.353053 66.994197 
L 131.550526 66.994197 
L 136.44027 28.8 
z
M 137.351438 28.8 
L 137.351438 28.8 
z
" style="fill:#008000;"/>
   </g>
   <g id="patch_19">
    <path clip-path="url(#p92a4cddc89)" d="M 149.733143 122.831909 
Q 151.521624 122.831909 152.826357 123.805211 
Q 154.717116 125.202873 155.140048 128.706761 
L 153.440025 128.706761 
Q 153.127662 126.748477 152.151876 125.853039 
Q 151.17609 124.957601 149.688915 124.957601 
Q 147.928077 124.957601 146.722857 126.822448 
Q 145.517637 128.683401 145.517637 132.37027 
Q 145.517637 135.554915 146.510009 137.556024 
Q 147.505145 139.557133 149.749729 139.557133 
Q 151.469103 139.557133 152.596923 138.155578 
Q 153.724744 136.75013 153.749622 133.60831 
L 149.777372 133.60831 
L 149.777372 131.603308 
L 155.347368 131.603308 
L 155.347368 141.165029 
L 154.241662 141.165029 
L 153.827022 138.864142 
Q 152.956278 140.215086 152.281797 140.740669 
Q 151.148448 141.64 149.404196 141.64 
Q 147.151319 141.64 145.52593 139.584386 
Q 143.754035 137.003188 143.754035 132.502639 
Q 143.754035 128.01377 145.481702 125.362494 
Q 147.123676 122.831909 149.733143 122.831909 
z
M 149.448424 122.804656 
L 149.448424 122.804656 
z
" style="fill:#ffa600;"/>
   </g>
   <g id="patch_20">
    <path clip-path="url(#p92a4cddc89)" d="M 149.849646 97.83364 
Q 152.332305 97.83364 153.701753 100.209373 
Q 155.071201 102.579941 155.222097 105.596088 
L 153.496763 105.596088 
Q 153.203513 103.308154 152.32661 101.970513 
Q 151.449708 100.627708 149.866728 100.627708 
Q 147.936404 100.627708 146.749169 103.09124 
Q 145.561935 105.549606 145.561935 110.631609 
Q 145.561935 114.79947 146.632439 117.392117 
Q 147.70579 119.9796 149.832563 119.9796 
Q 151.788511 119.9796 152.813462 117.252672 
Q 153.354408 115.816903 153.622034 113.472158 
L 155.347368 113.472158 
Q 155.116754 117.21652 153.818483 119.752356 
Q 152.261127 122.804656 149.619032 122.804656 
Q 147.341363 122.804656 145.792549 120.299808 
Q 143.754035 116.99444 143.754035 110.084157 
Q 143.754035 104.842051 145.285767 101.485038 
Q 146.939924 97.83364 149.849646 97.83364 
z
M 149.49376 97.83364 
L 149.49376 97.83364 
z
" style="fill:#0000ff;"/>
   </g>
   <g id="patch_21">
    <path clip-path="url(#p92a4cddc89)" d="M 155.347368 67.030806 
L 155.347368 70.700845 
L 150.532634 70.700845 
L 150.532634 97.83364 
L 148.56877 97.83364 
L 148.56877 70.700845 
L 143.754035 70.700845 
L 143.754035 67.030806 
L 155.347368 67.030806 
z
" style="fill:#ff0000;"/>
   </g>
   <g id="patch_22">
    <path clip-path="url(#p92a4cddc89)" d="M 151.535745 51.367084 
L 149.563435 34.479244 
L 147.466618 51.367084 
L 151.535745 51.367084 
z
M 148.643779 28.8 
L 150.633067 28.8 
L 155.347368 67.030806 
L 153.417504 67.030806 
L 152.101688 55.580717 
L 146.962929 55.580717 
L 145.556562 67.030806 
L 143.754035 67.030806 
L 148.643779 28.8 
z
M 149.554946 28.8 
L 149.554946 28.8 
z
" style="fill:#008000;"/>
   </g>
   <g id="patch_23">
    <path clip-path="url(#p92a4cddc89)" d="M 161.936652 122.63085 
Q 163.725132 122.63085 165.029866 123.614557 
Q 166.920624 125.02716 167.343557 128.568504 
L 165.643533 128.568504 
Q 165.331171 126.589286 164.355385 125.684276 
Q 163.379599 124.779266 161.892424 124.779266 
Q 160.131586 124.779266 158.926366 126.664048 
Q 157.721146 128.544896 157.721146 132.271177 
Q 157.721146 135.489865 158.713517 137.512366 
Q 159.708653 139.534868 161.953238 139.534868 
Q 163.672611 139.534868 164.800432 138.11833 
Q 165.928253 136.697857 165.953131 133.522452 
L 161.98088 133.522452 
L 161.98088 131.496016 
L 167.550877 131.496016 
L 167.550877 141.159951 
L 166.445171 141.159951 
L 166.030531 138.834468 
Q 165.159787 140.199853 164.485306 140.731055 
Q 163.351957 141.64 161.607704 141.64 
Q 159.354827 141.64 157.729439 139.562411 
Q 155.957544 136.953621 155.957544 132.404961 
Q 155.957544 127.868105 157.68521 125.188488 
Q 159.327185 122.63085 161.936652 122.63085 
z
M 161.651933 122.603307 
L 161.651933 122.603307 
z
" style="fill:#ffa600;"/>
   </g>
   <g id="patch_24">
    <path clip-path="url(#p92a4cddc89)" d="M 162.053155 98.19973 
Q 164.535813 98.19973 165.905262 100.521477 
Q 167.27471 102.838176 167.425605 105.785785 
L 165.700271 105.785785 
Q 165.407022 103.549842 164.530119 102.242598 
Q 163.653217 100.930306 162.070237 100.930306 
Q 160.139913 100.930306 158.952678 103.337856 
Q 157.765443 105.74036 157.765443 110.706879 
Q 157.765443 114.78003 158.835948 117.313762 
Q 159.909299 119.842447 162.036072 119.842447 
Q 163.99202 119.842447 165.016971 117.177486 
Q 165.557917 115.774343 165.825543 113.48288 
L 167.550877 113.48288 
Q 167.320263 117.142155 166.021992 119.620367 
Q 164.464636 122.603307 161.822541 122.603307 
Q 159.544872 122.603307 157.996057 120.155378 
Q 155.957544 116.925122 155.957544 110.171867 
Q 155.957544 105.048883 157.489276 101.768154 
Q 159.143433 98.19973 162.053155 98.19973 
z
M 161.697269 98.19973 
L 161.697269 98.19973 
z
" style="fill:#0000ff;"/>
   </g>
   <g id="patch_25">
    <path clip-path="url(#p92a4cddc89)" d="M 167.550877 66.997857 
L 167.550877 70.715441 
L 162.736143 70.715441 
L 162.736143 98.19973 
L 160.772279 98.19973 
L 160.772279 70.715441 
L 155.957544 70.715441 
L 155.957544 66.997857 
L 167.550877 66.997857 
z
" style="fill:#ff0000;"/>
   </g>
   <g id="patch_26">
    <path clip-path="url(#p92a4cddc89)" d="M 163.739254 51.347635 
L 161.766944 34.47435 
L 159.670127 51.347635 
L 163.739254 51.347635 
z
M 160.847288 28.8 
L 162.836576 28.8 
L 167.550877 66.997857 
L 165.621013 66.997857 
L 164.305197 55.557637 
L 159.166438 55.557637 
L 157.760071 66.997857 
L 155.957544 66.997857 
L 160.847288 28.8 
z
M 161.758455 28.8 
L 161.758455 28.8 
z
" style="fill:#008000;"/>
   </g>
   <g id="patch_27">
    <path clip-path="url(#p92a4cddc89)" d="M 174.140161 123.051245 
Q 175.928641 123.051245 177.233375 124.013197 
Q 179.124133 125.394559 179.547066 128.857586 
L 177.847042 128.857586 
Q 177.53468 126.922139 176.558894 126.037143 
Q 175.583108 125.152148 174.095933 125.152148 
Q 172.335095 125.152148 171.129875 126.995247 
Q 169.924655 128.834499 169.924655 132.478372 
Q 169.924655 135.625878 170.917026 137.603651 
Q 171.912162 139.581423 174.156746 139.581423 
Q 175.87612 139.581423 177.003941 138.196213 
Q 178.131762 136.807155 178.15664 133.701974 
L 174.184389 133.701974 
L 174.184389 131.720354 
L 179.754386 131.720354 
L 179.754386 141.170568 
L 178.648679 141.170568 
L 178.234039 138.896514 
Q 177.363296 140.231703 176.688815 140.751157 
Q 175.555465 141.64 173.811213 141.64 
Q 171.558336 141.64 169.932947 139.608358 
Q 168.161053 137.057262 168.161053 132.609197 
Q 168.161053 128.172676 169.888719 125.55232 
Q 171.530693 123.051245 174.140161 123.051245 
z
M 173.855441 123.02431 
L 173.855441 123.02431 
z
" style="fill:#ffa600;"/>
   </g>
   <g id="patch_28">
    <path clip-path="url(#p92a4cddc89)" d="M 174.256663 98.207052 
Q 176.739322 98.207052 178.10877 100.568156 
Q 179.478219 102.924127 179.629114 105.921703 
L 177.90378 105.921703 
Q 177.61053 103.647857 176.733628 102.318453 
Q 175.856726 100.983916 174.273746 100.983916 
Q 172.343422 100.983916 171.156187 103.432278 
Q 169.968952 105.875508 169.968952 110.926218 
Q 169.968952 115.068416 171.039456 117.645099 
Q 172.112808 120.21665 174.239581 120.21665 
Q 176.195529 120.21665 177.22048 117.506513 
Q 177.761426 116.079584 178.029052 113.749277 
L 179.754386 113.749277 
Q 179.523772 117.470583 178.225501 119.990805 
Q 176.668145 123.02431 174.026049 123.02431 
Q 171.748381 123.02431 170.199566 120.534885 
Q 168.161053 117.249871 168.161053 110.382137 
Q 168.161053 105.172309 169.692785 101.835966 
Q 171.346942 98.207052 174.256663 98.207052 
z
M 173.900778 98.207052 
L 173.900778 98.207052 
z
" style="fill:#0000ff;"/>
   </g>
   <g id="patch_29">
    <path clip-path="url(#p92a4cddc89)" d="M 179.754386 67.005179 
L 179.754386 70.722762 
L 174.939651 70.722762 
L 174.939651 98.207052 
L 172.975787 98.207052 
L 172.975787 70.722762 
L 168.161053 70.722762 
L 168.161053 67.005179 
L 179.754386 67.005179 
z
" style="fill:#ff0000;"/>
   </g>
   <g id="patch_30">
    <path clip-path="url(#p92a4cddc89)" d="M 175.942763 51.351957 
L 173.970453 34.475437 
L 171.873636 51.351957 
L 175.942763 51.351957 
z
M 173.050796 28.8 
L 175.040084 28.8 
L 179.754386 67.005179 
L 177.824522 67.005179 
L 176.508705 55.562766 
L 171.369947 55.562766 
L 169.96358 67.005179 
L 168.161053 67.005179 
L 173.050796 28.8 
z
M 173.961964 28.8 
L 173.961964 28.8 
z
" style="fill:#008000;"/>
   </g>
   <g id="patch_31">
    <path clip-path="url(#p92a4cddc89)" d="M 186.34367 122.740519 
Q 188.13215 122.740519 189.436884 123.71855 
Q 191.327642 125.123003 191.750575 128.643917 
L 190.050551 128.643917 
Q 189.738189 126.676117 188.762403 125.776328 
Q 187.786617 124.876539 186.299441 124.876539 
Q 184.538604 124.876539 183.333384 126.750448 
Q 182.128163 128.620444 182.128163 132.325228 
Q 182.128163 135.525347 183.120535 137.53618 
Q 184.115671 139.547013 186.360255 139.547013 
Q 188.079629 139.547013 189.20745 138.138647 
Q 190.33527 136.72637 190.360149 133.569284 
L 186.387898 133.569284 
L 186.387898 131.554539 
L 191.957895 131.554539 
L 191.957895 141.162721 
L 190.852188 141.162721 
L 190.437548 138.850654 
Q 189.566804 140.208162 188.892323 140.736299 
Q 187.758974 141.64 186.014722 141.64 
Q 183.761845 141.64 182.136456 139.574397 
Q 180.364561 136.980658 180.364561 132.45824 
Q 180.364561 127.947558 182.092228 125.283401 
Q 183.734202 122.740519 186.34367 122.740519 
z
M 186.05895 122.713134 
L 186.05895 122.713134 
z
" style="fill:#ffa600;"/>
   </g>
   <g id="patch_32">
    <path clip-path="url(#p92a4cddc89)" d="M 186.460172 97.679882 
Q 188.942831 97.679882 190.312279 100.061536 
Q 191.681727 102.438012 191.832623 105.461677 
L 190.107289 105.461677 
Q 189.814039 103.168041 188.937137 101.827066 
Q 188.060234 100.480914 186.477255 100.480914 
Q 184.54693 100.480914 183.359696 102.950585 
Q 182.172461 105.415079 182.172461 110.509747 
Q 182.172461 114.687996 183.242965 117.287105 
Q 184.316316 119.881037 186.44309 119.881037 
Q 188.399038 119.881037 189.423988 117.147312 
Q 189.964935 115.707965 190.232561 113.357377 
L 191.957895 113.357377 
Q 191.727281 117.11107 190.42901 119.653226 
Q 188.871654 122.713134 186.229558 122.713134 
Q 183.951889 122.713134 182.403075 120.202042 
Q 180.364561 116.888437 180.364561 109.960931 
Q 180.364561 104.70576 181.896294 101.34038 
Q 183.55045 97.679882 186.460172 97.679882 
z
M 186.104286 97.679882 
L 186.104286 97.679882 
z
" style="fill:#0000ff;"/>
   </g>
   <g id="patch_33">
    <path clip-path="url(#p92a4cddc89)" d="M 191.957895 66.536584 
L 191.957895 70.247188 
L 187.14316 70.247188 
L 187.14316 97.679882 
L 185.179296 97.679882 
L 185.179296 70.247188 
L 180.364561 70.247188 
L 180.364561 66.536584 
L 191.957895 66.536584 
z
" style="fill:#ff0000;"/>
   </g>
   <g id="patch_34">
    <path clip-path="url(#p92a4cddc89)" d="M 188.146272 51.075352 
L 186.173962 34.405827 
L 184.077145 51.075352 
L 188.146272 51.075352 
z
M 185.254305 28.8 
L 187.243593 28.8 
L 191.957895 66.536584 
L 190.028031 66.536584 
L 188.712214 55.234514 
L 183.573456 55.234514 
L 182.167088 66.536584 
L 180.364561 66.536584 
L 185.254305 28.8 
z
M 186.165473 28.8 
L 186.165473 28.8 
z
" style="fill:#008000;"/>
   </g>
   <g id="patch_35">
    <path clip-path="url(#p92a4cddc89)" d="M 198.547178 122.868465 
Q 200.335659 122.868465 201.640393 123.839875 
Q 203.531151 125.234821 203.954084 128.731898 
L 202.25406 128.731898 
Q 201.941698 126.77742 200.965912 125.883723 
Q 199.990125 124.990025 198.50295 124.990025 
Q 196.742112 124.990025 195.536892 126.851248 
Q 194.331672 128.708584 194.331672 132.388287 
Q 194.331672 135.566742 195.324044 137.563962 
Q 196.31918 139.561182 198.563764 139.561182 
Q 200.283138 139.561182 201.410958 138.162351 
Q 202.538779 136.759634 202.563658 133.623921 
L 198.591407 133.623921 
L 198.591407 131.622816 
L 204.161404 131.622816 
L 204.161404 141.165952 
L 203.055697 141.165952 
L 202.641057 138.869537 
Q 201.770313 140.217855 201.095832 140.742417 
Q 199.962483 141.64 198.218231 141.64 
Q 195.965354 141.64 194.339965 139.588381 
Q 192.56807 137.012201 192.56807 132.520399 
Q 192.56807 128.040254 194.295737 125.394132 
Q 195.937711 122.868465 198.547178 122.868465 
z
M 198.262459 122.841265 
L 198.262459 122.841265 
z
" style="fill:#ffa600;"/>
   </g>
   <g id="patch_36">
    <path clip-path="url(#p92a4cddc89)" d="M 198.663681 98.203391 
Q 201.14634 98.203391 202.515788 100.547429 
Q 203.885236 102.886371 204.036132 105.862279 
L 202.310798 105.862279 
Q 202.017548 103.604869 201.140645 102.285074 
Q 200.263743 100.960183 198.680763 100.960183 
Q 196.750439 100.960183 195.563204 103.390848 
Q 194.37597 105.816418 194.37597 110.83062 
Q 194.37597 114.942877 195.446474 117.500936 
Q 196.519825 120.053899 198.646598 120.053899 
Q 200.602546 120.053899 201.627497 117.363351 
Q 202.168443 115.946737 202.43607 113.633274 
L 204.161404 113.633274 
Q 203.93079 117.327681 202.632518 119.829686 
Q 201.075163 122.841265 198.433067 122.841265 
Q 196.155398 122.841265 194.606584 120.369834 
Q 192.56807 117.108564 192.56807 110.290472 
Q 192.56807 105.118302 194.099802 101.806075 
Q 195.753959 98.203391 198.663681 98.203391 
z
M 198.307795 98.203391 
L 198.307795 98.203391 
z
" style="fill:#0000ff;"/>
   </g>
   <g id="patch_37">
    <path clip-path="url(#p92a4cddc89)" d="M 204.161404 66.884369 
L 204.161404 70.61591 
L 199.346669 70.61591 
L 199.346669 98.203391 
L 197.382805 98.203391 
L 197.382805 70.61591 
L 192.56807 70.61591 
L 192.56807 66.884369 
L 204.161404 66.884369 
z
" style="fill:#ff0000;"/>
   </g>
   <g id="patch_38">
    <path clip-path="url(#p92a4cddc89)" d="M 200.34978 51.280645 
L 198.377471 34.457491 
L 196.280653 51.280645 
L 200.34978 51.280645 
z
M 197.457814 28.8 
L 199.447102 28.8 
L 204.161404 66.884369 
L 202.231539 66.884369 
L 200.915723 55.478138 
L 195.776964 55.478138 
L 194.370597 66.884369 
L 192.56807 66.884369 
L 197.457814 28.8 
z
M 198.368981 28.8 
L 198.368981 28.8 
z
" style="fill:#008000;"/>
   </g>
   <g id="patch_39">
    <path clip-path="url(#p92a4cddc89)" d="M 210.750687 122.769763 
Q 212.539168 122.769763 213.843901 123.746282 
Q 215.73466 125.148562 216.157592 128.664027 
L 214.457568 128.664027 
Q 214.145206 126.699272 213.16942 125.800876 
Q 212.193634 124.902479 210.706459 124.902479 
Q 208.945621 124.902479 207.740401 126.773488 
Q 206.535181 128.64059 206.535181 132.339641 
Q 206.535181 135.534809 207.527553 137.54253 
Q 208.522688 139.550251 210.767273 139.550251 
Q 212.486647 139.550251 213.614467 138.144065 
Q 214.742288 136.733973 214.767166 133.581772 
L 210.794915 133.581772 
L 210.794915 131.570145 
L 216.364912 131.570145 
L 216.364912 141.163459 
L 215.259206 141.163459 
L 214.844566 138.85497 
Q 213.973822 140.210377 213.299341 140.737697 
Q 212.165992 141.64 210.421739 141.64 
Q 208.168862 141.64 206.543474 139.577594 
Q 204.771579 136.987868 204.771579 132.472448 
Q 204.771579 127.968746 206.499245 125.308711 
Q 208.14122 122.769763 210.750687 122.769763 
z
M 210.465968 122.742421 
L 210.465968 122.742421 
z
" style="fill:#ffa600;"/>
   </g>
   <g id="patch_40">
    <path clip-path="url(#p92a4cddc89)" d="M 210.86719 98.353488 
Q 213.349848 98.353488 214.719297 100.673841 
Q 216.088745 102.989151 216.239641 105.934991 
L 214.514307 105.934991 
Q 214.221057 103.70039 213.344154 102.39393 
Q 212.467252 101.082425 210.884272 101.082425 
Q 208.953948 101.082425 207.766713 103.488531 
Q 206.579478 105.889593 206.579478 110.853131 
Q 206.579478 114.923838 207.649983 117.45605 
Q 208.723334 119.983218 210.850107 119.983218 
Q 212.806055 119.983218 213.831006 117.319856 
Q 214.371952 115.917555 214.639578 113.627467 
L 216.364912 113.627467 
Q 216.134298 117.284546 214.836027 119.761271 
Q 213.278671 122.742421 210.636576 122.742421 
Q 208.358907 122.742421 206.810092 120.295961 
Q 204.771579 117.067643 204.771579 110.318441 
Q 204.771579 105.198531 206.303311 101.91977 
Q 207.957468 98.353488 210.86719 98.353488 
z
M 210.511304 98.353488 
L 210.511304 98.353488 
z
" style="fill:#0000ff;"/>
   </g>
   <g id="patch_41">
    <path clip-path="url(#p92a4cddc89)" d="M 216.364912 67.180903 
L 216.364912 70.894996 
L 211.550178 70.894996 
L 211.550178 98.353488 
L 209.586314 98.353488 
L 209.586314 70.894996 
L 204.771579 70.894996 
L 204.771579 67.180903 
L 216.364912 67.180903 
z
" style="fill:#ff0000;"/>
   </g>
   <g id="patch_42">
    <path clip-path="url(#p92a4cddc89)" d="M 212.553289 51.455684 
L 210.580979 34.501541 
L 208.484162 51.455684 
L 212.553289 51.455684 
z
M 209.661323 28.8 
L 211.650611 28.8 
L 216.364912 67.180903 
L 214.435048 67.180903 
L 213.119232 55.68586 
L 207.980473 55.68586 
L 206.574106 67.180903 
L 204.771579 67.180903 
L 209.661323 28.8 
z
M 210.57249 28.8 
L 210.57249 28.8 
z
" style="fill:#008000;"/>
   </g>
   <g id="patch_43">
    <path clip-path="url(#p92a4cddc89)" d="M 222.954196 122.437103 
Q 224.742676 122.437103 226.04741 123.430836 
Q 227.938168 124.857837 228.361101 128.435276 
L 226.661077 128.435276 
Q 226.348715 126.435885 225.372929 125.521651 
Q 224.397143 124.607416 222.909968 124.607416 
Q 221.14913 124.607416 219.94391 126.511409 
Q 218.73869 128.411426 218.73869 132.175687 
Q 218.73869 135.427181 219.731061 137.470296 
Q 220.726197 139.513411 222.970782 139.513411 
Q 224.690155 139.513411 225.817976 138.082436 
Q 226.945797 136.647485 226.970675 133.439715 
L 222.998424 133.439715 
L 222.998424 131.392625 
L 228.568421 131.392625 
L 228.568421 141.155058 
L 227.462714 141.155058 
L 227.048075 138.805873 
Q 226.177331 140.185175 225.50285 140.721791 
Q 224.3695 141.64 222.625248 141.64 
Q 220.372371 141.64 218.746982 139.541236 
Q 216.975088 136.905856 216.975088 132.310834 
Q 216.975088 127.727738 218.702754 125.020809 
Q 220.344728 122.437103 222.954196 122.437103 
z
M 222.669477 122.409279 
L 222.669477 122.409279 
z
" style="fill:#ffa600;"/>
   </g>
   <g id="patch_44">
    <path clip-path="url(#p92a4cddc89)" d="M 223.070698 98.034989 
Q 225.553357 98.034989 226.922805 100.35395 
Q 228.292254 102.667869 228.443149 105.61194 
L 226.717815 105.61194 
Q 226.424565 103.378681 225.547663 102.073005 
Q 224.670761 100.762288 223.087781 100.762288 
Q 221.157457 100.762288 219.970222 103.166949 
Q 218.782987 105.566569 218.782987 110.527128 
Q 218.782987 114.595391 219.853491 117.126082 
Q 220.926843 119.651733 223.053616 119.651733 
Q 225.009564 119.651733 226.034515 116.989969 
Q 226.575461 115.588511 226.843087 113.299798 
L 228.568421 113.299798 
Q 228.337807 116.954681 227.039536 119.429919 
Q 225.48218 122.409279 222.840084 122.409279 
Q 220.562416 122.409279 219.013601 119.964288 
Q 216.975088 116.737908 216.975088 109.992759 
Q 216.975088 104.875922 218.50682 101.599131 
Q 220.160977 98.034989 223.070698 98.034989 
z
M 222.714813 98.034989 
L 222.714813 98.034989 
z
" style="fill:#0000ff;"/>
   </g>
   <g id="patch_45">
    <path clip-path="url(#p92a4cddc89)" d="M 228.568421 67.063754 
L 228.568421 70.753857 
L 223.753686 70.753857 
L 223.753686 98.034989 
L 221.789822 98.034989 
L 221.789822 70.753857 
L 216.975088 70.753857 
L 216.975088 67.063754 
L 228.568421 67.063754 
z
" style="fill:#ff0000;"/>
   </g>
   <g id="patch_46">
    <path clip-path="url(#p92a4cddc89)" d="M 224.756798 51.386533 
L 222.784488 34.484139 
L 220.687671 51.386533 
L 224.756798 51.386533 
z
M 221.864831 28.8 
L 223.85412 28.8 
L 228.568421 67.063754 
L 226.638557 67.063754 
L 225.32274 55.603797 
L 220.183982 55.603797 
L 218.777615 67.063754 
L 216.975088 67.063754 
L 221.864831 28.8 
z
M 222.775999 28.8 
L 222.775999 28.8 
z
" style="fill:#008000;"/>
   </g>
   <g id="patch_47">
    <path clip-path="url(#p92a4cddc89)" d="M 235.157705 122.769763 
Q 236.946185 122.769763 238.250919 123.746282 
Q 240.141677 125.148562 240.56461 128.664027 
L 238.864586 128.664027 
Q 238.552224 126.699272 237.576438 125.800876 
Q 236.600652 124.902479 235.113476 124.902479 
Q 233.352639 124.902479 232.147419 126.773488 
Q 230.942198 128.64059 230.942198 132.339641 
Q 230.942198 135.534809 231.93457 137.54253 
Q 232.929706 139.550251 235.17429 139.550251 
Q 236.893664 139.550251 238.021485 138.144065 
Q 239.149305 136.733973 239.174184 133.581772 
L 235.201933 133.581772 
L 235.201933 131.570145 
L 240.77193 131.570145 
L 240.77193 141.163459 
L 239.666223 141.163459 
L 239.251583 138.85497 
Q 238.380839 140.210377 237.706358 140.737697 
Q 236.573009 141.64 234.828757 141.64 
Q 232.57588 141.64 230.950491 139.577594 
Q 229.178596 136.987868 229.178596 132.472448 
Q 229.178596 127.968746 230.906263 125.308711 
Q 232.548237 122.769763 235.157705 122.769763 
z
M 234.872985 122.742421 
L 234.872985 122.742421 
z
" style="fill:#ffa600;"/>
   </g>
   <g id="patch_48">
    <path clip-path="url(#p92a4cddc89)" d="M 235.274207 97.947128 
Q 237.756866 97.947128 239.126314 100.306142 
Q 240.495763 102.660028 240.646658 105.654951 
L 238.921324 105.654951 
Q 238.628074 103.383118 237.751172 102.05489 
Q 236.874269 100.721534 235.29129 100.721534 
Q 233.360966 100.721534 232.173731 103.167729 
Q 230.986496 105.608796 230.986496 110.655036 
Q 230.986496 114.793568 232.057 117.367971 
Q 233.130352 119.937245 235.257125 119.937245 
Q 237.213073 119.937245 238.238023 117.229507 
Q 238.77897 115.803841 239.046596 113.475597 
L 240.77193 113.475597 
Q 240.541316 117.193609 239.243045 119.7116 
Q 237.685689 122.742421 235.043593 122.742421 
Q 232.765925 122.742421 231.21711 120.255199 
Q 229.178596 116.973092 229.178596 110.111437 
Q 229.178596 104.90622 230.710329 101.57283 
Q 232.364485 97.947128 235.274207 97.947128 
z
M 234.918321 97.947128 
L 234.918321 97.947128 
z
" style="fill:#0000ff;"/>
   </g>
   <g id="patch_49">
    <path clip-path="url(#p92a4cddc89)" d="M 240.77193 67.12965 
L 240.77193 70.801434 
L 235.957195 70.801434 
L 235.957195 97.947128 
L 233.993331 97.947128 
L 233.993331 70.801434 
L 229.178596 70.801434 
L 229.178596 67.12965 
L 240.77193 67.12965 
z
" style="fill:#ff0000;"/>
   </g>
   <g id="patch_50">
    <path clip-path="url(#p92a4cddc89)" d="M 236.960307 51.42543 
L 234.987997 34.493928 
L 232.89118 51.42543 
L 236.960307 51.42543 
z
M 234.06834 28.8 
L 236.057628 28.8 
L 240.77193 67.12965 
L 238.842066 67.12965 
L 237.526249 55.649957 
L 232.387491 55.649957 
L 230.981124 67.12965 
L 229.178596 67.12965 
L 234.06834 28.8 
z
M 234.979508 28.8 
L 234.979508 28.8 
z
" style="fill:#008000;"/>
   </g>
   <g id="patch_51">
    <path clip-path="url(#p92a4cddc89)" d="M 247.361214 123.175536 
Q 249.149694 123.175536 250.454428 124.131055 
Q 252.345186 125.503182 252.768119 128.943053 
L 251.068095 128.943053 
Q 250.755733 127.020547 249.779947 126.141469 
Q 248.804161 125.262391 247.316985 125.262391 
Q 245.556148 125.262391 244.350927 127.093167 
Q 243.145707 128.920121 243.145707 132.53963 
Q 243.145707 135.66609 244.138079 137.630639 
Q 245.133215 139.595188 247.377799 139.595188 
Q 249.097173 139.595188 250.224994 138.219239 
Q 251.352814 136.839469 251.377693 133.755051 
L 247.405442 133.755051 
L 247.405442 131.78668 
L 252.975439 131.78668 
L 252.975439 141.173706 
L 251.869732 141.173706 
L 251.455092 138.914858 
Q 250.584348 140.241119 249.909867 140.7571 
Q 248.776518 141.64 247.032266 141.64 
Q 244.779389 141.64 243.154 139.621942 
Q 241.382105 137.087904 241.382105 132.66958 
Q 241.382105 128.262723 243.109772 125.659887 
Q 244.751746 123.175536 247.361214 123.175536 
z
M 247.076494 123.148781 
L 247.076494 123.148781 
z
" style="fill:#ffa600;"/>
   </g>
   <g id="patch_52">
    <path clip-path="url(#p92a4cddc89)" d="M 247.477716 98.448671 
Q 249.960375 98.448671 251.329823 100.79863 
Q 252.699271 103.14348 252.850167 106.126906 
L 251.124833 106.126906 
Q 250.831583 103.863794 249.954681 102.540665 
Q 249.077778 101.212427 247.494798 101.212427 
Q 245.564474 101.212427 244.37724 103.649232 
Q 243.190005 106.080929 243.190005 111.107797 
Q 243.190005 115.230442 244.260509 117.794962 
Q 245.33386 120.354374 247.460633 120.354374 
Q 249.416581 120.354374 250.441532 117.65703 
Q 250.982479 116.236837 251.250105 113.91753 
L 252.975439 113.91753 
Q 252.744825 117.621269 251.446554 120.129595 
Q 249.889198 123.148781 247.247102 123.148781 
Q 244.969433 123.148781 243.420619 120.671107 
Q 241.382105 117.401599 241.382105 110.566285 
Q 241.382105 105.38105 242.913837 102.060456 
Q 244.567994 98.448671 247.477716 98.448671 
z
M 247.12183 98.448671 
L 247.12183 98.448671 
z
" style="fill:#0000ff;"/>
   </g>
   <g id="patch_53">
    <path clip-path="url(#p92a4cddc89)" d="M 252.975439 67.268764 
L 252.975439 70.98373 
L 248.160704 70.98373 
L 248.160704 98.448671 
L 246.19684 98.448671 
L 246.19684 70.98373 
L 241.382105 70.98373 
L 241.382105 67.268764 
L 252.975439 67.268764 
z
" style="fill:#ff0000;"/>
   </g>
   <g id="patch_54">
    <path clip-path="url(#p92a4cddc89)" d="M 249.163815 51.507548 
L 247.191506 34.514593 
L 245.094688 51.507548 
L 249.163815 51.507548 
z
M 246.271849 28.8 
L 248.261137 28.8 
L 252.975439 67.268764 
L 251.045574 67.268764 
L 249.729758 55.747407 
L 244.591 55.747407 
L 243.184632 67.268764 
L 241.382105 67.268764 
L 246.271849 28.8 
z
M 247.183016 28.8 
L 247.183016 28.8 
z
" style="fill:#008000;"/>
   </g>
   <g id="patch_55">
    <path clip-path="url(#p92a4cddc89)" d="M 259.564722 123.164569 
Q 261.353203 123.164569 262.657936 124.120656 
Q 264.548695 125.493598 264.971627 128.935512 
L 263.271604 128.935512 
Q 262.959241 127.011864 261.983455 126.132264 
Q 261.007669 125.252664 259.520494 125.252664 
Q 257.759656 125.252664 256.554436 127.084527 
Q 255.349216 128.912566 255.349216 132.534224 
Q 255.349216 135.662542 256.341588 137.628258 
Q 257.336724 139.593973 259.581308 139.593973 
Q 261.300682 139.593973 262.428502 138.217207 
Q 263.556323 136.836617 263.581201 133.750368 
L 259.608951 133.750368 
L 259.608951 131.780828 
L 265.178947 131.780828 
L 265.178947 141.173429 
L 264.073241 141.173429 
L 263.658601 138.913239 
Q 262.787857 140.240288 262.113376 140.756575 
Q 260.980027 141.64 259.235775 141.64 
Q 256.982897 141.64 255.357509 139.620744 
Q 253.585614 137.0852 253.585614 132.664252 
Q 253.585614 128.254778 255.313281 125.650396 
Q 256.955255 123.164569 259.564722 123.164569 
z
M 259.280003 123.137798 
L 259.280003 123.137798 
z
" style="fill:#ffa600;"/>
   </g>
   <g id="patch_56">
    <path clip-path="url(#p92a4cddc89)" d="M 259.681225 98.455993 
Q 262.163884 98.455993 263.533332 100.80421 
Q 264.90278 103.147323 265.053676 106.128538 
L 263.328342 106.128538 
Q 263.035092 103.867103 262.158189 102.544954 
Q 261.281287 101.217701 259.698307 101.217701 
Q 257.767983 101.217701 256.580748 103.6527 
Q 255.393514 106.082594 255.393514 111.105737 
Q 255.393514 115.225327 256.464018 117.787947 
Q 257.537369 120.345462 259.664142 120.345462 
Q 261.62009 120.345462 262.645041 117.650117 
Q 263.185987 116.230977 263.453613 113.913388 
L 265.178947 113.913388 
Q 264.948333 117.614383 263.650062 120.12085 
Q 262.092706 123.137798 259.450611 123.137798 
Q 257.172942 123.137798 255.624127 120.661961 
Q 253.585614 117.394876 253.585614 110.564627 
Q 253.585614 105.383234 255.117346 102.065101 
Q 256.771503 98.455993 259.681225 98.455993 
z
M 259.325339 98.455993 
L 259.325339 98.455993 
z
" style="fill:#0000ff;"/>
   </g>
   <g id="patch_57">
    <path clip-path="url(#p92a4cddc89)" d="M 265.178947 67.37127 
L 265.178947 71.074895 
L 260.364213 71.074895 
L 260.364213 98.455993 
L 258.400349 98.455993 
L 258.400349 71.074895 
L 253.585614 71.074895 
L 253.585614 67.37127 
L 265.178947 67.37127 
z
" style="fill:#ff0000;"/>
   </g>
   <g id="patch_58">
    <path clip-path="url(#p92a4cddc89)" d="M 261.367324 51.568055 
L 259.395014 34.52982 
L 257.298197 51.568055 
L 261.367324 51.568055 
z
M 258.475358 28.8 
L 260.464646 28.8 
L 265.178947 67.37127 
L 263.249083 67.37127 
L 261.933267 55.819212 
L 256.794508 55.819212 
L 255.388141 67.37127 
L 253.585614 67.37127 
L 258.475358 28.8 
z
M 259.386525 28.8 
L 259.386525 28.8 
z
" style="fill:#008000;"/>
   </g>
   <g id="patch_59">
    <path clip-path="url(#p92a4cddc89)" d="M 271.768231 122.795353 
Q 273.556711 122.795353 274.861445 123.770547 
Q 276.752203 125.170925 277.175136 128.681623 
L 275.475112 128.681623 
Q 275.16275 126.719533 274.186964 125.822355 
Q 273.211178 124.925176 271.724003 124.925176 
Q 269.963165 124.925176 268.757945 126.793648 
Q 267.552725 128.658219 267.552725 132.352253 
Q 267.552725 135.543088 268.545096 137.548086 
Q 269.540232 139.553085 271.784817 139.553085 
Q 273.50419 139.553085 274.632011 138.148806 
Q 275.759832 136.740626 275.78471 133.5927 
L 271.812459 133.5927 
L 271.812459 131.5838 
L 277.382456 131.5838 
L 277.382456 141.164105 
L 276.27675 141.164105 
L 275.86211 138.858747 
Q 274.991366 140.212316 274.316885 140.738921 
Q 273.183535 141.64 271.439283 141.64 
Q 269.186406 141.64 267.561018 139.58039 
Q 265.789123 136.994176 265.789123 132.484879 
Q 265.789123 127.987285 267.516789 125.330857 
Q 269.158764 122.795353 271.768231 122.795353 
z
M 271.483512 122.768047 
L 271.483512 122.768047 
z
" style="fill:#ffa600;"/>
   </g>
   <g id="patch_60">
    <path clip-path="url(#p92a4cddc89)" d="M 271.884733 98.576803 
Q 274.367392 98.576803 275.736841 100.878349 
Q 277.106289 103.174891 277.257184 106.096853 
L 275.53185 106.096853 
Q 275.238601 103.880364 274.361698 102.584494 
Q 273.484796 101.283621 271.901816 101.283621 
Q 269.971492 101.283621 268.784257 103.670223 
Q 267.597022 106.051822 267.597022 110.975128 
Q 267.597022 115.01284 268.667527 117.524526 
Q 269.740878 120.031209 271.867651 120.031209 
Q 273.823599 120.031209 274.84855 117.389436 
Q 275.389496 115.998502 275.657122 113.726976 
L 277.382456 113.726976 
Q 277.151842 117.354412 275.853571 119.811062 
Q 274.296215 122.768047 271.65412 122.768047 
Q 269.376451 122.768047 267.827636 120.341418 
Q 265.789123 117.139268 265.789123 110.444772 
Q 265.789123 105.366362 267.320855 102.114178 
Q 268.975012 98.576803 271.884733 98.576803 
z
M 271.528848 98.576803 
L 271.528848 98.576803 
z
" style="fill:#0000ff;"/>
   </g>
   <g id="patch_61">
    <path clip-path="url(#p92a4cddc89)" d="M 277.382456 67.111345 
L 277.382456 70.860334 
L 272.567721 70.860334 
L 272.567721 98.576803 
L 270.603857 98.576803 
L 270.603857 70.860334 
L 265.789123 70.860334 
L 265.789123 67.111345 
L 277.382456 67.111345 
z
" style="fill:#ff0000;"/>
   </g>
   <g id="patch_62">
    <path clip-path="url(#p92a4cddc89)" d="M 273.570833 51.414626 
L 271.598523 34.491208 
L 269.501706 51.414626 
L 273.570833 51.414626 
z
M 270.678867 28.8 
L 272.668155 28.8 
L 277.382456 67.111345 
L 275.452592 67.111345 
L 274.136776 55.637135 
L 268.998017 55.637135 
L 267.59165 67.111345 
L 265.789123 67.111345 
L 270.678867 28.8 
z
M 271.590034 28.8 
L 271.590034 28.8 
z
" style="fill:#008000;"/>
   </g>
   <g id="patch_63">
    <path clip-path="url(#p92a4cddc89)" d="M 283.97174 122.649128 
Q 285.76022 122.649128 287.064954 123.631889 
Q 288.955712 125.043134 289.378645 128.581073 
L 287.678621 128.581073 
Q 287.366259 126.603758 286.390473 125.699618 
Q 285.414687 124.795478 283.927512 124.795478 
Q 282.166674 124.795478 280.961454 126.678448 
Q 279.756234 128.557487 279.756234 132.280185 
Q 279.756234 135.495779 280.748605 137.516335 
Q 281.743741 139.536892 283.988325 139.536892 
Q 285.707699 139.536892 286.83552 138.121716 
Q 287.963341 136.702609 287.988219 133.530257 
L 284.015968 133.530257 
L 284.015968 131.50577 
L 289.585965 131.50577 
L 289.585965 141.160413 
L 288.480258 141.160413 
L 288.065618 138.837166 
Q 287.194874 140.201238 286.520393 140.731929 
Q 285.387044 141.64 283.642792 141.64 
Q 281.389915 141.64 279.764526 139.564409 
Q 277.992632 136.958127 277.992632 132.413841 
Q 277.992632 127.881347 279.720298 125.204307 
Q 281.362272 122.649128 283.97174 122.649128 
z
M 283.68702 122.621611 
L 283.68702 122.621611 
z
" style="fill:#ffa600;"/>
   </g>
   <g id="patch_64">
    <path clip-path="url(#p92a4cddc89)" d="M 284.088242 98.294914 
Q 286.570901 98.294914 287.940349 100.609346 
Q 289.309798 102.918747 289.460693 105.85707 
L 287.735359 105.85707 
Q 287.442109 103.628171 286.565207 102.325045 
Q 285.688304 101.016887 284.105325 101.016887 
Q 282.175001 101.016887 280.987766 103.416853 
Q 279.800531 105.811788 279.800531 110.762661 
Q 279.800531 114.82298 280.871035 117.34873 
Q 281.944387 119.869449 284.07116 119.869449 
Q 286.027108 119.869449 287.052059 117.212883 
Q 287.593005 115.814161 287.860631 113.529917 
L 289.585965 113.529917 
Q 289.355351 117.177664 288.05708 119.648069 
Q 286.499724 122.621611 283.857628 122.621611 
Q 281.57996 122.621611 280.031145 120.181394 
Q 277.992632 116.961314 277.992632 110.229335 
Q 277.992632 105.122489 279.524364 101.852096 
Q 281.178521 98.294914 284.088242 98.294914 
z
M 283.732357 98.294914 
L 283.732357 98.294914 
z
" style="fill:#0000ff;"/>
   </g>
   <g id="patch_65">
    <path clip-path="url(#p92a4cddc89)" d="M 289.585965 67.125989 
L 289.585965 70.839647 
L 284.77123 70.839647 
L 284.77123 98.294914 
L 282.807366 98.294914 
L 282.807366 70.839647 
L 277.992632 70.839647 
L 277.992632 67.125989 
L 289.585965 67.125989 
z
" style="fill:#ff0000;"/>
   </g>
   <g id="patch_66">
    <path clip-path="url(#p92a4cddc89)" d="M 285.774342 51.42327 
L 283.802032 34.493384 
L 281.705215 51.42327 
L 285.774342 51.42327 
z
M 282.882375 28.8 
L 284.871663 28.8 
L 289.585965 67.125989 
L 287.656101 67.125989 
L 286.340284 55.647393 
L 281.201526 55.647393 
L 279.795159 67.125989 
L 277.992632 67.125989 
L 282.882375 28.8 
z
M 283.793543 28.8 
L 283.793543 28.8 
z
" style="fill:#008000;"/>
   </g>
   <g id="patch_67">
    <path clip-path="url(#p92a4cddc89)" d="M 296.175249 122.488282 
Q 297.963729 122.488282 299.268463 123.479366 
Q 301.159221 124.902564 301.582154 128.470468 
L 299.88213 128.470468 
Q 299.569768 126.476406 298.593982 125.564608 
Q 297.618196 124.65281 296.13102 124.65281 
Q 294.370183 124.65281 293.164962 126.551729 
Q 291.959742 128.446682 291.959742 132.200911 
Q 291.959742 135.443739 292.952114 137.481409 
Q 293.94725 139.519079 296.191834 139.519079 
Q 297.911208 139.519079 299.039029 138.091917 
Q 300.166849 136.660791 300.191728 133.46157 
L 296.219477 133.46157 
L 296.219477 131.419936 
L 301.789474 131.419936 
L 301.789474 141.156351 
L 300.683767 141.156351 
L 300.269127 138.813427 
Q 299.398383 140.189052 298.723902 140.724238 
Q 297.590553 141.64 295.846301 141.64 
Q 293.593424 141.64 291.968035 139.546829 
Q 290.19614 136.918473 290.19614 132.335698 
Q 290.19614 127.764816 291.923807 125.065102 
Q 293.565781 122.488282 296.175249 122.488282 
z
M 295.890529 122.460531 
L 295.890529 122.460531 
z
" style="fill:#ffa600;"/>
   </g>
   <g id="patch_68">
    <path clip-path="url(#p92a4cddc89)" d="M 296.291751 98.042311 
Q 298.77441 98.042311 300.143858 100.365451 
Q 301.513306 102.683541 301.664202 105.632918 
L 299.938868 105.632918 
Q 299.645618 103.395634 298.768716 102.087605 
Q 297.891813 100.774526 296.308834 100.774526 
Q 294.378509 100.774526 293.191275 103.183521 
Q 292.00404 105.587466 292.00404 110.556965 
Q 292.00404 114.63256 293.074544 117.167813 
Q 294.147895 119.698015 296.274669 119.698015 
Q 298.230616 119.698015 299.255567 117.031455 
Q 299.796514 115.62747 300.06414 113.334632 
L 301.789474 113.334632 
Q 301.55886 116.996102 300.260589 119.475802 
Q 298.703233 122.460531 296.061137 122.460531 
Q 293.783468 122.460531 292.234654 120.011134 
Q 290.19614 116.778939 290.19614 110.021633 
Q 290.19614 104.895574 291.727873 101.612876 
Q 293.382029 98.042311 296.291751 98.042311 
z
M 295.935865 98.042311 
L 295.935865 98.042311 
z
" style="fill:#0000ff;"/>
   </g>
   <g id="patch_69">
    <path clip-path="url(#p92a4cddc89)" d="M 301.789474 66.895352 
L 301.789474 70.606393 
L 296.974739 70.606393 
L 296.974739 98.042311 
L 295.010875 98.042311 
L 295.010875 70.606393 
L 290.19614 70.606393 
L 290.19614 66.895352 
L 301.789474 66.895352 
z
" style="fill:#ff0000;"/>
   </g>
   <g id="patch_70">
    <path clip-path="url(#p92a4cddc89)" d="M 297.977851 51.287128 
L 296.005541 34.459122 
L 293.908724 51.287128 
L 297.977851 51.287128 
z
M 295.085884 28.8 
L 297.075172 28.8 
L 301.789474 66.895352 
L 299.85961 66.895352 
L 298.543793 55.485832 
L 293.405035 55.485832 
L 291.998667 66.895352 
L 290.19614 66.895352 
L 295.085884 28.8 
z
M 295.997052 28.8 
L 295.997052 28.8 
z
" style="fill:#008000;"/>
   </g>
   <g id="patch_71">
    <path clip-path="url(#p92a4cddc89)" d="M 308.378757 123.025656 
Q 310.167238 123.025656 311.471971 123.988932 
Q 313.36273 125.372196 313.785662 128.839989 
L 312.085639 128.839989 
Q 311.773277 126.901878 310.79749 126.015664 
Q 309.821704 125.12945 308.334529 125.12945 
Q 306.573691 125.12945 305.368471 126.975087 
Q 304.163251 128.816871 304.163251 132.46576 
Q 304.163251 135.617599 305.155623 137.598094 
Q 306.150759 139.578589 308.395343 139.578589 
Q 310.114717 139.578589 311.242537 138.191472 
Q 312.370358 136.800502 312.395236 133.691047 
L 308.422986 133.691047 
L 308.422986 131.706699 
L 313.992982 131.706699 
L 313.992982 141.169921 
L 312.887276 141.169921 
L 312.472636 138.892737 
Q 311.601892 140.229764 310.927411 140.749933 
Q 309.794062 141.64 308.04981 141.64 
Q 305.796933 141.64 304.171544 139.605561 
Q 302.399649 137.050953 302.399649 132.596766 
Q 302.399649 128.154137 304.127316 125.530173 
Q 305.76929 123.025656 308.378757 123.025656 
z
M 308.094038 122.998684 
L 308.094038 122.998684 
z
" style="fill:#ffa600;"/>
   </g>
   <g id="patch_72">
    <path clip-path="url(#p92a4cddc89)" d="M 308.49526 98.393758 
Q 310.977919 98.393758 312.347367 100.734661 
Q 313.716815 103.070475 313.867711 106.042404 
L 312.142377 106.042404 
Q 311.849127 103.788013 310.972224 102.469982 
Q 310.095322 101.146863 308.512342 101.146863 
Q 306.582018 101.146863 305.394783 103.574278 
Q 304.207549 105.996604 304.207549 111.004101 
Q 304.207549 115.110859 305.278053 117.665496 
Q 306.351404 120.215045 308.478177 120.215045 
Q 310.434125 120.215045 311.459076 117.528096 
Q 312.000022 116.113376 312.267648 113.803006 
L 313.992982 113.803006 
Q 313.762369 117.492473 312.464097 119.991133 
Q 310.906741 122.998684 308.264646 122.998684 
Q 305.986977 122.998684 304.438163 120.530558 
Q 302.399649 117.27365 302.399649 110.464675 
Q 302.399649 105.299422 303.931381 101.991624 
Q 305.585538 98.393758 308.49526 98.393758 
z
M 308.139374 98.393758 
L 308.139374 98.393758 
z
" style="fill:#0000ff;"/>
   </g>
   <g id="patch_73">
    <path clip-path="url(#p92a4cddc89)" d="M 313.992982 67.254121 
L 313.992982 70.964289 
L 309.178248 70.964289 
L 309.178248 98.393758 
L 307.214384 98.393758 
L 307.214384 70.964289 
L 302.399649 70.964289 
L 302.399649 67.254121 
L 313.992982 67.254121 
z
" style="fill:#ff0000;"/>
   </g>
   <g id="patch_74">
    <path clip-path="url(#p92a4cddc89)" d="M 310.181359 51.498904 
L 308.209049 34.512418 
L 306.112232 51.498904 
L 310.181359 51.498904 
z
M 307.289393 28.8 
L 309.278681 28.8 
L 313.992982 67.254121 
L 312.063118 67.254121 
L 310.747302 55.737149 
L 305.608543 55.737149 
L 304.202176 67.254121 
L 302.399649 67.254121 
L 307.289393 28.8 
z
M 308.20056 28.8 
L 308.20056 28.8 
z
" style="fill:#008000;"/>
   </g>
   <g id="patch_75">
    <path clip-path="url(#p92a4cddc89)" d="M 320.582266 122.466348 
Q 322.370747 122.466348 323.67548 123.458568 
Q 325.566238 124.883395 325.989171 128.455386 
L 324.289147 128.455386 
Q 323.976785 126.45904 323.000999 125.546198 
Q 322.025213 124.633356 320.538038 124.633356 
Q 318.7772 124.633356 317.57198 126.534449 
Q 316.36676 128.431572 316.36676 132.1901 
Q 316.36676 135.436643 317.359132 137.476646 
Q 318.354267 139.51665 320.598852 139.51665 
Q 322.318225 139.51665 323.446046 138.087854 
Q 324.573867 136.655089 324.598745 133.452204 
L 320.626494 133.452204 
L 320.626494 131.408231 
L 326.196491 131.408231 
L 326.196491 141.155797 
L 325.090785 141.155797 
L 324.676145 138.81019 
Q 323.805401 140.18739 323.13092 140.723189 
Q 321.997571 141.64 320.253318 141.64 
Q 318.000441 141.64 316.375053 139.544432 
Q 314.603158 136.913066 314.603158 132.325042 
Q 314.603158 127.748925 316.330824 125.046119 
Q 317.972799 122.466348 320.582266 122.466348 
z
M 320.297547 122.438566 
L 320.297547 122.438566 
z
" style="fill:#ffa600;"/>
   </g>
   <g id="patch_76">
    <path clip-path="url(#p92a4cddc89)" d="M 320.698769 97.778726 
Q 323.181427 97.778726 324.550876 100.124854 
Q 325.920324 102.465881 326.071219 105.444443 
L 324.345885 105.444443 
Q 324.052636 103.18502 323.175733 101.864048 
Q 322.298831 100.537976 320.715851 100.537976 
Q 318.785527 100.537976 317.598292 102.970808 
Q 316.411057 105.39854 316.411057 110.417213 
Q 316.411057 114.533137 317.481562 117.093476 
Q 318.554913 119.648714 320.681686 119.648714 
Q 322.637634 119.648714 323.662585 116.955768 
Q 324.203531 115.537891 324.471157 113.222365 
L 326.196491 113.222365 
Q 325.965877 116.920066 324.667606 119.424302 
Q 323.11025 122.438566 320.468155 122.438566 
Q 318.190486 122.438566 316.641671 119.964932 
Q 314.603158 116.700754 314.603158 109.876584 
Q 314.603158 104.699802 316.13489 101.384622 
Q 317.789047 97.778726 320.698769 97.778726 
z
M 320.342883 97.778726 
L 320.342883 97.778726 
z
" style="fill:#0000ff;"/>
   </g>
   <g id="patch_77">
    <path clip-path="url(#p92a4cddc89)" d="M 326.196491 66.580515 
L 326.196491 70.297662 
L 321.381757 70.297662 
L 321.381757 97.778726 
L 319.417893 97.778726 
L 319.417893 70.297662 
L 314.603158 70.297662 
L 314.603158 66.580515 
L 326.196491 66.580515 
z
" style="fill:#ff0000;"/>
   </g>
   <g id="patch_78">
    <path clip-path="url(#p92a4cddc89)" d="M 322.384868 51.101284 
L 320.412558 34.412353 
L 318.315741 51.101284 
L 322.384868 51.101284 
z
M 319.492902 28.8 
L 321.48219 28.8 
L 326.196491 66.580515 
L 324.266627 66.580515 
L 322.950811 55.265287 
L 317.812052 55.265287 
L 316.405685 66.580515 
L 314.603158 66.580515 
L 319.492902 28.8 
z
M 320.404069 28.8 
L 320.404069 28.8 
z
" style="fill:#008000;"/>
   </g>
   <g id="patch_79">
    <path clip-path="url(#p92a4cddc89)" d="M 332.785775 122.711274 
Q 334.574255 122.711274 335.878989 123.690819 
Q 337.769747 125.097445 338.19268 128.623807 
L 336.492656 128.623807 
Q 336.180294 126.652963 335.204508 125.751781 
Q 334.228722 124.8506 332.741547 124.8506 
Q 330.980709 124.8506 329.775489 126.727408 
Q 328.570269 128.600298 328.570269 132.310814 
Q 328.570269 135.515885 329.56264 137.529829 
Q 330.557776 139.543774 332.802361 139.543774 
Q 334.521734 139.543774 335.649555 138.133229 
Q 336.777376 136.718766 336.802254 133.556795 
L 332.830003 133.556795 
L 332.830003 131.538933 
L 338.4 131.538933 
L 338.4 141.161982 
L 337.294293 141.161982 
L 336.879653 138.846338 
Q 336.00891 140.205946 335.334429 140.7349 
Q 334.201079 141.64 332.456827 141.64 
Q 330.20395 141.64 328.578561 139.571201 
Q 326.806667 136.973448 326.806667 132.444032 
Q 326.806667 127.926371 328.534333 125.258091 
Q 330.176307 122.711274 332.785775 122.711274 
z
M 332.501055 122.683846 
L 332.501055 122.683846 
z
" style="fill:#ffa600;"/>
   </g>
   <g id="patch_80">
    <path clip-path="url(#p92a4cddc89)" d="M 332.902277 98.148477 
Q 335.384936 98.148477 336.754384 100.482763 
Q 338.123833 102.811974 338.274728 105.775501 
L 336.549394 105.775501 
Q 336.256144 103.527483 335.379242 102.213179 
Q 334.50234 100.8938 332.91936 100.8938 
Q 330.989036 100.8938 329.801801 103.314352 
Q 328.614566 105.72983 328.614566 110.723171 
Q 328.614566 114.81832 329.68507 117.365735 
Q 330.758422 119.908077 332.885195 119.908077 
Q 334.841143 119.908077 335.866094 117.228723 
Q 336.40704 115.818003 336.674666 113.514165 
L 338.4 113.514165 
Q 338.169386 117.193201 336.871115 119.684797 
Q 335.313759 122.683846 332.671663 122.683846 
Q 330.393995 122.683846 328.84518 120.222698 
Q 326.806667 116.974996 326.806667 110.185271 
Q 326.806667 105.034619 328.338399 101.736173 
Q 329.992556 98.148477 332.902277 98.148477 
z
M 332.546392 98.148477 
L 332.546392 98.148477 
z
" style="fill:#0000ff;"/>
   </g>
   <g id="patch_81">
    <path clip-path="url(#p92a4cddc89)" d="M 338.4 66.551227 
L 338.4 70.315918 
L 333.585265 70.315918 
L 333.585265 98.148477 
L 331.621401 98.148477 
L 331.621401 70.315918 
L 326.806667 70.315918 
L 326.806667 66.551227 
L 338.4 66.551227 
z
" style="fill:#ff0000;"/>
   </g>
   <g id="patch_82">
    <path clip-path="url(#p92a4cddc89)" d="M 334.588377 51.083996 
L 332.616067 34.408002 
L 330.51925 51.083996 
L 334.588377 51.083996 
z
M 331.69641 28.8 
L 333.685698 28.8 
L 338.4 66.551227 
L 336.470136 66.551227 
L 335.154319 55.244772 
L 330.015561 55.244772 
L 328.609194 66.551227 
L 326.806667 66.551227 
L 331.69641 28.8 
z
M 332.607578 28.8 
L 332.607578 28.8 
z
" style="fill:#008000;"/>
   </g>
   <g id="matplotlib.axis_1">
    <g id="xtick_1">
     <g id="line2d_2">
      <path clip-path="url(#p92a4cddc89)" d="M 100.736667 141.64 
L 100.736667 28.8 
" style="fill:none;stroke:#cccccc;stroke-linecap:round;stroke-width:0.8;"/>
     </g>
     <g id="text_1">
      <!-- 0 -->
      <g style="fill:#262626;" transform="translate(95.175729 162.986875)scale(0.2 -0.2)">
       <defs>
        <path d="M 1731 4475 
Q 2600 4475 2988 3759 
Q 3288 3206 3288 2244 
Q 3288 1331 3016 734 
Q 2622 -122 1728 -122 
Q 922 -122 528 578 
Q 200 1163 200 2147 
Q 200 2909 397 3456 
Q 766 4475 1731 4475 
z
M 1725 391 
Q 2163 391 2422 778 
Q 2681 1166 2681 2222 
Q 2681 2984 2493 3476 
Q 2306 3969 1766 3969 
Q 1269 3969 1039 3501 
Q 809 3034 809 2125 
Q 809 1441 956 1025 
Q 1181 391 1725 391 
z
" id="Helvetica-30" transform="scale(0.015625)"/>
       </defs>
       <use xlink:href="#Helvetica-30"/>
      </g>
     </g>
    </g>
    <g id="xtick_2">
     <g id="line2d_3">
      <path clip-path="url(#p92a4cddc89)" d="M 222.771754 141.64 
L 222.771754 28.8 
" style="fill:none;stroke:#cccccc;stroke-linecap:round;stroke-width:0.8;"/>
     </g>
     <g id="text_2">
      <!-- 10 -->
      <g style="fill:#262626;" transform="translate(211.649879 162.986875)scale(0.2 -0.2)">
       <defs>
        <path d="M 613 3169 
L 613 3600 
Q 1222 3659 1462 3798 
Q 1703 3938 1822 4456 
L 2266 4456 
L 2266 0 
L 1666 0 
L 1666 3169 
L 613 3169 
z
" id="Helvetica-31" transform="scale(0.015625)"/>
       </defs>
       <use xlink:href="#Helvetica-31"/>
       <use x="55.615234" xlink:href="#Helvetica-30"/>
      </g>
     </g>
    </g>
    <g id="text_3">
     <!-- Position -->
     <g style="fill:#262626;" transform="translate(172.20125 189.089219)scale(0.25 -0.25)">
      <defs>
       <path d="M 547 4591 
L 2613 4591 
Q 3225 4591 3600 4245 
Q 3975 3900 3975 3275 
Q 3975 2738 3640 2339 
Q 3306 1941 2613 1941 
L 1169 1941 
L 1169 0 
L 547 0 
L 547 4591 
z
M 3347 3272 
Q 3347 3778 2972 3959 
Q 2766 4056 2406 4056 
L 1169 4056 
L 1169 2466 
L 2406 2466 
Q 2825 2466 3086 2644 
Q 3347 2822 3347 3272 
z
" id="Helvetica-50" transform="scale(0.015625)"/>
       <path d="M 1741 363 
Q 2300 363 2508 786 
Q 2716 1209 2716 1728 
Q 2716 2197 2566 2491 
Q 2328 2953 1747 2953 
Q 1231 2953 997 2559 
Q 763 2166 763 1609 
Q 763 1075 997 719 
Q 1231 363 1741 363 
z
M 1763 3444 
Q 2409 3444 2856 3012 
Q 3303 2581 3303 1744 
Q 3303 934 2909 406 
Q 2516 -122 1688 -122 
Q 997 -122 590 345 
Q 184 813 184 1600 
Q 184 2444 612 2944 
Q 1041 3444 1763 3444 
z
M 1744 3428 
L 1744 3428 
z
" id="Helvetica-6f" transform="scale(0.015625)"/>
       <path d="M 747 1050 
Q 772 769 888 619 
Q 1100 347 1625 347 
Q 1938 347 2175 483 
Q 2413 619 2413 903 
Q 2413 1119 2222 1231 
Q 2100 1300 1741 1391 
L 1294 1503 
Q 866 1609 663 1741 
Q 300 1969 300 2372 
Q 300 2847 642 3140 
Q 984 3434 1563 3434 
Q 2319 3434 2653 2991 
Q 2863 2709 2856 2384 
L 2325 2384 
Q 2309 2575 2191 2731 
Q 1997 2953 1519 2953 
Q 1200 2953 1036 2831 
Q 872 2709 872 2509 
Q 872 2291 1088 2159 
Q 1213 2081 1456 2022 
L 1828 1931 
Q 2434 1784 2641 1647 
Q 2969 1431 2969 969 
Q 2969 522 2630 197 
Q 2291 -128 1597 -128 
Q 850 -128 539 211 
Q 228 550 206 1050 
L 747 1050 
z
M 1578 3428 
L 1578 3428 
z
" id="Helvetica-73" transform="scale(0.015625)"/>
       <path d="M 413 3331 
L 984 3331 
L 984 0 
L 413 0 
L 413 3331 
z
M 413 4591 
L 984 4591 
L 984 3953 
L 413 3953 
L 413 4591 
z
" id="Helvetica-69" transform="scale(0.015625)"/>
       <path d="M 525 4281 
L 1094 4281 
L 1094 3347 
L 1628 3347 
L 1628 2888 
L 1094 2888 
L 1094 703 
Q 1094 528 1213 469 
Q 1278 434 1431 434 
Q 1472 434 1519 436 
Q 1566 438 1628 444 
L 1628 0 
Q 1531 -28 1426 -40 
Q 1322 -53 1200 -53 
Q 806 -53 665 148 
Q 525 350 525 672 
L 525 2888 
L 72 2888 
L 72 3347 
L 525 3347 
L 525 4281 
z
" id="Helvetica-74" transform="scale(0.015625)"/>
       <path d="M 413 3347 
L 947 3347 
L 947 2872 
Q 1184 3166 1450 3294 
Q 1716 3422 2041 3422 
Q 2753 3422 3003 2925 
Q 3141 2653 3141 2147 
L 3141 0 
L 2569 0 
L 2569 2109 
Q 2569 2416 2478 2603 
Q 2328 2916 1934 2916 
Q 1734 2916 1606 2875 
Q 1375 2806 1200 2600 
Q 1059 2434 1017 2257 
Q 975 2081 975 1753 
L 975 0 
L 413 0 
L 413 3347 
z
M 1734 3428 
L 1734 3428 
z
" id="Helvetica-6e" transform="scale(0.015625)"/>
      </defs>
      <use xlink:href="#Helvetica-50"/>
      <use x="66.699219" xlink:href="#Helvetica-6f"/>
      <use x="122.314453" xlink:href="#Helvetica-73"/>
      <use x="172.314453" xlink:href="#Helvetica-69"/>
      <use x="194.53125" xlink:href="#Helvetica-74"/>
      <use x="222.314453" xlink:href="#Helvetica-69"/>
      <use x="244.53125" xlink:href="#Helvetica-6f"/>
      <use x="300.146484" xlink:href="#Helvetica-6e"/>
     </g>
    </g>
   </g>
   <g id="matplotlib.axis_2">
    <g id="ytick_1">
     <g id="line2d_4">
      <path clip-path="url(#p92a4cddc89)" d="M 94.94 141.64 
L 338.4 141.64 
" style="fill:none;stroke:#cccccc;stroke-linecap:round;stroke-width:0.8;"/>
     </g>
     <g id="text_4">
      <!-- 0 -->
      <g style="fill:#262626;" transform="translate(76.818125 148.813438)scale(0.2 -0.2)">
       <use xlink:href="#Helvetica-30"/>
      </g>
     </g>
    </g>
    <g id="ytick_2">
     <g id="line2d_5">
      <path clip-path="url(#p92a4cddc89)" d="M 94.94 113.43 
L 338.4 113.43 
" style="fill:none;stroke:#cccccc;stroke-linecap:round;stroke-width:0.8;"/>
     </g>
     <g id="text_5">
      <!-- 0.25 -->
      <g style="fill:#262626;" transform="translate(49.018125 120.603437)scale(0.2 -0.2)">
       <defs>
        <path d="M 547 681 
L 1200 681 
L 1200 0 
L 547 0 
L 547 681 
z
" id="Helvetica-2e" transform="scale(0.015625)"/>
        <path d="M 200 0 
Q 231 578 439 1006 
Q 647 1434 1250 1784 
L 1850 2131 
Q 2253 2366 2416 2531 
Q 2672 2791 2672 3125 
Q 2672 3516 2437 3745 
Q 2203 3975 1813 3975 
Q 1234 3975 1013 3538 
Q 894 3303 881 2888 
L 309 2888 
Q 319 3472 525 3841 
Q 891 4491 1816 4491 
Q 2584 4491 2939 4075 
Q 3294 3659 3294 3150 
Q 3294 2613 2916 2231 
Q 2697 2009 2131 1694 
L 1703 1456 
Q 1397 1288 1222 1134 
Q 909 863 828 531 
L 3272 531 
L 3272 0 
L 200 0 
z
" id="Helvetica-32" transform="scale(0.015625)"/>
        <path d="M 791 1141 
Q 847 659 1238 475 
Q 1438 381 1700 381 
Q 2200 381 2440 700 
Q 2681 1019 2681 1406 
Q 2681 1875 2395 2131 
Q 2109 2388 1709 2388 
Q 1419 2388 1211 2275 
Q 1003 2163 856 1963 
L 369 1991 
L 709 4400 
L 3034 4400 
L 3034 3856 
L 1131 3856 
L 941 2613 
Q 1097 2731 1238 2791 
Q 1488 2894 1816 2894 
Q 2431 2894 2859 2497 
Q 3288 2100 3288 1491 
Q 3288 856 2895 371 
Q 2503 -113 1644 -113 
Q 1097 -113 676 195 
Q 256 503 206 1141 
L 791 1141 
z
" id="Helvetica-35" transform="scale(0.015625)"/>
       </defs>
       <use xlink:href="#Helvetica-30"/>
       <use x="55.615234" xlink:href="#Helvetica-2e"/>
       <use x="83.398438" xlink:href="#Helvetica-32"/>
       <use x="139.013672" xlink:href="#Helvetica-35"/>
      </g>
     </g>
    </g>
    <g id="ytick_3">
     <g id="line2d_6">
      <path clip-path="url(#p92a4cddc89)" d="M 94.94 85.22 
L 338.4 85.22 
" style="fill:none;stroke:#cccccc;stroke-linecap:round;stroke-width:0.8;"/>
     </g>
     <g id="text_6">
      <!-- 0.50 -->
      <g style="fill:#262626;" transform="translate(49.018125 92.393438)scale(0.2 -0.2)">
       <use xlink:href="#Helvetica-30"/>
       <use x="55.615234" xlink:href="#Helvetica-2e"/>
       <use x="83.398438" xlink:href="#Helvetica-35"/>
       <use x="139.013672" xlink:href="#Helvetica-30"/>
      </g>
     </g>
    </g>
    <g id="ytick_4">
     <g id="line2d_7">
      <path clip-path="url(#p92a4cddc89)" d="M 94.94 57.01 
L 338.4 57.01 
" style="fill:none;stroke:#cccccc;stroke-linecap:round;stroke-width:0.8;"/>
     </g>
     <g id="text_7">
      <!-- 0.75 -->
      <g style="fill:#262626;" transform="translate(49.018125 64.183437)scale(0.2 -0.2)">
       <defs>
        <path d="M 3347 4400 
L 3347 3909 
Q 3131 3700 2773 3181 
Q 2416 2663 2141 2063 
Q 1869 1478 1728 997 
Q 1638 688 1494 0 
L 872 0 
Q 1084 1281 1809 2550 
Q 2238 3294 2709 3834 
L 234 3834 
L 234 4400 
L 3347 4400 
z
" id="Helvetica-37" transform="scale(0.015625)"/>
       </defs>
       <use xlink:href="#Helvetica-30"/>
       <use x="55.615234" xlink:href="#Helvetica-2e"/>
       <use x="83.398438" xlink:href="#Helvetica-37"/>
       <use x="139.013672" xlink:href="#Helvetica-35"/>
      </g>
     </g>
    </g>
    <g id="ytick_5">
     <g id="line2d_8">
      <path clip-path="url(#p92a4cddc89)" d="M 94.94 28.8 
L 338.4 28.8 
" style="fill:none;stroke:#cccccc;stroke-linecap:round;stroke-width:0.8;"/>
     </g>
     <g id="text_8">
      <!-- 1.0 -->
      <g style="fill:#262626;" transform="translate(60.14 35.973437)scale(0.2 -0.2)">
       <use xlink:href="#Helvetica-31"/>
       <use x="55.615234" xlink:href="#Helvetica-2e"/>
       <use x="83.398438" xlink:href="#Helvetica-30"/>
      </g>
     </g>
    </g>
    <g id="text_9">
     <!-- Probability -->
     <g style="fill:#262626;" transform="translate(39.65875 143.579375)rotate(-90)scale(0.25 -0.25)">
      <defs>
       <path d="M 428 3347 
L 963 3347 
L 963 2769 
Q 1028 2938 1284 3180 
Q 1541 3422 1875 3422 
Q 1891 3422 1928 3419 
Q 1966 3416 2056 3406 
L 2056 2813 
Q 2006 2822 1964 2825 
Q 1922 2828 1872 2828 
Q 1447 2828 1219 2554 
Q 991 2281 991 1925 
L 991 0 
L 428 0 
L 428 3347 
z
" id="Helvetica-72" transform="scale(0.015625)"/>
       <path d="M 369 4606 
L 916 4606 
L 916 2941 
Q 1100 3181 1356 3307 
Q 1613 3434 1913 3434 
Q 2538 3434 2927 3004 
Q 3316 2575 3316 1738 
Q 3316 944 2931 419 
Q 2547 -106 1866 -106 
Q 1484 -106 1222 78 
Q 1066 188 888 428 
L 888 0 
L 369 0 
L 369 4606 
z
M 1831 391 
Q 2288 391 2514 753 
Q 2741 1116 2741 1709 
Q 2741 2238 2514 2584 
Q 2288 2931 1847 2931 
Q 1463 2931 1173 2647 
Q 884 2363 884 1709 
Q 884 1238 1003 944 
Q 1225 391 1831 391 
z
" id="Helvetica-62" transform="scale(0.015625)"/>
       <path d="M 844 891 
Q 844 647 1022 506 
Q 1200 366 1444 366 
Q 1741 366 2019 503 
Q 2488 731 2488 1250 
L 2488 1703 
Q 2384 1638 2221 1594 
Q 2059 1550 1903 1531 
L 1563 1488 
Q 1256 1447 1103 1359 
Q 844 1213 844 891 
z
M 2206 2028 
Q 2400 2053 2466 2191 
Q 2503 2266 2503 2406 
Q 2503 2694 2298 2823 
Q 2094 2953 1713 2953 
Q 1272 2953 1088 2716 
Q 984 2584 953 2325 
L 428 2325 
Q 444 2944 830 3186 
Q 1216 3428 1725 3428 
Q 2316 3428 2684 3203 
Q 3050 2978 3050 2503 
L 3050 575 
Q 3050 488 3086 434 
Q 3122 381 3238 381 
Q 3275 381 3322 386 
Q 3369 391 3422 400 
L 3422 -16 
Q 3291 -53 3222 -62 
Q 3153 -72 3034 -72 
Q 2744 -72 2613 134 
Q 2544 244 2516 444 
Q 2344 219 2022 53 
Q 1700 -113 1313 -113 
Q 847 -113 551 170 
Q 256 453 256 878 
Q 256 1344 547 1600 
Q 838 1856 1309 1916 
L 2206 2028 
z
M 1741 3428 
L 1741 3428 
z
" id="Helvetica-61" transform="scale(0.015625)"/>
       <path d="M 428 4591 
L 991 4591 
L 991 0 
L 428 0 
L 428 4591 
z
" id="Helvetica-6c" transform="scale(0.015625)"/>
       <path d="M 2503 3347 
L 3125 3347 
Q 3006 3025 2597 1878 
Q 2291 1016 2084 472 
Q 1597 -809 1397 -1090 
Q 1197 -1372 709 -1372 
Q 591 -1372 527 -1362 
Q 463 -1353 369 -1328 
L 369 -816 
Q 516 -856 581 -865 
Q 647 -875 697 -875 
Q 853 -875 926 -823 
Q 1000 -772 1050 -697 
Q 1066 -672 1162 -440 
Q 1259 -209 1303 -97 
L 66 3347 
L 703 3347 
L 1600 622 
L 2503 3347 
z
M 1597 3428 
L 1597 3428 
z
" id="Helvetica-79" transform="scale(0.015625)"/>
      </defs>
      <use xlink:href="#Helvetica-50"/>
      <use x="66.699219" xlink:href="#Helvetica-72"/>
      <use x="100" xlink:href="#Helvetica-6f"/>
      <use x="155.615234" xlink:href="#Helvetica-62"/>
      <use x="211.230469" xlink:href="#Helvetica-61"/>
      <use x="266.845703" xlink:href="#Helvetica-62"/>
      <use x="322.460938" xlink:href="#Helvetica-69"/>
      <use x="344.677734" xlink:href="#Helvetica-6c"/>
      <use x="366.894531" xlink:href="#Helvetica-69"/>
      <use x="389.111328" xlink:href="#Helvetica-74"/>
      <use x="416.894531" xlink:href="#Helvetica-79"/>
     </g>
    </g>
   </g>
   <g id="patch_83">
    <path d="M 94.94 141.64 
L 94.94 28.8 
" style="fill:none;stroke:#000000;stroke-linecap:square;stroke-linejoin:miter;"/>
   </g>
  </g>
 </g>
 <defs>
  <clipPath id="p92a4cddc89">
   <rect height="112.84" width="243.46" x="94.94" y="28.8"/>
  </clipPath>
 </defs>
</svg>
