<?xml version="1.0" encoding="utf-8" standalone="no"?>
<!DOCTYPE svg PUBLIC "-//W3C//DTD SVG 1.1//EN"
  "http://www.w3.org/Graphics/SVG/1.1/DTD/svg11.dtd">
<svg height="216pt" version="1.1" viewBox="0 0 360 216" width="360pt" xmlns="http://www.w3.org/2000/svg" xmlns:xlink="http://www.w3.org/1999/xlink">
 <metadata>
  <rdf:RDF xmlns:cc="http://creativecommons.org/ns#" xmlns:dc="http://purl.org/dc/elements/1.1/" xmlns:rdf="http://www.w3.org/1999/02/22-rdf-syntax-ns#">
   <cc:Work>
    <dc:type rdf:resource="http://purl.org/dc/dcmitype/StillImage"/>
    <dc:date>2022-12-19T19:51:16.566300</dc:date>
    <dc:format>image/svg+xml</dc:format>
    <dc:creator>
     <cc:Agent>
      <dc:title>Matplotlib v3.4.2, https://matplotlib.org/</dc:title>
     </cc:Agent>
    </dc:creator>
   </cc:Work>
  </rdf:RDF>
 </metadata>
 <defs>
  <style type="text/css">*{stroke-linecap:butt;stroke-linejoin:round;}</style>
 </defs>
 <g id="figure_1">
  <g id="patch_1">
   <path d="M 0 216 
L 360 216 
L 360 0 
L 0 0 
z
" style="fill:#ffffff;"/>
  </g>
  <g id="axes_1">
   <g id="patch_2">
    <path d="M 94.94 141.64 
L 338.4 141.64 
L 338.4 28.8 
L 94.94 28.8 
z
" style="fill:#ffffff;"/>
   </g>
   <g id="line2d_1">
    <path clip-path="url(#p16cbaf0d40)" d="M 94.94 141.64 
L 338.4 141.64 
" style="fill:none;stroke:#000000;stroke-linecap:round;stroke-width:0.5;"/>
   </g>
   <g id="patch_3">
    <path clip-path="url(#p16cbaf0d40)" d="M 102.72171 131.975132 
L 100.7494 121.554955 
L 98.652583 131.975132 
L 102.72171 131.975132 
z
M 99.829744 118.050733 
L 101.819032 118.050733 
L 106.533333 141.64 
L 104.603469 141.64 
L 103.287653 134.575038 
L 98.148894 134.575038 
L 96.742527 141.64 
L 94.94 141.64 
L 99.829744 118.050733 
z
M 100.740911 118.050733 
L 100.740911 118.050733 
z
" style="fill:#008000;"/>
   </g>
   <g id="patch_4">
    <path clip-path="url(#p16cbaf0d40)" d="M 100.919108 89.534901 
Q 102.707589 89.534901 104.012322 91.01057 
Q 105.903081 93.129631 106.326013 98.44204 
L 104.62599 98.44204 
Q 104.313627 95.472994 103.337841 94.115378 
Q 102.362055 92.757763 100.87488 92.757763 
Q 99.114042 92.757763 97.908822 95.585145 
Q 96.703602 98.406624 96.703602 103.996459 
Q 96.703602 108.824849 97.695974 111.858825 
Q 98.69111 114.892801 100.935694 114.892801 
Q 102.655068 114.892801 103.782888 112.767837 
Q 104.910709 110.636971 104.935587 105.873511 
L 100.963337 105.873511 
L 100.963337 102.833632 
L 106.533333 102.833632 
L 106.533333 117.330607 
L 105.427627 117.330607 
L 105.012987 113.842125 
Q 104.142243 115.890354 103.467762 116.687215 
Q 102.334413 118.050733 100.590161 118.050733 
Q 98.337283 118.050733 96.711895 114.93412 
Q 94.94 111.020645 94.94 104.19715 
Q 94.94 97.391364 96.667667 93.371641 
Q 98.309641 89.534901 100.919108 89.534901 
z
M 100.634389 89.493582 
L 100.634389 89.493582 
z
" style="fill:#ffa600;"/>
   </g>
   <g id="patch_5">
    <path clip-path="url(#p16cbaf0d40)" d="M 101.035611 59.678715 
Q 103.518269 59.678715 104.887718 62.51529 
Q 106.257166 65.345698 106.408062 68.946915 
L 104.682728 68.946915 
Q 104.389478 66.21517 103.512575 64.618055 
Q 102.635673 63.014774 101.052693 63.014774 
Q 99.122369 63.014774 97.935134 65.956179 
Q 96.747899 68.891417 96.747899 74.95922 
Q 96.747899 79.935559 97.818404 83.031125 
Q 98.891755 86.120525 101.018528 86.120525 
Q 102.974476 86.120525 103.999427 82.86463 
Q 104.540373 81.150353 104.807999 78.350777 
L 106.533333 78.350777 
Q 106.302719 82.821465 105.004448 85.8492 
Q 103.447092 89.493582 100.804997 89.493582 
Q 98.527328 89.493582 96.978513 86.502846 
Q 94.94 82.556307 94.94 74.305575 
Q 94.94 68.046611 96.471732 64.038407 
Q 98.125889 59.678715 101.035611 59.678715 
z
M 100.679725 59.678715 
L 100.679725 59.678715 
z
" style="fill:#0000ff;"/>
   </g>
   <g id="patch_6">
    <path clip-path="url(#p16cbaf0d40)" d="M 106.533333 28.8 
L 106.533333 32.47908 
L 101.718599 32.47908 
L 101.718599 59.678715 
L 99.754735 59.678715 
L 99.754735 32.47908 
L 94.94 32.47908 
L 94.94 28.8 
L 106.533333 28.8 
z
" style="fill:#ff0000;"/>
   </g>
   <g id="patch_7">
    <path clip-path="url(#p16cbaf0d40)" d="M 113.122617 114.713184 
Q 114.911097 114.713184 116.215831 116.106623 
Q 118.106589 118.107601 118.529522 123.123982 
L 116.829498 123.123982 
Q 116.517136 120.320383 115.54135 119.038419 
Q 114.565564 117.756455 113.078389 117.756455 
Q 111.317551 117.756455 110.112331 120.426284 
Q 108.907111 123.090539 108.907111 128.368887 
Q 108.907111 132.928219 109.899482 135.79313 
Q 110.894618 138.65804 113.139203 138.65804 
Q 114.858576 138.65804 115.986397 136.651488 
Q 117.114218 134.639362 117.139096 130.141341 
L 113.166845 130.141341 
L 113.166845 127.270857 
L 118.736842 127.270857 
L 118.736842 140.960002 
L 117.631136 140.960002 
L 117.216496 137.665912 
Q 116.345752 139.600005 115.671271 140.352462 
Q 114.537921 141.64 112.793669 141.64 
Q 110.540792 141.64 108.915404 138.697057 
Q 107.143509 135.001656 107.143509 128.558394 
Q 107.143509 122.131853 108.871175 118.336125 
Q 110.51315 114.713184 113.122617 114.713184 
z
M 112.837898 114.674168 
L 112.837898 114.674168 
z
" style="fill:#ffa600;"/>
   </g>
   <g id="patch_8">
    <path clip-path="url(#p16cbaf0d40)" d="M 114.925219 103.333905 
L 112.952909 91.107402 
L 110.856092 103.333905 
L 114.925219 103.333905 
z
M 112.033252 86.995728 
L 114.022541 86.995728 
L 118.736842 114.674168 
L 116.806978 114.674168 
L 115.491162 106.384502 
L 110.352403 106.384502 
L 108.946036 114.674168 
L 107.143509 114.674168 
L 112.033252 86.995728 
z
M 112.94442 86.995728 
L 112.94442 86.995728 
z
" style="fill:#008000;"/>
   </g>
   <g id="patch_9">
    <path clip-path="url(#p16cbaf0d40)" d="M 118.736842 58.389739 
L 118.736842 61.798033 
L 113.922107 61.798033 
L 113.922107 86.995728 
L 111.958243 86.995728 
L 111.958243 61.798033 
L 107.143509 61.798033 
L 107.143509 58.389739 
L 118.736842 58.389739 
z
" style="fill:#ff0000;"/>
   </g>
   <g id="patch_10">
    <path clip-path="url(#p16cbaf0d40)" d="M 113.239119 28.8 
Q 115.721778 28.8 117.091227 31.615156 
Q 118.460675 34.424192 118.61157 37.998217 
L 116.886236 37.998217 
Q 116.592987 35.287099 115.716084 33.702044 
Q 114.839182 32.110868 113.256202 32.110868 
Q 111.325878 32.110868 110.138643 35.030063 
Q 108.951408 37.943138 108.951408 43.965124 
Q 108.951408 48.903887 110.021913 51.976079 
Q 111.095264 55.042151 113.222037 55.042151 
Q 115.177985 55.042151 116.202936 51.810842 
Q 116.743882 50.109508 117.011508 47.331071 
L 118.736842 47.331071 
Q 118.506228 51.768002 117.207957 54.772875 
Q 115.650601 58.389739 113.008505 58.389739 
Q 110.730837 58.389739 109.182022 55.421585 
Q 107.143509 51.504846 107.143509 43.316414 
Q 107.143509 37.104711 108.675241 33.126773 
Q 110.329398 28.8 113.239119 28.8 
z
M 112.883234 28.8 
L 112.883234 28.8 
z
" style="fill:#0000ff;"/>
   </g>
   <g id="patch_11">
    <path clip-path="url(#p16cbaf0d40)" d="M 125.326126 114.324485 
Q 127.114606 114.324485 128.41934 115.738039 
Q 130.310098 117.767902 130.733031 122.856696 
L 129.033007 122.856696 
Q 128.720645 120.012625 127.744859 118.712156 
Q 126.769073 117.411686 125.281898 117.411686 
Q 123.52106 117.411686 122.31584 120.120056 
Q 121.11062 122.822771 121.11062 128.177313 
Q 121.11062 132.802461 122.102991 135.708728 
Q 123.098127 138.614995 125.342711 138.614995 
Q 127.062085 138.614995 128.189906 136.579477 
Q 129.317726 134.538305 129.342605 129.975353 
L 125.370354 129.975353 
L 125.370354 127.063432 
L 130.940351 127.063432 
L 130.940351 140.950186 
L 129.834644 140.950186 
L 129.420004 137.608544 
Q 128.54926 139.570557 127.874779 140.333876 
Q 126.74143 141.64 124.997178 141.64 
Q 122.744301 141.64 121.118912 138.654574 
Q 119.347018 134.905829 119.347018 128.369556 
Q 119.347018 121.850246 121.074684 117.999725 
Q 122.716658 114.324485 125.326126 114.324485 
z
M 125.041406 114.284905 
L 125.041406 114.284905 
z
" style="fill:#ffa600;"/>
   </g>
   <g id="patch_12">
    <path clip-path="url(#p16cbaf0d40)" d="M 125.442628 85.921776 
Q 127.925287 85.921776 129.294735 88.620233 
Q 130.664184 91.312823 130.815079 94.738691 
L 129.089745 94.738691 
Q 128.796495 92.139959 127.919593 90.620611 
Q 127.04269 89.095396 125.459711 89.095396 
Q 123.529387 89.095396 122.342152 91.893578 
Q 121.154917 94.685895 121.154917 100.458246 
Q 121.154917 105.192278 122.225421 108.137116 
Q 123.298773 111.076088 125.425546 111.076088 
Q 127.381494 111.076088 128.406445 107.978728 
Q 128.947391 106.347922 129.215017 103.684662 
L 130.940351 103.684662 
Q 130.709737 107.937665 129.411466 110.817975 
Q 127.85411 114.284905 125.212014 114.284905 
Q 122.934346 114.284905 121.385531 111.439793 
Q 119.347018 107.685418 119.347018 99.836428 
Q 119.347018 93.882224 120.87875 90.069187 
Q 122.532907 85.921776 125.442628 85.921776 
z
M 125.086742 85.921776 
L 125.086742 85.921776 
z
" style="fill:#0000ff;"/>
   </g>
   <g id="patch_13">
    <path clip-path="url(#p16cbaf0d40)" d="M 130.940351 57.398414 
L 130.940351 60.796863 
L 126.125616 60.796863 
L 126.125616 85.921776 
L 124.161752 85.921776 
L 124.161752 60.796863 
L 119.347018 60.796863 
L 119.347018 57.398414 
L 130.940351 57.398414 
z
" style="fill:#ff0000;"/>
   </g>
   <g id="patch_14">
    <path clip-path="url(#p16cbaf0d40)" d="M 127.128728 45.681225 
L 125.156418 33.048338 
L 123.059601 45.681225 
L 127.128728 45.681225 
z
M 124.236761 28.8 
L 126.226049 28.8 
L 130.940351 57.398414 
L 129.010487 57.398414 
L 127.69467 48.833217 
L 122.555912 48.833217 
L 121.149545 57.398414 
L 119.347018 57.398414 
L 124.236761 28.8 
z
M 125.147929 28.8 
L 125.147929 28.8 
z
" style="fill:#008000;"/>
   </g>
   <g id="patch_15">
    <path clip-path="url(#p16cbaf0d40)" d="M 143.14386 114.572072 
L 143.14386 117.797112 
L 138.329125 117.797112 
L 138.329125 141.64 
L 136.365261 141.64 
L 136.365261 117.797112 
L 131.550526 117.797112 
L 131.550526 114.572072 
L 143.14386 114.572072 
z
" style="fill:#ff0000;"/>
   </g>
   <g id="patch_16">
    <path clip-path="url(#p16cbaf0d40)" d="M 139.332237 103.248297 
L 137.359927 91.039569 
L 135.26311 103.248297 
L 139.332237 103.248297 
z
M 136.44027 86.933873 
L 138.429558 86.933873 
L 143.14386 114.572072 
L 141.213996 114.572072 
L 139.898179 106.294459 
L 134.759421 106.294459 
L 133.353053 114.572072 
L 131.550526 114.572072 
L 136.44027 86.933873 
z
M 137.351438 86.933873 
L 137.351438 86.933873 
z
" style="fill:#008000;"/>
   </g>
   <g id="patch_17">
    <path clip-path="url(#p16cbaf0d40)" d="M 137.646137 58.144285 
Q 140.128796 58.144285 141.498244 60.883315 
Q 142.867692 63.616391 143.018588 67.093768 
L 141.293254 67.093768 
Q 141.000004 64.455963 140.123102 62.91377 
Q 139.246199 61.365623 137.66322 61.365623 
Q 135.732895 61.365623 134.545661 64.205878 
Q 133.358426 67.040178 133.358426 72.899321 
Q 133.358426 77.704532 134.42893 80.693648 
Q 135.502281 83.676809 137.629054 83.676809 
Q 139.585002 83.676809 140.609953 80.532879 
Q 141.1509 78.877552 141.418526 76.174248 
L 143.14386 76.174248 
Q 142.913246 80.491198 141.614975 83.414815 
Q 140.057619 86.933873 137.415523 86.933873 
Q 135.137854 86.933873 133.58904 84.045982 
Q 131.550526 80.235158 131.550526 72.268153 
Q 131.550526 66.224424 133.082258 62.354055 
Q 134.736415 58.144285 137.646137 58.144285 
z
M 137.290251 58.144285 
L 137.290251 58.144285 
z
" style="fill:#0000ff;"/>
   </g>
   <g id="patch_18">
    <path clip-path="url(#p16cbaf0d40)" d="M 137.529635 28.842458 
Q 139.318115 28.842458 140.622849 30.358801 
Q 142.513607 32.536271 142.93654 37.995109 
L 141.236516 37.995109 
Q 140.924154 34.944225 139.948368 33.549189 
Q 138.972582 32.154152 137.485406 32.154152 
Q 135.724569 32.154152 134.519348 35.059467 
Q 133.314128 37.958717 133.314128 43.702627 
Q 133.314128 48.664104 134.3065 51.781707 
Q 135.301636 54.899309 137.54622 54.899309 
Q 139.265594 54.899309 140.393415 52.715774 
Q 141.521235 50.526174 141.546114 45.631416 
L 137.573863 45.631416 
L 137.573863 42.507748 
L 143.14386 42.507748 
L 143.14386 57.404309 
L 142.038153 57.404309 
L 141.623513 53.819673 
Q 140.752769 55.924358 140.078288 56.743184 
Q 138.944939 58.144285 137.200687 58.144285 
Q 134.94781 58.144285 133.322421 54.941767 
Q 131.550526 50.920423 131.550526 43.90885 
Q 131.550526 36.915472 133.278193 32.784952 
Q 134.920167 28.842458 137.529635 28.842458 
z
M 137.244915 28.8 
L 137.244915 28.8 
z
" style="fill:#ffa600;"/>
   </g>
   <g id="patch_19">
    <path clip-path="url(#p16cbaf0d40)" d="M 149.733143 115.70477 
Q 151.521624 115.70477 152.826357 117.046896 
Q 154.717116 118.974188 155.140048 123.805839 
L 153.440025 123.805839 
Q 153.127662 121.105483 152.151876 119.870727 
Q 151.17609 118.635972 149.688915 118.635972 
Q 147.928077 118.635972 146.722857 121.207484 
Q 145.517637 123.773628 145.517637 128.857599 
Q 145.517637 133.249033 146.510009 136.008442 
Q 147.505145 138.767852 149.749729 138.767852 
Q 151.469103 138.767852 152.596923 136.835191 
Q 153.724744 134.897162 153.749622 130.564782 
L 149.777372 130.564782 
L 149.777372 127.800004 
L 155.347368 127.800004 
L 155.347368 140.985043 
L 154.241662 140.985043 
L 153.827022 137.812259 
Q 152.956278 139.675129 152.281797 140.399876 
Q 151.148448 141.64 149.404196 141.64 
Q 147.151319 141.64 145.52593 138.805431 
Q 143.754035 135.246115 143.754035 129.040128 
Q 143.754035 122.850246 145.481702 119.194296 
Q 147.123676 115.70477 149.733143 115.70477 
z
M 149.448424 115.667191 
L 149.448424 115.667191 
z
" style="fill:#ffa600;"/>
   </g>
   <g id="patch_20">
    <path clip-path="url(#p16cbaf0d40)" d="M 155.347368 86.920788 
L 155.347368 90.345811 
L 150.532634 90.345811 
L 150.532634 115.667191 
L 148.56877 115.667191 
L 148.56877 90.345811 
L 143.754035 90.345811 
L 143.754035 86.920788 
L 155.347368 86.920788 
z
" style="fill:#ff0000;"/>
   </g>
   <g id="patch_21">
    <path clip-path="url(#p16cbaf0d40)" d="M 151.535745 75.129725 
L 149.563435 62.417191 
L 147.466618 75.129725 
L 151.535745 75.129725 
z
M 148.643779 58.142069 
L 150.633067 58.142069 
L 155.347368 86.920788 
L 153.417504 86.920788 
L 152.101688 78.30159 
L 146.962929 78.30159 
L 145.556562 86.920788 
L 143.754035 86.920788 
L 148.643779 58.142069 
z
M 149.554946 58.142069 
L 149.554946 58.142069 
z
" style="fill:#008000;"/>
   </g>
   <g id="patch_22">
    <path clip-path="url(#p16cbaf0d40)" d="M 149.849646 28.8 
Q 152.332305 28.8 153.701753 31.591593 
Q 155.071201 34.377117 155.222097 37.921226 
L 153.496763 37.921226 
Q 153.203513 35.232801 152.32661 33.661013 
Q 151.449708 32.083156 149.866728 32.083156 
Q 147.936404 32.083156 146.749169 34.977916 
Q 145.561935 37.866608 145.561935 43.838189 
Q 145.561935 48.735614 146.632439 51.782092 
Q 147.70579 54.8225 149.832563 54.8225 
Q 151.788511 54.8225 152.813462 51.618237 
Q 153.354408 49.931144 153.622034 47.175963 
L 155.347368 47.175963 
Q 155.116754 51.575757 153.818483 54.555479 
Q 152.261127 58.142069 149.619032 58.142069 
Q 147.341363 58.142069 145.792549 55.198759 
Q 143.754035 51.314803 143.754035 43.194909 
Q 143.754035 37.035199 145.285767 33.090557 
Q 146.939924 28.8 149.849646 28.8 
z
M 149.49376 28.8 
L 149.49376 28.8 
z
" style="fill:#0000ff;"/>
   </g>
   <g id="patch_23">
    <path clip-path="url(#p16cbaf0d40)" d="M 163.739254 130.503309 
L 161.766944 118.496286 
L 159.670127 130.503309 
L 163.739254 130.503309 
z
M 160.847288 114.458421 
L 162.836576 114.458421 
L 167.550877 141.64 
L 165.621013 141.64 
L 164.305197 133.499144 
L 159.166438 133.499144 
L 157.760071 141.64 
L 155.957544 141.64 
L 160.847288 114.458421 
z
M 161.758455 114.458421 
L 161.758455 114.458421 
z
" style="fill:#008000;"/>
   </g>
   <g id="patch_24">
    <path clip-path="url(#p16cbaf0d40)" d="M 161.936652 86.94047 
Q 163.725132 86.94047 165.029866 88.3645 
Q 166.920624 90.409407 167.343557 95.535914 
L 165.643533 95.535914 
Q 165.331171 92.670766 164.355385 91.360659 
Q 163.379599 90.050551 161.892424 90.050551 
Q 160.131586 90.050551 158.926366 92.778992 
Q 157.721146 95.501737 157.721146 100.895962 
Q 157.721146 105.555387 158.713517 108.483193 
Q 159.708653 111.410998 161.953238 111.410998 
Q 163.672611 111.410998 164.800432 109.360395 
Q 165.928253 107.304096 165.953131 102.707328 
L 161.98088 102.707328 
L 161.98088 99.773826 
L 167.550877 99.773826 
L 167.550877 113.763495 
L 166.445171 113.763495 
L 166.030531 110.397089 
Q 165.159787 112.373642 164.485306 113.142618 
Q 163.351957 114.458421 161.607704 114.458421 
Q 159.354827 114.458421 157.729439 111.450871 
Q 155.957544 107.674344 155.957544 101.08963 
Q 155.957544 94.522005 157.68521 90.642948 
Q 159.327185 86.94047 161.936652 86.94047 
z
M 161.651933 86.900597 
L 161.651933 86.900597 
z
" style="fill:#ffa600;"/>
   </g>
   <g id="patch_25">
    <path clip-path="url(#p16cbaf0d40)" d="M 162.053155 59.156483 
Q 164.535813 59.156483 165.905262 61.796047 
Q 167.27471 64.429873 167.425605 67.780972 
L 165.700271 67.780972 
Q 165.407022 65.238957 164.530119 63.752767 
Q 163.653217 62.26084 162.070237 62.26084 
Q 160.139913 62.26084 158.952678 64.997953 
Q 157.765443 67.729328 157.765443 73.3757 
Q 157.765443 78.006414 158.835948 80.886982 
Q 159.909299 83.761811 162.036072 83.761811 
Q 163.99202 83.761811 165.016971 80.732051 
Q 165.557917 79.136836 165.825543 76.531701 
L 167.550877 76.531701 
Q 167.320263 80.691883 166.021992 83.509331 
Q 164.464636 86.900597 161.822541 86.900597 
Q 159.544872 86.900597 157.996057 84.117579 
Q 155.957544 80.445142 155.957544 72.767453 
Q 155.957544 66.943197 157.489276 63.213378 
Q 159.143433 59.156483 162.053155 59.156483 
z
M 161.697269 59.156483 
L 161.697269 59.156483 
z
" style="fill:#0000ff;"/>
   </g>
   <g id="patch_26">
    <path clip-path="url(#p16cbaf0d40)" d="M 167.550877 28.8 
L 167.550877 32.416858 
L 162.736143 32.416858 
L 162.736143 59.156483 
L 160.772279 59.156483 
L 160.772279 32.416858 
L 155.957544 32.416858 
L 155.957544 28.8 
L 167.550877 28.8 
z
" style="fill:#ff0000;"/>
   </g>
   <g id="patch_27">
    <path clip-path="url(#p16cbaf0d40)" d="M 174.140161 117.247283 
Q 175.928641 117.247283 177.233375 118.509584 
Q 179.124133 120.32225 179.547066 124.866536 
L 177.847042 124.866536 
Q 177.53468 122.326785 176.558894 121.165467 
Q 175.583108 120.00415 174.095933 120.00415 
Q 172.335095 120.00415 171.129875 122.42272 
Q 169.924655 124.83624 169.924655 129.617839 
Q 169.924655 133.74809 170.917026 136.343382 
Q 171.912162 138.938674 174.156746 138.938674 
Q 175.87612 138.938674 177.003941 137.12096 
Q 178.131762 135.298196 178.15664 131.223487 
L 174.184389 131.223487 
L 174.184389 128.623145 
L 179.754386 128.623145 
L 179.754386 141.023997 
L 178.648679 141.023997 
L 178.234039 138.039916 
Q 177.363296 139.79199 176.688815 140.473633 
Q 175.555465 141.64 173.811213 141.64 
Q 171.558336 141.64 169.932947 138.974019 
Q 168.161053 135.626395 168.161053 129.789512 
Q 168.161053 123.967777 169.888719 120.529267 
Q 171.530693 117.247283 174.140161 117.247283 
z
M 173.855441 117.211938 
L 173.855441 117.211938 
z
" style="fill:#ffa600;"/>
   </g>
   <g id="patch_28">
    <path clip-path="url(#p16cbaf0d40)" d="M 175.942763 106.361531 
L 173.970453 94.663166 
L 171.873636 106.361531 
L 175.942763 106.361531 
z
M 173.050796 90.7291 
L 175.040084 90.7291 
L 179.754386 117.211938 
L 177.824522 117.211938 
L 176.508705 109.280354 
L 171.369947 109.280354 
L 169.96358 117.211938 
L 168.161053 117.211938 
L 173.050796 90.7291 
z
M 173.961964 90.7291 
L 173.961964 90.7291 
z
" style="fill:#008000;"/>
   </g>
   <g id="patch_29">
    <path clip-path="url(#p16cbaf0d40)" d="M 174.256663 60.608058 
Q 176.739322 60.608058 178.10877 63.473762 
Q 179.478219 66.333236 179.629114 69.971435 
L 177.90378 69.971435 
Q 177.61053 67.211637 176.733628 65.598121 
Q 175.856726 63.978375 174.273746 63.978375 
Q 172.343422 63.978375 171.156187 66.949986 
Q 169.968952 69.915367 169.968952 76.045481 
Q 169.968952 81.072923 171.039456 84.200279 
Q 172.112808 87.321404 174.239581 87.321404 
Q 176.195529 87.321404 177.22048 84.032074 
Q 177.761426 82.300192 178.029052 79.471867 
L 179.754386 79.471867 
Q 179.523772 83.988466 178.225501 87.047293 
Q 176.668145 90.7291 174.026049 90.7291 
Q 171.748381 90.7291 170.199566 87.707651 
Q 168.161053 83.720585 168.161053 75.385124 
Q 168.161053 69.061885 169.692785 65.012521 
Q 171.346942 60.608058 174.256663 60.608058 
z
M 173.900778 60.608058 
L 173.900778 60.608058 
z
" style="fill:#0000ff;"/>
   </g>
   <g id="patch_30">
    <path clip-path="url(#p16cbaf0d40)" d="M 179.754386 28.8 
L 179.754386 32.589808 
L 174.939651 32.589808 
L 174.939651 60.608058 
L 172.975787 60.608058 
L 172.975787 32.589808 
L 168.161053 32.589808 
L 168.161053 28.8 
L 179.754386 28.8 
z
" style="fill:#ff0000;"/>
   </g>
   <g id="patch_31">
    <path clip-path="url(#p16cbaf0d40)" d="M 186.34367 115.538594 
Q 188.13215 115.538594 189.436884 116.889319 
Q 191.327642 118.82896 191.750575 123.691569 
L 190.050551 123.691569 
Q 189.738189 120.973911 188.762403 119.731244 
Q 187.786617 118.488577 186.299441 118.488577 
Q 184.538604 118.488577 183.333384 121.076566 
Q 182.128163 123.659151 182.128163 128.775697 
Q 182.128163 133.195269 183.120535 135.972359 
Q 184.115671 138.749449 186.360255 138.749449 
Q 188.079629 138.749449 189.20745 136.804405 
Q 190.33527 134.853959 190.360149 130.493819 
L 186.387898 130.493819 
L 186.387898 127.711326 
L 191.957895 127.711326 
L 191.957895 140.980846 
L 190.852188 140.980846 
L 190.437548 137.787733 
Q 189.566804 139.662539 188.892323 140.39193 
Q 187.758974 141.64 186.014722 141.64 
Q 183.761845 141.64 182.136456 138.787269 
Q 180.364561 135.205147 180.364561 128.959396 
Q 180.364561 122.729853 182.092228 119.050478 
Q 183.734202 115.538594 186.34367 115.538594 
z
M 186.05895 115.500774 
L 186.05895 115.500774 
z
" style="fill:#ffa600;"/>
   </g>
   <g id="patch_32">
    <path clip-path="url(#p16cbaf0d40)" d="M 188.146272 103.763775 
L 186.173962 91.10953 
L 184.077145 103.763775 
L 188.146272 103.763775 
z
M 185.254305 86.85401 
L 187.243593 86.85401 
L 191.957895 115.500774 
L 190.028031 115.500774 
L 188.712214 106.921096 
L 183.573456 106.921096 
L 182.167088 115.500774 
L 180.364561 115.500774 
L 185.254305 86.85401 
z
M 186.165473 86.85401 
L 186.165473 86.85401 
z
" style="fill:#008000;"/>
   </g>
   <g id="patch_33">
    <path clip-path="url(#p16cbaf0d40)" d="M 186.460172 58.019961 
Q 188.942831 58.019961 190.312279 60.763221 
Q 191.681727 63.500518 191.832623 66.983265 
L 190.107289 66.983265 
Q 189.814039 64.341387 188.937137 62.796812 
Q 188.060234 61.246274 186.477255 61.246274 
Q 184.54693 61.246274 183.359696 64.090915 
Q 182.172461 66.929593 182.172461 72.797784 
Q 182.172461 77.610416 183.242965 80.604148 
Q 184.316316 83.591916 186.44309 83.591916 
Q 188.399038 83.591916 189.423988 80.443131 
Q 189.964935 78.785247 190.232561 76.077769 
L 191.957895 76.077769 
Q 191.727281 80.401385 190.42901 83.329517 
Q 188.871654 86.85401 186.229558 86.85401 
Q 183.951889 86.85401 182.403075 83.96166 
Q 180.364561 80.14495 180.364561 72.165641 
Q 180.364561 66.112578 181.896294 62.236233 
Q 183.55045 58.019961 186.460172 58.019961 
z
M 186.104286 58.019961 
L 186.104286 58.019961 
z
" style="fill:#0000ff;"/>
   </g>
   <g id="patch_34">
    <path clip-path="url(#p16cbaf0d40)" d="M 191.957895 28.8 
L 191.957895 32.281446 
L 187.14316 32.281446 
L 187.14316 58.019961 
L 185.179296 58.019961 
L 185.179296 32.281446 
L 180.364561 32.281446 
L 180.364561 28.8 
L 191.957895 28.8 
z
" style="fill:#ff0000;"/>
   </g>
   <g id="patch_35">
    <path clip-path="url(#p16cbaf0d40)" d="M 198.547178 115.149941 
Q 200.335659 115.149941 201.640393 116.520778 
Q 203.531151 118.4893 203.954084 123.424314 
L 202.25406 123.424314 
Q 201.941698 120.66619 200.965912 119.40502 
Q 199.990125 118.143849 198.50295 118.143849 
Q 196.742112 118.143849 195.536892 120.770373 
Q 194.331672 123.391414 194.331672 128.584146 
Q 194.331672 133.069525 195.324044 135.887967 
Q 196.31918 138.706408 198.563764 138.706408 
Q 200.283138 138.706408 201.410958 136.732403 
Q 202.538779 134.752914 202.563658 130.327851 
L 198.591407 130.327851 
L 198.591407 127.503926 
L 204.161404 127.503926 
L 204.161404 140.971031 
L 203.055697 140.971031 
L 202.641057 137.730372 
Q 201.770313 139.633094 201.095832 140.373346 
Q 199.962483 141.64 198.218231 141.64 
Q 195.965354 141.64 194.339965 138.744792 
Q 192.56807 135.109331 192.56807 128.77058 
Q 192.56807 122.448278 194.295737 118.714118 
Q 195.937711 115.149941 198.547178 115.149941 
z
M 198.262459 115.111557 
L 198.262459 115.111557 
z
" style="fill:#ffa600;"/>
   </g>
   <g id="patch_36">
    <path clip-path="url(#p16cbaf0d40)" d="M 198.663681 87.225099 
Q 201.14634 87.225099 202.515788 89.878206 
Q 203.885236 92.525545 204.036132 95.893837 
L 202.310798 95.893837 
Q 202.017548 93.33878 201.140645 91.844965 
Q 200.263743 90.345383 198.680763 90.345383 
Q 196.750439 90.345383 195.563204 93.096539 
Q 194.37597 95.841928 194.37597 101.517269 
Q 194.37597 106.171741 195.446474 109.067088 
Q 196.519825 111.956667 198.646598 111.956667 
Q 200.602546 111.956667 201.627497 108.911362 
Q 202.168443 107.307963 202.43607 104.689462 
L 204.161404 104.689462 
Q 203.93079 108.870989 202.632518 111.702892 
Q 201.075163 115.111557 198.433067 115.111557 
Q 196.155398 115.111557 194.606584 112.31426 
Q 192.56807 108.622981 192.56807 100.905901 
Q 192.56807 95.051764 194.099802 91.302809 
Q 195.753959 87.225099 198.663681 87.225099 
z
M 198.307795 87.225099 
L 198.307795 87.225099 
z
" style="fill:#0000ff;"/>
   </g>
   <g id="patch_37">
    <path clip-path="url(#p16cbaf0d40)" d="M 200.34978 75.319519 
L 198.377471 62.48352 
L 196.280653 75.319519 
L 200.34978 75.319519 
z
M 197.457814 58.166877 
L 199.447102 58.166877 
L 204.161404 87.225099 
L 202.231539 87.225099 
L 200.915723 78.52219 
L 195.776964 78.52219 
L 194.370597 87.225099 
L 192.56807 87.225099 
L 197.457814 58.166877 
z
M 198.368981 58.166877 
L 198.368981 58.166877 
z
" style="fill:#008000;"/>
   </g>
   <g id="patch_38">
    <path clip-path="url(#p16cbaf0d40)" d="M 204.161404 28.8 
L 204.161404 32.29895 
L 199.346669 32.29895 
L 199.346669 58.166877 
L 197.382805 58.166877 
L 197.382805 32.29895 
L 192.56807 32.29895 
L 192.56807 28.8 
L 204.161404 28.8 
z
" style="fill:#ff0000;"/>
   </g>
   <g id="patch_39">
    <path clip-path="url(#p16cbaf0d40)" d="M 212.553289 130.339825 
L 210.580979 118.156541 
L 208.484162 130.339825 
L 212.553289 130.339825 
z
M 209.661323 114.059402 
L 211.650611 114.059402 
L 216.364912 141.64 
L 214.435048 141.64 
L 213.119232 133.379638 
L 207.980473 133.379638 
L 206.574106 141.64 
L 204.771579 141.64 
L 209.661323 114.059402 
z
M 210.57249 114.059402 
L 210.57249 114.059402 
z
" style="fill:#008000;"/>
   </g>
   <g id="patch_40">
    <path clip-path="url(#p16cbaf0d40)" d="M 210.750687 86.397949 
Q 212.539168 86.397949 213.843901 87.829405 
Q 215.73466 89.884976 216.157592 95.038217 
L 214.457568 95.038217 
Q 214.145206 92.158127 213.16942 90.841188 
Q 212.193634 89.524249 210.706459 89.524249 
Q 208.945621 89.524249 207.740401 92.266918 
Q 206.535181 95.003862 206.535181 100.426216 
Q 206.535181 105.10994 207.527553 108.053013 
Q 208.522688 110.996086 210.767273 110.996086 
Q 212.486647 110.996086 213.614467 108.93479 
Q 214.742288 106.867768 214.767166 102.247028 
L 210.794915 102.247028 
L 210.794915 99.298229 
L 216.364912 99.298229 
L 216.364912 113.360851 
L 215.259206 113.360851 
L 214.844566 109.97689 
Q 213.973822 111.96375 213.299341 112.736736 
Q 212.165992 114.059402 210.421739 114.059402 
Q 208.168862 114.059402 206.543474 111.036167 
Q 204.771579 107.239946 204.771579 100.620894 
Q 204.771579 94.01902 206.499245 90.119734 
Q 208.14122 86.397949 210.750687 86.397949 
z
M 210.465968 86.357868 
L 210.465968 86.357868 
z
" style="fill:#ffa600;"/>
   </g>
   <g id="patch_41">
    <path clip-path="url(#p16cbaf0d40)" d="M 216.364912 58.239575 
L 216.364912 61.589761 
L 211.550178 61.589761 
L 211.550178 86.357868 
L 209.586314 86.357868 
L 209.586314 61.589761 
L 204.771579 61.589761 
L 204.771579 58.239575 
L 216.364912 58.239575 
z
" style="fill:#ff0000;"/>
   </g>
   <g id="patch_42">
    <path clip-path="url(#p16cbaf0d40)" d="M 210.86719 28.8 
Q 213.349848 28.8 214.719297 31.60087 
Q 216.088745 34.39565 216.239641 37.951537 
L 214.514307 37.951537 
Q 214.221057 35.254178 213.344154 33.677166 
Q 212.467252 32.094066 210.884272 32.094066 
Q 208.953948 32.094066 207.766713 34.998446 
Q 206.579478 37.896737 206.579478 43.888163 
Q 206.579478 48.801862 207.649983 51.858463 
Q 208.723334 54.908976 210.850107 54.908976 
Q 212.806055 54.908976 213.831006 51.694064 
Q 214.371952 50.001365 214.639578 47.237028 
L 216.364912 47.237028 
Q 216.134298 51.651442 214.836027 54.641066 
Q 213.278671 58.239575 210.636576 58.239575 
Q 208.358907 58.239575 206.810092 55.286484 
Q 204.771579 51.389622 204.771579 43.242745 
Q 204.771579 37.062565 206.303311 33.104815 
Q 207.957468 28.8 210.86719 28.8 
z
M 210.511304 28.8 
L 210.511304 28.8 
z
" style="fill:#0000ff;"/>
   </g>
   <g id="patch_43">
    <path clip-path="url(#p16cbaf0d40)" d="M 222.954196 116.001543 
Q 224.742676 116.001543 226.04741 117.328311 
Q 227.938168 119.233549 228.361101 124.009912 
L 226.661077 124.009912 
Q 226.348715 121.340456 225.372929 120.11983 
Q 224.397143 118.899204 222.909968 118.899204 
Q 221.14913 118.899204 219.94391 121.44129 
Q 218.73869 123.97807 218.73869 129.003866 
Q 218.73869 133.345049 219.731061 136.072883 
Q 220.726197 138.800717 222.970782 138.800717 
Q 224.690155 138.800717 225.817976 136.890172 
Q 226.945797 134.97432 226.970675 130.691514 
L 222.998424 130.691514 
L 222.998424 127.958373 
L 228.568421 127.958373 
L 228.568421 140.992537 
L 227.462714 140.992537 
L 227.048075 137.856059 
Q 226.177331 139.697612 225.50285 140.414067 
Q 224.3695 141.64 222.625248 141.64 
Q 220.372371 141.64 218.746982 138.837867 
Q 216.975088 135.319279 216.975088 129.184306 
Q 216.975088 123.065254 218.702754 119.451139 
Q 220.344728 116.001543 222.954196 116.001543 
z
M 222.669477 115.964394 
L 222.669477 115.964394 
z
" style="fill:#ffa600;"/>
   </g>
   <g id="patch_44">
    <path clip-path="url(#p16cbaf0d40)" d="M 224.756798 104.664873 
L 222.784488 92.482295 
L 220.687671 104.664873 
L 224.756798 104.664873 
z
M 221.864831 88.385393 
L 223.85412 88.385393 
L 228.568421 115.964394 
L 226.638557 115.964394 
L 225.32274 107.70451 
L 220.183982 107.70451 
L 218.777615 115.964394 
L 216.975088 115.964394 
L 221.864831 88.385393 
z
M 222.775999 88.385393 
L 222.775999 88.385393 
z
" style="fill:#008000;"/>
   </g>
   <g id="patch_45">
    <path clip-path="url(#p16cbaf0d40)" d="M 223.070698 58.846217 
Q 225.553357 58.846217 226.922805 61.656562 
Q 228.292254 64.460798 228.443149 68.028716 
L 226.717815 68.028716 
Q 226.424565 65.322231 225.547663 63.739884 
Q 224.670761 62.151427 223.087781 62.151427 
Q 221.157457 62.151427 219.970222 65.065634 
Q 218.782987 67.973731 218.782987 73.985426 
Q 218.782987 78.91575 219.853491 81.982693 
Q 220.926843 85.043526 223.053616 85.043526 
Q 225.009564 85.043526 226.034515 81.817738 
Q 226.575461 80.119311 226.843087 77.345622 
L 228.568421 77.345622 
Q 228.337807 81.774971 227.039536 84.77471 
Q 225.48218 88.385393 222.840084 88.385393 
Q 220.562416 88.385393 219.013601 85.422311 
Q 216.975088 81.512265 216.975088 73.337825 
Q 216.975088 67.136736 218.50682 63.165596 
Q 220.160977 58.846217 223.070698 58.846217 
z
M 222.714813 58.846217 
L 222.714813 58.846217 
z
" style="fill:#0000ff;"/>
   </g>
   <g id="patch_46">
    <path clip-path="url(#p16cbaf0d40)" d="M 228.568421 28.8 
L 228.568421 32.379891 
L 223.753686 32.379891 
L 223.753686 58.846217 
L 221.789822 58.846217 
L 221.789822 32.379891 
L 216.975088 32.379891 
L 216.975088 28.8 
L 228.568421 28.8 
z
" style="fill:#ff0000;"/>
   </g>
   <g id="patch_47">
    <path clip-path="url(#p16cbaf0d40)" d="M 236.960307 130.435229 
L 234.987997 118.354805 
L 232.89118 130.435229 
L 236.960307 130.435229 
z
M 234.06834 114.292257 
L 236.057628 114.292257 
L 240.77193 141.64 
L 238.842066 141.64 
L 237.526249 133.449378 
L 232.387491 133.449378 
L 230.981124 141.64 
L 229.178596 141.64 
L 234.06834 114.292257 
z
M 234.979508 114.292257 
L 234.979508 114.292257 
z
" style="fill:#008000;"/>
   </g>
   <g id="patch_48">
    <path clip-path="url(#p16cbaf0d40)" d="M 240.77193 86.879668 
L 240.77193 90.145773 
L 235.957195 90.145773 
L 235.957195 114.292257 
L 233.993331 114.292257 
L 233.993331 90.145773 
L 229.178596 90.145773 
L 229.178596 86.879668 
L 240.77193 86.879668 
z
" style="fill:#ff0000;"/>
   </g>
   <g id="patch_49">
    <path clip-path="url(#p16cbaf0d40)" d="M 235.157705 59.474097 
Q 236.946185 59.474097 238.250919 60.892311 
Q 240.141677 62.928867 240.56461 68.034438 
L 238.864586 68.034438 
Q 238.552224 65.180991 237.576438 63.876234 
Q 236.600652 62.571477 235.113476 62.571477 
Q 233.352639 62.571477 232.147419 65.288775 
Q 230.942198 68.000401 230.942198 73.372596 
Q 230.942198 78.012993 231.93457 80.928841 
Q 232.929706 83.84469 235.17429 83.84469 
Q 236.893664 83.84469 238.021485 81.802461 
Q 239.149305 79.75456 239.174184 75.176565 
L 235.201933 75.176565 
L 235.201933 72.255043 
L 240.77193 72.255043 
L 240.77193 86.187579 
L 239.666223 86.187579 
L 239.251583 82.834921 
Q 238.380839 84.803402 237.706358 85.569238 
Q 236.573009 86.879668 234.828757 86.879668 
Q 232.57588 86.879668 230.950491 83.8844 
Q 229.178596 80.123296 229.178596 73.565473 
Q 229.178596 67.024669 230.906263 63.161454 
Q 232.548237 59.474097 235.157705 59.474097 
z
M 234.872985 59.434387 
L 234.872985 59.434387 
z
" style="fill:#ffa600;"/>
   </g>
   <g id="patch_50">
    <path clip-path="url(#p16cbaf0d40)" d="M 235.274207 28.8 
Q 237.756866 28.8 239.126314 31.714544 
Q 240.495763 34.622751 240.646658 38.322954 
L 238.921324 38.322954 
Q 238.628074 35.516122 237.751172 33.875107 
Q 236.874269 32.227757 235.29129 32.227757 
Q 233.360966 32.227757 232.173731 35.250012 
Q 230.986496 38.265931 230.986496 44.500519 
Q 230.986496 49.613642 232.057 52.794297 
Q 233.130352 55.968615 235.257125 55.968615 
Q 237.213073 55.968615 238.238023 52.623225 
Q 238.77897 50.861827 239.046596 47.9853 
L 240.77193 47.9853 
Q 240.541316 52.578874 239.243045 55.689832 
Q 237.685689 59.434387 235.043593 59.434387 
Q 232.765925 59.434387 231.21711 56.361444 
Q 229.178596 52.306427 229.178596 43.828907 
Q 229.178596 37.397903 230.710329 33.279527 
Q 232.364485 28.8 235.274207 28.8 
z
M 234.918321 28.8 
L 234.918321 28.8 
z
" style="fill:#0000ff;"/>
   </g>
   <g id="patch_51">
    <path clip-path="url(#p16cbaf0d40)" d="M 247.361214 115.040425 
Q 249.149694 115.040425 250.454428 116.416929 
Q 252.345186 118.39359 252.768119 123.349007 
L 251.068095 123.349007 
Q 250.755733 120.579479 249.779947 119.313095 
Q 248.804161 118.046711 247.316985 118.046711 
Q 245.556148 118.046711 244.350927 120.684094 
Q 243.145707 123.315971 243.145707 128.53017 
Q 243.145707 133.034093 244.138079 135.864187 
Q 245.133215 138.69428 247.377799 138.69428 
Q 249.097173 138.69428 250.224994 136.712113 
Q 251.352814 134.724441 251.377693 130.281084 
L 247.405442 130.281084 
L 247.405442 127.445484 
L 252.975439 127.445484 
L 252.975439 140.968266 
L 251.869732 140.968266 
L 251.455092 137.714209 
Q 250.584348 139.624797 249.909867 140.36811 
Q 248.776518 141.64 247.032266 141.64 
Q 244.779389 141.64 243.154 138.732822 
Q 241.382105 135.082332 241.382105 128.717375 
Q 241.382105 122.368935 243.109772 118.619337 
Q 244.751746 115.040425 247.361214 115.040425 
z
M 247.076494 115.001883 
L 247.076494 115.001883 
z
" style="fill:#ffa600;"/>
   </g>
   <g id="patch_52">
    <path clip-path="url(#p16cbaf0d40)" d="M 252.975439 87.935726 
L 252.975439 91.160555 
L 248.160704 91.160555 
L 248.160704 115.001883 
L 246.19684 115.001883 
L 246.19684 91.160555 
L 241.382105 91.160555 
L 241.382105 87.935726 
L 252.975439 87.935726 
z
" style="fill:#ff0000;"/>
   </g>
   <g id="patch_53">
    <path clip-path="url(#p16cbaf0d40)" d="M 247.477716 58.548877 
Q 249.960375 58.548877 251.329823 61.344731 
Q 252.699271 64.134506 252.850167 67.684024 
L 251.124833 67.684024 
Q 250.831583 64.991496 249.954681 63.417309 
Q 249.077778 61.837044 247.494798 61.837044 
Q 245.564474 61.837044 244.37724 64.736222 
Q 243.190005 67.629323 243.190005 73.610017 
Q 243.190005 78.514917 244.260509 81.566043 
Q 245.33386 84.611092 247.460633 84.611092 
Q 249.416581 84.611092 250.441532 81.401939 
Q 250.982479 79.712271 251.250105 76.952885 
L 252.975439 76.952885 
Q 252.744825 81.359393 251.446554 84.343663 
Q 249.889198 87.935726 247.247102 87.935726 
Q 244.969433 87.935726 243.420619 84.987925 
Q 241.382105 81.098042 241.382105 72.965756 
Q 241.382105 66.796644 242.913837 62.845982 
Q 244.567994 58.548877 247.477716 58.548877 
z
M 247.12183 58.548877 
L 247.12183 58.548877 
z
" style="fill:#0000ff;"/>
   </g>
   <g id="patch_54">
    <path clip-path="url(#p16cbaf0d40)" d="M 249.163815 46.360326 
L 247.191506 33.219241 
L 245.094688 46.360326 
L 249.163815 46.360326 
z
M 246.271849 28.8 
L 248.261137 28.8 
L 252.975439 58.548877 
L 251.045574 58.548877 
L 249.729758 49.639118 
L 244.591 49.639118 
L 243.184632 58.548877 
L 241.382105 58.548877 
L 246.271849 28.8 
z
M 247.183016 28.8 
L 247.183016 28.8 
z
" style="fill:#008000;"/>
   </g>
   <g id="patch_55">
    <path clip-path="url(#p16cbaf0d40)" d="M 259.564722 115.64271 
Q 261.353203 115.64271 262.657936 116.988047 
Q 264.548695 118.919951 264.971627 123.763164 
L 263.271604 123.763164 
Q 262.959241 121.056346 261.983455 119.818636 
Q 261.007669 118.580926 259.520494 118.580926 
Q 257.759656 118.580926 256.554436 121.158591 
Q 255.349216 123.730876 255.349216 128.827012 
Q 255.349216 133.228954 256.341588 135.994966 
Q 257.336724 138.760979 259.581308 138.760979 
Q 261.300682 138.760979 262.428502 136.823694 
Q 263.556323 134.881028 263.581201 130.53828 
L 259.608951 130.53828 
L 259.608951 127.766886 
L 265.178947 127.766886 
L 265.178947 140.983476 
L 264.073241 140.983476 
L 263.658601 137.803099 
Q 262.787857 139.670427 262.113376 140.396909 
Q 260.980027 141.64 259.235775 141.64 
Q 256.982897 141.64 255.357509 138.798649 
Q 253.585614 135.230815 253.585614 129.009977 
Q 253.585614 122.805284 255.313281 119.140586 
Q 256.955255 115.64271 259.564722 115.64271 
z
M 259.280003 115.605041 
L 259.280003 115.605041 
z
" style="fill:#ffa600;"/>
   </g>
   <g id="patch_56">
    <path clip-path="url(#p16cbaf0d40)" d="M 261.367324 104.885614 
L 259.395014 93.328466 
L 257.298197 104.885614 
L 261.367324 104.885614 
z
M 258.475358 89.44189 
L 260.464646 89.44189 
L 265.178947 115.605041 
L 263.249083 115.605041 
L 261.933267 107.769203 
L 256.794508 107.769203 
L 255.388141 115.605041 
L 253.585614 115.605041 
L 258.475358 89.44189 
z
M 259.386525 89.44189 
L 259.386525 89.44189 
z
" style="fill:#008000;"/>
   </g>
   <g id="patch_57">
    <path clip-path="url(#p16cbaf0d40)" d="M 259.681225 60.062205 
Q 262.163884 60.062205 263.533332 62.857377 
Q 264.90278 65.646472 265.053676 69.195125 
L 263.328342 69.195125 
Q 263.035092 66.503253 262.158189 64.92945 
Q 261.281287 63.34957 259.698307 63.34957 
Q 257.767983 63.34957 256.580748 66.248042 
Q 255.393514 69.140437 255.393514 75.119673 
Q 255.393514 80.023377 256.464018 83.07376 
Q 257.537369 86.118066 259.664142 86.118066 
Q 261.62009 86.118066 262.645041 82.909695 
Q 263.185987 81.220439 263.453613 78.461727 
L 265.178947 78.461727 
Q 264.948333 82.86716 263.650062 85.850702 
Q 262.092706 89.44189 259.450611 89.44189 
Q 257.172942 89.44189 255.624127 86.494807 
Q 253.585614 82.605872 253.585614 74.475569 
Q 253.585614 68.307962 255.117346 64.358262 
Q 256.771503 60.062205 259.681225 60.062205 
z
M 259.325339 60.062205 
L 259.325339 60.062205 
z
" style="fill:#0000ff;"/>
   </g>
   <g id="patch_58">
    <path clip-path="url(#p16cbaf0d40)" d="M 265.178947 28.8 
L 265.178947 32.524772 
L 260.364213 32.524772 
L 260.364213 60.062205 
L 258.400349 60.062205 
L 258.400349 32.524772 
L 253.585614 32.524772 
L 253.585614 28.8 
L 265.178947 28.8 
z
" style="fill:#ff0000;"/>
   </g>
   <g id="patch_59">
    <path clip-path="url(#p16cbaf0d40)" d="M 271.768231 115.304845 
Q 273.556711 115.304845 274.861445 116.667666 
Q 276.752203 118.624677 277.175136 123.530833 
L 275.475112 123.530833 
Q 275.16275 120.788837 274.186964 119.535042 
Q 273.211178 118.281246 271.724003 118.281246 
Q 269.963165 118.281246 268.757945 120.892412 
Q 267.552725 123.498126 267.552725 128.660492 
Q 267.552725 133.119643 268.545096 135.921603 
Q 269.540232 138.723563 271.784817 138.723563 
Q 273.50419 138.723563 274.632011 136.7611 
Q 275.759832 134.793187 275.78471 130.394 
L 271.812459 130.394 
L 271.812459 127.586589 
L 277.382456 127.586589 
L 277.382456 140.974943 
L 276.27675 140.974943 
L 275.86211 137.753234 
Q 274.991366 139.64483 274.316885 140.380753 
Q 273.183535 141.64 271.439283 141.64 
Q 269.186406 141.64 267.561018 138.761722 
Q 265.789123 135.14752 265.789123 128.845836 
Q 265.789123 122.560505 267.516789 118.84818 
Q 269.158764 115.304845 271.768231 115.304845 
z
M 271.483512 115.266686 
L 271.483512 115.266686 
z
" style="fill:#ffa600;"/>
   </g>
   <g id="patch_60">
    <path clip-path="url(#p16cbaf0d40)" d="M 273.570833 104.256016 
L 271.598523 92.384862 
L 269.501706 104.256016 
L 273.570833 104.256016 
z
M 270.678867 88.39269 
L 272.668155 88.39269 
L 277.382456 115.266686 
L 275.452592 115.266686 
L 274.136776 107.217951 
L 268.998017 107.217951 
L 267.59165 115.266686 
L 265.789123 115.266686 
L 270.678867 88.39269 
z
M 271.590034 88.39269 
L 271.590034 88.39269 
z
" style="fill:#008000;"/>
   </g>
   <g id="patch_61">
    <path clip-path="url(#p16cbaf0d40)" d="M 277.382456 58.978253 
L 277.382456 62.48287 
L 272.567721 62.48287 
L 272.567721 88.39269 
L 270.603857 88.39269 
L 270.603857 62.48287 
L 265.789123 62.48287 
L 265.789123 58.978253 
L 277.382456 58.978253 
z
" style="fill:#ff0000;"/>
   </g>
   <g id="patch_62">
    <path clip-path="url(#p16cbaf0d40)" d="M 271.884733 28.8 
Q 274.367392 28.8 275.736841 31.671147 
Q 277.106289 34.536053 277.257184 38.181161 
L 275.53185 38.181161 
Q 275.238601 35.416122 274.361698 33.799541 
Q 273.484796 32.176719 271.901816 32.176719 
Q 269.971492 32.176719 268.784257 35.153973 
Q 267.597022 38.124987 267.597022 44.266745 
Q 267.597022 49.303736 268.667527 52.437031 
Q 269.740878 55.564085 271.867651 55.564085 
Q 273.823599 55.564085 274.84855 52.268507 
Q 275.389496 50.533336 275.657122 47.699638 
L 277.382456 47.699638 
Q 277.151842 52.224816 275.853571 55.289453 
Q 274.296215 58.978253 271.65412 58.978253 
Q 269.376451 58.978253 267.827636 55.951065 
Q 265.789123 51.956426 265.789123 43.605133 
Q 265.789123 37.269884 267.320855 33.212828 
Q 268.975012 28.8 271.884733 28.8 
z
M 271.528848 28.8 
L 271.528848 28.8 
z
" style="fill:#0000ff;"/>
   </g>
   <g id="patch_63">
    <path clip-path="url(#p16cbaf0d40)" d="M 285.774342 130.620759 
L 283.802032 118.740365 
L 281.705215 130.620759 
L 285.774342 130.620759 
z
M 282.882375 114.745085 
L 284.871663 114.745085 
L 289.585965 141.64 
L 287.656101 141.64 
L 286.340284 133.584999 
L 281.201526 133.584999 
L 279.795159 141.64 
L 277.992632 141.64 
L 282.882375 114.745085 
z
M 283.793543 114.745085 
L 283.793543 114.745085 
z
" style="fill:#008000;"/>
   </g>
   <g id="patch_64">
    <path clip-path="url(#p16cbaf0d40)" d="M 283.97174 87.828926 
Q 285.76022 87.828926 287.064954 89.221814 
Q 288.955712 91.222 289.378645 96.236396 
L 287.678621 96.236396 
Q 287.366259 93.433906 286.390473 92.152449 
Q 285.414687 90.870993 283.927512 90.870993 
Q 282.166674 90.870993 280.961454 93.539765 
Q 279.756234 96.202966 279.756234 101.479224 
Q 279.756234 106.036752 280.748605 108.900529 
Q 281.743741 111.764306 283.988325 111.764306 
Q 285.707699 111.764306 286.83552 109.758548 
Q 287.963341 107.747218 287.988219 103.250977 
L 284.015968 103.250977 
L 284.015968 100.381629 
L 289.585965 100.381629 
L 289.585965 114.065356 
L 288.480258 114.065356 
L 288.065618 110.77257 
Q 287.194874 112.705898 286.520393 113.458057 
Q 285.387044 114.745085 283.642792 114.745085 
Q 281.389915 114.745085 279.764526 111.803307 
Q 277.992632 108.109369 277.992632 101.668657 
Q 277.992632 95.24466 279.720298 91.450434 
Q 281.362272 87.828926 283.97174 87.828926 
z
M 283.68702 87.789926 
L 283.68702 87.789926 
z
" style="fill:#ffa600;"/>
   </g>
   <g id="patch_65">
    <path clip-path="url(#p16cbaf0d40)" d="M 289.585965 59.44825 
L 289.585965 62.825051 
L 284.77123 62.825051 
L 284.77123 87.789926 
L 282.807366 87.789926 
L 282.807366 62.825051 
L 277.992632 62.825051 
L 277.992632 59.44825 
L 289.585965 59.44825 
z
" style="fill:#ff0000;"/>
   </g>
   <g id="patch_66">
    <path clip-path="url(#p16cbaf0d40)" d="M 284.088242 28.8 
Q 286.570901 28.8 287.940349 31.715862 
Q 289.309798 34.625386 289.460693 38.327264 
L 287.735359 38.327264 
Q 287.442109 35.519161 286.565207 33.877404 
Q 285.688304 32.229308 284.105325 32.229308 
Q 282.175001 32.229308 280.987766 35.25293 
Q 279.800531 38.270214 279.800531 44.507624 
Q 279.800531 49.623061 280.871035 52.805154 
Q 281.944387 55.980909 284.07116 55.980909 
Q 286.027108 55.980909 287.052059 52.634006 
Q 287.593005 50.871811 287.860631 47.993981 
L 289.585965 47.993981 
Q 289.355351 52.589634 288.05708 55.702 
Q 286.499724 59.44825 283.857628 59.44825 
Q 281.57996 59.44825 280.031145 56.373916 
Q 277.992632 52.317064 277.992632 43.835708 
Q 277.992632 37.401794 279.524364 33.281554 
Q 281.178521 28.8 284.088242 28.8 
z
M 283.732357 28.8 
L 283.732357 28.8 
z
" style="fill:#0000ff;"/>
   </g>
   <g id="patch_67">
    <path clip-path="url(#p16cbaf0d40)" d="M 301.789474 114.419533 
L 301.789474 117.662747 
L 296.974739 117.662747 
L 296.974739 141.64 
L 295.010875 141.64 
L 295.010875 117.662747 
L 290.19614 117.662747 
L 290.19614 114.419533 
L 301.789474 114.419533 
z
" style="fill:#ff0000;"/>
   </g>
   <g id="patch_68">
    <path clip-path="url(#p16cbaf0d40)" d="M 296.175249 86.931836 
Q 297.963729 86.931836 299.268463 88.3543 
Q 301.159221 90.396959 301.582154 95.51783 
L 299.88213 95.51783 
Q 299.569768 92.655832 298.593982 91.347165 
Q 297.618196 90.038498 296.13102 90.038498 
Q 294.370183 90.038498 293.164962 92.763939 
Q 291.959742 95.48369 291.959742 100.871985 
Q 291.959742 105.526287 292.952114 108.450874 
Q 293.94725 111.37546 296.191834 111.37546 
Q 297.911208 111.37546 299.039029 109.327112 
Q 300.166849 107.273073 300.191728 102.681359 
L 296.219477 102.681359 
L 296.219477 99.751083 
L 301.789474 99.751083 
L 301.789474 113.725371 
L 300.683767 113.725371 
L 300.269127 110.362665 
Q 299.398383 112.337046 298.723902 113.105176 
Q 297.590553 114.419533 295.846301 114.419533 
Q 293.593424 114.419533 291.968035 111.415289 
Q 290.19614 107.642914 290.19614 101.06544 
Q 290.19614 94.505035 291.923807 90.630243 
Q 293.565781 86.931836 296.175249 86.931836 
z
M 295.890529 86.892007 
L 295.890529 86.892007 
z
" style="fill:#ffa600;"/>
   </g>
   <g id="patch_69">
    <path clip-path="url(#p16cbaf0d40)" d="M 296.291751 58.28842 
Q 298.77441 58.28842 300.143858 61.009754 
Q 301.513306 63.725172 301.664202 67.180083 
L 299.938868 67.180083 
Q 299.645618 64.559321 298.768716 63.027091 
Q 297.891813 61.488946 296.308834 61.488946 
Q 294.378509 61.488946 293.191275 64.310851 
Q 292.00404 67.12684 292.00404 72.948128 
Q 292.00404 77.722295 293.074544 80.692098 
Q 294.147895 83.655986 296.274669 83.655986 
Q 298.230616 83.655986 299.255567 80.532368 
Q 299.796514 78.887736 300.06414 76.201897 
L 301.789474 76.201897 
Q 301.55886 80.490956 300.260589 83.395684 
Q 298.703233 86.892007 296.061137 86.892007 
Q 293.783468 86.892007 292.234654 84.022774 
Q 290.19614 80.236571 290.19614 72.321038 
Q 290.19614 66.316356 291.727873 62.470992 
Q 293.382029 58.28842 296.291751 58.28842 
z
M 295.935865 58.28842 
L 295.935865 58.28842 
z
" style="fill:#0000ff;"/>
   </g>
   <g id="patch_70">
    <path clip-path="url(#p16cbaf0d40)" d="M 297.977851 46.206582 
L 296.005541 33.18055 
L 293.908724 46.206582 
L 297.977851 46.206582 
z
M 295.085884 28.8 
L 297.075172 28.8 
L 301.789474 58.28842 
L 299.85961 58.28842 
L 298.543793 49.456667 
L 293.405035 49.456667 
L 291.998667 58.28842 
L 290.19614 58.28842 
L 295.085884 28.8 
z
M 295.997052 28.8 
L 295.997052 28.8 
z
" style="fill:#008000;"/>
   </g>
   <g id="patch_71">
    <path clip-path="url(#p16cbaf0d40)" d="M 308.378757 115.267545 
Q 310.167238 115.267545 311.471971 116.632296 
Q 313.36273 118.592079 313.785662 123.505184 
L 312.085639 123.505184 
Q 311.773277 120.759304 310.79749 119.503733 
Q 309.821704 118.248162 308.334529 118.248162 
Q 306.573691 118.248162 305.368471 120.863026 
Q 304.163251 123.47243 304.163251 128.642108 
Q 304.163251 133.107575 305.155623 135.913503 
Q 306.150759 138.719432 308.395343 138.719432 
Q 310.114717 138.719432 311.242537 136.75419 
Q 312.370358 134.783489 312.395236 130.378072 
L 308.422986 130.378072 
L 308.422986 127.566684 
L 313.992982 127.566684 
L 313.992982 140.974001 
L 312.887276 140.974001 
L 312.472636 137.747729 
Q 311.601892 139.642004 310.927411 140.37897 
Q 309.794062 141.64 308.04981 141.64 
Q 305.796933 141.64 304.171544 138.757645 
Q 302.399649 135.138325 302.399649 128.827714 
Q 302.399649 122.533481 304.127316 118.815899 
Q 305.76929 115.267545 308.378757 115.267545 
z
M 308.094038 115.229332 
L 308.094038 115.229332 
z
" style="fill:#ffa600;"/>
   </g>
   <g id="patch_72">
    <path clip-path="url(#p16cbaf0d40)" d="M 310.181359 103.504272 
L 308.209049 90.862899 
L 306.112232 103.504272 
L 310.181359 103.504272 
z
M 307.289393 86.611707 
L 309.278681 86.611707 
L 313.992982 115.229332 
L 312.063118 115.229332 
L 310.747302 106.658381 
L 305.608543 106.658381 
L 304.202176 115.229332 
L 302.399649 115.229332 
L 307.289393 86.611707 
z
M 308.20056 86.611707 
L 308.20056 86.611707 
z
" style="fill:#008000;"/>
   </g>
   <g id="patch_73">
    <path clip-path="url(#p16cbaf0d40)" d="M 313.992982 57.828105 
L 313.992982 61.257561 
L 309.178248 61.257561 
L 309.178248 86.611707 
L 307.214384 86.611707 
L 307.214384 61.257561 
L 302.399649 61.257561 
L 302.399649 57.828105 
L 313.992982 57.828105 
z
" style="fill:#ff0000;"/>
   </g>
   <g id="patch_74">
    <path clip-path="url(#p16cbaf0d40)" d="M 308.49526 28.8 
Q 310.977919 28.8 312.347367 31.561723 
Q 313.716815 34.317441 313.867711 37.823628 
L 312.142377 37.823628 
Q 311.849127 35.163969 310.972224 33.608999 
Q 310.095322 32.048026 308.512342 32.048026 
Q 306.582018 32.048026 305.394783 34.911812 
Q 304.207549 37.769594 304.207549 43.677279 
Q 304.207549 48.522301 305.278053 51.536181 
Q 306.351404 54.544057 308.478177 54.544057 
Q 310.434125 54.544057 311.459076 51.37408 
Q 312.000022 49.705039 312.267648 46.979339 
L 313.992982 46.979339 
Q 313.762369 51.332054 312.464097 54.279892 
Q 310.906741 57.828105 308.264646 57.828105 
Q 305.986977 57.828105 304.438163 54.916289 
Q 302.399649 51.073893 302.399649 43.040882 
Q 302.399649 36.947081 303.931381 33.044647 
Q 305.585538 28.8 308.49526 28.8 
z
M 308.139374 28.8 
L 308.139374 28.8 
z
" style="fill:#0000ff;"/>
   </g>
   <g id="patch_75">
    <path clip-path="url(#p16cbaf0d40)" d="M 326.196491 114.303506 
L 326.196491 117.560544 
L 321.381757 117.560544 
L 321.381757 141.64 
L 319.417893 141.64 
L 319.417893 117.560544 
L 314.603158 117.560544 
L 314.603158 114.303506 
L 326.196491 114.303506 
z
" style="fill:#ff0000;"/>
   </g>
   <g id="patch_76">
    <path clip-path="url(#p16cbaf0d40)" d="M 320.582266 86.827289 
Q 322.370747 86.827289 323.67548 88.249159 
Q 325.566238 90.290964 325.989171 95.409696 
L 324.289147 95.409696 
Q 323.976785 92.548894 323.000999 91.240773 
Q 322.025213 89.932653 320.538038 89.932653 
Q 318.7772 89.932653 317.57198 92.656956 
Q 316.36676 95.375572 316.36676 100.761615 
Q 316.36676 105.413974 317.359132 108.337339 
Q 318.354267 111.260704 320.598852 111.260704 
Q 322.318225 111.260704 323.446046 109.213211 
Q 324.573867 107.160031 324.598745 102.570234 
L 320.626494 102.570234 
L 320.626494 99.641182 
L 326.196491 99.641182 
L 326.196491 113.609633 
L 325.090785 113.609633 
L 324.676145 110.248332 
Q 323.805401 112.221888 323.13092 112.989698 
Q 321.997571 114.303506 320.253318 114.303506 
Q 318.000441 114.303506 316.375053 111.300516 
Q 314.603158 107.529717 314.603158 100.95499 
Q 314.603158 94.397325 316.330824 90.524151 
Q 317.972799 86.827289 320.582266 86.827289 
z
M 320.297547 86.787476 
L 320.297547 86.787476 
z
" style="fill:#ffa600;"/>
   </g>
   <g id="patch_77">
    <path clip-path="url(#p16cbaf0d40)" d="M 320.698769 58.235752 
Q 323.181427 58.235752 324.550876 60.952152 
Q 325.920324 63.662647 326.071219 67.111293 
L 324.345885 67.111293 
Q 324.052636 64.495282 323.175733 62.965831 
Q 322.298831 61.430475 320.715851 61.430475 
Q 318.785527 61.430475 317.598292 64.247263 
Q 316.411057 67.058147 316.411057 72.86888 
Q 316.411057 77.63439 317.481562 80.598809 
Q 318.554913 83.557323 320.681686 83.557323 
Q 322.637634 83.557323 323.662585 80.439368 
Q 324.203531 78.797718 324.471157 76.116749 
L 326.196491 76.116749 
Q 325.965877 80.398032 324.667606 83.297493 
Q 323.11025 86.787476 320.468155 86.787476 
Q 318.190486 86.787476 316.641671 83.923446 
Q 314.603158 80.144107 314.603158 72.242927 
Q 314.603158 66.249132 316.13489 62.410741 
Q 317.789047 58.235752 320.698769 58.235752 
z
M 320.342883 58.235752 
L 320.342883 58.235752 
z
" style="fill:#0000ff;"/>
   </g>
   <g id="patch_78">
    <path clip-path="url(#p16cbaf0d40)" d="M 322.384868 46.175493 
L 320.412558 33.172726 
L 318.315741 46.175493 
L 322.384868 46.175493 
z
M 319.492902 28.8 
L 321.48219 28.8 
L 326.196491 58.235752 
L 324.266627 58.235752 
L 322.950811 49.419773 
L 317.812052 49.419773 
L 316.405685 58.235752 
L 314.603158 58.235752 
L 319.492902 28.8 
z
M 320.404069 28.8 
L 320.404069 28.8 
z
" style="fill:#008000;"/>
   </g>
   <g id="patch_79">
    <path clip-path="url(#p16cbaf0d40)" d="M 332.785775 118.337018 
Q 334.574255 118.337018 335.878989 119.542927 
Q 337.769747 121.274612 338.19268 125.615884 
L 336.492656 125.615884 
Q 336.180294 123.189595 335.204508 122.080159 
Q 334.228722 120.970723 332.741547 120.970723 
Q 330.980709 120.970723 329.775489 123.281244 
Q 328.570269 125.586942 328.570269 130.154925 
Q 328.570269 134.100658 329.56264 136.580007 
Q 330.557776 139.059355 332.802361 139.059355 
Q 334.521734 139.059355 335.649555 137.322846 
Q 336.777376 135.581514 336.802254 131.688841 
L 332.830003 131.688841 
L 332.830003 129.204668 
L 338.4 129.204668 
L 338.4 141.051517 
L 337.294293 141.051517 
L 336.879653 138.200748 
Q 336.00891 139.87455 335.334429 140.52574 
Q 334.201079 141.64 332.456827 141.64 
Q 330.20395 141.64 328.578561 139.093121 
Q 326.806667 135.89505 326.806667 130.318928 
Q 326.806667 124.757277 328.534333 121.472381 
Q 330.176307 118.337018 332.785775 118.337018 
z
M 332.501055 118.303253 
L 332.501055 118.303253 
z
" style="fill:#ffa600;"/>
   </g>
   <g id="patch_80">
    <path clip-path="url(#p16cbaf0d40)" d="M 334.588377 106.456914 
L 332.616067 93.684785 
L 330.51925 106.456914 
L 334.588377 106.456914 
z
M 331.69641 89.389622 
L 333.685698 89.389622 
L 338.4 118.303253 
L 336.470136 118.303253 
L 335.154319 109.643649 
L 330.015561 109.643649 
L 328.609194 118.303253 
L 326.806667 118.303253 
L 331.69641 89.389622 
z
M 332.607578 89.389622 
L 332.607578 89.389622 
z
" style="fill:#008000;"/>
   </g>
   <g id="patch_81">
    <path clip-path="url(#p16cbaf0d40)" d="M 332.902277 60.468012 
Q 335.384936 60.468012 336.754384 63.219602 
Q 338.123833 65.965211 338.274728 69.458535 
L 336.549394 69.458535 
Q 336.256144 66.808634 335.379242 65.259369 
Q 334.50234 63.704122 332.91936 63.704122 
Q 330.989036 63.704122 329.801801 66.557401 
Q 328.614566 69.4047 328.614566 75.290711 
Q 328.614566 80.117958 329.68507 83.12078 
Q 330.758422 86.117621 332.885195 86.117621 
Q 334.841143 86.117621 335.866094 82.959274 
Q 336.40704 81.296356 336.674666 78.580656 
L 338.4 78.580656 
Q 338.169386 82.917402 336.871115 85.854426 
Q 335.313759 89.389622 332.671663 89.389622 
Q 330.393995 89.389622 328.84518 86.488488 
Q 326.806667 82.660188 326.806667 74.656649 
Q 326.806667 68.585204 328.338399 64.697087 
Q 329.992556 60.468012 332.902277 60.468012 
z
M 332.546392 60.468012 
L 332.546392 60.468012 
z
" style="fill:#0000ff;"/>
   </g>
   <g id="patch_82">
    <path clip-path="url(#p16cbaf0d40)" d="M 338.4 28.8 
L 338.4 32.573122 
L 333.585265 32.573122 
L 333.585265 60.468012 
L 331.621401 60.468012 
L 331.621401 32.573122 
L 326.806667 32.573122 
L 326.806667 28.8 
L 338.4 28.8 
z
" style="fill:#ff0000;"/>
   </g>
   <g id="matplotlib.axis_1">
    <g id="xtick_1">
     <g id="line2d_2">
      <path clip-path="url(#p16cbaf0d40)" d="M 100.736667 141.64 
L 100.736667 28.8 
" style="fill:none;stroke:#cccccc;stroke-linecap:round;stroke-width:0.8;"/>
     </g>
     <g id="text_1">
      <!-- 0 -->
      <g style="fill:#262626;" transform="translate(95.175729 162.986875)scale(0.2 -0.2)">
       <defs>
        <path d="M 1731 4475 
Q 2600 4475 2988 3759 
Q 3288 3206 3288 2244 
Q 3288 1331 3016 734 
Q 2622 -122 1728 -122 
Q 922 -122 528 578 
Q 200 1163 200 2147 
Q 200 2909 397 3456 
Q 766 4475 1731 4475 
z
M 1725 391 
Q 2163 391 2422 778 
Q 2681 1166 2681 2222 
Q 2681 2984 2493 3476 
Q 2306 3969 1766 3969 
Q 1269 3969 1039 3501 
Q 809 3034 809 2125 
Q 809 1441 956 1025 
Q 1181 391 1725 391 
z
" id="Helvetica-30" transform="scale(0.015625)"/>
       </defs>
       <use xlink:href="#Helvetica-30"/>
      </g>
     </g>
    </g>
    <g id="xtick_2">
     <g id="line2d_3">
      <path clip-path="url(#p16cbaf0d40)" d="M 222.771754 141.64 
L 222.771754 28.8 
" style="fill:none;stroke:#cccccc;stroke-linecap:round;stroke-width:0.8;"/>
     </g>
     <g id="text_2">
      <!-- 10 -->
      <g style="fill:#262626;" transform="translate(211.649879 162.986875)scale(0.2 -0.2)">
       <defs>
        <path d="M 613 3169 
L 613 3600 
Q 1222 3659 1462 3798 
Q 1703 3938 1822 4456 
L 2266 4456 
L 2266 0 
L 1666 0 
L 1666 3169 
L 613 3169 
z
" id="Helvetica-31" transform="scale(0.015625)"/>
       </defs>
       <use xlink:href="#Helvetica-31"/>
       <use x="55.615234" xlink:href="#Helvetica-30"/>
      </g>
     </g>
    </g>
    <g id="text_3">
     <!-- Position -->
     <g style="fill:#262626;" transform="translate(172.20125 189.089219)scale(0.25 -0.25)">
      <defs>
       <path d="M 547 4591 
L 2613 4591 
Q 3225 4591 3600 4245 
Q 3975 3900 3975 3275 
Q 3975 2738 3640 2339 
Q 3306 1941 2613 1941 
L 1169 1941 
L 1169 0 
L 547 0 
L 547 4591 
z
M 3347 3272 
Q 3347 3778 2972 3959 
Q 2766 4056 2406 4056 
L 1169 4056 
L 1169 2466 
L 2406 2466 
Q 2825 2466 3086 2644 
Q 3347 2822 3347 3272 
z
" id="Helvetica-50" transform="scale(0.015625)"/>
       <path d="M 1741 363 
Q 2300 363 2508 786 
Q 2716 1209 2716 1728 
Q 2716 2197 2566 2491 
Q 2328 2953 1747 2953 
Q 1231 2953 997 2559 
Q 763 2166 763 1609 
Q 763 1075 997 719 
Q 1231 363 1741 363 
z
M 1763 3444 
Q 2409 3444 2856 3012 
Q 3303 2581 3303 1744 
Q 3303 934 2909 406 
Q 2516 -122 1688 -122 
Q 997 -122 590 345 
Q 184 813 184 1600 
Q 184 2444 612 2944 
Q 1041 3444 1763 3444 
z
M 1744 3428 
L 1744 3428 
z
" id="Helvetica-6f" transform="scale(0.015625)"/>
       <path d="M 747 1050 
Q 772 769 888 619 
Q 1100 347 1625 347 
Q 1938 347 2175 483 
Q 2413 619 2413 903 
Q 2413 1119 2222 1231 
Q 2100 1300 1741 1391 
L 1294 1503 
Q 866 1609 663 1741 
Q 300 1969 300 2372 
Q 300 2847 642 3140 
Q 984 3434 1563 3434 
Q 2319 3434 2653 2991 
Q 2863 2709 2856 2384 
L 2325 2384 
Q 2309 2575 2191 2731 
Q 1997 2953 1519 2953 
Q 1200 2953 1036 2831 
Q 872 2709 872 2509 
Q 872 2291 1088 2159 
Q 1213 2081 1456 2022 
L 1828 1931 
Q 2434 1784 2641 1647 
Q 2969 1431 2969 969 
Q 2969 522 2630 197 
Q 2291 -128 1597 -128 
Q 850 -128 539 211 
Q 228 550 206 1050 
L 747 1050 
z
M 1578 3428 
L 1578 3428 
z
" id="Helvetica-73" transform="scale(0.015625)"/>
       <path d="M 413 3331 
L 984 3331 
L 984 0 
L 413 0 
L 413 3331 
z
M 413 4591 
L 984 4591 
L 984 3953 
L 413 3953 
L 413 4591 
z
" id="Helvetica-69" transform="scale(0.015625)"/>
       <path d="M 525 4281 
L 1094 4281 
L 1094 3347 
L 1628 3347 
L 1628 2888 
L 1094 2888 
L 1094 703 
Q 1094 528 1213 469 
Q 1278 434 1431 434 
Q 1472 434 1519 436 
Q 1566 438 1628 444 
L 1628 0 
Q 1531 -28 1426 -40 
Q 1322 -53 1200 -53 
Q 806 -53 665 148 
Q 525 350 525 672 
L 525 2888 
L 72 2888 
L 72 3347 
L 525 3347 
L 525 4281 
z
" id="Helvetica-74" transform="scale(0.015625)"/>
       <path d="M 413 3347 
L 947 3347 
L 947 2872 
Q 1184 3166 1450 3294 
Q 1716 3422 2041 3422 
Q 2753 3422 3003 2925 
Q 3141 2653 3141 2147 
L 3141 0 
L 2569 0 
L 2569 2109 
Q 2569 2416 2478 2603 
Q 2328 2916 1934 2916 
Q 1734 2916 1606 2875 
Q 1375 2806 1200 2600 
Q 1059 2434 1017 2257 
Q 975 2081 975 1753 
L 975 0 
L 413 0 
L 413 3347 
z
M 1734 3428 
L 1734 3428 
z
" id="Helvetica-6e" transform="scale(0.015625)"/>
      </defs>
      <use xlink:href="#Helvetica-50"/>
      <use x="66.699219" xlink:href="#Helvetica-6f"/>
      <use x="122.314453" xlink:href="#Helvetica-73"/>
      <use x="172.314453" xlink:href="#Helvetica-69"/>
      <use x="194.53125" xlink:href="#Helvetica-74"/>
      <use x="222.314453" xlink:href="#Helvetica-69"/>
      <use x="244.53125" xlink:href="#Helvetica-6f"/>
      <use x="300.146484" xlink:href="#Helvetica-6e"/>
     </g>
    </g>
   </g>
   <g id="matplotlib.axis_2">
    <g id="ytick_1">
     <g id="line2d_4">
      <path clip-path="url(#p16cbaf0d40)" d="M 94.94 141.64 
L 338.4 141.64 
" style="fill:none;stroke:#cccccc;stroke-linecap:round;stroke-width:0.8;"/>
     </g>
     <g id="text_4">
      <!-- 0 -->
      <g style="fill:#262626;" transform="translate(76.818125 148.813438)scale(0.2 -0.2)">
       <use xlink:href="#Helvetica-30"/>
      </g>
     </g>
    </g>
    <g id="ytick_2">
     <g id="line2d_5">
      <path clip-path="url(#p16cbaf0d40)" d="M 94.94 113.43 
L 338.4 113.43 
" style="fill:none;stroke:#cccccc;stroke-linecap:round;stroke-width:0.8;"/>
     </g>
     <g id="text_5">
      <!-- 0.25 -->
      <g style="fill:#262626;" transform="translate(49.018125 120.603438)scale(0.2 -0.2)">
       <defs>
        <path d="M 547 681 
L 1200 681 
L 1200 0 
L 547 0 
L 547 681 
z
" id="Helvetica-2e" transform="scale(0.015625)"/>
        <path d="M 200 0 
Q 231 578 439 1006 
Q 647 1434 1250 1784 
L 1850 2131 
Q 2253 2366 2416 2531 
Q 2672 2791 2672 3125 
Q 2672 3516 2437 3745 
Q 2203 3975 1813 3975 
Q 1234 3975 1013 3538 
Q 894 3303 881 2888 
L 309 2888 
Q 319 3472 525 3841 
Q 891 4491 1816 4491 
Q 2584 4491 2939 4075 
Q 3294 3659 3294 3150 
Q 3294 2613 2916 2231 
Q 2697 2009 2131 1694 
L 1703 1456 
Q 1397 1288 1222 1134 
Q 909 863 828 531 
L 3272 531 
L 3272 0 
L 200 0 
z
" id="Helvetica-32" transform="scale(0.015625)"/>
        <path d="M 791 1141 
Q 847 659 1238 475 
Q 1438 381 1700 381 
Q 2200 381 2440 700 
Q 2681 1019 2681 1406 
Q 2681 1875 2395 2131 
Q 2109 2388 1709 2388 
Q 1419 2388 1211 2275 
Q 1003 2163 856 1963 
L 369 1991 
L 709 4400 
L 3034 4400 
L 3034 3856 
L 1131 3856 
L 941 2613 
Q 1097 2731 1238 2791 
Q 1488 2894 1816 2894 
Q 2431 2894 2859 2497 
Q 3288 2100 3288 1491 
Q 3288 856 2895 371 
Q 2503 -113 1644 -113 
Q 1097 -113 676 195 
Q 256 503 206 1141 
L 791 1141 
z
" id="Helvetica-35" transform="scale(0.015625)"/>
       </defs>
       <use xlink:href="#Helvetica-30"/>
       <use x="55.615234" xlink:href="#Helvetica-2e"/>
       <use x="83.398438" xlink:href="#Helvetica-32"/>
       <use x="139.013672" xlink:href="#Helvetica-35"/>
      </g>
     </g>
    </g>
    <g id="ytick_3">
     <g id="line2d_6">
      <path clip-path="url(#p16cbaf0d40)" d="M 94.94 85.22 
L 338.4 85.22 
" style="fill:none;stroke:#cccccc;stroke-linecap:round;stroke-width:0.8;"/>
     </g>
     <g id="text_6">
      <!-- 0.50 -->
      <g style="fill:#262626;" transform="translate(49.018125 92.393438)scale(0.2 -0.2)">
       <use xlink:href="#Helvetica-30"/>
       <use x="55.615234" xlink:href="#Helvetica-2e"/>
       <use x="83.398438" xlink:href="#Helvetica-35"/>
       <use x="139.013672" xlink:href="#Helvetica-30"/>
      </g>
     </g>
    </g>
    <g id="ytick_4">
     <g id="line2d_7">
      <path clip-path="url(#p16cbaf0d40)" d="M 94.94 57.01 
L 338.4 57.01 
" style="fill:none;stroke:#cccccc;stroke-linecap:round;stroke-width:0.8;"/>
     </g>
     <g id="text_7">
      <!-- 0.75 -->
      <g style="fill:#262626;" transform="translate(49.018125 64.183437)scale(0.2 -0.2)">
       <defs>
        <path d="M 3347 4400 
L 3347 3909 
Q 3131 3700 2773 3181 
Q 2416 2663 2141 2063 
Q 1869 1478 1728 997 
Q 1638 688 1494 0 
L 872 0 
Q 1084 1281 1809 2550 
Q 2238 3294 2709 3834 
L 234 3834 
L 234 4400 
L 3347 4400 
z
" id="Helvetica-37" transform="scale(0.015625)"/>
       </defs>
       <use xlink:href="#Helvetica-30"/>
       <use x="55.615234" xlink:href="#Helvetica-2e"/>
       <use x="83.398438" xlink:href="#Helvetica-37"/>
       <use x="139.013672" xlink:href="#Helvetica-35"/>
      </g>
     </g>
    </g>
    <g id="ytick_5">
     <g id="line2d_8">
      <path clip-path="url(#p16cbaf0d40)" d="M 94.94 28.8 
L 338.4 28.8 
" style="fill:none;stroke:#cccccc;stroke-linecap:round;stroke-width:0.8;"/>
     </g>
     <g id="text_8">
      <!-- 1.0 -->
      <g style="fill:#262626;" transform="translate(60.14 35.973438)scale(0.2 -0.2)">
       <use xlink:href="#Helvetica-31"/>
       <use x="55.615234" xlink:href="#Helvetica-2e"/>
       <use x="83.398438" xlink:href="#Helvetica-30"/>
      </g>
     </g>
    </g>
    <g id="text_9">
     <!-- Probability -->
     <g style="fill:#262626;" transform="translate(39.65875 143.579375)rotate(-90)scale(0.25 -0.25)">
      <defs>
       <path d="M 428 3347 
L 963 3347 
L 963 2769 
Q 1028 2938 1284 3180 
Q 1541 3422 1875 3422 
Q 1891 3422 1928 3419 
Q 1966 3416 2056 3406 
L 2056 2813 
Q 2006 2822 1964 2825 
Q 1922 2828 1872 2828 
Q 1447 2828 1219 2554 
Q 991 2281 991 1925 
L 991 0 
L 428 0 
L 428 3347 
z
" id="Helvetica-72" transform="scale(0.015625)"/>
       <path d="M 369 4606 
L 916 4606 
L 916 2941 
Q 1100 3181 1356 3307 
Q 1613 3434 1913 3434 
Q 2538 3434 2927 3004 
Q 3316 2575 3316 1738 
Q 3316 944 2931 419 
Q 2547 -106 1866 -106 
Q 1484 -106 1222 78 
Q 1066 188 888 428 
L 888 0 
L 369 0 
L 369 4606 
z
M 1831 391 
Q 2288 391 2514 753 
Q 2741 1116 2741 1709 
Q 2741 2238 2514 2584 
Q 2288 2931 1847 2931 
Q 1463 2931 1173 2647 
Q 884 2363 884 1709 
Q 884 1238 1003 944 
Q 1225 391 1831 391 
z
" id="Helvetica-62" transform="scale(0.015625)"/>
       <path d="M 844 891 
Q 844 647 1022 506 
Q 1200 366 1444 366 
Q 1741 366 2019 503 
Q 2488 731 2488 1250 
L 2488 1703 
Q 2384 1638 2221 1594 
Q 2059 1550 1903 1531 
L 1563 1488 
Q 1256 1447 1103 1359 
Q 844 1213 844 891 
z
M 2206 2028 
Q 2400 2053 2466 2191 
Q 2503 2266 2503 2406 
Q 2503 2694 2298 2823 
Q 2094 2953 1713 2953 
Q 1272 2953 1088 2716 
Q 984 2584 953 2325 
L 428 2325 
Q 444 2944 830 3186 
Q 1216 3428 1725 3428 
Q 2316 3428 2684 3203 
Q 3050 2978 3050 2503 
L 3050 575 
Q 3050 488 3086 434 
Q 3122 381 3238 381 
Q 3275 381 3322 386 
Q 3369 391 3422 400 
L 3422 -16 
Q 3291 -53 3222 -62 
Q 3153 -72 3034 -72 
Q 2744 -72 2613 134 
Q 2544 244 2516 444 
Q 2344 219 2022 53 
Q 1700 -113 1313 -113 
Q 847 -113 551 170 
Q 256 453 256 878 
Q 256 1344 547 1600 
Q 838 1856 1309 1916 
L 2206 2028 
z
M 1741 3428 
L 1741 3428 
z
" id="Helvetica-61" transform="scale(0.015625)"/>
       <path d="M 428 4591 
L 991 4591 
L 991 0 
L 428 0 
L 428 4591 
z
" id="Helvetica-6c" transform="scale(0.015625)"/>
       <path d="M 2503 3347 
L 3125 3347 
Q 3006 3025 2597 1878 
Q 2291 1016 2084 472 
Q 1597 -809 1397 -1090 
Q 1197 -1372 709 -1372 
Q 591 -1372 527 -1362 
Q 463 -1353 369 -1328 
L 369 -816 
Q 516 -856 581 -865 
Q 647 -875 697 -875 
Q 853 -875 926 -823 
Q 1000 -772 1050 -697 
Q 1066 -672 1162 -440 
Q 1259 -209 1303 -97 
L 66 3347 
L 703 3347 
L 1600 622 
L 2503 3347 
z
M 1597 3428 
L 1597 3428 
z
" id="Helvetica-79" transform="scale(0.015625)"/>
      </defs>
      <use xlink:href="#Helvetica-50"/>
      <use x="66.699219" xlink:href="#Helvetica-72"/>
      <use x="100" xlink:href="#Helvetica-6f"/>
      <use x="155.615234" xlink:href="#Helvetica-62"/>
      <use x="211.230469" xlink:href="#Helvetica-61"/>
      <use x="266.845703" xlink:href="#Helvetica-62"/>
      <use x="322.460938" xlink:href="#Helvetica-69"/>
      <use x="344.677734" xlink:href="#Helvetica-6c"/>
      <use x="366.894531" xlink:href="#Helvetica-69"/>
      <use x="389.111328" xlink:href="#Helvetica-74"/>
      <use x="416.894531" xlink:href="#Helvetica-79"/>
     </g>
    </g>
   </g>
   <g id="patch_83">
    <path d="M 94.94 141.64 
L 94.94 28.8 
" style="fill:none;stroke:#000000;stroke-linecap:square;stroke-linejoin:miter;"/>
   </g>
  </g>
 </g>
 <defs>
  <clipPath id="p16cbaf0d40">
   <rect height="112.84" width="243.46" x="94.94" y="28.8"/>
  </clipPath>
 </defs>
</svg>
