<?xml version="1.0" encoding="utf-8" standalone="no"?>
<!DOCTYPE svg PUBLIC "-//W3C//DTD SVG 1.1//EN"
  "http://www.w3.org/Graphics/SVG/1.1/DTD/svg11.dtd">
<svg height="216pt" version="1.1" viewBox="0 0 360 216" width="360pt" xmlns="http://www.w3.org/2000/svg" xmlns:xlink="http://www.w3.org/1999/xlink">
 <metadata>
  <rdf:RDF xmlns:cc="http://creativecommons.org/ns#" xmlns:dc="http://purl.org/dc/elements/1.1/" xmlns:rdf="http://www.w3.org/1999/02/22-rdf-syntax-ns#">
   <cc:Work>
    <dc:type rdf:resource="http://purl.org/dc/dcmitype/StillImage"/>
    <dc:date>2022-12-19T19:51:35.035033</dc:date>
    <dc:format>image/svg+xml</dc:format>
    <dc:creator>
     <cc:Agent>
      <dc:title>Matplotlib v3.4.2, https://matplotlib.org/</dc:title>
     </cc:Agent>
    </dc:creator>
   </cc:Work>
  </rdf:RDF>
 </metadata>
 <defs>
  <style type="text/css">*{stroke-linecap:butt;stroke-linejoin:round;}</style>
 </defs>
 <g id="figure_1">
  <g id="patch_1">
   <path d="M 0 216 
L 360 216 
L 360 0 
L 0 0 
z
" style="fill:#ffffff;"/>
  </g>
  <g id="axes_1">
   <g id="patch_2">
    <path d="M 94.94 141.64 
L 338.4 141.64 
L 338.4 28.8 
L 94.94 28.8 
z
" style="fill:#ffffff;"/>
   </g>
   <g id="line2d_1">
    <path clip-path="url(#p3430f1a770)" d="M 94.94 141.64 
L 338.4 141.64 
" style="fill:none;stroke:#000000;stroke-linecap:round;stroke-width:0.5;"/>
   </g>
   <g id="patch_3">
    <path clip-path="url(#p3430f1a770)" d="M 102.72171 131.678894 
L 100.7494 120.939328 
L 98.652583 131.678894 
L 102.72171 131.678894 
z
M 99.829744 117.327699 
L 101.819032 117.327699 
L 106.533333 141.64 
L 104.603469 141.64 
L 103.287653 134.35849 
L 98.148894 134.35849 
L 96.742527 141.64 
L 94.94 141.64 
L 99.829744 117.327699 
z
M 100.740911 117.327699 
L 100.740911 117.327699 
z
" style="fill:#008000;"/>
   </g>
   <g id="patch_4">
    <path clip-path="url(#p3430f1a770)" d="M 106.533333 89.912803 
L 106.533333 93.179183 
L 101.718599 93.179183 
L 101.718599 117.327699 
L 99.754735 117.327699 
L 99.754735 93.179183 
L 94.94 93.179183 
L 94.94 89.912803 
L 106.533333 89.912803 
z
" style="fill:#ff0000;"/>
   </g>
   <g id="patch_5">
    <path clip-path="url(#p3430f1a770)" d="M 101.035611 59.872636 
Q 103.518269 59.872636 104.887718 62.730646 
Q 106.257166 65.582442 106.408062 69.210872 
L 104.682728 69.210872 
Q 104.389478 66.458484 103.512575 64.849301 
Q 102.635673 63.233904 101.052693 63.233904 
Q 99.122369 63.233904 97.935134 66.197536 
Q 96.747899 69.154955 96.747899 75.26861 
Q 96.747899 80.282553 97.818404 83.401512 
Q 98.891755 86.514257 101.018528 86.514257 
Q 102.974476 86.514257 103.999427 83.233759 
Q 104.540373 81.506527 104.807999 78.685796 
L 106.533333 78.685796 
Q 106.302719 83.190267 105.004448 86.240882 
Q 103.447092 89.912803 100.804997 89.912803 
Q 98.527328 89.912803 96.978513 86.899467 
Q 94.94 82.923106 94.94 74.610025 
Q 94.94 68.303765 96.471732 64.265273 
Q 98.125889 59.872636 101.035611 59.872636 
z
M 100.679725 59.872636 
L 100.679725 59.872636 
z
" style="fill:#0000ff;"/>
   </g>
   <g id="patch_6">
    <path clip-path="url(#p3430f1a770)" d="M 100.919108 28.844958 
Q 102.707589 28.844958 104.012322 30.450613 
Q 105.903081 32.756334 106.326013 38.536692 
L 104.62599 38.536692 
Q 104.313627 35.306114 103.337841 33.828912 
Q 102.362055 32.351709 100.87488 32.351709 
Q 99.114042 32.351709 97.908822 35.428144 
Q 96.703602 38.498156 96.703602 44.580378 
Q 96.703602 49.834081 97.695974 53.135308 
Q 98.69111 56.436534 100.935694 56.436534 
Q 102.655068 56.436534 103.782888 54.124391 
Q 104.910709 51.805825 104.935587 46.622771 
L 100.963337 46.622771 
L 100.963337 43.315121 
L 106.533333 43.315121 
L 106.533333 59.089076 
L 105.427627 59.089076 
L 105.012987 55.293308 
Q 104.142243 57.521957 103.467762 58.389011 
Q 102.334413 59.872636 100.590161 59.872636 
Q 98.337283 59.872636 96.711895 56.481493 
Q 94.94 52.223295 94.94 44.798747 
Q 94.94 37.393466 96.667667 33.019661 
Q 98.309641 28.844958 100.919108 28.844958 
z
M 100.634389 28.8 
L 100.634389 28.8 
z
" style="fill:#ffa600;"/>
   </g>
   <g id="patch_7">
    <path clip-path="url(#p3430f1a770)" d="M 114.925219 131.817065 
L 112.952909 121.226469 
L 110.856092 131.817065 
L 114.925219 131.817065 
z
M 112.033252 117.664937 
L 114.022541 117.664937 
L 118.736842 141.64 
L 116.806978 141.64 
L 115.491162 134.459492 
L 110.352403 134.459492 
L 108.946036 141.64 
L 107.143509 141.64 
L 112.033252 117.664937 
z
M 112.94442 117.664937 
L 112.94442 117.664937 
z
" style="fill:#008000;"/>
   </g>
   <g id="patch_8">
    <path clip-path="url(#p3430f1a770)" d="M 118.736842 89.461423 
L 118.736842 92.821763 
L 113.922107 92.821763 
L 113.922107 117.664937 
L 111.958243 117.664937 
L 111.958243 92.821763 
L 107.143509 92.821763 
L 107.143509 89.461423 
L 118.736842 89.461423 
z
" style="fill:#ff0000;"/>
   </g>
   <g id="patch_9">
    <path clip-path="url(#p3430f1a770)" d="M 113.239119 60.168368 
Q 115.721778 60.168368 117.091227 62.955298 
Q 118.460675 65.736169 118.61157 69.274358 
L 116.886236 69.274358 
Q 116.592987 66.590424 115.716084 65.021261 
Q 114.839182 63.44604 113.256202 63.44604 
Q 111.325878 63.44604 110.138643 66.335965 
Q 108.951408 69.219831 108.951408 75.181437 
Q 108.951408 80.070681 110.021913 83.11207 
Q 111.095264 86.1474 113.222037 86.1474 
Q 115.177985 86.1474 116.202936 82.948489 
Q 116.743882 81.264214 117.011508 78.513636 
L 118.736842 78.513636 
Q 118.506228 82.906079 117.207957 85.880824 
Q 115.650601 89.461423 113.008505 89.461423 
Q 110.730837 89.461423 109.182022 86.523029 
Q 107.143509 82.645562 107.143509 74.539232 
Q 107.143509 68.389811 108.675241 64.451758 
Q 110.329398 60.168368 113.239119 60.168368 
z
M 112.883234 60.168368 
L 112.883234 60.168368 
z
" style="fill:#0000ff;"/>
   </g>
   <g id="patch_10">
    <path clip-path="url(#p3430f1a770)" d="M 113.122617 28.845386 
Q 114.911097 28.845386 116.215831 30.466323 
Q 118.106589 32.793988 118.529522 38.629361 
L 116.829498 38.629361 
Q 116.517136 35.368036 115.54135 33.876774 
Q 114.565564 32.385512 113.078389 32.385512 
Q 111.317551 32.385512 110.112331 35.491227 
Q 108.907111 38.590458 108.907111 44.730566 
Q 108.907111 50.034272 109.899482 53.366918 
Q 110.894618 56.699564 113.139203 56.699564 
Q 114.858576 56.699564 115.986397 54.365415 
Q 117.114218 52.024782 117.139096 46.792398 
L 113.166845 46.792398 
L 113.166845 43.453268 
L 118.736842 43.453268 
L 118.736842 59.377351 
L 117.631136 59.377351 
L 117.216496 55.545457 
Q 116.345752 57.795317 115.671271 58.670623 
Q 114.537921 60.168368 112.793669 60.168368 
Q 110.540792 60.168368 108.915404 56.74495 
Q 107.143509 52.446225 107.143509 44.951014 
Q 107.143509 37.475254 108.871175 33.059822 
Q 110.51315 28.845386 113.122617 28.845386 
z
M 112.837898 28.8 
L 112.837898 28.8 
z
" style="fill:#ffa600;"/>
   </g>
   <g id="patch_11">
    <path clip-path="url(#p3430f1a770)" d="M 127.128728 131.793682 
L 125.156418 121.177876 
L 123.059601 131.793682 
L 127.128728 131.793682 
z
M 124.236761 117.607866 
L 126.226049 117.607866 
L 130.940351 141.64 
L 129.010487 141.64 
L 127.69467 134.442399 
L 122.555912 134.442399 
L 121.149545 141.64 
L 119.347018 141.64 
L 124.236761 117.607866 
z
M 125.147929 117.607866 
L 125.147929 117.607866 
z
" style="fill:#008000;"/>
   </g>
   <g id="patch_12">
    <path clip-path="url(#p3430f1a770)" d="M 130.940351 90.40569 
L 130.940351 93.646725 
L 126.125616 93.646725 
L 126.125616 117.607866 
L 124.161752 117.607866 
L 124.161752 93.646725 
L 119.347018 93.646725 
L 119.347018 90.40569 
L 130.940351 90.40569 
z
" style="fill:#ff0000;"/>
   </g>
   <g id="patch_13">
    <path clip-path="url(#p3430f1a770)" d="M 125.442628 60.199498 
Q 127.925287 60.199498 129.294735 63.073303 
Q 130.664184 65.940861 130.815079 69.589344 
L 129.089745 69.589344 
Q 128.796495 66.821745 127.919593 65.203668 
Q 127.04269 63.579343 125.459711 63.579343 
Q 123.529387 63.579343 122.342152 66.559354 
Q 121.154917 69.533118 121.154917 75.680562 
Q 121.154917 80.722216 122.225421 83.858412 
Q 123.298773 86.988361 125.425546 86.988361 
Q 127.381494 86.988361 128.406445 83.689732 
Q 128.947391 81.952954 129.215017 79.116634 
L 130.940351 79.116634 
Q 130.709737 83.646001 129.411466 86.713475 
Q 127.85411 90.40569 125.212014 90.40569 
Q 122.934346 90.40569 121.385531 87.3757 
Q 119.347018 83.377362 119.347018 75.018337 
Q 119.347018 68.677223 120.87875 64.616412 
Q 122.532907 60.199498 125.442628 60.199498 
z
M 125.086742 60.199498 
L 125.086742 60.199498 
z
" style="fill:#0000ff;"/>
   </g>
   <g id="patch_14">
    <path clip-path="url(#p3430f1a770)" d="M 125.326126 28.845431 
Q 127.114606 28.845431 128.41934 30.467977 
Q 130.310098 32.797952 130.733031 38.639115 
L 129.033007 38.639115 
Q 128.720645 35.374554 127.744859 33.881812 
Q 126.769073 32.38907 125.281898 32.38907 
Q 123.52106 32.38907 122.31584 35.497867 
Q 121.11062 38.600174 121.11062 44.746376 
Q 121.11062 50.055344 122.102991 53.391298 
Q 123.098127 56.727251 125.342711 56.727251 
Q 127.062085 56.727251 128.189906 54.390786 
Q 129.317726 52.04783 129.342605 46.810254 
L 125.370354 46.810254 
L 125.370354 43.46781 
L 130.940351 43.46781 
L 130.940351 59.407696 
L 129.834644 59.407696 
L 129.420004 55.571999 
Q 128.54926 57.824091 127.874779 58.700266 
Q 126.74143 60.199498 124.997178 60.199498 
Q 122.744301 60.199498 121.118912 56.772682 
Q 119.347018 52.469692 119.347018 44.967042 
Q 119.347018 37.483863 121.074684 33.064049 
Q 122.716658 28.845431 125.326126 28.845431 
z
M 125.041406 28.8 
L 125.041406 28.8 
z
" style="fill:#ffa600;"/>
   </g>
   <g id="patch_15">
    <path clip-path="url(#p3430f1a770)" d="M 139.332237 131.630002 
L 137.359927 120.837724 
L 135.26311 131.630002 
L 139.332237 131.630002 
z
M 136.44027 117.208368 
L 138.429558 117.208368 
L 143.14386 141.64 
L 141.213996 141.64 
L 139.898179 134.32275 
L 134.759421 134.32275 
L 133.353053 141.64 
L 131.550526 141.64 
L 136.44027 117.208368 
z
M 137.351438 117.208368 
L 137.351438 117.208368 
z
" style="fill:#008000;"/>
   </g>
   <g id="patch_16">
    <path clip-path="url(#p3430f1a770)" d="M 143.14386 89.518494 
L 143.14386 92.817636 
L 138.329125 92.817636 
L 138.329125 117.208368 
L 136.365261 117.208368 
L 136.365261 92.817636 
L 131.550526 92.817636 
L 131.550526 89.518494 
L 143.14386 89.518494 
z
" style="fill:#ff0000;"/>
   </g>
   <g id="patch_17">
    <path clip-path="url(#p3430f1a770)" d="M 137.646137 59.76887 
Q 140.128796 59.76887 141.498244 62.599238 
Q 142.867692 65.423452 143.018588 69.016788 
L 141.293254 69.016788 
Q 141.000004 66.291021 140.123102 64.697401 
Q 139.246199 63.097629 137.66322 63.097629 
Q 135.732895 63.097629 134.545661 66.032597 
Q 133.358426 68.961412 133.358426 75.015937 
Q 133.358426 79.981386 134.42893 83.070178 
Q 135.502281 86.152818 137.629054 86.152818 
Q 139.585002 86.152818 140.609953 82.904048 
Q 141.1509 81.193522 141.418526 78.400072 
L 143.14386 78.400072 
Q 142.913246 82.860977 141.614975 85.882087 
Q 140.057619 89.518494 137.415523 89.518494 
Q 135.137854 89.518494 133.58904 86.534302 
Q 131.550526 82.596399 131.550526 74.363722 
Q 131.550526 68.118454 133.082258 64.119022 
Q 134.736415 59.76887 137.646137 59.76887 
z
M 137.290251 59.76887 
L 137.290251 59.76887 
z
" style="fill:#0000ff;"/>
   </g>
   <g id="patch_18">
    <path clip-path="url(#p3430f1a770)" d="M 137.529635 28.844808 
Q 139.318115 28.844808 140.622849 30.445101 
Q 142.513607 32.743122 142.93654 38.504177 
L 141.236516 38.504177 
Q 140.924154 35.284387 139.948368 33.812118 
Q 138.972582 32.339848 137.485406 32.339848 
Q 135.724569 32.339848 134.519348 35.40601 
Q 133.314128 38.46577 133.314128 44.52768 
Q 133.314128 49.763838 134.3065 53.054041 
Q 135.301636 56.344243 137.54622 56.344243 
Q 139.265594 56.344243 140.393415 54.039821 
Q 141.521235 51.728998 141.546114 46.563252 
L 137.573863 46.563252 
L 137.573863 43.266649 
L 143.14386 43.266649 
L 143.14386 58.987927 
L 142.038153 58.987927 
L 141.623513 55.204835 
Q 140.752769 57.426041 140.078288 58.2902 
Q 138.944939 59.76887 137.200687 59.76887 
Q 134.94781 59.76887 133.322421 56.389051 
Q 131.550526 52.145074 131.550526 44.74532 
Q 131.550526 37.364768 133.278193 33.00557 
Q 134.920167 28.844808 137.529635 28.844808 
z
M 137.244915 28.8 
L 137.244915 28.8 
z
" style="fill:#ffa600;"/>
   </g>
   <g id="patch_19">
    <path clip-path="url(#p3430f1a770)" d="M 151.535745 131.698025 
L 149.563435 120.979086 
L 147.466618 131.698025 
L 151.535745 131.698025 
z
M 148.643779 117.374393 
L 150.633067 117.374393 
L 155.347368 141.64 
L 153.417504 141.64 
L 152.101688 134.372475 
L 146.962929 134.372475 
L 145.556562 141.64 
L 143.754035 141.64 
L 148.643779 117.374393 
z
M 149.554946 117.374393 
L 149.554946 117.374393 
z
" style="fill:#008000;"/>
   </g>
   <g id="patch_20">
    <path clip-path="url(#p3430f1a770)" d="M 155.347368 89.726025 
L 155.347368 93.020222 
L 150.532634 93.020222 
L 150.532634 117.374393 
L 148.56877 117.374393 
L 148.56877 93.020222 
L 143.754035 93.020222 
L 143.754035 89.726025 
L 155.347368 89.726025 
z
" style="fill:#ff0000;"/>
   </g>
   <g id="patch_21">
    <path clip-path="url(#p3430f1a770)" d="M 149.849646 59.934895 
Q 152.332305 59.934895 153.701753 62.769212 
Q 155.071201 65.597367 155.222097 69.195716 
L 153.496763 69.195716 
Q 153.203513 66.466146 152.32661 64.870303 
Q 151.449708 63.268298 149.866728 63.268298 
Q 147.936404 63.268298 146.749169 66.207361 
Q 145.561935 69.140262 145.561935 75.203234 
Q 145.561935 80.175611 146.632439 83.268713 
Q 147.70579 86.355653 149.832563 86.355653 
Q 151.788511 86.355653 152.813462 83.102351 
Q 153.354408 81.389438 153.622034 78.592091 
L 155.347368 78.592091 
Q 155.116754 83.05922 153.818483 86.084545 
Q 152.261127 89.726025 149.619032 89.726025 
Q 147.341363 89.726025 145.792549 86.73767 
Q 143.754035 82.794273 143.754035 74.550109 
Q 143.754035 68.296129 145.285767 64.291116 
Q 146.939924 59.934895 149.849646 59.934895 
z
M 149.49376 59.934895 
L 149.49376 59.934895 
z
" style="fill:#0000ff;"/>
   </g>
   <g id="patch_22">
    <path clip-path="url(#p3430f1a770)" d="M 149.733143 28.845048 
Q 151.521624 28.845048 152.826357 30.453921 
Q 154.717116 32.764261 155.140048 38.556201 
L 153.440025 38.556201 
Q 153.127662 35.31915 152.151876 33.838988 
Q 151.17609 32.358825 149.688915 32.358825 
Q 147.928077 32.358825 146.722857 35.441425 
Q 145.517637 38.517588 145.517637 44.611996 
Q 145.517637 49.876226 146.510009 53.184068 
Q 147.505145 56.491909 149.749729 56.491909 
Q 151.469103 56.491909 152.596923 54.175133 
Q 153.724744 51.851921 153.749622 46.658482 
L 149.777372 46.658482 
L 149.777372 43.344205 
L 155.347368 43.344205 
L 155.347368 59.149766 
L 154.241662 59.149766 
L 153.827022 55.346392 
Q 152.956278 57.579506 152.281797 58.448297 
Q 151.148448 59.934895 149.404196 59.934895 
Q 147.151319 59.934895 145.52593 56.536957 
Q 143.754035 52.270228 143.754035 44.830803 
Q 143.754035 37.410684 145.481702 33.028116 
Q 147.123676 28.845048 149.733143 28.845048 
z
M 149.448424 28.8 
L 149.448424 28.8 
z
" style="fill:#ffa600;"/>
   </g>
   <g id="patch_23">
    <path clip-path="url(#p3430f1a770)" d="M 163.739254 131.389796 
L 161.766944 120.33854 
L 159.670127 131.389796 
L 163.739254 131.389796 
z
M 160.847288 116.622092 
L 162.836576 116.622092 
L 167.550877 141.64 
L 165.621013 141.64 
L 164.305197 134.147161 
L 159.166438 134.147161 
L 157.760071 141.64 
L 155.957544 141.64 
L 160.847288 116.622092 
z
M 161.758455 116.622092 
L 161.758455 116.622092 
z
" style="fill:#008000;"/>
   </g>
   <g id="patch_24">
    <path clip-path="url(#p3430f1a770)" d="M 167.550877 89.279833 
L 167.550877 92.537558 
L 162.736143 92.537558 
L 162.736143 116.622092 
L 160.772279 116.622092 
L 160.772279 92.537558 
L 155.957544 92.537558 
L 155.957544 89.279833 
L 167.550877 89.279833 
z
" style="fill:#ff0000;"/>
   </g>
   <g id="patch_25">
    <path clip-path="url(#p3430f1a770)" d="M 162.053155 59.250042 
Q 164.535813 59.250042 165.905262 62.107064 
Q 167.27471 64.957876 167.425605 68.585052 
L 165.700271 68.585052 
Q 165.407022 65.833615 164.530119 64.224988 
Q 163.653217 62.610149 162.070237 62.610149 
Q 160.139913 62.610149 158.952678 65.572757 
Q 157.765443 68.529154 157.765443 74.640698 
Q 157.765443 79.652909 158.835948 82.77079 
Q 159.909299 85.88246 162.036072 85.88246 
Q 163.99202 85.88246 165.016971 82.603095 
Q 165.557917 80.87646 165.825543 78.056703 
L 167.550877 78.056703 
Q 167.320263 82.559619 166.021992 85.60918 
Q 164.464636 89.279833 161.822541 89.279833 
Q 159.544872 89.279833 157.996057 86.267537 
Q 155.957544 82.292549 155.957544 73.98234 
Q 155.957544 67.678258 157.489276 63.641161 
Q 159.143433 59.250042 162.053155 59.250042 
z
M 161.697269 59.250042 
L 161.697269 59.250042 
z
" style="fill:#0000ff;"/>
   </g>
   <g id="patch_26">
    <path clip-path="url(#p3430f1a770)" d="M 161.936652 28.844058 
Q 163.725132 28.844058 165.029866 30.41754 
Q 166.920624 32.677062 167.343557 38.341601 
L 165.643533 38.341601 
Q 165.331171 35.175753 164.355385 33.728149 
Q 163.379599 32.280544 161.892424 32.280544 
Q 160.131586 32.280544 158.926366 35.295338 
Q 157.721146 38.303837 157.721146 44.26419 
Q 157.721146 49.412627 158.713517 52.647707 
Q 159.708653 55.882788 161.953238 55.882788 
Q 163.672611 55.882788 164.800432 53.616973 
Q 165.928253 51.344864 165.953131 46.265661 
L 161.98088 46.265661 
L 161.98088 43.024286 
L 167.550877 43.024286 
L 167.550877 58.482182 
L 166.445171 58.482182 
L 166.030531 54.762468 
Q 165.159787 56.946463 164.485306 57.796144 
Q 163.351957 59.250042 161.607704 59.250042 
Q 159.354827 59.250042 157.729439 55.926846 
Q 155.957544 51.753969 155.957544 44.478184 
Q 155.957544 37.221281 157.68521 32.935113 
Q 159.327185 28.844058 161.936652 28.844058 
z
M 161.651933 28.8 
L 161.651933 28.8 
z
" style="fill:#ffa600;"/>
   </g>
   <g id="patch_27">
    <path clip-path="url(#p3430f1a770)" d="M 175.942763 131.630002 
L 173.970453 120.837724 
L 171.873636 131.630002 
L 175.942763 131.630002 
z
M 173.050796 117.208368 
L 175.040084 117.208368 
L 179.754386 141.64 
L 177.824522 141.64 
L 176.508705 134.32275 
L 171.369947 134.32275 
L 169.96358 141.64 
L 168.161053 141.64 
L 173.050796 117.208368 
z
M 173.961964 117.208368 
L 173.961964 117.208368 
z
" style="fill:#008000;"/>
   </g>
   <g id="patch_28">
    <path clip-path="url(#p3430f1a770)" d="M 179.754386 89.668954 
L 179.754386 92.950169 
L 174.939651 92.950169 
L 174.939651 117.208368 
L 172.975787 117.208368 
L 172.975787 92.950169 
L 168.161053 92.950169 
L 168.161053 89.668954 
L 179.754386 89.668954 
z
" style="fill:#ff0000;"/>
   </g>
   <g id="patch_29">
    <path clip-path="url(#p3430f1a770)" d="M 174.256663 59.322678 
Q 176.739322 59.322678 178.10877 62.209811 
Q 179.478219 65.090667 179.629114 68.75607 
L 177.90378 68.75607 
Q 177.61053 65.975636 176.733628 64.350055 
Q 175.856726 62.718197 174.273746 62.718197 
Q 172.343422 62.718197 171.156187 65.712028 
Q 169.968952 68.699583 169.968952 74.875537 
Q 169.968952 79.940572 171.039456 83.091312 
Q 172.112808 86.235777 174.239581 86.235777 
Q 176.195529 86.235777 177.22048 82.92185 
Q 177.761426 81.177018 178.029052 78.327543 
L 179.754386 78.327543 
Q 179.523772 82.877916 178.225501 85.959616 
Q 176.668145 89.668954 174.026049 89.668954 
Q 171.748381 89.668954 170.199566 86.624912 
Q 168.161053 82.608031 168.161053 74.210241 
Q 168.161053 67.83972 169.692785 63.760075 
Q 171.346942 59.322678 174.256663 59.322678 
z
M 173.900778 59.322678 
L 173.900778 59.322678 
z
" style="fill:#0000ff;"/>
   </g>
   <g id="patch_30">
    <path clip-path="url(#p3430f1a770)" d="M 174.140161 28.844163 
Q 175.928641 28.844163 177.233375 30.421399 
Q 179.124133 32.68631 179.547066 38.364361 
L 177.847042 38.364361 
Q 177.53468 35.190962 176.558894 33.739904 
Q 175.583108 32.288847 174.095933 32.288847 
Q 172.335095 32.288847 171.129875 35.310832 
Q 169.924655 38.326508 169.924655 44.301079 
Q 169.924655 49.461796 170.917026 52.704594 
Q 171.912162 55.947392 174.156746 55.947392 
Q 175.87612 55.947392 177.003941 53.676172 
Q 178.131762 51.398642 178.15664 46.307323 
L 174.184389 46.307323 
L 174.184389 43.058217 
L 179.754386 43.058217 
L 179.754386 58.552986 
L 178.648679 58.552986 
L 178.234039 54.8244 
Q 177.363296 57.013604 176.688815 57.865311 
Q 175.555465 59.322678 173.811213 59.322678 
Q 171.558336 59.322678 169.932947 55.991555 
Q 168.161053 51.808724 168.161053 44.515583 
Q 168.161053 37.241369 169.888719 32.944977 
Q 171.530693 28.844163 174.140161 28.844163 
z
M 173.855441 28.8 
L 173.855441 28.8 
z
" style="fill:#ffa600;"/>
   </g>
   <g id="patch_31">
    <path clip-path="url(#p3430f1a770)" d="M 188.146272 131.661888 
L 186.173962 120.903987 
L 184.077145 131.661888 
L 188.146272 131.661888 
z
M 185.254305 117.286192 
L 187.243593 117.286192 
L 191.957895 141.64 
L 190.028031 141.64 
L 188.712214 134.346059 
L 183.573456 134.346059 
L 182.167088 141.64 
L 180.364561 141.64 
L 185.254305 117.286192 
z
M 186.165473 117.286192 
L 186.165473 117.286192 
z
" style="fill:#008000;"/>
   </g>
   <g id="patch_32">
    <path clip-path="url(#p3430f1a770)" d="M 191.957895 89.89205 
L 191.957895 93.155957 
L 187.14316 93.155957 
L 187.14316 117.286192 
L 185.179296 117.286192 
L 185.179296 93.155957 
L 180.364561 93.155957 
L 180.364561 89.89205 
L 191.957895 89.89205 
z
" style="fill:#ff0000;"/>
   </g>
   <g id="patch_33">
    <path clip-path="url(#p3430f1a770)" d="M 186.460172 60.19431 
Q 188.942831 60.19431 190.312279 63.019741 
Q 191.681727 65.83903 191.832623 69.4261 
L 190.107289 69.4261 
Q 189.814039 66.705086 188.937137 65.114246 
Q 188.060234 63.517263 186.477255 63.517263 
Q 184.54693 63.517263 183.359696 66.447112 
Q 182.172461 69.370819 182.172461 75.414786 
Q 182.172461 80.371575 183.242965 83.45498 
Q 184.316316 86.532244 186.44309 86.532244 
Q 188.399038 86.532244 189.423988 83.28914 
Q 189.964935 81.581597 190.232561 78.793019 
L 191.957895 78.793019 
Q 191.727281 83.246144 190.42901 86.261985 
Q 188.871654 89.89205 186.229558 89.89205 
Q 183.951889 89.89205 182.403075 86.913063 
Q 180.364561 82.982028 180.364561 74.763708 
Q 180.364561 68.529332 181.896294 64.536875 
Q 183.55045 60.19431 186.460172 60.19431 
z
M 186.104286 60.19431 
L 186.104286 60.19431 
z
" style="fill:#0000ff;"/>
   </g>
   <g id="patch_34">
    <path clip-path="url(#p3430f1a770)" d="M 186.34367 28.845424 
Q 188.13215 28.845424 189.436884 30.467701 
Q 191.327642 32.797291 191.750575 38.637489 
L 190.050551 38.637489 
Q 189.738189 35.373467 188.762403 33.880972 
Q 187.786617 32.388477 186.299441 32.388477 
Q 184.538604 32.388477 183.333384 35.496761 
Q 182.128163 38.598555 182.128163 44.743741 
Q 182.128163 50.051832 183.120535 53.387234 
Q 184.115671 56.722636 186.360255 56.722636 
Q 188.079629 56.722636 189.20745 54.386557 
Q 190.33527 52.043989 190.360149 46.807278 
L 186.387898 46.807278 
L 186.387898 43.465386 
L 191.957895 43.465386 
L 191.957895 59.402638 
L 190.852188 59.402638 
L 190.437548 55.567575 
Q 189.566804 57.819296 188.892323 58.695325 
Q 187.758974 60.19431 186.014722 60.19431 
Q 183.761845 60.19431 182.136456 56.76806 
Q 180.364561 52.465781 180.364561 44.964371 
Q 180.364561 37.482428 182.092228 33.063345 
Q 183.734202 28.845424 186.34367 28.845424 
z
M 186.05895 28.8 
L 186.05895 28.8 
z
" style="fill:#ffa600;"/>
   </g>
   <g id="patch_35">
    <path clip-path="url(#p3430f1a770)" d="M 200.34978 131.768174 
L 198.377471 121.124865 
L 196.280653 131.768174 
L 200.34978 131.768174 
z
M 197.457814 117.545607 
L 199.447102 117.545607 
L 204.161404 141.64 
L 202.231539 141.64 
L 200.915723 134.423753 
L 195.776964 134.423753 
L 194.370597 141.64 
L 192.56807 141.64 
L 197.457814 117.545607 
z
M 198.368981 117.545607 
L 198.368981 117.545607 
z
" style="fill:#008000;"/>
   </g>
   <g id="patch_36">
    <path clip-path="url(#p3430f1a770)" d="M 204.161404 89.907615 
L 204.161404 93.200576 
L 199.346669 93.200576 
L 199.346669 117.545607 
L 197.382805 117.545607 
L 197.382805 93.200576 
L 192.56807 93.200576 
L 192.56807 89.907615 
L 204.161404 89.907615 
z
" style="fill:#ff0000;"/>
   </g>
   <g id="patch_37">
    <path clip-path="url(#p3430f1a770)" d="M 198.663681 59.784435 
Q 201.14634 59.784435 202.515788 62.650343 
Q 203.885236 65.51002 204.036132 69.148476 
L 202.310798 69.148476 
Q 202.017548 66.388483 201.140645 64.774852 
Q 200.263743 63.154992 198.680763 63.154992 
Q 196.750439 63.154992 195.563204 66.126813 
Q 194.37597 69.092404 194.37597 75.222954 
Q 194.37597 80.250753 195.446474 83.37833 
Q 196.519825 86.499677 198.646598 86.499677 
Q 200.602546 86.499677 201.627497 83.210114 
Q 202.168443 81.478109 202.43607 78.649583 
L 204.161404 78.649583 
Q 203.93079 83.166502 202.632518 86.225547 
Q 201.075163 89.907615 198.433067 89.907615 
Q 196.155398 89.907615 194.606584 86.885952 
Q 192.56807 82.898602 192.56807 74.562549 
Q 192.56807 68.238862 194.099802 64.18921 
Q 195.753959 59.784435 198.663681 59.784435 
z
M 198.307795 59.784435 
L 198.307795 59.784435 
z
" style="fill:#0000ff;"/>
   </g>
   <g id="patch_38">
    <path clip-path="url(#p3430f1a770)" d="M 198.547178 28.844831 
Q 200.335659 28.844831 201.640393 30.445928 
Q 203.531151 32.745104 203.954084 38.509054 
L 202.25406 38.509054 
Q 201.941698 35.287646 200.965912 33.814637 
Q 199.990125 32.341627 198.50295 32.341627 
Q 196.742112 32.341627 195.536892 35.40933 
Q 194.331672 38.470628 194.331672 44.535584 
Q 194.331672 49.774375 195.324044 53.066231 
Q 196.31918 56.358087 198.563764 56.358087 
Q 200.283138 56.358087 201.410958 54.052507 
Q 202.538779 51.740522 202.563658 46.57218 
L 198.591407 46.57218 
L 198.591407 43.27392 
L 204.161404 43.27392 
L 204.161404 59.0031 
L 203.055697 59.0031 
L 202.641057 55.218106 
Q 201.770313 57.440429 201.095832 58.305021 
Q 199.962483 59.784435 198.218231 59.784435 
Q 195.965354 59.784435 194.339965 56.402918 
Q 192.56807 52.156808 192.56807 44.753334 
Q 192.56807 37.369073 194.295737 33.007684 
Q 195.937711 28.844831 198.547178 28.844831 
z
M 198.262459 28.8 
L 198.262459 28.8 
z
" style="fill:#ffa600;"/>
   </g>
   <g id="patch_39">
    <path clip-path="url(#p3430f1a770)" d="M 212.553289 131.674642 
L 210.580979 120.930493 
L 208.484162 131.674642 
L 212.553289 131.674642 
z
M 209.661323 117.317322 
L 211.650611 117.317322 
L 216.364912 141.64 
L 214.435048 141.64 
L 213.119232 134.355382 
L 207.980473 134.355382 
L 206.574106 141.64 
L 204.771579 141.64 
L 209.661323 117.317322 
z
M 210.57249 117.317322 
L 210.57249 117.317322 
z
" style="fill:#008000;"/>
   </g>
   <g id="patch_40">
    <path clip-path="url(#p3430f1a770)" d="M 216.364912 89.876485 
L 216.364912 93.145956 
L 211.550178 93.145956 
L 211.550178 117.317322 
L 209.586314 117.317322 
L 209.586314 93.145956 
L 204.771579 93.145956 
L 204.771579 89.876485 
L 216.364912 89.876485 
z
" style="fill:#ff0000;"/>
   </g>
   <g id="patch_41">
    <path clip-path="url(#p3430f1a770)" d="M 210.86719 59.836318 
Q 213.349848 59.836318 214.719297 62.694328 
Q 216.088745 65.546124 216.239641 69.174554 
L 214.514307 69.174554 
Q 214.221057 66.422166 213.344154 64.812983 
Q 212.467252 63.197586 210.884272 63.197586 
Q 208.953948 63.197586 207.766713 66.161218 
Q 206.579478 69.118637 206.579478 75.232292 
Q 206.579478 80.246235 207.649983 83.365194 
Q 208.723334 86.477939 210.850107 86.477939 
Q 212.806055 86.477939 213.831006 83.197441 
Q 214.371952 81.470209 214.639578 78.649478 
L 216.364912 78.649478 
Q 216.134298 83.153949 214.836027 86.204564 
Q 213.278671 89.876485 210.636576 89.876485 
Q 208.358907 89.876485 206.810092 86.863149 
Q 204.771579 82.886788 204.771579 74.573707 
Q 204.771579 68.267447 206.303311 64.228955 
Q 207.957468 59.836318 210.86719 59.836318 
z
M 210.511304 59.836318 
L 210.511304 59.836318 
z
" style="fill:#0000ff;"/>
   </g>
   <g id="patch_42">
    <path clip-path="url(#p3430f1a770)" d="M 210.750687 28.844906 
Q 212.539168 28.844906 213.843901 30.448684 
Q 215.73466 32.75171 216.157592 38.525312 
L 214.457568 38.525312 
Q 214.145206 35.29851 213.16942 33.823034 
Q 212.193634 32.347558 210.706459 32.347558 
Q 208.945621 32.347558 207.740401 35.420397 
Q 206.535181 38.486821 206.535181 44.561933 
Q 206.535181 49.809496 207.527553 53.106864 
Q 208.522688 56.404232 210.767273 56.404232 
Q 212.486647 56.404232 213.614467 54.094792 
Q 214.742288 51.778936 214.767166 46.601939 
L 210.794915 46.601939 
L 210.794915 43.298156 
L 216.364912 43.298156 
L 216.364912 59.053674 
L 215.259206 59.053674 
L 214.844566 55.262342 
Q 213.973822 57.488387 213.299341 58.354427 
Q 212.165992 59.836318 210.421739 59.836318 
Q 208.168862 59.836318 206.543474 56.449138 
Q 204.771579 52.195918 204.771579 44.780047 
Q 204.771579 37.383422 206.499245 33.014729 
Q 208.14122 28.844906 210.750687 28.844906 
z
M 210.465968 28.8 
L 210.465968 28.8 
z
" style="fill:#ffa600;"/>
   </g>
   <g id="patch_43">
    <path clip-path="url(#p3430f1a770)" d="M 224.756798 131.530094 
L 222.784488 120.630099 
L 220.687671 131.530094 
L 224.756798 131.530094 
z
M 221.864831 116.964519 
L 223.85412 116.964519 
L 228.568421 141.64 
L 226.638557 141.64 
L 225.32274 134.249718 
L 220.183982 134.249718 
L 218.777615 141.64 
L 216.975088 141.64 
L 221.864831 116.964519 
z
M 222.775999 116.964519 
L 222.775999 116.964519 
z
" style="fill:#008000;"/>
   </g>
   <g id="patch_44">
    <path clip-path="url(#p3430f1a770)" d="M 228.568421 89.233138 
L 228.568421 92.537225 
L 223.753686 92.537225 
L 223.753686 116.964519 
L 221.789822 116.964519 
L 221.789822 92.537225 
L 216.975088 92.537225 
L 216.975088 89.233138 
L 228.568421 89.233138 
z
" style="fill:#ff0000;"/>
   </g>
   <g id="patch_45">
    <path clip-path="url(#p3430f1a770)" d="M 223.070698 59.696234 
Q 225.553357 59.696234 226.922805 62.506364 
Q 228.292254 65.310384 228.443149 68.878027 
L 226.717815 68.878027 
Q 226.424565 66.17175 225.547663 64.589525 
Q 224.670761 63.001191 223.087781 63.001191 
Q 221.157457 63.001191 219.970222 65.915173 
Q 218.782987 68.823046 218.782987 74.834279 
Q 218.782987 79.764224 219.853491 82.83093 
Q 220.926843 85.891528 223.053616 85.891528 
Q 225.009564 85.891528 226.034515 82.665988 
Q 226.575461 80.967692 226.843087 78.194217 
L 228.568421 78.194217 
Q 228.337807 82.623225 227.039536 85.622733 
Q 225.48218 89.233138 222.840084 89.233138 
Q 220.562416 89.233138 219.013601 86.270284 
Q 216.975088 82.360539 216.975088 74.186728 
Q 216.975088 67.986116 218.50682 64.015281 
Q 220.160977 59.696234 223.070698 59.696234 
z
M 222.714813 59.696234 
L 222.714813 59.696234 
z
" style="fill:#0000ff;"/>
   </g>
   <g id="patch_46">
    <path clip-path="url(#p3430f1a770)" d="M 222.954196 28.844703 
Q 224.742676 28.844703 226.04741 30.441243 
Q 227.938168 32.733874 228.361101 38.481416 
L 226.661077 38.481416 
Q 226.348715 35.269178 225.372929 33.800362 
Q 224.397143 32.331546 222.909968 32.331546 
Q 221.14913 32.331546 219.94391 35.390515 
Q 218.73869 38.443099 218.73869 44.490791 
Q 218.73869 49.714669 219.731061 52.997154 
Q 220.726197 56.27964 222.970782 56.27964 
Q 224.690155 56.27964 225.817976 53.980623 
Q 226.945797 51.675219 226.970675 46.52159 
L 222.998424 46.52159 
L 222.998424 43.232718 
L 228.568421 43.232718 
L 228.568421 58.917123 
L 227.462714 58.917123 
L 227.048075 55.142903 
Q 226.177331 57.3589 225.50285 58.221032 
Q 224.3695 59.696234 222.625248 59.696234 
Q 220.372371 59.696234 218.746982 56.324343 
Q 216.975088 52.09032 216.975088 44.707921 
Q 216.975088 37.34468 218.702754 32.995706 
Q 220.344728 28.844703 222.954196 28.844703 
z
M 222.669477 28.8 
L 222.669477 28.8 
z
" style="fill:#ffa600;"/>
   </g>
   <g id="patch_47">
    <path clip-path="url(#p3430f1a770)" d="M 236.960307 131.549225 
L 234.987997 120.669857 
L 232.89118 131.549225 
L 236.960307 131.549225 
z
M 234.06834 117.011213 
L 236.057628 117.011213 
L 240.77193 141.64 
L 238.842066 141.64 
L 237.526249 134.263703 
L 232.387491 134.263703 
L 230.981124 141.64 
L 229.178596 141.64 
L 234.06834 117.011213 
z
M 234.979508 117.011213 
L 234.979508 117.011213 
z
" style="fill:#008000;"/>
   </g>
   <g id="patch_48">
    <path clip-path="url(#p3430f1a770)" d="M 240.77193 89.508117 
L 240.77193 92.785005 
L 235.957195 92.785005 
L 235.957195 117.011213 
L 233.993331 117.011213 
L 233.993331 92.785005 
L 229.178596 92.785005 
L 229.178596 89.508117 
L 240.77193 89.508117 
z
" style="fill:#ff0000;"/>
   </g>
   <g id="patch_49">
    <path clip-path="url(#p3430f1a770)" d="M 235.274207 59.919331 
Q 237.756866 59.919331 239.126314 62.734396 
Q 240.495763 65.543342 240.646658 69.117251 
L 238.921324 69.117251 
Q 238.628074 66.406221 237.751172 64.821216 
Q 236.874269 63.230092 235.29129 63.230092 
Q 233.360966 63.230092 232.173731 66.149193 
Q 230.986496 69.062174 230.986496 75.083966 
Q 230.986496 80.02257 232.057 83.094664 
Q 233.130352 86.160637 235.257125 86.160637 
Q 237.213073 86.160637 238.238023 82.929431 
Q 238.77897 81.228153 239.046596 78.449805 
L 240.77193 78.449805 
Q 240.541316 82.886593 239.243045 85.89137 
Q 237.685689 89.508117 235.043593 89.508117 
Q 232.765925 89.508117 231.21711 86.540059 
Q 229.178596 82.623446 229.178596 74.435277 
Q 229.178596 68.223774 230.710329 64.245964 
Q 232.364485 59.919331 235.274207 59.919331 
z
M 234.918321 59.919331 
L 234.918321 59.919331 
z
" style="fill:#0000ff;"/>
   </g>
   <g id="patch_50">
    <path clip-path="url(#p3430f1a770)" d="M 235.157705 28.845026 
Q 236.946185 28.845026 238.250919 30.453094 
Q 240.141677 32.762279 240.56461 38.551324 
L 238.864586 38.551324 
Q 238.552224 35.315891 237.576438 33.836469 
Q 236.600652 32.357046 235.113476 32.357046 
Q 233.352639 32.357046 232.147419 35.438104 
Q 230.942198 38.51273 230.942198 44.604092 
Q 230.942198 49.86569 231.93457 53.171878 
Q 232.929706 56.478065 235.17429 56.478065 
Q 236.893664 56.478065 238.021485 54.162447 
Q 239.149305 51.840397 239.174184 46.649554 
L 235.201933 46.649554 
L 235.201933 43.336934 
L 240.77193 43.336934 
L 240.77193 59.134593 
L 239.666223 59.134593 
L 239.251583 55.333121 
Q 238.380839 57.565119 237.706358 58.433476 
Q 236.573009 59.919331 234.828757 59.919331 
Q 232.57588 59.919331 230.950491 56.523091 
Q 229.178596 52.258495 229.178596 44.822789 
Q 229.178596 37.40638 230.906263 33.026003 
Q 232.548237 28.845026 235.157705 28.845026 
z
M 234.872985 28.8 
L 234.872985 28.8 
z
" style="fill:#ffa600;"/>
   </g>
   <g id="patch_51">
    <path clip-path="url(#p3430f1a770)" d="M 249.163815 131.398299 
L 247.191506 120.35621 
L 245.094688 131.398299 
L 249.163815 131.398299 
z
M 246.271849 116.642845 
L 248.261137 116.642845 
L 252.975439 141.64 
L 251.045574 141.64 
L 249.729758 134.153377 
L 244.591 134.153377 
L 243.184632 141.64 
L 241.382105 141.64 
L 246.271849 116.642845 
z
M 247.183016 116.642845 
L 247.183016 116.642845 
z
" style="fill:#008000;"/>
   </g>
   <g id="patch_52">
    <path clip-path="url(#p3430f1a770)" d="M 252.975439 89.476987 
L 252.975439 92.713695 
L 248.160704 92.713695 
L 248.160704 116.642845 
L 246.19684 116.642845 
L 246.19684 92.713695 
L 241.382105 92.713695 
L 241.382105 89.476987 
L 252.975439 89.476987 
z
" style="fill:#ff0000;"/>
   </g>
   <g id="patch_53">
    <path clip-path="url(#p3430f1a770)" d="M 247.477716 60.401841 
Q 249.960375 60.401841 251.329823 63.168039 
Q 252.699271 65.928224 252.850167 69.440092 
L 251.124833 69.440092 
Q 250.831583 66.776123 249.954681 65.218634 
Q 249.077778 63.65513 247.494798 63.65513 
Q 245.564474 63.65513 244.37724 66.523557 
Q 243.190005 69.385971 243.190005 75.303229 
Q 243.190005 80.156103 244.260509 83.174867 
Q 245.33386 86.187617 247.460633 86.187617 
Q 249.416581 86.187617 250.441532 83.012503 
Q 250.982479 81.340757 251.250105 78.61064 
L 252.975439 78.61064 
Q 252.744825 82.970409 251.446554 85.923024 
Q 249.889198 89.476987 247.247102 89.476987 
Q 244.969433 89.476987 243.420619 86.560453 
Q 241.382105 82.711829 241.382105 74.665801 
Q 241.382105 68.562125 242.913837 64.653367 
Q 244.567994 60.401841 247.477716 60.401841 
z
M 247.12183 60.401841 
L 247.12183 60.401841 
z
" style="fill:#0000ff;"/>
   </g>
   <g id="patch_54">
    <path clip-path="url(#p3430f1a770)" d="M 247.361214 28.845724 
Q 249.149694 28.845724 250.454428 30.478725 
Q 252.345186 32.823715 252.768119 38.70252 
L 251.068095 38.70252 
Q 250.755733 35.416921 249.779947 33.91456 
Q 248.804161 32.412199 247.316985 32.412199 
Q 245.556148 32.412199 244.350927 35.541029 
Q 243.145707 38.663328 243.145707 44.849137 
Q 243.145707 50.192317 244.138079 53.549768 
Q 245.133215 56.907218 247.377799 56.907218 
Q 249.097173 56.907218 250.224994 54.555696 
Q 251.352814 52.197643 251.377693 46.926314 
L 247.405442 46.926314 
L 247.405442 43.562332 
L 252.975439 43.562332 
L 252.975439 59.604936 
L 251.869732 59.604936 
L 251.455092 55.744521 
Q 250.584348 58.011127 249.909867 58.892948 
Q 248.776518 60.401841 247.032266 60.401841 
Q 244.779389 60.401841 243.154 56.952942 
Q 241.382105 52.622223 241.382105 45.071225 
Q 241.382105 37.539823 243.109772 33.091527 
Q 244.751746 28.845724 247.361214 28.845724 
z
M 247.076494 28.8 
L 247.076494 28.8 
z
" style="fill:#ffa600;"/>
   </g>
   <g id="patch_55">
    <path clip-path="url(#p3430f1a770)" d="M 261.367324 131.464196 
L 259.395014 120.493155 
L 257.298197 131.464196 
L 261.367324 131.464196 
z
M 258.475358 116.803682 
L 260.464646 116.803682 
L 265.178947 141.64 
L 263.249083 141.64 
L 261.933267 134.201547 
L 256.794508 134.201547 
L 255.388141 141.64 
L 253.585614 141.64 
L 258.475358 116.803682 
z
M 259.386525 116.803682 
L 259.386525 116.803682 
z
" style="fill:#008000;"/>
   </g>
   <g id="patch_56">
    <path clip-path="url(#p3430f1a770)" d="M 265.178947 89.248703 
L 265.178947 92.531773 
L 260.364213 92.531773 
L 260.364213 116.803682 
L 258.400349 116.803682 
L 258.400349 92.531773 
L 253.585614 92.531773 
L 253.585614 89.248703 
L 265.178947 89.248703 
z
" style="fill:#ff0000;"/>
   </g>
   <g id="patch_57">
    <path clip-path="url(#p3430f1a770)" d="M 259.681225 59.851883 
Q 262.163884 59.851883 263.533332 62.648685 
Q 264.90278 65.439407 265.053676 68.990129 
L 263.328342 68.990129 
Q 263.035092 66.296687 262.158189 64.721966 
Q 261.281287 63.141165 259.698307 63.141165 
Q 257.767983 63.141165 256.580748 66.041327 
Q 255.393514 68.935409 255.393514 74.918133 
Q 255.393514 79.824696 256.464018 82.876859 
Q 257.537369 85.922941 259.664142 85.922941 
Q 261.62009 85.922941 262.645041 82.712698 
Q 263.185987 81.022457 263.453613 78.262135 
L 265.178947 78.262135 
Q 264.948333 82.670138 263.650062 85.65542 
Q 262.092706 89.248703 259.450611 89.248703 
Q 257.172942 89.248703 255.624127 86.299901 
Q 253.585614 82.408698 253.585614 74.273653 
Q 253.585614 68.102448 255.117346 64.150446 
Q 256.771503 59.851883 259.681225 59.851883 
z
M 259.325339 59.851883 
L 259.325339 59.851883 
z
" style="fill:#0000ff;"/>
   </g>
   <g id="patch_58">
    <path clip-path="url(#p3430f1a770)" d="M 259.564722 28.844928 
Q 261.353203 28.844928 262.657936 30.449511 
Q 264.548695 32.753692 264.971627 38.530189 
L 263.271604 38.530189 
Q 262.959241 35.301769 261.983455 33.825553 
Q 261.007669 32.349337 259.520494 32.349337 
Q 257.759656 32.349337 256.554436 35.423717 
Q 255.349216 38.491679 255.349216 44.569838 
Q 255.349216 49.820032 256.341588 53.119054 
Q 257.336724 56.418076 259.581308 56.418076 
Q 261.300682 56.418076 262.428502 54.107477 
Q 263.556323 51.79046 263.581201 46.610867 
L 259.608951 46.610867 
L 259.608951 43.305427 
L 265.178947 43.305427 
L 265.178947 59.068847 
L 264.073241 59.068847 
L 263.658601 55.275613 
Q 262.787857 57.502774 262.113376 58.369249 
Q 260.980027 59.851883 259.235775 59.851883 
Q 256.982897 59.851883 255.357509 56.463004 
Q 253.585614 52.207651 253.585614 44.788061 
Q 253.585614 37.387726 255.313281 33.016843 
Q 256.955255 28.844928 259.564722 28.844928 
z
M 259.280003 28.8 
L 259.280003 28.8 
z
" style="fill:#ffa600;"/>
   </g>
   <g id="patch_59">
    <path clip-path="url(#p3430f1a770)" d="M 273.570833 131.389796 
L 271.598523 120.33854 
L 269.501706 131.389796 
L 273.570833 131.389796 
z
M 270.678867 116.622092 
L 272.668155 116.622092 
L 277.382456 141.64 
L 275.452592 141.64 
L 274.136776 134.147161 
L 268.998017 134.147161 
L 267.59165 141.64 
L 265.789123 141.64 
L 270.678867 116.622092 
z
M 271.590034 116.622092 
L 271.590034 116.622092 
z
" style="fill:#008000;"/>
   </g>
   <g id="patch_60">
    <path clip-path="url(#p3430f1a770)" d="M 277.382456 89.279833 
L 277.382456 92.537558 
L 272.567721 92.537558 
L 272.567721 116.622092 
L 270.603857 116.622092 
L 270.603857 92.537558 
L 265.789123 92.537558 
L 265.789123 89.279833 
L 277.382456 89.279833 
z
" style="fill:#ff0000;"/>
   </g>
   <g id="patch_61">
    <path clip-path="url(#p3430f1a770)" d="M 271.884733 59.810377 
Q 274.367392 59.810377 275.736841 62.614089 
Q 277.106289 65.411706 277.257184 68.971202 
L 275.53185 68.971202 
Q 275.238601 66.271105 274.361698 64.692493 
Q 273.484796 63.107786 271.901816 63.107786 
Q 269.971492 63.107786 268.784257 66.015114 
Q 267.597022 68.916347 267.597022 74.913854 
Q 267.597022 79.832541 268.667527 82.892244 
Q 269.740878 85.945853 271.867651 85.945853 
Q 273.823599 85.945853 274.84855 82.727678 
Q 275.389496 81.033261 275.657122 78.266119 
L 277.382456 78.266119 
Q 277.151842 82.685013 275.853571 85.677672 
Q 274.296215 89.279833 271.65412 89.279833 
Q 269.376451 89.279833 267.827636 86.323744 
Q 265.789123 82.422927 265.789123 74.267781 
Q 265.789123 68.081328 267.320855 64.119561 
Q 268.975012 59.810377 271.884733 59.810377 
z
M 271.528848 59.810377 
L 271.528848 59.810377 
z
" style="fill:#0000ff;"/>
   </g>
   <g id="patch_62">
    <path clip-path="url(#p3430f1a770)" d="M 271.768231 28.844868 
Q 273.556711 28.844868 274.861445 30.447306 
Q 276.752203 32.748407 277.175136 38.517183 
L 275.475112 38.517183 
Q 275.16275 35.293078 274.186964 33.818835 
Q 273.211178 32.344592 271.724003 32.344592 
Q 269.963165 32.344592 268.757945 35.414863 
Q 267.552725 38.478724 267.552725 44.548759 
Q 267.552725 49.791935 268.545096 53.086548 
Q 269.540232 56.38116 271.784817 56.38116 
Q 273.50419 56.38116 274.632011 54.073649 
Q 275.759832 51.759729 275.78471 46.58706 
L 271.812459 46.58706 
L 271.812459 43.286038 
L 277.382456 43.286038 
L 277.382456 59.028387 
L 276.27675 59.028387 
L 275.86211 55.240224 
Q 274.991366 57.464408 274.316885 58.329724 
Q 273.183535 59.810377 271.439283 59.810377 
Q 269.186406 59.810377 267.561018 56.426028 
Q 265.789123 52.176363 265.789123 44.76669 
Q 265.789123 37.376247 267.516789 33.011207 
Q 269.158764 28.844868 271.768231 28.844868 
z
M 271.483512 28.8 
L 271.483512 28.8 
z
" style="fill:#ffa600;"/>
   </g>
   <g id="patch_63">
    <path clip-path="url(#p3430f1a770)" d="M 285.774342 131.598117 
L 283.802032 120.771461 
L 281.705215 131.598117 
L 285.774342 131.598117 
z
M 282.882375 117.130544 
L 284.871663 117.130544 
L 289.585965 141.64 
L 287.656101 141.64 
L 286.340284 134.299442 
L 281.201526 134.299442 
L 279.795159 141.64 
L 277.992632 141.64 
L 282.882375 117.130544 
z
M 283.793543 117.130544 
L 283.793543 117.130544 
z
" style="fill:#008000;"/>
   </g>
   <g id="patch_64">
    <path clip-path="url(#p3430f1a770)" d="M 289.585965 89.518494 
L 289.585965 92.808363 
L 284.77123 92.808363 
L 284.77123 117.130544 
L 282.807366 117.130544 
L 282.807366 92.808363 
L 277.992632 92.808363 
L 277.992632 89.518494 
L 289.585965 89.518494 
z
" style="fill:#ff0000;"/>
   </g>
   <g id="patch_65">
    <path clip-path="url(#p3430f1a770)" d="M 284.088242 59.722176 
Q 286.570901 59.722176 287.940349 62.556986 
Q 289.309798 65.385633 289.460693 68.984609 
L 287.735359 68.984609 
Q 287.442109 66.254564 286.565207 64.658443 
Q 285.688304 63.056159 284.105325 63.056159 
Q 282.175001 63.056159 280.987766 65.995733 
Q 279.800531 68.929146 279.800531 74.993174 
Q 279.800531 79.966417 280.871035 83.060057 
Q 281.944387 86.147535 284.07116 86.147535 
Q 286.027108 86.147535 287.052059 82.893666 
Q 287.593005 81.180455 287.860631 78.382621 
L 289.585965 78.382621 
Q 289.355351 82.850528 288.05708 85.876379 
Q 286.499724 89.518494 283.857628 89.518494 
Q 281.57996 89.518494 280.031145 86.529618 
Q 277.992632 82.585535 277.992632 74.339935 
Q 277.992632 68.084865 279.524364 64.079155 
Q 281.178521 59.722176 284.088242 59.722176 
z
M 283.732357 59.722176 
L 283.732357 59.722176 
z
" style="fill:#0000ff;"/>
   </g>
   <g id="patch_66">
    <path clip-path="url(#p3430f1a770)" d="M 283.97174 28.844741 
Q 285.76022 28.844741 287.064954 30.442621 
Q 288.955712 32.737177 289.378645 38.489545 
L 287.678621 38.489545 
Q 287.366259 35.27461 286.390473 33.80456 
Q 285.414687 32.334511 283.927512 32.334511 
Q 282.166674 32.334511 280.961454 35.396049 
Q 279.756234 38.451196 279.756234 44.503966 
Q 279.756234 49.732229 280.748605 53.017471 
Q 281.743741 56.302712 283.988325 56.302712 
Q 285.707699 56.302712 286.83552 54.001765 
Q 287.963341 51.694426 287.988219 46.536469 
L 284.015968 46.536469 
L 284.015968 43.244836 
L 289.585965 43.244836 
L 289.585965 58.94241 
L 288.480258 58.94241 
L 288.065618 55.165022 
Q 287.194874 57.382879 286.520393 58.245735 
Q 285.387044 59.722176 283.642792 59.722176 
Q 281.389915 59.722176 279.764526 56.347453 
Q 277.992632 52.109875 277.992632 44.721277 
Q 277.992632 37.351854 279.720298 32.999229 
Q 281.362272 28.844741 283.97174 28.844741 
z
M 283.68702 28.8 
L 283.68702 28.8 
z
" style="fill:#ffa600;"/>
   </g>
   <g id="patch_67">
    <path clip-path="url(#p3430f1a770)" d="M 297.977851 131.861705 
L 296.005541 121.319238 
L 293.908724 131.861705 
L 297.977851 131.861705 
z
M 295.085884 117.773891 
L 297.075172 117.773891 
L 301.789474 141.64 
L 299.85961 141.64 
L 298.543793 134.492124 
L 293.405035 134.492124 
L 291.998667 141.64 
L 290.19614 141.64 
L 295.085884 117.773891 
z
M 295.997052 117.773891 
L 295.997052 117.773891 
z
" style="fill:#008000;"/>
   </g>
   <g id="patch_68">
    <path clip-path="url(#p3430f1a770)" d="M 301.789474 90.146276 
L 301.789474 93.438 
L 296.974739 93.438 
L 296.974739 117.773891 
L 295.010875 117.773891 
L 295.010875 93.438 
L 290.19614 93.438 
L 290.19614 90.146276 
L 301.789474 90.146276 
z
" style="fill:#ff0000;"/>
   </g>
   <g id="patch_69">
    <path clip-path="url(#p3430f1a770)" d="M 296.291751 60.381088 
Q 298.77441 60.381088 300.143858 63.212936 
Q 301.513306 66.038628 301.664202 69.633844 
L 299.938868 69.633844 
Q 299.645618 66.906651 298.768716 65.312198 
Q 297.891813 63.711588 296.308834 63.711588 
Q 294.378509 63.711588 293.191275 66.648091 
Q 292.00404 69.578439 292.00404 75.636132 
Q 292.00404 80.604179 293.074544 83.694587 
Q 294.147895 86.778839 296.274669 86.778839 
Q 298.230616 86.778839 299.255567 83.52837 
Q 299.796514 81.816948 300.06414 79.022037 
L 301.789474 79.022037 
Q 301.55886 83.485276 300.260589 86.507967 
Q 298.703233 90.146276 296.061137 90.146276 
Q 293.783468 90.146276 292.234654 87.160523 
Q 290.19614 83.22056 290.19614 74.983575 
Q 290.19614 68.73504 291.727873 64.733516 
Q 293.382029 60.381088 296.291751 60.381088 
z
M 295.935865 60.381088 
L 295.935865 60.381088 
z
" style="fill:#0000ff;"/>
   </g>
   <g id="patch_70">
    <path clip-path="url(#p3430f1a770)" d="M 296.175249 28.845694 
Q 297.963729 28.845694 299.268463 30.477623 
Q 301.159221 32.821073 301.582154 38.696017 
L 299.88213 38.696017 
Q 299.569768 35.412576 298.593982 33.911201 
Q 297.618196 32.409827 296.13102 32.409827 
Q 294.370183 32.409827 293.164962 35.536602 
Q 291.959742 38.65685 291.959742 44.838597 
Q 291.959742 50.178268 292.952114 53.533514 
Q 293.94725 56.88876 296.191834 56.88876 
Q 297.911208 56.88876 299.039029 54.538782 
Q 300.166849 52.182277 300.191728 46.914411 
L 296.219477 46.914411 
L 296.219477 43.552637 
L 301.789474 43.552637 
L 301.789474 59.584707 
L 300.683767 59.584707 
L 300.269127 55.726827 
Q 299.398383 57.991944 298.723902 58.873186 
Q 297.590553 60.381088 295.846301 60.381088 
Q 293.593424 60.381088 291.968035 56.934454 
Q 290.19614 52.606579 290.19614 45.060539 
Q 290.19614 37.534083 291.923807 33.088709 
Q 293.565781 28.845694 296.175249 28.845694 
z
M 295.890529 28.8 
L 295.890529 28.8 
z
" style="fill:#ffa600;"/>
   </g>
   <g id="patch_71">
    <path clip-path="url(#p3430f1a770)" d="M 310.181359 131.538597 
L 308.209049 120.647769 
L 306.112232 131.538597 
L 310.181359 131.538597 
z
M 307.289393 116.985272 
L 309.278681 116.985272 
L 313.992982 141.64 
L 312.063118 141.64 
L 310.747302 134.255933 
L 305.608543 134.255933 
L 304.202176 141.64 
L 302.399649 141.64 
L 307.289393 116.985272 
z
M 308.20056 116.985272 
L 308.20056 116.985272 
z
" style="fill:#008000;"/>
   </g>
   <g id="patch_72">
    <path clip-path="url(#p3430f1a770)" d="M 313.992982 88.921841 
L 313.992982 92.265491 
L 309.178248 92.265491 
L 309.178248 116.985272 
L 307.214384 116.985272 
L 307.214384 92.265491 
L 302.399649 92.265491 
L 302.399649 88.921841 
L 313.992982 88.921841 
z
" style="fill:#ff0000;"/>
   </g>
   <g id="patch_73">
    <path clip-path="url(#p3430f1a770)" d="M 308.49526 59.556151 
Q 310.977919 59.556151 312.347367 62.349991 
Q 313.716815 65.137758 313.867711 68.68472 
L 312.142377 68.68472 
Q 311.849127 65.99413 310.972224 64.421077 
Q 310.095322 62.84195 308.512342 62.84195 
Q 306.582018 62.84195 305.394783 65.739041 
Q 304.207549 68.630058 304.207549 74.606447 
Q 304.207549 79.507814 305.278053 82.556744 
Q 306.351404 85.599601 308.478177 85.599601 
Q 310.434125 85.599601 311.459076 82.392758 
Q 312.000022 80.704307 312.267648 77.946908 
L 313.992982 77.946908 
Q 313.762369 82.350243 312.464097 85.332364 
Q 310.906741 88.921841 308.264646 88.921841 
Q 305.986977 88.921841 304.438163 85.976162 
Q 302.399649 82.08908 302.399649 73.962649 
Q 302.399649 67.797979 303.931381 63.850162 
Q 305.585538 59.556151 308.49526 59.556151 
z
M 308.139374 59.556151 
L 308.139374 59.556151 
z
" style="fill:#0000ff;"/>
   </g>
   <g id="patch_74">
    <path clip-path="url(#p3430f1a770)" d="M 308.378757 28.8445 
Q 310.167238 28.8445 311.471971 30.433801 
Q 313.36273 32.716037 313.785662 38.437521 
L 312.085639 38.437521 
Q 311.773277 35.239847 310.79749 33.77769 
Q 309.821704 32.315534 308.334529 32.315534 
Q 306.573691 32.315534 305.368471 35.360634 
Q 304.163251 38.399377 304.163251 44.419649 
Q 304.163251 49.619842 305.155623 52.887444 
Q 306.150759 56.155047 308.395343 56.155047 
Q 310.114717 56.155047 311.242537 53.866453 
Q 312.370358 51.571503 312.395236 46.44124 
L 308.422986 46.44124 
L 308.422986 43.16728 
L 313.992982 43.16728 
L 313.992982 58.780572 
L 312.887276 58.780572 
L 312.472636 55.023465 
Q 311.601892 57.229414 310.927411 58.087637 
Q 309.794062 59.556151 308.04981 59.556151 
Q 305.796933 59.556151 304.171544 56.199547 
Q 302.399649 51.984721 302.399649 44.635794 
Q 302.399649 37.305938 304.127316 32.976683 
Q 305.76929 28.8445 308.378757 28.8445 
z
M 308.094038 28.8 
L 308.094038 28.8 
z
" style="fill:#ffa600;"/>
   </g>
   <g id="patch_75">
    <path clip-path="url(#p3430f1a770)" d="M 322.384868 131.685271 
L 320.412558 120.952581 
L 318.315741 131.685271 
L 322.384868 131.685271 
z
M 319.492902 117.343264 
L 321.48219 117.343264 
L 326.196491 141.64 
L 324.266627 141.64 
L 322.950811 134.363151 
L 317.812052 134.363151 
L 316.405685 141.64 
L 314.603158 141.64 
L 319.492902 117.343264 
z
M 320.404069 117.343264 
L 320.404069 117.343264 
z
" style="fill:#008000;"/>
   </g>
   <g id="patch_76">
    <path clip-path="url(#p3430f1a770)" d="M 326.196491 89.77272 
L 326.196491 93.057644 
L 321.381757 93.057644 
L 321.381757 117.343264 
L 319.417893 117.343264 
L 319.417893 93.057644 
L 314.603158 93.057644 
L 314.603158 89.77272 
L 326.196491 89.77272 
z
" style="fill:#ff0000;"/>
   </g>
   <g id="patch_77">
    <path clip-path="url(#p3430f1a770)" d="M 320.698769 59.633975 
Q 323.181427 59.633975 324.550876 62.501363 
Q 325.920324 65.362518 326.071219 69.002855 
L 324.345885 69.002855 
Q 324.052636 66.241435 323.175733 64.626971 
Q 322.298831 63.006273 320.715851 63.006273 
Q 318.785527 63.006273 317.598292 65.97963 
Q 316.411057 68.946754 316.411057 75.080471 
Q 316.411057 80.110868 317.481562 83.240061 
Q 318.554913 86.363021 320.681686 86.363021 
Q 322.637634 86.363021 323.662585 83.071758 
Q 324.203531 81.338858 324.471157 78.50887 
L 326.196491 78.50887 
Q 325.965877 83.028124 324.667606 86.088749 
Q 323.11025 89.77272 320.468155 89.77272 
Q 318.190486 89.77272 316.641671 86.749495 
Q 314.603158 82.760085 314.603158 74.419725 
Q 314.603158 68.09277 316.13489 64.041026 
Q 317.789047 59.633975 320.698769 59.633975 
z
M 320.342883 59.633975 
L 320.342883 59.633975 
z
" style="fill:#0000ff;"/>
   </g>
   <g id="patch_78">
    <path clip-path="url(#p3430f1a770)" d="M 320.582266 28.844613 
Q 322.370747 28.844613 323.67548 30.437935 
Q 325.566238 32.725946 325.989171 38.461907 
L 324.289147 38.461907 
Q 323.976785 35.256142 323.000999 33.790286 
Q 322.025213 32.324429 320.538038 32.324429 
Q 318.7772 32.324429 317.57198 35.377235 
Q 316.36676 38.423667 316.36676 44.459172 
Q 316.36676 49.672523 317.359132 52.948394 
Q 318.354267 56.224265 320.598852 56.224265 
Q 322.318225 56.224265 323.446046 53.929881 
Q 324.573867 51.629123 324.598745 46.485879 
L 320.626494 46.485879 
L 320.626494 43.203634 
L 326.196491 43.203634 
L 326.196491 58.856434 
L 325.090785 58.856434 
L 324.676145 55.089819 
Q 323.805401 57.301351 323.13092 58.161745 
Q 321.997571 59.633975 320.253318 59.633975 
Q 318.000441 59.633975 316.375053 56.268878 
Q 314.603158 52.043387 314.603158 44.675864 
Q 314.603158 37.327461 316.330824 32.987251 
Q 317.972799 28.844613 320.582266 28.844613 
z
M 320.297547 28.8 
L 320.297547 28.8 
z
" style="fill:#ffa600;"/>
   </g>
   <g id="patch_79">
    <path clip-path="url(#p3430f1a770)" d="M 334.588377 131.581111 
L 332.616067 120.73612 
L 330.51925 131.581111 
L 334.588377 131.581111 
z
M 331.69641 117.089038 
L 333.685698 117.089038 
L 338.4 141.64 
L 336.470136 141.64 
L 335.154319 134.287011 
L 330.015561 134.287011 
L 328.609194 141.64 
L 326.806667 141.64 
L 331.69641 117.089038 
z
M 332.607578 117.089038 
L 332.607578 117.089038 
z
" style="fill:#008000;"/>
   </g>
   <g id="patch_80">
    <path clip-path="url(#p3430f1a770)" d="M 338.4 89.814226 
L 338.4 93.063915 
L 333.585265 93.063915 
L 333.585265 117.089038 
L 331.621401 117.089038 
L 331.621401 93.063915 
L 326.806667 93.063915 
L 326.806667 89.814226 
L 338.4 89.814226 
z
" style="fill:#ff0000;"/>
   </g>
   <g id="patch_81">
    <path clip-path="url(#p3430f1a770)" d="M 332.902277 59.877824 
Q 335.384936 59.877824 336.754384 62.725962 
Q 338.123833 65.567908 338.274728 69.183804 
L 336.549394 69.183804 
Q 336.256144 66.440924 335.379242 64.837298 
Q 334.50234 63.227482 332.91936 63.227482 
Q 330.989036 63.227482 329.801801 66.180876 
Q 328.614566 69.12808 328.614566 75.220617 
Q 328.614566 80.217241 329.68507 83.325426 
Q 330.758422 86.427419 332.885195 86.427419 
Q 334.841143 86.427419 335.866094 83.158252 
Q 336.40704 81.436987 336.674666 78.625999 
L 338.4 78.625999 
Q 338.169386 83.114911 336.871115 86.154988 
Q 335.313759 89.814226 332.671663 89.814226 
Q 330.393995 89.814226 328.84518 86.811298 
Q 326.806667 82.848672 326.806667 74.564307 
Q 326.806667 68.27983 328.338399 64.255288 
Q 329.992556 59.877824 332.902277 59.877824 
z
M 332.546392 59.877824 
L 332.546392 59.877824 
z
" style="fill:#0000ff;"/>
   </g>
   <g id="patch_82">
    <path clip-path="url(#p3430f1a770)" d="M 332.785775 28.844966 
Q 334.574255 28.844966 335.878989 30.450889 
Q 337.769747 32.756995 338.19268 38.538318 
L 336.492656 38.538318 
Q 336.180294 35.3072 335.204508 33.829751 
Q 334.228722 32.352302 332.741547 32.352302 
Q 330.980709 32.352302 329.775489 35.429251 
Q 328.570269 38.499776 328.570269 44.583012 
Q 328.570269 49.837593 329.56264 53.139371 
Q 330.557776 56.441149 332.802361 56.441149 
Q 334.521734 56.441149 335.649555 54.128619 
Q 336.777376 51.809667 336.802254 46.625747 
L 332.830003 46.625747 
L 332.830003 43.317545 
L 338.4 43.317545 
L 338.4 59.094134 
L 337.294293 59.094134 
L 336.879653 55.297732 
Q 336.00891 57.526753 335.334429 58.393951 
Q 334.201079 59.877824 332.456827 59.877824 
Q 330.20395 59.877824 328.578561 56.486115 
Q 326.806667 52.227207 326.806667 44.801418 
Q 326.806667 37.394901 328.534333 33.020366 
Q 330.176307 28.844966 332.785775 28.844966 
z
M 332.501055 28.8 
L 332.501055 28.8 
z
" style="fill:#ffa600;"/>
   </g>
   <g id="matplotlib.axis_1">
    <g id="xtick_1">
     <g id="line2d_2">
      <path clip-path="url(#p3430f1a770)" d="M 100.736667 141.64 
L 100.736667 28.8 
" style="fill:none;stroke:#cccccc;stroke-linecap:round;stroke-width:0.8;"/>
     </g>
     <g id="text_1">
      <!-- 0 -->
      <g style="fill:#262626;" transform="translate(95.175729 162.986875)scale(0.2 -0.2)">
       <defs>
        <path d="M 1731 4475 
Q 2600 4475 2988 3759 
Q 3288 3206 3288 2244 
Q 3288 1331 3016 734 
Q 2622 -122 1728 -122 
Q 922 -122 528 578 
Q 200 1163 200 2147 
Q 200 2909 397 3456 
Q 766 4475 1731 4475 
z
M 1725 391 
Q 2163 391 2422 778 
Q 2681 1166 2681 2222 
Q 2681 2984 2493 3476 
Q 2306 3969 1766 3969 
Q 1269 3969 1039 3501 
Q 809 3034 809 2125 
Q 809 1441 956 1025 
Q 1181 391 1725 391 
z
" id="Helvetica-30" transform="scale(0.015625)"/>
       </defs>
       <use xlink:href="#Helvetica-30"/>
      </g>
     </g>
    </g>
    <g id="xtick_2">
     <g id="line2d_3">
      <path clip-path="url(#p3430f1a770)" d="M 222.771754 141.64 
L 222.771754 28.8 
" style="fill:none;stroke:#cccccc;stroke-linecap:round;stroke-width:0.8;"/>
     </g>
     <g id="text_2">
      <!-- 10 -->
      <g style="fill:#262626;" transform="translate(211.649879 162.986875)scale(0.2 -0.2)">
       <defs>
        <path d="M 613 3169 
L 613 3600 
Q 1222 3659 1462 3798 
Q 1703 3938 1822 4456 
L 2266 4456 
L 2266 0 
L 1666 0 
L 1666 3169 
L 613 3169 
z
" id="Helvetica-31" transform="scale(0.015625)"/>
       </defs>
       <use xlink:href="#Helvetica-31"/>
       <use x="55.615234" xlink:href="#Helvetica-30"/>
      </g>
     </g>
    </g>
    <g id="text_3">
     <!-- Position -->
     <g style="fill:#262626;" transform="translate(172.20125 189.089219)scale(0.25 -0.25)">
      <defs>
       <path d="M 547 4591 
L 2613 4591 
Q 3225 4591 3600 4245 
Q 3975 3900 3975 3275 
Q 3975 2738 3640 2339 
Q 3306 1941 2613 1941 
L 1169 1941 
L 1169 0 
L 547 0 
L 547 4591 
z
M 3347 3272 
Q 3347 3778 2972 3959 
Q 2766 4056 2406 4056 
L 1169 4056 
L 1169 2466 
L 2406 2466 
Q 2825 2466 3086 2644 
Q 3347 2822 3347 3272 
z
" id="Helvetica-50" transform="scale(0.015625)"/>
       <path d="M 1741 363 
Q 2300 363 2508 786 
Q 2716 1209 2716 1728 
Q 2716 2197 2566 2491 
Q 2328 2953 1747 2953 
Q 1231 2953 997 2559 
Q 763 2166 763 1609 
Q 763 1075 997 719 
Q 1231 363 1741 363 
z
M 1763 3444 
Q 2409 3444 2856 3012 
Q 3303 2581 3303 1744 
Q 3303 934 2909 406 
Q 2516 -122 1688 -122 
Q 997 -122 590 345 
Q 184 813 184 1600 
Q 184 2444 612 2944 
Q 1041 3444 1763 3444 
z
M 1744 3428 
L 1744 3428 
z
" id="Helvetica-6f" transform="scale(0.015625)"/>
       <path d="M 747 1050 
Q 772 769 888 619 
Q 1100 347 1625 347 
Q 1938 347 2175 483 
Q 2413 619 2413 903 
Q 2413 1119 2222 1231 
Q 2100 1300 1741 1391 
L 1294 1503 
Q 866 1609 663 1741 
Q 300 1969 300 2372 
Q 300 2847 642 3140 
Q 984 3434 1563 3434 
Q 2319 3434 2653 2991 
Q 2863 2709 2856 2384 
L 2325 2384 
Q 2309 2575 2191 2731 
Q 1997 2953 1519 2953 
Q 1200 2953 1036 2831 
Q 872 2709 872 2509 
Q 872 2291 1088 2159 
Q 1213 2081 1456 2022 
L 1828 1931 
Q 2434 1784 2641 1647 
Q 2969 1431 2969 969 
Q 2969 522 2630 197 
Q 2291 -128 1597 -128 
Q 850 -128 539 211 
Q 228 550 206 1050 
L 747 1050 
z
M 1578 3428 
L 1578 3428 
z
" id="Helvetica-73" transform="scale(0.015625)"/>
       <path d="M 413 3331 
L 984 3331 
L 984 0 
L 413 0 
L 413 3331 
z
M 413 4591 
L 984 4591 
L 984 3953 
L 413 3953 
L 413 4591 
z
" id="Helvetica-69" transform="scale(0.015625)"/>
       <path d="M 525 4281 
L 1094 4281 
L 1094 3347 
L 1628 3347 
L 1628 2888 
L 1094 2888 
L 1094 703 
Q 1094 528 1213 469 
Q 1278 434 1431 434 
Q 1472 434 1519 436 
Q 1566 438 1628 444 
L 1628 0 
Q 1531 -28 1426 -40 
Q 1322 -53 1200 -53 
Q 806 -53 665 148 
Q 525 350 525 672 
L 525 2888 
L 72 2888 
L 72 3347 
L 525 3347 
L 525 4281 
z
" id="Helvetica-74" transform="scale(0.015625)"/>
       <path d="M 413 3347 
L 947 3347 
L 947 2872 
Q 1184 3166 1450 3294 
Q 1716 3422 2041 3422 
Q 2753 3422 3003 2925 
Q 3141 2653 3141 2147 
L 3141 0 
L 2569 0 
L 2569 2109 
Q 2569 2416 2478 2603 
Q 2328 2916 1934 2916 
Q 1734 2916 1606 2875 
Q 1375 2806 1200 2600 
Q 1059 2434 1017 2257 
Q 975 2081 975 1753 
L 975 0 
L 413 0 
L 413 3347 
z
M 1734 3428 
L 1734 3428 
z
" id="Helvetica-6e" transform="scale(0.015625)"/>
      </defs>
      <use xlink:href="#Helvetica-50"/>
      <use x="66.699219" xlink:href="#Helvetica-6f"/>
      <use x="122.314453" xlink:href="#Helvetica-73"/>
      <use x="172.314453" xlink:href="#Helvetica-69"/>
      <use x="194.53125" xlink:href="#Helvetica-74"/>
      <use x="222.314453" xlink:href="#Helvetica-69"/>
      <use x="244.53125" xlink:href="#Helvetica-6f"/>
      <use x="300.146484" xlink:href="#Helvetica-6e"/>
     </g>
    </g>
   </g>
   <g id="matplotlib.axis_2">
    <g id="ytick_1">
     <g id="line2d_4">
      <path clip-path="url(#p3430f1a770)" d="M 94.94 141.64 
L 338.4 141.64 
" style="fill:none;stroke:#cccccc;stroke-linecap:round;stroke-width:0.8;"/>
     </g>
     <g id="text_4">
      <!-- 0 -->
      <g style="fill:#262626;" transform="translate(76.818125 148.813438)scale(0.2 -0.2)">
       <use xlink:href="#Helvetica-30"/>
      </g>
     </g>
    </g>
    <g id="ytick_2">
     <g id="line2d_5">
      <path clip-path="url(#p3430f1a770)" d="M 94.94 113.43 
L 338.4 113.43 
" style="fill:none;stroke:#cccccc;stroke-linecap:round;stroke-width:0.8;"/>
     </g>
     <g id="text_5">
      <!-- 0.25 -->
      <g style="fill:#262626;" transform="translate(49.018125 120.603437)scale(0.2 -0.2)">
       <defs>
        <path d="M 547 681 
L 1200 681 
L 1200 0 
L 547 0 
L 547 681 
z
" id="Helvetica-2e" transform="scale(0.015625)"/>
        <path d="M 200 0 
Q 231 578 439 1006 
Q 647 1434 1250 1784 
L 1850 2131 
Q 2253 2366 2416 2531 
Q 2672 2791 2672 3125 
Q 2672 3516 2437 3745 
Q 2203 3975 1813 3975 
Q 1234 3975 1013 3538 
Q 894 3303 881 2888 
L 309 2888 
Q 319 3472 525 3841 
Q 891 4491 1816 4491 
Q 2584 4491 2939 4075 
Q 3294 3659 3294 3150 
Q 3294 2613 2916 2231 
Q 2697 2009 2131 1694 
L 1703 1456 
Q 1397 1288 1222 1134 
Q 909 863 828 531 
L 3272 531 
L 3272 0 
L 200 0 
z
" id="Helvetica-32" transform="scale(0.015625)"/>
        <path d="M 791 1141 
Q 847 659 1238 475 
Q 1438 381 1700 381 
Q 2200 381 2440 700 
Q 2681 1019 2681 1406 
Q 2681 1875 2395 2131 
Q 2109 2388 1709 2388 
Q 1419 2388 1211 2275 
Q 1003 2163 856 1963 
L 369 1991 
L 709 4400 
L 3034 4400 
L 3034 3856 
L 1131 3856 
L 941 2613 
Q 1097 2731 1238 2791 
Q 1488 2894 1816 2894 
Q 2431 2894 2859 2497 
Q 3288 2100 3288 1491 
Q 3288 856 2895 371 
Q 2503 -113 1644 -113 
Q 1097 -113 676 195 
Q 256 503 206 1141 
L 791 1141 
z
" id="Helvetica-35" transform="scale(0.015625)"/>
       </defs>
       <use xlink:href="#Helvetica-30"/>
       <use x="55.615234" xlink:href="#Helvetica-2e"/>
       <use x="83.398438" xlink:href="#Helvetica-32"/>
       <use x="139.013672" xlink:href="#Helvetica-35"/>
      </g>
     </g>
    </g>
    <g id="ytick_3">
     <g id="line2d_6">
      <path clip-path="url(#p3430f1a770)" d="M 94.94 85.22 
L 338.4 85.22 
" style="fill:none;stroke:#cccccc;stroke-linecap:round;stroke-width:0.8;"/>
     </g>
     <g id="text_6">
      <!-- 0.50 -->
      <g style="fill:#262626;" transform="translate(49.018125 92.393438)scale(0.2 -0.2)">
       <use xlink:href="#Helvetica-30"/>
       <use x="55.615234" xlink:href="#Helvetica-2e"/>
       <use x="83.398438" xlink:href="#Helvetica-35"/>
       <use x="139.013672" xlink:href="#Helvetica-30"/>
      </g>
     </g>
    </g>
    <g id="ytick_4">
     <g id="line2d_7">
      <path clip-path="url(#p3430f1a770)" d="M 94.94 57.01 
L 338.4 57.01 
" style="fill:none;stroke:#cccccc;stroke-linecap:round;stroke-width:0.8;"/>
     </g>
     <g id="text_7">
      <!-- 0.75 -->
      <g style="fill:#262626;" transform="translate(49.018125 64.183437)scale(0.2 -0.2)">
       <defs>
        <path d="M 3347 4400 
L 3347 3909 
Q 3131 3700 2773 3181 
Q 2416 2663 2141 2063 
Q 1869 1478 1728 997 
Q 1638 688 1494 0 
L 872 0 
Q 1084 1281 1809 2550 
Q 2238 3294 2709 3834 
L 234 3834 
L 234 4400 
L 3347 4400 
z
" id="Helvetica-37" transform="scale(0.015625)"/>
       </defs>
       <use xlink:href="#Helvetica-30"/>
       <use x="55.615234" xlink:href="#Helvetica-2e"/>
       <use x="83.398438" xlink:href="#Helvetica-37"/>
       <use x="139.013672" xlink:href="#Helvetica-35"/>
      </g>
     </g>
    </g>
    <g id="ytick_5">
     <g id="line2d_8">
      <path clip-path="url(#p3430f1a770)" d="M 94.94 28.8 
L 338.4 28.8 
" style="fill:none;stroke:#cccccc;stroke-linecap:round;stroke-width:0.8;"/>
     </g>
     <g id="text_8">
      <!-- 1.0 -->
      <g style="fill:#262626;" transform="translate(60.14 35.973437)scale(0.2 -0.2)">
       <use xlink:href="#Helvetica-31"/>
       <use x="55.615234" xlink:href="#Helvetica-2e"/>
       <use x="83.398438" xlink:href="#Helvetica-30"/>
      </g>
     </g>
    </g>
    <g id="text_9">
     <!-- Probability -->
     <g style="fill:#262626;" transform="translate(39.65875 143.579375)rotate(-90)scale(0.25 -0.25)">
      <defs>
       <path d="M 428 3347 
L 963 3347 
L 963 2769 
Q 1028 2938 1284 3180 
Q 1541 3422 1875 3422 
Q 1891 3422 1928 3419 
Q 1966 3416 2056 3406 
L 2056 2813 
Q 2006 2822 1964 2825 
Q 1922 2828 1872 2828 
Q 1447 2828 1219 2554 
Q 991 2281 991 1925 
L 991 0 
L 428 0 
L 428 3347 
z
" id="Helvetica-72" transform="scale(0.015625)"/>
       <path d="M 369 4606 
L 916 4606 
L 916 2941 
Q 1100 3181 1356 3307 
Q 1613 3434 1913 3434 
Q 2538 3434 2927 3004 
Q 3316 2575 3316 1738 
Q 3316 944 2931 419 
Q 2547 -106 1866 -106 
Q 1484 -106 1222 78 
Q 1066 188 888 428 
L 888 0 
L 369 0 
L 369 4606 
z
M 1831 391 
Q 2288 391 2514 753 
Q 2741 1116 2741 1709 
Q 2741 2238 2514 2584 
Q 2288 2931 1847 2931 
Q 1463 2931 1173 2647 
Q 884 2363 884 1709 
Q 884 1238 1003 944 
Q 1225 391 1831 391 
z
" id="Helvetica-62" transform="scale(0.015625)"/>
       <path d="M 844 891 
Q 844 647 1022 506 
Q 1200 366 1444 366 
Q 1741 366 2019 503 
Q 2488 731 2488 1250 
L 2488 1703 
Q 2384 1638 2221 1594 
Q 2059 1550 1903 1531 
L 1563 1488 
Q 1256 1447 1103 1359 
Q 844 1213 844 891 
z
M 2206 2028 
Q 2400 2053 2466 2191 
Q 2503 2266 2503 2406 
Q 2503 2694 2298 2823 
Q 2094 2953 1713 2953 
Q 1272 2953 1088 2716 
Q 984 2584 953 2325 
L 428 2325 
Q 444 2944 830 3186 
Q 1216 3428 1725 3428 
Q 2316 3428 2684 3203 
Q 3050 2978 3050 2503 
L 3050 575 
Q 3050 488 3086 434 
Q 3122 381 3238 381 
Q 3275 381 3322 386 
Q 3369 391 3422 400 
L 3422 -16 
Q 3291 -53 3222 -62 
Q 3153 -72 3034 -72 
Q 2744 -72 2613 134 
Q 2544 244 2516 444 
Q 2344 219 2022 53 
Q 1700 -113 1313 -113 
Q 847 -113 551 170 
Q 256 453 256 878 
Q 256 1344 547 1600 
Q 838 1856 1309 1916 
L 2206 2028 
z
M 1741 3428 
L 1741 3428 
z
" id="Helvetica-61" transform="scale(0.015625)"/>
       <path d="M 428 4591 
L 991 4591 
L 991 0 
L 428 0 
L 428 4591 
z
" id="Helvetica-6c" transform="scale(0.015625)"/>
       <path d="M 2503 3347 
L 3125 3347 
Q 3006 3025 2597 1878 
Q 2291 1016 2084 472 
Q 1597 -809 1397 -1090 
Q 1197 -1372 709 -1372 
Q 591 -1372 527 -1362 
Q 463 -1353 369 -1328 
L 369 -816 
Q 516 -856 581 -865 
Q 647 -875 697 -875 
Q 853 -875 926 -823 
Q 1000 -772 1050 -697 
Q 1066 -672 1162 -440 
Q 1259 -209 1303 -97 
L 66 3347 
L 703 3347 
L 1600 622 
L 2503 3347 
z
M 1597 3428 
L 1597 3428 
z
" id="Helvetica-79" transform="scale(0.015625)"/>
      </defs>
      <use xlink:href="#Helvetica-50"/>
      <use x="66.699219" xlink:href="#Helvetica-72"/>
      <use x="100" xlink:href="#Helvetica-6f"/>
      <use x="155.615234" xlink:href="#Helvetica-62"/>
      <use x="211.230469" xlink:href="#Helvetica-61"/>
      <use x="266.845703" xlink:href="#Helvetica-62"/>
      <use x="322.460938" xlink:href="#Helvetica-69"/>
      <use x="344.677734" xlink:href="#Helvetica-6c"/>
      <use x="366.894531" xlink:href="#Helvetica-69"/>
      <use x="389.111328" xlink:href="#Helvetica-74"/>
      <use x="416.894531" xlink:href="#Helvetica-79"/>
     </g>
    </g>
   </g>
   <g id="patch_83">
    <path d="M 94.94 141.64 
L 94.94 28.8 
" style="fill:none;stroke:#000000;stroke-linecap:square;stroke-linejoin:miter;"/>
   </g>
  </g>
 </g>
 <defs>
  <clipPath id="p3430f1a770">
   <rect height="112.84" width="243.46" x="94.94" y="28.8"/>
  </clipPath>
 </defs>
</svg>
