<?xml version="1.0" encoding="utf-8" standalone="no"?>
<!DOCTYPE svg PUBLIC "-//W3C//DTD SVG 1.1//EN"
  "http://www.w3.org/Graphics/SVG/1.1/DTD/svg11.dtd">
<svg height="216pt" version="1.1" viewBox="0 0 846 216" width="846pt" xmlns="http://www.w3.org/2000/svg" xmlns:xlink="http://www.w3.org/1999/xlink">
 <metadata>
  <rdf:RDF xmlns:cc="http://creativecommons.org/ns#" xmlns:dc="http://purl.org/dc/elements/1.1/" xmlns:rdf="http://www.w3.org/1999/02/22-rdf-syntax-ns#">
   <cc:Work>
    <dc:type rdf:resource="http://purl.org/dc/dcmitype/StillImage"/>
    <dc:date>2022-01-23T17:10:33.061383</dc:date>
    <dc:format>image/svg+xml</dc:format>
    <dc:creator>
     <cc:Agent>
      <dc:title>Matplotlib v3.4.2, https://matplotlib.org/</dc:title>
     </cc:Agent>
    </dc:creator>
   </cc:Work>
  </rdf:RDF>
 </metadata>
 <defs>
  <style type="text/css">*{stroke-linecap:butt;stroke-linejoin:round;}</style>
 </defs>
 <g id="figure_1">
  <g id="patch_1">
   <path d="M 0 216 
L 846 216 
L 846 0 
L 0 0 
z
" style="fill:none;"/>
  </g>
  <g id="axes_1">
   <g id="patch_2">
    <path d="M 86.28 139.94 
L 710.052428 139.94 
L 710.052428 21.6 
L 86.28 21.6 
z
" style="fill:#ffffff;"/>
   </g>
   <g id="QuadMesh_1">
    <path clip-path="url(#p2953271013)" d="M 86.28 21.6 
L 99.551754 21.6 
L 99.551754 41.323333 
L 86.28 41.323333 
L 86.28 21.6 
" style="fill:none;"/>
    <path clip-path="url(#p2953271013)" d="M 99.551754 21.6 
L 112.823508 21.6 
L 112.823508 41.323333 
L 99.551754 41.323333 
L 99.551754 21.6 
" style="fill:none;"/>
    <path clip-path="url(#p2953271013)" d="M 112.823508 21.6 
L 126.095261 21.6 
L 126.095261 41.323333 
L 112.823508 41.323333 
L 112.823508 21.6 
" style="fill:none;"/>
    <path clip-path="url(#p2953271013)" d="M 126.095261 21.6 
L 139.367015 21.6 
L 139.367015 41.323333 
L 126.095261 41.323333 
L 126.095261 21.6 
" style="fill:none;"/>
    <path clip-path="url(#p2953271013)" d="M 139.367015 21.6 
L 152.638769 21.6 
L 152.638769 41.323333 
L 139.367015 41.323333 
L 139.367015 21.6 
" style="fill:none;"/>
    <path clip-path="url(#p2953271013)" d="M 152.638769 21.6 
L 165.910523 21.6 
L 165.910523 41.323333 
L 152.638769 41.323333 
L 152.638769 21.6 
" style="fill:#f8f1f8;"/>
    <path clip-path="url(#p2953271013)" d="M 165.910523 21.6 
L 179.182276 21.6 
L 179.182276 41.323333 
L 165.910523 41.323333 
L 165.910523 21.6 
" style="fill:#f8f1f8;"/>
    <path clip-path="url(#p2953271013)" d="M 179.182276 21.6 
L 192.45403 21.6 
L 192.45403 41.323333 
L 179.182276 41.323333 
L 179.182276 21.6 
" style="fill:#f8f1f8;"/>
    <path clip-path="url(#p2953271013)" d="M 192.45403 21.6 
L 205.725784 21.6 
L 205.725784 41.323333 
L 192.45403 41.323333 
L 192.45403 21.6 
" style="fill:#f8f1f8;"/>
    <path clip-path="url(#p2953271013)" d="M 205.725784 21.6 
L 218.997538 21.6 
L 218.997538 41.323333 
L 205.725784 41.323333 
L 205.725784 21.6 
" style="fill:#f8f1f8;"/>
    <path clip-path="url(#p2953271013)" d="M 218.997538 21.6 
L 232.269292 21.6 
L 232.269292 41.323333 
L 218.997538 41.323333 
L 218.997538 21.6 
" style="fill:#f8f1f8;"/>
    <path clip-path="url(#p2953271013)" d="M 232.269292 21.6 
L 245.541045 21.6 
L 245.541045 41.323333 
L 232.269292 41.323333 
L 232.269292 21.6 
" style="fill:#f8f1f8;"/>
    <path clip-path="url(#p2953271013)" d="M 245.541045 21.6 
L 258.812799 21.6 
L 258.812799 41.323333 
L 245.541045 41.323333 
L 245.541045 21.6 
" style="fill:#f8f1f8;"/>
    <path clip-path="url(#p2953271013)" d="M 258.812799 21.6 
L 272.084553 21.6 
L 272.084553 41.323333 
L 258.812799 41.323333 
L 258.812799 21.6 
" style="fill:#f8f1f8;"/>
    <path clip-path="url(#p2953271013)" d="M 272.084553 21.6 
L 285.356307 21.6 
L 285.356307 41.323333 
L 272.084553 41.323333 
L 272.084553 21.6 
" style="fill:#f8f1f8;"/>
    <path clip-path="url(#p2953271013)" d="M 285.356307 21.6 
L 298.62806 21.6 
L 298.62806 41.323333 
L 285.356307 41.323333 
L 285.356307 21.6 
" style="fill:#f8f1f8;"/>
    <path clip-path="url(#p2953271013)" d="M 298.62806 21.6 
L 311.899814 21.6 
L 311.899814 41.323333 
L 298.62806 41.323333 
L 298.62806 21.6 
" style="fill:#f8f1f8;"/>
    <path clip-path="url(#p2953271013)" d="M 311.899814 21.6 
L 325.171568 21.6 
L 325.171568 41.323333 
L 311.899814 41.323333 
L 311.899814 21.6 
" style="fill:#f8f1f8;"/>
    <path clip-path="url(#p2953271013)" d="M 325.171568 21.6 
L 338.443322 21.6 
L 338.443322 41.323333 
L 325.171568 41.323333 
L 325.171568 21.6 
" style="fill:#f8f1f8;"/>
    <path clip-path="url(#p2953271013)" d="M 338.443322 21.6 
L 351.715076 21.6 
L 351.715076 41.323333 
L 338.443322 41.323333 
L 338.443322 21.6 
" style="fill:#f8f1f8;"/>
    <path clip-path="url(#p2953271013)" d="M 351.715076 21.6 
L 364.986829 21.6 
L 364.986829 41.323333 
L 351.715076 41.323333 
L 351.715076 21.6 
" style="fill:#f8f1f8;"/>
    <path clip-path="url(#p2953271013)" d="M 364.986829 21.6 
L 378.258583 21.6 
L 378.258583 41.323333 
L 364.986829 41.323333 
L 364.986829 21.6 
" style="fill:#f8f1f8;"/>
    <path clip-path="url(#p2953271013)" d="M 378.258583 21.6 
L 391.530337 21.6 
L 391.530337 41.323333 
L 378.258583 41.323333 
L 378.258583 21.6 
" style="fill:#f8f1f8;"/>
    <path clip-path="url(#p2953271013)" d="M 391.530337 21.6 
L 404.802091 21.6 
L 404.802091 41.323333 
L 391.530337 41.323333 
L 391.530337 21.6 
" style="fill:#f8f1f8;"/>
    <path clip-path="url(#p2953271013)" d="M 404.802091 21.6 
L 418.073844 21.6 
L 418.073844 41.323333 
L 404.802091 41.323333 
L 404.802091 21.6 
" style="fill:#f8f1f8;"/>
    <path clip-path="url(#p2953271013)" d="M 418.073844 21.6 
L 431.345598 21.6 
L 431.345598 41.323333 
L 418.073844 41.323333 
L 418.073844 21.6 
" style="fill:#f8f1f8;"/>
    <path clip-path="url(#p2953271013)" d="M 431.345598 21.6 
L 444.617352 21.6 
L 444.617352 41.323333 
L 431.345598 41.323333 
L 431.345598 21.6 
" style="fill:#f1ebf4;"/>
    <path clip-path="url(#p2953271013)" d="M 444.617352 21.6 
L 457.889106 21.6 
L 457.889106 41.323333 
L 444.617352 41.323333 
L 444.617352 21.6 
" style="fill:#f8f1f8;"/>
    <path clip-path="url(#p2953271013)" d="M 457.889106 21.6 
L 471.16086 21.6 
L 471.16086 41.323333 
L 457.889106 41.323333 
L 457.889106 21.6 
" style="fill:#f8f1f8;"/>
    <path clip-path="url(#p2953271013)" d="M 471.16086 21.6 
L 484.432613 21.6 
L 484.432613 41.323333 
L 471.16086 41.323333 
L 471.16086 21.6 
" style="fill:#f8f1f8;"/>
    <path clip-path="url(#p2953271013)" d="M 484.432613 21.6 
L 497.704367 21.6 
L 497.704367 41.323333 
L 484.432613 41.323333 
L 484.432613 21.6 
" style="fill:#f8f1f8;"/>
    <path clip-path="url(#p2953271013)" d="M 497.704367 21.6 
L 510.976121 21.6 
L 510.976121 41.323333 
L 497.704367 41.323333 
L 497.704367 21.6 
" style="fill:#f8f1f8;"/>
    <path clip-path="url(#p2953271013)" d="M 510.976121 21.6 
L 524.247875 21.6 
L 524.247875 41.323333 
L 510.976121 41.323333 
L 510.976121 21.6 
" style="fill:#f8f1f8;"/>
    <path clip-path="url(#p2953271013)" d="M 524.247875 21.6 
L 537.519628 21.6 
L 537.519628 41.323333 
L 524.247875 41.323333 
L 524.247875 21.6 
" style="fill:#f8f1f8;"/>
    <path clip-path="url(#p2953271013)" d="M 537.519628 21.6 
L 550.791382 21.6 
L 550.791382 41.323333 
L 537.519628 41.323333 
L 537.519628 21.6 
" style="fill:#f8f1f8;"/>
    <path clip-path="url(#p2953271013)" d="M 550.791382 21.6 
L 564.063136 21.6 
L 564.063136 41.323333 
L 550.791382 41.323333 
L 550.791382 21.6 
" style="fill:#f8f1f8;"/>
    <path clip-path="url(#p2953271013)" d="M 564.063136 21.6 
L 577.33489 21.6 
L 577.33489 41.323333 
L 564.063136 41.323333 
L 564.063136 21.6 
" style="fill:#f8f1f8;"/>
    <path clip-path="url(#p2953271013)" d="M 577.33489 21.6 
L 590.606644 21.6 
L 590.606644 41.323333 
L 577.33489 41.323333 
L 577.33489 21.6 
" style="fill:#f8f1f8;"/>
    <path clip-path="url(#p2953271013)" d="M 590.606644 21.6 
L 603.878397 21.6 
L 603.878397 41.323333 
L 590.606644 41.323333 
L 590.606644 21.6 
" style="fill:#f8f1f8;"/>
    <path clip-path="url(#p2953271013)" d="M 603.878397 21.6 
L 617.150151 21.6 
L 617.150151 41.323333 
L 603.878397 41.323333 
L 603.878397 21.6 
" style="fill:#f8f1f8;"/>
    <path clip-path="url(#p2953271013)" d="M 617.150151 21.6 
L 630.421905 21.6 
L 630.421905 41.323333 
L 617.150151 41.323333 
L 617.150151 21.6 
" style="fill:#f8f1f8;"/>
    <path clip-path="url(#p2953271013)" d="M 630.421905 21.6 
L 643.693659 21.6 
L 643.693659 41.323333 
L 630.421905 41.323333 
L 630.421905 21.6 
" style="fill:#f8f1f8;"/>
    <path clip-path="url(#p2953271013)" d="M 643.693659 21.6 
L 656.965412 21.6 
L 656.965412 41.323333 
L 643.693659 41.323333 
L 643.693659 21.6 
" style="fill:#f8f1f8;"/>
    <path clip-path="url(#p2953271013)" d="M 656.965412 21.6 
L 670.237166 21.6 
L 670.237166 41.323333 
L 656.965412 41.323333 
L 656.965412 21.6 
" style="fill:#f8f1f8;"/>
    <path clip-path="url(#p2953271013)" d="M 670.237166 21.6 
L 683.50892 21.6 
L 683.50892 41.323333 
L 670.237166 41.323333 
L 670.237166 21.6 
" style="fill:#f8f1f8;"/>
    <path clip-path="url(#p2953271013)" d="M 683.50892 21.6 
L 696.780674 21.6 
L 696.780674 41.323333 
L 683.50892 41.323333 
L 683.50892 21.6 
" style="fill:#f8f1f8;"/>
    <path clip-path="url(#p2953271013)" d="M 696.780674 21.6 
L 710.052428 21.6 
L 710.052428 41.323333 
L 696.780674 41.323333 
L 696.780674 21.6 
" style="fill:#f8f1f8;"/>
    <path clip-path="url(#p2953271013)" d="M 86.28 41.323333 
L 99.551754 41.323333 
L 99.551754 61.046667 
L 86.28 61.046667 
L 86.28 41.323333 
" style="fill:#f8f1f8;"/>
    <path clip-path="url(#p2953271013)" d="M 99.551754 41.323333 
L 112.823508 41.323333 
L 112.823508 61.046667 
L 99.551754 61.046667 
L 99.551754 41.323333 
" style="fill:none;"/>
    <path clip-path="url(#p2953271013)" d="M 112.823508 41.323333 
L 126.095261 41.323333 
L 126.095261 61.046667 
L 112.823508 61.046667 
L 112.823508 41.323333 
" style="fill:none;"/>
    <path clip-path="url(#p2953271013)" d="M 126.095261 41.323333 
L 139.367015 41.323333 
L 139.367015 61.046667 
L 126.095261 61.046667 
L 126.095261 41.323333 
" style="fill:none;"/>
    <path clip-path="url(#p2953271013)" d="M 139.367015 41.323333 
L 152.638769 41.323333 
L 152.638769 61.046667 
L 139.367015 61.046667 
L 139.367015 41.323333 
" style="fill:none;"/>
    <path clip-path="url(#p2953271013)" d="M 152.638769 41.323333 
L 165.910523 41.323333 
L 165.910523 61.046667 
L 152.638769 61.046667 
L 152.638769 41.323333 
" style="fill:none;"/>
    <path clip-path="url(#p2953271013)" d="M 165.910523 41.323333 
L 179.182276 41.323333 
L 179.182276 61.046667 
L 165.910523 61.046667 
L 165.910523 41.323333 
" style="fill:#f8f1f8;"/>
    <path clip-path="url(#p2953271013)" d="M 179.182276 41.323333 
L 192.45403 41.323333 
L 192.45403 61.046667 
L 179.182276 61.046667 
L 179.182276 41.323333 
" style="fill:none;"/>
    <path clip-path="url(#p2953271013)" d="M 192.45403 41.323333 
L 205.725784 41.323333 
L 205.725784 61.046667 
L 192.45403 61.046667 
L 192.45403 41.323333 
" style="fill:none;"/>
    <path clip-path="url(#p2953271013)" d="M 205.725784 41.323333 
L 218.997538 41.323333 
L 218.997538 61.046667 
L 205.725784 61.046667 
L 205.725784 41.323333 
" style="fill:none;"/>
    <path clip-path="url(#p2953271013)" d="M 218.997538 41.323333 
L 232.269292 41.323333 
L 232.269292 61.046667 
L 218.997538 61.046667 
L 218.997538 41.323333 
" style="fill:#f8f1f8;"/>
    <path clip-path="url(#p2953271013)" d="M 232.269292 41.323333 
L 245.541045 41.323333 
L 245.541045 61.046667 
L 232.269292 61.046667 
L 232.269292 41.323333 
" style="fill:none;"/>
    <path clip-path="url(#p2953271013)" d="M 245.541045 41.323333 
L 258.812799 41.323333 
L 258.812799 61.046667 
L 245.541045 61.046667 
L 245.541045 41.323333 
" style="fill:none;"/>
    <path clip-path="url(#p2953271013)" d="M 258.812799 41.323333 
L 272.084553 41.323333 
L 272.084553 61.046667 
L 258.812799 61.046667 
L 258.812799 41.323333 
" style="fill:none;"/>
    <path clip-path="url(#p2953271013)" d="M 272.084553 41.323333 
L 285.356307 41.323333 
L 285.356307 61.046667 
L 272.084553 61.046667 
L 272.084553 41.323333 
" style="fill:none;"/>
    <path clip-path="url(#p2953271013)" d="M 285.356307 41.323333 
L 298.62806 41.323333 
L 298.62806 61.046667 
L 285.356307 61.046667 
L 285.356307 41.323333 
" style="fill:none;"/>
    <path clip-path="url(#p2953271013)" d="M 298.62806 41.323333 
L 311.899814 41.323333 
L 311.899814 61.046667 
L 298.62806 61.046667 
L 298.62806 41.323333 
" style="fill:none;"/>
    <path clip-path="url(#p2953271013)" d="M 311.899814 41.323333 
L 325.171568 41.323333 
L 325.171568 61.046667 
L 311.899814 61.046667 
L 311.899814 41.323333 
" style="fill:none;"/>
    <path clip-path="url(#p2953271013)" d="M 325.171568 41.323333 
L 338.443322 41.323333 
L 338.443322 61.046667 
L 325.171568 61.046667 
L 325.171568 41.323333 
" style="fill:#f8f1f8;"/>
    <path clip-path="url(#p2953271013)" d="M 338.443322 41.323333 
L 351.715076 41.323333 
L 351.715076 61.046667 
L 338.443322 61.046667 
L 338.443322 41.323333 
" style="fill:none;"/>
    <path clip-path="url(#p2953271013)" d="M 351.715076 41.323333 
L 364.986829 41.323333 
L 364.986829 61.046667 
L 351.715076 61.046667 
L 351.715076 41.323333 
" style="fill:#05659f;"/>
    <path clip-path="url(#p2953271013)" d="M 364.986829 41.323333 
L 378.258583 41.323333 
L 378.258583 61.046667 
L 364.986829 61.046667 
L 364.986829 41.323333 
" style="fill:none;"/>
    <path clip-path="url(#p2953271013)" d="M 378.258583 41.323333 
L 391.530337 41.323333 
L 391.530337 61.046667 
L 378.258583 61.046667 
L 378.258583 41.323333 
" style="fill:#f8f1f8;"/>
    <path clip-path="url(#p2953271013)" d="M 391.530337 41.323333 
L 404.802091 41.323333 
L 404.802091 61.046667 
L 391.530337 61.046667 
L 391.530337 41.323333 
" style="fill:none;"/>
    <path clip-path="url(#p2953271013)" d="M 404.802091 41.323333 
L 418.073844 41.323333 
L 418.073844 61.046667 
L 404.802091 61.046667 
L 404.802091 41.323333 
" style="fill:none;"/>
    <path clip-path="url(#p2953271013)" d="M 418.073844 41.323333 
L 431.345598 41.323333 
L 431.345598 61.046667 
L 418.073844 61.046667 
L 418.073844 41.323333 
" style="fill:none;"/>
    <path clip-path="url(#p2953271013)" d="M 431.345598 41.323333 
L 444.617352 41.323333 
L 444.617352 61.046667 
L 431.345598 61.046667 
L 431.345598 41.323333 
" style="fill:#f8f1f8;"/>
    <path clip-path="url(#p2953271013)" d="M 444.617352 41.323333 
L 457.889106 41.323333 
L 457.889106 61.046667 
L 444.617352 61.046667 
L 444.617352 41.323333 
" style="fill:none;"/>
    <path clip-path="url(#p2953271013)" d="M 457.889106 41.323333 
L 471.16086 41.323333 
L 471.16086 61.046667 
L 457.889106 61.046667 
L 457.889106 41.323333 
" style="fill:none;"/>
    <path clip-path="url(#p2953271013)" d="M 471.16086 41.323333 
L 484.432613 41.323333 
L 484.432613 61.046667 
L 471.16086 61.046667 
L 471.16086 41.323333 
" style="fill:none;"/>
    <path clip-path="url(#p2953271013)" d="M 484.432613 41.323333 
L 497.704367 41.323333 
L 497.704367 61.046667 
L 484.432613 61.046667 
L 484.432613 41.323333 
" style="fill:none;"/>
    <path clip-path="url(#p2953271013)" d="M 497.704367 41.323333 
L 510.976121 41.323333 
L 510.976121 61.046667 
L 497.704367 61.046667 
L 497.704367 41.323333 
" style="fill:none;"/>
    <path clip-path="url(#p2953271013)" d="M 510.976121 41.323333 
L 524.247875 41.323333 
L 524.247875 61.046667 
L 510.976121 61.046667 
L 510.976121 41.323333 
" style="fill:none;"/>
    <path clip-path="url(#p2953271013)" d="M 524.247875 41.323333 
L 537.519628 41.323333 
L 537.519628 61.046667 
L 524.247875 61.046667 
L 524.247875 41.323333 
" style="fill:none;"/>
    <path clip-path="url(#p2953271013)" d="M 537.519628 41.323333 
L 550.791382 41.323333 
L 550.791382 61.046667 
L 537.519628 61.046667 
L 537.519628 41.323333 
" style="fill:none;"/>
    <path clip-path="url(#p2953271013)" d="M 550.791382 41.323333 
L 564.063136 41.323333 
L 564.063136 61.046667 
L 550.791382 61.046667 
L 550.791382 41.323333 
" style="fill:none;"/>
    <path clip-path="url(#p2953271013)" d="M 564.063136 41.323333 
L 577.33489 41.323333 
L 577.33489 61.046667 
L 564.063136 61.046667 
L 564.063136 41.323333 
" style="fill:none;"/>
    <path clip-path="url(#p2953271013)" d="M 577.33489 41.323333 
L 590.606644 41.323333 
L 590.606644 61.046667 
L 577.33489 61.046667 
L 577.33489 41.323333 
" style="fill:none;"/>
    <path clip-path="url(#p2953271013)" d="M 590.606644 41.323333 
L 603.878397 41.323333 
L 603.878397 61.046667 
L 590.606644 61.046667 
L 590.606644 41.323333 
" style="fill:none;"/>
    <path clip-path="url(#p2953271013)" d="M 603.878397 41.323333 
L 617.150151 41.323333 
L 617.150151 61.046667 
L 603.878397 61.046667 
L 603.878397 41.323333 
" style="fill:none;"/>
    <path clip-path="url(#p2953271013)" d="M 617.150151 41.323333 
L 630.421905 41.323333 
L 630.421905 61.046667 
L 617.150151 61.046667 
L 617.150151 41.323333 
" style="fill:none;"/>
    <path clip-path="url(#p2953271013)" d="M 630.421905 41.323333 
L 643.693659 41.323333 
L 643.693659 61.046667 
L 630.421905 61.046667 
L 630.421905 41.323333 
" style="fill:none;"/>
    <path clip-path="url(#p2953271013)" d="M 643.693659 41.323333 
L 656.965412 41.323333 
L 656.965412 61.046667 
L 643.693659 61.046667 
L 643.693659 41.323333 
" style="fill:none;"/>
    <path clip-path="url(#p2953271013)" d="M 656.965412 41.323333 
L 670.237166 41.323333 
L 670.237166 61.046667 
L 656.965412 61.046667 
L 656.965412 41.323333 
" style="fill:none;"/>
    <path clip-path="url(#p2953271013)" d="M 670.237166 41.323333 
L 683.50892 41.323333 
L 683.50892 61.046667 
L 670.237166 61.046667 
L 670.237166 41.323333 
" style="fill:none;"/>
    <path clip-path="url(#p2953271013)" d="M 683.50892 41.323333 
L 696.780674 41.323333 
L 696.780674 61.046667 
L 683.50892 61.046667 
L 683.50892 41.323333 
" style="fill:none;"/>
    <path clip-path="url(#p2953271013)" d="M 696.780674 41.323333 
L 710.052428 41.323333 
L 710.052428 61.046667 
L 696.780674 61.046667 
L 696.780674 41.323333 
" style="fill:none;"/>
    <path clip-path="url(#p2953271013)" d="M 86.28 61.046667 
L 99.551754 61.046667 
L 99.551754 80.77 
L 86.28 80.77 
L 86.28 61.046667 
" style="fill:none;"/>
    <path clip-path="url(#p2953271013)" d="M 99.551754 61.046667 
L 112.823508 61.046667 
L 112.823508 80.77 
L 99.551754 80.77 
L 99.551754 61.046667 
" style="fill:#f8f1f8;"/>
    <path clip-path="url(#p2953271013)" d="M 112.823508 61.046667 
L 126.095261 61.046667 
L 126.095261 80.77 
L 112.823508 80.77 
L 112.823508 61.046667 
" style="fill:none;"/>
    <path clip-path="url(#p2953271013)" d="M 126.095261 61.046667 
L 139.367015 61.046667 
L 139.367015 80.77 
L 126.095261 80.77 
L 126.095261 61.046667 
" style="fill:#f8f1f8;"/>
    <path clip-path="url(#p2953271013)" d="M 139.367015 61.046667 
L 152.638769 61.046667 
L 152.638769 80.77 
L 139.367015 80.77 
L 139.367015 61.046667 
" style="fill:none;"/>
    <path clip-path="url(#p2953271013)" d="M 152.638769 61.046667 
L 165.910523 61.046667 
L 165.910523 80.77 
L 152.638769 80.77 
L 152.638769 61.046667 
" style="fill:#f8f1f8;"/>
    <path clip-path="url(#p2953271013)" d="M 165.910523 61.046667 
L 179.182276 61.046667 
L 179.182276 80.77 
L 165.910523 80.77 
L 165.910523 61.046667 
" style="fill:none;"/>
    <path clip-path="url(#p2953271013)" d="M 179.182276 61.046667 
L 192.45403 61.046667 
L 192.45403 80.77 
L 179.182276 80.77 
L 179.182276 61.046667 
" style="fill:#f8f1f8;"/>
    <path clip-path="url(#p2953271013)" d="M 192.45403 61.046667 
L 205.725784 61.046667 
L 205.725784 80.77 
L 192.45403 80.77 
L 192.45403 61.046667 
" style="fill:none;"/>
    <path clip-path="url(#p2953271013)" d="M 205.725784 61.046667 
L 218.997538 61.046667 
L 218.997538 80.77 
L 205.725784 80.77 
L 205.725784 61.046667 
" style="fill:#f8f1f8;"/>
    <path clip-path="url(#p2953271013)" d="M 218.997538 61.046667 
L 232.269292 61.046667 
L 232.269292 80.77 
L 218.997538 80.77 
L 218.997538 61.046667 
" style="fill:none;"/>
    <path clip-path="url(#p2953271013)" d="M 232.269292 61.046667 
L 245.541045 61.046667 
L 245.541045 80.77 
L 232.269292 80.77 
L 232.269292 61.046667 
" style="fill:#f8f1f8;"/>
    <path clip-path="url(#p2953271013)" d="M 245.541045 61.046667 
L 258.812799 61.046667 
L 258.812799 80.77 
L 245.541045 80.77 
L 245.541045 61.046667 
" style="fill:none;"/>
    <path clip-path="url(#p2953271013)" d="M 258.812799 61.046667 
L 272.084553 61.046667 
L 272.084553 80.77 
L 258.812799 80.77 
L 258.812799 61.046667 
" style="fill:#f8f1f8;"/>
    <path clip-path="url(#p2953271013)" d="M 272.084553 61.046667 
L 285.356307 61.046667 
L 285.356307 80.77 
L 272.084553 80.77 
L 272.084553 61.046667 
" style="fill:none;"/>
    <path clip-path="url(#p2953271013)" d="M 285.356307 61.046667 
L 298.62806 61.046667 
L 298.62806 80.77 
L 285.356307 80.77 
L 285.356307 61.046667 
" style="fill:#f8f1f8;"/>
    <path clip-path="url(#p2953271013)" d="M 298.62806 61.046667 
L 311.899814 61.046667 
L 311.899814 80.77 
L 298.62806 80.77 
L 298.62806 61.046667 
" style="fill:none;"/>
    <path clip-path="url(#p2953271013)" d="M 311.899814 61.046667 
L 325.171568 61.046667 
L 325.171568 80.77 
L 311.899814 80.77 
L 311.899814 61.046667 
" style="fill:#f8f1f8;"/>
    <path clip-path="url(#p2953271013)" d="M 325.171568 61.046667 
L 338.443322 61.046667 
L 338.443322 80.77 
L 325.171568 80.77 
L 325.171568 61.046667 
" style="fill:none;"/>
    <path clip-path="url(#p2953271013)" d="M 338.443322 61.046667 
L 351.715076 61.046667 
L 351.715076 80.77 
L 338.443322 80.77 
L 338.443322 61.046667 
" style="fill:#f8f1f8;"/>
    <path clip-path="url(#p2953271013)" d="M 351.715076 61.046667 
L 364.986829 61.046667 
L 364.986829 80.77 
L 351.715076 80.77 
L 351.715076 61.046667 
" style="fill:none;"/>
    <path clip-path="url(#p2953271013)" d="M 364.986829 61.046667 
L 378.258583 61.046667 
L 378.258583 80.77 
L 364.986829 80.77 
L 364.986829 61.046667 
" style="fill:none;"/>
    <path clip-path="url(#p2953271013)" d="M 378.258583 61.046667 
L 391.530337 61.046667 
L 391.530337 80.77 
L 378.258583 80.77 
L 378.258583 61.046667 
" style="fill:none;"/>
    <path clip-path="url(#p2953271013)" d="M 391.530337 61.046667 
L 404.802091 61.046667 
L 404.802091 80.77 
L 391.530337 80.77 
L 391.530337 61.046667 
" style="fill:#f8f1f8;"/>
    <path clip-path="url(#p2953271013)" d="M 404.802091 61.046667 
L 418.073844 61.046667 
L 418.073844 80.77 
L 404.802091 80.77 
L 404.802091 61.046667 
" style="fill:none;"/>
    <path clip-path="url(#p2953271013)" d="M 418.073844 61.046667 
L 431.345598 61.046667 
L 431.345598 80.77 
L 418.073844 80.77 
L 418.073844 61.046667 
" style="fill:none;"/>
    <path clip-path="url(#p2953271013)" d="M 431.345598 61.046667 
L 444.617352 61.046667 
L 444.617352 80.77 
L 431.345598 80.77 
L 431.345598 61.046667 
" style="fill:none;"/>
    <path clip-path="url(#p2953271013)" d="M 444.617352 61.046667 
L 457.889106 61.046667 
L 457.889106 80.77 
L 444.617352 80.77 
L 444.617352 61.046667 
" style="fill:none;"/>
    <path clip-path="url(#p2953271013)" d="M 457.889106 61.046667 
L 471.16086 61.046667 
L 471.16086 80.77 
L 457.889106 80.77 
L 457.889106 61.046667 
" style="fill:none;"/>
    <path clip-path="url(#p2953271013)" d="M 471.16086 61.046667 
L 484.432613 61.046667 
L 484.432613 80.77 
L 471.16086 80.77 
L 471.16086 61.046667 
" style="fill:none;"/>
    <path clip-path="url(#p2953271013)" d="M 484.432613 61.046667 
L 497.704367 61.046667 
L 497.704367 80.77 
L 484.432613 80.77 
L 484.432613 61.046667 
" style="fill:none;"/>
    <path clip-path="url(#p2953271013)" d="M 497.704367 61.046667 
L 510.976121 61.046667 
L 510.976121 80.77 
L 497.704367 80.77 
L 497.704367 61.046667 
" style="fill:none;"/>
    <path clip-path="url(#p2953271013)" d="M 510.976121 61.046667 
L 524.247875 61.046667 
L 524.247875 80.77 
L 510.976121 80.77 
L 510.976121 61.046667 
" style="fill:none;"/>
    <path clip-path="url(#p2953271013)" d="M 524.247875 61.046667 
L 537.519628 61.046667 
L 537.519628 80.77 
L 524.247875 80.77 
L 524.247875 61.046667 
" style="fill:none;"/>
    <path clip-path="url(#p2953271013)" d="M 537.519628 61.046667 
L 550.791382 61.046667 
L 550.791382 80.77 
L 537.519628 80.77 
L 537.519628 61.046667 
" style="fill:none;"/>
    <path clip-path="url(#p2953271013)" d="M 550.791382 61.046667 
L 564.063136 61.046667 
L 564.063136 80.77 
L 550.791382 80.77 
L 550.791382 61.046667 
" style="fill:none;"/>
    <path clip-path="url(#p2953271013)" d="M 564.063136 61.046667 
L 577.33489 61.046667 
L 577.33489 80.77 
L 564.063136 80.77 
L 564.063136 61.046667 
" style="fill:none;"/>
    <path clip-path="url(#p2953271013)" d="M 577.33489 61.046667 
L 590.606644 61.046667 
L 590.606644 80.77 
L 577.33489 80.77 
L 577.33489 61.046667 
" style="fill:none;"/>
    <path clip-path="url(#p2953271013)" d="M 590.606644 61.046667 
L 603.878397 61.046667 
L 603.878397 80.77 
L 590.606644 80.77 
L 590.606644 61.046667 
" style="fill:none;"/>
    <path clip-path="url(#p2953271013)" d="M 603.878397 61.046667 
L 617.150151 61.046667 
L 617.150151 80.77 
L 603.878397 80.77 
L 603.878397 61.046667 
" style="fill:none;"/>
    <path clip-path="url(#p2953271013)" d="M 617.150151 61.046667 
L 630.421905 61.046667 
L 630.421905 80.77 
L 617.150151 80.77 
L 617.150151 61.046667 
" style="fill:none;"/>
    <path clip-path="url(#p2953271013)" d="M 630.421905 61.046667 
L 643.693659 61.046667 
L 643.693659 80.77 
L 630.421905 80.77 
L 630.421905 61.046667 
" style="fill:none;"/>
    <path clip-path="url(#p2953271013)" d="M 643.693659 61.046667 
L 656.965412 61.046667 
L 656.965412 80.77 
L 643.693659 80.77 
L 643.693659 61.046667 
" style="fill:none;"/>
    <path clip-path="url(#p2953271013)" d="M 656.965412 61.046667 
L 670.237166 61.046667 
L 670.237166 80.77 
L 656.965412 80.77 
L 656.965412 61.046667 
" style="fill:none;"/>
    <path clip-path="url(#p2953271013)" d="M 670.237166 61.046667 
L 683.50892 61.046667 
L 683.50892 80.77 
L 670.237166 80.77 
L 670.237166 61.046667 
" style="fill:none;"/>
    <path clip-path="url(#p2953271013)" d="M 683.50892 61.046667 
L 696.780674 61.046667 
L 696.780674 80.77 
L 683.50892 80.77 
L 683.50892 61.046667 
" style="fill:none;"/>
    <path clip-path="url(#p2953271013)" d="M 696.780674 61.046667 
L 710.052428 61.046667 
L 710.052428 80.77 
L 696.780674 80.77 
L 696.780674 61.046667 
" style="fill:none;"/>
    <path clip-path="url(#p2953271013)" d="M 86.28 80.77 
L 99.551754 80.77 
L 99.551754 100.493333 
L 86.28 100.493333 
L 86.28 80.77 
" style="fill:none;"/>
    <path clip-path="url(#p2953271013)" d="M 99.551754 80.77 
L 112.823508 80.77 
L 112.823508 100.493333 
L 99.551754 100.493333 
L 99.551754 80.77 
" style="fill:#f8f1f8;"/>
    <path clip-path="url(#p2953271013)" d="M 112.823508 80.77 
L 126.095261 80.77 
L 126.095261 100.493333 
L 112.823508 100.493333 
L 112.823508 80.77 
" style="fill:none;"/>
    <path clip-path="url(#p2953271013)" d="M 126.095261 80.77 
L 139.367015 80.77 
L 139.367015 100.493333 
L 126.095261 100.493333 
L 126.095261 80.77 
" style="fill:#f8f1f8;"/>
    <path clip-path="url(#p2953271013)" d="M 139.367015 80.77 
L 152.638769 80.77 
L 152.638769 100.493333 
L 139.367015 100.493333 
L 139.367015 80.77 
" style="fill:none;"/>
    <path clip-path="url(#p2953271013)" d="M 152.638769 80.77 
L 165.910523 80.77 
L 165.910523 100.493333 
L 152.638769 100.493333 
L 152.638769 80.77 
" style="fill:#f8f1f8;"/>
    <path clip-path="url(#p2953271013)" d="M 165.910523 80.77 
L 179.182276 80.77 
L 179.182276 100.493333 
L 165.910523 100.493333 
L 165.910523 80.77 
" style="fill:none;"/>
    <path clip-path="url(#p2953271013)" d="M 179.182276 80.77 
L 192.45403 80.77 
L 192.45403 100.493333 
L 179.182276 100.493333 
L 179.182276 80.77 
" style="fill:#03456c;"/>
    <path clip-path="url(#p2953271013)" d="M 192.45403 80.77 
L 205.725784 80.77 
L 205.725784 100.493333 
L 192.45403 100.493333 
L 192.45403 80.77 
" style="fill:none;"/>
    <path clip-path="url(#p2953271013)" d="M 205.725784 80.77 
L 218.997538 80.77 
L 218.997538 100.493333 
L 205.725784 100.493333 
L 205.725784 80.77 
" style="fill:#f8f1f8;"/>
    <path clip-path="url(#p2953271013)" d="M 218.997538 80.77 
L 232.269292 80.77 
L 232.269292 100.493333 
L 218.997538 100.493333 
L 218.997538 80.77 
" style="fill:none;"/>
    <path clip-path="url(#p2953271013)" d="M 232.269292 80.77 
L 245.541045 80.77 
L 245.541045 100.493333 
L 232.269292 100.493333 
L 232.269292 80.77 
" style="fill:#f8f1f8;"/>
    <path clip-path="url(#p2953271013)" d="M 245.541045 80.77 
L 258.812799 80.77 
L 258.812799 100.493333 
L 245.541045 100.493333 
L 245.541045 80.77 
" style="fill:none;"/>
    <path clip-path="url(#p2953271013)" d="M 258.812799 80.77 
L 272.084553 80.77 
L 272.084553 100.493333 
L 258.812799 100.493333 
L 258.812799 80.77 
" style="fill:#f8f1f8;"/>
    <path clip-path="url(#p2953271013)" d="M 272.084553 80.77 
L 285.356307 80.77 
L 285.356307 100.493333 
L 272.084553 100.493333 
L 272.084553 80.77 
" style="fill:none;"/>
    <path clip-path="url(#p2953271013)" d="M 285.356307 80.77 
L 298.62806 80.77 
L 298.62806 100.493333 
L 285.356307 100.493333 
L 285.356307 80.77 
" style="fill:#f8f1f8;"/>
    <path clip-path="url(#p2953271013)" d="M 298.62806 80.77 
L 311.899814 80.77 
L 311.899814 100.493333 
L 298.62806 100.493333 
L 298.62806 80.77 
" style="fill:none;"/>
    <path clip-path="url(#p2953271013)" d="M 311.899814 80.77 
L 325.171568 80.77 
L 325.171568 100.493333 
L 311.899814 100.493333 
L 311.899814 80.77 
" style="fill:#f8f1f8;"/>
    <path clip-path="url(#p2953271013)" d="M 325.171568 80.77 
L 338.443322 80.77 
L 338.443322 100.493333 
L 325.171568 100.493333 
L 325.171568 80.77 
" style="fill:none;"/>
    <path clip-path="url(#p2953271013)" d="M 338.443322 80.77 
L 351.715076 80.77 
L 351.715076 100.493333 
L 338.443322 100.493333 
L 338.443322 80.77 
" style="fill:#f8f1f8;"/>
    <path clip-path="url(#p2953271013)" d="M 351.715076 80.77 
L 364.986829 80.77 
L 364.986829 100.493333 
L 351.715076 100.493333 
L 351.715076 80.77 
" style="fill:none;"/>
    <path clip-path="url(#p2953271013)" d="M 364.986829 80.77 
L 378.258583 80.77 
L 378.258583 100.493333 
L 364.986829 100.493333 
L 364.986829 80.77 
" style="fill:#f8f1f8;"/>
    <path clip-path="url(#p2953271013)" d="M 378.258583 80.77 
L 391.530337 80.77 
L 391.530337 100.493333 
L 378.258583 100.493333 
L 378.258583 80.77 
" style="fill:none;"/>
    <path clip-path="url(#p2953271013)" d="M 391.530337 80.77 
L 404.802091 80.77 
L 404.802091 100.493333 
L 391.530337 100.493333 
L 391.530337 80.77 
" style="fill:#f8f1f8;"/>
    <path clip-path="url(#p2953271013)" d="M 404.802091 80.77 
L 418.073844 80.77 
L 418.073844 100.493333 
L 404.802091 100.493333 
L 404.802091 80.77 
" style="fill:none;"/>
    <path clip-path="url(#p2953271013)" d="M 418.073844 80.77 
L 431.345598 80.77 
L 431.345598 100.493333 
L 418.073844 100.493333 
L 418.073844 80.77 
" style="fill:#f8f1f8;"/>
    <path clip-path="url(#p2953271013)" d="M 431.345598 80.77 
L 444.617352 80.77 
L 444.617352 100.493333 
L 431.345598 100.493333 
L 431.345598 80.77 
" style="fill:none;"/>
    <path clip-path="url(#p2953271013)" d="M 444.617352 80.77 
L 457.889106 80.77 
L 457.889106 100.493333 
L 444.617352 100.493333 
L 444.617352 80.77 
" style="fill:#f8f1f8;"/>
    <path clip-path="url(#p2953271013)" d="M 457.889106 80.77 
L 471.16086 80.77 
L 471.16086 100.493333 
L 457.889106 100.493333 
L 457.889106 80.77 
" style="fill:none;"/>
    <path clip-path="url(#p2953271013)" d="M 471.16086 80.77 
L 484.432613 80.77 
L 484.432613 100.493333 
L 471.16086 100.493333 
L 471.16086 80.77 
" style="fill:#f8f1f8;"/>
    <path clip-path="url(#p2953271013)" d="M 484.432613 80.77 
L 497.704367 80.77 
L 497.704367 100.493333 
L 484.432613 100.493333 
L 484.432613 80.77 
" style="fill:none;"/>
    <path clip-path="url(#p2953271013)" d="M 497.704367 80.77 
L 510.976121 80.77 
L 510.976121 100.493333 
L 497.704367 100.493333 
L 497.704367 80.77 
" style="fill:none;"/>
    <path clip-path="url(#p2953271013)" d="M 510.976121 80.77 
L 524.247875 80.77 
L 524.247875 100.493333 
L 510.976121 100.493333 
L 510.976121 80.77 
" style="fill:none;"/>
    <path clip-path="url(#p2953271013)" d="M 524.247875 80.77 
L 537.519628 80.77 
L 537.519628 100.493333 
L 524.247875 100.493333 
L 524.247875 80.77 
" style="fill:none;"/>
    <path clip-path="url(#p2953271013)" d="M 537.519628 80.77 
L 550.791382 80.77 
L 550.791382 100.493333 
L 537.519628 100.493333 
L 537.519628 80.77 
" style="fill:none;"/>
    <path clip-path="url(#p2953271013)" d="M 550.791382 80.77 
L 564.063136 80.77 
L 564.063136 100.493333 
L 550.791382 100.493333 
L 550.791382 80.77 
" style="fill:#f8f1f8;"/>
    <path clip-path="url(#p2953271013)" d="M 564.063136 80.77 
L 577.33489 80.77 
L 577.33489 100.493333 
L 564.063136 100.493333 
L 564.063136 80.77 
" style="fill:none;"/>
    <path clip-path="url(#p2953271013)" d="M 577.33489 80.77 
L 590.606644 80.77 
L 590.606644 100.493333 
L 577.33489 100.493333 
L 577.33489 80.77 
" style="fill:none;"/>
    <path clip-path="url(#p2953271013)" d="M 590.606644 80.77 
L 603.878397 80.77 
L 603.878397 100.493333 
L 590.606644 100.493333 
L 590.606644 80.77 
" style="fill:none;"/>
    <path clip-path="url(#p2953271013)" d="M 603.878397 80.77 
L 617.150151 80.77 
L 617.150151 100.493333 
L 603.878397 100.493333 
L 603.878397 80.77 
" style="fill:none;"/>
    <path clip-path="url(#p2953271013)" d="M 617.150151 80.77 
L 630.421905 80.77 
L 630.421905 100.493333 
L 617.150151 100.493333 
L 617.150151 80.77 
" style="fill:none;"/>
    <path clip-path="url(#p2953271013)" d="M 630.421905 80.77 
L 643.693659 80.77 
L 643.693659 100.493333 
L 630.421905 100.493333 
L 630.421905 80.77 
" style="fill:#f8f1f8;"/>
    <path clip-path="url(#p2953271013)" d="M 643.693659 80.77 
L 656.965412 80.77 
L 656.965412 100.493333 
L 643.693659 100.493333 
L 643.693659 80.77 
" style="fill:none;"/>
    <path clip-path="url(#p2953271013)" d="M 656.965412 80.77 
L 670.237166 80.77 
L 670.237166 100.493333 
L 656.965412 100.493333 
L 656.965412 80.77 
" style="fill:none;"/>
    <path clip-path="url(#p2953271013)" d="M 670.237166 80.77 
L 683.50892 80.77 
L 683.50892 100.493333 
L 670.237166 100.493333 
L 670.237166 80.77 
" style="fill:none;"/>
    <path clip-path="url(#p2953271013)" d="M 683.50892 80.77 
L 696.780674 80.77 
L 696.780674 100.493333 
L 683.50892 100.493333 
L 683.50892 80.77 
" style="fill:none;"/>
    <path clip-path="url(#p2953271013)" d="M 696.780674 80.77 
L 710.052428 80.77 
L 710.052428 100.493333 
L 696.780674 100.493333 
L 696.780674 80.77 
" style="fill:none;"/>
    <path clip-path="url(#p2953271013)" d="M 86.28 100.493333 
L 99.551754 100.493333 
L 99.551754 120.216667 
L 86.28 120.216667 
L 86.28 100.493333 
" style="fill:none;"/>
    <path clip-path="url(#p2953271013)" d="M 99.551754 100.493333 
L 112.823508 100.493333 
L 112.823508 120.216667 
L 99.551754 120.216667 
L 99.551754 100.493333 
" style="fill:#f8f1f8;"/>
    <path clip-path="url(#p2953271013)" d="M 112.823508 100.493333 
L 126.095261 100.493333 
L 126.095261 120.216667 
L 112.823508 120.216667 
L 112.823508 100.493333 
" style="fill:none;"/>
    <path clip-path="url(#p2953271013)" d="M 126.095261 100.493333 
L 139.367015 100.493333 
L 139.367015 120.216667 
L 126.095261 120.216667 
L 126.095261 100.493333 
" style="fill:#f8f1f8;"/>
    <path clip-path="url(#p2953271013)" d="M 139.367015 100.493333 
L 152.638769 100.493333 
L 152.638769 120.216667 
L 139.367015 120.216667 
L 139.367015 100.493333 
" style="fill:none;"/>
    <path clip-path="url(#p2953271013)" d="M 152.638769 100.493333 
L 165.910523 100.493333 
L 165.910523 120.216667 
L 152.638769 120.216667 
L 152.638769 100.493333 
" style="fill:#f8f1f8;"/>
    <path clip-path="url(#p2953271013)" d="M 165.910523 100.493333 
L 179.182276 100.493333 
L 179.182276 120.216667 
L 165.910523 120.216667 
L 165.910523 100.493333 
" style="fill:none;"/>
    <path clip-path="url(#p2953271013)" d="M 179.182276 100.493333 
L 192.45403 100.493333 
L 192.45403 120.216667 
L 179.182276 120.216667 
L 179.182276 100.493333 
" style="fill:#f8f1f8;"/>
    <path clip-path="url(#p2953271013)" d="M 192.45403 100.493333 
L 205.725784 100.493333 
L 205.725784 120.216667 
L 192.45403 120.216667 
L 192.45403 100.493333 
" style="fill:none;"/>
    <path clip-path="url(#p2953271013)" d="M 205.725784 100.493333 
L 218.997538 100.493333 
L 218.997538 120.216667 
L 205.725784 120.216667 
L 205.725784 100.493333 
" style="fill:#f8f1f8;"/>
    <path clip-path="url(#p2953271013)" d="M 218.997538 100.493333 
L 232.269292 100.493333 
L 232.269292 120.216667 
L 218.997538 120.216667 
L 218.997538 100.493333 
" style="fill:none;"/>
    <path clip-path="url(#p2953271013)" d="M 232.269292 100.493333 
L 245.541045 100.493333 
L 245.541045 120.216667 
L 232.269292 120.216667 
L 232.269292 100.493333 
" style="fill:#e8e4f0;"/>
    <path clip-path="url(#p2953271013)" d="M 245.541045 100.493333 
L 258.812799 100.493333 
L 258.812799 120.216667 
L 245.541045 120.216667 
L 245.541045 100.493333 
" style="fill:none;"/>
    <path clip-path="url(#p2953271013)" d="M 258.812799 100.493333 
L 272.084553 100.493333 
L 272.084553 120.216667 
L 258.812799 120.216667 
L 258.812799 100.493333 
" style="fill:#f8f1f8;"/>
    <path clip-path="url(#p2953271013)" d="M 272.084553 100.493333 
L 285.356307 100.493333 
L 285.356307 120.216667 
L 272.084553 120.216667 
L 272.084553 100.493333 
" style="fill:none;"/>
    <path clip-path="url(#p2953271013)" d="M 285.356307 100.493333 
L 298.62806 100.493333 
L 298.62806 120.216667 
L 285.356307 120.216667 
L 285.356307 100.493333 
" style="fill:#f8f1f8;"/>
    <path clip-path="url(#p2953271013)" d="M 298.62806 100.493333 
L 311.899814 100.493333 
L 311.899814 120.216667 
L 298.62806 120.216667 
L 298.62806 100.493333 
" style="fill:none;"/>
    <path clip-path="url(#p2953271013)" d="M 311.899814 100.493333 
L 325.171568 100.493333 
L 325.171568 120.216667 
L 311.899814 120.216667 
L 311.899814 100.493333 
" style="fill:#f8f1f8;"/>
    <path clip-path="url(#p2953271013)" d="M 325.171568 100.493333 
L 338.443322 100.493333 
L 338.443322 120.216667 
L 325.171568 120.216667 
L 325.171568 100.493333 
" style="fill:none;"/>
    <path clip-path="url(#p2953271013)" d="M 338.443322 100.493333 
L 351.715076 100.493333 
L 351.715076 120.216667 
L 338.443322 120.216667 
L 338.443322 100.493333 
" style="fill:none;"/>
    <path clip-path="url(#p2953271013)" d="M 351.715076 100.493333 
L 364.986829 100.493333 
L 364.986829 120.216667 
L 351.715076 120.216667 
L 351.715076 100.493333 
" style="fill:none;"/>
    <path clip-path="url(#p2953271013)" d="M 364.986829 100.493333 
L 378.258583 100.493333 
L 378.258583 120.216667 
L 364.986829 120.216667 
L 364.986829 100.493333 
" style="fill:none;"/>
    <path clip-path="url(#p2953271013)" d="M 378.258583 100.493333 
L 391.530337 100.493333 
L 391.530337 120.216667 
L 378.258583 120.216667 
L 378.258583 100.493333 
" style="fill:none;"/>
    <path clip-path="url(#p2953271013)" d="M 391.530337 100.493333 
L 404.802091 100.493333 
L 404.802091 120.216667 
L 391.530337 120.216667 
L 391.530337 100.493333 
" style="fill:none;"/>
    <path clip-path="url(#p2953271013)" d="M 404.802091 100.493333 
L 418.073844 100.493333 
L 418.073844 120.216667 
L 404.802091 120.216667 
L 404.802091 100.493333 
" style="fill:none;"/>
    <path clip-path="url(#p2953271013)" d="M 418.073844 100.493333 
L 431.345598 100.493333 
L 431.345598 120.216667 
L 418.073844 120.216667 
L 418.073844 100.493333 
" style="fill:none;"/>
    <path clip-path="url(#p2953271013)" d="M 431.345598 100.493333 
L 444.617352 100.493333 
L 444.617352 120.216667 
L 431.345598 120.216667 
L 431.345598 100.493333 
" style="fill:none;"/>
    <path clip-path="url(#p2953271013)" d="M 444.617352 100.493333 
L 457.889106 100.493333 
L 457.889106 120.216667 
L 444.617352 120.216667 
L 444.617352 100.493333 
" style="fill:none;"/>
    <path clip-path="url(#p2953271013)" d="M 457.889106 100.493333 
L 471.16086 100.493333 
L 471.16086 120.216667 
L 457.889106 120.216667 
L 457.889106 100.493333 
" style="fill:none;"/>
    <path clip-path="url(#p2953271013)" d="M 471.16086 100.493333 
L 484.432613 100.493333 
L 484.432613 120.216667 
L 471.16086 120.216667 
L 471.16086 100.493333 
" style="fill:none;"/>
    <path clip-path="url(#p2953271013)" d="M 484.432613 100.493333 
L 497.704367 100.493333 
L 497.704367 120.216667 
L 484.432613 120.216667 
L 484.432613 100.493333 
" style="fill:none;"/>
    <path clip-path="url(#p2953271013)" d="M 497.704367 100.493333 
L 510.976121 100.493333 
L 510.976121 120.216667 
L 497.704367 120.216667 
L 497.704367 100.493333 
" style="fill:none;"/>
    <path clip-path="url(#p2953271013)" d="M 510.976121 100.493333 
L 524.247875 100.493333 
L 524.247875 120.216667 
L 510.976121 120.216667 
L 510.976121 100.493333 
" style="fill:none;"/>
    <path clip-path="url(#p2953271013)" d="M 524.247875 100.493333 
L 537.519628 100.493333 
L 537.519628 120.216667 
L 524.247875 120.216667 
L 524.247875 100.493333 
" style="fill:none;"/>
    <path clip-path="url(#p2953271013)" d="M 537.519628 100.493333 
L 550.791382 100.493333 
L 550.791382 120.216667 
L 537.519628 120.216667 
L 537.519628 100.493333 
" style="fill:none;"/>
    <path clip-path="url(#p2953271013)" d="M 550.791382 100.493333 
L 564.063136 100.493333 
L 564.063136 120.216667 
L 550.791382 120.216667 
L 550.791382 100.493333 
" style="fill:none;"/>
    <path clip-path="url(#p2953271013)" d="M 564.063136 100.493333 
L 577.33489 100.493333 
L 577.33489 120.216667 
L 564.063136 120.216667 
L 564.063136 100.493333 
" style="fill:none;"/>
    <path clip-path="url(#p2953271013)" d="M 577.33489 100.493333 
L 590.606644 100.493333 
L 590.606644 120.216667 
L 577.33489 120.216667 
L 577.33489 100.493333 
" style="fill:none;"/>
    <path clip-path="url(#p2953271013)" d="M 590.606644 100.493333 
L 603.878397 100.493333 
L 603.878397 120.216667 
L 590.606644 120.216667 
L 590.606644 100.493333 
" style="fill:none;"/>
    <path clip-path="url(#p2953271013)" d="M 603.878397 100.493333 
L 617.150151 100.493333 
L 617.150151 120.216667 
L 603.878397 120.216667 
L 603.878397 100.493333 
" style="fill:none;"/>
    <path clip-path="url(#p2953271013)" d="M 617.150151 100.493333 
L 630.421905 100.493333 
L 630.421905 120.216667 
L 617.150151 120.216667 
L 617.150151 100.493333 
" style="fill:none;"/>
    <path clip-path="url(#p2953271013)" d="M 630.421905 100.493333 
L 643.693659 100.493333 
L 643.693659 120.216667 
L 630.421905 120.216667 
L 630.421905 100.493333 
" style="fill:none;"/>
    <path clip-path="url(#p2953271013)" d="M 643.693659 100.493333 
L 656.965412 100.493333 
L 656.965412 120.216667 
L 643.693659 120.216667 
L 643.693659 100.493333 
" style="fill:none;"/>
    <path clip-path="url(#p2953271013)" d="M 656.965412 100.493333 
L 670.237166 100.493333 
L 670.237166 120.216667 
L 656.965412 120.216667 
L 656.965412 100.493333 
" style="fill:none;"/>
    <path clip-path="url(#p2953271013)" d="M 670.237166 100.493333 
L 683.50892 100.493333 
L 683.50892 120.216667 
L 670.237166 120.216667 
L 670.237166 100.493333 
" style="fill:none;"/>
    <path clip-path="url(#p2953271013)" d="M 683.50892 100.493333 
L 696.780674 100.493333 
L 696.780674 120.216667 
L 683.50892 120.216667 
L 683.50892 100.493333 
" style="fill:none;"/>
    <path clip-path="url(#p2953271013)" d="M 696.780674 100.493333 
L 710.052428 100.493333 
L 710.052428 120.216667 
L 696.780674 120.216667 
L 696.780674 100.493333 
" style="fill:none;"/>
    <path clip-path="url(#p2953271013)" d="M 86.28 120.216667 
L 99.551754 120.216667 
L 99.551754 139.94 
L 86.28 139.94 
L 86.28 120.216667 
" style="fill:none;"/>
    <path clip-path="url(#p2953271013)" d="M 99.551754 120.216667 
L 112.823508 120.216667 
L 112.823508 139.94 
L 99.551754 139.94 
L 99.551754 120.216667 
" style="fill:#f8f1f8;"/>
    <path clip-path="url(#p2953271013)" d="M 112.823508 120.216667 
L 126.095261 120.216667 
L 126.095261 139.94 
L 112.823508 139.94 
L 112.823508 120.216667 
" style="fill:none;"/>
    <path clip-path="url(#p2953271013)" d="M 126.095261 120.216667 
L 139.367015 120.216667 
L 139.367015 139.94 
L 126.095261 139.94 
L 126.095261 120.216667 
" style="fill:#f8f1f8;"/>
    <path clip-path="url(#p2953271013)" d="M 139.367015 120.216667 
L 152.638769 120.216667 
L 152.638769 139.94 
L 139.367015 139.94 
L 139.367015 120.216667 
" style="fill:none;"/>
    <path clip-path="url(#p2953271013)" d="M 152.638769 120.216667 
L 165.910523 120.216667 
L 165.910523 139.94 
L 152.638769 139.94 
L 152.638769 120.216667 
" style="fill:#f8f1f8;"/>
    <path clip-path="url(#p2953271013)" d="M 165.910523 120.216667 
L 179.182276 120.216667 
L 179.182276 139.94 
L 165.910523 139.94 
L 165.910523 120.216667 
" style="fill:none;"/>
    <path clip-path="url(#p2953271013)" d="M 179.182276 120.216667 
L 192.45403 120.216667 
L 192.45403 139.94 
L 179.182276 139.94 
L 179.182276 120.216667 
" style="fill:#f8f1f8;"/>
    <path clip-path="url(#p2953271013)" d="M 192.45403 120.216667 
L 205.725784 120.216667 
L 205.725784 139.94 
L 192.45403 139.94 
L 192.45403 120.216667 
" style="fill:none;"/>
    <path clip-path="url(#p2953271013)" d="M 205.725784 120.216667 
L 218.997538 120.216667 
L 218.997538 139.94 
L 205.725784 139.94 
L 205.725784 120.216667 
" style="fill:#f8f1f8;"/>
    <path clip-path="url(#p2953271013)" d="M 218.997538 120.216667 
L 232.269292 120.216667 
L 232.269292 139.94 
L 218.997538 139.94 
L 218.997538 120.216667 
" style="fill:none;"/>
    <path clip-path="url(#p2953271013)" d="M 232.269292 120.216667 
L 245.541045 120.216667 
L 245.541045 139.94 
L 232.269292 139.94 
L 232.269292 120.216667 
" style="fill:#f8f1f8;"/>
    <path clip-path="url(#p2953271013)" d="M 245.541045 120.216667 
L 258.812799 120.216667 
L 258.812799 139.94 
L 245.541045 139.94 
L 245.541045 120.216667 
" style="fill:none;"/>
    <path clip-path="url(#p2953271013)" d="M 258.812799 120.216667 
L 272.084553 120.216667 
L 272.084553 139.94 
L 258.812799 139.94 
L 258.812799 120.216667 
" style="fill:#d3d4e7;"/>
    <path clip-path="url(#p2953271013)" d="M 272.084553 120.216667 
L 285.356307 120.216667 
L 285.356307 139.94 
L 272.084553 139.94 
L 272.084553 120.216667 
" style="fill:none;"/>
    <path clip-path="url(#p2953271013)" d="M 285.356307 120.216667 
L 298.62806 120.216667 
L 298.62806 139.94 
L 285.356307 139.94 
L 285.356307 120.216667 
" style="fill:#f8f1f8;"/>
    <path clip-path="url(#p2953271013)" d="M 298.62806 120.216667 
L 311.899814 120.216667 
L 311.899814 139.94 
L 298.62806 139.94 
L 298.62806 120.216667 
" style="fill:none;"/>
    <path clip-path="url(#p2953271013)" d="M 311.899814 120.216667 
L 325.171568 120.216667 
L 325.171568 139.94 
L 311.899814 139.94 
L 311.899814 120.216667 
" style="fill:#f8f1f8;"/>
    <path clip-path="url(#p2953271013)" d="M 325.171568 120.216667 
L 338.443322 120.216667 
L 338.443322 139.94 
L 325.171568 139.94 
L 325.171568 120.216667 
" style="fill:none;"/>
    <path clip-path="url(#p2953271013)" d="M 338.443322 120.216667 
L 351.715076 120.216667 
L 351.715076 139.94 
L 338.443322 139.94 
L 338.443322 120.216667 
" style="fill:#f8f1f8;"/>
    <path clip-path="url(#p2953271013)" d="M 351.715076 120.216667 
L 364.986829 120.216667 
L 364.986829 139.94 
L 351.715076 139.94 
L 351.715076 120.216667 
" style="fill:none;"/>
    <path clip-path="url(#p2953271013)" d="M 364.986829 120.216667 
L 378.258583 120.216667 
L 378.258583 139.94 
L 364.986829 139.94 
L 364.986829 120.216667 
" style="fill:#f8f1f8;"/>
    <path clip-path="url(#p2953271013)" d="M 378.258583 120.216667 
L 391.530337 120.216667 
L 391.530337 139.94 
L 378.258583 139.94 
L 378.258583 120.216667 
" style="fill:none;"/>
    <path clip-path="url(#p2953271013)" d="M 391.530337 120.216667 
L 404.802091 120.216667 
L 404.802091 139.94 
L 391.530337 139.94 
L 391.530337 120.216667 
" style="fill:#f8f1f8;"/>
    <path clip-path="url(#p2953271013)" d="M 404.802091 120.216667 
L 418.073844 120.216667 
L 418.073844 139.94 
L 404.802091 139.94 
L 404.802091 120.216667 
" style="fill:none;"/>
    <path clip-path="url(#p2953271013)" d="M 418.073844 120.216667 
L 431.345598 120.216667 
L 431.345598 139.94 
L 418.073844 139.94 
L 418.073844 120.216667 
" style="fill:#f8f1f8;"/>
    <path clip-path="url(#p2953271013)" d="M 431.345598 120.216667 
L 444.617352 120.216667 
L 444.617352 139.94 
L 431.345598 139.94 
L 431.345598 120.216667 
" style="fill:none;"/>
    <path clip-path="url(#p2953271013)" d="M 444.617352 120.216667 
L 457.889106 120.216667 
L 457.889106 139.94 
L 444.617352 139.94 
L 444.617352 120.216667 
" style="fill:#f8f1f8;"/>
    <path clip-path="url(#p2953271013)" d="M 457.889106 120.216667 
L 471.16086 120.216667 
L 471.16086 139.94 
L 457.889106 139.94 
L 457.889106 120.216667 
" style="fill:none;"/>
    <path clip-path="url(#p2953271013)" d="M 471.16086 120.216667 
L 484.432613 120.216667 
L 484.432613 139.94 
L 471.16086 139.94 
L 471.16086 120.216667 
" style="fill:#f8f1f8;"/>
    <path clip-path="url(#p2953271013)" d="M 484.432613 120.216667 
L 497.704367 120.216667 
L 497.704367 139.94 
L 484.432613 139.94 
L 484.432613 120.216667 
" style="fill:none;"/>
    <path clip-path="url(#p2953271013)" d="M 497.704367 120.216667 
L 510.976121 120.216667 
L 510.976121 139.94 
L 497.704367 139.94 
L 497.704367 120.216667 
" style="fill:#f8f1f8;"/>
    <path clip-path="url(#p2953271013)" d="M 510.976121 120.216667 
L 524.247875 120.216667 
L 524.247875 139.94 
L 510.976121 139.94 
L 510.976121 120.216667 
" style="fill:none;"/>
    <path clip-path="url(#p2953271013)" d="M 524.247875 120.216667 
L 537.519628 120.216667 
L 537.519628 139.94 
L 524.247875 139.94 
L 524.247875 120.216667 
" style="fill:none;"/>
    <path clip-path="url(#p2953271013)" d="M 537.519628 120.216667 
L 550.791382 120.216667 
L 550.791382 139.94 
L 537.519628 139.94 
L 537.519628 120.216667 
" style="fill:none;"/>
    <path clip-path="url(#p2953271013)" d="M 550.791382 120.216667 
L 564.063136 120.216667 
L 564.063136 139.94 
L 550.791382 139.94 
L 550.791382 120.216667 
" style="fill:none;"/>
    <path clip-path="url(#p2953271013)" d="M 564.063136 120.216667 
L 577.33489 120.216667 
L 577.33489 139.94 
L 564.063136 139.94 
L 564.063136 120.216667 
" style="fill:none;"/>
    <path clip-path="url(#p2953271013)" d="M 577.33489 120.216667 
L 590.606644 120.216667 
L 590.606644 139.94 
L 577.33489 139.94 
L 577.33489 120.216667 
" style="fill:#f8f1f8;"/>
    <path clip-path="url(#p2953271013)" d="M 590.606644 120.216667 
L 603.878397 120.216667 
L 603.878397 139.94 
L 590.606644 139.94 
L 590.606644 120.216667 
" style="fill:none;"/>
    <path clip-path="url(#p2953271013)" d="M 603.878397 120.216667 
L 617.150151 120.216667 
L 617.150151 139.94 
L 603.878397 139.94 
L 603.878397 120.216667 
" style="fill:#f8f1f8;"/>
    <path clip-path="url(#p2953271013)" d="M 617.150151 120.216667 
L 630.421905 120.216667 
L 630.421905 139.94 
L 617.150151 139.94 
L 617.150151 120.216667 
" style="fill:none;"/>
    <path clip-path="url(#p2953271013)" d="M 630.421905 120.216667 
L 643.693659 120.216667 
L 643.693659 139.94 
L 630.421905 139.94 
L 630.421905 120.216667 
" style="fill:none;"/>
    <path clip-path="url(#p2953271013)" d="M 643.693659 120.216667 
L 656.965412 120.216667 
L 656.965412 139.94 
L 643.693659 139.94 
L 643.693659 120.216667 
" style="fill:none;"/>
    <path clip-path="url(#p2953271013)" d="M 656.965412 120.216667 
L 670.237166 120.216667 
L 670.237166 139.94 
L 656.965412 139.94 
L 656.965412 120.216667 
" style="fill:none;"/>
    <path clip-path="url(#p2953271013)" d="M 670.237166 120.216667 
L 683.50892 120.216667 
L 683.50892 139.94 
L 670.237166 139.94 
L 670.237166 120.216667 
" style="fill:none;"/>
    <path clip-path="url(#p2953271013)" d="M 683.50892 120.216667 
L 696.780674 120.216667 
L 696.780674 139.94 
L 683.50892 139.94 
L 683.50892 120.216667 
" style="fill:none;"/>
    <path clip-path="url(#p2953271013)" d="M 696.780674 120.216667 
L 710.052428 120.216667 
L 710.052428 139.94 
L 696.780674 139.94 
L 696.780674 120.216667 
" style="fill:none;"/>
   </g>
   <g id="matplotlib.axis_1">
    <g id="xtick_1">
     <g id="line2d_1">
      <defs>
       <path d="M 0 0 
L 0 10 
" id="m1b2c183964" style="stroke:#000000;stroke-width:0.8;"/>
      </defs>
      <g>
       <use style="stroke:#000000;stroke-width:0.8;" x="86.28" xlink:href="#m1b2c183964" y="139.94"/>
      </g>
     </g>
     <g id="text_1">
      <!-- 0 -->
      <g transform="translate(80.719063 167.786875)scale(0.2 -0.2)">
       <defs>
        <path d="M 1731 4475 
Q 2600 4475 2988 3759 
Q 3288 3206 3288 2244 
Q 3288 1331 3016 734 
Q 2622 -122 1728 -122 
Q 922 -122 528 578 
Q 200 1163 200 2147 
Q 200 2909 397 3456 
Q 766 4475 1731 4475 
z
M 1725 391 
Q 2163 391 2422 778 
Q 2681 1166 2681 2222 
Q 2681 2984 2493 3476 
Q 2306 3969 1766 3969 
Q 1269 3969 1039 3501 
Q 809 3034 809 2125 
Q 809 1441 956 1025 
Q 1181 391 1725 391 
z
" id="Helvetica-30" transform="scale(0.015625)"/>
       </defs>
       <use xlink:href="#Helvetica-30"/>
      </g>
     </g>
    </g>
    <g id="xtick_2">
     <g id="line2d_2">
      <g>
       <use style="stroke:#000000;stroke-width:0.8;" x="218.997538" xlink:href="#m1b2c183964" y="139.94"/>
      </g>
     </g>
     <g id="text_2">
      <!-- 10 -->
      <g transform="translate(207.875663 167.786875)scale(0.2 -0.2)">
       <defs>
        <path d="M 613 3169 
L 613 3600 
Q 1222 3659 1462 3798 
Q 1703 3938 1822 4456 
L 2266 4456 
L 2266 0 
L 1666 0 
L 1666 3169 
L 613 3169 
z
" id="Helvetica-31" transform="scale(0.015625)"/>
       </defs>
       <use xlink:href="#Helvetica-31"/>
       <use x="55.615234" xlink:href="#Helvetica-30"/>
      </g>
     </g>
    </g>
    <g id="xtick_3">
     <g id="line2d_3">
      <g>
       <use style="stroke:#000000;stroke-width:0.8;" x="351.715076" xlink:href="#m1b2c183964" y="139.94"/>
      </g>
     </g>
     <g id="text_3">
      <!-- 20 -->
      <g transform="translate(340.593201 167.786875)scale(0.2 -0.2)">
       <defs>
        <path d="M 200 0 
Q 231 578 439 1006 
Q 647 1434 1250 1784 
L 1850 2131 
Q 2253 2366 2416 2531 
Q 2672 2791 2672 3125 
Q 2672 3516 2437 3745 
Q 2203 3975 1813 3975 
Q 1234 3975 1013 3538 
Q 894 3303 881 2888 
L 309 2888 
Q 319 3472 525 3841 
Q 891 4491 1816 4491 
Q 2584 4491 2939 4075 
Q 3294 3659 3294 3150 
Q 3294 2613 2916 2231 
Q 2697 2009 2131 1694 
L 1703 1456 
Q 1397 1288 1222 1134 
Q 909 863 828 531 
L 3272 531 
L 3272 0 
L 200 0 
z
" id="Helvetica-32" transform="scale(0.015625)"/>
       </defs>
       <use xlink:href="#Helvetica-32"/>
       <use x="55.615234" xlink:href="#Helvetica-30"/>
      </g>
     </g>
    </g>
    <g id="xtick_4">
     <g id="line2d_4">
      <g>
       <use style="stroke:#000000;stroke-width:0.8;" x="484.432613" xlink:href="#m1b2c183964" y="139.94"/>
      </g>
     </g>
     <g id="text_4">
      <!-- 30 -->
      <g transform="translate(473.310738 167.786875)scale(0.2 -0.2)">
       <defs>
        <path d="M 1663 -122 
Q 869 -122 511 314 
Q 153 750 153 1375 
L 741 1375 
Q 778 941 903 744 
Q 1122 391 1694 391 
Q 2138 391 2406 628 
Q 2675 866 2675 1241 
Q 2675 1703 2392 1887 
Q 2109 2072 1606 2072 
Q 1550 2072 1492 2070 
Q 1434 2069 1375 2066 
L 1375 2563 
Q 1463 2553 1522 2550 
Q 1581 2547 1650 2547 
Q 1966 2547 2169 2647 
Q 2525 2822 2525 3272 
Q 2525 3606 2287 3787 
Q 2050 3969 1734 3969 
Q 1172 3969 956 3594 
Q 838 3388 822 3006 
L 266 3006 
Q 266 3506 466 3856 
Q 809 4481 1675 4481 
Q 2359 4481 2734 4176 
Q 3109 3872 3109 3294 
Q 3109 2881 2888 2625 
Q 2750 2466 2531 2375 
Q 2884 2278 3082 2001 
Q 3281 1725 3281 1325 
Q 3281 684 2859 281 
Q 2438 -122 1663 -122 
z
" id="Helvetica-33" transform="scale(0.015625)"/>
       </defs>
       <use xlink:href="#Helvetica-33"/>
       <use x="55.615234" xlink:href="#Helvetica-30"/>
      </g>
     </g>
    </g>
    <g id="xtick_5">
     <g id="line2d_5">
      <g>
       <use style="stroke:#000000;stroke-width:0.8;" x="617.150151" xlink:href="#m1b2c183964" y="139.94"/>
      </g>
     </g>
     <g id="text_5">
      <!-- 40 -->
      <g transform="translate(606.028276 167.786875)scale(0.2 -0.2)">
       <defs>
        <path d="M 2116 1584 
L 2116 3613 
L 681 1584 
L 2116 1584 
z
M 2125 0 
L 2125 1094 
L 163 1094 
L 163 1644 
L 2213 4488 
L 2688 4488 
L 2688 1584 
L 3347 1584 
L 3347 1094 
L 2688 1094 
L 2688 0 
L 2125 0 
z
" id="Helvetica-34" transform="scale(0.015625)"/>
       </defs>
       <use xlink:href="#Helvetica-34"/>
       <use x="55.615234" xlink:href="#Helvetica-30"/>
      </g>
     </g>
    </g>
    <g id="text_6">
     <!-- Position -->
     <g transform="translate(362.591214 190.3025)scale(0.2 -0.2)">
      <defs>
       <path d="M 547 4591 
L 2613 4591 
Q 3225 4591 3600 4245 
Q 3975 3900 3975 3275 
Q 3975 2738 3640 2339 
Q 3306 1941 2613 1941 
L 1169 1941 
L 1169 0 
L 547 0 
L 547 4591 
z
M 3347 3272 
Q 3347 3778 2972 3959 
Q 2766 4056 2406 4056 
L 1169 4056 
L 1169 2466 
L 2406 2466 
Q 2825 2466 3086 2644 
Q 3347 2822 3347 3272 
z
" id="Helvetica-50" transform="scale(0.015625)"/>
       <path d="M 1741 363 
Q 2300 363 2508 786 
Q 2716 1209 2716 1728 
Q 2716 2197 2566 2491 
Q 2328 2953 1747 2953 
Q 1231 2953 997 2559 
Q 763 2166 763 1609 
Q 763 1075 997 719 
Q 1231 363 1741 363 
z
M 1763 3444 
Q 2409 3444 2856 3012 
Q 3303 2581 3303 1744 
Q 3303 934 2909 406 
Q 2516 -122 1688 -122 
Q 997 -122 590 345 
Q 184 813 184 1600 
Q 184 2444 612 2944 
Q 1041 3444 1763 3444 
z
M 1744 3428 
L 1744 3428 
z
" id="Helvetica-6f" transform="scale(0.015625)"/>
       <path d="M 747 1050 
Q 772 769 888 619 
Q 1100 347 1625 347 
Q 1938 347 2175 483 
Q 2413 619 2413 903 
Q 2413 1119 2222 1231 
Q 2100 1300 1741 1391 
L 1294 1503 
Q 866 1609 663 1741 
Q 300 1969 300 2372 
Q 300 2847 642 3140 
Q 984 3434 1563 3434 
Q 2319 3434 2653 2991 
Q 2863 2709 2856 2384 
L 2325 2384 
Q 2309 2575 2191 2731 
Q 1997 2953 1519 2953 
Q 1200 2953 1036 2831 
Q 872 2709 872 2509 
Q 872 2291 1088 2159 
Q 1213 2081 1456 2022 
L 1828 1931 
Q 2434 1784 2641 1647 
Q 2969 1431 2969 969 
Q 2969 522 2630 197 
Q 2291 -128 1597 -128 
Q 850 -128 539 211 
Q 228 550 206 1050 
L 747 1050 
z
M 1578 3428 
L 1578 3428 
z
" id="Helvetica-73" transform="scale(0.015625)"/>
       <path d="M 413 3331 
L 984 3331 
L 984 0 
L 413 0 
L 413 3331 
z
M 413 4591 
L 984 4591 
L 984 3953 
L 413 3953 
L 413 4591 
z
" id="Helvetica-69" transform="scale(0.015625)"/>
       <path d="M 525 4281 
L 1094 4281 
L 1094 3347 
L 1628 3347 
L 1628 2888 
L 1094 2888 
L 1094 703 
Q 1094 528 1213 469 
Q 1278 434 1431 434 
Q 1472 434 1519 436 
Q 1566 438 1628 444 
L 1628 0 
Q 1531 -28 1426 -40 
Q 1322 -53 1200 -53 
Q 806 -53 665 148 
Q 525 350 525 672 
L 525 2888 
L 72 2888 
L 72 3347 
L 525 3347 
L 525 4281 
z
" id="Helvetica-74" transform="scale(0.015625)"/>
       <path d="M 413 3347 
L 947 3347 
L 947 2872 
Q 1184 3166 1450 3294 
Q 1716 3422 2041 3422 
Q 2753 3422 3003 2925 
Q 3141 2653 3141 2147 
L 3141 0 
L 2569 0 
L 2569 2109 
Q 2569 2416 2478 2603 
Q 2328 2916 1934 2916 
Q 1734 2916 1606 2875 
Q 1375 2806 1200 2600 
Q 1059 2434 1017 2257 
Q 975 2081 975 1753 
L 975 0 
L 413 0 
L 413 3347 
z
M 1734 3428 
L 1734 3428 
z
" id="Helvetica-6e" transform="scale(0.015625)"/>
      </defs>
      <use xlink:href="#Helvetica-50"/>
      <use x="66.699219" xlink:href="#Helvetica-6f"/>
      <use x="122.314453" xlink:href="#Helvetica-73"/>
      <use x="172.314453" xlink:href="#Helvetica-69"/>
      <use x="194.53125" xlink:href="#Helvetica-74"/>
      <use x="222.314453" xlink:href="#Helvetica-69"/>
      <use x="244.53125" xlink:href="#Helvetica-6f"/>
      <use x="300.146484" xlink:href="#Helvetica-6e"/>
     </g>
    </g>
   </g>
   <g id="matplotlib.axis_2">
    <g id="ytick_1">
     <g id="line2d_6">
      <defs>
       <path d="M 0 0 
L -10 0 
" id="m3b11214dfc" style="stroke:#000000;stroke-width:0.8;"/>
      </defs>
      <g>
       <use style="stroke:#000000;stroke-width:0.8;" x="86.28" xlink:href="#m3b11214dfc" y="31.461667"/>
      </g>
     </g>
     <g id="text_7">
      <!-- 6dAltf -->
      <g transform="translate(21.639375 38.635104)scale(0.2 -0.2)">
       <defs>
        <path d="M 1872 4494 
Q 2622 4494 2917 4105 
Q 3213 3716 3213 3303 
L 2656 3303 
Q 2606 3569 2497 3719 
Q 2294 4000 1881 4000 
Q 1409 4000 1131 3564 
Q 853 3128 822 2316 
Q 1016 2600 1309 2741 
Q 1578 2866 1909 2866 
Q 2472 2866 2890 2506 
Q 3309 2147 3309 1434 
Q 3309 825 2912 354 
Q 2516 -116 1781 -116 
Q 1153 -116 697 361 
Q 241 838 241 1966 
Q 241 2800 444 3381 
Q 834 4494 1872 4494 
z
M 1831 384 
Q 2275 384 2495 682 
Q 2716 981 2716 1388 
Q 2716 1731 2519 2042 
Q 2322 2353 1803 2353 
Q 1441 2353 1167 2112 
Q 894 1872 894 1388 
Q 894 963 1142 673 
Q 1391 384 1831 384 
z
" id="Helvetica-36" transform="scale(0.015625)"/>
        <path d="M 769 1634 
Q 769 1097 997 734 
Q 1225 372 1728 372 
Q 2119 372 2370 708 
Q 2622 1044 2622 1672 
Q 2622 2306 2362 2611 
Q 2103 2916 1722 2916 
Q 1297 2916 1033 2591 
Q 769 2266 769 1634 
z
M 1616 3406 
Q 2000 3406 2259 3244 
Q 2409 3150 2600 2916 
L 2600 4606 
L 3141 4606 
L 3141 0 
L 2634 0 
L 2634 466 
Q 2438 156 2169 18 
Q 1900 -119 1553 -119 
Q 994 -119 584 351 
Q 175 822 175 1603 
Q 175 2334 548 2870 
Q 922 3406 1616 3406 
z
" id="Helvetica-64" transform="scale(0.015625)"/>
        <path d="M 2844 1881 
L 2147 3909 
L 1406 1881 
L 2844 1881 
z
M 1822 4591 
L 2525 4591 
L 4191 0 
L 3509 0 
L 3044 1375 
L 1228 1375 
L 731 0 
L 94 0 
L 1822 4591 
z
M 2144 4591 
L 2144 4591 
z
" id="Helvetica-41" transform="scale(0.015625)"/>
        <path d="M 428 4591 
L 991 4591 
L 991 0 
L 428 0 
L 428 4591 
z
" id="Helvetica-6c" transform="scale(0.015625)"/>
        <path d="M 553 3856 
Q 566 4206 675 4369 
Q 872 4656 1434 4656 
Q 1488 4656 1544 4653 
Q 1600 4650 1672 4644 
L 1672 4131 
Q 1584 4138 1545 4139 
Q 1506 4141 1472 4141 
Q 1216 4141 1166 4008 
Q 1116 3875 1116 3331 
L 1672 3331 
L 1672 2888 
L 1109 2888 
L 1109 0 
L 553 0 
L 553 2888 
L 88 2888 
L 88 3331 
L 553 3331 
L 553 3856 
z
" id="Helvetica-66" transform="scale(0.015625)"/>
       </defs>
       <use xlink:href="#Helvetica-36"/>
       <use x="55.615234" xlink:href="#Helvetica-64"/>
       <use x="111.230469" xlink:href="#Helvetica-41"/>
       <use x="177.929688" xlink:href="#Helvetica-6c"/>
       <use x="200.146484" xlink:href="#Helvetica-74"/>
       <use x="227.929688" xlink:href="#Helvetica-66"/>
      </g>
     </g>
    </g>
    <g id="ytick_2">
     <g id="line2d_7">
      <g>
       <use style="stroke:#000000;stroke-width:0.8;" x="86.28" xlink:href="#m3b11214dfc" y="51.185"/>
      </g>
     </g>
     <g id="text_8">
      <!-- Kdo -->
      <g transform="translate(37.195625 58.358438)scale(0.2 -0.2)">
       <defs>
        <path d="M 488 4591 
L 1094 4591 
L 1094 2353 
L 3331 4591 
L 4191 4591 
L 2281 2741 
L 4244 0 
L 3434 0 
L 1828 2303 
L 1094 1600 
L 1094 0 
L 488 0 
L 488 4591 
z
" id="Helvetica-4b" transform="scale(0.015625)"/>
       </defs>
       <use xlink:href="#Helvetica-4b"/>
       <use x="66.699219" xlink:href="#Helvetica-64"/>
       <use x="122.314453" xlink:href="#Helvetica-6f"/>
      </g>
     </g>
    </g>
    <g id="ytick_3">
     <g id="line2d_8">
      <g>
       <use style="stroke:#000000;stroke-width:0.8;" x="86.28" xlink:href="#m3b11214dfc" y="70.908333"/>
      </g>
     </g>
     <g id="text_9">
      <!-- a1-3 -->
      <g transform="translate(32.755 78.081771)scale(0.2 -0.2)">
       <defs>
        <path d="M 844 891 
Q 844 647 1022 506 
Q 1200 366 1444 366 
Q 1741 366 2019 503 
Q 2488 731 2488 1250 
L 2488 1703 
Q 2384 1638 2221 1594 
Q 2059 1550 1903 1531 
L 1563 1488 
Q 1256 1447 1103 1359 
Q 844 1213 844 891 
z
M 2206 2028 
Q 2400 2053 2466 2191 
Q 2503 2266 2503 2406 
Q 2503 2694 2298 2823 
Q 2094 2953 1713 2953 
Q 1272 2953 1088 2716 
Q 984 2584 953 2325 
L 428 2325 
Q 444 2944 830 3186 
Q 1216 3428 1725 3428 
Q 2316 3428 2684 3203 
Q 3050 2978 3050 2503 
L 3050 575 
Q 3050 488 3086 434 
Q 3122 381 3238 381 
Q 3275 381 3322 386 
Q 3369 391 3422 400 
L 3422 -16 
Q 3291 -53 3222 -62 
Q 3153 -72 3034 -72 
Q 2744 -72 2613 134 
Q 2544 244 2516 444 
Q 2344 219 2022 53 
Q 1700 -113 1313 -113 
Q 847 -113 551 170 
Q 256 453 256 878 
Q 256 1344 547 1600 
Q 838 1856 1309 1916 
L 2206 2028 
z
M 1741 3428 
L 1741 3428 
z
" id="Helvetica-61" transform="scale(0.015625)"/>
        <path d="M 266 2072 
L 1834 2072 
L 1834 1494 
L 266 1494 
L 266 2072 
z
" id="Helvetica-2d" transform="scale(0.015625)"/>
       </defs>
       <use xlink:href="#Helvetica-61"/>
       <use x="55.615234" xlink:href="#Helvetica-31"/>
       <use x="111.230469" xlink:href="#Helvetica-2d"/>
       <use x="144.53125" xlink:href="#Helvetica-33"/>
      </g>
     </g>
    </g>
    <g id="ytick_4">
     <g id="line2d_9">
      <g>
       <use style="stroke:#000000;stroke-width:0.8;" x="86.28" xlink:href="#m3b11214dfc" y="90.631667"/>
      </g>
     </g>
     <g id="text_10">
      <!-- a1-6 -->
      <g transform="translate(32.755 97.805104)scale(0.2 -0.2)">
       <use xlink:href="#Helvetica-61"/>
       <use x="55.615234" xlink:href="#Helvetica-31"/>
       <use x="111.230469" xlink:href="#Helvetica-2d"/>
       <use x="144.53125" xlink:href="#Helvetica-36"/>
      </g>
     </g>
    </g>
    <g id="ytick_5">
     <g id="line2d_10">
      <g>
       <use style="stroke:#000000;stroke-width:0.8;" x="86.28" xlink:href="#m3b11214dfc" y="110.355"/>
      </g>
     </g>
     <g id="text_11">
      <!-- b1-3 -->
      <g transform="translate(32.755 117.528437)scale(0.2 -0.2)">
       <defs>
        <path d="M 369 4606 
L 916 4606 
L 916 2941 
Q 1100 3181 1356 3307 
Q 1613 3434 1913 3434 
Q 2538 3434 2927 3004 
Q 3316 2575 3316 1738 
Q 3316 944 2931 419 
Q 2547 -106 1866 -106 
Q 1484 -106 1222 78 
Q 1066 188 888 428 
L 888 0 
L 369 0 
L 369 4606 
z
M 1831 391 
Q 2288 391 2514 753 
Q 2741 1116 2741 1709 
Q 2741 2238 2514 2584 
Q 2288 2931 1847 2931 
Q 1463 2931 1173 2647 
Q 884 2363 884 1709 
Q 884 1238 1003 944 
Q 1225 391 1831 391 
z
" id="Helvetica-62" transform="scale(0.015625)"/>
       </defs>
       <use xlink:href="#Helvetica-62"/>
       <use x="55.615234" xlink:href="#Helvetica-31"/>
       <use x="111.230469" xlink:href="#Helvetica-2d"/>
       <use x="144.53125" xlink:href="#Helvetica-33"/>
      </g>
     </g>
    </g>
    <g id="ytick_6">
     <g id="line2d_11">
      <g>
       <use style="stroke:#000000;stroke-width:0.8;" x="86.28" xlink:href="#m3b11214dfc" y="130.078333"/>
      </g>
     </g>
     <g id="text_12">
      <!-- b1-4 -->
      <g transform="translate(32.755 137.251771)scale(0.2 -0.2)">
       <use xlink:href="#Helvetica-62"/>
       <use x="55.615234" xlink:href="#Helvetica-31"/>
       <use x="111.230469" xlink:href="#Helvetica-2d"/>
       <use x="144.53125" xlink:href="#Helvetica-34"/>
      </g>
     </g>
    </g>
   </g>
  </g>
  <g id="axes_2">
   <g id="patch_3">
    <path d="M 733.912575 139.94 
L 739.829575 139.94 
L 739.829575 21.6 
L 733.912575 21.6 
z
" style="fill:#ffffff;"/>
   </g>
   <g id="patch_4">
    <path clip-path="url(#p34ea40fac4)" d="M 733.912575 139.94 
L 733.912575 134.023 
L 733.912575 27.517 
L 733.912575 21.6 
L 739.829575 21.6 
L 739.829575 27.517 
L 739.829575 134.023 
L 739.829575 139.94 
L 739.829575 139.94 
z
" style="fill:#ffffff;stroke:#ffffff;stroke-linejoin:miter;stroke-width:0.01;"/>
   </g>
   <g id="QuadMesh_2">
    <path clip-path="url(#p34ea40fac4)" d="M 733.912575 139.94 
L 739.829575 139.94 
L 739.829575 134.023 
L 733.912575 134.023 
L 733.912575 139.94 
" style="fill:#f8f1f8;"/>
    <path clip-path="url(#p34ea40fac4)" d="M 733.912575 134.023 
L 739.829575 134.023 
L 739.829575 128.106 
L 733.912575 128.106 
L 733.912575 134.023 
" style="fill:#f1ebf4;"/>
    <path clip-path="url(#p34ea40fac4)" d="M 733.912575 128.106 
L 739.829575 128.106 
L 739.829575 122.189 
L 733.912575 122.189 
L 733.912575 128.106 
" style="fill:#e8e4f0;"/>
    <path clip-path="url(#p34ea40fac4)" d="M 733.912575 122.189 
L 739.829575 122.189 
L 739.829575 116.272 
L 733.912575 116.272 
L 733.912575 122.189 
" style="fill:#dedcec;"/>
    <path clip-path="url(#p34ea40fac4)" d="M 733.912575 116.272 
L 739.829575 116.272 
L 739.829575 110.355 
L 733.912575 110.355 
L 733.912575 116.272 
" style="fill:#d3d4e7;"/>
    <path clip-path="url(#p34ea40fac4)" d="M 733.912575 110.355 
L 739.829575 110.355 
L 739.829575 104.438 
L 733.912575 104.438 
L 733.912575 110.355 
" style="fill:#c4cbe3;"/>
    <path clip-path="url(#p34ea40fac4)" d="M 733.912575 104.438 
L 739.829575 104.438 
L 739.829575 98.521 
L 733.912575 98.521 
L 733.912575 104.438 
" style="fill:#b4c4df;"/>
    <path clip-path="url(#p34ea40fac4)" d="M 733.912575 98.521 
L 739.829575 98.521 
L 739.829575 92.604 
L 733.912575 92.604 
L 733.912575 98.521 
" style="fill:#a4bcda;"/>
    <path clip-path="url(#p34ea40fac4)" d="M 733.912575 92.604 
L 739.829575 92.604 
L 739.829575 86.687 
L 733.912575 86.687 
L 733.912575 92.604 
" style="fill:#91b5d6;"/>
    <path clip-path="url(#p34ea40fac4)" d="M 733.912575 86.687 
L 739.829575 86.687 
L 739.829575 80.77 
L 733.912575 80.77 
L 733.912575 86.687 
" style="fill:#7eadd1;"/>
    <path clip-path="url(#p34ea40fac4)" d="M 733.912575 80.77 
L 739.829575 80.77 
L 739.829575 74.853 
L 733.912575 74.853 
L 733.912575 80.77 
" style="fill:#67a4cc;"/>
    <path clip-path="url(#p34ea40fac4)" d="M 733.912575 74.853 
L 739.829575 74.853 
L 739.829575 68.936 
L 733.912575 68.936 
L 733.912575 74.853 
" style="fill:#509ac6;"/>
    <path clip-path="url(#p34ea40fac4)" d="M 733.912575 68.936 
L 739.829575 68.936 
L 739.829575 63.019 
L 733.912575 63.019 
L 733.912575 68.936 
" style="fill:#3991c1;"/>
    <path clip-path="url(#p34ea40fac4)" d="M 733.912575 63.019 
L 739.829575 63.019 
L 739.829575 57.102 
L 733.912575 57.102 
L 733.912575 63.019 
" style="fill:#2685bb;"/>
    <path clip-path="url(#p34ea40fac4)" d="M 733.912575 57.102 
L 739.829575 57.102 
L 739.829575 51.185 
L 733.912575 51.185 
L 733.912575 57.102 
" style="fill:#1379b5;"/>
    <path clip-path="url(#p34ea40fac4)" d="M 733.912575 51.185 
L 739.829575 51.185 
L 739.829575 45.268 
L 733.912575 45.268 
L 733.912575 51.185 
" style="fill:#056dac;"/>
    <path clip-path="url(#p34ea40fac4)" d="M 733.912575 45.268 
L 739.829575 45.268 
L 739.829575 39.351 
L 733.912575 39.351 
L 733.912575 45.268 
" style="fill:#05659f;"/>
    <path clip-path="url(#p34ea40fac4)" d="M 733.912575 39.351 
L 739.829575 39.351 
L 739.829575 33.434 
L 733.912575 33.434 
L 733.912575 39.351 
" style="fill:#045d92;"/>
    <path clip-path="url(#p34ea40fac4)" d="M 733.912575 33.434 
L 739.829575 33.434 
L 739.829575 27.517 
L 733.912575 27.517 
L 733.912575 33.434 
" style="fill:#045280;"/>
    <path clip-path="url(#p34ea40fac4)" d="M 733.912575 27.517 
L 739.829575 27.517 
L 739.829575 21.6 
L 733.912575 21.6 
L 733.912575 27.517 
" style="fill:#03456c;"/>
   </g>
   <g id="matplotlib.axis_3"/>
   <g id="matplotlib.axis_4">
    <g id="ytick_7">
     <g id="line2d_12">
      <defs>
       <path d="M 0 0 
L 10 0 
" id="m4e488d1deb" style="stroke:#000000;stroke-width:0.8;"/>
      </defs>
      <g>
       <use style="stroke:#000000;stroke-width:0.8;" x="739.829575" xlink:href="#m4e488d1deb" y="139.94"/>
      </g>
     </g>
     <g id="text_13">
      <!-- 0.000 -->
      <g transform="translate(753.329575 145.320078)scale(0.15 -0.15)">
       <defs>
        <path d="M 547 681 
L 1200 681 
L 1200 0 
L 547 0 
L 547 681 
z
" id="Helvetica-2e" transform="scale(0.015625)"/>
       </defs>
       <use xlink:href="#Helvetica-30"/>
       <use x="55.615234" xlink:href="#Helvetica-2e"/>
       <use x="83.398438" xlink:href="#Helvetica-30"/>
       <use x="139.013672" xlink:href="#Helvetica-30"/>
       <use x="194.628906" xlink:href="#Helvetica-30"/>
      </g>
     </g>
    </g>
    <g id="ytick_8">
     <g id="line2d_13">
      <g>
       <use style="stroke:#000000;stroke-width:0.8;" x="739.829575" xlink:href="#m4e488d1deb" y="76.913966"/>
      </g>
     </g>
     <g id="text_14">
      <!-- 0.001 -->
      <g transform="translate(753.329575 82.294044)scale(0.15 -0.15)">
       <use xlink:href="#Helvetica-30"/>
       <use x="55.615234" xlink:href="#Helvetica-2e"/>
       <use x="83.398438" xlink:href="#Helvetica-30"/>
       <use x="139.013672" xlink:href="#Helvetica-30"/>
       <use x="194.628906" xlink:href="#Helvetica-31"/>
      </g>
     </g>
    </g>
    <g id="text_15">
     <!-- Normalized Saliency -->
     <g transform="translate(806.124888 -10.37375)rotate(-270)scale(0.2 -0.2)">
      <defs>
       <path d="M 488 4591 
L 1222 4591 
L 3541 872 
L 3541 4591 
L 4131 4591 
L 4131 0 
L 3434 0 
L 1081 3716 
L 1081 0 
L 488 0 
L 488 4591 
z
M 2269 4591 
L 2269 4591 
z
" id="Helvetica-4e" transform="scale(0.015625)"/>
       <path d="M 428 3347 
L 963 3347 
L 963 2769 
Q 1028 2938 1284 3180 
Q 1541 3422 1875 3422 
Q 1891 3422 1928 3419 
Q 1966 3416 2056 3406 
L 2056 2813 
Q 2006 2822 1964 2825 
Q 1922 2828 1872 2828 
Q 1447 2828 1219 2554 
Q 991 2281 991 1925 
L 991 0 
L 428 0 
L 428 3347 
z
" id="Helvetica-72" transform="scale(0.015625)"/>
       <path d="M 413 3347 
L 969 3347 
L 969 2872 
Q 1169 3119 1331 3231 
Q 1609 3422 1963 3422 
Q 2363 3422 2606 3225 
Q 2744 3113 2856 2894 
Q 3044 3163 3297 3292 
Q 3550 3422 3866 3422 
Q 4541 3422 4784 2934 
Q 4916 2672 4916 2228 
L 4916 0 
L 4331 0 
L 4331 2325 
Q 4331 2659 4164 2784 
Q 3997 2909 3756 2909 
Q 3425 2909 3186 2687 
Q 2947 2466 2947 1947 
L 2947 0 
L 2375 0 
L 2375 2184 
Q 2375 2525 2294 2681 
Q 2166 2916 1816 2916 
Q 1497 2916 1236 2669 
Q 975 2422 975 1775 
L 975 0 
L 413 0 
L 413 3347 
z
" id="Helvetica-6d" transform="scale(0.015625)"/>
       <path d="M 163 444 
L 2147 2844 
L 309 2844 
L 309 3347 
L 2903 3347 
L 2903 2888 
L 931 503 
L 2963 503 
L 2963 0 
L 163 0 
L 163 444 
z
M 1609 3428 
L 1609 3428 
z
" id="Helvetica-7a" transform="scale(0.015625)"/>
       <path d="M 1806 3422 
Q 2163 3422 2497 3255 
Q 2831 3088 3006 2822 
Q 3175 2569 3231 2231 
Q 3281 2000 3281 1494 
L 828 1494 
Q 844 984 1069 676 
Q 1294 369 1766 369 
Q 2206 369 2469 659 
Q 2619 828 2681 1050 
L 3234 1050 
Q 3213 866 3089 639 
Q 2966 413 2813 269 
Q 2556 19 2178 -69 
Q 1975 -119 1719 -119 
Q 1094 -119 659 336 
Q 225 791 225 1609 
Q 225 2416 662 2919 
Q 1100 3422 1806 3422 
z
M 2703 1941 
Q 2669 2306 2544 2525 
Q 2313 2931 1772 2931 
Q 1384 2931 1121 2651 
Q 859 2372 844 1941 
L 2703 1941 
z
M 1753 3428 
L 1753 3428 
z
" id="Helvetica-65" transform="scale(0.015625)"/>
       <path id="Helvetica-20" transform="scale(0.015625)"/>
       <path d="M 894 1481 
Q 916 1091 1078 847 
Q 1388 391 2169 391 
Q 2519 391 2806 491 
Q 3363 684 3363 1184 
Q 3363 1559 3128 1719 
Q 2891 1875 2384 1991 
L 1763 2131 
Q 1153 2269 900 2434 
Q 463 2722 463 3294 
Q 463 3913 891 4309 
Q 1319 4706 2103 4706 
Q 2825 4706 3329 4357 
Q 3834 4009 3834 3244 
L 3250 3244 
Q 3203 3613 3050 3809 
Q 2766 4169 2084 4169 
Q 1534 4169 1293 3937 
Q 1053 3706 1053 3400 
Q 1053 3063 1334 2906 
Q 1519 2806 2169 2656 
L 2813 2509 
Q 3278 2403 3531 2219 
Q 3969 1897 3969 1284 
Q 3969 522 3414 194 
Q 2859 -134 2125 -134 
Q 1269 -134 784 303 
Q 300 738 309 1481 
L 894 1481 
z
M 2150 4716 
L 2150 4716 
z
" id="Helvetica-53" transform="scale(0.015625)"/>
       <path d="M 1703 3444 
Q 2269 3444 2623 3169 
Q 2978 2894 3050 2222 
L 2503 2222 
Q 2453 2531 2275 2736 
Q 2097 2941 1703 2941 
Q 1166 2941 934 2416 
Q 784 2075 784 1575 
Q 784 1072 996 728 
Q 1209 384 1666 384 
Q 2016 384 2220 598 
Q 2425 813 2503 1184 
L 3050 1184 
Q 2956 519 2581 211 
Q 2206 -97 1622 -97 
Q 966 -97 575 383 
Q 184 863 184 1581 
Q 184 2463 612 2953 
Q 1041 3444 1703 3444 
z
M 1616 3428 
L 1616 3428 
z
" id="Helvetica-63" transform="scale(0.015625)"/>
       <path d="M 2503 3347 
L 3125 3347 
Q 3006 3025 2597 1878 
Q 2291 1016 2084 472 
Q 1597 -809 1397 -1090 
Q 1197 -1372 709 -1372 
Q 591 -1372 527 -1362 
Q 463 -1353 369 -1328 
L 369 -816 
Q 516 -856 581 -865 
Q 647 -875 697 -875 
Q 853 -875 926 -823 
Q 1000 -772 1050 -697 
Q 1066 -672 1162 -440 
Q 1259 -209 1303 -97 
L 66 3347 
L 703 3347 
L 1600 622 
L 2503 3347 
z
M 1597 3428 
L 1597 3428 
z
" id="Helvetica-79" transform="scale(0.015625)"/>
      </defs>
      <use xlink:href="#Helvetica-4e"/>
      <use x="72.216797" xlink:href="#Helvetica-6f"/>
      <use x="127.832031" xlink:href="#Helvetica-72"/>
      <use x="161.132812" xlink:href="#Helvetica-6d"/>
      <use x="244.433594" xlink:href="#Helvetica-61"/>
      <use x="300.048828" xlink:href="#Helvetica-6c"/>
      <use x="322.265625" xlink:href="#Helvetica-69"/>
      <use x="344.482422" xlink:href="#Helvetica-7a"/>
      <use x="394.482422" xlink:href="#Helvetica-65"/>
      <use x="450.097656" xlink:href="#Helvetica-64"/>
      <use x="505.712891" xlink:href="#Helvetica-20"/>
      <use x="533.496094" xlink:href="#Helvetica-53"/>
      <use x="600.195312" xlink:href="#Helvetica-61"/>
      <use x="655.810547" xlink:href="#Helvetica-6c"/>
      <use x="678.027344" xlink:href="#Helvetica-69"/>
      <use x="700.244141" xlink:href="#Helvetica-65"/>
      <use x="755.859375" xlink:href="#Helvetica-6e"/>
      <use x="811.474609" xlink:href="#Helvetica-63"/>
      <use x="861.474609" xlink:href="#Helvetica-79"/>
     </g>
    </g>
   </g>
   <g id="LineCollection_1"/>
   <g id="patch_5">
    <path d="M 733.912575 139.94 
L 733.912575 134.023 
L 733.912575 27.517 
L 733.912575 21.6 
L 739.829575 21.6 
L 739.829575 27.517 
L 739.829575 134.023 
L 739.829575 139.94 
z
" style="fill:none;"/>
   </g>
  </g>
 </g>
 <defs>
  <clipPath id="p2953271013">
   <rect height="118.34" width="623.772428" x="86.28" y="21.6"/>
  </clipPath>
  <clipPath id="p34ea40fac4">
   <rect height="118.34" width="5.917" x="733.912575" y="21.6"/>
  </clipPath>
 </defs>
</svg>
