<?xml version="1.0" encoding="utf-8" standalone="no"?>
<!DOCTYPE svg PUBLIC "-//W3C//DTD SVG 1.1//EN"
  "http://www.w3.org/Graphics/SVG/1.1/DTD/svg11.dtd">
<svg height="216pt" version="1.1" viewBox="0 0 306 216" width="306pt" xmlns="http://www.w3.org/2000/svg" xmlns:xlink="http://www.w3.org/1999/xlink">
 <metadata>
  <rdf:RDF xmlns:cc="http://creativecommons.org/ns#" xmlns:dc="http://purl.org/dc/elements/1.1/" xmlns:rdf="http://www.w3.org/1999/02/22-rdf-syntax-ns#">
   <cc:Work>
    <dc:type rdf:resource="http://purl.org/dc/dcmitype/StillImage"/>
    <dc:date>2022-12-28T16:23:45.040487</dc:date>
    <dc:format>image/svg+xml</dc:format>
    <dc:creator>
     <cc:Agent>
      <dc:title>Matplotlib v3.4.2, https://matplotlib.org/</dc:title>
     </cc:Agent>
    </dc:creator>
   </cc:Work>
  </rdf:RDF>
 </metadata>
 <defs>
  <style type="text/css">*{stroke-linecap:butt;stroke-linejoin:round;}</style>
 </defs>
 <g id="figure_1">
  <g id="patch_1">
   <path d="M 0 216 
L 306 216 
L 306 0 
L 0 0 
z
" style="fill:#ffffff;"/>
  </g>
  <g id="axes_1">
   <g id="patch_2">
    <path d="M 94.94 141.64 
L 284.4 141.64 
L 284.4 28.8 
L 94.94 28.8 
z
" style="fill:#ffffff;"/>
   </g>
   <g id="line2d_1">
    <path clip-path="url(#p68518b067e)" d="M 94.94 141.64 
L 284.4 141.64 
" style="fill:none;stroke:#000000;stroke-linecap:round;stroke-width:0.5;"/>
   </g>
   <g id="patch_3">
    <path clip-path="url(#p68518b067e)" d="M 100.523163 123.91177 
Q 102.797109 123.91177 104.051431 125.598427 
Q 105.305752 127.281417 105.443962 129.422738 
L 103.863673 129.422738 
Q 103.595077 127.798414 102.791894 126.848753 
Q 101.988711 125.895425 100.53881 125.895425 
Q 98.770765 125.895425 97.683339 127.644415 
Q 96.595913 129.389738 96.595913 132.997717 
Q 96.595913 135.9567 97.576421 137.797356 
Q 98.559538 139.634345 100.507517 139.634345 
Q 102.299032 139.634345 103.237817 137.698356 
Q 103.733287 136.679029 103.978414 135.014372 
L 105.558702 135.014372 
Q 105.347475 137.67269 104.158348 139.473013 
Q 102.731916 141.64 100.311937 141.64 
Q 98.225748 141.64 96.807139 139.861677 
Q 94.94 137.515024 94.94 132.609053 
Q 94.94 128.887408 96.342962 126.504089 
Q 97.858057 123.91177 100.523163 123.91177 
z
M 100.197196 123.91177 
L 100.197196 123.91177 
z
" style="fill:#0000ff;"/>
   </g>
   <g id="patch_4">
    <path clip-path="url(#p68518b067e)" d="M 100.416455 104.298937 
Q 102.054581 104.298937 103.249628 105.313883 
Q 104.981434 106.771347 105.368811 110.425156 
L 103.811705 110.425156 
Q 103.525603 108.383083 102.63185 107.449332 
Q 101.738096 106.515581 100.375945 106.515581 
Q 98.763138 106.515581 97.659238 108.460219 
Q 96.555339 110.400797 96.555339 114.245416 
Q 96.555339 117.566322 97.464284 119.653053 
Q 98.37576 121.739784 100.431646 121.739784 
Q 102.006475 121.739784 103.039482 120.27826 
Q 104.072489 118.812677 104.095276 115.536429 
L 100.456965 115.536429 
L 100.456965 113.445638 
L 105.558702 113.445638 
L 105.558702 123.416476 
L 104.54595 123.416476 
L 104.166168 121.017142 
Q 103.368626 122.425888 102.750848 122.973959 
Q 101.712777 123.91177 100.115161 123.91177 
Q 98.05168 123.91177 96.562935 121.768203 
Q 94.94 119.076563 94.94 114.383449 
Q 94.94 109.702514 96.522425 106.937798 
Q 98.026361 104.298937 100.416455 104.298937 
z
M 100.155671 104.270518 
L 100.155671 104.270518 
z
" style="fill:#ffa600;"/>
   </g>
   <g id="patch_5">
    <path clip-path="url(#p68518b067e)" d="M 105.558702 76.977175 
L 105.558702 80.229072 
L 101.148734 80.229072 
L 101.148734 104.270518 
L 99.349968 104.270518 
L 99.349968 80.229072 
L 94.94 80.229072 
L 94.94 76.977175 
L 105.558702 76.977175 
z
" style="fill:#ff0000;"/>
   </g>
   <g id="patch_6">
    <path clip-path="url(#p68518b067e)" d="M 102.067515 57.23828 
L 100.261014 35.956792 
L 98.340473 57.23828 
L 102.067515 57.23828 
z
M 99.418672 28.8 
L 101.240724 28.8 
L 105.558702 76.977175 
L 103.791078 76.977175 
L 102.58588 62.548158 
L 97.879128 62.548158 
L 96.590992 76.977175 
L 94.94 76.977175 
L 99.418672 28.8 
z
M 100.253239 28.8 
L 100.253239 28.8 
z
" style="fill:#008000;"/>
   </g>
   <g id="patch_7">
    <path clip-path="url(#p68518b067e)" d="M 111.700744 123.114678 
Q 113.97469 123.114678 115.229012 124.877169 
Q 116.483333 126.63583 116.621543 128.873428 
L 115.041255 128.873428 
Q 114.772658 127.176072 113.969475 126.183712 
Q 113.166292 125.187521 111.716391 125.187521 
Q 109.948346 125.187521 108.86092 127.015149 
Q 107.773494 128.838945 107.773494 132.609145 
Q 107.773494 135.701169 108.754002 137.624584 
Q 109.737119 139.544167 111.685098 139.544167 
Q 113.476613 139.544167 114.415398 137.521133 
Q 114.910868 136.455975 115.155995 134.716472 
L 116.736283 134.716472 
Q 116.525057 137.494313 115.335929 139.375581 
Q 113.909497 141.64 111.489518 141.64 
Q 109.403329 141.64 107.98472 139.781721 
Q 106.117581 137.329558 106.117581 132.203005 
Q 106.117581 128.314029 107.520543 125.823551 
Q 109.035638 123.114678 111.700744 123.114678 
z
M 111.374777 123.114678 
L 111.374777 123.114678 
z
" style="fill:#0000ff;"/>
   </g>
   <g id="patch_8">
    <path clip-path="url(#p68518b067e)" d="M 116.736283 97.734357 
L 116.736283 100.758325 
L 112.326315 100.758325 
L 112.326315 123.114678 
L 110.527549 123.114678 
L 110.527549 100.758325 
L 106.117581 100.758325 
L 106.117581 97.734357 
L 116.736283 97.734357 
z
" style="fill:#ff0000;"/>
   </g>
   <g id="patch_9">
    <path clip-path="url(#p68518b067e)" d="M 111.594036 71.435631 
Q 113.232162 71.435631 114.427209 72.796567 
Q 116.159015 74.750871 116.546392 79.650241 
L 114.989286 79.650241 
Q 114.703184 76.912037 113.809431 75.659976 
Q 112.915677 74.407915 111.553526 74.407915 
Q 109.940719 74.407915 108.83682 77.015469 
Q 107.73292 79.617578 107.73292 84.772803 
Q 107.73292 89.225786 108.641865 92.02387 
Q 109.553341 94.821954 111.609227 94.821954 
Q 113.184056 94.821954 114.217063 92.862206 
Q 115.25007 90.897015 115.272857 86.503914 
L 111.634546 86.503914 
L 111.634546 83.700386 
L 116.736283 83.700386 
L 116.736283 97.07022 
L 115.723531 97.07022 
L 115.34375 93.852968 
Q 114.546208 95.741947 113.928429 96.476852 
Q 112.890358 97.734357 111.292743 97.734357 
Q 109.229261 97.734357 107.740516 94.86006 
Q 106.117581 91.250858 106.117581 84.957891 
Q 106.117581 78.681254 107.700006 74.974065 
Q 109.203942 71.435631 111.594036 71.435631 
z
M 111.333253 71.397525 
L 111.333253 71.397525 
z
" style="fill:#ffa600;"/>
   </g>
   <g id="patch_10">
    <path clip-path="url(#p68518b067e)" d="M 113.245097 53.944695 
L 111.438595 35.127927 
L 109.518054 53.944695 
L 113.245097 53.944695 
z
M 110.596253 28.8 
L 112.418305 28.8 
L 116.736283 71.397525 
L 114.968659 71.397525 
L 113.763461 58.639608 
L 109.056709 58.639608 
L 107.768573 71.397525 
L 106.117581 71.397525 
L 110.596253 28.8 
z
M 111.43082 28.8 
L 111.43082 28.8 
z
" style="fill:#008000;"/>
   </g>
   <g id="patch_11">
    <path clip-path="url(#p68518b067e)" d="M 122.771617 121.072039 
Q 124.409743 121.072039 125.60479 122.136413 
Q 127.336596 123.664854 127.723973 127.4966 
L 126.166868 127.4966 
Q 125.880765 125.355079 124.987012 124.375855 
Q 124.093258 123.396631 122.731107 123.396631 
Q 121.1183 123.396631 120.014401 125.435972 
Q 118.910501 127.471055 118.910501 131.502903 
Q 118.910501 134.985534 119.819446 137.173887 
Q 120.730923 139.36224 122.786809 139.36224 
Q 124.361638 139.36224 125.394644 137.829541 
Q 126.427651 136.292586 126.450438 132.856787 
L 122.812127 132.856787 
L 122.812127 130.664176 
L 127.913864 130.664176 
L 127.913864 141.120586 
L 126.901113 141.120586 
L 126.521331 138.604406 
Q 125.723789 140.081757 125.10601 140.656519 
Q 124.06794 141.64 122.470324 141.64 
Q 120.406842 141.64 118.918097 139.392042 
Q 117.295162 136.569323 117.295162 131.647658 
Q 117.295162 126.738765 118.877587 123.839411 
Q 120.381523 121.072039 122.771617 121.072039 
z
M 122.510834 121.042236 
L 122.510834 121.042236 
z
" style="fill:#ffa600;"/>
   </g>
   <g id="patch_12">
    <path clip-path="url(#p68518b067e)" d="M 122.878326 98.53145 
Q 125.152272 98.53145 126.406593 100.673117 
Q 127.660914 102.810129 127.799124 105.529115 
L 126.218836 105.529115 
Q 125.950239 103.466596 125.147056 102.260745 
Q 124.343873 101.050237 122.893972 101.050237 
Q 121.125927 101.050237 120.038501 103.271053 
Q 118.951075 105.487213 118.951075 110.068519 
Q 118.951075 113.825748 119.931584 116.162959 
Q 120.9147 118.495514 122.862679 118.495514 
Q 124.654194 118.495514 125.592979 116.037253 
Q 126.088449 114.742941 126.333576 112.629208 
L 127.913864 112.629208 
Q 127.702638 116.004662 126.51351 118.290659 
Q 125.087078 121.042236 122.667099 121.042236 
Q 120.58091 121.042236 119.162301 118.784174 
Q 117.295162 115.804463 117.295162 109.575004 
Q 117.295162 104.849369 118.698124 101.823099 
Q 120.213219 98.53145 122.878326 98.53145 
z
M 122.552359 98.53145 
L 122.552359 98.53145 
z
" style="fill:#0000ff;"/>
   </g>
   <g id="patch_13">
    <path clip-path="url(#p68518b067e)" d="M 124.422678 84.671006 
L 122.616176 69.72737 
L 120.695635 84.671006 
L 124.422678 84.671006 
z
M 121.773834 64.701946 
L 123.595886 64.701946 
L 127.913864 98.53145 
L 126.14624 98.53145 
L 124.941042 88.399546 
L 120.23429 88.399546 
L 118.946154 98.53145 
L 117.295162 98.53145 
L 121.773834 64.701946 
z
M 122.608401 64.701946 
L 122.608401 64.701946 
z
" style="fill:#008000;"/>
   </g>
   <g id="patch_14">
    <path clip-path="url(#p68518b067e)" d="M 127.913864 28.8 
L 127.913864 33.077579 
L 123.503896 33.077579 
L 123.503896 64.701946 
L 121.705131 64.701946 
L 121.705131 33.077579 
L 117.295162 33.077579 
L 117.295162 28.8 
L 127.913864 28.8 
z
" style="fill:#ff0000;"/>
   </g>
   <g id="patch_15">
    <path clip-path="url(#p68518b067e)" d="M 134.055907 123.91177 
Q 136.329853 123.91177 137.584174 125.598427 
Q 138.838495 127.281417 138.976705 129.422738 
L 137.396417 129.422738 
Q 137.12782 127.798414 136.324637 126.848753 
Q 135.521454 125.895425 134.071553 125.895425 
Q 132.303508 125.895425 131.216082 127.644415 
Q 130.128656 129.389738 130.128656 132.997717 
Q 130.128656 135.9567 131.109165 137.797356 
Q 132.092281 139.634345 134.04026 139.634345 
Q 135.831775 139.634345 136.77056 137.698356 
Q 137.26603 136.679029 137.511157 135.014372 
L 139.091445 135.014372 
Q 138.880219 137.67269 137.691091 139.473013 
Q 136.264659 141.64 133.84468 141.64 
Q 131.758491 141.64 130.339883 139.861677 
Q 128.472743 137.515024 128.472743 132.609053 
Q 128.472743 128.887408 129.875705 126.504089 
Q 131.3908 123.91177 134.055907 123.91177 
z
M 133.72994 123.91177 
L 133.72994 123.91177 
z
" style="fill:#0000ff;"/>
   </g>
   <g id="patch_16">
    <path clip-path="url(#p68518b067e)" d="M 139.091445 100.444473 
L 139.091445 103.240511 
L 134.681477 103.240511 
L 134.681477 123.91177 
L 132.882712 123.91177 
L 132.882712 103.240511 
L 128.472743 103.240511 
L 128.472743 100.444473 
L 139.091445 100.444473 
z
" style="fill:#ff0000;"/>
   </g>
   <g id="patch_17">
    <path clip-path="url(#p68518b067e)" d="M 133.949198 70.325237 
Q 135.587324 70.325237 136.782371 71.883881 
Q 138.514177 74.122094 138.901554 79.733212 
L 137.344449 79.733212 
Q 137.058346 76.59722 136.164593 75.163268 
Q 135.270839 73.729316 133.908688 73.729316 
Q 132.295881 73.729316 131.191982 76.715677 
Q 130.088082 79.695805 130.088082 85.599948 
Q 130.088082 90.699831 130.997027 93.904403 
Q 131.908504 97.108975 133.96439 97.108975 
Q 135.539219 97.108975 136.572225 94.864527 
Q 137.605232 92.613845 137.628019 87.582543 
L 133.989709 87.582543 
L 133.989709 84.371736 
L 139.091445 84.371736 
L 139.091445 99.683854 
L 138.078694 99.683854 
L 137.698912 95.99922 
Q 136.90137 98.162618 136.283591 99.004286 
Q 135.245521 100.444473 133.647905 100.444473 
Q 131.584423 100.444473 130.095678 97.152617 
Q 128.472743 93.019093 128.472743 85.811923 
Q 128.472743 78.623458 130.055168 74.377711 
Q 131.559104 70.325237 133.949198 70.325237 
z
M 133.688415 70.281595 
L 133.688415 70.281595 
z
" style="fill:#ffa600;"/>
   </g>
   <g id="patch_18">
    <path clip-path="url(#p68518b067e)" d="M 135.600259 53.285978 
L 133.793758 34.962154 
L 131.873216 53.285978 
L 135.600259 53.285978 
z
M 132.951415 28.8 
L 134.773467 28.8 
L 139.091445 70.281595 
L 137.323822 70.281595 
L 136.118624 57.857898 
L 131.411872 57.857898 
L 130.123735 70.281595 
L 128.472743 70.281595 
L 132.951415 28.8 
z
M 133.785982 28.8 
L 133.785982 28.8 
z
" style="fill:#008000;"/>
   </g>
   <g id="patch_19">
    <path clip-path="url(#p68518b067e)" d="M 150.269027 120.085725 
L 150.269027 122.653834 
L 145.859058 122.653834 
L 145.859058 141.64 
L 144.060293 141.64 
L 144.060293 122.653834 
L 139.650324 122.653834 
L 139.650324 120.085725 
L 150.269027 120.085725 
z
" style="fill:#ff0000;"/>
   </g>
   <g id="patch_20">
    <path clip-path="url(#p68518b067e)" d="M 145.12678 94.901315 
Q 146.764906 94.901315 147.959953 96.204586 
Q 149.691758 98.076083 150.079136 102.767859 
L 148.52203 102.767859 
Q 148.235927 100.145677 147.342174 98.946668 
Q 146.448421 97.747659 145.086269 97.747659 
Q 143.473462 97.747659 142.369563 100.244726 
Q 141.265664 102.73658 141.265664 107.673371 
Q 141.265664 111.937674 142.174608 114.617199 
Q 143.086085 117.296725 145.141971 117.296725 
Q 146.7168 117.296725 147.749807 115.420014 
Q 148.782813 113.538091 148.8056 109.331132 
L 145.16729 109.331132 
L 145.16729 106.646394 
L 150.269027 106.646394 
L 150.269027 119.449729 
L 149.256275 119.449729 
L 148.876493 116.368796 
Q 148.078951 118.177736 147.461172 118.881502 
Q 146.423102 120.085725 144.825486 120.085725 
Q 142.762004 120.085725 141.273259 117.333216 
Q 139.650324 113.876941 139.650324 107.850616 
Q 139.650324 101.83993 141.232749 98.289819 
Q 142.736685 94.901315 145.12678 94.901315 
z
M 144.865996 94.864823 
L 144.865996 94.864823 
z
" style="fill:#ffa600;"/>
   </g>
   <g id="patch_21">
    <path clip-path="url(#p68518b067e)" d="M 145.233488 67.57148 
Q 147.507434 67.57148 148.761755 70.168158 
Q 150.016076 72.759191 150.154286 76.055843 
L 148.573998 76.055843 
Q 148.305401 73.555129 147.502218 72.093086 
Q 146.699036 70.625399 145.249134 70.625399 
Q 143.481089 70.625399 142.393663 73.318041 
Q 141.306237 76.005038 141.306237 81.559671 
Q 141.306237 86.115147 142.286746 88.948913 
Q 143.269862 91.777034 145.217841 91.777034 
Q 147.009356 91.777034 147.948141 88.796499 
Q 148.443611 87.227203 148.688738 84.664395 
L 150.269027 84.664395 
Q 150.0578 88.756985 148.868672 91.528656 
Q 147.44224 94.864823 145.022261 94.864823 
Q 142.936072 94.864823 141.517464 92.127021 
Q 139.650324 88.514252 139.650324 80.961306 
Q 139.650324 75.23168 141.053287 71.562461 
Q 142.568381 67.57148 145.233488 67.57148 
z
M 144.907521 67.57148 
L 144.907521 67.57148 
z
" style="fill:#0000ff;"/>
   </g>
   <g id="patch_22">
    <path clip-path="url(#p68518b067e)" d="M 146.77784 51.686236 
L 144.971339 34.559562 
L 143.050797 51.686236 
L 146.77784 51.686236 
z
M 144.128996 28.8 
L 145.951048 28.8 
L 150.269027 67.57148 
L 148.501403 67.57148 
L 147.296205 55.95946 
L 142.589453 55.95946 
L 141.301316 67.57148 
L 139.650324 67.57148 
L 144.128996 28.8 
z
M 144.963563 28.8 
L 144.963563 28.8 
z
" style="fill:#008000;"/>
   </g>
   <g id="patch_23">
    <path clip-path="url(#p68518b067e)" d="M 156.304361 122.982294 
Q 157.942487 122.982294 159.137534 123.947813 
Q 160.869339 125.3343 161.256717 128.810172 
L 159.699611 128.810172 
Q 159.413509 126.867546 158.519755 125.979267 
Q 157.626002 125.090989 156.263851 125.090989 
Q 154.651043 125.090989 153.547144 126.940925 
Q 152.443245 128.786999 152.443245 132.444389 
Q 152.443245 135.60357 153.352189 137.588679 
Q 154.263666 139.573787 156.319552 139.573787 
Q 157.894381 139.573787 158.927388 138.183439 
Q 159.960394 136.789228 159.983181 133.67253 
L 156.344871 133.67253 
L 156.344871 131.683559 
L 161.446608 131.683559 
L 161.446608 141.168826 
L 160.433856 141.168826 
L 160.054074 138.886337 
Q 159.256532 140.226479 158.638753 140.74786 
Q 157.600683 141.64 156.003067 141.64 
Q 153.939585 141.64 152.45084 139.600822 
Q 150.827906 137.040263 150.827906 132.575699 
Q 150.827906 128.122721 152.41033 125.492645 
Q 153.914267 122.982294 156.304361 122.982294 
z
M 156.043577 122.955259 
L 156.043577 122.955259 
z
" style="fill:#ffa600;"/>
   </g>
   <g id="patch_24">
    <path clip-path="url(#p68518b067e)" d="M 161.446608 99.487961 
L 161.446608 102.284 
L 157.036639 102.284 
L 157.036639 122.955259 
L 155.237874 122.955259 
L 155.237874 102.284 
L 150.827906 102.284 
L 150.827906 99.487961 
L 161.446608 99.487961 
z
" style="fill:#ff0000;"/>
   </g>
   <g id="patch_25">
    <path clip-path="url(#p68518b067e)" d="M 156.411069 68.368572 
Q 158.685015 68.368572 159.939336 71.329259 
Q 161.193657 74.283509 161.331867 78.042294 
L 159.751579 78.042294 
Q 159.482982 75.191024 158.679799 73.524029 
Q 157.876617 71.850597 156.426715 71.850597 
Q 154.65867 71.850597 153.571244 74.9207 
Q 152.483818 77.984367 152.483818 84.317661 
Q 152.483818 89.511735 153.464327 92.742745 
Q 154.447444 95.967319 156.395423 95.967319 
Q 158.186937 95.967319 159.125722 92.568966 
Q 159.621192 90.779681 159.866319 87.857613 
L 161.446608 87.857613 
Q 161.235381 92.523912 160.046253 95.684123 
Q 158.619822 99.487961 156.199842 99.487961 
Q 154.113653 99.487961 152.695045 96.366368 
Q 150.827906 92.247152 150.827906 83.635416 
Q 150.827906 77.102597 152.230868 72.919019 
Q 153.745962 68.368572 156.411069 68.368572 
z
M 156.085102 68.368572 
L 156.085102 68.368572 
z
" style="fill:#0000ff;"/>
   </g>
   <g id="patch_26">
    <path clip-path="url(#p68518b067e)" d="M 157.955421 52.156748 
L 156.14892 34.677971 
L 154.228378 52.156748 
L 157.955421 52.156748 
z
M 155.306577 28.8 
L 157.128629 28.8 
L 161.446608 68.368572 
L 159.678984 68.368572 
L 158.473786 56.517824 
L 153.767034 56.517824 
L 152.478897 68.368572 
L 150.827906 68.368572 
L 155.306577 28.8 
z
M 156.141144 28.8 
L 156.141144 28.8 
z
" style="fill:#008000;"/>
   </g>
   <g id="patch_27">
    <path clip-path="url(#p68518b067e)" d="M 172.624189 121.998748 
L 172.624189 124.338927 
L 168.21422 124.338927 
L 168.21422 141.64 
L 166.415455 141.64 
L 166.415455 124.338927 
L 162.005487 124.338927 
L 162.005487 121.998748 
L 172.624189 121.998748 
z
" style="fill:#ff0000;"/>
   </g>
   <g id="patch_28">
    <path clip-path="url(#p68518b067e)" d="M 167.58865 96.618427 
Q 169.862596 96.618427 171.116917 99.033101 
Q 172.371238 101.442525 172.509448 104.508111 
L 170.92916 104.508111 
Q 170.660563 102.182675 169.857381 100.823109 
Q 169.054198 99.458293 167.604296 99.458293 
Q 165.836251 99.458293 164.748825 101.962205 
Q 163.661399 104.460867 163.661399 109.626169 
Q 163.661399 113.862347 164.641908 116.497491 
Q 165.625025 119.127386 167.573004 119.127386 
Q 169.364518 119.127386 170.303304 116.35576 
Q 170.798773 114.896457 171.043901 112.513279 
L 172.624189 112.513279 
Q 172.412962 116.319015 171.223834 118.896417 
Q 169.797403 121.998748 167.377423 121.998748 
Q 165.291234 121.998748 163.872626 119.452842 
Q 162.005487 116.093296 162.005487 109.069745 
Q 162.005487 103.741715 163.408449 100.329676 
Q 164.923544 96.618427 167.58865 96.618427 
z
M 167.262683 96.618427 
L 167.262683 96.618427 
z
" style="fill:#0000ff;"/>
   </g>
   <g id="patch_29">
    <path clip-path="url(#p68518b067e)" d="M 167.481942 67.454319 
Q 169.120068 67.454319 170.315115 68.963536 
Q 172.04692 71.130772 172.434298 76.563953 
L 170.877192 76.563953 
Q 170.59109 73.527408 169.697336 72.138929 
Q 168.803583 70.750449 167.441432 70.750449 
Q 165.828625 70.750449 164.724725 73.642109 
Q 163.620826 76.527731 163.620826 82.244645 
Q 163.620826 87.182803 164.52977 90.285753 
Q 165.441247 93.388703 167.497133 93.388703 
Q 169.071962 93.388703 170.104969 91.21543 
Q 171.137976 89.036121 171.160763 84.164369 
L 167.522452 84.164369 
L 167.522452 81.055382 
L 172.624189 81.055382 
L 172.624189 95.881929 
L 171.611437 95.881929 
L 171.231655 92.31414 
Q 170.434113 94.408934 169.816335 95.223911 
Q 168.778264 96.618427 167.180648 96.618427 
Q 165.117166 96.618427 163.628421 93.430961 
Q 162.005487 89.428518 162.005487 82.449899 
Q 162.005487 75.48939 163.587911 71.378283 
Q 165.091848 67.454319 167.481942 67.454319 
z
M 167.221158 67.412061 
L 167.221158 67.412061 
z
" style="fill:#ffa600;"/>
   </g>
   <g id="patch_30">
    <path clip-path="url(#p68518b067e)" d="M 169.133002 51.592134 
L 167.326501 34.53588 
L 165.40596 51.592134 
L 169.133002 51.592134 
z
M 166.484158 28.8 
L 168.30621 28.8 
L 172.624189 67.412061 
L 170.856565 67.412061 
L 169.651367 55.847787 
L 164.944615 55.847787 
L 163.656478 67.412061 
L 162.005487 67.412061 
L 166.484158 28.8 
z
M 167.318725 28.8 
L 167.318725 28.8 
z
" style="fill:#008000;"/>
   </g>
   <g id="patch_31">
    <path clip-path="url(#p68518b067e)" d="M 183.80177 121.998748 
L 183.80177 124.338927 
L 179.391802 124.338927 
L 179.391802 141.64 
L 177.593036 141.64 
L 177.593036 124.338927 
L 173.183068 124.338927 
L 173.183068 121.998748 
L 183.80177 121.998748 
z
" style="fill:#ff0000;"/>
   </g>
   <g id="patch_32">
    <path clip-path="url(#p68518b067e)" d="M 178.766231 97.574938 
Q 181.040177 97.574938 182.294498 99.89861 
Q 183.548819 102.21723 183.68703 105.167283 
L 182.106741 105.167283 
Q 181.838145 102.929486 181.034962 101.621158 
Q 180.231779 100.307778 178.781878 100.307778 
Q 177.013832 100.307778 175.926406 102.717325 
Q 174.83898 105.12182 174.83898 110.092456 
Q 174.83898 114.168985 175.819489 116.704818 
Q 176.802606 119.235599 178.750585 119.235599 
Q 180.5421 119.235599 181.480885 116.568428 
Q 181.976355 115.164122 182.221482 112.870759 
L 183.80177 112.870759 
Q 183.590543 116.533068 182.401416 119.013335 
Q 180.974984 121.998748 178.555005 121.998748 
Q 176.468816 121.998748 175.050207 119.54879 
Q 173.183068 116.315855 173.183068 109.557002 
Q 173.183068 104.42977 174.58603 101.146321 
Q 176.101125 97.574938 178.766231 97.574938 
z
M 178.440264 97.574938 
L 178.440264 97.574938 
z
" style="fill:#0000ff;"/>
   </g>
   <g id="patch_33">
    <path clip-path="url(#p68518b067e)" d="M 178.659523 68.570018 
Q 180.297649 68.570018 181.492696 70.070998 
Q 183.224501 72.226404 183.611879 77.629928 
L 182.054773 77.629928 
Q 181.768671 74.609958 180.874917 73.229058 
Q 179.981164 71.848157 178.619013 71.848157 
Q 177.006206 71.848157 175.902306 74.724033 
Q 174.798407 77.593905 174.798407 83.279614 
Q 174.798407 88.190817 175.707352 91.27683 
Q 176.618828 94.362843 178.674714 94.362843 
Q 180.249543 94.362843 181.28255 92.201433 
Q 182.315557 90.034019 182.338344 85.188859 
L 178.700033 85.188859 
L 178.700033 82.096842 
L 183.80177 82.096842 
L 183.80177 96.842461 
L 182.789018 96.842461 
L 182.409236 93.294146 
Q 181.611694 95.377505 180.993916 96.188034 
Q 179.955845 97.574938 178.358229 97.574938 
Q 176.294748 97.574938 174.806003 94.404871 
Q 173.183068 90.424274 173.183068 83.483747 
Q 173.183068 76.561231 174.765492 72.472564 
Q 176.269429 68.570018 178.659523 68.570018 
z
M 178.398739 68.527991 
L 178.398739 68.527991 
z
" style="fill:#ffa600;"/>
   </g>
   <g id="patch_34">
    <path clip-path="url(#p68518b067e)" d="M 180.310583 52.250851 
L 178.504082 34.701653 
L 176.583541 52.250851 
L 180.310583 52.250851 
z
M 177.661739 28.8 
L 179.483791 28.8 
L 183.80177 68.527991 
L 182.034146 68.527991 
L 180.828948 56.629497 
L 176.122196 56.629497 
L 174.83406 68.527991 
L 173.183068 68.527991 
L 177.661739 28.8 
z
M 178.496307 28.8 
L 178.496307 28.8 
z
" style="fill:#008000;"/>
   </g>
   <g id="patch_35">
    <path clip-path="url(#p68518b067e)" d="M 189.837104 121.072039 
Q 191.47523 121.072039 192.670277 122.136413 
Q 194.402083 123.664854 194.78946 127.4966 
L 193.232354 127.4966 
Q 192.946252 125.355079 192.052498 124.375855 
Q 191.158745 123.396631 189.796594 123.396631 
Q 188.183787 123.396631 187.079887 125.435972 
Q 185.975988 127.471055 185.975988 131.502903 
Q 185.975988 134.985534 186.884933 137.173887 
Q 187.796409 139.36224 189.852295 139.36224 
Q 191.427124 139.36224 192.460131 137.829541 
Q 193.493138 136.292586 193.515925 132.856787 
L 189.877614 132.856787 
L 189.877614 130.664176 
L 194.979351 130.664176 
L 194.979351 141.120586 
L 193.966599 141.120586 
L 193.586817 138.604406 
Q 192.789275 140.081757 192.171497 140.656519 
Q 191.133426 141.64 189.53581 141.64 
Q 187.472329 141.64 185.983584 139.392042 
Q 184.360649 136.569323 184.360649 131.647658 
Q 184.360649 126.738765 185.943074 123.839411 
Q 187.44701 121.072039 189.837104 121.072039 
z
M 189.57632 121.042236 
L 189.57632 121.042236 
z
" style="fill:#ffa600;"/>
   </g>
   <g id="patch_36">
    <path clip-path="url(#p68518b067e)" d="M 194.979351 98.53145 
L 194.979351 101.213523 
L 190.569383 101.213523 
L 190.569383 121.042236 
L 188.770617 121.042236 
L 188.770617 101.213523 
L 184.360649 101.213523 
L 184.360649 98.53145 
L 194.979351 98.53145 
z
" style="fill:#ff0000;"/>
   </g>
   <g id="patch_37">
    <path clip-path="url(#p68518b067e)" d="M 189.943812 70.281595 
Q 192.217758 70.281595 193.472079 72.969275 
Q 194.726401 75.651113 194.864611 79.063298 
L 193.284322 79.063298 
Q 193.015726 76.474945 192.212543 74.961664 
Q 191.40936 73.442541 189.959459 73.442541 
Q 188.191414 73.442541 187.103988 76.229548 
Q 186.016561 79.010713 186.016561 84.760011 
Q 186.016561 89.475137 186.99707 92.408213 
Q 187.980187 95.335448 189.928166 95.335448 
Q 191.719681 95.335448 192.658466 92.250458 
Q 193.153936 90.626165 193.399063 87.973541 
L 194.979351 87.973541 
Q 194.768124 92.209559 193.578997 95.078365 
Q 192.152565 98.53145 189.732586 98.53145 
Q 187.646397 98.53145 186.227788 95.6977 
Q 184.360649 91.958319 184.360649 84.140676 
Q 184.360649 78.210251 185.763611 74.412443 
Q 187.278706 70.281595 189.943812 70.281595 
z
M 189.617845 70.281595 
L 189.617845 70.281595 
z
" style="fill:#0000ff;"/>
   </g>
   <g id="patch_38">
    <path clip-path="url(#p68518b067e)" d="M 191.488164 53.285978 
L 189.681663 34.962154 
L 187.761122 53.285978 
L 191.488164 53.285978 
z
M 188.83932 28.8 
L 190.661373 28.8 
L 194.979351 70.281595 
L 193.211727 70.281595 
L 192.006529 57.857898 
L 187.299777 57.857898 
L 186.011641 70.281595 
L 184.360649 70.281595 
L 188.83932 28.8 
z
M 189.673888 28.8 
L 189.673888 28.8 
z
" style="fill:#008000;"/>
   </g>
   <g id="patch_39">
    <path clip-path="url(#p68518b067e)" d="M 201.014685 118.246453 
Q 202.652811 118.246453 203.847858 119.457049 
Q 205.579664 121.195464 205.967041 125.553608 
L 204.409935 125.553608 
Q 204.123833 123.11789 203.23008 122.004142 
Q 202.336326 120.890394 200.974175 120.890394 
Q 199.361368 120.890394 198.257469 123.209895 
Q 197.153569 125.524553 197.153569 130.110289 
Q 197.153569 134.071357 198.062514 136.560341 
Q 198.97399 139.049326 201.029876 139.049326 
Q 202.604705 139.049326 203.637712 137.306068 
Q 204.670719 135.557968 204.693506 131.650166 
L 201.055195 131.650166 
L 201.055195 129.15634 
L 206.156932 129.15634 
L 206.156932 141.049229 
L 205.14418 141.049229 
L 204.764399 138.187382 
Q 203.966857 139.867688 203.349078 140.52141 
Q 202.311007 141.64 200.713392 141.64 
Q 198.64991 141.64 197.161165 139.083222 
Q 195.53823 135.872723 195.53823 130.27493 
Q 195.53823 124.691664 197.120655 121.394002 
Q 198.624591 118.246453 201.014685 118.246453 
z
M 200.753902 118.212557 
L 200.753902 118.212557 
z
" style="fill:#ffa600;"/>
   </g>
   <g id="patch_40">
    <path clip-path="url(#p68518b067e)" d="M 202.665746 106.654506 
L 200.859244 94.193195 
L 198.938703 106.654506 
L 202.665746 106.654506 
z
M 200.016902 90.002557 
L 201.838954 90.002557 
L 206.156932 118.212557 
L 204.389308 118.212557 
L 203.18411 109.763689 
L 198.477358 109.763689 
L 197.189222 118.212557 
L 195.53823 118.212557 
L 200.016902 90.002557 
z
M 200.851469 90.002557 
L 200.851469 90.002557 
z
" style="fill:#008000;"/>
   </g>
   <g id="patch_41">
    <path clip-path="url(#p68518b067e)" d="M 201.121393 60.836045 
Q 203.395339 60.836045 204.649661 63.610936 
Q 205.903982 66.379794 206.042192 69.902698 
L 204.461904 69.902698 
Q 204.193307 67.230358 203.390124 65.667974 
Q 202.586941 64.099558 201.13704 64.099558 
Q 199.368995 64.099558 198.281569 66.976999 
Q 197.194143 69.848407 197.194143 75.78426 
Q 197.194143 80.652383 198.174651 83.680633 
Q 199.157768 86.70285 201.105747 86.70285 
Q 202.897262 86.70285 203.836047 83.517759 
Q 204.331517 81.84076 204.576644 79.102063 
L 206.156932 79.102063 
Q 205.945706 83.475532 204.756578 86.437426 
Q 203.330146 90.002557 200.910167 90.002557 
Q 198.823978 90.002557 197.405369 87.076857 
Q 195.53823 83.21614 195.53823 75.144828 
Q 195.53823 69.021972 196.941192 65.100931 
Q 198.456287 60.836045 201.121393 60.836045 
z
M 200.795426 60.836045 
L 200.795426 60.836045 
z
" style="fill:#0000ff;"/>
   </g>
   <g id="patch_42">
    <path clip-path="url(#p68518b067e)" d="M 206.156932 28.8 
L 206.156932 32.616972 
L 201.746964 32.616972 
L 201.746964 60.836045 
L 199.948198 60.836045 
L 199.948198 32.616972 
L 195.53823 32.616972 
L 195.53823 28.8 
L 206.156932 28.8 
z
" style="fill:#ff0000;"/>
   </g>
   <g id="patch_43">
    <path clip-path="url(#p68518b067e)" d="M 212.192266 119.161784 
Q 213.830392 119.161784 215.025439 120.325012 
Q 216.757245 121.995407 217.144622 126.183028 
L 215.587517 126.183028 
Q 215.301414 123.842613 214.407661 122.772443 
Q 213.513907 121.702274 212.151756 121.702274 
Q 210.538949 121.702274 209.43505 123.931018 
Q 208.33115 126.15511 208.33115 130.561417 
Q 208.33115 134.367499 209.240095 136.759096 
Q 210.151572 139.150692 212.207458 139.150692 
Q 213.782287 139.150692 214.815293 137.475644 
Q 215.8483 135.795943 215.871087 132.041043 
L 212.232776 132.041043 
L 212.232776 129.644794 
L 217.334513 129.644794 
L 217.334513 141.072345 
L 216.321762 141.072345 
L 215.94198 138.322474 
Q 215.144438 139.937034 214.526659 140.565177 
Q 213.488589 141.64 211.890973 141.64 
Q 209.827491 141.64 208.338746 139.183263 
Q 206.715811 136.098382 206.715811 130.719616 
Q 206.715811 125.354809 208.298236 122.186176 
Q 209.802172 119.161784 212.192266 119.161784 
z
M 211.931483 119.129214 
L 211.931483 119.129214 
z
" style="fill:#ffa600;"/>
   </g>
   <g id="patch_44">
    <path clip-path="url(#p68518b067e)" d="M 212.298975 94.864823 
Q 214.572921 94.864823 215.827242 97.173328 
Q 217.081563 99.476814 217.219773 102.407611 
L 215.639485 102.407611 
Q 215.370888 100.18442 214.567705 98.884632 
Q 213.764522 97.579825 212.314621 97.579825 
Q 210.546576 97.579825 209.45915 99.973644 
Q 208.371724 102.362444 208.371724 107.300637 
Q 208.371724 111.350557 209.352233 113.869838 
Q 210.335349 116.3841 212.283328 116.3841 
Q 214.074843 116.3841 215.013628 113.734339 
Q 215.509098 112.339199 215.754225 110.060805 
L 217.334513 110.060805 
Q 217.123287 113.699209 215.934159 116.163287 
Q 214.507727 119.129214 212.087748 119.129214 
Q 210.001559 119.129214 208.58295 116.695247 
Q 206.715811 113.483414 206.715811 106.768677 
Q 206.715811 101.674911 208.118773 98.412894 
Q 209.633868 94.864823 212.298975 94.864823 
z
M 211.973008 94.864823 
L 211.973008 94.864823 
z
" style="fill:#0000ff;"/>
   </g>
   <g id="patch_45">
    <path clip-path="url(#p68518b067e)" d="M 217.334513 64.701946 
L 217.334513 68.295736 
L 212.924545 68.295736 
L 212.924545 94.864823 
L 211.12578 94.864823 
L 211.12578 68.295736 
L 206.715811 68.295736 
L 206.715811 64.701946 
L 217.334513 64.701946 
z
" style="fill:#ff0000;"/>
   </g>
   <g id="patch_46">
    <path clip-path="url(#p68518b067e)" d="M 213.843327 49.992392 
L 212.036825 34.133288 
L 210.116284 49.992392 
L 213.843327 49.992392 
z
M 211.194483 28.8 
L 213.016535 28.8 
L 217.334513 64.701946 
L 215.566889 64.701946 
L 214.361691 53.949348 
L 209.654939 53.949348 
L 208.366803 64.701946 
L 206.715811 64.701946 
L 211.194483 28.8 
z
M 212.02905 28.8 
L 212.02905 28.8 
z
" style="fill:#008000;"/>
   </g>
   <g id="patch_47">
    <path clip-path="url(#p68518b067e)" d="M 228.512094 118.172702 
L 228.512094 120.968741 
L 224.102126 120.968741 
L 224.102126 141.64 
L 222.303361 141.64 
L 222.303361 120.968741 
L 217.893392 120.968741 
L 217.893392 118.172702 
L 228.512094 118.172702 
z
" style="fill:#ff0000;"/>
   </g>
   <g id="patch_48">
    <path clip-path="url(#p68518b067e)" d="M 223.369847 93.784231 
Q 225.007973 93.784231 226.20302 95.046313 
Q 227.934826 96.858663 228.322203 101.402158 
L 226.765098 101.402158 
Q 226.478995 98.862849 225.585242 97.701734 
Q 224.691488 96.540618 223.329337 96.540618 
Q 221.71653 96.540618 220.612631 98.958767 
Q 219.508731 101.371868 219.508731 106.152634 
Q 219.508731 110.282166 220.417676 112.877006 
Q 221.329153 115.471847 223.385039 115.471847 
Q 224.959868 115.471847 225.992874 113.654449 
Q 227.025881 111.832003 227.048668 107.758002 
L 223.410357 107.758002 
L 223.410357 105.158113 
L 228.512094 105.158113 
L 228.512094 117.556806 
L 227.499343 117.556806 
L 227.119561 114.573245 
Q 226.322019 116.325014 225.70424 117.006538 
Q 224.66617 118.172702 223.068554 118.172702 
Q 221.005072 118.172702 219.516327 115.507185 
Q 217.893392 112.160144 217.893392 106.324277 
Q 217.893392 100.503555 219.475817 97.065644 
Q 220.979753 93.784231 223.369847 93.784231 
z
M 223.109064 93.748893 
L 223.109064 93.748893 
z
" style="fill:#ffa600;"/>
   </g>
   <g id="patch_49">
    <path clip-path="url(#p68518b067e)" d="M 223.476556 65.499038 
Q 225.750502 65.499038 227.004823 68.186718 
Q 228.259144 70.868556 228.397354 74.280741 
L 226.817066 74.280741 
Q 226.548469 71.692388 225.745286 70.179107 
Q 224.942103 68.659984 223.492202 68.659984 
Q 221.724157 68.659984 220.636731 71.446991 
Q 219.549305 74.228156 219.549305 79.977454 
Q 219.549305 84.69258 220.529814 87.625657 
Q 221.51293 90.552891 223.460909 90.552891 
Q 225.252424 90.552891 226.191209 87.467902 
Q 226.686679 85.843608 226.931806 83.190985 
L 228.512094 83.190985 
Q 228.300868 87.427002 227.11174 90.295808 
Q 225.685308 93.748893 223.265329 93.748893 
Q 221.17914 93.748893 219.760531 90.915143 
Q 217.893392 87.175762 217.893392 79.358119 
Q 217.893392 73.427695 219.296354 69.629886 
Q 220.811449 65.499038 223.476556 65.499038 
z
M 223.150589 65.499038 
L 223.150589 65.499038 
z
" style="fill:#0000ff;"/>
   </g>
   <g id="patch_50">
    <path clip-path="url(#p68518b067e)" d="M 225.020908 50.462904 
L 223.214407 34.251698 
L 221.293865 50.462904 
L 225.020908 50.462904 
z
M 222.372064 28.8 
L 224.194116 28.8 
L 228.512094 65.499038 
L 226.744471 65.499038 
L 225.539273 54.507712 
L 220.832521 54.507712 
L 219.544384 65.499038 
L 217.893392 65.499038 
L 222.372064 28.8 
z
M 223.206631 28.8 
L 223.206631 28.8 
z
" style="fill:#008000;"/>
   </g>
   <g id="patch_51">
    <path clip-path="url(#p68518b067e)" d="M 239.689676 116.259679 
L 239.689676 119.283647 
L 235.279707 119.283647 
L 235.279707 141.64 
L 233.480942 141.64 
L 233.480942 119.283647 
L 229.070973 119.283647 
L 229.070973 116.259679 
L 239.689676 116.259679 
z
" style="fill:#ff0000;"/>
   </g>
   <g id="patch_52">
    <path clip-path="url(#p68518b067e)" d="M 234.547429 89.960954 
Q 236.185554 89.960954 237.380602 91.32189 
Q 239.112407 93.276194 239.499785 98.175563 
L 237.942679 98.175563 
Q 237.656576 95.43736 236.762823 94.185299 
Q 235.86907 92.933238 234.506918 92.933238 
Q 232.894111 92.933238 231.790212 95.540791 
Q 230.686312 98.1429 230.686312 103.298126 
Q 230.686312 107.751108 231.595257 110.549192 
Q 232.506734 113.347277 234.56262 113.347277 
Q 236.137449 113.347277 237.170456 111.387529 
Q 238.203462 109.422337 238.226249 105.029236 
L 234.587939 105.029236 
L 234.587939 102.225708 
L 239.689676 102.225708 
L 239.689676 115.595543 
L 238.676924 115.595543 
L 238.297142 112.37829 
Q 237.4996 114.267269 236.881821 115.002175 
Q 235.843751 116.259679 234.246135 116.259679 
Q 232.182653 116.259679 230.693908 113.385383 
Q 229.070973 109.776181 229.070973 103.483213 
Q 229.070973 97.206577 230.653398 93.499387 
Q 232.157334 89.960954 234.547429 89.960954 
z
M 234.286645 89.922848 
L 234.286645 89.922848 
z
" style="fill:#ffa600;"/>
   </g>
   <g id="patch_53">
    <path clip-path="url(#p68518b067e)" d="M 234.654137 60.716482 
Q 236.928083 60.716482 238.182404 63.495164 
Q 239.436725 66.267805 239.574935 69.795524 
L 237.994647 69.795524 
Q 237.72605 67.119532 236.922867 65.555013 
Q 236.119685 63.984453 234.669783 63.984453 
Q 232.901738 63.984453 231.814312 66.865826 
Q 230.726886 69.741158 230.726886 75.685122 
Q 230.726886 80.559897 231.707395 83.592285 
Q 232.690511 86.618632 234.63849 86.618632 
Q 236.430005 86.618632 237.36879 83.429188 
Q 237.86426 81.749898 238.109387 79.007459 
L 239.689676 79.007459 
Q 239.478449 83.386904 238.289321 86.352845 
Q 236.862889 89.922848 234.44291 89.922848 
Q 232.356721 89.922848 230.938113 86.99315 
Q 229.070973 83.127157 229.070973 75.044817 
Q 229.070973 68.913594 230.473936 64.987195 
Q 231.98903 60.716482 234.654137 60.716482 
z
M 234.32817 60.716482 
L 234.32817 60.716482 
z
" style="fill:#0000ff;"/>
   </g>
   <g id="patch_54">
    <path clip-path="url(#p68518b067e)" d="M 236.198489 47.639831 
L 234.391988 33.541242 
L 232.471446 47.639831 
L 236.198489 47.639831 
z
M 233.549645 28.8 
L 235.371697 28.8 
L 239.689676 60.716482 
L 237.922052 60.716482 
L 236.716854 51.157527 
L 232.010102 51.157527 
L 230.721965 60.716482 
L 229.070973 60.716482 
L 233.549645 28.8 
z
M 234.384212 28.8 
L 234.384212 28.8 
z
" style="fill:#008000;"/>
   </g>
   <g id="patch_55">
    <path clip-path="url(#p68518b067e)" d="M 245.831718 119.129214 
Q 248.105664 119.129214 249.359985 121.270881 
Q 250.614306 123.407893 250.752516 126.126879 
L 249.172228 126.126879 
Q 248.903631 124.06436 248.100448 122.858508 
Q 247.297266 121.648001 245.847364 121.648001 
Q 244.079319 121.648001 242.991893 123.868817 
Q 241.904467 126.084977 241.904467 130.666283 
Q 241.904467 134.423512 242.884976 136.760723 
Q 243.868093 139.093278 245.816071 139.093278 
Q 247.607586 139.093278 248.546371 136.635016 
Q 249.041841 135.340704 249.286968 133.226972 
L 250.867257 133.226972 
Q 250.65603 136.602426 249.466902 138.888423 
Q 248.040471 141.64 245.620491 141.64 
Q 243.534302 141.64 242.115694 139.381938 
Q 240.248555 136.402227 240.248555 130.172768 
Q 240.248555 125.447132 241.651517 122.420863 
Q 243.166611 119.129214 245.831718 119.129214 
z
M 245.505751 119.129214 
L 245.505751 119.129214 
z
" style="fill:#0000ff;"/>
   </g>
   <g id="patch_56">
    <path clip-path="url(#p68518b067e)" d="M 250.867257 96.618427 
L 250.867257 99.300501 
L 246.457288 99.300501 
L 246.457288 119.129214 
L 244.658523 119.129214 
L 244.658523 99.300501 
L 240.248555 99.300501 
L 240.248555 96.618427 
L 250.867257 96.618427 
z
" style="fill:#ff0000;"/>
   </g>
   <g id="patch_57">
    <path clip-path="url(#p68518b067e)" d="M 245.72501 70.319701 
Q 247.363136 70.319701 248.558183 71.680637 
Q 250.289988 73.634941 250.677366 78.534311 
L 249.12026 78.534311 
Q 248.834158 75.796108 247.940404 74.544046 
Q 247.046651 73.291985 245.6845 73.291985 
Q 244.071692 73.291985 242.967793 75.899539 
Q 241.863894 78.501648 241.863894 83.656873 
Q 241.863894 88.109856 242.772838 90.90794 
Q 243.684315 93.706024 245.740201 93.706024 
Q 247.31503 93.706024 248.348037 91.746277 
Q 249.381043 89.781085 249.40383 85.387984 
L 245.76552 85.387984 
L 245.76552 82.584456 
L 250.867257 82.584456 
L 250.867257 95.95429 
L 249.854505 95.95429 
L 249.474723 92.737038 
Q 248.677181 94.626017 248.059402 95.360922 
Q 247.021332 96.618427 245.423716 96.618427 
Q 243.360234 96.618427 241.871489 93.74413 
Q 240.248555 90.134928 240.248555 83.841961 
Q 240.248555 77.565324 241.830979 73.858135 
Q 243.334916 70.319701 245.72501 70.319701 
z
M 245.464226 70.281595 
L 245.464226 70.281595 
z
" style="fill:#ffa600;"/>
   </g>
   <g id="patch_58">
    <path clip-path="url(#p68518b067e)" d="M 247.37607 53.285978 
L 245.569569 34.962154 
L 243.649027 53.285978 
L 247.37607 53.285978 
z
M 244.727226 28.8 
L 246.549278 28.8 
L 250.867257 70.281595 
L 249.099633 70.281595 
L 247.894435 57.857898 
L 243.187683 57.857898 
L 241.899546 70.281595 
L 240.248555 70.281595 
L 244.727226 28.8 
z
M 245.561793 28.8 
L 245.561793 28.8 
z
" style="fill:#008000;"/>
   </g>
   <g id="patch_59">
    <path clip-path="url(#p68518b067e)" d="M 256.902591 122.027166 
Q 258.540717 122.027166 259.735764 123.042113 
Q 261.467569 124.499577 261.854947 128.153386 
L 260.297841 128.153386 
Q 260.011739 126.111312 259.117985 125.177561 
Q 258.224232 124.24381 256.862081 124.24381 
Q 255.249274 124.24381 254.145374 126.188448 
Q 253.041475 128.129027 253.041475 131.973646 
Q 253.041475 135.294552 253.950419 137.381283 
Q 254.861896 139.468014 256.917782 139.468014 
Q 258.492611 139.468014 259.525618 138.00649 
Q 260.558625 136.540907 260.581411 133.264658 
L 256.943101 133.264658 
L 256.943101 131.173868 
L 262.044838 131.173868 
L 262.044838 141.144706 
L 261.032086 141.144706 
L 260.652304 138.745371 
Q 259.854762 140.154118 259.236984 140.702189 
Q 258.198913 141.64 256.601297 141.64 
Q 254.537815 141.64 253.04907 139.496432 
Q 251.426136 136.804793 251.426136 132.111679 
Q 251.426136 127.430743 253.00856 124.666028 
Q 254.512497 122.027166 256.902591 122.027166 
z
M 256.641807 121.998748 
L 256.641807 121.998748 
z
" style="fill:#ffa600;"/>
   </g>
   <g id="patch_60">
    <path clip-path="url(#p68518b067e)" d="M 262.044838 99.487961 
L 262.044838 102.170035 
L 257.634869 102.170035 
L 257.634869 121.998748 
L 255.836104 121.998748 
L 255.836104 102.170035 
L 251.426136 102.170035 
L 251.426136 99.487961 
L 262.044838 99.487961 
z
" style="fill:#ff0000;"/>
   </g>
   <g id="patch_61">
    <path clip-path="url(#p68518b067e)" d="M 257.009299 73.151129 
Q 259.283245 73.151129 260.537566 75.656805 
Q 261.791887 78.157034 261.930097 81.338153 
L 260.349809 81.338153 
Q 260.081212 78.925078 259.27803 77.514274 
Q 258.474847 76.098022 257.024945 76.098022 
Q 255.2569 76.098022 254.169474 78.696299 
Q 253.082048 81.289129 253.082048 86.649096 
Q 253.082048 91.044923 254.062557 93.779378 
Q 255.045674 96.508386 256.993653 96.508386 
Q 258.785167 96.508386 259.723952 93.632306 
Q 260.219422 92.118006 260.46455 89.645013 
L 262.044838 89.645013 
Q 261.833611 93.594176 260.644483 96.268712 
Q 259.218052 99.487961 256.798072 99.487961 
Q 254.711883 99.487961 253.293275 96.846107 
Q 251.426136 93.35995 251.426136 86.071701 
Q 251.426136 80.542873 252.829098 77.002244 
Q 254.344193 73.151129 257.009299 73.151129 
z
M 256.683332 73.151129 
L 256.683332 73.151129 
z
" style="fill:#0000ff;"/>
   </g>
   <g id="patch_62">
    <path clip-path="url(#p68518b067e)" d="M 258.553651 54.979821 
L 256.74715 35.388427 
L 254.826609 54.979821 
L 258.553651 54.979821 
z
M 255.904807 28.8 
L 257.726859 28.8 
L 262.044838 73.151129 
L 260.277214 73.151129 
L 259.072016 59.86801 
L 254.365264 59.86801 
L 253.077127 73.151129 
L 251.426136 73.151129 
L 255.904807 28.8 
z
M 256.739374 28.8 
L 256.739374 28.8 
z
" style="fill:#008000;"/>
   </g>
   <g id="patch_63">
    <path clip-path="url(#p68518b067e)" d="M 273.222419 117.216191 
L 273.222419 120.126194 
L 268.812451 120.126194 
L 268.812451 141.64 
L 267.013685 141.64 
L 267.013685 120.126194 
L 262.603717 120.126194 
L 262.603717 117.216191 
L 273.222419 117.216191 
z
" style="fill:#ff0000;"/>
   </g>
   <g id="patch_64">
    <path clip-path="url(#p68518b067e)" d="M 268.080172 91.872593 
Q 269.718298 91.872593 270.913345 93.184101 
Q 272.64515 95.067428 273.032528 99.78886 
L 271.475422 99.78886 
Q 271.18932 97.150104 270.295566 95.943516 
Q 269.401813 94.736928 268.039662 94.736928 
Q 266.426855 94.736928 265.322955 97.249779 
Q 264.219056 99.757384 264.219056 104.72538 
Q 264.219056 109.016637 265.128001 111.713099 
Q 266.039477 114.409562 268.095363 114.409562 
Q 269.670192 114.409562 270.703199 112.520989 
Q 271.736206 110.62717 271.758993 106.393619 
L 268.120682 106.393619 
L 268.120682 103.691911 
L 273.222419 103.691911 
L 273.222419 116.576174 
L 272.209667 116.576174 
L 271.829885 113.475767 
Q 271.032343 115.296142 270.414565 116.004357 
Q 269.376494 117.216191 267.778878 117.216191 
Q 265.715397 117.216191 264.226651 114.446284 
Q 262.603717 110.968162 262.603717 104.903745 
Q 262.603717 98.855066 264.186141 95.282516 
Q 265.690078 91.872593 268.080172 91.872593 
z
M 267.819388 91.83587 
L 267.819388 91.83587 
z
" style="fill:#ffa600;"/>
   </g>
   <g id="patch_65">
    <path clip-path="url(#p68518b067e)" d="M 268.18688 60.8759 
Q 270.460826 60.8759 271.715147 63.821419 
Q 272.969468 66.760536 273.107678 70.500065 
L 271.52739 70.500065 
Q 271.258793 67.663401 270.455611 66.004946 
Q 269.652428 64.340087 268.202527 64.340087 
Q 266.434481 64.340087 265.347055 67.394463 
Q 264.259629 70.442435 264.259629 76.743285 
Q 264.259629 81.910751 265.240138 85.125209 
Q 266.223255 88.333264 268.171234 88.333264 
Q 269.962749 88.333264 270.901534 84.95232 
Q 271.397003 83.172201 271.642131 80.265102 
L 273.222419 80.265102 
Q 273.011192 84.907496 271.822065 88.051518 
Q 270.395633 91.83587 267.975654 91.83587 
Q 265.889465 91.83587 264.470856 88.730268 
Q 262.603717 84.632154 262.603717 76.064535 
Q 262.603717 69.565182 264.006679 65.403035 
Q 265.521774 60.8759 268.18688 60.8759 
z
M 267.860913 60.8759 
L 267.860913 60.8759 
z
" style="fill:#0000ff;"/>
   </g>
   <g id="patch_66">
    <path clip-path="url(#p68518b067e)" d="M 269.731232 47.733934 
L 267.924731 33.564924 
L 266.00419 47.733934 
L 269.731232 47.733934 
z
M 267.082388 28.8 
L 268.90444 28.8 
L 273.222419 60.8759 
L 271.454795 60.8759 
L 270.249597 51.269199 
L 265.542845 51.269199 
L 264.254709 60.8759 
L 262.603717 60.8759 
L 267.082388 28.8 
z
M 267.916956 28.8 
L 267.916956 28.8 
z
" style="fill:#008000;"/>
   </g>
   <g id="patch_67">
    <path clip-path="url(#p68518b067e)" d="M 284.4 117.375609 
L 284.4 120.266618 
L 279.990032 120.266618 
L 279.990032 141.64 
L 278.191266 141.64 
L 278.191266 120.266618 
L 273.781298 120.266618 
L 273.781298 117.375609 
L 284.4 117.375609 
z
" style="fill:#ff0000;"/>
   </g>
   <g id="patch_68">
    <path clip-path="url(#p68518b067e)" d="M 280.908813 106.193127 
L 279.102312 94.136734 
L 277.181771 106.193127 
L 280.908813 106.193127 
z
M 278.259969 90.082266 
L 280.082022 90.082266 
L 284.4 117.375609 
L 282.632376 117.375609 
L 281.427178 109.20128 
L 276.720426 109.20128 
L 275.43229 117.375609 
L 273.781298 117.375609 
L 278.259969 90.082266 
z
M 279.094537 90.082266 
L 279.094537 90.082266 
z
" style="fill:#008000;"/>
   </g>
   <g id="patch_69">
    <path clip-path="url(#p68518b067e)" d="M 279.257753 60.918158 
Q 280.895879 60.918158 282.090926 62.427375 
Q 283.822732 64.594611 284.210109 70.027792 
L 282.653003 70.027792 
Q 282.366901 66.991247 281.473147 65.602768 
Q 280.579394 64.214288 279.217243 64.214288 
Q 277.604436 64.214288 276.500536 67.105948 
Q 275.396637 69.99157 275.396637 75.708484 
Q 275.396637 80.646642 276.305582 83.749592 
Q 277.217058 86.852542 279.272944 86.852542 
Q 280.847773 86.852542 281.88078 84.67927 
Q 282.913787 82.49996 282.936574 77.628208 
L 279.298263 77.628208 
L 279.298263 74.519221 
L 284.4 74.519221 
L 284.4 89.345768 
L 283.387248 89.345768 
L 283.007466 85.777979 
Q 282.209924 87.872773 281.592146 88.68775 
Q 280.554075 90.082266 278.956459 90.082266 
Q 276.892978 90.082266 275.404233 86.8948 
Q 273.781298 82.892357 273.781298 75.913738 
Q 273.781298 68.953229 275.363723 64.842122 
Q 276.867659 60.918158 279.257753 60.918158 
z
M 278.996969 60.8759 
L 278.996969 60.8759 
z
" style="fill:#ffa600;"/>
   </g>
   <g id="patch_70">
    <path clip-path="url(#p68518b067e)" d="M 279.364461 28.8 
Q 281.638407 28.8 282.892728 31.851689 
Q 284.14705 34.896743 284.28526 38.771061 
L 282.704971 38.771061 
Q 282.436375 35.832152 281.633192 34.113919 
Q 280.830009 32.389051 279.380108 32.389051 
Q 277.612063 32.389051 276.524636 35.553519 
Q 275.43721 38.711354 275.43721 45.239313 
Q 275.43721 50.593037 276.417719 53.923358 
Q 277.400836 57.247044 279.348815 57.247044 
Q 281.14033 57.247044 282.079115 53.744237 
Q 282.574585 51.899955 282.819712 48.888071 
L 284.4 48.888071 
Q 284.188773 53.697798 282.999646 56.955144 
Q 281.573214 60.8759 279.153235 60.8759 
Q 277.067046 60.8759 275.648437 57.658359 
Q 273.781298 53.412531 273.781298 44.536098 
Q 273.781298 37.802481 275.18426 33.490313 
Q 276.699355 28.8 279.364461 28.8 
z
M 279.038494 28.8 
L 279.038494 28.8 
z
" style="fill:#0000ff;"/>
   </g>
   <g id="matplotlib.axis_1">
    <g id="xtick_1">
     <g id="text_1">
      <!-- 0 -->
      <g style="fill:#262626;" transform="translate(94.688414 162.986875)scale(0.2 -0.2)">
       <defs>
        <path d="M 1731 4475 
Q 2600 4475 2988 3759 
Q 3288 3206 3288 2244 
Q 3288 1331 3016 734 
Q 2622 -122 1728 -122 
Q 922 -122 528 578 
Q 200 1163 200 2147 
Q 200 2909 397 3456 
Q 766 4475 1731 4475 
z
M 1725 391 
Q 2163 391 2422 778 
Q 2681 1166 2681 2222 
Q 2681 2984 2493 3476 
Q 2306 3969 1766 3969 
Q 1269 3969 1039 3501 
Q 809 3034 809 2125 
Q 809 1441 956 1025 
Q 1181 391 1725 391 
z
" id="Helvetica-30" transform="scale(0.015625)"/>
       </defs>
       <use xlink:href="#Helvetica-30"/>
      </g>
     </g>
    </g>
    <g id="xtick_2">
     <g id="text_2">
      <!-- 10 -->
      <g style="fill:#262626;" transform="translate(200.903287 162.986875)scale(0.2 -0.2)">
       <defs>
        <path d="M 613 3169 
L 613 3600 
Q 1222 3659 1462 3798 
Q 1703 3938 1822 4456 
L 2266 4456 
L 2266 0 
L 1666 0 
L 1666 3169 
L 613 3169 
z
" id="Helvetica-31" transform="scale(0.015625)"/>
       </defs>
       <use xlink:href="#Helvetica-31"/>
       <use x="55.615234" xlink:href="#Helvetica-30"/>
      </g>
     </g>
    </g>
    <g id="text_3">
     <!-- Position -->
     <g style="fill:#262626;" transform="translate(145.20125 189.089219)scale(0.25 -0.25)">
      <defs>
       <path d="M 547 4591 
L 2613 4591 
Q 3225 4591 3600 4245 
Q 3975 3900 3975 3275 
Q 3975 2738 3640 2339 
Q 3306 1941 2613 1941 
L 1169 1941 
L 1169 0 
L 547 0 
L 547 4591 
z
M 3347 3272 
Q 3347 3778 2972 3959 
Q 2766 4056 2406 4056 
L 1169 4056 
L 1169 2466 
L 2406 2466 
Q 2825 2466 3086 2644 
Q 3347 2822 3347 3272 
z
" id="Helvetica-50" transform="scale(0.015625)"/>
       <path d="M 1741 363 
Q 2300 363 2508 786 
Q 2716 1209 2716 1728 
Q 2716 2197 2566 2491 
Q 2328 2953 1747 2953 
Q 1231 2953 997 2559 
Q 763 2166 763 1609 
Q 763 1075 997 719 
Q 1231 363 1741 363 
z
M 1763 3444 
Q 2409 3444 2856 3012 
Q 3303 2581 3303 1744 
Q 3303 934 2909 406 
Q 2516 -122 1688 -122 
Q 997 -122 590 345 
Q 184 813 184 1600 
Q 184 2444 612 2944 
Q 1041 3444 1763 3444 
z
M 1744 3428 
L 1744 3428 
z
" id="Helvetica-6f" transform="scale(0.015625)"/>
       <path d="M 747 1050 
Q 772 769 888 619 
Q 1100 347 1625 347 
Q 1938 347 2175 483 
Q 2413 619 2413 903 
Q 2413 1119 2222 1231 
Q 2100 1300 1741 1391 
L 1294 1503 
Q 866 1609 663 1741 
Q 300 1969 300 2372 
Q 300 2847 642 3140 
Q 984 3434 1563 3434 
Q 2319 3434 2653 2991 
Q 2863 2709 2856 2384 
L 2325 2384 
Q 2309 2575 2191 2731 
Q 1997 2953 1519 2953 
Q 1200 2953 1036 2831 
Q 872 2709 872 2509 
Q 872 2291 1088 2159 
Q 1213 2081 1456 2022 
L 1828 1931 
Q 2434 1784 2641 1647 
Q 2969 1431 2969 969 
Q 2969 522 2630 197 
Q 2291 -128 1597 -128 
Q 850 -128 539 211 
Q 228 550 206 1050 
L 747 1050 
z
M 1578 3428 
L 1578 3428 
z
" id="Helvetica-73" transform="scale(0.015625)"/>
       <path d="M 413 3331 
L 984 3331 
L 984 0 
L 413 0 
L 413 3331 
z
M 413 4591 
L 984 4591 
L 984 3953 
L 413 3953 
L 413 4591 
z
" id="Helvetica-69" transform="scale(0.015625)"/>
       <path d="M 525 4281 
L 1094 4281 
L 1094 3347 
L 1628 3347 
L 1628 2888 
L 1094 2888 
L 1094 703 
Q 1094 528 1213 469 
Q 1278 434 1431 434 
Q 1472 434 1519 436 
Q 1566 438 1628 444 
L 1628 0 
Q 1531 -28 1426 -40 
Q 1322 -53 1200 -53 
Q 806 -53 665 148 
Q 525 350 525 672 
L 525 2888 
L 72 2888 
L 72 3347 
L 525 3347 
L 525 4281 
z
" id="Helvetica-74" transform="scale(0.015625)"/>
       <path d="M 413 3347 
L 947 3347 
L 947 2872 
Q 1184 3166 1450 3294 
Q 1716 3422 2041 3422 
Q 2753 3422 3003 2925 
Q 3141 2653 3141 2147 
L 3141 0 
L 2569 0 
L 2569 2109 
Q 2569 2416 2478 2603 
Q 2328 2916 1934 2916 
Q 1734 2916 1606 2875 
Q 1375 2806 1200 2600 
Q 1059 2434 1017 2257 
Q 975 2081 975 1753 
L 975 0 
L 413 0 
L 413 3347 
z
M 1734 3428 
L 1734 3428 
z
" id="Helvetica-6e" transform="scale(0.015625)"/>
      </defs>
      <use xlink:href="#Helvetica-50"/>
      <use x="66.699219" xlink:href="#Helvetica-6f"/>
      <use x="122.314453" xlink:href="#Helvetica-73"/>
      <use x="172.314453" xlink:href="#Helvetica-69"/>
      <use x="194.53125" xlink:href="#Helvetica-74"/>
      <use x="222.314453" xlink:href="#Helvetica-69"/>
      <use x="244.53125" xlink:href="#Helvetica-6f"/>
      <use x="300.146484" xlink:href="#Helvetica-6e"/>
     </g>
    </g>
   </g>
   <g id="matplotlib.axis_2">
    <g id="ytick_1">
     <g id="text_4">
      <!-- 0 -->
      <g style="fill:#262626;" transform="translate(76.818125 148.813438)scale(0.2 -0.2)">
       <use xlink:href="#Helvetica-30"/>
      </g>
     </g>
    </g>
    <g id="ytick_2">
     <g id="text_5">
      <!-- 0.25 -->
      <g style="fill:#262626;" transform="translate(49.018125 120.603437)scale(0.2 -0.2)">
       <defs>
        <path d="M 547 681 
L 1200 681 
L 1200 0 
L 547 0 
L 547 681 
z
" id="Helvetica-2e" transform="scale(0.015625)"/>
        <path d="M 200 0 
Q 231 578 439 1006 
Q 647 1434 1250 1784 
L 1850 2131 
Q 2253 2366 2416 2531 
Q 2672 2791 2672 3125 
Q 2672 3516 2437 3745 
Q 2203 3975 1813 3975 
Q 1234 3975 1013 3538 
Q 894 3303 881 2888 
L 309 2888 
Q 319 3472 525 3841 
Q 891 4491 1816 4491 
Q 2584 4491 2939 4075 
Q 3294 3659 3294 3150 
Q 3294 2613 2916 2231 
Q 2697 2009 2131 1694 
L 1703 1456 
Q 1397 1288 1222 1134 
Q 909 863 828 531 
L 3272 531 
L 3272 0 
L 200 0 
z
" id="Helvetica-32" transform="scale(0.015625)"/>
        <path d="M 791 1141 
Q 847 659 1238 475 
Q 1438 381 1700 381 
Q 2200 381 2440 700 
Q 2681 1019 2681 1406 
Q 2681 1875 2395 2131 
Q 2109 2388 1709 2388 
Q 1419 2388 1211 2275 
Q 1003 2163 856 1963 
L 369 1991 
L 709 4400 
L 3034 4400 
L 3034 3856 
L 1131 3856 
L 941 2613 
Q 1097 2731 1238 2791 
Q 1488 2894 1816 2894 
Q 2431 2894 2859 2497 
Q 3288 2100 3288 1491 
Q 3288 856 2895 371 
Q 2503 -113 1644 -113 
Q 1097 -113 676 195 
Q 256 503 206 1141 
L 791 1141 
z
" id="Helvetica-35" transform="scale(0.015625)"/>
       </defs>
       <use xlink:href="#Helvetica-30"/>
       <use x="55.615234" xlink:href="#Helvetica-2e"/>
       <use x="83.398438" xlink:href="#Helvetica-32"/>
       <use x="139.013672" xlink:href="#Helvetica-35"/>
      </g>
     </g>
    </g>
    <g id="ytick_3">
     <g id="text_6">
      <!-- 0.50 -->
      <g style="fill:#262626;" transform="translate(49.018125 92.393438)scale(0.2 -0.2)">
       <use xlink:href="#Helvetica-30"/>
       <use x="55.615234" xlink:href="#Helvetica-2e"/>
       <use x="83.398438" xlink:href="#Helvetica-35"/>
       <use x="139.013672" xlink:href="#Helvetica-30"/>
      </g>
     </g>
    </g>
    <g id="ytick_4">
     <g id="text_7">
      <!-- 0.75 -->
      <g style="fill:#262626;" transform="translate(49.018125 64.183437)scale(0.2 -0.2)">
       <defs>
        <path d="M 3347 4400 
L 3347 3909 
Q 3131 3700 2773 3181 
Q 2416 2663 2141 2063 
Q 1869 1478 1728 997 
Q 1638 688 1494 0 
L 872 0 
Q 1084 1281 1809 2550 
Q 2238 3294 2709 3834 
L 234 3834 
L 234 4400 
L 3347 4400 
z
" id="Helvetica-37" transform="scale(0.015625)"/>
       </defs>
       <use xlink:href="#Helvetica-30"/>
       <use x="55.615234" xlink:href="#Helvetica-2e"/>
       <use x="83.398438" xlink:href="#Helvetica-37"/>
       <use x="139.013672" xlink:href="#Helvetica-35"/>
      </g>
     </g>
    </g>
    <g id="ytick_5">
     <g id="text_8">
      <!-- 1.0 -->
      <g style="fill:#262626;" transform="translate(60.14 35.973437)scale(0.2 -0.2)">
       <use xlink:href="#Helvetica-31"/>
       <use x="55.615234" xlink:href="#Helvetica-2e"/>
       <use x="83.398438" xlink:href="#Helvetica-30"/>
      </g>
     </g>
    </g>
    <g id="text_9">
     <!-- Probability -->
     <g style="fill:#262626;" transform="translate(39.65875 143.579375)rotate(-90)scale(0.25 -0.25)">
      <defs>
       <path d="M 428 3347 
L 963 3347 
L 963 2769 
Q 1028 2938 1284 3180 
Q 1541 3422 1875 3422 
Q 1891 3422 1928 3419 
Q 1966 3416 2056 3406 
L 2056 2813 
Q 2006 2822 1964 2825 
Q 1922 2828 1872 2828 
Q 1447 2828 1219 2554 
Q 991 2281 991 1925 
L 991 0 
L 428 0 
L 428 3347 
z
" id="Helvetica-72" transform="scale(0.015625)"/>
       <path d="M 369 4606 
L 916 4606 
L 916 2941 
Q 1100 3181 1356 3307 
Q 1613 3434 1913 3434 
Q 2538 3434 2927 3004 
Q 3316 2575 3316 1738 
Q 3316 944 2931 419 
Q 2547 -106 1866 -106 
Q 1484 -106 1222 78 
Q 1066 188 888 428 
L 888 0 
L 369 0 
L 369 4606 
z
M 1831 391 
Q 2288 391 2514 753 
Q 2741 1116 2741 1709 
Q 2741 2238 2514 2584 
Q 2288 2931 1847 2931 
Q 1463 2931 1173 2647 
Q 884 2363 884 1709 
Q 884 1238 1003 944 
Q 1225 391 1831 391 
z
" id="Helvetica-62" transform="scale(0.015625)"/>
       <path d="M 844 891 
Q 844 647 1022 506 
Q 1200 366 1444 366 
Q 1741 366 2019 503 
Q 2488 731 2488 1250 
L 2488 1703 
Q 2384 1638 2221 1594 
Q 2059 1550 1903 1531 
L 1563 1488 
Q 1256 1447 1103 1359 
Q 844 1213 844 891 
z
M 2206 2028 
Q 2400 2053 2466 2191 
Q 2503 2266 2503 2406 
Q 2503 2694 2298 2823 
Q 2094 2953 1713 2953 
Q 1272 2953 1088 2716 
Q 984 2584 953 2325 
L 428 2325 
Q 444 2944 830 3186 
Q 1216 3428 1725 3428 
Q 2316 3428 2684 3203 
Q 3050 2978 3050 2503 
L 3050 575 
Q 3050 488 3086 434 
Q 3122 381 3238 381 
Q 3275 381 3322 386 
Q 3369 391 3422 400 
L 3422 -16 
Q 3291 -53 3222 -62 
Q 3153 -72 3034 -72 
Q 2744 -72 2613 134 
Q 2544 244 2516 444 
Q 2344 219 2022 53 
Q 1700 -113 1313 -113 
Q 847 -113 551 170 
Q 256 453 256 878 
Q 256 1344 547 1600 
Q 838 1856 1309 1916 
L 2206 2028 
z
M 1741 3428 
L 1741 3428 
z
" id="Helvetica-61" transform="scale(0.015625)"/>
       <path d="M 428 4591 
L 991 4591 
L 991 0 
L 428 0 
L 428 4591 
z
" id="Helvetica-6c" transform="scale(0.015625)"/>
       <path d="M 2503 3347 
L 3125 3347 
Q 3006 3025 2597 1878 
Q 2291 1016 2084 472 
Q 1597 -809 1397 -1090 
Q 1197 -1372 709 -1372 
Q 591 -1372 527 -1362 
Q 463 -1353 369 -1328 
L 369 -816 
Q 516 -856 581 -865 
Q 647 -875 697 -875 
Q 853 -875 926 -823 
Q 1000 -772 1050 -697 
Q 1066 -672 1162 -440 
Q 1259 -209 1303 -97 
L 66 3347 
L 703 3347 
L 1600 622 
L 2503 3347 
z
M 1597 3428 
L 1597 3428 
z
" id="Helvetica-79" transform="scale(0.015625)"/>
      </defs>
      <use xlink:href="#Helvetica-50"/>
      <use x="66.699219" xlink:href="#Helvetica-72"/>
      <use x="100" xlink:href="#Helvetica-6f"/>
      <use x="155.615234" xlink:href="#Helvetica-62"/>
      <use x="211.230469" xlink:href="#Helvetica-61"/>
      <use x="266.845703" xlink:href="#Helvetica-62"/>
      <use x="322.460938" xlink:href="#Helvetica-69"/>
      <use x="344.677734" xlink:href="#Helvetica-6c"/>
      <use x="366.894531" xlink:href="#Helvetica-69"/>
      <use x="389.111328" xlink:href="#Helvetica-74"/>
      <use x="416.894531" xlink:href="#Helvetica-79"/>
     </g>
    </g>
   </g>
   <g id="patch_71">
    <path d="M 94.94 141.64 
L 94.94 28.8 
" style="fill:none;stroke:#000000;stroke-linecap:square;stroke-linejoin:miter;"/>
   </g>
  </g>
 </g>
 <defs>
  <clipPath id="p68518b067e">
   <rect height="112.84" width="189.46" x="94.94" y="28.8"/>
  </clipPath>
 </defs>
</svg>
