<?xml version="1.0" encoding="utf-8" standalone="no"?>
<!DOCTYPE svg PUBLIC "-//W3C//DTD SVG 1.1//EN"
  "http://www.w3.org/Graphics/SVG/1.1/DTD/svg11.dtd">
<svg height="144pt" version="1.1" viewBox="0 0 144 144" width="144pt" xmlns="http://www.w3.org/2000/svg" xmlns:xlink="http://www.w3.org/1999/xlink">
 <metadata>
  <rdf:RDF xmlns:cc="http://creativecommons.org/ns#" xmlns:dc="http://purl.org/dc/elements/1.1/" xmlns:rdf="http://www.w3.org/1999/02/22-rdf-syntax-ns#">
   <cc:Work>
    <dc:type rdf:resource="http://purl.org/dc/dcmitype/StillImage"/>
    <dc:date>2022-12-28T16:23:33.483937</dc:date>
    <dc:format>image/svg+xml</dc:format>
    <dc:creator>
     <cc:Agent>
      <dc:title>Matplotlib v3.4.2, https://matplotlib.org/</dc:title>
     </cc:Agent>
    </dc:creator>
   </cc:Work>
  </rdf:RDF>
 </metadata>
 <defs>
  <style type="text/css">*{stroke-linecap:butt;stroke-linejoin:round;}</style>
 </defs>
 <g id="figure_1">
  <g id="patch_1">
   <path d="M 0 144 
L 144 144 
L 144 0 
L 0 0 
z
" style="fill:#ffffff;"/>
  </g>
  <g id="axes_1">
   <g id="patch_2">
    <path d="M 18 128.16 
L 129.6 128.16 
L 129.6 17.28 
L 18 17.28 
z
" style="fill:#ffffff;"/>
   </g>
   <g id="matplotlib.axis_1">
    <g id="xtick_1">
     <g id="text_1">
      <!-- Original -->
      <g style="fill:#262626;" transform="translate(51.08125 204.0725)rotate(-90)scale(0.2 -0.2)">
       <defs>
        <path d="M 309 2231 
Q 309 3372 921 4017 
Q 1534 4663 2503 4663 
Q 3138 4663 3647 4359 
Q 4156 4056 4423 3514 
Q 4691 2972 4691 2284 
Q 4691 1588 4409 1038 
Q 4128 488 3612 205 
Q 3097 -78 2500 -78 
Q 1853 -78 1343 234 
Q 834 547 571 1087 
Q 309 1628 309 2231 
z
M 934 2222 
Q 934 1394 1379 917 
Q 1825 441 2497 441 
Q 3181 441 3623 922 
Q 4066 1403 4066 2288 
Q 4066 2847 3877 3264 
Q 3688 3681 3323 3911 
Q 2959 4141 2506 4141 
Q 1863 4141 1398 3698 
Q 934 3256 934 2222 
z
" id="ArialMT-4f" transform="scale(0.015625)"/>
        <path d="M 416 0 
L 416 3319 
L 922 3319 
L 922 2816 
Q 1116 3169 1280 3281 
Q 1444 3394 1641 3394 
Q 1925 3394 2219 3213 
L 2025 2691 
Q 1819 2813 1613 2813 
Q 1428 2813 1281 2702 
Q 1134 2591 1072 2394 
Q 978 2094 978 1738 
L 978 0 
L 416 0 
z
" id="ArialMT-72" transform="scale(0.015625)"/>
        <path d="M 425 3934 
L 425 4581 
L 988 4581 
L 988 3934 
L 425 3934 
z
M 425 0 
L 425 3319 
L 988 3319 
L 988 0 
L 425 0 
z
" id="ArialMT-69" transform="scale(0.015625)"/>
        <path d="M 319 -275 
L 866 -356 
Q 900 -609 1056 -725 
Q 1266 -881 1628 -881 
Q 2019 -881 2231 -725 
Q 2444 -569 2519 -288 
Q 2563 -116 2559 434 
Q 2191 0 1641 0 
Q 956 0 581 494 
Q 206 988 206 1678 
Q 206 2153 378 2554 
Q 550 2956 876 3175 
Q 1203 3394 1644 3394 
Q 2231 3394 2613 2919 
L 2613 3319 
L 3131 3319 
L 3131 450 
Q 3131 -325 2973 -648 
Q 2816 -972 2473 -1159 
Q 2131 -1347 1631 -1347 
Q 1038 -1347 672 -1080 
Q 306 -813 319 -275 
z
M 784 1719 
Q 784 1066 1043 766 
Q 1303 466 1694 466 
Q 2081 466 2343 764 
Q 2606 1063 2606 1700 
Q 2606 2309 2336 2618 
Q 2066 2928 1684 2928 
Q 1309 2928 1046 2623 
Q 784 2319 784 1719 
z
" id="ArialMT-67" transform="scale(0.015625)"/>
        <path d="M 422 0 
L 422 3319 
L 928 3319 
L 928 2847 
Q 1294 3394 1984 3394 
Q 2284 3394 2536 3286 
Q 2788 3178 2913 3003 
Q 3038 2828 3088 2588 
Q 3119 2431 3119 2041 
L 3119 0 
L 2556 0 
L 2556 2019 
Q 2556 2363 2490 2533 
Q 2425 2703 2258 2804 
Q 2091 2906 1866 2906 
Q 1506 2906 1245 2678 
Q 984 2450 984 1813 
L 984 0 
L 422 0 
z
" id="ArialMT-6e" transform="scale(0.015625)"/>
        <path d="M 2588 409 
Q 2275 144 1986 34 
Q 1697 -75 1366 -75 
Q 819 -75 525 192 
Q 231 459 231 875 
Q 231 1119 342 1320 
Q 453 1522 633 1644 
Q 813 1766 1038 1828 
Q 1203 1872 1538 1913 
Q 2219 1994 2541 2106 
Q 2544 2222 2544 2253 
Q 2544 2597 2384 2738 
Q 2169 2928 1744 2928 
Q 1347 2928 1158 2789 
Q 969 2650 878 2297 
L 328 2372 
Q 403 2725 575 2942 
Q 747 3159 1072 3276 
Q 1397 3394 1825 3394 
Q 2250 3394 2515 3294 
Q 2781 3194 2906 3042 
Q 3031 2891 3081 2659 
Q 3109 2516 3109 2141 
L 3109 1391 
Q 3109 606 3145 398 
Q 3181 191 3288 0 
L 2700 0 
Q 2613 175 2588 409 
z
M 2541 1666 
Q 2234 1541 1622 1453 
Q 1275 1403 1131 1340 
Q 988 1278 909 1158 
Q 831 1038 831 891 
Q 831 666 1001 516 
Q 1172 366 1500 366 
Q 1825 366 2078 508 
Q 2331 650 2450 897 
Q 2541 1088 2541 1459 
L 2541 1666 
z
" id="ArialMT-61" transform="scale(0.015625)"/>
        <path d="M 409 0 
L 409 4581 
L 972 4581 
L 972 0 
L 409 0 
z
" id="ArialMT-6c" transform="scale(0.015625)"/>
       </defs>
       <use xlink:href="#ArialMT-4f"/>
       <use x="77.783203" xlink:href="#ArialMT-72"/>
       <use x="111.083984" xlink:href="#ArialMT-69"/>
       <use x="133.300781" xlink:href="#ArialMT-67"/>
       <use x="188.916016" xlink:href="#ArialMT-69"/>
       <use x="211.132812" xlink:href="#ArialMT-6e"/>
       <use x="266.748047" xlink:href="#ArialMT-61"/>
       <use x="322.363281" xlink:href="#ArialMT-6c"/>
      </g>
     </g>
    </g>
    <g id="xtick_2">
     <g id="text_2">
      <!-- Mutated -->
      <g style="fill:#262626;" transform="translate(106.870312 207.419375)rotate(-90)scale(0.2 -0.2)">
       <defs>
        <path d="M 475 0 
L 475 4581 
L 1388 4581 
L 2472 1338 
Q 2622 884 2691 659 
Q 2769 909 2934 1394 
L 4031 4581 
L 4847 4581 
L 4847 0 
L 4263 0 
L 4263 3834 
L 2931 0 
L 2384 0 
L 1059 3900 
L 1059 0 
L 475 0 
z
" id="ArialMT-4d" transform="scale(0.015625)"/>
        <path d="M 2597 0 
L 2597 488 
Q 2209 -75 1544 -75 
Q 1250 -75 995 37 
Q 741 150 617 320 
Q 494 491 444 738 
Q 409 903 409 1263 
L 409 3319 
L 972 3319 
L 972 1478 
Q 972 1038 1006 884 
Q 1059 663 1231 536 
Q 1403 409 1656 409 
Q 1909 409 2131 539 
Q 2353 669 2445 892 
Q 2538 1116 2538 1541 
L 2538 3319 
L 3100 3319 
L 3100 0 
L 2597 0 
z
" id="ArialMT-75" transform="scale(0.015625)"/>
        <path d="M 1650 503 
L 1731 6 
Q 1494 -44 1306 -44 
Q 1000 -44 831 53 
Q 663 150 594 308 
Q 525 466 525 972 
L 525 2881 
L 113 2881 
L 113 3319 
L 525 3319 
L 525 4141 
L 1084 4478 
L 1084 3319 
L 1650 3319 
L 1650 2881 
L 1084 2881 
L 1084 941 
Q 1084 700 1114 631 
Q 1144 563 1211 522 
Q 1278 481 1403 481 
Q 1497 481 1650 503 
z
" id="ArialMT-74" transform="scale(0.015625)"/>
        <path d="M 2694 1069 
L 3275 997 
Q 3138 488 2766 206 
Q 2394 -75 1816 -75 
Q 1088 -75 661 373 
Q 234 822 234 1631 
Q 234 2469 665 2931 
Q 1097 3394 1784 3394 
Q 2450 3394 2872 2941 
Q 3294 2488 3294 1666 
Q 3294 1616 3291 1516 
L 816 1516 
Q 847 969 1125 678 
Q 1403 388 1819 388 
Q 2128 388 2347 550 
Q 2566 713 2694 1069 
z
M 847 1978 
L 2700 1978 
Q 2663 2397 2488 2606 
Q 2219 2931 1791 2931 
Q 1403 2931 1139 2672 
Q 875 2413 847 1978 
z
" id="ArialMT-65" transform="scale(0.015625)"/>
        <path d="M 2575 0 
L 2575 419 
Q 2259 -75 1647 -75 
Q 1250 -75 917 144 
Q 584 363 401 755 
Q 219 1147 219 1656 
Q 219 2153 384 2558 
Q 550 2963 881 3178 
Q 1213 3394 1622 3394 
Q 1922 3394 2156 3267 
Q 2391 3141 2538 2938 
L 2538 4581 
L 3097 4581 
L 3097 0 
L 2575 0 
z
M 797 1656 
Q 797 1019 1065 703 
Q 1334 388 1700 388 
Q 2069 388 2326 689 
Q 2584 991 2584 1609 
Q 2584 2291 2321 2609 
Q 2059 2928 1675 2928 
Q 1300 2928 1048 2622 
Q 797 2316 797 1656 
z
" id="ArialMT-64" transform="scale(0.015625)"/>
       </defs>
       <use xlink:href="#ArialMT-4d"/>
       <use x="83.300781" xlink:href="#ArialMT-75"/>
       <use x="138.916016" xlink:href="#ArialMT-74"/>
       <use x="166.699219" xlink:href="#ArialMT-61"/>
       <use x="222.314453" xlink:href="#ArialMT-74"/>
       <use x="250.097656" xlink:href="#ArialMT-65"/>
       <use x="305.712891" xlink:href="#ArialMT-64"/>
      </g>
     </g>
    </g>
    <g id="text_3">
     <!-- Method -->
     <g style="fill:#262626;" transform="translate(40.448437 225.735)scale(0.2 -0.2)">
      <defs>
       <path d="M 422 0 
L 422 4581 
L 984 4581 
L 984 2938 
Q 1378 3394 1978 3394 
Q 2347 3394 2619 3248 
Q 2891 3103 3008 2847 
Q 3125 2591 3125 2103 
L 3125 0 
L 2563 0 
L 2563 2103 
Q 2563 2525 2380 2717 
Q 2197 2909 1863 2909 
Q 1613 2909 1392 2779 
Q 1172 2650 1078 2428 
Q 984 2206 984 1816 
L 984 0 
L 422 0 
z
" id="ArialMT-68" transform="scale(0.015625)"/>
       <path d="M 213 1659 
Q 213 2581 725 3025 
Q 1153 3394 1769 3394 
Q 2453 3394 2887 2945 
Q 3322 2497 3322 1706 
Q 3322 1066 3130 698 
Q 2938 331 2570 128 
Q 2203 -75 1769 -75 
Q 1072 -75 642 372 
Q 213 819 213 1659 
z
M 791 1659 
Q 791 1022 1069 705 
Q 1347 388 1769 388 
Q 2188 388 2466 706 
Q 2744 1025 2744 1678 
Q 2744 2294 2464 2611 
Q 2184 2928 1769 2928 
Q 1347 2928 1069 2612 
Q 791 2297 791 1659 
z
" id="ArialMT-6f" transform="scale(0.015625)"/>
      </defs>
      <use xlink:href="#ArialMT-4d"/>
      <use x="83.300781" xlink:href="#ArialMT-65"/>
      <use x="138.916016" xlink:href="#ArialMT-74"/>
      <use x="166.699219" xlink:href="#ArialMT-68"/>
      <use x="222.314453" xlink:href="#ArialMT-6f"/>
      <use x="277.929688" xlink:href="#ArialMT-64"/>
     </g>
    </g>
   </g>
   <g id="matplotlib.axis_2">
    <g id="ytick_1">
     <g id="text_4">
      <!-- 0 -->
      <g style="fill:#262626;" transform="translate(-0.121875 115.619685)scale(0.2 -0.2)">
       <defs>
        <path d="M 266 2259 
Q 266 3072 433 3567 
Q 600 4063 929 4331 
Q 1259 4600 1759 4600 
Q 2128 4600 2406 4451 
Q 2684 4303 2865 4023 
Q 3047 3744 3150 3342 
Q 3253 2941 3253 2259 
Q 3253 1453 3087 958 
Q 2922 463 2592 192 
Q 2263 -78 1759 -78 
Q 1097 -78 719 397 
Q 266 969 266 2259 
z
M 844 2259 
Q 844 1131 1108 757 
Q 1372 384 1759 384 
Q 2147 384 2411 759 
Q 2675 1134 2675 2259 
Q 2675 3391 2411 3762 
Q 2147 4134 1753 4134 
Q 1366 4134 1134 3806 
Q 844 3388 844 2259 
z
" id="ArialMT-30" transform="scale(0.015625)"/>
       </defs>
       <use xlink:href="#ArialMT-30"/>
      </g>
     </g>
    </g>
    <g id="ytick_2">
     <g id="text_5">
      <!-- 2 -->
      <g style="fill:#262626;" transform="translate(-0.121875 43.929871)scale(0.2 -0.2)">
       <defs>
        <path d="M 3222 541 
L 3222 0 
L 194 0 
Q 188 203 259 391 
Q 375 700 629 1000 
Q 884 1300 1366 1694 
Q 2113 2306 2375 2664 
Q 2638 3022 2638 3341 
Q 2638 3675 2398 3904 
Q 2159 4134 1775 4134 
Q 1369 4134 1125 3890 
Q 881 3647 878 3216 
L 300 3275 
Q 359 3922 746 4261 
Q 1134 4600 1788 4600 
Q 2447 4600 2831 4234 
Q 3216 3869 3216 3328 
Q 3216 3053 3103 2787 
Q 2991 2522 2730 2228 
Q 2469 1934 1863 1422 
Q 1356 997 1212 845 
Q 1069 694 975 541 
L 3222 541 
z
" id="ArialMT-32" transform="scale(0.015625)"/>
       </defs>
       <use xlink:href="#ArialMT-32"/>
      </g>
     </g>
    </g>
    <g id="text_6">
     <!-- Predictions -->
     <g style="fill:#262626;" transform="translate(-8.096875 122.185625)rotate(-90)scale(0.2 -0.2)">
      <defs>
       <path d="M 494 0 
L 494 4581 
L 2222 4581 
Q 2678 4581 2919 4538 
Q 3256 4481 3484 4323 
Q 3713 4166 3852 3881 
Q 3991 3597 3991 3256 
Q 3991 2672 3619 2267 
Q 3247 1863 2275 1863 
L 1100 1863 
L 1100 0 
L 494 0 
z
M 1100 2403 
L 2284 2403 
Q 2872 2403 3119 2622 
Q 3366 2841 3366 3238 
Q 3366 3525 3220 3729 
Q 3075 3934 2838 4000 
Q 2684 4041 2272 4041 
L 1100 4041 
L 1100 2403 
z
" id="ArialMT-50" transform="scale(0.015625)"/>
       <path d="M 2588 1216 
L 3141 1144 
Q 3050 572 2676 248 
Q 2303 -75 1759 -75 
Q 1078 -75 664 370 
Q 250 816 250 1647 
Q 250 2184 428 2587 
Q 606 2991 970 3192 
Q 1334 3394 1763 3394 
Q 2303 3394 2647 3120 
Q 2991 2847 3088 2344 
L 2541 2259 
Q 2463 2594 2264 2762 
Q 2066 2931 1784 2931 
Q 1359 2931 1093 2626 
Q 828 2322 828 1663 
Q 828 994 1084 691 
Q 1341 388 1753 388 
Q 2084 388 2306 591 
Q 2528 794 2588 1216 
z
" id="ArialMT-63" transform="scale(0.015625)"/>
       <path d="M 197 991 
L 753 1078 
Q 800 744 1014 566 
Q 1228 388 1613 388 
Q 2000 388 2187 545 
Q 2375 703 2375 916 
Q 2375 1106 2209 1216 
Q 2094 1291 1634 1406 
Q 1016 1563 777 1677 
Q 538 1791 414 1992 
Q 291 2194 291 2438 
Q 291 2659 392 2848 
Q 494 3038 669 3163 
Q 800 3259 1026 3326 
Q 1253 3394 1513 3394 
Q 1903 3394 2198 3281 
Q 2494 3169 2634 2976 
Q 2775 2784 2828 2463 
L 2278 2388 
Q 2241 2644 2061 2787 
Q 1881 2931 1553 2931 
Q 1166 2931 1000 2803 
Q 834 2675 834 2503 
Q 834 2394 903 2306 
Q 972 2216 1119 2156 
Q 1203 2125 1616 2013 
Q 2213 1853 2448 1751 
Q 2684 1650 2818 1456 
Q 2953 1263 2953 975 
Q 2953 694 2789 445 
Q 2625 197 2315 61 
Q 2006 -75 1616 -75 
Q 969 -75 630 194 
Q 291 463 197 991 
z
" id="ArialMT-73" transform="scale(0.015625)"/>
      </defs>
      <use xlink:href="#ArialMT-50"/>
      <use x="66.699219" xlink:href="#ArialMT-72"/>
      <use x="100" xlink:href="#ArialMT-65"/>
      <use x="155.615234" xlink:href="#ArialMT-64"/>
      <use x="211.230469" xlink:href="#ArialMT-69"/>
      <use x="233.447266" xlink:href="#ArialMT-63"/>
      <use x="283.447266" xlink:href="#ArialMT-74"/>
      <use x="311.230469" xlink:href="#ArialMT-69"/>
      <use x="333.447266" xlink:href="#ArialMT-6f"/>
      <use x="389.0625" xlink:href="#ArialMT-6e"/>
      <use x="444.677734" xlink:href="#ArialMT-73"/>
     </g>
    </g>
   </g>
   <g id="PolyCollection_1">
    <defs>
     <path d="M 46.102093 -59.021849 
L 45.697907 -59.021849 
L 45.620324 -59.587417 
L 45.519806 -60.152985 
L 45.392154 -60.718553 
L 45.233245 -61.284121 
L 45.039317 -61.849689 
L 44.807311 -62.415257 
L 44.535228 -62.980825 
L 44.222486 -63.546394 
L 43.870234 -64.111962 
L 43.481594 -64.67753 
L 43.061785 -65.243098 
L 42.6181 -65.808666 
L 42.159708 -66.374234 
L 41.69727 -66.939802 
L 41.242369 -67.50537 
L 40.806773 -68.070938 
L 40.401571 -68.636506 
L 40.036243 -69.202074 
L 39.717728 -69.767642 
L 39.449581 -70.33321 
L 39.231296 -70.898778 
L 39.057883 -71.464346 
L 38.919755 -72.029914 
L 38.802979 -72.595482 
L 38.689907 -73.16105 
L 38.560158 -73.726618 
L 38.391914 -74.292186 
L 38.163448 -74.857754 
L 37.854751 -75.423322 
L 37.449152 -75.98889 
L 36.934769 -76.554458 
L 36.305669 -77.120026 
L 35.562604 -77.685594 
L 34.713257 -78.251162 
L 33.771939 -78.81673 
L 32.758768 -79.382298 
L 31.698378 -79.947866 
L 30.618292 -80.513434 
L 29.547097 -81.079002 
L 28.512607 -81.64457 
L 27.540195 -82.210139 
L 26.651429 -82.775707 
L 25.863158 -83.341275 
L 25.187084 -83.906843 
L 24.629833 -84.472411 
L 24.193457 -85.037979 
L 23.876263 -85.603547 
L 23.67382 -86.169115 
L 23.58 -86.734683 
L 23.587903 -87.300251 
L 23.690562 -87.865819 
L 23.881366 -88.431387 
L 24.15418 -88.996955 
L 24.503202 -89.562523 
L 24.922631 -90.128091 
L 25.406251 -90.693659 
L 25.947028 -91.259227 
L 26.536835 -91.824795 
L 27.166358 -92.390363 
L 27.825229 -92.955931 
L 28.502363 -93.521499 
L 29.186471 -94.087067 
L 29.866656 -94.652635 
L 30.533028 -95.218203 
L 31.177247 -95.783771 
L 31.792938 -96.349339 
L 32.375959 -96.914907 
L 32.924491 -97.480475 
L 33.438997 -98.046043 
L 33.922052 -98.611611 
L 34.378081 -99.177179 
L 34.813021 -99.742747 
L 35.233926 -100.308315 
L 35.64851 -100.873883 
L 36.064644 -101.439452 
L 36.489814 -102.00502 
L 36.93057 -102.570588 
L 37.39201 -103.136156 
L 37.877337 -103.701724 
L 38.387543 -104.267292 
L 38.921266 -104.83286 
L 39.474824 -105.398428 
L 40.042452 -105.963996 
L 40.6167 -106.529564 
L 41.188967 -107.095132 
L 41.750114 -107.6607 
L 42.291096 -108.226268 
L 42.803551 -108.791836 
L 43.280313 -109.357404 
L 43.715786 -109.922972 
L 44.106183 -110.48854 
L 44.449599 -111.054108 
L 44.745945 -111.619676 
L 44.996754 -112.185244 
L 45.204893 -112.750812 
L 45.374228 -113.31638 
L 45.509259 -113.881948 
L 45.614777 -114.447516 
L 45.695569 -115.013084 
L 46.104431 -115.013084 
L 46.104431 -115.013084 
L 46.185223 -114.447516 
L 46.290741 -113.881948 
L 46.425772 -113.31638 
L 46.595107 -112.750812 
L 46.803246 -112.185244 
L 47.054055 -111.619676 
L 47.350401 -111.054108 
L 47.693817 -110.48854 
L 48.084214 -109.922972 
L 48.519687 -109.357404 
L 48.996449 -108.791836 
L 49.508904 -108.226268 
L 50.049886 -107.6607 
L 50.611033 -107.095132 
L 51.1833 -106.529564 
L 51.757548 -105.963996 
L 52.325176 -105.398428 
L 52.878734 -104.83286 
L 53.412457 -104.267292 
L 53.922663 -103.701724 
L 54.40799 -103.136156 
L 54.86943 -102.570588 
L 55.310186 -102.00502 
L 55.735356 -101.439452 
L 56.15149 -100.873883 
L 56.566074 -100.308315 
L 56.986979 -99.742747 
L 57.421919 -99.177179 
L 57.877948 -98.611611 
L 58.361003 -98.046043 
L 58.875509 -97.480475 
L 59.424041 -96.914907 
L 60.007062 -96.349339 
L 60.622753 -95.783771 
L 61.266972 -95.218203 
L 61.933344 -94.652635 
L 62.613529 -94.087067 
L 63.297637 -93.521499 
L 63.974771 -92.955931 
L 64.633642 -92.390363 
L 65.263165 -91.824795 
L 65.852972 -91.259227 
L 66.393749 -90.693659 
L 66.877369 -90.128091 
L 67.296798 -89.562523 
L 67.64582 -88.996955 
L 67.918634 -88.431387 
L 68.109438 -87.865819 
L 68.212097 -87.300251 
L 68.22 -86.734683 
L 68.12618 -86.169115 
L 67.923737 -85.603547 
L 67.606543 -85.037979 
L 67.170167 -84.472411 
L 66.612916 -83.906843 
L 65.936842 -83.341275 
L 65.148571 -82.775707 
L 64.259805 -82.210139 
L 63.287393 -81.64457 
L 62.252903 -81.079002 
L 61.181708 -80.513434 
L 60.101622 -79.947866 
L 59.041232 -79.382298 
L 58.028061 -78.81673 
L 57.086743 -78.251162 
L 56.237396 -77.685594 
L 55.494331 -77.120026 
L 54.865231 -76.554458 
L 54.350848 -75.98889 
L 53.945249 -75.423322 
L 53.636552 -74.857754 
L 53.408086 -74.292186 
L 53.239842 -73.726618 
L 53.110093 -73.16105 
L 52.997021 -72.595482 
L 52.880245 -72.029914 
L 52.742117 -71.464346 
L 52.568704 -70.898778 
L 52.350419 -70.33321 
L 52.082272 -69.767642 
L 51.763757 -69.202074 
L 51.398429 -68.636506 
L 50.993227 -68.070938 
L 50.557631 -67.50537 
L 50.10273 -66.939802 
L 49.640292 -66.374234 
L 49.1819 -65.808666 
L 48.738215 -65.243098 
L 48.318406 -64.67753 
L 47.929766 -64.111962 
L 47.577514 -63.546394 
L 47.264772 -62.980825 
L 46.992689 -62.415257 
L 46.760683 -61.849689 
L 46.566755 -61.284121 
L 46.407846 -60.718553 
L 46.280194 -60.152985 
L 46.179676 -59.587417 
L 46.102093 -59.021849 
z
" id="m7e179d529a" style="stroke:#262626;stroke-width:0.75;"/>
    </defs>
    <g clip-path="url(#pc958474894)">
     <use style="fill:#7f9dd2;stroke:#262626;stroke-width:0.75;" x="0" xlink:href="#m7e179d529a" y="144"/>
    </g>
   </g>
   <g id="PolyCollection_2">
    <defs>
     <path d="M 101.700171 -20.88 
L 101.699829 -20.88 
L 101.699411 -21.898182 
L 101.698676 -22.916364 
L 101.697719 -23.934545 
L 101.696195 -24.952727 
L 101.693204 -25.970909 
L 101.687753 -26.989091 
L 101.678322 -28.007273 
L 101.661627 -29.025455 
L 101.634112 -30.043636 
L 101.595184 -31.061818 
L 101.545125 -32.08 
L 101.482309 -33.098182 
L 101.404364 -34.116364 
L 101.308298 -35.134545 
L 101.190406 -36.152727 
L 101.051973 -37.170909 
L 100.901005 -38.189091 
L 100.741614 -39.207273 
L 100.572698 -40.225455 
L 100.398471 -41.243636 
L 100.225078 -42.261818 
L 100.045003 -43.28 
L 99.832169 -44.298182 
L 99.562819 -45.316364 
L 99.251399 -46.334545 
L 98.936359 -47.352727 
L 98.622263 -48.370909 
L 98.279624 -49.389091 
L 97.894528 -50.407273 
L 97.484198 -51.425455 
L 97.079897 -52.443636 
L 96.698571 -53.461818 
L 96.325942 -54.48 
L 95.925176 -55.498182 
L 95.466192 -56.516364 
L 94.973876 -57.534545 
L 94.506396 -58.552727 
L 94.072238 -59.570909 
L 93.627189 -60.589091 
L 93.138536 -61.607273 
L 92.615241 -62.625455 
L 92.086801 -63.643636 
L 91.569767 -64.661818 
L 91.081218 -65.68 
L 90.64502 -66.698182 
L 90.254594 -67.716364 
L 89.858957 -68.734545 
L 89.400697 -69.752727 
L 88.912548 -70.770909 
L 88.498603 -71.789091 
L 88.191354 -72.807273 
L 87.957353 -73.825455 
L 87.782408 -74.843636 
L 87.667178 -75.861818 
L 87.624947 -76.88 
L 87.671045 -77.898182 
L 87.780358 -78.916364 
L 87.909497 -79.934545 
L 88.01175 -80.952727 
L 88.043443 -81.970909 
L 88.045477 -82.989091 
L 88.131171 -84.007273 
L 88.349041 -85.025455 
L 88.670301 -86.043636 
L 89.108487 -87.061818 
L 89.717162 -88.08 
L 90.472697 -89.098182 
L 91.261471 -90.116364 
L 91.977433 -91.134545 
L 92.609753 -92.152727 
L 93.211202 -93.170909 
L 93.81291 -94.189091 
L 94.425311 -95.207273 
L 95.040445 -96.225455 
L 95.62677 -97.243636 
L 96.153976 -98.261818 
L 96.631531 -99.28 
L 97.132437 -100.298182 
L 97.705927 -101.316364 
L 98.299802 -102.334545 
L 98.830278 -103.352727 
L 99.270861 -104.370909 
L 99.667021 -105.389091 
L 100.068169 -106.407273 
L 100.464339 -107.425455 
L 100.817411 -108.443636 
L 101.101846 -109.461818 
L 101.309708 -110.48 
L 101.451961 -111.498182 
L 101.546652 -112.516364 
L 101.60665 -113.534545 
L 101.643054 -114.552727 
L 101.666295 -115.570909 
L 101.681776 -116.589091 
L 101.690826 -117.607273 
L 101.695191 -118.625455 
L 101.697515 -119.643636 
L 101.699004 -120.661818 
L 101.699736 -121.68 
L 101.700264 -121.68 
L 101.700264 -121.68 
L 101.700996 -120.661818 
L 101.702485 -119.643636 
L 101.704809 -118.625455 
L 101.709174 -117.607273 
L 101.718224 -116.589091 
L 101.733705 -115.570909 
L 101.756946 -114.552727 
L 101.79335 -113.534545 
L 101.853348 -112.516364 
L 101.948039 -111.498182 
L 102.090292 -110.48 
L 102.298154 -109.461818 
L 102.582589 -108.443636 
L 102.935661 -107.425455 
L 103.331831 -106.407273 
L 103.732979 -105.389091 
L 104.129139 -104.370909 
L 104.569722 -103.352727 
L 105.100198 -102.334545 
L 105.694073 -101.316364 
L 106.267563 -100.298182 
L 106.768469 -99.28 
L 107.246024 -98.261818 
L 107.77323 -97.243636 
L 108.359555 -96.225455 
L 108.974689 -95.207273 
L 109.58709 -94.189091 
L 110.188798 -93.170909 
L 110.790247 -92.152727 
L 111.422567 -91.134545 
L 112.138529 -90.116364 
L 112.927303 -89.098182 
L 113.682838 -88.08 
L 114.291513 -87.061818 
L 114.729699 -86.043636 
L 115.050959 -85.025455 
L 115.268829 -84.007273 
L 115.354523 -82.989091 
L 115.356557 -81.970909 
L 115.38825 -80.952727 
L 115.490503 -79.934545 
L 115.619642 -78.916364 
L 115.728955 -77.898182 
L 115.775053 -76.88 
L 115.732822 -75.861818 
L 115.617592 -74.843636 
L 115.442647 -73.825455 
L 115.208646 -72.807273 
L 114.901397 -71.789091 
L 114.487452 -70.770909 
L 113.999303 -69.752727 
L 113.541043 -68.734545 
L 113.145406 -67.716364 
L 112.75498 -66.698182 
L 112.318782 -65.68 
L 111.830233 -64.661818 
L 111.313199 -63.643636 
L 110.784759 -62.625455 
L 110.261464 -61.607273 
L 109.772811 -60.589091 
L 109.327762 -59.570909 
L 108.893604 -58.552727 
L 108.426124 -57.534545 
L 107.933808 -56.516364 
L 107.474824 -55.498182 
L 107.074058 -54.48 
L 106.701429 -53.461818 
L 106.320103 -52.443636 
L 105.915802 -51.425455 
L 105.505472 -50.407273 
L 105.120376 -49.389091 
L 104.777737 -48.370909 
L 104.463641 -47.352727 
L 104.148601 -46.334545 
L 103.837181 -45.316364 
L 103.567831 -44.298182 
L 103.354997 -43.28 
L 103.174922 -42.261818 
L 103.001529 -41.243636 
L 102.827302 -40.225455 
L 102.658386 -39.207273 
L 102.498995 -38.189091 
L 102.348027 -37.170909 
L 102.209594 -36.152727 
L 102.091702 -35.134545 
L 101.995636 -34.116364 
L 101.917691 -33.098182 
L 101.854875 -32.08 
L 101.804816 -31.061818 
L 101.765888 -30.043636 
L 101.738373 -29.025455 
L 101.721678 -28.007273 
L 101.712247 -26.989091 
L 101.706796 -25.970909 
L 101.703805 -24.952727 
L 101.702281 -23.934545 
L 101.701324 -22.916364 
L 101.700589 -21.898182 
L 101.700171 -20.88 
z
" id="m0747f914fc" style="stroke:#262626;stroke-width:0.75;"/>
    </defs>
    <g clip-path="url(#pc958474894)">
     <use style="fill:#1a1a66;stroke:#262626;stroke-width:0.75;" x="0" xlink:href="#m0747f914fc" y="144"/>
    </g>
   </g>
   <g id="line2d_1">
    <path clip-path="url(#pc958474894)" d="M 45.9 77.299561 
L 45.9 36.665505 
" style="fill:none;stroke:#262626;stroke-linecap:round;stroke-width:0.75;"/>
   </g>
   <g id="line2d_2">
    <path clip-path="url(#pc958474894)" d="M 45.9 61.449379 
L 45.9 49.886009 
" style="fill:none;stroke:#262626;stroke-linecap:round;stroke-width:2.25;"/>
   </g>
   <g id="line2d_3">
    <path clip-path="url(#pc958474894)" d="M 101.7 109.242837 
L 101.7 26.702292 
" style="fill:none;stroke:#262626;stroke-linecap:round;stroke-width:0.75;"/>
   </g>
   <g id="line2d_4">
    <path clip-path="url(#pc958474894)" d="M 101.7 78.087547 
L 101.7 57.317021 
" style="fill:none;stroke:#262626;stroke-linecap:round;stroke-width:2.25;"/>
   </g>
   <g id="patch_3">
    <path d="M 18 128.16 
L 18 17.28 
" style="fill:none;stroke:#262626;stroke-linecap:square;stroke-linejoin:miter;stroke-width:0.8;"/>
   </g>
   <g id="patch_4">
    <path d="M 18 128.16 
L 129.6 128.16 
" style="fill:none;stroke:#262626;stroke-linecap:square;stroke-linejoin:miter;stroke-width:0.8;"/>
   </g>
   <g id="PathCollection_1">
    <defs>
     <path d="M 0 0.75 
C 0.198902 0.75 0.389685 0.670975 0.53033 0.53033 
C 0.670975 0.389685 0.75 0.198902 0.75 0 
C 0.75 -0.198902 0.670975 -0.389685 0.53033 -0.53033 
C 0.389685 -0.670975 0.198902 -0.75 0 -0.75 
C -0.198902 -0.75 -0.389685 -0.670975 -0.53033 -0.53033 
C -0.670975 -0.389685 -0.75 -0.198902 -0.75 0 
C -0.75 0.198902 -0.670975 0.389685 -0.53033 0.53033 
C -0.389685 0.670975 -0.198902 0.75 0 0.75 
z
" id="m90d074dd8a" style="stroke:#262626;"/>
    </defs>
    <g clip-path="url(#pc958474894)">
     <use style="fill:#ffffff;stroke:#262626;" x="45.9" xlink:href="#m90d074dd8a" y="56.168018"/>
    </g>
   </g>
   <g id="PathCollection_2">
    <g clip-path="url(#pc958474894)">
     <use style="fill:#ffffff;stroke:#262626;" x="101.7" xlink:href="#m90d074dd8a" y="67.352908"/>
    </g>
   </g>
   <g id="text_7">
    <!-- Top 10% -->
    <g style="fill:#262626;" transform="translate(27.10875 11.28)scale(0.24 -0.24)">
     <defs>
      <path d="M 1659 0 
L 1659 4041 
L 150 4041 
L 150 4581 
L 3781 4581 
L 3781 4041 
L 2266 4041 
L 2266 0 
L 1659 0 
z
" id="ArialMT-54" transform="scale(0.015625)"/>
      <path d="M 422 -1272 
L 422 3319 
L 934 3319 
L 934 2888 
Q 1116 3141 1344 3267 
Q 1572 3394 1897 3394 
Q 2322 3394 2647 3175 
Q 2972 2956 3137 2557 
Q 3303 2159 3303 1684 
Q 3303 1175 3120 767 
Q 2938 359 2589 142 
Q 2241 -75 1856 -75 
Q 1575 -75 1351 44 
Q 1128 163 984 344 
L 984 -1272 
L 422 -1272 
z
M 931 1641 
Q 931 1000 1190 694 
Q 1450 388 1819 388 
Q 2194 388 2461 705 
Q 2728 1022 2728 1688 
Q 2728 2322 2467 2637 
Q 2206 2953 1844 2953 
Q 1484 2953 1207 2617 
Q 931 2281 931 1641 
z
" id="ArialMT-70" transform="scale(0.015625)"/>
      <path id="ArialMT-20" transform="scale(0.015625)"/>
      <path d="M 2384 0 
L 1822 0 
L 1822 3584 
Q 1619 3391 1289 3197 
Q 959 3003 697 2906 
L 697 3450 
Q 1169 3672 1522 3987 
Q 1875 4303 2022 4600 
L 2384 4600 
L 2384 0 
z
" id="ArialMT-31" transform="scale(0.015625)"/>
      <path d="M 372 3481 
Q 372 3972 619 4315 
Q 866 4659 1334 4659 
Q 1766 4659 2048 4351 
Q 2331 4044 2331 3447 
Q 2331 2866 2045 2552 
Q 1759 2238 1341 2238 
Q 925 2238 648 2547 
Q 372 2856 372 3481 
z
M 1350 4272 
Q 1141 4272 1002 4090 
Q 863 3909 863 3425 
Q 863 2984 1003 2804 
Q 1144 2625 1350 2625 
Q 1563 2625 1702 2806 
Q 1841 2988 1841 3469 
Q 1841 3913 1700 4092 
Q 1559 4272 1350 4272 
z
M 1353 -169 
L 3859 4659 
L 4316 4659 
L 1819 -169 
L 1353 -169 
z
M 3334 1075 
Q 3334 1569 3581 1911 
Q 3828 2253 4300 2253 
Q 4731 2253 5014 1945 
Q 5297 1638 5297 1041 
Q 5297 459 5011 145 
Q 4725 -169 4303 -169 
Q 3888 -169 3611 142 
Q 3334 453 3334 1075 
z
M 4316 1866 
Q 4103 1866 3964 1684 
Q 3825 1503 3825 1019 
Q 3825 581 3965 400 
Q 4106 219 4313 219 
Q 4528 219 4667 400 
Q 4806 581 4806 1063 
Q 4806 1506 4665 1686 
Q 4525 1866 4316 1866 
z
" id="ArialMT-25" transform="scale(0.015625)"/>
     </defs>
     <use xlink:href="#ArialMT-54"/>
     <use x="49.958984" xlink:href="#ArialMT-6f"/>
     <use x="105.574219" xlink:href="#ArialMT-70"/>
     <use x="161.189453" xlink:href="#ArialMT-20"/>
     <use x="188.972656" xlink:href="#ArialMT-31"/>
     <use x="244.587891" xlink:href="#ArialMT-30"/>
     <use x="300.203125" xlink:href="#ArialMT-25"/>
    </g>
   </g>
  </g>
 </g>
 <defs>
  <clipPath id="pc958474894">
   <rect height="110.88" width="111.6" x="18" y="17.28"/>
  </clipPath>
 </defs>
</svg>
