<?xml version="1.0" encoding="utf-8" standalone="no"?>
<!DOCTYPE svg PUBLIC "-//W3C//DTD SVG 1.1//EN"
  "http://www.w3.org/Graphics/SVG/1.1/DTD/svg11.dtd">
<svg height="216pt" version="1.1" viewBox="0 0 360 216" width="360pt" xmlns="http://www.w3.org/2000/svg" xmlns:xlink="http://www.w3.org/1999/xlink">
 <metadata>
  <rdf:RDF xmlns:cc="http://creativecommons.org/ns#" xmlns:dc="http://purl.org/dc/elements/1.1/" xmlns:rdf="http://www.w3.org/1999/02/22-rdf-syntax-ns#">
   <cc:Work>
    <dc:type rdf:resource="http://purl.org/dc/dcmitype/StillImage"/>
    <dc:date>2022-12-27T08:51:08.871237</dc:date>
    <dc:format>image/svg+xml</dc:format>
    <dc:creator>
     <cc:Agent>
      <dc:title>Matplotlib v3.4.2, https://matplotlib.org/</dc:title>
     </cc:Agent>
    </dc:creator>
   </cc:Work>
  </rdf:RDF>
 </metadata>
 <defs>
  <style type="text/css">*{stroke-linecap:butt;stroke-linejoin:round;}</style>
 </defs>
 <g id="figure_1">
  <g id="patch_1">
   <path d="M 0 216 
L 360 216 
L 360 0 
L 0 0 
z
" style="fill:#ffffff;"/>
  </g>
  <g id="axes_1">
   <g id="patch_2">
    <path d="M 94.94 141.64 
L 338.4 141.64 
L 338.4 28.8 
L 94.94 28.8 
z
" style="fill:#ffffff;"/>
   </g>
   <g id="line2d_1">
    <path clip-path="url(#p309802ee18)" d="M 94.94 141.64 
L 338.4 141.64 
" style="fill:none;stroke:#000000;stroke-linecap:round;stroke-width:0.5;"/>
   </g>
   <g id="patch_3">
    <path clip-path="url(#p309802ee18)" d="M 100.919108 123.26221 
Q 102.707589 123.26221 104.012322 124.213244 
Q 105.903081 125.57893 106.326013 129.002654 
L 104.62599 129.002654 
Q 104.313627 127.089173 103.337841 126.214221 
Q 102.362055 125.339269 100.87488 125.339269 
Q 99.114042 125.339269 97.908822 127.161451 
Q 96.703602 128.979829 96.703602 132.582348 
Q 96.703602 135.694132 97.695974 137.649459 
Q 98.69111 139.604786 100.935694 139.604786 
Q 102.655068 139.604786 103.782888 138.235297 
Q 104.910709 136.862003 104.935587 133.792064 
L 100.963337 133.792064 
L 100.963337 131.832933 
L 106.533333 131.832933 
L 106.533333 141.175895 
L 105.427627 141.175895 
L 105.012987 138.92765 
Q 104.142243 140.247686 103.467762 140.761244 
Q 102.334413 141.64 100.590161 141.64 
Q 98.337283 141.64 96.711895 139.631415 
Q 94.94 137.109272 94.94 132.711688 
Q 94.94 128.325517 96.667667 125.734899 
Q 98.309641 123.26221 100.919108 123.26221 
z
M 100.634389 123.235581 
L 100.634389 123.235581 
z
" style="fill:#ffa600;"/>
   </g>
   <g id="patch_4">
    <path clip-path="url(#p309802ee18)" d="M 101.035611 100.908929 
Q 103.518269 100.908929 104.887718 103.033078 
Q 106.257166 105.152609 106.408062 107.849355 
L 104.682728 107.849355 
Q 104.389478 105.803707 103.512575 104.607719 
Q 102.635673 103.407113 101.052693 103.407113 
Q 99.122369 103.407113 97.935134 105.609763 
Q 96.747899 107.807795 96.747899 112.351627 
Q 96.747899 116.078123 97.818404 118.396216 
Q 98.891755 120.709691 101.018528 120.709691 
Q 102.974476 120.709691 103.999427 118.271537 
Q 104.540373 116.987813 104.807999 114.89137 
L 106.533333 114.89137 
Q 106.302719 118.239213 105.004448 120.506511 
Q 103.447092 123.235581 100.804997 123.235581 
Q 98.527328 123.235581 96.978513 120.995989 
Q 94.94 118.040652 94.94 111.862149 
Q 94.94 107.175169 96.471732 104.173654 
Q 98.125889 100.908929 101.035611 100.908929 
z
M 100.679725 100.908929 
L 100.679725 100.908929 
z
" style="fill:#0000ff;"/>
   </g>
   <g id="patch_5">
    <path clip-path="url(#p309802ee18)" d="M 106.533333 72.698929 
L 106.533333 76.060042 
L 101.718599 76.060042 
L 101.718599 100.908929 
L 99.754735 100.908929 
L 99.754735 76.060042 
L 94.94 76.060042 
L 94.94 72.698929 
L 106.533333 72.698929 
z
" style="fill:#ff0000;"/>
   </g>
   <g id="patch_6">
    <path clip-path="url(#p309802ee18)" d="M 102.72171 54.712895 
L 100.7494 35.321252 
L 98.652583 54.712895 
L 102.72171 54.712895 
z
M 99.829744 28.8 
L 101.819032 28.8 
L 106.533333 72.698929 
L 104.603469 72.698929 
L 103.287653 59.551243 
L 98.148894 59.551243 
L 96.742527 72.698929 
L 94.94 72.698929 
L 99.829744 28.8 
z
M 100.740911 28.8 
L 100.740911 28.8 
z
" style="fill:#008000;"/>
   </g>
   <g id="patch_7">
    <path clip-path="url(#p309802ee18)" d="M 113.122617 122.283071 
Q 114.911097 122.283071 116.215831 123.284775 
Q 118.106589 124.723222 118.529522 128.329356 
L 116.829498 128.329356 
Q 116.517136 126.313928 115.54135 125.39236 
Q 114.565564 124.470792 113.078389 124.470792 
Q 111.317551 124.470792 110.112331 126.390057 
Q 108.907111 128.305315 108.907111 132.09977 
Q 108.907111 135.377346 109.899482 137.43685 
Q 110.894618 139.496353 113.139203 139.496353 
Q 114.858576 139.496353 115.986397 138.053899 
Q 117.114218 136.607439 117.139096 133.373938 
L 113.166845 133.373938 
L 113.166845 131.310428 
L 118.736842 131.310428 
L 118.736842 141.151168 
L 117.631136 141.151168 
L 117.216496 138.78314 
Q 116.345752 140.173505 115.671271 140.714425 
Q 114.537921 141.64 112.793669 141.64 
Q 110.540792 141.64 108.915404 139.524401 
Q 107.143509 136.867882 107.143509 132.236002 
Q 107.143509 127.616143 108.871175 124.887501 
Q 110.51315 122.283071 113.122617 122.283071 
z
M 112.837898 122.255023 
L 112.837898 122.255023 
z
" style="fill:#ffa600;"/>
   </g>
   <g id="patch_8">
    <path clip-path="url(#p309802ee18)" d="M 113.239119 96.986697 
Q 115.721778 96.986697 117.091227 99.390716 
Q 118.460675 101.789508 118.61157 104.841566 
L 116.886236 104.841566 
Q 116.592987 102.526392 115.716084 101.172825 
Q 114.839182 99.814032 113.256202 99.814032 
Q 111.325878 99.814032 110.138643 102.306895 
Q 108.951408 104.794531 108.951408 109.937041 
Q 108.951408 114.154525 110.021913 116.778041 
Q 111.095264 119.396331 113.222037 119.396331 
Q 115.177985 119.396331 116.202936 116.636936 
Q 116.743882 115.184073 117.011508 112.811411 
L 118.736842 112.811411 
Q 118.506228 116.600353 117.207957 119.166382 
Q 115.650601 122.255023 113.008505 122.255023 
Q 110.730837 122.255023 109.182022 119.720351 
Q 107.143509 116.37563 107.143509 109.383071 
Q 107.143509 104.078552 108.675241 100.681569 
Q 110.329398 96.986697 113.239119 96.986697 
z
M 112.883234 96.986697 
L 112.883234 96.986697 
z
" style="fill:#0000ff;"/>
   </g>
   <g id="patch_9">
    <path clip-path="url(#p309802ee18)" d="M 118.736842 68.776697 
L 118.736842 72.13781 
L 113.922107 72.13781 
L 113.922107 96.986697 
L 111.958243 96.986697 
L 111.958243 72.13781 
L 107.143509 72.13781 
L 107.143509 68.776697 
L 118.736842 68.776697 
z
" style="fill:#ff0000;"/>
   </g>
   <g id="patch_10">
    <path clip-path="url(#p309802ee18)" d="M 114.925219 52.397658 
L 112.952909 34.738599 
L 110.856092 52.397658 
L 114.925219 52.397658 
z
M 112.033252 28.8 
L 114.022541 28.8 
L 118.736842 68.776697 
L 116.806978 68.776697 
L 115.491162 56.803715 
L 110.352403 56.803715 
L 108.946036 68.776697 
L 107.143509 68.776697 
L 112.033252 28.8 
z
M 112.94442 28.8 
L 112.94442 28.8 
z
" style="fill:#008000;"/>
   </g>
   <g id="patch_11">
    <path clip-path="url(#p309802ee18)" d="M 125.326126 129.137046 
Q 127.114606 129.137046 128.41934 129.784063 
Q 130.310098 130.713179 130.733031 133.04244 
L 129.033007 133.04244 
Q 128.720645 131.740642 127.744859 131.145386 
Q 126.769073 130.550131 125.281898 130.550131 
Q 123.52106 130.550131 122.31584 131.789815 
Q 121.11062 133.026911 121.11062 135.477811 
Q 121.11062 137.59485 122.102991 138.925117 
Q 123.098127 140.255384 125.342711 140.255384 
Q 127.062085 140.255384 128.189906 139.32368 
Q 129.317726 138.389387 129.342605 136.300817 
L 125.370354 136.300817 
L 125.370354 134.967962 
L 130.940351 134.967962 
L 130.940351 141.324256 
L 129.834644 141.324256 
L 129.420004 139.794708 
Q 128.54926 140.692767 127.874779 141.042156 
Q 126.74143 141.64 124.997178 141.64 
Q 122.744301 141.64 121.118912 140.2735 
Q 119.347018 138.557612 119.347018 135.565806 
Q 119.347018 132.581764 121.074684 130.81929 
Q 122.716658 129.137046 125.326126 129.137046 
z
M 125.041406 129.118929 
L 125.041406 129.118929 
z
" style="fill:#ffa600;"/>
   </g>
   <g id="patch_12">
    <path clip-path="url(#p309802ee18)" d="M 125.442628 103.850604 
Q 127.925287 103.850604 129.294735 106.254622 
Q 130.664184 108.653415 130.815079 111.705473 
L 129.089745 111.705473 
Q 128.796495 109.390299 127.919593 108.036732 
Q 127.04269 106.677939 125.459711 106.677939 
Q 123.529387 106.677939 122.342152 109.170801 
Q 121.154917 111.658438 121.154917 116.800947 
Q 121.154917 121.018432 122.225421 123.641948 
Q 123.298773 126.260238 125.425546 126.260238 
Q 127.381494 126.260238 128.406445 123.500843 
Q 128.947391 122.047979 129.215017 119.675317 
L 130.940351 119.675317 
Q 130.709737 123.46426 129.411466 126.030288 
Q 127.85411 129.118929 125.212014 129.118929 
Q 122.934346 129.118929 121.385531 126.584258 
Q 119.347018 123.239536 119.347018 116.246978 
Q 119.347018 110.942459 120.87875 107.545476 
Q 122.532907 103.850604 125.442628 103.850604 
z
M 125.086742 103.850604 
L 125.086742 103.850604 
z
" style="fill:#0000ff;"/>
   </g>
   <g id="patch_13">
    <path clip-path="url(#p309802ee18)" d="M 130.940351 72.698929 
L 130.940351 76.410532 
L 126.125616 76.410532 
L 126.125616 103.850604 
L 124.161752 103.850604 
L 124.161752 76.410532 
L 119.347018 76.410532 
L 119.347018 72.698929 
L 130.940351 72.698929 
z
" style="fill:#ff0000;"/>
   </g>
   <g id="patch_14">
    <path clip-path="url(#p309802ee18)" d="M 127.128728 54.712895 
L 125.156418 35.321252 
L 123.059601 54.712895 
L 127.128728 54.712895 
z
M 124.236761 28.8 
L 126.226049 28.8 
L 130.940351 72.698929 
L 129.010487 72.698929 
L 127.69467 59.551243 
L 122.555912 59.551243 
L 121.149545 72.698929 
L 119.347018 72.698929 
L 124.236761 28.8 
z
M 125.147929 28.8 
L 125.147929 28.8 
z
" style="fill:#008000;"/>
   </g>
   <g id="patch_15">
    <path clip-path="url(#p309802ee18)" d="M 137.529635 123.26221 
Q 139.318115 123.26221 140.622849 124.213244 
Q 142.513607 125.57893 142.93654 129.002654 
L 141.236516 129.002654 
Q 140.924154 127.089173 139.948368 126.214221 
Q 138.972582 125.339269 137.485406 125.339269 
Q 135.724569 125.339269 134.519348 127.161451 
Q 133.314128 128.979829 133.314128 132.582348 
Q 133.314128 135.694132 134.3065 137.649459 
Q 135.301636 139.604786 137.54622 139.604786 
Q 139.265594 139.604786 140.393415 138.235297 
Q 141.521235 136.862003 141.546114 133.792064 
L 137.573863 133.792064 
L 137.573863 131.832933 
L 143.14386 131.832933 
L 143.14386 141.175895 
L 142.038153 141.175895 
L 141.623513 138.92765 
Q 140.752769 140.247686 140.078288 140.761244 
Q 138.944939 141.64 137.200687 141.64 
Q 134.94781 141.64 133.322421 139.631415 
Q 131.550526 137.109272 131.550526 132.711688 
Q 131.550526 128.325517 133.278193 125.734899 
Q 134.920167 123.26221 137.529635 123.26221 
z
M 137.244915 123.235581 
L 137.244915 123.235581 
z
" style="fill:#ffa600;"/>
   </g>
   <g id="patch_16">
    <path clip-path="url(#p309802ee18)" d="M 137.646137 100.908929 
Q 140.128796 100.908929 141.498244 103.033078 
Q 142.867692 105.152609 143.018588 107.849355 
L 141.293254 107.849355 
Q 141.000004 105.803707 140.123102 104.607719 
Q 139.246199 103.407113 137.66322 103.407113 
Q 135.732895 103.407113 134.545661 105.609763 
Q 133.358426 107.807795 133.358426 112.351627 
Q 133.358426 116.078123 134.42893 118.396216 
Q 135.502281 120.709691 137.629054 120.709691 
Q 139.585002 120.709691 140.609953 118.271537 
Q 141.1509 116.987813 141.418526 114.89137 
L 143.14386 114.89137 
Q 142.913246 118.239213 141.614975 120.506511 
Q 140.057619 123.235581 137.415523 123.235581 
Q 135.137854 123.235581 133.58904 120.995989 
Q 131.550526 118.040652 131.550526 111.862149 
Q 131.550526 107.175169 133.082258 104.173654 
Q 134.736415 100.908929 137.646137 100.908929 
z
M 137.290251 100.908929 
L 137.290251 100.908929 
z
" style="fill:#0000ff;"/>
   </g>
   <g id="patch_17">
    <path clip-path="url(#p309802ee18)" d="M 143.14386 70.737813 
L 143.14386 74.332586 
L 138.329125 74.332586 
L 138.329125 100.908929 
L 136.365261 100.908929 
L 136.365261 74.332586 
L 131.550526 74.332586 
L 131.550526 70.737813 
L 143.14386 70.737813 
z
" style="fill:#ff0000;"/>
   </g>
   <g id="patch_18">
    <path clip-path="url(#p309802ee18)" d="M 139.332237 53.555276 
L 137.359927 35.029926 
L 135.26311 53.555276 
L 139.332237 53.555276 
z
M 136.44027 28.8 
L 138.429558 28.8 
L 143.14386 70.737813 
L 141.213996 70.737813 
L 139.898179 58.177479 
L 134.759421 58.177479 
L 133.353053 70.737813 
L 131.550526 70.737813 
L 136.44027 28.8 
z
M 137.351438 28.8 
L 137.351438 28.8 
z
" style="fill:#008000;"/>
   </g>
   <g id="patch_19">
    <path clip-path="url(#p309802ee18)" d="M 149.733143 126.199628 
Q 151.521624 126.199628 152.826357 126.998654 
Q 154.717116 128.146054 155.140048 131.022547 
L 153.440025 131.022547 
Q 153.127662 129.414907 152.151876 128.679804 
Q 151.17609 127.9447 149.688915 127.9447 
Q 147.928077 127.9447 146.722857 129.475633 
Q 145.517637 131.00337 145.517637 134.030079 
Q 145.517637 136.644491 146.510009 138.287288 
Q 147.505145 139.930085 149.749729 139.930085 
Q 151.469103 139.930085 152.596923 138.779488 
Q 153.724744 137.625695 153.749622 135.04644 
L 149.777372 135.04644 
L 149.777372 133.400447 
L 155.347368 133.400447 
L 155.347368 141.250075 
L 154.241662 141.250075 
L 153.827022 139.361179 
Q 152.956278 140.470226 152.281797 140.9017 
Q 151.148448 141.64 149.404196 141.64 
Q 147.151319 141.64 145.52593 139.952458 
Q 143.754035 137.833442 143.754035 134.138747 
Q 143.754035 130.453641 145.481702 128.277095 
Q 147.123676 126.199628 149.733143 126.199628 
z
M 149.448424 126.177255 
L 149.448424 126.177255 
z
" style="fill:#ffa600;"/>
   </g>
   <g id="patch_20">
    <path clip-path="url(#p309802ee18)" d="M 149.849646 106.792278 
Q 152.332305 106.792278 153.701753 108.636557 
Q 155.071201 110.476827 155.222097 112.81826 
L 153.496763 112.81826 
Q 153.203513 111.042139 152.32661 110.003729 
Q 151.449708 108.961311 149.866728 108.961311 
Q 147.936404 108.961311 146.749169 110.873748 
Q 145.561935 112.782176 145.561935 116.727329 
Q 145.561935 119.962836 146.632439 121.975506 
Q 147.70579 123.984167 149.832563 123.984167 
Q 151.788511 123.984167 152.813462 121.867255 
Q 153.354408 120.752669 153.622034 118.932446 
L 155.347368 118.932446 
Q 155.116754 121.83919 153.818483 123.807757 
Q 152.261127 126.177255 149.619032 126.177255 
Q 147.341363 126.177255 145.792549 124.232743 
Q 143.754035 121.66679 143.754035 116.302343 
Q 143.754035 112.232901 145.285767 109.626855 
Q 146.939924 106.792278 149.849646 106.792278 
z
M 149.49376 106.792278 
L 149.49376 106.792278 
z
" style="fill:#0000ff;"/>
   </g>
   <g id="patch_21">
    <path clip-path="url(#p309802ee18)" d="M 151.535745 92.823733 
L 149.563435 77.763548 
L 147.466618 92.823733 
L 151.535745 92.823733 
z
M 148.643779 72.698929 
L 150.633067 72.698929 
L 155.347368 106.792278 
L 153.417504 106.792278 
L 152.101688 96.581354 
L 146.962929 96.581354 
L 145.556562 106.792278 
L 143.754035 106.792278 
L 148.643779 72.698929 
z
M 149.554946 72.698929 
L 149.554946 72.698929 
z
" style="fill:#008000;"/>
   </g>
   <g id="patch_22">
    <path clip-path="url(#p309802ee18)" d="M 155.347368 28.8 
L 155.347368 34.030389 
L 150.532634 34.030389 
L 150.532634 72.698929 
L 148.56877 72.698929 
L 148.56877 34.030389 
L 143.754035 34.030389 
L 143.754035 28.8 
L 155.347368 28.8 
z
" style="fill:#ff0000;"/>
   </g>
   <g id="patch_23">
    <path clip-path="url(#p309802ee18)" d="M 161.936652 126.199628 
Q 163.725132 126.199628 165.029866 126.998654 
Q 166.920624 128.146054 167.343557 131.022547 
L 165.643533 131.022547 
Q 165.331171 129.414907 164.355385 128.679804 
Q 163.379599 127.9447 161.892424 127.9447 
Q 160.131586 127.9447 158.926366 129.475633 
Q 157.721146 131.00337 157.721146 134.030079 
Q 157.721146 136.644491 158.713517 138.287288 
Q 159.708653 139.930085 161.953238 139.930085 
Q 163.672611 139.930085 164.800432 138.779488 
Q 165.928253 137.625695 165.953131 135.04644 
L 161.98088 135.04644 
L 161.98088 133.400447 
L 167.550877 133.400447 
L 167.550877 141.250075 
L 166.445171 141.250075 
L 166.030531 139.361179 
Q 165.159787 140.470226 164.485306 140.9017 
Q 163.351957 141.64 161.607704 141.64 
Q 159.354827 141.64 157.729439 139.952458 
Q 155.957544 137.833442 155.957544 134.138747 
Q 155.957544 130.453641 157.68521 128.277095 
Q 159.327185 126.199628 161.936652 126.199628 
z
M 161.651933 126.177255 
L 161.651933 126.177255 
z
" style="fill:#ffa600;"/>
   </g>
   <g id="patch_24">
    <path clip-path="url(#p309802ee18)" d="M 162.053155 102.870046 
Q 164.535813 102.870046 165.905262 105.087484 
Q 167.27471 107.300103 167.425605 110.115286 
L 165.700271 110.115286 
Q 165.407022 107.979796 164.530119 106.731281 
Q 163.653217 105.477946 162.070237 105.477946 
Q 160.139913 105.477946 158.952678 107.777334 
Q 157.765443 110.071901 157.765443 114.815292 
Q 157.765443 118.705451 158.835948 121.125351 
Q 159.909299 123.540431 162.036072 123.540431 
Q 163.99202 123.540431 165.016971 120.995197 
Q 165.557917 119.655093 165.825543 117.466577 
L 167.550877 117.466577 
Q 167.320263 120.961454 166.021992 123.328328 
Q 164.464636 126.177255 161.822541 126.177255 
Q 159.544872 126.177255 157.996057 123.839303 
Q 155.957544 120.754171 155.957544 114.304317 
Q 155.957544 109.41149 157.489276 106.278153 
Q 159.143433 102.870046 162.053155 102.870046 
z
M 161.697269 102.870046 
L 161.697269 102.870046 
z
" style="fill:#0000ff;"/>
   </g>
   <g id="patch_25">
    <path clip-path="url(#p309802ee18)" d="M 167.550877 78.582278 
L 167.550877 81.476072 
L 162.736143 81.476072 
L 162.736143 102.870046 
L 160.772279 102.870046 
L 160.772279 81.476072 
L 155.957544 81.476072 
L 155.957544 78.582278 
L 167.550877 78.582278 
z
" style="fill:#ff0000;"/>
   </g>
   <g id="patch_26">
    <path clip-path="url(#p309802ee18)" d="M 163.739254 58.185749 
L 161.766944 36.195233 
L 159.670127 58.185749 
L 163.739254 58.185749 
z
M 160.847288 28.8 
L 162.836576 28.8 
L 167.550877 78.582278 
L 165.621013 78.582278 
L 164.305197 63.672535 
L 159.166438 63.672535 
L 157.760071 78.582278 
L 155.957544 78.582278 
L 160.847288 28.8 
z
M 161.758455 28.8 
L 161.758455 28.8 
z
" style="fill:#008000;"/>
   </g>
   <g id="patch_27">
    <path clip-path="url(#p309802ee18)" d="M 174.140161 123.26221 
Q 175.928641 123.26221 177.233375 124.213244 
Q 179.124133 125.57893 179.547066 129.002654 
L 177.847042 129.002654 
Q 177.53468 127.089173 176.558894 126.214221 
Q 175.583108 125.339269 174.095933 125.339269 
Q 172.335095 125.339269 171.129875 127.161451 
Q 169.924655 128.979829 169.924655 132.582348 
Q 169.924655 135.694132 170.917026 137.649459 
Q 171.912162 139.604786 174.156746 139.604786 
Q 175.87612 139.604786 177.003941 138.235297 
Q 178.131762 136.862003 178.15664 133.792064 
L 174.184389 133.792064 
L 174.184389 131.832933 
L 179.754386 131.832933 
L 179.754386 141.175895 
L 178.648679 141.175895 
L 178.234039 138.92765 
Q 177.363296 140.247686 176.688815 140.761244 
Q 175.555465 141.64 173.811213 141.64 
Q 171.558336 141.64 169.932947 139.631415 
Q 168.161053 137.109272 168.161053 132.711688 
Q 168.161053 128.325517 169.888719 125.734899 
Q 171.530693 123.26221 174.140161 123.26221 
z
M 173.855441 123.235581 
L 173.855441 123.235581 
z
" style="fill:#ffa600;"/>
   </g>
   <g id="patch_28">
    <path clip-path="url(#p309802ee18)" d="M 174.256663 96.986697 
Q 176.739322 96.986697 178.10877 99.484006 
Q 179.478219 101.975885 179.629114 105.146381 
L 177.90378 105.146381 
Q 177.61053 102.741364 176.733628 101.335271 
Q 175.856726 99.923749 174.273746 99.923749 
Q 172.343422 99.923749 171.156187 102.513349 
Q 169.968952 105.097521 169.968952 110.439589 
Q 169.968952 114.820737 171.039456 117.546061 
Q 172.112808 120.265955 174.239581 120.265955 
Q 176.195529 120.265955 177.22048 117.39948 
Q 177.761426 115.890237 178.029052 113.425502 
L 179.754386 113.425502 
Q 179.523772 117.361477 178.225501 120.027082 
Q 176.668145 123.235581 174.026049 123.235581 
Q 171.748381 123.235581 170.199566 120.602549 
Q 168.161053 117.128033 168.161053 109.864123 
Q 168.161053 104.353757 169.692785 100.824952 
Q 171.346942 96.986697 174.256663 96.986697 
z
M 173.900778 96.986697 
L 173.900778 96.986697 
z
" style="fill:#0000ff;"/>
   </g>
   <g id="patch_29">
    <path clip-path="url(#p309802ee18)" d="M 179.754386 64.854465 
L 179.754386 68.682897 
L 174.939651 68.682897 
L 174.939651 96.986697 
L 172.975787 96.986697 
L 172.975787 68.682897 
L 168.161053 68.682897 
L 168.161053 64.854465 
L 179.754386 64.854465 
z
" style="fill:#ff0000;"/>
   </g>
   <g id="patch_30">
    <path clip-path="url(#p309802ee18)" d="M 175.942763 50.082422 
L 173.970453 34.155945 
L 171.873636 50.082422 
L 175.942763 50.082422 
z
M 173.050796 28.8 
L 175.040084 28.8 
L 179.754386 64.854465 
L 177.824522 64.854465 
L 176.508705 54.056188 
L 171.369947 54.056188 
L 169.96358 64.854465 
L 168.161053 64.854465 
L 173.050796 28.8 
z
M 173.961964 28.8 
L 173.961964 28.8 
z
" style="fill:#008000;"/>
   </g>
   <g id="patch_31">
    <path clip-path="url(#p309802ee18)" d="M 186.34367 125.220489 
Q 188.13215 125.220489 189.436884 126.070184 
Q 191.327642 127.290346 191.750575 130.349249 
L 190.050551 130.349249 
Q 189.738189 128.639662 188.762403 127.857943 
Q 187.786617 127.076223 186.299441 127.076223 
Q 184.538604 127.076223 183.333384 128.704239 
Q 182.128163 130.328857 182.128163 133.547502 
Q 182.128163 136.327705 183.120535 138.074679 
Q 184.115671 139.821652 186.360255 139.821652 
Q 188.079629 139.821652 189.20745 138.598091 
Q 190.33527 137.371131 190.360149 134.628315 
L 186.387898 134.628315 
L 186.387898 132.877942 
L 191.957895 132.877942 
L 191.957895 141.225349 
L 190.852188 141.225349 
L 190.437548 139.216669 
Q 189.566804 140.396046 188.892323 140.854882 
Q 187.758974 141.64 186.014722 141.64 
Q 183.761845 141.64 182.136456 139.845444 
Q 180.364561 137.592052 180.364561 133.663061 
Q 180.364561 129.744266 182.092228 127.429696 
Q 183.734202 125.220489 186.34367 125.220489 
z
M 186.05895 125.196697 
L 186.05895 125.196697 
z
" style="fill:#ffa600;"/>
   </g>
   <g id="patch_32">
    <path clip-path="url(#p309802ee18)" d="M 186.460172 103.850604 
Q 188.942831 103.850604 190.312279 105.881463 
Q 191.681727 107.907907 191.832623 110.486215 
L 190.107289 110.486215 
Q 189.814039 108.530409 188.937137 107.386947 
Q 188.060234 106.23907 186.477255 106.23907 
Q 184.54693 106.23907 183.359696 108.344983 
Q 182.172461 110.44648 182.172461 114.790752 
Q 182.172461 118.353585 183.242965 120.569871 
Q 184.316316 122.781741 186.44309 122.781741 
Q 188.399038 122.781741 189.423988 120.450668 
Q 189.964935 119.223323 190.232561 117.218953 
L 191.957895 117.218953 
Q 191.727281 120.419764 190.42901 122.587485 
Q 188.871654 125.196697 186.229558 125.196697 
Q 183.951889 125.196697 182.403075 123.055465 
Q 180.364561 120.229923 180.364561 114.322772 
Q 180.364561 109.841638 181.896294 106.971946 
Q 183.55045 103.850604 186.460172 103.850604 
z
M 186.104286 103.850604 
L 186.104286 103.850604 
z
" style="fill:#0000ff;"/>
   </g>
   <g id="patch_33">
    <path clip-path="url(#p309802ee18)" d="M 191.957895 72.698929 
L 191.957895 76.410532 
L 187.14316 76.410532 
L 187.14316 103.850604 
L 185.179296 103.850604 
L 185.179296 76.410532 
L 180.364561 76.410532 
L 180.364561 72.698929 
L 191.957895 72.698929 
z
" style="fill:#ff0000;"/>
   </g>
   <g id="patch_34">
    <path clip-path="url(#p309802ee18)" d="M 188.146272 54.712895 
L 186.173962 35.321252 
L 184.077145 54.712895 
L 188.146272 54.712895 
z
M 185.254305 28.8 
L 187.243593 28.8 
L 191.957895 72.698929 
L 190.028031 72.698929 
L 188.712214 59.551243 
L 183.573456 59.551243 
L 182.167088 72.698929 
L 180.364561 72.698929 
L 185.254305 28.8 
z
M 186.165473 28.8 
L 186.165473 28.8 
z
" style="fill:#008000;"/>
   </g>
   <g id="patch_35">
    <path clip-path="url(#p309802ee18)" d="M 198.547178 129.137046 
Q 200.335659 129.137046 201.640393 129.784063 
Q 203.531151 130.713179 203.954084 133.04244 
L 202.25406 133.04244 
Q 201.941698 131.740642 200.965912 131.145386 
Q 199.990125 130.550131 198.50295 130.550131 
Q 196.742112 130.550131 195.536892 131.789815 
Q 194.331672 133.026911 194.331672 135.477811 
Q 194.331672 137.59485 195.324044 138.925117 
Q 196.31918 140.255384 198.563764 140.255384 
Q 200.283138 140.255384 201.410958 139.32368 
Q 202.538779 138.389387 202.563658 136.300817 
L 198.591407 136.300817 
L 198.591407 134.967962 
L 204.161404 134.967962 
L 204.161404 141.324256 
L 203.055697 141.324256 
L 202.641057 139.794708 
Q 201.770313 140.692767 201.095832 141.042156 
Q 199.962483 141.64 198.218231 141.64 
Q 195.965354 141.64 194.339965 140.2735 
Q 192.56807 138.557612 192.56807 135.565806 
Q 192.56807 132.581764 194.295737 130.81929 
Q 195.937711 129.137046 198.547178 129.137046 
z
M 198.262459 129.118929 
L 198.262459 129.118929 
z
" style="fill:#ffa600;"/>
   </g>
   <g id="patch_36">
    <path clip-path="url(#p309802ee18)" d="M 198.663681 102.870046 
Q 201.14634 102.870046 202.515788 105.367354 
Q 203.885236 107.859234 204.036132 111.02973 
L 202.310798 111.02973 
Q 202.017548 108.624713 201.140645 107.21862 
Q 200.263743 105.807098 198.680763 105.807098 
Q 196.750439 105.807098 195.563204 108.396698 
Q 194.37597 110.980869 194.37597 116.322938 
Q 194.37597 120.704086 195.446474 123.429409 
Q 196.519825 126.149304 198.646598 126.149304 
Q 200.602546 126.149304 201.627497 123.282828 
Q 202.168443 121.773585 202.43607 119.30885 
L 204.161404 119.30885 
Q 203.93079 123.244826 202.632518 125.910431 
Q 201.075163 129.118929 198.433067 129.118929 
Q 196.155398 129.118929 194.606584 126.485898 
Q 192.56807 123.011382 192.56807 115.747471 
Q 192.56807 110.237106 194.099802 106.7083 
Q 195.753959 102.870046 198.663681 102.870046 
z
M 198.307795 102.870046 
L 198.307795 102.870046 
z
" style="fill:#0000ff;"/>
   </g>
   <g id="patch_37">
    <path clip-path="url(#p309802ee18)" d="M 204.161404 73.679488 
L 204.161404 77.15743 
L 199.346669 77.15743 
L 199.346669 102.870046 
L 197.382805 102.870046 
L 197.382805 77.15743 
L 192.56807 77.15743 
L 192.56807 73.679488 
L 204.161404 73.679488 
z
" style="fill:#ff0000;"/>
   </g>
   <g id="patch_38">
    <path clip-path="url(#p309802ee18)" d="M 200.34978 55.291704 
L 198.377471 35.466916 
L 196.280653 55.291704 
L 200.34978 55.291704 
z
M 197.457814 28.8 
L 199.447102 28.8 
L 204.161404 73.679488 
L 202.231539 73.679488 
L 200.915723 60.238125 
L 195.776964 60.238125 
L 194.370597 73.679488 
L 192.56807 73.679488 
L 197.457814 28.8 
z
M 198.368981 28.8 
L 198.368981 28.8 
z
" style="fill:#008000;"/>
   </g>
   <g id="patch_39">
    <path clip-path="url(#p309802ee18)" d="M 210.750687 125.220489 
Q 212.539168 125.220489 213.843901 126.070184 
Q 215.73466 127.290346 216.157592 130.349249 
L 214.457568 130.349249 
Q 214.145206 128.639662 213.16942 127.857943 
Q 212.193634 127.076223 210.706459 127.076223 
Q 208.945621 127.076223 207.740401 128.704239 
Q 206.535181 130.328857 206.535181 133.547502 
Q 206.535181 136.327705 207.527553 138.074679 
Q 208.522688 139.821652 210.767273 139.821652 
Q 212.486647 139.821652 213.614467 138.598091 
Q 214.742288 137.371131 214.767166 134.628315 
L 210.794915 134.628315 
L 210.794915 132.877942 
L 216.364912 132.877942 
L 216.364912 141.225349 
L 215.259206 141.225349 
L 214.844566 139.216669 
Q 213.973822 140.396046 213.299341 140.854882 
Q 212.165992 141.64 210.421739 141.64 
Q 208.168862 141.64 206.543474 139.845444 
Q 204.771579 137.592052 204.771579 133.663061 
Q 204.771579 129.744266 206.499245 127.429696 
Q 208.14122 125.220489 210.750687 125.220489 
z
M 210.465968 125.196697 
L 210.465968 125.196697 
z
" style="fill:#ffa600;"/>
   </g>
   <g id="patch_40">
    <path clip-path="url(#p309802ee18)" d="M 216.364912 101.889488 
L 216.364912 104.666452 
L 211.550178 104.666452 
L 211.550178 125.196697 
L 209.586314 125.196697 
L 209.586314 104.666452 
L 204.771579 104.666452 
L 204.771579 101.889488 
L 216.364912 101.889488 
z
" style="fill:#ff0000;"/>
   </g>
   <g id="patch_41">
    <path clip-path="url(#p309802ee18)" d="M 210.86719 76.621162 
Q 213.349848 76.621162 214.719297 79.02518 
Q 216.088745 81.423973 216.239641 84.476031 
L 214.514307 84.476031 
Q 214.221057 82.160857 213.344154 80.80729 
Q 212.467252 79.448497 210.884272 79.448497 
Q 208.953948 79.448497 207.766713 81.941359 
Q 206.579478 84.428996 206.579478 89.571505 
Q 206.579478 93.78899 207.649983 96.412506 
Q 208.723334 99.030796 210.850107 99.030796 
Q 212.806055 99.030796 213.831006 96.271401 
Q 214.371952 94.818537 214.639578 92.445875 
L 216.364912 92.445875 
Q 216.134298 96.234818 214.836027 98.800846 
Q 213.278671 101.889488 210.636576 101.889488 
Q 208.358907 101.889488 206.810092 99.354816 
Q 204.771579 96.010094 204.771579 89.017536 
Q 204.771579 83.713017 206.303311 80.316034 
Q 207.957468 76.621162 210.86719 76.621162 
z
M 210.511304 76.621162 
L 210.511304 76.621162 
z
" style="fill:#0000ff;"/>
   </g>
   <g id="patch_42">
    <path clip-path="url(#p309802ee18)" d="M 212.553289 57.028131 
L 210.580979 35.903906 
L 208.484162 57.028131 
L 212.553289 57.028131 
z
M 209.661323 28.8 
L 211.650611 28.8 
L 216.364912 76.621162 
L 214.435048 76.621162 
L 213.119232 62.298771 
L 207.980473 62.298771 
L 206.574106 76.621162 
L 204.771579 76.621162 
L 209.661323 28.8 
z
M 210.57249 28.8 
L 210.57249 28.8 
z
" style="fill:#008000;"/>
   </g>
   <g id="patch_43">
    <path clip-path="url(#p309802ee18)" d="M 222.954196 120.324792 
Q 224.742676 120.324792 226.04741 121.427835 
Q 227.938168 123.011805 228.361101 126.982761 
L 226.661077 126.982761 
Q 226.348715 124.763438 225.372929 123.748638 
Q 224.397143 122.733838 222.909968 122.733838 
Q 221.14913 122.733838 219.94391 124.847269 
Q 218.73869 126.956288 218.73869 131.134616 
Q 218.73869 134.743773 219.731061 137.01163 
Q 220.726197 139.279487 222.970782 139.279487 
Q 224.690155 139.279487 225.817976 137.691105 
Q 226.945797 136.098311 226.970675 132.537687 
L 222.998424 132.537687 
L 222.998424 130.265418 
L 228.568421 130.265418 
L 228.568421 141.101715 
L 227.462714 141.101715 
L 227.048075 138.494121 
Q 226.177331 140.025145 225.50285 140.620788 
Q 224.3695 141.64 222.625248 141.64 
Q 220.372371 141.64 218.746982 139.310373 
Q 216.975088 136.385102 216.975088 131.28463 
Q 216.975088 126.197394 218.702754 123.192704 
Q 220.344728 120.324792 222.954196 120.324792 
z
M 222.669477 120.293907 
L 222.669477 120.293907 
z
" style="fill:#ffa600;"/>
   </g>
   <g id="patch_44">
    <path clip-path="url(#p309802ee18)" d="M 223.070698 97.967255 
Q 225.553357 97.967255 226.922805 100.091404 
Q 228.292254 102.210935 228.443149 104.907681 
L 226.717815 104.907681 
Q 226.424565 102.862033 225.547663 101.666045 
Q 224.670761 100.465439 223.087781 100.465439 
Q 221.157457 100.465439 219.970222 102.668089 
Q 218.782987 104.866121 218.782987 109.409953 
Q 218.782987 113.136449 219.853491 115.454541 
Q 220.926843 117.768017 223.053616 117.768017 
Q 225.009564 117.768017 226.034515 115.329863 
Q 226.575461 114.046138 226.843087 111.949696 
L 228.568421 111.949696 
Q 228.337807 115.297539 227.039536 117.564837 
Q 225.48218 120.293907 222.840084 120.293907 
Q 220.562416 120.293907 219.013601 118.054315 
Q 216.975088 115.098977 216.975088 108.920475 
Q 216.975088 104.233494 218.50682 101.23198 
Q 220.160977 97.967255 223.070698 97.967255 
z
M 222.714813 97.967255 
L 222.714813 97.967255 
z
" style="fill:#0000ff;"/>
   </g>
   <g id="patch_45">
    <path clip-path="url(#p309802ee18)" d="M 228.568421 71.718371 
L 228.568421 74.845825 
L 223.753686 74.845825 
L 223.753686 97.967255 
L 221.789822 97.967255 
L 221.789822 74.845825 
L 216.975088 74.845825 
L 216.975088 71.718371 
L 228.568421 71.718371 
z
" style="fill:#ff0000;"/>
   </g>
   <g id="patch_46">
    <path clip-path="url(#p309802ee18)" d="M 224.756798 54.134085 
L 222.784488 35.175589 
L 220.687671 54.134085 
L 224.756798 54.134085 
z
M 221.864831 28.8 
L 223.85412 28.8 
L 228.568421 71.718371 
L 226.638557 71.718371 
L 225.32274 58.864361 
L 220.183982 58.864361 
L 218.777615 71.718371 
L 216.975088 71.718371 
L 221.864831 28.8 
z
M 222.775999 28.8 
L 222.775999 28.8 
z
" style="fill:#008000;"/>
   </g>
   <g id="patch_47">
    <path clip-path="url(#p309802ee18)" d="M 235.157705 121.303931 
Q 236.946185 121.303931 238.250919 122.356305 
Q 240.141677 123.867513 240.56461 127.656059 
L 238.864586 127.656059 
Q 238.552224 125.538683 237.576438 124.570499 
Q 236.600652 123.602315 235.113476 123.602315 
Q 233.352639 123.602315 232.147419 125.618663 
Q 230.942198 127.630802 230.942198 131.617193 
Q 230.942198 135.06056 231.93457 137.22424 
Q 232.929706 139.38792 235.17429 139.38792 
Q 236.893664 139.38792 238.021485 137.872502 
Q 239.149305 136.352875 239.174184 132.955812 
L 235.201933 132.955812 
L 235.201933 130.787923 
L 240.77193 130.787923 
L 240.77193 141.126442 
L 239.666223 141.126442 
L 239.251583 138.63863 
Q 238.380839 140.099325 237.706358 140.667607 
Q 236.573009 141.64 234.828757 141.64 
Q 232.57588 141.64 230.950491 139.417387 
Q 229.178596 136.626492 229.178596 131.760316 
Q 229.178596 126.906769 230.906263 124.040103 
Q 232.548237 121.303931 235.157705 121.303931 
z
M 234.872985 121.274465 
L 234.872985 121.274465 
z
" style="fill:#ffa600;"/>
   </g>
   <g id="patch_48">
    <path clip-path="url(#p309802ee18)" d="M 235.274207 98.947813 
Q 237.756866 98.947813 239.126314 101.071962 
Q 240.495763 103.191493 240.646658 105.888239 
L 238.921324 105.888239 
Q 238.628074 103.842591 237.751172 102.646603 
Q 236.874269 101.445997 235.29129 101.445997 
Q 233.360966 101.445997 232.173731 103.648647 
Q 230.986496 105.846679 230.986496 110.390511 
Q 230.986496 114.117007 232.057 116.4351 
Q 233.130352 118.748575 235.257125 118.748575 
Q 237.213073 118.748575 238.238023 116.310421 
Q 238.77897 115.026696 239.046596 112.930254 
L 240.77193 112.930254 
Q 240.541316 116.278097 239.243045 118.545395 
Q 237.685689 121.274465 235.043593 121.274465 
Q 232.765925 121.274465 231.21711 119.034873 
Q 229.178596 116.079535 229.178596 109.901033 
Q 229.178596 105.214052 230.710329 102.212538 
Q 232.364485 98.947813 235.274207 98.947813 
z
M 234.918321 98.947813 
L 234.918321 98.947813 
z
" style="fill:#0000ff;"/>
   </g>
   <g id="patch_49">
    <path clip-path="url(#p309802ee18)" d="M 240.77193 69.757255 
L 240.77193 73.235198 
L 235.957195 73.235198 
L 235.957195 98.947813 
L 233.993331 98.947813 
L 233.993331 73.235198 
L 229.178596 73.235198 
L 229.178596 69.757255 
L 240.77193 69.757255 
z
" style="fill:#ff0000;"/>
   </g>
   <g id="patch_50">
    <path clip-path="url(#p309802ee18)" d="M 236.960307 52.976467 
L 234.987997 34.884262 
L 232.89118 52.976467 
L 236.960307 52.976467 
z
M 234.06834 28.8 
L 236.057628 28.8 
L 240.77193 69.757255 
L 238.842066 69.757255 
L 237.526249 57.490597 
L 232.387491 57.490597 
L 230.981124 69.757255 
L 229.178596 69.757255 
L 234.06834 28.8 
z
M 234.979508 28.8 
L 234.979508 28.8 
z
" style="fill:#008000;"/>
   </g>
   <g id="patch_51">
    <path clip-path="url(#p309802ee18)" d="M 247.361214 128.157907 
Q 249.149694 128.157907 250.454428 128.855593 
Q 252.345186 129.857471 252.768119 132.369142 
L 251.068095 132.369142 
Q 250.755733 130.965397 249.779947 130.323525 
Q 248.804161 129.681654 247.316985 129.681654 
Q 245.556148 129.681654 244.350927 131.018421 
Q 243.145707 132.352398 243.145707 134.995234 
Q 243.145707 137.278064 244.138079 138.712508 
Q 245.133215 140.146951 247.377799 140.146951 
Q 249.097173 140.146951 250.224994 139.142282 
Q 251.352814 138.134823 251.377693 135.882691 
L 247.405442 135.882691 
L 247.405442 134.445457 
L 252.975439 134.445457 
L 252.975439 141.299529 
L 251.869732 141.299529 
L 251.455092 139.650198 
Q 250.584348 140.618587 249.909867 140.995338 
Q 248.776518 141.64 247.032266 141.64 
Q 244.779389 141.64 243.154 140.166486 
Q 241.382105 138.316222 241.382105 135.090119 
Q 241.382105 131.872389 243.109772 129.971891 
Q 244.751746 128.157907 247.361214 128.157907 
z
M 247.076494 128.138371 
L 247.076494 128.138371 
z
" style="fill:#ffa600;"/>
   </g>
   <g id="patch_52">
    <path clip-path="url(#p309802ee18)" d="M 247.477716 103.850604 
Q 249.960375 103.850604 251.329823 106.161332 
Q 252.699271 108.467038 252.850167 111.400658 
L 251.124833 111.400658 
Q 250.831583 109.175326 249.954681 107.874286 
Q 249.077778 106.568222 247.494798 106.568222 
Q 245.564474 106.568222 244.37724 108.964347 
Q 243.190005 111.355449 243.190005 116.298399 
Q 243.190005 120.35222 244.260509 122.873929 
Q 245.33386 125.390614 247.460633 125.390614 
Q 249.416581 125.390614 250.441532 122.738299 
Q 250.982479 121.341815 251.250105 119.061226 
L 252.975439 119.061226 
Q 252.744825 122.703136 251.446554 125.169587 
Q 249.889198 128.138371 247.247102 128.138371 
Q 244.969433 128.138371 243.420619 125.70206 
Q 241.382105 122.487133 241.382105 115.765926 
Q 241.382105 110.667253 242.913837 107.402093 
Q 244.567994 103.850604 247.477716 103.850604 
z
M 247.12183 103.850604 
L 247.12183 103.850604 
z
" style="fill:#0000ff;"/>
   </g>
   <g id="patch_53">
    <path clip-path="url(#p309802ee18)" d="M 252.975439 68.776697 
L 252.975439 72.955618 
L 248.160704 72.955618 
L 248.160704 103.850604 
L 246.19684 103.850604 
L 246.19684 72.955618 
L 241.382105 72.955618 
L 241.382105 68.776697 
L 252.975439 68.776697 
z
" style="fill:#ff0000;"/>
   </g>
   <g id="patch_54">
    <path clip-path="url(#p309802ee18)" d="M 249.163815 52.397658 
L 247.191506 34.738599 
L 245.094688 52.397658 
L 249.163815 52.397658 
z
M 246.271849 28.8 
L 248.261137 28.8 
L 252.975439 68.776697 
L 251.045574 68.776697 
L 249.729758 56.803715 
L 244.591 56.803715 
L 243.184632 68.776697 
L 241.382105 68.776697 
L 246.271849 28.8 
z
M 247.183016 28.8 
L 247.183016 28.8 
z
" style="fill:#008000;"/>
   </g>
   <g id="patch_55">
    <path clip-path="url(#p309802ee18)" d="M 259.564722 121.303931 
Q 261.353203 121.303931 262.657936 122.356305 
Q 264.548695 123.867513 264.971627 127.656059 
L 263.271604 127.656059 
Q 262.959241 125.538683 261.983455 124.570499 
Q 261.007669 123.602315 259.520494 123.602315 
Q 257.759656 123.602315 256.554436 125.618663 
Q 255.349216 127.630802 255.349216 131.617193 
Q 255.349216 135.06056 256.341588 137.22424 
Q 257.336724 139.38792 259.581308 139.38792 
Q 261.300682 139.38792 262.428502 137.872502 
Q 263.556323 136.352875 263.581201 132.955812 
L 259.608951 132.955812 
L 259.608951 130.787923 
L 265.178947 130.787923 
L 265.178947 141.126442 
L 264.073241 141.126442 
L 263.658601 138.63863 
Q 262.787857 140.099325 262.113376 140.667607 
Q 260.980027 141.64 259.235775 141.64 
Q 256.982897 141.64 255.357509 139.417387 
Q 253.585614 136.626492 253.585614 131.760316 
Q 253.585614 126.906769 255.313281 124.040103 
Q 256.955255 121.303931 259.564722 121.303931 
z
M 259.280003 121.274465 
L 259.280003 121.274465 
z
" style="fill:#ffa600;"/>
   </g>
   <g id="patch_56">
    <path clip-path="url(#p309802ee18)" d="M 259.681225 96.006139 
Q 262.163884 96.006139 263.533332 98.410158 
Q 264.90278 100.80895 265.053676 103.861008 
L 263.328342 103.861008 
Q 263.035092 101.545834 262.158189 100.192267 
Q 261.281287 98.833474 259.698307 98.833474 
Q 257.767983 98.833474 256.580748 101.326337 
Q 255.393514 103.813973 255.393514 108.956483 
Q 255.393514 113.173967 256.464018 115.797483 
Q 257.537369 118.415773 259.664142 118.415773 
Q 261.62009 118.415773 262.645041 115.656378 
Q 263.185987 114.203514 263.453613 111.830853 
L 265.178947 111.830853 
Q 264.948333 115.619795 263.650062 118.185823 
Q 262.092706 121.274465 259.450611 121.274465 
Q 257.172942 121.274465 255.624127 118.739793 
Q 253.585614 115.395071 253.585614 108.402513 
Q 253.585614 103.097994 255.117346 99.701011 
Q 256.771503 96.006139 259.681225 96.006139 
z
M 259.325339 96.006139 
L 259.325339 96.006139 
z
" style="fill:#0000ff;"/>
   </g>
   <g id="patch_57">
    <path clip-path="url(#p309802ee18)" d="M 261.367324 82.439343 
L 259.395014 67.812304 
L 257.298197 82.439343 
L 261.367324 82.439343 
z
M 258.475358 62.893349 
L 260.464646 62.893349 
L 265.178947 96.006139 
L 263.249083 96.006139 
L 261.933267 86.088891 
L 256.794508 86.088891 
L 255.388141 96.006139 
L 253.585614 96.006139 
L 258.475358 62.893349 
z
M 259.386525 62.893349 
L 259.386525 62.893349 
z
" style="fill:#008000;"/>
   </g>
   <g id="patch_58">
    <path clip-path="url(#p309802ee18)" d="M 265.178947 28.8 
L 265.178947 32.862091 
L 260.364213 32.862091 
L 260.364213 62.893349 
L 258.400349 62.893349 
L 258.400349 32.862091 
L 253.585614 32.862091 
L 253.585614 28.8 
L 265.178947 28.8 
z
" style="fill:#ff0000;"/>
   </g>
   <g id="patch_59">
    <path clip-path="url(#p309802ee18)" d="M 271.884733 122.255023 
Q 274.367392 122.255023 275.736841 124.099302 
Q 277.106289 125.939572 277.257184 128.281004 
L 275.53185 128.281004 
Q 275.238601 126.504883 274.361698 125.466474 
Q 273.484796 124.424055 271.901816 124.424055 
Q 269.971492 124.424055 268.784257 126.336493 
Q 267.597022 128.244921 267.597022 132.190074 
Q 267.597022 135.425581 268.667527 137.438251 
Q 269.740878 139.446912 271.867651 139.446912 
Q 273.823599 139.446912 274.84855 137.33 
Q 275.389496 136.215414 275.657122 134.395191 
L 277.382456 134.395191 
Q 277.151842 137.301935 275.853571 139.270502 
Q 274.296215 141.64 271.65412 141.64 
Q 269.376451 141.64 267.827636 139.695488 
Q 265.789123 137.129535 265.789123 131.765088 
Q 265.789123 127.695646 267.320855 125.0896 
Q 268.975012 122.255023 271.884733 122.255023 
z
M 271.528848 122.255023 
L 271.528848 122.255023 
z
" style="fill:#0000ff;"/>
   </g>
   <g id="patch_60">
    <path clip-path="url(#p309802ee18)" d="M 271.768231 100.939815 
Q 273.556711 100.939815 274.861445 102.042858 
Q 276.752203 103.626828 277.175136 107.597784 
L 275.475112 107.597784 
Q 275.16275 105.378461 274.186964 104.363661 
Q 273.211178 103.348861 271.724003 103.348861 
Q 269.963165 103.348861 268.757945 105.462292 
Q 267.552725 107.571311 267.552725 111.749639 
Q 267.552725 115.358796 268.545096 117.626653 
Q 269.540232 119.89451 271.784817 119.89451 
Q 273.50419 119.89451 274.632011 118.306128 
Q 275.759832 116.713333 275.78471 113.15271 
L 271.812459 113.15271 
L 271.812459 110.880441 
L 277.382456 110.880441 
L 277.382456 121.716738 
L 276.27675 121.716738 
L 275.86211 119.109143 
Q 274.991366 120.640167 274.316885 121.235811 
Q 273.183535 122.255023 271.439283 122.255023 
Q 269.186406 122.255023 267.561018 119.925395 
Q 265.789123 117.000125 265.789123 111.899653 
Q 265.789123 106.812417 267.516789 103.807727 
Q 269.158764 100.939815 271.768231 100.939815 
z
M 271.483512 100.908929 
L 271.483512 100.908929 
z
" style="fill:#ffa600;"/>
   </g>
   <g id="patch_61">
    <path clip-path="url(#p309802ee18)" d="M 273.570833 86.538636 
L 271.598523 71.045305 
L 269.501706 86.538636 
L 273.570833 86.538636 
z
M 270.678867 65.835023 
L 272.668155 65.835023 
L 277.382456 100.908929 
L 275.452592 100.908929 
L 274.136776 90.404329 
L 268.998017 90.404329 
L 267.59165 100.908929 
L 265.789123 100.908929 
L 270.678867 65.835023 
z
M 271.590034 65.835023 
L 271.590034 65.835023 
z
" style="fill:#008000;"/>
   </g>
   <g id="patch_62">
    <path clip-path="url(#p309802ee18)" d="M 277.382456 28.8 
L 277.382456 33.212581 
L 272.567721 33.212581 
L 272.567721 65.835023 
L 270.603857 65.835023 
L 270.603857 33.212581 
L 265.789123 33.212581 
L 265.789123 28.8 
L 277.382456 28.8 
z
" style="fill:#ff0000;"/>
   </g>
   <g id="patch_63">
    <path clip-path="url(#p309802ee18)" d="M 283.97174 128.157907 
Q 285.76022 128.157907 287.064954 128.855593 
Q 288.955712 129.857471 289.378645 132.369142 
L 287.678621 132.369142 
Q 287.366259 130.965397 286.390473 130.323525 
Q 285.414687 129.681654 283.927512 129.681654 
Q 282.166674 129.681654 280.961454 131.018421 
Q 279.756234 132.352398 279.756234 134.995234 
Q 279.756234 137.278064 280.748605 138.712508 
Q 281.743741 140.146951 283.988325 140.146951 
Q 285.707699 140.146951 286.83552 139.142282 
Q 287.963341 138.134823 287.988219 135.882691 
L 284.015968 135.882691 
L 284.015968 134.445457 
L 289.585965 134.445457 
L 289.585965 141.299529 
L 288.480258 141.299529 
L 288.065618 139.650198 
Q 287.194874 140.618587 286.520393 140.995338 
Q 285.387044 141.64 283.642792 141.64 
Q 281.389915 141.64 279.764526 140.166486 
Q 277.992632 138.316222 277.992632 135.090119 
Q 277.992632 131.872389 279.720298 129.971891 
Q 281.362272 128.157907 283.97174 128.157907 
z
M 283.68702 128.138371 
L 283.68702 128.138371 
z
" style="fill:#ffa600;"/>
   </g>
   <g id="patch_64">
    <path clip-path="url(#p309802ee18)" d="M 284.088242 107.772836 
Q 286.570901 107.772836 287.940349 109.710405 
Q 289.309798 111.643762 289.460693 114.103632 
L 287.735359 114.103632 
Q 287.442109 112.237669 286.565207 111.146733 
Q 285.688304 110.051586 284.105325 110.051586 
Q 282.175001 110.051586 280.987766 112.060761 
Q 279.800531 114.065723 279.800531 118.210436 
Q 279.800531 121.609606 280.871035 123.724084 
Q 281.944387 125.834349 284.07116 125.834349 
Q 286.027108 125.834349 287.052059 123.610357 
Q 287.593005 122.439391 287.860631 120.527095 
L 289.585965 120.527095 
Q 289.355351 123.580872 288.05708 125.649016 
Q 286.499724 128.138371 283.857628 128.138371 
Q 281.57996 128.138371 280.031145 126.0955 
Q 277.992632 123.399751 277.992632 117.763953 
Q 277.992632 113.488665 279.524364 110.750795 
Q 281.178521 107.772836 284.088242 107.772836 
z
M 283.732357 107.772836 
L 283.732357 107.772836 
z
" style="fill:#0000ff;"/>
   </g>
   <g id="patch_65">
    <path clip-path="url(#p309802ee18)" d="M 289.585965 74.660046 
L 289.585965 78.605307 
L 284.77123 78.605307 
L 284.77123 107.772836 
L 282.807366 107.772836 
L 282.807366 78.605307 
L 277.992632 78.605307 
L 277.992632 74.660046 
L 289.585965 74.660046 
z
" style="fill:#ff0000;"/>
   </g>
   <g id="patch_66">
    <path clip-path="url(#p309802ee18)" d="M 285.774342 55.870513 
L 283.802032 35.612579 
L 281.705215 55.870513 
L 285.774342 55.870513 
z
M 282.882375 28.8 
L 284.871663 28.8 
L 289.585965 74.660046 
L 287.656101 74.660046 
L 286.340284 60.925007 
L 281.201526 60.925007 
L 279.795159 74.660046 
L 277.992632 74.660046 
L 282.882375 28.8 
z
M 283.793543 28.8 
L 283.793543 28.8 
z
" style="fill:#008000;"/>
   </g>
   <g id="patch_67">
    <path clip-path="url(#p309802ee18)" d="M 296.175249 126.199628 
Q 297.963729 126.199628 299.268463 126.998654 
Q 301.159221 128.146054 301.582154 131.022547 
L 299.88213 131.022547 
Q 299.569768 129.414907 298.593982 128.679804 
Q 297.618196 127.9447 296.13102 127.9447 
Q 294.370183 127.9447 293.164962 129.475633 
Q 291.959742 131.00337 291.959742 134.030079 
Q 291.959742 136.644491 292.952114 138.287288 
Q 293.94725 139.930085 296.191834 139.930085 
Q 297.911208 139.930085 299.039029 138.779488 
Q 300.166849 137.625695 300.191728 135.04644 
L 296.219477 135.04644 
L 296.219477 133.400447 
L 301.789474 133.400447 
L 301.789474 141.250075 
L 300.683767 141.250075 
L 300.269127 139.361179 
Q 299.398383 140.470226 298.723902 140.9017 
Q 297.590553 141.64 295.846301 141.64 
Q 293.593424 141.64 291.968035 139.952458 
Q 290.19614 137.833442 290.19614 134.138747 
Q 290.19614 130.453641 291.923807 128.277095 
Q 293.565781 126.199628 296.175249 126.199628 
z
M 295.890529 126.177255 
L 295.890529 126.177255 
z
" style="fill:#ffa600;"/>
   </g>
   <g id="patch_68">
    <path clip-path="url(#p309802ee18)" d="M 296.291751 109.733952 
Q 298.77441 109.733952 300.143858 111.298362 
Q 301.513306 112.85937 301.664202 114.84549 
L 299.938868 114.84549 
Q 299.645618 113.338896 298.768716 112.458065 
Q 297.891813 111.573834 296.308834 111.573834 
Q 294.378509 111.573834 293.191275 113.196058 
Q 292.00404 114.814882 292.00404 118.161358 
Q 292.00404 120.905876 293.074544 122.613123 
Q 294.147895 124.316968 296.274669 124.316968 
Q 298.230616 124.316968 299.255567 122.521298 
Q 299.796514 121.575851 300.06414 120.031847 
L 301.789474 120.031847 
Q 301.55886 122.497492 300.260589 124.167329 
Q 298.703233 126.177255 296.061137 126.177255 
Q 293.783468 126.177255 292.234654 124.527824 
Q 290.19614 122.351254 290.19614 117.800863 
Q 290.19614 114.34896 291.727873 112.138381 
Q 293.382029 109.733952 296.291751 109.733952 
z
M 295.935865 109.733952 
L 295.935865 109.733952 
z
" style="fill:#0000ff;"/>
   </g>
   <g id="patch_69">
    <path clip-path="url(#p309802ee18)" d="M 301.789474 72.698929 
L 301.789474 77.11151 
L 296.974739 77.11151 
L 296.974739 109.733952 
L 295.010875 109.733952 
L 295.010875 77.11151 
L 290.19614 77.11151 
L 290.19614 72.698929 
L 301.789474 72.698929 
z
" style="fill:#ff0000;"/>
   </g>
   <g id="patch_70">
    <path clip-path="url(#p309802ee18)" d="M 297.977851 54.712895 
L 296.005541 35.321252 
L 293.908724 54.712895 
L 297.977851 54.712895 
z
M 295.085884 28.8 
L 297.075172 28.8 
L 301.789474 72.698929 
L 299.85961 72.698929 
L 298.543793 59.551243 
L 293.405035 59.551243 
L 291.998667 72.698929 
L 290.19614 72.698929 
L 295.085884 28.8 
z
M 295.997052 28.8 
L 295.997052 28.8 
z
" style="fill:#008000;"/>
   </g>
   <g id="patch_71">
    <path clip-path="url(#p309802ee18)" d="M 308.378757 126.199628 
Q 310.167238 126.199628 311.471971 126.998654 
Q 313.36273 128.146054 313.785662 131.022547 
L 312.085639 131.022547 
Q 311.773277 129.414907 310.79749 128.679804 
Q 309.821704 127.9447 308.334529 127.9447 
Q 306.573691 127.9447 305.368471 129.475633 
Q 304.163251 131.00337 304.163251 134.030079 
Q 304.163251 136.644491 305.155623 138.287288 
Q 306.150759 139.930085 308.395343 139.930085 
Q 310.114717 139.930085 311.242537 138.779488 
Q 312.370358 137.625695 312.395236 135.04644 
L 308.422986 135.04644 
L 308.422986 133.400447 
L 313.992982 133.400447 
L 313.992982 141.250075 
L 312.887276 141.250075 
L 312.472636 139.361179 
Q 311.601892 140.470226 310.927411 140.9017 
Q 309.794062 141.64 308.04981 141.64 
Q 305.796933 141.64 304.171544 139.952458 
Q 302.399649 137.833442 302.399649 134.138747 
Q 302.399649 130.453641 304.127316 128.277095 
Q 305.76929 126.199628 308.378757 126.199628 
z
M 308.094038 126.177255 
L 308.094038 126.177255 
z
" style="fill:#ffa600;"/>
   </g>
   <g id="patch_72">
    <path clip-path="url(#p309802ee18)" d="M 308.49526 105.81172 
Q 310.977919 105.81172 312.347367 107.749289 
Q 313.716815 109.682646 313.867711 112.142516 
L 312.142377 112.142516 
Q 311.849127 110.276553 310.972224 109.185617 
Q 310.095322 108.09047 308.512342 108.09047 
Q 306.582018 108.09047 305.394783 110.099644 
Q 304.207549 112.104607 304.207549 116.24932 
Q 304.207549 119.64849 305.278053 121.762967 
Q 306.351404 123.873233 308.478177 123.873233 
Q 310.434125 123.873233 311.459076 121.649241 
Q 312.000022 120.478275 312.267648 118.565979 
L 313.992982 118.565979 
Q 313.762369 121.619756 312.464097 123.6879 
Q 310.906741 126.177255 308.264646 126.177255 
Q 305.986977 126.177255 304.438163 124.134383 
Q 302.399649 121.438635 302.399649 115.802837 
Q 302.399649 111.527549 303.931381 108.789679 
Q 305.585538 105.81172 308.49526 105.81172 
z
M 308.139374 105.81172 
L 308.139374 105.81172 
z
" style="fill:#0000ff;"/>
   </g>
   <g id="patch_73">
    <path clip-path="url(#p309802ee18)" d="M 313.992982 69.757255 
L 313.992982 74.053006 
L 309.178248 74.053006 
L 309.178248 105.81172 
L 307.214384 105.81172 
L 307.214384 74.053006 
L 302.399649 74.053006 
L 302.399649 69.757255 
L 313.992982 69.757255 
z
" style="fill:#ff0000;"/>
   </g>
   <g id="patch_74">
    <path clip-path="url(#p309802ee18)" d="M 310.181359 52.976467 
L 308.209049 34.884262 
L 306.112232 52.976467 
L 310.181359 52.976467 
z
M 307.289393 28.8 
L 309.278681 28.8 
L 313.992982 69.757255 
L 312.063118 69.757255 
L 310.747302 57.490597 
L 305.608543 57.490597 
L 304.202176 69.757255 
L 302.399649 69.757255 
L 307.289393 28.8 
z
M 308.20056 28.8 
L 308.20056 28.8 
z
" style="fill:#008000;"/>
   </g>
   <g id="patch_75">
    <path clip-path="url(#p309802ee18)" d="M 320.582266 131.095325 
Q 322.370747 131.095325 323.67548 131.641002 
Q 325.566238 132.424595 325.989171 134.389035 
L 324.289147 134.389035 
Q 323.976785 133.291132 323.000999 132.789108 
Q 322.025213 132.287085 320.538038 132.287085 
Q 318.7772 132.287085 317.57198 133.332603 
Q 316.36676 134.375939 316.36676 136.442966 
Q 316.36676 138.228423 317.359132 139.350336 
Q 318.354267 140.47225 320.598852 140.47225 
Q 322.318225 140.47225 323.446046 139.686474 
Q 324.573867 138.898515 324.598745 137.137068 
L 320.626494 137.137068 
L 320.626494 136.012972 
L 326.196491 136.012972 
L 326.196491 141.373709 
L 325.090785 141.373709 
L 324.676145 140.083727 
Q 323.805401 140.841128 323.13092 141.135794 
Q 321.997571 141.64 320.253318 141.64 
Q 318.000441 141.64 316.375053 140.487529 
Q 314.603158 139.040392 314.603158 136.517178 
Q 314.603158 134.000513 316.330824 132.514087 
Q 317.972799 131.095325 320.582266 131.095325 
z
M 320.297547 131.080046 
L 320.297547 131.080046 
z
" style="fill:#ffa600;"/>
   </g>
   <g id="patch_76">
    <path clip-path="url(#p309802ee18)" d="M 320.698769 109.733952 
Q 323.181427 109.733952 324.550876 111.764811 
Q 325.920324 113.791255 326.071219 116.369563 
L 324.345885 116.369563 
Q 324.052636 114.413758 323.175733 113.270296 
Q 322.298831 112.122419 320.715851 112.122419 
Q 318.785527 112.122419 317.598292 114.228331 
Q 316.411057 116.329829 316.411057 120.674101 
Q 316.411057 124.236934 317.481562 126.453219 
Q 318.554913 128.665089 320.681686 128.665089 
Q 322.637634 128.665089 323.662585 126.334017 
Q 324.203531 125.106671 324.471157 123.102302 
L 326.196491 123.102302 
Q 325.965877 126.303112 324.667606 128.470833 
Q 323.11025 131.080046 320.468155 131.080046 
Q 318.190486 131.080046 316.641671 128.938814 
Q 314.603158 126.113271 314.603158 120.206121 
Q 314.603158 115.724986 316.13489 112.855294 
Q 317.789047 109.733952 320.698769 109.733952 
z
M 320.342883 109.733952 
L 320.342883 109.733952 
z
" style="fill:#0000ff;"/>
   </g>
   <g id="patch_77">
    <path clip-path="url(#p309802ee18)" d="M 326.196491 73.679488 
L 326.196491 77.975238 
L 321.381757 77.975238 
L 321.381757 109.733952 
L 319.417893 109.733952 
L 319.417893 77.975238 
L 314.603158 77.975238 
L 314.603158 73.679488 
L 326.196491 73.679488 
z
" style="fill:#ff0000;"/>
   </g>
   <g id="patch_78">
    <path clip-path="url(#p309802ee18)" d="M 322.384868 55.291704 
L 320.412558 35.466916 
L 318.315741 55.291704 
L 322.384868 55.291704 
z
M 319.492902 28.8 
L 321.48219 28.8 
L 326.196491 73.679488 
L 324.266627 73.679488 
L 322.950811 60.238125 
L 317.812052 60.238125 
L 316.405685 73.679488 
L 314.603158 73.679488 
L 319.492902 28.8 
z
M 320.404069 28.8 
L 320.404069 28.8 
z
" style="fill:#008000;"/>
   </g>
   <g id="patch_79">
    <path clip-path="url(#p309802ee18)" d="M 332.785775 127.178767 
Q 334.574255 127.178767 335.878989 127.927123 
Q 337.769747 129.001763 338.19268 131.695844 
L 336.492656 131.695844 
Q 336.180294 130.190152 335.204508 129.501664 
Q 334.228722 128.813177 332.741547 128.813177 
Q 330.980709 128.813177 329.775489 130.247027 
Q 328.570269 131.677884 328.570269 134.512657 
Q 328.570269 136.961278 329.56264 138.499898 
Q 330.557776 140.038518 332.802361 140.038518 
Q 334.521734 140.038518 335.649555 138.960885 
Q 336.777376 137.880259 336.802254 135.464566 
L 332.830003 135.464566 
L 332.830003 133.922952 
L 338.4 133.922952 
L 338.4 141.274802 
L 337.294293 141.274802 
L 336.879653 139.505688 
Q 336.00891 140.544407 335.334429 140.948519 
Q 334.201079 141.64 332.456827 141.64 
Q 330.20395 141.64 328.578561 140.059472 
Q 326.806667 138.074832 326.806667 134.614433 
Q 326.806667 131.163015 328.534333 129.124493 
Q 330.176307 127.178767 332.785775 127.178767 
z
M 332.501055 127.157813 
L 332.501055 127.157813 
z
" style="fill:#ffa600;"/>
   </g>
   <g id="patch_80">
    <path clip-path="url(#p309802ee18)" d="M 332.902277 103.850604 
Q 335.384936 103.850604 336.754384 106.068042 
Q 338.123833 108.280661 338.274728 111.095844 
L 336.549394 111.095844 
Q 336.256144 108.960354 335.379242 107.711839 
Q 334.50234 106.458505 332.91936 106.458505 
Q 330.989036 106.458505 329.801801 108.757892 
Q 328.614566 111.052459 328.614566 115.79585 
Q 328.614566 119.686009 329.68507 122.105909 
Q 330.758422 124.520989 332.885195 124.520989 
Q 334.841143 124.520989 335.866094 121.975755 
Q 336.40704 120.635651 336.674666 118.447135 
L 338.4 118.447135 
Q 338.169386 121.942012 336.871115 124.308887 
Q 335.313759 127.157813 332.671663 127.157813 
Q 330.393995 127.157813 328.84518 124.819862 
Q 326.806667 121.734729 326.806667 115.284875 
Q 326.806667 110.392048 328.338399 107.258711 
Q 329.992556 103.850604 332.902277 103.850604 
z
M 332.546392 103.850604 
L 332.546392 103.850604 
z
" style="fill:#0000ff;"/>
   </g>
   <g id="patch_81">
    <path clip-path="url(#p309802ee18)" d="M 338.4 71.718371 
L 338.4 75.546803 
L 333.585265 75.546803 
L 333.585265 103.850604 
L 331.621401 103.850604 
L 331.621401 75.546803 
L 326.806667 75.546803 
L 326.806667 71.718371 
L 338.4 71.718371 
z
" style="fill:#ff0000;"/>
   </g>
   <g id="patch_82">
    <path clip-path="url(#p309802ee18)" d="M 334.588377 54.134085 
L 332.616067 35.175589 
L 330.51925 54.134085 
L 334.588377 54.134085 
z
M 331.69641 28.8 
L 333.685698 28.8 
L 338.4 71.718371 
L 336.470136 71.718371 
L 335.154319 58.864361 
L 330.015561 58.864361 
L 328.609194 71.718371 
L 326.806667 71.718371 
L 331.69641 28.8 
z
M 332.607578 28.8 
L 332.607578 28.8 
z
" style="fill:#008000;"/>
   </g>
   <g id="matplotlib.axis_1">
    <g id="xtick_1">
     <g id="text_1">
      <!-- 0 -->
      <g style="fill:#262626;" transform="translate(95.175729 162.986875)scale(0.2 -0.2)">
       <defs>
        <path d="M 1731 4475 
Q 2600 4475 2988 3759 
Q 3288 3206 3288 2244 
Q 3288 1331 3016 734 
Q 2622 -122 1728 -122 
Q 922 -122 528 578 
Q 200 1163 200 2147 
Q 200 2909 397 3456 
Q 766 4475 1731 4475 
z
M 1725 391 
Q 2163 391 2422 778 
Q 2681 1166 2681 2222 
Q 2681 2984 2493 3476 
Q 2306 3969 1766 3969 
Q 1269 3969 1039 3501 
Q 809 3034 809 2125 
Q 809 1441 956 1025 
Q 1181 391 1725 391 
z
" id="Helvetica-30" transform="scale(0.015625)"/>
       </defs>
       <use xlink:href="#Helvetica-30"/>
      </g>
     </g>
    </g>
    <g id="xtick_2">
     <g id="text_2">
      <!-- 10 -->
      <g style="fill:#262626;" transform="translate(211.649879 162.986875)scale(0.2 -0.2)">
       <defs>
        <path d="M 613 3169 
L 613 3600 
Q 1222 3659 1462 3798 
Q 1703 3938 1822 4456 
L 2266 4456 
L 2266 0 
L 1666 0 
L 1666 3169 
L 613 3169 
z
" id="Helvetica-31" transform="scale(0.015625)"/>
       </defs>
       <use xlink:href="#Helvetica-31"/>
       <use x="55.615234" xlink:href="#Helvetica-30"/>
      </g>
     </g>
    </g>
    <g id="text_3">
     <!-- Position -->
     <g style="fill:#262626;" transform="translate(172.20125 189.089219)scale(0.25 -0.25)">
      <defs>
       <path d="M 547 4591 
L 2613 4591 
Q 3225 4591 3600 4245 
Q 3975 3900 3975 3275 
Q 3975 2738 3640 2339 
Q 3306 1941 2613 1941 
L 1169 1941 
L 1169 0 
L 547 0 
L 547 4591 
z
M 3347 3272 
Q 3347 3778 2972 3959 
Q 2766 4056 2406 4056 
L 1169 4056 
L 1169 2466 
L 2406 2466 
Q 2825 2466 3086 2644 
Q 3347 2822 3347 3272 
z
" id="Helvetica-50" transform="scale(0.015625)"/>
       <path d="M 1741 363 
Q 2300 363 2508 786 
Q 2716 1209 2716 1728 
Q 2716 2197 2566 2491 
Q 2328 2953 1747 2953 
Q 1231 2953 997 2559 
Q 763 2166 763 1609 
Q 763 1075 997 719 
Q 1231 363 1741 363 
z
M 1763 3444 
Q 2409 3444 2856 3012 
Q 3303 2581 3303 1744 
Q 3303 934 2909 406 
Q 2516 -122 1688 -122 
Q 997 -122 590 345 
Q 184 813 184 1600 
Q 184 2444 612 2944 
Q 1041 3444 1763 3444 
z
M 1744 3428 
L 1744 3428 
z
" id="Helvetica-6f" transform="scale(0.015625)"/>
       <path d="M 747 1050 
Q 772 769 888 619 
Q 1100 347 1625 347 
Q 1938 347 2175 483 
Q 2413 619 2413 903 
Q 2413 1119 2222 1231 
Q 2100 1300 1741 1391 
L 1294 1503 
Q 866 1609 663 1741 
Q 300 1969 300 2372 
Q 300 2847 642 3140 
Q 984 3434 1563 3434 
Q 2319 3434 2653 2991 
Q 2863 2709 2856 2384 
L 2325 2384 
Q 2309 2575 2191 2731 
Q 1997 2953 1519 2953 
Q 1200 2953 1036 2831 
Q 872 2709 872 2509 
Q 872 2291 1088 2159 
Q 1213 2081 1456 2022 
L 1828 1931 
Q 2434 1784 2641 1647 
Q 2969 1431 2969 969 
Q 2969 522 2630 197 
Q 2291 -128 1597 -128 
Q 850 -128 539 211 
Q 228 550 206 1050 
L 747 1050 
z
M 1578 3428 
L 1578 3428 
z
" id="Helvetica-73" transform="scale(0.015625)"/>
       <path d="M 413 3331 
L 984 3331 
L 984 0 
L 413 0 
L 413 3331 
z
M 413 4591 
L 984 4591 
L 984 3953 
L 413 3953 
L 413 4591 
z
" id="Helvetica-69" transform="scale(0.015625)"/>
       <path d="M 525 4281 
L 1094 4281 
L 1094 3347 
L 1628 3347 
L 1628 2888 
L 1094 2888 
L 1094 703 
Q 1094 528 1213 469 
Q 1278 434 1431 434 
Q 1472 434 1519 436 
Q 1566 438 1628 444 
L 1628 0 
Q 1531 -28 1426 -40 
Q 1322 -53 1200 -53 
Q 806 -53 665 148 
Q 525 350 525 672 
L 525 2888 
L 72 2888 
L 72 3347 
L 525 3347 
L 525 4281 
z
" id="Helvetica-74" transform="scale(0.015625)"/>
       <path d="M 413 3347 
L 947 3347 
L 947 2872 
Q 1184 3166 1450 3294 
Q 1716 3422 2041 3422 
Q 2753 3422 3003 2925 
Q 3141 2653 3141 2147 
L 3141 0 
L 2569 0 
L 2569 2109 
Q 2569 2416 2478 2603 
Q 2328 2916 1934 2916 
Q 1734 2916 1606 2875 
Q 1375 2806 1200 2600 
Q 1059 2434 1017 2257 
Q 975 2081 975 1753 
L 975 0 
L 413 0 
L 413 3347 
z
M 1734 3428 
L 1734 3428 
z
" id="Helvetica-6e" transform="scale(0.015625)"/>
      </defs>
      <use xlink:href="#Helvetica-50"/>
      <use x="66.699219" xlink:href="#Helvetica-6f"/>
      <use x="122.314453" xlink:href="#Helvetica-73"/>
      <use x="172.314453" xlink:href="#Helvetica-69"/>
      <use x="194.53125" xlink:href="#Helvetica-74"/>
      <use x="222.314453" xlink:href="#Helvetica-69"/>
      <use x="244.53125" xlink:href="#Helvetica-6f"/>
      <use x="300.146484" xlink:href="#Helvetica-6e"/>
     </g>
    </g>
   </g>
   <g id="matplotlib.axis_2">
    <g id="ytick_1">
     <g id="text_4">
      <!-- 0 -->
      <g style="fill:#262626;" transform="translate(76.818125 148.813438)scale(0.2 -0.2)">
       <use xlink:href="#Helvetica-30"/>
      </g>
     </g>
    </g>
    <g id="ytick_2">
     <g id="text_5">
      <!-- 0.25 -->
      <g style="fill:#262626;" transform="translate(49.018125 120.603437)scale(0.2 -0.2)">
       <defs>
        <path d="M 547 681 
L 1200 681 
L 1200 0 
L 547 0 
L 547 681 
z
" id="Helvetica-2e" transform="scale(0.015625)"/>
        <path d="M 200 0 
Q 231 578 439 1006 
Q 647 1434 1250 1784 
L 1850 2131 
Q 2253 2366 2416 2531 
Q 2672 2791 2672 3125 
Q 2672 3516 2437 3745 
Q 2203 3975 1813 3975 
Q 1234 3975 1013 3538 
Q 894 3303 881 2888 
L 309 2888 
Q 319 3472 525 3841 
Q 891 4491 1816 4491 
Q 2584 4491 2939 4075 
Q 3294 3659 3294 3150 
Q 3294 2613 2916 2231 
Q 2697 2009 2131 1694 
L 1703 1456 
Q 1397 1288 1222 1134 
Q 909 863 828 531 
L 3272 531 
L 3272 0 
L 200 0 
z
" id="Helvetica-32" transform="scale(0.015625)"/>
        <path d="M 791 1141 
Q 847 659 1238 475 
Q 1438 381 1700 381 
Q 2200 381 2440 700 
Q 2681 1019 2681 1406 
Q 2681 1875 2395 2131 
Q 2109 2388 1709 2388 
Q 1419 2388 1211 2275 
Q 1003 2163 856 1963 
L 369 1991 
L 709 4400 
L 3034 4400 
L 3034 3856 
L 1131 3856 
L 941 2613 
Q 1097 2731 1238 2791 
Q 1488 2894 1816 2894 
Q 2431 2894 2859 2497 
Q 3288 2100 3288 1491 
Q 3288 856 2895 371 
Q 2503 -113 1644 -113 
Q 1097 -113 676 195 
Q 256 503 206 1141 
L 791 1141 
z
" id="Helvetica-35" transform="scale(0.015625)"/>
       </defs>
       <use xlink:href="#Helvetica-30"/>
       <use x="55.615234" xlink:href="#Helvetica-2e"/>
       <use x="83.398438" xlink:href="#Helvetica-32"/>
       <use x="139.013672" xlink:href="#Helvetica-35"/>
      </g>
     </g>
    </g>
    <g id="ytick_3">
     <g id="text_6">
      <!-- 0.50 -->
      <g style="fill:#262626;" transform="translate(49.018125 92.393438)scale(0.2 -0.2)">
       <use xlink:href="#Helvetica-30"/>
       <use x="55.615234" xlink:href="#Helvetica-2e"/>
       <use x="83.398438" xlink:href="#Helvetica-35"/>
       <use x="139.013672" xlink:href="#Helvetica-30"/>
      </g>
     </g>
    </g>
    <g id="ytick_4">
     <g id="text_7">
      <!-- 0.75 -->
      <g style="fill:#262626;" transform="translate(49.018125 64.183437)scale(0.2 -0.2)">
       <defs>
        <path d="M 3347 4400 
L 3347 3909 
Q 3131 3700 2773 3181 
Q 2416 2663 2141 2063 
Q 1869 1478 1728 997 
Q 1638 688 1494 0 
L 872 0 
Q 1084 1281 1809 2550 
Q 2238 3294 2709 3834 
L 234 3834 
L 234 4400 
L 3347 4400 
z
" id="Helvetica-37" transform="scale(0.015625)"/>
       </defs>
       <use xlink:href="#Helvetica-30"/>
       <use x="55.615234" xlink:href="#Helvetica-2e"/>
       <use x="83.398438" xlink:href="#Helvetica-37"/>
       <use x="139.013672" xlink:href="#Helvetica-35"/>
      </g>
     </g>
    </g>
    <g id="ytick_5">
     <g id="text_8">
      <!-- 1.0 -->
      <g style="fill:#262626;" transform="translate(60.14 35.973437)scale(0.2 -0.2)">
       <use xlink:href="#Helvetica-31"/>
       <use x="55.615234" xlink:href="#Helvetica-2e"/>
       <use x="83.398438" xlink:href="#Helvetica-30"/>
      </g>
     </g>
    </g>
    <g id="text_9">
     <!-- Probability -->
     <g style="fill:#262626;" transform="translate(39.65875 143.579375)rotate(-90)scale(0.25 -0.25)">
      <defs>
       <path d="M 428 3347 
L 963 3347 
L 963 2769 
Q 1028 2938 1284 3180 
Q 1541 3422 1875 3422 
Q 1891 3422 1928 3419 
Q 1966 3416 2056 3406 
L 2056 2813 
Q 2006 2822 1964 2825 
Q 1922 2828 1872 2828 
Q 1447 2828 1219 2554 
Q 991 2281 991 1925 
L 991 0 
L 428 0 
L 428 3347 
z
" id="Helvetica-72" transform="scale(0.015625)"/>
       <path d="M 369 4606 
L 916 4606 
L 916 2941 
Q 1100 3181 1356 3307 
Q 1613 3434 1913 3434 
Q 2538 3434 2927 3004 
Q 3316 2575 3316 1738 
Q 3316 944 2931 419 
Q 2547 -106 1866 -106 
Q 1484 -106 1222 78 
Q 1066 188 888 428 
L 888 0 
L 369 0 
L 369 4606 
z
M 1831 391 
Q 2288 391 2514 753 
Q 2741 1116 2741 1709 
Q 2741 2238 2514 2584 
Q 2288 2931 1847 2931 
Q 1463 2931 1173 2647 
Q 884 2363 884 1709 
Q 884 1238 1003 944 
Q 1225 391 1831 391 
z
" id="Helvetica-62" transform="scale(0.015625)"/>
       <path d="M 844 891 
Q 844 647 1022 506 
Q 1200 366 1444 366 
Q 1741 366 2019 503 
Q 2488 731 2488 1250 
L 2488 1703 
Q 2384 1638 2221 1594 
Q 2059 1550 1903 1531 
L 1563 1488 
Q 1256 1447 1103 1359 
Q 844 1213 844 891 
z
M 2206 2028 
Q 2400 2053 2466 2191 
Q 2503 2266 2503 2406 
Q 2503 2694 2298 2823 
Q 2094 2953 1713 2953 
Q 1272 2953 1088 2716 
Q 984 2584 953 2325 
L 428 2325 
Q 444 2944 830 3186 
Q 1216 3428 1725 3428 
Q 2316 3428 2684 3203 
Q 3050 2978 3050 2503 
L 3050 575 
Q 3050 488 3086 434 
Q 3122 381 3238 381 
Q 3275 381 3322 386 
Q 3369 391 3422 400 
L 3422 -16 
Q 3291 -53 3222 -62 
Q 3153 -72 3034 -72 
Q 2744 -72 2613 134 
Q 2544 244 2516 444 
Q 2344 219 2022 53 
Q 1700 -113 1313 -113 
Q 847 -113 551 170 
Q 256 453 256 878 
Q 256 1344 547 1600 
Q 838 1856 1309 1916 
L 2206 2028 
z
M 1741 3428 
L 1741 3428 
z
" id="Helvetica-61" transform="scale(0.015625)"/>
       <path d="M 428 4591 
L 991 4591 
L 991 0 
L 428 0 
L 428 4591 
z
" id="Helvetica-6c" transform="scale(0.015625)"/>
       <path d="M 2503 3347 
L 3125 3347 
Q 3006 3025 2597 1878 
Q 2291 1016 2084 472 
Q 1597 -809 1397 -1090 
Q 1197 -1372 709 -1372 
Q 591 -1372 527 -1362 
Q 463 -1353 369 -1328 
L 369 -816 
Q 516 -856 581 -865 
Q 647 -875 697 -875 
Q 853 -875 926 -823 
Q 1000 -772 1050 -697 
Q 1066 -672 1162 -440 
Q 1259 -209 1303 -97 
L 66 3347 
L 703 3347 
L 1600 622 
L 2503 3347 
z
M 1597 3428 
L 1597 3428 
z
" id="Helvetica-79" transform="scale(0.015625)"/>
      </defs>
      <use xlink:href="#Helvetica-50"/>
      <use x="66.699219" xlink:href="#Helvetica-72"/>
      <use x="100" xlink:href="#Helvetica-6f"/>
      <use x="155.615234" xlink:href="#Helvetica-62"/>
      <use x="211.230469" xlink:href="#Helvetica-61"/>
      <use x="266.845703" xlink:href="#Helvetica-62"/>
      <use x="322.460938" xlink:href="#Helvetica-69"/>
      <use x="344.677734" xlink:href="#Helvetica-6c"/>
      <use x="366.894531" xlink:href="#Helvetica-69"/>
      <use x="389.111328" xlink:href="#Helvetica-74"/>
      <use x="416.894531" xlink:href="#Helvetica-79"/>
     </g>
    </g>
   </g>
   <g id="patch_83">
    <path d="M 94.94 141.64 
L 94.94 28.8 
" style="fill:none;stroke:#000000;stroke-linecap:square;stroke-linejoin:miter;"/>
   </g>
  </g>
 </g>
 <defs>
  <clipPath id="p309802ee18">
   <rect height="112.84" width="243.46" x="94.94" y="28.8"/>
  </clipPath>
 </defs>
</svg>
