<?xml version="1.0" encoding="utf-8" standalone="no"?>
<!DOCTYPE svg PUBLIC "-//W3C//DTD SVG 1.1//EN"
  "http://www.w3.org/Graphics/SVG/1.1/DTD/svg11.dtd">
<svg height="216pt" version="1.1" viewBox="0 0 360 216" width="360pt" xmlns="http://www.w3.org/2000/svg" xmlns:xlink="http://www.w3.org/1999/xlink">
 <metadata>
  <rdf:RDF xmlns:cc="http://creativecommons.org/ns#" xmlns:dc="http://purl.org/dc/elements/1.1/" xmlns:rdf="http://www.w3.org/1999/02/22-rdf-syntax-ns#">
   <cc:Work>
    <dc:type rdf:resource="http://purl.org/dc/dcmitype/StillImage"/>
    <dc:date>2022-12-27T08:51:24.126363</dc:date>
    <dc:format>image/svg+xml</dc:format>
    <dc:creator>
     <cc:Agent>
      <dc:title>Matplotlib v3.4.2, https://matplotlib.org/</dc:title>
     </cc:Agent>
    </dc:creator>
   </cc:Work>
  </rdf:RDF>
 </metadata>
 <defs>
  <style type="text/css">*{stroke-linecap:butt;stroke-linejoin:round;}</style>
 </defs>
 <g id="figure_1">
  <g id="patch_1">
   <path d="M 0 216 
L 360 216 
L 360 0 
L 0 0 
z
" style="fill:#ffffff;"/>
  </g>
  <g id="axes_1">
   <g id="patch_2">
    <path d="M 94.94 141.64 
L 338.4 141.64 
L 338.4 28.8 
L 94.94 28.8 
z
" style="fill:#ffffff;"/>
   </g>
   <g id="line2d_1">
    <path clip-path="url(#pc5b9a7bd42)" d="M 94.94 141.64 
L 338.4 141.64 
" style="fill:none;stroke:#000000;stroke-linecap:round;stroke-width:0.5;"/>
   </g>
   <g id="patch_3">
    <path clip-path="url(#pc5b9a7bd42)" d="M 102.72171 136.509934 
L 100.7494 130.978953 
L 98.652583 136.509934 
L 102.72171 136.509934 
z
M 99.829744 129.118929 
L 101.819032 129.118929 
L 106.533333 141.64 
L 104.603469 141.64 
L 103.287653 137.889952 
L 98.148894 137.889952 
L 96.742527 141.64 
L 94.94 141.64 
L 99.829744 129.118929 
z
M 100.740911 129.118929 
L 100.740911 129.118929 
z
" style="fill:#008000;"/>
   </g>
   <g id="patch_4">
    <path clip-path="url(#pc5b9a7bd42)" d="M 106.533333 104.831162 
L 106.533333 107.724956 
L 101.718599 107.724956 
L 101.718599 129.118929 
L 99.754735 129.118929 
L 99.754735 107.724956 
L 94.94 107.724956 
L 94.94 104.831162 
L 106.533333 104.831162 
z
" style="fill:#ff0000;"/>
   </g>
   <g id="patch_5">
    <path clip-path="url(#pc5b9a7bd42)" d="M 101.035611 71.718371 
Q 103.518269 71.718371 104.887718 74.868709 
Q 106.257166 78.012199 106.408062 82.011758 
L 104.682728 82.011758 
Q 104.389478 78.977846 103.512575 77.204068 
Q 102.635673 75.423443 101.052693 75.423443 
Q 99.122369 75.423443 97.935134 78.690206 
Q 96.747899 81.950121 96.747899 88.689104 
Q 96.747899 94.215893 97.818404 97.65387 
Q 98.891755 101.084999 101.018528 101.084999 
Q 102.974476 101.084999 103.999427 97.468959 
Q 104.540373 95.565059 104.807999 92.455813 
L 106.533333 92.455813 
Q 106.302719 97.421019 105.004448 100.783662 
Q 103.447092 104.831162 100.804997 104.831162 
Q 98.527328 104.831162 96.978513 101.50961 
Q 94.94 97.126531 94.94 87.963157 
Q 94.94 81.011868 96.471732 76.560304 
Q 98.125889 71.718371 101.035611 71.718371 
z
M 100.679725 71.718371 
L 100.679725 71.718371 
z
" style="fill:#0000ff;"/>
   </g>
   <g id="patch_6">
    <path clip-path="url(#pc5b9a7bd42)" d="M 100.919108 28.862098 
Q 102.707589 28.862098 104.012322 31.079872 
Q 105.903081 34.264596 106.326013 42.248584 
L 104.62599 42.248584 
Q 104.313627 37.786422 103.337841 35.74607 
Q 102.362055 33.705717 100.87488 33.705717 
Q 99.114042 33.705717 97.908822 37.954973 
Q 96.703602 42.195358 96.703602 50.596287 
Q 96.703602 57.852845 97.695974 62.41259 
Q 98.69111 66.972334 100.935694 66.972334 
Q 102.655068 66.972334 103.782888 63.778739 
Q 104.910709 60.576272 104.935587 53.417297 
L 100.963337 53.417297 
L 100.963337 48.848681 
L 106.533333 48.848681 
L 106.533333 70.636097 
L 105.427627 70.636097 
L 105.012987 65.393279 
Q 104.142243 68.47155 103.467762 69.669148 
Q 102.334413 71.718371 100.590161 71.718371 
Q 98.337283 71.718371 96.711895 67.034432 
Q 94.94 61.152894 94.94 50.897905 
Q 94.94 40.669529 96.667667 34.628311 
Q 98.309641 28.862098 100.919108 28.862098 
z
M 100.634389 28.8 
L 100.634389 28.8 
z
" style="fill:#ffa600;"/>
   </g>
   <g id="patch_7">
    <path clip-path="url(#pc5b9a7bd42)" d="M 114.925219 135.706436 
L 112.952909 129.309164 
L 110.856092 135.706436 
L 114.925219 135.706436 
z
M 112.033252 127.157813 
L 114.022541 127.157813 
L 118.736842 141.64 
L 116.806978 141.64 
L 115.491162 137.302599 
L 110.352403 137.302599 
L 108.946036 141.64 
L 107.143509 141.64 
L 112.033252 127.157813 
z
M 112.94442 127.157813 
L 112.94442 127.157813 
z
" style="fill:#008000;"/>
   </g>
   <g id="patch_8">
    <path clip-path="url(#pc5b9a7bd42)" d="M 118.736842 102.870046 
L 118.736842 105.76384 
L 113.922107 105.76384 
L 113.922107 127.157813 
L 111.958243 127.157813 
L 111.958243 105.76384 
L 107.143509 105.76384 
L 107.143509 102.870046 
L 118.736842 102.870046 
z
" style="fill:#ff0000;"/>
   </g>
   <g id="patch_9">
    <path clip-path="url(#pc5b9a7bd42)" d="M 113.239119 67.796139 
Q 115.721778 67.796139 117.091227 71.133057 
Q 118.460675 74.46272 118.61157 78.699155 
L 116.886236 78.699155 
Q 116.592987 75.485558 115.716084 73.606728 
Q 114.839182 71.720644 113.256202 71.720644 
Q 111.325878 71.720644 110.138643 75.180883 
Q 108.951408 78.633867 108.951408 85.77197 
Q 108.951408 91.626084 110.021913 95.267677 
Q 111.095264 98.902015 113.222037 98.902015 
Q 115.177985 98.902015 116.202936 95.071814 
Q 116.743882 93.055155 117.011508 89.761762 
L 118.736842 89.761762 
Q 118.506228 95.021035 117.207957 98.582832 
Q 115.650601 102.870046 113.008505 102.870046 
Q 110.730837 102.870046 109.182022 99.351774 
Q 107.143509 94.709106 107.143509 85.003028 
Q 107.143509 77.640046 108.675241 72.924836 
Q 110.329398 67.796139 113.239119 67.796139 
z
M 112.883234 67.796139 
L 112.883234 67.796139 
z
" style="fill:#0000ff;"/>
   </g>
   <g id="patch_10">
    <path clip-path="url(#pc5b9a7bd42)" d="M 113.122617 28.856423 
Q 114.911097 28.856423 116.215831 30.871519 
Q 118.106589 33.765197 118.529522 41.019543 
L 116.829498 41.019543 
Q 116.517136 36.965169 115.54135 35.111281 
Q 114.565564 33.257392 113.078389 33.257392 
Q 111.317551 33.257392 110.112331 37.118317 
Q 108.907111 40.97118 108.907111 48.604364 
Q 108.907111 55.197758 109.899482 59.340796 
Q 110.894618 63.483833 113.139203 63.483833 
Q 114.858576 63.483833 115.986397 60.582095 
Q 117.114218 57.672296 117.139096 51.167566 
L 113.166845 51.167566 
L 113.166845 47.016468 
L 118.736842 47.016468 
L 118.736842 66.812772 
L 117.631136 66.812772 
L 117.216496 62.049085 
Q 116.345752 64.846038 115.671271 65.93419 
Q 114.537921 67.796139 112.793669 67.796139 
Q 110.540792 67.796139 108.915404 63.540256 
Q 107.143509 58.196221 107.143509 48.878417 
Q 107.143509 39.584794 108.871175 34.095672 
Q 110.51315 28.856423 113.122617 28.856423 
z
M 112.837898 28.8 
L 112.837898 28.8 
z
" style="fill:#ffa600;"/>
   </g>
   <g id="patch_11">
    <path clip-path="url(#pc5b9a7bd42)" d="M 127.128728 134.501189 
L 125.156418 126.80448 
L 123.059601 134.501189 
L 127.128728 134.501189 
z
M 124.236761 124.216139 
L 126.226049 124.216139 
L 130.940351 141.64 
L 129.010487 141.64 
L 127.69467 136.421571 
L 122.555912 136.421571 
L 121.149545 141.64 
L 119.347018 141.64 
L 124.236761 124.216139 
z
M 125.147929 124.216139 
L 125.147929 124.216139 
z
" style="fill:#008000;"/>
   </g>
   <g id="patch_12">
    <path clip-path="url(#pc5b9a7bd42)" d="M 130.940351 101.889488 
L 130.940351 104.549622 
L 126.125616 104.549622 
L 126.125616 124.216139 
L 124.161752 124.216139 
L 124.161752 104.549622 
L 119.347018 104.549622 
L 119.347018 101.889488 
L 130.940351 101.889488 
z
" style="fill:#ff0000;"/>
   </g>
   <g id="patch_13">
    <path clip-path="url(#pc5b9a7bd42)" d="M 125.326126 66.866329 
Q 127.114606 66.866329 128.41934 68.678746 
Q 130.310098 71.281378 130.733031 77.806082 
L 129.033007 77.806082 
Q 128.720645 74.159497 127.744859 72.492073 
Q 126.769073 70.824649 125.281898 70.824649 
Q 123.52106 70.824649 122.31584 74.297241 
Q 121.11062 77.762584 121.11062 84.628022 
Q 121.11062 90.558252 122.102991 94.284583 
Q 123.098127 98.010914 125.342711 98.010914 
Q 127.062085 98.010914 128.189906 95.401032 
Q 129.317726 92.783901 129.342605 86.933417 
L 125.370354 86.933417 
L 125.370354 83.199837 
L 130.940351 83.199837 
L 130.940351 101.005028 
L 129.834644 101.005028 
L 129.420004 96.720472 
Q 128.54926 99.236108 127.874779 100.214814 
Q 126.74143 101.889488 124.997178 101.889488 
Q 122.744301 101.889488 121.118912 98.061661 
Q 119.347018 93.25513 119.347018 84.874511 
Q 119.347018 76.51564 121.074684 71.578615 
Q 122.716658 66.866329 125.326126 66.866329 
z
M 125.041406 66.815581 
L 125.041406 66.815581 
z
" style="fill:#ffa600;"/>
   </g>
   <g id="patch_14">
    <path clip-path="url(#pc5b9a7bd42)" d="M 125.442628 28.8 
Q 127.925287 28.8 129.294735 32.416787 
Q 130.664184 36.025712 130.815079 40.61746 
L 129.089745 40.61746 
Q 128.796495 37.134336 127.919593 35.097928 
Q 127.04269 33.053657 125.459711 33.053657 
Q 123.529387 33.053657 122.342152 36.804108 
Q 121.154917 40.546697 121.154917 48.283477 
Q 121.154917 54.62858 122.225421 58.575596 
Q 123.298773 62.514749 125.425546 62.514749 
Q 127.381494 62.514749 128.406445 58.363306 
Q 128.947391 56.177508 129.215017 52.607896 
L 130.940351 52.607896 
Q 130.709737 58.308268 129.411466 62.168795 
Q 127.85411 66.815581 125.212014 66.815581 
Q 122.934346 66.815581 121.385531 63.002229 
Q 119.347018 57.970177 119.347018 47.450043 
Q 119.347018 39.469523 120.87875 34.358845 
Q 122.532907 28.8 125.442628 28.8 
z
M 125.086742 28.8 
L 125.086742 28.8 
z
" style="fill:#0000ff;"/>
   </g>
   <g id="patch_15">
    <path clip-path="url(#pc5b9a7bd42)" d="M 139.332237 136.108185 
L 137.359927 130.144059 
L 135.26311 136.108185 
L 139.332237 136.108185 
z
M 136.44027 128.138371 
L 138.429558 128.138371 
L 143.14386 141.64 
L 141.213996 141.64 
L 139.898179 137.596275 
L 134.759421 137.596275 
L 133.353053 141.64 
L 131.550526 141.64 
L 136.44027 128.138371 
z
M 137.351438 128.138371 
L 137.351438 128.138371 
z
" style="fill:#008000;"/>
   </g>
   <g id="patch_16">
    <path clip-path="url(#pc5b9a7bd42)" d="M 143.14386 108.753394 
L 143.14386 111.06304 
L 138.329125 111.06304 
L 138.329125 128.138371 
L 136.365261 128.138371 
L 136.365261 111.06304 
L 131.550526 111.06304 
L 131.550526 108.753394 
L 143.14386 108.753394 
z
" style="fill:#ff0000;"/>
   </g>
   <g id="patch_17">
    <path clip-path="url(#pc5b9a7bd42)" d="M 137.646137 70.737813 
Q 140.128796 70.737813 141.498244 74.354601 
Q 142.867692 77.963526 143.018588 82.555273 
L 141.293254 82.555273 
Q 141.000004 79.07215 140.123102 77.035741 
Q 139.246199 74.99147 137.66322 74.99147 
Q 135.732895 74.99147 134.545661 78.741921 
Q 133.358426 82.48451 133.358426 90.22129 
Q 133.358426 96.566393 134.42893 100.513409 
Q 135.502281 104.452562 137.629054 104.452562 
Q 139.585002 104.452562 140.609953 100.301119 
Q 141.1509 98.115322 141.418526 94.54571 
L 143.14386 94.54571 
Q 142.913246 100.246081 141.614975 104.106609 
Q 140.057619 108.753394 137.415523 108.753394 
Q 135.137854 108.753394 133.58904 104.940042 
Q 131.550526 99.90799 131.550526 89.387856 
Q 131.550526 81.407336 133.082258 76.296658 
Q 134.736415 70.737813 137.646137 70.737813 
z
M 137.290251 70.737813 
L 137.290251 70.737813 
z
" style="fill:#0000ff;"/>
   </g>
   <g id="patch_18">
    <path clip-path="url(#pc5b9a7bd42)" d="M 137.529635 28.860679 
Q 139.318115 28.860679 140.622849 31.027784 
Q 142.513607 34.139746 142.93654 41.941324 
L 141.236516 41.941324 
Q 140.924154 37.581109 139.948368 35.587372 
Q 138.972582 33.593636 137.485406 33.593636 
Q 135.724569 33.593636 134.519348 37.745809 
Q 133.314128 41.889313 133.314128 50.098307 
Q 133.314128 57.189074 134.3065 61.644641 
Q 135.301636 66.100209 137.54622 66.100209 
Q 139.265594 66.100209 140.393415 62.979578 
Q 141.521235 59.850278 141.546114 52.854864 
L 137.573863 52.854864 
L 137.573863 48.390628 
L 143.14386 48.390628 
L 143.14386 69.680266 
L 142.038153 69.680266 
L 141.623513 64.55723 
Q 140.752769 67.565172 140.078288 68.735408 
Q 138.944939 70.737813 137.200687 70.737813 
Q 134.94781 70.737813 133.322421 66.160888 
Q 131.550526 60.413726 131.550526 50.393033 
Q 131.550526 40.398345 133.278193 34.495152 
Q 134.920167 28.860679 137.529635 28.860679 
z
M 137.244915 28.8 
L 137.244915 28.8 
z
" style="fill:#ffa600;"/>
   </g>
   <g id="patch_19">
    <path clip-path="url(#pc5b9a7bd42)" d="M 151.535745 135.706436 
L 149.563435 129.309164 
L 147.466618 135.706436 
L 151.535745 135.706436 
z
M 148.643779 127.157813 
L 150.633067 127.157813 
L 155.347368 141.64 
L 153.417504 141.64 
L 152.101688 137.302599 
L 146.962929 137.302599 
L 145.556562 141.64 
L 143.754035 141.64 
L 148.643779 127.157813 
z
M 149.554946 127.157813 
L 149.554946 127.157813 
z
" style="fill:#008000;"/>
   </g>
   <g id="patch_20">
    <path clip-path="url(#pc5b9a7bd42)" d="M 149.849646 96.986697 
Q 152.332305 96.986697 153.701753 99.857165 
Q 155.071201 102.721393 155.222097 106.36564 
L 153.496763 106.36564 
Q 153.203513 103.601254 152.32661 101.985056 
Q 151.449708 100.362617 149.866728 100.362617 
Q 147.936404 100.362617 146.749169 103.339168 
Q 145.561935 106.309478 145.561935 112.449784 
Q 145.561935 117.485584 146.632439 120.618138 
Q 147.70579 123.744452 149.832563 123.744452 
Q 151.788511 123.744452 152.813462 120.449654 
Q 153.354408 118.714893 153.622034 115.881866 
L 155.347368 115.881866 
Q 155.116754 120.405973 153.818483 123.469886 
Q 152.261127 127.157813 149.619032 127.157813 
Q 147.341363 127.157813 145.792549 124.131341 
Q 143.754035 120.137647 143.754035 111.788328 
Q 143.754035 105.454578 145.285767 101.398482 
Q 146.939924 96.986697 149.849646 96.986697 
z
M 149.49376 96.986697 
L 149.49376 96.986697 
z
" style="fill:#0000ff;"/>
   </g>
   <g id="patch_21">
    <path clip-path="url(#pc5b9a7bd42)" d="M 155.347368 66.815581 
L 155.347368 70.410353 
L 150.532634 70.410353 
L 150.532634 96.986697 
L 148.56877 96.986697 
L 148.56877 70.410353 
L 143.754035 70.410353 
L 143.754035 66.815581 
L 155.347368 66.815581 
z
" style="fill:#ff0000;"/>
   </g>
   <g id="patch_22">
    <path clip-path="url(#pc5b9a7bd42)" d="M 149.733143 28.855004 
Q 151.521624 28.855004 152.826357 30.81943 
Q 154.717116 33.640347 155.140048 40.712282 
L 153.440025 40.712282 
Q 153.127662 36.759856 152.151876 34.952584 
Q 151.17609 33.145311 149.688915 33.145311 
Q 147.928077 33.145311 146.722857 36.909152 
Q 145.517637 40.665136 145.517637 48.106383 
Q 145.517637 54.533987 146.510009 58.572847 
Q 147.505145 62.611708 149.749729 62.611708 
Q 151.469103 62.611708 152.596923 59.782934 
Q 153.724744 56.946302 153.749622 50.605134 
L 149.777372 50.605134 
L 149.777372 46.558415 
L 155.347368 46.558415 
L 155.347368 65.856941 
L 154.241662 65.856941 
L 153.827022 61.213037 
Q 152.956278 63.939661 152.281797 65.000451 
Q 151.148448 66.815581 149.404196 66.815581 
Q 147.151319 66.815581 145.52593 62.666712 
Q 143.754035 57.457053 143.754035 48.373545 
Q 143.754035 39.31361 145.481702 33.962513 
Q 147.123676 28.855004 149.733143 28.855004 
z
M 149.448424 28.8 
L 149.448424 28.8 
z
" style="fill:#ffa600;"/>
   </g>
   <g id="patch_23">
    <path clip-path="url(#pc5b9a7bd42)" d="M 163.739254 134.902938 
L 161.766944 127.639375 
L 159.670127 134.902938 
L 163.739254 134.902938 
z
M 160.847288 125.196697 
L 162.836576 125.196697 
L 167.550877 141.64 
L 165.621013 141.64 
L 164.305197 136.715247 
L 159.166438 136.715247 
L 157.760071 141.64 
L 155.957544 141.64 
L 160.847288 125.196697 
z
M 161.758455 125.196697 
L 161.758455 125.196697 
z
" style="fill:#008000;"/>
   </g>
   <g id="patch_24">
    <path clip-path="url(#pc5b9a7bd42)" d="M 167.550877 104.831162 
L 167.550877 107.257637 
L 162.736143 107.257637 
L 162.736143 125.196697 
L 160.772279 125.196697 
L 160.772279 107.257637 
L 155.957544 107.257637 
L 155.957544 104.831162 
L 167.550877 104.831162 
z
" style="fill:#ff0000;"/>
   </g>
   <g id="patch_25">
    <path clip-path="url(#pc5b9a7bd42)" d="M 162.053155 67.796139 
Q 164.535813 67.796139 165.905262 71.319637 
Q 167.27471 74.835474 167.425605 79.308784 
L 165.700271 79.308784 
Q 165.407022 75.915503 164.530119 73.931621 
Q 163.653217 71.940078 162.070237 71.940078 
Q 160.139913 71.940078 158.952678 75.593792 
Q 157.765443 79.239846 157.765443 86.777067 
Q 157.765443 92.958507 158.835948 96.803715 
Q 159.909299 100.641264 162.036072 100.641264 
Q 163.99202 100.641264 165.016971 96.596901 
Q 165.557917 94.467483 165.825543 90.989944 
L 167.550877 90.989944 
Q 167.320263 96.543283 166.021992 100.304233 
Q 164.464636 104.831162 161.822541 104.831162 
Q 159.544872 104.831162 157.996057 101.11617 
Q 155.957544 96.213912 155.957544 85.965131 
Q 155.957544 78.190457 157.489276 73.211601 
Q 159.143433 67.796139 162.053155 67.796139 
z
M 161.697269 67.796139 
L 161.697269 67.796139 
z
" style="fill:#0000ff;"/>
   </g>
   <g id="patch_26">
    <path clip-path="url(#pc5b9a7bd42)" d="M 161.936652 28.856423 
Q 163.725132 28.856423 165.029866 30.871519 
Q 166.920624 33.765197 167.343557 41.019543 
L 165.643533 41.019543 
Q 165.331171 36.965169 164.355385 35.111281 
Q 163.379599 33.257392 161.892424 33.257392 
Q 160.131586 33.257392 158.926366 37.118317 
Q 157.721146 40.97118 157.721146 48.604364 
Q 157.721146 55.197758 158.713517 59.340796 
Q 159.708653 63.483833 161.953238 63.483833 
Q 163.672611 63.483833 164.800432 60.582095 
Q 165.928253 57.672296 165.953131 51.167566 
L 161.98088 51.167566 
L 161.98088 47.016468 
L 167.550877 47.016468 
L 167.550877 66.812772 
L 166.445171 66.812772 
L 166.030531 62.049085 
Q 165.159787 64.846038 164.485306 65.93419 
Q 163.351957 67.796139 161.607704 67.796139 
Q 159.354827 67.796139 157.729439 63.540256 
Q 155.957544 58.196221 155.957544 48.878417 
Q 155.957544 39.584794 157.68521 34.095672 
Q 159.327185 28.856423 161.936652 28.856423 
z
M 161.651933 28.8 
L 161.651933 28.8 
z
" style="fill:#ffa600;"/>
   </g>
   <g id="patch_27">
    <path clip-path="url(#pc5b9a7bd42)" d="M 175.942763 132.492444 
L 173.970453 122.630006 
L 171.873636 132.492444 
L 175.942763 132.492444 
z
M 173.050796 119.313349 
L 175.040084 119.313349 
L 179.754386 141.64 
L 177.824522 141.64 
L 176.508705 134.95319 
L 171.369947 134.95319 
L 169.96358 141.64 
L 168.161053 141.64 
L 173.050796 119.313349 
z
M 173.961964 119.313349 
L 173.961964 119.313349 
z
" style="fill:#008000;"/>
   </g>
   <g id="patch_28">
    <path clip-path="url(#pc5b9a7bd42)" d="M 174.256663 93.064465 
Q 176.739322 93.064465 178.10877 95.561773 
Q 179.478219 98.053653 179.629114 101.224149 
L 177.90378 101.224149 
Q 177.61053 98.819132 176.733628 97.413039 
Q 175.856726 96.001517 174.273746 96.001517 
Q 172.343422 96.001517 171.156187 98.591117 
Q 169.968952 101.175288 169.968952 106.517357 
Q 169.968952 110.898505 171.039456 113.623828 
Q 172.112808 116.343723 174.239581 116.343723 
Q 176.195529 116.343723 177.22048 113.477247 
Q 177.761426 111.968004 178.029052 109.503269 
L 179.754386 109.503269 
Q 179.523772 113.439245 178.225501 116.10485 
Q 176.668145 119.313349 174.026049 119.313349 
Q 171.748381 119.313349 170.199566 116.680317 
Q 168.161053 113.205801 168.161053 105.94189 
Q 168.161053 100.431525 169.692785 96.902719 
Q 171.346942 93.064465 174.256663 93.064465 
z
M 173.900778 93.064465 
L 173.900778 93.064465 
z
" style="fill:#0000ff;"/>
   </g>
   <g id="patch_29">
    <path clip-path="url(#pc5b9a7bd42)" d="M 179.754386 64.854465 
L 179.754386 68.215578 
L 174.939651 68.215578 
L 174.939651 93.064465 
L 172.975787 93.064465 
L 172.975787 68.215578 
L 168.161053 68.215578 
L 168.161053 64.854465 
L 179.754386 64.854465 
z
" style="fill:#ff0000;"/>
   </g>
   <g id="patch_30">
    <path clip-path="url(#pc5b9a7bd42)" d="M 174.140161 28.852166 
Q 175.928641 28.852166 177.233375 30.715254 
Q 179.124133 33.390647 179.547066 40.097761 
L 177.847042 40.097761 
Q 177.53468 36.34923 176.558894 34.635189 
Q 175.583108 32.921149 174.095933 32.921149 
Q 172.335095 32.921149 171.129875 36.490824 
Q 169.924655 40.053047 169.924655 47.110422 
Q 169.924655 53.206443 170.917026 57.036951 
Q 171.912162 60.867458 174.156746 60.867458 
Q 175.87612 60.867458 177.003941 58.184612 
Q 178.131762 55.494314 178.15664 49.480269 
L 174.184389 49.480269 
L 174.184389 45.642309 
L 179.754386 45.642309 
L 179.754386 63.945278 
L 178.648679 63.945278 
L 178.234039 59.54094 
Q 177.363296 62.126905 176.688815 63.132972 
Q 175.555465 64.854465 173.811213 64.854465 
Q 171.558336 64.854465 169.932947 60.919624 
Q 168.161053 55.978717 168.161053 47.363801 
Q 168.161053 38.771243 169.888719 33.696193 
Q 171.530693 28.852166 174.140161 28.852166 
z
M 173.855441 28.8 
L 173.855441 28.8 
z
" style="fill:#ffa600;"/>
   </g>
   <g id="patch_31">
    <path clip-path="url(#pc5b9a7bd42)" d="M 188.146272 136.509934 
L 186.173962 130.978953 
L 184.077145 136.509934 
L 188.146272 136.509934 
z
M 185.254305 129.118929 
L 187.243593 129.118929 
L 191.957895 141.64 
L 190.028031 141.64 
L 188.712214 137.889952 
L 183.573456 137.889952 
L 182.167088 141.64 
L 180.364561 141.64 
L 185.254305 129.118929 
z
M 186.165473 129.118929 
L 186.165473 129.118929 
z
" style="fill:#008000;"/>
   </g>
   <g id="patch_32">
    <path clip-path="url(#pc5b9a7bd42)" d="M 191.957895 102.870046 
L 191.957895 105.997499 
L 187.14316 105.997499 
L 187.14316 129.118929 
L 185.179296 129.118929 
L 185.179296 105.997499 
L 180.364561 105.997499 
L 180.364561 102.870046 
L 191.957895 102.870046 
z
" style="fill:#ff0000;"/>
   </g>
   <g id="patch_33">
    <path clip-path="url(#pc5b9a7bd42)" d="M 186.460172 67.796139 
Q 188.942831 67.796139 190.312279 71.133057 
Q 191.681727 74.46272 191.832623 78.699155 
L 190.107289 78.699155 
Q 189.814039 75.485558 188.937137 73.606728 
Q 188.060234 71.720644 186.477255 71.720644 
Q 184.54693 71.720644 183.359696 75.180883 
Q 182.172461 78.633867 182.172461 85.77197 
Q 182.172461 91.626084 183.242965 95.267677 
Q 184.316316 98.902015 186.44309 98.902015 
Q 188.399038 98.902015 189.423988 95.071814 
Q 189.964935 93.055155 190.232561 89.761762 
L 191.957895 89.761762 
Q 191.727281 95.021035 190.42901 98.582832 
Q 188.871654 102.870046 186.229558 102.870046 
Q 183.951889 102.870046 182.403075 99.351774 
Q 180.364561 94.709106 180.364561 85.003028 
Q 180.364561 77.640046 181.896294 72.924836 
Q 183.55045 67.796139 186.460172 67.796139 
z
M 186.104286 67.796139 
L 186.104286 67.796139 
z
" style="fill:#0000ff;"/>
   </g>
   <g id="patch_34">
    <path clip-path="url(#pc5b9a7bd42)" d="M 186.34367 28.856423 
Q 188.13215 28.856423 189.436884 30.871519 
Q 191.327642 33.765197 191.750575 41.019543 
L 190.050551 41.019543 
Q 189.738189 36.965169 188.762403 35.111281 
Q 187.786617 33.257392 186.299441 33.257392 
Q 184.538604 33.257392 183.333384 37.118317 
Q 182.128163 40.97118 182.128163 48.604364 
Q 182.128163 55.197758 183.120535 59.340796 
Q 184.115671 63.483833 186.360255 63.483833 
Q 188.079629 63.483833 189.20745 60.582095 
Q 190.33527 57.672296 190.360149 51.167566 
L 186.387898 51.167566 
L 186.387898 47.016468 
L 191.957895 47.016468 
L 191.957895 66.812772 
L 190.852188 66.812772 
L 190.437548 62.049085 
Q 189.566804 64.846038 188.892323 65.93419 
Q 187.758974 67.796139 186.014722 67.796139 
Q 183.761845 67.796139 182.136456 63.540256 
Q 180.364561 58.196221 180.364561 48.878417 
Q 180.364561 39.584794 182.092228 34.095672 
Q 183.734202 28.856423 186.34367 28.856423 
z
M 186.05895 28.8 
L 186.05895 28.8 
z
" style="fill:#ffa600;"/>
   </g>
   <g id="patch_35">
    <path clip-path="url(#pc5b9a7bd42)" d="M 200.34978 135.706436 
L 198.377471 129.309164 
L 196.280653 135.706436 
L 200.34978 135.706436 
z
M 197.457814 127.157813 
L 199.447102 127.157813 
L 204.161404 141.64 
L 202.231539 141.64 
L 200.915723 137.302599 
L 195.776964 137.302599 
L 194.370597 141.64 
L 192.56807 141.64 
L 197.457814 127.157813 
z
M 198.368981 127.157813 
L 198.368981 127.157813 
z
" style="fill:#008000;"/>
   </g>
   <g id="patch_36">
    <path clip-path="url(#pc5b9a7bd42)" d="M 204.161404 99.928371 
L 204.161404 103.172655 
L 199.346669 103.172655 
L 199.346669 127.157813 
L 197.382805 127.157813 
L 197.382805 103.172655 
L 192.56807 103.172655 
L 192.56807 99.928371 
L 204.161404 99.928371 
z
" style="fill:#ff0000;"/>
   </g>
   <g id="patch_37">
    <path clip-path="url(#pc5b9a7bd42)" d="M 198.663681 65.835023 
Q 201.14634 65.835023 202.515788 69.078651 
Q 203.885236 72.315227 204.036132 76.433224 
L 202.310798 76.433224 
Q 202.017548 73.309469 201.140645 71.483166 
Q 200.263743 69.649811 198.680763 69.649811 
Q 196.750439 69.649811 195.563204 73.013312 
Q 194.37597 76.369762 194.37597 83.308305 
Q 194.37597 88.998756 195.446474 92.538541 
Q 196.519825 96.071275 198.646598 96.071275 
Q 200.602546 96.071275 201.627497 92.348154 
Q 202.168443 90.387875 202.43607 87.186555 
L 204.161404 87.186555 
Q 203.93079 92.298795 202.632518 95.761015 
Q 201.075163 99.928371 198.433067 99.928371 
Q 196.155398 99.928371 194.606584 96.508459 
Q 192.56807 91.995586 192.56807 82.56086 
Q 192.56807 75.403725 194.099802 70.820338 
Q 195.753959 65.835023 198.663681 65.835023 
z
M 198.307795 65.835023 
L 198.307795 65.835023 
z
" style="fill:#0000ff;"/>
   </g>
   <g id="patch_38">
    <path clip-path="url(#pc5b9a7bd42)" d="M 198.547178 28.853585 
Q 200.335659 28.853585 201.640393 30.767342 
Q 203.531151 33.515497 203.954084 40.405022 
L 202.25406 40.405022 
Q 201.941698 36.554543 200.965912 34.793886 
Q 199.990125 33.03323 198.50295 33.03323 
Q 196.742112 33.03323 195.536892 36.699988 
Q 194.331672 40.359091 194.331672 47.608402 
Q 194.331672 53.870215 195.324044 57.804899 
Q 196.31918 61.739583 198.563764 61.739583 
Q 200.283138 61.739583 201.410958 58.983773 
Q 202.538779 56.220308 202.563658 50.042701 
L 198.591407 50.042701 
L 198.591407 46.100362 
L 204.161404 46.100362 
L 204.161404 64.901109 
L 203.055697 64.901109 
L 202.641057 60.376988 
Q 201.770313 63.033283 201.095832 64.066711 
Q 199.962483 65.835023 198.218231 65.835023 
Q 195.965354 65.835023 194.339965 61.793168 
Q 192.56807 56.717885 192.56807 47.868673 
Q 192.56807 39.042427 194.295737 33.829353 
Q 195.937711 28.853585 198.547178 28.853585 
z
M 198.262459 28.8 
L 198.262459 28.8 
z
" style="fill:#ffa600;"/>
   </g>
   <g id="patch_39">
    <path clip-path="url(#pc5b9a7bd42)" d="M 216.364912 121.274465 
L 216.364912 123.70094 
L 211.550178 123.70094 
L 211.550178 141.64 
L 209.586314 141.64 
L 209.586314 123.70094 
L 204.771579 123.70094 
L 204.771579 121.274465 
L 216.364912 121.274465 
z
" style="fill:#ff0000;"/>
   </g>
   <g id="patch_40">
    <path clip-path="url(#pc5b9a7bd42)" d="M 212.553289 111.725159 
L 210.580979 101.429576 
L 208.484162 111.725159 
L 212.553289 111.725159 
z
M 209.661323 97.967255 
L 211.650611 97.967255 
L 216.364912 121.274465 
L 214.435048 121.274465 
L 213.119232 114.293978 
L 207.980473 114.293978 
L 206.574106 121.274465 
L 204.771579 121.274465 
L 209.661323 97.967255 
z
M 210.57249 97.967255 
L 210.57249 97.967255 
z
" style="fill:#008000;"/>
   </g>
   <g id="patch_41">
    <path clip-path="url(#pc5b9a7bd42)" d="M 210.750687 64.902375 
Q 212.539168 64.902375 213.843901 66.613453 
Q 215.73466 69.070562 216.157592 75.230445 
L 214.457568 75.230445 
Q 214.145206 71.787755 213.16942 70.213562 
Q 212.193634 68.63937 210.706459 68.63937 
Q 208.945621 68.63937 207.740401 71.917797 
Q 206.535181 75.189379 206.535181 81.670944 
Q 206.535181 87.269593 207.527553 90.78757 
Q 208.522688 94.305547 210.767273 94.305547 
Q 212.486647 94.305547 213.614467 91.841594 
Q 214.742288 89.370797 214.767166 83.847436 
L 210.794915 83.847436 
L 210.794915 80.322614 
L 216.364912 80.322614 
L 216.364912 97.132249 
L 215.259206 97.132249 
L 214.844566 93.087259 
Q 213.973822 95.462236 213.299341 96.386219 
Q 212.165992 97.967255 210.421739 97.967255 
Q 208.168862 97.967255 206.543474 94.353457 
Q 204.771579 89.815677 204.771579 81.903651 
Q 204.771579 74.012157 206.499245 69.351179 
Q 208.14122 64.902375 210.750687 64.902375 
z
M 210.465968 64.854465 
L 210.465968 64.854465 
z
" style="fill:#ffa600;"/>
   </g>
   <g id="patch_42">
    <path clip-path="url(#pc5b9a7bd42)" d="M 210.86719 28.8 
Q 213.349848 28.8 214.719297 32.230208 
Q 216.088745 35.652958 216.239641 40.007831 
L 214.514307 40.007831 
Q 214.221057 36.704391 213.344154 34.773035 
Q 212.467252 32.834222 210.884272 32.834222 
Q 208.953948 32.834222 207.766713 36.391199 
Q 206.579478 39.940718 206.579478 47.278379 
Q 206.579478 53.296156 207.649983 57.039557 
Q 208.723334 60.7755 210.850107 60.7755 
Q 212.806055 60.7755 213.831006 56.838219 
Q 214.371952 54.76518 214.639578 51.379714 
L 216.364912 51.379714 
Q 216.134298 56.78602 214.836027 60.447394 
Q 213.278671 64.854465 210.636576 64.854465 
Q 208.358907 64.854465 206.810092 61.237833 
Q 204.771579 56.46537 204.771579 46.48794 
Q 204.771579 38.919112 206.303311 34.07208 
Q 207.957468 28.8 210.86719 28.8 
z
M 210.511304 28.8 
L 210.511304 28.8 
z
" style="fill:#0000ff;"/>
   </g>
   <g id="patch_43">
    <path clip-path="url(#pc5b9a7bd42)" d="M 224.756798 135.304687 
L 222.784488 128.474269 
L 220.687671 135.304687 
L 224.756798 135.304687 
z
M 221.864831 126.177255 
L 223.85412 126.177255 
L 228.568421 141.64 
L 226.638557 141.64 
L 225.32274 137.008923 
L 220.183982 137.008923 
L 218.777615 141.64 
L 216.975088 141.64 
L 221.864831 126.177255 
z
M 222.775999 126.177255 
L 222.775999 126.177255 
z
" style="fill:#008000;"/>
   </g>
   <g id="patch_44">
    <path clip-path="url(#pc5b9a7bd42)" d="M 228.568421 103.850604 
L 228.568421 106.510738 
L 223.753686 106.510738 
L 223.753686 126.177255 
L 221.789822 126.177255 
L 221.789822 106.510738 
L 216.975088 106.510738 
L 216.975088 103.850604 
L 228.568421 103.850604 
z
" style="fill:#ff0000;"/>
   </g>
   <g id="patch_45">
    <path clip-path="url(#pc5b9a7bd42)" d="M 223.070698 76.621162 
Q 225.553357 76.621162 226.922805 79.21176 
Q 228.292254 81.796727 228.443149 85.08566 
L 226.717815 85.08566 
Q 226.424565 82.590802 225.547663 81.132182 
Q 224.670761 79.667931 223.087781 79.667931 
Q 221.157457 79.667931 219.970222 82.354269 
Q 218.782987 85.034975 218.782987 90.576603 
Q 218.782987 95.121413 219.853491 97.948545 
Q 220.926843 100.770044 223.053616 100.770044 
Q 225.009564 100.770044 226.034515 97.796488 
Q 226.575461 96.230865 226.843087 93.674057 
L 228.568421 93.674057 
Q 228.337807 97.757066 227.039536 100.522248 
Q 225.48218 103.850604 222.840084 103.850604 
Q 220.562416 103.850604 219.013601 101.119212 
Q 216.975088 97.514901 216.975088 89.979639 
Q 216.975088 84.263427 218.50682 80.602799 
Q 220.160977 76.621162 223.070698 76.621162 
z
M 222.714813 76.621162 
L 222.714813 76.621162 
z
" style="fill:#0000ff;"/>
   </g>
   <g id="patch_46">
    <path clip-path="url(#pc5b9a7bd42)" d="M 222.954196 28.869191 
Q 224.742676 28.869191 226.04741 31.340314 
Q 227.938168 34.888846 228.361101 43.784887 
L 226.661077 43.784887 
Q 226.348715 38.812988 225.372929 36.539556 
Q 224.397143 34.266123 222.909968 34.266123 
Q 221.14913 34.266123 219.94391 39.000794 
Q 218.73869 43.72558 218.73869 53.086192 
Q 218.73869 61.171704 219.731061 66.252332 
Q 220.726197 71.33296 222.970782 71.33296 
Q 224.690155 71.33296 225.817976 67.774543 
Q 226.945797 64.206243 226.970675 56.229459 
L 222.998424 56.229459 
L 222.998424 51.138947 
L 228.568421 51.138947 
L 228.568421 75.415254 
L 227.462714 75.415254 
L 227.048075 69.573521 
Q 226.177331 73.003439 225.50285 74.337845 
Q 224.3695 76.621162 222.625248 76.621162 
Q 220.372371 76.621162 218.746982 71.402151 
Q 216.975088 64.848734 216.975088 53.422264 
Q 216.975088 42.025447 218.702754 35.29411 
Q 220.344728 28.869191 222.954196 28.869191 
z
M 222.669477 28.8 
L 222.669477 28.8 
z
" style="fill:#ffa600;"/>
   </g>
   <g id="patch_47">
    <path clip-path="url(#pc5b9a7bd42)" d="M 236.960307 133.697691 
L 234.987997 125.134691 
L 232.89118 133.697691 
L 236.960307 133.697691 
z
M 234.06834 122.255023 
L 236.057628 122.255023 
L 240.77193 141.64 
L 238.842066 141.64 
L 237.526249 135.834218 
L 232.387491 135.834218 
L 230.981124 141.64 
L 229.178596 141.64 
L 234.06834 122.255023 
z
M 234.979508 122.255023 
L 234.979508 122.255023 
z
" style="fill:#008000;"/>
   </g>
   <g id="patch_48">
    <path clip-path="url(#pc5b9a7bd42)" d="M 240.77193 94.045023 
L 240.77193 97.406136 
L 235.957195 97.406136 
L 235.957195 122.255023 
L 233.993331 122.255023 
L 233.993331 97.406136 
L 229.178596 97.406136 
L 229.178596 94.045023 
L 240.77193 94.045023 
z
" style="fill:#ff0000;"/>
   </g>
   <g id="patch_49">
    <path clip-path="url(#pc5b9a7bd42)" d="M 235.274207 61.91279 
Q 237.756866 61.91279 239.126314 64.969838 
Q 240.495763 68.020241 240.646658 71.901362 
L 238.921324 71.901362 
Q 238.628074 68.957292 237.751172 67.236041 
Q 236.874269 65.508145 235.29129 65.508145 
Q 233.360966 65.508145 232.173731 68.678171 
Q 230.986496 71.841551 230.986496 78.380975 
Q 230.986496 83.7441 232.057 87.08027 
Q 233.130352 90.409794 235.257125 90.409794 
Q 237.213073 90.409794 238.238023 86.900835 
Q 238.77897 85.053314 239.046596 82.036141 
L 240.77193 82.036141 
Q 240.541316 86.854314 239.243045 90.117381 
Q 237.685689 94.045023 235.043593 94.045023 
Q 232.765925 94.045023 231.21711 90.821831 
Q 229.178596 86.568547 229.178596 77.676525 
Q 229.178596 70.931082 230.710329 66.61134 
Q 232.364485 61.91279 235.274207 61.91279 
z
M 234.918321 61.91279 
L 234.918321 61.91279 
z
" style="fill:#0000ff;"/>
   </g>
   <g id="patch_50">
    <path clip-path="url(#pc5b9a7bd42)" d="M 235.157705 28.84791 
Q 236.946185 28.84791 238.250919 30.558989 
Q 240.141677 33.016097 240.56461 39.17598 
L 238.864586 39.17598 
Q 238.552224 35.73329 237.576438 34.159098 
Q 236.600652 32.584906 235.113476 32.584906 
Q 233.352639 32.584906 232.147419 35.863332 
Q 230.942198 39.134914 230.942198 45.616479 
Q 230.942198 51.215128 231.93457 54.733105 
Q 232.929706 58.251083 235.17429 58.251083 
Q 236.893664 58.251083 238.021485 55.78713 
Q 239.149305 53.316332 239.174184 47.792971 
L 235.201933 47.792971 
L 235.201933 44.268149 
L 240.77193 44.268149 
L 240.77193 61.077784 
L 239.666223 61.077784 
L 239.251583 57.032795 
Q 238.380839 59.407772 237.706358 60.331754 
Q 236.573009 61.91279 234.828757 61.91279 
Q 232.57588 61.91279 230.950491 58.298993 
Q 229.178596 53.761213 229.178596 45.849186 
Q 229.178596 37.957692 230.906263 33.296714 
Q 232.548237 28.84791 235.157705 28.84791 
z
M 234.872985 28.8 
L 234.872985 28.8 
z
" style="fill:#ffa600;"/>
   </g>
   <g id="patch_51">
    <path clip-path="url(#pc5b9a7bd42)" d="M 249.163815 134.09944 
L 247.191506 125.969585 
L 245.094688 134.09944 
L 249.163815 134.09944 
z
M 246.271849 123.235581 
L 248.261137 123.235581 
L 252.975439 141.64 
L 251.045574 141.64 
L 249.729758 136.127895 
L 244.591 136.127895 
L 243.184632 141.64 
L 241.382105 141.64 
L 246.271849 123.235581 
z
M 247.183016 123.235581 
L 247.183016 123.235581 
z
" style="fill:#008000;"/>
   </g>
   <g id="patch_52">
    <path clip-path="url(#pc5b9a7bd42)" d="M 252.975439 101.889488 
L 252.975439 104.432792 
L 248.160704 104.432792 
L 248.160704 123.235581 
L 246.19684 123.235581 
L 246.19684 104.432792 
L 241.382105 104.432792 
L 241.382105 101.889488 
L 252.975439 101.889488 
z
" style="fill:#ff0000;"/>
   </g>
   <g id="patch_53">
    <path clip-path="url(#pc5b9a7bd42)" d="M 247.477716 69.757255 
Q 249.960375 69.757255 251.329823 72.814303 
Q 252.699271 75.864705 252.850167 79.745827 
L 251.124833 79.745827 
Q 250.831583 76.801757 249.954681 75.080506 
Q 249.077778 73.352609 247.494798 73.352609 
Q 245.564474 73.352609 244.37724 76.522635 
Q 243.190005 79.686015 243.190005 86.22544 
Q 243.190005 91.588565 244.260509 94.924735 
Q 245.33386 98.254259 247.460633 98.254259 
Q 249.416581 98.254259 250.441532 94.745299 
Q 250.982479 92.897779 251.250105 89.880606 
L 252.975439 89.880606 
Q 252.744825 94.698779 251.446554 97.961845 
Q 249.889198 101.889488 247.247102 101.889488 
Q 244.969433 101.889488 243.420619 98.666296 
Q 241.382105 94.413012 241.382105 85.520989 
Q 241.382105 78.775547 242.913837 74.455805 
Q 244.567994 69.757255 247.477716 69.757255 
z
M 247.12183 69.757255 
L 247.12183 69.757255 
z
" style="fill:#0000ff;"/>
   </g>
   <g id="patch_54">
    <path clip-path="url(#pc5b9a7bd42)" d="M 247.361214 28.85926 
Q 249.149694 28.85926 250.454428 30.975695 
Q 252.345186 34.014896 252.768119 41.634063 
L 251.068095 41.634063 
Q 250.755733 37.375796 249.779947 35.428675 
Q 248.804161 33.481555 247.316985 33.481555 
Q 245.556148 33.481555 244.350927 37.536645 
Q 243.145707 41.583269 243.145707 49.600326 
Q 243.145707 56.525302 244.138079 60.876693 
Q 245.133215 65.228084 247.377799 65.228084 
Q 249.097173 65.228084 250.224994 62.180417 
Q 251.352814 59.124284 251.377693 52.292431 
L 247.405442 52.292431 
L 247.405442 47.932575 
L 252.975439 47.932575 
L 252.975439 68.724435 
L 251.869732 68.724435 
L 251.455092 63.721182 
Q 250.584348 66.658794 249.909867 67.801669 
Q 248.776518 69.757255 247.032266 69.757255 
Q 244.779389 69.757255 243.154 65.287344 
Q 241.382105 59.674558 241.382105 49.888161 
Q 241.382105 40.127162 243.109772 34.361992 
Q 244.751746 28.85926 247.361214 28.85926 
z
M 247.076494 28.8 
L 247.076494 28.8 
z
" style="fill:#ffa600;"/>
   </g>
   <g id="patch_55">
    <path clip-path="url(#pc5b9a7bd42)" d="M 261.367324 134.902938 
L 259.395014 127.639375 
L 257.298197 134.902938 
L 261.367324 134.902938 
z
M 258.475358 125.196697 
L 260.464646 125.196697 
L 265.178947 141.64 
L 263.249083 141.64 
L 261.933267 136.715247 
L 256.794508 136.715247 
L 255.388141 141.64 
L 253.585614 141.64 
L 258.475358 125.196697 
z
M 259.386525 125.196697 
L 259.386525 125.196697 
z
" style="fill:#008000;"/>
   </g>
   <g id="patch_56">
    <path clip-path="url(#pc5b9a7bd42)" d="M 265.178947 103.850604 
L 265.178947 106.393909 
L 260.364213 106.393909 
L 260.364213 125.196697 
L 258.400349 125.196697 
L 258.400349 106.393909 
L 253.585614 106.393909 
L 253.585614 103.850604 
L 265.178947 103.850604 
z
" style="fill:#ff0000;"/>
   </g>
   <g id="patch_57">
    <path clip-path="url(#pc5b9a7bd42)" d="M 259.681225 67.796139 
Q 262.163884 67.796139 263.533332 71.226347 
Q 264.90278 74.649097 265.053676 79.003969 
L 263.328342 79.003969 
Q 263.035092 75.70053 262.158189 73.769174 
Q 261.281287 71.830361 259.698307 71.830361 
Q 257.767983 71.830361 256.580748 75.387338 
Q 255.393514 78.936857 255.393514 86.274518 
Q 255.393514 92.292295 256.464018 96.035696 
Q 257.537369 99.771639 259.664142 99.771639 
Q 261.62009 99.771639 262.645041 95.834358 
Q 263.185987 93.761319 263.453613 90.375853 
L 265.178947 90.375853 
Q 264.948333 95.782159 263.650062 99.443533 
Q 262.092706 103.850604 259.450611 103.850604 
Q 257.172942 103.850604 255.624127 100.233972 
Q 253.585614 95.461509 253.585614 85.484079 
Q 253.585614 77.915251 255.117346 73.068219 
Q 256.771503 67.796139 259.681225 67.796139 
z
M 259.325339 67.796139 
L 259.325339 67.796139 
z
" style="fill:#0000ff;"/>
   </g>
   <g id="patch_58">
    <path clip-path="url(#pc5b9a7bd42)" d="M 259.564722 28.856423 
Q 261.353203 28.856423 262.657936 30.871519 
Q 264.548695 33.765197 264.971627 41.019543 
L 263.271604 41.019543 
Q 262.959241 36.965169 261.983455 35.111281 
Q 261.007669 33.257392 259.520494 33.257392 
Q 257.759656 33.257392 256.554436 37.118317 
Q 255.349216 40.97118 255.349216 48.604364 
Q 255.349216 55.197758 256.341588 59.340796 
Q 257.336724 63.483833 259.581308 63.483833 
Q 261.300682 63.483833 262.428502 60.582095 
Q 263.556323 57.672296 263.581201 51.167566 
L 259.608951 51.167566 
L 259.608951 47.016468 
L 265.178947 47.016468 
L 265.178947 66.812772 
L 264.073241 66.812772 
L 263.658601 62.049085 
Q 262.787857 64.846038 262.113376 65.93419 
Q 260.980027 67.796139 259.235775 67.796139 
Q 256.982897 67.796139 255.357509 63.540256 
Q 253.585614 58.196221 253.585614 48.878417 
Q 253.585614 39.584794 255.313281 34.095672 
Q 256.955255 28.856423 259.564722 28.856423 
z
M 259.280003 28.8 
L 259.280003 28.8 
z
" style="fill:#ffa600;"/>
   </g>
   <g id="patch_59">
    <path clip-path="url(#pc5b9a7bd42)" d="M 273.570833 134.902938 
L 271.598523 127.639375 
L 269.501706 134.902938 
L 273.570833 134.902938 
z
M 270.678867 125.196697 
L 272.668155 125.196697 
L 277.382456 141.64 
L 275.452592 141.64 
L 274.136776 136.715247 
L 268.998017 136.715247 
L 267.59165 141.64 
L 265.789123 141.64 
L 270.678867 125.196697 
z
M 271.590034 125.196697 
L 271.590034 125.196697 
z
" style="fill:#008000;"/>
   </g>
   <g id="patch_60">
    <path clip-path="url(#pc5b9a7bd42)" d="M 277.382456 100.908929 
L 277.382456 103.802724 
L 272.567721 103.802724 
L 272.567721 125.196697 
L 270.603857 125.196697 
L 270.603857 103.802724 
L 265.789123 103.802724 
L 265.789123 100.908929 
L 277.382456 100.908929 
z
" style="fill:#ff0000;"/>
   </g>
   <g id="patch_61">
    <path clip-path="url(#pc5b9a7bd42)" d="M 271.884733 71.718371 
Q 274.367392 71.718371 275.736841 74.49555 
Q 277.106289 77.26669 277.257184 80.792499 
L 275.53185 80.792499 
Q 275.238601 78.117956 274.361698 76.554284 
Q 273.484796 74.984574 271.901816 74.984574 
Q 269.971492 74.984574 268.784257 77.864388 
Q 267.597022 80.738163 267.597022 86.67891 
Q 267.597022 91.551046 268.667527 94.581793 
Q 269.740878 97.606502 271.867651 97.606502 
Q 273.823599 97.606502 274.84855 94.418785 
Q 275.389496 92.740403 275.657122 89.999449 
L 277.382456 89.999449 
Q 277.151842 94.376523 275.853571 97.340859 
Q 274.296215 100.908929 271.65412 100.908929 
Q 269.376451 100.908929 267.827636 97.980818 
Q 265.789123 94.116917 265.789123 86.038951 
Q 265.789123 79.911047 267.320855 75.986774 
Q 268.975012 71.718371 271.884733 71.718371 
z
M 271.528848 71.718371 
L 271.528848 71.718371 
z
" style="fill:#0000ff;"/>
   </g>
   <g id="patch_62">
    <path clip-path="url(#pc5b9a7bd42)" d="M 271.768231 28.862098 
Q 273.556711 28.862098 274.861445 31.079872 
Q 276.752203 34.264596 277.175136 42.248584 
L 275.475112 42.248584 
Q 275.16275 37.786422 274.186964 35.74607 
Q 273.211178 33.705717 271.724003 33.705717 
Q 269.963165 33.705717 268.757945 37.954973 
Q 267.552725 42.195358 267.552725 50.596287 
Q 267.552725 57.852845 268.545096 62.41259 
Q 269.540232 66.972334 271.784817 66.972334 
Q 273.50419 66.972334 274.632011 63.778739 
Q 275.759832 60.576272 275.78471 53.417297 
L 271.812459 53.417297 
L 271.812459 48.848681 
L 277.382456 48.848681 
L 277.382456 70.636097 
L 276.27675 70.636097 
L 275.86211 65.393279 
Q 274.991366 68.47155 274.316885 69.669148 
Q 273.183535 71.718371 271.439283 71.718371 
Q 269.186406 71.718371 267.561018 67.034432 
Q 265.789123 61.152894 265.789123 50.897905 
Q 265.789123 40.669529 267.516789 34.628311 
Q 269.158764 28.862098 271.768231 28.862098 
z
M 271.483512 28.8 
L 271.483512 28.8 
z
" style="fill:#ffa600;"/>
   </g>
   <g id="patch_63">
    <path clip-path="url(#pc5b9a7bd42)" d="M 285.774342 134.902938 
L 283.802032 127.639375 
L 281.705215 134.902938 
L 285.774342 134.902938 
z
M 282.882375 125.196697 
L 284.871663 125.196697 
L 289.585965 141.64 
L 287.656101 141.64 
L 286.340284 136.715247 
L 281.201526 136.715247 
L 279.795159 141.64 
L 277.992632 141.64 
L 282.882375 125.196697 
z
M 283.793543 125.196697 
L 283.793543 125.196697 
z
" style="fill:#008000;"/>
   </g>
   <g id="patch_64">
    <path clip-path="url(#pc5b9a7bd42)" d="M 289.585965 101.889488 
L 289.585965 104.666452 
L 284.77123 104.666452 
L 284.77123 125.196697 
L 282.807366 125.196697 
L 282.807366 104.666452 
L 277.992632 104.666452 
L 277.992632 101.889488 
L 289.585965 101.889488 
z
" style="fill:#ff0000;"/>
   </g>
   <g id="patch_65">
    <path clip-path="url(#pc5b9a7bd42)" d="M 284.088242 70.737813 
Q 286.570901 70.737813 287.940349 73.701571 
Q 289.309798 76.658886 289.460693 80.421571 
L 287.735359 80.421571 
Q 287.442109 77.567343 286.565207 75.898618 
Q 285.688304 74.22345 284.105325 74.22345 
Q 282.175001 74.22345 280.987766 77.296739 
Q 279.800531 80.363584 279.800531 86.703449 
Q 279.800531 91.902911 280.871035 95.137274 
Q 281.944387 98.365193 284.07116 98.365193 
Q 286.027108 98.365193 287.052059 94.963314 
Q 287.593005 93.172173 287.860631 90.247073 
L 289.585965 90.247073 
Q 289.355351 94.918213 288.05708 98.081703 
Q 286.499724 101.889488 283.857628 101.889488 
Q 281.57996 101.889488 280.031145 98.764656 
Q 277.992632 94.641166 277.992632 86.020496 
Q 277.992632 79.4809 279.524364 75.292981 
Q 281.178521 70.737813 284.088242 70.737813 
z
M 283.732357 70.737813 
L 283.732357 70.737813 
z
" style="fill:#0000ff;"/>
   </g>
   <g id="patch_66">
    <path clip-path="url(#pc5b9a7bd42)" d="M 283.97174 28.860679 
Q 285.76022 28.860679 287.064954 31.027784 
Q 288.955712 34.139746 289.378645 41.941324 
L 287.678621 41.941324 
Q 287.366259 37.581109 286.390473 35.587372 
Q 285.414687 33.593636 283.927512 33.593636 
Q 282.166674 33.593636 280.961454 37.745809 
Q 279.756234 41.889313 279.756234 50.098307 
Q 279.756234 57.189074 280.748605 61.644641 
Q 281.743741 66.100209 283.988325 66.100209 
Q 285.707699 66.100209 286.83552 62.979578 
Q 287.963341 59.850278 287.988219 52.854864 
L 284.015968 52.854864 
L 284.015968 48.390628 
L 289.585965 48.390628 
L 289.585965 69.680266 
L 288.480258 69.680266 
L 288.065618 64.55723 
Q 287.194874 67.565172 286.520393 68.735408 
Q 285.387044 70.737813 283.642792 70.737813 
Q 281.389915 70.737813 279.764526 66.160888 
Q 277.992632 60.413726 277.992632 50.393033 
Q 277.992632 40.398345 279.720298 34.495152 
Q 281.362272 28.860679 283.97174 28.860679 
z
M 283.68702 28.8 
L 283.68702 28.8 
z
" style="fill:#ffa600;"/>
   </g>
   <g id="patch_67">
    <path clip-path="url(#pc5b9a7bd42)" d="M 297.977851 134.09944 
L 296.005541 125.969585 
L 293.908724 134.09944 
L 297.977851 134.09944 
z
M 295.085884 123.235581 
L 297.075172 123.235581 
L 301.789474 141.64 
L 299.85961 141.64 
L 298.543793 136.127895 
L 293.405035 136.127895 
L 291.998667 141.64 
L 290.19614 141.64 
L 295.085884 123.235581 
z
M 295.997052 123.235581 
L 295.997052 123.235581 
z
" style="fill:#008000;"/>
   </g>
   <g id="patch_68">
    <path clip-path="url(#pc5b9a7bd42)" d="M 301.789474 97.967255 
L 301.789474 100.977879 
L 296.974739 100.977879 
L 296.974739 123.235581 
L 295.010875 123.235581 
L 295.010875 100.977879 
L 290.19614 100.977879 
L 290.19614 97.967255 
L 301.789474 97.967255 
z
" style="fill:#ff0000;"/>
   </g>
   <g id="patch_69">
    <path clip-path="url(#pc5b9a7bd42)" d="M 296.291751 69.757255 
Q 298.77441 69.757255 300.143858 72.441143 
Q 301.513306 75.119197 301.664202 78.526569 
L 299.938868 78.526569 
Q 299.645618 75.941867 298.768716 74.430722 
Q 297.891813 72.913741 296.308834 72.913741 
Q 294.378509 72.913741 293.191275 75.696817 
Q 292.00404 78.474058 292.00404 84.215245 
Q 292.00404 88.923718 293.074544 91.852657 
Q 294.147895 94.775762 296.274669 94.775762 
Q 298.230616 94.775762 299.255567 91.695125 
Q 299.796514 90.073123 300.06414 87.424242 
L 301.789474 87.424242 
Q 301.55886 91.654283 300.260589 94.519042 
Q 298.703233 97.967255 296.061137 97.967255 
Q 293.783468 97.967255 292.234654 95.137503 
Q 290.19614 91.403398 290.19614 83.596784 
Q 290.19614 77.674726 291.727873 73.882275 
Q 293.382029 69.757255 296.291751 69.757255 
z
M 295.935865 69.757255 
L 295.935865 69.757255 
z
" style="fill:#0000ff;"/>
   </g>
   <g id="patch_70">
    <path clip-path="url(#pc5b9a7bd42)" d="M 296.175249 28.85926 
Q 297.963729 28.85926 299.268463 30.975695 
Q 301.159221 34.014896 301.582154 41.634063 
L 299.88213 41.634063 
Q 299.569768 37.375796 298.593982 35.428675 
Q 297.618196 33.481555 296.13102 33.481555 
Q 294.370183 33.481555 293.164962 37.536645 
Q 291.959742 41.583269 291.959742 49.600326 
Q 291.959742 56.525302 292.952114 60.876693 
Q 293.94725 65.228084 296.191834 65.228084 
Q 297.911208 65.228084 299.039029 62.180417 
Q 300.166849 59.124284 300.191728 52.292431 
L 296.219477 52.292431 
L 296.219477 47.932575 
L 301.789474 47.932575 
L 301.789474 68.724435 
L 300.683767 68.724435 
L 300.269127 63.721182 
Q 299.398383 66.658794 298.723902 67.801669 
Q 297.590553 69.757255 295.846301 69.757255 
Q 293.593424 69.757255 291.968035 65.287344 
Q 290.19614 59.674558 290.19614 49.888161 
Q 290.19614 40.127162 291.923807 34.361992 
Q 293.565781 28.85926 296.175249 28.85926 
z
M 295.890529 28.8 
L 295.890529 28.8 
z
" style="fill:#ffa600;"/>
   </g>
   <g id="patch_71">
    <path clip-path="url(#pc5b9a7bd42)" d="M 310.181359 134.501189 
L 308.209049 126.80448 
L 306.112232 134.501189 
L 310.181359 134.501189 
z
M 307.289393 124.216139 
L 309.278681 124.216139 
L 313.992982 141.64 
L 312.063118 141.64 
L 310.747302 136.421571 
L 305.608543 136.421571 
L 304.202176 141.64 
L 302.399649 141.64 
L 307.289393 124.216139 
z
M 308.20056 124.216139 
L 308.20056 124.216139 
z
" style="fill:#008000;"/>
   </g>
   <g id="patch_72">
    <path clip-path="url(#pc5b9a7bd42)" d="M 313.992982 103.850604 
L 313.992982 106.277079 
L 309.178248 106.277079 
L 309.178248 124.216139 
L 307.214384 124.216139 
L 307.214384 106.277079 
L 302.399649 106.277079 
L 302.399649 103.850604 
L 313.992982 103.850604 
z
" style="fill:#ff0000;"/>
   </g>
   <g id="patch_73">
    <path clip-path="url(#pc5b9a7bd42)" d="M 308.49526 72.698929 
Q 310.977919 72.698929 312.347367 75.662687 
Q 313.716815 78.620003 313.867711 82.382687 
L 312.142377 82.382687 
Q 311.849127 79.528459 310.972224 77.859734 
Q 310.095322 76.184567 308.512342 76.184567 
Q 306.582018 76.184567 305.394783 79.257855 
Q 304.207549 82.3247 304.207549 88.664565 
Q 304.207549 93.864028 305.278053 97.09839 
Q 306.351404 100.326309 308.478177 100.326309 
Q 310.434125 100.326309 311.459076 96.92443 
Q 312.000022 95.133289 312.267648 92.208189 
L 313.992982 92.208189 
Q 313.762369 96.879329 312.464097 100.042819 
Q 310.906741 103.850604 308.264646 103.850604 
Q 305.986977 103.850604 304.438163 100.725772 
Q 302.399649 96.602282 302.399649 87.981612 
Q 302.399649 81.442016 303.931381 77.254097 
Q 305.585538 72.698929 308.49526 72.698929 
z
M 308.139374 72.698929 
L 308.139374 72.698929 
z
" style="fill:#0000ff;"/>
   </g>
   <g id="patch_74">
    <path clip-path="url(#pc5b9a7bd42)" d="M 308.378757 28.863516 
Q 310.167238 28.863516 311.471971 31.13196 
Q 313.36273 34.389446 313.785662 42.555845 
L 312.085639 42.555845 
Q 311.773277 37.991735 310.79749 35.904767 
Q 309.821704 33.817798 308.334529 33.817798 
Q 306.573691 33.817798 305.368471 38.164137 
Q 304.163251 42.501402 304.163251 51.094268 
Q 304.163251 58.516617 305.155623 63.180538 
Q 306.150759 67.844459 308.395343 67.844459 
Q 310.114717 67.844459 311.242537 64.5779 
Q 312.370358 61.302266 312.395236 53.979729 
L 308.422986 53.979729 
L 308.422986 49.306734 
L 313.992982 49.306734 
L 313.992982 71.591929 
L 312.887276 71.591929 
L 312.472636 66.229327 
Q 311.601892 69.377927 310.927411 70.602887 
Q 309.794062 72.698929 308.04981 72.698929 
Q 305.796933 72.698929 304.171544 67.907976 
Q 302.399649 61.892062 302.399649 51.402777 
Q 302.399649 40.940713 304.127316 34.761471 
Q 305.76929 28.863516 308.378757 28.863516 
z
M 308.094038 28.8 
L 308.094038 28.8 
z
" style="fill:#ffa600;"/>
   </g>
   <g id="patch_75">
    <path clip-path="url(#pc5b9a7bd42)" d="M 322.384868 134.501189 
L 320.412558 126.80448 
L 318.315741 134.501189 
L 322.384868 134.501189 
z
M 319.492902 124.216139 
L 321.48219 124.216139 
L 326.196491 141.64 
L 324.266627 141.64 
L 322.950811 136.421571 
L 317.812052 136.421571 
L 316.405685 141.64 
L 314.603158 141.64 
L 319.492902 124.216139 
z
M 320.404069 124.216139 
L 320.404069 124.216139 
z
" style="fill:#008000;"/>
   </g>
   <g id="patch_76">
    <path clip-path="url(#pc5b9a7bd42)" d="M 326.196491 104.831162 
L 326.196491 107.140807 
L 321.381757 107.140807 
L 321.381757 124.216139 
L 319.417893 124.216139 
L 319.417893 107.140807 
L 314.603158 107.140807 
L 314.603158 104.831162 
L 326.196491 104.831162 
z
" style="fill:#ff0000;"/>
   </g>
   <g id="patch_77">
    <path clip-path="url(#pc5b9a7bd42)" d="M 320.698769 73.679488 
Q 323.181427 73.679488 324.550876 76.643246 
Q 325.920324 79.600561 326.071219 83.363245 
L 324.345885 83.363245 
Q 324.052636 80.509017 323.175733 78.840292 
Q 322.298831 77.165125 320.715851 77.165125 
Q 318.785527 77.165125 317.598292 80.238413 
Q 316.411057 83.305258 316.411057 89.645123 
Q 316.411057 94.844586 317.481562 98.078948 
Q 318.554913 101.306867 320.681686 101.306867 
Q 322.637634 101.306867 323.662585 97.904988 
Q 324.203531 96.113847 324.471157 93.188747 
L 326.196491 93.188747 
Q 325.965877 97.859887 324.667606 101.023377 
Q 323.11025 104.831162 320.468155 104.831162 
Q 318.190486 104.831162 316.641671 101.70633 
Q 314.603158 97.58284 314.603158 88.96217 
Q 314.603158 82.422574 316.13489 78.234655 
Q 317.789047 73.679488 320.698769 73.679488 
z
M 320.342883 73.679488 
L 320.342883 73.679488 
z
" style="fill:#0000ff;"/>
   </g>
   <g id="patch_78">
    <path clip-path="url(#pc5b9a7bd42)" d="M 320.582266 28.864935 
Q 322.370747 28.864935 323.67548 31.184049 
Q 325.566238 34.514296 325.989171 42.863105 
L 324.289147 42.863105 
Q 323.976785 38.197049 323.000999 36.063464 
Q 322.025213 33.929879 320.538038 33.929879 
Q 318.7772 33.929879 317.57198 38.373301 
Q 316.36676 42.807447 316.36676 51.592249 
Q 316.36676 59.180389 317.359132 63.948487 
Q 318.354267 68.716584 320.598852 68.716584 
Q 322.318225 68.716584 323.446046 65.377061 
Q 324.573867 62.028261 324.598745 54.542162 
L 320.626494 54.542162 
L 320.626494 49.764787 
L 326.196491 49.764787 
L 326.196491 72.54776 
L 325.090785 72.54776 
L 324.676145 67.065375 
Q 323.805401 70.284305 323.13092 71.536627 
Q 321.997571 73.679488 320.253318 73.679488 
Q 318.000441 73.679488 316.375053 68.781519 
Q 314.603158 62.63123 314.603158 51.907649 
Q 314.603158 41.211896 316.330824 34.894631 
Q 317.972799 28.864935 320.582266 28.864935 
z
M 320.297547 28.8 
L 320.297547 28.8 
z
" style="fill:#ffa600;"/>
   </g>
   <g id="patch_79">
    <path clip-path="url(#pc5b9a7bd42)" d="M 334.588377 134.902938 
L 332.616067 127.639375 
L 330.51925 134.902938 
L 334.588377 134.902938 
z
M 331.69641 125.196697 
L 333.685698 125.196697 
L 338.4 141.64 
L 336.470136 141.64 
L 335.154319 136.715247 
L 330.015561 136.715247 
L 328.609194 141.64 
L 326.806667 141.64 
L 331.69641 125.196697 
z
M 332.607578 125.196697 
L 332.607578 125.196697 
z
" style="fill:#008000;"/>
   </g>
   <g id="patch_80">
    <path clip-path="url(#pc5b9a7bd42)" d="M 338.4 102.870046 
L 338.4 105.53018 
L 333.585265 105.53018 
L 333.585265 125.196697 
L 331.621401 125.196697 
L 331.621401 105.53018 
L 326.806667 105.53018 
L 326.806667 102.870046 
L 338.4 102.870046 
z
" style="fill:#ff0000;"/>
   </g>
   <g id="patch_81">
    <path clip-path="url(#pc5b9a7bd42)" d="M 332.902277 69.757255 
Q 335.384936 69.757255 336.754384 72.907593 
Q 338.123833 76.051082 338.274728 80.050642 
L 336.549394 80.050642 
Q 336.256144 77.016729 335.379242 75.242952 
Q 334.50234 73.462326 332.91936 73.462326 
Q 330.989036 73.462326 329.801801 76.72909 
Q 328.614566 79.989005 328.614566 86.727988 
Q 328.614566 92.254777 329.68507 95.692754 
Q 330.758422 99.123883 332.885195 99.123883 
Q 334.841143 99.123883 335.866094 95.507843 
Q 336.40704 93.603943 336.674666 90.494697 
L 338.4 90.494697 
Q 338.169386 95.459903 336.871115 98.822546 
Q 335.313759 102.870046 332.671663 102.870046 
Q 330.393995 102.870046 328.84518 99.548494 
Q 326.806667 95.165415 326.806667 86.002041 
Q 326.806667 79.050752 328.338399 74.599188 
Q 329.992556 69.757255 332.902277 69.757255 
z
M 332.546392 69.757255 
L 332.546392 69.757255 
z
" style="fill:#0000ff;"/>
   </g>
   <g id="patch_82">
    <path clip-path="url(#pc5b9a7bd42)" d="M 332.785775 28.85926 
Q 334.574255 28.85926 335.878989 30.975695 
Q 337.769747 34.014896 338.19268 41.634063 
L 336.492656 41.634063 
Q 336.180294 37.375796 335.204508 35.428675 
Q 334.228722 33.481555 332.741547 33.481555 
Q 330.980709 33.481555 329.775489 37.536645 
Q 328.570269 41.583269 328.570269 49.600326 
Q 328.570269 56.525302 329.56264 60.876693 
Q 330.557776 65.228084 332.802361 65.228084 
Q 334.521734 65.228084 335.649555 62.180417 
Q 336.777376 59.124284 336.802254 52.292431 
L 332.830003 52.292431 
L 332.830003 47.932575 
L 338.4 47.932575 
L 338.4 68.724435 
L 337.294293 68.724435 
L 336.879653 63.721182 
Q 336.00891 66.658794 335.334429 67.801669 
Q 334.201079 69.757255 332.456827 69.757255 
Q 330.20395 69.757255 328.578561 65.287344 
Q 326.806667 59.674558 326.806667 49.888161 
Q 326.806667 40.127162 328.534333 34.361992 
Q 330.176307 28.85926 332.785775 28.85926 
z
M 332.501055 28.8 
L 332.501055 28.8 
z
" style="fill:#ffa600;"/>
   </g>
   <g id="matplotlib.axis_1">
    <g id="xtick_1">
     <g id="text_1">
      <!-- 0 -->
      <g style="fill:#262626;" transform="translate(95.175729 162.986875)scale(0.2 -0.2)">
       <defs>
        <path d="M 1731 4475 
Q 2600 4475 2988 3759 
Q 3288 3206 3288 2244 
Q 3288 1331 3016 734 
Q 2622 -122 1728 -122 
Q 922 -122 528 578 
Q 200 1163 200 2147 
Q 200 2909 397 3456 
Q 766 4475 1731 4475 
z
M 1725 391 
Q 2163 391 2422 778 
Q 2681 1166 2681 2222 
Q 2681 2984 2493 3476 
Q 2306 3969 1766 3969 
Q 1269 3969 1039 3501 
Q 809 3034 809 2125 
Q 809 1441 956 1025 
Q 1181 391 1725 391 
z
" id="Helvetica-30" transform="scale(0.015625)"/>
       </defs>
       <use xlink:href="#Helvetica-30"/>
      </g>
     </g>
    </g>
    <g id="xtick_2">
     <g id="text_2">
      <!-- 10 -->
      <g style="fill:#262626;" transform="translate(211.649879 162.986875)scale(0.2 -0.2)">
       <defs>
        <path d="M 613 3169 
L 613 3600 
Q 1222 3659 1462 3798 
Q 1703 3938 1822 4456 
L 2266 4456 
L 2266 0 
L 1666 0 
L 1666 3169 
L 613 3169 
z
" id="Helvetica-31" transform="scale(0.015625)"/>
       </defs>
       <use xlink:href="#Helvetica-31"/>
       <use x="55.615234" xlink:href="#Helvetica-30"/>
      </g>
     </g>
    </g>
    <g id="text_3">
     <!-- Position -->
     <g style="fill:#262626;" transform="translate(172.20125 189.089219)scale(0.25 -0.25)">
      <defs>
       <path d="M 547 4591 
L 2613 4591 
Q 3225 4591 3600 4245 
Q 3975 3900 3975 3275 
Q 3975 2738 3640 2339 
Q 3306 1941 2613 1941 
L 1169 1941 
L 1169 0 
L 547 0 
L 547 4591 
z
M 3347 3272 
Q 3347 3778 2972 3959 
Q 2766 4056 2406 4056 
L 1169 4056 
L 1169 2466 
L 2406 2466 
Q 2825 2466 3086 2644 
Q 3347 2822 3347 3272 
z
" id="Helvetica-50" transform="scale(0.015625)"/>
       <path d="M 1741 363 
Q 2300 363 2508 786 
Q 2716 1209 2716 1728 
Q 2716 2197 2566 2491 
Q 2328 2953 1747 2953 
Q 1231 2953 997 2559 
Q 763 2166 763 1609 
Q 763 1075 997 719 
Q 1231 363 1741 363 
z
M 1763 3444 
Q 2409 3444 2856 3012 
Q 3303 2581 3303 1744 
Q 3303 934 2909 406 
Q 2516 -122 1688 -122 
Q 997 -122 590 345 
Q 184 813 184 1600 
Q 184 2444 612 2944 
Q 1041 3444 1763 3444 
z
M 1744 3428 
L 1744 3428 
z
" id="Helvetica-6f" transform="scale(0.015625)"/>
       <path d="M 747 1050 
Q 772 769 888 619 
Q 1100 347 1625 347 
Q 1938 347 2175 483 
Q 2413 619 2413 903 
Q 2413 1119 2222 1231 
Q 2100 1300 1741 1391 
L 1294 1503 
Q 866 1609 663 1741 
Q 300 1969 300 2372 
Q 300 2847 642 3140 
Q 984 3434 1563 3434 
Q 2319 3434 2653 2991 
Q 2863 2709 2856 2384 
L 2325 2384 
Q 2309 2575 2191 2731 
Q 1997 2953 1519 2953 
Q 1200 2953 1036 2831 
Q 872 2709 872 2509 
Q 872 2291 1088 2159 
Q 1213 2081 1456 2022 
L 1828 1931 
Q 2434 1784 2641 1647 
Q 2969 1431 2969 969 
Q 2969 522 2630 197 
Q 2291 -128 1597 -128 
Q 850 -128 539 211 
Q 228 550 206 1050 
L 747 1050 
z
M 1578 3428 
L 1578 3428 
z
" id="Helvetica-73" transform="scale(0.015625)"/>
       <path d="M 413 3331 
L 984 3331 
L 984 0 
L 413 0 
L 413 3331 
z
M 413 4591 
L 984 4591 
L 984 3953 
L 413 3953 
L 413 4591 
z
" id="Helvetica-69" transform="scale(0.015625)"/>
       <path d="M 525 4281 
L 1094 4281 
L 1094 3347 
L 1628 3347 
L 1628 2888 
L 1094 2888 
L 1094 703 
Q 1094 528 1213 469 
Q 1278 434 1431 434 
Q 1472 434 1519 436 
Q 1566 438 1628 444 
L 1628 0 
Q 1531 -28 1426 -40 
Q 1322 -53 1200 -53 
Q 806 -53 665 148 
Q 525 350 525 672 
L 525 2888 
L 72 2888 
L 72 3347 
L 525 3347 
L 525 4281 
z
" id="Helvetica-74" transform="scale(0.015625)"/>
       <path d="M 413 3347 
L 947 3347 
L 947 2872 
Q 1184 3166 1450 3294 
Q 1716 3422 2041 3422 
Q 2753 3422 3003 2925 
Q 3141 2653 3141 2147 
L 3141 0 
L 2569 0 
L 2569 2109 
Q 2569 2416 2478 2603 
Q 2328 2916 1934 2916 
Q 1734 2916 1606 2875 
Q 1375 2806 1200 2600 
Q 1059 2434 1017 2257 
Q 975 2081 975 1753 
L 975 0 
L 413 0 
L 413 3347 
z
M 1734 3428 
L 1734 3428 
z
" id="Helvetica-6e" transform="scale(0.015625)"/>
      </defs>
      <use xlink:href="#Helvetica-50"/>
      <use x="66.699219" xlink:href="#Helvetica-6f"/>
      <use x="122.314453" xlink:href="#Helvetica-73"/>
      <use x="172.314453" xlink:href="#Helvetica-69"/>
      <use x="194.53125" xlink:href="#Helvetica-74"/>
      <use x="222.314453" xlink:href="#Helvetica-69"/>
      <use x="244.53125" xlink:href="#Helvetica-6f"/>
      <use x="300.146484" xlink:href="#Helvetica-6e"/>
     </g>
    </g>
   </g>
   <g id="matplotlib.axis_2">
    <g id="ytick_1">
     <g id="text_4">
      <!-- 0 -->
      <g style="fill:#262626;" transform="translate(76.818125 148.813438)scale(0.2 -0.2)">
       <use xlink:href="#Helvetica-30"/>
      </g>
     </g>
    </g>
    <g id="ytick_2">
     <g id="text_5">
      <!-- 0.25 -->
      <g style="fill:#262626;" transform="translate(49.018125 120.603437)scale(0.2 -0.2)">
       <defs>
        <path d="M 547 681 
L 1200 681 
L 1200 0 
L 547 0 
L 547 681 
z
" id="Helvetica-2e" transform="scale(0.015625)"/>
        <path d="M 200 0 
Q 231 578 439 1006 
Q 647 1434 1250 1784 
L 1850 2131 
Q 2253 2366 2416 2531 
Q 2672 2791 2672 3125 
Q 2672 3516 2437 3745 
Q 2203 3975 1813 3975 
Q 1234 3975 1013 3538 
Q 894 3303 881 2888 
L 309 2888 
Q 319 3472 525 3841 
Q 891 4491 1816 4491 
Q 2584 4491 2939 4075 
Q 3294 3659 3294 3150 
Q 3294 2613 2916 2231 
Q 2697 2009 2131 1694 
L 1703 1456 
Q 1397 1288 1222 1134 
Q 909 863 828 531 
L 3272 531 
L 3272 0 
L 200 0 
z
" id="Helvetica-32" transform="scale(0.015625)"/>
        <path d="M 791 1141 
Q 847 659 1238 475 
Q 1438 381 1700 381 
Q 2200 381 2440 700 
Q 2681 1019 2681 1406 
Q 2681 1875 2395 2131 
Q 2109 2388 1709 2388 
Q 1419 2388 1211 2275 
Q 1003 2163 856 1963 
L 369 1991 
L 709 4400 
L 3034 4400 
L 3034 3856 
L 1131 3856 
L 941 2613 
Q 1097 2731 1238 2791 
Q 1488 2894 1816 2894 
Q 2431 2894 2859 2497 
Q 3288 2100 3288 1491 
Q 3288 856 2895 371 
Q 2503 -113 1644 -113 
Q 1097 -113 676 195 
Q 256 503 206 1141 
L 791 1141 
z
" id="Helvetica-35" transform="scale(0.015625)"/>
       </defs>
       <use xlink:href="#Helvetica-30"/>
       <use x="55.615234" xlink:href="#Helvetica-2e"/>
       <use x="83.398438" xlink:href="#Helvetica-32"/>
       <use x="139.013672" xlink:href="#Helvetica-35"/>
      </g>
     </g>
    </g>
    <g id="ytick_3">
     <g id="text_6">
      <!-- 0.50 -->
      <g style="fill:#262626;" transform="translate(49.018125 92.393438)scale(0.2 -0.2)">
       <use xlink:href="#Helvetica-30"/>
       <use x="55.615234" xlink:href="#Helvetica-2e"/>
       <use x="83.398438" xlink:href="#Helvetica-35"/>
       <use x="139.013672" xlink:href="#Helvetica-30"/>
      </g>
     </g>
    </g>
    <g id="ytick_4">
     <g id="text_7">
      <!-- 0.75 -->
      <g style="fill:#262626;" transform="translate(49.018125 64.183437)scale(0.2 -0.2)">
       <defs>
        <path d="M 3347 4400 
L 3347 3909 
Q 3131 3700 2773 3181 
Q 2416 2663 2141 2063 
Q 1869 1478 1728 997 
Q 1638 688 1494 0 
L 872 0 
Q 1084 1281 1809 2550 
Q 2238 3294 2709 3834 
L 234 3834 
L 234 4400 
L 3347 4400 
z
" id="Helvetica-37" transform="scale(0.015625)"/>
       </defs>
       <use xlink:href="#Helvetica-30"/>
       <use x="55.615234" xlink:href="#Helvetica-2e"/>
       <use x="83.398438" xlink:href="#Helvetica-37"/>
       <use x="139.013672" xlink:href="#Helvetica-35"/>
      </g>
     </g>
    </g>
    <g id="ytick_5">
     <g id="text_8">
      <!-- 1.0 -->
      <g style="fill:#262626;" transform="translate(60.14 35.973437)scale(0.2 -0.2)">
       <use xlink:href="#Helvetica-31"/>
       <use x="55.615234" xlink:href="#Helvetica-2e"/>
       <use x="83.398438" xlink:href="#Helvetica-30"/>
      </g>
     </g>
    </g>
    <g id="text_9">
     <!-- Probability -->
     <g style="fill:#262626;" transform="translate(39.65875 143.579375)rotate(-90)scale(0.25 -0.25)">
      <defs>
       <path d="M 428 3347 
L 963 3347 
L 963 2769 
Q 1028 2938 1284 3180 
Q 1541 3422 1875 3422 
Q 1891 3422 1928 3419 
Q 1966 3416 2056 3406 
L 2056 2813 
Q 2006 2822 1964 2825 
Q 1922 2828 1872 2828 
Q 1447 2828 1219 2554 
Q 991 2281 991 1925 
L 991 0 
L 428 0 
L 428 3347 
z
" id="Helvetica-72" transform="scale(0.015625)"/>
       <path d="M 369 4606 
L 916 4606 
L 916 2941 
Q 1100 3181 1356 3307 
Q 1613 3434 1913 3434 
Q 2538 3434 2927 3004 
Q 3316 2575 3316 1738 
Q 3316 944 2931 419 
Q 2547 -106 1866 -106 
Q 1484 -106 1222 78 
Q 1066 188 888 428 
L 888 0 
L 369 0 
L 369 4606 
z
M 1831 391 
Q 2288 391 2514 753 
Q 2741 1116 2741 1709 
Q 2741 2238 2514 2584 
Q 2288 2931 1847 2931 
Q 1463 2931 1173 2647 
Q 884 2363 884 1709 
Q 884 1238 1003 944 
Q 1225 391 1831 391 
z
" id="Helvetica-62" transform="scale(0.015625)"/>
       <path d="M 844 891 
Q 844 647 1022 506 
Q 1200 366 1444 366 
Q 1741 366 2019 503 
Q 2488 731 2488 1250 
L 2488 1703 
Q 2384 1638 2221 1594 
Q 2059 1550 1903 1531 
L 1563 1488 
Q 1256 1447 1103 1359 
Q 844 1213 844 891 
z
M 2206 2028 
Q 2400 2053 2466 2191 
Q 2503 2266 2503 2406 
Q 2503 2694 2298 2823 
Q 2094 2953 1713 2953 
Q 1272 2953 1088 2716 
Q 984 2584 953 2325 
L 428 2325 
Q 444 2944 830 3186 
Q 1216 3428 1725 3428 
Q 2316 3428 2684 3203 
Q 3050 2978 3050 2503 
L 3050 575 
Q 3050 488 3086 434 
Q 3122 381 3238 381 
Q 3275 381 3322 386 
Q 3369 391 3422 400 
L 3422 -16 
Q 3291 -53 3222 -62 
Q 3153 -72 3034 -72 
Q 2744 -72 2613 134 
Q 2544 244 2516 444 
Q 2344 219 2022 53 
Q 1700 -113 1313 -113 
Q 847 -113 551 170 
Q 256 453 256 878 
Q 256 1344 547 1600 
Q 838 1856 1309 1916 
L 2206 2028 
z
M 1741 3428 
L 1741 3428 
z
" id="Helvetica-61" transform="scale(0.015625)"/>
       <path d="M 428 4591 
L 991 4591 
L 991 0 
L 428 0 
L 428 4591 
z
" id="Helvetica-6c" transform="scale(0.015625)"/>
       <path d="M 2503 3347 
L 3125 3347 
Q 3006 3025 2597 1878 
Q 2291 1016 2084 472 
Q 1597 -809 1397 -1090 
Q 1197 -1372 709 -1372 
Q 591 -1372 527 -1362 
Q 463 -1353 369 -1328 
L 369 -816 
Q 516 -856 581 -865 
Q 647 -875 697 -875 
Q 853 -875 926 -823 
Q 1000 -772 1050 -697 
Q 1066 -672 1162 -440 
Q 1259 -209 1303 -97 
L 66 3347 
L 703 3347 
L 1600 622 
L 2503 3347 
z
M 1597 3428 
L 1597 3428 
z
" id="Helvetica-79" transform="scale(0.015625)"/>
      </defs>
      <use xlink:href="#Helvetica-50"/>
      <use x="66.699219" xlink:href="#Helvetica-72"/>
      <use x="100" xlink:href="#Helvetica-6f"/>
      <use x="155.615234" xlink:href="#Helvetica-62"/>
      <use x="211.230469" xlink:href="#Helvetica-61"/>
      <use x="266.845703" xlink:href="#Helvetica-62"/>
      <use x="322.460938" xlink:href="#Helvetica-69"/>
      <use x="344.677734" xlink:href="#Helvetica-6c"/>
      <use x="366.894531" xlink:href="#Helvetica-69"/>
      <use x="389.111328" xlink:href="#Helvetica-74"/>
      <use x="416.894531" xlink:href="#Helvetica-79"/>
     </g>
    </g>
   </g>
   <g id="patch_83">
    <path d="M 94.94 141.64 
L 94.94 28.8 
" style="fill:none;stroke:#000000;stroke-linecap:square;stroke-linejoin:miter;"/>
   </g>
  </g>
 </g>
 <defs>
  <clipPath id="pc5b9a7bd42">
   <rect height="112.84" width="243.46" x="94.94" y="28.8"/>
  </clipPath>
 </defs>
</svg>
