<?xml version="1.0" encoding="utf-8" standalone="no"?>
<!DOCTYPE svg PUBLIC "-//W3C//DTD SVG 1.1//EN"
  "http://www.w3.org/Graphics/SVG/1.1/DTD/svg11.dtd">
<svg height="144pt" version="1.1" viewBox="0 0 144 144" width="144pt" xmlns="http://www.w3.org/2000/svg" xmlns:xlink="http://www.w3.org/1999/xlink">
 <metadata>
  <rdf:RDF xmlns:cc="http://creativecommons.org/ns#" xmlns:dc="http://purl.org/dc/elements/1.1/" xmlns:rdf="http://www.w3.org/1999/02/22-rdf-syntax-ns#">
   <cc:Work>
    <dc:type rdf:resource="http://purl.org/dc/dcmitype/StillImage"/>
    <dc:date>2022-12-27T08:50:59.562385</dc:date>
    <dc:format>image/svg+xml</dc:format>
    <dc:creator>
     <cc:Agent>
      <dc:title>Matplotlib v3.4.2, https://matplotlib.org/</dc:title>
     </cc:Agent>
    </dc:creator>
   </cc:Work>
  </rdf:RDF>
 </metadata>
 <defs>
  <style type="text/css">*{stroke-linecap:butt;stroke-linejoin:round;}</style>
 </defs>
 <g id="figure_1">
  <g id="patch_1">
   <path d="M 0 144 
L 144 144 
L 144 0 
L 0 0 
z
" style="fill:#ffffff;"/>
  </g>
  <g id="axes_1">
   <g id="patch_2">
    <path d="M 18 128.16 
L 129.6 128.16 
L 129.6 17.28 
L 18 17.28 
z
" style="fill:#ffffff;"/>
   </g>
   <g id="matplotlib.axis_1">
    <g id="xtick_1">
     <g id="text_1">
      <!-- Original -->
      <g style="fill:#262626;" transform="translate(51.08125 204.0725)rotate(-90)scale(0.2 -0.2)">
       <defs>
        <path d="M 309 2231 
Q 309 3372 921 4017 
Q 1534 4663 2503 4663 
Q 3138 4663 3647 4359 
Q 4156 4056 4423 3514 
Q 4691 2972 4691 2284 
Q 4691 1588 4409 1038 
Q 4128 488 3612 205 
Q 3097 -78 2500 -78 
Q 1853 -78 1343 234 
Q 834 547 571 1087 
Q 309 1628 309 2231 
z
M 934 2222 
Q 934 1394 1379 917 
Q 1825 441 2497 441 
Q 3181 441 3623 922 
Q 4066 1403 4066 2288 
Q 4066 2847 3877 3264 
Q 3688 3681 3323 3911 
Q 2959 4141 2506 4141 
Q 1863 4141 1398 3698 
Q 934 3256 934 2222 
z
" id="ArialMT-4f" transform="scale(0.015625)"/>
        <path d="M 416 0 
L 416 3319 
L 922 3319 
L 922 2816 
Q 1116 3169 1280 3281 
Q 1444 3394 1641 3394 
Q 1925 3394 2219 3213 
L 2025 2691 
Q 1819 2813 1613 2813 
Q 1428 2813 1281 2702 
Q 1134 2591 1072 2394 
Q 978 2094 978 1738 
L 978 0 
L 416 0 
z
" id="ArialMT-72" transform="scale(0.015625)"/>
        <path d="M 425 3934 
L 425 4581 
L 988 4581 
L 988 3934 
L 425 3934 
z
M 425 0 
L 425 3319 
L 988 3319 
L 988 0 
L 425 0 
z
" id="ArialMT-69" transform="scale(0.015625)"/>
        <path d="M 319 -275 
L 866 -356 
Q 900 -609 1056 -725 
Q 1266 -881 1628 -881 
Q 2019 -881 2231 -725 
Q 2444 -569 2519 -288 
Q 2563 -116 2559 434 
Q 2191 0 1641 0 
Q 956 0 581 494 
Q 206 988 206 1678 
Q 206 2153 378 2554 
Q 550 2956 876 3175 
Q 1203 3394 1644 3394 
Q 2231 3394 2613 2919 
L 2613 3319 
L 3131 3319 
L 3131 450 
Q 3131 -325 2973 -648 
Q 2816 -972 2473 -1159 
Q 2131 -1347 1631 -1347 
Q 1038 -1347 672 -1080 
Q 306 -813 319 -275 
z
M 784 1719 
Q 784 1066 1043 766 
Q 1303 466 1694 466 
Q 2081 466 2343 764 
Q 2606 1063 2606 1700 
Q 2606 2309 2336 2618 
Q 2066 2928 1684 2928 
Q 1309 2928 1046 2623 
Q 784 2319 784 1719 
z
" id="ArialMT-67" transform="scale(0.015625)"/>
        <path d="M 422 0 
L 422 3319 
L 928 3319 
L 928 2847 
Q 1294 3394 1984 3394 
Q 2284 3394 2536 3286 
Q 2788 3178 2913 3003 
Q 3038 2828 3088 2588 
Q 3119 2431 3119 2041 
L 3119 0 
L 2556 0 
L 2556 2019 
Q 2556 2363 2490 2533 
Q 2425 2703 2258 2804 
Q 2091 2906 1866 2906 
Q 1506 2906 1245 2678 
Q 984 2450 984 1813 
L 984 0 
L 422 0 
z
" id="ArialMT-6e" transform="scale(0.015625)"/>
        <path d="M 2588 409 
Q 2275 144 1986 34 
Q 1697 -75 1366 -75 
Q 819 -75 525 192 
Q 231 459 231 875 
Q 231 1119 342 1320 
Q 453 1522 633 1644 
Q 813 1766 1038 1828 
Q 1203 1872 1538 1913 
Q 2219 1994 2541 2106 
Q 2544 2222 2544 2253 
Q 2544 2597 2384 2738 
Q 2169 2928 1744 2928 
Q 1347 2928 1158 2789 
Q 969 2650 878 2297 
L 328 2372 
Q 403 2725 575 2942 
Q 747 3159 1072 3276 
Q 1397 3394 1825 3394 
Q 2250 3394 2515 3294 
Q 2781 3194 2906 3042 
Q 3031 2891 3081 2659 
Q 3109 2516 3109 2141 
L 3109 1391 
Q 3109 606 3145 398 
Q 3181 191 3288 0 
L 2700 0 
Q 2613 175 2588 409 
z
M 2541 1666 
Q 2234 1541 1622 1453 
Q 1275 1403 1131 1340 
Q 988 1278 909 1158 
Q 831 1038 831 891 
Q 831 666 1001 516 
Q 1172 366 1500 366 
Q 1825 366 2078 508 
Q 2331 650 2450 897 
Q 2541 1088 2541 1459 
L 2541 1666 
z
" id="ArialMT-61" transform="scale(0.015625)"/>
        <path d="M 409 0 
L 409 4581 
L 972 4581 
L 972 0 
L 409 0 
z
" id="ArialMT-6c" transform="scale(0.015625)"/>
       </defs>
       <use xlink:href="#ArialMT-4f"/>
       <use x="77.783203" xlink:href="#ArialMT-72"/>
       <use x="111.083984" xlink:href="#ArialMT-69"/>
       <use x="133.300781" xlink:href="#ArialMT-67"/>
       <use x="188.916016" xlink:href="#ArialMT-69"/>
       <use x="211.132812" xlink:href="#ArialMT-6e"/>
       <use x="266.748047" xlink:href="#ArialMT-61"/>
       <use x="322.363281" xlink:href="#ArialMT-6c"/>
      </g>
     </g>
    </g>
    <g id="xtick_2">
     <g id="text_2">
      <!-- Mutated -->
      <g style="fill:#262626;" transform="translate(106.870312 207.419375)rotate(-90)scale(0.2 -0.2)">
       <defs>
        <path d="M 475 0 
L 475 4581 
L 1388 4581 
L 2472 1338 
Q 2622 884 2691 659 
Q 2769 909 2934 1394 
L 4031 4581 
L 4847 4581 
L 4847 0 
L 4263 0 
L 4263 3834 
L 2931 0 
L 2384 0 
L 1059 3900 
L 1059 0 
L 475 0 
z
" id="ArialMT-4d" transform="scale(0.015625)"/>
        <path d="M 2597 0 
L 2597 488 
Q 2209 -75 1544 -75 
Q 1250 -75 995 37 
Q 741 150 617 320 
Q 494 491 444 738 
Q 409 903 409 1263 
L 409 3319 
L 972 3319 
L 972 1478 
Q 972 1038 1006 884 
Q 1059 663 1231 536 
Q 1403 409 1656 409 
Q 1909 409 2131 539 
Q 2353 669 2445 892 
Q 2538 1116 2538 1541 
L 2538 3319 
L 3100 3319 
L 3100 0 
L 2597 0 
z
" id="ArialMT-75" transform="scale(0.015625)"/>
        <path d="M 1650 503 
L 1731 6 
Q 1494 -44 1306 -44 
Q 1000 -44 831 53 
Q 663 150 594 308 
Q 525 466 525 972 
L 525 2881 
L 113 2881 
L 113 3319 
L 525 3319 
L 525 4141 
L 1084 4478 
L 1084 3319 
L 1650 3319 
L 1650 2881 
L 1084 2881 
L 1084 941 
Q 1084 700 1114 631 
Q 1144 563 1211 522 
Q 1278 481 1403 481 
Q 1497 481 1650 503 
z
" id="ArialMT-74" transform="scale(0.015625)"/>
        <path d="M 2694 1069 
L 3275 997 
Q 3138 488 2766 206 
Q 2394 -75 1816 -75 
Q 1088 -75 661 373 
Q 234 822 234 1631 
Q 234 2469 665 2931 
Q 1097 3394 1784 3394 
Q 2450 3394 2872 2941 
Q 3294 2488 3294 1666 
Q 3294 1616 3291 1516 
L 816 1516 
Q 847 969 1125 678 
Q 1403 388 1819 388 
Q 2128 388 2347 550 
Q 2566 713 2694 1069 
z
M 847 1978 
L 2700 1978 
Q 2663 2397 2488 2606 
Q 2219 2931 1791 2931 
Q 1403 2931 1139 2672 
Q 875 2413 847 1978 
z
" id="ArialMT-65" transform="scale(0.015625)"/>
        <path d="M 2575 0 
L 2575 419 
Q 2259 -75 1647 -75 
Q 1250 -75 917 144 
Q 584 363 401 755 
Q 219 1147 219 1656 
Q 219 2153 384 2558 
Q 550 2963 881 3178 
Q 1213 3394 1622 3394 
Q 1922 3394 2156 3267 
Q 2391 3141 2538 2938 
L 2538 4581 
L 3097 4581 
L 3097 0 
L 2575 0 
z
M 797 1656 
Q 797 1019 1065 703 
Q 1334 388 1700 388 
Q 2069 388 2326 689 
Q 2584 991 2584 1609 
Q 2584 2291 2321 2609 
Q 2059 2928 1675 2928 
Q 1300 2928 1048 2622 
Q 797 2316 797 1656 
z
" id="ArialMT-64" transform="scale(0.015625)"/>
       </defs>
       <use xlink:href="#ArialMT-4d"/>
       <use x="83.300781" xlink:href="#ArialMT-75"/>
       <use x="138.916016" xlink:href="#ArialMT-74"/>
       <use x="166.699219" xlink:href="#ArialMT-61"/>
       <use x="222.314453" xlink:href="#ArialMT-74"/>
       <use x="250.097656" xlink:href="#ArialMT-65"/>
       <use x="305.712891" xlink:href="#ArialMT-64"/>
      </g>
     </g>
    </g>
    <g id="text_3">
     <!-- Method -->
     <g style="fill:#262626;" transform="translate(40.448437 225.735)scale(0.2 -0.2)">
      <defs>
       <path d="M 422 0 
L 422 4581 
L 984 4581 
L 984 2938 
Q 1378 3394 1978 3394 
Q 2347 3394 2619 3248 
Q 2891 3103 3008 2847 
Q 3125 2591 3125 2103 
L 3125 0 
L 2563 0 
L 2563 2103 
Q 2563 2525 2380 2717 
Q 2197 2909 1863 2909 
Q 1613 2909 1392 2779 
Q 1172 2650 1078 2428 
Q 984 2206 984 1816 
L 984 0 
L 422 0 
z
" id="ArialMT-68" transform="scale(0.015625)"/>
       <path d="M 213 1659 
Q 213 2581 725 3025 
Q 1153 3394 1769 3394 
Q 2453 3394 2887 2945 
Q 3322 2497 3322 1706 
Q 3322 1066 3130 698 
Q 2938 331 2570 128 
Q 2203 -75 1769 -75 
Q 1072 -75 642 372 
Q 213 819 213 1659 
z
M 791 1659 
Q 791 1022 1069 705 
Q 1347 388 1769 388 
Q 2188 388 2466 706 
Q 2744 1025 2744 1678 
Q 2744 2294 2464 2611 
Q 2184 2928 1769 2928 
Q 1347 2928 1069 2612 
Q 791 2297 791 1659 
z
" id="ArialMT-6f" transform="scale(0.015625)"/>
      </defs>
      <use xlink:href="#ArialMT-4d"/>
      <use x="83.300781" xlink:href="#ArialMT-65"/>
      <use x="138.916016" xlink:href="#ArialMT-74"/>
      <use x="166.699219" xlink:href="#ArialMT-68"/>
      <use x="222.314453" xlink:href="#ArialMT-6f"/>
      <use x="277.929688" xlink:href="#ArialMT-64"/>
     </g>
    </g>
   </g>
   <g id="matplotlib.axis_2">
    <g id="ytick_1">
     <g id="text_4">
      <!-- 0.0 -->
      <g style="fill:#262626;" transform="translate(-16.8 125.085214)scale(0.2 -0.2)">
       <defs>
        <path d="M 266 2259 
Q 266 3072 433 3567 
Q 600 4063 929 4331 
Q 1259 4600 1759 4600 
Q 2128 4600 2406 4451 
Q 2684 4303 2865 4023 
Q 3047 3744 3150 3342 
Q 3253 2941 3253 2259 
Q 3253 1453 3087 958 
Q 2922 463 2592 192 
Q 2263 -78 1759 -78 
Q 1097 -78 719 397 
Q 266 969 266 2259 
z
M 844 2259 
Q 844 1131 1108 757 
Q 1372 384 1759 384 
Q 2147 384 2411 759 
Q 2675 1134 2675 2259 
Q 2675 3391 2411 3762 
Q 2147 4134 1753 4134 
Q 1366 4134 1134 3806 
Q 844 3388 844 2259 
z
" id="ArialMT-30" transform="scale(0.015625)"/>
        <path d="M 581 0 
L 581 641 
L 1222 641 
L 1222 0 
L 581 0 
z
" id="ArialMT-2e" transform="scale(0.015625)"/>
       </defs>
       <use xlink:href="#ArialMT-30"/>
       <use x="55.615234" xlink:href="#ArialMT-2e"/>
       <use x="83.398438" xlink:href="#ArialMT-30"/>
      </g>
     </g>
    </g>
    <g id="ytick_2">
     <g id="text_5">
      <!-- 2.5 -->
      <g style="fill:#262626;" transform="translate(-16.8 55.953963)scale(0.2 -0.2)">
       <defs>
        <path d="M 3222 541 
L 3222 0 
L 194 0 
Q 188 203 259 391 
Q 375 700 629 1000 
Q 884 1300 1366 1694 
Q 2113 2306 2375 2664 
Q 2638 3022 2638 3341 
Q 2638 3675 2398 3904 
Q 2159 4134 1775 4134 
Q 1369 4134 1125 3890 
Q 881 3647 878 3216 
L 300 3275 
Q 359 3922 746 4261 
Q 1134 4600 1788 4600 
Q 2447 4600 2831 4234 
Q 3216 3869 3216 3328 
Q 3216 3053 3103 2787 
Q 2991 2522 2730 2228 
Q 2469 1934 1863 1422 
Q 1356 997 1212 845 
Q 1069 694 975 541 
L 3222 541 
z
" id="ArialMT-32" transform="scale(0.015625)"/>
        <path d="M 266 1200 
L 856 1250 
Q 922 819 1161 601 
Q 1400 384 1738 384 
Q 2144 384 2425 690 
Q 2706 997 2706 1503 
Q 2706 1984 2436 2262 
Q 2166 2541 1728 2541 
Q 1456 2541 1237 2417 
Q 1019 2294 894 2097 
L 366 2166 
L 809 4519 
L 3088 4519 
L 3088 3981 
L 1259 3981 
L 1013 2750 
Q 1425 3038 1878 3038 
Q 2478 3038 2890 2622 
Q 3303 2206 3303 1553 
Q 3303 931 2941 478 
Q 2500 -78 1738 -78 
Q 1113 -78 717 272 
Q 322 622 266 1200 
z
" id="ArialMT-35" transform="scale(0.015625)"/>
       </defs>
       <use xlink:href="#ArialMT-32"/>
       <use x="55.615234" xlink:href="#ArialMT-2e"/>
       <use x="83.398438" xlink:href="#ArialMT-35"/>
      </g>
     </g>
    </g>
    <g id="text_6">
     <!-- Predictions -->
     <g style="fill:#262626;" transform="translate(-24.775 122.185625)rotate(-90)scale(0.2 -0.2)">
      <defs>
       <path d="M 494 0 
L 494 4581 
L 2222 4581 
Q 2678 4581 2919 4538 
Q 3256 4481 3484 4323 
Q 3713 4166 3852 3881 
Q 3991 3597 3991 3256 
Q 3991 2672 3619 2267 
Q 3247 1863 2275 1863 
L 1100 1863 
L 1100 0 
L 494 0 
z
M 1100 2403 
L 2284 2403 
Q 2872 2403 3119 2622 
Q 3366 2841 3366 3238 
Q 3366 3525 3220 3729 
Q 3075 3934 2838 4000 
Q 2684 4041 2272 4041 
L 1100 4041 
L 1100 2403 
z
" id="ArialMT-50" transform="scale(0.015625)"/>
       <path d="M 2588 1216 
L 3141 1144 
Q 3050 572 2676 248 
Q 2303 -75 1759 -75 
Q 1078 -75 664 370 
Q 250 816 250 1647 
Q 250 2184 428 2587 
Q 606 2991 970 3192 
Q 1334 3394 1763 3394 
Q 2303 3394 2647 3120 
Q 2991 2847 3088 2344 
L 2541 2259 
Q 2463 2594 2264 2762 
Q 2066 2931 1784 2931 
Q 1359 2931 1093 2626 
Q 828 2322 828 1663 
Q 828 994 1084 691 
Q 1341 388 1753 388 
Q 2084 388 2306 591 
Q 2528 794 2588 1216 
z
" id="ArialMT-63" transform="scale(0.015625)"/>
       <path d="M 197 991 
L 753 1078 
Q 800 744 1014 566 
Q 1228 388 1613 388 
Q 2000 388 2187 545 
Q 2375 703 2375 916 
Q 2375 1106 2209 1216 
Q 2094 1291 1634 1406 
Q 1016 1563 777 1677 
Q 538 1791 414 1992 
Q 291 2194 291 2438 
Q 291 2659 392 2848 
Q 494 3038 669 3163 
Q 800 3259 1026 3326 
Q 1253 3394 1513 3394 
Q 1903 3394 2198 3281 
Q 2494 3169 2634 2976 
Q 2775 2784 2828 2463 
L 2278 2388 
Q 2241 2644 2061 2787 
Q 1881 2931 1553 2931 
Q 1166 2931 1000 2803 
Q 834 2675 834 2503 
Q 834 2394 903 2306 
Q 972 2216 1119 2156 
Q 1203 2125 1616 2013 
Q 2213 1853 2448 1751 
Q 2684 1650 2818 1456 
Q 2953 1263 2953 975 
Q 2953 694 2789 445 
Q 2625 197 2315 61 
Q 2006 -75 1616 -75 
Q 969 -75 630 194 
Q 291 463 197 991 
z
" id="ArialMT-73" transform="scale(0.015625)"/>
      </defs>
      <use xlink:href="#ArialMT-50"/>
      <use x="66.699219" xlink:href="#ArialMT-72"/>
      <use x="100" xlink:href="#ArialMT-65"/>
      <use x="155.615234" xlink:href="#ArialMT-64"/>
      <use x="211.230469" xlink:href="#ArialMT-69"/>
      <use x="233.447266" xlink:href="#ArialMT-63"/>
      <use x="283.447266" xlink:href="#ArialMT-74"/>
      <use x="311.230469" xlink:href="#ArialMT-69"/>
      <use x="333.447266" xlink:href="#ArialMT-6f"/>
      <use x="389.0625" xlink:href="#ArialMT-6e"/>
      <use x="444.677734" xlink:href="#ArialMT-73"/>
     </g>
    </g>
   </g>
   <g id="PolyCollection_1">
    <defs>
     <path d="M 47.117536 -45.837422 
L 44.682464 -45.837422 
L 44.123405 -46.442311 
L 43.382998 -47.0472 
L 42.436753 -47.652088 
L 41.270505 -48.256977 
L 39.885285 -48.861866 
L 38.301066 -49.466755 
L 36.558314 -50.071643 
L 34.71652 -50.676532 
L 32.849403 -51.281421 
L 31.037199 -51.88631 
L 29.357159 -52.491199 
L 27.873939 -53.096087 
L 26.631682 -53.700976 
L 25.649351 -54.305865 
L 24.920157 -54.910754 
L 24.415101 -55.515642 
L 24.089796 -56.120531 
L 23.893181 -56.72542 
L 23.776507 -57.330309 
L 23.701106 -57.935197 
L 23.643821 -58.540086 
L 23.599444 -59.144975 
L 23.58 -59.749864 
L 23.611144 -60.354752 
L 23.726318 -60.959641 
L 23.95965 -61.56453 
L 24.338792 -62.169419 
L 24.878966 -62.774307 
L 25.579278 -63.379196 
L 26.42201 -63.984085 
L 27.374917 -64.588974 
L 28.396017 -65.193863 
L 29.4398 -65.798751 
L 30.463587 -66.40364 
L 31.432852 -67.008529 
L 32.324644 -67.613418 
L 33.128737 -68.218306 
L 33.846604 -68.823195 
L 34.488709 -69.428084 
L 35.070806 -70.032973 
L 35.610028 -70.637861 
L 36.121458 -71.24275 
L 36.615702 -71.847639 
L 37.097772 -72.452528 
L 37.567292 -73.057416 
L 38.019819 -73.662305 
L 38.448863 -74.267194 
L 38.848133 -74.872083 
L 39.213514 -75.476971 
L 39.54445 -76.08186 
L 39.844536 -76.686749 
L 40.121302 -77.291638 
L 40.385303 -77.896526 
L 40.648708 -78.501415 
L 40.923612 -79.106304 
L 41.220317 -79.711193 
L 41.545814 -80.316082 
L 41.902685 -80.92097 
L 42.288617 -81.525859 
L 42.696619 -82.130748 
L 43.115914 -82.735637 
L 43.533397 -83.340525 
L 43.935366 -83.945414 
L 44.309248 -84.550303 
L 44.645013 -85.155192 
L 44.93607 -85.76008 
L 45.179549 -86.364969 
L 45.376021 -86.969858 
L 45.528789 -87.574747 
L 45.642953 -88.179635 
L 45.724428 -88.784524 
L 45.779105 -89.389413 
L 45.812217 -89.994302 
L 45.827976 -90.59919 
L 45.829461 -91.204079 
L 45.818717 -91.808968 
L 45.797019 -92.413857 
L 45.765231 -93.018746 
L 45.724201 -93.623634 
L 45.675143 -94.228523 
L 45.619921 -94.833412 
L 45.561206 -95.438301 
L 45.502445 -96.043189 
L 45.447649 -96.648078 
L 45.401005 -97.252967 
L 45.36638 -97.857856 
L 45.346815 -98.462744 
L 45.344088 -99.067633 
L 45.35845 -99.672522 
L 45.388593 -100.277411 
L 45.431844 -100.882299 
L 45.484559 -101.487188 
L 45.542626 -102.092077 
L 45.601989 -102.696966 
L 45.6591 -103.301854 
L 45.711229 -103.906743 
L 45.756606 -104.511632 
L 45.794411 -105.116521 
L 45.824629 -105.72141 
L 45.975371 -105.72141 
L 45.975371 -105.72141 
L 46.005589 -105.116521 
L 46.043394 -104.511632 
L 46.088771 -103.906743 
L 46.1409 -103.301854 
L 46.198011 -102.696966 
L 46.257374 -102.092077 
L 46.315441 -101.487188 
L 46.368156 -100.882299 
L 46.411407 -100.277411 
L 46.44155 -99.672522 
L 46.455912 -99.067633 
L 46.453185 -98.462744 
L 46.43362 -97.857856 
L 46.398995 -97.252967 
L 46.352351 -96.648078 
L 46.297555 -96.043189 
L 46.238794 -95.438301 
L 46.180079 -94.833412 
L 46.124857 -94.228523 
L 46.075799 -93.623634 
L 46.034769 -93.018746 
L 46.002981 -92.413857 
L 45.981283 -91.808968 
L 45.970539 -91.204079 
L 45.972024 -90.59919 
L 45.987783 -89.994302 
L 46.020895 -89.389413 
L 46.075572 -88.784524 
L 46.157047 -88.179635 
L 46.271211 -87.574747 
L 46.423979 -86.969858 
L 46.620451 -86.364969 
L 46.86393 -85.76008 
L 47.154987 -85.155192 
L 47.490752 -84.550303 
L 47.864634 -83.945414 
L 48.266603 -83.340525 
L 48.684086 -82.735637 
L 49.103381 -82.130748 
L 49.511383 -81.525859 
L 49.897315 -80.92097 
L 50.254186 -80.316082 
L 50.579683 -79.711193 
L 50.876388 -79.106304 
L 51.151292 -78.501415 
L 51.414697 -77.896526 
L 51.678698 -77.291638 
L 51.955464 -76.686749 
L 52.25555 -76.08186 
L 52.586486 -75.476971 
L 52.951867 -74.872083 
L 53.351137 -74.267194 
L 53.780181 -73.662305 
L 54.232708 -73.057416 
L 54.702228 -72.452528 
L 55.184298 -71.847639 
L 55.678542 -71.24275 
L 56.189972 -70.637861 
L 56.729194 -70.032973 
L 57.311291 -69.428084 
L 57.953396 -68.823195 
L 58.671263 -68.218306 
L 59.475356 -67.613418 
L 60.367148 -67.008529 
L 61.336413 -66.40364 
L 62.3602 -65.798751 
L 63.403983 -65.193863 
L 64.425083 -64.588974 
L 65.37799 -63.984085 
L 66.220722 -63.379196 
L 66.921034 -62.774307 
L 67.461208 -62.169419 
L 67.84035 -61.56453 
L 68.073682 -60.959641 
L 68.188856 -60.354752 
L 68.22 -59.749864 
L 68.200556 -59.144975 
L 68.156179 -58.540086 
L 68.098894 -57.935197 
L 68.023493 -57.330309 
L 67.906819 -56.72542 
L 67.710204 -56.120531 
L 67.384899 -55.515642 
L 66.879843 -54.910754 
L 66.150649 -54.305865 
L 65.168318 -53.700976 
L 63.926061 -53.096087 
L 62.442841 -52.491199 
L 60.762801 -51.88631 
L 58.950597 -51.281421 
L 57.08348 -50.676532 
L 55.241686 -50.071643 
L 53.498934 -49.466755 
L 51.914715 -48.861866 
L 50.529495 -48.256977 
L 49.363247 -47.652088 
L 48.417002 -47.0472 
L 47.676595 -46.442311 
L 47.117536 -45.837422 
z
" id="m0c56017c3c" style="stroke:#262626;stroke-width:0.75;"/>
    </defs>
    <g clip-path="url(#p3263097331)">
     <use style="fill:#7f9dd2;stroke:#262626;stroke-width:0.75;" x="0" xlink:href="#m0c56017c3c" y="144"/>
    </g>
   </g>
   <g id="PolyCollection_2">
    <defs>
     <path d="M 101.702272 -20.88 
L 101.697728 -20.88 
L 101.68227 -21.898182 
L 101.620805 -22.916364 
L 101.486083 -23.934545 
L 101.335837 -24.952727 
L 101.302927 -25.970909 
L 101.387634 -26.989091 
L 101.327167 -28.007273 
L 100.82129 -29.025455 
L 100.050484 -30.043636 
L 99.837005 -31.061818 
L 100.348944 -32.08 
L 100.258653 -33.098182 
L 98.437418 -34.116364 
L 96.332294 -35.134545 
L 96.784457 -36.152727 
L 98.761061 -37.170909 
L 98.241878 -38.189091 
L 94.450675 -39.207273 
L 92.27824 -40.225455 
L 94.972464 -41.243636 
L 97.189529 -42.261818 
L 93.543556 -43.28 
L 88.051788 -44.298182 
L 89.335367 -45.316364 
L 94.684857 -46.334545 
L 94.054263 -47.352727 
L 87.270037 -48.370909 
L 85.280235 -49.389091 
L 91.370502 -50.407273 
L 94.09219 -51.425455 
L 87.114894 -52.443636 
L 80.39827 -53.461818 
L 85.19065 -54.48 
L 93.022394 -55.498182 
L 91.099715 -56.516364 
L 83.054123 -57.534545 
L 82.97942 -58.552727 
L 91.201541 -59.570909 
L 93.984378 -60.589091 
L 87.271775 -61.607273 
L 82.364829 -62.625455 
L 88.002804 -63.643636 
L 94.971453 -64.661818 
L 93.479795 -65.68 
L 87.726415 -66.698182 
L 88.348904 -67.716364 
L 94.558203 -68.734545 
L 96.540611 -69.752727 
L 92.504771 -70.770909 
L 90.141243 -71.789091 
L 93.96355 -72.807273 
L 97.92341 -73.825455 
L 96.948317 -74.843636 
L 94.110568 -75.861818 
L 94.974752 -76.88 
L 98.328566 -77.898182 
L 99.275868 -78.916364 
L 97.496097 -79.934545 
L 96.702348 -80.952727 
L 98.534001 -81.970909 
L 100.204217 -82.989091 
L 99.974674 -84.007273 
L 99.237284 -85.025455 
L 99.687918 -86.043636 
L 100.717964 -87.061818 
L 100.940676 -88.08 
L 100.447351 -89.098182 
L 100.329901 -90.116364 
L 100.876967 -91.134545 
L 101.269365 -92.152727 
L 101.18434 -93.170909 
L 101.058726 -94.189091 
L 101.225569 -95.207273 
L 101.447904 -96.225455 
L 101.443549 -97.243636 
L 101.325406 -98.261818 
L 101.354276 -99.28 
L 101.514794 -100.298182 
L 101.598316 -101.316364 
L 101.58232 -102.334545 
L 101.578493 -103.352727 
L 101.620545 -104.370909 
L 101.650711 -105.389091 
L 101.651041 -106.407273 
L 101.652458 -107.425455 
L 101.666445 -108.443636 
L 101.678808 -109.461818 
L 101.675266 -110.48 
L 101.668633 -111.498182 
L 101.675517 -112.516364 
L 101.685919 -113.534545 
L 101.691253 -114.552727 
L 101.693262 -115.570909 
L 101.694337 -116.589091 
L 101.695945 -117.607273 
L 101.696734 -118.625455 
L 101.697273 -119.643636 
L 101.698647 -120.661818 
L 101.699671 -121.68 
L 101.700329 -121.68 
L 101.700329 -121.68 
L 101.701353 -120.661818 
L 101.702727 -119.643636 
L 101.703266 -118.625455 
L 101.704055 -117.607273 
L 101.705663 -116.589091 
L 101.706738 -115.570909 
L 101.708747 -114.552727 
L 101.714081 -113.534545 
L 101.724483 -112.516364 
L 101.731367 -111.498182 
L 101.724734 -110.48 
L 101.721192 -109.461818 
L 101.733555 -108.443636 
L 101.747542 -107.425455 
L 101.748959 -106.407273 
L 101.749289 -105.389091 
L 101.779455 -104.370909 
L 101.821507 -103.352727 
L 101.81768 -102.334545 
L 101.801684 -101.316364 
L 101.885206 -100.298182 
L 102.045724 -99.28 
L 102.074594 -98.261818 
L 101.956451 -97.243636 
L 101.952096 -96.225455 
L 102.174431 -95.207273 
L 102.341274 -94.189091 
L 102.21566 -93.170909 
L 102.130635 -92.152727 
L 102.523033 -91.134545 
L 103.070099 -90.116364 
L 102.952649 -89.098182 
L 102.459324 -88.08 
L 102.682036 -87.061818 
L 103.712082 -86.043636 
L 104.162716 -85.025455 
L 103.425326 -84.007273 
L 103.195783 -82.989091 
L 104.865999 -81.970909 
L 106.697652 -80.952727 
L 105.903903 -79.934545 
L 104.124132 -78.916364 
L 105.071434 -77.898182 
L 108.425248 -76.88 
L 109.289432 -75.861818 
L 106.451683 -74.843636 
L 105.47659 -73.825455 
L 109.43645 -72.807273 
L 113.258757 -71.789091 
L 110.895229 -70.770909 
L 106.859389 -69.752727 
L 108.841797 -68.734545 
L 115.051096 -67.716364 
L 115.673585 -66.698182 
L 109.920205 -65.68 
L 108.428547 -64.661818 
L 115.397196 -63.643636 
L 121.035171 -62.625455 
L 116.128225 -61.607273 
L 109.415622 -60.589091 
L 112.198459 -59.570909 
L 120.42058 -58.552727 
L 120.345877 -57.534545 
L 112.300285 -56.516364 
L 110.377606 -55.498182 
L 118.20935 -54.48 
L 123.00173 -53.461818 
L 116.285106 -52.443636 
L 109.30781 -51.425455 
L 112.029498 -50.407273 
L 118.119765 -49.389091 
L 116.129963 -48.370909 
L 109.345737 -47.352727 
L 108.715143 -46.334545 
L 114.064633 -45.316364 
L 115.348212 -44.298182 
L 109.856444 -43.28 
L 106.210471 -42.261818 
L 108.427536 -41.243636 
L 111.12176 -40.225455 
L 108.949325 -39.207273 
L 105.158122 -38.189091 
L 104.638939 -37.170909 
L 106.615543 -36.152727 
L 107.067706 -35.134545 
L 104.962582 -34.116364 
L 103.141347 -33.098182 
L 103.051056 -32.08 
L 103.562995 -31.061818 
L 103.349516 -30.043636 
L 102.57871 -29.025455 
L 102.072833 -28.007273 
L 102.012366 -26.989091 
L 102.097073 -25.970909 
L 102.064163 -24.952727 
L 101.913917 -23.934545 
L 101.779195 -22.916364 
L 101.71773 -21.898182 
L 101.702272 -20.88 
z
" id="m403d0d6732" style="stroke:#262626;stroke-width:0.75;"/>
    </defs>
    <g clip-path="url(#p3263097331)">
     <use style="fill:#1a1a66;stroke:#262626;stroke-width:0.75;" x="0" xlink:href="#m403d0d6732" y="144"/>
    </g>
   </g>
   <g id="line2d_1">
    <path clip-path="url(#p3263097331)" d="M 45.9 91.302123 
L 45.9 62.976503 
" style="fill:none;stroke:#262626;stroke-linecap:round;stroke-width:0.75;"/>
   </g>
   <g id="line2d_2">
    <path clip-path="url(#p3263097331)" d="M 45.9 89.57384 
L 45.9 76.807797 
" style="fill:none;stroke:#262626;stroke-linecap:round;stroke-width:2.25;"/>
   </g>
   <g id="line2d_3">
    <path clip-path="url(#p3263097331)" d="M 101.7 120.769706 
L 101.7 49.804602 
" style="fill:none;stroke:#262626;stroke-linecap:round;stroke-width:0.75;"/>
   </g>
   <g id="line2d_4">
    <path clip-path="url(#p3263097331)" d="M 101.7 95.022104 
L 101.7 76.934778 
" style="fill:none;stroke:#262626;stroke-linecap:round;stroke-width:2.25;"/>
   </g>
   <g id="patch_3">
    <path d="M 18 128.16 
L 18 17.28 
" style="fill:none;stroke:#262626;stroke-linecap:square;stroke-linejoin:miter;stroke-width:0.8;"/>
   </g>
   <g id="patch_4">
    <path d="M 18 128.16 
L 129.6 128.16 
" style="fill:none;stroke:#262626;stroke-linecap:square;stroke-linejoin:miter;stroke-width:0.8;"/>
   </g>
   <g id="PathCollection_1">
    <defs>
     <path d="M 0 0.75 
C 0.198902 0.75 0.389685 0.670975 0.53033 0.53033 
C 0.670975 0.389685 0.75 0.198902 0.75 0 
C 0.75 -0.198902 0.670975 -0.389685 0.53033 -0.53033 
C 0.389685 -0.670975 0.198902 -0.75 0 -0.75 
C -0.198902 -0.75 -0.389685 -0.670975 -0.53033 -0.53033 
C -0.670975 -0.389685 -0.75 -0.198902 -0.75 0 
C -0.75 0.198902 -0.670975 0.389685 -0.53033 0.53033 
C -0.389685 0.670975 -0.198902 0.75 0 0.75 
z
" id="m6d30592bbd" style="stroke:#262626;"/>
    </defs>
    <g clip-path="url(#p3263097331)">
     <use style="fill:#ffffff;stroke:#262626;" x="45.9" xlink:href="#m6d30592bbd" y="81.652734"/>
    </g>
   </g>
   <g id="PathCollection_2">
    <g clip-path="url(#p3263097331)">
     <use style="fill:#ffffff;stroke:#262626;" x="101.7" xlink:href="#m6d30592bbd" y="86.091977"/>
    </g>
   </g>
   <g id="text_7">
    <!-- Top 10% -->
    <g style="fill:#262626;" transform="translate(27.10875 11.28)scale(0.24 -0.24)">
     <defs>
      <path d="M 1659 0 
L 1659 4041 
L 150 4041 
L 150 4581 
L 3781 4581 
L 3781 4041 
L 2266 4041 
L 2266 0 
L 1659 0 
z
" id="ArialMT-54" transform="scale(0.015625)"/>
      <path d="M 422 -1272 
L 422 3319 
L 934 3319 
L 934 2888 
Q 1116 3141 1344 3267 
Q 1572 3394 1897 3394 
Q 2322 3394 2647 3175 
Q 2972 2956 3137 2557 
Q 3303 2159 3303 1684 
Q 3303 1175 3120 767 
Q 2938 359 2589 142 
Q 2241 -75 1856 -75 
Q 1575 -75 1351 44 
Q 1128 163 984 344 
L 984 -1272 
L 422 -1272 
z
M 931 1641 
Q 931 1000 1190 694 
Q 1450 388 1819 388 
Q 2194 388 2461 705 
Q 2728 1022 2728 1688 
Q 2728 2322 2467 2637 
Q 2206 2953 1844 2953 
Q 1484 2953 1207 2617 
Q 931 2281 931 1641 
z
" id="ArialMT-70" transform="scale(0.015625)"/>
      <path id="ArialMT-20" transform="scale(0.015625)"/>
      <path d="M 2384 0 
L 1822 0 
L 1822 3584 
Q 1619 3391 1289 3197 
Q 959 3003 697 2906 
L 697 3450 
Q 1169 3672 1522 3987 
Q 1875 4303 2022 4600 
L 2384 4600 
L 2384 0 
z
" id="ArialMT-31" transform="scale(0.015625)"/>
      <path d="M 372 3481 
Q 372 3972 619 4315 
Q 866 4659 1334 4659 
Q 1766 4659 2048 4351 
Q 2331 4044 2331 3447 
Q 2331 2866 2045 2552 
Q 1759 2238 1341 2238 
Q 925 2238 648 2547 
Q 372 2856 372 3481 
z
M 1350 4272 
Q 1141 4272 1002 4090 
Q 863 3909 863 3425 
Q 863 2984 1003 2804 
Q 1144 2625 1350 2625 
Q 1563 2625 1702 2806 
Q 1841 2988 1841 3469 
Q 1841 3913 1700 4092 
Q 1559 4272 1350 4272 
z
M 1353 -169 
L 3859 4659 
L 4316 4659 
L 1819 -169 
L 1353 -169 
z
M 3334 1075 
Q 3334 1569 3581 1911 
Q 3828 2253 4300 2253 
Q 4731 2253 5014 1945 
Q 5297 1638 5297 1041 
Q 5297 459 5011 145 
Q 4725 -169 4303 -169 
Q 3888 -169 3611 142 
Q 3334 453 3334 1075 
z
M 4316 1866 
Q 4103 1866 3964 1684 
Q 3825 1503 3825 1019 
Q 3825 581 3965 400 
Q 4106 219 4313 219 
Q 4528 219 4667 400 
Q 4806 581 4806 1063 
Q 4806 1506 4665 1686 
Q 4525 1866 4316 1866 
z
" id="ArialMT-25" transform="scale(0.015625)"/>
     </defs>
     <use xlink:href="#ArialMT-54"/>
     <use x="49.958984" xlink:href="#ArialMT-6f"/>
     <use x="105.574219" xlink:href="#ArialMT-70"/>
     <use x="161.189453" xlink:href="#ArialMT-20"/>
     <use x="188.972656" xlink:href="#ArialMT-31"/>
     <use x="244.587891" xlink:href="#ArialMT-30"/>
     <use x="300.203125" xlink:href="#ArialMT-25"/>
    </g>
   </g>
  </g>
 </g>
 <defs>
  <clipPath id="p3263097331">
   <rect height="110.88" width="111.6" x="18" y="17.28"/>
  </clipPath>
 </defs>
</svg>
