<?xml version="1.0" encoding="utf-8" standalone="no"?>
<!DOCTYPE svg PUBLIC "-//W3C//DTD SVG 1.1//EN"
  "http://www.w3.org/Graphics/SVG/1.1/DTD/svg11.dtd">
<svg height="144pt" version="1.1" viewBox="0 0 144 144" width="144pt" xmlns="http://www.w3.org/2000/svg" xmlns:xlink="http://www.w3.org/1999/xlink">
 <metadata>
  <rdf:RDF xmlns:cc="http://creativecommons.org/ns#" xmlns:dc="http://purl.org/dc/elements/1.1/" xmlns:rdf="http://www.w3.org/1999/02/22-rdf-syntax-ns#">
   <cc:Work>
    <dc:type rdf:resource="http://purl.org/dc/dcmitype/StillImage"/>
    <dc:date>2022-12-27T10:34:31.403944</dc:date>
    <dc:format>image/svg+xml</dc:format>
    <dc:creator>
     <cc:Agent>
      <dc:title>Matplotlib v3.4.2, https://matplotlib.org/</dc:title>
     </cc:Agent>
    </dc:creator>
   </cc:Work>
  </rdf:RDF>
 </metadata>
 <defs>
  <style type="text/css">*{stroke-linecap:butt;stroke-linejoin:round;}</style>
 </defs>
 <g id="figure_1">
  <g id="patch_1">
   <path d="M 0 144 
L 144 144 
L 144 0 
L 0 0 
z
" style="fill:#ffffff;"/>
  </g>
  <g id="axes_1">
   <g id="patch_2">
    <path d="M 18 128.16 
L 129.6 128.16 
L 129.6 17.28 
L 18 17.28 
z
" style="fill:#ffffff;"/>
   </g>
   <g id="matplotlib.axis_1">
    <g id="xtick_1">
     <g id="text_1">
      <!-- Original -->
      <g style="fill:#262626;" transform="translate(51.08125 204.0725)rotate(-90)scale(0.2 -0.2)">
       <defs>
        <path d="M 309 2231 
Q 309 3372 921 4017 
Q 1534 4663 2503 4663 
Q 3138 4663 3647 4359 
Q 4156 4056 4423 3514 
Q 4691 2972 4691 2284 
Q 4691 1588 4409 1038 
Q 4128 488 3612 205 
Q 3097 -78 2500 -78 
Q 1853 -78 1343 234 
Q 834 547 571 1087 
Q 309 1628 309 2231 
z
M 934 2222 
Q 934 1394 1379 917 
Q 1825 441 2497 441 
Q 3181 441 3623 922 
Q 4066 1403 4066 2288 
Q 4066 2847 3877 3264 
Q 3688 3681 3323 3911 
Q 2959 4141 2506 4141 
Q 1863 4141 1398 3698 
Q 934 3256 934 2222 
z
" id="ArialMT-4f" transform="scale(0.015625)"/>
        <path d="M 416 0 
L 416 3319 
L 922 3319 
L 922 2816 
Q 1116 3169 1280 3281 
Q 1444 3394 1641 3394 
Q 1925 3394 2219 3213 
L 2025 2691 
Q 1819 2813 1613 2813 
Q 1428 2813 1281 2702 
Q 1134 2591 1072 2394 
Q 978 2094 978 1738 
L 978 0 
L 416 0 
z
" id="ArialMT-72" transform="scale(0.015625)"/>
        <path d="M 425 3934 
L 425 4581 
L 988 4581 
L 988 3934 
L 425 3934 
z
M 425 0 
L 425 3319 
L 988 3319 
L 988 0 
L 425 0 
z
" id="ArialMT-69" transform="scale(0.015625)"/>
        <path d="M 319 -275 
L 866 -356 
Q 900 -609 1056 -725 
Q 1266 -881 1628 -881 
Q 2019 -881 2231 -725 
Q 2444 -569 2519 -288 
Q 2563 -116 2559 434 
Q 2191 0 1641 0 
Q 956 0 581 494 
Q 206 988 206 1678 
Q 206 2153 378 2554 
Q 550 2956 876 3175 
Q 1203 3394 1644 3394 
Q 2231 3394 2613 2919 
L 2613 3319 
L 3131 3319 
L 3131 450 
Q 3131 -325 2973 -648 
Q 2816 -972 2473 -1159 
Q 2131 -1347 1631 -1347 
Q 1038 -1347 672 -1080 
Q 306 -813 319 -275 
z
M 784 1719 
Q 784 1066 1043 766 
Q 1303 466 1694 466 
Q 2081 466 2343 764 
Q 2606 1063 2606 1700 
Q 2606 2309 2336 2618 
Q 2066 2928 1684 2928 
Q 1309 2928 1046 2623 
Q 784 2319 784 1719 
z
" id="ArialMT-67" transform="scale(0.015625)"/>
        <path d="M 422 0 
L 422 3319 
L 928 3319 
L 928 2847 
Q 1294 3394 1984 3394 
Q 2284 3394 2536 3286 
Q 2788 3178 2913 3003 
Q 3038 2828 3088 2588 
Q 3119 2431 3119 2041 
L 3119 0 
L 2556 0 
L 2556 2019 
Q 2556 2363 2490 2533 
Q 2425 2703 2258 2804 
Q 2091 2906 1866 2906 
Q 1506 2906 1245 2678 
Q 984 2450 984 1813 
L 984 0 
L 422 0 
z
" id="ArialMT-6e" transform="scale(0.015625)"/>
        <path d="M 2588 409 
Q 2275 144 1986 34 
Q 1697 -75 1366 -75 
Q 819 -75 525 192 
Q 231 459 231 875 
Q 231 1119 342 1320 
Q 453 1522 633 1644 
Q 813 1766 1038 1828 
Q 1203 1872 1538 1913 
Q 2219 1994 2541 2106 
Q 2544 2222 2544 2253 
Q 2544 2597 2384 2738 
Q 2169 2928 1744 2928 
Q 1347 2928 1158 2789 
Q 969 2650 878 2297 
L 328 2372 
Q 403 2725 575 2942 
Q 747 3159 1072 3276 
Q 1397 3394 1825 3394 
Q 2250 3394 2515 3294 
Q 2781 3194 2906 3042 
Q 3031 2891 3081 2659 
Q 3109 2516 3109 2141 
L 3109 1391 
Q 3109 606 3145 398 
Q 3181 191 3288 0 
L 2700 0 
Q 2613 175 2588 409 
z
M 2541 1666 
Q 2234 1541 1622 1453 
Q 1275 1403 1131 1340 
Q 988 1278 909 1158 
Q 831 1038 831 891 
Q 831 666 1001 516 
Q 1172 366 1500 366 
Q 1825 366 2078 508 
Q 2331 650 2450 897 
Q 2541 1088 2541 1459 
L 2541 1666 
z
" id="ArialMT-61" transform="scale(0.015625)"/>
        <path d="M 409 0 
L 409 4581 
L 972 4581 
L 972 0 
L 409 0 
z
" id="ArialMT-6c" transform="scale(0.015625)"/>
       </defs>
       <use xlink:href="#ArialMT-4f"/>
       <use x="77.783203" xlink:href="#ArialMT-72"/>
       <use x="111.083984" xlink:href="#ArialMT-69"/>
       <use x="133.300781" xlink:href="#ArialMT-67"/>
       <use x="188.916016" xlink:href="#ArialMT-69"/>
       <use x="211.132812" xlink:href="#ArialMT-6e"/>
       <use x="266.748047" xlink:href="#ArialMT-61"/>
       <use x="322.363281" xlink:href="#ArialMT-6c"/>
      </g>
     </g>
    </g>
    <g id="xtick_2">
     <g id="text_2">
      <!-- Mutated -->
      <g style="fill:#262626;" transform="translate(106.870312 207.419375)rotate(-90)scale(0.2 -0.2)">
       <defs>
        <path d="M 475 0 
L 475 4581 
L 1388 4581 
L 2472 1338 
Q 2622 884 2691 659 
Q 2769 909 2934 1394 
L 4031 4581 
L 4847 4581 
L 4847 0 
L 4263 0 
L 4263 3834 
L 2931 0 
L 2384 0 
L 1059 3900 
L 1059 0 
L 475 0 
z
" id="ArialMT-4d" transform="scale(0.015625)"/>
        <path d="M 2597 0 
L 2597 488 
Q 2209 -75 1544 -75 
Q 1250 -75 995 37 
Q 741 150 617 320 
Q 494 491 444 738 
Q 409 903 409 1263 
L 409 3319 
L 972 3319 
L 972 1478 
Q 972 1038 1006 884 
Q 1059 663 1231 536 
Q 1403 409 1656 409 
Q 1909 409 2131 539 
Q 2353 669 2445 892 
Q 2538 1116 2538 1541 
L 2538 3319 
L 3100 3319 
L 3100 0 
L 2597 0 
z
" id="ArialMT-75" transform="scale(0.015625)"/>
        <path d="M 1650 503 
L 1731 6 
Q 1494 -44 1306 -44 
Q 1000 -44 831 53 
Q 663 150 594 308 
Q 525 466 525 972 
L 525 2881 
L 113 2881 
L 113 3319 
L 525 3319 
L 525 4141 
L 1084 4478 
L 1084 3319 
L 1650 3319 
L 1650 2881 
L 1084 2881 
L 1084 941 
Q 1084 700 1114 631 
Q 1144 563 1211 522 
Q 1278 481 1403 481 
Q 1497 481 1650 503 
z
" id="ArialMT-74" transform="scale(0.015625)"/>
        <path d="M 2694 1069 
L 3275 997 
Q 3138 488 2766 206 
Q 2394 -75 1816 -75 
Q 1088 -75 661 373 
Q 234 822 234 1631 
Q 234 2469 665 2931 
Q 1097 3394 1784 3394 
Q 2450 3394 2872 2941 
Q 3294 2488 3294 1666 
Q 3294 1616 3291 1516 
L 816 1516 
Q 847 969 1125 678 
Q 1403 388 1819 388 
Q 2128 388 2347 550 
Q 2566 713 2694 1069 
z
M 847 1978 
L 2700 1978 
Q 2663 2397 2488 2606 
Q 2219 2931 1791 2931 
Q 1403 2931 1139 2672 
Q 875 2413 847 1978 
z
" id="ArialMT-65" transform="scale(0.015625)"/>
        <path d="M 2575 0 
L 2575 419 
Q 2259 -75 1647 -75 
Q 1250 -75 917 144 
Q 584 363 401 755 
Q 219 1147 219 1656 
Q 219 2153 384 2558 
Q 550 2963 881 3178 
Q 1213 3394 1622 3394 
Q 1922 3394 2156 3267 
Q 2391 3141 2538 2938 
L 2538 4581 
L 3097 4581 
L 3097 0 
L 2575 0 
z
M 797 1656 
Q 797 1019 1065 703 
Q 1334 388 1700 388 
Q 2069 388 2326 689 
Q 2584 991 2584 1609 
Q 2584 2291 2321 2609 
Q 2059 2928 1675 2928 
Q 1300 2928 1048 2622 
Q 797 2316 797 1656 
z
" id="ArialMT-64" transform="scale(0.015625)"/>
       </defs>
       <use xlink:href="#ArialMT-4d"/>
       <use x="83.300781" xlink:href="#ArialMT-75"/>
       <use x="138.916016" xlink:href="#ArialMT-74"/>
       <use x="166.699219" xlink:href="#ArialMT-61"/>
       <use x="222.314453" xlink:href="#ArialMT-74"/>
       <use x="250.097656" xlink:href="#ArialMT-65"/>
       <use x="305.712891" xlink:href="#ArialMT-64"/>
      </g>
     </g>
    </g>
    <g id="text_3">
     <!-- Method -->
     <g style="fill:#262626;" transform="translate(40.448437 225.735)scale(0.2 -0.2)">
      <defs>
       <path d="M 422 0 
L 422 4581 
L 984 4581 
L 984 2938 
Q 1378 3394 1978 3394 
Q 2347 3394 2619 3248 
Q 2891 3103 3008 2847 
Q 3125 2591 3125 2103 
L 3125 0 
L 2563 0 
L 2563 2103 
Q 2563 2525 2380 2717 
Q 2197 2909 1863 2909 
Q 1613 2909 1392 2779 
Q 1172 2650 1078 2428 
Q 984 2206 984 1816 
L 984 0 
L 422 0 
z
" id="ArialMT-68" transform="scale(0.015625)"/>
       <path d="M 213 1659 
Q 213 2581 725 3025 
Q 1153 3394 1769 3394 
Q 2453 3394 2887 2945 
Q 3322 2497 3322 1706 
Q 3322 1066 3130 698 
Q 2938 331 2570 128 
Q 2203 -75 1769 -75 
Q 1072 -75 642 372 
Q 213 819 213 1659 
z
M 791 1659 
Q 791 1022 1069 705 
Q 1347 388 1769 388 
Q 2188 388 2466 706 
Q 2744 1025 2744 1678 
Q 2744 2294 2464 2611 
Q 2184 2928 1769 2928 
Q 1347 2928 1069 2612 
Q 791 2297 791 1659 
z
" id="ArialMT-6f" transform="scale(0.015625)"/>
      </defs>
      <use xlink:href="#ArialMT-4d"/>
      <use x="83.300781" xlink:href="#ArialMT-65"/>
      <use x="138.916016" xlink:href="#ArialMT-74"/>
      <use x="166.699219" xlink:href="#ArialMT-68"/>
      <use x="222.314453" xlink:href="#ArialMT-6f"/>
      <use x="277.929688" xlink:href="#ArialMT-64"/>
     </g>
    </g>
   </g>
   <g id="matplotlib.axis_2">
    <g id="ytick_1">
     <g id="text_4">
      <!-- −1 -->
      <g style="fill:#262626;" transform="translate(-11.803125 111.580743)scale(0.2 -0.2)">
       <defs>
        <path d="M 3381 1997 
L 356 1997 
L 356 2522 
L 3381 2522 
L 3381 1997 
z
" id="ArialMT-2212" transform="scale(0.015625)"/>
        <path d="M 2384 0 
L 1822 0 
L 1822 3584 
Q 1619 3391 1289 3197 
Q 959 3003 697 2906 
L 697 3450 
Q 1169 3672 1522 3987 
Q 1875 4303 2022 4600 
L 2384 4600 
L 2384 0 
z
" id="ArialMT-31" transform="scale(0.015625)"/>
       </defs>
       <use xlink:href="#ArialMT-2212"/>
       <use x="58.398438" xlink:href="#ArialMT-31"/>
      </g>
     </g>
    </g>
    <g id="ytick_2">
     <g id="text_5">
      <!-- 0 -->
      <g style="fill:#262626;" transform="translate(-0.121875 79.877813)scale(0.2 -0.2)">
       <defs>
        <path d="M 266 2259 
Q 266 3072 433 3567 
Q 600 4063 929 4331 
Q 1259 4600 1759 4600 
Q 2128 4600 2406 4451 
Q 2684 4303 2865 4023 
Q 3047 3744 3150 3342 
Q 3253 2941 3253 2259 
Q 3253 1453 3087 958 
Q 2922 463 2592 192 
Q 2263 -78 1759 -78 
Q 1097 -78 719 397 
Q 266 969 266 2259 
z
M 844 2259 
Q 844 1131 1108 757 
Q 1372 384 1759 384 
Q 2147 384 2411 759 
Q 2675 1134 2675 2259 
Q 2675 3391 2411 3762 
Q 2147 4134 1753 4134 
Q 1366 4134 1134 3806 
Q 844 3388 844 2259 
z
" id="ArialMT-30" transform="scale(0.015625)"/>
       </defs>
       <use xlink:href="#ArialMT-30"/>
      </g>
     </g>
    </g>
    <g id="ytick_3">
     <g id="text_6">
      <!-- 1 -->
      <g style="fill:#262626;" transform="translate(-0.121875 48.174882)scale(0.2 -0.2)">
       <use xlink:href="#ArialMT-31"/>
      </g>
     </g>
    </g>
    <g id="text_7">
     <!-- Predictions -->
     <g style="fill:#262626;" transform="translate(-19.778125 122.185625)rotate(-90)scale(0.2 -0.2)">
      <defs>
       <path d="M 494 0 
L 494 4581 
L 2222 4581 
Q 2678 4581 2919 4538 
Q 3256 4481 3484 4323 
Q 3713 4166 3852 3881 
Q 3991 3597 3991 3256 
Q 3991 2672 3619 2267 
Q 3247 1863 2275 1863 
L 1100 1863 
L 1100 0 
L 494 0 
z
M 1100 2403 
L 2284 2403 
Q 2872 2403 3119 2622 
Q 3366 2841 3366 3238 
Q 3366 3525 3220 3729 
Q 3075 3934 2838 4000 
Q 2684 4041 2272 4041 
L 1100 4041 
L 1100 2403 
z
" id="ArialMT-50" transform="scale(0.015625)"/>
       <path d="M 2588 1216 
L 3141 1144 
Q 3050 572 2676 248 
Q 2303 -75 1759 -75 
Q 1078 -75 664 370 
Q 250 816 250 1647 
Q 250 2184 428 2587 
Q 606 2991 970 3192 
Q 1334 3394 1763 3394 
Q 2303 3394 2647 3120 
Q 2991 2847 3088 2344 
L 2541 2259 
Q 2463 2594 2264 2762 
Q 2066 2931 1784 2931 
Q 1359 2931 1093 2626 
Q 828 2322 828 1663 
Q 828 994 1084 691 
Q 1341 388 1753 388 
Q 2084 388 2306 591 
Q 2528 794 2588 1216 
z
" id="ArialMT-63" transform="scale(0.015625)"/>
       <path d="M 197 991 
L 753 1078 
Q 800 744 1014 566 
Q 1228 388 1613 388 
Q 2000 388 2187 545 
Q 2375 703 2375 916 
Q 2375 1106 2209 1216 
Q 2094 1291 1634 1406 
Q 1016 1563 777 1677 
Q 538 1791 414 1992 
Q 291 2194 291 2438 
Q 291 2659 392 2848 
Q 494 3038 669 3163 
Q 800 3259 1026 3326 
Q 1253 3394 1513 3394 
Q 1903 3394 2198 3281 
Q 2494 3169 2634 2976 
Q 2775 2784 2828 2463 
L 2278 2388 
Q 2241 2644 2061 2787 
Q 1881 2931 1553 2931 
Q 1166 2931 1000 2803 
Q 834 2675 834 2503 
Q 834 2394 903 2306 
Q 972 2216 1119 2156 
Q 1203 2125 1616 2013 
Q 2213 1853 2448 1751 
Q 2684 1650 2818 1456 
Q 2953 1263 2953 975 
Q 2953 694 2789 445 
Q 2625 197 2315 61 
Q 2006 -75 1616 -75 
Q 969 -75 630 194 
Q 291 463 197 991 
z
" id="ArialMT-73" transform="scale(0.015625)"/>
      </defs>
      <use xlink:href="#ArialMT-50"/>
      <use x="66.699219" xlink:href="#ArialMT-72"/>
      <use x="100" xlink:href="#ArialMT-65"/>
      <use x="155.615234" xlink:href="#ArialMT-64"/>
      <use x="211.230469" xlink:href="#ArialMT-69"/>
      <use x="233.447266" xlink:href="#ArialMT-63"/>
      <use x="283.447266" xlink:href="#ArialMT-74"/>
      <use x="311.230469" xlink:href="#ArialMT-69"/>
      <use x="333.447266" xlink:href="#ArialMT-6f"/>
      <use x="389.0625" xlink:href="#ArialMT-6e"/>
      <use x="444.677734" xlink:href="#ArialMT-73"/>
     </g>
    </g>
   </g>
   <g id="PolyCollection_1">
    <defs>
     <path d="M 47.111734 -47.043052 
L 44.688266 -47.043052 
L 44.374171 -47.532688 
L 44.003548 -48.022323 
L 43.57321 -48.511958 
L 43.081609 -49.001594 
L 42.529218 -49.491229 
L 41.918817 -49.980864 
L 41.25567 -50.470499 
L 40.547537 -50.960135 
L 39.804507 -51.44977 
L 39.03863 -51.939405 
L 38.263372 -52.429041 
L 37.492907 -52.918676 
L 36.741301 -53.408311 
L 36.021644 -53.897947 
L 35.345209 -54.387582 
L 34.720711 -54.877217 
L 34.153728 -55.366853 
L 33.646358 -55.856488 
L 33.197127 -56.346123 
L 32.801181 -56.835758 
L 32.450745 -57.325394 
L 32.13581 -57.815029 
L 31.845004 -58.304664 
L 31.566565 -58.7943 
L 31.289349 -59.283935 
L 31.003788 -59.77357 
L 30.702713 -60.263206 
L 30.381997 -60.752841 
L 30.040942 -61.242476 
L 29.682392 -61.732112 
L 29.312557 -62.221747 
L 28.940554 -62.711382 
L 28.577711 -63.201017 
L 28.236661 -63.690653 
L 27.930331 -64.180288 
L 27.67088 -64.669923 
L 27.468688 -65.159559 
L 27.331476 -65.649194 
L 27.263631 -66.138829 
L 27.265795 -66.628465 
L 27.334744 -67.1181 
L 27.463564 -67.607735 
L 27.642102 -68.097371 
L 27.857647 -68.587006 
L 28.095774 -69.076641 
L 28.341274 -69.566276 
L 28.5791 -70.055912 
L 28.795233 -70.545547 
L 28.977441 -71.035182 
L 29.115849 -71.524818 
L 29.203321 -72.014453 
L 29.235625 -72.504088 
L 29.211413 -72.993724 
L 29.132026 -73.483359 
L 29.001166 -73.972994 
L 28.824482 -74.462629 
L 28.609112 -74.952265 
L 28.363224 -75.4419 
L 28.095592 -75.931535 
L 27.815232 -76.421171 
L 27.531121 -76.910806 
L 27.251989 -77.400441 
L 26.986189 -77.890077 
L 26.741626 -78.379712 
L 26.525726 -78.869347 
L 26.345433 -79.358983 
L 26.207203 -79.848618 
L 26.117001 -80.338253 
L 26.080285 -80.827888 
L 26.101976 -81.317524 
L 26.186432 -81.807159 
L 26.337398 -82.296794 
L 26.557975 -82.78643 
L 26.850573 -83.276065 
L 27.216857 -83.7657 
L 27.657676 -84.255336 
L 28.172976 -84.744971 
L 28.761677 -85.234606 
L 29.421534 -85.724242 
L 30.148987 -86.213877 
L 30.939017 -86.703512 
L 31.785037 -87.193147 
L 32.678856 -87.682783 
L 33.610725 -88.172418 
L 34.569494 -88.662053 
L 35.542896 -89.151689 
L 36.51793 -89.641324 
L 37.481342 -90.130959 
L 38.420151 -90.620595 
L 39.322196 -91.11023 
L 40.176638 -91.599865 
L 40.974394 -92.089501 
L 41.708451 -92.579136 
L 42.374052 -93.068771 
L 42.96873 -93.558406 
L 43.492218 -94.048042 
L 43.946232 -94.537677 
L 44.334164 -95.027312 
L 44.660721 -95.516948 
L 47.139279 -95.516948 
L 47.139279 -95.516948 
L 47.465836 -95.027312 
L 47.853768 -94.537677 
L 48.307782 -94.048042 
L 48.83127 -93.558406 
L 49.425948 -93.068771 
L 50.091549 -92.579136 
L 50.825606 -92.089501 
L 51.623362 -91.599865 
L 52.477804 -91.11023 
L 53.379849 -90.620595 
L 54.318658 -90.130959 
L 55.28207 -89.641324 
L 56.257104 -89.151689 
L 57.230506 -88.662053 
L 58.189275 -88.172418 
L 59.121144 -87.682783 
L 60.014963 -87.193147 
L 60.860983 -86.703512 
L 61.651013 -86.213877 
L 62.378466 -85.724242 
L 63.038323 -85.234606 
L 63.627024 -84.744971 
L 64.142324 -84.255336 
L 64.583143 -83.7657 
L 64.949427 -83.276065 
L 65.242025 -82.78643 
L 65.462602 -82.296794 
L 65.613568 -81.807159 
L 65.698024 -81.317524 
L 65.719715 -80.827888 
L 65.682999 -80.338253 
L 65.592797 -79.848618 
L 65.454567 -79.358983 
L 65.274274 -78.869347 
L 65.058374 -78.379712 
L 64.813811 -77.890077 
L 64.548011 -77.400441 
L 64.268879 -76.910806 
L 63.984768 -76.421171 
L 63.704408 -75.931535 
L 63.436776 -75.4419 
L 63.190888 -74.952265 
L 62.975518 -74.462629 
L 62.798834 -73.972994 
L 62.667974 -73.483359 
L 62.588587 -72.993724 
L 62.564375 -72.504088 
L 62.596679 -72.014453 
L 62.684151 -71.524818 
L 62.822559 -71.035182 
L 63.004767 -70.545547 
L 63.2209 -70.055912 
L 63.458726 -69.566276 
L 63.704226 -69.076641 
L 63.942353 -68.587006 
L 64.157898 -68.097371 
L 64.336436 -67.607735 
L 64.465256 -67.1181 
L 64.534205 -66.628465 
L 64.536369 -66.138829 
L 64.468524 -65.649194 
L 64.331312 -65.159559 
L 64.12912 -64.669923 
L 63.869669 -64.180288 
L 63.563339 -63.690653 
L 63.222289 -63.201017 
L 62.859446 -62.711382 
L 62.487443 -62.221747 
L 62.117608 -61.732112 
L 61.759058 -61.242476 
L 61.418003 -60.752841 
L 61.097287 -60.263206 
L 60.796212 -59.77357 
L 60.510651 -59.283935 
L 60.233435 -58.7943 
L 59.954996 -58.304664 
L 59.66419 -57.815029 
L 59.349255 -57.325394 
L 58.998819 -56.835758 
L 58.602873 -56.346123 
L 58.153642 -55.856488 
L 57.646272 -55.366853 
L 57.079289 -54.877217 
L 56.454791 -54.387582 
L 55.778356 -53.897947 
L 55.058699 -53.408311 
L 54.307093 -52.918676 
L 53.536628 -52.429041 
L 52.76137 -51.939405 
L 51.995493 -51.44977 
L 51.252463 -50.960135 
L 50.54433 -50.470499 
L 49.881183 -49.980864 
L 49.270782 -49.491229 
L 48.718391 -49.001594 
L 48.22679 -48.511958 
L 47.796452 -48.022323 
L 47.425829 -47.532688 
L 47.111734 -47.043052 
z
" id="ma13dcf9817" style="stroke:#262626;stroke-width:0.75;"/>
    </defs>
    <g clip-path="url(#p6f715e21d9)">
     <use style="fill:#7f9dd2;stroke:#262626;stroke-width:0.75;" x="0" xlink:href="#ma13dcf9817" y="144"/>
    </g>
   </g>
   <g id="PolyCollection_2">
    <defs>
     <path d="M 101.707878 -20.88 
L 101.692122 -20.88 
L 101.674484 -21.898182 
L 101.650438 -22.916364 
L 101.641655 -23.934545 
L 101.652321 -24.952727 
L 101.638285 -25.970909 
L 101.535364 -26.989091 
L 101.356176 -28.007273 
L 101.258506 -29.025455 
L 101.342961 -30.043636 
L 101.417177 -31.061818 
L 101.155889 -32.08 
L 100.511614 -33.098182 
L 100.029105 -34.116364 
L 100.260652 -35.134545 
L 100.781416 -36.152727 
L 100.60275 -37.170909 
L 99.375794 -38.189091 
L 98.138835 -39.207273 
L 98.354045 -40.225455 
L 99.595847 -41.243636 
L 99.873739 -42.261818 
L 98.12395 -43.28 
L 95.765494 -44.298182 
L 95.590016 -45.316364 
L 97.697473 -46.334545 
L 98.95156 -47.352727 
L 97.082495 -48.370909 
L 93.511383 -49.389091 
L 92.444722 -50.407273 
L 95.150807 -51.425455 
L 97.455202 -52.443636 
L 95.167963 -53.461818 
L 89.300623 -54.48 
L 86.317677 -55.498182 
L 89.98655 -56.516364 
L 95.039617 -57.534545 
L 94.499457 -58.552727 
L 88.125562 -59.570909 
L 83.310674 -60.589091 
L 86.388479 -61.607273 
L 92.861171 -62.625455 
L 93.676156 -63.643636 
L 86.604795 -64.661818 
L 79.38 -65.68 
L 81.362384 -66.698182 
L 89.737247 -67.716364 
L 93.599998 -68.734545 
L 88.416748 -69.752727 
L 80.612876 -70.770909 
L 80.614297 -71.789091 
L 88.429801 -72.807273 
L 93.666868 -73.825455 
L 89.942442 -74.843636 
L 81.739474 -75.861818 
L 79.791912 -76.88 
L 86.842865 -77.898182 
L 93.579001 -78.916364 
L 92.191113 -79.934545 
L 84.982205 -80.952727 
L 81.597775 -81.970909 
L 86.865406 -82.989091 
L 93.864865 -84.007273 
L 94.55644 -85.025455 
L 89.202241 -86.043636 
L 85.29505 -87.061818 
L 88.471524 -88.08 
L 94.695619 -89.098182 
L 97.01503 -90.116364 
L 94.326486 -91.134545 
L 91.255871 -92.152727 
L 92.458175 -93.170909 
L 96.489914 -94.189091 
L 98.604685 -95.207273 
L 97.200766 -96.225455 
L 94.833564 -97.243636 
L 95.030858 -98.261818 
L 97.680942 -99.28 
L 99.645896 -100.298182 
L 99.33006 -101.316364 
L 97.930325 -102.334545 
L 97.687642 -103.352727 
L 99.080131 -104.370909 
L 100.456755 -105.389091 
L 100.641973 -106.407273 
L 100.032789 -107.425455 
L 99.763532 -108.443636 
L 100.321907 -109.461818 
L 101.06437 -110.48 
L 101.353948 -111.498182 
L 101.24649 -112.516364 
L 101.136583 -113.534545 
L 101.260901 -114.552727 
L 101.48859 -115.570909 
L 101.616274 -116.589091 
L 101.627302 -117.607273 
L 101.608539 -118.625455 
L 101.62213 -119.643636 
L 101.659904 -120.661818 
L 101.687621 -121.68 
L 101.712379 -121.68 
L 101.712379 -121.68 
L 101.740096 -120.661818 
L 101.77787 -119.643636 
L 101.791461 -118.625455 
L 101.772698 -117.607273 
L 101.783726 -116.589091 
L 101.91141 -115.570909 
L 102.139099 -114.552727 
L 102.263417 -113.534545 
L 102.15351 -112.516364 
L 102.046052 -111.498182 
L 102.33563 -110.48 
L 103.078093 -109.461818 
L 103.636468 -108.443636 
L 103.367211 -107.425455 
L 102.758027 -106.407273 
L 102.943245 -105.389091 
L 104.319869 -104.370909 
L 105.712358 -103.352727 
L 105.469675 -102.334545 
L 104.06994 -101.316364 
L 103.754104 -100.298182 
L 105.719058 -99.28 
L 108.369142 -98.261818 
L 108.566436 -97.243636 
L 106.199234 -96.225455 
L 104.795315 -95.207273 
L 106.910086 -94.189091 
L 110.941825 -93.170909 
L 112.144129 -92.152727 
L 109.073514 -91.134545 
L 106.38497 -90.116364 
L 108.704381 -89.098182 
L 114.928476 -88.08 
L 118.10495 -87.061818 
L 114.197759 -86.043636 
L 108.84356 -85.025455 
L 109.535135 -84.007273 
L 116.534594 -82.989091 
L 121.802225 -81.970909 
L 118.417795 -80.952727 
L 111.208887 -79.934545 
L 109.820999 -78.916364 
L 116.557135 -77.898182 
L 123.608088 -76.88 
L 121.660526 -75.861818 
L 113.457558 -74.843636 
L 109.733132 -73.825455 
L 114.970199 -72.807273 
L 122.785703 -71.789091 
L 122.787124 -70.770909 
L 114.983252 -69.752727 
L 109.800002 -68.734545 
L 113.662753 -67.716364 
L 122.037616 -66.698182 
L 124.02 -65.68 
L 116.795205 -64.661818 
L 109.723844 -63.643636 
L 110.538829 -62.625455 
L 117.011521 -61.607273 
L 120.089326 -60.589091 
L 115.274438 -59.570909 
L 108.900543 -58.552727 
L 108.360383 -57.534545 
L 113.41345 -56.516364 
L 117.082323 -55.498182 
L 114.099377 -54.48 
L 108.232037 -53.461818 
L 105.944798 -52.443636 
L 108.249193 -51.425455 
L 110.955278 -50.407273 
L 109.888617 -49.389091 
L 106.317505 -48.370909 
L 104.44844 -47.352727 
L 105.702527 -46.334545 
L 107.809984 -45.316364 
L 107.634506 -44.298182 
L 105.27605 -43.28 
L 103.526261 -42.261818 
L 103.804153 -41.243636 
L 105.045955 -40.225455 
L 105.261165 -39.207273 
L 104.024206 -38.189091 
L 102.79725 -37.170909 
L 102.618584 -36.152727 
L 103.139348 -35.134545 
L 103.370895 -34.116364 
L 102.888386 -33.098182 
L 102.244111 -32.08 
L 101.982823 -31.061818 
L 102.057039 -30.043636 
L 102.141494 -29.025455 
L 102.043824 -28.007273 
L 101.864636 -26.989091 
L 101.761715 -25.970909 
L 101.747679 -24.952727 
L 101.758345 -23.934545 
L 101.749562 -22.916364 
L 101.725516 -21.898182 
L 101.707878 -20.88 
z
" id="m7286f55999" style="stroke:#262626;stroke-width:0.75;"/>
    </defs>
    <g clip-path="url(#p6f715e21d9)">
     <use style="fill:#1a1a66;stroke:#262626;stroke-width:0.75;" x="0" xlink:href="#m7286f55999" y="144"/>
    </g>
   </g>
   <g id="line2d_1">
    <path clip-path="url(#p6f715e21d9)" d="M 45.9 88.571465 
L 45.9 56.868535 
" style="fill:none;stroke:#262626;stroke-linecap:round;stroke-width:0.75;"/>
   </g>
   <g id="line2d_2">
    <path clip-path="url(#p6f715e21d9)" d="M 45.9 78.003822 
L 45.9 62.152356 
" style="fill:none;stroke:#262626;stroke-linecap:round;stroke-width:2.25;"/>
   </g>
   <g id="line2d_3">
    <path clip-path="url(#p6f715e21d9)" d="M 101.7 114.990574 
L 101.7 30.449426 
" style="fill:none;stroke:#262626;stroke-linecap:round;stroke-width:0.75;"/>
   </g>
   <g id="line2d_4">
    <path clip-path="url(#p6f715e21d9)" d="M 101.7 83.287644 
L 101.7 62.152356 
" style="fill:none;stroke:#262626;stroke-linecap:round;stroke-width:2.25;"/>
   </g>
   <g id="patch_3">
    <path d="M 18 128.16 
L 18 17.28 
" style="fill:none;stroke:#262626;stroke-linecap:square;stroke-linejoin:miter;stroke-width:0.8;"/>
   </g>
   <g id="patch_4">
    <path d="M 18 128.16 
L 129.6 128.16 
" style="fill:none;stroke:#262626;stroke-linecap:square;stroke-linejoin:miter;stroke-width:0.8;"/>
   </g>
   <g id="PathCollection_1">
    <defs>
     <path d="M 0 0.75 
C 0.198902 0.75 0.389685 0.670975 0.53033 0.53033 
C 0.670975 0.389685 0.75 0.198902 0.75 0 
C 0.75 -0.198902 0.670975 -0.389685 0.53033 -0.53033 
C 0.389685 -0.670975 0.198902 -0.75 0 -0.75 
C -0.198902 -0.75 -0.389685 -0.670975 -0.53033 -0.53033 
C -0.670975 -0.389685 -0.75 -0.198902 -0.75 0 
C -0.75 0.198902 -0.670975 0.389685 -0.53033 0.53033 
C -0.389685 0.670975 -0.198902 0.75 0 0.75 
z
" id="m468640e8df" style="stroke:#262626;"/>
    </defs>
    <g clip-path="url(#p6f715e21d9)">
     <use style="fill:#ffffff;stroke:#262626;" x="45.9" xlink:href="#m468640e8df" y="72.72"/>
    </g>
   </g>
   <g id="PathCollection_2">
    <g clip-path="url(#p6f715e21d9)">
     <use style="fill:#ffffff;stroke:#262626;" x="101.7" xlink:href="#m468640e8df" y="72.72"/>
    </g>
   </g>
   <g id="text_8">
    <!-- Random -->
    <g style="fill:#262626;" transform="translate(28.445625 11.28)scale(0.24 -0.24)">
     <defs>
      <path d="M 503 0 
L 503 4581 
L 2534 4581 
Q 3147 4581 3465 4457 
Q 3784 4334 3975 4021 
Q 4166 3709 4166 3331 
Q 4166 2844 3850 2509 
Q 3534 2175 2875 2084 
Q 3116 1969 3241 1856 
Q 3506 1613 3744 1247 
L 4541 0 
L 3778 0 
L 3172 953 
Q 2906 1366 2734 1584 
Q 2563 1803 2427 1890 
Q 2291 1978 2150 2013 
Q 2047 2034 1813 2034 
L 1109 2034 
L 1109 0 
L 503 0 
z
M 1109 2559 
L 2413 2559 
Q 2828 2559 3062 2645 
Q 3297 2731 3419 2920 
Q 3541 3109 3541 3331 
Q 3541 3656 3305 3865 
Q 3069 4075 2559 4075 
L 1109 4075 
L 1109 2559 
z
" id="ArialMT-52" transform="scale(0.015625)"/>
      <path d="M 422 0 
L 422 3319 
L 925 3319 
L 925 2853 
Q 1081 3097 1340 3245 
Q 1600 3394 1931 3394 
Q 2300 3394 2536 3241 
Q 2772 3088 2869 2813 
Q 3263 3394 3894 3394 
Q 4388 3394 4653 3120 
Q 4919 2847 4919 2278 
L 4919 0 
L 4359 0 
L 4359 2091 
Q 4359 2428 4304 2576 
Q 4250 2725 4106 2815 
Q 3963 2906 3769 2906 
Q 3419 2906 3187 2673 
Q 2956 2441 2956 1928 
L 2956 0 
L 2394 0 
L 2394 2156 
Q 2394 2531 2256 2718 
Q 2119 2906 1806 2906 
Q 1569 2906 1367 2781 
Q 1166 2656 1075 2415 
Q 984 2175 984 1722 
L 984 0 
L 422 0 
z
" id="ArialMT-6d" transform="scale(0.015625)"/>
     </defs>
     <use xlink:href="#ArialMT-52"/>
     <use x="72.216797" xlink:href="#ArialMT-61"/>
     <use x="127.832031" xlink:href="#ArialMT-6e"/>
     <use x="183.447266" xlink:href="#ArialMT-64"/>
     <use x="239.0625" xlink:href="#ArialMT-6f"/>
     <use x="294.677734" xlink:href="#ArialMT-6d"/>
    </g>
   </g>
  </g>
 </g>
 <defs>
  <clipPath id="p6f715e21d9">
   <rect height="110.88" width="111.6" x="18" y="17.28"/>
  </clipPath>
 </defs>
</svg>
