<?xml version="1.0" encoding="utf-8" standalone="no"?>
<!DOCTYPE svg PUBLIC "-//W3C//DTD SVG 1.1//EN"
  "http://www.w3.org/Graphics/SVG/1.1/DTD/svg11.dtd">
<svg height="720pt" version="1.1" viewBox="0 0 144 720" width="144pt" xmlns="http://www.w3.org/2000/svg" xmlns:xlink="http://www.w3.org/1999/xlink">
 <metadata>
  <rdf:RDF xmlns:cc="http://creativecommons.org/ns#" xmlns:dc="http://purl.org/dc/elements/1.1/" xmlns:rdf="http://www.w3.org/1999/02/22-rdf-syntax-ns#">
   <cc:Work>
    <dc:type rdf:resource="http://purl.org/dc/dcmitype/StillImage"/>
    <dc:date>2023-01-28T22:47:31.761827</dc:date>
    <dc:format>image/svg+xml</dc:format>
    <dc:creator>
     <cc:Agent>
      <dc:title>Matplotlib v3.4.2, https://matplotlib.org/</dc:title>
     </cc:Agent>
    </dc:creator>
   </cc:Work>
  </rdf:RDF>
 </metadata>
 <defs>
  <style type="text/css">*{stroke-linecap:butt;stroke-linejoin:round;}</style>
 </defs>
 <g id="figure_1">
  <g id="patch_1">
   <path d="M 0 720 
L 144 720 
L 144 0 
L 0 0 
z
" style="fill:#ffffff;"/>
  </g>
  <g id="axes_1">
   <g id="legend_1">
    <g id="patch_2">
     <path d="M -54.345312 509.578125 
L 201.945312 509.578125 
Q 205.945312 509.578125 205.945312 505.578125 
L 205.945312 221.621875 
Q 205.945312 217.621875 201.945312 217.621875 
L -54.345312 217.621875 
Q -58.345312 217.621875 -58.345312 221.621875 
L -58.345312 505.578125 
Q -58.345312 509.578125 -54.345312 509.578125 
z
" style="fill:#ffffff;opacity:0.8;stroke:#cccccc;stroke-linejoin:miter;"/>
    </g>
    <g id="line2d_1">
     <path style="fill:none;stroke:#30123b;stroke-linecap:round;stroke-width:1.5;"/>
    </g>
    <g id="line2d_2">
     <defs>
      <path d="M 0 5 
C 1.326016 5 2.597899 4.473168 3.535534 3.535534 
C 4.473168 2.597899 5 1.326016 5 0 
C 5 -1.326016 4.473168 -2.597899 3.535534 -3.535534 
C 2.597899 -4.473168 1.326016 -5 0 -5 
C -1.326016 -5 -2.597899 -4.473168 -3.535534 -3.535534 
C -4.473168 -2.597899 -5 -1.326016 -5 0 
C -5 1.326016 -4.473168 2.597899 -3.535534 3.535534 
C -2.597899 4.473168 -1.326016 5 0 5 
z
" id="mf9f4a56238" style="stroke:#30123b;"/>
     </defs>
     <g/>
    </g>
    <g id="text_1">
     <!-- a: 1-1 -->
     <g style="fill:#262626;" transform="translate(5.654688 239.96875)scale(0.2 -0.2)">
      <defs>
       <path d="M 844 891 
Q 844 647 1022 506 
Q 1200 366 1444 366 
Q 1741 366 2019 503 
Q 2488 731 2488 1250 
L 2488 1703 
Q 2384 1638 2221 1594 
Q 2059 1550 1903 1531 
L 1563 1488 
Q 1256 1447 1103 1359 
Q 844 1213 844 891 
z
M 2206 2028 
Q 2400 2053 2466 2191 
Q 2503 2266 2503 2406 
Q 2503 2694 2298 2823 
Q 2094 2953 1713 2953 
Q 1272 2953 1088 2716 
Q 984 2584 953 2325 
L 428 2325 
Q 444 2944 830 3186 
Q 1216 3428 1725 3428 
Q 2316 3428 2684 3203 
Q 3050 2978 3050 2503 
L 3050 575 
Q 3050 488 3086 434 
Q 3122 381 3238 381 
Q 3275 381 3322 386 
Q 3369 391 3422 400 
L 3422 -16 
Q 3291 -53 3222 -62 
Q 3153 -72 3034 -72 
Q 2744 -72 2613 134 
Q 2544 244 2516 444 
Q 2344 219 2022 53 
Q 1700 -113 1313 -113 
Q 847 -113 551 170 
Q 256 453 256 878 
Q 256 1344 547 1600 
Q 838 1856 1309 1916 
L 2206 2028 
z
M 1741 3428 
L 1741 3428 
z
" id="Helvetica-61" transform="scale(0.015625)"/>
       <path d="M 709 3303 
L 1363 3303 
L 1363 2622 
L 709 2622 
L 709 3303 
z
M 709 681 
L 1363 681 
L 1363 0 
L 709 0 
L 709 681 
z
" id="Helvetica-3a" transform="scale(0.015625)"/>
       <path id="Helvetica-20" transform="scale(0.015625)"/>
       <path d="M 613 3169 
L 613 3600 
Q 1222 3659 1462 3798 
Q 1703 3938 1822 4456 
L 2266 4456 
L 2266 0 
L 1666 0 
L 1666 3169 
L 613 3169 
z
" id="Helvetica-31" transform="scale(0.015625)"/>
       <path d="M 266 2072 
L 1834 2072 
L 1834 1494 
L 266 1494 
L 266 2072 
z
" id="Helvetica-2d" transform="scale(0.015625)"/>
      </defs>
      <use xlink:href="#Helvetica-61"/>
      <use x="55.615234" xlink:href="#Helvetica-3a"/>
      <use x="83.398438" xlink:href="#Helvetica-20"/>
      <use x="111.181641" xlink:href="#Helvetica-31"/>
      <use x="166.796875" xlink:href="#Helvetica-2d"/>
      <use x="200.097656" xlink:href="#Helvetica-31"/>
     </g>
    </g>
    <g id="line2d_3">
     <path style="fill:none;stroke:#4661d6;stroke-linecap:round;stroke-width:1.5;"/>
    </g>
    <g id="line2d_4">
     <defs>
      <path d="M 0 5 
C 1.326016 5 2.597899 4.473168 3.535534 3.535534 
C 4.473168 2.597899 5 1.326016 5 0 
C 5 -1.326016 4.473168 -2.597899 3.535534 -3.535534 
C 2.597899 -4.473168 1.326016 -5 0 -5 
C -1.326016 -5 -2.597899 -4.473168 -3.535534 -3.535534 
C -4.473168 -2.597899 -5 -1.326016 -5 0 
C -5 1.326016 -4.473168 2.597899 -3.535534 3.535534 
C -2.597899 4.473168 -1.326016 5 0 5 
z
" id="m0e052c0d09" style="stroke:#4661d6;"/>
     </defs>
     <g/>
    </g>
    <g id="text_2">
     <!-- b: 1-2 -->
     <g style="fill:#262626;" transform="translate(5.654688 268.484375)scale(0.2 -0.2)">
      <defs>
       <path d="M 369 4606 
L 916 4606 
L 916 2941 
Q 1100 3181 1356 3307 
Q 1613 3434 1913 3434 
Q 2538 3434 2927 3004 
Q 3316 2575 3316 1738 
Q 3316 944 2931 419 
Q 2547 -106 1866 -106 
Q 1484 -106 1222 78 
Q 1066 188 888 428 
L 888 0 
L 369 0 
L 369 4606 
z
M 1831 391 
Q 2288 391 2514 753 
Q 2741 1116 2741 1709 
Q 2741 2238 2514 2584 
Q 2288 2931 1847 2931 
Q 1463 2931 1173 2647 
Q 884 2363 884 1709 
Q 884 1238 1003 944 
Q 1225 391 1831 391 
z
" id="Helvetica-62" transform="scale(0.015625)"/>
       <path d="M 200 0 
Q 231 578 439 1006 
Q 647 1434 1250 1784 
L 1850 2131 
Q 2253 2366 2416 2531 
Q 2672 2791 2672 3125 
Q 2672 3516 2437 3745 
Q 2203 3975 1813 3975 
Q 1234 3975 1013 3538 
Q 894 3303 881 2888 
L 309 2888 
Q 319 3472 525 3841 
Q 891 4491 1816 4491 
Q 2584 4491 2939 4075 
Q 3294 3659 3294 3150 
Q 3294 2613 2916 2231 
Q 2697 2009 2131 1694 
L 1703 1456 
Q 1397 1288 1222 1134 
Q 909 863 828 531 
L 3272 531 
L 3272 0 
L 200 0 
z
" id="Helvetica-32" transform="scale(0.015625)"/>
      </defs>
      <use xlink:href="#Helvetica-62"/>
      <use x="55.615234" xlink:href="#Helvetica-3a"/>
      <use x="83.398438" xlink:href="#Helvetica-20"/>
      <use x="111.181641" xlink:href="#Helvetica-31"/>
      <use x="166.796875" xlink:href="#Helvetica-2d"/>
      <use x="200.097656" xlink:href="#Helvetica-32"/>
     </g>
    </g>
    <g id="line2d_5">
     <path style="fill:none;stroke:#37a8fa;stroke-linecap:round;stroke-width:1.5;"/>
    </g>
    <g id="line2d_6">
     <defs>
      <path d="M 0 5 
C 1.326016 5 2.597899 4.473168 3.535534 3.535534 
C 4.473168 2.597899 5 1.326016 5 0 
C 5 -1.326016 4.473168 -2.597899 3.535534 -3.535534 
C 2.597899 -4.473168 1.326016 -5 0 -5 
C -1.326016 -5 -2.597899 -4.473168 -3.535534 -3.535534 
C -4.473168 -2.597899 -5 -1.326016 -5 0 
C -5 1.326016 -4.473168 2.597899 -3.535534 3.535534 
C -2.597899 4.473168 -1.326016 5 0 5 
z
" id="m79c8483864" style="stroke:#37a8fa;"/>
     </defs>
     <g/>
    </g>
    <g id="text_3">
     <!-- c: 1-3 -->
     <g style="fill:#262626;" transform="translate(5.654688 297)scale(0.2 -0.2)">
      <defs>
       <path d="M 1703 3444 
Q 2269 3444 2623 3169 
Q 2978 2894 3050 2222 
L 2503 2222 
Q 2453 2531 2275 2736 
Q 2097 2941 1703 2941 
Q 1166 2941 934 2416 
Q 784 2075 784 1575 
Q 784 1072 996 728 
Q 1209 384 1666 384 
Q 2016 384 2220 598 
Q 2425 813 2503 1184 
L 3050 1184 
Q 2956 519 2581 211 
Q 2206 -97 1622 -97 
Q 966 -97 575 383 
Q 184 863 184 1581 
Q 184 2463 612 2953 
Q 1041 3444 1703 3444 
z
M 1616 3428 
L 1616 3428 
z
" id="Helvetica-63" transform="scale(0.015625)"/>
       <path d="M 1663 -122 
Q 869 -122 511 314 
Q 153 750 153 1375 
L 741 1375 
Q 778 941 903 744 
Q 1122 391 1694 391 
Q 2138 391 2406 628 
Q 2675 866 2675 1241 
Q 2675 1703 2392 1887 
Q 2109 2072 1606 2072 
Q 1550 2072 1492 2070 
Q 1434 2069 1375 2066 
L 1375 2563 
Q 1463 2553 1522 2550 
Q 1581 2547 1650 2547 
Q 1966 2547 2169 2647 
Q 2525 2822 2525 3272 
Q 2525 3606 2287 3787 
Q 2050 3969 1734 3969 
Q 1172 3969 956 3594 
Q 838 3388 822 3006 
L 266 3006 
Q 266 3506 466 3856 
Q 809 4481 1675 4481 
Q 2359 4481 2734 4176 
Q 3109 3872 3109 3294 
Q 3109 2881 2888 2625 
Q 2750 2466 2531 2375 
Q 2884 2278 3082 2001 
Q 3281 1725 3281 1325 
Q 3281 684 2859 281 
Q 2438 -122 1663 -122 
z
" id="Helvetica-33" transform="scale(0.015625)"/>
      </defs>
      <use xlink:href="#Helvetica-63"/>
      <use x="50" xlink:href="#Helvetica-3a"/>
      <use x="77.783203" xlink:href="#Helvetica-20"/>
      <use x="105.566406" xlink:href="#Helvetica-31"/>
      <use x="161.181641" xlink:href="#Helvetica-2d"/>
      <use x="194.482422" xlink:href="#Helvetica-33"/>
     </g>
    </g>
    <g id="line2d_7">
     <path style="fill:none;stroke:#1ae4b6;stroke-linecap:round;stroke-width:1.5;"/>
    </g>
    <g id="line2d_8">
     <defs>
      <path d="M 0 5 
C 1.326016 5 2.597899 4.473168 3.535534 3.535534 
C 4.473168 2.597899 5 1.326016 5 0 
C 5 -1.326016 4.473168 -2.597899 3.535534 -3.535534 
C 2.597899 -4.473168 1.326016 -5 0 -5 
C -1.326016 -5 -2.597899 -4.473168 -3.535534 -3.535534 
C -4.473168 -2.597899 -5 -1.326016 -5 0 
C -5 1.326016 -4.473168 2.597899 -3.535534 3.535534 
C -2.597899 4.473168 -1.326016 5 0 5 
z
" id="m3021918f3c" style="stroke:#1ae4b6;"/>
     </defs>
     <g/>
    </g>
    <g id="text_4">
     <!-- d: 1-4 -->
     <g style="fill:#262626;" transform="translate(5.654688 325.515625)scale(0.2 -0.2)">
      <defs>
       <path d="M 769 1634 
Q 769 1097 997 734 
Q 1225 372 1728 372 
Q 2119 372 2370 708 
Q 2622 1044 2622 1672 
Q 2622 2306 2362 2611 
Q 2103 2916 1722 2916 
Q 1297 2916 1033 2591 
Q 769 2266 769 1634 
z
M 1616 3406 
Q 2000 3406 2259 3244 
Q 2409 3150 2600 2916 
L 2600 4606 
L 3141 4606 
L 3141 0 
L 2634 0 
L 2634 466 
Q 2438 156 2169 18 
Q 1900 -119 1553 -119 
Q 994 -119 584 351 
Q 175 822 175 1603 
Q 175 2334 548 2870 
Q 922 3406 1616 3406 
z
" id="Helvetica-64" transform="scale(0.015625)"/>
       <path d="M 2116 1584 
L 2116 3613 
L 681 1584 
L 2116 1584 
z
M 2125 0 
L 2125 1094 
L 163 1094 
L 163 1644 
L 2213 4488 
L 2688 4488 
L 2688 1584 
L 3347 1584 
L 3347 1094 
L 2688 1094 
L 2688 0 
L 2125 0 
z
" id="Helvetica-34" transform="scale(0.015625)"/>
      </defs>
      <use xlink:href="#Helvetica-64"/>
      <use x="55.615234" xlink:href="#Helvetica-3a"/>
      <use x="83.398438" xlink:href="#Helvetica-20"/>
      <use x="111.181641" xlink:href="#Helvetica-31"/>
      <use x="166.796875" xlink:href="#Helvetica-2d"/>
      <use x="200.097656" xlink:href="#Helvetica-34"/>
     </g>
    </g>
    <g id="line2d_9">
     <path style="fill:none;stroke:#71fe5f;stroke-linecap:round;stroke-width:1.5;"/>
    </g>
    <g id="line2d_10">
     <defs>
      <path d="M 0 5 
C 1.326016 5 2.597899 4.473168 3.535534 3.535534 
C 4.473168 2.597899 5 1.326016 5 0 
C 5 -1.326016 4.473168 -2.597899 3.535534 -3.535534 
C 2.597899 -4.473168 1.326016 -5 0 -5 
C -1.326016 -5 -2.597899 -4.473168 -3.535534 -3.535534 
C -4.473168 -2.597899 -5 -1.326016 -5 0 
C -5 1.326016 -4.473168 2.597899 -3.535534 3.535534 
C -2.597899 4.473168 -1.326016 5 0 5 
z
" id="mfe91466c11" style="stroke:#71fe5f;"/>
     </defs>
     <g/>
    </g>
    <g id="text_5">
     <!-- e: 1-5 -->
     <g style="fill:#262626;" transform="translate(5.654688 354.03125)scale(0.2 -0.2)">
      <defs>
       <path d="M 1806 3422 
Q 2163 3422 2497 3255 
Q 2831 3088 3006 2822 
Q 3175 2569 3231 2231 
Q 3281 2000 3281 1494 
L 828 1494 
Q 844 984 1069 676 
Q 1294 369 1766 369 
Q 2206 369 2469 659 
Q 2619 828 2681 1050 
L 3234 1050 
Q 3213 866 3089 639 
Q 2966 413 2813 269 
Q 2556 19 2178 -69 
Q 1975 -119 1719 -119 
Q 1094 -119 659 336 
Q 225 791 225 1609 
Q 225 2416 662 2919 
Q 1100 3422 1806 3422 
z
M 2703 1941 
Q 2669 2306 2544 2525 
Q 2313 2931 1772 2931 
Q 1384 2931 1121 2651 
Q 859 2372 844 1941 
L 2703 1941 
z
M 1753 3428 
L 1753 3428 
z
" id="Helvetica-65" transform="scale(0.015625)"/>
       <path d="M 791 1141 
Q 847 659 1238 475 
Q 1438 381 1700 381 
Q 2200 381 2440 700 
Q 2681 1019 2681 1406 
Q 2681 1875 2395 2131 
Q 2109 2388 1709 2388 
Q 1419 2388 1211 2275 
Q 1003 2163 856 1963 
L 369 1991 
L 709 4400 
L 3034 4400 
L 3034 3856 
L 1131 3856 
L 941 2613 
Q 1097 2731 1238 2791 
Q 1488 2894 1816 2894 
Q 2431 2894 2859 2497 
Q 3288 2100 3288 1491 
Q 3288 856 2895 371 
Q 2503 -113 1644 -113 
Q 1097 -113 676 195 
Q 256 503 206 1141 
L 791 1141 
z
" id="Helvetica-35" transform="scale(0.015625)"/>
      </defs>
      <use xlink:href="#Helvetica-65"/>
      <use x="55.615234" xlink:href="#Helvetica-3a"/>
      <use x="83.398438" xlink:href="#Helvetica-20"/>
      <use x="111.181641" xlink:href="#Helvetica-31"/>
      <use x="166.796875" xlink:href="#Helvetica-2d"/>
      <use x="200.097656" xlink:href="#Helvetica-35"/>
     </g>
    </g>
    <g id="line2d_11">
     <path style="fill:none;stroke:#c8ef34;stroke-linecap:round;stroke-width:1.5;"/>
    </g>
    <g id="line2d_12">
     <defs>
      <path d="M 0 5 
C 1.326016 5 2.597899 4.473168 3.535534 3.535534 
C 4.473168 2.597899 5 1.326016 5 0 
C 5 -1.326016 4.473168 -2.597899 3.535534 -3.535534 
C 2.597899 -4.473168 1.326016 -5 0 -5 
C -1.326016 -5 -2.597899 -4.473168 -3.535534 -3.535534 
C -4.473168 -2.597899 -5 -1.326016 -5 0 
C -5 1.326016 -4.473168 2.597899 -3.535534 3.535534 
C -2.597899 4.473168 -1.326016 5 0 5 
z
" id="m8960869f19" style="stroke:#c8ef34;"/>
     </defs>
     <g/>
    </g>
    <g id="text_6">
     <!-- f: 1-6 -->
     <g style="fill:#262626;" transform="translate(5.654688 382.546875)scale(0.2 -0.2)">
      <defs>
       <path d="M 553 3856 
Q 566 4206 675 4369 
Q 872 4656 1434 4656 
Q 1488 4656 1544 4653 
Q 1600 4650 1672 4644 
L 1672 4131 
Q 1584 4138 1545 4139 
Q 1506 4141 1472 4141 
Q 1216 4141 1166 4008 
Q 1116 3875 1116 3331 
L 1672 3331 
L 1672 2888 
L 1109 2888 
L 1109 0 
L 553 0 
L 553 2888 
L 88 2888 
L 88 3331 
L 553 3331 
L 553 3856 
z
" id="Helvetica-66" transform="scale(0.015625)"/>
       <path d="M 1872 4494 
Q 2622 4494 2917 4105 
Q 3213 3716 3213 3303 
L 2656 3303 
Q 2606 3569 2497 3719 
Q 2294 4000 1881 4000 
Q 1409 4000 1131 3564 
Q 853 3128 822 2316 
Q 1016 2600 1309 2741 
Q 1578 2866 1909 2866 
Q 2472 2866 2890 2506 
Q 3309 2147 3309 1434 
Q 3309 825 2912 354 
Q 2516 -116 1781 -116 
Q 1153 -116 697 361 
Q 241 838 241 1966 
Q 241 2800 444 3381 
Q 834 4494 1872 4494 
z
M 1831 384 
Q 2275 384 2495 682 
Q 2716 981 2716 1388 
Q 2716 1731 2519 2042 
Q 2322 2353 1803 2353 
Q 1441 2353 1167 2112 
Q 894 1872 894 1388 
Q 894 963 1142 673 
Q 1391 384 1831 384 
z
" id="Helvetica-36" transform="scale(0.015625)"/>
      </defs>
      <use xlink:href="#Helvetica-66"/>
      <use x="27.783203" xlink:href="#Helvetica-3a"/>
      <use x="55.566406" xlink:href="#Helvetica-20"/>
      <use x="83.349609" xlink:href="#Helvetica-31"/>
      <use x="138.964844" xlink:href="#Helvetica-2d"/>
      <use x="172.265625" xlink:href="#Helvetica-36"/>
     </g>
    </g>
    <g id="line2d_13">
     <path style="fill:none;stroke:#faba39;stroke-linecap:round;stroke-width:1.5;"/>
    </g>
    <g id="line2d_14">
     <defs>
      <path d="M 0 5 
C 1.326016 5 2.597899 4.473168 3.535534 3.535534 
C 4.473168 2.597899 5 1.326016 5 0 
C 5 -1.326016 4.473168 -2.597899 3.535534 -3.535534 
C 2.597899 -4.473168 1.326016 -5 0 -5 
C -1.326016 -5 -2.597899 -4.473168 -3.535534 -3.535534 
C -4.473168 -2.597899 -5 -1.326016 -5 0 
C -5 1.326016 -4.473168 2.597899 -3.535534 3.535534 
C -2.597899 4.473168 -1.326016 5 0 5 
z
" id="m41c124676c" style="stroke:#faba39;"/>
     </defs>
     <g/>
    </g>
    <g id="text_7">
     <!-- g: 1dAlt-ol -->
     <g style="fill:#262626;" transform="translate(5.654688 411.109375)scale(0.2 -0.2)">
      <defs>
       <path d="M 1594 3406 
Q 1988 3406 2281 3213 
Q 2441 3103 2606 2894 
L 2606 3316 
L 3125 3316 
L 3125 272 
Q 3125 -366 2938 -734 
Q 2588 -1416 1616 -1416 
Q 1075 -1416 706 -1173 
Q 338 -931 294 -416 
L 866 -416 
Q 906 -641 1028 -763 
Q 1219 -950 1628 -950 
Q 2275 -950 2475 -494 
Q 2594 -225 2584 466 
Q 2416 209 2178 84 
Q 1941 -41 1550 -41 
Q 1006 -41 598 345 
Q 191 731 191 1622 
Q 191 2463 602 2934 
Q 1013 3406 1594 3406 
z
M 2606 1688 
Q 2606 2309 2350 2609 
Q 2094 2909 1697 2909 
Q 1103 2909 884 2353 
Q 769 2056 769 1575 
Q 769 1009 998 714 
Q 1228 419 1616 419 
Q 2222 419 2469 966 
Q 2606 1275 2606 1688 
z
M 1659 3428 
L 1659 3428 
z
" id="Helvetica-67" transform="scale(0.015625)"/>
       <path d="M 2844 1881 
L 2147 3909 
L 1406 1881 
L 2844 1881 
z
M 1822 4591 
L 2525 4591 
L 4191 0 
L 3509 0 
L 3044 1375 
L 1228 1375 
L 731 0 
L 94 0 
L 1822 4591 
z
M 2144 4591 
L 2144 4591 
z
" id="Helvetica-41" transform="scale(0.015625)"/>
       <path d="M 428 4591 
L 991 4591 
L 991 0 
L 428 0 
L 428 4591 
z
" id="Helvetica-6c" transform="scale(0.015625)"/>
       <path d="M 525 4281 
L 1094 4281 
L 1094 3347 
L 1628 3347 
L 1628 2888 
L 1094 2888 
L 1094 703 
Q 1094 528 1213 469 
Q 1278 434 1431 434 
Q 1472 434 1519 436 
Q 1566 438 1628 444 
L 1628 0 
Q 1531 -28 1426 -40 
Q 1322 -53 1200 -53 
Q 806 -53 665 148 
Q 525 350 525 672 
L 525 2888 
L 72 2888 
L 72 3347 
L 525 3347 
L 525 4281 
z
" id="Helvetica-74" transform="scale(0.015625)"/>
       <path d="M 1741 363 
Q 2300 363 2508 786 
Q 2716 1209 2716 1728 
Q 2716 2197 2566 2491 
Q 2328 2953 1747 2953 
Q 1231 2953 997 2559 
Q 763 2166 763 1609 
Q 763 1075 997 719 
Q 1231 363 1741 363 
z
M 1763 3444 
Q 2409 3444 2856 3012 
Q 3303 2581 3303 1744 
Q 3303 934 2909 406 
Q 2516 -122 1688 -122 
Q 997 -122 590 345 
Q 184 813 184 1600 
Q 184 2444 612 2944 
Q 1041 3444 1763 3444 
z
M 1744 3428 
L 1744 3428 
z
" id="Helvetica-6f" transform="scale(0.015625)"/>
      </defs>
      <use xlink:href="#Helvetica-67"/>
      <use x="55.615234" xlink:href="#Helvetica-3a"/>
      <use x="83.398438" xlink:href="#Helvetica-20"/>
      <use x="111.181641" xlink:href="#Helvetica-31"/>
      <use x="166.796875" xlink:href="#Helvetica-64"/>
      <use x="222.412109" xlink:href="#Helvetica-41"/>
      <use x="289.111328" xlink:href="#Helvetica-6c"/>
      <use x="311.328125" xlink:href="#Helvetica-74"/>
      <use x="339.111328" xlink:href="#Helvetica-2d"/>
      <use x="372.412109" xlink:href="#Helvetica-6f"/>
      <use x="428.027344" xlink:href="#Helvetica-6c"/>
     </g>
    </g>
    <g id="line2d_15">
     <path style="fill:none;stroke:#f56918;stroke-linecap:round;stroke-width:1.5;"/>
    </g>
    <g id="line2d_16">
     <defs>
      <path d="M 0 5 
C 1.326016 5 2.597899 4.473168 3.535534 3.535534 
C 4.473168 2.597899 5 1.326016 5 0 
C 5 -1.326016 4.473168 -2.597899 3.535534 -3.535534 
C 2.597899 -4.473168 1.326016 -5 0 -5 
C -1.326016 -5 -2.597899 -4.473168 -3.535534 -3.535534 
C -4.473168 -2.597899 -5 -1.326016 -5 0 
C -5 1.326016 -4.473168 2.597899 -3.535534 3.535534 
C -2.597899 4.473168 -1.326016 5 0 5 
z
" id="m71671dc263" style="stroke:#f56918;"/>
     </defs>
     <g/>
    </g>
    <g id="text_8">
     <!-- h: 1dEry-ol -->
     <g style="fill:#262626;" transform="translate(5.654688 439.928125)scale(0.2 -0.2)">
      <defs>
       <path d="M 413 4606 
L 975 4606 
L 975 2894 
Q 1175 3147 1334 3250 
Q 1606 3428 2013 3428 
Q 2741 3428 3000 2919 
Q 3141 2641 3141 2147 
L 3141 0 
L 2563 0 
L 2563 2109 
Q 2563 2478 2469 2650 
Q 2316 2925 1894 2925 
Q 1544 2925 1259 2684 
Q 975 2444 975 1775 
L 975 0 
L 413 0 
L 413 4606 
z
" id="Helvetica-68" transform="scale(0.015625)"/>
       <path d="M 547 4591 
L 3894 4591 
L 3894 4028 
L 1153 4028 
L 1153 2634 
L 3688 2634 
L 3688 2103 
L 1153 2103 
L 1153 547 
L 3941 547 
L 3941 0 
L 547 0 
L 547 4591 
z
M 2244 4591 
L 2244 4591 
z
" id="Helvetica-45" transform="scale(0.015625)"/>
       <path d="M 428 3347 
L 963 3347 
L 963 2769 
Q 1028 2938 1284 3180 
Q 1541 3422 1875 3422 
Q 1891 3422 1928 3419 
Q 1966 3416 2056 3406 
L 2056 2813 
Q 2006 2822 1964 2825 
Q 1922 2828 1872 2828 
Q 1447 2828 1219 2554 
Q 991 2281 991 1925 
L 991 0 
L 428 0 
L 428 3347 
z
" id="Helvetica-72" transform="scale(0.015625)"/>
       <path d="M 2503 3347 
L 3125 3347 
Q 3006 3025 2597 1878 
Q 2291 1016 2084 472 
Q 1597 -809 1397 -1090 
Q 1197 -1372 709 -1372 
Q 591 -1372 527 -1362 
Q 463 -1353 369 -1328 
L 369 -816 
Q 516 -856 581 -865 
Q 647 -875 697 -875 
Q 853 -875 926 -823 
Q 1000 -772 1050 -697 
Q 1066 -672 1162 -440 
Q 1259 -209 1303 -97 
L 66 3347 
L 703 3347 
L 1600 622 
L 2503 3347 
z
M 1597 3428 
L 1597 3428 
z
" id="Helvetica-79" transform="scale(0.015625)"/>
      </defs>
      <use xlink:href="#Helvetica-68"/>
      <use x="55.615234" xlink:href="#Helvetica-3a"/>
      <use x="83.398438" xlink:href="#Helvetica-20"/>
      <use x="111.181641" xlink:href="#Helvetica-31"/>
      <use x="166.796875" xlink:href="#Helvetica-64"/>
      <use x="222.412109" xlink:href="#Helvetica-45"/>
      <use x="289.111328" xlink:href="#Helvetica-72"/>
      <use x="322.412109" xlink:href="#Helvetica-79"/>
      <use x="372.412109" xlink:href="#Helvetica-2d"/>
      <use x="405.712891" xlink:href="#Helvetica-6f"/>
      <use x="461.328125" xlink:href="#Helvetica-6c"/>
     </g>
    </g>
    <g id="line2d_17">
     <path style="fill:none;stroke:#ca2a04;stroke-linecap:round;stroke-width:1.5;"/>
    </g>
    <g id="line2d_18">
     <defs>
      <path d="M 0 5 
C 1.326016 5 2.597899 4.473168 3.535534 3.535534 
C 4.473168 2.597899 5 1.326016 5 0 
C 5 -1.326016 4.473168 -2.597899 3.535534 -3.535534 
C 2.597899 -4.473168 1.326016 -5 0 -5 
C -1.326016 -5 -2.597899 -4.473168 -3.535534 -3.535534 
C -4.473168 -2.597899 -5 -1.326016 -5 0 
C -5 1.326016 -4.473168 2.597899 -3.535534 3.535534 
C -2.597899 4.473168 -1.326016 5 0 5 
z
" id="m240117a7a8" style="stroke:#ca2a04;"/>
     </defs>
     <g/>
    </g>
    <g id="text_9">
     <!-- i: 2,5-Anhydro-Man -->
     <g style="fill:#262626;" transform="translate(5.654688 468.609375)scale(0.2 -0.2)">
      <defs>
       <path d="M 413 3331 
L 984 3331 
L 984 0 
L 413 0 
L 413 3331 
z
M 413 4591 
L 984 4591 
L 984 3953 
L 413 3953 
L 413 4591 
z
" id="Helvetica-69" transform="scale(0.015625)"/>
       <path d="M 531 -653 
Q 747 -616 834 -350 
Q 881 -209 881 -78 
Q 881 -56 879 -39 
Q 878 -22 872 0 
L 531 0 
L 531 681 
L 1200 681 
L 1200 50 
Q 1200 -322 1050 -603 
Q 900 -884 531 -950 
L 531 -653 
z
" id="Helvetica-2c" transform="scale(0.015625)"/>
       <path d="M 413 3347 
L 947 3347 
L 947 2872 
Q 1184 3166 1450 3294 
Q 1716 3422 2041 3422 
Q 2753 3422 3003 2925 
Q 3141 2653 3141 2147 
L 3141 0 
L 2569 0 
L 2569 2109 
Q 2569 2416 2478 2603 
Q 2328 2916 1934 2916 
Q 1734 2916 1606 2875 
Q 1375 2806 1200 2600 
Q 1059 2434 1017 2257 
Q 975 2081 975 1753 
L 975 0 
L 413 0 
L 413 3347 
z
M 1734 3428 
L 1734 3428 
z
" id="Helvetica-6e" transform="scale(0.015625)"/>
       <path d="M 472 4591 
L 1363 4591 
L 2681 709 
L 3991 4591 
L 4872 4591 
L 4872 0 
L 4281 0 
L 4281 2709 
Q 4281 2850 4287 3175 
Q 4294 3500 4294 3872 
L 2984 0 
L 2369 0 
L 1050 3872 
L 1050 3731 
Q 1050 3563 1058 3217 
Q 1066 2872 1066 2709 
L 1066 0 
L 472 0 
L 472 4591 
z
" id="Helvetica-4d" transform="scale(0.015625)"/>
      </defs>
      <use xlink:href="#Helvetica-69"/>
      <use x="22.216797" xlink:href="#Helvetica-3a"/>
      <use x="50" xlink:href="#Helvetica-20"/>
      <use x="77.783203" xlink:href="#Helvetica-32"/>
      <use x="133.398438" xlink:href="#Helvetica-2c"/>
      <use x="161.181641" xlink:href="#Helvetica-35"/>
      <use x="216.796875" xlink:href="#Helvetica-2d"/>
      <use x="250.097656" xlink:href="#Helvetica-41"/>
      <use x="316.796875" xlink:href="#Helvetica-6e"/>
      <use x="372.412109" xlink:href="#Helvetica-68"/>
      <use x="428.027344" xlink:href="#Helvetica-79"/>
      <use x="478.027344" xlink:href="#Helvetica-64"/>
      <use x="533.642578" xlink:href="#Helvetica-72"/>
      <use x="566.943359" xlink:href="#Helvetica-6f"/>
      <use x="622.558594" xlink:href="#Helvetica-2d"/>
      <use x="655.859375" xlink:href="#Helvetica-4d"/>
      <use x="739.160156" xlink:href="#Helvetica-61"/>
      <use x="794.775391" xlink:href="#Helvetica-6e"/>
     </g>
    </g>
    <g id="line2d_19">
     <path style="fill:none;stroke:#7a0403;stroke-linecap:round;stroke-width:1.5;"/>
    </g>
    <g id="line2d_20">
     <defs>
      <path d="M 0 5 
C 1.326016 5 2.597899 4.473168 3.535534 3.535534 
C 4.473168 2.597899 5 1.326016 5 0 
C 5 -1.326016 4.473168 -2.597899 3.535534 -3.535534 
C 2.597899 -4.473168 1.326016 -5 0 -5 
C -1.326016 -5 -2.597899 -4.473168 -3.535534 -3.535534 
C -4.473168 -2.597899 -5 -1.326016 -5 0 
C -5 1.326016 -4.473168 2.597899 -3.535534 3.535534 
C -2.597899 4.473168 -1.326016 5 0 5 
z
" id="mbc655bc69a" style="stroke:#7a0403;"/>
     </defs>
     <g/>
    </g>
    <g id="text_10">
     <!-- j: 2,5-Anhydro-Man-ol -->
     <g style="fill:#262626;" transform="translate(5.654688 497.290625)scale(0.2 -0.2)">
      <defs>
       <path d="M 975 3941 
L 413 3941 
L 413 4591 
L 975 4591 
L 975 3941 
z
M -119 -847 
Q 259 -834 336 -779 
Q 413 -725 413 -438 
L 413 3331 
L 975 3331 
L 975 -497 
Q 975 -863 856 -1044 
Q 659 -1350 109 -1350 
Q 69 -1350 23 -1347 
Q -22 -1344 -119 -1334 
L -119 -847 
z
" id="Helvetica-6a" transform="scale(0.015625)"/>
      </defs>
      <use xlink:href="#Helvetica-6a"/>
      <use x="22.216797" xlink:href="#Helvetica-3a"/>
      <use x="50" xlink:href="#Helvetica-20"/>
      <use x="77.783203" xlink:href="#Helvetica-32"/>
      <use x="133.398438" xlink:href="#Helvetica-2c"/>
      <use x="161.181641" xlink:href="#Helvetica-35"/>
      <use x="216.796875" xlink:href="#Helvetica-2d"/>
      <use x="250.097656" xlink:href="#Helvetica-41"/>
      <use x="316.796875" xlink:href="#Helvetica-6e"/>
      <use x="372.412109" xlink:href="#Helvetica-68"/>
      <use x="428.027344" xlink:href="#Helvetica-79"/>
      <use x="478.027344" xlink:href="#Helvetica-64"/>
      <use x="533.642578" xlink:href="#Helvetica-72"/>
      <use x="566.943359" xlink:href="#Helvetica-6f"/>
      <use x="622.558594" xlink:href="#Helvetica-2d"/>
      <use x="655.859375" xlink:href="#Helvetica-4d"/>
      <use x="739.160156" xlink:href="#Helvetica-61"/>
      <use x="794.775391" xlink:href="#Helvetica-6e"/>
      <use x="850.390625" xlink:href="#Helvetica-2d"/>
      <use x="883.691406" xlink:href="#Helvetica-6f"/>
      <use x="939.306641" xlink:href="#Helvetica-6c"/>
     </g>
    </g>
   </g>
  </g>
 </g>
</svg>
