<?xml version="1.0" encoding="utf-8" standalone="no"?>
<!DOCTYPE svg PUBLIC "-//W3C//DTD SVG 1.1//EN"
  "http://www.w3.org/Graphics/SVG/1.1/DTD/svg11.dtd">
<svg height="432pt" version="1.1" viewBox="0 0 1296 432" width="1296pt" xmlns="http://www.w3.org/2000/svg" xmlns:xlink="http://www.w3.org/1999/xlink">
 <metadata>
  <rdf:RDF xmlns:cc="http://creativecommons.org/ns#" xmlns:dc="http://purl.org/dc/elements/1.1/" xmlns:rdf="http://www.w3.org/1999/02/22-rdf-syntax-ns#">
   <cc:Work>
    <dc:type rdf:resource="http://purl.org/dc/dcmitype/StillImage"/>
    <dc:date>2023-04-05T16:24:06.420950</dc:date>
    <dc:format>image/svg+xml</dc:format>
    <dc:creator>
     <cc:Agent>
      <dc:title>Matplotlib v3.4.2, https://matplotlib.org/</dc:title>
     </cc:Agent>
    </dc:creator>
   </cc:Work>
  </rdf:RDF>
 </metadata>
 <defs>
  <style type="text/css">*{stroke-linecap:butt;stroke-linejoin:round;}</style>
 </defs>
 <g id="figure_1">
  <g id="patch_1">
   <path d="M 0 432 
L 1296 432 
L 1296 0 
L 0 0 
z
" style="fill:#ffffff;"/>
  </g>
  <g id="axes_1">
   <g id="patch_2">
    <path d="M 92.54 350.44 
L 450.226667 350.44 
L 450.226667 49.2 
L 92.54 49.2 
z
" style="fill:#ffffff;"/>
   </g>
   <g id="matplotlib.axis_1">
    <g id="xtick_1">
     <g id="text_1">
      <!-- 0 -->
      <g style="fill:#262626;" transform="translate(130.577708 374.61875)scale(0.24 -0.24)">
       <defs>
        <path d="M 266 2259 
Q 266 3072 433 3567 
Q 600 4063 929 4331 
Q 1259 4600 1759 4600 
Q 2128 4600 2406 4451 
Q 2684 4303 2865 4023 
Q 3047 3744 3150 3342 
Q 3253 2941 3253 2259 
Q 3253 1453 3087 958 
Q 2922 463 2592 192 
Q 2263 -78 1759 -78 
Q 1097 -78 719 397 
Q 266 969 266 2259 
z
M 844 2259 
Q 844 1131 1108 757 
Q 1372 384 1759 384 
Q 2147 384 2411 759 
Q 2675 1134 2675 2259 
Q 2675 3391 2411 3762 
Q 2147 4134 1753 4134 
Q 1366 4134 1134 3806 
Q 844 3388 844 2259 
z
" id="ArialMT-30" transform="scale(0.015625)"/>
       </defs>
       <use xlink:href="#ArialMT-30"/>
      </g>
     </g>
    </g>
    <g id="xtick_2">
     <g id="text_2">
      <!-- 1 -->
      <g style="fill:#262626;" transform="translate(219.999375 374.61875)scale(0.24 -0.24)">
       <defs>
        <path d="M 2384 0 
L 1822 0 
L 1822 3584 
Q 1619 3391 1289 3197 
Q 959 3003 697 2906 
L 697 3450 
Q 1169 3672 1522 3987 
Q 1875 4303 2022 4600 
L 2384 4600 
L 2384 0 
z
" id="ArialMT-31" transform="scale(0.015625)"/>
       </defs>
       <use xlink:href="#ArialMT-31"/>
      </g>
     </g>
    </g>
    <g id="xtick_3">
     <g id="text_3">
      <!-- 2 -->
      <g style="fill:#262626;" transform="translate(309.421042 374.61875)scale(0.24 -0.24)">
       <defs>
        <path d="M 3222 541 
L 3222 0 
L 194 0 
Q 188 203 259 391 
Q 375 700 629 1000 
Q 884 1300 1366 1694 
Q 2113 2306 2375 2664 
Q 2638 3022 2638 3341 
Q 2638 3675 2398 3904 
Q 2159 4134 1775 4134 
Q 1369 4134 1125 3890 
Q 881 3647 878 3216 
L 300 3275 
Q 359 3922 746 4261 
Q 1134 4600 1788 4600 
Q 2447 4600 2831 4234 
Q 3216 3869 3216 3328 
Q 3216 3053 3103 2787 
Q 2991 2522 2730 2228 
Q 2469 1934 1863 1422 
Q 1356 997 1212 845 
Q 1069 694 975 541 
L 3222 541 
z
" id="ArialMT-32" transform="scale(0.015625)"/>
       </defs>
       <use xlink:href="#ArialMT-32"/>
      </g>
     </g>
    </g>
    <g id="xtick_4">
     <g id="text_4">
      <!-- 3 -->
      <g style="fill:#262626;" transform="translate(398.842708 374.61875)scale(0.24 -0.24)">
       <defs>
        <path d="M 269 1209 
L 831 1284 
Q 928 806 1161 595 
Q 1394 384 1728 384 
Q 2125 384 2398 659 
Q 2672 934 2672 1341 
Q 2672 1728 2419 1979 
Q 2166 2231 1775 2231 
Q 1616 2231 1378 2169 
L 1441 2663 
Q 1497 2656 1531 2656 
Q 1891 2656 2178 2843 
Q 2466 3031 2466 3422 
Q 2466 3731 2256 3934 
Q 2047 4138 1716 4138 
Q 1388 4138 1169 3931 
Q 950 3725 888 3313 
L 325 3413 
Q 428 3978 793 4289 
Q 1159 4600 1703 4600 
Q 2078 4600 2393 4439 
Q 2709 4278 2876 4000 
Q 3044 3722 3044 3409 
Q 3044 3113 2884 2869 
Q 2725 2625 2413 2481 
Q 2819 2388 3044 2092 
Q 3269 1797 3269 1353 
Q 3269 753 2831 336 
Q 2394 -81 1725 -81 
Q 1122 -81 723 278 
Q 325 638 269 1209 
z
" id="ArialMT-33" transform="scale(0.015625)"/>
       </defs>
       <use xlink:href="#ArialMT-33"/>
      </g>
     </g>
    </g>
    <g id="text_5">
     <!-- Class -->
     <g style="fill:#262626;" transform="translate(241.377708 400.5675)scale(0.24 -0.24)">
      <defs>
       <path d="M 3763 1606 
L 4369 1453 
Q 4178 706 3683 314 
Q 3188 -78 2472 -78 
Q 1731 -78 1267 223 
Q 803 525 561 1097 
Q 319 1669 319 2325 
Q 319 3041 592 3573 
Q 866 4106 1370 4382 
Q 1875 4659 2481 4659 
Q 3169 4659 3637 4309 
Q 4106 3959 4291 3325 
L 3694 3184 
Q 3534 3684 3231 3912 
Q 2928 4141 2469 4141 
Q 1941 4141 1586 3887 
Q 1231 3634 1087 3207 
Q 944 2781 944 2328 
Q 944 1744 1114 1308 
Q 1284 872 1643 656 
Q 2003 441 2422 441 
Q 2931 441 3284 734 
Q 3638 1028 3763 1606 
z
" id="ArialMT-43" transform="scale(0.015625)"/>
       <path d="M 409 0 
L 409 4581 
L 972 4581 
L 972 0 
L 409 0 
z
" id="ArialMT-6c" transform="scale(0.015625)"/>
       <path d="M 2588 409 
Q 2275 144 1986 34 
Q 1697 -75 1366 -75 
Q 819 -75 525 192 
Q 231 459 231 875 
Q 231 1119 342 1320 
Q 453 1522 633 1644 
Q 813 1766 1038 1828 
Q 1203 1872 1538 1913 
Q 2219 1994 2541 2106 
Q 2544 2222 2544 2253 
Q 2544 2597 2384 2738 
Q 2169 2928 1744 2928 
Q 1347 2928 1158 2789 
Q 969 2650 878 2297 
L 328 2372 
Q 403 2725 575 2942 
Q 747 3159 1072 3276 
Q 1397 3394 1825 3394 
Q 2250 3394 2515 3294 
Q 2781 3194 2906 3042 
Q 3031 2891 3081 2659 
Q 3109 2516 3109 2141 
L 3109 1391 
Q 3109 606 3145 398 
Q 3181 191 3288 0 
L 2700 0 
Q 2613 175 2588 409 
z
M 2541 1666 
Q 2234 1541 1622 1453 
Q 1275 1403 1131 1340 
Q 988 1278 909 1158 
Q 831 1038 831 891 
Q 831 666 1001 516 
Q 1172 366 1500 366 
Q 1825 366 2078 508 
Q 2331 650 2450 897 
Q 2541 1088 2541 1459 
L 2541 1666 
z
" id="ArialMT-61" transform="scale(0.015625)"/>
       <path d="M 197 991 
L 753 1078 
Q 800 744 1014 566 
Q 1228 388 1613 388 
Q 2000 388 2187 545 
Q 2375 703 2375 916 
Q 2375 1106 2209 1216 
Q 2094 1291 1634 1406 
Q 1016 1563 777 1677 
Q 538 1791 414 1992 
Q 291 2194 291 2438 
Q 291 2659 392 2848 
Q 494 3038 669 3163 
Q 800 3259 1026 3326 
Q 1253 3394 1513 3394 
Q 1903 3394 2198 3281 
Q 2494 3169 2634 2976 
Q 2775 2784 2828 2463 
L 2278 2388 
Q 2241 2644 2061 2787 
Q 1881 2931 1553 2931 
Q 1166 2931 1000 2803 
Q 834 2675 834 2503 
Q 834 2394 903 2306 
Q 972 2216 1119 2156 
Q 1203 2125 1616 2013 
Q 2213 1853 2448 1751 
Q 2684 1650 2818 1456 
Q 2953 1263 2953 975 
Q 2953 694 2789 445 
Q 2625 197 2315 61 
Q 2006 -75 1616 -75 
Q 969 -75 630 194 
Q 291 463 197 991 
z
" id="ArialMT-73" transform="scale(0.015625)"/>
      </defs>
      <use xlink:href="#ArialMT-43"/>
      <use x="72.216797" xlink:href="#ArialMT-6c"/>
      <use x="94.433594" xlink:href="#ArialMT-61"/>
      <use x="150.048828" xlink:href="#ArialMT-73"/>
      <use x="200.048828" xlink:href="#ArialMT-73"/>
     </g>
    </g>
   </g>
   <g id="matplotlib.axis_2">
    <g id="ytick_1">
     <g id="line2d_1">
      <path clip-path="url(#p19c2a9d106)" d="M 92.54 350.44 
L 450.226667 350.44 
" style="fill:none;stroke:#cccccc;stroke-linecap:round;stroke-width:0.8;"/>
     </g>
     <g id="text_6">
      <!-- 0.0 -->
      <g style="fill:#262626;" transform="translate(52.18 359.029375)scale(0.24 -0.24)">
       <defs>
        <path d="M 581 0 
L 581 641 
L 1222 641 
L 1222 0 
L 581 0 
z
" id="ArialMT-2e" transform="scale(0.015625)"/>
       </defs>
       <use xlink:href="#ArialMT-30"/>
       <use x="55.615234" xlink:href="#ArialMT-2e"/>
       <use x="83.398438" xlink:href="#ArialMT-30"/>
      </g>
     </g>
    </g>
    <g id="ytick_2">
     <g id="line2d_2">
      <path clip-path="url(#p19c2a9d106)" d="M 92.54 295.669091 
L 450.226667 295.669091 
" style="fill:none;stroke:#cccccc;stroke-linecap:round;stroke-width:0.8;"/>
     </g>
     <g id="text_7">
      <!-- 0.2 -->
      <g style="fill:#262626;" transform="translate(52.18 304.258466)scale(0.24 -0.24)">
       <use xlink:href="#ArialMT-30"/>
       <use x="55.615234" xlink:href="#ArialMT-2e"/>
       <use x="83.398438" xlink:href="#ArialMT-32"/>
      </g>
     </g>
    </g>
    <g id="ytick_3">
     <g id="line2d_3">
      <path clip-path="url(#p19c2a9d106)" d="M 92.54 240.898182 
L 450.226667 240.898182 
" style="fill:none;stroke:#cccccc;stroke-linecap:round;stroke-width:0.8;"/>
     </g>
     <g id="text_8">
      <!-- 0.4 -->
      <g style="fill:#262626;" transform="translate(52.18 249.487557)scale(0.24 -0.24)">
       <defs>
        <path d="M 2069 0 
L 2069 1097 
L 81 1097 
L 81 1613 
L 2172 4581 
L 2631 4581 
L 2631 1613 
L 3250 1613 
L 3250 1097 
L 2631 1097 
L 2631 0 
L 2069 0 
z
M 2069 1613 
L 2069 3678 
L 634 1613 
L 2069 1613 
z
" id="ArialMT-34" transform="scale(0.015625)"/>
       </defs>
       <use xlink:href="#ArialMT-30"/>
       <use x="55.615234" xlink:href="#ArialMT-2e"/>
       <use x="83.398438" xlink:href="#ArialMT-34"/>
      </g>
     </g>
    </g>
    <g id="ytick_4">
     <g id="line2d_4">
      <path clip-path="url(#p19c2a9d106)" d="M 92.54 186.127273 
L 450.226667 186.127273 
" style="fill:none;stroke:#cccccc;stroke-linecap:round;stroke-width:0.8;"/>
     </g>
     <g id="text_9">
      <!-- 0.6 -->
      <g style="fill:#262626;" transform="translate(52.18 194.716648)scale(0.24 -0.24)">
       <defs>
        <path d="M 3184 3459 
L 2625 3416 
Q 2550 3747 2413 3897 
Q 2184 4138 1850 4138 
Q 1581 4138 1378 3988 
Q 1113 3794 959 3422 
Q 806 3050 800 2363 
Q 1003 2672 1297 2822 
Q 1591 2972 1913 2972 
Q 2475 2972 2870 2558 
Q 3266 2144 3266 1488 
Q 3266 1056 3080 686 
Q 2894 316 2569 119 
Q 2244 -78 1831 -78 
Q 1128 -78 684 439 
Q 241 956 241 2144 
Q 241 3472 731 4075 
Q 1159 4600 1884 4600 
Q 2425 4600 2770 4297 
Q 3116 3994 3184 3459 
z
M 888 1484 
Q 888 1194 1011 928 
Q 1134 663 1356 523 
Q 1578 384 1822 384 
Q 2178 384 2434 671 
Q 2691 959 2691 1453 
Q 2691 1928 2437 2201 
Q 2184 2475 1800 2475 
Q 1419 2475 1153 2201 
Q 888 1928 888 1484 
z
" id="ArialMT-36" transform="scale(0.015625)"/>
       </defs>
       <use xlink:href="#ArialMT-30"/>
       <use x="55.615234" xlink:href="#ArialMT-2e"/>
       <use x="83.398438" xlink:href="#ArialMT-36"/>
      </g>
     </g>
    </g>
    <g id="ytick_5">
     <g id="line2d_5">
      <path clip-path="url(#p19c2a9d106)" d="M 92.54 131.356364 
L 450.226667 131.356364 
" style="fill:none;stroke:#cccccc;stroke-linecap:round;stroke-width:0.8;"/>
     </g>
     <g id="text_10">
      <!-- 0.8 -->
      <g style="fill:#262626;" transform="translate(52.18 139.945739)scale(0.24 -0.24)">
       <defs>
        <path d="M 1131 2484 
Q 781 2613 612 2850 
Q 444 3088 444 3419 
Q 444 3919 803 4259 
Q 1163 4600 1759 4600 
Q 2359 4600 2725 4251 
Q 3091 3903 3091 3403 
Q 3091 3084 2923 2848 
Q 2756 2613 2416 2484 
Q 2838 2347 3058 2040 
Q 3278 1734 3278 1309 
Q 3278 722 2862 322 
Q 2447 -78 1769 -78 
Q 1091 -78 675 323 
Q 259 725 259 1325 
Q 259 1772 486 2073 
Q 713 2375 1131 2484 
z
M 1019 3438 
Q 1019 3113 1228 2906 
Q 1438 2700 1772 2700 
Q 2097 2700 2305 2904 
Q 2513 3109 2513 3406 
Q 2513 3716 2298 3927 
Q 2084 4138 1766 4138 
Q 1444 4138 1231 3931 
Q 1019 3725 1019 3438 
z
M 838 1322 
Q 838 1081 952 856 
Q 1066 631 1291 507 
Q 1516 384 1775 384 
Q 2178 384 2440 643 
Q 2703 903 2703 1303 
Q 2703 1709 2433 1975 
Q 2163 2241 1756 2241 
Q 1359 2241 1098 1978 
Q 838 1716 838 1322 
z
" id="ArialMT-38" transform="scale(0.015625)"/>
       </defs>
       <use xlink:href="#ArialMT-30"/>
       <use x="55.615234" xlink:href="#ArialMT-2e"/>
       <use x="83.398438" xlink:href="#ArialMT-38"/>
      </g>
     </g>
    </g>
    <g id="ytick_6">
     <g id="line2d_6">
      <path clip-path="url(#p19c2a9d106)" d="M 92.54 76.585455 
L 450.226667 76.585455 
" style="fill:none;stroke:#cccccc;stroke-linecap:round;stroke-width:0.8;"/>
     </g>
     <g id="text_11">
      <!-- 1.0 -->
      <g style="fill:#262626;" transform="translate(52.18 85.17483)scale(0.24 -0.24)">
       <use xlink:href="#ArialMT-31"/>
       <use x="55.615234" xlink:href="#ArialMT-2e"/>
       <use x="83.398438" xlink:href="#ArialMT-30"/>
      </g>
     </g>
    </g>
    <g id="text_12">
     <!-- MCC -->
     <g style="fill:#262626;" transform="translate(43.41 227.148125)rotate(-90)scale(0.24 -0.24)">
      <defs>
       <path d="M 475 0 
L 475 4581 
L 1388 4581 
L 2472 1338 
Q 2622 884 2691 659 
Q 2769 909 2934 1394 
L 4031 4581 
L 4847 4581 
L 4847 0 
L 4263 0 
L 4263 3834 
L 2931 0 
L 2384 0 
L 1059 3900 
L 1059 0 
L 475 0 
z
" id="ArialMT-4d" transform="scale(0.015625)"/>
      </defs>
      <use xlink:href="#ArialMT-4d"/>
      <use x="83.300781" xlink:href="#ArialMT-43"/>
      <use x="155.517578" xlink:href="#ArialMT-43"/>
     </g>
    </g>
   </g>
   <g id="PathCollection_1"/>
   <g id="PathCollection_2"/>
   <g id="patch_3">
    <path clip-path="url(#p19c2a9d106)" d="M 101.482167 350.44 
L 137.250833 350.44 
L 137.250833 330.765105 
L 101.482167 330.765105 
z
" style="fill:#7f9dd2;stroke:#000000;stroke-linejoin:miter;"/>
   </g>
   <g id="patch_4">
    <path clip-path="url(#p19c2a9d106)" d="M 190.903833 350.44 
L 226.6725 350.44 
L 226.6725 331.08491 
L 190.903833 331.08491 
z
" style="fill:#7f9dd2;stroke:#000000;stroke-linejoin:miter;"/>
   </g>
   <g id="patch_5">
    <path clip-path="url(#p19c2a9d106)" d="M 280.3255 350.44 
L 316.094167 350.44 
L 316.094167 344.001191 
L 280.3255 344.001191 
z
" style="fill:#7f9dd2;stroke:#000000;stroke-linejoin:miter;"/>
   </g>
   <g id="patch_6">
    <path clip-path="url(#p19c2a9d106)" d="M 369.747167 350.44 
L 405.515833 350.44 
L 405.515833 247.823741 
L 369.747167 247.823741 
z
" style="fill:#7f9dd2;stroke:#000000;stroke-linejoin:miter;"/>
   </g>
   <g id="patch_7">
    <path clip-path="url(#p19c2a9d106)" d="M 137.250833 350.44 
L 173.0195 350.44 
L 173.0195 341.267497 
L 137.250833 341.267497 
z
" style="fill:#d3d3d3;stroke:#000000;stroke-linejoin:miter;"/>
   </g>
   <g id="patch_8">
    <path clip-path="url(#p19c2a9d106)" d="M 226.6725 350.44 
L 262.441167 350.44 
L 262.441167 346.509976 
L 226.6725 346.509976 
z
" style="fill:#d3d3d3;stroke:#000000;stroke-linejoin:miter;"/>
   </g>
   <g id="patch_9">
    <path clip-path="url(#p19c2a9d106)" d="M 316.094167 350.44 
L 351.862833 350.44 
L 351.862833 347.779817 
L 316.094167 347.779817 
z
" style="fill:#d3d3d3;stroke:#000000;stroke-linejoin:miter;"/>
   </g>
   <g id="patch_10">
    <path clip-path="url(#p19c2a9d106)" d="M 405.515833 350.44 
L 441.2845 350.44 
L 441.2845 321.020389 
L 405.515833 321.020389 
z
" style="fill:#d3d3d3;stroke:#000000;stroke-linejoin:miter;"/>
   </g>
   <g id="line2d_7">
    <path clip-path="url(#p19c2a9d106)" d="M 119.3665 331.491845 
L 119.3665 330.038366 
" style="fill:none;stroke:#000000;stroke-linecap:round;stroke-width:1.5;"/>
   </g>
   <g id="line2d_8">
    <path clip-path="url(#p19c2a9d106)" d="M 110.424333 331.491845 
L 128.308667 331.491845 
" style="fill:none;stroke:#000000;stroke-linecap:round;stroke-width:1.5;"/>
   </g>
   <g id="line2d_9">
    <path clip-path="url(#p19c2a9d106)" d="M 110.424333 330.038366 
L 128.308667 330.038366 
" style="fill:none;stroke:#000000;stroke-linecap:round;stroke-width:1.5;"/>
   </g>
   <g id="line2d_10">
    <path clip-path="url(#p19c2a9d106)" d="M 208.788167 331.348665 
L 208.788167 330.821155 
" style="fill:none;stroke:#000000;stroke-linecap:round;stroke-width:1.5;"/>
   </g>
   <g id="line2d_11">
    <path clip-path="url(#p19c2a9d106)" d="M 199.846 331.348665 
L 217.730333 331.348665 
" style="fill:none;stroke:#000000;stroke-linecap:round;stroke-width:1.5;"/>
   </g>
   <g id="line2d_12">
    <path clip-path="url(#p19c2a9d106)" d="M 199.846 330.821155 
L 217.730333 330.821155 
" style="fill:none;stroke:#000000;stroke-linecap:round;stroke-width:1.5;"/>
   </g>
   <g id="line2d_13">
    <path clip-path="url(#p19c2a9d106)" d="M 298.209833 345.499429 
L 298.209833 342.502954 
" style="fill:none;stroke:#000000;stroke-linecap:round;stroke-width:1.5;"/>
   </g>
   <g id="line2d_14">
    <path clip-path="url(#p19c2a9d106)" d="M 289.267667 345.499429 
L 307.152 345.499429 
" style="fill:none;stroke:#000000;stroke-linecap:round;stroke-width:1.5;"/>
   </g>
   <g id="line2d_15">
    <path clip-path="url(#p19c2a9d106)" d="M 289.267667 342.502954 
L 307.152 342.502954 
" style="fill:none;stroke:#000000;stroke-linecap:round;stroke-width:1.5;"/>
   </g>
   <g id="line2d_16">
    <path clip-path="url(#p19c2a9d106)" d="M 387.6315 250.171774 
L 387.6315 245.475709 
" style="fill:none;stroke:#000000;stroke-linecap:round;stroke-width:1.5;"/>
   </g>
   <g id="line2d_17">
    <path clip-path="url(#p19c2a9d106)" d="M 378.689333 250.171774 
L 396.573667 250.171774 
" style="fill:none;stroke:#000000;stroke-linecap:round;stroke-width:1.5;"/>
   </g>
   <g id="line2d_18">
    <path clip-path="url(#p19c2a9d106)" d="M 378.689333 245.475709 
L 396.573667 245.475709 
" style="fill:none;stroke:#000000;stroke-linecap:round;stroke-width:1.5;"/>
   </g>
   <g id="line2d_19">
    <path clip-path="url(#p19c2a9d106)" d="M 155.135167 343.774425 
L 155.135167 338.760568 
" style="fill:none;stroke:#000000;stroke-linecap:round;stroke-width:1.5;"/>
   </g>
   <g id="line2d_20">
    <path clip-path="url(#p19c2a9d106)" d="M 146.193 343.774425 
L 164.077333 343.774425 
" style="fill:none;stroke:#000000;stroke-linecap:round;stroke-width:1.5;"/>
   </g>
   <g id="line2d_21">
    <path clip-path="url(#p19c2a9d106)" d="M 146.193 338.760568 
L 164.077333 338.760568 
" style="fill:none;stroke:#000000;stroke-linecap:round;stroke-width:1.5;"/>
   </g>
   <g id="line2d_22">
    <path clip-path="url(#p19c2a9d106)" d="M 244.556833 347.083828 
L 244.556833 345.936125 
" style="fill:none;stroke:#000000;stroke-linecap:round;stroke-width:1.5;"/>
   </g>
   <g id="line2d_23">
    <path clip-path="url(#p19c2a9d106)" d="M 235.614667 347.083828 
L 253.499 347.083828 
" style="fill:none;stroke:#000000;stroke-linecap:round;stroke-width:1.5;"/>
   </g>
   <g id="line2d_24">
    <path clip-path="url(#p19c2a9d106)" d="M 235.614667 345.936125 
L 253.499 345.936125 
" style="fill:none;stroke:#000000;stroke-linecap:round;stroke-width:1.5;"/>
   </g>
   <g id="line2d_25">
    <path clip-path="url(#p19c2a9d106)" d="M 333.9785 348.510018 
L 333.9785 347.049616 
" style="fill:none;stroke:#000000;stroke-linecap:round;stroke-width:1.5;"/>
   </g>
   <g id="line2d_26">
    <path clip-path="url(#p19c2a9d106)" d="M 325.036333 348.510018 
L 342.920667 348.510018 
" style="fill:none;stroke:#000000;stroke-linecap:round;stroke-width:1.5;"/>
   </g>
   <g id="line2d_27">
    <path clip-path="url(#p19c2a9d106)" d="M 325.036333 347.049616 
L 342.920667 347.049616 
" style="fill:none;stroke:#000000;stroke-linecap:round;stroke-width:1.5;"/>
   </g>
   <g id="line2d_28">
    <path clip-path="url(#p19c2a9d106)" d="M 423.400167 322.880601 
L 423.400167 319.160176 
" style="fill:none;stroke:#000000;stroke-linecap:round;stroke-width:1.5;"/>
   </g>
   <g id="line2d_29">
    <path clip-path="url(#p19c2a9d106)" d="M 414.458 322.880601 
L 432.342333 322.880601 
" style="fill:none;stroke:#000000;stroke-linecap:round;stroke-width:1.5;"/>
   </g>
   <g id="line2d_30">
    <path clip-path="url(#p19c2a9d106)" d="M 414.458 319.160176 
L 432.342333 319.160176 
" style="fill:none;stroke:#000000;stroke-linecap:round;stroke-width:1.5;"/>
   </g>
   <g id="patch_11">
    <path d="M 92.54 350.44 
L 92.54 49.2 
" style="fill:none;stroke:#cccccc;stroke-linecap:square;stroke-linejoin:miter;stroke-width:0.8;"/>
   </g>
   <g id="patch_12">
    <path d="M 92.54 350.44 
L 450.226667 350.44 
" style="fill:none;stroke:#cccccc;stroke-linecap:square;stroke-linejoin:miter;stroke-width:0.8;"/>
   </g>
   <g id="PathCollection_3">
    <defs>
     <path d="M 0 5 
C 1.326016 5 2.597899 4.473168 3.535534 3.535534 
C 4.473168 2.597899 5 1.326016 5 -0 
C 5 -1.326016 4.473168 -2.597899 3.535534 -3.535534 
C 2.597899 -4.473168 1.326016 -5 0 -5 
C -1.326016 -5 -2.597899 -4.473168 -3.535534 -3.535534 
C -4.473168 -2.597899 -5 -1.326016 -5 0 
C -5 1.326016 -4.473168 2.597899 -3.535534 3.535534 
C -2.597899 4.473168 -1.326016 5 0 5 
z
" id="C0_0_433870e133"/>
    </defs>
    <g clip-path="url(#p19c2a9d106)">
     <use style="fill:#6495ed;stroke:#000000;" x="119.3665" xlink:href="#C0_0_433870e133" y="331.792316"/>
    </g>
    <g clip-path="url(#p19c2a9d106)">
     <use style="fill:#6495ed;stroke:#000000;" x="108.832588" xlink:href="#C0_0_433870e133" y="330.280729"/>
    </g>
    <g clip-path="url(#p19c2a9d106)">
     <use style="fill:#6495ed;stroke:#000000;" x="129.861967" xlink:href="#C0_0_433870e133" y="330.222272"/>
    </g>
   </g>
   <g id="PathCollection_4">
    <defs>
     <path d="M 0 5 
C 1.326016 5 2.597899 4.473168 3.535534 3.535534 
C 4.473168 2.597899 5 1.326016 5 -0 
C 5 -1.326016 4.473168 -2.597899 3.535534 -3.535534 
C 2.597899 -4.473168 1.326016 -5 0 -5 
C -1.326016 -5 -2.597899 -4.473168 -3.535534 -3.535534 
C -4.473168 -2.597899 -5 -1.326016 -5 0 
C -5 1.326016 -4.473168 2.597899 -3.535534 3.535534 
C -2.597899 4.473168 -1.326016 5 0 5 
z
" id="C1_0_d0ad40833b"/>
    </defs>
    <g clip-path="url(#p19c2a9d106)">
     <use style="fill:#d3d3d3;stroke:#000000;" x="155.135167" xlink:href="#C1_0_d0ad40833b" y="344.701082"/>
    </g>
    <g clip-path="url(#p19c2a9d106)">
     <use style="fill:#d3d3d3;stroke:#000000;" x="149.227649" xlink:href="#C1_0_d0ad40833b" y="340.315493"/>
    </g>
    <g clip-path="url(#p19c2a9d106)">
     <use style="fill:#d3d3d3;stroke:#000000;" x="159.749899" xlink:href="#C1_0_d0ad40833b" y="338.785914"/>
    </g>
   </g>
   <g id="PathCollection_5">
    <defs>
     <path d="M 0 5 
C 1.326016 5 2.597899 4.473168 3.535534 3.535534 
C 4.473168 2.597899 5 1.326016 5 -0 
C 5 -1.326016 4.473168 -2.597899 3.535534 -3.535534 
C 2.597899 -4.473168 1.326016 -5 0 -5 
C -1.326016 -5 -2.597899 -4.473168 -3.535534 -3.535534 
C -4.473168 -2.597899 -5 -1.326016 -5 0 
C -5 1.326016 -4.473168 2.597899 -3.535534 3.535534 
C -2.597899 4.473168 -1.326016 5 0 5 
z
" id="C2_0_58a010a946"/>
    </defs>
    <g clip-path="url(#p19c2a9d106)">
     <use style="fill:#6495ed;stroke:#000000;" x="208.788167" xlink:href="#C2_0_58a010a946" y="331.395454"/>
    </g>
    <g clip-path="url(#p19c2a9d106)">
     <use style="fill:#6495ed;stroke:#000000;" x="197.795053" xlink:href="#C2_0_58a010a946" y="331.108586"/>
    </g>
    <g clip-path="url(#p19c2a9d106)">
     <use style="fill:#6495ed;stroke:#000000;" x="219.713007" xlink:href="#C2_0_58a010a946" y="330.750691"/>
    </g>
   </g>
   <g id="PathCollection_6">
    <defs>
     <path d="M 0 5 
C 1.326016 5 2.597899 4.473168 3.535534 3.535534 
C 4.473168 2.597899 5 1.326016 5 -0 
C 5 -1.326016 4.473168 -2.597899 3.535534 -3.535534 
C 2.597899 -4.473168 1.326016 -5 0 -5 
C -1.326016 -5 -2.597899 -4.473168 -3.535534 -3.535534 
C -4.473168 -2.597899 -5 -1.326016 -5 0 
C -5 1.326016 -4.473168 2.597899 -3.535534 3.535534 
C -2.597899 4.473168 -1.326016 5 0 5 
z
" id="C3_0_266c9fedee"/>
    </defs>
    <g clip-path="url(#p19c2a9d106)">
     <use style="fill:#d3d3d3;stroke:#000000;" x="244.556833" xlink:href="#C3_0_266c9fedee" y="347.146382"/>
    </g>
    <g clip-path="url(#p19c2a9d106)">
     <use style="fill:#d3d3d3;stroke:#000000;" x="233.601864" xlink:href="#C3_0_266c9fedee" y="346.627893"/>
    </g>
    <g clip-path="url(#p19c2a9d106)">
     <use style="fill:#d3d3d3;stroke:#000000;" x="255.165206" xlink:href="#C3_0_266c9fedee" y="345.755655"/>
    </g>
   </g>
   <g id="PathCollection_7">
    <defs>
     <path d="M 0 5 
C 1.326016 5 2.597899 4.473168 3.535534 3.535534 
C 4.473168 2.597899 5 1.326016 5 -0 
C 5 -1.326016 4.473168 -2.597899 3.535534 -3.535534 
C 2.597899 -4.473168 1.326016 -5 0 -5 
C -1.326016 -5 -2.597899 -4.473168 -3.535534 -3.535534 
C -4.473168 -2.597899 -5 -1.326016 -5 0 
C -5 1.326016 -4.473168 2.597899 -3.535534 3.535534 
C -2.597899 4.473168 -1.326016 5 0 5 
z
" id="C4_0_8a0584c31a"/>
    </defs>
    <g clip-path="url(#p19c2a9d106)">
     <use style="fill:#6495ed;stroke:#000000;" x="298.209833" xlink:href="#C4_0_8a0584c31a" y="346.072444"/>
    </g>
    <g clip-path="url(#p19c2a9d106)">
     <use style="fill:#6495ed;stroke:#000000;" x="288.828542" xlink:href="#C4_0_8a0584c31a" y="343.352225"/>
    </g>
    <g clip-path="url(#p19c2a9d106)">
     <use style="fill:#6495ed;stroke:#000000;" x="306.361081" xlink:href="#C4_0_8a0584c31a" y="342.578904"/>
    </g>
   </g>
   <g id="PathCollection_8">
    <defs>
     <path d="M 0 5 
C 1.326016 5 2.597899 4.473168 3.535534 3.535534 
C 4.473168 2.597899 5 1.326016 5 -0 
C 5 -1.326016 4.473168 -2.597899 3.535534 -3.535534 
C 2.597899 -4.473168 1.326016 -5 0 -5 
C -1.326016 -5 -2.597899 -4.473168 -3.535534 -3.535534 
C -4.473168 -2.597899 -5 -1.326016 -5 0 
C -5 1.326016 -4.473168 2.597899 -3.535534 3.535534 
C -2.597899 4.473168 -1.326016 5 0 5 
z
" id="C5_0_527d73f4ba"/>
    </defs>
    <g clip-path="url(#p19c2a9d106)">
     <use style="fill:#d3d3d3;stroke:#000000;" x="333.9785" xlink:href="#C5_0_527d73f4ba" y="348.806652"/>
    </g>
    <g clip-path="url(#p19c2a9d106)">
     <use style="fill:#d3d3d3;stroke:#000000;" x="323.402976" xlink:href="#C5_0_527d73f4ba" y="347.361256"/>
    </g>
    <g clip-path="url(#p19c2a9d106)">
     <use style="fill:#d3d3d3;stroke:#000000;" x="344.429284" xlink:href="#C5_0_527d73f4ba" y="347.171543"/>
    </g>
   </g>
   <g id="PathCollection_9">
    <defs>
     <path d="M 0 5 
C 1.326016 5 2.597899 4.473168 3.535534 3.535534 
C 4.473168 2.597899 5 1.326016 5 -0 
C 5 -1.326016 4.473168 -2.597899 3.535534 -3.535534 
C 2.597899 -4.473168 1.326016 -5 0 -5 
C -1.326016 -5 -2.597899 -4.473168 -3.535534 -3.535534 
C -4.473168 -2.597899 -5 -1.326016 -5 0 
C -5 1.326016 -4.473168 2.597899 -3.535534 3.535534 
C -2.597899 4.473168 -1.326016 5 0 5 
z
" id="C6_0_74915967ce"/>
    </defs>
    <g clip-path="url(#p19c2a9d106)">
     <use style="fill:#6495ed;stroke:#000000;" x="387.6315" xlink:href="#C6_0_74915967ce" y="250.457157"/>
    </g>
    <g clip-path="url(#p19c2a9d106)">
     <use style="fill:#6495ed;stroke:#000000;" x="377.655093" xlink:href="#C6_0_74915967ce" y="248.258811"/>
    </g>
    <g clip-path="url(#p19c2a9d106)">
     <use style="fill:#6495ed;stroke:#000000;" x="387.6315" xlink:href="#C6_0_74915967ce" y="244.755256"/>
    </g>
   </g>
   <g id="PathCollection_10">
    <defs>
     <path d="M 0 5 
C 1.326016 5 2.597899 4.473168 3.535534 3.535534 
C 4.473168 2.597899 5 1.326016 5 -0 
C 5 -1.326016 4.473168 -2.597899 3.535534 -3.535534 
C 2.597899 -4.473168 1.326016 -5 0 -5 
C -1.326016 -5 -2.597899 -4.473168 -3.535534 -3.535534 
C -4.473168 -2.597899 -5 -1.326016 -5 0 
C -5 1.326016 -4.473168 2.597899 -3.535534 3.535534 
C -2.597899 4.473168 -1.326016 5 0 5 
z
" id="C7_0_295a31cac6"/>
    </defs>
    <g clip-path="url(#p19c2a9d106)">
     <use style="fill:#d3d3d3;stroke:#000000;" x="423.400167" xlink:href="#C7_0_295a31cac6" y="323.534796"/>
    </g>
    <g clip-path="url(#p19c2a9d106)">
     <use style="fill:#d3d3d3;stroke:#000000;" x="414.565942" xlink:href="#C7_0_295a31cac6" y="320.433185"/>
    </g>
    <g clip-path="url(#p19c2a9d106)">
     <use style="fill:#d3d3d3;stroke:#000000;" x="429.116753" xlink:href="#C7_0_295a31cac6" y="319.093185"/>
    </g>
   </g>
   <g id="text_13">
    <!-- Model = AutoKeras -->
    <g style="fill:#262626;" transform="translate(169.655208 43.2)scale(0.24 -0.24)">
     <defs>
      <path d="M 213 1659 
Q 213 2581 725 3025 
Q 1153 3394 1769 3394 
Q 2453 3394 2887 2945 
Q 3322 2497 3322 1706 
Q 3322 1066 3130 698 
Q 2938 331 2570 128 
Q 2203 -75 1769 -75 
Q 1072 -75 642 372 
Q 213 819 213 1659 
z
M 791 1659 
Q 791 1022 1069 705 
Q 1347 388 1769 388 
Q 2188 388 2466 706 
Q 2744 1025 2744 1678 
Q 2744 2294 2464 2611 
Q 2184 2928 1769 2928 
Q 1347 2928 1069 2612 
Q 791 2297 791 1659 
z
" id="ArialMT-6f" transform="scale(0.015625)"/>
      <path d="M 2575 0 
L 2575 419 
Q 2259 -75 1647 -75 
Q 1250 -75 917 144 
Q 584 363 401 755 
Q 219 1147 219 1656 
Q 219 2153 384 2558 
Q 550 2963 881 3178 
Q 1213 3394 1622 3394 
Q 1922 3394 2156 3267 
Q 2391 3141 2538 2938 
L 2538 4581 
L 3097 4581 
L 3097 0 
L 2575 0 
z
M 797 1656 
Q 797 1019 1065 703 
Q 1334 388 1700 388 
Q 2069 388 2326 689 
Q 2584 991 2584 1609 
Q 2584 2291 2321 2609 
Q 2059 2928 1675 2928 
Q 1300 2928 1048 2622 
Q 797 2316 797 1656 
z
" id="ArialMT-64" transform="scale(0.015625)"/>
      <path d="M 2694 1069 
L 3275 997 
Q 3138 488 2766 206 
Q 2394 -75 1816 -75 
Q 1088 -75 661 373 
Q 234 822 234 1631 
Q 234 2469 665 2931 
Q 1097 3394 1784 3394 
Q 2450 3394 2872 2941 
Q 3294 2488 3294 1666 
Q 3294 1616 3291 1516 
L 816 1516 
Q 847 969 1125 678 
Q 1403 388 1819 388 
Q 2128 388 2347 550 
Q 2566 713 2694 1069 
z
M 847 1978 
L 2700 1978 
Q 2663 2397 2488 2606 
Q 2219 2931 1791 2931 
Q 1403 2931 1139 2672 
Q 875 2413 847 1978 
z
" id="ArialMT-65" transform="scale(0.015625)"/>
      <path id="ArialMT-20" transform="scale(0.015625)"/>
      <path d="M 3381 2694 
L 356 2694 
L 356 3219 
L 3381 3219 
L 3381 2694 
z
M 3381 1303 
L 356 1303 
L 356 1828 
L 3381 1828 
L 3381 1303 
z
" id="ArialMT-3d" transform="scale(0.015625)"/>
      <path d="M -9 0 
L 1750 4581 
L 2403 4581 
L 4278 0 
L 3588 0 
L 3053 1388 
L 1138 1388 
L 634 0 
L -9 0 
z
M 1313 1881 
L 2866 1881 
L 2388 3150 
Q 2169 3728 2063 4100 
Q 1975 3659 1816 3225 
L 1313 1881 
z
" id="ArialMT-41" transform="scale(0.015625)"/>
      <path d="M 2597 0 
L 2597 488 
Q 2209 -75 1544 -75 
Q 1250 -75 995 37 
Q 741 150 617 320 
Q 494 491 444 738 
Q 409 903 409 1263 
L 409 3319 
L 972 3319 
L 972 1478 
Q 972 1038 1006 884 
Q 1059 663 1231 536 
Q 1403 409 1656 409 
Q 1909 409 2131 539 
Q 2353 669 2445 892 
Q 2538 1116 2538 1541 
L 2538 3319 
L 3100 3319 
L 3100 0 
L 2597 0 
z
" id="ArialMT-75" transform="scale(0.015625)"/>
      <path d="M 1650 503 
L 1731 6 
Q 1494 -44 1306 -44 
Q 1000 -44 831 53 
Q 663 150 594 308 
Q 525 466 525 972 
L 525 2881 
L 113 2881 
L 113 3319 
L 525 3319 
L 525 4141 
L 1084 4478 
L 1084 3319 
L 1650 3319 
L 1650 2881 
L 1084 2881 
L 1084 941 
Q 1084 700 1114 631 
Q 1144 563 1211 522 
Q 1278 481 1403 481 
Q 1497 481 1650 503 
z
" id="ArialMT-74" transform="scale(0.015625)"/>
      <path d="M 469 0 
L 469 4581 
L 1075 4581 
L 1075 2309 
L 3350 4581 
L 4172 4581 
L 2250 2725 
L 4256 0 
L 3456 0 
L 1825 2319 
L 1075 1588 
L 1075 0 
L 469 0 
z
" id="ArialMT-4b" transform="scale(0.015625)"/>
      <path d="M 416 0 
L 416 3319 
L 922 3319 
L 922 2816 
Q 1116 3169 1280 3281 
Q 1444 3394 1641 3394 
Q 1925 3394 2219 3213 
L 2025 2691 
Q 1819 2813 1613 2813 
Q 1428 2813 1281 2702 
Q 1134 2591 1072 2394 
Q 978 2094 978 1738 
L 978 0 
L 416 0 
z
" id="ArialMT-72" transform="scale(0.015625)"/>
     </defs>
     <use xlink:href="#ArialMT-4d"/>
     <use x="83.300781" xlink:href="#ArialMT-6f"/>
     <use x="138.916016" xlink:href="#ArialMT-64"/>
     <use x="194.53125" xlink:href="#ArialMT-65"/>
     <use x="250.146484" xlink:href="#ArialMT-6c"/>
     <use x="272.363281" xlink:href="#ArialMT-20"/>
     <use x="300.146484" xlink:href="#ArialMT-3d"/>
     <use x="358.544922" xlink:href="#ArialMT-20"/>
     <use x="380.828125" xlink:href="#ArialMT-41"/>
     <use x="447.527344" xlink:href="#ArialMT-75"/>
     <use x="503.142578" xlink:href="#ArialMT-74"/>
     <use x="530.925781" xlink:href="#ArialMT-6f"/>
     <use x="586.541016" xlink:href="#ArialMT-4b"/>
     <use x="653.240234" xlink:href="#ArialMT-65"/>
     <use x="708.855469" xlink:href="#ArialMT-72"/>
     <use x="742.15625" xlink:href="#ArialMT-61"/>
     <use x="797.771484" xlink:href="#ArialMT-73"/>
    </g>
   </g>
   <g id="legend_1">
    <g id="patch_13">
     <path d="M 241.917917 170.835 
L 433.426667 170.835 
Q 438.226667 170.835 438.226667 166.035 
L 438.226667 66 
Q 438.226667 61.2 433.426667 61.2 
L 241.917917 61.2 
Q 237.117917 61.2 237.117917 66 
L 237.117917 166.035 
Q 237.117917 170.835 241.917917 170.835 
z
" style="fill:#ffffff;opacity:0.8;stroke:#cccccc;stroke-linejoin:miter;"/>
    </g>
    <g id="text_14">
     <!-- Data -->
     <g style="fill:#262626;" transform="translate(312.326042 87.97875)scale(0.24 -0.24)">
      <defs>
       <path d="M 494 0 
L 494 4581 
L 2072 4581 
Q 2606 4581 2888 4516 
Q 3281 4425 3559 4188 
Q 3922 3881 4101 3404 
Q 4281 2928 4281 2316 
Q 4281 1794 4159 1391 
Q 4038 988 3847 723 
Q 3656 459 3429 307 
Q 3203 156 2883 78 
Q 2563 0 2147 0 
L 494 0 
z
M 1100 541 
L 2078 541 
Q 2531 541 2789 625 
Q 3047 709 3200 863 
Q 3416 1078 3536 1442 
Q 3656 1806 3656 2325 
Q 3656 3044 3420 3430 
Q 3184 3816 2847 3947 
Q 2603 4041 2063 4041 
L 1100 4041 
L 1100 541 
z
" id="ArialMT-44" transform="scale(0.015625)"/>
      </defs>
      <use xlink:href="#ArialMT-44"/>
      <use x="72.216797" xlink:href="#ArialMT-61"/>
      <use x="127.832031" xlink:href="#ArialMT-74"/>
      <use x="155.615234" xlink:href="#ArialMT-61"/>
     </g>
    </g>
    <g id="patch_14">
     <path d="M 246.717917 122.235 
L 294.717917 122.235 
L 294.717917 105.435 
L 246.717917 105.435 
z
" style="fill:#7f9dd2;stroke:#000000;stroke-linejoin:miter;"/>
    </g>
    <g id="text_15">
     <!-- Original -->
     <g style="fill:#262626;" transform="translate(313.917917 122.235)scale(0.24 -0.24)">
      <defs>
       <path d="M 309 2231 
Q 309 3372 921 4017 
Q 1534 4663 2503 4663 
Q 3138 4663 3647 4359 
Q 4156 4056 4423 3514 
Q 4691 2972 4691 2284 
Q 4691 1588 4409 1038 
Q 4128 488 3612 205 
Q 3097 -78 2500 -78 
Q 1853 -78 1343 234 
Q 834 547 571 1087 
Q 309 1628 309 2231 
z
M 934 2222 
Q 934 1394 1379 917 
Q 1825 441 2497 441 
Q 3181 441 3623 922 
Q 4066 1403 4066 2288 
Q 4066 2847 3877 3264 
Q 3688 3681 3323 3911 
Q 2959 4141 2506 4141 
Q 1863 4141 1398 3698 
Q 934 3256 934 2222 
z
" id="ArialMT-4f" transform="scale(0.015625)"/>
       <path d="M 425 3934 
L 425 4581 
L 988 4581 
L 988 3934 
L 425 3934 
z
M 425 0 
L 425 3319 
L 988 3319 
L 988 0 
L 425 0 
z
" id="ArialMT-69" transform="scale(0.015625)"/>
       <path d="M 319 -275 
L 866 -356 
Q 900 -609 1056 -725 
Q 1266 -881 1628 -881 
Q 2019 -881 2231 -725 
Q 2444 -569 2519 -288 
Q 2563 -116 2559 434 
Q 2191 0 1641 0 
Q 956 0 581 494 
Q 206 988 206 1678 
Q 206 2153 378 2554 
Q 550 2956 876 3175 
Q 1203 3394 1644 3394 
Q 2231 3394 2613 2919 
L 2613 3319 
L 3131 3319 
L 3131 450 
Q 3131 -325 2973 -648 
Q 2816 -972 2473 -1159 
Q 2131 -1347 1631 -1347 
Q 1038 -1347 672 -1080 
Q 306 -813 319 -275 
z
M 784 1719 
Q 784 1066 1043 766 
Q 1303 466 1694 466 
Q 2081 466 2343 764 
Q 2606 1063 2606 1700 
Q 2606 2309 2336 2618 
Q 2066 2928 1684 2928 
Q 1309 2928 1046 2623 
Q 784 2319 784 1719 
z
" id="ArialMT-67" transform="scale(0.015625)"/>
       <path d="M 422 0 
L 422 3319 
L 928 3319 
L 928 2847 
Q 1294 3394 1984 3394 
Q 2284 3394 2536 3286 
Q 2788 3178 2913 3003 
Q 3038 2828 3088 2588 
Q 3119 2431 3119 2041 
L 3119 0 
L 2556 0 
L 2556 2019 
Q 2556 2363 2490 2533 
Q 2425 2703 2258 2804 
Q 2091 2906 1866 2906 
Q 1506 2906 1245 2678 
Q 984 2450 984 1813 
L 984 0 
L 422 0 
z
" id="ArialMT-6e" transform="scale(0.015625)"/>
      </defs>
      <use xlink:href="#ArialMT-4f"/>
      <use x="77.783203" xlink:href="#ArialMT-72"/>
      <use x="111.083984" xlink:href="#ArialMT-69"/>
      <use x="133.300781" xlink:href="#ArialMT-67"/>
      <use x="188.916016" xlink:href="#ArialMT-69"/>
      <use x="211.132812" xlink:href="#ArialMT-6e"/>
      <use x="266.748047" xlink:href="#ArialMT-61"/>
      <use x="322.363281" xlink:href="#ArialMT-6c"/>
     </g>
    </g>
    <g id="patch_15">
     <path d="M 246.717917 156.465 
L 294.717917 156.465 
L 294.717917 139.665 
L 246.717917 139.665 
z
" style="fill:#d3d3d3;stroke:#000000;stroke-linejoin:miter;"/>
    </g>
    <g id="text_16">
     <!-- Scrambled -->
     <g style="fill:#262626;" transform="translate(313.917917 156.465)scale(0.24 -0.24)">
      <defs>
       <path d="M 288 1472 
L 859 1522 
Q 900 1178 1048 958 
Q 1197 738 1509 602 
Q 1822 466 2213 466 
Q 2559 466 2825 569 
Q 3091 672 3220 851 
Q 3350 1031 3350 1244 
Q 3350 1459 3225 1620 
Q 3100 1781 2813 1891 
Q 2628 1963 1997 2114 
Q 1366 2266 1113 2400 
Q 784 2572 623 2826 
Q 463 3081 463 3397 
Q 463 3744 659 4045 
Q 856 4347 1234 4503 
Q 1613 4659 2075 4659 
Q 2584 4659 2973 4495 
Q 3363 4331 3572 4012 
Q 3781 3694 3797 3291 
L 3216 3247 
Q 3169 3681 2898 3903 
Q 2628 4125 2100 4125 
Q 1550 4125 1298 3923 
Q 1047 3722 1047 3438 
Q 1047 3191 1225 3031 
Q 1400 2872 2139 2705 
Q 2878 2538 3153 2413 
Q 3553 2228 3743 1945 
Q 3934 1663 3934 1294 
Q 3934 928 3725 604 
Q 3516 281 3123 101 
Q 2731 -78 2241 -78 
Q 1619 -78 1198 103 
Q 778 284 539 648 
Q 300 1013 288 1472 
z
" id="ArialMT-53" transform="scale(0.015625)"/>
       <path d="M 2588 1216 
L 3141 1144 
Q 3050 572 2676 248 
Q 2303 -75 1759 -75 
Q 1078 -75 664 370 
Q 250 816 250 1647 
Q 250 2184 428 2587 
Q 606 2991 970 3192 
Q 1334 3394 1763 3394 
Q 2303 3394 2647 3120 
Q 2991 2847 3088 2344 
L 2541 2259 
Q 2463 2594 2264 2762 
Q 2066 2931 1784 2931 
Q 1359 2931 1093 2626 
Q 828 2322 828 1663 
Q 828 994 1084 691 
Q 1341 388 1753 388 
Q 2084 388 2306 591 
Q 2528 794 2588 1216 
z
" id="ArialMT-63" transform="scale(0.015625)"/>
       <path d="M 422 0 
L 422 3319 
L 925 3319 
L 925 2853 
Q 1081 3097 1340 3245 
Q 1600 3394 1931 3394 
Q 2300 3394 2536 3241 
Q 2772 3088 2869 2813 
Q 3263 3394 3894 3394 
Q 4388 3394 4653 3120 
Q 4919 2847 4919 2278 
L 4919 0 
L 4359 0 
L 4359 2091 
Q 4359 2428 4304 2576 
Q 4250 2725 4106 2815 
Q 3963 2906 3769 2906 
Q 3419 2906 3187 2673 
Q 2956 2441 2956 1928 
L 2956 0 
L 2394 0 
L 2394 2156 
Q 2394 2531 2256 2718 
Q 2119 2906 1806 2906 
Q 1569 2906 1367 2781 
Q 1166 2656 1075 2415 
Q 984 2175 984 1722 
L 984 0 
L 422 0 
z
" id="ArialMT-6d" transform="scale(0.015625)"/>
       <path d="M 941 0 
L 419 0 
L 419 4581 
L 981 4581 
L 981 2947 
Q 1338 3394 1891 3394 
Q 2197 3394 2470 3270 
Q 2744 3147 2920 2923 
Q 3097 2700 3197 2384 
Q 3297 2069 3297 1709 
Q 3297 856 2875 390 
Q 2453 -75 1863 -75 
Q 1275 -75 941 416 
L 941 0 
z
M 934 1684 
Q 934 1088 1097 822 
Q 1363 388 1816 388 
Q 2184 388 2453 708 
Q 2722 1028 2722 1663 
Q 2722 2313 2464 2622 
Q 2206 2931 1841 2931 
Q 1472 2931 1203 2611 
Q 934 2291 934 1684 
z
" id="ArialMT-62" transform="scale(0.015625)"/>
      </defs>
      <use xlink:href="#ArialMT-53"/>
      <use x="66.699219" xlink:href="#ArialMT-63"/>
      <use x="116.699219" xlink:href="#ArialMT-72"/>
      <use x="150" xlink:href="#ArialMT-61"/>
      <use x="205.615234" xlink:href="#ArialMT-6d"/>
      <use x="288.916016" xlink:href="#ArialMT-62"/>
      <use x="344.53125" xlink:href="#ArialMT-6c"/>
      <use x="366.748047" xlink:href="#ArialMT-65"/>
      <use x="422.363281" xlink:href="#ArialMT-64"/>
     </g>
    </g>
   </g>
  </g>
  <g id="axes_2">
   <g id="patch_16">
    <path d="M 502.466667 350.44 
L 860.153333 350.44 
L 860.153333 49.2 
L 502.466667 49.2 
z
" style="fill:#ffffff;"/>
   </g>
   <g id="matplotlib.axis_3">
    <g id="xtick_5">
     <g id="text_17">
      <!-- 0 -->
      <g style="fill:#262626;" transform="translate(540.504375 374.61875)scale(0.24 -0.24)">
       <use xlink:href="#ArialMT-30"/>
      </g>
     </g>
    </g>
    <g id="xtick_6">
     <g id="text_18">
      <!-- 1 -->
      <g style="fill:#262626;" transform="translate(629.926042 374.61875)scale(0.24 -0.24)">
       <use xlink:href="#ArialMT-31"/>
      </g>
     </g>
    </g>
    <g id="xtick_7">
     <g id="text_19">
      <!-- 2 -->
      <g style="fill:#262626;" transform="translate(719.347708 374.61875)scale(0.24 -0.24)">
       <use xlink:href="#ArialMT-32"/>
      </g>
     </g>
    </g>
    <g id="xtick_8">
     <g id="text_20">
      <!-- 3 -->
      <g style="fill:#262626;" transform="translate(808.769375 374.61875)scale(0.24 -0.24)">
       <use xlink:href="#ArialMT-33"/>
      </g>
     </g>
    </g>
    <g id="text_21">
     <!-- Class -->
     <g style="fill:#262626;" transform="translate(651.304375 400.5675)scale(0.24 -0.24)">
      <use xlink:href="#ArialMT-43"/>
      <use x="72.216797" xlink:href="#ArialMT-6c"/>
      <use x="94.433594" xlink:href="#ArialMT-61"/>
      <use x="150.048828" xlink:href="#ArialMT-73"/>
      <use x="200.048828" xlink:href="#ArialMT-73"/>
     </g>
    </g>
   </g>
   <g id="matplotlib.axis_4">
    <g id="ytick_7">
     <g id="line2d_31">
      <path clip-path="url(#p3c179adeb0)" d="M 502.466667 350.44 
L 860.153333 350.44 
" style="fill:none;stroke:#cccccc;stroke-linecap:round;stroke-width:0.8;"/>
     </g>
    </g>
    <g id="ytick_8">
     <g id="line2d_32">
      <path clip-path="url(#p3c179adeb0)" d="M 502.466667 295.669091 
L 860.153333 295.669091 
" style="fill:none;stroke:#cccccc;stroke-linecap:round;stroke-width:0.8;"/>
     </g>
    </g>
    <g id="ytick_9">
     <g id="line2d_33">
      <path clip-path="url(#p3c179adeb0)" d="M 502.466667 240.898182 
L 860.153333 240.898182 
" style="fill:none;stroke:#cccccc;stroke-linecap:round;stroke-width:0.8;"/>
     </g>
    </g>
    <g id="ytick_10">
     <g id="line2d_34">
      <path clip-path="url(#p3c179adeb0)" d="M 502.466667 186.127273 
L 860.153333 186.127273 
" style="fill:none;stroke:#cccccc;stroke-linecap:round;stroke-width:0.8;"/>
     </g>
    </g>
    <g id="ytick_11">
     <g id="line2d_35">
      <path clip-path="url(#p3c179adeb0)" d="M 502.466667 131.356364 
L 860.153333 131.356364 
" style="fill:none;stroke:#cccccc;stroke-linecap:round;stroke-width:0.8;"/>
     </g>
    </g>
    <g id="ytick_12">
     <g id="line2d_36">
      <path clip-path="url(#p3c179adeb0)" d="M 502.466667 76.585455 
L 860.153333 76.585455 
" style="fill:none;stroke:#cccccc;stroke-linecap:round;stroke-width:0.8;"/>
     </g>
    </g>
   </g>
   <g id="PathCollection_11"/>
   <g id="PathCollection_12"/>
   <g id="patch_17">
    <path clip-path="url(#p3c179adeb0)" d="M 511.408833 350.44 
L 547.1775 350.44 
L 547.1775 324.210213 
L 511.408833 324.210213 
z
" style="fill:#7f9dd2;stroke:#000000;stroke-linejoin:miter;"/>
   </g>
   <g id="patch_18">
    <path clip-path="url(#p3c179adeb0)" d="M 600.8305 350.44 
L 636.599167 350.44 
L 636.599167 331.119501 
L 600.8305 331.119501 
z
" style="fill:#7f9dd2;stroke:#000000;stroke-linejoin:miter;"/>
   </g>
   <g id="patch_19">
    <path clip-path="url(#p3c179adeb0)" d="M 690.252167 350.44 
L 726.020833 350.44 
L 726.020833 333.862907 
L 690.252167 333.862907 
z
" style="fill:#7f9dd2;stroke:#000000;stroke-linejoin:miter;"/>
   </g>
   <g id="patch_20">
    <path clip-path="url(#p3c179adeb0)" d="M 779.673833 350.44 
L 815.4425 350.44 
L 815.4425 223.946451 
L 779.673833 223.946451 
z
" style="fill:#7f9dd2;stroke:#000000;stroke-linejoin:miter;"/>
   </g>
   <g id="patch_21">
    <path clip-path="url(#p3c179adeb0)" d="M 547.1775 350.44 
L 582.946167 350.44 
L 582.946167 346.427942 
L 547.1775 346.427942 
z
" style="fill:#d3d3d3;stroke:#000000;stroke-linejoin:miter;"/>
   </g>
   <g id="patch_22">
    <path clip-path="url(#p3c179adeb0)" d="M 636.599167 350.44 
L 672.367833 350.44 
L 672.367833 347.881285 
L 636.599167 347.881285 
z
" style="fill:#d3d3d3;stroke:#000000;stroke-linejoin:miter;"/>
   </g>
   <g id="patch_23">
    <path clip-path="url(#p3c179adeb0)" d="M 726.020833 350.44 
L 761.7895 350.44 
L 761.7895 347.612928 
L 726.020833 347.612928 
z
" style="fill:#d3d3d3;stroke:#000000;stroke-linejoin:miter;"/>
   </g>
   <g id="patch_24">
    <path clip-path="url(#p3c179adeb0)" d="M 815.4425 350.44 
L 851.211167 350.44 
L 851.211167 307.922083 
L 815.4425 307.922083 
z
" style="fill:#d3d3d3;stroke:#000000;stroke-linejoin:miter;"/>
   </g>
   <g id="line2d_37">
    <path clip-path="url(#p3c179adeb0)" d="M 529.293167 333.390505 
L 529.293167 315.02992 
" style="fill:none;stroke:#000000;stroke-linecap:round;stroke-width:1.5;"/>
   </g>
   <g id="line2d_38">
    <path clip-path="url(#p3c179adeb0)" d="M 520.351 333.390505 
L 538.235333 333.390505 
" style="fill:none;stroke:#000000;stroke-linecap:round;stroke-width:1.5;"/>
   </g>
   <g id="line2d_39">
    <path clip-path="url(#p3c179adeb0)" d="M 520.351 315.02992 
L 538.235333 315.02992 
" style="fill:none;stroke:#000000;stroke-linecap:round;stroke-width:1.5;"/>
   </g>
   <g id="line2d_40">
    <path clip-path="url(#p3c179adeb0)" d="M 618.714833 337.916375 
L 618.714833 324.322627 
" style="fill:none;stroke:#000000;stroke-linecap:round;stroke-width:1.5;"/>
   </g>
   <g id="line2d_41">
    <path clip-path="url(#p3c179adeb0)" d="M 609.772667 337.916375 
L 627.657 337.916375 
" style="fill:none;stroke:#000000;stroke-linecap:round;stroke-width:1.5;"/>
   </g>
   <g id="line2d_42">
    <path clip-path="url(#p3c179adeb0)" d="M 609.772667 324.322627 
L 627.657 324.322627 
" style="fill:none;stroke:#000000;stroke-linecap:round;stroke-width:1.5;"/>
   </g>
   <g id="line2d_43">
    <path clip-path="url(#p3c179adeb0)" d="M 708.1365 340.455722 
L 708.1365 327.270092 
" style="fill:none;stroke:#000000;stroke-linecap:round;stroke-width:1.5;"/>
   </g>
   <g id="line2d_44">
    <path clip-path="url(#p3c179adeb0)" d="M 699.194333 340.455722 
L 717.078667 340.455722 
" style="fill:none;stroke:#000000;stroke-linecap:round;stroke-width:1.5;"/>
   </g>
   <g id="line2d_45">
    <path clip-path="url(#p3c179adeb0)" d="M 699.194333 327.270092 
L 717.078667 327.270092 
" style="fill:none;stroke:#000000;stroke-linecap:round;stroke-width:1.5;"/>
   </g>
   <g id="line2d_46">
    <path clip-path="url(#p3c179adeb0)" d="M 797.558167 232.999437 
L 797.558167 214.893466 
" style="fill:none;stroke:#000000;stroke-linecap:round;stroke-width:1.5;"/>
   </g>
   <g id="line2d_47">
    <path clip-path="url(#p3c179adeb0)" d="M 788.616 232.999437 
L 806.500333 232.999437 
" style="fill:none;stroke:#000000;stroke-linecap:round;stroke-width:1.5;"/>
   </g>
   <g id="line2d_48">
    <path clip-path="url(#p3c179adeb0)" d="M 788.616 214.893466 
L 806.500333 214.893466 
" style="fill:none;stroke:#000000;stroke-linecap:round;stroke-width:1.5;"/>
   </g>
   <g id="line2d_49">
    <path clip-path="url(#p3c179adeb0)" d="M 565.061833 346.726217 
L 565.061833 346.129667 
" style="fill:none;stroke:#000000;stroke-linecap:round;stroke-width:1.5;"/>
   </g>
   <g id="line2d_50">
    <path clip-path="url(#p3c179adeb0)" d="M 556.119667 346.726217 
L 574.004 346.726217 
" style="fill:none;stroke:#000000;stroke-linecap:round;stroke-width:1.5;"/>
   </g>
   <g id="line2d_51">
    <path clip-path="url(#p3c179adeb0)" d="M 556.119667 346.129667 
L 574.004 346.129667 
" style="fill:none;stroke:#000000;stroke-linecap:round;stroke-width:1.5;"/>
   </g>
   <g id="line2d_52">
    <path clip-path="url(#p3c179adeb0)" d="M 654.4835 348.712989 
L 654.4835 347.049581 
" style="fill:none;stroke:#000000;stroke-linecap:round;stroke-width:1.5;"/>
   </g>
   <g id="line2d_53">
    <path clip-path="url(#p3c179adeb0)" d="M 645.541333 348.712989 
L 663.425667 348.712989 
" style="fill:none;stroke:#000000;stroke-linecap:round;stroke-width:1.5;"/>
   </g>
   <g id="line2d_54">
    <path clip-path="url(#p3c179adeb0)" d="M 645.541333 347.049581 
L 663.425667 347.049581 
" style="fill:none;stroke:#000000;stroke-linecap:round;stroke-width:1.5;"/>
   </g>
   <g id="line2d_55">
    <path clip-path="url(#p3c179adeb0)" d="M 743.905167 350.161163 
L 743.905167 345.064693 
" style="fill:none;stroke:#000000;stroke-linecap:round;stroke-width:1.5;"/>
   </g>
   <g id="line2d_56">
    <path clip-path="url(#p3c179adeb0)" d="M 734.963 350.161163 
L 752.847333 350.161163 
" style="fill:none;stroke:#000000;stroke-linecap:round;stroke-width:1.5;"/>
   </g>
   <g id="line2d_57">
    <path clip-path="url(#p3c179adeb0)" d="M 734.963 345.064693 
L 752.847333 345.064693 
" style="fill:none;stroke:#000000;stroke-linecap:round;stroke-width:1.5;"/>
   </g>
   <g id="line2d_58">
    <path clip-path="url(#p3c179adeb0)" d="M 833.326833 310.445267 
L 833.326833 305.398898 
" style="fill:none;stroke:#000000;stroke-linecap:round;stroke-width:1.5;"/>
   </g>
   <g id="line2d_59">
    <path clip-path="url(#p3c179adeb0)" d="M 824.384667 310.445267 
L 842.269 310.445267 
" style="fill:none;stroke:#000000;stroke-linecap:round;stroke-width:1.5;"/>
   </g>
   <g id="line2d_60">
    <path clip-path="url(#p3c179adeb0)" d="M 824.384667 305.398898 
L 842.269 305.398898 
" style="fill:none;stroke:#000000;stroke-linecap:round;stroke-width:1.5;"/>
   </g>
   <g id="patch_25">
    <path d="M 502.466667 350.44 
L 502.466667 49.2 
" style="fill:none;stroke:#cccccc;stroke-linecap:square;stroke-linejoin:miter;stroke-width:0.8;"/>
   </g>
   <g id="patch_26">
    <path d="M 502.466667 350.44 
L 860.153333 350.44 
" style="fill:none;stroke:#cccccc;stroke-linecap:square;stroke-linejoin:miter;stroke-width:0.8;"/>
   </g>
   <g id="PathCollection_13">
    <defs>
     <path d="M 0 5 
C 1.326016 5 2.597899 4.473168 3.535534 3.535534 
C 4.473168 2.597899 5 1.326016 5 -0 
C 5 -1.326016 4.473168 -2.597899 3.535534 -3.535534 
C 2.597899 -4.473168 1.326016 -5 0 -5 
C -1.326016 -5 -2.597899 -4.473168 -3.535534 -3.535534 
C -4.473168 -2.597899 -5 -1.326016 -5 0 
C -5 1.326016 -4.473168 2.597899 -3.535534 3.535534 
C -2.597899 4.473168 -1.326016 5 0 5 
z
" id="C8_0_65a9adf870"/>
    </defs>
    <g clip-path="url(#p3c179adeb0)">
     <use style="fill:#6495ed;stroke:#000000;" x="529.293167" xlink:href="#C8_0_65a9adf870" y="337.175379"/>
    </g>
    <g clip-path="url(#p3c179adeb0)">
     <use style="fill:#6495ed;stroke:#000000;" x="529.293167" xlink:href="#C8_0_65a9adf870" y="318.315008"/>
    </g>
    <g clip-path="url(#p3c179adeb0)">
     <use style="fill:#6495ed;stroke:#000000;" x="518.539638" xlink:href="#C8_0_65a9adf870" y="317.140251"/>
    </g>
   </g>
   <g id="PathCollection_14">
    <defs>
     <path d="M 0 5 
C 1.326016 5 2.597899 4.473168 3.535534 3.535534 
C 4.473168 2.597899 5 1.326016 5 -0 
C 5 -1.326016 4.473168 -2.597899 3.535534 -3.535534 
C 2.597899 -4.473168 1.326016 -5 0 -5 
C -1.326016 -5 -2.597899 -4.473168 -3.535534 -3.535534 
C -4.473168 -2.597899 -5 -1.326016 -5 0 
C -5 1.326016 -4.473168 2.597899 -3.535534 3.535534 
C -2.597899 4.473168 -1.326016 5 0 5 
z
" id="C9_0_180cb52f5e"/>
    </defs>
    <g clip-path="url(#p3c179adeb0)">
     <use style="fill:#d3d3d3;stroke:#000000;" x="565.061833" xlink:href="#C9_0_180cb52f5e" y="346.775369"/>
    </g>
    <g clip-path="url(#p3c179adeb0)">
     <use style="fill:#d3d3d3;stroke:#000000;" x="554.070048" xlink:href="#C9_0_180cb52f5e" y="346.461408"/>
    </g>
    <g clip-path="url(#p3c179adeb0)">
     <use style="fill:#d3d3d3;stroke:#000000;" x="575.973904" xlink:href="#C9_0_180cb52f5e" y="346.04705"/>
    </g>
   </g>
   <g id="PathCollection_15">
    <defs>
     <path d="M 0 5 
C 1.326016 5 2.597899 4.473168 3.535534 3.535534 
C 4.473168 2.597899 5 1.326016 5 -0 
C 5 -1.326016 4.473168 -2.597899 3.535534 -3.535534 
C 2.597899 -4.473168 1.326016 -5 0 -5 
C -1.326016 -5 -2.597899 -4.473168 -3.535534 -3.535534 
C -4.473168 -2.597899 -5 -1.326016 -5 0 
C -5 1.326016 -4.473168 2.597899 -3.535534 3.535534 
C -2.597899 4.473168 -1.326016 5 0 5 
z
" id="Ca_0_781c6c6b3b"/>
    </defs>
    <g clip-path="url(#p3c179adeb0)">
     <use style="fill:#6495ed;stroke:#000000;" x="618.714833" xlink:href="#Ca_0_781c6c6b3b" y="340.721176"/>
    </g>
    <g clip-path="url(#p3c179adeb0)">
     <use style="fill:#6495ed;stroke:#000000;" x="618.714833" xlink:href="#Ca_0_781c6c6b3b" y="326.708685"/>
    </g>
    <g clip-path="url(#p3c179adeb0)">
     <use style="fill:#6495ed;stroke:#000000;" x="607.817225" xlink:href="#Ca_0_781c6c6b3b" y="325.928641"/>
    </g>
   </g>
   <g id="PathCollection_16">
    <defs>
     <path d="M 0 5 
C 1.326016 5 2.597899 4.473168 3.535534 3.535534 
C 4.473168 2.597899 5 1.326016 5 -0 
C 5 -1.326016 4.473168 -2.597899 3.535534 -3.535534 
C 2.597899 -4.473168 1.326016 -5 0 -5 
C -1.326016 -5 -2.597899 -4.473168 -3.535534 -3.535534 
C -4.473168 -2.597899 -5 -1.326016 -5 0 
C -5 1.326016 -4.473168 2.597899 -3.535534 3.535534 
C -2.597899 4.473168 -1.326016 5 0 5 
z
" id="Cb_0_056ddadf57"/>
    </defs>
    <g clip-path="url(#p3c179adeb0)">
     <use style="fill:#d3d3d3;stroke:#000000;" x="654.4835" xlink:href="#Cb_0_056ddadf57" y="348.716488"/>
    </g>
    <g clip-path="url(#p3c179adeb0)">
     <use style="fill:#d3d3d3;stroke:#000000;" x="643.526393" xlink:href="#Cb_0_056ddadf57" y="348.180916"/>
    </g>
    <g clip-path="url(#p3c179adeb0)">
     <use style="fill:#d3d3d3;stroke:#000000;" x="664.756132" xlink:href="#Cb_0_056ddadf57" y="346.74645"/>
    </g>
   </g>
   <g id="PathCollection_17">
    <defs>
     <path d="M 0 5 
C 1.326016 5 2.597899 4.473168 3.535534 3.535534 
C 4.473168 2.597899 5 1.326016 5 -0 
C 5 -1.326016 4.473168 -2.597899 3.535534 -3.535534 
C 2.597899 -4.473168 1.326016 -5 0 -5 
C -1.326016 -5 -2.597899 -4.473168 -3.535534 -3.535534 
C -4.473168 -2.597899 -5 -1.326016 -5 0 
C -5 1.326016 -4.473168 2.597899 -3.535534 3.535534 
C -2.597899 4.473168 -1.326016 5 0 5 
z
" id="Cc_0_d0a64ae431"/>
    </defs>
    <g clip-path="url(#p3c179adeb0)">
     <use style="fill:#6495ed;stroke:#000000;" x="708.1365" xlink:href="#Cc_0_d0a64ae431" y="343.186242"/>
    </g>
    <g clip-path="url(#p3c179adeb0)">
     <use style="fill:#6495ed;stroke:#000000;" x="708.1365" xlink:href="#Cc_0_d0a64ae431" y="329.267377"/>
    </g>
    <g clip-path="url(#p3c179adeb0)">
     <use style="fill:#6495ed;stroke:#000000;" x="697.129814" xlink:href="#Cc_0_d0a64ae431" y="329.135102"/>
    </g>
   </g>
   <g id="PathCollection_18">
    <defs>
     <path d="M 0 5 
C 1.326016 5 2.597899 4.473168 3.535534 3.535534 
C 4.473168 2.597899 5 1.326016 5 -0 
C 5 -1.326016 4.473168 -2.597899 3.535534 -3.535534 
C 2.597899 -4.473168 1.326016 -5 0 -5 
C -1.326016 -5 -2.597899 -4.473168 -3.535534 -3.535534 
C -4.473168 -2.597899 -5 -1.326016 -5 0 
C -5 1.326016 -4.473168 2.597899 -3.535534 3.535534 
C -2.597899 4.473168 -1.326016 5 0 5 
z
" id="Cd_0_7655b6fcf1"/>
    </defs>
    <g clip-path="url(#p3c179adeb0)">
     <use style="fill:#d3d3d3;stroke:#000000;" x="743.905167" xlink:href="#Cd_0_7655b6fcf1" y="351.214058"/>
    </g>
    <g clip-path="url(#p3c179adeb0)">
     <use style="fill:#d3d3d3;stroke:#000000;" x="741.008585" xlink:href="#Cd_0_7655b6fcf1" y="345.931324"/>
    </g>
    <g clip-path="url(#p3c179adeb0)">
     <use style="fill:#d3d3d3;stroke:#000000;" x="752.008086" xlink:href="#Cd_0_7655b6fcf1" y="345.693402"/>
    </g>
   </g>
   <g id="PathCollection_19">
    <defs>
     <path d="M 0 5 
C 1.326016 5 2.597899 4.473168 3.535534 3.535534 
C 4.473168 2.597899 5 1.326016 5 -0 
C 5 -1.326016 4.473168 -2.597899 3.535534 -3.535534 
C 2.597899 -4.473168 1.326016 -5 0 -5 
C -1.326016 -5 -2.597899 -4.473168 -3.535534 -3.535534 
C -4.473168 -2.597899 -5 -1.326016 -5 0 
C -5 1.326016 -4.473168 2.597899 -3.535534 3.535534 
C -2.597899 4.473168 -1.326016 5 0 5 
z
" id="Ce_0_53b965584e"/>
    </defs>
    <g clip-path="url(#p3c179adeb0)">
     <use style="fill:#6495ed;stroke:#000000;" x="797.558167" xlink:href="#Ce_0_53b965584e" y="236.736587"/>
    </g>
    <g clip-path="url(#p3c179adeb0)">
     <use style="fill:#6495ed;stroke:#000000;" x="797.558167" xlink:href="#Ce_0_53b965584e" y="218.045491"/>
    </g>
    <g clip-path="url(#p3c179adeb0)">
     <use style="fill:#6495ed;stroke:#000000;" x="786.729055" xlink:href="#Ce_0_53b965584e" y="217.057276"/>
    </g>
   </g>
   <g id="PathCollection_20">
    <defs>
     <path d="M 0 5 
C 1.326016 5 2.597899 4.473168 3.535534 3.535534 
C 4.473168 2.597899 5 1.326016 5 -0 
C 5 -1.326016 4.473168 -2.597899 3.535534 -3.535534 
C 2.597899 -4.473168 1.326016 -5 0 -5 
C -1.326016 -5 -2.597899 -4.473168 -3.535534 -3.535534 
C -4.473168 -2.597899 -5 -1.326016 -5 0 
C -5 1.326016 -4.473168 2.597899 -3.535534 3.535534 
C -2.597899 4.473168 -1.326016 5 0 5 
z
" id="Cf_0_1f14483f37"/>
    </defs>
    <g clip-path="url(#p3c179adeb0)">
     <use style="fill:#d3d3d3;stroke:#000000;" x="833.326833" xlink:href="#Cf_0_1f14483f37" y="311.396527"/>
    </g>
    <g clip-path="url(#p3c179adeb0)">
     <use style="fill:#d3d3d3;stroke:#000000;" x="827.075801" xlink:href="#Cf_0_1f14483f37" y="306.889038"/>
    </g>
    <g clip-path="url(#p3c179adeb0)">
     <use style="fill:#d3d3d3;stroke:#000000;" x="837.715295" xlink:href="#Cf_0_1f14483f37" y="305.480683"/>
    </g>
   </g>
   <g id="text_22">
    <!-- Model = DeepSwarm -->
    <g style="fill:#262626;" transform="translate(568.931875 43.2)scale(0.24 -0.24)">
     <defs>
      <path d="M 422 -1272 
L 422 3319 
L 934 3319 
L 934 2888 
Q 1116 3141 1344 3267 
Q 1572 3394 1897 3394 
Q 2322 3394 2647 3175 
Q 2972 2956 3137 2557 
Q 3303 2159 3303 1684 
Q 3303 1175 3120 767 
Q 2938 359 2589 142 
Q 2241 -75 1856 -75 
Q 1575 -75 1351 44 
Q 1128 163 984 344 
L 984 -1272 
L 422 -1272 
z
M 931 1641 
Q 931 1000 1190 694 
Q 1450 388 1819 388 
Q 2194 388 2461 705 
Q 2728 1022 2728 1688 
Q 2728 2322 2467 2637 
Q 2206 2953 1844 2953 
Q 1484 2953 1207 2617 
Q 931 2281 931 1641 
z
" id="ArialMT-70" transform="scale(0.015625)"/>
      <path d="M 1034 0 
L 19 3319 
L 600 3319 
L 1128 1403 
L 1325 691 
Q 1338 744 1497 1375 
L 2025 3319 
L 2603 3319 
L 3100 1394 
L 3266 759 
L 3456 1400 
L 4025 3319 
L 4572 3319 
L 3534 0 
L 2950 0 
L 2422 1988 
L 2294 2553 
L 1622 0 
L 1034 0 
z
" id="ArialMT-77" transform="scale(0.015625)"/>
     </defs>
     <use xlink:href="#ArialMT-4d"/>
     <use x="83.300781" xlink:href="#ArialMT-6f"/>
     <use x="138.916016" xlink:href="#ArialMT-64"/>
     <use x="194.53125" xlink:href="#ArialMT-65"/>
     <use x="250.146484" xlink:href="#ArialMT-6c"/>
     <use x="272.363281" xlink:href="#ArialMT-20"/>
     <use x="300.146484" xlink:href="#ArialMT-3d"/>
     <use x="358.544922" xlink:href="#ArialMT-20"/>
     <use x="386.328125" xlink:href="#ArialMT-44"/>
     <use x="458.544922" xlink:href="#ArialMT-65"/>
     <use x="514.160156" xlink:href="#ArialMT-65"/>
     <use x="569.775391" xlink:href="#ArialMT-70"/>
     <use x="625.390625" xlink:href="#ArialMT-53"/>
     <use x="692.089844" xlink:href="#ArialMT-77"/>
     <use x="764.306641" xlink:href="#ArialMT-61"/>
     <use x="819.921875" xlink:href="#ArialMT-72"/>
     <use x="853.222656" xlink:href="#ArialMT-6d"/>
    </g>
   </g>
   <g id="legend_2">
    <g id="patch_27">
     <path d="M 651.844583 170.835 
L 843.353333 170.835 
Q 848.153333 170.835 848.153333 166.035 
L 848.153333 66 
Q 848.153333 61.2 843.353333 61.2 
L 651.844583 61.2 
Q 647.044583 61.2 647.044583 66 
L 647.044583 166.035 
Q 647.044583 170.835 651.844583 170.835 
z
" style="fill:#ffffff;opacity:0.8;stroke:#cccccc;stroke-linejoin:miter;"/>
    </g>
    <g id="text_23">
     <!-- Data -->
     <g style="fill:#262626;" transform="translate(722.252708 87.97875)scale(0.24 -0.24)">
      <use xlink:href="#ArialMT-44"/>
      <use x="72.216797" xlink:href="#ArialMT-61"/>
      <use x="127.832031" xlink:href="#ArialMT-74"/>
      <use x="155.615234" xlink:href="#ArialMT-61"/>
     </g>
    </g>
    <g id="patch_28">
     <path d="M 656.644583 122.235 
L 704.644583 122.235 
L 704.644583 105.435 
L 656.644583 105.435 
z
" style="fill:#7f9dd2;stroke:#000000;stroke-linejoin:miter;"/>
    </g>
    <g id="text_24">
     <!-- Original -->
     <g style="fill:#262626;" transform="translate(723.844583 122.235)scale(0.24 -0.24)">
      <use xlink:href="#ArialMT-4f"/>
      <use x="77.783203" xlink:href="#ArialMT-72"/>
      <use x="111.083984" xlink:href="#ArialMT-69"/>
      <use x="133.300781" xlink:href="#ArialMT-67"/>
      <use x="188.916016" xlink:href="#ArialMT-69"/>
      <use x="211.132812" xlink:href="#ArialMT-6e"/>
      <use x="266.748047" xlink:href="#ArialMT-61"/>
      <use x="322.363281" xlink:href="#ArialMT-6c"/>
     </g>
    </g>
    <g id="patch_29">
     <path d="M 656.644583 156.465 
L 704.644583 156.465 
L 704.644583 139.665 
L 656.644583 139.665 
z
" style="fill:#d3d3d3;stroke:#000000;stroke-linejoin:miter;"/>
    </g>
    <g id="text_25">
     <!-- Scrambled -->
     <g style="fill:#262626;" transform="translate(723.844583 156.465)scale(0.24 -0.24)">
      <use xlink:href="#ArialMT-53"/>
      <use x="66.699219" xlink:href="#ArialMT-63"/>
      <use x="116.699219" xlink:href="#ArialMT-72"/>
      <use x="150" xlink:href="#ArialMT-61"/>
      <use x="205.615234" xlink:href="#ArialMT-6d"/>
      <use x="288.916016" xlink:href="#ArialMT-62"/>
      <use x="344.53125" xlink:href="#ArialMT-6c"/>
      <use x="366.748047" xlink:href="#ArialMT-65"/>
      <use x="422.363281" xlink:href="#ArialMT-64"/>
     </g>
    </g>
   </g>
  </g>
  <g id="axes_3">
   <g id="patch_30">
    <path d="M 912.393333 350.44 
L 1270.08 350.44 
L 1270.08 49.2 
L 912.393333 49.2 
z
" style="fill:#ffffff;"/>
   </g>
   <g id="matplotlib.axis_5">
    <g id="xtick_9">
     <g id="text_26">
      <!-- 0 -->
      <g style="fill:#262626;" transform="translate(962.055507 373.566549)rotate(-80)scale(0.24 -0.24)">
       <use xlink:href="#ArialMT-30"/>
      </g>
     </g>
    </g>
    <g id="xtick_10">
     <g id="text_27">
      <!-- 1 -->
      <g style="fill:#262626;" transform="translate(1051.477174 373.566549)rotate(-80)scale(0.24 -0.24)">
       <use xlink:href="#ArialMT-31"/>
      </g>
     </g>
    </g>
    <g id="xtick_11">
     <g id="text_28">
      <!-- 2 -->
      <g style="fill:#262626;" transform="translate(1140.898841 373.566549)rotate(-80)scale(0.24 -0.24)">
       <use xlink:href="#ArialMT-32"/>
      </g>
     </g>
    </g>
    <g id="xtick_12">
     <g id="text_29">
      <!-- 3 -->
      <g style="fill:#262626;" transform="translate(1230.320507 373.566549)rotate(-80)scale(0.24 -0.24)">
       <use xlink:href="#ArialMT-33"/>
      </g>
     </g>
    </g>
   </g>
   <g id="matplotlib.axis_6">
    <g id="ytick_13">
     <g id="line2d_61">
      <path clip-path="url(#p35b34c2e67)" d="M 912.393333 350.44 
L 1270.08 350.44 
" style="fill:none;stroke:#cccccc;stroke-linecap:round;stroke-width:0.8;"/>
     </g>
    </g>
    <g id="ytick_14">
     <g id="line2d_62">
      <path clip-path="url(#p35b34c2e67)" d="M 912.393333 295.669091 
L 1270.08 295.669091 
" style="fill:none;stroke:#cccccc;stroke-linecap:round;stroke-width:0.8;"/>
     </g>
    </g>
    <g id="ytick_15">
     <g id="line2d_63">
      <path clip-path="url(#p35b34c2e67)" d="M 912.393333 240.898182 
L 1270.08 240.898182 
" style="fill:none;stroke:#cccccc;stroke-linecap:round;stroke-width:0.8;"/>
     </g>
    </g>
    <g id="ytick_16">
     <g id="line2d_64">
      <path clip-path="url(#p35b34c2e67)" d="M 912.393333 186.127273 
L 1270.08 186.127273 
" style="fill:none;stroke:#cccccc;stroke-linecap:round;stroke-width:0.8;"/>
     </g>
    </g>
    <g id="ytick_17">
     <g id="line2d_65">
      <path clip-path="url(#p35b34c2e67)" d="M 912.393333 131.356364 
L 1270.08 131.356364 
" style="fill:none;stroke:#cccccc;stroke-linecap:round;stroke-width:0.8;"/>
     </g>
    </g>
    <g id="ytick_18">
     <g id="line2d_66">
      <path clip-path="url(#p35b34c2e67)" d="M 912.393333 76.585455 
L 1270.08 76.585455 
" style="fill:none;stroke:#cccccc;stroke-linecap:round;stroke-width:0.8;"/>
     </g>
    </g>
    <g id="text_30">
     <!-- MCC -->
     <g style="fill:#262626;" transform="translate(903.623333 227.148125)rotate(-90)scale(0.24 -0.24)">
      <use xlink:href="#ArialMT-4d"/>
      <use x="83.300781" xlink:href="#ArialMT-43"/>
      <use x="155.517578" xlink:href="#ArialMT-43"/>
     </g>
    </g>
   </g>
   <g id="PathCollection_21"/>
   <g id="PathCollection_22"/>
   <g id="patch_31">
    <path clip-path="url(#p35b34c2e67)" d="M 921.3355 350.44 
L 957.104167 350.44 
L 957.104167 315.275052 
L 921.3355 315.275052 
z
" style="fill:#7f9dd2;stroke:#000000;stroke-linejoin:miter;"/>
   </g>
   <g id="patch_32">
    <path clip-path="url(#p35b34c2e67)" d="M 1010.757167 350.44 
L 1046.525833 350.44 
L 1046.525833 326.266135 
L 1010.757167 326.266135 
z
" style="fill:#7f9dd2;stroke:#000000;stroke-linejoin:miter;"/>
   </g>
   <g id="patch_33">
    <path clip-path="url(#p35b34c2e67)" d="M 1100.178833 350.44 
L 1135.9475 350.44 
L 1135.9475 336.423145 
L 1100.178833 336.423145 
z
" style="fill:#7f9dd2;stroke:#000000;stroke-linejoin:miter;"/>
   </g>
   <g id="patch_34">
    <path clip-path="url(#p35b34c2e67)" d="M 1189.6005 350.44 
L 1225.369167 350.44 
L 1225.369167 217.025464 
L 1189.6005 217.025464 
z
" style="fill:#7f9dd2;stroke:#000000;stroke-linejoin:miter;"/>
   </g>
   <g id="patch_35">
    <path clip-path="url(#p35b34c2e67)" d="M 957.104167 350.44 
L 992.872833 350.44 
L 992.872833 347.449206 
L 957.104167 347.449206 
z
" style="fill:#d3d3d3;stroke:#000000;stroke-linejoin:miter;"/>
   </g>
   <g id="patch_36">
    <path clip-path="url(#p35b34c2e67)" d="M 1046.525833 350.44 
L 1082.2945 350.44 
L 1082.2945 346.498129 
L 1046.525833 346.498129 
z
" style="fill:#d3d3d3;stroke:#000000;stroke-linejoin:miter;"/>
   </g>
   <g id="patch_37">
    <path clip-path="url(#p35b34c2e67)" d="M 1135.9475 350.44 
L 1171.716167 350.44 
L 1171.716167 347.806354 
L 1135.9475 347.806354 
z
" style="fill:#d3d3d3;stroke:#000000;stroke-linejoin:miter;"/>
   </g>
   <g id="patch_38">
    <path clip-path="url(#p35b34c2e67)" d="M 1225.369167 350.44 
L 1261.137833 350.44 
L 1261.137833 329.20894 
L 1225.369167 329.20894 
z
" style="fill:#d3d3d3;stroke:#000000;stroke-linejoin:miter;"/>
   </g>
   <g id="line2d_67">
    <path clip-path="url(#p35b34c2e67)" d="M 939.219833 316.178821 
L 939.219833 314.371282 
" style="fill:none;stroke:#000000;stroke-linecap:round;stroke-width:1.5;"/>
   </g>
   <g id="line2d_68">
    <path clip-path="url(#p35b34c2e67)" d="M 930.277667 316.178821 
L 948.162 316.178821 
" style="fill:none;stroke:#000000;stroke-linecap:round;stroke-width:1.5;"/>
   </g>
   <g id="line2d_69">
    <path clip-path="url(#p35b34c2e67)" d="M 930.277667 314.371282 
L 948.162 314.371282 
" style="fill:none;stroke:#000000;stroke-linecap:round;stroke-width:1.5;"/>
   </g>
   <g id="line2d_70">
    <path clip-path="url(#p35b34c2e67)" d="M 1028.6415 327.347325 
L 1028.6415 325.184946 
" style="fill:none;stroke:#000000;stroke-linecap:round;stroke-width:1.5;"/>
   </g>
   <g id="line2d_71">
    <path clip-path="url(#p35b34c2e67)" d="M 1019.699333 327.347325 
L 1037.583667 327.347325 
" style="fill:none;stroke:#000000;stroke-linecap:round;stroke-width:1.5;"/>
   </g>
   <g id="line2d_72">
    <path clip-path="url(#p35b34c2e67)" d="M 1019.699333 325.184946 
L 1037.583667 325.184946 
" style="fill:none;stroke:#000000;stroke-linecap:round;stroke-width:1.5;"/>
   </g>
   <g id="line2d_73">
    <path clip-path="url(#p35b34c2e67)" d="M 1118.063167 337.35893 
L 1118.063167 335.48736 
" style="fill:none;stroke:#000000;stroke-linecap:round;stroke-width:1.5;"/>
   </g>
   <g id="line2d_74">
    <path clip-path="url(#p35b34c2e67)" d="M 1109.121 337.35893 
L 1127.005333 337.35893 
" style="fill:none;stroke:#000000;stroke-linecap:round;stroke-width:1.5;"/>
   </g>
   <g id="line2d_75">
    <path clip-path="url(#p35b34c2e67)" d="M 1109.121 335.48736 
L 1127.005333 335.48736 
" style="fill:none;stroke:#000000;stroke-linecap:round;stroke-width:1.5;"/>
   </g>
   <g id="line2d_76">
    <path clip-path="url(#p35b34c2e67)" d="M 1207.484833 218.564745 
L 1207.484833 215.486183 
" style="fill:none;stroke:#000000;stroke-linecap:round;stroke-width:1.5;"/>
   </g>
   <g id="line2d_77">
    <path clip-path="url(#p35b34c2e67)" d="M 1198.542667 218.564745 
L 1216.427 218.564745 
" style="fill:none;stroke:#000000;stroke-linecap:round;stroke-width:1.5;"/>
   </g>
   <g id="line2d_78">
    <path clip-path="url(#p35b34c2e67)" d="M 1198.542667 215.486183 
L 1216.427 215.486183 
" style="fill:none;stroke:#000000;stroke-linecap:round;stroke-width:1.5;"/>
   </g>
   <g id="line2d_79">
    <path clip-path="url(#p35b34c2e67)" d="M 974.9885 348.298208 
L 974.9885 346.600205 
" style="fill:none;stroke:#000000;stroke-linecap:round;stroke-width:1.5;"/>
   </g>
   <g id="line2d_80">
    <path clip-path="url(#p35b34c2e67)" d="M 966.046333 348.298208 
L 983.930667 348.298208 
" style="fill:none;stroke:#000000;stroke-linecap:round;stroke-width:1.5;"/>
   </g>
   <g id="line2d_81">
    <path clip-path="url(#p35b34c2e67)" d="M 966.046333 346.600205 
L 983.930667 346.600205 
" style="fill:none;stroke:#000000;stroke-linecap:round;stroke-width:1.5;"/>
   </g>
   <g id="line2d_82">
    <path clip-path="url(#p35b34c2e67)" d="M 1064.410167 348.46427 
L 1064.410167 344.531987 
" style="fill:none;stroke:#000000;stroke-linecap:round;stroke-width:1.5;"/>
   </g>
   <g id="line2d_83">
    <path clip-path="url(#p35b34c2e67)" d="M 1055.468 348.46427 
L 1073.352333 348.46427 
" style="fill:none;stroke:#000000;stroke-linecap:round;stroke-width:1.5;"/>
   </g>
   <g id="line2d_84">
    <path clip-path="url(#p35b34c2e67)" d="M 1055.468 344.531987 
L 1073.352333 344.531987 
" style="fill:none;stroke:#000000;stroke-linecap:round;stroke-width:1.5;"/>
   </g>
   <g id="line2d_85">
    <path clip-path="url(#p35b34c2e67)" d="M 1153.831833 349.126409 
L 1153.831833 346.486298 
" style="fill:none;stroke:#000000;stroke-linecap:round;stroke-width:1.5;"/>
   </g>
   <g id="line2d_86">
    <path clip-path="url(#p35b34c2e67)" d="M 1144.889667 349.126409 
L 1162.774 349.126409 
" style="fill:none;stroke:#000000;stroke-linecap:round;stroke-width:1.5;"/>
   </g>
   <g id="line2d_87">
    <path clip-path="url(#p35b34c2e67)" d="M 1144.889667 346.486298 
L 1162.774 346.486298 
" style="fill:none;stroke:#000000;stroke-linecap:round;stroke-width:1.5;"/>
   </g>
   <g id="line2d_88">
    <path clip-path="url(#p35b34c2e67)" d="M 1243.2535 330.560233 
L 1243.2535 327.857646 
" style="fill:none;stroke:#000000;stroke-linecap:round;stroke-width:1.5;"/>
   </g>
   <g id="line2d_89">
    <path clip-path="url(#p35b34c2e67)" d="M 1234.311333 330.560233 
L 1252.195667 330.560233 
" style="fill:none;stroke:#000000;stroke-linecap:round;stroke-width:1.5;"/>
   </g>
   <g id="line2d_90">
    <path clip-path="url(#p35b34c2e67)" d="M 1234.311333 327.857646 
L 1252.195667 327.857646 
" style="fill:none;stroke:#000000;stroke-linecap:round;stroke-width:1.5;"/>
   </g>
   <g id="patch_39">
    <path d="M 912.393333 350.44 
L 912.393333 49.2 
" style="fill:none;stroke:#cccccc;stroke-linecap:square;stroke-linejoin:miter;stroke-width:0.8;"/>
   </g>
   <g id="patch_40">
    <path d="M 912.393333 350.44 
L 1270.08 350.44 
" style="fill:none;stroke:#cccccc;stroke-linecap:square;stroke-linejoin:miter;stroke-width:0.8;"/>
   </g>
   <g id="PathCollection_23">
    <defs>
     <path d="M 0 5 
C 1.326016 5 2.597899 4.473168 3.535534 3.535534 
C 4.473168 2.597899 5 1.326016 5 -0 
C 5 -1.326016 4.473168 -2.597899 3.535534 -3.535534 
C 2.597899 -4.473168 1.326016 -5 0 -5 
C -1.326016 -5 -2.597899 -4.473168 -3.535534 -3.535534 
C -4.473168 -2.597899 -5 -1.326016 -5 0 
C -5 1.326016 -4.473168 2.597899 -3.535534 3.535534 
C -2.597899 4.473168 -1.326016 5 0 5 
z
" id="C10_0_93f243180e"/>
    </defs>
    <g clip-path="url(#p35b34c2e67)">
     <use style="fill:#6495ed;stroke:#000000;" x="939.219833" xlink:href="#C10_0_93f243180e" y="316.350269"/>
    </g>
    <g clip-path="url(#p35b34c2e67)">
     <use style="fill:#6495ed;stroke:#000000;" x="928.400509" xlink:href="#C10_0_93f243180e" y="315.335884"/>
    </g>
    <g clip-path="url(#p35b34c2e67)">
     <use style="fill:#6495ed;stroke:#000000;" x="949.292026" xlink:href="#C10_0_93f243180e" y="314.139003"/>
    </g>
   </g>
   <g id="PathCollection_24">
    <defs>
     <path d="M 0 5 
C 1.326016 5 2.597899 4.473168 3.535534 3.535534 
C 4.473168 2.597899 5 1.326016 5 -0 
C 5 -1.326016 4.473168 -2.597899 3.535534 -3.535534 
C 2.597899 -4.473168 1.326016 -5 0 -5 
C -1.326016 -5 -2.597899 -4.473168 -3.535534 -3.535534 
C -4.473168 -2.597899 -5 -1.326016 -5 0 
C -5 1.326016 -4.473168 2.597899 -3.535534 3.535534 
C -2.597899 4.473168 -1.326016 5 0 5 
z
" id="C11_0_28cdbfb185"/>
    </defs>
    <g clip-path="url(#p35b34c2e67)">
     <use style="fill:#d3d3d3;stroke:#000000;" x="974.9885" xlink:href="#C11_0_28cdbfb185" y="348.58153"/>
    </g>
    <g clip-path="url(#p35b34c2e67)">
     <use style="fill:#d3d3d3;stroke:#000000;" x="964.319835" xlink:href="#C11_0_28cdbfb185" y="347.228858"/>
    </g>
    <g clip-path="url(#p35b34c2e67)">
     <use style="fill:#d3d3d3;stroke:#000000;" x="985.202301" xlink:href="#C11_0_28cdbfb185" y="346.53723"/>
    </g>
   </g>
   <g id="PathCollection_25">
    <defs>
     <path d="M 0 5 
C 1.326016 5 2.597899 4.473168 3.535534 3.535534 
C 4.473168 2.597899 5 1.326016 5 -0 
C 5 -1.326016 4.473168 -2.597899 3.535534 -3.535534 
C 2.597899 -4.473168 1.326016 -5 0 -5 
C -1.326016 -5 -2.597899 -4.473168 -3.535534 -3.535534 
C -4.473168 -2.597899 -5 -1.326016 -5 0 
C -5 1.326016 -4.473168 2.597899 -3.535534 3.535534 
C -2.597899 4.473168 -1.326016 5 0 5 
z
" id="C12_0_6eb1ce95ba"/>
    </defs>
    <g clip-path="url(#p35b34c2e67)">
     <use style="fill:#6495ed;stroke:#000000;" x="1028.6415" xlink:href="#C12_0_6eb1ce95ba" y="327.6479"/>
    </g>
    <g clip-path="url(#p35b34c2e67)">
     <use style="fill:#6495ed;stroke:#000000;" x="1018.056003" xlink:href="#C12_0_6eb1ce95ba" y="326.142264"/>
    </g>
    <g clip-path="url(#p35b34c2e67)">
     <use style="fill:#6495ed;stroke:#000000;" x="1038.287611" xlink:href="#C12_0_6eb1ce95ba" y="325.008243"/>
    </g>
   </g>
   <g id="PathCollection_26">
    <defs>
     <path d="M 0 5 
C 1.326016 5 2.597899 4.473168 3.535534 3.535534 
C 4.473168 2.597899 5 1.326016 5 -0 
C 5 -1.326016 4.473168 -2.597899 3.535534 -3.535534 
C 2.597899 -4.473168 1.326016 -5 0 -5 
C -1.326016 -5 -2.597899 -4.473168 -3.535534 -3.535534 
C -4.473168 -2.597899 -5 -1.326016 -5 0 
C -5 1.326016 -4.473168 2.597899 -3.535534 3.535534 
C -2.597899 4.473168 -1.326016 5 0 5 
z
" id="C13_0_ecb7c3f600"/>
    </defs>
    <g clip-path="url(#p35b34c2e67)">
     <use style="fill:#d3d3d3;stroke:#000000;" x="1064.410167" xlink:href="#C13_0_ecb7c3f600" y="349.149789"/>
    </g>
    <g clip-path="url(#p35b34c2e67)">
     <use style="fill:#d3d3d3;stroke:#000000;" x="1055.553587" xlink:href="#C13_0_ecb7c3f600" y="345.896928"/>
    </g>
    <g clip-path="url(#p35b34c2e67)">
     <use style="fill:#d3d3d3;stroke:#000000;" x="1070.051843" xlink:href="#C13_0_ecb7c3f600" y="344.447668"/>
    </g>
   </g>
   <g id="PathCollection_27">
    <defs>
     <path d="M 0 5 
C 1.326016 5 2.597899 4.473168 3.535534 3.535534 
C 4.473168 2.597899 5 1.326016 5 -0 
C 5 -1.326016 4.473168 -2.597899 3.535534 -3.535534 
C 2.597899 -4.473168 1.326016 -5 0 -5 
C -1.326016 -5 -2.597899 -4.473168 -3.535534 -3.535534 
C -4.473168 -2.597899 -5 -1.326016 -5 0 
C -5 1.326016 -4.473168 2.597899 -3.535534 3.535534 
C -2.597899 4.473168 -1.326016 5 0 5 
z
" id="C14_0_b0484b46bd"/>
    </defs>
    <g clip-path="url(#p35b34c2e67)">
     <use style="fill:#6495ed;stroke:#000000;" x="1118.063167" xlink:href="#C14_0_b0484b46bd" y="337.643478"/>
    </g>
    <g clip-path="url(#p35b34c2e67)">
     <use style="fill:#6495ed;stroke:#000000;" x="1107.412374" xlink:href="#C14_0_b0484b46bd" y="336.256408"/>
    </g>
    <g clip-path="url(#p35b34c2e67)">
     <use style="fill:#6495ed;stroke:#000000;" x="1128.078793" xlink:href="#C14_0_b0484b46bd" y="335.369549"/>
    </g>
   </g>
   <g id="PathCollection_28">
    <defs>
     <path d="M 0 5 
C 1.326016 5 2.597899 4.473168 3.535534 3.535534 
C 4.473168 2.597899 5 1.326016 5 -0 
C 5 -1.326016 4.473168 -2.597899 3.535534 -3.535534 
C 2.597899 -4.473168 1.326016 -5 0 -5 
C -1.326016 -5 -2.597899 -4.473168 -3.535534 -3.535534 
C -4.473168 -2.597899 -5 -1.326016 -5 0 
C -5 1.326016 -4.473168 2.597899 -3.535534 3.535534 
C -2.597899 4.473168 -1.326016 5 0 5 
z
" id="C15_0_8fc550565c"/>
    </defs>
    <g clip-path="url(#p35b34c2e67)">
     <use style="fill:#d3d3d3;stroke:#000000;" x="1153.831833" xlink:href="#C15_0_8fc550565c" y="349.462421"/>
    </g>
    <g clip-path="url(#p35b34c2e67)">
     <use style="fill:#d3d3d3;stroke:#000000;" x="1143.391156" xlink:href="#C15_0_8fc550565c" y="347.724576"/>
    </g>
    <g clip-path="url(#p35b34c2e67)">
     <use style="fill:#d3d3d3;stroke:#000000;" x="1162.72165" xlink:href="#C15_0_8fc550565c" y="346.232063"/>
    </g>
   </g>
   <g id="PathCollection_29">
    <defs>
     <path d="M 0 5 
C 1.326016 5 2.597899 4.473168 3.535534 3.535534 
C 4.473168 2.597899 5 1.326016 5 -0 
C 5 -1.326016 4.473168 -2.597899 3.535534 -3.535534 
C 2.597899 -4.473168 1.326016 -5 0 -5 
C -1.326016 -5 -2.597899 -4.473168 -3.535534 -3.535534 
C -4.473168 -2.597899 -5 -1.326016 -5 0 
C -5 1.326016 -4.473168 2.597899 -3.535534 3.535534 
C -2.597899 4.473168 -1.326016 5 0 5 
z
" id="C16_0_4a1e7959c8"/>
    </defs>
    <g clip-path="url(#p35b34c2e67)">
     <use style="fill:#6495ed;stroke:#000000;" x="1207.484833" xlink:href="#C16_0_4a1e7959c8" y="219.158315"/>
    </g>
    <g clip-path="url(#p35b34c2e67)">
     <use style="fill:#6495ed;stroke:#000000;" x="1198.049813" xlink:href="#C16_0_4a1e7959c8" y="216.33625"/>
    </g>
    <g clip-path="url(#p35b34c2e67)">
     <use style="fill:#6495ed;stroke:#000000;" x="1215.821705" xlink:href="#C16_0_4a1e7959c8" y="215.581827"/>
    </g>
   </g>
   <g id="PathCollection_30">
    <defs>
     <path d="M 0 5 
C 1.326016 5 2.597899 4.473168 3.535534 3.535534 
C 4.473168 2.597899 5 1.326016 5 -0 
C 5 -1.326016 4.473168 -2.597899 3.535534 -3.535534 
C 2.597899 -4.473168 1.326016 -5 0 -5 
C -1.326016 -5 -2.597899 -4.473168 -3.535534 -3.535534 
C -4.473168 -2.597899 -5 -1.326016 -5 0 
C -5 1.326016 -4.473168 2.597899 -3.535534 3.535534 
C -2.597899 4.473168 -1.326016 5 0 5 
z
" id="C17_0_cdca0d6c1a"/>
    </defs>
    <g clip-path="url(#p35b34c2e67)">
     <use style="fill:#d3d3d3;stroke:#000000;" x="1243.2535" xlink:href="#C17_0_cdca0d6c1a" y="331.029784"/>
    </g>
    <g clip-path="url(#p35b34c2e67)">
     <use style="fill:#d3d3d3;stroke:#000000;" x="1233.197021" xlink:href="#C17_0_cdca0d6c1a" y="328.800898"/>
    </g>
    <g clip-path="url(#p35b34c2e67)">
     <use style="fill:#d3d3d3;stroke:#000000;" x="1252.138481" xlink:href="#C17_0_cdca0d6c1a" y="327.796137"/>
    </g>
   </g>
   <g id="text_31">
    <!-- Model = TPOT -->
    <g style="fill:#262626;" transform="translate(1013.092292 43.2)scale(0.24 -0.24)">
     <defs>
      <path d="M 1659 0 
L 1659 4041 
L 150 4041 
L 150 4581 
L 3781 4581 
L 3781 4041 
L 2266 4041 
L 2266 0 
L 1659 0 
z
" id="ArialMT-54" transform="scale(0.015625)"/>
      <path d="M 494 0 
L 494 4581 
L 2222 4581 
Q 2678 4581 2919 4538 
Q 3256 4481 3484 4323 
Q 3713 4166 3852 3881 
Q 3991 3597 3991 3256 
Q 3991 2672 3619 2267 
Q 3247 1863 2275 1863 
L 1100 1863 
L 1100 0 
L 494 0 
z
M 1100 2403 
L 2284 2403 
Q 2872 2403 3119 2622 
Q 3366 2841 3366 3238 
Q 3366 3525 3220 3729 
Q 3075 3934 2838 4000 
Q 2684 4041 2272 4041 
L 1100 4041 
L 1100 2403 
z
" id="ArialMT-50" transform="scale(0.015625)"/>
     </defs>
     <use xlink:href="#ArialMT-4d"/>
     <use x="83.300781" xlink:href="#ArialMT-6f"/>
     <use x="138.916016" xlink:href="#ArialMT-64"/>
     <use x="194.53125" xlink:href="#ArialMT-65"/>
     <use x="250.146484" xlink:href="#ArialMT-6c"/>
     <use x="272.363281" xlink:href="#ArialMT-20"/>
     <use x="300.146484" xlink:href="#ArialMT-3d"/>
     <use x="358.544922" xlink:href="#ArialMT-20"/>
     <use x="384.578125" xlink:href="#ArialMT-54"/>
     <use x="445.662109" xlink:href="#ArialMT-50"/>
     <use x="512.361328" xlink:href="#ArialMT-4f"/>
     <use x="590.144531" xlink:href="#ArialMT-54"/>
    </g>
   </g>
   <g id="legend_3">
    <g id="patch_41">
     <path d="M 1061.77125 170.835 
L 1253.28 170.835 
Q 1258.08 170.835 1258.08 166.035 
L 1258.08 66 
Q 1258.08 61.2 1253.28 61.2 
L 1061.77125 61.2 
Q 1056.97125 61.2 1056.97125 66 
L 1056.97125 166.035 
Q 1056.97125 170.835 1061.77125 170.835 
z
" style="fill:#ffffff;opacity:0.8;stroke:#cccccc;stroke-linejoin:miter;"/>
    </g>
    <g id="text_32">
     <!-- Data -->
     <g style="fill:#262626;" transform="translate(1132.179375 87.97875)scale(0.24 -0.24)">
      <use xlink:href="#ArialMT-44"/>
      <use x="72.216797" xlink:href="#ArialMT-61"/>
      <use x="127.832031" xlink:href="#ArialMT-74"/>
      <use x="155.615234" xlink:href="#ArialMT-61"/>
     </g>
    </g>
    <g id="patch_42">
     <path d="M 1066.57125 122.235 
L 1114.57125 122.235 
L 1114.57125 105.435 
L 1066.57125 105.435 
z
" style="fill:#7f9dd2;stroke:#000000;stroke-linejoin:miter;"/>
    </g>
    <g id="text_33">
     <!-- Original -->
     <g style="fill:#262626;" transform="translate(1133.77125 122.235)scale(0.24 -0.24)">
      <use xlink:href="#ArialMT-4f"/>
      <use x="77.783203" xlink:href="#ArialMT-72"/>
      <use x="111.083984" xlink:href="#ArialMT-69"/>
      <use x="133.300781" xlink:href="#ArialMT-67"/>
      <use x="188.916016" xlink:href="#ArialMT-69"/>
      <use x="211.132812" xlink:href="#ArialMT-6e"/>
      <use x="266.748047" xlink:href="#ArialMT-61"/>
      <use x="322.363281" xlink:href="#ArialMT-6c"/>
     </g>
    </g>
    <g id="patch_43">
     <path d="M 1066.57125 156.465 
L 1114.57125 156.465 
L 1114.57125 139.665 
L 1066.57125 139.665 
z
" style="fill:#d3d3d3;stroke:#000000;stroke-linejoin:miter;"/>
    </g>
    <g id="text_34">
     <!-- Scrambled -->
     <g style="fill:#262626;" transform="translate(1133.77125 156.465)scale(0.24 -0.24)">
      <use xlink:href="#ArialMT-53"/>
      <use x="66.699219" xlink:href="#ArialMT-63"/>
      <use x="116.699219" xlink:href="#ArialMT-72"/>
      <use x="150" xlink:href="#ArialMT-61"/>
      <use x="205.615234" xlink:href="#ArialMT-6d"/>
      <use x="288.916016" xlink:href="#ArialMT-62"/>
      <use x="344.53125" xlink:href="#ArialMT-6c"/>
      <use x="366.748047" xlink:href="#ArialMT-65"/>
      <use x="422.363281" xlink:href="#ArialMT-64"/>
     </g>
    </g>
   </g>
  </g>
 </g>
 <defs>
  <clipPath id="p19c2a9d106">
   <rect height="301.24" width="357.686667" x="92.54" y="49.2"/>
  </clipPath>
  <clipPath id="p3c179adeb0">
   <rect height="301.24" width="357.686667" x="502.466667" y="49.2"/>
  </clipPath>
  <clipPath id="p35b34c2e67">
   <rect height="301.24" width="357.686667" x="912.393333" y="49.2"/>
  </clipPath>
 </defs>
</svg>
