<?xml version="1.0" encoding="utf-8" standalone="no"?>
<!DOCTYPE svg PUBLIC "-//W3C//DTD SVG 1.1//EN"
  "http://www.w3.org/Graphics/SVG/1.1/DTD/svg11.dtd">
<svg height="432pt" version="1.1" viewBox="0 0 1296 432" width="1296pt" xmlns="http://www.w3.org/2000/svg" xmlns:xlink="http://www.w3.org/1999/xlink">
 <metadata>
  <rdf:RDF xmlns:cc="http://creativecommons.org/ns#" xmlns:dc="http://purl.org/dc/elements/1.1/" xmlns:rdf="http://www.w3.org/1999/02/22-rdf-syntax-ns#">
   <cc:Work>
    <dc:type rdf:resource="http://purl.org/dc/dcmitype/StillImage"/>
    <dc:date>2022-04-09T19:55:32.328496</dc:date>
    <dc:format>image/svg+xml</dc:format>
    <dc:creator>
     <cc:Agent>
      <dc:title>Matplotlib v3.4.2, https://matplotlib.org/</dc:title>
     </cc:Agent>
    </dc:creator>
   </cc:Work>
  </rdf:RDF>
 </metadata>
 <defs>
  <style type="text/css">*{stroke-linecap:butt;stroke-linejoin:round;}</style>
 </defs>
 <g id="figure_1">
  <g id="patch_1">
   <path d="M 0 432 
L 1296 432 
L 1296 0 
L 0 0 
z
" style="fill:#ffffff;"/>
  </g>
  <g id="axes_1">
   <g id="patch_2">
    <path d="M 92.54 263.67716 
L 450.226667 263.67716 
L 450.226667 49.2 
L 92.54 49.2 
z
" style="fill:#ffffff;"/>
   </g>
   <g id="matplotlib.axis_1">
    <g id="xtick_1">
     <g id="text_1">
      <!-- r2 -->
      <g style="fill:#262626;" transform="translate(141.508341 294.673554)rotate(-80)scale(0.24 -0.24)">
       <defs>
        <path d="M 416 0 
L 416 3319 
L 922 3319 
L 922 2816 
Q 1116 3169 1280 3281 
Q 1444 3394 1641 3394 
Q 1925 3394 2219 3213 
L 2025 2691 
Q 1819 2813 1613 2813 
Q 1428 2813 1281 2702 
Q 1134 2591 1072 2394 
Q 978 2094 978 1738 
L 978 0 
L 416 0 
z
" id="ArialMT-72" transform="scale(0.015625)"/>
        <path d="M 3222 541 
L 3222 0 
L 194 0 
Q 188 203 259 391 
Q 375 700 629 1000 
Q 884 1300 1366 1694 
Q 2113 2306 2375 2664 
Q 2638 3022 2638 3341 
Q 2638 3675 2398 3904 
Q 2159 4134 1775 4134 
Q 1369 4134 1125 3890 
Q 881 3647 878 3216 
L 300 3275 
Q 359 3922 746 4261 
Q 1134 4600 1788 4600 
Q 2447 4600 2831 4234 
Q 3216 3869 3216 3328 
Q 3216 3053 3103 2787 
Q 2991 2522 2730 2228 
Q 2469 1934 1863 1422 
Q 1356 997 1212 845 
Q 1069 694 975 541 
L 3222 541 
z
" id="ArialMT-32" transform="scale(0.015625)"/>
       </defs>
       <use xlink:href="#ArialMT-72"/>
       <use x="33.300781" xlink:href="#ArialMT-32"/>
      </g>
     </g>
    </g>
    <g id="xtick_2">
     <g id="text_2">
      <!-- pearson -->
      <g style="fill:#262626;" transform="translate(225.253015 359.065209)rotate(-80)scale(0.24 -0.24)">
       <defs>
        <path d="M 422 -1272 
L 422 3319 
L 934 3319 
L 934 2888 
Q 1116 3141 1344 3267 
Q 1572 3394 1897 3394 
Q 2322 3394 2647 3175 
Q 2972 2956 3137 2557 
Q 3303 2159 3303 1684 
Q 3303 1175 3120 767 
Q 2938 359 2589 142 
Q 2241 -75 1856 -75 
Q 1575 -75 1351 44 
Q 1128 163 984 344 
L 984 -1272 
L 422 -1272 
z
M 931 1641 
Q 931 1000 1190 694 
Q 1450 388 1819 388 
Q 2194 388 2461 705 
Q 2728 1022 2728 1688 
Q 2728 2322 2467 2637 
Q 2206 2953 1844 2953 
Q 1484 2953 1207 2617 
Q 931 2281 931 1641 
z
" id="ArialMT-70" transform="scale(0.015625)"/>
        <path d="M 2694 1069 
L 3275 997 
Q 3138 488 2766 206 
Q 2394 -75 1816 -75 
Q 1088 -75 661 373 
Q 234 822 234 1631 
Q 234 2469 665 2931 
Q 1097 3394 1784 3394 
Q 2450 3394 2872 2941 
Q 3294 2488 3294 1666 
Q 3294 1616 3291 1516 
L 816 1516 
Q 847 969 1125 678 
Q 1403 388 1819 388 
Q 2128 388 2347 550 
Q 2566 713 2694 1069 
z
M 847 1978 
L 2700 1978 
Q 2663 2397 2488 2606 
Q 2219 2931 1791 2931 
Q 1403 2931 1139 2672 
Q 875 2413 847 1978 
z
" id="ArialMT-65" transform="scale(0.015625)"/>
        <path d="M 2588 409 
Q 2275 144 1986 34 
Q 1697 -75 1366 -75 
Q 819 -75 525 192 
Q 231 459 231 875 
Q 231 1119 342 1320 
Q 453 1522 633 1644 
Q 813 1766 1038 1828 
Q 1203 1872 1538 1913 
Q 2219 1994 2541 2106 
Q 2544 2222 2544 2253 
Q 2544 2597 2384 2738 
Q 2169 2928 1744 2928 
Q 1347 2928 1158 2789 
Q 969 2650 878 2297 
L 328 2372 
Q 403 2725 575 2942 
Q 747 3159 1072 3276 
Q 1397 3394 1825 3394 
Q 2250 3394 2515 3294 
Q 2781 3194 2906 3042 
Q 3031 2891 3081 2659 
Q 3109 2516 3109 2141 
L 3109 1391 
Q 3109 606 3145 398 
Q 3181 191 3288 0 
L 2700 0 
Q 2613 175 2588 409 
z
M 2541 1666 
Q 2234 1541 1622 1453 
Q 1275 1403 1131 1340 
Q 988 1278 909 1158 
Q 831 1038 831 891 
Q 831 666 1001 516 
Q 1172 366 1500 366 
Q 1825 366 2078 508 
Q 2331 650 2450 897 
Q 2541 1088 2541 1459 
L 2541 1666 
z
" id="ArialMT-61" transform="scale(0.015625)"/>
        <path d="M 197 991 
L 753 1078 
Q 800 744 1014 566 
Q 1228 388 1613 388 
Q 2000 388 2187 545 
Q 2375 703 2375 916 
Q 2375 1106 2209 1216 
Q 2094 1291 1634 1406 
Q 1016 1563 777 1677 
Q 538 1791 414 1992 
Q 291 2194 291 2438 
Q 291 2659 392 2848 
Q 494 3038 669 3163 
Q 800 3259 1026 3326 
Q 1253 3394 1513 3394 
Q 1903 3394 2198 3281 
Q 2494 3169 2634 2976 
Q 2775 2784 2828 2463 
L 2278 2388 
Q 2241 2644 2061 2787 
Q 1881 2931 1553 2931 
Q 1166 2931 1000 2803 
Q 834 2675 834 2503 
Q 834 2394 903 2306 
Q 972 2216 1119 2156 
Q 1203 2125 1616 2013 
Q 2213 1853 2448 1751 
Q 2684 1650 2818 1456 
Q 2953 1263 2953 975 
Q 2953 694 2789 445 
Q 2625 197 2315 61 
Q 2006 -75 1616 -75 
Q 969 -75 630 194 
Q 291 463 197 991 
z
" id="ArialMT-73" transform="scale(0.015625)"/>
        <path d="M 213 1659 
Q 213 2581 725 3025 
Q 1153 3394 1769 3394 
Q 2453 3394 2887 2945 
Q 3322 2497 3322 1706 
Q 3322 1066 3130 698 
Q 2938 331 2570 128 
Q 2203 -75 1769 -75 
Q 1072 -75 642 372 
Q 213 819 213 1659 
z
M 791 1659 
Q 791 1022 1069 705 
Q 1347 388 1769 388 
Q 2188 388 2466 706 
Q 2744 1025 2744 1678 
Q 2744 2294 2464 2611 
Q 2184 2928 1769 2928 
Q 1347 2928 1069 2612 
Q 791 2297 791 1659 
z
" id="ArialMT-6f" transform="scale(0.015625)"/>
        <path d="M 422 0 
L 422 3319 
L 928 3319 
L 928 2847 
Q 1294 3394 1984 3394 
Q 2284 3394 2536 3286 
Q 2788 3178 2913 3003 
Q 3038 2828 3088 2588 
Q 3119 2431 3119 2041 
L 3119 0 
L 2556 0 
L 2556 2019 
Q 2556 2363 2490 2533 
Q 2425 2703 2258 2804 
Q 2091 2906 1866 2906 
Q 1506 2906 1245 2678 
Q 984 2450 984 1813 
L 984 0 
L 422 0 
z
" id="ArialMT-6e" transform="scale(0.015625)"/>
       </defs>
       <use xlink:href="#ArialMT-70"/>
       <use x="55.615234" xlink:href="#ArialMT-65"/>
       <use x="111.230469" xlink:href="#ArialMT-61"/>
       <use x="166.845703" xlink:href="#ArialMT-72"/>
       <use x="200.146484" xlink:href="#ArialMT-73"/>
       <use x="250.146484" xlink:href="#ArialMT-6f"/>
       <use x="305.761719" xlink:href="#ArialMT-6e"/>
      </g>
     </g>
    </g>
    <g id="xtick_3">
     <g id="text_3">
      <!-- spearman -->
      <g style="fill:#262626;" transform="translate(312.938959 378.752747)rotate(-80)scale(0.24 -0.24)">
       <defs>
        <path d="M 422 0 
L 422 3319 
L 925 3319 
L 925 2853 
Q 1081 3097 1340 3245 
Q 1600 3394 1931 3394 
Q 2300 3394 2536 3241 
Q 2772 3088 2869 2813 
Q 3263 3394 3894 3394 
Q 4388 3394 4653 3120 
Q 4919 2847 4919 2278 
L 4919 0 
L 4359 0 
L 4359 2091 
Q 4359 2428 4304 2576 
Q 4250 2725 4106 2815 
Q 3963 2906 3769 2906 
Q 3419 2906 3187 2673 
Q 2956 2441 2956 1928 
L 2956 0 
L 2394 0 
L 2394 2156 
Q 2394 2531 2256 2718 
Q 2119 2906 1806 2906 
Q 1569 2906 1367 2781 
Q 1166 2656 1075 2415 
Q 984 2175 984 1722 
L 984 0 
L 422 0 
z
" id="ArialMT-6d" transform="scale(0.015625)"/>
       </defs>
       <use xlink:href="#ArialMT-73"/>
       <use x="50" xlink:href="#ArialMT-70"/>
       <use x="105.615234" xlink:href="#ArialMT-65"/>
       <use x="161.230469" xlink:href="#ArialMT-61"/>
       <use x="216.845703" xlink:href="#ArialMT-72"/>
       <use x="250.146484" xlink:href="#ArialMT-6d"/>
       <use x="333.447266" xlink:href="#ArialMT-61"/>
       <use x="389.0625" xlink:href="#ArialMT-6e"/>
      </g>
     </g>
    </g>
    <g id="xtick_4">
     <g id="text_4">
      <!-- MAE -->
      <g style="fill:#262626;" transform="translate(407.110338 324.878839)rotate(-80)scale(0.24 -0.24)">
       <defs>
        <path d="M 475 0 
L 475 4581 
L 1388 4581 
L 2472 1338 
Q 2622 884 2691 659 
Q 2769 909 2934 1394 
L 4031 4581 
L 4847 4581 
L 4847 0 
L 4263 0 
L 4263 3834 
L 2931 0 
L 2384 0 
L 1059 3900 
L 1059 0 
L 475 0 
z
" id="ArialMT-4d" transform="scale(0.015625)"/>
        <path d="M -9 0 
L 1750 4581 
L 2403 4581 
L 4278 0 
L 3588 0 
L 3053 1388 
L 1138 1388 
L 634 0 
L -9 0 
z
M 1313 1881 
L 2866 1881 
L 2388 3150 
Q 2169 3728 2063 4100 
Q 1975 3659 1816 3225 
L 1313 1881 
z
" id="ArialMT-41" transform="scale(0.015625)"/>
        <path d="M 506 0 
L 506 4581 
L 3819 4581 
L 3819 4041 
L 1113 4041 
L 1113 2638 
L 3647 2638 
L 3647 2100 
L 1113 2100 
L 1113 541 
L 3925 541 
L 3925 0 
L 506 0 
z
" id="ArialMT-45" transform="scale(0.015625)"/>
       </defs>
       <use xlink:href="#ArialMT-4d"/>
       <use x="83.300781" xlink:href="#ArialMT-41"/>
       <use x="150" xlink:href="#ArialMT-45"/>
      </g>
     </g>
    </g>
    <g id="text_5">
     <!-- Metric -->
     <g style="fill:#262626;" transform="translate(238.718958 400.759799)scale(0.24 -0.24)">
      <defs>
       <path d="M 1650 503 
L 1731 6 
Q 1494 -44 1306 -44 
Q 1000 -44 831 53 
Q 663 150 594 308 
Q 525 466 525 972 
L 525 2881 
L 113 2881 
L 113 3319 
L 525 3319 
L 525 4141 
L 1084 4478 
L 1084 3319 
L 1650 3319 
L 1650 2881 
L 1084 2881 
L 1084 941 
Q 1084 700 1114 631 
Q 1144 563 1211 522 
Q 1278 481 1403 481 
Q 1497 481 1650 503 
z
" id="ArialMT-74" transform="scale(0.015625)"/>
       <path d="M 425 3934 
L 425 4581 
L 988 4581 
L 988 3934 
L 425 3934 
z
M 425 0 
L 425 3319 
L 988 3319 
L 988 0 
L 425 0 
z
" id="ArialMT-69" transform="scale(0.015625)"/>
       <path d="M 2588 1216 
L 3141 1144 
Q 3050 572 2676 248 
Q 2303 -75 1759 -75 
Q 1078 -75 664 370 
Q 250 816 250 1647 
Q 250 2184 428 2587 
Q 606 2991 970 3192 
Q 1334 3394 1763 3394 
Q 2303 3394 2647 3120 
Q 2991 2847 3088 2344 
L 2541 2259 
Q 2463 2594 2264 2762 
Q 2066 2931 1784 2931 
Q 1359 2931 1093 2626 
Q 828 2322 828 1663 
Q 828 994 1084 691 
Q 1341 388 1753 388 
Q 2084 388 2306 591 
Q 2528 794 2588 1216 
z
" id="ArialMT-63" transform="scale(0.015625)"/>
      </defs>
      <use xlink:href="#ArialMT-4d"/>
      <use x="83.300781" xlink:href="#ArialMT-65"/>
      <use x="138.916016" xlink:href="#ArialMT-74"/>
      <use x="166.699219" xlink:href="#ArialMT-72"/>
      <use x="200" xlink:href="#ArialMT-69"/>
      <use x="222.216797" xlink:href="#ArialMT-63"/>
     </g>
    </g>
   </g>
   <g id="matplotlib.axis_2">
    <g id="ytick_1">
     <g id="line2d_1">
      <path clip-path="url(#p09e12cca0f)" d="M 92.54 263.67716 
L 450.226667 263.67716 
" style="fill:none;stroke:#cccccc;stroke-linecap:round;stroke-width:0.8;"/>
     </g>
     <g id="text_6">
      <!-- 0.0 -->
      <g style="fill:#262626;" transform="translate(52.18 272.266535)scale(0.24 -0.24)">
       <defs>
        <path d="M 266 2259 
Q 266 3072 433 3567 
Q 600 4063 929 4331 
Q 1259 4600 1759 4600 
Q 2128 4600 2406 4451 
Q 2684 4303 2865 4023 
Q 3047 3744 3150 3342 
Q 3253 2941 3253 2259 
Q 3253 1453 3087 958 
Q 2922 463 2592 192 
Q 2263 -78 1759 -78 
Q 1097 -78 719 397 
Q 266 969 266 2259 
z
M 844 2259 
Q 844 1131 1108 757 
Q 1372 384 1759 384 
Q 2147 384 2411 759 
Q 2675 1134 2675 2259 
Q 2675 3391 2411 3762 
Q 2147 4134 1753 4134 
Q 1366 4134 1134 3806 
Q 844 3388 844 2259 
z
" id="ArialMT-30" transform="scale(0.015625)"/>
        <path d="M 581 0 
L 581 641 
L 1222 641 
L 1222 0 
L 581 0 
z
" id="ArialMT-2e" transform="scale(0.015625)"/>
       </defs>
       <use xlink:href="#ArialMT-30"/>
       <use x="55.615234" xlink:href="#ArialMT-2e"/>
       <use x="83.398438" xlink:href="#ArialMT-30"/>
      </g>
     </g>
    </g>
    <g id="ytick_2">
     <g id="line2d_2">
      <path clip-path="url(#p09e12cca0f)" d="M 92.54 224.681313 
L 450.226667 224.681313 
" style="fill:none;stroke:#cccccc;stroke-linecap:round;stroke-width:0.8;"/>
     </g>
     <g id="text_7">
      <!-- 0.2 -->
      <g style="fill:#262626;" transform="translate(52.18 233.270688)scale(0.24 -0.24)">
       <use xlink:href="#ArialMT-30"/>
       <use x="55.615234" xlink:href="#ArialMT-2e"/>
       <use x="83.398438" xlink:href="#ArialMT-32"/>
      </g>
     </g>
    </g>
    <g id="ytick_3">
     <g id="line2d_3">
      <path clip-path="url(#p09e12cca0f)" d="M 92.54 185.685466 
L 450.226667 185.685466 
" style="fill:none;stroke:#cccccc;stroke-linecap:round;stroke-width:0.8;"/>
     </g>
     <g id="text_8">
      <!-- 0.4 -->
      <g style="fill:#262626;" transform="translate(52.18 194.274841)scale(0.24 -0.24)">
       <defs>
        <path d="M 2069 0 
L 2069 1097 
L 81 1097 
L 81 1613 
L 2172 4581 
L 2631 4581 
L 2631 1613 
L 3250 1613 
L 3250 1097 
L 2631 1097 
L 2631 0 
L 2069 0 
z
M 2069 1613 
L 2069 3678 
L 634 1613 
L 2069 1613 
z
" id="ArialMT-34" transform="scale(0.015625)"/>
       </defs>
       <use xlink:href="#ArialMT-30"/>
       <use x="55.615234" xlink:href="#ArialMT-2e"/>
       <use x="83.398438" xlink:href="#ArialMT-34"/>
      </g>
     </g>
    </g>
    <g id="ytick_4">
     <g id="line2d_4">
      <path clip-path="url(#p09e12cca0f)" d="M 92.54 146.689618 
L 450.226667 146.689618 
" style="fill:none;stroke:#cccccc;stroke-linecap:round;stroke-width:0.8;"/>
     </g>
     <g id="text_9">
      <!-- 0.6 -->
      <g style="fill:#262626;" transform="translate(52.18 155.278993)scale(0.24 -0.24)">
       <defs>
        <path d="M 3184 3459 
L 2625 3416 
Q 2550 3747 2413 3897 
Q 2184 4138 1850 4138 
Q 1581 4138 1378 3988 
Q 1113 3794 959 3422 
Q 806 3050 800 2363 
Q 1003 2672 1297 2822 
Q 1591 2972 1913 2972 
Q 2475 2972 2870 2558 
Q 3266 2144 3266 1488 
Q 3266 1056 3080 686 
Q 2894 316 2569 119 
Q 2244 -78 1831 -78 
Q 1128 -78 684 439 
Q 241 956 241 2144 
Q 241 3472 731 4075 
Q 1159 4600 1884 4600 
Q 2425 4600 2770 4297 
Q 3116 3994 3184 3459 
z
M 888 1484 
Q 888 1194 1011 928 
Q 1134 663 1356 523 
Q 1578 384 1822 384 
Q 2178 384 2434 671 
Q 2691 959 2691 1453 
Q 2691 1928 2437 2201 
Q 2184 2475 1800 2475 
Q 1419 2475 1153 2201 
Q 888 1928 888 1484 
z
" id="ArialMT-36" transform="scale(0.015625)"/>
       </defs>
       <use xlink:href="#ArialMT-30"/>
       <use x="55.615234" xlink:href="#ArialMT-2e"/>
       <use x="83.398438" xlink:href="#ArialMT-36"/>
      </g>
     </g>
    </g>
    <g id="ytick_5">
     <g id="line2d_5">
      <path clip-path="url(#p09e12cca0f)" d="M 92.54 107.693771 
L 450.226667 107.693771 
" style="fill:none;stroke:#cccccc;stroke-linecap:round;stroke-width:0.8;"/>
     </g>
     <g id="text_10">
      <!-- 0.8 -->
      <g style="fill:#262626;" transform="translate(52.18 116.283146)scale(0.24 -0.24)">
       <defs>
        <path d="M 1131 2484 
Q 781 2613 612 2850 
Q 444 3088 444 3419 
Q 444 3919 803 4259 
Q 1163 4600 1759 4600 
Q 2359 4600 2725 4251 
Q 3091 3903 3091 3403 
Q 3091 3084 2923 2848 
Q 2756 2613 2416 2484 
Q 2838 2347 3058 2040 
Q 3278 1734 3278 1309 
Q 3278 722 2862 322 
Q 2447 -78 1769 -78 
Q 1091 -78 675 323 
Q 259 725 259 1325 
Q 259 1772 486 2073 
Q 713 2375 1131 2484 
z
M 1019 3438 
Q 1019 3113 1228 2906 
Q 1438 2700 1772 2700 
Q 2097 2700 2305 2904 
Q 2513 3109 2513 3406 
Q 2513 3716 2298 3927 
Q 2084 4138 1766 4138 
Q 1444 4138 1231 3931 
Q 1019 3725 1019 3438 
z
M 838 1322 
Q 838 1081 952 856 
Q 1066 631 1291 507 
Q 1516 384 1775 384 
Q 2178 384 2440 643 
Q 2703 903 2703 1303 
Q 2703 1709 2433 1975 
Q 2163 2241 1756 2241 
Q 1359 2241 1098 1978 
Q 838 1716 838 1322 
z
" id="ArialMT-38" transform="scale(0.015625)"/>
       </defs>
       <use xlink:href="#ArialMT-30"/>
       <use x="55.615234" xlink:href="#ArialMT-2e"/>
       <use x="83.398438" xlink:href="#ArialMT-38"/>
      </g>
     </g>
    </g>
    <g id="ytick_6">
     <g id="line2d_6">
      <path clip-path="url(#p09e12cca0f)" d="M 92.54 68.697924 
L 450.226667 68.697924 
" style="fill:none;stroke:#cccccc;stroke-linecap:round;stroke-width:0.8;"/>
     </g>
     <g id="text_11">
      <!-- 1.0 -->
      <g style="fill:#262626;" transform="translate(52.18 77.287299)scale(0.24 -0.24)">
       <defs>
        <path d="M 2384 0 
L 1822 0 
L 1822 3584 
Q 1619 3391 1289 3197 
Q 959 3003 697 2906 
L 697 3450 
Q 1169 3672 1522 3987 
Q 1875 4303 2022 4600 
L 2384 4600 
L 2384 0 
z
" id="ArialMT-31" transform="scale(0.015625)"/>
       </defs>
       <use xlink:href="#ArialMT-31"/>
       <use x="55.615234" xlink:href="#ArialMT-2e"/>
       <use x="83.398438" xlink:href="#ArialMT-30"/>
      </g>
     </g>
    </g>
    <g id="text_12">
     <!-- Value -->
     <g style="fill:#262626;" transform="translate(43.41 186.24358)rotate(-90)scale(0.24 -0.24)">
      <defs>
       <path d="M 1803 0 
L 28 4581 
L 684 4581 
L 1875 1253 
Q 2019 853 2116 503 
Q 2222 878 2363 1253 
L 3600 4581 
L 4219 4581 
L 2425 0 
L 1803 0 
z
" id="ArialMT-56" transform="scale(0.015625)"/>
       <path d="M 409 0 
L 409 4581 
L 972 4581 
L 972 0 
L 409 0 
z
" id="ArialMT-6c" transform="scale(0.015625)"/>
       <path d="M 2597 0 
L 2597 488 
Q 2209 -75 1544 -75 
Q 1250 -75 995 37 
Q 741 150 617 320 
Q 494 491 444 738 
Q 409 903 409 1263 
L 409 3319 
L 972 3319 
L 972 1478 
Q 972 1038 1006 884 
Q 1059 663 1231 536 
Q 1403 409 1656 409 
Q 1909 409 2131 539 
Q 2353 669 2445 892 
Q 2538 1116 2538 1541 
L 2538 3319 
L 3100 3319 
L 3100 0 
L 2597 0 
z
" id="ArialMT-75" transform="scale(0.015625)"/>
      </defs>
      <use xlink:href="#ArialMT-56"/>
      <use x="59.324219" xlink:href="#ArialMT-61"/>
      <use x="114.939453" xlink:href="#ArialMT-6c"/>
      <use x="137.15625" xlink:href="#ArialMT-75"/>
      <use x="192.771484" xlink:href="#ArialMT-65"/>
     </g>
    </g>
   </g>
   <g id="PathCollection_1"/>
   <g id="PathCollection_2"/>
   <g id="patch_3">
    <path clip-path="url(#p09e12cca0f)" d="M 101.482167 263.67716 
L 137.250833 263.67716 
L 137.250833 96.769412 
L 101.482167 96.769412 
z
" style="fill:#7f9dd2;stroke:#000000;stroke-linejoin:miter;"/>
   </g>
   <g id="patch_4">
    <path clip-path="url(#p09e12cca0f)" d="M 190.903833 263.67716 
L 226.6725 263.67716 
L 226.6725 83.279194 
L 190.903833 83.279194 
z
" style="fill:#7f9dd2;stroke:#000000;stroke-linejoin:miter;"/>
   </g>
   <g id="patch_5">
    <path clip-path="url(#p09e12cca0f)" d="M 280.3255 263.67716 
L 316.094167 263.67716 
L 316.094167 93.400233 
L 280.3255 93.400233 
z
" style="fill:#7f9dd2;stroke:#000000;stroke-linejoin:miter;"/>
   </g>
   <g id="patch_6">
    <path clip-path="url(#p09e12cca0f)" d="M 369.747167 263.67716 
L 405.515833 263.67716 
L 405.515833 249.192572 
L 369.747167 249.192572 
z
" style="fill:#7f9dd2;stroke:#000000;stroke-linejoin:miter;"/>
   </g>
   <g id="patch_7">
    <path clip-path="url(#p09e12cca0f)" d="M 137.250833 263.67716 
L 173.0195 263.67716 
L 173.0195 194.218013 
L 137.250833 194.218013 
z
" style="fill:#d3d3d3;stroke:#000000;stroke-linejoin:miter;"/>
   </g>
   <g id="patch_8">
    <path clip-path="url(#p09e12cca0f)" d="M 226.6725 263.67716 
L 262.441167 263.67716 
L 262.441167 147.305694 
L 226.6725 147.305694 
z
" style="fill:#d3d3d3;stroke:#000000;stroke-linejoin:miter;"/>
   </g>
   <g id="patch_9">
    <path clip-path="url(#p09e12cca0f)" d="M 316.094167 263.67716 
L 351.862833 263.67716 
L 351.862833 156.68732 
L 316.094167 156.68732 
z
" style="fill:#d3d3d3;stroke:#000000;stroke-linejoin:miter;"/>
   </g>
   <g id="patch_10">
    <path clip-path="url(#p09e12cca0f)" d="M 405.515833 263.67716 
L 441.2845 263.67716 
L 441.2845 226.79347 
L 405.515833 226.79347 
z
" style="fill:#d3d3d3;stroke:#000000;stroke-linejoin:miter;"/>
   </g>
   <g id="line2d_7">
    <path clip-path="url(#p09e12cca0f)" d="M 119.3665 97.408521 
L 119.3665 96.130303 
" style="fill:none;stroke:#000000;stroke-linecap:round;stroke-width:1.5;"/>
   </g>
   <g id="line2d_8">
    <path clip-path="url(#p09e12cca0f)" d="M 110.424333 97.408521 
L 128.308667 97.408521 
" style="fill:none;stroke:#000000;stroke-linecap:round;stroke-width:1.5;"/>
   </g>
   <g id="line2d_9">
    <path clip-path="url(#p09e12cca0f)" d="M 110.424333 96.130303 
L 128.308667 96.130303 
" style="fill:none;stroke:#000000;stroke-linecap:round;stroke-width:1.5;"/>
   </g>
   <g id="line2d_10">
    <path clip-path="url(#p09e12cca0f)" d="M 208.788167 83.624621 
L 208.788167 82.933767 
" style="fill:none;stroke:#000000;stroke-linecap:round;stroke-width:1.5;"/>
   </g>
   <g id="line2d_11">
    <path clip-path="url(#p09e12cca0f)" d="M 199.846 83.624621 
L 217.730333 83.624621 
" style="fill:none;stroke:#000000;stroke-linecap:round;stroke-width:1.5;"/>
   </g>
   <g id="line2d_12">
    <path clip-path="url(#p09e12cca0f)" d="M 199.846 82.933767 
L 217.730333 82.933767 
" style="fill:none;stroke:#000000;stroke-linecap:round;stroke-width:1.5;"/>
   </g>
   <g id="line2d_13">
    <path clip-path="url(#p09e12cca0f)" d="M 298.209833 93.799052 
L 298.209833 93.001414 
" style="fill:none;stroke:#000000;stroke-linecap:round;stroke-width:1.5;"/>
   </g>
   <g id="line2d_14">
    <path clip-path="url(#p09e12cca0f)" d="M 289.267667 93.799052 
L 307.152 93.799052 
" style="fill:none;stroke:#000000;stroke-linecap:round;stroke-width:1.5;"/>
   </g>
   <g id="line2d_15">
    <path clip-path="url(#p09e12cca0f)" d="M 289.267667 93.001414 
L 307.152 93.001414 
" style="fill:none;stroke:#000000;stroke-linecap:round;stroke-width:1.5;"/>
   </g>
   <g id="line2d_16">
    <path clip-path="url(#p09e12cca0f)" d="M 387.6315 249.31328 
L 387.6315 249.071864 
" style="fill:none;stroke:#000000;stroke-linecap:round;stroke-width:1.5;"/>
   </g>
   <g id="line2d_17">
    <path clip-path="url(#p09e12cca0f)" d="M 378.689333 249.31328 
L 396.573667 249.31328 
" style="fill:none;stroke:#000000;stroke-linecap:round;stroke-width:1.5;"/>
   </g>
   <g id="line2d_18">
    <path clip-path="url(#p09e12cca0f)" d="M 378.689333 249.071864 
L 396.573667 249.071864 
" style="fill:none;stroke:#000000;stroke-linecap:round;stroke-width:1.5;"/>
   </g>
   <g id="line2d_19">
    <path clip-path="url(#p09e12cca0f)" d="M 155.135167 195.269662 
L 155.135167 193.166364 
" style="fill:none;stroke:#000000;stroke-linecap:round;stroke-width:1.5;"/>
   </g>
   <g id="line2d_20">
    <path clip-path="url(#p09e12cca0f)" d="M 146.193 195.269662 
L 164.077333 195.269662 
" style="fill:none;stroke:#000000;stroke-linecap:round;stroke-width:1.5;"/>
   </g>
   <g id="line2d_21">
    <path clip-path="url(#p09e12cca0f)" d="M 146.193 193.166364 
L 164.077333 193.166364 
" style="fill:none;stroke:#000000;stroke-linecap:round;stroke-width:1.5;"/>
   </g>
   <g id="line2d_22">
    <path clip-path="url(#p09e12cca0f)" d="M 244.556833 148.185052 
L 244.556833 146.426337 
" style="fill:none;stroke:#000000;stroke-linecap:round;stroke-width:1.5;"/>
   </g>
   <g id="line2d_23">
    <path clip-path="url(#p09e12cca0f)" d="M 235.614667 148.185052 
L 253.499 148.185052 
" style="fill:none;stroke:#000000;stroke-linecap:round;stroke-width:1.5;"/>
   </g>
   <g id="line2d_24">
    <path clip-path="url(#p09e12cca0f)" d="M 235.614667 146.426337 
L 253.499 146.426337 
" style="fill:none;stroke:#000000;stroke-linecap:round;stroke-width:1.5;"/>
   </g>
   <g id="line2d_25">
    <path clip-path="url(#p09e12cca0f)" d="M 333.9785 157.106241 
L 333.9785 156.268398 
" style="fill:none;stroke:#000000;stroke-linecap:round;stroke-width:1.5;"/>
   </g>
   <g id="line2d_26">
    <path clip-path="url(#p09e12cca0f)" d="M 325.036333 157.106241 
L 342.920667 157.106241 
" style="fill:none;stroke:#000000;stroke-linecap:round;stroke-width:1.5;"/>
   </g>
   <g id="line2d_27">
    <path clip-path="url(#p09e12cca0f)" d="M 325.036333 156.268398 
L 342.920667 156.268398 
" style="fill:none;stroke:#000000;stroke-linecap:round;stroke-width:1.5;"/>
   </g>
   <g id="line2d_28">
    <path clip-path="url(#p09e12cca0f)" d="M 423.400167 226.975233 
L 423.400167 226.611708 
" style="fill:none;stroke:#000000;stroke-linecap:round;stroke-width:1.5;"/>
   </g>
   <g id="line2d_29">
    <path clip-path="url(#p09e12cca0f)" d="M 414.458 226.975233 
L 432.342333 226.975233 
" style="fill:none;stroke:#000000;stroke-linecap:round;stroke-width:1.5;"/>
   </g>
   <g id="line2d_30">
    <path clip-path="url(#p09e12cca0f)" d="M 414.458 226.611708 
L 432.342333 226.611708 
" style="fill:none;stroke:#000000;stroke-linecap:round;stroke-width:1.5;"/>
   </g>
   <g id="patch_11">
    <path d="M 92.54 263.67716 
L 92.54 49.2 
" style="fill:none;stroke:#cccccc;stroke-linecap:square;stroke-linejoin:miter;stroke-width:0.8;"/>
   </g>
   <g id="patch_12">
    <path d="M 92.54 263.67716 
L 450.226667 263.67716 
" style="fill:none;stroke:#cccccc;stroke-linecap:square;stroke-linejoin:miter;stroke-width:0.8;"/>
   </g>
   <g id="PathCollection_3">
    <defs>
     <path d="M 0 2 
C 0.530406 2 1.03916 1.789267 1.414214 1.414214 
C 1.789267 1.03916 2 0.530406 2 -0 
C 2 -0.530406 1.789267 -1.03916 1.414214 -1.414214 
C 1.03916 -1.789267 0.530406 -2 0 -2 
C -0.530406 -2 -1.03916 -1.789267 -1.414214 -1.414214 
C -1.789267 -1.03916 -2 -0.530406 -2 0 
C -2 0.530406 -1.789267 1.03916 -1.414214 1.414214 
C -1.03916 1.789267 -0.530406 2 0 2 
z
" id="C0_0_7ade48aea7"/>
    </defs>
    <g clip-path="url(#p09e12cca0f)">
     <use style="fill:#6495ed;stroke:#000000;" x="119.3665" xlink:href="#C0_0_7ade48aea7" y="97.578831"/>
    </g>
    <g clip-path="url(#p09e12cca0f)">
     <use style="fill:#6495ed;stroke:#000000;" x="114.550612" xlink:href="#C0_0_7ade48aea7" y="96.713014"/>
    </g>
    <g clip-path="url(#p09e12cca0f)">
     <use style="fill:#6495ed;stroke:#000000;" x="123.726907" xlink:href="#C0_0_7ade48aea7" y="96.01639"/>
    </g>
   </g>
   <g id="PathCollection_4">
    <defs>
     <path d="M 0 2 
C 0.530406 2 1.03916 1.789267 1.414214 1.414214 
C 1.789267 1.03916 2 0.530406 2 -0 
C 2 -0.530406 1.789267 -1.03916 1.414214 -1.414214 
C 1.03916 -1.789267 0.530406 -2 0 -2 
C -0.530406 -2 -1.03916 -1.789267 -1.414214 -1.414214 
C -1.789267 -1.03916 -2 -0.530406 -2 0 
C -2 0.530406 -1.789267 1.03916 -1.414214 1.414214 
C -1.03916 1.789267 -0.530406 2 0 2 
z
" id="C1_0_9baf9239a8"/>
    </defs>
    <g clip-path="url(#p09e12cca0f)">
     <use style="fill:#d3d3d3;stroke:#000000;" x="155.135167" xlink:href="#C1_0_9baf9239a8" y="195.269253"/>
    </g>
    <g clip-path="url(#p09e12cca0f)">
     <use style="fill:#d3d3d3;stroke:#000000;" x="150.241305" xlink:href="#C1_0_9baf9239a8" y="194.603502"/>
    </g>
    <g clip-path="url(#p09e12cca0f)">
     <use style="fill:#d3d3d3;stroke:#000000;" x="158.257755" xlink:href="#C1_0_9baf9239a8" y="192.781285"/>
    </g>
   </g>
   <g id="PathCollection_5">
    <defs>
     <path d="M 0 2 
C 0.530406 2 1.03916 1.789267 1.414214 1.414214 
C 1.789267 1.03916 2 0.530406 2 -0 
C 2 -0.530406 1.789267 -1.03916 1.414214 -1.414214 
C 1.03916 -1.789267 0.530406 -2 0 -2 
C -0.530406 -2 -1.03916 -1.789267 -1.414214 -1.414214 
C -1.789267 -1.03916 -2 -0.530406 -2 0 
C -2 0.530406 -1.789267 1.03916 -1.414214 1.414214 
C -1.03916 1.789267 -0.530406 2 0 2 
z
" id="C2_0_e2617a816b"/>
    </defs>
    <g clip-path="url(#p09e12cca0f)">
     <use style="fill:#6495ed;stroke:#000000;" x="208.788167" xlink:href="#C2_0_e2617a816b" y="83.716816"/>
    </g>
    <g clip-path="url(#p09e12cca0f)">
     <use style="fill:#6495ed;stroke:#000000;" x="203.838131" xlink:href="#C2_0_e2617a816b" y="83.248388"/>
    </g>
    <g clip-path="url(#p09e12cca0f)">
     <use style="fill:#6495ed;stroke:#000000;" x="213.613426" xlink:href="#C2_0_e2617a816b" y="82.87238"/>
    </g>
   </g>
   <g id="PathCollection_6">
    <defs>
     <path d="M 0 2 
C 0.530406 2 1.03916 1.789267 1.414214 1.414214 
C 1.789267 1.03916 2 0.530406 2 -0 
C 2 -0.530406 1.789267 -1.03916 1.414214 -1.414214 
C 1.03916 -1.789267 0.530406 -2 0 -2 
C -0.530406 -2 -1.03916 -1.789267 -1.414214 -1.414214 
C -1.789267 -1.03916 -2 -0.530406 -2 0 
C -2 0.530406 -1.789267 1.03916 -1.414214 1.414214 
C -1.03916 1.789267 -0.530406 2 0 2 
z
" id="C3_0_5202d88431"/>
    </defs>
    <g clip-path="url(#p09e12cca0f)">
     <use style="fill:#d3d3d3;stroke:#000000;" x="244.556833" xlink:href="#C3_0_5202d88431" y="148.186375"/>
    </g>
    <g clip-path="url(#p09e12cca0f)">
     <use style="fill:#d3d3d3;stroke:#000000;" x="239.630533" xlink:href="#C3_0_5202d88431" y="147.625753"/>
    </g>
    <g clip-path="url(#p09e12cca0f)">
     <use style="fill:#d3d3d3;stroke:#000000;" x="248.34373" xlink:href="#C3_0_5202d88431" y="146.104956"/>
    </g>
   </g>
   <g id="PathCollection_7">
    <defs>
     <path d="M 0 2 
C 0.530406 2 1.03916 1.789267 1.414214 1.414214 
C 1.789267 1.03916 2 0.530406 2 -0 
C 2 -0.530406 1.789267 -1.03916 1.414214 -1.414214 
C 1.03916 -1.789267 0.530406 -2 0 -2 
C -0.530406 -2 -1.03916 -1.789267 -1.414214 -1.414214 
C -1.789267 -1.03916 -2 -0.530406 -2 0 
C -2 0.530406 -1.789267 1.03916 -1.414214 1.414214 
C -1.03916 1.789267 -0.530406 2 0 2 
z
" id="C4_0_e59c858e49"/>
    </defs>
    <g clip-path="url(#p09e12cca0f)">
     <use style="fill:#6495ed;stroke:#000000;" x="298.209833" xlink:href="#C4_0_e59c858e49" y="93.961764"/>
    </g>
    <g clip-path="url(#p09e12cca0f)">
     <use style="fill:#6495ed;stroke:#000000;" x="293.364476" xlink:href="#C4_0_e59c858e49" y="93.165264"/>
    </g>
    <g clip-path="url(#p09e12cca0f)">
     <use style="fill:#6495ed;stroke:#000000;" x="303.015689" xlink:href="#C4_0_e59c858e49" y="93.073672"/>
    </g>
   </g>
   <g id="PathCollection_8">
    <defs>
     <path d="M 0 2 
C 0.530406 2 1.03916 1.789267 1.414214 1.414214 
C 1.789267 1.03916 2 0.530406 2 -0 
C 2 -0.530406 1.789267 -1.03916 1.414214 -1.414214 
C 1.03916 -1.789267 0.530406 -2 0 -2 
C -0.530406 -2 -1.03916 -1.789267 -1.414214 -1.414214 
C -1.789267 -1.03916 -2 -0.530406 -2 0 
C -2 0.530406 -1.789267 1.03916 -1.414214 1.414214 
C -1.03916 1.789267 -0.530406 2 0 2 
z
" id="C5_0_147b18a7e2"/>
    </defs>
    <g clip-path="url(#p09e12cca0f)">
     <use style="fill:#d3d3d3;stroke:#000000;" x="333.9785" xlink:href="#C5_0_147b18a7e2" y="157.113119"/>
    </g>
    <g clip-path="url(#p09e12cca0f)">
     <use style="fill:#d3d3d3;stroke:#000000;" x="328.993665" xlink:href="#C5_0_147b18a7e2" y="156.831161"/>
    </g>
    <g clip-path="url(#p09e12cca0f)">
     <use style="fill:#d3d3d3;stroke:#000000;" x="338.732095" xlink:href="#C5_0_147b18a7e2" y="156.117679"/>
    </g>
   </g>
   <g id="PathCollection_9">
    <defs>
     <path d="M 0 2 
C 0.530406 2 1.03916 1.789267 1.414214 1.414214 
C 1.789267 1.03916 2 0.530406 2 -0 
C 2 -0.530406 1.789267 -1.03916 1.414214 -1.414214 
C 1.03916 -1.789267 0.530406 -2 0 -2 
C -0.530406 -2 -1.03916 -1.789267 -1.414214 -1.414214 
C -1.789267 -1.03916 -2 -0.530406 -2 0 
C -2 0.530406 -1.789267 1.03916 -1.414214 1.414214 
C -1.03916 1.789267 -0.530406 2 0 2 
z
" id="C6_0_676b195cff"/>
    </defs>
    <g clip-path="url(#p09e12cca0f)">
     <use style="fill:#6495ed;stroke:#000000;" x="387.6315" xlink:href="#C6_0_676b195cff" y="249.361754"/>
    </g>
    <g clip-path="url(#p09e12cca0f)">
     <use style="fill:#6495ed;stroke:#000000;" x="382.640542" xlink:href="#C6_0_676b195cff" y="249.127701"/>
    </g>
    <g clip-path="url(#p09e12cca0f)">
     <use style="fill:#6495ed;stroke:#000000;" x="392.617501" xlink:href="#C6_0_676b195cff" y="249.088262"/>
    </g>
   </g>
   <g id="PathCollection_10">
    <defs>
     <path d="M 0 2 
C 0.530406 2 1.03916 1.789267 1.414214 1.414214 
C 1.789267 1.03916 2 0.530406 2 -0 
C 2 -0.530406 1.789267 -1.03916 1.414214 -1.414214 
C 1.03916 -1.789267 0.530406 -2 0 -2 
C -0.530406 -2 -1.03916 -1.789267 -1.414214 -1.414214 
C -1.789267 -1.03916 -2 -0.530406 -2 0 
C -2 0.530406 -1.789267 1.03916 -1.414214 1.414214 
C -1.03916 1.789267 -0.530406 2 0 2 
z
" id="C7_0_2db807ea02"/>
    </defs>
    <g clip-path="url(#p09e12cca0f)">
     <use style="fill:#d3d3d3;stroke:#000000;" x="423.400167" xlink:href="#C7_0_2db807ea02" y="227.04406"/>
    </g>
    <g clip-path="url(#p09e12cca0f)">
     <use style="fill:#d3d3d3;stroke:#000000;" x="418.422018" xlink:href="#C7_0_2db807ea02" y="226.717776"/>
    </g>
    <g clip-path="url(#p09e12cca0f)">
     <use style="fill:#d3d3d3;stroke:#000000;" x="428.359774" xlink:href="#C7_0_2db807ea02" y="226.618576"/>
    </g>
   </g>
   <g id="text_13">
    <!-- Model = AutoKeras -->
    <g style="fill:#262626;" transform="translate(169.655208 43.2)scale(0.24 -0.24)">
     <defs>
      <path d="M 2575 0 
L 2575 419 
Q 2259 -75 1647 -75 
Q 1250 -75 917 144 
Q 584 363 401 755 
Q 219 1147 219 1656 
Q 219 2153 384 2558 
Q 550 2963 881 3178 
Q 1213 3394 1622 3394 
Q 1922 3394 2156 3267 
Q 2391 3141 2538 2938 
L 2538 4581 
L 3097 4581 
L 3097 0 
L 2575 0 
z
M 797 1656 
Q 797 1019 1065 703 
Q 1334 388 1700 388 
Q 2069 388 2326 689 
Q 2584 991 2584 1609 
Q 2584 2291 2321 2609 
Q 2059 2928 1675 2928 
Q 1300 2928 1048 2622 
Q 797 2316 797 1656 
z
" id="ArialMT-64" transform="scale(0.015625)"/>
      <path id="ArialMT-20" transform="scale(0.015625)"/>
      <path d="M 3381 2694 
L 356 2694 
L 356 3219 
L 3381 3219 
L 3381 2694 
z
M 3381 1303 
L 356 1303 
L 356 1828 
L 3381 1828 
L 3381 1303 
z
" id="ArialMT-3d" transform="scale(0.015625)"/>
      <path d="M 469 0 
L 469 4581 
L 1075 4581 
L 1075 2309 
L 3350 4581 
L 4172 4581 
L 2250 2725 
L 4256 0 
L 3456 0 
L 1825 2319 
L 1075 1588 
L 1075 0 
L 469 0 
z
" id="ArialMT-4b" transform="scale(0.015625)"/>
     </defs>
     <use xlink:href="#ArialMT-4d"/>
     <use x="83.300781" xlink:href="#ArialMT-6f"/>
     <use x="138.916016" xlink:href="#ArialMT-64"/>
     <use x="194.53125" xlink:href="#ArialMT-65"/>
     <use x="250.146484" xlink:href="#ArialMT-6c"/>
     <use x="272.363281" xlink:href="#ArialMT-20"/>
     <use x="300.146484" xlink:href="#ArialMT-3d"/>
     <use x="358.544922" xlink:href="#ArialMT-20"/>
     <use x="380.828125" xlink:href="#ArialMT-41"/>
     <use x="447.527344" xlink:href="#ArialMT-75"/>
     <use x="503.142578" xlink:href="#ArialMT-74"/>
     <use x="530.925781" xlink:href="#ArialMT-6f"/>
     <use x="586.541016" xlink:href="#ArialMT-4b"/>
     <use x="653.240234" xlink:href="#ArialMT-65"/>
     <use x="708.855469" xlink:href="#ArialMT-72"/>
     <use x="742.15625" xlink:href="#ArialMT-61"/>
     <use x="797.771484" xlink:href="#ArialMT-73"/>
    </g>
   </g>
   <g id="legend_1">
    <g id="patch_13">
     <path d="M 241.917917 211.25608 
L 433.426667 211.25608 
Q 438.226667 211.25608 438.226667 206.45608 
L 438.226667 106.42108 
Q 438.226667 101.62108 433.426667 101.62108 
L 241.917917 101.62108 
Q 237.117917 101.62108 237.117917 106.42108 
L 237.117917 206.45608 
Q 237.117917 211.25608 241.917917 211.25608 
z
" style="fill:#ffffff;opacity:0.8;stroke:#cccccc;stroke-linejoin:miter;"/>
    </g>
    <g id="text_14">
     <!-- Data -->
     <g style="fill:#262626;" transform="translate(312.326042 128.39983)scale(0.24 -0.24)">
      <defs>
       <path d="M 494 0 
L 494 4581 
L 2072 4581 
Q 2606 4581 2888 4516 
Q 3281 4425 3559 4188 
Q 3922 3881 4101 3404 
Q 4281 2928 4281 2316 
Q 4281 1794 4159 1391 
Q 4038 988 3847 723 
Q 3656 459 3429 307 
Q 3203 156 2883 78 
Q 2563 0 2147 0 
L 494 0 
z
M 1100 541 
L 2078 541 
Q 2531 541 2789 625 
Q 3047 709 3200 863 
Q 3416 1078 3536 1442 
Q 3656 1806 3656 2325 
Q 3656 3044 3420 3430 
Q 3184 3816 2847 3947 
Q 2603 4041 2063 4041 
L 1100 4041 
L 1100 541 
z
" id="ArialMT-44" transform="scale(0.015625)"/>
      </defs>
      <use xlink:href="#ArialMT-44"/>
      <use x="72.216797" xlink:href="#ArialMT-61"/>
      <use x="127.832031" xlink:href="#ArialMT-74"/>
      <use x="155.615234" xlink:href="#ArialMT-61"/>
     </g>
    </g>
    <g id="patch_14">
     <path d="M 246.717917 162.65608 
L 294.717917 162.65608 
L 294.717917 145.85608 
L 246.717917 145.85608 
z
" style="fill:#7f9dd2;stroke:#000000;stroke-linejoin:miter;"/>
    </g>
    <g id="text_15">
     <!-- Original -->
     <g style="fill:#262626;" transform="translate(313.917917 162.65608)scale(0.24 -0.24)">
      <defs>
       <path d="M 309 2231 
Q 309 3372 921 4017 
Q 1534 4663 2503 4663 
Q 3138 4663 3647 4359 
Q 4156 4056 4423 3514 
Q 4691 2972 4691 2284 
Q 4691 1588 4409 1038 
Q 4128 488 3612 205 
Q 3097 -78 2500 -78 
Q 1853 -78 1343 234 
Q 834 547 571 1087 
Q 309 1628 309 2231 
z
M 934 2222 
Q 934 1394 1379 917 
Q 1825 441 2497 441 
Q 3181 441 3623 922 
Q 4066 1403 4066 2288 
Q 4066 2847 3877 3264 
Q 3688 3681 3323 3911 
Q 2959 4141 2506 4141 
Q 1863 4141 1398 3698 
Q 934 3256 934 2222 
z
" id="ArialMT-4f" transform="scale(0.015625)"/>
       <path d="M 319 -275 
L 866 -356 
Q 900 -609 1056 -725 
Q 1266 -881 1628 -881 
Q 2019 -881 2231 -725 
Q 2444 -569 2519 -288 
Q 2563 -116 2559 434 
Q 2191 0 1641 0 
Q 956 0 581 494 
Q 206 988 206 1678 
Q 206 2153 378 2554 
Q 550 2956 876 3175 
Q 1203 3394 1644 3394 
Q 2231 3394 2613 2919 
L 2613 3319 
L 3131 3319 
L 3131 450 
Q 3131 -325 2973 -648 
Q 2816 -972 2473 -1159 
Q 2131 -1347 1631 -1347 
Q 1038 -1347 672 -1080 
Q 306 -813 319 -275 
z
M 784 1719 
Q 784 1066 1043 766 
Q 1303 466 1694 466 
Q 2081 466 2343 764 
Q 2606 1063 2606 1700 
Q 2606 2309 2336 2618 
Q 2066 2928 1684 2928 
Q 1309 2928 1046 2623 
Q 784 2319 784 1719 
z
" id="ArialMT-67" transform="scale(0.015625)"/>
      </defs>
      <use xlink:href="#ArialMT-4f"/>
      <use x="77.783203" xlink:href="#ArialMT-72"/>
      <use x="111.083984" xlink:href="#ArialMT-69"/>
      <use x="133.300781" xlink:href="#ArialMT-67"/>
      <use x="188.916016" xlink:href="#ArialMT-69"/>
      <use x="211.132812" xlink:href="#ArialMT-6e"/>
      <use x="266.748047" xlink:href="#ArialMT-61"/>
      <use x="322.363281" xlink:href="#ArialMT-6c"/>
     </g>
    </g>
    <g id="patch_15">
     <path d="M 246.717917 196.88608 
L 294.717917 196.88608 
L 294.717917 180.08608 
L 246.717917 180.08608 
z
" style="fill:#d3d3d3;stroke:#000000;stroke-linejoin:miter;"/>
    </g>
    <g id="text_16">
     <!-- Scrambled -->
     <g style="fill:#262626;" transform="translate(313.917917 196.88608)scale(0.24 -0.24)">
      <defs>
       <path d="M 288 1472 
L 859 1522 
Q 900 1178 1048 958 
Q 1197 738 1509 602 
Q 1822 466 2213 466 
Q 2559 466 2825 569 
Q 3091 672 3220 851 
Q 3350 1031 3350 1244 
Q 3350 1459 3225 1620 
Q 3100 1781 2813 1891 
Q 2628 1963 1997 2114 
Q 1366 2266 1113 2400 
Q 784 2572 623 2826 
Q 463 3081 463 3397 
Q 463 3744 659 4045 
Q 856 4347 1234 4503 
Q 1613 4659 2075 4659 
Q 2584 4659 2973 4495 
Q 3363 4331 3572 4012 
Q 3781 3694 3797 3291 
L 3216 3247 
Q 3169 3681 2898 3903 
Q 2628 4125 2100 4125 
Q 1550 4125 1298 3923 
Q 1047 3722 1047 3438 
Q 1047 3191 1225 3031 
Q 1400 2872 2139 2705 
Q 2878 2538 3153 2413 
Q 3553 2228 3743 1945 
Q 3934 1663 3934 1294 
Q 3934 928 3725 604 
Q 3516 281 3123 101 
Q 2731 -78 2241 -78 
Q 1619 -78 1198 103 
Q 778 284 539 648 
Q 300 1013 288 1472 
z
" id="ArialMT-53" transform="scale(0.015625)"/>
       <path d="M 941 0 
L 419 0 
L 419 4581 
L 981 4581 
L 981 2947 
Q 1338 3394 1891 3394 
Q 2197 3394 2470 3270 
Q 2744 3147 2920 2923 
Q 3097 2700 3197 2384 
Q 3297 2069 3297 1709 
Q 3297 856 2875 390 
Q 2453 -75 1863 -75 
Q 1275 -75 941 416 
L 941 0 
z
M 934 1684 
Q 934 1088 1097 822 
Q 1363 388 1816 388 
Q 2184 388 2453 708 
Q 2722 1028 2722 1663 
Q 2722 2313 2464 2622 
Q 2206 2931 1841 2931 
Q 1472 2931 1203 2611 
Q 934 2291 934 1684 
z
" id="ArialMT-62" transform="scale(0.015625)"/>
      </defs>
      <use xlink:href="#ArialMT-53"/>
      <use x="66.699219" xlink:href="#ArialMT-63"/>
      <use x="116.699219" xlink:href="#ArialMT-72"/>
      <use x="150" xlink:href="#ArialMT-61"/>
      <use x="205.615234" xlink:href="#ArialMT-6d"/>
      <use x="288.916016" xlink:href="#ArialMT-62"/>
      <use x="344.53125" xlink:href="#ArialMT-6c"/>
      <use x="366.748047" xlink:href="#ArialMT-65"/>
      <use x="422.363281" xlink:href="#ArialMT-64"/>
     </g>
    </g>
   </g>
  </g>
  <g id="axes_2">
   <g id="patch_16">
    <path d="M 502.466667 263.67716 
L 860.153333 263.67716 
L 860.153333 49.2 
L 502.466667 49.2 
z
" style="fill:#ffffff;"/>
   </g>
   <g id="matplotlib.axis_3">
    <g id="xtick_5">
     <g id="text_17">
      <!-- r2 -->
      <g style="fill:#262626;" transform="translate(551.435008 294.673554)rotate(-80)scale(0.24 -0.24)">
       <use xlink:href="#ArialMT-72"/>
       <use x="33.300781" xlink:href="#ArialMT-32"/>
      </g>
     </g>
    </g>
    <g id="xtick_6">
     <g id="text_18">
      <!-- pearson -->
      <g style="fill:#262626;" transform="translate(635.179681 359.065209)rotate(-80)scale(0.24 -0.24)">
       <use xlink:href="#ArialMT-70"/>
       <use x="55.615234" xlink:href="#ArialMT-65"/>
       <use x="111.230469" xlink:href="#ArialMT-61"/>
       <use x="166.845703" xlink:href="#ArialMT-72"/>
       <use x="200.146484" xlink:href="#ArialMT-73"/>
       <use x="250.146484" xlink:href="#ArialMT-6f"/>
       <use x="305.761719" xlink:href="#ArialMT-6e"/>
      </g>
     </g>
    </g>
    <g id="xtick_7">
     <g id="text_19">
      <!-- spearman -->
      <g style="fill:#262626;" transform="translate(722.865626 378.752747)rotate(-80)scale(0.24 -0.24)">
       <use xlink:href="#ArialMT-73"/>
       <use x="50" xlink:href="#ArialMT-70"/>
       <use x="105.615234" xlink:href="#ArialMT-65"/>
       <use x="161.230469" xlink:href="#ArialMT-61"/>
       <use x="216.845703" xlink:href="#ArialMT-72"/>
       <use x="250.146484" xlink:href="#ArialMT-6d"/>
       <use x="333.447266" xlink:href="#ArialMT-61"/>
       <use x="389.0625" xlink:href="#ArialMT-6e"/>
      </g>
     </g>
    </g>
    <g id="xtick_8">
     <g id="text_20">
      <!-- MAE -->
      <g style="fill:#262626;" transform="translate(817.037004 324.878839)rotate(-80)scale(0.24 -0.24)">
       <use xlink:href="#ArialMT-4d"/>
       <use x="83.300781" xlink:href="#ArialMT-41"/>
       <use x="150" xlink:href="#ArialMT-45"/>
      </g>
     </g>
    </g>
    <g id="text_21">
     <!-- Metric -->
     <g style="fill:#262626;" transform="translate(648.645625 400.759799)scale(0.24 -0.24)">
      <use xlink:href="#ArialMT-4d"/>
      <use x="83.300781" xlink:href="#ArialMT-65"/>
      <use x="138.916016" xlink:href="#ArialMT-74"/>
      <use x="166.699219" xlink:href="#ArialMT-72"/>
      <use x="200" xlink:href="#ArialMT-69"/>
      <use x="222.216797" xlink:href="#ArialMT-63"/>
     </g>
    </g>
   </g>
   <g id="matplotlib.axis_4">
    <g id="ytick_7">
     <g id="line2d_31">
      <path clip-path="url(#p0c8300e961)" d="M 502.466667 263.67716 
L 860.153333 263.67716 
" style="fill:none;stroke:#cccccc;stroke-linecap:round;stroke-width:0.8;"/>
     </g>
    </g>
    <g id="ytick_8">
     <g id="line2d_32">
      <path clip-path="url(#p0c8300e961)" d="M 502.466667 224.681313 
L 860.153333 224.681313 
" style="fill:none;stroke:#cccccc;stroke-linecap:round;stroke-width:0.8;"/>
     </g>
    </g>
    <g id="ytick_9">
     <g id="line2d_33">
      <path clip-path="url(#p0c8300e961)" d="M 502.466667 185.685466 
L 860.153333 185.685466 
" style="fill:none;stroke:#cccccc;stroke-linecap:round;stroke-width:0.8;"/>
     </g>
    </g>
    <g id="ytick_10">
     <g id="line2d_34">
      <path clip-path="url(#p0c8300e961)" d="M 502.466667 146.689618 
L 860.153333 146.689618 
" style="fill:none;stroke:#cccccc;stroke-linecap:round;stroke-width:0.8;"/>
     </g>
    </g>
    <g id="ytick_11">
     <g id="line2d_35">
      <path clip-path="url(#p0c8300e961)" d="M 502.466667 107.693771 
L 860.153333 107.693771 
" style="fill:none;stroke:#cccccc;stroke-linecap:round;stroke-width:0.8;"/>
     </g>
    </g>
    <g id="ytick_12">
     <g id="line2d_36">
      <path clip-path="url(#p0c8300e961)" d="M 502.466667 68.697924 
L 860.153333 68.697924 
" style="fill:none;stroke:#cccccc;stroke-linecap:round;stroke-width:0.8;"/>
     </g>
    </g>
   </g>
   <g id="PathCollection_11"/>
   <g id="PathCollection_12"/>
   <g id="patch_17">
    <path clip-path="url(#p0c8300e961)" d="M 511.408833 263.67716 
L 547.1775 263.67716 
L 547.1775 93.329528 
L 511.408833 93.329528 
z
" style="fill:#7f9dd2;stroke:#000000;stroke-linejoin:miter;"/>
   </g>
   <g id="patch_18">
    <path clip-path="url(#p0c8300e961)" d="M 600.8305 263.67716 
L 636.599167 263.67716 
L 636.599167 81.4299 
L 600.8305 81.4299 
z
" style="fill:#7f9dd2;stroke:#000000;stroke-linejoin:miter;"/>
   </g>
   <g id="patch_19">
    <path clip-path="url(#p0c8300e961)" d="M 690.252167 263.67716 
L 726.020833 263.67716 
L 726.020833 90.053954 
L 690.252167 90.053954 
z
" style="fill:#7f9dd2;stroke:#000000;stroke-linejoin:miter;"/>
   </g>
   <g id="patch_20">
    <path clip-path="url(#p0c8300e961)" d="M 779.673833 263.67716 
L 815.4425 263.67716 
L 815.4425 249.053796 
L 779.673833 249.053796 
z
" style="fill:#7f9dd2;stroke:#000000;stroke-linejoin:miter;"/>
   </g>
   <g id="patch_21">
    <path clip-path="url(#p0c8300e961)" d="M 547.1775 263.67716 
L 582.946167 263.67716 
L 582.946167 200.209281 
L 547.1775 200.209281 
z
" style="fill:#d3d3d3;stroke:#000000;stroke-linejoin:miter;"/>
   </g>
   <g id="patch_22">
    <path clip-path="url(#p0c8300e961)" d="M 636.599167 263.67716 
L 672.367833 263.67716 
L 672.367833 152.436089 
L 636.599167 152.436089 
z
" style="fill:#d3d3d3;stroke:#000000;stroke-linejoin:miter;"/>
   </g>
   <g id="patch_23">
    <path clip-path="url(#p0c8300e961)" d="M 726.020833 263.67716 
L 761.7895 263.67716 
L 761.7895 161.272821 
L 726.020833 161.272821 
z
" style="fill:#d3d3d3;stroke:#000000;stroke-linejoin:miter;"/>
   </g>
   <g id="patch_24">
    <path clip-path="url(#p0c8300e961)" d="M 815.4425 263.67716 
L 851.211167 263.67716 
L 851.211167 225.185264 
L 815.4425 225.185264 
z
" style="fill:#d3d3d3;stroke:#000000;stroke-linejoin:miter;"/>
   </g>
   <g id="line2d_37">
    <path clip-path="url(#p0c8300e961)" d="M 529.293167 94.139272 
L 529.293167 92.519784 
" style="fill:none;stroke:#000000;stroke-linecap:round;stroke-width:1.5;"/>
   </g>
   <g id="line2d_38">
    <path clip-path="url(#p0c8300e961)" d="M 520.351 94.139272 
L 538.235333 94.139272 
" style="fill:none;stroke:#000000;stroke-linecap:round;stroke-width:1.5;"/>
   </g>
   <g id="line2d_39">
    <path clip-path="url(#p0c8300e961)" d="M 520.351 92.519784 
L 538.235333 92.519784 
" style="fill:none;stroke:#000000;stroke-linecap:round;stroke-width:1.5;"/>
   </g>
   <g id="line2d_40">
    <path clip-path="url(#p0c8300e961)" d="M 618.714833 81.862952 
L 618.714833 80.996848 
" style="fill:none;stroke:#000000;stroke-linecap:round;stroke-width:1.5;"/>
   </g>
   <g id="line2d_41">
    <path clip-path="url(#p0c8300e961)" d="M 609.772667 81.862952 
L 627.657 81.862952 
" style="fill:none;stroke:#000000;stroke-linecap:round;stroke-width:1.5;"/>
   </g>
   <g id="line2d_42">
    <path clip-path="url(#p0c8300e961)" d="M 609.772667 80.996848 
L 627.657 80.996848 
" style="fill:none;stroke:#000000;stroke-linecap:round;stroke-width:1.5;"/>
   </g>
   <g id="line2d_43">
    <path clip-path="url(#p0c8300e961)" d="M 708.1365 90.65575 
L 708.1365 89.452158 
" style="fill:none;stroke:#000000;stroke-linecap:round;stroke-width:1.5;"/>
   </g>
   <g id="line2d_44">
    <path clip-path="url(#p0c8300e961)" d="M 699.194333 90.65575 
L 717.078667 90.65575 
" style="fill:none;stroke:#000000;stroke-linecap:round;stroke-width:1.5;"/>
   </g>
   <g id="line2d_45">
    <path clip-path="url(#p0c8300e961)" d="M 699.194333 89.452158 
L 717.078667 89.452158 
" style="fill:none;stroke:#000000;stroke-linecap:round;stroke-width:1.5;"/>
   </g>
   <g id="line2d_46">
    <path clip-path="url(#p0c8300e961)" d="M 797.558167 249.292604 
L 797.558167 248.814988 
" style="fill:none;stroke:#000000;stroke-linecap:round;stroke-width:1.5;"/>
   </g>
   <g id="line2d_47">
    <path clip-path="url(#p0c8300e961)" d="M 788.616 249.292604 
L 806.500333 249.292604 
" style="fill:none;stroke:#000000;stroke-linecap:round;stroke-width:1.5;"/>
   </g>
   <g id="line2d_48">
    <path clip-path="url(#p0c8300e961)" d="M 788.616 248.814988 
L 806.500333 248.814988 
" style="fill:none;stroke:#000000;stroke-linecap:round;stroke-width:1.5;"/>
   </g>
   <g id="line2d_49">
    <path clip-path="url(#p0c8300e961)" d="M 565.061833 200.877305 
L 565.061833 199.541256 
" style="fill:none;stroke:#000000;stroke-linecap:round;stroke-width:1.5;"/>
   </g>
   <g id="line2d_50">
    <path clip-path="url(#p0c8300e961)" d="M 556.119667 200.877305 
L 574.004 200.877305 
" style="fill:none;stroke:#000000;stroke-linecap:round;stroke-width:1.5;"/>
   </g>
   <g id="line2d_51">
    <path clip-path="url(#p0c8300e961)" d="M 556.119667 199.541256 
L 574.004 199.541256 
" style="fill:none;stroke:#000000;stroke-linecap:round;stroke-width:1.5;"/>
   </g>
   <g id="line2d_52">
    <path clip-path="url(#p0c8300e961)" d="M 654.4835 153.021697 
L 654.4835 151.850482 
" style="fill:none;stroke:#000000;stroke-linecap:round;stroke-width:1.5;"/>
   </g>
   <g id="line2d_53">
    <path clip-path="url(#p0c8300e961)" d="M 645.541333 153.021697 
L 663.425667 153.021697 
" style="fill:none;stroke:#000000;stroke-linecap:round;stroke-width:1.5;"/>
   </g>
   <g id="line2d_54">
    <path clip-path="url(#p0c8300e961)" d="M 645.541333 151.850482 
L 663.425667 151.850482 
" style="fill:none;stroke:#000000;stroke-linecap:round;stroke-width:1.5;"/>
   </g>
   <g id="line2d_55">
    <path clip-path="url(#p0c8300e961)" d="M 743.905167 162.790249 
L 743.905167 159.755393 
" style="fill:none;stroke:#000000;stroke-linecap:round;stroke-width:1.5;"/>
   </g>
   <g id="line2d_56">
    <path clip-path="url(#p0c8300e961)" d="M 734.963 162.790249 
L 752.847333 162.790249 
" style="fill:none;stroke:#000000;stroke-linecap:round;stroke-width:1.5;"/>
   </g>
   <g id="line2d_57">
    <path clip-path="url(#p0c8300e961)" d="M 734.963 159.755393 
L 752.847333 159.755393 
" style="fill:none;stroke:#000000;stroke-linecap:round;stroke-width:1.5;"/>
   </g>
   <g id="line2d_58">
    <path clip-path="url(#p0c8300e961)" d="M 833.326833 225.361733 
L 833.326833 225.008794 
" style="fill:none;stroke:#000000;stroke-linecap:round;stroke-width:1.5;"/>
   </g>
   <g id="line2d_59">
    <path clip-path="url(#p0c8300e961)" d="M 824.384667 225.361733 
L 842.269 225.361733 
" style="fill:none;stroke:#000000;stroke-linecap:round;stroke-width:1.5;"/>
   </g>
   <g id="line2d_60">
    <path clip-path="url(#p0c8300e961)" d="M 824.384667 225.008794 
L 842.269 225.008794 
" style="fill:none;stroke:#000000;stroke-linecap:round;stroke-width:1.5;"/>
   </g>
   <g id="patch_25">
    <path d="M 502.466667 263.67716 
L 502.466667 49.2 
" style="fill:none;stroke:#cccccc;stroke-linecap:square;stroke-linejoin:miter;stroke-width:0.8;"/>
   </g>
   <g id="patch_26">
    <path d="M 502.466667 263.67716 
L 860.153333 263.67716 
" style="fill:none;stroke:#cccccc;stroke-linecap:square;stroke-linejoin:miter;stroke-width:0.8;"/>
   </g>
   <g id="PathCollection_13">
    <defs>
     <path d="M 0 2 
C 0.530406 2 1.03916 1.789267 1.414214 1.414214 
C 1.789267 1.03916 2 0.530406 2 -0 
C 2 -0.530406 1.789267 -1.03916 1.414214 -1.414214 
C 1.03916 -1.789267 0.530406 -2 0 -2 
C -0.530406 -2 -1.03916 -1.789267 -1.414214 -1.414214 
C -1.789267 -1.03916 -2 -0.530406 -2 0 
C -2 0.530406 -1.789267 1.03916 -1.414214 1.414214 
C -1.03916 1.789267 -0.530406 2 0 2 
z
" id="C8_0_550787f224"/>
    </defs>
    <g clip-path="url(#p0c8300e961)">
     <use style="fill:#6495ed;stroke:#000000;" x="529.293167" xlink:href="#C8_0_550787f224" y="94.260622"/>
    </g>
    <g clip-path="url(#p0c8300e961)">
     <use style="fill:#6495ed;stroke:#000000;" x="524.456977" xlink:href="#C8_0_550787f224" y="93.441325"/>
    </g>
    <g clip-path="url(#p0c8300e961)">
     <use style="fill:#6495ed;stroke:#000000;" x="533.221297" xlink:href="#C8_0_550787f224" y="92.286637"/>
    </g>
   </g>
   <g id="PathCollection_14">
    <defs>
     <path d="M 0 2 
C 0.530406 2 1.03916 1.789267 1.414214 1.414214 
C 1.789267 1.03916 2 0.530406 2 -0 
C 2 -0.530406 1.789267 -1.03916 1.414214 -1.414214 
C 1.03916 -1.789267 0.530406 -2 0 -2 
C -0.530406 -2 -1.03916 -1.789267 -1.414214 -1.414214 
C -1.789267 -1.03916 -2 -0.530406 -2 0 
C -2 0.530406 -1.789267 1.03916 -1.414214 1.414214 
C -1.03916 1.789267 -0.530406 2 0 2 
z
" id="C9_0_7357dc38f1"/>
    </defs>
    <g clip-path="url(#p0c8300e961)">
     <use style="fill:#d3d3d3;stroke:#000000;" x="565.061833" xlink:href="#C9_0_7357dc38f1" y="201.049408"/>
    </g>
    <g clip-path="url(#p0c8300e961)">
     <use style="fill:#d3d3d3;stroke:#000000;" x="560.254746" xlink:href="#C9_0_7357dc38f1" y="200.163415"/>
    </g>
    <g clip-path="url(#p0c8300e961)">
     <use style="fill:#d3d3d3;stroke:#000000;" x="569.357624" xlink:href="#C9_0_7357dc38f1" y="199.415018"/>
    </g>
   </g>
   <g id="PathCollection_15">
    <defs>
     <path d="M 0 2 
C 0.530406 2 1.03916 1.789267 1.414214 1.414214 
C 1.789267 1.03916 2 0.530406 2 -0 
C 2 -0.530406 1.789267 -1.03916 1.414214 -1.414214 
C 1.03916 -1.789267 0.530406 -2 0 -2 
C -0.530406 -2 -1.03916 -1.789267 -1.414214 -1.414214 
C -1.789267 -1.03916 -2 -0.530406 -2 0 
C -2 0.530406 -1.789267 1.03916 -1.414214 1.414214 
C -1.03916 1.789267 -0.530406 2 0 2 
z
" id="Ca_0_cf54d4aa9a"/>
    </defs>
    <g clip-path="url(#p0c8300e961)">
     <use style="fill:#6495ed;stroke:#000000;" x="618.714833" xlink:href="#Ca_0_cf54d4aa9a" y="81.928136"/>
    </g>
    <g clip-path="url(#p0c8300e961)">
     <use style="fill:#6495ed;stroke:#000000;" x="613.758059" xlink:href="#Ca_0_cf54d4aa9a" y="81.489199"/>
    </g>
    <g clip-path="url(#p0c8300e961)">
     <use style="fill:#6495ed;stroke:#000000;" x="623.436553" xlink:href="#Ca_0_cf54d4aa9a" y="80.872365"/>
    </g>
   </g>
   <g id="PathCollection_16">
    <defs>
     <path d="M 0 2 
C 0.530406 2 1.03916 1.789267 1.414214 1.414214 
C 1.789267 1.03916 2 0.530406 2 -0 
C 2 -0.530406 1.789267 -1.03916 1.414214 -1.414214 
C 1.03916 -1.789267 0.530406 -2 0 -2 
C -0.530406 -2 -1.03916 -1.789267 -1.414214 -1.414214 
C -1.789267 -1.03916 -2 -0.530406 -2 0 
C -2 0.530406 -1.789267 1.03916 -1.414214 1.414214 
C -1.03916 1.789267 -0.530406 2 0 2 
z
" id="Cb_0_dbd5f85f82"/>
    </defs>
    <g clip-path="url(#p0c8300e961)">
     <use style="fill:#d3d3d3;stroke:#000000;" x="654.4835" xlink:href="#Cb_0_dbd5f85f82" y="153.173263"/>
    </g>
    <g clip-path="url(#p0c8300e961)">
     <use style="fill:#d3d3d3;stroke:#000000;" x="649.63087" xlink:href="#Cb_0_dbd5f85f82" y="152.39436"/>
    </g>
    <g clip-path="url(#p0c8300e961)">
     <use style="fill:#d3d3d3;stroke:#000000;" x="658.953487" xlink:href="#Cb_0_dbd5f85f82" y="151.740645"/>
    </g>
   </g>
   <g id="PathCollection_17">
    <defs>
     <path d="M 0 2 
C 0.530406 2 1.03916 1.789267 1.414214 1.414214 
C 1.789267 1.03916 2 0.530406 2 -0 
C 2 -0.530406 1.789267 -1.03916 1.414214 -1.414214 
C 1.03916 -1.789267 0.530406 -2 0 -2 
C -0.530406 -2 -1.03916 -1.789267 -1.414214 -1.414214 
C -1.789267 -1.03916 -2 -0.530406 -2 0 
C -2 0.530406 -1.789267 1.03916 -1.414214 1.414214 
C -1.03916 1.789267 -0.530406 2 0 2 
z
" id="Cc_0_b7189b64c0"/>
    </defs>
    <g clip-path="url(#p0c8300e961)">
     <use style="fill:#6495ed;stroke:#000000;" x="708.1365" xlink:href="#Cc_0_b7189b64c0" y="90.739365"/>
    </g>
    <g clip-path="url(#p0c8300e961)">
     <use style="fill:#6495ed;stroke:#000000;" x="703.218921" xlink:href="#Cc_0_b7189b64c0" y="90.148165"/>
    </g>
    <g clip-path="url(#p0c8300e961)">
     <use style="fill:#6495ed;stroke:#000000;" x="712.580487" xlink:href="#Cc_0_b7189b64c0" y="89.274332"/>
    </g>
   </g>
   <g id="PathCollection_18">
    <defs>
     <path d="M 0 2 
C 0.530406 2 1.03916 1.789267 1.414214 1.414214 
C 1.789267 1.03916 2 0.530406 2 -0 
C 2 -0.530406 1.789267 -1.03916 1.414214 -1.414214 
C 1.03916 -1.789267 0.530406 -2 0 -2 
C -0.530406 -2 -1.03916 -1.789267 -1.414214 -1.414214 
C -1.789267 -1.03916 -2 -0.530406 -2 0 
C -2 0.530406 -1.789267 1.03916 -1.414214 1.414214 
C -1.03916 1.789267 -0.530406 2 0 2 
z
" id="Cd_0_056758809d"/>
    </defs>
    <g clip-path="url(#p0c8300e961)">
     <use style="fill:#d3d3d3;stroke:#000000;" x="743.905167" xlink:href="#Cd_0_056758809d" y="163.397711"/>
    </g>
    <g clip-path="url(#p0c8300e961)">
     <use style="fill:#d3d3d3;stroke:#000000;" x="741.930794" xlink:href="#Cd_0_056758809d" y="160.470213"/>
    </g>
    <g clip-path="url(#p0c8300e961)">
     <use style="fill:#d3d3d3;stroke:#000000;" x="746.868268" xlink:href="#Cd_0_056758809d" y="159.95054"/>
    </g>
   </g>
   <g id="PathCollection_19">
    <defs>
     <path d="M 0 2 
C 0.530406 2 1.03916 1.789267 1.414214 1.414214 
C 1.789267 1.03916 2 0.530406 2 -0 
C 2 -0.530406 1.789267 -1.03916 1.414214 -1.414214 
C 1.03916 -1.789267 0.530406 -2 0 -2 
C -0.530406 -2 -1.03916 -1.789267 -1.414214 -1.414214 
C -1.789267 -1.03916 -2 -0.530406 -2 0 
C -2 0.530406 -1.789267 1.03916 -1.414214 1.414214 
C -1.03916 1.789267 -0.530406 2 0 2 
z
" id="Ce_0_9bb51601f9"/>
    </defs>
    <g clip-path="url(#p0c8300e961)">
     <use style="fill:#6495ed;stroke:#000000;" x="797.558167" xlink:href="#Ce_0_9bb51601f9" y="249.343765"/>
    </g>
    <g clip-path="url(#p0c8300e961)">
     <use style="fill:#6495ed;stroke:#000000;" x="792.573733" xlink:href="#Ce_0_9bb51601f9" y="249.058754"/>
    </g>
    <g clip-path="url(#p0c8300e961)">
     <use style="fill:#6495ed;stroke:#000000;" x="802.477606" xlink:href="#Ce_0_9bb51601f9" y="248.75887"/>
    </g>
   </g>
   <g id="PathCollection_20">
    <defs>
     <path d="M 0 2 
C 0.530406 2 1.03916 1.789267 1.414214 1.414214 
C 1.789267 1.03916 2 0.530406 2 -0 
C 2 -0.530406 1.789267 -1.03916 1.414214 -1.414214 
C 1.03916 -1.789267 0.530406 -2 0 -2 
C -0.530406 -2 -1.03916 -1.789267 -1.414214 -1.414214 
C -1.789267 -1.03916 -2 -0.530406 -2 0 
C -2 0.530406 -1.789267 1.03916 -1.414214 1.414214 
C -1.03916 1.789267 -0.530406 2 0 2 
z
" id="Cf_0_50a156b995"/>
    </defs>
    <g clip-path="url(#p0c8300e961)">
     <use style="fill:#d3d3d3;stroke:#000000;" x="833.326833" xlink:href="#Cf_0_50a156b995" y="225.325445"/>
    </g>
    <g clip-path="url(#p0c8300e961)">
     <use style="fill:#d3d3d3;stroke:#000000;" x="828.322578" xlink:href="#Cf_0_50a156b995" y="225.293987"/>
    </g>
    <g clip-path="url(#p0c8300e961)">
     <use style="fill:#d3d3d3;stroke:#000000;" x="838.293872" xlink:href="#Cf_0_50a156b995" y="224.93636"/>
    </g>
   </g>
   <g id="text_22">
    <!-- Model = DeepSwarm -->
    <g style="fill:#262626;" transform="translate(568.931875 43.2)scale(0.24 -0.24)">
     <defs>
      <path d="M 1034 0 
L 19 3319 
L 600 3319 
L 1128 1403 
L 1325 691 
Q 1338 744 1497 1375 
L 2025 3319 
L 2603 3319 
L 3100 1394 
L 3266 759 
L 3456 1400 
L 4025 3319 
L 4572 3319 
L 3534 0 
L 2950 0 
L 2422 1988 
L 2294 2553 
L 1622 0 
L 1034 0 
z
" id="ArialMT-77" transform="scale(0.015625)"/>
     </defs>
     <use xlink:href="#ArialMT-4d"/>
     <use x="83.300781" xlink:href="#ArialMT-6f"/>
     <use x="138.916016" xlink:href="#ArialMT-64"/>
     <use x="194.53125" xlink:href="#ArialMT-65"/>
     <use x="250.146484" xlink:href="#ArialMT-6c"/>
     <use x="272.363281" xlink:href="#ArialMT-20"/>
     <use x="300.146484" xlink:href="#ArialMT-3d"/>
     <use x="358.544922" xlink:href="#ArialMT-20"/>
     <use x="386.328125" xlink:href="#ArialMT-44"/>
     <use x="458.544922" xlink:href="#ArialMT-65"/>
     <use x="514.160156" xlink:href="#ArialMT-65"/>
     <use x="569.775391" xlink:href="#ArialMT-70"/>
     <use x="625.390625" xlink:href="#ArialMT-53"/>
     <use x="692.089844" xlink:href="#ArialMT-77"/>
     <use x="764.306641" xlink:href="#ArialMT-61"/>
     <use x="819.921875" xlink:href="#ArialMT-72"/>
     <use x="853.222656" xlink:href="#ArialMT-6d"/>
    </g>
   </g>
   <g id="legend_2">
    <g id="patch_27">
     <path d="M 651.844583 211.25608 
L 843.353333 211.25608 
Q 848.153333 211.25608 848.153333 206.45608 
L 848.153333 106.42108 
Q 848.153333 101.62108 843.353333 101.62108 
L 651.844583 101.62108 
Q 647.044583 101.62108 647.044583 106.42108 
L 647.044583 206.45608 
Q 647.044583 211.25608 651.844583 211.25608 
z
" style="fill:#ffffff;opacity:0.8;stroke:#cccccc;stroke-linejoin:miter;"/>
    </g>
    <g id="text_23">
     <!-- Data -->
     <g style="fill:#262626;" transform="translate(722.252708 128.39983)scale(0.24 -0.24)">
      <use xlink:href="#ArialMT-44"/>
      <use x="72.216797" xlink:href="#ArialMT-61"/>
      <use x="127.832031" xlink:href="#ArialMT-74"/>
      <use x="155.615234" xlink:href="#ArialMT-61"/>
     </g>
    </g>
    <g id="patch_28">
     <path d="M 656.644583 162.65608 
L 704.644583 162.65608 
L 704.644583 145.85608 
L 656.644583 145.85608 
z
" style="fill:#7f9dd2;stroke:#000000;stroke-linejoin:miter;"/>
    </g>
    <g id="text_24">
     <!-- Original -->
     <g style="fill:#262626;" transform="translate(723.844583 162.65608)scale(0.24 -0.24)">
      <use xlink:href="#ArialMT-4f"/>
      <use x="77.783203" xlink:href="#ArialMT-72"/>
      <use x="111.083984" xlink:href="#ArialMT-69"/>
      <use x="133.300781" xlink:href="#ArialMT-67"/>
      <use x="188.916016" xlink:href="#ArialMT-69"/>
      <use x="211.132812" xlink:href="#ArialMT-6e"/>
      <use x="266.748047" xlink:href="#ArialMT-61"/>
      <use x="322.363281" xlink:href="#ArialMT-6c"/>
     </g>
    </g>
    <g id="patch_29">
     <path d="M 656.644583 196.88608 
L 704.644583 196.88608 
L 704.644583 180.08608 
L 656.644583 180.08608 
z
" style="fill:#d3d3d3;stroke:#000000;stroke-linejoin:miter;"/>
    </g>
    <g id="text_25">
     <!-- Scrambled -->
     <g style="fill:#262626;" transform="translate(723.844583 196.88608)scale(0.24 -0.24)">
      <use xlink:href="#ArialMT-53"/>
      <use x="66.699219" xlink:href="#ArialMT-63"/>
      <use x="116.699219" xlink:href="#ArialMT-72"/>
      <use x="150" xlink:href="#ArialMT-61"/>
      <use x="205.615234" xlink:href="#ArialMT-6d"/>
      <use x="288.916016" xlink:href="#ArialMT-62"/>
      <use x="344.53125" xlink:href="#ArialMT-6c"/>
      <use x="366.748047" xlink:href="#ArialMT-65"/>
      <use x="422.363281" xlink:href="#ArialMT-64"/>
     </g>
    </g>
   </g>
  </g>
  <g id="axes_3">
   <g id="patch_30">
    <path d="M 912.393333 263.67716 
L 1270.08 263.67716 
L 1270.08 49.2 
L 912.393333 49.2 
z
" style="fill:#ffffff;"/>
   </g>
   <g id="matplotlib.axis_5">
    <g id="xtick_9">
     <g id="text_26">
      <!-- r2 -->
      <g style="fill:#262626;" transform="translate(961.361674 294.673554)rotate(-80)scale(0.24 -0.24)">
       <use xlink:href="#ArialMT-72"/>
       <use x="33.300781" xlink:href="#ArialMT-32"/>
      </g>
     </g>
    </g>
    <g id="xtick_10">
     <g id="text_27">
      <!-- pearson -->
      <g style="fill:#262626;" transform="translate(1045.106348 359.065209)rotate(-80)scale(0.24 -0.24)">
       <use xlink:href="#ArialMT-70"/>
       <use x="55.615234" xlink:href="#ArialMT-65"/>
       <use x="111.230469" xlink:href="#ArialMT-61"/>
       <use x="166.845703" xlink:href="#ArialMT-72"/>
       <use x="200.146484" xlink:href="#ArialMT-73"/>
       <use x="250.146484" xlink:href="#ArialMT-6f"/>
       <use x="305.761719" xlink:href="#ArialMT-6e"/>
      </g>
     </g>
    </g>
    <g id="xtick_11">
     <g id="text_28">
      <!-- spearman -->
      <g style="fill:#262626;" transform="translate(1132.792292 378.752747)rotate(-80)scale(0.24 -0.24)">
       <use xlink:href="#ArialMT-73"/>
       <use x="50" xlink:href="#ArialMT-70"/>
       <use x="105.615234" xlink:href="#ArialMT-65"/>
       <use x="161.230469" xlink:href="#ArialMT-61"/>
       <use x="216.845703" xlink:href="#ArialMT-72"/>
       <use x="250.146484" xlink:href="#ArialMT-6d"/>
       <use x="333.447266" xlink:href="#ArialMT-61"/>
       <use x="389.0625" xlink:href="#ArialMT-6e"/>
      </g>
     </g>
    </g>
    <g id="xtick_12">
     <g id="text_29">
      <!-- MAE -->
      <g style="fill:#262626;" transform="translate(1226.963671 324.878839)rotate(-80)scale(0.24 -0.24)">
       <use xlink:href="#ArialMT-4d"/>
       <use x="83.300781" xlink:href="#ArialMT-41"/>
       <use x="150" xlink:href="#ArialMT-45"/>
      </g>
     </g>
    </g>
   </g>
   <g id="matplotlib.axis_6">
    <g id="ytick_13">
     <g id="line2d_61">
      <path clip-path="url(#pca93b4985e)" d="M 912.393333 263.67716 
L 1270.08 263.67716 
" style="fill:none;stroke:#cccccc;stroke-linecap:round;stroke-width:0.8;"/>
     </g>
    </g>
    <g id="ytick_14">
     <g id="line2d_62">
      <path clip-path="url(#pca93b4985e)" d="M 912.393333 224.681313 
L 1270.08 224.681313 
" style="fill:none;stroke:#cccccc;stroke-linecap:round;stroke-width:0.8;"/>
     </g>
    </g>
    <g id="ytick_15">
     <g id="line2d_63">
      <path clip-path="url(#pca93b4985e)" d="M 912.393333 185.685466 
L 1270.08 185.685466 
" style="fill:none;stroke:#cccccc;stroke-linecap:round;stroke-width:0.8;"/>
     </g>
    </g>
    <g id="ytick_16">
     <g id="line2d_64">
      <path clip-path="url(#pca93b4985e)" d="M 912.393333 146.689618 
L 1270.08 146.689618 
" style="fill:none;stroke:#cccccc;stroke-linecap:round;stroke-width:0.8;"/>
     </g>
    </g>
    <g id="ytick_17">
     <g id="line2d_65">
      <path clip-path="url(#pca93b4985e)" d="M 912.393333 107.693771 
L 1270.08 107.693771 
" style="fill:none;stroke:#cccccc;stroke-linecap:round;stroke-width:0.8;"/>
     </g>
    </g>
    <g id="ytick_18">
     <g id="line2d_66">
      <path clip-path="url(#pca93b4985e)" d="M 912.393333 68.697924 
L 1270.08 68.697924 
" style="fill:none;stroke:#cccccc;stroke-linecap:round;stroke-width:0.8;"/>
     </g>
    </g>
    <g id="text_30">
     <!-- MCC -->
     <g style="fill:#262626;" transform="translate(903.623333 183.766705)rotate(-90)scale(0.24 -0.24)">
      <defs>
       <path d="M 3763 1606 
L 4369 1453 
Q 4178 706 3683 314 
Q 3188 -78 2472 -78 
Q 1731 -78 1267 223 
Q 803 525 561 1097 
Q 319 1669 319 2325 
Q 319 3041 592 3573 
Q 866 4106 1370 4382 
Q 1875 4659 2481 4659 
Q 3169 4659 3637 4309 
Q 4106 3959 4291 3325 
L 3694 3184 
Q 3534 3684 3231 3912 
Q 2928 4141 2469 4141 
Q 1941 4141 1586 3887 
Q 1231 3634 1087 3207 
Q 944 2781 944 2328 
Q 944 1744 1114 1308 
Q 1284 872 1643 656 
Q 2003 441 2422 441 
Q 2931 441 3284 734 
Q 3638 1028 3763 1606 
z
" id="ArialMT-43" transform="scale(0.015625)"/>
      </defs>
      <use xlink:href="#ArialMT-4d"/>
      <use x="83.300781" xlink:href="#ArialMT-43"/>
      <use x="155.517578" xlink:href="#ArialMT-43"/>
     </g>
    </g>
   </g>
   <g id="PathCollection_21"/>
   <g id="PathCollection_22"/>
   <g id="patch_31">
    <path clip-path="url(#pca93b4985e)" d="M 921.3355 263.67716 
L 957.104167 263.67716 
L 957.104167 94.159168 
L 921.3355 94.159168 
z
" style="fill:#7f9dd2;stroke:#000000;stroke-linejoin:miter;"/>
   </g>
   <g id="patch_32">
    <path clip-path="url(#pca93b4985e)" d="M 1010.757167 263.67716 
L 1046.525833 263.67716 
L 1046.525833 81.874008 
L 1010.757167 81.874008 
z
" style="fill:#7f9dd2;stroke:#000000;stroke-linejoin:miter;"/>
   </g>
   <g id="patch_33">
    <path clip-path="url(#pca93b4985e)" d="M 1100.178833 263.67716 
L 1135.9475 263.67716 
L 1135.9475 91.000264 
L 1100.178833 91.000264 
z
" style="fill:#7f9dd2;stroke:#000000;stroke-linejoin:miter;"/>
   </g>
   <g id="patch_34">
    <path clip-path="url(#pca93b4985e)" d="M 1189.6005 263.67716 
L 1225.369167 263.67716 
L 1225.369167 250.377516 
L 1189.6005 250.377516 
z
" style="fill:#7f9dd2;stroke:#000000;stroke-linejoin:miter;"/>
   </g>
   <g id="patch_35">
    <path clip-path="url(#pca93b4985e)" d="M 957.104167 263.67716 
L 992.872833 263.67716 
L 992.872833 198.87952 
L 957.104167 198.87952 
z
" style="fill:#d3d3d3;stroke:#000000;stroke-linejoin:miter;"/>
   </g>
   <g id="patch_36">
    <path clip-path="url(#pca93b4985e)" d="M 1046.525833 263.67716 
L 1082.2945 263.67716 
L 1082.2945 151.276888 
L 1046.525833 151.276888 
z
" style="fill:#d3d3d3;stroke:#000000;stroke-linejoin:miter;"/>
   </g>
   <g id="patch_37">
    <path clip-path="url(#pca93b4985e)" d="M 1135.9475 263.67716 
L 1171.716167 263.67716 
L 1171.716167 160.434644 
L 1135.9475 160.434644 
z
" style="fill:#d3d3d3;stroke:#000000;stroke-linejoin:miter;"/>
   </g>
   <g id="patch_38">
    <path clip-path="url(#pca93b4985e)" d="M 1225.369167 263.67716 
L 1261.137833 263.67716 
L 1261.137833 227.368282 
L 1225.369167 227.368282 
z
" style="fill:#d3d3d3;stroke:#000000;stroke-linejoin:miter;"/>
   </g>
   <g id="line2d_67">
    <path clip-path="url(#pca93b4985e)" d="M 939.219833 94.756745 
L 939.219833 93.56159 
" style="fill:none;stroke:#000000;stroke-linecap:round;stroke-width:1.5;"/>
   </g>
   <g id="line2d_68">
    <path clip-path="url(#pca93b4985e)" d="M 930.277667 94.756745 
L 948.162 94.756745 
" style="fill:none;stroke:#000000;stroke-linecap:round;stroke-width:1.5;"/>
   </g>
   <g id="line2d_69">
    <path clip-path="url(#pca93b4985e)" d="M 930.277667 93.56159 
L 948.162 93.56159 
" style="fill:none;stroke:#000000;stroke-linecap:round;stroke-width:1.5;"/>
   </g>
   <g id="line2d_70">
    <path clip-path="url(#pca93b4985e)" d="M 1028.6415 82.194431 
L 1028.6415 81.553584 
" style="fill:none;stroke:#000000;stroke-linecap:round;stroke-width:1.5;"/>
   </g>
   <g id="line2d_71">
    <path clip-path="url(#pca93b4985e)" d="M 1019.699333 82.194431 
L 1037.583667 82.194431 
" style="fill:none;stroke:#000000;stroke-linecap:round;stroke-width:1.5;"/>
   </g>
   <g id="line2d_72">
    <path clip-path="url(#pca93b4985e)" d="M 1019.699333 81.553584 
L 1037.583667 81.553584 
" style="fill:none;stroke:#000000;stroke-linecap:round;stroke-width:1.5;"/>
   </g>
   <g id="line2d_73">
    <path clip-path="url(#pca93b4985e)" d="M 1118.063167 91.33854 
L 1118.063167 90.661988 
" style="fill:none;stroke:#000000;stroke-linecap:round;stroke-width:1.5;"/>
   </g>
   <g id="line2d_74">
    <path clip-path="url(#pca93b4985e)" d="M 1109.121 91.33854 
L 1127.005333 91.33854 
" style="fill:none;stroke:#000000;stroke-linecap:round;stroke-width:1.5;"/>
   </g>
   <g id="line2d_75">
    <path clip-path="url(#pca93b4985e)" d="M 1109.121 90.661988 
L 1127.005333 90.661988 
" style="fill:none;stroke:#000000;stroke-linecap:round;stroke-width:1.5;"/>
   </g>
   <g id="line2d_76">
    <path clip-path="url(#pca93b4985e)" d="M 1207.484833 250.474748 
L 1207.484833 250.280284 
" style="fill:none;stroke:#000000;stroke-linecap:round;stroke-width:1.5;"/>
   </g>
   <g id="line2d_77">
    <path clip-path="url(#pca93b4985e)" d="M 1198.542667 250.474748 
L 1216.427 250.474748 
" style="fill:none;stroke:#000000;stroke-linecap:round;stroke-width:1.5;"/>
   </g>
   <g id="line2d_78">
    <path clip-path="url(#pca93b4985e)" d="M 1198.542667 250.280284 
L 1216.427 250.280284 
" style="fill:none;stroke:#000000;stroke-linecap:round;stroke-width:1.5;"/>
   </g>
   <g id="line2d_79">
    <path clip-path="url(#pca93b4985e)" d="M 974.9885 199.584051 
L 974.9885 198.17499 
" style="fill:none;stroke:#000000;stroke-linecap:round;stroke-width:1.5;"/>
   </g>
   <g id="line2d_80">
    <path clip-path="url(#pca93b4985e)" d="M 966.046333 199.584051 
L 983.930667 199.584051 
" style="fill:none;stroke:#000000;stroke-linecap:round;stroke-width:1.5;"/>
   </g>
   <g id="line2d_81">
    <path clip-path="url(#pca93b4985e)" d="M 966.046333 198.17499 
L 983.930667 198.17499 
" style="fill:none;stroke:#000000;stroke-linecap:round;stroke-width:1.5;"/>
   </g>
   <g id="line2d_82">
    <path clip-path="url(#pca93b4985e)" d="M 1064.410167 151.887657 
L 1064.410167 150.666118 
" style="fill:none;stroke:#000000;stroke-linecap:round;stroke-width:1.5;"/>
   </g>
   <g id="line2d_83">
    <path clip-path="url(#pca93b4985e)" d="M 1055.468 151.887657 
L 1073.352333 151.887657 
" style="fill:none;stroke:#000000;stroke-linecap:round;stroke-width:1.5;"/>
   </g>
   <g id="line2d_84">
    <path clip-path="url(#pca93b4985e)" d="M 1055.468 150.666118 
L 1073.352333 150.666118 
" style="fill:none;stroke:#000000;stroke-linecap:round;stroke-width:1.5;"/>
   </g>
   <g id="line2d_85">
    <path clip-path="url(#pca93b4985e)" d="M 1153.831833 160.949914 
L 1153.831833 159.919374 
" style="fill:none;stroke:#000000;stroke-linecap:round;stroke-width:1.5;"/>
   </g>
   <g id="line2d_86">
    <path clip-path="url(#pca93b4985e)" d="M 1144.889667 160.949914 
L 1162.774 160.949914 
" style="fill:none;stroke:#000000;stroke-linecap:round;stroke-width:1.5;"/>
   </g>
   <g id="line2d_87">
    <path clip-path="url(#pca93b4985e)" d="M 1144.889667 159.919374 
L 1162.774 159.919374 
" style="fill:none;stroke:#000000;stroke-linecap:round;stroke-width:1.5;"/>
   </g>
   <g id="line2d_88">
    <path clip-path="url(#pca93b4985e)" d="M 1243.2535 227.553388 
L 1243.2535 227.183175 
" style="fill:none;stroke:#000000;stroke-linecap:round;stroke-width:1.5;"/>
   </g>
   <g id="line2d_89">
    <path clip-path="url(#pca93b4985e)" d="M 1234.311333 227.553388 
L 1252.195667 227.553388 
" style="fill:none;stroke:#000000;stroke-linecap:round;stroke-width:1.5;"/>
   </g>
   <g id="line2d_90">
    <path clip-path="url(#pca93b4985e)" d="M 1234.311333 227.183175 
L 1252.195667 227.183175 
" style="fill:none;stroke:#000000;stroke-linecap:round;stroke-width:1.5;"/>
   </g>
   <g id="patch_39">
    <path d="M 912.393333 263.67716 
L 912.393333 49.2 
" style="fill:none;stroke:#cccccc;stroke-linecap:square;stroke-linejoin:miter;stroke-width:0.8;"/>
   </g>
   <g id="patch_40">
    <path d="M 912.393333 263.67716 
L 1270.08 263.67716 
" style="fill:none;stroke:#cccccc;stroke-linecap:square;stroke-linejoin:miter;stroke-width:0.8;"/>
   </g>
   <g id="PathCollection_23">
    <defs>
     <path d="M 0 2 
C 0.530406 2 1.03916 1.789267 1.414214 1.414214 
C 1.789267 1.03916 2 0.530406 2 -0 
C 2 -0.530406 1.789267 -1.03916 1.414214 -1.414214 
C 1.03916 -1.789267 0.530406 -2 0 -2 
C -0.530406 -2 -1.03916 -1.789267 -1.414214 -1.414214 
C -1.789267 -1.03916 -2 -0.530406 -2 0 
C -2 0.530406 -1.789267 1.03916 -1.414214 1.414214 
C -1.03916 1.789267 -0.530406 2 0 2 
z
" id="C10_0_0887c6cbf9"/>
    </defs>
    <g clip-path="url(#pca93b4985e)">
     <use style="fill:#6495ed;stroke:#000000;" x="939.219833" xlink:href="#C10_0_0887c6cbf9" y="94.876259"/>
    </g>
    <g clip-path="url(#pca93b4985e)">
     <use style="fill:#6495ed;stroke:#000000;" x="934.333544" xlink:href="#C10_0_0887c6cbf9" y="94.187899"/>
    </g>
    <g clip-path="url(#pca93b4985e)">
     <use style="fill:#6495ed;stroke:#000000;" x="943.665543" xlink:href="#C10_0_0887c6cbf9" y="93.413345"/>
    </g>
   </g>
   <g id="PathCollection_24">
    <defs>
     <path d="M 0 2 
C 0.530406 2 1.03916 1.789267 1.414214 1.414214 
C 1.789267 1.03916 2 0.530406 2 -0 
C 2 -0.530406 1.789267 -1.03916 1.414214 -1.414214 
C 1.03916 -1.789267 0.530406 -2 0 -2 
C -0.530406 -2 -1.03916 -1.789267 -1.414214 -1.414214 
C -1.789267 -1.03916 -2 -0.530406 -2 0 
C -2 0.530406 -1.789267 1.03916 -1.414214 1.414214 
C -1.03916 1.789267 -0.530406 2 0 2 
z
" id="C11_0_4fe937bc2d"/>
    </defs>
    <g clip-path="url(#pca93b4985e)">
     <use style="fill:#d3d3d3;stroke:#000000;" x="974.9885" xlink:href="#C11_0_4fe937bc2d" y="199.695356"/>
    </g>
    <g clip-path="url(#pca93b4985e)">
     <use style="fill:#d3d3d3;stroke:#000000;" x="970.116562" xlink:href="#C11_0_4fe937bc2d" y="198.966935"/>
    </g>
    <g clip-path="url(#pca93b4985e)">
     <use style="fill:#d3d3d3;stroke:#000000;" x="979.201931" xlink:href="#C11_0_4fe937bc2d" y="197.97627"/>
    </g>
   </g>
   <g id="PathCollection_25">
    <defs>
     <path d="M 0 2 
C 0.530406 2 1.03916 1.789267 1.414214 1.414214 
C 1.789267 1.03916 2 0.530406 2 -0 
C 2 -0.530406 1.789267 -1.03916 1.414214 -1.414214 
C 1.03916 -1.789267 0.530406 -2 0 -2 
C -0.530406 -2 -1.03916 -1.789267 -1.414214 -1.414214 
C -1.789267 -1.03916 -2 -0.530406 -2 0 
C -2 0.530406 -1.789267 1.03916 -1.414214 1.414214 
C -1.03916 1.789267 -0.530406 2 0 2 
z
" id="C12_0_8fd5dc2ade"/>
    </defs>
    <g clip-path="url(#pca93b4985e)">
     <use style="fill:#6495ed;stroke:#000000;" x="1028.6415" xlink:href="#C12_0_8fd5dc2ade" y="82.258663"/>
    </g>
    <g clip-path="url(#pca93b4985e)">
     <use style="fill:#6495ed;stroke:#000000;" x="1023.670778" xlink:href="#C12_0_8fd5dc2ade" y="81.889133"/>
    </g>
    <g clip-path="url(#pca93b4985e)">
     <use style="fill:#6495ed;stroke:#000000;" x="1033.491931" xlink:href="#C12_0_8fd5dc2ade" y="81.474227"/>
    </g>
   </g>
   <g id="PathCollection_26">
    <defs>
     <path d="M 0 2 
C 0.530406 2 1.03916 1.789267 1.414214 1.414214 
C 1.789267 1.03916 2 0.530406 2 -0 
C 2 -0.530406 1.789267 -1.03916 1.414214 -1.414214 
C 1.03916 -1.789267 0.530406 -2 0 -2 
C -0.530406 -2 -1.03916 -1.789267 -1.414214 -1.414214 
C -1.789267 -1.03916 -2 -0.530406 -2 0 
C -2 0.530406 -1.789267 1.03916 -1.414214 1.414214 
C -1.03916 1.789267 -0.530406 2 0 2 
z
" id="C13_0_2a9630c128"/>
    </defs>
    <g clip-path="url(#pca93b4985e)">
     <use style="fill:#d3d3d3;stroke:#000000;" x="1064.410167" xlink:href="#C13_0_2a9630c128" y="151.985069"/>
    </g>
    <g clip-path="url(#pca93b4985e)">
     <use style="fill:#d3d3d3;stroke:#000000;" x="1059.50576" xlink:href="#C13_0_2a9630c128" y="151.351071"/>
    </g>
    <g clip-path="url(#pca93b4985e)">
     <use style="fill:#d3d3d3;stroke:#000000;" x="1068.83317" xlink:href="#C13_0_2a9630c128" y="150.494523"/>
    </g>
   </g>
   <g id="PathCollection_27">
    <defs>
     <path d="M 0 2 
C 0.530406 2 1.03916 1.789267 1.414214 1.414214 
C 1.789267 1.03916 2 0.530406 2 -0 
C 2 -0.530406 1.789267 -1.03916 1.414214 -1.414214 
C 1.03916 -1.789267 0.530406 -2 0 -2 
C -0.530406 -2 -1.03916 -1.789267 -1.414214 -1.414214 
C -1.789267 -1.03916 -2 -0.530406 -2 0 
C -2 0.530406 -1.789267 1.03916 -1.414214 1.414214 
C -1.03916 1.789267 -0.530406 2 0 2 
z
" id="C14_0_4249182906"/>
    </defs>
    <g clip-path="url(#pca93b4985e)">
     <use style="fill:#6495ed;stroke:#000000;" x="1118.063167" xlink:href="#C14_0_4249182906" y="91.470198"/>
    </g>
    <g clip-path="url(#pca93b4985e)">
     <use style="fill:#6495ed;stroke:#000000;" x="1113.156644" xlink:href="#C14_0_4249182906" y="90.84287"/>
    </g>
    <g clip-path="url(#pca93b4985e)">
     <use style="fill:#6495ed;stroke:#000000;" x="1122.91438" xlink:href="#C14_0_4249182906" y="90.687725"/>
    </g>
   </g>
   <g id="PathCollection_28">
    <defs>
     <path d="M 0 2 
C 0.530406 2 1.03916 1.789267 1.414214 1.414214 
C 1.789267 1.03916 2 0.530406 2 -0 
C 2 -0.530406 1.789267 -1.03916 1.414214 -1.414214 
C 1.03916 -1.789267 0.530406 -2 0 -2 
C -0.530406 -2 -1.03916 -1.789267 -1.414214 -1.414214 
C -1.789267 -1.03916 -2 -0.530406 -2 0 
C -2 0.530406 -1.789267 1.03916 -1.414214 1.414214 
C -1.03916 1.789267 -0.530406 2 0 2 
z
" id="C15_0_a9bf044483"/>
    </defs>
    <g clip-path="url(#pca93b4985e)">
     <use style="fill:#d3d3d3;stroke:#000000;" x="1153.831833" xlink:href="#C15_0_a9bf044483" y="160.979471"/>
    </g>
    <g clip-path="url(#pca93b4985e)">
     <use style="fill:#d3d3d3;stroke:#000000;" x="1148.86657" xlink:href="#C15_0_a9bf044483" y="160.58131"/>
    </g>
    <g clip-path="url(#pca93b4985e)">
     <use style="fill:#d3d3d3;stroke:#000000;" x="1158.444155" xlink:href="#C15_0_a9bf044483" y="159.743151"/>
    </g>
   </g>
   <g id="PathCollection_29">
    <defs>
     <path d="M 0 2 
C 0.530406 2 1.03916 1.789267 1.414214 1.414214 
C 1.789267 1.03916 2 0.530406 2 -0 
C 2 -0.530406 1.789267 -1.03916 1.414214 -1.414214 
C 1.03916 -1.789267 0.530406 -2 0 -2 
C -0.530406 -2 -1.03916 -1.789267 -1.414214 -1.414214 
C -1.789267 -1.03916 -2 -0.530406 -2 0 
C -2 0.530406 -1.789267 1.03916 -1.414214 1.414214 
C -1.03916 1.789267 -0.530406 2 0 2 
z
" id="C16_0_d0a2897da4"/>
    </defs>
    <g clip-path="url(#pca93b4985e)">
     <use style="fill:#6495ed;stroke:#000000;" x="1207.484833" xlink:href="#C16_0_d0a2897da4" y="250.492368"/>
    </g>
    <g clip-path="url(#pca93b4985e)">
     <use style="fill:#6495ed;stroke:#000000;" x="1202.483146" xlink:href="#C16_0_d0a2897da4" y="250.385572"/>
    </g>
    <g clip-path="url(#pca93b4985e)">
     <use style="fill:#6495ed;stroke:#000000;" x="1212.475377" xlink:href="#C16_0_d0a2897da4" y="250.254608"/>
    </g>
   </g>
   <g id="PathCollection_30">
    <defs>
     <path d="M 0 2 
C 0.530406 2 1.03916 1.789267 1.414214 1.414214 
C 1.789267 1.03916 2 0.530406 2 -0 
C 2 -0.530406 1.789267 -1.03916 1.414214 -1.414214 
C 1.03916 -1.789267 0.530406 -2 0 -2 
C -0.530406 -2 -1.03916 -1.789267 -1.414214 -1.414214 
C -1.789267 -1.03916 -2 -0.530406 -2 0 
C -2 0.530406 -1.789267 1.03916 -1.414214 1.414214 
C -1.03916 1.789267 -0.530406 2 0 2 
z
" id="C17_0_71be96fb02"/>
    </defs>
    <g clip-path="url(#pca93b4985e)">
     <use style="fill:#d3d3d3;stroke:#000000;" x="1243.2535" xlink:href="#C17_0_71be96fb02" y="227.578014"/>
    </g>
    <g clip-path="url(#pca93b4985e)">
     <use style="fill:#d3d3d3;stroke:#000000;" x="1238.2569" xlink:href="#C17_0_71be96fb02" y="227.399084"/>
    </g>
    <g clip-path="url(#pca93b4985e)">
     <use style="fill:#d3d3d3;stroke:#000000;" x="1248.207766" xlink:href="#C17_0_71be96fb02" y="227.127747"/>
    </g>
   </g>
   <g id="text_31">
    <!-- Model = TPOT -->
    <g style="fill:#262626;" transform="translate(1013.092292 43.2)scale(0.24 -0.24)">
     <defs>
      <path d="M 1659 0 
L 1659 4041 
L 150 4041 
L 150 4581 
L 3781 4581 
L 3781 4041 
L 2266 4041 
L 2266 0 
L 1659 0 
z
" id="ArialMT-54" transform="scale(0.015625)"/>
      <path d="M 494 0 
L 494 4581 
L 2222 4581 
Q 2678 4581 2919 4538 
Q 3256 4481 3484 4323 
Q 3713 4166 3852 3881 
Q 3991 3597 3991 3256 
Q 3991 2672 3619 2267 
Q 3247 1863 2275 1863 
L 1100 1863 
L 1100 0 
L 494 0 
z
M 1100 2403 
L 2284 2403 
Q 2872 2403 3119 2622 
Q 3366 2841 3366 3238 
Q 3366 3525 3220 3729 
Q 3075 3934 2838 4000 
Q 2684 4041 2272 4041 
L 1100 4041 
L 1100 2403 
z
" id="ArialMT-50" transform="scale(0.015625)"/>
     </defs>
     <use xlink:href="#ArialMT-4d"/>
     <use x="83.300781" xlink:href="#ArialMT-6f"/>
     <use x="138.916016" xlink:href="#ArialMT-64"/>
     <use x="194.53125" xlink:href="#ArialMT-65"/>
     <use x="250.146484" xlink:href="#ArialMT-6c"/>
     <use x="272.363281" xlink:href="#ArialMT-20"/>
     <use x="300.146484" xlink:href="#ArialMT-3d"/>
     <use x="358.544922" xlink:href="#ArialMT-20"/>
     <use x="384.578125" xlink:href="#ArialMT-54"/>
     <use x="445.662109" xlink:href="#ArialMT-50"/>
     <use x="512.361328" xlink:href="#ArialMT-4f"/>
     <use x="590.144531" xlink:href="#ArialMT-54"/>
    </g>
   </g>
   <g id="legend_3">
    <g id="patch_41">
     <path d="M 1061.77125 211.25608 
L 1253.28 211.25608 
Q 1258.08 211.25608 1258.08 206.45608 
L 1258.08 106.42108 
Q 1258.08 101.62108 1253.28 101.62108 
L 1061.77125 101.62108 
Q 1056.97125 101.62108 1056.97125 106.42108 
L 1056.97125 206.45608 
Q 1056.97125 211.25608 1061.77125 211.25608 
z
" style="fill:#ffffff;opacity:0.8;stroke:#cccccc;stroke-linejoin:miter;"/>
    </g>
    <g id="text_32">
     <!-- Data -->
     <g style="fill:#262626;" transform="translate(1132.179375 128.39983)scale(0.24 -0.24)">
      <use xlink:href="#ArialMT-44"/>
      <use x="72.216797" xlink:href="#ArialMT-61"/>
      <use x="127.832031" xlink:href="#ArialMT-74"/>
      <use x="155.615234" xlink:href="#ArialMT-61"/>
     </g>
    </g>
    <g id="patch_42">
     <path d="M 1066.57125 162.65608 
L 1114.57125 162.65608 
L 1114.57125 145.85608 
L 1066.57125 145.85608 
z
" style="fill:#7f9dd2;stroke:#000000;stroke-linejoin:miter;"/>
    </g>
    <g id="text_33">
     <!-- Original -->
     <g style="fill:#262626;" transform="translate(1133.77125 162.65608)scale(0.24 -0.24)">
      <use xlink:href="#ArialMT-4f"/>
      <use x="77.783203" xlink:href="#ArialMT-72"/>
      <use x="111.083984" xlink:href="#ArialMT-69"/>
      <use x="133.300781" xlink:href="#ArialMT-67"/>
      <use x="188.916016" xlink:href="#ArialMT-69"/>
      <use x="211.132812" xlink:href="#ArialMT-6e"/>
      <use x="266.748047" xlink:href="#ArialMT-61"/>
      <use x="322.363281" xlink:href="#ArialMT-6c"/>
     </g>
    </g>
    <g id="patch_43">
     <path d="M 1066.57125 196.88608 
L 1114.57125 196.88608 
L 1114.57125 180.08608 
L 1066.57125 180.08608 
z
" style="fill:#d3d3d3;stroke:#000000;stroke-linejoin:miter;"/>
    </g>
    <g id="text_34">
     <!-- Scrambled -->
     <g style="fill:#262626;" transform="translate(1133.77125 196.88608)scale(0.24 -0.24)">
      <use xlink:href="#ArialMT-53"/>
      <use x="66.699219" xlink:href="#ArialMT-63"/>
      <use x="116.699219" xlink:href="#ArialMT-72"/>
      <use x="150" xlink:href="#ArialMT-61"/>
      <use x="205.615234" xlink:href="#ArialMT-6d"/>
      <use x="288.916016" xlink:href="#ArialMT-62"/>
      <use x="344.53125" xlink:href="#ArialMT-6c"/>
      <use x="366.748047" xlink:href="#ArialMT-65"/>
      <use x="422.363281" xlink:href="#ArialMT-64"/>
     </g>
    </g>
   </g>
  </g>
 </g>
 <defs>
  <clipPath id="p09e12cca0f">
   <rect height="214.47716" width="357.686667" x="92.54" y="49.2"/>
  </clipPath>
  <clipPath id="p0c8300e961">
   <rect height="214.47716" width="357.686667" x="502.466667" y="49.2"/>
  </clipPath>
  <clipPath id="pca93b4985e">
   <rect height="214.47716" width="357.686667" x="912.393333" y="49.2"/>
  </clipPath>
 </defs>
</svg>
