<?xml version="1.0" encoding="utf-8" standalone="no"?>
<!DOCTYPE svg PUBLIC "-//W3C//DTD SVG 1.1//EN"
  "http://www.w3.org/Graphics/SVG/1.1/DTD/svg11.dtd">
<svg height="432pt" version="1.1" viewBox="0 0 1296 432" width="1296pt" xmlns="http://www.w3.org/2000/svg" xmlns:xlink="http://www.w3.org/1999/xlink">
 <metadata>
  <rdf:RDF xmlns:cc="http://creativecommons.org/ns#" xmlns:dc="http://purl.org/dc/elements/1.1/" xmlns:rdf="http://www.w3.org/1999/02/22-rdf-syntax-ns#">
   <cc:Work>
    <dc:type rdf:resource="http://purl.org/dc/dcmitype/StillImage"/>
    <dc:date>2023-03-25T17:41:32.808928</dc:date>
    <dc:format>image/svg+xml</dc:format>
    <dc:creator>
     <cc:Agent>
      <dc:title>Matplotlib v3.4.2, https://matplotlib.org/</dc:title>
     </cc:Agent>
    </dc:creator>
   </cc:Work>
  </rdf:RDF>
 </metadata>
 <defs>
  <style type="text/css">*{stroke-linecap:butt;stroke-linejoin:round;}</style>
 </defs>
 <g id="figure_1">
  <g id="patch_1">
   <path d="M 0 432 
L 1296 432 
L 1296 0 
L 0 0 
z
" style="fill:#ffffff;"/>
  </g>
  <g id="axes_1">
   <g id="patch_2">
    <path d="M 64.91 334.933737 
L 445.726667 334.933737 
L 445.726667 34.8 
L 64.91 34.8 
z
" style="fill:#ffffff;"/>
   </g>
   <g id="matplotlib.axis_1">
    <g id="xtick_1">
     <g id="text_1">
      <!-- r2 -->
      <g style="fill:#262626;" transform="translate(105.399583 353.386237)scale(0.16 -0.16)">
       <defs>
        <path d="M 416 0 
L 416 3319 
L 922 3319 
L 922 2816 
Q 1116 3169 1280 3281 
Q 1444 3394 1641 3394 
Q 1925 3394 2219 3213 
L 2025 2691 
Q 1819 2813 1613 2813 
Q 1428 2813 1281 2702 
Q 1134 2591 1072 2394 
Q 978 2094 978 1738 
L 978 0 
L 416 0 
z
" id="ArialMT-72" transform="scale(0.015625)"/>
        <path d="M 3222 541 
L 3222 0 
L 194 0 
Q 188 203 259 391 
Q 375 700 629 1000 
Q 884 1300 1366 1694 
Q 2113 2306 2375 2664 
Q 2638 3022 2638 3341 
Q 2638 3675 2398 3904 
Q 2159 4134 1775 4134 
Q 1369 4134 1125 3890 
Q 881 3647 878 3216 
L 300 3275 
Q 359 3922 746 4261 
Q 1134 4600 1788 4600 
Q 2447 4600 2831 4234 
Q 3216 3869 3216 3328 
Q 3216 3053 3103 2787 
Q 2991 2522 2730 2228 
Q 2469 1934 1863 1422 
Q 1356 997 1212 845 
Q 1069 694 975 541 
L 3222 541 
z
" id="ArialMT-32" transform="scale(0.015625)"/>
       </defs>
       <use xlink:href="#ArialMT-72"/>
       <use x="33.300781" xlink:href="#ArialMT-32"/>
      </g>
     </g>
    </g>
    <g id="xtick_2">
     <g id="text_2">
      <!-- pearson -->
      <g style="fill:#262626;" transform="translate(178.80875 353.386237)scale(0.16 -0.16)">
       <defs>
        <path d="M 422 -1272 
L 422 3319 
L 934 3319 
L 934 2888 
Q 1116 3141 1344 3267 
Q 1572 3394 1897 3394 
Q 2322 3394 2647 3175 
Q 2972 2956 3137 2557 
Q 3303 2159 3303 1684 
Q 3303 1175 3120 767 
Q 2938 359 2589 142 
Q 2241 -75 1856 -75 
Q 1575 -75 1351 44 
Q 1128 163 984 344 
L 984 -1272 
L 422 -1272 
z
M 931 1641 
Q 931 1000 1190 694 
Q 1450 388 1819 388 
Q 2194 388 2461 705 
Q 2728 1022 2728 1688 
Q 2728 2322 2467 2637 
Q 2206 2953 1844 2953 
Q 1484 2953 1207 2617 
Q 931 2281 931 1641 
z
" id="ArialMT-70" transform="scale(0.015625)"/>
        <path d="M 2694 1069 
L 3275 997 
Q 3138 488 2766 206 
Q 2394 -75 1816 -75 
Q 1088 -75 661 373 
Q 234 822 234 1631 
Q 234 2469 665 2931 
Q 1097 3394 1784 3394 
Q 2450 3394 2872 2941 
Q 3294 2488 3294 1666 
Q 3294 1616 3291 1516 
L 816 1516 
Q 847 969 1125 678 
Q 1403 388 1819 388 
Q 2128 388 2347 550 
Q 2566 713 2694 1069 
z
M 847 1978 
L 2700 1978 
Q 2663 2397 2488 2606 
Q 2219 2931 1791 2931 
Q 1403 2931 1139 2672 
Q 875 2413 847 1978 
z
" id="ArialMT-65" transform="scale(0.015625)"/>
        <path d="M 2588 409 
Q 2275 144 1986 34 
Q 1697 -75 1366 -75 
Q 819 -75 525 192 
Q 231 459 231 875 
Q 231 1119 342 1320 
Q 453 1522 633 1644 
Q 813 1766 1038 1828 
Q 1203 1872 1538 1913 
Q 2219 1994 2541 2106 
Q 2544 2222 2544 2253 
Q 2544 2597 2384 2738 
Q 2169 2928 1744 2928 
Q 1347 2928 1158 2789 
Q 969 2650 878 2297 
L 328 2372 
Q 403 2725 575 2942 
Q 747 3159 1072 3276 
Q 1397 3394 1825 3394 
Q 2250 3394 2515 3294 
Q 2781 3194 2906 3042 
Q 3031 2891 3081 2659 
Q 3109 2516 3109 2141 
L 3109 1391 
Q 3109 606 3145 398 
Q 3181 191 3288 0 
L 2700 0 
Q 2613 175 2588 409 
z
M 2541 1666 
Q 2234 1541 1622 1453 
Q 1275 1403 1131 1340 
Q 988 1278 909 1158 
Q 831 1038 831 891 
Q 831 666 1001 516 
Q 1172 366 1500 366 
Q 1825 366 2078 508 
Q 2331 650 2450 897 
Q 2541 1088 2541 1459 
L 2541 1666 
z
" id="ArialMT-61" transform="scale(0.015625)"/>
        <path d="M 197 991 
L 753 1078 
Q 800 744 1014 566 
Q 1228 388 1613 388 
Q 2000 388 2187 545 
Q 2375 703 2375 916 
Q 2375 1106 2209 1216 
Q 2094 1291 1634 1406 
Q 1016 1563 777 1677 
Q 538 1791 414 1992 
Q 291 2194 291 2438 
Q 291 2659 392 2848 
Q 494 3038 669 3163 
Q 800 3259 1026 3326 
Q 1253 3394 1513 3394 
Q 1903 3394 2198 3281 
Q 2494 3169 2634 2976 
Q 2775 2784 2828 2463 
L 2278 2388 
Q 2241 2644 2061 2787 
Q 1881 2931 1553 2931 
Q 1166 2931 1000 2803 
Q 834 2675 834 2503 
Q 834 2394 903 2306 
Q 972 2216 1119 2156 
Q 1203 2125 1616 2013 
Q 2213 1853 2448 1751 
Q 2684 1650 2818 1456 
Q 2953 1263 2953 975 
Q 2953 694 2789 445 
Q 2625 197 2315 61 
Q 2006 -75 1616 -75 
Q 969 -75 630 194 
Q 291 463 197 991 
z
" id="ArialMT-73" transform="scale(0.015625)"/>
        <path d="M 213 1659 
Q 213 2581 725 3025 
Q 1153 3394 1769 3394 
Q 2453 3394 2887 2945 
Q 3322 2497 3322 1706 
Q 3322 1066 3130 698 
Q 2938 331 2570 128 
Q 2203 -75 1769 -75 
Q 1072 -75 642 372 
Q 213 819 213 1659 
z
M 791 1659 
Q 791 1022 1069 705 
Q 1347 388 1769 388 
Q 2188 388 2466 706 
Q 2744 1025 2744 1678 
Q 2744 2294 2464 2611 
Q 2184 2928 1769 2928 
Q 1347 2928 1069 2612 
Q 791 2297 791 1659 
z
" id="ArialMT-6f" transform="scale(0.015625)"/>
        <path d="M 422 0 
L 422 3319 
L 928 3319 
L 928 2847 
Q 1294 3394 1984 3394 
Q 2284 3394 2536 3286 
Q 2788 3178 2913 3003 
Q 3038 2828 3088 2588 
Q 3119 2431 3119 2041 
L 3119 0 
L 2556 0 
L 2556 2019 
Q 2556 2363 2490 2533 
Q 2425 2703 2258 2804 
Q 2091 2906 1866 2906 
Q 1506 2906 1245 2678 
Q 984 2450 984 1813 
L 984 0 
L 422 0 
z
" id="ArialMT-6e" transform="scale(0.015625)"/>
       </defs>
       <use xlink:href="#ArialMT-70"/>
       <use x="55.615234" xlink:href="#ArialMT-65"/>
       <use x="111.230469" xlink:href="#ArialMT-61"/>
       <use x="166.845703" xlink:href="#ArialMT-72"/>
       <use x="200.146484" xlink:href="#ArialMT-73"/>
       <use x="250.146484" xlink:href="#ArialMT-6f"/>
       <use x="305.761719" xlink:href="#ArialMT-6e"/>
      </g>
     </g>
    </g>
    <g id="xtick_3">
     <g id="text_3">
      <!-- spearman -->
      <g style="fill:#262626;" transform="translate(267.349167 353.386237)scale(0.16 -0.16)">
       <defs>
        <path d="M 422 0 
L 422 3319 
L 925 3319 
L 925 2853 
Q 1081 3097 1340 3245 
Q 1600 3394 1931 3394 
Q 2300 3394 2536 3241 
Q 2772 3088 2869 2813 
Q 3263 3394 3894 3394 
Q 4388 3394 4653 3120 
Q 4919 2847 4919 2278 
L 4919 0 
L 4359 0 
L 4359 2091 
Q 4359 2428 4304 2576 
Q 4250 2725 4106 2815 
Q 3963 2906 3769 2906 
Q 3419 2906 3187 2673 
Q 2956 2441 2956 1928 
L 2956 0 
L 2394 0 
L 2394 2156 
Q 2394 2531 2256 2718 
Q 2119 2906 1806 2906 
Q 1569 2906 1367 2781 
Q 1166 2656 1075 2415 
Q 984 2175 984 1722 
L 984 0 
L 422 0 
z
" id="ArialMT-6d" transform="scale(0.015625)"/>
       </defs>
       <use xlink:href="#ArialMT-73"/>
       <use x="50" xlink:href="#ArialMT-70"/>
       <use x="105.615234" xlink:href="#ArialMT-65"/>
       <use x="161.230469" xlink:href="#ArialMT-61"/>
       <use x="216.845703" xlink:href="#ArialMT-72"/>
       <use x="250.146484" xlink:href="#ArialMT-6d"/>
       <use x="333.447266" xlink:href="#ArialMT-61"/>
       <use x="389.0625" xlink:href="#ArialMT-6e"/>
      </g>
     </g>
    </g>
    <g id="xtick_4">
     <g id="text_4">
      <!-- MAE -->
      <g style="fill:#262626;" transform="translate(380.788333 353.386237)scale(0.16 -0.16)">
       <defs>
        <path d="M 475 0 
L 475 4581 
L 1388 4581 
L 2472 1338 
Q 2622 884 2691 659 
Q 2769 909 2934 1394 
L 4031 4581 
L 4847 4581 
L 4847 0 
L 4263 0 
L 4263 3834 
L 2931 0 
L 2384 0 
L 1059 3900 
L 1059 0 
L 475 0 
z
" id="ArialMT-4d" transform="scale(0.015625)"/>
        <path d="M -9 0 
L 1750 4581 
L 2403 4581 
L 4278 0 
L 3588 0 
L 3053 1388 
L 1138 1388 
L 634 0 
L -9 0 
z
M 1313 1881 
L 2866 1881 
L 2388 3150 
Q 2169 3728 2063 4100 
Q 1975 3659 1816 3225 
L 1313 1881 
z
" id="ArialMT-41" transform="scale(0.015625)"/>
        <path d="M 506 0 
L 506 4581 
L 3819 4581 
L 3819 4041 
L 1113 4041 
L 1113 2638 
L 3647 2638 
L 3647 2100 
L 1113 2100 
L 1113 541 
L 3925 541 
L 3925 0 
L 506 0 
z
" id="ArialMT-45" transform="scale(0.015625)"/>
       </defs>
       <use xlink:href="#ArialMT-4d"/>
       <use x="83.300781" xlink:href="#ArialMT-41"/>
       <use x="150" xlink:href="#ArialMT-45"/>
      </g>
     </g>
    </g>
    <g id="text_5">
     <!-- Metric -->
     <g style="fill:#262626;" transform="translate(233.542083 372.018737)scale(0.16 -0.16)">
      <defs>
       <path d="M 1650 503 
L 1731 6 
Q 1494 -44 1306 -44 
Q 1000 -44 831 53 
Q 663 150 594 308 
Q 525 466 525 972 
L 525 2881 
L 113 2881 
L 113 3319 
L 525 3319 
L 525 4141 
L 1084 4478 
L 1084 3319 
L 1650 3319 
L 1650 2881 
L 1084 2881 
L 1084 941 
Q 1084 700 1114 631 
Q 1144 563 1211 522 
Q 1278 481 1403 481 
Q 1497 481 1650 503 
z
" id="ArialMT-74" transform="scale(0.015625)"/>
       <path d="M 425 3934 
L 425 4581 
L 988 4581 
L 988 3934 
L 425 3934 
z
M 425 0 
L 425 3319 
L 988 3319 
L 988 0 
L 425 0 
z
" id="ArialMT-69" transform="scale(0.015625)"/>
       <path d="M 2588 1216 
L 3141 1144 
Q 3050 572 2676 248 
Q 2303 -75 1759 -75 
Q 1078 -75 664 370 
Q 250 816 250 1647 
Q 250 2184 428 2587 
Q 606 2991 970 3192 
Q 1334 3394 1763 3394 
Q 2303 3394 2647 3120 
Q 2991 2847 3088 2344 
L 2541 2259 
Q 2463 2594 2264 2762 
Q 2066 2931 1784 2931 
Q 1359 2931 1093 2626 
Q 828 2322 828 1663 
Q 828 994 1084 691 
Q 1341 388 1753 388 
Q 2084 388 2306 591 
Q 2528 794 2588 1216 
z
" id="ArialMT-63" transform="scale(0.015625)"/>
      </defs>
      <use xlink:href="#ArialMT-4d"/>
      <use x="83.300781" xlink:href="#ArialMT-65"/>
      <use x="138.916016" xlink:href="#ArialMT-74"/>
      <use x="166.699219" xlink:href="#ArialMT-72"/>
      <use x="200" xlink:href="#ArialMT-69"/>
      <use x="222.216797" xlink:href="#ArialMT-63"/>
     </g>
    </g>
   </g>
   <g id="matplotlib.axis_2">
    <g id="ytick_1">
     <g id="line2d_1">
      <path clip-path="url(#pedce058097)" d="M 64.91 334.933737 
L 445.726667 334.933737 
" style="fill:none;stroke:#cccccc;stroke-linecap:round;stroke-width:0.8;"/>
     </g>
     <g id="text_6">
      <!-- 0.0 -->
      <g style="fill:#262626;" transform="translate(35.67 340.659987)scale(0.16 -0.16)">
       <defs>
        <path d="M 266 2259 
Q 266 3072 433 3567 
Q 600 4063 929 4331 
Q 1259 4600 1759 4600 
Q 2128 4600 2406 4451 
Q 2684 4303 2865 4023 
Q 3047 3744 3150 3342 
Q 3253 2941 3253 2259 
Q 3253 1453 3087 958 
Q 2922 463 2592 192 
Q 2263 -78 1759 -78 
Q 1097 -78 719 397 
Q 266 969 266 2259 
z
M 844 2259 
Q 844 1131 1108 757 
Q 1372 384 1759 384 
Q 2147 384 2411 759 
Q 2675 1134 2675 2259 
Q 2675 3391 2411 3762 
Q 2147 4134 1753 4134 
Q 1366 4134 1134 3806 
Q 844 3388 844 2259 
z
" id="ArialMT-30" transform="scale(0.015625)"/>
        <path d="M 581 0 
L 581 641 
L 1222 641 
L 1222 0 
L 581 0 
z
" id="ArialMT-2e" transform="scale(0.015625)"/>
       </defs>
       <use xlink:href="#ArialMT-30"/>
       <use x="55.615234" xlink:href="#ArialMT-2e"/>
       <use x="83.398438" xlink:href="#ArialMT-30"/>
      </g>
     </g>
    </g>
    <g id="ytick_2">
     <g id="line2d_2">
      <path clip-path="url(#pedce058097)" d="M 64.91 280.363967 
L 445.726667 280.363967 
" style="fill:none;stroke:#cccccc;stroke-linecap:round;stroke-width:0.8;"/>
     </g>
     <g id="text_7">
      <!-- 0.2 -->
      <g style="fill:#262626;" transform="translate(35.67 286.090217)scale(0.16 -0.16)">
       <use xlink:href="#ArialMT-30"/>
       <use x="55.615234" xlink:href="#ArialMT-2e"/>
       <use x="83.398438" xlink:href="#ArialMT-32"/>
      </g>
     </g>
    </g>
    <g id="ytick_3">
     <g id="line2d_3">
      <path clip-path="url(#pedce058097)" d="M 64.91 225.794196 
L 445.726667 225.794196 
" style="fill:none;stroke:#cccccc;stroke-linecap:round;stroke-width:0.8;"/>
     </g>
     <g id="text_8">
      <!-- 0.4 -->
      <g style="fill:#262626;" transform="translate(35.67 231.520446)scale(0.16 -0.16)">
       <defs>
        <path d="M 2069 0 
L 2069 1097 
L 81 1097 
L 81 1613 
L 2172 4581 
L 2631 4581 
L 2631 1613 
L 3250 1613 
L 3250 1097 
L 2631 1097 
L 2631 0 
L 2069 0 
z
M 2069 1613 
L 2069 3678 
L 634 1613 
L 2069 1613 
z
" id="ArialMT-34" transform="scale(0.015625)"/>
       </defs>
       <use xlink:href="#ArialMT-30"/>
       <use x="55.615234" xlink:href="#ArialMT-2e"/>
       <use x="83.398438" xlink:href="#ArialMT-34"/>
      </g>
     </g>
    </g>
    <g id="ytick_4">
     <g id="line2d_4">
      <path clip-path="url(#pedce058097)" d="M 64.91 171.224426 
L 445.726667 171.224426 
" style="fill:none;stroke:#cccccc;stroke-linecap:round;stroke-width:0.8;"/>
     </g>
     <g id="text_9">
      <!-- 0.6 -->
      <g style="fill:#262626;" transform="translate(35.67 176.950676)scale(0.16 -0.16)">
       <defs>
        <path d="M 3184 3459 
L 2625 3416 
Q 2550 3747 2413 3897 
Q 2184 4138 1850 4138 
Q 1581 4138 1378 3988 
Q 1113 3794 959 3422 
Q 806 3050 800 2363 
Q 1003 2672 1297 2822 
Q 1591 2972 1913 2972 
Q 2475 2972 2870 2558 
Q 3266 2144 3266 1488 
Q 3266 1056 3080 686 
Q 2894 316 2569 119 
Q 2244 -78 1831 -78 
Q 1128 -78 684 439 
Q 241 956 241 2144 
Q 241 3472 731 4075 
Q 1159 4600 1884 4600 
Q 2425 4600 2770 4297 
Q 3116 3994 3184 3459 
z
M 888 1484 
Q 888 1194 1011 928 
Q 1134 663 1356 523 
Q 1578 384 1822 384 
Q 2178 384 2434 671 
Q 2691 959 2691 1453 
Q 2691 1928 2437 2201 
Q 2184 2475 1800 2475 
Q 1419 2475 1153 2201 
Q 888 1928 888 1484 
z
" id="ArialMT-36" transform="scale(0.015625)"/>
       </defs>
       <use xlink:href="#ArialMT-30"/>
       <use x="55.615234" xlink:href="#ArialMT-2e"/>
       <use x="83.398438" xlink:href="#ArialMT-36"/>
      </g>
     </g>
    </g>
    <g id="ytick_5">
     <g id="line2d_5">
      <path clip-path="url(#pedce058097)" d="M 64.91 116.654656 
L 445.726667 116.654656 
" style="fill:none;stroke:#cccccc;stroke-linecap:round;stroke-width:0.8;"/>
     </g>
     <g id="text_10">
      <!-- 0.8 -->
      <g style="fill:#262626;" transform="translate(35.67 122.380906)scale(0.16 -0.16)">
       <defs>
        <path d="M 1131 2484 
Q 781 2613 612 2850 
Q 444 3088 444 3419 
Q 444 3919 803 4259 
Q 1163 4600 1759 4600 
Q 2359 4600 2725 4251 
Q 3091 3903 3091 3403 
Q 3091 3084 2923 2848 
Q 2756 2613 2416 2484 
Q 2838 2347 3058 2040 
Q 3278 1734 3278 1309 
Q 3278 722 2862 322 
Q 2447 -78 1769 -78 
Q 1091 -78 675 323 
Q 259 725 259 1325 
Q 259 1772 486 2073 
Q 713 2375 1131 2484 
z
M 1019 3438 
Q 1019 3113 1228 2906 
Q 1438 2700 1772 2700 
Q 2097 2700 2305 2904 
Q 2513 3109 2513 3406 
Q 2513 3716 2298 3927 
Q 2084 4138 1766 4138 
Q 1444 4138 1231 3931 
Q 1019 3725 1019 3438 
z
M 838 1322 
Q 838 1081 952 856 
Q 1066 631 1291 507 
Q 1516 384 1775 384 
Q 2178 384 2440 643 
Q 2703 903 2703 1303 
Q 2703 1709 2433 1975 
Q 2163 2241 1756 2241 
Q 1359 2241 1098 1978 
Q 838 1716 838 1322 
z
" id="ArialMT-38" transform="scale(0.015625)"/>
       </defs>
       <use xlink:href="#ArialMT-30"/>
       <use x="55.615234" xlink:href="#ArialMT-2e"/>
       <use x="83.398438" xlink:href="#ArialMT-38"/>
      </g>
     </g>
    </g>
    <g id="ytick_6">
     <g id="line2d_6">
      <path clip-path="url(#pedce058097)" d="M 64.91 62.084885 
L 445.726667 62.084885 
" style="fill:none;stroke:#cccccc;stroke-linecap:round;stroke-width:0.8;"/>
     </g>
     <g id="text_11">
      <!-- 1.0 -->
      <g style="fill:#262626;" transform="translate(35.67 67.811135)scale(0.16 -0.16)">
       <defs>
        <path d="M 2384 0 
L 1822 0 
L 1822 3584 
Q 1619 3391 1289 3197 
Q 959 3003 697 2906 
L 697 3450 
Q 1169 3672 1522 3987 
Q 1875 4303 2022 4600 
L 2384 4600 
L 2384 0 
z
" id="ArialMT-31" transform="scale(0.015625)"/>
       </defs>
       <use xlink:href="#ArialMT-31"/>
       <use x="55.615234" xlink:href="#ArialMT-2e"/>
       <use x="83.398438" xlink:href="#ArialMT-30"/>
      </g>
     </g>
    </g>
    <g id="text_12">
     <!-- Value -->
     <g style="fill:#262626;" transform="translate(28.49 204.736868)rotate(-90)scale(0.16 -0.16)">
      <defs>
       <path d="M 1803 0 
L 28 4581 
L 684 4581 
L 1875 1253 
Q 2019 853 2116 503 
Q 2222 878 2363 1253 
L 3600 4581 
L 4219 4581 
L 2425 0 
L 1803 0 
z
" id="ArialMT-56" transform="scale(0.015625)"/>
       <path d="M 409 0 
L 409 4581 
L 972 4581 
L 972 0 
L 409 0 
z
" id="ArialMT-6c" transform="scale(0.015625)"/>
       <path d="M 2597 0 
L 2597 488 
Q 2209 -75 1544 -75 
Q 1250 -75 995 37 
Q 741 150 617 320 
Q 494 491 444 738 
Q 409 903 409 1263 
L 409 3319 
L 972 3319 
L 972 1478 
Q 972 1038 1006 884 
Q 1059 663 1231 536 
Q 1403 409 1656 409 
Q 1909 409 2131 539 
Q 2353 669 2445 892 
Q 2538 1116 2538 1541 
L 2538 3319 
L 3100 3319 
L 3100 0 
L 2597 0 
z
" id="ArialMT-75" transform="scale(0.015625)"/>
      </defs>
      <use xlink:href="#ArialMT-56"/>
      <use x="59.324219" xlink:href="#ArialMT-61"/>
      <use x="114.939453" xlink:href="#ArialMT-6c"/>
      <use x="137.15625" xlink:href="#ArialMT-75"/>
      <use x="192.771484" xlink:href="#ArialMT-65"/>
     </g>
    </g>
   </g>
   <g id="PathCollection_1"/>
   <g id="PathCollection_2"/>
   <g id="patch_3">
    <path clip-path="url(#pedce058097)" d="M 74.430417 334.933737 
L 112.512083 334.933737 
L 112.512083 149.272168 
L 74.430417 149.272168 
z
" style="fill:#7f9dd2;stroke:#000000;stroke-linejoin:miter;"/>
   </g>
   <g id="patch_4">
    <path clip-path="url(#pedce058097)" d="M 169.634583 334.933737 
L 207.71625 334.933737 
L 207.71625 109.863012 
L 169.634583 109.863012 
z
" style="fill:#7f9dd2;stroke:#000000;stroke-linejoin:miter;"/>
   </g>
   <g id="patch_5">
    <path clip-path="url(#pedce058097)" d="M 264.83875 334.933737 
L 302.920417 334.933737 
L 302.920417 109.715906 
L 264.83875 109.715906 
z
" style="fill:#7f9dd2;stroke:#000000;stroke-linejoin:miter;"/>
   </g>
   <g id="patch_6">
    <path clip-path="url(#pedce058097)" d="M 360.042917 334.933737 
L 398.124583 334.933737 
L 398.124583 298.228852 
L 360.042917 298.228852 
z
" style="fill:#7f9dd2;stroke:#000000;stroke-linejoin:miter;"/>
   </g>
   <g id="patch_7">
    <path clip-path="url(#pedce058097)" d="M 112.512083 334.933737 
L 150.59375 334.933737 
L 150.59375 305.745333 
L 112.512083 305.745333 
z
" style="fill:#d3d3d3;stroke:#000000;stroke-linejoin:miter;"/>
   </g>
   <g id="patch_8">
    <path clip-path="url(#pedce058097)" d="M 207.71625 334.933737 
L 245.797917 334.933737 
L 245.797917 245.697363 
L 207.71625 245.697363 
z
" style="fill:#d3d3d3;stroke:#000000;stroke-linejoin:miter;"/>
   </g>
   <g id="patch_9">
    <path clip-path="url(#pedce058097)" d="M 302.920417 334.933737 
L 341.002083 334.933737 
L 341.002083 248.883165 
L 302.920417 248.883165 
z
" style="fill:#d3d3d3;stroke:#000000;stroke-linejoin:miter;"/>
   </g>
   <g id="patch_10">
    <path clip-path="url(#pedce058097)" d="M 398.124583 334.933737 
L 436.20625 334.933737 
L 436.20625 266.886809 
L 398.124583 266.886809 
z
" style="fill:#d3d3d3;stroke:#000000;stroke-linejoin:miter;"/>
   </g>
   <g id="line2d_7">
    <path clip-path="url(#pedce058097)" d="M 93.47125 150.666512 
L 93.47125 147.877824 
" style="fill:none;stroke:#000000;stroke-linecap:round;stroke-width:1.5;"/>
   </g>
   <g id="line2d_8">
    <path clip-path="url(#pedce058097)" d="M 83.950833 150.666512 
L 102.991667 150.666512 
" style="fill:none;stroke:#000000;stroke-linecap:round;stroke-width:1.5;"/>
   </g>
   <g id="line2d_9">
    <path clip-path="url(#pedce058097)" d="M 83.950833 147.877824 
L 102.991667 147.877824 
" style="fill:none;stroke:#000000;stroke-linecap:round;stroke-width:1.5;"/>
   </g>
   <g id="line2d_10">
    <path clip-path="url(#pedce058097)" d="M 188.675417 110.708359 
L 188.675417 109.017665 
" style="fill:none;stroke:#000000;stroke-linecap:round;stroke-width:1.5;"/>
   </g>
   <g id="line2d_11">
    <path clip-path="url(#pedce058097)" d="M 179.155 110.708359 
L 198.195833 110.708359 
" style="fill:none;stroke:#000000;stroke-linecap:round;stroke-width:1.5;"/>
   </g>
   <g id="line2d_12">
    <path clip-path="url(#pedce058097)" d="M 179.155 109.017665 
L 198.195833 109.017665 
" style="fill:none;stroke:#000000;stroke-linecap:round;stroke-width:1.5;"/>
   </g>
   <g id="line2d_13">
    <path clip-path="url(#pedce058097)" d="M 283.879583 110.458442 
L 283.879583 108.973371 
" style="fill:none;stroke:#000000;stroke-linecap:round;stroke-width:1.5;"/>
   </g>
   <g id="line2d_14">
    <path clip-path="url(#pedce058097)" d="M 274.359167 110.458442 
L 293.4 110.458442 
" style="fill:none;stroke:#000000;stroke-linecap:round;stroke-width:1.5;"/>
   </g>
   <g id="line2d_15">
    <path clip-path="url(#pedce058097)" d="M 274.359167 108.973371 
L 293.4 108.973371 
" style="fill:none;stroke:#000000;stroke-linecap:round;stroke-width:1.5;"/>
   </g>
   <g id="line2d_16">
    <path clip-path="url(#pedce058097)" d="M 379.08375 298.574543 
L 379.08375 297.883162 
" style="fill:none;stroke:#000000;stroke-linecap:round;stroke-width:1.5;"/>
   </g>
   <g id="line2d_17">
    <path clip-path="url(#pedce058097)" d="M 369.563333 298.574543 
L 388.604167 298.574543 
" style="fill:none;stroke:#000000;stroke-linecap:round;stroke-width:1.5;"/>
   </g>
   <g id="line2d_18">
    <path clip-path="url(#pedce058097)" d="M 369.563333 297.883162 
L 388.604167 297.883162 
" style="fill:none;stroke:#000000;stroke-linecap:round;stroke-width:1.5;"/>
   </g>
   <g id="line2d_19">
    <path clip-path="url(#pedce058097)" d="M 131.552917 306.363328 
L 131.552917 305.127337 
" style="fill:none;stroke:#000000;stroke-linecap:round;stroke-width:1.5;"/>
   </g>
   <g id="line2d_20">
    <path clip-path="url(#pedce058097)" d="M 122.0325 306.363328 
L 141.073333 306.363328 
" style="fill:none;stroke:#000000;stroke-linecap:round;stroke-width:1.5;"/>
   </g>
   <g id="line2d_21">
    <path clip-path="url(#pedce058097)" d="M 122.0325 305.127337 
L 141.073333 305.127337 
" style="fill:none;stroke:#000000;stroke-linecap:round;stroke-width:1.5;"/>
   </g>
   <g id="line2d_22">
    <path clip-path="url(#pedce058097)" d="M 226.757083 246.642025 
L 226.757083 244.752701 
" style="fill:none;stroke:#000000;stroke-linecap:round;stroke-width:1.5;"/>
   </g>
   <g id="line2d_23">
    <path clip-path="url(#pedce058097)" d="M 217.236667 246.642025 
L 236.2775 246.642025 
" style="fill:none;stroke:#000000;stroke-linecap:round;stroke-width:1.5;"/>
   </g>
   <g id="line2d_24">
    <path clip-path="url(#pedce058097)" d="M 217.236667 244.752701 
L 236.2775 244.752701 
" style="fill:none;stroke:#000000;stroke-linecap:round;stroke-width:1.5;"/>
   </g>
   <g id="line2d_25">
    <path clip-path="url(#pedce058097)" d="M 321.96125 249.915342 
L 321.96125 247.850988 
" style="fill:none;stroke:#000000;stroke-linecap:round;stroke-width:1.5;"/>
   </g>
   <g id="line2d_26">
    <path clip-path="url(#pedce058097)" d="M 312.440833 249.915342 
L 331.481667 249.915342 
" style="fill:none;stroke:#000000;stroke-linecap:round;stroke-width:1.5;"/>
   </g>
   <g id="line2d_27">
    <path clip-path="url(#pedce058097)" d="M 312.440833 247.850988 
L 331.481667 247.850988 
" style="fill:none;stroke:#000000;stroke-linecap:round;stroke-width:1.5;"/>
   </g>
   <g id="line2d_28">
    <path clip-path="url(#pedce058097)" d="M 417.165417 266.993242 
L 417.165417 266.780377 
" style="fill:none;stroke:#000000;stroke-linecap:round;stroke-width:1.5;"/>
   </g>
   <g id="line2d_29">
    <path clip-path="url(#pedce058097)" d="M 407.645 266.993242 
L 426.685833 266.993242 
" style="fill:none;stroke:#000000;stroke-linecap:round;stroke-width:1.5;"/>
   </g>
   <g id="line2d_30">
    <path clip-path="url(#pedce058097)" d="M 407.645 266.780377 
L 426.685833 266.780377 
" style="fill:none;stroke:#000000;stroke-linecap:round;stroke-width:1.5;"/>
   </g>
   <g id="patch_11">
    <path d="M 64.91 334.933737 
L 64.91 34.8 
" style="fill:none;stroke:#cccccc;stroke-linecap:square;stroke-linejoin:miter;stroke-width:0.8;"/>
   </g>
   <g id="patch_12">
    <path d="M 64.91 334.933737 
L 445.726667 334.933737 
" style="fill:none;stroke:#cccccc;stroke-linecap:square;stroke-linejoin:miter;stroke-width:0.8;"/>
   </g>
   <g id="PathCollection_3">
    <defs>
     <path d="M 0 5 
C 1.326016 5 2.597899 4.473168 3.535534 3.535534 
C 4.473168 2.597899 5 1.326016 5 -0 
C 5 -1.326016 4.473168 -2.597899 3.535534 -3.535534 
C 2.597899 -4.473168 1.326016 -5 0 -5 
C -1.326016 -5 -2.597899 -4.473168 -3.535534 -3.535534 
C -4.473168 -2.597899 -5 -1.326016 -5 0 
C -5 1.326016 -4.473168 2.597899 -3.535534 3.535534 
C -2.597899 4.473168 -1.326016 5 0 5 
z
" id="C0_0_530d634622"/>
    </defs>
    <g clip-path="url(#pedce058097)">
     <use style="fill:#6495ed;stroke:#000000;" x="93.47125" xlink:href="#C0_0_530d634622" y="151.028931"/>
    </g>
    <g clip-path="url(#pedce058097)">
     <use style="fill:#6495ed;stroke:#000000;" x="82.598465" xlink:href="#C0_0_530d634622" y="149.169434"/>
    </g>
    <g clip-path="url(#pedce058097)">
     <use style="fill:#6495ed;stroke:#000000;" x="103.555498" xlink:href="#C0_0_530d634622" y="147.618138"/>
    </g>
   </g>
   <g id="PathCollection_4">
    <defs>
     <path d="M 0 5 
C 1.326016 5 2.597899 4.473168 3.535534 3.535534 
C 4.473168 2.597899 5 1.326016 5 -0 
C 5 -1.326016 4.473168 -2.597899 3.535534 -3.535534 
C 2.597899 -4.473168 1.326016 -5 0 -5 
C -1.326016 -5 -2.597899 -4.473168 -3.535534 -3.535534 
C -4.473168 -2.597899 -5 -1.326016 -5 0 
C -5 1.326016 -4.473168 2.597899 -3.535534 3.535534 
C -2.597899 4.473168 -1.326016 5 0 5 
z
" id="C1_0_713d73bb9e"/>
    </defs>
    <g clip-path="url(#pedce058097)">
     <use style="fill:#d3d3d3;stroke:#000000;" x="131.552917" xlink:href="#C1_0_713d73bb9e" y="306.495481"/>
    </g>
    <g clip-path="url(#pedce058097)">
     <use style="fill:#d3d3d3;stroke:#000000;" x="120.412495" xlink:href="#C1_0_713d73bb9e" y="305.758634"/>
    </g>
    <g clip-path="url(#pedce058097)">
     <use style="fill:#d3d3d3;stroke:#000000;" x="142.533616" xlink:href="#C1_0_713d73bb9e" y="304.981882"/>
    </g>
   </g>
   <g id="PathCollection_5">
    <defs>
     <path d="M 0 5 
C 1.326016 5 2.597899 4.473168 3.535534 3.535534 
C 4.473168 2.597899 5 1.326016 5 -0 
C 5 -1.326016 4.473168 -2.597899 3.535534 -3.535534 
C 2.597899 -4.473168 1.326016 -5 0 -5 
C -1.326016 -5 -2.597899 -4.473168 -3.535534 -3.535534 
C -4.473168 -2.597899 -5 -1.326016 -5 0 
C -5 1.326016 -4.473168 2.597899 -3.535534 3.535534 
C -2.597899 4.473168 -1.326016 5 0 5 
z
" id="C2_0_cb6ac1d7fc"/>
    </defs>
    <g clip-path="url(#pedce058097)">
     <use style="fill:#6495ed;stroke:#000000;" x="188.675417" xlink:href="#C2_0_cb6ac1d7fc" y="110.928794"/>
    </g>
    <g clip-path="url(#pedce058097)">
     <use style="fill:#6495ed;stroke:#000000;" x="177.601702" xlink:href="#C2_0_cb6ac1d7fc" y="109.799162"/>
    </g>
    <g clip-path="url(#pedce058097)">
     <use style="fill:#6495ed;stroke:#000000;" x="199.471927" xlink:href="#C2_0_cb6ac1d7fc" y="108.86108"/>
    </g>
   </g>
   <g id="PathCollection_6">
    <defs>
     <path d="M 0 5 
C 1.326016 5 2.597899 4.473168 3.535534 3.535534 
C 4.473168 2.597899 5 1.326016 5 -0 
C 5 -1.326016 4.473168 -2.597899 3.535534 -3.535534 
C 2.597899 -4.473168 1.326016 -5 0 -5 
C -1.326016 -5 -2.597899 -4.473168 -3.535534 -3.535534 
C -4.473168 -2.597899 -5 -1.326016 -5 0 
C -5 1.326016 -4.473168 2.597899 -3.535534 3.535534 
C -2.597899 4.473168 -1.326016 5 0 5 
z
" id="C3_0_9fcf5e4982"/>
    </defs>
    <g clip-path="url(#pedce058097)">
     <use style="fill:#d3d3d3;stroke:#000000;" x="226.757083" xlink:href="#C3_0_9fcf5e4982" y="246.846589"/>
    </g>
    <g clip-path="url(#pedce058097)">
     <use style="fill:#d3d3d3;stroke:#000000;" x="215.684248" xlink:href="#C3_0_9fcf5e4982" y="245.7127"/>
    </g>
    <g clip-path="url(#pedce058097)">
     <use style="fill:#d3d3d3;stroke:#000000;" x="237.452193" xlink:href="#C3_0_9fcf5e4982" y="244.532801"/>
    </g>
   </g>
   <g id="PathCollection_7">
    <defs>
     <path d="M 0 5 
C 1.326016 5 2.597899 4.473168 3.535534 3.535534 
C 4.473168 2.597899 5 1.326016 5 -0 
C 5 -1.326016 4.473168 -2.597899 3.535534 -3.535534 
C 2.597899 -4.473168 1.326016 -5 0 -5 
C -1.326016 -5 -2.597899 -4.473168 -3.535534 -3.535534 
C -4.473168 -2.597899 -5 -1.326016 -5 0 
C -5 1.326016 -4.473168 2.597899 -3.535534 3.535534 
C -2.597899 4.473168 -1.326016 5 0 5 
z
" id="C4_0_72e138a855"/>
    </defs>
    <g clip-path="url(#pedce058097)">
     <use style="fill:#6495ed;stroke:#000000;" x="283.879583" xlink:href="#C4_0_72e138a855" y="110.647719"/>
    </g>
    <g clip-path="url(#pedce058097)">
     <use style="fill:#6495ed;stroke:#000000;" x="272.776811" xlink:href="#C4_0_72e138a855" y="109.669324"/>
    </g>
    <g clip-path="url(#pedce058097)">
     <use style="fill:#6495ed;stroke:#000000;" x="294.766867" xlink:href="#C4_0_72e138a855" y="108.830676"/>
    </g>
   </g>
   <g id="PathCollection_8">
    <defs>
     <path d="M 0 5 
C 1.326016 5 2.597899 4.473168 3.535534 3.535534 
C 4.473168 2.597899 5 1.326016 5 -0 
C 5 -1.326016 4.473168 -2.597899 3.535534 -3.535534 
C 2.597899 -4.473168 1.326016 -5 0 -5 
C -1.326016 -5 -2.597899 -4.473168 -3.535534 -3.535534 
C -4.473168 -2.597899 -5 -1.326016 -5 0 
C -5 1.326016 -4.473168 2.597899 -3.535534 3.535534 
C -2.597899 4.473168 -1.326016 5 0 5 
z
" id="C5_0_e4c81a9ea6"/>
    </defs>
    <g clip-path="url(#pedce058097)">
     <use style="fill:#d3d3d3;stroke:#000000;" x="321.96125" xlink:href="#C5_0_e4c81a9ea6" y="249.810734"/>
    </g>
    <g clip-path="url(#pedce058097)">
     <use style="fill:#d3d3d3;stroke:#000000;" x="310.787267" xlink:href="#C5_0_e4c81a9ea6" y="249.395494"/>
    </g>
    <g clip-path="url(#pedce058097)">
     <use style="fill:#d3d3d3;stroke:#000000;" x="332.632589" xlink:href="#C5_0_e4c81a9ea6" y="247.443268"/>
    </g>
   </g>
   <g id="PathCollection_9">
    <defs>
     <path d="M 0 5 
C 1.326016 5 2.597899 4.473168 3.535534 3.535534 
C 4.473168 2.597899 5 1.326016 5 -0 
C 5 -1.326016 4.473168 -2.597899 3.535534 -3.535534 
C 2.597899 -4.473168 1.326016 -5 0 -5 
C -1.326016 -5 -2.597899 -4.473168 -3.535534 -3.535534 
C -4.473168 -2.597899 -5 -1.326016 -5 0 
C -5 1.326016 -4.473168 2.597899 -3.535534 3.535534 
C -2.597899 4.473168 -1.326016 5 0 5 
z
" id="C6_0_cd1a0e7136"/>
    </defs>
    <g clip-path="url(#pedce058097)">
     <use style="fill:#6495ed;stroke:#000000;" x="379.08375" xlink:href="#C6_0_cd1a0e7136" y="298.502303"/>
    </g>
    <g clip-path="url(#pedce058097)">
     <use style="fill:#6495ed;stroke:#000000;" x="367.894499" xlink:href="#C6_0_cd1a0e7136" y="298.443084"/>
    </g>
    <g clip-path="url(#pedce058097)">
     <use style="fill:#6495ed;stroke:#000000;" x="390.220871" xlink:href="#C6_0_cd1a0e7136" y="297.74117"/>
    </g>
   </g>
   <g id="PathCollection_10">
    <defs>
     <path d="M 0 5 
C 1.326016 5 2.597899 4.473168 3.535534 3.535534 
C 4.473168 2.597899 5 1.326016 5 -0 
C 5 -1.326016 4.473168 -2.597899 3.535534 -3.535534 
C 2.597899 -4.473168 1.326016 -5 0 -5 
C -1.326016 -5 -2.597899 -4.473168 -3.535534 -3.535534 
C -4.473168 -2.597899 -5 -1.326016 -5 0 
C -5 1.326016 -4.473168 2.597899 -3.535534 3.535534 
C -2.597899 4.473168 -1.326016 5 0 5 
z
" id="C7_0_9b15bb2a35"/>
    </defs>
    <g clip-path="url(#pedce058097)">
     <use style="fill:#d3d3d3;stroke:#000000;" x="417.165417" xlink:href="#C7_0_9b15bb2a35" y="266.981794"/>
    </g>
    <g clip-path="url(#pedce058097)">
     <use style="fill:#d3d3d3;stroke:#000000;" x="405.976004" xlink:href="#C7_0_9b15bb2a35" y="266.940436"/>
    </g>
    <g clip-path="url(#pedce058097)">
     <use style="fill:#d3d3d3;stroke:#000000;" x="428.349623" xlink:href="#C7_0_9b15bb2a35" y="266.738198"/>
    </g>
   </g>
   <g id="text_13">
    <!-- Model = AutoKeras -->
    <g style="fill:#262626;" transform="translate(187.499583 28.8)scale(0.16 -0.16)">
     <defs>
      <path d="M 2575 0 
L 2575 419 
Q 2259 -75 1647 -75 
Q 1250 -75 917 144 
Q 584 363 401 755 
Q 219 1147 219 1656 
Q 219 2153 384 2558 
Q 550 2963 881 3178 
Q 1213 3394 1622 3394 
Q 1922 3394 2156 3267 
Q 2391 3141 2538 2938 
L 2538 4581 
L 3097 4581 
L 3097 0 
L 2575 0 
z
M 797 1656 
Q 797 1019 1065 703 
Q 1334 388 1700 388 
Q 2069 388 2326 689 
Q 2584 991 2584 1609 
Q 2584 2291 2321 2609 
Q 2059 2928 1675 2928 
Q 1300 2928 1048 2622 
Q 797 2316 797 1656 
z
" id="ArialMT-64" transform="scale(0.015625)"/>
      <path id="ArialMT-20" transform="scale(0.015625)"/>
      <path d="M 3381 2694 
L 356 2694 
L 356 3219 
L 3381 3219 
L 3381 2694 
z
M 3381 1303 
L 356 1303 
L 356 1828 
L 3381 1828 
L 3381 1303 
z
" id="ArialMT-3d" transform="scale(0.015625)"/>
      <path d="M 469 0 
L 469 4581 
L 1075 4581 
L 1075 2309 
L 3350 4581 
L 4172 4581 
L 2250 2725 
L 4256 0 
L 3456 0 
L 1825 2319 
L 1075 1588 
L 1075 0 
L 469 0 
z
" id="ArialMT-4b" transform="scale(0.015625)"/>
     </defs>
     <use xlink:href="#ArialMT-4d"/>
     <use x="83.300781" xlink:href="#ArialMT-6f"/>
     <use x="138.916016" xlink:href="#ArialMT-64"/>
     <use x="194.53125" xlink:href="#ArialMT-65"/>
     <use x="250.146484" xlink:href="#ArialMT-6c"/>
     <use x="272.363281" xlink:href="#ArialMT-20"/>
     <use x="300.146484" xlink:href="#ArialMT-3d"/>
     <use x="358.544922" xlink:href="#ArialMT-20"/>
     <use x="380.828125" xlink:href="#ArialMT-41"/>
     <use x="447.527344" xlink:href="#ArialMT-75"/>
     <use x="503.142578" xlink:href="#ArialMT-74"/>
     <use x="530.925781" xlink:href="#ArialMT-6f"/>
     <use x="586.541016" xlink:href="#ArialMT-4b"/>
     <use x="653.240234" xlink:href="#ArialMT-65"/>
     <use x="708.855469" xlink:href="#ArialMT-72"/>
     <use x="742.15625" xlink:href="#ArialMT-61"/>
     <use x="797.771484" xlink:href="#ArialMT-73"/>
    </g>
   </g>
   <g id="legend_1">
    <g id="patch_13">
     <path d="M 306.854167 115.89 
L 434.526667 115.89 
Q 437.726667 115.89 437.726667 112.69 
L 437.726667 46 
Q 437.726667 42.8 434.526667 42.8 
L 306.854167 42.8 
Q 303.654167 42.8 303.654167 46 
L 303.654167 112.69 
Q 303.654167 115.89 306.854167 115.89 
z
" style="fill:#ffffff;opacity:0.8;stroke:#cccccc;stroke-linejoin:miter;"/>
    </g>
    <g id="text_14">
     <!-- Data -->
     <g style="fill:#262626;" transform="translate(353.792917 60.6525)scale(0.16 -0.16)">
      <defs>
       <path d="M 494 0 
L 494 4581 
L 2072 4581 
Q 2606 4581 2888 4516 
Q 3281 4425 3559 4188 
Q 3922 3881 4101 3404 
Q 4281 2928 4281 2316 
Q 4281 1794 4159 1391 
Q 4038 988 3847 723 
Q 3656 459 3429 307 
Q 3203 156 2883 78 
Q 2563 0 2147 0 
L 494 0 
z
M 1100 541 
L 2078 541 
Q 2531 541 2789 625 
Q 3047 709 3200 863 
Q 3416 1078 3536 1442 
Q 3656 1806 3656 2325 
Q 3656 3044 3420 3430 
Q 3184 3816 2847 3947 
Q 2603 4041 2063 4041 
L 1100 4041 
L 1100 541 
z
" id="ArialMT-44" transform="scale(0.015625)"/>
      </defs>
      <use xlink:href="#ArialMT-44"/>
      <use x="72.216797" xlink:href="#ArialMT-61"/>
      <use x="127.832031" xlink:href="#ArialMT-74"/>
      <use x="155.615234" xlink:href="#ArialMT-61"/>
     </g>
    </g>
    <g id="patch_14">
     <path d="M 310.054167 83.49 
L 342.054167 83.49 
L 342.054167 72.29 
L 310.054167 72.29 
z
" style="fill:#7f9dd2;stroke:#000000;stroke-linejoin:miter;"/>
    </g>
    <g id="text_15">
     <!-- Original -->
     <g style="fill:#262626;" transform="translate(354.854167 83.49)scale(0.16 -0.16)">
      <defs>
       <path d="M 309 2231 
Q 309 3372 921 4017 
Q 1534 4663 2503 4663 
Q 3138 4663 3647 4359 
Q 4156 4056 4423 3514 
Q 4691 2972 4691 2284 
Q 4691 1588 4409 1038 
Q 4128 488 3612 205 
Q 3097 -78 2500 -78 
Q 1853 -78 1343 234 
Q 834 547 571 1087 
Q 309 1628 309 2231 
z
M 934 2222 
Q 934 1394 1379 917 
Q 1825 441 2497 441 
Q 3181 441 3623 922 
Q 4066 1403 4066 2288 
Q 4066 2847 3877 3264 
Q 3688 3681 3323 3911 
Q 2959 4141 2506 4141 
Q 1863 4141 1398 3698 
Q 934 3256 934 2222 
z
" id="ArialMT-4f" transform="scale(0.015625)"/>
       <path d="M 319 -275 
L 866 -356 
Q 900 -609 1056 -725 
Q 1266 -881 1628 -881 
Q 2019 -881 2231 -725 
Q 2444 -569 2519 -288 
Q 2563 -116 2559 434 
Q 2191 0 1641 0 
Q 956 0 581 494 
Q 206 988 206 1678 
Q 206 2153 378 2554 
Q 550 2956 876 3175 
Q 1203 3394 1644 3394 
Q 2231 3394 2613 2919 
L 2613 3319 
L 3131 3319 
L 3131 450 
Q 3131 -325 2973 -648 
Q 2816 -972 2473 -1159 
Q 2131 -1347 1631 -1347 
Q 1038 -1347 672 -1080 
Q 306 -813 319 -275 
z
M 784 1719 
Q 784 1066 1043 766 
Q 1303 466 1694 466 
Q 2081 466 2343 764 
Q 2606 1063 2606 1700 
Q 2606 2309 2336 2618 
Q 2066 2928 1684 2928 
Q 1309 2928 1046 2623 
Q 784 2319 784 1719 
z
" id="ArialMT-67" transform="scale(0.015625)"/>
      </defs>
      <use xlink:href="#ArialMT-4f"/>
      <use x="77.783203" xlink:href="#ArialMT-72"/>
      <use x="111.083984" xlink:href="#ArialMT-69"/>
      <use x="133.300781" xlink:href="#ArialMT-67"/>
      <use x="188.916016" xlink:href="#ArialMT-69"/>
      <use x="211.132812" xlink:href="#ArialMT-6e"/>
      <use x="266.748047" xlink:href="#ArialMT-61"/>
      <use x="322.363281" xlink:href="#ArialMT-6c"/>
     </g>
    </g>
    <g id="patch_15">
     <path d="M 310.054167 106.31 
L 342.054167 106.31 
L 342.054167 95.11 
L 310.054167 95.11 
z
" style="fill:#d3d3d3;stroke:#000000;stroke-linejoin:miter;"/>
    </g>
    <g id="text_16">
     <!-- Scrambled -->
     <g style="fill:#262626;" transform="translate(354.854167 106.31)scale(0.16 -0.16)">
      <defs>
       <path d="M 288 1472 
L 859 1522 
Q 900 1178 1048 958 
Q 1197 738 1509 602 
Q 1822 466 2213 466 
Q 2559 466 2825 569 
Q 3091 672 3220 851 
Q 3350 1031 3350 1244 
Q 3350 1459 3225 1620 
Q 3100 1781 2813 1891 
Q 2628 1963 1997 2114 
Q 1366 2266 1113 2400 
Q 784 2572 623 2826 
Q 463 3081 463 3397 
Q 463 3744 659 4045 
Q 856 4347 1234 4503 
Q 1613 4659 2075 4659 
Q 2584 4659 2973 4495 
Q 3363 4331 3572 4012 
Q 3781 3694 3797 3291 
L 3216 3247 
Q 3169 3681 2898 3903 
Q 2628 4125 2100 4125 
Q 1550 4125 1298 3923 
Q 1047 3722 1047 3438 
Q 1047 3191 1225 3031 
Q 1400 2872 2139 2705 
Q 2878 2538 3153 2413 
Q 3553 2228 3743 1945 
Q 3934 1663 3934 1294 
Q 3934 928 3725 604 
Q 3516 281 3123 101 
Q 2731 -78 2241 -78 
Q 1619 -78 1198 103 
Q 778 284 539 648 
Q 300 1013 288 1472 
z
" id="ArialMT-53" transform="scale(0.015625)"/>
       <path d="M 941 0 
L 419 0 
L 419 4581 
L 981 4581 
L 981 2947 
Q 1338 3394 1891 3394 
Q 2197 3394 2470 3270 
Q 2744 3147 2920 2923 
Q 3097 2700 3197 2384 
Q 3297 2069 3297 1709 
Q 3297 856 2875 390 
Q 2453 -75 1863 -75 
Q 1275 -75 941 416 
L 941 0 
z
M 934 1684 
Q 934 1088 1097 822 
Q 1363 388 1816 388 
Q 2184 388 2453 708 
Q 2722 1028 2722 1663 
Q 2722 2313 2464 2622 
Q 2206 2931 1841 2931 
Q 1472 2931 1203 2611 
Q 934 2291 934 1684 
z
" id="ArialMT-62" transform="scale(0.015625)"/>
      </defs>
      <use xlink:href="#ArialMT-53"/>
      <use x="66.699219" xlink:href="#ArialMT-63"/>
      <use x="116.699219" xlink:href="#ArialMT-72"/>
      <use x="150" xlink:href="#ArialMT-61"/>
      <use x="205.615234" xlink:href="#ArialMT-6d"/>
      <use x="288.916016" xlink:href="#ArialMT-62"/>
      <use x="344.53125" xlink:href="#ArialMT-6c"/>
      <use x="366.748047" xlink:href="#ArialMT-65"/>
      <use x="422.363281" xlink:href="#ArialMT-64"/>
     </g>
    </g>
   </g>
  </g>
  <g id="axes_2">
   <g id="patch_16">
    <path d="M 481.406667 334.933737 
L 862.223333 334.933737 
L 862.223333 34.8 
L 481.406667 34.8 
z
" style="fill:#ffffff;"/>
   </g>
   <g id="matplotlib.axis_3">
    <g id="xtick_5">
     <g id="text_17">
      <!-- r2 -->
      <g style="fill:#262626;" transform="translate(521.89625 353.386237)scale(0.16 -0.16)">
       <use xlink:href="#ArialMT-72"/>
       <use x="33.300781" xlink:href="#ArialMT-32"/>
      </g>
     </g>
    </g>
    <g id="xtick_6">
     <g id="text_18">
      <!-- pearson -->
      <g style="fill:#262626;" transform="translate(595.305417 353.386237)scale(0.16 -0.16)">
       <use xlink:href="#ArialMT-70"/>
       <use x="55.615234" xlink:href="#ArialMT-65"/>
       <use x="111.230469" xlink:href="#ArialMT-61"/>
       <use x="166.845703" xlink:href="#ArialMT-72"/>
       <use x="200.146484" xlink:href="#ArialMT-73"/>
       <use x="250.146484" xlink:href="#ArialMT-6f"/>
       <use x="305.761719" xlink:href="#ArialMT-6e"/>
      </g>
     </g>
    </g>
    <g id="xtick_7">
     <g id="text_19">
      <!-- spearman -->
      <g style="fill:#262626;" transform="translate(683.845833 353.386237)scale(0.16 -0.16)">
       <use xlink:href="#ArialMT-73"/>
       <use x="50" xlink:href="#ArialMT-70"/>
       <use x="105.615234" xlink:href="#ArialMT-65"/>
       <use x="161.230469" xlink:href="#ArialMT-61"/>
       <use x="216.845703" xlink:href="#ArialMT-72"/>
       <use x="250.146484" xlink:href="#ArialMT-6d"/>
       <use x="333.447266" xlink:href="#ArialMT-61"/>
       <use x="389.0625" xlink:href="#ArialMT-6e"/>
      </g>
     </g>
    </g>
    <g id="xtick_8">
     <g id="text_20">
      <!-- MAE -->
      <g style="fill:#262626;" transform="translate(797.285 353.386237)scale(0.16 -0.16)">
       <use xlink:href="#ArialMT-4d"/>
       <use x="83.300781" xlink:href="#ArialMT-41"/>
       <use x="150" xlink:href="#ArialMT-45"/>
      </g>
     </g>
    </g>
    <g id="text_21">
     <!-- Metric -->
     <g style="fill:#262626;" transform="translate(650.03875 372.018737)scale(0.16 -0.16)">
      <use xlink:href="#ArialMT-4d"/>
      <use x="83.300781" xlink:href="#ArialMT-65"/>
      <use x="138.916016" xlink:href="#ArialMT-74"/>
      <use x="166.699219" xlink:href="#ArialMT-72"/>
      <use x="200" xlink:href="#ArialMT-69"/>
      <use x="222.216797" xlink:href="#ArialMT-63"/>
     </g>
    </g>
   </g>
   <g id="matplotlib.axis_4">
    <g id="ytick_7">
     <g id="line2d_31">
      <path clip-path="url(#p3f323ff917)" d="M 481.406667 334.933737 
L 862.223333 334.933737 
" style="fill:none;stroke:#cccccc;stroke-linecap:round;stroke-width:0.8;"/>
     </g>
    </g>
    <g id="ytick_8">
     <g id="line2d_32">
      <path clip-path="url(#p3f323ff917)" d="M 481.406667 280.363967 
L 862.223333 280.363967 
" style="fill:none;stroke:#cccccc;stroke-linecap:round;stroke-width:0.8;"/>
     </g>
    </g>
    <g id="ytick_9">
     <g id="line2d_33">
      <path clip-path="url(#p3f323ff917)" d="M 481.406667 225.794196 
L 862.223333 225.794196 
" style="fill:none;stroke:#cccccc;stroke-linecap:round;stroke-width:0.8;"/>
     </g>
    </g>
    <g id="ytick_10">
     <g id="line2d_34">
      <path clip-path="url(#p3f323ff917)" d="M 481.406667 171.224426 
L 862.223333 171.224426 
" style="fill:none;stroke:#cccccc;stroke-linecap:round;stroke-width:0.8;"/>
     </g>
    </g>
    <g id="ytick_11">
     <g id="line2d_35">
      <path clip-path="url(#p3f323ff917)" d="M 481.406667 116.654656 
L 862.223333 116.654656 
" style="fill:none;stroke:#cccccc;stroke-linecap:round;stroke-width:0.8;"/>
     </g>
    </g>
    <g id="ytick_12">
     <g id="line2d_36">
      <path clip-path="url(#p3f323ff917)" d="M 481.406667 62.084885 
L 862.223333 62.084885 
" style="fill:none;stroke:#cccccc;stroke-linecap:round;stroke-width:0.8;"/>
     </g>
    </g>
   </g>
   <g id="PathCollection_11"/>
   <g id="PathCollection_12"/>
   <g id="patch_17">
    <path clip-path="url(#p3f323ff917)" d="M 490.927083 334.933737 
L 529.00875 334.933737 
L 529.00875 149.910121 
L 490.927083 149.910121 
z
" style="fill:#7f9dd2;stroke:#000000;stroke-linejoin:miter;"/>
   </g>
   <g id="patch_18">
    <path clip-path="url(#p3f323ff917)" d="M 586.13125 334.933737 
L 624.212917 334.933737 
L 624.212917 110.323525 
L 586.13125 110.323525 
z
" style="fill:#7f9dd2;stroke:#000000;stroke-linejoin:miter;"/>
   </g>
   <g id="patch_19">
    <path clip-path="url(#p3f323ff917)" d="M 681.335417 334.933737 
L 719.417083 334.933737 
L 719.417083 108.754826 
L 681.335417 108.754826 
z
" style="fill:#7f9dd2;stroke:#000000;stroke-linejoin:miter;"/>
   </g>
   <g id="patch_20">
    <path clip-path="url(#p3f323ff917)" d="M 776.539583 334.933737 
L 814.62125 334.933737 
L 814.62125 297.242299 
L 776.539583 297.242299 
z
" style="fill:#7f9dd2;stroke:#000000;stroke-linejoin:miter;"/>
   </g>
   <g id="patch_21">
    <path clip-path="url(#p3f323ff917)" d="M 529.00875 334.933737 
L 567.090417 334.933737 
L 567.090417 319.699108 
L 529.00875 319.699108 
z
" style="fill:#d3d3d3;stroke:#000000;stroke-linejoin:miter;"/>
   </g>
   <g id="patch_22">
    <path clip-path="url(#p3f323ff917)" d="M 624.212917 334.933737 
L 662.294583 334.933737 
L 662.294583 270.479854 
L 624.212917 270.479854 
z
" style="fill:#d3d3d3;stroke:#000000;stroke-linejoin:miter;"/>
   </g>
   <g id="patch_23">
    <path clip-path="url(#p3f323ff917)" d="M 719.417083 334.933737 
L 757.49875 334.933737 
L 757.49875 269.344425 
L 719.417083 269.344425 
z
" style="fill:#d3d3d3;stroke:#000000;stroke-linejoin:miter;"/>
   </g>
   <g id="patch_24">
    <path clip-path="url(#p3f323ff917)" d="M 814.62125 334.933737 
L 852.702917 334.933737 
L 852.702917 261.464184 
L 814.62125 261.464184 
z
" style="fill:#d3d3d3;stroke:#000000;stroke-linejoin:miter;"/>
   </g>
   <g id="line2d_37">
    <path clip-path="url(#p3f323ff917)" d="M 509.967917 159.424913 
L 509.967917 140.395329 
" style="fill:none;stroke:#000000;stroke-linecap:round;stroke-width:1.5;"/>
   </g>
   <g id="line2d_38">
    <path clip-path="url(#p3f323ff917)" d="M 500.4475 159.424913 
L 519.488333 159.424913 
" style="fill:none;stroke:#000000;stroke-linecap:round;stroke-width:1.5;"/>
   </g>
   <g id="line2d_39">
    <path clip-path="url(#p3f323ff917)" d="M 500.4475 140.395329 
L 519.488333 140.395329 
" style="fill:none;stroke:#000000;stroke-linecap:round;stroke-width:1.5;"/>
   </g>
   <g id="line2d_40">
    <path clip-path="url(#p3f323ff917)" d="M 605.172083 116.131623 
L 605.172083 104.515428 
" style="fill:none;stroke:#000000;stroke-linecap:round;stroke-width:1.5;"/>
   </g>
   <g id="line2d_41">
    <path clip-path="url(#p3f323ff917)" d="M 595.651667 116.131623 
L 614.6925 116.131623 
" style="fill:none;stroke:#000000;stroke-linecap:round;stroke-width:1.5;"/>
   </g>
   <g id="line2d_42">
    <path clip-path="url(#p3f323ff917)" d="M 595.651667 104.515428 
L 614.6925 104.515428 
" style="fill:none;stroke:#000000;stroke-linecap:round;stroke-width:1.5;"/>
   </g>
   <g id="line2d_43">
    <path clip-path="url(#p3f323ff917)" d="M 700.37625 114.343283 
L 700.37625 103.16637 
" style="fill:none;stroke:#000000;stroke-linecap:round;stroke-width:1.5;"/>
   </g>
   <g id="line2d_44">
    <path clip-path="url(#p3f323ff917)" d="M 690.855833 114.343283 
L 709.896667 114.343283 
" style="fill:none;stroke:#000000;stroke-linecap:round;stroke-width:1.5;"/>
   </g>
   <g id="line2d_45">
    <path clip-path="url(#p3f323ff917)" d="M 690.855833 103.16637 
L 709.896667 103.16637 
" style="fill:none;stroke:#000000;stroke-linecap:round;stroke-width:1.5;"/>
   </g>
   <g id="line2d_46">
    <path clip-path="url(#p3f323ff917)" d="M 795.580417 299.305219 
L 795.580417 295.179379 
" style="fill:none;stroke:#000000;stroke-linecap:round;stroke-width:1.5;"/>
   </g>
   <g id="line2d_47">
    <path clip-path="url(#p3f323ff917)" d="M 786.06 299.305219 
L 805.100833 299.305219 
" style="fill:none;stroke:#000000;stroke-linecap:round;stroke-width:1.5;"/>
   </g>
   <g id="line2d_48">
    <path clip-path="url(#p3f323ff917)" d="M 786.06 295.179379 
L 805.100833 295.179379 
" style="fill:none;stroke:#000000;stroke-linecap:round;stroke-width:1.5;"/>
   </g>
   <g id="line2d_49">
    <path clip-path="url(#p3f323ff917)" d="M 548.049583 320.440589 
L 548.049583 318.957626 
" style="fill:none;stroke:#000000;stroke-linecap:round;stroke-width:1.5;"/>
   </g>
   <g id="line2d_50">
    <path clip-path="url(#p3f323ff917)" d="M 538.529167 320.440589 
L 557.57 320.440589 
" style="fill:none;stroke:#000000;stroke-linecap:round;stroke-width:1.5;"/>
   </g>
   <g id="line2d_51">
    <path clip-path="url(#p3f323ff917)" d="M 538.529167 318.957626 
L 557.57 318.957626 
" style="fill:none;stroke:#000000;stroke-linecap:round;stroke-width:1.5;"/>
   </g>
   <g id="line2d_52">
    <path clip-path="url(#p3f323ff917)" d="M 643.25375 272.044485 
L 643.25375 268.915223 
" style="fill:none;stroke:#000000;stroke-linecap:round;stroke-width:1.5;"/>
   </g>
   <g id="line2d_53">
    <path clip-path="url(#p3f323ff917)" d="M 633.733333 272.044485 
L 652.774167 272.044485 
" style="fill:none;stroke:#000000;stroke-linecap:round;stroke-width:1.5;"/>
   </g>
   <g id="line2d_54">
    <path clip-path="url(#p3f323ff917)" d="M 633.733333 268.915223 
L 652.774167 268.915223 
" style="fill:none;stroke:#000000;stroke-linecap:round;stroke-width:1.5;"/>
   </g>
   <g id="line2d_55">
    <path clip-path="url(#p3f323ff917)" d="M 738.457917 271.053444 
L 738.457917 267.635405 
" style="fill:none;stroke:#000000;stroke-linecap:round;stroke-width:1.5;"/>
   </g>
   <g id="line2d_56">
    <path clip-path="url(#p3f323ff917)" d="M 728.9375 271.053444 
L 747.978333 271.053444 
" style="fill:none;stroke:#000000;stroke-linecap:round;stroke-width:1.5;"/>
   </g>
   <g id="line2d_57">
    <path clip-path="url(#p3f323ff917)" d="M 728.9375 267.635405 
L 747.978333 267.635405 
" style="fill:none;stroke:#000000;stroke-linecap:round;stroke-width:1.5;"/>
   </g>
   <g id="line2d_58">
    <path clip-path="url(#p3f323ff917)" d="M 833.662083 262.362543 
L 833.662083 260.565826 
" style="fill:none;stroke:#000000;stroke-linecap:round;stroke-width:1.5;"/>
   </g>
   <g id="line2d_59">
    <path clip-path="url(#p3f323ff917)" d="M 824.141667 262.362543 
L 843.1825 262.362543 
" style="fill:none;stroke:#000000;stroke-linecap:round;stroke-width:1.5;"/>
   </g>
   <g id="line2d_60">
    <path clip-path="url(#p3f323ff917)" d="M 824.141667 260.565826 
L 843.1825 260.565826 
" style="fill:none;stroke:#000000;stroke-linecap:round;stroke-width:1.5;"/>
   </g>
   <g id="patch_25">
    <path d="M 481.406667 334.933737 
L 481.406667 34.8 
" style="fill:none;stroke:#cccccc;stroke-linecap:square;stroke-linejoin:miter;stroke-width:0.8;"/>
   </g>
   <g id="patch_26">
    <path d="M 481.406667 334.933737 
L 862.223333 334.933737 
" style="fill:none;stroke:#cccccc;stroke-linecap:square;stroke-linejoin:miter;stroke-width:0.8;"/>
   </g>
   <g id="PathCollection_13">
    <defs>
     <path d="M 0 5 
C 1.326016 5 2.597899 4.473168 3.535534 3.535534 
C 4.473168 2.597899 5 1.326016 5 -0 
C 5 -1.326016 4.473168 -2.597899 3.535534 -3.535534 
C 2.597899 -4.473168 1.326016 -5 0 -5 
C -1.326016 -5 -2.597899 -4.473168 -3.535534 -3.535534 
C -4.473168 -2.597899 -5 -1.326016 -5 0 
C -5 1.326016 -4.473168 2.597899 -3.535534 3.535534 
C -2.597899 4.473168 -1.326016 5 0 5 
z
" id="C8_0_b7ce4cdd64"/>
    </defs>
    <g clip-path="url(#p3f323ff917)">
     <use style="fill:#6495ed;stroke:#000000;" x="509.967917" xlink:href="#C8_0_b7ce4cdd64" y="162.606465"/>
    </g>
    <g clip-path="url(#p3f323ff917)">
     <use style="fill:#6495ed;stroke:#000000;" x="509.967917" xlink:href="#C8_0_b7ce4cdd64" y="147.421878"/>
    </g>
    <g clip-path="url(#p3f323ff917)">
     <use style="fill:#6495ed;stroke:#000000;" x="507.687147" xlink:href="#C8_0_b7ce4cdd64" y="139.702021"/>
    </g>
   </g>
   <g id="PathCollection_14">
    <defs>
     <path d="M 0 5 
C 1.326016 5 2.597899 4.473168 3.535534 3.535534 
C 4.473168 2.597899 5 1.326016 5 -0 
C 5 -1.326016 4.473168 -2.597899 3.535534 -3.535534 
C 2.597899 -4.473168 1.326016 -5 0 -5 
C -1.326016 -5 -2.597899 -4.473168 -3.535534 -3.535534 
C -4.473168 -2.597899 -5 -1.326016 -5 0 
C -5 1.326016 -4.473168 2.597899 -3.535534 3.535534 
C -2.597899 4.473168 -1.326016 5 0 5 
z
" id="C9_0_44cd8fe7f8"/>
    </defs>
    <g clip-path="url(#p3f323ff917)">
     <use style="fill:#d3d3d3;stroke:#000000;" x="548.049583" xlink:href="#C9_0_44cd8fe7f8" y="320.532431"/>
    </g>
    <g clip-path="url(#p3f323ff917)">
     <use style="fill:#d3d3d3;stroke:#000000;" x="536.904033" xlink:href="#C9_0_44cd8fe7f8" y="319.833692"/>
    </g>
    <g clip-path="url(#p3f323ff917)">
     <use style="fill:#d3d3d3;stroke:#000000;" x="558.943313" xlink:href="#C9_0_44cd8fe7f8" y="318.7312"/>
    </g>
   </g>
   <g id="PathCollection_15">
    <defs>
     <path d="M 0 5 
C 1.326016 5 2.597899 4.473168 3.535534 3.535534 
C 4.473168 2.597899 5 1.326016 5 -0 
C 5 -1.326016 4.473168 -2.597899 3.535534 -3.535534 
C 2.597899 -4.473168 1.326016 -5 0 -5 
C -1.326016 -5 -2.597899 -4.473168 -3.535534 -3.535534 
C -4.473168 -2.597899 -5 -1.326016 -5 0 
C -5 1.326016 -4.473168 2.597899 -3.535534 3.535534 
C -2.597899 4.473168 -1.326016 5 0 5 
z
" id="Ca_0_3af2e8b6a7"/>
    </defs>
    <g clip-path="url(#p3f323ff917)">
     <use style="fill:#6495ed;stroke:#000000;" x="605.172083" xlink:href="#Ca_0_3af2e8b6a7" y="118.0944"/>
    </g>
    <g clip-path="url(#p3f323ff917)">
     <use style="fill:#6495ed;stroke:#000000;" x="605.172083" xlink:href="#Ca_0_3af2e8b6a7" y="108.742677"/>
    </g>
    <g clip-path="url(#p3f323ff917)">
     <use style="fill:#6495ed;stroke:#000000;" x="596.093104" xlink:href="#Ca_0_3af2e8b6a7" y="104.133499"/>
    </g>
   </g>
   <g id="PathCollection_16">
    <defs>
     <path d="M 0 5 
C 1.326016 5 2.597899 4.473168 3.535534 3.535534 
C 4.473168 2.597899 5 1.326016 5 -0 
C 5 -1.326016 4.473168 -2.597899 3.535534 -3.535534 
C 2.597899 -4.473168 1.326016 -5 0 -5 
C -1.326016 -5 -2.597899 -4.473168 -3.535534 -3.535534 
C -4.473168 -2.597899 -5 -1.326016 -5 0 
C -5 1.326016 -4.473168 2.597899 -3.535534 3.535534 
C -2.597899 4.473168 -1.326016 5 0 5 
z
" id="Cb_0_88fee279ec"/>
    </defs>
    <g clip-path="url(#p3f323ff917)">
     <use style="fill:#d3d3d3;stroke:#000000;" x="643.25375" xlink:href="#Cb_0_88fee279ec" y="272.248975"/>
    </g>
    <g clip-path="url(#p3f323ff917)">
     <use style="fill:#d3d3d3;stroke:#000000;" x="632.269241" xlink:href="#Cb_0_88fee279ec" y="270.746276"/>
    </g>
    <g clip-path="url(#p3f323ff917)">
     <use style="fill:#d3d3d3;stroke:#000000;" x="653.05468" xlink:href="#Cb_0_88fee279ec" y="268.444311"/>
    </g>
   </g>
   <g id="PathCollection_17">
    <defs>
     <path d="M 0 5 
C 1.326016 5 2.597899 4.473168 3.535534 3.535534 
C 4.473168 2.597899 5 1.326016 5 -0 
C 5 -1.326016 4.473168 -2.597899 3.535534 -3.535534 
C 2.597899 -4.473168 1.326016 -5 0 -5 
C -1.326016 -5 -2.597899 -4.473168 -3.535534 -3.535534 
C -4.473168 -2.597899 -5 -1.326016 -5 0 
C -5 1.326016 -4.473168 2.597899 -3.535534 3.535534 
C -2.597899 4.473168 -1.326016 5 0 5 
z
" id="Cc_0_6dd94ef13e"/>
    </defs>
    <g clip-path="url(#p3f323ff917)">
     <use style="fill:#6495ed;stroke:#000000;" x="700.37625" xlink:href="#Cc_0_6dd94ef13e" y="116.195628"/>
    </g>
    <g clip-path="url(#p3f323ff917)">
     <use style="fill:#6495ed;stroke:#000000;" x="700.37625" xlink:href="#Cc_0_6dd94ef13e" y="107.341397"/>
    </g>
    <g clip-path="url(#p3f323ff917)">
     <use style="fill:#6495ed;stroke:#000000;" x="691.302144" xlink:href="#Cc_0_6dd94ef13e" y="102.727454"/>
    </g>
   </g>
   <g id="PathCollection_18">
    <defs>
     <path d="M 0 5 
C 1.326016 5 2.597899 4.473168 3.535534 3.535534 
C 4.473168 2.597899 5 1.326016 5 -0 
C 5 -1.326016 4.473168 -2.597899 3.535534 -3.535534 
C 2.597899 -4.473168 1.326016 -5 0 -5 
C -1.326016 -5 -2.597899 -4.473168 -3.535534 -3.535534 
C -4.473168 -2.597899 -5 -1.326016 -5 0 
C -5 1.326016 -4.473168 2.597899 -3.535534 3.535534 
C -2.597899 4.473168 -1.326016 5 0 5 
z
" id="Cd_0_9a4d04ddbe"/>
    </defs>
    <g clip-path="url(#p3f323ff917)">
     <use style="fill:#d3d3d3;stroke:#000000;" x="738.457917" xlink:href="#Cd_0_9a4d04ddbe" y="271.125804"/>
    </g>
    <g clip-path="url(#p3f323ff917)">
     <use style="fill:#d3d3d3;stroke:#000000;" x="749.504296" xlink:href="#Cd_0_9a4d04ddbe" y="269.86835"/>
    </g>
    <g clip-path="url(#p3f323ff917)">
     <use style="fill:#d3d3d3;stroke:#000000;" x="728.888336" xlink:href="#Cd_0_9a4d04ddbe" y="267.03912"/>
    </g>
   </g>
   <g id="PathCollection_19">
    <defs>
     <path d="M 0 5 
C 1.326016 5 2.597899 4.473168 3.535534 3.535534 
C 4.473168 2.597899 5 1.326016 5 -0 
C 5 -1.326016 4.473168 -2.597899 3.535534 -3.535534 
C 2.597899 -4.473168 1.326016 -5 0 -5 
C -1.326016 -5 -2.597899 -4.473168 -3.535534 -3.535534 
C -4.473168 -2.597899 -5 -1.326016 -5 0 
C -5 1.326016 -4.473168 2.597899 -3.535534 3.535534 
C -2.597899 4.473168 -1.326016 5 0 5 
z
" id="Ce_0_12d6bdd840"/>
    </defs>
    <g clip-path="url(#p3f323ff917)">
     <use style="fill:#6495ed;stroke:#000000;" x="795.580417" xlink:href="#Ce_0_12d6bdd840" y="299.492666"/>
    </g>
    <g clip-path="url(#p3f323ff917)">
     <use style="fill:#6495ed;stroke:#000000;" x="784.675616" xlink:href="#Ce_0_12d6bdd840" y="297.725017"/>
    </g>
    <g clip-path="url(#p3f323ff917)">
     <use style="fill:#6495ed;stroke:#000000;" x="804.25212" xlink:href="#Ce_0_12d6bdd840" y="294.509215"/>
    </g>
   </g>
   <g id="PathCollection_20">
    <defs>
     <path d="M 0 5 
C 1.326016 5 2.597899 4.473168 3.535534 3.535534 
C 4.473168 2.597899 5 1.326016 5 -0 
C 5 -1.326016 4.473168 -2.597899 3.535534 -3.535534 
C 2.597899 -4.473168 1.326016 -5 0 -5 
C -1.326016 -5 -2.597899 -4.473168 -3.535534 -3.535534 
C -4.473168 -2.597899 -5 -1.326016 -5 0 
C -5 1.326016 -4.473168 2.597899 -3.535534 3.535534 
C -2.597899 4.473168 -1.326016 5 0 5 
z
" id="Cf_0_675ee2a17b"/>
    </defs>
    <g clip-path="url(#p3f323ff917)">
     <use style="fill:#d3d3d3;stroke:#000000;" x="833.662083" xlink:href="#Cf_0_675ee2a17b" y="262.729691"/>
    </g>
    <g clip-path="url(#p3f323ff917)">
     <use style="fill:#d3d3d3;stroke:#000000;" x="822.768307" xlink:href="#Cf_0_675ee2a17b" y="260.928599"/>
    </g>
    <g clip-path="url(#p3f323ff917)">
     <use style="fill:#d3d3d3;stroke:#000000;" x="844.487456" xlink:href="#Cf_0_675ee2a17b" y="260.734262"/>
    </g>
   </g>
   <g id="text_22">
    <!-- Model = DeepSwarm -->
    <g style="fill:#262626;" transform="translate(596.89625 28.8)scale(0.16 -0.16)">
     <defs>
      <path d="M 1034 0 
L 19 3319 
L 600 3319 
L 1128 1403 
L 1325 691 
Q 1338 744 1497 1375 
L 2025 3319 
L 2603 3319 
L 3100 1394 
L 3266 759 
L 3456 1400 
L 4025 3319 
L 4572 3319 
L 3534 0 
L 2950 0 
L 2422 1988 
L 2294 2553 
L 1622 0 
L 1034 0 
z
" id="ArialMT-77" transform="scale(0.015625)"/>
     </defs>
     <use xlink:href="#ArialMT-4d"/>
     <use x="83.300781" xlink:href="#ArialMT-6f"/>
     <use x="138.916016" xlink:href="#ArialMT-64"/>
     <use x="194.53125" xlink:href="#ArialMT-65"/>
     <use x="250.146484" xlink:href="#ArialMT-6c"/>
     <use x="272.363281" xlink:href="#ArialMT-20"/>
     <use x="300.146484" xlink:href="#ArialMT-3d"/>
     <use x="358.544922" xlink:href="#ArialMT-20"/>
     <use x="386.328125" xlink:href="#ArialMT-44"/>
     <use x="458.544922" xlink:href="#ArialMT-65"/>
     <use x="514.160156" xlink:href="#ArialMT-65"/>
     <use x="569.775391" xlink:href="#ArialMT-70"/>
     <use x="625.390625" xlink:href="#ArialMT-53"/>
     <use x="692.089844" xlink:href="#ArialMT-77"/>
     <use x="764.306641" xlink:href="#ArialMT-61"/>
     <use x="819.921875" xlink:href="#ArialMT-72"/>
     <use x="853.222656" xlink:href="#ArialMT-6d"/>
    </g>
   </g>
   <g id="legend_2">
    <g id="patch_27">
     <path d="M 723.350833 115.89 
L 851.023333 115.89 
Q 854.223333 115.89 854.223333 112.69 
L 854.223333 46 
Q 854.223333 42.8 851.023333 42.8 
L 723.350833 42.8 
Q 720.150833 42.8 720.150833 46 
L 720.150833 112.69 
Q 720.150833 115.89 723.350833 115.89 
z
" style="fill:#ffffff;opacity:0.8;stroke:#cccccc;stroke-linejoin:miter;"/>
    </g>
    <g id="text_23">
     <!-- Data -->
     <g style="fill:#262626;" transform="translate(770.289583 60.6525)scale(0.16 -0.16)">
      <use xlink:href="#ArialMT-44"/>
      <use x="72.216797" xlink:href="#ArialMT-61"/>
      <use x="127.832031" xlink:href="#ArialMT-74"/>
      <use x="155.615234" xlink:href="#ArialMT-61"/>
     </g>
    </g>
    <g id="patch_28">
     <path d="M 726.550833 83.49 
L 758.550833 83.49 
L 758.550833 72.29 
L 726.550833 72.29 
z
" style="fill:#7f9dd2;stroke:#000000;stroke-linejoin:miter;"/>
    </g>
    <g id="text_24">
     <!-- Original -->
     <g style="fill:#262626;" transform="translate(771.350833 83.49)scale(0.16 -0.16)">
      <use xlink:href="#ArialMT-4f"/>
      <use x="77.783203" xlink:href="#ArialMT-72"/>
      <use x="111.083984" xlink:href="#ArialMT-69"/>
      <use x="133.300781" xlink:href="#ArialMT-67"/>
      <use x="188.916016" xlink:href="#ArialMT-69"/>
      <use x="211.132812" xlink:href="#ArialMT-6e"/>
      <use x="266.748047" xlink:href="#ArialMT-61"/>
      <use x="322.363281" xlink:href="#ArialMT-6c"/>
     </g>
    </g>
    <g id="patch_29">
     <path d="M 726.550833 106.31 
L 758.550833 106.31 
L 758.550833 95.11 
L 726.550833 95.11 
z
" style="fill:#d3d3d3;stroke:#000000;stroke-linejoin:miter;"/>
    </g>
    <g id="text_25">
     <!-- Scrambled -->
     <g style="fill:#262626;" transform="translate(771.350833 106.31)scale(0.16 -0.16)">
      <use xlink:href="#ArialMT-53"/>
      <use x="66.699219" xlink:href="#ArialMT-63"/>
      <use x="116.699219" xlink:href="#ArialMT-72"/>
      <use x="150" xlink:href="#ArialMT-61"/>
      <use x="205.615234" xlink:href="#ArialMT-6d"/>
      <use x="288.916016" xlink:href="#ArialMT-62"/>
      <use x="344.53125" xlink:href="#ArialMT-6c"/>
      <use x="366.748047" xlink:href="#ArialMT-65"/>
      <use x="422.363281" xlink:href="#ArialMT-64"/>
     </g>
    </g>
   </g>
  </g>
  <g id="axes_3">
   <g id="patch_30">
    <path d="M 897.903333 334.933737 
L 1278.72 334.933737 
L 1278.72 34.8 
L 897.903333 34.8 
z
" style="fill:#ffffff;"/>
   </g>
   <g id="matplotlib.axis_5">
    <g id="xtick_9">
     <g id="text_26">
      <!-- r2 -->
      <g style="fill:#262626;" transform="translate(948.343755 357.931333)rotate(-80)scale(0.16 -0.16)">
       <use xlink:href="#ArialMT-72"/>
       <use x="33.300781" xlink:href="#ArialMT-32"/>
      </g>
     </g>
    </g>
    <g id="xtick_10">
     <g id="text_27">
      <!-- pearson -->
      <g style="fill:#262626;" transform="translate(1039.76326 400.859103)rotate(-80)scale(0.16 -0.16)">
       <use xlink:href="#ArialMT-70"/>
       <use x="55.615234" xlink:href="#ArialMT-65"/>
       <use x="111.230469" xlink:href="#ArialMT-61"/>
       <use x="166.845703" xlink:href="#ArialMT-72"/>
       <use x="200.146484" xlink:href="#ArialMT-73"/>
       <use x="250.146484" xlink:href="#ArialMT-6f"/>
       <use x="305.761719" xlink:href="#ArialMT-6e"/>
      </g>
     </g>
    </g>
    <g id="xtick_11">
     <g id="text_28">
      <!-- spearman -->
      <g style="fill:#262626;" transform="translate(1133.810278 413.984128)rotate(-80)scale(0.16 -0.16)">
       <use xlink:href="#ArialMT-73"/>
       <use x="50" xlink:href="#ArialMT-70"/>
       <use x="105.615234" xlink:href="#ArialMT-65"/>
       <use x="161.230469" xlink:href="#ArialMT-61"/>
       <use x="216.845703" xlink:href="#ArialMT-72"/>
       <use x="250.146484" xlink:href="#ArialMT-6d"/>
       <use x="333.447266" xlink:href="#ArialMT-61"/>
       <use x="389.0625" xlink:href="#ArialMT-6e"/>
      </g>
     </g>
    </g>
    <g id="xtick_12">
     <g id="text_29">
      <!-- MAE -->
      <g style="fill:#262626;" transform="translate(1232.18092 378.068189)rotate(-80)scale(0.16 -0.16)">
       <use xlink:href="#ArialMT-4d"/>
       <use x="83.300781" xlink:href="#ArialMT-41"/>
       <use x="150" xlink:href="#ArialMT-45"/>
      </g>
     </g>
    </g>
   </g>
   <g id="matplotlib.axis_6">
    <g id="ytick_13">
     <g id="line2d_61">
      <path clip-path="url(#p844a897eeb)" d="M 897.903333 334.933737 
L 1278.72 334.933737 
" style="fill:none;stroke:#cccccc;stroke-linecap:round;stroke-width:0.8;"/>
     </g>
    </g>
    <g id="ytick_14">
     <g id="line2d_62">
      <path clip-path="url(#p844a897eeb)" d="M 897.903333 280.363967 
L 1278.72 280.363967 
" style="fill:none;stroke:#cccccc;stroke-linecap:round;stroke-width:0.8;"/>
     </g>
    </g>
    <g id="ytick_15">
     <g id="line2d_63">
      <path clip-path="url(#p844a897eeb)" d="M 897.903333 225.794196 
L 1278.72 225.794196 
" style="fill:none;stroke:#cccccc;stroke-linecap:round;stroke-width:0.8;"/>
     </g>
    </g>
    <g id="ytick_16">
     <g id="line2d_64">
      <path clip-path="url(#p844a897eeb)" d="M 897.903333 171.224426 
L 1278.72 171.224426 
" style="fill:none;stroke:#cccccc;stroke-linecap:round;stroke-width:0.8;"/>
     </g>
    </g>
    <g id="ytick_17">
     <g id="line2d_65">
      <path clip-path="url(#p844a897eeb)" d="M 897.903333 116.654656 
L 1278.72 116.654656 
" style="fill:none;stroke:#cccccc;stroke-linecap:round;stroke-width:0.8;"/>
     </g>
    </g>
    <g id="ytick_18">
     <g id="line2d_66">
      <path clip-path="url(#p844a897eeb)" d="M 897.903333 62.084885 
L 1278.72 62.084885 
" style="fill:none;stroke:#cccccc;stroke-linecap:round;stroke-width:0.8;"/>
     </g>
    </g>
    <g id="text_30">
     <!-- Value -->
     <g style="fill:#262626;" transform="translate(890.723333 204.736868)rotate(-90)scale(0.16 -0.16)">
      <use xlink:href="#ArialMT-56"/>
      <use x="59.324219" xlink:href="#ArialMT-61"/>
      <use x="114.939453" xlink:href="#ArialMT-6c"/>
      <use x="137.15625" xlink:href="#ArialMT-75"/>
      <use x="192.771484" xlink:href="#ArialMT-65"/>
     </g>
    </g>
   </g>
   <g id="PathCollection_21"/>
   <g id="PathCollection_22"/>
   <g id="patch_31">
    <path clip-path="url(#p844a897eeb)" d="M 907.42375 334.933737 
L 945.505417 334.933737 
L 945.505417 181.120545 
L 907.42375 181.120545 
z
" style="fill:#7f9dd2;stroke:#000000;stroke-linejoin:miter;"/>
   </g>
   <g id="patch_32">
    <path clip-path="url(#p844a897eeb)" d="M 1002.627917 334.933737 
L 1040.709583 334.933737 
L 1040.709583 130.076851 
L 1002.627917 130.076851 
z
" style="fill:#7f9dd2;stroke:#000000;stroke-linejoin:miter;"/>
   </g>
   <g id="patch_33">
    <path clip-path="url(#p844a897eeb)" d="M 1097.832083 334.933737 
L 1135.91375 334.933737 
L 1135.91375 131.745702 
L 1097.832083 131.745702 
z
" style="fill:#7f9dd2;stroke:#000000;stroke-linejoin:miter;"/>
   </g>
   <g id="patch_34">
    <path clip-path="url(#p844a897eeb)" d="M 1193.03625 334.933737 
L 1231.117917 334.933737 
L 1231.117917 290.308534 
L 1193.03625 290.308534 
z
" style="fill:#7f9dd2;stroke:#000000;stroke-linejoin:miter;"/>
   </g>
   <g id="patch_35">
    <path clip-path="url(#p844a897eeb)" d="M 945.505417 334.933737 
L 983.587083 334.933737 
L 983.587083 307.892735 
L 945.505417 307.892735 
z
" style="fill:#d3d3d3;stroke:#000000;stroke-linejoin:miter;"/>
   </g>
   <g id="patch_36">
    <path clip-path="url(#p844a897eeb)" d="M 1040.709583 334.933737 
L 1078.79125 334.933737 
L 1078.79125 249.038304 
L 1040.709583 249.038304 
z
" style="fill:#d3d3d3;stroke:#000000;stroke-linejoin:miter;"/>
   </g>
   <g id="patch_37">
    <path clip-path="url(#p844a897eeb)" d="M 1135.91375 334.933737 
L 1173.995417 334.933737 
L 1173.995417 250.370474 
L 1135.91375 250.370474 
z
" style="fill:#d3d3d3;stroke:#000000;stroke-linejoin:miter;"/>
   </g>
   <g id="patch_38">
    <path clip-path="url(#p844a897eeb)" d="M 1231.117917 334.933737 
L 1269.199583 334.933737 
L 1269.199583 266.116755 
L 1231.117917 266.116755 
z
" style="fill:#d3d3d3;stroke:#000000;stroke-linejoin:miter;"/>
   </g>
   <g id="line2d_67">
    <path clip-path="url(#p844a897eeb)" d="M 926.464583 182.900991 
L 926.464583 179.3401 
" style="fill:none;stroke:#000000;stroke-linecap:round;stroke-width:1.5;"/>
   </g>
   <g id="line2d_68">
    <path clip-path="url(#p844a897eeb)" d="M 916.944167 182.900991 
L 935.985 182.900991 
" style="fill:none;stroke:#000000;stroke-linecap:round;stroke-width:1.5;"/>
   </g>
   <g id="line2d_69">
    <path clip-path="url(#p844a897eeb)" d="M 916.944167 179.3401 
L 935.985 179.3401 
" style="fill:none;stroke:#000000;stroke-linecap:round;stroke-width:1.5;"/>
   </g>
   <g id="line2d_70">
    <path clip-path="url(#p844a897eeb)" d="M 1021.66875 131.263938 
L 1021.66875 128.889764 
" style="fill:none;stroke:#000000;stroke-linecap:round;stroke-width:1.5;"/>
   </g>
   <g id="line2d_71">
    <path clip-path="url(#p844a897eeb)" d="M 1012.148333 131.263938 
L 1031.189167 131.263938 
" style="fill:none;stroke:#000000;stroke-linecap:round;stroke-width:1.5;"/>
   </g>
   <g id="line2d_72">
    <path clip-path="url(#p844a897eeb)" d="M 1012.148333 128.889764 
L 1031.189167 128.889764 
" style="fill:none;stroke:#000000;stroke-linecap:round;stroke-width:1.5;"/>
   </g>
   <g id="line2d_73">
    <path clip-path="url(#p844a897eeb)" d="M 1116.872917 133.178807 
L 1116.872917 130.312596 
" style="fill:none;stroke:#000000;stroke-linecap:round;stroke-width:1.5;"/>
   </g>
   <g id="line2d_74">
    <path clip-path="url(#p844a897eeb)" d="M 1107.3525 133.178807 
L 1126.393333 133.178807 
" style="fill:none;stroke:#000000;stroke-linecap:round;stroke-width:1.5;"/>
   </g>
   <g id="line2d_75">
    <path clip-path="url(#p844a897eeb)" d="M 1107.3525 130.312596 
L 1126.393333 130.312596 
" style="fill:none;stroke:#000000;stroke-linecap:round;stroke-width:1.5;"/>
   </g>
   <g id="line2d_76">
    <path clip-path="url(#p844a897eeb)" d="M 1212.077083 290.62442 
L 1212.077083 289.992648 
" style="fill:none;stroke:#000000;stroke-linecap:round;stroke-width:1.5;"/>
   </g>
   <g id="line2d_77">
    <path clip-path="url(#p844a897eeb)" d="M 1202.556667 290.62442 
L 1221.5975 290.62442 
" style="fill:none;stroke:#000000;stroke-linecap:round;stroke-width:1.5;"/>
   </g>
   <g id="line2d_78">
    <path clip-path="url(#p844a897eeb)" d="M 1202.556667 289.992648 
L 1221.5975 289.992648 
" style="fill:none;stroke:#000000;stroke-linecap:round;stroke-width:1.5;"/>
   </g>
   <g id="line2d_79">
    <path clip-path="url(#p844a897eeb)" d="M 964.54625 308.071793 
L 964.54625 307.713677 
" style="fill:none;stroke:#000000;stroke-linecap:round;stroke-width:1.5;"/>
   </g>
   <g id="line2d_80">
    <path clip-path="url(#p844a897eeb)" d="M 955.025833 308.071793 
L 974.066667 308.071793 
" style="fill:none;stroke:#000000;stroke-linecap:round;stroke-width:1.5;"/>
   </g>
   <g id="line2d_81">
    <path clip-path="url(#p844a897eeb)" d="M 955.025833 307.713677 
L 974.066667 307.713677 
" style="fill:none;stroke:#000000;stroke-linecap:round;stroke-width:1.5;"/>
   </g>
   <g id="line2d_82">
    <path clip-path="url(#p844a897eeb)" d="M 1059.750417 249.322891 
L 1059.750417 248.753718 
" style="fill:none;stroke:#000000;stroke-linecap:round;stroke-width:1.5;"/>
   </g>
   <g id="line2d_83">
    <path clip-path="url(#p844a897eeb)" d="M 1050.23 249.322891 
L 1069.270833 249.322891 
" style="fill:none;stroke:#000000;stroke-linecap:round;stroke-width:1.5;"/>
   </g>
   <g id="line2d_84">
    <path clip-path="url(#p844a897eeb)" d="M 1050.23 248.753718 
L 1069.270833 248.753718 
" style="fill:none;stroke:#000000;stroke-linecap:round;stroke-width:1.5;"/>
   </g>
   <g id="line2d_85">
    <path clip-path="url(#p844a897eeb)" d="M 1154.954583 250.618873 
L 1154.954583 250.122076 
" style="fill:none;stroke:#000000;stroke-linecap:round;stroke-width:1.5;"/>
   </g>
   <g id="line2d_86">
    <path clip-path="url(#p844a897eeb)" d="M 1145.434167 250.618873 
L 1164.475 250.618873 
" style="fill:none;stroke:#000000;stroke-linecap:round;stroke-width:1.5;"/>
   </g>
   <g id="line2d_87">
    <path clip-path="url(#p844a897eeb)" d="M 1145.434167 250.122076 
L 1164.475 250.122076 
" style="fill:none;stroke:#000000;stroke-linecap:round;stroke-width:1.5;"/>
   </g>
   <g id="line2d_88">
    <path clip-path="url(#p844a897eeb)" d="M 1250.15875 266.200904 
L 1250.15875 266.032607 
" style="fill:none;stroke:#000000;stroke-linecap:round;stroke-width:1.5;"/>
   </g>
   <g id="line2d_89">
    <path clip-path="url(#p844a897eeb)" d="M 1240.638333 266.200904 
L 1259.679167 266.200904 
" style="fill:none;stroke:#000000;stroke-linecap:round;stroke-width:1.5;"/>
   </g>
   <g id="line2d_90">
    <path clip-path="url(#p844a897eeb)" d="M 1240.638333 266.032607 
L 1259.679167 266.032607 
" style="fill:none;stroke:#000000;stroke-linecap:round;stroke-width:1.5;"/>
   </g>
   <g id="patch_39">
    <path d="M 897.903333 334.933737 
L 897.903333 34.8 
" style="fill:none;stroke:#cccccc;stroke-linecap:square;stroke-linejoin:miter;stroke-width:0.8;"/>
   </g>
   <g id="patch_40">
    <path d="M 897.903333 334.933737 
L 1278.72 334.933737 
" style="fill:none;stroke:#cccccc;stroke-linecap:square;stroke-linejoin:miter;stroke-width:0.8;"/>
   </g>
   <g id="PathCollection_23">
    <defs>
     <path d="M 0 5 
C 1.326016 5 2.597899 4.473168 3.535534 3.535534 
C 4.473168 2.597899 5 1.326016 5 -0 
C 5 -1.326016 4.473168 -2.597899 3.535534 -3.535534 
C 2.597899 -4.473168 1.326016 -5 0 -5 
C -1.326016 -5 -2.597899 -4.473168 -3.535534 -3.535534 
C -4.473168 -2.597899 -5 -1.326016 -5 0 
C -5 1.326016 -4.473168 2.597899 -3.535534 3.535534 
C -2.597899 4.473168 -1.326016 5 0 5 
z
" id="C10_0_f2871415ad"/>
    </defs>
    <g clip-path="url(#p844a897eeb)">
     <use style="fill:#6495ed;stroke:#000000;" x="926.464583" xlink:href="#C10_0_f2871415ad" y="183.510237"/>
    </g>
    <g clip-path="url(#p844a897eeb)">
     <use style="fill:#6495ed;stroke:#000000;" x="916.057811" xlink:href="#C10_0_f2871415ad" y="180.612729"/>
    </g>
    <g clip-path="url(#p844a897eeb)">
     <use style="fill:#6495ed;stroke:#000000;" x="935.870179" xlink:href="#C10_0_f2871415ad" y="179.238671"/>
    </g>
   </g>
   <g id="PathCollection_24">
    <defs>
     <path d="M 0 5 
C 1.326016 5 2.597899 4.473168 3.535534 3.535534 
C 4.473168 2.597899 5 1.326016 5 -0 
C 5 -1.326016 4.473168 -2.597899 3.535534 -3.535534 
C 2.597899 -4.473168 1.326016 -5 0 -5 
C -1.326016 -5 -2.597899 -4.473168 -3.535534 -3.535534 
C -4.473168 -2.597899 -5 -1.326016 -5 0 
C -5 1.326016 -4.473168 2.597899 -3.535534 3.535534 
C -2.597899 4.473168 -1.326016 5 0 5 
z
" id="C11_0_fe132878dd"/>
    </defs>
    <g clip-path="url(#p844a897eeb)">
     <use style="fill:#d3d3d3;stroke:#000000;" x="964.54625" xlink:href="#C11_0_fe132878dd" y="308.13359"/>
    </g>
    <g clip-path="url(#p844a897eeb)">
     <use style="fill:#d3d3d3;stroke:#000000;" x="953.36444" xlink:href="#C11_0_fe132878dd" y="307.840015"/>
    </g>
    <g clip-path="url(#p844a897eeb)">
     <use style="fill:#d3d3d3;stroke:#000000;" x="975.719246" xlink:href="#C11_0_fe132878dd" y="307.7046"/>
    </g>
   </g>
   <g id="PathCollection_25">
    <defs>
     <path d="M 0 5 
C 1.326016 5 2.597899 4.473168 3.535534 3.535534 
C 4.473168 2.597899 5 1.326016 5 -0 
C 5 -1.326016 4.473168 -2.597899 3.535534 -3.535534 
C 2.597899 -4.473168 1.326016 -5 0 -5 
C -1.326016 -5 -2.597899 -4.473168 -3.535534 -3.535534 
C -4.473168 -2.597899 -5 -1.326016 -5 0 
C -5 1.326016 -4.473168 2.597899 -3.535534 3.535534 
C -2.597899 4.473168 -1.326016 5 0 5 
z
" id="C12_0_0096343430"/>
    </defs>
    <g clip-path="url(#p844a897eeb)">
     <use style="fill:#6495ed;stroke:#000000;" x="1021.66875" xlink:href="#C12_0_0096343430" y="131.671029"/>
    </g>
    <g clip-path="url(#p844a897eeb)">
     <use style="fill:#6495ed;stroke:#000000;" x="1010.821495" xlink:href="#C12_0_0096343430" y="129.735515"/>
    </g>
    <g clip-path="url(#p844a897eeb)">
     <use style="fill:#6495ed;stroke:#000000;" x="1032.103544" xlink:href="#C12_0_0096343430" y="128.824009"/>
    </g>
   </g>
   <g id="PathCollection_26">
    <defs>
     <path d="M 0 5 
C 1.326016 5 2.597899 4.473168 3.535534 3.535534 
C 4.473168 2.597899 5 1.326016 5 -0 
C 5 -1.326016 4.473168 -2.597899 3.535534 -3.535534 
C 2.597899 -4.473168 1.326016 -5 0 -5 
C -1.326016 -5 -2.597899 -4.473168 -3.535534 -3.535534 
C -4.473168 -2.597899 -5 -1.326016 -5 0 
C -5 1.326016 -4.473168 2.597899 -3.535534 3.535534 
C -2.597899 4.473168 -1.326016 5 0 5 
z
" id="C13_0_d7922ccd8b"/>
    </defs>
    <g clip-path="url(#p844a897eeb)">
     <use style="fill:#d3d3d3;stroke:#000000;" x="1059.750417" xlink:href="#C13_0_d7922ccd8b" y="249.421226"/>
    </g>
    <g clip-path="url(#p844a897eeb)">
     <use style="fill:#d3d3d3;stroke:#000000;" x="1048.580497" xlink:href="#C13_0_d7922ccd8b" y="248.954142"/>
    </g>
    <g clip-path="url(#p844a897eeb)">
     <use style="fill:#d3d3d3;stroke:#000000;" x="1070.898094" xlink:href="#C13_0_d7922ccd8b" y="248.739546"/>
    </g>
   </g>
   <g id="PathCollection_27">
    <defs>
     <path d="M 0 5 
C 1.326016 5 2.597899 4.473168 3.535534 3.535534 
C 4.473168 2.597899 5 1.326016 5 -0 
C 5 -1.326016 4.473168 -2.597899 3.535534 -3.535534 
C 2.597899 -4.473168 1.326016 -5 0 -5 
C -1.326016 -5 -2.597899 -4.473168 -3.535534 -3.535534 
C -4.473168 -2.597899 -5 -1.326016 -5 0 
C -5 1.326016 -4.473168 2.597899 -3.535534 3.535534 
C -2.597899 4.473168 -1.326016 5 0 5 
z
" id="C14_0_68b1b71469"/>
    </defs>
    <g clip-path="url(#p844a897eeb)">
     <use style="fill:#6495ed;stroke:#000000;" x="1116.872917" xlink:href="#C14_0_68b1b71469" y="133.511192"/>
    </g>
    <g clip-path="url(#p844a897eeb)">
     <use style="fill:#6495ed;stroke:#000000;" x="1105.974231" xlink:href="#C14_0_68b1b71469" y="131.724913"/>
    </g>
    <g clip-path="url(#p844a897eeb)">
     <use style="fill:#6495ed;stroke:#000000;" x="1126.892678" xlink:href="#C14_0_68b1b71469" y="130.001"/>
    </g>
   </g>
   <g id="PathCollection_28">
    <defs>
     <path d="M 0 5 
C 1.326016 5 2.597899 4.473168 3.535534 3.535534 
C 4.473168 2.597899 5 1.326016 5 -0 
C 5 -1.326016 4.473168 -2.597899 3.535534 -3.535534 
C 2.597899 -4.473168 1.326016 -5 0 -5 
C -1.326016 -5 -2.597899 -4.473168 -3.535534 -3.535534 
C -4.473168 -2.597899 -5 -1.326016 -5 0 
C -5 1.326016 -4.473168 2.597899 -3.535534 3.535534 
C -2.597899 4.473168 -1.326016 5 0 5 
z
" id="C15_0_58d28ab8a6"/>
    </defs>
    <g clip-path="url(#p844a897eeb)">
     <use style="fill:#d3d3d3;stroke:#000000;" x="1154.954583" xlink:href="#C15_0_58d28ab8a6" y="250.721394"/>
    </g>
    <g clip-path="url(#p844a897eeb)">
     <use style="fill:#d3d3d3;stroke:#000000;" x="1143.78867" xlink:href="#C15_0_58d28ab8a6" y="250.208941"/>
    </g>
    <g clip-path="url(#p844a897eeb)">
     <use style="fill:#d3d3d3;stroke:#000000;" x="1166.117853" xlink:href="#C15_0_58d28ab8a6" y="250.181088"/>
    </g>
   </g>
   <g id="PathCollection_29">
    <defs>
     <path d="M 0 5 
C 1.326016 5 2.597899 4.473168 3.535534 3.535534 
C 4.473168 2.597899 5 1.326016 5 -0 
C 5 -1.326016 4.473168 -2.597899 3.535534 -3.535534 
C 2.597899 -4.473168 1.326016 -5 0 -5 
C -1.326016 -5 -2.597899 -4.473168 -3.535534 -3.535534 
C -4.473168 -2.597899 -5 -1.326016 -5 0 
C -5 1.326016 -4.473168 2.597899 -3.535534 3.535534 
C -2.597899 4.473168 -1.326016 5 0 5 
z
" id="C16_0_3425b571d2"/>
    </defs>
    <g clip-path="url(#p844a897eeb)">
     <use style="fill:#6495ed;stroke:#000000;" x="1212.077083" xlink:href="#C16_0_3425b571d2" y="290.616688"/>
    </g>
    <g clip-path="url(#p844a897eeb)">
     <use style="fill:#6495ed;stroke:#000000;" x="1200.890501" xlink:href="#C16_0_3425b571d2" y="290.434558"/>
    </g>
    <g clip-path="url(#p844a897eeb)">
     <use style="fill:#6495ed;stroke:#000000;" x="1223.216958" xlink:href="#C16_0_3425b571d2" y="289.874356"/>
    </g>
   </g>
   <g id="PathCollection_30">
    <defs>
     <path d="M 0 5 
C 1.326016 5 2.597899 4.473168 3.535534 3.535534 
C 4.473168 2.597899 5 1.326016 5 -0 
C 5 -1.326016 4.473168 -2.597899 3.535534 -3.535534 
C 2.597899 -4.473168 1.326016 -5 0 -5 
C -1.326016 -5 -2.597899 -4.473168 -3.535534 -3.535534 
C -4.473168 -2.597899 -5 -1.326016 -5 0 
C -5 1.326016 -4.473168 2.597899 -3.535534 3.535534 
C -2.597899 4.473168 -1.326016 5 0 5 
z
" id="C17_0_1ec5c23eff"/>
    </defs>
    <g clip-path="url(#p844a897eeb)">
     <use style="fill:#d3d3d3;stroke:#000000;" x="1250.15875" xlink:href="#C17_0_1ec5c23eff" y="266.227859"/>
    </g>
    <g clip-path="url(#p844a897eeb)">
     <use style="fill:#d3d3d3;stroke:#000000;" x="1238.970697" xlink:href="#C17_0_1ec5c23eff" y="266.09813"/>
    </g>
    <g clip-path="url(#p844a897eeb)">
     <use style="fill:#d3d3d3;stroke:#000000;" x="1261.344588" xlink:href="#C17_0_1ec5c23eff" y="266.024278"/>
    </g>
   </g>
   <g id="text_31">
    <!-- Model = TPOT -->
    <g style="fill:#262626;" transform="translate(1036.215417 28.8)scale(0.16 -0.16)">
     <defs>
      <path d="M 1659 0 
L 1659 4041 
L 150 4041 
L 150 4581 
L 3781 4581 
L 3781 4041 
L 2266 4041 
L 2266 0 
L 1659 0 
z
" id="ArialMT-54" transform="scale(0.015625)"/>
      <path d="M 494 0 
L 494 4581 
L 2222 4581 
Q 2678 4581 2919 4538 
Q 3256 4481 3484 4323 
Q 3713 4166 3852 3881 
Q 3991 3597 3991 3256 
Q 3991 2672 3619 2267 
Q 3247 1863 2275 1863 
L 1100 1863 
L 1100 0 
L 494 0 
z
M 1100 2403 
L 2284 2403 
Q 2872 2403 3119 2622 
Q 3366 2841 3366 3238 
Q 3366 3525 3220 3729 
Q 3075 3934 2838 4000 
Q 2684 4041 2272 4041 
L 1100 4041 
L 1100 2403 
z
" id="ArialMT-50" transform="scale(0.015625)"/>
     </defs>
     <use xlink:href="#ArialMT-4d"/>
     <use x="83.300781" xlink:href="#ArialMT-6f"/>
     <use x="138.916016" xlink:href="#ArialMT-64"/>
     <use x="194.53125" xlink:href="#ArialMT-65"/>
     <use x="250.146484" xlink:href="#ArialMT-6c"/>
     <use x="272.363281" xlink:href="#ArialMT-20"/>
     <use x="300.146484" xlink:href="#ArialMT-3d"/>
     <use x="358.544922" xlink:href="#ArialMT-20"/>
     <use x="384.578125" xlink:href="#ArialMT-54"/>
     <use x="445.662109" xlink:href="#ArialMT-50"/>
     <use x="512.361328" xlink:href="#ArialMT-4f"/>
     <use x="590.144531" xlink:href="#ArialMT-54"/>
    </g>
   </g>
   <g id="legend_3">
    <g id="patch_41">
     <path d="M 1139.8475 115.89 
L 1267.52 115.89 
Q 1270.72 115.89 1270.72 112.69 
L 1270.72 46 
Q 1270.72 42.8 1267.52 42.8 
L 1139.8475 42.8 
Q 1136.6475 42.8 1136.6475 46 
L 1136.6475 112.69 
Q 1136.6475 115.89 1139.8475 115.89 
z
" style="fill:#ffffff;opacity:0.8;stroke:#cccccc;stroke-linejoin:miter;"/>
    </g>
    <g id="text_32">
     <!-- Data -->
     <g style="fill:#262626;" transform="translate(1186.78625 60.6525)scale(0.16 -0.16)">
      <use xlink:href="#ArialMT-44"/>
      <use x="72.216797" xlink:href="#ArialMT-61"/>
      <use x="127.832031" xlink:href="#ArialMT-74"/>
      <use x="155.615234" xlink:href="#ArialMT-61"/>
     </g>
    </g>
    <g id="patch_42">
     <path d="M 1143.0475 83.49 
L 1175.0475 83.49 
L 1175.0475 72.29 
L 1143.0475 72.29 
z
" style="fill:#7f9dd2;stroke:#000000;stroke-linejoin:miter;"/>
    </g>
    <g id="text_33">
     <!-- Original -->
     <g style="fill:#262626;" transform="translate(1187.8475 83.49)scale(0.16 -0.16)">
      <use xlink:href="#ArialMT-4f"/>
      <use x="77.783203" xlink:href="#ArialMT-72"/>
      <use x="111.083984" xlink:href="#ArialMT-69"/>
      <use x="133.300781" xlink:href="#ArialMT-67"/>
      <use x="188.916016" xlink:href="#ArialMT-69"/>
      <use x="211.132812" xlink:href="#ArialMT-6e"/>
      <use x="266.748047" xlink:href="#ArialMT-61"/>
      <use x="322.363281" xlink:href="#ArialMT-6c"/>
     </g>
    </g>
    <g id="patch_43">
     <path d="M 1143.0475 106.31 
L 1175.0475 106.31 
L 1175.0475 95.11 
L 1143.0475 95.11 
z
" style="fill:#d3d3d3;stroke:#000000;stroke-linejoin:miter;"/>
    </g>
    <g id="text_34">
     <!-- Scrambled -->
     <g style="fill:#262626;" transform="translate(1187.8475 106.31)scale(0.16 -0.16)">
      <use xlink:href="#ArialMT-53"/>
      <use x="66.699219" xlink:href="#ArialMT-63"/>
      <use x="116.699219" xlink:href="#ArialMT-72"/>
      <use x="150" xlink:href="#ArialMT-61"/>
      <use x="205.615234" xlink:href="#ArialMT-6d"/>
      <use x="288.916016" xlink:href="#ArialMT-62"/>
      <use x="344.53125" xlink:href="#ArialMT-6c"/>
      <use x="366.748047" xlink:href="#ArialMT-65"/>
      <use x="422.363281" xlink:href="#ArialMT-64"/>
     </g>
    </g>
   </g>
  </g>
 </g>
 <defs>
  <clipPath id="pedce058097">
   <rect height="300.133737" width="380.816667" x="64.91" y="34.8"/>
  </clipPath>
  <clipPath id="p3f323ff917">
   <rect height="300.133737" width="380.816667" x="481.406667" y="34.8"/>
  </clipPath>
  <clipPath id="p844a897eeb">
   <rect height="300.133737" width="380.816667" x="897.903333" y="34.8"/>
  </clipPath>
 </defs>
</svg>
