<?xml version="1.0" encoding="utf-8" standalone="no"?>
<!DOCTYPE svg PUBLIC "-//W3C//DTD SVG 1.1//EN"
  "http://www.w3.org/Graphics/SVG/1.1/DTD/svg11.dtd">
<svg height="432pt" version="1.1" viewBox="0 0 1296 432" width="1296pt" xmlns="http://www.w3.org/2000/svg" xmlns:xlink="http://www.w3.org/1999/xlink">
 <metadata>
  <rdf:RDF xmlns:cc="http://creativecommons.org/ns#" xmlns:dc="http://purl.org/dc/elements/1.1/" xmlns:rdf="http://www.w3.org/1999/02/22-rdf-syntax-ns#">
   <cc:Work>
    <dc:type rdf:resource="http://purl.org/dc/dcmitype/StillImage"/>
    <dc:date>2023-04-05T16:24:08.785745</dc:date>
    <dc:format>image/svg+xml</dc:format>
    <dc:creator>
     <cc:Agent>
      <dc:title>Matplotlib v3.4.2, https://matplotlib.org/</dc:title>
     </cc:Agent>
    </dc:creator>
   </cc:Work>
  </rdf:RDF>
 </metadata>
 <defs>
  <style type="text/css">*{stroke-linecap:butt;stroke-linejoin:round;}</style>
 </defs>
 <g id="figure_1">
  <g id="patch_1">
   <path d="M 0 432 
L 1296 432 
L 1296 0 
L 0 0 
z
" style="fill:#ffffff;"/>
  </g>
  <g id="axes_1">
   <g id="patch_2">
    <path d="M 92.54 289.99716 
L 450.226667 289.99716 
L 450.226667 49.2 
L 92.54 49.2 
z
" style="fill:#ffffff;"/>
   </g>
   <g id="matplotlib.axis_1">
    <g id="xtick_1">
     <g id="text_1">
      <!-- r2 -->
      <g style="fill:#262626;" transform="translate(126.582083 314.17591)scale(0.24 -0.24)">
       <defs>
        <path d="M 416 0 
L 416 3319 
L 922 3319 
L 922 2816 
Q 1116 3169 1280 3281 
Q 1444 3394 1641 3394 
Q 1925 3394 2219 3213 
L 2025 2691 
Q 1819 2813 1613 2813 
Q 1428 2813 1281 2702 
Q 1134 2591 1072 2394 
Q 978 2094 978 1738 
L 978 0 
L 416 0 
z
" id="ArialMT-72" transform="scale(0.015625)"/>
        <path d="M 3222 541 
L 3222 0 
L 194 0 
Q 188 203 259 391 
Q 375 700 629 1000 
Q 884 1300 1366 1694 
Q 2113 2306 2375 2664 
Q 2638 3022 2638 3341 
Q 2638 3675 2398 3904 
Q 2159 4134 1775 4134 
Q 1369 4134 1125 3890 
Q 881 3647 878 3216 
L 300 3275 
Q 359 3922 746 4261 
Q 1134 4600 1788 4600 
Q 2447 4600 2831 4234 
Q 3216 3869 3216 3328 
Q 3216 3053 3103 2787 
Q 2991 2522 2730 2228 
Q 2469 1934 1863 1422 
Q 1356 997 1212 845 
Q 1069 694 975 541 
L 3222 541 
z
" id="ArialMT-32" transform="scale(0.015625)"/>
       </defs>
       <use xlink:href="#ArialMT-72"/>
       <use x="33.300781" xlink:href="#ArialMT-32"/>
      </g>
     </g>
    </g>
    <g id="xtick_2">
     <g id="text_2">
      <!-- pearson -->
      <g style="fill:#262626;" transform="translate(183.31125 314.17591)scale(0.24 -0.24)">
       <defs>
        <path d="M 422 -1272 
L 422 3319 
L 934 3319 
L 934 2888 
Q 1116 3141 1344 3267 
Q 1572 3394 1897 3394 
Q 2322 3394 2647 3175 
Q 2972 2956 3137 2557 
Q 3303 2159 3303 1684 
Q 3303 1175 3120 767 
Q 2938 359 2589 142 
Q 2241 -75 1856 -75 
Q 1575 -75 1351 44 
Q 1128 163 984 344 
L 984 -1272 
L 422 -1272 
z
M 931 1641 
Q 931 1000 1190 694 
Q 1450 388 1819 388 
Q 2194 388 2461 705 
Q 2728 1022 2728 1688 
Q 2728 2322 2467 2637 
Q 2206 2953 1844 2953 
Q 1484 2953 1207 2617 
Q 931 2281 931 1641 
z
" id="ArialMT-70" transform="scale(0.015625)"/>
        <path d="M 2694 1069 
L 3275 997 
Q 3138 488 2766 206 
Q 2394 -75 1816 -75 
Q 1088 -75 661 373 
Q 234 822 234 1631 
Q 234 2469 665 2931 
Q 1097 3394 1784 3394 
Q 2450 3394 2872 2941 
Q 3294 2488 3294 1666 
Q 3294 1616 3291 1516 
L 816 1516 
Q 847 969 1125 678 
Q 1403 388 1819 388 
Q 2128 388 2347 550 
Q 2566 713 2694 1069 
z
M 847 1978 
L 2700 1978 
Q 2663 2397 2488 2606 
Q 2219 2931 1791 2931 
Q 1403 2931 1139 2672 
Q 875 2413 847 1978 
z
" id="ArialMT-65" transform="scale(0.015625)"/>
        <path d="M 2588 409 
Q 2275 144 1986 34 
Q 1697 -75 1366 -75 
Q 819 -75 525 192 
Q 231 459 231 875 
Q 231 1119 342 1320 
Q 453 1522 633 1644 
Q 813 1766 1038 1828 
Q 1203 1872 1538 1913 
Q 2219 1994 2541 2106 
Q 2544 2222 2544 2253 
Q 2544 2597 2384 2738 
Q 2169 2928 1744 2928 
Q 1347 2928 1158 2789 
Q 969 2650 878 2297 
L 328 2372 
Q 403 2725 575 2942 
Q 747 3159 1072 3276 
Q 1397 3394 1825 3394 
Q 2250 3394 2515 3294 
Q 2781 3194 2906 3042 
Q 3031 2891 3081 2659 
Q 3109 2516 3109 2141 
L 3109 1391 
Q 3109 606 3145 398 
Q 3181 191 3288 0 
L 2700 0 
Q 2613 175 2588 409 
z
M 2541 1666 
Q 2234 1541 1622 1453 
Q 1275 1403 1131 1340 
Q 988 1278 909 1158 
Q 831 1038 831 891 
Q 831 666 1001 516 
Q 1172 366 1500 366 
Q 1825 366 2078 508 
Q 2331 650 2450 897 
Q 2541 1088 2541 1459 
L 2541 1666 
z
" id="ArialMT-61" transform="scale(0.015625)"/>
        <path d="M 197 991 
L 753 1078 
Q 800 744 1014 566 
Q 1228 388 1613 388 
Q 2000 388 2187 545 
Q 2375 703 2375 916 
Q 2375 1106 2209 1216 
Q 2094 1291 1634 1406 
Q 1016 1563 777 1677 
Q 538 1791 414 1992 
Q 291 2194 291 2438 
Q 291 2659 392 2848 
Q 494 3038 669 3163 
Q 800 3259 1026 3326 
Q 1253 3394 1513 3394 
Q 1903 3394 2198 3281 
Q 2494 3169 2634 2976 
Q 2775 2784 2828 2463 
L 2278 2388 
Q 2241 2644 2061 2787 
Q 1881 2931 1553 2931 
Q 1166 2931 1000 2803 
Q 834 2675 834 2503 
Q 834 2394 903 2306 
Q 972 2216 1119 2156 
Q 1203 2125 1616 2013 
Q 2213 1853 2448 1751 
Q 2684 1650 2818 1456 
Q 2953 1263 2953 975 
Q 2953 694 2789 445 
Q 2625 197 2315 61 
Q 2006 -75 1616 -75 
Q 969 -75 630 194 
Q 291 463 197 991 
z
" id="ArialMT-73" transform="scale(0.015625)"/>
        <path d="M 213 1659 
Q 213 2581 725 3025 
Q 1153 3394 1769 3394 
Q 2453 3394 2887 2945 
Q 3322 2497 3322 1706 
Q 3322 1066 3130 698 
Q 2938 331 2570 128 
Q 2203 -75 1769 -75 
Q 1072 -75 642 372 
Q 213 819 213 1659 
z
M 791 1659 
Q 791 1022 1069 705 
Q 1347 388 1769 388 
Q 2188 388 2466 706 
Q 2744 1025 2744 1678 
Q 2744 2294 2464 2611 
Q 2184 2928 1769 2928 
Q 1347 2928 1069 2612 
Q 791 2297 791 1659 
z
" id="ArialMT-6f" transform="scale(0.015625)"/>
        <path d="M 422 0 
L 422 3319 
L 928 3319 
L 928 2847 
Q 1294 3394 1984 3394 
Q 2284 3394 2536 3286 
Q 2788 3178 2913 3003 
Q 3038 2828 3088 2588 
Q 3119 2431 3119 2041 
L 3119 0 
L 2556 0 
L 2556 2019 
Q 2556 2363 2490 2533 
Q 2425 2703 2258 2804 
Q 2091 2906 1866 2906 
Q 1506 2906 1245 2678 
Q 984 2450 984 1813 
L 984 0 
L 422 0 
z
" id="ArialMT-6e" transform="scale(0.015625)"/>
       </defs>
       <use xlink:href="#ArialMT-70"/>
       <use x="55.615234" xlink:href="#ArialMT-65"/>
       <use x="111.230469" xlink:href="#ArialMT-61"/>
       <use x="166.845703" xlink:href="#ArialMT-72"/>
       <use x="200.146484" xlink:href="#ArialMT-73"/>
       <use x="250.146484" xlink:href="#ArialMT-6f"/>
       <use x="305.761719" xlink:href="#ArialMT-6e"/>
      </g>
     </g>
    </g>
    <g id="xtick_3">
     <g id="text_3">
      <!-- spearman -->
      <g style="fill:#262626;" transform="translate(262.737292 314.17591)scale(0.24 -0.24)">
       <defs>
        <path d="M 422 0 
L 422 3319 
L 925 3319 
L 925 2853 
Q 1081 3097 1340 3245 
Q 1600 3394 1931 3394 
Q 2300 3394 2536 3241 
Q 2772 3088 2869 2813 
Q 3263 3394 3894 3394 
Q 4388 3394 4653 3120 
Q 4919 2847 4919 2278 
L 4919 0 
L 4359 0 
L 4359 2091 
Q 4359 2428 4304 2576 
Q 4250 2725 4106 2815 
Q 3963 2906 3769 2906 
Q 3419 2906 3187 2673 
Q 2956 2441 2956 1928 
L 2956 0 
L 2394 0 
L 2394 2156 
Q 2394 2531 2256 2718 
Q 2119 2906 1806 2906 
Q 1569 2906 1367 2781 
Q 1166 2656 1075 2415 
Q 984 2175 984 1722 
L 984 0 
L 422 0 
z
" id="ArialMT-6d" transform="scale(0.015625)"/>
       </defs>
       <use xlink:href="#ArialMT-73"/>
       <use x="50" xlink:href="#ArialMT-70"/>
       <use x="105.615234" xlink:href="#ArialMT-65"/>
       <use x="161.230469" xlink:href="#ArialMT-61"/>
       <use x="216.845703" xlink:href="#ArialMT-72"/>
       <use x="250.146484" xlink:href="#ArialMT-6d"/>
       <use x="333.447266" xlink:href="#ArialMT-61"/>
       <use x="389.0625" xlink:href="#ArialMT-6e"/>
      </g>
     </g>
    </g>
    <g id="xtick_4">
     <g id="text_4">
      <!-- MAE -->
      <g style="fill:#262626;" transform="translate(379.511458 314.17591)scale(0.24 -0.24)">
       <defs>
        <path d="M 475 0 
L 475 4581 
L 1388 4581 
L 2472 1338 
Q 2622 884 2691 659 
Q 2769 909 2934 1394 
L 4031 4581 
L 4847 4581 
L 4847 0 
L 4263 0 
L 4263 3834 
L 2931 0 
L 2384 0 
L 1059 3900 
L 1059 0 
L 475 0 
z
" id="ArialMT-4d" transform="scale(0.015625)"/>
        <path d="M -9 0 
L 1750 4581 
L 2403 4581 
L 4278 0 
L 3588 0 
L 3053 1388 
L 1138 1388 
L 634 0 
L -9 0 
z
M 1313 1881 
L 2866 1881 
L 2388 3150 
Q 2169 3728 2063 4100 
Q 1975 3659 1816 3225 
L 1313 1881 
z
" id="ArialMT-41" transform="scale(0.015625)"/>
        <path d="M 506 0 
L 506 4581 
L 3819 4581 
L 3819 4041 
L 1113 4041 
L 1113 2638 
L 3647 2638 
L 3647 2100 
L 1113 2100 
L 1113 541 
L 3925 541 
L 3925 0 
L 506 0 
z
" id="ArialMT-45" transform="scale(0.015625)"/>
       </defs>
       <use xlink:href="#ArialMT-4d"/>
       <use x="83.300781" xlink:href="#ArialMT-41"/>
       <use x="150" xlink:href="#ArialMT-45"/>
      </g>
     </g>
    </g>
    <g id="text_5">
     <!-- Metric -->
     <g style="fill:#262626;" transform="translate(238.718958 340.12466)scale(0.24 -0.24)">
      <defs>
       <path d="M 1650 503 
L 1731 6 
Q 1494 -44 1306 -44 
Q 1000 -44 831 53 
Q 663 150 594 308 
Q 525 466 525 972 
L 525 2881 
L 113 2881 
L 113 3319 
L 525 3319 
L 525 4141 
L 1084 4478 
L 1084 3319 
L 1650 3319 
L 1650 2881 
L 1084 2881 
L 1084 941 
Q 1084 700 1114 631 
Q 1144 563 1211 522 
Q 1278 481 1403 481 
Q 1497 481 1650 503 
z
" id="ArialMT-74" transform="scale(0.015625)"/>
       <path d="M 425 3934 
L 425 4581 
L 988 4581 
L 988 3934 
L 425 3934 
z
M 425 0 
L 425 3319 
L 988 3319 
L 988 0 
L 425 0 
z
" id="ArialMT-69" transform="scale(0.015625)"/>
       <path d="M 2588 1216 
L 3141 1144 
Q 3050 572 2676 248 
Q 2303 -75 1759 -75 
Q 1078 -75 664 370 
Q 250 816 250 1647 
Q 250 2184 428 2587 
Q 606 2991 970 3192 
Q 1334 3394 1763 3394 
Q 2303 3394 2647 3120 
Q 2991 2847 3088 2344 
L 2541 2259 
Q 2463 2594 2264 2762 
Q 2066 2931 1784 2931 
Q 1359 2931 1093 2626 
Q 828 2322 828 1663 
Q 828 994 1084 691 
Q 1341 388 1753 388 
Q 2084 388 2306 591 
Q 2528 794 2588 1216 
z
" id="ArialMT-63" transform="scale(0.015625)"/>
      </defs>
      <use xlink:href="#ArialMT-4d"/>
      <use x="83.300781" xlink:href="#ArialMT-65"/>
      <use x="138.916016" xlink:href="#ArialMT-74"/>
      <use x="166.699219" xlink:href="#ArialMT-72"/>
      <use x="200" xlink:href="#ArialMT-69"/>
      <use x="222.216797" xlink:href="#ArialMT-63"/>
     </g>
    </g>
   </g>
   <g id="matplotlib.axis_2">
    <g id="ytick_1">
     <g id="line2d_1">
      <path clip-path="url(#p2c2089219f)" d="M 92.54 289.99716 
L 450.226667 289.99716 
" style="fill:none;stroke:#cccccc;stroke-linecap:round;stroke-width:0.8;"/>
     </g>
     <g id="text_6">
      <!-- 0.0 -->
      <g style="fill:#262626;" transform="translate(52.18 298.586535)scale(0.24 -0.24)">
       <defs>
        <path d="M 266 2259 
Q 266 3072 433 3567 
Q 600 4063 929 4331 
Q 1259 4600 1759 4600 
Q 2128 4600 2406 4451 
Q 2684 4303 2865 4023 
Q 3047 3744 3150 3342 
Q 3253 2941 3253 2259 
Q 3253 1453 3087 958 
Q 2922 463 2592 192 
Q 2263 -78 1759 -78 
Q 1097 -78 719 397 
Q 266 969 266 2259 
z
M 844 2259 
Q 844 1131 1108 757 
Q 1372 384 1759 384 
Q 2147 384 2411 759 
Q 2675 1134 2675 2259 
Q 2675 3391 2411 3762 
Q 2147 4134 1753 4134 
Q 1366 4134 1134 3806 
Q 844 3388 844 2259 
z
" id="ArialMT-30" transform="scale(0.015625)"/>
        <path d="M 581 0 
L 581 641 
L 1222 641 
L 1222 0 
L 581 0 
z
" id="ArialMT-2e" transform="scale(0.015625)"/>
       </defs>
       <use xlink:href="#ArialMT-30"/>
       <use x="55.615234" xlink:href="#ArialMT-2e"/>
       <use x="83.398438" xlink:href="#ArialMT-30"/>
      </g>
     </g>
    </g>
    <g id="ytick_2">
     <g id="line2d_2">
      <path clip-path="url(#p2c2089219f)" d="M 92.54 246.215859 
L 450.226667 246.215859 
" style="fill:none;stroke:#cccccc;stroke-linecap:round;stroke-width:0.8;"/>
     </g>
     <g id="text_7">
      <!-- 0.2 -->
      <g style="fill:#262626;" transform="translate(52.18 254.805234)scale(0.24 -0.24)">
       <use xlink:href="#ArialMT-30"/>
       <use x="55.615234" xlink:href="#ArialMT-2e"/>
       <use x="83.398438" xlink:href="#ArialMT-32"/>
      </g>
     </g>
    </g>
    <g id="ytick_3">
     <g id="line2d_3">
      <path clip-path="url(#p2c2089219f)" d="M 92.54 202.434557 
L 450.226667 202.434557 
" style="fill:none;stroke:#cccccc;stroke-linecap:round;stroke-width:0.8;"/>
     </g>
     <g id="text_8">
      <!-- 0.4 -->
      <g style="fill:#262626;" transform="translate(52.18 211.023932)scale(0.24 -0.24)">
       <defs>
        <path d="M 2069 0 
L 2069 1097 
L 81 1097 
L 81 1613 
L 2172 4581 
L 2631 4581 
L 2631 1613 
L 3250 1613 
L 3250 1097 
L 2631 1097 
L 2631 0 
L 2069 0 
z
M 2069 1613 
L 2069 3678 
L 634 1613 
L 2069 1613 
z
" id="ArialMT-34" transform="scale(0.015625)"/>
       </defs>
       <use xlink:href="#ArialMT-30"/>
       <use x="55.615234" xlink:href="#ArialMT-2e"/>
       <use x="83.398438" xlink:href="#ArialMT-34"/>
      </g>
     </g>
    </g>
    <g id="ytick_4">
     <g id="line2d_4">
      <path clip-path="url(#p2c2089219f)" d="M 92.54 158.653255 
L 450.226667 158.653255 
" style="fill:none;stroke:#cccccc;stroke-linecap:round;stroke-width:0.8;"/>
     </g>
     <g id="text_9">
      <!-- 0.6 -->
      <g style="fill:#262626;" transform="translate(52.18 167.24263)scale(0.24 -0.24)">
       <defs>
        <path d="M 3184 3459 
L 2625 3416 
Q 2550 3747 2413 3897 
Q 2184 4138 1850 4138 
Q 1581 4138 1378 3988 
Q 1113 3794 959 3422 
Q 806 3050 800 2363 
Q 1003 2672 1297 2822 
Q 1591 2972 1913 2972 
Q 2475 2972 2870 2558 
Q 3266 2144 3266 1488 
Q 3266 1056 3080 686 
Q 2894 316 2569 119 
Q 2244 -78 1831 -78 
Q 1128 -78 684 439 
Q 241 956 241 2144 
Q 241 3472 731 4075 
Q 1159 4600 1884 4600 
Q 2425 4600 2770 4297 
Q 3116 3994 3184 3459 
z
M 888 1484 
Q 888 1194 1011 928 
Q 1134 663 1356 523 
Q 1578 384 1822 384 
Q 2178 384 2434 671 
Q 2691 959 2691 1453 
Q 2691 1928 2437 2201 
Q 2184 2475 1800 2475 
Q 1419 2475 1153 2201 
Q 888 1928 888 1484 
z
" id="ArialMT-36" transform="scale(0.015625)"/>
       </defs>
       <use xlink:href="#ArialMT-30"/>
       <use x="55.615234" xlink:href="#ArialMT-2e"/>
       <use x="83.398438" xlink:href="#ArialMT-36"/>
      </g>
     </g>
    </g>
    <g id="ytick_5">
     <g id="line2d_5">
      <path clip-path="url(#p2c2089219f)" d="M 92.54 114.871953 
L 450.226667 114.871953 
" style="fill:none;stroke:#cccccc;stroke-linecap:round;stroke-width:0.8;"/>
     </g>
     <g id="text_10">
      <!-- 0.8 -->
      <g style="fill:#262626;" transform="translate(52.18 123.461328)scale(0.24 -0.24)">
       <defs>
        <path d="M 1131 2484 
Q 781 2613 612 2850 
Q 444 3088 444 3419 
Q 444 3919 803 4259 
Q 1163 4600 1759 4600 
Q 2359 4600 2725 4251 
Q 3091 3903 3091 3403 
Q 3091 3084 2923 2848 
Q 2756 2613 2416 2484 
Q 2838 2347 3058 2040 
Q 3278 1734 3278 1309 
Q 3278 722 2862 322 
Q 2447 -78 1769 -78 
Q 1091 -78 675 323 
Q 259 725 259 1325 
Q 259 1772 486 2073 
Q 713 2375 1131 2484 
z
M 1019 3438 
Q 1019 3113 1228 2906 
Q 1438 2700 1772 2700 
Q 2097 2700 2305 2904 
Q 2513 3109 2513 3406 
Q 2513 3716 2298 3927 
Q 2084 4138 1766 4138 
Q 1444 4138 1231 3931 
Q 1019 3725 1019 3438 
z
M 838 1322 
Q 838 1081 952 856 
Q 1066 631 1291 507 
Q 1516 384 1775 384 
Q 2178 384 2440 643 
Q 2703 903 2703 1303 
Q 2703 1709 2433 1975 
Q 2163 2241 1756 2241 
Q 1359 2241 1098 1978 
Q 838 1716 838 1322 
z
" id="ArialMT-38" transform="scale(0.015625)"/>
       </defs>
       <use xlink:href="#ArialMT-30"/>
       <use x="55.615234" xlink:href="#ArialMT-2e"/>
       <use x="83.398438" xlink:href="#ArialMT-38"/>
      </g>
     </g>
    </g>
    <g id="ytick_6">
     <g id="line2d_6">
      <path clip-path="url(#p2c2089219f)" d="M 92.54 71.090651 
L 450.226667 71.090651 
" style="fill:none;stroke:#cccccc;stroke-linecap:round;stroke-width:0.8;"/>
     </g>
     <g id="text_11">
      <!-- 1.0 -->
      <g style="fill:#262626;" transform="translate(52.18 79.680026)scale(0.24 -0.24)">
       <defs>
        <path d="M 2384 0 
L 1822 0 
L 1822 3584 
Q 1619 3391 1289 3197 
Q 959 3003 697 2906 
L 697 3450 
Q 1169 3672 1522 3987 
Q 1875 4303 2022 4600 
L 2384 4600 
L 2384 0 
z
" id="ArialMT-31" transform="scale(0.015625)"/>
       </defs>
       <use xlink:href="#ArialMT-31"/>
       <use x="55.615234" xlink:href="#ArialMT-2e"/>
       <use x="83.398438" xlink:href="#ArialMT-30"/>
      </g>
     </g>
    </g>
    <g id="text_12">
     <!-- Value -->
     <g style="fill:#262626;" transform="translate(43.41 199.40358)rotate(-90)scale(0.24 -0.24)">
      <defs>
       <path d="M 1803 0 
L 28 4581 
L 684 4581 
L 1875 1253 
Q 2019 853 2116 503 
Q 2222 878 2363 1253 
L 3600 4581 
L 4219 4581 
L 2425 0 
L 1803 0 
z
" id="ArialMT-56" transform="scale(0.015625)"/>
       <path d="M 409 0 
L 409 4581 
L 972 4581 
L 972 0 
L 409 0 
z
" id="ArialMT-6c" transform="scale(0.015625)"/>
       <path d="M 2597 0 
L 2597 488 
Q 2209 -75 1544 -75 
Q 1250 -75 995 37 
Q 741 150 617 320 
Q 494 491 444 738 
Q 409 903 409 1263 
L 409 3319 
L 972 3319 
L 972 1478 
Q 972 1038 1006 884 
Q 1059 663 1231 536 
Q 1403 409 1656 409 
Q 1909 409 2131 539 
Q 2353 669 2445 892 
Q 2538 1116 2538 1541 
L 2538 3319 
L 3100 3319 
L 3100 0 
L 2597 0 
z
" id="ArialMT-75" transform="scale(0.015625)"/>
      </defs>
      <use xlink:href="#ArialMT-56"/>
      <use x="59.324219" xlink:href="#ArialMT-61"/>
      <use x="114.939453" xlink:href="#ArialMT-6c"/>
      <use x="137.15625" xlink:href="#ArialMT-75"/>
      <use x="192.771484" xlink:href="#ArialMT-65"/>
     </g>
    </g>
   </g>
   <g id="PathCollection_1"/>
   <g id="PathCollection_2"/>
   <g id="patch_3">
    <path clip-path="url(#p2c2089219f)" d="M 101.482167 289.99716 
L 137.250833 289.99716 
L 137.250833 141.040968 
L 101.482167 141.040968 
z
" style="fill:#7f9dd2;stroke:#000000;stroke-linejoin:miter;"/>
   </g>
   <g id="patch_4">
    <path clip-path="url(#p2c2089219f)" d="M 190.903833 289.99716 
L 226.6725 289.99716 
L 226.6725 109.42302 
L 190.903833 109.42302 
z
" style="fill:#7f9dd2;stroke:#000000;stroke-linejoin:miter;"/>
   </g>
   <g id="patch_5">
    <path clip-path="url(#p2c2089219f)" d="M 280.3255 289.99716 
L 316.094167 289.99716 
L 316.094167 109.304998 
L 280.3255 109.304998 
z
" style="fill:#7f9dd2;stroke:#000000;stroke-linejoin:miter;"/>
   </g>
   <g id="patch_6">
    <path clip-path="url(#p2c2089219f)" d="M 369.747167 289.99716 
L 405.515833 289.99716 
L 405.515833 260.548848 
L 369.747167 260.548848 
z
" style="fill:#7f9dd2;stroke:#000000;stroke-linejoin:miter;"/>
   </g>
   <g id="patch_7">
    <path clip-path="url(#p2c2089219f)" d="M 137.250833 289.99716 
L 173.0195 289.99716 
L 173.0195 266.579317 
L 137.250833 266.579317 
z
" style="fill:#d3d3d3;stroke:#000000;stroke-linejoin:miter;"/>
   </g>
   <g id="patch_8">
    <path clip-path="url(#p2c2089219f)" d="M 226.6725 289.99716 
L 262.441167 289.99716 
L 262.441167 218.402858 
L 226.6725 218.402858 
z
" style="fill:#d3d3d3;stroke:#000000;stroke-linejoin:miter;"/>
   </g>
   <g id="patch_9">
    <path clip-path="url(#p2c2089219f)" d="M 316.094167 289.99716 
L 351.862833 289.99716 
L 351.862833 220.958826 
L 316.094167 220.958826 
z
" style="fill:#d3d3d3;stroke:#000000;stroke-linejoin:miter;"/>
   </g>
   <g id="patch_10">
    <path clip-path="url(#p2c2089219f)" d="M 405.515833 289.99716 
L 441.2845 289.99716 
L 441.2845 235.403142 
L 405.515833 235.403142 
z
" style="fill:#d3d3d3;stroke:#000000;stroke-linejoin:miter;"/>
   </g>
   <g id="line2d_7">
    <path clip-path="url(#p2c2089219f)" d="M 119.3665 142.15965 
L 119.3665 139.922286 
" style="fill:none;stroke:#000000;stroke-linecap:round;stroke-width:1.5;"/>
   </g>
   <g id="line2d_8">
    <path clip-path="url(#p2c2089219f)" d="M 110.424333 142.15965 
L 128.308667 142.15965 
" style="fill:none;stroke:#000000;stroke-linecap:round;stroke-width:1.5;"/>
   </g>
   <g id="line2d_9">
    <path clip-path="url(#p2c2089219f)" d="M 110.424333 139.922286 
L 128.308667 139.922286 
" style="fill:none;stroke:#000000;stroke-linecap:round;stroke-width:1.5;"/>
   </g>
   <g id="line2d_10">
    <path clip-path="url(#p2c2089219f)" d="M 208.788167 110.101242 
L 208.788167 108.744799 
" style="fill:none;stroke:#000000;stroke-linecap:round;stroke-width:1.5;"/>
   </g>
   <g id="line2d_11">
    <path clip-path="url(#p2c2089219f)" d="M 199.846 110.101242 
L 217.730333 110.101242 
" style="fill:none;stroke:#000000;stroke-linecap:round;stroke-width:1.5;"/>
   </g>
   <g id="line2d_12">
    <path clip-path="url(#p2c2089219f)" d="M 199.846 108.744799 
L 217.730333 108.744799 
" style="fill:none;stroke:#000000;stroke-linecap:round;stroke-width:1.5;"/>
   </g>
   <g id="line2d_13">
    <path clip-path="url(#p2c2089219f)" d="M 298.209833 109.900733 
L 298.209833 108.709262 
" style="fill:none;stroke:#000000;stroke-linecap:round;stroke-width:1.5;"/>
   </g>
   <g id="line2d_14">
    <path clip-path="url(#p2c2089219f)" d="M 289.267667 109.900733 
L 307.152 109.900733 
" style="fill:none;stroke:#000000;stroke-linecap:round;stroke-width:1.5;"/>
   </g>
   <g id="line2d_15">
    <path clip-path="url(#p2c2089219f)" d="M 289.267667 108.709262 
L 307.152 108.709262 
" style="fill:none;stroke:#000000;stroke-linecap:round;stroke-width:1.5;"/>
   </g>
   <g id="line2d_16">
    <path clip-path="url(#p2c2089219f)" d="M 387.6315 260.826195 
L 387.6315 260.271501 
" style="fill:none;stroke:#000000;stroke-linecap:round;stroke-width:1.5;"/>
   </g>
   <g id="line2d_17">
    <path clip-path="url(#p2c2089219f)" d="M 378.689333 260.826195 
L 396.573667 260.826195 
" style="fill:none;stroke:#000000;stroke-linecap:round;stroke-width:1.5;"/>
   </g>
   <g id="line2d_18">
    <path clip-path="url(#p2c2089219f)" d="M 378.689333 260.271501 
L 396.573667 260.271501 
" style="fill:none;stroke:#000000;stroke-linecap:round;stroke-width:1.5;"/>
   </g>
   <g id="line2d_19">
    <path clip-path="url(#p2c2089219f)" d="M 155.135167 267.075135 
L 155.135167 266.083499 
" style="fill:none;stroke:#000000;stroke-linecap:round;stroke-width:1.5;"/>
   </g>
   <g id="line2d_20">
    <path clip-path="url(#p2c2089219f)" d="M 146.193 267.075135 
L 164.077333 267.075135 
" style="fill:none;stroke:#000000;stroke-linecap:round;stroke-width:1.5;"/>
   </g>
   <g id="line2d_21">
    <path clip-path="url(#p2c2089219f)" d="M 146.193 266.083499 
L 164.077333 266.083499 
" style="fill:none;stroke:#000000;stroke-linecap:round;stroke-width:1.5;"/>
   </g>
   <g id="line2d_22">
    <path clip-path="url(#p2c2089219f)" d="M 244.556833 219.160761 
L 244.556833 217.644956 
" style="fill:none;stroke:#000000;stroke-linecap:round;stroke-width:1.5;"/>
   </g>
   <g id="line2d_23">
    <path clip-path="url(#p2c2089219f)" d="M 235.614667 219.160761 
L 253.499 219.160761 
" style="fill:none;stroke:#000000;stroke-linecap:round;stroke-width:1.5;"/>
   </g>
   <g id="line2d_24">
    <path clip-path="url(#p2c2089219f)" d="M 235.614667 217.644956 
L 253.499 217.644956 
" style="fill:none;stroke:#000000;stroke-linecap:round;stroke-width:1.5;"/>
   </g>
   <g id="line2d_25">
    <path clip-path="url(#p2c2089219f)" d="M 333.9785 221.786941 
L 333.9785 220.130711 
" style="fill:none;stroke:#000000;stroke-linecap:round;stroke-width:1.5;"/>
   </g>
   <g id="line2d_26">
    <path clip-path="url(#p2c2089219f)" d="M 325.036333 221.786941 
L 342.920667 221.786941 
" style="fill:none;stroke:#000000;stroke-linecap:round;stroke-width:1.5;"/>
   </g>
   <g id="line2d_27">
    <path clip-path="url(#p2c2089219f)" d="M 325.036333 220.130711 
L 342.920667 220.130711 
" style="fill:none;stroke:#000000;stroke-linecap:round;stroke-width:1.5;"/>
   </g>
   <g id="line2d_28">
    <path clip-path="url(#p2c2089219f)" d="M 423.400167 235.488532 
L 423.400167 235.317751 
" style="fill:none;stroke:#000000;stroke-linecap:round;stroke-width:1.5;"/>
   </g>
   <g id="line2d_29">
    <path clip-path="url(#p2c2089219f)" d="M 414.458 235.488532 
L 432.342333 235.488532 
" style="fill:none;stroke:#000000;stroke-linecap:round;stroke-width:1.5;"/>
   </g>
   <g id="line2d_30">
    <path clip-path="url(#p2c2089219f)" d="M 414.458 235.317751 
L 432.342333 235.317751 
" style="fill:none;stroke:#000000;stroke-linecap:round;stroke-width:1.5;"/>
   </g>
   <g id="patch_11">
    <path d="M 92.54 289.99716 
L 92.54 49.2 
" style="fill:none;stroke:#cccccc;stroke-linecap:square;stroke-linejoin:miter;stroke-width:0.8;"/>
   </g>
   <g id="patch_12">
    <path d="M 92.54 289.99716 
L 450.226667 289.99716 
" style="fill:none;stroke:#cccccc;stroke-linecap:square;stroke-linejoin:miter;stroke-width:0.8;"/>
   </g>
   <g id="PathCollection_3">
    <defs>
     <path d="M 0 5 
C 1.326016 5 2.597899 4.473168 3.535534 3.535534 
C 4.473168 2.597899 5 1.326016 5 -0 
C 5 -1.326016 4.473168 -2.597899 3.535534 -3.535534 
C 2.597899 -4.473168 1.326016 -5 0 -5 
C -1.326016 -5 -2.597899 -4.473168 -3.535534 -3.535534 
C -4.473168 -2.597899 -5 -1.326016 -5 0 
C -5 1.326016 -4.473168 2.597899 -3.535534 3.535534 
C -2.597899 4.473168 -1.326016 5 0 5 
z
" id="C0_0_93d40f4b1a"/>
    </defs>
    <g clip-path="url(#p2c2089219f)">
     <use style="fill:#6495ed;stroke:#000000;" x="119.3665" xlink:href="#C0_0_93d40f4b1a" y="142.450419"/>
    </g>
    <g clip-path="url(#p2c2089219f)">
     <use style="fill:#6495ed;stroke:#000000;" x="108.600346" xlink:href="#C0_0_93d40f4b1a" y="140.958545"/>
    </g>
    <g clip-path="url(#p2c2089219f)">
     <use style="fill:#6495ed;stroke:#000000;" x="129.533103" xlink:href="#C0_0_93d40f4b1a" y="139.713941"/>
    </g>
   </g>
   <g id="PathCollection_4">
    <defs>
     <path d="M 0 5 
C 1.326016 5 2.597899 4.473168 3.535534 3.535534 
C 4.473168 2.597899 5 1.326016 5 -0 
C 5 -1.326016 4.473168 -2.597899 3.535534 -3.535534 
C 2.597899 -4.473168 1.326016 -5 0 -5 
C -1.326016 -5 -2.597899 -4.473168 -3.535534 -3.535534 
C -4.473168 -2.597899 -5 -1.326016 -5 0 
C -5 1.326016 -4.473168 2.597899 -3.535534 3.535534 
C -2.597899 4.473168 -1.326016 5 0 5 
z
" id="C1_0_d622e046fa"/>
    </defs>
    <g clip-path="url(#p2c2089219f)">
     <use style="fill:#d3d3d3;stroke:#000000;" x="155.135167" xlink:href="#C1_0_d622e046fa" y="267.181161"/>
    </g>
    <g clip-path="url(#p2c2089219f)">
     <use style="fill:#d3d3d3;stroke:#000000;" x="144.163183" xlink:href="#C1_0_d622e046fa" y="266.589989"/>
    </g>
    <g clip-path="url(#p2c2089219f)">
     <use style="fill:#d3d3d3;stroke:#000000;" x="165.98418" xlink:href="#C1_0_d622e046fa" y="265.966801"/>
    </g>
   </g>
   <g id="PathCollection_5">
    <defs>
     <path d="M 0 5 
C 1.326016 5 2.597899 4.473168 3.535534 3.535534 
C 4.473168 2.597899 5 1.326016 5 -0 
C 5 -1.326016 4.473168 -2.597899 3.535534 -3.535534 
C 2.597899 -4.473168 1.326016 -5 0 -5 
C -1.326016 -5 -2.597899 -4.473168 -3.535534 -3.535534 
C -4.473168 -2.597899 -5 -1.326016 -5 0 
C -5 1.326016 -4.473168 2.597899 -3.535534 3.535534 
C -2.597899 4.473168 -1.326016 5 0 5 
z
" id="C2_0_c3425373d9"/>
    </defs>
    <g clip-path="url(#p2c2089219f)">
     <use style="fill:#6495ed;stroke:#000000;" x="208.788167" xlink:href="#C2_0_c3425373d9" y="110.278097"/>
    </g>
    <g clip-path="url(#p2c2089219f)">
     <use style="fill:#6495ed;stroke:#000000;" x="197.867588" xlink:href="#C2_0_c3425373d9" y="109.371793"/>
    </g>
    <g clip-path="url(#p2c2089219f)">
     <use style="fill:#6495ed;stroke:#000000;" x="219.495867" xlink:href="#C2_0_c3425373d9" y="108.619171"/>
    </g>
   </g>
   <g id="PathCollection_6">
    <defs>
     <path d="M 0 5 
C 1.326016 5 2.597899 4.473168 3.535534 3.535534 
C 4.473168 2.597899 5 1.326016 5 -0 
C 5 -1.326016 4.473168 -2.597899 3.535534 -3.535534 
C 2.597899 -4.473168 1.326016 -5 0 -5 
C -1.326016 -5 -2.597899 -4.473168 -3.535534 -3.535534 
C -4.473168 -2.597899 -5 -1.326016 -5 0 
C -5 1.326016 -4.473168 2.597899 -3.535534 3.535534 
C -2.597899 4.473168 -1.326016 5 0 5 
z
" id="C3_0_27a68ee7c8"/>
    </defs>
    <g clip-path="url(#p2c2089219f)">
     <use style="fill:#d3d3d3;stroke:#000000;" x="244.556833" xlink:href="#C3_0_27a68ee7c8" y="219.324882"/>
    </g>
    <g clip-path="url(#p2c2089219f)">
     <use style="fill:#d3d3d3;stroke:#000000;" x="233.636932" xlink:href="#C3_0_27a68ee7c8" y="218.415163"/>
    </g>
    <g clip-path="url(#p2c2089219f)">
     <use style="fill:#d3d3d3;stroke:#000000;" x="255.186969" xlink:href="#C3_0_27a68ee7c8" y="217.46853"/>
    </g>
   </g>
   <g id="PathCollection_7">
    <defs>
     <path d="M 0 5 
C 1.326016 5 2.597899 4.473168 3.535534 3.535534 
C 4.473168 2.597899 5 1.326016 5 -0 
C 5 -1.326016 4.473168 -2.597899 3.535534 -3.535534 
C 2.597899 -4.473168 1.326016 -5 0 -5 
C -1.326016 -5 -2.597899 -4.473168 -3.535534 -3.535534 
C -4.473168 -2.597899 -5 -1.326016 -5 0 
C -5 1.326016 -4.473168 2.597899 -3.535534 3.535534 
C -2.597899 4.473168 -1.326016 5 0 5 
z
" id="C4_0_4e188a6a8c"/>
    </defs>
    <g clip-path="url(#p2c2089219f)">
     <use style="fill:#6495ed;stroke:#000000;" x="298.209833" xlink:href="#C4_0_4e188a6a8c" y="110.05259"/>
    </g>
    <g clip-path="url(#p2c2089219f)">
     <use style="fill:#6495ed;stroke:#000000;" x="287.266871" xlink:href="#C4_0_4e188a6a8c" y="109.267624"/>
    </g>
    <g clip-path="url(#p2c2089219f)">
     <use style="fill:#6495ed;stroke:#000000;" x="308.987109" xlink:href="#C4_0_4e188a6a8c" y="108.594778"/>
    </g>
   </g>
   <g id="PathCollection_8">
    <defs>
     <path d="M 0 5 
C 1.326016 5 2.597899 4.473168 3.535534 3.535534 
C 4.473168 2.597899 5 1.326016 5 -0 
C 5 -1.326016 4.473168 -2.597899 3.535534 -3.535534 
C 2.597899 -4.473168 1.326016 -5 0 -5 
C -1.326016 -5 -2.597899 -4.473168 -3.535534 -3.535534 
C -4.473168 -2.597899 -5 -1.326016 -5 0 
C -5 1.326016 -4.473168 2.597899 -3.535534 3.535534 
C -2.597899 4.473168 -1.326016 5 0 5 
z
" id="C5_0_b98f337a64"/>
    </defs>
    <g clip-path="url(#p2c2089219f)">
     <use style="fill:#d3d3d3;stroke:#000000;" x="333.9785" xlink:href="#C5_0_b98f337a64" y="221.703014"/>
    </g>
    <g clip-path="url(#p2c2089219f)">
     <use style="fill:#d3d3d3;stroke:#000000;" x="322.980628" xlink:href="#C5_0_b98f337a64" y="221.369867"/>
    </g>
    <g clip-path="url(#p2c2089219f)">
     <use style="fill:#d3d3d3;stroke:#000000;" x="344.590477" xlink:href="#C5_0_b98f337a64" y="219.803597"/>
    </g>
   </g>
   <g id="PathCollection_9">
    <defs>
     <path d="M 0 5 
C 1.326016 5 2.597899 4.473168 3.535534 3.535534 
C 4.473168 2.597899 5 1.326016 5 -0 
C 5 -1.326016 4.473168 -2.597899 3.535534 -3.535534 
C 2.597899 -4.473168 1.326016 -5 0 -5 
C -1.326016 -5 -2.597899 -4.473168 -3.535534 -3.535534 
C -4.473168 -2.597899 -5 -1.326016 -5 0 
C -5 1.326016 -4.473168 2.597899 -3.535534 3.535534 
C -2.597899 4.473168 -1.326016 5 0 5 
z
" id="C6_0_0afd3a92a6"/>
    </defs>
    <g clip-path="url(#p2c2089219f)">
     <use style="fill:#6495ed;stroke:#000000;" x="387.6315" xlink:href="#C6_0_0afd3a92a6" y="260.768238"/>
    </g>
    <g clip-path="url(#p2c2089219f)">
     <use style="fill:#6495ed;stroke:#000000;" x="376.621846" xlink:href="#C6_0_0afd3a92a6" y="260.720726"/>
    </g>
    <g clip-path="url(#p2c2089219f)">
     <use style="fill:#6495ed;stroke:#000000;" x="398.600938" xlink:href="#C6_0_0afd3a92a6" y="260.157581"/>
    </g>
   </g>
   <g id="PathCollection_10">
    <defs>
     <path d="M 0 5 
C 1.326016 5 2.597899 4.473168 3.535534 3.535534 
C 4.473168 2.597899 5 1.326016 5 -0 
C 5 -1.326016 4.473168 -2.597899 3.535534 -3.535534 
C 2.597899 -4.473168 1.326016 -5 0 -5 
C -1.326016 -5 -2.597899 -4.473168 -3.535534 -3.535534 
C -4.473168 -2.597899 -5 -1.326016 -5 0 
C -5 1.326016 -4.473168 2.597899 -3.535534 3.535534 
C -2.597899 4.473168 -1.326016 5 0 5 
z
" id="C7_0_01d68a3cd2"/>
    </defs>
    <g clip-path="url(#p2c2089219f)">
     <use style="fill:#d3d3d3;stroke:#000000;" x="423.400167" xlink:href="#C7_0_01d68a3cd2" y="235.479348"/>
    </g>
    <g clip-path="url(#p2c2089219f)">
     <use style="fill:#d3d3d3;stroke:#000000;" x="412.390387" xlink:href="#C7_0_01d68a3cd2" y="235.446166"/>
    </g>
    <g clip-path="url(#p2c2089219f)">
     <use style="fill:#d3d3d3;stroke:#000000;" x="434.405928" xlink:href="#C7_0_01d68a3cd2" y="235.28391"/>
    </g>
   </g>
   <g id="text_13">
    <!-- Model = AutoKeras -->
    <g style="fill:#262626;" transform="translate(169.655208 43.2)scale(0.24 -0.24)">
     <defs>
      <path d="M 2575 0 
L 2575 419 
Q 2259 -75 1647 -75 
Q 1250 -75 917 144 
Q 584 363 401 755 
Q 219 1147 219 1656 
Q 219 2153 384 2558 
Q 550 2963 881 3178 
Q 1213 3394 1622 3394 
Q 1922 3394 2156 3267 
Q 2391 3141 2538 2938 
L 2538 4581 
L 3097 4581 
L 3097 0 
L 2575 0 
z
M 797 1656 
Q 797 1019 1065 703 
Q 1334 388 1700 388 
Q 2069 388 2326 689 
Q 2584 991 2584 1609 
Q 2584 2291 2321 2609 
Q 2059 2928 1675 2928 
Q 1300 2928 1048 2622 
Q 797 2316 797 1656 
z
" id="ArialMT-64" transform="scale(0.015625)"/>
      <path id="ArialMT-20" transform="scale(0.015625)"/>
      <path d="M 3381 2694 
L 356 2694 
L 356 3219 
L 3381 3219 
L 3381 2694 
z
M 3381 1303 
L 356 1303 
L 356 1828 
L 3381 1828 
L 3381 1303 
z
" id="ArialMT-3d" transform="scale(0.015625)"/>
      <path d="M 469 0 
L 469 4581 
L 1075 4581 
L 1075 2309 
L 3350 4581 
L 4172 4581 
L 2250 2725 
L 4256 0 
L 3456 0 
L 1825 2319 
L 1075 1588 
L 1075 0 
L 469 0 
z
" id="ArialMT-4b" transform="scale(0.015625)"/>
     </defs>
     <use xlink:href="#ArialMT-4d"/>
     <use x="83.300781" xlink:href="#ArialMT-6f"/>
     <use x="138.916016" xlink:href="#ArialMT-64"/>
     <use x="194.53125" xlink:href="#ArialMT-65"/>
     <use x="250.146484" xlink:href="#ArialMT-6c"/>
     <use x="272.363281" xlink:href="#ArialMT-20"/>
     <use x="300.146484" xlink:href="#ArialMT-3d"/>
     <use x="358.544922" xlink:href="#ArialMT-20"/>
     <use x="380.828125" xlink:href="#ArialMT-41"/>
     <use x="447.527344" xlink:href="#ArialMT-75"/>
     <use x="503.142578" xlink:href="#ArialMT-74"/>
     <use x="530.925781" xlink:href="#ArialMT-6f"/>
     <use x="586.541016" xlink:href="#ArialMT-4b"/>
     <use x="653.240234" xlink:href="#ArialMT-65"/>
     <use x="708.855469" xlink:href="#ArialMT-72"/>
     <use x="742.15625" xlink:href="#ArialMT-61"/>
     <use x="797.771484" xlink:href="#ArialMT-73"/>
    </g>
   </g>
   <g id="legend_1">
    <g id="patch_13">
     <path d="M 241.917917 170.835 
L 433.426667 170.835 
Q 438.226667 170.835 438.226667 166.035 
L 438.226667 66 
Q 438.226667 61.2 433.426667 61.2 
L 241.917917 61.2 
Q 237.117917 61.2 237.117917 66 
L 237.117917 166.035 
Q 237.117917 170.835 241.917917 170.835 
z
" style="fill:#ffffff;opacity:0.8;stroke:#cccccc;stroke-linejoin:miter;"/>
    </g>
    <g id="text_14">
     <!-- Data -->
     <g style="fill:#262626;" transform="translate(312.326042 87.97875)scale(0.24 -0.24)">
      <defs>
       <path d="M 494 0 
L 494 4581 
L 2072 4581 
Q 2606 4581 2888 4516 
Q 3281 4425 3559 4188 
Q 3922 3881 4101 3404 
Q 4281 2928 4281 2316 
Q 4281 1794 4159 1391 
Q 4038 988 3847 723 
Q 3656 459 3429 307 
Q 3203 156 2883 78 
Q 2563 0 2147 0 
L 494 0 
z
M 1100 541 
L 2078 541 
Q 2531 541 2789 625 
Q 3047 709 3200 863 
Q 3416 1078 3536 1442 
Q 3656 1806 3656 2325 
Q 3656 3044 3420 3430 
Q 3184 3816 2847 3947 
Q 2603 4041 2063 4041 
L 1100 4041 
L 1100 541 
z
" id="ArialMT-44" transform="scale(0.015625)"/>
      </defs>
      <use xlink:href="#ArialMT-44"/>
      <use x="72.216797" xlink:href="#ArialMT-61"/>
      <use x="127.832031" xlink:href="#ArialMT-74"/>
      <use x="155.615234" xlink:href="#ArialMT-61"/>
     </g>
    </g>
    <g id="patch_14">
     <path d="M 246.717917 122.235 
L 294.717917 122.235 
L 294.717917 105.435 
L 246.717917 105.435 
z
" style="fill:#7f9dd2;stroke:#000000;stroke-linejoin:miter;"/>
    </g>
    <g id="text_15">
     <!-- Original -->
     <g style="fill:#262626;" transform="translate(313.917917 122.235)scale(0.24 -0.24)">
      <defs>
       <path d="M 309 2231 
Q 309 3372 921 4017 
Q 1534 4663 2503 4663 
Q 3138 4663 3647 4359 
Q 4156 4056 4423 3514 
Q 4691 2972 4691 2284 
Q 4691 1588 4409 1038 
Q 4128 488 3612 205 
Q 3097 -78 2500 -78 
Q 1853 -78 1343 234 
Q 834 547 571 1087 
Q 309 1628 309 2231 
z
M 934 2222 
Q 934 1394 1379 917 
Q 1825 441 2497 441 
Q 3181 441 3623 922 
Q 4066 1403 4066 2288 
Q 4066 2847 3877 3264 
Q 3688 3681 3323 3911 
Q 2959 4141 2506 4141 
Q 1863 4141 1398 3698 
Q 934 3256 934 2222 
z
" id="ArialMT-4f" transform="scale(0.015625)"/>
       <path d="M 319 -275 
L 866 -356 
Q 900 -609 1056 -725 
Q 1266 -881 1628 -881 
Q 2019 -881 2231 -725 
Q 2444 -569 2519 -288 
Q 2563 -116 2559 434 
Q 2191 0 1641 0 
Q 956 0 581 494 
Q 206 988 206 1678 
Q 206 2153 378 2554 
Q 550 2956 876 3175 
Q 1203 3394 1644 3394 
Q 2231 3394 2613 2919 
L 2613 3319 
L 3131 3319 
L 3131 450 
Q 3131 -325 2973 -648 
Q 2816 -972 2473 -1159 
Q 2131 -1347 1631 -1347 
Q 1038 -1347 672 -1080 
Q 306 -813 319 -275 
z
M 784 1719 
Q 784 1066 1043 766 
Q 1303 466 1694 466 
Q 2081 466 2343 764 
Q 2606 1063 2606 1700 
Q 2606 2309 2336 2618 
Q 2066 2928 1684 2928 
Q 1309 2928 1046 2623 
Q 784 2319 784 1719 
z
" id="ArialMT-67" transform="scale(0.015625)"/>
      </defs>
      <use xlink:href="#ArialMT-4f"/>
      <use x="77.783203" xlink:href="#ArialMT-72"/>
      <use x="111.083984" xlink:href="#ArialMT-69"/>
      <use x="133.300781" xlink:href="#ArialMT-67"/>
      <use x="188.916016" xlink:href="#ArialMT-69"/>
      <use x="211.132812" xlink:href="#ArialMT-6e"/>
      <use x="266.748047" xlink:href="#ArialMT-61"/>
      <use x="322.363281" xlink:href="#ArialMT-6c"/>
     </g>
    </g>
    <g id="patch_15">
     <path d="M 246.717917 156.465 
L 294.717917 156.465 
L 294.717917 139.665 
L 246.717917 139.665 
z
" style="fill:#d3d3d3;stroke:#000000;stroke-linejoin:miter;"/>
    </g>
    <g id="text_16">
     <!-- Scrambled -->
     <g style="fill:#262626;" transform="translate(313.917917 156.465)scale(0.24 -0.24)">
      <defs>
       <path d="M 288 1472 
L 859 1522 
Q 900 1178 1048 958 
Q 1197 738 1509 602 
Q 1822 466 2213 466 
Q 2559 466 2825 569 
Q 3091 672 3220 851 
Q 3350 1031 3350 1244 
Q 3350 1459 3225 1620 
Q 3100 1781 2813 1891 
Q 2628 1963 1997 2114 
Q 1366 2266 1113 2400 
Q 784 2572 623 2826 
Q 463 3081 463 3397 
Q 463 3744 659 4045 
Q 856 4347 1234 4503 
Q 1613 4659 2075 4659 
Q 2584 4659 2973 4495 
Q 3363 4331 3572 4012 
Q 3781 3694 3797 3291 
L 3216 3247 
Q 3169 3681 2898 3903 
Q 2628 4125 2100 4125 
Q 1550 4125 1298 3923 
Q 1047 3722 1047 3438 
Q 1047 3191 1225 3031 
Q 1400 2872 2139 2705 
Q 2878 2538 3153 2413 
Q 3553 2228 3743 1945 
Q 3934 1663 3934 1294 
Q 3934 928 3725 604 
Q 3516 281 3123 101 
Q 2731 -78 2241 -78 
Q 1619 -78 1198 103 
Q 778 284 539 648 
Q 300 1013 288 1472 
z
" id="ArialMT-53" transform="scale(0.015625)"/>
       <path d="M 941 0 
L 419 0 
L 419 4581 
L 981 4581 
L 981 2947 
Q 1338 3394 1891 3394 
Q 2197 3394 2470 3270 
Q 2744 3147 2920 2923 
Q 3097 2700 3197 2384 
Q 3297 2069 3297 1709 
Q 3297 856 2875 390 
Q 2453 -75 1863 -75 
Q 1275 -75 941 416 
L 941 0 
z
M 934 1684 
Q 934 1088 1097 822 
Q 1363 388 1816 388 
Q 2184 388 2453 708 
Q 2722 1028 2722 1663 
Q 2722 2313 2464 2622 
Q 2206 2931 1841 2931 
Q 1472 2931 1203 2611 
Q 934 2291 934 1684 
z
" id="ArialMT-62" transform="scale(0.015625)"/>
      </defs>
      <use xlink:href="#ArialMT-53"/>
      <use x="66.699219" xlink:href="#ArialMT-63"/>
      <use x="116.699219" xlink:href="#ArialMT-72"/>
      <use x="150" xlink:href="#ArialMT-61"/>
      <use x="205.615234" xlink:href="#ArialMT-6d"/>
      <use x="288.916016" xlink:href="#ArialMT-62"/>
      <use x="344.53125" xlink:href="#ArialMT-6c"/>
      <use x="366.748047" xlink:href="#ArialMT-65"/>
      <use x="422.363281" xlink:href="#ArialMT-64"/>
     </g>
    </g>
   </g>
  </g>
  <g id="axes_2">
   <g id="patch_16">
    <path d="M 502.466667 289.99716 
L 860.153333 289.99716 
L 860.153333 49.2 
L 502.466667 49.2 
z
" style="fill:#ffffff;"/>
   </g>
   <g id="matplotlib.axis_3">
    <g id="xtick_5">
     <g id="text_17">
      <!-- r2 -->
      <g style="fill:#262626;" transform="translate(536.50875 314.17591)scale(0.24 -0.24)">
       <use xlink:href="#ArialMT-72"/>
       <use x="33.300781" xlink:href="#ArialMT-32"/>
      </g>
     </g>
    </g>
    <g id="xtick_6">
     <g id="text_18">
      <!-- pearson -->
      <g style="fill:#262626;" transform="translate(593.237917 314.17591)scale(0.24 -0.24)">
       <use xlink:href="#ArialMT-70"/>
       <use x="55.615234" xlink:href="#ArialMT-65"/>
       <use x="111.230469" xlink:href="#ArialMT-61"/>
       <use x="166.845703" xlink:href="#ArialMT-72"/>
       <use x="200.146484" xlink:href="#ArialMT-73"/>
       <use x="250.146484" xlink:href="#ArialMT-6f"/>
       <use x="305.761719" xlink:href="#ArialMT-6e"/>
      </g>
     </g>
    </g>
    <g id="xtick_7">
     <g id="text_19">
      <!-- spearman -->
      <g style="fill:#262626;" transform="translate(672.663958 314.17591)scale(0.24 -0.24)">
       <use xlink:href="#ArialMT-73"/>
       <use x="50" xlink:href="#ArialMT-70"/>
       <use x="105.615234" xlink:href="#ArialMT-65"/>
       <use x="161.230469" xlink:href="#ArialMT-61"/>
       <use x="216.845703" xlink:href="#ArialMT-72"/>
       <use x="250.146484" xlink:href="#ArialMT-6d"/>
       <use x="333.447266" xlink:href="#ArialMT-61"/>
       <use x="389.0625" xlink:href="#ArialMT-6e"/>
      </g>
     </g>
    </g>
    <g id="xtick_8">
     <g id="text_20">
      <!-- MAE -->
      <g style="fill:#262626;" transform="translate(789.438125 314.17591)scale(0.24 -0.24)">
       <use xlink:href="#ArialMT-4d"/>
       <use x="83.300781" xlink:href="#ArialMT-41"/>
       <use x="150" xlink:href="#ArialMT-45"/>
      </g>
     </g>
    </g>
    <g id="text_21">
     <!-- Metric -->
     <g style="fill:#262626;" transform="translate(648.645625 340.12466)scale(0.24 -0.24)">
      <use xlink:href="#ArialMT-4d"/>
      <use x="83.300781" xlink:href="#ArialMT-65"/>
      <use x="138.916016" xlink:href="#ArialMT-74"/>
      <use x="166.699219" xlink:href="#ArialMT-72"/>
      <use x="200" xlink:href="#ArialMT-69"/>
      <use x="222.216797" xlink:href="#ArialMT-63"/>
     </g>
    </g>
   </g>
   <g id="matplotlib.axis_4">
    <g id="ytick_7">
     <g id="line2d_31">
      <path clip-path="url(#pfa81e444cd)" d="M 502.466667 289.99716 
L 860.153333 289.99716 
" style="fill:none;stroke:#cccccc;stroke-linecap:round;stroke-width:0.8;"/>
     </g>
    </g>
    <g id="ytick_8">
     <g id="line2d_32">
      <path clip-path="url(#pfa81e444cd)" d="M 502.466667 246.215859 
L 860.153333 246.215859 
" style="fill:none;stroke:#cccccc;stroke-linecap:round;stroke-width:0.8;"/>
     </g>
    </g>
    <g id="ytick_9">
     <g id="line2d_33">
      <path clip-path="url(#pfa81e444cd)" d="M 502.466667 202.434557 
L 860.153333 202.434557 
" style="fill:none;stroke:#cccccc;stroke-linecap:round;stroke-width:0.8;"/>
     </g>
    </g>
    <g id="ytick_10">
     <g id="line2d_34">
      <path clip-path="url(#pfa81e444cd)" d="M 502.466667 158.653255 
L 860.153333 158.653255 
" style="fill:none;stroke:#cccccc;stroke-linecap:round;stroke-width:0.8;"/>
     </g>
    </g>
    <g id="ytick_11">
     <g id="line2d_35">
      <path clip-path="url(#pfa81e444cd)" d="M 502.466667 114.871953 
L 860.153333 114.871953 
" style="fill:none;stroke:#cccccc;stroke-linecap:round;stroke-width:0.8;"/>
     </g>
    </g>
    <g id="ytick_12">
     <g id="line2d_36">
      <path clip-path="url(#pfa81e444cd)" d="M 502.466667 71.090651 
L 860.153333 71.090651 
" style="fill:none;stroke:#cccccc;stroke-linecap:round;stroke-width:0.8;"/>
     </g>
    </g>
   </g>
   <g id="PathCollection_11"/>
   <g id="PathCollection_12"/>
   <g id="patch_17">
    <path clip-path="url(#pfa81e444cd)" d="M 511.408833 289.99716 
L 547.1775 289.99716 
L 547.1775 141.552798 
L 511.408833 141.552798 
z
" style="fill:#7f9dd2;stroke:#000000;stroke-linejoin:miter;"/>
   </g>
   <g id="patch_18">
    <path clip-path="url(#pfa81e444cd)" d="M 600.8305 289.99716 
L 636.599167 289.99716 
L 636.599167 109.79249 
L 600.8305 109.79249 
z
" style="fill:#7f9dd2;stroke:#000000;stroke-linejoin:miter;"/>
   </g>
   <g id="patch_19">
    <path clip-path="url(#pfa81e444cd)" d="M 690.252167 289.99716 
L 726.020833 289.99716 
L 726.020833 108.533923 
L 690.252167 108.533923 
z
" style="fill:#7f9dd2;stroke:#000000;stroke-linejoin:miter;"/>
   </g>
   <g id="patch_20">
    <path clip-path="url(#pfa81e444cd)" d="M 779.673833 289.99716 
L 815.4425 289.99716 
L 815.4425 259.757337 
L 779.673833 259.757337 
z
" style="fill:#7f9dd2;stroke:#000000;stroke-linejoin:miter;"/>
   </g>
   <g id="patch_21">
    <path clip-path="url(#pfa81e444cd)" d="M 547.1775 289.99716 
L 582.946167 289.99716 
L 582.946167 277.774424 
L 547.1775 277.774424 
z
" style="fill:#d3d3d3;stroke:#000000;stroke-linejoin:miter;"/>
   </g>
   <g id="patch_22">
    <path clip-path="url(#pfa81e444cd)" d="M 636.599167 289.99716 
L 672.367833 289.99716 
L 672.367833 238.28584 
L 636.599167 238.28584 
z
" style="fill:#d3d3d3;stroke:#000000;stroke-linejoin:miter;"/>
   </g>
   <g id="patch_23">
    <path clip-path="url(#pfa81e444cd)" d="M 726.020833 289.99716 
L 761.7895 289.99716 
L 761.7895 237.374885 
L 726.020833 237.374885 
z
" style="fill:#d3d3d3;stroke:#000000;stroke-linejoin:miter;"/>
   </g>
   <g id="patch_24">
    <path clip-path="url(#pfa81e444cd)" d="M 815.4425 289.99716 
L 851.211167 289.99716 
L 851.211167 231.052572 
L 815.4425 231.052572 
z
" style="fill:#d3d3d3;stroke:#000000;stroke-linejoin:miter;"/>
   </g>
   <g id="line2d_37">
    <path clip-path="url(#pfa81e444cd)" d="M 529.293167 149.186511 
L 529.293167 133.919084 
" style="fill:none;stroke:#000000;stroke-linecap:round;stroke-width:1.5;"/>
   </g>
   <g id="line2d_38">
    <path clip-path="url(#pfa81e444cd)" d="M 520.351 149.186511 
L 538.235333 149.186511 
" style="fill:none;stroke:#000000;stroke-linecap:round;stroke-width:1.5;"/>
   </g>
   <g id="line2d_39">
    <path clip-path="url(#pfa81e444cd)" d="M 520.351 133.919084 
L 538.235333 133.919084 
" style="fill:none;stroke:#000000;stroke-linecap:round;stroke-width:1.5;"/>
   </g>
   <g id="line2d_40">
    <path clip-path="url(#pfa81e444cd)" d="M 618.714833 114.452324 
L 618.714833 105.132656 
" style="fill:none;stroke:#000000;stroke-linecap:round;stroke-width:1.5;"/>
   </g>
   <g id="line2d_41">
    <path clip-path="url(#pfa81e444cd)" d="M 609.772667 114.452324 
L 627.657 114.452324 
" style="fill:none;stroke:#000000;stroke-linecap:round;stroke-width:1.5;"/>
   </g>
   <g id="line2d_42">
    <path clip-path="url(#pfa81e444cd)" d="M 609.772667 105.132656 
L 627.657 105.132656 
" style="fill:none;stroke:#000000;stroke-linecap:round;stroke-width:1.5;"/>
   </g>
   <g id="line2d_43">
    <path clip-path="url(#pfa81e444cd)" d="M 708.1365 113.017539 
L 708.1365 104.050308 
" style="fill:none;stroke:#000000;stroke-linecap:round;stroke-width:1.5;"/>
   </g>
   <g id="line2d_44">
    <path clip-path="url(#pfa81e444cd)" d="M 699.194333 113.017539 
L 717.078667 113.017539 
" style="fill:none;stroke:#000000;stroke-linecap:round;stroke-width:1.5;"/>
   </g>
   <g id="line2d_45">
    <path clip-path="url(#pfa81e444cd)" d="M 699.194333 104.050308 
L 717.078667 104.050308 
" style="fill:none;stroke:#000000;stroke-linecap:round;stroke-width:1.5;"/>
   </g>
   <g id="line2d_46">
    <path clip-path="url(#pfa81e444cd)" d="M 797.558167 261.412417 
L 797.558167 258.102257 
" style="fill:none;stroke:#000000;stroke-linecap:round;stroke-width:1.5;"/>
   </g>
   <g id="line2d_47">
    <path clip-path="url(#pfa81e444cd)" d="M 788.616 261.412417 
L 806.500333 261.412417 
" style="fill:none;stroke:#000000;stroke-linecap:round;stroke-width:1.5;"/>
   </g>
   <g id="line2d_48">
    <path clip-path="url(#pfa81e444cd)" d="M 788.616 258.102257 
L 806.500333 258.102257 
" style="fill:none;stroke:#000000;stroke-linecap:round;stroke-width:1.5;"/>
   </g>
   <g id="line2d_49">
    <path clip-path="url(#pfa81e444cd)" d="M 565.061833 278.369315 
L 565.061833 277.179534 
" style="fill:none;stroke:#000000;stroke-linecap:round;stroke-width:1.5;"/>
   </g>
   <g id="line2d_50">
    <path clip-path="url(#pfa81e444cd)" d="M 556.119667 278.369315 
L 574.004 278.369315 
" style="fill:none;stroke:#000000;stroke-linecap:round;stroke-width:1.5;"/>
   </g>
   <g id="line2d_51">
    <path clip-path="url(#pfa81e444cd)" d="M 556.119667 277.179534 
L 574.004 277.179534 
" style="fill:none;stroke:#000000;stroke-linecap:round;stroke-width:1.5;"/>
   </g>
   <g id="line2d_52">
    <path clip-path="url(#pfa81e444cd)" d="M 654.4835 239.541142 
L 654.4835 237.030537 
" style="fill:none;stroke:#000000;stroke-linecap:round;stroke-width:1.5;"/>
   </g>
   <g id="line2d_53">
    <path clip-path="url(#pfa81e444cd)" d="M 645.541333 239.541142 
L 663.425667 239.541142 
" style="fill:none;stroke:#000000;stroke-linecap:round;stroke-width:1.5;"/>
   </g>
   <g id="line2d_54">
    <path clip-path="url(#pfa81e444cd)" d="M 645.541333 237.030537 
L 663.425667 237.030537 
" style="fill:none;stroke:#000000;stroke-linecap:round;stroke-width:1.5;"/>
   </g>
   <g id="line2d_55">
    <path clip-path="url(#pfa81e444cd)" d="M 743.905167 238.74603 
L 743.905167 236.00374 
" style="fill:none;stroke:#000000;stroke-linecap:round;stroke-width:1.5;"/>
   </g>
   <g id="line2d_56">
    <path clip-path="url(#pfa81e444cd)" d="M 734.963 238.74603 
L 752.847333 238.74603 
" style="fill:none;stroke:#000000;stroke-linecap:round;stroke-width:1.5;"/>
   </g>
   <g id="line2d_57">
    <path clip-path="url(#pfa81e444cd)" d="M 734.963 236.00374 
L 752.847333 236.00374 
" style="fill:none;stroke:#000000;stroke-linecap:round;stroke-width:1.5;"/>
   </g>
   <g id="line2d_58">
    <path clip-path="url(#pfa81e444cd)" d="M 833.326833 231.773324 
L 833.326833 230.331819 
" style="fill:none;stroke:#000000;stroke-linecap:round;stroke-width:1.5;"/>
   </g>
   <g id="line2d_59">
    <path clip-path="url(#pfa81e444cd)" d="M 824.384667 231.773324 
L 842.269 231.773324 
" style="fill:none;stroke:#000000;stroke-linecap:round;stroke-width:1.5;"/>
   </g>
   <g id="line2d_60">
    <path clip-path="url(#pfa81e444cd)" d="M 824.384667 230.331819 
L 842.269 230.331819 
" style="fill:none;stroke:#000000;stroke-linecap:round;stroke-width:1.5;"/>
   </g>
   <g id="patch_25">
    <path d="M 502.466667 289.99716 
L 502.466667 49.2 
" style="fill:none;stroke:#cccccc;stroke-linecap:square;stroke-linejoin:miter;stroke-width:0.8;"/>
   </g>
   <g id="patch_26">
    <path d="M 502.466667 289.99716 
L 860.153333 289.99716 
" style="fill:none;stroke:#cccccc;stroke-linecap:square;stroke-linejoin:miter;stroke-width:0.8;"/>
   </g>
   <g id="PathCollection_13">
    <defs>
     <path d="M 0 5 
C 1.326016 5 2.597899 4.473168 3.535534 3.535534 
C 4.473168 2.597899 5 1.326016 5 -0 
C 5 -1.326016 4.473168 -2.597899 3.535534 -3.535534 
C 2.597899 -4.473168 1.326016 -5 0 -5 
C -1.326016 -5 -2.597899 -4.473168 -3.535534 -3.535534 
C -4.473168 -2.597899 -5 -1.326016 -5 0 
C -5 1.326016 -4.473168 2.597899 -3.535534 3.535534 
C -2.597899 4.473168 -1.326016 5 0 5 
z
" id="C8_0_e37dde9cd9"/>
    </defs>
    <g clip-path="url(#pfa81e444cd)">
     <use style="fill:#6495ed;stroke:#000000;" x="529.293167" xlink:href="#C8_0_e37dde9cd9" y="151.739069"/>
    </g>
    <g clip-path="url(#pfa81e444cd)">
     <use style="fill:#6495ed;stroke:#000000;" x="529.293167" xlink:href="#C8_0_e37dde9cd9" y="139.556481"/>
    </g>
    <g clip-path="url(#pfa81e444cd)">
     <use style="fill:#6495ed;stroke:#000000;" x="523.808637" xlink:href="#C8_0_e37dde9cd9" y="133.362843"/>
    </g>
   </g>
   <g id="PathCollection_14">
    <defs>
     <path d="M 0 5 
C 1.326016 5 2.597899 4.473168 3.535534 3.535534 
C 4.473168 2.597899 5 1.326016 5 -0 
C 5 -1.326016 4.473168 -2.597899 3.535534 -3.535534 
C 2.597899 -4.473168 1.326016 -5 0 -5 
C -1.326016 -5 -2.597899 -4.473168 -3.535534 -3.535534 
C -4.473168 -2.597899 -5 -1.326016 -5 0 
C -5 1.326016 -4.473168 2.597899 -3.535534 3.535534 
C -2.597899 4.473168 -1.326016 5 0 5 
z
" id="C9_0_762b6850ae"/>
    </defs>
    <g clip-path="url(#pfa81e444cd)">
     <use style="fill:#d3d3d3;stroke:#000000;" x="565.061833" xlink:href="#C9_0_762b6850ae" y="278.442999"/>
    </g>
    <g clip-path="url(#pfa81e444cd)">
     <use style="fill:#d3d3d3;stroke:#000000;" x="554.085895" xlink:href="#C9_0_762b6850ae" y="277.882401"/>
    </g>
    <g clip-path="url(#pfa81e444cd)">
     <use style="fill:#d3d3d3;stroke:#000000;" x="575.844055" xlink:href="#C9_0_762b6850ae" y="276.997872"/>
    </g>
   </g>
   <g id="PathCollection_15">
    <defs>
     <path d="M 0 5 
C 1.326016 5 2.597899 4.473168 3.535534 3.535534 
C 4.473168 2.597899 5 1.326016 5 -0 
C 5 -1.326016 4.473168 -2.597899 3.535534 -3.535534 
C 2.597899 -4.473168 1.326016 -5 0 -5 
C -1.326016 -5 -2.597899 -4.473168 -3.535534 -3.535534 
C -4.473168 -2.597899 -5 -1.326016 -5 0 
C -5 1.326016 -4.473168 2.597899 -3.535534 3.535534 
C -2.597899 4.473168 -1.326016 5 0 5 
z
" id="Ca_0_59e72a2296"/>
    </defs>
    <g clip-path="url(#pfa81e444cd)">
     <use style="fill:#6495ed;stroke:#000000;" x="618.714833" xlink:href="#Ca_0_59e72a2296" y="116.027059"/>
    </g>
    <g clip-path="url(#pfa81e444cd)">
     <use style="fill:#6495ed;stroke:#000000;" x="618.714833" xlink:href="#Ca_0_59e72a2296" y="108.524176"/>
    </g>
    <g clip-path="url(#pfa81e444cd)">
     <use style="fill:#6495ed;stroke:#000000;" x="609.295196" xlink:href="#Ca_0_59e72a2296" y="104.826235"/>
    </g>
   </g>
   <g id="PathCollection_16">
    <defs>
     <path d="M 0 5 
C 1.326016 5 2.597899 4.473168 3.535534 3.535534 
C 4.473168 2.597899 5 1.326016 5 -0 
C 5 -1.326016 4.473168 -2.597899 3.535534 -3.535534 
C 2.597899 -4.473168 1.326016 -5 0 -5 
C -1.326016 -5 -2.597899 -4.473168 -3.535534 -3.535534 
C -4.473168 -2.597899 -5 -1.326016 -5 0 
C -5 1.326016 -4.473168 2.597899 -3.535534 3.535534 
C -2.597899 4.473168 -1.326016 5 0 5 
z
" id="Cb_0_a902074287"/>
    </defs>
    <g clip-path="url(#pfa81e444cd)">
     <use style="fill:#d3d3d3;stroke:#000000;" x="654.4835" xlink:href="#Cb_0_a902074287" y="239.705205"/>
    </g>
    <g clip-path="url(#pfa81e444cd)">
     <use style="fill:#d3d3d3;stroke:#000000;" x="643.631558" xlink:href="#Cb_0_a902074287" y="238.49959"/>
    </g>
    <g clip-path="url(#pfa81e444cd)">
     <use style="fill:#d3d3d3;stroke:#000000;" x="664.437453" xlink:href="#Cb_0_a902074287" y="236.652724"/>
    </g>
   </g>
   <g id="PathCollection_17">
    <defs>
     <path d="M 0 5 
C 1.326016 5 2.597899 4.473168 3.535534 3.535534 
C 4.473168 2.597899 5 1.326016 5 -0 
C 5 -1.326016 4.473168 -2.597899 3.535534 -3.535534 
C 2.597899 -4.473168 1.326016 -5 0 -5 
C -1.326016 -5 -2.597899 -4.473168 -3.535534 -3.535534 
C -4.473168 -2.597899 -5 -1.326016 -5 0 
C -5 1.326016 -4.473168 2.597899 -3.535534 3.535534 
C -2.597899 4.473168 -1.326016 5 0 5 
z
" id="Cc_0_443022d396"/>
    </defs>
    <g clip-path="url(#pfa81e444cd)">
     <use style="fill:#6495ed;stroke:#000000;" x="708.1365" xlink:href="#Cc_0_443022d396" y="114.503675"/>
    </g>
    <g clip-path="url(#pfa81e444cd)">
     <use style="fill:#6495ed;stroke:#000000;" x="706.984028" xlink:href="#Cc_0_443022d396" y="107.399929"/>
    </g>
    <g clip-path="url(#pfa81e444cd)">
     <use style="fill:#6495ed;stroke:#000000;" x="716.400098" xlink:href="#Cc_0_443022d396" y="103.698166"/>
    </g>
   </g>
   <g id="PathCollection_18">
    <defs>
     <path d="M 0 5 
C 1.326016 5 2.597899 4.473168 3.535534 3.535534 
C 4.473168 2.597899 5 1.326016 5 -0 
C 5 -1.326016 4.473168 -2.597899 3.535534 -3.535534 
C 2.597899 -4.473168 1.326016 -5 0 -5 
C -1.326016 -5 -2.597899 -4.473168 -3.535534 -3.535534 
C -4.473168 -2.597899 -5 -1.326016 -5 0 
C -5 1.326016 -4.473168 2.597899 -3.535534 3.535534 
C -2.597899 4.473168 -1.326016 5 0 5 
z
" id="Cd_0_d3ff4bca49"/>
    </defs>
    <g clip-path="url(#pfa81e444cd)">
     <use style="fill:#d3d3d3;stroke:#000000;" x="743.905167" xlink:href="#Cd_0_d3ff4bca49" y="238.804085"/>
    </g>
    <g clip-path="url(#pfa81e444cd)">
     <use style="fill:#d3d3d3;stroke:#000000;" x="754.8047" xlink:href="#Cd_0_d3ff4bca49" y="237.79523"/>
    </g>
    <g clip-path="url(#pfa81e444cd)">
     <use style="fill:#d3d3d3;stroke:#000000;" x="734.123664" xlink:href="#Cd_0_d3ff4bca49" y="235.52534"/>
    </g>
   </g>
   <g id="PathCollection_19">
    <defs>
     <path d="M 0 5 
C 1.326016 5 2.597899 4.473168 3.535534 3.535534 
C 4.473168 2.597899 5 1.326016 5 -0 
C 5 -1.326016 4.473168 -2.597899 3.535534 -3.535534 
C 2.597899 -4.473168 1.326016 -5 0 -5 
C -1.326016 -5 -2.597899 -4.473168 -3.535534 -3.535534 
C -4.473168 -2.597899 -5 -1.326016 -5 0 
C -5 1.326016 -4.473168 2.597899 -3.535534 3.535534 
C -2.597899 4.473168 -1.326016 5 0 5 
z
" id="Ce_0_ff3a0748be"/>
    </defs>
    <g clip-path="url(#pfa81e444cd)">
     <use style="fill:#6495ed;stroke:#000000;" x="797.558167" xlink:href="#Ce_0_ff3a0748be" y="261.562805"/>
    </g>
    <g clip-path="url(#pfa81e444cd)">
     <use style="fill:#6495ed;stroke:#000000;" x="786.767449" xlink:href="#Ce_0_ff3a0748be" y="260.144621"/>
    </g>
    <g clip-path="url(#pfa81e444cd)">
     <use style="fill:#6495ed;stroke:#000000;" x="806.681716" xlink:href="#Ce_0_ff3a0748be" y="257.564585"/>
    </g>
   </g>
   <g id="PathCollection_20">
    <defs>
     <path d="M 0 5 
C 1.326016 5 2.597899 4.473168 3.535534 3.535534 
C 4.473168 2.597899 5 1.326016 5 -0 
C 5 -1.326016 4.473168 -2.597899 3.535534 -3.535534 
C 2.597899 -4.473168 1.326016 -5 0 -5 
C -1.326016 -5 -2.597899 -4.473168 -3.535534 -3.535534 
C -4.473168 -2.597899 -5 -1.326016 -5 0 
C -5 1.326016 -4.473168 2.597899 -3.535534 3.535534 
C -2.597899 4.473168 -1.326016 5 0 5 
z
" id="Cf_0_49a6d3a49c"/>
    </defs>
    <g clip-path="url(#pfa81e444cd)">
     <use style="fill:#d3d3d3;stroke:#000000;" x="833.326833" xlink:href="#Cf_0_49a6d3a49c" y="232.067887"/>
    </g>
    <g clip-path="url(#pfa81e444cd)">
     <use style="fill:#d3d3d3;stroke:#000000;" x="822.544576" xlink:href="#Cf_0_49a6d3a49c" y="230.622872"/>
    </g>
    <g clip-path="url(#pfa81e444cd)">
     <use style="fill:#d3d3d3;stroke:#000000;" x="844.056641" xlink:href="#Cf_0_49a6d3a49c" y="230.466956"/>
    </g>
   </g>
   <g id="text_22">
    <!-- Model = DeepSwarm -->
    <g style="fill:#262626;" transform="translate(568.931875 43.2)scale(0.24 -0.24)">
     <defs>
      <path d="M 1034 0 
L 19 3319 
L 600 3319 
L 1128 1403 
L 1325 691 
Q 1338 744 1497 1375 
L 2025 3319 
L 2603 3319 
L 3100 1394 
L 3266 759 
L 3456 1400 
L 4025 3319 
L 4572 3319 
L 3534 0 
L 2950 0 
L 2422 1988 
L 2294 2553 
L 1622 0 
L 1034 0 
z
" id="ArialMT-77" transform="scale(0.015625)"/>
     </defs>
     <use xlink:href="#ArialMT-4d"/>
     <use x="83.300781" xlink:href="#ArialMT-6f"/>
     <use x="138.916016" xlink:href="#ArialMT-64"/>
     <use x="194.53125" xlink:href="#ArialMT-65"/>
     <use x="250.146484" xlink:href="#ArialMT-6c"/>
     <use x="272.363281" xlink:href="#ArialMT-20"/>
     <use x="300.146484" xlink:href="#ArialMT-3d"/>
     <use x="358.544922" xlink:href="#ArialMT-20"/>
     <use x="386.328125" xlink:href="#ArialMT-44"/>
     <use x="458.544922" xlink:href="#ArialMT-65"/>
     <use x="514.160156" xlink:href="#ArialMT-65"/>
     <use x="569.775391" xlink:href="#ArialMT-70"/>
     <use x="625.390625" xlink:href="#ArialMT-53"/>
     <use x="692.089844" xlink:href="#ArialMT-77"/>
     <use x="764.306641" xlink:href="#ArialMT-61"/>
     <use x="819.921875" xlink:href="#ArialMT-72"/>
     <use x="853.222656" xlink:href="#ArialMT-6d"/>
    </g>
   </g>
   <g id="legend_2">
    <g id="patch_27">
     <path d="M 651.844583 170.835 
L 843.353333 170.835 
Q 848.153333 170.835 848.153333 166.035 
L 848.153333 66 
Q 848.153333 61.2 843.353333 61.2 
L 651.844583 61.2 
Q 647.044583 61.2 647.044583 66 
L 647.044583 166.035 
Q 647.044583 170.835 651.844583 170.835 
z
" style="fill:#ffffff;opacity:0.8;stroke:#cccccc;stroke-linejoin:miter;"/>
    </g>
    <g id="text_23">
     <!-- Data -->
     <g style="fill:#262626;" transform="translate(722.252708 87.97875)scale(0.24 -0.24)">
      <use xlink:href="#ArialMT-44"/>
      <use x="72.216797" xlink:href="#ArialMT-61"/>
      <use x="127.832031" xlink:href="#ArialMT-74"/>
      <use x="155.615234" xlink:href="#ArialMT-61"/>
     </g>
    </g>
    <g id="patch_28">
     <path d="M 656.644583 122.235 
L 704.644583 122.235 
L 704.644583 105.435 
L 656.644583 105.435 
z
" style="fill:#7f9dd2;stroke:#000000;stroke-linejoin:miter;"/>
    </g>
    <g id="text_24">
     <!-- Original -->
     <g style="fill:#262626;" transform="translate(723.844583 122.235)scale(0.24 -0.24)">
      <use xlink:href="#ArialMT-4f"/>
      <use x="77.783203" xlink:href="#ArialMT-72"/>
      <use x="111.083984" xlink:href="#ArialMT-69"/>
      <use x="133.300781" xlink:href="#ArialMT-67"/>
      <use x="188.916016" xlink:href="#ArialMT-69"/>
      <use x="211.132812" xlink:href="#ArialMT-6e"/>
      <use x="266.748047" xlink:href="#ArialMT-61"/>
      <use x="322.363281" xlink:href="#ArialMT-6c"/>
     </g>
    </g>
    <g id="patch_29">
     <path d="M 656.644583 156.465 
L 704.644583 156.465 
L 704.644583 139.665 
L 656.644583 139.665 
z
" style="fill:#d3d3d3;stroke:#000000;stroke-linejoin:miter;"/>
    </g>
    <g id="text_25">
     <!-- Scrambled -->
     <g style="fill:#262626;" transform="translate(723.844583 156.465)scale(0.24 -0.24)">
      <use xlink:href="#ArialMT-53"/>
      <use x="66.699219" xlink:href="#ArialMT-63"/>
      <use x="116.699219" xlink:href="#ArialMT-72"/>
      <use x="150" xlink:href="#ArialMT-61"/>
      <use x="205.615234" xlink:href="#ArialMT-6d"/>
      <use x="288.916016" xlink:href="#ArialMT-62"/>
      <use x="344.53125" xlink:href="#ArialMT-6c"/>
      <use x="366.748047" xlink:href="#ArialMT-65"/>
      <use x="422.363281" xlink:href="#ArialMT-64"/>
     </g>
    </g>
   </g>
  </g>
  <g id="axes_3">
   <g id="patch_30">
    <path d="M 912.393333 289.99716 
L 1270.08 289.99716 
L 1270.08 49.2 
L 912.393333 49.2 
z
" style="fill:#ffffff;"/>
   </g>
   <g id="matplotlib.axis_5">
    <g id="xtick_9">
     <g id="text_26">
      <!-- r2 -->
      <g style="fill:#262626;" transform="translate(961.361674 320.993554)rotate(-80)scale(0.24 -0.24)">
       <use xlink:href="#ArialMT-72"/>
       <use x="33.300781" xlink:href="#ArialMT-32"/>
      </g>
     </g>
    </g>
    <g id="xtick_10">
     <g id="text_27">
      <!-- pearson -->
      <g style="fill:#262626;" transform="translate(1045.106348 385.385209)rotate(-80)scale(0.24 -0.24)">
       <use xlink:href="#ArialMT-70"/>
       <use x="55.615234" xlink:href="#ArialMT-65"/>
       <use x="111.230469" xlink:href="#ArialMT-61"/>
       <use x="166.845703" xlink:href="#ArialMT-72"/>
       <use x="200.146484" xlink:href="#ArialMT-73"/>
       <use x="250.146484" xlink:href="#ArialMT-6f"/>
       <use x="305.761719" xlink:href="#ArialMT-6e"/>
      </g>
     </g>
    </g>
    <g id="xtick_11">
     <g id="text_28">
      <!-- spearman -->
      <g style="fill:#262626;" transform="translate(1132.792292 405.072747)rotate(-80)scale(0.24 -0.24)">
       <use xlink:href="#ArialMT-73"/>
       <use x="50" xlink:href="#ArialMT-70"/>
       <use x="105.615234" xlink:href="#ArialMT-65"/>
       <use x="161.230469" xlink:href="#ArialMT-61"/>
       <use x="216.845703" xlink:href="#ArialMT-72"/>
       <use x="250.146484" xlink:href="#ArialMT-6d"/>
       <use x="333.447266" xlink:href="#ArialMT-61"/>
       <use x="389.0625" xlink:href="#ArialMT-6e"/>
      </g>
     </g>
    </g>
    <g id="xtick_12">
     <g id="text_29">
      <!-- MAE -->
      <g style="fill:#262626;" transform="translate(1226.963671 351.198839)rotate(-80)scale(0.24 -0.24)">
       <use xlink:href="#ArialMT-4d"/>
       <use x="83.300781" xlink:href="#ArialMT-41"/>
       <use x="150" xlink:href="#ArialMT-45"/>
      </g>
     </g>
    </g>
   </g>
   <g id="matplotlib.axis_6">
    <g id="ytick_13">
     <g id="line2d_61">
      <path clip-path="url(#pa5ee819181)" d="M 912.393333 289.99716 
L 1270.08 289.99716 
" style="fill:none;stroke:#cccccc;stroke-linecap:round;stroke-width:0.8;"/>
     </g>
    </g>
    <g id="ytick_14">
     <g id="line2d_62">
      <path clip-path="url(#pa5ee819181)" d="M 912.393333 246.215859 
L 1270.08 246.215859 
" style="fill:none;stroke:#cccccc;stroke-linecap:round;stroke-width:0.8;"/>
     </g>
    </g>
    <g id="ytick_15">
     <g id="line2d_63">
      <path clip-path="url(#pa5ee819181)" d="M 912.393333 202.434557 
L 1270.08 202.434557 
" style="fill:none;stroke:#cccccc;stroke-linecap:round;stroke-width:0.8;"/>
     </g>
    </g>
    <g id="ytick_16">
     <g id="line2d_64">
      <path clip-path="url(#pa5ee819181)" d="M 912.393333 158.653255 
L 1270.08 158.653255 
" style="fill:none;stroke:#cccccc;stroke-linecap:round;stroke-width:0.8;"/>
     </g>
    </g>
    <g id="ytick_17">
     <g id="line2d_65">
      <path clip-path="url(#pa5ee819181)" d="M 912.393333 114.871953 
L 1270.08 114.871953 
" style="fill:none;stroke:#cccccc;stroke-linecap:round;stroke-width:0.8;"/>
     </g>
    </g>
    <g id="ytick_18">
     <g id="line2d_66">
      <path clip-path="url(#pa5ee819181)" d="M 912.393333 71.090651 
L 1270.08 71.090651 
" style="fill:none;stroke:#cccccc;stroke-linecap:round;stroke-width:0.8;"/>
     </g>
    </g>
    <g id="text_30">
     <!-- Value -->
     <g style="fill:#262626;" transform="translate(903.623333 199.40358)rotate(-90)scale(0.24 -0.24)">
      <use xlink:href="#ArialMT-56"/>
      <use x="59.324219" xlink:href="#ArialMT-61"/>
      <use x="114.939453" xlink:href="#ArialMT-6c"/>
      <use x="137.15625" xlink:href="#ArialMT-75"/>
      <use x="192.771484" xlink:href="#ArialMT-65"/>
     </g>
    </g>
   </g>
   <g id="PathCollection_21"/>
   <g id="PathCollection_22"/>
   <g id="patch_31">
    <path clip-path="url(#pa5ee819181)" d="M 921.3355 289.99716 
L 957.104167 289.99716 
L 957.104167 166.592907 
L 921.3355 166.592907 
z
" style="fill:#7f9dd2;stroke:#000000;stroke-linejoin:miter;"/>
   </g>
   <g id="patch_32">
    <path clip-path="url(#pa5ee819181)" d="M 1010.757167 289.99716 
L 1046.525833 289.99716 
L 1046.525833 125.640574 
L 1010.757167 125.640574 
z
" style="fill:#7f9dd2;stroke:#000000;stroke-linejoin:miter;"/>
   </g>
   <g id="patch_33">
    <path clip-path="url(#pa5ee819181)" d="M 1100.178833 289.99716 
L 1135.9475 289.99716 
L 1135.9475 126.979492 
L 1100.178833 126.979492 
z
" style="fill:#7f9dd2;stroke:#000000;stroke-linejoin:miter;"/>
   </g>
   <g id="patch_34">
    <path clip-path="url(#pa5ee819181)" d="M 1189.6005 289.99716 
L 1225.369167 289.99716 
L 1225.369167 254.194381 
L 1189.6005 254.194381 
z
" style="fill:#7f9dd2;stroke:#000000;stroke-linejoin:miter;"/>
   </g>
   <g id="patch_35">
    <path clip-path="url(#pa5ee819181)" d="M 957.104167 289.99716 
L 992.872833 289.99716 
L 992.872833 268.302177 
L 957.104167 268.302177 
z
" style="fill:#d3d3d3;stroke:#000000;stroke-linejoin:miter;"/>
   </g>
   <g id="patch_36">
    <path clip-path="url(#pa5ee819181)" d="M 1046.525833 289.99716 
L 1082.2945 289.99716 
L 1082.2945 221.083294 
L 1046.525833 221.083294 
z
" style="fill:#d3d3d3;stroke:#000000;stroke-linejoin:miter;"/>
   </g>
   <g id="patch_37">
    <path clip-path="url(#pa5ee819181)" d="M 1135.9475 289.99716 
L 1171.716167 289.99716 
L 1171.716167 222.152093 
L 1135.9475 222.152093 
z
" style="fill:#d3d3d3;stroke:#000000;stroke-linejoin:miter;"/>
   </g>
   <g id="patch_38">
    <path clip-path="url(#pa5ee819181)" d="M 1225.369167 289.99716 
L 1261.137833 289.99716 
L 1261.137833 234.785328 
L 1225.369167 234.785328 
z
" style="fill:#d3d3d3;stroke:#000000;stroke-linejoin:miter;"/>
   </g>
   <g id="line2d_67">
    <path clip-path="url(#pa5ee819181)" d="M 939.219833 168.021357 
L 939.219833 165.164457 
" style="fill:none;stroke:#000000;stroke-linecap:round;stroke-width:1.5;"/>
   </g>
   <g id="line2d_68">
    <path clip-path="url(#pa5ee819181)" d="M 930.277667 168.021357 
L 948.162 168.021357 
" style="fill:none;stroke:#000000;stroke-linecap:round;stroke-width:1.5;"/>
   </g>
   <g id="line2d_69">
    <path clip-path="url(#pa5ee819181)" d="M 930.277667 165.164457 
L 948.162 165.164457 
" style="fill:none;stroke:#000000;stroke-linecap:round;stroke-width:1.5;"/>
   </g>
   <g id="line2d_70">
    <path clip-path="url(#pa5ee819181)" d="M 1028.6415 126.592973 
L 1028.6415 124.688175 
" style="fill:none;stroke:#000000;stroke-linecap:round;stroke-width:1.5;"/>
   </g>
   <g id="line2d_71">
    <path clip-path="url(#pa5ee819181)" d="M 1019.699333 126.592973 
L 1037.583667 126.592973 
" style="fill:none;stroke:#000000;stroke-linecap:round;stroke-width:1.5;"/>
   </g>
   <g id="line2d_72">
    <path clip-path="url(#pa5ee819181)" d="M 1019.699333 124.688175 
L 1037.583667 124.688175 
" style="fill:none;stroke:#000000;stroke-linecap:round;stroke-width:1.5;"/>
   </g>
   <g id="line2d_73">
    <path clip-path="url(#pa5ee819181)" d="M 1118.063167 128.129272 
L 1118.063167 125.829713 
" style="fill:none;stroke:#000000;stroke-linecap:round;stroke-width:1.5;"/>
   </g>
   <g id="line2d_74">
    <path clip-path="url(#pa5ee819181)" d="M 1109.121 128.129272 
L 1127.005333 128.129272 
" style="fill:none;stroke:#000000;stroke-linecap:round;stroke-width:1.5;"/>
   </g>
   <g id="line2d_75">
    <path clip-path="url(#pa5ee819181)" d="M 1109.121 125.829713 
L 1127.005333 125.829713 
" style="fill:none;stroke:#000000;stroke-linecap:round;stroke-width:1.5;"/>
   </g>
   <g id="line2d_76">
    <path clip-path="url(#pa5ee819181)" d="M 1207.484833 254.447816 
L 1207.484833 253.940946 
" style="fill:none;stroke:#000000;stroke-linecap:round;stroke-width:1.5;"/>
   </g>
   <g id="line2d_77">
    <path clip-path="url(#pa5ee819181)" d="M 1198.542667 254.447816 
L 1216.427 254.447816 
" style="fill:none;stroke:#000000;stroke-linecap:round;stroke-width:1.5;"/>
   </g>
   <g id="line2d_78">
    <path clip-path="url(#pa5ee819181)" d="M 1198.542667 253.940946 
L 1216.427 253.940946 
" style="fill:none;stroke:#000000;stroke-linecap:round;stroke-width:1.5;"/>
   </g>
   <g id="line2d_79">
    <path clip-path="url(#pa5ee819181)" d="M 974.9885 268.445835 
L 974.9885 268.158519 
" style="fill:none;stroke:#000000;stroke-linecap:round;stroke-width:1.5;"/>
   </g>
   <g id="line2d_80">
    <path clip-path="url(#pa5ee819181)" d="M 966.046333 268.445835 
L 983.930667 268.445835 
" style="fill:none;stroke:#000000;stroke-linecap:round;stroke-width:1.5;"/>
   </g>
   <g id="line2d_81">
    <path clip-path="url(#pa5ee819181)" d="M 966.046333 268.158519 
L 983.930667 268.158519 
" style="fill:none;stroke:#000000;stroke-linecap:round;stroke-width:1.5;"/>
   </g>
   <g id="line2d_82">
    <path clip-path="url(#pa5ee819181)" d="M 1064.410167 221.311618 
L 1064.410167 220.85497 
" style="fill:none;stroke:#000000;stroke-linecap:round;stroke-width:1.5;"/>
   </g>
   <g id="line2d_83">
    <path clip-path="url(#pa5ee819181)" d="M 1055.468 221.311618 
L 1073.352333 221.311618 
" style="fill:none;stroke:#000000;stroke-linecap:round;stroke-width:1.5;"/>
   </g>
   <g id="line2d_84">
    <path clip-path="url(#pa5ee819181)" d="M 1055.468 220.85497 
L 1073.352333 220.85497 
" style="fill:none;stroke:#000000;stroke-linecap:round;stroke-width:1.5;"/>
   </g>
   <g id="line2d_85">
    <path clip-path="url(#pa5ee819181)" d="M 1153.831833 222.351383 
L 1153.831833 221.952804 
" style="fill:none;stroke:#000000;stroke-linecap:round;stroke-width:1.5;"/>
   </g>
   <g id="line2d_86">
    <path clip-path="url(#pa5ee819181)" d="M 1144.889667 222.351383 
L 1162.774 222.351383 
" style="fill:none;stroke:#000000;stroke-linecap:round;stroke-width:1.5;"/>
   </g>
   <g id="line2d_87">
    <path clip-path="url(#pa5ee819181)" d="M 1144.889667 221.952804 
L 1162.774 221.952804 
" style="fill:none;stroke:#000000;stroke-linecap:round;stroke-width:1.5;"/>
   </g>
   <g id="line2d_88">
    <path clip-path="url(#pa5ee819181)" d="M 1243.2535 234.85284 
L 1243.2535 234.717815 
" style="fill:none;stroke:#000000;stroke-linecap:round;stroke-width:1.5;"/>
   </g>
   <g id="line2d_89">
    <path clip-path="url(#pa5ee819181)" d="M 1234.311333 234.85284 
L 1252.195667 234.85284 
" style="fill:none;stroke:#000000;stroke-linecap:round;stroke-width:1.5;"/>
   </g>
   <g id="line2d_90">
    <path clip-path="url(#pa5ee819181)" d="M 1234.311333 234.717815 
L 1252.195667 234.717815 
" style="fill:none;stroke:#000000;stroke-linecap:round;stroke-width:1.5;"/>
   </g>
   <g id="patch_39">
    <path d="M 912.393333 289.99716 
L 912.393333 49.2 
" style="fill:none;stroke:#cccccc;stroke-linecap:square;stroke-linejoin:miter;stroke-width:0.8;"/>
   </g>
   <g id="patch_40">
    <path d="M 912.393333 289.99716 
L 1270.08 289.99716 
" style="fill:none;stroke:#cccccc;stroke-linecap:square;stroke-linejoin:miter;stroke-width:0.8;"/>
   </g>
   <g id="PathCollection_23">
    <defs>
     <path d="M 0 5 
C 1.326016 5 2.597899 4.473168 3.535534 3.535534 
C 4.473168 2.597899 5 1.326016 5 -0 
C 5 -1.326016 4.473168 -2.597899 3.535534 -3.535534 
C 2.597899 -4.473168 1.326016 -5 0 -5 
C -1.326016 -5 -2.597899 -4.473168 -3.535534 -3.535534 
C -4.473168 -2.597899 -5 -1.326016 -5 0 
C -5 1.326016 -4.473168 2.597899 -3.535534 3.535534 
C -2.597899 4.473168 -1.326016 5 0 5 
z
" id="C10_0_1c610eda88"/>
    </defs>
    <g clip-path="url(#pa5ee819181)">
     <use style="fill:#6495ed;stroke:#000000;" x="939.219833" xlink:href="#C10_0_1c610eda88" y="168.510155"/>
    </g>
    <g clip-path="url(#pa5ee819181)">
     <use style="fill:#6495ed;stroke:#000000;" x="928.809313" xlink:href="#C10_0_1c610eda88" y="166.185486"/>
    </g>
    <g clip-path="url(#pa5ee819181)">
     <use style="fill:#6495ed;stroke:#000000;" x="948.879784" xlink:href="#C10_0_1c610eda88" y="165.08308"/>
    </g>
   </g>
   <g id="PathCollection_24">
    <defs>
     <path d="M 0 5 
C 1.326016 5 2.597899 4.473168 3.535534 3.535534 
C 4.473168 2.597899 5 1.326016 5 -0 
C 5 -1.326016 4.473168 -2.597899 3.535534 -3.535534 
C 2.597899 -4.473168 1.326016 -5 0 -5 
C -1.326016 -5 -2.597899 -4.473168 -3.535534 -3.535534 
C -4.473168 -2.597899 -5 -1.326016 -5 0 
C -5 1.326016 -4.473168 2.597899 -3.535534 3.535534 
C -2.597899 4.473168 -1.326016 5 0 5 
z
" id="C11_0_c353aa0804"/>
    </defs>
    <g clip-path="url(#pa5ee819181)">
     <use style="fill:#d3d3d3;stroke:#000000;" x="974.9885" xlink:href="#C11_0_c353aa0804" y="268.495414"/>
    </g>
    <g clip-path="url(#pa5ee819181)">
     <use style="fill:#d3d3d3;stroke:#000000;" x="963.984588" xlink:href="#C11_0_c353aa0804" y="268.25988"/>
    </g>
    <g clip-path="url(#pa5ee819181)">
     <use style="fill:#d3d3d3;stroke:#000000;" x="985.98561" xlink:href="#C11_0_c353aa0804" y="268.151236"/>
    </g>
   </g>
   <g id="PathCollection_25">
    <defs>
     <path d="M 0 5 
C 1.326016 5 2.597899 4.473168 3.535534 3.535534 
C 4.473168 2.597899 5 1.326016 5 -0 
C 5 -1.326016 4.473168 -2.597899 3.535534 -3.535534 
C 2.597899 -4.473168 1.326016 -5 0 -5 
C -1.326016 -5 -2.597899 -4.473168 -3.535534 -3.535534 
C -4.473168 -2.597899 -5 -1.326016 -5 0 
C -5 1.326016 -4.473168 2.597899 -3.535534 3.535534 
C -2.597899 4.473168 -1.326016 5 0 5 
z
" id="C12_0_7528606029"/>
    </defs>
    <g clip-path="url(#pa5ee819181)">
     <use style="fill:#6495ed;stroke:#000000;" x="1028.6415" xlink:href="#C12_0_7528606029" y="126.919582"/>
    </g>
    <g clip-path="url(#pa5ee819181)">
     <use style="fill:#6495ed;stroke:#000000;" x="1017.894921" xlink:href="#C12_0_7528606029" y="125.366721"/>
    </g>
    <g clip-path="url(#pa5ee819181)">
     <use style="fill:#6495ed;stroke:#000000;" x="1039.0733" xlink:href="#C12_0_7528606029" y="124.63542"/>
    </g>
   </g>
   <g id="PathCollection_26">
    <defs>
     <path d="M 0 5 
C 1.326016 5 2.597899 4.473168 3.535534 3.535534 
C 4.473168 2.597899 5 1.326016 5 -0 
C 5 -1.326016 4.473168 -2.597899 3.535534 -3.535534 
C 2.597899 -4.473168 1.326016 -5 0 -5 
C -1.326016 -5 -2.597899 -4.473168 -3.535534 -3.535534 
C -4.473168 -2.597899 -5 -1.326016 -5 0 
C -5 1.326016 -4.473168 2.597899 -3.535534 3.535534 
C -2.597899 4.473168 -1.326016 5 0 5 
z
" id="C13_0_8109eac348"/>
    </defs>
    <g clip-path="url(#pa5ee819181)">
     <use style="fill:#d3d3d3;stroke:#000000;" x="1064.410167" xlink:href="#C13_0_8109eac348" y="221.390512"/>
    </g>
    <g clip-path="url(#pa5ee819181)">
     <use style="fill:#d3d3d3;stroke:#000000;" x="1053.41543" xlink:href="#C13_0_8109eac348" y="221.01577"/>
    </g>
    <g clip-path="url(#pa5ee819181)">
     <use style="fill:#d3d3d3;stroke:#000000;" x="1075.387746" xlink:href="#C13_0_8109eac348" y="220.8436"/>
    </g>
   </g>
   <g id="PathCollection_27">
    <defs>
     <path d="M 0 5 
C 1.326016 5 2.597899 4.473168 3.535534 3.535534 
C 4.473168 2.597899 5 1.326016 5 -0 
C 5 -1.326016 4.473168 -2.597899 3.535534 -3.535534 
C 2.597899 -4.473168 1.326016 -5 0 -5 
C -1.326016 -5 -2.597899 -4.473168 -3.535534 -3.535534 
C -4.473168 -2.597899 -5 -1.326016 -5 0 
C -5 1.326016 -4.473168 2.597899 -3.535534 3.535534 
C -2.597899 4.473168 -1.326016 5 0 5 
z
" id="C14_0_1a897d8586"/>
    </defs>
    <g clip-path="url(#pa5ee819181)">
     <use style="fill:#6495ed;stroke:#000000;" x="1118.063167" xlink:href="#C14_0_1a897d8586" y="128.395944"/>
    </g>
    <g clip-path="url(#pa5ee819181)">
     <use style="fill:#6495ed;stroke:#000000;" x="1107.277142" xlink:href="#C14_0_1a897d8586" y="126.962814"/>
    </g>
    <g clip-path="url(#pa5ee819181)">
     <use style="fill:#6495ed;stroke:#000000;" x="1128.181231" xlink:href="#C14_0_1a897d8586" y="125.579719"/>
    </g>
   </g>
   <g id="PathCollection_28">
    <defs>
     <path d="M 0 5 
C 1.326016 5 2.597899 4.473168 3.535534 3.535534 
C 4.473168 2.597899 5 1.326016 5 -0 
C 5 -1.326016 4.473168 -2.597899 3.535534 -3.535534 
C 2.597899 -4.473168 1.326016 -5 0 -5 
C -1.326016 -5 -2.597899 -4.473168 -3.535534 -3.535534 
C -4.473168 -2.597899 -5 -1.326016 -5 0 
C -5 1.326016 -4.473168 2.597899 -3.535534 3.535534 
C -2.597899 4.473168 -1.326016 5 0 5 
z
" id="C15_0_37b7869cc9"/>
    </defs>
    <g clip-path="url(#pa5ee819181)">
     <use style="fill:#d3d3d3;stroke:#000000;" x="1153.831833" xlink:href="#C15_0_37b7869cc9" y="222.433636"/>
    </g>
    <g clip-path="url(#pa5ee819181)">
     <use style="fill:#d3d3d3;stroke:#000000;" x="1142.840188" xlink:href="#C15_0_37b7869cc9" y="222.022495"/>
    </g>
    <g clip-path="url(#pa5ee819181)">
     <use style="fill:#d3d3d3;stroke:#000000;" x="1164.821439" xlink:href="#C15_0_37b7869cc9" y="222.000149"/>
    </g>
   </g>
   <g id="PathCollection_29">
    <defs>
     <path d="M 0 5 
C 1.326016 5 2.597899 4.473168 3.535534 3.535534 
C 4.473168 2.597899 5 1.326016 5 -0 
C 5 -1.326016 4.473168 -2.597899 3.535534 -3.535534 
C 2.597899 -4.473168 1.326016 -5 0 -5 
C -1.326016 -5 -2.597899 -4.473168 -3.535534 -3.535534 
C -4.473168 -2.597899 -5 -1.326016 -5 0 
C -5 1.326016 -4.473168 2.597899 -3.535534 3.535534 
C -2.597899 4.473168 -1.326016 5 0 5 
z
" id="C16_0_0e187fe588"/>
    </defs>
    <g clip-path="url(#pa5ee819181)">
     <use style="fill:#6495ed;stroke:#000000;" x="1207.484833" xlink:href="#C16_0_0e187fe588" y="254.441612"/>
    </g>
    <g clip-path="url(#pa5ee819181)">
     <use style="fill:#6495ed;stroke:#000000;" x="1196.477239" xlink:href="#C16_0_0e187fe588" y="254.29549"/>
    </g>
    <g clip-path="url(#pa5ee819181)">
     <use style="fill:#6495ed;stroke:#000000;" x="1218.456395" xlink:href="#C16_0_0e187fe588" y="253.84604"/>
    </g>
   </g>
   <g id="PathCollection_30">
    <defs>
     <path d="M 0 5 
C 1.326016 5 2.597899 4.473168 3.535534 3.535534 
C 4.473168 2.597899 5 1.326016 5 -0 
C 5 -1.326016 4.473168 -2.597899 3.535534 -3.535534 
C 2.597899 -4.473168 1.326016 -5 0 -5 
C -1.326016 -5 -2.597899 -4.473168 -3.535534 -3.535534 
C -4.473168 -2.597899 -5 -1.326016 -5 0 
C -5 1.326016 -4.473168 2.597899 -3.535534 3.535534 
C -2.597899 4.473168 -1.326016 5 0 5 
z
" id="C17_0_8409c37c2e"/>
    </defs>
    <g clip-path="url(#pa5ee819181)">
     <use style="fill:#d3d3d3;stroke:#000000;" x="1243.2535" xlink:href="#C17_0_8409c37c2e" y="234.874466"/>
    </g>
    <g clip-path="url(#pa5ee819181)">
     <use style="fill:#d3d3d3;stroke:#000000;" x="1232.24477" xlink:href="#C17_0_8409c37c2e" y="234.770384"/>
    </g>
    <g clip-path="url(#pa5ee819181)">
     <use style="fill:#d3d3d3;stroke:#000000;" x="1254.26052" xlink:href="#C17_0_8409c37c2e" y="234.711133"/>
    </g>
   </g>
   <g id="text_31">
    <!-- Model = TPOT -->
    <g style="fill:#262626;" transform="translate(1013.092292 43.2)scale(0.24 -0.24)">
     <defs>
      <path d="M 1659 0 
L 1659 4041 
L 150 4041 
L 150 4581 
L 3781 4581 
L 3781 4041 
L 2266 4041 
L 2266 0 
L 1659 0 
z
" id="ArialMT-54" transform="scale(0.015625)"/>
      <path d="M 494 0 
L 494 4581 
L 2222 4581 
Q 2678 4581 2919 4538 
Q 3256 4481 3484 4323 
Q 3713 4166 3852 3881 
Q 3991 3597 3991 3256 
Q 3991 2672 3619 2267 
Q 3247 1863 2275 1863 
L 1100 1863 
L 1100 0 
L 494 0 
z
M 1100 2403 
L 2284 2403 
Q 2872 2403 3119 2622 
Q 3366 2841 3366 3238 
Q 3366 3525 3220 3729 
Q 3075 3934 2838 4000 
Q 2684 4041 2272 4041 
L 1100 4041 
L 1100 2403 
z
" id="ArialMT-50" transform="scale(0.015625)"/>
     </defs>
     <use xlink:href="#ArialMT-4d"/>
     <use x="83.300781" xlink:href="#ArialMT-6f"/>
     <use x="138.916016" xlink:href="#ArialMT-64"/>
     <use x="194.53125" xlink:href="#ArialMT-65"/>
     <use x="250.146484" xlink:href="#ArialMT-6c"/>
     <use x="272.363281" xlink:href="#ArialMT-20"/>
     <use x="300.146484" xlink:href="#ArialMT-3d"/>
     <use x="358.544922" xlink:href="#ArialMT-20"/>
     <use x="384.578125" xlink:href="#ArialMT-54"/>
     <use x="445.662109" xlink:href="#ArialMT-50"/>
     <use x="512.361328" xlink:href="#ArialMT-4f"/>
     <use x="590.144531" xlink:href="#ArialMT-54"/>
    </g>
   </g>
   <g id="legend_3">
    <g id="patch_41">
     <path d="M 1061.77125 170.835 
L 1253.28 170.835 
Q 1258.08 170.835 1258.08 166.035 
L 1258.08 66 
Q 1258.08 61.2 1253.28 61.2 
L 1061.77125 61.2 
Q 1056.97125 61.2 1056.97125 66 
L 1056.97125 166.035 
Q 1056.97125 170.835 1061.77125 170.835 
z
" style="fill:#ffffff;opacity:0.8;stroke:#cccccc;stroke-linejoin:miter;"/>
    </g>
    <g id="text_32">
     <!-- Data -->
     <g style="fill:#262626;" transform="translate(1132.179375 87.97875)scale(0.24 -0.24)">
      <use xlink:href="#ArialMT-44"/>
      <use x="72.216797" xlink:href="#ArialMT-61"/>
      <use x="127.832031" xlink:href="#ArialMT-74"/>
      <use x="155.615234" xlink:href="#ArialMT-61"/>
     </g>
    </g>
    <g id="patch_42">
     <path d="M 1066.57125 122.235 
L 1114.57125 122.235 
L 1114.57125 105.435 
L 1066.57125 105.435 
z
" style="fill:#7f9dd2;stroke:#000000;stroke-linejoin:miter;"/>
    </g>
    <g id="text_33">
     <!-- Original -->
     <g style="fill:#262626;" transform="translate(1133.77125 122.235)scale(0.24 -0.24)">
      <use xlink:href="#ArialMT-4f"/>
      <use x="77.783203" xlink:href="#ArialMT-72"/>
      <use x="111.083984" xlink:href="#ArialMT-69"/>
      <use x="133.300781" xlink:href="#ArialMT-67"/>
      <use x="188.916016" xlink:href="#ArialMT-69"/>
      <use x="211.132812" xlink:href="#ArialMT-6e"/>
      <use x="266.748047" xlink:href="#ArialMT-61"/>
      <use x="322.363281" xlink:href="#ArialMT-6c"/>
     </g>
    </g>
    <g id="patch_43">
     <path d="M 1066.57125 156.465 
L 1114.57125 156.465 
L 1114.57125 139.665 
L 1066.57125 139.665 
z
" style="fill:#d3d3d3;stroke:#000000;stroke-linejoin:miter;"/>
    </g>
    <g id="text_34">
     <!-- Scrambled -->
     <g style="fill:#262626;" transform="translate(1133.77125 156.465)scale(0.24 -0.24)">
      <use xlink:href="#ArialMT-53"/>
      <use x="66.699219" xlink:href="#ArialMT-63"/>
      <use x="116.699219" xlink:href="#ArialMT-72"/>
      <use x="150" xlink:href="#ArialMT-61"/>
      <use x="205.615234" xlink:href="#ArialMT-6d"/>
      <use x="288.916016" xlink:href="#ArialMT-62"/>
      <use x="344.53125" xlink:href="#ArialMT-6c"/>
      <use x="366.748047" xlink:href="#ArialMT-65"/>
      <use x="422.363281" xlink:href="#ArialMT-64"/>
     </g>
    </g>
   </g>
  </g>
 </g>
 <defs>
  <clipPath id="p2c2089219f">
   <rect height="240.79716" width="357.686667" x="92.54" y="49.2"/>
  </clipPath>
  <clipPath id="pfa81e444cd">
   <rect height="240.79716" width="357.686667" x="502.466667" y="49.2"/>
  </clipPath>
  <clipPath id="pa5ee819181">
   <rect height="240.79716" width="357.686667" x="912.393333" y="49.2"/>
  </clipPath>
 </defs>
</svg>
