<?xml version="1.0" encoding="utf-8" standalone="no"?>
<!DOCTYPE svg PUBLIC "-//W3C//DTD SVG 1.1//EN"
  "http://www.w3.org/Graphics/SVG/1.1/DTD/svg11.dtd">
<svg height="216pt" version="1.1" viewBox="0 0 360 216" width="360pt" xmlns="http://www.w3.org/2000/svg" xmlns:xlink="http://www.w3.org/1999/xlink">
 <metadata>
  <rdf:RDF xmlns:cc="http://creativecommons.org/ns#" xmlns:dc="http://purl.org/dc/elements/1.1/" xmlns:rdf="http://www.w3.org/1999/02/22-rdf-syntax-ns#">
   <cc:Work>
    <dc:type rdf:resource="http://purl.org/dc/dcmitype/StillImage"/>
    <dc:date>2022-12-15T20:49:35.978390</dc:date>
    <dc:format>image/svg+xml</dc:format>
    <dc:creator>
     <cc:Agent>
      <dc:title>Matplotlib v3.4.2, https://matplotlib.org/</dc:title>
     </cc:Agent>
    </dc:creator>
   </cc:Work>
  </rdf:RDF>
 </metadata>
 <defs>
  <style type="text/css">*{stroke-linecap:butt;stroke-linejoin:round;}</style>
 </defs>
 <g id="figure_1">
  <g id="patch_1">
   <path d="M 0 216 
L 360 216 
L 360 0 
L 0 0 
z
" style="fill:#ffffff;"/>
  </g>
  <g id="axes_1">
   <g id="patch_2">
    <path d="M 94.94 141.64 
L 338.4 141.64 
L 338.4 28.8 
L 94.94 28.8 
z
" style="fill:#ffffff;"/>
   </g>
   <g id="line2d_1">
    <path clip-path="url(#p6ef798832f)" d="M 94.94 141.64 
L 338.4 141.64 
" style="fill:none;stroke:#000000;stroke-linecap:round;stroke-width:0.5;"/>
   </g>
   <g id="patch_3">
    <path clip-path="url(#p6ef798832f)" d="M 102.72171 135.262622 
L 100.7494 128.386853 
L 98.652583 135.262622 
L 102.72171 135.262622 
z
M 99.829744 126.074587 
L 101.819032 126.074587 
L 106.533333 141.64 
L 104.603469 141.64 
L 103.287653 136.978174 
L 98.148894 136.978174 
L 96.742527 141.64 
L 94.94 141.64 
L 99.829744 126.074587 
z
M 100.740911 126.074587 
L 100.740911 126.074587 
z
" style="fill:#008000;"/>
   </g>
   <g id="patch_4">
    <path clip-path="url(#p6ef798832f)" d="M 106.533333 110.509174 
L 106.533333 112.363733 
L 101.718599 112.363733 
L 101.718599 126.074587 
L 99.754735 126.074587 
L 99.754735 112.363733 
L 94.94 112.363733 
L 94.94 110.509174 
L 106.533333 110.509174 
z
" style="fill:#ff0000;"/>
   </g>
   <g id="patch_5">
    <path clip-path="url(#p6ef798832f)" d="M 101.035611 73.86945 
Q 103.518269 73.86945 104.887718 77.355339 
Q 106.257166 80.83365 106.408062 85.259213 
L 104.682728 85.259213 
Q 104.389478 81.90215 103.512575 79.939443 
Q 102.635673 77.969158 101.052693 77.969158 
Q 99.122369 77.969158 97.935134 81.583873 
Q 96.747899 85.191011 96.747899 92.647782 
Q 96.747899 98.763244 97.818404 102.56741 
Q 98.891755 106.363998 101.018528 106.363998 
Q 102.974476 106.363998 103.999427 102.362803 
Q 104.540373 100.256114 104.807999 96.815693 
L 106.533333 96.815693 
Q 106.302719 102.309757 105.004448 106.030565 
Q 103.447092 110.509174 100.804997 110.509174 
Q 98.527328 110.509174 96.978513 106.833835 
Q 94.94 101.983902 94.94 91.844512 
Q 94.94 84.152822 96.471732 79.227109 
Q 98.125889 73.86945 101.035611 73.86945 
z
M 100.679725 73.86945 
L 100.679725 73.86945 
z
" style="fill:#0000ff;"/>
   </g>
   <g id="patch_6">
    <path clip-path="url(#p6ef798832f)" d="M 100.919108 28.86521 
Q 102.707589 28.86521 104.012322 31.19414 
Q 105.903081 34.538483 106.326013 42.92263 
L 104.62599 42.92263 
Q 104.313627 38.236824 103.337841 36.094208 
Q 102.362055 33.951593 100.87488 33.951593 
Q 99.114042 33.951593 97.908822 38.413822 
Q 96.703602 42.866736 96.703602 51.688722 
Q 96.703602 59.30898 97.695974 64.09726 
Q 98.69111 68.88554 100.935694 68.88554 
Q 102.655068 68.88554 103.782888 65.531881 
Q 104.910709 62.168906 104.935587 54.651121 
L 100.963337 54.651121 
L 100.963337 49.853525 
L 106.533333 49.853525 
L 106.533333 72.732932 
L 105.427627 72.732932 
L 105.012987 67.227342 
Q 104.142243 70.459896 103.467762 71.717518 
Q 102.334413 73.86945 100.590161 73.86945 
Q 98.337283 73.86945 96.711895 68.95075 
Q 94.94 62.774428 94.94 52.005457 
Q 94.94 41.264432 96.667667 34.920428 
Q 98.309641 28.86521 100.919108 28.86521 
z
M 100.634389 28.8 
L 100.634389 28.8 
z
" style="fill:#ffa600;"/>
   </g>
   <g id="patch_7">
    <path clip-path="url(#p6ef798832f)" d="M 118.736842 126.074587 
L 118.736842 127.929146 
L 113.922107 127.929146 
L 113.922107 141.64 
L 111.958243 141.64 
L 111.958243 127.929146 
L 107.143509 127.929146 
L 107.143509 126.074587 
L 118.736842 126.074587 
z
" style="fill:#ff0000;"/>
   </g>
   <g id="patch_8">
    <path clip-path="url(#p6ef798832f)" d="M 114.925219 117.970318 
L 112.952909 109.232702 
L 110.856092 117.970318 
L 114.925219 117.970318 
z
M 112.033252 106.294312 
L 114.022541 106.294312 
L 118.736842 126.074587 
L 116.806978 126.074587 
L 115.491162 120.150414 
L 110.352403 120.150414 
L 108.946036 126.074587 
L 107.143509 126.074587 
L 112.033252 106.294312 
z
M 112.94442 106.294312 
L 112.94442 106.294312 
z
" style="fill:#008000;"/>
   </g>
   <g id="patch_9">
    <path clip-path="url(#p6ef798832f)" d="M 113.239119 77.030596 
Q 115.721778 77.030596 117.091227 79.814735 
Q 118.460675 82.592821 118.61157 86.127466 
L 116.886236 86.127466 
Q 116.592987 83.44622 115.716084 81.878629 
Q 114.839182 80.304985 113.256202 80.304985 
Q 111.325878 80.304985 110.138643 83.192016 
Q 108.951408 86.072994 108.951408 92.028629 
Q 108.951408 96.912976 110.021913 99.951318 
Q 111.095264 102.983608 113.222037 102.983608 
Q 115.177985 102.983608 116.202936 99.787902 
Q 116.743882 98.105314 117.011508 95.35749 
L 118.736842 95.35749 
Q 118.506228 99.745534 117.207957 102.717299 
Q 115.650601 106.294312 113.008505 106.294312 
Q 110.730837 106.294312 109.182022 103.358862 
Q 107.143509 99.485278 107.143509 91.387067 
Q 107.143509 85.243805 108.675241 81.309696 
Q 110.329398 77.030596 113.239119 77.030596 
z
M 112.883234 77.030596 
L 112.883234 77.030596 
z
" style="fill:#0000ff;"/>
   </g>
   <g id="patch_10">
    <path clip-path="url(#p6ef798832f)" d="M 113.122617 28.869784 
Q 114.911097 28.869784 116.215831 31.362064 
Q 118.106589 34.940977 118.529522 43.913184 
L 116.829498 43.913184 
Q 116.517136 38.898717 115.54135 36.60582 
Q 114.565564 34.312923 113.078389 34.312923 
Q 111.317551 34.312923 110.112331 39.088131 
Q 108.907111 43.853369 108.907111 53.294125 
Q 108.907111 61.448864 109.899482 66.572991 
Q 110.894618 71.697118 113.139203 71.697118 
Q 114.858576 71.697118 115.986397 68.108235 
Q 117.114218 64.509383 117.139096 56.464304 
L 113.166845 56.464304 
L 113.166845 51.330208 
L 118.736842 51.330208 
L 118.736842 75.814364 
L 117.631136 75.814364 
L 117.216496 69.922615 
Q 116.345752 73.381899 115.671271 74.72773 
Q 114.537921 77.030596 112.793669 77.030596 
Q 110.540792 77.030596 108.915404 71.766902 
Q 107.143509 65.157376 107.143509 53.633075 
Q 107.143509 42.138681 108.871175 35.349711 
Q 110.51315 28.869784 113.122617 28.869784 
z
M 112.837898 28.8 
L 112.837898 28.8 
z
" style="fill:#ffa600;"/>
   </g>
   <g id="patch_11">
    <path clip-path="url(#p6ef798832f)" d="M 127.128728 133.967454 
L 125.156418 125.695299 
L 123.059601 133.967454 
L 127.128728 133.967454 
z
M 124.236761 122.91344 
L 126.226049 122.91344 
L 130.940351 141.64 
L 129.010487 141.64 
L 127.69467 136.031414 
L 122.555912 136.031414 
L 121.149545 141.64 
L 119.347018 141.64 
L 124.236761 122.91344 
z
M 125.147929 122.91344 
L 125.147929 122.91344 
z
" style="fill:#008000;"/>
   </g>
   <g id="patch_12">
    <path clip-path="url(#p6ef798832f)" d="M 130.940351 96.810872 
L 130.940351 99.920892 
L 126.125616 99.920892 
L 126.125616 122.91344 
L 124.161752 122.91344 
L 124.161752 99.920892 
L 119.347018 99.920892 
L 119.347018 96.810872 
L 130.940351 96.810872 
z
" style="fill:#ff0000;"/>
   </g>
   <g id="patch_13">
    <path clip-path="url(#p6ef798832f)" d="M 125.326126 63.380733 
Q 127.114606 63.380733 128.41934 65.110713 
Q 130.310098 67.594965 130.733031 73.822894 
L 129.033007 73.822894 
Q 128.720645 70.342174 127.744859 68.750592 
Q 126.769073 67.15901 125.281898 67.15901 
Q 123.52106 67.15901 122.31584 70.473652 
Q 121.11062 73.781374 121.11062 80.33454 
Q 121.11062 85.995035 122.102991 89.551874 
Q 123.098127 93.108714 125.342711 93.108714 
Q 127.062085 93.108714 128.189906 90.617542 
Q 129.317726 88.119451 129.342605 82.535074 
L 125.370354 82.535074 
L 125.370354 78.971315 
L 130.940351 78.971315 
L 130.940351 95.966641 
L 129.834644 95.966641 
L 129.420004 91.876968 
Q 128.54926 94.27818 127.874779 95.21237 
Q 126.74143 96.810872 124.997178 96.810872 
Q 122.744301 96.810872 121.118912 93.157153 
Q 119.347018 88.569246 119.347018 80.569817 
Q 119.347018 72.591148 121.074684 67.878682 
Q 122.716658 63.380733 125.326126 63.380733 
z
M 125.041406 63.332294 
L 125.041406 63.332294 
z
" style="fill:#ffa600;"/>
   </g>
   <g id="patch_14">
    <path clip-path="url(#p6ef798832f)" d="M 125.442628 28.8 
Q 127.925287 28.8 129.294735 32.085389 
Q 130.664184 35.363636 130.815079 39.534651 
L 129.089745 39.534651 
Q 128.796495 36.370679 127.919593 34.520862 
Q 127.04269 32.663903 125.459711 32.663903 
Q 123.529387 32.663903 122.342152 36.070708 
Q 121.154917 39.470372 121.154917 46.498247 
Q 121.154917 52.261962 122.225421 55.847321 
Q 123.298773 59.425538 125.425546 59.425538 
Q 127.381494 59.425538 128.406445 55.654483 
Q 128.947391 53.668965 129.215017 50.426429 
L 130.940351 50.426429 
Q 130.709737 55.604488 129.411466 59.111283 
Q 127.85411 63.332294 125.212014 63.332294 
Q 122.934346 63.332294 121.385531 59.868351 
Q 119.347018 55.297375 119.347018 45.741179 
Q 119.347018 38.491897 120.87875 33.8495 
Q 122.532907 28.8 125.442628 28.8 
z
M 125.086742 28.8 
L 125.086742 28.8 
z
" style="fill:#0000ff;"/>
   </g>
   <g id="patch_15">
    <path clip-path="url(#p6ef798832f)" d="M 139.332237 134.830899 
L 137.359927 127.489668 
L 135.26311 134.830899 
L 139.332237 134.830899 
z
M 136.44027 125.020872 
L 138.429558 125.020872 
L 143.14386 141.64 
L 141.213996 141.64 
L 139.898179 136.662587 
L 134.759421 136.662587 
L 133.353053 141.64 
L 131.550526 141.64 
L 136.44027 125.020872 
z
M 137.351438 125.020872 
L 137.351438 125.020872 
z
" style="fill:#008000;"/>
   </g>
   <g id="patch_16">
    <path clip-path="url(#p6ef798832f)" d="M 137.646137 98.918303 
Q 140.128796 98.918303 141.498244 101.401691 
Q 142.867692 103.87968 143.018588 107.032504 
L 141.293254 107.032504 
Q 141.000004 104.640893 140.123102 103.242637 
Q 139.246199 101.838983 137.66322 101.838983 
Q 135.732895 101.838983 134.545661 104.414149 
Q 133.358426 106.983916 133.358426 112.296207 
Q 133.358426 116.652933 134.42893 119.363066 
Q 135.502281 122.067799 137.629054 122.067799 
Q 139.585002 122.067799 140.609953 119.217301 
Q 141.1509 117.716471 141.418526 115.265475 
L 143.14386 115.265475 
Q 142.913246 119.179511 141.614975 121.830258 
Q 140.057619 125.020872 137.415523 125.020872 
Q 135.137854 125.020872 133.58904 122.402517 
Q 131.550526 118.947368 131.550526 111.723948 
Q 131.550526 106.244298 133.082258 102.735162 
Q 134.736415 98.918303 137.646137 98.918303 
z
M 137.290251 98.918303 
L 137.290251 98.918303 
z
" style="fill:#0000ff;"/>
   </g>
   <g id="patch_17">
    <path clip-path="url(#p6ef798832f)" d="M 143.14386 69.654587 
L 143.14386 73.141246 
L 138.329125 73.141246 
L 138.329125 98.918303 
L 136.365261 98.918303 
L 136.365261 73.141246 
L 131.550526 73.141246 
L 131.550526 69.654587 
L 143.14386 69.654587 
z
" style="fill:#ff0000;"/>
   </g>
   <g id="patch_18">
    <path clip-path="url(#p6ef798832f)" d="M 137.529635 28.859112 
Q 139.318115 28.859112 140.622849 30.970242 
Q 142.513607 34.001824 142.93654 41.601892 
L 141.236516 41.601892 
Q 140.924154 37.354299 139.948368 35.412059 
Q 138.972582 33.469819 137.485406 33.469819 
Q 135.724569 33.469819 134.519348 37.514745 
Q 133.314128 41.551225 133.314128 49.548185 
Q 133.314128 56.455803 134.3065 60.796286 
Q 135.301636 65.136769 137.54622 65.136769 
Q 139.265594 65.136769 140.393415 62.096742 
Q 141.521235 59.04827 141.546114 52.233543 
L 137.573863 52.233543 
L 137.573863 47.884615 
L 143.14386 47.884615 
L 143.14386 68.624356 
L 142.038153 68.624356 
L 141.623513 63.633644 
Q 140.752769 66.563893 140.078288 67.703903 
Q 138.944939 69.654587 137.200687 69.654587 
Q 134.94781 69.654587 133.322421 65.195881 
Q 131.550526 59.597164 131.550526 49.835299 
Q 131.550526 40.098768 133.278193 34.34805 
Q 134.920167 28.859112 137.529635 28.859112 
z
M 137.244915 28.8 
L 137.244915 28.8 
z
" style="fill:#ffa600;"/>
   </g>
   <g id="patch_19">
    <path clip-path="url(#p6ef798832f)" d="M 151.535745 134.830899 
L 149.563435 127.489668 
L 147.466618 134.830899 
L 151.535745 134.830899 
z
M 148.643779 125.020872 
L 150.633067 125.020872 
L 155.347368 141.64 
L 153.417504 141.64 
L 152.101688 136.662587 
L 146.962929 136.662587 
L 145.556562 141.64 
L 143.754035 141.64 
L 148.643779 125.020872 
z
M 149.554946 125.020872 
L 149.554946 125.020872 
z
" style="fill:#008000;"/>
   </g>
   <g id="patch_20">
    <path clip-path="url(#p6ef798832f)" d="M 155.347368 103.133165 
L 155.347368 105.741001 
L 150.532634 105.741001 
L 150.532634 125.020872 
L 148.56877 125.020872 
L 148.56877 105.741001 
L 143.754035 105.741001 
L 143.754035 103.133165 
L 155.347368 103.133165 
z
" style="fill:#ff0000;"/>
   </g>
   <g id="patch_21">
    <path clip-path="url(#p6ef798832f)" d="M 149.849646 68.600872 
Q 152.332305 68.600872 153.701753 71.88626 
Q 155.071201 75.164507 155.222097 79.335522 
L 153.496763 79.335522 
Q 153.203513 76.17155 152.32661 74.321733 
Q 151.449708 72.464775 149.866728 72.464775 
Q 147.936404 72.464775 146.749169 75.87158 
Q 145.561935 79.271243 145.561935 86.299118 
Q 145.561935 92.062833 146.632439 95.648192 
Q 147.70579 99.226409 149.832563 99.226409 
Q 151.788511 99.226409 152.813462 95.455354 
Q 153.354408 93.469837 153.622034 90.227301 
L 155.347368 90.227301 
Q 155.116754 95.405359 153.818483 98.912155 
Q 152.261127 103.133165 149.619032 103.133165 
Q 147.341363 103.133165 145.792549 99.669223 
Q 143.754035 95.098247 143.754035 85.542051 
Q 143.754035 78.292769 145.285767 73.650371 
Q 146.939924 68.600872 149.849646 68.600872 
z
M 149.49376 68.600872 
L 149.49376 68.600872 
z
" style="fill:#0000ff;"/>
   </g>
   <g id="patch_22">
    <path clip-path="url(#p6ef798832f)" d="M 149.733143 28.857587 
Q 151.521624 28.857587 152.826357 30.914267 
Q 154.717116 33.86766 155.140048 41.271708 
L 153.440025 41.271708 
Q 153.127662 37.133667 152.151876 35.241522 
Q 151.17609 33.349376 149.688915 33.349376 
Q 147.928077 33.349376 146.722857 37.289975 
Q 145.517637 41.222347 145.517637 49.013051 
Q 145.517637 55.742508 146.510009 59.971042 
Q 147.505145 64.199576 149.749729 64.199576 
Q 151.469103 64.199576 152.596923 61.237957 
Q 153.724744 58.268111 153.749622 51.629148 
L 149.777372 51.629148 
L 149.777372 47.392387 
L 155.347368 47.392387 
L 155.347368 67.597212 
L 154.241662 67.597212 
L 153.827022 62.73522 
Q 152.956278 65.589892 152.281797 66.700499 
Q 151.148448 68.600872 149.404196 68.600872 
Q 147.151319 68.600872 145.52593 64.257163 
Q 143.754035 58.802848 143.754035 49.29276 
Q 143.754035 39.807351 145.481702 34.204955 
Q 147.123676 28.857587 149.733143 28.857587 
z
M 149.448424 28.8 
L 149.448424 28.8 
z
" style="fill:#ffa600;"/>
   </g>
   <g id="patch_23">
    <path clip-path="url(#p6ef798832f)" d="M 163.739254 136.126068 
L 161.766944 130.181222 
L 159.670127 136.126068 
L 163.739254 136.126068 
z
M 160.847288 128.182018 
L 162.836576 128.182018 
L 167.550877 141.64 
L 165.621013 141.64 
L 164.305197 137.609348 
L 159.166438 137.609348 
L 157.760071 141.64 
L 155.957544 141.64 
L 160.847288 128.182018 
z
M 161.758455 128.182018 
L 161.758455 128.182018 
z
" style="fill:#008000;"/>
   </g>
   <g id="patch_24">
    <path clip-path="url(#p6ef798832f)" d="M 162.053155 101.025734 
Q 164.535813 101.025734 165.905262 103.609372 
Q 167.27471 106.187394 167.425605 109.467491 
L 165.700271 109.467491 
Q 165.407022 106.979335 164.530119 105.524634 
Q 163.653217 104.064317 162.070237 104.064317 
Q 160.139913 104.064317 158.952678 106.743438 
Q 157.765443 109.416942 157.765443 114.943681 
Q 157.765443 119.476281 158.835948 122.295816 
Q 159.909299 125.109736 162.036072 125.109736 
Q 163.99202 125.109736 165.016971 122.144168 
Q 165.557917 120.582752 165.825543 118.032813 
L 167.550877 118.032813 
Q 167.320263 122.104852 166.021992 124.862605 
Q 164.464636 128.182018 161.822541 128.182018 
Q 159.544872 128.182018 157.996057 125.457965 
Q 155.957544 121.863338 155.957544 114.348321 
Q 155.957544 108.647467 157.489276 104.996674 
Q 159.143433 101.025734 162.053155 101.025734 
z
M 161.697269 101.025734 
L 161.697269 101.025734 
z
" style="fill:#0000ff;"/>
   </g>
   <g id="patch_25">
    <path clip-path="url(#p6ef798832f)" d="M 167.550877 71.762018 
L 167.550877 75.248678 
L 162.736143 75.248678 
L 162.736143 101.025734 
L 160.772279 101.025734 
L 160.772279 75.248678 
L 155.957544 75.248678 
L 155.957544 71.762018 
L 167.550877 71.762018 
z
" style="fill:#ff0000;"/>
   </g>
   <g id="patch_26">
    <path clip-path="url(#p6ef798832f)" d="M 161.936652 28.862161 
Q 163.725132 28.862161 165.029866 31.082191 
Q 166.920624 34.270154 167.343557 42.262261 
L 165.643533 42.262261 
Q 165.331171 37.795561 164.355385 35.753134 
Q 163.379599 33.710706 161.892424 33.710706 
Q 160.131586 33.710706 158.926366 37.964283 
Q 157.721146 42.208981 157.721146 50.618454 
Q 157.721146 57.882392 158.713517 62.446773 
Q 159.708653 67.011154 161.953238 67.011154 
Q 163.672611 67.011154 164.800432 63.814311 
Q 165.928253 60.608588 165.953131 53.442332 
L 161.98088 53.442332 
L 161.98088 48.86907 
L 167.550877 48.86907 
L 167.550877 70.678644 
L 166.445171 70.678644 
L 166.030531 65.430493 
Q 165.159787 68.511895 164.485306 69.710711 
Q 163.351957 71.762018 161.607704 71.762018 
Q 159.354827 71.762018 157.729439 67.073315 
Q 155.957544 61.185796 155.957544 50.920378 
Q 155.957544 40.6816 157.68521 34.634239 
Q 159.327185 28.862161 161.936652 28.862161 
z
M 161.651933 28.8 
L 161.651933 28.8 
z
" style="fill:#ffa600;"/>
   </g>
   <g id="patch_27">
    <path clip-path="url(#p6ef798832f)" d="M 175.942763 135.694345 
L 173.970453 129.284037 
L 171.873636 135.694345 
L 175.942763 135.694345 
z
M 173.050796 127.128303 
L 175.040084 127.128303 
L 179.754386 141.64 
L 177.824522 141.64 
L 176.508705 137.293761 
L 171.369947 137.293761 
L 169.96358 141.64 
L 168.161053 141.64 
L 173.050796 127.128303 
z
M 173.961964 127.128303 
L 173.961964 127.128303 
z
" style="fill:#008000;"/>
   </g>
   <g id="patch_28">
    <path clip-path="url(#p6ef798832f)" d="M 174.256663 102.07945 
Q 176.739322 102.07945 178.10877 104.462588 
Q 179.478219 106.840545 179.629114 109.866094 
L 177.90378 109.866094 
Q 177.61053 107.571029 176.733628 106.229218 
Q 175.856726 104.882227 174.273746 104.882227 
Q 172.343422 104.882227 171.156187 107.353438 
Q 169.968952 109.819467 169.968952 114.917311 
Q 169.968952 119.098164 171.039456 121.698893 
Q 172.112808 124.294441 174.239581 124.294441 
Q 176.195529 124.294441 177.22048 121.559013 
Q 177.761426 120.118768 178.029052 117.766715 
L 179.754386 117.766715 
Q 179.523772 121.522748 178.225501 124.066488 
Q 176.668145 127.128303 174.026049 127.128303 
Q 171.748381 127.128303 170.199566 124.615646 
Q 168.161053 121.299976 168.161053 114.368153 
Q 168.161053 109.109707 169.692785 105.742229 
Q 171.346942 102.07945 174.256663 102.07945 
z
M 173.900778 102.07945 
L 173.900778 102.07945 
z
" style="fill:#0000ff;"/>
   </g>
   <g id="patch_29">
    <path clip-path="url(#p6ef798832f)" d="M 179.754386 71.762018 
L 179.754386 75.374224 
L 174.939651 75.374224 
L 174.939651 102.07945 
L 172.975787 102.07945 
L 172.975787 75.374224 
L 168.161053 75.374224 
L 168.161053 71.762018 
L 179.754386 71.762018 
z
" style="fill:#ff0000;"/>
   </g>
   <g id="patch_30">
    <path clip-path="url(#p6ef798832f)" d="M 174.140161 28.862161 
Q 175.928641 28.862161 177.233375 31.082191 
Q 179.124133 34.270154 179.547066 42.262261 
L 177.847042 42.262261 
Q 177.53468 37.795561 176.558894 35.753134 
Q 175.583108 33.710706 174.095933 33.710706 
Q 172.335095 33.710706 171.129875 37.964283 
Q 169.924655 42.208981 169.924655 50.618454 
Q 169.924655 57.882392 170.917026 62.446773 
Q 171.912162 67.011154 174.156746 67.011154 
Q 175.87612 67.011154 177.003941 63.814311 
Q 178.131762 60.608588 178.15664 53.442332 
L 174.184389 53.442332 
L 174.184389 48.86907 
L 179.754386 48.86907 
L 179.754386 70.678644 
L 178.648679 70.678644 
L 178.234039 65.430493 
Q 177.363296 68.511895 176.688815 69.710711 
Q 175.555465 71.762018 173.811213 71.762018 
Q 171.558336 71.762018 169.932947 67.073315 
Q 168.161053 61.185796 168.161053 50.920378 
Q 168.161053 40.6816 169.888719 34.634239 
Q 171.530693 28.862161 174.140161 28.862161 
z
M 173.855441 28.8 
L 173.855441 28.8 
z
" style="fill:#ffa600;"/>
   </g>
   <g id="patch_31">
    <path clip-path="url(#p6ef798832f)" d="M 188.146272 134.830899 
L 186.173962 127.489668 
L 184.077145 134.830899 
L 188.146272 134.830899 
z
M 185.254305 125.020872 
L 187.243593 125.020872 
L 191.957895 141.64 
L 190.028031 141.64 
L 188.712214 136.662587 
L 183.573456 136.662587 
L 182.167088 141.64 
L 180.364561 141.64 
L 185.254305 125.020872 
z
M 186.165473 125.020872 
L 186.165473 125.020872 
z
" style="fill:#008000;"/>
   </g>
   <g id="patch_32">
    <path clip-path="url(#p6ef798832f)" d="M 191.957895 106.294312 
L 191.957895 108.52551 
L 187.14316 108.52551 
L 187.14316 125.020872 
L 185.179296 125.020872 
L 185.179296 108.52551 
L 180.364561 108.52551 
L 180.364561 106.294312 
L 191.957895 106.294312 
z
" style="fill:#ff0000;"/>
   </g>
   <g id="patch_33">
    <path clip-path="url(#p6ef798832f)" d="M 186.460172 74.923165 
Q 188.942831 74.923165 190.312279 77.907804 
Q 191.681727 80.885954 191.832623 84.675147 
L 190.107289 84.675147 
Q 189.814039 81.800811 188.937137 80.120329 
Q 188.060234 78.43336 186.477255 78.43336 
Q 184.54693 78.43336 183.359696 81.5283 
Q 182.172461 84.616752 182.172461 91.001283 
Q 182.172461 96.237378 183.242965 99.494527 
Q 184.316316 102.745187 186.44309 102.745187 
Q 188.399038 102.745187 189.423988 99.319341 
Q 189.964935 97.515582 190.232561 94.569873 
L 191.957895 94.569873 
Q 191.727281 99.273923 190.42901 102.4597 
Q 188.871654 106.294312 186.229558 106.294312 
Q 183.951889 106.294312 182.403075 103.147465 
Q 180.364561 98.994924 180.364561 90.313519 
Q 180.364561 83.727849 181.896294 79.510425 
Q 183.55045 74.923165 186.460172 74.923165 
z
M 186.104286 74.923165 
L 186.104286 74.923165 
z
" style="fill:#0000ff;"/>
   </g>
   <g id="patch_34">
    <path clip-path="url(#p6ef798832f)" d="M 186.34367 28.866735 
Q 188.13215 28.866735 189.436884 31.250114 
Q 191.327642 34.672648 191.750575 43.252815 
L 190.050551 43.252815 
Q 189.738189 38.457455 188.762403 36.264745 
Q 187.786617 34.072036 186.299441 34.072036 
Q 184.538604 34.072036 183.333384 38.638592 
Q 182.128163 43.195614 182.128163 52.223856 
Q 182.128163 60.022275 183.120535 64.922504 
Q 184.115671 69.822732 186.360255 69.822732 
Q 188.079629 69.822732 189.20745 66.390666 
Q 190.33527 62.949065 190.360149 55.255515 
L 186.387898 55.255515 
L 186.387898 50.345753 
L 191.957895 50.345753 
L 191.957895 73.760076 
L 190.852188 73.760076 
L 190.437548 68.125766 
Q 189.566804 71.433897 188.892323 72.720922 
Q 187.758974 74.923165 186.014722 74.923165 
Q 183.761845 74.923165 182.136456 69.889467 
Q 180.364561 63.568744 180.364561 52.547996 
Q 180.364561 41.555848 182.092228 35.063522 
Q 183.734202 28.866735 186.34367 28.866735 
z
M 186.05895 28.8 
L 186.05895 28.8 
z
" style="fill:#ffa600;"/>
   </g>
   <g id="patch_35">
    <path clip-path="url(#p6ef798832f)" d="M 200.34978 132.672286 
L 198.377471 123.003746 
L 196.280653 132.672286 
L 200.34978 132.672286 
z
M 197.457814 119.752294 
L 199.447102 119.752294 
L 204.161404 141.64 
L 202.231539 141.64 
L 200.915723 135.084653 
L 195.776964 135.084653 
L 194.370597 141.64 
L 192.56807 141.64 
L 197.457814 119.752294 
z
M 198.368981 119.752294 
L 198.368981 119.752294 
z
" style="fill:#008000;"/>
   </g>
   <g id="patch_36">
    <path clip-path="url(#p6ef798832f)" d="M 204.161404 96.810872 
L 204.161404 99.544254 
L 199.346669 99.544254 
L 199.346669 119.752294 
L 197.382805 119.752294 
L 197.382805 99.544254 
L 192.56807 99.544254 
L 192.56807 96.810872 
L 204.161404 96.810872 
z
" style="fill:#ff0000;"/>
   </g>
   <g id="patch_37">
    <path clip-path="url(#p6ef798832f)" d="M 198.663681 65.439725 
Q 201.14634 65.439725 202.515788 68.424363 
Q 203.885236 71.402514 204.036132 75.191707 
L 202.310798 75.191707 
Q 202.017548 72.31737 201.140645 70.636889 
Q 200.263743 68.949919 198.680763 68.949919 
Q 196.750439 68.949919 195.563204 72.04486 
Q 194.37597 75.133312 194.37597 81.517843 
Q 194.37597 86.753937 195.446474 90.011086 
Q 196.519825 93.261747 198.646598 93.261747 
Q 200.602546 93.261747 201.627497 89.835901 
Q 202.168443 88.032141 202.43607 85.086433 
L 204.161404 85.086433 
Q 203.93079 89.790483 202.632518 92.97626 
Q 201.075163 96.810872 198.433067 96.810872 
Q 196.155398 96.810872 194.606584 93.664024 
Q 192.56807 89.511484 192.56807 80.830078 
Q 192.56807 74.244409 194.099802 70.026984 
Q 195.753959 65.439725 198.663681 65.439725 
z
M 198.307795 65.439725 
L 198.307795 65.439725 
z
" style="fill:#0000ff;"/>
   </g>
   <g id="patch_38">
    <path clip-path="url(#p6ef798832f)" d="M 198.547178 28.853013 
Q 200.335659 28.853013 201.640393 30.746343 
Q 203.531151 33.465165 203.954084 40.281154 
L 202.25406 40.281154 
Q 201.941698 36.471774 200.965912 34.72991 
Q 199.990125 32.988046 198.50295 32.988046 
Q 196.742112 32.988046 195.536892 36.615667 
Q 194.331672 40.235714 194.331672 47.407649 
Q 194.331672 53.602625 195.324044 57.495312 
Q 196.31918 61.387998 198.563764 61.387998 
Q 200.283138 61.387998 201.410958 58.661603 
Q 202.538779 55.927634 202.563658 49.815964 
L 198.591407 49.815964 
L 198.591407 45.915704 
L 204.161404 45.915704 
L 204.161404 64.51578 
L 203.055697 64.51578 
L 202.641057 60.039947 
Q 201.770313 62.667889 201.095832 63.690288 
Q 199.962483 65.439725 198.218231 65.439725 
Q 195.965354 65.439725 194.339965 61.441012 
Q 192.56807 56.4199 192.56807 47.665141 
Q 192.56807 38.933103 194.295737 33.775672 
Q 195.937711 28.853013 198.547178 28.853013 
z
M 198.262459 28.8 
L 198.262459 28.8 
z
" style="fill:#ffa600;"/>
   </g>
   <g id="patch_39">
    <path clip-path="url(#p6ef798832f)" d="M 212.553289 136.55779 
L 210.580979 131.078406 
L 208.484162 136.55779 
L 212.553289 136.55779 
z
M 209.661323 129.235734 
L 211.650611 129.235734 
L 216.364912 141.64 
L 214.435048 141.64 
L 213.119232 137.924934 
L 207.980473 137.924934 
L 206.574106 141.64 
L 204.771579 141.64 
L 209.661323 129.235734 
z
M 210.57249 129.235734 
L 210.57249 129.235734 
z
" style="fill:#008000;"/>
   </g>
   <g id="patch_40">
    <path clip-path="url(#p6ef798832f)" d="M 216.364912 111.56289 
L 216.364912 113.668541 
L 211.550178 113.668541 
L 211.550178 129.235734 
L 209.586314 129.235734 
L 209.586314 113.668541 
L 204.771579 113.668541 
L 204.771579 111.56289 
L 216.364912 111.56289 
z
" style="fill:#ff0000;"/>
   </g>
   <g id="patch_41">
    <path clip-path="url(#p6ef798832f)" d="M 210.86719 71.762018 
Q 213.349848 71.762018 214.719297 75.548658 
Q 216.088745 79.327065 216.239641 84.134451 
L 214.514307 84.134451 
Q 214.221057 80.487752 213.344154 78.35571 
Q 212.467252 76.215435 210.884272 76.215435 
Q 208.953948 76.215435 207.766713 80.142016 
Q 206.579478 84.060364 206.579478 92.16048 
Q 206.579478 98.803562 207.649983 102.935938 
Q 208.723334 107.060082 210.850107 107.060082 
Q 212.806055 107.060082 213.831006 102.713679 
Q 214.371952 100.425231 214.639578 96.687983 
L 216.364912 96.687983 
Q 216.134298 102.656056 214.836027 106.697882 
Q 213.278671 111.56289 210.636576 111.56289 
Q 208.358907 111.56289 206.810092 107.570455 
Q 204.771579 102.302087 204.771579 91.287906 
Q 204.771579 82.932604 206.303311 77.581918 
Q 207.957468 71.762018 210.86719 71.762018 
z
M 210.511304 71.762018 
L 210.511304 71.762018 
z
" style="fill:#0000ff;"/>
   </g>
   <g id="patch_42">
    <path clip-path="url(#p6ef798832f)" d="M 210.750687 28.862161 
Q 212.539168 28.862161 213.843901 31.082191 
Q 215.73466 34.270154 216.157592 42.262261 
L 214.457568 42.262261 
Q 214.145206 37.795561 213.16942 35.753134 
Q 212.193634 33.710706 210.706459 33.710706 
Q 208.945621 33.710706 207.740401 37.964283 
Q 206.535181 42.208981 206.535181 50.618454 
Q 206.535181 57.882392 207.527553 62.446773 
Q 208.522688 67.011154 210.767273 67.011154 
Q 212.486647 67.011154 213.614467 63.814311 
Q 214.742288 60.608588 214.767166 53.442332 
L 210.794915 53.442332 
L 210.794915 48.86907 
L 216.364912 48.86907 
L 216.364912 70.678644 
L 215.259206 70.678644 
L 214.844566 65.430493 
Q 213.973822 68.511895 213.299341 69.710711 
Q 212.165992 71.762018 210.421739 71.762018 
Q 208.168862 71.762018 206.543474 67.073315 
Q 204.771579 61.185796 204.771579 50.920378 
Q 204.771579 40.6816 206.499245 34.634239 
Q 208.14122 28.862161 210.750687 28.862161 
z
M 210.465968 28.8 
L 210.465968 28.8 
z
" style="fill:#ffa600;"/>
   </g>
   <g id="patch_43">
    <path clip-path="url(#p6ef798832f)" d="M 224.756798 134.830899 
L 222.784488 127.489668 
L 220.687671 134.830899 
L 224.756798 134.830899 
z
M 221.864831 125.020872 
L 223.85412 125.020872 
L 228.568421 141.64 
L 226.638557 141.64 
L 225.32274 136.662587 
L 220.183982 136.662587 
L 218.777615 141.64 
L 216.975088 141.64 
L 221.864831 125.020872 
z
M 222.775999 125.020872 
L 222.775999 125.020872 
z
" style="fill:#008000;"/>
   </g>
   <g id="patch_44">
    <path clip-path="url(#p6ef798832f)" d="M 223.070698 97.864587 
Q 225.553357 97.864587 226.922805 100.448225 
Q 228.292254 103.026247 228.443149 106.306344 
L 226.717815 106.306344 
Q 226.424565 103.818188 225.547663 102.363488 
Q 224.670761 100.90317 223.087781 100.90317 
Q 221.157457 100.90317 219.970222 103.582291 
Q 218.782987 106.255795 218.782987 111.782534 
Q 218.782987 116.315134 219.853491 119.13467 
Q 220.926843 121.948589 223.053616 121.948589 
Q 225.009564 121.948589 226.034515 118.983021 
Q 226.575461 117.421605 226.843087 114.871667 
L 228.568421 114.871667 
Q 228.337807 118.943705 227.039536 121.701458 
Q 225.48218 125.020872 222.840084 125.020872 
Q 220.562416 125.020872 219.013601 122.296818 
Q 216.975088 118.702191 216.975088 111.187174 
Q 216.975088 105.48632 218.50682 101.835527 
Q 220.160977 97.864587 223.070698 97.864587 
z
M 222.714813 97.864587 
L 222.714813 97.864587 
z
" style="fill:#0000ff;"/>
   </g>
   <g id="patch_45">
    <path clip-path="url(#p6ef798832f)" d="M 228.568421 69.654587 
L 228.568421 73.0157 
L 223.753686 73.0157 
L 223.753686 97.864587 
L 221.789822 97.864587 
L 221.789822 73.0157 
L 216.975088 73.0157 
L 216.975088 69.654587 
L 228.568421 69.654587 
z
" style="fill:#ff0000;"/>
   </g>
   <g id="patch_46">
    <path clip-path="url(#p6ef798832f)" d="M 222.954196 28.859112 
Q 224.742676 28.859112 226.04741 30.970242 
Q 227.938168 34.001824 228.361101 41.601892 
L 226.661077 41.601892 
Q 226.348715 37.354299 225.372929 35.412059 
Q 224.397143 33.469819 222.909968 33.469819 
Q 221.14913 33.469819 219.94391 37.514745 
Q 218.73869 41.551225 218.73869 49.548185 
Q 218.73869 56.455803 219.731061 60.796286 
Q 220.726197 65.136769 222.970782 65.136769 
Q 224.690155 65.136769 225.817976 62.096742 
Q 226.945797 59.04827 226.970675 52.233543 
L 222.998424 52.233543 
L 222.998424 47.884615 
L 228.568421 47.884615 
L 228.568421 68.624356 
L 227.462714 68.624356 
L 227.048075 63.633644 
Q 226.177331 66.563893 225.50285 67.703903 
Q 224.3695 69.654587 222.625248 69.654587 
Q 220.372371 69.654587 218.746982 65.195881 
Q 216.975088 59.597164 216.975088 49.835299 
Q 216.975088 40.098768 218.702754 34.34805 
Q 220.344728 28.859112 222.954196 28.859112 
z
M 222.669477 28.8 
L 222.669477 28.8 
z
" style="fill:#ffa600;"/>
   </g>
   <g id="patch_47">
    <path clip-path="url(#p6ef798832f)" d="M 236.960307 136.126068 
L 234.987997 130.181222 
L 232.89118 136.126068 
L 236.960307 136.126068 
z
M 234.06834 128.182018 
L 236.057628 128.182018 
L 240.77193 141.64 
L 238.842066 141.64 
L 237.526249 137.609348 
L 232.387491 137.609348 
L 230.981124 141.64 
L 229.178596 141.64 
L 234.06834 128.182018 
z
M 234.979508 128.182018 
L 234.979508 128.182018 
z
" style="fill:#008000;"/>
   </g>
   <g id="patch_48">
    <path clip-path="url(#p6ef798832f)" d="M 240.77193 105.240596 
L 240.77193 107.973979 
L 235.957195 107.973979 
L 235.957195 128.182018 
L 233.993331 128.182018 
L 233.993331 107.973979 
L 229.178596 107.973979 
L 229.178596 105.240596 
L 240.77193 105.240596 
z
" style="fill:#ff0000;"/>
   </g>
   <g id="patch_49">
    <path clip-path="url(#p6ef798832f)" d="M 235.274207 68.600872 
Q 237.756866 68.600872 239.126314 72.086761 
Q 240.495763 75.565072 240.646658 79.990635 
L 238.921324 79.990635 
Q 238.628074 76.633572 237.751172 74.670865 
Q 236.874269 72.70058 235.29129 72.70058 
Q 233.360966 72.70058 232.173731 76.315296 
Q 230.986496 79.922433 230.986496 87.379204 
Q 230.986496 93.494666 232.057 97.298832 
Q 233.130352 101.09542 235.257125 101.09542 
Q 237.213073 101.09542 238.238023 97.094225 
Q 238.77897 94.987536 239.046596 91.547115 
L 240.77193 91.547115 
Q 240.541316 97.041179 239.243045 100.761987 
Q 237.685689 105.240596 235.043593 105.240596 
Q 232.765925 105.240596 231.21711 101.565257 
Q 229.178596 96.715324 229.178596 86.575934 
Q 229.178596 78.884244 230.710329 73.958531 
Q 232.364485 68.600872 235.274207 68.600872 
z
M 234.918321 68.600872 
L 234.918321 68.600872 
z
" style="fill:#0000ff;"/>
   </g>
   <g id="patch_50">
    <path clip-path="url(#p6ef798832f)" d="M 235.157705 28.857587 
Q 236.946185 28.857587 238.250919 30.914267 
Q 240.141677 33.86766 240.56461 41.271708 
L 238.864586 41.271708 
Q 238.552224 37.133667 237.576438 35.241522 
Q 236.600652 33.349376 235.113476 33.349376 
Q 233.352639 33.349376 232.147419 37.289975 
Q 230.942198 41.222347 230.942198 49.013051 
Q 230.942198 55.742508 231.93457 59.971042 
Q 232.929706 64.199576 235.17429 64.199576 
Q 236.893664 64.199576 238.021485 61.237957 
Q 239.149305 58.268111 239.174184 51.629148 
L 235.201933 51.629148 
L 235.201933 47.392387 
L 240.77193 47.392387 
L 240.77193 67.597212 
L 239.666223 67.597212 
L 239.251583 62.73522 
Q 238.380839 65.589892 237.706358 66.700499 
Q 236.573009 68.600872 234.828757 68.600872 
Q 232.57588 68.600872 230.950491 64.257163 
Q 229.178596 58.802848 229.178596 49.29276 
Q 229.178596 39.807351 230.906263 34.204955 
Q 232.548237 28.857587 235.157705 28.857587 
z
M 234.872985 28.8 
L 234.872985 28.8 
z
" style="fill:#ffa600;"/>
   </g>
   <g id="patch_51">
    <path clip-path="url(#p6ef798832f)" d="M 252.975439 122.91344 
L 252.975439 125.144638 
L 248.160704 125.144638 
L 248.160704 141.64 
L 246.19684 141.64 
L 246.19684 125.144638 
L 241.382105 125.144638 
L 241.382105 122.91344 
L 252.975439 122.91344 
z
" style="fill:#ff0000;"/>
   </g>
   <g id="patch_52">
    <path clip-path="url(#p6ef798832f)" d="M 249.163815 114.377449 
L 247.191506 105.17437 
L 245.094688 114.377449 
L 249.163815 114.377449 
z
M 246.271849 102.07945 
L 248.261137 102.07945 
L 252.975439 122.91344 
L 251.045574 122.91344 
L 249.729758 116.673681 
L 244.591 116.673681 
L 243.184632 122.91344 
L 241.382105 122.91344 
L 246.271849 102.07945 
z
M 247.183016 102.07945 
L 247.183016 102.07945 
z
" style="fill:#008000;"/>
   </g>
   <g id="patch_53">
    <path clip-path="url(#p6ef798832f)" d="M 247.477716 69.654587 
Q 249.960375 69.654587 251.329823 72.739476 
Q 252.699271 75.817658 252.850167 79.734126 
L 251.124833 79.734126 
Q 250.831583 76.763244 249.954681 75.026317 
Q 249.077778 73.282684 247.494798 73.282684 
Q 245.564474 73.282684 244.37724 76.48158 
Q 243.190005 79.673769 243.190005 86.272748 
Q 243.190005 91.684716 244.260509 95.051268 
Q 245.33386 98.411115 247.460633 98.411115 
Q 249.416581 98.411115 250.441532 94.870199 
Q 250.982479 93.005853 251.250105 89.961202 
L 252.975439 89.961202 
Q 252.744825 94.823255 251.446554 98.116038 
Q 249.889198 102.07945 247.247102 102.07945 
Q 244.969433 102.07945 243.420619 98.826904 
Q 241.382105 94.534885 241.382105 85.561883 
Q 241.382105 78.755009 242.913837 74.395927 
Q 244.567994 69.654587 247.477716 69.654587 
z
M 247.12183 69.654587 
L 247.12183 69.654587 
z
" style="fill:#0000ff;"/>
   </g>
   <g id="patch_54">
    <path clip-path="url(#p6ef798832f)" d="M 247.361214 28.859112 
Q 249.149694 28.859112 250.454428 30.970242 
Q 252.345186 34.001824 252.768119 41.601892 
L 251.068095 41.601892 
Q 250.755733 37.354299 249.779947 35.412059 
Q 248.804161 33.469819 247.316985 33.469819 
Q 245.556148 33.469819 244.350927 37.514745 
Q 243.145707 41.551225 243.145707 49.548185 
Q 243.145707 56.455803 244.138079 60.796286 
Q 245.133215 65.136769 247.377799 65.136769 
Q 249.097173 65.136769 250.224994 62.096742 
Q 251.352814 59.04827 251.377693 52.233543 
L 247.405442 52.233543 
L 247.405442 47.884615 
L 252.975439 47.884615 
L 252.975439 68.624356 
L 251.869732 68.624356 
L 251.455092 63.633644 
Q 250.584348 66.563893 249.909867 67.703903 
Q 248.776518 69.654587 247.032266 69.654587 
Q 244.779389 69.654587 243.154 65.195881 
Q 241.382105 59.597164 241.382105 49.835299 
Q 241.382105 40.098768 243.109772 34.34805 
Q 244.751746 28.859112 247.361214 28.859112 
z
M 247.076494 28.8 
L 247.076494 28.8 
z
" style="fill:#ffa600;"/>
   </g>
   <g id="patch_55">
    <path clip-path="url(#p6ef798832f)" d="M 261.367324 135.694345 
L 259.395014 129.284037 
L 257.298197 135.694345 
L 261.367324 135.694345 
z
M 258.475358 127.128303 
L 260.464646 127.128303 
L 265.178947 141.64 
L 263.249083 141.64 
L 261.933267 137.293761 
L 256.794508 137.293761 
L 255.388141 141.64 
L 253.585614 141.64 
L 258.475358 127.128303 
z
M 259.386525 127.128303 
L 259.386525 127.128303 
z
" style="fill:#008000;"/>
   </g>
   <g id="patch_56">
    <path clip-path="url(#p6ef798832f)" d="M 259.681225 103.133165 
Q 262.163884 103.133165 263.533332 105.416053 
Q 264.90278 107.693978 265.053676 110.592253 
L 263.328342 110.592253 
Q 263.035092 108.393733 262.158189 107.108368 
Q 261.281287 105.81804 259.698307 105.81804 
Q 257.767983 105.81804 256.580748 108.185295 
Q 255.393514 110.547588 255.393514 115.430983 
Q 255.393514 119.435963 256.464018 121.927288 
Q 257.537369 124.413651 259.664142 124.413651 
Q 261.62009 124.413651 262.645041 121.793293 
Q 263.185987 120.413634 263.453613 118.160523 
L 265.178947 118.160523 
Q 264.948333 121.758553 263.650062 124.195288 
Q 262.092706 127.128303 259.450611 127.128303 
Q 257.172942 127.128303 255.624127 124.721345 
Q 253.585614 121.545153 253.585614 114.904927 
Q 253.585614 109.867685 255.117346 106.641865 
Q 256.771503 103.133165 259.681225 103.133165 
z
M 259.325339 103.133165 
L 259.325339 103.133165 
z
" style="fill:#0000ff;"/>
   </g>
   <g id="patch_57">
    <path clip-path="url(#p6ef798832f)" d="M 265.178947 78.084312 
L 265.178947 81.068786 
L 260.364213 81.068786 
L 260.364213 103.133165 
L 258.400349 103.133165 
L 258.400349 81.068786 
L 253.585614 81.068786 
L 253.585614 78.084312 
L 265.178947 78.084312 
z
" style="fill:#ff0000;"/>
   </g>
   <g id="patch_58">
    <path clip-path="url(#p6ef798832f)" d="M 259.564722 28.871308 
Q 261.353203 28.871308 262.657936 31.418038 
Q 264.548695 35.075142 264.971627 44.243369 
L 263.271604 44.243369 
Q 262.959241 39.119348 261.983455 36.776357 
Q 261.007669 34.433366 259.520494 34.433366 
Q 257.759656 34.433366 256.554436 39.3129 
Q 255.349216 44.182247 255.349216 53.829259 
Q 255.349216 62.162158 256.341588 67.398234 
Q 257.336724 72.634311 259.581308 72.634311 
Q 261.300682 72.634311 262.428502 68.96702 
Q 263.556323 65.289542 263.581201 57.068699 
L 259.608951 57.068699 
L 259.608951 51.822436 
L 265.178947 51.822436 
L 265.178947 76.841508 
L 264.073241 76.841508 
L 263.658601 70.821039 
Q 262.787857 74.3559 262.113376 75.731134 
Q 260.980027 78.084312 259.235775 78.084312 
Q 256.982897 78.084312 255.357509 72.705619 
Q 253.585614 65.951692 253.585614 54.175614 
Q 253.585614 42.430097 255.313281 35.492805 
Q 256.955255 28.871308 259.564722 28.871308 
z
M 259.280003 28.8 
L 259.280003 28.8 
z
" style="fill:#ffa600;"/>
   </g>
   <g id="patch_59">
    <path clip-path="url(#p6ef798832f)" d="M 273.570833 133.967454 
L 271.598523 125.695299 
L 269.501706 133.967454 
L 273.570833 133.967454 
z
M 270.678867 122.91344 
L 272.668155 122.91344 
L 277.382456 141.64 
L 275.452592 141.64 
L 274.136776 136.031414 
L 268.998017 136.031414 
L 267.59165 141.64 
L 265.789123 141.64 
L 270.678867 122.91344 
z
M 271.590034 122.91344 
L 271.590034 122.91344 
z
" style="fill:#008000;"/>
   </g>
   <g id="patch_60">
    <path clip-path="url(#p6ef798832f)" d="M 277.382456 104.186881 
L 277.382456 106.418078 
L 272.567721 106.418078 
L 272.567721 122.91344 
L 270.603857 122.91344 
L 270.603857 106.418078 
L 265.789123 106.418078 
L 265.789123 104.186881 
L 277.382456 104.186881 
z
" style="fill:#ff0000;"/>
   </g>
   <g id="patch_61">
    <path clip-path="url(#p6ef798832f)" d="M 271.768231 67.600169 
Q 273.556711 67.600169 274.861445 69.493499 
Q 276.752203 72.212321 277.175136 79.02831 
L 275.475112 79.02831 
Q 275.16275 75.21893 274.186964 73.477066 
Q 273.211178 71.735202 271.724003 71.735202 
Q 269.963165 71.735202 268.757945 75.362823 
Q 267.552725 78.98287 267.552725 86.154805 
Q 267.552725 92.349781 268.545096 96.242467 
Q 269.540232 100.135154 271.784817 100.135154 
Q 273.50419 100.135154 274.632011 97.408759 
Q 275.759832 94.67479 275.78471 88.56312 
L 271.812459 88.56312 
L 271.812459 84.66286 
L 277.382456 84.66286 
L 277.382456 103.262936 
L 276.27675 103.262936 
L 275.86211 98.787103 
Q 274.991366 101.415045 274.316885 102.437444 
Q 273.183535 104.186881 271.439283 104.186881 
Q 269.186406 104.186881 267.561018 100.188167 
Q 265.789123 95.167056 265.789123 86.412297 
Q 265.789123 77.680259 267.516789 72.522828 
Q 269.158764 67.600169 271.768231 67.600169 
z
M 271.483512 67.547156 
L 271.483512 67.547156 
z
" style="fill:#ffa600;"/>
   </g>
   <g id="patch_62">
    <path clip-path="url(#p6ef798832f)" d="M 271.884733 28.8 
Q 274.367392 28.8 275.736841 32.486389 
Q 277.106289 36.164764 277.257184 40.844876 
L 275.53185 40.844876 
Q 275.238601 37.294723 274.361698 35.219126 
Q 273.484796 33.135514 271.901816 33.135514 
Q 269.971492 33.135514 268.784257 36.95814 
Q 267.597022 40.772751 267.597022 48.658418 
Q 267.597022 55.125627 268.667527 59.1486 
Q 269.740878 63.163558 271.867651 63.163558 
Q 273.823599 63.163558 274.84855 58.932225 
Q 275.389496 56.704363 275.657122 53.066058 
L 277.382456 53.066058 
Q 277.151842 58.876127 275.853571 62.810947 
Q 274.296215 67.547156 271.65412 67.547156 
Q 269.376451 67.547156 267.827636 63.66042 
Q 265.789123 58.53153 265.789123 47.808946 
Q 265.789123 39.674848 267.320855 34.46582 
Q 268.975012 28.8 271.884733 28.8 
z
M 271.528848 28.8 
L 271.528848 28.8 
z
" style="fill:#0000ff;"/>
   </g>
   <g id="patch_63">
    <path clip-path="url(#p6ef798832f)" d="M 285.774342 135.262622 
L 283.802032 128.386853 
L 281.705215 135.262622 
L 285.774342 135.262622 
z
M 282.882375 126.074587 
L 284.871663 126.074587 
L 289.585965 141.64 
L 287.656101 141.64 
L 286.340284 136.978174 
L 281.201526 136.978174 
L 279.795159 141.64 
L 277.992632 141.64 
L 282.882375 126.074587 
z
M 283.793543 126.074587 
L 283.793543 126.074587 
z
" style="fill:#008000;"/>
   </g>
   <g id="patch_64">
    <path clip-path="url(#p6ef798832f)" d="M 284.088242 98.918303 
Q 286.570901 98.918303 287.940349 101.501941 
Q 289.309798 104.079963 289.460693 107.36006 
L 287.735359 107.36006 
Q 287.442109 104.871904 286.565207 103.417203 
Q 285.688304 101.956886 284.105325 101.956886 
Q 282.175001 101.956886 280.987766 104.636006 
Q 279.800531 107.30951 279.800531 112.83625 
Q 279.800531 117.36885 280.871035 120.188385 
Q 281.944387 123.002304 284.07116 123.002304 
Q 286.027108 123.002304 287.052059 120.036737 
Q 287.593005 118.475321 287.860631 115.925382 
L 289.585965 115.925382 
Q 289.355351 119.997421 288.05708 122.755174 
Q 286.499724 126.074587 283.857628 126.074587 
Q 281.57996 126.074587 280.031145 123.350534 
Q 277.992632 119.755907 277.992632 112.240889 
Q 277.992632 106.540036 279.524364 102.889242 
Q 281.178521 98.918303 284.088242 98.918303 
z
M 283.732357 98.918303 
L 283.732357 98.918303 
z
" style="fill:#0000ff;"/>
   </g>
   <g id="patch_65">
    <path clip-path="url(#p6ef798832f)" d="M 289.585965 64.386009 
L 289.585965 68.500399 
L 284.77123 68.500399 
L 284.77123 98.918303 
L 282.807366 98.918303 
L 282.807366 68.500399 
L 277.992632 68.500399 
L 277.992632 64.386009 
L 289.585965 64.386009 
z
" style="fill:#ff0000;"/>
   </g>
   <g id="patch_66">
    <path clip-path="url(#p6ef798832f)" d="M 283.97174 28.851489 
Q 285.76022 28.851489 287.064954 30.690369 
Q 288.955712 33.331001 289.378645 39.950969 
L 287.678621 39.950969 
Q 287.366259 36.251142 286.390473 34.559373 
Q 285.414687 32.867603 283.927512 32.867603 
Q 282.166674 32.867603 280.961454 36.390897 
Q 279.756234 39.906836 279.756234 46.872514 
Q 279.756234 52.88933 280.748605 56.670068 
Q 281.743741 60.450806 283.988325 60.450806 
Q 285.707699 60.450806 286.83552 57.802818 
Q 287.963341 55.147475 287.988219 49.21157 
L 284.015968 49.21157 
L 284.015968 45.423477 
L 289.585965 45.423477 
L 289.585965 63.488636 
L 288.480258 63.488636 
L 288.065618 59.141523 
Q 287.194874 61.693889 286.520393 62.686884 
Q 285.387044 64.386009 283.642792 64.386009 
Q 281.389915 64.386009 279.764526 60.502294 
Q 277.992632 55.625584 277.992632 47.122602 
Q 277.992632 38.641687 279.720298 33.632577 
Q 281.362272 28.851489 283.97174 28.851489 
z
M 283.68702 28.8 
L 283.68702 28.8 
z
" style="fill:#ffa600;"/>
   </g>
   <g id="patch_67">
    <path clip-path="url(#p6ef798832f)" d="M 297.977851 137.421236 
L 296.005541 132.872776 
L 293.908724 137.421236 
L 297.977851 137.421236 
z
M 295.085884 131.343165 
L 297.075172 131.343165 
L 301.789474 141.64 
L 299.85961 141.64 
L 298.543793 138.556108 
L 293.405035 138.556108 
L 291.998667 141.64 
L 290.19614 141.64 
L 295.085884 131.343165 
z
M 295.997052 131.343165 
L 295.997052 131.343165 
z
" style="fill:#008000;"/>
   </g>
   <g id="patch_68">
    <path clip-path="url(#p6ef798832f)" d="M 301.789474 113.670321 
L 301.789474 115.775973 
L 296.974739 115.775973 
L 296.974739 131.343165 
L 295.010875 131.343165 
L 295.010875 115.775973 
L 290.19614 115.775973 
L 290.19614 113.670321 
L 301.789474 113.670321 
z
" style="fill:#ff0000;"/>
   </g>
   <g id="patch_69">
    <path clip-path="url(#p6ef798832f)" d="M 296.291751 73.86945 
Q 298.77441 73.86945 300.143858 77.656089 
Q 301.513306 81.434496 301.664202 86.241882 
L 299.938868 86.241882 
Q 299.645618 82.595184 298.768716 80.463141 
Q 297.891813 78.322867 296.308834 78.322867 
Q 294.378509 78.322867 293.191275 82.249447 
Q 292.00404 86.167795 292.00404 94.267911 
Q 292.00404 100.910993 293.074544 105.043369 
Q 294.147895 109.167513 296.274669 109.167513 
Q 298.230616 109.167513 299.255567 104.82111 
Q 299.796514 102.532663 300.06414 98.795414 
L 301.789474 98.795414 
Q 301.55886 104.763487 300.260589 108.805313 
Q 298.703233 113.670321 296.061137 113.670321 
Q 293.783468 113.670321 292.234654 109.677886 
Q 290.19614 104.409519 290.19614 93.395337 
Q 290.19614 85.040035 291.727873 79.689349 
Q 293.382029 73.86945 296.291751 73.86945 
z
M 295.935865 73.86945 
L 295.935865 73.86945 
z
" style="fill:#0000ff;"/>
   </g>
   <g id="patch_70">
    <path clip-path="url(#p6ef798832f)" d="M 296.175249 28.86521 
Q 297.963729 28.86521 299.268463 31.19414 
Q 301.159221 34.538483 301.582154 42.92263 
L 299.88213 42.92263 
Q 299.569768 38.236824 298.593982 36.094208 
Q 297.618196 33.951593 296.13102 33.951593 
Q 294.370183 33.951593 293.164962 38.413822 
Q 291.959742 42.866736 291.959742 51.688722 
Q 291.959742 59.30898 292.952114 64.09726 
Q 293.94725 68.88554 296.191834 68.88554 
Q 297.911208 68.88554 299.039029 65.531881 
Q 300.166849 62.168906 300.191728 54.651121 
L 296.219477 54.651121 
L 296.219477 49.853525 
L 301.789474 49.853525 
L 301.789474 72.732932 
L 300.683767 72.732932 
L 300.269127 67.227342 
Q 299.398383 70.459896 298.723902 71.717518 
Q 297.590553 73.86945 295.846301 73.86945 
Q 293.593424 73.86945 291.968035 68.95075 
Q 290.19614 62.774428 290.19614 52.005457 
Q 290.19614 41.264432 291.923807 34.920428 
Q 293.565781 28.86521 296.175249 28.86521 
z
M 295.890529 28.8 
L 295.890529 28.8 
z
" style="fill:#ffa600;"/>
   </g>
   <g id="patch_71">
    <path clip-path="url(#p6ef798832f)" d="M 310.181359 135.694345 
L 308.209049 129.284037 
L 306.112232 135.694345 
L 310.181359 135.694345 
z
M 307.289393 127.128303 
L 309.278681 127.128303 
L 313.992982 141.64 
L 312.063118 141.64 
L 310.747302 137.293761 
L 305.608543 137.293761 
L 304.202176 141.64 
L 302.399649 141.64 
L 307.289393 127.128303 
z
M 308.20056 127.128303 
L 308.20056 127.128303 
z
" style="fill:#008000;"/>
   </g>
   <g id="patch_72">
    <path clip-path="url(#p6ef798832f)" d="M 313.992982 105.240596 
L 313.992982 107.848432 
L 309.178248 107.848432 
L 309.178248 127.128303 
L 307.214384 127.128303 
L 307.214384 107.848432 
L 302.399649 107.848432 
L 302.399649 105.240596 
L 313.992982 105.240596 
z
" style="fill:#ff0000;"/>
   </g>
   <g id="patch_73">
    <path clip-path="url(#p6ef798832f)" d="M 308.49526 68.600872 
Q 310.977919 68.600872 312.347367 72.086761 
Q 313.716815 75.565072 313.867711 79.990635 
L 312.142377 79.990635 
Q 311.849127 76.633572 310.972224 74.670865 
Q 310.095322 72.70058 308.512342 72.70058 
Q 306.582018 72.70058 305.394783 76.315296 
Q 304.207549 79.922433 304.207549 87.379204 
Q 304.207549 93.494666 305.278053 97.298832 
Q 306.351404 101.09542 308.478177 101.09542 
Q 310.434125 101.09542 311.459076 97.094225 
Q 312.000022 94.987536 312.267648 91.547115 
L 313.992982 91.547115 
Q 313.762369 97.041179 312.464097 100.761987 
Q 310.906741 105.240596 308.264646 105.240596 
Q 305.986977 105.240596 304.438163 101.565257 
Q 302.399649 96.715324 302.399649 86.575934 
Q 302.399649 78.884244 303.931381 73.958531 
Q 305.585538 68.600872 308.49526 68.600872 
z
M 308.139374 68.600872 
L 308.139374 68.600872 
z
" style="fill:#0000ff;"/>
   </g>
   <g id="patch_74">
    <path clip-path="url(#p6ef798832f)" d="M 308.378757 28.857587 
Q 310.167238 28.857587 311.471971 30.914267 
Q 313.36273 33.86766 313.785662 41.271708 
L 312.085639 41.271708 
Q 311.773277 37.133667 310.79749 35.241522 
Q 309.821704 33.349376 308.334529 33.349376 
Q 306.573691 33.349376 305.368471 37.289975 
Q 304.163251 41.222347 304.163251 49.013051 
Q 304.163251 55.742508 305.155623 59.971042 
Q 306.150759 64.199576 308.395343 64.199576 
Q 310.114717 64.199576 311.242537 61.237957 
Q 312.370358 58.268111 312.395236 51.629148 
L 308.422986 51.629148 
L 308.422986 47.392387 
L 313.992982 47.392387 
L 313.992982 67.597212 
L 312.887276 67.597212 
L 312.472636 62.73522 
Q 311.601892 65.589892 310.927411 66.700499 
Q 309.794062 68.600872 308.04981 68.600872 
Q 305.796933 68.600872 304.171544 64.257163 
Q 302.399649 58.802848 302.399649 49.29276 
Q 302.399649 39.807351 304.127316 34.204955 
Q 305.76929 28.857587 308.378757 28.857587 
z
M 308.094038 28.8 
L 308.094038 28.8 
z
" style="fill:#ffa600;"/>
   </g>
   <g id="patch_75">
    <path clip-path="url(#p6ef798832f)" d="M 322.384868 136.126068 
L 320.412558 130.181222 
L 318.315741 136.126068 
L 322.384868 136.126068 
z
M 319.492902 128.182018 
L 321.48219 128.182018 
L 326.196491 141.64 
L 324.266627 141.64 
L 322.950811 137.609348 
L 317.812052 137.609348 
L 316.405685 141.64 
L 314.603158 141.64 
L 319.492902 128.182018 
z
M 320.404069 128.182018 
L 320.404069 128.182018 
z
" style="fill:#008000;"/>
   </g>
   <g id="patch_76">
    <path clip-path="url(#p6ef798832f)" d="M 326.196491 104.186881 
L 326.196491 107.045809 
L 321.381757 107.045809 
L 321.381757 128.182018 
L 319.417893 128.182018 
L 319.417893 107.045809 
L 314.603158 107.045809 
L 314.603158 104.186881 
L 326.196491 104.186881 
z
" style="fill:#ff0000;"/>
   </g>
   <g id="patch_77">
    <path clip-path="url(#p6ef798832f)" d="M 320.698769 72.815734 
Q 323.181427 72.815734 324.550876 75.800373 
Q 325.920324 78.778523 326.071219 82.567716 
L 324.345885 82.567716 
Q 324.052636 79.693379 323.175733 78.012898 
Q 322.298831 76.325928 320.715851 76.325928 
Q 318.785527 76.325928 317.598292 79.420869 
Q 316.411057 82.509321 316.411057 88.893852 
Q 316.411057 94.129946 317.481562 97.387095 
Q 318.554913 100.637756 320.681686 100.637756 
Q 322.637634 100.637756 323.662585 97.21191 
Q 324.203531 95.40815 324.471157 92.462442 
L 326.196491 92.462442 
Q 325.965877 97.166492 324.667606 100.352269 
Q 323.11025 104.186881 320.468155 104.186881 
Q 318.190486 104.186881 316.641671 101.040034 
Q 314.603158 96.887493 314.603158 88.206088 
Q 314.603158 81.620418 316.13489 77.402994 
Q 317.789047 72.815734 320.698769 72.815734 
z
M 320.342883 72.815734 
L 320.342883 72.815734 
z
" style="fill:#0000ff;"/>
   </g>
   <g id="patch_78">
    <path clip-path="url(#p6ef798832f)" d="M 320.582266 28.863685 
Q 322.370747 28.863685 323.67548 31.138165 
Q 325.566238 34.404318 325.989171 42.592446 
L 324.289147 42.592446 
Q 323.976785 38.016192 323.000999 35.923671 
Q 322.025213 33.831149 320.538038 33.831149 
Q 318.7772 33.831149 317.57198 38.189053 
Q 316.36676 42.537858 316.36676 51.153588 
Q 316.36676 58.595686 317.359132 63.272017 
Q 318.354267 67.948347 320.598852 67.948347 
Q 322.318225 67.948347 323.446046 64.673096 
Q 324.573867 61.388747 324.598745 54.046726 
L 320.626494 54.046726 
L 320.626494 49.361298 
L 326.196491 49.361298 
L 326.196491 71.705788 
L 325.090785 71.705788 
L 324.676145 66.328917 
Q 323.805401 69.485895 323.13092 70.714115 
Q 321.997571 72.815734 320.253318 72.815734 
Q 318.000441 72.815734 316.375053 68.012033 
Q 314.603158 61.980112 314.603158 51.462917 
Q 314.603158 40.973016 316.330824 34.777333 
Q 317.972799 28.863685 320.582266 28.863685 
z
M 320.297547 28.8 
L 320.297547 28.8 
z
" style="fill:#ffa600;"/>
   </g>
   <g id="patch_79">
    <path clip-path="url(#p6ef798832f)" d="M 334.588377 137.421236 
L 332.616067 132.872776 
L 330.51925 137.421236 
L 334.588377 137.421236 
z
M 331.69641 131.343165 
L 333.685698 131.343165 
L 338.4 141.64 
L 336.470136 141.64 
L 335.154319 138.556108 
L 330.015561 138.556108 
L 328.609194 141.64 
L 326.806667 141.64 
L 331.69641 131.343165 
z
M 332.607578 131.343165 
L 332.607578 131.343165 
z
" style="fill:#008000;"/>
   </g>
   <g id="patch_80">
    <path clip-path="url(#p6ef798832f)" d="M 338.4 102.07945 
L 338.4 105.566109 
L 333.585265 105.566109 
L 333.585265 131.343165 
L 331.621401 131.343165 
L 331.621401 105.566109 
L 326.806667 105.566109 
L 326.806667 102.07945 
L 338.4 102.07945 
z
" style="fill:#ff0000;"/>
   </g>
   <g id="patch_81">
    <path clip-path="url(#p6ef798832f)" d="M 332.902277 69.654587 
Q 335.384936 69.654587 336.754384 72.739476 
Q 338.123833 75.817658 338.274728 79.734126 
L 336.549394 79.734126 
Q 336.256144 76.763244 335.379242 75.026317 
Q 334.50234 73.282684 332.91936 73.282684 
Q 330.989036 73.282684 329.801801 76.48158 
Q 328.614566 79.673769 328.614566 86.272748 
Q 328.614566 91.684716 329.68507 95.051268 
Q 330.758422 98.411115 332.885195 98.411115 
Q 334.841143 98.411115 335.866094 94.870199 
Q 336.40704 93.005853 336.674666 89.961202 
L 338.4 89.961202 
Q 338.169386 94.823255 336.871115 98.116038 
Q 335.313759 102.07945 332.671663 102.07945 
Q 330.393995 102.07945 328.84518 98.826904 
Q 326.806667 94.534885 326.806667 85.561883 
Q 326.806667 78.755009 328.338399 74.395927 
Q 329.992556 69.654587 332.902277 69.654587 
z
M 332.546392 69.654587 
L 332.546392 69.654587 
z
" style="fill:#0000ff;"/>
   </g>
   <g id="patch_82">
    <path clip-path="url(#p6ef798832f)" d="M 332.785775 28.859112 
Q 334.574255 28.859112 335.878989 30.970242 
Q 337.769747 34.001824 338.19268 41.601892 
L 336.492656 41.601892 
Q 336.180294 37.354299 335.204508 35.412059 
Q 334.228722 33.469819 332.741547 33.469819 
Q 330.980709 33.469819 329.775489 37.514745 
Q 328.570269 41.551225 328.570269 49.548185 
Q 328.570269 56.455803 329.56264 60.796286 
Q 330.557776 65.136769 332.802361 65.136769 
Q 334.521734 65.136769 335.649555 62.096742 
Q 336.777376 59.04827 336.802254 52.233543 
L 332.830003 52.233543 
L 332.830003 47.884615 
L 338.4 47.884615 
L 338.4 68.624356 
L 337.294293 68.624356 
L 336.879653 63.633644 
Q 336.00891 66.563893 335.334429 67.703903 
Q 334.201079 69.654587 332.456827 69.654587 
Q 330.20395 69.654587 328.578561 65.195881 
Q 326.806667 59.597164 326.806667 49.835299 
Q 326.806667 40.098768 328.534333 34.34805 
Q 330.176307 28.859112 332.785775 28.859112 
z
M 332.501055 28.8 
L 332.501055 28.8 
z
" style="fill:#ffa600;"/>
   </g>
   <g id="matplotlib.axis_1">
    <g id="xtick_1">
     <g id="text_1">
      <!-- 0 -->
      <g style="fill:#262626;" transform="translate(95.175729 162.986875)scale(0.2 -0.2)">
       <defs>
        <path d="M 1731 4475 
Q 2600 4475 2988 3759 
Q 3288 3206 3288 2244 
Q 3288 1331 3016 734 
Q 2622 -122 1728 -122 
Q 922 -122 528 578 
Q 200 1163 200 2147 
Q 200 2909 397 3456 
Q 766 4475 1731 4475 
z
M 1725 391 
Q 2163 391 2422 778 
Q 2681 1166 2681 2222 
Q 2681 2984 2493 3476 
Q 2306 3969 1766 3969 
Q 1269 3969 1039 3501 
Q 809 3034 809 2125 
Q 809 1441 956 1025 
Q 1181 391 1725 391 
z
" id="Helvetica-30" transform="scale(0.015625)"/>
       </defs>
       <use xlink:href="#Helvetica-30"/>
      </g>
     </g>
    </g>
    <g id="xtick_2">
     <g id="text_2">
      <!-- 10 -->
      <g style="fill:#262626;" transform="translate(211.649879 162.986875)scale(0.2 -0.2)">
       <defs>
        <path d="M 613 3169 
L 613 3600 
Q 1222 3659 1462 3798 
Q 1703 3938 1822 4456 
L 2266 4456 
L 2266 0 
L 1666 0 
L 1666 3169 
L 613 3169 
z
" id="Helvetica-31" transform="scale(0.015625)"/>
       </defs>
       <use xlink:href="#Helvetica-31"/>
       <use x="55.615234" xlink:href="#Helvetica-30"/>
      </g>
     </g>
    </g>
    <g id="text_3">
     <!-- Position -->
     <g style="fill:#262626;" transform="translate(172.20125 189.089219)scale(0.25 -0.25)">
      <defs>
       <path d="M 547 4591 
L 2613 4591 
Q 3225 4591 3600 4245 
Q 3975 3900 3975 3275 
Q 3975 2738 3640 2339 
Q 3306 1941 2613 1941 
L 1169 1941 
L 1169 0 
L 547 0 
L 547 4591 
z
M 3347 3272 
Q 3347 3778 2972 3959 
Q 2766 4056 2406 4056 
L 1169 4056 
L 1169 2466 
L 2406 2466 
Q 2825 2466 3086 2644 
Q 3347 2822 3347 3272 
z
" id="Helvetica-50" transform="scale(0.015625)"/>
       <path d="M 1741 363 
Q 2300 363 2508 786 
Q 2716 1209 2716 1728 
Q 2716 2197 2566 2491 
Q 2328 2953 1747 2953 
Q 1231 2953 997 2559 
Q 763 2166 763 1609 
Q 763 1075 997 719 
Q 1231 363 1741 363 
z
M 1763 3444 
Q 2409 3444 2856 3012 
Q 3303 2581 3303 1744 
Q 3303 934 2909 406 
Q 2516 -122 1688 -122 
Q 997 -122 590 345 
Q 184 813 184 1600 
Q 184 2444 612 2944 
Q 1041 3444 1763 3444 
z
M 1744 3428 
L 1744 3428 
z
" id="Helvetica-6f" transform="scale(0.015625)"/>
       <path d="M 747 1050 
Q 772 769 888 619 
Q 1100 347 1625 347 
Q 1938 347 2175 483 
Q 2413 619 2413 903 
Q 2413 1119 2222 1231 
Q 2100 1300 1741 1391 
L 1294 1503 
Q 866 1609 663 1741 
Q 300 1969 300 2372 
Q 300 2847 642 3140 
Q 984 3434 1563 3434 
Q 2319 3434 2653 2991 
Q 2863 2709 2856 2384 
L 2325 2384 
Q 2309 2575 2191 2731 
Q 1997 2953 1519 2953 
Q 1200 2953 1036 2831 
Q 872 2709 872 2509 
Q 872 2291 1088 2159 
Q 1213 2081 1456 2022 
L 1828 1931 
Q 2434 1784 2641 1647 
Q 2969 1431 2969 969 
Q 2969 522 2630 197 
Q 2291 -128 1597 -128 
Q 850 -128 539 211 
Q 228 550 206 1050 
L 747 1050 
z
M 1578 3428 
L 1578 3428 
z
" id="Helvetica-73" transform="scale(0.015625)"/>
       <path d="M 413 3331 
L 984 3331 
L 984 0 
L 413 0 
L 413 3331 
z
M 413 4591 
L 984 4591 
L 984 3953 
L 413 3953 
L 413 4591 
z
" id="Helvetica-69" transform="scale(0.015625)"/>
       <path d="M 525 4281 
L 1094 4281 
L 1094 3347 
L 1628 3347 
L 1628 2888 
L 1094 2888 
L 1094 703 
Q 1094 528 1213 469 
Q 1278 434 1431 434 
Q 1472 434 1519 436 
Q 1566 438 1628 444 
L 1628 0 
Q 1531 -28 1426 -40 
Q 1322 -53 1200 -53 
Q 806 -53 665 148 
Q 525 350 525 672 
L 525 2888 
L 72 2888 
L 72 3347 
L 525 3347 
L 525 4281 
z
" id="Helvetica-74" transform="scale(0.015625)"/>
       <path d="M 413 3347 
L 947 3347 
L 947 2872 
Q 1184 3166 1450 3294 
Q 1716 3422 2041 3422 
Q 2753 3422 3003 2925 
Q 3141 2653 3141 2147 
L 3141 0 
L 2569 0 
L 2569 2109 
Q 2569 2416 2478 2603 
Q 2328 2916 1934 2916 
Q 1734 2916 1606 2875 
Q 1375 2806 1200 2600 
Q 1059 2434 1017 2257 
Q 975 2081 975 1753 
L 975 0 
L 413 0 
L 413 3347 
z
M 1734 3428 
L 1734 3428 
z
" id="Helvetica-6e" transform="scale(0.015625)"/>
      </defs>
      <use xlink:href="#Helvetica-50"/>
      <use x="66.699219" xlink:href="#Helvetica-6f"/>
      <use x="122.314453" xlink:href="#Helvetica-73"/>
      <use x="172.314453" xlink:href="#Helvetica-69"/>
      <use x="194.53125" xlink:href="#Helvetica-74"/>
      <use x="222.314453" xlink:href="#Helvetica-69"/>
      <use x="244.53125" xlink:href="#Helvetica-6f"/>
      <use x="300.146484" xlink:href="#Helvetica-6e"/>
     </g>
    </g>
   </g>
   <g id="matplotlib.axis_2">
    <g id="ytick_1">
     <g id="text_4">
      <!-- 0 -->
      <g style="fill:#262626;" transform="translate(76.818125 148.813438)scale(0.2 -0.2)">
       <use xlink:href="#Helvetica-30"/>
      </g>
     </g>
    </g>
    <g id="ytick_2">
     <g id="text_5">
      <!-- 0.25 -->
      <g style="fill:#262626;" transform="translate(49.018125 120.603437)scale(0.2 -0.2)">
       <defs>
        <path d="M 547 681 
L 1200 681 
L 1200 0 
L 547 0 
L 547 681 
z
" id="Helvetica-2e" transform="scale(0.015625)"/>
        <path d="M 200 0 
Q 231 578 439 1006 
Q 647 1434 1250 1784 
L 1850 2131 
Q 2253 2366 2416 2531 
Q 2672 2791 2672 3125 
Q 2672 3516 2437 3745 
Q 2203 3975 1813 3975 
Q 1234 3975 1013 3538 
Q 894 3303 881 2888 
L 309 2888 
Q 319 3472 525 3841 
Q 891 4491 1816 4491 
Q 2584 4491 2939 4075 
Q 3294 3659 3294 3150 
Q 3294 2613 2916 2231 
Q 2697 2009 2131 1694 
L 1703 1456 
Q 1397 1288 1222 1134 
Q 909 863 828 531 
L 3272 531 
L 3272 0 
L 200 0 
z
" id="Helvetica-32" transform="scale(0.015625)"/>
        <path d="M 791 1141 
Q 847 659 1238 475 
Q 1438 381 1700 381 
Q 2200 381 2440 700 
Q 2681 1019 2681 1406 
Q 2681 1875 2395 2131 
Q 2109 2388 1709 2388 
Q 1419 2388 1211 2275 
Q 1003 2163 856 1963 
L 369 1991 
L 709 4400 
L 3034 4400 
L 3034 3856 
L 1131 3856 
L 941 2613 
Q 1097 2731 1238 2791 
Q 1488 2894 1816 2894 
Q 2431 2894 2859 2497 
Q 3288 2100 3288 1491 
Q 3288 856 2895 371 
Q 2503 -113 1644 -113 
Q 1097 -113 676 195 
Q 256 503 206 1141 
L 791 1141 
z
" id="Helvetica-35" transform="scale(0.015625)"/>
       </defs>
       <use xlink:href="#Helvetica-30"/>
       <use x="55.615234" xlink:href="#Helvetica-2e"/>
       <use x="83.398438" xlink:href="#Helvetica-32"/>
       <use x="139.013672" xlink:href="#Helvetica-35"/>
      </g>
     </g>
    </g>
    <g id="ytick_3">
     <g id="text_6">
      <!-- 0.50 -->
      <g style="fill:#262626;" transform="translate(49.018125 92.393438)scale(0.2 -0.2)">
       <use xlink:href="#Helvetica-30"/>
       <use x="55.615234" xlink:href="#Helvetica-2e"/>
       <use x="83.398438" xlink:href="#Helvetica-35"/>
       <use x="139.013672" xlink:href="#Helvetica-30"/>
      </g>
     </g>
    </g>
    <g id="ytick_4">
     <g id="text_7">
      <!-- 0.75 -->
      <g style="fill:#262626;" transform="translate(49.018125 64.183437)scale(0.2 -0.2)">
       <defs>
        <path d="M 3347 4400 
L 3347 3909 
Q 3131 3700 2773 3181 
Q 2416 2663 2141 2063 
Q 1869 1478 1728 997 
Q 1638 688 1494 0 
L 872 0 
Q 1084 1281 1809 2550 
Q 2238 3294 2709 3834 
L 234 3834 
L 234 4400 
L 3347 4400 
z
" id="Helvetica-37" transform="scale(0.015625)"/>
       </defs>
       <use xlink:href="#Helvetica-30"/>
       <use x="55.615234" xlink:href="#Helvetica-2e"/>
       <use x="83.398438" xlink:href="#Helvetica-37"/>
       <use x="139.013672" xlink:href="#Helvetica-35"/>
      </g>
     </g>
    </g>
    <g id="ytick_5">
     <g id="text_8">
      <!-- 1.0 -->
      <g style="fill:#262626;" transform="translate(60.14 35.973437)scale(0.2 -0.2)">
       <use xlink:href="#Helvetica-31"/>
       <use x="55.615234" xlink:href="#Helvetica-2e"/>
       <use x="83.398438" xlink:href="#Helvetica-30"/>
      </g>
     </g>
    </g>
    <g id="text_9">
     <!-- Probability -->
     <g style="fill:#262626;" transform="translate(39.65875 143.579375)rotate(-90)scale(0.25 -0.25)">
      <defs>
       <path d="M 428 3347 
L 963 3347 
L 963 2769 
Q 1028 2938 1284 3180 
Q 1541 3422 1875 3422 
Q 1891 3422 1928 3419 
Q 1966 3416 2056 3406 
L 2056 2813 
Q 2006 2822 1964 2825 
Q 1922 2828 1872 2828 
Q 1447 2828 1219 2554 
Q 991 2281 991 1925 
L 991 0 
L 428 0 
L 428 3347 
z
" id="Helvetica-72" transform="scale(0.015625)"/>
       <path d="M 369 4606 
L 916 4606 
L 916 2941 
Q 1100 3181 1356 3307 
Q 1613 3434 1913 3434 
Q 2538 3434 2927 3004 
Q 3316 2575 3316 1738 
Q 3316 944 2931 419 
Q 2547 -106 1866 -106 
Q 1484 -106 1222 78 
Q 1066 188 888 428 
L 888 0 
L 369 0 
L 369 4606 
z
M 1831 391 
Q 2288 391 2514 753 
Q 2741 1116 2741 1709 
Q 2741 2238 2514 2584 
Q 2288 2931 1847 2931 
Q 1463 2931 1173 2647 
Q 884 2363 884 1709 
Q 884 1238 1003 944 
Q 1225 391 1831 391 
z
" id="Helvetica-62" transform="scale(0.015625)"/>
       <path d="M 844 891 
Q 844 647 1022 506 
Q 1200 366 1444 366 
Q 1741 366 2019 503 
Q 2488 731 2488 1250 
L 2488 1703 
Q 2384 1638 2221 1594 
Q 2059 1550 1903 1531 
L 1563 1488 
Q 1256 1447 1103 1359 
Q 844 1213 844 891 
z
M 2206 2028 
Q 2400 2053 2466 2191 
Q 2503 2266 2503 2406 
Q 2503 2694 2298 2823 
Q 2094 2953 1713 2953 
Q 1272 2953 1088 2716 
Q 984 2584 953 2325 
L 428 2325 
Q 444 2944 830 3186 
Q 1216 3428 1725 3428 
Q 2316 3428 2684 3203 
Q 3050 2978 3050 2503 
L 3050 575 
Q 3050 488 3086 434 
Q 3122 381 3238 381 
Q 3275 381 3322 386 
Q 3369 391 3422 400 
L 3422 -16 
Q 3291 -53 3222 -62 
Q 3153 -72 3034 -72 
Q 2744 -72 2613 134 
Q 2544 244 2516 444 
Q 2344 219 2022 53 
Q 1700 -113 1313 -113 
Q 847 -113 551 170 
Q 256 453 256 878 
Q 256 1344 547 1600 
Q 838 1856 1309 1916 
L 2206 2028 
z
M 1741 3428 
L 1741 3428 
z
" id="Helvetica-61" transform="scale(0.015625)"/>
       <path d="M 428 4591 
L 991 4591 
L 991 0 
L 428 0 
L 428 4591 
z
" id="Helvetica-6c" transform="scale(0.015625)"/>
       <path d="M 2503 3347 
L 3125 3347 
Q 3006 3025 2597 1878 
Q 2291 1016 2084 472 
Q 1597 -809 1397 -1090 
Q 1197 -1372 709 -1372 
Q 591 -1372 527 -1362 
Q 463 -1353 369 -1328 
L 369 -816 
Q 516 -856 581 -865 
Q 647 -875 697 -875 
Q 853 -875 926 -823 
Q 1000 -772 1050 -697 
Q 1066 -672 1162 -440 
Q 1259 -209 1303 -97 
L 66 3347 
L 703 3347 
L 1600 622 
L 2503 3347 
z
M 1597 3428 
L 1597 3428 
z
" id="Helvetica-79" transform="scale(0.015625)"/>
      </defs>
      <use xlink:href="#Helvetica-50"/>
      <use x="66.699219" xlink:href="#Helvetica-72"/>
      <use x="100" xlink:href="#Helvetica-6f"/>
      <use x="155.615234" xlink:href="#Helvetica-62"/>
      <use x="211.230469" xlink:href="#Helvetica-61"/>
      <use x="266.845703" xlink:href="#Helvetica-62"/>
      <use x="322.460938" xlink:href="#Helvetica-69"/>
      <use x="344.677734" xlink:href="#Helvetica-6c"/>
      <use x="366.894531" xlink:href="#Helvetica-69"/>
      <use x="389.111328" xlink:href="#Helvetica-74"/>
      <use x="416.894531" xlink:href="#Helvetica-79"/>
     </g>
    </g>
   </g>
   <g id="patch_83">
    <path d="M 94.94 141.64 
L 94.94 28.8 
" style="fill:none;stroke:#000000;stroke-linecap:square;stroke-linejoin:miter;"/>
   </g>
  </g>
 </g>
 <defs>
  <clipPath id="p6ef798832f">
   <rect height="112.84" width="243.46" x="94.94" y="28.8"/>
  </clipPath>
 </defs>
</svg>
