<?xml version="1.0" encoding="utf-8" standalone="no"?>
<!DOCTYPE svg PUBLIC "-//W3C//DTD SVG 1.1//EN"
  "http://www.w3.org/Graphics/SVG/1.1/DTD/svg11.dtd">
<svg height="216pt" version="1.1" viewBox="0 0 306 216" width="306pt" xmlns="http://www.w3.org/2000/svg" xmlns:xlink="http://www.w3.org/1999/xlink">
 <metadata>
  <rdf:RDF xmlns:cc="http://creativecommons.org/ns#" xmlns:dc="http://purl.org/dc/elements/1.1/" xmlns:rdf="http://www.w3.org/1999/02/22-rdf-syntax-ns#">
   <cc:Work>
    <dc:type rdf:resource="http://purl.org/dc/dcmitype/StillImage"/>
    <dc:date>2021-12-20T23:32:46.940770</dc:date>
    <dc:format>image/svg+xml</dc:format>
    <dc:creator>
     <cc:Agent>
      <dc:title>Matplotlib v3.4.2, https://matplotlib.org/</dc:title>
     </cc:Agent>
    </dc:creator>
   </cc:Work>
  </rdf:RDF>
 </metadata>
 <defs>
  <style type="text/css">*{stroke-linecap:butt;stroke-linejoin:round;}</style>
 </defs>
 <g id="figure_1">
  <g id="patch_1">
   <path d="M 0 216 
L 306 216 
L 306 0 
L 0 0 
z
" style="fill:#ffffff;"/>
  </g>
  <g id="axes_1">
   <g id="patch_2">
    <path d="M 94.94 141.64 
L 284.4 141.64 
L 284.4 28.8 
L 94.94 28.8 
z
" style="fill:#ffffff;"/>
   </g>
   <g id="line2d_1">
    <path clip-path="url(#pf10c8917ee)" d="M 94.94 69.945881 
L 284.4 69.945881 
" style="fill:none;stroke:#000000;stroke-linecap:round;stroke-width:0.5;"/>
   </g>
   <g id="patch_3">
    <path clip-path="url(#pf10c8917ee)" d="M 102.067515 60.931885 
L 100.261014 51.213447 
L 98.340473 60.931885 
L 102.067515 60.931885 
z
M 99.418672 47.945215 
L 101.240724 47.945215 
L 105.558702 69.945881 
L 103.791078 69.945881 
L 102.58588 63.356703 
L 97.879128 63.356703 
L 96.590992 69.945881 
L 94.94 69.945881 
L 99.418672 47.945215 
z
M 100.253239 47.945215 
L 100.253239 47.945215 
z
" style="fill:#008000;"/>
   </g>
   <g id="patch_4">
    <path clip-path="url(#pf10c8917ee)" d="M 111.700744 63.661194 
Q 113.97469 63.661194 115.229012 64.259117 
Q 116.483333 64.85574 116.621543 65.614841 
L 115.041255 65.614841 
Q 114.772658 65.039016 113.969475 64.70236 
Q 113.166292 64.364403 111.716391 64.364403 
Q 109.948346 64.364403 108.86092 64.984423 
Q 107.773494 65.603143 107.773494 66.882177 
Q 107.773494 67.931141 108.754002 68.583657 
Q 109.737119 69.234873 111.685098 69.234873 
Q 113.476613 69.234873 114.415398 68.548561 
Q 114.910868 68.187208 115.155995 67.597085 
L 116.736283 67.597085 
Q 116.525057 68.539463 115.335929 69.17768 
Q 113.909497 69.945881 111.489518 69.945881 
Q 109.403329 69.945881 107.98472 69.315462 
Q 106.117581 68.48357 106.117581 66.744395 
Q 106.117581 65.425066 107.520543 64.580175 
Q 109.035638 63.661194 111.700744 63.661194 
z
M 111.374777 63.661194 
L 111.374777 63.661194 
z
" style="fill:#0000ff;"/>
   </g>
   <g id="patch_5">
    <path clip-path="url(#pf10c8917ee)" d="M 113.245097 54.465218 
L 111.438595 44.550578 
L 109.518054 54.465218 
L 113.245097 54.465218 
z
M 110.596253 41.216364 
L 112.418305 41.216364 
L 116.736283 63.661194 
L 114.968659 63.661194 
L 113.763461 56.93899 
L 109.056709 56.93899 
L 107.768573 63.661194 
L 106.117581 63.661194 
L 110.596253 41.216364 
z
M 111.43082 41.216364 
L 111.43082 41.216364 
z
" style="fill:#008000;"/>
   </g>
   <g id="patch_6">
    <path clip-path="url(#pf10c8917ee)" d="M 122.878326 61.645348 
Q 125.152272 61.645348 126.406593 62.435058 
Q 127.660914 63.22305 127.799124 64.225638 
L 126.218836 64.225638 
Q 125.950239 63.465113 125.147056 63.020473 
Q 124.343873 62.574115 122.893972 62.574115 
Q 121.125927 62.574115 120.038501 63.39301 
Q 118.951075 64.210187 118.951075 65.899478 
Q 118.951075 67.284903 119.931584 68.146717 
Q 120.9147 69.006813 122.862679 69.006813 
Q 124.654194 69.006813 125.592979 68.100364 
Q 126.088449 67.623105 126.333576 66.843696 
L 127.913864 66.843696 
Q 127.702638 68.088347 126.51351 68.931276 
Q 125.087078 69.945881 122.667099 69.945881 
Q 120.58091 69.945881 119.162301 69.113252 
Q 117.295162 68.014526 117.295162 65.717502 
Q 117.295162 63.974991 118.698124 62.859097 
Q 120.213219 61.645348 122.878326 61.645348 
z
M 122.552359 61.645348 
L 122.552359 61.645348 
z
" style="fill:#0000ff;"/>
   </g>
   <g id="patch_7">
    <path clip-path="url(#pf10c8917ee)" d="M 124.422678 54.385433 
L 122.616176 46.558156 
L 120.695635 54.385433 
L 124.422678 54.385433 
z
M 121.773834 43.925906 
L 123.595886 43.925906 
L 127.913864 61.645348 
L 126.14624 61.645348 
L 124.941042 56.338393 
L 120.23429 56.338393 
L 118.946154 61.645348 
L 117.295162 61.645348 
L 121.773834 43.925906 
z
M 122.608401 43.925906 
L 122.608401 43.925906 
z
" style="fill:#008000;"/>
   </g>
   <g id="patch_8">
    <path clip-path="url(#pf10c8917ee)" d="M 134.055907 59.012394 
Q 136.329853 59.012394 137.584174 60.052602 
Q 138.838495 61.090548 138.976705 62.41116 
L 137.396417 62.41116 
Q 137.12782 61.409394 136.324637 60.823712 
Q 135.521454 60.235769 134.071553 60.235769 
Q 132.303508 60.235769 131.216082 61.314419 
Q 130.128656 62.390808 130.128656 64.615947 
Q 130.128656 66.440833 131.109165 67.576016 
Q 132.092281 68.708938 134.04026 68.708938 
Q 135.831775 68.708938 136.77056 67.514961 
Q 137.26603 66.886313 137.511157 65.859674 
L 139.091445 65.859674 
Q 138.880219 67.499131 137.691091 68.60944 
Q 136.264659 69.945881 133.84468 69.945881 
Q 131.758491 69.945881 130.339883 68.84914 
Q 128.472743 67.401895 128.472743 64.376247 
Q 128.472743 62.081007 129.875705 60.611148 
Q 131.3908 59.012394 134.055907 59.012394 
z
M 133.72994 59.012394 
L 133.72994 59.012394 
z
" style="fill:#0000ff;"/>
   </g>
   <g id="patch_9">
    <path clip-path="url(#pf10c8917ee)" d="M 135.600259 52.402015 
L 133.793758 45.275036 
L 131.873216 52.402015 
L 135.600259 52.402015 
z
M 132.951415 42.87829 
L 134.773467 42.87829 
L 139.091445 59.012394 
L 137.323822 59.012394 
L 136.118624 54.180246 
L 131.411872 54.180246 
L 130.123735 59.012394 
L 128.472743 59.012394 
L 132.951415 42.87829 
z
M 133.785982 42.87829 
L 133.785982 42.87829 
z
" style="fill:#008000;"/>
   </g>
   <g id="patch_10">
    <path clip-path="url(#pf10c8917ee)" d="M 145.233488 55.143813 
Q 147.507434 55.143813 148.761755 56.552076 
Q 150.016076 57.957277 150.154286 59.745159 
L 148.573998 59.745159 
Q 148.305401 58.38894 147.502218 57.596027 
Q 146.699036 56.800052 145.249134 56.800052 
Q 143.481089 56.800052 142.393663 58.26036 
Q 141.306237 59.717606 141.306237 62.730064 
Q 141.306237 65.200647 142.286746 66.73749 
Q 143.269862 68.271272 145.217841 68.271272 
Q 147.009356 68.271272 147.948141 66.654831 
Q 148.443611 65.803751 148.688738 64.413856 
L 150.269027 64.413856 
Q 150.0578 66.633401 148.868672 68.136569 
Q 147.44224 69.945881 145.022261 69.945881 
Q 142.936072 69.945881 141.517464 68.461082 
Q 139.650324 66.501759 139.650324 62.405551 
Q 139.650324 59.298188 141.053287 57.308252 
Q 142.568381 55.143813 145.233488 55.143813 
z
M 144.907521 55.143813 
L 144.907521 55.143813 
z
" style="fill:#0000ff;"/>
   </g>
   <g id="patch_11">
    <path clip-path="url(#pf10c8917ee)" d="M 146.77784 48.456459 
L 144.971339 41.246489 
L 143.050797 48.456459 
L 146.77784 48.456459 
z
M 144.128996 38.821834 
L 145.951048 38.821834 
L 150.269027 55.143813 
L 148.501403 55.143813 
L 147.296205 50.255396 
L 142.589453 50.255396 
L 141.301316 55.143813 
L 139.650324 55.143813 
L 144.128996 38.821834 
z
M 144.963563 38.821834 
L 144.963563 38.821834 
z
" style="fill:#008000;"/>
   </g>
   <g id="patch_12">
    <path clip-path="url(#pf10c8917ee)" d="M 157.955421 64.526578 
L 156.14892 58.683757 
L 154.228378 64.526578 
L 157.955421 64.526578 
z
M 155.306577 56.718864 
L 157.128629 56.718864 
L 161.446608 69.945881 
L 159.678984 69.945881 
L 158.473786 65.984402 
L 153.767034 65.984402 
L 152.478897 69.945881 
L 150.827906 69.945881 
L 155.306577 56.718864 
z
M 156.141144 56.718864 
L 156.141144 56.718864 
z
" style="fill:#008000;"/>
   </g>
   <g id="patch_13">
    <path clip-path="url(#pf10c8917ee)" d="M 156.411069 42.75162 
Q 158.685015 42.75162 159.939336 44.080458 
Q 161.193657 45.406408 161.331867 47.093454 
L 159.751579 47.093454 
Q 159.482982 45.813725 158.679799 45.065532 
Q 157.876617 44.314449 156.426715 44.314449 
Q 154.65867 44.314449 153.571244 45.692397 
Q 152.483818 47.067455 152.483818 49.910013 
Q 152.483818 52.241257 153.464327 53.691424 
Q 154.447444 55.138702 156.395423 55.138702 
Q 158.186937 55.138702 159.125722 53.613427 
Q 159.621192 52.810347 159.866319 51.498841 
L 161.446608 51.498841 
Q 161.235381 53.593206 160.046253 55.011596 
Q 158.619822 56.718864 156.199842 56.718864 
Q 154.113653 56.718864 152.695045 55.317807 
Q 150.827906 53.468988 150.827906 49.603803 
Q 150.827906 46.671693 152.230868 44.793986 
Q 153.745962 42.75162 156.411069 42.75162 
z
M 156.085102 42.75162 
L 156.085102 42.75162 
z
" style="fill:#0000ff;"/>
   </g>
   <g id="patch_14">
    <path clip-path="url(#pf10c8917ee)" d="M 169.133002 64.827383 
L 167.326501 59.308876 
L 165.40596 64.827383 
L 169.133002 64.827383 
z
M 166.484158 57.453047 
L 168.30621 57.453047 
L 172.624189 69.945881 
L 170.856565 69.945881 
L 169.651367 66.204289 
L 164.944615 66.204289 
L 163.656478 69.945881 
L 162.005487 69.945881 
L 166.484158 57.453047 
z
M 167.318725 57.453047 
L 167.318725 57.453047 
z
" style="fill:#008000;"/>
   </g>
   <g id="patch_15">
    <path clip-path="url(#pf10c8917ee)" d="M 167.58865 41.783951 
Q 169.862596 41.783951 171.116917 43.274703 
Q 172.371238 44.762213 172.509448 46.65482 
L 170.92916 46.65482 
Q 170.660563 45.219161 169.857381 44.379803 
Q 169.054198 43.537204 167.604296 43.537204 
Q 165.836251 43.537204 164.748825 45.083049 
Q 163.661399 46.625653 163.661399 49.814565 
Q 163.661399 52.429862 164.641908 54.056726 
Q 165.625025 55.680349 167.573004 55.680349 
Q 169.364518 55.680349 170.303304 53.969225 
Q 170.798773 53.068292 171.043901 51.596985 
L 172.624189 51.596985 
Q 172.412962 53.94654 171.223834 55.537755 
Q 169.797403 57.453047 167.377423 57.453047 
Q 165.291234 57.453047 163.872626 55.881276 
Q 162.005487 53.807187 162.005487 49.471044 
Q 162.005487 46.181668 163.408449 44.075171 
Q 164.923544 41.783951 167.58865 41.783951 
z
M 167.262683 41.783951 
L 167.262683 41.783951 
z
" style="fill:#0000ff;"/>
   </g>
   <g id="patch_16">
    <path clip-path="url(#pf10c8917ee)" d="M 180.310583 65.06182 
L 178.504082 59.796071 
L 176.583541 65.06182 
L 180.310583 65.06182 
z
M 177.661739 58.025242 
L 179.483791 58.025242 
L 183.80177 69.945881 
L 182.034146 69.945881 
L 180.828948 66.375661 
L 176.122196 66.375661 
L 174.83406 69.945881 
L 173.183068 69.945881 
L 177.661739 58.025242 
z
M 178.496307 58.025242 
L 178.496307 58.025242 
z
" style="fill:#008000;"/>
   </g>
   <g id="patch_17">
    <path clip-path="url(#pf10c8917ee)" d="M 178.766231 38.844148 
Q 181.040177 38.844148 182.294498 40.669029 
Q 183.548819 42.489944 183.68703 44.80675 
L 182.106741 44.80675 
Q 181.838145 43.04931 181.034962 42.021822 
Q 180.231779 40.990367 178.781878 40.990367 
Q 177.013832 40.990367 175.926406 42.88269 
Q 174.83898 44.771046 174.83898 48.674706 
Q 174.83898 51.876184 175.819489 53.867685 
Q 176.802606 55.85522 178.750585 55.85522 
Q 180.5421 55.85522 181.480885 53.760573 
Q 181.976355 52.657709 182.221482 50.85663 
L 183.80177 50.85663 
Q 183.590543 53.732803 182.401416 55.680666 
Q 180.974984 58.025242 178.555005 58.025242 
Q 176.468816 58.025242 175.050207 56.101182 
Q 173.183068 53.562216 173.183068 48.25419 
Q 173.183068 44.227549 174.58603 41.648912 
Q 176.101125 38.844148 178.766231 38.844148 
z
M 178.440264 38.844148 
L 178.440264 38.844148 
z
" style="fill:#0000ff;"/>
   </g>
   <g id="patch_18">
    <path clip-path="url(#pf10c8917ee)" d="M 191.488164 65.85124 
L 189.681663 61.436604 
L 187.761122 65.85124 
L 191.488164 65.85124 
z
M 188.83932 59.951997 
L 190.661373 59.951997 
L 194.979351 69.945881 
L 193.211727 69.945881 
L 192.006529 66.952722 
L 187.299777 66.952722 
L 186.011641 69.945881 
L 184.360649 69.945881 
L 188.83932 59.951997 
z
M 189.673888 59.951997 
L 189.673888 59.951997 
z
" style="fill:#008000;"/>
   </g>
   <g id="patch_19">
    <path clip-path="url(#pf10c8917ee)" d="M 189.943812 44.531427 
Q 192.217758 44.531427 193.472079 45.998534 
Q 194.726401 47.462452 194.864611 49.32504 
L 193.284322 49.32504 
Q 193.015726 47.912152 192.212543 47.086107 
Q 191.40936 46.256873 189.959459 46.256873 
Q 188.191414 46.256873 187.103988 47.778199 
Q 186.016561 49.296335 186.016561 52.434669 
Q 186.016561 55.008485 186.99707 56.609545 
Q 187.980187 58.207416 189.928166 58.207416 
Q 191.719681 58.207416 192.658466 56.523432 
Q 193.153936 55.636789 193.399063 54.188818 
L 194.979351 54.188818 
Q 194.768124 56.501107 193.578997 58.067084 
Q 192.152565 59.951997 189.732586 59.951997 
Q 187.646397 59.951997 186.227788 58.405156 
Q 184.360649 56.363964 184.360649 52.096596 
Q 184.360649 48.859393 185.763611 46.786307 
Q 187.278706 44.531427 189.943812 44.531427 
z
M 189.617845 44.531427 
L 189.617845 44.531427 
z
" style="fill:#0000ff;"/>
   </g>
   <g id="patch_20">
    <path clip-path="url(#pf10c8917ee)" d="M 202.665746 66.892626 
L 200.859244 63.600761 
L 198.938703 66.892626 
L 202.665746 66.892626 
z
M 200.016902 62.493733 
L 201.838954 62.493733 
L 206.156932 69.945881 
L 204.389308 69.945881 
L 203.18411 67.71397 
L 198.477358 67.71397 
L 197.189222 69.945881 
L 195.53823 69.945881 
L 200.016902 62.493733 
z
M 200.851469 62.493733 
L 200.851469 62.493733 
z
" style="fill:#008000;"/>
   </g>
   <g id="patch_21">
    <path clip-path="url(#pf10c8917ee)" d="M 201.121393 44.521152 
Q 203.395339 44.521152 204.649661 46.231056 
Q 205.903982 47.937243 206.042192 50.108078 
L 204.461904 50.108078 
Q 204.193307 48.461366 203.390124 47.498616 
Q 202.586941 46.532148 201.13704 46.532148 
Q 199.368995 46.532148 198.281569 48.305244 
Q 197.194143 50.074624 197.194143 53.732332 
Q 197.194143 56.732099 198.174651 58.598125 
Q 199.157768 60.460434 201.105747 60.460434 
Q 202.897262 60.460434 203.836047 58.497761 
Q 204.331517 57.464384 204.576644 55.776783 
L 206.156932 55.776783 
Q 205.945706 58.471741 204.756578 60.296878 
Q 203.330146 62.493733 200.910167 62.493733 
Q 198.823978 62.493733 197.405369 60.690899 
Q 195.53823 58.311902 195.53823 53.338311 
Q 195.53823 49.56537 196.941192 47.1492 
Q 198.456287 44.521152 201.121393 44.521152 
z
M 200.795426 44.521152 
L 200.795426 44.521152 
z
" style="fill:#0000ff;"/>
   </g>
   <g id="patch_22">
    <path clip-path="url(#pf10c8917ee)" d="M 213.843327 67.051025 
L 212.036825 63.929938 
L 210.116284 67.051025 
L 213.843327 67.051025 
z
M 211.194483 62.880341 
L 213.016535 62.880341 
L 217.334513 69.945881 
L 215.566889 69.945881 
L 214.361691 67.829758 
L 209.654939 67.829758 
L 208.366803 69.945881 
L 206.715811 69.945881 
L 211.194483 62.880341 
z
M 212.02905 62.880341 
L 212.02905 62.880341 
z
" style="fill:#008000;"/>
   </g>
   <g id="patch_23">
    <path clip-path="url(#pf10c8917ee)" d="M 212.298975 44.781594 
Q 214.572921 44.781594 215.827242 46.503502 
Q 217.081563 48.221666 217.219773 50.40774 
L 215.639485 50.40774 
Q 215.370888 48.749468 214.567705 47.77996 
Q 213.764522 46.806707 212.314621 46.806707 
Q 210.546576 46.806707 209.45915 48.592251 
Q 208.371724 50.374051 208.371724 54.057436 
Q 208.371724 57.078261 209.352233 58.957386 
Q 210.335349 60.832768 212.283328 60.832768 
Q 214.074843 60.832768 215.013628 58.856318 
Q 215.509098 57.815687 215.754225 56.116239 
L 217.334513 56.116239 
Q 217.123287 58.830115 215.934159 60.668064 
Q 214.507727 62.880341 212.087748 62.880341 
Q 210.001559 62.880341 208.58295 61.064852 
Q 206.715811 58.669154 206.715811 53.660649 
Q 206.715811 49.861222 208.118773 47.428091 
Q 209.633868 44.781594 212.298975 44.781594 
z
M 211.973008 44.781594 
L 211.973008 44.781594 
z
" style="fill:#0000ff;"/>
   </g>
   <g id="patch_24">
    <path clip-path="url(#pf10c8917ee)" d="M 223.369847 68.447537 
Q 225.007973 68.447537 226.20302 68.525075 
Q 227.934826 68.636419 228.322203 68.915556 
L 226.765098 68.915556 
Q 226.478995 68.75955 225.585242 68.688215 
Q 224.691488 68.61688 223.329337 68.61688 
Q 221.71653 68.61688 220.612631 68.765442 
Q 219.508731 68.913695 219.508731 69.207409 
Q 219.508731 69.461113 220.417676 69.620531 
Q 221.329153 69.779949 223.385039 69.779949 
Q 224.959868 69.779949 225.992874 69.668295 
Q 227.025881 69.55633 227.048668 69.306037 
L 223.410357 69.306037 
L 223.410357 69.146309 
L 228.512094 69.146309 
L 228.512094 69.908042 
L 227.499343 69.908042 
L 227.119561 69.724742 
Q 226.322019 69.832365 225.70424 69.874235 
Q 224.66617 69.945881 223.068554 69.945881 
Q 221.005072 69.945881 219.516327 69.78212 
Q 217.893392 69.57649 217.893392 69.217954 
Q 217.893392 68.860349 219.475817 68.649135 
Q 220.979753 68.447537 223.369847 68.447537 
z
M 223.109064 68.445366 
L 223.109064 68.445366 
z
" style="fill:#ffa600;"/>
   </g>
   <g id="patch_25">
    <path clip-path="url(#pf10c8917ee)" d="M 225.020908 67.807828 
L 223.214407 67.120467 
L 221.293865 67.807828 
L 225.020908 67.807828 
z
M 222.372064 66.889313 
L 224.194116 66.889313 
L 228.512094 68.445366 
L 226.744471 68.445366 
L 225.539273 67.979329 
L 220.832521 67.979329 
L 219.544384 68.445366 
L 217.893392 68.445366 
L 222.372064 66.889313 
z
M 223.206631 66.889313 
L 223.206631 66.889313 
z
" style="fill:#008000;"/>
   </g>
   <g id="patch_26">
    <path clip-path="url(#pf10c8917ee)" d="M 223.476556 54.627786 
Q 225.750502 54.627786 227.004823 55.794343 
Q 228.259144 56.958363 228.397354 58.439383 
L 226.817066 58.439383 
Q 226.548469 57.315938 225.745286 56.659116 
Q 224.942103 55.999758 223.492202 55.999758 
Q 221.724157 55.999758 220.636731 57.209427 
Q 219.549305 58.416559 219.549305 60.911977 
Q 219.549305 62.958523 220.529814 64.231592 
Q 221.51293 65.502124 223.460909 65.502124 
Q 225.252424 65.502124 226.191209 64.16312 
Q 226.686679 63.458114 226.931806 62.306773 
L 228.512094 62.306773 
Q 228.300868 64.145368 227.11174 65.390541 
Q 225.685308 66.889313 223.265329 66.889313 
Q 221.17914 66.889313 219.760531 65.659356 
Q 217.893392 64.03632 217.893392 60.643161 
Q 217.893392 58.069128 219.296354 56.420733 
Q 220.811449 54.627786 223.476556 54.627786 
z
M 223.150589 54.627786 
L 223.150589 54.627786 
z
" style="fill:#0000ff;"/>
   </g>
   <g id="patch_27">
    <path clip-path="url(#pf10c8917ee)" d="M 236.198489 68.46639 
L 234.391988 66.871278 
L 232.471446 68.46639 
L 236.198489 68.46639 
z
M 233.549645 66.334855 
L 235.371697 66.334855 
L 239.689676 69.945881 
L 237.922052 69.945881 
L 236.716854 68.864382 
L 232.010102 68.864382 
L 230.721965 69.945881 
L 229.070973 69.945881 
L 233.549645 66.334855 
z
M 234.384212 66.334855 
L 234.384212 66.334855 
z
" style="fill:#008000;"/>
   </g>
   <g id="patch_28">
    <path clip-path="url(#pf10c8917ee)" d="M 234.547429 60.401498 
Q 236.185554 60.401498 237.380602 60.708544 
Q 239.112407 61.149462 239.499785 62.254827 
L 237.942679 62.254827 
Q 237.656576 61.637051 236.762823 61.354569 
Q 235.86907 61.072086 234.506918 61.072086 
Q 232.894111 61.072086 231.790212 61.660386 
Q 230.686312 62.247458 230.686312 63.410549 
Q 230.686312 64.415203 231.595257 65.04649 
Q 232.506734 65.677776 234.56262 65.677776 
Q 236.137449 65.677776 237.170456 65.23563 
Q 238.203462 64.792256 238.226249 63.801111 
L 234.587939 63.801111 
L 234.587939 63.168596 
L 239.689676 63.168596 
L 239.689676 66.185016 
L 238.676924 66.185016 
L 238.297142 65.45916 
Q 237.4996 65.88534 236.881821 66.051144 
Q 235.843751 66.334855 234.246135 66.334855 
Q 232.182653 66.334855 230.693908 65.686374 
Q 229.070973 64.872088 229.070973 63.452307 
Q 229.070973 62.036211 230.653398 61.199817 
Q 232.157334 60.401498 234.547429 60.401498 
z
M 234.286645 60.3929 
L 234.286645 60.3929 
z
" style="fill:#ffa600;"/>
   </g>
   <g id="patch_29">
    <path clip-path="url(#pf10c8917ee)" d="M 234.654137 48.596709 
Q 236.928083 48.596709 238.182404 49.718994 
Q 239.436725 50.838839 239.574935 52.263653 
L 237.994647 52.263653 
Q 237.72605 51.182844 236.922867 50.550948 
Q 236.119685 49.916613 234.669783 49.916613 
Q 232.901738 49.916613 231.814312 51.080374 
Q 230.726886 52.241695 230.726886 54.642409 
Q 230.726886 56.611288 231.707395 57.836042 
Q 232.690511 59.058357 234.63849 59.058357 
Q 236.430005 59.058357 237.36879 57.770169 
Q 237.86426 57.091919 238.109387 55.984272 
L 239.689676 55.984272 
Q 239.478449 57.753091 238.289321 58.951008 
Q 236.862889 60.3929 234.44291 60.3929 
Q 232.356721 60.3929 230.938113 59.209622 
Q 229.070973 57.648182 229.070973 54.383796 
Q 229.070973 51.90745 230.473936 50.321612 
Q 231.98903 48.596709 234.654137 48.596709 
z
M 234.32817 48.596709 
L 234.32817 48.596709 
z
" style="fill:#0000ff;"/>
   </g>
   <g id="patch_30">
    <path clip-path="url(#pf10c8917ee)" d="M 247.37607 69.232647 
L 245.569569 68.463674 
L 243.649027 69.232647 
L 247.37607 69.232647 
z
M 244.727226 68.205075 
L 246.549278 68.205075 
L 250.867257 69.945881 
L 249.099633 69.945881 
L 247.894435 69.424511 
L 243.187683 69.424511 
L 241.899546 69.945881 
L 240.248555 69.945881 
L 244.727226 68.205075 
z
M 245.561793 68.205075 
L 245.561793 68.205075 
z
" style="fill:#008000;"/>
   </g>
   <g id="patch_31">
    <path clip-path="url(#pf10c8917ee)" d="M 245.72501 60.479977 
Q 247.363136 60.479977 248.558183 60.879744 
Q 250.289988 61.453809 250.677366 62.892971 
L 249.12026 62.892971 
Q 248.834158 62.088639 247.940404 61.720854 
Q 247.046651 61.353068 245.6845 61.353068 
Q 244.071692 61.353068 242.967793 62.119022 
Q 241.863894 62.883376 241.863894 64.397694 
Q 241.863894 65.705731 242.772838 66.527652 
Q 243.684315 67.349574 245.740201 67.349574 
Q 247.31503 67.349574 248.348037 66.773909 
Q 249.381043 66.196645 249.40383 64.906197 
L 245.76552 64.906197 
L 245.76552 64.082677 
L 250.867257 64.082677 
L 250.867257 68.009989 
L 249.854505 68.009989 
L 249.474723 67.064939 
Q 248.677181 67.619816 248.059402 67.83569 
Q 247.021332 68.205075 245.423716 68.205075 
Q 243.360234 68.205075 241.871489 67.360767 
Q 240.248555 66.300585 240.248555 64.452062 
Q 240.248555 62.608336 241.830979 61.519371 
Q 243.334916 60.479977 245.72501 60.479977 
z
M 245.464226 60.468783 
L 245.464226 60.468783 
z
" style="fill:#ffa600;"/>
   </g>
   <g id="patch_32">
    <path clip-path="url(#pf10c8917ee)" d="M 245.831718 50.829103 
Q 248.105664 50.829103 249.359985 51.746218 
Q 250.614306 52.66134 250.752516 53.825678 
L 249.172228 53.825678 
Q 248.903631 52.942456 248.100448 52.42608 
Q 247.297266 51.90771 245.847364 51.90771 
Q 244.079319 51.90771 242.991893 52.858719 
Q 241.904467 53.807734 241.904467 55.769564 
Q 241.904467 57.378503 242.884976 58.379355 
Q 243.868093 59.378213 245.816071 59.378213 
Q 247.607586 59.378213 248.546371 58.325524 
Q 249.041841 57.771268 249.286968 56.866115 
L 250.867257 56.866115 
Q 250.65603 58.311568 249.466902 59.290489 
Q 248.040471 60.468783 245.620491 60.468783 
Q 243.534302 60.468783 242.115694 59.501825 
Q 240.248555 58.225838 240.248555 55.558228 
Q 240.248555 53.534593 241.651517 52.238669 
Q 243.166611 50.829103 245.831718 50.829103 
z
M 245.505751 50.829103 
L 245.505751 50.829103 
z
" style="fill:#0000ff;"/>
   </g>
   <g id="patch_33">
    <path clip-path="url(#pf10c8917ee)" d="M 257.009299 64.974238 
Q 259.283245 64.974238 260.537566 65.447238 
Q 261.791887 65.91921 261.930097 66.519714 
L 260.349809 66.519714 
Q 260.081212 66.064195 259.27803 65.797875 
Q 258.474847 65.530527 257.024945 65.530527 
Q 255.2569 65.530527 254.169474 66.021008 
Q 253.082048 66.51046 253.082048 67.522269 
Q 253.082048 68.352076 254.062557 68.868263 
Q 255.045674 69.383422 256.993653 69.383422 
Q 258.785167 69.383422 259.723952 68.8405 
Q 260.219422 68.554643 260.46455 68.087813 
L 262.044838 68.087813 
Q 261.833611 68.833302 260.644483 69.338178 
Q 259.218052 69.945881 256.798072 69.945881 
Q 254.711883 69.945881 253.293275 69.447174 
Q 251.426136 68.789087 251.426136 67.413273 
Q 251.426136 66.369588 252.829098 65.701218 
Q 254.344193 64.974238 257.009299 64.974238 
z
M 256.683332 64.974238 
L 256.683332 64.974238 
z
" style="fill:#0000ff;"/>
   </g>
   <g id="patch_34">
    <path clip-path="url(#pf10c8917ee)" d="M 256.902591 55.590873 
Q 258.540717 55.590873 259.735764 56.076453 
Q 261.467569 56.773748 261.854947 58.521839 
L 260.297841 58.521839 
Q 260.011739 57.54485 259.117985 57.098116 
Q 258.224232 56.651381 256.862081 56.651381 
Q 255.249274 56.651381 254.145374 57.581754 
Q 253.041475 58.510185 253.041475 60.349565 
Q 253.041475 61.938386 253.950419 62.93674 
Q 254.861896 63.935095 256.917782 63.935095 
Q 258.492611 63.935095 259.525618 63.235858 
Q 260.558625 62.534679 260.581411 60.967224 
L 256.943101 60.967224 
L 256.943101 59.966928 
L 262.044838 59.966928 
L 262.044838 64.737274 
L 261.032086 64.737274 
L 260.652304 63.589361 
Q 259.854762 64.263347 259.236984 64.525561 
Q 258.198913 64.974238 256.601297 64.974238 
Q 254.537815 64.974238 253.04907 63.948691 
Q 251.426136 62.66093 251.426136 60.415604 
Q 251.426136 58.176105 253.00856 56.853383 
Q 254.512497 55.590873 256.902591 55.590873 
z
M 256.641807 55.577276 
L 256.641807 55.577276 
z
" style="fill:#ffa600;"/>
   </g>
   <g id="patch_35">
    <path clip-path="url(#pf10c8917ee)" d="M 269.731232 67.680959 
L 267.924731 65.239033 
L 266.00419 67.680959 
L 269.731232 67.680959 
z
M 267.082388 64.417833 
L 268.90444 64.417833 
L 273.222419 69.945881 
L 271.454795 69.945881 
L 270.249597 68.290236 
L 265.542845 68.290236 
L 264.254709 69.945881 
L 262.603717 69.945881 
L 267.082388 64.417833 
z
M 267.916956 64.417833 
L 267.916956 64.417833 
z
" style="fill:#008000;"/>
   </g>
   <g id="patch_36">
    <path clip-path="url(#pf10c8917ee)" d="M 268.080172 51.758943 
Q 269.718298 51.758943 270.913345 52.41403 
Q 272.64515 53.354734 273.032528 55.713045 
L 271.475422 55.713045 
Q 271.18932 54.395011 270.295566 53.792331 
Q 269.401813 53.189652 268.039662 53.189652 
Q 266.426855 53.189652 265.322955 54.444797 
Q 264.219056 55.697323 264.219056 58.17879 
Q 264.219056 60.322233 265.128001 61.669091 
Q 266.039477 63.015948 268.095363 63.015948 
Q 269.670192 63.015948 270.703199 62.072624 
Q 271.736206 61.126679 271.758993 59.01206 
L 268.120682 59.01206 
L 268.120682 57.662582 
L 273.222419 57.662582 
L 273.222419 64.098151 
L 272.209667 64.098151 
L 271.829885 62.549527 
Q 271.032343 63.458787 270.414565 63.812533 
Q 269.376494 64.417833 267.778878 64.417833 
Q 265.715397 64.417833 264.226651 63.034291 
Q 262.603717 61.297002 262.603717 58.267882 
Q 262.603717 55.246623 264.186141 53.462168 
Q 265.690078 51.758943 268.080172 51.758943 
z
M 267.819388 51.740601 
L 267.819388 51.740601 
z
" style="fill:#ffa600;"/>
   </g>
   <g id="patch_37">
    <path clip-path="url(#pf10c8917ee)" d="M 279.257753 68.85582 
Q 280.895879 68.85582 282.090926 68.91223 
Q 283.822732 68.993234 284.210109 69.196309 
L 282.653003 69.196309 
Q 282.366901 69.082812 281.473147 69.030916 
Q 280.579394 68.979019 279.217243 68.979019 
Q 277.604436 68.979019 276.500536 69.0871 
Q 275.396637 69.194955 275.396637 69.408635 
Q 275.396637 69.593207 276.305582 69.709186 
Q 277.217058 69.825164 279.272944 69.825164 
Q 280.847773 69.825164 281.88078 69.743934 
Q 282.913787 69.662478 282.936574 69.480388 
L 279.298263 69.480388 
L 279.298263 69.364184 
L 284.4 69.364184 
L 284.4 69.918353 
L 283.387248 69.918353 
L 283.007466 69.785 
Q 282.209924 69.863297 281.592146 69.893758 
Q 280.554075 69.945881 278.956459 69.945881 
Q 276.892978 69.945881 275.404233 69.826743 
Q 273.781298 69.677145 273.781298 69.416306 
Q 273.781298 69.156145 275.363723 69.002485 
Q 276.867659 68.85582 279.257753 68.85582 
z
M 278.996969 68.85424 
L 278.996969 68.85424 
z
" style="fill:#ffa600;"/>
   </g>
   <g id="patch_38">
    <path clip-path="url(#pf10c8917ee)" d="M 280.908813 54.758359 
L 279.102312 39.560885 
L 277.181771 54.758359 
L 280.908813 54.758359 
z
M 278.259969 34.450098 
L 280.082022 34.450098 
L 284.4 68.85424 
L 282.632376 68.85424 
L 281.427178 58.550233 
L 276.720426 58.550233 
L 275.43229 68.85424 
L 273.781298 68.85424 
L 278.259969 34.450098 
z
M 279.094537 34.450098 
L 279.094537 34.450098 
z
" style="fill:#008000;"/>
   </g>
   <g id="patch_39">
    <path clip-path="url(#pf10c8917ee)" d="M 100.523163 99.448043 
Q 102.797109 99.448043 104.051431 97.855174 
Q 105.305752 96.265767 105.443962 94.243516 
L 103.863673 94.243516 
Q 103.595077 95.777518 102.791894 96.674373 
Q 101.988711 97.57469 100.53881 97.57469 
Q 98.770765 97.57469 97.683339 95.922954 
Q 96.595913 94.274681 96.595913 90.867325 
Q 96.595913 88.072879 97.576421 86.334574 
Q 98.559538 84.599731 100.507517 84.599731 
Q 102.299032 84.599731 103.237817 86.428068 
Q 103.733287 87.390715 103.978414 88.962808 
L 105.558702 88.962808 
Q 105.347475 86.452307 104.158348 84.752093 
Q 102.731916 82.705602 100.311937 82.705602 
Q 98.225748 82.705602 96.807139 84.38504 
Q 94.94 86.601206 94.94 91.234378 
Q 94.94 94.749079 96.342962 96.999872 
Q 97.858057 99.448043 100.523163 99.448043 
z
M 100.197196 99.448043 
L 100.197196 99.448043 
z
" style="fill:none;opacity:0;"/>
   </g>
   <g id="patch_40">
    <path clip-path="url(#pf10c8917ee)" d="M 100.416455 74.416017 
Q 102.054581 74.416017 103.249628 74.184692 
Q 104.981434 73.852508 105.368811 73.019736 
L 103.811705 73.019736 
Q 103.525603 73.485163 102.63185 73.697983 
Q 101.738096 73.910802 100.375945 73.910802 
Q 98.763138 73.910802 97.659238 73.467582 
Q 96.555339 73.025288 96.555339 72.149026 
Q 96.555339 71.392128 97.464284 70.916523 
Q 98.37576 70.440917 100.431646 70.440917 
Q 102.006475 70.440917 103.039482 70.774026 
Q 104.072489 71.108061 104.095276 71.85478 
L 100.456965 71.85478 
L 100.456965 72.331311 
L 105.558702 72.331311 
L 105.558702 70.058767 
L 104.54595 70.058767 
L 104.166168 70.605621 
Q 103.368626 70.284541 102.750848 70.159625 
Q 101.712777 69.945881 100.115161 69.945881 
Q 98.05168 69.945881 96.562935 70.43444 
Q 94.94 71.047916 94.94 72.117566 
Q 94.94 73.18444 96.522425 73.814571 
Q 98.026361 74.416017 100.416455 74.416017 
z
M 100.155671 74.422494 
L 100.155671 74.422494 
z
" style="fill:none;opacity:0;"/>
   </g>
   <g id="patch_41">
    <path clip-path="url(#pf10c8917ee)" d="M 105.558702 82.705602 
L 105.558702 81.718701 
L 101.148734 81.718701 
L 101.148734 74.422494 
L 99.349968 74.422494 
L 99.349968 81.718701 
L 94.94 81.718701 
L 94.94 82.705602 
L 105.558702 82.705602 
z
" style="fill:none;opacity:0;"/>
   </g>
   <g id="patch_42">
    <path clip-path="url(#pf10c8917ee)" d="M 111.594036 112.383005 
Q 113.232162 112.383005 114.427209 110.646233 
Q 116.159015 108.152227 116.546392 101.899847 
L 114.989286 101.899847 
Q 114.703184 105.394233 113.809431 106.992063 
Q 112.915677 108.589894 111.553526 108.589894 
Q 109.940719 108.589894 108.83682 105.262238 
Q 107.73292 101.941529 107.73292 95.362635 
Q 107.73292 89.679916 108.641865 86.109112 
Q 109.553341 82.538308 111.609227 82.538308 
Q 113.184056 82.538308 114.217063 85.03926 
Q 115.25007 87.547159 115.272857 93.153461 
L 111.634546 93.153461 
L 111.634546 96.731212 
L 116.736283 96.731212 
L 116.736283 79.66916 
L 115.723531 79.66916 
L 115.34375 83.77489 
Q 114.546208 81.36425 113.928429 80.426392 
Q 112.890358 78.821615 111.292743 78.821615 
Q 109.229261 78.821615 107.740516 82.489678 
Q 106.117581 87.095599 106.117581 95.126434 
Q 106.117581 103.136429 107.700006 107.867397 
Q 109.203942 112.383005 111.594036 112.383005 
z
M 111.333253 112.431635 
L 111.333253 112.431635 
z
" style="fill:none;opacity:0;"/>
   </g>
   <g id="patch_43">
    <path clip-path="url(#pf10c8917ee)" d="M 116.736283 78.821615 
L 116.736283 77.764105 
L 112.326315 77.764105 
L 112.326315 69.945881 
L 110.527549 69.945881 
L 110.527549 77.764105 
L 106.117581 77.764105 
L 106.117581 78.821615 
L 116.736283 78.821615 
z
" style="fill:none;opacity:0;"/>
   </g>
   <g id="patch_44">
    <path clip-path="url(#pf10c8917ee)" d="M 122.771617 106.136106 
Q 124.409743 106.136106 125.60479 104.601728 
Q 127.336596 102.398363 127.723973 96.874605 
L 126.166868 96.874605 
Q 125.880765 99.961772 124.987012 101.373399 
Q 124.093258 102.785026 122.731107 102.785026 
Q 121.1183 102.785026 120.014401 99.845159 
Q 118.910501 96.91143 118.910501 91.099209 
Q 118.910501 86.078727 119.819446 82.924047 
Q 120.730923 79.769367 122.786809 79.769367 
Q 124.361638 79.769367 125.394644 81.978871 
Q 126.427651 84.194511 126.450438 89.147481 
L 122.812127 89.147481 
L 122.812127 92.308298 
L 127.913864 92.308298 
L 127.913864 77.234576 
L 126.901113 77.234576 
L 126.521331 80.861844 
Q 125.723789 78.732128 125.10601 77.903565 
Q 124.06794 76.4858 122.470324 76.4858 
Q 120.406842 76.4858 118.918097 79.726405 
Q 117.295162 83.795573 117.295162 90.890534 
Q 117.295162 97.967081 118.877587 102.146725 
Q 120.381523 106.136106 122.771617 106.136106 
z
M 122.510834 106.179068 
L 122.510834 106.179068 
z
" style="fill:none;opacity:0;"/>
   </g>
   <g id="patch_45">
    <path clip-path="url(#pf10c8917ee)" d="M 127.913864 76.4858 
L 127.913864 75.706594 
L 123.503896 75.706594 
L 123.503896 69.945881 
L 121.705131 69.945881 
L 121.705131 75.706594 
L 117.295162 75.706594 
L 117.295162 76.4858 
L 127.913864 76.4858 
z
" style="fill:none;opacity:0;"/>
   </g>
   <g id="patch_46">
    <path clip-path="url(#pf10c8917ee)" d="M 133.949198 105.35016 
Q 135.587324 105.35016 136.782371 104.295789 
Q 138.514177 102.781714 138.901554 98.985981 
L 137.344449 98.985981 
Q 137.058346 101.107374 136.164593 102.077394 
Q 135.270839 103.047415 133.908688 103.047415 
Q 132.295881 103.047415 131.191982 101.027242 
Q 130.088082 99.011286 130.088082 95.017331 
Q 130.088082 91.567432 130.997027 89.399647 
Q 131.908504 87.231862 133.96439 87.231862 
Q 135.539219 87.231862 136.572225 88.750155 
Q 137.605232 90.272665 137.628019 93.676173 
L 133.989709 93.676173 
L 133.989709 95.848175 
L 139.091445 95.848175 
L 139.091445 85.490042 
L 138.078694 85.490042 
L 137.698912 87.982573 
Q 136.90137 86.519107 136.283591 85.949748 
Q 135.245521 84.975509 133.647905 84.975509 
Q 131.584423 84.975509 130.095678 87.202339 
Q 128.472743 89.998529 128.472743 94.873937 
Q 128.472743 99.736693 130.055168 102.608797 
Q 131.559104 105.35016 133.949198 105.35016 
z
M 133.688415 105.379682 
L 133.688415 105.379682 
z
" style="fill:none;opacity:0;"/>
   </g>
   <g id="patch_47">
    <path clip-path="url(#pf10c8917ee)" d="M 139.091445 84.975509 
L 139.091445 83.184787 
L 134.681477 83.184787 
L 134.681477 69.945881 
L 132.882712 69.945881 
L 132.882712 83.184787 
L 128.472743 83.184787 
L 128.472743 84.975509 
L 139.091445 84.975509 
z
" style="fill:none;opacity:0;"/>
   </g>
   <g id="patch_48">
    <path clip-path="url(#pf10c8917ee)" d="M 145.12678 113.295067 
Q 146.764906 113.295067 147.959953 111.76069 
Q 149.691758 109.557324 150.079136 104.033566 
L 148.52203 104.033566 
Q 148.235927 107.120733 147.342174 108.53236 
Q 146.448421 109.943987 145.086269 109.943987 
Q 143.473462 109.943987 142.369563 107.004121 
Q 141.265664 104.070391 141.265664 98.25817 
Q 141.265664 93.237688 142.174608 90.083009 
Q 143.086085 86.928329 145.141971 86.928329 
Q 146.7168 86.928329 147.749807 89.137832 
Q 148.782813 91.353473 148.8056 96.306443 
L 145.16729 96.306443 
L 145.16729 99.46726 
L 150.269027 99.46726 
L 150.269027 84.393538 
L 149.256275 84.393538 
L 148.876493 88.020806 
Q 148.078951 85.89109 147.461172 85.062526 
Q 146.423102 83.644762 144.825486 83.644762 
Q 142.762004 83.644762 141.273259 86.885366 
Q 139.650324 90.954535 139.650324 98.049495 
Q 139.650324 105.126043 141.232749 109.305686 
Q 142.736685 113.295067 145.12678 113.295067 
z
M 144.865996 113.33803 
L 144.865996 113.33803 
z
" style="fill:none;opacity:0;"/>
   </g>
   <g id="patch_49">
    <path clip-path="url(#pf10c8917ee)" d="M 150.269027 83.644762 
L 150.269027 82.012593 
L 145.859058 82.012593 
L 145.859058 69.945881 
L 144.060293 69.945881 
L 144.060293 82.012593 
L 139.650324 82.012593 
L 139.650324 83.644762 
L 150.269027 83.644762 
z
" style="fill:none;opacity:0;"/>
   </g>
   <g id="patch_50">
    <path clip-path="url(#pf10c8917ee)" d="M 156.304361 106.012296 
Q 157.942487 106.012296 159.137534 104.73103 
Q 160.869339 102.891133 161.256717 98.278577 
L 159.699611 98.278577 
Q 159.413509 100.856483 158.519755 102.035247 
Q 157.626002 103.214012 156.263851 103.214012 
Q 154.651043 103.214012 153.547144 100.759107 
Q 152.443245 98.309327 152.443245 93.455893 
Q 152.443245 89.263592 153.352189 86.62931 
Q 154.263666 83.995028 156.319552 83.995028 
Q 157.894381 83.995028 158.927388 85.840051 
Q 159.960394 87.690198 159.983181 91.826123 
L 156.344871 91.826123 
L 156.344871 94.465531 
L 161.446608 94.465531 
L 161.446608 81.878378 
L 160.433856 81.878378 
L 160.054074 84.907289 
Q 159.256532 83.128893 158.638753 82.437009 
Q 157.600683 81.25312 156.003067 81.25312 
Q 153.939585 81.25312 152.45084 83.959153 
Q 150.827906 87.357069 150.827906 93.281641 
Q 150.827906 99.190838 152.41033 102.681005 
Q 153.914267 106.012296 156.304361 106.012296 
z
M 156.043577 106.048171 
L 156.043577 106.048171 
z
" style="fill:none;opacity:0;"/>
   </g>
   <g id="patch_51">
    <path clip-path="url(#pf10c8917ee)" d="M 161.446608 81.25312 
L 161.446608 79.905906 
L 157.036639 79.905906 
L 157.036639 69.945881 
L 155.237874 69.945881 
L 155.237874 79.905906 
L 150.827906 79.905906 
L 150.827906 81.25312 
L 161.446608 81.25312 
z
" style="fill:none;opacity:0;"/>
   </g>
   <g id="patch_52">
    <path clip-path="url(#pf10c8917ee)" d="M 167.481942 87.169214 
Q 169.120068 87.169214 170.315115 86.277922 
Q 172.04692 84.998026 172.434298 81.789373 
L 170.877192 81.789373 
Q 170.59109 83.582653 169.697336 84.402642 
Q 168.803583 85.222631 167.441432 85.222631 
Q 165.828625 85.222631 164.724725 83.514915 
Q 163.620826 81.810764 163.620826 78.434549 
Q 163.620826 75.51824 164.52977 73.685743 
Q 165.441247 71.853246 167.497133 71.853246 
Q 169.071962 71.853246 170.104969 73.136707 
Q 171.137976 74.423733 171.160763 77.300825 
L 167.522452 77.300825 
L 167.522452 79.136887 
L 172.624189 79.136887 
L 172.624189 70.380831 
L 171.611437 70.380831 
L 171.231655 72.487846 
Q 170.434113 71.250733 169.816335 70.769435 
Q 168.778264 69.945881 167.180648 69.945881 
Q 165.117166 69.945881 163.628421 71.82829 
Q 162.005487 74.191997 162.005487 78.313333 
Q 162.005487 82.423973 163.587911 84.851854 
Q 165.091848 87.169214 167.481942 87.169214 
z
M 167.221158 87.19417 
L 167.221158 87.19417 
z
" style="fill:none;opacity:0;"/>
   </g>
   <g id="patch_53">
    <path clip-path="url(#pf10c8917ee)" d="M 172.624189 107.038455 
L 172.624189 104.674085 
L 168.21422 104.674085 
L 168.21422 87.19417 
L 166.415455 87.19417 
L 166.415455 104.674085 
L 162.005487 104.674085 
L 162.005487 107.038455 
L 172.624189 107.038455 
z
" style="fill:none;opacity:0;"/>
   </g>
   <g id="patch_54">
    <path clip-path="url(#pf10c8917ee)" d="M 178.659523 112.72621 
Q 180.297649 112.72621 181.492696 111.4687 
Q 183.224501 109.662916 183.611879 105.135881 
L 182.054773 105.135881 
Q 181.768671 107.66599 180.874917 108.8229 
Q 179.981164 109.979809 178.619013 109.979809 
Q 177.006206 109.979809 175.902306 107.57042 
Q 174.798407 105.166061 174.798407 100.402613 
Q 174.798407 96.288041 175.707352 93.7026 
Q 176.618828 91.11716 178.674714 91.11716 
Q 180.249543 91.11716 181.28255 92.927974 
Q 182.315557 94.743819 182.338344 98.803061 
L 178.700033 98.803061 
L 178.700033 101.393531 
L 183.80177 101.393531 
L 183.80177 89.039754 
L 182.789018 89.039754 
L 182.409236 92.012507 
Q 181.611694 90.267083 180.993916 89.588028 
Q 179.955845 88.426089 178.358229 88.426089 
Q 176.294748 88.426089 174.806003 91.08195 
Q 173.183068 94.416866 173.183068 100.231592 
Q 173.183068 106.031228 174.765492 109.456685 
Q 176.269429 112.72621 178.659523 112.72621 
z
M 178.398739 112.761421 
L 178.398739 112.761421 
z
" style="fill:none;opacity:0;"/>
   </g>
   <g id="patch_55">
    <path clip-path="url(#pf10c8917ee)" d="M 183.80177 88.426089 
L 183.80177 86.224243 
L 179.391802 86.224243 
L 179.391802 69.945881 
L 177.593036 69.945881 
L 177.593036 86.224243 
L 173.183068 86.224243 
L 173.183068 88.426089 
L 183.80177 88.426089 
z
" style="fill:none;opacity:0;"/>
   </g>
   <g id="patch_56">
    <path clip-path="url(#pf10c8917ee)" d="M 189.837104 102.578695 
Q 191.47523 102.578695 192.670277 101.623744 
Q 194.402083 100.252435 194.78946 96.814612 
L 193.232354 96.814612 
Q 192.946252 98.735973 192.052498 99.614528 
Q 191.158745 100.493083 189.796594 100.493083 
Q 188.183787 100.493083 187.079887 98.663397 
Q 185.975988 96.837531 185.975988 93.220177 
Q 185.975988 90.095578 186.884933 88.132199 
Q 187.796409 86.16882 189.852295 86.16882 
Q 191.427124 86.16882 192.460131 87.543949 
Q 193.493138 88.922898 193.515925 92.00548 
L 189.877614 92.00548 
L 189.877614 93.972678 
L 194.979351 93.972678 
L 194.979351 84.591241 
L 193.966599 84.591241 
L 193.586817 86.848745 
Q 192.789275 85.523273 192.171497 85.0076 
Q 191.133426 84.125225 189.53581 84.125225 
Q 187.472329 84.125225 185.983584 86.142082 
Q 184.360649 88.674611 184.360649 93.090304 
Q 184.360649 97.494537 185.943074 100.095823 
Q 187.44701 102.578695 189.837104 102.578695 
z
M 189.57632 102.605434 
L 189.57632 102.605434 
z
" style="fill:none;opacity:0;"/>
   </g>
   <g id="patch_57">
    <path clip-path="url(#pf10c8917ee)" d="M 194.979351 84.125225 
L 194.979351 82.435811 
L 190.569383 82.435811 
L 190.569383 69.945881 
L 188.770617 69.945881 
L 188.770617 82.435811 
L 184.360649 82.435811 
L 184.360649 84.125225 
L 194.979351 84.125225 
z
" style="fill:none;opacity:0;"/>
   </g>
   <g id="patch_58">
    <path clip-path="url(#pf10c8917ee)" d="M 201.014685 81.581986 
Q 202.652811 81.581986 203.847858 80.979827 
Q 205.579664 80.115128 205.967041 77.947359 
L 204.409935 77.947359 
Q 204.123833 79.158901 203.23008 79.712886 
Q 202.336326 80.266872 200.974175 80.266872 
Q 199.361368 80.266872 198.257469 79.113137 
Q 197.153569 77.96181 197.153569 75.680835 
Q 197.153569 73.710574 198.062514 72.472536 
Q 198.97399 71.234499 201.029876 71.234499 
Q 202.604705 71.234499 203.637712 72.101607 
Q 204.670719 72.971123 204.693506 74.91489 
L 201.055195 74.91489 
L 201.055195 76.155336 
L 206.156932 76.155336 
L 206.156932 70.239734 
L 205.14418 70.239734 
L 204.764399 71.663236 
Q 203.966857 70.82744 203.349078 70.502275 
Q 202.311007 69.945881 200.713392 69.945881 
Q 198.64991 69.945881 197.161165 71.217639 
Q 195.53823 72.814562 195.53823 75.598942 
Q 195.53823 78.376095 197.120655 80.016374 
Q 198.624591 81.581986 201.014685 81.581986 
z
M 200.753902 81.598846 
L 200.753902 81.598846 
z
" style="fill:none;opacity:0;"/>
   </g>
   <g id="patch_59">
    <path clip-path="url(#pf10c8917ee)" d="M 206.156932 103.549883 
L 206.156932 100.934501 
L 201.746964 100.934501 
L 201.746964 81.598846 
L 199.948198 81.598846 
L 199.948198 100.934501 
L 195.53823 100.934501 
L 195.53823 103.549883 
L 206.156932 103.549883 
z
" style="fill:none;opacity:0;"/>
   </g>
   <g id="patch_60">
    <path clip-path="url(#pf10c8917ee)" d="M 212.192266 79.250961 
Q 213.830392 79.250961 215.025439 78.769431 
Q 216.757245 78.077954 217.144622 76.344447 
L 215.587517 76.344447 
Q 215.301414 77.313285 214.407661 77.756293 
Q 213.513907 78.1993 212.151756 78.1993 
Q 210.538949 78.1993 209.43505 77.276689 
Q 208.33115 76.356004 208.33115 74.53197 
Q 208.33115 72.956404 209.240095 71.966379 
Q 210.151572 70.976354 212.207458 70.976354 
Q 213.782287 70.976354 214.815293 71.669757 
Q 215.8483 72.365086 215.871087 73.919464 
L 212.232776 73.919464 
L 212.232776 74.911415 
L 217.334513 74.911415 
L 217.334513 70.180867 
L 216.321762 70.180867 
L 215.94198 71.319203 
Q 215.144438 70.65084 214.526659 70.390814 
Q 213.488589 69.945881 211.890973 69.945881 
Q 209.827491 69.945881 208.338746 70.962871 
Q 206.715811 72.239888 206.715811 74.466482 
Q 206.715811 76.687297 208.298236 77.998984 
Q 209.802172 79.250961 212.192266 79.250961 
z
M 211.931483 79.264444 
L 211.931483 79.264444 
z
" style="fill:none;opacity:0;"/>
   </g>
   <g id="patch_61">
    <path clip-path="url(#pf10c8917ee)" d="M 217.334513 103.714372 
L 217.334513 100.801257 
L 212.924545 100.801257 
L 212.924545 79.264444 
L 211.12578 79.264444 
L 211.12578 100.801257 
L 206.715811 100.801257 
L 206.715811 103.714372 
L 217.334513 103.714372 
z
" style="fill:none;opacity:0;"/>
   </g>
   <g id="patch_62">
    <path clip-path="url(#pf10c8917ee)" d="M 228.512094 89.578257 
L 228.512094 87.239134 
L 224.102126 87.239134 
L 224.102126 69.945881 
L 222.303361 69.945881 
L 222.303361 87.239134 
L 217.893392 87.239134 
L 217.893392 89.578257 
L 228.512094 89.578257 
z
" style="fill:none;opacity:0;"/>
   </g>
   <g id="patch_63">
    <path clip-path="url(#pf10c8917ee)" d="M 239.689676 99.077959 
L 239.689676 95.606984 
L 235.279707 95.606984 
L 235.279707 69.945881 
L 233.480942 69.945881 
L 233.480942 95.606984 
L 229.070973 95.606984 
L 229.070973 99.077959 
L 239.689676 99.077959 
z
" style="fill:none;opacity:0;"/>
   </g>
   <g id="patch_64">
    <path clip-path="url(#pf10c8917ee)" d="M 250.867257 95.088073 
L 250.867257 92.092477 
L 246.457288 92.092477 
L 246.457288 69.945881 
L 244.658523 69.945881 
L 244.658523 92.092477 
L 240.248555 92.092477 
L 240.248555 95.088073 
L 250.867257 95.088073 
z
" style="fill:none;opacity:0;"/>
   </g>
   <g id="patch_65">
    <path clip-path="url(#pf10c8917ee)" d="M 258.553651 72.024619 
L 256.74715 74.265811 
L 254.826609 72.024619 
L 258.553651 72.024619 
z
M 255.904807 75.019506 
L 257.726859 75.019506 
L 262.044838 69.945881 
L 260.277214 69.945881 
L 259.072016 71.465426 
L 254.365264 71.465426 
L 253.077127 69.945881 
L 251.426136 69.945881 
L 255.904807 75.019506 
z
M 256.739374 75.019506 
L 256.739374 75.019506 
z
" style="fill:none;opacity:0;"/>
   </g>
   <g id="patch_66">
    <path clip-path="url(#pf10c8917ee)" d="M 262.044838 86.580081 
L 262.044838 85.202683 
L 257.634869 85.202683 
L 257.634869 75.019506 
L 255.836104 75.019506 
L 255.836104 85.202683 
L 251.426136 85.202683 
L 251.426136 86.580081 
L 262.044838 86.580081 
z
" style="fill:none;opacity:0;"/>
   </g>
   <g id="patch_67">
    <path clip-path="url(#pf10c8917ee)" d="M 268.18688 74.177201 
Q 270.460826 74.177201 271.715147 73.774635 
Q 272.969468 73.372944 273.107678 72.86186 
L 271.52739 72.86186 
Q 271.258793 73.249548 270.455611 73.476211 
Q 269.652428 73.703748 268.202527 73.703748 
Q 266.434481 73.703748 265.347055 73.286305 
Q 264.259629 72.869736 264.259629 72.008595 
Q 264.259629 71.302353 265.240138 70.863031 
Q 266.223255 70.424584 268.171234 70.424584 
Q 269.962749 70.424584 270.901534 70.88666 
Q 271.397003 71.12995 271.642131 71.527265 
L 273.222419 71.527265 
Q 273.011192 70.892786 271.822065 70.463091 
Q 270.395633 69.945881 267.975654 69.945881 
Q 265.889465 69.945881 264.470856 70.370325 
Q 262.603717 70.930417 262.603717 72.10136 
Q 262.603717 72.989631 264.006679 73.558474 
Q 265.521774 74.177201 268.18688 74.177201 
z
M 267.860913 74.177201 
L 267.860913 74.177201 
z
" style="fill:none;opacity:0;"/>
   </g>
   <g id="patch_68">
    <path clip-path="url(#pf10c8917ee)" d="M 273.222419 92.605566 
L 273.222419 90.409897 
L 268.812451 90.409897 
L 268.812451 74.177201 
L 267.013685 74.177201 
L 267.013685 90.409897 
L 262.603717 90.409897 
L 262.603717 92.605566 
L 273.222419 92.605566 
z
" style="fill:none;opacity:0;"/>
   </g>
   <g id="patch_69">
    <path clip-path="url(#pf10c8917ee)" d="M 279.364461 80.250454 
Q 281.638407 80.250454 282.892728 79.270081 
Q 284.14705 78.291839 284.28526 77.047192 
L 282.704971 77.047192 
Q 282.436375 77.991334 281.633192 78.543326 
Q 280.830009 79.09745 279.380108 79.09745 
Q 277.612063 79.09745 276.524636 78.080846 
Q 275.43721 77.066373 275.43721 74.969227 
Q 275.43721 73.249312 276.417719 72.179426 
Q 277.400836 71.111672 279.348815 71.111672 
Q 281.14033 71.111672 282.079115 72.23697 
Q 282.574585 72.829456 282.819712 73.797042 
L 284.4 73.797042 
Q 284.188773 72.251889 282.999646 71.205447 
Q 281.573214 69.945881 279.153235 69.945881 
Q 277.067046 69.945881 275.648437 70.979535 
Q 273.781298 72.343532 273.781298 75.195139 
Q 273.781298 77.358354 275.18426 78.743664 
Q 276.699355 80.250454 279.364461 80.250454 
z
M 279.038494 80.250454 
L 279.038494 80.250454 
z
" style="fill:none;opacity:0;"/>
   </g>
   <g id="patch_70">
    <path clip-path="url(#pf10c8917ee)" d="M 284.4 141.64 
L 284.4 134.325672 
L 279.990032 134.325672 
L 279.990032 80.250454 
L 278.191266 80.250454 
L 278.191266 134.325672 
L 273.781298 134.325672 
L 273.781298 141.64 
L 284.4 141.64 
z
" style="fill:none;opacity:0;"/>
   </g>
   <g id="matplotlib.axis_1">
    <g id="xtick_1">
     <g id="line2d_2">
      <path clip-path="url(#pf10c8917ee)" d="M 100.249351 141.64 
L 100.249351 28.8 
" style="fill:none;stroke:#cccccc;stroke-linecap:round;stroke-width:0.8;"/>
     </g>
     <g id="text_1">
      <!-- 0 -->
      <g style="fill:#262626;" transform="translate(94.688414 162.986875)scale(0.2 -0.2)">
       <defs>
        <path d="M 1731 4475 
Q 2600 4475 2988 3759 
Q 3288 3206 3288 2244 
Q 3288 1331 3016 734 
Q 2622 -122 1728 -122 
Q 922 -122 528 578 
Q 200 1163 200 2147 
Q 200 2909 397 3456 
Q 766 4475 1731 4475 
z
M 1725 391 
Q 2163 391 2422 778 
Q 2681 1166 2681 2222 
Q 2681 2984 2493 3476 
Q 2306 3969 1766 3969 
Q 1269 3969 1039 3501 
Q 809 3034 809 2125 
Q 809 1441 956 1025 
Q 1181 391 1725 391 
z
" id="Helvetica-30" transform="scale(0.015625)"/>
       </defs>
       <use xlink:href="#Helvetica-30"/>
      </g>
     </g>
    </g>
    <g id="xtick_2">
     <g id="line2d_3">
      <path clip-path="url(#pf10c8917ee)" d="M 212.025162 141.64 
L 212.025162 28.8 
" style="fill:none;stroke:#cccccc;stroke-linecap:round;stroke-width:0.8;"/>
     </g>
     <g id="text_2">
      <!-- 10 -->
      <g style="fill:#262626;" transform="translate(200.903287 162.986875)scale(0.2 -0.2)">
       <defs>
        <path d="M 613 3169 
L 613 3600 
Q 1222 3659 1462 3798 
Q 1703 3938 1822 4456 
L 2266 4456 
L 2266 0 
L 1666 0 
L 1666 3169 
L 613 3169 
z
" id="Helvetica-31" transform="scale(0.015625)"/>
       </defs>
       <use xlink:href="#Helvetica-31"/>
       <use x="55.615234" xlink:href="#Helvetica-30"/>
      </g>
     </g>
    </g>
    <g id="text_3">
     <!-- Position -->
     <g style="fill:#262626;" transform="translate(145.20125 189.089219)scale(0.25 -0.25)">
      <defs>
       <path d="M 547 4591 
L 2613 4591 
Q 3225 4591 3600 4245 
Q 3975 3900 3975 3275 
Q 3975 2738 3640 2339 
Q 3306 1941 2613 1941 
L 1169 1941 
L 1169 0 
L 547 0 
L 547 4591 
z
M 3347 3272 
Q 3347 3778 2972 3959 
Q 2766 4056 2406 4056 
L 1169 4056 
L 1169 2466 
L 2406 2466 
Q 2825 2466 3086 2644 
Q 3347 2822 3347 3272 
z
" id="Helvetica-50" transform="scale(0.015625)"/>
       <path d="M 1741 363 
Q 2300 363 2508 786 
Q 2716 1209 2716 1728 
Q 2716 2197 2566 2491 
Q 2328 2953 1747 2953 
Q 1231 2953 997 2559 
Q 763 2166 763 1609 
Q 763 1075 997 719 
Q 1231 363 1741 363 
z
M 1763 3444 
Q 2409 3444 2856 3012 
Q 3303 2581 3303 1744 
Q 3303 934 2909 406 
Q 2516 -122 1688 -122 
Q 997 -122 590 345 
Q 184 813 184 1600 
Q 184 2444 612 2944 
Q 1041 3444 1763 3444 
z
M 1744 3428 
L 1744 3428 
z
" id="Helvetica-6f" transform="scale(0.015625)"/>
       <path d="M 747 1050 
Q 772 769 888 619 
Q 1100 347 1625 347 
Q 1938 347 2175 483 
Q 2413 619 2413 903 
Q 2413 1119 2222 1231 
Q 2100 1300 1741 1391 
L 1294 1503 
Q 866 1609 663 1741 
Q 300 1969 300 2372 
Q 300 2847 642 3140 
Q 984 3434 1563 3434 
Q 2319 3434 2653 2991 
Q 2863 2709 2856 2384 
L 2325 2384 
Q 2309 2575 2191 2731 
Q 1997 2953 1519 2953 
Q 1200 2953 1036 2831 
Q 872 2709 872 2509 
Q 872 2291 1088 2159 
Q 1213 2081 1456 2022 
L 1828 1931 
Q 2434 1784 2641 1647 
Q 2969 1431 2969 969 
Q 2969 522 2630 197 
Q 2291 -128 1597 -128 
Q 850 -128 539 211 
Q 228 550 206 1050 
L 747 1050 
z
M 1578 3428 
L 1578 3428 
z
" id="Helvetica-73" transform="scale(0.015625)"/>
       <path d="M 413 3331 
L 984 3331 
L 984 0 
L 413 0 
L 413 3331 
z
M 413 4591 
L 984 4591 
L 984 3953 
L 413 3953 
L 413 4591 
z
" id="Helvetica-69" transform="scale(0.015625)"/>
       <path d="M 525 4281 
L 1094 4281 
L 1094 3347 
L 1628 3347 
L 1628 2888 
L 1094 2888 
L 1094 703 
Q 1094 528 1213 469 
Q 1278 434 1431 434 
Q 1472 434 1519 436 
Q 1566 438 1628 444 
L 1628 0 
Q 1531 -28 1426 -40 
Q 1322 -53 1200 -53 
Q 806 -53 665 148 
Q 525 350 525 672 
L 525 2888 
L 72 2888 
L 72 3347 
L 525 3347 
L 525 4281 
z
" id="Helvetica-74" transform="scale(0.015625)"/>
       <path d="M 413 3347 
L 947 3347 
L 947 2872 
Q 1184 3166 1450 3294 
Q 1716 3422 2041 3422 
Q 2753 3422 3003 2925 
Q 3141 2653 3141 2147 
L 3141 0 
L 2569 0 
L 2569 2109 
Q 2569 2416 2478 2603 
Q 2328 2916 1934 2916 
Q 1734 2916 1606 2875 
Q 1375 2806 1200 2600 
Q 1059 2434 1017 2257 
Q 975 2081 975 1753 
L 975 0 
L 413 0 
L 413 3347 
z
M 1734 3428 
L 1734 3428 
z
" id="Helvetica-6e" transform="scale(0.015625)"/>
      </defs>
      <use xlink:href="#Helvetica-50"/>
      <use x="66.699219" xlink:href="#Helvetica-6f"/>
      <use x="122.314453" xlink:href="#Helvetica-73"/>
      <use x="172.314453" xlink:href="#Helvetica-69"/>
      <use x="194.53125" xlink:href="#Helvetica-74"/>
      <use x="222.314453" xlink:href="#Helvetica-69"/>
      <use x="244.53125" xlink:href="#Helvetica-6f"/>
      <use x="300.146484" xlink:href="#Helvetica-6e"/>
     </g>
    </g>
   </g>
   <g id="matplotlib.axis_2">
    <g id="ytick_1">
     <g id="line2d_4">
      <path clip-path="url(#pf10c8917ee)" d="M 94.94 69.945881 
L 284.4 69.945881 
" style="fill:none;stroke:#cccccc;stroke-linecap:round;stroke-width:0.8;"/>
     </g>
     <g id="text_4">
      <!-- 0 -->
      <g style="fill:#262626;" transform="translate(76.818125 77.119318)scale(0.2 -0.2)">
       <use xlink:href="#Helvetica-30"/>
      </g>
     </g>
    </g>
    <g id="ytick_2">
     <g id="line2d_5">
      <path clip-path="url(#pf10c8917ee)" d="M 94.94 59.65941 
L 284.4 59.65941 
" style="fill:none;stroke:#cccccc;stroke-linecap:round;stroke-width:0.8;"/>
     </g>
     <g id="text_5">
      <!-- 0.25 -->
      <g style="fill:#262626;" transform="translate(49.018125 66.832848)scale(0.2 -0.2)">
       <defs>
        <path d="M 547 681 
L 1200 681 
L 1200 0 
L 547 0 
L 547 681 
z
" id="Helvetica-2e" transform="scale(0.015625)"/>
        <path d="M 200 0 
Q 231 578 439 1006 
Q 647 1434 1250 1784 
L 1850 2131 
Q 2253 2366 2416 2531 
Q 2672 2791 2672 3125 
Q 2672 3516 2437 3745 
Q 2203 3975 1813 3975 
Q 1234 3975 1013 3538 
Q 894 3303 881 2888 
L 309 2888 
Q 319 3472 525 3841 
Q 891 4491 1816 4491 
Q 2584 4491 2939 4075 
Q 3294 3659 3294 3150 
Q 3294 2613 2916 2231 
Q 2697 2009 2131 1694 
L 1703 1456 
Q 1397 1288 1222 1134 
Q 909 863 828 531 
L 3272 531 
L 3272 0 
L 200 0 
z
" id="Helvetica-32" transform="scale(0.015625)"/>
        <path d="M 791 1141 
Q 847 659 1238 475 
Q 1438 381 1700 381 
Q 2200 381 2440 700 
Q 2681 1019 2681 1406 
Q 2681 1875 2395 2131 
Q 2109 2388 1709 2388 
Q 1419 2388 1211 2275 
Q 1003 2163 856 1963 
L 369 1991 
L 709 4400 
L 3034 4400 
L 3034 3856 
L 1131 3856 
L 941 2613 
Q 1097 2731 1238 2791 
Q 1488 2894 1816 2894 
Q 2431 2894 2859 2497 
Q 3288 2100 3288 1491 
Q 3288 856 2895 371 
Q 2503 -113 1644 -113 
Q 1097 -113 676 195 
Q 256 503 206 1141 
L 791 1141 
z
" id="Helvetica-35" transform="scale(0.015625)"/>
       </defs>
       <use xlink:href="#Helvetica-30"/>
       <use x="55.615234" xlink:href="#Helvetica-2e"/>
       <use x="83.398438" xlink:href="#Helvetica-32"/>
       <use x="139.013672" xlink:href="#Helvetica-35"/>
      </g>
     </g>
    </g>
    <g id="ytick_3">
     <g id="line2d_6">
      <path clip-path="url(#pf10c8917ee)" d="M 94.94 49.37294 
L 284.4 49.37294 
" style="fill:none;stroke:#cccccc;stroke-linecap:round;stroke-width:0.8;"/>
     </g>
     <g id="text_6">
      <!-- 0.50 -->
      <g style="fill:#262626;" transform="translate(49.018125 56.546378)scale(0.2 -0.2)">
       <use xlink:href="#Helvetica-30"/>
       <use x="55.615234" xlink:href="#Helvetica-2e"/>
       <use x="83.398438" xlink:href="#Helvetica-35"/>
       <use x="139.013672" xlink:href="#Helvetica-30"/>
      </g>
     </g>
    </g>
    <g id="ytick_4">
     <g id="line2d_7">
      <path clip-path="url(#pf10c8917ee)" d="M 94.94 39.08647 
L 284.4 39.08647 
" style="fill:none;stroke:#cccccc;stroke-linecap:round;stroke-width:0.8;"/>
     </g>
     <g id="text_7">
      <!-- 0.75 -->
      <g style="fill:#262626;" transform="translate(49.018125 46.259908)scale(0.2 -0.2)">
       <defs>
        <path d="M 3347 4400 
L 3347 3909 
Q 3131 3700 2773 3181 
Q 2416 2663 2141 2063 
Q 1869 1478 1728 997 
Q 1638 688 1494 0 
L 872 0 
Q 1084 1281 1809 2550 
Q 2238 3294 2709 3834 
L 234 3834 
L 234 4400 
L 3347 4400 
z
" id="Helvetica-37" transform="scale(0.015625)"/>
       </defs>
       <use xlink:href="#Helvetica-30"/>
       <use x="55.615234" xlink:href="#Helvetica-2e"/>
       <use x="83.398438" xlink:href="#Helvetica-37"/>
       <use x="139.013672" xlink:href="#Helvetica-35"/>
      </g>
     </g>
    </g>
    <g id="ytick_5">
     <g id="line2d_8">
      <path clip-path="url(#pf10c8917ee)" d="M 94.94 28.8 
L 284.4 28.8 
" style="fill:none;stroke:#cccccc;stroke-linecap:round;stroke-width:0.8;"/>
     </g>
     <g id="text_8">
      <!-- 1.0 -->
      <g style="fill:#262626;" transform="translate(60.14 35.973438)scale(0.2 -0.2)">
       <use xlink:href="#Helvetica-31"/>
       <use x="55.615234" xlink:href="#Helvetica-2e"/>
       <use x="83.398438" xlink:href="#Helvetica-30"/>
      </g>
     </g>
    </g>
    <g id="text_9">
     <!-- Probability -->
     <g style="fill:#262626;" transform="translate(39.65875 143.579375)rotate(-90)scale(0.25 -0.25)">
      <defs>
       <path d="M 428 3347 
L 963 3347 
L 963 2769 
Q 1028 2938 1284 3180 
Q 1541 3422 1875 3422 
Q 1891 3422 1928 3419 
Q 1966 3416 2056 3406 
L 2056 2813 
Q 2006 2822 1964 2825 
Q 1922 2828 1872 2828 
Q 1447 2828 1219 2554 
Q 991 2281 991 1925 
L 991 0 
L 428 0 
L 428 3347 
z
" id="Helvetica-72" transform="scale(0.015625)"/>
       <path d="M 369 4606 
L 916 4606 
L 916 2941 
Q 1100 3181 1356 3307 
Q 1613 3434 1913 3434 
Q 2538 3434 2927 3004 
Q 3316 2575 3316 1738 
Q 3316 944 2931 419 
Q 2547 -106 1866 -106 
Q 1484 -106 1222 78 
Q 1066 188 888 428 
L 888 0 
L 369 0 
L 369 4606 
z
M 1831 391 
Q 2288 391 2514 753 
Q 2741 1116 2741 1709 
Q 2741 2238 2514 2584 
Q 2288 2931 1847 2931 
Q 1463 2931 1173 2647 
Q 884 2363 884 1709 
Q 884 1238 1003 944 
Q 1225 391 1831 391 
z
" id="Helvetica-62" transform="scale(0.015625)"/>
       <path d="M 844 891 
Q 844 647 1022 506 
Q 1200 366 1444 366 
Q 1741 366 2019 503 
Q 2488 731 2488 1250 
L 2488 1703 
Q 2384 1638 2221 1594 
Q 2059 1550 1903 1531 
L 1563 1488 
Q 1256 1447 1103 1359 
Q 844 1213 844 891 
z
M 2206 2028 
Q 2400 2053 2466 2191 
Q 2503 2266 2503 2406 
Q 2503 2694 2298 2823 
Q 2094 2953 1713 2953 
Q 1272 2953 1088 2716 
Q 984 2584 953 2325 
L 428 2325 
Q 444 2944 830 3186 
Q 1216 3428 1725 3428 
Q 2316 3428 2684 3203 
Q 3050 2978 3050 2503 
L 3050 575 
Q 3050 488 3086 434 
Q 3122 381 3238 381 
Q 3275 381 3322 386 
Q 3369 391 3422 400 
L 3422 -16 
Q 3291 -53 3222 -62 
Q 3153 -72 3034 -72 
Q 2744 -72 2613 134 
Q 2544 244 2516 444 
Q 2344 219 2022 53 
Q 1700 -113 1313 -113 
Q 847 -113 551 170 
Q 256 453 256 878 
Q 256 1344 547 1600 
Q 838 1856 1309 1916 
L 2206 2028 
z
M 1741 3428 
L 1741 3428 
z
" id="Helvetica-61" transform="scale(0.015625)"/>
       <path d="M 428 4591 
L 991 4591 
L 991 0 
L 428 0 
L 428 4591 
z
" id="Helvetica-6c" transform="scale(0.015625)"/>
       <path d="M 2503 3347 
L 3125 3347 
Q 3006 3025 2597 1878 
Q 2291 1016 2084 472 
Q 1597 -809 1397 -1090 
Q 1197 -1372 709 -1372 
Q 591 -1372 527 -1362 
Q 463 -1353 369 -1328 
L 369 -816 
Q 516 -856 581 -865 
Q 647 -875 697 -875 
Q 853 -875 926 -823 
Q 1000 -772 1050 -697 
Q 1066 -672 1162 -440 
Q 1259 -209 1303 -97 
L 66 3347 
L 703 3347 
L 1600 622 
L 2503 3347 
z
M 1597 3428 
L 1597 3428 
z
" id="Helvetica-79" transform="scale(0.015625)"/>
      </defs>
      <use xlink:href="#Helvetica-50"/>
      <use x="66.699219" xlink:href="#Helvetica-72"/>
      <use x="100" xlink:href="#Helvetica-6f"/>
      <use x="155.615234" xlink:href="#Helvetica-62"/>
      <use x="211.230469" xlink:href="#Helvetica-61"/>
      <use x="266.845703" xlink:href="#Helvetica-62"/>
      <use x="322.460938" xlink:href="#Helvetica-69"/>
      <use x="344.677734" xlink:href="#Helvetica-6c"/>
      <use x="366.894531" xlink:href="#Helvetica-69"/>
      <use x="389.111328" xlink:href="#Helvetica-74"/>
      <use x="416.894531" xlink:href="#Helvetica-79"/>
     </g>
    </g>
   </g>
   <g id="patch_71">
    <path d="M 94.94 141.64 
L 94.94 28.8 
" style="fill:none;stroke:#000000;stroke-linecap:square;stroke-linejoin:miter;"/>
   </g>
  </g>
 </g>
 <defs>
  <clipPath id="pf10c8917ee">
   <rect height="112.84" width="189.46" x="94.94" y="28.8"/>
  </clipPath>
 </defs>
</svg>
