<?xml version="1.0" encoding="utf-8" standalone="no"?>
<!DOCTYPE svg PUBLIC "-//W3C//DTD SVG 1.1//EN"
  "http://www.w3.org/Graphics/SVG/1.1/DTD/svg11.dtd">
<svg height="216pt" version="1.1" viewBox="0 0 306 216" width="306pt" xmlns="http://www.w3.org/2000/svg" xmlns:xlink="http://www.w3.org/1999/xlink">
 <metadata>
  <rdf:RDF xmlns:cc="http://creativecommons.org/ns#" xmlns:dc="http://purl.org/dc/elements/1.1/" xmlns:rdf="http://www.w3.org/1999/02/22-rdf-syntax-ns#">
   <cc:Work>
    <dc:type rdf:resource="http://purl.org/dc/dcmitype/StillImage"/>
    <dc:date>2021-12-20T23:33:48.141579</dc:date>
    <dc:format>image/svg+xml</dc:format>
    <dc:creator>
     <cc:Agent>
      <dc:title>Matplotlib v3.4.2, https://matplotlib.org/</dc:title>
     </cc:Agent>
    </dc:creator>
   </cc:Work>
  </rdf:RDF>
 </metadata>
 <defs>
  <style type="text/css">*{stroke-linecap:butt;stroke-linejoin:round;}</style>
 </defs>
 <g id="figure_1">
  <g id="patch_1">
   <path d="M 0 216 
L 306 216 
L 306 0 
L 0 0 
z
" style="fill:#ffffff;"/>
  </g>
  <g id="axes_1">
   <g id="patch_2">
    <path d="M 94.94 141.64 
L 284.4 141.64 
L 284.4 21.6 
L 94.94 21.6 
z
" style="fill:#ffffff;"/>
   </g>
   <g id="line2d_1">
    <path clip-path="url(#p1d9ab05dae)" d="M 94.94 49.12701 
L 284.4 49.12701 
" style="fill:none;stroke:#000000;stroke-linecap:round;stroke-width:0.5;"/>
   </g>
   <g id="patch_3">
    <path clip-path="url(#p1d9ab05dae)" d="M 100.523163 46.147812 
Q 102.797109 46.147812 104.051431 46.431252 
Q 105.305752 46.714076 105.443962 47.073921 
L 103.863673 47.073921 
Q 103.595077 46.800956 102.791894 46.641367 
Q 101.988711 46.481162 100.53881 46.481162 
Q 98.770765 46.481162 97.683339 46.775077 
Q 96.595913 47.068375 96.595913 47.67469 
Q 96.595913 48.171942 97.576421 48.481261 
Q 98.559538 48.789963 100.507517 48.789963 
Q 102.299032 48.789963 103.237817 48.464624 
Q 103.733287 48.293328 103.978414 48.013585 
L 105.558702 48.013585 
Q 105.347475 48.460311 104.158348 48.762852 
Q 102.731916 49.12701 100.311937 49.12701 
Q 98.225748 49.12701 96.807139 48.828166 
Q 94.94 48.433815 94.94 47.609375 
Q 94.94 46.983959 96.342962 46.583447 
Q 97.858057 46.147812 100.523163 46.147812 
z
M 100.197196 46.147812 
L 100.197196 46.147812 
z
" style="fill:#0000ff;"/>
   </g>
   <g id="patch_4">
    <path clip-path="url(#p1d9ab05dae)" d="M 102.067515 41.260282 
L 100.261014 35.990792 
L 98.340473 41.260282 
L 102.067515 41.260282 
z
M 99.418672 34.218705 
L 101.240724 34.218705 
L 105.558702 46.147812 
L 103.791078 46.147812 
L 102.58588 42.575056 
L 97.879128 42.575056 
L 96.590992 46.147812 
L 94.94 46.147812 
L 99.418672 34.218705 
z
M 100.253239 34.218705 
L 100.253239 34.218705 
z
" style="fill:#008000;"/>
   </g>
   <g id="patch_5">
    <path clip-path="url(#p1d9ab05dae)" d="M 113.245097 46.968483 
L 111.438595 44.641268 
L 109.518054 46.968483 
L 113.245097 46.968483 
z
M 110.596253 43.858644 
L 112.418305 43.858644 
L 116.736283 49.12701 
L 114.968659 49.12701 
L 113.763461 47.54914 
L 109.056709 47.54914 
L 107.768573 49.12701 
L 106.117581 49.12701 
L 110.596253 43.858644 
z
M 111.43082 43.858644 
L 111.43082 43.858644 
z
" style="fill:#008000;"/>
   </g>
   <g id="patch_6">
    <path clip-path="url(#p1d9ab05dae)" d="M 116.736283 37.887767 
L 116.736283 38.599174 
L 112.326315 38.599174 
L 112.326315 43.858644 
L 110.527549 43.858644 
L 110.527549 38.599174 
L 106.117581 38.599174 
L 106.117581 37.887767 
L 116.736283 37.887767 
z
" style="fill:#ff0000;"/>
   </g>
   <g id="patch_7">
    <path clip-path="url(#p1d9ab05dae)" d="M 124.422678 44.762529 
L 122.616176 40.056964 
L 120.695635 44.762529 
L 124.422678 44.762529 
z
M 121.773834 38.47452 
L 123.595886 38.47452 
L 127.913864 49.12701 
L 126.14624 49.12701 
L 124.941042 45.9366 
L 120.23429 45.9366 
L 118.946154 49.12701 
L 117.295162 49.12701 
L 121.773834 38.47452 
z
M 122.608401 38.47452 
L 122.608401 38.47452 
z
" style="fill:#008000;"/>
   </g>
   <g id="patch_8">
    <path clip-path="url(#p1d9ab05dae)" d="M 133.949198 40.682318 
Q 135.587324 40.682318 136.782371 41.119323 
Q 138.514177 41.746863 138.901554 43.320082 
L 137.344449 43.320082 
Q 137.058346 42.440827 136.164593 42.038782 
Q 135.270839 41.636737 133.908688 41.636737 
Q 132.295881 41.636737 131.191982 42.47404 
Q 130.088082 43.309594 130.088082 44.964971 
Q 130.088082 46.394852 130.997027 47.293336 
Q 131.908504 48.191819 133.96439 48.191819 
Q 135.539219 48.191819 136.572225 47.562531 
Q 137.605232 46.931495 137.628019 45.520842 
L 133.989709 45.520842 
L 133.989709 44.62061 
L 139.091445 44.62061 
L 139.091445 48.913752 
L 138.078694 48.913752 
L 137.698912 47.880671 
Q 136.90137 48.487234 136.283591 48.723217 
Q 135.245521 49.12701 133.647905 49.12701 
Q 131.584423 49.12701 130.095678 48.204055 
Q 128.472743 47.045116 128.472743 45.024403 
Q 128.472743 43.008934 130.055168 41.818532 
Q 131.559104 40.682318 133.949198 40.682318 
z
M 133.688415 40.670081 
L 133.688415 40.670081 
z
" style="fill:#ffa600;"/>
   </g>
   <g id="patch_9">
    <path clip-path="url(#p1d9ab05dae)" d="M 135.600259 33.535418 
L 133.793758 25.843181 
L 131.873216 33.535418 
L 135.600259 33.535418 
z
M 132.951415 23.256344 
L 134.773467 23.256344 
L 139.091445 40.670081 
L 137.323822 40.670081 
L 136.118624 35.454684 
L 131.411872 35.454684 
L 130.123735 40.670081 
L 128.472743 40.670081 
L 132.951415 23.256344 
z
M 133.785982 23.256344 
L 133.785982 23.256344 
z
" style="fill:#008000;"/>
   </g>
   <g id="patch_10">
    <path clip-path="url(#p1d9ab05dae)" d="M 145.12678 21.639828 
Q 146.764906 21.639828 147.959953 23.062266 
Q 149.691758 25.104886 150.079136 30.225661 
L 148.52203 30.225661 
Q 148.235927 27.363717 147.342174 26.055074 
Q 146.448421 24.746432 145.086269 24.746432 
Q 143.473462 24.746432 142.369563 27.471822 
Q 141.265664 30.191522 141.265664 35.579716 
Q 141.265664 40.233931 142.174608 43.158463 
Q 143.086085 46.082994 145.141971 46.082994 
Q 146.7168 46.082994 147.749807 44.034684 
Q 148.782813 41.980684 148.8056 37.389056 
L 145.16729 37.389056 
L 145.16729 34.458835 
L 150.269027 34.458835 
L 150.269027 48.432861 
L 149.256275 48.432861 
L 148.876493 45.070219 
Q 148.078951 47.044562 147.461172 47.812678 
Q 146.423102 49.12701 144.825486 49.12701 
Q 142.762004 49.12701 141.273259 46.122822 
Q 139.650324 42.350518 139.650324 35.773167 
Q 139.650324 29.212885 141.232749 25.338166 
Q 142.736685 21.639828 145.12678 21.639828 
z
M 144.865996 21.6 
L 144.865996 21.6 
z
" style="fill:#ffa600;"/>
   </g>
   <g id="patch_11">
    <path clip-path="url(#p1d9ab05dae)" d="M 156.304361 45.660074 
Q 157.942487 45.660074 159.137534 45.839485 
Q 160.869339 46.097119 161.256717 46.742998 
L 159.699611 46.742998 
Q 159.413509 46.382024 158.519755 46.216966 
Q 157.626002 46.051908 156.263851 46.051908 
Q 154.651043 46.051908 153.547144 46.395659 
Q 152.443245 46.738693 152.443245 47.418301 
Q 152.443245 48.005333 153.352189 48.374202 
Q 154.263666 48.743071 156.319552 48.743071 
Q 157.894381 48.743071 158.927388 48.484719 
Q 159.960394 48.22565 159.983181 47.646512 
L 156.344871 47.646512 
L 156.344871 47.276925 
L 161.446608 47.276925 
L 161.446608 49.039458 
L 160.433856 49.039458 
L 160.054074 48.61533 
Q 159.256532 48.864353 158.638753 48.961235 
Q 157.600683 49.12701 156.003067 49.12701 
Q 153.939585 49.12701 152.45084 48.748094 
Q 150.827906 48.272297 150.827906 47.442701 
Q 150.827906 46.615258 152.41033 46.126543 
Q 153.914267 45.660074 156.304361 45.660074 
z
M 156.043577 45.655051 
L 156.043577 45.655051 
z
" style="fill:#ffa600;"/>
   </g>
   <g id="patch_12">
    <path clip-path="url(#p1d9ab05dae)" d="M 157.955421 41.668572 
L 156.14892 37.37055 
L 154.228378 41.668572 
L 157.955421 41.668572 
z
M 155.306577 35.92516 
L 157.128629 35.92516 
L 161.446608 45.655051 
L 159.678984 45.655051 
L 158.473786 42.740958 
L 153.767034 42.740958 
L 152.478897 45.655051 
L 150.827906 45.655051 
L 155.306577 35.92516 
z
M 156.141144 35.92516 
L 156.141144 35.92516 
z
" style="fill:#008000;"/>
   </g>
   <g id="patch_13">
    <path clip-path="url(#p1d9ab05dae)" d="M 167.481942 22.7894 
Q 169.120068 22.7894 170.315115 24.152348 
Q 172.04692 26.109542 172.434298 31.016155 
L 170.877192 31.016155 
Q 170.59109 28.273903 169.697336 27.019991 
Q 168.803583 25.766079 167.441432 25.766079 
Q 165.828625 25.766079 164.724725 28.377487 
Q 163.620826 30.983444 163.620826 36.146292 
Q 163.620826 40.605858 164.52977 43.40808 
Q 165.441247 46.210301 167.497133 46.210301 
Q 169.071962 46.210301 170.104969 44.247656 
Q 171.137976 42.279559 171.160763 37.879962 
L 167.522452 37.879962 
L 167.522452 35.072289 
L 172.624189 35.072289 
L 172.624189 48.461892 
L 171.611437 48.461892 
L 171.231655 45.239882 
Q 170.434113 47.131654 169.816335 47.867646 
Q 168.778264 49.12701 167.180648 49.12701 
Q 165.117166 49.12701 163.628421 46.248464 
Q 162.005487 42.633925 162.005487 36.331653 
Q 162.005487 30.045736 163.587911 26.333065 
Q 165.091848 22.7894 167.481942 22.7894 
z
M 167.221158 22.751237 
L 167.221158 22.751237 
z
" style="fill:#ffa600;"/>
   </g>
   <g id="patch_14">
    <path clip-path="url(#p1d9ab05dae)" d="M 180.310583 47.201466 
L 178.504082 45.125441 
L 176.583541 47.201466 
L 180.310583 47.201466 
z
M 177.661739 44.42729 
L 179.483791 44.42729 
L 183.80177 49.12701 
L 182.034146 49.12701 
L 180.828948 47.719449 
L 176.122196 47.719449 
L 174.83406 49.12701 
L 173.183068 49.12701 
L 177.661739 44.42729 
z
M 178.496307 44.42729 
L 178.496307 44.42729 
z
" style="fill:#008000;"/>
   </g>
   <g id="patch_15">
    <path clip-path="url(#p1d9ab05dae)" d="M 178.659523 31.714179 
Q 180.297649 31.714179 181.492696 32.372071 
Q 183.224501 33.316804 183.611879 35.685217 
L 182.054773 35.685217 
Q 181.768671 34.361537 180.874917 33.756276 
Q 179.981164 33.151015 178.619013 33.151015 
Q 177.006206 33.151015 175.902306 34.411537 
Q 174.798407 35.669427 174.798407 38.161524 
Q 174.798407 40.314147 175.707352 41.666774 
Q 176.618828 43.019401 178.674714 43.019401 
Q 180.249543 43.019401 181.28255 42.072036 
Q 182.315557 41.122039 182.338344 38.998363 
L 178.700033 38.998363 
L 178.700033 37.643104 
L 183.80177 37.643104 
L 183.80177 44.106239 
L 182.789018 44.106239 
L 182.409236 42.550981 
Q 181.611694 43.464136 180.993916 43.819398 
Q 179.955845 44.42729 178.358229 44.42729 
Q 176.294748 44.42729 174.806003 43.037822 
Q 173.183068 41.293091 173.183068 38.250997 
Q 173.183068 35.216797 174.765492 33.424699 
Q 176.269429 31.714179 178.659523 31.714179 
z
M 178.398739 31.695758 
L 178.398739 31.695758 
z
" style="fill:#ffa600;"/>
   </g>
   <g id="patch_16">
    <path clip-path="url(#p1d9ab05dae)" d="M 191.488164 48.593909 
L 189.681663 48.019147 
L 187.761122 48.593909 
L 191.488164 48.593909 
z
M 188.83932 47.825859 
L 190.661373 47.825859 
L 194.979351 49.12701 
L 193.211727 49.12701 
L 192.006529 48.737317 
L 187.299777 48.737317 
L 186.011641 49.12701 
L 184.360649 49.12701 
L 188.83932 47.825859 
z
M 189.673888 47.825859 
L 189.673888 47.825859 
z
" style="fill:#008000;"/>
   </g>
   <g id="patch_17">
    <path clip-path="url(#p1d9ab05dae)" d="M 189.837104 24.684666 
Q 191.47523 24.684666 192.670277 25.882203 
Q 194.402083 27.601865 194.78946 31.912996 
L 193.232354 31.912996 
Q 192.946252 29.503552 192.052498 28.401819 
Q 191.158745 27.300086 189.796594 27.300086 
Q 188.183787 27.300086 187.079887 29.594565 
Q 185.975988 31.884255 185.975988 36.420523 
Q 185.975988 40.338861 186.884933 42.800996 
Q 187.796409 45.263131 189.852295 45.263131 
Q 191.427124 45.263131 192.460131 43.538679 
Q 193.493138 41.809436 193.515925 37.943789 
L 189.877614 37.943789 
L 189.877614 35.476864 
L 194.979351 35.476864 
L 194.979351 47.241461 
L 193.966599 47.241461 
L 193.586817 44.410485 
Q 192.789275 46.072666 192.171497 46.719335 
Q 191.133426 47.825859 189.53581 47.825859 
Q 187.472329 47.825859 185.983584 45.296662 
Q 184.360649 42.120796 184.360649 36.583387 
Q 184.360649 31.06035 185.943074 27.798261 
Q 187.44701 24.684666 189.837104 24.684666 
z
M 189.57632 24.651135 
L 189.57632 24.651135 
z
" style="fill:#ffa600;"/>
   </g>
   <g id="patch_18">
    <path clip-path="url(#p1d9ab05dae)" d="M 201.014685 27.753172 
Q 202.652811 27.753172 203.847858 28.859249 
Q 205.579664 30.447576 205.967041 34.429454 
L 204.409935 34.429454 
Q 204.123833 32.204027 203.23008 31.186436 
Q 202.336326 30.168845 200.974175 30.168845 
Q 199.361368 30.168845 198.257469 32.288089 
Q 197.153569 34.402909 197.153569 38.59273 
Q 197.153569 42.211815 198.062514 44.48591 
Q 198.97399 46.760005 201.029876 46.760005 
Q 202.604705 46.760005 203.637712 45.167253 
Q 204.670719 43.570078 204.693506 39.99966 
L 201.055195 39.99966 
L 201.055195 37.721141 
L 206.156932 37.721141 
L 206.156932 48.587245 
L 205.14418 48.587245 
L 204.764399 45.972478 
Q 203.966857 47.507713 203.349078 48.104995 
Q 202.311007 49.12701 200.713392 49.12701 
Q 198.64991 49.12701 197.161165 46.790975 
Q 195.53823 43.857658 195.53823 38.743156 
Q 195.53823 33.641927 197.120655 30.628973 
Q 198.624591 27.753172 201.014685 27.753172 
z
M 200.753902 27.722201 
L 200.753902 27.722201 
z
" style="fill:#ffa600;"/>
   </g>
   <g id="patch_19">
    <path clip-path="url(#p1d9ab05dae)" d="M 212.192266 41.044687 
Q 213.830392 41.044687 215.025439 41.462941 
Q 216.757245 42.063552 217.144622 43.569263 
L 215.587517 43.569263 
Q 215.301414 42.727738 214.407661 42.342945 
Q 213.513907 41.958152 212.151756 41.958152 
Q 210.538949 41.958152 209.43505 42.759525 
Q 208.33115 43.559225 208.33115 45.143568 
Q 208.33115 46.512092 209.240095 47.37202 
Q 210.151572 48.231949 212.207458 48.231949 
Q 213.782287 48.231949 214.815293 47.629664 
Q 215.8483 47.025707 215.871087 45.675586 
L 212.232776 45.675586 
L 212.232776 44.813984 
L 217.334513 44.813984 
L 217.334513 48.922903 
L 216.321762 48.922903 
L 215.94198 47.934152 
Q 215.144438 48.514688 214.526659 48.740544 
Q 213.488589 49.12701 211.890973 49.12701 
Q 209.827491 49.12701 208.338746 48.24366 
Q 206.715811 47.134453 206.715811 45.20045 
Q 206.715811 43.271467 208.298236 42.132145 
Q 209.802172 41.044687 212.192266 41.044687 
z
M 211.931483 41.032976 
L 211.931483 41.032976 
z
" style="fill:#ffa600;"/>
   </g>
   <g id="patch_20">
    <path clip-path="url(#p1d9ab05dae)" d="M 213.843327 37.530748 
L 212.036825 33.75482 
L 210.116284 37.530748 
L 213.843327 37.530748 
z
M 211.194483 32.485006 
L 213.016535 32.485006 
L 217.334513 41.032976 
L 215.566889 41.032976 
L 214.361691 38.472868 
L 209.654939 38.472868 
L 208.366803 41.032976 
L 206.715811 41.032976 
L 211.194483 32.485006 
z
M 212.02905 32.485006 
L 212.02905 32.485006 
z
" style="fill:#008000;"/>
   </g>
   <g id="patch_21">
    <path clip-path="url(#p1d9ab05dae)" d="M 225.020908 46.758353 
L 223.214407 44.204586 
L 221.293865 46.758353 
L 225.020908 46.758353 
z
M 222.372064 43.345775 
L 224.194116 43.345775 
L 228.512094 49.12701 
L 226.744471 49.12701 
L 225.539273 47.395536 
L 220.832521 47.395536 
L 219.544384 49.12701 
L 217.893392 49.12701 
L 222.372064 43.345775 
z
M 223.206631 43.345775 
L 223.206631 43.345775 
z
" style="fill:#008000;"/>
   </g>
   <g id="patch_22">
    <path clip-path="url(#p1d9ab05dae)" d="M 223.369847 24.668308 
Q 225.007973 24.668308 226.20302 25.634851 
Q 227.934826 27.022806 228.322203 30.502359 
L 226.765098 30.502359 
Q 226.478995 28.557675 225.585242 27.668456 
Q 224.691488 26.779237 223.329337 26.779237 
Q 221.71653 26.779237 220.612631 28.631132 
Q 219.508731 30.479162 219.508731 34.140425 
Q 219.508731 37.302952 220.417676 39.290163 
Q 221.329153 41.277374 223.385039 41.277374 
Q 224.959868 41.277374 225.992874 39.885553 
Q 227.025881 38.489866 227.048668 35.369867 
L 223.410357 35.369867 
L 223.410357 33.378789 
L 228.512094 33.378789 
L 228.512094 42.874102 
L 227.499343 42.874102 
L 227.119561 40.589196 
Q 226.322019 41.930757 225.70424 42.45269 
Q 224.66617 43.345775 223.068554 43.345775 
Q 221.005072 43.345775 219.516327 41.304437 
Q 217.893392 38.741167 217.893392 34.271874 
Q 217.893392 29.81418 219.475817 27.181319 
Q 220.979753 24.668308 223.369847 24.668308 
z
M 223.109064 24.641245 
L 223.109064 24.641245 
z
" style="fill:#ffa600;"/>
   </g>
   <g id="patch_23">
    <path clip-path="url(#p1d9ab05dae)" d="M 239.689676 45.835981 
L 239.689676 46.228095 
L 235.279707 46.228095 
L 235.279707 49.12701 
L 233.480942 49.12701 
L 233.480942 46.228095 
L 229.070973 46.228095 
L 229.070973 45.835981 
L 239.689676 45.835981 
z
" style="fill:#ff0000;"/>
   </g>
   <g id="patch_24">
    <path clip-path="url(#p1d9ab05dae)" d="M 236.198489 38.044374 
L 234.391988 29.643853 
L 232.471446 38.044374 
L 236.198489 38.044374 
z
M 233.549645 26.818826 
L 235.371697 26.818826 
L 239.689676 45.835981 
L 237.922052 45.835981 
L 236.716854 40.140362 
L 232.010102 40.140362 
L 230.721965 45.835981 
L 229.070973 45.835981 
L 233.549645 26.818826 
z
M 234.384212 26.818826 
L 234.384212 26.818826 
z
" style="fill:#008000;"/>
   </g>
   <g id="patch_25">
    <path clip-path="url(#p1d9ab05dae)" d="M 250.867257 28.090036 
L 250.867257 30.59651 
L 246.457288 30.59651 
L 246.457288 49.12701 
L 244.658523 49.12701 
L 244.658523 30.59651 
L 240.248555 30.59651 
L 240.248555 28.090036 
L 250.867257 28.090036 
z
" style="fill:#ff0000;"/>
   </g>
   <g id="patch_26">
    <path clip-path="url(#p1d9ab05dae)" d="M 262.044838 48.005697 
L 262.044838 48.139297 
L 257.634869 48.139297 
L 257.634869 49.12701 
L 255.836104 49.12701 
L 255.836104 48.139297 
L 251.426136 48.139297 
L 251.426136 48.005697 
L 262.044838 48.005697 
z
" style="fill:#ff0000;"/>
   </g>
   <g id="patch_27">
    <path clip-path="url(#p1d9ab05dae)" d="M 258.553651 43.609396 
L 256.74715 38.869523 
L 254.826609 43.609396 
L 258.553651 43.609396 
z
M 255.904807 37.275543 
L 257.726859 37.275543 
L 262.044838 48.005697 
L 260.277214 48.005697 
L 259.072016 44.792026 
L 254.365264 44.792026 
L 253.077127 48.005697 
L 251.426136 48.005697 
L 255.904807 37.275543 
z
M 256.739374 37.275543 
L 256.739374 37.275543 
z
" style="fill:#008000;"/>
   </g>
   <g id="patch_28">
    <path clip-path="url(#p1d9ab05dae)" d="M 273.222419 44.576165 
L 273.222419 45.118381 
L 268.812451 45.118381 
L 268.812451 49.12701 
L 267.013685 49.12701 
L 267.013685 45.118381 
L 262.603717 45.118381 
L 262.603717 44.576165 
L 273.222419 44.576165 
z
" style="fill:#ff0000;"/>
   </g>
   <g id="patch_29">
    <path clip-path="url(#p1d9ab05dae)" d="M 268.18688 25.957994 
Q 270.460826 25.957994 271.715147 27.72932 
Q 272.969468 29.496795 273.107678 31.745608 
L 271.52739 31.745608 
Q 271.258793 30.039744 270.455611 29.042411 
Q 269.652428 28.041227 268.202527 28.041227 
Q 266.434481 28.041227 265.347055 29.878015 
Q 264.259629 31.710951 264.259629 35.500048 
Q 264.259629 38.607569 265.240138 40.540624 
Q 266.223255 42.469828 268.171234 42.469828 
Q 269.962749 42.469828 270.901534 40.436655 
Q 271.397003 39.366158 271.642131 37.617937 
L 273.222419 37.617937 
Q 273.011192 40.4097 271.822065 42.300397 
Q 270.395633 44.576165 267.975654 44.576165 
Q 265.889465 44.576165 264.470856 42.708572 
Q 262.603717 40.244119 262.603717 35.091873 
Q 262.603717 31.183405 264.006679 28.680445 
Q 265.521774 25.957994 268.18688 25.957994 
z
M 267.860913 25.957994 
L 267.860913 25.957994 
z
" style="fill:#0000ff;"/>
   </g>
   <g id="patch_30">
    <path clip-path="url(#p1d9ab05dae)" d="M 279.364461 43.336259 
Q 281.638407 43.336259 282.892728 43.887189 
Q 284.14705 44.436921 284.28526 45.136362 
L 282.704971 45.136362 
Q 282.436375 44.605793 281.633192 44.295595 
Q 280.830009 43.9842 279.380108 43.9842 
Q 277.612063 43.9842 276.524636 44.55549 
Q 275.43721 45.125583 275.43721 46.304094 
Q 275.43721 47.270616 276.417719 47.871848 
Q 277.400836 48.471883 279.348815 48.471883 
Q 281.14033 48.471883 282.079115 47.839511 
Q 282.574585 47.506558 282.819712 46.962814 
L 284.4 46.962814 
Q 284.188773 47.831128 282.999646 48.419185 
Q 281.573214 49.12701 279.153235 49.12701 
Q 277.067046 49.12701 275.648437 48.546139 
Q 273.781298 47.779628 273.781298 46.17714 
Q 273.781298 44.961502 275.18426 44.183014 
Q 276.699355 43.336259 279.364461 43.336259 
z
M 279.038494 43.336259 
L 279.038494 43.336259 
z
" style="fill:#0000ff;"/>
   </g>
   <g id="patch_31">
    <path clip-path="url(#p1d9ab05dae)" d="M 284.4 23.441158 
L 284.4 25.811583 
L 279.990032 25.811583 
L 279.990032 43.336259 
L 278.191266 43.336259 
L 278.191266 25.811583 
L 273.781298 25.811583 
L 273.781298 23.441158 
L 284.4 23.441158 
z
" style="fill:#ff0000;"/>
   </g>
   <g id="patch_32">
    <path clip-path="url(#p1d9ab05dae)" d="M 100.416455 51.806227 
Q 102.054581 51.806227 103.249628 51.66758 
Q 104.981434 51.468483 105.368811 50.969353 
L 103.811705 50.969353 
Q 103.525603 51.248311 102.63185 51.375867 
Q 101.738096 51.503422 100.375945 51.503422 
Q 98.763138 51.503422 97.659238 51.237774 
Q 96.555339 50.972681 96.555339 50.447485 
Q 96.555339 49.993832 97.464284 49.708774 
Q 98.37576 49.423715 100.431646 49.423715 
Q 102.006475 49.423715 103.039482 49.623367 
Q 104.072489 49.823573 104.095276 50.271126 
L 100.456965 50.271126 
L 100.456965 50.556739 
L 105.558702 50.556739 
L 105.558702 49.19467 
L 104.54595 49.19467 
L 104.166168 49.522432 
Q 103.368626 49.32999 102.750848 49.25512 
Q 101.712777 49.12701 100.115161 49.12701 
Q 98.05168 49.12701 96.562935 49.419833 
Q 94.94 49.787525 94.94 50.428629 
Q 94.94 51.06807 96.522425 51.445745 
Q 98.026361 51.806227 100.416455 51.806227 
z
M 100.155671 51.810109 
L 100.155671 51.810109 
z
" style="fill:none;opacity:0;"/>
   </g>
   <g id="patch_33">
    <path clip-path="url(#p1d9ab05dae)" d="M 105.558702 77.140782 
L 105.558702 74.12273 
L 101.148734 74.12273 
L 101.148734 51.810109 
L 99.349968 51.810109 
L 99.349968 74.12273 
L 94.94 74.12273 
L 94.94 77.140782 
L 105.558702 77.140782 
z
" style="fill:none;opacity:0;"/>
   </g>
   <g id="patch_34">
    <path clip-path="url(#p1d9ab05dae)" d="M 111.700744 64.203761 
Q 113.97469 64.203761 115.229012 63.136366 
Q 116.483333 62.071291 116.621543 60.716164 
L 115.041255 60.716164 
Q 114.772658 61.744112 113.969475 62.345102 
Q 113.166292 62.948412 111.716391 62.948412 
Q 109.948346 62.948412 108.86092 61.84157 
Q 107.773494 60.737048 107.773494 58.45375 
Q 107.773494 56.581168 108.754002 55.416315 
Q 109.737119 54.253783 111.685098 54.253783 
Q 113.476613 54.253783 114.415398 55.478967 
Q 114.910868 56.124045 115.155995 57.177517 
L 116.736283 57.177517 
Q 116.525057 55.49521 115.335929 54.355881 
Q 113.909497 52.984511 111.489518 52.984511 
Q 109.403329 52.984511 107.98472 54.109917 
Q 106.117581 55.594988 106.117581 58.699715 
Q 106.117581 61.054946 107.520543 62.563221 
Q 109.035638 64.203761 111.700744 64.203761 
z
M 111.374777 64.203761 
L 111.374777 64.203761 
z
" style="fill:none;opacity:0;"/>
   </g>
   <g id="patch_35">
    <path clip-path="url(#p1d9ab05dae)" d="M 111.594036 52.97893 
Q 113.232162 52.97893 114.427209 52.779596 
Q 116.159015 52.493353 116.546392 51.775753 
L 114.989286 51.775753 
Q 114.703184 52.176812 113.809431 52.360199 
Q 112.915677 52.543585 111.553526 52.543585 
Q 109.940719 52.543585 108.83682 52.161662 
Q 107.73292 51.780537 107.73292 51.025462 
Q 107.73292 50.373243 108.641865 49.963413 
Q 109.553341 49.553584 111.609227 49.553584 
Q 113.184056 49.553584 114.217063 49.840624 
Q 115.25007 50.128461 115.272857 50.77191 
L 111.634546 50.77191 
L 111.634546 51.182537 
L 116.736283 51.182537 
L 116.736283 49.224285 
L 115.723531 49.224285 
L 115.34375 49.695509 
Q 114.546208 49.418834 113.928429 49.311194 
Q 112.890358 49.12701 111.292743 49.12701 
Q 109.229261 49.12701 107.740516 49.548002 
Q 106.117581 50.076635 106.117581 50.998353 
Q 106.117581 51.917678 107.700006 52.460663 
Q 109.203942 52.97893 111.594036 52.97893 
z
M 111.333253 52.984511 
L 111.333253 52.984511 
z
" style="fill:none;opacity:0;"/>
   </g>
   <g id="patch_36">
    <path clip-path="url(#p1d9ab05dae)" d="M 122.878326 64.407047 
Q 125.152272 64.407047 126.406593 63.579317 
Q 127.660914 62.753387 127.799124 61.702529 
L 126.218836 61.702529 
Q 125.950239 62.499669 125.147056 62.965717 
Q 124.343873 63.433565 122.893972 63.433565 
Q 121.125927 63.433565 120.038501 62.575245 
Q 118.951075 61.718724 118.951075 59.948102 
Q 118.951075 58.495976 119.931584 57.592671 
Q 120.9147 56.691165 122.862679 56.691165 
Q 124.654194 56.691165 125.592979 57.641255 
Q 126.088449 58.141491 126.333576 58.958425 
L 127.913864 58.958425 
Q 127.702638 57.653851 126.51351 56.770339 
Q 125.087078 55.706886 122.667099 55.706886 
Q 120.58091 55.706886 119.162301 56.579601 
Q 117.295162 57.731225 117.295162 60.13884 
Q 117.295162 61.965244 118.698124 63.134862 
Q 120.213219 64.407047 122.878326 64.407047 
z
M 122.552359 64.407047 
L 122.552359 64.407047 
z
" style="fill:none;opacity:0;"/>
   </g>
   <g id="patch_37">
    <path clip-path="url(#p1d9ab05dae)" d="M 122.771617 55.698472 
Q 124.409743 55.698472 125.60479 55.397967 
Q 127.336596 54.966442 127.723973 53.884626 
L 126.166868 53.884626 
Q 125.880765 54.489241 124.987012 54.765705 
Q 124.093258 55.04217 122.731107 55.04217 
Q 121.1183 55.04217 120.014401 54.466403 
Q 118.910501 53.891838 118.910501 52.753526 
Q 118.910501 51.770275 119.819446 51.152437 
Q 120.730923 50.534599 122.786809 50.534599 
Q 124.361638 50.534599 125.394644 50.967326 
Q 126.427651 51.401255 126.450438 52.371284 
L 122.812127 52.371284 
L 122.812127 52.990324 
L 127.913864 52.990324 
L 127.913864 50.038166 
L 126.901113 50.038166 
L 126.521331 50.748559 
Q 125.723789 50.331458 125.10601 50.169186 
Q 124.06794 49.891519 122.470324 49.891519 
Q 120.406842 49.891519 118.918097 50.526185 
Q 117.295162 51.323124 117.295162 52.712657 
Q 117.295162 54.098585 118.877587 54.91716 
Q 120.381523 55.698472 122.771617 55.698472 
z
M 122.510834 55.706886 
L 122.510834 55.706886 
z
" style="fill:none;opacity:0;"/>
   </g>
   <g id="patch_38">
    <path clip-path="url(#p1d9ab05dae)" d="M 127.913864 49.891519 
L 127.913864 49.800431 
L 123.503896 49.800431 
L 123.503896 49.12701 
L 121.705131 49.12701 
L 121.705131 49.800431 
L 117.295162 49.800431 
L 117.295162 49.891519 
L 127.913864 49.891519 
z
" style="fill:none;opacity:0;"/>
   </g>
   <g id="patch_39">
    <path clip-path="url(#p1d9ab05dae)" d="M 134.055907 113.585134 
Q 136.329853 113.585134 137.584174 109.642173 
Q 138.838495 105.707784 138.976705 100.701938 
L 137.396417 100.701938 
Q 137.12782 104.499181 136.324637 106.719239 
Q 135.521454 108.947869 134.071553 108.947869 
Q 132.303508 108.947869 131.216082 104.85919 
Q 130.128656 100.779082 130.128656 92.344574 
Q 130.128656 85.427249 131.109165 81.124278 
Q 132.092281 76.829879 134.04026 76.829879 
Q 135.831775 76.829879 136.77056 81.355713 
Q 137.26603 83.738633 137.511157 87.630164 
L 139.091445 87.630164 
Q 138.880219 81.415715 137.691091 77.207032 
Q 136.264659 72.141184 133.84468 72.141184 
Q 131.758491 72.141184 130.339883 76.298437 
Q 128.472743 81.784296 128.472743 93.25317 
Q 128.472743 101.953399 129.875705 107.524975 
Q 131.3908 113.585134 134.055907 113.585134 
z
M 133.72994 113.585134 
L 133.72994 113.585134 
z
" style="fill:none;opacity:0;"/>
   </g>
   <g id="patch_40">
    <path clip-path="url(#p1d9ab05dae)" d="M 139.091445 72.141184 
L 139.091445 69.399134 
L 134.681477 69.399134 
L 134.681477 49.12701 
L 132.882712 49.12701 
L 132.882712 69.399134 
L 128.472743 69.399134 
L 128.472743 72.141184 
L 139.091445 72.141184 
z
" style="fill:none;opacity:0;"/>
   </g>
   <g id="patch_41">
    <path clip-path="url(#p1d9ab05dae)" d="M 146.77784 54.851108 
L 144.971339 61.022543 
L 143.050797 54.851108 
L 146.77784 54.851108 
z
M 144.128996 63.097947 
L 145.951048 63.097947 
L 150.269027 49.12701 
L 148.501403 49.12701 
L 147.296205 53.311292 
L 142.589453 53.311292 
L 141.301316 49.12701 
L 139.650324 49.12701 
L 144.128996 63.097947 
z
M 144.963563 63.097947 
L 144.963563 63.097947 
z
" style="fill:none;opacity:0;"/>
   </g>
   <g id="patch_42">
    <path clip-path="url(#p1d9ab05dae)" d="M 145.233488 100.288456 
Q 147.507434 100.288456 148.761755 96.750166 
Q 150.016076 93.219567 150.154286 88.727477 
L 148.573998 88.727477 
Q 148.305401 92.135004 147.502218 94.127216 
Q 146.699036 96.127119 145.249134 96.127119 
Q 143.481089 96.127119 142.393663 92.458066 
Q 141.306237 88.796704 141.306237 81.22784 
Q 141.306237 75.020447 142.286746 71.159096 
Q 143.269862 67.305436 145.217841 67.305436 
Q 147.009356 67.305436 147.948141 71.366778 
Q 148.443611 73.505136 148.688738 76.997275 
L 150.269027 76.997275 
Q 150.0578 71.420621 148.868672 67.643881 
Q 147.44224 63.097947 145.022261 63.097947 
Q 142.936072 63.097947 141.517464 66.828536 
Q 139.650324 71.751375 139.650324 82.043185 
Q 139.650324 89.8505 141.053287 94.850258 
Q 142.568381 100.288456 145.233488 100.288456 
z
M 144.907521 100.288456 
L 144.907521 100.288456 
z
" style="fill:none;opacity:0;"/>
   </g>
   <g id="patch_43">
    <path clip-path="url(#p1d9ab05dae)" d="M 150.269027 141.64 
L 150.269027 136.713123 
L 145.859058 136.713123 
L 145.859058 100.288456 
L 144.060293 100.288456 
L 144.060293 136.713123 
L 139.650324 136.713123 
L 139.650324 141.64 
L 150.269027 141.64 
z
" style="fill:none;opacity:0;"/>
   </g>
   <g id="patch_44">
    <path clip-path="url(#p1d9ab05dae)" d="M 156.411069 54.34474 
Q 158.685015 54.34474 159.939336 53.848327 
Q 161.193657 53.352994 161.331867 52.722765 
L 159.751579 52.722765 
Q 159.482982 53.200832 158.679799 53.480334 
Q 157.876617 53.760915 156.426715 53.760915 
Q 154.65867 53.760915 153.571244 53.246157 
Q 152.483818 52.732478 152.483818 51.670586 
Q 152.483818 50.799705 153.464327 50.257968 
Q 154.447444 49.71731 156.395423 49.71731 
Q 158.186937 49.71731 159.125722 50.287105 
Q 159.621192 50.587111 159.866319 51.077049 
L 161.446608 51.077049 
Q 161.235381 50.294659 160.046253 49.764793 
Q 158.619822 49.12701 156.199842 49.12701 
Q 154.113653 49.12701 152.695045 49.650402 
Q 150.827906 50.341063 150.827906 51.784977 
Q 150.827906 52.880322 152.230868 53.581775 
Q 153.745962 54.34474 156.411069 54.34474 
z
M 156.085102 54.34474 
L 156.085102 54.34474 
z
" style="fill:none;opacity:0;"/>
   </g>
   <g id="patch_45">
    <path clip-path="url(#p1d9ab05dae)" d="M 161.446608 68.696552 
L 161.446608 66.986589 
L 157.036639 66.986589 
L 157.036639 54.34474 
L 155.237874 54.34474 
L 155.237874 66.986589 
L 150.827906 66.986589 
L 150.827906 68.696552 
L 161.446608 68.696552 
z
" style="fill:none;opacity:0;"/>
   </g>
   <g id="patch_46">
    <path clip-path="url(#p1d9ab05dae)" d="M 169.133002 52.182052 
L 167.326501 55.475844 
L 165.40596 52.182052 
L 169.133002 52.182052 
z
M 166.484158 56.58352 
L 168.30621 56.58352 
L 172.624189 49.12701 
L 170.856565 49.12701 
L 169.651367 51.360228 
L 164.944615 51.360228 
L 163.656478 49.12701 
L 162.005487 49.12701 
L 166.484158 56.58352 
z
M 167.318725 56.58352 
L 167.318725 56.58352 
z
" style="fill:none;opacity:0;"/>
   </g>
   <g id="patch_47">
    <path clip-path="url(#p1d9ab05dae)" d="M 167.58865 93.77403 
Q 169.862596 93.77403 171.116917 90.235739 
Q 172.371238 86.705141 172.509448 82.21305 
L 170.92916 82.21305 
Q 170.660563 85.620578 169.857381 87.612789 
Q 169.054198 89.612692 167.604296 89.612692 
Q 165.836251 89.612692 164.748825 85.943639 
Q 163.661399 82.282278 163.661399 74.713413 
Q 163.661399 68.506021 164.641908 64.644669 
Q 165.625025 60.791009 167.573004 60.791009 
Q 169.364518 60.791009 170.303304 64.852351 
Q 170.798773 66.990709 171.043901 70.482848 
L 172.624189 70.482848 
Q 172.412962 64.906195 171.223834 61.129454 
Q 169.797403 56.58352 167.377423 56.58352 
Q 165.291234 56.58352 163.872626 60.314109 
Q 162.005487 65.236948 162.005487 75.528758 
Q 162.005487 83.336073 163.408449 88.335831 
Q 164.923544 93.77403 167.58865 93.77403 
z
M 167.262683 93.77403 
L 167.262683 93.77403 
z
" style="fill:none;opacity:0;"/>
   </g>
   <g id="patch_48">
    <path clip-path="url(#p1d9ab05dae)" d="M 172.624189 140.12175 
L 172.624189 134.599597 
L 168.21422 134.599597 
L 168.21422 93.77403 
L 166.415455 93.77403 
L 166.415455 134.599597 
L 162.005487 134.599597 
L 162.005487 140.12175 
L 172.624189 140.12175 
z
" style="fill:none;opacity:0;"/>
   </g>
   <g id="patch_49">
    <path clip-path="url(#p1d9ab05dae)" d="M 178.766231 92.19786 
Q 181.040177 92.19786 182.294498 88.253297 
Q 183.548819 84.317309 183.68703 79.309429 
L 182.106741 79.309429 
Q 181.838145 83.108214 181.034962 85.329175 
Q 180.231779 87.558711 178.781878 87.558711 
Q 177.013832 87.558711 175.926406 83.46837 
Q 174.83898 79.386605 174.83898 70.94867 
Q 174.83898 64.028534 175.819489 59.723815 
Q 176.802606 55.427672 178.750585 55.427672 
Q 180.5421 55.427672 181.480885 59.955344 
Q 181.976355 62.339232 182.221482 66.232344 
L 183.80177 66.232344 
Q 183.590543 60.01537 182.401416 55.804978 
Q 180.974984 50.737072 178.555005 50.737072 
Q 176.468816 50.737072 175.050207 54.896013 
Q 173.183068 60.384101 173.183068 71.857634 
Q 173.183068 80.561399 174.58603 86.135238 
Q 176.101125 92.19786 178.766231 92.19786 
z
M 178.440264 92.19786 
L 178.440264 92.19786 
z
" style="fill:none;opacity:0;"/>
   </g>
   <g id="patch_50">
    <path clip-path="url(#p1d9ab05dae)" d="M 183.80177 50.737072 
L 183.80177 50.545239 
L 179.391802 50.545239 
L 179.391802 49.12701 
L 177.593036 49.12701 
L 177.593036 50.545239 
L 173.183068 50.545239 
L 173.183068 50.737072 
L 183.80177 50.737072 
z
" style="fill:none;opacity:0;"/>
   </g>
   <g id="patch_51">
    <path clip-path="url(#p1d9ab05dae)" d="M 189.943812 127.684548 
Q 192.217758 127.684548 193.472079 123.749581 
Q 194.726401 119.823168 194.864611 114.82747 
L 193.284322 114.82747 
Q 193.015726 118.617015 192.212543 120.832572 
Q 191.40936 123.056684 189.959459 123.056684 
Q 188.191414 123.056684 187.103988 118.976294 
Q 186.016561 114.904458 186.016561 106.48705 
Q 186.016561 99.583748 186.99707 95.289501 
Q 187.980187 91.003808 189.928166 91.003808 
Q 191.719681 91.003808 192.658466 95.520466 
Q 193.153936 97.898555 193.399063 101.782197 
L 194.979351 101.782197 
Q 194.768124 95.580346 193.578997 91.380196 
Q 192.152565 86.324618 189.732586 86.324618 
Q 187.646397 86.324618 186.227788 90.473443 
Q 184.360649 95.94818 184.360649 107.393803 
Q 184.360649 116.076394 185.763611 121.636674 
Q 187.278706 127.684548 189.943812 127.684548 
z
M 189.617845 127.684548 
L 189.617845 127.684548 
z
" style="fill:none;opacity:0;"/>
   </g>
   <g id="patch_52">
    <path clip-path="url(#p1d9ab05dae)" d="M 194.979351 86.324618 
L 194.979351 81.892666 
L 190.569383 81.892666 
L 190.569383 49.12701 
L 188.770617 49.12701 
L 188.770617 81.892666 
L 184.360649 81.892666 
L 184.360649 86.324618 
L 194.979351 86.324618 
z
" style="fill:none;opacity:0;"/>
   </g>
   <g id="patch_53">
    <path clip-path="url(#p1d9ab05dae)" d="M 202.665746 51.689114 
L 200.859244 54.451446 
L 198.938703 51.689114 
L 202.665746 51.689114 
z
M 200.016902 55.380396 
L 201.838954 55.380396 
L 206.156932 49.12701 
L 204.389308 49.12701 
L 203.18411 50.999893 
L 198.477358 50.999893 
L 197.189222 49.12701 
L 195.53823 49.12701 
L 200.016902 55.380396 
z
M 200.851469 55.380396 
L 200.851469 55.380396 
z
" style="fill:none;opacity:0;"/>
   </g>
   <g id="patch_54">
    <path clip-path="url(#p1d9ab05dae)" d="M 201.121393 69.397573 
Q 203.395339 69.397573 204.649661 68.063985 
Q 205.903982 66.733295 206.042192 65.040217 
L 204.461904 65.040217 
Q 204.193307 66.324521 203.390124 67.07539 
Q 202.586941 67.829157 201.13704 67.829157 
Q 199.368995 67.829157 198.281569 66.446284 
Q 197.194143 65.066309 197.194143 62.213589 
Q 197.194143 59.87401 198.174651 58.418659 
Q 199.157768 56.966207 201.105747 56.966207 
Q 202.897262 56.966207 203.836047 58.496935 
Q 204.331517 59.302886 204.576644 60.61908 
L 206.156932 60.61908 
Q 205.945706 58.517229 204.756578 57.093767 
Q 203.330146 55.380396 200.910167 55.380396 
Q 198.823978 55.380396 197.405369 56.786462 
Q 195.53823 58.64189 195.53823 62.520894 
Q 195.53823 65.463487 196.941192 67.347905 
Q 198.456287 69.397573 201.121393 69.397573 
z
M 200.795426 69.397573 
L 200.795426 69.397573 
z
" style="fill:none;opacity:0;"/>
   </g>
   <g id="patch_55">
    <path clip-path="url(#p1d9ab05dae)" d="M 206.156932 99.95219 
L 206.156932 96.311725 
L 201.746964 96.311725 
L 201.746964 69.397573 
L 199.948198 69.397573 
L 199.948198 96.311725 
L 195.53823 96.311725 
L 195.53823 99.95219 
L 206.156932 99.95219 
z
" style="fill:none;opacity:0;"/>
   </g>
   <g id="patch_56">
    <path clip-path="url(#p1d9ab05dae)" d="M 212.298975 50.425048 
Q 214.572921 50.425048 215.827242 50.301554 
Q 217.081563 50.178327 217.219773 50.021542 
L 215.639485 50.021542 
Q 215.370888 50.140473 214.567705 50.210006 
Q 213.764522 50.279808 212.314621 50.279808 
Q 210.546576 50.279808 209.45915 50.151749 
Q 208.371724 50.023959 208.371724 49.759787 
Q 208.371724 49.543134 209.352233 49.408364 
Q 210.335349 49.273862 212.283328 49.273862 
Q 214.074843 49.273862 215.013628 49.415612 
Q 215.509098 49.490246 215.754225 49.61213 
L 217.334513 49.61213 
Q 217.123287 49.417492 215.934159 49.285674 
Q 214.507727 49.12701 212.087748 49.12701 
Q 210.001559 49.12701 208.58295 49.257217 
Q 206.715811 49.429036 206.715811 49.788245 
Q 206.715811 50.060739 208.118773 50.235242 
Q 209.633868 50.425048 212.298975 50.425048 
z
M 211.973008 50.425048 
L 211.973008 50.425048 
z
" style="fill:none;opacity:0;"/>
   </g>
   <g id="patch_57">
    <path clip-path="url(#p1d9ab05dae)" d="M 217.334513 84.117821 
L 217.334513 80.103456 
L 212.924545 80.103456 
L 212.924545 50.425048 
L 211.12578 50.425048 
L 211.12578 80.103456 
L 206.715811 80.103456 
L 206.715811 84.117821 
L 217.334513 84.117821 
z
" style="fill:none;opacity:0;"/>
   </g>
   <g id="patch_58">
    <path clip-path="url(#p1d9ab05dae)" d="M 223.476556 72.096978 
Q 225.750502 72.096978 227.004823 69.911624 
Q 228.259144 67.731021 228.397354 64.956572 
L 226.817066 64.956572 
Q 226.548469 67.061163 225.745286 68.291612 
Q 224.942103 69.526812 223.492202 69.526812 
Q 221.724157 69.526812 220.636731 67.260695 
Q 219.549305 64.999329 219.549305 60.324573 
Q 219.549305 56.490702 220.529814 54.105816 
Q 221.51293 51.725681 223.460909 51.725681 
Q 225.252424 51.725681 226.191209 54.234087 
Q 226.686679 55.554801 226.931806 57.71165 
L 228.512094 57.71165 
Q 228.300868 54.267342 227.11174 51.934715 
Q 225.685308 49.12701 223.265329 49.12701 
Q 221.17914 49.12701 219.760531 51.431133 
Q 217.893392 54.471625 217.893392 60.828154 
Q 217.893392 65.650185 219.296354 68.738184 
Q 220.811449 72.096978 223.476556 72.096978 
z
M 223.150589 72.096978 
L 223.150589 72.096978 
z
" style="fill:none;opacity:0;"/>
   </g>
   <g id="patch_59">
    <path clip-path="url(#p1d9ab05dae)" d="M 228.512094 109.287487 
L 228.512094 104.856381 
L 224.102126 104.856381 
L 224.102126 72.096978 
L 222.303361 72.096978 
L 222.303361 104.856381 
L 217.893392 104.856381 
L 217.893392 109.287487 
L 228.512094 109.287487 
z
" style="fill:none;opacity:0;"/>
   </g>
   <g id="patch_60">
    <path clip-path="url(#p1d9ab05dae)" d="M 234.654137 106.59243 
Q 236.928083 106.59243 238.182404 102.646264 
Q 239.436725 98.708676 239.574935 93.698761 
L 237.994647 93.698761 
Q 237.72605 97.499091 236.922867 99.720954 
Q 236.119685 101.951396 234.669783 101.951396 
Q 232.901738 101.951396 231.814312 97.859393 
Q 230.726886 93.775969 230.726886 85.334605 
Q 230.726886 78.411657 231.707395 74.105188 
Q 232.690511 69.807299 234.63849 69.807299 
Q 236.430005 69.807299 237.36879 74.336811 
Q 237.86426 76.721668 238.109387 80.616362 
L 239.689676 80.616362 
Q 239.478449 74.396861 238.289321 70.184758 
Q 236.862889 65.114792 234.44291 65.114792 
Q 232.356721 65.114792 230.938113 69.275424 
Q 229.070973 74.765742 229.070973 86.243939 
Q 229.070973 94.95124 230.473936 100.527344 
Q 231.98903 106.59243 234.654137 106.59243 
z
M 234.32817 106.59243 
L 234.32817 106.59243 
z
" style="fill:none;opacity:0;"/>
   </g>
   <g id="patch_61">
    <path clip-path="url(#p1d9ab05dae)" d="M 234.547429 65.09166 
Q 236.185554 65.09166 237.380602 64.265503 
Q 239.112407 63.079143 239.499785 60.104979 
L 237.942679 60.104979 
Q 237.656576 61.767206 236.762823 62.52727 
Q 235.86907 63.287334 234.506918 63.287334 
Q 232.894111 63.287334 231.790212 61.704418 
Q 230.686312 60.124807 230.686312 56.995326 
Q 230.686312 54.292141 231.595257 52.593563 
Q 232.506734 50.894985 234.56262 50.894985 
Q 236.137449 50.894985 237.170456 52.084651 
Q 238.203462 53.277621 238.226249 55.944454 
L 234.587939 55.944454 
L 234.587939 57.646337 
L 239.689676 57.646337 
L 239.689676 49.530175 
L 238.676924 49.530175 
L 238.297142 51.483209 
Q 237.4996 50.336503 236.881821 49.890379 
Q 235.843751 49.12701 234.246135 49.12701 
Q 232.182653 49.12701 230.693908 50.871853 
Q 229.070973 53.06282 229.070973 56.882968 
Q 229.070973 60.693202 230.653398 62.943653 
Q 232.157334 65.09166 234.547429 65.09166 
z
M 234.286645 65.114792 
L 234.286645 65.114792 
z
" style="fill:none;opacity:0;"/>
   </g>
   <g id="patch_62">
    <path clip-path="url(#p1d9ab05dae)" d="M 247.37607 50.820564 
L 245.569569 52.64647 
L 243.649027 50.820564 
L 247.37607 50.820564 
z
M 244.727226 53.260507 
L 246.549278 53.260507 
L 250.867257 49.12701 
L 249.099633 49.12701 
L 247.894435 50.364988 
L 243.187683 50.364988 
L 241.899546 49.12701 
L 240.248555 49.12701 
L 244.727226 53.260507 
z
M 245.561793 53.260507 
L 245.561793 53.260507 
z
" style="fill:none;opacity:0;"/>
   </g>
   <g id="patch_63">
    <path clip-path="url(#p1d9ab05dae)" d="M 245.831718 67.288907 
Q 248.105664 67.288907 249.359985 65.954251 
Q 250.614306 64.622496 250.752516 62.928062 
L 249.172228 62.928062 
Q 248.903631 64.213395 248.100448 64.964864 
Q 247.297266 65.719235 245.847364 65.719235 
Q 244.079319 65.719235 242.991893 64.335255 
Q 241.904467 62.954175 241.904467 60.099171 
Q 241.904467 57.757719 242.884976 56.301203 
Q 243.868093 54.847588 245.816071 54.847588 
Q 247.607586 54.847588 248.546371 56.379541 
Q 249.041841 57.186138 249.286968 58.503386 
L 250.867257 58.503386 
Q 250.65603 56.399851 249.466902 54.97525 
Q 248.040471 53.260507 245.620491 53.260507 
Q 243.534302 53.260507 242.115694 54.667699 
Q 240.248555 56.524613 240.248555 60.406722 
Q 240.248555 63.351671 241.651517 65.237598 
Q 243.166611 67.288907 245.831718 67.288907 
z
M 245.505751 67.288907 
L 245.505751 67.288907 
z
" style="fill:none;opacity:0;"/>
   </g>
   <g id="patch_64">
    <path clip-path="url(#p1d9ab05dae)" d="M 245.72501 100.886768 
Q 247.363136 100.886768 248.558183 99.148108 
Q 250.289988 96.651393 250.677366 90.392218 
L 249.12026 90.392218 
Q 248.834158 93.890401 247.940404 95.489968 
Q 247.046651 97.089535 245.6845 97.089535 
Q 244.071692 97.089535 242.967793 93.758263 
Q 241.863894 90.433946 241.863894 83.847903 
Q 241.863894 78.159008 242.772838 74.584324 
Q 243.684315 71.009639 245.740201 71.009639 
Q 247.31503 71.009639 248.348037 73.513309 
Q 249.381043 76.023934 249.40383 81.636327 
L 245.76552 81.636327 
L 245.76552 85.217966 
L 250.867257 85.217966 
L 250.867257 68.137373 
L 249.854505 68.137373 
L 249.474723 72.247565 
Q 248.677181 69.834305 248.059402 68.895429 
Q 247.021332 67.288907 245.423716 67.288907 
Q 243.360234 67.288907 241.871489 70.960957 
Q 240.248555 75.571882 240.248555 83.611445 
Q 240.248555 91.630143 241.830979 96.366253 
Q 243.334916 100.886768 245.72501 100.886768 
z
M 245.464226 100.93545 
L 245.464226 100.93545 
z
" style="fill:none;opacity:0;"/>
   </g>
   <g id="patch_65">
    <path clip-path="url(#p1d9ab05dae)" d="M 257.009299 50.40736 
Q 259.283245 50.40736 260.537566 50.285548 
Q 261.791887 50.164001 261.930097 50.009353 
L 260.349809 50.009353 
Q 260.081212 50.126663 259.27803 50.195248 
Q 258.474847 50.264098 257.024945 50.264098 
Q 255.2569 50.264098 254.169474 50.137785 
Q 253.082048 50.011736 253.082048 49.751164 
Q 253.082048 49.537464 254.062557 49.40453 
Q 255.045674 49.271861 256.993653 49.271861 
Q 258.785167 49.271861 259.723952 49.41168 
Q 260.219422 49.485296 260.46455 49.605519 
L 262.044838 49.605519 
Q 261.833611 49.413533 260.644483 49.283512 
Q 259.218052 49.12701 256.798072 49.12701 
Q 254.711883 49.12701 253.293275 49.255442 
Q 251.426136 49.42492 251.426136 49.779234 
Q 251.426136 50.048015 252.829098 50.22014 
Q 254.344193 50.40736 257.009299 50.40736 
z
M 256.683332 50.40736 
L 256.683332 50.40736 
z
" style="fill:none;opacity:0;"/>
   </g>
   <g id="patch_66">
    <path clip-path="url(#p1d9ab05dae)" d="M 256.902591 69.385693 
Q 258.540717 69.385693 259.735764 68.403581 
Q 261.467569 66.993268 261.854947 63.457664 
L 260.297841 63.457664 
Q 260.011739 65.433674 259.117985 66.337217 
Q 258.224232 67.24076 256.862081 67.24076 
Q 255.249274 67.24076 254.145374 65.359033 
Q 253.041475 63.481235 253.041475 59.760995 
Q 253.041475 56.547524 253.950419 54.528302 
Q 254.861896 52.50908 256.917782 52.50908 
Q 258.492611 52.50908 259.525618 53.923321 
Q 260.558625 55.341491 260.581411 58.511748 
L 256.943101 58.511748 
L 256.943101 60.534899 
L 262.044838 60.534899 
L 262.044838 50.886631 
L 261.032086 50.886631 
L 260.652304 53.208343 
Q 259.854762 51.845172 259.236984 51.314831 
Q 258.198913 50.40736 256.601297 50.40736 
Q 254.537815 50.40736 253.04907 52.48158 
Q 251.426136 55.086142 251.426136 59.627428 
Q 251.426136 64.156928 253.00856 66.832201 
Q 254.512497 69.385693 256.902591 69.385693 
z
M 256.641807 69.413192 
L 256.641807 69.413192 
z
" style="fill:none;opacity:0;"/>
   </g>
   <g id="patch_67">
    <path clip-path="url(#p1d9ab05dae)" d="M 269.731232 57.70143 
L 267.924731 66.94594 
L 266.00419 57.70143 
L 269.731232 57.70143 
z
M 267.082388 70.054794 
L 268.90444 70.054794 
L 273.222419 49.12701 
L 271.454795 49.12701 
L 270.249597 55.394861 
L 265.542845 55.394861 
L 264.254709 49.12701 
L 262.603717 49.12701 
L 267.082388 70.054794 
z
M 267.916956 70.054794 
L 267.916956 70.054794 
z
" style="fill:none;opacity:0;"/>
   </g>
   <g id="patch_68">
    <path clip-path="url(#p1d9ab05dae)" d="M 268.080172 103.692657 
Q 269.718298 103.692657 270.913345 101.951928 
Q 272.64515 99.45224 273.032528 93.185612 
L 271.475422 93.185612 
Q 271.18932 96.687961 270.295566 98.289432 
Q 269.401813 99.890903 268.039662 99.890903 
Q 266.426855 99.890903 265.322955 96.555665 
Q 264.219056 93.22739 264.219056 86.633505 
Q 264.219056 80.937837 265.128001 77.358897 
Q 266.039477 73.779956 268.095363 73.779956 
Q 269.670192 73.779956 270.703199 76.286607 
Q 271.736206 78.800221 271.758993 84.419297 
L 268.120682 84.419297 
L 268.120682 88.0052 
L 273.222419 88.0052 
L 273.222419 70.904271 
L 272.209667 70.904271 
L 271.829885 75.019356 
Q 271.032343 72.603223 270.414565 71.663229 
Q 269.376494 70.054794 267.778878 70.054794 
Q 265.715397 70.054794 264.226651 73.731216 
Q 262.603717 78.347631 262.603717 86.396766 
Q 262.603717 94.425012 264.186141 99.16676 
Q 265.690078 103.692657 268.080172 103.692657 
z
M 267.819388 103.741398 
L 267.819388 103.741398 
z
" style="fill:none;opacity:0;"/>
   </g>
   <g id="patch_69">
    <path clip-path="url(#p1d9ab05dae)" d="M 280.908813 96.528663 
L 279.102312 111.381963 
L 277.181771 96.528663 
L 280.908813 96.528663 
z
M 278.259969 116.377007 
L 280.082022 116.377007 
L 284.4 82.752009 
L 282.632376 82.752009 
L 281.427178 92.822663 
L 276.720426 92.822663 
L 275.43229 82.752009 
L 273.781298 82.752009 
L 278.259969 116.377007 
z
M 279.094537 116.377007 
L 279.094537 116.377007 
z
" style="fill:none;opacity:0;"/>
   </g>
   <g id="patch_70">
    <path clip-path="url(#p1d9ab05dae)" d="M 279.257753 82.703357 
Q 280.895879 82.703357 282.090926 80.965811 
Q 283.822732 78.470694 284.210109 72.215527 
L 282.653003 72.215527 
Q 282.366901 75.711471 281.473147 77.310013 
Q 280.579394 78.908556 279.217243 78.908556 
Q 277.604436 78.908556 276.500536 75.579417 
Q 275.396637 72.257228 275.396637 65.675402 
Q 275.396637 59.99015 276.305582 56.417755 
Q 277.217058 52.84536 279.272944 52.84536 
Q 280.847773 52.84536 281.88078 55.347426 
Q 282.913787 57.856443 282.936574 63.465243 
L 279.298263 63.465243 
L 279.298263 67.044589 
L 284.4 67.044589 
L 284.4 49.974933 
L 283.387248 49.974933 
L 283.007466 54.082493 
Q 282.209924 51.670778 281.592146 50.732503 
Q 280.554075 49.12701 278.956459 49.12701 
Q 276.892978 49.12701 275.404233 52.796708 
Q 273.781298 57.404681 273.781298 65.439096 
Q 273.781298 73.45266 275.363723 78.185737 
Q 276.867659 82.703357 279.257753 82.703357 
z
M 278.996969 82.752009 
L 278.996969 82.752009 
z
" style="fill:none;opacity:0;"/>
   </g>
   <g id="matplotlib.axis_1">
    <g id="xtick_1">
     <g id="line2d_2">
      <path clip-path="url(#p1d9ab05dae)" d="M 100.249351 141.64 
L 100.249351 21.6 
" style="fill:none;stroke:#cccccc;stroke-linecap:round;stroke-width:0.8;"/>
     </g>
     <g id="text_1">
      <!-- 0 -->
      <g style="fill:#262626;" transform="translate(94.688414 162.986875)scale(0.2 -0.2)">
       <defs>
        <path d="M 1731 4475 
Q 2600 4475 2988 3759 
Q 3288 3206 3288 2244 
Q 3288 1331 3016 734 
Q 2622 -122 1728 -122 
Q 922 -122 528 578 
Q 200 1163 200 2147 
Q 200 2909 397 3456 
Q 766 4475 1731 4475 
z
M 1725 391 
Q 2163 391 2422 778 
Q 2681 1166 2681 2222 
Q 2681 2984 2493 3476 
Q 2306 3969 1766 3969 
Q 1269 3969 1039 3501 
Q 809 3034 809 2125 
Q 809 1441 956 1025 
Q 1181 391 1725 391 
z
" id="Helvetica-30" transform="scale(0.015625)"/>
       </defs>
       <use xlink:href="#Helvetica-30"/>
      </g>
     </g>
    </g>
    <g id="xtick_2">
     <g id="line2d_3">
      <path clip-path="url(#p1d9ab05dae)" d="M 212.025162 141.64 
L 212.025162 21.6 
" style="fill:none;stroke:#cccccc;stroke-linecap:round;stroke-width:0.8;"/>
     </g>
     <g id="text_2">
      <!-- 10 -->
      <g style="fill:#262626;" transform="translate(200.903287 162.986875)scale(0.2 -0.2)">
       <defs>
        <path d="M 613 3169 
L 613 3600 
Q 1222 3659 1462 3798 
Q 1703 3938 1822 4456 
L 2266 4456 
L 2266 0 
L 1666 0 
L 1666 3169 
L 613 3169 
z
" id="Helvetica-31" transform="scale(0.015625)"/>
       </defs>
       <use xlink:href="#Helvetica-31"/>
       <use x="55.615234" xlink:href="#Helvetica-30"/>
      </g>
     </g>
    </g>
    <g id="text_3">
     <!-- Position -->
     <g style="fill:#262626;" transform="translate(145.20125 189.089219)scale(0.25 -0.25)">
      <defs>
       <path d="M 547 4591 
L 2613 4591 
Q 3225 4591 3600 4245 
Q 3975 3900 3975 3275 
Q 3975 2738 3640 2339 
Q 3306 1941 2613 1941 
L 1169 1941 
L 1169 0 
L 547 0 
L 547 4591 
z
M 3347 3272 
Q 3347 3778 2972 3959 
Q 2766 4056 2406 4056 
L 1169 4056 
L 1169 2466 
L 2406 2466 
Q 2825 2466 3086 2644 
Q 3347 2822 3347 3272 
z
" id="Helvetica-50" transform="scale(0.015625)"/>
       <path d="M 1741 363 
Q 2300 363 2508 786 
Q 2716 1209 2716 1728 
Q 2716 2197 2566 2491 
Q 2328 2953 1747 2953 
Q 1231 2953 997 2559 
Q 763 2166 763 1609 
Q 763 1075 997 719 
Q 1231 363 1741 363 
z
M 1763 3444 
Q 2409 3444 2856 3012 
Q 3303 2581 3303 1744 
Q 3303 934 2909 406 
Q 2516 -122 1688 -122 
Q 997 -122 590 345 
Q 184 813 184 1600 
Q 184 2444 612 2944 
Q 1041 3444 1763 3444 
z
M 1744 3428 
L 1744 3428 
z
" id="Helvetica-6f" transform="scale(0.015625)"/>
       <path d="M 747 1050 
Q 772 769 888 619 
Q 1100 347 1625 347 
Q 1938 347 2175 483 
Q 2413 619 2413 903 
Q 2413 1119 2222 1231 
Q 2100 1300 1741 1391 
L 1294 1503 
Q 866 1609 663 1741 
Q 300 1969 300 2372 
Q 300 2847 642 3140 
Q 984 3434 1563 3434 
Q 2319 3434 2653 2991 
Q 2863 2709 2856 2384 
L 2325 2384 
Q 2309 2575 2191 2731 
Q 1997 2953 1519 2953 
Q 1200 2953 1036 2831 
Q 872 2709 872 2509 
Q 872 2291 1088 2159 
Q 1213 2081 1456 2022 
L 1828 1931 
Q 2434 1784 2641 1647 
Q 2969 1431 2969 969 
Q 2969 522 2630 197 
Q 2291 -128 1597 -128 
Q 850 -128 539 211 
Q 228 550 206 1050 
L 747 1050 
z
M 1578 3428 
L 1578 3428 
z
" id="Helvetica-73" transform="scale(0.015625)"/>
       <path d="M 413 3331 
L 984 3331 
L 984 0 
L 413 0 
L 413 3331 
z
M 413 4591 
L 984 4591 
L 984 3953 
L 413 3953 
L 413 4591 
z
" id="Helvetica-69" transform="scale(0.015625)"/>
       <path d="M 525 4281 
L 1094 4281 
L 1094 3347 
L 1628 3347 
L 1628 2888 
L 1094 2888 
L 1094 703 
Q 1094 528 1213 469 
Q 1278 434 1431 434 
Q 1472 434 1519 436 
Q 1566 438 1628 444 
L 1628 0 
Q 1531 -28 1426 -40 
Q 1322 -53 1200 -53 
Q 806 -53 665 148 
Q 525 350 525 672 
L 525 2888 
L 72 2888 
L 72 3347 
L 525 3347 
L 525 4281 
z
" id="Helvetica-74" transform="scale(0.015625)"/>
       <path d="M 413 3347 
L 947 3347 
L 947 2872 
Q 1184 3166 1450 3294 
Q 1716 3422 2041 3422 
Q 2753 3422 3003 2925 
Q 3141 2653 3141 2147 
L 3141 0 
L 2569 0 
L 2569 2109 
Q 2569 2416 2478 2603 
Q 2328 2916 1934 2916 
Q 1734 2916 1606 2875 
Q 1375 2806 1200 2600 
Q 1059 2434 1017 2257 
Q 975 2081 975 1753 
L 975 0 
L 413 0 
L 413 3347 
z
M 1734 3428 
L 1734 3428 
z
" id="Helvetica-6e" transform="scale(0.015625)"/>
      </defs>
      <use xlink:href="#Helvetica-50"/>
      <use x="66.699219" xlink:href="#Helvetica-6f"/>
      <use x="122.314453" xlink:href="#Helvetica-73"/>
      <use x="172.314453" xlink:href="#Helvetica-69"/>
      <use x="194.53125" xlink:href="#Helvetica-74"/>
      <use x="222.314453" xlink:href="#Helvetica-69"/>
      <use x="244.53125" xlink:href="#Helvetica-6f"/>
      <use x="300.146484" xlink:href="#Helvetica-6e"/>
     </g>
    </g>
   </g>
   <g id="matplotlib.axis_2">
    <g id="ytick_1">
     <g id="line2d_4">
      <path clip-path="url(#p1d9ab05dae)" d="M 94.94 49.12701 
L 284.4 49.12701 
" style="fill:none;stroke:#cccccc;stroke-linecap:round;stroke-width:0.8;"/>
     </g>
     <g id="text_4">
      <!-- 0 -->
      <g style="fill:#262626;" transform="translate(76.818125 56.300448)scale(0.2 -0.2)">
       <use xlink:href="#Helvetica-30"/>
      </g>
     </g>
    </g>
    <g id="ytick_2">
     <g id="line2d_5">
      <path clip-path="url(#p1d9ab05dae)" d="M 94.94 44.801361 
L 284.4 44.801361 
" style="fill:none;stroke:#cccccc;stroke-linecap:round;stroke-width:0.8;"/>
     </g>
     <g id="text_5">
      <!-- 0.25 -->
      <g style="fill:#262626;" transform="translate(49.018125 51.974799)scale(0.2 -0.2)">
       <defs>
        <path d="M 547 681 
L 1200 681 
L 1200 0 
L 547 0 
L 547 681 
z
" id="Helvetica-2e" transform="scale(0.015625)"/>
        <path d="M 200 0 
Q 231 578 439 1006 
Q 647 1434 1250 1784 
L 1850 2131 
Q 2253 2366 2416 2531 
Q 2672 2791 2672 3125 
Q 2672 3516 2437 3745 
Q 2203 3975 1813 3975 
Q 1234 3975 1013 3538 
Q 894 3303 881 2888 
L 309 2888 
Q 319 3472 525 3841 
Q 891 4491 1816 4491 
Q 2584 4491 2939 4075 
Q 3294 3659 3294 3150 
Q 3294 2613 2916 2231 
Q 2697 2009 2131 1694 
L 1703 1456 
Q 1397 1288 1222 1134 
Q 909 863 828 531 
L 3272 531 
L 3272 0 
L 200 0 
z
" id="Helvetica-32" transform="scale(0.015625)"/>
        <path d="M 791 1141 
Q 847 659 1238 475 
Q 1438 381 1700 381 
Q 2200 381 2440 700 
Q 2681 1019 2681 1406 
Q 2681 1875 2395 2131 
Q 2109 2388 1709 2388 
Q 1419 2388 1211 2275 
Q 1003 2163 856 1963 
L 369 1991 
L 709 4400 
L 3034 4400 
L 3034 3856 
L 1131 3856 
L 941 2613 
Q 1097 2731 1238 2791 
Q 1488 2894 1816 2894 
Q 2431 2894 2859 2497 
Q 3288 2100 3288 1491 
Q 3288 856 2895 371 
Q 2503 -113 1644 -113 
Q 1097 -113 676 195 
Q 256 503 206 1141 
L 791 1141 
z
" id="Helvetica-35" transform="scale(0.015625)"/>
       </defs>
       <use xlink:href="#Helvetica-30"/>
       <use x="55.615234" xlink:href="#Helvetica-2e"/>
       <use x="83.398438" xlink:href="#Helvetica-32"/>
       <use x="139.013672" xlink:href="#Helvetica-35"/>
      </g>
     </g>
    </g>
    <g id="ytick_3">
     <g id="line2d_6">
      <path clip-path="url(#p1d9ab05dae)" d="M 94.94 40.475712 
L 284.4 40.475712 
" style="fill:none;stroke:#cccccc;stroke-linecap:round;stroke-width:0.8;"/>
     </g>
     <g id="text_6">
      <!-- 0.50 -->
      <g style="fill:#262626;" transform="translate(49.018125 47.649149)scale(0.2 -0.2)">
       <use xlink:href="#Helvetica-30"/>
       <use x="55.615234" xlink:href="#Helvetica-2e"/>
       <use x="83.398438" xlink:href="#Helvetica-35"/>
       <use x="139.013672" xlink:href="#Helvetica-30"/>
      </g>
     </g>
    </g>
    <g id="ytick_4">
     <g id="line2d_7">
      <path clip-path="url(#p1d9ab05dae)" d="M 94.94 36.150062 
L 284.4 36.150062 
" style="fill:none;stroke:#cccccc;stroke-linecap:round;stroke-width:0.8;"/>
     </g>
     <g id="text_7">
      <!-- 0.75 -->
      <g style="fill:#262626;" transform="translate(49.018125 43.3235)scale(0.2 -0.2)">
       <defs>
        <path d="M 3347 4400 
L 3347 3909 
Q 3131 3700 2773 3181 
Q 2416 2663 2141 2063 
Q 1869 1478 1728 997 
Q 1638 688 1494 0 
L 872 0 
Q 1084 1281 1809 2550 
Q 2238 3294 2709 3834 
L 234 3834 
L 234 4400 
L 3347 4400 
z
" id="Helvetica-37" transform="scale(0.015625)"/>
       </defs>
       <use xlink:href="#Helvetica-30"/>
       <use x="55.615234" xlink:href="#Helvetica-2e"/>
       <use x="83.398438" xlink:href="#Helvetica-37"/>
       <use x="139.013672" xlink:href="#Helvetica-35"/>
      </g>
     </g>
    </g>
    <g id="ytick_5">
     <g id="line2d_8">
      <path clip-path="url(#p1d9ab05dae)" d="M 94.94 31.824413 
L 284.4 31.824413 
" style="fill:none;stroke:#cccccc;stroke-linecap:round;stroke-width:0.8;"/>
     </g>
     <g id="text_8">
      <!-- 1.0 -->
      <g style="fill:#262626;" transform="translate(60.14 38.997851)scale(0.2 -0.2)">
       <use xlink:href="#Helvetica-31"/>
       <use x="55.615234" xlink:href="#Helvetica-2e"/>
       <use x="83.398438" xlink:href="#Helvetica-30"/>
      </g>
     </g>
    </g>
    <g id="text_9">
     <!-- Probability -->
     <g style="fill:#262626;" transform="translate(39.65875 139.979375)rotate(-90)scale(0.25 -0.25)">
      <defs>
       <path d="M 428 3347 
L 963 3347 
L 963 2769 
Q 1028 2938 1284 3180 
Q 1541 3422 1875 3422 
Q 1891 3422 1928 3419 
Q 1966 3416 2056 3406 
L 2056 2813 
Q 2006 2822 1964 2825 
Q 1922 2828 1872 2828 
Q 1447 2828 1219 2554 
Q 991 2281 991 1925 
L 991 0 
L 428 0 
L 428 3347 
z
" id="Helvetica-72" transform="scale(0.015625)"/>
       <path d="M 369 4606 
L 916 4606 
L 916 2941 
Q 1100 3181 1356 3307 
Q 1613 3434 1913 3434 
Q 2538 3434 2927 3004 
Q 3316 2575 3316 1738 
Q 3316 944 2931 419 
Q 2547 -106 1866 -106 
Q 1484 -106 1222 78 
Q 1066 188 888 428 
L 888 0 
L 369 0 
L 369 4606 
z
M 1831 391 
Q 2288 391 2514 753 
Q 2741 1116 2741 1709 
Q 2741 2238 2514 2584 
Q 2288 2931 1847 2931 
Q 1463 2931 1173 2647 
Q 884 2363 884 1709 
Q 884 1238 1003 944 
Q 1225 391 1831 391 
z
" id="Helvetica-62" transform="scale(0.015625)"/>
       <path d="M 844 891 
Q 844 647 1022 506 
Q 1200 366 1444 366 
Q 1741 366 2019 503 
Q 2488 731 2488 1250 
L 2488 1703 
Q 2384 1638 2221 1594 
Q 2059 1550 1903 1531 
L 1563 1488 
Q 1256 1447 1103 1359 
Q 844 1213 844 891 
z
M 2206 2028 
Q 2400 2053 2466 2191 
Q 2503 2266 2503 2406 
Q 2503 2694 2298 2823 
Q 2094 2953 1713 2953 
Q 1272 2953 1088 2716 
Q 984 2584 953 2325 
L 428 2325 
Q 444 2944 830 3186 
Q 1216 3428 1725 3428 
Q 2316 3428 2684 3203 
Q 3050 2978 3050 2503 
L 3050 575 
Q 3050 488 3086 434 
Q 3122 381 3238 381 
Q 3275 381 3322 386 
Q 3369 391 3422 400 
L 3422 -16 
Q 3291 -53 3222 -62 
Q 3153 -72 3034 -72 
Q 2744 -72 2613 134 
Q 2544 244 2516 444 
Q 2344 219 2022 53 
Q 1700 -113 1313 -113 
Q 847 -113 551 170 
Q 256 453 256 878 
Q 256 1344 547 1600 
Q 838 1856 1309 1916 
L 2206 2028 
z
M 1741 3428 
L 1741 3428 
z
" id="Helvetica-61" transform="scale(0.015625)"/>
       <path d="M 428 4591 
L 991 4591 
L 991 0 
L 428 0 
L 428 4591 
z
" id="Helvetica-6c" transform="scale(0.015625)"/>
       <path d="M 2503 3347 
L 3125 3347 
Q 3006 3025 2597 1878 
Q 2291 1016 2084 472 
Q 1597 -809 1397 -1090 
Q 1197 -1372 709 -1372 
Q 591 -1372 527 -1362 
Q 463 -1353 369 -1328 
L 369 -816 
Q 516 -856 581 -865 
Q 647 -875 697 -875 
Q 853 -875 926 -823 
Q 1000 -772 1050 -697 
Q 1066 -672 1162 -440 
Q 1259 -209 1303 -97 
L 66 3347 
L 703 3347 
L 1600 622 
L 2503 3347 
z
M 1597 3428 
L 1597 3428 
z
" id="Helvetica-79" transform="scale(0.015625)"/>
      </defs>
      <use xlink:href="#Helvetica-50"/>
      <use x="66.699219" xlink:href="#Helvetica-72"/>
      <use x="100" xlink:href="#Helvetica-6f"/>
      <use x="155.615234" xlink:href="#Helvetica-62"/>
      <use x="211.230469" xlink:href="#Helvetica-61"/>
      <use x="266.845703" xlink:href="#Helvetica-62"/>
      <use x="322.460938" xlink:href="#Helvetica-69"/>
      <use x="344.677734" xlink:href="#Helvetica-6c"/>
      <use x="366.894531" xlink:href="#Helvetica-69"/>
      <use x="389.111328" xlink:href="#Helvetica-74"/>
      <use x="416.894531" xlink:href="#Helvetica-79"/>
     </g>
    </g>
   </g>
   <g id="patch_71">
    <path d="M 94.94 141.64 
L 94.94 21.6 
" style="fill:none;stroke:#000000;stroke-linecap:square;stroke-linejoin:miter;"/>
   </g>
  </g>
 </g>
 <defs>
  <clipPath id="p1d9ab05dae">
   <rect height="120.04" width="189.46" x="94.94" y="21.6"/>
  </clipPath>
 </defs>
</svg>
