<?xml version="1.0" encoding="utf-8" standalone="no"?>
<!DOCTYPE svg PUBLIC "-//W3C//DTD SVG 1.1//EN"
  "http://www.w3.org/Graphics/SVG/1.1/DTD/svg11.dtd">
<svg height="216pt" version="1.1" viewBox="0 0 306 216" width="306pt" xmlns="http://www.w3.org/2000/svg" xmlns:xlink="http://www.w3.org/1999/xlink">
 <metadata>
  <rdf:RDF xmlns:cc="http://creativecommons.org/ns#" xmlns:dc="http://purl.org/dc/elements/1.1/" xmlns:rdf="http://www.w3.org/1999/02/22-rdf-syntax-ns#">
   <cc:Work>
    <dc:type rdf:resource="http://purl.org/dc/dcmitype/StillImage"/>
    <dc:date>2021-12-20T22:25:09.757522</dc:date>
    <dc:format>image/svg+xml</dc:format>
    <dc:creator>
     <cc:Agent>
      <dc:title>Matplotlib v3.4.2, https://matplotlib.org/</dc:title>
     </cc:Agent>
    </dc:creator>
   </cc:Work>
  </rdf:RDF>
 </metadata>
 <defs>
  <style type="text/css">*{stroke-linecap:butt;stroke-linejoin:round;}</style>
 </defs>
 <g id="figure_1">
  <g id="patch_1">
   <path d="M 0 216 
L 306 216 
L 306 0 
L 0 0 
z
" style="fill:#ffffff;"/>
  </g>
  <g id="axes_1">
   <g id="patch_2">
    <path d="M 94.94 141.64 
L 284.4 141.64 
L 284.4 28.8 
L 94.94 28.8 
z
" style="fill:#ffffff;"/>
   </g>
   <g id="line2d_1">
    <path clip-path="url(#p6e3d09d279)" d="M 94.94 86.311157 
L 284.4 86.311157 
" style="fill:none;stroke:#000000;stroke-linecap:round;stroke-width:0.5;"/>
   </g>
   <g id="patch_3">
    <path clip-path="url(#p6e3d09d279)" d="M 102.067515 72.350443 
L 100.261014 57.298699 
L 98.340473 72.350443 
L 102.067515 72.350443 
z
M 99.418672 52.23692 
L 101.240724 52.23692 
L 105.558702 86.311157 
L 103.791078 86.311157 
L 102.58588 76.105957 
L 97.879128 76.105957 
L 96.590992 86.311157 
L 94.94 86.311157 
L 99.418672 52.23692 
z
M 100.253239 52.23692 
L 100.253239 52.23692 
z
" style="fill:#008000;"/>
   </g>
   <g id="patch_4">
    <path clip-path="url(#p6e3d09d279)" d="M 111.700744 73.335536 
Q 113.97469 73.335536 115.229012 74.570031 
Q 116.483333 75.801843 116.621543 77.369116 
L 115.041255 77.369116 
Q 114.772658 76.180243 113.969475 75.485168 
Q 113.166292 74.78741 111.716391 74.78741 
Q 109.948346 74.78741 108.86092 76.067528 
Q 107.773494 77.344963 107.773494 79.98571 
Q 107.773494 82.151444 108.754002 83.498655 
Q 109.737119 84.843181 111.685098 84.843181 
Q 113.476613 84.843181 114.415398 83.426195 
Q 114.910868 82.68013 115.155995 81.461737 
L 116.736283 81.461737 
Q 116.525057 83.407409 115.335929 84.725099 
Q 113.909497 86.311157 111.489518 86.311157 
Q 109.403329 86.311157 107.98472 85.00957 
Q 106.117581 83.292011 106.117581 79.701239 
Q 106.117581 76.977298 107.520543 75.232902 
Q 109.035638 73.335536 111.700744 73.335536 
z
M 111.374777 73.335536 
L 111.374777 73.335536 
z
" style="fill:#0000ff;"/>
   </g>
   <g id="patch_5">
    <path clip-path="url(#p6e3d09d279)" d="M 113.245097 64.293866 
L 111.438595 54.54559 
L 109.518054 64.293866 
L 113.245097 64.293866 
z
M 110.596253 51.267323 
L 112.418305 51.267323 
L 116.736283 73.335536 
L 114.968659 73.335536 
L 113.763461 66.726128 
L 109.056709 66.726128 
L 107.768573 73.335536 
L 106.117581 73.335536 
L 110.596253 51.267323 
z
M 111.43082 51.267323 
L 111.43082 51.267323 
z
" style="fill:#008000;"/>
   </g>
   <g id="patch_6">
    <path clip-path="url(#p6e3d09d279)" d="M 127.913864 83.54861 
L 127.913864 83.877757 
L 123.503896 83.877757 
L 123.503896 86.311157 
L 121.705131 86.311157 
L 121.705131 83.877757 
L 117.295162 83.877757 
L 117.295162 83.54861 
L 127.913864 83.54861 
z
" style="fill:#ff0000;"/>
   </g>
   <g id="patch_7">
    <path clip-path="url(#p6e3d09d279)" d="M 124.422678 69.587896 
L 122.616176 54.536152 
L 120.695635 69.587896 
L 124.422678 69.587896 
z
M 121.773834 49.474373 
L 123.595886 49.474373 
L 127.913864 83.54861 
L 126.14624 83.54861 
L 124.941042 73.34341 
L 120.23429 73.34341 
L 118.946154 83.54861 
L 117.295162 83.54861 
L 121.773834 49.474373 
z
M 122.608401 49.474373 
L 122.608401 49.474373 
z
" style="fill:#008000;"/>
   </g>
   <g id="patch_8">
    <path clip-path="url(#p6e3d09d279)" d="M 135.600259 72.350443 
L 133.793758 57.298699 
L 131.873216 72.350443 
L 135.600259 72.350443 
z
M 132.951415 52.23692 
L 134.773467 52.23692 
L 139.091445 86.311157 
L 137.323822 86.311157 
L 136.118624 76.105957 
L 131.411872 76.105957 
L 130.123735 86.311157 
L 128.472743 86.311157 
L 132.951415 52.23692 
z
M 133.785982 52.23692 
L 133.785982 52.23692 
z
" style="fill:#008000;"/>
   </g>
   <g id="patch_9">
    <path clip-path="url(#p6e3d09d279)" d="M 146.77784 84.08392 
L 144.971339 81.682624 
L 143.050797 84.08392 
L 146.77784 84.08392 
z
M 144.128996 80.875087 
L 145.951048 80.875087 
L 150.269027 86.311157 
L 148.501403 86.311157 
L 147.296205 84.68306 
L 142.589453 84.68306 
L 141.301316 86.311157 
L 139.650324 86.311157 
L 144.128996 80.875087 
z
M 144.963563 80.875087 
L 144.963563 80.875087 
z
" style="fill:#008000;"/>
   </g>
   <g id="patch_10">
    <path clip-path="url(#p6e3d09d279)" d="M 150.269027 72.848958 
L 150.269027 73.805241 
L 145.859058 73.805241 
L 145.859058 80.875087 
L 144.060293 80.875087 
L 144.060293 73.805241 
L 139.650324 73.805241 
L 139.650324 72.848958 
L 150.269027 72.848958 
z
" style="fill:#ff0000;"/>
   </g>
   <g id="patch_11">
    <path clip-path="url(#p6e3d09d279)" d="M 156.411069 80.875087 
Q 158.685015 80.875087 159.939336 81.392273 
Q 161.193657 81.908334 161.331867 82.564935 
L 159.751579 82.564935 
Q 159.482982 82.066863 158.679799 81.775665 
Q 157.876617 81.483342 156.426715 81.483342 
Q 154.65867 81.483342 153.571244 82.019641 
Q 152.483818 82.554816 152.483818 83.661143 
Q 152.483818 84.568467 153.464327 85.132874 
Q 154.447444 85.696156 156.395423 85.696156 
Q 158.186937 85.696156 159.125722 85.102517 
Q 159.621192 84.789957 159.866319 84.279518 
L 161.446608 84.279518 
Q 161.235381 85.094647 160.046253 85.646686 
Q 158.619822 86.311157 156.199842 86.311157 
Q 154.113653 86.311157 152.695045 85.765864 
Q 150.827906 85.046301 150.827906 83.541966 
Q 150.827906 82.400785 152.230868 81.669979 
Q 153.745962 80.875087 156.411069 80.875087 
z
M 156.085102 80.875087 
L 156.085102 80.875087 
z
" style="fill:#0000ff;"/>
   </g>
   <g id="patch_12">
    <path clip-path="url(#p6e3d09d279)" d="M 157.955421 76.557606 
L 156.14892 71.902713 
L 154.228378 76.557606 
L 157.955421 76.557606 
z
M 155.306577 70.337311 
L 157.128629 70.337311 
L 161.446608 80.875087 
L 159.678984 80.875087 
L 158.473786 77.719033 
L 153.767034 77.719033 
L 152.478897 80.875087 
L 150.827906 80.875087 
L 155.306577 70.337311 
z
M 156.141144 70.337311 
L 156.141144 70.337311 
z
" style="fill:#008000;"/>
   </g>
   <g id="patch_13">
    <path clip-path="url(#p6e3d09d279)" d="M 167.481942 56.092892 
Q 169.120068 56.092892 170.315115 57.656661 
Q 172.04692 59.902233 172.434298 65.5318 
L 170.877192 65.5318 
Q 170.59109 62.385497 169.697336 60.94683 
Q 168.803583 59.508163 167.441432 59.508163 
Q 165.828625 59.508163 164.724725 62.504344 
Q 163.620826 65.494269 163.620826 71.417825 
Q 163.620826 76.534476 164.52977 79.749584 
Q 165.441247 82.964693 167.497133 82.964693 
Q 169.071962 82.964693 170.104969 80.712866 
Q 171.137976 78.454784 171.160763 73.406939 
L 167.522452 73.406939 
L 167.522452 70.185575 
L 172.624189 70.185575 
L 172.624189 85.548038 
L 171.611437 85.548038 
L 171.231655 81.851289 
Q 170.434113 84.0218 169.816335 84.866235 
Q 168.778264 86.311157 167.180648 86.311157 
Q 165.117166 86.311157 163.628421 83.008478 
Q 162.005487 78.861364 162.005487 71.630497 
Q 162.005487 64.418396 163.587911 60.158691 
Q 165.091848 56.092892 167.481942 56.092892 
z
M 167.221158 56.049107 
L 167.221158 56.049107 
z
" style="fill:#ffa600;"/>
   </g>
   <g id="patch_14">
    <path clip-path="url(#p6e3d09d279)" d="M 178.766231 80.875087 
Q 181.040177 80.875087 182.294498 81.392273 
Q 183.548819 81.908334 183.68703 82.564935 
L 182.106741 82.564935 
Q 181.838145 82.066863 181.034962 81.775665 
Q 180.231779 81.483342 178.781878 81.483342 
Q 177.013832 81.483342 175.926406 82.019641 
Q 174.83898 82.554816 174.83898 83.661143 
Q 174.83898 84.568467 175.819489 85.132874 
Q 176.802606 85.696156 178.750585 85.696156 
Q 180.5421 85.696156 181.480885 85.102517 
Q 181.976355 84.789957 182.221482 84.279518 
L 183.80177 84.279518 
Q 183.590543 85.094647 182.401416 85.646686 
Q 180.974984 86.311157 178.555005 86.311157 
Q 176.468816 86.311157 175.050207 85.765864 
Q 173.183068 85.046301 173.183068 83.541966 
Q 173.183068 82.400785 174.58603 81.669979 
Q 176.101125 80.875087 178.766231 80.875087 
z
M 178.440264 80.875087 
L 178.440264 80.875087 
z
" style="fill:#0000ff;"/>
   </g>
   <g id="patch_15">
    <path clip-path="url(#p6e3d09d279)" d="M 180.310583 70.113424 
L 178.504082 58.510738 
L 176.583541 70.113424 
L 180.310583 70.113424 
z
M 177.661739 54.608848 
L 179.483791 54.608848 
L 183.80177 80.875087 
L 182.034146 80.875087 
L 180.828948 73.008374 
L 176.122196 73.008374 
L 174.83406 80.875087 
L 173.183068 80.875087 
L 177.661739 54.608848 
z
M 178.496307 54.608848 
L 178.496307 54.608848 
z
" style="fill:#008000;"/>
   </g>
   <g id="patch_16">
    <path clip-path="url(#p6e3d09d279)" d="M 189.943812 70.967279 
Q 192.217758 70.967279 193.472079 72.42709 
Q 194.726401 73.883727 194.864611 75.737051 
L 193.284322 75.737051 
Q 193.015726 74.33119 192.212543 73.509254 
Q 191.40936 72.684143 189.959459 72.684143 
Q 188.191414 72.684143 187.103988 74.197903 
Q 186.016561 75.70849 186.016561 78.831215 
Q 186.016561 81.392231 186.99707 82.985328 
Q 187.980187 84.575252 189.928166 84.575252 
Q 191.719681 84.575252 192.658466 82.899644 
Q 193.153936 82.01741 193.399063 80.576641 
L 194.979351 80.576641 
Q 194.768124 82.877429 193.578997 84.435618 
Q 192.152565 86.311157 189.732586 86.311157 
Q 187.646397 86.311157 186.227788 84.772009 
Q 184.360649 82.740969 184.360649 78.494824 
Q 184.360649 75.27372 185.763611 73.210944 
Q 187.278706 70.967279 189.943812 70.967279 
z
M 189.617845 70.967279 
L 189.617845 70.967279 
z
" style="fill:#0000ff;"/>
   </g>
   <g id="patch_17">
    <path clip-path="url(#p6e3d09d279)" d="M 191.488164 63.737287 
L 189.681663 55.942271 
L 187.761122 63.737287 
L 191.488164 63.737287 
z
M 188.83932 53.32087 
L 190.661373 53.32087 
L 194.979351 70.967279 
L 193.211727 70.967279 
L 192.006529 65.682197 
L 187.299777 65.682197 
L 186.011641 70.967279 
L 184.360649 70.967279 
L 188.83932 53.32087 
z
M 189.673888 53.32087 
L 189.673888 53.32087 
z
" style="fill:#008000;"/>
   </g>
   <g id="patch_18">
    <path clip-path="url(#p6e3d09d279)" d="M 202.665746 80.024546 
L 200.859244 73.246635 
L 198.938703 80.024546 
L 202.665746 80.024546 
z
M 200.016902 70.967279 
L 201.838954 70.967279 
L 206.156932 86.311157 
L 204.389308 86.311157 
L 203.18411 81.715681 
L 198.477358 81.715681 
L 197.189222 86.311157 
L 195.53823 86.311157 
L 200.016902 70.967279 
z
M 200.851469 70.967279 
L 200.851469 70.967279 
z
" style="fill:#008000;"/>
   </g>
   <g id="patch_19">
    <path clip-path="url(#p6e3d09d279)" d="M 213.843327 80.994855 
L 212.036825 75.263084 
L 210.116284 80.994855 
L 213.843327 80.994855 
z
M 211.194483 73.335536 
L 213.016535 73.335536 
L 217.334513 86.311157 
L 215.566889 86.311157 
L 214.361691 82.424971 
L 209.654939 82.424971 
L 208.366803 86.311157 
L 206.715811 86.311157 
L 211.194483 73.335536 
z
M 212.02905 73.335536 
L 212.02905 73.335536 
z
" style="fill:#008000;"/>
   </g>
   <g id="patch_20">
    <path clip-path="url(#p6e3d09d279)" d="M 212.298975 55.689127 
Q 214.572921 55.689127 215.827242 57.367999 
Q 217.081563 59.043222 217.219773 61.17466 
L 215.639485 61.17466 
Q 215.370888 59.557833 214.567705 58.612555 
Q 213.764522 57.663627 212.314621 57.663627 
Q 210.546576 57.663627 209.45915 59.404544 
Q 208.371724 61.141812 208.371724 64.733139 
Q 208.371724 67.678466 209.352233 69.510626 
Q 210.335349 71.339137 212.283328 71.339137 
Q 214.074843 71.339137 215.013628 69.412084 
Q 215.509098 68.397461 215.754225 66.740487 
L 217.334513 66.740487 
Q 217.123287 69.386536 215.934159 71.17855 
Q 214.507727 73.335536 212.087748 73.335536 
Q 210.001559 73.335536 208.58295 71.56542 
Q 206.715811 69.229598 206.715811 64.346269 
Q 206.715811 60.6418 208.118773 58.269481 
Q 209.633868 55.689127 212.298975 55.689127 
z
M 211.973008 55.689127 
L 211.973008 55.689127 
z
" style="fill:#0000ff;"/>
   </g>
   <g id="patch_21">
    <path clip-path="url(#p6e3d09d279)" d="M 223.476556 80.875087 
Q 225.750502 80.875087 227.004823 81.392273 
Q 228.259144 81.908334 228.397354 82.564935 
L 226.817066 82.564935 
Q 226.548469 82.066863 225.745286 81.775665 
Q 224.942103 81.483342 223.492202 81.483342 
Q 221.724157 81.483342 220.636731 82.019641 
Q 219.549305 82.554816 219.549305 83.661143 
Q 219.549305 84.568467 220.529814 85.132874 
Q 221.51293 85.696156 223.460909 85.696156 
Q 225.252424 85.696156 226.191209 85.102517 
Q 226.686679 84.789957 226.931806 84.279518 
L 228.512094 84.279518 
Q 228.300868 85.094647 227.11174 85.646686 
Q 225.685308 86.311157 223.265329 86.311157 
Q 221.17914 86.311157 219.760531 85.765864 
Q 217.893392 85.046301 217.893392 83.541966 
Q 217.893392 82.400785 219.296354 81.669979 
Q 220.811449 80.875087 223.476556 80.875087 
z
M 223.150589 80.875087 
L 223.150589 80.875087 
z
" style="fill:#0000ff;"/>
   </g>
   <g id="patch_22">
    <path clip-path="url(#p6e3d09d279)" d="M 225.020908 77.586665 
L 223.214407 74.041252 
L 221.293865 77.586665 
L 225.020908 77.586665 
z
M 222.372064 72.848958 
L 224.194116 72.848958 
L 228.512094 80.875087 
L 226.744471 80.875087 
L 225.539273 78.47127 
L 220.832521 78.47127 
L 219.544384 80.875087 
L 217.893392 80.875087 
L 222.372064 72.848958 
z
M 223.206631 72.848958 
L 223.206631 72.848958 
z
" style="fill:#008000;"/>
   </g>
   <g id="patch_23">
    <path clip-path="url(#p6e3d09d279)" d="M 234.547429 83.552608 
Q 236.185554 83.552608 237.380602 83.69536 
Q 239.112407 83.900353 239.499785 84.414262 
L 237.942679 84.414262 
Q 237.656576 84.127044 236.762823 83.995711 
Q 235.86907 83.864379 234.506918 83.864379 
Q 232.894111 83.864379 231.790212 84.137893 
Q 230.686312 84.410836 230.686312 84.951582 
Q 230.686312 85.418669 231.595257 85.712168 
Q 232.506734 86.005667 234.56262 86.005667 
Q 236.137449 86.005667 237.170456 85.800103 
Q 238.203462 85.593969 238.226249 85.133164 
L 234.587939 85.133164 
L 234.587939 84.839093 
L 239.689676 84.839093 
L 239.689676 86.241494 
L 238.676924 86.241494 
L 238.297142 85.904027 
Q 237.4996 86.102168 236.881821 86.179254 
Q 235.843751 86.311157 234.246135 86.311157 
Q 232.182653 86.311157 230.693908 86.009664 
Q 229.070973 85.631084 229.070973 84.970997 
Q 229.070973 84.312622 230.653398 83.923764 
Q 232.157334 83.552608 234.547429 83.552608 
z
M 234.286645 83.54861 
L 234.286645 83.54861 
z
" style="fill:#ffa600;"/>
   </g>
   <g id="patch_24">
    <path clip-path="url(#p6e3d09d279)" d="M 234.654137 70.572989 
Q 236.928083 70.572989 238.182404 71.807484 
Q 239.436725 73.039296 239.574935 74.606569 
L 237.994647 74.606569 
Q 237.72605 73.417696 236.922867 72.722621 
Q 236.119685 72.024863 234.669783 72.024863 
Q 232.901738 72.024863 231.814312 73.304981 
Q 230.726886 74.582416 230.726886 77.223163 
Q 230.726886 79.388897 231.707395 80.736108 
Q 232.690511 82.080634 234.63849 82.080634 
Q 236.430005 82.080634 237.36879 80.663648 
Q 237.86426 79.917583 238.109387 78.69919 
L 239.689676 78.69919 
Q 239.478449 80.644862 238.289321 81.962552 
Q 236.862889 83.54861 234.44291 83.54861 
Q 232.356721 83.54861 230.938113 82.247023 
Q 229.070973 80.529464 229.070973 76.938692 
Q 229.070973 74.214751 230.473936 72.470355 
Q 231.98903 70.572989 234.654137 70.572989 
z
M 234.32817 70.572989 
L 234.32817 70.572989 
z
" style="fill:#0000ff;"/>
   </g>
   <g id="patch_25">
    <path clip-path="url(#p6e3d09d279)" d="M 245.72501 83.552608 
Q 247.363136 83.552608 248.558183 83.69536 
Q 250.289988 83.900353 250.677366 84.414262 
L 249.12026 84.414262 
Q 248.834158 84.127044 247.940404 83.995711 
Q 247.046651 83.864379 245.6845 83.864379 
Q 244.071692 83.864379 242.967793 84.137893 
Q 241.863894 84.410836 241.863894 84.951582 
Q 241.863894 85.418669 242.772838 85.712168 
Q 243.684315 86.005667 245.740201 86.005667 
Q 247.31503 86.005667 248.348037 85.800103 
Q 249.381043 85.593969 249.40383 85.133164 
L 245.76552 85.133164 
L 245.76552 84.839093 
L 250.867257 84.839093 
L 250.867257 86.241494 
L 249.854505 86.241494 
L 249.474723 85.904027 
Q 248.677181 86.102168 248.059402 86.179254 
Q 247.021332 86.311157 245.423716 86.311157 
Q 243.360234 86.311157 241.871489 86.009664 
Q 240.248555 85.631084 240.248555 84.970997 
Q 240.248555 84.312622 241.830979 83.923764 
Q 243.334916 83.552608 245.72501 83.552608 
z
M 245.464226 83.54861 
L 245.464226 83.54861 
z
" style="fill:#ffa600;"/>
   </g>
   <g id="patch_26">
    <path clip-path="url(#p6e3d09d279)" d="M 247.37607 79.231129 
L 245.569569 74.576237 
L 243.649027 79.231129 
L 247.37607 79.231129 
z
M 244.727226 73.010834 
L 246.549278 73.010834 
L 250.867257 83.54861 
L 249.099633 83.54861 
L 247.894435 80.392557 
L 243.187683 80.392557 
L 241.899546 83.54861 
L 240.248555 83.54861 
L 244.727226 73.010834 
z
M 245.561793 73.010834 
L 245.561793 73.010834 
z
" style="fill:#008000;"/>
   </g>
   <g id="patch_27">
    <path clip-path="url(#p6e3d09d279)" d="M 257.009299 75.773381 
Q 259.283245 75.773381 260.537566 76.775941 
Q 261.791887 77.776321 261.930097 79.049137 
L 260.349809 79.049137 
Q 260.081212 78.083628 259.27803 77.519143 
Q 258.474847 76.952479 257.024945 76.952479 
Q 255.2569 76.952479 254.169474 77.99209 
Q 253.082048 79.029521 253.082048 81.174128 
Q 253.082048 82.932966 254.062557 84.027064 
Q 255.045674 85.118983 256.993653 85.118983 
Q 258.785167 85.118983 259.723952 83.968219 
Q 260.219422 83.362324 260.46455 82.372841 
L 262.044838 82.372841 
Q 261.833611 83.952962 260.644483 85.023086 
Q 259.218052 86.311157 256.798072 86.311157 
Q 254.711883 86.311157 253.293275 85.254111 
Q 251.426136 83.859245 251.426136 80.943103 
Q 251.426136 78.730933 252.829098 77.314272 
Q 254.344193 75.773381 257.009299 75.773381 
z
M 256.683332 75.773381 
L 256.683332 75.773381 
z
" style="fill:#0000ff;"/>
   </g>
   <g id="patch_28">
    <path clip-path="url(#p6e3d09d279)" d="M 256.902591 65.250852 
Q 258.540717 65.250852 259.735764 65.795383 
Q 261.467569 66.577331 261.854947 68.537645 
L 260.297841 68.537645 
Q 260.011739 67.442047 259.117985 66.941078 
Q 258.224232 66.440109 256.862081 66.440109 
Q 255.249274 66.440109 254.145374 67.483431 
Q 253.041475 68.524576 253.041475 70.587262 
Q 253.041475 72.368969 253.950419 73.488526 
Q 254.861896 74.608083 256.917782 74.608083 
Q 258.492611 74.608083 259.525618 73.823958 
Q 260.558625 73.037654 260.581411 71.279906 
L 256.943101 71.279906 
L 256.943101 70.158171 
L 262.044838 70.158171 
L 262.044838 75.50765 
L 261.032086 75.50765 
L 260.652304 74.220377 
Q 259.854762 74.976187 259.236984 75.270234 
Q 258.198913 75.773381 256.601297 75.773381 
Q 254.537815 75.773381 253.04907 74.62333 
Q 251.426136 73.179232 251.426136 70.661318 
Q 251.426136 68.149938 253.00856 66.666634 
Q 254.512497 65.250852 256.902591 65.250852 
z
M 256.641807 65.235605 
L 256.641807 65.235605 
z
" style="fill:#ffa600;"/>
   </g>
   <g id="patch_29">
    <path clip-path="url(#p6e3d09d279)" d="M 258.553651 59.919302 
L 256.74715 54.187531 
L 254.826609 59.919302 
L 258.553651 59.919302 
z
M 255.904807 52.259983 
L 257.726859 52.259983 
L 262.044838 65.235605 
L 260.277214 65.235605 
L 259.072016 61.349419 
L 254.365264 61.349419 
L 253.077127 65.235605 
L 251.426136 65.235605 
L 255.904807 52.259983 
z
M 256.739374 52.259983 
L 256.739374 52.259983 
z
" style="fill:#008000;"/>
   </g>
   <g id="patch_30">
    <path clip-path="url(#p6e3d09d279)" d="M 269.731232 83.022735 
L 267.924731 79.477322 
L 266.00419 83.022735 
L 269.731232 83.022735 
z
M 267.082388 78.285029 
L 268.90444 78.285029 
L 273.222419 86.311157 
L 271.454795 86.311157 
L 270.249597 83.90734 
L 265.542845 83.90734 
L 264.254709 86.311157 
L 262.603717 86.311157 
L 267.082388 78.285029 
z
M 267.916956 78.285029 
L 267.916956 78.285029 
z
" style="fill:#008000;"/>
   </g>
   <g id="patch_31">
    <path clip-path="url(#p6e3d09d279)" d="M 268.18688 48.022978 
Q 270.460826 48.022978 271.715147 50.902097 
Q 272.969468 53.774958 273.107678 57.430188 
L 271.52739 57.430188 
Q 271.258793 54.657471 270.455611 53.036401 
Q 269.652428 51.409073 268.202527 51.409073 
Q 266.434481 51.409073 265.347055 54.394595 
Q 264.259629 57.373858 264.259629 63.53267 
Q 264.259629 68.583647 265.240138 71.725643 
Q 266.223255 74.86138 268.171234 74.86138 
Q 269.962749 74.86138 270.901534 71.556651 
Q 271.397003 69.816662 271.642131 66.975096 
L 273.222419 66.975096 
Q 273.011192 71.512839 271.822065 74.585986 
Q 270.395633 78.285029 267.975654 78.285029 
Q 265.889465 78.285029 264.470856 75.249435 
Q 262.603717 71.243704 262.603717 62.869221 
Q 262.603717 56.516381 264.006679 52.44806 
Q 265.521774 48.022978 268.18688 48.022978 
z
M 267.860913 48.022978 
L 267.860913 48.022978 
z
" style="fill:#0000ff;"/>
   </g>
   <g id="patch_32">
    <path clip-path="url(#p6e3d09d279)" d="M 280.908813 80.994855 
L 279.102312 75.263084 
L 277.181771 80.994855 
L 280.908813 80.994855 
z
M 278.259969 73.335536 
L 280.082022 73.335536 
L 284.4 86.311157 
L 282.632376 86.311157 
L 281.427178 82.424971 
L 276.720426 82.424971 
L 275.43229 86.311157 
L 273.781298 86.311157 
L 278.259969 73.335536 
z
M 279.094537 73.335536 
L 279.094537 73.335536 
z
" style="fill:#008000;"/>
   </g>
   <g id="patch_33">
    <path clip-path="url(#p6e3d09d279)" d="M 100.523163 110.458248 
Q 102.797109 110.458248 104.051431 109.309576 
Q 105.305752 108.163401 105.443962 106.705086 
L 103.863673 106.705086 
Q 103.595077 107.811308 102.791894 108.45806 
Q 101.988711 109.10731 100.53881 109.10731 
Q 98.770765 109.10731 97.683339 107.916186 
Q 96.595913 106.72756 96.595913 104.2704 
Q 96.595913 102.255229 97.576421 101.001678 
Q 98.559538 99.750624 100.507517 99.750624 
Q 102.299032 99.750624 103.237817 101.0691 
Q 103.733287 101.763298 103.978414 102.896988 
L 105.558702 102.896988 
Q 105.347475 101.08658 104.158348 99.860497 
Q 102.731916 98.384703 100.311937 98.384703 
Q 98.225748 98.384703 96.807139 99.595803 
Q 94.94 101.193956 94.94 104.535094 
Q 94.94 107.069665 96.342962 108.692789 
Q 97.858057 110.458248 100.523163 110.458248 
z
M 100.197196 110.458248 
L 100.197196 110.458248 
z
" style="fill:none;opacity:0;"/>
   </g>
   <g id="patch_34">
    <path clip-path="url(#p6e3d09d279)" d="M 100.416455 98.367234 
Q 102.054581 98.367234 103.249628 97.743343 
Q 104.981434 96.847435 105.368811 94.601426 
L 103.811705 94.601426 
Q 103.525603 95.856695 102.63185 96.430675 
Q 101.738096 97.004655 100.375945 97.004655 
Q 98.763138 97.004655 97.659238 95.809279 
Q 96.555339 94.616399 96.555339 92.253099 
Q 96.555339 90.211726 97.464284 88.929006 
Q 98.37576 87.646285 100.431646 87.646285 
Q 102.006475 87.646285 103.039482 88.544688 
Q 104.072489 89.445588 104.095276 91.459509 
L 100.456965 91.459509 
L 100.456965 92.744725 
L 105.558702 92.744725 
L 105.558702 86.615616 
L 104.54595 86.615616 
L 104.166168 88.090496 
Q 103.368626 87.224534 102.750848 86.887633 
Q 101.712777 86.311157 100.115161 86.311157 
Q 98.05168 86.311157 96.562935 87.628816 
Q 94.94 89.283376 94.94 92.168249 
Q 94.94 95.045636 96.522425 96.745116 
Q 98.026361 98.367234 100.416455 98.367234 
z
M 100.155671 98.384703 
L 100.155671 98.384703 
z
" style="fill:none;opacity:0;"/>
   </g>
   <g id="patch_35">
    <path clip-path="url(#p6e3d09d279)" d="M 105.558702 132.900669 
L 105.558702 130.226741 
L 101.148734 130.226741 
L 101.148734 110.458248 
L 99.349968 110.458248 
L 99.349968 130.226741 
L 94.94 130.226741 
L 94.94 132.900669 
L 105.558702 132.900669 
z
" style="fill:none;opacity:0;"/>
   </g>
   <g id="patch_36">
    <path clip-path="url(#p6e3d09d279)" d="M 111.594036 132.629758 
Q 113.232162 132.629758 114.427209 130.857606 
Q 116.159015 128.312797 116.546392 121.933052 
L 114.989286 121.933052 
Q 114.703184 125.49862 113.809431 127.129 
Q 112.915677 128.759379 111.553526 128.759379 
Q 109.940719 128.759379 108.83682 125.363937 
Q 107.73292 121.975583 107.73292 115.262674 
Q 107.73292 109.464194 108.641865 105.82065 
Q 109.553341 102.177107 111.609227 102.177107 
Q 113.184056 102.177107 114.217063 104.729005 
Q 115.25007 107.287992 115.272857 113.008497 
L 111.634546 113.008497 
L 111.634546 116.659129 
L 116.736283 116.659129 
L 116.736283 99.249513 
L 115.723531 99.249513 
L 115.34375 103.438879 
Q 114.546208 100.979133 113.928429 100.022171 
Q 112.890358 98.384703 111.292743 98.384703 
Q 109.229261 98.384703 107.740516 102.127487 
Q 106.117581 106.827233 106.117581 115.021661 
Q 106.117581 123.194823 107.700006 128.022164 
Q 109.203942 132.629758 111.594036 132.629758 
z
M 111.333253 132.679378 
L 111.333253 132.679378 
z
" style="fill:none;opacity:0;"/>
   </g>
   <g id="patch_37">
    <path clip-path="url(#p6e3d09d279)" d="M 116.736283 98.384703 
L 116.736283 96.946186 
L 112.326315 96.946186 
L 112.326315 86.311157 
L 110.527549 86.311157 
L 110.527549 96.946186 
L 106.117581 96.946186 
L 106.117581 98.384703 
L 116.736283 98.384703 
z
" style="fill:none;opacity:0;"/>
   </g>
   <g id="patch_38">
    <path clip-path="url(#p6e3d09d279)" d="M 122.878326 98.384703 
Q 125.152272 98.384703 126.406593 97.236031 
Q 127.660914 96.089855 127.799124 94.631541 
L 126.218836 94.631541 
Q 125.950239 95.737762 125.147056 96.384515 
Q 124.343873 97.033764 122.893972 97.033764 
Q 121.125927 97.033764 120.038501 95.842641 
Q 118.951075 94.654015 118.951075 92.196855 
Q 118.951075 90.181684 119.931584 88.928133 
Q 120.9147 87.677079 122.862679 87.677079 
Q 124.654194 87.677079 125.592979 88.995555 
Q 126.088449 89.689752 126.333576 90.823442 
L 127.913864 90.823442 
Q 127.702638 89.013035 126.51351 87.786952 
Q 125.087078 86.311157 122.667099 86.311157 
Q 120.58091 86.311157 119.162301 87.522258 
Q 117.295162 89.120411 117.295162 92.461549 
Q 117.295162 94.996119 118.698124 96.619243 
Q 120.213219 98.384703 122.878326 98.384703 
z
M 122.552359 98.384703 
L 122.552359 98.384703 
z
" style="fill:none;opacity:0;"/>
   </g>
   <g id="patch_39">
    <path clip-path="url(#p6e3d09d279)" d="M 122.771617 141.577415 
Q 124.409743 141.577415 125.60479 139.34223 
Q 127.336596 136.132505 127.723973 128.085839 
L 126.166868 128.085839 
Q 125.880765 132.583031 124.987012 134.639401 
Q 124.093258 136.695771 122.731107 136.695771 
Q 121.1183 136.695771 120.014401 132.413157 
Q 118.910501 128.139484 118.910501 119.672603 
Q 118.910501 112.359079 119.819446 107.763539 
Q 120.730923 103.167998 122.786809 103.167998 
Q 124.361638 103.167998 125.394644 106.386665 
Q 126.427651 109.614272 126.450438 116.829448 
L 122.812127 116.829448 
L 122.812127 121.433929 
L 127.913864 121.433929 
L 127.913864 99.475473 
L 126.901113 99.475473 
L 126.521331 104.75945 
Q 125.723789 101.657014 125.10601 100.450014 
Q 124.06794 98.384703 122.470324 98.384703 
Q 120.406842 98.384703 118.918097 103.105413 
Q 117.295162 109.033123 117.295162 119.368618 
Q 117.295162 129.677291 118.877587 135.765934 
Q 120.381523 141.577415 122.771617 141.577415 
z
M 122.510834 141.64 
L 122.510834 141.64 
z
" style="fill:none;opacity:0;"/>
   </g>
   <g id="patch_40">
    <path clip-path="url(#p6e3d09d279)" d="M 134.055907 95.197656 
Q 136.329853 95.197656 137.584174 94.352198 
Q 138.838495 93.508578 138.976705 92.435214 
L 137.396417 92.435214 
Q 137.12782 93.249427 136.324637 93.725456 
Q 135.521454 94.203324 134.071553 94.203324 
Q 132.303508 94.203324 131.216082 93.326621 
Q 130.128656 92.451755 130.128656 90.643211 
Q 130.128656 89.159983 131.109165 88.237331 
Q 132.092281 87.316517 134.04026 87.316517 
Q 135.831775 87.316517 136.77056 88.286956 
Q 137.26603 88.797907 137.511157 89.632337 
L 139.091445 89.632337 
Q 138.880219 88.299822 137.691091 87.397387 
Q 136.264659 86.311157 133.84468 86.311157 
Q 131.758491 86.311157 130.339883 87.202564 
Q 128.472743 88.378854 128.472743 90.838033 
Q 128.472743 92.703555 129.875705 93.898224 
Q 131.3908 95.197656 134.055907 95.197656 
z
M 133.72994 95.197656 
L 133.72994 95.197656 
z
" style="fill:none;opacity:0;"/>
   </g>
   <g id="patch_41">
    <path clip-path="url(#p6e3d09d279)" d="M 133.949198 132.995525 
Q 135.587324 132.995525 136.782371 131.835829 
Q 138.514177 130.170507 138.901554 125.995604 
L 137.344449 125.995604 
Q 137.058346 128.328911 136.164593 129.395831 
Q 135.270839 130.46275 133.908688 130.46275 
Q 132.295881 130.46275 131.191982 128.240774 
Q 130.088082 126.023437 130.088082 121.630512 
Q 130.088082 117.835989 130.997027 115.451656 
Q 131.908504 113.067323 133.96439 113.067323 
Q 135.539219 113.067323 136.572225 114.737284 
Q 137.605232 116.411883 137.628019 120.155379 
L 133.989709 120.155379 
L 133.989709 122.544352 
L 139.091445 122.544352 
L 139.091445 111.151506 
L 138.078694 111.151506 
L 137.698912 113.893025 
Q 136.90137 112.283369 136.283591 111.657133 
Q 135.245521 110.585575 133.647905 110.585575 
Q 131.584423 110.585575 130.095678 113.034851 
Q 128.472743 116.110363 128.472743 121.472793 
Q 128.472743 126.821307 130.055168 129.980317 
Q 131.559104 132.995525 133.949198 132.995525 
z
M 133.688415 133.027996 
L 133.688415 133.027996 
z
" style="fill:none;opacity:0;"/>
   </g>
   <g id="patch_42">
    <path clip-path="url(#p6e3d09d279)" d="M 139.091445 110.585575 
L 139.091445 108.752163 
L 134.681477 108.752163 
L 134.681477 95.197656 
L 132.882712 95.197656 
L 132.882712 108.752163 
L 128.472743 108.752163 
L 128.472743 110.585575 
L 139.091445 110.585575 
z
" style="fill:none;opacity:0;"/>
   </g>
   <g id="patch_43">
    <path clip-path="url(#p6e3d09d279)" d="M 145.233488 101.242407 
Q 147.507434 101.242407 148.761755 100.093735 
Q 150.016076 98.94756 150.154286 97.489245 
L 148.573998 97.489245 
Q 148.305401 98.595466 147.502218 99.242219 
Q 146.699036 99.891469 145.249134 99.891469 
Q 143.481089 99.891469 142.393663 98.700345 
Q 141.306237 97.511719 141.306237 95.054559 
Q 141.306237 93.039388 142.286746 91.785837 
Q 143.269862 90.534783 145.217841 90.534783 
Q 147.009356 90.534783 147.948141 91.853259 
Q 148.443611 92.547457 148.688738 93.681146 
L 150.269027 93.681146 
Q 150.0578 91.870739 148.868672 90.644656 
Q 147.44224 89.168862 145.022261 89.168862 
Q 142.936072 89.168862 141.517464 90.379962 
Q 139.650324 91.978115 139.650324 95.319253 
Q 139.650324 97.853824 141.053287 99.476948 
Q 142.568381 101.242407 145.233488 101.242407 
z
M 144.907521 101.242407 
L 144.907521 101.242407 
z
" style="fill:none;opacity:0;"/>
   </g>
   <g id="patch_44">
    <path clip-path="url(#p6e3d09d279)" d="M 145.12678 89.164727 
Q 146.764906 89.164727 147.959953 89.017057 
Q 149.691758 88.805004 150.079136 88.273393 
L 148.52203 88.273393 
Q 148.235927 88.570504 147.342174 88.70636 
Q 146.448421 88.842216 145.086269 88.842216 
Q 143.473462 88.842216 142.369563 88.559281 
Q 141.265664 88.276937 141.265664 87.717564 
Q 141.265664 87.234388 142.174608 86.93078 
Q 143.086085 86.627171 145.141971 86.627171 
Q 146.7168 86.627171 147.749807 86.839815 
Q 148.782813 87.05305 148.8056 87.529728 
L 145.16729 87.529728 
L 145.16729 87.833928 
L 150.269027 87.833928 
L 150.269027 86.38322 
L 149.256275 86.38322 
L 148.876493 86.732311 
Q 148.078951 86.527346 147.461172 86.447604 
Q 146.423102 86.311157 144.825486 86.311157 
Q 142.762004 86.311157 141.273259 86.623036 
Q 139.650324 87.014656 139.650324 87.697481 
Q 139.650324 88.378533 141.232749 88.780786 
Q 142.736685 89.164727 145.12678 89.164727 
z
M 144.865996 89.168862 
L 144.865996 89.168862 
z
" style="fill:none;opacity:0;"/>
   </g>
   <g id="patch_45">
    <path clip-path="url(#p6e3d09d279)" d="M 161.446608 105.151375 
L 161.446608 102.906636 
L 157.036639 102.906636 
L 157.036639 86.311157 
L 155.237874 86.311157 
L 155.237874 102.906636 
L 150.827906 102.906636 
L 150.827906 105.151375 
L 161.446608 105.151375 
z
" style="fill:none;opacity:0;"/>
   </g>
   <g id="patch_46">
    <path clip-path="url(#p6e3d09d279)" d="M 169.133002 89.952086 
L 167.326501 93.877553 
L 165.40596 89.952086 
L 169.133002 89.952086 
z
M 166.484158 95.197656 
L 168.30621 95.197656 
L 172.624189 86.311157 
L 170.856565 86.311157 
L 169.651367 88.972655 
L 164.944615 88.972655 
L 163.656478 86.311157 
L 162.005487 86.311157 
L 166.484158 95.197656 
z
M 167.318725 95.197656 
L 167.318725 95.197656 
z
" style="fill:none;opacity:0;"/>
   </g>
   <g id="patch_47">
    <path clip-path="url(#p6e3d09d279)" d="M 167.58865 107.271201 
Q 169.862596 107.271201 171.116917 106.122529 
Q 172.371238 104.976354 172.509448 103.518039 
L 170.92916 103.518039 
Q 170.660563 104.624261 169.857381 105.271013 
Q 169.054198 105.920263 167.604296 105.920263 
Q 165.836251 105.920263 164.748825 104.729139 
Q 163.661399 103.540513 163.661399 101.083353 
Q 163.661399 99.068182 164.641908 97.814631 
Q 165.625025 96.563577 167.573004 96.563577 
Q 169.364518 96.563577 170.303304 97.882053 
Q 170.798773 98.576251 171.043901 99.709941 
L 172.624189 99.709941 
Q 172.412962 97.899533 171.223834 96.67345 
Q 169.797403 95.197656 167.377423 95.197656 
Q 165.291234 95.197656 163.872626 96.408756 
Q 162.005487 98.006909 162.005487 101.348047 
Q 162.005487 103.882618 163.408449 105.505742 
Q 164.923544 107.271201 167.58865 107.271201 
z
M 167.262683 107.271201 
L 167.262683 107.271201 
z
" style="fill:none;opacity:0;"/>
   </g>
   <g id="patch_48">
    <path clip-path="url(#p6e3d09d279)" d="M 172.624189 126.111419 
L 172.624189 123.866679 
L 168.21422 123.866679 
L 168.21422 107.271201 
L 166.415455 107.271201 
L 166.415455 123.866679 
L 162.005487 123.866679 
L 162.005487 126.111419 
L 172.624189 126.111419 
z
" style="fill:none;opacity:0;"/>
   </g>
   <g id="patch_49">
    <path clip-path="url(#p6e3d09d279)" d="M 178.659523 128.494006 
Q 180.297649 128.494006 181.492696 126.935876 
Q 183.224501 124.698401 183.611879 119.089134 
L 182.054773 119.089134 
Q 181.768671 122.224091 180.874917 123.657571 
Q 179.981164 125.09105 178.619013 125.09105 
Q 177.006206 125.09105 175.902306 122.105673 
Q 174.798407 119.126529 174.798407 113.224332 
Q 174.798407 108.126131 175.707352 104.922616 
Q 176.618828 101.719101 178.674714 101.719101 
Q 180.249543 101.719101 181.28255 103.962808 
Q 182.315557 106.212748 182.338344 111.242391 
L 178.700033 111.242391 
L 178.700033 114.452139 
L 183.80177 114.452139 
L 183.80177 99.14507 
L 182.789018 99.14507 
L 182.409236 102.828489 
Q 181.611694 100.665805 180.993916 99.824415 
Q 179.955845 98.384703 178.358229 98.384703 
Q 176.294748 98.384703 174.806003 101.675473 
Q 173.183068 105.807634 173.183068 113.012427 
Q 173.183068 120.198522 174.765492 124.442868 
Q 176.269429 128.494006 178.659523 128.494006 
z
M 178.398739 128.537634 
L 178.398739 128.537634 
z
" style="fill:none;opacity:0;"/>
   </g>
   <g id="patch_50">
    <path clip-path="url(#p6e3d09d279)" d="M 183.80177 98.384703 
L 183.80177 96.946186 
L 179.391802 96.946186 
L 179.391802 86.311157 
L 177.593036 86.311157 
L 177.593036 96.946186 
L 173.183068 96.946186 
L 173.183068 98.384703 
L 183.80177 98.384703 
z
" style="fill:none;opacity:0;"/>
   </g>
   <g id="patch_51">
    <path clip-path="url(#p6e3d09d279)" d="M 189.837104 105.124116 
Q 191.47523 105.124116 192.670277 104.150562 
Q 194.402083 102.752538 194.78946 99.247744 
L 193.232354 99.247744 
Q 192.946252 101.206534 192.052498 102.102204 
Q 191.158745 102.997874 189.796594 102.997874 
Q 188.183787 102.997874 187.079887 101.132544 
Q 185.975988 99.271109 185.975988 95.583286 
Q 185.975988 92.397817 186.884933 90.39619 
Q 187.796409 88.394563 189.852295 88.394563 
Q 191.427124 88.394563 192.460131 89.796481 
Q 193.493138 91.202293 193.515925 94.344925 
L 189.877614 94.344925 
L 189.877614 96.350447 
L 194.979351 96.350447 
L 194.979351 86.786252 
L 193.966599 86.786252 
L 193.586817 89.087734 
Q 192.789275 87.736441 192.171497 87.210721 
Q 191.133426 86.311157 189.53581 86.311157 
Q 187.472329 86.311157 185.983584 88.367304 
Q 184.360649 90.949169 184.360649 95.450883 
Q 184.360649 99.940914 185.943074 102.592875 
Q 187.44701 105.124116 189.837104 105.124116 
z
M 189.57632 105.151375 
L 189.57632 105.151375 
z
" style="fill:none;opacity:0;"/>
   </g>
   <g id="patch_52">
    <path clip-path="url(#p6e3d09d279)" d="M 194.979351 127.593796 
L 194.979351 124.919868 
L 190.569383 124.919868 
L 190.569383 105.151375 
L 188.770617 105.151375 
L 188.770617 124.919868 
L 184.360649 124.919868 
L 184.360649 127.593796 
L 194.979351 127.593796 
z
" style="fill:none;opacity:0;"/>
   </g>
   <g id="patch_53">
    <path clip-path="url(#p6e3d09d279)" d="M 206.156932 105.151375 
L 206.156932 102.906636 
L 201.746964 102.906636 
L 201.746964 86.311157 
L 199.948198 86.311157 
L 199.948198 102.906636 
L 195.53823 102.906636 
L 195.53823 105.151375 
L 206.156932 105.151375 
z
" style="fill:none;opacity:0;"/>
   </g>
   <g id="patch_54">
    <path clip-path="url(#p6e3d09d279)" d="M 212.192266 95.184798 
Q 213.830392 95.184798 215.025439 94.725595 
Q 216.757245 94.066179 217.144622 92.413048 
L 215.587517 92.413048 
Q 215.301414 93.336965 214.407661 93.759432 
Q 213.513907 94.181899 212.151756 94.181899 
Q 210.538949 94.181899 209.43505 93.302065 
Q 208.33115 92.424069 208.33115 90.684608 
Q 208.33115 89.182095 209.240095 88.237974 
Q 210.151572 87.293852 212.207458 87.293852 
Q 213.782287 87.293852 214.815293 87.955105 
Q 215.8483 88.618194 215.871087 90.100501 
L 212.232776 90.100501 
L 212.232776 91.04646 
L 217.334513 91.04646 
L 217.334513 86.535249 
L 216.321762 86.535249 
L 215.94198 87.620805 
Q 215.144438 86.983431 214.526659 86.735461 
Q 213.488589 86.311157 211.890973 86.311157 
Q 209.827491 86.311157 208.338746 87.280994 
Q 206.715811 88.498801 206.715811 90.622156 
Q 206.715811 92.740001 208.298236 93.99087 
Q 209.802172 95.184798 212.192266 95.184798 
z
M 211.931483 95.197656 
L 211.931483 95.197656 
z
" style="fill:none;opacity:0;"/>
   </g>
   <g id="patch_55">
    <path clip-path="url(#p6e3d09d279)" d="M 217.334513 125.350586 
L 217.334513 121.757981 
L 212.924545 121.757981 
L 212.924545 95.197656 
L 211.12578 95.197656 
L 211.12578 121.757981 
L 206.715811 121.757981 
L 206.715811 125.350586 
L 217.334513 125.350586 
z
" style="fill:none;opacity:0;"/>
   </g>
   <g id="patch_56">
    <path clip-path="url(#p6e3d09d279)" d="M 223.369847 92.120096 
Q 225.007973 92.120096 226.20302 91.819489 
Q 227.934826 91.387816 228.322203 90.30563 
L 226.765098 90.30563 
Q 226.478995 90.910452 225.585242 91.187011 
Q 224.691488 91.463569 223.329337 91.463569 
Q 221.71653 91.463569 220.612631 90.887606 
Q 219.508731 90.312844 219.508731 89.174143 
Q 219.508731 88.190555 220.417676 87.572506 
Q 221.329153 86.954457 223.385039 86.954457 
Q 224.959868 86.954457 225.992874 87.387332 
Q 227.025881 87.821409 227.048668 88.79177 
L 223.410357 88.79177 
L 223.410357 89.411022 
L 228.512094 89.411022 
L 228.512094 86.457854 
L 227.499343 86.457854 
L 227.119561 87.16849 
Q 226.322019 86.751247 225.70424 86.588919 
Q 224.66617 86.311157 223.068554 86.311157 
Q 221.005072 86.311157 219.516327 86.94604 
Q 217.893392 87.743251 217.893392 89.13326 
Q 217.893392 90.519662 219.475817 91.338517 
Q 220.979753 92.120096 223.369847 92.120096 
z
M 223.109064 92.128513 
L 223.109064 92.128513 
z
" style="fill:none;opacity:0;"/>
   </g>
   <g id="patch_57">
    <path clip-path="url(#p6e3d09d279)" d="M 228.512094 101.015012 
L 228.512094 99.956219 
L 224.102126 99.956219 
L 224.102126 92.128513 
L 222.303361 92.128513 
L 222.303361 99.956219 
L 217.893392 99.956219 
L 217.893392 101.015012 
L 228.512094 101.015012 
z
" style="fill:none;opacity:0;"/>
   </g>
   <g id="patch_58">
    <path clip-path="url(#p6e3d09d279)" d="M 236.198489 87.482001 
L 234.391988 88.744345 
L 232.471446 87.482001 
L 236.198489 87.482001 
z
M 233.549645 89.168862 
L 235.371697 89.168862 
L 239.689676 86.311157 
L 237.922052 86.311157 
L 236.716854 87.167037 
L 232.010102 87.167037 
L 230.721965 86.311157 
L 229.070973 86.311157 
L 233.549645 89.168862 
z
M 234.384212 89.168862 
L 234.384212 89.168862 
z
" style="fill:none;opacity:0;"/>
   </g>
   <g id="patch_59">
    <path clip-path="url(#p6e3d09d279)" d="M 239.689676 104.556781 
L 239.689676 102.723369 
L 235.279707 102.723369 
L 235.279707 89.168862 
L 233.480942 89.168862 
L 233.480942 102.723369 
L 229.070973 102.723369 
L 229.070973 104.556781 
L 239.689676 104.556781 
z
" style="fill:none;opacity:0;"/>
   </g>
   <g id="patch_60">
    <path clip-path="url(#p6e3d09d279)" d="M 245.831718 89.168862 
Q 248.105664 89.168862 249.359985 88.896981 
Q 250.614306 88.625691 250.752516 88.280521 
L 249.172228 88.280521 
Q 248.903631 88.542354 248.100448 88.695434 
Q 247.297266 88.849106 245.847364 88.849106 
Q 244.079319 88.849106 242.991893 88.567178 
Q 241.904467 88.28584 241.904467 87.704251 
Q 241.904467 87.227278 242.884976 86.930573 
Q 243.868093 86.634459 245.816071 86.634459 
Q 247.607586 86.634459 248.546371 86.946531 
Q 249.041841 87.110842 249.286968 87.379176 
L 250.867257 87.379176 
Q 250.65603 86.950669 249.466902 86.660465 
Q 248.040471 86.311157 245.620491 86.311157 
Q 243.534302 86.311157 242.115694 86.597814 
Q 240.248555 86.976083 240.248555 87.766902 
Q 240.248555 88.366813 241.651517 88.750993 
Q 243.166611 89.168862 245.831718 89.168862 
z
M 245.505751 89.168862 
L 245.505751 89.168862 
z
" style="fill:none;opacity:0;"/>
   </g>
   <g id="patch_61">
    <path clip-path="url(#p6e3d09d279)" d="M 250.867257 101.242407 
L 250.867257 99.803891 
L 246.457288 99.803891 
L 246.457288 89.168862 
L 244.658523 89.168862 
L 244.658523 99.803891 
L 240.248555 99.803891 
L 240.248555 101.242407 
L 250.867257 101.242407 
z
" style="fill:none;opacity:0;"/>
   </g>
   <g id="patch_62">
    <path clip-path="url(#p6e3d09d279)" d="M 262.044838 134.437894 
L 262.044838 128.703778 
L 257.634869 128.703778 
L 257.634869 86.311157 
L 255.836104 86.311157 
L 255.836104 128.703778 
L 251.426136 128.703778 
L 251.426136 134.437894 
L 262.044838 134.437894 
z
" style="fill:none;opacity:0;"/>
   </g>
   <g id="patch_63">
    <path clip-path="url(#p6e3d09d279)" d="M 268.080172 98.367234 
Q 269.718298 98.367234 270.913345 97.743343 
Q 272.64515 96.847435 273.032528 94.601426 
L 271.475422 94.601426 
Q 271.18932 95.856695 270.295566 96.430675 
Q 269.401813 97.004655 268.039662 97.004655 
Q 266.426855 97.004655 265.322955 95.809279 
Q 264.219056 94.616399 264.219056 92.253099 
Q 264.219056 90.211726 265.128001 88.929006 
Q 266.039477 87.646285 268.095363 87.646285 
Q 269.670192 87.646285 270.703199 88.544688 
Q 271.736206 89.445588 271.758993 91.459509 
L 268.120682 91.459509 
L 268.120682 92.744725 
L 273.222419 92.744725 
L 273.222419 86.615616 
L 272.209667 86.615616 
L 271.829885 88.090496 
Q 271.032343 87.224534 270.414565 86.887633 
Q 269.376494 86.311157 267.778878 86.311157 
Q 265.715397 86.311157 264.226651 87.628816 
Q 262.603717 89.283376 262.603717 92.168249 
Q 262.603717 95.045636 264.186141 96.745116 
Q 265.690078 98.367234 268.080172 98.367234 
z
M 267.819388 98.384703 
L 267.819388 98.384703 
z
" style="fill:none;opacity:0;"/>
   </g>
   <g id="patch_64">
    <path clip-path="url(#p6e3d09d279)" d="M 273.222419 141.64 
L 273.222419 136.486298 
L 268.812451 136.486298 
L 268.812451 98.384703 
L 267.013685 98.384703 
L 267.013685 136.486298 
L 262.603717 136.486298 
L 262.603717 141.64 
L 273.222419 141.64 
z
" style="fill:none;opacity:0;"/>
   </g>
   <g id="patch_65">
    <path clip-path="url(#p6e3d09d279)" d="M 279.257753 89.164727 
Q 280.895879 89.164727 282.090926 89.017057 
Q 283.822732 88.805004 284.210109 88.273393 
L 282.653003 88.273393 
Q 282.366901 88.570504 281.473147 88.70636 
Q 280.579394 88.842216 279.217243 88.842216 
Q 277.604436 88.842216 276.500536 88.559281 
Q 275.396637 88.276937 275.396637 87.717564 
Q 275.396637 87.234388 276.305582 86.93078 
Q 277.217058 86.627171 279.272944 86.627171 
Q 280.847773 86.627171 281.88078 86.839815 
Q 282.913787 87.05305 282.936574 87.529728 
L 279.298263 87.529728 
L 279.298263 87.833928 
L 284.4 87.833928 
L 284.4 86.38322 
L 283.387248 86.38322 
L 283.007466 86.732311 
Q 282.209924 86.527346 281.592146 86.447604 
Q 280.554075 86.311157 278.956459 86.311157 
Q 276.892978 86.311157 275.404233 86.623036 
Q 273.781298 87.014656 273.781298 87.697481 
Q 273.781298 88.378533 275.363723 88.780786 
Q 276.867659 89.164727 279.257753 89.164727 
z
M 278.996969 89.168862 
L 278.996969 89.168862 
z
" style="fill:none;opacity:0;"/>
   </g>
   <g id="patch_66">
    <path clip-path="url(#p6e3d09d279)" d="M 284.4 101.242407 
L 284.4 99.803891 
L 279.990032 99.803891 
L 279.990032 89.168862 
L 278.191266 89.168862 
L 278.191266 99.803891 
L 273.781298 99.803891 
L 273.781298 101.242407 
L 284.4 101.242407 
z
" style="fill:none;opacity:0;"/>
   </g>
   <g id="matplotlib.axis_1">
    <g id="xtick_1">
     <g id="line2d_2">
      <path clip-path="url(#p6e3d09d279)" d="M 100.249351 141.64 
L 100.249351 28.8 
" style="fill:none;stroke:#cccccc;stroke-linecap:round;stroke-width:0.8;"/>
     </g>
     <g id="text_1">
      <!-- 0 -->
      <g style="fill:#262626;" transform="translate(94.688414 162.986875)scale(0.2 -0.2)">
       <defs>
        <path d="M 1731 4475 
Q 2600 4475 2988 3759 
Q 3288 3206 3288 2244 
Q 3288 1331 3016 734 
Q 2622 -122 1728 -122 
Q 922 -122 528 578 
Q 200 1163 200 2147 
Q 200 2909 397 3456 
Q 766 4475 1731 4475 
z
M 1725 391 
Q 2163 391 2422 778 
Q 2681 1166 2681 2222 
Q 2681 2984 2493 3476 
Q 2306 3969 1766 3969 
Q 1269 3969 1039 3501 
Q 809 3034 809 2125 
Q 809 1441 956 1025 
Q 1181 391 1725 391 
z
" id="Helvetica-30" transform="scale(0.015625)"/>
       </defs>
       <use xlink:href="#Helvetica-30"/>
      </g>
     </g>
    </g>
    <g id="xtick_2">
     <g id="line2d_3">
      <path clip-path="url(#p6e3d09d279)" d="M 212.025162 141.64 
L 212.025162 28.8 
" style="fill:none;stroke:#cccccc;stroke-linecap:round;stroke-width:0.8;"/>
     </g>
     <g id="text_2">
      <!-- 10 -->
      <g style="fill:#262626;" transform="translate(200.903287 162.986875)scale(0.2 -0.2)">
       <defs>
        <path d="M 613 3169 
L 613 3600 
Q 1222 3659 1462 3798 
Q 1703 3938 1822 4456 
L 2266 4456 
L 2266 0 
L 1666 0 
L 1666 3169 
L 613 3169 
z
" id="Helvetica-31" transform="scale(0.015625)"/>
       </defs>
       <use xlink:href="#Helvetica-31"/>
       <use x="55.615234" xlink:href="#Helvetica-30"/>
      </g>
     </g>
    </g>
    <g id="text_3">
     <!-- Position -->
     <g style="fill:#262626;" transform="translate(145.20125 189.089219)scale(0.25 -0.25)">
      <defs>
       <path d="M 547 4591 
L 2613 4591 
Q 3225 4591 3600 4245 
Q 3975 3900 3975 3275 
Q 3975 2738 3640 2339 
Q 3306 1941 2613 1941 
L 1169 1941 
L 1169 0 
L 547 0 
L 547 4591 
z
M 3347 3272 
Q 3347 3778 2972 3959 
Q 2766 4056 2406 4056 
L 1169 4056 
L 1169 2466 
L 2406 2466 
Q 2825 2466 3086 2644 
Q 3347 2822 3347 3272 
z
" id="Helvetica-50" transform="scale(0.015625)"/>
       <path d="M 1741 363 
Q 2300 363 2508 786 
Q 2716 1209 2716 1728 
Q 2716 2197 2566 2491 
Q 2328 2953 1747 2953 
Q 1231 2953 997 2559 
Q 763 2166 763 1609 
Q 763 1075 997 719 
Q 1231 363 1741 363 
z
M 1763 3444 
Q 2409 3444 2856 3012 
Q 3303 2581 3303 1744 
Q 3303 934 2909 406 
Q 2516 -122 1688 -122 
Q 997 -122 590 345 
Q 184 813 184 1600 
Q 184 2444 612 2944 
Q 1041 3444 1763 3444 
z
M 1744 3428 
L 1744 3428 
z
" id="Helvetica-6f" transform="scale(0.015625)"/>
       <path d="M 747 1050 
Q 772 769 888 619 
Q 1100 347 1625 347 
Q 1938 347 2175 483 
Q 2413 619 2413 903 
Q 2413 1119 2222 1231 
Q 2100 1300 1741 1391 
L 1294 1503 
Q 866 1609 663 1741 
Q 300 1969 300 2372 
Q 300 2847 642 3140 
Q 984 3434 1563 3434 
Q 2319 3434 2653 2991 
Q 2863 2709 2856 2384 
L 2325 2384 
Q 2309 2575 2191 2731 
Q 1997 2953 1519 2953 
Q 1200 2953 1036 2831 
Q 872 2709 872 2509 
Q 872 2291 1088 2159 
Q 1213 2081 1456 2022 
L 1828 1931 
Q 2434 1784 2641 1647 
Q 2969 1431 2969 969 
Q 2969 522 2630 197 
Q 2291 -128 1597 -128 
Q 850 -128 539 211 
Q 228 550 206 1050 
L 747 1050 
z
M 1578 3428 
L 1578 3428 
z
" id="Helvetica-73" transform="scale(0.015625)"/>
       <path d="M 413 3331 
L 984 3331 
L 984 0 
L 413 0 
L 413 3331 
z
M 413 4591 
L 984 4591 
L 984 3953 
L 413 3953 
L 413 4591 
z
" id="Helvetica-69" transform="scale(0.015625)"/>
       <path d="M 525 4281 
L 1094 4281 
L 1094 3347 
L 1628 3347 
L 1628 2888 
L 1094 2888 
L 1094 703 
Q 1094 528 1213 469 
Q 1278 434 1431 434 
Q 1472 434 1519 436 
Q 1566 438 1628 444 
L 1628 0 
Q 1531 -28 1426 -40 
Q 1322 -53 1200 -53 
Q 806 -53 665 148 
Q 525 350 525 672 
L 525 2888 
L 72 2888 
L 72 3347 
L 525 3347 
L 525 4281 
z
" id="Helvetica-74" transform="scale(0.015625)"/>
       <path d="M 413 3347 
L 947 3347 
L 947 2872 
Q 1184 3166 1450 3294 
Q 1716 3422 2041 3422 
Q 2753 3422 3003 2925 
Q 3141 2653 3141 2147 
L 3141 0 
L 2569 0 
L 2569 2109 
Q 2569 2416 2478 2603 
Q 2328 2916 1934 2916 
Q 1734 2916 1606 2875 
Q 1375 2806 1200 2600 
Q 1059 2434 1017 2257 
Q 975 2081 975 1753 
L 975 0 
L 413 0 
L 413 3347 
z
M 1734 3428 
L 1734 3428 
z
" id="Helvetica-6e" transform="scale(0.015625)"/>
      </defs>
      <use xlink:href="#Helvetica-50"/>
      <use x="66.699219" xlink:href="#Helvetica-6f"/>
      <use x="122.314453" xlink:href="#Helvetica-73"/>
      <use x="172.314453" xlink:href="#Helvetica-69"/>
      <use x="194.53125" xlink:href="#Helvetica-74"/>
      <use x="222.314453" xlink:href="#Helvetica-69"/>
      <use x="244.53125" xlink:href="#Helvetica-6f"/>
      <use x="300.146484" xlink:href="#Helvetica-6e"/>
     </g>
    </g>
   </g>
   <g id="matplotlib.axis_2">
    <g id="ytick_1">
     <g id="line2d_4">
      <path clip-path="url(#p6e3d09d279)" d="M 94.94 86.311157 
L 284.4 86.311157 
" style="fill:none;stroke:#cccccc;stroke-linecap:round;stroke-width:0.8;"/>
     </g>
     <g id="text_4">
      <!-- 0 -->
      <g style="fill:#262626;" transform="translate(76.818125 93.484595)scale(0.2 -0.2)">
       <use xlink:href="#Helvetica-30"/>
      </g>
     </g>
    </g>
    <g id="ytick_2">
     <g id="line2d_5">
      <path clip-path="url(#p6e3d09d279)" d="M 94.94 71.933368 
L 284.4 71.933368 
" style="fill:none;stroke:#cccccc;stroke-linecap:round;stroke-width:0.8;"/>
     </g>
     <g id="text_5">
      <!-- 0.25 -->
      <g style="fill:#262626;" transform="translate(49.018125 79.106806)scale(0.2 -0.2)">
       <defs>
        <path d="M 547 681 
L 1200 681 
L 1200 0 
L 547 0 
L 547 681 
z
" id="Helvetica-2e" transform="scale(0.015625)"/>
        <path d="M 200 0 
Q 231 578 439 1006 
Q 647 1434 1250 1784 
L 1850 2131 
Q 2253 2366 2416 2531 
Q 2672 2791 2672 3125 
Q 2672 3516 2437 3745 
Q 2203 3975 1813 3975 
Q 1234 3975 1013 3538 
Q 894 3303 881 2888 
L 309 2888 
Q 319 3472 525 3841 
Q 891 4491 1816 4491 
Q 2584 4491 2939 4075 
Q 3294 3659 3294 3150 
Q 3294 2613 2916 2231 
Q 2697 2009 2131 1694 
L 1703 1456 
Q 1397 1288 1222 1134 
Q 909 863 828 531 
L 3272 531 
L 3272 0 
L 200 0 
z
" id="Helvetica-32" transform="scale(0.015625)"/>
        <path d="M 791 1141 
Q 847 659 1238 475 
Q 1438 381 1700 381 
Q 2200 381 2440 700 
Q 2681 1019 2681 1406 
Q 2681 1875 2395 2131 
Q 2109 2388 1709 2388 
Q 1419 2388 1211 2275 
Q 1003 2163 856 1963 
L 369 1991 
L 709 4400 
L 3034 4400 
L 3034 3856 
L 1131 3856 
L 941 2613 
Q 1097 2731 1238 2791 
Q 1488 2894 1816 2894 
Q 2431 2894 2859 2497 
Q 3288 2100 3288 1491 
Q 3288 856 2895 371 
Q 2503 -113 1644 -113 
Q 1097 -113 676 195 
Q 256 503 206 1141 
L 791 1141 
z
" id="Helvetica-35" transform="scale(0.015625)"/>
       </defs>
       <use xlink:href="#Helvetica-30"/>
       <use x="55.615234" xlink:href="#Helvetica-2e"/>
       <use x="83.398438" xlink:href="#Helvetica-32"/>
       <use x="139.013672" xlink:href="#Helvetica-35"/>
      </g>
     </g>
    </g>
    <g id="ytick_3">
     <g id="line2d_6">
      <path clip-path="url(#p6e3d09d279)" d="M 94.94 57.555579 
L 284.4 57.555579 
" style="fill:none;stroke:#cccccc;stroke-linecap:round;stroke-width:0.8;"/>
     </g>
     <g id="text_6">
      <!-- 0.50 -->
      <g style="fill:#262626;" transform="translate(49.018125 64.729016)scale(0.2 -0.2)">
       <use xlink:href="#Helvetica-30"/>
       <use x="55.615234" xlink:href="#Helvetica-2e"/>
       <use x="83.398438" xlink:href="#Helvetica-35"/>
       <use x="139.013672" xlink:href="#Helvetica-30"/>
      </g>
     </g>
    </g>
    <g id="ytick_4">
     <g id="line2d_7">
      <path clip-path="url(#p6e3d09d279)" d="M 94.94 43.177789 
L 284.4 43.177789 
" style="fill:none;stroke:#cccccc;stroke-linecap:round;stroke-width:0.8;"/>
     </g>
     <g id="text_7">
      <!-- 0.75 -->
      <g style="fill:#262626;" transform="translate(49.018125 50.351227)scale(0.2 -0.2)">
       <defs>
        <path d="M 3347 4400 
L 3347 3909 
Q 3131 3700 2773 3181 
Q 2416 2663 2141 2063 
Q 1869 1478 1728 997 
Q 1638 688 1494 0 
L 872 0 
Q 1084 1281 1809 2550 
Q 2238 3294 2709 3834 
L 234 3834 
L 234 4400 
L 3347 4400 
z
" id="Helvetica-37" transform="scale(0.015625)"/>
       </defs>
       <use xlink:href="#Helvetica-30"/>
       <use x="55.615234" xlink:href="#Helvetica-2e"/>
       <use x="83.398438" xlink:href="#Helvetica-37"/>
       <use x="139.013672" xlink:href="#Helvetica-35"/>
      </g>
     </g>
    </g>
    <g id="ytick_5">
     <g id="line2d_8">
      <path clip-path="url(#p6e3d09d279)" d="M 94.94 28.8 
L 284.4 28.8 
" style="fill:none;stroke:#cccccc;stroke-linecap:round;stroke-width:0.8;"/>
     </g>
     <g id="text_8">
      <!-- 1.0 -->
      <g style="fill:#262626;" transform="translate(60.14 35.973438)scale(0.2 -0.2)">
       <use xlink:href="#Helvetica-31"/>
       <use x="55.615234" xlink:href="#Helvetica-2e"/>
       <use x="83.398438" xlink:href="#Helvetica-30"/>
      </g>
     </g>
    </g>
    <g id="text_9">
     <!-- Probability -->
     <g style="fill:#262626;" transform="translate(39.65875 143.579375)rotate(-90)scale(0.25 -0.25)">
      <defs>
       <path d="M 428 3347 
L 963 3347 
L 963 2769 
Q 1028 2938 1284 3180 
Q 1541 3422 1875 3422 
Q 1891 3422 1928 3419 
Q 1966 3416 2056 3406 
L 2056 2813 
Q 2006 2822 1964 2825 
Q 1922 2828 1872 2828 
Q 1447 2828 1219 2554 
Q 991 2281 991 1925 
L 991 0 
L 428 0 
L 428 3347 
z
" id="Helvetica-72" transform="scale(0.015625)"/>
       <path d="M 369 4606 
L 916 4606 
L 916 2941 
Q 1100 3181 1356 3307 
Q 1613 3434 1913 3434 
Q 2538 3434 2927 3004 
Q 3316 2575 3316 1738 
Q 3316 944 2931 419 
Q 2547 -106 1866 -106 
Q 1484 -106 1222 78 
Q 1066 188 888 428 
L 888 0 
L 369 0 
L 369 4606 
z
M 1831 391 
Q 2288 391 2514 753 
Q 2741 1116 2741 1709 
Q 2741 2238 2514 2584 
Q 2288 2931 1847 2931 
Q 1463 2931 1173 2647 
Q 884 2363 884 1709 
Q 884 1238 1003 944 
Q 1225 391 1831 391 
z
" id="Helvetica-62" transform="scale(0.015625)"/>
       <path d="M 844 891 
Q 844 647 1022 506 
Q 1200 366 1444 366 
Q 1741 366 2019 503 
Q 2488 731 2488 1250 
L 2488 1703 
Q 2384 1638 2221 1594 
Q 2059 1550 1903 1531 
L 1563 1488 
Q 1256 1447 1103 1359 
Q 844 1213 844 891 
z
M 2206 2028 
Q 2400 2053 2466 2191 
Q 2503 2266 2503 2406 
Q 2503 2694 2298 2823 
Q 2094 2953 1713 2953 
Q 1272 2953 1088 2716 
Q 984 2584 953 2325 
L 428 2325 
Q 444 2944 830 3186 
Q 1216 3428 1725 3428 
Q 2316 3428 2684 3203 
Q 3050 2978 3050 2503 
L 3050 575 
Q 3050 488 3086 434 
Q 3122 381 3238 381 
Q 3275 381 3322 386 
Q 3369 391 3422 400 
L 3422 -16 
Q 3291 -53 3222 -62 
Q 3153 -72 3034 -72 
Q 2744 -72 2613 134 
Q 2544 244 2516 444 
Q 2344 219 2022 53 
Q 1700 -113 1313 -113 
Q 847 -113 551 170 
Q 256 453 256 878 
Q 256 1344 547 1600 
Q 838 1856 1309 1916 
L 2206 2028 
z
M 1741 3428 
L 1741 3428 
z
" id="Helvetica-61" transform="scale(0.015625)"/>
       <path d="M 428 4591 
L 991 4591 
L 991 0 
L 428 0 
L 428 4591 
z
" id="Helvetica-6c" transform="scale(0.015625)"/>
       <path d="M 2503 3347 
L 3125 3347 
Q 3006 3025 2597 1878 
Q 2291 1016 2084 472 
Q 1597 -809 1397 -1090 
Q 1197 -1372 709 -1372 
Q 591 -1372 527 -1362 
Q 463 -1353 369 -1328 
L 369 -816 
Q 516 -856 581 -865 
Q 647 -875 697 -875 
Q 853 -875 926 -823 
Q 1000 -772 1050 -697 
Q 1066 -672 1162 -440 
Q 1259 -209 1303 -97 
L 66 3347 
L 703 3347 
L 1600 622 
L 2503 3347 
z
M 1597 3428 
L 1597 3428 
z
" id="Helvetica-79" transform="scale(0.015625)"/>
      </defs>
      <use xlink:href="#Helvetica-50"/>
      <use x="66.699219" xlink:href="#Helvetica-72"/>
      <use x="100" xlink:href="#Helvetica-6f"/>
      <use x="155.615234" xlink:href="#Helvetica-62"/>
      <use x="211.230469" xlink:href="#Helvetica-61"/>
      <use x="266.845703" xlink:href="#Helvetica-62"/>
      <use x="322.460938" xlink:href="#Helvetica-69"/>
      <use x="344.677734" xlink:href="#Helvetica-6c"/>
      <use x="366.894531" xlink:href="#Helvetica-69"/>
      <use x="389.111328" xlink:href="#Helvetica-74"/>
      <use x="416.894531" xlink:href="#Helvetica-79"/>
     </g>
    </g>
   </g>
   <g id="patch_67">
    <path d="M 94.94 141.64 
L 94.94 28.8 
" style="fill:none;stroke:#000000;stroke-linecap:square;stroke-linejoin:miter;"/>
   </g>
  </g>
 </g>
 <defs>
  <clipPath id="p6e3d09d279">
   <rect height="112.84" width="189.46" x="94.94" y="28.8"/>
  </clipPath>
 </defs>
</svg>
