<?xml version="1.0" encoding="utf-8" standalone="no"?>
<!DOCTYPE svg PUBLIC "-//W3C//DTD SVG 1.1//EN"
  "http://www.w3.org/Graphics/SVG/1.1/DTD/svg11.dtd">
<svg height="216pt" version="1.1" viewBox="0 0 306 216" width="306pt" xmlns="http://www.w3.org/2000/svg" xmlns:xlink="http://www.w3.org/1999/xlink">
 <metadata>
  <rdf:RDF xmlns:cc="http://creativecommons.org/ns#" xmlns:dc="http://purl.org/dc/elements/1.1/" xmlns:rdf="http://www.w3.org/1999/02/22-rdf-syntax-ns#">
   <cc:Work>
    <dc:type rdf:resource="http://purl.org/dc/dcmitype/StillImage"/>
    <dc:date>2021-12-20T22:25:14.816909</dc:date>
    <dc:format>image/svg+xml</dc:format>
    <dc:creator>
     <cc:Agent>
      <dc:title>Matplotlib v3.4.2, https://matplotlib.org/</dc:title>
     </cc:Agent>
    </dc:creator>
   </cc:Work>
  </rdf:RDF>
 </metadata>
 <defs>
  <style type="text/css">*{stroke-linecap:butt;stroke-linejoin:round;}</style>
 </defs>
 <g id="figure_1">
  <g id="patch_1">
   <path d="M 0 216 
L 306 216 
L 306 0 
L 0 0 
z
" style="fill:#ffffff;"/>
  </g>
  <g id="axes_1">
   <g id="patch_2">
    <path d="M 94.94 141.64 
L 284.4 141.64 
L 284.4 22.547648 
L 94.94 22.547648 
z
" style="fill:#ffffff;"/>
   </g>
   <g id="line2d_1">
    <path clip-path="url(#p0eead633a8)" d="M 94.94 66.997953 
L 284.4 66.997953 
" style="fill:none;stroke:#000000;stroke-linecap:round;stroke-width:0.5;"/>
   </g>
   <g id="patch_3">
    <path clip-path="url(#p0eead633a8)" d="M 102.067515 57.888446 
L 100.261014 48.067031 
L 98.340473 57.888446 
L 102.067515 57.888446 
z
M 99.418672 44.764169 
L 101.240724 44.764169 
L 105.558702 66.997953 
L 103.791078 66.997953 
L 102.58588 60.338957 
L 97.879128 60.338957 
L 96.590992 66.997953 
L 94.94 66.997953 
L 99.418672 44.764169 
z
M 100.253239 44.764169 
L 100.253239 44.764169 
z
" style="fill:#008000;"/>
   </g>
   <g id="patch_4">
    <path clip-path="url(#p0eead633a8)" d="M 111.700744 65.151045 
Q 113.97469 65.151045 115.229012 65.326759 
Q 116.483333 65.502091 116.621543 65.725172 
L 115.041255 65.725172 
Q 114.772658 65.555951 113.969475 65.457016 
Q 113.166292 65.3577 111.716391 65.3577 
Q 109.948346 65.3577 108.86092 65.539908 
Q 107.773494 65.721734 107.773494 66.097609 
Q 107.773494 66.405873 108.754002 66.597631 
Q 109.737119 66.789006 111.685098 66.789006 
Q 113.476613 66.789006 114.415398 66.587317 
Q 114.910868 66.481124 115.155995 66.307702 
L 116.736283 66.307702 
Q 116.525057 66.584643 115.335929 66.772199 
Q 113.909497 66.997953 111.489518 66.997953 
Q 109.403329 66.997953 107.98472 66.812689 
Q 106.117581 66.568218 106.117581 66.057118 
Q 106.117581 65.669401 107.520543 65.42111 
Q 109.035638 65.151045 111.700744 65.151045 
z
M 111.374777 65.151045 
L 111.374777 65.151045 
z
" style="fill:#0000ff;"/>
   </g>
   <g id="patch_5">
    <path clip-path="url(#p0eead633a8)" d="M 111.594036 63.165353 
Q 113.232162 63.165353 114.427209 63.268111 
Q 116.159015 63.415671 116.546392 63.785599 
L 114.989286 63.785599 
Q 114.703184 63.578851 113.809431 63.484313 
Q 112.915677 63.389776 111.553526 63.389776 
Q 109.940719 63.389776 108.83682 63.58666 
Q 107.73292 63.783133 107.73292 64.17238 
Q 107.73292 64.508603 108.641865 64.719873 
Q 109.553341 64.931143 111.609227 64.931143 
Q 113.184056 64.931143 114.217063 64.783172 
Q 115.25007 64.63479 115.272857 64.303087 
L 111.634546 64.303087 
L 111.634546 64.091406 
L 116.736283 64.091406 
L 116.736283 65.100899 
L 115.723531 65.100899 
L 115.34375 64.857979 
Q 114.546208 65.000607 113.928429 65.056096 
Q 112.890358 65.151045 111.292743 65.151045 
Q 109.229261 65.151045 107.740516 64.93402 
Q 106.117581 64.661507 106.117581 64.186355 
Q 106.117581 63.712436 107.700006 63.432524 
Q 109.203942 63.165353 111.594036 63.165353 
z
M 111.333253 63.162476 
L 111.333253 63.162476 
z
" style="fill:#ffa600;"/>
   </g>
   <g id="patch_6">
    <path clip-path="url(#p0eead633a8)" d="M 113.245097 58.151869 
L 111.438595 52.749683 
L 109.518054 58.151869 
L 113.245097 58.151869 
z
M 110.596253 50.932972 
L 112.418305 50.932972 
L 116.736283 63.162476 
L 114.968659 63.162476 
L 113.763461 59.499752 
L 109.056709 59.499752 
L 107.768573 63.162476 
L 106.117581 63.162476 
L 110.596253 50.932972 
z
M 111.43082 50.932972 
L 111.43082 50.932972 
z
" style="fill:#008000;"/>
   </g>
   <g id="patch_7">
    <path clip-path="url(#p0eead633a8)" d="M 122.878326 59.835943 
Q 125.152272 59.835943 126.406593 60.517334 
Q 127.660914 61.197243 127.799124 62.062314 
L 126.218836 62.062314 
Q 125.950239 61.406105 125.147056 61.022452 
Q 124.343873 60.637318 122.893972 60.637318 
Q 121.125927 60.637318 120.038501 61.343891 
Q 118.951075 62.048982 118.951075 63.506566 
Q 118.951075 64.701962 119.931584 65.445567 
Q 120.9147 66.187691 122.862679 66.187691 
Q 124.654194 66.187691 125.592979 65.405572 
Q 126.088449 64.993775 126.333576 64.321272 
L 127.913864 64.321272 
Q 127.702638 65.395203 126.51351 66.122514 
Q 125.087078 66.997953 122.667099 66.997953 
Q 120.58091 66.997953 119.162301 66.27953 
Q 117.295162 65.331508 117.295162 63.34955 
Q 117.295162 61.846046 118.698124 60.883211 
Q 120.213219 59.835943 122.878326 59.835943 
z
M 122.552359 59.835943 
L 122.552359 59.835943 
z
" style="fill:#0000ff;"/>
   </g>
   <g id="patch_8">
    <path clip-path="url(#p0eead633a8)" d="M 124.422678 55.44743 
L 122.616176 50.715956 
L 120.695635 55.44743 
L 124.422678 55.44743 
z
M 121.773834 49.124799 
L 123.595886 49.124799 
L 127.913864 59.835943 
L 126.14624 59.835943 
L 124.941042 56.627966 
L 120.23429 56.627966 
L 118.946154 59.835943 
L 117.295162 59.835943 
L 121.773834 49.124799 
z
M 122.608401 49.124799 
L 122.608401 49.124799 
z
" style="fill:#008000;"/>
   </g>
   <g id="patch_9">
    <path clip-path="url(#p0eead633a8)" d="M 133.949198 61.30424 
Q 135.587324 61.30424 136.782371 61.598885 
Q 138.514177 62.021994 138.901554 63.082715 
L 137.344449 63.082715 
Q 137.058346 62.48989 136.164593 62.218817 
Q 135.270839 61.947744 133.908688 61.947744 
Q 132.295881 61.947744 131.191982 62.512283 
Q 130.088082 63.075644 130.088082 64.191758 
Q 130.088082 65.155835 130.997027 65.761624 
Q 131.908504 66.367414 133.96439 66.367414 
Q 135.539219 66.367414 136.572225 65.943125 
Q 137.605232 65.517658 137.628019 64.566546 
L 133.989709 64.566546 
L 133.989709 63.959578 
L 139.091445 63.959578 
L 139.091445 66.854167 
L 138.078694 66.854167 
L 137.698912 66.157627 
Q 136.90137 66.566593 136.283591 66.725702 
Q 135.245521 66.997953 133.647905 66.997953 
Q 131.584423 66.997953 130.095678 66.375664 
Q 128.472743 65.594266 128.472743 64.231829 
Q 128.472743 62.872928 130.055168 62.070316 
Q 131.559104 61.30424 133.949198 61.30424 
z
M 133.688415 61.29599 
L 133.688415 61.29599 
z
" style="fill:#ffa600;"/>
   </g>
   <g id="patch_10">
    <path clip-path="url(#p0eead633a8)" d="M 135.600259 46.90294 
L 133.793758 31.385075 
L 131.873216 46.90294 
L 135.600259 46.90294 
z
M 132.951415 26.166542 
L 134.773467 26.166542 
L 139.091445 61.29599 
L 137.323822 61.29599 
L 136.118624 50.774755 
L 131.411872 50.774755 
L 130.123735 61.29599 
L 128.472743 61.29599 
L 132.951415 26.166542 
z
M 133.785982 26.166542 
L 133.785982 26.166542 
z
" style="fill:#008000;"/>
   </g>
   <g id="patch_11">
    <path clip-path="url(#p0eead633a8)" d="M 145.12678 37.474338 
Q 146.764906 37.474338 147.959953 39.002159 
Q 149.691758 41.19611 150.079136 46.696266 
L 148.52203 46.696266 
Q 148.235927 43.62229 147.342174 42.216695 
Q 146.448421 40.811099 145.086269 40.811099 
Q 143.473462 40.811099 142.369563 43.738405 
Q 141.265664 46.659599 141.265664 52.446985 
Q 141.265664 57.446016 142.174608 60.587216 
Q 143.086085 63.728416 145.141971 63.728416 
Q 146.7168 63.728416 147.749807 61.528354 
Q 148.782813 59.32218 148.8056 54.390373 
L 145.16729 54.390373 
L 145.16729 51.243062 
L 150.269027 51.243062 
L 150.269027 66.252377 
L 149.256275 66.252377 
L 148.876493 62.640607 
Q 148.078951 64.761223 147.461172 65.586247 
Q 146.423102 66.997953 144.825486 66.997953 
Q 142.762004 66.997953 141.273259 63.771195 
Q 139.650324 59.719413 139.650324 52.654769 
Q 139.650324 45.608458 141.232749 41.446673 
Q 142.736685 37.474338 145.12678 37.474338 
z
M 144.865996 37.431559 
L 144.865996 37.431559 
z
" style="fill:#ffa600;"/>
   </g>
   <g id="patch_12">
    <path clip-path="url(#p0eead633a8)" d="M 157.955421 51.750353 
L 156.14892 35.311153 
L 154.228378 51.750353 
L 157.955421 51.750353 
z
M 155.306577 29.782783 
L 157.128629 29.782783 
L 161.446608 66.997953 
L 159.678984 66.997953 
L 158.473786 55.852046 
L 153.767034 55.852046 
L 152.478897 66.997953 
L 150.827906 66.997953 
L 155.306577 29.782783 
z
M 156.141144 29.782783 
L 156.141144 29.782783 
z
" style="fill:#008000;"/>
   </g>
   <g id="patch_13">
    <path clip-path="url(#p0eead633a8)" d="M 169.133002 63.443828 
L 167.326501 59.611948 
L 165.40596 63.443828 
L 169.133002 63.443828 
z
M 166.484158 58.323318 
L 168.30621 58.323318 
L 172.624189 66.997953 
L 170.856565 66.997953 
L 169.651367 64.399909 
L 164.944615 64.399909 
L 163.656478 66.997953 
L 162.005487 66.997953 
L 166.484158 58.323318 
z
M 167.318725 58.323318 
L 167.318725 58.323318 
z
" style="fill:#008000;"/>
   </g>
   <g id="patch_14">
    <path clip-path="url(#p0eead633a8)" d="M 167.481942 27.331364 
Q 169.120068 27.331364 170.315115 28.93517 
Q 172.04692 31.238236 172.434298 37.011939 
L 170.877192 37.011939 
Q 170.59109 33.785081 169.697336 32.309579 
Q 168.803583 30.834077 167.441432 30.834077 
Q 165.828625 30.834077 164.724725 33.90697 
Q 163.620826 36.973448 163.620826 43.048666 
Q 163.620826 48.296321 164.52977 51.593747 
Q 165.441247 54.891173 167.497133 54.891173 
Q 169.071962 54.891173 170.104969 52.581691 
Q 171.137976 50.265795 171.160763 45.088708 
L 167.522452 45.088708 
L 167.522452 41.784867 
L 172.624189 41.784867 
L 172.624189 57.540661 
L 171.611437 57.540661 
L 171.231655 53.749263 
Q 170.434113 55.975346 169.816335 56.841401 
Q 168.778264 58.323318 167.180648 58.323318 
Q 165.117166 58.323318 163.628421 54.936079 
Q 162.005487 50.682785 162.005487 43.266784 
Q 162.005487 35.870029 163.587911 31.50126 
Q 165.091848 27.331364 167.481942 27.331364 
z
M 167.221158 27.286457 
L 167.221158 27.286457 
z
" style="fill:#ffa600;"/>
   </g>
   <g id="patch_15">
    <path clip-path="url(#p0eead633a8)" d="M 180.310583 64.661775 
L 178.504082 62.143025 
L 176.583541 64.661775 
L 180.310583 64.661775 
z
M 177.661739 61.29599 
L 179.483791 61.29599 
L 183.80177 66.997953 
L 182.034146 66.997953 
L 180.828948 65.290221 
L 176.122196 65.290221 
L 174.83406 66.997953 
L 173.183068 66.997953 
L 177.661739 61.29599 
z
M 178.496307 61.29599 
L 178.496307 61.29599 
z
" style="fill:#008000;"/>
   </g>
   <g id="patch_16">
    <path clip-path="url(#p0eead633a8)" d="M 178.659523 28.375363 
Q 180.297649 28.375363 181.492696 30.078976 
Q 183.224501 32.525365 183.611879 38.658374 
L 182.054773 38.658374 
Q 181.768671 35.230703 180.874917 33.663379 
Q 179.981164 32.096054 178.619013 32.096054 
Q 177.006206 32.096054 175.902306 35.360178 
Q 174.798407 38.617487 174.798407 45.070775 
Q 174.798407 50.644998 175.707352 54.147628 
Q 176.618828 57.650257 178.674714 57.650257 
Q 180.249543 57.650257 181.28255 55.197054 
Q 182.315557 52.737036 182.338344 47.237771 
L 178.700033 47.237771 
L 178.700033 43.728327 
L 183.80177 43.728327 
L 183.80177 60.464627 
L 182.789018 60.464627 
L 182.409236 56.437284 
Q 181.611694 58.8019 180.993916 59.721851 
Q 179.955845 61.29599 178.358229 61.29599 
Q 176.294748 61.29599 174.806003 57.697958 
Q 173.183068 53.179975 173.183068 45.302466 
Q 173.183068 37.445401 174.765492 32.804758 
Q 176.269429 28.375363 178.659523 28.375363 
z
M 178.398739 28.327661 
L 178.398739 28.327661 
z
" style="fill:#ffa600;"/>
   </g>
   <g id="patch_17">
    <path clip-path="url(#p0eead633a8)" d="M 191.488164 52.174349 
L 189.681663 36.192281 
L 187.761122 52.174349 
L 191.488164 52.174349 
z
M 188.83932 30.817641 
L 190.661373 30.817641 
L 194.979351 66.997953 
L 193.211727 66.997953 
L 192.006529 56.161985 
L 187.299777 56.161985 
L 186.011641 66.997953 
L 184.360649 66.997953 
L 188.83932 30.817641 
z
M 189.673888 30.817641 
L 189.673888 30.817641 
z
" style="fill:#008000;"/>
   </g>
   <g id="patch_18">
    <path clip-path="url(#p0eead633a8)" d="M 202.665746 60.125708 
L 200.859244 52.716398 
L 198.938703 60.125708 
L 202.665746 60.125708 
z
M 200.016902 50.224707 
L 201.838954 50.224707 
L 206.156932 66.997953 
L 204.389308 66.997953 
L 203.18411 61.974382 
L 198.477358 61.974382 
L 197.189222 66.997953 
L 195.53823 66.997953 
L 200.016902 50.224707 
z
M 200.851469 50.224707 
L 200.851469 50.224707 
z
" style="fill:#008000;"/>
   </g>
   <g id="patch_19">
    <path clip-path="url(#p0eead633a8)" d="M 213.843327 64.085824 
L 212.036825 60.946111 
L 210.116284 64.085824 
L 213.843327 64.085824 
z
M 211.194483 59.890251 
L 213.016535 59.890251 
L 217.334513 66.997953 
L 215.566889 66.997953 
L 214.361691 64.869203 
L 209.654939 64.869203 
L 208.366803 66.997953 
L 206.715811 66.997953 
L 211.194483 59.890251 
z
M 212.02905 59.890251 
L 212.02905 59.890251 
z
" style="fill:#008000;"/>
   </g>
   <g id="patch_20">
    <path clip-path="url(#p0eead633a8)" d="M 212.192266 50.77805 
Q 213.830392 50.77805 215.025439 51.249598 
Q 216.757245 51.926742 217.144622 53.624316 
L 215.587517 53.624316 
Q 215.301414 52.675561 214.407661 52.241736 
Q 213.513907 51.807911 212.151756 51.807911 
Q 210.538949 51.807911 209.43505 52.711398 
Q 208.33115 53.612999 208.33115 55.399224 
Q 208.33115 56.942131 209.240095 57.911634 
Q 210.151572 58.881138 212.207458 58.881138 
Q 213.782287 58.881138 214.815293 58.202108 
Q 215.8483 57.521192 215.871087 55.999034 
L 212.232776 55.999034 
L 212.232776 55.027644 
L 217.334513 55.027644 
L 217.334513 59.660136 
L 216.321762 59.660136 
L 215.94198 58.545395 
Q 215.144438 59.199904 214.526659 59.45454 
Q 213.488589 59.890251 211.890973 59.890251 
Q 209.827491 59.890251 208.338746 58.894341 
Q 206.715811 57.643795 206.715811 55.463355 
Q 206.715811 53.288573 208.298236 52.004076 
Q 209.802172 50.77805 212.192266 50.77805 
z
M 211.931483 50.764846 
L 211.931483 50.764846 
z
" style="fill:#ffa600;"/>
   </g>
   <g id="patch_21">
    <path clip-path="url(#p0eead633a8)" d="M 225.020908 54.410345 
L 223.214407 40.839017 
L 221.293865 54.410345 
L 225.020908 54.410345 
z
M 222.372064 36.275089 
L 224.194116 36.275089 
L 228.512094 66.997953 
L 226.744471 66.997953 
L 225.539273 57.796485 
L 220.832521 57.796485 
L 219.544384 66.997953 
L 217.893392 66.997953 
L 222.372064 36.275089 
z
M 223.206631 36.275089 
L 223.206631 36.275089 
z
" style="fill:#008000;"/>
   </g>
   <g id="patch_22">
    <path clip-path="url(#p0eead633a8)" d="M 239.689676 47.267767 
L 239.689676 49.618543 
L 235.279707 49.618543 
L 235.279707 66.997953 
L 233.480942 66.997953 
L 233.480942 49.618543 
L 229.070973 49.618543 
L 229.070973 47.267767 
L 239.689676 47.267767 
z
" style="fill:#ff0000;"/>
   </g>
   <g id="patch_23">
    <path clip-path="url(#p0eead633a8)" d="M 236.198489 37.139572 
L 234.391988 26.219859 
L 232.471446 37.139572 
L 236.198489 37.139572 
z
M 233.549645 22.547648 
L 235.371697 22.547648 
L 239.689676 47.267767 
L 237.922052 47.267767 
L 236.716854 39.864116 
L 232.010102 39.864116 
L 230.721965 47.267767 
L 229.070973 47.267767 
L 233.549645 22.547648 
z
M 234.384212 22.547648 
L 234.384212 22.547648 
z
" style="fill:#008000;"/>
   </g>
   <g id="patch_24">
    <path clip-path="url(#p0eead633a8)" d="M 250.867257 64.97446 
L 250.867257 65.215552 
L 246.457288 65.215552 
L 246.457288 66.997953 
L 244.658523 66.997953 
L 244.658523 65.215552 
L 240.248555 65.215552 
L 240.248555 64.97446 
L 250.867257 64.97446 
z
" style="fill:#ff0000;"/>
   </g>
   <g id="patch_25">
    <path clip-path="url(#p0eead633a8)" d="M 247.37607 56.337819 
L 245.569569 47.026225 
L 243.649027 56.337819 
L 247.37607 56.337819 
z
M 244.727226 43.894812 
L 246.549278 43.894812 
L 250.867257 64.97446 
L 249.099633 64.97446 
L 247.894435 58.661126 
L 243.187683 58.661126 
L 241.899546 64.97446 
L 240.248555 64.97446 
L 244.727226 43.894812 
z
M 245.561793 43.894812 
L 245.561793 43.894812 
z
" style="fill:#008000;"/>
   </g>
   <g id="patch_26">
    <path clip-path="url(#p0eead633a8)" d="M 257.009299 57.969839 
Q 259.283245 57.969839 260.537566 58.82877 
Q 261.791887 59.685834 261.930097 60.776303 
L 260.349809 60.776303 
Q 260.081212 59.949115 259.27803 59.465499 
Q 258.474847 58.980017 257.024945 58.980017 
Q 255.2569 58.980017 254.169474 59.870691 
Q 253.082048 60.759498 253.082048 62.596864 
Q 253.082048 64.103728 254.062557 65.041084 
Q 255.045674 65.976572 256.993653 65.976572 
Q 258.785167 65.976572 259.723952 64.990668 
Q 260.219422 64.471575 260.46455 63.623847 
L 262.044838 63.623847 
Q 261.833611 64.977597 260.644483 65.894413 
Q 259.218052 66.997953 256.798072 66.997953 
Q 254.711883 66.997953 253.293275 66.092341 
Q 251.426136 64.897306 251.426136 62.398936 
Q 251.426136 60.503686 252.829098 59.289979 
Q 254.344193 57.969839 257.009299 57.969839 
z
M 256.683332 57.969839 
L 256.683332 57.969839 
z
" style="fill:#0000ff;"/>
   </g>
   <g id="patch_27">
    <path clip-path="url(#p0eead633a8)" d="M 258.553651 49.429951 
L 256.74715 40.222672 
L 254.826609 49.429951 
L 258.553651 49.429951 
z
M 255.904807 37.126338 
L 257.726859 37.126338 
L 262.044838 57.969839 
L 260.277214 57.969839 
L 259.072016 51.727231 
L 254.365264 51.727231 
L 253.077127 57.969839 
L 251.426136 57.969839 
L 255.904807 37.126338 
z
M 256.739374 37.126338 
L 256.739374 37.126338 
z
" style="fill:#008000;"/>
   </g>
   <g id="patch_28">
    <path clip-path="url(#p0eead633a8)" d="M 269.731232 62.586082 
L 267.924731 57.829424 
L 266.00419 62.586082 
L 269.731232 62.586082 
z
M 267.082388 56.229798 
L 268.90444 56.229798 
L 273.222419 66.997953 
L 271.454795 66.997953 
L 270.249597 63.772901 
L 265.542845 63.772901 
L 264.254709 66.997953 
L 262.603717 66.997953 
L 267.082388 56.229798 
z
M 267.916956 56.229798 
L 267.916956 56.229798 
z
" style="fill:#008000;"/>
   </g>
   <g id="patch_29">
    <path clip-path="url(#p0eead633a8)" d="M 268.18688 35.380005 
Q 270.460826 35.380005 271.715147 37.363646 
Q 272.969468 39.342975 273.107678 41.861336 
L 271.52739 41.861336 
Q 271.258793 39.951004 270.455611 38.834128 
Q 269.652428 37.712939 268.202527 37.712939 
Q 266.434481 37.712939 265.347055 39.769889 
Q 264.259629 41.822526 264.259629 46.065793 
Q 264.259629 49.54579 265.240138 51.710546 
Q 266.223255 53.87099 268.171234 53.87099 
Q 269.962749 53.87099 270.901534 51.594115 
Q 271.397003 50.395306 271.642131 48.437538 
L 273.222419 48.437538 
Q 273.011192 51.563929 271.822065 53.68125 
Q 270.395633 56.229798 267.975654 56.229798 
Q 265.889465 56.229798 264.470856 54.13835 
Q 262.603717 51.378502 262.603717 45.608693 
Q 262.603717 41.231746 264.006679 38.428775 
Q 265.521774 35.380005 268.18688 35.380005 
z
M 267.860913 35.380005 
L 267.860913 35.380005 
z
" style="fill:#0000ff;"/>
   </g>
   <g id="patch_30">
    <path clip-path="url(#p0eead633a8)" d="M 284.4 53.080054 
L 284.4 54.738319 
L 279.990032 54.738319 
L 279.990032 66.997953 
L 278.191266 66.997953 
L 278.191266 54.738319 
L 273.781298 54.738319 
L 273.781298 53.080054 
L 284.4 53.080054 
z
" style="fill:#ff0000;"/>
   </g>
   <g id="patch_31">
    <path clip-path="url(#p0eead633a8)" d="M 279.364461 29.659439 
Q 281.638407 29.659439 282.892728 31.887667 
Q 284.14705 34.111051 284.28526 36.939932 
L 282.704971 36.939932 
Q 282.436375 34.794052 281.633192 33.539462 
Q 280.830009 32.280029 279.380108 32.280029 
Q 277.612063 32.280029 276.524636 34.590605 
Q 275.43721 36.896337 275.43721 41.662807 
Q 275.43721 45.571894 276.417719 48.00357 
Q 277.400836 50.430401 279.348815 50.430401 
Q 281.14033 50.430401 282.079115 47.872782 
Q 282.574585 46.526157 282.819712 44.326993 
L 284.4 44.326993 
Q 284.188773 47.838874 282.999646 50.217266 
Q 281.573214 53.080054 279.153235 53.080054 
Q 277.067046 53.080054 275.648437 50.730727 
Q 273.781298 47.630583 273.781298 41.149346 
Q 273.781298 36.232712 275.18426 33.084129 
Q 276.699355 29.659439 279.364461 29.659439 
z
M 279.038494 29.659439 
L 279.038494 29.659439 
z
" style="fill:#0000ff;"/>
   </g>
   <g id="patch_32">
    <path clip-path="url(#p0eead633a8)" d="M 100.523163 97.934715 
Q 102.797109 97.934715 104.051431 95.957467 
Q 105.305752 93.984518 105.443962 91.474273 
L 103.863673 91.474273 
Q 103.595077 93.378448 102.791894 94.491725 
Q 101.988711 95.6093 100.53881 95.6093 
Q 98.770765 95.6093 97.683339 93.55898 
Q 96.595913 91.512958 96.595913 87.283367 
Q 96.595913 83.814587 97.576421 81.656808 
Q 98.559538 79.503327 100.507517 79.503327 
Q 102.299032 79.503327 103.237817 81.772864 
Q 103.733287 82.967809 103.978414 84.919267 
L 105.558702 84.919267 
Q 105.347475 81.802952 104.158348 79.692455 
Q 102.731916 77.152122 100.311937 77.152122 
Q 98.225748 77.152122 96.807139 79.236829 
Q 94.94 81.987782 94.94 87.738994 
Q 94.94 92.101834 96.342962 94.895771 
Q 97.858057 97.934715 100.523163 97.934715 
z
M 100.197196 97.934715 
L 100.197196 97.934715 
z
" style="fill:none;opacity:0;"/>
   </g>
   <g id="patch_33">
    <path clip-path="url(#p0eead633a8)" d="M 100.416455 77.143077 
Q 102.054581 77.143077 103.249628 76.820056 
Q 104.981434 76.356197 105.368811 75.19332 
L 103.811705 75.19332 
Q 103.525603 75.843239 102.63185 76.140419 
Q 101.738096 76.437598 100.375945 76.437598 
Q 98.763138 76.437598 97.659238 75.818689 
Q 96.555339 75.201072 96.555339 73.977467 
Q 96.555339 72.920541 97.464284 72.256409 
Q 98.37576 71.592277 100.431646 71.592277 
Q 102.006475 71.592277 103.039482 72.057428 
Q 104.072489 72.523871 104.095276 73.566584 
L 100.456965 73.566584 
L 100.456965 74.232008 
L 105.558702 74.232008 
L 105.558702 71.058646 
L 104.54595 71.058646 
L 104.166168 71.822268 
Q 103.368626 71.373915 102.750848 71.199483 
Q 101.712777 70.901011 100.115161 70.901011 
Q 98.05168 70.901011 96.562935 71.583232 
Q 94.94 72.439885 94.94 73.933536 
Q 94.94 75.423311 96.522425 76.303221 
Q 98.026361 77.143077 100.416455 77.143077 
z
M 100.155671 77.152122 
L 100.155671 77.152122 
z
" style="fill:none;opacity:0;"/>
   </g>
   <g id="patch_34">
    <path clip-path="url(#p0eead633a8)" d="M 105.558702 70.901011 
L 105.558702 70.435977 
L 101.148734 70.435977 
L 101.148734 66.997953 
L 99.349968 66.997953 
L 99.349968 70.435977 
L 94.94 70.435977 
L 94.94 70.901011 
L 105.558702 70.901011 
z
" style="fill:none;opacity:0;"/>
   </g>
   <g id="patch_35">
    <path clip-path="url(#p0eead633a8)" d="M 116.736283 87.900029 
L 116.736283 85.409627 
L 112.326315 85.409627 
L 112.326315 66.997953 
L 110.527549 66.997953 
L 110.527549 85.409627 
L 106.117581 85.409627 
L 106.117581 87.900029 
L 116.736283 87.900029 
z
" style="fill:none;opacity:0;"/>
   </g>
   <g id="patch_36">
    <path clip-path="url(#p0eead633a8)" d="M 122.771617 75.330592 
Q 124.409743 75.330592 125.60479 74.899386 
Q 127.336596 74.280173 127.723973 72.727828 
L 126.166868 72.727828 
Q 125.880765 73.595416 124.987012 73.992127 
Q 124.093258 74.388837 122.731107 74.388837 
Q 121.1183 74.388837 120.014401 73.562645 
Q 118.910501 72.738177 118.910501 71.104766 
Q 118.910501 69.693858 119.819446 68.807297 
Q 120.730923 67.920736 122.786809 67.920736 
Q 124.361638 67.920736 125.394644 68.541673 
Q 126.427651 69.164336 126.450438 70.556271 
L 122.812127 70.556271 
L 122.812127 71.444557 
L 127.913864 71.444557 
L 127.913864 67.208382 
L 126.901113 67.208382 
L 126.521331 68.227755 
Q 125.723789 67.62924 125.10601 67.396388 
Q 124.06794 66.997953 122.470324 66.997953 
Q 120.406842 66.997953 118.918097 67.908662 
Q 117.295162 69.052222 117.295162 71.046122 
Q 117.295162 73.034848 118.877587 74.209455 
Q 120.381523 75.330592 122.771617 75.330592 
z
M 122.510834 75.342666 
L 122.510834 75.342666 
z
" style="fill:none;opacity:0;"/>
   </g>
   <g id="patch_37">
    <path clip-path="url(#p0eead633a8)" d="M 127.913864 88.337382 
L 127.913864 86.789111 
L 123.503896 86.789111 
L 123.503896 75.342666 
L 121.705131 75.342666 
L 121.705131 86.789111 
L 117.295162 86.789111 
L 117.295162 88.337382 
L 127.913864 88.337382 
z
" style="fill:none;opacity:0;"/>
   </g>
   <g id="patch_38">
    <path clip-path="url(#p0eead633a8)" d="M 134.055907 140.90329 
Q 136.329853 140.90329 137.584174 137.034751 
Q 138.838495 133.174621 138.976705 128.263258 
L 137.396417 128.263258 
Q 137.12782 131.98883 136.324637 134.166985 
Q 135.521454 136.353551 134.071553 136.353551 
Q 132.303508 136.353551 131.216082 132.342044 
Q 130.128656 128.338947 130.128656 120.063636 
Q 130.128656 113.276872 131.109165 109.055119 
Q 132.092281 104.841775 134.04026 104.841775 
Q 135.831775 104.841775 136.77056 109.282185 
Q 137.26603 111.620128 137.511157 115.438209 
L 139.091445 115.438209 
Q 138.880219 109.341054 137.691091 105.211809 
Q 136.264659 100.241577 133.84468 100.241577 
Q 131.758491 100.241577 130.339883 104.320363 
Q 128.472743 109.702678 128.472743 120.955082 
Q 128.472743 129.491099 129.875705 134.957513 
Q 131.3908 140.90329 134.055907 140.90329 
z
M 133.72994 140.90329 
L 133.72994 140.90329 
z
" style="fill:none;opacity:0;"/>
   </g>
   <g id="patch_39">
    <path clip-path="url(#p0eead633a8)" d="M 139.091445 100.241577 
L 139.091445 96.280727 
L 134.681477 96.280727 
L 134.681477 66.997953 
L 132.882712 66.997953 
L 132.882712 96.280727 
L 128.472743 96.280727 
L 128.472743 100.241577 
L 139.091445 100.241577 
z
" style="fill:none;opacity:0;"/>
   </g>
   <g id="patch_40">
    <path clip-path="url(#p0eead633a8)" d="M 146.77784 67.754496 
L 144.971339 68.570164 
L 143.050797 67.754496 
L 146.77784 67.754496 
z
M 144.128996 68.844466 
L 145.951048 68.844466 
L 150.269027 66.997953 
L 148.501403 66.997953 
L 147.296205 67.550982 
L 142.589453 67.550982 
L 141.301316 66.997953 
L 139.650324 66.997953 
L 144.128996 68.844466 
z
M 144.963563 68.844466 
L 144.963563 68.844466 
z
" style="fill:none;opacity:0;"/>
   </g>
   <g id="patch_41">
    <path clip-path="url(#p0eead633a8)" d="M 145.233488 77.08267 
Q 147.507434 77.08267 148.761755 76.29889 
Q 150.016076 75.516814 150.154286 74.521755 
L 148.573998 74.521755 
Q 148.305401 75.276569 147.502218 75.717871 
Q 146.699036 76.160877 145.249134 76.160877 
Q 143.481089 76.160877 142.393663 75.348132 
Q 141.306237 74.53709 141.306237 72.860484 
Q 141.306237 71.485462 142.286746 70.63012 
Q 143.269862 69.776482 145.217841 69.776482 
Q 147.009356 69.776482 147.948141 70.676124 
Q 148.443611 71.1498 148.688738 71.923356 
L 150.269027 71.923356 
Q 150.0578 70.688051 148.868672 69.851452 
Q 147.44224 68.844466 145.022261 68.844466 
Q 142.936072 68.844466 141.517464 69.670842 
Q 139.650324 70.761318 139.650324 73.041094 
Q 139.650324 74.77052 141.053287 75.878035 
Q 142.568381 77.08267 145.233488 77.08267 
z
M 144.907521 77.08267 
L 144.907521 77.08267 
z
" style="fill:none;opacity:0;"/>
   </g>
   <g id="patch_42">
    <path clip-path="url(#p0eead633a8)" d="M 150.269027 117.744383 
L 150.269027 112.899696 
L 145.859058 112.899696 
L 145.859058 77.08267 
L 144.060293 77.08267 
L 144.060293 112.899696 
L 139.650324 112.899696 
L 139.650324 117.744383 
L 150.269027 117.744383 
z
" style="fill:none;opacity:0;"/>
   </g>
   <g id="patch_43">
    <path clip-path="url(#p0eead633a8)" d="M 156.411069 130.888528 
Q 158.685015 130.888528 159.939336 128.350815 
Q 161.193657 125.818619 161.331867 122.596826 
L 159.751579 122.596826 
Q 159.482982 125.040755 158.679799 126.469597 
Q 157.876617 127.903957 156.426715 127.903957 
Q 154.65867 127.903957 153.571244 125.272459 
Q 152.483818 122.646477 152.483818 117.217978 
Q 152.483818 112.765946 153.464327 109.996529 
Q 154.447444 107.232628 156.395423 107.232628 
Q 158.186937 107.232628 159.125722 110.145482 
Q 159.621192 111.679143 159.866319 114.183756 
L 161.446608 114.183756 
Q 161.235381 110.184099 160.046253 107.475366 
Q 158.619822 104.214956 156.199842 104.214956 
Q 154.113653 104.214956 152.695045 106.890589 
Q 150.827906 110.42132 150.827906 117.802755 
Q 150.827906 123.402275 152.230868 126.988174 
Q 153.745962 130.888528 156.411069 130.888528 
z
M 156.085102 130.888528 
L 156.085102 130.888528 
z
" style="fill:none;opacity:0;"/>
   </g>
   <g id="patch_44">
    <path clip-path="url(#p0eead633a8)" d="M 156.304361 77.526129 
Q 157.942487 77.526129 159.137534 76.981305 
Q 160.869339 76.198938 161.256717 74.237572 
L 159.699611 74.237572 
Q 159.413509 75.333758 158.519755 75.834996 
Q 157.626002 76.336234 156.263851 76.336234 
Q 154.651043 76.336234 153.547144 75.292351 
Q 152.443245 74.250648 152.443245 72.186855 
Q 152.443245 70.404192 153.352189 69.284034 
Q 154.263666 68.163876 156.319552 68.163876 
Q 157.894381 68.163876 158.927388 68.948423 
Q 159.960394 69.735148 159.983181 71.493839 
L 156.344871 71.493839 
L 156.344871 72.616177 
L 161.446608 72.616177 
L 161.446608 67.263827 
L 160.433856 67.263827 
L 160.054074 68.551791 
Q 159.256532 67.795575 158.638753 67.50137 
Q 157.600683 66.997953 156.003067 66.997953 
Q 153.939585 66.997953 152.45084 68.148621 
Q 150.827906 69.593494 150.827906 72.112759 
Q 150.827906 74.625487 152.41033 76.109587 
Q 153.914267 77.526129 156.304361 77.526129 
z
M 156.043577 77.541384 
L 156.043577 77.541384 
z
" style="fill:none;opacity:0;"/>
   </g>
   <g id="patch_45">
    <path clip-path="url(#p0eead633a8)" d="M 161.446608 104.214956 
L 161.446608 101.036903 
L 157.036639 101.036903 
L 157.036639 77.541384 
L 155.237874 77.541384 
L 155.237874 101.036903 
L 150.827906 101.036903 
L 150.827906 104.214956 
L 161.446608 104.214956 
z
" style="fill:none;opacity:0;"/>
   </g>
   <g id="patch_46">
    <path clip-path="url(#p0eead633a8)" d="M 167.58865 133.4852 
Q 169.862596 133.4852 171.116917 130.322415 
Q 172.371238 127.166505 172.509448 123.151143 
L 170.92916 123.151143 
Q 170.660563 126.197042 169.857381 127.977828 
Q 169.054198 129.765489 167.604296 129.765489 
Q 165.836251 129.765489 164.748825 126.485819 
Q 163.661399 123.213023 163.661399 116.447413 
Q 163.661399 110.898788 164.641908 107.447226 
Q 165.625025 104.002541 167.573004 104.002541 
Q 169.364518 104.002541 170.303304 107.632868 
Q 170.798773 109.544291 171.043901 112.665822 
L 172.624189 112.665822 
Q 172.412962 107.680997 171.223834 104.305068 
Q 169.797403 100.241577 167.377423 100.241577 
Q 165.291234 100.241577 163.872626 103.576252 
Q 162.005487 107.976649 162.005487 117.176229 
Q 162.005487 124.154983 163.408449 128.624136 
Q 164.923544 133.4852 167.58865 133.4852 
z
M 167.262683 133.4852 
L 167.262683 133.4852 
z
" style="fill:none;opacity:0;"/>
   </g>
   <g id="patch_47">
    <path clip-path="url(#p0eead633a8)" d="M 172.624189 100.241577 
L 172.624189 96.280727 
L 168.21422 96.280727 
L 168.21422 66.997953 
L 166.415455 66.997953 
L 166.415455 96.280727 
L 162.005487 96.280727 
L 162.005487 100.241577 
L 172.624189 100.241577 
z
" style="fill:none;opacity:0;"/>
   </g>
   <g id="patch_48">
    <path clip-path="url(#p0eead633a8)" d="M 178.766231 90.647953 
Q 181.040177 90.647953 182.294498 88.397901 
Q 183.548819 86.152741 183.68703 83.296153 
L 182.106741 83.296153 
Q 181.838145 85.463051 181.034962 86.729928 
Q 180.231779 88.001696 178.781878 88.001696 
Q 177.013832 88.001696 175.926406 85.66849 
Q 174.83898 83.340176 174.83898 78.527022 
Q 174.83898 74.579649 175.819489 72.124158 
Q 176.802606 69.673558 178.750585 69.673558 
Q 180.5421 69.673558 181.480885 72.256226 
Q 181.976355 73.61604 182.221482 75.836743 
L 183.80177 75.836743 
Q 183.590543 72.290466 182.401416 69.88878 
Q 180.974984 66.997953 178.555005 66.997953 
Q 176.468816 66.997953 175.050207 69.37029 
Q 173.183068 72.500797 173.183068 79.045512 
Q 173.183068 84.0103 174.58603 87.189721 
Q 176.101125 90.647953 178.766231 90.647953 
z
M 178.440264 90.647953 
L 178.440264 90.647953 
z
" style="fill:none;opacity:0;"/>
   </g>
   <g id="patch_49">
    <path clip-path="url(#p0eead633a8)" d="M 183.80177 135.411172 
L 183.80177 130.077806 
L 179.391802 130.077806 
L 179.391802 90.647953 
L 177.593036 90.647953 
L 177.593036 130.077806 
L 173.183068 130.077806 
L 173.183068 135.411172 
L 183.80177 135.411172 
z
" style="fill:none;opacity:0;"/>
   </g>
   <g id="patch_50">
    <path clip-path="url(#p0eead633a8)" d="M 189.943812 98.886156 
Q 192.217758 98.886156 193.472079 96.636105 
Q 194.726401 94.390944 194.864611 91.534357 
L 193.284322 91.534357 
Q 193.015726 93.701255 192.212543 94.968132 
Q 191.40936 96.2399 189.959459 96.2399 
Q 188.191414 96.2399 187.103988 93.906694 
Q 186.016561 91.57838 186.016561 86.765226 
Q 186.016561 82.817853 186.99707 80.362362 
Q 187.980187 77.911762 189.928166 77.911762 
Q 191.719681 77.911762 192.658466 80.49443 
Q 193.153936 81.854244 193.399063 84.074947 
L 194.979351 84.074947 
Q 194.768124 80.52867 193.578997 78.126984 
Q 192.152565 75.236157 189.732586 75.236157 
Q 187.646397 75.236157 186.227788 77.608494 
Q 184.360649 80.739001 184.360649 87.283716 
Q 184.360649 92.248504 185.763611 95.427925 
Q 187.278706 98.886156 189.943812 98.886156 
z
M 189.617845 98.886156 
L 189.617845 98.886156 
z
" style="fill:none;opacity:0;"/>
   </g>
   <g id="patch_51">
    <path clip-path="url(#p0eead633a8)" d="M 189.837104 75.224237 
Q 191.47523 75.224237 192.670277 74.798534 
Q 194.402083 74.187225 194.78946 72.654694 
L 193.232354 72.654694 
Q 192.946252 73.511209 192.052498 73.902855 
Q 191.158745 74.294502 189.796594 74.294502 
Q 188.183787 74.294502 187.079887 73.478855 
Q 185.975988 72.664911 185.975988 71.052348 
Q 185.975988 69.659448 186.884933 68.784203 
Q 187.796409 67.908958 189.852295 67.908958 
Q 191.427124 67.908958 192.460131 68.52197 
Q 193.493138 69.136685 193.515925 70.510854 
L 189.877614 70.510854 
L 189.877614 71.387802 
L 194.979351 71.387802 
L 194.979351 67.205696 
L 193.966599 67.205696 
L 193.586817 68.212058 
Q 192.789275 67.621182 192.171497 67.391303 
Q 191.133426 66.997953 189.53581 66.997953 
Q 187.472329 66.997953 185.983584 67.897038 
Q 184.360649 69.026002 184.360649 70.994453 
Q 184.360649 72.957795 185.943074 74.11741 
Q 187.44701 75.224237 189.837104 75.224237 
z
M 189.57632 75.236157 
L 189.57632 75.236157 
z
" style="fill:none;opacity:0;"/>
   </g>
   <g id="patch_52">
    <path clip-path="url(#p0eead633a8)" d="M 194.979351 128.751034 
L 194.979351 125.192748 
L 190.569383 125.192748 
L 190.569383 98.886156 
L 188.770617 98.886156 
L 188.770617 125.192748 
L 184.360649 125.192748 
L 184.360649 128.751034 
L 194.979351 128.751034 
z
" style="fill:none;opacity:0;"/>
   </g>
   <g id="patch_53">
    <path clip-path="url(#p0eead633a8)" d="M 201.121393 77.069384 
Q 203.395339 77.069384 204.649661 76.482896 
Q 205.903982 75.897682 206.042192 75.153097 
L 204.461904 75.153097 
Q 204.193307 75.717911 203.390124 76.048129 
Q 202.586941 76.379623 201.13704 76.379623 
Q 199.368995 76.379623 198.281569 75.77146 
Q 197.194143 75.164572 197.194143 73.909997 
Q 197.194143 72.881092 198.174651 72.241055 
Q 199.157768 71.602293 201.105747 71.602293 
Q 202.897262 71.602293 203.836047 72.275479 
Q 204.331517 72.629922 204.576644 73.208761 
L 206.156932 73.208761 
Q 205.945706 72.284404 204.756578 71.658391 
Q 203.330146 70.904881 200.910167 70.904881 
Q 198.823978 70.904881 197.405369 71.523244 
Q 195.53823 72.339228 195.53823 74.045144 
Q 195.53823 75.339243 196.941192 76.167977 
Q 198.456287 77.069384 201.121393 77.069384 
z
M 200.795426 77.069384 
L 200.795426 77.069384 
z
" style="fill:none;opacity:0;"/>
   </g>
   <g id="patch_54">
    <path clip-path="url(#p0eead633a8)" d="M 201.014685 70.899229 
Q 202.652811 70.899229 203.847858 70.697341 
Q 205.579664 70.40743 205.967041 69.680635 
L 204.409935 69.680635 
Q 204.123833 70.086833 203.23008 70.27257 
Q 202.336326 70.458306 200.974175 70.458306 
Q 199.361368 70.458306 198.257469 70.07149 
Q 197.153569 69.68548 197.153569 68.92073 
Q 197.153569 68.260154 198.062514 67.845073 
Q 198.97399 67.429993 201.029876 67.429993 
Q 202.604705 67.429993 203.637712 67.720711 
Q 204.670719 68.012236 204.693506 68.663929 
L 201.055195 68.663929 
L 201.055195 69.079818 
L 206.156932 69.079818 
L 206.156932 67.096474 
L 205.14418 67.096474 
L 204.764399 67.573737 
Q 203.966857 67.293517 203.349078 67.184497 
Q 202.311007 66.997953 200.713392 66.997953 
Q 198.64991 66.997953 197.161165 67.42434 
Q 195.53823 67.959746 195.53823 68.893274 
Q 195.53823 69.824379 197.120655 70.374321 
Q 198.624591 70.899229 201.014685 70.899229 
z
M 200.753902 70.904881 
L 200.753902 70.904881 
z
" style="fill:none;opacity:0;"/>
   </g>
   <g id="patch_55">
    <path clip-path="url(#p0eead633a8)" d="M 206.156932 87.874019 
L 206.156932 86.586688 
L 201.746964 86.586688 
L 201.746964 77.069384 
L 199.948198 77.069384 
L 199.948198 86.586688 
L 195.53823 86.586688 
L 195.53823 87.874019 
L 206.156932 87.874019 
z
" style="fill:none;opacity:0;"/>
   </g>
   <g id="patch_56">
    <path clip-path="url(#p0eead633a8)" d="M 212.298975 68.900507 
Q 214.572921 68.900507 215.827242 68.719499 
Q 217.081563 68.538884 217.219773 68.309082 
L 215.639485 68.309082 
Q 215.370888 68.483401 214.567705 68.585316 
Q 213.764522 68.687625 212.314621 68.687625 
Q 210.546576 68.687625 209.45915 68.499928 
Q 208.371724 68.312624 208.371724 67.925424 
Q 208.371724 67.607872 209.352233 67.410337 
Q 210.335349 67.213196 212.283328 67.213196 
Q 214.074843 67.213196 215.013628 67.420962 
Q 215.509098 67.530353 215.754225 67.709001 
L 217.334513 67.709001 
Q 217.123287 67.423716 215.934159 67.230509 
Q 214.507727 66.997953 212.087748 66.997953 
Q 210.001559 66.997953 208.58295 67.188799 
Q 206.715811 67.440636 206.715811 67.967134 
Q 206.715811 68.366533 208.118773 68.622305 
Q 209.633868 68.900507 212.298975 68.900507 
z
M 211.973008 68.900507 
L 211.973008 68.900507 
z
" style="fill:none;opacity:0;"/>
   </g>
   <g id="patch_57">
    <path clip-path="url(#p0eead633a8)" d="M 217.334513 87.073203 
L 217.334513 84.907996 
L 212.924545 84.907996 
L 212.924545 68.900507 
L 211.12578 68.900507 
L 211.12578 84.907996 
L 206.715811 84.907996 
L 206.715811 87.073203 
L 217.334513 87.073203 
z
" style="fill:none;opacity:0;"/>
   </g>
   <g id="patch_58">
    <path clip-path="url(#p0eead633a8)" d="M 223.476556 72.743654 
Q 225.750502 72.743654 227.004823 72.372687 
Q 228.259144 72.002526 228.397354 71.531559 
L 226.817066 71.531559 
Q 226.548469 71.888816 225.745286 72.097687 
Q 224.942103 72.307364 223.492202 72.307364 
Q 221.724157 72.307364 220.636731 71.922687 
Q 219.549305 71.538817 219.549305 70.74527 
Q 219.549305 70.094464 220.529814 69.689626 
Q 221.51293 69.285594 223.460909 69.285594 
Q 225.252424 69.285594 226.191209 69.7114 
Q 226.686679 69.935593 226.931806 70.301722 
L 228.512094 70.301722 
Q 228.300868 69.717045 227.11174 69.321078 
Q 225.685308 68.844466 223.265329 68.844466 
Q 221.17914 68.844466 219.760531 69.235594 
Q 217.893392 69.751723 217.893392 70.830753 
Q 217.893392 71.6493 219.296354 72.173493 
Q 220.811449 72.743654 223.476556 72.743654 
z
M 223.150589 72.743654 
L 223.150589 72.743654 
z
" style="fill:none;opacity:0;"/>
   </g>
   <g id="patch_59">
    <path clip-path="url(#p0eead633a8)" d="M 223.369847 68.841794 
Q 225.007973 68.841794 226.20302 68.746377 
Q 227.934826 68.609358 228.322203 68.265856 
L 226.765098 68.265856 
Q 226.478995 68.457836 225.585242 68.545619 
Q 224.691488 68.633403 223.329337 68.633403 
Q 221.71653 68.633403 220.612631 68.450584 
Q 219.508731 68.268146 219.508731 67.906706 
Q 219.508731 67.594501 220.417676 67.398324 
Q 221.329153 67.202146 223.385039 67.202146 
Q 224.959868 67.202146 225.992874 67.339547 
Q 227.025881 67.477329 227.048668 67.785336 
L 223.410357 67.785336 
L 223.410357 67.981895 
L 228.512094 67.981895 
L 228.512094 67.044517 
L 227.499343 67.044517 
L 227.119561 67.270083 
Q 226.322019 67.137644 225.70424 67.086119 
Q 224.66617 66.997953 223.068554 66.997953 
Q 221.005072 66.997953 219.516327 67.199474 
Q 217.893392 67.45252 217.893392 67.893729 
Q 217.893392 68.333793 219.475817 68.59371 
Q 220.979753 68.841794 223.369847 68.841794 
z
M 223.109064 68.844466 
L 223.109064 68.844466 
z
" style="fill:none;opacity:0;"/>
   </g>
   <g id="patch_60">
    <path clip-path="url(#p0eead633a8)" d="M 228.512094 126.707146 
L 228.512094 120.277604 
L 224.102126 120.277604 
L 224.102126 72.743654 
L 222.303361 72.743654 
L 222.303361 120.277604 
L 217.893392 120.277604 
L 217.893392 126.707146 
L 228.512094 126.707146 
z
" style="fill:none;opacity:0;"/>
   </g>
   <g id="patch_61">
    <path clip-path="url(#p0eead633a8)" d="M 234.654137 96.868908 
Q 236.928083 96.868908 238.182404 94.026997 
Q 239.436725 91.191264 239.574935 87.583273 
L 237.994647 87.583273 
Q 237.72605 90.320157 236.922867 91.920276 
Q 236.119685 93.526573 234.669783 93.526573 
Q 232.901738 93.526573 231.814312 90.579635 
Q 230.726886 87.638875 230.726886 81.559657 
Q 230.726886 76.573957 231.707395 73.472568 
Q 232.690511 70.377356 234.63849 70.377356 
Q 236.430005 70.377356 237.36879 73.639375 
Q 237.86426 75.356878 238.109387 78.16172 
L 239.689676 78.16172 
Q 239.478449 73.682622 238.289321 70.649191 
Q 236.862889 66.997953 234.44291 66.997953 
Q 232.356721 66.997953 230.938113 69.994316 
Q 229.070973 73.948279 229.070973 82.214533 
Q 229.070973 88.485271 230.473936 92.501014 
Q 231.98903 96.868908 234.654137 96.868908 
z
M 234.32817 96.868908 
L 234.32817 96.868908 
z
" style="fill:none;opacity:0;"/>
   </g>
   <g id="patch_62">
    <path clip-path="url(#p0eead633a8)" d="M 234.547429 141.575222 
Q 236.185554 141.575222 237.380602 139.261709 
Q 239.112407 135.939505 239.499785 127.610861 
L 237.942679 127.610861 
Q 237.656576 132.265648 236.762823 134.394079 
Q 235.86907 136.522511 234.506918 136.522511 
Q 232.894111 136.522511 231.790212 132.089821 
Q 230.686312 127.666385 230.686312 118.9028 
Q 230.686312 111.332987 231.595257 106.576406 
Q 232.506734 101.819824 234.56262 101.819824 
Q 236.137449 101.819824 237.170456 105.151282 
Q 238.203462 108.491994 238.226249 115.960012 
L 234.587939 115.960012 
L 234.587939 120.725848 
L 239.689676 120.725848 
L 239.689676 97.997902 
L 238.676924 97.997902 
L 238.297142 103.467045 
Q 237.4996 100.25589 236.881821 99.006593 
Q 235.843751 96.868908 234.246135 96.868908 
Q 232.182653 96.868908 230.693908 101.755046 
Q 229.070973 107.890481 229.070973 118.588162 
Q 229.070973 129.258082 230.653398 135.560089 
Q 232.157334 141.575222 234.547429 141.575222 
z
M 234.286645 141.64 
L 234.286645 141.64 
z
" style="fill:none;opacity:0;"/>
   </g>
   <g id="patch_63">
    <path clip-path="url(#p0eead633a8)" d="M 245.831718 71.353656 
Q 248.105664 71.353656 249.359985 70.939257 
Q 250.614306 70.525758 250.752516 69.99965 
L 249.172228 69.99965 
Q 248.903631 70.398735 248.100448 70.63206 
Q 247.297266 70.866286 245.847364 70.866286 
Q 244.079319 70.866286 242.991893 70.436571 
Q 241.904467 70.007758 241.904467 69.121302 
Q 241.904467 68.394301 242.884976 67.942064 
Q 243.868093 67.490729 245.816071 67.490729 
Q 247.607586 67.490729 248.546371 67.966388 
Q 249.041841 68.216829 249.286968 68.625824 
L 250.867257 68.625824 
Q 250.65603 67.972694 249.466902 67.530367 
Q 248.040471 66.997953 245.620491 66.997953 
Q 243.534302 66.997953 242.115694 67.434875 
Q 240.248555 68.011431 240.248555 69.216794 
Q 240.248555 70.131177 241.651517 70.716742 
Q 243.166611 71.353656 245.831718 71.353656 
z
M 245.505751 71.353656 
L 245.505751 71.353656 
z
" style="fill:none;opacity:0;"/>
   </g>
   <g id="patch_64">
    <path clip-path="url(#p0eead633a8)" d="M 245.72501 101.217815 
Q 247.363136 101.217815 248.558183 99.672371 
Q 250.289988 97.453113 250.677366 91.889515 
L 249.12026 91.889515 
Q 248.834158 94.998948 247.940404 96.420757 
Q 247.046651 97.842565 245.6845 97.842565 
Q 244.071692 97.842565 242.967793 94.881495 
Q 241.863894 91.926606 241.863894 86.072464 
Q 241.863894 81.015772 242.772838 77.838339 
Q 243.684315 74.660906 245.740201 74.660906 
Q 247.31503 74.660906 248.348037 76.886346 
Q 249.381043 79.117967 249.40383 84.10666 
L 245.76552 84.10666 
L 245.76552 87.290274 
L 250.867257 87.290274 
L 250.867257 72.107833 
L 249.854505 72.107833 
L 249.474723 75.761263 
Q 248.677181 73.616186 248.059402 72.781647 
Q 247.021332 71.353656 245.423716 71.353656 
Q 243.360234 71.353656 241.871489 74.617634 
Q 240.248555 78.716151 240.248555 85.862284 
Q 240.248555 92.989871 241.830979 97.19966 
Q 243.334916 101.217815 245.72501 101.217815 
z
M 245.464226 101.261087 
L 245.464226 101.261087 
z
" style="fill:none;opacity:0;"/>
   </g>
   <g id="patch_65">
    <path clip-path="url(#p0eead633a8)" d="M 256.902591 85.023155 
Q 258.540717 85.023155 259.735764 84.090367 
Q 261.467569 82.750883 261.854947 79.392845 
L 260.297841 79.392845 
Q 260.011739 81.269615 259.117985 82.12778 
Q 258.224232 82.985945 256.862081 82.985945 
Q 255.249274 82.985945 254.145374 81.198723 
Q 253.041475 79.415231 253.041475 75.881829 
Q 253.041475 72.829746 253.950419 70.911933 
Q 254.861896 68.99412 256.917782 68.99412 
Q 258.492611 68.99412 259.525618 70.337335 
Q 260.558625 71.684282 260.581411 74.695323 
L 256.943101 74.695323 
L 256.943101 76.616866 
L 262.044838 76.616866 
L 262.044838 67.453154 
L 261.032086 67.453154 
L 260.652304 69.658266 
Q 259.854762 68.363555 259.236984 67.85985 
Q 258.198913 66.997953 256.601297 66.997953 
Q 254.537815 66.997953 253.04907 68.968002 
Q 251.426136 71.441757 251.426136 75.75497 
Q 251.426136 80.05699 253.00856 82.597905 
Q 254.512497 85.023155 256.902591 85.023155 
z
M 256.641807 85.049273 
L 256.641807 85.049273 
z
" style="fill:none;opacity:0;"/>
   </g>
   <g id="patch_66">
    <path clip-path="url(#p0eead633a8)" d="M 262.044838 108.710183 
L 262.044838 105.891076 
L 257.634869 105.891076 
L 257.634869 85.049273 
L 255.836104 85.049273 
L 255.836104 105.891076 
L 251.426136 105.891076 
L 251.426136 108.710183 
L 262.044838 108.710183 
z
" style="fill:none;opacity:0;"/>
   </g>
   <g id="patch_67">
    <path clip-path="url(#p0eead633a8)" d="M 268.080172 113.302764 
Q 269.718298 113.302764 270.913345 111.583925 
Q 272.64515 109.115673 273.032528 102.927855 
L 271.475422 102.927855 
Q 271.18932 106.386158 270.295566 107.967489 
Q 269.401813 109.548821 268.039662 109.548821 
Q 266.426855 109.548821 265.322955 106.255526 
Q 264.219056 102.969107 264.219056 96.458148 
Q 264.219056 90.834109 265.128001 87.300177 
Q 266.039477 83.766246 268.095363 83.766246 
Q 269.670192 83.766246 270.703199 86.241373 
Q 271.736206 88.723375 271.758993 94.271786 
L 268.120682 94.271786 
L 268.120682 97.812592 
L 273.222419 97.812592 
L 273.222419 80.926725 
L 272.209667 80.926725 
L 271.829885 84.990059 
Q 271.032343 82.604311 270.414565 81.676138 
Q 269.376494 80.087932 267.778878 80.087932 
Q 265.715397 80.087932 264.226651 83.718118 
Q 262.603717 88.276477 262.603717 96.224386 
Q 262.603717 104.151668 264.186141 108.833784 
Q 265.690078 113.302764 268.080172 113.302764 
z
M 267.819388 113.350891 
L 267.819388 113.350891 
z
" style="fill:none;opacity:0;"/>
   </g>
   <g id="patch_68">
    <path clip-path="url(#p0eead633a8)" d="M 273.222419 80.087932 
L 273.222419 78.528311 
L 268.812451 78.528311 
L 268.812451 66.997953 
L 267.013685 66.997953 
L 267.013685 78.528311 
L 262.603717 78.528311 
L 262.603717 80.087932 
L 273.222419 80.087932 
z
" style="fill:none;opacity:0;"/>
   </g>
   <g id="patch_69">
    <path clip-path="url(#p0eead633a8)" d="M 280.908813 76.68994 
L 279.102312 87.139354 
L 277.181771 76.68994 
L 280.908813 76.68994 
z
M 278.259969 90.653407 
L 280.082022 90.653407 
L 284.4 66.997953 
L 282.632376 66.997953 
L 281.427178 74.082739 
L 276.720426 74.082739 
L 275.43229 66.997953 
L 273.781298 66.997953 
L 278.259969 90.653407 
z
M 279.094537 90.653407 
L 279.094537 90.653407 
z
" style="fill:none;opacity:0;"/>
   </g>
   <g id="patch_70">
    <path clip-path="url(#p0eead633a8)" d="M 279.257753 123.855367 
Q 280.895879 123.855367 282.090926 122.137194 
Q 283.822732 119.669899 284.210109 113.484479 
L 282.653003 113.484479 
Q 282.366901 116.941442 281.473147 118.52216 
Q 280.579394 120.102879 279.217243 120.102879 
Q 277.604436 120.102879 276.500536 116.810861 
Q 275.396637 113.525715 275.396637 107.017279 
Q 275.396637 101.39542 276.305582 97.862858 
Q 277.217058 94.330296 279.272944 94.330296 
Q 280.847773 94.330296 281.88078 96.804464 
Q 282.913787 99.285504 282.936574 104.831764 
L 279.298263 104.831764 
L 279.298263 108.371199 
L 284.4 108.371199 
L 284.4 91.491875 
L 283.387248 91.491875 
L 283.007466 95.553635 
Q 282.209924 93.168812 281.592146 92.240999 
Q 280.554075 90.653407 278.956459 90.653407 
Q 276.892978 90.653407 275.404233 94.282187 
Q 273.781298 98.83878 273.781298 106.783608 
Q 273.781298 114.707818 275.363723 119.388119 
Q 276.867659 123.855367 279.257753 123.855367 
z
M 278.996969 123.903475 
L 278.996969 123.903475 
z
" style="fill:none;opacity:0;"/>
   </g>
   <g id="matplotlib.axis_1">
    <g id="xtick_1">
     <g id="line2d_2">
      <path clip-path="url(#p0eead633a8)" d="M 100.249351 141.64 
L 100.249351 22.547648 
" style="fill:none;stroke:#cccccc;stroke-linecap:round;stroke-width:0.8;"/>
     </g>
     <g id="text_1">
      <!-- 0 -->
      <g style="fill:#262626;" transform="translate(94.688414 162.986875)scale(0.2 -0.2)">
       <defs>
        <path d="M 1731 4475 
Q 2600 4475 2988 3759 
Q 3288 3206 3288 2244 
Q 3288 1331 3016 734 
Q 2622 -122 1728 -122 
Q 922 -122 528 578 
Q 200 1163 200 2147 
Q 200 2909 397 3456 
Q 766 4475 1731 4475 
z
M 1725 391 
Q 2163 391 2422 778 
Q 2681 1166 2681 2222 
Q 2681 2984 2493 3476 
Q 2306 3969 1766 3969 
Q 1269 3969 1039 3501 
Q 809 3034 809 2125 
Q 809 1441 956 1025 
Q 1181 391 1725 391 
z
" id="Helvetica-30" transform="scale(0.015625)"/>
       </defs>
       <use xlink:href="#Helvetica-30"/>
      </g>
     </g>
    </g>
    <g id="xtick_2">
     <g id="line2d_3">
      <path clip-path="url(#p0eead633a8)" d="M 212.025162 141.64 
L 212.025162 22.547648 
" style="fill:none;stroke:#cccccc;stroke-linecap:round;stroke-width:0.8;"/>
     </g>
     <g id="text_2">
      <!-- 10 -->
      <g style="fill:#262626;" transform="translate(200.903287 162.986875)scale(0.2 -0.2)">
       <defs>
        <path d="M 613 3169 
L 613 3600 
Q 1222 3659 1462 3798 
Q 1703 3938 1822 4456 
L 2266 4456 
L 2266 0 
L 1666 0 
L 1666 3169 
L 613 3169 
z
" id="Helvetica-31" transform="scale(0.015625)"/>
       </defs>
       <use xlink:href="#Helvetica-31"/>
       <use x="55.615234" xlink:href="#Helvetica-30"/>
      </g>
     </g>
    </g>
    <g id="text_3">
     <!-- Position -->
     <g style="fill:#262626;" transform="translate(145.20125 189.089219)scale(0.25 -0.25)">
      <defs>
       <path d="M 547 4591 
L 2613 4591 
Q 3225 4591 3600 4245 
Q 3975 3900 3975 3275 
Q 3975 2738 3640 2339 
Q 3306 1941 2613 1941 
L 1169 1941 
L 1169 0 
L 547 0 
L 547 4591 
z
M 3347 3272 
Q 3347 3778 2972 3959 
Q 2766 4056 2406 4056 
L 1169 4056 
L 1169 2466 
L 2406 2466 
Q 2825 2466 3086 2644 
Q 3347 2822 3347 3272 
z
" id="Helvetica-50" transform="scale(0.015625)"/>
       <path d="M 1741 363 
Q 2300 363 2508 786 
Q 2716 1209 2716 1728 
Q 2716 2197 2566 2491 
Q 2328 2953 1747 2953 
Q 1231 2953 997 2559 
Q 763 2166 763 1609 
Q 763 1075 997 719 
Q 1231 363 1741 363 
z
M 1763 3444 
Q 2409 3444 2856 3012 
Q 3303 2581 3303 1744 
Q 3303 934 2909 406 
Q 2516 -122 1688 -122 
Q 997 -122 590 345 
Q 184 813 184 1600 
Q 184 2444 612 2944 
Q 1041 3444 1763 3444 
z
M 1744 3428 
L 1744 3428 
z
" id="Helvetica-6f" transform="scale(0.015625)"/>
       <path d="M 747 1050 
Q 772 769 888 619 
Q 1100 347 1625 347 
Q 1938 347 2175 483 
Q 2413 619 2413 903 
Q 2413 1119 2222 1231 
Q 2100 1300 1741 1391 
L 1294 1503 
Q 866 1609 663 1741 
Q 300 1969 300 2372 
Q 300 2847 642 3140 
Q 984 3434 1563 3434 
Q 2319 3434 2653 2991 
Q 2863 2709 2856 2384 
L 2325 2384 
Q 2309 2575 2191 2731 
Q 1997 2953 1519 2953 
Q 1200 2953 1036 2831 
Q 872 2709 872 2509 
Q 872 2291 1088 2159 
Q 1213 2081 1456 2022 
L 1828 1931 
Q 2434 1784 2641 1647 
Q 2969 1431 2969 969 
Q 2969 522 2630 197 
Q 2291 -128 1597 -128 
Q 850 -128 539 211 
Q 228 550 206 1050 
L 747 1050 
z
M 1578 3428 
L 1578 3428 
z
" id="Helvetica-73" transform="scale(0.015625)"/>
       <path d="M 413 3331 
L 984 3331 
L 984 0 
L 413 0 
L 413 3331 
z
M 413 4591 
L 984 4591 
L 984 3953 
L 413 3953 
L 413 4591 
z
" id="Helvetica-69" transform="scale(0.015625)"/>
       <path d="M 525 4281 
L 1094 4281 
L 1094 3347 
L 1628 3347 
L 1628 2888 
L 1094 2888 
L 1094 703 
Q 1094 528 1213 469 
Q 1278 434 1431 434 
Q 1472 434 1519 436 
Q 1566 438 1628 444 
L 1628 0 
Q 1531 -28 1426 -40 
Q 1322 -53 1200 -53 
Q 806 -53 665 148 
Q 525 350 525 672 
L 525 2888 
L 72 2888 
L 72 3347 
L 525 3347 
L 525 4281 
z
" id="Helvetica-74" transform="scale(0.015625)"/>
       <path d="M 413 3347 
L 947 3347 
L 947 2872 
Q 1184 3166 1450 3294 
Q 1716 3422 2041 3422 
Q 2753 3422 3003 2925 
Q 3141 2653 3141 2147 
L 3141 0 
L 2569 0 
L 2569 2109 
Q 2569 2416 2478 2603 
Q 2328 2916 1934 2916 
Q 1734 2916 1606 2875 
Q 1375 2806 1200 2600 
Q 1059 2434 1017 2257 
Q 975 2081 975 1753 
L 975 0 
L 413 0 
L 413 3347 
z
M 1734 3428 
L 1734 3428 
z
" id="Helvetica-6e" transform="scale(0.015625)"/>
      </defs>
      <use xlink:href="#Helvetica-50"/>
      <use x="66.699219" xlink:href="#Helvetica-6f"/>
      <use x="122.314453" xlink:href="#Helvetica-73"/>
      <use x="172.314453" xlink:href="#Helvetica-69"/>
      <use x="194.53125" xlink:href="#Helvetica-74"/>
      <use x="222.314453" xlink:href="#Helvetica-69"/>
      <use x="244.53125" xlink:href="#Helvetica-6f"/>
      <use x="300.146484" xlink:href="#Helvetica-6e"/>
     </g>
    </g>
   </g>
   <g id="matplotlib.axis_2">
    <g id="ytick_1">
     <g id="line2d_4">
      <path clip-path="url(#p0eead633a8)" d="M 94.94 66.997953 
L 284.4 66.997953 
" style="fill:none;stroke:#cccccc;stroke-linecap:round;stroke-width:0.8;"/>
     </g>
     <g id="text_4">
      <!-- 0 -->
      <g style="fill:#262626;" transform="translate(76.818125 74.171391)scale(0.2 -0.2)">
       <use xlink:href="#Helvetica-30"/>
      </g>
     </g>
    </g>
    <g id="ytick_2">
     <g id="line2d_5">
      <path clip-path="url(#p0eead633a8)" d="M 94.94 57.026852 
L 284.4 57.026852 
" style="fill:none;stroke:#cccccc;stroke-linecap:round;stroke-width:0.8;"/>
     </g>
     <g id="text_5">
      <!-- 0.25 -->
      <g style="fill:#262626;" transform="translate(49.018125 64.20029)scale(0.2 -0.2)">
       <defs>
        <path d="M 547 681 
L 1200 681 
L 1200 0 
L 547 0 
L 547 681 
z
" id="Helvetica-2e" transform="scale(0.015625)"/>
        <path d="M 200 0 
Q 231 578 439 1006 
Q 647 1434 1250 1784 
L 1850 2131 
Q 2253 2366 2416 2531 
Q 2672 2791 2672 3125 
Q 2672 3516 2437 3745 
Q 2203 3975 1813 3975 
Q 1234 3975 1013 3538 
Q 894 3303 881 2888 
L 309 2888 
Q 319 3472 525 3841 
Q 891 4491 1816 4491 
Q 2584 4491 2939 4075 
Q 3294 3659 3294 3150 
Q 3294 2613 2916 2231 
Q 2697 2009 2131 1694 
L 1703 1456 
Q 1397 1288 1222 1134 
Q 909 863 828 531 
L 3272 531 
L 3272 0 
L 200 0 
z
" id="Helvetica-32" transform="scale(0.015625)"/>
        <path d="M 791 1141 
Q 847 659 1238 475 
Q 1438 381 1700 381 
Q 2200 381 2440 700 
Q 2681 1019 2681 1406 
Q 2681 1875 2395 2131 
Q 2109 2388 1709 2388 
Q 1419 2388 1211 2275 
Q 1003 2163 856 1963 
L 369 1991 
L 709 4400 
L 3034 4400 
L 3034 3856 
L 1131 3856 
L 941 2613 
Q 1097 2731 1238 2791 
Q 1488 2894 1816 2894 
Q 2431 2894 2859 2497 
Q 3288 2100 3288 1491 
Q 3288 856 2895 371 
Q 2503 -113 1644 -113 
Q 1097 -113 676 195 
Q 256 503 206 1141 
L 791 1141 
z
" id="Helvetica-35" transform="scale(0.015625)"/>
       </defs>
       <use xlink:href="#Helvetica-30"/>
       <use x="55.615234" xlink:href="#Helvetica-2e"/>
       <use x="83.398438" xlink:href="#Helvetica-32"/>
       <use x="139.013672" xlink:href="#Helvetica-35"/>
      </g>
     </g>
    </g>
    <g id="ytick_3">
     <g id="line2d_6">
      <path clip-path="url(#p0eead633a8)" d="M 94.94 47.055752 
L 284.4 47.055752 
" style="fill:none;stroke:#cccccc;stroke-linecap:round;stroke-width:0.8;"/>
     </g>
     <g id="text_6">
      <!-- 0.50 -->
      <g style="fill:#262626;" transform="translate(49.018125 54.229189)scale(0.2 -0.2)">
       <use xlink:href="#Helvetica-30"/>
       <use x="55.615234" xlink:href="#Helvetica-2e"/>
       <use x="83.398438" xlink:href="#Helvetica-35"/>
       <use x="139.013672" xlink:href="#Helvetica-30"/>
      </g>
     </g>
    </g>
    <g id="ytick_4">
     <g id="line2d_7">
      <path clip-path="url(#p0eead633a8)" d="M 94.94 37.084651 
L 284.4 37.084651 
" style="fill:none;stroke:#cccccc;stroke-linecap:round;stroke-width:0.8;"/>
     </g>
     <g id="text_7">
      <!-- 0.75 -->
      <g style="fill:#262626;" transform="translate(49.018125 44.258088)scale(0.2 -0.2)">
       <defs>
        <path d="M 3347 4400 
L 3347 3909 
Q 3131 3700 2773 3181 
Q 2416 2663 2141 2063 
Q 1869 1478 1728 997 
Q 1638 688 1494 0 
L 872 0 
Q 1084 1281 1809 2550 
Q 2238 3294 2709 3834 
L 234 3834 
L 234 4400 
L 3347 4400 
z
" id="Helvetica-37" transform="scale(0.015625)"/>
       </defs>
       <use xlink:href="#Helvetica-30"/>
       <use x="55.615234" xlink:href="#Helvetica-2e"/>
       <use x="83.398438" xlink:href="#Helvetica-37"/>
       <use x="139.013672" xlink:href="#Helvetica-35"/>
      </g>
     </g>
    </g>
    <g id="ytick_5">
     <g id="line2d_8">
      <path clip-path="url(#p0eead633a8)" d="M 94.94 27.11355 
L 284.4 27.11355 
" style="fill:none;stroke:#cccccc;stroke-linecap:round;stroke-width:0.8;"/>
     </g>
     <g id="text_8">
      <!-- 1.0 -->
      <g style="fill:#262626;" transform="translate(60.14 34.286988)scale(0.2 -0.2)">
       <use xlink:href="#Helvetica-31"/>
       <use x="55.615234" xlink:href="#Helvetica-2e"/>
       <use x="83.398438" xlink:href="#Helvetica-30"/>
      </g>
     </g>
    </g>
    <g id="text_9">
     <!-- Probability -->
     <g style="fill:#262626;" transform="translate(39.65875 140.453199)rotate(-90)scale(0.25 -0.25)">
      <defs>
       <path d="M 428 3347 
L 963 3347 
L 963 2769 
Q 1028 2938 1284 3180 
Q 1541 3422 1875 3422 
Q 1891 3422 1928 3419 
Q 1966 3416 2056 3406 
L 2056 2813 
Q 2006 2822 1964 2825 
Q 1922 2828 1872 2828 
Q 1447 2828 1219 2554 
Q 991 2281 991 1925 
L 991 0 
L 428 0 
L 428 3347 
z
" id="Helvetica-72" transform="scale(0.015625)"/>
       <path d="M 369 4606 
L 916 4606 
L 916 2941 
Q 1100 3181 1356 3307 
Q 1613 3434 1913 3434 
Q 2538 3434 2927 3004 
Q 3316 2575 3316 1738 
Q 3316 944 2931 419 
Q 2547 -106 1866 -106 
Q 1484 -106 1222 78 
Q 1066 188 888 428 
L 888 0 
L 369 0 
L 369 4606 
z
M 1831 391 
Q 2288 391 2514 753 
Q 2741 1116 2741 1709 
Q 2741 2238 2514 2584 
Q 2288 2931 1847 2931 
Q 1463 2931 1173 2647 
Q 884 2363 884 1709 
Q 884 1238 1003 944 
Q 1225 391 1831 391 
z
" id="Helvetica-62" transform="scale(0.015625)"/>
       <path d="M 844 891 
Q 844 647 1022 506 
Q 1200 366 1444 366 
Q 1741 366 2019 503 
Q 2488 731 2488 1250 
L 2488 1703 
Q 2384 1638 2221 1594 
Q 2059 1550 1903 1531 
L 1563 1488 
Q 1256 1447 1103 1359 
Q 844 1213 844 891 
z
M 2206 2028 
Q 2400 2053 2466 2191 
Q 2503 2266 2503 2406 
Q 2503 2694 2298 2823 
Q 2094 2953 1713 2953 
Q 1272 2953 1088 2716 
Q 984 2584 953 2325 
L 428 2325 
Q 444 2944 830 3186 
Q 1216 3428 1725 3428 
Q 2316 3428 2684 3203 
Q 3050 2978 3050 2503 
L 3050 575 
Q 3050 488 3086 434 
Q 3122 381 3238 381 
Q 3275 381 3322 386 
Q 3369 391 3422 400 
L 3422 -16 
Q 3291 -53 3222 -62 
Q 3153 -72 3034 -72 
Q 2744 -72 2613 134 
Q 2544 244 2516 444 
Q 2344 219 2022 53 
Q 1700 -113 1313 -113 
Q 847 -113 551 170 
Q 256 453 256 878 
Q 256 1344 547 1600 
Q 838 1856 1309 1916 
L 2206 2028 
z
M 1741 3428 
L 1741 3428 
z
" id="Helvetica-61" transform="scale(0.015625)"/>
       <path d="M 428 4591 
L 991 4591 
L 991 0 
L 428 0 
L 428 4591 
z
" id="Helvetica-6c" transform="scale(0.015625)"/>
       <path d="M 2503 3347 
L 3125 3347 
Q 3006 3025 2597 1878 
Q 2291 1016 2084 472 
Q 1597 -809 1397 -1090 
Q 1197 -1372 709 -1372 
Q 591 -1372 527 -1362 
Q 463 -1353 369 -1328 
L 369 -816 
Q 516 -856 581 -865 
Q 647 -875 697 -875 
Q 853 -875 926 -823 
Q 1000 -772 1050 -697 
Q 1066 -672 1162 -440 
Q 1259 -209 1303 -97 
L 66 3347 
L 703 3347 
L 1600 622 
L 2503 3347 
z
M 1597 3428 
L 1597 3428 
z
" id="Helvetica-79" transform="scale(0.015625)"/>
      </defs>
      <use xlink:href="#Helvetica-50"/>
      <use x="66.699219" xlink:href="#Helvetica-72"/>
      <use x="100" xlink:href="#Helvetica-6f"/>
      <use x="155.615234" xlink:href="#Helvetica-62"/>
      <use x="211.230469" xlink:href="#Helvetica-61"/>
      <use x="266.845703" xlink:href="#Helvetica-62"/>
      <use x="322.460938" xlink:href="#Helvetica-69"/>
      <use x="344.677734" xlink:href="#Helvetica-6c"/>
      <use x="366.894531" xlink:href="#Helvetica-69"/>
      <use x="389.111328" xlink:href="#Helvetica-74"/>
      <use x="416.894531" xlink:href="#Helvetica-79"/>
     </g>
    </g>
   </g>
   <g id="patch_71">
    <path d="M 94.94 141.64 
L 94.94 22.547648 
" style="fill:none;stroke:#000000;stroke-linecap:square;stroke-linejoin:miter;"/>
   </g>
  </g>
 </g>
 <defs>
  <clipPath id="p0eead633a8">
   <rect height="119.092352" width="189.46" x="94.94" y="22.547648"/>
  </clipPath>
 </defs>
</svg>
