<?xml version="1.0" encoding="utf-8" standalone="no"?>
<!DOCTYPE svg PUBLIC "-//W3C//DTD SVG 1.1//EN"
  "http://www.w3.org/Graphics/SVG/1.1/DTD/svg11.dtd">
<svg height="216pt" version="1.1" viewBox="0 0 306 216" width="306pt" xmlns="http://www.w3.org/2000/svg" xmlns:xlink="http://www.w3.org/1999/xlink">
 <metadata>
  <rdf:RDF xmlns:cc="http://creativecommons.org/ns#" xmlns:dc="http://purl.org/dc/elements/1.1/" xmlns:rdf="http://www.w3.org/1999/02/22-rdf-syntax-ns#">
   <cc:Work>
    <dc:type rdf:resource="http://purl.org/dc/dcmitype/StillImage"/>
    <dc:date>2021-12-20T22:24:40.441424</dc:date>
    <dc:format>image/svg+xml</dc:format>
    <dc:creator>
     <cc:Agent>
      <dc:title>Matplotlib v3.4.2, https://matplotlib.org/</dc:title>
     </cc:Agent>
    </dc:creator>
   </cc:Work>
  </rdf:RDF>
 </metadata>
 <defs>
  <style type="text/css">*{stroke-linecap:butt;stroke-linejoin:round;}</style>
 </defs>
 <g id="figure_1">
  <g id="patch_1">
   <path d="M 0 216 
L 306 216 
L 306 0 
L 0 0 
z
" style="fill:#ffffff;"/>
  </g>
  <g id="axes_1">
   <g id="patch_2">
    <path d="M 94.94 141.64 
L 284.4 141.64 
L 284.4 21.6 
L 94.94 21.6 
z
" style="fill:#ffffff;"/>
   </g>
   <g id="line2d_1">
    <path clip-path="url(#pa2eca2199a)" d="M 94.94 63.264744 
L 284.4 63.264744 
" style="fill:none;stroke:#000000;stroke-linecap:round;stroke-width:0.5;"/>
   </g>
   <g id="patch_3">
    <path clip-path="url(#pa2eca2199a)" d="M 102.067515 53.786009 
L 100.261014 43.566511 
L 98.340473 53.786009 
L 102.067515 53.786009 
z
M 99.418672 40.129776 
L 101.240724 40.129776 
L 105.558702 63.264744 
L 103.791078 63.264744 
L 102.58588 56.335844 
L 97.879128 56.335844 
L 96.590992 63.264744 
L 94.94 63.264744 
L 99.418672 40.129776 
z
M 100.253239 40.129776 
L 100.253239 40.129776 
z
" style="fill:#008000;"/>
   </g>
   <g id="patch_4">
    <path clip-path="url(#pa2eca2199a)" d="M 111.700744 60.704601 
Q 113.97469 60.704601 115.229012 60.948172 
Q 116.483333 61.191213 116.621543 61.500442 
L 115.041255 61.500442 
Q 114.772658 61.265873 113.969475 61.128732 
Q 113.166292 60.991061 111.716391 60.991061 
Q 109.948346 60.991061 108.86092 61.243634 
Q 107.773494 61.495677 107.773494 62.016707 
Q 107.773494 62.444016 108.754002 62.709826 
Q 109.737119 62.975106 111.685098 62.975106 
Q 113.476613 62.975106 114.415398 62.695529 
Q 114.910868 62.548327 115.155995 62.307933 
L 116.736283 62.307933 
Q 116.525057 62.691823 115.335929 62.951808 
Q 113.909497 63.264744 111.489518 63.264744 
Q 109.403329 63.264744 107.98472 63.007935 
Q 106.117581 62.669054 106.117581 61.96058 
Q 106.117581 61.423135 107.520543 61.078959 
Q 109.035638 60.704601 111.700744 60.704601 
z
M 111.374777 60.704601 
L 111.374777 60.704601 
z
" style="fill:#0000ff;"/>
   </g>
   <g id="patch_5">
    <path clip-path="url(#pa2eca2199a)" d="M 113.245097 56.195064 
L 111.438595 51.333108 
L 109.518054 56.195064 
L 113.245097 56.195064 
z
M 110.596253 49.698072 
L 112.418305 49.698072 
L 116.736283 60.704601 
L 114.968659 60.704601 
L 113.763461 57.408156 
L 109.056709 57.408156 
L 107.768573 60.704601 
L 106.117581 60.704601 
L 110.596253 49.698072 
z
M 111.43082 49.698072 
L 111.43082 49.698072 
z
" style="fill:#008000;"/>
   </g>
   <g id="patch_6">
    <path clip-path="url(#pa2eca2199a)" d="M 122.878326 60.927812 
Q 125.152272 60.927812 126.406593 61.150147 
Q 127.660914 61.371998 127.799124 61.654267 
L 126.218836 61.654267 
Q 125.950239 61.440149 125.147056 61.314964 
Q 124.343873 61.189297 122.893972 61.189297 
Q 121.125927 61.189297 120.038501 61.419848 
Q 118.951075 61.649917 118.951075 62.12552 
Q 118.951075 62.515572 119.931584 62.758207 
Q 120.9147 63.000359 122.862679 63.000359 
Q 124.654194 63.000359 125.592979 62.745157 
Q 126.088449 62.61079 126.333576 62.391355 
L 127.913864 62.391355 
Q 127.702638 62.741774 126.51351 62.979092 
Q 125.087078 63.264744 122.667099 63.264744 
Q 120.58091 63.264744 119.162301 63.030326 
Q 117.295162 62.72099 117.295162 62.074286 
Q 117.295162 61.5837 118.698124 61.269531 
Q 120.213219 60.927812 122.878326 60.927812 
z
M 122.552359 60.927812 
L 122.552359 60.927812 
z
" style="fill:#0000ff;"/>
   </g>
   <g id="patch_7">
    <path clip-path="url(#pa2eca2199a)" d="M 124.422678 56.153901 
L 122.616176 51.006909 
L 120.695635 56.153901 
L 124.422678 56.153901 
z
M 121.773834 49.276017 
L 123.595886 49.276017 
L 127.913864 60.927812 
L 126.14624 60.927812 
L 124.941042 57.438111 
L 120.23429 57.438111 
L 118.946154 60.927812 
L 117.295162 60.927812 
L 121.773834 49.276017 
z
M 122.608401 49.276017 
L 122.608401 49.276017 
z
" style="fill:#008000;"/>
   </g>
   <g id="patch_8">
    <path clip-path="url(#pa2eca2199a)" d="M 133.949198 58.547845 
Q 135.587324 58.547845 136.782371 58.79194 
Q 138.514177 59.142461 138.901554 60.021205 
L 137.344449 60.021205 
Q 137.058346 59.530085 136.164593 59.305517 
Q 135.270839 59.080949 133.908688 59.080949 
Q 132.295881 59.080949 131.191982 59.548636 
Q 130.088082 60.015346 130.088082 60.93998 
Q 130.088082 61.73866 130.997027 62.24052 
Q 131.908504 62.74238 133.96439 62.74238 
Q 135.539219 62.74238 136.572225 62.390883 
Q 137.605232 62.038409 137.628019 61.250469 
L 133.989709 61.250469 
L 133.989709 60.747632 
L 139.091445 60.747632 
L 139.091445 63.145626 
L 138.078694 63.145626 
L 137.698912 62.568584 
Q 136.90137 62.907388 136.283591 63.0392 
Q 135.245521 63.264744 133.647905 63.264744 
Q 131.584423 63.264744 130.095678 62.749215 
Q 128.472743 62.101874 128.472743 60.973177 
Q 128.472743 59.847409 130.055168 59.182493 
Q 131.559104 58.547845 133.949198 58.547845 
z
M 133.688415 58.54101 
L 133.688415 58.54101 
z
" style="fill:#ffa600;"/>
   </g>
   <g id="patch_9">
    <path clip-path="url(#pa2eca2199a)" d="M 135.600259 48.36376 
L 133.793758 37.39116 
L 131.873216 48.36376 
L 135.600259 48.36376 
z
M 132.951415 33.701163 
L 134.773467 33.701163 
L 139.091445 58.54101 
L 137.323822 58.54101 
L 136.118624 51.1015 
L 131.411872 51.1015 
L 130.123735 58.54101 
L 128.472743 58.54101 
L 132.951415 33.701163 
z
M 133.785982 33.701163 
L 133.785982 33.701163 
z
" style="fill:#008000;"/>
   </g>
   <g id="patch_10">
    <path clip-path="url(#pa2eca2199a)" d="M 146.77784 62.100572 
L 144.971339 60.845419 
L 143.050797 62.100572 
L 146.77784 62.100572 
z
M 144.128996 60.423321 
L 145.951048 60.423321 
L 150.269027 63.264744 
L 148.501403 63.264744 
L 147.296205 62.413741 
L 142.589453 62.413741 
L 141.301316 63.264744 
L 139.650324 63.264744 
L 144.128996 60.423321 
z
M 144.963563 60.423321 
L 144.963563 60.423321 
z
" style="fill:#008000;"/>
   </g>
   <g id="patch_11">
    <path clip-path="url(#pa2eca2199a)" d="M 145.12678 38.245395 
Q 146.764906 38.245395 147.959953 39.393083 
Q 149.691758 41.041163 150.079136 45.172841 
L 148.52203 45.172841 
Q 148.235927 42.863692 147.342174 41.807819 
Q 146.448421 40.751946 145.086269 40.751946 
Q 143.473462 40.751946 142.369563 42.950916 
Q 141.265664 45.145296 141.265664 49.492739 
Q 141.265664 53.247975 142.174608 55.607622 
Q 143.086085 57.967269 145.141971 57.967269 
Q 146.7168 57.967269 147.749807 56.314598 
Q 148.782813 54.657336 148.8056 50.952598 
L 145.16729 50.952598 
L 145.16729 48.588361 
L 150.269027 48.588361 
L 150.269027 59.86325 
L 149.256275 59.86325 
L 148.876493 57.150115 
Q 148.078951 58.743106 147.461172 59.362858 
Q 146.423102 60.423321 144.825486 60.423321 
Q 142.762004 60.423321 141.273259 57.999404 
Q 139.650324 54.955735 139.650324 49.648825 
Q 139.650324 44.355687 141.232749 41.229384 
Q 142.736685 38.245395 145.12678 38.245395 
z
M 144.865996 38.213259 
L 144.865996 38.213259 
z
" style="fill:#ffa600;"/>
   </g>
   <g id="patch_12">
    <path clip-path="url(#pa2eca2199a)" d="M 157.955421 51.673115 
L 156.14892 39.175601 
L 154.228378 51.673115 
L 157.955421 51.673115 
z
M 155.306577 34.972788 
L 157.128629 34.972788 
L 161.446608 63.264744 
L 159.678984 63.264744 
L 158.473786 54.791331 
L 153.767034 54.791331 
L 152.478897 63.264744 
L 150.827906 63.264744 
L 155.306577 34.972788 
z
M 156.141144 34.972788 
L 156.141144 34.972788 
z
" style="fill:#008000;"/>
   </g>
   <g id="patch_13">
    <path clip-path="url(#pa2eca2199a)" d="M 169.133002 57.71802 
L 167.326501 51.73782 
L 165.40596 57.71802 
L 169.133002 57.71802 
z
M 166.484158 49.726727 
L 168.30621 49.726727 
L 172.624189 63.264744 
L 170.856565 63.264744 
L 169.651367 59.210121 
L 164.944615 59.210121 
L 163.656478 63.264744 
L 162.005487 63.264744 
L 166.484158 49.726727 
z
M 167.318725 49.726727 
L 167.318725 49.726727 
z
" style="fill:#008000;"/>
   </g>
   <g id="patch_14">
    <path clip-path="url(#pa2eca2199a)" d="M 167.481942 23.159778 
Q 169.120068 23.159778 170.315115 24.534594 
Q 172.04692 26.50883 172.434298 31.458169 
L 170.877192 31.458169 
Q 170.59109 28.692038 169.697336 27.427207 
Q 168.803583 26.162376 167.441432 26.162376 
Q 165.828625 26.162376 164.724725 28.796524 
Q 163.620826 31.425173 163.620826 36.632977 
Q 163.620826 41.131376 164.52977 43.957998 
Q 165.441247 46.78462 167.497133 46.78462 
Q 169.071962 46.78462 170.104969 44.804885 
Q 171.137976 42.81965 171.160763 38.381743 
L 167.522452 38.381743 
L 167.522452 35.549622 
L 172.624189 35.549622 
L 172.624189 49.055817 
L 171.611437 49.055817 
L 171.231655 45.805751 
Q 170.434113 47.713996 169.816335 48.456397 
Q 168.778264 49.726727 167.180648 49.726727 
Q 165.117166 49.726727 163.628421 46.823115 
Q 162.005487 43.177102 162.005487 36.819952 
Q 162.005487 30.479299 163.587911 26.7343 
Q 165.091848 23.159778 167.481942 23.159778 
z
M 167.221158 23.121283 
L 167.221158 23.121283 
z
" style="fill:#ffa600;"/>
   </g>
   <g id="patch_15">
    <path clip-path="url(#pa2eca2199a)" d="M 180.310583 56.220362 
L 178.504082 48.625462 
L 176.583541 56.220362 
L 180.310583 56.220362 
z
M 177.661739 46.071359 
L 179.483791 46.071359 
L 183.80177 63.264744 
L 182.034146 63.264744 
L 180.828948 58.115342 
L 176.122196 58.115342 
L 174.83406 63.264744 
L 173.183068 63.264744 
L 177.661739 46.071359 
z
M 178.496307 46.071359 
L 178.496307 46.071359 
z
" style="fill:#008000;"/>
   </g>
   <g id="patch_16">
    <path clip-path="url(#pa2eca2199a)" d="M 178.659523 21.635407 
Q 180.297649 21.635407 181.492696 22.899946 
Q 183.224501 24.715824 183.611879 29.268165 
L 182.054773 29.268165 
Q 181.768671 26.723912 180.874917 25.560536 
Q 179.981164 24.39716 178.619013 24.39716 
Q 177.006206 24.39716 175.902306 26.820017 
Q 174.798407 29.237816 174.798407 34.027889 
Q 174.798407 38.165461 175.707352 40.765353 
Q 176.618828 43.365246 178.674714 43.365246 
Q 180.249543 43.365246 181.28255 41.544309 
Q 182.315557 39.718315 182.338344 35.636383 
L 178.700033 35.636383 
L 178.700033 33.031433 
L 183.80177 33.031433 
L 183.80177 45.454264 
L 182.789018 45.454264 
L 182.409236 42.464894 
Q 181.611694 44.220074 180.993916 44.902925 
Q 179.955845 46.071359 178.358229 46.071359 
Q 176.294748 46.071359 174.806003 43.400653 
Q 173.183068 40.047095 173.183068 34.199867 
Q 173.183068 28.367813 174.765492 24.923209 
Q 176.269429 21.635407 178.659523 21.635407 
z
M 178.398739 21.6 
L 178.398739 21.6 
z
" style="fill:#ffa600;"/>
   </g>
   <g id="patch_17">
    <path clip-path="url(#pa2eca2199a)" d="M 189.837104 57.384578 
Q 191.47523 57.384578 192.670277 57.688871 
Q 194.402083 58.125836 194.78946 59.221293 
L 193.232354 59.221293 
Q 192.946252 58.609054 192.052498 58.329104 
Q 191.158745 58.049154 189.796594 58.049154 
Q 188.183787 58.049154 187.079887 58.632181 
Q 185.975988 59.21399 185.975988 60.366653 
Q 185.975988 61.362301 186.884933 61.987929 
Q 187.796409 62.613556 189.852295 62.613556 
Q 191.427124 62.613556 192.460131 62.175374 
Q 193.493138 61.735974 193.515925 60.753715 
L 189.877614 60.753715 
L 189.877614 60.12687 
L 194.979351 60.12687 
L 194.979351 63.116249 
L 193.966599 63.116249 
L 193.586817 62.396899 
Q 192.789275 62.819258 192.171497 62.983577 
Q 191.133426 63.264744 189.53581 63.264744 
Q 187.472329 63.264744 185.983584 62.622076 
Q 184.360649 61.81509 184.360649 60.408037 
Q 184.360649 59.004636 185.943074 58.17574 
Q 187.44701 57.384578 189.837104 57.384578 
z
M 189.57632 57.376057 
L 189.57632 57.376057 
z
" style="fill:#ffa600;"/>
   </g>
   <g id="patch_18">
    <path clip-path="url(#pa2eca2199a)" d="M 191.488164 43.746294 
L 189.681663 29.051366 
L 187.761122 43.746294 
L 191.488164 43.746294 
z
M 188.83932 24.10958 
L 190.661373 24.10958 
L 194.979351 57.376057 
L 193.211727 57.376057 
L 192.006529 47.41278 
L 187.299777 47.41278 
L 186.011641 57.376057 
L 184.360649 57.376057 
L 188.83932 24.10958 
z
M 189.673888 24.10958 
L 189.673888 24.10958 
z
" style="fill:#008000;"/>
   </g>
   <g id="patch_19">
    <path clip-path="url(#pa2eca2199a)" d="M 201.014685 61.606029 
Q 202.652811 61.606029 203.847858 61.691866 
Q 205.579664 61.815128 205.967041 62.124142 
L 204.409935 62.124142 
Q 204.123833 61.951438 203.23008 61.872467 
Q 202.336326 61.793497 200.974175 61.793497 
Q 199.361368 61.793497 198.257469 61.957961 
Q 197.153569 62.122082 197.153569 62.447232 
Q 197.153569 62.728091 198.062514 62.904572 
Q 198.97399 63.081053 201.029876 63.081053 
Q 202.604705 63.081053 203.637712 62.957448 
Q 204.670719 62.833499 204.693506 62.556417 
L 201.055195 62.556417 
L 201.055195 62.379593 
L 206.156932 62.379593 
L 206.156932 63.222856 
L 205.14418 63.222856 
L 204.764399 63.019937 
Q 203.966857 63.139079 203.349078 63.185431 
Q 202.311007 63.264744 200.713392 63.264744 
Q 198.64991 63.264744 197.161165 63.083456 
Q 195.53823 62.855816 195.53823 62.458906 
Q 195.53823 62.063026 197.120655 61.829206 
Q 198.624591 61.606029 201.014685 61.606029 
z
M 200.753902 61.603626 
L 200.753902 61.603626 
z
" style="fill:#ffa600;"/>
   </g>
   <g id="patch_20">
    <path clip-path="url(#pa2eca2199a)" d="M 202.665746 52.422608 
L 200.859244 42.524095 
L 198.938703 52.422608 
L 202.665746 52.422608 
z
M 200.016902 39.195305 
L 201.838954 39.195305 
L 206.156932 61.603626 
L 204.389308 61.603626 
L 203.18411 54.892356 
L 198.477358 54.892356 
L 197.189222 61.603626 
L 195.53823 61.603626 
L 200.016902 39.195305 
z
M 200.851469 39.195305 
L 200.851469 39.195305 
z
" style="fill:#008000;"/>
   </g>
   <g id="patch_21">
    <path clip-path="url(#pa2eca2199a)" d="M 212.192266 62.721001 
Q 213.830392 62.721001 215.025439 62.749139 
Q 216.757245 62.789545 217.144622 62.890843 
L 215.587517 62.890843 
Q 215.301414 62.834229 214.407661 62.808342 
Q 213.513907 62.782455 212.151756 62.782455 
Q 210.538949 62.782455 209.43505 62.836368 
Q 208.33115 62.890168 208.33115 62.996755 
Q 208.33115 63.088824 209.240095 63.146676 
Q 210.151572 63.204528 212.207458 63.204528 
Q 213.782287 63.204528 214.815293 63.164009 
Q 215.8483 63.123378 215.871087 63.032547 
L 212.232776 63.032547 
L 212.232776 62.974583 
L 217.334513 62.974583 
L 217.334513 63.251013 
L 216.321762 63.251013 
L 215.94198 63.184494 
Q 215.144438 63.22355 214.526659 63.238744 
Q 213.488589 63.264744 211.890973 63.264744 
Q 209.827491 63.264744 208.338746 63.205316 
Q 206.715811 63.130693 206.715811 63.000582 
Q 206.715811 62.870809 208.298236 62.79416 
Q 209.802172 62.721001 212.192266 62.721001 
z
M 211.931483 62.720213 
L 211.931483 62.720213 
z
" style="fill:#ffa600;"/>
   </g>
   <g id="patch_22">
    <path clip-path="url(#pa2eca2199a)" d="M 212.298975 54.436239 
Q 214.572921 54.436239 215.827242 55.224373 
Q 217.081563 56.010794 217.219773 57.011381 
L 215.639485 57.011381 
Q 215.370888 56.252374 214.567705 55.80862 
Q 213.764522 55.363153 212.314621 55.363153 
Q 210.546576 55.363153 209.45915 56.180414 
Q 208.371724 56.995961 208.371724 58.681883 
Q 208.371724 60.064544 209.352233 60.924638 
Q 210.335349 61.783019 212.283328 61.783019 
Q 214.074843 61.783019 215.013628 60.878378 
Q 215.509098 60.402071 215.754225 59.624217 
L 217.334513 59.624217 
Q 217.123287 60.866385 215.934159 61.707632 
Q 214.507727 62.720213 212.087748 62.720213 
Q 210.001559 62.720213 208.58295 61.889245 
Q 206.715811 60.792711 206.715811 58.500269 
Q 206.715811 56.761234 208.118773 55.647567 
Q 209.633868 54.436239 212.298975 54.436239 
z
M 211.973008 54.436239 
L 211.973008 54.436239 
z
" style="fill:#0000ff;"/>
   </g>
   <g id="patch_23">
    <path clip-path="url(#pa2eca2199a)" d="M 213.843327 50.158339 
L 212.036825 45.546122 
L 210.116284 50.158339 
L 213.843327 50.158339 
z
M 211.194483 43.995071 
L 213.016535 43.995071 
L 217.334513 54.436239 
L 215.566889 54.436239 
L 214.361691 51.309119 
L 209.654939 51.309119 
L 208.366803 54.436239 
L 206.715811 54.436239 
L 211.194483 43.995071 
z
M 212.02905 43.995071 
L 212.02905 43.995071 
z
" style="fill:#008000;"/>
   </g>
   <g id="patch_24">
    <path clip-path="url(#pa2eca2199a)" d="M 225.020908 52.127439 
L 223.214407 40.119755 
L 221.293865 52.127439 
L 225.020908 52.127439 
z
M 222.372064 36.081667 
L 224.194116 36.081667 
L 228.512094 63.264744 
L 226.744471 63.264744 
L 225.539273 55.123439 
L 220.832521 55.123439 
L 219.544384 63.264744 
L 217.893392 63.264744 
L 222.372064 36.081667 
z
M 223.206631 36.081667 
L 223.206631 36.081667 
z
" style="fill:#008000;"/>
   </g>
   <g id="patch_25">
    <path clip-path="url(#pa2eca2199a)" d="M 239.689676 56.755872 
L 239.689676 57.531379 
L 235.279707 57.531379 
L 235.279707 63.264744 
L 233.480942 63.264744 
L 233.480942 57.531379 
L 229.070973 57.531379 
L 229.070973 56.755872 
L 239.689676 56.755872 
z
" style="fill:#ff0000;"/>
   </g>
   <g id="patch_26">
    <path clip-path="url(#pa2eca2199a)" d="M 236.198489 46.276244 
L 234.391988 34.977635 
L 232.471446 46.276244 
L 236.198489 46.276244 
z
M 233.549645 31.178004 
L 235.371697 31.178004 
L 239.689676 56.755872 
L 237.922052 56.755872 
L 236.716854 49.095326 
L 232.010102 49.095326 
L 230.721965 56.755872 
L 229.070973 56.755872 
L 233.549645 31.178004 
z
M 234.384212 31.178004 
L 234.384212 31.178004 
z
" style="fill:#008000;"/>
   </g>
   <g id="patch_27">
    <path clip-path="url(#pa2eca2199a)" d="M 250.867257 63.030631 
L 250.867257 63.058524 
L 246.457288 63.058524 
L 246.457288 63.264744 
L 244.658523 63.264744 
L 244.658523 63.058524 
L 240.248555 63.058524 
L 240.248555 63.030631 
L 250.867257 63.030631 
z
" style="fill:#ff0000;"/>
   </g>
   <g id="patch_28">
    <path clip-path="url(#pa2eca2199a)" d="M 247.37607 55.677485 
L 245.569569 47.749692 
L 243.649027 55.677485 
L 247.37607 55.677485 
z
M 244.727226 45.083639 
L 246.549278 45.083639 
L 250.867257 63.030631 
L 249.099633 63.030631 
L 247.894435 57.655524 
L 243.187683 57.655524 
L 241.899546 63.030631 
L 240.248555 63.030631 
L 244.727226 45.083639 
z
M 245.561793 45.083639 
L 245.561793 45.083639 
z
" style="fill:#008000;"/>
   </g>
   <g id="patch_29">
    <path clip-path="url(#pa2eca2199a)" d="M 257.009299 52.358247 
Q 259.283245 52.358247 260.537566 53.395887 
Q 261.791887 54.431271 261.930097 55.748623 
L 260.349809 55.748623 
Q 260.081212 54.74933 259.27803 54.165094 
Q 258.474847 53.578602 257.024945 53.578602 
Q 255.2569 53.578602 254.169474 54.654589 
Q 253.082048 55.728321 253.082048 57.947968 
Q 253.082048 59.768349 254.062557 60.90073 
Q 255.045674 62.030855 256.993653 62.030855 
Q 258.785167 62.030855 259.723952 60.839825 
Q 260.219422 60.21273 260.46455 59.188624 
L 262.044838 59.188624 
Q 261.833611 60.824035 260.644483 61.931602 
Q 259.218052 63.264744 256.798072 63.264744 
Q 254.711883 63.264744 253.293275 62.170711 
Q 251.426136 60.727038 251.426136 57.70886 
Q 251.426136 55.419285 252.829098 53.953055 
Q 254.344193 52.358247 257.009299 52.358247 
z
M 256.683332 52.358247 
L 256.683332 52.358247 
z
" style="fill:#0000ff;"/>
   </g>
   <g id="patch_30">
    <path clip-path="url(#pa2eca2199a)" d="M 258.553651 46.151882 
L 256.74715 39.46049 
L 254.826609 46.151882 
L 258.553651 46.151882 
z
M 255.904807 37.210229 
L 257.726859 37.210229 
L 262.044838 52.358247 
L 260.277214 52.358247 
L 259.072016 47.821431 
L 254.365264 47.821431 
L 253.077127 52.358247 
L 251.426136 52.358247 
L 255.904807 37.210229 
z
M 256.739374 37.210229 
L 256.739374 37.210229 
z
" style="fill:#008000;"/>
   </g>
   <g id="patch_31">
    <path clip-path="url(#pa2eca2199a)" d="M 269.731232 60.313828 
L 267.924731 57.132299 
L 266.00419 60.313828 
L 269.731232 60.313828 
z
M 267.082388 56.062376 
L 268.90444 56.062376 
L 273.222419 63.264744 
L 271.454795 63.264744 
L 270.249597 61.107642 
L 265.542845 61.107642 
L 264.254709 63.264744 
L 262.603717 63.264744 
L 267.082388 56.062376 
z
M 267.916956 56.062376 
L 267.916956 56.062376 
z
" style="fill:#008000;"/>
   </g>
   <g id="patch_32">
    <path clip-path="url(#pa2eca2199a)" d="M 268.18688 37.202719 
Q 270.460826 37.202719 271.715147 38.99702 
Q 272.969468 40.787419 273.107678 43.065401 
L 271.52739 43.065401 
Q 271.258793 41.337412 270.455611 40.327142 
Q 269.652428 39.312973 268.202527 39.312973 
Q 266.434481 39.312973 265.347055 41.173584 
Q 264.259629 43.030295 264.259629 46.868537 
Q 264.259629 50.016364 265.240138 51.974492 
Q 266.223255 53.928719 268.171234 53.928719 
Q 269.962749 53.928719 270.901534 51.869175 
Q 271.397003 50.784793 271.642131 49.013897 
L 273.222419 49.013897 
Q 273.011192 51.84187 271.822065 53.757091 
Q 270.395633 56.062376 267.975654 56.062376 
Q 265.889465 56.062376 264.470856 54.17056 
Q 262.603717 51.674142 262.603717 46.455068 
Q 262.603717 42.495905 264.006679 39.960481 
Q 265.521774 37.202719 268.18688 37.202719 
z
M 267.860913 37.202719 
L 267.860913 37.202719 
z
" style="fill:#0000ff;"/>
   </g>
   <g id="patch_33">
    <path clip-path="url(#pa2eca2199a)" d="M 284.4 61.257043 
L 284.4 61.496253 
L 279.990032 61.496253 
L 279.990032 63.264744 
L 278.191266 63.264744 
L 278.191266 61.496253 
L 273.781298 61.496253 
L 273.781298 61.257043 
L 284.4 61.257043 
z
" style="fill:#ff0000;"/>
   </g>
   <g id="patch_34">
    <path clip-path="url(#pa2eca2199a)" d="M 279.364461 33.044091 
Q 281.638407 33.044091 282.892728 35.72826 
Q 284.14705 38.406594 284.28526 41.814322 
L 282.704971 41.814322 
Q 282.436375 39.229351 281.633192 37.718047 
Q 280.830009 36.200908 279.380108 36.200908 
Q 277.612063 36.200908 276.524636 38.984274 
Q 275.43721 41.761806 275.43721 47.503594 
Q 275.43721 52.21256 276.417719 55.141805 
Q 277.400836 58.065216 279.348815 58.065216 
Q 281.14033 58.065216 282.079115 54.984256 
Q 282.574585 53.362084 282.819712 50.712926 
L 284.4 50.712926 
Q 284.188773 54.94341 282.999646 57.808469 
Q 281.573214 61.257043 279.153235 61.257043 
Q 277.067046 61.257043 275.648437 58.426995 
Q 273.781298 54.692499 273.781298 46.885068 
Q 273.781298 40.96239 275.18426 37.169542 
Q 276.699355 33.044091 279.364461 33.044091 
z
M 279.038494 33.044091 
L 279.038494 33.044091 
z
" style="fill:#0000ff;"/>
   </g>
   <g id="patch_35">
    <path clip-path="url(#pa2eca2199a)" d="M 100.523163 81.450434 
Q 102.797109 81.450434 104.051431 80.466143 
Q 105.305752 79.483991 105.443962 78.234369 
L 103.863673 78.234369 
Q 103.595077 79.182284 102.791894 79.736483 
Q 101.988711 80.292822 100.53881 80.292822 
Q 98.770765 80.292822 97.683339 79.272155 
Q 96.595913 78.253627 96.595913 76.148099 
Q 96.595913 74.42131 97.576421 73.347148 
Q 98.559538 72.275126 100.507517 72.275126 
Q 102.299032 72.275126 103.237817 73.404922 
Q 103.733287 73.999776 103.978414 74.971229 
L 105.558702 74.971229 
Q 105.347475 73.4199 104.158348 72.369276 
Q 102.731916 71.104675 100.311937 71.104675 
Q 98.225748 71.104675 96.807139 72.142461 
Q 94.94 73.51191 94.94 76.374914 
Q 94.94 78.546775 96.342962 79.937621 
Q 97.858057 81.450434 100.523163 81.450434 
z
M 100.197196 81.450434 
L 100.197196 81.450434 
z
" style="fill:none;opacity:0;"/>
   </g>
   <g id="patch_36">
    <path clip-path="url(#pa2eca2199a)" d="M 100.416455 96.563764 
Q 102.054581 96.563764 103.249628 95.781663 
Q 104.981434 94.658565 105.368811 91.842999 
L 103.811705 91.842999 
Q 103.525603 93.416588 102.63185 94.136121 
Q 101.738096 94.855654 100.375945 94.855654 
Q 98.763138 94.855654 97.659238 93.357148 
Q 96.555339 91.86177 96.555339 88.899169 
Q 96.555339 86.340133 97.464284 84.732132 
Q 98.37576 83.124132 100.431646 83.124132 
Q 102.006475 83.124132 103.039482 84.250358 
Q 104.072489 85.379712 104.095276 87.904336 
L 100.456965 87.904336 
L 100.456965 89.515465 
L 105.558702 89.515465 
L 105.558702 81.8321 
L 104.54595 81.8321 
L 104.166168 83.680988 
Q 103.368626 82.595431 102.750848 82.173096 
Q 101.712777 81.450434 100.115161 81.450434 
Q 98.05168 81.450434 96.562935 83.102233 
Q 94.94 85.176366 94.94 88.792803 
Q 94.94 92.399856 96.522425 94.5303 
Q 98.026361 96.563764 100.416455 96.563764 
z
M 100.155671 96.585663 
L 100.155671 96.585663 
z
" style="fill:none;opacity:0;"/>
   </g>
   <g id="patch_37">
    <path clip-path="url(#pa2eca2199a)" d="M 105.558702 71.104675 
L 105.558702 70.170578 
L 101.148734 70.170578 
L 101.148734 63.264744 
L 99.349968 63.264744 
L 99.349968 70.170578 
L 94.94 70.170578 
L 94.94 71.104675 
L 105.558702 71.104675 
z
" style="fill:none;opacity:0;"/>
   </g>
   <g id="patch_38">
    <path clip-path="url(#pa2eca2199a)" d="M 111.594036 69.416871 
Q 113.232162 69.416871 114.427209 69.098504 
Q 116.159015 68.641328 116.546392 67.495207 
L 114.989286 67.495207 
Q 114.703184 68.135761 113.809431 68.428659 
Q 112.915677 68.721557 111.553526 68.721557 
Q 109.940719 68.721557 108.83682 68.111566 
Q 107.73292 67.502848 107.73292 66.296873 
Q 107.73292 65.255175 108.641865 64.600613 
Q 109.553341 63.94605 111.609227 63.94605 
Q 113.184056 63.94605 114.217063 64.404498 
Q 115.25007 64.864221 115.272857 65.89191 
L 111.634546 65.89191 
L 111.634546 66.547746 
L 116.736283 66.547746 
L 116.736283 63.420107 
L 115.723531 63.420107 
L 115.34375 64.172727 
Q 114.546208 63.730834 113.928429 63.558915 
Q 112.890358 63.264744 111.292743 63.264744 
Q 109.229261 63.264744 107.740516 63.937135 
Q 106.117581 64.781445 106.117581 66.253575 
Q 106.117581 67.721884 107.700006 68.589116 
Q 109.203942 69.416871 111.594036 69.416871 
z
M 111.333253 69.425785 
L 111.333253 69.425785 
z
" style="fill:none;opacity:0;"/>
   </g>
   <g id="patch_39">
    <path clip-path="url(#pa2eca2199a)" d="M 116.736283 79.597865 
L 116.736283 78.385901 
L 112.326315 78.385901 
L 112.326315 69.425785 
L 110.527549 69.425785 
L 110.527549 78.385901 
L 106.117581 78.385901 
L 106.117581 79.597865 
L 116.736283 79.597865 
z
" style="fill:none;opacity:0;"/>
   </g>
   <g id="patch_40">
    <path clip-path="url(#pa2eca2199a)" d="M 122.771617 66.476993 
Q 124.409743 66.476993 125.60479 66.310762 
Q 127.336596 66.072055 127.723973 65.473623 
L 126.166868 65.473623 
Q 125.880765 65.80808 124.987012 65.961012 
Q 124.093258 66.113945 122.731107 66.113945 
Q 121.1183 66.113945 120.014401 65.795446 
Q 118.910501 65.477612 118.910501 64.847929 
Q 118.910501 64.304021 119.819446 63.96225 
Q 120.730923 63.620479 122.786809 63.620479 
Q 124.361638 63.620479 125.394644 63.859851 
Q 126.427651 64.099889 126.450438 64.636483 
L 122.812127 64.636483 
L 122.812127 64.978919 
L 127.913864 64.978919 
L 127.913864 63.345865 
L 126.901113 63.345865 
L 126.521331 63.738835 
Q 125.723789 63.508106 125.10601 63.418342 
Q 124.06794 63.264744 122.470324 63.264744 
Q 120.406842 63.264744 118.918097 63.615824 
Q 117.295162 64.056669 117.295162 64.825321 
Q 117.295162 65.591979 118.877587 66.044793 
Q 120.381523 66.476993 122.771617 66.476993 
z
M 122.510834 66.481648 
L 122.510834 66.481648 
z
" style="fill:none;opacity:0;"/>
   </g>
   <g id="patch_41">
    <path clip-path="url(#pa2eca2199a)" d="M 127.913864 80.834272 
L 127.913864 79.124212 
L 123.503896 79.124212 
L 123.503896 66.481648 
L 121.705131 66.481648 
L 121.705131 79.124212 
L 117.295162 79.124212 
L 117.295162 80.834272 
L 127.913864 80.834272 
z
" style="fill:none;opacity:0;"/>
   </g>
   <g id="patch_42">
    <path clip-path="url(#pa2eca2199a)" d="M 134.055907 113.633034 
Q 136.329853 113.633034 137.584174 110.012965 
Q 138.838495 106.400766 138.976705 101.804853 
L 137.396417 101.804853 
Q 137.12782 105.291136 136.324637 107.329393 
Q 135.521454 109.375519 134.071553 109.375519 
Q 132.303508 109.375519 131.216082 105.621664 
Q 130.128656 101.87568 130.128656 94.13188 
Q 130.128656 87.78102 131.109165 83.830423 
Q 132.092281 79.887696 134.04026 79.887696 
Q 135.831775 79.887696 136.77056 84.042905 
Q 137.26603 86.230686 137.511157 89.803537 
L 139.091445 89.803537 
Q 138.880219 84.097993 137.691091 80.233963 
Q 136.264659 75.582962 133.84468 75.582962 
Q 131.758491 75.582962 130.339883 79.399773 
Q 128.472743 84.436391 128.472743 94.96607 
Q 128.472743 102.953831 129.875705 108.069146 
Q 131.3908 113.633034 134.055907 113.633034 
z
M 133.72994 113.633034 
L 133.72994 113.633034 
z
" style="fill:none;opacity:0;"/>
   </g>
   <g id="patch_43">
    <path clip-path="url(#pa2eca2199a)" d="M 139.091445 75.582962 
L 139.091445 74.115293 
L 134.681477 74.115293 
L 134.681477 63.264744 
L 132.882712 63.264744 
L 132.882712 74.115293 
L 128.472743 74.115293 
L 128.472743 75.582962 
L 139.091445 75.582962 
z
" style="fill:none;opacity:0;"/>
   </g>
   <g id="patch_44">
    <path clip-path="url(#pa2eca2199a)" d="M 145.233488 69.089766 
Q 147.507434 69.089766 148.761755 68.535576 
Q 150.016076 67.98259 150.154286 67.279009 
L 148.573998 67.279009 
Q 148.305401 67.812719 147.502218 68.124752 
Q 146.699036 68.43799 145.249134 68.43799 
Q 143.481089 68.43799 142.393663 67.863319 
Q 141.306237 67.289852 141.306237 66.104367 
Q 141.306237 65.132124 142.286746 64.527334 
Q 143.269862 63.923749 145.217841 63.923749 
Q 147.009356 63.923749 147.948141 64.559863 
Q 148.443611 64.894786 148.688738 65.441748 
L 150.269027 65.441748 
Q 150.0578 64.568296 148.868672 63.976758 
Q 147.44224 63.264744 145.022261 63.264744 
Q 142.936072 63.264744 141.517464 63.849053 
Q 139.650324 64.620101 139.650324 66.232072 
Q 139.650324 67.454905 141.053287 68.237999 
Q 142.568381 69.089766 145.233488 69.089766 
z
M 144.907521 69.089766 
L 144.907521 69.089766 
z
" style="fill:none;opacity:0;"/>
   </g>
   <g id="patch_45">
    <path clip-path="url(#pa2eca2199a)" d="M 150.269027 105.235419 
L 150.269027 100.928804 
L 145.859058 100.928804 
L 145.859058 69.089766 
L 144.060293 69.089766 
L 144.060293 100.928804 
L 139.650324 100.928804 
L 139.650324 105.235419 
L 150.269027 105.235419 
z
" style="fill:none;opacity:0;"/>
   </g>
   <g id="patch_46">
    <path clip-path="url(#pa2eca2199a)" d="M 156.411069 113.081307 
Q 158.685015 113.081307 159.939336 109.661092 
Q 161.193657 106.248312 161.331867 101.906126 
L 159.751579 101.906126 
Q 159.482982 105.199942 158.679799 107.125672 
Q 157.876617 109.058837 156.426715 109.058837 
Q 154.65867 109.058837 153.571244 105.512222 
Q 152.483818 101.973043 152.483818 94.656756 
Q 152.483818 88.656509 153.464327 84.924013 
Q 154.447444 81.198953 156.395423 81.198953 
Q 158.186937 81.198953 159.125722 85.124765 
Q 159.621192 87.191765 159.866319 90.567368 
L 161.446608 90.567368 
Q 161.235381 85.176812 160.046253 81.526104 
Q 158.619822 77.131871 156.199842 77.131871 
Q 154.113653 77.131871 152.695045 80.737967 
Q 150.827906 85.496527 150.827906 95.444893 
Q 150.827906 102.991672 152.230868 107.824585 
Q 153.745962 113.081307 156.411069 113.081307 
z
M 156.085102 113.081307 
L 156.085102 113.081307 
z
" style="fill:none;opacity:0;"/>
   </g>
   <g id="patch_47">
    <path clip-path="url(#pa2eca2199a)" d="M 156.304361 68.22651 
Q 157.942487 68.22651 159.137534 67.969743 
Q 160.869339 67.601026 161.256717 66.676664 
L 159.699611 66.676664 
Q 159.413509 67.19328 158.519755 67.429505 
Q 157.626002 67.665731 156.263851 67.665731 
Q 154.651043 67.665731 153.547144 67.173765 
Q 152.443245 66.682827 152.443245 65.710193 
Q 152.443245 64.870052 153.352189 64.342139 
Q 154.263666 63.814225 156.319552 63.814225 
Q 157.894381 63.814225 158.927388 64.18397 
Q 159.960394 64.554742 159.983181 65.383586 
L 156.344871 65.383586 
L 156.344871 65.912526 
L 161.446608 65.912526 
L 161.446608 63.390046 
L 160.433856 63.390046 
L 160.054074 63.997044 
Q 159.256532 63.640651 158.638753 63.501997 
Q 157.600683 63.264744 156.003067 63.264744 
Q 153.939585 63.264744 152.45084 63.807036 
Q 150.827906 64.487982 150.827906 65.675273 
Q 150.827906 66.859482 152.41033 67.558916 
Q 153.914267 68.22651 156.304361 68.22651 
z
M 156.043577 68.2337 
L 156.043577 68.2337 
z
" style="fill:none;opacity:0;"/>
   </g>
   <g id="patch_48">
    <path clip-path="url(#pa2eca2199a)" d="M 161.446608 77.131871 
L 161.446608 76.071688 
L 157.036639 76.071688 
L 157.036639 68.2337 
L 155.237874 68.2337 
L 155.237874 76.071688 
L 150.827906 76.071688 
L 150.827906 77.131871 
L 161.446608 77.131871 
z
" style="fill:none;opacity:0;"/>
   </g>
   <g id="patch_49">
    <path clip-path="url(#pa2eca2199a)" d="M 167.58865 135.399751 
Q 169.862596 135.399751 171.116917 131.720967 
Q 172.371238 128.050181 172.509448 123.379725 
L 170.92916 123.379725 
Q 170.660563 126.922554 169.857381 128.993869 
Q 169.054198 131.073181 167.604296 131.073181 
Q 165.836251 131.073181 164.748825 127.258443 
Q 163.661399 123.451702 163.661399 115.582304 
Q 163.661399 109.128438 164.641908 105.113765 
Q 165.625025 101.10709 167.573004 101.10709 
Q 169.364518 101.10709 170.303304 105.329694 
Q 170.798773 107.552959 171.043901 111.183758 
L 172.624189 111.183758 
Q 172.412962 105.385676 171.223834 101.458974 
Q 169.797403 96.732537 167.377423 96.732537 
Q 165.291234 96.732537 163.872626 100.611254 
Q 162.005487 105.729562 162.005487 116.430023 
Q 162.005487 124.547339 163.408449 129.74562 
Q 164.923544 135.399751 167.58865 135.399751 
z
M 167.262683 135.399751 
L 167.262683 135.399751 
z
" style="fill:none;opacity:0;"/>
   </g>
   <g id="patch_50">
    <path clip-path="url(#pa2eca2199a)" d="M 172.624189 96.732537 
L 172.624189 92.744978 
L 168.21422 92.744978 
L 168.21422 63.264744 
L 166.415455 63.264744 
L 166.415455 92.744978 
L 162.005487 92.744978 
L 162.005487 96.732537 
L 172.624189 96.732537 
z
" style="fill:none;opacity:0;"/>
   </g>
   <g id="patch_51">
    <path clip-path="url(#pa2eca2199a)" d="M 178.766231 138.247971 
Q 181.040177 138.247971 182.294498 134.660204 
Q 183.548819 131.080236 183.68703 126.525332 
L 182.106741 126.525332 
Q 181.838145 129.980507 181.034962 132.000576 
Q 180.231779 134.028445 178.781878 134.028445 
Q 177.013832 134.028445 175.926406 130.308086 
Q 174.83898 126.595527 174.83898 118.920825 
Q 174.83898 112.626633 175.819489 108.711287 
Q 176.802606 104.803741 178.750585 104.803741 
Q 180.5421 104.803741 181.480885 108.921874 
Q 181.976355 111.090133 182.221482 114.631103 
L 183.80177 114.631103 
Q 183.590543 108.97647 182.401416 105.146919 
Q 180.974984 100.537418 178.555005 100.537418 
Q 176.468816 100.537418 175.050207 104.320172 
Q 173.183068 109.311848 173.183068 119.747571 
Q 173.183068 127.664058 174.58603 132.733729 
Q 176.101125 138.247971 178.766231 138.247971 
z
M 178.440264 138.247971 
L 178.440264 138.247971 
z
" style="fill:none;opacity:0;"/>
   </g>
   <g id="patch_52">
    <path clip-path="url(#pa2eca2199a)" d="M 183.80177 100.537418 
L 183.80177 96.096522 
L 179.391802 96.096522 
L 179.391802 63.264744 
L 177.593036 63.264744 
L 177.593036 96.096522 
L 173.183068 96.096522 
L 173.183068 100.537418 
L 183.80177 100.537418 
z
" style="fill:none;opacity:0;"/>
   </g>
   <g id="patch_53">
    <path clip-path="url(#pa2eca2199a)" d="M 189.943812 102.347756 
Q 192.217758 102.347756 193.472079 98.629413 
Q 194.726401 94.919154 194.864611 90.198476 
L 193.284322 90.198476 
Q 193.015726 93.779402 192.212543 95.87299 
Q 191.40936 97.974662 189.959459 97.974662 
Q 188.191414 97.974662 187.103988 94.118902 
Q 186.016561 90.271226 186.016561 82.317207 
Q 186.016561 75.793941 186.99707 71.736098 
Q 187.980187 67.686338 189.928166 67.686338 
Q 191.719681 67.686338 192.658466 71.954349 
Q 193.153936 74.201521 193.399063 77.871363 
L 194.979351 77.871363 
Q 194.768124 72.010932 193.578997 68.042006 
Q 192.152565 63.264744 189.732586 63.264744 
Q 187.646397 63.264744 186.227788 67.18517 
Q 184.360649 72.358516 184.360649 83.174042 
Q 184.360649 91.378646 185.763611 96.632825 
Q 187.278706 102.347756 189.943812 102.347756 
z
M 189.617845 102.347756 
L 189.617845 102.347756 
z
" style="fill:none;opacity:0;"/>
   </g>
   <g id="patch_54">
    <path clip-path="url(#pa2eca2199a)" d="M 194.979351 141.64 
L 194.979351 136.95848 
L 190.569383 136.95848 
L 190.569383 102.347756 
L 188.770617 102.347756 
L 188.770617 136.95848 
L 184.360649 136.95848 
L 184.360649 141.64 
L 194.979351 141.64 
z
" style="fill:none;opacity:0;"/>
   </g>
   <g id="patch_55">
    <path clip-path="url(#pa2eca2199a)" d="M 201.121393 77.407986 
Q 203.395339 77.407986 204.649661 76.062403 
Q 205.903982 74.719746 206.042192 73.011441 
L 204.461904 73.011441 
Q 204.193307 74.307296 203.390124 75.064917 
Q 202.586941 75.825464 201.13704 75.825464 
Q 199.368995 75.825464 198.281569 74.430153 
Q 197.194143 73.037768 197.194143 70.159392 
Q 197.194143 67.798772 198.174651 66.330332 
Q 199.157768 64.864817 201.105747 64.864817 
Q 202.897262 64.864817 203.836047 66.409312 
Q 204.331517 67.222512 204.576644 68.550543 
L 206.156932 68.550543 
Q 205.945706 66.429788 204.756578 64.993525 
Q 203.330146 63.264744 200.910167 63.264744 
Q 198.823978 63.264744 197.405369 64.683456 
Q 195.53823 66.555571 195.53823 70.469461 
Q 195.53823 73.438517 196.941192 75.339884 
Q 198.456287 77.407986 201.121393 77.407986 
z
M 200.795426 77.407986 
L 200.795426 77.407986 
z
" style="fill:none;opacity:0;"/>
   </g>
   <g id="patch_56">
    <path clip-path="url(#pa2eca2199a)" d="M 206.156932 99.595299 
L 206.156932 96.951766 
L 201.746964 96.951766 
L 201.746964 77.407986 
L 199.948198 77.407986 
L 199.948198 96.951766 
L 195.53823 96.951766 
L 195.53823 99.595299 
L 206.156932 99.595299 
z
" style="fill:none;opacity:0;"/>
   </g>
   <g id="patch_57">
    <path clip-path="url(#pa2eca2199a)" d="M 217.334513 91.084477 
L 217.334513 87.769862 
L 212.924545 87.769862 
L 212.924545 63.264744 
L 211.12578 63.264744 
L 211.12578 87.769862 
L 206.715811 87.769862 
L 206.715811 91.084477 
L 217.334513 91.084477 
z
" style="fill:none;opacity:0;"/>
   </g>
   <g id="patch_58">
    <path clip-path="url(#pa2eca2199a)" d="M 223.476556 66.398174 
Q 225.750502 66.398174 227.004823 66.100061 
Q 228.259144 65.802596 228.397354 65.424121 
L 226.817066 65.424121 
Q 226.548469 65.711217 225.745286 65.879068 
Q 224.942103 66.047567 223.492202 66.047567 
Q 221.724157 66.047567 220.636731 65.738436 
Q 219.549305 65.429954 219.549305 64.792251 
Q 219.549305 64.269256 220.529814 63.943924 
Q 221.51293 63.61924 223.460909 63.61924 
Q 225.252424 63.61924 226.191209 63.961422 
Q 226.686679 64.141586 226.931806 64.435811 
L 228.512094 64.435811 
Q 228.300868 63.965958 227.11174 63.647755 
Q 225.685308 63.264744 223.265329 63.264744 
Q 221.17914 63.264744 219.760531 63.579059 
Q 217.893392 63.993826 217.893392 64.860946 
Q 217.893392 65.51874 219.296354 65.939987 
Q 220.811449 66.398174 223.476556 66.398174 
z
M 223.150589 66.398174 
L 223.150589 66.398174 
z
" style="fill:none;opacity:0;"/>
   </g>
   <g id="patch_59">
    <path clip-path="url(#pa2eca2199a)" d="M 223.369847 72.727828 
Q 225.007973 72.727828 226.20302 72.400274 
Q 227.934826 71.929906 228.322203 70.750712 
L 226.765098 70.750712 
Q 226.478995 71.409751 225.585242 71.7111 
Q 224.691488 72.01245 223.329337 72.01245 
Q 221.71653 72.01245 220.612631 71.384856 
Q 219.508731 70.758573 219.508731 69.517799 
Q 219.508731 68.446042 220.417676 67.772591 
Q 221.329153 67.09914 223.385039 67.09914 
Q 224.959868 67.09914 225.992874 67.570817 
Q 227.025881 68.043805 227.048668 69.10115 
L 223.410357 69.10115 
L 223.410357 69.775911 
L 228.512094 69.775911 
L 228.512094 66.55802 
L 227.499343 66.55802 
L 227.119561 67.332358 
Q 226.322019 66.877713 225.70424 66.700834 
Q 224.66617 66.398174 223.068554 66.398174 
Q 221.005072 66.398174 219.516327 67.089968 
Q 217.893392 67.958641 217.893392 69.473251 
Q 217.893392 70.98393 219.475817 71.876187 
Q 220.979753 72.727828 223.369847 72.727828 
z
M 223.109064 72.736999 
L 223.109064 72.736999 
z
" style="fill:none;opacity:0;"/>
   </g>
   <g id="patch_60">
    <path clip-path="url(#pa2eca2199a)" d="M 228.512094 112.875245 
L 228.512094 108.092928 
L 224.102126 108.092928 
L 224.102126 72.736999 
L 222.303361 72.736999 
L 222.303361 108.092928 
L 217.893392 108.092928 
L 217.893392 112.875245 
L 228.512094 112.875245 
z
" style="fill:none;opacity:0;"/>
   </g>
   <g id="patch_61">
    <path clip-path="url(#pa2eca2199a)" d="M 234.654137 87.979267 
Q 236.928083 87.979267 238.182404 85.627937 
Q 239.436725 83.281719 239.574935 80.296552 
L 237.994647 80.296552 
Q 237.72605 82.560985 236.922867 83.884886 
Q 236.119685 85.213898 234.669783 85.213898 
Q 232.901738 85.213898 231.814312 82.775671 
Q 230.726886 80.342556 230.726886 75.312754 
Q 230.726886 71.187704 231.707395 68.621687 
Q 232.690511 66.060782 234.63849 66.060782 
Q 236.430005 66.060782 237.36879 68.7597 
Q 237.86426 70.180721 238.109387 72.501382 
L 239.689676 72.501382 
Q 239.478449 68.795481 238.289321 66.285692 
Q 236.862889 63.264744 234.44291 63.264744 
Q 232.356721 63.264744 230.938113 65.743864 
Q 229.070973 69.015279 229.070973 75.854583 
Q 229.070973 81.042843 230.473936 84.365375 
Q 231.98903 87.979267 234.654137 87.979267 
z
M 234.32817 87.979267 
L 234.32817 87.979267 
z
" style="fill:none;opacity:0;"/>
   </g>
   <g id="patch_62">
    <path clip-path="url(#pa2eca2199a)" d="M 234.547429 115.676025 
Q 236.185554 115.676025 237.380602 114.242743 
Q 239.112407 112.184548 239.499785 107.02473 
L 237.942679 107.02473 
Q 237.656576 109.908495 236.762823 111.227115 
Q 235.86907 112.545736 234.506918 112.545736 
Q 232.894111 112.545736 231.790212 109.799566 
Q 230.686312 107.059129 230.686312 101.629853 
Q 230.686312 96.940152 231.595257 93.993322 
Q 232.506734 91.046492 234.56262 91.046492 
Q 236.137449 91.046492 237.170456 93.11042 
Q 238.203462 95.18008 238.226249 99.806717 
L 234.587939 99.806717 
L 234.587939 102.75928 
L 239.689676 102.75928 
L 239.689676 88.678709 
L 238.676924 88.678709 
L 238.297142 92.06699 
Q 237.4996 90.077593 236.881821 89.30362 
Q 235.843751 87.979267 234.246135 87.979267 
Q 232.182653 87.979267 230.693908 91.00636 
Q 229.070973 94.807427 229.070973 101.434927 
Q 229.070973 108.045227 230.653398 111.94949 
Q 232.157334 115.676025 234.547429 115.676025 
z
M 234.286645 115.716157 
L 234.286645 115.716157 
z
" style="fill:none;opacity:0;"/>
   </g>
   <g id="patch_63">
    <path clip-path="url(#pa2eca2199a)" d="M 245.831718 70.921358 
Q 248.105664 70.921358 249.359985 70.192911 
Q 250.614306 69.466047 250.752516 68.541236 
L 249.172228 68.541236 
Q 248.903631 69.242762 248.100448 69.65291 
Q 247.297266 70.064641 245.847364 70.064641 
Q 244.079319 70.064641 242.991893 69.309273 
Q 241.904467 68.555488 241.904467 66.997245 
Q 241.904467 65.719295 242.884976 64.924337 
Q 243.868093 64.130963 245.816071 64.130963 
Q 247.607586 64.130963 248.546371 64.967094 
Q 249.041841 65.407329 249.286968 66.126275 
L 250.867257 66.126275 
Q 250.65603 64.978179 249.466902 64.20064 
Q 248.040471 63.264744 245.620491 63.264744 
Q 243.534302 63.264744 242.115694 64.032781 
Q 240.248555 65.046273 240.248555 67.165104 
Q 240.248555 68.772439 241.651517 69.801766 
Q 243.166611 70.921358 245.831718 70.921358 
z
M 245.505751 70.921358 
L 245.505751 70.921358 
z
" style="fill:none;opacity:0;"/>
   </g>
   <g id="patch_64">
    <path clip-path="url(#pa2eca2199a)" d="M 245.72501 88.569085 
Q 247.363136 88.569085 248.558183 87.655831 
Q 250.289988 86.344398 250.677366 83.056682 
L 249.12026 83.056682 
Q 248.834158 84.89415 247.940404 85.734344 
Q 247.046651 86.574538 245.6845 86.574538 
Q 244.071692 86.574538 242.967793 84.824742 
Q 241.863894 83.0786 241.863894 79.619193 
Q 241.863894 76.631024 242.772838 74.753374 
Q 243.684315 72.875723 245.740201 72.875723 
Q 247.31503 72.875723 248.348037 74.190809 
Q 249.381043 75.509548 249.40383 78.457533 
L 245.76552 78.457533 
L 245.76552 80.338837 
L 250.867257 80.338837 
L 250.867257 71.367026 
L 249.854505 71.367026 
L 249.474723 73.52596 
Q 248.677181 72.258363 248.059402 71.765205 
Q 247.021332 70.921358 245.423716 70.921358 
Q 243.360234 70.921358 241.871489 72.850151 
Q 240.248555 75.272102 240.248555 79.49499 
Q 240.248555 83.706919 241.830979 86.194624 
Q 243.334916 88.569085 245.72501 88.569085 
z
M 245.464226 88.594656 
L 245.464226 88.594656 
z
" style="fill:none;opacity:0;"/>
   </g>
   <g id="patch_65">
    <path clip-path="url(#pa2eca2199a)" d="M 256.902591 73.944249 
Q 258.540717 73.944249 259.735764 73.391594 
Q 261.467569 72.597981 261.854947 70.608423 
L 260.297841 70.608423 
Q 260.011739 71.720365 259.117985 72.228808 
Q 258.224232 72.73725 256.862081 72.73725 
Q 255.249274 72.73725 254.145374 71.678363 
Q 253.041475 70.621687 253.041475 68.52823 
Q 253.041475 66.719943 253.950419 65.583684 
Q 254.861896 64.447426 256.917782 64.447426 
Q 258.492611 64.447426 259.525618 65.243249 
Q 260.558625 66.041283 260.581411 67.825253 
L 256.943101 67.825253 
L 256.943101 68.963722 
L 262.044838 68.963722 
L 262.044838 63.53444 
L 261.032086 63.53444 
L 260.652304 64.840916 
Q 259.854762 64.073831 259.236984 63.775397 
Q 258.198913 63.264744 256.601297 63.264744 
Q 254.537815 63.264744 253.04907 64.431951 
Q 251.426136 65.897592 251.426136 68.453069 
Q 251.426136 71.001914 253.00856 72.507346 
Q 254.512497 73.944249 256.902591 73.944249 
z
M 256.641807 73.959723 
L 256.641807 73.959723 
z
" style="fill:none;opacity:0;"/>
   </g>
   <g id="patch_66">
    <path clip-path="url(#pa2eca2199a)" d="M 262.044838 100.30936 
L 262.044838 97.169902 
L 257.634869 97.169902 
L 257.634869 73.959723 
L 255.836104 73.959723 
L 255.836104 97.169902 
L 251.426136 97.169902 
L 251.426136 100.30936 
L 262.044838 100.30936 
z
" style="fill:none;opacity:0;"/>
   </g>
   <g id="patch_67">
    <path clip-path="url(#pa2eca2199a)" d="M 268.080172 102.328879 
Q 269.718298 102.328879 270.913345 100.786338 
Q 272.64515 98.571249 273.032528 93.0181 
L 271.475422 93.0181 
Q 271.18932 96.121693 270.295566 97.540831 
Q 269.401813 98.959969 268.039662 98.959969 
Q 266.426855 98.959969 265.322955 96.00446 
Q 264.219056 93.055121 264.219056 87.211976 
Q 264.219056 82.164781 265.128001 78.993316 
Q 266.039477 75.821852 268.095363 75.821852 
Q 269.670192 75.821852 270.703199 78.043111 
Q 271.736206 80.27054 271.758993 85.249863 
L 268.120682 85.249863 
L 268.120682 88.427498 
L 273.222419 88.427498 
L 273.222419 73.273574 
L 272.209667 73.273574 
L 271.829885 76.920141 
Q 271.032343 74.779094 270.414565 73.946122 
Q 269.376494 72.520814 267.778878 72.520814 
Q 265.715397 72.520814 264.226651 75.778661 
Q 262.603717 79.86948 262.603717 87.00219 
Q 262.603717 94.11639 264.186141 98.318272 
Q 265.690078 102.328879 268.080172 102.328879 
z
M 267.819388 102.37207 
L 267.819388 102.37207 
z
" style="fill:none;opacity:0;"/>
   </g>
   <g id="patch_68">
    <path clip-path="url(#pa2eca2199a)" d="M 273.222419 72.520814 
L 273.222419 71.417989 
L 268.812451 71.417989 
L 268.812451 63.264744 
L 267.013685 63.264744 
L 267.013685 71.417989 
L 262.603717 71.417989 
L 262.603717 72.520814 
L 273.222419 72.520814 
z
" style="fill:none;opacity:0;"/>
   </g>
   <g id="patch_69">
    <path clip-path="url(#pa2eca2199a)" d="M 280.908813 98.833666 
L 279.102312 111.037293 
L 277.181771 98.833666 
L 280.908813 98.833666 
z
M 278.259969 115.141274 
L 280.082022 115.141274 
L 284.4 87.514622 
L 282.632376 87.514622 
L 281.427178 95.788777 
L 276.720426 95.788777 
L 275.43229 87.514622 
L 273.781298 87.514622 
L 278.259969 115.141274 
z
M 279.094537 115.141274 
L 279.094537 115.141274 
z
" style="fill:none;opacity:0;"/>
   </g>
   <g id="patch_70">
    <path clip-path="url(#pa2eca2199a)" d="M 279.257753 87.479535 
Q 280.895879 87.479535 282.090926 86.226441 
Q 283.822732 84.426998 284.210109 79.915859 
L 282.653003 79.915859 
Q 282.366901 82.437084 281.473147 83.589931 
Q 280.579394 84.742778 279.217243 84.742778 
Q 277.604436 84.742778 276.500536 82.341849 
Q 275.396637 79.945933 275.396637 75.199213 
Q 275.396637 71.099089 276.305582 68.522727 
Q 277.217058 65.946366 279.272944 65.946366 
Q 280.847773 65.946366 281.88078 67.750821 
Q 282.913787 69.560289 282.936574 73.605277 
L 279.298263 73.605277 
L 279.298263 76.186651 
L 284.4 76.186651 
L 284.4 63.876254 
L 283.387248 63.876254 
L 283.007466 66.838569 
Q 282.209924 65.099274 281.592146 64.422603 
Q 280.554075 63.264744 278.956459 63.264744 
Q 276.892978 63.264744 275.404233 65.911279 
Q 273.781298 69.234485 273.781298 75.028792 
Q 273.781298 80.808062 275.363723 84.22149 
Q 276.867659 87.479535 279.257753 87.479535 
z
M 278.996969 87.514622 
L 278.996969 87.514622 
z
" style="fill:none;opacity:0;"/>
   </g>
   <g id="matplotlib.axis_1">
    <g id="xtick_1">
     <g id="line2d_2">
      <path clip-path="url(#pa2eca2199a)" d="M 100.249351 141.64 
L 100.249351 21.6 
" style="fill:none;stroke:#cccccc;stroke-linecap:round;stroke-width:0.8;"/>
     </g>
     <g id="text_1">
      <!-- 0 -->
      <g style="fill:#262626;" transform="translate(94.688414 162.986875)scale(0.2 -0.2)">
       <defs>
        <path d="M 1731 4475 
Q 2600 4475 2988 3759 
Q 3288 3206 3288 2244 
Q 3288 1331 3016 734 
Q 2622 -122 1728 -122 
Q 922 -122 528 578 
Q 200 1163 200 2147 
Q 200 2909 397 3456 
Q 766 4475 1731 4475 
z
M 1725 391 
Q 2163 391 2422 778 
Q 2681 1166 2681 2222 
Q 2681 2984 2493 3476 
Q 2306 3969 1766 3969 
Q 1269 3969 1039 3501 
Q 809 3034 809 2125 
Q 809 1441 956 1025 
Q 1181 391 1725 391 
z
" id="Helvetica-30" transform="scale(0.015625)"/>
       </defs>
       <use xlink:href="#Helvetica-30"/>
      </g>
     </g>
    </g>
    <g id="xtick_2">
     <g id="line2d_3">
      <path clip-path="url(#pa2eca2199a)" d="M 212.025162 141.64 
L 212.025162 21.6 
" style="fill:none;stroke:#cccccc;stroke-linecap:round;stroke-width:0.8;"/>
     </g>
     <g id="text_2">
      <!-- 10 -->
      <g style="fill:#262626;" transform="translate(200.903287 162.986875)scale(0.2 -0.2)">
       <defs>
        <path d="M 613 3169 
L 613 3600 
Q 1222 3659 1462 3798 
Q 1703 3938 1822 4456 
L 2266 4456 
L 2266 0 
L 1666 0 
L 1666 3169 
L 613 3169 
z
" id="Helvetica-31" transform="scale(0.015625)"/>
       </defs>
       <use xlink:href="#Helvetica-31"/>
       <use x="55.615234" xlink:href="#Helvetica-30"/>
      </g>
     </g>
    </g>
    <g id="text_3">
     <!-- Position -->
     <g style="fill:#262626;" transform="translate(145.20125 189.089219)scale(0.25 -0.25)">
      <defs>
       <path d="M 547 4591 
L 2613 4591 
Q 3225 4591 3600 4245 
Q 3975 3900 3975 3275 
Q 3975 2738 3640 2339 
Q 3306 1941 2613 1941 
L 1169 1941 
L 1169 0 
L 547 0 
L 547 4591 
z
M 3347 3272 
Q 3347 3778 2972 3959 
Q 2766 4056 2406 4056 
L 1169 4056 
L 1169 2466 
L 2406 2466 
Q 2825 2466 3086 2644 
Q 3347 2822 3347 3272 
z
" id="Helvetica-50" transform="scale(0.015625)"/>
       <path d="M 1741 363 
Q 2300 363 2508 786 
Q 2716 1209 2716 1728 
Q 2716 2197 2566 2491 
Q 2328 2953 1747 2953 
Q 1231 2953 997 2559 
Q 763 2166 763 1609 
Q 763 1075 997 719 
Q 1231 363 1741 363 
z
M 1763 3444 
Q 2409 3444 2856 3012 
Q 3303 2581 3303 1744 
Q 3303 934 2909 406 
Q 2516 -122 1688 -122 
Q 997 -122 590 345 
Q 184 813 184 1600 
Q 184 2444 612 2944 
Q 1041 3444 1763 3444 
z
M 1744 3428 
L 1744 3428 
z
" id="Helvetica-6f" transform="scale(0.015625)"/>
       <path d="M 747 1050 
Q 772 769 888 619 
Q 1100 347 1625 347 
Q 1938 347 2175 483 
Q 2413 619 2413 903 
Q 2413 1119 2222 1231 
Q 2100 1300 1741 1391 
L 1294 1503 
Q 866 1609 663 1741 
Q 300 1969 300 2372 
Q 300 2847 642 3140 
Q 984 3434 1563 3434 
Q 2319 3434 2653 2991 
Q 2863 2709 2856 2384 
L 2325 2384 
Q 2309 2575 2191 2731 
Q 1997 2953 1519 2953 
Q 1200 2953 1036 2831 
Q 872 2709 872 2509 
Q 872 2291 1088 2159 
Q 1213 2081 1456 2022 
L 1828 1931 
Q 2434 1784 2641 1647 
Q 2969 1431 2969 969 
Q 2969 522 2630 197 
Q 2291 -128 1597 -128 
Q 850 -128 539 211 
Q 228 550 206 1050 
L 747 1050 
z
M 1578 3428 
L 1578 3428 
z
" id="Helvetica-73" transform="scale(0.015625)"/>
       <path d="M 413 3331 
L 984 3331 
L 984 0 
L 413 0 
L 413 3331 
z
M 413 4591 
L 984 4591 
L 984 3953 
L 413 3953 
L 413 4591 
z
" id="Helvetica-69" transform="scale(0.015625)"/>
       <path d="M 525 4281 
L 1094 4281 
L 1094 3347 
L 1628 3347 
L 1628 2888 
L 1094 2888 
L 1094 703 
Q 1094 528 1213 469 
Q 1278 434 1431 434 
Q 1472 434 1519 436 
Q 1566 438 1628 444 
L 1628 0 
Q 1531 -28 1426 -40 
Q 1322 -53 1200 -53 
Q 806 -53 665 148 
Q 525 350 525 672 
L 525 2888 
L 72 2888 
L 72 3347 
L 525 3347 
L 525 4281 
z
" id="Helvetica-74" transform="scale(0.015625)"/>
       <path d="M 413 3347 
L 947 3347 
L 947 2872 
Q 1184 3166 1450 3294 
Q 1716 3422 2041 3422 
Q 2753 3422 3003 2925 
Q 3141 2653 3141 2147 
L 3141 0 
L 2569 0 
L 2569 2109 
Q 2569 2416 2478 2603 
Q 2328 2916 1934 2916 
Q 1734 2916 1606 2875 
Q 1375 2806 1200 2600 
Q 1059 2434 1017 2257 
Q 975 2081 975 1753 
L 975 0 
L 413 0 
L 413 3347 
z
M 1734 3428 
L 1734 3428 
z
" id="Helvetica-6e" transform="scale(0.015625)"/>
      </defs>
      <use xlink:href="#Helvetica-50"/>
      <use x="66.699219" xlink:href="#Helvetica-6f"/>
      <use x="122.314453" xlink:href="#Helvetica-73"/>
      <use x="172.314453" xlink:href="#Helvetica-69"/>
      <use x="194.53125" xlink:href="#Helvetica-74"/>
      <use x="222.314453" xlink:href="#Helvetica-69"/>
      <use x="244.53125" xlink:href="#Helvetica-6f"/>
      <use x="300.146484" xlink:href="#Helvetica-6e"/>
     </g>
    </g>
   </g>
   <g id="matplotlib.axis_2">
    <g id="ytick_1">
     <g id="line2d_4">
      <path clip-path="url(#pa2eca2199a)" d="M 94.94 63.264744 
L 284.4 63.264744 
" style="fill:none;stroke:#cccccc;stroke-linecap:round;stroke-width:0.8;"/>
     </g>
     <g id="text_4">
      <!-- 0 -->
      <g style="fill:#262626;" transform="translate(76.818125 70.438182)scale(0.2 -0.2)">
       <use xlink:href="#Helvetica-30"/>
      </g>
     </g>
    </g>
    <g id="ytick_2">
     <g id="line2d_5">
      <path clip-path="url(#pa2eca2199a)" d="M 94.94 54.792646 
L 284.4 54.792646 
" style="fill:none;stroke:#cccccc;stroke-linecap:round;stroke-width:0.8;"/>
     </g>
     <g id="text_5">
      <!-- 0.25 -->
      <g style="fill:#262626;" transform="translate(49.018125 61.966083)scale(0.2 -0.2)">
       <defs>
        <path d="M 547 681 
L 1200 681 
L 1200 0 
L 547 0 
L 547 681 
z
" id="Helvetica-2e" transform="scale(0.015625)"/>
        <path d="M 200 0 
Q 231 578 439 1006 
Q 647 1434 1250 1784 
L 1850 2131 
Q 2253 2366 2416 2531 
Q 2672 2791 2672 3125 
Q 2672 3516 2437 3745 
Q 2203 3975 1813 3975 
Q 1234 3975 1013 3538 
Q 894 3303 881 2888 
L 309 2888 
Q 319 3472 525 3841 
Q 891 4491 1816 4491 
Q 2584 4491 2939 4075 
Q 3294 3659 3294 3150 
Q 3294 2613 2916 2231 
Q 2697 2009 2131 1694 
L 1703 1456 
Q 1397 1288 1222 1134 
Q 909 863 828 531 
L 3272 531 
L 3272 0 
L 200 0 
z
" id="Helvetica-32" transform="scale(0.015625)"/>
        <path d="M 791 1141 
Q 847 659 1238 475 
Q 1438 381 1700 381 
Q 2200 381 2440 700 
Q 2681 1019 2681 1406 
Q 2681 1875 2395 2131 
Q 2109 2388 1709 2388 
Q 1419 2388 1211 2275 
Q 1003 2163 856 1963 
L 369 1991 
L 709 4400 
L 3034 4400 
L 3034 3856 
L 1131 3856 
L 941 2613 
Q 1097 2731 1238 2791 
Q 1488 2894 1816 2894 
Q 2431 2894 2859 2497 
Q 3288 2100 3288 1491 
Q 3288 856 2895 371 
Q 2503 -113 1644 -113 
Q 1097 -113 676 195 
Q 256 503 206 1141 
L 791 1141 
z
" id="Helvetica-35" transform="scale(0.015625)"/>
       </defs>
       <use xlink:href="#Helvetica-30"/>
       <use x="55.615234" xlink:href="#Helvetica-2e"/>
       <use x="83.398438" xlink:href="#Helvetica-32"/>
       <use x="139.013672" xlink:href="#Helvetica-35"/>
      </g>
     </g>
    </g>
    <g id="ytick_3">
     <g id="line2d_6">
      <path clip-path="url(#pa2eca2199a)" d="M 94.94 46.320547 
L 284.4 46.320547 
" style="fill:none;stroke:#cccccc;stroke-linecap:round;stroke-width:0.8;"/>
     </g>
     <g id="text_6">
      <!-- 0.50 -->
      <g style="fill:#262626;" transform="translate(49.018125 53.493985)scale(0.2 -0.2)">
       <use xlink:href="#Helvetica-30"/>
       <use x="55.615234" xlink:href="#Helvetica-2e"/>
       <use x="83.398438" xlink:href="#Helvetica-35"/>
       <use x="139.013672" xlink:href="#Helvetica-30"/>
      </g>
     </g>
    </g>
    <g id="ytick_4">
     <g id="line2d_7">
      <path clip-path="url(#pa2eca2199a)" d="M 94.94 37.848449 
L 284.4 37.848449 
" style="fill:none;stroke:#cccccc;stroke-linecap:round;stroke-width:0.8;"/>
     </g>
     <g id="text_7">
      <!-- 0.75 -->
      <g style="fill:#262626;" transform="translate(49.018125 45.021887)scale(0.2 -0.2)">
       <defs>
        <path d="M 3347 4400 
L 3347 3909 
Q 3131 3700 2773 3181 
Q 2416 2663 2141 2063 
Q 1869 1478 1728 997 
Q 1638 688 1494 0 
L 872 0 
Q 1084 1281 1809 2550 
Q 2238 3294 2709 3834 
L 234 3834 
L 234 4400 
L 3347 4400 
z
" id="Helvetica-37" transform="scale(0.015625)"/>
       </defs>
       <use xlink:href="#Helvetica-30"/>
       <use x="55.615234" xlink:href="#Helvetica-2e"/>
       <use x="83.398438" xlink:href="#Helvetica-37"/>
       <use x="139.013672" xlink:href="#Helvetica-35"/>
      </g>
     </g>
    </g>
    <g id="ytick_5">
     <g id="line2d_8">
      <path clip-path="url(#pa2eca2199a)" d="M 94.94 29.376351 
L 284.4 29.376351 
" style="fill:none;stroke:#cccccc;stroke-linecap:round;stroke-width:0.8;"/>
     </g>
     <g id="text_8">
      <!-- 1.0 -->
      <g style="fill:#262626;" transform="translate(60.14 36.549788)scale(0.2 -0.2)">
       <use xlink:href="#Helvetica-31"/>
       <use x="55.615234" xlink:href="#Helvetica-2e"/>
       <use x="83.398438" xlink:href="#Helvetica-30"/>
      </g>
     </g>
    </g>
    <g id="text_9">
     <!-- Probability -->
     <g style="fill:#262626;" transform="translate(39.65875 139.979375)rotate(-90)scale(0.25 -0.25)">
      <defs>
       <path d="M 428 3347 
L 963 3347 
L 963 2769 
Q 1028 2938 1284 3180 
Q 1541 3422 1875 3422 
Q 1891 3422 1928 3419 
Q 1966 3416 2056 3406 
L 2056 2813 
Q 2006 2822 1964 2825 
Q 1922 2828 1872 2828 
Q 1447 2828 1219 2554 
Q 991 2281 991 1925 
L 991 0 
L 428 0 
L 428 3347 
z
" id="Helvetica-72" transform="scale(0.015625)"/>
       <path d="M 369 4606 
L 916 4606 
L 916 2941 
Q 1100 3181 1356 3307 
Q 1613 3434 1913 3434 
Q 2538 3434 2927 3004 
Q 3316 2575 3316 1738 
Q 3316 944 2931 419 
Q 2547 -106 1866 -106 
Q 1484 -106 1222 78 
Q 1066 188 888 428 
L 888 0 
L 369 0 
L 369 4606 
z
M 1831 391 
Q 2288 391 2514 753 
Q 2741 1116 2741 1709 
Q 2741 2238 2514 2584 
Q 2288 2931 1847 2931 
Q 1463 2931 1173 2647 
Q 884 2363 884 1709 
Q 884 1238 1003 944 
Q 1225 391 1831 391 
z
" id="Helvetica-62" transform="scale(0.015625)"/>
       <path d="M 844 891 
Q 844 647 1022 506 
Q 1200 366 1444 366 
Q 1741 366 2019 503 
Q 2488 731 2488 1250 
L 2488 1703 
Q 2384 1638 2221 1594 
Q 2059 1550 1903 1531 
L 1563 1488 
Q 1256 1447 1103 1359 
Q 844 1213 844 891 
z
M 2206 2028 
Q 2400 2053 2466 2191 
Q 2503 2266 2503 2406 
Q 2503 2694 2298 2823 
Q 2094 2953 1713 2953 
Q 1272 2953 1088 2716 
Q 984 2584 953 2325 
L 428 2325 
Q 444 2944 830 3186 
Q 1216 3428 1725 3428 
Q 2316 3428 2684 3203 
Q 3050 2978 3050 2503 
L 3050 575 
Q 3050 488 3086 434 
Q 3122 381 3238 381 
Q 3275 381 3322 386 
Q 3369 391 3422 400 
L 3422 -16 
Q 3291 -53 3222 -62 
Q 3153 -72 3034 -72 
Q 2744 -72 2613 134 
Q 2544 244 2516 444 
Q 2344 219 2022 53 
Q 1700 -113 1313 -113 
Q 847 -113 551 170 
Q 256 453 256 878 
Q 256 1344 547 1600 
Q 838 1856 1309 1916 
L 2206 2028 
z
M 1741 3428 
L 1741 3428 
z
" id="Helvetica-61" transform="scale(0.015625)"/>
       <path d="M 428 4591 
L 991 4591 
L 991 0 
L 428 0 
L 428 4591 
z
" id="Helvetica-6c" transform="scale(0.015625)"/>
       <path d="M 2503 3347 
L 3125 3347 
Q 3006 3025 2597 1878 
Q 2291 1016 2084 472 
Q 1597 -809 1397 -1090 
Q 1197 -1372 709 -1372 
Q 591 -1372 527 -1362 
Q 463 -1353 369 -1328 
L 369 -816 
Q 516 -856 581 -865 
Q 647 -875 697 -875 
Q 853 -875 926 -823 
Q 1000 -772 1050 -697 
Q 1066 -672 1162 -440 
Q 1259 -209 1303 -97 
L 66 3347 
L 703 3347 
L 1600 622 
L 2503 3347 
z
M 1597 3428 
L 1597 3428 
z
" id="Helvetica-79" transform="scale(0.015625)"/>
      </defs>
      <use xlink:href="#Helvetica-50"/>
      <use x="66.699219" xlink:href="#Helvetica-72"/>
      <use x="100" xlink:href="#Helvetica-6f"/>
      <use x="155.615234" xlink:href="#Helvetica-62"/>
      <use x="211.230469" xlink:href="#Helvetica-61"/>
      <use x="266.845703" xlink:href="#Helvetica-62"/>
      <use x="322.460938" xlink:href="#Helvetica-69"/>
      <use x="344.677734" xlink:href="#Helvetica-6c"/>
      <use x="366.894531" xlink:href="#Helvetica-69"/>
      <use x="389.111328" xlink:href="#Helvetica-74"/>
      <use x="416.894531" xlink:href="#Helvetica-79"/>
     </g>
    </g>
   </g>
   <g id="patch_71">
    <path d="M 94.94 141.64 
L 94.94 21.6 
" style="fill:none;stroke:#000000;stroke-linecap:square;stroke-linejoin:miter;"/>
   </g>
  </g>
 </g>
 <defs>
  <clipPath id="pa2eca2199a">
   <rect height="120.04" width="189.46" x="94.94" y="21.6"/>
  </clipPath>
 </defs>
</svg>
