<?xml version="1.0" encoding="utf-8" standalone="no"?>
<!DOCTYPE svg PUBLIC "-//W3C//DTD SVG 1.1//EN"
  "http://www.w3.org/Graphics/SVG/1.1/DTD/svg11.dtd">
<svg height="216pt" version="1.1" viewBox="0 0 306 216" width="306pt" xmlns="http://www.w3.org/2000/svg" xmlns:xlink="http://www.w3.org/1999/xlink">
 <metadata>
  <rdf:RDF xmlns:cc="http://creativecommons.org/ns#" xmlns:dc="http://purl.org/dc/elements/1.1/" xmlns:rdf="http://www.w3.org/1999/02/22-rdf-syntax-ns#">
   <cc:Work>
    <dc:type rdf:resource="http://purl.org/dc/dcmitype/StillImage"/>
    <dc:date>2021-12-20T22:25:04.705133</dc:date>
    <dc:format>image/svg+xml</dc:format>
    <dc:creator>
     <cc:Agent>
      <dc:title>Matplotlib v3.4.2, https://matplotlib.org/</dc:title>
     </cc:Agent>
    </dc:creator>
   </cc:Work>
  </rdf:RDF>
 </metadata>
 <defs>
  <style type="text/css">*{stroke-linecap:butt;stroke-linejoin:round;}</style>
 </defs>
 <g id="figure_1">
  <g id="patch_1">
   <path d="M 0 216 
L 306 216 
L 306 0 
L 0 0 
z
" style="fill:#ffffff;"/>
  </g>
  <g id="axes_1">
   <g id="patch_2">
    <path d="M 94.94 141.64 
L 284.4 141.64 
L 284.4 28.8 
L 94.94 28.8 
z
" style="fill:#ffffff;"/>
   </g>
   <g id="line2d_1">
    <path clip-path="url(#p4a71d192cb)" d="M 94.94 64.910674 
L 284.4 64.910674 
" style="fill:none;stroke:#000000;stroke-linecap:round;stroke-width:0.5;"/>
   </g>
   <g id="patch_3">
    <path clip-path="url(#p4a71d192cb)" d="M 102.067515 56.631324 
L 100.261014 47.704943 
L 98.340473 56.631324 
L 102.067515 56.631324 
z
M 99.418672 44.703074 
L 101.240724 44.703074 
L 105.558702 64.910674 
L 103.791078 64.910674 
L 102.58588 58.858517 
L 97.879128 58.858517 
L 96.590992 64.910674 
L 94.94 64.910674 
L 99.418672 44.703074 
z
M 100.253239 44.703074 
L 100.253239 44.703074 
z
" style="fill:#008000;"/>
   </g>
   <g id="patch_4">
    <path clip-path="url(#p4a71d192cb)" d="M 113.245097 59.796846 
L 111.438595 54.283373 
L 109.518054 59.796846 
L 113.245097 59.796846 
z
M 110.596253 52.429237 
L 112.418305 52.429237 
L 116.736283 64.910674 
L 114.968659 64.910674 
L 113.763461 61.172496 
L 109.056709 61.172496 
L 107.768573 64.910674 
L 106.117581 64.910674 
L 110.596253 52.429237 
z
M 111.43082 52.429237 
L 111.43082 52.429237 
z
" style="fill:#008000;"/>
   </g>
   <g id="patch_5">
    <path clip-path="url(#p4a71d192cb)" d="M 111.700744 35.934482 
Q 113.97469 35.934482 115.229012 37.503786 
Q 116.483333 39.069679 116.621543 41.062014 
L 115.041255 41.062014 
Q 114.772658 39.550705 113.969475 38.667119 
Q 113.166292 37.780121 111.716391 37.780121 
Q 109.948346 37.780121 108.86092 39.407421 
Q 107.773494 41.03131 107.773494 44.388257 
Q 107.773494 47.141363 108.754002 48.853952 
Q 109.737119 50.563129 111.685098 50.563129 
Q 113.476613 50.563129 114.415398 48.761841 
Q 114.910868 47.813435 115.155995 46.2646 
L 116.736283 46.2646 
Q 116.525057 48.73796 115.335929 50.413022 
Q 113.909497 52.429237 111.489518 52.429237 
Q 109.403329 52.429237 107.98472 50.774644 
Q 106.117581 48.591264 106.117581 44.026635 
Q 106.117581 40.56393 107.520543 38.346435 
Q 109.035638 35.934482 111.700744 35.934482 
z
M 111.374777 35.934482 
L 111.374777 35.934482 
z
" style="fill:#0000ff;"/>
   </g>
   <g id="patch_6">
    <path clip-path="url(#p4a71d192cb)" d="M 124.422678 64.198989 
L 122.616176 63.431686 
L 120.695635 64.198989 
L 124.422678 64.198989 
z
M 121.773834 63.173649 
L 123.595886 63.173649 
L 127.913864 64.910674 
L 126.14624 64.910674 
L 124.941042 64.390436 
L 120.23429 64.390436 
L 118.946154 64.910674 
L 117.295162 64.910674 
L 121.773834 63.173649 
z
M 122.608401 63.173649 
L 122.608401 63.173649 
z
" style="fill:#008000;"/>
   </g>
   <g id="patch_7">
    <path clip-path="url(#p4a71d192cb)" d="M 122.878326 41.782829 
Q 125.152272 41.782829 126.406593 43.817943 
Q 127.660914 45.848633 127.799124 48.432343 
L 126.218836 48.432343 
Q 125.950239 46.47244 125.147056 45.326582 
Q 124.343873 44.1763 122.893972 44.1763 
Q 121.125927 44.1763 120.038501 46.286625 
Q 118.951075 48.392526 118.951075 52.7459 
Q 118.951075 56.316199 119.931584 58.537128 
Q 120.9147 60.753632 122.862679 60.753632 
Q 124.654194 60.753632 125.592979 58.417675 
Q 126.088449 57.187758 126.333576 55.179189 
L 127.913864 55.179189 
Q 127.702638 58.386706 126.51351 60.558969 
Q 125.087078 63.173649 122.667099 63.173649 
Q 120.58091 63.173649 119.162301 61.02793 
Q 117.295162 58.196467 117.295162 52.276939 
Q 117.295162 47.786416 118.698124 44.910711 
Q 120.213219 41.782829 122.878326 41.782829 
z
M 122.552359 41.782829 
L 122.552359 41.782829 
z
" style="fill:#0000ff;"/>
   </g>
   <g id="patch_8">
    <path clip-path="url(#p4a71d192cb)" d="M 135.600259 55.672525 
L 133.793758 45.712416 
L 131.873216 55.672525 
L 135.600259 55.672525 
z
M 132.951415 42.362912 
L 134.773467 42.362912 
L 139.091445 64.910674 
L 137.323822 64.910674 
L 136.118624 58.157641 
L 131.411872 58.157641 
L 130.123735 64.910674 
L 128.472743 64.910674 
L 132.951415 42.362912 
z
M 133.785982 42.362912 
L 133.785982 42.362912 
z
" style="fill:#008000;"/>
   </g>
   <g id="patch_9">
    <path clip-path="url(#p4a71d192cb)" d="M 146.77784 62.844903 
L 144.971339 60.617692 
L 143.050797 62.844903 
L 146.77784 62.844903 
z
M 144.128996 59.868699 
L 145.951048 59.868699 
L 150.269027 64.910674 
L 148.501403 64.910674 
L 147.296205 63.400607 
L 142.589453 63.400607 
L 141.301316 64.910674 
L 139.650324 64.910674 
L 144.128996 59.868699 
z
M 144.963563 59.868699 
L 144.963563 59.868699 
z
" style="fill:#008000;"/>
   </g>
   <g id="patch_10">
    <path clip-path="url(#p4a71d192cb)" d="M 145.233488 53.249686 
Q 147.507434 53.249686 148.761755 53.879416 
Q 150.016076 54.507778 150.154286 55.307261 
L 148.573998 55.307261 
Q 148.305401 54.700804 147.502218 54.346238 
Q 146.699036 53.990304 145.249134 53.990304 
Q 143.481089 53.990304 142.393663 54.643306 
Q 141.306237 55.29494 141.306237 56.642016 
Q 141.306237 57.746782 142.286746 58.434009 
Q 143.269862 59.119867 145.217841 59.119867 
Q 147.009356 59.119867 147.948141 58.397047 
Q 148.443611 58.01647 148.688738 57.394954 
L 150.269027 57.394954 
Q 150.0578 58.387464 148.868672 59.059632 
Q 147.44224 59.868699 145.022261 59.868699 
Q 142.936072 59.868699 141.517464 59.204744 
Q 139.650324 58.328598 139.650324 56.496904 
Q 139.650324 55.10739 141.053287 54.217554 
Q 142.568381 53.249686 145.233488 53.249686 
z
M 144.907521 53.249686 
L 144.907521 53.249686 
z
" style="fill:#0000ff;"/>
   </g>
   <g id="patch_11">
    <path clip-path="url(#p4a71d192cb)" d="M 157.955421 59.796846 
L 156.14892 54.283373 
L 154.228378 59.796846 
L 157.955421 59.796846 
z
M 155.306577 52.429237 
L 157.128629 52.429237 
L 161.446608 64.910674 
L 159.678984 64.910674 
L 158.473786 61.172496 
L 153.767034 61.172496 
L 152.478897 64.910674 
L 150.827906 64.910674 
L 155.306577 52.429237 
z
M 156.141144 52.429237 
L 156.141144 52.429237 
z
" style="fill:#008000;"/>
   </g>
   <g id="patch_12">
    <path clip-path="url(#p4a71d192cb)" d="M 156.411069 37.235762 
Q 158.685015 37.235762 159.939336 38.681263 
Q 161.193657 40.123622 161.331867 41.95878 
L 159.751579 41.95878 
Q 159.482982 40.5667 158.679799 39.75282 
Q 157.876617 38.935797 156.426715 38.935797 
Q 154.65867 38.935797 153.571244 40.434719 
Q 152.483818 41.930499 152.483818 45.022614 
Q 152.483818 47.558526 153.464327 49.136008 
Q 154.447444 50.710348 156.395423 50.710348 
Q 158.186937 50.710348 159.125722 49.051164 
Q 159.621192 48.177578 159.866319 46.750931 
L 161.446608 46.750931 
Q 161.235381 49.029167 160.046253 50.572082 
Q 158.619822 52.429237 156.199842 52.429237 
Q 154.113653 52.429237 152.695045 50.905176 
Q 150.827906 48.894044 150.827906 44.689521 
Q 150.827906 41.499991 152.230868 39.457435 
Q 153.745962 37.235762 156.411069 37.235762 
z
M 156.085102 37.235762 
L 156.085102 37.235762 
z
" style="fill:#0000ff;"/>
   </g>
   <g id="patch_13">
    <path clip-path="url(#p4a71d192cb)" d="M 169.133002 63.51309 
L 167.326501 62.006285 
L 165.40596 63.51309 
L 169.133002 63.51309 
z
M 166.484158 61.499559 
L 168.30621 61.499559 
L 172.624189 64.910674 
L 170.856565 64.910674 
L 169.651367 63.889048 
L 164.944615 63.889048 
L 163.656478 64.910674 
L 162.005487 64.910674 
L 166.484158 61.499559 
z
M 167.318725 61.499559 
L 167.318725 61.499559 
z
" style="fill:#008000;"/>
   </g>
   <g id="patch_14">
    <path clip-path="url(#p4a71d192cb)" d="M 167.58865 49.010412 
Q 169.862596 49.010412 171.116917 50.198624 
Q 172.371238 51.384254 172.509448 52.892767 
L 170.92916 52.892767 
Q 170.660563 51.748467 169.857381 51.079452 
Q 169.054198 50.407853 167.604296 50.407853 
Q 165.836251 50.407853 164.748825 51.639978 
Q 163.661399 52.86952 163.661399 55.411261 
Q 163.661399 57.495799 164.641908 58.792501 
Q 165.625025 60.086619 167.573004 60.086619 
Q 169.364518 60.086619 170.303304 58.722758 
Q 170.798773 58.004664 171.043901 56.83195 
L 172.624189 56.83195 
Q 172.412962 58.704677 171.223834 59.972964 
Q 169.797403 61.499559 167.377423 61.499559 
Q 165.291234 61.499559 163.872626 60.24677 
Q 162.005487 58.593605 162.005487 55.137456 
Q 162.005487 52.515639 163.408449 50.836643 
Q 164.923544 49.010412 167.58865 49.010412 
z
M 167.262683 49.010412 
L 167.262683 49.010412 
z
" style="fill:#0000ff;"/>
   </g>
   <g id="patch_15">
    <path clip-path="url(#p4a71d192cb)" d="M 180.310583 58.152531 
L 178.504082 50.866239 
L 176.583541 58.152531 
L 180.310583 58.152531 
z
M 177.661739 48.415918 
L 179.483791 48.415918 
L 183.80177 64.910674 
L 182.034146 64.910674 
L 180.828948 59.970511 
L 176.122196 59.970511 
L 174.83406 64.910674 
L 173.183068 64.910674 
L 177.661739 48.415918 
z
M 178.496307 48.415918 
L 178.496307 48.415918 
z
" style="fill:#008000;"/>
   </g>
   <g id="patch_16">
    <path clip-path="url(#p4a71d192cb)" d="M 189.943812 56.765153 
Q 192.217758 56.765153 193.472079 57.540114 
Q 194.726401 58.313391 194.864611 59.297256 
L 193.284322 59.297256 
Q 193.015726 58.550934 192.212543 58.114597 
Q 191.40936 57.676575 189.959459 57.676575 
Q 188.191414 57.676575 187.103988 58.480176 
Q 186.016561 59.282093 186.016561 60.939837 
Q 186.016561 62.29939 186.99707 63.145109 
Q 187.980187 63.989143 189.928166 63.989143 
Q 191.719681 63.989143 192.658466 63.099622 
Q 193.153936 62.631275 193.399063 61.866422 
L 194.979351 61.866422 
Q 194.768124 63.087829 193.578997 63.915016 
Q 192.152565 64.910674 189.732586 64.910674 
Q 187.646397 64.910674 186.227788 64.093594 
Q 184.360649 63.015387 184.360649 60.761259 
Q 184.360649 59.05129 185.763611 57.956235 
Q 187.278706 56.765153 189.943812 56.765153 
z
M 189.617845 56.765153 
L 189.617845 56.765153 
z
" style="fill:#0000ff;"/>
   </g>
   <g id="patch_17">
    <path clip-path="url(#p4a71d192cb)" d="M 191.488164 47.999689 
L 189.681663 38.549205 
L 187.761122 47.999689 
L 191.488164 47.999689 
z
M 188.83932 35.371083 
L 190.661373 35.371083 
L 194.979351 56.765153 
L 193.211727 56.765153 
L 192.006529 50.35765 
L 187.299777 50.35765 
L 186.011641 56.765153 
L 184.360649 56.765153 
L 188.83932 35.371083 
z
M 189.673888 35.371083 
L 189.673888 35.371083 
z
" style="fill:#008000;"/>
   </g>
   <g id="patch_18">
    <path clip-path="url(#p4a71d192cb)" d="M 201.121393 51.059328 
Q 203.395339 51.059328 204.649661 52.377139 
Q 205.903982 53.692086 206.042192 55.365134 
L 204.461904 55.365134 
Q 204.193307 54.096024 203.390124 53.354039 
Q 202.586941 52.609189 201.13704 52.609189 
Q 199.368995 52.609189 198.281569 53.975702 
Q 197.194143 55.33935 197.194143 58.158321 
Q 197.194143 60.470221 198.174651 61.908355 
Q 199.157768 63.343624 201.105747 63.343624 
Q 202.897262 63.343624 203.836047 61.831005 
Q 204.331517 61.034589 204.576644 59.733966 
L 206.156932 59.733966 
Q 205.945706 61.810951 204.756578 63.217572 
Q 203.330146 64.910674 200.910167 64.910674 
Q 198.823978 64.910674 197.405369 63.521242 
Q 195.53823 61.687765 195.53823 57.854652 
Q 195.53823 54.946872 196.941192 53.084747 
Q 198.456287 51.059328 201.121393 51.059328 
z
M 200.795426 51.059328 
L 200.795426 51.059328 
z
" style="fill:#0000ff;"/>
   </g>
   <g id="patch_19">
    <path clip-path="url(#p4a71d192cb)" d="M 202.665746 43.781024 
L 200.859244 35.933922 
L 198.938703 43.781024 
L 202.665746 43.781024 
z
M 200.016902 33.295005 
L 201.838954 33.295005 
L 206.156932 51.059328 
L 204.389308 51.059328 
L 203.18411 45.73893 
L 198.477358 45.73893 
L 197.189222 51.059328 
L 195.53823 51.059328 
L 200.016902 33.295005 
z
M 200.851469 33.295005 
L 200.851469 33.295005 
z
" style="fill:#008000;"/>
   </g>
   <g id="patch_20">
    <path clip-path="url(#p4a71d192cb)" d="M 213.843327 62.198767 
L 212.036825 59.274925 
L 210.116284 62.198767 
L 213.843327 62.198767 
z
M 211.194483 58.291661 
L 213.016535 58.291661 
L 217.334513 64.910674 
L 215.566889 64.910674 
L 214.361691 62.928286 
L 209.654939 62.928286 
L 208.366803 64.910674 
L 206.715811 64.910674 
L 211.194483 58.291661 
z
M 212.02905 58.291661 
L 212.02905 58.291661 
z
" style="fill:#008000;"/>
   </g>
   <g id="patch_21">
    <path clip-path="url(#p4a71d192cb)" d="M 212.298975 38.077413 
Q 214.572921 38.077413 215.827242 40.000588 
Q 217.081563 41.919583 217.219773 44.36118 
L 215.639485 44.36118 
Q 215.370888 42.509078 214.567705 41.426247 
Q 213.764522 40.339235 212.314621 40.339235 
Q 210.546576 40.339235 209.45915 42.333484 
Q 208.371724 44.323553 208.371724 48.437476 
Q 208.371724 51.811395 209.352233 53.910165 
Q 210.335349 56.004754 212.283328 56.004754 
Q 214.074843 56.004754 215.013628 53.797283 
Q 215.509098 52.635016 215.754225 50.736925 
L 217.334513 50.736925 
Q 217.123287 53.768017 215.934159 55.820798 
Q 214.507727 58.291661 212.087748 58.291661 
Q 210.001559 58.291661 208.58295 56.263965 
Q 206.715811 53.588242 206.715811 47.99431 
Q 206.715811 43.750781 208.118773 41.03325 
Q 209.633868 38.077413 212.298975 38.077413 
z
M 211.973008 38.077413 
L 211.973008 38.077413 
z
" style="fill:#0000ff;"/>
   </g>
   <g id="patch_22">
    <path clip-path="url(#p4a71d192cb)" d="M 223.476556 56.760962 
Q 225.750502 56.760962 227.004823 57.536323 
Q 228.259144 58.309997 228.397354 59.294368 
L 226.817066 59.294368 
Q 226.548469 58.547662 225.745286 58.111101 
Q 224.942103 57.672854 223.492202 57.672854 
Q 221.724157 57.672854 220.636731 58.476868 
Q 219.549305 59.279198 219.549305 60.937795 
Q 219.549305 62.298046 220.529814 63.144201 
Q 221.51293 63.988669 223.460909 63.988669 
Q 225.252424 63.988669 226.191209 63.09869 
Q 226.686679 62.630103 226.931806 61.864856 
L 228.512094 61.864856 
Q 228.300868 63.086891 227.11174 63.914504 
Q 225.685308 64.910674 223.265329 64.910674 
Q 221.17914 64.910674 219.760531 64.093174 
Q 217.893392 63.014412 217.893392 60.759125 
Q 217.893392 59.048275 219.296354 57.952657 
Q 220.811449 56.760962 223.476556 56.760962 
z
M 223.150589 56.760962 
L 223.150589 56.760962 
z
" style="fill:#0000ff;"/>
   </g>
   <g id="patch_23">
    <path clip-path="url(#p4a71d192cb)" d="M 223.369847 45.702457 
Q 225.007973 45.702457 226.20302 46.274724 
Q 227.934826 47.096501 228.322203 49.156666 
L 226.765098 49.156666 
Q 226.478995 48.005263 225.585242 47.478776 
Q 224.691488 46.95229 223.329337 46.95229 
Q 221.71653 46.95229 220.612631 48.048755 
Q 219.508731 49.142931 219.508731 51.310682 
Q 219.508731 53.183143 220.417676 54.359726 
Q 221.329153 55.536309 223.385039 55.536309 
Q 224.959868 55.536309 225.992874 54.712243 
Q 227.025881 53.885888 227.048668 52.038607 
L 223.410357 52.038607 
L 223.410357 50.859735 
L 228.512094 50.859735 
L 228.512094 56.481696 
L 227.499343 56.481696 
L 227.119561 55.128854 
Q 226.322019 55.923162 225.70424 56.232187 
Q 224.66617 56.760962 223.068554 56.760962 
Q 221.005072 56.760962 219.516327 55.552332 
Q 217.893392 54.034678 217.893392 51.388511 
Q 217.893392 48.749211 219.475817 47.190353 
Q 220.979753 45.702457 223.369847 45.702457 
z
M 223.109064 45.686433 
L 223.109064 45.686433 
z
" style="fill:#ffa600;"/>
   </g>
   <g id="patch_24">
    <path clip-path="url(#p4a71d192cb)" d="M 236.198489 62.844903 
L 234.391988 60.617692 
L 232.471446 62.844903 
L 236.198489 62.844903 
z
M 233.549645 59.868699 
L 235.371697 59.868699 
L 239.689676 64.910674 
L 237.922052 64.910674 
L 236.716854 63.400607 
L 232.010102 63.400607 
L 230.721965 64.910674 
L 229.070973 64.910674 
L 233.549645 59.868699 
z
M 234.384212 59.868699 
L 234.384212 59.868699 
z
" style="fill:#008000;"/>
   </g>
   <g id="patch_25">
    <path clip-path="url(#p4a71d192cb)" d="M 234.654137 40.871818 
Q 236.928083 40.871818 238.182404 42.679174 
Q 239.436725 44.482601 239.574935 46.777157 
L 237.994647 46.777157 
Q 237.72605 45.036595 236.922867 44.018975 
Q 236.119685 42.997426 234.669783 42.997426 
Q 232.901738 42.997426 231.814312 44.871575 
Q 230.726886 46.741795 230.726886 50.607965 
Q 230.726886 53.778696 231.707395 55.751071 
Q 232.690511 57.719517 234.63849 57.719517 
Q 236.430005 57.719517 237.36879 55.644987 
Q 237.86426 54.552716 238.109387 52.768934 
L 239.689676 52.768934 
Q 239.478449 55.617484 238.289321 57.54664 
Q 236.862889 59.868699 234.44291 59.868699 
Q 232.356721 59.868699 230.938113 57.963117 
Q 229.070973 55.448535 229.070973 50.191488 
Q 229.070973 46.203518 230.473936 43.649645 
Q 231.98903 40.871818 234.654137 40.871818 
z
M 234.32817 40.871818 
L 234.32817 40.871818 
z
" style="fill:#0000ff;"/>
   </g>
   <g id="patch_26">
    <path clip-path="url(#p4a71d192cb)" d="M 245.831718 64.908224 
Q 248.105664 64.908224 249.359985 64.908457 
Q 250.614306 64.908689 250.752516 64.908985 
L 249.172228 64.908985 
Q 248.903631 64.908761 248.100448 64.90863 
Q 247.297266 64.908498 245.847364 64.908498 
Q 244.079319 64.908498 242.991893 64.90874 
Q 241.904467 64.908981 241.904467 64.909479 
Q 241.904467 64.909888 242.884976 64.910143 
Q 243.868093 64.910396 245.816071 64.910396 
Q 247.607586 64.910396 248.546371 64.910129 
Q 249.041841 64.909988 249.286968 64.909758 
L 250.867257 64.909758 
Q 250.65603 64.910125 249.466902 64.910374 
Q 248.040471 64.910674 245.620491 64.910674 
Q 243.534302 64.910674 242.115694 64.910428 
Q 240.248555 64.910104 240.248555 64.909426 
Q 240.248555 64.908911 241.651517 64.908582 
Q 243.166611 64.908224 245.831718 64.908224 
z
M 245.505751 64.908224 
L 245.505751 64.908224 
z
" style="fill:#0000ff;"/>
   </g>
   <g id="patch_27">
    <path clip-path="url(#p4a71d192cb)" d="M 247.37607 62.842453 
L 245.569569 60.615242 
L 243.649027 62.842453 
L 247.37607 62.842453 
z
M 244.727226 59.866249 
L 246.549278 59.866249 
L 250.867257 64.908224 
L 249.099633 64.908224 
L 247.894435 63.398157 
L 243.187683 63.398157 
L 241.899546 64.908224 
L 240.248555 64.908224 
L 244.727226 59.866249 
z
M 245.561793 59.866249 
L 245.561793 59.866249 
z
" style="fill:#008000;"/>
   </g>
   <g id="patch_28">
    <path clip-path="url(#p4a71d192cb)" d="M 245.72501 53.265431 
Q 247.363136 53.265431 248.558183 53.607018 
Q 250.289988 54.097536 250.677366 55.327248 
L 249.12026 55.327248 
Q 248.834158 54.639976 247.940404 54.325716 
Q 247.046651 54.011456 245.6845 54.011456 
Q 244.071692 54.011456 242.967793 54.665936 
Q 241.863894 55.31905 241.863894 56.612979 
Q 241.863894 57.73065 242.772838 58.432952 
Q 243.684315 59.135254 245.740201 59.135254 
Q 247.31503 59.135254 248.348037 58.643369 
Q 249.381043 58.150119 249.40383 57.047477 
L 245.76552 57.047477 
L 245.76552 56.343809 
L 250.867257 56.343809 
L 250.867257 59.699555 
L 249.854505 59.699555 
L 249.474723 58.892044 
Q 248.677181 59.366166 248.059402 59.550623 
Q 247.021332 59.866249 245.423716 59.866249 
Q 243.360234 59.866249 241.871489 59.144818 
Q 240.248555 58.238931 240.248555 56.659435 
Q 240.248555 55.084038 241.830979 54.153556 
Q 243.334916 53.265431 245.72501 53.265431 
z
M 245.464226 53.255867 
L 245.464226 53.255867 
z
" style="fill:#ffa600;"/>
   </g>
   <g id="patch_29">
    <path clip-path="url(#p4a71d192cb)" d="M 256.902591 55.291968 
Q 258.540717 55.291968 259.735764 55.789727 
Q 261.467569 56.50451 261.854947 58.296444 
L 260.297841 58.296444 
Q 260.011739 57.294952 259.117985 56.837013 
Q 258.224232 56.379074 256.862081 56.379074 
Q 255.249274 56.379074 254.145374 57.332782 
Q 253.041475 58.284498 253.041475 60.170011 
Q 253.041475 61.798681 253.950419 62.822074 
Q 254.861896 63.845468 256.917782 63.845468 
Q 258.492611 63.845468 259.525618 63.128694 
Q 260.558625 62.40993 260.581411 60.803162 
L 256.943101 60.803162 
L 256.943101 59.777777 
L 262.044838 59.777777 
L 262.044838 64.667767 
L 261.032086 64.667767 
L 260.652304 63.491063 
Q 259.854762 64.181954 259.236984 64.450744 
Q 258.198913 64.910674 256.601297 64.910674 
Q 254.537815 64.910674 253.04907 63.859405 
Q 251.426136 62.539347 251.426136 60.237707 
Q 251.426136 57.94204 253.00856 56.586142 
Q 254.512497 55.291968 256.902591 55.291968 
z
M 256.641807 55.27803 
L 256.641807 55.27803 
z
" style="fill:#ffa600;"/>
   </g>
   <g id="patch_30">
    <path clip-path="url(#p4a71d192cb)" d="M 257.009299 45.641315 
Q 259.283245 45.641315 260.537566 46.558148 
Q 261.791887 47.472988 261.930097 48.636968 
L 260.349809 48.636968 
Q 260.081212 47.754018 259.27803 47.237801 
Q 258.474847 46.71959 257.024945 46.71959 
Q 255.2569 46.71959 254.169474 47.670307 
Q 253.082048 48.61903 253.082048 50.580256 
Q 253.082048 52.188701 254.062557 53.189245 
Q 255.045674 54.187796 256.993653 54.187796 
Q 258.785167 54.187796 259.723952 53.135431 
Q 260.219422 52.581344 260.46455 51.67647 
L 262.044838 51.67647 
Q 261.833611 53.121479 260.644483 54.100099 
Q 259.218052 55.27803 256.798072 55.27803 
Q 254.711883 55.27803 253.293275 54.311369 
Q 251.426136 53.035775 251.426136 50.368986 
Q 251.426136 48.345973 252.829098 47.050448 
Q 254.344193 45.641315 257.009299 45.641315 
z
M 256.683332 45.641315 
L 256.683332 45.641315 
z
" style="fill:#0000ff;"/>
   </g>
   <g id="patch_31">
    <path clip-path="url(#p4a71d192cb)" d="M 268.18688 63.173649 
Q 270.460826 63.173649 271.715147 63.338908 
Q 272.969468 63.503809 273.107678 63.713617 
L 271.52739 63.713617 
Q 271.258793 63.554465 270.455611 63.461416 
Q 269.652428 63.368009 268.202527 63.368009 
Q 266.434481 63.368009 265.347055 63.539376 
Q 264.259629 63.710384 264.259629 64.063896 
Q 264.259629 64.35382 265.240138 64.534168 
Q 266.223255 64.714158 268.171234 64.714158 
Q 269.962749 64.714158 270.901534 64.524468 
Q 271.397003 64.424594 271.642131 64.26149 
L 273.222419 64.26149 
Q 273.011192 64.521954 271.822065 64.698351 
Q 270.395633 64.910674 267.975654 64.910674 
Q 265.889465 64.910674 264.470856 64.736432 
Q 262.603717 64.506505 262.603717 64.025815 
Q 262.603717 63.661165 264.006679 63.427646 
Q 265.521774 63.173649 268.18688 63.173649 
z
M 267.860913 63.173649 
L 267.860913 63.173649 
z
" style="fill:#0000ff;"/>
   </g>
   <g id="patch_32">
    <path clip-path="url(#p4a71d192cb)" d="M 268.080172 59.762887 
Q 269.718298 59.762887 270.913345 59.939391 
Q 272.64515 60.192851 273.032528 60.828265 
L 271.475422 60.828265 
Q 271.18932 60.473139 270.295566 60.310756 
Q 269.401813 60.148372 268.039662 60.148372 
Q 266.426855 60.148372 265.322955 60.486553 
Q 264.219056 60.824029 264.219056 61.492626 
Q 264.219056 62.070146 265.128001 62.433038 
Q 266.039477 62.79593 268.095363 62.79593 
Q 269.670192 62.79593 270.703199 62.541765 
Q 271.736206 62.286893 271.758993 61.717138 
L 268.120682 61.717138 
L 268.120682 61.35354 
L 273.222419 61.35354 
L 273.222419 63.087515 
L 272.209667 63.087515 
L 271.829885 62.670259 
Q 271.032343 62.915247 270.414565 63.010559 
Q 269.376494 63.173649 267.778878 63.173649 
Q 265.715397 63.173649 264.226651 62.800872 
Q 262.603717 62.332784 262.603717 61.51663 
Q 262.603717 60.702594 264.186141 60.221798 
Q 265.690078 59.762887 268.080172 59.762887 
z
M 267.819388 59.757945 
L 267.819388 59.757945 
z
" style="fill:#ffa600;"/>
   </g>
   <g id="patch_33">
    <path clip-path="url(#p4a71d192cb)" d="M 269.731232 55.81131 
L 267.924731 51.556246 
L 266.00419 55.81131 
L 269.731232 55.81131 
z
M 267.082388 50.125302 
L 268.90444 50.125302 
L 273.222419 59.757945 
L 271.454795 59.757945 
L 270.249597 56.872978 
L 265.542845 56.872978 
L 264.254709 59.757945 
L 262.603717 59.757945 
L 267.082388 50.125302 
z
M 267.916956 50.125302 
L 267.916956 50.125302 
z
" style="fill:#008000;"/>
   </g>
   <g id="patch_34">
    <path clip-path="url(#p4a71d192cb)" d="M 279.257753 64.908227 
Q 280.895879 64.908227 282.090926 64.908354 
Q 283.822732 64.908536 284.210109 64.908991 
L 282.653003 64.908991 
Q 282.366901 64.908737 281.473147 64.90862 
Q 280.579394 64.908504 279.217243 64.908504 
Q 277.604436 64.908504 276.500536 64.908746 
Q 275.396637 64.908988 275.396637 64.909468 
Q 275.396637 64.909882 276.305582 64.910142 
Q 277.217058 64.910403 279.272944 64.910403 
Q 280.847773 64.910403 281.88078 64.91022 
Q 282.913787 64.910038 282.936574 64.909629 
L 279.298263 64.909629 
L 279.298263 64.909368 
L 284.4 64.909368 
L 284.4 64.910612 
L 283.387248 64.910612 
L 283.007466 64.910313 
Q 282.209924 64.910488 281.592146 64.910557 
Q 280.554075 64.910674 278.956459 64.910674 
Q 276.892978 64.910674 275.404233 64.910406 
Q 273.781298 64.910071 273.781298 64.909485 
Q 273.781298 64.908901 275.363723 64.908557 
Q 276.867659 64.908227 279.257753 64.908227 
z
M 278.996969 64.908224 
L 278.996969 64.908224 
z
" style="fill:#ffa600;"/>
   </g>
   <g id="patch_35">
    <path clip-path="url(#p4a71d192cb)" d="M 280.908813 51.820028 
L 279.102312 37.708991 
L 277.181771 51.820028 
L 280.908813 51.820028 
z
M 278.259969 32.963564 
L 280.082022 32.963564 
L 284.4 64.908224 
L 282.632376 64.908224 
L 281.427178 55.340829 
L 276.720426 55.340829 
L 275.43229 64.908224 
L 273.781298 64.908224 
L 278.259969 32.963564 
z
M 279.094537 32.963564 
L 279.094537 32.963564 
z
" style="fill:#008000;"/>
   </g>
   <g id="patch_36">
    <path clip-path="url(#p4a71d192cb)" d="M 100.523163 68.560883 
Q 102.797109 68.560883 104.051431 68.213603 
Q 105.305752 67.867079 105.443962 67.426185 
L 103.863673 67.426185 
Q 103.595077 67.76063 102.791894 67.956163 
Q 101.988711 68.152452 100.53881 68.152452 
Q 98.770765 68.152452 97.683339 67.792338 
Q 96.595913 67.432979 96.595913 66.690103 
Q 96.595913 66.080854 97.576421 65.701867 
Q 98.559538 65.323634 100.507517 65.323634 
Q 102.299032 65.323634 103.237817 65.722251 
Q 103.733287 65.932128 103.978414 66.274878 
L 105.558702 66.274878 
Q 105.347475 65.727535 104.158348 65.356852 
Q 102.731916 64.910674 100.311937 64.910674 
Q 98.225748 64.910674 96.807139 65.276827 
Q 94.94 65.759998 94.94 66.770129 
Q 94.94 67.536408 96.342962 68.027129 
Q 97.858057 68.560883 100.523163 68.560883 
z
M 100.197196 68.560883 
L 100.197196 68.560883 
z
" style="fill:none;opacity:0;"/>
   </g>
   <g id="patch_37">
    <path clip-path="url(#p4a71d192cb)" d="M 100.416455 76.128325 
Q 102.054581 76.128325 103.249628 75.736716 
Q 104.981434 75.174367 105.368811 73.764576 
L 103.811705 73.764576 
Q 103.525603 74.552492 102.63185 74.912772 
Q 101.738096 75.273052 100.375945 75.273052 
Q 98.763138 75.273052 97.659238 74.52273 
Q 96.555339 73.773975 96.555339 72.290562 
Q 96.555339 71.009219 97.464284 70.204072 
Q 98.37576 69.398925 100.431646 69.398925 
Q 102.006475 69.398925 103.039482 69.962841 
Q 104.072489 70.528324 104.095276 71.792436 
L 100.456965 71.792436 
L 100.456965 72.599149 
L 105.558702 72.599149 
L 105.558702 68.751988 
L 104.54595 68.751988 
L 104.166168 69.67775 
Q 103.368626 69.134197 102.750848 68.922729 
Q 101.712777 68.560883 100.115161 68.560883 
Q 98.05168 68.560883 96.562935 69.38796 
Q 94.94 70.426505 94.94 72.237303 
Q 94.94 74.043401 96.522425 75.110143 
Q 98.026361 76.128325 100.416455 76.128325 
z
M 100.155671 76.13929 
L 100.155671 76.13929 
z
" style="fill:none;opacity:0;"/>
   </g>
   <g id="patch_38">
    <path clip-path="url(#p4a71d192cb)" d="M 105.558702 92.592666 
L 105.558702 90.63231 
L 101.148734 90.63231 
L 101.148734 76.13929 
L 99.349968 76.13929 
L 99.349968 90.63231 
L 94.94 90.63231 
L 94.94 92.592666 
L 105.558702 92.592666 
z
" style="fill:none;opacity:0;"/>
   </g>
   <g id="patch_39">
    <path clip-path="url(#p4a71d192cb)" d="M 111.594036 107.98714 
Q 113.232162 107.98714 114.427209 106.257839 
Q 116.159015 103.774564 116.546392 97.549084 
L 114.989286 97.549084 
Q 114.703184 101.028436 113.809431 102.619392 
Q 112.915677 104.210348 111.553526 104.210348 
Q 109.940719 104.210348 108.83682 100.897009 
Q 107.73292 97.590587 107.73292 91.039998 
Q 107.73292 85.381727 108.641865 81.826286 
Q 109.553341 78.270845 111.609227 78.270845 
Q 113.184056 78.270845 114.217063 80.761037 
Q 115.25007 83.258147 115.272857 88.840328 
L 111.634546 88.840328 
L 111.634546 92.402686 
L 116.736283 92.402686 
L 116.736283 75.414041 
L 115.723531 75.414041 
L 115.34375 79.502107 
Q 114.546208 77.101838 113.928429 76.168016 
Q 112.890358 74.570142 111.292743 74.570142 
Q 109.229261 74.570142 107.740516 78.222424 
Q 106.117581 82.808529 106.117581 90.804813 
Q 106.117581 98.780345 107.700006 103.490959 
Q 109.203942 107.98714 111.594036 107.98714 
z
M 111.333253 108.03556 
L 111.333253 108.03556 
z
" style="fill:none;opacity:0;"/>
   </g>
   <g id="patch_40">
    <path clip-path="url(#p4a71d192cb)" d="M 116.736283 74.570142 
L 116.736283 73.419254 
L 112.326315 73.419254 
L 112.326315 64.910674 
L 110.527549 64.910674 
L 110.527549 73.419254 
L 106.117581 73.419254 
L 106.117581 74.570142 
L 116.736283 74.570142 
z
" style="fill:none;opacity:0;"/>
   </g>
   <g id="patch_41">
    <path clip-path="url(#p4a71d192cb)" d="M 122.771617 103.580366 
Q 124.409743 103.580366 125.60479 101.671971 
Q 127.336596 98.931516 127.723973 92.061296 
L 126.166868 92.061296 
Q 125.880765 95.900986 124.987012 97.656709 
Q 124.093258 99.412432 122.731107 99.412432 
Q 121.1183 99.412432 120.014401 95.755948 
Q 118.910501 92.107097 118.910501 84.878098 
Q 118.910501 78.633831 119.819446 74.710171 
Q 120.730923 70.786512 122.786809 70.786512 
Q 124.361638 70.786512 125.394644 73.5346 
Q 126.427651 76.290322 126.450438 82.45062 
L 122.812127 82.45062 
L 122.812127 86.381913 
L 127.913864 86.381913 
L 127.913864 67.633844 
L 126.901113 67.633844 
L 126.521331 72.145289 
Q 125.723789 69.496437 125.10601 68.465904 
Q 124.06794 66.702547 122.470324 66.702547 
Q 120.406842 66.702547 118.918097 70.733077 
Q 117.295162 75.79414 117.295162 84.618556 
Q 117.295162 93.420073 118.877587 98.61854 
Q 120.381523 103.580366 122.771617 103.580366 
z
M 122.510834 103.633801 
L 122.510834 103.633801 
z
" style="fill:none;opacity:0;"/>
   </g>
   <g id="patch_42">
    <path clip-path="url(#p4a71d192cb)" d="M 127.913864 66.702547 
L 127.913864 66.489053 
L 123.503896 66.489053 
L 123.503896 64.910674 
L 121.705131 64.910674 
L 121.705131 66.489053 
L 117.295162 66.489053 
L 117.295162 66.702547 
L 127.913864 66.702547 
z
" style="fill:none;opacity:0;"/>
   </g>
   <g id="patch_43">
    <path clip-path="url(#p4a71d192cb)" d="M 134.055907 66.702547 
Q 136.329853 66.702547 137.584174 66.532069 
Q 138.838495 66.361962 138.976705 66.145529 
L 137.396417 66.145529 
Q 137.12782 66.309706 136.324637 66.405693 
Q 135.521454 66.50205 134.071553 66.50205 
Q 132.303508 66.50205 131.216082 66.325272 
Q 130.128656 66.148864 130.128656 65.784189 
Q 130.128656 65.485111 131.109165 65.299067 
Q 132.092281 65.113394 134.04026 65.113394 
Q 135.831775 65.113394 136.77056 65.309074 
Q 137.26603 65.412102 137.511157 65.580356 
L 139.091445 65.580356 
Q 138.880219 65.311668 137.691091 65.129701 
Q 136.264659 64.910674 133.84468 64.910674 
Q 131.758491 64.910674 130.339883 65.090417 
Q 128.472743 65.327604 128.472743 65.823473 
Q 128.472743 66.199637 129.875705 66.44053 
Q 131.3908 66.702547 134.055907 66.702547 
z
M 133.72994 66.702547 
L 133.72994 66.702547 
z
" style="fill:none;opacity:0;"/>
   </g>
   <g id="patch_44">
    <path clip-path="url(#p4a71d192cb)" d="M 133.949198 97.221037 
Q 135.587324 97.221037 136.782371 96.370821 
Q 138.514177 95.149912 138.901554 92.089135 
L 137.344449 92.089135 
Q 137.058346 93.799769 136.164593 94.581967 
Q 135.270839 95.364166 133.908688 95.364166 
Q 132.295881 95.364166 131.191982 93.735152 
Q 130.088082 92.10954 130.088082 88.888922 
Q 130.088082 86.107016 130.997027 84.358972 
Q 131.908504 82.610929 133.96439 82.610929 
Q 135.539219 82.610929 136.572225 83.835239 
Q 137.605232 85.062951 137.628019 87.807448 
L 133.989709 87.807448 
L 133.989709 89.558892 
L 139.091445 89.558892 
L 139.091445 81.206372 
L 138.078694 81.206372 
L 137.698912 83.216282 
Q 136.90137 82.036183 136.283591 81.577066 
Q 135.245521 80.791467 133.647905 80.791467 
Q 131.584423 80.791467 130.095678 82.587123 
Q 128.472743 84.841895 128.472743 88.773293 
Q 128.472743 92.694488 130.055168 95.010476 
Q 131.559104 97.221037 133.949198 97.221037 
z
M 133.688415 97.244843 
L 133.688415 97.244843 
z
" style="fill:none;opacity:0;"/>
   </g>
   <g id="patch_45">
    <path clip-path="url(#p4a71d192cb)" d="M 139.091445 80.791467 
L 139.091445 79.112826 
L 134.681477 79.112826 
L 134.681477 66.702547 
L 132.882712 66.702547 
L 132.882712 79.112826 
L 128.472743 79.112826 
L 128.472743 80.791467 
L 139.091445 80.791467 
z
" style="fill:none;opacity:0;"/>
   </g>
   <g id="patch_46">
    <path clip-path="url(#p4a71d192cb)" d="M 145.12678 78.066727 
Q 146.764906 78.066727 147.959953 77.674533 
Q 149.691758 77.111342 150.079136 75.699443 
L 148.52203 75.699443 
Q 148.235927 76.488537 147.342174 76.849356 
Q 146.448421 77.210175 145.086269 77.210175 
Q 143.473462 77.210175 142.369563 76.458731 
Q 141.265664 75.708855 141.265664 74.223224 
Q 141.265664 72.939964 142.174608 72.133613 
Q 143.086085 71.327262 145.141971 71.327262 
Q 146.7168 71.327262 147.749807 71.892021 
Q 148.782813 72.45835 148.8056 73.724353 
L 145.16729 73.724353 
L 145.16729 74.532273 
L 150.269027 74.532273 
L 150.269027 70.679357 
L 149.256275 70.679357 
L 148.876493 71.606504 
Q 148.078951 71.062139 147.461172 70.850354 
Q 146.423102 70.487966 144.825486 70.487966 
Q 142.762004 70.487966 141.273259 71.31628 
Q 139.650324 72.356379 139.650324 74.169885 
Q 139.650324 75.978685 141.232749 77.047022 
Q 142.736685 78.066727 145.12678 78.066727 
z
M 144.865996 78.077708 
L 144.865996 78.077708 
z
" style="fill:none;opacity:0;"/>
   </g>
   <g id="patch_47">
    <path clip-path="url(#p4a71d192cb)" d="M 150.269027 70.487966 
L 150.269027 69.823453 
L 145.859058 69.823453 
L 145.859058 64.910674 
L 144.060293 64.910674 
L 144.060293 69.823453 
L 139.650324 69.823453 
L 139.650324 70.487966 
L 150.269027 70.487966 
z
" style="fill:none;opacity:0;"/>
   </g>
   <g id="patch_48">
    <path clip-path="url(#p4a71d192cb)" d="M 156.304361 103.232536 
Q 157.942487 103.232536 159.137534 101.978502 
Q 160.869339 100.17771 161.256717 95.66319 
L 159.699611 95.66319 
Q 159.413509 98.186305 158.519755 99.340016 
Q 157.626002 100.493727 156.263851 100.493727 
Q 154.651043 100.493727 153.547144 98.090999 
Q 152.443245 95.693287 152.443245 90.943008 
Q 152.443245 86.83981 153.352189 84.261517 
Q 154.263666 81.683225 156.319552 81.683225 
Q 157.894381 81.683225 158.927388 83.489033 
Q 159.960394 85.299857 159.983181 89.347877 
L 156.344871 89.347877 
L 156.344871 91.931186 
L 161.446608 91.931186 
L 161.446608 79.611561 
L 160.433856 79.611561 
L 160.054074 82.576096 
Q 159.256532 80.835498 158.638753 80.15832 
Q 157.600683 78.999593 156.003067 78.999593 
Q 153.939585 78.999593 152.45084 81.648112 
Q 150.827906 84.973808 150.827906 90.772459 
Q 150.827906 96.556062 152.41033 99.972049 
Q 153.914267 103.232536 156.304361 103.232536 
z
M 156.043577 103.267649 
L 156.043577 103.267649 
z
" style="fill:none;opacity:0;"/>
   </g>
   <g id="patch_49">
    <path clip-path="url(#p4a71d192cb)" d="M 161.446608 78.999593 
L 161.446608 77.320952 
L 157.036639 77.320952 
L 157.036639 64.910674 
L 155.237874 64.910674 
L 155.237874 77.320952 
L 150.827906 77.320952 
L 150.827906 78.999593 
L 161.446608 78.999593 
z
" style="fill:none;opacity:0;"/>
   </g>
   <g id="patch_50">
    <path clip-path="url(#p4a71d192cb)" d="M 167.481942 84.562913 
Q 169.120068 84.562913 170.315115 83.834547 
Q 172.04692 82.788613 172.434298 80.166495 
L 170.877192 80.166495 
Q 170.59109 81.631968 169.697336 82.302064 
Q 168.803583 82.972161 167.441432 82.972161 
Q 165.828625 82.972161 164.724725 81.576612 
Q 163.620826 80.183976 163.620826 77.424925 
Q 163.620826 75.041711 164.52977 73.54419 
Q 165.441247 72.04667 167.497133 72.04667 
Q 169.071962 72.04667 170.104969 73.095517 
Q 171.137976 74.147278 171.160763 76.498443 
L 167.522452 76.498443 
L 167.522452 77.998877 
L 172.624189 77.998877 
L 172.624189 70.843409 
L 171.611437 70.843409 
L 171.231655 72.565266 
Q 170.434113 71.554294 169.816335 71.160977 
Q 168.778264 70.487966 167.180648 70.487966 
Q 165.117166 70.487966 163.628421 72.026275 
Q 162.005487 73.957902 162.005487 77.325867 
Q 162.005487 80.685092 163.587911 82.669161 
Q 165.091848 84.562913 167.481942 84.562913 
z
M 167.221158 84.583307 
L 167.221158 84.583307 
z
" style="fill:none;opacity:0;"/>
   </g>
   <g id="patch_51">
    <path clip-path="url(#p4a71d192cb)" d="M 172.624189 70.487966 
L 172.624189 69.823453 
L 168.21422 69.823453 
L 168.21422 64.910674 
L 166.415455 64.910674 
L 166.415455 69.823453 
L 162.005487 69.823453 
L 162.005487 70.487966 
L 172.624189 70.487966 
z
" style="fill:none;opacity:0;"/>
   </g>
   <g id="patch_52">
    <path clip-path="url(#p4a71d192cb)" d="M 178.766231 66.702547 
Q 181.040177 66.702547 182.294498 66.532069 
Q 183.548819 66.361962 183.68703 66.145529 
L 182.106741 66.145529 
Q 181.838145 66.309706 181.034962 66.405693 
Q 180.231779 66.50205 178.781878 66.50205 
Q 177.013832 66.50205 175.926406 66.325272 
Q 174.83898 66.148864 174.83898 65.784189 
Q 174.83898 65.485111 175.819489 65.299067 
Q 176.802606 65.113394 178.750585 65.113394 
Q 180.5421 65.113394 181.480885 65.309074 
Q 181.976355 65.412102 182.221482 65.580356 
L 183.80177 65.580356 
Q 183.590543 65.311668 182.401416 65.129701 
Q 180.974984 64.910674 178.555005 64.910674 
Q 176.468816 64.910674 175.050207 65.090417 
Q 173.183068 65.327604 173.183068 65.823473 
Q 173.183068 66.199637 174.58603 66.44053 
Q 176.101125 66.702547 178.766231 66.702547 
z
M 178.440264 66.702547 
L 178.440264 66.702547 
z
" style="fill:none;opacity:0;"/>
   </g>
   <g id="patch_53">
    <path clip-path="url(#p4a71d192cb)" d="M 178.659523 86.359282 
Q 180.297649 86.359282 181.492696 85.631248 
Q 183.224501 84.585791 183.611879 81.964867 
L 182.054773 81.964867 
Q 181.768671 83.429672 180.874917 84.099464 
Q 179.981164 84.769255 178.619013 84.769255 
Q 177.006206 84.769255 175.902306 83.374342 
Q 174.798407 81.98234 174.798407 79.224546 
Q 174.798407 76.842418 175.707352 75.34558 
Q 176.618828 73.848741 178.674714 73.848741 
Q 180.249543 73.848741 181.28255 74.89711 
Q 182.315557 75.948392 182.338344 78.298487 
L 178.700033 78.298487 
L 178.700033 79.798237 
L 183.80177 79.798237 
L 183.80177 72.646028 
L 182.789018 72.646028 
L 182.409236 74.367101 
Q 181.611694 73.35659 180.993916 72.963451 
Q 179.955845 72.290748 178.358229 72.290748 
Q 176.294748 72.290748 174.806003 73.828356 
Q 173.183068 75.759103 173.183068 79.125533 
Q 173.183068 82.483228 174.765492 84.466393 
Q 176.269429 86.359282 178.659523 86.359282 
z
M 178.398739 86.379667 
L 178.398739 86.379667 
z
" style="fill:none;opacity:0;"/>
   </g>
   <g id="patch_54">
    <path clip-path="url(#p4a71d192cb)" d="M 183.80177 72.290748 
L 183.80177 71.624935 
L 179.391802 71.624935 
L 179.391802 66.702547 
L 177.593036 66.702547 
L 177.593036 71.624935 
L 173.183068 71.624935 
L 173.183068 72.290748 
L 183.80177 72.290748 
z
" style="fill:none;opacity:0;"/>
   </g>
   <g id="patch_55">
    <path clip-path="url(#p4a71d192cb)" d="M 189.837104 110.154803 
Q 191.47523 110.154803 192.670277 108.425503 
Q 194.402083 105.942228 194.78946 99.716747 
L 193.232354 99.716747 
Q 192.946252 103.196099 192.052498 104.787055 
Q 191.158745 106.378011 189.796594 106.378011 
Q 188.183787 106.378011 187.079887 103.064672 
Q 185.975988 99.75825 185.975988 93.207661 
Q 185.975988 87.549391 186.884933 83.99395 
Q 187.796409 80.438508 189.852295 80.438508 
Q 191.427124 80.438508 192.460131 82.928701 
Q 193.493138 85.42581 193.515925 91.007991 
L 189.877614 91.007991 
L 189.877614 94.57035 
L 194.979351 94.57035 
L 194.979351 77.581704 
L 193.966599 77.581704 
L 193.586817 81.66977 
Q 192.789275 79.269501 192.171497 78.335679 
Q 191.133426 76.737806 189.53581 76.737806 
Q 187.472329 76.737806 185.983584 80.390088 
Q 184.360649 84.976192 184.360649 92.972476 
Q 184.360649 100.948009 185.943074 105.658622 
Q 187.44701 110.154803 189.837104 110.154803 
z
M 189.57632 110.203223 
L 189.57632 110.203223 
z
" style="fill:none;opacity:0;"/>
   </g>
   <g id="patch_56">
    <path clip-path="url(#p4a71d192cb)" d="M 194.979351 76.737806 
L 194.979351 75.328649 
L 190.569383 75.328649 
L 190.569383 64.910674 
L 188.770617 64.910674 
L 188.770617 75.328649 
L 184.360649 75.328649 
L 184.360649 76.737806 
L 194.979351 76.737806 
z
" style="fill:none;opacity:0;"/>
   </g>
   <g id="patch_57">
    <path clip-path="url(#p4a71d192cb)" d="M 201.014685 76.720693 
Q 202.652811 76.720693 203.847858 76.109535 
Q 205.579664 75.231912 205.967041 73.031743 
L 204.409935 73.031743 
Q 204.123833 74.261393 203.23008 74.823659 
Q 202.336326 75.385924 200.974175 75.385924 
Q 199.361368 75.385924 198.257469 74.214945 
Q 197.153569 73.046411 197.153569 70.731344 
Q 197.153569 68.731634 198.062514 67.475093 
Q 198.97399 66.218552 201.029876 66.218552 
Q 202.604705 66.218552 203.637712 67.09862 
Q 204.670719 67.981132 204.693506 69.953951 
L 201.055195 69.953951 
L 201.055195 71.212936 
L 206.156932 71.212936 
L 206.156932 65.208919 
L 205.14418 65.208919 
L 204.764399 66.653697 
Q 203.966857 65.805409 203.349078 65.475384 
Q 202.311007 64.910674 200.713392 64.910674 
Q 198.64991 64.910674 197.161165 66.20144 
Q 195.53823 67.822231 195.53823 70.648226 
Q 195.53823 73.466888 197.120655 75.131682 
Q 198.624591 76.720693 201.014685 76.720693 
z
M 200.753902 76.737806 
L 200.753902 76.737806 
z
" style="fill:none;opacity:0;"/>
   </g>
   <g id="patch_58">
    <path clip-path="url(#p4a71d192cb)" d="M 206.156932 113.669059 
L 206.156932 109.268842 
L 201.746964 109.268842 
L 201.746964 76.737806 
L 199.948198 76.737806 
L 199.948198 109.268842 
L 195.53823 109.268842 
L 195.53823 113.669059 
L 206.156932 113.669059 
z
" style="fill:none;opacity:0;"/>
   </g>
   <g id="patch_59">
    <path clip-path="url(#p4a71d192cb)" d="M 212.192266 76.732974 
Q 213.830392 76.732974 215.025439 76.12118 
Q 216.757245 75.242644 217.144622 73.040187 
L 215.587517 73.040187 
Q 215.301414 74.271116 214.407661 74.833966 
Q 213.513907 75.396816 212.151756 75.396816 
Q 210.538949 75.396816 209.43505 74.22462 
Q 208.33115 73.05487 208.33115 70.737396 
Q 208.33115 68.735607 209.240095 67.47776 
Q 210.151572 66.219912 212.207458 66.219912 
Q 213.782287 66.219912 214.815293 67.100895 
Q 215.8483 67.984325 215.871087 69.959195 
L 212.232776 69.959195 
L 212.232776 71.21949 
L 217.334513 71.21949 
L 217.334513 65.209229 
L 216.321762 65.209229 
L 215.94198 66.655509 
Q 215.144438 65.806339 214.526659 65.475971 
Q 213.488589 64.910674 211.890973 64.910674 
Q 209.827491 64.910674 208.338746 66.202782 
Q 206.715811 67.825258 206.715811 70.654192 
Q 206.715811 73.475784 208.298236 75.14231 
Q 209.802172 76.732974 212.192266 76.732974 
z
M 211.931483 76.750104 
L 211.931483 76.750104 
z
" style="fill:none;opacity:0;"/>
   </g>
   <g id="patch_60">
    <path clip-path="url(#p4a71d192cb)" d="M 217.334513 103.907217 
L 217.334513 100.671552 
L 212.924545 100.671552 
L 212.924545 76.750104 
L 211.12578 76.750104 
L 211.12578 100.671552 
L 206.715811 100.671552 
L 206.715811 103.907217 
L 217.334513 103.907217 
z
" style="fill:none;opacity:0;"/>
   </g>
   <g id="patch_61">
    <path clip-path="url(#p4a71d192cb)" d="M 225.020908 67.195772 
L 223.214407 69.659451 
L 221.293865 67.195772 
L 225.020908 67.195772 
z
M 222.372064 70.487966 
L 224.194116 70.487966 
L 228.512094 64.910674 
L 226.744471 64.910674 
L 225.539273 66.581067 
L 220.832521 66.581067 
L 219.544384 64.910674 
L 217.893392 64.910674 
L 222.372064 70.487966 
z
M 223.206631 70.487966 
L 223.206631 70.487966 
z
" style="fill:none;opacity:0;"/>
   </g>
   <g id="patch_62">
    <path clip-path="url(#p4a71d192cb)" d="M 228.512094 89.418236 
L 228.512094 87.162768 
L 224.102126 87.162768 
L 224.102126 70.487966 
L 222.303361 70.487966 
L 222.303361 87.162768 
L 217.893392 87.162768 
L 217.893392 89.418236 
L 228.512094 89.418236 
z
" style="fill:none;opacity:0;"/>
   </g>
   <g id="patch_63">
    <path clip-path="url(#p4a71d192cb)" d="M 234.547429 70.479897 
Q 236.185554 70.479897 237.380602 70.191694 
Q 239.112407 69.777836 239.499785 68.740307 
L 237.942679 68.740307 
Q 237.656576 69.32017 236.762823 69.585316 
Q 235.86907 69.850463 234.506918 69.850463 
Q 232.894111 69.850463 231.790212 69.298267 
Q 230.686312 68.747224 230.686312 67.655513 
Q 230.686312 66.712515 231.595257 66.119971 
Q 232.506734 65.527427 234.56262 65.527427 
Q 236.137449 65.527427 237.170456 65.942438 
Q 238.203462 66.358602 238.226249 67.28892 
L 234.587939 67.28892 
L 234.587939 67.882617 
L 239.689676 67.882617 
L 239.689676 65.051316 
L 238.676924 65.051316 
L 238.297142 65.732627 
Q 237.4996 65.332602 236.881821 65.176973 
Q 235.843751 64.910674 234.246135 64.910674 
Q 232.182653 64.910674 230.693908 65.519357 
Q 229.070973 66.28367 229.070973 67.616318 
Q 229.070973 68.945507 230.653398 69.73057 
Q 232.157334 70.479897 234.547429 70.479897 
z
M 234.286645 70.487966 
L 234.286645 70.487966 
z
" style="fill:none;opacity:0;"/>
   </g>
   <g id="patch_64">
    <path clip-path="url(#p4a71d192cb)" d="M 239.689676 100.703807 
L 239.689676 97.103706 
L 235.279707 97.103706 
L 235.279707 70.487966 
L 233.480942 70.487966 
L 233.480942 97.103706 
L 229.070973 97.103706 
L 229.070973 100.703807 
L 239.689676 100.703807 
z
" style="fill:none;opacity:0;"/>
   </g>
   <g id="patch_65">
    <path clip-path="url(#p4a71d192cb)" d="M 250.867257 78.999593 
L 250.867257 77.320952 
L 246.457288 77.320952 
L 246.457288 64.910674 
L 244.658523 64.910674 
L 244.658523 77.320952 
L 240.248555 77.320952 
L 240.248555 78.999593 
L 250.867257 78.999593 
z
" style="fill:none;opacity:0;"/>
   </g>
   <g id="patch_66">
    <path clip-path="url(#p4a71d192cb)" d="M 258.553651 65.644831 
L 256.74715 66.436362 
L 254.826609 65.644831 
L 258.553651 65.644831 
z
M 255.904807 66.702547 
L 257.726859 66.702547 
L 262.044838 64.910674 
L 260.277214 64.910674 
L 259.072016 65.447338 
L 254.365264 65.447338 
L 253.077127 64.910674 
L 251.426136 64.910674 
L 255.904807 66.702547 
z
M 256.739374 66.702547 
L 256.739374 66.702547 
z
" style="fill:none;opacity:0;"/>
   </g>
   <g id="patch_67">
    <path clip-path="url(#p4a71d192cb)" d="M 262.044838 90.97841 
L 262.044838 88.086035 
L 257.634869 88.086035 
L 257.634869 66.702547 
L 255.836104 66.702547 
L 255.836104 88.086035 
L 251.426136 88.086035 
L 251.426136 90.97841 
L 262.044838 90.97841 
z
" style="fill:none;opacity:0;"/>
   </g>
   <g id="patch_68">
    <path clip-path="url(#p4a71d192cb)" d="M 273.222419 83.847991 
L 273.222419 81.591682 
L 268.812451 81.591682 
L 268.812451 64.910674 
L 267.013685 64.910674 
L 267.013685 81.591682 
L 262.603717 81.591682 
L 262.603717 83.847991 
L 273.222419 83.847991 
z
" style="fill:none;opacity:0;"/>
   </g>
   <g id="patch_69">
    <path clip-path="url(#p4a71d192cb)" d="M 279.364461 70.487966 
Q 281.638407 70.487966 282.892728 69.957345 
Q 284.14705 69.427877 284.28526 68.754218 
L 282.704971 68.754218 
Q 282.436375 69.26523 281.633192 69.563993 
Q 280.830009 69.863909 279.380108 69.863909 
Q 277.612063 69.863909 276.524636 69.313678 
Q 275.43721 68.7646 275.43721 67.629532 
Q 275.43721 66.698637 276.417719 66.119568 
Q 277.400836 65.541652 279.348815 65.541652 
Q 281.14033 65.541652 282.079115 66.150713 
Q 282.574585 66.471393 282.819712 66.995093 
L 284.4 66.995093 
Q 284.188773 66.158787 282.999646 65.592407 
Q 281.573214 64.910674 279.153235 64.910674 
Q 277.067046 64.910674 275.648437 65.470133 
Q 273.781298 66.208389 273.781298 67.751805 
Q 273.781298 68.922633 275.18426 69.672424 
Q 276.699355 70.487966 279.364461 70.487966 
z
M 279.038494 70.487966 
L 279.038494 70.487966 
z
" style="fill:none;opacity:0;"/>
   </g>
   <g id="patch_70">
    <path clip-path="url(#p4a71d192cb)" d="M 284.4 141.64 
L 284.4 133.162509 
L 279.990032 133.162509 
L 279.990032 70.487966 
L 278.191266 70.487966 
L 278.191266 133.162509 
L 273.781298 133.162509 
L 273.781298 141.64 
L 284.4 141.64 
z
" style="fill:none;opacity:0;"/>
   </g>
   <g id="matplotlib.axis_1">
    <g id="xtick_1">
     <g id="line2d_2">
      <path clip-path="url(#p4a71d192cb)" d="M 100.249351 141.64 
L 100.249351 28.8 
" style="fill:none;stroke:#cccccc;stroke-linecap:round;stroke-width:0.8;"/>
     </g>
     <g id="text_1">
      <!-- 0 -->
      <g style="fill:#262626;" transform="translate(94.688414 162.986875)scale(0.2 -0.2)">
       <defs>
        <path d="M 1731 4475 
Q 2600 4475 2988 3759 
Q 3288 3206 3288 2244 
Q 3288 1331 3016 734 
Q 2622 -122 1728 -122 
Q 922 -122 528 578 
Q 200 1163 200 2147 
Q 200 2909 397 3456 
Q 766 4475 1731 4475 
z
M 1725 391 
Q 2163 391 2422 778 
Q 2681 1166 2681 2222 
Q 2681 2984 2493 3476 
Q 2306 3969 1766 3969 
Q 1269 3969 1039 3501 
Q 809 3034 809 2125 
Q 809 1441 956 1025 
Q 1181 391 1725 391 
z
" id="Helvetica-30" transform="scale(0.015625)"/>
       </defs>
       <use xlink:href="#Helvetica-30"/>
      </g>
     </g>
    </g>
    <g id="xtick_2">
     <g id="line2d_3">
      <path clip-path="url(#p4a71d192cb)" d="M 212.025162 141.64 
L 212.025162 28.8 
" style="fill:none;stroke:#cccccc;stroke-linecap:round;stroke-width:0.8;"/>
     </g>
     <g id="text_2">
      <!-- 10 -->
      <g style="fill:#262626;" transform="translate(200.903287 162.986875)scale(0.2 -0.2)">
       <defs>
        <path d="M 613 3169 
L 613 3600 
Q 1222 3659 1462 3798 
Q 1703 3938 1822 4456 
L 2266 4456 
L 2266 0 
L 1666 0 
L 1666 3169 
L 613 3169 
z
" id="Helvetica-31" transform="scale(0.015625)"/>
       </defs>
       <use xlink:href="#Helvetica-31"/>
       <use x="55.615234" xlink:href="#Helvetica-30"/>
      </g>
     </g>
    </g>
    <g id="text_3">
     <!-- Position -->
     <g style="fill:#262626;" transform="translate(145.20125 189.089219)scale(0.25 -0.25)">
      <defs>
       <path d="M 547 4591 
L 2613 4591 
Q 3225 4591 3600 4245 
Q 3975 3900 3975 3275 
Q 3975 2738 3640 2339 
Q 3306 1941 2613 1941 
L 1169 1941 
L 1169 0 
L 547 0 
L 547 4591 
z
M 3347 3272 
Q 3347 3778 2972 3959 
Q 2766 4056 2406 4056 
L 1169 4056 
L 1169 2466 
L 2406 2466 
Q 2825 2466 3086 2644 
Q 3347 2822 3347 3272 
z
" id="Helvetica-50" transform="scale(0.015625)"/>
       <path d="M 1741 363 
Q 2300 363 2508 786 
Q 2716 1209 2716 1728 
Q 2716 2197 2566 2491 
Q 2328 2953 1747 2953 
Q 1231 2953 997 2559 
Q 763 2166 763 1609 
Q 763 1075 997 719 
Q 1231 363 1741 363 
z
M 1763 3444 
Q 2409 3444 2856 3012 
Q 3303 2581 3303 1744 
Q 3303 934 2909 406 
Q 2516 -122 1688 -122 
Q 997 -122 590 345 
Q 184 813 184 1600 
Q 184 2444 612 2944 
Q 1041 3444 1763 3444 
z
M 1744 3428 
L 1744 3428 
z
" id="Helvetica-6f" transform="scale(0.015625)"/>
       <path d="M 747 1050 
Q 772 769 888 619 
Q 1100 347 1625 347 
Q 1938 347 2175 483 
Q 2413 619 2413 903 
Q 2413 1119 2222 1231 
Q 2100 1300 1741 1391 
L 1294 1503 
Q 866 1609 663 1741 
Q 300 1969 300 2372 
Q 300 2847 642 3140 
Q 984 3434 1563 3434 
Q 2319 3434 2653 2991 
Q 2863 2709 2856 2384 
L 2325 2384 
Q 2309 2575 2191 2731 
Q 1997 2953 1519 2953 
Q 1200 2953 1036 2831 
Q 872 2709 872 2509 
Q 872 2291 1088 2159 
Q 1213 2081 1456 2022 
L 1828 1931 
Q 2434 1784 2641 1647 
Q 2969 1431 2969 969 
Q 2969 522 2630 197 
Q 2291 -128 1597 -128 
Q 850 -128 539 211 
Q 228 550 206 1050 
L 747 1050 
z
M 1578 3428 
L 1578 3428 
z
" id="Helvetica-73" transform="scale(0.015625)"/>
       <path d="M 413 3331 
L 984 3331 
L 984 0 
L 413 0 
L 413 3331 
z
M 413 4591 
L 984 4591 
L 984 3953 
L 413 3953 
L 413 4591 
z
" id="Helvetica-69" transform="scale(0.015625)"/>
       <path d="M 525 4281 
L 1094 4281 
L 1094 3347 
L 1628 3347 
L 1628 2888 
L 1094 2888 
L 1094 703 
Q 1094 528 1213 469 
Q 1278 434 1431 434 
Q 1472 434 1519 436 
Q 1566 438 1628 444 
L 1628 0 
Q 1531 -28 1426 -40 
Q 1322 -53 1200 -53 
Q 806 -53 665 148 
Q 525 350 525 672 
L 525 2888 
L 72 2888 
L 72 3347 
L 525 3347 
L 525 4281 
z
" id="Helvetica-74" transform="scale(0.015625)"/>
       <path d="M 413 3347 
L 947 3347 
L 947 2872 
Q 1184 3166 1450 3294 
Q 1716 3422 2041 3422 
Q 2753 3422 3003 2925 
Q 3141 2653 3141 2147 
L 3141 0 
L 2569 0 
L 2569 2109 
Q 2569 2416 2478 2603 
Q 2328 2916 1934 2916 
Q 1734 2916 1606 2875 
Q 1375 2806 1200 2600 
Q 1059 2434 1017 2257 
Q 975 2081 975 1753 
L 975 0 
L 413 0 
L 413 3347 
z
M 1734 3428 
L 1734 3428 
z
" id="Helvetica-6e" transform="scale(0.015625)"/>
      </defs>
      <use xlink:href="#Helvetica-50"/>
      <use x="66.699219" xlink:href="#Helvetica-6f"/>
      <use x="122.314453" xlink:href="#Helvetica-73"/>
      <use x="172.314453" xlink:href="#Helvetica-69"/>
      <use x="194.53125" xlink:href="#Helvetica-74"/>
      <use x="222.314453" xlink:href="#Helvetica-69"/>
      <use x="244.53125" xlink:href="#Helvetica-6f"/>
      <use x="300.146484" xlink:href="#Helvetica-6e"/>
     </g>
    </g>
   </g>
   <g id="matplotlib.axis_2">
    <g id="ytick_1">
     <g id="line2d_4">
      <path clip-path="url(#p4a71d192cb)" d="M 94.94 64.910674 
L 284.4 64.910674 
" style="fill:none;stroke:#cccccc;stroke-linecap:round;stroke-width:0.8;"/>
     </g>
     <g id="text_4">
      <!-- 0 -->
      <g style="fill:#262626;" transform="translate(76.818125 72.084111)scale(0.2 -0.2)">
       <use xlink:href="#Helvetica-30"/>
      </g>
     </g>
    </g>
    <g id="ytick_2">
     <g id="line2d_5">
      <path clip-path="url(#p4a71d192cb)" d="M 94.94 55.883005 
L 284.4 55.883005 
" style="fill:none;stroke:#cccccc;stroke-linecap:round;stroke-width:0.8;"/>
     </g>
     <g id="text_5">
      <!-- 0.25 -->
      <g style="fill:#262626;" transform="translate(49.018125 63.056443)scale(0.2 -0.2)">
       <defs>
        <path d="M 547 681 
L 1200 681 
L 1200 0 
L 547 0 
L 547 681 
z
" id="Helvetica-2e" transform="scale(0.015625)"/>
        <path d="M 200 0 
Q 231 578 439 1006 
Q 647 1434 1250 1784 
L 1850 2131 
Q 2253 2366 2416 2531 
Q 2672 2791 2672 3125 
Q 2672 3516 2437 3745 
Q 2203 3975 1813 3975 
Q 1234 3975 1013 3538 
Q 894 3303 881 2888 
L 309 2888 
Q 319 3472 525 3841 
Q 891 4491 1816 4491 
Q 2584 4491 2939 4075 
Q 3294 3659 3294 3150 
Q 3294 2613 2916 2231 
Q 2697 2009 2131 1694 
L 1703 1456 
Q 1397 1288 1222 1134 
Q 909 863 828 531 
L 3272 531 
L 3272 0 
L 200 0 
z
" id="Helvetica-32" transform="scale(0.015625)"/>
        <path d="M 791 1141 
Q 847 659 1238 475 
Q 1438 381 1700 381 
Q 2200 381 2440 700 
Q 2681 1019 2681 1406 
Q 2681 1875 2395 2131 
Q 2109 2388 1709 2388 
Q 1419 2388 1211 2275 
Q 1003 2163 856 1963 
L 369 1991 
L 709 4400 
L 3034 4400 
L 3034 3856 
L 1131 3856 
L 941 2613 
Q 1097 2731 1238 2791 
Q 1488 2894 1816 2894 
Q 2431 2894 2859 2497 
Q 3288 2100 3288 1491 
Q 3288 856 2895 371 
Q 2503 -113 1644 -113 
Q 1097 -113 676 195 
Q 256 503 206 1141 
L 791 1141 
z
" id="Helvetica-35" transform="scale(0.015625)"/>
       </defs>
       <use xlink:href="#Helvetica-30"/>
       <use x="55.615234" xlink:href="#Helvetica-2e"/>
       <use x="83.398438" xlink:href="#Helvetica-32"/>
       <use x="139.013672" xlink:href="#Helvetica-35"/>
      </g>
     </g>
    </g>
    <g id="ytick_3">
     <g id="line2d_6">
      <path clip-path="url(#p4a71d192cb)" d="M 94.94 46.855337 
L 284.4 46.855337 
" style="fill:none;stroke:#cccccc;stroke-linecap:round;stroke-width:0.8;"/>
     </g>
     <g id="text_6">
      <!-- 0.50 -->
      <g style="fill:#262626;" transform="translate(49.018125 54.028774)scale(0.2 -0.2)">
       <use xlink:href="#Helvetica-30"/>
       <use x="55.615234" xlink:href="#Helvetica-2e"/>
       <use x="83.398438" xlink:href="#Helvetica-35"/>
       <use x="139.013672" xlink:href="#Helvetica-30"/>
      </g>
     </g>
    </g>
    <g id="ytick_4">
     <g id="line2d_7">
      <path clip-path="url(#p4a71d192cb)" d="M 94.94 37.827668 
L 284.4 37.827668 
" style="fill:none;stroke:#cccccc;stroke-linecap:round;stroke-width:0.8;"/>
     </g>
     <g id="text_7">
      <!-- 0.75 -->
      <g style="fill:#262626;" transform="translate(49.018125 45.001106)scale(0.2 -0.2)">
       <defs>
        <path d="M 3347 4400 
L 3347 3909 
Q 3131 3700 2773 3181 
Q 2416 2663 2141 2063 
Q 1869 1478 1728 997 
Q 1638 688 1494 0 
L 872 0 
Q 1084 1281 1809 2550 
Q 2238 3294 2709 3834 
L 234 3834 
L 234 4400 
L 3347 4400 
z
" id="Helvetica-37" transform="scale(0.015625)"/>
       </defs>
       <use xlink:href="#Helvetica-30"/>
       <use x="55.615234" xlink:href="#Helvetica-2e"/>
       <use x="83.398438" xlink:href="#Helvetica-37"/>
       <use x="139.013672" xlink:href="#Helvetica-35"/>
      </g>
     </g>
    </g>
    <g id="ytick_5">
     <g id="line2d_8">
      <path clip-path="url(#p4a71d192cb)" d="M 94.94 28.8 
L 284.4 28.8 
" style="fill:none;stroke:#cccccc;stroke-linecap:round;stroke-width:0.8;"/>
     </g>
     <g id="text_8">
      <!-- 1.0 -->
      <g style="fill:#262626;" transform="translate(60.14 35.973437)scale(0.2 -0.2)">
       <use xlink:href="#Helvetica-31"/>
       <use x="55.615234" xlink:href="#Helvetica-2e"/>
       <use x="83.398438" xlink:href="#Helvetica-30"/>
      </g>
     </g>
    </g>
    <g id="text_9">
     <!-- Probability -->
     <g style="fill:#262626;" transform="translate(39.65875 143.579375)rotate(-90)scale(0.25 -0.25)">
      <defs>
       <path d="M 428 3347 
L 963 3347 
L 963 2769 
Q 1028 2938 1284 3180 
Q 1541 3422 1875 3422 
Q 1891 3422 1928 3419 
Q 1966 3416 2056 3406 
L 2056 2813 
Q 2006 2822 1964 2825 
Q 1922 2828 1872 2828 
Q 1447 2828 1219 2554 
Q 991 2281 991 1925 
L 991 0 
L 428 0 
L 428 3347 
z
" id="Helvetica-72" transform="scale(0.015625)"/>
       <path d="M 369 4606 
L 916 4606 
L 916 2941 
Q 1100 3181 1356 3307 
Q 1613 3434 1913 3434 
Q 2538 3434 2927 3004 
Q 3316 2575 3316 1738 
Q 3316 944 2931 419 
Q 2547 -106 1866 -106 
Q 1484 -106 1222 78 
Q 1066 188 888 428 
L 888 0 
L 369 0 
L 369 4606 
z
M 1831 391 
Q 2288 391 2514 753 
Q 2741 1116 2741 1709 
Q 2741 2238 2514 2584 
Q 2288 2931 1847 2931 
Q 1463 2931 1173 2647 
Q 884 2363 884 1709 
Q 884 1238 1003 944 
Q 1225 391 1831 391 
z
" id="Helvetica-62" transform="scale(0.015625)"/>
       <path d="M 844 891 
Q 844 647 1022 506 
Q 1200 366 1444 366 
Q 1741 366 2019 503 
Q 2488 731 2488 1250 
L 2488 1703 
Q 2384 1638 2221 1594 
Q 2059 1550 1903 1531 
L 1563 1488 
Q 1256 1447 1103 1359 
Q 844 1213 844 891 
z
M 2206 2028 
Q 2400 2053 2466 2191 
Q 2503 2266 2503 2406 
Q 2503 2694 2298 2823 
Q 2094 2953 1713 2953 
Q 1272 2953 1088 2716 
Q 984 2584 953 2325 
L 428 2325 
Q 444 2944 830 3186 
Q 1216 3428 1725 3428 
Q 2316 3428 2684 3203 
Q 3050 2978 3050 2503 
L 3050 575 
Q 3050 488 3086 434 
Q 3122 381 3238 381 
Q 3275 381 3322 386 
Q 3369 391 3422 400 
L 3422 -16 
Q 3291 -53 3222 -62 
Q 3153 -72 3034 -72 
Q 2744 -72 2613 134 
Q 2544 244 2516 444 
Q 2344 219 2022 53 
Q 1700 -113 1313 -113 
Q 847 -113 551 170 
Q 256 453 256 878 
Q 256 1344 547 1600 
Q 838 1856 1309 1916 
L 2206 2028 
z
M 1741 3428 
L 1741 3428 
z
" id="Helvetica-61" transform="scale(0.015625)"/>
       <path d="M 428 4591 
L 991 4591 
L 991 0 
L 428 0 
L 428 4591 
z
" id="Helvetica-6c" transform="scale(0.015625)"/>
       <path d="M 2503 3347 
L 3125 3347 
Q 3006 3025 2597 1878 
Q 2291 1016 2084 472 
Q 1597 -809 1397 -1090 
Q 1197 -1372 709 -1372 
Q 591 -1372 527 -1362 
Q 463 -1353 369 -1328 
L 369 -816 
Q 516 -856 581 -865 
Q 647 -875 697 -875 
Q 853 -875 926 -823 
Q 1000 -772 1050 -697 
Q 1066 -672 1162 -440 
Q 1259 -209 1303 -97 
L 66 3347 
L 703 3347 
L 1600 622 
L 2503 3347 
z
M 1597 3428 
L 1597 3428 
z
" id="Helvetica-79" transform="scale(0.015625)"/>
      </defs>
      <use xlink:href="#Helvetica-50"/>
      <use x="66.699219" xlink:href="#Helvetica-72"/>
      <use x="100" xlink:href="#Helvetica-6f"/>
      <use x="155.615234" xlink:href="#Helvetica-62"/>
      <use x="211.230469" xlink:href="#Helvetica-61"/>
      <use x="266.845703" xlink:href="#Helvetica-62"/>
      <use x="322.460938" xlink:href="#Helvetica-69"/>
      <use x="344.677734" xlink:href="#Helvetica-6c"/>
      <use x="366.894531" xlink:href="#Helvetica-69"/>
      <use x="389.111328" xlink:href="#Helvetica-74"/>
      <use x="416.894531" xlink:href="#Helvetica-79"/>
     </g>
    </g>
   </g>
   <g id="patch_71">
    <path d="M 94.94 141.64 
L 94.94 28.8 
" style="fill:none;stroke:#000000;stroke-linecap:square;stroke-linejoin:miter;"/>
   </g>
  </g>
 </g>
 <defs>
  <clipPath id="p4a71d192cb">
   <rect height="112.84" width="189.46" x="94.94" y="28.8"/>
  </clipPath>
 </defs>
</svg>
