<?xml version="1.0" encoding="utf-8" standalone="no"?>
<!DOCTYPE svg PUBLIC "-//W3C//DTD SVG 1.1//EN"
  "http://www.w3.org/Graphics/SVG/1.1/DTD/svg11.dtd">
<svg height="144pt" version="1.1" viewBox="0 0 144 144" width="144pt" xmlns="http://www.w3.org/2000/svg" xmlns:xlink="http://www.w3.org/1999/xlink">
 <metadata>
  <rdf:RDF xmlns:cc="http://creativecommons.org/ns#" xmlns:dc="http://purl.org/dc/elements/1.1/" xmlns:rdf="http://www.w3.org/1999/02/22-rdf-syntax-ns#">
   <cc:Work>
    <dc:type rdf:resource="http://purl.org/dc/dcmitype/StillImage"/>
    <dc:date>2022-12-30T20:16:54.408689</dc:date>
    <dc:format>image/svg+xml</dc:format>
    <dc:creator>
     <cc:Agent>
      <dc:title>Matplotlib v3.4.2, https://matplotlib.org/</dc:title>
     </cc:Agent>
    </dc:creator>
   </cc:Work>
  </rdf:RDF>
 </metadata>
 <defs>
  <style type="text/css">*{stroke-linecap:butt;stroke-linejoin:round;}</style>
 </defs>
 <g id="figure_1">
  <g id="patch_1">
   <path d="M 0 144 
L 144 144 
L 144 0 
L 0 0 
z
" style="fill:#ffffff;"/>
  </g>
  <g id="axes_1">
   <g id="patch_2">
    <path d="M 18 128.16 
L 129.6 128.16 
L 129.6 17.28 
L 18 17.28 
z
" style="fill:#ffffff;"/>
   </g>
   <g id="matplotlib.axis_1">
    <g id="xtick_1">
     <g id="text_1">
      <!-- Original -->
      <g style="fill:#262626;" transform="translate(51.08125 204.0725)rotate(-90)scale(0.2 -0.2)">
       <defs>
        <path d="M 309 2231 
Q 309 3372 921 4017 
Q 1534 4663 2503 4663 
Q 3138 4663 3647 4359 
Q 4156 4056 4423 3514 
Q 4691 2972 4691 2284 
Q 4691 1588 4409 1038 
Q 4128 488 3612 205 
Q 3097 -78 2500 -78 
Q 1853 -78 1343 234 
Q 834 547 571 1087 
Q 309 1628 309 2231 
z
M 934 2222 
Q 934 1394 1379 917 
Q 1825 441 2497 441 
Q 3181 441 3623 922 
Q 4066 1403 4066 2288 
Q 4066 2847 3877 3264 
Q 3688 3681 3323 3911 
Q 2959 4141 2506 4141 
Q 1863 4141 1398 3698 
Q 934 3256 934 2222 
z
" id="ArialMT-4f" transform="scale(0.015625)"/>
        <path d="M 416 0 
L 416 3319 
L 922 3319 
L 922 2816 
Q 1116 3169 1280 3281 
Q 1444 3394 1641 3394 
Q 1925 3394 2219 3213 
L 2025 2691 
Q 1819 2813 1613 2813 
Q 1428 2813 1281 2702 
Q 1134 2591 1072 2394 
Q 978 2094 978 1738 
L 978 0 
L 416 0 
z
" id="ArialMT-72" transform="scale(0.015625)"/>
        <path d="M 425 3934 
L 425 4581 
L 988 4581 
L 988 3934 
L 425 3934 
z
M 425 0 
L 425 3319 
L 988 3319 
L 988 0 
L 425 0 
z
" id="ArialMT-69" transform="scale(0.015625)"/>
        <path d="M 319 -275 
L 866 -356 
Q 900 -609 1056 -725 
Q 1266 -881 1628 -881 
Q 2019 -881 2231 -725 
Q 2444 -569 2519 -288 
Q 2563 -116 2559 434 
Q 2191 0 1641 0 
Q 956 0 581 494 
Q 206 988 206 1678 
Q 206 2153 378 2554 
Q 550 2956 876 3175 
Q 1203 3394 1644 3394 
Q 2231 3394 2613 2919 
L 2613 3319 
L 3131 3319 
L 3131 450 
Q 3131 -325 2973 -648 
Q 2816 -972 2473 -1159 
Q 2131 -1347 1631 -1347 
Q 1038 -1347 672 -1080 
Q 306 -813 319 -275 
z
M 784 1719 
Q 784 1066 1043 766 
Q 1303 466 1694 466 
Q 2081 466 2343 764 
Q 2606 1063 2606 1700 
Q 2606 2309 2336 2618 
Q 2066 2928 1684 2928 
Q 1309 2928 1046 2623 
Q 784 2319 784 1719 
z
" id="ArialMT-67" transform="scale(0.015625)"/>
        <path d="M 422 0 
L 422 3319 
L 928 3319 
L 928 2847 
Q 1294 3394 1984 3394 
Q 2284 3394 2536 3286 
Q 2788 3178 2913 3003 
Q 3038 2828 3088 2588 
Q 3119 2431 3119 2041 
L 3119 0 
L 2556 0 
L 2556 2019 
Q 2556 2363 2490 2533 
Q 2425 2703 2258 2804 
Q 2091 2906 1866 2906 
Q 1506 2906 1245 2678 
Q 984 2450 984 1813 
L 984 0 
L 422 0 
z
" id="ArialMT-6e" transform="scale(0.015625)"/>
        <path d="M 2588 409 
Q 2275 144 1986 34 
Q 1697 -75 1366 -75 
Q 819 -75 525 192 
Q 231 459 231 875 
Q 231 1119 342 1320 
Q 453 1522 633 1644 
Q 813 1766 1038 1828 
Q 1203 1872 1538 1913 
Q 2219 1994 2541 2106 
Q 2544 2222 2544 2253 
Q 2544 2597 2384 2738 
Q 2169 2928 1744 2928 
Q 1347 2928 1158 2789 
Q 969 2650 878 2297 
L 328 2372 
Q 403 2725 575 2942 
Q 747 3159 1072 3276 
Q 1397 3394 1825 3394 
Q 2250 3394 2515 3294 
Q 2781 3194 2906 3042 
Q 3031 2891 3081 2659 
Q 3109 2516 3109 2141 
L 3109 1391 
Q 3109 606 3145 398 
Q 3181 191 3288 0 
L 2700 0 
Q 2613 175 2588 409 
z
M 2541 1666 
Q 2234 1541 1622 1453 
Q 1275 1403 1131 1340 
Q 988 1278 909 1158 
Q 831 1038 831 891 
Q 831 666 1001 516 
Q 1172 366 1500 366 
Q 1825 366 2078 508 
Q 2331 650 2450 897 
Q 2541 1088 2541 1459 
L 2541 1666 
z
" id="ArialMT-61" transform="scale(0.015625)"/>
        <path d="M 409 0 
L 409 4581 
L 972 4581 
L 972 0 
L 409 0 
z
" id="ArialMT-6c" transform="scale(0.015625)"/>
       </defs>
       <use xlink:href="#ArialMT-4f"/>
       <use x="77.783203" xlink:href="#ArialMT-72"/>
       <use x="111.083984" xlink:href="#ArialMT-69"/>
       <use x="133.300781" xlink:href="#ArialMT-67"/>
       <use x="188.916016" xlink:href="#ArialMT-69"/>
       <use x="211.132812" xlink:href="#ArialMT-6e"/>
       <use x="266.748047" xlink:href="#ArialMT-61"/>
       <use x="322.363281" xlink:href="#ArialMT-6c"/>
      </g>
     </g>
    </g>
    <g id="xtick_2">
     <g id="text_2">
      <!-- Mutated -->
      <g style="fill:#262626;" transform="translate(106.870312 207.419375)rotate(-90)scale(0.2 -0.2)">
       <defs>
        <path d="M 475 0 
L 475 4581 
L 1388 4581 
L 2472 1338 
Q 2622 884 2691 659 
Q 2769 909 2934 1394 
L 4031 4581 
L 4847 4581 
L 4847 0 
L 4263 0 
L 4263 3834 
L 2931 0 
L 2384 0 
L 1059 3900 
L 1059 0 
L 475 0 
z
" id="ArialMT-4d" transform="scale(0.015625)"/>
        <path d="M 2597 0 
L 2597 488 
Q 2209 -75 1544 -75 
Q 1250 -75 995 37 
Q 741 150 617 320 
Q 494 491 444 738 
Q 409 903 409 1263 
L 409 3319 
L 972 3319 
L 972 1478 
Q 972 1038 1006 884 
Q 1059 663 1231 536 
Q 1403 409 1656 409 
Q 1909 409 2131 539 
Q 2353 669 2445 892 
Q 2538 1116 2538 1541 
L 2538 3319 
L 3100 3319 
L 3100 0 
L 2597 0 
z
" id="ArialMT-75" transform="scale(0.015625)"/>
        <path d="M 1650 503 
L 1731 6 
Q 1494 -44 1306 -44 
Q 1000 -44 831 53 
Q 663 150 594 308 
Q 525 466 525 972 
L 525 2881 
L 113 2881 
L 113 3319 
L 525 3319 
L 525 4141 
L 1084 4478 
L 1084 3319 
L 1650 3319 
L 1650 2881 
L 1084 2881 
L 1084 941 
Q 1084 700 1114 631 
Q 1144 563 1211 522 
Q 1278 481 1403 481 
Q 1497 481 1650 503 
z
" id="ArialMT-74" transform="scale(0.015625)"/>
        <path d="M 2694 1069 
L 3275 997 
Q 3138 488 2766 206 
Q 2394 -75 1816 -75 
Q 1088 -75 661 373 
Q 234 822 234 1631 
Q 234 2469 665 2931 
Q 1097 3394 1784 3394 
Q 2450 3394 2872 2941 
Q 3294 2488 3294 1666 
Q 3294 1616 3291 1516 
L 816 1516 
Q 847 969 1125 678 
Q 1403 388 1819 388 
Q 2128 388 2347 550 
Q 2566 713 2694 1069 
z
M 847 1978 
L 2700 1978 
Q 2663 2397 2488 2606 
Q 2219 2931 1791 2931 
Q 1403 2931 1139 2672 
Q 875 2413 847 1978 
z
" id="ArialMT-65" transform="scale(0.015625)"/>
        <path d="M 2575 0 
L 2575 419 
Q 2259 -75 1647 -75 
Q 1250 -75 917 144 
Q 584 363 401 755 
Q 219 1147 219 1656 
Q 219 2153 384 2558 
Q 550 2963 881 3178 
Q 1213 3394 1622 3394 
Q 1922 3394 2156 3267 
Q 2391 3141 2538 2938 
L 2538 4581 
L 3097 4581 
L 3097 0 
L 2575 0 
z
M 797 1656 
Q 797 1019 1065 703 
Q 1334 388 1700 388 
Q 2069 388 2326 689 
Q 2584 991 2584 1609 
Q 2584 2291 2321 2609 
Q 2059 2928 1675 2928 
Q 1300 2928 1048 2622 
Q 797 2316 797 1656 
z
" id="ArialMT-64" transform="scale(0.015625)"/>
       </defs>
       <use xlink:href="#ArialMT-4d"/>
       <use x="83.300781" xlink:href="#ArialMT-75"/>
       <use x="138.916016" xlink:href="#ArialMT-74"/>
       <use x="166.699219" xlink:href="#ArialMT-61"/>
       <use x="222.314453" xlink:href="#ArialMT-74"/>
       <use x="250.097656" xlink:href="#ArialMT-65"/>
       <use x="305.712891" xlink:href="#ArialMT-64"/>
      </g>
     </g>
    </g>
    <g id="text_3">
     <!-- Method -->
     <g style="fill:#262626;" transform="translate(40.448437 225.735)scale(0.2 -0.2)">
      <defs>
       <path d="M 422 0 
L 422 4581 
L 984 4581 
L 984 2938 
Q 1378 3394 1978 3394 
Q 2347 3394 2619 3248 
Q 2891 3103 3008 2847 
Q 3125 2591 3125 2103 
L 3125 0 
L 2563 0 
L 2563 2103 
Q 2563 2525 2380 2717 
Q 2197 2909 1863 2909 
Q 1613 2909 1392 2779 
Q 1172 2650 1078 2428 
Q 984 2206 984 1816 
L 984 0 
L 422 0 
z
" id="ArialMT-68" transform="scale(0.015625)"/>
       <path d="M 213 1659 
Q 213 2581 725 3025 
Q 1153 3394 1769 3394 
Q 2453 3394 2887 2945 
Q 3322 2497 3322 1706 
Q 3322 1066 3130 698 
Q 2938 331 2570 128 
Q 2203 -75 1769 -75 
Q 1072 -75 642 372 
Q 213 819 213 1659 
z
M 791 1659 
Q 791 1022 1069 705 
Q 1347 388 1769 388 
Q 2188 388 2466 706 
Q 2744 1025 2744 1678 
Q 2744 2294 2464 2611 
Q 2184 2928 1769 2928 
Q 1347 2928 1069 2612 
Q 791 2297 791 1659 
z
" id="ArialMT-6f" transform="scale(0.015625)"/>
      </defs>
      <use xlink:href="#ArialMT-4d"/>
      <use x="83.300781" xlink:href="#ArialMT-65"/>
      <use x="138.916016" xlink:href="#ArialMT-74"/>
      <use x="166.699219" xlink:href="#ArialMT-68"/>
      <use x="222.314453" xlink:href="#ArialMT-6f"/>
      <use x="277.929688" xlink:href="#ArialMT-64"/>
     </g>
    </g>
   </g>
   <g id="matplotlib.axis_2">
    <g id="ytick_1">
     <g id="text_4">
      <!-- −1 -->
      <g style="fill:#262626;" transform="translate(-11.803125 128.384036)scale(0.2 -0.2)">
       <defs>
        <path d="M 3381 1997 
L 356 1997 
L 356 2522 
L 3381 2522 
L 3381 1997 
z
" id="ArialMT-2212" transform="scale(0.015625)"/>
        <path d="M 2384 0 
L 1822 0 
L 1822 3584 
Q 1619 3391 1289 3197 
Q 959 3003 697 2906 
L 697 3450 
Q 1169 3672 1522 3987 
Q 1875 4303 2022 4600 
L 2384 4600 
L 2384 0 
z
" id="ArialMT-31" transform="scale(0.015625)"/>
       </defs>
       <use xlink:href="#ArialMT-2212"/>
       <use x="58.398438" xlink:href="#ArialMT-31"/>
      </g>
     </g>
    </g>
    <g id="ytick_2">
     <g id="text_5">
      <!-- 0 -->
      <g style="fill:#262626;" transform="translate(-0.121875 85.130066)scale(0.2 -0.2)">
       <defs>
        <path d="M 266 2259 
Q 266 3072 433 3567 
Q 600 4063 929 4331 
Q 1259 4600 1759 4600 
Q 2128 4600 2406 4451 
Q 2684 4303 2865 4023 
Q 3047 3744 3150 3342 
Q 3253 2941 3253 2259 
Q 3253 1453 3087 958 
Q 2922 463 2592 192 
Q 2263 -78 1759 -78 
Q 1097 -78 719 397 
Q 266 969 266 2259 
z
M 844 2259 
Q 844 1131 1108 757 
Q 1372 384 1759 384 
Q 2147 384 2411 759 
Q 2675 1134 2675 2259 
Q 2675 3391 2411 3762 
Q 2147 4134 1753 4134 
Q 1366 4134 1134 3806 
Q 844 3388 844 2259 
z
" id="ArialMT-30" transform="scale(0.015625)"/>
       </defs>
       <use xlink:href="#ArialMT-30"/>
      </g>
     </g>
    </g>
    <g id="ytick_3">
     <g id="text_6">
      <!-- 1 -->
      <g style="fill:#262626;" transform="translate(-0.121875 41.876097)scale(0.2 -0.2)">
       <use xlink:href="#ArialMT-31"/>
      </g>
     </g>
    </g>
    <g id="text_7">
     <!-- Predictions -->
     <g style="fill:#262626;" transform="translate(-19.778125 122.185625)rotate(-90)scale(0.2 -0.2)">
      <defs>
       <path d="M 494 0 
L 494 4581 
L 2222 4581 
Q 2678 4581 2919 4538 
Q 3256 4481 3484 4323 
Q 3713 4166 3852 3881 
Q 3991 3597 3991 3256 
Q 3991 2672 3619 2267 
Q 3247 1863 2275 1863 
L 1100 1863 
L 1100 0 
L 494 0 
z
M 1100 2403 
L 2284 2403 
Q 2872 2403 3119 2622 
Q 3366 2841 3366 3238 
Q 3366 3525 3220 3729 
Q 3075 3934 2838 4000 
Q 2684 4041 2272 4041 
L 1100 4041 
L 1100 2403 
z
" id="ArialMT-50" transform="scale(0.015625)"/>
       <path d="M 2588 1216 
L 3141 1144 
Q 3050 572 2676 248 
Q 2303 -75 1759 -75 
Q 1078 -75 664 370 
Q 250 816 250 1647 
Q 250 2184 428 2587 
Q 606 2991 970 3192 
Q 1334 3394 1763 3394 
Q 2303 3394 2647 3120 
Q 2991 2847 3088 2344 
L 2541 2259 
Q 2463 2594 2264 2762 
Q 2066 2931 1784 2931 
Q 1359 2931 1093 2626 
Q 828 2322 828 1663 
Q 828 994 1084 691 
Q 1341 388 1753 388 
Q 2084 388 2306 591 
Q 2528 794 2588 1216 
z
" id="ArialMT-63" transform="scale(0.015625)"/>
       <path d="M 197 991 
L 753 1078 
Q 800 744 1014 566 
Q 1228 388 1613 388 
Q 2000 388 2187 545 
Q 2375 703 2375 916 
Q 2375 1106 2209 1216 
Q 2094 1291 1634 1406 
Q 1016 1563 777 1677 
Q 538 1791 414 1992 
Q 291 2194 291 2438 
Q 291 2659 392 2848 
Q 494 3038 669 3163 
Q 800 3259 1026 3326 
Q 1253 3394 1513 3394 
Q 1903 3394 2198 3281 
Q 2494 3169 2634 2976 
Q 2775 2784 2828 2463 
L 2278 2388 
Q 2241 2644 2061 2787 
Q 1881 2931 1553 2931 
Q 1166 2931 1000 2803 
Q 834 2675 834 2503 
Q 834 2394 903 2306 
Q 972 2216 1119 2156 
Q 1203 2125 1616 2013 
Q 2213 1853 2448 1751 
Q 2684 1650 2818 1456 
Q 2953 1263 2953 975 
Q 2953 694 2789 445 
Q 2625 197 2315 61 
Q 2006 -75 1616 -75 
Q 969 -75 630 194 
Q 291 463 197 991 
z
" id="ArialMT-73" transform="scale(0.015625)"/>
      </defs>
      <use xlink:href="#ArialMT-50"/>
      <use x="66.699219" xlink:href="#ArialMT-72"/>
      <use x="100" xlink:href="#ArialMT-65"/>
      <use x="155.615234" xlink:href="#ArialMT-64"/>
      <use x="211.230469" xlink:href="#ArialMT-69"/>
      <use x="233.447266" xlink:href="#ArialMT-63"/>
      <use x="283.447266" xlink:href="#ArialMT-74"/>
      <use x="311.230469" xlink:href="#ArialMT-69"/>
      <use x="333.447266" xlink:href="#ArialMT-6f"/>
      <use x="389.0625" xlink:href="#ArialMT-6e"/>
      <use x="444.677734" xlink:href="#ArialMT-73"/>
     </g>
    </g>
   </g>
   <g id="PolyCollection_1">
    <defs>
     <path d="M 46.272309 -20.88 
L 45.527691 -20.88 
L 45.39218 -21.898182 
L 45.218657 -22.916364 
L 45.000591 -23.934545 
L 44.731636 -24.952727 
L 44.406046 -25.970909 
L 44.019147 -26.989091 
L 43.5678 -28.007273 
L 43.050814 -29.025455 
L 42.469267 -30.043636 
L 41.826686 -31.061818 
L 41.129048 -32.08 
L 40.384606 -33.098182 
L 39.60353 -34.116364 
L 38.797423 -35.134545 
L 37.978733 -36.152727 
L 37.160146 -37.170909 
L 36.35401 -38.189091 
L 35.571843 -39.207273 
L 34.823959 -40.225455 
L 34.119219 -41.243636 
L 33.464903 -42.261818 
L 32.866663 -43.28 
L 32.328529 -44.298182 
L 31.852923 -45.316364 
L 31.440666 -46.334545 
L 31.090967 -47.352727 
L 30.801405 -48.370909 
L 30.56794 -49.389091 
L 30.384977 -50.407273 
L 30.245537 -51.425455 
L 30.141538 -52.443636 
L 30.064205 -53.461818 
L 30.004579 -54.48 
L 29.954085 -55.498182 
L 29.905095 -56.516364 
L 29.851428 -57.534545 
L 29.788722 -58.552727 
L 29.714638 -59.570909 
L 29.628871 -60.589091 
L 29.532982 -61.607273 
L 29.43008 -62.625455 
L 29.32441 -63.643636 
L 29.220899 -64.661818 
L 29.124732 -65.68 
L 29.040992 -66.698182 
L 28.974407 -67.716364 
L 28.929211 -68.734545 
L 28.909097 -69.752727 
L 28.917258 -70.770909 
L 28.956452 -71.789091 
L 29.029079 -72.807273 
L 29.137214 -73.825455 
L 29.282597 -74.843636 
L 29.466551 -75.861818 
L 29.689848 -76.88 
L 29.952549 -77.898182 
L 30.253831 -78.916364 
L 30.591856 -79.934545 
L 30.963705 -80.952727 
L 31.365398 -81.970909 
L 31.792025 -82.989091 
L 32.237972 -84.007273 
L 32.69724 -85.025455 
L 33.163813 -86.043636 
L 33.632047 -87.061818 
L 34.097037 -88.08 
L 34.554919 -89.098182 
L 35.003083 -90.116364 
L 35.440273 -91.134545 
L 35.866565 -92.152727 
L 36.283241 -93.170909 
L 36.692555 -94.189091 
L 37.097436 -95.207273 
L 37.501149 -96.225455 
L 37.906941 -97.243636 
L 38.317708 -98.261818 
L 38.735701 -99.28 
L 39.162292 -100.298182 
L 39.59782 -101.316364 
L 40.041514 -102.334545 
L 40.491493 -103.352727 
L 40.944855 -104.370909 
L 41.39783 -105.389091 
L 41.845991 -106.407273 
L 42.284512 -107.425455 
L 42.708441 -108.443636 
L 43.112991 -109.461818 
L 43.493804 -110.48 
L 43.847181 -111.498182 
L 44.170268 -112.516364 
L 44.461172 -113.534545 
L 44.719011 -114.552727 
L 44.943892 -115.570909 
L 45.136831 -116.589091 
L 45.299618 -117.607273 
L 45.43465 -118.625455 
L 45.544746 -119.643636 
L 45.632959 -120.661818 
L 45.702402 -121.68 
L 46.097598 -121.68 
L 46.097598 -121.68 
L 46.167041 -120.661818 
L 46.255254 -119.643636 
L 46.36535 -118.625455 
L 46.500382 -117.607273 
L 46.663169 -116.589091 
L 46.856108 -115.570909 
L 47.080989 -114.552727 
L 47.338828 -113.534545 
L 47.629732 -112.516364 
L 47.952819 -111.498182 
L 48.306196 -110.48 
L 48.687009 -109.461818 
L 49.091559 -108.443636 
L 49.515488 -107.425455 
L 49.954009 -106.407273 
L 50.40217 -105.389091 
L 50.855145 -104.370909 
L 51.308507 -103.352727 
L 51.758486 -102.334545 
L 52.20218 -101.316364 
L 52.637708 -100.298182 
L 53.064299 -99.28 
L 53.482292 -98.261818 
L 53.893059 -97.243636 
L 54.298851 -96.225455 
L 54.702564 -95.207273 
L 55.107445 -94.189091 
L 55.516759 -93.170909 
L 55.933435 -92.152727 
L 56.359727 -91.134545 
L 56.796917 -90.116364 
L 57.245081 -89.098182 
L 57.702963 -88.08 
L 58.167953 -87.061818 
L 58.636187 -86.043636 
L 59.10276 -85.025455 
L 59.562028 -84.007273 
L 60.007975 -82.989091 
L 60.434602 -81.970909 
L 60.836295 -80.952727 
L 61.208144 -79.934545 
L 61.546169 -78.916364 
L 61.847451 -77.898182 
L 62.110152 -76.88 
L 62.333449 -75.861818 
L 62.517403 -74.843636 
L 62.662786 -73.825455 
L 62.770921 -72.807273 
L 62.843548 -71.789091 
L 62.882742 -70.770909 
L 62.890903 -69.752727 
L 62.870789 -68.734545 
L 62.825593 -67.716364 
L 62.759008 -66.698182 
L 62.675268 -65.68 
L 62.579101 -64.661818 
L 62.47559 -63.643636 
L 62.36992 -62.625455 
L 62.267018 -61.607273 
L 62.171129 -60.589091 
L 62.085362 -59.570909 
L 62.011278 -58.552727 
L 61.948572 -57.534545 
L 61.894905 -56.516364 
L 61.845915 -55.498182 
L 61.795421 -54.48 
L 61.735795 -53.461818 
L 61.658462 -52.443636 
L 61.554463 -51.425455 
L 61.415023 -50.407273 
L 61.23206 -49.389091 
L 60.998595 -48.370909 
L 60.709033 -47.352727 
L 60.359334 -46.334545 
L 59.947077 -45.316364 
L 59.471471 -44.298182 
L 58.933337 -43.28 
L 58.335097 -42.261818 
L 57.680781 -41.243636 
L 56.976041 -40.225455 
L 56.228157 -39.207273 
L 55.44599 -38.189091 
L 54.639854 -37.170909 
L 53.821267 -36.152727 
L 53.002577 -35.134545 
L 52.19647 -34.116364 
L 51.415394 -33.098182 
L 50.670952 -32.08 
L 49.973314 -31.061818 
L 49.330733 -30.043636 
L 48.749186 -29.025455 
L 48.2322 -28.007273 
L 47.780853 -26.989091 
L 47.393954 -25.970909 
L 47.068364 -24.952727 
L 46.799409 -23.934545 
L 46.581343 -22.916364 
L 46.40782 -21.898182 
L 46.272309 -20.88 
z
" id="ma59b8768eb" style="stroke:#262626;stroke-width:0.75;"/>
    </defs>
    <g clip-path="url(#pada12fcaf7)">
     <use style="fill:#7f9dd2;stroke:#262626;stroke-width:0.75;" x="0" xlink:href="#ma59b8768eb" y="144"/>
    </g>
   </g>
   <g id="PolyCollection_2">
    <defs>
     <path d="M 101.701859 -24.097693 
L 101.698141 -24.097693 
L 101.688079 -25.05929 
L 101.643153 -26.020887 
L 101.497716 -26.982484 
L 101.158623 -27.944081 
L 100.593487 -28.905678 
L 99.914687 -29.867275 
L 99.260805 -30.828872 
L 98.540658 -31.790469 
L 97.412163 -32.752067 
L 95.510394 -33.713664 
L 92.671447 -34.675261 
L 89.149657 -35.636858 
L 85.549129 -36.598455 
L 82.405119 -37.560052 
L 80.16244 -38.521649 
L 79.38 -39.483246 
L 80.266631 -40.444843 
L 82.179369 -41.40644 
L 84.142767 -42.368037 
L 85.698981 -43.329634 
L 86.948864 -44.291231 
L 88.029282 -45.252828 
L 88.881544 -46.214425 
L 89.429224 -47.176022 
L 89.709721 -48.137619 
L 89.808083 -49.099216 
L 89.793971 -50.060813 
L 89.709621 -51.02241 
L 89.565606 -51.984007 
L 89.376574 -52.945604 
L 89.179973 -53.907201 
L 88.994551 -54.868798 
L 88.805522 -55.830395 
L 88.588934 -56.791992 
L 88.314815 -57.753589 
L 87.95341 -58.715186 
L 87.517532 -59.676783 
L 87.085525 -60.63838 
L 86.748064 -61.599977 
L 86.534411 -62.561574 
L 86.411347 -63.523171 
L 86.329422 -64.484768 
L 86.249472 -65.446365 
L 86.153866 -66.407962 
L 86.037413 -67.369559 
L 85.889033 -68.331156 
L 85.714658 -69.292753 
L 85.562992 -70.25435 
L 85.488179 -71.215947 
L 85.488622 -72.177544 
L 85.498401 -73.139141 
L 85.455257 -74.100738 
L 85.37835 -75.062335 
L 85.347512 -76.023932 
L 85.411519 -76.985529 
L 85.55695 -77.947126 
L 85.759325 -78.908723 
L 86.027391 -79.87032 
L 86.377247 -80.831917 
L 86.778619 -81.793514 
L 87.166909 -82.755111 
L 87.509528 -83.716708 
L 87.810373 -84.678305 
L 88.056189 -85.639902 
L 88.218999 -86.601499 
L 88.2952 -87.563096 
L 88.324439 -88.524693 
L 88.386347 -89.48629 
L 88.526265 -90.447887 
L 88.69547 -91.409484 
L 88.847167 -92.371081 
L 89.036495 -93.332678 
L 89.355986 -94.294275 
L 89.850795 -95.255872 
L 90.537459 -96.217469 
L 91.413903 -97.179067 
L 92.436605 -98.140664 
L 93.56349 -99.102261 
L 94.787919 -100.063858 
L 96.077749 -101.025455 
L 97.330091 -101.987052 
L 98.422949 -102.948649 
L 99.286189 -103.910246 
L 99.90837 -104.871843 
L 100.311844 -105.83344 
L 100.542859 -106.795037 
L 100.658255 -107.756634 
L 100.713455 -108.718231 
L 100.763245 -109.679828 
L 100.853882 -110.641425 
L 101.004316 -111.603022 
L 101.196726 -112.564619 
L 101.388103 -113.526216 
L 101.537535 -114.487813 
L 101.629302 -115.44941 
L 101.673986 -116.411007 
L 101.691745 -117.372604 
L 101.697756 -118.334201 
L 101.699503 -119.295798 
L 101.700497 -119.295798 
L 101.700497 -119.295798 
L 101.702244 -118.334201 
L 101.708255 -117.372604 
L 101.726014 -116.411007 
L 101.770698 -115.44941 
L 101.862465 -114.487813 
L 102.011897 -113.526216 
L 102.203274 -112.564619 
L 102.395684 -111.603022 
L 102.546118 -110.641425 
L 102.636755 -109.679828 
L 102.686545 -108.718231 
L 102.741745 -107.756634 
L 102.857141 -106.795037 
L 103.088156 -105.83344 
L 103.49163 -104.871843 
L 104.113811 -103.910246 
L 104.977051 -102.948649 
L 106.069909 -101.987052 
L 107.322251 -101.025455 
L 108.612081 -100.063858 
L 109.83651 -99.102261 
L 110.963395 -98.140664 
L 111.986097 -97.179067 
L 112.862541 -96.217469 
L 113.549205 -95.255872 
L 114.044014 -94.294275 
L 114.363505 -93.332678 
L 114.552833 -92.371081 
L 114.70453 -91.409484 
L 114.873735 -90.447887 
L 115.013653 -89.48629 
L 115.075561 -88.524693 
L 115.1048 -87.563096 
L 115.181001 -86.601499 
L 115.343811 -85.639902 
L 115.589627 -84.678305 
L 115.890472 -83.716708 
L 116.233091 -82.755111 
L 116.621381 -81.793514 
L 117.022753 -80.831917 
L 117.372609 -79.87032 
L 117.640675 -78.908723 
L 117.84305 -77.947126 
L 117.988481 -76.985529 
L 118.052488 -76.023932 
L 118.02165 -75.062335 
L 117.944743 -74.100738 
L 117.901599 -73.139141 
L 117.911378 -72.177544 
L 117.911821 -71.215947 
L 117.837008 -70.25435 
L 117.685342 -69.292753 
L 117.510967 -68.331156 
L 117.362587 -67.369559 
L 117.246134 -66.407962 
L 117.150528 -65.446365 
L 117.070578 -64.484768 
L 116.988653 -63.523171 
L 116.865589 -62.561574 
L 116.651936 -61.599977 
L 116.314475 -60.63838 
L 115.882468 -59.676783 
L 115.44659 -58.715186 
L 115.085185 -57.753589 
L 114.811066 -56.791992 
L 114.594478 -55.830395 
L 114.405449 -54.868798 
L 114.220027 -53.907201 
L 114.023426 -52.945604 
L 113.834394 -51.984007 
L 113.690379 -51.02241 
L 113.606029 -50.060813 
L 113.591917 -49.099216 
L 113.690279 -48.137619 
L 113.970776 -47.176022 
L 114.518456 -46.214425 
L 115.370718 -45.252828 
L 116.451136 -44.291231 
L 117.701019 -43.329634 
L 119.257233 -42.368037 
L 121.220631 -41.40644 
L 123.133369 -40.444843 
L 124.02 -39.483246 
L 123.23756 -38.521649 
L 120.994881 -37.560052 
L 117.850871 -36.598455 
L 114.250343 -35.636858 
L 110.728553 -34.675261 
L 107.889606 -33.713664 
L 105.987837 -32.752067 
L 104.859342 -31.790469 
L 104.139195 -30.828872 
L 103.485313 -29.867275 
L 102.806513 -28.905678 
L 102.241377 -27.944081 
L 101.902284 -26.982484 
L 101.756847 -26.020887 
L 101.711921 -25.05929 
L 101.701859 -24.097693 
z
" id="m3984b25c5e" style="stroke:#262626;stroke-width:0.75;"/>
    </defs>
    <g clip-path="url(#pada12fcaf7)">
     <use style="fill:#1a1a66;stroke:#262626;stroke-width:0.75;" x="0" xlink:href="#m3984b25c5e" y="144"/>
    </g>
   </g>
   <g id="line2d_1">
    <path clip-path="url(#pada12fcaf7)" d="M 45.9 108.167673 
L 45.9 37.272327 
" style="fill:none;stroke:#262626;stroke-linecap:round;stroke-width:0.75;"/>
   </g>
   <g id="line2d_2">
    <path clip-path="url(#pada12fcaf7)" d="M 45.9 91.972177 
L 45.9 62.857987 
" style="fill:none;stroke:#262626;stroke-linecap:round;stroke-width:2.25;"/>
   </g>
   <g id="line2d_3">
    <path clip-path="url(#pada12fcaf7)" d="M 101.7 116.908183 
L 101.7 27.698326 
" style="fill:none;stroke:#262626;stroke-linecap:round;stroke-width:0.75;"/>
   </g>
   <g id="line2d_4">
    <path clip-path="url(#pada12fcaf7)" d="M 101.7 95.602357 
L 101.7 61.822922 
" style="fill:none;stroke:#262626;stroke-linecap:round;stroke-width:2.25;"/>
   </g>
   <g id="patch_3">
    <path d="M 18 128.16 
L 18 17.28 
" style="fill:none;stroke:#262626;stroke-linecap:square;stroke-linejoin:miter;stroke-width:0.8;"/>
   </g>
   <g id="patch_4">
    <path d="M 18 128.16 
L 129.6 128.16 
" style="fill:none;stroke:#262626;stroke-linecap:square;stroke-linejoin:miter;stroke-width:0.8;"/>
   </g>
   <g id="PathCollection_1">
    <defs>
     <path d="M 0 0.75 
C 0.198902 0.75 0.389685 0.670975 0.53033 0.53033 
C 0.670975 0.389685 0.75 0.198902 0.75 0 
C 0.75 -0.198902 0.670975 -0.389685 0.53033 -0.53033 
C 0.389685 -0.670975 0.198902 -0.75 0 -0.75 
C -0.198902 -0.75 -0.389685 -0.670975 -0.53033 -0.53033 
C -0.670975 -0.389685 -0.75 -0.198902 -0.75 0 
C -0.75 0.198902 -0.670975 0.389685 -0.53033 0.53033 
C -0.389685 0.670975 -0.198902 0.75 0 0.75 
z
" id="mfa1ca658c8" style="stroke:#262626;"/>
    </defs>
    <g clip-path="url(#pada12fcaf7)">
     <use style="fill:#ffffff;stroke:#262626;" x="45.9" xlink:href="#mfa1ca658c8" y="77.106481"/>
    </g>
   </g>
   <g id="PathCollection_2">
    <g clip-path="url(#pada12fcaf7)">
     <use style="fill:#ffffff;stroke:#262626;" x="101.7" xlink:href="#mfa1ca658c8" y="77.327212"/>
    </g>
   </g>
   <g id="text_8">
    <!-- Random -->
    <g style="fill:#262626;" transform="translate(28.445625 11.28)scale(0.24 -0.24)">
     <defs>
      <path d="M 503 0 
L 503 4581 
L 2534 4581 
Q 3147 4581 3465 4457 
Q 3784 4334 3975 4021 
Q 4166 3709 4166 3331 
Q 4166 2844 3850 2509 
Q 3534 2175 2875 2084 
Q 3116 1969 3241 1856 
Q 3506 1613 3744 1247 
L 4541 0 
L 3778 0 
L 3172 953 
Q 2906 1366 2734 1584 
Q 2563 1803 2427 1890 
Q 2291 1978 2150 2013 
Q 2047 2034 1813 2034 
L 1109 2034 
L 1109 0 
L 503 0 
z
M 1109 2559 
L 2413 2559 
Q 2828 2559 3062 2645 
Q 3297 2731 3419 2920 
Q 3541 3109 3541 3331 
Q 3541 3656 3305 3865 
Q 3069 4075 2559 4075 
L 1109 4075 
L 1109 2559 
z
" id="ArialMT-52" transform="scale(0.015625)"/>
      <path d="M 422 0 
L 422 3319 
L 925 3319 
L 925 2853 
Q 1081 3097 1340 3245 
Q 1600 3394 1931 3394 
Q 2300 3394 2536 3241 
Q 2772 3088 2869 2813 
Q 3263 3394 3894 3394 
Q 4388 3394 4653 3120 
Q 4919 2847 4919 2278 
L 4919 0 
L 4359 0 
L 4359 2091 
Q 4359 2428 4304 2576 
Q 4250 2725 4106 2815 
Q 3963 2906 3769 2906 
Q 3419 2906 3187 2673 
Q 2956 2441 2956 1928 
L 2956 0 
L 2394 0 
L 2394 2156 
Q 2394 2531 2256 2718 
Q 2119 2906 1806 2906 
Q 1569 2906 1367 2781 
Q 1166 2656 1075 2415 
Q 984 2175 984 1722 
L 984 0 
L 422 0 
z
" id="ArialMT-6d" transform="scale(0.015625)"/>
     </defs>
     <use xlink:href="#ArialMT-52"/>
     <use x="72.216797" xlink:href="#ArialMT-61"/>
     <use x="127.832031" xlink:href="#ArialMT-6e"/>
     <use x="183.447266" xlink:href="#ArialMT-64"/>
     <use x="239.0625" xlink:href="#ArialMT-6f"/>
     <use x="294.677734" xlink:href="#ArialMT-6d"/>
    </g>
   </g>
  </g>
 </g>
 <defs>
  <clipPath id="pada12fcaf7">
   <rect height="110.88" width="111.6" x="18" y="17.28"/>
  </clipPath>
 </defs>
</svg>
