<?xml version="1.0" encoding="utf-8" standalone="no"?>
<!DOCTYPE svg PUBLIC "-//W3C//DTD SVG 1.1//EN"
  "http://www.w3.org/Graphics/SVG/1.1/DTD/svg11.dtd">
<svg height="216pt" version="1.1" viewBox="0 0 360 216" width="360pt" xmlns="http://www.w3.org/2000/svg" xmlns:xlink="http://www.w3.org/1999/xlink">
 <metadata>
  <rdf:RDF xmlns:cc="http://creativecommons.org/ns#" xmlns:dc="http://purl.org/dc/elements/1.1/" xmlns:rdf="http://www.w3.org/1999/02/22-rdf-syntax-ns#">
   <cc:Work>
    <dc:type rdf:resource="http://purl.org/dc/dcmitype/StillImage"/>
    <dc:date>2022-01-23T18:02:27.868833</dc:date>
    <dc:format>image/svg+xml</dc:format>
    <dc:creator>
     <cc:Agent>
      <dc:title>Matplotlib v3.4.2, https://matplotlib.org/</dc:title>
     </cc:Agent>
    </dc:creator>
   </cc:Work>
  </rdf:RDF>
 </metadata>
 <defs>
  <style type="text/css">*{stroke-linecap:butt;stroke-linejoin:round;}</style>
 </defs>
 <g id="figure_1">
  <g id="patch_1">
   <path d="M 0 216 
L 360 216 
L 360 0 
L 0 0 
z
" style="fill:#ffffff;"/>
  </g>
  <g id="axes_1">
   <g id="patch_2">
    <path d="M 50.64 139.94 
L 256.54794 139.94 
L 256.54794 21.6 
L 50.64 21.6 
z
" style="fill:#ffffff;"/>
   </g>
   <g id="matplotlib.axis_1">
    <g id="xtick_1">
     <g id="text_1">
      <!-- 0 -->
      <g style="fill:#262626;" transform="translate(45.079062 167.786875)scale(0.2 -0.2)">
       <defs>
        <path d="M 1731 4475 
Q 2600 4475 2988 3759 
Q 3288 3206 3288 2244 
Q 3288 1331 3016 734 
Q 2622 -122 1728 -122 
Q 922 -122 528 578 
Q 200 1163 200 2147 
Q 200 2909 397 3456 
Q 766 4475 1731 4475 
z
M 1725 391 
Q 2163 391 2422 778 
Q 2681 1166 2681 2222 
Q 2681 2984 2493 3476 
Q 2306 3969 1766 3969 
Q 1269 3969 1039 3501 
Q 809 3034 809 2125 
Q 809 1441 956 1025 
Q 1181 391 1725 391 
z
" id="Helvetica-30" transform="scale(0.015625)"/>
       </defs>
       <use xlink:href="#Helvetica-30"/>
      </g>
     </g>
    </g>
    <g id="xtick_2">
     <g id="text_2">
      <!-- 10 -->
      <g style="fill:#262626;" transform="translate(142.472095 167.786875)scale(0.2 -0.2)">
       <defs>
        <path d="M 613 3169 
L 613 3600 
Q 1222 3659 1462 3798 
Q 1703 3938 1822 4456 
L 2266 4456 
L 2266 0 
L 1666 0 
L 1666 3169 
L 613 3169 
z
" id="Helvetica-31" transform="scale(0.015625)"/>
       </defs>
       <use xlink:href="#Helvetica-31"/>
       <use x="55.615234" xlink:href="#Helvetica-30"/>
      </g>
     </g>
    </g>
    <g id="text_3">
     <!-- Position -->
     <g style="fill:#262626;" transform="translate(118.01897 190.3025)scale(0.2 -0.2)">
      <defs>
       <path d="M 547 4591 
L 2613 4591 
Q 3225 4591 3600 4245 
Q 3975 3900 3975 3275 
Q 3975 2738 3640 2339 
Q 3306 1941 2613 1941 
L 1169 1941 
L 1169 0 
L 547 0 
L 547 4591 
z
M 3347 3272 
Q 3347 3778 2972 3959 
Q 2766 4056 2406 4056 
L 1169 4056 
L 1169 2466 
L 2406 2466 
Q 2825 2466 3086 2644 
Q 3347 2822 3347 3272 
z
" id="Helvetica-50" transform="scale(0.015625)"/>
       <path d="M 1741 363 
Q 2300 363 2508 786 
Q 2716 1209 2716 1728 
Q 2716 2197 2566 2491 
Q 2328 2953 1747 2953 
Q 1231 2953 997 2559 
Q 763 2166 763 1609 
Q 763 1075 997 719 
Q 1231 363 1741 363 
z
M 1763 3444 
Q 2409 3444 2856 3012 
Q 3303 2581 3303 1744 
Q 3303 934 2909 406 
Q 2516 -122 1688 -122 
Q 997 -122 590 345 
Q 184 813 184 1600 
Q 184 2444 612 2944 
Q 1041 3444 1763 3444 
z
M 1744 3428 
L 1744 3428 
z
" id="Helvetica-6f" transform="scale(0.015625)"/>
       <path d="M 747 1050 
Q 772 769 888 619 
Q 1100 347 1625 347 
Q 1938 347 2175 483 
Q 2413 619 2413 903 
Q 2413 1119 2222 1231 
Q 2100 1300 1741 1391 
L 1294 1503 
Q 866 1609 663 1741 
Q 300 1969 300 2372 
Q 300 2847 642 3140 
Q 984 3434 1563 3434 
Q 2319 3434 2653 2991 
Q 2863 2709 2856 2384 
L 2325 2384 
Q 2309 2575 2191 2731 
Q 1997 2953 1519 2953 
Q 1200 2953 1036 2831 
Q 872 2709 872 2509 
Q 872 2291 1088 2159 
Q 1213 2081 1456 2022 
L 1828 1931 
Q 2434 1784 2641 1647 
Q 2969 1431 2969 969 
Q 2969 522 2630 197 
Q 2291 -128 1597 -128 
Q 850 -128 539 211 
Q 228 550 206 1050 
L 747 1050 
z
M 1578 3428 
L 1578 3428 
z
" id="Helvetica-73" transform="scale(0.015625)"/>
       <path d="M 413 3331 
L 984 3331 
L 984 0 
L 413 0 
L 413 3331 
z
M 413 4591 
L 984 4591 
L 984 3953 
L 413 3953 
L 413 4591 
z
" id="Helvetica-69" transform="scale(0.015625)"/>
       <path d="M 525 4281 
L 1094 4281 
L 1094 3347 
L 1628 3347 
L 1628 2888 
L 1094 2888 
L 1094 703 
Q 1094 528 1213 469 
Q 1278 434 1431 434 
Q 1472 434 1519 436 
Q 1566 438 1628 444 
L 1628 0 
Q 1531 -28 1426 -40 
Q 1322 -53 1200 -53 
Q 806 -53 665 148 
Q 525 350 525 672 
L 525 2888 
L 72 2888 
L 72 3347 
L 525 3347 
L 525 4281 
z
" id="Helvetica-74" transform="scale(0.015625)"/>
       <path d="M 413 3347 
L 947 3347 
L 947 2872 
Q 1184 3166 1450 3294 
Q 1716 3422 2041 3422 
Q 2753 3422 3003 2925 
Q 3141 2653 3141 2147 
L 3141 0 
L 2569 0 
L 2569 2109 
Q 2569 2416 2478 2603 
Q 2328 2916 1934 2916 
Q 1734 2916 1606 2875 
Q 1375 2806 1200 2600 
Q 1059 2434 1017 2257 
Q 975 2081 975 1753 
L 975 0 
L 413 0 
L 413 3347 
z
M 1734 3428 
L 1734 3428 
z
" id="Helvetica-6e" transform="scale(0.015625)"/>
      </defs>
      <use xlink:href="#Helvetica-50"/>
      <use x="66.699219" xlink:href="#Helvetica-6f"/>
      <use x="122.314453" xlink:href="#Helvetica-73"/>
      <use x="172.314453" xlink:href="#Helvetica-69"/>
      <use x="194.53125" xlink:href="#Helvetica-74"/>
      <use x="222.314453" xlink:href="#Helvetica-69"/>
      <use x="244.53125" xlink:href="#Helvetica-6f"/>
      <use x="300.146484" xlink:href="#Helvetica-6e"/>
     </g>
    </g>
   </g>
   <g id="matplotlib.axis_2">
    <g id="ytick_1">
     <g id="text_4">
      <!-- A -->
      <g style="fill:#262626;" transform="translate(23.799375 43.565937)scale(0.2 -0.2)">
       <defs>
        <path d="M 2844 1881 
L 2147 3909 
L 1406 1881 
L 2844 1881 
z
M 1822 4591 
L 2525 4591 
L 4191 0 
L 3509 0 
L 3044 1375 
L 1228 1375 
L 731 0 
L 94 0 
L 1822 4591 
z
M 2144 4591 
L 2144 4591 
z
" id="Helvetica-41" transform="scale(0.015625)"/>
       </defs>
       <use xlink:href="#Helvetica-41"/>
      </g>
     </g>
    </g>
    <g id="ytick_2">
     <g id="text_5">
      <!-- T -->
      <g style="fill:#262626;" transform="translate(24.924375 73.150937)scale(0.2 -0.2)">
       <defs>
        <path d="M 3828 4591 
L 3828 4044 
L 2281 4044 
L 2281 0 
L 1650 0 
L 1650 4044 
L 103 4044 
L 103 4591 
L 3828 4591 
z
" id="Helvetica-54" transform="scale(0.015625)"/>
       </defs>
       <use xlink:href="#Helvetica-54"/>
      </g>
     </g>
    </g>
    <g id="ytick_3">
     <g id="text_6">
      <!-- C -->
      <g style="fill:#262626;" transform="translate(22.69625 102.735937)scale(0.2 -0.2)">
       <defs>
        <path d="M 2422 4716 
Q 3294 4716 3775 4256 
Q 4256 3797 4309 3213 
L 3703 3213 
Q 3600 3656 3292 3915 
Q 2984 4175 2428 4175 
Q 1750 4175 1333 3698 
Q 916 3222 916 2238 
Q 916 1431 1292 929 
Q 1669 428 2416 428 
Q 3103 428 3463 956 
Q 3653 1234 3747 1688 
L 4353 1688 
Q 4272 963 3816 472 
Q 3269 -119 2341 -119 
Q 1541 -119 997 366 
Q 281 1006 281 2344 
Q 281 3359 819 4009 
Q 1400 4716 2422 4716 
z
M 2297 4716 
L 2297 4716 
z
" id="Helvetica-43" transform="scale(0.015625)"/>
       </defs>
       <use xlink:href="#Helvetica-43"/>
      </g>
     </g>
    </g>
    <g id="ytick_4">
     <g id="text_7">
      <!-- G -->
      <g style="fill:#262626;" transform="translate(21.58375 132.320937)scale(0.2 -0.2)">
       <defs>
        <path d="M 2472 4709 
Q 3119 4709 3591 4459 
Q 4275 4100 4428 3200 
L 3813 3200 
Q 3700 3703 3347 3933 
Q 2994 4163 2456 4163 
Q 1819 4163 1383 3684 
Q 947 3206 947 2259 
Q 947 1441 1306 927 
Q 1666 413 2478 413 
Q 3100 413 3508 773 
Q 3916 1134 3925 1941 
L 2488 1941 
L 2488 2456 
L 4503 2456 
L 4503 0 
L 4103 0 
L 3953 591 
Q 3638 244 3394 109 
Q 2984 -122 2353 -122 
Q 1538 -122 950 406 
Q 309 1069 309 2225 
Q 309 3378 934 4059 
Q 1528 4709 2472 4709 
z
M 2369 4716 
L 2369 4716 
z
" id="Helvetica-47" transform="scale(0.015625)"/>
       </defs>
       <use xlink:href="#Helvetica-47"/>
      </g>
     </g>
    </g>
   </g>
   <g id="QuadMesh_1">
    <path clip-path="url(#p58a4a51659)" d="M 50.64 21.6 
L 60.935397 21.6 
L 60.935397 51.185 
L 50.64 51.185 
L 50.64 21.6 
" style="fill:#7eadd1;"/>
    <path clip-path="url(#p58a4a51659)" d="M 60.935397 21.6 
L 71.230794 21.6 
L 71.230794 51.185 
L 60.935397 51.185 
L 60.935397 21.6 
" style="fill:#a4bcda;"/>
    <path clip-path="url(#p58a4a51659)" d="M 71.230794 21.6 
L 81.526191 21.6 
L 81.526191 51.185 
L 71.230794 51.185 
L 71.230794 21.6 
" style="fill:#b4c4df;"/>
    <path clip-path="url(#p58a4a51659)" d="M 81.526191 21.6 
L 91.821588 21.6 
L 91.821588 51.185 
L 81.526191 51.185 
L 81.526191 21.6 
" style="fill:#1379b5;"/>
    <path clip-path="url(#p58a4a51659)" d="M 91.821588 21.6 
L 102.116985 21.6 
L 102.116985 51.185 
L 91.821588 51.185 
L 91.821588 21.6 
" style="fill:#c4cbe3;"/>
    <path clip-path="url(#p58a4a51659)" d="M 102.116985 21.6 
L 112.412382 21.6 
L 112.412382 51.185 
L 102.116985 51.185 
L 102.116985 21.6 
" style="fill:#91b5d6;"/>
    <path clip-path="url(#p58a4a51659)" d="M 112.412382 21.6 
L 122.707779 21.6 
L 122.707779 51.185 
L 112.412382 51.185 
L 112.412382 21.6 
" style="fill:#d3d4e7;"/>
    <path clip-path="url(#p58a4a51659)" d="M 122.707779 21.6 
L 133.003176 21.6 
L 133.003176 51.185 
L 122.707779 51.185 
L 122.707779 21.6 
" style="fill:#a4bcda;"/>
    <path clip-path="url(#p58a4a51659)" d="M 133.003176 21.6 
L 143.298573 21.6 
L 143.298573 51.185 
L 133.003176 51.185 
L 133.003176 21.6 
" style="fill:#a4bcda;"/>
    <path clip-path="url(#p58a4a51659)" d="M 143.298573 21.6 
L 153.59397 21.6 
L 153.59397 51.185 
L 143.298573 51.185 
L 143.298573 21.6 
" style="fill:#91b5d6;"/>
    <path clip-path="url(#p58a4a51659)" d="M 153.59397 21.6 
L 163.889367 21.6 
L 163.889367 51.185 
L 153.59397 51.185 
L 153.59397 21.6 
" style="fill:#3991c1;"/>
    <path clip-path="url(#p58a4a51659)" d="M 163.889367 21.6 
L 174.184764 21.6 
L 174.184764 51.185 
L 163.889367 51.185 
L 163.889367 21.6 
" style="fill:#a4bcda;"/>
    <path clip-path="url(#p58a4a51659)" d="M 174.184764 21.6 
L 184.480161 21.6 
L 184.480161 51.185 
L 174.184764 51.185 
L 174.184764 21.6 
" style="fill:#3991c1;"/>
    <path clip-path="url(#p58a4a51659)" d="M 184.480161 21.6 
L 194.775558 21.6 
L 194.775558 51.185 
L 184.480161 51.185 
L 184.480161 21.6 
" style="fill:#509ac6;"/>
    <path clip-path="url(#p58a4a51659)" d="M 194.775558 21.6 
L 205.070955 21.6 
L 205.070955 51.185 
L 194.775558 51.185 
L 194.775558 21.6 
" style="fill:#a4bcda;"/>
    <path clip-path="url(#p58a4a51659)" d="M 205.070955 21.6 
L 215.366352 21.6 
L 215.366352 51.185 
L 205.070955 51.185 
L 205.070955 21.6 
" style="fill:#91b5d6;"/>
    <path clip-path="url(#p58a4a51659)" d="M 215.366352 21.6 
L 225.661749 21.6 
L 225.661749 51.185 
L 215.366352 51.185 
L 215.366352 21.6 
" style="fill:#b4c4df;"/>
    <path clip-path="url(#p58a4a51659)" d="M 225.661749 21.6 
L 235.957146 21.6 
L 235.957146 51.185 
L 225.661749 51.185 
L 225.661749 21.6 
" style="fill:#7eadd1;"/>
    <path clip-path="url(#p58a4a51659)" d="M 235.957146 21.6 
L 246.252543 21.6 
L 246.252543 51.185 
L 235.957146 51.185 
L 235.957146 21.6 
" style="fill:#509ac6;"/>
    <path clip-path="url(#p58a4a51659)" d="M 246.252543 21.6 
L 256.54794 21.6 
L 256.54794 51.185 
L 246.252543 51.185 
L 246.252543 21.6 
" style="fill:#045d92;"/>
    <path clip-path="url(#p58a4a51659)" d="M 50.64 51.185 
L 60.935397 51.185 
L 60.935397 80.77 
L 50.64 80.77 
L 50.64 51.185 
" style="fill:#509ac6;"/>
    <path clip-path="url(#p58a4a51659)" d="M 60.935397 51.185 
L 71.230794 51.185 
L 71.230794 80.77 
L 60.935397 80.77 
L 60.935397 51.185 
" style="fill:#dedcec;"/>
    <path clip-path="url(#p58a4a51659)" d="M 71.230794 51.185 
L 81.526191 51.185 
L 81.526191 80.77 
L 71.230794 80.77 
L 71.230794 51.185 
" style="fill:#e8e4f0;"/>
    <path clip-path="url(#p58a4a51659)" d="M 81.526191 51.185 
L 91.821588 51.185 
L 91.821588 80.77 
L 81.526191 80.77 
L 81.526191 51.185 
" style="fill:#dedcec;"/>
    <path clip-path="url(#p58a4a51659)" d="M 91.821588 51.185 
L 102.116985 51.185 
L 102.116985 80.77 
L 91.821588 80.77 
L 91.821588 51.185 
" style="fill:#d3d4e7;"/>
    <path clip-path="url(#p58a4a51659)" d="M 102.116985 51.185 
L 112.412382 51.185 
L 112.412382 80.77 
L 102.116985 80.77 
L 102.116985 51.185 
" style="fill:#f8f1f8;"/>
    <path clip-path="url(#p58a4a51659)" d="M 112.412382 51.185 
L 122.707779 51.185 
L 122.707779 80.77 
L 112.412382 80.77 
L 112.412382 51.185 
" style="fill:#f1ebf4;"/>
    <path clip-path="url(#p58a4a51659)" d="M 122.707779 51.185 
L 133.003176 51.185 
L 133.003176 80.77 
L 122.707779 80.77 
L 122.707779 51.185 
" style="fill:#e8e4f0;"/>
    <path clip-path="url(#p58a4a51659)" d="M 133.003176 51.185 
L 143.298573 51.185 
L 143.298573 80.77 
L 133.003176 80.77 
L 133.003176 51.185 
" style="fill:#d3d4e7;"/>
    <path clip-path="url(#p58a4a51659)" d="M 143.298573 51.185 
L 153.59397 51.185 
L 153.59397 80.77 
L 143.298573 80.77 
L 143.298573 51.185 
" style="fill:#e8e4f0;"/>
    <path clip-path="url(#p58a4a51659)" d="M 153.59397 51.185 
L 163.889367 51.185 
L 163.889367 80.77 
L 153.59397 80.77 
L 153.59397 51.185 
" style="fill:#c4cbe3;"/>
    <path clip-path="url(#p58a4a51659)" d="M 163.889367 51.185 
L 174.184764 51.185 
L 174.184764 80.77 
L 163.889367 80.77 
L 163.889367 51.185 
" style="fill:#c4cbe3;"/>
    <path clip-path="url(#p58a4a51659)" d="M 174.184764 51.185 
L 184.480161 51.185 
L 184.480161 80.77 
L 174.184764 80.77 
L 174.184764 51.185 
" style="fill:#d3d4e7;"/>
    <path clip-path="url(#p58a4a51659)" d="M 184.480161 51.185 
L 194.775558 51.185 
L 194.775558 80.77 
L 184.480161 80.77 
L 184.480161 51.185 
" style="fill:#f8f1f8;"/>
    <path clip-path="url(#p58a4a51659)" d="M 194.775558 51.185 
L 205.070955 51.185 
L 205.070955 80.77 
L 194.775558 80.77 
L 194.775558 51.185 
" style="fill:#dedcec;"/>
    <path clip-path="url(#p58a4a51659)" d="M 205.070955 51.185 
L 215.366352 51.185 
L 215.366352 80.77 
L 205.070955 80.77 
L 205.070955 51.185 
" style="fill:#dedcec;"/>
    <path clip-path="url(#p58a4a51659)" d="M 215.366352 51.185 
L 225.661749 51.185 
L 225.661749 80.77 
L 215.366352 80.77 
L 215.366352 51.185 
" style="fill:#dedcec;"/>
    <path clip-path="url(#p58a4a51659)" d="M 225.661749 51.185 
L 235.957146 51.185 
L 235.957146 80.77 
L 225.661749 80.77 
L 225.661749 51.185 
" style="fill:#dedcec;"/>
    <path clip-path="url(#p58a4a51659)" d="M 235.957146 51.185 
L 246.252543 51.185 
L 246.252543 80.77 
L 235.957146 80.77 
L 235.957146 51.185 
" style="fill:#c4cbe3;"/>
    <path clip-path="url(#p58a4a51659)" d="M 246.252543 51.185 
L 256.54794 51.185 
L 256.54794 80.77 
L 246.252543 80.77 
L 246.252543 51.185 
" style="fill:#056dac;"/>
    <path clip-path="url(#p58a4a51659)" d="M 50.64 80.77 
L 60.935397 80.77 
L 60.935397 110.355 
L 50.64 110.355 
L 50.64 80.77 
" style="fill:#a4bcda;"/>
    <path clip-path="url(#p58a4a51659)" d="M 60.935397 80.77 
L 71.230794 80.77 
L 71.230794 110.355 
L 60.935397 110.355 
L 60.935397 80.77 
" style="fill:#d3d4e7;"/>
    <path clip-path="url(#p58a4a51659)" d="M 71.230794 80.77 
L 81.526191 80.77 
L 81.526191 110.355 
L 71.230794 110.355 
L 71.230794 80.77 
" style="fill:#e8e4f0;"/>
    <path clip-path="url(#p58a4a51659)" d="M 81.526191 80.77 
L 91.821588 80.77 
L 91.821588 110.355 
L 81.526191 110.355 
L 81.526191 80.77 
" style="fill:#d3d4e7;"/>
    <path clip-path="url(#p58a4a51659)" d="M 91.821588 80.77 
L 102.116985 80.77 
L 102.116985 110.355 
L 91.821588 110.355 
L 91.821588 80.77 
" style="fill:#b4c4df;"/>
    <path clip-path="url(#p58a4a51659)" d="M 102.116985 80.77 
L 112.412382 80.77 
L 112.412382 110.355 
L 102.116985 110.355 
L 102.116985 80.77 
" style="fill:#dedcec;"/>
    <path clip-path="url(#p58a4a51659)" d="M 112.412382 80.77 
L 122.707779 80.77 
L 122.707779 110.355 
L 112.412382 110.355 
L 112.412382 80.77 
" style="fill:#f1ebf4;"/>
    <path clip-path="url(#p58a4a51659)" d="M 122.707779 80.77 
L 133.003176 80.77 
L 133.003176 110.355 
L 122.707779 110.355 
L 122.707779 80.77 
" style="fill:#c4cbe3;"/>
    <path clip-path="url(#p58a4a51659)" d="M 133.003176 80.77 
L 143.298573 80.77 
L 143.298573 110.355 
L 133.003176 110.355 
L 133.003176 80.77 
" style="fill:#f1ebf4;"/>
    <path clip-path="url(#p58a4a51659)" d="M 143.298573 80.77 
L 153.59397 80.77 
L 153.59397 110.355 
L 143.298573 110.355 
L 143.298573 80.77 
" style="fill:#d3d4e7;"/>
    <path clip-path="url(#p58a4a51659)" d="M 153.59397 80.77 
L 163.889367 80.77 
L 163.889367 110.355 
L 153.59397 110.355 
L 153.59397 80.77 
" style="fill:#d3d4e7;"/>
    <path clip-path="url(#p58a4a51659)" d="M 163.889367 80.77 
L 174.184764 80.77 
L 174.184764 110.355 
L 163.889367 110.355 
L 163.889367 80.77 
" style="fill:#d3d4e7;"/>
    <path clip-path="url(#p58a4a51659)" d="M 174.184764 80.77 
L 184.480161 80.77 
L 184.480161 110.355 
L 174.184764 110.355 
L 174.184764 80.77 
" style="fill:#dedcec;"/>
    <path clip-path="url(#p58a4a51659)" d="M 184.480161 80.77 
L 194.775558 80.77 
L 194.775558 110.355 
L 184.480161 110.355 
L 184.480161 80.77 
" style="fill:#f8f1f8;"/>
    <path clip-path="url(#p58a4a51659)" d="M 194.775558 80.77 
L 205.070955 80.77 
L 205.070955 110.355 
L 194.775558 110.355 
L 194.775558 80.77 
" style="fill:#e8e4f0;"/>
    <path clip-path="url(#p58a4a51659)" d="M 205.070955 80.77 
L 215.366352 80.77 
L 215.366352 110.355 
L 205.070955 110.355 
L 205.070955 80.77 
" style="fill:#c4cbe3;"/>
    <path clip-path="url(#p58a4a51659)" d="M 215.366352 80.77 
L 225.661749 80.77 
L 225.661749 110.355 
L 215.366352 110.355 
L 215.366352 80.77 
" style="fill:#e8e4f0;"/>
    <path clip-path="url(#p58a4a51659)" d="M 225.661749 80.77 
L 235.957146 80.77 
L 235.957146 110.355 
L 225.661749 110.355 
L 225.661749 80.77 
" style="fill:#c4cbe3;"/>
    <path clip-path="url(#p58a4a51659)" d="M 235.957146 80.77 
L 246.252543 80.77 
L 246.252543 110.355 
L 235.957146 110.355 
L 235.957146 80.77 
" style="fill:#b4c4df;"/>
    <path clip-path="url(#p58a4a51659)" d="M 246.252543 80.77 
L 256.54794 80.77 
L 256.54794 110.355 
L 246.252543 110.355 
L 246.252543 80.77 
" style="fill:#67a4cc;"/>
    <path clip-path="url(#p58a4a51659)" d="M 50.64 110.355 
L 60.935397 110.355 
L 60.935397 139.94 
L 50.64 139.94 
L 50.64 110.355 
" style="fill:#03456c;"/>
    <path clip-path="url(#p58a4a51659)" d="M 60.935397 110.355 
L 71.230794 110.355 
L 71.230794 139.94 
L 60.935397 139.94 
L 60.935397 110.355 
" style="fill:#056dac;"/>
    <path clip-path="url(#p58a4a51659)" d="M 71.230794 110.355 
L 81.526191 110.355 
L 81.526191 139.94 
L 71.230794 139.94 
L 71.230794 110.355 
" style="fill:#05659f;"/>
    <path clip-path="url(#p58a4a51659)" d="M 81.526191 110.355 
L 91.821588 110.355 
L 91.821588 139.94 
L 81.526191 139.94 
L 81.526191 110.355 
" style="fill:#045d92;"/>
    <path clip-path="url(#p58a4a51659)" d="M 91.821588 110.355 
L 102.116985 110.355 
L 102.116985 139.94 
L 91.821588 139.94 
L 91.821588 110.355 
" style="fill:#1379b5;"/>
    <path clip-path="url(#p58a4a51659)" d="M 102.116985 110.355 
L 112.412382 110.355 
L 112.412382 139.94 
L 102.116985 139.94 
L 102.116985 110.355 
" style="fill:#056dac;"/>
    <path clip-path="url(#p58a4a51659)" d="M 112.412382 110.355 
L 122.707779 110.355 
L 122.707779 139.94 
L 112.412382 139.94 
L 112.412382 110.355 
" style="fill:#1379b5;"/>
    <path clip-path="url(#p58a4a51659)" d="M 122.707779 110.355 
L 133.003176 110.355 
L 133.003176 139.94 
L 122.707779 139.94 
L 122.707779 110.355 
" style="fill:#3991c1;"/>
    <path clip-path="url(#p58a4a51659)" d="M 133.003176 110.355 
L 143.298573 110.355 
L 143.298573 139.94 
L 133.003176 139.94 
L 133.003176 110.355 
" style="fill:#056dac;"/>
    <path clip-path="url(#p58a4a51659)" d="M 143.298573 110.355 
L 153.59397 110.355 
L 153.59397 139.94 
L 143.298573 139.94 
L 143.298573 110.355 
" style="fill:#056dac;"/>
    <path clip-path="url(#p58a4a51659)" d="M 153.59397 110.355 
L 163.889367 110.355 
L 163.889367 139.94 
L 153.59397 139.94 
L 153.59397 110.355 
" style="fill:#2685bb;"/>
    <path clip-path="url(#p58a4a51659)" d="M 163.889367 110.355 
L 174.184764 110.355 
L 174.184764 139.94 
L 163.889367 139.94 
L 163.889367 110.355 
" style="fill:#05659f;"/>
    <path clip-path="url(#p58a4a51659)" d="M 174.184764 110.355 
L 184.480161 110.355 
L 184.480161 139.94 
L 174.184764 139.94 
L 174.184764 110.355 
" style="fill:#509ac6;"/>
    <path clip-path="url(#p58a4a51659)" d="M 184.480161 110.355 
L 194.775558 110.355 
L 194.775558 139.94 
L 184.480161 139.94 
L 184.480161 110.355 
" style="fill:#2685bb;"/>
    <path clip-path="url(#p58a4a51659)" d="M 194.775558 110.355 
L 205.070955 110.355 
L 205.070955 139.94 
L 194.775558 139.94 
L 194.775558 110.355 
" style="fill:#1379b5;"/>
    <path clip-path="url(#p58a4a51659)" d="M 205.070955 110.355 
L 215.366352 110.355 
L 215.366352 139.94 
L 205.070955 139.94 
L 205.070955 110.355 
" style="fill:#67a4cc;"/>
    <path clip-path="url(#p58a4a51659)" d="M 215.366352 110.355 
L 225.661749 110.355 
L 225.661749 139.94 
L 215.366352 139.94 
L 215.366352 110.355 
" style="fill:#05659f;"/>
    <path clip-path="url(#p58a4a51659)" d="M 225.661749 110.355 
L 235.957146 110.355 
L 235.957146 139.94 
L 225.661749 139.94 
L 225.661749 110.355 
" style="fill:#05659f;"/>
    <path clip-path="url(#p58a4a51659)" d="M 235.957146 110.355 
L 246.252543 110.355 
L 246.252543 139.94 
L 235.957146 139.94 
L 235.957146 110.355 
" style="fill:#3991c1;"/>
    <path clip-path="url(#p58a4a51659)" d="M 246.252543 110.355 
L 256.54794 110.355 
L 256.54794 139.94 
L 246.252543 139.94 
L 246.252543 110.355 
" style="fill:#045d92;"/>
   </g>
  </g>
  <g id="axes_2">
   <g id="patch_3">
    <path d="M 264.4242 139.94 
L 270.3412 139.94 
L 270.3412 21.6 
L 264.4242 21.6 
z
" style="fill:#ffffff;"/>
   </g>
   <g id="patch_4">
    <path clip-path="url(#pd5953267f3)" d="M 264.4242 139.94 
L 264.4242 134.023 
L 264.4242 27.517 
L 264.4242 21.6 
L 270.3412 21.6 
L 270.3412 27.517 
L 270.3412 134.023 
L 270.3412 139.94 
L 270.3412 139.94 
z
" style="fill:#ffffff;stroke:#ffffff;stroke-linejoin:miter;stroke-width:0.01;"/>
   </g>
   <g id="matplotlib.axis_3"/>
   <g id="matplotlib.axis_4">
    <g id="ytick_5">
     <g id="line2d_1">
      <defs>
       <path d="M 0 0 
L 10 0 
" id="m807a13e14c" style="stroke:#262626;stroke-width:0.8;"/>
      </defs>
      <g>
       <use style="fill:#262626;stroke:#262626;stroke-width:0.8;" x="270.3412" xlink:href="#m807a13e14c" y="106.247125"/>
      </g>
     </g>
     <g id="text_8">
      <!-- 120 -->
      <g style="fill:#262626;" transform="translate(283.8412 111.627203)scale(0.15 -0.15)">
       <defs>
        <path d="M 200 0 
Q 231 578 439 1006 
Q 647 1434 1250 1784 
L 1850 2131 
Q 2253 2366 2416 2531 
Q 2672 2791 2672 3125 
Q 2672 3516 2437 3745 
Q 2203 3975 1813 3975 
Q 1234 3975 1013 3538 
Q 894 3303 881 2888 
L 309 2888 
Q 319 3472 525 3841 
Q 891 4491 1816 4491 
Q 2584 4491 2939 4075 
Q 3294 3659 3294 3150 
Q 3294 2613 2916 2231 
Q 2697 2009 2131 1694 
L 1703 1456 
Q 1397 1288 1222 1134 
Q 909 863 828 531 
L 3272 531 
L 3272 0 
L 200 0 
z
" id="Helvetica-32" transform="scale(0.015625)"/>
       </defs>
       <use xlink:href="#Helvetica-31"/>
       <use x="55.615234" xlink:href="#Helvetica-32"/>
       <use x="111.230469" xlink:href="#Helvetica-30"/>
      </g>
     </g>
    </g>
    <g id="ytick_6">
     <g id="line2d_2">
      <g>
       <use style="fill:#262626;stroke:#262626;stroke-width:0.8;" x="270.3412" xlink:href="#m807a13e14c" y="62.490144"/>
      </g>
     </g>
     <g id="text_9">
      <!-- 140 -->
      <g style="fill:#262626;" transform="translate(283.8412 67.870222)scale(0.15 -0.15)">
       <defs>
        <path d="M 2116 1584 
L 2116 3613 
L 681 1584 
L 2116 1584 
z
M 2125 0 
L 2125 1094 
L 163 1094 
L 163 1644 
L 2213 4488 
L 2688 4488 
L 2688 1584 
L 3347 1584 
L 3347 1094 
L 2688 1094 
L 2688 0 
L 2125 0 
z
" id="Helvetica-34" transform="scale(0.015625)"/>
       </defs>
       <use xlink:href="#Helvetica-31"/>
       <use x="55.615234" xlink:href="#Helvetica-34"/>
       <use x="111.230469" xlink:href="#Helvetica-30"/>
      </g>
     </g>
    </g>
    <g id="text_10">
     <!-- Activation   -->
     <g style="fill:#262626;" transform="translate(324.518544 31.860625)rotate(-270)scale(0.2 -0.2)">
      <defs>
       <path d="M 1703 3444 
Q 2269 3444 2623 3169 
Q 2978 2894 3050 2222 
L 2503 2222 
Q 2453 2531 2275 2736 
Q 2097 2941 1703 2941 
Q 1166 2941 934 2416 
Q 784 2075 784 1575 
Q 784 1072 996 728 
Q 1209 384 1666 384 
Q 2016 384 2220 598 
Q 2425 813 2503 1184 
L 3050 1184 
Q 2956 519 2581 211 
Q 2206 -97 1622 -97 
Q 966 -97 575 383 
Q 184 863 184 1581 
Q 184 2463 612 2953 
Q 1041 3444 1703 3444 
z
M 1616 3428 
L 1616 3428 
z
" id="Helvetica-63" transform="scale(0.015625)"/>
       <path d="M 688 3347 
L 1581 622 
L 2516 3347 
L 3131 3347 
L 1869 0 
L 1269 0 
L 34 3347 
L 688 3347 
z
" id="Helvetica-76" transform="scale(0.015625)"/>
       <path d="M 844 891 
Q 844 647 1022 506 
Q 1200 366 1444 366 
Q 1741 366 2019 503 
Q 2488 731 2488 1250 
L 2488 1703 
Q 2384 1638 2221 1594 
Q 2059 1550 1903 1531 
L 1563 1488 
Q 1256 1447 1103 1359 
Q 844 1213 844 891 
z
M 2206 2028 
Q 2400 2053 2466 2191 
Q 2503 2266 2503 2406 
Q 2503 2694 2298 2823 
Q 2094 2953 1713 2953 
Q 1272 2953 1088 2716 
Q 984 2584 953 2325 
L 428 2325 
Q 444 2944 830 3186 
Q 1216 3428 1725 3428 
Q 2316 3428 2684 3203 
Q 3050 2978 3050 2503 
L 3050 575 
Q 3050 488 3086 434 
Q 3122 381 3238 381 
Q 3275 381 3322 386 
Q 3369 391 3422 400 
L 3422 -16 
Q 3291 -53 3222 -62 
Q 3153 -72 3034 -72 
Q 2744 -72 2613 134 
Q 2544 244 2516 444 
Q 2344 219 2022 53 
Q 1700 -113 1313 -113 
Q 847 -113 551 170 
Q 256 453 256 878 
Q 256 1344 547 1600 
Q 838 1856 1309 1916 
L 2206 2028 
z
M 1741 3428 
L 1741 3428 
z
" id="Helvetica-61" transform="scale(0.015625)"/>
       <path id="Helvetica-20" transform="scale(0.015625)"/>
      </defs>
      <use xlink:href="#Helvetica-41"/>
      <use x="66.699219" xlink:href="#Helvetica-63"/>
      <use x="116.699219" xlink:href="#Helvetica-74"/>
      <use x="144.482422" xlink:href="#Helvetica-69"/>
      <use x="166.699219" xlink:href="#Helvetica-76"/>
      <use x="216.699219" xlink:href="#Helvetica-61"/>
      <use x="272.314453" xlink:href="#Helvetica-74"/>
      <use x="300.097656" xlink:href="#Helvetica-69"/>
      <use x="322.314453" xlink:href="#Helvetica-6f"/>
      <use x="377.929688" xlink:href="#Helvetica-6e"/>
      <use x="433.544922" xlink:href="#Helvetica-20"/>
      <use x="461.328125" xlink:href="#Helvetica-20"/>
     </g>
    </g>
   </g>
   <g id="QuadMesh_2">
    <path clip-path="url(#pd5953267f3)" d="M 264.4242 139.94 
L 270.3412 139.94 
L 270.3412 134.023 
L 264.4242 134.023 
L 264.4242 139.94 
" style="fill:#f8f1f8;"/>
    <path clip-path="url(#pd5953267f3)" d="M 264.4242 134.023 
L 270.3412 134.023 
L 270.3412 128.106 
L 264.4242 128.106 
L 264.4242 134.023 
" style="fill:#f1ebf4;"/>
    <path clip-path="url(#pd5953267f3)" d="M 264.4242 128.106 
L 270.3412 128.106 
L 270.3412 122.189 
L 264.4242 122.189 
L 264.4242 128.106 
" style="fill:#e8e4f0;"/>
    <path clip-path="url(#pd5953267f3)" d="M 264.4242 122.189 
L 270.3412 122.189 
L 270.3412 116.272 
L 264.4242 116.272 
L 264.4242 122.189 
" style="fill:#dedcec;"/>
    <path clip-path="url(#pd5953267f3)" d="M 264.4242 116.272 
L 270.3412 116.272 
L 270.3412 110.355 
L 264.4242 110.355 
L 264.4242 116.272 
" style="fill:#d3d4e7;"/>
    <path clip-path="url(#pd5953267f3)" d="M 264.4242 110.355 
L 270.3412 110.355 
L 270.3412 104.438 
L 264.4242 104.438 
L 264.4242 110.355 
" style="fill:#c4cbe3;"/>
    <path clip-path="url(#pd5953267f3)" d="M 264.4242 104.438 
L 270.3412 104.438 
L 270.3412 98.521 
L 264.4242 98.521 
L 264.4242 104.438 
" style="fill:#b4c4df;"/>
    <path clip-path="url(#pd5953267f3)" d="M 264.4242 98.521 
L 270.3412 98.521 
L 270.3412 92.604 
L 264.4242 92.604 
L 264.4242 98.521 
" style="fill:#a4bcda;"/>
    <path clip-path="url(#pd5953267f3)" d="M 264.4242 92.604 
L 270.3412 92.604 
L 270.3412 86.687 
L 264.4242 86.687 
L 264.4242 92.604 
" style="fill:#91b5d6;"/>
    <path clip-path="url(#pd5953267f3)" d="M 264.4242 86.687 
L 270.3412 86.687 
L 270.3412 80.77 
L 264.4242 80.77 
L 264.4242 86.687 
" style="fill:#7eadd1;"/>
    <path clip-path="url(#pd5953267f3)" d="M 264.4242 80.77 
L 270.3412 80.77 
L 270.3412 74.853 
L 264.4242 74.853 
L 264.4242 80.77 
" style="fill:#67a4cc;"/>
    <path clip-path="url(#pd5953267f3)" d="M 264.4242 74.853 
L 270.3412 74.853 
L 270.3412 68.936 
L 264.4242 68.936 
L 264.4242 74.853 
" style="fill:#509ac6;"/>
    <path clip-path="url(#pd5953267f3)" d="M 264.4242 68.936 
L 270.3412 68.936 
L 270.3412 63.019 
L 264.4242 63.019 
L 264.4242 68.936 
" style="fill:#3991c1;"/>
    <path clip-path="url(#pd5953267f3)" d="M 264.4242 63.019 
L 270.3412 63.019 
L 270.3412 57.102 
L 264.4242 57.102 
L 264.4242 63.019 
" style="fill:#2685bb;"/>
    <path clip-path="url(#pd5953267f3)" d="M 264.4242 57.102 
L 270.3412 57.102 
L 270.3412 51.185 
L 264.4242 51.185 
L 264.4242 57.102 
" style="fill:#1379b5;"/>
    <path clip-path="url(#pd5953267f3)" d="M 264.4242 51.185 
L 270.3412 51.185 
L 270.3412 45.268 
L 264.4242 45.268 
L 264.4242 51.185 
" style="fill:#056dac;"/>
    <path clip-path="url(#pd5953267f3)" d="M 264.4242 45.268 
L 270.3412 45.268 
L 270.3412 39.351 
L 264.4242 39.351 
L 264.4242 45.268 
" style="fill:#05659f;"/>
    <path clip-path="url(#pd5953267f3)" d="M 264.4242 39.351 
L 270.3412 39.351 
L 270.3412 33.434 
L 264.4242 33.434 
L 264.4242 39.351 
" style="fill:#045d92;"/>
    <path clip-path="url(#pd5953267f3)" d="M 264.4242 33.434 
L 270.3412 33.434 
L 270.3412 27.517 
L 264.4242 27.517 
L 264.4242 33.434 
" style="fill:#045280;"/>
    <path clip-path="url(#pd5953267f3)" d="M 264.4242 27.517 
L 270.3412 27.517 
L 270.3412 21.6 
L 264.4242 21.6 
L 264.4242 27.517 
" style="fill:#03456c;"/>
   </g>
   <g id="LineCollection_1"/>
   <g id="patch_5">
    <path d="M 264.4242 139.94 
L 264.4242 134.023 
L 264.4242 27.517 
L 264.4242 21.6 
L 270.3412 21.6 
L 270.3412 27.517 
L 270.3412 134.023 
L 270.3412 139.94 
z
" style="fill:none;"/>
   </g>
  </g>
 </g>
 <defs>
  <clipPath id="p58a4a51659">
   <rect height="118.34" width="205.90794" x="50.64" y="21.6"/>
  </clipPath>
  <clipPath id="pd5953267f3">
   <rect height="118.34" width="5.917" x="264.4242" y="21.6"/>
  </clipPath>
 </defs>
</svg>
