<?xml version="1.0" encoding="utf-8" standalone="no"?>
<!DOCTYPE svg PUBLIC "-//W3C//DTD SVG 1.1//EN"
  "http://www.w3.org/Graphics/SVG/1.1/DTD/svg11.dtd">
<svg height="216pt" version="1.1" viewBox="0 0 360 216" width="360pt" xmlns="http://www.w3.org/2000/svg" xmlns:xlink="http://www.w3.org/1999/xlink">
 <metadata>
  <rdf:RDF xmlns:cc="http://creativecommons.org/ns#" xmlns:dc="http://purl.org/dc/elements/1.1/" xmlns:rdf="http://www.w3.org/1999/02/22-rdf-syntax-ns#">
   <cc:Work>
    <dc:type rdf:resource="http://purl.org/dc/dcmitype/StillImage"/>
    <dc:date>2022-01-23T18:19:43.055523</dc:date>
    <dc:format>image/svg+xml</dc:format>
    <dc:creator>
     <cc:Agent>
      <dc:title>Matplotlib v3.4.2, https://matplotlib.org/</dc:title>
     </cc:Agent>
    </dc:creator>
   </cc:Work>
  </rdf:RDF>
 </metadata>
 <defs>
  <style type="text/css">*{stroke-linecap:butt;stroke-linejoin:round;}</style>
 </defs>
 <g id="figure_1">
  <g id="patch_1">
   <path d="M 0 216 
L 360 216 
L 360 0 
L 0 0 
z
" style="fill:#ffffff;"/>
  </g>
  <g id="axes_1">
   <g id="patch_2">
    <path d="M 94.94 141.64 
L 338.4 141.64 
L 338.4 28.8 
L 94.94 28.8 
z
" style="fill:#ffffff;"/>
   </g>
   <g id="line2d_1">
    <path clip-path="url(#pbaab1e2be4)" d="M 94.94 141.64 
L 338.4 141.64 
" style="fill:none;stroke:#000000;stroke-linecap:round;stroke-width:0.5;"/>
   </g>
   <g id="patch_3">
    <path clip-path="url(#pbaab1e2be4)" d="M 102.72171 130.300995 
L 100.7494 118.075848 
L 98.652583 130.300995 
L 102.72171 130.300995 
z
M 99.829744 113.96463 
L 101.819032 113.96463 
L 106.533333 141.64 
L 104.603469 141.64 
L 103.287653 133.351254 
L 98.148894 133.351254 
L 96.742527 141.64 
L 94.94 141.64 
L 99.829744 113.96463 
z
M 100.740911 113.96463 
L 100.740911 113.96463 
z
" style="fill:#008000;"/>
   </g>
   <g id="patch_4">
    <path clip-path="url(#pbaab1e2be4)" d="M 100.919108 86.017338 
Q 102.707589 86.017338 104.012322 87.463586 
Q 105.903081 89.540398 106.326013 94.74689 
L 104.62599 94.74689 
Q 104.313627 91.837039 103.337841 90.506491 
Q 102.362055 89.175943 100.87488 89.175943 
Q 99.114042 89.175943 97.908822 91.946954 
Q 96.703602 94.71218 96.703602 100.190566 
Q 96.703602 104.922689 97.695974 107.896175 
Q 98.69111 110.86966 100.935694 110.86966 
Q 102.655068 110.86966 103.782888 108.787063 
Q 104.910709 106.698681 104.935587 102.030193 
L 100.963337 102.030193 
L 100.963337 99.050923 
L 106.533333 99.050923 
L 106.533333 113.258861 
L 105.427627 113.258861 
L 105.012987 109.839932 
Q 104.142243 111.847324 103.467762 112.628297 
Q 102.334413 113.96463 100.590161 113.96463 
Q 98.337283 113.96463 96.711895 110.910155 
Q 94.94 107.074706 94.94 100.387256 
Q 94.94 93.717161 96.667667 89.777582 
Q 98.309641 86.017338 100.919108 86.017338 
z
M 100.634389 85.976843 
L 100.634389 85.976843 
z
" style="fill:#ffa600;"/>
   </g>
   <g id="patch_5">
    <path clip-path="url(#pbaab1e2be4)" d="M 101.035611 57.452225 
Q 103.518269 57.452225 104.887718 60.166046 
Q 106.257166 62.873967 106.408062 66.31934 
L 104.682728 66.31934 
Q 104.389478 63.705812 103.512575 62.177813 
Q 102.635673 60.643914 101.052693 60.643914 
Q 99.122369 60.643914 97.935134 63.458029 
Q 96.747899 66.266244 96.747899 72.07146 
Q 96.747899 76.832446 97.818404 79.794051 
Q 98.891755 82.749756 101.018528 82.749756 
Q 102.974476 82.749756 103.999427 79.634761 
Q 104.540373 77.99467 104.807999 75.316246 
L 106.533333 75.316246 
Q 106.302719 79.593464 105.004448 82.490173 
Q 103.447092 85.976843 100.804997 85.976843 
Q 98.527328 85.976843 96.978513 83.115532 
Q 94.94 79.339781 94.94 71.446102 
Q 94.94 65.457997 96.471732 61.62325 
Q 98.125889 57.452225 101.035611 57.452225 
z
M 100.679725 57.452225 
L 100.679725 57.452225 
z
" style="fill:#0000ff;"/>
   </g>
   <g id="patch_6">
    <path clip-path="url(#pbaab1e2be4)" d="M 106.533333 28.8 
L 106.533333 32.213802 
L 101.718599 32.213802 
L 101.718599 57.452225 
L 99.754735 57.452225 
L 99.754735 32.213802 
L 94.94 32.213802 
L 94.94 28.8 
L 106.533333 28.8 
z
" style="fill:#ff0000;"/>
   </g>
   <g id="patch_7">
    <path clip-path="url(#pbaab1e2be4)" d="M 114.925219 130.397448 
L 112.952909 118.276291 
L 110.856092 130.397448 
L 114.925219 130.397448 
z
M 112.033252 114.200044 
L 114.022541 114.200044 
L 118.736842 141.64 
L 116.806978 141.64 
L 115.491162 133.42176 
L 110.352403 133.42176 
L 108.946036 141.64 
L 107.143509 141.64 
L 112.033252 114.200044 
z
M 112.94442 114.200044 
L 112.94442 114.200044 
z
" style="fill:#008000;"/>
   </g>
   <g id="patch_8">
    <path clip-path="url(#pbaab1e2be4)" d="M 113.122617 86.263736 
Q 114.911097 86.263736 116.215831 87.709415 
Q 118.106589 89.785411 118.529522 94.989856 
L 116.829498 94.989856 
Q 116.517136 92.08115 115.54135 90.751125 
Q 114.565564 89.4211 113.078389 89.4211 
Q 111.317551 89.4211 110.112331 92.191021 
Q 108.907111 94.95516 108.907111 100.431394 
Q 108.907111 105.161656 109.899482 108.133973 
Q 110.894618 111.10629 113.139203 111.10629 
Q 114.858576 111.10629 115.986397 109.024512 
Q 117.114218 106.936951 117.139096 102.270298 
L 113.166845 102.270298 
L 113.166845 99.292198 
L 118.736842 99.292198 
L 118.736842 113.494552 
L 117.631136 113.494552 
L 117.216496 110.076966 
Q 116.345752 112.083569 115.671271 112.864236 
Q 114.537921 114.200044 112.793669 114.200044 
Q 110.540792 114.200044 108.915404 111.146769 
Q 107.143509 107.312827 107.143509 100.628006 
Q 107.143509 93.960533 108.871175 90.022502 
Q 110.51315 86.263736 113.122617 86.263736 
z
M 112.837898 86.223257 
L 112.837898 86.223257 
z
" style="fill:#ffa600;"/>
   </g>
   <g id="patch_9">
    <path clip-path="url(#pbaab1e2be4)" d="M 113.239119 57.872449 
Q 115.721778 57.872449 117.091227 60.569734 
Q 118.460675 63.261155 118.61157 66.685534 
L 116.886236 66.685534 
Q 116.592987 64.087931 115.716084 62.569243 
Q 114.839182 61.04469 113.256202 61.04469 
Q 111.325878 61.04469 110.138643 63.841657 
Q 108.951408 66.632761 108.951408 72.402604 
Q 108.951408 77.13458 110.021913 80.078139 
Q 111.095264 83.015834 113.222037 83.015834 
Q 115.177985 83.015834 116.202936 79.91982 
Q 116.743882 78.289722 117.011508 75.627619 
L 118.736842 75.627619 
Q 118.506228 79.878774 117.207957 82.757832 
Q 115.650601 86.223257 113.008505 86.223257 
Q 110.730837 86.223257 109.182022 83.379381 
Q 107.143509 79.626637 107.143509 71.781056 
Q 107.143509 65.829439 108.675241 62.018058 
Q 110.329398 57.872449 113.239119 57.872449 
z
M 112.883234 57.872449 
L 112.883234 57.872449 
z
" style="fill:#0000ff;"/>
   </g>
   <g id="patch_10">
    <path clip-path="url(#pbaab1e2be4)" d="M 118.736842 28.8 
L 118.736842 32.263871 
L 113.922107 32.263871 
L 113.922107 57.872449 
L 111.958243 57.872449 
L 111.958243 32.263871 
L 107.143509 32.263871 
L 107.143509 28.8 
L 118.736842 28.8 
z
" style="fill:#ff0000;"/>
   </g>
   <g id="patch_11">
    <path clip-path="url(#pbaab1e2be4)" d="M 127.128728 130.379419 
L 125.156418 118.238825 
L 123.059601 130.379419 
L 127.128728 130.379419 
z
M 124.236761 114.156041 
L 126.226049 114.156041 
L 130.940351 141.64 
L 129.010487 141.64 
L 127.69467 133.408581 
L 122.555912 133.408581 
L 121.149545 141.64 
L 119.347018 141.64 
L 124.236761 114.156041 
z
M 125.147929 114.156041 
L 125.147929 114.156041 
z
" style="fill:#008000;"/>
   </g>
   <g id="patch_12">
    <path clip-path="url(#pbaab1e2be4)" d="M 125.326126 86.125265 
Q 127.114606 86.125265 128.41934 87.575833 
Q 130.310098 89.658849 130.733031 94.880893 
L 129.033007 94.880893 
Q 128.720645 91.962351 127.744859 90.627828 
Q 126.769073 89.293305 125.281898 89.293305 
Q 123.52106 89.293305 122.31584 92.072594 
Q 121.11062 94.84608 121.11062 100.340831 
Q 121.11062 105.08709 122.102991 108.069458 
Q 123.098127 111.051826 125.342711 111.051826 
Q 127.062085 111.051826 128.189906 108.963008 
Q 129.317726 106.868387 129.342605 102.185954 
L 125.370354 102.185954 
L 125.370354 99.197784 
L 130.940351 99.197784 
L 130.940351 113.448164 
L 129.834644 113.448164 
L 129.420004 110.019021 
Q 128.54926 112.03241 127.874779 112.815716 
Q 126.74143 114.156041 124.997178 114.156041 
Q 122.744301 114.156041 121.118912 111.092442 
Q 119.347018 107.245535 119.347018 100.538109 
Q 119.347018 93.848089 121.074684 89.896742 
Q 122.716658 86.125265 125.326126 86.125265 
z
M 125.041406 86.084649 
L 125.041406 86.084649 
z
" style="fill:#ffa600;"/>
   </g>
   <g id="patch_13">
    <path clip-path="url(#pbaab1e2be4)" d="M 125.442628 57.509428 
Q 127.925287 57.509428 129.294735 60.228064 
Q 130.664184 62.940789 130.815079 66.392274 
L 129.089745 66.392274 
Q 128.796495 63.77411 127.919593 62.2434 
Q 127.04269 60.70678 125.459711 60.70678 
Q 123.529387 60.70678 122.342152 63.525886 
Q 121.154917 66.339083 121.154917 72.154598 
Q 121.154917 76.92403 122.225421 79.890889 
Q 123.298773 82.851837 125.425546 82.851837 
Q 127.381494 82.851837 128.406445 79.731317 
Q 128.947391 78.088315 129.215017 75.40514 
L 130.940351 75.40514 
Q 130.709737 79.689946 129.411466 82.591794 
Q 127.85411 86.084649 125.212014 86.084649 
Q 122.934346 86.084649 121.385531 83.218262 
Q 119.347018 79.435813 119.347018 71.52813 
Q 119.347018 65.529402 120.87875 61.687853 
Q 122.532907 57.509428 125.442628 57.509428 
z
M 125.086742 57.509428 
L 125.086742 57.509428 
z
" style="fill:#0000ff;"/>
   </g>
   <g id="patch_14">
    <path clip-path="url(#pbaab1e2be4)" d="M 130.940351 28.8 
L 130.940351 32.220618 
L 126.125616 32.220618 
L 126.125616 57.509428 
L 124.161752 57.509428 
L 124.161752 32.220618 
L 119.347018 32.220618 
L 119.347018 28.8 
L 130.940351 28.8 
z
" style="fill:#ff0000;"/>
   </g>
   <g id="patch_15">
    <path clip-path="url(#pbaab1e2be4)" d="M 137.529635 114.050809 
Q 139.318115 114.050809 140.622849 115.478525 
Q 142.513607 117.528726 142.93654 122.668505 
L 141.236516 122.668505 
Q 140.924154 119.79594 139.948368 118.482441 
Q 138.972582 117.168942 137.485406 117.168942 
Q 135.724569 117.168942 134.519348 119.904446 
Q 133.314128 122.63424 133.314128 128.042429 
Q 133.314128 132.713917 134.3065 135.649302 
Q 135.301636 138.584687 137.54622 138.584687 
Q 139.265594 138.584687 140.393415 136.528775 
Q 141.521235 134.467153 141.546114 129.858485 
L 137.573863 129.858485 
L 137.573863 126.917389 
L 143.14386 126.917389 
L 143.14386 140.943274 
L 142.038153 140.943274 
L 141.623513 137.568153 
Q 140.752769 139.549823 140.078288 140.32079 
Q 138.944939 141.64 137.200687 141.64 
Q 134.94781 141.64 133.322421 138.624663 
Q 131.550526 134.838359 131.550526 128.236599 
Q 131.550526 121.651971 133.278193 117.762872 
Q 134.920167 114.050809 137.529635 114.050809 
z
M 137.244915 114.010833 
L 137.244915 114.010833 
z
" style="fill:#ffa600;"/>
   </g>
   <g id="patch_16">
    <path clip-path="url(#pbaab1e2be4)" d="M 139.332237 102.636673 
L 137.359927 90.373623 
L 135.26311 102.636673 
L 139.332237 102.636673 
z
M 136.44027 86.249658 
L 138.429558 86.249658 
L 143.14386 114.010833 
L 141.213996 114.010833 
L 139.898179 105.696388 
L 134.759421 105.696388 
L 133.353053 114.010833 
L 131.550526 114.010833 
L 136.44027 86.249658 
z
M 137.351438 86.249658 
L 137.351438 86.249658 
z
" style="fill:#008000;"/>
   </g>
   <g id="patch_17">
    <path clip-path="url(#pbaab1e2be4)" d="M 137.646137 57.582032 
Q 140.128796 57.582032 141.498244 60.309459 
Q 142.867692 63.030957 143.018588 66.493603 
L 141.293254 66.493603 
Q 141.000004 63.866972 140.123102 62.331312 
Q 139.246199 60.789723 137.66322 60.789723 
Q 135.732895 60.789723 134.545661 63.617946 
Q 133.358426 66.44024 133.358426 72.274561 
Q 133.358426 77.059416 134.42893 80.035869 
Q 135.502281 83.006392 137.629054 83.006392 
Q 139.585002 83.006392 140.609953 79.875781 
Q 141.1509 78.227466 141.418526 75.535615 
L 143.14386 75.535615 
Q 142.913246 79.834277 141.614975 82.745508 
Q 140.057619 86.249658 137.415523 86.249658 
Q 135.137854 86.249658 133.58904 83.374002 
Q 131.550526 79.579321 131.550526 71.646067 
Q 131.550526 65.627941 133.082258 61.773969 
Q 134.736415 57.582032 137.646137 57.582032 
z
M 137.290251 57.582032 
L 137.290251 57.582032 
z
" style="fill:#0000ff;"/>
   </g>
   <g id="patch_18">
    <path clip-path="url(#pbaab1e2be4)" d="M 143.14386 28.8 
L 143.14386 32.229269 
L 138.329125 32.229269 
L 138.329125 57.582032 
L 136.365261 57.582032 
L 136.365261 32.229269 
L 131.550526 32.229269 
L 131.550526 28.8 
L 143.14386 28.8 
z
" style="fill:#ff0000;"/>
   </g>
   <g id="patch_19">
    <path clip-path="url(#pbaab1e2be4)" d="M 151.535745 130.328038 
L 149.563435 118.132047 
L 147.466618 130.328038 
L 151.535745 130.328038 
z
M 148.643779 114.030634 
L 150.633067 114.030634 
L 155.347368 141.64 
L 153.417504 141.64 
L 152.101688 133.371022 
L 146.962929 133.371022 
L 145.556562 141.64 
L 143.754035 141.64 
L 148.643779 114.030634 
z
M 149.554946 114.030634 
L 149.554946 114.030634 
z
" style="fill:#008000;"/>
   </g>
   <g id="patch_20">
    <path clip-path="url(#pbaab1e2be4)" d="M 149.733143 86.133871 
Q 151.521624 86.133871 152.826357 87.577504 
Q 154.717116 89.650561 155.140048 94.84764 
L 153.440025 94.84764 
Q 153.127662 91.94305 152.151876 90.614908 
Q 151.17609 89.286766 149.688915 89.286766 
Q 147.928077 89.286766 146.722857 92.052766 
Q 145.517637 94.812992 145.517637 100.281474 
Q 145.517637 105.005041 146.510009 107.97315 
Q 147.505145 110.94126 149.749729 110.94126 
Q 151.469103 110.94126 152.596923 108.862428 
Q 153.724744 106.777822 153.749622 102.117775 
L 149.777372 102.117775 
L 149.777372 99.143891 
L 155.347368 99.143891 
L 155.347368 113.326141 
L 154.241662 113.326141 
L 153.827022 109.913393 
Q 152.956278 111.917155 152.281797 112.696717 
Q 151.148448 114.030634 149.404196 114.030634 
Q 147.151319 114.030634 145.52593 110.981681 
Q 143.754035 107.153167 143.754035 100.477808 
Q 143.754035 93.819773 145.481702 89.887317 
Q 147.123676 86.133871 149.733143 86.133871 
z
M 149.448424 86.09345 
L 149.448424 86.09345 
z
" style="fill:#ffa600;"/>
   </g>
   <g id="patch_21">
    <path clip-path="url(#pbaab1e2be4)" d="M 155.347368 57.53143 
L 155.347368 60.934484 
L 150.532634 60.934484 
L 150.532634 86.09345 
L 148.56877 86.09345 
L 148.56877 60.934484 
L 143.754035 60.934484 
L 143.754035 57.53143 
L 155.347368 57.53143 
z
" style="fill:#ff0000;"/>
   </g>
   <g id="patch_22">
    <path clip-path="url(#pbaab1e2be4)" d="M 149.849646 28.8 
Q 152.332305 28.8 153.701753 31.533497 
Q 155.071201 34.261051 155.222097 37.731404 
L 153.496763 37.731404 
Q 153.203513 35.098928 152.32661 33.55985 
Q 151.449708 32.01483 149.866728 32.01483 
Q 147.936404 32.01483 146.749169 34.849348 
Q 145.561935 37.677923 145.561935 43.525229 
Q 145.561935 48.320733 146.632439 51.303811 
Q 147.70579 54.280945 149.832563 54.280945 
Q 151.788511 54.280945 152.813462 51.143366 
Q 153.354408 49.491383 153.622034 46.793541 
L 155.347368 46.793541 
Q 155.116754 51.101769 153.818483 54.01948 
Q 152.261127 57.53143 149.619032 57.53143 
Q 147.341363 57.53143 145.792549 54.649373 
Q 143.754035 50.846247 143.754035 42.895336 
Q 143.754035 36.863816 145.285767 33.001266 
Q 146.939924 28.8 149.849646 28.8 
z
M 149.49376 28.8 
L 149.49376 28.8 
z
" style="fill:#0000ff;"/>
   </g>
   <g id="patch_23">
    <path clip-path="url(#pbaab1e2be4)" d="M 161.936652 114.30126 
Q 163.725132 114.30126 165.029866 115.716016 
Q 166.920624 117.747605 167.343557 122.840726 
L 165.643533 122.840726 
Q 165.331171 119.994237 164.355385 118.692662 
Q 163.379599 117.391087 161.892424 117.391087 
Q 160.131586 117.391087 158.926366 120.101759 
Q 157.721146 122.806772 157.721146 128.165866 
Q 157.721146 132.794947 158.713517 135.703685 
Q 159.708653 138.612423 161.953238 138.612423 
Q 163.672611 138.612423 164.800432 136.575174 
Q 165.928253 134.532267 165.953131 129.965436 
L 161.98088 129.965436 
L 161.98088 127.051039 
L 167.550877 127.051039 
L 167.550877 140.949599 
L 166.445171 140.949599 
L 166.030531 137.605117 
Q 165.159787 139.568798 164.485306 140.332766 
Q 163.351957 141.64 161.607704 141.64 
Q 159.354827 141.64 157.729439 138.652036 
Q 155.957544 134.900104 155.957544 128.358273 
Q 155.957544 121.83342 157.68521 117.979625 
Q 159.327185 114.30126 161.936652 114.30126 
z
M 161.651933 114.261647 
L 161.651933 114.261647 
z
" style="fill:#ffa600;"/>
   </g>
   <g id="patch_24">
    <path clip-path="url(#pbaab1e2be4)" d="M 163.739254 102.770302 
L 161.766944 90.380909 
L 159.670127 102.770302 
L 163.739254 102.770302 
z
M 160.847288 86.214456 
L 162.836576 86.214456 
L 167.550877 114.261647 
L 165.621013 114.261647 
L 164.305197 105.861541 
L 159.166438 105.861541 
L 157.760071 114.261647 
L 155.957544 114.261647 
L 160.847288 86.214456 
z
M 161.758455 86.214456 
L 161.758455 86.214456 
z
" style="fill:#008000;"/>
   </g>
   <g id="patch_25">
    <path clip-path="url(#pbaab1e2be4)" d="M 167.550877 57.560031 
L 167.550877 60.974096 
L 162.736143 60.974096 
L 162.736143 86.214456 
L 160.772279 86.214456 
L 160.772279 60.974096 
L 155.957544 60.974096 
L 155.957544 57.560031 
L 167.550877 57.560031 
z
" style="fill:#ff0000;"/>
   </g>
   <g id="patch_26">
    <path clip-path="url(#pbaab1e2be4)" d="M 162.053155 28.8 
Q 164.535813 28.8 165.905262 31.536218 
Q 167.27471 34.266488 167.425605 37.740295 
L 165.700271 37.740295 
Q 165.407022 35.105198 164.530119 33.564588 
Q 163.653217 32.01803 162.070237 32.01803 
Q 160.139913 32.01803 158.952678 34.85537 
Q 157.765443 37.68676 157.765443 43.539888 
Q 157.765443 48.340166 158.835948 51.326213 
Q 159.909299 54.306311 162.036072 54.306311 
Q 163.99202 54.306311 165.016971 51.165609 
Q 165.557917 49.511981 165.825543 46.811453 
L 167.550877 46.811453 
Q 167.320263 51.12397 166.021992 54.044586 
Q 164.464636 57.560031 161.822541 57.560031 
Q 159.544872 57.560031 157.996057 54.675106 
Q 155.957544 50.868194 155.957544 42.909368 
Q 155.957544 36.871843 157.489276 33.005448 
Q 159.143433 28.8 162.053155 28.8 
z
M 161.697269 28.8 
L 161.697269 28.8 
z
" style="fill:#0000ff;"/>
   </g>
   <g id="patch_27">
    <path clip-path="url(#pbaab1e2be4)" d="M 174.140161 114.371562 
Q 175.928641 114.371562 177.233375 115.78268 
Q 179.124133 117.809045 179.547066 122.889069 
L 177.847042 122.889069 
Q 177.53468 120.0499 176.558894 118.751672 
Q 175.583108 117.453443 174.095933 117.453443 
Q 172.335095 117.453443 171.129875 120.157145 
Q 169.924655 122.855202 169.924655 128.200515 
Q 169.924655 132.817692 170.917026 135.71895 
Q 171.912162 138.620208 174.156746 138.620208 
Q 175.87612 138.620208 177.003941 136.588199 
Q 178.131762 134.550545 178.15664 129.995457 
L 174.184389 129.995457 
L 174.184389 127.088555 
L 179.754386 127.088555 
L 179.754386 140.951375 
L 178.648679 140.951375 
L 178.234039 137.615492 
Q 177.363296 139.574124 176.688815 140.336127 
Q 175.555465 141.64 173.811213 141.64 
Q 171.558336 141.64 169.932947 138.65972 
Q 168.161053 134.917435 168.161053 128.392427 
Q 168.161053 121.884353 169.888719 118.040468 
Q 171.530693 114.371562 174.140161 114.371562 
z
M 173.855441 114.332051 
L 173.855441 114.332051 
z
" style="fill:#ffa600;"/>
   </g>
   <g id="patch_28">
    <path clip-path="url(#pbaab1e2be4)" d="M 175.942763 102.941665 
L 173.970453 90.661122 
L 171.873636 102.941665 
L 175.942763 102.941665 
z
M 173.050796 86.531274 
L 175.040084 86.531274 
L 179.754386 114.332051 
L 177.824522 114.332051 
L 176.508705 106.005746 
L 171.369947 106.005746 
L 169.96358 114.332051 
L 168.161053 114.332051 
L 173.050796 86.531274 
z
M 173.961964 86.531274 
L 173.961964 86.531274 
z
" style="fill:#008000;"/>
   </g>
   <g id="patch_29">
    <path clip-path="url(#pbaab1e2be4)" d="M 179.754386 57.920852 
L 179.754386 61.329674 
L 174.939651 61.329674 
L 174.939651 86.531274 
L 172.975787 86.531274 
L 172.975787 61.329674 
L 168.161053 61.329674 
L 168.161053 57.920852 
L 179.754386 57.920852 
z
" style="fill:#ff0000;"/>
   </g>
   <g id="patch_30">
    <path clip-path="url(#pbaab1e2be4)" d="M 174.256663 28.8 
Q 176.739322 28.8 178.10877 31.570546 
Q 179.478219 34.33507 179.629114 37.852459 
L 177.90378 37.852459 
Q 177.61053 35.184303 176.733628 33.624364 
Q 175.856726 32.058403 174.273746 32.058403 
Q 172.343422 32.058403 171.156187 34.93134 
Q 169.968952 37.798253 169.968952 43.724813 
Q 169.968952 48.585315 171.039456 51.608824 
Q 172.112808 54.626311 174.239581 54.626311 
Q 176.195529 54.626311 177.22048 51.446205 
Q 177.761426 49.771832 178.029052 47.037423 
L 179.754386 47.037423 
Q 179.523772 51.404045 178.225501 54.361302 
Q 176.668145 57.920852 174.026049 57.920852 
Q 171.748381 57.920852 170.199566 54.999732 
Q 168.161053 51.145059 168.161053 43.086383 
Q 168.161053 36.973112 169.692785 33.058209 
Q 171.346942 28.8 174.256663 28.8 
z
M 173.900778 28.8 
L 173.900778 28.8 
z
" style="fill:#0000ff;"/>
   </g>
   <g id="patch_31">
    <path clip-path="url(#pbaab1e2be4)" d="M 188.146272 130.361391 
L 186.173962 118.201359 
L 184.077145 130.361391 
L 188.146272 130.361391 
z
M 185.254305 114.112039 
L 187.243593 114.112039 
L 191.957895 141.64 
L 190.028031 141.64 
L 188.712214 133.395403 
L 183.573456 133.395403 
L 182.167088 141.64 
L 180.364561 141.64 
L 185.254305 114.112039 
z
M 186.165473 114.112039 
L 186.165473 114.112039 
z
" style="fill:#008000;"/>
   </g>
   <g id="patch_32">
    <path clip-path="url(#pbaab1e2be4)" d="M 186.34367 86.226261 
Q 188.13215 86.226261 189.436884 87.669325 
Q 191.327642 89.741566 191.750575 94.936598 
L 190.050551 94.936598 
Q 189.738189 92.033152 188.762403 90.705533 
Q 187.786617 89.377913 186.299441 89.377913 
Q 184.538604 89.377913 183.333384 92.142825 
Q 182.128163 94.901964 182.128163 100.368293 
Q 182.128163 105.09 183.120535 108.05694 
Q 184.115671 111.023881 186.360255 111.023881 
Q 188.079629 111.023881 189.20745 108.945868 
Q 190.33527 106.862083 190.360149 102.203871 
L 186.387898 102.203871 
L 186.387898 99.231158 
L 191.957895 99.231158 
L 191.957895 113.407823 
L 190.852188 113.407823 
L 190.437548 109.996419 
Q 189.566804 111.999392 188.892323 112.778647 
Q 187.758974 114.112039 186.014722 114.112039 
Q 183.761845 114.112039 182.136456 111.064286 
Q 180.364561 107.237279 180.364561 100.564549 
Q 180.364561 93.909136 182.092228 89.978228 
Q 183.734202 86.226261 186.34367 86.226261 
z
M 186.05895 86.185855 
L 186.05895 86.185855 
z
" style="fill:#ffa600;"/>
   </g>
   <g id="patch_33">
    <path clip-path="url(#pbaab1e2be4)" d="M 186.460172 57.637036 
Q 188.942831 57.637036 190.312279 60.353159 
Q 191.681727 63.063378 191.832623 66.511674 
L 190.107289 66.511674 
Q 189.814039 63.895929 188.937137 62.366633 
Q 188.060234 60.831433 186.477255 60.831433 
Q 184.54693 60.831433 183.359696 63.647935 
Q 182.172461 66.458532 182.172461 72.268674 
Q 182.172461 77.0337 183.242965 79.997817 
Q 184.316316 82.95603 186.44309 82.95603 
Q 188.399038 82.95603 189.423988 79.838392 
Q 189.964935 78.196909 190.232561 75.516213 
L 191.957895 75.516213 
Q 191.727281 79.79706 190.42901 82.696227 
Q 188.871654 86.185855 186.229558 86.185855 
Q 183.951889 86.185855 182.403075 83.322116 
Q 180.364561 79.543162 180.364561 71.642785 
Q 180.364561 65.6496 181.896294 61.811599 
Q 183.55045 57.637036 186.460172 57.637036 
z
M 186.104286 57.637036 
L 186.104286 57.637036 
z
" style="fill:#0000ff;"/>
   </g>
   <g id="patch_34">
    <path clip-path="url(#pbaab1e2be4)" d="M 191.957895 28.8 
L 191.957895 32.235822 
L 187.14316 32.235822 
L 187.14316 57.637036 
L 185.179296 57.637036 
L 185.179296 32.235822 
L 180.364561 32.235822 
L 180.364561 28.8 
L 191.957895 28.8 
z
" style="fill:#ff0000;"/>
   </g>
   <g id="patch_35">
    <path clip-path="url(#pbaab1e2be4)" d="M 198.547178 114.263912 
Q 200.335659 114.263912 201.640393 115.680601 
Q 203.531151 117.714965 203.954084 122.815044 
L 202.25406 122.815044 
Q 201.941698 119.964667 200.965912 118.661313 
Q 199.990125 117.35796 198.50295 117.35796 
Q 196.742112 117.35796 195.536892 120.072335 
Q 194.331672 122.781043 194.331672 128.147459 
Q 194.331672 132.782864 195.324044 135.695575 
Q 196.31918 138.608287 198.563764 138.608287 
Q 200.283138 138.608287 201.410958 136.568255 
Q 202.538779 134.522557 202.563658 129.949487 
L 198.591407 129.949487 
L 198.591407 127.031109 
L 204.161404 127.031109 
L 204.161404 140.948656 
L 203.055697 140.948656 
L 202.641057 137.599605 
Q 201.770313 139.565968 201.095832 140.33098 
Q 199.962483 141.64 198.218231 141.64 
Q 195.965354 141.64 194.339965 138.647954 
Q 192.56807 134.890896 192.56807 128.340129 
Q 192.56807 121.806362 194.295737 117.947302 
Q 195.937711 114.263912 198.547178 114.263912 
z
M 198.262459 114.224245 
L 198.262459 114.224245 
z
" style="fill:#ffa600;"/>
   </g>
   <g id="patch_36">
    <path clip-path="url(#pbaab1e2be4)" d="M 200.34978 102.874423 
L 198.377471 90.637614 
L 196.280653 102.874423 
L 200.34978 102.874423 
z
M 197.457814 86.522474 
L 199.447102 86.522474 
L 204.161404 114.224245 
L 202.231539 114.224245 
L 200.915723 105.927592 
L 195.776964 105.927592 
L 194.370597 114.224245 
L 192.56807 114.224245 
L 197.457814 86.522474 
z
M 198.368981 86.522474 
L 198.368981 86.522474 
z
" style="fill:#008000;"/>
   </g>
   <g id="patch_37">
    <path clip-path="url(#pbaab1e2be4)" d="M 198.663681 57.923052 
Q 201.14634 57.923052 202.515788 60.64399 
Q 203.885236 63.359012 204.036132 66.81342 
L 202.310798 66.81342 
Q 202.017548 64.193039 201.140645 62.661033 
Q 200.263743 61.123111 198.680763 61.123111 
Q 196.750439 61.123111 195.563204 63.944605 
Q 194.37597 66.760184 194.37597 72.580625 
Q 194.37597 77.354097 195.446474 80.323468 
Q 196.519825 83.286924 198.646598 83.286924 
Q 200.602546 83.286924 201.627497 80.163761 
Q 202.168443 78.519368 202.43607 75.83392 
L 204.161404 75.83392 
Q 203.93079 80.122355 202.632518 83.02666 
Q 201.075163 86.522474 198.433067 86.522474 
Q 196.155398 86.522474 194.606584 83.653659 
Q 192.56807 79.868006 192.56807 71.953627 
Q 192.56807 65.949818 194.099802 62.105015 
Q 195.753959 57.923052 198.663681 57.923052 
z
M 198.307795 57.923052 
L 198.307795 57.923052 
z
" style="fill:#0000ff;"/>
   </g>
   <g id="patch_38">
    <path clip-path="url(#pbaab1e2be4)" d="M 204.161404 28.8 
L 204.161404 32.2699 
L 199.346669 32.2699 
L 199.346669 57.923052 
L 197.382805 57.923052 
L 197.382805 32.2699 
L 192.56807 32.2699 
L 192.56807 28.8 
L 204.161404 28.8 
z
" style="fill:#ff0000;"/>
   </g>
   <g id="patch_39">
    <path clip-path="url(#pbaab1e2be4)" d="M 212.553289 130.383025 
L 210.580979 118.246318 
L 208.484162 130.383025 
L 212.553289 130.383025 
z
M 209.661323 114.164842 
L 211.650611 114.164842 
L 216.364912 141.64 
L 214.435048 141.64 
L 213.119232 133.411217 
L 207.980473 133.411217 
L 206.574106 141.64 
L 204.771579 141.64 
L 209.661323 114.164842 
z
M 210.57249 114.164842 
L 210.57249 114.164842 
z
" style="fill:#008000;"/>
   </g>
   <g id="patch_40">
    <path clip-path="url(#pbaab1e2be4)" d="M 210.750687 86.516333 
Q 212.539168 86.516333 213.843901 87.947119 
Q 215.73466 90.001728 216.157592 95.152557 
L 214.457568 95.152557 
Q 214.145206 92.273816 213.16942 90.957493 
Q 212.193634 89.64117 210.706459 89.64117 
Q 208.945621 89.64117 207.740401 92.382556 
Q 206.535181 95.118219 206.535181 100.538036 
Q 206.535181 105.219568 207.527553 108.161264 
Q 208.522688 111.10296 210.767273 111.10296 
Q 212.486647 111.10296 213.614467 109.042628 
Q 214.742288 106.976573 214.767166 102.357996 
L 210.794915 102.357996 
L 210.794915 99.410577 
L 216.364912 99.410577 
L 216.364912 113.466618 
L 215.259206 113.466618 
L 214.844566 110.08424 
Q 213.973822 112.070171 213.299341 112.842795 
Q 212.165992 114.164842 210.421739 114.164842 
Q 208.168862 114.164842 206.543474 111.143022 
Q 204.771579 107.348577 204.771579 100.732623 
Q 204.771579 94.133838 206.499245 90.236377 
Q 208.14122 86.516333 210.750687 86.516333 
z
M 210.465968 86.476271 
L 210.465968 86.476271 
z
" style="fill:#ffa600;"/>
   </g>
   <g id="patch_41">
    <path clip-path="url(#pbaab1e2be4)" d="M 216.364912 57.672238 
L 216.364912 61.104127 
L 211.550178 61.104127 
L 211.550178 86.476271 
L 209.586314 86.476271 
L 209.586314 61.104127 
L 204.771579 61.104127 
L 204.771579 57.672238 
L 216.364912 57.672238 
z
" style="fill:#ff0000;"/>
   </g>
   <g id="patch_42">
    <path clip-path="url(#pbaab1e2be4)" d="M 210.86719 28.8 
Q 213.349848 28.8 214.719297 31.546893 
Q 216.088745 34.287815 216.239641 37.775175 
L 214.514307 37.775175 
Q 214.221057 35.129798 213.344154 33.583177 
Q 212.467252 32.030585 210.884272 32.030585 
Q 208.953948 32.030585 207.766713 34.878994 
Q 206.579478 37.721432 206.579478 43.597395 
Q 206.579478 48.416401 207.649983 51.414098 
Q 208.723334 54.405823 210.850107 54.405823 
Q 212.806055 54.405823 213.831006 51.252867 
Q 214.371952 49.592788 214.639578 46.881724 
L 216.364912 46.881724 
Q 216.134298 51.211067 214.836027 54.143077 
Q 213.278671 57.672238 210.636576 57.672238 
Q 208.358907 57.672238 206.810092 54.776057 
Q 204.771579 50.954292 204.771579 42.964415 
Q 204.771579 36.903335 206.303311 33.021856 
Q 207.957468 28.8 210.86719 28.8 
z
M 210.511304 28.8 
L 210.511304 28.8 
z
" style="fill:#0000ff;"/>
   </g>
   <g id="patch_43">
    <path clip-path="url(#pbaab1e2be4)" d="M 224.756798 130.292883 
L 222.784488 118.058989 
L 220.687671 130.292883 
L 224.756798 130.292883 
z
M 221.864831 113.944829 
L 223.85412 113.944829 
L 228.568421 141.64 
L 226.638557 141.64 
L 225.32274 133.345323 
L 220.183982 133.345323 
L 218.777615 141.64 
L 216.975088 141.64 
L 221.864831 113.944829 
z
M 222.775999 113.944829 
L 222.775999 113.944829 
z
" style="fill:#008000;"/>
   </g>
   <g id="patch_44">
    <path clip-path="url(#pbaab1e2be4)" d="M 222.954196 86.243594 
Q 224.742676 86.243594 226.04741 87.677109 
Q 227.938168 89.735636 228.361101 94.896288 
L 226.661077 94.896288 
Q 226.348715 92.012057 225.372929 90.693223 
Q 224.397143 89.37439 222.909968 89.37439 
Q 221.14913 89.37439 219.94391 92.121004 
Q 218.73869 94.861884 218.73869 100.292037 
Q 218.73869 104.982496 219.731061 107.929802 
Q 220.726197 110.877108 222.970782 110.877108 
Q 224.690155 110.877108 225.817976 108.812847 
Q 226.945797 106.742852 226.970675 102.115467 
L 222.998424 102.115467 
L 222.998424 99.162427 
L 228.568421 99.162427 
L 228.568421 113.245274 
L 227.462714 113.245274 
L 227.048075 109.856446 
Q 226.177331 111.846164 225.50285 112.620262 
Q 224.3695 113.944829 222.625248 113.944829 
Q 220.372371 113.944829 218.746982 110.917246 
Q 216.975088 107.115566 216.975088 100.486995 
Q 216.975088 93.875626 218.702754 89.970732 
Q 220.344728 86.243594 222.954196 86.243594 
z
M 222.669477 86.203456 
L 222.669477 86.203456 
z
" style="fill:#ffa600;"/>
   </g>
   <g id="patch_45">
    <path clip-path="url(#pbaab1e2be4)" d="M 223.070698 57.694239 
Q 225.553357 57.694239 226.922805 60.406595 
Q 228.292254 63.113054 228.443149 66.556566 
L 226.717815 66.556566 
Q 226.424565 63.94445 225.547663 62.417276 
Q 224.670761 60.884205 223.087781 60.884205 
Q 221.157457 60.884205 219.970222 63.6968 
Q 218.782987 66.503498 218.782987 72.305581 
Q 218.782987 77.063996 219.853491 80.024002 
Q 220.926843 82.978111 223.053616 82.978111 
Q 225.009564 82.978111 226.034515 79.864798 
Q 226.575461 78.225592 226.843087 75.548615 
L 228.568421 75.548615 
Q 228.337807 79.823523 227.039536 82.718668 
Q 225.48218 86.203456 222.840084 86.203456 
Q 220.562416 86.203456 219.013601 83.343689 
Q 216.975088 79.569977 216.975088 71.68056 
Q 216.975088 65.695688 218.50682 61.863012 
Q 220.160977 57.694239 223.070698 57.694239 
z
M 222.714813 57.694239 
L 222.714813 57.694239 
z
" style="fill:#0000ff;"/>
   </g>
   <g id="patch_46">
    <path clip-path="url(#pbaab1e2be4)" d="M 228.568421 28.8 
L 228.568421 32.242637 
L 223.753686 32.242637 
L 223.753686 57.694239 
L 221.789822 57.694239 
L 221.789822 32.242637 
L 216.975088 32.242637 
L 216.975088 28.8 
L 228.568421 28.8 
z
" style="fill:#ff0000;"/>
   </g>
   <g id="patch_47">
    <path clip-path="url(#pbaab1e2be4)" d="M 236.960307 130.334348 
L 234.987997 118.14516 
L 232.89118 130.334348 
L 236.960307 130.334348 
z
M 234.06834 114.046035 
L 236.057628 114.046035 
L 240.77193 141.64 
L 238.842066 141.64 
L 237.526249 133.375635 
L 232.387491 133.375635 
L 230.981124 141.64 
L 229.178596 141.64 
L 234.06834 114.046035 
z
M 234.979508 114.046035 
L 234.979508 114.046035 
z
" style="fill:#008000;"/>
   </g>
   <g id="patch_48">
    <path clip-path="url(#pbaab1e2be4)" d="M 235.157705 86.272301 
Q 236.946185 86.272301 238.250919 87.709567 
Q 240.141677 89.773482 240.56461 94.94764 
L 238.864586 94.94764 
Q 238.552224 92.05586 237.576438 90.733575 
Q 236.600652 89.41129 235.113476 89.41129 
Q 233.352639 89.41129 232.147419 92.165093 
Q 230.942198 94.913146 230.942198 100.357511 
Q 230.942198 105.060246 231.93457 108.015266 
Q 232.929706 110.970285 235.17429 110.970285 
Q 236.893664 110.970285 238.021485 108.900622 
Q 239.149305 106.825209 239.174184 102.185713 
L 235.201933 102.185713 
L 235.201933 99.224945 
L 240.77193 99.224945 
L 240.77193 113.344649 
L 239.666223 113.344649 
L 239.251583 109.946951 
Q 238.380839 111.941877 237.706358 112.718001 
Q 236.573009 114.046035 234.828757 114.046035 
Q 232.57588 114.046035 230.950491 111.010529 
Q 229.178596 107.198898 229.178596 100.552979 
Q 229.178596 93.924307 230.906263 90.009193 
Q 232.548237 86.272301 235.157705 86.272301 
z
M 234.872985 86.232057 
L 234.872985 86.232057 
z
" style="fill:#ffa600;"/>
   </g>
   <g id="patch_49">
    <path clip-path="url(#pbaab1e2be4)" d="M 235.274207 57.72064 
Q 237.756866 57.72064 239.126314 60.433205 
Q 240.495763 63.139873 240.646658 66.583652 
L 238.921324 66.583652 
Q 238.628074 63.971334 237.751172 62.444042 
Q 236.874269 60.910853 235.29129 60.910853 
Q 233.360966 60.910853 232.173731 63.723665 
Q 230.986496 66.53058 230.986496 72.33311 
Q 230.986496 77.091893 232.057 80.052127 
Q 233.130352 83.006464 235.257125 83.006464 
Q 237.213073 83.006464 238.238023 79.892911 
Q 238.77897 78.253578 239.046596 75.576394 
L 240.77193 75.576394 
Q 240.541316 79.851633 239.243045 82.747001 
Q 237.685689 86.232057 235.043593 86.232057 
Q 232.765925 86.232057 231.21711 83.37207 
Q 229.178596 79.598067 229.178596 71.708041 
Q 229.178596 65.722707 230.710329 61.889735 
Q 232.364485 57.72064 235.274207 57.72064 
z
M 234.918321 57.72064 
L 234.918321 57.72064 
z
" style="fill:#0000ff;"/>
   </g>
   <g id="patch_50">
    <path clip-path="url(#pbaab1e2be4)" d="M 240.77193 28.8 
L 240.77193 32.245783 
L 235.957195 32.245783 
L 235.957195 57.72064 
L 233.993331 57.72064 
L 233.993331 32.245783 
L 229.178596 32.245783 
L 229.178596 28.8 
L 240.77193 28.8 
z
" style="fill:#ff0000;"/>
   </g>
   <g id="patch_51">
    <path clip-path="url(#pbaab1e2be4)" d="M 249.163815 130.195529 
L 247.191506 117.856673 
L 245.094688 130.195529 
L 249.163815 130.195529 
z
M 246.271849 113.707216 
L 248.261137 113.707216 
L 252.975439 141.64 
L 251.045574 141.64 
L 249.729758 133.274158 
L 244.591 133.274158 
L 243.184632 141.64 
L 241.382105 141.64 
L 246.271849 113.707216 
z
M 247.183016 113.707216 
L 247.183016 113.707216 
z
" style="fill:#008000;"/>
   </g>
   <g id="patch_52">
    <path clip-path="url(#pbaab1e2be4)" d="M 247.477716 85.558819 
Q 249.960375 85.558819 251.329823 88.236847 
Q 252.699271 90.909052 252.850167 94.308983 
L 251.124833 94.308983 
Q 250.831583 91.729926 249.954681 90.22208 
Q 249.077778 88.708412 247.494798 88.708412 
Q 245.564474 88.708412 244.37724 91.48541 
Q 243.190005 94.256586 243.190005 99.985236 
Q 243.190005 104.683428 244.260509 107.605971 
Q 245.33386 110.522692 247.460633 110.522692 
Q 249.416581 110.522692 250.441532 107.448782 
Q 250.982479 105.830322 251.250105 103.187226 
L 252.975439 103.187226 
Q 252.744825 107.40803 251.446554 110.266533 
Q 249.889198 113.707216 247.247102 113.707216 
Q 244.969433 113.707216 243.420619 110.883643 
Q 241.382105 107.157692 241.382105 99.368126 
Q 241.382105 93.459 242.913837 89.674831 
Q 244.567994 85.558819 247.477716 85.558819 
z
M 247.12183 85.558819 
L 247.12183 85.558819 
z
" style="fill:#0000ff;"/>
   </g>
   <g id="patch_53">
    <path clip-path="url(#pbaab1e2be4)" d="M 247.361214 57.435771 
Q 249.149694 57.435771 250.454428 58.891114 
Q 252.345186 60.980987 252.768119 66.220222 
L 251.068095 66.220222 
Q 250.755733 63.292072 249.779947 61.953156 
Q 248.804161 60.614241 247.316985 60.614241 
Q 245.556148 60.614241 244.350927 63.402678 
Q 243.145707 66.185293 243.145707 71.698133 
Q 243.145707 76.460015 244.138079 79.4522 
Q 245.133215 82.444385 247.377799 82.444385 
Q 249.097173 82.444385 250.224994 80.348691 
Q 251.352814 78.247176 251.377693 73.549329 
L 247.405442 73.549329 
L 247.405442 70.551322 
L 252.975439 70.551322 
L 252.975439 84.848612 
L 251.869732 84.848612 
L 251.455092 81.408181 
Q 250.584348 83.428197 249.909867 84.214082 
Q 248.776518 85.558819 247.032266 85.558819 
Q 244.779389 85.558819 243.154 82.485135 
Q 241.382105 78.625565 241.382105 71.896059 
Q 241.382105 65.184017 243.109772 61.219663 
Q 244.751746 57.435771 247.361214 57.435771 
z
M 247.076494 57.395022 
L 247.076494 57.395022 
z
" style="fill:#ffa600;"/>
   </g>
   <g id="patch_54">
    <path clip-path="url(#pbaab1e2be4)" d="M 252.975439 28.8 
L 252.975439 32.206987 
L 248.160704 32.206987 
L 248.160704 57.395022 
L 246.19684 57.395022 
L 246.19684 32.206987 
L 241.382105 32.206987 
L 241.382105 28.8 
L 252.975439 28.8 
z
" style="fill:#ff0000;"/>
   </g>
   <g id="patch_55">
    <path clip-path="url(#pbaab1e2be4)" d="M 259.564722 113.951947 
Q 261.353203 113.951947 262.657936 115.384779 
Q 264.548695 117.442326 264.971627 122.600523 
L 263.271604 122.600523 
Q 262.959241 119.717664 261.983455 118.399458 
Q 261.007669 117.081253 259.520494 117.081253 
Q 257.759656 117.081253 256.554436 119.826559 
Q 255.349216 122.566135 255.349216 127.993704 
Q 255.349216 132.681932 256.341588 135.627835 
Q 257.336724 138.573739 259.581308 138.573739 
Q 261.300682 138.573739 262.428502 136.51046 
Q 263.556323 134.44145 263.581201 129.816267 
L 259.608951 129.816267 
L 259.608951 126.864632 
L 265.178947 126.864632 
L 265.178947 140.940778 
L 264.073241 140.940778 
L 263.658601 137.553562 
Q 262.787857 139.542333 262.113376 140.316063 
Q 260.980027 141.64 259.235775 141.64 
Q 256.982897 141.64 255.357509 138.613858 
Q 253.585614 134.813986 253.585614 128.188569 
Q 253.585614 121.580346 255.313281 117.677311 
Q 256.955255 113.951947 259.564722 113.951947 
z
M 259.280003 113.911827 
L 259.280003 113.911827 
z
" style="fill:#ffa600;"/>
   </g>
   <g id="patch_56">
    <path clip-path="url(#pbaab1e2be4)" d="M 261.367324 102.509723 
L 259.395014 90.216545 
L 257.298197 102.509723 
L 261.367324 102.509723 
z
M 258.475358 86.082449 
L 260.464646 86.082449 
L 265.178947 113.911827 
L 263.249083 113.911827 
L 261.933267 105.576956 
L 256.794508 105.576956 
L 255.388141 113.911827 
L 253.585614 113.911827 
L 258.475358 86.082449 
z
M 259.386525 86.082449 
L 259.386525 86.082449 
z
" style="fill:#008000;"/>
   </g>
   <g id="patch_57">
    <path clip-path="url(#pbaab1e2be4)" d="M 259.681225 57.53803 
Q 262.163884 57.53803 263.533332 60.253735 
Q 264.90278 62.963536 265.053676 66.4113 
L 263.328342 66.4113 
Q 263.035092 63.795958 262.158189 62.266899 
Q 261.281287 60.731935 259.698307 60.731935 
Q 257.767983 60.731935 256.580748 63.548003 
Q 255.393514 66.358167 255.393514 72.167414 
Q 255.393514 76.931704 256.464018 79.895365 
Q 257.537369 82.853122 259.664142 82.853122 
Q 261.62009 82.853122 262.645041 79.735965 
Q 263.185987 78.094735 263.453613 75.414452 
L 265.178947 75.414452 
Q 264.948333 79.694639 263.650062 82.593359 
Q 262.092706 86.082449 259.450611 86.082449 
Q 257.172942 86.082449 255.624127 83.219151 
Q 253.585614 79.44078 253.585614 71.541621 
Q 253.585614 65.549359 255.117346 61.71195 
Q 256.771503 57.53803 259.681225 57.53803 
z
M 259.325339 57.53803 
L 259.325339 57.53803 
z
" style="fill:#0000ff;"/>
   </g>
   <g id="patch_58">
    <path clip-path="url(#pbaab1e2be4)" d="M 265.178947 28.8 
L 265.178947 32.224026 
L 260.364213 32.224026 
L 260.364213 57.53803 
L 258.400349 57.53803 
L 258.400349 32.224026 
L 253.585614 32.224026 
L 253.585614 28.8 
L 265.178947 28.8 
z
" style="fill:#ff0000;"/>
   </g>
   <g id="patch_59">
    <path clip-path="url(#pbaab1e2be4)" d="M 271.768231 113.877251 
Q 273.556711 113.877251 274.861445 115.313948 
Q 276.752203 117.377047 277.175136 122.549159 
L 275.475112 122.549159 
Q 275.16275 119.658523 274.186964 118.336761 
Q 273.211178 117.014999 271.724003 117.014999 
Q 269.963165 117.014999 268.757945 119.767712 
Q 267.552725 122.514678 267.552725 127.95689 
Q 267.552725 132.657765 268.545096 135.611616 
Q 269.540232 138.565467 271.784817 138.565467 
Q 273.50419 138.565467 274.632011 136.496622 
Q 275.759832 134.42203 275.78471 129.784369 
L 271.812459 129.784369 
L 271.812459 126.824772 
L 277.382456 126.824772 
L 277.382456 140.938891 
L 276.27675 140.938891 
L 275.86211 137.542538 
Q 274.991366 139.536674 274.316885 140.312491 
Q 273.183535 141.64 271.439283 141.64 
Q 269.186406 141.64 267.561018 138.605694 
Q 265.789123 134.795571 265.789123 128.152281 
Q 265.789123 121.52623 267.516789 117.612665 
Q 269.158764 113.877251 271.768231 113.877251 
z
M 271.483512 113.837023 
L 271.483512 113.837023 
z
" style="fill:#ffa600;"/>
   </g>
   <g id="patch_60">
    <path clip-path="url(#pbaab1e2be4)" d="M 273.570833 102.366411 
L 271.598523 89.999371 
L 269.501706 102.366411 
L 273.570833 102.366411 
z
M 270.678867 85.840435 
L 272.668155 85.840435 
L 277.382456 113.837023 
L 275.452592 113.837023 
L 274.136776 105.452072 
L 268.998017 105.452072 
L 267.59165 113.837023 
L 265.789123 113.837023 
L 270.678867 85.840435 
z
M 271.590034 85.840435 
L 271.590034 85.840435 
z
" style="fill:#008000;"/>
   </g>
   <g id="patch_61">
    <path clip-path="url(#pbaab1e2be4)" d="M 277.382456 57.377421 
L 277.382456 60.76868 
L 272.567721 60.76868 
L 272.567721 85.840435 
L 270.603857 85.840435 
L 270.603857 60.76868 
L 265.789123 60.76868 
L 265.789123 57.377421 
L 277.382456 57.377421 
z
" style="fill:#ff0000;"/>
   </g>
   <g id="patch_62">
    <path clip-path="url(#pbaab1e2be4)" d="M 271.884733 28.8 
Q 274.367392 28.8 275.736841 31.518845 
Q 277.106289 34.231779 277.257184 37.683529 
L 275.53185 37.683529 
Q 275.238601 35.065164 274.361698 33.534336 
Q 273.484796 31.997598 271.901816 31.997598 
Q 269.971492 31.997598 268.784257 34.816921 
Q 267.597022 37.630334 267.597022 43.446298 
Q 267.597022 48.216097 268.667527 51.183184 
Q 269.740878 54.14436 271.867651 54.14436 
Q 273.823599 54.14436 274.84855 51.023599 
Q 275.389496 49.380471 275.657122 46.69709 
L 277.382456 46.69709 
Q 277.151842 50.982226 275.853571 53.884297 
Q 274.296215 57.377421 271.65412 57.377421 
Q 269.376451 57.377421 267.827636 54.510813 
Q 265.789123 50.728073 265.789123 42.819781 
Q 265.789123 36.820592 267.320855 32.978746 
Q 268.975012 28.8 271.884733 28.8 
z
M 271.528848 28.8 
L 271.528848 28.8 
z
" style="fill:#0000ff;"/>
   </g>
   <g id="patch_63">
    <path clip-path="url(#pbaab1e2be4)" d="M 285.774342 130.382123 
L 283.802032 118.244445 
L 281.705215 130.382123 
L 285.774342 130.382123 
z
M 282.882375 114.162642 
L 284.871663 114.162642 
L 289.585965 141.64 
L 287.656101 141.64 
L 286.340284 133.410558 
L 281.201526 133.410558 
L 279.795159 141.64 
L 277.992632 141.64 
L 282.882375 114.162642 
z
M 283.793543 114.162642 
L 283.793543 114.162642 
z
" style="fill:#008000;"/>
   </g>
   <g id="patch_64">
    <path clip-path="url(#pbaab1e2be4)" d="M 283.97174 86.424059 
Q 285.76022 86.424059 287.064954 87.859506 
Q 288.955712 89.920808 289.378645 95.088418 
L 287.678621 95.088418 
Q 287.366259 92.200298 286.390473 90.879687 
Q 285.414687 89.559075 283.927512 89.559075 
Q 282.166674 89.559075 280.961454 92.309392 
Q 279.756234 95.053968 279.756234 100.491442 
Q 279.756234 105.188225 280.748605 108.139505 
Q 281.743741 111.090784 283.988325 111.090784 
Q 285.707699 111.090784 286.83552 109.02374 
Q 287.963341 106.950954 287.988219 102.317331 
L 284.015968 102.317331 
L 284.015968 99.360309 
L 289.585965 99.360309 
L 289.585965 113.462143 
L 288.480258 113.462143 
L 288.065618 110.068746 
Q 287.194874 112.061147 286.520393 112.836288 
Q 285.387044 114.162642 283.642792 114.162642 
Q 281.389915 114.162642 279.764526 111.130977 
Q 277.992632 107.324171 277.992632 100.686663 
Q 277.992632 94.06638 279.720298 90.156221 
Q 281.362272 86.424059 283.97174 86.424059 
z
M 283.68702 86.383866 
L 283.68702 86.383866 
z
" style="fill:#ffa600;"/>
   </g>
   <g id="patch_65">
    <path clip-path="url(#pbaab1e2be4)" d="M 289.585965 57.626035 
L 289.585965 61.05242 
L 284.77123 61.05242 
L 284.77123 86.383866 
L 282.807366 86.383866 
L 282.807366 61.05242 
L 277.992632 61.05242 
L 277.992632 57.626035 
L 289.585965 57.626035 
z
" style="fill:#ff0000;"/>
   </g>
   <g id="patch_66">
    <path clip-path="url(#pbaab1e2be4)" d="M 284.088242 28.8 
Q 286.570901 28.8 287.940349 31.542498 
Q 289.309798 34.279033 289.460693 37.760813 
L 287.735359 37.760813 
Q 287.442109 35.119668 286.565207 33.575523 
Q 285.688304 32.025416 284.105325 32.025416 
Q 282.175001 32.025416 280.987766 34.869267 
Q 279.800531 37.707155 279.800531 43.573716 
Q 279.800531 48.38501 280.871035 51.37791 
Q 281.944387 54.364848 284.07116 54.364848 
Q 286.027108 54.364848 287.052059 51.216937 
Q 287.593005 49.559515 287.860631 46.852789 
L 289.585965 46.852789 
Q 289.355351 51.175204 288.05708 54.102522 
Q 286.499724 57.626035 283.857628 57.626035 
Q 281.57996 57.626035 280.031145 54.734489 
Q 277.992632 50.91884 277.992632 42.941749 
Q 277.992632 36.890368 279.524364 33.0151 
Q 281.178521 28.8 284.088242 28.8 
z
M 283.732357 28.8 
L 283.732357 28.8 
z
" style="fill:#0000ff;"/>
   </g>
   <g id="patch_67">
    <path clip-path="url(#pbaab1e2be4)" d="M 297.977851 130.390236 
L 296.005541 118.261304 
L 293.908724 130.390236 
L 297.977851 130.390236 
z
M 295.085884 114.182443 
L 297.075172 114.182443 
L 301.789474 141.64 
L 299.85961 141.64 
L 298.543793 133.416488 
L 293.405035 133.416488 
L 291.998667 141.64 
L 290.19614 141.64 
L 295.085884 114.182443 
z
M 295.997052 114.182443 
L 295.997052 114.182443 
z
" style="fill:#008000;"/>
   </g>
   <g id="patch_68">
    <path clip-path="url(#pbaab1e2be4)" d="M 296.175249 86.169242 
Q 297.963729 86.169242 299.268463 87.6189 
Q 301.159221 89.70061 301.582154 94.919381 
L 299.88213 94.919381 
Q 299.569768 92.002668 298.593982 90.668982 
Q 297.618196 89.335296 296.13102 89.335296 
Q 294.370183 89.335296 293.164962 92.112842 
Q 291.959742 94.884589 291.959742 100.375895 
Q 291.959742 105.119178 292.952114 108.099676 
Q 293.94725 111.080174 296.191834 111.080174 
Q 297.911208 111.080174 299.039029 108.992665 
Q 300.166849 106.899358 300.191728 102.219861 
L 296.219477 102.219861 
L 296.219477 99.233564 
L 301.789474 99.233564 
L 301.789474 113.475009 
L 300.683767 113.475009 
L 300.269127 110.048017 
Q 299.398383 112.060143 298.723902 112.842958 
Q 297.590553 114.182443 295.846301 114.182443 
Q 293.593424 114.182443 291.968035 111.120764 
Q 290.19614 107.27627 290.19614 100.573049 
Q 290.19614 93.887224 291.923807 89.938354 
Q 293.565781 86.169242 296.175249 86.169242 
z
M 295.890529 86.128652 
L 295.890529 86.128652 
z
" style="fill:#ffa600;"/>
   </g>
   <g id="patch_69">
    <path clip-path="url(#pbaab1e2be4)" d="M 296.291751 57.632635 
Q 298.77441 57.632635 300.143858 60.343735 
Q 301.513306 63.048941 301.664202 66.490859 
L 299.938868 66.490859 
Q 299.645618 63.879952 298.768716 62.353485 
Q 297.891813 60.821124 296.308834 60.821124 
Q 294.378509 60.821124 293.191275 63.632417 
Q 292.00404 66.437816 292.00404 72.237212 
Q 292.00404 76.993424 293.074544 79.952059 
Q 294.147895 82.9048 296.274669 82.9048 
Q 298.230616 82.9048 299.255567 79.792929 
Q 299.796514 78.154482 300.06414 75.478744 
L 301.789474 75.478744 
Q 301.55886 79.751673 300.260589 82.645478 
Q 298.703233 86.128652 296.061137 86.128652 
Q 293.783468 86.128652 292.234654 83.270209 
Q 290.19614 79.498244 290.19614 71.61248 
Q 290.19614 65.63038 291.727873 61.799478 
Q 293.382029 57.632635 296.291751 57.632635 
z
M 295.935865 57.632635 
L 295.935865 57.632635 
z
" style="fill:#0000ff;"/>
   </g>
   <g id="patch_70">
    <path clip-path="url(#pbaab1e2be4)" d="M 301.789474 28.8 
L 301.789474 32.235298 
L 296.974739 32.235298 
L 296.974739 57.632635 
L 295.010875 57.632635 
L 295.010875 32.235298 
L 290.19614 32.235298 
L 290.19614 28.8 
L 301.789474 28.8 
z
" style="fill:#ff0000;"/>
   </g>
   <g id="patch_71">
    <path clip-path="url(#pbaab1e2be4)" d="M 308.378757 113.84869 
Q 310.167238 113.84869 311.471971 115.286866 
Q 313.36273 117.352087 313.785662 122.52952 
L 312.085639 122.52952 
Q 311.773277 119.63591 310.79749 118.312788 
Q 309.821704 116.989666 308.334529 116.989666 
Q 306.573691 116.989666 305.368471 119.745211 
Q 304.163251 122.495003 304.163251 127.942813 
Q 304.163251 132.648525 305.155623 135.605414 
Q 306.150759 138.562304 308.395343 138.562304 
Q 310.114717 138.562304 311.242537 136.491331 
Q 312.370358 134.414605 312.395236 129.772173 
L 308.422986 129.772173 
L 308.422986 126.809531 
L 313.992982 126.809531 
L 313.992982 140.93817 
L 312.887276 140.93817 
L 312.472636 137.538323 
Q 311.601892 139.534511 310.927411 140.311126 
Q 309.794062 141.64 308.04981 141.64 
Q 305.796933 141.64 304.171544 138.602573 
Q 302.399649 134.78853 302.399649 128.138405 
Q 302.399649 121.505538 304.127316 117.587948 
Q 305.76929 113.84869 308.378757 113.84869 
z
M 308.094038 113.808421 
L 308.094038 113.808421 
z
" style="fill:#ffa600;"/>
   </g>
   <g id="patch_72">
    <path clip-path="url(#pbaab1e2be4)" d="M 310.181359 102.384683 
L 308.209049 90.06818 
L 306.112232 102.384683 
L 310.181359 102.384683 
z
M 307.289393 85.92624 
L 309.278681 85.92624 
L 313.992982 113.808421 
L 312.063118 113.808421 
L 310.747302 105.457735 
L 305.608543 105.457735 
L 304.202176 113.808421 
L 302.399649 113.808421 
L 307.289393 85.92624 
z
M 308.20056 85.92624 
L 308.20056 85.92624 
z
" style="fill:#008000;"/>
   </g>
   <g id="patch_73">
    <path clip-path="url(#pbaab1e2be4)" d="M 308.49526 57.54243 
Q 310.977919 57.54243 312.347367 60.242855 
Q 313.716815 62.937409 313.867711 66.365774 
L 312.142377 66.365774 
Q 311.849127 63.765148 310.972224 62.244691 
Q 310.095322 60.718364 308.512342 60.718364 
Q 306.582018 60.718364 305.394783 63.518587 
Q 304.207549 66.312939 304.207549 72.0895 
Q 304.207549 76.826984 305.278053 79.773969 
Q 306.351404 82.715083 308.478177 82.715083 
Q 310.434125 82.715083 311.459076 79.615465 
Q 312.000022 77.98347 312.267648 75.318268 
L 313.992982 75.318268 
Q 313.762369 79.574372 312.464097 82.456782 
Q 310.906741 85.92624 308.264646 85.92624 
Q 305.986977 85.92624 304.438163 83.079053 
Q 302.399649 79.321941 302.399649 71.467228 
Q 302.399649 65.508683 303.931381 61.692865 
Q 305.585538 57.54243 308.49526 57.54243 
z
M 308.139374 57.54243 
L 308.139374 57.54243 
z
" style="fill:#0000ff;"/>
   </g>
   <g id="patch_74">
    <path clip-path="url(#pbaab1e2be4)" d="M 313.992982 28.8 
L 313.992982 32.22455 
L 309.178248 32.22455 
L 309.178248 57.54243 
L 307.214384 57.54243 
L 307.214384 32.22455 
L 302.399649 32.22455 
L 302.399649 28.8 
L 313.992982 28.8 
z
" style="fill:#ff0000;"/>
   </g>
   <g id="patch_75">
    <path clip-path="url(#pbaab1e2be4)" d="M 320.582266 114.013461 
Q 322.370747 114.013461 323.67548 115.44311 
Q 325.566238 117.496086 325.989171 122.642823 
L 324.289147 122.642823 
Q 323.976785 119.766369 323.000999 118.451092 
Q 322.025213 117.135815 320.538038 117.135815 
Q 318.7772 117.135815 317.57198 119.875022 
Q 316.36676 122.608511 316.36676 128.024022 
Q 316.36676 132.701834 317.359132 135.641192 
Q 318.354267 138.580551 320.598852 138.580551 
Q 322.318225 138.580551 323.446046 136.521856 
Q 324.573867 134.457443 324.598745 129.842536 
L 320.626494 129.842536 
L 320.626494 126.897459 
L 326.196491 126.897459 
L 326.196491 140.942331 
L 325.090785 140.942331 
L 324.676145 137.562641 
Q 323.805401 139.546994 323.13092 140.319004 
Q 321.997571 141.64 320.253318 141.64 
Q 318.000441 141.64 316.375053 138.620581 
Q 314.603158 134.829152 314.603158 128.218454 
Q 314.603158 121.624913 316.330824 117.730549 
Q 317.972799 114.013461 320.582266 114.013461 
z
M 320.297547 113.973431 
L 320.297547 113.973431 
z
" style="fill:#ffa600;"/>
   </g>
   <g id="patch_76">
    <path clip-path="url(#pbaab1e2be4)" d="M 322.384868 102.63713 
L 320.412558 90.414899 
L 318.315741 102.63713 
L 322.384868 102.63713 
z
M 319.492902 86.304662 
L 321.48219 86.304662 
L 326.196491 113.973431 
L 324.266627 113.973431 
L 322.950811 105.686662 
L 317.812052 105.686662 
L 316.405685 113.973431 
L 314.603158 113.973431 
L 319.492902 86.304662 
z
M 320.404069 86.304662 
L 320.404069 86.304662 
z
" style="fill:#008000;"/>
   </g>
   <g id="patch_77">
    <path clip-path="url(#pbaab1e2be4)" d="M 326.196491 57.678838 
L 326.196491 61.089495 
L 321.381757 61.089495 
L 321.381757 86.304662 
L 319.417893 86.304662 
L 319.417893 61.089495 
L 314.603158 61.089495 
L 314.603158 57.678838 
L 326.196491 57.678838 
z
" style="fill:#ff0000;"/>
   </g>
   <g id="patch_78">
    <path clip-path="url(#pbaab1e2be4)" d="M 320.698769 28.8 
Q 323.181427 28.8 324.550876 31.547521 
Q 325.920324 34.28907 326.071219 37.777227 
L 324.345885 37.777227 
Q 324.052636 35.131245 323.175733 33.584271 
Q 322.298831 32.031324 320.715851 32.031324 
Q 318.785527 32.031324 317.598292 34.880384 
Q 316.411057 37.723471 316.411057 43.600778 
Q 316.411057 48.420886 317.481562 51.419268 
Q 318.554913 54.411677 320.681686 54.411677 
Q 322.637634 54.411677 323.662585 51.258 
Q 324.203531 49.597542 324.471157 46.885858 
L 326.196491 46.885858 
Q 325.965877 51.21619 324.667606 54.14887 
Q 323.11025 57.678838 320.468155 57.678838 
Q 318.190486 57.678838 316.641671 54.781995 
Q 314.603158 50.959357 314.603158 42.967653 
Q 314.603158 36.905188 316.13489 33.022821 
Q 317.789047 28.8 320.698769 28.8 
z
M 320.342883 28.8 
L 320.342883 28.8 
z
" style="fill:#0000ff;"/>
   </g>
   <g id="patch_79">
    <path clip-path="url(#pbaab1e2be4)" d="M 332.785775 114.219973 
Q 334.574255 114.219973 335.878989 115.638936 
Q 337.769747 117.676566 338.19268 122.78483 
L 336.492656 122.78483 
Q 336.180294 119.929878 335.204508 118.624432 
Q 334.228722 117.318987 332.741547 117.318987 
Q 330.980709 117.318987 329.775489 120.037719 
Q 328.570269 122.750775 328.570269 128.125804 
Q 328.570269 132.768648 329.56264 135.686034 
Q 330.557776 138.603421 332.802361 138.603421 
Q 334.521734 138.603421 335.649555 136.560115 
Q 336.777376 134.511134 336.802254 129.930724 
L 332.830003 129.930724 
L 332.830003 127.007661 
L 338.4 127.007661 
L 338.4 140.947546 
L 337.294293 140.947546 
L 336.879653 137.59312 
Q 336.00891 139.562639 335.334429 140.328879 
Q 334.201079 141.64 332.456827 141.64 
Q 330.20395 141.64 328.578561 138.643152 
Q 326.806667 134.880064 326.806667 128.318782 
Q 326.806667 121.774529 328.534333 117.909275 
Q 330.176307 114.219973 332.785775 114.219973 
z
M 332.501055 114.180243 
L 332.501055 114.180243 
z
" style="fill:#ffa600;"/>
   </g>
   <g id="patch_80">
    <path clip-path="url(#pbaab1e2be4)" d="M 334.588377 102.794364 
L 332.616067 90.51868 
L 330.51925 102.794364 
L 334.588377 102.794364 
z
M 331.69641 86.390466 
L 333.685698 86.390466 
L 338.4 114.180243 
L 336.470136 114.180243 
L 335.154319 105.857232 
L 330.015561 105.857232 
L 328.609194 114.180243 
L 326.806667 114.180243 
L 331.69641 86.390466 
z
M 332.607578 86.390466 
L 332.607578 86.390466 
z
" style="fill:#008000;"/>
   </g>
   <g id="patch_81">
    <path clip-path="url(#pbaab1e2be4)" d="M 332.902277 57.634835 
Q 335.384936 57.634835 336.754384 60.370635 
Q 338.123833 63.100487 338.274728 66.573763 
L 336.549394 66.573763 
Q 336.256144 63.939069 335.379242 62.398695 
Q 334.50234 60.852373 332.91936 60.852373 
Q 330.989036 60.852373 329.801801 63.689279 
Q 328.614566 66.520236 328.614566 72.372468 
Q 328.614566 77.172012 329.68507 80.157602 
Q 330.758422 83.137244 332.885195 83.137244 
Q 334.841143 83.137244 335.866094 79.997022 
Q 336.40704 78.343648 336.674666 75.643533 
L 338.4 75.643533 
Q 338.169386 79.95539 336.871115 82.875559 
Q 335.313759 86.390466 332.671663 86.390466 
Q 330.393995 86.390466 328.84518 83.505982 
Q 326.806667 79.699653 326.806667 71.742045 
Q 326.806667 65.705444 328.338399 61.83964 
Q 329.992556 57.634835 332.902277 57.634835 
z
M 332.546392 57.634835 
L 332.546392 57.634835 
z
" style="fill:#0000ff;"/>
   </g>
   <g id="patch_82">
    <path clip-path="url(#pbaab1e2be4)" d="M 338.4 28.8 
L 338.4 32.23556 
L 333.585265 32.23556 
L 333.585265 57.634835 
L 331.621401 57.634835 
L 331.621401 32.23556 
L 326.806667 32.23556 
L 326.806667 28.8 
L 338.4 28.8 
z
" style="fill:#ff0000;"/>
   </g>
   <g id="matplotlib.axis_1">
    <g id="xtick_1">
     <g id="line2d_2">
      <path clip-path="url(#pbaab1e2be4)" d="M 100.736667 141.64 
L 100.736667 28.8 
" style="fill:none;stroke:#cccccc;stroke-linecap:round;stroke-width:0.8;"/>
     </g>
     <g id="text_1">
      <!-- 0 -->
      <g style="fill:#262626;" transform="translate(95.175729 162.986875)scale(0.2 -0.2)">
       <defs>
        <path d="M 1731 4475 
Q 2600 4475 2988 3759 
Q 3288 3206 3288 2244 
Q 3288 1331 3016 734 
Q 2622 -122 1728 -122 
Q 922 -122 528 578 
Q 200 1163 200 2147 
Q 200 2909 397 3456 
Q 766 4475 1731 4475 
z
M 1725 391 
Q 2163 391 2422 778 
Q 2681 1166 2681 2222 
Q 2681 2984 2493 3476 
Q 2306 3969 1766 3969 
Q 1269 3969 1039 3501 
Q 809 3034 809 2125 
Q 809 1441 956 1025 
Q 1181 391 1725 391 
z
" id="Helvetica-30" transform="scale(0.015625)"/>
       </defs>
       <use xlink:href="#Helvetica-30"/>
      </g>
     </g>
    </g>
    <g id="xtick_2">
     <g id="line2d_3">
      <path clip-path="url(#pbaab1e2be4)" d="M 222.771754 141.64 
L 222.771754 28.8 
" style="fill:none;stroke:#cccccc;stroke-linecap:round;stroke-width:0.8;"/>
     </g>
     <g id="text_2">
      <!-- 10 -->
      <g style="fill:#262626;" transform="translate(211.649879 162.986875)scale(0.2 -0.2)">
       <defs>
        <path d="M 613 3169 
L 613 3600 
Q 1222 3659 1462 3798 
Q 1703 3938 1822 4456 
L 2266 4456 
L 2266 0 
L 1666 0 
L 1666 3169 
L 613 3169 
z
" id="Helvetica-31" transform="scale(0.015625)"/>
       </defs>
       <use xlink:href="#Helvetica-31"/>
       <use x="55.615234" xlink:href="#Helvetica-30"/>
      </g>
     </g>
    </g>
    <g id="text_3">
     <!-- Position -->
     <g style="fill:#262626;" transform="translate(172.20125 189.089219)scale(0.25 -0.25)">
      <defs>
       <path d="M 547 4591 
L 2613 4591 
Q 3225 4591 3600 4245 
Q 3975 3900 3975 3275 
Q 3975 2738 3640 2339 
Q 3306 1941 2613 1941 
L 1169 1941 
L 1169 0 
L 547 0 
L 547 4591 
z
M 3347 3272 
Q 3347 3778 2972 3959 
Q 2766 4056 2406 4056 
L 1169 4056 
L 1169 2466 
L 2406 2466 
Q 2825 2466 3086 2644 
Q 3347 2822 3347 3272 
z
" id="Helvetica-50" transform="scale(0.015625)"/>
       <path d="M 1741 363 
Q 2300 363 2508 786 
Q 2716 1209 2716 1728 
Q 2716 2197 2566 2491 
Q 2328 2953 1747 2953 
Q 1231 2953 997 2559 
Q 763 2166 763 1609 
Q 763 1075 997 719 
Q 1231 363 1741 363 
z
M 1763 3444 
Q 2409 3444 2856 3012 
Q 3303 2581 3303 1744 
Q 3303 934 2909 406 
Q 2516 -122 1688 -122 
Q 997 -122 590 345 
Q 184 813 184 1600 
Q 184 2444 612 2944 
Q 1041 3444 1763 3444 
z
M 1744 3428 
L 1744 3428 
z
" id="Helvetica-6f" transform="scale(0.015625)"/>
       <path d="M 747 1050 
Q 772 769 888 619 
Q 1100 347 1625 347 
Q 1938 347 2175 483 
Q 2413 619 2413 903 
Q 2413 1119 2222 1231 
Q 2100 1300 1741 1391 
L 1294 1503 
Q 866 1609 663 1741 
Q 300 1969 300 2372 
Q 300 2847 642 3140 
Q 984 3434 1563 3434 
Q 2319 3434 2653 2991 
Q 2863 2709 2856 2384 
L 2325 2384 
Q 2309 2575 2191 2731 
Q 1997 2953 1519 2953 
Q 1200 2953 1036 2831 
Q 872 2709 872 2509 
Q 872 2291 1088 2159 
Q 1213 2081 1456 2022 
L 1828 1931 
Q 2434 1784 2641 1647 
Q 2969 1431 2969 969 
Q 2969 522 2630 197 
Q 2291 -128 1597 -128 
Q 850 -128 539 211 
Q 228 550 206 1050 
L 747 1050 
z
M 1578 3428 
L 1578 3428 
z
" id="Helvetica-73" transform="scale(0.015625)"/>
       <path d="M 413 3331 
L 984 3331 
L 984 0 
L 413 0 
L 413 3331 
z
M 413 4591 
L 984 4591 
L 984 3953 
L 413 3953 
L 413 4591 
z
" id="Helvetica-69" transform="scale(0.015625)"/>
       <path d="M 525 4281 
L 1094 4281 
L 1094 3347 
L 1628 3347 
L 1628 2888 
L 1094 2888 
L 1094 703 
Q 1094 528 1213 469 
Q 1278 434 1431 434 
Q 1472 434 1519 436 
Q 1566 438 1628 444 
L 1628 0 
Q 1531 -28 1426 -40 
Q 1322 -53 1200 -53 
Q 806 -53 665 148 
Q 525 350 525 672 
L 525 2888 
L 72 2888 
L 72 3347 
L 525 3347 
L 525 4281 
z
" id="Helvetica-74" transform="scale(0.015625)"/>
       <path d="M 413 3347 
L 947 3347 
L 947 2872 
Q 1184 3166 1450 3294 
Q 1716 3422 2041 3422 
Q 2753 3422 3003 2925 
Q 3141 2653 3141 2147 
L 3141 0 
L 2569 0 
L 2569 2109 
Q 2569 2416 2478 2603 
Q 2328 2916 1934 2916 
Q 1734 2916 1606 2875 
Q 1375 2806 1200 2600 
Q 1059 2434 1017 2257 
Q 975 2081 975 1753 
L 975 0 
L 413 0 
L 413 3347 
z
M 1734 3428 
L 1734 3428 
z
" id="Helvetica-6e" transform="scale(0.015625)"/>
      </defs>
      <use xlink:href="#Helvetica-50"/>
      <use x="66.699219" xlink:href="#Helvetica-6f"/>
      <use x="122.314453" xlink:href="#Helvetica-73"/>
      <use x="172.314453" xlink:href="#Helvetica-69"/>
      <use x="194.53125" xlink:href="#Helvetica-74"/>
      <use x="222.314453" xlink:href="#Helvetica-69"/>
      <use x="244.53125" xlink:href="#Helvetica-6f"/>
      <use x="300.146484" xlink:href="#Helvetica-6e"/>
     </g>
    </g>
   </g>
   <g id="matplotlib.axis_2">
    <g id="ytick_1">
     <g id="line2d_4">
      <path clip-path="url(#pbaab1e2be4)" d="M 94.94 141.64 
L 338.4 141.64 
" style="fill:none;stroke:#cccccc;stroke-linecap:round;stroke-width:0.8;"/>
     </g>
     <g id="text_4">
      <!-- 0 -->
      <g style="fill:#262626;" transform="translate(76.818125 148.813438)scale(0.2 -0.2)">
       <use xlink:href="#Helvetica-30"/>
      </g>
     </g>
    </g>
    <g id="ytick_2">
     <g id="line2d_5">
      <path clip-path="url(#pbaab1e2be4)" d="M 94.94 113.43 
L 338.4 113.43 
" style="fill:none;stroke:#cccccc;stroke-linecap:round;stroke-width:0.8;"/>
     </g>
     <g id="text_5">
      <!-- 0.25 -->
      <g style="fill:#262626;" transform="translate(49.018125 120.603437)scale(0.2 -0.2)">
       <defs>
        <path d="M 547 681 
L 1200 681 
L 1200 0 
L 547 0 
L 547 681 
z
" id="Helvetica-2e" transform="scale(0.015625)"/>
        <path d="M 200 0 
Q 231 578 439 1006 
Q 647 1434 1250 1784 
L 1850 2131 
Q 2253 2366 2416 2531 
Q 2672 2791 2672 3125 
Q 2672 3516 2437 3745 
Q 2203 3975 1813 3975 
Q 1234 3975 1013 3538 
Q 894 3303 881 2888 
L 309 2888 
Q 319 3472 525 3841 
Q 891 4491 1816 4491 
Q 2584 4491 2939 4075 
Q 3294 3659 3294 3150 
Q 3294 2613 2916 2231 
Q 2697 2009 2131 1694 
L 1703 1456 
Q 1397 1288 1222 1134 
Q 909 863 828 531 
L 3272 531 
L 3272 0 
L 200 0 
z
" id="Helvetica-32" transform="scale(0.015625)"/>
        <path d="M 791 1141 
Q 847 659 1238 475 
Q 1438 381 1700 381 
Q 2200 381 2440 700 
Q 2681 1019 2681 1406 
Q 2681 1875 2395 2131 
Q 2109 2388 1709 2388 
Q 1419 2388 1211 2275 
Q 1003 2163 856 1963 
L 369 1991 
L 709 4400 
L 3034 4400 
L 3034 3856 
L 1131 3856 
L 941 2613 
Q 1097 2731 1238 2791 
Q 1488 2894 1816 2894 
Q 2431 2894 2859 2497 
Q 3288 2100 3288 1491 
Q 3288 856 2895 371 
Q 2503 -113 1644 -113 
Q 1097 -113 676 195 
Q 256 503 206 1141 
L 791 1141 
z
" id="Helvetica-35" transform="scale(0.015625)"/>
       </defs>
       <use xlink:href="#Helvetica-30"/>
       <use x="55.615234" xlink:href="#Helvetica-2e"/>
       <use x="83.398438" xlink:href="#Helvetica-32"/>
       <use x="139.013672" xlink:href="#Helvetica-35"/>
      </g>
     </g>
    </g>
    <g id="ytick_3">
     <g id="line2d_6">
      <path clip-path="url(#pbaab1e2be4)" d="M 94.94 85.22 
L 338.4 85.22 
" style="fill:none;stroke:#cccccc;stroke-linecap:round;stroke-width:0.8;"/>
     </g>
     <g id="text_6">
      <!-- 0.50 -->
      <g style="fill:#262626;" transform="translate(49.018125 92.393438)scale(0.2 -0.2)">
       <use xlink:href="#Helvetica-30"/>
       <use x="55.615234" xlink:href="#Helvetica-2e"/>
       <use x="83.398438" xlink:href="#Helvetica-35"/>
       <use x="139.013672" xlink:href="#Helvetica-30"/>
      </g>
     </g>
    </g>
    <g id="ytick_4">
     <g id="line2d_7">
      <path clip-path="url(#pbaab1e2be4)" d="M 94.94 57.01 
L 338.4 57.01 
" style="fill:none;stroke:#cccccc;stroke-linecap:round;stroke-width:0.8;"/>
     </g>
     <g id="text_7">
      <!-- 0.75 -->
      <g style="fill:#262626;" transform="translate(49.018125 64.183437)scale(0.2 -0.2)">
       <defs>
        <path d="M 3347 4400 
L 3347 3909 
Q 3131 3700 2773 3181 
Q 2416 2663 2141 2063 
Q 1869 1478 1728 997 
Q 1638 688 1494 0 
L 872 0 
Q 1084 1281 1809 2550 
Q 2238 3294 2709 3834 
L 234 3834 
L 234 4400 
L 3347 4400 
z
" id="Helvetica-37" transform="scale(0.015625)"/>
       </defs>
       <use xlink:href="#Helvetica-30"/>
       <use x="55.615234" xlink:href="#Helvetica-2e"/>
       <use x="83.398438" xlink:href="#Helvetica-37"/>
       <use x="139.013672" xlink:href="#Helvetica-35"/>
      </g>
     </g>
    </g>
    <g id="ytick_5">
     <g id="line2d_8">
      <path clip-path="url(#pbaab1e2be4)" d="M 94.94 28.8 
L 338.4 28.8 
" style="fill:none;stroke:#cccccc;stroke-linecap:round;stroke-width:0.8;"/>
     </g>
     <g id="text_8">
      <!-- 1.0 -->
      <g style="fill:#262626;" transform="translate(60.14 35.973437)scale(0.2 -0.2)">
       <use xlink:href="#Helvetica-31"/>
       <use x="55.615234" xlink:href="#Helvetica-2e"/>
       <use x="83.398438" xlink:href="#Helvetica-30"/>
      </g>
     </g>
    </g>
    <g id="text_9">
     <!-- Probability -->
     <g style="fill:#262626;" transform="translate(39.65875 143.579375)rotate(-90)scale(0.25 -0.25)">
      <defs>
       <path d="M 428 3347 
L 963 3347 
L 963 2769 
Q 1028 2938 1284 3180 
Q 1541 3422 1875 3422 
Q 1891 3422 1928 3419 
Q 1966 3416 2056 3406 
L 2056 2813 
Q 2006 2822 1964 2825 
Q 1922 2828 1872 2828 
Q 1447 2828 1219 2554 
Q 991 2281 991 1925 
L 991 0 
L 428 0 
L 428 3347 
z
" id="Helvetica-72" transform="scale(0.015625)"/>
       <path d="M 369 4606 
L 916 4606 
L 916 2941 
Q 1100 3181 1356 3307 
Q 1613 3434 1913 3434 
Q 2538 3434 2927 3004 
Q 3316 2575 3316 1738 
Q 3316 944 2931 419 
Q 2547 -106 1866 -106 
Q 1484 -106 1222 78 
Q 1066 188 888 428 
L 888 0 
L 369 0 
L 369 4606 
z
M 1831 391 
Q 2288 391 2514 753 
Q 2741 1116 2741 1709 
Q 2741 2238 2514 2584 
Q 2288 2931 1847 2931 
Q 1463 2931 1173 2647 
Q 884 2363 884 1709 
Q 884 1238 1003 944 
Q 1225 391 1831 391 
z
" id="Helvetica-62" transform="scale(0.015625)"/>
       <path d="M 844 891 
Q 844 647 1022 506 
Q 1200 366 1444 366 
Q 1741 366 2019 503 
Q 2488 731 2488 1250 
L 2488 1703 
Q 2384 1638 2221 1594 
Q 2059 1550 1903 1531 
L 1563 1488 
Q 1256 1447 1103 1359 
Q 844 1213 844 891 
z
M 2206 2028 
Q 2400 2053 2466 2191 
Q 2503 2266 2503 2406 
Q 2503 2694 2298 2823 
Q 2094 2953 1713 2953 
Q 1272 2953 1088 2716 
Q 984 2584 953 2325 
L 428 2325 
Q 444 2944 830 3186 
Q 1216 3428 1725 3428 
Q 2316 3428 2684 3203 
Q 3050 2978 3050 2503 
L 3050 575 
Q 3050 488 3086 434 
Q 3122 381 3238 381 
Q 3275 381 3322 386 
Q 3369 391 3422 400 
L 3422 -16 
Q 3291 -53 3222 -62 
Q 3153 -72 3034 -72 
Q 2744 -72 2613 134 
Q 2544 244 2516 444 
Q 2344 219 2022 53 
Q 1700 -113 1313 -113 
Q 847 -113 551 170 
Q 256 453 256 878 
Q 256 1344 547 1600 
Q 838 1856 1309 1916 
L 2206 2028 
z
M 1741 3428 
L 1741 3428 
z
" id="Helvetica-61" transform="scale(0.015625)"/>
       <path d="M 428 4591 
L 991 4591 
L 991 0 
L 428 0 
L 428 4591 
z
" id="Helvetica-6c" transform="scale(0.015625)"/>
       <path d="M 2503 3347 
L 3125 3347 
Q 3006 3025 2597 1878 
Q 2291 1016 2084 472 
Q 1597 -809 1397 -1090 
Q 1197 -1372 709 -1372 
Q 591 -1372 527 -1362 
Q 463 -1353 369 -1328 
L 369 -816 
Q 516 -856 581 -865 
Q 647 -875 697 -875 
Q 853 -875 926 -823 
Q 1000 -772 1050 -697 
Q 1066 -672 1162 -440 
Q 1259 -209 1303 -97 
L 66 3347 
L 703 3347 
L 1600 622 
L 2503 3347 
z
M 1597 3428 
L 1597 3428 
z
" id="Helvetica-79" transform="scale(0.015625)"/>
      </defs>
      <use xlink:href="#Helvetica-50"/>
      <use x="66.699219" xlink:href="#Helvetica-72"/>
      <use x="100" xlink:href="#Helvetica-6f"/>
      <use x="155.615234" xlink:href="#Helvetica-62"/>
      <use x="211.230469" xlink:href="#Helvetica-61"/>
      <use x="266.845703" xlink:href="#Helvetica-62"/>
      <use x="322.460938" xlink:href="#Helvetica-69"/>
      <use x="344.677734" xlink:href="#Helvetica-6c"/>
      <use x="366.894531" xlink:href="#Helvetica-69"/>
      <use x="389.111328" xlink:href="#Helvetica-74"/>
      <use x="416.894531" xlink:href="#Helvetica-79"/>
     </g>
    </g>
   </g>
   <g id="patch_83">
    <path d="M 94.94 141.64 
L 94.94 28.8 
" style="fill:none;stroke:#000000;stroke-linecap:square;stroke-linejoin:miter;"/>
   </g>
  </g>
 </g>
 <defs>
  <clipPath id="pbaab1e2be4">
   <rect height="112.84" width="243.46" x="94.94" y="28.8"/>
  </clipPath>
 </defs>
</svg>
