<?xml version="1.0" encoding="utf-8" standalone="no"?>
<!DOCTYPE svg PUBLIC "-//W3C//DTD SVG 1.1//EN"
  "http://www.w3.org/Graphics/SVG/1.1/DTD/svg11.dtd">
<svg height="216pt" version="1.1" viewBox="0 0 306 216" width="306pt" xmlns="http://www.w3.org/2000/svg" xmlns:xlink="http://www.w3.org/1999/xlink">
 <metadata>
  <rdf:RDF xmlns:cc="http://creativecommons.org/ns#" xmlns:dc="http://purl.org/dc/elements/1.1/" xmlns:rdf="http://www.w3.org/1999/02/22-rdf-syntax-ns#">
   <cc:Work>
    <dc:type rdf:resource="http://purl.org/dc/dcmitype/StillImage"/>
    <dc:date>2022-03-08T12:24:09.212341</dc:date>
    <dc:format>image/svg+xml</dc:format>
    <dc:creator>
     <cc:Agent>
      <dc:title>Matplotlib v3.4.2, https://matplotlib.org/</dc:title>
     </cc:Agent>
    </dc:creator>
   </cc:Work>
  </rdf:RDF>
 </metadata>
 <defs>
  <style type="text/css">*{stroke-linecap:butt;stroke-linejoin:round;}</style>
 </defs>
 <g id="figure_1">
  <g id="patch_1">
   <path d="M 0 216 
L 306 216 
L 306 0 
L 0 0 
z
" style="fill:#ffffff;"/>
  </g>
  <g id="axes_1">
   <g id="patch_2">
    <path d="M 94.94 141.64 
L 284.4 141.64 
L 284.4 28.8 
L 94.94 28.8 
z
" style="fill:#ffffff;"/>
   </g>
   <g id="line2d_1">
    <path clip-path="url(#p9d8a1fdedc)" d="M 94.94 141.64 
L 284.4 141.64 
" style="fill:none;stroke:#000000;stroke-linecap:round;stroke-width:0.5;"/>
   </g>
   <g id="patch_3">
    <path clip-path="url(#p9d8a1fdedc)" d="M 105.558702 132.425965 
L 105.558702 133.523782 
L 101.148734 133.523782 
L 101.148734 141.64 
L 99.349968 141.64 
L 99.349968 133.523782 
L 94.94 133.523782 
L 94.94 132.425965 
L 105.558702 132.425965 
z
" style="fill:#ff0000;"/>
   </g>
   <g id="patch_4">
    <path clip-path="url(#p9d8a1fdedc)" d="M 100.523163 110.997894 
Q 102.797109 110.997894 104.051431 113.036552 
Q 105.305752 115.070779 105.443962 117.658988 
L 103.863673 117.658988 
Q 103.595077 115.695672 102.791894 114.547819 
Q 101.988711 113.395534 100.53881 113.395534 
Q 98.770765 113.395534 97.683339 115.509534 
Q 96.595913 117.619102 96.595913 121.980058 
Q 96.595913 125.556573 97.576421 127.78137 
Q 98.559538 130.001735 100.507517 130.001735 
Q 102.299032 130.001735 103.237817 127.66171 
Q 103.733287 126.429651 103.978414 124.417584 
L 105.558702 124.417584 
Q 105.347475 127.630687 104.158348 129.806733 
Q 102.731916 132.425965 100.311937 132.425965 
Q 98.225748 132.425965 96.807139 130.27651 
Q 94.94 127.440116 94.94 121.51028 
Q 94.94 117.011936 96.342962 114.131223 
Q 97.858057 110.997894 100.523163 110.997894 
z
M 100.197196 110.997894 
L 100.197196 110.997894 
z
" style="fill:#0000ff;"/>
   </g>
   <g id="patch_5">
    <path clip-path="url(#p9d8a1fdedc)" d="M 100.416455 80.925442 
Q 102.054581 80.925442 103.249628 82.481665 
Q 104.981434 84.716401 105.368811 90.318804 
L 103.811705 90.318804 
Q 103.525603 87.187683 102.63185 85.755958 
Q 101.738096 84.324233 100.375945 84.324233 
Q 98.763138 84.324233 97.659238 87.305956 
Q 96.555339 90.281454 96.555339 96.176427 
Q 96.555339 101.268388 97.464284 104.467983 
Q 98.37576 107.667577 100.431646 107.667577 
Q 102.006475 107.667577 103.039482 105.426616 
Q 104.072489 103.17943 104.095276 98.155942 
L 100.456965 98.155942 
L 100.456965 94.950123 
L 105.558702 94.950123 
L 105.558702 110.238457 
L 104.54595 110.238457 
L 104.166168 106.559546 
Q 103.368626 108.719584 102.750848 109.559944 
Q 101.712777 110.997894 100.115161 110.997894 
Q 98.05168 110.997894 96.562935 107.711151 
Q 94.94 103.584048 94.94 96.388073 
Q 94.94 89.210773 96.522425 84.971622 
Q 98.026361 80.925442 100.416455 80.925442 
z
M 100.155671 80.881868 
L 100.155671 80.881868 
z
" style="fill:#ffa600;"/>
   </g>
   <g id="patch_6">
    <path clip-path="url(#p9d8a1fdedc)" d="M 102.067515 59.543163 
L 100.261014 36.53684 
L 98.340473 59.543163 
L 102.067515 59.543163 
z
M 99.418672 28.8 
L 101.240724 28.8 
L 105.558702 80.881868 
L 103.791078 80.881868 
L 102.58588 65.283399 
L 97.879128 65.283399 
L 96.590992 80.881868 
L 94.94 80.881868 
L 99.418672 28.8 
z
M 100.253239 28.8 
L 100.253239 28.8 
z
" style="fill:#008000;"/>
   </g>
   <g id="patch_7">
    <path clip-path="url(#p9d8a1fdedc)" d="M 111.700744 124.774881 
Q 113.97469 124.774881 115.229012 126.379422 
Q 116.483333 127.980475 116.621543 130.017544 
L 115.041255 130.017544 
Q 114.772658 128.472301 113.969475 127.568875 
Q 113.166292 126.661961 111.716391 126.661961 
Q 109.948346 126.661961 108.86092 128.3258 
Q 107.773494 129.986151 107.773494 133.418473 
Q 107.773494 136.233395 108.754002 137.984438 
Q 109.737119 139.731992 111.685098 139.731992 
Q 113.476613 139.731992 114.415398 137.890258 
Q 114.910868 136.920557 115.155995 135.336945 
L 116.736283 135.336945 
Q 116.525057 137.865841 115.335929 139.578514 
Q 113.909497 141.64 111.489518 141.64 
Q 109.403329 141.64 107.98472 139.948256 
Q 106.117581 137.715851 106.117581 133.048731 
Q 106.117581 129.508277 107.520543 127.240991 
Q 109.035638 124.774881 111.700744 124.774881 
z
M 111.374777 124.774881 
L 111.374777 124.774881 
z
" style="fill:#0000ff;"/>
   </g>
   <g id="patch_8">
    <path clip-path="url(#p9d8a1fdedc)" d="M 111.594036 98.362596 
Q 113.232162 98.362596 114.427209 99.729408 
Q 116.159015 101.692151 116.546392 106.612676 
L 114.989286 106.612676 
Q 114.703184 103.862649 113.809431 102.605182 
Q 112.915677 101.347714 111.553526 101.347714 
Q 109.940719 101.347714 108.83682 103.966527 
Q 107.73292 106.579873 107.73292 111.757359 
Q 107.73292 116.229569 108.641865 119.039736 
Q 109.553341 121.849902 111.609227 121.849902 
Q 113.184056 121.849902 114.217063 119.881692 
Q 115.25007 117.908015 115.272857 113.495944 
L 111.634546 113.495944 
L 111.634546 110.68031 
L 116.736283 110.68031 
L 116.736283 124.107877 
L 115.723531 124.107877 
L 115.34375 120.876732 
Q 114.546208 122.773868 113.928429 123.511947 
Q 112.890358 124.774881 111.292743 124.774881 
Q 109.229261 124.774881 107.740516 121.888173 
Q 106.117581 118.263386 106.117581 111.943245 
Q 106.117581 105.639506 107.700006 101.916308 
Q 109.203942 98.362596 111.594036 98.362596 
z
M 111.333253 98.324325 
L 111.333253 98.324325 
z
" style="fill:#ffa600;"/>
   </g>
   <g id="patch_9">
    <path clip-path="url(#p9d8a1fdedc)" d="M 116.736283 64.633656 
L 116.736283 68.64777 
L 112.326315 68.64777 
L 112.326315 98.324325 
L 110.527549 98.324325 
L 110.527549 68.64777 
L 106.117581 68.64777 
L 106.117581 64.633656 
L 116.736283 64.633656 
z
" style="fill:#ff0000;"/>
   </g>
   <g id="patch_10">
    <path clip-path="url(#p9d8a1fdedc)" d="M 113.245097 49.952082 
L 111.438595 34.123144 
L 109.518054 49.952082 
L 113.245097 49.952082 
z
M 110.596253 28.8 
L 112.418305 28.8 
L 116.736283 64.633656 
L 114.968659 64.633656 
L 113.763461 53.901511 
L 109.056709 53.901511 
L 107.768573 64.633656 
L 106.117581 64.633656 
L 110.596253 28.8 
z
M 111.43082 28.8 
L 111.43082 28.8 
z
" style="fill:#008000;"/>
   </g>
   <g id="patch_11">
    <path clip-path="url(#p9d8a1fdedc)" d="M 122.878326 121.854915 
Q 125.152272 121.854915 126.406593 123.737261 
Q 127.660914 125.615514 127.799124 128.005274 
L 126.218836 128.005274 
Q 125.950239 126.192493 125.147056 125.132651 
Q 124.343873 124.068717 122.893972 124.068717 
Q 121.125927 124.068717 120.038501 126.020627 
Q 118.951075 127.968445 118.951075 131.995027 
Q 118.951075 135.297315 119.931584 137.351527 
Q 120.9147 139.401646 122.862679 139.401646 
Q 124.654194 139.401646 125.592979 137.241041 
Q 126.088449 136.10345 126.333576 134.245657 
L 127.913864 134.245657 
Q 127.702638 137.212397 126.51351 139.221596 
Q 125.087078 141.64 122.667099 141.64 
Q 120.58091 141.64 119.162301 139.655353 
Q 117.295162 137.036438 117.295162 131.561269 
Q 117.295162 127.407834 118.698124 124.747998 
Q 120.213219 121.854915 122.878326 121.854915 
z
M 122.552359 121.854915 
L 122.552359 121.854915 
z
" style="fill:#0000ff;"/>
   </g>
   <g id="patch_12">
    <path clip-path="url(#p9d8a1fdedc)" d="M 127.913864 99.322527 
L 127.913864 102.007174 
L 123.503896 102.007174 
L 123.503896 121.854915 
L 121.705131 121.854915 
L 121.705131 102.007174 
L 117.295162 102.007174 
L 117.295162 99.322527 
L 127.913864 99.322527 
z
" style="fill:#ff0000;"/>
   </g>
   <g id="patch_13">
    <path clip-path="url(#p9d8a1fdedc)" d="M 122.771617 69.162971 
Q 124.409743 69.162971 125.60479 70.723701 
Q 127.336596 72.96491 127.723973 78.58354 
L 126.166868 78.58354 
Q 125.880765 75.44335 124.987012 74.007478 
Q 124.093258 72.571606 122.731107 72.571606 
Q 121.1183 72.571606 120.014401 75.561966 
Q 118.910501 78.546083 118.910501 84.45813 
Q 118.910501 89.56484 119.819446 92.773702 
Q 120.730923 95.982564 122.786809 95.982564 
Q 124.361638 95.982564 125.394644 93.735112 
Q 126.427651 91.481417 126.450438 86.443379 
L 122.812127 86.443379 
L 122.812127 83.228274 
L 127.913864 83.228274 
L 127.913864 98.56089 
L 126.901113 98.56089 
L 126.521331 94.871324 
Q 125.723789 97.037618 125.10601 97.880412 
Q 124.06794 99.322527 122.470324 99.322527 
Q 120.406842 99.322527 118.918097 96.026264 
Q 117.295162 91.887207 117.295162 84.670389 
Q 117.295162 77.4723 118.877587 73.22087 
Q 120.381523 69.162971 122.771617 69.162971 
z
M 122.510834 69.11927 
L 122.510834 69.11927 
z
" style="fill:#ffa600;"/>
   </g>
   <g id="patch_14">
    <path clip-path="url(#p9d8a1fdedc)" d="M 124.422678 52.599874 
L 122.616176 34.789489 
L 120.695635 52.599874 
L 124.422678 52.599874 
z
M 121.773834 28.8 
L 123.595886 28.8 
L 127.913864 69.11927 
L 126.14624 69.11927 
L 124.941042 57.043688 
L 120.23429 57.043688 
L 118.946154 69.11927 
L 117.295162 69.11927 
L 121.773834 28.8 
z
M 122.608401 28.8 
L 122.608401 28.8 
z
" style="fill:#008000;"/>
   </g>
   <g id="patch_15">
    <path clip-path="url(#p9d8a1fdedc)" d="M 134.055907 136.302766 
Q 136.329853 136.302766 137.584174 136.810549 
Q 138.838495 137.317227 138.976705 137.96189 
L 137.396417 137.96189 
Q 137.12782 137.472873 136.324637 137.18697 
Q 135.521454 136.899963 134.071553 136.899963 
Q 132.303508 136.899963 131.216082 137.426511 
Q 130.128656 137.951955 130.128656 139.038168 
Q 130.128656 139.928994 131.109165 140.483139 
Q 132.092281 141.036181 134.04026 141.036181 
Q 135.831775 141.036181 136.77056 140.453335 
Q 137.26603 140.146458 137.511157 139.645299 
L 139.091445 139.645299 
Q 138.880219 140.445608 137.691091 140.98761 
Q 136.264659 141.64 133.84468 141.64 
Q 131.758491 141.64 130.339883 141.104621 
Q 128.472743 140.398141 128.472743 138.921157 
Q 128.472743 137.800724 129.875705 137.083206 
Q 131.3908 136.302766 134.055907 136.302766 
z
M 133.72994 136.302766 
L 133.72994 136.302766 
z
" style="fill:#0000ff;"/>
   </g>
   <g id="patch_16">
    <path clip-path="url(#p9d8a1fdedc)" d="M 139.091445 127.086034 
L 139.091445 128.184172 
L 134.681477 128.184172 
L 134.681477 136.302766 
L 132.882712 136.302766 
L 132.882712 128.184172 
L 128.472743 128.184172 
L 128.472743 127.086034 
L 139.091445 127.086034 
z
" style="fill:#ff0000;"/>
   </g>
   <g id="patch_17">
    <path clip-path="url(#p9d8a1fdedc)" d="M 133.949198 80.985537 
Q 135.587324 80.985537 136.782371 83.371197 
Q 138.514177 86.797005 138.901554 95.385382 
L 137.344449 95.385382 
Q 137.058346 90.585433 136.164593 88.390626 
Q 135.270839 86.195819 133.908688 86.195819 
Q 132.295881 86.195819 131.191982 90.766743 
Q 130.088082 95.328126 130.088082 104.365006 
Q 130.088082 112.170886 130.997027 117.075804 
Q 131.908504 121.980721 133.96439 121.980721 
Q 135.539219 121.980721 136.572225 118.54537 
Q 137.605232 115.100477 137.628019 107.399566 
L 133.989709 107.399566 
L 133.989709 102.485106 
L 139.091445 102.485106 
L 139.091445 125.921832 
L 138.078694 125.921832 
L 137.698912 120.282131 
Q 136.90137 123.593427 136.283591 124.881684 
Q 135.245521 127.086034 133.647905 127.086034 
Q 131.584423 127.086034 130.095678 122.04752 
Q 128.472743 115.720749 128.472743 104.689456 
Q 128.472743 93.686791 130.055168 87.188253 
Q 131.559104 80.985537 133.949198 80.985537 
z
M 133.688415 80.918738 
L 133.688415 80.918738 
z
" style="fill:#ffa600;"/>
   </g>
   <g id="patch_18">
    <path clip-path="url(#p9d8a1fdedc)" d="M 135.600259 59.564927 
L 133.793758 36.542317 
L 131.873216 59.564927 
L 135.600259 59.564927 
z
M 132.951415 28.8 
L 134.773467 28.8 
L 139.091445 80.918738 
L 137.323822 80.918738 
L 136.118624 65.309227 
L 131.411872 65.309227 
L 130.123735 80.918738 
L 128.472743 80.918738 
L 132.951415 28.8 
z
M 133.785982 28.8 
L 133.785982 28.8 
z
" style="fill:#008000;"/>
   </g>
   <g id="patch_19">
    <path clip-path="url(#p9d8a1fdedc)" d="M 150.269027 137.253307 
L 150.269027 137.775964 
L 145.859058 137.775964 
L 145.859058 141.64 
L 144.060293 141.64 
L 144.060293 137.775964 
L 139.650324 137.775964 
L 139.650324 137.253307 
L 150.269027 137.253307 
z
" style="fill:#ff0000;"/>
   </g>
   <g id="patch_20">
    <path clip-path="url(#p9d8a1fdedc)" d="M 145.233488 128.981719 
Q 147.507434 128.981719 148.761755 129.768674 
Q 150.016076 130.553919 150.154286 131.553011 
L 148.573998 131.553011 
Q 148.305401 130.795138 147.502218 130.352048 
Q 146.699036 129.907247 145.249134 129.907247 
Q 143.481089 129.907247 142.393663 130.723286 
Q 141.306237 131.537614 141.306237 133.221014 
Q 141.306237 134.601608 142.286746 135.460416 
Q 143.269862 136.317514 145.217841 136.317514 
Q 147.009356 136.317514 147.948141 135.414225 
Q 148.443611 134.938631 148.688738 134.16194 
L 150.269027 134.16194 
Q 150.0578 135.40225 148.868672 136.24224 
Q 147.44224 137.253307 145.022261 137.253307 
Q 142.936072 137.253307 141.517464 136.423582 
Q 139.650324 135.328687 139.650324 133.039672 
Q 139.650324 131.303238 141.053287 130.191235 
Q 142.568381 128.981719 145.233488 128.981719 
z
M 144.907521 128.981719 
L 144.907521 128.981719 
z
" style="fill:#0000ff;"/>
   </g>
   <g id="patch_21">
    <path clip-path="url(#p9d8a1fdedc)" d="M 146.77784 122.807256 
L 144.971339 116.150259 
L 143.050797 122.807256 
L 146.77784 122.807256 
z
M 144.128996 113.911565 
L 145.951048 113.911565 
L 150.269027 128.981719 
L 148.501403 128.981719 
L 147.296205 124.468222 
L 142.589453 124.468222 
L 141.301316 128.981719 
L 139.650324 128.981719 
L 144.128996 113.911565 
z
M 144.963563 113.911565 
L 144.963563 113.911565 
z
" style="fill:#008000;"/>
   </g>
   <g id="patch_22">
    <path clip-path="url(#p9d8a1fdedc)" d="M 145.12678 28.923146 
Q 146.764906 28.923146 147.959953 33.321222 
Q 149.691758 39.636859 150.079136 55.469932 
L 148.52203 55.469932 
Q 148.235927 46.621004 147.342174 42.574774 
Q 146.448421 38.528544 145.086269 38.528544 
Q 143.473462 38.528544 142.369563 46.955257 
Q 141.265664 55.364379 141.265664 72.02429 
Q 141.265664 86.414794 142.174608 95.457239 
Q 143.086085 104.499683 145.141971 104.499683 
Q 146.7168 104.499683 147.749807 98.166453 
Q 148.782813 91.815632 148.8056 77.618643 
L 145.16729 77.618643 
L 145.16729 68.558606 
L 150.269027 68.558606 
L 150.269027 111.765304 
L 149.256275 111.765304 
L 148.876493 101.368253 
Q 148.078951 107.472782 147.461172 109.847743 
Q 146.423102 113.911565 144.825486 113.911565 
Q 142.762004 113.911565 141.273259 104.622829 
Q 139.650324 92.959131 139.650324 72.622428 
Q 139.650324 52.338502 141.232749 40.358143 
Q 142.736685 28.923146 145.12678 28.923146 
z
M 144.865996 28.8 
L 144.865996 28.8 
z
" style="fill:#ffa600;"/>
   </g>
   <g id="patch_23">
    <path clip-path="url(#p9d8a1fdedc)" d="M 161.446608 128.644488 
L 161.446608 130.192853 
L 157.036639 130.192853 
L 157.036639 141.64 
L 155.237874 141.64 
L 155.237874 130.192853 
L 150.827906 130.192853 
L 150.827906 128.644488 
L 161.446608 128.644488 
z
" style="fill:#ff0000;"/>
   </g>
   <g id="patch_24">
    <path clip-path="url(#p9d8a1fdedc)" d="M 156.411069 111.34052 
Q 158.685015 111.34052 159.939336 112.986813 
Q 161.193657 114.629527 161.331867 116.719603 
L 159.751579 116.719603 
Q 159.482982 115.134151 158.679799 114.207217 
Q 157.876617 113.276704 156.426715 113.276704 
Q 154.65867 113.276704 153.571244 114.983838 
Q 152.483818 116.687393 152.483818 120.209027 
Q 152.483818 123.097197 153.464327 124.893804 
Q 154.447444 126.686831 156.395423 126.686831 
Q 158.186937 126.686831 159.125722 124.797174 
Q 159.621192 123.80224 159.866319 122.177421 
L 161.446608 122.177421 
Q 161.235381 124.772121 160.046253 126.52936 
Q 158.619822 128.644488 156.199842 128.644488 
Q 154.113653 128.644488 152.695045 126.908723 
Q 150.827906 124.618229 150.827906 119.829664 
Q 150.827906 116.197084 152.230868 113.870801 
Q 153.745962 111.34052 156.411069 111.34052 
z
M 156.085102 111.34052 
L 156.085102 111.34052 
z
" style="fill:#0000ff;"/>
   </g>
   <g id="patch_25">
    <path clip-path="url(#p9d8a1fdedc)" d="M 156.304361 72.58101 
Q 157.942487 72.58101 159.137534 74.58678 
Q 160.869339 77.467067 161.256717 84.687841 
L 159.699611 84.687841 
Q 159.413509 80.65223 158.519755 78.806921 
Q 157.626002 76.961613 156.263851 76.961613 
Q 154.651043 76.961613 153.547144 80.804669 
Q 152.443245 84.639702 152.443245 92.237561 
Q 152.443245 98.800443 153.352189 102.924307 
Q 154.263666 107.048171 156.319552 107.048171 
Q 157.894381 107.048171 158.927388 104.159862 
Q 159.960394 101.263529 159.983181 94.788901 
L 156.344871 94.788901 
L 156.344871 90.657014 
L 161.446608 90.657014 
L 161.446608 110.361704 
L 160.433856 110.361704 
L 160.054074 105.620063 
Q 159.256532 108.404072 158.638753 109.487188 
Q 157.600683 111.34052 156.003067 111.34052 
Q 153.939585 111.34052 152.45084 107.104333 
Q 150.827906 101.785029 150.827906 92.510346 
Q 150.827906 83.259732 152.41033 77.796013 
Q 153.914267 72.58101 156.304361 72.58101 
z
M 156.043577 72.524848 
L 156.043577 72.524848 
z
" style="fill:#ffa600;"/>
   </g>
   <g id="patch_26">
    <path clip-path="url(#p9d8a1fdedc)" d="M 157.955421 54.610137 
L 156.14892 35.295392 
L 154.228378 54.610137 
L 157.955421 54.610137 
z
M 155.306577 28.8 
L 157.128629 28.8 
L 161.446608 72.524848 
L 159.678984 72.524848 
L 158.473786 59.429299 
L 153.767034 59.429299 
L 152.478897 72.524848 
L 150.827906 72.524848 
L 155.306577 28.8 
z
M 156.141144 28.8 
L 156.141144 28.8 
z
" style="fill:#008000;"/>
   </g>
   <g id="patch_27">
    <path clip-path="url(#p9d8a1fdedc)" d="M 167.58865 137.255105 
Q 169.862596 137.255105 171.116917 137.672282 
Q 172.371238 138.088553 172.509448 138.618186 
L 170.92916 138.618186 
Q 170.660563 138.216426 169.857381 137.981538 
Q 169.054198 137.745742 167.604296 137.745742 
Q 165.836251 137.745742 164.748825 138.178336 
Q 163.661399 138.610024 163.661399 139.50242 
Q 163.661399 140.234294 164.641908 140.689562 
Q 165.625025 141.143922 167.573004 141.143922 
Q 169.364518 141.143922 170.303304 140.665075 
Q 170.798773 140.412955 171.043901 140.001219 
L 172.624189 140.001219 
Q 172.412962 140.658727 171.223834 141.104018 
Q 169.797403 141.64 167.377423 141.64 
Q 165.291234 141.64 163.872626 141.20015 
Q 162.005487 140.61973 162.005487 139.406288 
Q 162.005487 138.485778 163.408449 137.896288 
Q 164.923544 137.255105 167.58865 137.255105 
z
M 167.262683 137.255105 
L 167.262683 137.255105 
z
" style="fill:#0000ff;"/>
   </g>
   <g id="patch_28">
    <path clip-path="url(#p9d8a1fdedc)" d="M 172.624189 131.898987 
L 172.624189 132.537148 
L 168.21422 132.537148 
L 168.21422 137.255105 
L 166.415455 137.255105 
L 166.415455 132.537148 
L 162.005487 132.537148 
L 162.005487 131.898987 
L 172.624189 131.898987 
z
" style="fill:#ff0000;"/>
   </g>
   <g id="patch_29">
    <path clip-path="url(#p9d8a1fdedc)" d="M 169.133002 120.612299 
L 167.326501 108.443557 
L 165.40596 120.612299 
L 169.133002 120.612299 
z
M 166.484158 104.351307 
L 168.30621 104.351307 
L 172.624189 131.898987 
L 170.856565 131.898987 
L 169.651367 123.648484 
L 164.944615 123.648484 
L 163.656478 131.898987 
L 162.005487 131.898987 
L 166.484158 104.351307 
z
M 167.318725 104.351307 
L 167.318725 104.351307 
z
" style="fill:#008000;"/>
   </g>
   <g id="patch_30">
    <path clip-path="url(#p9d8a1fdedc)" d="M 167.481942 28.909314 
Q 169.120068 28.909314 170.315115 32.81337 
Q 172.04692 38.419596 172.434298 52.4742 
L 170.877192 52.4742 
Q 170.59109 44.619238 169.697336 41.027506 
Q 168.803583 37.435774 167.441432 37.435774 
Q 165.828625 37.435774 164.724725 44.915946 
Q 163.620826 52.380503 163.620826 67.16907 
Q 163.620826 79.943144 164.52977 87.969885 
Q 165.441247 95.996626 167.497133 95.996626 
Q 169.071962 95.996626 170.104969 90.374784 
Q 171.137976 84.737326 171.160763 72.13503 
L 167.522452 72.13503 
L 167.522452 64.092673 
L 172.624189 64.092673 
L 172.624189 102.446127 
L 171.611437 102.446127 
L 171.231655 93.216937 
Q 170.434113 98.635768 169.816335 100.743959 
Q 168.778264 104.351307 167.180648 104.351307 
Q 165.117166 104.351307 163.628421 96.105939 
Q 162.005487 85.752381 162.005487 67.700022 
Q 162.005487 49.694512 163.587911 39.059861 
Q 165.091848 28.909314 167.481942 28.909314 
z
M 167.221158 28.8 
L 167.221158 28.8 
z
" style="fill:#ffa600;"/>
   </g>
   <g id="patch_31">
    <path clip-path="url(#p9d8a1fdedc)" d="M 178.766231 134.34683 
Q 181.040177 134.34683 182.294498 135.040699 
Q 183.548819 135.73306 183.68703 136.613973 
L 182.106741 136.613973 
Q 181.838145 135.945746 181.034962 135.555068 
Q 180.231779 135.162881 178.781878 135.162881 
Q 177.013832 135.162881 175.926406 135.882393 
Q 174.83898 136.600397 174.83898 138.084674 
Q 174.83898 139.301962 175.819489 140.059185 
Q 176.802606 140.814899 178.750585 140.814899 
Q 180.5421 140.814899 181.480885 140.018458 
Q 181.976355 139.599119 182.221482 138.9143 
L 183.80177 138.9143 
Q 183.590543 140.007899 182.401416 140.748529 
Q 180.974984 141.64 178.555005 141.64 
Q 176.468816 141.64 175.050207 140.90842 
Q 173.183068 139.943037 173.183068 137.924782 
Q 173.183068 136.393744 174.58603 135.413277 
Q 176.101125 134.34683 178.766231 134.34683 
z
M 178.440264 134.34683 
L 178.440264 134.34683 
z
" style="fill:#0000ff;"/>
   </g>
   <g id="patch_32">
    <path clip-path="url(#p9d8a1fdedc)" d="M 183.80177 118.642683 
L 183.80177 120.513772 
L 179.391802 120.513772 
L 179.391802 134.34683 
L 177.593036 134.34683 
L 177.593036 120.513772 
L 173.183068 120.513772 
L 173.183068 118.642683 
L 183.80177 118.642683 
z
" style="fill:#ff0000;"/>
   </g>
   <g id="patch_33">
    <path clip-path="url(#p9d8a1fdedc)" d="M 180.310583 103.024513 
L 178.504082 86.185783 
L 176.583541 103.024513 
L 180.310583 103.024513 
z
M 177.661739 80.523055 
L 179.483791 80.523055 
L 183.80177 118.642683 
L 182.034146 118.642683 
L 180.828948 107.225892 
L 176.122196 107.225892 
L 174.83406 118.642683 
L 173.183068 118.642683 
L 177.661739 80.523055 
z
M 178.496307 80.523055 
L 178.496307 80.523055 
z
" style="fill:#008000;"/>
   </g>
   <g id="patch_34">
    <path clip-path="url(#p9d8a1fdedc)" d="M 178.659523 28.874837 
Q 180.297649 28.874837 181.492696 31.547587 
Q 183.224501 35.385656 183.611879 45.007555 
L 182.054773 45.007555 
Q 181.768671 39.629982 180.874917 37.171052 
Q 179.981164 34.712123 178.619013 34.712123 
Q 177.006206 34.712123 175.902306 39.833111 
Q 174.798407 44.943409 174.798407 55.067785 
Q 174.798407 63.813023 175.707352 69.308196 
Q 176.618828 74.80337 178.674714 74.80337 
Q 180.249543 74.80337 181.28255 70.95461 
Q 182.315557 67.095159 182.338344 58.467523 
L 178.700033 58.467523 
L 178.700033 52.961658 
L 183.80177 52.961658 
L 183.80177 79.218753 
L 182.789018 79.218753 
L 182.409236 72.900372 
Q 181.611694 76.610149 180.993916 78.053434 
Q 179.955845 80.523055 178.358229 80.523055 
Q 176.294748 80.523055 174.806003 74.878207 
Q 173.183068 67.790074 173.183068 55.431279 
Q 173.183068 43.104557 174.765492 35.823987 
Q 176.269429 28.874837 178.659523 28.874837 
z
M 178.398739 28.8 
L 178.398739 28.8 
z
" style="fill:#ffa600;"/>
   </g>
   <g id="patch_35">
    <path clip-path="url(#p9d8a1fdedc)" d="M 189.943812 137.256904 
Q 192.217758 137.256904 193.472079 137.67391 
Q 194.726401 138.090009 194.864611 138.619426 
L 193.284322 138.619426 
Q 193.015726 138.217831 192.212543 137.983038 
Q 191.40936 137.747339 189.959459 137.747339 
Q 188.191414 137.747339 187.103988 138.179756 
Q 186.016561 138.611267 186.016561 139.503297 
Q 186.016561 140.234871 186.99707 140.689951 
Q 187.980187 141.144125 189.928166 141.144125 
Q 191.719681 141.144125 192.658466 140.665475 
Q 193.153936 140.413458 193.399063 140.001891 
L 194.979351 140.001891 
Q 194.768124 140.659129 193.578997 141.104238 
Q 192.152565 141.64 189.732586 141.64 
Q 187.646397 141.64 186.227788 141.200331 
Q 184.360649 140.620148 184.360649 139.407205 
Q 184.360649 138.487072 185.763611 137.897824 
Q 187.278706 137.256904 189.943812 137.256904 
z
M 189.617845 137.256904 
L 189.617845 137.256904 
z
" style="fill:#0000ff;"/>
   </g>
   <g id="patch_36">
    <path clip-path="url(#p9d8a1fdedc)" d="M 194.979351 131.902584 
L 194.979351 132.54053 
L 190.569383 132.54053 
L 190.569383 137.256904 
L 188.770617 137.256904 
L 188.770617 132.54053 
L 184.360649 132.54053 
L 184.360649 131.902584 
L 194.979351 131.902584 
z
" style="fill:#ff0000;"/>
   </g>
   <g id="patch_37">
    <path clip-path="url(#p9d8a1fdedc)" d="M 191.488164 121.371952 
L 189.681663 110.018353 
L 187.761122 121.371952 
L 191.488164 121.371952 
z
M 188.83932 106.200229 
L 190.661373 106.200229 
L 194.979351 131.902584 
L 193.211727 131.902584 
L 192.006529 124.204754 
L 187.299777 124.204754 
L 186.011641 131.902584 
L 184.360649 131.902584 
L 188.83932 106.200229 
z
M 189.673888 106.200229 
L 189.673888 106.200229 
z
" style="fill:#008000;"/>
   </g>
   <g id="patch_38">
    <path clip-path="url(#p9d8a1fdedc)" d="M 189.837104 28.911989 
Q 191.47523 28.911989 192.670277 32.911587 
Q 194.402083 38.655011 194.78946 53.053565 
L 193.232354 53.053565 
Q 192.946252 45.006373 192.052498 41.326742 
Q 191.158745 37.647112 189.796594 37.647112 
Q 188.183787 37.647112 187.079887 45.310342 
Q 185.975988 52.957575 185.975988 68.108054 
Q 185.975988 81.19474 186.884933 89.417914 
Q 187.796409 97.641089 189.852295 97.641089 
Q 191.427124 97.641089 192.460131 91.881667 
Q 193.493138 86.106247 193.515925 73.195543 
L 189.877614 73.195543 
L 189.877614 64.95637 
L 194.979351 64.95637 
L 194.979351 104.248425 
L 193.966599 104.248425 
L 193.586817 94.793374 
Q 192.789275 100.344817 192.171497 102.5046 
Q 191.133426 106.200229 189.53581 106.200229 
Q 187.472329 106.200229 185.983584 97.753077 
Q 184.360649 87.146142 184.360649 68.651999 
Q 184.360649 50.205851 185.943074 39.310945 
Q 187.44701 28.911989 189.837104 28.911989 
z
M 189.57632 28.8 
L 189.57632 28.8 
z
" style="fill:#ffa600;"/>
   </g>
   <g id="patch_39">
    <path clip-path="url(#p9d8a1fdedc)" d="M 206.156932 126.589631 
L 206.156932 128.382824 
L 201.746964 128.382824 
L 201.746964 141.64 
L 199.948198 141.64 
L 199.948198 128.382824 
L 195.53823 128.382824 
L 195.53823 126.589631 
L 206.156932 126.589631 
z
" style="fill:#ff0000;"/>
   </g>
   <g id="patch_40">
    <path clip-path="url(#p9d8a1fdedc)" d="M 201.121393 106.813539 
Q 203.395339 106.813539 204.649661 108.695029 
Q 205.903982 110.572428 206.042192 112.961102 
L 204.461904 112.961102 
Q 204.193307 111.149145 203.390124 110.089785 
Q 202.586941 109.026334 201.13704 109.026334 
Q 199.368995 109.026334 198.281569 110.977357 
Q 197.194143 112.92429 197.194143 116.949042 
Q 197.194143 120.249829 198.174651 122.303107 
Q 199.157768 124.352294 201.105747 124.352294 
Q 202.897262 124.352294 203.836047 122.192671 
Q 204.331517 121.055597 204.576644 119.198649 
L 206.156932 119.198649 
Q 205.945706 122.16404 204.756578 124.172326 
Q 203.330146 126.589631 200.910167 126.589631 
Q 198.823978 126.589631 197.405369 124.605886 
Q 195.53823 121.988162 195.53823 116.515481 
Q 195.53823 112.363933 196.941192 109.705307 
Q 198.456287 106.813539 201.121393 106.813539 
z
M 200.795426 106.813539 
L 200.795426 106.813539 
z
" style="fill:#0000ff;"/>
   </g>
   <g id="patch_41">
    <path clip-path="url(#p9d8a1fdedc)" d="M 202.665746 95.484111 
L 200.859244 83.269289 
L 198.938703 95.484111 
L 202.665746 95.484111 
z
M 200.016902 79.161543 
L 201.838954 79.161543 
L 206.156932 106.813539 
L 204.389308 106.813539 
L 203.18411 98.531793 
L 198.477358 98.531793 
L 197.189222 106.813539 
L 195.53823 106.813539 
L 200.016902 79.161543 
z
M 200.851469 79.161543 
L 200.851469 79.161543 
z
" style="fill:#008000;"/>
   </g>
   <g id="patch_42">
    <path clip-path="url(#p9d8a1fdedc)" d="M 201.014685 28.872867 
Q 202.652811 28.872867 203.847858 31.475262 
Q 205.579664 35.212301 205.967041 44.580922 
L 204.409935 44.580922 
Q 204.123833 39.344903 203.23008 36.9507 
Q 202.336326 34.556497 200.974175 34.556497 
Q 199.361368 34.556497 198.257469 39.542685 
Q 197.153569 44.518464 197.153569 54.376335 
Q 197.153569 62.891371 198.062514 68.241895 
Q 198.97399 73.592418 201.029876 73.592418 
Q 202.604705 73.592418 203.637712 69.84497 
Q 204.670719 66.087112 204.693506 57.686582 
L 201.055195 57.686582 
L 201.055195 52.325648 
L 206.156932 52.325648 
L 206.156932 77.891574 
L 205.14418 77.891574 
L 204.764399 71.739513 
Q 203.966857 75.351637 203.349078 76.75693 
Q 202.311007 79.161543 200.713392 79.161543 
Q 198.64991 79.161543 197.161165 73.665285 
Q 195.53823 66.763734 195.53823 54.730261 
Q 195.53823 42.728017 197.120655 35.639093 
Q 198.624591 28.872867 201.014685 28.872867 
z
M 200.753902 28.8 
L 200.753902 28.8 
z
" style="fill:#ffa600;"/>
   </g>
   <g id="patch_43">
    <path clip-path="url(#p9d8a1fdedc)" d="M 217.334513 128.624704 
L 217.334513 130.175426 
L 212.924545 130.175426 
L 212.924545 141.64 
L 211.12578 141.64 
L 211.12578 130.175426 
L 206.715811 130.175426 
L 206.715811 128.624704 
L 217.334513 128.624704 
z
" style="fill:#ff0000;"/>
   </g>
   <g id="patch_44">
    <path clip-path="url(#p9d8a1fdedc)" d="M 212.298975 112.651672 
Q 214.572921 112.651672 215.827242 114.17134 
Q 217.081563 115.687704 217.219773 117.617022 
L 215.639485 117.617022 
Q 215.370888 116.153516 214.567705 115.297877 
Q 213.764522 114.438934 212.314621 114.438934 
Q 210.546576 114.438934 209.45915 116.014763 
Q 208.371724 117.587289 208.371724 120.838057 
Q 208.371724 123.504084 209.352233 125.162504 
Q 210.335349 126.817621 212.283328 126.817621 
Q 214.074843 126.817621 215.013628 125.073306 
Q 215.509098 124.154898 215.754225 122.655052 
L 217.334513 122.655052 
Q 217.123287 125.050181 215.934159 126.672261 
Q 214.507727 128.624704 212.087748 128.624704 
Q 210.001559 128.624704 208.58295 127.022445 
Q 206.715811 124.908125 206.715811 120.487873 
Q 206.715811 117.134693 208.118773 114.987336 
Q 209.633868 112.651672 212.298975 112.651672 
z
M 211.973008 112.651672 
L 211.973008 112.651672 
z
" style="fill:#0000ff;"/>
   </g>
   <g id="patch_45">
    <path clip-path="url(#p9d8a1fdedc)" d="M 212.192266 73.268065 
Q 213.830392 73.268065 215.025439 75.306132 
Q 216.757245 78.232797 217.144622 85.569838 
L 215.587517 85.569838 
Q 215.301414 81.469247 214.407661 79.594225 
Q 213.513907 77.719204 212.151756 77.719204 
Q 210.538949 77.719204 209.43505 81.62414 
Q 208.33115 85.520924 208.33115 93.241122 
Q 208.33115 99.909677 209.240095 104.099943 
Q 210.151572 108.290209 212.207458 108.290209 
Q 213.782287 108.290209 214.815293 105.355392 
Q 215.8483 102.412424 215.871087 95.833543 
L 212.232776 95.833543 
L 212.232776 91.635125 
L 217.334513 91.635125 
L 217.334513 111.657095 
L 216.321762 111.657095 
L 215.94198 106.839105 
Q 215.144438 109.667942 214.526659 110.768498 
Q 213.488589 112.651672 211.890973 112.651672 
Q 209.827491 112.651672 208.338746 108.347275 
Q 206.715811 102.942321 206.715811 93.518299 
Q 206.715811 84.118734 208.298236 78.56704 
Q 209.802172 73.268065 212.192266 73.268065 
z
M 211.931483 73.211 
L 211.931483 73.211 
z
" style="fill:#ffa600;"/>
   </g>
   <g id="patch_46">
    <path clip-path="url(#p9d8a1fdedc)" d="M 213.843327 55.015162 
L 212.036825 35.397321 
L 210.116284 55.015162 
L 213.843327 55.015162 
z
M 211.194483 28.8 
L 213.016535 28.8 
L 217.334513 73.211 
L 215.566889 73.211 
L 214.361691 59.909949 
L 209.654939 59.909949 
L 208.366803 73.211 
L 206.715811 73.211 
L 211.194483 28.8 
z
M 212.02905 28.8 
L 212.02905 28.8 
z
" style="fill:#008000;"/>
   </g>
   <g id="patch_47">
    <path clip-path="url(#p9d8a1fdedc)" d="M 228.512094 135.310859 
L 228.512094 136.064952 
L 224.102126 136.064952 
L 224.102126 141.64 
L 222.303361 141.64 
L 222.303361 136.064952 
L 217.893392 136.064952 
L 217.893392 135.310859 
L 228.512094 135.310859 
z
" style="fill:#ff0000;"/>
   </g>
   <g id="patch_48">
    <path clip-path="url(#p9d8a1fdedc)" d="M 223.476556 121.214627 
Q 225.750502 121.214627 227.004823 122.555737 
Q 228.259144 123.893932 228.397354 125.596558 
L 226.817066 125.596558 
Q 226.548469 124.305011 225.745286 123.549908 
Q 224.942103 122.791889 223.492202 122.791889 
Q 221.724157 122.791889 220.636731 124.182562 
Q 219.549305 125.570319 219.549305 128.439128 
Q 219.549305 130.791902 220.529814 132.255461 
Q 221.51293 133.716105 223.460909 133.716105 
Q 225.252424 133.716105 226.191209 132.176744 
Q 226.686679 131.366247 226.931806 130.042629 
L 228.512094 130.042629 
Q 228.300868 132.156335 227.11174 133.587825 
Q 225.685308 135.310859 223.265329 135.310859 
Q 221.17914 135.310859 219.760531 133.896863 
Q 217.893392 132.030971 217.893392 128.13009 
Q 217.893392 125.170902 219.296354 123.275855 
Q 220.811449 121.214627 223.476556 121.214627 
z
M 223.150589 121.214627 
L 223.150589 121.214627 
z
" style="fill:#0000ff;"/>
   </g>
   <g id="patch_49">
    <path clip-path="url(#p9d8a1fdedc)" d="M 223.369847 79.649827 
Q 225.007973 79.649827 226.20302 81.800769 
Q 227.934826 84.889521 228.322203 92.632912 
L 226.765098 92.632912 
Q 226.478995 88.305217 225.585242 86.326351 
Q 224.691488 84.347484 223.329337 84.347484 
Q 221.71653 84.347484 220.612631 88.468689 
Q 219.508731 92.581289 219.508731 100.729057 
Q 219.508731 107.766939 220.417676 112.189275 
Q 221.329153 116.611612 223.385039 116.611612 
Q 224.959868 116.611612 225.992874 113.514255 
Q 227.025881 110.408295 227.048668 103.465055 
L 223.410357 103.465055 
L 223.410357 99.034115 
L 228.512094 99.034115 
L 228.512094 120.164968 
L 227.499343 120.164968 
L 227.119561 115.080141 
Q 226.322019 118.065648 225.70424 119.227157 
Q 224.66617 121.214627 223.068554 121.214627 
Q 221.005072 121.214627 219.516327 116.671838 
Q 217.893392 110.96754 217.893392 101.021585 
Q 217.893392 91.101441 219.475817 85.242276 
Q 220.979753 79.649827 223.369847 79.649827 
z
M 223.109064 79.589601 
L 223.109064 79.589601 
z
" style="fill:#ffa600;"/>
   </g>
   <g id="patch_50">
    <path clip-path="url(#p9d8a1fdedc)" d="M 225.020908 58.780357 
L 223.214407 36.344872 
L 221.293865 58.780357 
L 225.020908 58.780357 
z
M 222.372064 28.8 
L 224.194116 28.8 
L 228.512094 79.589601 
L 226.744471 79.589601 
L 225.539273 64.378165 
L 220.832521 64.378165 
L 219.544384 79.589601 
L 217.893392 79.589601 
L 222.372064 28.8 
z
M 223.206631 28.8 
L 223.206631 28.8 
z
" style="fill:#008000;"/>
   </g>
   <g id="patch_51">
    <path clip-path="url(#p9d8a1fdedc)" d="M 234.654137 134.363916 
Q 236.928083 134.363916 238.182404 135.05616 
Q 239.436725 135.746899 239.574935 136.625747 
L 237.994647 136.625747 
Q 237.72605 135.959087 236.922867 135.569323 
Q 236.119685 135.178055 234.669783 135.178055 
Q 232.901738 135.178055 231.814312 135.895882 
Q 230.726886 136.612204 230.726886 138.093003 
Q 230.726886 139.30744 231.707395 140.062888 
Q 232.690511 140.816832 234.63849 140.816832 
Q 236.430005 140.816832 237.36879 140.022256 
Q 237.86426 139.6039 238.109387 138.920686 
L 239.689676 138.920686 
Q 239.478449 140.011722 238.289321 140.750617 
Q 236.862889 141.64 234.44291 141.64 
Q 232.356721 141.64 230.938113 140.910134 
Q 229.070973 139.947013 229.070973 137.933486 
Q 229.070973 136.406035 230.473936 135.427865 
Q 231.98903 134.363916 234.654137 134.363916 
z
M 234.32817 134.363916 
L 234.32817 134.363916 
z
" style="fill:#0000ff;"/>
   </g>
   <g id="patch_52">
    <path clip-path="url(#p9d8a1fdedc)" d="M 234.547429 113.027013 
Q 236.185554 113.027013 237.380602 114.131179 
Q 239.112407 115.716762 239.499785 119.691759 
L 237.942679 119.691759 
Q 237.656576 117.470177 236.762823 116.454345 
Q 235.86907 115.438512 234.506918 115.438512 
Q 232.894111 115.438512 231.790212 117.554094 
Q 230.686312 119.665259 230.686312 123.84784 
Q 230.686312 127.460671 231.595257 129.730836 
Q 232.506734 132.001001 234.56262 132.001001 
Q 236.137449 132.001001 237.170456 130.411002 
Q 238.203462 128.816587 238.226249 125.252339 
L 234.587939 125.252339 
L 234.587939 122.977757 
L 239.689676 122.977757 
L 239.689676 133.825083 
L 238.676924 133.825083 
L 238.297142 131.214835 
Q 237.4996 132.747417 236.881821 133.343667 
Q 235.843751 134.363916 234.246135 134.363916 
Q 232.182653 134.363916 230.693908 132.031918 
Q 229.070973 129.10367 229.070973 123.998006 
Q 229.070973 118.905593 230.653398 115.897845 
Q 232.157334 113.027013 234.547429 113.027013 
z
M 234.286645 112.996097 
L 234.286645 112.996097 
z
" style="fill:#ffa600;"/>
   </g>
   <g id="patch_53">
    <path clip-path="url(#p9d8a1fdedc)" d="M 236.198489 95.82381 
L 234.391988 77.30951 
L 232.471446 95.82381 
L 236.198489 95.82381 
z
M 233.549645 71.0833 
L 235.371697 71.0833 
L 239.689676 112.996097 
L 237.922052 112.996097 
L 236.716854 100.443255 
L 232.010102 100.443255 
L 230.721965 112.996097 
L 229.070973 112.996097 
L 233.549645 71.0833 
z
M 234.384212 71.0833 
L 234.384212 71.0833 
z
" style="fill:#008000;"/>
   </g>
   <g id="patch_54">
    <path clip-path="url(#p9d8a1fdedc)" d="M 239.689676 28.8 
L 239.689676 33.837893 
L 235.279707 33.837893 
L 235.279707 71.0833 
L 233.480942 71.0833 
L 233.480942 33.837893 
L 229.070973 33.837893 
L 229.070973 28.8 
L 239.689676 28.8 
z
" style="fill:#ff0000;"/>
   </g>
   <g id="patch_55">
    <path clip-path="url(#p9d8a1fdedc)" d="M 245.72501 132.415051 
Q 247.363136 132.415051 248.558183 132.892434 
Q 250.289988 133.577956 250.677366 135.296535 
L 249.12026 135.296535 
Q 248.834158 134.336041 247.940404 133.896848 
Q 247.046651 133.457656 245.6845 133.457656 
Q 244.071692 133.457656 242.967793 134.372322 
Q 241.863894 135.285078 241.863894 137.093405 
Q 241.863894 138.655402 242.772838 139.636901 
Q 243.684315 140.6184 245.740201 140.6184 
Q 247.31503 140.6184 248.348037 139.930969 
Q 249.381043 139.241628 249.40383 137.700636 
L 245.76552 137.700636 
L 245.76552 136.717227 
L 250.867257 136.717227 
L 250.867257 141.407037 
L 249.854505 141.407037 
L 249.474723 140.278504 
Q 248.677181 140.941111 248.059402 141.198898 
Q 247.021332 141.64 245.423716 141.64 
Q 243.360234 141.64 241.871489 140.631767 
Q 240.248555 139.365748 240.248555 137.158329 
Q 240.248555 134.956638 241.830979 133.656247 
Q 243.334916 132.415051 245.72501 132.415051 
z
M 245.464226 132.401685 
L 245.464226 132.401685 
z
" style="fill:#ffa600;"/>
   </g>
   <g id="patch_56">
    <path clip-path="url(#p9d8a1fdedc)" d="M 245.831718 115.499696 
Q 248.105664 115.499696 249.359985 117.107744 
Q 250.614306 118.712297 250.752516 120.75382 
L 249.172228 120.75382 
Q 248.903631 119.205199 248.100448 118.299798 
Q 247.297266 117.390901 245.847364 117.390901 
Q 244.079319 117.390901 242.991893 119.058377 
Q 241.904467 120.722358 241.904467 124.162184 
Q 241.904467 126.98326 242.884976 128.738131 
Q 243.868093 130.489505 245.816071 130.489505 
Q 247.607586 130.489505 248.546371 128.643745 
Q 249.041841 127.671924 249.286968 126.08485 
L 250.867257 126.08485 
Q 250.65603 128.619275 249.466902 130.335692 
Q 248.040471 132.401685 245.620491 132.401685 
Q 243.534302 132.401685 242.115694 130.706242 
Q 240.248555 128.468957 240.248555 123.791633 
Q 240.248555 120.243439 241.651517 117.971196 
Q 243.166611 115.499696 245.831718 115.499696 
z
M 245.505751 115.499696 
L 245.505751 115.499696 
z
" style="fill:#0000ff;"/>
   </g>
   <g id="patch_57">
    <path clip-path="url(#p9d8a1fdedc)" d="M 247.37607 102.972441 
L 245.569569 89.466182 
L 243.649027 102.972441 
L 247.37607 102.972441 
z
M 244.727226 84.924137 
L 246.549278 84.924137 
L 250.867257 115.499696 
L 249.099633 115.499696 
L 247.894435 106.342346 
L 243.187683 106.342346 
L 241.899546 115.499696 
L 240.248555 115.499696 
L 244.727226 84.924137 
z
M 245.561793 84.924137 
L 245.561793 84.924137 
z
" style="fill:#008000;"/>
   </g>
   <g id="patch_58">
    <path clip-path="url(#p9d8a1fdedc)" d="M 250.867257 28.8 
L 250.867257 35.486975 
L 246.457288 35.486975 
L 246.457288 84.924137 
L 244.658523 84.924137 
L 244.658523 35.486975 
L 240.248555 35.486975 
L 240.248555 28.8 
L 250.867257 28.8 
z
" style="fill:#ff0000;"/>
   </g>
   <g id="patch_59">
    <path clip-path="url(#p9d8a1fdedc)" d="M 256.902591 131.460499 
Q 258.540717 131.460499 259.735764 131.987279 
Q 261.467569 132.743735 261.854947 134.640144 
L 260.297841 134.640144 
Q 260.011739 133.580262 259.117985 133.095625 
Q 258.224232 132.610987 256.862081 132.610987 
Q 255.249274 132.610987 254.145374 133.620298 
Q 253.041475 134.627502 253.041475 136.622945 
Q 253.041475 138.34657 253.950419 139.42963 
Q 254.861896 140.51269 256.917782 140.51269 
Q 258.492611 140.51269 259.525618 139.754127 
Q 260.558625 138.993456 260.581411 137.29301 
L 256.943101 137.29301 
L 256.943101 136.207842 
L 262.044838 136.207842 
L 262.044838 141.382931 
L 261.032086 141.382931 
L 260.652304 140.137623 
Q 259.854762 140.868794 259.236984 141.153255 
Q 258.198913 141.64 256.601297 141.64 
Q 254.537815 141.64 253.04907 140.52744 
Q 251.426136 139.130419 251.426136 136.694587 
Q 251.426136 134.265077 253.00856 132.830127 
Q 254.512497 131.460499 256.902591 131.460499 
z
M 256.641807 131.445749 
L 256.641807 131.445749 
z
" style="fill:#ffa600;"/>
   </g>
   <g id="patch_60">
    <path clip-path="url(#p9d8a1fdedc)" d="M 262.044838 106.267675 
L 262.044838 109.267546 
L 257.634869 109.267546 
L 257.634869 131.445749 
L 255.836104 131.445749 
L 255.836104 109.267546 
L 251.426136 109.267546 
L 251.426136 106.267675 
L 262.044838 106.267675 
z
" style="fill:#ff0000;"/>
   </g>
   <g id="patch_61">
    <path clip-path="url(#p9d8a1fdedc)" d="M 257.009299 80.692119 
Q 259.283245 80.692119 260.537566 83.125368 
Q 261.791887 85.553326 261.930097 88.642494 
L 260.349809 88.642494 
Q 260.081212 86.29917 259.27803 84.929145 
Q 258.474847 83.553831 257.024945 83.553831 
Q 255.2569 83.553831 254.169474 86.077004 
Q 253.082048 88.594887 253.082048 93.799922 
Q 253.082048 98.068686 254.062557 100.724101 
Q 255.045674 103.374226 256.993653 103.374226 
Q 258.785167 103.374226 259.723952 100.58128 
Q 260.219422 99.110751 260.46455 96.709241 
L 262.044838 96.709241 
Q 261.833611 100.544252 260.644483 103.14148 
Q 259.218052 106.267675 256.798072 106.267675 
Q 254.711883 106.267675 253.293275 103.702185 
Q 251.426136 100.316796 251.426136 93.239217 
Q 251.426136 87.870202 252.829098 84.431916 
Q 254.344193 80.692119 257.009299 80.692119 
z
M 256.683332 80.692119 
L 256.683332 80.692119 
z
" style="fill:#0000ff;"/>
   </g>
   <g id="patch_62">
    <path clip-path="url(#p9d8a1fdedc)" d="M 258.553651 59.431157 
L 256.74715 36.508653 
L 254.826609 59.431157 
L 258.553651 59.431157 
z
M 255.904807 28.8 
L 257.726859 28.8 
L 262.044838 80.692119 
L 260.277214 80.692119 
L 259.072016 65.150481 
L 254.365264 65.150481 
L 253.077127 80.692119 
L 251.426136 80.692119 
L 255.904807 28.8 
z
M 256.739374 28.8 
L 256.739374 28.8 
z
" style="fill:#008000;"/>
   </g>
   <g id="patch_63">
    <path clip-path="url(#p9d8a1fdedc)" d="M 268.080172 134.365464 
Q 269.718298 134.365464 270.913345 134.741915 
Q 272.64515 135.282498 273.032528 136.637721 
L 271.475422 136.637721 
Q 271.18932 135.880302 270.295566 135.533967 
Q 269.401813 135.187633 268.039662 135.187633 
Q 266.426855 135.187633 265.322955 135.908912 
Q 264.219056 136.628686 264.219056 138.054682 
Q 264.219056 139.286429 265.128001 140.060412 
Q 266.039477 140.834395 268.095363 140.834395 
Q 269.670192 140.834395 270.703199 140.292306 
Q 271.736206 139.748711 271.758993 138.533528 
L 268.120682 138.533528 
L 268.120682 137.758039 
L 273.222419 137.758039 
L 273.222419 141.456292 
L 272.209667 141.456292 
L 271.829885 140.566362 
Q 271.032343 141.088876 270.414565 141.292159 
Q 269.376494 141.64 267.778878 141.64 
Q 265.715397 141.64 264.226651 140.844936 
Q 262.603717 139.846588 262.603717 138.10588 
Q 262.603717 136.369688 264.186141 135.344236 
Q 265.690078 134.365464 268.080172 134.365464 
z
M 267.819388 134.354923 
L 267.819388 134.354923 
z
" style="fill:#ffa600;"/>
   </g>
   <g id="patch_64">
    <path clip-path="url(#p9d8a1fdedc)" d="M 269.731232 127.390875 
L 267.924731 119.882587 
L 266.00419 127.390875 
L 269.731232 127.390875 
z
M 267.082388 117.35761 
L 268.90444 117.35761 
L 273.222419 134.354923 
L 271.454795 134.354923 
L 270.249597 129.264245 
L 265.542845 129.264245 
L 264.254709 134.354923 
L 262.603717 134.354923 
L 267.082388 117.35761 
z
M 267.916956 117.35761 
L 267.916956 117.35761 
z
" style="fill:#008000;"/>
   </g>
   <g id="patch_65">
    <path clip-path="url(#p9d8a1fdedc)" d="M 273.222419 90.878277 
L 273.222419 94.033188 
L 268.812451 94.033188 
L 268.812451 117.35761 
L 267.013685 117.35761 
L 267.013685 94.033188 
L 262.603717 94.033188 
L 262.603717 90.878277 
L 273.222419 90.878277 
z
" style="fill:#ff0000;"/>
   </g>
   <g id="patch_66">
    <path clip-path="url(#p9d8a1fdedc)" d="M 268.18688 28.8 
Q 270.460826 28.8 271.715147 34.706103 
Q 272.969468 40.599366 273.107678 48.097549 
L 271.52739 48.097549 
Q 271.258793 42.409715 270.455611 39.084323 
Q 269.652428 35.746091 268.202527 35.746091 
Q 266.434481 35.746091 265.347055 41.870462 
Q 264.259629 47.981995 264.259629 60.615919 
Q 264.259629 70.977278 265.240138 77.422634 
Q 266.223255 83.85515 268.171234 83.85515 
Q 269.962749 83.85515 270.901534 77.075971 
Q 271.397003 73.506631 271.642131 67.677564 
L 273.222419 67.677564 
Q 273.011192 76.986096 271.822065 83.290219 
Q 270.395633 90.878277 267.975654 90.878277 
Q 265.889465 90.878277 264.470856 84.65119 
Q 262.603717 76.434004 262.603717 59.254948 
Q 262.603717 46.223003 264.006679 37.877423 
Q 265.521774 28.8 268.18688 28.8 
z
M 267.860913 28.8 
L 267.860913 28.8 
z
" style="fill:#0000ff;"/>
   </g>
   <g id="patch_67">
    <path clip-path="url(#p9d8a1fdedc)" d="M 280.908813 139.444783 
L 279.102312 137.07801 
L 277.181771 139.444783 
L 280.908813 139.444783 
z
M 278.259969 136.282083 
L 280.082022 136.282083 
L 284.4 141.64 
L 282.632376 141.64 
L 281.427178 140.035309 
L 276.720426 140.035309 
L 275.43229 141.64 
L 273.781298 141.64 
L 278.259969 136.282083 
z
M 279.094537 136.282083 
L 279.094537 136.282083 
z
" style="fill:#008000;"/>
   </g>
   <g id="patch_68">
    <path clip-path="url(#p9d8a1fdedc)" d="M 279.257753 128.992281 
Q 280.895879 128.992281 282.090926 129.369522 
Q 283.822732 129.91124 284.210109 131.269307 
L 282.653003 131.269307 
Q 282.366901 130.510298 281.473147 130.163237 
Q 280.579394 129.816175 279.217243 129.816175 
Q 277.604436 129.816175 276.500536 130.538969 
Q 275.396637 131.260253 275.396637 132.689241 
Q 275.396637 133.923573 276.305582 134.69918 
Q 277.217058 135.474788 279.272944 135.474788 
Q 280.847773 135.474788 281.88078 134.931561 
Q 282.913787 134.386825 282.936574 133.169092 
L 279.298263 133.169092 
L 279.298263 132.391976 
L 284.4 132.391976 
L 284.4 136.097989 
L 283.387248 136.097989 
L 283.007466 135.206192 
Q 282.209924 135.729802 281.592146 135.933512 
Q 280.554075 136.282083 278.956459 136.282083 
Q 276.892978 136.282083 275.404233 135.48535 
Q 273.781298 134.484908 273.781298 132.740546 
Q 273.781298 131.000711 275.363723 129.973107 
Q 276.867659 128.992281 279.257753 128.992281 
z
M 278.996969 128.981719 
L 278.996969 128.981719 
z
" style="fill:#ffa600;"/>
   </g>
   <g id="patch_69">
    <path clip-path="url(#p9d8a1fdedc)" d="M 279.364461 95.613892 
Q 281.638407 95.613892 282.892728 98.788493 
Q 284.14705 101.956194 284.28526 105.986558 
L 282.704971 105.986558 
Q 282.436375 102.929279 281.633192 101.14184 
Q 280.830009 99.347499 279.380108 99.347499 
Q 277.612063 99.347499 276.524636 102.639424 
Q 275.43721 105.924447 275.43721 112.715334 
Q 275.43721 118.28469 276.417719 121.749147 
Q 277.400836 125.206703 279.348815 125.206703 
Q 281.14033 125.206703 282.079115 121.562812 
Q 282.574585 119.644248 282.819712 116.511054 
L 284.4 116.511054 
Q 284.188773 121.514503 282.999646 124.903045 
Q 281.573214 128.981719 279.153235 128.981719 
Q 277.067046 128.981719 275.648437 125.634584 
Q 273.781298 121.217746 273.781298 111.983795 
Q 273.781298 104.978967 275.18426 100.493117 
Q 276.699355 95.613892 279.364461 95.613892 
z
M 279.038494 95.613892 
L 279.038494 95.613892 
z
" style="fill:#0000ff;"/>
   </g>
   <g id="patch_70">
    <path clip-path="url(#p9d8a1fdedc)" d="M 284.4 28.8 
L 284.4 36.760618 
L 279.990032 36.760618 
L 279.990032 95.613892 
L 278.191266 95.613892 
L 278.191266 36.760618 
L 273.781298 36.760618 
L 273.781298 28.8 
L 284.4 28.8 
z
" style="fill:#ff0000;"/>
   </g>
   <g id="matplotlib.axis_1">
    <g id="xtick_1">
     <g id="line2d_2">
      <path clip-path="url(#p9d8a1fdedc)" d="M 100.249351 141.64 
L 100.249351 28.8 
" style="fill:none;stroke:#cccccc;stroke-linecap:round;stroke-width:0.8;"/>
     </g>
     <g id="text_1">
      <!-- 0 -->
      <g style="fill:#262626;" transform="translate(94.688414 162.986875)scale(0.2 -0.2)">
       <defs>
        <path d="M 1731 4475 
Q 2600 4475 2988 3759 
Q 3288 3206 3288 2244 
Q 3288 1331 3016 734 
Q 2622 -122 1728 -122 
Q 922 -122 528 578 
Q 200 1163 200 2147 
Q 200 2909 397 3456 
Q 766 4475 1731 4475 
z
M 1725 391 
Q 2163 391 2422 778 
Q 2681 1166 2681 2222 
Q 2681 2984 2493 3476 
Q 2306 3969 1766 3969 
Q 1269 3969 1039 3501 
Q 809 3034 809 2125 
Q 809 1441 956 1025 
Q 1181 391 1725 391 
z
" id="Helvetica-30" transform="scale(0.015625)"/>
       </defs>
       <use xlink:href="#Helvetica-30"/>
      </g>
     </g>
    </g>
    <g id="xtick_2">
     <g id="line2d_3">
      <path clip-path="url(#p9d8a1fdedc)" d="M 212.025162 141.64 
L 212.025162 28.8 
" style="fill:none;stroke:#cccccc;stroke-linecap:round;stroke-width:0.8;"/>
     </g>
     <g id="text_2">
      <!-- 10 -->
      <g style="fill:#262626;" transform="translate(200.903287 162.986875)scale(0.2 -0.2)">
       <defs>
        <path d="M 613 3169 
L 613 3600 
Q 1222 3659 1462 3798 
Q 1703 3938 1822 4456 
L 2266 4456 
L 2266 0 
L 1666 0 
L 1666 3169 
L 613 3169 
z
" id="Helvetica-31" transform="scale(0.015625)"/>
       </defs>
       <use xlink:href="#Helvetica-31"/>
       <use x="55.615234" xlink:href="#Helvetica-30"/>
      </g>
     </g>
    </g>
    <g id="text_3">
     <!-- Position -->
     <g style="fill:#262626;" transform="translate(145.20125 189.089219)scale(0.25 -0.25)">
      <defs>
       <path d="M 547 4591 
L 2613 4591 
Q 3225 4591 3600 4245 
Q 3975 3900 3975 3275 
Q 3975 2738 3640 2339 
Q 3306 1941 2613 1941 
L 1169 1941 
L 1169 0 
L 547 0 
L 547 4591 
z
M 3347 3272 
Q 3347 3778 2972 3959 
Q 2766 4056 2406 4056 
L 1169 4056 
L 1169 2466 
L 2406 2466 
Q 2825 2466 3086 2644 
Q 3347 2822 3347 3272 
z
" id="Helvetica-50" transform="scale(0.015625)"/>
       <path d="M 1741 363 
Q 2300 363 2508 786 
Q 2716 1209 2716 1728 
Q 2716 2197 2566 2491 
Q 2328 2953 1747 2953 
Q 1231 2953 997 2559 
Q 763 2166 763 1609 
Q 763 1075 997 719 
Q 1231 363 1741 363 
z
M 1763 3444 
Q 2409 3444 2856 3012 
Q 3303 2581 3303 1744 
Q 3303 934 2909 406 
Q 2516 -122 1688 -122 
Q 997 -122 590 345 
Q 184 813 184 1600 
Q 184 2444 612 2944 
Q 1041 3444 1763 3444 
z
M 1744 3428 
L 1744 3428 
z
" id="Helvetica-6f" transform="scale(0.015625)"/>
       <path d="M 747 1050 
Q 772 769 888 619 
Q 1100 347 1625 347 
Q 1938 347 2175 483 
Q 2413 619 2413 903 
Q 2413 1119 2222 1231 
Q 2100 1300 1741 1391 
L 1294 1503 
Q 866 1609 663 1741 
Q 300 1969 300 2372 
Q 300 2847 642 3140 
Q 984 3434 1563 3434 
Q 2319 3434 2653 2991 
Q 2863 2709 2856 2384 
L 2325 2384 
Q 2309 2575 2191 2731 
Q 1997 2953 1519 2953 
Q 1200 2953 1036 2831 
Q 872 2709 872 2509 
Q 872 2291 1088 2159 
Q 1213 2081 1456 2022 
L 1828 1931 
Q 2434 1784 2641 1647 
Q 2969 1431 2969 969 
Q 2969 522 2630 197 
Q 2291 -128 1597 -128 
Q 850 -128 539 211 
Q 228 550 206 1050 
L 747 1050 
z
M 1578 3428 
L 1578 3428 
z
" id="Helvetica-73" transform="scale(0.015625)"/>
       <path d="M 413 3331 
L 984 3331 
L 984 0 
L 413 0 
L 413 3331 
z
M 413 4591 
L 984 4591 
L 984 3953 
L 413 3953 
L 413 4591 
z
" id="Helvetica-69" transform="scale(0.015625)"/>
       <path d="M 525 4281 
L 1094 4281 
L 1094 3347 
L 1628 3347 
L 1628 2888 
L 1094 2888 
L 1094 703 
Q 1094 528 1213 469 
Q 1278 434 1431 434 
Q 1472 434 1519 436 
Q 1566 438 1628 444 
L 1628 0 
Q 1531 -28 1426 -40 
Q 1322 -53 1200 -53 
Q 806 -53 665 148 
Q 525 350 525 672 
L 525 2888 
L 72 2888 
L 72 3347 
L 525 3347 
L 525 4281 
z
" id="Helvetica-74" transform="scale(0.015625)"/>
       <path d="M 413 3347 
L 947 3347 
L 947 2872 
Q 1184 3166 1450 3294 
Q 1716 3422 2041 3422 
Q 2753 3422 3003 2925 
Q 3141 2653 3141 2147 
L 3141 0 
L 2569 0 
L 2569 2109 
Q 2569 2416 2478 2603 
Q 2328 2916 1934 2916 
Q 1734 2916 1606 2875 
Q 1375 2806 1200 2600 
Q 1059 2434 1017 2257 
Q 975 2081 975 1753 
L 975 0 
L 413 0 
L 413 3347 
z
M 1734 3428 
L 1734 3428 
z
" id="Helvetica-6e" transform="scale(0.015625)"/>
      </defs>
      <use xlink:href="#Helvetica-50"/>
      <use x="66.699219" xlink:href="#Helvetica-6f"/>
      <use x="122.314453" xlink:href="#Helvetica-73"/>
      <use x="172.314453" xlink:href="#Helvetica-69"/>
      <use x="194.53125" xlink:href="#Helvetica-74"/>
      <use x="222.314453" xlink:href="#Helvetica-69"/>
      <use x="244.53125" xlink:href="#Helvetica-6f"/>
      <use x="300.146484" xlink:href="#Helvetica-6e"/>
     </g>
    </g>
   </g>
   <g id="matplotlib.axis_2">
    <g id="ytick_1">
     <g id="line2d_4">
      <path clip-path="url(#p9d8a1fdedc)" d="M 94.94 141.64 
L 284.4 141.64 
" style="fill:none;stroke:#cccccc;stroke-linecap:round;stroke-width:0.8;"/>
     </g>
     <g id="text_4">
      <!-- 0 -->
      <g style="fill:#262626;" transform="translate(76.818125 148.813438)scale(0.2 -0.2)">
       <use xlink:href="#Helvetica-30"/>
      </g>
     </g>
    </g>
    <g id="ytick_2">
     <g id="line2d_5">
      <path clip-path="url(#p9d8a1fdedc)" d="M 94.94 113.43 
L 284.4 113.43 
" style="fill:none;stroke:#cccccc;stroke-linecap:round;stroke-width:0.8;"/>
     </g>
     <g id="text_5">
      <!-- 0.25 -->
      <g style="fill:#262626;" transform="translate(49.018125 120.603437)scale(0.2 -0.2)">
       <defs>
        <path d="M 547 681 
L 1200 681 
L 1200 0 
L 547 0 
L 547 681 
z
" id="Helvetica-2e" transform="scale(0.015625)"/>
        <path d="M 200 0 
Q 231 578 439 1006 
Q 647 1434 1250 1784 
L 1850 2131 
Q 2253 2366 2416 2531 
Q 2672 2791 2672 3125 
Q 2672 3516 2437 3745 
Q 2203 3975 1813 3975 
Q 1234 3975 1013 3538 
Q 894 3303 881 2888 
L 309 2888 
Q 319 3472 525 3841 
Q 891 4491 1816 4491 
Q 2584 4491 2939 4075 
Q 3294 3659 3294 3150 
Q 3294 2613 2916 2231 
Q 2697 2009 2131 1694 
L 1703 1456 
Q 1397 1288 1222 1134 
Q 909 863 828 531 
L 3272 531 
L 3272 0 
L 200 0 
z
" id="Helvetica-32" transform="scale(0.015625)"/>
        <path d="M 791 1141 
Q 847 659 1238 475 
Q 1438 381 1700 381 
Q 2200 381 2440 700 
Q 2681 1019 2681 1406 
Q 2681 1875 2395 2131 
Q 2109 2388 1709 2388 
Q 1419 2388 1211 2275 
Q 1003 2163 856 1963 
L 369 1991 
L 709 4400 
L 3034 4400 
L 3034 3856 
L 1131 3856 
L 941 2613 
Q 1097 2731 1238 2791 
Q 1488 2894 1816 2894 
Q 2431 2894 2859 2497 
Q 3288 2100 3288 1491 
Q 3288 856 2895 371 
Q 2503 -113 1644 -113 
Q 1097 -113 676 195 
Q 256 503 206 1141 
L 791 1141 
z
" id="Helvetica-35" transform="scale(0.015625)"/>
       </defs>
       <use xlink:href="#Helvetica-30"/>
       <use x="55.615234" xlink:href="#Helvetica-2e"/>
       <use x="83.398438" xlink:href="#Helvetica-32"/>
       <use x="139.013672" xlink:href="#Helvetica-35"/>
      </g>
     </g>
    </g>
    <g id="ytick_3">
     <g id="line2d_6">
      <path clip-path="url(#p9d8a1fdedc)" d="M 94.94 85.22 
L 284.4 85.22 
" style="fill:none;stroke:#cccccc;stroke-linecap:round;stroke-width:0.8;"/>
     </g>
     <g id="text_6">
      <!-- 0.50 -->
      <g style="fill:#262626;" transform="translate(49.018125 92.393438)scale(0.2 -0.2)">
       <use xlink:href="#Helvetica-30"/>
       <use x="55.615234" xlink:href="#Helvetica-2e"/>
       <use x="83.398438" xlink:href="#Helvetica-35"/>
       <use x="139.013672" xlink:href="#Helvetica-30"/>
      </g>
     </g>
    </g>
    <g id="ytick_4">
     <g id="line2d_7">
      <path clip-path="url(#p9d8a1fdedc)" d="M 94.94 57.01 
L 284.4 57.01 
" style="fill:none;stroke:#cccccc;stroke-linecap:round;stroke-width:0.8;"/>
     </g>
     <g id="text_7">
      <!-- 0.75 -->
      <g style="fill:#262626;" transform="translate(49.018125 64.183437)scale(0.2 -0.2)">
       <defs>
        <path d="M 3347 4400 
L 3347 3909 
Q 3131 3700 2773 3181 
Q 2416 2663 2141 2063 
Q 1869 1478 1728 997 
Q 1638 688 1494 0 
L 872 0 
Q 1084 1281 1809 2550 
Q 2238 3294 2709 3834 
L 234 3834 
L 234 4400 
L 3347 4400 
z
" id="Helvetica-37" transform="scale(0.015625)"/>
       </defs>
       <use xlink:href="#Helvetica-30"/>
       <use x="55.615234" xlink:href="#Helvetica-2e"/>
       <use x="83.398438" xlink:href="#Helvetica-37"/>
       <use x="139.013672" xlink:href="#Helvetica-35"/>
      </g>
     </g>
    </g>
    <g id="ytick_5">
     <g id="line2d_8">
      <path clip-path="url(#p9d8a1fdedc)" d="M 94.94 28.8 
L 284.4 28.8 
" style="fill:none;stroke:#cccccc;stroke-linecap:round;stroke-width:0.8;"/>
     </g>
     <g id="text_8">
      <!-- 1.0 -->
      <g style="fill:#262626;" transform="translate(60.14 35.973437)scale(0.2 -0.2)">
       <use xlink:href="#Helvetica-31"/>
       <use x="55.615234" xlink:href="#Helvetica-2e"/>
       <use x="83.398438" xlink:href="#Helvetica-30"/>
      </g>
     </g>
    </g>
    <g id="text_9">
     <!-- Probability -->
     <g style="fill:#262626;" transform="translate(39.65875 143.579375)rotate(-90)scale(0.25 -0.25)">
      <defs>
       <path d="M 428 3347 
L 963 3347 
L 963 2769 
Q 1028 2938 1284 3180 
Q 1541 3422 1875 3422 
Q 1891 3422 1928 3419 
Q 1966 3416 2056 3406 
L 2056 2813 
Q 2006 2822 1964 2825 
Q 1922 2828 1872 2828 
Q 1447 2828 1219 2554 
Q 991 2281 991 1925 
L 991 0 
L 428 0 
L 428 3347 
z
" id="Helvetica-72" transform="scale(0.015625)"/>
       <path d="M 369 4606 
L 916 4606 
L 916 2941 
Q 1100 3181 1356 3307 
Q 1613 3434 1913 3434 
Q 2538 3434 2927 3004 
Q 3316 2575 3316 1738 
Q 3316 944 2931 419 
Q 2547 -106 1866 -106 
Q 1484 -106 1222 78 
Q 1066 188 888 428 
L 888 0 
L 369 0 
L 369 4606 
z
M 1831 391 
Q 2288 391 2514 753 
Q 2741 1116 2741 1709 
Q 2741 2238 2514 2584 
Q 2288 2931 1847 2931 
Q 1463 2931 1173 2647 
Q 884 2363 884 1709 
Q 884 1238 1003 944 
Q 1225 391 1831 391 
z
" id="Helvetica-62" transform="scale(0.015625)"/>
       <path d="M 844 891 
Q 844 647 1022 506 
Q 1200 366 1444 366 
Q 1741 366 2019 503 
Q 2488 731 2488 1250 
L 2488 1703 
Q 2384 1638 2221 1594 
Q 2059 1550 1903 1531 
L 1563 1488 
Q 1256 1447 1103 1359 
Q 844 1213 844 891 
z
M 2206 2028 
Q 2400 2053 2466 2191 
Q 2503 2266 2503 2406 
Q 2503 2694 2298 2823 
Q 2094 2953 1713 2953 
Q 1272 2953 1088 2716 
Q 984 2584 953 2325 
L 428 2325 
Q 444 2944 830 3186 
Q 1216 3428 1725 3428 
Q 2316 3428 2684 3203 
Q 3050 2978 3050 2503 
L 3050 575 
Q 3050 488 3086 434 
Q 3122 381 3238 381 
Q 3275 381 3322 386 
Q 3369 391 3422 400 
L 3422 -16 
Q 3291 -53 3222 -62 
Q 3153 -72 3034 -72 
Q 2744 -72 2613 134 
Q 2544 244 2516 444 
Q 2344 219 2022 53 
Q 1700 -113 1313 -113 
Q 847 -113 551 170 
Q 256 453 256 878 
Q 256 1344 547 1600 
Q 838 1856 1309 1916 
L 2206 2028 
z
M 1741 3428 
L 1741 3428 
z
" id="Helvetica-61" transform="scale(0.015625)"/>
       <path d="M 428 4591 
L 991 4591 
L 991 0 
L 428 0 
L 428 4591 
z
" id="Helvetica-6c" transform="scale(0.015625)"/>
       <path d="M 2503 3347 
L 3125 3347 
Q 3006 3025 2597 1878 
Q 2291 1016 2084 472 
Q 1597 -809 1397 -1090 
Q 1197 -1372 709 -1372 
Q 591 -1372 527 -1362 
Q 463 -1353 369 -1328 
L 369 -816 
Q 516 -856 581 -865 
Q 647 -875 697 -875 
Q 853 -875 926 -823 
Q 1000 -772 1050 -697 
Q 1066 -672 1162 -440 
Q 1259 -209 1303 -97 
L 66 3347 
L 703 3347 
L 1600 622 
L 2503 3347 
z
M 1597 3428 
L 1597 3428 
z
" id="Helvetica-79" transform="scale(0.015625)"/>
      </defs>
      <use xlink:href="#Helvetica-50"/>
      <use x="66.699219" xlink:href="#Helvetica-72"/>
      <use x="100" xlink:href="#Helvetica-6f"/>
      <use x="155.615234" xlink:href="#Helvetica-62"/>
      <use x="211.230469" xlink:href="#Helvetica-61"/>
      <use x="266.845703" xlink:href="#Helvetica-62"/>
      <use x="322.460938" xlink:href="#Helvetica-69"/>
      <use x="344.677734" xlink:href="#Helvetica-6c"/>
      <use x="366.894531" xlink:href="#Helvetica-69"/>
      <use x="389.111328" xlink:href="#Helvetica-74"/>
      <use x="416.894531" xlink:href="#Helvetica-79"/>
     </g>
    </g>
   </g>
   <g id="patch_71">
    <path d="M 94.94 141.64 
L 94.94 28.8 
" style="fill:none;stroke:#000000;stroke-linecap:square;stroke-linejoin:miter;"/>
   </g>
  </g>
 </g>
 <defs>
  <clipPath id="p9d8a1fdedc">
   <rect height="112.84" width="189.46" x="94.94" y="28.8"/>
  </clipPath>
 </defs>
</svg>
