<?xml version="1.0" encoding="utf-8" standalone="no"?>
<!DOCTYPE svg PUBLIC "-//W3C//DTD SVG 1.1//EN"
  "http://www.w3.org/Graphics/SVG/1.1/DTD/svg11.dtd">
<svg height="216pt" version="1.1" viewBox="0 0 306 216" width="306pt" xmlns="http://www.w3.org/2000/svg" xmlns:xlink="http://www.w3.org/1999/xlink">
 <metadata>
  <rdf:RDF xmlns:cc="http://creativecommons.org/ns#" xmlns:dc="http://purl.org/dc/elements/1.1/" xmlns:rdf="http://www.w3.org/1999/02/22-rdf-syntax-ns#">
   <cc:Work>
    <dc:type rdf:resource="http://purl.org/dc/dcmitype/StillImage"/>
    <dc:date>2022-03-08T12:23:59.357524</dc:date>
    <dc:format>image/svg+xml</dc:format>
    <dc:creator>
     <cc:Agent>
      <dc:title>Matplotlib v3.4.2, https://matplotlib.org/</dc:title>
     </cc:Agent>
    </dc:creator>
   </cc:Work>
  </rdf:RDF>
 </metadata>
 <defs>
  <style type="text/css">*{stroke-linecap:butt;stroke-linejoin:round;}</style>
 </defs>
 <g id="figure_1">
  <g id="patch_1">
   <path d="M 0 216 
L 306 216 
L 306 0 
L 0 0 
z
" style="fill:#ffffff;"/>
  </g>
  <g id="axes_1">
   <g id="patch_2">
    <path d="M 94.94 141.64 
L 284.4 141.64 
L 284.4 28.8 
L 94.94 28.8 
z
" style="fill:#ffffff;"/>
   </g>
   <g id="line2d_1">
    <path clip-path="url(#p2189593a02)" d="M 94.94 141.64 
L 284.4 141.64 
" style="fill:none;stroke:#000000;stroke-linecap:round;stroke-width:0.5;"/>
   </g>
   <g id="patch_3">
    <path clip-path="url(#p2189593a02)" d="M 100.523163 119.160253 
Q 102.797109 119.160253 104.051431 121.298967 
Q 105.305752 123.433032 105.443962 126.148269 
L 103.863673 126.148269 
Q 103.595077 124.088595 102.791894 122.884405 
Q 101.988711 121.675567 100.53881 121.675567 
Q 98.770765 121.675567 97.683339 123.893321 
Q 96.595913 126.106425 96.595913 130.681414 
Q 96.595913 134.433463 97.576421 136.767451 
Q 98.559538 139.09679 100.507517 139.09679 
Q 102.299032 139.09679 103.237817 136.641918 
Q 103.733287 135.34939 103.978414 133.238572 
L 105.558702 133.238572 
Q 105.347475 136.609372 104.158348 138.892217 
Q 102.731916 141.64 100.311937 141.64 
Q 98.225748 141.64 96.807139 139.385051 
Q 94.94 136.409449 94.94 130.18858 
Q 94.94 125.46946 96.342962 122.447364 
Q 97.858057 119.160253 100.523163 119.160253 
z
M 100.197196 119.160253 
L 100.197196 119.160253 
z
" style="fill:#0000ff;"/>
   </g>
   <g id="patch_4">
    <path clip-path="url(#p2189593a02)" d="M 100.416455 93.85205 
Q 102.054581 93.85205 103.249628 95.161728 
Q 104.981434 97.042424 105.368811 101.757262 
L 103.811705 101.757262 
Q 103.525603 99.122192 102.63185 97.917289 
Q 101.738096 96.712385 100.375945 96.712385 
Q 98.763138 96.712385 97.659238 99.221727 
Q 96.555339 101.72583 96.555339 106.686887 
Q 96.555339 110.972151 97.464284 113.664847 
Q 98.37576 116.357544 100.431646 116.357544 
Q 102.006475 116.357544 103.039482 114.471609 
Q 104.072489 112.580435 104.095276 108.352797 
L 100.456965 108.352797 
L 100.456965 105.654862 
L 105.558702 105.654862 
L 105.558702 118.52113 
L 104.54595 118.52113 
L 104.166168 115.425054 
Q 103.368626 117.242886 102.750848 117.950111 
Q 101.712777 119.160253 100.115161 119.160253 
Q 98.05168 119.160253 96.562935 116.394215 
Q 94.94 112.920951 94.94 106.865003 
Q 94.94 100.824772 96.522425 97.257211 
Q 98.026361 93.85205 100.416455 93.85205 
z
M 100.155671 93.815379 
L 100.155671 93.815379 
z
" style="fill:#ffa600;"/>
   </g>
   <g id="patch_5">
    <path clip-path="url(#p2189593a02)" d="M 105.558702 68.470506 
L 105.558702 71.49025 
L 101.148734 71.49025 
L 101.148734 93.815379 
L 99.349968 93.815379 
L 99.349968 71.49025 
L 94.94 71.49025 
L 94.94 68.470506 
L 105.558702 68.470506 
z
" style="fill:#ff0000;"/>
   </g>
   <g id="patch_6">
    <path clip-path="url(#p2189593a02)" d="M 102.067515 52.216918 
L 100.261014 34.693114 
L 98.340473 52.216918 
L 102.067515 52.216918 
z
M 99.418672 28.8 
L 101.240724 28.8 
L 105.558702 68.470506 
L 103.791078 68.470506 
L 102.58588 56.589228 
L 97.879128 56.589228 
L 96.590992 68.470506 
L 94.94 68.470506 
L 99.418672 28.8 
z
M 100.253239 28.8 
L 100.253239 28.8 
z
" style="fill:#008000;"/>
   </g>
   <g id="patch_7">
    <path clip-path="url(#p2189593a02)" d="M 111.594036 127.775721 
Q 113.232162 127.775721 114.427209 128.493186 
Q 116.159015 129.523464 116.546392 132.106335 
L 114.989286 132.106335 
Q 114.703184 130.662797 113.809431 130.00273 
Q 112.915677 129.342663 111.553526 129.342663 
Q 109.940719 129.342663 108.83682 130.717325 
Q 107.73292 132.089116 107.73292 134.806871 
Q 107.73292 137.154414 108.641865 138.62952 
Q 109.553341 140.104627 111.609227 140.104627 
Q 113.184056 140.104627 114.217063 139.071478 
Q 115.25007 138.03546 115.272857 135.719485 
L 111.634546 135.719485 
L 111.634546 134.241509 
L 116.736283 134.241509 
L 116.736283 141.289877 
L 115.723531 141.289877 
L 115.34375 139.593792 
Q 114.546208 140.589632 113.928429 140.977063 
Q 112.890358 141.64 111.292743 141.64 
Q 109.229261 141.64 107.740516 140.124716 
Q 106.117581 138.222 106.117581 134.904446 
Q 106.117581 131.595501 107.700006 129.641128 
Q 109.203942 127.775721 111.594036 127.775721 
z
M 111.333253 127.755632 
L 111.333253 127.755632 
z
" style="fill:#ffa600;"/>
   </g>
   <g id="patch_8">
    <path clip-path="url(#p2189593a02)" d="M 116.736283 100.500675 
L 116.736283 103.747998 
L 112.326315 103.747998 
L 112.326315 127.755632 
L 110.527549 127.755632 
L 110.527549 103.747998 
L 106.117581 103.747998 
L 106.117581 100.500675 
L 116.736283 100.500675 
z
" style="fill:#ff0000;"/>
   </g>
   <g id="patch_9">
    <path clip-path="url(#p2189593a02)" d="M 111.700744 68.470506 
Q 113.97469 68.470506 115.229012 71.517844 
Q 116.483333 74.558557 116.621543 78.427351 
L 115.041255 78.427351 
Q 114.772658 75.492632 113.969475 73.776848 
Q 113.166292 72.05444 111.716391 72.05444 
Q 109.948346 72.05444 108.86092 75.214397 
Q 107.773494 78.367729 107.773494 84.886381 
Q 107.773494 90.232472 108.754002 93.558044 
Q 109.737119 96.876993 111.685098 96.876993 
Q 113.476613 96.876993 114.415398 93.379179 
Q 114.910868 91.537527 115.155995 88.529937 
L 116.736283 88.529937 
Q 116.525057 93.332806 115.335929 96.585508 
Q 113.909497 100.500675 111.489518 100.500675 
Q 109.403329 100.500675 107.98472 97.287721 
Q 106.117581 93.047947 106.117581 84.184169 
Q 106.117581 77.460152 107.520543 73.154131 
Q 109.035638 68.470506 111.700744 68.470506 
z
M 111.374777 68.470506 
L 111.374777 68.470506 
z
" style="fill:#0000ff;"/>
   </g>
   <g id="patch_10">
    <path clip-path="url(#p2189593a02)" d="M 113.245097 52.216918 
L 111.438595 34.693114 
L 109.518054 52.216918 
L 113.245097 52.216918 
z
M 110.596253 28.8 
L 112.418305 28.8 
L 116.736283 68.470506 
L 114.968659 68.470506 
L 113.763461 56.589228 
L 109.056709 56.589228 
L 107.768573 68.470506 
L 106.117581 68.470506 
L 110.596253 28.8 
z
M 111.43082 28.8 
L 111.43082 28.8 
z
" style="fill:#008000;"/>
   </g>
   <g id="patch_11">
    <path clip-path="url(#p2189593a02)" d="M 122.771617 118.239118 
Q 124.409743 118.239118 125.60479 119.450093 
Q 127.336596 121.189053 127.723973 125.548564 
L 126.166868 125.548564 
Q 125.880765 123.112082 124.987012 121.997985 
Q 124.093258 120.883888 122.731107 120.883888 
Q 121.1183 120.883888 120.014401 123.204116 
Q 118.910501 125.5195 118.910501 130.106674 
Q 118.910501 134.068984 119.819446 136.558749 
Q 120.730923 139.048513 122.786809 139.048513 
Q 124.361638 139.048513 125.394644 137.304709 
Q 126.427651 135.556061 126.450438 131.647034 
L 122.812127 131.647034 
L 122.812127 129.152425 
L 127.913864 129.152425 
L 127.913864 141.049044 
L 126.901113 141.049044 
L 126.521331 138.186299 
Q 125.723789 139.867133 125.10601 140.521059 
Q 124.06794 141.64 122.470324 141.64 
Q 120.406842 141.64 118.918097 139.082421 
Q 117.295162 135.870915 117.295162 130.271366 
Q 117.295162 124.686349 118.877587 121.387653 
Q 120.381523 118.239118 122.771617 118.239118 
z
M 122.510834 118.205211 
L 122.510834 118.205211 
z
" style="fill:#ffa600;"/>
   </g>
   <g id="patch_12">
    <path clip-path="url(#p2189593a02)" d="M 122.878326 89.995211 
Q 125.152272 89.995211 126.406593 92.679099 
Q 127.660914 95.357153 127.799124 98.764524 
L 126.218836 98.764524 
Q 125.950239 96.179823 125.147056 94.668677 
Q 124.343873 93.151697 122.893972 93.151697 
Q 121.125927 93.151697 120.038501 95.934772 
Q 118.951075 98.712013 118.951075 104.4532 
Q 118.951075 109.161674 119.931584 112.090613 
Q 120.9147 115.013718 122.862679 115.013718 
Q 124.654194 115.013718 125.592979 111.933081 
Q 126.088449 110.311078 126.333576 107.662197 
L 127.913864 107.662197 
Q 127.702638 111.892239 126.51351 114.756998 
Q 125.087078 118.205211 122.667099 118.205211 
Q 120.58091 118.205211 119.162301 115.375459 
Q 117.295162 111.641354 117.295162 103.834739 
Q 117.295162 97.912681 118.698124 94.12023 
Q 120.213219 89.995211 122.878326 89.995211 
z
M 122.552359 89.995211 
L 122.552359 89.995211 
z
" style="fill:#0000ff;"/>
   </g>
   <g id="patch_13">
    <path clip-path="url(#p2189593a02)" d="M 124.422678 77.654571 
L 122.616176 64.349511 
L 120.695635 77.654571 
L 124.422678 77.654571 
z
M 121.773834 59.875126 
L 123.595886 59.875126 
L 127.913864 89.995211 
L 126.14624 89.995211 
L 124.941042 80.974275 
L 120.23429 80.974275 
L 118.946154 89.995211 
L 117.295162 89.995211 
L 121.773834 59.875126 
z
M 122.608401 59.875126 
L 122.608401 59.875126 
z
" style="fill:#008000;"/>
   </g>
   <g id="patch_14">
    <path clip-path="url(#p2189593a02)" d="M 127.913864 28.8 
L 127.913864 32.502482 
L 123.503896 32.502482 
L 123.503896 59.875126 
L 121.705131 59.875126 
L 121.705131 32.502482 
L 117.295162 32.502482 
L 117.295162 28.8 
L 127.913864 28.8 
z
" style="fill:#ff0000;"/>
   </g>
   <g id="patch_15">
    <path clip-path="url(#p2189593a02)" d="M 139.091445 125.845548 
L 139.091445 127.727396 
L 134.681477 127.727396 
L 134.681477 141.64 
L 132.882712 141.64 
L 132.882712 127.727396 
L 128.472743 127.727396 
L 128.472743 125.845548 
L 139.091445 125.845548 
z
" style="fill:#ff0000;"/>
   </g>
   <g id="patch_16">
    <path clip-path="url(#p2189593a02)" d="M 133.949198 105.305647 
Q 135.587324 105.305647 136.782371 106.368569 
Q 138.514177 107.894925 138.901554 111.721443 
L 137.344449 111.721443 
Q 137.058346 109.582845 136.164593 108.604956 
Q 135.270839 107.627068 133.908688 107.627068 
Q 132.295881 107.627068 131.191982 109.663627 
Q 130.088082 111.695933 130.088082 115.722281 
Q 130.088082 119.200161 130.997027 121.385528 
Q 131.908504 123.570895 133.96439 123.570895 
Q 135.539219 123.570895 136.572225 122.040288 
Q 137.605232 120.505429 137.628019 117.074317 
L 133.989709 117.074317 
L 133.989709 114.884698 
L 139.091445 114.884698 
L 139.091445 125.326842 
L 138.078694 125.326842 
L 137.698912 122.814095 
Q 136.90137 124.289431 136.283591 124.863408 
Q 135.245521 125.845548 133.647905 125.845548 
Q 131.584423 125.845548 130.095678 123.600657 
Q 128.472743 120.781789 128.472743 115.866838 
Q 128.472743 110.964643 130.055168 108.069244 
Q 131.559104 105.305647 133.949198 105.305647 
z
M 133.688415 105.275885 
L 133.688415 105.275885 
z
" style="fill:#ffa600;"/>
   </g>
   <g id="patch_17">
    <path clip-path="url(#p2189593a02)" d="M 134.055907 73.245717 
Q 136.329853 73.245717 137.584174 76.293054 
Q 138.838495 79.333767 138.976705 83.202561 
L 137.396417 83.202561 
Q 137.12782 80.267843 136.324637 78.552059 
Q 135.521454 76.829651 134.071553 76.829651 
Q 132.303508 76.829651 131.216082 79.989607 
Q 130.128656 83.142939 130.128656 89.661592 
Q 130.128656 95.007682 131.109165 98.333255 
Q 132.092281 101.652203 134.04026 101.652203 
Q 135.831775 101.652203 136.77056 98.15439 
Q 137.26603 96.312738 137.511157 93.305148 
L 139.091445 93.305148 
Q 138.880219 98.108017 137.691091 101.360719 
Q 136.264659 105.275885 133.84468 105.275885 
Q 131.758491 105.275885 130.339883 102.062932 
Q 128.472743 97.823157 128.472743 88.95938 
Q 128.472743 82.235363 129.875705 77.929342 
Q 131.3908 73.245717 134.055907 73.245717 
z
M 133.72994 73.245717 
L 133.72994 73.245717 
z
" style="fill:#0000ff;"/>
   </g>
   <g id="patch_18">
    <path clip-path="url(#p2189593a02)" d="M 135.600259 55.035655 
L 133.793758 35.402479 
L 131.873216 55.035655 
L 135.600259 55.035655 
z
M 132.951415 28.8 
L 134.773467 28.8 
L 139.091445 73.245717 
L 137.323822 73.245717 
L 136.118624 59.934268 
L 131.411872 59.934268 
L 130.123735 73.245717 
L 128.472743 73.245717 
L 132.951415 28.8 
z
M 133.785982 28.8 
L 133.785982 28.8 
z
" style="fill:#008000;"/>
   </g>
   <g id="patch_19">
    <path clip-path="url(#p2189593a02)" d="M 145.12678 125.868401 
Q 146.764906 125.868401 147.959953 126.684567 
Q 149.691758 127.856582 150.079136 130.794781 
L 148.52203 130.794781 
Q 148.235927 129.152654 147.342174 128.401781 
Q 146.448421 127.650908 145.086269 127.650908 
Q 143.473462 127.650908 142.369563 129.214683 
Q 141.265664 130.775193 141.265664 133.866831 
Q 141.265664 136.537328 142.174608 138.215366 
Q 143.086085 139.893404 145.141971 139.893404 
Q 146.7168 139.893404 147.749807 138.718124 
Q 148.782813 137.53958 148.8056 134.904995 
L 145.16729 134.904995 
L 145.16729 133.223692 
L 150.269027 133.223692 
L 150.269027 141.241711 
L 149.256275 141.241711 
L 148.876493 139.312293 
Q 148.078951 140.445132 147.461172 140.885862 
Q 146.423102 141.64 144.825486 141.64 
Q 142.762004 141.64 141.273259 139.916257 
Q 139.650324 137.751783 139.650324 133.97783 
Q 139.650324 130.213671 141.232749 127.990433 
Q 142.736685 125.868401 145.12678 125.868401 
z
M 144.865996 125.845548 
L 144.865996 125.845548 
z
" style="fill:#ffa600;"/>
   </g>
   <g id="patch_20">
    <path clip-path="url(#p2189593a02)" d="M 150.269027 96.680506 
L 150.269027 100.155409 
L 145.859058 100.155409 
L 145.859058 125.845548 
L 144.060293 125.845548 
L 144.060293 100.155409 
L 139.650324 100.155409 
L 139.650324 96.680506 
L 150.269027 96.680506 
z
" style="fill:#ff0000;"/>
   </g>
   <g id="patch_21">
    <path clip-path="url(#p2189593a02)" d="M 146.77784 83.165982 
L 144.971339 68.595298 
L 143.050797 83.165982 
L 146.77784 83.165982 
z
M 144.128996 63.695295 
L 145.951048 63.695295 
L 150.269027 96.680506 
L 148.501403 96.680506 
L 147.296205 86.801468 
L 142.589453 86.801468 
L 141.301316 96.680506 
L 139.650324 96.680506 
L 144.128996 63.695295 
z
M 144.963563 63.695295 
L 144.963563 63.695295 
z
" style="fill:#008000;"/>
   </g>
   <g id="patch_22">
    <path clip-path="url(#p2189593a02)" d="M 145.233488 28.8 
Q 147.507434 28.8 148.761755 32.119925 
Q 150.016076 35.432632 150.154286 39.647493 
L 148.573998 39.647493 
Q 148.305401 36.450261 147.502218 34.580999 
Q 146.699036 32.70452 145.249134 32.70452 
Q 143.481089 32.70452 142.393663 36.147138 
Q 141.306237 39.582538 141.306237 46.68429 
Q 141.306237 52.508592 142.286746 56.131641 
Q 143.269862 59.747472 145.217841 59.747472 
Q 147.009356 59.747472 147.948141 55.936776 
Q 148.443611 53.930386 148.688738 50.653765 
L 150.269027 50.653765 
Q 150.0578 55.886255 148.868672 59.429914 
Q 147.44224 63.695295 145.022261 63.695295 
Q 142.936072 63.695295 141.517464 60.19494 
Q 139.650324 55.575914 139.650324 45.919264 
Q 139.650324 38.593778 141.053287 33.90258 
Q 142.568381 28.8 145.233488 28.8 
z
M 144.907521 28.8 
L 144.907521 28.8 
z
" style="fill:#0000ff;"/>
   </g>
   <g id="patch_23">
    <path clip-path="url(#p2189593a02)" d="M 156.304361 123.96108 
Q 157.942487 123.96108 159.137534 124.875949 
Q 160.869339 126.1897 161.256717 129.483227 
L 159.699611 129.483227 
Q 159.413509 127.642511 158.519755 126.800832 
Q 157.626002 125.959153 156.263851 125.959153 
Q 154.651043 125.959153 153.547144 127.712041 
Q 152.443245 129.46127 152.443245 132.926792 
Q 152.443245 135.920242 153.352189 137.801212 
Q 154.263666 139.682181 156.319552 139.682181 
Q 157.894381 139.682181 158.927388 138.364771 
Q 159.960394 137.0437 159.983181 134.090505 
L 156.344871 134.090505 
L 156.344871 132.205875 
L 161.446608 132.205875 
L 161.446608 141.193544 
L 160.433856 141.193544 
L 160.054074 139.030795 
Q 159.256532 140.300632 158.638753 140.794661 
Q 157.600683 141.64 156.003067 141.64 
Q 153.939585 141.64 152.45084 139.707798 
Q 150.827906 137.281566 150.827906 133.051214 
Q 150.827906 128.83184 152.41033 126.339738 
Q 153.914267 123.96108 156.304361 123.96108 
z
M 156.043577 123.935464 
L 156.043577 123.935464 
z
" style="fill:#ffa600;"/>
   </g>
   <g id="patch_24">
    <path clip-path="url(#p2189593a02)" d="M 161.446608 100.500675 
L 161.446608 103.29284 
L 157.036639 103.29284 
L 157.036639 123.935464 
L 155.237874 123.935464 
L 155.237874 103.29284 
L 150.827906 103.29284 
L 150.827906 100.500675 
L 161.446608 100.500675 
z
" style="fill:#ff0000;"/>
   </g>
   <g id="patch_25">
    <path clip-path="url(#p2189593a02)" d="M 156.411069 68.470506 
Q 158.685015 68.470506 159.939336 71.517844 
Q 161.193657 74.558557 161.331867 78.427351 
L 159.751579 78.427351 
Q 159.482982 75.492632 158.679799 73.776848 
Q 157.876617 72.05444 156.426715 72.05444 
Q 154.65867 72.05444 153.571244 75.214397 
Q 152.483818 78.367729 152.483818 84.886381 
Q 152.483818 90.232472 153.464327 93.558044 
Q 154.447444 96.876993 156.395423 96.876993 
Q 158.186937 96.876993 159.125722 93.379179 
Q 159.621192 91.537527 159.866319 88.529937 
L 161.446608 88.529937 
Q 161.235381 93.332806 160.046253 96.585508 
Q 158.619822 100.500675 156.199842 100.500675 
Q 154.113653 100.500675 152.695045 97.287721 
Q 150.827906 93.047947 150.827906 84.184169 
Q 150.827906 77.460152 152.230868 73.154131 
Q 153.745962 68.470506 156.411069 68.470506 
z
M 156.085102 68.470506 
L 156.085102 68.470506 
z
" style="fill:#0000ff;"/>
   </g>
   <g id="patch_26">
    <path clip-path="url(#p2189593a02)" d="M 157.955421 52.216918 
L 156.14892 34.693114 
L 154.228378 52.216918 
L 157.955421 52.216918 
z
M 155.306577 28.8 
L 157.128629 28.8 
L 161.446608 68.470506 
L 159.678984 68.470506 
L 158.473786 56.589228 
L 153.767034 56.589228 
L 152.478897 68.470506 
L 150.827906 68.470506 
L 155.306577 28.8 
z
M 156.141144 28.8 
L 156.141144 28.8 
z
" style="fill:#008000;"/>
   </g>
   <g id="patch_27">
    <path clip-path="url(#p2189593a02)" d="M 172.624189 118.205211 
L 172.624189 120.997376 
L 168.21422 120.997376 
L 168.21422 141.64 
L 166.415455 141.64 
L 166.415455 120.997376 
L 162.005487 120.997376 
L 162.005487 118.205211 
L 172.624189 118.205211 
z
" style="fill:#ff0000;"/>
   </g>
   <g id="patch_28">
    <path clip-path="url(#p2189593a02)" d="M 167.481942 92.897008 
Q 169.120068 92.897008 170.315115 94.206685 
Q 172.04692 96.087382 172.434298 100.80222 
L 170.877192 100.80222 
Q 170.59109 98.167149 169.697336 96.962246 
Q 168.803583 95.757343 167.441432 95.757343 
Q 165.828625 95.757343 164.724725 98.266685 
Q 163.620826 100.770788 163.620826 105.731845 
Q 163.620826 110.017109 164.52977 112.709805 
Q 165.441247 115.402502 167.497133 115.402502 
Q 169.071962 115.402502 170.104969 113.516566 
Q 171.137976 111.625392 171.160763 107.397754 
L 167.522452 107.397754 
L 167.522452 104.699819 
L 172.624189 104.699819 
L 172.624189 117.566088 
L 171.611437 117.566088 
L 171.231655 114.470011 
Q 170.434113 116.287843 169.816335 116.995069 
Q 168.778264 118.205211 167.180648 118.205211 
Q 165.117166 118.205211 163.628421 115.439173 
Q 162.005487 111.965909 162.005487 105.909961 
Q 162.005487 99.86973 163.587911 96.302169 
Q 165.091848 92.897008 167.481942 92.897008 
z
M 167.221158 92.860337 
L 167.221158 92.860337 
z
" style="fill:#ffa600;"/>
   </g>
   <g id="patch_29">
    <path clip-path="url(#p2189593a02)" d="M 167.58865 64.650337 
Q 169.862596 64.650337 171.116917 67.334226 
Q 172.371238 70.012279 172.509448 73.419651 
L 170.92916 73.419651 
Q 170.660563 70.834949 169.857381 69.323804 
Q 169.054198 67.806823 167.604296 67.806823 
Q 165.836251 67.806823 164.748825 70.589899 
Q 163.661399 73.36714 163.661399 79.108327 
Q 163.661399 83.816801 164.641908 86.74574 
Q 165.625025 89.668844 167.573004 89.668844 
Q 169.364518 89.668844 170.303304 86.588207 
Q 170.798773 84.966205 171.043901 82.317324 
L 172.624189 82.317324 
Q 172.412962 86.547365 171.223834 89.412124 
Q 169.797403 92.860337 167.377423 92.860337 
Q 165.291234 92.860337 163.872626 90.030585 
Q 162.005487 86.29648 162.005487 78.489866 
Q 162.005487 72.567808 163.408449 68.775357 
Q 164.923544 64.650337 167.58865 64.650337 
z
M 167.262683 64.650337 
L 167.262683 64.650337 
z
" style="fill:#0000ff;"/>
   </g>
   <g id="patch_30">
    <path clip-path="url(#p2189593a02)" d="M 169.133002 49.961929 
L 167.326501 34.125622 
L 165.40596 49.961929 
L 169.133002 49.961929 
z
M 166.484158 28.8 
L 168.30621 28.8 
L 172.624189 64.650337 
L 170.856565 64.650337 
L 169.651367 53.913196 
L 164.944615 53.913196 
L 163.656478 64.650337 
L 162.005487 64.650337 
L 166.484158 28.8 
z
M 167.318725 28.8 
L 167.318725 28.8 
z
" style="fill:#008000;"/>
   </g>
   <g id="patch_31">
    <path clip-path="url(#p2189593a02)" d="M 178.659523 123.96108 
Q 180.297649 123.96108 181.492696 124.875949 
Q 183.224501 126.1897 183.611879 129.483227 
L 182.054773 129.483227 
Q 181.768671 127.642511 180.874917 126.800832 
Q 179.981164 125.959153 178.619013 125.959153 
Q 177.006206 125.959153 175.902306 127.712041 
Q 174.798407 129.46127 174.798407 132.926792 
Q 174.798407 135.920242 175.707352 137.801212 
Q 176.618828 139.682181 178.674714 139.682181 
Q 180.249543 139.682181 181.28255 138.364771 
Q 182.315557 137.0437 182.338344 134.090505 
L 178.700033 134.090505 
L 178.700033 132.205875 
L 183.80177 132.205875 
L 183.80177 141.193544 
L 182.789018 141.193544 
L 182.409236 139.030795 
Q 181.611694 140.300632 180.993916 140.794661 
Q 179.955845 141.64 178.358229 141.64 
Q 176.294748 141.64 174.806003 139.707798 
Q 173.183068 137.281566 173.183068 133.051214 
Q 173.183068 128.83184 174.765492 126.339738 
Q 176.269429 123.96108 178.659523 123.96108 
z
M 178.398739 123.935464 
L 178.398739 123.935464 
z
" style="fill:#ffa600;"/>
   </g>
   <g id="patch_32">
    <path clip-path="url(#p2189593a02)" d="M 183.80177 101.455717 
L 183.80177 104.134092 
L 179.391802 104.134092 
L 179.391802 123.935464 
L 177.593036 123.935464 
L 177.593036 104.134092 
L 173.183068 104.134092 
L 173.183068 101.455717 
L 183.80177 101.455717 
z
" style="fill:#ff0000;"/>
   </g>
   <g id="patch_33">
    <path clip-path="url(#p2189593a02)" d="M 180.310583 88.332487 
L 178.504082 74.183678 
L 176.583541 88.332487 
L 180.310583 88.332487 
z
M 177.661739 69.425548 
L 179.483791 69.425548 
L 183.80177 101.455717 
L 182.034146 101.455717 
L 180.828948 91.862713 
L 176.122196 91.862713 
L 174.83406 101.455717 
L 173.183068 101.455717 
L 177.661739 69.425548 
z
M 178.496307 69.425548 
L 178.496307 69.425548 
z
" style="fill:#008000;"/>
   </g>
   <g id="patch_34">
    <path clip-path="url(#p2189593a02)" d="M 178.766231 28.8 
Q 181.040177 28.8 182.294498 32.665099 
Q 183.548819 36.521795 183.68703 41.42879 
L 182.106741 41.42879 
Q 181.838145 37.706532 181.034962 35.530313 
Q 180.231779 33.345692 178.781878 33.345692 
Q 177.013832 33.345692 175.926406 37.353631 
Q 174.83898 41.353168 174.83898 49.621119 
Q 174.83898 56.401846 175.819489 60.619845 
Q 176.802606 64.829442 178.750585 64.829442 
Q 180.5421 64.829442 181.480885 60.392981 
Q 181.976355 58.057117 182.221482 54.242432 
L 183.80177 54.242432 
Q 183.590543 60.334164 182.401416 64.459737 
Q 180.974984 69.425548 178.555005 69.425548 
Q 176.468816 69.425548 175.050207 65.35039 
Q 173.183068 59.972861 173.183068 48.730465 
Q 173.183068 40.202041 174.58603 34.740489 
Q 176.101125 28.8 178.766231 28.8 
z
M 178.440264 28.8 
L 178.440264 28.8 
z
" style="fill:#0000ff;"/>
   </g>
   <g id="patch_35">
    <path clip-path="url(#p2189593a02)" d="M 189.837104 122.053759 
Q 191.47523 122.053759 192.670277 123.06733 
Q 194.402083 124.522818 194.78946 128.171672 
L 193.232354 128.171672 
Q 192.946252 126.132368 192.052498 125.199883 
Q 191.158745 124.267398 189.796594 124.267398 
Q 188.183787 124.267398 187.079887 126.209399 
Q 185.975988 128.147347 185.975988 131.986752 
Q 185.975988 135.303156 186.884933 137.387057 
Q 187.796409 139.470959 189.852295 139.470959 
Q 191.427124 139.470959 192.460131 138.011417 
Q 193.493138 136.547821 193.515925 133.276014 
L 189.877614 133.276014 
L 189.877614 131.188059 
L 194.979351 131.188059 
L 194.979351 141.145377 
L 193.966599 141.145377 
L 193.586817 138.749296 
Q 192.789275 140.156132 192.171497 140.703461 
Q 191.133426 141.64 189.53581 141.64 
Q 187.472329 141.64 185.983584 139.499339 
Q 184.360649 136.811349 184.360649 132.124598 
Q 184.360649 127.45001 185.943074 124.689043 
Q 187.44701 122.053759 189.837104 122.053759 
z
M 189.57632 122.025379 
L 189.57632 122.025379 
z
" style="fill:#ffa600;"/>
   </g>
   <g id="patch_36">
    <path clip-path="url(#p2189593a02)" d="M 189.943812 94.770422 
Q 192.217758 94.770422 193.472079 97.363448 
Q 194.726401 99.950837 194.864611 103.242852 
L 193.284322 103.242852 
Q 193.015726 100.745655 192.212543 99.285669 
Q 191.40936 97.820046 189.959459 97.820046 
Q 188.191414 97.820046 187.103988 100.508901 
Q 186.016561 103.192119 186.016561 108.73894 
Q 186.016561 113.288009 186.99707 116.11779 
Q 187.980187 118.941933 189.928166 118.941933 
Q 191.719681 118.941933 192.658466 115.96559 
Q 193.153936 114.398501 193.399063 111.839297 
L 194.979351 111.839297 
Q 194.768124 115.926131 193.578997 118.693905 
Q 192.152565 122.025379 189.732586 122.025379 
Q 187.646397 122.025379 186.227788 119.291428 
Q 184.360649 115.68374 184.360649 108.141416 
Q 184.360649 102.419848 185.763611 98.75579 
Q 187.278706 94.770422 189.943812 94.770422 
z
M 189.617845 94.770422 
L 189.617845 94.770422 
z
" style="fill:#0000ff;"/>
   </g>
   <g id="patch_37">
    <path clip-path="url(#p2189593a02)" d="M 194.979351 64.650337 
L 194.979351 68.23903 
L 190.569383 68.23903 
L 190.569383 94.770422 
L 188.770617 94.770422 
L 188.770617 68.23903 
L 184.360649 68.23903 
L 184.360649 64.650337 
L 194.979351 64.650337 
z
" style="fill:#ff0000;"/>
   </g>
   <g id="patch_38">
    <path clip-path="url(#p2189593a02)" d="M 191.488164 49.961929 
L 189.681663 34.125622 
L 187.761122 49.961929 
L 191.488164 49.961929 
z
M 188.83932 28.8 
L 190.661373 28.8 
L 194.979351 64.650337 
L 193.211727 64.650337 
L 192.006529 53.913196 
L 187.299777 53.913196 
L 186.011641 64.650337 
L 184.360649 64.650337 
L 188.83932 28.8 
z
M 189.673888 28.8 
L 189.673888 28.8 
z
" style="fill:#008000;"/>
   </g>
   <g id="patch_39">
    <path clip-path="url(#p2189593a02)" d="M 206.156932 124.890506 
L 206.156932 126.886144 
L 201.746964 126.886144 
L 201.746964 141.64 
L 199.948198 141.64 
L 199.948198 126.886144 
L 195.53823 126.886144 
L 195.53823 124.890506 
L 206.156932 124.890506 
z
" style="fill:#ff0000;"/>
   </g>
   <g id="patch_40">
    <path clip-path="url(#p2189593a02)" d="M 201.014685 99.582303 
Q 202.652811 99.582303 203.847858 100.891981 
Q 205.579664 102.772677 205.967041 107.487515 
L 204.409935 107.487515 
Q 204.123833 104.852445 203.23008 103.647541 
Q 202.336326 102.442638 200.974175 102.442638 
Q 199.361368 102.442638 198.257469 104.95198 
Q 197.153569 107.456083 197.153569 112.41714 
Q 197.153569 116.702404 198.062514 119.3951 
Q 198.97399 122.087797 201.029876 122.087797 
Q 202.604705 122.087797 203.637712 120.201862 
Q 204.670719 118.310688 204.693506 114.08305 
L 201.055195 114.08305 
L 201.055195 111.385114 
L 206.156932 111.385114 
L 206.156932 124.251383 
L 205.14418 124.251383 
L 204.764399 121.155307 
Q 203.966857 122.973138 203.349078 123.680364 
Q 202.311007 124.890506 200.713392 124.890506 
Q 198.64991 124.890506 197.161165 122.124468 
Q 195.53823 118.651204 195.53823 112.595256 
Q 195.53823 106.555025 197.120655 102.987464 
Q 198.624591 99.582303 201.014685 99.582303 
z
M 200.753902 99.545632 
L 200.753902 99.545632 
z
" style="fill:#ffa600;"/>
   </g>
   <g id="patch_41">
    <path clip-path="url(#p2189593a02)" d="M 202.665746 86.813698 
L 200.859244 73.086763 
L 198.938703 86.813698 
L 202.665746 86.813698 
z
M 200.016902 68.470506 
L 201.838954 68.470506 
L 206.156932 99.545632 
L 204.389308 99.545632 
L 203.18411 90.238663 
L 198.477358 90.238663 
L 197.189222 99.545632 
L 195.53823 99.545632 
L 200.016902 68.470506 
z
M 200.851469 68.470506 
L 200.851469 68.470506 
z
" style="fill:#008000;"/>
   </g>
   <g id="patch_42">
    <path clip-path="url(#p2189593a02)" d="M 201.121393 28.8 
Q 203.395339 28.8 204.649661 32.574236 
Q 205.903982 36.340268 206.042192 41.131907 
L 204.461904 41.131907 
Q 204.193307 37.497153 203.390124 35.372094 
Q 202.586941 33.23883 201.13704 33.23883 
Q 199.368995 33.23883 198.281569 37.152549 
Q 197.194143 41.058063 197.194143 49.131647 
Q 197.194143 55.75297 198.174651 59.871811 
Q 199.157768 63.982447 201.105747 63.982447 
Q 202.897262 63.982447 203.836047 59.65028 
Q 204.331517 57.369328 204.576644 53.644321 
L 206.156932 53.644321 
Q 205.945706 59.592846 204.756578 63.621433 
Q 203.330146 68.470506 200.910167 68.470506 
Q 198.823978 68.470506 197.405369 64.491148 
Q 195.53823 59.240037 195.53823 48.261932 
Q 195.53823 39.933997 196.941192 34.600837 
Q 198.456287 28.8 201.121393 28.8 
z
M 200.795426 28.8 
L 200.795426 28.8 
z
" style="fill:#0000ff;"/>
   </g>
   <g id="patch_43">
    <path clip-path="url(#p2189593a02)" d="M 212.192266 121.100099 
Q 213.830392 121.100099 215.025439 122.163021 
Q 216.757245 123.689377 217.144622 127.515895 
L 215.587517 127.515895 
Q 215.301414 125.377296 214.407661 124.399408 
Q 213.513907 123.42152 212.151756 123.42152 
Q 210.538949 123.42152 209.43505 125.458078 
Q 208.33115 127.490385 208.33115 131.516733 
Q 208.33115 134.994613 209.240095 137.17998 
Q 210.151572 139.365347 212.207458 139.365347 
Q 213.782287 139.365347 214.815293 137.83474 
Q 215.8483 136.299881 215.871087 132.868769 
L 212.232776 132.868769 
L 212.232776 130.67915 
L 217.334513 130.67915 
L 217.334513 141.121294 
L 216.321762 141.121294 
L 215.94198 138.608547 
Q 215.144438 140.083882 214.526659 140.65786 
Q 213.488589 141.64 211.890973 141.64 
Q 209.827491 141.64 208.338746 139.395109 
Q 206.715811 136.576241 206.715811 131.66129 
Q 206.715811 126.759095 208.298236 123.863696 
Q 209.802172 121.100099 212.192266 121.100099 
z
M 211.931483 121.070337 
L 211.931483 121.070337 
z
" style="fill:#ffa600;"/>
   </g>
   <g id="patch_44">
    <path clip-path="url(#p2189593a02)" d="M 213.843327 109.512287 
L 212.036825 97.050975 
L 210.116284 109.512287 
L 213.843327 109.512287 
z
M 211.194483 92.860337 
L 213.016535 92.860337 
L 217.334513 121.070337 
L 215.566889 121.070337 
L 214.361691 112.62147 
L 209.654939 112.62147 
L 208.366803 121.070337 
L 206.715811 121.070337 
L 211.194483 92.860337 
z
M 212.02905 92.860337 
L 212.02905 92.860337 
z
" style="fill:#008000;"/>
   </g>
   <g id="patch_45">
    <path clip-path="url(#p2189593a02)" d="M 217.334513 61.785211 
L 217.334513 65.487693 
L 212.924545 65.487693 
L 212.924545 92.860337 
L 211.12578 92.860337 
L 211.12578 65.487693 
L 206.715811 65.487693 
L 206.715811 61.785211 
L 217.334513 61.785211 
z
" style="fill:#ff0000;"/>
   </g>
   <g id="patch_46">
    <path clip-path="url(#p2189593a02)" d="M 212.298975 28.8 
Q 214.572921 28.8 215.827242 31.9382 
Q 217.081563 35.069578 217.219773 39.053727 
L 215.639485 39.053727 
Q 215.370888 36.031504 214.567705 34.264561 
Q 213.764522 32.490796 212.314621 32.490796 
Q 210.546576 32.490796 209.45915 35.744973 
Q 208.371724 38.992328 208.371724 45.705347 
Q 208.371724 51.210841 209.352233 54.635573 
Q 210.335349 58.053482 212.283328 58.053482 
Q 214.074843 58.053482 215.013628 54.451374 
Q 215.509098 52.55481 215.754225 49.457543 
L 217.334513 49.457543 
Q 217.123287 54.403619 215.934159 57.753306 
Q 214.507727 61.785211 212.087748 61.785211 
Q 210.001559 61.785211 208.58295 58.476456 
Q 206.715811 54.110265 206.715811 44.982196 
Q 206.715811 38.05769 208.118773 33.623277 
Q 209.633868 28.8 212.298975 28.8 
z
M 211.973008 28.8 
L 211.973008 28.8 
z
" style="fill:#0000ff;"/>
   </g>
   <g id="patch_47">
    <path clip-path="url(#p2189593a02)" d="M 228.512094 119.160253 
L 228.512094 121.838628 
L 224.102126 121.838628 
L 224.102126 141.64 
L 222.303361 141.64 
L 222.303361 121.838628 
L 217.893392 121.838628 
L 217.893392 119.160253 
L 228.512094 119.160253 
z
" style="fill:#ff0000;"/>
   </g>
   <g id="patch_48">
    <path clip-path="url(#p2189593a02)" d="M 223.369847 90.991069 
Q 225.007973 90.991069 226.20302 92.4488 
Q 227.934826 94.542101 228.322203 99.789931 
L 226.765098 99.789931 
Q 226.478995 96.856977 225.585242 95.515865 
Q 224.691488 94.174753 223.329337 94.174753 
Q 221.71653 94.174753 220.612631 96.967764 
Q 219.508731 99.754945 219.508731 105.276828 
Q 219.508731 110.046522 220.417676 113.043616 
Q 221.329153 116.04071 223.385039 116.04071 
Q 224.959868 116.04071 225.992874 113.941578 
Q 227.025881 111.836615 227.048668 107.131061 
L 223.410357 107.131061 
L 223.410357 104.128136 
L 228.512094 104.128136 
L 228.512094 118.448881 
L 227.499343 118.448881 
L 227.119561 115.002806 
Q 226.322019 117.026136 225.70424 117.81331 
Q 224.66617 119.160253 223.068554 119.160253 
Q 221.005072 119.160253 219.516327 116.081526 
Q 217.893392 112.215625 217.893392 105.475079 
Q 217.893392 98.752026 219.475817 94.781169 
Q 220.979753 90.991069 223.369847 90.991069 
z
M 223.109064 90.950253 
L 223.109064 90.950253 
z
" style="fill:#ffa600;"/>
   </g>
   <g id="patch_49">
    <path clip-path="url(#p2189593a02)" d="M 225.020908 78.609613 
L 223.214407 65.304553 
L 221.293865 78.609613 
L 225.020908 78.609613 
z
M 222.372064 60.830169 
L 224.194116 60.830169 
L 228.512094 90.950253 
L 226.744471 90.950253 
L 225.539273 81.929317 
L 220.832521 81.929317 
L 219.544384 90.950253 
L 217.893392 90.950253 
L 222.372064 60.830169 
z
M 223.206631 60.830169 
L 223.206631 60.830169 
z
" style="fill:#008000;"/>
   </g>
   <g id="patch_50">
    <path clip-path="url(#p2189593a02)" d="M 223.476556 28.8 
Q 225.750502 28.8 227.004823 31.847338 
Q 228.259144 34.888051 228.397354 38.756845 
L 226.817066 38.756845 
Q 226.548469 35.822126 225.745286 34.106342 
Q 224.942103 32.383934 223.492202 32.383934 
Q 221.724157 32.383934 220.636731 35.543891 
Q 219.549305 38.697223 219.549305 45.215875 
Q 219.549305 50.561966 220.529814 53.887539 
Q 221.51293 57.206487 223.460909 57.206487 
Q 225.252424 57.206487 226.191209 53.708673 
Q 226.686679 51.867021 226.931806 48.859431 
L 228.512094 48.859431 
Q 228.300868 53.662301 227.11174 56.915002 
Q 225.685308 60.830169 223.265329 60.830169 
Q 221.17914 60.830169 219.760531 57.617215 
Q 217.893392 53.377441 217.893392 44.513663 
Q 217.893392 37.789646 219.296354 33.483625 
Q 220.811449 28.8 223.476556 28.8 
z
M 223.150589 28.8 
L 223.150589 28.8 
z
" style="fill:#0000ff;"/>
   </g>
   <g id="patch_51">
    <path clip-path="url(#p2189593a02)" d="M 239.689676 120.115295 
L 239.689676 122.679881 
L 235.279707 122.679881 
L 235.279707 141.64 
L 233.480942 141.64 
L 233.480942 122.679881 
L 229.070973 122.679881 
L 229.070973 120.115295 
L 239.689676 120.115295 
z
" style="fill:#ff0000;"/>
   </g>
   <g id="patch_52">
    <path clip-path="url(#p2189593a02)" d="M 236.198489 108.948539 
L 234.391988 96.909103 
L 232.471446 108.948539 
L 236.198489 108.948539 
z
M 233.549645 92.860337 
L 235.371697 92.860337 
L 239.689676 120.115295 
L 237.922052 120.115295 
L 236.716854 111.952462 
L 232.010102 111.952462 
L 230.721965 120.115295 
L 229.070973 120.115295 
L 233.549645 92.860337 
z
M 234.384212 92.860337 
L 234.384212 92.860337 
z
" style="fill:#008000;"/>
   </g>
   <g id="patch_53">
    <path clip-path="url(#p2189593a02)" d="M 234.654137 61.785211 
Q 236.928083 61.785211 238.182404 64.741686 
Q 239.436725 67.691734 239.574935 71.445173 
L 237.994647 71.445173 
Q 237.72605 68.597958 236.922867 66.933334 
Q 236.119685 65.262283 234.669783 65.262283 
Q 232.901738 65.262283 231.814312 68.328019 
Q 230.726886 71.387328 230.726886 77.711615 
Q 230.726886 82.898301 231.707395 86.124715 
Q 232.690511 89.344703 234.63849 89.344703 
Q 236.430005 89.344703 237.36879 85.951183 
Q 237.86426 84.164444 238.109387 81.246531 
L 239.689676 81.246531 
Q 239.478449 85.906193 238.289321 89.061909 
Q 236.862889 92.860337 234.44291 92.860337 
Q 232.356721 92.860337 230.938113 89.743184 
Q 229.070973 85.629827 229.070973 77.03034 
Q 229.070973 70.506813 230.473936 66.329185 
Q 231.98903 61.785211 234.654137 61.785211 
z
M 234.32817 61.785211 
L 234.32817 61.785211 
z
" style="fill:#0000ff;"/>
   </g>
   <g id="patch_54">
    <path clip-path="url(#p2189593a02)" d="M 234.547429 28.847726 
Q 236.185554 28.847726 237.380602 30.552211 
Q 239.112407 32.999853 239.499785 39.136002 
L 237.942679 39.136002 
Q 237.656576 35.706577 236.762823 34.13845 
Q 235.86907 32.570323 234.506918 32.570323 
Q 232.894111 32.570323 231.790212 35.836118 
Q 230.686312 39.095095 230.686312 45.551687 
Q 230.686312 51.128765 231.595257 54.633188 
Q 232.506734 58.137611 234.56262 58.137611 
Q 236.137449 58.137611 237.170456 55.683151 
Q 238.203462 53.221874 238.226249 47.719793 
L 234.587939 47.719793 
L 234.587939 44.208552 
L 239.689676 44.208552 
L 239.689676 60.953422 
L 238.676924 60.953422 
L 238.297142 56.924017 
Q 237.4996 59.289843 236.881821 60.210266 
Q 235.843751 61.785211 234.246135 61.785211 
Q 232.182653 61.785211 230.693908 58.185337 
Q 229.070973 53.66504 229.070973 45.783497 
Q 229.070973 37.922408 230.653398 33.279389 
Q 232.157334 28.847726 234.547429 28.847726 
z
M 234.286645 28.8 
L 234.286645 28.8 
z
" style="fill:#ffa600;"/>
   </g>
   <g id="patch_55">
    <path clip-path="url(#p2189593a02)" d="M 250.867257 123.935464 
L 250.867257 126.044891 
L 246.457288 126.044891 
L 246.457288 141.64 
L 244.658523 141.64 
L 244.658523 126.044891 
L 240.248555 126.044891 
L 240.248555 123.935464 
L 250.867257 123.935464 
z
" style="fill:#ff0000;"/>
   </g>
   <g id="patch_56">
    <path clip-path="url(#p2189593a02)" d="M 245.831718 100.500675 
Q 248.105664 100.500675 249.359985 102.730251 
Q 250.614306 104.954981 250.752516 107.785574 
L 249.172228 107.785574 
Q 248.903631 105.638395 248.100448 104.383046 
Q 247.297266 103.122851 245.847364 103.122851 
Q 244.079319 103.122851 242.991893 105.434825 
Q 241.904467 107.741952 241.904467 112.511307 
Q 241.904467 116.42276 242.884976 118.855907 
Q 243.868093 121.284206 245.816071 121.284206 
Q 247.607586 121.284206 248.546371 118.72504 
Q 249.041841 117.3776 249.286968 115.177105 
L 250.867257 115.177105 
Q 250.65603 118.691112 249.466902 121.070942 
Q 248.040471 123.935464 245.620491 123.935464 
Q 243.534302 123.935464 242.115694 121.584715 
Q 240.248555 118.482695 240.248555 111.997535 
Q 240.248555 107.077926 241.651517 103.927437 
Q 243.166611 100.500675 245.831718 100.500675 
z
M 245.505751 100.500675 
L 245.505751 100.500675 
z
" style="fill:#0000ff;"/>
   </g>
   <g id="patch_57">
    <path clip-path="url(#p2189593a02)" d="M 245.72501 71.377831 
Q 247.363136 71.377831 248.558183 72.884912 
Q 250.289988 75.049081 250.677366 80.474575 
L 249.12026 80.474575 
Q 248.834158 77.442327 247.940404 76.055812 
Q 247.046651 74.669297 245.6845 74.669297 
Q 244.071692 74.669297 242.967793 77.556865 
Q 241.863894 80.438405 241.863894 86.14723 
Q 241.863894 91.078401 242.772838 94.17696 
Q 243.684315 97.27552 245.740201 97.27552 
Q 247.31503 97.27552 248.348037 95.105323 
Q 249.381043 92.929097 249.40383 88.064238 
L 245.76552 88.064238 
L 245.76552 84.95965 
L 250.867257 84.95965 
L 250.867257 99.765219 
L 249.854505 99.765219 
L 249.474723 96.202478 
Q 248.677181 98.294307 248.059402 99.108131 
Q 247.021332 100.500675 245.423716 100.500675 
Q 243.360234 100.500675 241.871489 97.317718 
Q 240.248555 93.320938 240.248555 86.352193 
Q 240.248555 79.401533 241.830979 75.296243 
Q 243.334916 71.377831 245.72501 71.377831 
z
M 245.464226 71.335632 
L 245.464226 71.335632 
z
" style="fill:#ffa600;"/>
   </g>
   <g id="patch_58">
    <path clip-path="url(#p2189593a02)" d="M 247.37607 53.90816 
L 245.569569 35.118733 
L 243.649027 53.90816 
L 247.37607 53.90816 
z
M 244.727226 28.8 
L 246.549278 28.8 
L 250.867257 71.335632 
L 249.099633 71.335632 
L 247.894435 58.596252 
L 243.187683 58.596252 
L 241.899546 71.335632 
L 240.248555 71.335632 
L 244.727226 28.8 
z
M 245.561793 28.8 
L 245.561793 28.8 
z
" style="fill:#008000;"/>
   </g>
   <g id="patch_59">
    <path clip-path="url(#p2189593a02)" d="M 258.553651 134.386192 
L 256.74715 126.565499 
L 254.826609 134.386192 
L 258.553651 134.386192 
z
M 255.904807 123.935464 
L 257.726859 123.935464 
L 262.044838 141.64 
L 260.277214 141.64 
L 259.072016 136.337509 
L 254.365264 136.337509 
L 253.077127 141.64 
L 251.426136 141.64 
L 255.904807 123.935464 
z
M 256.739374 123.935464 
L 256.739374 123.935464 
z
" style="fill:#008000;"/>
   </g>
   <g id="patch_60">
    <path clip-path="url(#p2189593a02)" d="M 257.009299 98.59059 
Q 259.283245 98.59059 260.537566 101.001892 
Q 261.791887 103.407951 261.930097 106.469255 
L 260.349809 106.469255 
Q 260.081212 104.147067 259.27803 102.7894 
Q 258.474847 101.42649 257.024945 101.42649 
Q 255.2569 101.42649 254.169474 103.926905 
Q 253.082048 106.422078 253.082048 111.580166 
Q 253.082048 115.810427 254.062557 118.44189 
Q 255.045674 121.068112 256.993653 121.068112 
Q 258.785167 121.068112 259.723952 118.300357 
Q 260.219422 116.843093 260.46455 114.463243 
L 262.044838 114.463243 
Q 261.833611 118.263664 260.644483 120.837466 
Q 259.218052 123.935464 256.798072 123.935464 
Q 254.711883 123.935464 253.293275 121.393113 
Q 251.426136 118.038259 251.426136 111.024518 
Q 251.426136 105.703929 252.829098 102.296656 
Q 254.344193 98.59059 257.009299 98.59059 
z
M 256.683332 98.59059 
L 256.683332 98.59059 
z
" style="fill:#0000ff;"/>
   </g>
   <g id="patch_61">
    <path clip-path="url(#p2189593a02)" d="M 256.902591 63.745784 
Q 258.540717 63.745784 259.735764 65.548972 
Q 261.467569 68.13835 261.854947 74.629827 
L 260.297841 74.629827 
Q 260.011739 71.001813 259.117985 69.34288 
Q 258.224232 67.683947 256.862081 67.683947 
Q 255.249274 67.683947 254.145374 71.138855 
Q 253.041475 74.586551 253.041475 81.417027 
Q 253.041475 87.317059 253.950419 91.024413 
Q 254.861896 94.731768 256.917782 94.731768 
Q 258.492611 94.731768 259.525618 92.135177 
Q 260.558625 89.531374 260.581411 83.710682 
L 256.943101 83.710682 
L 256.943101 79.996115 
L 262.044838 79.996115 
L 262.044838 97.710634 
L 261.032086 97.710634 
L 260.652304 93.447898 
Q 259.854762 95.950723 259.236984 96.924445 
Q 258.198913 98.59059 256.601297 98.59059 
Q 254.537815 98.59059 253.04907 94.782257 
Q 251.426136 90.000202 251.426136 81.662261 
Q 251.426136 73.345958 253.00856 68.434073 
Q 254.512497 63.745784 256.902591 63.745784 
z
M 256.641807 63.695295 
L 256.641807 63.695295 
z
" style="fill:#ffa600;"/>
   </g>
   <g id="patch_62">
    <path clip-path="url(#p2189593a02)" d="M 262.044838 28.8 
L 262.044838 32.95764 
L 257.634869 32.95764 
L 257.634869 63.695295 
L 255.836104 63.695295 
L 255.836104 32.95764 
L 251.426136 32.95764 
L 251.426136 28.8 
L 262.044838 28.8 
z
" style="fill:#ff0000;"/>
   </g>
   <g id="patch_63">
    <path clip-path="url(#p2189593a02)" d="M 268.18688 119.160253 
Q 270.460826 119.160253 271.715147 121.298967 
Q 272.969468 123.433032 273.107678 126.148269 
L 271.52739 126.148269 
Q 271.258793 124.088595 270.455611 122.884405 
Q 269.652428 121.675567 268.202527 121.675567 
Q 266.434481 121.675567 265.347055 123.893321 
Q 264.259629 126.106425 264.259629 130.681414 
Q 264.259629 134.433463 265.240138 136.767451 
Q 266.223255 139.09679 268.171234 139.09679 
Q 269.962749 139.09679 270.901534 136.641918 
Q 271.397003 135.34939 271.642131 133.238572 
L 273.222419 133.238572 
Q 273.011192 136.609372 271.822065 138.892217 
Q 270.395633 141.64 267.975654 141.64 
Q 265.889465 141.64 264.470856 139.385051 
Q 262.603717 136.409449 262.603717 130.18858 
Q 262.603717 125.46946 264.006679 122.447364 
Q 265.521774 119.160253 268.18688 119.160253 
z
M 267.860913 119.160253 
L 267.860913 119.160253 
z
" style="fill:#0000ff;"/>
   </g>
   <g id="patch_64">
    <path clip-path="url(#p2189593a02)" d="M 269.731232 108.776087 
L 267.924731 97.580399 
L 266.00419 108.776087 
L 269.731232 108.776087 
z
M 267.082388 93.815379 
L 268.90444 93.815379 
L 273.222419 119.160253 
L 271.454795 119.160253 
L 270.249597 111.569488 
L 265.542845 111.569488 
L 264.254709 119.160253 
L 262.603717 119.160253 
L 267.082388 93.815379 
z
M 267.916956 93.815379 
L 267.916956 93.815379 
z
" style="fill:#008000;"/>
   </g>
   <g id="patch_65">
    <path clip-path="url(#p2189593a02)" d="M 273.222419 63.695295 
L 273.222419 67.283987 
L 268.812451 67.283987 
L 268.812451 93.815379 
L 267.013685 93.815379 
L 267.013685 67.283987 
L 262.603717 67.283987 
L 262.603717 63.695295 
L 273.222419 63.695295 
z
" style="fill:#ff0000;"/>
   </g>
   <g id="patch_66">
    <path clip-path="url(#p2189593a02)" d="M 268.080172 28.850489 
Q 269.718298 28.850489 270.913345 30.653677 
Q 272.64515 33.243055 273.032528 39.734532 
L 271.475422 39.734532 
Q 271.18932 36.106518 270.295566 34.447585 
Q 269.401813 32.788652 268.039662 32.788652 
Q 266.426855 32.788652 265.322955 36.24356 
Q 264.219056 39.691256 264.219056 46.521732 
Q 264.219056 52.421763 265.128001 56.129118 
Q 266.039477 59.836473 268.095363 59.836473 
Q 269.670192 59.836473 270.703199 57.239882 
Q 271.736206 54.636078 271.758993 48.815387 
L 268.120682 48.815387 
L 268.120682 45.10082 
L 273.222419 45.10082 
L 273.222419 62.815339 
L 272.209667 62.815339 
L 271.829885 58.552603 
Q 271.032343 61.055428 270.414565 62.029149 
Q 269.376494 63.695295 267.778878 63.695295 
Q 265.715397 63.695295 264.226651 59.886962 
Q 262.603717 55.104907 262.603717 46.766966 
Q 262.603717 38.450662 264.186141 33.538778 
Q 265.690078 28.850489 268.080172 28.850489 
z
M 267.819388 28.8 
L 267.819388 28.8 
z
" style="fill:#ffa600;"/>
   </g>
   <g id="patch_67">
    <path clip-path="url(#p2189593a02)" d="M 284.4 128.710675 
L 284.4 130.251154 
L 279.990032 130.251154 
L 279.990032 141.64 
L 278.191266 141.64 
L 278.191266 130.251154 
L 273.781298 130.251154 
L 273.781298 128.710675 
L 284.4 128.710675 
z
" style="fill:#ff0000;"/>
   </g>
   <g id="patch_68">
    <path clip-path="url(#p2189593a02)" d="M 279.364461 108.141012 
Q 281.638407 108.141012 282.892728 110.098002 
Q 284.14705 112.050737 284.28526 114.535263 
L 282.704971 114.535263 
Q 282.436375 112.650597 281.633192 111.548726 
Q 280.830009 110.442602 279.380108 110.442602 
Q 277.612063 110.442602 276.524636 112.471915 
Q 275.43721 114.496974 275.43721 118.68323 
Q 275.43721 122.11647 276.417719 124.252142 
Q 277.400836 126.383559 279.348815 126.383559 
Q 281.14033 126.383559 282.079115 124.137275 
Q 282.574585 122.954572 282.819712 121.023109 
L 284.4 121.023109 
Q 284.188773 124.107495 282.999646 126.196368 
Q 281.573214 128.710675 279.153235 128.710675 
Q 277.067046 128.710675 275.648437 126.647327 
Q 273.781298 123.924559 273.781298 118.232271 
Q 273.781298 113.914131 275.18426 111.14882 
Q 276.699355 108.141012 279.364461 108.141012 
z
M 279.038494 108.141012 
L 279.038494 108.141012 
z
" style="fill:#0000ff;"/>
   </g>
   <g id="patch_69">
    <path clip-path="url(#p2189593a02)" d="M 279.257753 78.064508 
Q 280.895879 78.064508 282.090926 79.62094 
Q 283.822732 81.855978 284.210109 87.459135 
L 282.653003 87.459135 
Q 282.366901 84.327593 281.473147 82.895675 
Q 280.579394 81.463757 279.217243 81.463757 
Q 277.604436 81.463757 276.500536 84.445881 
Q 275.396637 87.421781 275.396637 93.317547 
Q 275.396637 98.410195 276.305582 101.610221 
Q 277.217058 104.810246 279.272944 104.810246 
Q 280.847773 104.810246 281.88078 102.568983 
Q 282.913787 100.321494 282.936574 95.29733 
L 279.298263 95.29733 
L 279.298263 92.091079 
L 284.4 92.091079 
L 284.4 107.381473 
L 283.387248 107.381473 
L 283.007466 103.702066 
Q 282.209924 105.862395 281.592146 106.702868 
Q 280.554075 108.141012 278.956459 108.141012 
Q 276.892978 108.141012 275.404233 104.853826 
Q 273.781298 100.726167 273.781298 93.529222 
Q 273.781298 86.350955 275.363723 82.111233 
Q 276.867659 78.064508 279.257753 78.064508 
z
M 278.996969 78.020928 
L 278.996969 78.020928 
z
" style="fill:#ffa600;"/>
   </g>
   <g id="patch_70">
    <path clip-path="url(#p2189593a02)" d="M 280.908813 57.854392 
L 279.102312 36.111843 
L 277.181771 57.854392 
L 280.908813 57.854392 
z
M 278.259969 28.8 
L 280.082022 28.8 
L 284.4 78.020928 
L 282.632376 78.020928 
L 281.427178 63.279308 
L 276.720426 63.279308 
L 275.43229 78.020928 
L 273.781298 78.020928 
L 278.259969 28.8 
z
M 279.094537 28.8 
L 279.094537 28.8 
z
" style="fill:#008000;"/>
   </g>
   <g id="matplotlib.axis_1">
    <g id="xtick_1">
     <g id="line2d_2">
      <path clip-path="url(#p2189593a02)" d="M 100.249351 141.64 
L 100.249351 28.8 
" style="fill:none;stroke:#cccccc;stroke-linecap:round;stroke-width:0.8;"/>
     </g>
     <g id="text_1">
      <!-- 0 -->
      <g style="fill:#262626;" transform="translate(94.688414 162.986875)scale(0.2 -0.2)">
       <defs>
        <path d="M 1731 4475 
Q 2600 4475 2988 3759 
Q 3288 3206 3288 2244 
Q 3288 1331 3016 734 
Q 2622 -122 1728 -122 
Q 922 -122 528 578 
Q 200 1163 200 2147 
Q 200 2909 397 3456 
Q 766 4475 1731 4475 
z
M 1725 391 
Q 2163 391 2422 778 
Q 2681 1166 2681 2222 
Q 2681 2984 2493 3476 
Q 2306 3969 1766 3969 
Q 1269 3969 1039 3501 
Q 809 3034 809 2125 
Q 809 1441 956 1025 
Q 1181 391 1725 391 
z
" id="Helvetica-30" transform="scale(0.015625)"/>
       </defs>
       <use xlink:href="#Helvetica-30"/>
      </g>
     </g>
    </g>
    <g id="xtick_2">
     <g id="line2d_3">
      <path clip-path="url(#p2189593a02)" d="M 212.025162 141.64 
L 212.025162 28.8 
" style="fill:none;stroke:#cccccc;stroke-linecap:round;stroke-width:0.8;"/>
     </g>
     <g id="text_2">
      <!-- 10 -->
      <g style="fill:#262626;" transform="translate(200.903287 162.986875)scale(0.2 -0.2)">
       <defs>
        <path d="M 613 3169 
L 613 3600 
Q 1222 3659 1462 3798 
Q 1703 3938 1822 4456 
L 2266 4456 
L 2266 0 
L 1666 0 
L 1666 3169 
L 613 3169 
z
" id="Helvetica-31" transform="scale(0.015625)"/>
       </defs>
       <use xlink:href="#Helvetica-31"/>
       <use x="55.615234" xlink:href="#Helvetica-30"/>
      </g>
     </g>
    </g>
    <g id="text_3">
     <!-- Position -->
     <g style="fill:#262626;" transform="translate(145.20125 189.089219)scale(0.25 -0.25)">
      <defs>
       <path d="M 547 4591 
L 2613 4591 
Q 3225 4591 3600 4245 
Q 3975 3900 3975 3275 
Q 3975 2738 3640 2339 
Q 3306 1941 2613 1941 
L 1169 1941 
L 1169 0 
L 547 0 
L 547 4591 
z
M 3347 3272 
Q 3347 3778 2972 3959 
Q 2766 4056 2406 4056 
L 1169 4056 
L 1169 2466 
L 2406 2466 
Q 2825 2466 3086 2644 
Q 3347 2822 3347 3272 
z
" id="Helvetica-50" transform="scale(0.015625)"/>
       <path d="M 1741 363 
Q 2300 363 2508 786 
Q 2716 1209 2716 1728 
Q 2716 2197 2566 2491 
Q 2328 2953 1747 2953 
Q 1231 2953 997 2559 
Q 763 2166 763 1609 
Q 763 1075 997 719 
Q 1231 363 1741 363 
z
M 1763 3444 
Q 2409 3444 2856 3012 
Q 3303 2581 3303 1744 
Q 3303 934 2909 406 
Q 2516 -122 1688 -122 
Q 997 -122 590 345 
Q 184 813 184 1600 
Q 184 2444 612 2944 
Q 1041 3444 1763 3444 
z
M 1744 3428 
L 1744 3428 
z
" id="Helvetica-6f" transform="scale(0.015625)"/>
       <path d="M 747 1050 
Q 772 769 888 619 
Q 1100 347 1625 347 
Q 1938 347 2175 483 
Q 2413 619 2413 903 
Q 2413 1119 2222 1231 
Q 2100 1300 1741 1391 
L 1294 1503 
Q 866 1609 663 1741 
Q 300 1969 300 2372 
Q 300 2847 642 3140 
Q 984 3434 1563 3434 
Q 2319 3434 2653 2991 
Q 2863 2709 2856 2384 
L 2325 2384 
Q 2309 2575 2191 2731 
Q 1997 2953 1519 2953 
Q 1200 2953 1036 2831 
Q 872 2709 872 2509 
Q 872 2291 1088 2159 
Q 1213 2081 1456 2022 
L 1828 1931 
Q 2434 1784 2641 1647 
Q 2969 1431 2969 969 
Q 2969 522 2630 197 
Q 2291 -128 1597 -128 
Q 850 -128 539 211 
Q 228 550 206 1050 
L 747 1050 
z
M 1578 3428 
L 1578 3428 
z
" id="Helvetica-73" transform="scale(0.015625)"/>
       <path d="M 413 3331 
L 984 3331 
L 984 0 
L 413 0 
L 413 3331 
z
M 413 4591 
L 984 4591 
L 984 3953 
L 413 3953 
L 413 4591 
z
" id="Helvetica-69" transform="scale(0.015625)"/>
       <path d="M 525 4281 
L 1094 4281 
L 1094 3347 
L 1628 3347 
L 1628 2888 
L 1094 2888 
L 1094 703 
Q 1094 528 1213 469 
Q 1278 434 1431 434 
Q 1472 434 1519 436 
Q 1566 438 1628 444 
L 1628 0 
Q 1531 -28 1426 -40 
Q 1322 -53 1200 -53 
Q 806 -53 665 148 
Q 525 350 525 672 
L 525 2888 
L 72 2888 
L 72 3347 
L 525 3347 
L 525 4281 
z
" id="Helvetica-74" transform="scale(0.015625)"/>
       <path d="M 413 3347 
L 947 3347 
L 947 2872 
Q 1184 3166 1450 3294 
Q 1716 3422 2041 3422 
Q 2753 3422 3003 2925 
Q 3141 2653 3141 2147 
L 3141 0 
L 2569 0 
L 2569 2109 
Q 2569 2416 2478 2603 
Q 2328 2916 1934 2916 
Q 1734 2916 1606 2875 
Q 1375 2806 1200 2600 
Q 1059 2434 1017 2257 
Q 975 2081 975 1753 
L 975 0 
L 413 0 
L 413 3347 
z
M 1734 3428 
L 1734 3428 
z
" id="Helvetica-6e" transform="scale(0.015625)"/>
      </defs>
      <use xlink:href="#Helvetica-50"/>
      <use x="66.699219" xlink:href="#Helvetica-6f"/>
      <use x="122.314453" xlink:href="#Helvetica-73"/>
      <use x="172.314453" xlink:href="#Helvetica-69"/>
      <use x="194.53125" xlink:href="#Helvetica-74"/>
      <use x="222.314453" xlink:href="#Helvetica-69"/>
      <use x="244.53125" xlink:href="#Helvetica-6f"/>
      <use x="300.146484" xlink:href="#Helvetica-6e"/>
     </g>
    </g>
   </g>
   <g id="matplotlib.axis_2">
    <g id="ytick_1">
     <g id="line2d_4">
      <path clip-path="url(#p2189593a02)" d="M 94.94 141.64 
L 284.4 141.64 
" style="fill:none;stroke:#cccccc;stroke-linecap:round;stroke-width:0.8;"/>
     </g>
     <g id="text_4">
      <!-- 0 -->
      <g style="fill:#262626;" transform="translate(76.818125 148.813438)scale(0.2 -0.2)">
       <use xlink:href="#Helvetica-30"/>
      </g>
     </g>
    </g>
    <g id="ytick_2">
     <g id="line2d_5">
      <path clip-path="url(#p2189593a02)" d="M 94.94 113.43 
L 284.4 113.43 
" style="fill:none;stroke:#cccccc;stroke-linecap:round;stroke-width:0.8;"/>
     </g>
     <g id="text_5">
      <!-- 0.25 -->
      <g style="fill:#262626;" transform="translate(49.018125 120.603438)scale(0.2 -0.2)">
       <defs>
        <path d="M 547 681 
L 1200 681 
L 1200 0 
L 547 0 
L 547 681 
z
" id="Helvetica-2e" transform="scale(0.015625)"/>
        <path d="M 200 0 
Q 231 578 439 1006 
Q 647 1434 1250 1784 
L 1850 2131 
Q 2253 2366 2416 2531 
Q 2672 2791 2672 3125 
Q 2672 3516 2437 3745 
Q 2203 3975 1813 3975 
Q 1234 3975 1013 3538 
Q 894 3303 881 2888 
L 309 2888 
Q 319 3472 525 3841 
Q 891 4491 1816 4491 
Q 2584 4491 2939 4075 
Q 3294 3659 3294 3150 
Q 3294 2613 2916 2231 
Q 2697 2009 2131 1694 
L 1703 1456 
Q 1397 1288 1222 1134 
Q 909 863 828 531 
L 3272 531 
L 3272 0 
L 200 0 
z
" id="Helvetica-32" transform="scale(0.015625)"/>
        <path d="M 791 1141 
Q 847 659 1238 475 
Q 1438 381 1700 381 
Q 2200 381 2440 700 
Q 2681 1019 2681 1406 
Q 2681 1875 2395 2131 
Q 2109 2388 1709 2388 
Q 1419 2388 1211 2275 
Q 1003 2163 856 1963 
L 369 1991 
L 709 4400 
L 3034 4400 
L 3034 3856 
L 1131 3856 
L 941 2613 
Q 1097 2731 1238 2791 
Q 1488 2894 1816 2894 
Q 2431 2894 2859 2497 
Q 3288 2100 3288 1491 
Q 3288 856 2895 371 
Q 2503 -113 1644 -113 
Q 1097 -113 676 195 
Q 256 503 206 1141 
L 791 1141 
z
" id="Helvetica-35" transform="scale(0.015625)"/>
       </defs>
       <use xlink:href="#Helvetica-30"/>
       <use x="55.615234" xlink:href="#Helvetica-2e"/>
       <use x="83.398438" xlink:href="#Helvetica-32"/>
       <use x="139.013672" xlink:href="#Helvetica-35"/>
      </g>
     </g>
    </g>
    <g id="ytick_3">
     <g id="line2d_6">
      <path clip-path="url(#p2189593a02)" d="M 94.94 85.22 
L 284.4 85.22 
" style="fill:none;stroke:#cccccc;stroke-linecap:round;stroke-width:0.8;"/>
     </g>
     <g id="text_6">
      <!-- 0.50 -->
      <g style="fill:#262626;" transform="translate(49.018125 92.393438)scale(0.2 -0.2)">
       <use xlink:href="#Helvetica-30"/>
       <use x="55.615234" xlink:href="#Helvetica-2e"/>
       <use x="83.398438" xlink:href="#Helvetica-35"/>
       <use x="139.013672" xlink:href="#Helvetica-30"/>
      </g>
     </g>
    </g>
    <g id="ytick_4">
     <g id="line2d_7">
      <path clip-path="url(#p2189593a02)" d="M 94.94 57.01 
L 284.4 57.01 
" style="fill:none;stroke:#cccccc;stroke-linecap:round;stroke-width:0.8;"/>
     </g>
     <g id="text_7">
      <!-- 0.75 -->
      <g style="fill:#262626;" transform="translate(49.018125 64.183437)scale(0.2 -0.2)">
       <defs>
        <path d="M 3347 4400 
L 3347 3909 
Q 3131 3700 2773 3181 
Q 2416 2663 2141 2063 
Q 1869 1478 1728 997 
Q 1638 688 1494 0 
L 872 0 
Q 1084 1281 1809 2550 
Q 2238 3294 2709 3834 
L 234 3834 
L 234 4400 
L 3347 4400 
z
" id="Helvetica-37" transform="scale(0.015625)"/>
       </defs>
       <use xlink:href="#Helvetica-30"/>
       <use x="55.615234" xlink:href="#Helvetica-2e"/>
       <use x="83.398438" xlink:href="#Helvetica-37"/>
       <use x="139.013672" xlink:href="#Helvetica-35"/>
      </g>
     </g>
    </g>
    <g id="ytick_5">
     <g id="line2d_8">
      <path clip-path="url(#p2189593a02)" d="M 94.94 28.8 
L 284.4 28.8 
" style="fill:none;stroke:#cccccc;stroke-linecap:round;stroke-width:0.8;"/>
     </g>
     <g id="text_8">
      <!-- 1.0 -->
      <g style="fill:#262626;" transform="translate(60.14 35.973438)scale(0.2 -0.2)">
       <use xlink:href="#Helvetica-31"/>
       <use x="55.615234" xlink:href="#Helvetica-2e"/>
       <use x="83.398438" xlink:href="#Helvetica-30"/>
      </g>
     </g>
    </g>
    <g id="text_9">
     <!-- Probability -->
     <g style="fill:#262626;" transform="translate(39.65875 143.579375)rotate(-90)scale(0.25 -0.25)">
      <defs>
       <path d="M 428 3347 
L 963 3347 
L 963 2769 
Q 1028 2938 1284 3180 
Q 1541 3422 1875 3422 
Q 1891 3422 1928 3419 
Q 1966 3416 2056 3406 
L 2056 2813 
Q 2006 2822 1964 2825 
Q 1922 2828 1872 2828 
Q 1447 2828 1219 2554 
Q 991 2281 991 1925 
L 991 0 
L 428 0 
L 428 3347 
z
" id="Helvetica-72" transform="scale(0.015625)"/>
       <path d="M 369 4606 
L 916 4606 
L 916 2941 
Q 1100 3181 1356 3307 
Q 1613 3434 1913 3434 
Q 2538 3434 2927 3004 
Q 3316 2575 3316 1738 
Q 3316 944 2931 419 
Q 2547 -106 1866 -106 
Q 1484 -106 1222 78 
Q 1066 188 888 428 
L 888 0 
L 369 0 
L 369 4606 
z
M 1831 391 
Q 2288 391 2514 753 
Q 2741 1116 2741 1709 
Q 2741 2238 2514 2584 
Q 2288 2931 1847 2931 
Q 1463 2931 1173 2647 
Q 884 2363 884 1709 
Q 884 1238 1003 944 
Q 1225 391 1831 391 
z
" id="Helvetica-62" transform="scale(0.015625)"/>
       <path d="M 844 891 
Q 844 647 1022 506 
Q 1200 366 1444 366 
Q 1741 366 2019 503 
Q 2488 731 2488 1250 
L 2488 1703 
Q 2384 1638 2221 1594 
Q 2059 1550 1903 1531 
L 1563 1488 
Q 1256 1447 1103 1359 
Q 844 1213 844 891 
z
M 2206 2028 
Q 2400 2053 2466 2191 
Q 2503 2266 2503 2406 
Q 2503 2694 2298 2823 
Q 2094 2953 1713 2953 
Q 1272 2953 1088 2716 
Q 984 2584 953 2325 
L 428 2325 
Q 444 2944 830 3186 
Q 1216 3428 1725 3428 
Q 2316 3428 2684 3203 
Q 3050 2978 3050 2503 
L 3050 575 
Q 3050 488 3086 434 
Q 3122 381 3238 381 
Q 3275 381 3322 386 
Q 3369 391 3422 400 
L 3422 -16 
Q 3291 -53 3222 -62 
Q 3153 -72 3034 -72 
Q 2744 -72 2613 134 
Q 2544 244 2516 444 
Q 2344 219 2022 53 
Q 1700 -113 1313 -113 
Q 847 -113 551 170 
Q 256 453 256 878 
Q 256 1344 547 1600 
Q 838 1856 1309 1916 
L 2206 2028 
z
M 1741 3428 
L 1741 3428 
z
" id="Helvetica-61" transform="scale(0.015625)"/>
       <path d="M 428 4591 
L 991 4591 
L 991 0 
L 428 0 
L 428 4591 
z
" id="Helvetica-6c" transform="scale(0.015625)"/>
       <path d="M 2503 3347 
L 3125 3347 
Q 3006 3025 2597 1878 
Q 2291 1016 2084 472 
Q 1597 -809 1397 -1090 
Q 1197 -1372 709 -1372 
Q 591 -1372 527 -1362 
Q 463 -1353 369 -1328 
L 369 -816 
Q 516 -856 581 -865 
Q 647 -875 697 -875 
Q 853 -875 926 -823 
Q 1000 -772 1050 -697 
Q 1066 -672 1162 -440 
Q 1259 -209 1303 -97 
L 66 3347 
L 703 3347 
L 1600 622 
L 2503 3347 
z
M 1597 3428 
L 1597 3428 
z
" id="Helvetica-79" transform="scale(0.015625)"/>
      </defs>
      <use xlink:href="#Helvetica-50"/>
      <use x="66.699219" xlink:href="#Helvetica-72"/>
      <use x="100" xlink:href="#Helvetica-6f"/>
      <use x="155.615234" xlink:href="#Helvetica-62"/>
      <use x="211.230469" xlink:href="#Helvetica-61"/>
      <use x="266.845703" xlink:href="#Helvetica-62"/>
      <use x="322.460938" xlink:href="#Helvetica-69"/>
      <use x="344.677734" xlink:href="#Helvetica-6c"/>
      <use x="366.894531" xlink:href="#Helvetica-69"/>
      <use x="389.111328" xlink:href="#Helvetica-74"/>
      <use x="416.894531" xlink:href="#Helvetica-79"/>
     </g>
    </g>
   </g>
   <g id="patch_71">
    <path d="M 94.94 141.64 
L 94.94 28.8 
" style="fill:none;stroke:#000000;stroke-linecap:square;stroke-linejoin:miter;"/>
   </g>
  </g>
 </g>
 <defs>
  <clipPath id="p2189593a02">
   <rect height="112.84" width="189.46" x="94.94" y="28.8"/>
  </clipPath>
 </defs>
</svg>
