<?xml version="1.0" encoding="utf-8" standalone="no"?>
<!DOCTYPE svg PUBLIC "-//W3C//DTD SVG 1.1//EN"
  "http://www.w3.org/Graphics/SVG/1.1/DTD/svg11.dtd">
<svg height="329.142857pt" version="1.1" viewBox="0 0 198 329.142857" width="198pt" xmlns="http://www.w3.org/2000/svg" xmlns:xlink="http://www.w3.org/1999/xlink">
 <metadata>
  <rdf:RDF xmlns:cc="http://creativecommons.org/ns#" xmlns:dc="http://purl.org/dc/elements/1.1/" xmlns:rdf="http://www.w3.org/1999/02/22-rdf-syntax-ns#">
   <cc:Work>
    <dc:type rdf:resource="http://purl.org/dc/dcmitype/StillImage"/>
    <dc:date>2023-01-26T13:36:55.430994</dc:date>
    <dc:format>image/svg+xml</dc:format>
    <dc:creator>
     <cc:Agent>
      <dc:title>Matplotlib v3.4.2, https://matplotlib.org/</dc:title>
     </cc:Agent>
    </dc:creator>
   </cc:Work>
  </rdf:RDF>
 </metadata>
 <defs>
  <style type="text/css">*{stroke-linecap:butt;stroke-linejoin:round;}</style>
 </defs>
 <g id="figure_1">
  <g id="patch_1">
   <path d="M 0 329.142857 
L 198 329.142857 
L 198 0 
L 0 0 
z
" style="fill:#ffffff;"/>
  </g>
  <g id="axes_1">
   <g id="patch_2">
    <path d="M 24.75 292.937143 
L 165.15675 292.937143 
L 165.15675 39.497143 
L 24.75 39.497143 
z
" style="fill:#ffffff;"/>
   </g>
   <g id="QuadMesh_1">
    <path clip-path="url(#p72b30843df)" d="M 24.75 39.497143 
L 37.51425 39.497143 
L 37.51425 55.337143 
L 24.75 55.337143 
L 24.75 39.497143 
" style="fill:none;"/>
    <path clip-path="url(#p72b30843df)" d="M 37.51425 39.497143 
L 50.2785 39.497143 
L 50.2785 55.337143 
L 37.51425 55.337143 
L 37.51425 39.497143 
" style="fill:none;"/>
    <path clip-path="url(#p72b30843df)" d="M 50.2785 39.497143 
L 63.04275 39.497143 
L 63.04275 55.337143 
L 50.2785 55.337143 
L 50.2785 39.497143 
" style="fill:none;"/>
    <path clip-path="url(#p72b30843df)" d="M 63.04275 39.497143 
L 75.807 39.497143 
L 75.807 55.337143 
L 63.04275 55.337143 
L 63.04275 39.497143 
" style="fill:none;"/>
    <path clip-path="url(#p72b30843df)" d="M 75.807 39.497143 
L 88.57125 39.497143 
L 88.57125 55.337143 
L 75.807 55.337143 
L 75.807 39.497143 
" style="fill:none;"/>
    <path clip-path="url(#p72b30843df)" d="M 88.57125 39.497143 
L 101.3355 39.497143 
L 101.3355 55.337143 
L 88.57125 55.337143 
L 88.57125 39.497143 
" style="fill:#f8f1f8;"/>
    <path clip-path="url(#p72b30843df)" d="M 101.3355 39.497143 
L 114.09975 39.497143 
L 114.09975 55.337143 
L 101.3355 55.337143 
L 101.3355 39.497143 
" style="fill:#f8f1f8;"/>
    <path clip-path="url(#p72b30843df)" d="M 114.09975 39.497143 
L 126.864 39.497143 
L 126.864 55.337143 
L 114.09975 55.337143 
L 114.09975 39.497143 
" style="fill:#f8f1f8;"/>
    <path clip-path="url(#p72b30843df)" d="M 126.864 39.497143 
L 139.62825 39.497143 
L 139.62825 55.337143 
L 126.864 55.337143 
L 126.864 39.497143 
" style="fill:#f8f1f8;"/>
    <path clip-path="url(#p72b30843df)" d="M 139.62825 39.497143 
L 152.3925 39.497143 
L 152.3925 55.337143 
L 139.62825 55.337143 
L 139.62825 39.497143 
" style="fill:#f8f1f8;"/>
    <path clip-path="url(#p72b30843df)" d="M 152.3925 39.497143 
L 165.15675 39.497143 
L 165.15675 55.337143 
L 152.3925 55.337143 
L 152.3925 39.497143 
" style="fill:#f8f1f8;"/>
    <path clip-path="url(#p72b30843df)" d="M 24.75 55.337143 
L 37.51425 55.337143 
L 37.51425 71.177143 
L 24.75 71.177143 
L 24.75 55.337143 
" style="fill:#f8f1f8;"/>
    <path clip-path="url(#p72b30843df)" d="M 37.51425 55.337143 
L 50.2785 55.337143 
L 50.2785 71.177143 
L 37.51425 71.177143 
L 37.51425 55.337143 
" style="fill:none;"/>
    <path clip-path="url(#p72b30843df)" d="M 50.2785 55.337143 
L 63.04275 55.337143 
L 63.04275 71.177143 
L 50.2785 71.177143 
L 50.2785 55.337143 
" style="fill:#f8f1f8;"/>
    <path clip-path="url(#p72b30843df)" d="M 63.04275 55.337143 
L 75.807 55.337143 
L 75.807 71.177143 
L 63.04275 71.177143 
L 63.04275 55.337143 
" style="fill:none;"/>
    <path clip-path="url(#p72b30843df)" d="M 75.807 55.337143 
L 88.57125 55.337143 
L 88.57125 71.177143 
L 75.807 71.177143 
L 75.807 55.337143 
" style="fill:#f8f1f8;"/>
    <path clip-path="url(#p72b30843df)" d="M 88.57125 55.337143 
L 101.3355 55.337143 
L 101.3355 71.177143 
L 88.57125 71.177143 
L 88.57125 55.337143 
" style="fill:none;"/>
    <path clip-path="url(#p72b30843df)" d="M 101.3355 55.337143 
L 114.09975 55.337143 
L 114.09975 71.177143 
L 101.3355 71.177143 
L 101.3355 55.337143 
" style="fill:#f8f1f8;"/>
    <path clip-path="url(#p72b30843df)" d="M 114.09975 55.337143 
L 126.864 55.337143 
L 126.864 71.177143 
L 114.09975 71.177143 
L 114.09975 55.337143 
" style="fill:none;"/>
    <path clip-path="url(#p72b30843df)" d="M 126.864 55.337143 
L 139.62825 55.337143 
L 139.62825 71.177143 
L 126.864 71.177143 
L 126.864 55.337143 
" style="fill:#f8f1f8;"/>
    <path clip-path="url(#p72b30843df)" d="M 139.62825 55.337143 
L 152.3925 55.337143 
L 152.3925 71.177143 
L 139.62825 71.177143 
L 139.62825 55.337143 
" style="fill:none;"/>
    <path clip-path="url(#p72b30843df)" d="M 152.3925 55.337143 
L 165.15675 55.337143 
L 165.15675 71.177143 
L 152.3925 71.177143 
L 152.3925 55.337143 
" style="fill:#f8f1f8;"/>
    <path clip-path="url(#p72b30843df)" d="M 24.75 71.177143 
L 37.51425 71.177143 
L 37.51425 87.017143 
L 24.75 87.017143 
L 24.75 71.177143 
" style="fill:#f8f1f8;"/>
    <path clip-path="url(#p72b30843df)" d="M 37.51425 71.177143 
L 50.2785 71.177143 
L 50.2785 87.017143 
L 37.51425 87.017143 
L 37.51425 71.177143 
" style="fill:none;"/>
    <path clip-path="url(#p72b30843df)" d="M 50.2785 71.177143 
L 63.04275 71.177143 
L 63.04275 87.017143 
L 50.2785 87.017143 
L 50.2785 71.177143 
" style="fill:#f8f1f8;"/>
    <path clip-path="url(#p72b30843df)" d="M 63.04275 71.177143 
L 75.807 71.177143 
L 75.807 87.017143 
L 63.04275 87.017143 
L 63.04275 71.177143 
" style="fill:none;"/>
    <path clip-path="url(#p72b30843df)" d="M 75.807 71.177143 
L 88.57125 71.177143 
L 88.57125 87.017143 
L 75.807 87.017143 
L 75.807 71.177143 
" style="fill:#f8f1f8;"/>
    <path clip-path="url(#p72b30843df)" d="M 88.57125 71.177143 
L 101.3355 71.177143 
L 101.3355 87.017143 
L 88.57125 87.017143 
L 88.57125 71.177143 
" style="fill:none;"/>
    <path clip-path="url(#p72b30843df)" d="M 101.3355 71.177143 
L 114.09975 71.177143 
L 114.09975 87.017143 
L 101.3355 87.017143 
L 101.3355 71.177143 
" style="fill:#f8f1f8;"/>
    <path clip-path="url(#p72b30843df)" d="M 114.09975 71.177143 
L 126.864 71.177143 
L 126.864 87.017143 
L 114.09975 87.017143 
L 114.09975 71.177143 
" style="fill:none;"/>
    <path clip-path="url(#p72b30843df)" d="M 126.864 71.177143 
L 139.62825 71.177143 
L 139.62825 87.017143 
L 126.864 87.017143 
L 126.864 71.177143 
" style="fill:#f8f1f8;"/>
    <path clip-path="url(#p72b30843df)" d="M 139.62825 71.177143 
L 152.3925 71.177143 
L 152.3925 87.017143 
L 139.62825 87.017143 
L 139.62825 71.177143 
" style="fill:none;"/>
    <path clip-path="url(#p72b30843df)" d="M 152.3925 71.177143 
L 165.15675 71.177143 
L 165.15675 87.017143 
L 152.3925 87.017143 
L 152.3925 71.177143 
" style="fill:#f8f1f8;"/>
    <path clip-path="url(#p72b30843df)" d="M 24.75 87.017143 
L 37.51425 87.017143 
L 37.51425 102.857143 
L 24.75 102.857143 
L 24.75 87.017143 
" style="fill:#f8f1f8;"/>
    <path clip-path="url(#p72b30843df)" d="M 37.51425 87.017143 
L 50.2785 87.017143 
L 50.2785 102.857143 
L 37.51425 102.857143 
L 37.51425 87.017143 
" style="fill:none;"/>
    <path clip-path="url(#p72b30843df)" d="M 50.2785 87.017143 
L 63.04275 87.017143 
L 63.04275 102.857143 
L 50.2785 102.857143 
L 50.2785 87.017143 
" style="fill:#f8f1f8;"/>
    <path clip-path="url(#p72b30843df)" d="M 63.04275 87.017143 
L 75.807 87.017143 
L 75.807 102.857143 
L 63.04275 102.857143 
L 63.04275 87.017143 
" style="fill:none;"/>
    <path clip-path="url(#p72b30843df)" d="M 75.807 87.017143 
L 88.57125 87.017143 
L 88.57125 102.857143 
L 75.807 102.857143 
L 75.807 87.017143 
" style="fill:#f8f1f8;"/>
    <path clip-path="url(#p72b30843df)" d="M 88.57125 87.017143 
L 101.3355 87.017143 
L 101.3355 102.857143 
L 88.57125 102.857143 
L 88.57125 87.017143 
" style="fill:none;"/>
    <path clip-path="url(#p72b30843df)" d="M 101.3355 87.017143 
L 114.09975 87.017143 
L 114.09975 102.857143 
L 101.3355 102.857143 
L 101.3355 87.017143 
" style="fill:#f8f1f8;"/>
    <path clip-path="url(#p72b30843df)" d="M 114.09975 87.017143 
L 126.864 87.017143 
L 126.864 102.857143 
L 114.09975 102.857143 
L 114.09975 87.017143 
" style="fill:none;"/>
    <path clip-path="url(#p72b30843df)" d="M 126.864 87.017143 
L 139.62825 87.017143 
L 139.62825 102.857143 
L 126.864 102.857143 
L 126.864 87.017143 
" style="fill:#f8f1f8;"/>
    <path clip-path="url(#p72b30843df)" d="M 139.62825 87.017143 
L 152.3925 87.017143 
L 152.3925 102.857143 
L 139.62825 102.857143 
L 139.62825 87.017143 
" style="fill:none;"/>
    <path clip-path="url(#p72b30843df)" d="M 152.3925 87.017143 
L 165.15675 87.017143 
L 165.15675 102.857143 
L 152.3925 102.857143 
L 152.3925 87.017143 
" style="fill:#f8f1f8;"/>
    <path clip-path="url(#p72b30843df)" d="M 24.75 102.857143 
L 37.51425 102.857143 
L 37.51425 118.697143 
L 24.75 118.697143 
L 24.75 102.857143 
" style="fill:#f8f1f8;"/>
    <path clip-path="url(#p72b30843df)" d="M 37.51425 102.857143 
L 50.2785 102.857143 
L 50.2785 118.697143 
L 37.51425 118.697143 
L 37.51425 102.857143 
" style="fill:none;"/>
    <path clip-path="url(#p72b30843df)" d="M 50.2785 102.857143 
L 63.04275 102.857143 
L 63.04275 118.697143 
L 50.2785 118.697143 
L 50.2785 102.857143 
" style="fill:none;"/>
    <path clip-path="url(#p72b30843df)" d="M 63.04275 102.857143 
L 75.807 102.857143 
L 75.807 118.697143 
L 63.04275 118.697143 
L 63.04275 102.857143 
" style="fill:none;"/>
    <path clip-path="url(#p72b30843df)" d="M 75.807 102.857143 
L 88.57125 102.857143 
L 88.57125 118.697143 
L 75.807 118.697143 
L 75.807 102.857143 
" style="fill:#e8e4f0;"/>
    <path clip-path="url(#p72b30843df)" d="M 88.57125 102.857143 
L 101.3355 102.857143 
L 101.3355 118.697143 
L 88.57125 118.697143 
L 88.57125 102.857143 
" style="fill:none;"/>
    <path clip-path="url(#p72b30843df)" d="M 101.3355 102.857143 
L 114.09975 102.857143 
L 114.09975 118.697143 
L 101.3355 118.697143 
L 101.3355 102.857143 
" style="fill:none;"/>
    <path clip-path="url(#p72b30843df)" d="M 114.09975 102.857143 
L 126.864 102.857143 
L 126.864 118.697143 
L 114.09975 118.697143 
L 114.09975 102.857143 
" style="fill:none;"/>
    <path clip-path="url(#p72b30843df)" d="M 126.864 102.857143 
L 139.62825 102.857143 
L 139.62825 118.697143 
L 126.864 118.697143 
L 126.864 102.857143 
" style="fill:none;"/>
    <path clip-path="url(#p72b30843df)" d="M 139.62825 102.857143 
L 152.3925 102.857143 
L 152.3925 118.697143 
L 139.62825 118.697143 
L 139.62825 102.857143 
" style="fill:none;"/>
    <path clip-path="url(#p72b30843df)" d="M 152.3925 102.857143 
L 165.15675 102.857143 
L 165.15675 118.697143 
L 152.3925 118.697143 
L 152.3925 102.857143 
" style="fill:none;"/>
    <path clip-path="url(#p72b30843df)" d="M 24.75 118.697143 
L 37.51425 118.697143 
L 37.51425 134.537143 
L 24.75 134.537143 
L 24.75 118.697143 
" style="fill:#f1ebf4;"/>
    <path clip-path="url(#p72b30843df)" d="M 37.51425 118.697143 
L 50.2785 118.697143 
L 50.2785 134.537143 
L 37.51425 134.537143 
L 37.51425 118.697143 
" style="fill:none;"/>
    <path clip-path="url(#p72b30843df)" d="M 50.2785 118.697143 
L 63.04275 118.697143 
L 63.04275 134.537143 
L 50.2785 134.537143 
L 50.2785 118.697143 
" style="fill:none;"/>
    <path clip-path="url(#p72b30843df)" d="M 63.04275 118.697143 
L 75.807 118.697143 
L 75.807 134.537143 
L 63.04275 134.537143 
L 63.04275 118.697143 
" style="fill:none;"/>
    <path clip-path="url(#p72b30843df)" d="M 75.807 118.697143 
L 88.57125 118.697143 
L 88.57125 134.537143 
L 75.807 134.537143 
L 75.807 118.697143 
" style="fill:none;"/>
    <path clip-path="url(#p72b30843df)" d="M 88.57125 118.697143 
L 101.3355 118.697143 
L 101.3355 134.537143 
L 88.57125 134.537143 
L 88.57125 118.697143 
" style="fill:none;"/>
    <path clip-path="url(#p72b30843df)" d="M 101.3355 118.697143 
L 114.09975 118.697143 
L 114.09975 134.537143 
L 101.3355 134.537143 
L 101.3355 118.697143 
" style="fill:none;"/>
    <path clip-path="url(#p72b30843df)" d="M 114.09975 118.697143 
L 126.864 118.697143 
L 126.864 134.537143 
L 114.09975 134.537143 
L 114.09975 118.697143 
" style="fill:none;"/>
    <path clip-path="url(#p72b30843df)" d="M 126.864 118.697143 
L 139.62825 118.697143 
L 139.62825 134.537143 
L 126.864 134.537143 
L 126.864 118.697143 
" style="fill:none;"/>
    <path clip-path="url(#p72b30843df)" d="M 139.62825 118.697143 
L 152.3925 118.697143 
L 152.3925 134.537143 
L 139.62825 134.537143 
L 139.62825 118.697143 
" style="fill:none;"/>
    <path clip-path="url(#p72b30843df)" d="M 152.3925 118.697143 
L 165.15675 118.697143 
L 165.15675 134.537143 
L 152.3925 134.537143 
L 152.3925 118.697143 
" style="fill:none;"/>
    <path clip-path="url(#p72b30843df)" d="M 24.75 134.537143 
L 37.51425 134.537143 
L 37.51425 150.377143 
L 24.75 150.377143 
L 24.75 134.537143 
" style="fill:#f8f1f8;"/>
    <path clip-path="url(#p72b30843df)" d="M 37.51425 134.537143 
L 50.2785 134.537143 
L 50.2785 150.377143 
L 37.51425 150.377143 
L 37.51425 134.537143 
" style="fill:none;"/>
    <path clip-path="url(#p72b30843df)" d="M 50.2785 134.537143 
L 63.04275 134.537143 
L 63.04275 150.377143 
L 50.2785 150.377143 
L 50.2785 134.537143 
" style="fill:none;"/>
    <path clip-path="url(#p72b30843df)" d="M 63.04275 134.537143 
L 75.807 134.537143 
L 75.807 150.377143 
L 63.04275 150.377143 
L 63.04275 134.537143 
" style="fill:none;"/>
    <path clip-path="url(#p72b30843df)" d="M 75.807 134.537143 
L 88.57125 134.537143 
L 88.57125 150.377143 
L 75.807 150.377143 
L 75.807 134.537143 
" style="fill:none;"/>
    <path clip-path="url(#p72b30843df)" d="M 88.57125 134.537143 
L 101.3355 134.537143 
L 101.3355 150.377143 
L 88.57125 150.377143 
L 88.57125 134.537143 
" style="fill:none;"/>
    <path clip-path="url(#p72b30843df)" d="M 101.3355 134.537143 
L 114.09975 134.537143 
L 114.09975 150.377143 
L 101.3355 150.377143 
L 101.3355 134.537143 
" style="fill:none;"/>
    <path clip-path="url(#p72b30843df)" d="M 114.09975 134.537143 
L 126.864 134.537143 
L 126.864 150.377143 
L 114.09975 150.377143 
L 114.09975 134.537143 
" style="fill:none;"/>
    <path clip-path="url(#p72b30843df)" d="M 126.864 134.537143 
L 139.62825 134.537143 
L 139.62825 150.377143 
L 126.864 150.377143 
L 126.864 134.537143 
" style="fill:none;"/>
    <path clip-path="url(#p72b30843df)" d="M 139.62825 134.537143 
L 152.3925 134.537143 
L 152.3925 150.377143 
L 139.62825 150.377143 
L 139.62825 134.537143 
" style="fill:none;"/>
    <path clip-path="url(#p72b30843df)" d="M 152.3925 134.537143 
L 165.15675 134.537143 
L 165.15675 150.377143 
L 152.3925 150.377143 
L 152.3925 134.537143 
" style="fill:#f8f1f8;"/>
    <path clip-path="url(#p72b30843df)" d="M 24.75 150.377143 
L 37.51425 150.377143 
L 37.51425 166.217143 
L 24.75 166.217143 
L 24.75 150.377143 
" style="fill:#f8f1f8;"/>
    <path clip-path="url(#p72b30843df)" d="M 37.51425 150.377143 
L 50.2785 150.377143 
L 50.2785 166.217143 
L 37.51425 166.217143 
L 37.51425 150.377143 
" style="fill:none;"/>
    <path clip-path="url(#p72b30843df)" d="M 50.2785 150.377143 
L 63.04275 150.377143 
L 63.04275 166.217143 
L 50.2785 166.217143 
L 50.2785 150.377143 
" style="fill:#f8f1f8;"/>
    <path clip-path="url(#p72b30843df)" d="M 63.04275 150.377143 
L 75.807 150.377143 
L 75.807 166.217143 
L 63.04275 166.217143 
L 63.04275 150.377143 
" style="fill:none;"/>
    <path clip-path="url(#p72b30843df)" d="M 75.807 150.377143 
L 88.57125 150.377143 
L 88.57125 166.217143 
L 75.807 166.217143 
L 75.807 150.377143 
" style="fill:#f8f1f8;"/>
    <path clip-path="url(#p72b30843df)" d="M 88.57125 150.377143 
L 101.3355 150.377143 
L 101.3355 166.217143 
L 88.57125 166.217143 
L 88.57125 150.377143 
" style="fill:none;"/>
    <path clip-path="url(#p72b30843df)" d="M 101.3355 150.377143 
L 114.09975 150.377143 
L 114.09975 166.217143 
L 101.3355 166.217143 
L 101.3355 150.377143 
" style="fill:#f8f1f8;"/>
    <path clip-path="url(#p72b30843df)" d="M 114.09975 150.377143 
L 126.864 150.377143 
L 126.864 166.217143 
L 114.09975 166.217143 
L 114.09975 150.377143 
" style="fill:none;"/>
    <path clip-path="url(#p72b30843df)" d="M 126.864 150.377143 
L 139.62825 150.377143 
L 139.62825 166.217143 
L 126.864 166.217143 
L 126.864 150.377143 
" style="fill:#f8f1f8;"/>
    <path clip-path="url(#p72b30843df)" d="M 139.62825 150.377143 
L 152.3925 150.377143 
L 152.3925 166.217143 
L 139.62825 166.217143 
L 139.62825 150.377143 
" style="fill:none;"/>
    <path clip-path="url(#p72b30843df)" d="M 152.3925 150.377143 
L 165.15675 150.377143 
L 165.15675 166.217143 
L 152.3925 166.217143 
L 152.3925 150.377143 
" style="fill:#f8f1f8;"/>
    <path clip-path="url(#p72b30843df)" d="M 24.75 166.217143 
L 37.51425 166.217143 
L 37.51425 182.057143 
L 24.75 182.057143 
L 24.75 166.217143 
" style="fill:#f8f1f8;"/>
    <path clip-path="url(#p72b30843df)" d="M 37.51425 166.217143 
L 50.2785 166.217143 
L 50.2785 182.057143 
L 37.51425 182.057143 
L 37.51425 166.217143 
" style="fill:none;"/>
    <path clip-path="url(#p72b30843df)" d="M 50.2785 166.217143 
L 63.04275 166.217143 
L 63.04275 182.057143 
L 50.2785 182.057143 
L 50.2785 166.217143 
" style="fill:none;"/>
    <path clip-path="url(#p72b30843df)" d="M 63.04275 166.217143 
L 75.807 166.217143 
L 75.807 182.057143 
L 63.04275 182.057143 
L 63.04275 166.217143 
" style="fill:none;"/>
    <path clip-path="url(#p72b30843df)" d="M 75.807 166.217143 
L 88.57125 166.217143 
L 88.57125 182.057143 
L 75.807 182.057143 
L 75.807 166.217143 
" style="fill:none;"/>
    <path clip-path="url(#p72b30843df)" d="M 88.57125 166.217143 
L 101.3355 166.217143 
L 101.3355 182.057143 
L 88.57125 182.057143 
L 88.57125 166.217143 
" style="fill:none;"/>
    <path clip-path="url(#p72b30843df)" d="M 101.3355 166.217143 
L 114.09975 166.217143 
L 114.09975 182.057143 
L 101.3355 182.057143 
L 101.3355 166.217143 
" style="fill:none;"/>
    <path clip-path="url(#p72b30843df)" d="M 114.09975 166.217143 
L 126.864 166.217143 
L 126.864 182.057143 
L 114.09975 182.057143 
L 114.09975 166.217143 
" style="fill:none;"/>
    <path clip-path="url(#p72b30843df)" d="M 126.864 166.217143 
L 139.62825 166.217143 
L 139.62825 182.057143 
L 126.864 182.057143 
L 126.864 166.217143 
" style="fill:none;"/>
    <path clip-path="url(#p72b30843df)" d="M 139.62825 166.217143 
L 152.3925 166.217143 
L 152.3925 182.057143 
L 139.62825 182.057143 
L 139.62825 166.217143 
" style="fill:none;"/>
    <path clip-path="url(#p72b30843df)" d="M 152.3925 166.217143 
L 165.15675 166.217143 
L 165.15675 182.057143 
L 152.3925 182.057143 
L 152.3925 166.217143 
" style="fill:#dedcec;"/>
    <path clip-path="url(#p72b30843df)" d="M 24.75 182.057143 
L 37.51425 182.057143 
L 37.51425 197.897143 
L 24.75 197.897143 
L 24.75 182.057143 
" style="fill:#f8f1f8;"/>
    <path clip-path="url(#p72b30843df)" d="M 37.51425 182.057143 
L 50.2785 182.057143 
L 50.2785 197.897143 
L 37.51425 197.897143 
L 37.51425 182.057143 
" style="fill:none;"/>
    <path clip-path="url(#p72b30843df)" d="M 50.2785 182.057143 
L 63.04275 182.057143 
L 63.04275 197.897143 
L 50.2785 197.897143 
L 50.2785 182.057143 
" style="fill:none;"/>
    <path clip-path="url(#p72b30843df)" d="M 63.04275 182.057143 
L 75.807 182.057143 
L 75.807 197.897143 
L 63.04275 197.897143 
L 63.04275 182.057143 
" style="fill:none;"/>
    <path clip-path="url(#p72b30843df)" d="M 75.807 182.057143 
L 88.57125 182.057143 
L 88.57125 197.897143 
L 75.807 197.897143 
L 75.807 182.057143 
" style="fill:#f1ebf4;"/>
    <path clip-path="url(#p72b30843df)" d="M 88.57125 182.057143 
L 101.3355 182.057143 
L 101.3355 197.897143 
L 88.57125 197.897143 
L 88.57125 182.057143 
" style="fill:none;"/>
    <path clip-path="url(#p72b30843df)" d="M 101.3355 182.057143 
L 114.09975 182.057143 
L 114.09975 197.897143 
L 101.3355 197.897143 
L 101.3355 182.057143 
" style="fill:#f8f1f8;"/>
    <path clip-path="url(#p72b30843df)" d="M 114.09975 182.057143 
L 126.864 182.057143 
L 126.864 197.897143 
L 114.09975 197.897143 
L 114.09975 182.057143 
" style="fill:none;"/>
    <path clip-path="url(#p72b30843df)" d="M 126.864 182.057143 
L 139.62825 182.057143 
L 139.62825 197.897143 
L 126.864 197.897143 
L 126.864 182.057143 
" style="fill:#f1ebf4;"/>
    <path clip-path="url(#p72b30843df)" d="M 139.62825 182.057143 
L 152.3925 182.057143 
L 152.3925 197.897143 
L 139.62825 197.897143 
L 139.62825 182.057143 
" style="fill:none;"/>
    <path clip-path="url(#p72b30843df)" d="M 152.3925 182.057143 
L 165.15675 182.057143 
L 165.15675 197.897143 
L 152.3925 197.897143 
L 152.3925 182.057143 
" style="fill:#03456c;"/>
    <path clip-path="url(#p72b30843df)" d="M 24.75 197.897143 
L 37.51425 197.897143 
L 37.51425 213.737143 
L 24.75 213.737143 
L 24.75 197.897143 
" style="fill:#f8f1f8;"/>
    <path clip-path="url(#p72b30843df)" d="M 37.51425 197.897143 
L 50.2785 197.897143 
L 50.2785 213.737143 
L 37.51425 213.737143 
L 37.51425 197.897143 
" style="fill:none;"/>
    <path clip-path="url(#p72b30843df)" d="M 50.2785 197.897143 
L 63.04275 197.897143 
L 63.04275 213.737143 
L 50.2785 213.737143 
L 50.2785 197.897143 
" style="fill:#f8f1f8;"/>
    <path clip-path="url(#p72b30843df)" d="M 63.04275 197.897143 
L 75.807 197.897143 
L 75.807 213.737143 
L 63.04275 213.737143 
L 63.04275 197.897143 
" style="fill:none;"/>
    <path clip-path="url(#p72b30843df)" d="M 75.807 197.897143 
L 88.57125 197.897143 
L 88.57125 213.737143 
L 75.807 213.737143 
L 75.807 197.897143 
" style="fill:#f8f1f8;"/>
    <path clip-path="url(#p72b30843df)" d="M 88.57125 197.897143 
L 101.3355 197.897143 
L 101.3355 213.737143 
L 88.57125 213.737143 
L 88.57125 197.897143 
" style="fill:none;"/>
    <path clip-path="url(#p72b30843df)" d="M 101.3355 197.897143 
L 114.09975 197.897143 
L 114.09975 213.737143 
L 101.3355 213.737143 
L 101.3355 197.897143 
" style="fill:none;"/>
    <path clip-path="url(#p72b30843df)" d="M 114.09975 197.897143 
L 126.864 197.897143 
L 126.864 213.737143 
L 114.09975 213.737143 
L 114.09975 197.897143 
" style="fill:none;"/>
    <path clip-path="url(#p72b30843df)" d="M 126.864 197.897143 
L 139.62825 197.897143 
L 139.62825 213.737143 
L 126.864 213.737143 
L 126.864 197.897143 
" style="fill:#f8f1f8;"/>
    <path clip-path="url(#p72b30843df)" d="M 139.62825 197.897143 
L 152.3925 197.897143 
L 152.3925 213.737143 
L 139.62825 213.737143 
L 139.62825 197.897143 
" style="fill:none;"/>
    <path clip-path="url(#p72b30843df)" d="M 152.3925 197.897143 
L 165.15675 197.897143 
L 165.15675 213.737143 
L 152.3925 213.737143 
L 152.3925 197.897143 
" style="fill:none;"/>
    <path clip-path="url(#p72b30843df)" d="M 24.75 213.737143 
L 37.51425 213.737143 
L 37.51425 229.577143 
L 24.75 229.577143 
L 24.75 213.737143 
" style="fill:#f8f1f8;"/>
    <path clip-path="url(#p72b30843df)" d="M 37.51425 213.737143 
L 50.2785 213.737143 
L 50.2785 229.577143 
L 37.51425 229.577143 
L 37.51425 213.737143 
" style="fill:none;"/>
    <path clip-path="url(#p72b30843df)" d="M 50.2785 213.737143 
L 63.04275 213.737143 
L 63.04275 229.577143 
L 50.2785 229.577143 
L 50.2785 213.737143 
" style="fill:#f8f1f8;"/>
    <path clip-path="url(#p72b30843df)" d="M 63.04275 213.737143 
L 75.807 213.737143 
L 75.807 229.577143 
L 63.04275 229.577143 
L 63.04275 213.737143 
" style="fill:none;"/>
    <path clip-path="url(#p72b30843df)" d="M 75.807 213.737143 
L 88.57125 213.737143 
L 88.57125 229.577143 
L 75.807 229.577143 
L 75.807 213.737143 
" style="fill:#f8f1f8;"/>
    <path clip-path="url(#p72b30843df)" d="M 88.57125 213.737143 
L 101.3355 213.737143 
L 101.3355 229.577143 
L 88.57125 229.577143 
L 88.57125 213.737143 
" style="fill:none;"/>
    <path clip-path="url(#p72b30843df)" d="M 101.3355 213.737143 
L 114.09975 213.737143 
L 114.09975 229.577143 
L 101.3355 229.577143 
L 101.3355 213.737143 
" style="fill:#f8f1f8;"/>
    <path clip-path="url(#p72b30843df)" d="M 114.09975 213.737143 
L 126.864 213.737143 
L 126.864 229.577143 
L 114.09975 229.577143 
L 114.09975 213.737143 
" style="fill:none;"/>
    <path clip-path="url(#p72b30843df)" d="M 126.864 213.737143 
L 139.62825 213.737143 
L 139.62825 229.577143 
L 126.864 229.577143 
L 126.864 213.737143 
" style="fill:#f8f1f8;"/>
    <path clip-path="url(#p72b30843df)" d="M 139.62825 213.737143 
L 152.3925 213.737143 
L 152.3925 229.577143 
L 139.62825 229.577143 
L 139.62825 213.737143 
" style="fill:none;"/>
    <path clip-path="url(#p72b30843df)" d="M 152.3925 213.737143 
L 165.15675 213.737143 
L 165.15675 229.577143 
L 152.3925 229.577143 
L 152.3925 213.737143 
" style="fill:none;"/>
    <path clip-path="url(#p72b30843df)" d="M 24.75 229.577143 
L 37.51425 229.577143 
L 37.51425 245.417143 
L 24.75 245.417143 
L 24.75 229.577143 
" style="fill:none;"/>
    <path clip-path="url(#p72b30843df)" d="M 37.51425 229.577143 
L 50.2785 229.577143 
L 50.2785 245.417143 
L 37.51425 245.417143 
L 37.51425 229.577143 
" style="fill:#f8f1f8;"/>
    <path clip-path="url(#p72b30843df)" d="M 50.2785 229.577143 
L 63.04275 229.577143 
L 63.04275 245.417143 
L 50.2785 245.417143 
L 50.2785 229.577143 
" style="fill:none;"/>
    <path clip-path="url(#p72b30843df)" d="M 63.04275 229.577143 
L 75.807 229.577143 
L 75.807 245.417143 
L 63.04275 245.417143 
L 63.04275 229.577143 
" style="fill:#f8f1f8;"/>
    <path clip-path="url(#p72b30843df)" d="M 75.807 229.577143 
L 88.57125 229.577143 
L 88.57125 245.417143 
L 75.807 245.417143 
L 75.807 229.577143 
" style="fill:none;"/>
    <path clip-path="url(#p72b30843df)" d="M 88.57125 229.577143 
L 101.3355 229.577143 
L 101.3355 245.417143 
L 88.57125 245.417143 
L 88.57125 229.577143 
" style="fill:#f8f1f8;"/>
    <path clip-path="url(#p72b30843df)" d="M 101.3355 229.577143 
L 114.09975 229.577143 
L 114.09975 245.417143 
L 101.3355 245.417143 
L 101.3355 229.577143 
" style="fill:none;"/>
    <path clip-path="url(#p72b30843df)" d="M 114.09975 229.577143 
L 126.864 229.577143 
L 126.864 245.417143 
L 114.09975 245.417143 
L 114.09975 229.577143 
" style="fill:#f8f1f8;"/>
    <path clip-path="url(#p72b30843df)" d="M 126.864 229.577143 
L 139.62825 229.577143 
L 139.62825 245.417143 
L 126.864 245.417143 
L 126.864 229.577143 
" style="fill:none;"/>
    <path clip-path="url(#p72b30843df)" d="M 139.62825 229.577143 
L 152.3925 229.577143 
L 152.3925 245.417143 
L 139.62825 245.417143 
L 139.62825 229.577143 
" style="fill:#f8f1f8;"/>
    <path clip-path="url(#p72b30843df)" d="M 152.3925 229.577143 
L 165.15675 229.577143 
L 165.15675 245.417143 
L 152.3925 245.417143 
L 152.3925 229.577143 
" style="fill:none;"/>
    <path clip-path="url(#p72b30843df)" d="M 24.75 245.417143 
L 37.51425 245.417143 
L 37.51425 261.257143 
L 24.75 261.257143 
L 24.75 245.417143 
" style="fill:none;"/>
    <path clip-path="url(#p72b30843df)" d="M 37.51425 245.417143 
L 50.2785 245.417143 
L 50.2785 261.257143 
L 37.51425 261.257143 
L 37.51425 245.417143 
" style="fill:#f8f1f8;"/>
    <path clip-path="url(#p72b30843df)" d="M 50.2785 245.417143 
L 63.04275 245.417143 
L 63.04275 261.257143 
L 50.2785 261.257143 
L 50.2785 245.417143 
" style="fill:none;"/>
    <path clip-path="url(#p72b30843df)" d="M 63.04275 245.417143 
L 75.807 245.417143 
L 75.807 261.257143 
L 63.04275 261.257143 
L 63.04275 245.417143 
" style="fill:#f8f1f8;"/>
    <path clip-path="url(#p72b30843df)" d="M 75.807 245.417143 
L 88.57125 245.417143 
L 88.57125 261.257143 
L 75.807 261.257143 
L 75.807 245.417143 
" style="fill:none;"/>
    <path clip-path="url(#p72b30843df)" d="M 88.57125 245.417143 
L 101.3355 245.417143 
L 101.3355 261.257143 
L 88.57125 261.257143 
L 88.57125 245.417143 
" style="fill:#f8f1f8;"/>
    <path clip-path="url(#p72b30843df)" d="M 101.3355 245.417143 
L 114.09975 245.417143 
L 114.09975 261.257143 
L 101.3355 261.257143 
L 101.3355 245.417143 
" style="fill:none;"/>
    <path clip-path="url(#p72b30843df)" d="M 114.09975 245.417143 
L 126.864 245.417143 
L 126.864 261.257143 
L 114.09975 261.257143 
L 114.09975 245.417143 
" style="fill:none;"/>
    <path clip-path="url(#p72b30843df)" d="M 126.864 245.417143 
L 139.62825 245.417143 
L 139.62825 261.257143 
L 126.864 261.257143 
L 126.864 245.417143 
" style="fill:none;"/>
    <path clip-path="url(#p72b30843df)" d="M 139.62825 245.417143 
L 152.3925 245.417143 
L 152.3925 261.257143 
L 139.62825 261.257143 
L 139.62825 245.417143 
" style="fill:#f8f1f8;"/>
    <path clip-path="url(#p72b30843df)" d="M 152.3925 245.417143 
L 165.15675 245.417143 
L 165.15675 261.257143 
L 152.3925 261.257143 
L 152.3925 245.417143 
" style="fill:none;"/>
    <path clip-path="url(#p72b30843df)" d="M 24.75 261.257143 
L 37.51425 261.257143 
L 37.51425 277.097143 
L 24.75 277.097143 
L 24.75 261.257143 
" style="fill:none;"/>
    <path clip-path="url(#p72b30843df)" d="M 37.51425 261.257143 
L 50.2785 261.257143 
L 50.2785 277.097143 
L 37.51425 277.097143 
L 37.51425 261.257143 
" style="fill:#f8f1f8;"/>
    <path clip-path="url(#p72b30843df)" d="M 50.2785 261.257143 
L 63.04275 261.257143 
L 63.04275 277.097143 
L 50.2785 277.097143 
L 50.2785 261.257143 
" style="fill:none;"/>
    <path clip-path="url(#p72b30843df)" d="M 63.04275 261.257143 
L 75.807 261.257143 
L 75.807 277.097143 
L 63.04275 277.097143 
L 63.04275 261.257143 
" style="fill:#f8f1f8;"/>
    <path clip-path="url(#p72b30843df)" d="M 75.807 261.257143 
L 88.57125 261.257143 
L 88.57125 277.097143 
L 75.807 277.097143 
L 75.807 261.257143 
" style="fill:none;"/>
    <path clip-path="url(#p72b30843df)" d="M 88.57125 261.257143 
L 101.3355 261.257143 
L 101.3355 277.097143 
L 88.57125 277.097143 
L 88.57125 261.257143 
" style="fill:#f8f1f8;"/>
    <path clip-path="url(#p72b30843df)" d="M 101.3355 261.257143 
L 114.09975 261.257143 
L 114.09975 277.097143 
L 101.3355 277.097143 
L 101.3355 261.257143 
" style="fill:none;"/>
    <path clip-path="url(#p72b30843df)" d="M 114.09975 261.257143 
L 126.864 261.257143 
L 126.864 277.097143 
L 114.09975 277.097143 
L 114.09975 261.257143 
" style="fill:#f8f1f8;"/>
    <path clip-path="url(#p72b30843df)" d="M 126.864 261.257143 
L 139.62825 261.257143 
L 139.62825 277.097143 
L 126.864 277.097143 
L 126.864 261.257143 
" style="fill:none;"/>
    <path clip-path="url(#p72b30843df)" d="M 139.62825 261.257143 
L 152.3925 261.257143 
L 152.3925 277.097143 
L 139.62825 277.097143 
L 139.62825 261.257143 
" style="fill:#f8f1f8;"/>
    <path clip-path="url(#p72b30843df)" d="M 152.3925 261.257143 
L 165.15675 261.257143 
L 165.15675 277.097143 
L 152.3925 277.097143 
L 152.3925 261.257143 
" style="fill:none;"/>
    <path clip-path="url(#p72b30843df)" d="M 24.75 277.097143 
L 37.51425 277.097143 
L 37.51425 292.937143 
L 24.75 292.937143 
L 24.75 277.097143 
" style="fill:none;"/>
    <path clip-path="url(#p72b30843df)" d="M 37.51425 277.097143 
L 50.2785 277.097143 
L 50.2785 292.937143 
L 37.51425 292.937143 
L 37.51425 277.097143 
" style="fill:none;"/>
    <path clip-path="url(#p72b30843df)" d="M 50.2785 277.097143 
L 63.04275 277.097143 
L 63.04275 292.937143 
L 50.2785 292.937143 
L 50.2785 277.097143 
" style="fill:none;"/>
    <path clip-path="url(#p72b30843df)" d="M 63.04275 277.097143 
L 75.807 277.097143 
L 75.807 292.937143 
L 63.04275 292.937143 
L 63.04275 277.097143 
" style="fill:none;"/>
    <path clip-path="url(#p72b30843df)" d="M 75.807 277.097143 
L 88.57125 277.097143 
L 88.57125 292.937143 
L 75.807 292.937143 
L 75.807 277.097143 
" style="fill:none;"/>
    <path clip-path="url(#p72b30843df)" d="M 88.57125 277.097143 
L 101.3355 277.097143 
L 101.3355 292.937143 
L 88.57125 292.937143 
L 88.57125 277.097143 
" style="fill:#dedcec;"/>
    <path clip-path="url(#p72b30843df)" d="M 101.3355 277.097143 
L 114.09975 277.097143 
L 114.09975 292.937143 
L 101.3355 292.937143 
L 101.3355 277.097143 
" style="fill:none;"/>
    <path clip-path="url(#p72b30843df)" d="M 114.09975 277.097143 
L 126.864 277.097143 
L 126.864 292.937143 
L 114.09975 292.937143 
L 114.09975 277.097143 
" style="fill:none;"/>
    <path clip-path="url(#p72b30843df)" d="M 126.864 277.097143 
L 139.62825 277.097143 
L 139.62825 292.937143 
L 126.864 292.937143 
L 126.864 277.097143 
" style="fill:none;"/>
    <path clip-path="url(#p72b30843df)" d="M 139.62825 277.097143 
L 152.3925 277.097143 
L 152.3925 292.937143 
L 139.62825 292.937143 
L 139.62825 277.097143 
" style="fill:none;"/>
    <path clip-path="url(#p72b30843df)" d="M 152.3925 277.097143 
L 165.15675 277.097143 
L 165.15675 292.937143 
L 152.3925 292.937143 
L 152.3925 277.097143 
" style="fill:none;"/>
   </g>
   <g id="matplotlib.axis_1">
    <g id="xtick_1">
     <g id="line2d_1">
      <defs>
       <path d="M 0 0 
L 0 10 
" id="m2a0bc041a6" style="stroke:#000000;stroke-width:0.8;"/>
      </defs>
      <g>
       <use style="stroke:#000000;stroke-width:0.8;" x="24.75" xlink:href="#m2a0bc041a6" y="292.937143"/>
      </g>
     </g>
     <g id="text_1">
      <!-- 0 -->
      <g transform="translate(19.189062 320.784018)scale(0.2 -0.2)">
       <defs>
        <path d="M 1731 4475 
Q 2600 4475 2988 3759 
Q 3288 3206 3288 2244 
Q 3288 1331 3016 734 
Q 2622 -122 1728 -122 
Q 922 -122 528 578 
Q 200 1163 200 2147 
Q 200 2909 397 3456 
Q 766 4475 1731 4475 
z
M 1725 391 
Q 2163 391 2422 778 
Q 2681 1166 2681 2222 
Q 2681 2984 2493 3476 
Q 2306 3969 1766 3969 
Q 1269 3969 1039 3501 
Q 809 3034 809 2125 
Q 809 1441 956 1025 
Q 1181 391 1725 391 
z
" id="Helvetica-30" transform="scale(0.015625)"/>
       </defs>
       <use xlink:href="#Helvetica-30"/>
      </g>
     </g>
    </g>
    <g id="xtick_2">
     <g id="line2d_2">
      <g>
       <use style="stroke:#000000;stroke-width:0.8;" x="152.3925" xlink:href="#m2a0bc041a6" y="292.937143"/>
      </g>
     </g>
     <g id="text_2">
      <!-- 10 -->
      <g transform="translate(141.270625 320.784018)scale(0.2 -0.2)">
       <defs>
        <path d="M 613 3169 
L 613 3600 
Q 1222 3659 1462 3798 
Q 1703 3938 1822 4456 
L 2266 4456 
L 2266 0 
L 1666 0 
L 1666 3169 
L 613 3169 
z
" id="Helvetica-31" transform="scale(0.015625)"/>
       </defs>
       <use xlink:href="#Helvetica-31"/>
       <use x="55.615234" xlink:href="#Helvetica-30"/>
      </g>
     </g>
    </g>
    <g id="text_3">
     <!-- Position -->
     <g transform="translate(59.378375 343.299643)scale(0.2 -0.2)">
      <defs>
       <path d="M 547 4591 
L 2613 4591 
Q 3225 4591 3600 4245 
Q 3975 3900 3975 3275 
Q 3975 2738 3640 2339 
Q 3306 1941 2613 1941 
L 1169 1941 
L 1169 0 
L 547 0 
L 547 4591 
z
M 3347 3272 
Q 3347 3778 2972 3959 
Q 2766 4056 2406 4056 
L 1169 4056 
L 1169 2466 
L 2406 2466 
Q 2825 2466 3086 2644 
Q 3347 2822 3347 3272 
z
" id="Helvetica-50" transform="scale(0.015625)"/>
       <path d="M 1741 363 
Q 2300 363 2508 786 
Q 2716 1209 2716 1728 
Q 2716 2197 2566 2491 
Q 2328 2953 1747 2953 
Q 1231 2953 997 2559 
Q 763 2166 763 1609 
Q 763 1075 997 719 
Q 1231 363 1741 363 
z
M 1763 3444 
Q 2409 3444 2856 3012 
Q 3303 2581 3303 1744 
Q 3303 934 2909 406 
Q 2516 -122 1688 -122 
Q 997 -122 590 345 
Q 184 813 184 1600 
Q 184 2444 612 2944 
Q 1041 3444 1763 3444 
z
M 1744 3428 
L 1744 3428 
z
" id="Helvetica-6f" transform="scale(0.015625)"/>
       <path d="M 747 1050 
Q 772 769 888 619 
Q 1100 347 1625 347 
Q 1938 347 2175 483 
Q 2413 619 2413 903 
Q 2413 1119 2222 1231 
Q 2100 1300 1741 1391 
L 1294 1503 
Q 866 1609 663 1741 
Q 300 1969 300 2372 
Q 300 2847 642 3140 
Q 984 3434 1563 3434 
Q 2319 3434 2653 2991 
Q 2863 2709 2856 2384 
L 2325 2384 
Q 2309 2575 2191 2731 
Q 1997 2953 1519 2953 
Q 1200 2953 1036 2831 
Q 872 2709 872 2509 
Q 872 2291 1088 2159 
Q 1213 2081 1456 2022 
L 1828 1931 
Q 2434 1784 2641 1647 
Q 2969 1431 2969 969 
Q 2969 522 2630 197 
Q 2291 -128 1597 -128 
Q 850 -128 539 211 
Q 228 550 206 1050 
L 747 1050 
z
M 1578 3428 
L 1578 3428 
z
" id="Helvetica-73" transform="scale(0.015625)"/>
       <path d="M 413 3331 
L 984 3331 
L 984 0 
L 413 0 
L 413 3331 
z
M 413 4591 
L 984 4591 
L 984 3953 
L 413 3953 
L 413 4591 
z
" id="Helvetica-69" transform="scale(0.015625)"/>
       <path d="M 525 4281 
L 1094 4281 
L 1094 3347 
L 1628 3347 
L 1628 2888 
L 1094 2888 
L 1094 703 
Q 1094 528 1213 469 
Q 1278 434 1431 434 
Q 1472 434 1519 436 
Q 1566 438 1628 444 
L 1628 0 
Q 1531 -28 1426 -40 
Q 1322 -53 1200 -53 
Q 806 -53 665 148 
Q 525 350 525 672 
L 525 2888 
L 72 2888 
L 72 3347 
L 525 3347 
L 525 4281 
z
" id="Helvetica-74" transform="scale(0.015625)"/>
       <path d="M 413 3347 
L 947 3347 
L 947 2872 
Q 1184 3166 1450 3294 
Q 1716 3422 2041 3422 
Q 2753 3422 3003 2925 
Q 3141 2653 3141 2147 
L 3141 0 
L 2569 0 
L 2569 2109 
Q 2569 2416 2478 2603 
Q 2328 2916 1934 2916 
Q 1734 2916 1606 2875 
Q 1375 2806 1200 2600 
Q 1059 2434 1017 2257 
Q 975 2081 975 1753 
L 975 0 
L 413 0 
L 413 3347 
z
M 1734 3428 
L 1734 3428 
z
" id="Helvetica-6e" transform="scale(0.015625)"/>
      </defs>
      <use xlink:href="#Helvetica-50"/>
      <use x="66.699219" xlink:href="#Helvetica-6f"/>
      <use x="122.314453" xlink:href="#Helvetica-73"/>
      <use x="172.314453" xlink:href="#Helvetica-69"/>
      <use x="194.53125" xlink:href="#Helvetica-74"/>
      <use x="222.314453" xlink:href="#Helvetica-69"/>
      <use x="244.53125" xlink:href="#Helvetica-6f"/>
      <use x="300.146484" xlink:href="#Helvetica-6e"/>
     </g>
    </g>
   </g>
   <g id="matplotlib.axis_2">
    <g id="ytick_1">
     <g id="line2d_3">
      <defs>
       <path d="M 0 0 
L -10 0 
" id="m2c7b367ad1" style="stroke:#000000;stroke-width:0.8;"/>
      </defs>
      <g>
       <use style="stroke:#000000;stroke-width:0.8;" x="24.75" xlink:href="#m2c7b367ad1" y="47.417143"/>
      </g>
     </g>
     <g id="text_4">
      <!-- 1-1 -->
      <g transform="translate(-17.653125 54.59058)scale(0.2 -0.2)">
       <defs>
        <path d="M 266 2072 
L 1834 2072 
L 1834 1494 
L 266 1494 
L 266 2072 
z
" id="Helvetica-2d" transform="scale(0.015625)"/>
       </defs>
       <use xlink:href="#Helvetica-31"/>
       <use x="55.615234" xlink:href="#Helvetica-2d"/>
       <use x="88.916016" xlink:href="#Helvetica-31"/>
      </g>
     </g>
    </g>
    <g id="ytick_2">
     <g id="line2d_4">
      <g>
       <use style="stroke:#000000;stroke-width:0.8;" x="24.75" xlink:href="#m2c7b367ad1" y="63.257143"/>
      </g>
     </g>
     <g id="text_5">
      <!-- Gal -->
      <g transform="translate(-19.871875 70.43058)scale(0.2 -0.2)">
       <defs>
        <path d="M 2472 4709 
Q 3119 4709 3591 4459 
Q 4275 4100 4428 3200 
L 3813 3200 
Q 3700 3703 3347 3933 
Q 2994 4163 2456 4163 
Q 1819 4163 1383 3684 
Q 947 3206 947 2259 
Q 947 1441 1306 927 
Q 1666 413 2478 413 
Q 3100 413 3508 773 
Q 3916 1134 3925 1941 
L 2488 1941 
L 2488 2456 
L 4503 2456 
L 4503 0 
L 4103 0 
L 3953 591 
Q 3638 244 3394 109 
Q 2984 -122 2353 -122 
Q 1538 -122 950 406 
Q 309 1069 309 2225 
Q 309 3378 934 4059 
Q 1528 4709 2472 4709 
z
M 2369 4716 
L 2369 4716 
z
" id="Helvetica-47" transform="scale(0.015625)"/>
        <path d="M 844 891 
Q 844 647 1022 506 
Q 1200 366 1444 366 
Q 1741 366 2019 503 
Q 2488 731 2488 1250 
L 2488 1703 
Q 2384 1638 2221 1594 
Q 2059 1550 1903 1531 
L 1563 1488 
Q 1256 1447 1103 1359 
Q 844 1213 844 891 
z
M 2206 2028 
Q 2400 2053 2466 2191 
Q 2503 2266 2503 2406 
Q 2503 2694 2298 2823 
Q 2094 2953 1713 2953 
Q 1272 2953 1088 2716 
Q 984 2584 953 2325 
L 428 2325 
Q 444 2944 830 3186 
Q 1216 3428 1725 3428 
Q 2316 3428 2684 3203 
Q 3050 2978 3050 2503 
L 3050 575 
Q 3050 488 3086 434 
Q 3122 381 3238 381 
Q 3275 381 3322 386 
Q 3369 391 3422 400 
L 3422 -16 
Q 3291 -53 3222 -62 
Q 3153 -72 3034 -72 
Q 2744 -72 2613 134 
Q 2544 244 2516 444 
Q 2344 219 2022 53 
Q 1700 -113 1313 -113 
Q 847 -113 551 170 
Q 256 453 256 878 
Q 256 1344 547 1600 
Q 838 1856 1309 1916 
L 2206 2028 
z
M 1741 3428 
L 1741 3428 
z
" id="Helvetica-61" transform="scale(0.015625)"/>
        <path d="M 428 4591 
L 991 4591 
L 991 0 
L 428 0 
L 428 4591 
z
" id="Helvetica-6c" transform="scale(0.015625)"/>
       </defs>
       <use xlink:href="#Helvetica-47"/>
       <use x="77.783203" xlink:href="#Helvetica-61"/>
       <use x="133.398438" xlink:href="#Helvetica-6c"/>
      </g>
     </g>
    </g>
    <g id="ytick_3">
     <g id="line2d_5">
      <g>
       <use style="stroke:#000000;stroke-width:0.8;" x="24.75" xlink:href="#m2c7b367ad1" y="79.097143"/>
      </g>
     </g>
     <g id="text_6">
      <!-- Glc -->
      <g transform="translate(-18.75 86.27058)scale(0.2 -0.2)">
       <defs>
        <path d="M 1703 3444 
Q 2269 3444 2623 3169 
Q 2978 2894 3050 2222 
L 2503 2222 
Q 2453 2531 2275 2736 
Q 2097 2941 1703 2941 
Q 1166 2941 934 2416 
Q 784 2075 784 1575 
Q 784 1072 996 728 
Q 1209 384 1666 384 
Q 2016 384 2220 598 
Q 2425 813 2503 1184 
L 3050 1184 
Q 2956 519 2581 211 
Q 2206 -97 1622 -97 
Q 966 -97 575 383 
Q 184 863 184 1581 
Q 184 2463 612 2953 
Q 1041 3444 1703 3444 
z
M 1616 3428 
L 1616 3428 
z
" id="Helvetica-63" transform="scale(0.015625)"/>
       </defs>
       <use xlink:href="#Helvetica-47"/>
       <use x="77.783203" xlink:href="#Helvetica-6c"/>
       <use x="100" xlink:href="#Helvetica-63"/>
      </g>
     </g>
    </g>
    <g id="ytick_4">
     <g id="line2d_6">
      <g>
       <use style="stroke:#000000;stroke-width:0.8;" x="24.75" xlink:href="#m2c7b367ad1" y="94.937143"/>
      </g>
     </g>
     <g id="text_7">
      <!-- GlcNAc -->
      <g transform="translate(-56.534375 102.11058)scale(0.2 -0.2)">
       <defs>
        <path d="M 488 4591 
L 1222 4591 
L 3541 872 
L 3541 4591 
L 4131 4591 
L 4131 0 
L 3434 0 
L 1081 3716 
L 1081 0 
L 488 0 
L 488 4591 
z
M 2269 4591 
L 2269 4591 
z
" id="Helvetica-4e" transform="scale(0.015625)"/>
        <path d="M 2844 1881 
L 2147 3909 
L 1406 1881 
L 2844 1881 
z
M 1822 4591 
L 2525 4591 
L 4191 0 
L 3509 0 
L 3044 1375 
L 1228 1375 
L 731 0 
L 94 0 
L 1822 4591 
z
M 2144 4591 
L 2144 4591 
z
" id="Helvetica-41" transform="scale(0.015625)"/>
       </defs>
       <use xlink:href="#Helvetica-47"/>
       <use x="77.783203" xlink:href="#Helvetica-6c"/>
       <use x="100" xlink:href="#Helvetica-63"/>
       <use x="150" xlink:href="#Helvetica-4e"/>
       <use x="222.216797" xlink:href="#Helvetica-41"/>
       <use x="288.916016" xlink:href="#Helvetica-63"/>
      </g>
     </g>
    </g>
    <g id="ytick_5">
     <g id="line2d_7">
      <g>
       <use style="stroke:#000000;stroke-width:0.8;" x="24.75" xlink:href="#m2c7b367ad1" y="110.777143"/>
      </g>
     </g>
     <g id="text_8">
      <!-- GlcNAcAN -->
      <g transform="translate(-84.31875 117.95058)scale(0.2 -0.2)">
       <use xlink:href="#Helvetica-47"/>
       <use x="77.783203" xlink:href="#Helvetica-6c"/>
       <use x="100" xlink:href="#Helvetica-63"/>
       <use x="150" xlink:href="#Helvetica-4e"/>
       <use x="222.216797" xlink:href="#Helvetica-41"/>
       <use x="288.916016" xlink:href="#Helvetica-63"/>
       <use x="338.916016" xlink:href="#Helvetica-41"/>
       <use x="405.615234" xlink:href="#Helvetica-4e"/>
      </g>
     </g>
    </g>
    <g id="ytick_6">
     <g id="line2d_8">
      <g>
       <use style="stroke:#000000;stroke-width:0.8;" x="24.75" xlink:href="#m2c7b367ad1" y="126.617143"/>
      </g>
     </g>
     <g id="text_9">
      <!-- GlcOAcA -->
      <g transform="translate(-70.9875 133.79058)scale(0.2 -0.2)">
       <defs>
        <path d="M 2469 4716 
Q 3684 4716 4269 3934 
Q 4725 3325 4725 2375 
Q 4725 1347 4203 666 
Q 3591 -134 2456 -134 
Q 1397 -134 791 566 
Q 250 1241 250 2272 
Q 250 3203 713 3866 
Q 1306 4716 2469 4716 
z
M 2531 422 
Q 3353 422 3720 1011 
Q 4088 1600 4088 2366 
Q 4088 3175 3664 3669 
Q 3241 4163 2506 4163 
Q 1794 4163 1344 3673 
Q 894 3184 894 2231 
Q 894 1469 1280 945 
Q 1666 422 2531 422 
z
M 2488 4716 
L 2488 4716 
z
" id="Helvetica-4f" transform="scale(0.015625)"/>
       </defs>
       <use xlink:href="#Helvetica-47"/>
       <use x="77.783203" xlink:href="#Helvetica-6c"/>
       <use x="100" xlink:href="#Helvetica-63"/>
       <use x="150" xlink:href="#Helvetica-4f"/>
       <use x="227.783203" xlink:href="#Helvetica-41"/>
       <use x="294.482422" xlink:href="#Helvetica-63"/>
       <use x="344.482422" xlink:href="#Helvetica-41"/>
      </g>
     </g>
    </g>
    <g id="ytick_7">
     <g id="line2d_9">
      <g>
       <use style="stroke:#000000;stroke-width:0.8;" x="24.75" xlink:href="#m2c7b367ad1" y="142.457143"/>
      </g>
     </g>
     <g id="text_10">
      <!-- GlcOP -->
      <g transform="translate(-47.646875 149.63058)scale(0.2 -0.2)">
       <use xlink:href="#Helvetica-47"/>
       <use x="77.783203" xlink:href="#Helvetica-6c"/>
       <use x="100" xlink:href="#Helvetica-63"/>
       <use x="150" xlink:href="#Helvetica-4f"/>
       <use x="227.783203" xlink:href="#Helvetica-50"/>
      </g>
     </g>
    </g>
    <g id="ytick_8">
     <g id="line2d_10">
      <g>
       <use style="stroke:#000000;stroke-width:0.8;" x="24.75" xlink:href="#m2c7b367ad1" y="158.297143"/>
      </g>
     </g>
     <g id="text_11">
      <!-- Man -->
      <g transform="translate(-27.653125 165.47058)scale(0.2 -0.2)">
       <defs>
        <path d="M 472 4591 
L 1363 4591 
L 2681 709 
L 3991 4591 
L 4872 4591 
L 4872 0 
L 4281 0 
L 4281 2709 
Q 4281 2850 4287 3175 
Q 4294 3500 4294 3872 
L 2984 0 
L 2369 0 
L 1050 3872 
L 1050 3731 
Q 1050 3563 1058 3217 
Q 1066 2872 1066 2709 
L 1066 0 
L 472 0 
L 472 4591 
z
" id="Helvetica-4d" transform="scale(0.015625)"/>
       </defs>
       <use xlink:href="#Helvetica-4d"/>
       <use x="83.300781" xlink:href="#Helvetica-61"/>
       <use x="138.916016" xlink:href="#Helvetica-6e"/>
      </g>
     </g>
    </g>
    <g id="ytick_9">
     <g id="line2d_11">
      <g>
       <use style="stroke:#000000;stroke-width:0.8;" x="24.75" xlink:href="#m2c7b367ad1" y="174.137143"/>
      </g>
     </g>
     <g id="text_12">
      <!-- ManOMe -->
      <g transform="translate(-70.990625 181.31058)scale(0.2 -0.2)">
       <defs>
        <path d="M 1806 3422 
Q 2163 3422 2497 3255 
Q 2831 3088 3006 2822 
Q 3175 2569 3231 2231 
Q 3281 2000 3281 1494 
L 828 1494 
Q 844 984 1069 676 
Q 1294 369 1766 369 
Q 2206 369 2469 659 
Q 2619 828 2681 1050 
L 3234 1050 
Q 3213 866 3089 639 
Q 2966 413 2813 269 
Q 2556 19 2178 -69 
Q 1975 -119 1719 -119 
Q 1094 -119 659 336 
Q 225 791 225 1609 
Q 225 2416 662 2919 
Q 1100 3422 1806 3422 
z
M 2703 1941 
Q 2669 2306 2544 2525 
Q 2313 2931 1772 2931 
Q 1384 2931 1121 2651 
Q 859 2372 844 1941 
L 2703 1941 
z
M 1753 3428 
L 1753 3428 
z
" id="Helvetica-65" transform="scale(0.015625)"/>
       </defs>
       <use xlink:href="#Helvetica-4d"/>
       <use x="83.300781" xlink:href="#Helvetica-61"/>
       <use x="138.916016" xlink:href="#Helvetica-6e"/>
       <use x="194.53125" xlink:href="#Helvetica-4f"/>
       <use x="272.314453" xlink:href="#Helvetica-4d"/>
       <use x="355.615234" xlink:href="#Helvetica-65"/>
      </g>
     </g>
    </g>
    <g id="ytick_10">
     <g id="line2d_12">
      <g>
       <use style="stroke:#000000;stroke-width:0.8;" x="24.75" xlink:href="#m2c7b367ad1" y="189.977143"/>
      </g>
     </g>
     <g id="text_13">
      <!-- NeuNAc -->
      <g transform="translate(-63.221875 197.15058)scale(0.2 -0.2)">
       <defs>
        <path d="M 975 3347 
L 975 1125 
Q 975 869 1056 706 
Q 1206 406 1616 406 
Q 2203 406 2416 931 
Q 2531 1213 2531 1703 
L 2531 3347 
L 3094 3347 
L 3094 0 
L 2563 0 
L 2569 494 
Q 2459 303 2297 172 
Q 1975 -91 1516 -91 
Q 800 -91 541 388 
Q 400 644 400 1072 
L 400 3347 
L 975 3347 
z
M 1747 3428 
L 1747 3428 
z
" id="Helvetica-75" transform="scale(0.015625)"/>
       </defs>
       <use xlink:href="#Helvetica-4e"/>
       <use x="72.216797" xlink:href="#Helvetica-65"/>
       <use x="127.832031" xlink:href="#Helvetica-75"/>
       <use x="183.447266" xlink:href="#Helvetica-4e"/>
       <use x="255.664062" xlink:href="#Helvetica-41"/>
       <use x="322.363281" xlink:href="#Helvetica-63"/>
      </g>
     </g>
    </g>
    <g id="ytick_11">
     <g id="line2d_13">
      <g>
       <use style="stroke:#000000;stroke-width:0.8;" x="24.75" xlink:href="#m2c7b367ad1" y="205.817143"/>
      </g>
     </g>
     <g id="text_14">
      <!-- QuiNAc -->
      <g transform="translate(-57.65625 212.99058)scale(0.2 -0.2)">
       <defs>
        <path d="M 4688 13 
L 4375 -366 
L 3666 175 
Q 3409 34 3111 -50 
Q 2813 -134 2459 -134 
Q 1391 -134 784 566 
Q 250 1247 250 2272 
Q 250 3203 713 3866 
Q 1306 4716 2469 4716 
Q 3684 4716 4269 3934 
Q 4725 3325 4725 2375 
Q 4725 1931 4616 1522 
Q 4450 897 4056 503 
L 4688 13 
z
M 2534 422 
Q 2728 422 2897 448 
Q 3066 475 3191 553 
L 2688 947 
L 3000 1331 
L 3600 866 
Q 3884 1191 3986 1594 
Q 4088 1997 4088 2366 
Q 4088 3175 3664 3669 
Q 3241 4163 2506 4163 
Q 1763 4163 1328 3689 
Q 894 3216 894 2231 
Q 894 1403 1311 912 
Q 1728 422 2534 422 
z
" id="Helvetica-51" transform="scale(0.015625)"/>
       </defs>
       <use xlink:href="#Helvetica-51"/>
       <use x="77.783203" xlink:href="#Helvetica-75"/>
       <use x="133.398438" xlink:href="#Helvetica-69"/>
       <use x="155.615234" xlink:href="#Helvetica-4e"/>
       <use x="227.832031" xlink:href="#Helvetica-41"/>
       <use x="294.53125" xlink:href="#Helvetica-63"/>
      </g>
     </g>
    </g>
    <g id="ytick_12">
     <g id="line2d_14">
      <g>
       <use style="stroke:#000000;stroke-width:0.8;" x="24.75" xlink:href="#m2c7b367ad1" y="221.657143"/>
      </g>
     </g>
     <g id="text_15">
      <!-- Xyl -->
      <g transform="translate(-16.534375 228.83058)scale(0.2 -0.2)">
       <defs>
        <path d="M 881 0 
L 131 0 
L 1775 2353 
L 234 4591 
L 1013 4591 
L 2184 2834 
L 3347 4591 
L 4088 4591 
L 2547 2353 
L 4163 0 
L 3391 0 
L 2153 1888 
L 881 0 
z
" id="Helvetica-58" transform="scale(0.015625)"/>
        <path d="M 2503 3347 
L 3125 3347 
Q 3006 3025 2597 1878 
Q 2291 1016 2084 472 
Q 1597 -809 1397 -1090 
Q 1197 -1372 709 -1372 
Q 591 -1372 527 -1362 
Q 463 -1353 369 -1328 
L 369 -816 
Q 516 -856 581 -865 
Q 647 -875 697 -875 
Q 853 -875 926 -823 
Q 1000 -772 1050 -697 
Q 1066 -672 1162 -440 
Q 1259 -209 1303 -97 
L 66 3347 
L 703 3347 
L 1600 622 
L 2503 3347 
z
M 1597 3428 
L 1597 3428 
z
" id="Helvetica-79" transform="scale(0.015625)"/>
       </defs>
       <use xlink:href="#Helvetica-58"/>
       <use x="66.699219" xlink:href="#Helvetica-79"/>
       <use x="116.699219" xlink:href="#Helvetica-6c"/>
      </g>
     </g>
    </g>
    <g id="ytick_13">
     <g id="line2d_15">
      <g>
       <use style="stroke:#000000;stroke-width:0.8;" x="24.75" xlink:href="#m2c7b367ad1" y="237.497143"/>
      </g>
     </g>
     <g id="text_16">
      <!-- a1-2 -->
      <g transform="translate(-28.775 244.67058)scale(0.2 -0.2)">
       <defs>
        <path d="M 200 0 
Q 231 578 439 1006 
Q 647 1434 1250 1784 
L 1850 2131 
Q 2253 2366 2416 2531 
Q 2672 2791 2672 3125 
Q 2672 3516 2437 3745 
Q 2203 3975 1813 3975 
Q 1234 3975 1013 3538 
Q 894 3303 881 2888 
L 309 2888 
Q 319 3472 525 3841 
Q 891 4491 1816 4491 
Q 2584 4491 2939 4075 
Q 3294 3659 3294 3150 
Q 3294 2613 2916 2231 
Q 2697 2009 2131 1694 
L 1703 1456 
Q 1397 1288 1222 1134 
Q 909 863 828 531 
L 3272 531 
L 3272 0 
L 200 0 
z
" id="Helvetica-32" transform="scale(0.015625)"/>
       </defs>
       <use xlink:href="#Helvetica-61"/>
       <use x="55.615234" xlink:href="#Helvetica-31"/>
       <use x="111.230469" xlink:href="#Helvetica-2d"/>
       <use x="144.53125" xlink:href="#Helvetica-32"/>
      </g>
     </g>
    </g>
    <g id="ytick_14">
     <g id="line2d_16">
      <g>
       <use style="stroke:#000000;stroke-width:0.8;" x="24.75" xlink:href="#m2c7b367ad1" y="253.337143"/>
      </g>
     </g>
     <g id="text_17">
      <!-- a1-5 -->
      <g transform="translate(-28.775 260.51058)scale(0.2 -0.2)">
       <defs>
        <path d="M 791 1141 
Q 847 659 1238 475 
Q 1438 381 1700 381 
Q 2200 381 2440 700 
Q 2681 1019 2681 1406 
Q 2681 1875 2395 2131 
Q 2109 2388 1709 2388 
Q 1419 2388 1211 2275 
Q 1003 2163 856 1963 
L 369 1991 
L 709 4400 
L 3034 4400 
L 3034 3856 
L 1131 3856 
L 941 2613 
Q 1097 2731 1238 2791 
Q 1488 2894 1816 2894 
Q 2431 2894 2859 2497 
Q 3288 2100 3288 1491 
Q 3288 856 2895 371 
Q 2503 -113 1644 -113 
Q 1097 -113 676 195 
Q 256 503 206 1141 
L 791 1141 
z
" id="Helvetica-35" transform="scale(0.015625)"/>
       </defs>
       <use xlink:href="#Helvetica-61"/>
       <use x="55.615234" xlink:href="#Helvetica-31"/>
       <use x="111.230469" xlink:href="#Helvetica-2d"/>
       <use x="144.53125" xlink:href="#Helvetica-35"/>
      </g>
     </g>
    </g>
    <g id="ytick_15">
     <g id="line2d_17">
      <g>
       <use style="stroke:#000000;stroke-width:0.8;" x="24.75" xlink:href="#m2c7b367ad1" y="269.177143"/>
      </g>
     </g>
     <g id="text_18">
      <!-- b1-4 -->
      <g transform="translate(-28.775 276.35058)scale(0.2 -0.2)">
       <defs>
        <path d="M 369 4606 
L 916 4606 
L 916 2941 
Q 1100 3181 1356 3307 
Q 1613 3434 1913 3434 
Q 2538 3434 2927 3004 
Q 3316 2575 3316 1738 
Q 3316 944 2931 419 
Q 2547 -106 1866 -106 
Q 1484 -106 1222 78 
Q 1066 188 888 428 
L 888 0 
L 369 0 
L 369 4606 
z
M 1831 391 
Q 2288 391 2514 753 
Q 2741 1116 2741 1709 
Q 2741 2238 2514 2584 
Q 2288 2931 1847 2931 
Q 1463 2931 1173 2647 
Q 884 2363 884 1709 
Q 884 1238 1003 944 
Q 1225 391 1831 391 
z
" id="Helvetica-62" transform="scale(0.015625)"/>
        <path d="M 2116 1584 
L 2116 3613 
L 681 1584 
L 2116 1584 
z
M 2125 0 
L 2125 1094 
L 163 1094 
L 163 1644 
L 2213 4488 
L 2688 4488 
L 2688 1584 
L 3347 1584 
L 3347 1094 
L 2688 1094 
L 2688 0 
L 2125 0 
z
" id="Helvetica-34" transform="scale(0.015625)"/>
       </defs>
       <use xlink:href="#Helvetica-62"/>
       <use x="55.615234" xlink:href="#Helvetica-31"/>
       <use x="111.230469" xlink:href="#Helvetica-2d"/>
       <use x="144.53125" xlink:href="#Helvetica-34"/>
      </g>
     </g>
    </g>
    <g id="ytick_16">
     <g id="line2d_18">
      <g>
       <use style="stroke:#000000;stroke-width:0.8;" x="24.75" xlink:href="#m2c7b367ad1" y="285.017143"/>
      </g>
     </g>
     <g id="text_19">
      <!-- b2-6 -->
      <g transform="translate(-28.775 292.19058)scale(0.2 -0.2)">
       <defs>
        <path d="M 1872 4494 
Q 2622 4494 2917 4105 
Q 3213 3716 3213 3303 
L 2656 3303 
Q 2606 3569 2497 3719 
Q 2294 4000 1881 4000 
Q 1409 4000 1131 3564 
Q 853 3128 822 2316 
Q 1016 2600 1309 2741 
Q 1578 2866 1909 2866 
Q 2472 2866 2890 2506 
Q 3309 2147 3309 1434 
Q 3309 825 2912 354 
Q 2516 -116 1781 -116 
Q 1153 -116 697 361 
Q 241 838 241 1966 
Q 241 2800 444 3381 
Q 834 4494 1872 4494 
z
M 1831 384 
Q 2275 384 2495 682 
Q 2716 981 2716 1388 
Q 2716 1731 2519 2042 
Q 2322 2353 1803 2353 
Q 1441 2353 1167 2112 
Q 894 1872 894 1388 
Q 894 963 1142 673 
Q 1391 384 1831 384 
z
" id="Helvetica-36" transform="scale(0.015625)"/>
       </defs>
       <use xlink:href="#Helvetica-62"/>
       <use x="55.615234" xlink:href="#Helvetica-32"/>
       <use x="111.230469" xlink:href="#Helvetica-2d"/>
       <use x="144.53125" xlink:href="#Helvetica-36"/>
      </g>
     </g>
    </g>
   </g>
  </g>
  <g id="axes_2">
   <g id="patch_3">
    <path d="M 170.5275 242.942143 
L 178.2 242.942143 
L 178.2 89.492143 
L 170.5275 89.492143 
z
" style="fill:#ffffff;"/>
   </g>
   <g id="patch_4">
    <path clip-path="url(#p659ec4a7d6)" d="M 170.5275 242.942143 
L 170.5275 235.269643 
L 170.5275 97.164643 
L 170.5275 89.492143 
L 178.2 89.492143 
L 178.2 97.164643 
L 178.2 235.269643 
L 178.2 242.942143 
L 178.2 242.942143 
z
" style="fill:#ffffff;stroke:#ffffff;stroke-linejoin:miter;stroke-width:0.01;"/>
   </g>
   <g id="QuadMesh_2">
    <path clip-path="url(#p659ec4a7d6)" d="M 170.5275 242.942143 
L 178.2 242.942143 
L 178.2 235.269643 
L 170.5275 235.269643 
L 170.5275 242.942143 
" style="fill:#f8f1f8;"/>
    <path clip-path="url(#p659ec4a7d6)" d="M 170.5275 235.269643 
L 178.2 235.269643 
L 178.2 227.597143 
L 170.5275 227.597143 
L 170.5275 235.269643 
" style="fill:#f1ebf4;"/>
    <path clip-path="url(#p659ec4a7d6)" d="M 170.5275 227.597143 
L 178.2 227.597143 
L 178.2 219.924643 
L 170.5275 219.924643 
L 170.5275 227.597143 
" style="fill:#e8e4f0;"/>
    <path clip-path="url(#p659ec4a7d6)" d="M 170.5275 219.924643 
L 178.2 219.924643 
L 178.2 212.252143 
L 170.5275 212.252143 
L 170.5275 219.924643 
" style="fill:#dedcec;"/>
    <path clip-path="url(#p659ec4a7d6)" d="M 170.5275 212.252143 
L 178.2 212.252143 
L 178.2 204.579643 
L 170.5275 204.579643 
L 170.5275 212.252143 
" style="fill:#d3d4e7;"/>
    <path clip-path="url(#p659ec4a7d6)" d="M 170.5275 204.579643 
L 178.2 204.579643 
L 178.2 196.907143 
L 170.5275 196.907143 
L 170.5275 204.579643 
" style="fill:#c4cbe3;"/>
    <path clip-path="url(#p659ec4a7d6)" d="M 170.5275 196.907143 
L 178.2 196.907143 
L 178.2 189.234643 
L 170.5275 189.234643 
L 170.5275 196.907143 
" style="fill:#b4c4df;"/>
    <path clip-path="url(#p659ec4a7d6)" d="M 170.5275 189.234643 
L 178.2 189.234643 
L 178.2 181.562143 
L 170.5275 181.562143 
L 170.5275 189.234643 
" style="fill:#a4bcda;"/>
    <path clip-path="url(#p659ec4a7d6)" d="M 170.5275 181.562143 
L 178.2 181.562143 
L 178.2 173.889643 
L 170.5275 173.889643 
L 170.5275 181.562143 
" style="fill:#91b5d6;"/>
    <path clip-path="url(#p659ec4a7d6)" d="M 170.5275 173.889643 
L 178.2 173.889643 
L 178.2 166.217143 
L 170.5275 166.217143 
L 170.5275 173.889643 
" style="fill:#7eadd1;"/>
    <path clip-path="url(#p659ec4a7d6)" d="M 170.5275 166.217143 
L 178.2 166.217143 
L 178.2 158.544643 
L 170.5275 158.544643 
L 170.5275 166.217143 
" style="fill:#67a4cc;"/>
    <path clip-path="url(#p659ec4a7d6)" d="M 170.5275 158.544643 
L 178.2 158.544643 
L 178.2 150.872143 
L 170.5275 150.872143 
L 170.5275 158.544643 
" style="fill:#509ac6;"/>
    <path clip-path="url(#p659ec4a7d6)" d="M 170.5275 150.872143 
L 178.2 150.872143 
L 178.2 143.199643 
L 170.5275 143.199643 
L 170.5275 150.872143 
" style="fill:#3991c1;"/>
    <path clip-path="url(#p659ec4a7d6)" d="M 170.5275 143.199643 
L 178.2 143.199643 
L 178.2 135.527143 
L 170.5275 135.527143 
L 170.5275 143.199643 
" style="fill:#2685bb;"/>
    <path clip-path="url(#p659ec4a7d6)" d="M 170.5275 135.527143 
L 178.2 135.527143 
L 178.2 127.854643 
L 170.5275 127.854643 
L 170.5275 135.527143 
" style="fill:#1379b5;"/>
    <path clip-path="url(#p659ec4a7d6)" d="M 170.5275 127.854643 
L 178.2 127.854643 
L 178.2 120.182143 
L 170.5275 120.182143 
L 170.5275 127.854643 
" style="fill:#056dac;"/>
    <path clip-path="url(#p659ec4a7d6)" d="M 170.5275 120.182143 
L 178.2 120.182143 
L 178.2 112.509643 
L 170.5275 112.509643 
L 170.5275 120.182143 
" style="fill:#05659f;"/>
    <path clip-path="url(#p659ec4a7d6)" d="M 170.5275 112.509643 
L 178.2 112.509643 
L 178.2 104.837143 
L 170.5275 104.837143 
L 170.5275 112.509643 
" style="fill:#045d92;"/>
    <path clip-path="url(#p659ec4a7d6)" d="M 170.5275 104.837143 
L 178.2 104.837143 
L 178.2 97.164643 
L 170.5275 97.164643 
L 170.5275 104.837143 
" style="fill:#045280;"/>
    <path clip-path="url(#p659ec4a7d6)" d="M 170.5275 97.164643 
L 178.2 97.164643 
L 178.2 89.492143 
L 170.5275 89.492143 
L 170.5275 97.164643 
" style="fill:#03456c;"/>
   </g>
   <g id="matplotlib.axis_3"/>
   <g id="matplotlib.axis_4">
    <g id="ytick_17">
     <g id="line2d_19">
      <defs>
       <path d="M 0 0 
L 10 0 
" id="mee99454f54" style="stroke:#000000;stroke-width:0.8;"/>
      </defs>
      <g>
       <use style="stroke:#000000;stroke-width:0.8;" x="178.2" xlink:href="#mee99454f54" y="242.942143"/>
      </g>
     </g>
     <g id="text_20">
      <!-- 0.0 -->
      <g transform="translate(191.7 248.322221)scale(0.15 -0.15)">
       <defs>
        <path d="M 547 681 
L 1200 681 
L 1200 0 
L 547 0 
L 547 681 
z
" id="Helvetica-2e" transform="scale(0.015625)"/>
       </defs>
       <use xlink:href="#Helvetica-30"/>
       <use x="55.615234" xlink:href="#Helvetica-2e"/>
       <use x="83.398438" xlink:href="#Helvetica-30"/>
      </g>
     </g>
    </g>
    <g id="ytick_18">
     <g id="line2d_20">
      <g>
       <use style="stroke:#000000;stroke-width:0.8;" x="178.2" xlink:href="#mee99454f54" y="187.726158"/>
      </g>
     </g>
     <g id="text_21">
      <!-- 0.1 -->
      <g transform="translate(191.7 193.106236)scale(0.15 -0.15)">
       <use xlink:href="#Helvetica-30"/>
       <use x="55.615234" xlink:href="#Helvetica-2e"/>
       <use x="83.398438" xlink:href="#Helvetica-31"/>
      </g>
     </g>
    </g>
    <g id="ytick_19">
     <g id="line2d_21">
      <g>
       <use style="stroke:#000000;stroke-width:0.8;" x="178.2" xlink:href="#mee99454f54" y="132.510173"/>
      </g>
     </g>
     <g id="text_22">
      <!-- 0.2 -->
      <g transform="translate(191.7 137.890251)scale(0.15 -0.15)">
       <use xlink:href="#Helvetica-30"/>
       <use x="55.615234" xlink:href="#Helvetica-2e"/>
       <use x="83.398438" xlink:href="#Helvetica-32"/>
      </g>
     </g>
    </g>
    <g id="text_23">
     <!-- Activation   -->
     <g transform="translate(228.203125 117.307768)rotate(-270)scale(0.2 -0.2)">
      <defs>
       <path d="M 688 3347 
L 1581 622 
L 2516 3347 
L 3131 3347 
L 1869 0 
L 1269 0 
L 34 3347 
L 688 3347 
z
" id="Helvetica-76" transform="scale(0.015625)"/>
       <path id="Helvetica-20" transform="scale(0.015625)"/>
      </defs>
      <use xlink:href="#Helvetica-41"/>
      <use x="66.699219" xlink:href="#Helvetica-63"/>
      <use x="116.699219" xlink:href="#Helvetica-74"/>
      <use x="144.482422" xlink:href="#Helvetica-69"/>
      <use x="166.699219" xlink:href="#Helvetica-76"/>
      <use x="216.699219" xlink:href="#Helvetica-61"/>
      <use x="272.314453" xlink:href="#Helvetica-74"/>
      <use x="300.097656" xlink:href="#Helvetica-69"/>
      <use x="322.314453" xlink:href="#Helvetica-6f"/>
      <use x="377.929688" xlink:href="#Helvetica-6e"/>
      <use x="433.544922" xlink:href="#Helvetica-20"/>
      <use x="461.328125" xlink:href="#Helvetica-20"/>
     </g>
    </g>
   </g>
   <g id="LineCollection_1"/>
   <g id="patch_5">
    <path d="M 170.5275 242.942143 
L 170.5275 235.269643 
L 170.5275 97.164643 
L 170.5275 89.492143 
L 178.2 89.492143 
L 178.2 97.164643 
L 178.2 235.269643 
L 178.2 242.942143 
z
" style="fill:none;"/>
   </g>
  </g>
 </g>
 <defs>
  <clipPath id="p72b30843df">
   <rect height="253.44" width="140.40675" x="24.75" y="39.497143"/>
  </clipPath>
  <clipPath id="p659ec4a7d6">
   <rect height="153.45" width="7.6725" x="170.5275" y="89.492143"/>
  </clipPath>
 </defs>
</svg>
