<?xml version="1.0" encoding="utf-8" standalone="no"?>
<!DOCTYPE svg PUBLIC "-//W3C//DTD SVG 1.1//EN"
  "http://www.w3.org/Graphics/SVG/1.1/DTD/svg11.dtd">
<svg height="246.857143pt" version="1.1" viewBox="0 0 198 246.857143" width="198pt" xmlns="http://www.w3.org/2000/svg" xmlns:xlink="http://www.w3.org/1999/xlink">
 <metadata>
  <rdf:RDF xmlns:cc="http://creativecommons.org/ns#" xmlns:dc="http://purl.org/dc/elements/1.1/" xmlns:rdf="http://www.w3.org/1999/02/22-rdf-syntax-ns#">
   <cc:Work>
    <dc:type rdf:resource="http://purl.org/dc/dcmitype/StillImage"/>
    <dc:date>2023-01-21T16:33:55.536940</dc:date>
    <dc:format>image/svg+xml</dc:format>
    <dc:creator>
     <cc:Agent>
      <dc:title>Matplotlib v3.4.2, https://matplotlib.org/</dc:title>
     </cc:Agent>
    </dc:creator>
   </cc:Work>
  </rdf:RDF>
 </metadata>
 <defs>
  <style type="text/css">*{stroke-linecap:butt;stroke-linejoin:round;}</style>
 </defs>
 <g id="figure_1">
  <g id="patch_1">
   <path d="M 0 246.857143 
L 198 246.857143 
L 198 0 
L 0 0 
z
" style="fill:#ffffff;"/>
  </g>
  <g id="axes_1">
   <g id="patch_2">
    <path d="M 24.75 219.702857 
L 165.15675 219.702857 
L 165.15675 29.622857 
L 24.75 29.622857 
z
" style="fill:#ffffff;"/>
   </g>
   <g id="QuadMesh_1">
    <path clip-path="url(#pd0c30d7f4b)" d="M 24.75 29.622857 
L 37.51425 29.622857 
L 37.51425 45.462857 
L 24.75 45.462857 
L 24.75 29.622857 
" style="fill:#f8f1f8;"/>
    <path clip-path="url(#pd0c30d7f4b)" d="M 37.51425 29.622857 
L 50.2785 29.622857 
L 50.2785 45.462857 
L 37.51425 45.462857 
L 37.51425 29.622857 
" style="fill:none;"/>
    <path clip-path="url(#pd0c30d7f4b)" d="M 50.2785 29.622857 
L 63.04275 29.622857 
L 63.04275 45.462857 
L 50.2785 45.462857 
L 50.2785 29.622857 
" style="fill:none;"/>
    <path clip-path="url(#pd0c30d7f4b)" d="M 63.04275 29.622857 
L 75.807 29.622857 
L 75.807 45.462857 
L 63.04275 45.462857 
L 63.04275 29.622857 
" style="fill:none;"/>
    <path clip-path="url(#pd0c30d7f4b)" d="M 75.807 29.622857 
L 88.57125 29.622857 
L 88.57125 45.462857 
L 75.807 45.462857 
L 75.807 29.622857 
" style="fill:#f8f1f8;"/>
    <path clip-path="url(#pd0c30d7f4b)" d="M 88.57125 29.622857 
L 101.3355 29.622857 
L 101.3355 45.462857 
L 88.57125 45.462857 
L 88.57125 29.622857 
" style="fill:none;"/>
    <path clip-path="url(#pd0c30d7f4b)" d="M 101.3355 29.622857 
L 114.09975 29.622857 
L 114.09975 45.462857 
L 101.3355 45.462857 
L 101.3355 29.622857 
" style="fill:none;"/>
    <path clip-path="url(#pd0c30d7f4b)" d="M 114.09975 29.622857 
L 126.864 29.622857 
L 126.864 45.462857 
L 114.09975 45.462857 
L 114.09975 29.622857 
" style="fill:none;"/>
    <path clip-path="url(#pd0c30d7f4b)" d="M 126.864 29.622857 
L 139.62825 29.622857 
L 139.62825 45.462857 
L 126.864 45.462857 
L 126.864 29.622857 
" style="fill:none;"/>
    <path clip-path="url(#pd0c30d7f4b)" d="M 139.62825 29.622857 
L 152.3925 29.622857 
L 152.3925 45.462857 
L 139.62825 45.462857 
L 139.62825 29.622857 
" style="fill:none;"/>
    <path clip-path="url(#pd0c30d7f4b)" d="M 152.3925 29.622857 
L 165.15675 29.622857 
L 165.15675 45.462857 
L 152.3925 45.462857 
L 152.3925 29.622857 
" style="fill:#f8f1f8;"/>
    <path clip-path="url(#pd0c30d7f4b)" d="M 24.75 45.462857 
L 37.51425 45.462857 
L 37.51425 61.302857 
L 24.75 61.302857 
L 24.75 45.462857 
" style="fill:none;"/>
    <path clip-path="url(#pd0c30d7f4b)" d="M 37.51425 45.462857 
L 50.2785 45.462857 
L 50.2785 61.302857 
L 37.51425 61.302857 
L 37.51425 45.462857 
" style="fill:none;"/>
    <path clip-path="url(#pd0c30d7f4b)" d="M 50.2785 45.462857 
L 63.04275 45.462857 
L 63.04275 61.302857 
L 50.2785 61.302857 
L 50.2785 45.462857 
" style="fill:none;"/>
    <path clip-path="url(#pd0c30d7f4b)" d="M 63.04275 45.462857 
L 75.807 45.462857 
L 75.807 61.302857 
L 63.04275 61.302857 
L 63.04275 45.462857 
" style="fill:none;"/>
    <path clip-path="url(#pd0c30d7f4b)" d="M 75.807 45.462857 
L 88.57125 45.462857 
L 88.57125 61.302857 
L 75.807 61.302857 
L 75.807 45.462857 
" style="fill:none;"/>
    <path clip-path="url(#pd0c30d7f4b)" d="M 88.57125 45.462857 
L 101.3355 45.462857 
L 101.3355 61.302857 
L 88.57125 61.302857 
L 88.57125 45.462857 
" style="fill:none;"/>
    <path clip-path="url(#pd0c30d7f4b)" d="M 101.3355 45.462857 
L 114.09975 45.462857 
L 114.09975 61.302857 
L 101.3355 61.302857 
L 101.3355 45.462857 
" style="fill:none;"/>
    <path clip-path="url(#pd0c30d7f4b)" d="M 114.09975 45.462857 
L 126.864 45.462857 
L 126.864 61.302857 
L 114.09975 61.302857 
L 114.09975 45.462857 
" style="fill:none;"/>
    <path clip-path="url(#pd0c30d7f4b)" d="M 126.864 45.462857 
L 139.62825 45.462857 
L 139.62825 61.302857 
L 126.864 61.302857 
L 126.864 45.462857 
" style="fill:none;"/>
    <path clip-path="url(#pd0c30d7f4b)" d="M 139.62825 45.462857 
L 152.3925 45.462857 
L 152.3925 61.302857 
L 139.62825 61.302857 
L 139.62825 45.462857 
" style="fill:none;"/>
    <path clip-path="url(#pd0c30d7f4b)" d="M 152.3925 45.462857 
L 165.15675 45.462857 
L 165.15675 61.302857 
L 152.3925 61.302857 
L 152.3925 45.462857 
" style="fill:#f8f1f8;"/>
    <path clip-path="url(#pd0c30d7f4b)" d="M 24.75 61.302857 
L 37.51425 61.302857 
L 37.51425 77.142857 
L 24.75 77.142857 
L 24.75 61.302857 
" style="fill:#f8f1f8;"/>
    <path clip-path="url(#pd0c30d7f4b)" d="M 37.51425 61.302857 
L 50.2785 61.302857 
L 50.2785 77.142857 
L 37.51425 77.142857 
L 37.51425 61.302857 
" style="fill:none;"/>
    <path clip-path="url(#pd0c30d7f4b)" d="M 50.2785 61.302857 
L 63.04275 61.302857 
L 63.04275 77.142857 
L 50.2785 77.142857 
L 50.2785 61.302857 
" style="fill:#f8f1f8;"/>
    <path clip-path="url(#pd0c30d7f4b)" d="M 63.04275 61.302857 
L 75.807 61.302857 
L 75.807 77.142857 
L 63.04275 77.142857 
L 63.04275 61.302857 
" style="fill:none;"/>
    <path clip-path="url(#pd0c30d7f4b)" d="M 75.807 61.302857 
L 88.57125 61.302857 
L 88.57125 77.142857 
L 75.807 77.142857 
L 75.807 61.302857 
" style="fill:#f8f1f8;"/>
    <path clip-path="url(#pd0c30d7f4b)" d="M 88.57125 61.302857 
L 101.3355 61.302857 
L 101.3355 77.142857 
L 88.57125 77.142857 
L 88.57125 61.302857 
" style="fill:none;"/>
    <path clip-path="url(#pd0c30d7f4b)" d="M 101.3355 61.302857 
L 114.09975 61.302857 
L 114.09975 77.142857 
L 101.3355 77.142857 
L 101.3355 61.302857 
" style="fill:#f8f1f8;"/>
    <path clip-path="url(#pd0c30d7f4b)" d="M 114.09975 61.302857 
L 126.864 61.302857 
L 126.864 77.142857 
L 114.09975 77.142857 
L 114.09975 61.302857 
" style="fill:none;"/>
    <path clip-path="url(#pd0c30d7f4b)" d="M 126.864 61.302857 
L 139.62825 61.302857 
L 139.62825 77.142857 
L 126.864 77.142857 
L 126.864 61.302857 
" style="fill:#f8f1f8;"/>
    <path clip-path="url(#pd0c30d7f4b)" d="M 139.62825 61.302857 
L 152.3925 61.302857 
L 152.3925 77.142857 
L 139.62825 77.142857 
L 139.62825 61.302857 
" style="fill:none;"/>
    <path clip-path="url(#pd0c30d7f4b)" d="M 152.3925 61.302857 
L 165.15675 61.302857 
L 165.15675 77.142857 
L 152.3925 77.142857 
L 152.3925 61.302857 
" style="fill:#f8f1f8;"/>
    <path clip-path="url(#pd0c30d7f4b)" d="M 24.75 77.142857 
L 37.51425 77.142857 
L 37.51425 92.982857 
L 24.75 92.982857 
L 24.75 77.142857 
" style="fill:none;"/>
    <path clip-path="url(#pd0c30d7f4b)" d="M 37.51425 77.142857 
L 50.2785 77.142857 
L 50.2785 92.982857 
L 37.51425 92.982857 
L 37.51425 77.142857 
" style="fill:none;"/>
    <path clip-path="url(#pd0c30d7f4b)" d="M 50.2785 77.142857 
L 63.04275 77.142857 
L 63.04275 92.982857 
L 50.2785 92.982857 
L 50.2785 77.142857 
" style="fill:none;"/>
    <path clip-path="url(#pd0c30d7f4b)" d="M 63.04275 77.142857 
L 75.807 77.142857 
L 75.807 92.982857 
L 63.04275 92.982857 
L 63.04275 77.142857 
" style="fill:none;"/>
    <path clip-path="url(#pd0c30d7f4b)" d="M 75.807 77.142857 
L 88.57125 77.142857 
L 88.57125 92.982857 
L 75.807 92.982857 
L 75.807 77.142857 
" style="fill:#f8f1f8;"/>
    <path clip-path="url(#pd0c30d7f4b)" d="M 88.57125 77.142857 
L 101.3355 77.142857 
L 101.3355 92.982857 
L 88.57125 92.982857 
L 88.57125 77.142857 
" style="fill:none;"/>
    <path clip-path="url(#pd0c30d7f4b)" d="M 101.3355 77.142857 
L 114.09975 77.142857 
L 114.09975 92.982857 
L 101.3355 92.982857 
L 101.3355 77.142857 
" style="fill:none;"/>
    <path clip-path="url(#pd0c30d7f4b)" d="M 114.09975 77.142857 
L 126.864 77.142857 
L 126.864 92.982857 
L 114.09975 92.982857 
L 114.09975 77.142857 
" style="fill:none;"/>
    <path clip-path="url(#pd0c30d7f4b)" d="M 126.864 77.142857 
L 139.62825 77.142857 
L 139.62825 92.982857 
L 126.864 92.982857 
L 126.864 77.142857 
" style="fill:#f8f1f8;"/>
    <path clip-path="url(#pd0c30d7f4b)" d="M 139.62825 77.142857 
L 152.3925 77.142857 
L 152.3925 92.982857 
L 139.62825 92.982857 
L 139.62825 77.142857 
" style="fill:none;"/>
    <path clip-path="url(#pd0c30d7f4b)" d="M 152.3925 77.142857 
L 165.15675 77.142857 
L 165.15675 92.982857 
L 152.3925 92.982857 
L 152.3925 77.142857 
" style="fill:none;"/>
    <path clip-path="url(#pd0c30d7f4b)" d="M 24.75 92.982857 
L 37.51425 92.982857 
L 37.51425 108.822857 
L 24.75 108.822857 
L 24.75 92.982857 
" style="fill:none;"/>
    <path clip-path="url(#pd0c30d7f4b)" d="M 37.51425 92.982857 
L 50.2785 92.982857 
L 50.2785 108.822857 
L 37.51425 108.822857 
L 37.51425 92.982857 
" style="fill:none;"/>
    <path clip-path="url(#pd0c30d7f4b)" d="M 50.2785 92.982857 
L 63.04275 92.982857 
L 63.04275 108.822857 
L 50.2785 108.822857 
L 50.2785 92.982857 
" style="fill:none;"/>
    <path clip-path="url(#pd0c30d7f4b)" d="M 63.04275 92.982857 
L 75.807 92.982857 
L 75.807 108.822857 
L 63.04275 108.822857 
L 63.04275 92.982857 
" style="fill:none;"/>
    <path clip-path="url(#pd0c30d7f4b)" d="M 75.807 92.982857 
L 88.57125 92.982857 
L 88.57125 108.822857 
L 75.807 108.822857 
L 75.807 92.982857 
" style="fill:none;"/>
    <path clip-path="url(#pd0c30d7f4b)" d="M 88.57125 92.982857 
L 101.3355 92.982857 
L 101.3355 108.822857 
L 88.57125 108.822857 
L 88.57125 92.982857 
" style="fill:none;"/>
    <path clip-path="url(#pd0c30d7f4b)" d="M 101.3355 92.982857 
L 114.09975 92.982857 
L 114.09975 108.822857 
L 101.3355 108.822857 
L 101.3355 92.982857 
" style="fill:none;"/>
    <path clip-path="url(#pd0c30d7f4b)" d="M 114.09975 92.982857 
L 126.864 92.982857 
L 126.864 108.822857 
L 114.09975 108.822857 
L 114.09975 92.982857 
" style="fill:none;"/>
    <path clip-path="url(#pd0c30d7f4b)" d="M 126.864 92.982857 
L 139.62825 92.982857 
L 139.62825 108.822857 
L 126.864 108.822857 
L 126.864 92.982857 
" style="fill:#f1ebf4;"/>
    <path clip-path="url(#pd0c30d7f4b)" d="M 139.62825 92.982857 
L 152.3925 92.982857 
L 152.3925 108.822857 
L 139.62825 108.822857 
L 139.62825 92.982857 
" style="fill:none;"/>
    <path clip-path="url(#pd0c30d7f4b)" d="M 152.3925 92.982857 
L 165.15675 92.982857 
L 165.15675 108.822857 
L 152.3925 108.822857 
L 152.3925 92.982857 
" style="fill:none;"/>
    <path clip-path="url(#pd0c30d7f4b)" d="M 24.75 108.822857 
L 37.51425 108.822857 
L 37.51425 124.662857 
L 24.75 124.662857 
L 24.75 108.822857 
" style="fill:none;"/>
    <path clip-path="url(#pd0c30d7f4b)" d="M 37.51425 108.822857 
L 50.2785 108.822857 
L 50.2785 124.662857 
L 37.51425 124.662857 
L 37.51425 108.822857 
" style="fill:none;"/>
    <path clip-path="url(#pd0c30d7f4b)" d="M 50.2785 108.822857 
L 63.04275 108.822857 
L 63.04275 124.662857 
L 50.2785 124.662857 
L 50.2785 108.822857 
" style="fill:none;"/>
    <path clip-path="url(#pd0c30d7f4b)" d="M 63.04275 108.822857 
L 75.807 108.822857 
L 75.807 124.662857 
L 63.04275 124.662857 
L 63.04275 108.822857 
" style="fill:none;"/>
    <path clip-path="url(#pd0c30d7f4b)" d="M 75.807 108.822857 
L 88.57125 108.822857 
L 88.57125 124.662857 
L 75.807 124.662857 
L 75.807 108.822857 
" style="fill:none;"/>
    <path clip-path="url(#pd0c30d7f4b)" d="M 88.57125 108.822857 
L 101.3355 108.822857 
L 101.3355 124.662857 
L 88.57125 124.662857 
L 88.57125 108.822857 
" style="fill:none;"/>
    <path clip-path="url(#pd0c30d7f4b)" d="M 101.3355 108.822857 
L 114.09975 108.822857 
L 114.09975 124.662857 
L 101.3355 124.662857 
L 101.3355 108.822857 
" style="fill:#f1ebf4;"/>
    <path clip-path="url(#pd0c30d7f4b)" d="M 114.09975 108.822857 
L 126.864 108.822857 
L 126.864 124.662857 
L 114.09975 124.662857 
L 114.09975 108.822857 
" style="fill:none;"/>
    <path clip-path="url(#pd0c30d7f4b)" d="M 126.864 108.822857 
L 139.62825 108.822857 
L 139.62825 124.662857 
L 126.864 124.662857 
L 126.864 108.822857 
" style="fill:#f8f1f8;"/>
    <path clip-path="url(#pd0c30d7f4b)" d="M 139.62825 108.822857 
L 152.3925 108.822857 
L 152.3925 124.662857 
L 139.62825 124.662857 
L 139.62825 108.822857 
" style="fill:none;"/>
    <path clip-path="url(#pd0c30d7f4b)" d="M 152.3925 108.822857 
L 165.15675 108.822857 
L 165.15675 124.662857 
L 152.3925 124.662857 
L 152.3925 108.822857 
" style="fill:none;"/>
    <path clip-path="url(#pd0c30d7f4b)" d="M 24.75 124.662857 
L 37.51425 124.662857 
L 37.51425 140.502857 
L 24.75 140.502857 
L 24.75 124.662857 
" style="fill:#f8f1f8;"/>
    <path clip-path="url(#pd0c30d7f4b)" d="M 37.51425 124.662857 
L 50.2785 124.662857 
L 50.2785 140.502857 
L 37.51425 140.502857 
L 37.51425 124.662857 
" style="fill:none;"/>
    <path clip-path="url(#pd0c30d7f4b)" d="M 50.2785 124.662857 
L 63.04275 124.662857 
L 63.04275 140.502857 
L 50.2785 140.502857 
L 50.2785 124.662857 
" style="fill:#f8f1f8;"/>
    <path clip-path="url(#pd0c30d7f4b)" d="M 63.04275 124.662857 
L 75.807 124.662857 
L 75.807 140.502857 
L 63.04275 140.502857 
L 63.04275 124.662857 
" style="fill:none;"/>
    <path clip-path="url(#pd0c30d7f4b)" d="M 75.807 124.662857 
L 88.57125 124.662857 
L 88.57125 140.502857 
L 75.807 140.502857 
L 75.807 124.662857 
" style="fill:#f8f1f8;"/>
    <path clip-path="url(#pd0c30d7f4b)" d="M 88.57125 124.662857 
L 101.3355 124.662857 
L 101.3355 140.502857 
L 88.57125 140.502857 
L 88.57125 124.662857 
" style="fill:none;"/>
    <path clip-path="url(#pd0c30d7f4b)" d="M 101.3355 124.662857 
L 114.09975 124.662857 
L 114.09975 140.502857 
L 101.3355 140.502857 
L 101.3355 124.662857 
" style="fill:#f8f1f8;"/>
    <path clip-path="url(#pd0c30d7f4b)" d="M 114.09975 124.662857 
L 126.864 124.662857 
L 126.864 140.502857 
L 114.09975 140.502857 
L 114.09975 124.662857 
" style="fill:none;"/>
    <path clip-path="url(#pd0c30d7f4b)" d="M 126.864 124.662857 
L 139.62825 124.662857 
L 139.62825 140.502857 
L 126.864 140.502857 
L 126.864 124.662857 
" style="fill:#f8f1f8;"/>
    <path clip-path="url(#pd0c30d7f4b)" d="M 139.62825 124.662857 
L 152.3925 124.662857 
L 152.3925 140.502857 
L 139.62825 140.502857 
L 139.62825 124.662857 
" style="fill:none;"/>
    <path clip-path="url(#pd0c30d7f4b)" d="M 152.3925 124.662857 
L 165.15675 124.662857 
L 165.15675 140.502857 
L 152.3925 140.502857 
L 152.3925 124.662857 
" style="fill:#f8f1f8;"/>
    <path clip-path="url(#pd0c30d7f4b)" d="M 24.75 140.502857 
L 37.51425 140.502857 
L 37.51425 156.342857 
L 24.75 156.342857 
L 24.75 140.502857 
" style="fill:#f8f1f8;"/>
    <path clip-path="url(#pd0c30d7f4b)" d="M 37.51425 140.502857 
L 50.2785 140.502857 
L 50.2785 156.342857 
L 37.51425 156.342857 
L 37.51425 140.502857 
" style="fill:none;"/>
    <path clip-path="url(#pd0c30d7f4b)" d="M 50.2785 140.502857 
L 63.04275 140.502857 
L 63.04275 156.342857 
L 50.2785 156.342857 
L 50.2785 140.502857 
" style="fill:#f8f1f8;"/>
    <path clip-path="url(#pd0c30d7f4b)" d="M 63.04275 140.502857 
L 75.807 140.502857 
L 75.807 156.342857 
L 63.04275 156.342857 
L 63.04275 140.502857 
" style="fill:none;"/>
    <path clip-path="url(#pd0c30d7f4b)" d="M 75.807 140.502857 
L 88.57125 140.502857 
L 88.57125 156.342857 
L 75.807 156.342857 
L 75.807 140.502857 
" style="fill:none;"/>
    <path clip-path="url(#pd0c30d7f4b)" d="M 88.57125 140.502857 
L 101.3355 140.502857 
L 101.3355 156.342857 
L 88.57125 156.342857 
L 88.57125 140.502857 
" style="fill:none;"/>
    <path clip-path="url(#pd0c30d7f4b)" d="M 101.3355 140.502857 
L 114.09975 140.502857 
L 114.09975 156.342857 
L 101.3355 156.342857 
L 101.3355 140.502857 
" style="fill:#f8f1f8;"/>
    <path clip-path="url(#pd0c30d7f4b)" d="M 114.09975 140.502857 
L 126.864 140.502857 
L 126.864 156.342857 
L 114.09975 156.342857 
L 114.09975 140.502857 
" style="fill:none;"/>
    <path clip-path="url(#pd0c30d7f4b)" d="M 126.864 140.502857 
L 139.62825 140.502857 
L 139.62825 156.342857 
L 126.864 156.342857 
L 126.864 140.502857 
" style="fill:#f8f1f8;"/>
    <path clip-path="url(#pd0c30d7f4b)" d="M 139.62825 140.502857 
L 152.3925 140.502857 
L 152.3925 156.342857 
L 139.62825 156.342857 
L 139.62825 140.502857 
" style="fill:none;"/>
    <path clip-path="url(#pd0c30d7f4b)" d="M 152.3925 140.502857 
L 165.15675 140.502857 
L 165.15675 156.342857 
L 152.3925 156.342857 
L 152.3925 140.502857 
" style="fill:#03456c;"/>
    <path clip-path="url(#pd0c30d7f4b)" d="M 24.75 156.342857 
L 37.51425 156.342857 
L 37.51425 172.182857 
L 24.75 172.182857 
L 24.75 156.342857 
" style="fill:#f8f1f8;"/>
    <path clip-path="url(#pd0c30d7f4b)" d="M 37.51425 156.342857 
L 50.2785 156.342857 
L 50.2785 172.182857 
L 37.51425 172.182857 
L 37.51425 156.342857 
" style="fill:none;"/>
    <path clip-path="url(#pd0c30d7f4b)" d="M 50.2785 156.342857 
L 63.04275 156.342857 
L 63.04275 172.182857 
L 50.2785 172.182857 
L 50.2785 156.342857 
" style="fill:none;"/>
    <path clip-path="url(#pd0c30d7f4b)" d="M 63.04275 156.342857 
L 75.807 156.342857 
L 75.807 172.182857 
L 63.04275 172.182857 
L 63.04275 156.342857 
" style="fill:none;"/>
    <path clip-path="url(#pd0c30d7f4b)" d="M 75.807 156.342857 
L 88.57125 156.342857 
L 88.57125 172.182857 
L 75.807 172.182857 
L 75.807 156.342857 
" style="fill:none;"/>
    <path clip-path="url(#pd0c30d7f4b)" d="M 88.57125 156.342857 
L 101.3355 156.342857 
L 101.3355 172.182857 
L 88.57125 172.182857 
L 88.57125 156.342857 
" style="fill:none;"/>
    <path clip-path="url(#pd0c30d7f4b)" d="M 101.3355 156.342857 
L 114.09975 156.342857 
L 114.09975 172.182857 
L 101.3355 172.182857 
L 101.3355 156.342857 
" style="fill:none;"/>
    <path clip-path="url(#pd0c30d7f4b)" d="M 114.09975 156.342857 
L 126.864 156.342857 
L 126.864 172.182857 
L 114.09975 172.182857 
L 114.09975 156.342857 
" style="fill:none;"/>
    <path clip-path="url(#pd0c30d7f4b)" d="M 126.864 156.342857 
L 139.62825 156.342857 
L 139.62825 172.182857 
L 126.864 172.182857 
L 126.864 156.342857 
" style="fill:#f8f1f8;"/>
    <path clip-path="url(#pd0c30d7f4b)" d="M 139.62825 156.342857 
L 152.3925 156.342857 
L 152.3925 172.182857 
L 139.62825 172.182857 
L 139.62825 156.342857 
" style="fill:none;"/>
    <path clip-path="url(#pd0c30d7f4b)" d="M 152.3925 156.342857 
L 165.15675 156.342857 
L 165.15675 172.182857 
L 152.3925 172.182857 
L 152.3925 156.342857 
" style="fill:none;"/>
    <path clip-path="url(#pd0c30d7f4b)" d="M 24.75 172.182857 
L 37.51425 172.182857 
L 37.51425 188.022857 
L 24.75 188.022857 
L 24.75 172.182857 
" style="fill:none;"/>
    <path clip-path="url(#pd0c30d7f4b)" d="M 37.51425 172.182857 
L 50.2785 172.182857 
L 50.2785 188.022857 
L 37.51425 188.022857 
L 37.51425 172.182857 
" style="fill:#f8f1f8;"/>
    <path clip-path="url(#pd0c30d7f4b)" d="M 50.2785 172.182857 
L 63.04275 172.182857 
L 63.04275 188.022857 
L 50.2785 188.022857 
L 50.2785 172.182857 
" style="fill:none;"/>
    <path clip-path="url(#pd0c30d7f4b)" d="M 63.04275 172.182857 
L 75.807 172.182857 
L 75.807 188.022857 
L 63.04275 188.022857 
L 63.04275 172.182857 
" style="fill:#f8f1f8;"/>
    <path clip-path="url(#pd0c30d7f4b)" d="M 75.807 172.182857 
L 88.57125 172.182857 
L 88.57125 188.022857 
L 75.807 188.022857 
L 75.807 172.182857 
" style="fill:none;"/>
    <path clip-path="url(#pd0c30d7f4b)" d="M 88.57125 172.182857 
L 101.3355 172.182857 
L 101.3355 188.022857 
L 88.57125 188.022857 
L 88.57125 172.182857 
" style="fill:#f8f1f8;"/>
    <path clip-path="url(#pd0c30d7f4b)" d="M 101.3355 172.182857 
L 114.09975 172.182857 
L 114.09975 188.022857 
L 101.3355 188.022857 
L 101.3355 172.182857 
" style="fill:none;"/>
    <path clip-path="url(#pd0c30d7f4b)" d="M 114.09975 172.182857 
L 126.864 172.182857 
L 126.864 188.022857 
L 114.09975 188.022857 
L 114.09975 172.182857 
" style="fill:#f8f1f8;"/>
    <path clip-path="url(#pd0c30d7f4b)" d="M 126.864 172.182857 
L 139.62825 172.182857 
L 139.62825 188.022857 
L 126.864 188.022857 
L 126.864 172.182857 
" style="fill:none;"/>
    <path clip-path="url(#pd0c30d7f4b)" d="M 139.62825 172.182857 
L 152.3925 172.182857 
L 152.3925 188.022857 
L 139.62825 188.022857 
L 139.62825 172.182857 
" style="fill:#f8f1f8;"/>
    <path clip-path="url(#pd0c30d7f4b)" d="M 152.3925 172.182857 
L 165.15675 172.182857 
L 165.15675 188.022857 
L 152.3925 188.022857 
L 152.3925 172.182857 
" style="fill:none;"/>
    <path clip-path="url(#pd0c30d7f4b)" d="M 24.75 188.022857 
L 37.51425 188.022857 
L 37.51425 203.862857 
L 24.75 203.862857 
L 24.75 188.022857 
" style="fill:none;"/>
    <path clip-path="url(#pd0c30d7f4b)" d="M 37.51425 188.022857 
L 50.2785 188.022857 
L 50.2785 203.862857 
L 37.51425 203.862857 
L 37.51425 188.022857 
" style="fill:#f8f1f8;"/>
    <path clip-path="url(#pd0c30d7f4b)" d="M 50.2785 188.022857 
L 63.04275 188.022857 
L 63.04275 203.862857 
L 50.2785 203.862857 
L 50.2785 188.022857 
" style="fill:none;"/>
    <path clip-path="url(#pd0c30d7f4b)" d="M 63.04275 188.022857 
L 75.807 188.022857 
L 75.807 203.862857 
L 63.04275 203.862857 
L 63.04275 188.022857 
" style="fill:#f8f1f8;"/>
    <path clip-path="url(#pd0c30d7f4b)" d="M 75.807 188.022857 
L 88.57125 188.022857 
L 88.57125 203.862857 
L 75.807 203.862857 
L 75.807 188.022857 
" style="fill:none;"/>
    <path clip-path="url(#pd0c30d7f4b)" d="M 88.57125 188.022857 
L 101.3355 188.022857 
L 101.3355 203.862857 
L 88.57125 203.862857 
L 88.57125 188.022857 
" style="fill:#f8f1f8;"/>
    <path clip-path="url(#pd0c30d7f4b)" d="M 101.3355 188.022857 
L 114.09975 188.022857 
L 114.09975 203.862857 
L 101.3355 203.862857 
L 101.3355 188.022857 
" style="fill:none;"/>
    <path clip-path="url(#pd0c30d7f4b)" d="M 114.09975 188.022857 
L 126.864 188.022857 
L 126.864 203.862857 
L 114.09975 203.862857 
L 114.09975 188.022857 
" style="fill:#f8f1f8;"/>
    <path clip-path="url(#pd0c30d7f4b)" d="M 126.864 188.022857 
L 139.62825 188.022857 
L 139.62825 203.862857 
L 126.864 203.862857 
L 126.864 188.022857 
" style="fill:none;"/>
    <path clip-path="url(#pd0c30d7f4b)" d="M 139.62825 188.022857 
L 152.3925 188.022857 
L 152.3925 203.862857 
L 139.62825 203.862857 
L 139.62825 188.022857 
" style="fill:#f8f1f8;"/>
    <path clip-path="url(#pd0c30d7f4b)" d="M 152.3925 188.022857 
L 165.15675 188.022857 
L 165.15675 203.862857 
L 152.3925 203.862857 
L 152.3925 188.022857 
" style="fill:none;"/>
    <path clip-path="url(#pd0c30d7f4b)" d="M 24.75 203.862857 
L 37.51425 203.862857 
L 37.51425 219.702857 
L 24.75 219.702857 
L 24.75 203.862857 
" style="fill:none;"/>
    <path clip-path="url(#pd0c30d7f4b)" d="M 37.51425 203.862857 
L 50.2785 203.862857 
L 50.2785 219.702857 
L 37.51425 219.702857 
L 37.51425 203.862857 
" style="fill:#f8f1f8;"/>
    <path clip-path="url(#pd0c30d7f4b)" d="M 50.2785 203.862857 
L 63.04275 203.862857 
L 63.04275 219.702857 
L 50.2785 219.702857 
L 50.2785 203.862857 
" style="fill:none;"/>
    <path clip-path="url(#pd0c30d7f4b)" d="M 63.04275 203.862857 
L 75.807 203.862857 
L 75.807 219.702857 
L 63.04275 219.702857 
L 63.04275 203.862857 
" style="fill:#f8f1f8;"/>
    <path clip-path="url(#pd0c30d7f4b)" d="M 75.807 203.862857 
L 88.57125 203.862857 
L 88.57125 219.702857 
L 75.807 219.702857 
L 75.807 203.862857 
" style="fill:none;"/>
    <path clip-path="url(#pd0c30d7f4b)" d="M 88.57125 203.862857 
L 101.3355 203.862857 
L 101.3355 219.702857 
L 88.57125 219.702857 
L 88.57125 203.862857 
" style="fill:#f8f1f8;"/>
    <path clip-path="url(#pd0c30d7f4b)" d="M 101.3355 203.862857 
L 114.09975 203.862857 
L 114.09975 219.702857 
L 101.3355 219.702857 
L 101.3355 203.862857 
" style="fill:none;"/>
    <path clip-path="url(#pd0c30d7f4b)" d="M 114.09975 203.862857 
L 126.864 203.862857 
L 126.864 219.702857 
L 114.09975 219.702857 
L 114.09975 203.862857 
" style="fill:#f8f1f8;"/>
    <path clip-path="url(#pd0c30d7f4b)" d="M 126.864 203.862857 
L 139.62825 203.862857 
L 139.62825 219.702857 
L 126.864 219.702857 
L 126.864 203.862857 
" style="fill:none;"/>
    <path clip-path="url(#pd0c30d7f4b)" d="M 139.62825 203.862857 
L 152.3925 203.862857 
L 152.3925 219.702857 
L 139.62825 219.702857 
L 139.62825 203.862857 
" style="fill:#f8f1f8;"/>
    <path clip-path="url(#pd0c30d7f4b)" d="M 152.3925 203.862857 
L 165.15675 203.862857 
L 165.15675 219.702857 
L 152.3925 219.702857 
L 152.3925 203.862857 
" style="fill:none;"/>
   </g>
   <g id="matplotlib.axis_1">
    <g id="xtick_1">
     <g id="line2d_1">
      <defs>
       <path d="M 0 0 
L 0 10 
" id="mdd1b550497" style="stroke:#000000;stroke-width:0.8;"/>
      </defs>
      <g>
       <use style="stroke:#000000;stroke-width:0.8;" x="24.75" xlink:href="#mdd1b550497" y="219.702857"/>
      </g>
     </g>
     <g id="text_1">
      <!-- 0 -->
      <g transform="translate(19.189062 247.549732)scale(0.2 -0.2)">
       <defs>
        <path d="M 1731 4475 
Q 2600 4475 2988 3759 
Q 3288 3206 3288 2244 
Q 3288 1331 3016 734 
Q 2622 -122 1728 -122 
Q 922 -122 528 578 
Q 200 1163 200 2147 
Q 200 2909 397 3456 
Q 766 4475 1731 4475 
z
M 1725 391 
Q 2163 391 2422 778 
Q 2681 1166 2681 2222 
Q 2681 2984 2493 3476 
Q 2306 3969 1766 3969 
Q 1269 3969 1039 3501 
Q 809 3034 809 2125 
Q 809 1441 956 1025 
Q 1181 391 1725 391 
z
" id="Helvetica-30" transform="scale(0.015625)"/>
       </defs>
       <use xlink:href="#Helvetica-30"/>
      </g>
     </g>
    </g>
    <g id="xtick_2">
     <g id="line2d_2">
      <g>
       <use style="stroke:#000000;stroke-width:0.8;" x="152.3925" xlink:href="#mdd1b550497" y="219.702857"/>
      </g>
     </g>
     <g id="text_2">
      <!-- 10 -->
      <g transform="translate(141.270625 247.549732)scale(0.2 -0.2)">
       <defs>
        <path d="M 613 3169 
L 613 3600 
Q 1222 3659 1462 3798 
Q 1703 3938 1822 4456 
L 2266 4456 
L 2266 0 
L 1666 0 
L 1666 3169 
L 613 3169 
z
" id="Helvetica-31" transform="scale(0.015625)"/>
       </defs>
       <use xlink:href="#Helvetica-31"/>
       <use x="55.615234" xlink:href="#Helvetica-30"/>
      </g>
     </g>
    </g>
    <g id="text_3">
     <!-- Position -->
     <g transform="translate(59.378375 270.065357)scale(0.2 -0.2)">
      <defs>
       <path d="M 547 4591 
L 2613 4591 
Q 3225 4591 3600 4245 
Q 3975 3900 3975 3275 
Q 3975 2738 3640 2339 
Q 3306 1941 2613 1941 
L 1169 1941 
L 1169 0 
L 547 0 
L 547 4591 
z
M 3347 3272 
Q 3347 3778 2972 3959 
Q 2766 4056 2406 4056 
L 1169 4056 
L 1169 2466 
L 2406 2466 
Q 2825 2466 3086 2644 
Q 3347 2822 3347 3272 
z
" id="Helvetica-50" transform="scale(0.015625)"/>
       <path d="M 1741 363 
Q 2300 363 2508 786 
Q 2716 1209 2716 1728 
Q 2716 2197 2566 2491 
Q 2328 2953 1747 2953 
Q 1231 2953 997 2559 
Q 763 2166 763 1609 
Q 763 1075 997 719 
Q 1231 363 1741 363 
z
M 1763 3444 
Q 2409 3444 2856 3012 
Q 3303 2581 3303 1744 
Q 3303 934 2909 406 
Q 2516 -122 1688 -122 
Q 997 -122 590 345 
Q 184 813 184 1600 
Q 184 2444 612 2944 
Q 1041 3444 1763 3444 
z
M 1744 3428 
L 1744 3428 
z
" id="Helvetica-6f" transform="scale(0.015625)"/>
       <path d="M 747 1050 
Q 772 769 888 619 
Q 1100 347 1625 347 
Q 1938 347 2175 483 
Q 2413 619 2413 903 
Q 2413 1119 2222 1231 
Q 2100 1300 1741 1391 
L 1294 1503 
Q 866 1609 663 1741 
Q 300 1969 300 2372 
Q 300 2847 642 3140 
Q 984 3434 1563 3434 
Q 2319 3434 2653 2991 
Q 2863 2709 2856 2384 
L 2325 2384 
Q 2309 2575 2191 2731 
Q 1997 2953 1519 2953 
Q 1200 2953 1036 2831 
Q 872 2709 872 2509 
Q 872 2291 1088 2159 
Q 1213 2081 1456 2022 
L 1828 1931 
Q 2434 1784 2641 1647 
Q 2969 1431 2969 969 
Q 2969 522 2630 197 
Q 2291 -128 1597 -128 
Q 850 -128 539 211 
Q 228 550 206 1050 
L 747 1050 
z
M 1578 3428 
L 1578 3428 
z
" id="Helvetica-73" transform="scale(0.015625)"/>
       <path d="M 413 3331 
L 984 3331 
L 984 0 
L 413 0 
L 413 3331 
z
M 413 4591 
L 984 4591 
L 984 3953 
L 413 3953 
L 413 4591 
z
" id="Helvetica-69" transform="scale(0.015625)"/>
       <path d="M 525 4281 
L 1094 4281 
L 1094 3347 
L 1628 3347 
L 1628 2888 
L 1094 2888 
L 1094 703 
Q 1094 528 1213 469 
Q 1278 434 1431 434 
Q 1472 434 1519 436 
Q 1566 438 1628 444 
L 1628 0 
Q 1531 -28 1426 -40 
Q 1322 -53 1200 -53 
Q 806 -53 665 148 
Q 525 350 525 672 
L 525 2888 
L 72 2888 
L 72 3347 
L 525 3347 
L 525 4281 
z
" id="Helvetica-74" transform="scale(0.015625)"/>
       <path d="M 413 3347 
L 947 3347 
L 947 2872 
Q 1184 3166 1450 3294 
Q 1716 3422 2041 3422 
Q 2753 3422 3003 2925 
Q 3141 2653 3141 2147 
L 3141 0 
L 2569 0 
L 2569 2109 
Q 2569 2416 2478 2603 
Q 2328 2916 1934 2916 
Q 1734 2916 1606 2875 
Q 1375 2806 1200 2600 
Q 1059 2434 1017 2257 
Q 975 2081 975 1753 
L 975 0 
L 413 0 
L 413 3347 
z
M 1734 3428 
L 1734 3428 
z
" id="Helvetica-6e" transform="scale(0.015625)"/>
      </defs>
      <use xlink:href="#Helvetica-50"/>
      <use x="66.699219" xlink:href="#Helvetica-6f"/>
      <use x="122.314453" xlink:href="#Helvetica-73"/>
      <use x="172.314453" xlink:href="#Helvetica-69"/>
      <use x="194.53125" xlink:href="#Helvetica-74"/>
      <use x="222.314453" xlink:href="#Helvetica-69"/>
      <use x="244.53125" xlink:href="#Helvetica-6f"/>
      <use x="300.146484" xlink:href="#Helvetica-6e"/>
     </g>
    </g>
   </g>
   <g id="matplotlib.axis_2">
    <g id="ytick_1">
     <g id="line2d_3">
      <defs>
       <path d="M 0 0 
L -10 0 
" id="m75fbd7f0ab" style="stroke:#000000;stroke-width:0.8;"/>
      </defs>
      <g>
       <use style="stroke:#000000;stroke-width:0.8;" x="24.75" xlink:href="#m75fbd7f0ab" y="37.542857"/>
      </g>
     </g>
     <g id="text_4">
      <!-- D-Fuc -->
      <g transform="translate(-43.190625 44.716295)scale(0.2 -0.2)">
       <defs>
        <path d="M 2250 531 
Q 2566 531 2769 597 
Q 3131 719 3363 1066 
Q 3547 1344 3628 1778 
Q 3675 2038 3675 2259 
Q 3675 3113 3336 3584 
Q 2997 4056 2244 4056 
L 1141 4056 
L 1141 531 
L 2250 531 
z
M 516 4591 
L 2375 4591 
Q 3322 4591 3844 3919 
Q 4309 3313 4309 2366 
Q 4309 1634 4034 1044 
Q 3550 0 2369 0 
L 516 0 
L 516 4591 
z
" id="Helvetica-44" transform="scale(0.015625)"/>
        <path d="M 266 2072 
L 1834 2072 
L 1834 1494 
L 266 1494 
L 266 2072 
z
" id="Helvetica-2d" transform="scale(0.015625)"/>
        <path d="M 547 4591 
L 3731 4591 
L 3731 4028 
L 1169 4028 
L 1169 2634 
L 3422 2634 
L 3422 2088 
L 1169 2088 
L 1169 0 
L 547 0 
L 547 4591 
z
" id="Helvetica-46" transform="scale(0.015625)"/>
        <path d="M 975 3347 
L 975 1125 
Q 975 869 1056 706 
Q 1206 406 1616 406 
Q 2203 406 2416 931 
Q 2531 1213 2531 1703 
L 2531 3347 
L 3094 3347 
L 3094 0 
L 2563 0 
L 2569 494 
Q 2459 303 2297 172 
Q 1975 -91 1516 -91 
Q 800 -91 541 388 
Q 400 644 400 1072 
L 400 3347 
L 975 3347 
z
M 1747 3428 
L 1747 3428 
z
" id="Helvetica-75" transform="scale(0.015625)"/>
        <path d="M 1703 3444 
Q 2269 3444 2623 3169 
Q 2978 2894 3050 2222 
L 2503 2222 
Q 2453 2531 2275 2736 
Q 2097 2941 1703 2941 
Q 1166 2941 934 2416 
Q 784 2075 784 1575 
Q 784 1072 996 728 
Q 1209 384 1666 384 
Q 2016 384 2220 598 
Q 2425 813 2503 1184 
L 3050 1184 
Q 2956 519 2581 211 
Q 2206 -97 1622 -97 
Q 966 -97 575 383 
Q 184 863 184 1581 
Q 184 2463 612 2953 
Q 1041 3444 1703 3444 
z
M 1616 3428 
L 1616 3428 
z
" id="Helvetica-63" transform="scale(0.015625)"/>
       </defs>
       <use xlink:href="#Helvetica-44"/>
       <use x="72.216797" xlink:href="#Helvetica-2d"/>
       <use x="105.517578" xlink:href="#Helvetica-46"/>
       <use x="166.601562" xlink:href="#Helvetica-75"/>
       <use x="222.216797" xlink:href="#Helvetica-63"/>
      </g>
     </g>
    </g>
    <g id="ytick_2">
     <g id="line2d_4">
      <g>
       <use style="stroke:#000000;stroke-width:0.8;" x="24.75" xlink:href="#m75fbd7f0ab" y="53.382857"/>
      </g>
     </g>
     <g id="text_5">
      <!-- GalNAcOP -->
      <g transform="translate(-86.553125 60.556295)scale(0.2 -0.2)">
       <defs>
        <path d="M 2472 4709 
Q 3119 4709 3591 4459 
Q 4275 4100 4428 3200 
L 3813 3200 
Q 3700 3703 3347 3933 
Q 2994 4163 2456 4163 
Q 1819 4163 1383 3684 
Q 947 3206 947 2259 
Q 947 1441 1306 927 
Q 1666 413 2478 413 
Q 3100 413 3508 773 
Q 3916 1134 3925 1941 
L 2488 1941 
L 2488 2456 
L 4503 2456 
L 4503 0 
L 4103 0 
L 3953 591 
Q 3638 244 3394 109 
Q 2984 -122 2353 -122 
Q 1538 -122 950 406 
Q 309 1069 309 2225 
Q 309 3378 934 4059 
Q 1528 4709 2472 4709 
z
M 2369 4716 
L 2369 4716 
z
" id="Helvetica-47" transform="scale(0.015625)"/>
        <path d="M 844 891 
Q 844 647 1022 506 
Q 1200 366 1444 366 
Q 1741 366 2019 503 
Q 2488 731 2488 1250 
L 2488 1703 
Q 2384 1638 2221 1594 
Q 2059 1550 1903 1531 
L 1563 1488 
Q 1256 1447 1103 1359 
Q 844 1213 844 891 
z
M 2206 2028 
Q 2400 2053 2466 2191 
Q 2503 2266 2503 2406 
Q 2503 2694 2298 2823 
Q 2094 2953 1713 2953 
Q 1272 2953 1088 2716 
Q 984 2584 953 2325 
L 428 2325 
Q 444 2944 830 3186 
Q 1216 3428 1725 3428 
Q 2316 3428 2684 3203 
Q 3050 2978 3050 2503 
L 3050 575 
Q 3050 488 3086 434 
Q 3122 381 3238 381 
Q 3275 381 3322 386 
Q 3369 391 3422 400 
L 3422 -16 
Q 3291 -53 3222 -62 
Q 3153 -72 3034 -72 
Q 2744 -72 2613 134 
Q 2544 244 2516 444 
Q 2344 219 2022 53 
Q 1700 -113 1313 -113 
Q 847 -113 551 170 
Q 256 453 256 878 
Q 256 1344 547 1600 
Q 838 1856 1309 1916 
L 2206 2028 
z
M 1741 3428 
L 1741 3428 
z
" id="Helvetica-61" transform="scale(0.015625)"/>
        <path d="M 428 4591 
L 991 4591 
L 991 0 
L 428 0 
L 428 4591 
z
" id="Helvetica-6c" transform="scale(0.015625)"/>
        <path d="M 488 4591 
L 1222 4591 
L 3541 872 
L 3541 4591 
L 4131 4591 
L 4131 0 
L 3434 0 
L 1081 3716 
L 1081 0 
L 488 0 
L 488 4591 
z
M 2269 4591 
L 2269 4591 
z
" id="Helvetica-4e" transform="scale(0.015625)"/>
        <path d="M 2844 1881 
L 2147 3909 
L 1406 1881 
L 2844 1881 
z
M 1822 4591 
L 2525 4591 
L 4191 0 
L 3509 0 
L 3044 1375 
L 1228 1375 
L 731 0 
L 94 0 
L 1822 4591 
z
M 2144 4591 
L 2144 4591 
z
" id="Helvetica-41" transform="scale(0.015625)"/>
        <path d="M 2469 4716 
Q 3684 4716 4269 3934 
Q 4725 3325 4725 2375 
Q 4725 1347 4203 666 
Q 3591 -134 2456 -134 
Q 1397 -134 791 566 
Q 250 1241 250 2272 
Q 250 3203 713 3866 
Q 1306 4716 2469 4716 
z
M 2531 422 
Q 3353 422 3720 1011 
Q 4088 1600 4088 2366 
Q 4088 3175 3664 3669 
Q 3241 4163 2506 4163 
Q 1794 4163 1344 3673 
Q 894 3184 894 2231 
Q 894 1469 1280 945 
Q 1666 422 2531 422 
z
M 2488 4716 
L 2488 4716 
z
" id="Helvetica-4f" transform="scale(0.015625)"/>
       </defs>
       <use xlink:href="#Helvetica-47"/>
       <use x="77.783203" xlink:href="#Helvetica-61"/>
       <use x="133.398438" xlink:href="#Helvetica-6c"/>
       <use x="155.615234" xlink:href="#Helvetica-4e"/>
       <use x="227.832031" xlink:href="#Helvetica-41"/>
       <use x="294.53125" xlink:href="#Helvetica-63"/>
       <use x="344.53125" xlink:href="#Helvetica-4f"/>
       <use x="422.314453" xlink:href="#Helvetica-50"/>
      </g>
     </g>
    </g>
    <g id="ytick_3">
     <g id="line2d_5">
      <g>
       <use style="stroke:#000000;stroke-width:0.8;" x="24.75" xlink:href="#m75fbd7f0ab" y="69.222857"/>
      </g>
     </g>
     <g id="text_6">
      <!-- Glc -->
      <g transform="translate(-18.75 76.396295)scale(0.2 -0.2)">
       <use xlink:href="#Helvetica-47"/>
       <use x="77.783203" xlink:href="#Helvetica-6c"/>
       <use x="100" xlink:href="#Helvetica-63"/>
      </g>
     </g>
    </g>
    <g id="ytick_4">
     <g id="line2d_6">
      <g>
       <use style="stroke:#000000;stroke-width:0.8;" x="24.75" xlink:href="#m75fbd7f0ab" y="85.062857"/>
      </g>
     </g>
     <g id="text_7">
      <!-- GlcA -->
      <g transform="translate(-32.090625 92.236295)scale(0.2 -0.2)">
       <use xlink:href="#Helvetica-47"/>
       <use x="77.783203" xlink:href="#Helvetica-6c"/>
       <use x="100" xlink:href="#Helvetica-63"/>
       <use x="150" xlink:href="#Helvetica-41"/>
      </g>
     </g>
    </g>
    <g id="ytick_5">
     <g id="line2d_7">
      <g>
       <use style="stroke:#000000;stroke-width:0.8;" x="24.75" xlink:href="#m75fbd7f0ab" y="100.902857"/>
      </g>
     </g>
     <g id="text_8">
      <!-- GlcNAcOS -->
      <g transform="translate(-85.43125 108.076295)scale(0.2 -0.2)">
       <defs>
        <path d="M 894 1481 
Q 916 1091 1078 847 
Q 1388 391 2169 391 
Q 2519 391 2806 491 
Q 3363 684 3363 1184 
Q 3363 1559 3128 1719 
Q 2891 1875 2384 1991 
L 1763 2131 
Q 1153 2269 900 2434 
Q 463 2722 463 3294 
Q 463 3913 891 4309 
Q 1319 4706 2103 4706 
Q 2825 4706 3329 4357 
Q 3834 4009 3834 3244 
L 3250 3244 
Q 3203 3613 3050 3809 
Q 2766 4169 2084 4169 
Q 1534 4169 1293 3937 
Q 1053 3706 1053 3400 
Q 1053 3063 1334 2906 
Q 1519 2806 2169 2656 
L 2813 2509 
Q 3278 2403 3531 2219 
Q 3969 1897 3969 1284 
Q 3969 522 3414 194 
Q 2859 -134 2125 -134 
Q 1269 -134 784 303 
Q 300 738 309 1481 
L 894 1481 
z
M 2150 4716 
L 2150 4716 
z
" id="Helvetica-53" transform="scale(0.015625)"/>
       </defs>
       <use xlink:href="#Helvetica-47"/>
       <use x="77.783203" xlink:href="#Helvetica-6c"/>
       <use x="100" xlink:href="#Helvetica-63"/>
       <use x="150" xlink:href="#Helvetica-4e"/>
       <use x="222.216797" xlink:href="#Helvetica-41"/>
       <use x="288.916016" xlink:href="#Helvetica-63"/>
       <use x="338.916016" xlink:href="#Helvetica-4f"/>
       <use x="416.699219" xlink:href="#Helvetica-53"/>
      </g>
     </g>
    </g>
    <g id="ytick_6">
     <g id="line2d_8">
      <g>
       <use style="stroke:#000000;stroke-width:0.8;" x="24.75" xlink:href="#m75fbd7f0ab" y="116.742857"/>
      </g>
     </g>
     <g id="text_9">
      <!-- GlcOPN -->
      <g transform="translate(-62.090625 123.916295)scale(0.2 -0.2)">
       <use xlink:href="#Helvetica-47"/>
       <use x="77.783203" xlink:href="#Helvetica-6c"/>
       <use x="100" xlink:href="#Helvetica-63"/>
       <use x="150" xlink:href="#Helvetica-4f"/>
       <use x="227.783203" xlink:href="#Helvetica-50"/>
       <use x="294.482422" xlink:href="#Helvetica-4e"/>
      </g>
     </g>
    </g>
    <g id="ytick_7">
     <g id="line2d_9">
      <g>
       <use style="stroke:#000000;stroke-width:0.8;" x="24.75" xlink:href="#m75fbd7f0ab" y="132.582857"/>
      </g>
     </g>
     <g id="text_10">
      <!-- Man -->
      <g transform="translate(-27.653125 139.756295)scale(0.2 -0.2)">
       <defs>
        <path d="M 472 4591 
L 1363 4591 
L 2681 709 
L 3991 4591 
L 4872 4591 
L 4872 0 
L 4281 0 
L 4281 2709 
Q 4281 2850 4287 3175 
Q 4294 3500 4294 3872 
L 2984 0 
L 2369 0 
L 1050 3872 
L 1050 3731 
Q 1050 3563 1058 3217 
Q 1066 2872 1066 2709 
L 1066 0 
L 472 0 
L 472 4591 
z
" id="Helvetica-4d" transform="scale(0.015625)"/>
       </defs>
       <use xlink:href="#Helvetica-4d"/>
       <use x="83.300781" xlink:href="#Helvetica-61"/>
       <use x="138.916016" xlink:href="#Helvetica-6e"/>
      </g>
     </g>
    </g>
    <g id="ytick_8">
     <g id="line2d_10">
      <g>
       <use style="stroke:#000000;stroke-width:0.8;" x="24.75" xlink:href="#m75fbd7f0ab" y="148.422857"/>
      </g>
     </g>
     <g id="text_11">
      <!-- NeuNAc -->
      <g transform="translate(-63.221875 155.596295)scale(0.2 -0.2)">
       <defs>
        <path d="M 1806 3422 
Q 2163 3422 2497 3255 
Q 2831 3088 3006 2822 
Q 3175 2569 3231 2231 
Q 3281 2000 3281 1494 
L 828 1494 
Q 844 984 1069 676 
Q 1294 369 1766 369 
Q 2206 369 2469 659 
Q 2619 828 2681 1050 
L 3234 1050 
Q 3213 866 3089 639 
Q 2966 413 2813 269 
Q 2556 19 2178 -69 
Q 1975 -119 1719 -119 
Q 1094 -119 659 336 
Q 225 791 225 1609 
Q 225 2416 662 2919 
Q 1100 3422 1806 3422 
z
M 2703 1941 
Q 2669 2306 2544 2525 
Q 2313 2931 1772 2931 
Q 1384 2931 1121 2651 
Q 859 2372 844 1941 
L 2703 1941 
z
M 1753 3428 
L 1753 3428 
z
" id="Helvetica-65" transform="scale(0.015625)"/>
       </defs>
       <use xlink:href="#Helvetica-4e"/>
       <use x="72.216797" xlink:href="#Helvetica-65"/>
       <use x="127.832031" xlink:href="#Helvetica-75"/>
       <use x="183.447266" xlink:href="#Helvetica-4e"/>
       <use x="255.664062" xlink:href="#Helvetica-41"/>
       <use x="322.363281" xlink:href="#Helvetica-63"/>
      </g>
     </g>
    </g>
    <g id="ytick_9">
     <g id="line2d_11">
      <g>
       <use style="stroke:#000000;stroke-width:0.8;" x="24.75" xlink:href="#m75fbd7f0ab" y="164.262857"/>
      </g>
     </g>
     <g id="text_12">
      <!-- XylOMe -->
      <g transform="translate(-59.871875 171.631607)scale(0.2 -0.2)">
       <defs>
        <path d="M 881 0 
L 131 0 
L 1775 2353 
L 234 4591 
L 1013 4591 
L 2184 2834 
L 3347 4591 
L 4088 4591 
L 2547 2353 
L 4163 0 
L 3391 0 
L 2153 1888 
L 881 0 
z
" id="Helvetica-58" transform="scale(0.015625)"/>
        <path d="M 2503 3347 
L 3125 3347 
Q 3006 3025 2597 1878 
Q 2291 1016 2084 472 
Q 1597 -809 1397 -1090 
Q 1197 -1372 709 -1372 
Q 591 -1372 527 -1362 
Q 463 -1353 369 -1328 
L 369 -816 
Q 516 -856 581 -865 
Q 647 -875 697 -875 
Q 853 -875 926 -823 
Q 1000 -772 1050 -697 
Q 1066 -672 1162 -440 
Q 1259 -209 1303 -97 
L 66 3347 
L 703 3347 
L 1600 622 
L 2503 3347 
z
M 1597 3428 
L 1597 3428 
z
" id="Helvetica-79" transform="scale(0.015625)"/>
       </defs>
       <use xlink:href="#Helvetica-58"/>
       <use x="66.699219" xlink:href="#Helvetica-79"/>
       <use x="116.699219" xlink:href="#Helvetica-6c"/>
       <use x="138.916016" xlink:href="#Helvetica-4f"/>
       <use x="216.699219" xlink:href="#Helvetica-4d"/>
       <use x="300" xlink:href="#Helvetica-65"/>
      </g>
     </g>
    </g>
    <g id="ytick_10">
     <g id="line2d_12">
      <g>
       <use style="stroke:#000000;stroke-width:0.8;" x="24.75" xlink:href="#m75fbd7f0ab" y="180.102857"/>
      </g>
     </g>
     <g id="text_13">
      <!-- a1-2 -->
      <g transform="translate(-28.775 187.276295)scale(0.2 -0.2)">
       <defs>
        <path d="M 200 0 
Q 231 578 439 1006 
Q 647 1434 1250 1784 
L 1850 2131 
Q 2253 2366 2416 2531 
Q 2672 2791 2672 3125 
Q 2672 3516 2437 3745 
Q 2203 3975 1813 3975 
Q 1234 3975 1013 3538 
Q 894 3303 881 2888 
L 309 2888 
Q 319 3472 525 3841 
Q 891 4491 1816 4491 
Q 2584 4491 2939 4075 
Q 3294 3659 3294 3150 
Q 3294 2613 2916 2231 
Q 2697 2009 2131 1694 
L 1703 1456 
Q 1397 1288 1222 1134 
Q 909 863 828 531 
L 3272 531 
L 3272 0 
L 200 0 
z
" id="Helvetica-32" transform="scale(0.015625)"/>
       </defs>
       <use xlink:href="#Helvetica-61"/>
       <use x="55.615234" xlink:href="#Helvetica-31"/>
       <use x="111.230469" xlink:href="#Helvetica-2d"/>
       <use x="144.53125" xlink:href="#Helvetica-32"/>
      </g>
     </g>
    </g>
    <g id="ytick_11">
     <g id="line2d_13">
      <g>
       <use style="stroke:#000000;stroke-width:0.8;" x="24.75" xlink:href="#m75fbd7f0ab" y="195.942857"/>
      </g>
     </g>
     <g id="text_14">
      <!-- a1-3 -->
      <g transform="translate(-28.775 203.116295)scale(0.2 -0.2)">
       <defs>
        <path d="M 1663 -122 
Q 869 -122 511 314 
Q 153 750 153 1375 
L 741 1375 
Q 778 941 903 744 
Q 1122 391 1694 391 
Q 2138 391 2406 628 
Q 2675 866 2675 1241 
Q 2675 1703 2392 1887 
Q 2109 2072 1606 2072 
Q 1550 2072 1492 2070 
Q 1434 2069 1375 2066 
L 1375 2563 
Q 1463 2553 1522 2550 
Q 1581 2547 1650 2547 
Q 1966 2547 2169 2647 
Q 2525 2822 2525 3272 
Q 2525 3606 2287 3787 
Q 2050 3969 1734 3969 
Q 1172 3969 956 3594 
Q 838 3388 822 3006 
L 266 3006 
Q 266 3506 466 3856 
Q 809 4481 1675 4481 
Q 2359 4481 2734 4176 
Q 3109 3872 3109 3294 
Q 3109 2881 2888 2625 
Q 2750 2466 2531 2375 
Q 2884 2278 3082 2001 
Q 3281 1725 3281 1325 
Q 3281 684 2859 281 
Q 2438 -122 1663 -122 
z
" id="Helvetica-33" transform="scale(0.015625)"/>
       </defs>
       <use xlink:href="#Helvetica-61"/>
       <use x="55.615234" xlink:href="#Helvetica-31"/>
       <use x="111.230469" xlink:href="#Helvetica-2d"/>
       <use x="144.53125" xlink:href="#Helvetica-33"/>
      </g>
     </g>
    </g>
    <g id="ytick_12">
     <g id="line2d_14">
      <g>
       <use style="stroke:#000000;stroke-width:0.8;" x="24.75" xlink:href="#m75fbd7f0ab" y="211.782857"/>
      </g>
     </g>
     <g id="text_15">
      <!-- a1-6 -->
      <g transform="translate(-28.775 218.956295)scale(0.2 -0.2)">
       <defs>
        <path d="M 1872 4494 
Q 2622 4494 2917 4105 
Q 3213 3716 3213 3303 
L 2656 3303 
Q 2606 3569 2497 3719 
Q 2294 4000 1881 4000 
Q 1409 4000 1131 3564 
Q 853 3128 822 2316 
Q 1016 2600 1309 2741 
Q 1578 2866 1909 2866 
Q 2472 2866 2890 2506 
Q 3309 2147 3309 1434 
Q 3309 825 2912 354 
Q 2516 -116 1781 -116 
Q 1153 -116 697 361 
Q 241 838 241 1966 
Q 241 2800 444 3381 
Q 834 4494 1872 4494 
z
M 1831 384 
Q 2275 384 2495 682 
Q 2716 981 2716 1388 
Q 2716 1731 2519 2042 
Q 2322 2353 1803 2353 
Q 1441 2353 1167 2112 
Q 894 1872 894 1388 
Q 894 963 1142 673 
Q 1391 384 1831 384 
z
" id="Helvetica-36" transform="scale(0.015625)"/>
       </defs>
       <use xlink:href="#Helvetica-61"/>
       <use x="55.615234" xlink:href="#Helvetica-31"/>
       <use x="111.230469" xlink:href="#Helvetica-2d"/>
       <use x="144.53125" xlink:href="#Helvetica-36"/>
      </g>
     </g>
    </g>
   </g>
  </g>
  <g id="axes_2">
   <g id="patch_3">
    <path d="M 170.5275 201.387857 
L 178.2 201.387857 
L 178.2 47.937857 
L 170.5275 47.937857 
z
" style="fill:#ffffff;"/>
   </g>
   <g id="patch_4">
    <path clip-path="url(#pe83b85500b)" d="M 170.5275 201.387857 
L 170.5275 193.715357 
L 170.5275 55.610357 
L 170.5275 47.937857 
L 178.2 47.937857 
L 178.2 55.610357 
L 178.2 193.715357 
L 178.2 201.387857 
L 178.2 201.387857 
z
" style="fill:#ffffff;stroke:#ffffff;stroke-linejoin:miter;stroke-width:0.01;"/>
   </g>
   <g id="QuadMesh_2">
    <path clip-path="url(#pe83b85500b)" d="M 170.5275 201.387857 
L 178.2 201.387857 
L 178.2 193.715357 
L 170.5275 193.715357 
L 170.5275 201.387857 
" style="fill:#f8f1f8;"/>
    <path clip-path="url(#pe83b85500b)" d="M 170.5275 193.715357 
L 178.2 193.715357 
L 178.2 186.042857 
L 170.5275 186.042857 
L 170.5275 193.715357 
" style="fill:#f1ebf4;"/>
    <path clip-path="url(#pe83b85500b)" d="M 170.5275 186.042857 
L 178.2 186.042857 
L 178.2 178.370357 
L 170.5275 178.370357 
L 170.5275 186.042857 
" style="fill:#e8e4f0;"/>
    <path clip-path="url(#pe83b85500b)" d="M 170.5275 178.370357 
L 178.2 178.370357 
L 178.2 170.697857 
L 170.5275 170.697857 
L 170.5275 178.370357 
" style="fill:#dedcec;"/>
    <path clip-path="url(#pe83b85500b)" d="M 170.5275 170.697857 
L 178.2 170.697857 
L 178.2 163.025357 
L 170.5275 163.025357 
L 170.5275 170.697857 
" style="fill:#d3d4e7;"/>
    <path clip-path="url(#pe83b85500b)" d="M 170.5275 163.025357 
L 178.2 163.025357 
L 178.2 155.352857 
L 170.5275 155.352857 
L 170.5275 163.025357 
" style="fill:#c4cbe3;"/>
    <path clip-path="url(#pe83b85500b)" d="M 170.5275 155.352857 
L 178.2 155.352857 
L 178.2 147.680357 
L 170.5275 147.680357 
L 170.5275 155.352857 
" style="fill:#b4c4df;"/>
    <path clip-path="url(#pe83b85500b)" d="M 170.5275 147.680357 
L 178.2 147.680357 
L 178.2 140.007857 
L 170.5275 140.007857 
L 170.5275 147.680357 
" style="fill:#a4bcda;"/>
    <path clip-path="url(#pe83b85500b)" d="M 170.5275 140.007857 
L 178.2 140.007857 
L 178.2 132.335357 
L 170.5275 132.335357 
L 170.5275 140.007857 
" style="fill:#91b5d6;"/>
    <path clip-path="url(#pe83b85500b)" d="M 170.5275 132.335357 
L 178.2 132.335357 
L 178.2 124.662857 
L 170.5275 124.662857 
L 170.5275 132.335357 
" style="fill:#7eadd1;"/>
    <path clip-path="url(#pe83b85500b)" d="M 170.5275 124.662857 
L 178.2 124.662857 
L 178.2 116.990357 
L 170.5275 116.990357 
L 170.5275 124.662857 
" style="fill:#67a4cc;"/>
    <path clip-path="url(#pe83b85500b)" d="M 170.5275 116.990357 
L 178.2 116.990357 
L 178.2 109.317857 
L 170.5275 109.317857 
L 170.5275 116.990357 
" style="fill:#509ac6;"/>
    <path clip-path="url(#pe83b85500b)" d="M 170.5275 109.317857 
L 178.2 109.317857 
L 178.2 101.645357 
L 170.5275 101.645357 
L 170.5275 109.317857 
" style="fill:#3991c1;"/>
    <path clip-path="url(#pe83b85500b)" d="M 170.5275 101.645357 
L 178.2 101.645357 
L 178.2 93.972857 
L 170.5275 93.972857 
L 170.5275 101.645357 
" style="fill:#2685bb;"/>
    <path clip-path="url(#pe83b85500b)" d="M 170.5275 93.972857 
L 178.2 93.972857 
L 178.2 86.300357 
L 170.5275 86.300357 
L 170.5275 93.972857 
" style="fill:#1379b5;"/>
    <path clip-path="url(#pe83b85500b)" d="M 170.5275 86.300357 
L 178.2 86.300357 
L 178.2 78.627857 
L 170.5275 78.627857 
L 170.5275 86.300357 
" style="fill:#056dac;"/>
    <path clip-path="url(#pe83b85500b)" d="M 170.5275 78.627857 
L 178.2 78.627857 
L 178.2 70.955357 
L 170.5275 70.955357 
L 170.5275 78.627857 
" style="fill:#05659f;"/>
    <path clip-path="url(#pe83b85500b)" d="M 170.5275 70.955357 
L 178.2 70.955357 
L 178.2 63.282857 
L 170.5275 63.282857 
L 170.5275 70.955357 
" style="fill:#045d92;"/>
    <path clip-path="url(#pe83b85500b)" d="M 170.5275 63.282857 
L 178.2 63.282857 
L 178.2 55.610357 
L 170.5275 55.610357 
L 170.5275 63.282857 
" style="fill:#045280;"/>
    <path clip-path="url(#pe83b85500b)" d="M 170.5275 55.610357 
L 178.2 55.610357 
L 178.2 47.937857 
L 170.5275 47.937857 
L 170.5275 55.610357 
" style="fill:#03456c;"/>
   </g>
   <g id="matplotlib.axis_3"/>
   <g id="matplotlib.axis_4">
    <g id="ytick_13">
     <g id="line2d_15">
      <defs>
       <path d="M 0 0 
L 10 0 
" id="mbc85174c13" style="stroke:#000000;stroke-width:0.8;"/>
      </defs>
      <g>
       <use style="stroke:#000000;stroke-width:0.8;" x="178.2" xlink:href="#mbc85174c13" y="201.387857"/>
      </g>
     </g>
     <g id="text_16">
      <!-- 0.00 -->
      <g transform="translate(191.7 206.767935)scale(0.15 -0.15)">
       <defs>
        <path d="M 547 681 
L 1200 681 
L 1200 0 
L 547 0 
L 547 681 
z
" id="Helvetica-2e" transform="scale(0.015625)"/>
       </defs>
       <use xlink:href="#Helvetica-30"/>
       <use x="55.615234" xlink:href="#Helvetica-2e"/>
       <use x="83.398438" xlink:href="#Helvetica-30"/>
       <use x="139.013672" xlink:href="#Helvetica-30"/>
      </g>
     </g>
    </g>
    <g id="ytick_14">
     <g id="line2d_16">
      <g>
       <use style="stroke:#000000;stroke-width:0.8;" x="178.2" xlink:href="#mbc85174c13" y="150.238423"/>
      </g>
     </g>
     <g id="text_17">
      <!-- 0.25 -->
      <g transform="translate(191.7 155.618501)scale(0.15 -0.15)">
       <defs>
        <path d="M 791 1141 
Q 847 659 1238 475 
Q 1438 381 1700 381 
Q 2200 381 2440 700 
Q 2681 1019 2681 1406 
Q 2681 1875 2395 2131 
Q 2109 2388 1709 2388 
Q 1419 2388 1211 2275 
Q 1003 2163 856 1963 
L 369 1991 
L 709 4400 
L 3034 4400 
L 3034 3856 
L 1131 3856 
L 941 2613 
Q 1097 2731 1238 2791 
Q 1488 2894 1816 2894 
Q 2431 2894 2859 2497 
Q 3288 2100 3288 1491 
Q 3288 856 2895 371 
Q 2503 -113 1644 -113 
Q 1097 -113 676 195 
Q 256 503 206 1141 
L 791 1141 
z
" id="Helvetica-35" transform="scale(0.015625)"/>
       </defs>
       <use xlink:href="#Helvetica-30"/>
       <use x="55.615234" xlink:href="#Helvetica-2e"/>
       <use x="83.398438" xlink:href="#Helvetica-32"/>
       <use x="139.013672" xlink:href="#Helvetica-35"/>
      </g>
     </g>
    </g>
    <g id="ytick_15">
     <g id="line2d_17">
      <g>
       <use style="stroke:#000000;stroke-width:0.8;" x="178.2" xlink:href="#mbc85174c13" y="99.088989"/>
      </g>
     </g>
     <g id="text_18">
      <!-- 0.50 -->
      <g transform="translate(191.7 104.469067)scale(0.15 -0.15)">
       <use xlink:href="#Helvetica-30"/>
       <use x="55.615234" xlink:href="#Helvetica-2e"/>
       <use x="83.398438" xlink:href="#Helvetica-35"/>
       <use x="139.013672" xlink:href="#Helvetica-30"/>
      </g>
     </g>
    </g>
    <g id="ytick_16">
     <g id="line2d_18">
      <g>
       <use style="stroke:#000000;stroke-width:0.8;" x="178.2" xlink:href="#mbc85174c13" y="47.939555"/>
      </g>
     </g>
    </g>
    <g id="text_19">
     <!-- Activation   -->
     <g transform="translate(236.544531 75.753482)rotate(-270)scale(0.2 -0.2)">
      <defs>
       <path d="M 688 3347 
L 1581 622 
L 2516 3347 
L 3131 3347 
L 1869 0 
L 1269 0 
L 34 3347 
L 688 3347 
z
" id="Helvetica-76" transform="scale(0.015625)"/>
       <path id="Helvetica-20" transform="scale(0.015625)"/>
      </defs>
      <use xlink:href="#Helvetica-41"/>
      <use x="66.699219" xlink:href="#Helvetica-63"/>
      <use x="116.699219" xlink:href="#Helvetica-74"/>
      <use x="144.482422" xlink:href="#Helvetica-69"/>
      <use x="166.699219" xlink:href="#Helvetica-76"/>
      <use x="216.699219" xlink:href="#Helvetica-61"/>
      <use x="272.314453" xlink:href="#Helvetica-74"/>
      <use x="300.097656" xlink:href="#Helvetica-69"/>
      <use x="322.314453" xlink:href="#Helvetica-6f"/>
      <use x="377.929688" xlink:href="#Helvetica-6e"/>
      <use x="433.544922" xlink:href="#Helvetica-20"/>
      <use x="461.328125" xlink:href="#Helvetica-20"/>
     </g>
    </g>
   </g>
   <g id="LineCollection_1"/>
   <g id="patch_5">
    <path d="M 170.5275 201.387857 
L 170.5275 193.715357 
L 170.5275 55.610357 
L 170.5275 47.937857 
L 178.2 47.937857 
L 178.2 55.610357 
L 178.2 193.715357 
L 178.2 201.387857 
z
" style="fill:none;"/>
   </g>
  </g>
 </g>
 <defs>
  <clipPath id="pd0c30d7f4b">
   <rect height="190.08" width="140.40675" x="24.75" y="29.622857"/>
  </clipPath>
  <clipPath id="pe83b85500b">
   <rect height="153.45" width="7.6725" x="170.5275" y="47.937857"/>
  </clipPath>
 </defs>
</svg>
