<?xml version="1.0" encoding="utf-8" standalone="no"?>
<!DOCTYPE svg PUBLIC "-//W3C//DTD SVG 1.1//EN"
  "http://www.w3.org/Graphics/SVG/1.1/DTD/svg11.dtd">
<svg height="144pt" version="1.1" viewBox="0 0 144 144" width="144pt" xmlns="http://www.w3.org/2000/svg" xmlns:xlink="http://www.w3.org/1999/xlink">
 <metadata>
  <rdf:RDF xmlns:cc="http://creativecommons.org/ns#" xmlns:dc="http://purl.org/dc/elements/1.1/" xmlns:rdf="http://www.w3.org/1999/02/22-rdf-syntax-ns#">
   <cc:Work>
    <dc:type rdf:resource="http://purl.org/dc/dcmitype/StillImage"/>
    <dc:date>2022-12-18T08:06:58.561521</dc:date>
    <dc:format>image/svg+xml</dc:format>
    <dc:creator>
     <cc:Agent>
      <dc:title>Matplotlib v3.4.2, https://matplotlib.org/</dc:title>
     </cc:Agent>
    </dc:creator>
   </cc:Work>
  </rdf:RDF>
 </metadata>
 <defs>
  <style type="text/css">*{stroke-linecap:butt;stroke-linejoin:round;}</style>
 </defs>
 <g id="figure_1">
  <g id="patch_1">
   <path d="M 0 144 
L 144 144 
L 144 0 
L 0 0 
z
" style="fill:#ffffff;"/>
  </g>
  <g id="axes_1">
   <g id="patch_2">
    <path d="M 18 128.16 
L 129.6 128.16 
L 129.6 17.28 
L 18 17.28 
z
" style="fill:#ffffff;"/>
   </g>
   <g id="matplotlib.axis_1">
    <g id="xtick_1">
     <g id="text_1">
      <!-- Original -->
      <g style="fill:#262626;" transform="translate(41.78125 204.0725)rotate(-90)scale(0.2 -0.2)">
       <defs>
        <path d="M 309 2231 
Q 309 3372 921 4017 
Q 1534 4663 2503 4663 
Q 3138 4663 3647 4359 
Q 4156 4056 4423 3514 
Q 4691 2972 4691 2284 
Q 4691 1588 4409 1038 
Q 4128 488 3612 205 
Q 3097 -78 2500 -78 
Q 1853 -78 1343 234 
Q 834 547 571 1087 
Q 309 1628 309 2231 
z
M 934 2222 
Q 934 1394 1379 917 
Q 1825 441 2497 441 
Q 3181 441 3623 922 
Q 4066 1403 4066 2288 
Q 4066 2847 3877 3264 
Q 3688 3681 3323 3911 
Q 2959 4141 2506 4141 
Q 1863 4141 1398 3698 
Q 934 3256 934 2222 
z
" id="ArialMT-4f" transform="scale(0.015625)"/>
        <path d="M 416 0 
L 416 3319 
L 922 3319 
L 922 2816 
Q 1116 3169 1280 3281 
Q 1444 3394 1641 3394 
Q 1925 3394 2219 3213 
L 2025 2691 
Q 1819 2813 1613 2813 
Q 1428 2813 1281 2702 
Q 1134 2591 1072 2394 
Q 978 2094 978 1738 
L 978 0 
L 416 0 
z
" id="ArialMT-72" transform="scale(0.015625)"/>
        <path d="M 425 3934 
L 425 4581 
L 988 4581 
L 988 3934 
L 425 3934 
z
M 425 0 
L 425 3319 
L 988 3319 
L 988 0 
L 425 0 
z
" id="ArialMT-69" transform="scale(0.015625)"/>
        <path d="M 319 -275 
L 866 -356 
Q 900 -609 1056 -725 
Q 1266 -881 1628 -881 
Q 2019 -881 2231 -725 
Q 2444 -569 2519 -288 
Q 2563 -116 2559 434 
Q 2191 0 1641 0 
Q 956 0 581 494 
Q 206 988 206 1678 
Q 206 2153 378 2554 
Q 550 2956 876 3175 
Q 1203 3394 1644 3394 
Q 2231 3394 2613 2919 
L 2613 3319 
L 3131 3319 
L 3131 450 
Q 3131 -325 2973 -648 
Q 2816 -972 2473 -1159 
Q 2131 -1347 1631 -1347 
Q 1038 -1347 672 -1080 
Q 306 -813 319 -275 
z
M 784 1719 
Q 784 1066 1043 766 
Q 1303 466 1694 466 
Q 2081 466 2343 764 
Q 2606 1063 2606 1700 
Q 2606 2309 2336 2618 
Q 2066 2928 1684 2928 
Q 1309 2928 1046 2623 
Q 784 2319 784 1719 
z
" id="ArialMT-67" transform="scale(0.015625)"/>
        <path d="M 422 0 
L 422 3319 
L 928 3319 
L 928 2847 
Q 1294 3394 1984 3394 
Q 2284 3394 2536 3286 
Q 2788 3178 2913 3003 
Q 3038 2828 3088 2588 
Q 3119 2431 3119 2041 
L 3119 0 
L 2556 0 
L 2556 2019 
Q 2556 2363 2490 2533 
Q 2425 2703 2258 2804 
Q 2091 2906 1866 2906 
Q 1506 2906 1245 2678 
Q 984 2450 984 1813 
L 984 0 
L 422 0 
z
" id="ArialMT-6e" transform="scale(0.015625)"/>
        <path d="M 2588 409 
Q 2275 144 1986 34 
Q 1697 -75 1366 -75 
Q 819 -75 525 192 
Q 231 459 231 875 
Q 231 1119 342 1320 
Q 453 1522 633 1644 
Q 813 1766 1038 1828 
Q 1203 1872 1538 1913 
Q 2219 1994 2541 2106 
Q 2544 2222 2544 2253 
Q 2544 2597 2384 2738 
Q 2169 2928 1744 2928 
Q 1347 2928 1158 2789 
Q 969 2650 878 2297 
L 328 2372 
Q 403 2725 575 2942 
Q 747 3159 1072 3276 
Q 1397 3394 1825 3394 
Q 2250 3394 2515 3294 
Q 2781 3194 2906 3042 
Q 3031 2891 3081 2659 
Q 3109 2516 3109 2141 
L 3109 1391 
Q 3109 606 3145 398 
Q 3181 191 3288 0 
L 2700 0 
Q 2613 175 2588 409 
z
M 2541 1666 
Q 2234 1541 1622 1453 
Q 1275 1403 1131 1340 
Q 988 1278 909 1158 
Q 831 1038 831 891 
Q 831 666 1001 516 
Q 1172 366 1500 366 
Q 1825 366 2078 508 
Q 2331 650 2450 897 
Q 2541 1088 2541 1459 
L 2541 1666 
z
" id="ArialMT-61" transform="scale(0.015625)"/>
        <path d="M 409 0 
L 409 4581 
L 972 4581 
L 972 0 
L 409 0 
z
" id="ArialMT-6c" transform="scale(0.015625)"/>
       </defs>
       <use xlink:href="#ArialMT-4f"/>
       <use x="77.783203" xlink:href="#ArialMT-72"/>
       <use x="111.083984" xlink:href="#ArialMT-69"/>
       <use x="133.300781" xlink:href="#ArialMT-67"/>
       <use x="188.916016" xlink:href="#ArialMT-69"/>
       <use x="211.132812" xlink:href="#ArialMT-6e"/>
       <use x="266.748047" xlink:href="#ArialMT-61"/>
       <use x="322.363281" xlink:href="#ArialMT-6c"/>
      </g>
     </g>
    </g>
    <g id="xtick_2">
     <g id="text_2">
      <!-- Mutated -->
      <g style="fill:#262626;" transform="translate(78.970312 207.419375)rotate(-90)scale(0.2 -0.2)">
       <defs>
        <path d="M 475 0 
L 475 4581 
L 1388 4581 
L 2472 1338 
Q 2622 884 2691 659 
Q 2769 909 2934 1394 
L 4031 4581 
L 4847 4581 
L 4847 0 
L 4263 0 
L 4263 3834 
L 2931 0 
L 2384 0 
L 1059 3900 
L 1059 0 
L 475 0 
z
" id="ArialMT-4d" transform="scale(0.015625)"/>
        <path d="M 2597 0 
L 2597 488 
Q 2209 -75 1544 -75 
Q 1250 -75 995 37 
Q 741 150 617 320 
Q 494 491 444 738 
Q 409 903 409 1263 
L 409 3319 
L 972 3319 
L 972 1478 
Q 972 1038 1006 884 
Q 1059 663 1231 536 
Q 1403 409 1656 409 
Q 1909 409 2131 539 
Q 2353 669 2445 892 
Q 2538 1116 2538 1541 
L 2538 3319 
L 3100 3319 
L 3100 0 
L 2597 0 
z
" id="ArialMT-75" transform="scale(0.015625)"/>
        <path d="M 1650 503 
L 1731 6 
Q 1494 -44 1306 -44 
Q 1000 -44 831 53 
Q 663 150 594 308 
Q 525 466 525 972 
L 525 2881 
L 113 2881 
L 113 3319 
L 525 3319 
L 525 4141 
L 1084 4478 
L 1084 3319 
L 1650 3319 
L 1650 2881 
L 1084 2881 
L 1084 941 
Q 1084 700 1114 631 
Q 1144 563 1211 522 
Q 1278 481 1403 481 
Q 1497 481 1650 503 
z
" id="ArialMT-74" transform="scale(0.015625)"/>
        <path d="M 2694 1069 
L 3275 997 
Q 3138 488 2766 206 
Q 2394 -75 1816 -75 
Q 1088 -75 661 373 
Q 234 822 234 1631 
Q 234 2469 665 2931 
Q 1097 3394 1784 3394 
Q 2450 3394 2872 2941 
Q 3294 2488 3294 1666 
Q 3294 1616 3291 1516 
L 816 1516 
Q 847 969 1125 678 
Q 1403 388 1819 388 
Q 2128 388 2347 550 
Q 2566 713 2694 1069 
z
M 847 1978 
L 2700 1978 
Q 2663 2397 2488 2606 
Q 2219 2931 1791 2931 
Q 1403 2931 1139 2672 
Q 875 2413 847 1978 
z
" id="ArialMT-65" transform="scale(0.015625)"/>
        <path d="M 2575 0 
L 2575 419 
Q 2259 -75 1647 -75 
Q 1250 -75 917 144 
Q 584 363 401 755 
Q 219 1147 219 1656 
Q 219 2153 384 2558 
Q 550 2963 881 3178 
Q 1213 3394 1622 3394 
Q 1922 3394 2156 3267 
Q 2391 3141 2538 2938 
L 2538 4581 
L 3097 4581 
L 3097 0 
L 2575 0 
z
M 797 1656 
Q 797 1019 1065 703 
Q 1334 388 1700 388 
Q 2069 388 2326 689 
Q 2584 991 2584 1609 
Q 2584 2291 2321 2609 
Q 2059 2928 1675 2928 
Q 1300 2928 1048 2622 
Q 797 2316 797 1656 
z
" id="ArialMT-64" transform="scale(0.015625)"/>
       </defs>
       <use xlink:href="#ArialMT-4d"/>
       <use x="83.300781" xlink:href="#ArialMT-75"/>
       <use x="138.916016" xlink:href="#ArialMT-74"/>
       <use x="166.699219" xlink:href="#ArialMT-61"/>
       <use x="222.314453" xlink:href="#ArialMT-74"/>
       <use x="250.097656" xlink:href="#ArialMT-65"/>
       <use x="305.712891" xlink:href="#ArialMT-64"/>
      </g>
     </g>
    </g>
    <g id="xtick_3">
     <g id="text_3">
      <!-- STORM -->
      <g style="fill:#262626;" transform="translate(116.170312 207.025625)rotate(-90)scale(0.2 -0.2)">
       <defs>
        <path d="M 288 1472 
L 859 1522 
Q 900 1178 1048 958 
Q 1197 738 1509 602 
Q 1822 466 2213 466 
Q 2559 466 2825 569 
Q 3091 672 3220 851 
Q 3350 1031 3350 1244 
Q 3350 1459 3225 1620 
Q 3100 1781 2813 1891 
Q 2628 1963 1997 2114 
Q 1366 2266 1113 2400 
Q 784 2572 623 2826 
Q 463 3081 463 3397 
Q 463 3744 659 4045 
Q 856 4347 1234 4503 
Q 1613 4659 2075 4659 
Q 2584 4659 2973 4495 
Q 3363 4331 3572 4012 
Q 3781 3694 3797 3291 
L 3216 3247 
Q 3169 3681 2898 3903 
Q 2628 4125 2100 4125 
Q 1550 4125 1298 3923 
Q 1047 3722 1047 3438 
Q 1047 3191 1225 3031 
Q 1400 2872 2139 2705 
Q 2878 2538 3153 2413 
Q 3553 2228 3743 1945 
Q 3934 1663 3934 1294 
Q 3934 928 3725 604 
Q 3516 281 3123 101 
Q 2731 -78 2241 -78 
Q 1619 -78 1198 103 
Q 778 284 539 648 
Q 300 1013 288 1472 
z
" id="ArialMT-53" transform="scale(0.015625)"/>
        <path d="M 1659 0 
L 1659 4041 
L 150 4041 
L 150 4581 
L 3781 4581 
L 3781 4041 
L 2266 4041 
L 2266 0 
L 1659 0 
z
" id="ArialMT-54" transform="scale(0.015625)"/>
        <path d="M 503 0 
L 503 4581 
L 2534 4581 
Q 3147 4581 3465 4457 
Q 3784 4334 3975 4021 
Q 4166 3709 4166 3331 
Q 4166 2844 3850 2509 
Q 3534 2175 2875 2084 
Q 3116 1969 3241 1856 
Q 3506 1613 3744 1247 
L 4541 0 
L 3778 0 
L 3172 953 
Q 2906 1366 2734 1584 
Q 2563 1803 2427 1890 
Q 2291 1978 2150 2013 
Q 2047 2034 1813 2034 
L 1109 2034 
L 1109 0 
L 503 0 
z
M 1109 2559 
L 2413 2559 
Q 2828 2559 3062 2645 
Q 3297 2731 3419 2920 
Q 3541 3109 3541 3331 
Q 3541 3656 3305 3865 
Q 3069 4075 2559 4075 
L 1109 4075 
L 1109 2559 
z
" id="ArialMT-52" transform="scale(0.015625)"/>
       </defs>
       <use xlink:href="#ArialMT-53"/>
       <use x="66.699219" xlink:href="#ArialMT-54"/>
       <use x="126.033203" xlink:href="#ArialMT-4f"/>
       <use x="203.816406" xlink:href="#ArialMT-52"/>
       <use x="276.033203" xlink:href="#ArialMT-4d"/>
      </g>
     </g>
    </g>
    <g id="text_4">
     <!-- Method -->
     <g style="fill:#262626;" transform="translate(40.448437 225.735)scale(0.2 -0.2)">
      <defs>
       <path d="M 422 0 
L 422 4581 
L 984 4581 
L 984 2938 
Q 1378 3394 1978 3394 
Q 2347 3394 2619 3248 
Q 2891 3103 3008 2847 
Q 3125 2591 3125 2103 
L 3125 0 
L 2563 0 
L 2563 2103 
Q 2563 2525 2380 2717 
Q 2197 2909 1863 2909 
Q 1613 2909 1392 2779 
Q 1172 2650 1078 2428 
Q 984 2206 984 1816 
L 984 0 
L 422 0 
z
" id="ArialMT-68" transform="scale(0.015625)"/>
       <path d="M 213 1659 
Q 213 2581 725 3025 
Q 1153 3394 1769 3394 
Q 2453 3394 2887 2945 
Q 3322 2497 3322 1706 
Q 3322 1066 3130 698 
Q 2938 331 2570 128 
Q 2203 -75 1769 -75 
Q 1072 -75 642 372 
Q 213 819 213 1659 
z
M 791 1659 
Q 791 1022 1069 705 
Q 1347 388 1769 388 
Q 2188 388 2466 706 
Q 2744 1025 2744 1678 
Q 2744 2294 2464 2611 
Q 2184 2928 1769 2928 
Q 1347 2928 1069 2612 
Q 791 2297 791 1659 
z
" id="ArialMT-6f" transform="scale(0.015625)"/>
      </defs>
      <use xlink:href="#ArialMT-4d"/>
      <use x="83.300781" xlink:href="#ArialMT-65"/>
      <use x="138.916016" xlink:href="#ArialMT-74"/>
      <use x="166.699219" xlink:href="#ArialMT-68"/>
      <use x="222.314453" xlink:href="#ArialMT-6f"/>
      <use x="277.929688" xlink:href="#ArialMT-64"/>
     </g>
    </g>
   </g>
   <g id="matplotlib.axis_2">
    <g id="ytick_1">
     <g id="text_5">
      <!-- 0 -->
      <g style="fill:#262626;" transform="translate(-0.121875 123.74161)scale(0.2 -0.2)">
       <defs>
        <path d="M 266 2259 
Q 266 3072 433 3567 
Q 600 4063 929 4331 
Q 1259 4600 1759 4600 
Q 2128 4600 2406 4451 
Q 2684 4303 2865 4023 
Q 3047 3744 3150 3342 
Q 3253 2941 3253 2259 
Q 3253 1453 3087 958 
Q 2922 463 2592 192 
Q 2263 -78 1759 -78 
Q 1097 -78 719 397 
Q 266 969 266 2259 
z
M 844 2259 
Q 844 1131 1108 757 
Q 1372 384 1759 384 
Q 2147 384 2411 759 
Q 2675 1134 2675 2259 
Q 2675 3391 2411 3762 
Q 2147 4134 1753 4134 
Q 1366 4134 1134 3806 
Q 844 3388 844 2259 
z
" id="ArialMT-30" transform="scale(0.015625)"/>
       </defs>
       <use xlink:href="#ArialMT-30"/>
      </g>
     </g>
    </g>
    <g id="ytick_2">
     <g id="text_6">
      <!-- 1 -->
      <g style="fill:#262626;" transform="translate(-0.121875 30.439218)scale(0.2 -0.2)">
       <defs>
        <path d="M 2384 0 
L 1822 0 
L 1822 3584 
Q 1619 3391 1289 3197 
Q 959 3003 697 2906 
L 697 3450 
Q 1169 3672 1522 3987 
Q 1875 4303 2022 4600 
L 2384 4600 
L 2384 0 
z
" id="ArialMT-31" transform="scale(0.015625)"/>
       </defs>
       <use xlink:href="#ArialMT-31"/>
      </g>
     </g>
    </g>
    <g id="text_7">
     <!-- Predictions -->
     <g style="fill:#262626;" transform="translate(-8.096875 122.185625)rotate(-90)scale(0.2 -0.2)">
      <defs>
       <path d="M 494 0 
L 494 4581 
L 2222 4581 
Q 2678 4581 2919 4538 
Q 3256 4481 3484 4323 
Q 3713 4166 3852 3881 
Q 3991 3597 3991 3256 
Q 3991 2672 3619 2267 
Q 3247 1863 2275 1863 
L 1100 1863 
L 1100 0 
L 494 0 
z
M 1100 2403 
L 2284 2403 
Q 2872 2403 3119 2622 
Q 3366 2841 3366 3238 
Q 3366 3525 3220 3729 
Q 3075 3934 2838 4000 
Q 2684 4041 2272 4041 
L 1100 4041 
L 1100 2403 
z
" id="ArialMT-50" transform="scale(0.015625)"/>
       <path d="M 2588 1216 
L 3141 1144 
Q 3050 572 2676 248 
Q 2303 -75 1759 -75 
Q 1078 -75 664 370 
Q 250 816 250 1647 
Q 250 2184 428 2587 
Q 606 2991 970 3192 
Q 1334 3394 1763 3394 
Q 2303 3394 2647 3120 
Q 2991 2847 3088 2344 
L 2541 2259 
Q 2463 2594 2264 2762 
Q 2066 2931 1784 2931 
Q 1359 2931 1093 2626 
Q 828 2322 828 1663 
Q 828 994 1084 691 
Q 1341 388 1753 388 
Q 2084 388 2306 591 
Q 2528 794 2588 1216 
z
" id="ArialMT-63" transform="scale(0.015625)"/>
       <path d="M 197 991 
L 753 1078 
Q 800 744 1014 566 
Q 1228 388 1613 388 
Q 2000 388 2187 545 
Q 2375 703 2375 916 
Q 2375 1106 2209 1216 
Q 2094 1291 1634 1406 
Q 1016 1563 777 1677 
Q 538 1791 414 1992 
Q 291 2194 291 2438 
Q 291 2659 392 2848 
Q 494 3038 669 3163 
Q 800 3259 1026 3326 
Q 1253 3394 1513 3394 
Q 1903 3394 2198 3281 
Q 2494 3169 2634 2976 
Q 2775 2784 2828 2463 
L 2278 2388 
Q 2241 2644 2061 2787 
Q 1881 2931 1553 2931 
Q 1166 2931 1000 2803 
Q 834 2675 834 2503 
Q 834 2394 903 2306 
Q 972 2216 1119 2156 
Q 1203 2125 1616 2013 
Q 2213 1853 2448 1751 
Q 2684 1650 2818 1456 
Q 2953 1263 2953 975 
Q 2953 694 2789 445 
Q 2625 197 2315 61 
Q 2006 -75 1616 -75 
Q 969 -75 630 194 
Q 291 463 197 991 
z
" id="ArialMT-73" transform="scale(0.015625)"/>
      </defs>
      <use xlink:href="#ArialMT-50"/>
      <use x="66.699219" xlink:href="#ArialMT-72"/>
      <use x="100" xlink:href="#ArialMT-65"/>
      <use x="155.615234" xlink:href="#ArialMT-64"/>
      <use x="211.230469" xlink:href="#ArialMT-69"/>
      <use x="233.447266" xlink:href="#ArialMT-63"/>
      <use x="283.447266" xlink:href="#ArialMT-74"/>
      <use x="311.230469" xlink:href="#ArialMT-69"/>
      <use x="333.447266" xlink:href="#ArialMT-6f"/>
      <use x="389.0625" xlink:href="#ArialMT-6e"/>
      <use x="444.677734" xlink:href="#ArialMT-73"/>
     </g>
    </g>
   </g>
   <g id="PolyCollection_1">
    <defs>
     <path d="M 36.886421 -20.88 
L 36.313579 -20.88 
L 36.124593 -21.765389 
L 35.866619 -22.650778 
L 35.548488 -23.536167 
L 35.198667 -24.421556 
L 34.864042 -25.306945 
L 34.600852 -26.192334 
L 34.459548 -27.077723 
L 34.469004 -27.963112 
L 34.626862 -28.848501 
L 34.900445 -29.73389 
L 35.23776 -30.619279 
L 35.583535 -31.504668 
L 35.893544 -32.390056 
L 36.14235 -33.275445 
L 36.323417 -34.160834 
L 36.443884 -35.046223 
L 36.517584 -35.931612 
L 36.559239 -36.817001 
L 36.581075 -37.70239 
L 36.591733 -38.587779 
L 36.596594 -39.473168 
L 36.598673 -40.358557 
L 36.59951 -41.243946 
L 36.599829 -42.129335 
L 36.599943 -43.014724 
L 36.599982 -43.900113 
L 36.599995 -44.785502 
L 36.599998 -45.670891 
L 36.599999 -46.55628 
L 36.599999 -47.441669 
L 36.599998 -48.327058 
L 36.599994 -49.212447 
L 36.599982 -50.097836 
L 36.599953 -50.983225 
L 36.599883 -51.868614 
L 36.599728 -52.754003 
L 36.599415 -53.639392 
L 36.598829 -54.524781 
L 36.597822 -55.410169 
L 36.596238 -56.295558 
L 36.59396 -57.180947 
L 36.59099 -58.066336 
L 36.58751 -58.951725 
L 36.583912 -59.837114 
L 36.580744 -60.722503 
L 36.578582 -61.607892 
L 36.577864 -62.493281 
L 36.578741 -63.37867 
L 36.581028 -64.264059 
L 36.584267 -65.149448 
L 36.587876 -66.034837 
L 36.591319 -66.920226 
L 36.594224 -67.805615 
L 36.596429 -68.691004 
L 36.597948 -69.576393 
L 36.598905 -70.461782 
L 36.599457 -71.347171 
L 36.599749 -72.23256 
L 36.599893 -73.117949 
L 36.599957 -74.003338 
L 36.599984 -74.888727 
L 36.599995 -75.774116 
L 36.599998 -76.659505 
L 36.599999 -77.544894 
L 36.6 -78.430282 
L 36.6 -79.315671 
L 36.6 -80.20106 
L 36.6 -81.086449 
L 36.6 -81.971838 
L 36.6 -82.857227 
L 36.6 -83.742616 
L 36.6 -84.628005 
L 36.6 -85.513394 
L 36.6 -86.398783 
L 36.599999 -87.284172 
L 36.599997 -88.169561 
L 36.599991 -89.05495 
L 36.599975 -89.940339 
L 36.599936 -90.825728 
L 36.599844 -91.711117 
L 36.599647 -92.596506 
L 36.599257 -93.481895 
L 36.59855 -94.367284 
L 36.597368 -95.252673 
L 36.595562 -96.138062 
L 36.593047 -97.023451 
L 36.589877 -97.90884 
L 36.586306 -98.794229 
L 36.582784 -99.679618 
L 36.579889 -100.565007 
L 36.57817 -101.450395 
L 36.577981 -102.335784 
L 36.579361 -103.221173 
L 36.582024 -104.106562 
L 36.585452 -104.991951 
L 36.589059 -105.87734 
L 36.592354 -106.762729 
L 36.595035 -107.648118 
L 36.597004 -108.533507 
L 36.602996 -108.533507 
L 36.602996 -108.533507 
L 36.604965 -107.648118 
L 36.607646 -106.762729 
L 36.610941 -105.87734 
L 36.614548 -104.991951 
L 36.617976 -104.106562 
L 36.620639 -103.221173 
L 36.622019 -102.335784 
L 36.62183 -101.450395 
L 36.620111 -100.565007 
L 36.617216 -99.679618 
L 36.613694 -98.794229 
L 36.610123 -97.90884 
L 36.606953 -97.023451 
L 36.604438 -96.138062 
L 36.602632 -95.252673 
L 36.60145 -94.367284 
L 36.600743 -93.481895 
L 36.600353 -92.596506 
L 36.600156 -91.711117 
L 36.600064 -90.825728 
L 36.600025 -89.940339 
L 36.600009 -89.05495 
L 36.600003 -88.169561 
L 36.600001 -87.284172 
L 36.6 -86.398783 
L 36.6 -85.513394 
L 36.6 -84.628005 
L 36.6 -83.742616 
L 36.6 -82.857227 
L 36.6 -81.971838 
L 36.6 -81.086449 
L 36.6 -80.20106 
L 36.6 -79.315671 
L 36.6 -78.430282 
L 36.600001 -77.544894 
L 36.600002 -76.659505 
L 36.600005 -75.774116 
L 36.600016 -74.888727 
L 36.600043 -74.003338 
L 36.600107 -73.117949 
L 36.600251 -72.23256 
L 36.600543 -71.347171 
L 36.601095 -70.461782 
L 36.602052 -69.576393 
L 36.603571 -68.691004 
L 36.605776 -67.805615 
L 36.608681 -66.920226 
L 36.612124 -66.034837 
L 36.615733 -65.149448 
L 36.618972 -64.264059 
L 36.621259 -63.37867 
L 36.622136 -62.493281 
L 36.621418 -61.607892 
L 36.619256 -60.722503 
L 36.616088 -59.837114 
L 36.61249 -58.951725 
L 36.60901 -58.066336 
L 36.60604 -57.180947 
L 36.603762 -56.295558 
L 36.602178 -55.410169 
L 36.601171 -54.524781 
L 36.600585 -53.639392 
L 36.600272 -52.754003 
L 36.600117 -51.868614 
L 36.600047 -50.983225 
L 36.600018 -50.097836 
L 36.600006 -49.212447 
L 36.600002 -48.327058 
L 36.600001 -47.441669 
L 36.600001 -46.55628 
L 36.600002 -45.670891 
L 36.600005 -44.785502 
L 36.600018 -43.900113 
L 36.600057 -43.014724 
L 36.600171 -42.129335 
L 36.60049 -41.243946 
L 36.601327 -40.358557 
L 36.603406 -39.473168 
L 36.608267 -38.587779 
L 36.618925 -37.70239 
L 36.640761 -36.817001 
L 36.682416 -35.931612 
L 36.756116 -35.046223 
L 36.876583 -34.160834 
L 37.05765 -33.275445 
L 37.306456 -32.390056 
L 37.616465 -31.504668 
L 37.96224 -30.619279 
L 38.299555 -29.73389 
L 38.573138 -28.848501 
L 38.730996 -27.963112 
L 38.740452 -27.077723 
L 38.599148 -26.192334 
L 38.335958 -25.306945 
L 38.001333 -24.421556 
L 37.651512 -23.536167 
L 37.333381 -22.650778 
L 37.075407 -21.765389 
L 36.886421 -20.88 
z
" id="m6c630d2836" style="stroke:#262626;stroke-width:0.75;"/>
    </defs>
    <g clip-path="url(#p5df5d3f528)">
     <use style="fill:#7f9dd2;stroke:#262626;stroke-width:0.75;" x="0" xlink:href="#m6c630d2836" y="144"/>
    </g>
   </g>
   <g id="PolyCollection_2">
    <defs>
     <path d="M 75.809526 -26.454797 
L 71.790474 -26.454797 
L 58.92 -27.416668 
L 71.765168 -28.378538 
L 73.783254 -29.340409 
L 73.792408 -30.30228 
L 73.793616 -31.26415 
L 73.794956 -32.226021 
L 73.79648 -33.187892 
L 73.796759 -34.149763 
L 73.797402 -35.111633 
L 73.797686 -36.073504 
L 73.797479 -37.035375 
L 73.798051 -37.997246 
L 73.798037 -38.959116 
L 73.798053 -39.920987 
L 73.798315 -40.882858 
L 73.798284 -41.844729 
L 73.7986 -42.806599 
L 73.798763 -43.76847 
L 73.798697 -44.730341 
L 73.798683 -45.692212 
L 73.798793 -46.654082 
L 73.798865 -47.615953 
L 73.79874 -48.577824 
L 73.798756 -49.539695 
L 73.799155 -50.501565 
L 73.799249 -51.463436 
L 73.799186 -52.425307 
L 73.799466 -53.387178 
L 73.799214 -54.349048 
L 73.798995 -55.310919 
L 73.798977 -56.27279 
L 73.799034 -57.23466 
L 73.799063 -58.196531 
L 73.799132 -59.158402 
L 73.799116 -60.120273 
L 73.79908 -61.082143 
L 73.799194 -62.044014 
L 73.799123 -63.005885 
L 73.799278 -63.967756 
L 73.799177 -64.929626 
L 73.799184 -65.891497 
L 73.799307 -66.853368 
L 73.799325 -67.815239 
L 73.799052 -68.777109 
L 73.79909 -69.73898 
L 73.799221 -70.700851 
L 73.799393 -71.662722 
L 73.799352 -72.624592 
L 73.79932 -73.586463 
L 73.799385 -74.548334 
L 73.799133 -75.510205 
L 73.799258 -76.472075 
L 73.799556 -77.433946 
L 73.799352 -78.395817 
L 73.799053 -79.357687 
L 73.798954 -80.319558 
L 73.799294 -81.281429 
L 73.79929 -82.2433 
L 73.799289 -83.20517 
L 73.799028 -84.167041 
L 73.799225 -85.128912 
L 73.799316 -86.090783 
L 73.799012 -87.052653 
L 73.799166 -88.014524 
L 73.799065 -88.976395 
L 73.79934 -89.938266 
L 73.799038 -90.900136 
L 73.799259 -91.862007 
L 73.799331 -92.823878 
L 73.799183 -93.785749 
L 73.799061 -94.747619 
L 73.798977 -95.70949 
L 73.799121 -96.671361 
L 73.798987 -97.633232 
L 73.799076 -98.595102 
L 73.798932 -99.556973 
L 73.798808 -100.518844 
L 73.79878 -101.480714 
L 73.798791 -102.442585 
L 73.798759 -103.404456 
L 73.798962 -104.366327 
L 73.799039 -105.328197 
L 73.799077 -106.290068 
L 73.798973 -107.251939 
L 73.798828 -108.21381 
L 73.7983 -109.17568 
L 73.798201 -110.137551 
L 73.798351 -111.099422 
L 73.798301 -112.061293 
L 73.79819 -113.023163 
L 73.797753 -113.985034 
L 73.79744 -114.946905 
L 73.797442 -115.908776 
L 73.796768 -116.870646 
L 73.796242 -117.832517 
L 73.794302 -118.794388 
L 73.785594 -119.756259 
L 73.773739 -120.718129 
L 73.79761 -121.68 
L 73.80239 -121.68 
L 73.80239 -121.68 
L 73.826261 -120.718129 
L 73.814406 -119.756259 
L 73.805698 -118.794388 
L 73.803758 -117.832517 
L 73.803232 -116.870646 
L 73.802558 -115.908776 
L 73.80256 -114.946905 
L 73.802247 -113.985034 
L 73.80181 -113.023163 
L 73.801699 -112.061293 
L 73.801649 -111.099422 
L 73.801799 -110.137551 
L 73.8017 -109.17568 
L 73.801172 -108.21381 
L 73.801027 -107.251939 
L 73.800923 -106.290068 
L 73.800961 -105.328197 
L 73.801038 -104.366327 
L 73.801241 -103.404456 
L 73.801209 -102.442585 
L 73.80122 -101.480714 
L 73.801192 -100.518844 
L 73.801068 -99.556973 
L 73.800924 -98.595102 
L 73.801013 -97.633232 
L 73.800879 -96.671361 
L 73.801023 -95.70949 
L 73.800939 -94.747619 
L 73.800817 -93.785749 
L 73.800669 -92.823878 
L 73.800741 -91.862007 
L 73.800962 -90.900136 
L 73.80066 -89.938266 
L 73.800935 -88.976395 
L 73.800834 -88.014524 
L 73.800988 -87.052653 
L 73.800684 -86.090783 
L 73.800775 -85.128912 
L 73.800972 -84.167041 
L 73.800711 -83.20517 
L 73.80071 -82.2433 
L 73.800706 -81.281429 
L 73.801046 -80.319558 
L 73.800947 -79.357687 
L 73.800648 -78.395817 
L 73.800444 -77.433946 
L 73.800742 -76.472075 
L 73.800867 -75.510205 
L 73.800615 -74.548334 
L 73.80068 -73.586463 
L 73.800648 -72.624592 
L 73.800607 -71.662722 
L 73.800779 -70.700851 
L 73.80091 -69.73898 
L 73.800948 -68.777109 
L 73.800675 -67.815239 
L 73.800693 -66.853368 
L 73.800816 -65.891497 
L 73.800823 -64.929626 
L 73.800722 -63.967756 
L 73.800877 -63.005885 
L 73.800806 -62.044014 
L 73.80092 -61.082143 
L 73.800884 -60.120273 
L 73.800868 -59.158402 
L 73.800937 -58.196531 
L 73.800966 -57.23466 
L 73.801023 -56.27279 
L 73.801005 -55.310919 
L 73.800786 -54.349048 
L 73.800534 -53.387178 
L 73.800814 -52.425307 
L 73.800751 -51.463436 
L 73.800845 -50.501565 
L 73.801244 -49.539695 
L 73.80126 -48.577824 
L 73.801135 -47.615953 
L 73.801207 -46.654082 
L 73.801317 -45.692212 
L 73.801303 -44.730341 
L 73.801237 -43.76847 
L 73.8014 -42.806599 
L 73.801716 -41.844729 
L 73.801685 -40.882858 
L 73.801947 -39.920987 
L 73.801963 -38.959116 
L 73.801949 -37.997246 
L 73.802521 -37.035375 
L 73.802314 -36.073504 
L 73.802598 -35.111633 
L 73.803241 -34.149763 
L 73.80352 -33.187892 
L 73.805044 -32.226021 
L 73.806384 -31.26415 
L 73.807592 -30.30228 
L 73.816746 -29.340409 
L 75.834832 -28.378538 
L 88.68 -27.416668 
L 75.809526 -26.454797 
z
" id="m08705069f9" style="stroke:#262626;stroke-width:0.75;"/>
    </defs>
    <g clip-path="url(#p5df5d3f528)">
     <use style="fill:#1a1a66;stroke:#262626;stroke-width:0.75;" x="0" xlink:href="#m08705069f9" y="144"/>
    </g>
   </g>
   <g id="line2d_1">
    <path clip-path="url(#p5df5d3f528)" d="M 36.6 116.583798 
L 36.6 116.583761 
" style="fill:none;stroke:#262626;stroke-linecap:round;stroke-width:0.75;"/>
   </g>
   <g id="line2d_2">
    <path clip-path="url(#p5df5d3f528)" d="M 36.6 116.583798 
L 36.6 116.583772 
" style="fill:none;stroke:#262626;stroke-linecap:round;stroke-width:2.25;"/>
   </g>
   <g id="line2d_3">
    <path clip-path="url(#p5df5d3f528)" d="M 73.8 116.583798 
L 73.8 116.583798 
" style="fill:none;stroke:#262626;stroke-linecap:round;stroke-width:0.75;"/>
   </g>
   <g id="line2d_4">
    <path clip-path="url(#p5df5d3f528)" d="M 73.8 116.583798 
L 73.8 116.583798 
" style="fill:none;stroke:#262626;stroke-linecap:round;stroke-width:2.25;"/>
   </g>
   <g id="line2d_5">
    <path clip-path="url(#p5df5d3f528)" d="M 96.12 44.149651 
L 125.88 44.149651 
" style="fill:none;stroke:#262626;stroke-linecap:round;stroke-width:0.75;"/>
   </g>
   <g id="patch_3">
    <path d="M 18 128.16 
L 18 17.28 
" style="fill:none;stroke:#262626;stroke-linecap:square;stroke-linejoin:miter;stroke-width:0.8;"/>
   </g>
   <g id="patch_4">
    <path d="M 18 128.16 
L 129.6 128.16 
" style="fill:none;stroke:#262626;stroke-linecap:square;stroke-linejoin:miter;stroke-width:0.8;"/>
   </g>
   <g id="PathCollection_1">
    <defs>
     <path d="M 0 0.75 
C 0.198902 0.75 0.389685 0.670975 0.53033 0.53033 
C 0.670975 0.389685 0.75 0.198902 0.75 0 
C 0.75 -0.198902 0.670975 -0.389685 0.53033 -0.53033 
C 0.389685 -0.670975 0.198902 -0.75 0 -0.75 
C -0.198902 -0.75 -0.389685 -0.670975 -0.53033 -0.53033 
C -0.670975 -0.389685 -0.75 -0.198902 -0.75 0 
C -0.75 0.198902 -0.670975 0.389685 -0.53033 0.53033 
C -0.389685 0.670975 -0.198902 0.75 0 0.75 
z
" id="m49f698d96b" style="stroke:#262626;"/>
    </defs>
    <g clip-path="url(#p5df5d3f528)">
     <use style="fill:#ffffff;stroke:#262626;" x="36.6" xlink:href="#m49f698d96b" y="116.583798"/>
    </g>
   </g>
   <g id="PathCollection_2">
    <g clip-path="url(#p5df5d3f528)">
     <use style="fill:#ffffff;stroke:#262626;" x="73.8" xlink:href="#m49f698d96b" y="116.583798"/>
    </g>
   </g>
   <g id="text_8">
    <!-- Bottom 10% -->
    <g style="fill:#262626;" transform="translate(8.435625 11.28)scale(0.24 -0.24)">
     <defs>
      <path d="M 469 0 
L 469 4581 
L 2188 4581 
Q 2713 4581 3030 4442 
Q 3347 4303 3526 4014 
Q 3706 3725 3706 3409 
Q 3706 3116 3547 2856 
Q 3388 2597 3066 2438 
Q 3481 2316 3704 2022 
Q 3928 1728 3928 1328 
Q 3928 1006 3792 729 
Q 3656 453 3456 303 
Q 3256 153 2954 76 
Q 2653 0 2216 0 
L 469 0 
z
M 1075 2656 
L 2066 2656 
Q 2469 2656 2644 2709 
Q 2875 2778 2992 2937 
Q 3109 3097 3109 3338 
Q 3109 3566 3000 3739 
Q 2891 3913 2687 3977 
Q 2484 4041 1991 4041 
L 1075 4041 
L 1075 2656 
z
M 1075 541 
L 2216 541 
Q 2509 541 2628 563 
Q 2838 600 2978 687 
Q 3119 775 3209 942 
Q 3300 1109 3300 1328 
Q 3300 1584 3169 1773 
Q 3038 1963 2805 2039 
Q 2572 2116 2134 2116 
L 1075 2116 
L 1075 541 
z
" id="ArialMT-42" transform="scale(0.015625)"/>
      <path d="M 422 0 
L 422 3319 
L 925 3319 
L 925 2853 
Q 1081 3097 1340 3245 
Q 1600 3394 1931 3394 
Q 2300 3394 2536 3241 
Q 2772 3088 2869 2813 
Q 3263 3394 3894 3394 
Q 4388 3394 4653 3120 
Q 4919 2847 4919 2278 
L 4919 0 
L 4359 0 
L 4359 2091 
Q 4359 2428 4304 2576 
Q 4250 2725 4106 2815 
Q 3963 2906 3769 2906 
Q 3419 2906 3187 2673 
Q 2956 2441 2956 1928 
L 2956 0 
L 2394 0 
L 2394 2156 
Q 2394 2531 2256 2718 
Q 2119 2906 1806 2906 
Q 1569 2906 1367 2781 
Q 1166 2656 1075 2415 
Q 984 2175 984 1722 
L 984 0 
L 422 0 
z
" id="ArialMT-6d" transform="scale(0.015625)"/>
      <path id="ArialMT-20" transform="scale(0.015625)"/>
      <path d="M 372 3481 
Q 372 3972 619 4315 
Q 866 4659 1334 4659 
Q 1766 4659 2048 4351 
Q 2331 4044 2331 3447 
Q 2331 2866 2045 2552 
Q 1759 2238 1341 2238 
Q 925 2238 648 2547 
Q 372 2856 372 3481 
z
M 1350 4272 
Q 1141 4272 1002 4090 
Q 863 3909 863 3425 
Q 863 2984 1003 2804 
Q 1144 2625 1350 2625 
Q 1563 2625 1702 2806 
Q 1841 2988 1841 3469 
Q 1841 3913 1700 4092 
Q 1559 4272 1350 4272 
z
M 1353 -169 
L 3859 4659 
L 4316 4659 
L 1819 -169 
L 1353 -169 
z
M 3334 1075 
Q 3334 1569 3581 1911 
Q 3828 2253 4300 2253 
Q 4731 2253 5014 1945 
Q 5297 1638 5297 1041 
Q 5297 459 5011 145 
Q 4725 -169 4303 -169 
Q 3888 -169 3611 142 
Q 3334 453 3334 1075 
z
M 4316 1866 
Q 4103 1866 3964 1684 
Q 3825 1503 3825 1019 
Q 3825 581 3965 400 
Q 4106 219 4313 219 
Q 4528 219 4667 400 
Q 4806 581 4806 1063 
Q 4806 1506 4665 1686 
Q 4525 1866 4316 1866 
z
" id="ArialMT-25" transform="scale(0.015625)"/>
     </defs>
     <use xlink:href="#ArialMT-42"/>
     <use x="66.699219" xlink:href="#ArialMT-6f"/>
     <use x="122.314453" xlink:href="#ArialMT-74"/>
     <use x="150.097656" xlink:href="#ArialMT-74"/>
     <use x="177.880859" xlink:href="#ArialMT-6f"/>
     <use x="233.496094" xlink:href="#ArialMT-6d"/>
     <use x="316.796875" xlink:href="#ArialMT-20"/>
     <use x="344.580078" xlink:href="#ArialMT-31"/>
     <use x="400.195312" xlink:href="#ArialMT-30"/>
     <use x="455.810547" xlink:href="#ArialMT-25"/>
    </g>
   </g>
  </g>
 </g>
 <defs>
  <clipPath id="p5df5d3f528">
   <rect height="110.88" width="111.6" x="18" y="17.28"/>
  </clipPath>
 </defs>
</svg>
