<?xml version="1.0" encoding="utf-8" standalone="no"?>
<!DOCTYPE svg PUBLIC "-//W3C//DTD SVG 1.1//EN"
  "http://www.w3.org/Graphics/SVG/1.1/DTD/svg11.dtd">
<svg height="216pt" version="1.1" viewBox="0 0 306 216" width="306pt" xmlns="http://www.w3.org/2000/svg" xmlns:xlink="http://www.w3.org/1999/xlink">
 <metadata>
  <rdf:RDF xmlns:cc="http://creativecommons.org/ns#" xmlns:dc="http://purl.org/dc/elements/1.1/" xmlns:rdf="http://www.w3.org/1999/02/22-rdf-syntax-ns#">
   <cc:Work>
    <dc:type rdf:resource="http://purl.org/dc/dcmitype/StillImage"/>
    <dc:date>2022-12-28T14:06:02.095069</dc:date>
    <dc:format>image/svg+xml</dc:format>
    <dc:creator>
     <cc:Agent>
      <dc:title>Matplotlib v3.4.2, https://matplotlib.org/</dc:title>
     </cc:Agent>
    </dc:creator>
   </cc:Work>
  </rdf:RDF>
 </metadata>
 <defs>
  <style type="text/css">*{stroke-linecap:butt;stroke-linejoin:round;}</style>
 </defs>
 <g id="figure_1">
  <g id="patch_1">
   <path d="M 0 216 
L 306 216 
L 306 0 
L 0 0 
z
" style="fill:#ffffff;"/>
  </g>
  <g id="axes_1">
   <g id="patch_2">
    <path d="M 94.94 141.64 
L 284.4 141.64 
L 284.4 28.8 
L 94.94 28.8 
z
" style="fill:#ffffff;"/>
   </g>
   <g id="line2d_1">
    <path clip-path="url(#pf7e1edba91)" d="M 94.94 141.64 
L 284.4 141.64 
" style="fill:none;stroke:#000000;stroke-linecap:round;stroke-width:0.5;"/>
   </g>
   <g id="patch_3">
    <path clip-path="url(#pf7e1edba91)" d="M 100.416455 118.346681 
Q 102.054581 118.346681 103.249628 119.55209 
Q 104.981434 121.283057 105.368811 125.622528 
L 103.811705 125.622528 
Q 103.525603 123.197246 102.63185 122.08827 
Q 101.738096 120.979294 100.375945 120.979294 
Q 98.763138 120.979294 97.659238 123.288857 
Q 96.555339 125.593598 96.555339 130.159687 
Q 96.555339 134.103784 97.464284 136.582105 
Q 98.37576 139.060425 100.431646 139.060425 
Q 102.006475 139.060425 103.039482 137.324637 
Q 104.072489 135.584026 104.095276 131.692967 
L 100.456965 131.692967 
L 100.456965 129.209825 
L 105.558702 129.209825 
L 105.558702 141.051761 
L 104.54595 141.051761 
L 104.166168 138.202174 
Q 103.368626 139.875282 102.750848 140.526202 
Q 101.712777 141.64 100.115161 141.64 
Q 98.05168 141.64 96.562935 139.094177 
Q 94.94 135.897433 94.94 130.323622 
Q 94.94 124.764277 96.522425 121.480744 
Q 98.026361 118.346681 100.416455 118.346681 
z
M 100.155671 118.312929 
L 100.155671 118.312929 
z
" style="fill:#ffa600;"/>
   </g>
   <g id="patch_4">
    <path clip-path="url(#pf7e1edba91)" d="M 100.523163 94.792921 
Q 102.797109 94.792921 104.051431 97.030605 
Q 105.305752 99.263425 105.443962 102.104311 
L 103.863673 102.104311 
Q 103.595077 99.949324 102.791894 98.68941 
Q 101.988711 97.424632 100.53881 97.424632 
Q 98.770765 97.424632 97.683339 99.745014 
Q 96.595913 102.060531 96.595913 106.847229 
Q 96.595913 110.772906 97.576421 113.214901 
Q 98.559538 115.652031 100.507517 115.652031 
Q 102.299032 115.652031 103.237817 113.083558 
Q 103.733287 111.731219 103.978414 109.522721 
L 105.558702 109.522721 
Q 105.347475 113.049507 104.158348 115.437991 
Q 102.731916 118.312929 100.311937 118.312929 
Q 98.225748 118.312929 96.807139 115.953632 
Q 94.94 112.840332 94.94 106.331589 
Q 94.94 101.39409 96.342962 98.232144 
Q 97.858057 94.792921 100.523163 94.792921 
z
M 100.197196 94.792921 
L 100.197196 94.792921 
z
" style="fill:#0000ff;"/>
   </g>
   <g id="patch_5">
    <path clip-path="url(#pf7e1edba91)" d="M 105.558702 68.302488 
L 105.558702 71.458721 
L 101.148734 71.458721 
L 101.148734 94.792921 
L 99.349968 94.792921 
L 99.349968 71.458721 
L 94.94 71.458721 
L 94.94 68.302488 
L 105.558702 68.302488 
z
" style="fill:#ff0000;"/>
   </g>
   <g id="patch_6">
    <path clip-path="url(#pf7e1edba91)" d="M 102.067515 52.11774 
L 100.261014 34.668154 
L 98.340473 52.11774 
L 102.067515 52.11774 
z
M 99.418672 28.8 
L 101.240724 28.8 
L 105.558702 68.302488 
L 103.791078 68.302488 
L 102.58588 56.471531 
L 97.879128 56.471531 
L 96.590992 68.302488 
L 94.94 68.302488 
L 99.418672 28.8 
z
M 100.253239 28.8 
L 100.253239 28.8 
z
" style="fill:#008000;"/>
   </g>
   <g id="patch_7">
    <path clip-path="url(#pf7e1edba91)" d="M 111.594036 117.947067 
Q 113.232162 117.947067 114.427209 119.173156 
Q 116.159015 120.933819 116.546392 125.347737 
L 114.989286 125.347737 
Q 114.703184 122.880847 113.809431 121.752846 
Q 112.915677 120.624844 111.553526 120.624844 
Q 109.940719 120.624844 108.83682 122.97403 
Q 107.73292 125.318311 107.73292 129.962734 
Q 107.73292 133.974495 108.641865 136.495333 
Q 109.553341 139.016171 111.609227 139.016171 
Q 113.184056 139.016171 114.217063 137.250603 
Q 115.25007 135.480132 115.272857 131.522318 
L 111.634546 131.522318 
L 111.634546 128.996576 
L 116.736283 128.996576 
L 116.736283 141.041669 
L 115.723531 141.041669 
L 115.34375 138.143196 
Q 114.546208 139.845007 113.928429 140.507094 
Q 112.890358 141.64 111.292743 141.64 
Q 109.229261 141.64 107.740516 139.050501 
Q 106.117581 135.798915 106.117581 130.129482 
Q 106.117581 124.474762 107.700006 121.134897 
Q 109.203942 117.947067 111.594036 117.947067 
z
M 111.333253 117.912737 
L 111.333253 117.912737 
z
" style="fill:#ffa600;"/>
   </g>
   <g id="patch_8">
    <path clip-path="url(#pf7e1edba91)" d="M 116.736283 93.070797 
L 116.736283 96.030619 
L 112.326315 96.030619 
L 112.326315 117.912737 
L 110.527549 117.912737 
L 110.527549 96.030619 
L 106.117581 96.030619 
L 106.117581 93.070797 
L 116.736283 93.070797 
z
" style="fill:#ff0000;"/>
   </g>
   <g id="patch_9">
    <path clip-path="url(#pf7e1edba91)" d="M 111.700744 65.677033 
Q 113.97469 65.677033 115.229012 68.283265 
Q 116.483333 70.883832 116.621543 74.192613 
L 115.041255 74.192613 
Q 114.772658 71.682698 113.969475 70.215276 
Q 113.166292 68.742189 111.716391 68.742189 
Q 109.948346 68.742189 108.86092 71.444738 
Q 107.773494 74.141622 107.773494 79.716692 
Q 107.773494 84.288929 108.754002 87.133121 
Q 109.737119 89.971648 111.685098 89.971648 
Q 113.476613 89.971648 114.415398 86.980147 
Q 114.910868 85.405076 115.155995 82.832838 
L 116.736283 82.832838 
Q 116.525057 86.940487 115.335929 89.722356 
Q 113.909497 93.070797 111.489518 93.070797 
Q 109.403329 93.070797 107.98472 90.322922 
Q 106.117581 86.696861 106.117581 79.116125 
Q 106.117581 73.365418 107.520543 69.682699 
Q 109.035638 65.677033 111.700744 65.677033 
z
M 111.374777 65.677033 
L 111.374777 65.677033 
z
" style="fill:#0000ff;"/>
   </g>
   <g id="patch_10">
    <path clip-path="url(#pf7e1edba91)" d="M 113.245097 50.567972 
L 111.438595 34.278139 
L 109.518054 50.567972 
L 113.245097 50.567972 
z
M 110.596253 28.8 
L 112.418305 28.8 
L 116.736283 65.677033 
L 114.968659 65.677033 
L 113.763461 54.632398 
L 109.056709 54.632398 
L 107.768573 65.677033 
L 106.117581 65.677033 
L 110.596253 28.8 
z
M 111.43082 28.8 
L 111.43082 28.8 
z
" style="fill:#008000;"/>
   </g>
   <g id="patch_11">
    <path clip-path="url(#pf7e1edba91)" d="M 122.771617 117.175752 
Q 124.409743 117.175752 125.60479 118.441755 
Q 127.336596 120.259736 127.723973 124.817348 
L 126.166868 124.817348 
Q 125.880765 122.270149 124.987012 121.105426 
Q 124.093258 119.940703 122.731107 119.940703 
Q 121.1183 119.940703 120.014401 122.366365 
Q 118.910501 124.786964 118.910501 129.582584 
Q 118.910501 133.724947 119.819446 136.32785 
Q 120.730923 138.930753 122.786809 138.930753 
Q 124.361638 138.930753 125.394644 137.107708 
Q 126.427651 135.279599 126.450438 131.192941 
L 122.812127 131.192941 
L 122.812127 128.584974 
L 127.913864 128.584974 
L 127.913864 141.02219 
L 126.901113 141.02219 
L 126.521331 138.029359 
Q 125.723789 139.786571 125.10601 140.470213 
Q 124.06794 141.64 122.470324 141.64 
Q 120.406842 141.64 118.918097 138.966201 
Q 117.295162 135.60876 117.295162 129.754761 
Q 117.295162 123.915953 118.877587 120.46736 
Q 120.381523 117.175752 122.771617 117.175752 
z
M 122.510834 117.140304 
L 122.510834 117.140304 
z
" style="fill:#ffa600;"/>
   </g>
   <g id="patch_12">
    <path clip-path="url(#pf7e1edba91)" d="M 127.913864 92.002481 
L 127.913864 94.997556 
L 123.503896 94.997556 
L 123.503896 117.140304 
L 121.705131 117.140304 
L 121.705131 94.997556 
L 117.295162 94.997556 
L 117.295162 92.002481 
L 127.913864 92.002481 
z
" style="fill:#ff0000;"/>
   </g>
   <g id="patch_13">
    <path clip-path="url(#pf7e1edba91)" d="M 122.878326 65.854973 
Q 125.152272 65.854973 126.406593 68.342636 
Q 127.660914 70.824892 127.799124 73.983143 
L 126.218836 73.983143 
Q 125.950239 71.587415 125.147056 70.186752 
Q 124.343873 68.780681 122.893972 68.780681 
Q 121.125927 68.780681 120.038501 71.36028 
Q 118.951075 73.934472 118.951075 79.255909 
Q 118.951075 83.620136 119.931584 86.334934 
Q 120.9147 89.044324 122.862679 89.044324 
Q 124.654194 89.044324 125.592979 86.188919 
Q 126.088449 84.685505 126.333576 82.230289 
L 127.913864 82.230289 
Q 127.702638 86.151063 126.51351 88.806374 
Q 125.087078 92.002481 122.667099 92.002481 
Q 120.58091 92.002481 119.162301 89.379618 
Q 117.295162 85.918521 117.295162 78.682664 
Q 117.295162 73.19358 118.698124 69.678403 
Q 120.213219 65.854973 122.878326 65.854973 
z
M 122.552359 65.854973 
L 122.552359 65.854973 
z
" style="fill:#0000ff;"/>
   </g>
   <g id="patch_14">
    <path clip-path="url(#pf7e1edba91)" d="M 124.422678 50.673007 
L 122.616176 34.304572 
L 120.695635 50.673007 
L 124.422678 50.673007 
z
M 121.773834 28.8 
L 123.595886 28.8 
L 127.913864 65.854973 
L 126.14624 65.854973 
L 124.941042 54.757045 
L 120.23429 54.757045 
L 118.946154 65.854973 
L 117.295162 65.854973 
L 121.773834 28.8 
z
M 122.608401 28.8 
L 122.608401 28.8 
z
" style="fill:#008000;"/>
   </g>
   <g id="patch_15">
    <path clip-path="url(#pf7e1edba91)" d="M 134.055907 117.843879 
Q 136.329853 117.843879 137.584174 120.107833 
Q 138.838495 122.366865 138.976705 125.241101 
L 137.396417 125.241101 
Q 137.12782 123.060816 136.324637 121.786111 
Q 135.521454 120.506485 134.071553 120.506485 
Q 132.303508 120.506485 131.216082 122.854107 
Q 130.128656 125.196807 130.128656 130.039699 
Q 130.128656 134.011461 131.109165 136.482123 
Q 132.092281 138.947864 134.04026 138.947864 
Q 135.831775 138.947864 136.77056 136.349239 
Q 137.26603 134.981023 137.511157 132.7466 
L 139.091445 132.7466 
Q 138.880219 136.314787 137.691091 138.731312 
Q 136.264659 141.64 133.84468 141.64 
Q 131.758491 141.64 130.339883 139.253005 
Q 128.472743 136.103157 128.472743 129.518005 
Q 128.472743 124.522542 129.875705 121.323477 
Q 131.3908 117.843879 134.055907 117.843879 
z
M 133.72994 117.843879 
L 133.72994 117.843879 
z
" style="fill:#0000ff;"/>
   </g>
   <g id="patch_16">
    <path clip-path="url(#pf7e1edba91)" d="M 133.949198 93.157699 
Q 135.587324 93.157699 136.782371 94.435187 
Q 138.514177 96.26966 138.901554 100.868617 
L 137.344449 100.868617 
Q 137.058346 98.298311 136.164593 97.123022 
Q 135.270839 95.947733 133.908688 95.947733 
Q 132.295881 95.947733 131.191982 98.3954 
Q 130.088082 100.837957 130.088082 105.677082 
Q 130.088082 109.857023 130.997027 112.483539 
Q 131.908504 115.110055 133.96439 115.110055 
Q 135.539219 115.110055 136.572225 113.270472 
Q 137.605232 111.425779 137.628019 107.302047 
L 133.989709 107.302047 
L 133.989709 104.670422 
L 139.091445 104.670422 
L 139.091445 117.220465 
L 138.078694 117.220465 
L 137.698912 114.200483 
Q 136.90137 115.973637 136.283591 116.66348 
Q 135.245521 117.843879 133.647905 117.843879 
Q 131.584423 117.843879 130.095678 115.145824 
Q 128.472743 111.757926 128.472743 105.850821 
Q 128.472743 99.959046 130.055168 96.479168 
Q 131.559104 93.157699 133.949198 93.157699 
z
M 133.688415 93.121929 
L 133.688415 93.121929 
z
" style="fill:#ffa600;"/>
   </g>
   <g id="patch_17">
    <path clip-path="url(#pf7e1edba91)" d="M 139.091445 68.33044 
L 139.091445 71.284251 
L 134.681477 71.284251 
L 134.681477 93.121929 
L 132.882712 93.121929 
L 132.882712 71.284251 
L 128.472743 71.284251 
L 128.472743 68.33044 
L 139.091445 68.33044 
z
" style="fill:#ff0000;"/>
   </g>
   <g id="patch_18">
    <path clip-path="url(#pf7e1edba91)" d="M 135.600259 52.134239 
L 133.793758 34.672307 
L 131.873216 52.134239 
L 135.600259 52.134239 
z
M 132.951415 28.8 
L 134.773467 28.8 
L 139.091445 68.33044 
L 137.323822 68.33044 
L 136.118624 56.491112 
L 131.411872 56.491112 
L 130.123735 68.33044 
L 128.472743 68.33044 
L 132.951415 28.8 
z
M 133.785982 28.8 
L 133.785982 28.8 
z
" style="fill:#008000;"/>
   </g>
   <g id="patch_19">
    <path clip-path="url(#pf7e1edba91)" d="M 150.269027 118.203848 
L 150.269027 120.996175 
L 145.859058 120.996175 
L 145.859058 141.64 
L 144.060293 141.64 
L 144.060293 120.996175 
L 139.650324 120.996175 
L 139.650324 118.203848 
L 150.269027 118.203848 
z
" style="fill:#ff0000;"/>
   </g>
   <g id="patch_20">
    <path clip-path="url(#pf7e1edba91)" d="M 145.12678 91.765359 
Q 146.764906 91.765359 147.959953 93.133527 
Q 149.691758 95.098217 150.079136 100.023624 
L 148.52203 100.023624 
Q 148.235927 97.270869 147.342174 96.012154 
Q 146.448421 94.753439 145.086269 94.753439 
Q 143.473462 94.753439 142.369563 97.37485 
Q 141.265664 99.990788 141.265664 105.173411 
Q 141.265664 109.650058 142.174608 112.463013 
Q 143.086085 115.275967 145.141971 115.275967 
Q 146.7168 115.275967 147.749807 113.305804 
Q 148.782813 111.330169 148.8056 106.913721 
L 145.16729 106.913721 
L 145.16729 104.095294 
L 150.269027 104.095294 
L 150.269027 117.536182 
L 149.256275 117.536182 
L 148.876493 114.301831 
Q 148.078951 116.200849 147.461172 116.93966 
Q 146.423102 118.203848 144.825486 118.203848 
Q 142.762004 118.203848 141.273259 115.314276 
Q 139.650324 111.685893 139.650324 105.359482 
Q 139.650324 99.049488 141.232749 95.322597 
Q 142.736685 91.765359 145.12678 91.765359 
z
M 144.865996 91.72705 
L 144.865996 91.72705 
z
" style="fill:#ffa600;"/>
   </g>
   <g id="patch_21">
    <path clip-path="url(#pf7e1edba91)" d="M 145.233488 65.139807 
Q 147.507434 65.139807 148.761755 67.669307 
Q 150.016076 70.193308 150.154286 73.404673 
L 148.573998 73.404673 
Q 148.305401 70.968655 147.502218 69.544436 
Q 146.699036 68.114719 145.249134 68.114719 
Q 143.481089 68.114719 142.393663 70.7377 
Q 141.306237 73.355183 141.306237 78.766113 
Q 141.306237 83.203735 142.286746 85.96419 
Q 143.269862 88.719145 145.217841 88.719145 
Q 147.009356 88.719145 147.948141 85.815719 
Q 148.443611 84.287021 148.688738 81.790515 
L 150.269027 81.790515 
Q 150.0578 85.777227 148.868672 88.477193 
Q 147.44224 91.72705 145.022261 91.72705 
Q 142.936072 91.72705 141.517464 89.060077 
Q 139.650324 85.540773 139.650324 78.183228 
Q 139.650324 72.601832 141.053287 69.027539 
Q 142.568381 65.139807 145.233488 65.139807 
z
M 144.907521 65.139807 
L 144.907521 65.139807 
z
" style="fill:#0000ff;"/>
   </g>
   <g id="patch_22">
    <path clip-path="url(#pf7e1edba91)" d="M 146.77784 50.250856 
L 144.971339 34.198333 
L 143.050797 50.250856 
L 146.77784 50.250856 
z
M 144.128996 28.8 
L 145.951048 28.8 
L 150.269027 65.139807 
L 148.501403 65.139807 
L 147.296205 54.256071 
L 142.589453 54.256071 
L 141.301316 65.139807 
L 139.650324 65.139807 
L 144.128996 28.8 
z
M 144.963563 28.8 
L 144.963563 28.8 
z
" style="fill:#008000;"/>
   </g>
   <g id="patch_23">
    <path clip-path="url(#pf7e1edba91)" d="M 156.304361 118.855899 
Q 157.942487 118.855899 159.137534 120.034956 
Q 160.869339 121.728082 161.256717 125.972688 
L 159.699611 125.972688 
Q 159.413509 123.600425 158.519755 122.515692 
Q 157.626002 121.43096 156.263851 121.43096 
Q 154.651043 121.43096 153.547144 123.690033 
Q 152.443245 125.944391 152.443245 130.410659 
Q 152.443245 134.268534 153.352189 136.692676 
Q 154.263666 139.116818 156.319552 139.116818 
Q 157.894381 139.116818 158.927388 137.418975 
Q 159.960394 135.716417 159.983181 131.91042 
L 156.344871 131.91042 
L 156.344871 129.481562 
L 161.446608 129.481562 
L 161.446608 141.06462 
L 160.433856 141.06462 
L 160.054074 138.277329 
Q 159.256532 139.91386 158.638753 140.550551 
Q 157.600683 141.64 156.003067 141.64 
Q 153.939585 141.64 152.45084 139.149831 
Q 150.827906 136.022972 150.827906 130.571011 
Q 150.827906 125.133199 152.41033 121.921448 
Q 153.914267 118.855899 156.304361 118.855899 
z
M 156.043577 118.822885 
L 156.043577 118.822885 
z
" style="fill:#ffa600;"/>
   </g>
   <g id="patch_24">
    <path clip-path="url(#pf7e1edba91)" d="M 156.411069 94.95927 
Q 158.685015 94.95927 159.939336 97.229645 
Q 161.193657 99.495084 161.331867 102.377474 
L 159.751579 102.377474 
Q 159.482982 100.191004 158.679799 98.912684 
Q 157.876617 97.629429 156.426715 97.629429 
Q 154.65867 97.629429 153.571244 99.983709 
Q 152.483818 102.333053 152.483818 107.189681 
Q 152.483818 111.172709 153.464327 113.650379 
Q 154.447444 116.123113 156.395423 116.123113 
Q 158.186937 116.123113 159.125722 113.517118 
Q 159.621192 112.145021 159.866319 109.90426 
L 161.446608 109.90426 
Q 161.235381 113.482568 160.046253 115.905947 
Q 158.619822 118.822885 156.199842 118.822885 
Q 154.113653 118.822885 152.695045 116.42912 
Q 150.827906 113.270338 150.827906 106.666508 
Q 150.827906 101.656876 152.230868 98.448738 
Q 153.745962 94.95927 156.411069 94.95927 
z
M 156.085102 94.95927 
L 156.085102 94.95927 
z
" style="fill:#0000ff;"/>
   </g>
   <g id="patch_25">
    <path clip-path="url(#pf7e1edba91)" d="M 161.446608 68.828124 
L 161.446608 71.94155 
L 157.036639 71.94155 
L 157.036639 94.95927 
L 155.237874 94.95927 
L 155.237874 71.94155 
L 150.827906 71.94155 
L 150.827906 68.828124 
L 161.446608 68.828124 
z
" style="fill:#ff0000;"/>
   </g>
   <g id="patch_26">
    <path clip-path="url(#pf7e1edba91)" d="M 157.955421 52.428015 
L 156.14892 34.746238 
L 154.228378 52.428015 
L 157.955421 52.428015 
z
M 155.306577 28.8 
L 157.128629 28.8 
L 161.446608 68.828124 
L 159.678984 68.828124 
L 158.473786 56.83974 
L 153.767034 56.83974 
L 152.478897 68.828124 
L 150.827906 68.828124 
L 155.306577 28.8 
z
M 156.141144 28.8 
L 156.141144 28.8 
z
" style="fill:#008000;"/>
   </g>
   <g id="patch_27">
    <path clip-path="url(#pf7e1edba91)" d="M 167.58865 118.245435 
Q 169.862596 118.245435 171.116917 120.471185 
Q 172.371238 122.692096 172.509448 125.51783 
L 170.92916 125.51783 
Q 170.660563 123.374337 169.857381 122.121143 
Q 169.054198 120.86311 167.604296 120.86311 
Q 165.836251 120.86311 164.748825 123.171116 
Q 163.661399 125.474283 163.661399 130.235452 
Q 163.661399 134.140191 164.641908 136.569162 
Q 165.625025 138.993293 167.573004 138.993293 
Q 169.364518 138.993293 170.303304 136.43852 
Q 170.798773 135.093393 171.043901 132.896675 
L 172.624189 132.896675 
Q 172.412962 136.40465 171.223834 138.780395 
Q 169.797403 141.64 167.377423 141.64 
Q 165.291234 141.64 163.872626 139.293286 
Q 162.005487 136.19659 162.005487 129.722562 
Q 162.005487 124.811397 163.408449 121.666316 
Q 164.923544 118.245435 167.58865 118.245435 
z
M 167.262683 118.245435 
L 167.262683 118.245435 
z
" style="fill:#0000ff;"/>
   </g>
   <g id="patch_28">
    <path clip-path="url(#pf7e1edba91)" d="M 172.624189 94.559759 
L 172.624189 97.381817 
L 168.21422 97.381817 
L 168.21422 118.245435 
L 166.415455 118.245435 
L 166.415455 97.381817 
L 162.005487 97.381817 
L 162.005487 94.559759 
L 172.624189 94.559759 
z
" style="fill:#ff0000;"/>
   </g>
   <g id="patch_29">
    <path clip-path="url(#pf7e1edba91)" d="M 167.481942 65.353248 
Q 169.120068 65.353248 170.315115 66.86466 
Q 172.04692 69.035046 172.434298 74.476127 
L 170.877192 74.476127 
Q 170.59109 71.435167 169.697336 70.044669 
Q 168.803583 68.65417 167.441432 68.65417 
Q 165.828625 68.65417 164.724725 71.550034 
Q 163.620826 74.439853 163.620826 80.165079 
Q 163.620826 85.110416 164.52977 88.217878 
Q 165.441247 91.325339 167.497133 91.325339 
Q 169.071962 91.325339 170.104969 89.148907 
Q 171.137976 86.966429 171.160763 82.087594 
L 167.522452 82.087594 
L 167.522452 78.974086 
L 172.624189 78.974086 
L 172.624189 93.822191 
L 171.611437 93.822191 
L 171.231655 90.249214 
Q 170.434113 92.347053 169.816335 93.163215 
Q 168.778264 94.559759 167.180648 94.559759 
Q 165.117166 94.559759 163.628421 91.367659 
Q 162.005487 87.359396 162.005487 80.37063 
Q 162.005487 73.400002 163.587911 69.282918 
Q 165.091848 65.353248 167.481942 65.353248 
z
M 167.221158 65.310929 
L 167.221158 65.310929 
z
" style="fill:#ffa600;"/>
   </g>
   <g id="patch_30">
    <path clip-path="url(#pf7e1edba91)" d="M 169.133002 50.351866 
L 167.326501 34.223754 
L 165.40596 50.351866 
L 169.133002 50.351866 
z
M 166.484158 28.8 
L 168.30621 28.8 
L 172.624189 65.310929 
L 170.856565 65.310929 
L 169.651367 54.375941 
L 164.944615 54.375941 
L 163.656478 65.310929 
L 162.005487 65.310929 
L 166.484158 28.8 
z
M 167.318725 28.8 
L 167.318725 28.8 
z
" style="fill:#008000;"/>
   </g>
   <g id="patch_31">
    <path clip-path="url(#pf7e1edba91)" d="M 183.80177 118.804478 
L 183.80177 121.525242 
L 179.391802 121.525242 
L 179.391802 141.64 
L 177.593036 141.64 
L 177.593036 121.525242 
L 173.183068 121.525242 
L 173.183068 118.804478 
L 183.80177 118.804478 
z
" style="fill:#ff0000;"/>
   </g>
   <g id="patch_32">
    <path clip-path="url(#pf7e1edba91)" d="M 178.766231 94.842008 
Q 181.040177 94.842008 182.294498 97.121788 
Q 183.548819 99.396612 183.68703 102.290941 
L 182.106741 102.290941 
Q 181.838145 100.095414 181.034962 98.811798 
Q 180.231779 97.523227 178.781878 97.523227 
Q 177.013832 97.523227 175.926406 99.88726 
Q 174.83898 102.246337 174.83898 107.123083 
Q 174.83898 111.12261 175.819489 113.610544 
Q 176.802606 116.093522 178.750585 116.093522 
Q 180.5421 116.093522 181.480885 113.476731 
Q 181.976355 112.098951 182.221482 109.848907 
L 183.80177 109.848907 
Q 183.590543 113.442039 182.401416 115.875456 
Q 180.974984 118.804478 178.555005 118.804478 
Q 176.468816 118.804478 175.050207 116.400797 
Q 173.183068 113.228929 173.183068 106.597743 
Q 173.183068 101.567359 174.58603 98.34593 
Q 176.101125 94.842008 178.766231 94.842008 
z
M 178.440264 94.842008 
L 178.440264 94.842008 
z
" style="fill:#0000ff;"/>
   </g>
   <g id="patch_33">
    <path clip-path="url(#pf7e1edba91)" d="M 178.659523 67.990289 
Q 180.297649 67.990289 181.492696 69.379842 
Q 183.224501 71.37524 183.611879 76.37763 
L 182.054773 76.37763 
Q 181.768671 73.58185 180.874917 72.303461 
Q 179.981164 71.025073 178.619013 71.025073 
Q 177.006206 71.025073 175.902306 73.687456 
Q 174.798407 76.344281 174.798407 81.607907 
Q 174.798407 86.154524 175.707352 89.011444 
Q 176.618828 91.868365 178.674714 91.868365 
Q 180.249543 91.868365 181.28255 89.867409 
Q 182.315557 87.860894 182.338344 83.375418 
L 178.700033 83.375418 
L 178.700033 80.512939 
L 183.80177 80.512939 
L 183.80177 94.163906 
L 182.789018 94.163906 
L 182.409236 90.879003 
Q 181.611694 92.807702 180.993916 93.558061 
Q 179.955845 94.842008 178.358229 94.842008 
Q 176.294748 94.842008 174.806003 91.907272 
Q 173.183068 88.222178 173.183068 81.796886 
Q 173.183068 75.388268 174.765492 71.603127 
Q 176.269429 67.990289 178.659523 67.990289 
z
M 178.398739 67.951382 
L 178.398739 67.951382 
z
" style="fill:#ffa600;"/>
   </g>
   <g id="patch_34">
    <path clip-path="url(#pf7e1edba91)" d="M 180.310583 51.910487 
L 178.504082 34.615997 
L 176.583541 51.910487 
L 180.310583 51.910487 
z
M 177.661739 28.8 
L 179.483791 28.8 
L 183.80177 67.951382 
L 182.034146 67.951382 
L 180.828948 56.225581 
L 176.122196 56.225581 
L 174.83406 67.951382 
L 173.183068 67.951382 
L 177.661739 28.8 
z
M 178.496307 28.8 
L 178.496307 28.8 
z
" style="fill:#008000;"/>
   </g>
   <g id="patch_35">
    <path clip-path="url(#pf7e1edba91)" d="M 189.943812 118.926513 
Q 192.217758 118.926513 193.472079 121.087465 
Q 194.726401 123.243719 194.864611 125.987189 
L 193.284322 125.987189 
Q 193.015726 123.906098 192.212543 122.689388 
Q 191.40936 121.46798 189.959459 121.46798 
Q 188.191414 121.46798 187.103988 123.708794 
Q 186.016561 125.94491 186.016561 130.567469 
Q 186.016561 134.35853 186.99707 136.716787 
Q 187.980187 139.070346 189.928166 139.070346 
Q 191.719681 139.070346 192.658466 136.589949 
Q 193.153936 135.283982 193.399063 133.151216 
L 194.979351 133.151216 
Q 194.768124 136.557064 193.578997 138.863646 
Q 192.152565 141.64 189.732586 141.64 
Q 187.646397 141.64 186.227788 139.361605 
Q 184.360649 136.355062 184.360649 130.06951 
Q 184.360649 125.301322 185.763611 122.247802 
Q 187.278706 118.926513 189.943812 118.926513 
z
M 189.617845 118.926513 
L 189.617845 118.926513 
z
" style="fill:#0000ff;"/>
   </g>
   <g id="patch_36">
    <path clip-path="url(#pf7e1edba91)" d="M 194.979351 95.328784 
L 194.979351 98.140362 
L 190.569383 98.140362 
L 190.569383 118.926513 
L 188.770617 118.926513 
L 188.770617 98.140362 
L 184.360649 98.140362 
L 184.360649 95.328784 
L 194.979351 95.328784 
z
" style="fill:#ff0000;"/>
   </g>
   <g id="patch_37">
    <path clip-path="url(#pf7e1edba91)" d="M 189.837104 70.874066 
Q 191.47523 70.874066 192.670277 72.139576 
Q 194.402083 73.956849 194.78946 78.512685 
L 193.232354 78.512685 
Q 192.946252 75.966479 192.052498 74.80221 
Q 191.158745 73.63794 189.796594 73.63794 
Q 188.183787 73.63794 187.079887 76.062658 
Q 185.975988 78.482313 185.975988 83.276065 
Q 185.975988 87.416814 186.884933 90.018703 
Q 187.796409 92.620592 189.852295 92.620592 
Q 191.427124 92.620592 192.460131 90.798257 
Q 193.493138 88.970861 193.515925 84.885794 
L 189.877614 84.885794 
L 189.877614 82.278843 
L 194.979351 82.278843 
L 194.979351 94.711215 
L 193.966599 94.711215 
L 193.586817 91.719549 
Q 192.789275 93.476077 192.171497 94.159452 
Q 191.133426 95.328784 189.53581 95.328784 
Q 187.472329 95.328784 185.983584 92.656026 
Q 184.360649 89.299893 184.360649 83.448175 
Q 184.360649 77.611642 185.943074 74.164392 
Q 187.44701 70.874066 189.837104 70.874066 
z
M 189.57632 70.838632 
L 189.57632 70.838632 
z
" style="fill:#ffa600;"/>
   </g>
   <g id="patch_38">
    <path clip-path="url(#pf7e1edba91)" d="M 191.488164 53.614788 
L 189.681663 35.044902 
L 187.761122 53.614788 
L 191.488164 53.614788 
z
M 188.83932 28.8 
L 190.661373 28.8 
L 194.979351 70.838632 
L 193.211727 70.838632 
L 192.006529 58.248103 
L 187.299777 58.248103 
L 186.011641 70.838632 
L 184.360649 70.838632 
L 188.83932 28.8 
z
M 189.673888 28.8 
L 189.673888 28.8 
z
" style="fill:#008000;"/>
   </g>
   <g id="patch_39">
    <path clip-path="url(#pf7e1edba91)" d="M 201.121393 117.909328 
Q 203.395339 117.909328 204.649661 120.167055 
Q 205.903982 122.419873 206.042192 125.286205 
L 204.461904 125.286205 
Q 204.193307 123.111916 203.390124 121.840717 
Q 202.586941 120.564611 201.13704 120.564611 
Q 199.368995 120.564611 198.281569 122.905776 
Q 197.194143 125.242032 197.194143 130.071604 
Q 197.194143 134.032442 198.174651 136.496309 
Q 199.157768 138.955268 201.105747 138.955268 
Q 202.897262 138.955268 203.836047 136.363791 
Q 204.331517 134.999338 204.576644 132.77106 
L 206.156932 132.77106 
Q 205.945706 136.329434 204.756578 138.739312 
Q 203.330146 141.64 200.910167 141.64 
Q 198.823978 141.64 197.405369 139.259571 
Q 195.53823 136.118386 195.53823 129.551345 
Q 195.53823 124.569622 196.941192 121.379356 
Q 198.456287 117.909328 201.121393 117.909328 
z
M 200.795426 117.909328 
L 200.795426 117.909328 
z
" style="fill:#0000ff;"/>
   </g>
   <g id="patch_40">
    <path clip-path="url(#pf7e1edba91)" d="M 201.014685 93.970636 
Q 202.652811 93.970636 203.847858 95.209442 
Q 205.579664 96.988368 205.967041 101.448071 
L 204.409935 101.448071 
Q 204.123833 98.955593 203.23008 97.815891 
Q 202.336326 96.676189 200.974175 96.676189 
Q 199.361368 96.676189 198.257469 99.049742 
Q 197.153569 101.418339 197.153569 106.110937 
Q 197.153569 110.164311 198.062514 112.711297 
Q 198.97399 115.258283 201.029876 115.258283 
Q 202.604705 115.258283 203.637712 113.474402 
Q 204.670719 111.685565 204.693506 107.686699 
L 201.055195 107.686699 
L 201.055195 105.134758 
L 206.156932 105.134758 
L 206.156932 117.304791 
L 205.14418 117.304791 
L 204.764399 114.376253 
Q 203.966857 116.095716 203.349078 116.764671 
Q 202.311007 117.909328 200.713392 117.909328 
Q 198.64991 117.909328 197.161165 115.292969 
Q 195.53823 112.007655 195.53823 106.279415 
Q 195.53823 100.566041 197.120655 97.191532 
Q 198.624591 93.970636 201.014685 93.970636 
z
M 200.753902 93.93595 
L 200.753902 93.93595 
z
" style="fill:#ffa600;"/>
   </g>
   <g id="patch_41">
    <path clip-path="url(#pf7e1edba91)" d="M 206.156932 68.554739 
L 206.156932 71.578812 
L 201.746964 71.578812 
L 201.746964 93.93595 
L 199.948198 93.93595 
L 199.948198 71.578812 
L 195.53823 71.578812 
L 195.53823 68.554739 
L 206.156932 68.554739 
z
" style="fill:#ff0000;"/>
   </g>
   <g id="patch_42">
    <path clip-path="url(#pf7e1edba91)" d="M 202.665746 52.26664 
L 200.859244 34.705627 
L 198.938703 52.26664 
L 202.665746 52.26664 
z
M 200.016902 28.8 
L 201.838954 28.8 
L 206.156932 68.554739 
L 204.389308 68.554739 
L 203.18411 56.648233 
L 198.477358 56.648233 
L 197.189222 68.554739 
L 195.53823 68.554739 
L 200.016902 28.8 
z
M 200.851469 28.8 
L 200.851469 28.8 
z
" style="fill:#008000;"/>
   </g>
   <g id="patch_43">
    <path clip-path="url(#pf7e1edba91)" d="M 217.334513 117.655714 
L 217.334513 120.513349 
L 212.924545 120.513349 
L 212.924545 141.64 
L 211.12578 141.64 
L 211.12578 120.513349 
L 206.715811 120.513349 
L 206.715811 117.655714 
L 217.334513 117.655714 
z
" style="fill:#ff0000;"/>
   </g>
   <g id="patch_44">
    <path clip-path="url(#pf7e1edba91)" d="M 212.192266 92.691097 
Q 213.830392 92.691097 215.025439 93.982994 
Q 216.757245 95.838158 217.144622 100.488987 
L 215.587517 100.488987 
Q 215.301414 97.889691 214.407661 96.701145 
Q 213.513907 95.5126 212.151756 95.5126 
Q 210.538949 95.5126 209.43505 97.987875 
Q 208.33115 100.457982 208.33115 105.351687 
Q 208.33115 109.578774 209.240095 112.234914 
Q 210.151572 114.891054 212.207458 114.891054 
Q 213.782287 114.891054 214.815293 113.030723 
Q 215.8483 111.165223 215.871087 106.99498 
L 212.232776 106.99498 
L 212.232776 104.333672 
L 217.334513 104.333672 
L 217.334513 117.025268 
L 216.321762 117.025268 
L 215.94198 113.971224 
Q 215.144438 115.764376 214.526659 116.462001 
Q 213.488589 117.655714 211.890973 117.655714 
Q 209.827491 117.655714 208.338746 114.927227 
Q 206.715811 111.501117 206.715811 105.527385 
Q 206.715811 99.569157 208.298236 96.050029 
Q 209.802172 92.691097 212.192266 92.691097 
z
M 211.931483 92.654924 
L 211.931483 92.654924 
z
" style="fill:#ffa600;"/>
   </g>
   <g id="patch_45">
    <path clip-path="url(#pf7e1edba91)" d="M 212.298975 66.309024 
Q 214.572921 66.309024 215.827242 68.815563 
Q 217.081563 71.316652 217.219773 74.498867 
L 215.639485 74.498867 
Q 215.370888 72.084961 214.567705 70.673671 
Q 213.764522 69.256932 212.314621 69.256932 
Q 210.546576 69.256932 209.45915 71.856103 
Q 208.371724 74.449826 208.371724 79.811639 
Q 208.371724 84.208979 209.352233 86.944375 
Q 210.335349 89.674323 212.283328 89.674323 
Q 214.074843 89.674323 215.013628 86.797253 
Q 215.509098 85.282431 215.754225 82.808587 
L 217.334513 82.808587 
Q 217.123287 86.75911 215.934159 89.434567 
Q 214.507727 92.654924 212.087748 92.654924 
Q 210.001559 92.654924 208.58295 90.012161 
Q 206.715811 86.524803 206.715811 79.234045 
Q 206.715811 73.703313 208.118773 70.161465 
Q 209.633868 66.309024 212.298975 66.309024 
z
M 211.973008 66.309024 
L 211.973008 66.309024 
z
" style="fill:#0000ff;"/>
   </g>
   <g id="patch_46">
    <path clip-path="url(#pf7e1edba91)" d="M 213.843327 50.941027 
L 212.036825 34.372022 
L 210.116284 50.941027 
L 213.843327 50.941027 
z
M 211.194483 28.8 
L 213.016535 28.8 
L 217.334513 66.309024 
L 215.566889 66.309024 
L 214.361691 55.075108 
L 209.654939 55.075108 
L 208.366803 66.309024 
L 206.715811 66.309024 
L 211.194483 28.8 
z
M 212.02905 28.8 
L 212.02905 28.8 
z
" style="fill:#008000;"/>
   </g>
   <g id="patch_47">
    <path clip-path="url(#pf7e1edba91)" d="M 228.512094 118.569953 
L 228.512094 121.31866 
L 224.102126 121.31866 
L 224.102126 141.64 
L 222.303361 141.64 
L 222.303361 121.31866 
L 217.893392 121.31866 
L 217.893392 118.569953 
L 228.512094 118.569953 
z
" style="fill:#ff0000;"/>
   </g>
   <g id="patch_48">
    <path clip-path="url(#pf7e1edba91)" d="M 223.369847 94.265686 
Q 225.007973 94.265686 226.20302 95.52341 
Q 227.934826 97.329503 228.322203 101.857311 
L 226.765098 101.857311 
Q 226.478995 99.326769 225.585242 98.169663 
Q 224.691488 97.012556 223.329337 97.012556 
Q 221.71653 97.012556 220.612631 99.422356 
Q 219.508731 101.827125 219.508731 106.591385 
Q 219.508731 110.70666 220.417676 113.292541 
Q 221.329153 115.878422 223.385039 115.878422 
Q 224.959868 115.878422 225.992874 114.067299 
Q 227.025881 112.251145 227.048668 108.191211 
L 223.410357 108.191211 
L 223.410357 105.600298 
L 228.512094 105.600298 
L 228.512094 117.956183 
L 227.499343 117.956183 
L 227.119561 114.982923 
Q 226.322019 116.728644 225.70424 117.407815 
Q 224.66617 118.569953 223.068554 118.569953 
Q 221.005072 118.569953 219.516327 115.913639 
Q 217.893392 112.578153 217.893392 106.762436 
Q 217.893392 100.961811 219.475817 97.535769 
Q 220.979753 94.265686 223.369847 94.265686 
z
M 223.109064 94.23047 
L 223.109064 94.23047 
z
" style="fill:#ffa600;"/>
   </g>
   <g id="patch_49">
    <path clip-path="url(#pf7e1edba91)" d="M 223.476556 69.21809 
Q 225.750502 69.21809 227.004823 71.597758 
Q 228.259144 73.972253 228.397354 76.993397 
L 226.817066 76.993397 
Q 226.548469 74.701673 225.745286 73.361817 
Q 224.942103 72.016787 223.492202 72.016787 
Q 221.724157 72.016787 220.636731 74.484399 
Q 219.549305 76.946838 219.549305 82.037258 
Q 219.549305 86.212023 220.529814 88.808965 
Q 221.51293 91.400734 223.460909 91.400734 
Q 225.252424 91.400734 226.191209 88.669289 
Q 226.686679 87.231142 226.931806 84.882513 
L 228.512094 84.882513 
Q 228.300868 88.633077 227.11174 91.173114 
Q 225.685308 94.23047 223.265329 94.23047 
Q 221.17914 94.23047 219.760531 91.721472 
Q 217.893392 88.41063 217.893392 81.4889 
Q 217.893392 76.238111 219.296354 72.875537 
Q 220.811449 69.21809 223.476556 69.21809 
z
M 223.150589 69.21809 
L 223.150589 69.21809 
z
" style="fill:#0000ff;"/>
   </g>
   <g id="patch_50">
    <path clip-path="url(#pf7e1edba91)" d="M 225.020908 52.658206 
L 223.214407 34.804169 
L 221.293865 52.658206 
L 225.020908 52.658206 
z
M 222.372064 28.8 
L 224.194116 28.8 
L 228.512094 69.21809 
L 226.744471 69.21809 
L 225.539273 57.112912 
L 220.832521 57.112912 
L 219.544384 69.21809 
L 217.893392 69.21809 
L 222.372064 28.8 
z
M 223.206631 28.8 
L 223.206631 28.8 
z
" style="fill:#008000;"/>
   </g>
   <g id="patch_51">
    <path clip-path="url(#pf7e1edba91)" d="M 234.547429 119.930158 
Q 236.185554 119.930158 237.380602 121.053623 
Q 239.112407 122.666919 239.499785 126.711394 
L 237.942679 126.711394 
Q 237.656576 124.450982 236.762823 123.417394 
Q 235.86907 122.383806 234.506918 122.383806 
Q 232.894111 122.383806 231.790212 124.536366 
Q 230.686312 126.684431 230.686312 130.940117 
Q 230.686312 134.616095 231.595257 136.92594 
Q 232.506734 139.235784 234.56262 139.235784 
Q 236.137449 139.235784 237.170456 137.617995 
Q 238.203462 135.995711 238.226249 132.369165 
L 234.587939 132.369165 
L 234.587939 130.054827 
L 239.689676 130.054827 
L 239.689676 141.091749 
L 238.676924 141.091749 
L 238.297142 138.435877 
Q 237.4996 139.995247 236.881821 140.601918 
Q 235.843751 141.64 234.246135 141.64 
Q 232.182653 141.64 230.693908 139.267241 
Q 229.070973 136.287812 229.070973 131.092909 
Q 229.070973 125.911487 230.653398 122.851168 
Q 232.157334 119.930158 234.547429 119.930158 
z
M 234.286645 119.898701 
L 234.286645 119.898701 
z
" style="fill:#ffa600;"/>
   </g>
   <g id="patch_52">
    <path clip-path="url(#pf7e1edba91)" d="M 234.654137 96.413462 
Q 236.928083 96.413462 238.182404 98.647839 
Q 239.436725 100.877358 239.574935 103.714044 
L 237.994647 103.714044 
Q 237.72605 101.562243 236.922867 100.304192 
Q 236.119685 99.041283 234.669783 99.041283 
Q 232.901738 99.041283 231.814312 101.358234 
Q 230.726886 103.670328 230.726886 108.449951 
Q 230.726886 112.369824 231.707395 114.808209 
Q 232.690511 117.241736 234.63849 117.241736 
Q 236.430005 117.241736 237.36879 114.677061 
Q 237.86426 113.32672 238.109387 111.121488 
L 239.689676 111.121488 
Q 239.478449 114.643059 238.289321 117.028013 
Q 236.862889 119.898701 234.44291 119.898701 
Q 232.356721 119.898701 230.938113 117.542891 
Q 229.070973 114.434194 229.070973 107.935073 
Q 229.070973 103.004873 230.473936 99.847602 
Q 231.98903 96.413462 234.654137 96.413462 
z
M 234.32817 96.413462 
L 234.32817 96.413462 
z
" style="fill:#0000ff;"/>
   </g>
   <g id="patch_53">
    <path clip-path="url(#pf7e1edba91)" d="M 239.689676 68.458611 
L 239.689676 71.789324 
L 235.279707 71.789324 
L 235.279707 96.413462 
L 233.480942 96.413462 
L 233.480942 71.789324 
L 229.070973 71.789324 
L 229.070973 68.458611 
L 239.689676 68.458611 
z
" style="fill:#ff0000;"/>
   </g>
   <g id="patch_54">
    <path clip-path="url(#pf7e1edba91)" d="M 236.198489 52.209897 
L 234.391988 34.691347 
L 232.471446 52.209897 
L 236.198489 52.209897 
z
M 233.549645 28.8 
L 235.371697 28.8 
L 239.689676 68.458611 
L 237.922052 68.458611 
L 236.716854 56.580896 
L 232.010102 56.580896 
L 230.721965 68.458611 
L 229.070973 68.458611 
L 233.549645 28.8 
z
M 234.384212 28.8 
L 234.384212 28.8 
z
" style="fill:#008000;"/>
   </g>
   <g id="patch_55">
    <path clip-path="url(#pf7e1edba91)" d="M 245.72501 118.309238 
Q 247.363136 118.309238 248.558183 119.516585 
Q 250.289988 121.250334 250.677366 125.596781 
L 249.12026 125.596781 
Q 248.834158 123.1676 247.940404 122.056842 
Q 247.046651 120.946083 245.6845 120.946083 
Q 244.071692 120.946083 242.967793 123.259359 
Q 241.863894 125.567805 241.863894 130.141233 
Q 241.863894 134.09167 242.772838 136.573975 
Q 243.684315 139.056279 245.740201 139.056279 
Q 247.31503 139.056279 248.348037 137.3177 
Q 249.381043 135.574292 249.40383 131.676978 
L 245.76552 131.676978 
L 245.76552 129.189844 
L 250.867257 129.189844 
L 250.867257 141.050815 
L 249.854505 141.050815 
L 249.474723 138.196648 
Q 248.677181 139.872445 248.059402 140.524412 
Q 247.021332 141.64 245.423716 141.64 
Q 243.360234 141.64 241.871489 139.090084 
Q 240.248555 135.888202 240.248555 130.305432 
Q 240.248555 124.737151 241.830979 121.448339 
Q 243.334916 118.309238 245.72501 118.309238 
z
M 245.464226 118.275433 
L 245.464226 118.275433 
z
" style="fill:#ffa600;"/>
   </g>
   <g id="patch_56">
    <path clip-path="url(#pf7e1edba91)" d="M 245.831718 94.305463 
Q 248.105664 94.305463 249.359985 96.585957 
Q 250.614306 98.861492 250.752516 101.756728 
L 249.172228 101.756728 
Q 248.903631 99.560513 248.100448 98.276496 
Q 247.297266 96.987522 245.847364 96.987522 
Q 244.079319 96.987522 242.991893 99.352294 
Q 241.904467 101.712109 241.904467 106.590382 
Q 241.904467 110.591161 242.884976 113.079874 
Q 243.868093 115.563628 245.816071 115.563628 
Q 247.607586 115.563628 248.546371 112.946019 
Q 249.041841 111.567807 249.286968 109.317059 
L 250.867257 109.317059 
Q 250.65603 112.911315 249.466902 115.345494 
Q 248.040471 118.275433 245.620491 118.275433 
Q 243.534302 118.275433 242.115694 115.870999 
Q 240.248555 112.698139 240.248555 106.064877 
Q 240.248555 101.032919 241.651517 97.810482 
Q 243.166611 94.305463 245.831718 94.305463 
z
M 245.505751 94.305463 
L 245.505751 94.305463 
z
" style="fill:#0000ff;"/>
   </g>
   <g id="patch_57">
    <path clip-path="url(#pf7e1edba91)" d="M 250.867257 67.968426 
L 250.867257 71.106383 
L 246.457288 71.106383 
L 246.457288 94.305463 
L 244.658523 94.305463 
L 244.658523 71.106383 
L 240.248555 71.106383 
L 240.248555 67.968426 
L 250.867257 67.968426 
z
" style="fill:#ff0000;"/>
   </g>
   <g id="patch_58">
    <path clip-path="url(#pf7e1edba91)" d="M 247.37607 51.920548 
L 245.569569 34.618529 
L 243.649027 51.920548 
L 247.37607 51.920548 
z
M 244.727226 28.8 
L 246.549278 28.8 
L 250.867257 67.968426 
L 249.099633 67.968426 
L 247.894435 56.237521 
L 243.187683 56.237521 
L 241.899546 67.968426 
L 240.248555 67.968426 
L 244.727226 28.8 
z
M 245.561793 28.8 
L 245.561793 28.8 
z
" style="fill:#008000;"/>
   </g>
   <g id="patch_59">
    <path clip-path="url(#pf7e1edba91)" d="M 262.044838 118.346336 
L 262.044838 121.121686 
L 257.634869 121.121686 
L 257.634869 141.64 
L 255.836104 141.64 
L 255.836104 121.121686 
L 251.426136 121.121686 
L 251.426136 118.346336 
L 262.044838 118.346336 
z
" style="fill:#ff0000;"/>
   </g>
   <g id="patch_60">
    <path clip-path="url(#pf7e1edba91)" d="M 256.902591 94.212943 
Q 258.540717 94.212943 259.735764 95.461825 
Q 261.467569 97.255219 261.854947 101.751194 
L 260.297841 101.751194 
Q 260.011739 99.238443 259.117985 98.089472 
Q 258.224232 96.940501 256.862081 96.940501 
Q 255.249274 96.940501 254.145374 99.333358 
Q 253.041475 101.721221 253.041475 106.451985 
Q 253.041475 110.538326 253.950419 113.106027 
Q 254.861896 115.673728 256.917782 115.673728 
Q 258.492611 115.673728 259.525618 113.875339 
Q 260.558625 112.071953 260.581411 108.040563 
L 256.943101 108.040563 
L 256.943101 105.467866 
L 262.044838 105.467866 
L 262.044838 117.736881 
L 261.032086 117.736881 
L 260.652304 114.784525 
Q 259.854762 116.517973 259.236984 117.192369 
Q 258.198913 118.346336 256.601297 118.346336 
Q 254.537815 118.346336 253.04907 115.708697 
Q 251.426136 112.396662 251.426136 106.621833 
Q 251.426136 100.86199 253.00856 97.460036 
Q 254.512497 94.212943 256.902591 94.212943 
z
M 256.641807 94.177974 
L 256.641807 94.177974 
z
" style="fill:#ffa600;"/>
   </g>
   <g id="patch_61">
    <path clip-path="url(#pf7e1edba91)" d="M 257.009299 67.547099 
Q 259.283245 67.547099 260.537566 70.08075 
Q 261.791887 72.608893 261.930097 75.825528 
L 260.349809 75.825528 
Q 260.081212 73.385512 259.27803 71.958956 
Q 258.474847 70.526893 257.024945 70.526893 
Q 255.2569 70.526893 254.169474 73.154179 
Q 253.082048 75.775957 253.082048 81.195767 
Q 253.082048 85.640672 254.062557 88.405656 
Q 255.045674 91.165133 256.993653 91.165133 
Q 258.785167 91.165133 259.723952 88.256942 
Q 260.219422 86.725735 260.46455 84.225132 
L 262.044838 84.225132 
Q 261.833611 88.218386 260.644483 90.922783 
Q 259.218052 94.177974 256.798072 94.177974 
Q 254.711883 94.177974 253.293275 91.506625 
Q 251.426136 87.981545 251.426136 80.611925 
Q 251.426136 75.021369 252.829098 71.44121 
Q 254.344193 67.547099 257.009299 67.547099 
z
M 256.683332 67.547099 
L 256.683332 67.547099 
z
" style="fill:#0000ff;"/>
   </g>
   <g id="patch_62">
    <path clip-path="url(#pf7e1edba91)" d="M 258.553651 51.671844 
L 256.74715 34.55594 
L 254.826609 51.671844 
L 258.553651 51.671844 
z
M 255.904807 28.8 
L 257.726859 28.8 
L 262.044838 67.547099 
L 260.277214 67.547099 
L 259.072016 55.942381 
L 254.365264 55.942381 
L 253.077127 67.547099 
L 251.426136 67.547099 
L 255.904807 28.8 
z
M 256.739374 28.8 
L 256.739374 28.8 
z
" style="fill:#008000;"/>
   </g>
   <g id="patch_63">
    <path clip-path="url(#pf7e1edba91)" d="M 268.080172 120.146644 
Q 269.718298 120.146644 270.913345 121.258906 
Q 272.64515 122.856115 273.032528 126.860259 
L 271.475422 126.860259 
Q 271.18932 124.622387 270.295566 123.599106 
Q 269.401813 122.575825 268.039662 122.575825 
Q 266.426855 122.575825 265.322955 124.706919 
Q 264.219056 126.833565 264.219056 131.046814 
Q 264.219056 134.686136 265.128001 136.972948 
Q 266.039477 139.259759 268.095363 139.259759 
Q 269.670192 139.259759 270.703199 137.658101 
Q 271.736206 136.051994 271.758993 132.461612 
L 268.120682 132.461612 
L 268.120682 130.170351 
L 273.222419 130.170351 
L 273.222419 141.097216 
L 272.209667 141.097216 
L 271.829885 138.467828 
Q 271.032343 140.011648 270.414565 140.61227 
Q 269.376494 141.64 267.778878 141.64 
Q 265.715397 141.64 264.226651 139.290902 
Q 262.603717 136.341183 262.603717 131.198082 
Q 262.603717 126.068328 264.186141 123.038526 
Q 265.690078 120.146644 268.080172 120.146644 
z
M 267.819388 120.115501 
L 267.819388 120.115501 
z
" style="fill:#ffa600;"/>
   </g>
   <g id="patch_64">
    <path clip-path="url(#pf7e1edba91)" d="M 273.222419 96.344605 
L 273.222419 99.176816 
L 268.812451 99.176816 
L 268.812451 120.115501 
L 267.013685 120.115501 
L 267.013685 99.176816 
L 262.603717 99.176816 
L 262.603717 96.344605 
L 273.222419 96.344605 
z
" style="fill:#ff0000;"/>
   </g>
   <g id="patch_65">
    <path clip-path="url(#pf7e1edba91)" d="M 268.18688 67.613229 
Q 270.460826 67.613229 271.715147 70.346721 
Q 272.969468 73.074271 273.107678 76.544617 
L 271.52739 76.544617 
Q 271.258793 73.912145 270.455611 72.37307 
Q 269.652428 70.828053 268.202527 70.828053 
Q 266.434481 70.828053 265.347055 73.662566 
Q 264.259629 76.491135 264.259629 82.338431 
Q 264.259629 87.133926 265.240138 90.116997 
Q 266.223255 93.094126 268.171234 93.094126 
Q 269.962749 93.094126 270.901534 89.956553 
Q 271.397003 88.304574 271.642131 85.606736 
L 273.222419 85.606736 
Q 273.011192 89.914957 271.822065 92.832662 
Q 270.395633 96.344605 267.975654 96.344605 
Q 265.889465 96.344605 264.470856 93.462554 
Q 262.603717 89.659435 262.603717 81.708539 
Q 262.603717 75.67703 264.006679 71.814487 
Q 265.521774 67.613229 268.18688 67.613229 
z
M 267.860913 67.613229 
L 267.860913 67.613229 
z
" style="fill:#0000ff;"/>
   </g>
   <g id="patch_66">
    <path clip-path="url(#pf7e1edba91)" d="M 269.731232 51.71088 
L 267.924731 34.565764 
L 266.00419 51.71088 
L 269.731232 51.71088 
z
M 267.082388 28.8 
L 268.90444 28.8 
L 273.222419 67.613229 
L 271.454795 67.613229 
L 270.249597 55.988705 
L 265.542845 55.988705 
L 264.254709 67.613229 
L 262.603717 67.613229 
L 267.082388 28.8 
z
M 267.916956 28.8 
L 267.916956 28.8 
z
" style="fill:#008000;"/>
   </g>
   <g id="patch_67">
    <path clip-path="url(#pf7e1edba91)" d="M 279.257753 118.672771 
Q 280.895879 118.672771 282.090926 119.861305 
Q 283.822732 121.56804 284.210109 125.846762 
L 282.653003 125.846762 
Q 282.366901 123.455431 281.473147 122.36198 
Q 280.579394 121.268529 279.217243 121.268529 
Q 277.604436 121.268529 276.500536 123.54576 
Q 275.396637 125.818237 275.396637 130.320403 
Q 275.396637 134.209286 276.305582 136.652912 
Q 277.217058 139.096537 279.272944 139.096537 
Q 280.847773 139.096537 281.88078 137.385049 
Q 282.913787 135.668806 282.936574 131.832218 
L 279.298263 131.832218 
L 279.298263 129.383838 
L 284.4 129.383838 
L 284.4 141.059995 
L 283.387248 141.059995 
L 283.007466 138.250301 
Q 282.209924 139.899986 281.592146 140.541795 
Q 280.554075 141.64 278.956459 141.64 
Q 276.892978 141.64 275.404233 139.129816 
Q 273.781298 135.977825 273.781298 130.482044 
Q 273.781298 125.000525 275.363723 121.762959 
Q 276.867659 118.672771 279.257753 118.672771 
z
M 278.996969 118.639492 
L 278.996969 118.639492 
z
" style="fill:#ffa600;"/>
   </g>
   <g id="patch_68">
    <path clip-path="url(#pf7e1edba91)" d="M 284.4 90.360123 
L 284.4 93.729501 
L 279.990032 93.729501 
L 279.990032 118.639492 
L 278.191266 118.639492 
L 278.191266 93.729501 
L 273.781298 93.729501 
L 273.781298 90.360123 
L 284.4 90.360123 
z
" style="fill:#ff0000;"/>
   </g>
   <g id="patch_69">
    <path clip-path="url(#pf7e1edba91)" d="M 280.908813 77.863325 
L 279.102312 64.389904 
L 277.181771 77.863325 
L 280.908813 77.863325 
z
M 278.259969 59.858901 
L 280.082022 59.858901 
L 284.4 90.360123 
L 282.632376 90.360123 
L 281.427178 81.225037 
L 276.720426 81.225037 
L 275.43229 90.360123 
L 273.781298 90.360123 
L 278.259969 59.858901 
z
M 279.094537 59.858901 
L 279.094537 59.858901 
z
" style="fill:#008000;"/>
   </g>
   <g id="patch_70">
    <path clip-path="url(#pf7e1edba91)" d="M 279.364461 28.8 
Q 281.638407 28.8 282.892728 31.754932 
Q 284.14705 34.70344 284.28526 38.454918 
L 282.704971 38.454918 
Q 282.436375 35.60919 281.633192 33.945435 
Q 280.830009 32.275257 279.380108 32.275257 
Q 277.612063 32.275257 276.524636 35.339392 
Q 275.43721 38.397104 275.43721 44.718088 
Q 275.43721 49.902066 276.417719 53.126796 
Q 277.400836 56.345102 279.348815 56.345102 
Q 281.14033 56.345102 282.079115 52.953354 
Q 282.574585 51.167548 282.819712 48.251159 
L 284.4 48.251159 
Q 284.188773 52.908388 282.999646 56.062456 
Q 281.573214 59.858901 279.153235 59.858901 
Q 277.067046 59.858901 275.648437 56.743375 
Q 273.781298 52.632166 273.781298 44.037169 
Q 273.781298 37.517048 275.18426 33.341601 
Q 276.699355 28.8 279.364461 28.8 
z
M 279.038494 28.8 
L 279.038494 28.8 
z
" style="fill:#0000ff;"/>
   </g>
   <g id="matplotlib.axis_1">
    <g id="xtick_1">
     <g id="line2d_2">
      <path clip-path="url(#pf7e1edba91)" d="M 100.249351 141.64 
L 100.249351 28.8 
" style="fill:none;stroke:#cccccc;stroke-linecap:round;stroke-width:0.8;"/>
     </g>
     <g id="text_1">
      <!-- 0 -->
      <g style="fill:#262626;" transform="translate(94.688414 162.986875)scale(0.2 -0.2)">
       <defs>
        <path d="M 1731 4475 
Q 2600 4475 2988 3759 
Q 3288 3206 3288 2244 
Q 3288 1331 3016 734 
Q 2622 -122 1728 -122 
Q 922 -122 528 578 
Q 200 1163 200 2147 
Q 200 2909 397 3456 
Q 766 4475 1731 4475 
z
M 1725 391 
Q 2163 391 2422 778 
Q 2681 1166 2681 2222 
Q 2681 2984 2493 3476 
Q 2306 3969 1766 3969 
Q 1269 3969 1039 3501 
Q 809 3034 809 2125 
Q 809 1441 956 1025 
Q 1181 391 1725 391 
z
" id="Helvetica-30" transform="scale(0.015625)"/>
       </defs>
       <use xlink:href="#Helvetica-30"/>
      </g>
     </g>
    </g>
    <g id="xtick_2">
     <g id="line2d_3">
      <path clip-path="url(#pf7e1edba91)" d="M 212.025162 141.64 
L 212.025162 28.8 
" style="fill:none;stroke:#cccccc;stroke-linecap:round;stroke-width:0.8;"/>
     </g>
     <g id="text_2">
      <!-- 10 -->
      <g style="fill:#262626;" transform="translate(200.903287 162.986875)scale(0.2 -0.2)">
       <defs>
        <path d="M 613 3169 
L 613 3600 
Q 1222 3659 1462 3798 
Q 1703 3938 1822 4456 
L 2266 4456 
L 2266 0 
L 1666 0 
L 1666 3169 
L 613 3169 
z
" id="Helvetica-31" transform="scale(0.015625)"/>
       </defs>
       <use xlink:href="#Helvetica-31"/>
       <use x="55.615234" xlink:href="#Helvetica-30"/>
      </g>
     </g>
    </g>
    <g id="text_3">
     <!-- Position -->
     <g style="fill:#262626;" transform="translate(145.20125 189.089219)scale(0.25 -0.25)">
      <defs>
       <path d="M 547 4591 
L 2613 4591 
Q 3225 4591 3600 4245 
Q 3975 3900 3975 3275 
Q 3975 2738 3640 2339 
Q 3306 1941 2613 1941 
L 1169 1941 
L 1169 0 
L 547 0 
L 547 4591 
z
M 3347 3272 
Q 3347 3778 2972 3959 
Q 2766 4056 2406 4056 
L 1169 4056 
L 1169 2466 
L 2406 2466 
Q 2825 2466 3086 2644 
Q 3347 2822 3347 3272 
z
" id="Helvetica-50" transform="scale(0.015625)"/>
       <path d="M 1741 363 
Q 2300 363 2508 786 
Q 2716 1209 2716 1728 
Q 2716 2197 2566 2491 
Q 2328 2953 1747 2953 
Q 1231 2953 997 2559 
Q 763 2166 763 1609 
Q 763 1075 997 719 
Q 1231 363 1741 363 
z
M 1763 3444 
Q 2409 3444 2856 3012 
Q 3303 2581 3303 1744 
Q 3303 934 2909 406 
Q 2516 -122 1688 -122 
Q 997 -122 590 345 
Q 184 813 184 1600 
Q 184 2444 612 2944 
Q 1041 3444 1763 3444 
z
M 1744 3428 
L 1744 3428 
z
" id="Helvetica-6f" transform="scale(0.015625)"/>
       <path d="M 747 1050 
Q 772 769 888 619 
Q 1100 347 1625 347 
Q 1938 347 2175 483 
Q 2413 619 2413 903 
Q 2413 1119 2222 1231 
Q 2100 1300 1741 1391 
L 1294 1503 
Q 866 1609 663 1741 
Q 300 1969 300 2372 
Q 300 2847 642 3140 
Q 984 3434 1563 3434 
Q 2319 3434 2653 2991 
Q 2863 2709 2856 2384 
L 2325 2384 
Q 2309 2575 2191 2731 
Q 1997 2953 1519 2953 
Q 1200 2953 1036 2831 
Q 872 2709 872 2509 
Q 872 2291 1088 2159 
Q 1213 2081 1456 2022 
L 1828 1931 
Q 2434 1784 2641 1647 
Q 2969 1431 2969 969 
Q 2969 522 2630 197 
Q 2291 -128 1597 -128 
Q 850 -128 539 211 
Q 228 550 206 1050 
L 747 1050 
z
M 1578 3428 
L 1578 3428 
z
" id="Helvetica-73" transform="scale(0.015625)"/>
       <path d="M 413 3331 
L 984 3331 
L 984 0 
L 413 0 
L 413 3331 
z
M 413 4591 
L 984 4591 
L 984 3953 
L 413 3953 
L 413 4591 
z
" id="Helvetica-69" transform="scale(0.015625)"/>
       <path d="M 525 4281 
L 1094 4281 
L 1094 3347 
L 1628 3347 
L 1628 2888 
L 1094 2888 
L 1094 703 
Q 1094 528 1213 469 
Q 1278 434 1431 434 
Q 1472 434 1519 436 
Q 1566 438 1628 444 
L 1628 0 
Q 1531 -28 1426 -40 
Q 1322 -53 1200 -53 
Q 806 -53 665 148 
Q 525 350 525 672 
L 525 2888 
L 72 2888 
L 72 3347 
L 525 3347 
L 525 4281 
z
" id="Helvetica-74" transform="scale(0.015625)"/>
       <path d="M 413 3347 
L 947 3347 
L 947 2872 
Q 1184 3166 1450 3294 
Q 1716 3422 2041 3422 
Q 2753 3422 3003 2925 
Q 3141 2653 3141 2147 
L 3141 0 
L 2569 0 
L 2569 2109 
Q 2569 2416 2478 2603 
Q 2328 2916 1934 2916 
Q 1734 2916 1606 2875 
Q 1375 2806 1200 2600 
Q 1059 2434 1017 2257 
Q 975 2081 975 1753 
L 975 0 
L 413 0 
L 413 3347 
z
M 1734 3428 
L 1734 3428 
z
" id="Helvetica-6e" transform="scale(0.015625)"/>
      </defs>
      <use xlink:href="#Helvetica-50"/>
      <use x="66.699219" xlink:href="#Helvetica-6f"/>
      <use x="122.314453" xlink:href="#Helvetica-73"/>
      <use x="172.314453" xlink:href="#Helvetica-69"/>
      <use x="194.53125" xlink:href="#Helvetica-74"/>
      <use x="222.314453" xlink:href="#Helvetica-69"/>
      <use x="244.53125" xlink:href="#Helvetica-6f"/>
      <use x="300.146484" xlink:href="#Helvetica-6e"/>
     </g>
    </g>
   </g>
   <g id="matplotlib.axis_2">
    <g id="ytick_1">
     <g id="line2d_4">
      <path clip-path="url(#pf7e1edba91)" d="M 94.94 141.64 
L 284.4 141.64 
" style="fill:none;stroke:#cccccc;stroke-linecap:round;stroke-width:0.8;"/>
     </g>
     <g id="text_4">
      <!-- 0 -->
      <g style="fill:#262626;" transform="translate(76.818125 148.813438)scale(0.2 -0.2)">
       <use xlink:href="#Helvetica-30"/>
      </g>
     </g>
    </g>
    <g id="ytick_2">
     <g id="line2d_5">
      <path clip-path="url(#pf7e1edba91)" d="M 94.94 113.43 
L 284.4 113.43 
" style="fill:none;stroke:#cccccc;stroke-linecap:round;stroke-width:0.8;"/>
     </g>
     <g id="text_5">
      <!-- 0.25 -->
      <g style="fill:#262626;" transform="translate(49.018125 120.603438)scale(0.2 -0.2)">
       <defs>
        <path d="M 547 681 
L 1200 681 
L 1200 0 
L 547 0 
L 547 681 
z
" id="Helvetica-2e" transform="scale(0.015625)"/>
        <path d="M 200 0 
Q 231 578 439 1006 
Q 647 1434 1250 1784 
L 1850 2131 
Q 2253 2366 2416 2531 
Q 2672 2791 2672 3125 
Q 2672 3516 2437 3745 
Q 2203 3975 1813 3975 
Q 1234 3975 1013 3538 
Q 894 3303 881 2888 
L 309 2888 
Q 319 3472 525 3841 
Q 891 4491 1816 4491 
Q 2584 4491 2939 4075 
Q 3294 3659 3294 3150 
Q 3294 2613 2916 2231 
Q 2697 2009 2131 1694 
L 1703 1456 
Q 1397 1288 1222 1134 
Q 909 863 828 531 
L 3272 531 
L 3272 0 
L 200 0 
z
" id="Helvetica-32" transform="scale(0.015625)"/>
        <path d="M 791 1141 
Q 847 659 1238 475 
Q 1438 381 1700 381 
Q 2200 381 2440 700 
Q 2681 1019 2681 1406 
Q 2681 1875 2395 2131 
Q 2109 2388 1709 2388 
Q 1419 2388 1211 2275 
Q 1003 2163 856 1963 
L 369 1991 
L 709 4400 
L 3034 4400 
L 3034 3856 
L 1131 3856 
L 941 2613 
Q 1097 2731 1238 2791 
Q 1488 2894 1816 2894 
Q 2431 2894 2859 2497 
Q 3288 2100 3288 1491 
Q 3288 856 2895 371 
Q 2503 -113 1644 -113 
Q 1097 -113 676 195 
Q 256 503 206 1141 
L 791 1141 
z
" id="Helvetica-35" transform="scale(0.015625)"/>
       </defs>
       <use xlink:href="#Helvetica-30"/>
       <use x="55.615234" xlink:href="#Helvetica-2e"/>
       <use x="83.398438" xlink:href="#Helvetica-32"/>
       <use x="139.013672" xlink:href="#Helvetica-35"/>
      </g>
     </g>
    </g>
    <g id="ytick_3">
     <g id="line2d_6">
      <path clip-path="url(#pf7e1edba91)" d="M 94.94 85.22 
L 284.4 85.22 
" style="fill:none;stroke:#cccccc;stroke-linecap:round;stroke-width:0.8;"/>
     </g>
     <g id="text_6">
      <!-- 0.50 -->
      <g style="fill:#262626;" transform="translate(49.018125 92.393438)scale(0.2 -0.2)">
       <use xlink:href="#Helvetica-30"/>
       <use x="55.615234" xlink:href="#Helvetica-2e"/>
       <use x="83.398438" xlink:href="#Helvetica-35"/>
       <use x="139.013672" xlink:href="#Helvetica-30"/>
      </g>
     </g>
    </g>
    <g id="ytick_4">
     <g id="line2d_7">
      <path clip-path="url(#pf7e1edba91)" d="M 94.94 57.01 
L 284.4 57.01 
" style="fill:none;stroke:#cccccc;stroke-linecap:round;stroke-width:0.8;"/>
     </g>
     <g id="text_7">
      <!-- 0.75 -->
      <g style="fill:#262626;" transform="translate(49.018125 64.183437)scale(0.2 -0.2)">
       <defs>
        <path d="M 3347 4400 
L 3347 3909 
Q 3131 3700 2773 3181 
Q 2416 2663 2141 2063 
Q 1869 1478 1728 997 
Q 1638 688 1494 0 
L 872 0 
Q 1084 1281 1809 2550 
Q 2238 3294 2709 3834 
L 234 3834 
L 234 4400 
L 3347 4400 
z
" id="Helvetica-37" transform="scale(0.015625)"/>
       </defs>
       <use xlink:href="#Helvetica-30"/>
       <use x="55.615234" xlink:href="#Helvetica-2e"/>
       <use x="83.398438" xlink:href="#Helvetica-37"/>
       <use x="139.013672" xlink:href="#Helvetica-35"/>
      </g>
     </g>
    </g>
    <g id="ytick_5">
     <g id="line2d_8">
      <path clip-path="url(#pf7e1edba91)" d="M 94.94 28.8 
L 284.4 28.8 
" style="fill:none;stroke:#cccccc;stroke-linecap:round;stroke-width:0.8;"/>
     </g>
     <g id="text_8">
      <!-- 1.0 -->
      <g style="fill:#262626;" transform="translate(60.14 35.973438)scale(0.2 -0.2)">
       <use xlink:href="#Helvetica-31"/>
       <use x="55.615234" xlink:href="#Helvetica-2e"/>
       <use x="83.398438" xlink:href="#Helvetica-30"/>
      </g>
     </g>
    </g>
    <g id="text_9">
     <!-- Probability -->
     <g style="fill:#262626;" transform="translate(39.65875 143.579375)rotate(-90)scale(0.25 -0.25)">
      <defs>
       <path d="M 428 3347 
L 963 3347 
L 963 2769 
Q 1028 2938 1284 3180 
Q 1541 3422 1875 3422 
Q 1891 3422 1928 3419 
Q 1966 3416 2056 3406 
L 2056 2813 
Q 2006 2822 1964 2825 
Q 1922 2828 1872 2828 
Q 1447 2828 1219 2554 
Q 991 2281 991 1925 
L 991 0 
L 428 0 
L 428 3347 
z
" id="Helvetica-72" transform="scale(0.015625)"/>
       <path d="M 369 4606 
L 916 4606 
L 916 2941 
Q 1100 3181 1356 3307 
Q 1613 3434 1913 3434 
Q 2538 3434 2927 3004 
Q 3316 2575 3316 1738 
Q 3316 944 2931 419 
Q 2547 -106 1866 -106 
Q 1484 -106 1222 78 
Q 1066 188 888 428 
L 888 0 
L 369 0 
L 369 4606 
z
M 1831 391 
Q 2288 391 2514 753 
Q 2741 1116 2741 1709 
Q 2741 2238 2514 2584 
Q 2288 2931 1847 2931 
Q 1463 2931 1173 2647 
Q 884 2363 884 1709 
Q 884 1238 1003 944 
Q 1225 391 1831 391 
z
" id="Helvetica-62" transform="scale(0.015625)"/>
       <path d="M 844 891 
Q 844 647 1022 506 
Q 1200 366 1444 366 
Q 1741 366 2019 503 
Q 2488 731 2488 1250 
L 2488 1703 
Q 2384 1638 2221 1594 
Q 2059 1550 1903 1531 
L 1563 1488 
Q 1256 1447 1103 1359 
Q 844 1213 844 891 
z
M 2206 2028 
Q 2400 2053 2466 2191 
Q 2503 2266 2503 2406 
Q 2503 2694 2298 2823 
Q 2094 2953 1713 2953 
Q 1272 2953 1088 2716 
Q 984 2584 953 2325 
L 428 2325 
Q 444 2944 830 3186 
Q 1216 3428 1725 3428 
Q 2316 3428 2684 3203 
Q 3050 2978 3050 2503 
L 3050 575 
Q 3050 488 3086 434 
Q 3122 381 3238 381 
Q 3275 381 3322 386 
Q 3369 391 3422 400 
L 3422 -16 
Q 3291 -53 3222 -62 
Q 3153 -72 3034 -72 
Q 2744 -72 2613 134 
Q 2544 244 2516 444 
Q 2344 219 2022 53 
Q 1700 -113 1313 -113 
Q 847 -113 551 170 
Q 256 453 256 878 
Q 256 1344 547 1600 
Q 838 1856 1309 1916 
L 2206 2028 
z
M 1741 3428 
L 1741 3428 
z
" id="Helvetica-61" transform="scale(0.015625)"/>
       <path d="M 428 4591 
L 991 4591 
L 991 0 
L 428 0 
L 428 4591 
z
" id="Helvetica-6c" transform="scale(0.015625)"/>
       <path d="M 2503 3347 
L 3125 3347 
Q 3006 3025 2597 1878 
Q 2291 1016 2084 472 
Q 1597 -809 1397 -1090 
Q 1197 -1372 709 -1372 
Q 591 -1372 527 -1362 
Q 463 -1353 369 -1328 
L 369 -816 
Q 516 -856 581 -865 
Q 647 -875 697 -875 
Q 853 -875 926 -823 
Q 1000 -772 1050 -697 
Q 1066 -672 1162 -440 
Q 1259 -209 1303 -97 
L 66 3347 
L 703 3347 
L 1600 622 
L 2503 3347 
z
M 1597 3428 
L 1597 3428 
z
" id="Helvetica-79" transform="scale(0.015625)"/>
      </defs>
      <use xlink:href="#Helvetica-50"/>
      <use x="66.699219" xlink:href="#Helvetica-72"/>
      <use x="100" xlink:href="#Helvetica-6f"/>
      <use x="155.615234" xlink:href="#Helvetica-62"/>
      <use x="211.230469" xlink:href="#Helvetica-61"/>
      <use x="266.845703" xlink:href="#Helvetica-62"/>
      <use x="322.460938" xlink:href="#Helvetica-69"/>
      <use x="344.677734" xlink:href="#Helvetica-6c"/>
      <use x="366.894531" xlink:href="#Helvetica-69"/>
      <use x="389.111328" xlink:href="#Helvetica-74"/>
      <use x="416.894531" xlink:href="#Helvetica-79"/>
     </g>
    </g>
   </g>
   <g id="patch_71">
    <path d="M 94.94 141.64 
L 94.94 28.8 
" style="fill:none;stroke:#000000;stroke-linecap:square;stroke-linejoin:miter;"/>
   </g>
  </g>
 </g>
 <defs>
  <clipPath id="pf7e1edba91">
   <rect height="112.84" width="189.46" x="94.94" y="28.8"/>
  </clipPath>
 </defs>
</svg>
