<?xml version="1.0" encoding="utf-8" standalone="no"?>
<!DOCTYPE svg PUBLIC "-//W3C//DTD SVG 1.1//EN"
  "http://www.w3.org/Graphics/SVG/1.1/DTD/svg11.dtd">
<svg height="216pt" version="1.1" viewBox="0 0 360 216" width="360pt" xmlns="http://www.w3.org/2000/svg" xmlns:xlink="http://www.w3.org/1999/xlink">
 <metadata>
  <rdf:RDF xmlns:cc="http://creativecommons.org/ns#" xmlns:dc="http://purl.org/dc/elements/1.1/" xmlns:rdf="http://www.w3.org/1999/02/22-rdf-syntax-ns#">
   <cc:Work>
    <dc:type rdf:resource="http://purl.org/dc/dcmitype/StillImage"/>
    <dc:date>2023-01-28T19:10:16.070789</dc:date>
    <dc:format>image/svg+xml</dc:format>
    <dc:creator>
     <cc:Agent>
      <dc:title>Matplotlib v3.4.2, https://matplotlib.org/</dc:title>
     </cc:Agent>
    </dc:creator>
   </cc:Work>
  </rdf:RDF>
 </metadata>
 <defs>
  <style type="text/css">*{stroke-linecap:butt;stroke-linejoin:round;}</style>
 </defs>
 <g id="figure_1">
  <g id="patch_1">
   <path d="M 0 216 
L 360 216 
L 360 0 
L 0 0 
z
" style="fill:#ffffff;"/>
  </g>
  <g id="axes_1">
   <g id="patch_2">
    <path d="M 94.94 141.64 
L 338.4 141.64 
L 338.4 28.8 
L 94.94 28.8 
z
" style="fill:#ffffff;"/>
   </g>
   <g id="line2d_1">
    <path clip-path="url(#p956f00d183)" d="M 94.94 141.64 
L 338.4 141.64 
" style="fill:none;stroke:#000000;stroke-linecap:round;stroke-width:0.5;"/>
   </g>
   <g id="patch_3">
    <path clip-path="url(#p956f00d183)" d="M 101.035611 116.591147 
Q 103.518269 116.591147 104.887718 118.974285 
Q 106.257166 121.352242 106.408062 124.377791 
L 104.682728 124.377791 
Q 104.389478 122.082726 103.512575 120.740915 
Q 102.635673 119.393924 101.052693 119.393924 
Q 99.122369 119.393924 97.935134 121.865135 
Q 96.747899 124.331165 96.747899 129.429008 
Q 96.747899 133.609861 97.818404 136.21059 
Q 98.891755 138.806138 101.018528 138.806138 
Q 102.974476 138.806138 103.999427 136.07071 
Q 104.540373 134.630466 104.807999 132.278412 
L 106.533333 132.278412 
Q 106.302719 136.034445 105.004448 138.578186 
Q 103.447092 141.64 100.804997 141.64 
Q 98.527328 141.64 96.978513 139.127344 
Q 94.94 135.811673 94.94 128.87985 
Q 94.94 123.621404 96.471732 120.253926 
Q 98.125889 116.591147 101.035611 116.591147 
z
M 100.679725 116.591147 
L 100.679725 116.591147 
z
" style="fill:#0000ff;"/>
   </g>
   <g id="patch_4">
    <path clip-path="url(#p956f00d183)" d="M 102.72171 105.896542 
L 100.7494 94.366154 
L 98.652583 105.896542 
L 102.72171 105.896542 
z
M 99.829744 90.488578 
L 101.819032 90.488578 
L 106.533333 116.591147 
L 104.603469 116.591147 
L 103.287653 108.773453 
L 98.148894 108.773453 
L 96.742527 116.591147 
L 94.94 116.591147 
L 99.829744 90.488578 
z
M 100.740911 90.488578 
L 100.740911 90.488578 
z
" style="fill:#008000;"/>
   </g>
   <g id="patch_5">
    <path clip-path="url(#p956f00d183)" d="M 106.533333 62.278578 
L 106.533333 65.639691 
L 101.718599 65.639691 
L 101.718599 90.488578 
L 99.754735 90.488578 
L 99.754735 65.639691 
L 94.94 65.639691 
L 94.94 62.278578 
L 106.533333 62.278578 
z
" style="fill:#ff0000;"/>
   </g>
   <g id="patch_6">
    <path clip-path="url(#p956f00d183)" d="M 100.919108 28.848439 
Q 102.707589 28.848439 104.012322 30.57842 
Q 105.903081 33.062671 106.326013 39.2906 
L 104.62599 39.2906 
Q 104.313627 35.80988 103.337841 34.218298 
Q 102.362055 32.626716 100.87488 32.626716 
Q 99.114042 32.626716 97.908822 35.941359 
Q 96.703602 39.249081 96.703602 45.802246 
Q 96.703602 51.462741 97.695974 55.019581 
Q 98.69111 58.57642 100.935694 58.57642 
Q 102.655068 58.57642 103.782888 56.085249 
Q 104.910709 53.587157 104.935587 48.002781 
L 100.963337 48.002781 
L 100.963337 44.439022 
L 106.533333 44.439022 
L 106.533333 61.434348 
L 105.427627 61.434348 
L 105.012987 57.344674 
Q 104.142243 59.745887 103.467762 60.680076 
Q 102.334413 62.278578 100.590161 62.278578 
Q 98.337283 62.278578 96.711895 58.62486 
Q 94.94 54.036952 94.94 46.037523 
Q 94.94 38.058854 96.667667 33.346388 
Q 98.309641 28.848439 100.919108 28.848439 
z
M 100.634389 28.8 
L 100.634389 28.8 
z
" style="fill:#ffa600;"/>
   </g>
   <g id="patch_7">
    <path clip-path="url(#p956f00d183)" d="M 118.736842 126.074587 
L 118.736842 127.929146 
L 113.922107 127.929146 
L 113.922107 141.64 
L 111.958243 141.64 
L 111.958243 127.929146 
L 107.143509 127.929146 
L 107.143509 126.074587 
L 118.736842 126.074587 
z
" style="fill:#ff0000;"/>
   </g>
   <g id="patch_8">
    <path clip-path="url(#p956f00d183)" d="M 114.925219 118.833764 
L 112.952909 111.027071 
L 110.856092 118.833764 
L 114.925219 118.833764 
z
M 112.033252 108.401743 
L 114.022541 108.401743 
L 118.736842 126.074587 
L 116.806978 126.074587 
L 115.491162 120.781588 
L 110.352403 120.781588 
L 108.946036 126.074587 
L 107.143509 126.074587 
L 112.033252 108.401743 
z
M 112.94442 108.401743 
L 112.94442 108.401743 
z
" style="fill:#008000;"/>
   </g>
   <g id="patch_9">
    <path clip-path="url(#p956f00d183)" d="M 113.239119 73.86945 
Q 115.721778 73.86945 117.091227 77.154838 
Q 118.460675 80.433085 118.61157 84.6041 
L 116.886236 84.6041 
Q 116.592987 81.440128 115.716084 79.590311 
Q 114.839182 77.733353 113.256202 77.733353 
Q 111.325878 77.733353 110.138643 81.140158 
Q 108.951408 84.539821 108.951408 91.567696 
Q 108.951408 97.331411 110.021913 100.91677 
Q 111.095264 104.494987 113.222037 104.494987 
Q 115.177985 104.494987 116.202936 100.723932 
Q 116.743882 98.738415 117.011508 95.495879 
L 118.736842 95.495879 
Q 118.506228 100.673937 117.207957 104.180733 
Q 115.650601 108.401743 113.008505 108.401743 
Q 110.730837 108.401743 109.182022 104.937801 
Q 107.143509 100.366825 107.143509 90.810629 
Q 107.143509 83.561347 108.675241 78.918949 
Q 110.329398 73.86945 113.239119 73.86945 
z
M 112.883234 73.86945 
L 112.883234 73.86945 
z
" style="fill:#0000ff;"/>
   </g>
   <g id="patch_10">
    <path clip-path="url(#p956f00d183)" d="M 113.122617 28.86521 
Q 114.911097 28.86521 116.215831 31.19414 
Q 118.106589 34.538483 118.529522 42.92263 
L 116.829498 42.92263 
Q 116.517136 38.236824 115.54135 36.094208 
Q 114.565564 33.951593 113.078389 33.951593 
Q 111.317551 33.951593 110.112331 38.413822 
Q 108.907111 42.866736 108.907111 51.688722 
Q 108.907111 59.30898 109.899482 64.09726 
Q 110.894618 68.88554 113.139203 68.88554 
Q 114.858576 68.88554 115.986397 65.531881 
Q 117.114218 62.168906 117.139096 54.651121 
L 113.166845 54.651121 
L 113.166845 49.853525 
L 118.736842 49.853525 
L 118.736842 72.732932 
L 117.631136 72.732932 
L 117.216496 67.227342 
Q 116.345752 70.459896 115.671271 71.717518 
Q 114.537921 73.86945 112.793669 73.86945 
Q 110.540792 73.86945 108.915404 68.95075 
Q 107.143509 62.774428 107.143509 52.005457 
Q 107.143509 41.264432 108.871175 34.920428 
Q 110.51315 28.86521 113.122617 28.86521 
z
M 112.837898 28.8 
L 112.837898 28.8 
z
" style="fill:#ffa600;"/>
   </g>
   <g id="patch_11">
    <path clip-path="url(#p956f00d183)" d="M 127.128728 133.967454 
L 125.156418 125.695299 
L 123.059601 133.967454 
L 127.128728 133.967454 
z
M 124.236761 122.91344 
L 126.226049 122.91344 
L 130.940351 141.64 
L 129.010487 141.64 
L 127.69467 136.031414 
L 122.555912 136.031414 
L 121.149545 141.64 
L 119.347018 141.64 
L 124.236761 122.91344 
z
M 125.147929 122.91344 
L 125.147929 122.91344 
z
" style="fill:#008000;"/>
   </g>
   <g id="patch_12">
    <path clip-path="url(#p956f00d183)" d="M 130.940351 97.864587 
L 130.940351 100.849062 
L 126.125616 100.849062 
L 126.125616 122.91344 
L 124.161752 122.91344 
L 124.161752 100.849062 
L 119.347018 100.849062 
L 119.347018 97.864587 
L 130.940351 97.864587 
z
" style="fill:#ff0000;"/>
   </g>
   <g id="patch_13">
    <path clip-path="url(#p956f00d183)" d="M 125.442628 69.654587 
Q 127.925287 69.654587 129.294735 72.338475 
Q 130.664184 75.016529 130.815079 78.4239 
L 129.089745 78.4239 
Q 128.796495 75.839199 127.919593 74.328054 
Q 127.04269 72.811073 125.459711 72.811073 
Q 123.529387 72.811073 122.342152 75.594149 
Q 121.154917 78.37139 121.154917 84.112577 
Q 121.154917 88.82105 122.225421 91.749989 
Q 123.298773 94.673094 125.425546 94.673094 
Q 127.381494 94.673094 128.406445 91.592457 
Q 128.947391 89.970455 129.215017 87.321574 
L 130.940351 87.321574 
Q 130.709737 91.551615 129.411466 94.416374 
Q 127.85411 97.864587 125.212014 97.864587 
Q 122.934346 97.864587 121.385531 95.034835 
Q 119.347018 91.30073 119.347018 83.494116 
Q 119.347018 77.572058 120.87875 73.779607 
Q 122.532907 69.654587 125.442628 69.654587 
z
M 125.086742 69.654587 
L 125.086742 69.654587 
z
" style="fill:#0000ff;"/>
   </g>
   <g id="patch_14">
    <path clip-path="url(#p956f00d183)" d="M 125.326126 28.859112 
Q 127.114606 28.859112 128.41934 30.970242 
Q 130.310098 34.001824 130.733031 41.601892 
L 129.033007 41.601892 
Q 128.720645 37.354299 127.744859 35.412059 
Q 126.769073 33.469819 125.281898 33.469819 
Q 123.52106 33.469819 122.31584 37.514745 
Q 121.11062 41.551225 121.11062 49.548185 
Q 121.11062 56.455803 122.102991 60.796286 
Q 123.098127 65.136769 125.342711 65.136769 
Q 127.062085 65.136769 128.189906 62.096742 
Q 129.317726 59.04827 129.342605 52.233543 
L 125.370354 52.233543 
L 125.370354 47.884615 
L 130.940351 47.884615 
L 130.940351 68.624356 
L 129.834644 68.624356 
L 129.420004 63.633644 
Q 128.54926 66.563893 127.874779 67.703903 
Q 126.74143 69.654587 124.997178 69.654587 
Q 122.744301 69.654587 121.118912 65.195881 
Q 119.347018 59.597164 119.347018 49.835299 
Q 119.347018 40.098768 121.074684 34.34805 
Q 122.716658 28.859112 125.326126 28.859112 
z
M 125.041406 28.8 
L 125.041406 28.8 
z
" style="fill:#ffa600;"/>
   </g>
   <g id="patch_15">
    <path clip-path="url(#p956f00d183)" d="M 139.332237 135.694345 
L 137.359927 129.284037 
L 135.26311 135.694345 
L 139.332237 135.694345 
z
M 136.44027 127.128303 
L 138.429558 127.128303 
L 143.14386 141.64 
L 141.213996 141.64 
L 139.898179 137.293761 
L 134.759421 137.293761 
L 133.353053 141.64 
L 131.550526 141.64 
L 136.44027 127.128303 
z
M 137.351438 127.128303 
L 137.351438 127.128303 
z
" style="fill:#008000;"/>
   </g>
   <g id="patch_16">
    <path clip-path="url(#p956f00d183)" d="M 143.14386 99.972018 
L 143.14386 103.207585 
L 138.329125 103.207585 
L 138.329125 127.128303 
L 136.365261 127.128303 
L 136.365261 103.207585 
L 131.550526 103.207585 
L 131.550526 99.972018 
L 143.14386 99.972018 
z
" style="fill:#ff0000;"/>
   </g>
   <g id="patch_17">
    <path clip-path="url(#p956f00d183)" d="M 137.646137 66.49344 
Q 140.128796 66.49344 141.498244 69.678579 
Q 142.867692 72.856794 143.018588 76.900535 
L 141.293254 76.900535 
Q 141.000004 73.833108 140.123102 72.039736 
Q 139.246199 70.239441 137.66322 70.239441 
Q 135.732895 70.239441 134.545661 73.542291 
Q 133.358426 76.838217 133.358426 83.651644 
Q 133.358426 89.239486 134.42893 92.715441 
Q 135.502281 96.184473 137.629054 96.184473 
Q 139.585002 96.184473 140.609953 92.528488 
Q 141.1509 90.603556 141.418526 87.459962 
L 143.14386 87.459962 
Q 142.913246 92.480018 141.614975 95.879807 
Q 140.057619 99.972018 137.415523 99.972018 
Q 135.137854 99.972018 133.58904 96.613774 
Q 131.550526 92.182277 131.550526 82.917678 
Q 131.550526 75.8896 133.082258 71.38886 
Q 134.736415 66.49344 137.646137 66.49344 
z
M 137.290251 66.49344 
L 137.290251 66.49344 
z
" style="fill:#0000ff;"/>
   </g>
   <g id="patch_18">
    <path clip-path="url(#p956f00d183)" d="M 137.529635 28.854538 
Q 139.318115 28.854538 140.622849 30.802318 
Q 142.513607 33.59933 142.93654 40.611338 
L 141.236516 40.611338 
Q 140.924154 36.692405 139.948368 34.900447 
Q 138.972582 33.10849 137.485406 33.10849 
Q 135.724569 33.10849 134.519348 36.840436 
Q 133.314128 40.564592 133.314128 47.942783 
Q 133.314128 54.315919 134.3065 58.320555 
Q 135.301636 62.325191 137.54622 62.325191 
Q 139.265594 62.325191 140.393415 59.520388 
Q 141.521235 56.707793 141.546114 50.420359 
L 137.573863 50.420359 
L 137.573863 46.407932 
L 143.14386 46.407932 
L 143.14386 65.542924 
L 142.038153 65.542924 
L 141.623513 60.938372 
Q 140.752769 63.64189 140.078288 64.693692 
Q 138.944939 66.49344 137.200687 66.49344 
Q 134.94781 66.49344 133.322421 62.379729 
Q 131.550526 57.214216 131.550526 48.207681 
Q 131.550526 39.224519 133.278193 33.918766 
Q 134.920167 28.854538 137.529635 28.854538 
z
M 137.244915 28.8 
L 137.244915 28.8 
z
" style="fill:#ffa600;"/>
   </g>
   <g id="patch_19">
    <path clip-path="url(#p956f00d183)" d="M 151.535745 135.694345 
L 149.563435 129.284037 
L 147.466618 135.694345 
L 151.535745 135.694345 
z
M 148.643779 127.128303 
L 150.633067 127.128303 
L 155.347368 141.64 
L 153.417504 141.64 
L 152.101688 137.293761 
L 146.962929 137.293761 
L 145.556562 141.64 
L 143.754035 141.64 
L 148.643779 127.128303 
z
M 149.554946 127.128303 
L 149.554946 127.128303 
z
" style="fill:#008000;"/>
   </g>
   <g id="patch_20">
    <path clip-path="url(#p956f00d183)" d="M 155.347368 104.186881 
L 155.347368 106.920263 
L 150.532634 106.920263 
L 150.532634 127.128303 
L 148.56877 127.128303 
L 148.56877 106.920263 
L 143.754035 106.920263 
L 143.754035 104.186881 
L 155.347368 104.186881 
z
" style="fill:#ff0000;"/>
   </g>
   <g id="patch_21">
    <path clip-path="url(#p956f00d183)" d="M 149.849646 75.976881 
Q 152.332305 75.976881 153.701753 78.660769 
Q 155.071201 81.338823 155.222097 84.746194 
L 153.496763 84.746194 
Q 153.203513 82.161493 152.32661 80.650347 
Q 151.449708 79.133367 149.866728 79.133367 
Q 147.936404 79.133367 146.749169 81.916442 
Q 145.561935 84.693683 145.561935 90.43487 
Q 145.561935 95.143344 146.632439 98.072283 
Q 147.70579 100.995387 149.832563 100.995387 
Q 151.788511 100.995387 152.813462 97.91475 
Q 153.354408 96.292748 153.622034 93.643867 
L 155.347368 93.643867 
Q 155.116754 97.873909 153.818483 100.738668 
Q 152.261127 104.186881 149.619032 104.186881 
Q 147.341363 104.186881 145.792549 101.357129 
Q 143.754035 97.623023 143.754035 89.816409 
Q 143.754035 83.894351 145.285767 80.1019 
Q 146.939924 75.976881 149.849646 75.976881 
z
M 149.49376 75.976881 
L 149.49376 75.976881 
z
" style="fill:#0000ff;"/>
   </g>
   <g id="patch_22">
    <path clip-path="url(#p956f00d183)" d="M 149.733143 28.868259 
Q 151.521624 28.868259 152.826357 31.306089 
Q 154.717116 34.806812 155.140048 43.582999 
L 153.440025 43.582999 
Q 153.127662 38.678086 152.151876 36.435283 
Q 151.17609 34.192479 149.688915 34.192479 
Q 147.928077 34.192479 146.722857 38.863361 
Q 145.517637 43.524492 145.517637 52.75899 
Q 145.517637 60.735569 146.510009 65.747747 
Q 147.505145 70.759925 149.749729 70.759925 
Q 151.469103 70.759925 152.596923 67.24945 
Q 153.724744 63.729224 153.749622 55.85991 
L 149.777372 55.85991 
L 149.777372 50.837981 
L 155.347368 50.837981 
L 155.347368 74.78722 
L 154.241662 74.78722 
L 153.827022 69.02419 
Q 152.956278 72.407898 152.281797 73.724326 
Q 151.148448 75.976881 149.404196 75.976881 
Q 147.151319 75.976881 145.52593 70.828184 
Q 143.754035 64.36306 143.754035 53.090535 
Q 143.754035 41.847265 145.481702 35.206617 
Q 147.123676 28.868259 149.733143 28.868259 
z
M 149.448424 28.8 
L 149.448424 28.8 
z
" style="fill:#ffa600;"/>
   </g>
   <g id="patch_23">
    <path clip-path="url(#p956f00d183)" d="M 163.739254 135.262622 
L 161.766944 128.386853 
L 159.670127 135.262622 
L 163.739254 135.262622 
z
M 160.847288 126.074587 
L 162.836576 126.074587 
L 167.550877 141.64 
L 165.621013 141.64 
L 164.305197 136.978174 
L 159.166438 136.978174 
L 157.760071 141.64 
L 155.957544 141.64 
L 160.847288 126.074587 
z
M 161.758455 126.074587 
L 161.758455 126.074587 
z
" style="fill:#008000;"/>
   </g>
   <g id="patch_24">
    <path clip-path="url(#p956f00d183)" d="M 167.550877 103.133165 
L 167.550877 105.866547 
L 162.736143 105.866547 
L 162.736143 126.074587 
L 160.772279 126.074587 
L 160.772279 105.866547 
L 155.957544 105.866547 
L 155.957544 103.133165 
L 167.550877 103.133165 
z
" style="fill:#ff0000;"/>
   </g>
   <g id="patch_25">
    <path clip-path="url(#p956f00d183)" d="M 162.053155 75.976881 
Q 164.535813 75.976881 165.905262 78.560519 
Q 167.27471 81.138541 167.425605 84.418638 
L 165.700271 84.418638 
Q 165.407022 81.930482 164.530119 80.475781 
Q 163.653217 79.015464 162.070237 79.015464 
Q 160.139913 79.015464 158.952678 81.694584 
Q 157.765443 84.368088 157.765443 89.894828 
Q 157.765443 94.427428 158.835948 97.246963 
Q 159.909299 100.060882 162.036072 100.060882 
Q 163.99202 100.060882 165.016971 97.095315 
Q 165.557917 95.533899 165.825543 92.98396 
L 167.550877 92.98396 
Q 167.320263 97.055999 166.021992 99.813752 
Q 164.464636 103.133165 161.822541 103.133165 
Q 159.544872 103.133165 157.996057 100.409112 
Q 155.957544 96.814485 155.957544 89.299467 
Q 155.957544 83.598614 157.489276 79.94782 
Q 159.143433 75.976881 162.053155 75.976881 
z
M 161.697269 75.976881 
L 161.697269 75.976881 
z
" style="fill:#0000ff;"/>
   </g>
   <g id="patch_26">
    <path clip-path="url(#p956f00d183)" d="M 161.936652 28.868259 
Q 163.725132 28.868259 165.029866 31.306089 
Q 166.920624 34.806812 167.343557 43.582999 
L 165.643533 43.582999 
Q 165.331171 38.678086 164.355385 36.435283 
Q 163.379599 34.192479 161.892424 34.192479 
Q 160.131586 34.192479 158.926366 38.863361 
Q 157.721146 43.524492 157.721146 52.75899 
Q 157.721146 60.735569 158.713517 65.747747 
Q 159.708653 70.759925 161.953238 70.759925 
Q 163.672611 70.759925 164.800432 67.24945 
Q 165.928253 63.729224 165.953131 55.85991 
L 161.98088 55.85991 
L 161.98088 50.837981 
L 167.550877 50.837981 
L 167.550877 74.78722 
L 166.445171 74.78722 
L 166.030531 69.02419 
Q 165.159787 72.407898 164.485306 73.724326 
Q 163.351957 75.976881 161.607704 75.976881 
Q 159.354827 75.976881 157.729439 70.828184 
Q 155.957544 64.36306 155.957544 53.090535 
Q 155.957544 41.847265 157.68521 35.206617 
Q 159.327185 28.868259 161.936652 28.868259 
z
M 161.651933 28.8 
L 161.651933 28.8 
z
" style="fill:#ffa600;"/>
   </g>
   <g id="patch_27">
    <path clip-path="url(#p956f00d183)" d="M 175.942763 135.694345 
L 173.970453 129.284037 
L 171.873636 135.694345 
L 175.942763 135.694345 
z
M 173.050796 127.128303 
L 175.040084 127.128303 
L 179.754386 141.64 
L 177.824522 141.64 
L 176.508705 137.293761 
L 171.369947 137.293761 
L 169.96358 141.64 
L 168.161053 141.64 
L 173.050796 127.128303 
z
M 173.961964 127.128303 
L 173.961964 127.128303 
z
" style="fill:#008000;"/>
   </g>
   <g id="patch_28">
    <path clip-path="url(#p956f00d183)" d="M 179.754386 109.455459 
L 179.754386 111.56111 
L 174.939651 111.56111 
L 174.939651 127.128303 
L 172.975787 127.128303 
L 172.975787 111.56111 
L 168.161053 111.56111 
L 168.161053 109.455459 
L 179.754386 109.455459 
z
" style="fill:#ff0000;"/>
   </g>
   <g id="patch_29">
    <path clip-path="url(#p956f00d183)" d="M 174.256663 71.762018 
Q 176.739322 71.762018 178.10877 75.348157 
Q 179.478219 78.926501 179.629114 83.479338 
L 177.90378 83.479338 
Q 177.61053 80.02573 176.733628 78.006578 
Q 175.856726 75.97963 174.273746 75.97963 
Q 172.343422 75.97963 171.156187 79.6983 
Q 169.968952 83.409174 169.968952 91.080394 
Q 169.968952 97.371729 171.039456 101.285298 
Q 172.112808 105.191072 174.239581 105.191072 
Q 176.195529 105.191072 177.22048 101.074808 
Q 177.761426 98.907532 178.029052 95.368169 
L 179.754386 95.368169 
Q 179.523772 101.020236 178.225501 104.84805 
Q 176.668145 109.455459 174.026049 109.455459 
Q 171.748381 109.455459 170.199566 105.674421 
Q 168.161053 100.68501 168.161053 90.254023 
Q 168.161053 82.341129 169.692785 77.273758 
Q 171.346942 71.762018 174.256663 71.762018 
z
M 173.900778 71.762018 
L 173.900778 71.762018 
z
" style="fill:#0000ff;"/>
   </g>
   <g id="patch_30">
    <path clip-path="url(#p956f00d183)" d="M 174.140161 28.862161 
Q 175.928641 28.862161 177.233375 31.082191 
Q 179.124133 34.270154 179.547066 42.262261 
L 177.847042 42.262261 
Q 177.53468 37.795561 176.558894 35.753134 
Q 175.583108 33.710706 174.095933 33.710706 
Q 172.335095 33.710706 171.129875 37.964283 
Q 169.924655 42.208981 169.924655 50.618454 
Q 169.924655 57.882392 170.917026 62.446773 
Q 171.912162 67.011154 174.156746 67.011154 
Q 175.87612 67.011154 177.003941 63.814311 
Q 178.131762 60.608588 178.15664 53.442332 
L 174.184389 53.442332 
L 174.184389 48.86907 
L 179.754386 48.86907 
L 179.754386 70.678644 
L 178.648679 70.678644 
L 178.234039 65.430493 
Q 177.363296 68.511895 176.688815 69.710711 
Q 175.555465 71.762018 173.811213 71.762018 
Q 171.558336 71.762018 169.932947 67.073315 
Q 168.161053 61.185796 168.161053 50.920378 
Q 168.161053 40.6816 169.888719 34.634239 
Q 171.530693 28.862161 174.140161 28.862161 
z
M 173.855441 28.8 
L 173.855441 28.8 
z
" style="fill:#ffa600;"/>
   </g>
   <g id="patch_31">
    <path clip-path="url(#p956f00d183)" d="M 188.146272 136.55779 
L 186.173962 131.078406 
L 184.077145 136.55779 
L 188.146272 136.55779 
z
M 185.254305 129.235734 
L 187.243593 129.235734 
L 191.957895 141.64 
L 190.028031 141.64 
L 188.712214 137.924934 
L 183.573456 137.924934 
L 182.167088 141.64 
L 180.364561 141.64 
L 185.254305 129.235734 
z
M 186.165473 129.235734 
L 186.165473 129.235734 
z
" style="fill:#008000;"/>
   </g>
   <g id="patch_32">
    <path clip-path="url(#p956f00d183)" d="M 191.957895 111.56289 
L 191.957895 113.668541 
L 187.14316 113.668541 
L 187.14316 129.235734 
L 185.179296 129.235734 
L 185.179296 113.668541 
L 180.364561 113.668541 
L 180.364561 111.56289 
L 191.957895 111.56289 
z
" style="fill:#ff0000;"/>
   </g>
   <g id="patch_33">
    <path clip-path="url(#p956f00d183)" d="M 186.460172 80.191743 
Q 188.942831 80.191743 190.312279 83.176382 
Q 191.681727 86.154532 191.832623 89.943725 
L 190.107289 89.943725 
Q 189.814039 87.069389 188.937137 85.388907 
Q 188.060234 83.701938 186.477255 83.701938 
Q 184.54693 83.701938 183.359696 86.796878 
Q 182.172461 89.88533 182.172461 96.269861 
Q 182.172461 101.505956 183.242965 104.763105 
Q 184.316316 108.013765 186.44309 108.013765 
Q 188.399038 108.013765 189.423988 104.587919 
Q 189.964935 102.784159 190.232561 99.838451 
L 191.957895 99.838451 
Q 191.727281 104.542501 190.42901 107.728278 
Q 188.871654 111.56289 186.229558 111.56289 
Q 183.951889 111.56289 182.403075 108.416043 
Q 180.364561 104.263502 180.364561 95.582097 
Q 180.364561 88.996427 181.896294 84.779003 
Q 183.55045 80.191743 186.460172 80.191743 
z
M 186.104286 80.191743 
L 186.104286 80.191743 
z
" style="fill:#0000ff;"/>
   </g>
   <g id="patch_34">
    <path clip-path="url(#p956f00d183)" d="M 186.34367 28.874358 
Q 188.13215 28.874358 189.436884 31.529987 
Q 191.327642 35.343471 191.750575 44.903738 
L 190.050551 44.903738 
Q 189.738189 39.560611 188.762403 37.117432 
Q 187.786617 34.674253 186.299441 34.674253 
Q 184.538604 34.674253 183.333384 39.762439 
Q 182.128163 44.840003 182.128163 54.899527 
Q 182.128163 63.588747 183.120535 69.048722 
Q 184.115671 74.508696 186.360255 74.508696 
Q 188.079629 74.508696 189.20745 70.684589 
Q 190.33527 66.84986 190.360149 58.277488 
L 186.387898 58.277488 
L 186.387898 52.806891 
L 191.957895 52.806891 
L 191.957895 78.895796 
L 190.852188 78.895796 
L 190.437548 72.617888 
Q 189.566804 76.303901 188.892323 77.737941 
Q 187.758974 80.191743 186.014722 80.191743 
Q 183.761845 80.191743 182.136456 74.583054 
Q 180.364561 67.540324 180.364561 55.260693 
Q 180.364561 43.012929 182.092228 35.778994 
Q 183.734202 28.874358 186.34367 28.874358 
z
M 186.05895 28.8 
L 186.05895 28.8 
z
" style="fill:#ffa600;"/>
   </g>
   <g id="patch_35">
    <path clip-path="url(#p956f00d183)" d="M 200.34978 134.830899 
L 198.377471 127.489668 
L 196.280653 134.830899 
L 200.34978 134.830899 
z
M 197.457814 125.020872 
L 199.447102 125.020872 
L 204.161404 141.64 
L 202.231539 141.64 
L 200.915723 136.662587 
L 195.776964 136.662587 
L 194.370597 141.64 
L 192.56807 141.64 
L 197.457814 125.020872 
z
M 198.368981 125.020872 
L 198.368981 125.020872 
z
" style="fill:#008000;"/>
   </g>
   <g id="patch_36">
    <path clip-path="url(#p956f00d183)" d="M 204.161404 103.133165 
L 204.161404 105.741001 
L 199.346669 105.741001 
L 199.346669 125.020872 
L 197.382805 125.020872 
L 197.382805 105.741001 
L 192.56807 105.741001 
L 192.56807 103.133165 
L 204.161404 103.133165 
z
" style="fill:#ff0000;"/>
   </g>
   <g id="patch_37">
    <path clip-path="url(#p956f00d183)" d="M 198.663681 70.708303 
Q 201.14634 70.708303 202.515788 73.793191 
Q 203.885236 76.871374 204.036132 80.787841 
L 202.310798 80.787841 
Q 202.017548 77.816959 201.140645 76.080033 
Q 200.263743 74.3364 198.680763 74.3364 
Q 196.750439 74.3364 195.563204 77.535295 
Q 194.37597 80.727485 194.37597 87.326464 
Q 194.37597 92.738432 195.446474 96.104984 
Q 196.519825 99.46483 198.646598 99.46483 
Q 200.602546 99.46483 201.627497 95.923914 
Q 202.168443 94.059569 202.43607 91.014918 
L 204.161404 91.014918 
Q 203.93079 95.87697 202.632518 99.169754 
Q 201.075163 103.133165 198.433067 103.133165 
Q 196.155398 103.133165 194.606584 99.880619 
Q 192.56807 95.5886 192.56807 86.615598 
Q 192.56807 79.808724 194.099802 75.449643 
Q 195.753959 70.708303 198.663681 70.708303 
z
M 198.307795 70.708303 
L 198.307795 70.708303 
z
" style="fill:#0000ff;"/>
   </g>
   <g id="patch_38">
    <path clip-path="url(#p956f00d183)" d="M 198.547178 28.860636 
Q 200.335659 28.860636 201.640393 31.026216 
Q 203.531151 34.135989 203.954084 41.932077 
L 202.25406 41.932077 
Q 201.941698 37.57493 200.965912 35.582596 
Q 199.990125 33.590263 198.50295 33.590263 
Q 196.742112 33.590263 195.536892 37.739514 
Q 194.331672 41.880103 194.331672 50.08332 
Q 194.331672 57.169097 195.324044 61.621529 
Q 196.31918 66.073962 198.563764 66.073962 
Q 200.283138 66.073962 201.410958 62.955527 
Q 202.538779 59.828429 202.563658 52.837937 
L 198.591407 52.837937 
L 198.591407 48.376843 
L 204.161404 48.376843 
L 204.161404 69.6515 
L 203.055697 69.6515 
L 202.641057 64.532069 
Q 201.770313 67.537894 201.095832 68.707307 
Q 199.962483 70.708303 198.218231 70.708303 
Q 195.965354 70.708303 194.339965 66.134598 
Q 192.56807 60.39148 192.56807 50.377838 
Q 192.56807 40.390184 194.295737 34.491144 
Q 195.937711 28.860636 198.547178 28.860636 
z
M 198.262459 28.8 
L 198.262459 28.8 
z
" style="fill:#ffa600;"/>
   </g>
   <g id="patch_39">
    <path clip-path="url(#p956f00d183)" d="M 216.364912 126.074587 
L 216.364912 127.929146 
L 211.550178 127.929146 
L 211.550178 141.64 
L 209.586314 141.64 
L 209.586314 127.929146 
L 204.771579 127.929146 
L 204.771579 126.074587 
L 216.364912 126.074587 
z
" style="fill:#ff0000;"/>
   </g>
   <g id="patch_40">
    <path clip-path="url(#p956f00d183)" d="M 212.553289 118.402041 
L 210.580979 110.129886 
L 208.484162 118.402041 
L 212.553289 118.402041 
z
M 209.661323 107.348028 
L 211.650611 107.348028 
L 216.364912 126.074587 
L 214.435048 126.074587 
L 213.119232 120.466001 
L 207.980473 120.466001 
L 206.574106 126.074587 
L 204.771579 126.074587 
L 209.661323 107.348028 
z
M 210.57249 107.348028 
L 210.57249 107.348028 
z
" style="fill:#008000;"/>
   </g>
   <g id="patch_41">
    <path clip-path="url(#p956f00d183)" d="M 210.86719 80.191743 
Q 213.349848 80.191743 214.719297 82.775381 
Q 216.088745 85.353403 216.239641 88.6335 
L 214.514307 88.6335 
Q 214.221057 86.145344 213.344154 84.690644 
Q 212.467252 83.230326 210.884272 83.230326 
Q 208.953948 83.230326 207.766713 85.909447 
Q 206.579478 88.582951 206.579478 94.10969 
Q 206.579478 98.64229 207.649983 101.461826 
Q 208.723334 104.275745 210.850107 104.275745 
Q 212.806055 104.275745 213.831006 101.310177 
Q 214.371952 99.748761 214.639578 97.198823 
L 216.364912 97.198823 
Q 216.134298 101.270861 214.836027 104.028614 
Q 213.278671 107.348028 210.636576 107.348028 
Q 208.358907 107.348028 206.810092 104.623974 
Q 204.771579 101.029347 204.771579 93.51433 
Q 204.771579 87.813476 206.303311 84.162683 
Q 207.957468 80.191743 210.86719 80.191743 
z
M 210.511304 80.191743 
L 210.511304 80.191743 
z
" style="fill:#0000ff;"/>
   </g>
   <g id="patch_42">
    <path clip-path="url(#p956f00d183)" d="M 210.750687 28.874358 
Q 212.539168 28.874358 213.843901 31.529987 
Q 215.73466 35.343471 216.157592 44.903738 
L 214.457568 44.903738 
Q 214.145206 39.560611 213.16942 37.117432 
Q 212.193634 34.674253 210.706459 34.674253 
Q 208.945621 34.674253 207.740401 39.762439 
Q 206.535181 44.840003 206.535181 54.899527 
Q 206.535181 63.588747 207.527553 69.048722 
Q 208.522688 74.508696 210.767273 74.508696 
Q 212.486647 74.508696 213.614467 70.684589 
Q 214.742288 66.84986 214.767166 58.277488 
L 210.794915 58.277488 
L 210.794915 52.806891 
L 216.364912 52.806891 
L 216.364912 78.895796 
L 215.259206 78.895796 
L 214.844566 72.617888 
Q 213.973822 76.303901 213.299341 77.737941 
Q 212.165992 80.191743 210.421739 80.191743 
Q 208.168862 80.191743 206.543474 74.583054 
Q 204.771579 67.540324 204.771579 55.260693 
Q 204.771579 43.012929 206.499245 35.778994 
Q 208.14122 28.874358 210.750687 28.874358 
z
M 210.465968 28.8 
L 210.465968 28.8 
z
" style="fill:#ffa600;"/>
   </g>
   <g id="patch_43">
    <path clip-path="url(#p956f00d183)" d="M 224.756798 133.104009 
L 222.784488 123.90093 
L 220.687671 133.104009 
L 224.756798 133.104009 
z
M 221.864831 120.806009 
L 223.85412 120.806009 
L 228.568421 141.64 
L 226.638557 141.64 
L 225.32274 135.40024 
L 220.183982 135.40024 
L 218.777615 141.64 
L 216.975088 141.64 
L 221.864831 120.806009 
z
M 222.775999 120.806009 
L 222.775999 120.806009 
z
" style="fill:#008000;"/>
   </g>
   <g id="patch_44">
    <path clip-path="url(#p956f00d183)" d="M 228.568421 96.810872 
L 228.568421 99.6698 
L 223.753686 99.6698 
L 223.753686 120.806009 
L 221.789822 120.806009 
L 221.789822 99.6698 
L 216.975088 99.6698 
L 216.975088 96.810872 
L 228.568421 96.810872 
z
" style="fill:#ff0000;"/>
   </g>
   <g id="patch_45">
    <path clip-path="url(#p956f00d183)" d="M 223.070698 71.762018 
Q 225.553357 71.762018 226.922805 74.145156 
Q 228.292254 76.523114 228.443149 79.548663 
L 226.717815 79.548663 
Q 226.424565 77.253597 225.547663 75.911787 
Q 224.670761 74.564796 223.087781 74.564796 
Q 221.157457 74.564796 219.970222 77.036006 
Q 218.782987 79.502036 218.782987 84.599879 
Q 218.782987 88.780732 219.853491 91.381461 
Q 220.926843 93.97701 223.053616 93.97701 
Q 225.009564 93.97701 226.034515 91.241582 
Q 226.575461 89.801337 226.843087 87.449284 
L 228.568421 87.449284 
Q 228.337807 91.205316 227.039536 93.749057 
Q 225.48218 96.810872 222.840084 96.810872 
Q 220.562416 96.810872 219.013601 94.298215 
Q 216.975088 90.982545 216.975088 84.050722 
Q 216.975088 78.792276 218.50682 75.424798 
Q 220.160977 71.762018 223.070698 71.762018 
z
M 222.714813 71.762018 
L 222.714813 71.762018 
z
" style="fill:#0000ff;"/>
   </g>
   <g id="patch_46">
    <path clip-path="url(#p956f00d183)" d="M 222.954196 28.862161 
Q 224.742676 28.862161 226.04741 31.082191 
Q 227.938168 34.270154 228.361101 42.262261 
L 226.661077 42.262261 
Q 226.348715 37.795561 225.372929 35.753134 
Q 224.397143 33.710706 222.909968 33.710706 
Q 221.14913 33.710706 219.94391 37.964283 
Q 218.73869 42.208981 218.73869 50.618454 
Q 218.73869 57.882392 219.731061 62.446773 
Q 220.726197 67.011154 222.970782 67.011154 
Q 224.690155 67.011154 225.817976 63.814311 
Q 226.945797 60.608588 226.970675 53.442332 
L 222.998424 53.442332 
L 222.998424 48.86907 
L 228.568421 48.86907 
L 228.568421 70.678644 
L 227.462714 70.678644 
L 227.048075 65.430493 
Q 226.177331 68.511895 225.50285 69.710711 
Q 224.3695 71.762018 222.625248 71.762018 
Q 220.372371 71.762018 218.746982 67.073315 
Q 216.975088 61.185796 216.975088 50.920378 
Q 216.975088 40.6816 218.702754 34.634239 
Q 220.344728 28.862161 222.954196 28.862161 
z
M 222.669477 28.8 
L 222.669477 28.8 
z
" style="fill:#ffa600;"/>
   </g>
   <g id="patch_47">
    <path clip-path="url(#p956f00d183)" d="M 236.960307 136.55779 
L 234.987997 131.078406 
L 232.89118 136.55779 
L 236.960307 136.55779 
z
M 234.06834 129.235734 
L 236.057628 129.235734 
L 240.77193 141.64 
L 238.842066 141.64 
L 237.526249 137.924934 
L 232.387491 137.924934 
L 230.981124 141.64 
L 229.178596 141.64 
L 234.06834 129.235734 
z
M 234.979508 129.235734 
L 234.979508 129.235734 
z
" style="fill:#008000;"/>
   </g>
   <g id="patch_48">
    <path clip-path="url(#p956f00d183)" d="M 235.274207 106.294312 
Q 237.756866 106.294312 239.126314 108.47695 
Q 240.495763 110.654843 240.646658 113.425844 
L 238.921324 113.425844 
Q 238.628074 111.323869 237.751172 110.094949 
Q 236.874269 108.861284 235.29129 108.861284 
Q 233.360966 108.861284 232.173731 111.124584 
Q 230.986496 113.38314 230.986496 118.052087 
Q 230.986496 121.881193 232.057 124.263115 
Q 233.130352 126.640293 235.257125 126.640293 
Q 237.213073 126.640293 238.238023 124.135004 
Q 238.77897 122.815932 239.046596 120.661763 
L 240.77193 120.661763 
Q 240.541316 124.10179 239.243045 126.431519 
Q 237.685689 129.235734 235.043593 129.235734 
Q 232.765925 129.235734 231.21711 126.934474 
Q 229.178596 123.897761 229.178596 117.549132 
Q 229.178596 112.733094 230.710329 109.648931 
Q 232.364485 106.294312 235.274207 106.294312 
z
M 234.918321 106.294312 
L 234.918321 106.294312 
z
" style="fill:#0000ff;"/>
   </g>
   <g id="patch_49">
    <path clip-path="url(#p956f00d183)" d="M 240.77193 73.86945 
L 240.77193 77.732747 
L 235.957195 77.732747 
L 235.957195 106.294312 
L 233.993331 106.294312 
L 233.993331 77.732747 
L 229.178596 77.732747 
L 229.178596 73.86945 
L 240.77193 73.86945 
z
" style="fill:#ff0000;"/>
   </g>
   <g id="patch_50">
    <path clip-path="url(#p956f00d183)" d="M 235.157705 28.86521 
Q 236.946185 28.86521 238.250919 31.19414 
Q 240.141677 34.538483 240.56461 42.92263 
L 238.864586 42.92263 
Q 238.552224 38.236824 237.576438 36.094208 
Q 236.600652 33.951593 235.113476 33.951593 
Q 233.352639 33.951593 232.147419 38.413822 
Q 230.942198 42.866736 230.942198 51.688722 
Q 230.942198 59.30898 231.93457 64.09726 
Q 232.929706 68.88554 235.17429 68.88554 
Q 236.893664 68.88554 238.021485 65.531881 
Q 239.149305 62.168906 239.174184 54.651121 
L 235.201933 54.651121 
L 235.201933 49.853525 
L 240.77193 49.853525 
L 240.77193 72.732932 
L 239.666223 72.732932 
L 239.251583 67.227342 
Q 238.380839 70.459896 237.706358 71.717518 
Q 236.573009 73.86945 234.828757 73.86945 
Q 232.57588 73.86945 230.950491 68.95075 
Q 229.178596 62.774428 229.178596 52.005457 
Q 229.178596 41.264432 230.906263 34.920428 
Q 232.548237 28.86521 235.157705 28.86521 
z
M 234.872985 28.8 
L 234.872985 28.8 
z
" style="fill:#ffa600;"/>
   </g>
   <g id="patch_51">
    <path clip-path="url(#p956f00d183)" d="M 249.163815 135.694345 
L 247.191506 129.284037 
L 245.094688 135.694345 
L 249.163815 135.694345 
z
M 246.271849 127.128303 
L 248.261137 127.128303 
L 252.975439 141.64 
L 251.045574 141.64 
L 249.729758 137.293761 
L 244.591 137.293761 
L 243.184632 141.64 
L 241.382105 141.64 
L 246.271849 127.128303 
z
M 247.183016 127.128303 
L 247.183016 127.128303 
z
" style="fill:#008000;"/>
   </g>
   <g id="patch_52">
    <path clip-path="url(#p956f00d183)" d="M 252.975439 108.401743 
L 252.975439 110.632941 
L 248.160704 110.632941 
L 248.160704 127.128303 
L 246.19684 127.128303 
L 246.19684 110.632941 
L 241.382105 110.632941 
L 241.382105 108.401743 
L 252.975439 108.401743 
z
" style="fill:#ff0000;"/>
   </g>
   <g id="patch_53">
    <path clip-path="url(#p956f00d183)" d="M 247.477716 78.084312 
Q 249.960375 78.084312 251.329823 80.9687 
Q 252.699271 83.846818 252.850167 87.508738 
L 251.124833 87.508738 
Q 250.831583 84.730946 249.954681 83.10691 
Q 249.077778 81.476604 247.494798 81.476604 
Q 245.564474 81.476604 244.37724 84.467589 
Q 243.190005 87.452304 243.190005 93.622387 
Q 243.190005 98.682608 244.260509 101.830354 
Q 245.33386 104.971829 247.460633 104.971829 
Q 249.416581 104.971829 250.441532 101.661053 
Q 250.982479 99.917879 251.250105 97.071113 
L 252.975439 97.071113 
Q 252.744825 101.61716 251.446554 104.695931 
Q 249.889198 108.401743 247.247102 108.401743 
Q 244.969433 108.401743 243.420619 105.360594 
Q 241.382105 101.347532 241.382105 92.957724 
Q 241.382105 86.593258 242.913837 82.517492 
Q 244.567994 78.084312 247.477716 78.084312 
z
M 247.12183 78.084312 
L 247.12183 78.084312 
z
" style="fill:#0000ff;"/>
   </g>
   <g id="patch_54">
    <path clip-path="url(#p956f00d183)" d="M 247.361214 28.871308 
Q 249.149694 28.871308 250.454428 31.418038 
Q 252.345186 35.075142 252.768119 44.243369 
L 251.068095 44.243369 
Q 250.755733 39.119348 249.779947 36.776357 
Q 248.804161 34.433366 247.316985 34.433366 
Q 245.556148 34.433366 244.350927 39.3129 
Q 243.145707 44.182247 243.145707 53.829259 
Q 243.145707 62.162158 244.138079 67.398234 
Q 245.133215 72.634311 247.377799 72.634311 
Q 249.097173 72.634311 250.224994 68.96702 
Q 251.352814 65.289542 251.377693 57.068699 
L 247.405442 57.068699 
L 247.405442 51.822436 
L 252.975439 51.822436 
L 252.975439 76.841508 
L 251.869732 76.841508 
L 251.455092 70.821039 
Q 250.584348 74.3559 249.909867 75.731134 
Q 248.776518 78.084312 247.032266 78.084312 
Q 244.779389 78.084312 243.154 72.705619 
Q 241.382105 65.951692 241.382105 54.175614 
Q 241.382105 42.430097 243.109772 35.492805 
Q 244.751746 28.871308 247.361214 28.871308 
z
M 247.076494 28.8 
L 247.076494 28.8 
z
" style="fill:#ffa600;"/>
   </g>
   <g id="patch_55">
    <path clip-path="url(#p956f00d183)" d="M 261.367324 135.694345 
L 259.395014 129.284037 
L 257.298197 135.694345 
L 261.367324 135.694345 
z
M 258.475358 127.128303 
L 260.464646 127.128303 
L 265.178947 141.64 
L 263.249083 141.64 
L 261.933267 137.293761 
L 256.794508 137.293761 
L 255.388141 141.64 
L 253.585614 141.64 
L 258.475358 127.128303 
z
M 259.386525 127.128303 
L 259.386525 127.128303 
z
" style="fill:#008000;"/>
   </g>
   <g id="patch_56">
    <path clip-path="url(#p956f00d183)" d="M 265.178947 97.864587 
L 265.178947 101.351246 
L 260.364213 101.351246 
L 260.364213 127.128303 
L 258.400349 127.128303 
L 258.400349 101.351246 
L 253.585614 101.351246 
L 253.585614 97.864587 
L 265.178947 97.864587 
z
" style="fill:#ff0000;"/>
   </g>
   <g id="patch_57">
    <path clip-path="url(#p956f00d183)" d="M 259.681225 65.439725 
Q 262.163884 65.439725 263.533332 68.524613 
Q 264.90278 71.602796 265.053676 75.519263 
L 263.328342 75.519263 
Q 263.035092 72.548381 262.158189 70.811455 
Q 261.281287 69.067822 259.698307 69.067822 
Q 257.767983 69.067822 256.580748 72.266718 
Q 255.393514 75.458907 255.393514 82.057886 
Q 255.393514 87.469854 256.464018 90.836406 
Q 257.537369 94.196252 259.664142 94.196252 
Q 261.62009 94.196252 262.645041 90.655336 
Q 263.185987 88.790991 263.453613 85.74634 
L 265.178947 85.74634 
Q 264.948333 90.608393 263.650062 93.901176 
Q 262.092706 97.864587 259.450611 97.864587 
Q 257.172942 97.864587 255.624127 94.612041 
Q 253.585614 90.320022 253.585614 81.34702 
Q 253.585614 74.540146 255.117346 70.181065 
Q 256.771503 65.439725 259.681225 65.439725 
z
M 259.325339 65.439725 
L 259.325339 65.439725 
z
" style="fill:#0000ff;"/>
   </g>
   <g id="patch_58">
    <path clip-path="url(#p956f00d183)" d="M 259.564722 28.853013 
Q 261.353203 28.853013 262.657936 30.746343 
Q 264.548695 33.465165 264.971627 40.281154 
L 263.271604 40.281154 
Q 262.959241 36.471774 261.983455 34.72991 
Q 261.007669 32.988046 259.520494 32.988046 
Q 257.759656 32.988046 256.554436 36.615667 
Q 255.349216 40.235714 255.349216 47.407649 
Q 255.349216 53.602625 256.341588 57.495312 
Q 257.336724 61.387998 259.581308 61.387998 
Q 261.300682 61.387998 262.428502 58.661603 
Q 263.556323 55.927634 263.581201 49.815964 
L 259.608951 49.815964 
L 259.608951 45.915704 
L 265.178947 45.915704 
L 265.178947 64.51578 
L 264.073241 64.51578 
L 263.658601 60.039947 
Q 262.787857 62.667889 262.113376 63.690288 
Q 260.980027 65.439725 259.235775 65.439725 
Q 256.982897 65.439725 255.357509 61.441012 
Q 253.585614 56.4199 253.585614 47.665141 
Q 253.585614 38.933103 255.313281 33.775672 
Q 256.955255 28.853013 259.564722 28.853013 
z
M 259.280003 28.8 
L 259.280003 28.8 
z
" style="fill:#ffa600;"/>
   </g>
   <g id="patch_59">
    <path clip-path="url(#p956f00d183)" d="M 273.570833 132.672286 
L 271.598523 123.003746 
L 269.501706 132.672286 
L 273.570833 132.672286 
z
M 270.678867 119.752294 
L 272.668155 119.752294 
L 277.382456 141.64 
L 275.452592 141.64 
L 274.136776 135.084653 
L 268.998017 135.084653 
L 267.59165 141.64 
L 265.789123 141.64 
L 270.678867 119.752294 
z
M 271.590034 119.752294 
L 271.590034 119.752294 
z
" style="fill:#008000;"/>
   </g>
   <g id="patch_60">
    <path clip-path="url(#p956f00d183)" d="M 277.382456 97.864587 
L 277.382456 100.472423 
L 272.567721 100.472423 
L 272.567721 119.752294 
L 270.603857 119.752294 
L 270.603857 100.472423 
L 265.789123 100.472423 
L 265.789123 97.864587 
L 277.382456 97.864587 
z
" style="fill:#ff0000;"/>
   </g>
   <g id="patch_61">
    <path clip-path="url(#p956f00d183)" d="M 271.884733 65.439725 
Q 274.367392 65.439725 275.736841 68.524613 
Q 277.106289 71.602796 277.257184 75.519263 
L 275.53185 75.519263 
Q 275.238601 72.548381 274.361698 70.811455 
Q 273.484796 69.067822 271.901816 69.067822 
Q 269.971492 69.067822 268.784257 72.266718 
Q 267.597022 75.458907 267.597022 82.057886 
Q 267.597022 87.469854 268.667527 90.836406 
Q 269.740878 94.196252 271.867651 94.196252 
Q 273.823599 94.196252 274.84855 90.655336 
Q 275.389496 88.790991 275.657122 85.74634 
L 277.382456 85.74634 
Q 277.151842 90.608393 275.853571 93.901176 
Q 274.296215 97.864587 271.65412 97.864587 
Q 269.376451 97.864587 267.827636 94.612041 
Q 265.789123 90.320022 265.789123 81.34702 
Q 265.789123 74.540146 267.320855 70.181065 
Q 268.975012 65.439725 271.884733 65.439725 
z
M 271.528848 65.439725 
L 271.528848 65.439725 
z
" style="fill:#0000ff;"/>
   </g>
   <g id="patch_62">
    <path clip-path="url(#p956f00d183)" d="M 271.768231 28.853013 
Q 273.556711 28.853013 274.861445 30.746343 
Q 276.752203 33.465165 277.175136 40.281154 
L 275.475112 40.281154 
Q 275.16275 36.471774 274.186964 34.72991 
Q 273.211178 32.988046 271.724003 32.988046 
Q 269.963165 32.988046 268.757945 36.615667 
Q 267.552725 40.235714 267.552725 47.407649 
Q 267.552725 53.602625 268.545096 57.495312 
Q 269.540232 61.387998 271.784817 61.387998 
Q 273.50419 61.387998 274.632011 58.661603 
Q 275.759832 55.927634 275.78471 49.815964 
L 271.812459 49.815964 
L 271.812459 45.915704 
L 277.382456 45.915704 
L 277.382456 64.51578 
L 276.27675 64.51578 
L 275.86211 60.039947 
Q 274.991366 62.667889 274.316885 63.690288 
Q 273.183535 65.439725 271.439283 65.439725 
Q 269.186406 65.439725 267.561018 61.441012 
Q 265.789123 56.4199 265.789123 47.665141 
Q 265.789123 38.933103 267.516789 33.775672 
Q 269.158764 28.853013 271.768231 28.853013 
z
M 271.483512 28.8 
L 271.483512 28.8 
z
" style="fill:#ffa600;"/>
   </g>
   <g id="patch_63">
    <path clip-path="url(#p956f00d183)" d="M 285.774342 133.535731 
L 283.802032 124.798115 
L 281.705215 133.535731 
L 285.774342 133.535731 
z
M 282.882375 121.859725 
L 284.871663 121.859725 
L 289.585965 141.64 
L 287.656101 141.64 
L 286.340284 135.715827 
L 281.201526 135.715827 
L 279.795159 141.64 
L 277.992632 141.64 
L 282.882375 121.859725 
z
M 283.793543 121.859725 
L 283.793543 121.859725 
z
" style="fill:#008000;"/>
   </g>
   <g id="patch_64">
    <path clip-path="url(#p956f00d183)" d="M 289.585965 102.07945 
L 289.585965 104.436193 
L 284.77123 104.436193 
L 284.77123 121.859725 
L 282.807366 121.859725 
L 282.807366 104.436193 
L 277.992632 104.436193 
L 277.992632 102.07945 
L 289.585965 102.07945 
z
" style="fill:#ff0000;"/>
   </g>
   <g id="patch_65">
    <path clip-path="url(#p956f00d183)" d="M 284.088242 67.547156 
Q 286.570901 67.547156 287.940349 70.832545 
Q 289.309798 74.110791 289.460693 78.281807 
L 287.735359 78.281807 
Q 287.442109 75.117835 286.565207 73.268018 
Q 285.688304 71.411059 284.105325 71.411059 
Q 282.175001 71.411059 280.987766 74.817864 
Q 279.800531 78.217528 279.800531 85.245403 
Q 279.800531 91.009118 280.871035 94.594477 
Q 281.944387 98.172694 284.07116 98.172694 
Q 286.027108 98.172694 287.052059 94.401639 
Q 287.593005 92.416121 287.860631 89.173585 
L 289.585965 89.173585 
Q 289.355351 94.351644 288.05708 97.858439 
Q 286.499724 102.07945 283.857628 102.07945 
Q 281.57996 102.07945 280.031145 98.615507 
Q 277.992632 94.044531 277.992632 84.488335 
Q 277.992632 77.239053 279.524364 72.596656 
Q 281.178521 67.547156 284.088242 67.547156 
z
M 283.732357 67.547156 
L 283.732357 67.547156 
z
" style="fill:#0000ff;"/>
   </g>
   <g id="patch_66">
    <path clip-path="url(#p956f00d183)" d="M 283.97174 28.856062 
Q 285.76022 28.856062 287.064954 30.858292 
Q 288.955712 33.733495 289.378645 40.941523 
L 287.678621 40.941523 
Q 287.366259 36.913036 286.390473 35.070985 
Q 285.414687 33.228933 283.927512 33.228933 
Q 282.166674 33.228933 280.961454 37.065206 
Q 279.756234 40.89347 279.756234 48.477917 
Q 279.756234 55.029214 280.748605 59.145799 
Q 281.743741 63.262384 283.988325 63.262384 
Q 285.707699 63.262384 286.83552 60.379172 
Q 287.963341 57.487952 287.988219 51.024754 
L 284.015968 51.024754 
L 284.015968 46.90016 
L 289.585965 46.90016 
L 289.585965 66.570068 
L 288.480258 66.570068 
L 288.065618 61.836796 
Q 287.194874 64.615891 286.520393 65.697095 
Q 285.387044 67.547156 283.642792 67.547156 
Q 281.389915 67.547156 279.764526 63.318446 
Q 277.992632 58.008532 277.992632 48.75022 
Q 277.992632 39.515935 279.720298 34.061861 
Q 281.362272 28.856062 283.97174 28.856062 
z
M 283.68702 28.8 
L 283.68702 28.8 
z
" style="fill:#ffa600;"/>
   </g>
   <g id="patch_67">
    <path clip-path="url(#p956f00d183)" d="M 297.977851 134.399177 
L 296.005541 126.592484 
L 293.908724 134.399177 
L 297.977851 134.399177 
z
M 295.085884 123.967156 
L 297.075172 123.967156 
L 301.789474 141.64 
L 299.85961 141.64 
L 298.543793 136.347001 
L 293.405035 136.347001 
L 291.998667 141.64 
L 290.19614 141.64 
L 295.085884 123.967156 
z
M 295.997052 123.967156 
L 295.997052 123.967156 
z
" style="fill:#008000;"/>
   </g>
   <g id="patch_68">
    <path clip-path="url(#p956f00d183)" d="M 301.789474 104.186881 
L 301.789474 106.543624 
L 296.974739 106.543624 
L 296.974739 123.967156 
L 295.010875 123.967156 
L 295.010875 106.543624 
L 290.19614 106.543624 
L 290.19614 104.186881 
L 301.789474 104.186881 
z
" style="fill:#ff0000;"/>
   </g>
   <g id="patch_69">
    <path clip-path="url(#p956f00d183)" d="M 296.291751 81.245459 
Q 298.77441 81.245459 300.143858 83.428097 
Q 301.513306 85.60599 301.664202 88.376991 
L 299.938868 88.376991 
Q 299.645618 86.275016 298.768716 85.046096 
Q 297.891813 83.812431 296.308834 83.812431 
Q 294.378509 83.812431 293.191275 86.075731 
Q 292.00404 88.334287 292.00404 93.003234 
Q 292.00404 96.83234 293.074544 99.214262 
Q 294.147895 101.59144 296.274669 101.59144 
Q 298.230616 101.59144 299.255567 99.086151 
Q 299.796514 97.767078 300.06414 95.61291 
L 301.789474 95.61291 
Q 301.55886 99.052937 300.260589 101.382666 
Q 298.703233 104.186881 296.061137 104.186881 
Q 293.783468 104.186881 292.234654 101.885621 
Q 290.19614 98.848908 290.19614 92.500278 
Q 290.19614 87.68424 291.727873 84.600078 
Q 293.382029 81.245459 296.291751 81.245459 
z
M 295.935865 81.245459 
L 295.935865 81.245459 
z
" style="fill:#0000ff;"/>
   </g>
   <g id="patch_70">
    <path clip-path="url(#p956f00d183)" d="M 296.175249 28.875882 
Q 297.963729 28.875882 299.268463 31.585962 
Q 301.159221 35.477636 301.582154 45.233922 
L 299.88213 45.233922 
Q 299.569768 39.781242 298.593982 37.287969 
Q 297.618196 34.794696 296.13102 34.794696 
Q 294.370183 34.794696 293.164962 39.987208 
Q 291.959742 45.16888 291.959742 55.434661 
Q 291.959742 64.302042 292.952114 69.873965 
Q 293.94725 75.445889 296.191834 75.445889 
Q 297.911208 75.445889 299.039029 71.543374 
Q 300.166849 67.630019 300.191728 58.881883 
L 296.219477 58.881883 
L 296.219477 53.299119 
L 301.789474 53.299119 
L 301.789474 79.92294 
L 300.683767 79.92294 
L 300.269127 73.516312 
Q 299.398383 77.277902 298.723902 78.741345 
Q 297.590553 81.245459 295.846301 81.245459 
Q 293.593424 81.245459 291.968035 75.521771 
Q 290.19614 68.33464 290.19614 55.803232 
Q 290.19614 43.304346 291.923807 35.922089 
Q 293.565781 28.875882 296.175249 28.875882 
z
M 295.890529 28.8 
L 295.890529 28.8 
z
" style="fill:#ffa600;"/>
   </g>
   <g id="patch_71">
    <path clip-path="url(#p956f00d183)" d="M 313.992982 122.91344 
L 313.992982 125.144638 
L 309.178248 125.144638 
L 309.178248 141.64 
L 307.214384 141.64 
L 307.214384 125.144638 
L 302.399649 125.144638 
L 302.399649 122.91344 
L 313.992982 122.91344 
z
" style="fill:#ff0000;"/>
   </g>
   <g id="patch_72">
    <path clip-path="url(#p956f00d183)" d="M 310.181359 113.945726 
L 308.209049 104.277186 
L 306.112232 113.945726 
L 310.181359 113.945726 
z
M 307.289393 101.025734 
L 309.278681 101.025734 
L 313.992982 122.91344 
L 312.063118 122.91344 
L 310.747302 116.358094 
L 305.608543 116.358094 
L 304.202176 122.91344 
L 302.399649 122.91344 
L 307.289393 101.025734 
z
M 308.20056 101.025734 
L 308.20056 101.025734 
z
" style="fill:#008000;"/>
   </g>
   <g id="patch_73">
    <path clip-path="url(#p956f00d183)" d="M 308.49526 67.547156 
Q 310.977919 67.547156 312.347367 70.732295 
Q 313.716815 73.910509 313.867711 77.954251 
L 312.142377 77.954251 
Q 311.849127 74.886824 310.972224 73.093452 
Q 310.095322 71.293156 308.512342 71.293156 
Q 306.582018 71.293156 305.394783 74.596007 
Q 304.207549 77.891933 304.207549 84.70536 
Q 304.207549 90.293201 305.278053 93.769157 
Q 306.351404 97.238189 308.478177 97.238189 
Q 310.434125 97.238189 311.459076 93.582203 
Q 312.000022 91.657271 312.267648 88.513678 
L 313.992982 88.513678 
Q 313.762369 93.533734 312.464097 96.933523 
Q 310.906741 101.025734 308.264646 101.025734 
Q 305.986977 101.025734 304.438163 97.66749 
Q 302.399649 93.235992 302.399649 83.971393 
Q 302.399649 76.943315 303.931381 72.442576 
Q 305.585538 67.547156 308.49526 67.547156 
z
M 308.139374 67.547156 
L 308.139374 67.547156 
z
" style="fill:#0000ff;"/>
   </g>
   <g id="patch_74">
    <path clip-path="url(#p956f00d183)" d="M 308.378757 28.856062 
Q 310.167238 28.856062 311.471971 30.858292 
Q 313.36273 33.733495 313.785662 40.941523 
L 312.085639 40.941523 
Q 311.773277 36.913036 310.79749 35.070985 
Q 309.821704 33.228933 308.334529 33.228933 
Q 306.573691 33.228933 305.368471 37.065206 
Q 304.163251 40.89347 304.163251 48.477917 
Q 304.163251 55.029214 305.155623 59.145799 
Q 306.150759 63.262384 308.395343 63.262384 
Q 310.114717 63.262384 311.242537 60.379172 
Q 312.370358 57.487952 312.395236 51.024754 
L 308.422986 51.024754 
L 308.422986 46.90016 
L 313.992982 46.90016 
L 313.992982 66.570068 
L 312.887276 66.570068 
L 312.472636 61.836796 
Q 311.601892 64.615891 310.927411 65.697095 
Q 309.794062 67.547156 308.04981 67.547156 
Q 305.796933 67.547156 304.171544 63.318446 
Q 302.399649 58.008532 302.399649 48.75022 
Q 302.399649 39.515935 304.127316 34.061861 
Q 305.76929 28.856062 308.378757 28.856062 
z
M 308.094038 28.8 
L 308.094038 28.8 
z
" style="fill:#ffa600;"/>
   </g>
   <g id="patch_75">
    <path clip-path="url(#p956f00d183)" d="M 322.384868 132.672286 
L 320.412558 123.003746 
L 318.315741 132.672286 
L 322.384868 132.672286 
z
M 319.492902 119.752294 
L 321.48219 119.752294 
L 326.196491 141.64 
L 324.266627 141.64 
L 322.950811 135.084653 
L 317.812052 135.084653 
L 316.405685 141.64 
L 314.603158 141.64 
L 319.492902 119.752294 
z
M 320.404069 119.752294 
L 320.404069 119.752294 
z
" style="fill:#008000;"/>
   </g>
   <g id="patch_76">
    <path clip-path="url(#p956f00d183)" d="M 326.196491 93.649725 
L 326.196491 96.759745 
L 321.381757 96.759745 
L 321.381757 119.752294 
L 319.417893 119.752294 
L 319.417893 96.759745 
L 314.603158 96.759745 
L 314.603158 93.649725 
L 326.196491 93.649725 
z
" style="fill:#ff0000;"/>
   </g>
   <g id="patch_77">
    <path clip-path="url(#p956f00d183)" d="M 320.698769 66.49344 
Q 323.181427 66.49344 324.550876 69.077079 
Q 325.920324 71.6551 326.071219 74.935197 
L 324.345885 74.935197 
Q 324.052636 72.447041 323.175733 70.992341 
Q 322.298831 69.532024 320.715851 69.532024 
Q 318.785527 69.532024 317.598292 72.211144 
Q 316.411057 74.884648 316.411057 80.411387 
Q 316.411057 84.943987 317.481562 87.763523 
Q 318.554913 90.577442 320.681686 90.577442 
Q 322.637634 90.577442 323.662585 87.611875 
Q 324.203531 86.050458 324.471157 83.50052 
L 326.196491 83.50052 
Q 325.965877 87.572558 324.667606 90.330311 
Q 323.11025 93.649725 320.468155 93.649725 
Q 318.190486 93.649725 316.641671 90.925671 
Q 314.603158 87.331044 314.603158 79.816027 
Q 314.603158 74.115173 316.13489 70.46438 
Q 317.789047 66.49344 320.698769 66.49344 
z
M 320.342883 66.49344 
L 320.342883 66.49344 
z
" style="fill:#0000ff;"/>
   </g>
   <g id="patch_78">
    <path clip-path="url(#p956f00d183)" d="M 320.582266 28.854538 
Q 322.370747 28.854538 323.67548 30.802318 
Q 325.566238 33.59933 325.989171 40.611338 
L 324.289147 40.611338 
Q 323.976785 36.692405 323.000999 34.900447 
Q 322.025213 33.10849 320.538038 33.10849 
Q 318.7772 33.10849 317.57198 36.840436 
Q 316.36676 40.564592 316.36676 47.942783 
Q 316.36676 54.315919 317.359132 58.320555 
Q 318.354267 62.325191 320.598852 62.325191 
Q 322.318225 62.325191 323.446046 59.520388 
Q 324.573867 56.707793 324.598745 50.420359 
L 320.626494 50.420359 
L 320.626494 46.407932 
L 326.196491 46.407932 
L 326.196491 65.542924 
L 325.090785 65.542924 
L 324.676145 60.938372 
Q 323.805401 63.64189 323.13092 64.693692 
Q 321.997571 66.49344 320.253318 66.49344 
Q 318.000441 66.49344 316.375053 62.379729 
Q 314.603158 57.214216 314.603158 48.207681 
Q 314.603158 39.224519 316.330824 33.918766 
Q 317.972799 28.854538 320.582266 28.854538 
z
M 320.297547 28.8 
L 320.297547 28.8 
z
" style="fill:#ffa600;"/>
   </g>
   <g id="patch_79">
    <path clip-path="url(#p956f00d183)" d="M 334.588377 135.262622 
L 332.616067 128.386853 
L 330.51925 135.262622 
L 334.588377 135.262622 
z
M 331.69641 126.074587 
L 333.685698 126.074587 
L 338.4 141.64 
L 336.470136 141.64 
L 335.154319 136.978174 
L 330.015561 136.978174 
L 328.609194 141.64 
L 326.806667 141.64 
L 331.69641 126.074587 
z
M 332.607578 126.074587 
L 332.607578 126.074587 
z
" style="fill:#008000;"/>
   </g>
   <g id="patch_80">
    <path clip-path="url(#p956f00d183)" d="M 338.4 105.240596 
L 338.4 107.722886 
L 333.585265 107.722886 
L 333.585265 126.074587 
L 331.621401 126.074587 
L 331.621401 107.722886 
L 326.806667 107.722886 
L 326.806667 105.240596 
L 338.4 105.240596 
z
" style="fill:#ff0000;"/>
   </g>
   <g id="patch_81">
    <path clip-path="url(#p956f00d183)" d="M 332.902277 70.708303 
Q 335.384936 70.708303 336.754384 73.993692 
Q 338.123833 77.271938 338.274728 81.442954 
L 336.549394 81.442954 
Q 336.256144 78.278981 335.379242 76.429165 
Q 334.50234 74.572206 332.91936 74.572206 
Q 330.989036 74.572206 329.801801 77.979011 
Q 328.614566 81.378674 328.614566 88.40655 
Q 328.614566 94.170264 329.68507 97.755623 
Q 330.758422 101.33384 332.885195 101.33384 
Q 334.841143 101.33384 335.866094 97.562785 
Q 336.40704 95.577268 336.674666 92.334732 
L 338.4 92.334732 
Q 338.169386 97.51279 336.871115 101.019586 
Q 335.313759 105.240596 332.671663 105.240596 
Q 330.393995 105.240596 328.84518 101.776654 
Q 326.806667 97.205678 326.806667 87.649482 
Q 326.806667 80.4002 328.338399 75.757803 
Q 329.992556 70.708303 332.902277 70.708303 
z
M 332.546392 70.708303 
L 332.546392 70.708303 
z
" style="fill:#0000ff;"/>
   </g>
   <g id="patch_82">
    <path clip-path="url(#p956f00d183)" d="M 332.785775 28.860636 
Q 334.574255 28.860636 335.878989 31.026216 
Q 337.769747 34.135989 338.19268 41.932077 
L 336.492656 41.932077 
Q 336.180294 37.57493 335.204508 35.582596 
Q 334.228722 33.590263 332.741547 33.590263 
Q 330.980709 33.590263 329.775489 37.739514 
Q 328.570269 41.880103 328.570269 50.08332 
Q 328.570269 57.169097 329.56264 61.621529 
Q 330.557776 66.073962 332.802361 66.073962 
Q 334.521734 66.073962 335.649555 62.955527 
Q 336.777376 59.828429 336.802254 52.837937 
L 332.830003 52.837937 
L 332.830003 48.376843 
L 338.4 48.376843 
L 338.4 69.6515 
L 337.294293 69.6515 
L 336.879653 64.532069 
Q 336.00891 67.537894 335.334429 68.707307 
Q 334.201079 70.708303 332.456827 70.708303 
Q 330.20395 70.708303 328.578561 66.134598 
Q 326.806667 60.39148 326.806667 50.377838 
Q 326.806667 40.390184 328.534333 34.491144 
Q 330.176307 28.860636 332.785775 28.860636 
z
M 332.501055 28.8 
L 332.501055 28.8 
z
" style="fill:#ffa600;"/>
   </g>
   <g id="matplotlib.axis_1">
    <g id="xtick_1">
     <g id="text_1">
      <!-- 0 -->
      <g style="fill:#262626;" transform="translate(95.175729 162.986875)scale(0.2 -0.2)">
       <defs>
        <path d="M 1731 4475 
Q 2600 4475 2988 3759 
Q 3288 3206 3288 2244 
Q 3288 1331 3016 734 
Q 2622 -122 1728 -122 
Q 922 -122 528 578 
Q 200 1163 200 2147 
Q 200 2909 397 3456 
Q 766 4475 1731 4475 
z
M 1725 391 
Q 2163 391 2422 778 
Q 2681 1166 2681 2222 
Q 2681 2984 2493 3476 
Q 2306 3969 1766 3969 
Q 1269 3969 1039 3501 
Q 809 3034 809 2125 
Q 809 1441 956 1025 
Q 1181 391 1725 391 
z
" id="Helvetica-30" transform="scale(0.015625)"/>
       </defs>
       <use xlink:href="#Helvetica-30"/>
      </g>
     </g>
    </g>
    <g id="xtick_2">
     <g id="text_2">
      <!-- 10 -->
      <g style="fill:#262626;" transform="translate(211.649879 162.986875)scale(0.2 -0.2)">
       <defs>
        <path d="M 613 3169 
L 613 3600 
Q 1222 3659 1462 3798 
Q 1703 3938 1822 4456 
L 2266 4456 
L 2266 0 
L 1666 0 
L 1666 3169 
L 613 3169 
z
" id="Helvetica-31" transform="scale(0.015625)"/>
       </defs>
       <use xlink:href="#Helvetica-31"/>
       <use x="55.615234" xlink:href="#Helvetica-30"/>
      </g>
     </g>
    </g>
    <g id="text_3">
     <!-- Position -->
     <g style="fill:#262626;" transform="translate(172.20125 189.089219)scale(0.25 -0.25)">
      <defs>
       <path d="M 547 4591 
L 2613 4591 
Q 3225 4591 3600 4245 
Q 3975 3900 3975 3275 
Q 3975 2738 3640 2339 
Q 3306 1941 2613 1941 
L 1169 1941 
L 1169 0 
L 547 0 
L 547 4591 
z
M 3347 3272 
Q 3347 3778 2972 3959 
Q 2766 4056 2406 4056 
L 1169 4056 
L 1169 2466 
L 2406 2466 
Q 2825 2466 3086 2644 
Q 3347 2822 3347 3272 
z
" id="Helvetica-50" transform="scale(0.015625)"/>
       <path d="M 1741 363 
Q 2300 363 2508 786 
Q 2716 1209 2716 1728 
Q 2716 2197 2566 2491 
Q 2328 2953 1747 2953 
Q 1231 2953 997 2559 
Q 763 2166 763 1609 
Q 763 1075 997 719 
Q 1231 363 1741 363 
z
M 1763 3444 
Q 2409 3444 2856 3012 
Q 3303 2581 3303 1744 
Q 3303 934 2909 406 
Q 2516 -122 1688 -122 
Q 997 -122 590 345 
Q 184 813 184 1600 
Q 184 2444 612 2944 
Q 1041 3444 1763 3444 
z
M 1744 3428 
L 1744 3428 
z
" id="Helvetica-6f" transform="scale(0.015625)"/>
       <path d="M 747 1050 
Q 772 769 888 619 
Q 1100 347 1625 347 
Q 1938 347 2175 483 
Q 2413 619 2413 903 
Q 2413 1119 2222 1231 
Q 2100 1300 1741 1391 
L 1294 1503 
Q 866 1609 663 1741 
Q 300 1969 300 2372 
Q 300 2847 642 3140 
Q 984 3434 1563 3434 
Q 2319 3434 2653 2991 
Q 2863 2709 2856 2384 
L 2325 2384 
Q 2309 2575 2191 2731 
Q 1997 2953 1519 2953 
Q 1200 2953 1036 2831 
Q 872 2709 872 2509 
Q 872 2291 1088 2159 
Q 1213 2081 1456 2022 
L 1828 1931 
Q 2434 1784 2641 1647 
Q 2969 1431 2969 969 
Q 2969 522 2630 197 
Q 2291 -128 1597 -128 
Q 850 -128 539 211 
Q 228 550 206 1050 
L 747 1050 
z
M 1578 3428 
L 1578 3428 
z
" id="Helvetica-73" transform="scale(0.015625)"/>
       <path d="M 413 3331 
L 984 3331 
L 984 0 
L 413 0 
L 413 3331 
z
M 413 4591 
L 984 4591 
L 984 3953 
L 413 3953 
L 413 4591 
z
" id="Helvetica-69" transform="scale(0.015625)"/>
       <path d="M 525 4281 
L 1094 4281 
L 1094 3347 
L 1628 3347 
L 1628 2888 
L 1094 2888 
L 1094 703 
Q 1094 528 1213 469 
Q 1278 434 1431 434 
Q 1472 434 1519 436 
Q 1566 438 1628 444 
L 1628 0 
Q 1531 -28 1426 -40 
Q 1322 -53 1200 -53 
Q 806 -53 665 148 
Q 525 350 525 672 
L 525 2888 
L 72 2888 
L 72 3347 
L 525 3347 
L 525 4281 
z
" id="Helvetica-74" transform="scale(0.015625)"/>
       <path d="M 413 3347 
L 947 3347 
L 947 2872 
Q 1184 3166 1450 3294 
Q 1716 3422 2041 3422 
Q 2753 3422 3003 2925 
Q 3141 2653 3141 2147 
L 3141 0 
L 2569 0 
L 2569 2109 
Q 2569 2416 2478 2603 
Q 2328 2916 1934 2916 
Q 1734 2916 1606 2875 
Q 1375 2806 1200 2600 
Q 1059 2434 1017 2257 
Q 975 2081 975 1753 
L 975 0 
L 413 0 
L 413 3347 
z
M 1734 3428 
L 1734 3428 
z
" id="Helvetica-6e" transform="scale(0.015625)"/>
      </defs>
      <use xlink:href="#Helvetica-50"/>
      <use x="66.699219" xlink:href="#Helvetica-6f"/>
      <use x="122.314453" xlink:href="#Helvetica-73"/>
      <use x="172.314453" xlink:href="#Helvetica-69"/>
      <use x="194.53125" xlink:href="#Helvetica-74"/>
      <use x="222.314453" xlink:href="#Helvetica-69"/>
      <use x="244.53125" xlink:href="#Helvetica-6f"/>
      <use x="300.146484" xlink:href="#Helvetica-6e"/>
     </g>
    </g>
   </g>
   <g id="matplotlib.axis_2">
    <g id="ytick_1">
     <g id="text_4">
      <!-- 0 -->
      <g style="fill:#262626;" transform="translate(76.818125 148.813438)scale(0.2 -0.2)">
       <use xlink:href="#Helvetica-30"/>
      </g>
     </g>
    </g>
    <g id="ytick_2">
     <g id="text_5">
      <!-- 0.25 -->
      <g style="fill:#262626;" transform="translate(49.018125 120.603437)scale(0.2 -0.2)">
       <defs>
        <path d="M 547 681 
L 1200 681 
L 1200 0 
L 547 0 
L 547 681 
z
" id="Helvetica-2e" transform="scale(0.015625)"/>
        <path d="M 200 0 
Q 231 578 439 1006 
Q 647 1434 1250 1784 
L 1850 2131 
Q 2253 2366 2416 2531 
Q 2672 2791 2672 3125 
Q 2672 3516 2437 3745 
Q 2203 3975 1813 3975 
Q 1234 3975 1013 3538 
Q 894 3303 881 2888 
L 309 2888 
Q 319 3472 525 3841 
Q 891 4491 1816 4491 
Q 2584 4491 2939 4075 
Q 3294 3659 3294 3150 
Q 3294 2613 2916 2231 
Q 2697 2009 2131 1694 
L 1703 1456 
Q 1397 1288 1222 1134 
Q 909 863 828 531 
L 3272 531 
L 3272 0 
L 200 0 
z
" id="Helvetica-32" transform="scale(0.015625)"/>
        <path d="M 791 1141 
Q 847 659 1238 475 
Q 1438 381 1700 381 
Q 2200 381 2440 700 
Q 2681 1019 2681 1406 
Q 2681 1875 2395 2131 
Q 2109 2388 1709 2388 
Q 1419 2388 1211 2275 
Q 1003 2163 856 1963 
L 369 1991 
L 709 4400 
L 3034 4400 
L 3034 3856 
L 1131 3856 
L 941 2613 
Q 1097 2731 1238 2791 
Q 1488 2894 1816 2894 
Q 2431 2894 2859 2497 
Q 3288 2100 3288 1491 
Q 3288 856 2895 371 
Q 2503 -113 1644 -113 
Q 1097 -113 676 195 
Q 256 503 206 1141 
L 791 1141 
z
" id="Helvetica-35" transform="scale(0.015625)"/>
       </defs>
       <use xlink:href="#Helvetica-30"/>
       <use x="55.615234" xlink:href="#Helvetica-2e"/>
       <use x="83.398438" xlink:href="#Helvetica-32"/>
       <use x="139.013672" xlink:href="#Helvetica-35"/>
      </g>
     </g>
    </g>
    <g id="ytick_3">
     <g id="text_6">
      <!-- 0.50 -->
      <g style="fill:#262626;" transform="translate(49.018125 92.393438)scale(0.2 -0.2)">
       <use xlink:href="#Helvetica-30"/>
       <use x="55.615234" xlink:href="#Helvetica-2e"/>
       <use x="83.398438" xlink:href="#Helvetica-35"/>
       <use x="139.013672" xlink:href="#Helvetica-30"/>
      </g>
     </g>
    </g>
    <g id="ytick_4">
     <g id="text_7">
      <!-- 0.75 -->
      <g style="fill:#262626;" transform="translate(49.018125 64.183437)scale(0.2 -0.2)">
       <defs>
        <path d="M 3347 4400 
L 3347 3909 
Q 3131 3700 2773 3181 
Q 2416 2663 2141 2063 
Q 1869 1478 1728 997 
Q 1638 688 1494 0 
L 872 0 
Q 1084 1281 1809 2550 
Q 2238 3294 2709 3834 
L 234 3834 
L 234 4400 
L 3347 4400 
z
" id="Helvetica-37" transform="scale(0.015625)"/>
       </defs>
       <use xlink:href="#Helvetica-30"/>
       <use x="55.615234" xlink:href="#Helvetica-2e"/>
       <use x="83.398438" xlink:href="#Helvetica-37"/>
       <use x="139.013672" xlink:href="#Helvetica-35"/>
      </g>
     </g>
    </g>
    <g id="ytick_5">
     <g id="text_8">
      <!-- 1.0 -->
      <g style="fill:#262626;" transform="translate(60.14 35.973437)scale(0.2 -0.2)">
       <use xlink:href="#Helvetica-31"/>
       <use x="55.615234" xlink:href="#Helvetica-2e"/>
       <use x="83.398438" xlink:href="#Helvetica-30"/>
      </g>
     </g>
    </g>
    <g id="text_9">
     <!-- Probability -->
     <g style="fill:#262626;" transform="translate(39.65875 143.579375)rotate(-90)scale(0.25 -0.25)">
      <defs>
       <path d="M 428 3347 
L 963 3347 
L 963 2769 
Q 1028 2938 1284 3180 
Q 1541 3422 1875 3422 
Q 1891 3422 1928 3419 
Q 1966 3416 2056 3406 
L 2056 2813 
Q 2006 2822 1964 2825 
Q 1922 2828 1872 2828 
Q 1447 2828 1219 2554 
Q 991 2281 991 1925 
L 991 0 
L 428 0 
L 428 3347 
z
" id="Helvetica-72" transform="scale(0.015625)"/>
       <path d="M 369 4606 
L 916 4606 
L 916 2941 
Q 1100 3181 1356 3307 
Q 1613 3434 1913 3434 
Q 2538 3434 2927 3004 
Q 3316 2575 3316 1738 
Q 3316 944 2931 419 
Q 2547 -106 1866 -106 
Q 1484 -106 1222 78 
Q 1066 188 888 428 
L 888 0 
L 369 0 
L 369 4606 
z
M 1831 391 
Q 2288 391 2514 753 
Q 2741 1116 2741 1709 
Q 2741 2238 2514 2584 
Q 2288 2931 1847 2931 
Q 1463 2931 1173 2647 
Q 884 2363 884 1709 
Q 884 1238 1003 944 
Q 1225 391 1831 391 
z
" id="Helvetica-62" transform="scale(0.015625)"/>
       <path d="M 844 891 
Q 844 647 1022 506 
Q 1200 366 1444 366 
Q 1741 366 2019 503 
Q 2488 731 2488 1250 
L 2488 1703 
Q 2384 1638 2221 1594 
Q 2059 1550 1903 1531 
L 1563 1488 
Q 1256 1447 1103 1359 
Q 844 1213 844 891 
z
M 2206 2028 
Q 2400 2053 2466 2191 
Q 2503 2266 2503 2406 
Q 2503 2694 2298 2823 
Q 2094 2953 1713 2953 
Q 1272 2953 1088 2716 
Q 984 2584 953 2325 
L 428 2325 
Q 444 2944 830 3186 
Q 1216 3428 1725 3428 
Q 2316 3428 2684 3203 
Q 3050 2978 3050 2503 
L 3050 575 
Q 3050 488 3086 434 
Q 3122 381 3238 381 
Q 3275 381 3322 386 
Q 3369 391 3422 400 
L 3422 -16 
Q 3291 -53 3222 -62 
Q 3153 -72 3034 -72 
Q 2744 -72 2613 134 
Q 2544 244 2516 444 
Q 2344 219 2022 53 
Q 1700 -113 1313 -113 
Q 847 -113 551 170 
Q 256 453 256 878 
Q 256 1344 547 1600 
Q 838 1856 1309 1916 
L 2206 2028 
z
M 1741 3428 
L 1741 3428 
z
" id="Helvetica-61" transform="scale(0.015625)"/>
       <path d="M 428 4591 
L 991 4591 
L 991 0 
L 428 0 
L 428 4591 
z
" id="Helvetica-6c" transform="scale(0.015625)"/>
       <path d="M 2503 3347 
L 3125 3347 
Q 3006 3025 2597 1878 
Q 2291 1016 2084 472 
Q 1597 -809 1397 -1090 
Q 1197 -1372 709 -1372 
Q 591 -1372 527 -1362 
Q 463 -1353 369 -1328 
L 369 -816 
Q 516 -856 581 -865 
Q 647 -875 697 -875 
Q 853 -875 926 -823 
Q 1000 -772 1050 -697 
Q 1066 -672 1162 -440 
Q 1259 -209 1303 -97 
L 66 3347 
L 703 3347 
L 1600 622 
L 2503 3347 
z
M 1597 3428 
L 1597 3428 
z
" id="Helvetica-79" transform="scale(0.015625)"/>
      </defs>
      <use xlink:href="#Helvetica-50"/>
      <use x="66.699219" xlink:href="#Helvetica-72"/>
      <use x="100" xlink:href="#Helvetica-6f"/>
      <use x="155.615234" xlink:href="#Helvetica-62"/>
      <use x="211.230469" xlink:href="#Helvetica-61"/>
      <use x="266.845703" xlink:href="#Helvetica-62"/>
      <use x="322.460938" xlink:href="#Helvetica-69"/>
      <use x="344.677734" xlink:href="#Helvetica-6c"/>
      <use x="366.894531" xlink:href="#Helvetica-69"/>
      <use x="389.111328" xlink:href="#Helvetica-74"/>
      <use x="416.894531" xlink:href="#Helvetica-79"/>
     </g>
    </g>
   </g>
   <g id="patch_83">
    <path d="M 94.94 141.64 
L 94.94 28.8 
" style="fill:none;stroke:#000000;stroke-linecap:square;stroke-linejoin:miter;"/>
   </g>
  </g>
 </g>
 <defs>
  <clipPath id="p956f00d183">
   <rect height="112.84" width="243.46" x="94.94" y="28.8"/>
  </clipPath>
 </defs>
</svg>
