<?xml version="1.0" encoding="utf-8" standalone="no"?>
<!DOCTYPE svg PUBLIC "-//W3C//DTD SVG 1.1//EN"
  "http://www.w3.org/Graphics/SVG/1.1/DTD/svg11.dtd">
<svg height="216pt" version="1.1" viewBox="0 0 360 216" width="360pt" xmlns="http://www.w3.org/2000/svg" xmlns:xlink="http://www.w3.org/1999/xlink">
 <metadata>
  <rdf:RDF xmlns:cc="http://creativecommons.org/ns#" xmlns:dc="http://purl.org/dc/elements/1.1/" xmlns:rdf="http://www.w3.org/1999/02/22-rdf-syntax-ns#">
   <cc:Work>
    <dc:type rdf:resource="http://purl.org/dc/dcmitype/StillImage"/>
    <dc:date>2022-12-27T01:52:41.023100</dc:date>
    <dc:format>image/svg+xml</dc:format>
    <dc:creator>
     <cc:Agent>
      <dc:title>Matplotlib v3.4.2, https://matplotlib.org/</dc:title>
     </cc:Agent>
    </dc:creator>
   </cc:Work>
  </rdf:RDF>
 </metadata>
 <defs>
  <style type="text/css">*{stroke-linecap:butt;stroke-linejoin:round;}</style>
 </defs>
 <g id="figure_1">
  <g id="patch_1">
   <path d="M 0 216 
L 360 216 
L 360 0 
L 0 0 
z
" style="fill:#ffffff;"/>
  </g>
  <g id="axes_1">
   <g id="patch_2">
    <path d="M 94.94 141.64 
L 338.4 141.64 
L 338.4 28.8 
L 94.94 28.8 
z
" style="fill:#ffffff;"/>
   </g>
   <g id="line2d_1">
    <path clip-path="url(#pab340bddde)" d="M 94.94 141.64 
L 338.4 141.64 
" style="fill:none;stroke:#000000;stroke-linecap:round;stroke-width:0.5;"/>
   </g>
   <g id="patch_3">
    <path clip-path="url(#pab340bddde)" d="M 100.919108 127.514482 
Q 102.707589 127.514482 104.012322 128.245465 
Q 105.903081 129.295157 106.326013 131.926696 
L 104.62599 131.926696 
Q 104.313627 130.455958 103.337841 129.783453 
Q 102.362055 129.110949 100.87488 129.110949 
Q 99.114042 129.110949 97.908822 130.511513 
Q 96.703602 131.909152 96.703602 134.678116 
Q 96.703602 137.069893 97.695974 138.572795 
Q 98.69111 140.075696 100.935694 140.075696 
Q 102.655068 140.075696 103.782888 139.02308 
Q 104.910709 137.967541 104.935587 135.607927 
L 100.963337 135.607927 
L 100.963337 134.102102 
L 106.533333 134.102102 
L 106.533333 141.28328 
L 105.427627 141.28328 
L 105.012987 139.555236 
Q 104.142243 140.569841 103.467762 140.964572 
Q 102.334413 141.64 100.590161 141.64 
Q 98.337283 141.64 96.711895 140.096164 
Q 94.94 138.157596 94.94 134.77753 
Q 94.94 131.406236 96.667667 129.415038 
Q 98.309641 127.514482 100.919108 127.514482 
z
M 100.634389 127.494014 
L 100.634389 127.494014 
z
" style="fill:#ffa600;"/>
   </g>
   <g id="patch_4">
    <path clip-path="url(#pab340bddde)" d="M 101.035611 104.787833 
Q 103.518269 104.787833 104.887718 106.94809 
Q 106.257166 109.103651 106.408062 111.846239 
L 104.682728 111.846239 
Q 104.389478 109.765817 103.512575 108.549498 
Q 102.635673 107.328483 101.052693 107.328483 
Q 99.122369 107.328483 97.935134 109.568576 
Q 96.747899 111.803973 96.747899 116.425044 
Q 96.747899 120.214887 97.818404 122.572385 
Q 98.891755 124.925187 101.018528 124.925187 
Q 102.974476 124.925187 103.999427 122.445587 
Q 104.540373 121.14004 104.807999 119.007961 
L 106.533333 119.007961 
Q 106.302719 122.412714 105.004448 124.718553 
Q 103.447092 127.494014 100.804997 127.494014 
Q 98.527328 127.494014 96.978513 125.216352 
Q 94.94 122.210777 94.94 115.927246 
Q 94.94 111.160592 96.471732 108.108054 
Q 98.125889 104.787833 101.035611 104.787833 
z
M 100.679725 104.787833 
L 100.679725 104.787833 
z
" style="fill:#0000ff;"/>
   </g>
   <g id="patch_5">
    <path clip-path="url(#pab340bddde)" d="M 106.533333 73.626849 
L 106.533333 77.339561 
L 101.718599 77.339561 
L 101.718599 104.787833 
L 99.754735 104.787833 
L 99.754735 77.339561 
L 94.94 77.339561 
L 94.94 73.626849 
L 106.533333 73.626849 
z
" style="fill:#ff0000;"/>
   </g>
   <g id="patch_6">
    <path clip-path="url(#pab340bddde)" d="M 102.72171 55.260632 
L 100.7494 35.459096 
L 98.652583 55.260632 
L 102.72171 55.260632 
z
M 99.829744 28.8 
L 101.819032 28.8 
L 106.533333 73.626849 
L 104.603469 73.626849 
L 103.287653 60.201252 
L 98.148894 60.201252 
L 96.742527 73.626849 
L 94.94 73.626849 
L 99.829744 28.8 
z
M 100.740911 28.8 
L 100.740911 28.8 
z
" style="fill:#008000;"/>
   </g>
   <g id="patch_7">
    <path clip-path="url(#pab340bddde)" d="M 113.122617 127.058443 
Q 114.911097 127.058443 116.215831 127.813025 
Q 118.106589 128.896606 118.529522 131.613104 
L 116.829498 131.613104 
Q 116.517136 130.094884 115.54135 129.400667 
Q 114.565564 128.706451 113.078389 128.706451 
Q 111.317551 128.706451 110.112331 130.152232 
Q 108.907111 131.594994 108.907111 134.453354 
Q 108.907111 136.922349 109.899482 138.473771 
Q 110.894618 140.025193 113.139203 140.025193 
Q 114.858576 140.025193 115.986397 138.938594 
Q 117.114218 137.848976 117.139096 135.413183 
L 113.166845 135.413183 
L 113.166845 133.858742 
L 118.736842 133.858742 
L 118.736842 141.271764 
L 117.631136 141.271764 
L 117.216496 139.48793 
Q 116.345752 140.535291 115.671271 140.942766 
Q 114.537921 141.64 112.793669 141.64 
Q 110.540792 141.64 108.915404 140.046321 
Q 107.143509 138.045168 107.143509 134.555977 
Q 107.143509 131.075841 108.871175 129.020358 
Q 110.51315 127.058443 113.122617 127.058443 
z
M 112.837898 127.037314 
L 112.837898 127.037314 
z
" style="fill:#ffa600;"/>
   </g>
   <g id="patch_8">
    <path clip-path="url(#pab340bddde)" d="M 113.239119 105.209402 
Q 115.721778 105.209402 117.091227 107.286101 
Q 118.460675 109.358286 118.61157 111.99479 
L 116.886236 111.99479 
Q 116.592987 109.994839 115.716084 108.825567 
Q 114.839182 107.651781 113.256202 107.651781 
Q 111.325878 107.651781 110.138643 109.805227 
Q 108.951408 111.954159 108.951408 116.396489 
Q 108.951408 120.039742 110.021913 122.306052 
Q 111.095264 124.567848 113.222037 124.567848 
Q 115.177985 124.567848 116.202936 122.184159 
Q 116.743882 120.929111 117.011508 118.879499 
L 118.736842 118.879499 
Q 118.506228 122.152557 117.207957 124.369208 
Q 115.650601 127.037314 113.008505 127.037314 
Q 110.730837 127.037314 109.182022 124.847751 
Q 107.143509 121.958431 107.143509 115.917946 
Q 107.143509 111.335664 108.675241 108.401198 
Q 110.329398 105.209402 113.239119 105.209402 
z
M 112.883234 105.209402 
L 112.883234 105.209402 
z
" style="fill:#0000ff;"/>
   </g>
   <g id="patch_9">
    <path clip-path="url(#pab340bddde)" d="M 118.736842 72.830552 
L 118.736842 76.688368 
L 113.922107 76.688368 
L 113.922107 105.209402 
L 111.958243 105.209402 
L 111.958243 76.688368 
L 107.143509 76.688368 
L 107.143509 72.830552 
L 118.736842 72.830552 
z
" style="fill:#ff0000;"/>
   </g>
   <g id="patch_10">
    <path clip-path="url(#pab340bddde)" d="M 114.925219 54.790589 
L 112.952909 35.340805 
L 110.856092 54.790589 
L 114.925219 54.790589 
z
M 112.033252 28.8 
L 114.022541 28.8 
L 118.736842 72.830552 
L 116.806978 72.830552 
L 115.491162 59.643445 
L 110.352403 59.643445 
L 108.946036 72.830552 
L 107.143509 72.830552 
L 112.033252 28.8 
z
M 112.94442 28.8 
L 112.94442 28.8 
z
" style="fill:#008000;"/>
   </g>
   <g id="patch_11">
    <path clip-path="url(#pab340bddde)" d="M 125.326126 127.140296 
Q 127.114606 127.140296 128.41934 127.890643 
Q 130.310098 128.968141 130.733031 131.66939 
L 129.033007 131.66939 
Q 128.720645 130.159692 127.744859 129.469373 
Q 126.769073 128.779053 125.281898 128.779053 
Q 123.52106 128.779053 122.31584 130.216718 
Q 121.11062 131.651382 121.11062 134.493696 
Q 121.11062 136.948831 122.102991 138.491544 
Q 123.098127 140.034258 125.342711 140.034258 
Q 127.062085 140.034258 128.189906 138.953758 
Q 129.317726 137.870257 129.342605 135.448137 
L 125.370354 135.448137 
L 125.370354 133.902422 
L 130.940351 133.902422 
L 130.940351 141.273831 
L 129.834644 141.273831 
L 129.420004 139.500011 
Q 128.54926 140.541492 127.874779 140.946679 
Q 126.74143 141.64 124.997178 141.64 
Q 122.744301 141.64 121.118912 140.055267 
Q 119.347018 138.065347 119.347018 134.595743 
Q 119.347018 131.135143 121.074684 129.091198 
Q 122.716658 127.140296 125.326126 127.140296 
z
M 125.041406 127.119286 
L 125.041406 127.119286 
z
" style="fill:#ffa600;"/>
   </g>
   <g id="patch_12">
    <path clip-path="url(#pab340bddde)" d="M 125.442628 105.373346 
Q 127.925287 105.373346 129.294735 107.442246 
Q 130.664184 109.506649 130.815079 112.133252 
L 129.089745 112.133252 
Q 128.796495 110.140811 127.919593 108.975931 
Q 127.04269 107.806552 125.459711 107.806552 
Q 123.529387 107.806552 122.342152 109.951912 
Q 121.154917 112.092774 121.154917 116.518421 
Q 121.154917 120.147992 122.225421 122.405792 
Q 123.298773 124.659094 125.425546 124.659094 
Q 127.381494 124.659094 128.406445 122.284356 
Q 128.947391 121.034021 129.215017 118.992106 
L 130.940351 118.992106 
Q 130.709737 122.252873 129.411466 124.461199 
Q 127.85411 127.119286 125.212014 127.119286 
Q 122.934346 127.119286 121.385531 124.937946 
Q 119.347018 122.059476 119.347018 116.041675 
Q 119.347018 111.476601 120.87875 108.553155 
Q 122.532907 105.373346 125.442628 105.373346 
z
M 125.086742 105.373346 
L 125.086742 105.373346 
z
" style="fill:#0000ff;"/>
   </g>
   <g id="patch_13">
    <path clip-path="url(#pab340bddde)" d="M 130.940351 73.989867 
L 130.940351 77.729088 
L 126.125616 77.729088 
L 126.125616 105.373346 
L 124.161752 105.373346 
L 124.161752 77.729088 
L 119.347018 77.729088 
L 119.347018 73.989867 
L 130.940351 73.989867 
z
" style="fill:#ff0000;"/>
   </g>
   <g id="patch_14">
    <path clip-path="url(#pab340bddde)" d="M 127.128728 55.474916 
L 125.156418 35.513023 
L 123.059601 55.474916 
L 127.128728 55.474916 
z
M 124.236761 28.8 
L 126.226049 28.8 
L 130.940351 73.989867 
L 129.010487 73.989867 
L 127.69467 60.455546 
L 122.555912 60.455546 
L 121.149545 73.989867 
L 119.347018 73.989867 
L 124.236761 28.8 
z
M 125.147929 28.8 
L 125.147929 28.8 
z
" style="fill:#008000;"/>
   </g>
   <g id="patch_15">
    <path clip-path="url(#pab340bddde)" d="M 137.529635 127.011669 
Q 139.318115 127.011669 140.622849 127.768673 
Q 142.513607 128.855729 142.93654 131.580941 
L 141.236516 131.580941 
Q 140.924154 130.05785 139.948368 129.361407 
Q 138.972582 128.664964 137.485406 128.664964 
Q 135.724569 128.664964 134.519348 130.115383 
Q 133.314128 131.562773 133.314128 134.430301 
Q 133.314128 136.907216 134.3065 138.463614 
Q 135.301636 140.020013 137.54622 140.020013 
Q 139.265594 140.020013 140.393415 138.929928 
Q 141.521235 137.836816 141.546114 135.393209 
L 137.573863 135.393209 
L 137.573863 133.833783 
L 143.14386 133.833783 
L 143.14386 141.270582 
L 142.038153 141.270582 
L 141.623513 139.481027 
Q 140.752769 140.531747 140.078288 140.940529 
Q 138.944939 141.64 137.200687 141.64 
Q 134.94781 141.64 133.322421 140.041209 
Q 131.550526 138.033637 131.550526 134.533254 
Q 131.550526 131.041955 133.278193 128.979878 
Q 134.920167 127.011669 137.529635 127.011669 
z
M 137.244915 126.990473 
L 137.244915 126.990473 
z
" style="fill:#ffa600;"/>
   </g>
   <g id="patch_16">
    <path clip-path="url(#pab340bddde)" d="M 137.646137 104.893225 
Q 140.128796 104.893225 141.498244 106.995549 
Q 142.867692 109.093302 143.018588 111.762339 
L 141.293254 111.762339 
Q 141.000004 109.73771 140.123102 108.55401 
Q 139.246199 107.365741 137.66322 107.365741 
Q 135.732895 107.365741 134.545661 109.545759 
Q 133.358426 111.721206 133.358426 116.218351 
Q 133.358426 119.906557 134.42893 122.200832 
Q 135.502281 124.490536 137.629054 124.490536 
Q 139.585002 124.490536 140.609953 122.077435 
Q 141.1509 120.8069 141.418526 118.731998 
L 143.14386 118.731998 
Q 142.913246 122.045443 141.614975 124.289445 
Q 140.057619 126.990473 137.415523 126.990473 
Q 135.137854 126.990473 133.58904 124.773893 
Q 131.550526 121.848921 131.550526 115.733902 
Q 131.550526 111.09508 133.082258 108.124405 
Q 134.736415 104.893225 137.646137 104.893225 
z
M 137.290251 104.893225 
L 137.290251 104.893225 
z
" style="fill:#0000ff;"/>
   </g>
   <g id="patch_17">
    <path clip-path="url(#pab340bddde)" d="M 143.14386 73.099888 
L 143.14386 76.887942 
L 138.329125 76.887942 
L 138.329125 104.893225 
L 136.365261 104.893225 
L 136.365261 76.887942 
L 131.550526 76.887942 
L 131.550526 73.099888 
L 143.14386 73.099888 
z
" style="fill:#ff0000;"/>
   </g>
   <g id="patch_18">
    <path clip-path="url(#pab340bddde)" d="M 139.332237 54.949574 
L 137.359927 35.380815 
L 135.26311 54.949574 
L 139.332237 54.949574 
z
M 136.44027 28.8 
L 138.429558 28.8 
L 143.14386 73.099888 
L 141.213996 73.099888 
L 139.898179 59.832115 
L 134.759421 59.832115 
L 133.353053 73.099888 
L 131.550526 73.099888 
L 136.44027 28.8 
z
M 137.351438 28.8 
L 137.351438 28.8 
z
" style="fill:#008000;"/>
   </g>
   <g id="patch_19">
    <path clip-path="url(#pab340bddde)" d="M 149.733143 126.719337 
Q 151.521624 126.719337 152.826357 127.491468 
Q 154.717116 128.600248 155.140048 131.379921 
L 153.440025 131.379921 
Q 153.127662 129.826393 152.151876 129.116032 
Q 151.17609 128.405671 149.688915 128.405671 
Q 147.928077 128.405671 146.722857 129.885075 
Q 145.517637 131.361389 145.517637 134.286222 
Q 145.517637 136.812636 146.510009 138.400137 
Q 147.505145 139.987639 149.749729 139.987639 
Q 151.469103 139.987639 152.596923 138.87577 
Q 153.724744 137.760813 153.749622 135.268373 
L 149.777372 135.268373 
L 149.777372 133.677783 
L 155.347368 133.677783 
L 155.347368 141.2632 
L 154.241662 141.2632 
L 153.827022 139.437882 
Q 152.956278 140.5096 152.281797 140.926551 
Q 151.148448 141.64 149.404196 141.64 
Q 147.151319 141.64 145.52593 140.009259 
Q 143.754035 137.961567 143.754035 134.391232 
Q 143.754035 130.830163 145.481702 128.726878 
Q 147.123676 126.719337 149.733143 126.719337 
z
M 149.448424 126.697717 
L 149.448424 126.697717 
z
" style="fill:#ffa600;"/>
   </g>
   <g id="patch_20">
    <path clip-path="url(#pab340bddde)" d="M 149.849646 104.600469 
Q 152.332305 104.600469 153.701753 106.702793 
Q 155.071201 108.800546 155.222097 111.469583 
L 153.496763 111.469583 
Q 153.203513 109.444954 152.32661 108.261254 
Q 151.449708 107.072984 149.866728 107.072984 
Q 147.936404 107.072984 146.749169 109.253002 
Q 145.561935 111.42845 145.561935 115.925594 
Q 145.561935 119.613801 146.632439 121.908076 
Q 147.70579 124.19778 149.832563 124.19778 
Q 151.788511 124.19778 152.813462 121.784678 
Q 153.354408 120.514144 153.622034 118.439242 
L 155.347368 118.439242 
Q 155.116754 121.752686 153.818483 123.996688 
Q 152.261127 126.697717 149.619032 126.697717 
Q 147.341363 126.697717 145.792549 124.481137 
Q 143.754035 121.556165 143.754035 115.441146 
Q 143.754035 110.802323 145.285767 107.831649 
Q 146.939924 104.600469 149.849646 104.600469 
z
M 149.49376 104.600469 
L 149.49376 104.600469 
z
" style="fill:#0000ff;"/>
   </g>
   <g id="patch_21">
    <path clip-path="url(#pab340bddde)" d="M 155.347368 73.474616 
L 155.347368 77.183142 
L 150.532634 77.183142 
L 150.532634 104.600469 
L 148.56877 104.600469 
L 148.56877 77.183142 
L 143.754035 77.183142 
L 143.754035 73.474616 
L 155.347368 73.474616 
z
" style="fill:#ff0000;"/>
   </g>
   <g id="patch_22">
    <path clip-path="url(#pab340bddde)" d="M 151.535745 55.170771 
L 149.563435 35.436482 
L 147.466618 55.170771 
L 151.535745 55.170771 
z
M 148.643779 28.8 
L 150.633067 28.8 
L 155.347368 73.474616 
L 153.417504 73.474616 
L 152.101688 60.094612 
L 146.962929 60.094612 
L 145.556562 73.474616 
L 143.754035 73.474616 
L 148.643779 28.8 
z
M 149.554946 28.8 
L 149.554946 28.8 
z
" style="fill:#008000;"/>
   </g>
   <g id="patch_23">
    <path clip-path="url(#pab340bddde)" d="M 161.936652 127.070136 
Q 163.725132 127.070136 165.029866 127.824114 
Q 166.920624 128.906825 167.343557 131.621145 
L 165.643533 131.621145 
Q 165.331171 130.104142 164.355385 129.410482 
Q 163.379599 128.716823 161.892424 128.716823 
Q 160.131586 128.716823 158.926366 130.161444 
Q 157.721146 131.60305 157.721146 134.459117 
Q 157.721146 136.926132 158.713517 138.47631 
Q 159.708653 140.026488 161.953238 140.026488 
Q 163.672611 140.026488 164.800432 138.94076 
Q 165.928253 137.852016 165.953131 135.418176 
L 161.98088 135.418176 
L 161.98088 133.864982 
L 167.550877 133.864982 
L 167.550877 141.272059 
L 166.445171 141.272059 
L 166.030531 139.489656 
Q 165.159787 140.536177 164.485306 140.943325 
Q 163.351957 141.64 161.607704 141.64 
Q 159.354827 141.64 157.729439 140.047599 
Q 155.957544 138.04805 155.957544 134.561658 
Q 155.957544 131.084313 157.68521 129.030478 
Q 159.327185 127.070136 161.936652 127.070136 
z
M 161.651933 127.049024 
L 161.651933 127.049024 
z
" style="fill:#ffa600;"/>
   </g>
   <g id="patch_24">
    <path clip-path="url(#pab340bddde)" d="M 162.053155 105.279664 
Q 164.535813 105.279664 165.905262 107.350792 
Q 167.27471 109.417418 167.425605 112.046851 
L 165.700271 112.046851 
Q 165.407022 110.052264 164.530119 108.886129 
Q 163.653217 107.715491 162.070237 107.715491 
Q 160.139913 107.715491 158.952678 109.863161 
Q 157.765443 112.006329 157.765443 116.436743 
Q 157.765443 120.070222 158.835948 122.330454 
Q 159.909299 124.586183 162.036072 124.586183 
Q 163.99202 124.586183 165.016971 122.208887 
Q 165.557917 120.957205 165.825543 118.913092 
L 167.550877 118.913092 
Q 167.320263 122.17737 166.021992 124.388075 
Q 164.464636 127.049024 161.822541 127.049024 
Q 159.544872 127.049024 157.996057 124.865335 
Q 155.957544 121.983765 155.957544 115.959483 
Q 155.957544 111.389493 157.489276 108.462898 
Q 159.143433 105.279664 162.053155 105.279664 
z
M 161.697269 105.279664 
L 161.697269 105.279664 
z
" style="fill:#0000ff;"/>
   </g>
   <g id="patch_25">
    <path clip-path="url(#pab340bddde)" d="M 167.550877 73.790793 
L 167.550877 77.542571 
L 162.736143 77.542571 
L 162.736143 105.279664 
L 160.772279 105.279664 
L 160.772279 77.542571 
L 155.957544 77.542571 
L 155.957544 73.790793 
L 167.550877 73.790793 
z
" style="fill:#ff0000;"/>
   </g>
   <g id="patch_26">
    <path clip-path="url(#pab340bddde)" d="M 163.739254 55.357406 
L 161.766944 35.48345 
L 159.670127 55.357406 
L 163.739254 55.357406 
z
M 160.847288 28.8 
L 162.836576 28.8 
L 167.550877 73.790793 
L 165.621013 73.790793 
L 164.305197 60.316094 
L 159.166438 60.316094 
L 157.760071 73.790793 
L 155.957544 73.790793 
L 160.847288 28.8 
z
M 161.758455 28.8 
L 161.758455 28.8 
z
" style="fill:#008000;"/>
   </g>
   <g id="patch_27">
    <path clip-path="url(#pab340bddde)" d="M 174.140161 127.093522 
Q 175.928641 127.093522 177.233375 127.84629 
Q 179.124133 128.927264 179.547066 131.637227 
L 177.847042 131.637227 
Q 177.53468 130.122659 176.558894 129.430113 
Q 175.583108 128.737567 174.095933 128.737567 
Q 172.335095 128.737567 171.129875 130.179869 
Q 169.924655 131.61916 169.924655 134.470643 
Q 169.924655 136.933698 170.917026 138.481388 
Q 171.912162 140.029078 174.156746 140.029078 
Q 175.87612 140.029078 177.003941 138.945093 
Q 178.131762 137.858097 178.15664 135.428163 
L 174.184389 135.428163 
L 174.184389 133.877462 
L 179.754386 133.877462 
L 179.754386 141.27265 
L 178.648679 141.27265 
L 178.234039 139.493107 
Q 177.363296 140.537949 176.688815 140.944443 
Q 175.555465 141.64 173.811213 141.64 
Q 171.558336 141.64 169.932947 140.050155 
Q 168.161053 138.053816 168.161053 134.57302 
Q 168.161053 131.101256 169.888719 129.050718 
Q 171.530693 127.093522 174.140161 127.093522 
z
M 173.855441 127.072445 
L 173.855441 127.072445 
z
" style="fill:#ffa600;"/>
   </g>
   <g id="patch_28">
    <path clip-path="url(#pab340bddde)" d="M 174.256663 104.377974 
Q 176.739322 104.377974 178.10877 106.537117 
Q 179.478219 108.691567 179.629114 111.432739 
L 177.90378 111.432739 
Q 177.61053 109.353391 176.733628 108.137699 
Q 175.856726 106.917314 174.273746 106.917314 
Q 172.343422 106.917314 171.156187 109.156252 
Q 169.968952 111.390495 169.968952 116.009184 
Q 169.968952 119.797072 171.039456 122.153354 
Q 172.112808 124.504942 174.239581 124.504942 
Q 176.195529 124.504942 177.22048 122.026622 
Q 177.761426 120.721748 178.029052 118.590768 
L 179.754386 118.590768 
Q 179.523772 121.993765 178.225501 124.298416 
Q 176.668145 127.072445 174.026049 127.072445 
Q 171.748381 127.072445 170.199566 124.795957 
Q 168.161053 121.791932 168.161053 115.511642 
Q 168.161053 110.747446 169.692785 107.696483 
Q 171.346942 104.377974 174.256663 104.377974 
z
M 173.900778 104.377974 
L 173.900778 104.377974 
z
" style="fill:#0000ff;"/>
   </g>
   <g id="patch_29">
    <path clip-path="url(#pab340bddde)" d="M 179.754386 72.572927 
L 179.754386 76.362376 
L 174.939651 76.362376 
L 174.939651 104.377974 
L 172.975787 104.377974 
L 172.975787 76.362376 
L 168.161053 76.362376 
L 168.161053 72.572927 
L 179.754386 72.572927 
z
" style="fill:#ff0000;"/>
   </g>
   <g id="patch_30">
    <path clip-path="url(#pab340bddde)" d="M 175.942763 54.638517 
L 173.970453 35.302535 
L 171.873636 54.638517 
L 175.942763 54.638517 
z
M 173.050796 28.8 
L 175.040084 28.8 
L 179.754386 72.572927 
L 177.824522 72.572927 
L 176.508705 59.462978 
L 171.369947 59.462978 
L 169.96358 72.572927 
L 168.161053 72.572927 
L 173.050796 28.8 
z
M 173.961964 28.8 
L 173.961964 28.8 
z
" style="fill:#008000;"/>
   </g>
   <g id="patch_31">
    <path clip-path="url(#pab340bddde)" d="M 186.34367 126.847963 
Q 188.13215 126.847963 189.436884 127.613438 
Q 191.327642 128.71266 191.750575 131.468369 
L 190.050551 131.468369 
Q 189.738189 129.928234 188.762403 129.223997 
Q 187.786617 128.51976 186.299441 128.51976 
Q 184.538604 128.51976 183.333384 129.98641 
Q 182.128163 131.449998 182.128163 134.349617 
Q 182.128163 136.854251 183.120535 138.428067 
Q 184.115671 140.001884 186.360255 140.001884 
Q 188.079629 140.001884 189.20745 138.8996 
Q 190.33527 137.794254 190.360149 135.323301 
L 186.387898 135.323301 
L 186.387898 133.746423 
L 191.957895 133.746423 
L 191.957895 141.266448 
L 190.852188 141.266448 
L 190.437548 139.456866 
Q 189.566804 140.519345 188.892323 140.932701 
Q 187.758974 141.64 186.014722 141.64 
Q 183.761845 141.64 182.136456 140.023317 
Q 180.364561 137.993278 180.364561 134.453722 
Q 180.364561 130.923351 182.092228 128.838198 
Q 183.734202 126.847963 186.34367 126.847963 
z
M 186.05895 126.82653 
L 186.05895 126.82653 
z
" style="fill:#ffa600;"/>
   </g>
   <g id="patch_32">
    <path clip-path="url(#pab340bddde)" d="M 186.460172 104.495077 
Q 188.942831 104.495077 190.312279 106.619682 
Q 191.681727 108.739669 191.832623 111.436995 
L 190.107289 111.436995 
Q 189.814039 109.390907 188.937137 108.194662 
Q 188.060234 106.993798 186.477255 106.993798 
Q 184.54693 106.993798 183.359696 109.196921 
Q 182.172461 111.395426 182.172461 115.940235 
Q 182.172461 119.667532 183.242965 121.986124 
Q 184.316316 124.300096 186.44309 124.300096 
Q 188.399038 124.300096 189.423988 121.861419 
Q 189.964935 120.577418 190.232561 118.480524 
L 191.957895 118.480524 
Q 191.727281 121.829088 190.42901 124.096873 
Q 188.871654 126.82653 186.229558 126.82653 
Q 183.951889 126.82653 182.403075 124.586456 
Q 180.364561 121.630483 180.364561 115.450652 
Q 180.364561 110.762663 181.896294 107.760503 
Q 183.55045 104.495077 186.460172 104.495077 
z
M 186.104286 104.495077 
L 186.104286 104.495077 
z
" style="fill:#0000ff;"/>
   </g>
   <g id="patch_33">
    <path clip-path="url(#pab340bddde)" d="M 191.957895 72.830552 
L 191.957895 76.603258 
L 187.14316 76.603258 
L 187.14316 104.495077 
L 185.179296 104.495077 
L 185.179296 76.603258 
L 180.364561 76.603258 
L 180.364561 72.830552 
L 191.957895 72.830552 
z
" style="fill:#ff0000;"/>
   </g>
   <g id="patch_34">
    <path clip-path="url(#pab340bddde)" d="M 188.146272 54.790589 
L 186.173962 35.340805 
L 184.077145 54.790589 
L 188.146272 54.790589 
z
M 185.254305 28.8 
L 187.243593 28.8 
L 191.957895 72.830552 
L 190.028031 72.830552 
L 188.712214 59.643445 
L 183.573456 59.643445 
L 182.167088 72.830552 
L 180.364561 72.830552 
L 185.254305 28.8 
z
M 186.165473 28.8 
L 186.165473 28.8 
z
" style="fill:#008000;"/>
   </g>
   <g id="patch_35">
    <path clip-path="url(#pab340bddde)" d="M 198.547178 127.315695 
Q 200.335659 127.315695 201.640393 128.056966 
Q 203.531151 129.121429 203.954084 131.790002 
L 202.25406 131.790002 
Q 201.941698 130.298567 200.965912 129.616598 
Q 199.990125 128.934629 198.50295 128.934629 
Q 196.742112 128.934629 195.536892 130.354903 
Q 194.331672 131.772212 194.331672 134.580143 
Q 194.331672 137.005579 195.324044 138.52963 
Q 196.31918 140.053682 198.563764 140.053682 
Q 200.283138 140.053682 201.410958 138.986253 
Q 202.538779 137.915859 202.563658 135.523039 
L 198.591407 135.523039 
L 198.591407 133.996022 
L 204.161404 133.996022 
L 204.161404 141.27826 
L 203.055697 141.27826 
L 202.641057 139.525897 
Q 201.770313 140.55478 201.095832 140.955066 
Q 199.962483 141.64 198.218231 141.64 
Q 195.965354 141.64 194.339965 140.074437 
Q 192.56807 138.108589 192.56807 134.680956 
Q 192.56807 131.262218 194.295737 129.242998 
Q 195.937711 127.315695 198.547178 127.315695 
z
M 198.262459 127.29494 
L 198.262459 127.29494 
z
" style="fill:#ffa600;"/>
   </g>
   <g id="patch_36">
    <path clip-path="url(#pab340bddde)" d="M 198.663681 105.513869 
Q 201.14634 105.513869 202.515788 107.586111 
Q 203.885236 109.653849 204.036132 112.284696 
L 202.310798 112.284696 
Q 202.017548 110.289036 201.140645 109.122274 
Q 200.263743 107.951006 198.680763 107.951006 
Q 196.750439 107.951006 195.563204 110.099832 
Q 194.37597 112.244152 194.37597 116.676949 
Q 194.37597 120.312383 195.446474 122.573831 
Q 196.519825 124.830773 198.646598 124.830773 
Q 200.602546 124.830773 201.627497 122.452199 
Q 202.168443 121.199844 202.43607 119.154631 
L 204.161404 119.154631 
Q 203.93079 122.420665 202.632518 124.632559 
Q 201.075163 127.29494 198.433067 127.29494 
Q 196.155398 127.29494 194.606584 125.110075 
Q 192.56807 122.226955 192.56807 116.199433 
Q 192.56807 111.626984 194.099802 108.698816 
Q 195.753959 105.513869 198.663681 105.513869 
z
M 198.307795 105.513869 
L 198.307795 105.513869 
z
" style="fill:#0000ff;"/>
   </g>
   <g id="patch_37">
    <path clip-path="url(#pab340bddde)" d="M 204.161404 73.334093 
L 204.161404 77.16819 
L 199.346669 77.16819 
L 199.346669 105.513869 
L 197.382805 105.513869 
L 197.382805 77.16819 
L 192.56807 77.16819 
L 192.56807 73.334093 
L 204.161404 73.334093 
z
" style="fill:#ff0000;"/>
   </g>
   <g id="patch_38">
    <path clip-path="url(#pab340bddde)" d="M 200.34978 55.087822 
L 198.377471 35.415607 
L 196.280653 55.087822 
L 200.34978 55.087822 
z
M 197.457814 28.8 
L 199.447102 28.8 
L 204.161404 73.334093 
L 202.231539 73.334093 
L 200.915723 59.996176 
L 195.776964 59.996176 
L 194.370597 73.334093 
L 192.56807 73.334093 
L 197.457814 28.8 
z
M 198.368981 28.8 
L 198.368981 28.8 
z
" style="fill:#008000;"/>
   </g>
   <g id="patch_39">
    <path clip-path="url(#pab340bddde)" d="M 210.750687 127.093522 
Q 212.539168 127.093522 213.843901 127.84629 
Q 215.73466 128.927264 216.157592 131.637227 
L 214.457568 131.637227 
Q 214.145206 130.122659 213.16942 129.430113 
Q 212.193634 128.737567 210.706459 128.737567 
Q 208.945621 128.737567 207.740401 130.179869 
Q 206.535181 131.61916 206.535181 134.470643 
Q 206.535181 136.933698 207.527553 138.481388 
Q 208.522688 140.029078 210.767273 140.029078 
Q 212.486647 140.029078 213.614467 138.945093 
Q 214.742288 137.858097 214.767166 135.428163 
L 210.794915 135.428163 
L 210.794915 133.877462 
L 216.364912 133.877462 
L 216.364912 141.27265 
L 215.259206 141.27265 
L 214.844566 139.493107 
Q 213.973822 140.537949 213.299341 140.944443 
Q 212.165992 141.64 210.421739 141.64 
Q 208.168862 141.64 206.543474 140.050155 
Q 204.771579 138.053816 204.771579 134.57302 
Q 204.771579 131.101256 206.499245 129.050718 
Q 208.14122 127.093522 210.750687 127.093522 
z
M 210.465968 127.072445 
L 210.465968 127.072445 
z
" style="fill:#ffa600;"/>
   </g>
   <g id="patch_40">
    <path clip-path="url(#pab340bddde)" d="M 210.86719 105.185982 
Q 213.349848 105.185982 214.719297 107.268251 
Q 216.088745 109.345994 216.239641 111.989571 
L 214.514307 111.989571 
Q 214.221057 109.984255 213.344154 108.811847 
Q 212.467252 107.634912 210.884272 107.634912 
Q 208.953948 107.634912 207.766713 109.794135 
Q 206.579478 111.948831 206.579478 116.403077 
Q 206.579478 120.056102 207.649983 122.328492 
Q 208.723334 124.596355 210.850107 124.596355 
Q 212.806055 124.596355 213.831006 122.206272 
Q 214.371952 120.947857 214.639578 118.892747 
L 216.364912 118.892747 
Q 216.134298 122.174585 214.836027 124.397181 
Q 213.278671 127.072445 210.636576 127.072445 
Q 208.358907 127.072445 206.810092 124.877009 
Q 204.771579 121.979938 204.771579 115.92325 
Q 204.771579 111.328677 206.303311 108.386339 
Q 207.957468 105.185982 210.86719 105.185982 
z
M 210.511304 105.185982 
L 210.511304 105.185982 
z
" style="fill:#0000ff;"/>
   </g>
   <g id="patch_41">
    <path clip-path="url(#pab340bddde)" d="M 216.364912 73.322383 
L 216.364912 77.118808 
L 211.550178 77.118808 
L 211.550178 105.185982 
L 209.586314 105.185982 
L 209.586314 77.118808 
L 204.771579 77.118808 
L 204.771579 73.322383 
L 216.364912 73.322383 
z
" style="fill:#ff0000;"/>
   </g>
   <g id="patch_42">
    <path clip-path="url(#pab340bddde)" d="M 212.553289 55.08091 
L 210.580979 35.413867 
L 208.484162 55.08091 
L 212.553289 55.08091 
z
M 209.661323 28.8 
L 211.650611 28.8 
L 216.364912 73.322383 
L 214.435048 73.322383 
L 213.119232 59.987973 
L 207.980473 59.987973 
L 206.574106 73.322383 
L 204.771579 73.322383 
L 209.661323 28.8 
z
M 210.57249 28.8 
L 210.57249 28.8 
z
" style="fill:#008000;"/>
   </g>
   <g id="patch_43">
    <path clip-path="url(#pab340bddde)" d="M 222.954196 126.333457 
Q 224.742676 126.333457 226.04741 127.125557 
Q 227.938168 128.263013 228.361101 131.114574 
L 226.661077 131.114574 
Q 226.348715 129.520868 225.372929 128.792136 
Q 224.397143 128.063404 222.909968 128.063404 
Q 221.14913 128.063404 219.94391 129.581068 
Q 218.73869 131.095563 218.73869 134.096038 
Q 218.73869 136.68779 219.731061 138.316348 
Q 220.726197 139.944906 222.970782 139.944906 
Q 224.690155 139.944906 225.817976 138.804282 
Q 226.945797 137.660489 226.970675 135.10359 
L 222.998424 135.10359 
L 222.998424 133.471864 
L 228.568421 133.471864 
L 228.568421 141.253455 
L 227.462714 141.253455 
L 227.048075 139.38093 
Q 226.177331 140.480365 225.50285 140.908099 
Q 224.3695 141.64 222.625248 141.64 
Q 220.372371 141.64 218.746982 139.967085 
Q 216.975088 137.866435 216.975088 134.203764 
Q 216.975088 130.550598 218.702754 128.392918 
Q 220.344728 126.333457 222.954196 126.333457 
z
M 222.669477 126.311279 
L 222.669477 126.311279 
z
" style="fill:#ffa600;"/>
   </g>
   <g id="patch_44">
    <path clip-path="url(#pab340bddde)" d="M 223.070698 104.717572 
Q 225.553357 104.717572 226.922805 106.771988 
Q 228.292254 108.821939 228.443149 111.430155 
L 226.717815 111.430155 
Q 226.424565 109.451662 225.547663 108.294936 
Q 224.670761 107.133744 223.087781 107.133744 
Q 221.157457 107.133744 219.970222 109.264085 
Q 218.782987 111.38996 218.782987 115.784626 
Q 218.782987 119.388787 219.853491 121.630781 
Q 220.926843 123.868309 223.053616 123.868309 
Q 225.009564 123.868309 226.034515 121.510196 
Q 226.575461 120.268613 226.843087 118.240993 
L 228.568421 118.240993 
Q 228.337807 121.478933 227.039536 123.6718 
Q 225.48218 126.311279 222.840084 126.311279 
Q 220.562416 126.311279 219.013601 124.145209 
Q 216.975088 121.28689 216.975088 115.311216 
Q 216.975088 110.778101 218.50682 107.875121 
Q 220.160977 104.717572 223.070698 104.717572 
z
M 222.714813 104.717572 
L 222.714813 104.717572 
z
" style="fill:#0000ff;"/>
   </g>
   <g id="patch_45">
    <path clip-path="url(#pab340bddde)" d="M 228.568421 73.357513 
L 228.568421 77.093944 
L 223.753686 77.093944 
L 223.753686 104.717572 
L 221.789822 104.717572 
L 221.789822 77.093944 
L 216.975088 77.093944 
L 216.975088 73.357513 
L 228.568421 73.357513 
z
" style="fill:#ff0000;"/>
   </g>
   <g id="patch_46">
    <path clip-path="url(#pab340bddde)" d="M 224.756798 55.101647 
L 222.784488 35.419086 
L 220.687671 55.101647 
L 224.756798 55.101647 
z
M 221.864831 28.8 
L 223.85412 28.8 
L 228.568421 73.357513 
L 226.638557 73.357513 
L 225.32274 60.012582 
L 220.183982 60.012582 
L 218.777615 73.357513 
L 216.975088 73.357513 
L 221.864831 28.8 
z
M 222.775999 28.8 
L 222.775999 28.8 
z
" style="fill:#008000;"/>
   </g>
   <g id="patch_47">
    <path clip-path="url(#pab340bddde)" d="M 235.157705 126.76611 
Q 236.946185 126.76611 238.250919 127.535821 
Q 240.141677 128.641125 240.56461 131.412084 
L 238.864586 131.412084 
Q 238.552224 129.863426 237.576438 129.155292 
Q 236.600652 128.447158 235.113476 128.447158 
Q 233.352639 128.447158 232.147419 129.921924 
Q 230.942198 131.393611 230.942198 134.309275 
Q 230.942198 136.827769 231.93457 138.410294 
Q 232.929706 139.992819 235.17429 139.992819 
Q 236.893664 139.992819 238.021485 138.884436 
Q 239.149305 137.772973 239.174184 135.288347 
L 235.201933 135.288347 
L 235.201933 133.702743 
L 240.77193 133.702743 
L 240.77193 141.264381 
L 239.666223 141.264381 
L 239.251583 139.444785 
Q 238.380839 140.513143 237.706358 140.928787 
Q 236.573009 141.64 234.828757 141.64 
Q 232.57588 141.64 230.950491 140.014371 
Q 229.178596 137.973098 229.178596 134.413956 
Q 229.178596 130.86405 230.906263 128.767358 
Q 232.548237 126.76611 235.157705 126.76611 
z
M 234.872985 126.744558 
L 234.872985 126.744558 
z
" style="fill:#ffa600;"/>
   </g>
   <g id="patch_48">
    <path clip-path="url(#pab340bddde)" d="M 235.274207 104.448236 
Q 237.756866 104.448236 239.126314 106.569499 
Q 240.495763 108.686151 240.646658 111.379233 
L 238.921324 111.379233 
Q 238.628074 109.336364 237.751172 108.142001 
Q 236.874269 106.943026 235.29129 106.943026 
Q 233.360966 106.943026 232.173731 109.142684 
Q 230.986496 111.33773 230.986496 115.875389 
Q 230.986496 119.596823 232.057 121.911767 
Q 233.130352 124.222099 235.257125 124.222099 
Q 237.213073 124.222099 238.238023 121.787258 
Q 238.77897 120.505277 239.046596 118.411682 
L 240.77193 118.411682 
Q 240.541316 121.754978 239.243045 124.019196 
Q 237.685689 126.744558 235.043593 126.744558 
Q 232.765925 126.744558 231.21711 124.508009 
Q 229.178596 121.556686 229.178596 115.386576 
Q 229.178596 110.705963 230.710329 107.708525 
Q 232.364485 104.448236 235.274207 104.448236 
z
M 234.918321 104.448236 
L 234.918321 104.448236 
z
" style="fill:#0000ff;"/>
   </g>
   <g id="patch_49">
    <path clip-path="url(#pab340bddde)" d="M 240.77193 73.076467 
L 240.77193 76.814293 
L 235.957195 76.814293 
L 235.957195 104.448236 
L 233.993331 104.448236 
L 233.993331 76.814293 
L 229.178596 76.814293 
L 229.178596 73.076467 
L 240.77193 73.076467 
z
" style="fill:#ff0000;"/>
   </g>
   <g id="patch_50">
    <path clip-path="url(#pab340bddde)" d="M 236.960307 54.93575 
L 234.987997 35.377336 
L 232.89118 54.93575 
L 236.960307 54.93575 
z
M 234.06834 28.8 
L 236.057628 28.8 
L 240.77193 73.076467 
L 238.842066 73.076467 
L 237.526249 59.815709 
L 232.387491 59.815709 
L 230.981124 73.076467 
L 229.178596 73.076467 
L 234.06834 28.8 
z
M 234.979508 28.8 
L 234.979508 28.8 
z
" style="fill:#008000;"/>
   </g>
   <g id="patch_51">
    <path clip-path="url(#pab340bddde)" d="M 247.361214 127.304002 
Q 249.149694 127.304002 250.454428 128.045877 
Q 252.345186 129.11121 252.768119 131.781961 
L 251.068095 131.781961 
Q 250.755733 130.289308 249.779947 129.606783 
Q 248.804161 128.924258 247.316985 128.924258 
Q 245.556148 128.924258 244.350927 130.345691 
Q 243.145707 131.764156 243.145707 134.57438 
Q 243.145707 137.001796 244.138079 138.527091 
Q 245.133215 140.052387 247.377799 140.052387 
Q 249.097173 140.052387 250.224994 138.984086 
Q 251.352814 137.912819 251.377693 135.518045 
L 247.405442 135.518045 
L 247.405442 133.989782 
L 252.975439 133.989782 
L 252.975439 141.277965 
L 251.869732 141.277965 
L 251.455092 139.524172 
Q 250.584348 140.553895 249.909867 140.954507 
Q 248.776518 141.64 247.032266 141.64 
Q 244.779389 141.64 243.154 140.073159 
Q 241.382105 138.105706 241.382105 134.675275 
Q 241.382105 131.253746 243.109772 129.232878 
Q 244.751746 127.304002 247.361214 127.304002 
z
M 247.076494 127.28323 
L 247.076494 127.28323 
z
" style="fill:#ffa600;"/>
   </g>
   <g id="patch_52">
    <path clip-path="url(#pab340bddde)" d="M 247.477716 105.256243 
Q 249.960375 105.256243 251.329823 107.351882 
Q 252.699271 109.442965 252.850167 112.103515 
L 251.124833 112.103515 
Q 250.831583 110.085324 249.954681 108.905388 
Q 249.077778 107.720897 247.494798 107.720897 
Q 245.564474 107.720897 244.37724 109.893983 
Q 243.190005 112.062514 243.190005 116.545358 
Q 243.190005 120.221838 244.260509 122.508818 
Q 245.33386 124.791242 247.460633 124.791242 
Q 249.416581 124.791242 250.441532 122.385813 
Q 250.982479 121.119318 251.250105 119.051014 
L 252.975439 119.051014 
Q 252.744825 122.353923 251.446554 124.590789 
Q 249.889198 127.28323 247.247102 127.28323 
Q 244.969433 127.28323 243.420619 125.073697 
Q 241.382105 122.158026 241.382105 116.06245 
Q 241.382105 111.438378 242.913837 108.477149 
Q 244.567994 105.256243 247.477716 105.256243 
z
M 247.12183 105.256243 
L 247.12183 105.256243 
z
" style="fill:#0000ff;"/>
   </g>
   <g id="patch_53">
    <path clip-path="url(#pab340bddde)" d="M 252.975439 73.017916 
L 252.975439 76.858989 
L 248.160704 76.858989 
L 248.160704 105.256243 
L 246.19684 105.256243 
L 246.19684 76.858989 
L 241.382105 76.858989 
L 241.382105 73.017916 
L 252.975439 73.017916 
z
" style="fill:#ff0000;"/>
   </g>
   <g id="patch_54">
    <path clip-path="url(#pab340bddde)" d="M 249.163815 54.901188 
L 247.191506 35.368638 
L 245.094688 54.901188 
L 249.163815 54.901188 
z
M 246.271849 28.8 
L 248.261137 28.8 
L 252.975439 73.017916 
L 251.045574 73.017916 
L 249.729758 59.774694 
L 244.591 59.774694 
L 243.184632 73.017916 
L 241.382105 73.017916 
L 246.271849 28.8 
z
M 247.183016 28.8 
L 247.183016 28.8 
z
" style="fill:#008000;"/>
   </g>
   <g id="patch_55">
    <path clip-path="url(#pab340bddde)" d="M 259.564722 127.549562 
Q 261.353203 127.549562 262.657936 128.278729 
Q 264.548695 129.325814 264.971627 131.950818 
L 263.271604 131.950818 
Q 262.959241 130.483733 261.983455 129.812898 
Q 261.007669 129.142064 259.520494 129.142064 
Q 257.759656 129.142064 256.554436 130.53915 
Q 255.349216 131.933318 255.349216 134.695406 
Q 255.349216 137.081243 256.341588 138.580412 
Q 257.336724 140.079581 259.581308 140.079581 
Q 261.300682 140.079581 262.428502 139.029579 
Q 263.556323 137.976661 263.581201 135.622907 
L 259.608951 135.622907 
L 259.608951 134.120822 
L 265.178947 134.120822 
L 265.178947 141.284166 
L 264.073241 141.284166 
L 263.658601 139.560413 
Q 262.787857 140.572498 262.113376 140.966249 
Q 260.980027 141.64 259.235775 141.64 
Q 256.982897 141.64 255.357509 140.099998 
Q 253.585614 138.166245 253.585614 134.794573 
Q 253.585614 131.431651 255.313281 129.445398 
Q 256.955255 127.549562 259.564722 127.549562 
z
M 259.280003 127.529145 
L 259.280003 127.529145 
z
" style="fill:#ffa600;"/>
   </g>
   <g id="patch_56">
    <path clip-path="url(#pab340bddde)" d="M 259.681225 105.853466 
Q 262.163884 105.853466 263.533332 107.915682 
Q 264.90278 109.973414 265.053676 112.591531 
L 263.328342 112.591531 
Q 263.035092 110.605528 262.158189 109.444411 
Q 261.281287 108.278811 259.698307 108.278811 
Q 257.767983 108.278811 256.580748 110.417239 
Q 255.393514 112.551184 255.393514 116.962532 
Q 255.393514 120.580375 256.464018 122.83088 
Q 257.537369 125.076902 259.664142 125.076902 
Q 261.62009 125.076902 262.645041 122.709837 
Q 263.185987 121.463541 263.453613 119.428224 
L 265.178947 119.428224 
Q 264.948333 122.678455 263.650062 124.879646 
Q 262.092706 127.529145 259.450611 127.529145 
Q 257.172942 127.529145 255.624127 125.354852 
Q 253.585614 122.485683 253.585614 116.487326 
Q 253.585614 111.937002 255.117346 109.023002 
Q 256.771503 105.853466 259.681225 105.853466 
z
M 259.325339 105.853466 
L 259.325339 105.853466 
z
" style="fill:#0000ff;"/>
   </g>
   <g id="patch_57">
    <path clip-path="url(#pab340bddde)" d="M 265.178947 73.954736 
L 265.178947 77.755347 
L 260.364213 77.755347 
L 260.364213 105.853466 
L 258.400349 105.853466 
L 258.400349 77.755347 
L 253.585614 77.755347 
L 253.585614 73.954736 
L 265.178947 73.954736 
z
" style="fill:#ff0000;"/>
   </g>
   <g id="patch_58">
    <path clip-path="url(#pab340bddde)" d="M 261.367324 55.454179 
L 259.395014 35.507804 
L 257.298197 55.454179 
L 261.367324 55.454179 
z
M 258.475358 28.8 
L 260.464646 28.8 
L 265.178947 73.954736 
L 263.249083 73.954736 
L 261.933267 60.430937 
L 256.794508 60.430937 
L 255.388141 73.954736 
L 253.585614 73.954736 
L 258.475358 28.8 
z
M 259.386525 28.8 
L 259.386525 28.8 
z
" style="fill:#008000;"/>
   </g>
   <g id="patch_59">
    <path clip-path="url(#pab340bddde)" d="M 271.768231 126.90643 
Q 273.556711 126.90643 274.861445 127.668879 
Q 276.752203 128.763756 277.175136 131.508574 
L 275.475112 131.508574 
Q 275.16275 129.974526 274.186964 129.273072 
Q 273.211178 128.571619 271.724003 128.571619 
Q 269.963165 128.571619 268.757945 130.032472 
Q 267.552725 131.490275 267.552725 134.378433 
Q 267.552725 136.873167 268.545096 138.440763 
Q 269.540232 140.008358 271.784817 140.008358 
Q 273.50419 140.008358 274.632011 138.910431 
Q 275.759832 137.809455 275.78471 135.348268 
L 271.812459 135.348268 
L 271.812459 133.777623 
L 277.382456 133.777623 
L 277.382456 141.267925 
L 276.27675 141.267925 
L 275.86211 139.465495 
Q 274.991366 140.523774 274.316885 140.935497 
Q 273.183535 141.64 271.439283 141.64 
Q 269.186406 141.64 267.561018 140.029707 
Q 265.789123 138.007691 265.789123 134.482126 
Q 265.789123 130.96571 267.516789 128.888798 
Q 269.158764 126.90643 271.768231 126.90643 
z
M 271.483512 126.885081 
L 271.483512 126.885081 
z
" style="fill:#ffa600;"/>
   </g>
   <g id="patch_60">
    <path clip-path="url(#pab340bddde)" d="M 271.884733 105.57242 
Q 274.367392 105.57242 275.736841 107.600098 
Q 277.106289 109.623368 277.257184 112.197638 
L 275.53185 112.197638 
Q 275.238601 110.244896 274.361698 109.103225 
Q 273.484796 107.957146 271.901816 107.957146 
Q 269.971492 107.957146 268.784257 110.05976 
Q 267.597022 112.157966 267.597022 116.495434 
Q 267.597022 120.052687 268.667527 122.265501 
Q 269.740878 124.473907 271.867651 124.473907 
Q 273.823599 124.473907 274.84855 122.146485 
Q 275.389496 120.921062 275.657122 118.919832 
L 277.382456 118.919832 
Q 277.151842 122.115629 275.853571 124.279955 
Q 274.296215 126.885081 271.65412 126.885081 
Q 269.376451 126.885081 267.827636 124.747203 
Q 265.789123 121.926085 265.789123 116.028187 
Q 265.789123 111.554071 267.320855 108.688873 
Q 268.975012 105.57242 271.884733 105.57242 
z
M 271.528848 105.57242 
L 271.528848 105.57242 
z
" style="fill:#0000ff;"/>
   </g>
   <g id="patch_61">
    <path clip-path="url(#pab340bddde)" d="M 277.382456 73.779083 
L 277.382456 77.567137 
L 272.567721 77.567137 
L 272.567721 105.57242 
L 270.603857 105.57242 
L 270.603857 77.567137 
L 265.789123 77.567137 
L 265.789123 73.779083 
L 277.382456 73.779083 
z
" style="fill:#ff0000;"/>
   </g>
   <g id="patch_62">
    <path clip-path="url(#pab340bddde)" d="M 273.570833 55.350493 
L 271.598523 35.481711 
L 269.501706 55.350493 
L 273.570833 55.350493 
z
M 270.678867 28.8 
L 272.668155 28.8 
L 277.382456 73.779083 
L 275.452592 73.779083 
L 274.136776 60.307891 
L 268.998017 60.307891 
L 267.59165 73.779083 
L 265.789123 73.779083 
L 270.678867 28.8 
z
M 271.590034 28.8 
L 271.590034 28.8 
z
" style="fill:#008000;"/>
   </g>
   <g id="patch_63">
    <path clip-path="url(#pab340bddde)" d="M 283.97174 127.081829 
Q 285.76022 127.081829 287.064954 127.835202 
Q 288.955712 128.917045 289.378645 131.629186 
L 287.678621 131.629186 
Q 287.366259 130.1134 286.390473 129.420298 
Q 285.414687 128.727195 283.927512 128.727195 
Q 282.166674 128.727195 280.961454 130.170657 
Q 279.756234 131.611105 279.756234 134.46488 
Q 279.756234 136.929915 280.748605 138.478849 
Q 281.743741 140.027783 283.988325 140.027783 
Q 285.707699 140.027783 286.83552 138.942926 
Q 287.963341 137.855056 287.988219 135.42317 
L 284.015968 135.42317 
L 284.015968 133.871222 
L 289.585965 133.871222 
L 289.585965 141.272354 
L 288.480258 141.272354 
L 288.065618 139.491382 
Q 287.194874 140.537063 286.520393 140.943884 
Q 285.387044 141.64 283.642792 141.64 
Q 281.389915 141.64 279.764526 140.048877 
Q 277.992632 138.050933 277.992632 134.567339 
Q 277.992632 131.092785 279.720298 129.040598 
Q 281.362272 127.081829 283.97174 127.081829 
z
M 283.68702 127.060735 
L 283.68702 127.060735 
z
" style="fill:#ffa600;"/>
   </g>
   <g id="patch_64">
    <path clip-path="url(#pab340bddde)" d="M 284.088242 105.162561 
Q 286.570901 105.162561 287.940349 107.245945 
Q 289.309798 109.324799 289.460693 111.969791 
L 287.735359 111.969791 
Q 287.442109 109.963402 286.565207 108.790366 
Q 285.688304 107.612802 284.105325 107.612802 
Q 282.175001 107.612802 280.987766 109.77318 
Q 279.800531 111.929029 279.800531 116.385658 
Q 279.800531 120.040638 280.871035 122.314243 
Q 281.944387 124.58332 284.07116 124.58332 
Q 286.027108 124.58332 287.052059 122.191958 
Q 287.593005 120.932869 287.860631 118.87666 
L 289.585965 118.87666 
Q 289.355351 122.160254 288.05708 124.38404 
Q 286.499724 127.060735 283.857628 127.060735 
Q 281.57996 127.060735 280.031145 124.864124 
Q 277.992632 121.965503 277.992632 115.905574 
Q 277.992632 111.308543 279.524364 108.364631 
Q 281.178521 105.162561 284.088242 105.162561 
z
M 283.732357 105.162561 
L 283.732357 105.162561 
z
" style="fill:#0000ff;"/>
   </g>
   <g id="patch_65">
    <path clip-path="url(#pab340bddde)" d="M 289.585965 73.123308 
L 289.585965 76.940662 
L 284.77123 76.940662 
L 284.77123 105.162561 
L 282.807366 105.162561 
L 282.807366 76.940662 
L 277.992632 76.940662 
L 277.992632 73.123308 
L 289.585965 73.123308 
z
" style="fill:#ff0000;"/>
   </g>
   <g id="patch_66">
    <path clip-path="url(#pab340bddde)" d="M 285.774342 54.963399 
L 283.802032 35.384295 
L 281.705215 54.963399 
L 285.774342 54.963399 
z
M 282.882375 28.8 
L 284.871663 28.8 
L 289.585965 73.123308 
L 287.656101 73.123308 
L 286.340284 59.848521 
L 281.201526 59.848521 
L 279.795159 73.123308 
L 277.992632 73.123308 
L 282.882375 28.8 
z
M 283.793543 28.8 
L 283.793543 28.8 
z
" style="fill:#008000;"/>
   </g>
   <g id="patch_67">
    <path clip-path="url(#pab340bddde)" d="M 296.175249 127.233842 
Q 297.963729 127.233842 299.268463 127.979348 
Q 301.159221 129.049895 301.582154 131.733716 
L 299.88213 131.733716 
Q 299.569768 130.233758 298.593982 129.547893 
Q 297.618196 128.862027 296.13102 128.862027 
Q 294.370183 128.862027 293.164962 130.290417 
Q 291.959742 131.715824 291.959742 134.539801 
Q 291.959742 136.979097 292.952114 138.511857 
Q 293.94725 140.044617 296.191834 140.044617 
Q 297.911208 140.044617 299.039029 138.971089 
Q 300.166849 137.894578 300.191728 135.488085 
L 296.219477 135.488085 
L 296.219477 133.952342 
L 301.789474 133.952342 
L 301.789474 141.276193 
L 300.683767 141.276193 
L 300.269127 139.513817 
Q 299.398383 140.548579 298.723902 140.951152 
Q 297.590553 141.64 295.846301 141.64 
Q 293.593424 141.64 291.968035 140.065491 
Q 290.19614 138.088409 290.19614 134.64119 
Q 290.19614 131.202916 291.923807 129.172158 
Q 293.565781 127.233842 296.175249 127.233842 
z
M 295.890529 127.212968 
L 295.890529 127.212968 
z
" style="fill:#ffa600;"/>
   </g>
   <g id="patch_68">
    <path clip-path="url(#pab340bddde)" d="M 296.291751 105.607551 
Q 298.77441 105.607551 300.143858 107.663082 
Q 301.513306 109.714144 301.664202 112.323775 
L 299.938868 112.323775 
Q 299.645618 110.344209 298.768716 109.186856 
Q 297.891813 108.025034 296.308834 108.025034 
Q 294.378509 108.025034 293.191275 110.15653 
Q 292.00404 112.283558 292.00404 116.680606 
Q 292.00404 120.286723 293.074544 122.529932 
Q 294.147895 124.768674 296.274669 124.768674 
Q 298.230616 124.768674 299.255567 122.409282 
Q 299.796514 121.167026 300.06414 119.138306 
L 301.789474 119.138306 
Q 301.55886 122.378002 300.260589 124.572058 
Q 298.703233 127.212968 296.061137 127.212968 
Q 293.783468 127.212968 292.234654 125.045723 
Q 290.19614 122.185854 290.19614 116.206941 
Q 290.19614 111.671367 291.727873 108.766812 
Q 293.382029 105.607551 296.291751 105.607551 
z
M 295.935865 105.607551 
L 295.935865 105.607551 
z
" style="fill:#0000ff;"/>
   </g>
   <g id="patch_69">
    <path clip-path="url(#pab340bddde)" d="M 301.789474 73.63856 
L 301.789474 77.447542 
L 296.974739 77.447542 
L 296.974739 105.607551 
L 295.010875 105.607551 
L 295.010875 77.447542 
L 290.19614 77.447542 
L 290.19614 73.63856 
L 301.789474 73.63856 
z
" style="fill:#ff0000;"/>
   </g>
   <g id="patch_70">
    <path clip-path="url(#pab340bddde)" d="M 297.977851 55.267544 
L 296.005541 35.460836 
L 293.908724 55.267544 
L 297.977851 55.267544 
z
M 295.085884 28.8 
L 297.075172 28.8 
L 301.789474 73.63856 
L 299.85961 73.63856 
L 298.543793 60.209455 
L 293.405035 60.209455 
L 291.998667 73.63856 
L 290.19614 73.63856 
L 295.085884 28.8 
z
M 295.997052 28.8 
L 295.997052 28.8 
z
" style="fill:#008000;"/>
   </g>
   <g id="patch_71">
    <path clip-path="url(#pab340bddde)" d="M 308.378757 127.491095 
Q 310.167238 127.491095 311.471971 128.223288 
Q 313.36273 129.274718 313.785662 131.910614 
L 312.085639 131.910614 
Q 311.773277 130.437441 310.79749 129.763823 
Q 309.821704 129.090205 308.334529 129.090205 
Q 306.573691 129.090205 305.368471 130.493088 
Q 304.163251 131.893042 304.163251 134.66659 
Q 304.163251 137.062327 305.155623 138.567717 
Q 306.150759 140.073106 308.395343 140.073106 
Q 310.114717 140.073106 311.242537 139.018748 
Q 312.370358 137.96146 312.395236 135.59794 
L 308.422986 135.59794 
L 308.422986 134.089622 
L 313.992982 134.089622 
L 313.992982 141.28269 
L 312.887276 141.28269 
L 312.472636 139.551784 
Q 311.601892 140.568069 310.927411 140.963453 
Q 309.794062 141.64 308.04981 141.64 
Q 305.796933 141.64 304.171544 140.093608 
Q 302.399649 138.151831 302.399649 134.766168 
Q 302.399649 131.389293 304.127316 129.394798 
Q 305.76929 127.491095 308.378757 127.491095 
z
M 308.094038 127.470594 
L 308.094038 127.470594 
z
" style="fill:#ffa600;"/>
   </g>
   <g id="patch_72">
    <path clip-path="url(#pab340bddde)" d="M 308.49526 104.975197 
Q 310.977919 104.975197 312.347367 107.1154 
Q 313.716815 109.250951 313.867711 111.968078 
L 312.142377 111.968078 
Q 311.849127 109.90697 310.972224 108.701942 
Q 310.095322 107.492262 308.512342 107.492262 
Q 306.582018 107.492262 305.394783 109.71156 
Q 304.207549 111.926205 304.207549 116.504379 
Q 304.207549 120.259039 305.278053 122.594652 
Q 306.351404 124.925613 308.478177 124.925613 
Q 310.434125 124.925613 311.459076 122.469032 
Q 312.000022 121.175605 312.267648 119.063317 
L 313.992982 119.063317 
Q 313.762369 122.436464 312.464097 124.720898 
Q 310.906741 127.470594 308.264646 127.470594 
Q 305.986977 127.470594 304.438163 125.214075 
Q 302.399649 122.236401 302.399649 116.011201 
Q 302.399649 111.288797 303.931381 108.264596 
Q 305.585538 104.975197 308.49526 104.975197 
z
M 308.139374 104.975197 
L 308.139374 104.975197 
z
" style="fill:#0000ff;"/>
   </g>
   <g id="patch_73">
    <path clip-path="url(#pab340bddde)" d="M 313.992982 72.900814 
L 313.992982 76.722353 
L 309.178248 76.722353 
L 309.178248 104.975197 
L 307.214384 104.975197 
L 307.214384 76.722353 
L 302.399649 76.722353 
L 302.399649 72.900814 
L 313.992982 72.900814 
z
" style="fill:#ff0000;"/>
   </g>
   <g id="patch_74">
    <path clip-path="url(#pab340bddde)" d="M 310.181359 54.832064 
L 308.209049 35.351243 
L 306.112232 54.832064 
L 310.181359 54.832064 
z
M 307.289393 28.8 
L 309.278681 28.8 
L 313.992982 72.900814 
L 312.063118 72.900814 
L 310.747302 59.692663 
L 305.608543 59.692663 
L 304.202176 72.900814 
L 302.399649 72.900814 
L 307.289393 28.8 
z
M 308.20056 28.8 
L 308.20056 28.8 
z
" style="fill:#008000;"/>
   </g>
   <g id="patch_75">
    <path clip-path="url(#pab340bddde)" d="M 320.582266 127.070136 
Q 322.370747 127.070136 323.67548 127.824114 
Q 325.566238 128.906825 325.989171 131.621145 
L 324.289147 131.621145 
Q 323.976785 130.104142 323.000999 129.410482 
Q 322.025213 128.716823 320.538038 128.716823 
Q 318.7772 128.716823 317.57198 130.161444 
Q 316.36676 131.60305 316.36676 134.459117 
Q 316.36676 136.926132 317.359132 138.47631 
Q 318.354267 140.026488 320.598852 140.026488 
Q 322.318225 140.026488 323.446046 138.94076 
Q 324.573867 137.852016 324.598745 135.418176 
L 320.626494 135.418176 
L 320.626494 133.864982 
L 326.196491 133.864982 
L 326.196491 141.272059 
L 325.090785 141.272059 
L 324.676145 139.489656 
Q 323.805401 140.536177 323.13092 140.943325 
Q 321.997571 141.64 320.253318 141.64 
Q 318.000441 141.64 316.375053 140.047599 
Q 314.603158 138.04805 314.603158 134.561658 
Q 314.603158 131.084313 316.330824 129.030478 
Q 317.972799 127.070136 320.582266 127.070136 
z
M 320.297547 127.049024 
L 320.297547 127.049024 
z
" style="fill:#ffa600;"/>
   </g>
   <g id="patch_76">
    <path clip-path="url(#pab340bddde)" d="M 320.698769 105.303084 
Q 323.181427 105.303084 324.550876 107.371984 
Q 325.920324 109.436387 326.071219 112.062991 
L 324.345885 112.062991 
Q 324.052636 110.07055 323.175733 108.905669 
Q 322.298831 107.736291 320.715851 107.736291 
Q 318.785527 107.736291 317.598292 109.88165 
Q 316.411057 112.022512 316.411057 116.44816 
Q 316.411057 120.07773 317.481562 122.33553 
Q 318.554913 124.588832 320.681686 124.588832 
Q 322.637634 124.588832 323.662585 122.214095 
Q 324.203531 120.963759 324.471157 118.921845 
L 326.196491 118.921845 
Q 325.965877 122.182611 324.667606 124.390937 
Q 323.11025 127.049024 320.468155 127.049024 
Q 318.190486 127.049024 316.641671 124.867684 
Q 314.603158 121.989214 314.603158 115.971413 
Q 314.603158 111.40634 316.13489 108.482894 
Q 317.789047 105.303084 320.698769 105.303084 
z
M 320.342883 105.303084 
L 320.342883 105.303084 
z
" style="fill:#0000ff;"/>
   </g>
   <g id="patch_77">
    <path clip-path="url(#pab340bddde)" d="M 326.196491 74.001577 
L 326.196491 77.731032 
L 321.381757 77.731032 
L 321.381757 105.303084 
L 319.417893 105.303084 
L 319.417893 77.731032 
L 314.603158 77.731032 
L 314.603158 74.001577 
L 326.196491 74.001577 
z
" style="fill:#ff0000;"/>
   </g>
   <g id="patch_78">
    <path clip-path="url(#pab340bddde)" d="M 322.384868 55.481829 
L 320.412558 35.514763 
L 318.315741 55.481829 
L 322.384868 55.481829 
z
M 319.492902 28.8 
L 321.48219 28.8 
L 326.196491 74.001577 
L 324.266627 74.001577 
L 322.950811 60.463749 
L 317.812052 60.463749 
L 316.405685 74.001577 
L 314.603158 74.001577 
L 319.492902 28.8 
z
M 320.404069 28.8 
L 320.404069 28.8 
z
" style="fill:#008000;"/>
   </g>
   <g id="patch_79">
    <path clip-path="url(#pab340bddde)" d="M 332.785775 126.988283 
Q 334.574255 126.988283 335.878989 127.746496 
Q 337.769747 128.835291 338.19268 131.564859 
L 336.492656 131.564859 
Q 336.180294 130.039334 335.204508 129.341777 
Q 334.228722 128.644221 332.741547 128.644221 
Q 330.980709 128.644221 329.775489 130.096958 
Q 328.570269 131.546662 328.570269 134.418775 
Q 328.570269 136.899649 329.56264 138.458536 
Q 330.557776 140.017423 332.802361 140.017423 
Q 334.521734 140.017423 335.649555 138.925596 
Q 336.777376 137.830735 336.802254 135.383222 
L 332.830003 135.383222 
L 332.830003 133.821303 
L 338.4 133.821303 
L 338.4 141.269992 
L 337.294293 141.269992 
L 336.879653 139.477575 
Q 336.00891 140.529975 335.334429 140.939411 
Q 334.201079 141.64 332.456827 141.64 
Q 330.20395 141.64 328.578561 140.038653 
Q 326.806667 138.027871 326.806667 134.521892 
Q 326.806667 131.025011 328.534333 128.959638 
Q 330.176307 126.988283 332.785775 126.988283 
z
M 332.501055 126.967053 
L 332.501055 126.967053 
z
" style="fill:#ffa600;"/>
   </g>
   <g id="patch_80">
    <path clip-path="url(#pab340bddde)" d="M 332.902277 104.858095 
Q 335.384936 104.858095 336.754384 106.961532 
Q 338.123833 109.060397 338.274728 111.730848 
L 336.549394 111.730848 
Q 336.256144 109.705146 335.379242 108.52082 
Q 334.50234 107.33192 332.91936 107.33192 
Q 330.989036 107.33192 329.801801 109.513093 
Q 328.614566 111.689694 328.614566 116.189221 
Q 328.614566 119.879383 329.68507 122.174873 
Q 330.758422 124.465791 332.885195 124.465791 
Q 334.841143 124.465791 335.866094 122.051411 
Q 336.40704 120.780203 336.674666 118.704201 
L 338.4 118.704201 
Q 338.169386 122.019402 336.871115 124.264593 
Q 335.313759 126.967053 332.671663 126.967053 
Q 330.393995 126.967053 328.84518 124.749298 
Q 326.806667 121.822776 326.806667 115.704516 
Q 326.806667 111.063236 328.338399 108.090987 
Q 329.992556 104.858095 332.902277 104.858095 
z
M 332.546392 104.858095 
L 332.546392 104.858095 
z
" style="fill:#0000ff;"/>
   </g>
   <g id="patch_81">
    <path clip-path="url(#pab340bddde)" d="M 338.4 72.350432 
L 338.4 76.223595 
L 333.585265 76.223595 
L 333.585265 104.858095 
L 331.621401 104.858095 
L 331.621401 76.223595 
L 326.806667 76.223595 
L 326.806667 72.350432 
L 338.4 72.350432 
z
" style="fill:#ff0000;"/>
   </g>
   <g id="patch_82">
    <path clip-path="url(#pab340bddde)" d="M 334.588377 54.507181 
L 332.616067 35.269483 
L 330.51925 54.507181 
L 334.588377 54.507181 
z
M 331.69641 28.8 
L 333.685698 28.8 
L 338.4 72.350432 
L 336.470136 72.350432 
L 335.154319 59.30712 
L 330.015561 59.30712 
L 328.609194 72.350432 
L 326.806667 72.350432 
L 331.69641 28.8 
z
M 332.607578 28.8 
L 332.607578 28.8 
z
" style="fill:#008000;"/>
   </g>
   <g id="matplotlib.axis_1">
    <g id="xtick_1">
     <g id="line2d_2">
      <path clip-path="url(#pab340bddde)" d="M 100.736667 141.64 
L 100.736667 28.8 
" style="fill:none;stroke:#cccccc;stroke-linecap:round;stroke-width:0.8;"/>
     </g>
     <g id="text_1">
      <!-- 0 -->
      <g style="fill:#262626;" transform="translate(95.175729 162.986875)scale(0.2 -0.2)">
       <defs>
        <path d="M 1731 4475 
Q 2600 4475 2988 3759 
Q 3288 3206 3288 2244 
Q 3288 1331 3016 734 
Q 2622 -122 1728 -122 
Q 922 -122 528 578 
Q 200 1163 200 2147 
Q 200 2909 397 3456 
Q 766 4475 1731 4475 
z
M 1725 391 
Q 2163 391 2422 778 
Q 2681 1166 2681 2222 
Q 2681 2984 2493 3476 
Q 2306 3969 1766 3969 
Q 1269 3969 1039 3501 
Q 809 3034 809 2125 
Q 809 1441 956 1025 
Q 1181 391 1725 391 
z
" id="Helvetica-30" transform="scale(0.015625)"/>
       </defs>
       <use xlink:href="#Helvetica-30"/>
      </g>
     </g>
    </g>
    <g id="xtick_2">
     <g id="line2d_3">
      <path clip-path="url(#pab340bddde)" d="M 222.771754 141.64 
L 222.771754 28.8 
" style="fill:none;stroke:#cccccc;stroke-linecap:round;stroke-width:0.8;"/>
     </g>
     <g id="text_2">
      <!-- 10 -->
      <g style="fill:#262626;" transform="translate(211.649879 162.986875)scale(0.2 -0.2)">
       <defs>
        <path d="M 613 3169 
L 613 3600 
Q 1222 3659 1462 3798 
Q 1703 3938 1822 4456 
L 2266 4456 
L 2266 0 
L 1666 0 
L 1666 3169 
L 613 3169 
z
" id="Helvetica-31" transform="scale(0.015625)"/>
       </defs>
       <use xlink:href="#Helvetica-31"/>
       <use x="55.615234" xlink:href="#Helvetica-30"/>
      </g>
     </g>
    </g>
    <g id="text_3">
     <!-- Position -->
     <g style="fill:#262626;" transform="translate(172.20125 189.089219)scale(0.25 -0.25)">
      <defs>
       <path d="M 547 4591 
L 2613 4591 
Q 3225 4591 3600 4245 
Q 3975 3900 3975 3275 
Q 3975 2738 3640 2339 
Q 3306 1941 2613 1941 
L 1169 1941 
L 1169 0 
L 547 0 
L 547 4591 
z
M 3347 3272 
Q 3347 3778 2972 3959 
Q 2766 4056 2406 4056 
L 1169 4056 
L 1169 2466 
L 2406 2466 
Q 2825 2466 3086 2644 
Q 3347 2822 3347 3272 
z
" id="Helvetica-50" transform="scale(0.015625)"/>
       <path d="M 1741 363 
Q 2300 363 2508 786 
Q 2716 1209 2716 1728 
Q 2716 2197 2566 2491 
Q 2328 2953 1747 2953 
Q 1231 2953 997 2559 
Q 763 2166 763 1609 
Q 763 1075 997 719 
Q 1231 363 1741 363 
z
M 1763 3444 
Q 2409 3444 2856 3012 
Q 3303 2581 3303 1744 
Q 3303 934 2909 406 
Q 2516 -122 1688 -122 
Q 997 -122 590 345 
Q 184 813 184 1600 
Q 184 2444 612 2944 
Q 1041 3444 1763 3444 
z
M 1744 3428 
L 1744 3428 
z
" id="Helvetica-6f" transform="scale(0.015625)"/>
       <path d="M 747 1050 
Q 772 769 888 619 
Q 1100 347 1625 347 
Q 1938 347 2175 483 
Q 2413 619 2413 903 
Q 2413 1119 2222 1231 
Q 2100 1300 1741 1391 
L 1294 1503 
Q 866 1609 663 1741 
Q 300 1969 300 2372 
Q 300 2847 642 3140 
Q 984 3434 1563 3434 
Q 2319 3434 2653 2991 
Q 2863 2709 2856 2384 
L 2325 2384 
Q 2309 2575 2191 2731 
Q 1997 2953 1519 2953 
Q 1200 2953 1036 2831 
Q 872 2709 872 2509 
Q 872 2291 1088 2159 
Q 1213 2081 1456 2022 
L 1828 1931 
Q 2434 1784 2641 1647 
Q 2969 1431 2969 969 
Q 2969 522 2630 197 
Q 2291 -128 1597 -128 
Q 850 -128 539 211 
Q 228 550 206 1050 
L 747 1050 
z
M 1578 3428 
L 1578 3428 
z
" id="Helvetica-73" transform="scale(0.015625)"/>
       <path d="M 413 3331 
L 984 3331 
L 984 0 
L 413 0 
L 413 3331 
z
M 413 4591 
L 984 4591 
L 984 3953 
L 413 3953 
L 413 4591 
z
" id="Helvetica-69" transform="scale(0.015625)"/>
       <path d="M 525 4281 
L 1094 4281 
L 1094 3347 
L 1628 3347 
L 1628 2888 
L 1094 2888 
L 1094 703 
Q 1094 528 1213 469 
Q 1278 434 1431 434 
Q 1472 434 1519 436 
Q 1566 438 1628 444 
L 1628 0 
Q 1531 -28 1426 -40 
Q 1322 -53 1200 -53 
Q 806 -53 665 148 
Q 525 350 525 672 
L 525 2888 
L 72 2888 
L 72 3347 
L 525 3347 
L 525 4281 
z
" id="Helvetica-74" transform="scale(0.015625)"/>
       <path d="M 413 3347 
L 947 3347 
L 947 2872 
Q 1184 3166 1450 3294 
Q 1716 3422 2041 3422 
Q 2753 3422 3003 2925 
Q 3141 2653 3141 2147 
L 3141 0 
L 2569 0 
L 2569 2109 
Q 2569 2416 2478 2603 
Q 2328 2916 1934 2916 
Q 1734 2916 1606 2875 
Q 1375 2806 1200 2600 
Q 1059 2434 1017 2257 
Q 975 2081 975 1753 
L 975 0 
L 413 0 
L 413 3347 
z
M 1734 3428 
L 1734 3428 
z
" id="Helvetica-6e" transform="scale(0.015625)"/>
      </defs>
      <use xlink:href="#Helvetica-50"/>
      <use x="66.699219" xlink:href="#Helvetica-6f"/>
      <use x="122.314453" xlink:href="#Helvetica-73"/>
      <use x="172.314453" xlink:href="#Helvetica-69"/>
      <use x="194.53125" xlink:href="#Helvetica-74"/>
      <use x="222.314453" xlink:href="#Helvetica-69"/>
      <use x="244.53125" xlink:href="#Helvetica-6f"/>
      <use x="300.146484" xlink:href="#Helvetica-6e"/>
     </g>
    </g>
   </g>
   <g id="matplotlib.axis_2">
    <g id="ytick_1">
     <g id="line2d_4">
      <path clip-path="url(#pab340bddde)" d="M 94.94 141.64 
L 338.4 141.64 
" style="fill:none;stroke:#cccccc;stroke-linecap:round;stroke-width:0.8;"/>
     </g>
     <g id="text_4">
      <!-- 0 -->
      <g style="fill:#262626;" transform="translate(76.818125 148.813438)scale(0.2 -0.2)">
       <use xlink:href="#Helvetica-30"/>
      </g>
     </g>
    </g>
    <g id="ytick_2">
     <g id="line2d_5">
      <path clip-path="url(#pab340bddde)" d="M 94.94 113.43 
L 338.4 113.43 
" style="fill:none;stroke:#cccccc;stroke-linecap:round;stroke-width:0.8;"/>
     </g>
     <g id="text_5">
      <!-- 0.25 -->
      <g style="fill:#262626;" transform="translate(49.018125 120.603438)scale(0.2 -0.2)">
       <defs>
        <path d="M 547 681 
L 1200 681 
L 1200 0 
L 547 0 
L 547 681 
z
" id="Helvetica-2e" transform="scale(0.015625)"/>
        <path d="M 200 0 
Q 231 578 439 1006 
Q 647 1434 1250 1784 
L 1850 2131 
Q 2253 2366 2416 2531 
Q 2672 2791 2672 3125 
Q 2672 3516 2437 3745 
Q 2203 3975 1813 3975 
Q 1234 3975 1013 3538 
Q 894 3303 881 2888 
L 309 2888 
Q 319 3472 525 3841 
Q 891 4491 1816 4491 
Q 2584 4491 2939 4075 
Q 3294 3659 3294 3150 
Q 3294 2613 2916 2231 
Q 2697 2009 2131 1694 
L 1703 1456 
Q 1397 1288 1222 1134 
Q 909 863 828 531 
L 3272 531 
L 3272 0 
L 200 0 
z
" id="Helvetica-32" transform="scale(0.015625)"/>
        <path d="M 791 1141 
Q 847 659 1238 475 
Q 1438 381 1700 381 
Q 2200 381 2440 700 
Q 2681 1019 2681 1406 
Q 2681 1875 2395 2131 
Q 2109 2388 1709 2388 
Q 1419 2388 1211 2275 
Q 1003 2163 856 1963 
L 369 1991 
L 709 4400 
L 3034 4400 
L 3034 3856 
L 1131 3856 
L 941 2613 
Q 1097 2731 1238 2791 
Q 1488 2894 1816 2894 
Q 2431 2894 2859 2497 
Q 3288 2100 3288 1491 
Q 3288 856 2895 371 
Q 2503 -113 1644 -113 
Q 1097 -113 676 195 
Q 256 503 206 1141 
L 791 1141 
z
" id="Helvetica-35" transform="scale(0.015625)"/>
       </defs>
       <use xlink:href="#Helvetica-30"/>
       <use x="55.615234" xlink:href="#Helvetica-2e"/>
       <use x="83.398438" xlink:href="#Helvetica-32"/>
       <use x="139.013672" xlink:href="#Helvetica-35"/>
      </g>
     </g>
    </g>
    <g id="ytick_3">
     <g id="line2d_6">
      <path clip-path="url(#pab340bddde)" d="M 94.94 85.22 
L 338.4 85.22 
" style="fill:none;stroke:#cccccc;stroke-linecap:round;stroke-width:0.8;"/>
     </g>
     <g id="text_6">
      <!-- 0.50 -->
      <g style="fill:#262626;" transform="translate(49.018125 92.393438)scale(0.2 -0.2)">
       <use xlink:href="#Helvetica-30"/>
       <use x="55.615234" xlink:href="#Helvetica-2e"/>
       <use x="83.398438" xlink:href="#Helvetica-35"/>
       <use x="139.013672" xlink:href="#Helvetica-30"/>
      </g>
     </g>
    </g>
    <g id="ytick_4">
     <g id="line2d_7">
      <path clip-path="url(#pab340bddde)" d="M 94.94 57.01 
L 338.4 57.01 
" style="fill:none;stroke:#cccccc;stroke-linecap:round;stroke-width:0.8;"/>
     </g>
     <g id="text_7">
      <!-- 0.75 -->
      <g style="fill:#262626;" transform="translate(49.018125 64.183437)scale(0.2 -0.2)">
       <defs>
        <path d="M 3347 4400 
L 3347 3909 
Q 3131 3700 2773 3181 
Q 2416 2663 2141 2063 
Q 1869 1478 1728 997 
Q 1638 688 1494 0 
L 872 0 
Q 1084 1281 1809 2550 
Q 2238 3294 2709 3834 
L 234 3834 
L 234 4400 
L 3347 4400 
z
" id="Helvetica-37" transform="scale(0.015625)"/>
       </defs>
       <use xlink:href="#Helvetica-30"/>
       <use x="55.615234" xlink:href="#Helvetica-2e"/>
       <use x="83.398438" xlink:href="#Helvetica-37"/>
       <use x="139.013672" xlink:href="#Helvetica-35"/>
      </g>
     </g>
    </g>
    <g id="ytick_5">
     <g id="line2d_8">
      <path clip-path="url(#pab340bddde)" d="M 94.94 28.8 
L 338.4 28.8 
" style="fill:none;stroke:#cccccc;stroke-linecap:round;stroke-width:0.8;"/>
     </g>
     <g id="text_8">
      <!-- 1.0 -->
      <g style="fill:#262626;" transform="translate(60.14 35.973438)scale(0.2 -0.2)">
       <use xlink:href="#Helvetica-31"/>
       <use x="55.615234" xlink:href="#Helvetica-2e"/>
       <use x="83.398438" xlink:href="#Helvetica-30"/>
      </g>
     </g>
    </g>
    <g id="text_9">
     <!-- Probability -->
     <g style="fill:#262626;" transform="translate(39.65875 143.579375)rotate(-90)scale(0.25 -0.25)">
      <defs>
       <path d="M 428 3347 
L 963 3347 
L 963 2769 
Q 1028 2938 1284 3180 
Q 1541 3422 1875 3422 
Q 1891 3422 1928 3419 
Q 1966 3416 2056 3406 
L 2056 2813 
Q 2006 2822 1964 2825 
Q 1922 2828 1872 2828 
Q 1447 2828 1219 2554 
Q 991 2281 991 1925 
L 991 0 
L 428 0 
L 428 3347 
z
" id="Helvetica-72" transform="scale(0.015625)"/>
       <path d="M 369 4606 
L 916 4606 
L 916 2941 
Q 1100 3181 1356 3307 
Q 1613 3434 1913 3434 
Q 2538 3434 2927 3004 
Q 3316 2575 3316 1738 
Q 3316 944 2931 419 
Q 2547 -106 1866 -106 
Q 1484 -106 1222 78 
Q 1066 188 888 428 
L 888 0 
L 369 0 
L 369 4606 
z
M 1831 391 
Q 2288 391 2514 753 
Q 2741 1116 2741 1709 
Q 2741 2238 2514 2584 
Q 2288 2931 1847 2931 
Q 1463 2931 1173 2647 
Q 884 2363 884 1709 
Q 884 1238 1003 944 
Q 1225 391 1831 391 
z
" id="Helvetica-62" transform="scale(0.015625)"/>
       <path d="M 844 891 
Q 844 647 1022 506 
Q 1200 366 1444 366 
Q 1741 366 2019 503 
Q 2488 731 2488 1250 
L 2488 1703 
Q 2384 1638 2221 1594 
Q 2059 1550 1903 1531 
L 1563 1488 
Q 1256 1447 1103 1359 
Q 844 1213 844 891 
z
M 2206 2028 
Q 2400 2053 2466 2191 
Q 2503 2266 2503 2406 
Q 2503 2694 2298 2823 
Q 2094 2953 1713 2953 
Q 1272 2953 1088 2716 
Q 984 2584 953 2325 
L 428 2325 
Q 444 2944 830 3186 
Q 1216 3428 1725 3428 
Q 2316 3428 2684 3203 
Q 3050 2978 3050 2503 
L 3050 575 
Q 3050 488 3086 434 
Q 3122 381 3238 381 
Q 3275 381 3322 386 
Q 3369 391 3422 400 
L 3422 -16 
Q 3291 -53 3222 -62 
Q 3153 -72 3034 -72 
Q 2744 -72 2613 134 
Q 2544 244 2516 444 
Q 2344 219 2022 53 
Q 1700 -113 1313 -113 
Q 847 -113 551 170 
Q 256 453 256 878 
Q 256 1344 547 1600 
Q 838 1856 1309 1916 
L 2206 2028 
z
M 1741 3428 
L 1741 3428 
z
" id="Helvetica-61" transform="scale(0.015625)"/>
       <path d="M 428 4591 
L 991 4591 
L 991 0 
L 428 0 
L 428 4591 
z
" id="Helvetica-6c" transform="scale(0.015625)"/>
       <path d="M 2503 3347 
L 3125 3347 
Q 3006 3025 2597 1878 
Q 2291 1016 2084 472 
Q 1597 -809 1397 -1090 
Q 1197 -1372 709 -1372 
Q 591 -1372 527 -1362 
Q 463 -1353 369 -1328 
L 369 -816 
Q 516 -856 581 -865 
Q 647 -875 697 -875 
Q 853 -875 926 -823 
Q 1000 -772 1050 -697 
Q 1066 -672 1162 -440 
Q 1259 -209 1303 -97 
L 66 3347 
L 703 3347 
L 1600 622 
L 2503 3347 
z
M 1597 3428 
L 1597 3428 
z
" id="Helvetica-79" transform="scale(0.015625)"/>
      </defs>
      <use xlink:href="#Helvetica-50"/>
      <use x="66.699219" xlink:href="#Helvetica-72"/>
      <use x="100" xlink:href="#Helvetica-6f"/>
      <use x="155.615234" xlink:href="#Helvetica-62"/>
      <use x="211.230469" xlink:href="#Helvetica-61"/>
      <use x="266.845703" xlink:href="#Helvetica-62"/>
      <use x="322.460938" xlink:href="#Helvetica-69"/>
      <use x="344.677734" xlink:href="#Helvetica-6c"/>
      <use x="366.894531" xlink:href="#Helvetica-69"/>
      <use x="389.111328" xlink:href="#Helvetica-74"/>
      <use x="416.894531" xlink:href="#Helvetica-79"/>
     </g>
    </g>
   </g>
   <g id="patch_83">
    <path d="M 94.94 141.64 
L 94.94 28.8 
" style="fill:none;stroke:#000000;stroke-linecap:square;stroke-linejoin:miter;"/>
   </g>
  </g>
 </g>
 <defs>
  <clipPath id="pab340bddde">
   <rect height="112.84" width="243.46" x="94.94" y="28.8"/>
  </clipPath>
 </defs>
</svg>
