<?xml version="1.0" encoding="utf-8" standalone="no"?>
<!DOCTYPE svg PUBLIC "-//W3C//DTD SVG 1.1//EN"
  "http://www.w3.org/Graphics/SVG/1.1/DTD/svg11.dtd">
<svg height="144pt" version="1.1" viewBox="0 0 144 144" width="144pt" xmlns="http://www.w3.org/2000/svg" xmlns:xlink="http://www.w3.org/1999/xlink">
 <metadata>
  <rdf:RDF xmlns:cc="http://creativecommons.org/ns#" xmlns:dc="http://purl.org/dc/elements/1.1/" xmlns:rdf="http://www.w3.org/1999/02/22-rdf-syntax-ns#">
   <cc:Work>
    <dc:type rdf:resource="http://purl.org/dc/dcmitype/StillImage"/>
    <dc:date>2022-12-27T03:32:32.840639</dc:date>
    <dc:format>image/svg+xml</dc:format>
    <dc:creator>
     <cc:Agent>
      <dc:title>Matplotlib v3.4.2, https://matplotlib.org/</dc:title>
     </cc:Agent>
    </dc:creator>
   </cc:Work>
  </rdf:RDF>
 </metadata>
 <defs>
  <style type="text/css">*{stroke-linecap:butt;stroke-linejoin:round;}</style>
 </defs>
 <g id="figure_1">
  <g id="patch_1">
   <path d="M 0 144 
L 144 144 
L 144 0 
L 0 0 
z
" style="fill:#ffffff;"/>
  </g>
  <g id="axes_1">
   <g id="patch_2">
    <path d="M 18 128.16 
L 129.6 128.16 
L 129.6 17.28 
L 18 17.28 
z
" style="fill:#ffffff;"/>
   </g>
   <g id="matplotlib.axis_1">
    <g id="xtick_1">
     <g id="text_1">
      <!-- Original -->
      <g style="fill:#262626;" transform="translate(41.78125 204.0725)rotate(-90)scale(0.2 -0.2)">
       <defs>
        <path d="M 309 2231 
Q 309 3372 921 4017 
Q 1534 4663 2503 4663 
Q 3138 4663 3647 4359 
Q 4156 4056 4423 3514 
Q 4691 2972 4691 2284 
Q 4691 1588 4409 1038 
Q 4128 488 3612 205 
Q 3097 -78 2500 -78 
Q 1853 -78 1343 234 
Q 834 547 571 1087 
Q 309 1628 309 2231 
z
M 934 2222 
Q 934 1394 1379 917 
Q 1825 441 2497 441 
Q 3181 441 3623 922 
Q 4066 1403 4066 2288 
Q 4066 2847 3877 3264 
Q 3688 3681 3323 3911 
Q 2959 4141 2506 4141 
Q 1863 4141 1398 3698 
Q 934 3256 934 2222 
z
" id="ArialMT-4f" transform="scale(0.015625)"/>
        <path d="M 416 0 
L 416 3319 
L 922 3319 
L 922 2816 
Q 1116 3169 1280 3281 
Q 1444 3394 1641 3394 
Q 1925 3394 2219 3213 
L 2025 2691 
Q 1819 2813 1613 2813 
Q 1428 2813 1281 2702 
Q 1134 2591 1072 2394 
Q 978 2094 978 1738 
L 978 0 
L 416 0 
z
" id="ArialMT-72" transform="scale(0.015625)"/>
        <path d="M 425 3934 
L 425 4581 
L 988 4581 
L 988 3934 
L 425 3934 
z
M 425 0 
L 425 3319 
L 988 3319 
L 988 0 
L 425 0 
z
" id="ArialMT-69" transform="scale(0.015625)"/>
        <path d="M 319 -275 
L 866 -356 
Q 900 -609 1056 -725 
Q 1266 -881 1628 -881 
Q 2019 -881 2231 -725 
Q 2444 -569 2519 -288 
Q 2563 -116 2559 434 
Q 2191 0 1641 0 
Q 956 0 581 494 
Q 206 988 206 1678 
Q 206 2153 378 2554 
Q 550 2956 876 3175 
Q 1203 3394 1644 3394 
Q 2231 3394 2613 2919 
L 2613 3319 
L 3131 3319 
L 3131 450 
Q 3131 -325 2973 -648 
Q 2816 -972 2473 -1159 
Q 2131 -1347 1631 -1347 
Q 1038 -1347 672 -1080 
Q 306 -813 319 -275 
z
M 784 1719 
Q 784 1066 1043 766 
Q 1303 466 1694 466 
Q 2081 466 2343 764 
Q 2606 1063 2606 1700 
Q 2606 2309 2336 2618 
Q 2066 2928 1684 2928 
Q 1309 2928 1046 2623 
Q 784 2319 784 1719 
z
" id="ArialMT-67" transform="scale(0.015625)"/>
        <path d="M 422 0 
L 422 3319 
L 928 3319 
L 928 2847 
Q 1294 3394 1984 3394 
Q 2284 3394 2536 3286 
Q 2788 3178 2913 3003 
Q 3038 2828 3088 2588 
Q 3119 2431 3119 2041 
L 3119 0 
L 2556 0 
L 2556 2019 
Q 2556 2363 2490 2533 
Q 2425 2703 2258 2804 
Q 2091 2906 1866 2906 
Q 1506 2906 1245 2678 
Q 984 2450 984 1813 
L 984 0 
L 422 0 
z
" id="ArialMT-6e" transform="scale(0.015625)"/>
        <path d="M 2588 409 
Q 2275 144 1986 34 
Q 1697 -75 1366 -75 
Q 819 -75 525 192 
Q 231 459 231 875 
Q 231 1119 342 1320 
Q 453 1522 633 1644 
Q 813 1766 1038 1828 
Q 1203 1872 1538 1913 
Q 2219 1994 2541 2106 
Q 2544 2222 2544 2253 
Q 2544 2597 2384 2738 
Q 2169 2928 1744 2928 
Q 1347 2928 1158 2789 
Q 969 2650 878 2297 
L 328 2372 
Q 403 2725 575 2942 
Q 747 3159 1072 3276 
Q 1397 3394 1825 3394 
Q 2250 3394 2515 3294 
Q 2781 3194 2906 3042 
Q 3031 2891 3081 2659 
Q 3109 2516 3109 2141 
L 3109 1391 
Q 3109 606 3145 398 
Q 3181 191 3288 0 
L 2700 0 
Q 2613 175 2588 409 
z
M 2541 1666 
Q 2234 1541 1622 1453 
Q 1275 1403 1131 1340 
Q 988 1278 909 1158 
Q 831 1038 831 891 
Q 831 666 1001 516 
Q 1172 366 1500 366 
Q 1825 366 2078 508 
Q 2331 650 2450 897 
Q 2541 1088 2541 1459 
L 2541 1666 
z
" id="ArialMT-61" transform="scale(0.015625)"/>
        <path d="M 409 0 
L 409 4581 
L 972 4581 
L 972 0 
L 409 0 
z
" id="ArialMT-6c" transform="scale(0.015625)"/>
       </defs>
       <use xlink:href="#ArialMT-4f"/>
       <use x="77.783203" xlink:href="#ArialMT-72"/>
       <use x="111.083984" xlink:href="#ArialMT-69"/>
       <use x="133.300781" xlink:href="#ArialMT-67"/>
       <use x="188.916016" xlink:href="#ArialMT-69"/>
       <use x="211.132812" xlink:href="#ArialMT-6e"/>
       <use x="266.748047" xlink:href="#ArialMT-61"/>
       <use x="322.363281" xlink:href="#ArialMT-6c"/>
      </g>
     </g>
    </g>
    <g id="xtick_2">
     <g id="text_2">
      <!-- Mutated -->
      <g style="fill:#262626;" transform="translate(78.970312 207.419375)rotate(-90)scale(0.2 -0.2)">
       <defs>
        <path d="M 475 0 
L 475 4581 
L 1388 4581 
L 2472 1338 
Q 2622 884 2691 659 
Q 2769 909 2934 1394 
L 4031 4581 
L 4847 4581 
L 4847 0 
L 4263 0 
L 4263 3834 
L 2931 0 
L 2384 0 
L 1059 3900 
L 1059 0 
L 475 0 
z
" id="ArialMT-4d" transform="scale(0.015625)"/>
        <path d="M 2597 0 
L 2597 488 
Q 2209 -75 1544 -75 
Q 1250 -75 995 37 
Q 741 150 617 320 
Q 494 491 444 738 
Q 409 903 409 1263 
L 409 3319 
L 972 3319 
L 972 1478 
Q 972 1038 1006 884 
Q 1059 663 1231 536 
Q 1403 409 1656 409 
Q 1909 409 2131 539 
Q 2353 669 2445 892 
Q 2538 1116 2538 1541 
L 2538 3319 
L 3100 3319 
L 3100 0 
L 2597 0 
z
" id="ArialMT-75" transform="scale(0.015625)"/>
        <path d="M 1650 503 
L 1731 6 
Q 1494 -44 1306 -44 
Q 1000 -44 831 53 
Q 663 150 594 308 
Q 525 466 525 972 
L 525 2881 
L 113 2881 
L 113 3319 
L 525 3319 
L 525 4141 
L 1084 4478 
L 1084 3319 
L 1650 3319 
L 1650 2881 
L 1084 2881 
L 1084 941 
Q 1084 700 1114 631 
Q 1144 563 1211 522 
Q 1278 481 1403 481 
Q 1497 481 1650 503 
z
" id="ArialMT-74" transform="scale(0.015625)"/>
        <path d="M 2694 1069 
L 3275 997 
Q 3138 488 2766 206 
Q 2394 -75 1816 -75 
Q 1088 -75 661 373 
Q 234 822 234 1631 
Q 234 2469 665 2931 
Q 1097 3394 1784 3394 
Q 2450 3394 2872 2941 
Q 3294 2488 3294 1666 
Q 3294 1616 3291 1516 
L 816 1516 
Q 847 969 1125 678 
Q 1403 388 1819 388 
Q 2128 388 2347 550 
Q 2566 713 2694 1069 
z
M 847 1978 
L 2700 1978 
Q 2663 2397 2488 2606 
Q 2219 2931 1791 2931 
Q 1403 2931 1139 2672 
Q 875 2413 847 1978 
z
" id="ArialMT-65" transform="scale(0.015625)"/>
        <path d="M 2575 0 
L 2575 419 
Q 2259 -75 1647 -75 
Q 1250 -75 917 144 
Q 584 363 401 755 
Q 219 1147 219 1656 
Q 219 2153 384 2558 
Q 550 2963 881 3178 
Q 1213 3394 1622 3394 
Q 1922 3394 2156 3267 
Q 2391 3141 2538 2938 
L 2538 4581 
L 3097 4581 
L 3097 0 
L 2575 0 
z
M 797 1656 
Q 797 1019 1065 703 
Q 1334 388 1700 388 
Q 2069 388 2326 689 
Q 2584 991 2584 1609 
Q 2584 2291 2321 2609 
Q 2059 2928 1675 2928 
Q 1300 2928 1048 2622 
Q 797 2316 797 1656 
z
" id="ArialMT-64" transform="scale(0.015625)"/>
       </defs>
       <use xlink:href="#ArialMT-4d"/>
       <use x="83.300781" xlink:href="#ArialMT-75"/>
       <use x="138.916016" xlink:href="#ArialMT-74"/>
       <use x="166.699219" xlink:href="#ArialMT-61"/>
       <use x="222.314453" xlink:href="#ArialMT-74"/>
       <use x="250.097656" xlink:href="#ArialMT-65"/>
       <use x="305.712891" xlink:href="#ArialMT-64"/>
      </g>
     </g>
    </g>
    <g id="xtick_3">
     <g id="text_3">
      <!-- STORM -->
      <g style="fill:#262626;" transform="translate(116.170312 207.025625)rotate(-90)scale(0.2 -0.2)">
       <defs>
        <path d="M 288 1472 
L 859 1522 
Q 900 1178 1048 958 
Q 1197 738 1509 602 
Q 1822 466 2213 466 
Q 2559 466 2825 569 
Q 3091 672 3220 851 
Q 3350 1031 3350 1244 
Q 3350 1459 3225 1620 
Q 3100 1781 2813 1891 
Q 2628 1963 1997 2114 
Q 1366 2266 1113 2400 
Q 784 2572 623 2826 
Q 463 3081 463 3397 
Q 463 3744 659 4045 
Q 856 4347 1234 4503 
Q 1613 4659 2075 4659 
Q 2584 4659 2973 4495 
Q 3363 4331 3572 4012 
Q 3781 3694 3797 3291 
L 3216 3247 
Q 3169 3681 2898 3903 
Q 2628 4125 2100 4125 
Q 1550 4125 1298 3923 
Q 1047 3722 1047 3438 
Q 1047 3191 1225 3031 
Q 1400 2872 2139 2705 
Q 2878 2538 3153 2413 
Q 3553 2228 3743 1945 
Q 3934 1663 3934 1294 
Q 3934 928 3725 604 
Q 3516 281 3123 101 
Q 2731 -78 2241 -78 
Q 1619 -78 1198 103 
Q 778 284 539 648 
Q 300 1013 288 1472 
z
" id="ArialMT-53" transform="scale(0.015625)"/>
        <path d="M 1659 0 
L 1659 4041 
L 150 4041 
L 150 4581 
L 3781 4581 
L 3781 4041 
L 2266 4041 
L 2266 0 
L 1659 0 
z
" id="ArialMT-54" transform="scale(0.015625)"/>
        <path d="M 503 0 
L 503 4581 
L 2534 4581 
Q 3147 4581 3465 4457 
Q 3784 4334 3975 4021 
Q 4166 3709 4166 3331 
Q 4166 2844 3850 2509 
Q 3534 2175 2875 2084 
Q 3116 1969 3241 1856 
Q 3506 1613 3744 1247 
L 4541 0 
L 3778 0 
L 3172 953 
Q 2906 1366 2734 1584 
Q 2563 1803 2427 1890 
Q 2291 1978 2150 2013 
Q 2047 2034 1813 2034 
L 1109 2034 
L 1109 0 
L 503 0 
z
M 1109 2559 
L 2413 2559 
Q 2828 2559 3062 2645 
Q 3297 2731 3419 2920 
Q 3541 3109 3541 3331 
Q 3541 3656 3305 3865 
Q 3069 4075 2559 4075 
L 1109 4075 
L 1109 2559 
z
" id="ArialMT-52" transform="scale(0.015625)"/>
       </defs>
       <use xlink:href="#ArialMT-53"/>
       <use x="66.699219" xlink:href="#ArialMT-54"/>
       <use x="126.033203" xlink:href="#ArialMT-4f"/>
       <use x="203.816406" xlink:href="#ArialMT-52"/>
       <use x="276.033203" xlink:href="#ArialMT-4d"/>
      </g>
     </g>
    </g>
    <g id="text_4">
     <!-- Method -->
     <g style="fill:#262626;" transform="translate(40.448437 225.735)scale(0.2 -0.2)">
      <defs>
       <path d="M 422 0 
L 422 4581 
L 984 4581 
L 984 2938 
Q 1378 3394 1978 3394 
Q 2347 3394 2619 3248 
Q 2891 3103 3008 2847 
Q 3125 2591 3125 2103 
L 3125 0 
L 2563 0 
L 2563 2103 
Q 2563 2525 2380 2717 
Q 2197 2909 1863 2909 
Q 1613 2909 1392 2779 
Q 1172 2650 1078 2428 
Q 984 2206 984 1816 
L 984 0 
L 422 0 
z
" id="ArialMT-68" transform="scale(0.015625)"/>
       <path d="M 213 1659 
Q 213 2581 725 3025 
Q 1153 3394 1769 3394 
Q 2453 3394 2887 2945 
Q 3322 2497 3322 1706 
Q 3322 1066 3130 698 
Q 2938 331 2570 128 
Q 2203 -75 1769 -75 
Q 1072 -75 642 372 
Q 213 819 213 1659 
z
M 791 1659 
Q 791 1022 1069 705 
Q 1347 388 1769 388 
Q 2188 388 2466 706 
Q 2744 1025 2744 1678 
Q 2744 2294 2464 2611 
Q 2184 2928 1769 2928 
Q 1347 2928 1069 2612 
Q 791 2297 791 1659 
z
" id="ArialMT-6f" transform="scale(0.015625)"/>
      </defs>
      <use xlink:href="#ArialMT-4d"/>
      <use x="83.300781" xlink:href="#ArialMT-65"/>
      <use x="138.916016" xlink:href="#ArialMT-74"/>
      <use x="166.699219" xlink:href="#ArialMT-68"/>
      <use x="222.314453" xlink:href="#ArialMT-6f"/>
      <use x="277.929688" xlink:href="#ArialMT-64"/>
     </g>
    </g>
   </g>
   <g id="matplotlib.axis_2">
    <g id="ytick_1">
     <g id="text_5">
      <!-- −2.5 -->
      <g style="fill:#262626;" transform="translate(-28.48125 132.968401)scale(0.2 -0.2)">
       <defs>
        <path d="M 3381 1997 
L 356 1997 
L 356 2522 
L 3381 2522 
L 3381 1997 
z
" id="ArialMT-2212" transform="scale(0.015625)"/>
        <path d="M 3222 541 
L 3222 0 
L 194 0 
Q 188 203 259 391 
Q 375 700 629 1000 
Q 884 1300 1366 1694 
Q 2113 2306 2375 2664 
Q 2638 3022 2638 3341 
Q 2638 3675 2398 3904 
Q 2159 4134 1775 4134 
Q 1369 4134 1125 3890 
Q 881 3647 878 3216 
L 300 3275 
Q 359 3922 746 4261 
Q 1134 4600 1788 4600 
Q 2447 4600 2831 4234 
Q 3216 3869 3216 3328 
Q 3216 3053 3103 2787 
Q 2991 2522 2730 2228 
Q 2469 1934 1863 1422 
Q 1356 997 1212 845 
Q 1069 694 975 541 
L 3222 541 
z
" id="ArialMT-32" transform="scale(0.015625)"/>
        <path d="M 581 0 
L 581 641 
L 1222 641 
L 1222 0 
L 581 0 
z
" id="ArialMT-2e" transform="scale(0.015625)"/>
        <path d="M 266 1200 
L 856 1250 
Q 922 819 1161 601 
Q 1400 384 1738 384 
Q 2144 384 2425 690 
Q 2706 997 2706 1503 
Q 2706 1984 2436 2262 
Q 2166 2541 1728 2541 
Q 1456 2541 1237 2417 
Q 1019 2294 894 2097 
L 366 2166 
L 809 4519 
L 3088 4519 
L 3088 3981 
L 1259 3981 
L 1013 2750 
Q 1425 3038 1878 3038 
Q 2478 3038 2890 2622 
Q 3303 2206 3303 1553 
Q 3303 931 2941 478 
Q 2500 -78 1738 -78 
Q 1113 -78 717 272 
Q 322 622 266 1200 
z
" id="ArialMT-35" transform="scale(0.015625)"/>
       </defs>
       <use xlink:href="#ArialMT-2212"/>
       <use x="58.398438" xlink:href="#ArialMT-32"/>
       <use x="114.013672" xlink:href="#ArialMT-2e"/>
       <use x="141.796875" xlink:href="#ArialMT-35"/>
      </g>
     </g>
    </g>
    <g id="ytick_2">
     <g id="text_6">
      <!-- 0.0 -->
      <g style="fill:#262626;" transform="translate(-16.8 92.688768)scale(0.2 -0.2)">
       <defs>
        <path d="M 266 2259 
Q 266 3072 433 3567 
Q 600 4063 929 4331 
Q 1259 4600 1759 4600 
Q 2128 4600 2406 4451 
Q 2684 4303 2865 4023 
Q 3047 3744 3150 3342 
Q 3253 2941 3253 2259 
Q 3253 1453 3087 958 
Q 2922 463 2592 192 
Q 2263 -78 1759 -78 
Q 1097 -78 719 397 
Q 266 969 266 2259 
z
M 844 2259 
Q 844 1131 1108 757 
Q 1372 384 1759 384 
Q 2147 384 2411 759 
Q 2675 1134 2675 2259 
Q 2675 3391 2411 3762 
Q 2147 4134 1753 4134 
Q 1366 4134 1134 3806 
Q 844 3388 844 2259 
z
" id="ArialMT-30" transform="scale(0.015625)"/>
       </defs>
       <use xlink:href="#ArialMT-30"/>
       <use x="55.615234" xlink:href="#ArialMT-2e"/>
       <use x="83.398438" xlink:href="#ArialMT-30"/>
      </g>
     </g>
    </g>
    <g id="ytick_3">
     <g id="text_7">
      <!-- 2.5 -->
      <g style="fill:#262626;" transform="translate(-16.8 52.409136)scale(0.2 -0.2)">
       <use xlink:href="#ArialMT-32"/>
       <use x="55.615234" xlink:href="#ArialMT-2e"/>
       <use x="83.398438" xlink:href="#ArialMT-35"/>
      </g>
     </g>
    </g>
    <g id="text_8">
     <!-- Predictions -->
     <g style="fill:#262626;" transform="translate(-36.45625 122.185625)rotate(-90)scale(0.2 -0.2)">
      <defs>
       <path d="M 494 0 
L 494 4581 
L 2222 4581 
Q 2678 4581 2919 4538 
Q 3256 4481 3484 4323 
Q 3713 4166 3852 3881 
Q 3991 3597 3991 3256 
Q 3991 2672 3619 2267 
Q 3247 1863 2275 1863 
L 1100 1863 
L 1100 0 
L 494 0 
z
M 1100 2403 
L 2284 2403 
Q 2872 2403 3119 2622 
Q 3366 2841 3366 3238 
Q 3366 3525 3220 3729 
Q 3075 3934 2838 4000 
Q 2684 4041 2272 4041 
L 1100 4041 
L 1100 2403 
z
" id="ArialMT-50" transform="scale(0.015625)"/>
       <path d="M 2588 1216 
L 3141 1144 
Q 3050 572 2676 248 
Q 2303 -75 1759 -75 
Q 1078 -75 664 370 
Q 250 816 250 1647 
Q 250 2184 428 2587 
Q 606 2991 970 3192 
Q 1334 3394 1763 3394 
Q 2303 3394 2647 3120 
Q 2991 2847 3088 2344 
L 2541 2259 
Q 2463 2594 2264 2762 
Q 2066 2931 1784 2931 
Q 1359 2931 1093 2626 
Q 828 2322 828 1663 
Q 828 994 1084 691 
Q 1341 388 1753 388 
Q 2084 388 2306 591 
Q 2528 794 2588 1216 
z
" id="ArialMT-63" transform="scale(0.015625)"/>
       <path d="M 197 991 
L 753 1078 
Q 800 744 1014 566 
Q 1228 388 1613 388 
Q 2000 388 2187 545 
Q 2375 703 2375 916 
Q 2375 1106 2209 1216 
Q 2094 1291 1634 1406 
Q 1016 1563 777 1677 
Q 538 1791 414 1992 
Q 291 2194 291 2438 
Q 291 2659 392 2848 
Q 494 3038 669 3163 
Q 800 3259 1026 3326 
Q 1253 3394 1513 3394 
Q 1903 3394 2198 3281 
Q 2494 3169 2634 2976 
Q 2775 2784 2828 2463 
L 2278 2388 
Q 2241 2644 2061 2787 
Q 1881 2931 1553 2931 
Q 1166 2931 1000 2803 
Q 834 2675 834 2503 
Q 834 2394 903 2306 
Q 972 2216 1119 2156 
Q 1203 2125 1616 2013 
Q 2213 1853 2448 1751 
Q 2684 1650 2818 1456 
Q 2953 1263 2953 975 
Q 2953 694 2789 445 
Q 2625 197 2315 61 
Q 2006 -75 1616 -75 
Q 969 -75 630 194 
Q 291 463 197 991 
z
" id="ArialMT-73" transform="scale(0.015625)"/>
      </defs>
      <use xlink:href="#ArialMT-50"/>
      <use x="66.699219" xlink:href="#ArialMT-72"/>
      <use x="100" xlink:href="#ArialMT-65"/>
      <use x="155.615234" xlink:href="#ArialMT-64"/>
      <use x="211.230469" xlink:href="#ArialMT-69"/>
      <use x="233.447266" xlink:href="#ArialMT-63"/>
      <use x="283.447266" xlink:href="#ArialMT-74"/>
      <use x="311.230469" xlink:href="#ArialMT-69"/>
      <use x="333.447266" xlink:href="#ArialMT-6f"/>
      <use x="389.0625" xlink:href="#ArialMT-6e"/>
      <use x="444.677734" xlink:href="#ArialMT-73"/>
     </g>
    </g>
   </g>
   <g id="PolyCollection_1">
    <defs>
     <path d="M 38.085413 -70.00994 
L 35.114587 -70.00994 
L 34.526237 -70.400534 
L 33.784903 -70.791127 
L 32.883207 -71.181721 
L 31.82551 -71.572315 
L 30.630441 -71.962909 
L 29.331869 -72.353503 
L 27.977783 -72.744097 
L 26.626895 -73.134691 
L 25.343238 -73.525285 
L 24.189502 -73.915879 
L 23.220164 -74.306473 
L 22.47561 -74.697066 
L 21.978249 -75.08766 
L 21.731255 -75.478254 
L 21.72 -75.868848 
L 21.915742 -76.259442 
L 22.28072 -76.650036 
L 22.773653 -77.04063 
L 23.354684 -77.431224 
L 23.989096 -77.821818 
L 24.649436 -78.212412 
L 25.31606 -78.603005 
L 25.976366 -78.993599 
L 26.623163 -79.384193 
L 27.252681 -79.774787 
L 27.862676 -80.165381 
L 28.450971 -80.555975 
L 29.014649 -80.946569 
L 29.54991 -81.337163 
L 30.052509 -81.727757 
L 30.518545 -82.11835 
L 30.945351 -82.508944 
L 31.332215 -82.899538 
L 31.680757 -83.290132 
L 31.994839 -83.680726 
L 32.280034 -84.07132 
L 32.54275 -84.461914 
L 32.789183 -84.852508 
L 33.024322 -85.243102 
L 33.25119 -85.633696 
L 33.470475 -86.024289 
L 33.680626 -86.414883 
L 33.878373 -86.805477 
L 34.059579 -87.196071 
L 34.220233 -87.586665 
L 34.357403 -87.977259 
L 34.469957 -88.367853 
L 34.55893 -88.758447 
L 34.627482 -89.149041 
L 34.68049 -89.539635 
L 34.723865 -89.930228 
L 34.763735 -90.320822 
L 34.80567 -90.711416 
L 34.854063 -91.10201 
L 34.911763 -91.492604 
L 34.979983 -91.883198 
L 35.058471 -92.273792 
L 35.145837 -92.664386 
L 35.239992 -93.05498 
L 35.338562 -93.445574 
L 35.439238 -93.836167 
L 35.540018 -94.226761 
L 35.639317 -94.617355 
L 35.735974 -95.007949 
L 35.829183 -95.398543 
L 35.918372 -95.789137 
L 36.003079 -96.179731 
L 36.082848 -96.570325 
L 36.15715 -96.960919 
L 36.225357 -97.351513 
L 36.286756 -97.742106 
L 36.340594 -98.1327 
L 36.386147 -98.523294 
L 36.4228 -98.913888 
L 36.450118 -99.304482 
L 36.467918 -99.695076 
L 36.476328 -100.08567 
L 36.475833 -100.476264 
L 36.467311 -100.866858 
L 36.45205 -101.257452 
L 36.431737 -101.648045 
L 36.408398 -102.038639 
L 36.384299 -102.429233 
L 36.361781 -102.819827 
L 36.34307 -103.210421 
L 36.330056 -103.601015 
L 36.324105 -103.991609 
L 36.32591 -104.382203 
L 36.335431 -104.772797 
L 36.351924 -105.16339 
L 36.374069 -105.553984 
L 36.40016 -105.944578 
L 36.428332 -106.335172 
L 36.456786 -106.725766 
L 36.48397 -107.11636 
L 36.508707 -107.506954 
L 36.530243 -107.897548 
L 36.548237 -108.288142 
L 36.562698 -108.678736 
L 36.637302 -108.678736 
L 36.637302 -108.678736 
L 36.651763 -108.288142 
L 36.669757 -107.897548 
L 36.691293 -107.506954 
L 36.71603 -107.11636 
L 36.743214 -106.725766 
L 36.771668 -106.335172 
L 36.79984 -105.944578 
L 36.825931 -105.553984 
L 36.848076 -105.16339 
L 36.864569 -104.772797 
L 36.87409 -104.382203 
L 36.875895 -103.991609 
L 36.869944 -103.601015 
L 36.85693 -103.210421 
L 36.838219 -102.819827 
L 36.815701 -102.429233 
L 36.791602 -102.038639 
L 36.768263 -101.648045 
L 36.74795 -101.257452 
L 36.732689 -100.866858 
L 36.724167 -100.476264 
L 36.723672 -100.08567 
L 36.732082 -99.695076 
L 36.749882 -99.304482 
L 36.7772 -98.913888 
L 36.813853 -98.523294 
L 36.859406 -98.1327 
L 36.913244 -97.742106 
L 36.974643 -97.351513 
L 37.04285 -96.960919 
L 37.117152 -96.570325 
L 37.196921 -96.179731 
L 37.281628 -95.789137 
L 37.370817 -95.398543 
L 37.464026 -95.007949 
L 37.560683 -94.617355 
L 37.659982 -94.226761 
L 37.760762 -93.836167 
L 37.861438 -93.445574 
L 37.960008 -93.05498 
L 38.054163 -92.664386 
L 38.141529 -92.273792 
L 38.220017 -91.883198 
L 38.288237 -91.492604 
L 38.345937 -91.10201 
L 38.39433 -90.711416 
L 38.436265 -90.320822 
L 38.476135 -89.930228 
L 38.51951 -89.539635 
L 38.572518 -89.149041 
L 38.64107 -88.758447 
L 38.730043 -88.367853 
L 38.842597 -87.977259 
L 38.979767 -87.586665 
L 39.140421 -87.196071 
L 39.321627 -86.805477 
L 39.519374 -86.414883 
L 39.729525 -86.024289 
L 39.94881 -85.633696 
L 40.175678 -85.243102 
L 40.410817 -84.852508 
L 40.65725 -84.461914 
L 40.919966 -84.07132 
L 41.205161 -83.680726 
L 41.519243 -83.290132 
L 41.867785 -82.899538 
L 42.254649 -82.508944 
L 42.681455 -82.11835 
L 43.147491 -81.727757 
L 43.65009 -81.337163 
L 44.185351 -80.946569 
L 44.749029 -80.555975 
L 45.337324 -80.165381 
L 45.947319 -79.774787 
L 46.576837 -79.384193 
L 47.223634 -78.993599 
L 47.88394 -78.603005 
L 48.550564 -78.212412 
L 49.210904 -77.821818 
L 49.845316 -77.431224 
L 50.426347 -77.04063 
L 50.91928 -76.650036 
L 51.284258 -76.259442 
L 51.48 -75.868848 
L 51.468745 -75.478254 
L 51.221751 -75.08766 
L 50.72439 -74.697066 
L 49.979836 -74.306473 
L 49.010498 -73.915879 
L 47.856762 -73.525285 
L 46.573105 -73.134691 
L 45.222217 -72.744097 
L 43.868131 -72.353503 
L 42.569559 -71.962909 
L 41.37449 -71.572315 
L 40.316793 -71.181721 
L 39.415097 -70.791127 
L 38.673763 -70.400534 
L 38.085413 -70.00994 
z
" id="m71fa473d3a" style="stroke:#262626;stroke-width:0.75;"/>
    </defs>
    <g clip-path="url(#pfd7f6cd011)">
     <use style="fill:#7f9dd2;stroke:#262626;stroke-width:0.75;" x="0" xlink:href="#m71fa473d3a" y="144"/>
    </g>
   </g>
   <g id="PolyCollection_2">
    <defs>
     <path d="M 73.850661 -57.007477 
L 73.749339 -57.007477 
L 73.594912 -57.660734 
L 73.427335 -58.313992 
L 73.47937 -58.96725 
L 73.505869 -59.620508 
L 72.967272 -60.273766 
L 72.183581 -60.927023 
L 72.332411 -61.580281 
L 72.840738 -62.233539 
L 71.812595 -62.886797 
L 69.710534 -63.540055 
L 69.80734 -64.193313 
L 71.619079 -64.84657 
L 71.010795 -65.499828 
L 67.967059 -66.153086 
L 67.620237 -66.806344 
L 70.407783 -67.459602 
L 70.410584 -68.112859 
L 66.587522 -68.766117 
L 65.498228 -69.419375 
L 69.095494 -70.072633 
L 70.147833 -70.725891 
L 66.199308 -71.379148 
L 64.300626 -72.032406 
L 68.024757 -72.685664 
L 69.55564 -73.338922 
L 64.754519 -73.99218 
L 61.513403 -74.645438 
L 65.946079 -75.298695 
L 69.609357 -75.951953 
L 66.493765 -76.605211 
L 63.158773 -77.258469 
L 66.444607 -77.911727 
L 70.072298 -78.564984 
L 67.76786 -79.218242 
L 64.332591 -79.8715 
L 66.726257 -80.524758 
L 70.498168 -81.178016 
L 69.432939 -81.831273 
L 66.535741 -82.484531 
L 67.90594 -83.137789 
L 71.05934 -83.791047 
L 70.660341 -84.444305 
L 68.277123 -85.097563 
L 68.934427 -85.75082 
L 71.562434 -86.404078 
L 71.86564 -87.057336 
L 70.344662 -87.710594 
L 70.491057 -88.363852 
L 72.210052 -89.017109 
L 72.622407 -89.670367 
L 71.657724 -90.323625 
L 71.570245 -90.976883 
L 72.673811 -91.630141 
L 73.112507 -92.283398 
L 72.582608 -92.936656 
L 72.42522 -93.589914 
L 73.058976 -94.243172 
L 73.406299 -94.89643 
L 73.135365 -95.549688 
L 72.987295 -96.202945 
L 73.330394 -96.856203 
L 73.583813 -97.509461 
L 73.475724 -98.162719 
L 73.373194 -98.815977 
L 73.532556 -99.469234 
L 73.678467 -100.122492 
L 73.624441 -100.77575 
L 73.550324 -101.429008 
L 73.630177 -102.082266 
L 73.723504 -102.735523 
L 73.696394 -103.388781 
L 73.641445 -104.042039 
L 73.683423 -104.695297 
L 73.752949 -105.348555 
L 73.757701 -106.001813 
L 73.734133 -106.65507 
L 73.74736 -107.308328 
L 73.777735 -107.961586 
L 73.78143 -108.614844 
L 73.769455 -109.268102 
L 73.773444 -109.921359 
L 73.788513 -110.574617 
L 73.792679 -111.227875 
L 73.788131 -111.881133 
L 73.788773 -112.534391 
L 73.794591 -113.187648 
L 73.795742 -113.840906 
L 73.792149 -114.494164 
L 73.791901 -115.147422 
L 73.796064 -115.80068 
L 73.798246 -116.453938 
L 73.79747 -117.107195 
L 73.797205 -117.760453 
L 73.798558 -118.413711 
L 73.799538 -119.066969 
L 73.799583 -119.720227 
L 73.799522 -120.373484 
L 73.799735 -121.026742 
L 73.799934 -121.68 
L 73.800066 -121.68 
L 73.800066 -121.68 
L 73.800265 -121.026742 
L 73.800478 -120.373484 
L 73.800417 -119.720227 
L 73.800462 -119.066969 
L 73.801442 -118.413711 
L 73.802795 -117.760453 
L 73.80253 -117.107195 
L 73.801754 -116.453938 
L 73.803936 -115.80068 
L 73.808099 -115.147422 
L 73.807851 -114.494164 
L 73.804258 -113.840906 
L 73.805409 -113.187648 
L 73.811227 -112.534391 
L 73.811869 -111.881133 
L 73.807321 -111.227875 
L 73.811487 -110.574617 
L 73.826556 -109.921359 
L 73.830545 -109.268102 
L 73.81857 -108.614844 
L 73.822265 -107.961586 
L 73.85264 -107.308328 
L 73.865867 -106.65507 
L 73.842299 -106.001813 
L 73.847051 -105.348555 
L 73.916577 -104.695297 
L 73.958555 -104.042039 
L 73.903606 -103.388781 
L 73.876496 -102.735523 
L 73.969823 -102.082266 
L 74.049676 -101.429008 
L 73.975559 -100.77575 
L 73.921533 -100.122492 
L 74.067444 -99.469234 
L 74.226806 -98.815977 
L 74.124276 -98.162719 
L 74.016187 -97.509461 
L 74.269606 -96.856203 
L 74.612705 -96.202945 
L 74.464635 -95.549688 
L 74.193701 -94.89643 
L 74.541024 -94.243172 
L 75.17478 -93.589914 
L 75.017392 -92.936656 
L 74.487493 -92.283398 
L 74.926189 -91.630141 
L 76.029755 -90.976883 
L 75.942276 -90.323625 
L 74.977593 -89.670367 
L 75.389948 -89.017109 
L 77.108943 -88.363852 
L 77.255338 -87.710594 
L 75.73436 -87.057336 
L 76.037566 -86.404078 
L 78.665573 -85.75082 
L 79.322877 -85.097563 
L 76.939659 -84.444305 
L 76.54066 -83.791047 
L 79.69406 -83.137789 
L 81.064259 -82.484531 
L 78.167061 -81.831273 
L 77.101832 -81.178016 
L 80.873743 -80.524758 
L 83.267409 -79.8715 
L 79.83214 -79.218242 
L 77.527702 -78.564984 
L 81.155393 -77.911727 
L 84.441227 -77.258469 
L 81.106235 -76.605211 
L 77.990643 -75.951953 
L 81.653921 -75.298695 
L 86.086597 -74.645438 
L 82.845481 -73.99218 
L 78.04436 -73.338922 
L 79.575243 -72.685664 
L 83.299374 -72.032406 
L 81.400692 -71.379148 
L 77.452167 -70.725891 
L 78.504506 -70.072633 
L 82.101772 -69.419375 
L 81.012478 -68.766117 
L 77.189416 -68.112859 
L 77.192217 -67.459602 
L 79.979763 -66.806344 
L 79.632941 -66.153086 
L 76.589205 -65.499828 
L 75.980921 -64.84657 
L 77.79266 -64.193313 
L 77.889466 -63.540055 
L 75.787405 -62.886797 
L 74.759262 -62.233539 
L 75.267589 -61.580281 
L 75.416419 -60.927023 
L 74.632728 -60.273766 
L 74.094131 -59.620508 
L 74.12063 -58.96725 
L 74.172665 -58.313992 
L 74.005088 -57.660734 
L 73.850661 -57.007477 
z
" id="m929868b180" style="stroke:#262626;stroke-width:0.75;"/>
    </defs>
    <g clip-path="url(#pfd7f6cd011)">
     <use style="fill:#1a1a66;stroke:#262626;stroke-width:0.75;" x="0" xlink:href="#m929868b180" y="144"/>
    </g>
   </g>
   <g id="line2d_1">
    <path clip-path="url(#pfd7f6cd011)" d="M 36.6 69.425344 
L 36.6 55.99308 
" style="fill:none;stroke:#262626;stroke-linecap:round;stroke-width:0.75;"/>
   </g>
   <g id="line2d_2">
    <path clip-path="url(#pfd7f6cd011)" d="M 36.6 69.419345 
L 36.6 64.046242 
" style="fill:none;stroke:#262626;stroke-linecap:round;stroke-width:2.25;"/>
   </g>
   <g id="line2d_3">
    <path clip-path="url(#pfd7f6cd011)" d="M 73.8 85.534677 
L 73.8 42.567357 
" style="fill:none;stroke:#262626;stroke-linecap:round;stroke-width:0.75;"/>
   </g>
   <g id="line2d_4">
    <path clip-path="url(#pfd7f6cd011)" d="M 73.8 74.783274 
L 73.8 61.367948 
" style="fill:none;stroke:#262626;stroke-linecap:round;stroke-width:2.25;"/>
   </g>
   <g id="line2d_5">
    <path clip-path="url(#pfd7f6cd011)" d="M 96.12 123.12 
L 125.88 123.12 
" style="fill:none;stroke:#262626;stroke-linecap:round;stroke-width:0.75;"/>
   </g>
   <g id="patch_3">
    <path d="M 18 128.16 
L 18 17.28 
" style="fill:none;stroke:#262626;stroke-linecap:square;stroke-linejoin:miter;stroke-width:0.8;"/>
   </g>
   <g id="patch_4">
    <path d="M 18 128.16 
L 129.6 128.16 
" style="fill:none;stroke:#262626;stroke-linecap:square;stroke-linejoin:miter;stroke-width:0.8;"/>
   </g>
   <g id="PathCollection_1">
    <defs>
     <path d="M 0 0.75 
C 0.198902 0.75 0.389685 0.670975 0.53033 0.53033 
C 0.670975 0.389685 0.75 0.198902 0.75 0 
C 0.75 -0.198902 0.670975 -0.389685 0.53033 -0.53033 
C 0.389685 -0.670975 0.198902 -0.75 0 -0.75 
C -0.198902 -0.75 -0.389685 -0.670975 -0.53033 -0.53033 
C -0.670975 -0.389685 -0.75 -0.198902 -0.75 0 
C -0.75 0.198902 -0.670975 0.389685 -0.53033 0.53033 
C -0.389685 0.670975 -0.198902 0.75 0 0.75 
z
" id="me97c56b134" style="stroke:#262626;"/>
    </defs>
    <g clip-path="url(#pfd7f6cd011)">
     <use style="fill:#ffffff;stroke:#262626;" x="36.6" xlink:href="#me97c56b134" y="66.734178"/>
    </g>
   </g>
   <g id="PathCollection_2">
    <g clip-path="url(#pfd7f6cd011)">
     <use style="fill:#ffffff;stroke:#262626;" x="73.8" xlink:href="#me97c56b134" y="69.415083"/>
    </g>
   </g>
   <g id="text_9">
    <!-- Top 10% -->
    <g style="fill:#262626;" transform="translate(27.10875 11.28)scale(0.24 -0.24)">
     <defs>
      <path d="M 422 -1272 
L 422 3319 
L 934 3319 
L 934 2888 
Q 1116 3141 1344 3267 
Q 1572 3394 1897 3394 
Q 2322 3394 2647 3175 
Q 2972 2956 3137 2557 
Q 3303 2159 3303 1684 
Q 3303 1175 3120 767 
Q 2938 359 2589 142 
Q 2241 -75 1856 -75 
Q 1575 -75 1351 44 
Q 1128 163 984 344 
L 984 -1272 
L 422 -1272 
z
M 931 1641 
Q 931 1000 1190 694 
Q 1450 388 1819 388 
Q 2194 388 2461 705 
Q 2728 1022 2728 1688 
Q 2728 2322 2467 2637 
Q 2206 2953 1844 2953 
Q 1484 2953 1207 2617 
Q 931 2281 931 1641 
z
" id="ArialMT-70" transform="scale(0.015625)"/>
      <path id="ArialMT-20" transform="scale(0.015625)"/>
      <path d="M 2384 0 
L 1822 0 
L 1822 3584 
Q 1619 3391 1289 3197 
Q 959 3003 697 2906 
L 697 3450 
Q 1169 3672 1522 3987 
Q 1875 4303 2022 4600 
L 2384 4600 
L 2384 0 
z
" id="ArialMT-31" transform="scale(0.015625)"/>
      <path d="M 372 3481 
Q 372 3972 619 4315 
Q 866 4659 1334 4659 
Q 1766 4659 2048 4351 
Q 2331 4044 2331 3447 
Q 2331 2866 2045 2552 
Q 1759 2238 1341 2238 
Q 925 2238 648 2547 
Q 372 2856 372 3481 
z
M 1350 4272 
Q 1141 4272 1002 4090 
Q 863 3909 863 3425 
Q 863 2984 1003 2804 
Q 1144 2625 1350 2625 
Q 1563 2625 1702 2806 
Q 1841 2988 1841 3469 
Q 1841 3913 1700 4092 
Q 1559 4272 1350 4272 
z
M 1353 -169 
L 3859 4659 
L 4316 4659 
L 1819 -169 
L 1353 -169 
z
M 3334 1075 
Q 3334 1569 3581 1911 
Q 3828 2253 4300 2253 
Q 4731 2253 5014 1945 
Q 5297 1638 5297 1041 
Q 5297 459 5011 145 
Q 4725 -169 4303 -169 
Q 3888 -169 3611 142 
Q 3334 453 3334 1075 
z
M 4316 1866 
Q 4103 1866 3964 1684 
Q 3825 1503 3825 1019 
Q 3825 581 3965 400 
Q 4106 219 4313 219 
Q 4528 219 4667 400 
Q 4806 581 4806 1063 
Q 4806 1506 4665 1686 
Q 4525 1866 4316 1866 
z
" id="ArialMT-25" transform="scale(0.015625)"/>
     </defs>
     <use xlink:href="#ArialMT-54"/>
     <use x="49.958984" xlink:href="#ArialMT-6f"/>
     <use x="105.574219" xlink:href="#ArialMT-70"/>
     <use x="161.189453" xlink:href="#ArialMT-20"/>
     <use x="188.972656" xlink:href="#ArialMT-31"/>
     <use x="244.587891" xlink:href="#ArialMT-30"/>
     <use x="300.203125" xlink:href="#ArialMT-25"/>
    </g>
   </g>
  </g>
 </g>
 <defs>
  <clipPath id="pfd7f6cd011">
   <rect height="110.88" width="111.6" x="18" y="17.28"/>
  </clipPath>
 </defs>
</svg>
