<?xml version="1.0" encoding="utf-8" standalone="no"?>
<!DOCTYPE svg PUBLIC "-//W3C//DTD SVG 1.1//EN"
  "http://www.w3.org/Graphics/SVG/1.1/DTD/svg11.dtd">
<svg height="216pt" version="1.1" viewBox="0 0 306 216" width="306pt" xmlns="http://www.w3.org/2000/svg" xmlns:xlink="http://www.w3.org/1999/xlink">
 <metadata>
  <rdf:RDF xmlns:cc="http://creativecommons.org/ns#" xmlns:dc="http://purl.org/dc/elements/1.1/" xmlns:rdf="http://www.w3.org/1999/02/22-rdf-syntax-ns#">
   <cc:Work>
    <dc:type rdf:resource="http://purl.org/dc/dcmitype/StillImage"/>
    <dc:date>2022-03-14T21:42:12.985272</dc:date>
    <dc:format>image/svg+xml</dc:format>
    <dc:creator>
     <cc:Agent>
      <dc:title>Matplotlib v3.4.2, https://matplotlib.org/</dc:title>
     </cc:Agent>
    </dc:creator>
   </cc:Work>
  </rdf:RDF>
 </metadata>
 <defs>
  <style type="text/css">*{stroke-linecap:butt;stroke-linejoin:round;}</style>
 </defs>
 <g id="figure_1">
  <g id="patch_1">
   <path d="M 0 216 
L 306 216 
L 306 0 
L 0 0 
z
" style="fill:#ffffff;"/>
  </g>
  <g id="axes_1">
   <g id="patch_2">
    <path d="M 94.94 141.64 
L 284.4 141.64 
L 284.4 28.8 
L 94.94 28.8 
z
" style="fill:#ffffff;"/>
   </g>
   <g id="line2d_1">
    <path clip-path="url(#pa7bc851e52)" d="M 94.94 141.64 
L 284.4 141.64 
" style="fill:none;stroke:#000000;stroke-linecap:round;stroke-width:0.5;"/>
   </g>
   <g id="patch_3">
    <path clip-path="url(#pa7bc851e52)" d="M 100.523163 121.029337 
Q 102.797109 121.029337 104.051431 122.990227 
Q 105.305752 124.946855 105.443962 127.436333 
L 103.863673 127.436333 
Q 103.595077 125.54791 102.791894 124.443844 
Q 101.988711 123.335514 100.53881 123.335514 
Q 98.770765 123.335514 97.683339 125.368872 
Q 96.595913 127.397968 96.595913 131.592568 
Q 96.595913 135.032652 97.576421 137.17258 
Q 98.559538 139.308246 100.507517 139.308246 
Q 102.299032 139.308246 103.237817 137.057484 
Q 103.733287 135.872424 103.978414 133.937111 
L 105.558702 133.937111 
Q 105.347475 137.027645 104.158348 139.120682 
Q 102.731916 141.64 100.311937 141.64 
Q 98.225748 141.64 96.807139 139.572539 
Q 94.94 136.844344 94.94 131.140711 
Q 94.94 126.813963 96.342962 124.04314 
Q 97.858057 121.029337 100.523163 121.029337 
z
M 100.197196 121.029337 
L 100.197196 121.029337 
z
" style="fill:#0000ff;"/>
   </g>
   <g id="patch_4">
    <path clip-path="url(#pa7bc851e52)" d="M 100.416455 96.282788 
Q 102.054581 96.282788 103.249628 97.5634 
Q 104.981434 99.402359 105.368811 104.012562 
L 103.811705 104.012562 
Q 103.525603 101.435971 102.63185 100.257808 
Q 101.738096 99.079645 100.375945 99.079645 
Q 98.763138 99.079645 97.659238 101.533297 
Q 96.555339 103.981828 96.555339 108.832787 
Q 96.555339 113.022949 97.464284 115.655888 
Q 98.37576 118.288827 100.431646 118.288827 
Q 102.006475 118.288827 103.039482 116.444745 
Q 104.072489 114.595541 104.095276 110.461725 
L 100.456965 110.461725 
L 100.456965 107.823664 
L 105.558702 107.823664 
L 105.558702 120.404398 
L 104.54595 120.404398 
L 104.166168 117.377031 
Q 103.368626 119.15452 102.750848 119.846051 
Q 101.712777 121.029337 100.115161 121.029337 
Q 98.05168 121.029337 96.562935 118.324684 
Q 94.94 114.9285 94.94 109.00695 
Q 94.94 103.100767 96.522425 99.612379 
Q 98.026361 96.282788 100.416455 96.282788 
z
M 100.155671 96.24693 
L 100.155671 96.24693 
z
" style="fill:#ffa600;"/>
   </g>
   <g id="patch_5">
    <path clip-path="url(#pa7bc851e52)" d="M 105.558702 69.119329 
L 105.558702 72.351478 
L 101.148734 72.351478 
L 101.148734 96.24693 
L 99.349968 96.24693 
L 99.349968 72.351478 
L 94.94 72.351478 
L 94.94 69.119329 
L 105.558702 69.119329 
z
" style="fill:#ff0000;"/>
   </g>
   <g id="patch_6">
    <path clip-path="url(#pa7bc851e52)" d="M 102.067515 52.599909 
L 100.261014 34.789497 
L 98.340473 52.599909 
L 102.067515 52.599909 
z
M 99.418672 28.8 
L 101.240724 28.8 
L 105.558702 69.119329 
L 103.791078 69.119329 
L 102.58588 57.043729 
L 97.879128 57.043729 
L 96.590992 69.119329 
L 94.94 69.119329 
L 99.418672 28.8 
z
M 100.253239 28.8 
L 100.253239 28.8 
z
" style="fill:#008000;"/>
   </g>
   <g id="patch_7">
    <path clip-path="url(#pa7bc851e52)" d="M 111.594036 127.071286 
Q 113.232162 127.071286 114.427209 127.825204 
Q 116.159015 128.90783 116.546392 131.621936 
L 114.989286 131.621936 
Q 114.703184 130.105052 113.809431 129.411448 
Q 112.915677 128.717843 111.553526 128.717843 
Q 109.940719 128.717843 108.83682 130.16235 
Q 107.73292 131.603842 107.73292 134.459683 
Q 107.73292 136.926504 108.641865 138.476559 
Q 109.553341 140.026615 111.609227 140.026615 
Q 113.184056 140.026615 114.217063 138.940973 
Q 115.25007 137.852315 115.272857 135.418667 
L 111.634546 135.418667 
L 111.634546 133.865596 
L 116.736283 133.865596 
L 116.736283 141.272088 
L 115.723531 141.272088 
L 115.34375 139.489825 
Q 114.546208 140.536264 113.928429 140.94338 
Q 112.890358 141.64 111.292743 141.64 
Q 109.229261 141.64 107.740516 140.047725 
Q 106.117581 138.048334 106.117581 134.562216 
Q 106.117581 131.085146 107.700006 129.031473 
Q 109.203942 127.071286 111.594036 127.071286 
z
M 111.333253 127.050176 
L 111.333253 127.050176 
z
" style="fill:#ffa600;"/>
   </g>
   <g id="patch_8">
    <path clip-path="url(#pa7bc851e52)" d="M 116.736283 100.644173 
L 116.736283 103.790346 
L 112.326315 103.790346 
L 112.326315 127.050176 
L 110.527549 127.050176 
L 110.527549 103.790346 
L 106.117581 103.790346 
L 106.117581 100.644173 
L 116.736283 100.644173 
z
" style="fill:#ff0000;"/>
   </g>
   <g id="patch_9">
    <path clip-path="url(#pa7bc851e52)" d="M 111.700744 68.984029 
Q 113.97469 68.984029 115.229012 71.996162 
Q 116.483333 75.001748 116.621543 78.825848 
L 115.041255 78.825848 
Q 114.772658 75.925032 113.969475 74.22907 
Q 113.166292 72.52656 111.716391 72.52656 
Q 109.948346 72.52656 108.86092 75.650012 
Q 107.773494 78.766915 107.773494 85.210262 
Q 107.773494 90.494592 108.754002 93.781746 
Q 109.737119 97.062353 111.685098 97.062353 
Q 113.476613 97.062353 114.415398 93.604947 
Q 114.910868 91.784571 115.155995 88.811726 
L 116.736283 88.811726 
Q 116.525057 93.55911 115.335929 96.774236 
Q 113.909497 100.644173 111.489518 100.644173 
Q 109.403329 100.644173 107.98472 97.468336 
Q 106.117581 93.277541 106.117581 84.516161 
Q 106.117581 77.869823 107.520543 73.613547 
Q 109.035638 68.984029 111.700744 68.984029 
z
M 111.374777 68.984029 
L 111.374777 68.984029 
z
" style="fill:#0000ff;"/>
   </g>
   <g id="patch_10">
    <path clip-path="url(#pa7bc851e52)" d="M 113.245097 52.520043 
L 111.438595 34.769398 
L 109.518054 52.520043 
L 113.245097 52.520043 
z
M 110.596253 28.8 
L 112.418305 28.8 
L 116.736283 68.984029 
L 114.968659 68.984029 
L 113.763461 56.948952 
L 109.056709 56.948952 
L 107.768573 68.984029 
L 106.117581 68.984029 
L 110.596253 28.8 
z
M 111.43082 28.8 
L 111.43082 28.8 
z
" style="fill:#008000;"/>
   </g>
   <g id="patch_11">
    <path clip-path="url(#pa7bc851e52)" d="M 122.771617 125.450038 
Q 124.409743 125.450038 125.60479 126.287854 
Q 127.336596 127.490958 127.723973 130.507097 
L 126.166868 130.507097 
Q 125.880765 128.82141 124.987012 128.050619 
Q 124.093258 127.279828 122.731107 127.279828 
Q 121.1183 127.279828 120.014401 128.885084 
Q 118.910501 130.486989 118.910501 133.660637 
Q 118.910501 136.401972 119.819446 138.124523 
Q 120.730923 139.847073 122.786809 139.847073 
Q 124.361638 139.847073 125.394644 138.640618 
Q 126.427651 137.430811 126.450438 134.72634 
L 122.812127 134.72634 
L 122.812127 133.000438 
L 127.913864 133.000438 
L 127.913864 141.231146 
L 126.901113 141.231146 
L 126.521331 139.250548 
Q 125.723789 140.413437 125.10601 140.865858 
Q 124.06794 141.64 122.470324 141.64 
Q 120.406842 141.64 118.918097 139.870532 
Q 117.295162 137.648643 117.295162 133.77458 
Q 117.295162 129.910572 118.877587 127.62836 
Q 120.381523 125.450038 122.771617 125.450038 
z
M 122.510834 125.426579 
L 122.510834 125.426579 
z
" style="fill:#ffa600;"/>
   </g>
   <g id="patch_12">
    <path clip-path="url(#pa7bc851e52)" d="M 127.913864 100.305923 
L 127.913864 103.298953 
L 123.503896 103.298953 
L 123.503896 125.426579 
L 121.705131 125.426579 
L 121.705131 103.298953 
L 117.295162 103.298953 
L 117.295162 100.305923 
L 127.913864 100.305923 
z
" style="fill:#ff0000;"/>
   </g>
   <g id="patch_13">
    <path clip-path="url(#pa7bc851e52)" d="M 122.878326 65.127986 
Q 125.152272 65.127986 126.406593 68.474801 
Q 127.660914 71.81434 127.799124 76.06334 
L 126.218836 76.06334 
Q 125.950239 72.840212 125.147056 70.955809 
Q 124.343873 69.064131 122.893972 69.064131 
Q 121.125927 69.064131 120.038501 72.534633 
Q 118.951075 75.997859 118.951075 83.157133 
Q 118.951075 89.028611 119.931584 92.681005 
Q 120.9147 96.326123 122.862679 96.326123 
Q 124.654194 96.326123 125.592979 92.484562 
Q 126.088449 90.461921 126.333576 87.15876 
L 127.913864 87.15876 
Q 127.702638 92.433632 126.51351 96.005993 
Q 125.087078 100.305923 122.667099 100.305923 
Q 120.58091 100.305923 119.162301 96.777216 
Q 117.295162 92.120777 117.295162 82.385911 
Q 117.295162 75.00109 118.698124 70.271895 
Q 120.213219 65.127986 122.878326 65.127986 
z
M 122.552359 65.127986 
L 122.552359 65.127986 
z
" style="fill:#0000ff;"/>
   </g>
   <g id="patch_14">
    <path clip-path="url(#pa7bc851e52)" d="M 124.422678 50.243877 
L 122.616176 34.196577 
L 120.695635 50.243877 
L 124.422678 50.243877 
z
M 121.773834 28.8 
L 123.595886 28.8 
L 127.913864 65.127986 
L 126.14624 65.127986 
L 124.941042 54.24779 
L 120.23429 54.24779 
L 118.946154 65.127986 
L 117.295162 65.127986 
L 121.773834 28.8 
z
M 122.608401 28.8 
L 122.608401 28.8 
z
" style="fill:#008000;"/>
   </g>
   <g id="patch_15">
    <path clip-path="url(#pa7bc851e52)" d="M 133.949198 122.500267 
Q 135.587324 122.500267 136.782371 123.490731 
Q 138.514177 124.913038 138.901554 128.47871 
L 137.344449 128.47871 
Q 137.058346 126.485896 136.164593 125.574668 
Q 135.270839 124.663441 133.908688 124.663441 
Q 132.295881 124.663441 131.191982 126.561171 
Q 130.088082 128.454939 130.088082 132.206818 
Q 130.088082 135.447617 130.997027 137.484012 
Q 131.908504 139.520406 133.96439 139.520406 
Q 135.539219 139.520406 136.572225 138.094138 
Q 137.605232 136.663907 137.628019 133.466688 
L 133.989709 133.466688 
L 133.989709 131.426332 
L 139.091445 131.426332 
L 139.091445 141.156653 
L 138.078694 141.156653 
L 137.698912 138.815196 
Q 136.90137 140.18996 136.283591 140.724811 
Q 135.245521 141.64 133.647905 141.64 
Q 131.584423 141.64 130.095678 139.548139 
Q 128.472743 136.921428 128.472743 132.341521 
Q 128.472743 127.773499 130.055168 125.075474 
Q 131.559104 122.500267 133.949198 122.500267 
z
M 133.688415 122.472534 
L 133.688415 122.472534 
z
" style="fill:#ffa600;"/>
   </g>
   <g id="patch_16">
    <path clip-path="url(#pa7bc851e52)" d="M 139.091445 101.095172 
L 139.091445 103.642202 
L 134.681477 103.642202 
L 134.681477 122.472534 
L 132.882712 122.472534 
L 132.882712 103.642202 
L 128.472743 103.642202 
L 128.472743 101.095172 
L 139.091445 101.095172 
z
" style="fill:#ff0000;"/>
   </g>
   <g id="patch_17">
    <path clip-path="url(#pa7bc851e52)" d="M 134.055907 66.458433 
Q 136.329853 66.458433 137.584174 69.753759 
Q 138.838495 73.041921 138.976705 77.225552 
L 137.396417 77.225552 
Q 137.12782 74.05201 136.324637 72.196598 
Q 135.521454 70.334023 134.071553 70.334023 
Q 132.303508 70.334023 131.216082 73.751132 
Q 130.128656 77.161078 130.128656 84.21021 
Q 130.128656 89.991357 131.109165 93.58756 
Q 132.092281 97.1766 134.04026 97.1766 
Q 135.831775 97.1766 136.77056 93.394139 
Q 137.26603 91.402616 137.511157 88.150273 
L 139.091445 88.150273 
Q 138.880219 93.343993 137.691091 96.861395 
Q 136.264659 101.095172 133.84468 101.095172 
Q 131.758491 101.095172 130.339883 97.620752 
Q 128.472743 93.035951 128.472743 83.450852 
Q 128.472743 76.179644 129.875705 71.523206 
Q 131.3908 66.458433 134.055907 66.458433 
z
M 133.72994 66.458433 
L 133.72994 66.458433 
z
" style="fill:#0000ff;"/>
   </g>
   <g id="patch_18">
    <path clip-path="url(#pa7bc851e52)" d="M 135.600259 51.029221 
L 133.793758 34.394217 
L 131.873216 51.029221 
L 135.600259 51.029221 
z
M 132.951415 28.8 
L 134.773467 28.8 
L 139.091445 66.458433 
L 137.323822 66.458433 
L 136.118624 55.179769 
L 131.411872 55.179769 
L 130.123735 66.458433 
L 128.472743 66.458433 
L 132.951415 28.8 
z
M 133.785982 28.8 
L 133.785982 28.8 
z
" style="fill:#008000;"/>
   </g>
   <g id="patch_19">
    <path clip-path="url(#pa7bc851e52)" d="M 145.12678 124.594379 
Q 146.764906 124.594379 147.959953 125.476475 
Q 149.691758 126.743165 150.079136 129.91871 
L 148.52203 129.91871 
Q 148.235927 128.143933 147.342174 127.332405 
Q 146.448421 126.520876 145.086269 126.520876 
Q 143.473462 126.520876 142.369563 128.210972 
Q 141.265664 129.897539 141.265664 133.238919 
Q 141.265664 136.125136 142.174608 137.938726 
Q 143.086085 139.752315 145.141971 139.752315 
Q 146.7168 139.752315 147.749807 138.482097 
Q 148.782813 137.20835 148.8056 134.360945 
L 145.16729 134.360945 
L 145.16729 132.543827 
L 150.269027 132.543827 
L 150.269027 141.209537 
L 149.256275 141.209537 
L 148.876493 139.124263 
Q 148.078951 140.348612 147.461172 140.824943 
Q 146.423102 141.64 144.825486 141.64 
Q 142.762004 141.64 141.273259 139.777013 
Q 139.650324 137.437695 139.650324 133.358884 
Q 139.650324 129.290657 141.232749 126.887828 
Q 142.736685 124.594379 145.12678 124.594379 
z
M 144.865996 124.56968 
L 144.865996 124.56968 
z
" style="fill:#ffa600;"/>
   </g>
   <g id="patch_20">
    <path clip-path="url(#pa7bc851e52)" d="M 150.269027 102.26777 
L 150.269027 104.924957 
L 145.859058 104.924957 
L 145.859058 124.56968 
L 144.060293 124.56968 
L 144.060293 104.924957 
L 139.650324 104.924957 
L 139.650324 102.26777 
L 150.269027 102.26777 
z
" style="fill:#ff0000;"/>
   </g>
   <g id="patch_21">
    <path clip-path="url(#pa7bc851e52)" d="M 145.233488 65.736835 
Q 147.507434 65.736835 148.761755 69.212373 
Q 150.016076 72.680357 150.154286 77.09278 
L 148.573998 77.09278 
Q 148.305401 73.745685 147.502218 71.788805 
Q 146.699036 69.82437 145.249134 69.82437 
Q 143.481089 69.82437 142.393663 73.428353 
Q 141.306237 77.02478 141.306237 84.459411 
Q 141.306237 90.556715 142.286746 94.349586 
Q 143.269862 98.134901 145.217841 98.134901 
Q 147.009356 98.134901 147.948141 94.145587 
Q 148.443611 92.045152 148.688738 88.614947 
L 150.269027 88.614947 
Q 150.0578 94.092698 148.868672 97.802458 
Q 147.44224 102.26777 145.022261 102.26777 
Q 142.936072 102.26777 141.517464 98.603343 
Q 139.650324 93.767811 139.650324 83.658526 
Q 139.650324 75.989674 141.053287 71.078587 
Q 142.568381 65.736835 145.233488 65.736835 
z
M 144.907521 65.736835 
L 144.907521 65.736835 
z
" style="fill:#0000ff;"/>
   </g>
   <g id="patch_22">
    <path clip-path="url(#pa7bc851e52)" d="M 146.77784 50.603272 
L 144.971339 34.287023 
L 143.050797 50.603272 
L 146.77784 50.603272 
z
M 144.128996 28.8 
L 145.951048 28.8 
L 150.269027 65.736835 
L 148.501403 65.736835 
L 147.296205 54.674289 
L 142.589453 54.674289 
L 141.301316 65.736835 
L 139.650324 65.736835 
L 144.128996 28.8 
z
M 144.963563 28.8 
L 144.963563 28.8 
z
" style="fill:#008000;"/>
   </g>
   <g id="patch_23">
    <path clip-path="url(#pa7bc851e52)" d="M 156.304361 122.860544 
Q 157.942487 122.860544 159.137534 123.832365 
Q 160.869339 125.227899 161.256717 128.726452 
L 159.699611 128.726452 
Q 159.413509 126.771149 158.519755 125.877075 
Q 157.626002 124.983 156.263851 124.983 
Q 154.651043 124.983 153.547144 126.845008 
Q 152.443245 128.703128 152.443245 132.384383 
Q 152.443245 135.564179 153.352189 137.562242 
Q 154.263666 139.560305 156.319552 139.560305 
Q 157.894381 139.560305 158.927388 138.160883 
Q 159.960394 136.757575 159.983181 133.620539 
L 156.344871 133.620539 
L 156.344871 131.618589 
L 161.446608 131.618589 
L 161.446608 141.165752 
L 160.433856 141.165752 
L 160.054074 138.868368 
Q 159.256532 140.217255 158.638753 140.742038 
Q 157.600683 141.64 156.003067 141.64 
Q 153.939585 141.64 152.45084 139.587516 
Q 150.827906 137.010248 150.827906 132.516551 
Q 150.827906 128.034516 152.41033 125.387277 
Q 153.914267 122.860544 156.304361 122.860544 
z
M 156.043577 122.833333 
L 156.043577 122.833333 
z
" style="fill:#ffa600;"/>
   </g>
   <g id="patch_24">
    <path clip-path="url(#pa7bc851e52)" d="M 161.446608 99.043125 
L 161.446608 101.877637 
L 157.036639 101.877637 
L 157.036639 122.833333 
L 155.237874 122.833333 
L 155.237874 101.877637 
L 150.827906 101.877637 
L 150.827906 99.043125 
L 161.446608 99.043125 
z
" style="fill:#ff0000;"/>
   </g>
   <g id="patch_25">
    <path clip-path="url(#pa7bc851e52)" d="M 157.955421 84.71336 
L 156.14892 69.263725 
L 154.228378 84.71336 
L 157.955421 84.71336 
z
M 155.306577 64.068137 
L 157.128629 64.068137 
L 161.446608 99.043125 
L 159.678984 99.043125 
L 158.473786 88.568151 
L 153.767034 88.568151 
L 152.478897 99.043125 
L 150.827906 99.043125 
L 155.306577 64.068137 
z
M 156.141144 64.068137 
L 156.141144 64.068137 
z
" style="fill:#008000;"/>
   </g>
   <g id="patch_26">
    <path clip-path="url(#pa7bc851e52)" d="M 156.411069 28.8 
Q 158.685015 28.8 159.939336 32.155397 
Q 161.193657 35.503499 161.331867 39.763394 
L 159.751579 39.763394 
Q 159.482982 36.532001 158.679799 34.642767 
Q 157.876617 32.746238 156.426715 32.746238 
Q 154.65867 32.746238 153.571244 36.225639 
Q 152.483818 39.697745 152.483818 46.875376 
Q 152.483818 52.761909 153.464327 56.423668 
Q 154.447444 60.078133 156.395423 60.078133 
Q 158.186937 60.078133 159.125722 56.226721 
Q 159.621192 54.198894 159.866319 50.887264 
L 161.446608 50.887264 
Q 161.235381 56.175661 160.046253 59.757182 
Q 158.619822 64.068137 156.199842 64.068137 
Q 154.113653 64.068137 152.695045 60.530382 
Q 150.827906 55.862004 150.827906 46.102176 
Q 150.827906 38.69842 152.230868 33.957099 
Q 153.745962 28.8 156.411069 28.8 
z
M 156.085102 28.8 
L 156.085102 28.8 
z
" style="fill:#0000ff;"/>
   </g>
   <g id="patch_27">
    <path clip-path="url(#pa7bc851e52)" d="M 172.624189 122.382334 
L 172.624189 124.676811 
L 168.21422 124.676811 
L 168.21422 141.64 
L 166.415455 141.64 
L 166.415455 124.676811 
L 162.005487 124.676811 
L 162.005487 122.382334 
L 172.624189 122.382334 
z
" style="fill:#ff0000;"/>
   </g>
   <g id="patch_28">
    <path clip-path="url(#pa7bc851e52)" d="M 167.481942 100.833246 
Q 169.120068 100.833246 170.315115 101.948393 
Q 172.04692 103.549743 172.434298 107.56427 
L 170.877192 107.56427 
Q 170.59109 105.320595 169.697336 104.294661 
Q 168.803583 103.268726 167.441432 103.268726 
Q 165.828625 103.268726 164.724725 105.405346 
Q 163.620826 107.537506 163.620826 111.76168 
Q 163.620826 115.410439 164.52977 117.70318 
Q 165.441247 119.995921 167.497133 119.995921 
Q 169.071962 119.995921 170.104969 118.39011 
Q 171.137976 116.779839 171.160763 113.180147 
L 167.522452 113.180147 
L 167.522452 110.882945 
L 172.624189 110.882945 
L 172.624189 121.838143 
L 171.611437 121.838143 
L 171.231655 119.201937 
Q 170.434113 120.74976 169.816335 121.351939 
Q 168.778264 122.382334 167.180648 122.382334 
Q 165.117166 122.382334 163.628421 120.027145 
Q 162.005487 117.069777 162.005487 111.91334 
Q 162.005487 106.770286 163.587911 103.732627 
Q 165.091848 100.833246 167.481942 100.833246 
z
M 167.221158 100.802022 
L 167.221158 100.802022 
z
" style="fill:#ffa600;"/>
   </g>
   <g id="patch_29">
    <path clip-path="url(#pa7bc851e52)" d="M 169.133002 87.082034 
L 167.326501 72.28983 
L 165.40596 87.082034 
L 169.133002 87.082034 
z
M 166.484158 67.315332 
L 168.30621 67.315332 
L 172.624189 100.802022 
L 170.856565 100.802022 
L 169.651367 90.772791 
L 164.944615 90.772791 
L 163.656478 100.802022 
L 162.005487 100.802022 
L 166.484158 67.315332 
z
M 167.318725 67.315332 
L 167.318725 67.315332 
z
" style="fill:#008000;"/>
   </g>
   <g id="patch_30">
    <path clip-path="url(#pa7bc851e52)" d="M 167.58865 28.8 
Q 169.862596 28.8 171.116917 32.464334 
Q 172.371238 36.120701 172.509448 40.772811 
L 170.92916 40.772811 
Q 170.660563 37.243899 169.857381 35.18072 
Q 169.054198 33.109575 167.604296 33.109575 
Q 165.836251 33.109575 164.748825 36.909329 
Q 163.661399 40.701118 163.661399 48.539605 
Q 163.661399 54.968121 164.641908 58.967024 
Q 165.625025 62.957961 167.573004 62.957961 
Q 169.364518 62.957961 170.303304 58.751944 
Q 170.798773 56.537412 171.043901 52.920874 
L 172.624189 52.920874 
Q 172.412962 58.696182 171.223834 62.60746 
Q 169.797403 67.315332 167.377423 67.315332 
Q 165.291234 67.315332 163.872626 63.45185 
Q 162.005487 58.353646 162.005487 47.695215 
Q 162.005487 39.609784 163.408449 34.431921 
Q 164.923544 28.8 167.58865 28.8 
z
M 167.262683 28.8 
L 167.262683 28.8 
z
" style="fill:#0000ff;"/>
   </g>
   <g id="patch_31">
    <path clip-path="url(#pa7bc851e52)" d="M 178.659523 123.851307 
Q 180.297649 123.851307 181.492696 124.771856 
Q 183.224501 126.093765 183.611879 129.407742 
L 182.054773 129.407742 
Q 181.768671 127.555597 180.874917 126.708692 
Q 179.981164 125.861786 178.619013 125.861786 
Q 177.006206 125.861786 175.902306 127.625559 
Q 174.798407 129.385649 174.798407 132.872689 
Q 174.798407 135.884726 175.707352 137.777375 
Q 176.618828 139.670025 178.674714 139.670025 
Q 180.249543 139.670025 181.28255 138.344434 
Q 182.315557 137.015161 182.338344 134.043628 
L 178.700033 134.043628 
L 178.700033 132.147296 
L 183.80177 132.147296 
L 183.80177 141.190772 
L 182.789018 141.190772 
L 182.409236 139.014594 
Q 181.611694 140.292316 180.993916 140.789413 
Q 179.955845 141.64 178.358229 141.64 
Q 176.294748 141.64 174.806003 139.6958 
Q 173.183068 137.254504 173.183068 132.997884 
Q 173.183068 128.752311 174.765492 126.244735 
Q 176.269429 123.851307 178.659523 123.851307 
z
M 178.398739 123.825532 
L 178.398739 123.825532 
z
" style="fill:#ffa600;"/>
   </g>
   <g id="patch_32">
    <path clip-path="url(#pa7bc851e52)" d="M 183.80177 103.620767 
L 183.80177 106.028087 
L 179.391802 106.028087 
L 179.391802 123.825532 
L 177.593036 123.825532 
L 177.593036 106.028087 
L 173.183068 106.028087 
L 173.183068 103.620767 
L 183.80177 103.620767 
z
" style="fill:#ff0000;"/>
   </g>
   <g id="patch_33">
    <path clip-path="url(#pa7bc851e52)" d="M 180.310583 89.780672 
L 178.504082 74.858974 
L 176.583541 89.780672 
L 180.310583 89.780672 
z
M 177.661739 69.840927 
L 179.483791 69.840927 
L 183.80177 103.620767 
L 182.034146 103.620767 
L 180.828948 93.503738 
L 176.122196 93.503738 
L 174.83406 103.620767 
L 173.183068 103.620767 
L 177.661739 69.840927 
z
M 178.496307 69.840927 
L 178.496307 69.840927 
z
" style="fill:#008000;"/>
   </g>
   <g id="patch_34">
    <path clip-path="url(#pa7bc851e52)" d="M 178.766231 28.8 
Q 181.040177 28.8 182.294498 32.704618 
Q 183.548819 36.600747 183.68703 41.557914 
L 182.106741 41.557914 
Q 181.838145 37.797597 181.034962 35.599128 
Q 180.231779 33.39217 178.781878 33.39217 
Q 177.013832 33.39217 175.926406 37.441089 
Q 174.83898 41.481519 174.83898 49.834006 
Q 174.83898 56.684063 175.819489 60.94519 
Q 176.802606 65.197828 178.750585 65.197828 
Q 180.5421 65.197828 181.480885 60.716005 
Q 181.976355 58.356258 182.221482 54.50257 
L 183.80177 54.50257 
Q 183.590543 60.656587 182.401416 64.824342 
Q 180.974984 69.840927 178.555005 69.840927 
Q 176.468816 69.840927 175.050207 65.724102 
Q 173.183068 60.291591 173.183068 48.934246 
Q 173.183068 40.318622 174.58603 34.801228 
Q 176.101125 28.8 178.766231 28.8 
z
M 178.440264 28.8 
L 178.440264 28.8 
z
" style="fill:#0000ff;"/>
   </g>
   <g id="patch_35">
    <path clip-path="url(#pa7bc851e52)" d="M 189.837104 122.275094 
Q 191.47523 122.275094 192.670277 123.277211 
Q 194.402083 124.71625 194.78946 128.323871 
L 193.232354 128.323871 
Q 192.946252 126.307612 192.052498 125.385664 
Q 191.158745 124.463717 189.796594 124.463717 
Q 188.183787 124.463717 187.079887 126.383773 
Q 185.975988 128.29982 185.975988 132.095839 
Q 185.975988 135.374765 186.884933 137.435118 
Q 187.796409 139.49547 189.852295 139.49547 
Q 191.427124 139.49547 192.460131 138.052422 
Q 193.493138 136.605365 193.515925 133.370532 
L 189.877614 133.370532 
L 189.877614 131.306171 
L 194.979351 131.306171 
L 194.979351 141.150967 
L 193.966599 141.150967 
L 193.586817 138.781963 
Q 192.789275 140.172901 192.171497 140.714044 
Q 191.133426 141.64 189.53581 141.64 
Q 187.472329 141.64 185.983584 139.523529 
Q 184.360649 136.865915 184.360649 132.232127 
Q 184.360649 127.610364 185.943074 124.880598 
Q 187.44701 122.275094 189.837104 122.275094 
z
M 189.57632 122.247034 
L 189.57632 122.247034 
z
" style="fill:#ffa600;"/>
   </g>
   <g id="patch_36">
    <path clip-path="url(#pa7bc851e52)" d="M 194.979351 101.004972 
L 194.979351 103.535882 
L 190.569383 103.535882 
L 190.569383 122.247034 
L 188.770617 122.247034 
L 188.770617 103.535882 
L 184.360649 103.535882 
L 184.360649 101.004972 
L 194.979351 101.004972 
z
" style="fill:#ff0000;"/>
   </g>
   <g id="patch_37">
    <path clip-path="url(#pa7bc851e52)" d="M 191.488164 87.552916 
L 189.681663 73.049584 
L 187.761122 87.552916 
L 191.488164 87.552916 
z
M 188.83932 68.17223 
L 190.661373 68.17223 
L 194.979351 101.004972 
L 193.211727 101.004972 
L 192.006529 91.171598 
L 187.299777 91.171598 
L 186.011641 101.004972 
L 184.360649 101.004972 
L 188.83932 68.17223 
z
M 189.673888 68.17223 
L 189.673888 68.17223 
z
" style="fill:#008000;"/>
   </g>
   <g id="patch_38">
    <path clip-path="url(#pa7bc851e52)" d="M 189.943812 28.8 
Q 192.217758 28.8 193.472079 32.545859 
Q 194.726401 36.283574 194.864611 41.039186 
L 193.284322 41.039186 
Q 193.015726 37.431761 192.212543 35.32268 
Q 191.40936 33.205455 189.959459 33.205455 
Q 188.191414 33.205455 187.103988 37.089748 
Q 186.016561 40.965897 186.016561 48.978777 
Q 186.016561 55.550316 186.99707 59.638187 
Q 187.980187 63.717916 189.928166 63.717916 
Q 191.719681 63.717916 192.658466 59.418322 
Q 193.153936 57.15452 193.399063 53.457521 
L 194.979351 53.457521 
Q 194.768124 59.36132 193.578997 63.359616 
Q 192.152565 68.17223 189.732586 68.17223 
Q 187.646397 68.17223 186.227788 64.222792 
Q 184.360649 59.011163 184.360649 48.115601 
Q 184.360649 39.850283 185.763611 34.557222 
Q 187.278706 28.8 189.943812 28.8 
z
M 189.617845 28.8 
L 189.617845 28.8 
z
" style="fill:#0000ff;"/>
   </g>
   <g id="patch_39">
    <path clip-path="url(#pa7bc851e52)" d="M 206.156932 123.329432 
L 206.156932 125.511066 
L 201.746964 125.511066 
L 201.746964 141.64 
L 199.948198 141.64 
L 199.948198 125.511066 
L 195.53823 125.511066 
L 195.53823 123.329432 
L 206.156932 123.329432 
z
" style="fill:#ff0000;"/>
   </g>
   <g id="patch_40">
    <path clip-path="url(#pa7bc851e52)" d="M 201.014685 100.451822 
Q 202.652811 100.451822 203.847858 101.635718 
Q 205.579664 103.335793 205.967041 107.59782 
L 204.409935 107.59782 
Q 204.123833 105.21582 203.23008 104.126636 
Q 202.336326 103.037451 200.974175 103.037451 
Q 199.361368 103.037451 198.257469 105.305797 
Q 197.153569 107.569406 197.153569 112.054005 
Q 197.153569 115.927713 198.062514 118.361804 
Q 198.97399 120.795895 201.029876 120.795895 
Q 202.604705 120.795895 203.637712 119.091084 
Q 204.670719 117.381538 204.693506 113.559921 
L 201.055195 113.559921 
L 201.055195 111.121095 
L 206.156932 111.121095 
L 206.156932 122.751691 
L 205.14418 122.751691 
L 204.764399 119.95296 
Q 203.966857 121.596208 203.349078 122.235512 
Q 202.311007 123.329432 200.713392 123.329432 
Q 198.64991 123.329432 197.161165 120.829044 
Q 195.53823 117.689351 195.53823 112.215015 
Q 195.53823 106.754886 197.120655 103.529952 
Q 198.624591 100.451822 201.014685 100.451822 
z
M 200.753902 100.418673 
L 200.753902 100.418673 
z
" style="fill:#ffa600;"/>
   </g>
   <g id="patch_41">
    <path clip-path="url(#pa7bc851e52)" d="M 202.665746 87.62259 
L 200.859244 73.826494 
L 198.938703 87.62259 
L 202.665746 87.62259 
z
M 200.016902 69.186978 
L 201.838954 69.186978 
L 206.156932 100.418673 
L 204.389308 100.418673 
L 203.18411 91.064811 
L 198.477358 91.064811 
L 197.189222 100.418673 
L 195.53823 100.418673 
L 200.016902 69.186978 
z
M 200.851469 69.186978 
L 200.851469 69.186978 
z
" style="fill:#008000;"/>
   </g>
   <g id="patch_42">
    <path clip-path="url(#pa7bc851e52)" d="M 201.121393 28.8 
Q 203.395339 28.8 204.649661 32.642401 
Q 205.903982 36.476449 206.042192 41.354628 
L 204.461904 41.354628 
Q 204.193307 37.654229 203.390124 35.49079 
Q 202.586941 33.318998 201.13704 33.318998 
Q 199.368995 33.318998 198.281569 37.303401 
Q 197.194143 41.279451 197.194143 49.498849 
Q 197.194143 56.239757 198.174651 60.432986 
Q 199.157768 64.617862 201.105747 64.617862 
Q 202.897262 64.617862 203.836047 60.207454 
Q 204.331517 57.885307 204.576644 54.093024 
L 206.156932 54.093024 
Q 205.945706 60.148982 204.756578 64.250328 
Q 203.330146 69.186978 200.910167 69.186978 
Q 198.823978 69.186978 197.405369 65.135751 
Q 195.53823 59.789801 195.53823 48.613426 
Q 195.53823 40.135084 196.941192 34.705604 
Q 198.456287 28.8 201.121393 28.8 
z
M 200.795426 28.8 
L 200.795426 28.8 
z
" style="fill:#0000ff;"/>
   </g>
   <g id="patch_43">
    <path clip-path="url(#pa7bc851e52)" d="M 217.334513 123.013733 
L 217.334513 125.232981 
L 212.924545 125.232981 
L 212.924545 141.64 
L 211.12578 141.64 
L 211.12578 125.232981 
L 206.715811 125.232981 
L 206.715811 123.013733 
L 217.334513 123.013733 
z
" style="fill:#ff0000;"/>
   </g>
   <g id="patch_44">
    <path clip-path="url(#pa7bc851e52)" d="M 212.192266 99.325499 
Q 213.830392 99.325499 215.025439 100.551344 
Q 216.757245 102.311658 217.144622 106.724701 
L 215.587517 106.724701 
Q 215.301414 104.2583 214.407661 103.130522 
Q 213.513907 102.002745 212.151756 102.002745 
Q 210.538949 102.002745 209.43505 104.351464 
Q 208.33115 106.695281 208.33115 111.338783 
Q 208.33115 115.349748 209.240095 117.870086 
Q 210.151572 120.390424 212.207458 120.390424 
Q 213.782287 120.390424 214.815293 118.625207 
Q 215.8483 116.855086 215.871087 112.898058 
L 212.232776 112.898058 
L 212.232776 110.372816 
L 217.334513 110.372816 
L 217.334513 122.415521 
L 216.321762 122.415521 
L 215.94198 119.517622 
Q 215.144438 121.219096 214.526659 121.881052 
Q 213.488589 123.013733 211.890973 123.013733 
Q 209.827491 123.013733 208.338746 120.424748 
Q 206.715811 117.173806 206.715811 111.505497 
Q 206.715811 105.851899 208.298236 102.512696 
Q 209.802172 99.325499 212.192266 99.325499 
z
M 211.931483 99.291175 
L 211.931483 99.291175 
z
" style="fill:#ffa600;"/>
   </g>
   <g id="patch_45">
    <path clip-path="url(#pa7bc851e52)" d="M 213.843327 86.818459 
L 212.036825 73.371 
L 210.116284 86.818459 
L 213.843327 86.818459 
z
M 211.194483 68.848729 
L 213.016535 68.848729 
L 217.334513 99.291175 
L 215.566889 99.291175 
L 214.361691 90.173692 
L 209.654939 90.173692 
L 208.366803 99.291175 
L 206.715811 99.291175 
L 211.194483 68.848729 
z
M 212.02905 68.848729 
L 212.02905 68.848729 
z
" style="fill:#008000;"/>
   </g>
   <g id="patch_46">
    <path clip-path="url(#pa7bc851e52)" d="M 212.298975 28.8 
Q 214.572921 28.8 215.827242 32.61022 
Q 217.081563 36.412158 217.219773 41.249481 
L 215.639485 41.249481 
Q 215.370888 37.580073 214.567705 35.434753 
Q 213.764522 33.28115 212.314621 33.28115 
Q 210.546576 33.28115 209.45915 37.232183 
Q 208.371724 41.174933 208.371724 49.325491 
Q 208.371724 56.009943 209.352233 60.168053 
Q 210.335349 64.31788 212.283328 64.31788 
Q 214.074843 64.31788 215.013628 59.94441 
Q 215.509098 57.641711 215.754225 53.88119 
L 217.334513 53.88119 
Q 217.123287 59.886428 215.934159 63.953424 
Q 214.507727 68.848729 212.087748 68.848729 
Q 210.001559 68.848729 208.58295 64.831431 
Q 206.715811 59.530255 206.715811 48.447484 
Q 206.715811 40.04015 208.118773 34.656143 
Q 209.633868 28.8 212.298975 28.8 
z
M 211.973008 28.8 
L 211.973008 28.8 
z
" style="fill:#0000ff;"/>
   </g>
   <g id="patch_47">
    <path clip-path="url(#pa7bc851e52)" d="M 228.512094 121.998985 
L 228.512094 124.339136 
L 224.102126 124.339136 
L 224.102126 141.64 
L 222.303361 141.64 
L 222.303361 124.339136 
L 217.893392 124.339136 
L 217.893392 121.998985 
L 228.512094 121.998985 
z
" style="fill:#ff0000;"/>
   </g>
   <g id="patch_48">
    <path clip-path="url(#pa7bc851e52)" d="M 225.020908 110.736584 
L 223.214407 98.594027 
L 221.293865 110.736584 
L 225.020908 110.736584 
z
M 222.372064 94.510584 
L 224.194116 94.510584 
L 228.512094 121.998985 
L 226.744471 121.998985 
L 225.539273 113.766236 
L 220.832521 113.766236 
L 219.544384 121.998985 
L 217.893392 121.998985 
L 222.372064 94.510584 
z
M 223.206631 94.510584 
L 223.206631 94.510584 
z
" style="fill:#008000;"/>
   </g>
   <g id="patch_49">
    <path clip-path="url(#pa7bc851e52)" d="M 223.369847 64.179736 
Q 225.007973 64.179736 226.20302 65.749331 
Q 227.934826 68.003269 228.322203 73.653809 
L 226.765098 73.653809 
Q 226.478995 70.495785 225.585242 69.051758 
Q 224.691488 67.607731 223.329337 67.607731 
Q 221.71653 67.607731 220.612631 70.615074 
Q 219.508731 73.616139 219.508731 79.561764 
Q 219.508731 84.697478 220.417676 87.924564 
Q 221.329153 91.151651 223.385039 91.151651 
Q 224.959868 91.151651 225.992874 88.891435 
Q 227.025881 86.62494 227.048668 81.558288 
L 223.410357 81.558288 
L 223.410357 78.324923 
L 228.512094 78.324923 
L 228.512094 93.744621 
L 227.499343 93.744621 
L 227.119561 90.0341 
Q 226.322019 92.212697 225.70424 93.060278 
Q 224.66617 94.510584 223.068554 94.510584 
Q 221.005072 94.510584 219.516327 91.1956 
Q 217.893392 87.033034 217.893392 79.775229 
Q 217.893392 72.536258 219.475817 68.260682 
Q 220.979753 64.179736 223.369847 64.179736 
z
M 223.109064 64.135787 
L 223.109064 64.135787 
z
" style="fill:#ffa600;"/>
   </g>
   <g id="patch_50">
    <path clip-path="url(#pa7bc851e52)" d="M 223.476556 28.8 
Q 225.750502 28.8 227.004823 32.161833 
Q 228.259144 35.516358 228.397354 39.784424 
L 226.817066 39.784424 
Q 226.548469 36.546832 225.745286 34.653974 
Q 224.942103 32.753808 223.492202 32.753808 
Q 221.724157 32.753808 220.636731 36.239882 
Q 219.549305 39.718649 219.549305 46.910048 
Q 219.549305 52.807872 220.529814 56.476655 
Q 221.51293 60.13813 223.460909 60.13813 
Q 225.252424 60.13813 226.191209 56.27933 
Q 226.686679 54.247614 226.931806 50.929631 
L 228.512094 50.929631 
Q 228.300868 56.228172 227.11174 59.816563 
Q 225.685308 64.135787 223.265329 64.135787 
Q 221.17914 64.135787 219.760531 60.591246 
Q 217.893392 55.913913 217.893392 46.135365 
Q 217.893392 38.717407 219.296354 33.966991 
Q 220.811449 28.8 223.476556 28.8 
z
M 223.150589 28.8 
L 223.150589 28.8 
z
" style="fill:#0000ff;"/>
   </g>
   <g id="patch_51">
    <path clip-path="url(#pa7bc851e52)" d="M 239.689676 124.95303 
L 239.689676 126.941218 
L 235.279707 126.941218 
L 235.279707 141.64 
L 233.480942 141.64 
L 233.480942 126.941218 
L 229.070973 126.941218 
L 229.070973 124.95303 
L 239.689676 124.95303 
z
" style="fill:#ff0000;"/>
   </g>
   <g id="patch_52">
    <path clip-path="url(#pa7bc851e52)" d="M 236.198489 113.441174 
L 234.391988 101.029668 
L 232.471446 113.441174 
L 236.198489 113.441174 
z
M 233.549645 96.855779 
L 235.371697 96.855779 
L 239.689676 124.95303 
L 237.922052 124.95303 
L 236.716854 116.537931 
L 232.010102 116.537931 
L 230.721965 124.95303 
L 229.070973 124.95303 
L 233.549645 96.855779 
z
M 234.384212 96.855779 
L 234.384212 96.855779 
z
" style="fill:#008000;"/>
   </g>
   <g id="patch_53">
    <path clip-path="url(#pa7bc851e52)" d="M 234.547429 63.07978 
Q 236.185554 63.07978 237.380602 64.827658 
Q 239.112407 67.337611 239.499785 73.629973 
L 237.942679 73.629973 
Q 237.656576 70.113242 236.762823 68.505194 
Q 235.86907 66.897146 234.506918 66.897146 
Q 232.894111 66.897146 231.790212 70.246081 
Q 230.686312 73.588024 230.686312 80.208987 
Q 230.686312 85.928045 231.595257 89.521682 
Q 232.506734 93.11532 234.56262 93.11532 
Q 236.137449 93.11532 237.170456 90.598375 
Q 238.203462 88.074439 238.226249 82.432288 
L 234.587939 82.432288 
L 234.587939 78.831659 
L 239.689676 78.831659 
L 239.689676 96.002815 
L 238.676924 96.002815 
L 238.297142 91.870831 
Q 237.4996 94.296886 236.881821 95.24074 
Q 235.843751 96.855779 234.246135 96.855779 
Q 232.182653 96.855779 230.693908 93.16426 
Q 229.070973 88.528887 229.070973 80.446698 
Q 229.070973 72.385484 230.653398 67.624263 
Q 232.157334 63.07978 234.547429 63.07978 
z
M 234.286645 63.030839 
L 234.286645 63.030839 
z
" style="fill:#ffa600;"/>
   </g>
   <g id="patch_54">
    <path clip-path="url(#pa7bc851e52)" d="M 234.654137 28.8 
Q 236.928083 28.8 238.182404 32.056709 
Q 239.436725 35.306337 239.574935 39.440941 
L 237.994647 39.440941 
Q 237.72605 36.304589 236.922867 34.470921 
Q 236.119685 32.630173 234.669783 32.630173 
Q 232.901738 32.630173 231.814312 36.007238 
Q 230.726886 39.377223 230.726886 46.343748 
Q 230.726886 52.057147 231.707395 55.611208 
Q 232.690511 59.158188 234.63849 59.158188 
Q 236.430005 59.158188 237.36879 55.420053 
Q 237.86426 53.451868 238.109387 50.237638 
L 239.689676 50.237638 
Q 239.478449 55.370494 238.289321 58.846677 
Q 236.862889 63.030839 234.44291 63.030839 
Q 232.356721 63.030839 230.938113 59.597136 
Q 229.070973 55.066063 229.070973 45.593289 
Q 229.070973 38.40729 230.473936 33.80542 
Q 231.98903 28.8 234.654137 28.8 
z
M 234.32817 28.8 
L 234.32817 28.8 
z
" style="fill:#0000ff;"/>
   </g>
   <g id="patch_55">
    <path clip-path="url(#pa7bc851e52)" d="M 250.867257 124.84028 
L 250.867257 126.841902 
L 246.457288 126.841902 
L 246.457288 141.64 
L 244.658523 141.64 
L 244.658523 126.841902 
L 240.248555 126.841902 
L 240.248555 124.84028 
L 250.867257 124.84028 
z
" style="fill:#ff0000;"/>
   </g>
   <g id="patch_56">
    <path clip-path="url(#pa7bc851e52)" d="M 247.37607 114.04907 
L 245.569569 102.414529 
L 243.649027 114.04907 
L 247.37607 114.04907 
z
M 244.727226 98.501926 
L 246.549278 98.501926 
L 250.867257 124.84028 
L 249.099633 124.84028 
L 247.894435 116.951969 
L 243.187683 116.951969 
L 241.899546 124.84028 
L 240.248555 124.84028 
L 244.727226 98.501926 
z
M 245.561793 98.501926 
L 245.561793 98.501926 
z
" style="fill:#008000;"/>
   </g>
   <g id="patch_57">
    <path clip-path="url(#pa7bc851e52)" d="M 245.831718 64.631886 
Q 248.105664 64.631886 249.359985 67.854269 
Q 250.614306 71.069646 250.752516 75.16067 
L 249.172228 75.16067 
Q 248.903631 72.057376 248.100448 70.243035 
Q 247.297266 68.421688 245.847364 68.421688 
Q 244.079319 68.421688 242.991893 71.763159 
Q 241.904467 75.097624 241.904467 81.99072 
Q 241.904467 87.643899 242.884976 91.160499 
Q 243.868093 94.670094 245.816071 94.670094 
Q 247.607586 94.670094 248.546371 90.971359 
Q 249.041841 89.023919 249.286968 85.843568 
L 250.867257 85.843568 
Q 250.65603 90.922323 249.466902 94.361866 
Q 248.040471 98.501926 245.620491 98.501926 
Q 243.534302 98.501926 242.115694 95.104415 
Q 240.248555 90.6211 240.248555 81.248171 
Q 240.248555 74.137914 241.651517 69.584548 
Q 243.166611 64.631886 245.831718 64.631886 
z
M 245.505751 64.631886 
L 245.505751 64.631886 
z
" style="fill:#0000ff;"/>
   </g>
   <g id="patch_58">
    <path clip-path="url(#pa7bc851e52)" d="M 245.72501 28.851844 
Q 247.363136 28.851844 248.558183 30.70343 
Q 250.289988 33.362307 250.677366 40.028016 
L 249.12026 40.028016 
Q 248.834158 36.302625 247.940404 34.599166 
Q 247.046651 32.895708 245.6845 32.895708 
Q 244.071692 32.895708 242.967793 36.443346 
Q 241.863894 39.983578 241.863894 46.997384 
Q 241.863894 53.055773 242.772838 56.862633 
Q 243.684315 60.669493 245.740201 60.669493 
Q 247.31503 60.669493 248.348037 58.00321 
Q 249.381043 55.32952 249.40383 49.352601 
L 245.76552 49.352601 
L 245.76552 45.538335 
L 250.867257 45.538335 
L 250.867257 63.728313 
L 249.854505 63.728313 
L 249.474723 59.351164 
Q 248.677181 61.921165 248.059402 62.921021 
Q 247.021332 64.631886 245.423716 64.631886 
Q 243.360234 64.631886 241.871489 60.721337 
Q 240.248555 55.810932 240.248555 47.2492 
Q 240.248555 38.709687 241.830979 33.665967 
Q 243.334916 28.851844 245.72501 28.851844 
z
M 245.464226 28.8 
L 245.464226 28.8 
z
" style="fill:#ffa600;"/>
   </g>
   <g id="patch_59">
    <path clip-path="url(#pa7bc851e52)" d="M 258.553651 133.195509 
L 256.74715 124.091082 
L 254.826609 133.195509 
L 258.553651 133.195509 
z
M 255.904807 121.029337 
L 257.726859 121.029337 
L 262.044838 141.64 
L 260.277214 141.64 
L 259.072016 135.467126 
L 254.365264 135.467126 
L 253.077127 141.64 
L 251.426136 141.64 
L 255.904807 121.029337 
z
M 256.739374 121.029337 
L 256.739374 121.029337 
z
" style="fill:#008000;"/>
   </g>
   <g id="patch_60">
    <path clip-path="url(#pa7bc851e52)" d="M 262.044838 96.65283 
L 262.044838 99.557197 
L 257.634869 99.557197 
L 257.634869 121.029337 
L 255.836104 121.029337 
L 255.836104 99.557197 
L 251.426136 99.557197 
L 251.426136 96.65283 
L 262.044838 96.65283 
z
" style="fill:#ff0000;"/>
   </g>
   <g id="patch_61">
    <path clip-path="url(#pa7bc851e52)" d="M 257.009299 67.405532 
Q 259.283245 67.405532 260.537566 70.188108 
Q 261.791887 72.964635 261.930097 76.497298 
L 260.349809 76.497298 
Q 260.081212 73.817556 259.27803 72.250844 
Q 258.474847 70.678083 257.024945 70.678083 
Q 255.2569 70.678083 254.169474 73.563494 
Q 253.082048 76.442856 253.082048 82.39515 
Q 253.082048 87.276757 254.062557 90.313395 
Q 255.045674 93.343983 256.993653 93.343983 
Q 258.785167 93.343983 259.723952 90.15007 
Q 260.219422 88.468426 260.46455 85.722144 
L 262.044838 85.722144 
Q 261.833611 90.107726 260.644483 93.077824 
Q 259.218052 96.65283 256.798072 96.65283 
Q 254.711883 96.65283 253.293275 93.719026 
Q 251.426136 89.847616 251.426136 81.753948 
Q 251.426136 75.614132 252.829098 71.682231 
Q 254.344193 67.405532 257.009299 67.405532 
z
M 256.683332 67.405532 
L 256.683332 67.405532 
z
" style="fill:#0000ff;"/>
   </g>
   <g id="patch_62">
    <path clip-path="url(#pa7bc851e52)" d="M 256.902591 28.855858 
Q 258.540717 28.855858 259.735764 30.850769 
Q 261.467569 33.715462 261.854947 40.897145 
L 260.297841 40.897145 
Q 260.011739 36.883382 259.117985 35.048064 
Q 258.224232 33.212745 256.862081 33.212745 
Q 255.249274 33.212745 254.145374 37.034996 
Q 253.041475 40.849267 253.041475 48.405992 
Q 253.041475 54.933344 253.950419 59.034882 
Q 254.861896 63.13642 256.917782 63.13642 
Q 258.492611 63.13642 259.525618 60.263748 
Q 260.558625 57.383095 260.581411 50.94352 
L 256.943101 50.94352 
L 256.943101 46.834002 
L 262.044838 46.834002 
L 262.044838 66.432015 
L 261.032086 66.432015 
L 260.652304 61.716043 
Q 259.854762 64.484981 259.236984 65.562233 
Q 258.198913 67.405532 256.601297 67.405532 
Q 254.537815 67.405532 253.04907 63.192278 
Q 251.426136 57.901772 251.426136 48.6773 
Q 251.426136 39.476768 253.00856 34.042628 
Q 254.512497 28.855858 256.902591 28.855858 
z
M 256.641807 28.8 
L 256.641807 28.8 
z
" style="fill:#ffa600;"/>
   </g>
   <g id="patch_63">
    <path clip-path="url(#pa7bc851e52)" d="M 268.18688 118.075292 
Q 270.460826 118.075292 271.715147 120.317229 
Q 272.969468 122.554292 273.107678 125.400577 
L 271.52739 125.400577 
Q 271.258793 123.241495 270.455611 121.979187 
Q 269.652428 120.712005 268.202527 120.712005 
Q 266.434481 120.712005 265.347055 123.036796 
Q 264.259629 125.356714 264.259629 130.152509 
Q 264.259629 134.085647 265.240138 136.532282 
Q 266.223255 138.974044 268.171234 138.974044 
Q 269.962749 138.974044 270.901534 136.400691 
Q 271.397003 135.045781 271.642131 132.833086 
L 273.222419 132.833086 
Q 273.011192 136.366574 271.822065 138.759598 
Q 270.395633 141.64 267.975654 141.64 
Q 265.889465 141.64 264.470856 139.276219 
Q 262.603717 136.157002 262.603717 129.635889 
Q 262.603717 124.689006 264.006679 121.521052 
Q 265.521774 118.075292 268.18688 118.075292 
z
M 267.860913 118.075292 
L 267.860913 118.075292 
z
" style="fill:#0000ff;"/>
   </g>
   <g id="patch_64">
    <path clip-path="url(#pa7bc851e52)" d="M 273.222419 94.014484 
L 273.222419 96.881237 
L 268.812451 96.881237 
L 268.812451 118.075292 
L 267.013685 118.075292 
L 267.013685 96.881237 
L 262.603717 96.881237 
L 262.603717 94.014484 
L 273.222419 94.014484 
z
" style="fill:#ff0000;"/>
   </g>
   <g id="patch_65">
    <path clip-path="url(#pa7bc851e52)" d="M 269.731232 83.195558 
L 267.924731 71.531133 
L 266.00419 83.195558 
L 269.731232 83.195558 
z
M 267.082388 67.608481 
L 268.90444 67.608481 
L 273.222419 94.014484 
L 271.454795 94.014484 
L 270.249597 86.105912 
L 265.542845 86.105912 
L 264.254709 94.014484 
L 262.603717 94.014484 
L 267.082388 67.608481 
z
M 267.916956 67.608481 
L 267.916956 67.608481 
z
" style="fill:#008000;"/>
   </g>
   <g id="patch_66">
    <path clip-path="url(#pa7bc851e52)" d="M 268.080172 28.856151 
Q 269.718298 28.856151 270.913345 30.86155 
Q 272.64515 33.741303 273.032528 40.960739 
L 271.475422 40.960739 
Q 271.18932 36.925877 270.295566 35.08091 
Q 269.401813 33.235943 268.039662 33.235943 
Q 266.426855 33.235943 265.322955 37.078287 
Q 264.219056 40.91261 264.219056 48.509061 
Q 264.219056 55.070727 265.128001 59.193827 
Q 266.039477 63.316927 268.095363 63.316927 
Q 269.670192 63.316927 270.703199 60.429153 
Q 271.736206 57.533357 271.758993 51.059929 
L 268.120682 51.059929 
L 268.120682 46.928807 
L 273.222419 46.928807 
L 273.222419 66.629847 
L 272.209667 66.629847 
L 271.829885 61.889083 
Q 271.032343 64.672577 270.414565 65.755493 
Q 269.376494 67.608481 267.778878 67.608481 
Q 265.715397 67.608481 264.226651 63.373079 
Q 262.603717 58.05476 262.603717 48.781796 
Q 262.603717 39.532895 264.186141 34.070189 
Q 265.690078 28.856151 268.080172 28.856151 
z
M 267.819388 28.8 
L 267.819388 28.8 
z
" style="fill:#ffa600;"/>
   </g>
   <g id="patch_67">
    <path clip-path="url(#pa7bc851e52)" d="M 284.4 132.169017 
L 284.4 133.297448 
L 279.990032 133.297448 
L 279.990032 141.64 
L 278.191266 141.64 
L 278.191266 133.297448 
L 273.781298 133.297448 
L 273.781298 132.169017 
L 284.4 132.169017 
z
" style="fill:#ff0000;"/>
   </g>
   <g id="patch_68">
    <path clip-path="url(#pa7bc851e52)" d="M 279.364461 110.408305 
Q 281.638407 110.408305 282.892728 112.478611 
Q 284.14705 114.544416 284.28526 117.172804 
L 282.704971 117.172804 
Q 282.436375 115.179009 281.633192 114.013337 
Q 280.830009 112.843165 279.380108 112.843165 
Q 277.612063 112.843165 276.524636 114.989982 
Q 275.43721 117.132298 275.43721 121.560951 
Q 275.43721 125.192987 276.417719 127.452321 
Q 277.400836 129.707153 279.348815 129.707153 
Q 281.14033 129.707153 282.079115 127.330803 
Q 282.574585 126.079618 282.819712 124.036317 
L 284.4 124.036317 
Q 284.188773 127.299298 282.999646 129.509124 
Q 281.573214 132.169017 279.153235 132.169017 
Q 277.067046 132.169017 275.648437 129.986195 
Q 273.781298 127.10577 273.781298 121.083881 
Q 273.781298 116.515707 275.18426 113.590275 
Q 276.699355 110.408305 279.364461 110.408305 
z
M 279.038494 110.408305 
L 279.038494 110.408305 
z
" style="fill:#0000ff;"/>
   </g>
   <g id="patch_69">
    <path clip-path="url(#pa7bc851e52)" d="M 279.257753 83.049746 
Q 280.895879 83.049746 282.090926 84.465527 
Q 283.822732 86.498589 284.210109 91.595402 
L 282.653003 91.595402 
Q 282.366901 88.74685 281.473147 87.444331 
Q 280.579394 86.141812 279.217243 86.141812 
Q 277.604436 86.141812 276.500536 88.854449 
Q 275.396637 91.561424 275.396637 96.924403 
Q 275.396637 101.55684 276.305582 104.467687 
Q 277.217058 107.378533 279.272944 107.378533 
Q 280.847773 107.378533 281.88078 105.339808 
Q 282.913787 103.29542 282.936574 98.725277 
L 279.298263 98.725277 
L 279.298263 95.808768 
L 284.4 95.808768 
L 284.4 109.717404 
L 283.387248 109.717404 
L 283.007466 106.370497 
Q 282.209924 108.335601 281.592146 109.100123 
Q 280.554075 110.408305 278.956459 110.408305 
Q 276.892978 110.408305 275.404233 107.418175 
Q 273.781298 103.663523 273.781298 97.11695 
Q 273.781298 90.587366 275.363723 86.730777 
Q 276.867659 83.049746 279.257753 83.049746 
z
M 278.996969 83.010104 
L 278.996969 83.010104 
z
" style="fill:#ffa600;"/>
   </g>
   <g id="patch_70">
    <path clip-path="url(#pa7bc851e52)" d="M 280.908813 60.79943 
L 279.102312 36.852993 
L 277.181771 60.79943 
L 280.908813 60.79943 
z
M 278.259969 28.8 
L 280.082022 28.8 
L 284.4 83.010104 
L 282.632376 83.010104 
L 281.427178 66.774231 
L 276.720426 66.774231 
L 275.43229 83.010104 
L 273.781298 83.010104 
L 278.259969 28.8 
z
M 279.094537 28.8 
L 279.094537 28.8 
z
" style="fill:#008000;"/>
   </g>
   <g id="matplotlib.axis_1">
    <g id="xtick_1">
     <g id="line2d_2">
      <path clip-path="url(#pa7bc851e52)" d="M 100.249351 141.64 
L 100.249351 28.8 
" style="fill:none;stroke:#cccccc;stroke-linecap:round;stroke-width:0.8;"/>
     </g>
     <g id="text_1">
      <!-- 0 -->
      <g style="fill:#262626;" transform="translate(94.688414 162.986875)scale(0.2 -0.2)">
       <defs>
        <path d="M 1731 4475 
Q 2600 4475 2988 3759 
Q 3288 3206 3288 2244 
Q 3288 1331 3016 734 
Q 2622 -122 1728 -122 
Q 922 -122 528 578 
Q 200 1163 200 2147 
Q 200 2909 397 3456 
Q 766 4475 1731 4475 
z
M 1725 391 
Q 2163 391 2422 778 
Q 2681 1166 2681 2222 
Q 2681 2984 2493 3476 
Q 2306 3969 1766 3969 
Q 1269 3969 1039 3501 
Q 809 3034 809 2125 
Q 809 1441 956 1025 
Q 1181 391 1725 391 
z
" id="Helvetica-30" transform="scale(0.015625)"/>
       </defs>
       <use xlink:href="#Helvetica-30"/>
      </g>
     </g>
    </g>
    <g id="xtick_2">
     <g id="line2d_3">
      <path clip-path="url(#pa7bc851e52)" d="M 212.025162 141.64 
L 212.025162 28.8 
" style="fill:none;stroke:#cccccc;stroke-linecap:round;stroke-width:0.8;"/>
     </g>
     <g id="text_2">
      <!-- 10 -->
      <g style="fill:#262626;" transform="translate(200.903287 162.986875)scale(0.2 -0.2)">
       <defs>
        <path d="M 613 3169 
L 613 3600 
Q 1222 3659 1462 3798 
Q 1703 3938 1822 4456 
L 2266 4456 
L 2266 0 
L 1666 0 
L 1666 3169 
L 613 3169 
z
" id="Helvetica-31" transform="scale(0.015625)"/>
       </defs>
       <use xlink:href="#Helvetica-31"/>
       <use x="55.615234" xlink:href="#Helvetica-30"/>
      </g>
     </g>
    </g>
    <g id="text_3">
     <!-- Position -->
     <g style="fill:#262626;" transform="translate(145.20125 189.089219)scale(0.25 -0.25)">
      <defs>
       <path d="M 547 4591 
L 2613 4591 
Q 3225 4591 3600 4245 
Q 3975 3900 3975 3275 
Q 3975 2738 3640 2339 
Q 3306 1941 2613 1941 
L 1169 1941 
L 1169 0 
L 547 0 
L 547 4591 
z
M 3347 3272 
Q 3347 3778 2972 3959 
Q 2766 4056 2406 4056 
L 1169 4056 
L 1169 2466 
L 2406 2466 
Q 2825 2466 3086 2644 
Q 3347 2822 3347 3272 
z
" id="Helvetica-50" transform="scale(0.015625)"/>
       <path d="M 1741 363 
Q 2300 363 2508 786 
Q 2716 1209 2716 1728 
Q 2716 2197 2566 2491 
Q 2328 2953 1747 2953 
Q 1231 2953 997 2559 
Q 763 2166 763 1609 
Q 763 1075 997 719 
Q 1231 363 1741 363 
z
M 1763 3444 
Q 2409 3444 2856 3012 
Q 3303 2581 3303 1744 
Q 3303 934 2909 406 
Q 2516 -122 1688 -122 
Q 997 -122 590 345 
Q 184 813 184 1600 
Q 184 2444 612 2944 
Q 1041 3444 1763 3444 
z
M 1744 3428 
L 1744 3428 
z
" id="Helvetica-6f" transform="scale(0.015625)"/>
       <path d="M 747 1050 
Q 772 769 888 619 
Q 1100 347 1625 347 
Q 1938 347 2175 483 
Q 2413 619 2413 903 
Q 2413 1119 2222 1231 
Q 2100 1300 1741 1391 
L 1294 1503 
Q 866 1609 663 1741 
Q 300 1969 300 2372 
Q 300 2847 642 3140 
Q 984 3434 1563 3434 
Q 2319 3434 2653 2991 
Q 2863 2709 2856 2384 
L 2325 2384 
Q 2309 2575 2191 2731 
Q 1997 2953 1519 2953 
Q 1200 2953 1036 2831 
Q 872 2709 872 2509 
Q 872 2291 1088 2159 
Q 1213 2081 1456 2022 
L 1828 1931 
Q 2434 1784 2641 1647 
Q 2969 1431 2969 969 
Q 2969 522 2630 197 
Q 2291 -128 1597 -128 
Q 850 -128 539 211 
Q 228 550 206 1050 
L 747 1050 
z
M 1578 3428 
L 1578 3428 
z
" id="Helvetica-73" transform="scale(0.015625)"/>
       <path d="M 413 3331 
L 984 3331 
L 984 0 
L 413 0 
L 413 3331 
z
M 413 4591 
L 984 4591 
L 984 3953 
L 413 3953 
L 413 4591 
z
" id="Helvetica-69" transform="scale(0.015625)"/>
       <path d="M 525 4281 
L 1094 4281 
L 1094 3347 
L 1628 3347 
L 1628 2888 
L 1094 2888 
L 1094 703 
Q 1094 528 1213 469 
Q 1278 434 1431 434 
Q 1472 434 1519 436 
Q 1566 438 1628 444 
L 1628 0 
Q 1531 -28 1426 -40 
Q 1322 -53 1200 -53 
Q 806 -53 665 148 
Q 525 350 525 672 
L 525 2888 
L 72 2888 
L 72 3347 
L 525 3347 
L 525 4281 
z
" id="Helvetica-74" transform="scale(0.015625)"/>
       <path d="M 413 3347 
L 947 3347 
L 947 2872 
Q 1184 3166 1450 3294 
Q 1716 3422 2041 3422 
Q 2753 3422 3003 2925 
Q 3141 2653 3141 2147 
L 3141 0 
L 2569 0 
L 2569 2109 
Q 2569 2416 2478 2603 
Q 2328 2916 1934 2916 
Q 1734 2916 1606 2875 
Q 1375 2806 1200 2600 
Q 1059 2434 1017 2257 
Q 975 2081 975 1753 
L 975 0 
L 413 0 
L 413 3347 
z
M 1734 3428 
L 1734 3428 
z
" id="Helvetica-6e" transform="scale(0.015625)"/>
      </defs>
      <use xlink:href="#Helvetica-50"/>
      <use x="66.699219" xlink:href="#Helvetica-6f"/>
      <use x="122.314453" xlink:href="#Helvetica-73"/>
      <use x="172.314453" xlink:href="#Helvetica-69"/>
      <use x="194.53125" xlink:href="#Helvetica-74"/>
      <use x="222.314453" xlink:href="#Helvetica-69"/>
      <use x="244.53125" xlink:href="#Helvetica-6f"/>
      <use x="300.146484" xlink:href="#Helvetica-6e"/>
     </g>
    </g>
   </g>
   <g id="matplotlib.axis_2">
    <g id="ytick_1">
     <g id="line2d_4">
      <path clip-path="url(#pa7bc851e52)" d="M 94.94 141.64 
L 284.4 141.64 
" style="fill:none;stroke:#cccccc;stroke-linecap:round;stroke-width:0.8;"/>
     </g>
     <g id="text_4">
      <!-- 0 -->
      <g style="fill:#262626;" transform="translate(76.818125 148.813438)scale(0.2 -0.2)">
       <use xlink:href="#Helvetica-30"/>
      </g>
     </g>
    </g>
    <g id="ytick_2">
     <g id="line2d_5">
      <path clip-path="url(#pa7bc851e52)" d="M 94.94 113.43 
L 284.4 113.43 
" style="fill:none;stroke:#cccccc;stroke-linecap:round;stroke-width:0.8;"/>
     </g>
     <g id="text_5">
      <!-- 0.25 -->
      <g style="fill:#262626;" transform="translate(49.018125 120.603437)scale(0.2 -0.2)">
       <defs>
        <path d="M 547 681 
L 1200 681 
L 1200 0 
L 547 0 
L 547 681 
z
" id="Helvetica-2e" transform="scale(0.015625)"/>
        <path d="M 200 0 
Q 231 578 439 1006 
Q 647 1434 1250 1784 
L 1850 2131 
Q 2253 2366 2416 2531 
Q 2672 2791 2672 3125 
Q 2672 3516 2437 3745 
Q 2203 3975 1813 3975 
Q 1234 3975 1013 3538 
Q 894 3303 881 2888 
L 309 2888 
Q 319 3472 525 3841 
Q 891 4491 1816 4491 
Q 2584 4491 2939 4075 
Q 3294 3659 3294 3150 
Q 3294 2613 2916 2231 
Q 2697 2009 2131 1694 
L 1703 1456 
Q 1397 1288 1222 1134 
Q 909 863 828 531 
L 3272 531 
L 3272 0 
L 200 0 
z
" id="Helvetica-32" transform="scale(0.015625)"/>
        <path d="M 791 1141 
Q 847 659 1238 475 
Q 1438 381 1700 381 
Q 2200 381 2440 700 
Q 2681 1019 2681 1406 
Q 2681 1875 2395 2131 
Q 2109 2388 1709 2388 
Q 1419 2388 1211 2275 
Q 1003 2163 856 1963 
L 369 1991 
L 709 4400 
L 3034 4400 
L 3034 3856 
L 1131 3856 
L 941 2613 
Q 1097 2731 1238 2791 
Q 1488 2894 1816 2894 
Q 2431 2894 2859 2497 
Q 3288 2100 3288 1491 
Q 3288 856 2895 371 
Q 2503 -113 1644 -113 
Q 1097 -113 676 195 
Q 256 503 206 1141 
L 791 1141 
z
" id="Helvetica-35" transform="scale(0.015625)"/>
       </defs>
       <use xlink:href="#Helvetica-30"/>
       <use x="55.615234" xlink:href="#Helvetica-2e"/>
       <use x="83.398438" xlink:href="#Helvetica-32"/>
       <use x="139.013672" xlink:href="#Helvetica-35"/>
      </g>
     </g>
    </g>
    <g id="ytick_3">
     <g id="line2d_6">
      <path clip-path="url(#pa7bc851e52)" d="M 94.94 85.22 
L 284.4 85.22 
" style="fill:none;stroke:#cccccc;stroke-linecap:round;stroke-width:0.8;"/>
     </g>
     <g id="text_6">
      <!-- 0.50 -->
      <g style="fill:#262626;" transform="translate(49.018125 92.393438)scale(0.2 -0.2)">
       <use xlink:href="#Helvetica-30"/>
       <use x="55.615234" xlink:href="#Helvetica-2e"/>
       <use x="83.398438" xlink:href="#Helvetica-35"/>
       <use x="139.013672" xlink:href="#Helvetica-30"/>
      </g>
     </g>
    </g>
    <g id="ytick_4">
     <g id="line2d_7">
      <path clip-path="url(#pa7bc851e52)" d="M 94.94 57.01 
L 284.4 57.01 
" style="fill:none;stroke:#cccccc;stroke-linecap:round;stroke-width:0.8;"/>
     </g>
     <g id="text_7">
      <!-- 0.75 -->
      <g style="fill:#262626;" transform="translate(49.018125 64.183437)scale(0.2 -0.2)">
       <defs>
        <path d="M 3347 4400 
L 3347 3909 
Q 3131 3700 2773 3181 
Q 2416 2663 2141 2063 
Q 1869 1478 1728 997 
Q 1638 688 1494 0 
L 872 0 
Q 1084 1281 1809 2550 
Q 2238 3294 2709 3834 
L 234 3834 
L 234 4400 
L 3347 4400 
z
" id="Helvetica-37" transform="scale(0.015625)"/>
       </defs>
       <use xlink:href="#Helvetica-30"/>
       <use x="55.615234" xlink:href="#Helvetica-2e"/>
       <use x="83.398438" xlink:href="#Helvetica-37"/>
       <use x="139.013672" xlink:href="#Helvetica-35"/>
      </g>
     </g>
    </g>
    <g id="ytick_5">
     <g id="line2d_8">
      <path clip-path="url(#pa7bc851e52)" d="M 94.94 28.8 
L 284.4 28.8 
" style="fill:none;stroke:#cccccc;stroke-linecap:round;stroke-width:0.8;"/>
     </g>
     <g id="text_8">
      <!-- 1.0 -->
      <g style="fill:#262626;" transform="translate(60.14 35.973437)scale(0.2 -0.2)">
       <use xlink:href="#Helvetica-31"/>
       <use x="55.615234" xlink:href="#Helvetica-2e"/>
       <use x="83.398438" xlink:href="#Helvetica-30"/>
      </g>
     </g>
    </g>
    <g id="text_9">
     <!-- Probability -->
     <g style="fill:#262626;" transform="translate(39.65875 143.579375)rotate(-90)scale(0.25 -0.25)">
      <defs>
       <path d="M 428 3347 
L 963 3347 
L 963 2769 
Q 1028 2938 1284 3180 
Q 1541 3422 1875 3422 
Q 1891 3422 1928 3419 
Q 1966 3416 2056 3406 
L 2056 2813 
Q 2006 2822 1964 2825 
Q 1922 2828 1872 2828 
Q 1447 2828 1219 2554 
Q 991 2281 991 1925 
L 991 0 
L 428 0 
L 428 3347 
z
" id="Helvetica-72" transform="scale(0.015625)"/>
       <path d="M 369 4606 
L 916 4606 
L 916 2941 
Q 1100 3181 1356 3307 
Q 1613 3434 1913 3434 
Q 2538 3434 2927 3004 
Q 3316 2575 3316 1738 
Q 3316 944 2931 419 
Q 2547 -106 1866 -106 
Q 1484 -106 1222 78 
Q 1066 188 888 428 
L 888 0 
L 369 0 
L 369 4606 
z
M 1831 391 
Q 2288 391 2514 753 
Q 2741 1116 2741 1709 
Q 2741 2238 2514 2584 
Q 2288 2931 1847 2931 
Q 1463 2931 1173 2647 
Q 884 2363 884 1709 
Q 884 1238 1003 944 
Q 1225 391 1831 391 
z
" id="Helvetica-62" transform="scale(0.015625)"/>
       <path d="M 844 891 
Q 844 647 1022 506 
Q 1200 366 1444 366 
Q 1741 366 2019 503 
Q 2488 731 2488 1250 
L 2488 1703 
Q 2384 1638 2221 1594 
Q 2059 1550 1903 1531 
L 1563 1488 
Q 1256 1447 1103 1359 
Q 844 1213 844 891 
z
M 2206 2028 
Q 2400 2053 2466 2191 
Q 2503 2266 2503 2406 
Q 2503 2694 2298 2823 
Q 2094 2953 1713 2953 
Q 1272 2953 1088 2716 
Q 984 2584 953 2325 
L 428 2325 
Q 444 2944 830 3186 
Q 1216 3428 1725 3428 
Q 2316 3428 2684 3203 
Q 3050 2978 3050 2503 
L 3050 575 
Q 3050 488 3086 434 
Q 3122 381 3238 381 
Q 3275 381 3322 386 
Q 3369 391 3422 400 
L 3422 -16 
Q 3291 -53 3222 -62 
Q 3153 -72 3034 -72 
Q 2744 -72 2613 134 
Q 2544 244 2516 444 
Q 2344 219 2022 53 
Q 1700 -113 1313 -113 
Q 847 -113 551 170 
Q 256 453 256 878 
Q 256 1344 547 1600 
Q 838 1856 1309 1916 
L 2206 2028 
z
M 1741 3428 
L 1741 3428 
z
" id="Helvetica-61" transform="scale(0.015625)"/>
       <path d="M 428 4591 
L 991 4591 
L 991 0 
L 428 0 
L 428 4591 
z
" id="Helvetica-6c" transform="scale(0.015625)"/>
       <path d="M 2503 3347 
L 3125 3347 
Q 3006 3025 2597 1878 
Q 2291 1016 2084 472 
Q 1597 -809 1397 -1090 
Q 1197 -1372 709 -1372 
Q 591 -1372 527 -1362 
Q 463 -1353 369 -1328 
L 369 -816 
Q 516 -856 581 -865 
Q 647 -875 697 -875 
Q 853 -875 926 -823 
Q 1000 -772 1050 -697 
Q 1066 -672 1162 -440 
Q 1259 -209 1303 -97 
L 66 3347 
L 703 3347 
L 1600 622 
L 2503 3347 
z
M 1597 3428 
L 1597 3428 
z
" id="Helvetica-79" transform="scale(0.015625)"/>
      </defs>
      <use xlink:href="#Helvetica-50"/>
      <use x="66.699219" xlink:href="#Helvetica-72"/>
      <use x="100" xlink:href="#Helvetica-6f"/>
      <use x="155.615234" xlink:href="#Helvetica-62"/>
      <use x="211.230469" xlink:href="#Helvetica-61"/>
      <use x="266.845703" xlink:href="#Helvetica-62"/>
      <use x="322.460938" xlink:href="#Helvetica-69"/>
      <use x="344.677734" xlink:href="#Helvetica-6c"/>
      <use x="366.894531" xlink:href="#Helvetica-69"/>
      <use x="389.111328" xlink:href="#Helvetica-74"/>
      <use x="416.894531" xlink:href="#Helvetica-79"/>
     </g>
    </g>
   </g>
   <g id="patch_71">
    <path d="M 94.94 141.64 
L 94.94 28.8 
" style="fill:none;stroke:#000000;stroke-linecap:square;stroke-linejoin:miter;"/>
   </g>
  </g>
 </g>
 <defs>
  <clipPath id="pa7bc851e52">
   <rect height="112.84" width="189.46" x="94.94" y="28.8"/>
  </clipPath>
 </defs>
</svg>
