<?xml version="1.0" encoding="utf-8" standalone="no"?>
<!DOCTYPE svg PUBLIC "-//W3C//DTD SVG 1.1//EN"
  "http://www.w3.org/Graphics/SVG/1.1/DTD/svg11.dtd">
<svg height="216pt" version="1.1" viewBox="0 0 306 216" width="306pt" xmlns="http://www.w3.org/2000/svg" xmlns:xlink="http://www.w3.org/1999/xlink">
 <metadata>
  <rdf:RDF xmlns:cc="http://creativecommons.org/ns#" xmlns:dc="http://purl.org/dc/elements/1.1/" xmlns:rdf="http://www.w3.org/1999/02/22-rdf-syntax-ns#">
   <cc:Work>
    <dc:type rdf:resource="http://purl.org/dc/dcmitype/StillImage"/>
    <dc:date>2022-03-14T21:41:52.101065</dc:date>
    <dc:format>image/svg+xml</dc:format>
    <dc:creator>
     <cc:Agent>
      <dc:title>Matplotlib v3.4.2, https://matplotlib.org/</dc:title>
     </cc:Agent>
    </dc:creator>
   </cc:Work>
  </rdf:RDF>
 </metadata>
 <defs>
  <style type="text/css">*{stroke-linecap:butt;stroke-linejoin:round;}</style>
 </defs>
 <g id="figure_1">
  <g id="patch_1">
   <path d="M 0 216 
L 306 216 
L 306 0 
L 0 0 
z
" style="fill:#ffffff;"/>
  </g>
  <g id="axes_1">
   <g id="patch_2">
    <path d="M 94.94 141.64 
L 284.4 141.64 
L 284.4 28.8 
L 94.94 28.8 
z
" style="fill:#ffffff;"/>
   </g>
   <g id="line2d_1">
    <path clip-path="url(#p2d11dd3846)" d="M 94.94 141.64 
L 284.4 141.64 
" style="fill:none;stroke:#000000;stroke-linecap:round;stroke-width:0.5;"/>
   </g>
   <g id="patch_3">
    <path clip-path="url(#p2d11dd3846)" d="M 105.558702 138.077106 
L 105.558702 138.501611 
L 101.148734 138.501611 
L 101.148734 141.64 
L 99.349968 141.64 
L 99.349968 138.501611 
L 94.94 138.501611 
L 94.94 138.077106 
L 105.558702 138.077106 
z
" style="fill:#ff0000;"/>
   </g>
   <g id="patch_4">
    <path clip-path="url(#p2d11dd3846)" d="M 100.416455 113.330557 
Q 102.054581 113.330557 103.249628 114.61117 
Q 104.981434 116.450129 105.368811 121.060332 
L 103.811705 121.060332 
Q 103.525603 118.483741 102.63185 117.305577 
Q 101.738096 116.127414 100.375945 116.127414 
Q 98.763138 116.127414 97.659238 118.581067 
Q 96.555339 121.029598 96.555339 125.880556 
Q 96.555339 130.070719 97.464284 132.703658 
Q 98.37576 135.336596 100.431646 135.336596 
Q 102.006475 135.336596 103.039482 133.492515 
Q 104.072489 131.643311 104.095276 127.509495 
L 100.456965 127.509495 
L 100.456965 124.871434 
L 105.558702 124.871434 
L 105.558702 137.452168 
L 104.54595 137.452168 
L 104.166168 134.424801 
Q 103.368626 136.20229 102.750848 136.893821 
Q 101.712777 138.077106 100.115161 138.077106 
Q 98.05168 138.077106 96.562935 135.372453 
Q 94.94 131.97627 94.94 126.05472 
Q 94.94 120.148536 96.522425 116.660149 
Q 98.026361 113.330557 100.416455 113.330557 
z
M 100.155671 113.2947 
L 100.155671 113.2947 
z
" style="fill:#ffa600;"/>
   </g>
   <g id="patch_5">
    <path clip-path="url(#p2d11dd3846)" d="M 100.523163 79.85311 
Q 102.797109 79.85311 104.051431 83.034729 
Q 105.305752 86.209433 105.443962 90.248706 
L 103.863673 90.248706 
Q 103.595077 87.184668 102.791894 85.393278 
Q 101.988711 83.594971 100.53881 83.594971 
Q 98.770765 83.594971 97.683339 86.894172 
Q 96.595913 90.186457 96.595913 96.992357 
Q 96.595913 102.574025 97.576421 106.04614 
Q 98.559538 109.511339 100.507517 109.511339 
Q 102.299032 109.511339 103.237817 105.859393 
Q 103.733287 103.936588 103.978414 100.796468 
L 105.558702 100.796468 
Q 105.347475 105.810977 104.158348 109.20701 
Q 102.731916 113.2947 100.311937 113.2947 
Q 98.225748 113.2947 96.807139 109.940166 
Q 94.94 105.513565 94.94 96.259201 
Q 94.94 89.238888 96.342962 84.743121 
Q 97.858057 79.85311 100.523163 79.85311 
z
M 100.197196 79.85311 
L 100.197196 79.85311 
z
" style="fill:#0000ff;"/>
   </g>
   <g id="patch_6">
    <path clip-path="url(#p2d11dd3846)" d="M 102.067515 58.935902 
L 100.261014 36.384017 
L 98.340473 58.935902 
L 102.067515 58.935902 
z
M 99.418672 28.8 
L 101.240724 28.8 
L 105.558702 79.85311 
L 103.791078 79.85311 
L 102.58588 64.562753 
L 97.879128 64.562753 
L 96.590992 79.85311 
L 94.94 79.85311 
L 99.418672 28.8 
z
M 100.253239 28.8 
L 100.253239 28.8 
z
" style="fill:#008000;"/>
   </g>
   <g id="patch_7">
    <path clip-path="url(#p2d11dd3846)" d="M 111.700744 131.357218 
Q 113.97469 131.357218 115.229012 132.335518 
Q 116.483333 133.311691 116.621543 134.553707 
L 115.041255 134.553707 
Q 114.772658 133.611561 113.969475 133.060736 
Q 113.166292 132.507784 111.716391 132.507784 
Q 109.948346 132.507784 108.86092 133.522238 
Q 107.773494 134.534566 107.773494 136.627277 
Q 107.773494 138.343555 108.754002 139.411178 
Q 109.737119 140.476674 111.685098 140.476674 
Q 113.476613 140.476674 114.415398 139.353756 
Q 114.910868 138.762522 115.155995 137.796983 
L 116.736283 137.796983 
Q 116.525057 139.338869 115.335929 140.383097 
Q 113.909497 141.64 111.489518 141.64 
Q 109.403329 141.64 107.98472 140.608532 
Q 106.117581 139.247419 106.117581 136.401843 
Q 106.117581 134.243203 107.520543 132.860823 
Q 109.035638 131.357218 111.700744 131.357218 
z
M 111.374777 131.357218 
L 111.374777 131.357218 
z
" style="fill:#0000ff;"/>
   </g>
   <g id="patch_8">
    <path clip-path="url(#p2d11dd3846)" d="M 111.594036 104.313901 
Q 113.232162 104.313901 114.427209 105.713369 
Q 116.159015 107.723005 116.546392 112.761089 
L 114.989286 112.761089 
Q 114.703184 109.94536 113.809431 108.65785 
Q 112.915677 107.370339 111.553526 107.370339 
Q 109.940719 107.370339 108.83682 110.05172 
Q 107.73292 112.727502 107.73292 118.028686 
Q 107.73292 122.607745 108.641865 125.485051 
Q 109.553341 128.362357 111.609227 128.362357 
Q 113.184056 128.362357 114.217063 126.347123 
Q 115.25007 124.326292 115.272857 119.808809 
L 111.634546 119.808809 
L 111.634546 116.925906 
L 116.736283 116.925906 
L 116.736283 130.674278 
L 115.723531 130.674278 
L 115.34375 127.365936 
Q 114.546208 129.308397 113.928429 130.06411 
Q 112.890358 131.357218 111.292743 131.357218 
Q 109.229261 131.357218 107.740516 128.401542 
Q 106.117581 124.690153 106.117581 118.219014 
Q 106.117581 111.764668 107.700006 107.952518 
Q 109.203942 104.313901 111.594036 104.313901 
z
M 111.333253 104.274716 
L 111.333253 104.274716 
z
" style="fill:#ffa600;"/>
   </g>
   <g id="patch_9">
    <path clip-path="url(#p2d11dd3846)" d="M 116.736283 71.216475 
L 116.736283 75.155237 
L 112.326315 75.155237 
L 112.326315 104.274716 
L 110.527549 104.274716 
L 110.527549 75.155237 
L 106.117581 75.155237 
L 106.117581 71.216475 
L 116.736283 71.216475 
z
" style="fill:#ff0000;"/>
   </g>
   <g id="patch_10">
    <path clip-path="url(#p2d11dd3846)" d="M 113.245097 53.837823 
L 111.438595 35.101032 
L 109.518054 53.837823 
L 113.245097 53.837823 
z
M 110.596253 28.8 
L 112.418305 28.8 
L 116.736283 71.216475 
L 114.968659 71.216475 
L 113.763461 58.512782 
L 109.056709 58.512782 
L 107.768573 71.216475 
L 106.117581 71.216475 
L 110.596253 28.8 
z
M 111.43082 28.8 
L 111.43082 28.8 
z
" style="fill:#008000;"/>
   </g>
   <g id="patch_11">
    <path clip-path="url(#p2d11dd3846)" d="M 122.878326 131.289568 
Q 125.152272 131.289568 126.406593 132.274304 
Q 127.660914 133.2569 127.799124 134.507086 
L 126.218836 134.507086 
Q 125.950239 133.558743 125.147056 133.004293 
Q 124.343873 132.447704 122.893972 132.447704 
Q 121.125927 132.447704 120.038501 133.468832 
Q 118.951075 134.48782 118.951075 136.594298 
Q 118.951075 138.321868 119.931584 139.396515 
Q 120.9147 140.46902 122.862679 140.46902 
Q 124.654194 140.46902 125.592979 139.338715 
Q 126.088449 138.743592 126.333576 137.7717 
L 127.913864 137.7717 
Q 127.702638 139.32373 126.51351 140.374828 
Q 125.087078 141.64 122.667099 141.64 
Q 120.58091 141.64 119.162301 140.601746 
Q 117.295162 139.231678 117.295162 136.367381 
Q 117.295162 134.19454 118.698124 132.803065 
Q 120.213219 131.289568 122.878326 131.289568 
z
M 122.552359 131.289568 
L 122.552359 131.289568 
z
" style="fill:#0000ff;"/>
   </g>
   <g id="patch_12">
    <path clip-path="url(#p2d11dd3846)" d="M 122.771617 105.056875 
Q 124.409743 105.056875 125.60479 106.414394 
Q 127.336596 108.363791 127.723973 113.250859 
L 126.166868 113.250859 
Q 125.880765 110.519531 124.987012 109.270614 
Q 124.093258 108.021696 122.731107 108.021696 
Q 121.1183 108.021696 120.014401 110.622702 
Q 118.910501 113.218278 118.910501 118.360559 
Q 118.910501 122.802361 119.819446 125.59342 
Q 120.730923 128.384478 122.786809 128.384478 
Q 124.361638 128.384478 125.394644 126.429651 
Q 126.427651 124.469394 126.450438 120.087323 
L 122.812127 120.087323 
L 122.812127 117.290835 
L 127.913864 117.290835 
L 127.913864 130.627099 
L 126.901113 130.627099 
L 126.521331 127.417925 
Q 125.723789 129.302161 125.10601 130.035221 
Q 124.06794 131.289568 122.470324 131.289568 
Q 120.406842 131.289568 118.918097 128.422489 
Q 117.295162 124.822349 117.295162 118.545182 
Q 117.295162 112.284305 118.877587 108.586424 
Q 120.381523 105.056875 122.771617 105.056875 
z
M 122.510834 105.018865 
L 122.510834 105.018865 
z
" style="fill:#ffa600;"/>
   </g>
   <g id="patch_13">
    <path clip-path="url(#p2d11dd3846)" d="M 127.913864 74.689169 
L 127.913864 78.302835 
L 123.503896 78.302835 
L 123.503896 105.018865 
L 121.705131 105.018865 
L 121.705131 78.302835 
L 117.295162 78.302835 
L 117.295162 74.689169 
L 127.913864 74.689169 
z
" style="fill:#ff0000;"/>
   </g>
   <g id="patch_14">
    <path clip-path="url(#p2d11dd3846)" d="M 124.422678 55.887704 
L 122.616176 35.616905 
L 120.695635 55.887704 
L 124.422678 55.887704 
z
M 121.773834 28.8 
L 123.595886 28.8 
L 127.913864 74.689169 
L 126.14624 74.689169 
L 124.941042 60.945408 
L 120.23429 60.945408 
L 118.946154 74.689169 
L 117.295162 74.689169 
L 121.773834 28.8 
z
M 122.608401 28.8 
L 122.608401 28.8 
z
" style="fill:#008000;"/>
   </g>
   <g id="patch_15">
    <path clip-path="url(#p2d11dd3846)" d="M 134.055907 141.324301 
Q 136.329853 141.324301 137.584174 141.354336 
Q 138.838495 141.384306 138.976705 141.422438 
L 137.396417 141.422438 
Q 137.12782 141.393513 136.324637 141.376602 
Q 135.521454 141.359625 134.071553 141.359625 
Q 132.303508 141.359625 131.216082 141.39077 
Q 130.128656 141.421851 130.128656 141.486101 
Q 130.128656 141.538793 131.109165 141.571571 
Q 132.092281 141.604284 134.04026 141.604284 
Q 135.831775 141.604284 136.77056 141.569808 
Q 137.26603 141.551656 137.511157 141.522013 
L 139.091445 141.522013 
Q 138.880219 141.569351 137.691091 141.601411 
Q 136.264659 141.64 133.84468 141.64 
Q 131.758491 141.64 130.339883 141.608332 
Q 128.472743 141.566544 128.472743 141.479179 
Q 128.472743 141.412905 129.875705 141.370464 
Q 131.3908 141.324301 134.055907 141.324301 
z
M 133.72994 141.324301 
L 133.72994 141.324301 
z
" style="fill:#0000ff;"/>
   </g>
   <g id="patch_16">
    <path clip-path="url(#p2d11dd3846)" d="M 139.091445 137.761407 
L 139.091445 138.185912 
L 134.681477 138.185912 
L 134.681477 141.324301 
L 132.882712 141.324301 
L 132.882712 138.185912 
L 128.472743 138.185912 
L 128.472743 137.761407 
L 139.091445 137.761407 
z
" style="fill:#ff0000;"/>
   </g>
   <g id="patch_17">
    <path clip-path="url(#p2d11dd3846)" d="M 133.949198 97.410346 
Q 135.587324 97.410346 136.782371 99.498478 
Q 138.514177 102.497035 138.901554 110.01431 
L 137.344449 110.01431 
Q 137.058346 105.812989 136.164593 103.891908 
Q 135.270839 101.970826 133.908688 101.970826 
Q 132.295881 101.970826 131.191982 105.971687 
Q 130.088082 109.964195 130.088082 117.874039 
Q 130.088082 124.706406 130.997027 128.999605 
Q 131.908504 133.292805 133.96439 133.292805 
Q 135.539219 133.292805 136.572225 130.285895 
Q 137.605232 127.270632 137.628019 120.530143 
L 133.989709 120.530143 
L 133.989709 116.228591 
L 139.091445 116.228591 
L 139.091445 136.742399 
L 138.078694 136.742399 
L 137.698912 131.806055 
Q 136.90137 134.704382 136.283591 135.831973 
Q 135.245521 137.761407 133.647905 137.761407 
Q 131.584423 137.761407 130.095678 133.351272 
Q 128.472743 127.813547 128.472743 118.158025 
Q 128.472743 108.52756 130.055168 102.839489 
Q 131.559104 97.410346 133.949198 97.410346 
z
M 133.688415 97.351878 
L 133.688415 97.351878 
z
" style="fill:#ffa600;"/>
   </g>
   <g id="patch_18">
    <path clip-path="url(#p2d11dd3846)" d="M 135.600259 69.265169 
L 133.793758 38.983485 
L 131.873216 69.265169 
L 135.600259 69.265169 
z
M 132.951415 28.8 
L 134.773467 28.8 
L 139.091445 97.351878 
L 137.323822 97.351878 
L 136.118624 76.820658 
L 131.411872 76.820658 
L 130.123735 97.351878 
L 128.472743 97.351878 
L 132.951415 28.8 
z
M 133.785982 28.8 
L 133.785982 28.8 
z
" style="fill:#008000;"/>
   </g>
   <g id="patch_19">
    <path clip-path="url(#p2d11dd3846)" d="M 150.269027 141.324301 
L 150.269027 141.361915 
L 145.859058 141.361915 
L 145.859058 141.64 
L 144.060293 141.64 
L 144.060293 141.361915 
L 139.650324 141.361915 
L 139.650324 141.324301 
L 150.269027 141.324301 
z
" style="fill:#ff0000;"/>
   </g>
   <g id="patch_20">
    <path clip-path="url(#p2d11dd3846)" d="M 145.233488 138.392806 
Q 147.507434 138.392806 148.761755 138.671707 
Q 150.016076 138.950002 150.154286 139.304085 
L 148.573998 139.304085 
Q 148.305401 139.035491 147.502218 138.878458 
Q 146.699036 138.720818 145.249134 138.720818 
Q 143.481089 138.720818 142.393663 139.010026 
Q 141.306237 139.298629 141.306237 139.895235 
Q 141.306237 140.384525 142.286746 140.688891 
Q 143.269862 140.992651 145.217841 140.992651 
Q 147.009356 140.992651 147.948141 140.67252 
Q 148.443611 140.503967 148.688738 140.228704 
L 150.269027 140.228704 
Q 150.0578 140.668276 148.868672 140.965973 
Q 147.44224 141.324301 145.022261 141.324301 
Q 142.936072 141.324301 141.517464 141.030242 
Q 139.650324 140.642205 139.650324 139.830966 
Q 139.650324 139.215564 141.053287 138.821465 
Q 142.568381 138.392806 145.233488 138.392806 
z
M 144.907521 138.392806 
L 144.907521 138.392806 
z
" style="fill:#0000ff;"/>
   </g>
   <g id="patch_21">
    <path clip-path="url(#p2d11dd3846)" d="M 146.77784 136.397171 
L 144.971339 134.245578 
L 143.050797 136.397171 
L 146.77784 136.397171 
z
M 144.128996 133.522014 
L 145.951048 133.522014 
L 150.269027 138.392806 
L 148.501403 138.392806 
L 147.296205 136.934009 
L 142.589453 136.934009 
L 141.301316 138.392806 
L 139.650324 138.392806 
L 144.128996 133.522014 
z
M 144.963563 133.522014 
L 144.963563 133.522014 
z
" style="fill:#008000;"/>
   </g>
   <g id="patch_22">
    <path clip-path="url(#p2d11dd3846)" d="M 145.12678 28.95152 
Q 146.764906 28.95152 147.959953 34.362951 
Q 149.691758 42.133766 150.079136 61.614918 
L 148.52203 61.614918 
Q 148.235927 50.727119 147.342174 45.748602 
Q 146.448421 40.770086 145.086269 40.770086 
Q 143.473462 40.770086 142.369563 51.138388 
Q 141.265664 61.485044 141.265664 81.983545 
Q 141.265664 99.689747 142.174608 110.81565 
Q 143.086085 121.941552 145.141971 121.941552 
Q 146.7168 121.941552 147.749807 114.149091 
Q 148.782813 106.334985 148.8056 88.866885 
L 145.16729 88.866885 
L 145.16729 77.719337 
L 150.269027 77.719337 
L 150.269027 130.881236 
L 149.256275 130.881236 
L 148.876493 118.088613 
Q 148.078951 125.599679 147.461172 128.521852 
Q 146.423102 133.522014 144.825486 133.522014 
Q 142.762004 133.522014 141.273259 122.093072 
Q 139.650324 107.741957 139.650324 82.719499 
Q 139.650324 57.761979 141.232749 43.021241 
Q 142.736685 28.95152 145.12678 28.95152 
z
M 144.865996 28.8 
L 144.865996 28.8 
z
" style="fill:#ffa600;"/>
   </g>
   <g id="patch_23">
    <path clip-path="url(#p2d11dd3846)" d="M 161.446608 124.47948 
L 161.446608 126.52409 
L 157.036639 126.52409 
L 157.036639 141.64 
L 155.237874 141.64 
L 155.237874 126.52409 
L 150.827906 126.52409 
L 150.827906 124.47948 
L 161.446608 124.47948 
z
" style="fill:#ff0000;"/>
   </g>
   <g id="patch_24">
    <path clip-path="url(#p2d11dd3846)" d="M 156.304361 95.882468 
Q 157.942487 95.882468 159.137534 97.362338 
Q 160.869339 99.487431 161.256717 104.814964 
L 159.699611 104.814964 
Q 159.413509 101.837465 158.519755 100.475985 
Q 157.626002 99.114504 156.263851 99.114504 
Q 154.651043 99.114504 153.547144 101.949936 
Q 152.443245 104.779448 152.443245 110.385196 
Q 152.443245 115.227332 153.352189 118.269945 
Q 154.263666 121.312558 156.319552 121.312558 
Q 157.894381 121.312558 158.927388 119.181545 
Q 159.960394 117.044612 159.983181 112.267591 
L 156.344871 112.267591 
L 156.344871 109.219058 
L 161.446608 109.219058 
L 161.446608 123.757304 
L 160.433856 123.757304 
L 160.054074 120.25889 
Q 159.256532 122.31295 158.638753 123.11208 
Q 157.600683 124.47948 156.003067 124.47948 
Q 153.939585 124.47948 152.45084 121.353994 
Q 150.827906 117.429379 150.827906 110.586458 
Q 150.827906 103.761297 152.41033 99.73013 
Q 153.914267 95.882468 156.304361 95.882468 
z
M 156.043577 95.841031 
L 156.043577 95.841031 
z
" style="fill:#ffa600;"/>
   </g>
   <g id="patch_25">
    <path clip-path="url(#p2d11dd3846)" d="M 156.411069 66.548633 
Q 158.685015 66.548633 159.939336 69.3355 
Q 161.193657 72.116309 161.331867 75.654419 
L 159.751579 75.654419 
Q 159.482982 72.970545 158.679799 71.401417 
Q 157.876617 69.826231 156.426715 69.826231 
Q 154.65867 69.826231 153.571244 72.716091 
Q 152.483818 75.599893 152.483818 81.561366 
Q 152.483818 86.4505 153.464327 89.491821 
Q 154.447444 92.527083 156.395423 92.527083 
Q 158.186937 92.527083 159.125722 89.328244 
Q 159.621192 87.644006 159.866319 84.89349 
L 161.446608 84.89349 
Q 161.235381 89.285835 160.046253 92.260513 
Q 158.619822 95.841031 156.199842 95.841031 
Q 154.113653 95.841031 152.695045 92.902704 
Q 150.827906 89.025323 150.827906 80.919175 
Q 150.827906 74.769891 152.230868 70.831927 
Q 153.745962 66.548633 156.411069 66.548633 
z
M 156.085102 66.548633 
L 156.085102 66.548633 
z
" style="fill:#0000ff;"/>
   </g>
   <g id="patch_26">
    <path clip-path="url(#p2d11dd3846)" d="M 157.955421 51.082465 
L 156.14892 34.407617 
L 154.228378 51.082465 
L 157.955421 51.082465 
z
M 155.306577 28.8 
L 157.128629 28.8 
L 161.446608 66.548633 
L 159.678984 66.548633 
L 158.473786 55.242954 
L 153.767034 55.242954 
L 152.478897 66.548633 
L 150.827906 66.548633 
L 155.306577 28.8 
z
M 156.141144 28.8 
L 156.141144 28.8 
z
" style="fill:#008000;"/>
   </g>
   <g id="patch_27">
    <path clip-path="url(#p2d11dd3846)" d="M 167.58865 141.57235 
Q 169.862596 141.57235 171.116917 141.578786 
Q 172.371238 141.585208 172.509448 141.59338 
L 170.92916 141.59338 
Q 170.660563 141.587181 169.857381 141.583557 
Q 169.054198 141.57992 167.604296 141.57992 
Q 165.836251 141.57992 164.748825 141.586594 
Q 163.661399 141.593254 163.661399 141.607022 
Q 163.661399 141.618313 164.641908 141.625337 
Q 165.625025 141.632347 167.573004 141.632347 
Q 169.364518 141.632347 170.303304 141.624959 
Q 170.798773 141.621069 171.043901 141.614717 
L 172.624189 141.614717 
Q 172.412962 141.624861 171.223834 141.631731 
Q 169.797403 141.64 167.377423 141.64 
Q 165.291234 141.64 163.872626 141.633214 
Q 162.005487 141.624259 162.005487 141.605538 
Q 162.005487 141.591337 163.408449 141.582242 
Q 164.923544 141.57235 167.58865 141.57235 
z
M 167.262683 141.57235 
L 167.262683 141.57235 
z
" style="fill:#0000ff;"/>
   </g>
   <g id="patch_28">
    <path clip-path="url(#p2d11dd3846)" d="M 172.624189 141.39195 
L 172.624189 141.413444 
L 168.21422 141.413444 
L 168.21422 141.57235 
L 166.415455 141.57235 
L 166.415455 141.413444 
L 162.005487 141.413444 
L 162.005487 141.39195 
L 172.624189 141.39195 
z
" style="fill:#ff0000;"/>
   </g>
   <g id="patch_29">
    <path clip-path="url(#p2d11dd3846)" d="M 169.133002 136.522972 
L 167.326501 131.273482 
L 165.40596 136.522972 
L 169.133002 136.522972 
z
M 166.484158 129.508122 
L 168.30621 129.508122 
L 172.624189 141.39195 
L 170.856565 141.39195 
L 169.651367 137.832755 
L 164.944615 137.832755 
L 163.656478 141.39195 
L 162.005487 141.39195 
L 166.484158 129.508122 
z
M 167.318725 129.508122 
L 167.318725 129.508122 
z
" style="fill:#008000;"/>
   </g>
   <g id="patch_30">
    <path clip-path="url(#p2d11dd3846)" d="M 167.481942 28.945712 
Q 169.120068 28.945712 170.315115 34.149729 
Q 172.04692 41.622696 172.434298 60.357154 
L 170.877192 60.357154 
Q 170.59109 49.886674 169.697336 45.098979 
Q 168.803583 40.311284 167.441432 40.311284 
Q 165.828625 40.311284 164.724725 50.282179 
Q 163.620826 60.232258 163.620826 79.945071 
Q 163.620826 96.972612 164.52977 107.67207 
Q 165.441247 118.371527 167.497133 118.371527 
Q 169.071962 118.371527 170.104969 110.877744 
Q 171.137976 103.363144 171.160763 86.56458 
L 167.522452 86.56458 
L 167.522452 75.844306 
L 172.624189 75.844306 
L 172.624189 126.968562 
L 171.611437 126.968562 
L 171.231655 114.666267 
Q 170.434113 121.889442 169.816335 124.699611 
Q 168.778264 129.508122 167.180648 129.508122 
Q 165.117166 129.508122 163.628421 118.517239 
Q 162.005487 104.716188 162.005487 80.652817 
Q 162.005487 56.651895 163.587911 42.476155 
Q 165.091848 28.945712 167.481942 28.945712 
z
M 167.221158 28.8 
L 167.221158 28.8 
z
" style="fill:#ffa600;"/>
   </g>
   <g id="patch_31">
    <path clip-path="url(#p2d11dd3846)" d="M 178.766231 141.5949 
Q 181.040177 141.5949 182.294498 141.599191 
Q 183.548819 141.603472 183.68703 141.60892 
L 182.106741 141.60892 
Q 181.838145 141.604788 181.034962 141.602372 
Q 180.231779 141.599946 178.781878 141.599946 
Q 177.013832 141.599946 175.926406 141.604396 
Q 174.83898 141.608836 174.83898 141.618014 
Q 174.83898 141.625542 175.819489 141.630224 
Q 176.802606 141.634898 178.750585 141.634898 
Q 180.5421 141.634898 181.480885 141.629973 
Q 181.976355 141.627379 182.221482 141.623145 
L 183.80177 141.623145 
Q 183.590543 141.629907 182.401416 141.634487 
Q 180.974984 141.64 178.555005 141.64 
Q 176.468816 141.64 175.050207 141.635476 
Q 173.183068 141.629506 173.183068 141.617026 
Q 173.183068 141.607558 174.58603 141.601495 
Q 176.101125 141.5949 178.766231 141.5949 
z
M 178.440264 141.5949 
L 178.440264 141.5949 
z
" style="fill:#0000ff;"/>
   </g>
   <g id="patch_32">
    <path clip-path="url(#p2d11dd3846)" d="M 183.80177 127.636475 
L 183.80177 129.299568 
L 179.391802 129.299568 
L 179.391802 141.5949 
L 177.593036 141.5949 
L 177.593036 129.299568 
L 173.183068 129.299568 
L 173.183068 127.636475 
L 183.80177 127.636475 
z
" style="fill:#ff0000;"/>
   </g>
   <g id="patch_33">
    <path clip-path="url(#p2d11dd3846)" d="M 180.310583 109.435548 
L 178.504082 89.81222 
L 176.583541 109.435548 
L 180.310583 109.435548 
z
M 177.661739 83.213054 
L 179.483791 83.213054 
L 183.80177 127.636475 
L 182.034146 127.636475 
L 180.828948 114.331704 
L 176.122196 114.331704 
L 174.83406 127.636475 
L 173.183068 127.636475 
L 177.661739 83.213054 
z
M 178.496307 83.213054 
L 178.496307 83.213054 
z
" style="fill:#008000;"/>
   </g>
   <g id="patch_34">
    <path clip-path="url(#p2d11dd3846)" d="M 178.659523 28.878729 
Q 180.297649 28.878729 181.492696 31.690483 
Q 183.224501 35.728161 183.611879 45.850473 
L 182.054773 45.850473 
Q 181.768671 40.193225 180.874917 37.606412 
Q 179.981164 35.019599 178.619013 35.019599 
Q 177.006206 35.019599 175.902306 40.406918 
Q 174.798407 45.782991 174.798407 56.433913 
Q 174.798407 65.633971 175.707352 71.414936 
Q 176.618828 77.195901 178.674714 77.195901 
Q 180.249543 77.195901 181.28255 73.146976 
Q 182.315557 69.086804 182.338344 60.010464 
L 178.700033 60.010464 
L 178.700033 54.218252 
L 183.80177 54.218252 
L 183.80177 81.840918 
L 182.789018 81.840918 
L 182.409236 75.193933 
Q 181.611694 79.096646 180.993916 80.614993 
Q 179.955845 83.213054 178.358229 83.213054 
Q 176.294748 83.213054 174.806003 77.27463 
Q 173.183068 69.81786 173.183068 56.816312 
Q 173.183068 43.848505 174.765492 36.189288 
Q 176.269429 28.878729 178.659523 28.878729 
z
M 178.398739 28.8 
L 178.398739 28.8 
z
" style="fill:#ffa600;"/>
   </g>
   <g id="patch_35">
    <path clip-path="url(#p2d11dd3846)" d="M 194.979351 141.43705 
L 194.979351 141.461231 
L 190.569383 141.461231 
L 190.569383 141.64 
L 188.770617 141.64 
L 188.770617 141.461231 
L 184.360649 141.461231 
L 184.360649 141.43705 
L 194.979351 141.43705 
z
" style="fill:#ff0000;"/>
   </g>
   <g id="patch_36">
    <path clip-path="url(#p2d11dd3846)" d="M 189.943812 141.211551 
Q 192.217758 141.211551 193.472079 141.233005 
Q 194.726401 141.254412 194.864611 141.281649 
L 193.284322 141.281649 
Q 193.015726 141.260988 192.212543 141.248909 
Q 191.40936 141.236782 189.959459 141.236782 
Q 188.191414 141.236782 187.103988 141.259029 
Q 186.016561 141.281229 186.016561 141.327122 
Q 186.016561 141.36476 186.99707 141.388173 
Q 187.980187 141.411539 189.928166 141.411539 
Q 191.719681 141.411539 192.658466 141.386913 
Q 193.153936 141.373948 193.399063 141.352774 
L 194.979351 141.352774 
Q 194.768124 141.386587 193.578997 141.409487 
Q 192.152565 141.43705 189.732586 141.43705 
Q 187.646397 141.43705 186.227788 141.41443 
Q 184.360649 141.384581 184.360649 141.322178 
Q 184.360649 141.27484 185.763611 141.244525 
Q 187.278706 141.211551 189.943812 141.211551 
z
M 189.617845 141.211551 
L 189.617845 141.211551 
z
" style="fill:#0000ff;"/>
   </g>
   <g id="patch_37">
    <path clip-path="url(#p2d11dd3846)" d="M 191.488164 133.958897 
L 189.681663 126.139449 
L 187.761122 133.958897 
L 191.488164 133.958897 
z
M 188.83932 123.509832 
L 190.661373 123.509832 
L 194.979351 141.211551 
L 193.211727 141.211551 
L 192.006529 135.909903 
L 187.299777 135.909903 
L 186.011641 141.211551 
L 184.360649 141.211551 
L 188.83932 123.509832 
z
M 189.673888 123.509832 
L 189.673888 123.509832 
z
" style="fill:#008000;"/>
   </g>
   <g id="patch_38">
    <path clip-path="url(#p2d11dd3846)" d="M 189.837104 28.937034 
Q 191.47523 28.937034 192.670277 33.831093 
Q 194.402083 40.858962 194.78946 58.477575 
L 193.232354 58.477575 
Q 192.946252 48.630728 192.052498 44.128193 
Q 191.158745 39.625659 189.796594 39.625659 
Q 188.183787 39.625659 187.079887 49.002676 
Q 185.975988 58.360117 185.975988 76.898813 
Q 185.975988 92.912175 186.884933 102.97436 
Q 187.796409 113.036546 189.852295 113.036546 
Q 191.427124 113.036546 192.460131 105.9891 
Q 193.493138 98.922079 193.515925 83.124056 
L 189.877614 83.124056 
L 189.877614 73.042294 
L 194.979351 73.042294 
L 194.979351 121.121531 
L 193.966599 121.121531 
L 193.586817 109.551976 
Q 192.789275 116.34493 192.171497 118.987722 
Q 191.133426 123.509832 189.53581 123.509832 
Q 187.472329 123.509832 185.983584 113.173579 
Q 184.360649 100.194534 184.360649 77.564405 
Q 184.360649 54.993004 185.943074 41.661587 
Q 187.44701 28.937034 189.837104 28.937034 
z
M 189.57632 28.8 
L 189.57632 28.8 
z
" style="fill:#ffa600;"/>
   </g>
   <g id="patch_39">
    <path clip-path="url(#p2d11dd3846)" d="M 206.156932 138.189856 
L 206.156932 138.600927 
L 201.746964 138.600927 
L 201.746964 141.64 
L 199.948198 141.64 
L 199.948198 138.600927 
L 195.53823 138.600927 
L 195.53823 138.189856 
L 206.156932 138.189856 
z
" style="fill:#ff0000;"/>
   </g>
   <g id="patch_40">
    <path clip-path="url(#p2d11dd3846)" d="M 201.121393 127.952174 
Q 203.395339 127.952174 204.649661 128.926183 
Q 205.903982 129.898075 206.042192 131.134643 
L 204.461904 131.134643 
Q 204.193307 130.19663 203.390124 129.64822 
Q 202.586941 129.097694 201.13704 129.097694 
Q 199.368995 129.097694 198.281569 130.107699 
Q 197.194143 131.115586 197.194143 133.199119 
Q 197.194143 134.907869 198.174651 135.970809 
Q 199.157768 137.031632 201.105747 137.031632 
Q 202.897262 137.031632 203.836047 135.913639 
Q 204.331517 135.324999 204.576644 134.363695 
L 206.156932 134.363695 
Q 205.945706 135.898817 204.756578 136.938466 
Q 203.330146 138.189856 200.910167 138.189856 
Q 198.823978 138.189856 197.405369 137.162912 
Q 195.53823 135.807769 195.53823 132.974673 
Q 195.53823 130.825501 196.941192 129.449184 
Q 198.456287 127.952174 201.121393 127.952174 
z
M 200.795426 127.952174 
L 200.795426 127.952174 
z
" style="fill:#0000ff;"/>
   </g>
   <g id="patch_41">
    <path clip-path="url(#p2d11dd3846)" d="M 202.665746 123.563626 
L 200.859244 118.832113 
L 198.938703 123.563626 
L 202.665746 123.563626 
z
M 200.016902 117.240943 
L 201.838954 117.240943 
L 206.156932 127.952174 
L 204.389308 127.952174 
L 203.18411 124.744171 
L 198.477358 124.744171 
L 197.189222 127.952174 
L 195.53823 127.952174 
L 200.016902 117.240943 
z
M 200.851469 117.240943 
L 200.851469 117.240943 
z
" style="fill:#008000;"/>
   </g>
   <g id="patch_42">
    <path clip-path="url(#p2d11dd3846)" d="M 201.014685 28.927963 
Q 202.652811 28.927963 203.847858 33.498082 
Q 205.579664 40.060773 205.967041 56.513202 
L 204.409935 56.513202 
Q 204.123833 47.318122 203.23008 43.113613 
Q 202.336326 38.909103 200.974175 38.909103 
Q 199.361368 38.909103 198.257469 47.665451 
Q 197.153569 56.403519 197.153569 73.71513 
Q 197.153569 88.668559 198.062514 98.064724 
Q 198.97399 107.460889 201.029876 107.460889 
Q 202.604705 107.460889 203.637712 100.879917 
Q 204.670719 94.280665 204.693506 79.528321 
L 201.055195 79.528321 
L 201.055195 70.113876 
L 206.156932 70.113876 
L 206.156932 115.010725 
L 205.14418 115.010725 
L 204.764399 104.206964 
Q 203.966857 110.550289 203.349078 113.018153 
Q 202.311007 117.240943 200.713392 117.240943 
Q 198.64991 117.240943 197.161165 107.588852 
Q 195.53823 95.468896 195.53823 74.336666 
Q 195.53823 53.259277 197.120655 40.810273 
Q 198.624591 28.927963 201.014685 28.927963 
z
M 200.753902 28.8 
L 200.753902 28.8 
z
" style="fill:#ffa600;"/>
   </g>
   <g id="patch_43">
    <path clip-path="url(#p2d11dd3846)" d="M 217.334513 138.054556 
L 217.334513 138.481748 
L 212.924545 138.481748 
L 212.924545 141.64 
L 211.12578 141.64 
L 211.12578 138.481748 
L 206.715811 138.481748 
L 206.715811 138.054556 
L 217.334513 138.054556 
z
" style="fill:#ff0000;"/>
   </g>
   <g id="patch_44">
    <path clip-path="url(#p2d11dd3846)" d="M 212.298975 124.84028 
Q 214.572921 124.84028 215.827242 126.097481 
Q 217.081563 127.351949 217.219773 128.948048 
L 215.639485 128.948048 
Q 215.370888 127.737308 214.567705 127.029449 
Q 213.764522 126.318858 212.314621 126.318858 
Q 210.546576 126.318858 209.45915 127.62252 
Q 208.371724 128.92345 208.371724 131.612767 
Q 208.371724 133.818335 209.352233 135.190324 
Q 210.335349 136.55958 212.283328 136.55958 
Q 214.074843 136.55958 215.013628 135.116532 
Q 215.509098 134.356745 215.754225 133.115943 
L 217.334513 133.115943 
Q 217.123287 135.097401 215.934159 136.439326 
Q 214.507727 138.054556 212.087748 138.054556 
Q 210.001559 138.054556 208.58295 136.729029 
Q 206.715811 134.97988 206.715811 131.323064 
Q 206.715811 128.549023 208.118773 126.772543 
Q 209.633868 124.84028 212.298975 124.84028 
z
M 211.973008 124.84028 
L 211.973008 124.84028 
z
" style="fill:#0000ff;"/>
   </g>
   <g id="patch_45">
    <path clip-path="url(#p2d11dd3846)" d="M 212.192266 88.69996 
Q 213.830392 88.69996 215.025439 90.57019 
Q 216.757245 93.25584 217.144622 99.988667 
L 215.587517 99.988667 
Q 215.301414 96.225765 214.407661 94.505153 
Q 213.513907 92.784542 212.151756 92.784542 
Q 210.538949 92.784542 209.43505 96.367902 
Q 208.33115 99.943782 208.33115 107.028212 
Q 208.33115 113.147603 209.240095 116.992796 
Q 210.151572 120.837988 212.207458 120.837988 
Q 213.782287 120.837988 214.815293 118.144857 
Q 215.8483 115.444246 215.871087 109.407144 
L 212.232776 109.407144 
L 212.232776 105.554471 
L 217.334513 105.554471 
L 217.334513 123.927608 
L 216.321762 123.927608 
L 215.94198 119.506385 
Q 215.144438 122.102263 214.526659 123.112188 
Q 213.488589 124.84028 211.890973 124.84028 
Q 209.827491 124.84028 208.338746 120.890355 
Q 206.715811 115.930505 206.715811 107.282563 
Q 206.715811 98.657063 208.298236 93.562558 
Q 209.802172 88.69996 212.192266 88.69996 
z
M 211.931483 88.647594 
L 211.931483 88.647594 
z
" style="fill:#ffa600;"/>
   </g>
   <g id="patch_46">
    <path clip-path="url(#p2d11dd3846)" d="M 213.843327 64.127157 
L 212.036825 37.690451 
L 210.116284 64.127157 
L 213.843327 64.127157 
z
M 211.194483 28.8 
L 213.016535 28.8 
L 217.334513 88.647594 
L 215.566889 88.647594 
L 214.361691 70.723298 
L 209.654939 70.723298 
L 208.366803 88.647594 
L 206.715811 88.647594 
L 211.194483 28.8 
z
M 212.02905 28.8 
L 212.02905 28.8 
z
" style="fill:#008000;"/>
   </g>
   <g id="patch_47">
    <path clip-path="url(#p2d11dd3846)" d="M 228.512094 141.121351 
L 228.512094 141.183146 
L 224.102126 141.183146 
L 224.102126 141.64 
L 222.303361 141.64 
L 222.303361 141.183146 
L 217.893392 141.183146 
L 217.893392 141.121351 
L 228.512094 141.121351 
z
" style="fill:#ff0000;"/>
   </g>
   <g id="patch_48">
    <path clip-path="url(#p2d11dd3846)" d="M 223.476556 135.93486 
Q 225.750502 135.93486 227.004823 136.428301 
Q 228.259144 136.920669 228.397354 137.547124 
L 226.817066 137.547124 
Q 226.548469 137.071919 225.745286 136.794091 
Q 224.942103 136.515189 223.492202 136.515189 
Q 221.724157 136.515189 220.636731 137.026866 
Q 219.549305 137.53747 219.549305 138.593004 
Q 219.549305 139.45867 220.529814 139.997164 
Q 221.51293 140.534586 223.460909 140.534586 
Q 225.252424 140.534586 226.191209 139.968201 
Q 226.686679 139.669992 226.931806 139.182987 
L 228.512094 139.182987 
Q 228.300868 139.960693 227.11174 140.487387 
Q 225.685308 141.121351 223.265329 141.121351 
Q 221.17914 141.121351 219.760531 140.601093 
Q 217.893392 139.914567 217.893392 138.479298 
Q 217.893392 137.39051 219.296354 136.693257 
Q 220.811449 135.93486 223.476556 135.93486 
z
M 223.150589 135.93486 
L 223.150589 135.93486 
z
" style="fill:#0000ff;"/>
   </g>
   <g id="patch_49">
    <path clip-path="url(#p2d11dd3846)" d="M 225.020908 125.023543 
L 223.214407 113.259507 
L 221.293865 125.023543 
L 225.020908 125.023543 
z
M 222.372064 109.303357 
L 224.194116 109.303357 
L 228.512094 135.93486 
L 226.744471 135.93486 
L 225.539273 127.958751 
L 220.832521 127.958751 
L 219.544384 135.93486 
L 217.893392 135.93486 
L 222.372064 109.303357 
z
M 223.206631 109.303357 
L 223.206631 109.303357 
z
" style="fill:#008000;"/>
   </g>
   <g id="patch_50">
    <path clip-path="url(#p2d11dd3846)" d="M 223.369847 28.916479 
Q 225.007973 28.916479 226.20302 33.076429 
Q 227.934826 39.050117 228.322203 54.025938 
L 226.765098 54.025938 
Q 226.478995 45.656118 225.585242 41.828964 
Q 224.691488 38.00181 223.329337 38.00181 
Q 221.71653 38.00181 220.612631 45.972275 
Q 219.508731 53.9261 219.508731 69.683991 
Q 219.508731 83.295348 220.417676 91.848206 
Q 221.329153 100.401064 223.385039 100.401064 
Q 224.959868 100.401064 225.992874 94.410735 
Q 227.025881 88.403767 227.048668 74.975448 
L 223.410357 74.975448 
L 223.410357 66.40595 
L 228.512094 66.40595 
L 228.512094 107.273302 
L 227.499343 107.273302 
L 227.119561 97.439179 
Q 226.322019 103.21319 225.70424 105.459563 
Q 224.66617 109.303357 223.068554 109.303357 
Q 221.005072 109.303357 219.516327 100.517542 
Q 217.893392 89.485354 217.893392 70.249744 
Q 217.893392 51.064054 219.475817 39.732349 
Q 220.979753 28.916479 223.369847 28.916479 
z
M 223.109064 28.8 
L 223.109064 28.8 
z
" style="fill:#ffa600;"/>
   </g>
   <g id="patch_51">
    <path clip-path="url(#p2d11dd3846)" d="M 234.654137 141.143901 
Q 236.928083 141.143901 238.182404 141.1911 
Q 239.436725 141.238196 239.574935 141.298117 
L 237.994647 141.298117 
Q 237.72605 141.252663 236.922867 141.226088 
Q 236.119685 141.199411 234.669783 141.199411 
Q 232.901738 141.199411 231.814312 141.248354 
Q 230.726886 141.297194 230.726886 141.398158 
Q 230.726886 141.480961 231.707395 141.532469 
Q 232.690511 141.583875 234.63849 141.583875 
Q 236.430005 141.583875 237.36879 141.529699 
Q 237.86426 141.501174 238.109387 141.454591 
L 239.689676 141.454591 
Q 239.478449 141.528981 238.289321 141.57936 
Q 236.862889 141.64 234.44291 141.64 
Q 232.356721 141.64 230.938113 141.590236 
Q 229.070973 141.524568 229.070973 141.387282 
Q 229.070973 141.283137 230.473936 141.216443 
Q 231.98903 141.143901 234.654137 141.143901 
z
M 234.32817 141.143901 
L 234.32817 141.143901 
z
" style="fill:#0000ff;"/>
   </g>
   <g id="patch_52">
    <path clip-path="url(#p2d11dd3846)" d="M 234.547429 117.162941 
Q 236.185554 117.162941 237.380602 118.403935 
Q 239.112407 120.186002 239.499785 124.653578 
L 237.942679 124.653578 
Q 237.656576 122.156699 236.762823 121.014985 
Q 235.86907 119.873271 234.506918 119.873271 
Q 232.894111 119.873271 231.790212 122.251015 
Q 230.686312 124.623795 230.686312 129.324678 
Q 230.686312 133.385209 231.595257 135.936692 
Q 232.506734 138.488175 234.56262 138.488175 
Q 236.137449 138.488175 237.170456 136.701144 
Q 238.203462 134.909149 238.226249 130.903222 
L 234.587939 130.903222 
L 234.587939 128.346775 
L 239.689676 128.346775 
L 239.689676 140.538296 
L 238.676924 140.538296 
L 238.297142 137.604587 
Q 237.4996 139.327086 236.881821 139.997223 
Q 235.843751 141.143901 234.246135 141.143901 
Q 232.182653 141.143901 230.693908 138.522922 
Q 229.070973 135.231808 229.070973 129.493453 
Q 229.070973 123.769991 230.653398 120.389525 
Q 232.157334 117.162941 234.547429 117.162941 
z
M 234.286645 117.128193 
L 234.286645 117.128193 
z
" style="fill:#ffa600;"/>
   </g>
   <g id="patch_53">
    <path clip-path="url(#p2d11dd3846)" d="M 239.689676 81.657106 
L 239.689676 85.88335 
L 235.279707 85.88335 
L 235.279707 117.128193 
L 233.480942 117.128193 
L 233.480942 85.88335 
L 229.070973 85.88335 
L 229.070973 81.657106 
L 239.689676 81.657106 
z
" style="fill:#ff0000;"/>
   </g>
   <g id="patch_54">
    <path clip-path="url(#p2d11dd3846)" d="M 236.198489 60.000775 
L 234.391988 36.652003 
L 232.471446 60.000775 
L 236.198489 60.000775 
z
M 233.549645 28.8 
L 235.371697 28.8 
L 239.689676 81.657106 
L 237.922052 81.657106 
L 236.716854 65.826455 
L 232.010102 65.826455 
L 230.721965 81.657106 
L 229.070973 81.657106 
L 233.549645 28.8 
z
M 234.384212 28.8 
L 234.384212 28.8 
z
" style="fill:#008000;"/>
   </g>
   <g id="patch_55">
    <path clip-path="url(#p2d11dd3846)" d="M 245.72501 136.438496 
Q 247.363136 136.438496 248.558183 136.707669 
Q 250.289988 137.094202 250.677366 138.063226 
L 249.12026 138.063226 
Q 248.834158 137.521649 247.940404 137.27401 
Q 247.046651 137.02637 245.6845 137.02637 
Q 244.071692 137.02637 242.967793 137.542106 
Q 241.863894 138.056766 241.863894 139.076394 
Q 241.863894 139.957129 242.772838 140.510549 
Q 243.684315 141.063969 245.740201 141.063969 
Q 247.31503 141.063969 248.348037 140.67636 
Q 249.381043 140.287674 249.40383 139.418782 
L 245.76552 139.418782 
L 245.76552 138.864285 
L 250.867257 138.864285 
L 250.867257 141.508643 
L 249.854505 141.508643 
L 249.474723 140.872318 
Q 248.677181 141.24593 248.059402 141.391284 
Q 247.021332 141.64 245.423716 141.64 
Q 243.360234 141.64 241.871489 141.071506 
Q 240.248555 140.357659 240.248555 139.113002 
Q 240.248555 137.871574 241.830979 137.138347 
Q 243.334916 136.438496 245.72501 136.438496 
z
M 245.464226 136.430959 
L 245.464226 136.430959 
z
" style="fill:#ffa600;"/>
   </g>
   <g id="patch_56">
    <path clip-path="url(#p2d11dd3846)" d="M 245.831718 129.440472 
Q 248.105664 129.440472 249.359985 130.105544 
Q 250.614306 130.76917 250.752516 131.613523 
L 249.172228 131.613523 
Q 248.903631 130.973029 248.100448 130.598565 
Q 247.297266 130.222654 245.847364 130.222654 
Q 244.079319 130.222654 242.991893 130.912305 
Q 241.904467 131.600511 241.904467 133.023187 
Q 241.904467 134.189955 242.884976 134.915751 
Q 243.868093 135.640102 245.816071 135.640102 
Q 247.607586 135.640102 248.546371 134.876714 
Q 249.041841 134.474779 249.286968 133.818382 
L 250.867257 133.818382 
Q 250.65603 134.866594 249.466902 135.576486 
Q 248.040471 136.430959 245.620491 136.430959 
Q 243.534302 136.430959 242.115694 135.729742 
Q 240.248555 134.804424 240.248555 132.869931 
Q 240.248555 131.402435 241.651517 130.462659 
Q 243.166611 129.440472 245.831718 129.440472 
z
M 245.505751 129.440472 
L 245.505751 129.440472 
z
" style="fill:#0000ff;"/>
   </g>
   <g id="patch_57">
    <path clip-path="url(#p2d11dd3846)" d="M 247.37607 123.102484 
L 245.569569 116.269183 
L 243.649027 123.102484 
L 247.37607 123.102484 
z
M 244.727226 113.971199 
L 246.549278 113.971199 
L 250.867257 129.440472 
L 249.099633 129.440472 
L 247.894435 124.80744 
L 243.187683 124.80744 
L 241.899546 129.440472 
L 240.248555 129.440472 
L 244.727226 113.971199 
z
M 245.561793 113.971199 
L 245.561793 113.971199 
z
" style="fill:#008000;"/>
   </g>
   <g id="patch_58">
    <path clip-path="url(#p2d11dd3846)" d="M 250.867257 28.8 
L 250.867257 38.947821 
L 246.457288 38.947821 
L 246.457288 113.971199 
L 244.658523 113.971199 
L 244.658523 38.947821 
L 240.248555 38.947821 
L 240.248555 28.8 
L 250.867257 28.8 
z
" style="fill:#ff0000;"/>
   </g>
   <g id="patch_59">
    <path clip-path="url(#p2d11dd3846)" d="M 256.902591 138.532608 
Q 258.540717 138.532608 259.735764 138.693413 
Q 261.467569 138.924329 261.854947 139.503226 
L 260.297841 139.503226 
Q 260.011739 139.179687 259.117985 139.031746 
Q 258.224232 138.883806 256.862081 138.883806 
Q 255.249274 138.883806 254.145374 139.191908 
Q 253.041475 139.499367 253.041475 140.108495 
Q 253.041475 140.634648 253.950419 140.965263 
Q 254.861896 141.295878 256.917782 141.295878 
Q 258.492611 141.295878 259.525618 141.064319 
Q 260.558625 140.832117 260.581411 140.313039 
L 256.943101 140.313039 
L 256.943101 139.981781 
L 262.044838 139.981781 
L 262.044838 141.561527 
L 261.032086 141.561527 
L 260.652304 141.181385 
Q 259.854762 141.404582 259.236984 141.491416 
Q 258.198913 141.64 256.601297 141.64 
Q 254.537815 141.64 253.04907 141.30038 
Q 251.426136 140.873926 251.426136 140.130365 
Q 251.426136 139.388733 253.00856 138.950701 
Q 254.512497 138.532608 256.902591 138.532608 
z
M 256.641807 138.528106 
L 256.641807 138.528106 
z
" style="fill:#ffa600;"/>
   </g>
   <g id="patch_60">
    <path clip-path="url(#p2d11dd3846)" d="M 257.009299 122.720584 
Q 259.283245 122.720584 260.537566 124.224505 
Q 261.791887 125.725157 261.930097 127.634483 
L 260.349809 127.634483 
Q 260.081212 126.186142 259.27803 125.339368 
Q 258.474847 124.489326 257.024945 124.489326 
Q 255.2569 124.489326 254.169474 126.048827 
Q 253.082048 127.605059 253.082048 130.822143 
Q 253.082048 133.460544 254.062557 135.10178 
Q 255.045674 136.739747 256.993653 136.739747 
Q 258.785167 136.739747 259.723952 135.013507 
Q 260.219422 134.104615 260.46455 132.62031 
L 262.044838 132.62031 
Q 261.833611 134.990621 260.644483 136.595893 
Q 259.218052 138.528106 256.798072 138.528106 
Q 254.711883 138.528106 253.293275 136.942449 
Q 251.426136 134.850037 251.426136 130.475587 
Q 251.426136 127.157152 252.829098 125.032045 
Q 254.344193 122.720584 257.009299 122.720584 
z
M 256.683332 122.720584 
L 256.683332 122.720584 
z
" style="fill:#0000ff;"/>
   </g>
   <g id="patch_61">
    <path clip-path="url(#p2d11dd3846)" d="M 262.044838 86.234748 
L 262.044838 90.581895 
L 257.634869 90.581895 
L 257.634869 122.720584 
L 255.836104 122.720584 
L 255.836104 90.581895 
L 251.426136 90.581895 
L 251.426136 86.234748 
L 262.044838 86.234748 
z
" style="fill:#ff0000;"/>
   </g>
   <g id="patch_62">
    <path clip-path="url(#p2d11dd3846)" d="M 258.553651 62.70289 
L 256.74715 37.332019 
L 254.826609 62.70289 
L 258.553651 62.70289 
z
M 255.904807 28.8 
L 257.726859 28.8 
L 262.044838 86.234748 
L 260.277214 86.234748 
L 259.072016 69.033097 
L 254.365264 69.033097 
L 253.077127 86.234748 
L 251.426136 86.234748 
L 255.904807 28.8 
z
M 256.739374 28.8 
L 256.739374 28.8 
z
" style="fill:#008000;"/>
   </g>
   <g id="patch_63">
    <path clip-path="url(#p2d11dd3846)" d="M 268.080172 141.144619 
Q 269.718298 141.144619 270.913345 141.170254 
Q 272.64515 141.207067 273.032528 141.299355 
L 271.475422 141.299355 
Q 271.18932 141.247776 270.295566 141.224191 
Q 269.401813 141.200607 268.039662 141.200607 
Q 266.426855 141.200607 265.322955 141.249724 
Q 264.219056 141.29874 264.219056 141.395847 
Q 264.219056 141.479727 265.128001 141.532433 
Q 266.039477 141.58514 268.095363 141.58514 
Q 269.670192 141.58514 270.703199 141.548225 
Q 271.736206 141.511207 271.758993 141.428455 
L 268.120682 141.428455 
L 268.120682 141.375646 
L 273.222419 141.375646 
L 273.222419 141.62749 
L 272.209667 141.62749 
L 271.829885 141.566887 
Q 271.032343 141.60247 270.414565 141.616313 
Q 269.376494 141.64 267.778878 141.64 
Q 265.715397 141.64 264.226651 141.585858 
Q 262.603717 141.517872 262.603717 141.399333 
Q 262.603717 141.281102 264.186141 141.211271 
Q 265.690078 141.144619 268.080172 141.144619 
z
M 267.819388 141.143901 
L 267.819388 141.143901 
z
" style="fill:#ffa600;"/>
   </g>
   <g id="patch_64">
    <path clip-path="url(#p2d11dd3846)" d="M 269.731232 139.434677 
L 267.924731 137.591877 
L 266.00419 139.434677 
L 269.731232 139.434677 
z
M 267.082388 136.972158 
L 268.90444 136.972158 
L 273.222419 141.143901 
L 271.454795 141.143901 
L 270.249597 139.894468 
L 265.542845 139.894468 
L 264.254709 141.143901 
L 262.603717 141.143901 
L 267.082388 136.972158 
z
M 267.916956 136.972158 
L 267.916956 136.972158 
z
" style="fill:#008000;"/>
   </g>
   <g id="patch_65">
    <path clip-path="url(#p2d11dd3846)" d="M 273.222419 95.322382 
L 273.222419 100.284793 
L 268.812451 100.284793 
L 268.812451 136.972158 
L 267.013685 136.972158 
L 267.013685 100.284793 
L 262.603717 100.284793 
L 262.603717 95.322382 
L 273.222419 95.322382 
z
" style="fill:#ff0000;"/>
   </g>
   <g id="patch_66">
    <path clip-path="url(#p2d11dd3846)" d="M 268.18688 28.8 
Q 270.460826 28.8 271.715147 35.128913 
Q 272.969468 41.444068 273.107678 49.479036 
L 271.52739 49.479036 
Q 271.258793 43.384018 270.455611 39.820564 
Q 269.652428 36.243352 268.202527 36.243352 
Q 266.434481 36.243352 265.347055 42.80616 
Q 264.259629 49.35521 264.259629 62.893581 
Q 264.259629 73.996696 265.240138 80.903467 
Q 266.223255 87.796479 268.171234 87.796479 
Q 269.962749 87.796479 270.901534 80.531987 
Q 271.397003 76.707122 271.642131 70.46076 
L 273.222419 70.46076 
Q 273.011192 80.435677 271.822065 87.191104 
Q 270.395633 95.322382 267.975654 95.322382 
Q 265.889465 95.322382 264.470856 88.649506 
Q 262.603717 79.844062 262.603717 61.435179 
Q 262.603717 47.470294 264.006679 38.527265 
Q 265.521774 28.8 268.18688 28.8 
z
M 267.860913 28.8 
L 267.860913 28.8 
z
" style="fill:#0000ff;"/>
   </g>
   <g id="patch_67">
    <path clip-path="url(#p2d11dd3846)" d="M 280.908813 141.473697 
L 279.102312 141.294398 
L 277.181771 141.473697 
L 280.908813 141.473697 
z
M 278.259969 141.234101 
L 280.082022 141.234101 
L 284.4 141.64 
L 282.632376 141.64 
L 281.427178 141.518434 
L 276.720426 141.518434 
L 275.43229 141.64 
L 273.781298 141.64 
L 278.259969 141.234101 
z
M 279.094537 141.234101 
L 279.094537 141.234101 
z
" style="fill:#008000;"/>
   </g>
   <g id="patch_68">
    <path clip-path="url(#p2d11dd3846)" d="M 279.257753 140.626133 
Q 280.895879 140.626133 282.090926 140.657595 
Q 283.822732 140.702774 284.210109 140.816036 
L 282.653003 140.816036 
Q 282.366901 140.752735 281.473147 140.72379 
Q 280.579394 140.694845 279.217243 140.694845 
Q 277.604436 140.694845 276.500536 140.755126 
Q 275.396637 140.815281 275.396637 140.934458 
Q 275.396637 141.037401 276.305582 141.102087 
Q 277.217058 141.166772 279.272944 141.166772 
Q 280.847773 141.166772 281.88078 141.121467 
Q 282.913787 141.076037 282.936574 140.974478 
L 279.298263 140.974478 
L 279.298263 140.909667 
L 284.4 140.909667 
L 284.4 141.218747 
L 283.387248 141.218747 
L 283.007466 141.144372 
Q 282.209924 141.188041 281.592146 141.20503 
Q 280.554075 141.234101 278.956459 141.234101 
Q 276.892978 141.234101 275.404233 141.167653 
Q 273.781298 141.084217 273.781298 140.938737 
Q 273.781298 140.793635 275.363723 140.707933 
Q 276.867659 140.626133 279.257753 140.626133 
z
M 278.996969 140.625252 
L 278.996969 140.625252 
z
" style="fill:#ffa600;"/>
   </g>
   <g id="patch_69">
    <path clip-path="url(#p2d11dd3846)" d="M 279.364461 116.429145 
Q 281.638407 116.429145 282.892728 118.731153 
Q 284.14705 121.028157 284.28526 123.950706 
L 282.704971 123.950706 
Q 282.436375 121.733772 281.633192 120.437641 
Q 280.830009 119.136506 279.380108 119.136506 
Q 277.612063 119.136506 276.524636 121.523589 
Q 275.43721 123.905667 275.43721 128.829962 
Q 275.43721 132.868485 276.417719 135.380677 
Q 277.400836 137.887864 279.348815 137.887864 
Q 281.14033 137.887864 282.079115 135.245559 
Q 282.574585 133.854345 282.819712 131.582363 
L 284.4 131.582363 
Q 284.188773 135.210528 282.999646 137.667672 
Q 281.573214 140.625252 279.153235 140.625252 
Q 277.067046 140.625252 275.648437 138.198135 
Q 273.781298 134.995341 273.781298 128.2995 
Q 273.781298 123.220069 275.18426 119.967231 
Q 276.699355 116.429145 279.364461 116.429145 
z
M 279.038494 116.429145 
L 279.038494 116.429145 
z
" style="fill:#0000ff;"/>
   </g>
   <g id="patch_70">
    <path clip-path="url(#p2d11dd3846)" d="M 284.4 28.8 
L 284.4 39.240676 
L 279.990032 39.240676 
L 279.990032 116.429145 
L 278.191266 116.429145 
L 278.191266 39.240676 
L 273.781298 39.240676 
L 273.781298 28.8 
L 284.4 28.8 
z
" style="fill:#ff0000;"/>
   </g>
   <g id="matplotlib.axis_1">
    <g id="xtick_1">
     <g id="line2d_2">
      <path clip-path="url(#p2d11dd3846)" d="M 100.249351 141.64 
L 100.249351 28.8 
" style="fill:none;stroke:#cccccc;stroke-linecap:round;stroke-width:0.8;"/>
     </g>
     <g id="text_1">
      <!-- 0 -->
      <g style="fill:#262626;" transform="translate(94.688414 162.986875)scale(0.2 -0.2)">
       <defs>
        <path d="M 1731 4475 
Q 2600 4475 2988 3759 
Q 3288 3206 3288 2244 
Q 3288 1331 3016 734 
Q 2622 -122 1728 -122 
Q 922 -122 528 578 
Q 200 1163 200 2147 
Q 200 2909 397 3456 
Q 766 4475 1731 4475 
z
M 1725 391 
Q 2163 391 2422 778 
Q 2681 1166 2681 2222 
Q 2681 2984 2493 3476 
Q 2306 3969 1766 3969 
Q 1269 3969 1039 3501 
Q 809 3034 809 2125 
Q 809 1441 956 1025 
Q 1181 391 1725 391 
z
" id="Helvetica-30" transform="scale(0.015625)"/>
       </defs>
       <use xlink:href="#Helvetica-30"/>
      </g>
     </g>
    </g>
    <g id="xtick_2">
     <g id="line2d_3">
      <path clip-path="url(#p2d11dd3846)" d="M 212.025162 141.64 
L 212.025162 28.8 
" style="fill:none;stroke:#cccccc;stroke-linecap:round;stroke-width:0.8;"/>
     </g>
     <g id="text_2">
      <!-- 10 -->
      <g style="fill:#262626;" transform="translate(200.903287 162.986875)scale(0.2 -0.2)">
       <defs>
        <path d="M 613 3169 
L 613 3600 
Q 1222 3659 1462 3798 
Q 1703 3938 1822 4456 
L 2266 4456 
L 2266 0 
L 1666 0 
L 1666 3169 
L 613 3169 
z
" id="Helvetica-31" transform="scale(0.015625)"/>
       </defs>
       <use xlink:href="#Helvetica-31"/>
       <use x="55.615234" xlink:href="#Helvetica-30"/>
      </g>
     </g>
    </g>
    <g id="text_3">
     <!-- Position -->
     <g style="fill:#262626;" transform="translate(145.20125 189.089219)scale(0.25 -0.25)">
      <defs>
       <path d="M 547 4591 
L 2613 4591 
Q 3225 4591 3600 4245 
Q 3975 3900 3975 3275 
Q 3975 2738 3640 2339 
Q 3306 1941 2613 1941 
L 1169 1941 
L 1169 0 
L 547 0 
L 547 4591 
z
M 3347 3272 
Q 3347 3778 2972 3959 
Q 2766 4056 2406 4056 
L 1169 4056 
L 1169 2466 
L 2406 2466 
Q 2825 2466 3086 2644 
Q 3347 2822 3347 3272 
z
" id="Helvetica-50" transform="scale(0.015625)"/>
       <path d="M 1741 363 
Q 2300 363 2508 786 
Q 2716 1209 2716 1728 
Q 2716 2197 2566 2491 
Q 2328 2953 1747 2953 
Q 1231 2953 997 2559 
Q 763 2166 763 1609 
Q 763 1075 997 719 
Q 1231 363 1741 363 
z
M 1763 3444 
Q 2409 3444 2856 3012 
Q 3303 2581 3303 1744 
Q 3303 934 2909 406 
Q 2516 -122 1688 -122 
Q 997 -122 590 345 
Q 184 813 184 1600 
Q 184 2444 612 2944 
Q 1041 3444 1763 3444 
z
M 1744 3428 
L 1744 3428 
z
" id="Helvetica-6f" transform="scale(0.015625)"/>
       <path d="M 747 1050 
Q 772 769 888 619 
Q 1100 347 1625 347 
Q 1938 347 2175 483 
Q 2413 619 2413 903 
Q 2413 1119 2222 1231 
Q 2100 1300 1741 1391 
L 1294 1503 
Q 866 1609 663 1741 
Q 300 1969 300 2372 
Q 300 2847 642 3140 
Q 984 3434 1563 3434 
Q 2319 3434 2653 2991 
Q 2863 2709 2856 2384 
L 2325 2384 
Q 2309 2575 2191 2731 
Q 1997 2953 1519 2953 
Q 1200 2953 1036 2831 
Q 872 2709 872 2509 
Q 872 2291 1088 2159 
Q 1213 2081 1456 2022 
L 1828 1931 
Q 2434 1784 2641 1647 
Q 2969 1431 2969 969 
Q 2969 522 2630 197 
Q 2291 -128 1597 -128 
Q 850 -128 539 211 
Q 228 550 206 1050 
L 747 1050 
z
M 1578 3428 
L 1578 3428 
z
" id="Helvetica-73" transform="scale(0.015625)"/>
       <path d="M 413 3331 
L 984 3331 
L 984 0 
L 413 0 
L 413 3331 
z
M 413 4591 
L 984 4591 
L 984 3953 
L 413 3953 
L 413 4591 
z
" id="Helvetica-69" transform="scale(0.015625)"/>
       <path d="M 525 4281 
L 1094 4281 
L 1094 3347 
L 1628 3347 
L 1628 2888 
L 1094 2888 
L 1094 703 
Q 1094 528 1213 469 
Q 1278 434 1431 434 
Q 1472 434 1519 436 
Q 1566 438 1628 444 
L 1628 0 
Q 1531 -28 1426 -40 
Q 1322 -53 1200 -53 
Q 806 -53 665 148 
Q 525 350 525 672 
L 525 2888 
L 72 2888 
L 72 3347 
L 525 3347 
L 525 4281 
z
" id="Helvetica-74" transform="scale(0.015625)"/>
       <path d="M 413 3347 
L 947 3347 
L 947 2872 
Q 1184 3166 1450 3294 
Q 1716 3422 2041 3422 
Q 2753 3422 3003 2925 
Q 3141 2653 3141 2147 
L 3141 0 
L 2569 0 
L 2569 2109 
Q 2569 2416 2478 2603 
Q 2328 2916 1934 2916 
Q 1734 2916 1606 2875 
Q 1375 2806 1200 2600 
Q 1059 2434 1017 2257 
Q 975 2081 975 1753 
L 975 0 
L 413 0 
L 413 3347 
z
M 1734 3428 
L 1734 3428 
z
" id="Helvetica-6e" transform="scale(0.015625)"/>
      </defs>
      <use xlink:href="#Helvetica-50"/>
      <use x="66.699219" xlink:href="#Helvetica-6f"/>
      <use x="122.314453" xlink:href="#Helvetica-73"/>
      <use x="172.314453" xlink:href="#Helvetica-69"/>
      <use x="194.53125" xlink:href="#Helvetica-74"/>
      <use x="222.314453" xlink:href="#Helvetica-69"/>
      <use x="244.53125" xlink:href="#Helvetica-6f"/>
      <use x="300.146484" xlink:href="#Helvetica-6e"/>
     </g>
    </g>
   </g>
   <g id="matplotlib.axis_2">
    <g id="ytick_1">
     <g id="line2d_4">
      <path clip-path="url(#p2d11dd3846)" d="M 94.94 141.64 
L 284.4 141.64 
" style="fill:none;stroke:#cccccc;stroke-linecap:round;stroke-width:0.8;"/>
     </g>
     <g id="text_4">
      <!-- 0 -->
      <g style="fill:#262626;" transform="translate(76.818125 148.813438)scale(0.2 -0.2)">
       <use xlink:href="#Helvetica-30"/>
      </g>
     </g>
    </g>
    <g id="ytick_2">
     <g id="line2d_5">
      <path clip-path="url(#p2d11dd3846)" d="M 94.94 113.43 
L 284.4 113.43 
" style="fill:none;stroke:#cccccc;stroke-linecap:round;stroke-width:0.8;"/>
     </g>
     <g id="text_5">
      <!-- 0.25 -->
      <g style="fill:#262626;" transform="translate(49.018125 120.603437)scale(0.2 -0.2)">
       <defs>
        <path d="M 547 681 
L 1200 681 
L 1200 0 
L 547 0 
L 547 681 
z
" id="Helvetica-2e" transform="scale(0.015625)"/>
        <path d="M 200 0 
Q 231 578 439 1006 
Q 647 1434 1250 1784 
L 1850 2131 
Q 2253 2366 2416 2531 
Q 2672 2791 2672 3125 
Q 2672 3516 2437 3745 
Q 2203 3975 1813 3975 
Q 1234 3975 1013 3538 
Q 894 3303 881 2888 
L 309 2888 
Q 319 3472 525 3841 
Q 891 4491 1816 4491 
Q 2584 4491 2939 4075 
Q 3294 3659 3294 3150 
Q 3294 2613 2916 2231 
Q 2697 2009 2131 1694 
L 1703 1456 
Q 1397 1288 1222 1134 
Q 909 863 828 531 
L 3272 531 
L 3272 0 
L 200 0 
z
" id="Helvetica-32" transform="scale(0.015625)"/>
        <path d="M 791 1141 
Q 847 659 1238 475 
Q 1438 381 1700 381 
Q 2200 381 2440 700 
Q 2681 1019 2681 1406 
Q 2681 1875 2395 2131 
Q 2109 2388 1709 2388 
Q 1419 2388 1211 2275 
Q 1003 2163 856 1963 
L 369 1991 
L 709 4400 
L 3034 4400 
L 3034 3856 
L 1131 3856 
L 941 2613 
Q 1097 2731 1238 2791 
Q 1488 2894 1816 2894 
Q 2431 2894 2859 2497 
Q 3288 2100 3288 1491 
Q 3288 856 2895 371 
Q 2503 -113 1644 -113 
Q 1097 -113 676 195 
Q 256 503 206 1141 
L 791 1141 
z
" id="Helvetica-35" transform="scale(0.015625)"/>
       </defs>
       <use xlink:href="#Helvetica-30"/>
       <use x="55.615234" xlink:href="#Helvetica-2e"/>
       <use x="83.398438" xlink:href="#Helvetica-32"/>
       <use x="139.013672" xlink:href="#Helvetica-35"/>
      </g>
     </g>
    </g>
    <g id="ytick_3">
     <g id="line2d_6">
      <path clip-path="url(#p2d11dd3846)" d="M 94.94 85.22 
L 284.4 85.22 
" style="fill:none;stroke:#cccccc;stroke-linecap:round;stroke-width:0.8;"/>
     </g>
     <g id="text_6">
      <!-- 0.50 -->
      <g style="fill:#262626;" transform="translate(49.018125 92.393438)scale(0.2 -0.2)">
       <use xlink:href="#Helvetica-30"/>
       <use x="55.615234" xlink:href="#Helvetica-2e"/>
       <use x="83.398438" xlink:href="#Helvetica-35"/>
       <use x="139.013672" xlink:href="#Helvetica-30"/>
      </g>
     </g>
    </g>
    <g id="ytick_4">
     <g id="line2d_7">
      <path clip-path="url(#p2d11dd3846)" d="M 94.94 57.01 
L 284.4 57.01 
" style="fill:none;stroke:#cccccc;stroke-linecap:round;stroke-width:0.8;"/>
     </g>
     <g id="text_7">
      <!-- 0.75 -->
      <g style="fill:#262626;" transform="translate(49.018125 64.183437)scale(0.2 -0.2)">
       <defs>
        <path d="M 3347 4400 
L 3347 3909 
Q 3131 3700 2773 3181 
Q 2416 2663 2141 2063 
Q 1869 1478 1728 997 
Q 1638 688 1494 0 
L 872 0 
Q 1084 1281 1809 2550 
Q 2238 3294 2709 3834 
L 234 3834 
L 234 4400 
L 3347 4400 
z
" id="Helvetica-37" transform="scale(0.015625)"/>
       </defs>
       <use xlink:href="#Helvetica-30"/>
       <use x="55.615234" xlink:href="#Helvetica-2e"/>
       <use x="83.398438" xlink:href="#Helvetica-37"/>
       <use x="139.013672" xlink:href="#Helvetica-35"/>
      </g>
     </g>
    </g>
    <g id="ytick_5">
     <g id="line2d_8">
      <path clip-path="url(#p2d11dd3846)" d="M 94.94 28.8 
L 284.4 28.8 
" style="fill:none;stroke:#cccccc;stroke-linecap:round;stroke-width:0.8;"/>
     </g>
     <g id="text_8">
      <!-- 1.0 -->
      <g style="fill:#262626;" transform="translate(60.14 35.973437)scale(0.2 -0.2)">
       <use xlink:href="#Helvetica-31"/>
       <use x="55.615234" xlink:href="#Helvetica-2e"/>
       <use x="83.398438" xlink:href="#Helvetica-30"/>
      </g>
     </g>
    </g>
    <g id="text_9">
     <!-- Probability -->
     <g style="fill:#262626;" transform="translate(39.65875 143.579375)rotate(-90)scale(0.25 -0.25)">
      <defs>
       <path d="M 428 3347 
L 963 3347 
L 963 2769 
Q 1028 2938 1284 3180 
Q 1541 3422 1875 3422 
Q 1891 3422 1928 3419 
Q 1966 3416 2056 3406 
L 2056 2813 
Q 2006 2822 1964 2825 
Q 1922 2828 1872 2828 
Q 1447 2828 1219 2554 
Q 991 2281 991 1925 
L 991 0 
L 428 0 
L 428 3347 
z
" id="Helvetica-72" transform="scale(0.015625)"/>
       <path d="M 369 4606 
L 916 4606 
L 916 2941 
Q 1100 3181 1356 3307 
Q 1613 3434 1913 3434 
Q 2538 3434 2927 3004 
Q 3316 2575 3316 1738 
Q 3316 944 2931 419 
Q 2547 -106 1866 -106 
Q 1484 -106 1222 78 
Q 1066 188 888 428 
L 888 0 
L 369 0 
L 369 4606 
z
M 1831 391 
Q 2288 391 2514 753 
Q 2741 1116 2741 1709 
Q 2741 2238 2514 2584 
Q 2288 2931 1847 2931 
Q 1463 2931 1173 2647 
Q 884 2363 884 1709 
Q 884 1238 1003 944 
Q 1225 391 1831 391 
z
" id="Helvetica-62" transform="scale(0.015625)"/>
       <path d="M 844 891 
Q 844 647 1022 506 
Q 1200 366 1444 366 
Q 1741 366 2019 503 
Q 2488 731 2488 1250 
L 2488 1703 
Q 2384 1638 2221 1594 
Q 2059 1550 1903 1531 
L 1563 1488 
Q 1256 1447 1103 1359 
Q 844 1213 844 891 
z
M 2206 2028 
Q 2400 2053 2466 2191 
Q 2503 2266 2503 2406 
Q 2503 2694 2298 2823 
Q 2094 2953 1713 2953 
Q 1272 2953 1088 2716 
Q 984 2584 953 2325 
L 428 2325 
Q 444 2944 830 3186 
Q 1216 3428 1725 3428 
Q 2316 3428 2684 3203 
Q 3050 2978 3050 2503 
L 3050 575 
Q 3050 488 3086 434 
Q 3122 381 3238 381 
Q 3275 381 3322 386 
Q 3369 391 3422 400 
L 3422 -16 
Q 3291 -53 3222 -62 
Q 3153 -72 3034 -72 
Q 2744 -72 2613 134 
Q 2544 244 2516 444 
Q 2344 219 2022 53 
Q 1700 -113 1313 -113 
Q 847 -113 551 170 
Q 256 453 256 878 
Q 256 1344 547 1600 
Q 838 1856 1309 1916 
L 2206 2028 
z
M 1741 3428 
L 1741 3428 
z
" id="Helvetica-61" transform="scale(0.015625)"/>
       <path d="M 428 4591 
L 991 4591 
L 991 0 
L 428 0 
L 428 4591 
z
" id="Helvetica-6c" transform="scale(0.015625)"/>
       <path d="M 2503 3347 
L 3125 3347 
Q 3006 3025 2597 1878 
Q 2291 1016 2084 472 
Q 1597 -809 1397 -1090 
Q 1197 -1372 709 -1372 
Q 591 -1372 527 -1362 
Q 463 -1353 369 -1328 
L 369 -816 
Q 516 -856 581 -865 
Q 647 -875 697 -875 
Q 853 -875 926 -823 
Q 1000 -772 1050 -697 
Q 1066 -672 1162 -440 
Q 1259 -209 1303 -97 
L 66 3347 
L 703 3347 
L 1600 622 
L 2503 3347 
z
M 1597 3428 
L 1597 3428 
z
" id="Helvetica-79" transform="scale(0.015625)"/>
      </defs>
      <use xlink:href="#Helvetica-50"/>
      <use x="66.699219" xlink:href="#Helvetica-72"/>
      <use x="100" xlink:href="#Helvetica-6f"/>
      <use x="155.615234" xlink:href="#Helvetica-62"/>
      <use x="211.230469" xlink:href="#Helvetica-61"/>
      <use x="266.845703" xlink:href="#Helvetica-62"/>
      <use x="322.460938" xlink:href="#Helvetica-69"/>
      <use x="344.677734" xlink:href="#Helvetica-6c"/>
      <use x="366.894531" xlink:href="#Helvetica-69"/>
      <use x="389.111328" xlink:href="#Helvetica-74"/>
      <use x="416.894531" xlink:href="#Helvetica-79"/>
     </g>
    </g>
   </g>
   <g id="patch_71">
    <path d="M 94.94 141.64 
L 94.94 28.8 
" style="fill:none;stroke:#000000;stroke-linecap:square;stroke-linejoin:miter;"/>
   </g>
  </g>
 </g>
 <defs>
  <clipPath id="p2d11dd3846">
   <rect height="112.84" width="189.46" x="94.94" y="28.8"/>
  </clipPath>
 </defs>
</svg>
