<?xml version="1.0" encoding="utf-8" standalone="no"?>
<!DOCTYPE svg PUBLIC "-//W3C//DTD SVG 1.1//EN"
  "http://www.w3.org/Graphics/SVG/1.1/DTD/svg11.dtd">
<svg height="216pt" version="1.1" viewBox="0 0 360 216" width="360pt" xmlns="http://www.w3.org/2000/svg" xmlns:xlink="http://www.w3.org/1999/xlink">
 <metadata>
  <rdf:RDF xmlns:cc="http://creativecommons.org/ns#" xmlns:dc="http://purl.org/dc/elements/1.1/" xmlns:rdf="http://www.w3.org/1999/02/22-rdf-syntax-ns#">
   <cc:Work>
    <dc:type rdf:resource="http://purl.org/dc/dcmitype/StillImage"/>
    <dc:date>2022-04-07T18:12:33.868653</dc:date>
    <dc:format>image/svg+xml</dc:format>
    <dc:creator>
     <cc:Agent>
      <dc:title>Matplotlib v3.4.2, https://matplotlib.org/</dc:title>
     </cc:Agent>
    </dc:creator>
   </cc:Work>
  </rdf:RDF>
 </metadata>
 <defs>
  <style type="text/css">*{stroke-linecap:butt;stroke-linejoin:round;}</style>
 </defs>
 <g id="figure_1">
  <g id="patch_1">
   <path d="M 0 216 
L 360 216 
L 360 0 
L 0 0 
z
" style="fill:#ffffff;"/>
  </g>
  <g id="axes_1">
   <g id="patch_2">
    <path d="M 94.94 141.64 
L 338.4 141.64 
L 338.4 28.8 
L 94.94 28.8 
z
" style="fill:#ffffff;"/>
   </g>
   <g id="line2d_1">
    <path clip-path="url(#pf483a7e7d5)" d="M 94.94 141.64 
L 338.4 141.64 
" style="fill:none;stroke:#000000;stroke-linecap:round;stroke-width:0.5;"/>
   </g>
   <g id="patch_3">
    <path clip-path="url(#pf483a7e7d5)" d="M 100.919108 117.387374 
Q 102.707589 117.387374 104.012322 118.642426 
Q 105.903081 120.444681 106.326013 124.962868 
L 104.62599 124.962868 
Q 104.313627 122.437703 103.337841 121.283055 
Q 102.362055 120.128408 100.87488 120.128408 
Q 99.114042 120.128408 97.908822 122.533087 
Q 96.703602 124.932747 96.703602 129.686884 
Q 96.703602 133.793414 97.695974 136.373802 
Q 98.69111 138.954189 100.935694 138.954189 
Q 102.655068 138.954189 103.782888 137.146914 
Q 104.910709 135.334618 104.935587 131.28331 
L 100.963337 131.28331 
L 100.963337 128.697903 
L 106.533333 128.697903 
L 106.533333 141.027535 
L 105.427627 141.027535 
L 105.012987 138.060591 
Q 104.142243 139.802604 103.467762 140.480332 
Q 102.334413 141.64 100.590161 141.64 
Q 98.337283 141.64 96.711895 138.98933 
Q 94.94 135.660932 94.94 129.857571 
Q 94.94 124.069271 96.667667 120.650509 
Q 98.309641 117.387374 100.919108 117.387374 
z
M 100.634389 117.352232 
L 100.634389 117.352232 
z
" style="fill:#ffa600;"/>
   </g>
   <g id="patch_4">
    <path clip-path="url(#pf483a7e7d5)" d="M 102.72171 106.195931 
L 100.7494 94.167765 
L 98.652583 106.195931 
L 102.72171 106.195931 
z
M 99.829744 90.12279 
L 101.819032 90.12279 
L 106.533333 117.352232 
L 104.603469 117.352232 
L 103.287653 109.197041 
L 98.148894 109.197041 
L 96.742527 117.352232 
L 94.94 117.352232 
L 99.829744 90.12279 
z
M 100.740911 90.12279 
L 100.740911 90.12279 
z
" style="fill:#008000;"/>
   </g>
   <g id="patch_5">
    <path clip-path="url(#pf483a7e7d5)" d="M 101.035611 61.91279 
Q 103.518269 61.91279 104.887718 64.596679 
Q 106.257166 67.274733 106.408062 70.682104 
L 104.682728 70.682104 
Q 104.389478 68.097403 103.512575 66.586257 
Q 102.635673 65.069276 101.052693 65.069276 
Q 99.122369 65.069276 97.935134 67.852352 
Q 96.747899 70.629593 96.747899 76.37078 
Q 96.747899 81.079254 97.818404 84.008193 
Q 98.891755 86.931297 101.018528 86.931297 
Q 102.974476 86.931297 103.999427 83.85066 
Q 104.540373 82.228658 104.807999 79.579777 
L 106.533333 79.579777 
Q 106.302719 83.809818 105.004448 86.674577 
Q 103.447092 90.12279 100.804997 90.12279 
Q 98.527328 90.12279 96.978513 87.293039 
Q 94.94 83.558933 94.94 75.752319 
Q 94.94 69.830261 96.471732 66.03781 
Q 98.125889 61.91279 101.035611 61.91279 
z
M 100.679725 61.91279 
L 100.679725 61.91279 
z
" style="fill:#0000ff;"/>
   </g>
   <g id="patch_6">
    <path clip-path="url(#pf483a7e7d5)" d="M 106.533333 28.8 
L 106.533333 32.745262 
L 101.718599 32.745262 
L 101.718599 61.91279 
L 99.754735 61.91279 
L 99.754735 32.745262 
L 94.94 32.745262 
L 94.94 28.8 
L 106.533333 28.8 
z
" style="fill:#ff0000;"/>
   </g>
   <g id="patch_7">
    <path clip-path="url(#pf483a7e7d5)" d="M 118.736842 117.352232 
L 118.736842 120.246027 
L 113.922107 120.246027 
L 113.922107 141.64 
L 111.958243 141.64 
L 111.958243 120.246027 
L 107.143509 120.246027 
L 107.143509 117.352232 
L 118.736842 117.352232 
z
" style="fill:#ff0000;"/>
   </g>
   <g id="patch_8">
    <path clip-path="url(#pf483a7e7d5)" d="M 113.122617 90.162188 
Q 114.911097 90.162188 116.215831 91.569249 
Q 118.106589 93.589788 118.529522 98.655208 
L 116.829498 98.655208 
Q 116.517136 95.824201 115.54135 94.529705 
Q 114.565564 93.235209 113.078389 93.235209 
Q 111.317551 93.235209 110.112331 95.931138 
Q 108.907111 98.621438 108.907111 103.951385 
Q 108.907111 108.555288 109.899482 111.448205 
Q 110.894618 114.341122 113.139203 114.341122 
Q 114.858576 114.341122 115.986397 112.314954 
Q 117.114218 110.283159 117.139096 105.741166 
L 113.166845 105.741166 
L 113.166845 102.842621 
L 118.736842 102.842621 
L 118.736842 116.665587 
L 117.631136 116.665587 
L 117.216496 113.339295 
Q 116.345752 115.292295 115.671271 116.052108 
Q 114.537921 117.352232 112.793669 117.352232 
Q 110.540792 117.352232 108.915404 114.38052 
Q 107.143509 110.648994 107.143509 104.142745 
Q 107.143509 97.65338 108.871175 93.820546 
Q 110.51315 90.162188 113.122617 90.162188 
z
M 112.837898 90.12279 
L 112.837898 90.12279 
z
" style="fill:#ffa600;"/>
   </g>
   <g id="patch_9">
    <path clip-path="url(#pf483a7e7d5)" d="M 113.239119 59.951674 
Q 115.721778 59.951674 117.091227 62.822142 
Q 118.460675 65.68637 118.61157 69.330617 
L 116.886236 69.330617 
Q 116.592987 66.566231 115.716084 64.950033 
Q 114.839182 63.327594 113.256202 63.327594 
Q 111.325878 63.327594 110.138643 66.304145 
Q 108.951408 69.274456 108.951408 75.414761 
Q 108.951408 80.450561 110.021913 83.583115 
Q 111.095264 86.709429 113.222037 86.709429 
Q 115.177985 86.709429 116.202936 83.414631 
Q 116.743882 81.67987 117.011508 78.846843 
L 118.736842 78.846843 
Q 118.506228 83.37095 117.207957 86.434863 
Q 115.650601 90.12279 113.008505 90.12279 
Q 110.730837 90.12279 109.182022 87.096319 
Q 107.143509 83.102624 107.143509 74.753306 
Q 107.143509 68.419555 108.675241 64.363459 
Q 110.329398 59.951674 113.239119 59.951674 
z
M 112.883234 59.951674 
L 112.883234 59.951674 
z
" style="fill:#0000ff;"/>
   </g>
   <g id="patch_10">
    <path clip-path="url(#pf483a7e7d5)" d="M 114.925219 47.188377 
L 112.952909 33.427628 
L 110.856092 47.188377 
L 114.925219 47.188377 
z
M 112.033252 28.8 
L 114.022541 28.8 
L 118.736842 59.951674 
L 116.806978 59.951674 
L 115.491162 50.621778 
L 110.352403 50.621778 
L 108.946036 59.951674 
L 107.143509 59.951674 
L 112.033252 28.8 
z
M 112.94442 28.8 
L 112.94442 28.8 
z
" style="fill:#008000;"/>
   </g>
   <g id="patch_11">
    <path clip-path="url(#pf483a7e7d5)" d="M 125.442628 121.274465 
Q 127.925287 121.274465 129.294735 123.212034 
Q 130.664184 125.145391 130.815079 127.605261 
L 129.089745 127.605261 
Q 128.796495 125.739298 127.919593 124.648362 
Q 127.04269 123.553214 125.459711 123.553214 
Q 123.529387 123.553214 122.342152 125.562389 
Q 121.154917 127.567352 121.154917 131.712065 
Q 121.154917 135.111235 122.225421 137.225712 
Q 123.298773 139.335978 125.425546 139.335978 
Q 127.381494 139.335978 128.406445 137.111985 
Q 128.947391 135.94102 129.215017 134.028723 
L 130.940351 134.028723 
Q 130.709737 137.082501 129.411466 139.150645 
Q 127.85411 141.64 125.212014 141.64 
Q 122.934346 141.64 121.385531 139.597128 
Q 119.347018 136.90138 119.347018 131.265582 
Q 119.347018 126.990293 120.87875 124.252424 
Q 122.532907 121.274465 125.442628 121.274465 
z
M 125.086742 121.274465 
L 125.086742 121.274465 
z
" style="fill:#0000ff;"/>
   </g>
   <g id="patch_12">
    <path clip-path="url(#pf483a7e7d5)" d="M 127.128728 109.716414 
L 125.156418 97.255103 
L 123.059601 109.716414 
L 127.128728 109.716414 
z
M 124.236761 93.064465 
L 126.226049 93.064465 
L 130.940351 121.274465 
L 129.010487 121.274465 
L 127.69467 112.825597 
L 122.555912 112.825597 
L 121.149545 121.274465 
L 119.347018 121.274465 
L 124.236761 93.064465 
z
M 125.147929 93.064465 
L 125.147929 93.064465 
z
" style="fill:#008000;"/>
   </g>
   <g id="patch_13">
    <path clip-path="url(#pf483a7e7d5)" d="M 125.326126 60.978724 
Q 127.114606 60.978724 128.41934 62.639133 
Q 130.310098 65.02348 130.733031 71.000952 
L 129.033007 71.000952 
Q 128.720645 67.660209 127.744859 66.132633 
Q 126.769073 64.605057 125.281898 64.605057 
Q 123.52106 64.605057 122.31584 67.7864 
Q 121.11062 70.961102 121.11062 77.250731 
Q 121.11062 82.683588 122.102991 86.097389 
Q 123.098127 89.51119 125.342711 89.51119 
Q 127.062085 89.51119 128.189906 87.120201 
Q 129.317726 84.722571 129.342605 79.362771 
L 125.370354 79.362771 
L 125.370354 75.942329 
L 130.940351 75.942329 
L 130.940351 92.254185 
L 129.834644 92.254185 
L 129.420004 88.328979 
Q 128.54926 90.633626 127.874779 91.530247 
Q 126.74143 93.064465 124.997178 93.064465 
Q 122.744301 93.064465 121.118912 89.557681 
Q 119.347018 85.154277 119.347018 77.476546 
Q 119.347018 69.818741 121.074684 65.295787 
Q 122.716658 60.978724 125.326126 60.978724 
z
M 125.041406 60.932232 
L 125.041406 60.932232 
z
" style="fill:#ffa600;"/>
   </g>
   <g id="patch_14">
    <path clip-path="url(#pf483a7e7d5)" d="M 130.940351 28.8 
L 130.940351 32.628432 
L 126.125616 32.628432 
L 126.125616 60.932232 
L 124.161752 60.932232 
L 124.161752 32.628432 
L 119.347018 32.628432 
L 119.347018 28.8 
L 130.940351 28.8 
z
" style="fill:#ff0000;"/>
   </g>
   <g id="patch_15">
    <path clip-path="url(#pf483a7e7d5)" d="M 137.529635 119.345653 
Q 139.318115 119.345653 140.622849 120.499365 
Q 142.513607 122.156097 142.93654 126.309463 
L 141.236516 126.309463 
Q 140.924154 123.988193 139.948368 122.926777 
Q 138.972582 121.865361 137.485406 121.865361 
Q 135.724569 121.865361 134.519348 124.075875 
Q 133.314128 126.281774 133.314128 130.652039 
Q 133.314128 134.426987 134.3065 136.799021 
Q 135.301636 139.171054 137.54622 139.171054 
Q 139.265594 139.171054 140.393415 137.509708 
Q 141.521235 135.843747 141.546114 132.119561 
L 137.573863 132.119561 
L 137.573863 129.742913 
L 143.14386 129.742913 
L 143.14386 141.076988 
L 142.038153 141.076988 
L 141.623513 138.349611 
Q 140.752769 139.950964 140.078288 140.573969 
Q 138.944939 141.64 137.200687 141.64 
Q 134.94781 141.64 133.322421 139.203358 
Q 131.550526 136.143712 131.550526 130.808944 
Q 131.550526 125.48802 133.278193 122.345306 
Q 134.920167 119.345653 137.529635 119.345653 
z
M 137.244915 119.313349 
L 137.244915 119.313349 
z
" style="fill:#ffa600;"/>
   </g>
   <g id="patch_16">
    <path clip-path="url(#pf483a7e7d5)" d="M 143.14386 94.045023 
L 143.14386 97.055647 
L 138.329125 97.055647 
L 138.329125 119.313349 
L 136.365261 119.313349 
L 136.365261 97.055647 
L 131.550526 97.055647 
L 131.550526 94.045023 
L 143.14386 94.045023 
z
" style="fill:#ff0000;"/>
   </g>
   <g id="patch_17">
    <path clip-path="url(#pf483a7e7d5)" d="M 137.646137 67.796139 
Q 140.128796 67.796139 141.498244 70.293447 
Q 142.867692 72.785327 143.018588 75.955823 
L 141.293254 75.955823 
Q 141.000004 73.550806 140.123102 72.144713 
Q 139.246199 70.733191 137.66322 70.733191 
Q 135.732895 70.733191 134.545661 73.322791 
Q 133.358426 75.906963 133.358426 81.249031 
Q 133.358426 85.630179 134.42893 88.355503 
Q 135.502281 91.075397 137.629054 91.075397 
Q 139.585002 91.075397 140.609953 88.208921 
Q 141.1509 86.699678 141.418526 84.234944 
L 143.14386 84.234944 
Q 142.913246 88.170919 141.614975 90.836524 
Q 140.057619 94.045023 137.415523 94.045023 
Q 135.137854 94.045023 133.58904 91.411991 
Q 131.550526 87.937475 131.550526 80.673565 
Q 131.550526 75.163199 133.082258 71.634394 
Q 134.736415 67.796139 137.646137 67.796139 
z
M 137.290251 67.796139 
L 137.290251 67.796139 
z
" style="fill:#0000ff;"/>
   </g>
   <g id="patch_18">
    <path clip-path="url(#pf483a7e7d5)" d="M 139.332237 51.818849 
L 137.359927 34.592935 
L 135.26311 51.818849 
L 139.332237 51.818849 
z
M 136.44027 28.8 
L 138.429558 28.8 
L 143.14386 67.796139 
L 141.213996 67.796139 
L 139.898179 56.116834 
L 134.759421 56.116834 
L 133.353053 67.796139 
L 131.550526 67.796139 
L 136.44027 28.8 
z
M 137.351438 28.8 
L 137.351438 28.8 
z
" style="fill:#008000;"/>
   </g>
   <g id="patch_19">
    <path clip-path="url(#pf483a7e7d5)" d="M 151.535745 132.090695 
L 149.563435 121.795112 
L 147.466618 132.090695 
L 151.535745 132.090695 
z
M 148.643779 118.33279 
L 150.633067 118.33279 
L 155.347368 141.64 
L 153.417504 141.64 
L 152.101688 134.659514 
L 146.962929 134.659514 
L 145.556562 141.64 
L 143.754035 141.64 
L 148.643779 118.33279 
z
M 149.554946 118.33279 
L 149.554946 118.33279 
z
" style="fill:#008000;"/>
   </g>
   <g id="patch_20">
    <path clip-path="url(#pf483a7e7d5)" d="M 149.849646 90.12279 
Q 152.332305 90.12279 153.701753 92.806679 
Q 155.071201 95.484733 155.222097 98.892104 
L 153.496763 98.892104 
Q 153.203513 96.307403 152.32661 94.796257 
Q 151.449708 93.279276 149.866728 93.279276 
Q 147.936404 93.279276 146.749169 96.062352 
Q 145.561935 98.839593 145.561935 104.58078 
Q 145.561935 109.289254 146.632439 112.218193 
Q 147.70579 115.141297 149.832563 115.141297 
Q 151.788511 115.141297 152.813462 112.06066 
Q 153.354408 110.438658 153.622034 107.789777 
L 155.347368 107.789777 
Q 155.116754 112.019818 153.818483 114.884577 
Q 152.261127 118.33279 149.619032 118.33279 
Q 147.341363 118.33279 145.792549 115.503039 
Q 143.754035 111.768933 143.754035 103.962319 
Q 143.754035 98.040261 145.285767 94.24781 
Q 146.939924 90.12279 149.849646 90.12279 
z
M 149.49376 90.12279 
L 149.49376 90.12279 
z
" style="fill:#0000ff;"/>
   </g>
   <g id="patch_21">
    <path clip-path="url(#pf483a7e7d5)" d="M 149.733143 59.995328 
Q 151.521624 59.995328 152.826357 61.554398 
Q 154.717116 63.793222 155.140048 69.405873 
L 153.440025 69.405873 
Q 153.127662 66.269025 152.151876 64.83468 
Q 151.17609 63.400336 149.688915 63.400336 
Q 147.928077 63.400336 146.722857 66.387514 
Q 145.517637 69.368455 145.517637 75.274211 
Q 145.517637 80.375487 146.510009 83.580934 
Q 147.505145 86.786381 149.749729 86.786381 
Q 151.469103 86.786381 152.596923 84.541321 
Q 153.724744 82.290024 153.749622 77.257348 
L 149.777372 77.257348 
L 149.777372 74.045664 
L 155.347368 74.045664 
L 155.347368 89.361964 
L 154.241662 89.361964 
L 153.827022 85.676324 
Q 152.956278 87.840312 152.281797 88.68221 
Q 151.148448 90.12279 149.404196 90.12279 
Q 147.151319 90.12279 145.52593 86.830035 
Q 143.754035 82.695383 143.754035 75.486244 
Q 143.754035 68.295815 145.481702 64.048909 
Q 147.123676 59.995328 149.733143 59.995328 
z
M 149.448424 59.951674 
L 149.448424 59.951674 
z
" style="fill:#ffa600;"/>
   </g>
   <g id="patch_22">
    <path clip-path="url(#pf483a7e7d5)" d="M 155.347368 28.8 
L 155.347368 32.511602 
L 150.532634 32.511602 
L 150.532634 59.951674 
L 148.56877 59.951674 
L 148.56877 32.511602 
L 143.754035 32.511602 
L 143.754035 28.8 
L 155.347368 28.8 
z
" style="fill:#ff0000;"/>
   </g>
   <g id="patch_23">
    <path clip-path="url(#pf483a7e7d5)" d="M 167.550877 117.352232 
L 167.550877 120.246027 
L 162.736143 120.246027 
L 162.736143 141.64 
L 160.772279 141.64 
L 160.772279 120.246027 
L 155.957544 120.246027 
L 155.957544 117.352232 
L 167.550877 117.352232 
z
" style="fill:#ff0000;"/>
   </g>
   <g id="patch_24">
    <path clip-path="url(#pf483a7e7d5)" d="M 161.936652 92.120467 
Q 163.725132 92.120467 165.029866 93.426189 
Q 166.920624 95.301205 167.343557 100.001803 
L 165.643533 100.001803 
Q 165.331171 97.374691 164.355385 96.173427 
Q 163.379599 94.972163 161.892424 94.972163 
Q 160.131586 94.972163 158.926366 97.473926 
Q 157.721146 99.970466 157.721146 104.916539 
Q 157.721146 109.18886 158.713517 111.873424 
Q 159.708653 114.557988 161.953238 114.557988 
Q 163.672611 114.557988 164.800432 112.677749 
Q 165.928253 110.792287 165.953131 106.577417 
L 161.98088 106.577417 
L 161.98088 103.887631 
L 167.550877 103.887631 
L 167.550877 116.71504 
L 166.445171 116.71504 
L 166.030531 113.628314 
Q 165.159787 115.440656 164.485306 116.145746 
Q 163.351957 117.352232 161.607704 117.352232 
Q 159.354827 117.352232 157.729439 114.594548 
Q 155.957544 111.131774 155.957544 105.094117 
Q 155.957544 99.072129 157.68521 95.515343 
Q 159.327185 92.120467 161.936652 92.120467 
z
M 161.651933 92.083907 
L 161.651933 92.083907 
z
" style="fill:#ffa600;"/>
   </g>
   <g id="patch_25">
    <path clip-path="url(#pf483a7e7d5)" d="M 162.053155 64.854465 
Q 164.535813 64.854465 165.905262 67.445063 
Q 167.27471 70.03003 167.425605 73.318963 
L 165.700271 73.318963 
Q 165.407022 70.824105 164.530119 69.365485 
Q 163.653217 67.901234 162.070237 67.901234 
Q 160.139913 67.901234 158.952678 70.587572 
Q 157.765443 73.268278 157.765443 78.809906 
Q 157.765443 83.354716 158.835948 86.181848 
Q 159.909299 89.003347 162.036072 89.003347 
Q 163.99202 89.003347 165.016971 86.029791 
Q 165.557917 84.464168 165.825543 81.90736 
L 167.550877 81.90736 
Q 167.320263 85.990369 166.021992 88.755551 
Q 164.464636 92.083907 161.822541 92.083907 
Q 159.544872 92.083907 157.996057 89.352515 
Q 155.957544 85.748204 155.957544 78.212942 
Q 155.957544 72.49673 157.489276 68.836102 
Q 159.143433 64.854465 162.053155 64.854465 
z
M 161.697269 64.854465 
L 161.697269 64.854465 
z
" style="fill:#0000ff;"/>
   </g>
   <g id="patch_26">
    <path clip-path="url(#pf483a7e7d5)" d="M 163.739254 50.082422 
L 161.766944 34.155945 
L 159.670127 50.082422 
L 163.739254 50.082422 
z
M 160.847288 28.8 
L 162.836576 28.8 
L 167.550877 64.854465 
L 165.621013 64.854465 
L 164.305197 54.056188 
L 159.166438 54.056188 
L 157.760071 64.854465 
L 155.957544 64.854465 
L 160.847288 28.8 
z
M 161.758455 28.8 
L 161.758455 28.8 
z
" style="fill:#008000;"/>
   </g>
   <g id="patch_27">
    <path clip-path="url(#pf483a7e7d5)" d="M 175.942763 131.688946 
L 173.970453 120.960217 
L 171.873636 131.688946 
L 175.942763 131.688946 
z
M 173.050796 117.352232 
L 175.040084 117.352232 
L 179.754386 141.64 
L 177.824522 141.64 
L 176.508705 134.365837 
L 171.369947 134.365837 
L 169.96358 141.64 
L 168.161053 141.64 
L 173.050796 117.352232 
z
M 173.961964 117.352232 
L 173.961964 117.352232 
z
" style="fill:#008000;"/>
   </g>
   <g id="patch_28">
    <path clip-path="url(#pf483a7e7d5)" d="M 179.754386 92.083907 
L 179.754386 95.09453 
L 174.939651 95.09453 
L 174.939651 117.352232 
L 172.975787 117.352232 
L 172.975787 95.09453 
L 168.161053 95.09453 
L 168.161053 92.083907 
L 179.754386 92.083907 
z
" style="fill:#ff0000;"/>
   </g>
   <g id="patch_29">
    <path clip-path="url(#pf483a7e7d5)" d="M 174.140161 63.914723 
Q 175.928641 63.914723 177.233375 65.372454 
Q 179.124133 67.465755 179.547066 72.713584 
L 177.847042 72.713584 
Q 177.53468 69.78063 176.558894 68.439518 
Q 175.583108 67.098406 174.095933 67.098406 
Q 172.335095 67.098406 171.129875 69.891418 
Q 169.924655 72.678599 169.924655 78.200482 
Q 169.924655 82.970176 170.917026 85.96727 
Q 171.912162 88.964363 174.156746 88.964363 
Q 175.87612 88.964363 177.003941 86.865232 
Q 178.131762 84.760269 178.15664 80.054715 
L 174.184389 80.054715 
L 174.184389 77.05179 
L 179.754386 77.05179 
L 179.754386 91.372534 
L 178.648679 91.372534 
L 178.234039 87.926459 
Q 177.363296 89.949789 176.688815 90.736964 
Q 175.555465 92.083907 173.811213 92.083907 
Q 171.558336 92.083907 169.932947 89.00518 
Q 168.161053 85.139279 168.161053 78.398733 
Q 168.161053 71.67568 169.888719 67.704822 
Q 171.530693 63.914723 174.140161 63.914723 
z
M 173.855441 63.873907 
L 173.855441 63.873907 
z
" style="fill:#ffa600;"/>
   </g>
   <g id="patch_30">
    <path clip-path="url(#pf483a7e7d5)" d="M 174.256663 28.8 
Q 176.739322 28.8 178.10877 32.136918 
Q 179.478219 35.466581 179.629114 39.703016 
L 177.90378 39.703016 
Q 177.61053 36.489419 176.733628 34.610589 
Q 175.856726 32.724505 174.273746 32.724505 
Q 172.343422 32.724505 171.156187 36.184744 
Q 169.968952 39.637728 169.968952 46.775831 
Q 169.968952 52.629945 171.039456 56.271538 
Q 172.112808 59.905876 174.239581 59.905876 
Q 176.195529 59.905876 177.22048 56.075675 
Q 177.761426 54.059016 178.029052 50.765623 
L 179.754386 50.765623 
Q 179.523772 56.024896 178.225501 59.586693 
Q 176.668145 63.873907 174.026049 63.873907 
Q 171.748381 63.873907 170.199566 60.355635 
Q 168.161053 55.712967 168.161053 46.006889 
Q 168.161053 38.643907 169.692785 33.928697 
Q 171.346942 28.8 174.256663 28.8 
z
M 173.900778 28.8 
L 173.900778 28.8 
z
" style="fill:#0000ff;"/>
   </g>
   <g id="patch_31">
    <path clip-path="url(#pf483a7e7d5)" d="M 186.460172 118.33279 
Q 188.942831 118.33279 190.312279 120.550229 
Q 191.681727 122.762847 191.832623 125.578031 
L 190.107289 125.578031 
Q 189.814039 123.442541 188.937137 122.194026 
Q 188.060234 120.940691 186.477255 120.940691 
Q 184.54693 120.940691 183.359696 123.240079 
Q 182.172461 125.534646 182.172461 130.278037 
Q 182.172461 134.168195 183.242965 136.588096 
Q 184.316316 139.003176 186.44309 139.003176 
Q 188.399038 139.003176 189.423988 136.457942 
Q 189.964935 135.117838 190.232561 132.929322 
L 191.957895 132.929322 
Q 191.727281 136.424198 190.42901 138.791073 
Q 188.871654 141.64 186.229558 141.64 
Q 183.951889 141.64 182.403075 139.302048 
Q 180.364561 136.216916 180.364561 129.767062 
Q 180.364561 124.874235 181.896294 121.740897 
Q 183.55045 118.33279 186.460172 118.33279 
z
M 186.104286 118.33279 
L 186.104286 118.33279 
z
" style="fill:#0000ff;"/>
   </g>
   <g id="patch_32">
    <path clip-path="url(#pf483a7e7d5)" d="M 188.146272 107.979987 
L 186.173962 96.818113 
L 184.077145 107.979987 
L 188.146272 107.979987 
z
M 185.254305 93.064465 
L 187.243593 93.064465 
L 191.957895 118.33279 
L 190.028031 118.33279 
L 188.712214 110.764952 
L 183.573456 110.764952 
L 182.167088 118.33279 
L 180.364561 118.33279 
L 185.254305 93.064465 
z
M 186.165473 93.064465 
L 186.165473 93.064465 
z
" style="fill:#008000;"/>
   </g>
   <g id="patch_33">
    <path clip-path="url(#pf483a7e7d5)" d="M 186.34367 61.957863 
Q 188.13215 61.957863 189.436884 63.567602 
Q 191.327642 65.879188 191.750575 71.674249 
L 190.050551 71.674249 
Q 189.738189 68.435454 188.762403 66.954494 
Q 187.786617 65.473534 186.299441 65.473534 
Q 184.538604 65.473534 183.333384 68.557794 
Q 182.128163 71.635616 182.128163 77.733308 
Q 182.128163 83.000375 183.120535 86.309999 
Q 184.115671 89.619623 186.360255 89.619623 
Q 188.079629 89.619623 189.20745 87.301598 
Q 190.33527 84.977135 190.360149 79.780896 
L 186.387898 79.780896 
L 186.387898 76.464833 
L 191.957895 76.464833 
L 191.957895 92.278912 
L 190.852188 92.278912 
L 190.437548 88.473488 
Q 189.566804 90.707806 188.892323 91.577066 
Q 187.758974 93.064465 186.014722 93.064465 
Q 183.761845 93.064465 182.136456 89.664695 
Q 180.364561 85.395667 180.364561 77.952232 
Q 180.364561 70.528115 182.092228 66.143185 
Q 183.734202 61.957863 186.34367 61.957863 
z
M 186.05895 61.91279 
L 186.05895 61.91279 
z
" style="fill:#ffa600;"/>
   </g>
   <g id="patch_34">
    <path clip-path="url(#pf483a7e7d5)" d="M 191.957895 28.8 
L 191.957895 32.745262 
L 187.14316 32.745262 
L 187.14316 61.91279 
L 185.179296 61.91279 
L 185.179296 32.745262 
L 180.364561 32.745262 
L 180.364561 28.8 
L 191.957895 28.8 
z
" style="fill:#ff0000;"/>
   </g>
   <g id="patch_35">
    <path clip-path="url(#pf483a7e7d5)" d="M 200.34978 130.885448 
L 198.377471 119.290428 
L 196.280653 130.885448 
L 200.34978 130.885448 
z
M 197.457814 115.391116 
L 199.447102 115.391116 
L 204.161404 141.64 
L 202.231539 141.64 
L 200.915723 133.778485 
L 195.776964 133.778485 
L 194.370597 141.64 
L 192.56807 141.64 
L 197.457814 115.391116 
z
M 198.368981 115.391116 
L 198.368981 115.391116 
z
" style="fill:#008000;"/>
   </g>
   <g id="patch_36">
    <path clip-path="url(#pf483a7e7d5)" d="M 198.663681 89.142232 
Q 201.14634 89.142232 202.515788 91.639541 
Q 203.885236 94.13142 204.036132 97.301916 
L 202.310798 97.301916 
Q 202.017548 94.8969 201.140645 93.490806 
Q 200.263743 92.079284 198.680763 92.079284 
Q 196.750439 92.079284 195.563204 94.668885 
Q 194.37597 97.253056 194.37597 102.595125 
Q 194.37597 106.976272 195.446474 109.701596 
Q 196.519825 112.421491 198.646598 112.421491 
Q 200.602546 112.421491 201.627497 109.555015 
Q 202.168443 108.045772 202.43607 105.581037 
L 204.161404 105.581037 
Q 203.93079 109.517012 202.632518 112.182618 
Q 201.075163 115.391116 198.433067 115.391116 
Q 196.155398 115.391116 194.606584 112.758084 
Q 192.56807 109.283568 192.56807 102.019658 
Q 192.56807 96.509292 194.099802 92.980487 
Q 195.753959 89.142232 198.663681 89.142232 
z
M 198.307795 89.142232 
L 198.307795 89.142232 
z
" style="fill:#0000ff;"/>
   </g>
   <g id="patch_37">
    <path clip-path="url(#pf483a7e7d5)" d="M 204.161404 60.932232 
L 204.161404 64.293345 
L 199.346669 64.293345 
L 199.346669 89.142232 
L 197.382805 89.142232 
L 197.382805 64.293345 
L 192.56807 64.293345 
L 192.56807 60.932232 
L 204.161404 60.932232 
z
" style="fill:#ff0000;"/>
   </g>
   <g id="patch_38">
    <path clip-path="url(#pf483a7e7d5)" d="M 198.547178 28.846491 
Q 200.335659 28.846491 201.640393 30.5069 
Q 203.531151 32.891247 203.954084 38.868719 
L 202.25406 38.868719 
Q 201.941698 35.527977 200.965912 34.000401 
Q 199.990125 32.472824 198.50295 32.472824 
Q 196.742112 32.472824 195.536892 35.654168 
Q 194.331672 38.82887 194.331672 45.118498 
Q 194.331672 50.551356 195.324044 53.965157 
Q 196.31918 57.378957 198.563764 57.378957 
Q 200.283138 57.378957 201.410958 54.987969 
Q 202.538779 52.590338 202.563658 47.230538 
L 198.591407 47.230538 
L 198.591407 43.810096 
L 204.161404 43.810096 
L 204.161404 60.121953 
L 203.055697 60.121953 
L 202.641057 56.196746 
Q 201.770313 58.501394 201.095832 59.398015 
Q 199.962483 60.932232 198.218231 60.932232 
Q 195.965354 60.932232 194.339965 57.425449 
Q 192.56807 53.022045 192.56807 45.344314 
Q 192.56807 37.686508 194.295737 33.163554 
Q 195.937711 28.846491 198.547178 28.846491 
z
M 198.262459 28.8 
L 198.262459 28.8 
z
" style="fill:#ffa600;"/>
   </g>
   <g id="patch_39">
    <path clip-path="url(#pf483a7e7d5)" d="M 212.553289 132.894193 
L 210.580979 123.464901 
L 208.484162 132.894193 
L 212.553289 132.894193 
z
M 209.661323 120.293907 
L 211.650611 120.293907 
L 216.364912 141.64 
L 214.435048 141.64 
L 213.119232 135.246866 
L 207.980473 135.246866 
L 206.574106 141.64 
L 204.771579 141.64 
L 209.661323 120.293907 
z
M 210.57249 120.293907 
L 210.57249 120.293907 
z
" style="fill:#008000;"/>
   </g>
   <g id="patch_40">
    <path clip-path="url(#pf483a7e7d5)" d="M 216.364912 94.045023 
L 216.364912 97.172476 
L 211.550178 97.172476 
L 211.550178 120.293907 
L 209.586314 120.293907 
L 209.586314 97.172476 
L 204.771579 97.172476 
L 204.771579 94.045023 
L 216.364912 94.045023 
z
" style="fill:#ff0000;"/>
   </g>
   <g id="patch_41">
    <path clip-path="url(#pf483a7e7d5)" d="M 210.86719 61.91279 
Q 213.349848 61.91279 214.719297 64.969838 
Q 216.088745 68.020241 216.239641 71.901362 
L 214.514307 71.901362 
Q 214.221057 68.957292 213.344154 67.236041 
Q 212.467252 65.508145 210.884272 65.508145 
Q 208.953948 65.508145 207.766713 68.678171 
Q 206.579478 71.841551 206.579478 78.380975 
Q 206.579478 83.7441 207.649983 87.08027 
Q 208.723334 90.409794 210.850107 90.409794 
Q 212.806055 90.409794 213.831006 86.900835 
Q 214.371952 85.053314 214.639578 82.036141 
L 216.364912 82.036141 
Q 216.134298 86.854314 214.836027 90.117381 
Q 213.278671 94.045023 210.636576 94.045023 
Q 208.358907 94.045023 206.810092 90.821831 
Q 204.771579 86.568547 204.771579 77.676525 
Q 204.771579 70.931082 206.303311 66.61134 
Q 207.957468 61.91279 210.86719 61.91279 
z
M 210.511304 61.91279 
L 210.511304 61.91279 
z
" style="fill:#0000ff;"/>
   </g>
   <g id="patch_42">
    <path clip-path="url(#pf483a7e7d5)" d="M 210.750687 28.84791 
Q 212.539168 28.84791 213.843901 30.558989 
Q 215.73466 33.016097 216.157592 39.17598 
L 214.457568 39.17598 
Q 214.145206 35.73329 213.16942 34.159098 
Q 212.193634 32.584906 210.706459 32.584906 
Q 208.945621 32.584906 207.740401 35.863332 
Q 206.535181 39.134914 206.535181 45.616479 
Q 206.535181 51.215128 207.527553 54.733105 
Q 208.522688 58.251083 210.767273 58.251083 
Q 212.486647 58.251083 213.614467 55.78713 
Q 214.742288 53.316332 214.767166 47.792971 
L 210.794915 47.792971 
L 210.794915 44.268149 
L 216.364912 44.268149 
L 216.364912 61.077784 
L 215.259206 61.077784 
L 214.844566 57.032795 
Q 213.973822 59.407772 213.299341 60.331754 
Q 212.165992 61.91279 210.421739 61.91279 
Q 208.168862 61.91279 206.543474 58.298993 
Q 204.771579 53.761213 204.771579 45.849186 
Q 204.771579 37.957692 206.499245 33.296714 
Q 208.14122 28.84791 210.750687 28.84791 
z
M 210.465968 28.8 
L 210.465968 28.8 
z
" style="fill:#ffa600;"/>
   </g>
   <g id="patch_43">
    <path clip-path="url(#pf483a7e7d5)" d="M 223.070698 120.293907 
Q 225.553357 120.293907 226.922805 122.324766 
Q 228.292254 124.35121 228.443149 126.929517 
L 226.717815 126.929517 
Q 226.424565 124.973712 225.547663 123.83025 
Q 224.670761 122.682373 223.087781 122.682373 
Q 221.157457 122.682373 219.970222 124.788286 
Q 218.782987 126.889783 218.782987 131.234055 
Q 218.782987 134.796888 219.853491 137.013174 
Q 220.926843 139.225044 223.053616 139.225044 
Q 225.009564 139.225044 226.034515 136.893971 
Q 226.575461 135.666626 226.843087 133.662256 
L 228.568421 133.662256 
Q 228.337807 136.863067 227.039536 139.030788 
Q 225.48218 141.64 222.840084 141.64 
Q 220.562416 141.64 219.013601 139.498768 
Q 216.975088 136.673225 216.975088 130.766075 
Q 216.975088 126.28494 218.50682 123.415249 
Q 220.160977 120.293907 223.070698 120.293907 
z
M 222.714813 120.293907 
L 222.714813 120.293907 
z
" style="fill:#0000ff;"/>
   </g>
   <g id="patch_44">
    <path clip-path="url(#pf483a7e7d5)" d="M 224.756798 109.539354 
L 222.784488 97.944334 
L 220.687671 109.539354 
L 224.756798 109.539354 
z
M 221.864831 94.045023 
L 223.85412 94.045023 
L 228.568421 120.293907 
L 226.638557 120.293907 
L 225.32274 112.432392 
L 220.183982 112.432392 
L 218.777615 120.293907 
L 216.975088 120.293907 
L 221.864831 94.045023 
z
M 222.775999 94.045023 
L 222.775999 94.045023 
z
" style="fill:#008000;"/>
   </g>
   <g id="patch_45">
    <path clip-path="url(#pf483a7e7d5)" d="M 222.954196 61.959282 
Q 224.742676 61.959282 226.04741 63.619691 
Q 227.938168 66.004038 228.361101 71.98151 
L 226.661077 71.98151 
Q 226.348715 68.640767 225.372929 67.113191 
Q 224.397143 65.585615 222.909968 65.585615 
Q 221.14913 65.585615 219.94391 68.766958 
Q 218.73869 71.94166 218.73869 78.231289 
Q 218.73869 83.664147 219.731061 87.077947 
Q 220.726197 90.491748 222.970782 90.491748 
Q 224.690155 90.491748 225.817976 88.100759 
Q 226.945797 85.703129 226.970675 80.343329 
L 222.998424 80.343329 
L 222.998424 76.922887 
L 228.568421 76.922887 
L 228.568421 93.234743 
L 227.462714 93.234743 
L 227.048075 89.309537 
Q 226.177331 91.614184 225.50285 92.510805 
Q 224.3695 94.045023 222.625248 94.045023 
Q 220.372371 94.045023 218.746982 90.538239 
Q 216.975088 86.134835 216.975088 78.457104 
Q 216.975088 70.799299 218.702754 66.276345 
Q 220.344728 61.959282 222.954196 61.959282 
z
M 222.669477 61.91279 
L 222.669477 61.91279 
z
" style="fill:#ffa600;"/>
   </g>
   <g id="patch_46">
    <path clip-path="url(#pf483a7e7d5)" d="M 228.568421 28.8 
L 228.568421 32.745262 
L 223.753686 32.745262 
L 223.753686 61.91279 
L 221.789822 61.91279 
L 221.789822 32.745262 
L 216.975088 32.745262 
L 216.975088 28.8 
L 228.568421 28.8 
z
" style="fill:#ff0000;"/>
   </g>
   <g id="patch_47">
    <path clip-path="url(#pf483a7e7d5)" d="M 236.960307 130.885448 
L 234.987997 119.290428 
L 232.89118 130.885448 
L 236.960307 130.885448 
z
M 234.06834 115.391116 
L 236.057628 115.391116 
L 240.77193 141.64 
L 238.842066 141.64 
L 237.526249 133.778485 
L 232.387491 133.778485 
L 230.981124 141.64 
L 229.178596 141.64 
L 234.06834 115.391116 
z
M 234.979508 115.391116 
L 234.979508 115.391116 
z
" style="fill:#008000;"/>
   </g>
   <g id="patch_48">
    <path clip-path="url(#pf483a7e7d5)" d="M 235.274207 89.142232 
Q 237.756866 89.142232 239.126314 91.639541 
Q 240.495763 94.13142 240.646658 97.301916 
L 238.921324 97.301916 
Q 238.628074 94.8969 237.751172 93.490806 
Q 236.874269 92.079284 235.29129 92.079284 
Q 233.360966 92.079284 232.173731 94.668885 
Q 230.986496 97.253056 230.986496 102.595125 
Q 230.986496 106.976272 232.057 109.701596 
Q 233.130352 112.421491 235.257125 112.421491 
Q 237.213073 112.421491 238.238023 109.555015 
Q 238.77897 108.045772 239.046596 105.581037 
L 240.77193 105.581037 
Q 240.541316 109.517012 239.243045 112.182618 
Q 237.685689 115.391116 235.043593 115.391116 
Q 232.765925 115.391116 231.21711 112.758084 
Q 229.178596 109.283568 229.178596 102.019658 
Q 229.178596 96.509292 230.710329 92.980487 
Q 232.364485 89.142232 235.274207 89.142232 
z
M 234.918321 89.142232 
L 234.918321 89.142232 
z
" style="fill:#0000ff;"/>
   </g>
   <g id="patch_49">
    <path clip-path="url(#pf483a7e7d5)" d="M 235.157705 59.01477 
Q 236.946185 59.01477 238.250919 60.57384 
Q 240.141677 62.812664 240.56461 68.425315 
L 238.864586 68.425315 
Q 238.552224 65.288466 237.576438 63.854122 
Q 236.600652 62.419778 235.113476 62.419778 
Q 233.352639 62.419778 232.147419 65.406956 
Q 230.942198 68.387897 230.942198 74.293653 
Q 230.942198 79.394929 231.93457 82.600376 
Q 232.929706 85.805823 235.17429 85.805823 
Q 236.893664 85.805823 238.021485 83.560763 
Q 239.149305 81.309466 239.174184 76.276789 
L 235.201933 76.276789 
L 235.201933 73.065106 
L 240.77193 73.065106 
L 240.77193 88.381406 
L 239.666223 88.381406 
L 239.251583 84.695766 
Q 238.380839 86.859754 237.706358 87.701652 
Q 236.573009 89.142232 234.828757 89.142232 
Q 232.57588 89.142232 230.950491 85.849477 
Q 229.178596 81.714824 229.178596 74.505686 
Q 229.178596 67.315257 230.906263 63.068351 
Q 232.548237 59.01477 235.157705 59.01477 
z
M 234.872985 58.971116 
L 234.872985 58.971116 
z
" style="fill:#ffa600;"/>
   </g>
   <g id="patch_50">
    <path clip-path="url(#pf483a7e7d5)" d="M 240.77193 28.8 
L 240.77193 32.394773 
L 235.957195 32.394773 
L 235.957195 58.971116 
L 233.993331 58.971116 
L 233.993331 32.394773 
L 229.178596 32.394773 
L 229.178596 28.8 
L 240.77193 28.8 
z
" style="fill:#ff0000;"/>
   </g>
   <g id="patch_51">
    <path clip-path="url(#pf483a7e7d5)" d="M 249.163815 133.697691 
L 247.191506 125.134691 
L 245.094688 133.697691 
L 249.163815 133.697691 
z
M 246.271849 122.255023 
L 248.261137 122.255023 
L 252.975439 141.64 
L 251.045574 141.64 
L 249.729758 135.834218 
L 244.591 135.834218 
L 243.184632 141.64 
L 241.382105 141.64 
L 246.271849 122.255023 
z
M 247.183016 122.255023 
L 247.183016 122.255023 
z
" style="fill:#008000;"/>
   </g>
   <g id="patch_52">
    <path clip-path="url(#pf483a7e7d5)" d="M 247.477716 96.006139 
Q 249.960375 96.006139 251.329823 98.503447 
Q 252.699271 100.995327 252.850167 104.165823 
L 251.124833 104.165823 
Q 250.831583 101.760806 249.954681 100.354713 
Q 249.077778 98.943191 247.494798 98.943191 
Q 245.564474 98.943191 244.37724 101.532791 
Q 243.190005 104.116963 243.190005 109.459031 
Q 243.190005 113.840179 244.260509 116.565503 
Q 245.33386 119.285397 247.460633 119.285397 
Q 249.416581 119.285397 250.441532 116.418921 
Q 250.982479 114.909678 251.250105 112.444944 
L 252.975439 112.444944 
Q 252.744825 116.380919 251.446554 119.046524 
Q 249.889198 122.255023 247.247102 122.255023 
Q 244.969433 122.255023 243.420619 119.621991 
Q 241.382105 116.147475 241.382105 108.883565 
Q 241.382105 103.373199 242.913837 99.844394 
Q 244.567994 96.006139 247.477716 96.006139 
z
M 247.12183 96.006139 
L 247.12183 96.006139 
z
" style="fill:#0000ff;"/>
   </g>
   <g id="patch_53">
    <path clip-path="url(#pf483a7e7d5)" d="M 247.361214 65.878677 
Q 249.149694 65.878677 250.454428 67.437746 
Q 252.345186 69.67657 252.768119 75.289221 
L 251.068095 75.289221 
Q 250.755733 72.152373 249.779947 70.718029 
Q 248.804161 69.283685 247.316985 69.283685 
Q 245.556148 69.283685 244.350927 72.270862 
Q 243.145707 75.251804 243.145707 81.157559 
Q 243.145707 86.258835 244.138079 89.464283 
Q 245.133215 92.66973 247.377799 92.66973 
Q 249.097173 92.66973 250.224994 90.42467 
Q 251.352814 88.173373 251.377693 83.140696 
L 247.405442 83.140696 
L 247.405442 79.929013 
L 252.975439 79.929013 
L 252.975439 95.245313 
L 251.869732 95.245313 
L 251.455092 91.559672 
Q 250.584348 93.723661 249.909867 94.565559 
Q 248.776518 96.006139 247.032266 96.006139 
Q 244.779389 96.006139 243.154 92.713384 
Q 241.382105 88.578731 241.382105 81.369593 
Q 241.382105 74.179164 243.109772 69.932258 
Q 244.751746 65.878677 247.361214 65.878677 
z
M 247.076494 65.835023 
L 247.076494 65.835023 
z
" style="fill:#ffa600;"/>
   </g>
   <g id="patch_54">
    <path clip-path="url(#pf483a7e7d5)" d="M 252.975439 28.8 
L 252.975439 33.212581 
L 248.160704 33.212581 
L 248.160704 65.835023 
L 246.19684 65.835023 
L 246.19684 33.212581 
L 241.382105 33.212581 
L 241.382105 28.8 
L 252.975439 28.8 
z
" style="fill:#ff0000;"/>
   </g>
   <g id="patch_55">
    <path clip-path="url(#pf483a7e7d5)" d="M 259.681225 116.371674 
Q 262.163884 116.371674 263.533332 118.775693 
Q 264.90278 121.174485 265.053676 124.226544 
L 263.328342 124.226544 
Q 263.035092 121.911369 262.158189 120.557802 
Q 261.281287 119.199009 259.698307 119.199009 
Q 257.767983 119.199009 256.580748 121.691872 
Q 255.393514 124.179509 255.393514 129.322018 
Q 255.393514 133.539503 256.464018 136.163019 
Q 257.537369 138.781308 259.664142 138.781308 
Q 261.62009 138.781308 262.645041 136.021913 
Q 263.185987 134.56905 263.453613 132.196388 
L 265.178947 132.196388 
Q 264.948333 135.98533 263.650062 138.551359 
Q 262.092706 141.64 259.450611 141.64 
Q 257.172942 141.64 255.624127 139.105328 
Q 253.585614 135.760607 253.585614 128.768048 
Q 253.585614 123.463529 255.117346 120.066546 
Q 256.771503 116.371674 259.681225 116.371674 
z
M 259.325339 116.371674 
L 259.325339 116.371674 
z
" style="fill:#0000ff;"/>
   </g>
   <g id="patch_56">
    <path clip-path="url(#pf483a7e7d5)" d="M 259.564722 89.18163 
Q 261.353203 89.18163 262.657936 90.588691 
Q 264.548695 92.60923 264.971627 97.674649 
L 263.271604 97.674649 
Q 262.959241 94.843643 261.983455 93.549147 
Q 261.007669 92.254651 259.520494 92.254651 
Q 257.759656 92.254651 256.554436 94.95058 
Q 255.349216 97.64088 255.349216 102.970827 
Q 255.349216 107.57473 256.341588 110.467647 
Q 257.336724 113.360564 259.581308 113.360564 
Q 261.300682 113.360564 262.428502 111.334396 
Q 263.556323 109.3026 263.581201 104.760608 
L 259.608951 104.760608 
L 259.608951 101.862063 
L 265.178947 101.862063 
L 265.178947 115.685029 
L 264.073241 115.685029 
L 263.658601 112.358737 
Q 262.787857 114.311737 262.113376 115.07155 
Q 260.980027 116.371674 259.235775 116.371674 
Q 256.982897 116.371674 255.357509 113.399962 
Q 253.585614 109.668436 253.585614 103.162187 
Q 253.585614 96.672822 255.313281 92.839988 
Q 256.955255 89.18163 259.564722 89.18163 
z
M 259.280003 89.142232 
L 259.280003 89.142232 
z
" style="fill:#ffa600;"/>
   </g>
   <g id="patch_57">
    <path clip-path="url(#pf483a7e7d5)" d="M 265.178947 61.91279 
L 265.178947 65.157074 
L 260.364213 65.157074 
L 260.364213 89.142232 
L 258.400349 89.142232 
L 258.400349 65.157074 
L 253.585614 65.157074 
L 253.585614 61.91279 
L 265.178947 61.91279 
z
" style="fill:#ff0000;"/>
   </g>
   <g id="patch_58">
    <path clip-path="url(#pf483a7e7d5)" d="M 261.367324 48.345995 
L 259.395014 33.718955 
L 257.298197 48.345995 
L 261.367324 48.345995 
z
M 258.475358 28.8 
L 260.464646 28.8 
L 265.178947 61.91279 
L 263.249083 61.91279 
L 261.933267 51.995542 
L 256.794508 51.995542 
L 255.388141 61.91279 
L 253.585614 61.91279 
L 258.475358 28.8 
z
M 259.386525 28.8 
L 259.386525 28.8 
z
" style="fill:#008000;"/>
   </g>
   <g id="patch_59">
    <path clip-path="url(#pf483a7e7d5)" d="M 273.570833 130.885448 
L 271.598523 119.290428 
L 269.501706 130.885448 
L 273.570833 130.885448 
z
M 270.678867 115.391116 
L 272.668155 115.391116 
L 277.382456 141.64 
L 275.452592 141.64 
L 274.136776 133.778485 
L 268.998017 133.778485 
L 267.59165 141.64 
L 265.789123 141.64 
L 270.678867 115.391116 
z
M 271.590034 115.391116 
L 271.590034 115.391116 
z
" style="fill:#008000;"/>
   </g>
   <g id="patch_60">
    <path clip-path="url(#pf483a7e7d5)" d="M 271.768231 89.180211 
Q 273.556711 89.180211 274.861445 90.536603 
Q 276.752203 92.48438 277.175136 97.367389 
L 275.475112 97.367389 
Q 275.16275 94.63833 274.186964 93.39045 
Q 273.211178 92.14257 271.724003 92.14257 
Q 269.963165 92.14257 268.757945 94.741416 
Q 267.552725 97.334836 267.552725 102.472846 
Q 267.552725 106.910958 268.545096 109.699698 
Q 269.540232 112.488439 271.784817 112.488439 
Q 273.50419 112.488439 274.632011 110.535235 
Q 275.759832 108.576606 275.78471 104.198175 
L 271.812459 104.198175 
L 271.812459 101.404009 
L 277.382456 101.404009 
L 277.382456 114.729197 
L 276.27675 114.729197 
L 275.86211 111.522688 
Q 274.991366 113.405359 274.316885 114.137811 
Q 273.183535 115.391116 271.439283 115.391116 
Q 269.186406 115.391116 267.561018 112.526418 
Q 265.789123 108.929268 265.789123 102.657315 
Q 265.789123 96.401638 267.516789 92.706829 
Q 269.158764 89.180211 271.768231 89.180211 
z
M 271.483512 89.142232 
L 271.483512 89.142232 
z
" style="fill:#ffa600;"/>
   </g>
   <g id="patch_61">
    <path clip-path="url(#pf483a7e7d5)" d="M 271.884733 58.971116 
Q 274.367392 58.971116 275.736841 61.841584 
Q 277.106289 64.705812 277.257184 68.350059 
L 275.53185 68.350059 
Q 275.238601 65.585673 274.361698 63.969475 
Q 273.484796 62.347036 271.901816 62.347036 
Q 269.971492 62.347036 268.784257 65.323587 
Q 267.597022 68.293897 267.597022 74.434203 
Q 267.597022 79.470003 268.667527 82.602557 
Q 269.740878 85.728871 271.867651 85.728871 
Q 273.823599 85.728871 274.84855 82.434073 
Q 275.389496 80.699312 275.657122 77.866285 
L 277.382456 77.866285 
Q 277.151842 82.390392 275.853571 85.454305 
Q 274.296215 89.142232 271.65412 89.142232 
Q 269.376451 89.142232 267.827636 86.115761 
Q 265.789123 82.122066 265.789123 73.772748 
Q 265.789123 67.438997 267.320855 63.382901 
Q 268.975012 58.971116 271.884733 58.971116 
z
M 271.528848 58.971116 
L 271.528848 58.971116 
z
" style="fill:#0000ff;"/>
   </g>
   <g id="patch_62">
    <path clip-path="url(#pf483a7e7d5)" d="M 277.382456 28.8 
L 277.382456 32.394773 
L 272.567721 32.394773 
L 272.567721 58.971116 
L 270.603857 58.971116 
L 270.603857 32.394773 
L 265.789123 32.394773 
L 265.789123 28.8 
L 277.382456 28.8 
z
" style="fill:#ff0000;"/>
   </g>
   <g id="patch_63">
    <path clip-path="url(#pf483a7e7d5)" d="M 283.97174 117.387374 
Q 285.76022 117.387374 287.064954 118.642426 
Q 288.955712 120.444681 289.378645 124.962868 
L 287.678621 124.962868 
Q 287.366259 122.437703 286.390473 121.283055 
Q 285.414687 120.128408 283.927512 120.128408 
Q 282.166674 120.128408 280.961454 122.533087 
Q 279.756234 124.932747 279.756234 129.686884 
Q 279.756234 133.793414 280.748605 136.373802 
Q 281.743741 138.954189 283.988325 138.954189 
Q 285.707699 138.954189 286.83552 137.146914 
Q 287.963341 135.334618 287.988219 131.28331 
L 284.015968 131.28331 
L 284.015968 128.697903 
L 289.585965 128.697903 
L 289.585965 141.027535 
L 288.480258 141.027535 
L 288.065618 138.060591 
Q 287.194874 139.802604 286.520393 140.480332 
Q 285.387044 141.64 283.642792 141.64 
Q 281.389915 141.64 279.764526 138.98933 
Q 277.992632 135.660932 277.992632 129.857571 
Q 277.992632 124.069271 279.720298 120.650509 
Q 281.362272 117.387374 283.97174 117.387374 
z
M 283.68702 117.352232 
L 283.68702 117.352232 
z
" style="fill:#ffa600;"/>
   </g>
   <g id="patch_64">
    <path clip-path="url(#pf483a7e7d5)" d="M 284.088242 92.083907 
Q 286.570901 92.083907 287.940349 94.487925 
Q 289.309798 96.886718 289.460693 99.938776 
L 287.735359 99.938776 
Q 287.442109 97.623602 286.565207 96.270035 
Q 285.688304 94.911242 284.105325 94.911242 
Q 282.175001 94.911242 280.987766 97.404104 
Q 279.800531 99.891741 279.800531 105.03425 
Q 279.800531 109.251735 280.871035 111.875251 
Q 281.944387 114.493541 284.07116 114.493541 
Q 286.027108 114.493541 287.052059 111.734145 
Q 287.593005 110.281282 287.860631 107.90862 
L 289.585965 107.90862 
Q 289.355351 111.697563 288.05708 114.263591 
Q 286.499724 117.352232 283.857628 117.352232 
Q 281.57996 117.352232 280.031145 114.817561 
Q 277.992632 111.472839 277.992632 104.480281 
Q 277.992632 99.175761 279.524364 95.778779 
Q 281.178521 92.083907 284.088242 92.083907 
z
M 283.732357 92.083907 
L 283.732357 92.083907 
z
" style="fill:#0000ff;"/>
   </g>
   <g id="patch_65">
    <path clip-path="url(#pf483a7e7d5)" d="M 285.774342 79.320609 
L 283.802032 65.559861 
L 281.705215 79.320609 
L 285.774342 79.320609 
z
M 282.882375 60.932232 
L 284.871663 60.932232 
L 289.585965 92.083907 
L 287.656101 92.083907 
L 286.340284 82.754011 
L 281.201526 82.754011 
L 279.795159 92.083907 
L 277.992632 92.083907 
L 282.882375 60.932232 
z
M 283.793543 60.932232 
L 283.793543 60.932232 
z
" style="fill:#008000;"/>
   </g>
   <g id="patch_66">
    <path clip-path="url(#pf483a7e7d5)" d="M 289.585965 28.8 
L 289.585965 32.628432 
L 284.77123 32.628432 
L 284.77123 60.932232 
L 282.807366 60.932232 
L 282.807366 32.628432 
L 277.992632 32.628432 
L 277.992632 28.8 
L 289.585965 28.8 
z
" style="fill:#ff0000;"/>
   </g>
   <g id="patch_67">
    <path clip-path="url(#pf483a7e7d5)" d="M 297.977851 131.287197 
L 296.005541 120.125322 
L 293.908724 131.287197 
L 297.977851 131.287197 
z
M 295.085884 116.371674 
L 297.075172 116.371674 
L 301.789474 141.64 
L 299.85961 141.64 
L 298.543793 134.072161 
L 293.405035 134.072161 
L 291.998667 141.64 
L 290.19614 141.64 
L 295.085884 116.371674 
z
M 295.997052 116.371674 
L 295.997052 116.371674 
z
" style="fill:#008000;"/>
   </g>
   <g id="patch_68">
    <path clip-path="url(#pf483a7e7d5)" d="M 296.175249 89.18163 
Q 297.963729 89.18163 299.268463 90.588691 
Q 301.159221 92.60923 301.582154 97.674649 
L 299.88213 97.674649 
Q 299.569768 94.843643 298.593982 93.549147 
Q 297.618196 92.254651 296.13102 92.254651 
Q 294.370183 92.254651 293.164962 94.95058 
Q 291.959742 97.64088 291.959742 102.970827 
Q 291.959742 107.57473 292.952114 110.467647 
Q 293.94725 113.360564 296.191834 113.360564 
Q 297.911208 113.360564 299.039029 111.334396 
Q 300.166849 109.3026 300.191728 104.760608 
L 296.219477 104.760608 
L 296.219477 101.862063 
L 301.789474 101.862063 
L 301.789474 115.685029 
L 300.683767 115.685029 
L 300.269127 112.358737 
Q 299.398383 114.311737 298.723902 115.07155 
Q 297.590553 116.371674 295.846301 116.371674 
Q 293.593424 116.371674 291.968035 113.399962 
Q 290.19614 109.668436 290.19614 103.162187 
Q 290.19614 96.672822 291.923807 92.839988 
Q 293.565781 89.18163 296.175249 89.18163 
z
M 295.890529 89.142232 
L 295.890529 89.142232 
z
" style="fill:#ffa600;"/>
   </g>
   <g id="patch_69">
    <path clip-path="url(#pf483a7e7d5)" d="M 301.789474 59.951674 
L 301.789474 63.429617 
L 296.974739 63.429617 
L 296.974739 89.142232 
L 295.010875 89.142232 
L 295.010875 63.429617 
L 290.19614 63.429617 
L 290.19614 59.951674 
L 301.789474 59.951674 
z
" style="fill:#ff0000;"/>
   </g>
   <g id="patch_70">
    <path clip-path="url(#pf483a7e7d5)" d="M 296.291751 28.8 
Q 298.77441 28.8 300.143858 31.763758 
Q 301.513306 34.721073 301.664202 38.483757 
L 299.938868 38.483757 
Q 299.645618 35.629529 298.768716 33.960805 
Q 297.891813 32.285637 296.308834 32.285637 
Q 294.378509 32.285637 293.191275 35.358925 
Q 292.00404 38.425771 292.00404 44.765636 
Q 292.00404 49.965098 293.074544 53.19946 
Q 294.147895 56.427379 296.274669 56.427379 
Q 298.230616 56.427379 299.255567 53.025501 
Q 299.796514 51.23436 300.06414 48.30926 
L 301.789474 48.30926 
Q 301.55886 52.9804 300.260589 56.143889 
Q 298.703233 59.951674 296.061137 59.951674 
Q 293.783468 59.951674 292.234654 56.826842 
Q 290.19614 52.703353 290.19614 44.082683 
Q 290.19614 37.543086 291.727873 33.355167 
Q 293.382029 28.8 296.291751 28.8 
z
M 295.935865 28.8 
L 295.935865 28.8 
z
" style="fill:#0000ff;"/>
   </g>
   <g id="patch_71">
    <path clip-path="url(#pf483a7e7d5)" d="M 310.181359 133.697691 
L 308.209049 125.134691 
L 306.112232 133.697691 
L 310.181359 133.697691 
z
M 307.289393 122.255023 
L 309.278681 122.255023 
L 313.992982 141.64 
L 312.063118 141.64 
L 310.747302 135.834218 
L 305.608543 135.834218 
L 304.202176 141.64 
L 302.399649 141.64 
L 307.289393 122.255023 
z
M 308.20056 122.255023 
L 308.20056 122.255023 
z
" style="fill:#008000;"/>
   </g>
   <g id="patch_72">
    <path clip-path="url(#pf483a7e7d5)" d="M 308.378757 94.085839 
Q 310.167238 94.085839 311.471971 95.54357 
Q 313.36273 97.636871 313.785662 102.8847 
L 312.085639 102.8847 
Q 311.773277 99.951747 310.79749 98.610635 
Q 309.821704 97.269523 308.334529 97.269523 
Q 306.573691 97.269523 305.368471 100.062534 
Q 304.163251 102.849715 304.163251 108.371598 
Q 304.163251 113.141292 305.155623 116.138386 
Q 306.150759 119.13548 308.395343 119.13548 
Q 310.114717 119.13548 311.242537 117.036348 
Q 312.370358 114.931385 312.395236 110.225831 
L 308.422986 110.225831 
L 308.422986 107.222906 
L 313.992982 107.222906 
L 313.992982 121.54365 
L 312.887276 121.54365 
L 312.472636 118.097576 
Q 311.601892 120.120905 310.927411 120.90808 
Q 309.794062 122.255023 308.04981 122.255023 
Q 305.796933 122.255023 304.171544 119.176296 
Q 302.399649 115.310395 302.399649 108.569849 
Q 302.399649 101.846796 304.127316 97.875938 
Q 305.76929 94.085839 308.378757 94.085839 
z
M 308.094038 94.045023 
L 308.094038 94.045023 
z
" style="fill:#ffa600;"/>
   </g>
   <g id="patch_73">
    <path clip-path="url(#pf483a7e7d5)" d="M 313.992982 62.893349 
L 313.992982 66.604951 
L 309.178248 66.604951 
L 309.178248 94.045023 
L 307.214384 94.045023 
L 307.214384 66.604951 
L 302.399649 66.604951 
L 302.399649 62.893349 
L 313.992982 62.893349 
z
" style="fill:#ff0000;"/>
   </g>
   <g id="patch_74">
    <path clip-path="url(#pf483a7e7d5)" d="M 308.49526 28.8 
Q 310.977919 28.8 312.347367 32.043628 
Q 313.716815 35.280204 313.867711 39.398201 
L 312.142377 39.398201 
Q 311.849127 36.274447 310.972224 34.448143 
Q 310.095322 32.614788 308.512342 32.614788 
Q 306.582018 32.614788 305.394783 35.978289 
Q 304.207549 39.334739 304.207549 46.273282 
Q 304.207549 51.963733 305.278053 55.503518 
Q 306.351404 59.036252 308.478177 59.036252 
Q 310.434125 59.036252 311.459076 55.313131 
Q 312.000022 53.352852 312.267648 50.151532 
L 313.992982 50.151532 
Q 313.762369 55.263772 312.464097 58.725992 
Q 310.906741 62.893349 308.264646 62.893349 
Q 305.986977 62.893349 304.438163 59.473437 
Q 302.399649 54.960563 302.399649 45.525837 
Q 302.399649 38.368702 303.931381 33.785315 
Q 305.585538 28.8 308.49526 28.8 
z
M 308.139374 28.8 
L 308.139374 28.8 
z
" style="fill:#0000ff;"/>
   </g>
   <g id="patch_75">
    <path clip-path="url(#pf483a7e7d5)" d="M 322.384868 132.894193 
L 320.412558 123.464901 
L 318.315741 132.894193 
L 322.384868 132.894193 
z
M 319.492902 120.293907 
L 321.48219 120.293907 
L 326.196491 141.64 
L 324.266627 141.64 
L 322.950811 135.246866 
L 317.812052 135.246866 
L 316.405685 141.64 
L 314.603158 141.64 
L 319.492902 120.293907 
z
M 320.404069 120.293907 
L 320.404069 120.293907 
z
" style="fill:#008000;"/>
   </g>
   <g id="patch_76">
    <path clip-path="url(#pf483a7e7d5)" d="M 320.582266 92.124723 
Q 322.370747 92.124723 323.67548 93.582454 
Q 325.566238 95.675755 325.989171 100.923584 
L 324.289147 100.923584 
Q 323.976785 97.99063 323.000999 96.649518 
Q 322.025213 95.308406 320.538038 95.308406 
Q 318.7772 95.308406 317.57198 98.101418 
Q 316.36676 100.888599 316.36676 106.410482 
Q 316.36676 111.180176 317.359132 114.17727 
Q 318.354267 117.174363 320.598852 117.174363 
Q 322.318225 117.174363 323.446046 115.075232 
Q 324.573867 112.970269 324.598745 108.264715 
L 320.626494 108.264715 
L 320.626494 105.26179 
L 326.196491 105.26179 
L 326.196491 119.582534 
L 325.090785 119.582534 
L 324.676145 116.136459 
Q 323.805401 118.159789 323.13092 118.946964 
Q 321.997571 120.293907 320.253318 120.293907 
Q 318.000441 120.293907 316.375053 117.21518 
Q 314.603158 113.349279 314.603158 106.608733 
Q 314.603158 99.88568 316.330824 95.914822 
Q 317.972799 92.124723 320.582266 92.124723 
z
M 320.297547 92.083907 
L 320.297547 92.083907 
z
" style="fill:#ffa600;"/>
   </g>
   <g id="patch_77">
    <path clip-path="url(#pf483a7e7d5)" d="M 326.196491 60.932232 
L 326.196491 64.643835 
L 321.381757 64.643835 
L 321.381757 92.083907 
L 319.417893 92.083907 
L 319.417893 64.643835 
L 314.603158 64.643835 
L 314.603158 60.932232 
L 326.196491 60.932232 
z
" style="fill:#ff0000;"/>
   </g>
   <g id="patch_78">
    <path clip-path="url(#pf483a7e7d5)" d="M 320.698769 28.8 
Q 323.181427 28.8 324.550876 31.857048 
Q 325.920324 34.90745 326.071219 38.788572 
L 324.345885 38.788572 
Q 324.052636 35.844502 323.175733 34.123251 
Q 322.298831 32.395354 320.715851 32.395354 
Q 318.785527 32.395354 317.598292 35.56538 
Q 316.411057 38.72876 316.411057 45.268184 
Q 316.411057 50.63131 317.481562 53.96748 
Q 318.554913 57.297004 320.681686 57.297004 
Q 322.637634 57.297004 323.662585 53.788044 
Q 324.203531 51.940524 324.471157 48.92335 
L 326.196491 48.92335 
Q 325.965877 53.741524 324.667606 57.00459 
Q 323.11025 60.932232 320.468155 60.932232 
Q 318.190486 60.932232 316.641671 57.70904 
Q 314.603158 53.455756 314.603158 44.563734 
Q 314.603158 37.818291 316.13489 33.49855 
Q 317.789047 28.8 320.698769 28.8 
z
M 320.342883 28.8 
L 320.342883 28.8 
z
" style="fill:#0000ff;"/>
   </g>
   <g id="patch_79">
    <path clip-path="url(#pf483a7e7d5)" d="M 332.902277 117.352232 
Q 335.384936 117.352232 336.754384 119.662961 
Q 338.123833 121.968666 338.274728 124.902287 
L 336.549394 124.902287 
Q 336.256144 122.676955 335.379242 121.375914 
Q 334.50234 120.06985 332.91936 120.06985 
Q 330.989036 120.06985 329.801801 122.465975 
Q 328.614566 124.857077 328.614566 129.800027 
Q 328.614566 133.853849 329.68507 136.375557 
Q 330.758422 138.892242 332.885195 138.892242 
Q 334.841143 138.892242 335.866094 136.239928 
Q 336.40704 134.843444 336.674666 132.562855 
L 338.4 132.562855 
Q 338.169386 136.204764 336.871115 138.671216 
Q 335.313759 141.64 332.671663 141.64 
Q 330.393995 141.64 328.84518 139.203688 
Q 326.806667 135.988761 326.806667 129.267555 
Q 326.806667 124.168882 328.338399 120.903722 
Q 329.992556 117.352232 332.902277 117.352232 
z
M 332.546392 117.352232 
L 332.546392 117.352232 
z
" style="fill:#0000ff;"/>
   </g>
   <g id="patch_80">
    <path clip-path="url(#pf483a7e7d5)" d="M 334.588377 106.195931 
L 332.616067 94.167765 
L 330.51925 106.195931 
L 334.588377 106.195931 
z
M 331.69641 90.12279 
L 333.685698 90.12279 
L 338.4 117.352232 
L 336.470136 117.352232 
L 335.154319 109.197041 
L 330.015561 109.197041 
L 328.609194 117.352232 
L 326.806667 117.352232 
L 331.69641 90.12279 
z
M 332.607578 90.12279 
L 332.607578 90.12279 
z
" style="fill:#008000;"/>
   </g>
   <g id="patch_81">
    <path clip-path="url(#pf483a7e7d5)" d="M 332.785775 59.995328 
Q 334.574255 59.995328 335.878989 61.554398 
Q 337.769747 63.793222 338.19268 69.405873 
L 336.492656 69.405873 
Q 336.180294 66.269025 335.204508 64.83468 
Q 334.228722 63.400336 332.741547 63.400336 
Q 330.980709 63.400336 329.775489 66.387514 
Q 328.570269 69.368455 328.570269 75.274211 
Q 328.570269 80.375487 329.56264 83.580934 
Q 330.557776 86.786381 332.802361 86.786381 
Q 334.521734 86.786381 335.649555 84.541321 
Q 336.777376 82.290024 336.802254 77.257348 
L 332.830003 77.257348 
L 332.830003 74.045664 
L 338.4 74.045664 
L 338.4 89.361964 
L 337.294293 89.361964 
L 336.879653 85.676324 
Q 336.00891 87.840312 335.334429 88.68221 
Q 334.201079 90.12279 332.456827 90.12279 
Q 330.20395 90.12279 328.578561 86.830035 
Q 326.806667 82.695383 326.806667 75.486244 
Q 326.806667 68.295815 328.534333 64.048909 
Q 330.176307 59.995328 332.785775 59.995328 
z
M 332.501055 59.951674 
L 332.501055 59.951674 
z
" style="fill:#ffa600;"/>
   </g>
   <g id="patch_82">
    <path clip-path="url(#pf483a7e7d5)" d="M 338.4 28.8 
L 338.4 32.511602 
L 333.585265 32.511602 
L 333.585265 59.951674 
L 331.621401 59.951674 
L 331.621401 32.511602 
L 326.806667 32.511602 
L 326.806667 28.8 
L 338.4 28.8 
z
" style="fill:#ff0000;"/>
   </g>
   <g id="matplotlib.axis_1">
    <g id="xtick_1">
     <g id="line2d_2">
      <path clip-path="url(#pf483a7e7d5)" d="M 100.736667 141.64 
L 100.736667 28.8 
" style="fill:none;stroke:#cccccc;stroke-linecap:round;stroke-width:0.8;"/>
     </g>
     <g id="text_1">
      <!-- 0 -->
      <g style="fill:#262626;" transform="translate(95.175729 162.986875)scale(0.2 -0.2)">
       <defs>
        <path d="M 1731 4475 
Q 2600 4475 2988 3759 
Q 3288 3206 3288 2244 
Q 3288 1331 3016 734 
Q 2622 -122 1728 -122 
Q 922 -122 528 578 
Q 200 1163 200 2147 
Q 200 2909 397 3456 
Q 766 4475 1731 4475 
z
M 1725 391 
Q 2163 391 2422 778 
Q 2681 1166 2681 2222 
Q 2681 2984 2493 3476 
Q 2306 3969 1766 3969 
Q 1269 3969 1039 3501 
Q 809 3034 809 2125 
Q 809 1441 956 1025 
Q 1181 391 1725 391 
z
" id="Helvetica-30" transform="scale(0.015625)"/>
       </defs>
       <use xlink:href="#Helvetica-30"/>
      </g>
     </g>
    </g>
    <g id="xtick_2">
     <g id="line2d_3">
      <path clip-path="url(#pf483a7e7d5)" d="M 222.771754 141.64 
L 222.771754 28.8 
" style="fill:none;stroke:#cccccc;stroke-linecap:round;stroke-width:0.8;"/>
     </g>
     <g id="text_2">
      <!-- 10 -->
      <g style="fill:#262626;" transform="translate(211.649879 162.986875)scale(0.2 -0.2)">
       <defs>
        <path d="M 613 3169 
L 613 3600 
Q 1222 3659 1462 3798 
Q 1703 3938 1822 4456 
L 2266 4456 
L 2266 0 
L 1666 0 
L 1666 3169 
L 613 3169 
z
" id="Helvetica-31" transform="scale(0.015625)"/>
       </defs>
       <use xlink:href="#Helvetica-31"/>
       <use x="55.615234" xlink:href="#Helvetica-30"/>
      </g>
     </g>
    </g>
    <g id="text_3">
     <!-- Position -->
     <g style="fill:#262626;" transform="translate(172.20125 189.089219)scale(0.25 -0.25)">
      <defs>
       <path d="M 547 4591 
L 2613 4591 
Q 3225 4591 3600 4245 
Q 3975 3900 3975 3275 
Q 3975 2738 3640 2339 
Q 3306 1941 2613 1941 
L 1169 1941 
L 1169 0 
L 547 0 
L 547 4591 
z
M 3347 3272 
Q 3347 3778 2972 3959 
Q 2766 4056 2406 4056 
L 1169 4056 
L 1169 2466 
L 2406 2466 
Q 2825 2466 3086 2644 
Q 3347 2822 3347 3272 
z
" id="Helvetica-50" transform="scale(0.015625)"/>
       <path d="M 1741 363 
Q 2300 363 2508 786 
Q 2716 1209 2716 1728 
Q 2716 2197 2566 2491 
Q 2328 2953 1747 2953 
Q 1231 2953 997 2559 
Q 763 2166 763 1609 
Q 763 1075 997 719 
Q 1231 363 1741 363 
z
M 1763 3444 
Q 2409 3444 2856 3012 
Q 3303 2581 3303 1744 
Q 3303 934 2909 406 
Q 2516 -122 1688 -122 
Q 997 -122 590 345 
Q 184 813 184 1600 
Q 184 2444 612 2944 
Q 1041 3444 1763 3444 
z
M 1744 3428 
L 1744 3428 
z
" id="Helvetica-6f" transform="scale(0.015625)"/>
       <path d="M 747 1050 
Q 772 769 888 619 
Q 1100 347 1625 347 
Q 1938 347 2175 483 
Q 2413 619 2413 903 
Q 2413 1119 2222 1231 
Q 2100 1300 1741 1391 
L 1294 1503 
Q 866 1609 663 1741 
Q 300 1969 300 2372 
Q 300 2847 642 3140 
Q 984 3434 1563 3434 
Q 2319 3434 2653 2991 
Q 2863 2709 2856 2384 
L 2325 2384 
Q 2309 2575 2191 2731 
Q 1997 2953 1519 2953 
Q 1200 2953 1036 2831 
Q 872 2709 872 2509 
Q 872 2291 1088 2159 
Q 1213 2081 1456 2022 
L 1828 1931 
Q 2434 1784 2641 1647 
Q 2969 1431 2969 969 
Q 2969 522 2630 197 
Q 2291 -128 1597 -128 
Q 850 -128 539 211 
Q 228 550 206 1050 
L 747 1050 
z
M 1578 3428 
L 1578 3428 
z
" id="Helvetica-73" transform="scale(0.015625)"/>
       <path d="M 413 3331 
L 984 3331 
L 984 0 
L 413 0 
L 413 3331 
z
M 413 4591 
L 984 4591 
L 984 3953 
L 413 3953 
L 413 4591 
z
" id="Helvetica-69" transform="scale(0.015625)"/>
       <path d="M 525 4281 
L 1094 4281 
L 1094 3347 
L 1628 3347 
L 1628 2888 
L 1094 2888 
L 1094 703 
Q 1094 528 1213 469 
Q 1278 434 1431 434 
Q 1472 434 1519 436 
Q 1566 438 1628 444 
L 1628 0 
Q 1531 -28 1426 -40 
Q 1322 -53 1200 -53 
Q 806 -53 665 148 
Q 525 350 525 672 
L 525 2888 
L 72 2888 
L 72 3347 
L 525 3347 
L 525 4281 
z
" id="Helvetica-74" transform="scale(0.015625)"/>
       <path d="M 413 3347 
L 947 3347 
L 947 2872 
Q 1184 3166 1450 3294 
Q 1716 3422 2041 3422 
Q 2753 3422 3003 2925 
Q 3141 2653 3141 2147 
L 3141 0 
L 2569 0 
L 2569 2109 
Q 2569 2416 2478 2603 
Q 2328 2916 1934 2916 
Q 1734 2916 1606 2875 
Q 1375 2806 1200 2600 
Q 1059 2434 1017 2257 
Q 975 2081 975 1753 
L 975 0 
L 413 0 
L 413 3347 
z
M 1734 3428 
L 1734 3428 
z
" id="Helvetica-6e" transform="scale(0.015625)"/>
      </defs>
      <use xlink:href="#Helvetica-50"/>
      <use x="66.699219" xlink:href="#Helvetica-6f"/>
      <use x="122.314453" xlink:href="#Helvetica-73"/>
      <use x="172.314453" xlink:href="#Helvetica-69"/>
      <use x="194.53125" xlink:href="#Helvetica-74"/>
      <use x="222.314453" xlink:href="#Helvetica-69"/>
      <use x="244.53125" xlink:href="#Helvetica-6f"/>
      <use x="300.146484" xlink:href="#Helvetica-6e"/>
     </g>
    </g>
   </g>
   <g id="matplotlib.axis_2">
    <g id="ytick_1">
     <g id="line2d_4">
      <path clip-path="url(#pf483a7e7d5)" d="M 94.94 141.64 
L 338.4 141.64 
" style="fill:none;stroke:#cccccc;stroke-linecap:round;stroke-width:0.8;"/>
     </g>
     <g id="text_4">
      <!-- 0 -->
      <g style="fill:#262626;" transform="translate(76.818125 148.813438)scale(0.2 -0.2)">
       <use xlink:href="#Helvetica-30"/>
      </g>
     </g>
    </g>
    <g id="ytick_2">
     <g id="line2d_5">
      <path clip-path="url(#pf483a7e7d5)" d="M 94.94 113.43 
L 338.4 113.43 
" style="fill:none;stroke:#cccccc;stroke-linecap:round;stroke-width:0.8;"/>
     </g>
     <g id="text_5">
      <!-- 0.25 -->
      <g style="fill:#262626;" transform="translate(49.018125 120.603437)scale(0.2 -0.2)">
       <defs>
        <path d="M 547 681 
L 1200 681 
L 1200 0 
L 547 0 
L 547 681 
z
" id="Helvetica-2e" transform="scale(0.015625)"/>
        <path d="M 200 0 
Q 231 578 439 1006 
Q 647 1434 1250 1784 
L 1850 2131 
Q 2253 2366 2416 2531 
Q 2672 2791 2672 3125 
Q 2672 3516 2437 3745 
Q 2203 3975 1813 3975 
Q 1234 3975 1013 3538 
Q 894 3303 881 2888 
L 309 2888 
Q 319 3472 525 3841 
Q 891 4491 1816 4491 
Q 2584 4491 2939 4075 
Q 3294 3659 3294 3150 
Q 3294 2613 2916 2231 
Q 2697 2009 2131 1694 
L 1703 1456 
Q 1397 1288 1222 1134 
Q 909 863 828 531 
L 3272 531 
L 3272 0 
L 200 0 
z
" id="Helvetica-32" transform="scale(0.015625)"/>
        <path d="M 791 1141 
Q 847 659 1238 475 
Q 1438 381 1700 381 
Q 2200 381 2440 700 
Q 2681 1019 2681 1406 
Q 2681 1875 2395 2131 
Q 2109 2388 1709 2388 
Q 1419 2388 1211 2275 
Q 1003 2163 856 1963 
L 369 1991 
L 709 4400 
L 3034 4400 
L 3034 3856 
L 1131 3856 
L 941 2613 
Q 1097 2731 1238 2791 
Q 1488 2894 1816 2894 
Q 2431 2894 2859 2497 
Q 3288 2100 3288 1491 
Q 3288 856 2895 371 
Q 2503 -113 1644 -113 
Q 1097 -113 676 195 
Q 256 503 206 1141 
L 791 1141 
z
" id="Helvetica-35" transform="scale(0.015625)"/>
       </defs>
       <use xlink:href="#Helvetica-30"/>
       <use x="55.615234" xlink:href="#Helvetica-2e"/>
       <use x="83.398438" xlink:href="#Helvetica-32"/>
       <use x="139.013672" xlink:href="#Helvetica-35"/>
      </g>
     </g>
    </g>
    <g id="ytick_3">
     <g id="line2d_6">
      <path clip-path="url(#pf483a7e7d5)" d="M 94.94 85.22 
L 338.4 85.22 
" style="fill:none;stroke:#cccccc;stroke-linecap:round;stroke-width:0.8;"/>
     </g>
     <g id="text_6">
      <!-- 0.50 -->
      <g style="fill:#262626;" transform="translate(49.018125 92.393438)scale(0.2 -0.2)">
       <use xlink:href="#Helvetica-30"/>
       <use x="55.615234" xlink:href="#Helvetica-2e"/>
       <use x="83.398438" xlink:href="#Helvetica-35"/>
       <use x="139.013672" xlink:href="#Helvetica-30"/>
      </g>
     </g>
    </g>
    <g id="ytick_4">
     <g id="line2d_7">
      <path clip-path="url(#pf483a7e7d5)" d="M 94.94 57.01 
L 338.4 57.01 
" style="fill:none;stroke:#cccccc;stroke-linecap:round;stroke-width:0.8;"/>
     </g>
     <g id="text_7">
      <!-- 0.75 -->
      <g style="fill:#262626;" transform="translate(49.018125 64.183437)scale(0.2 -0.2)">
       <defs>
        <path d="M 3347 4400 
L 3347 3909 
Q 3131 3700 2773 3181 
Q 2416 2663 2141 2063 
Q 1869 1478 1728 997 
Q 1638 688 1494 0 
L 872 0 
Q 1084 1281 1809 2550 
Q 2238 3294 2709 3834 
L 234 3834 
L 234 4400 
L 3347 4400 
z
" id="Helvetica-37" transform="scale(0.015625)"/>
       </defs>
       <use xlink:href="#Helvetica-30"/>
       <use x="55.615234" xlink:href="#Helvetica-2e"/>
       <use x="83.398438" xlink:href="#Helvetica-37"/>
       <use x="139.013672" xlink:href="#Helvetica-35"/>
      </g>
     </g>
    </g>
    <g id="ytick_5">
     <g id="line2d_8">
      <path clip-path="url(#pf483a7e7d5)" d="M 94.94 28.8 
L 338.4 28.8 
" style="fill:none;stroke:#cccccc;stroke-linecap:round;stroke-width:0.8;"/>
     </g>
     <g id="text_8">
      <!-- 1.0 -->
      <g style="fill:#262626;" transform="translate(60.14 35.973437)scale(0.2 -0.2)">
       <use xlink:href="#Helvetica-31"/>
       <use x="55.615234" xlink:href="#Helvetica-2e"/>
       <use x="83.398438" xlink:href="#Helvetica-30"/>
      </g>
     </g>
    </g>
    <g id="text_9">
     <!-- Probability -->
     <g style="fill:#262626;" transform="translate(39.65875 143.579375)rotate(-90)scale(0.25 -0.25)">
      <defs>
       <path d="M 428 3347 
L 963 3347 
L 963 2769 
Q 1028 2938 1284 3180 
Q 1541 3422 1875 3422 
Q 1891 3422 1928 3419 
Q 1966 3416 2056 3406 
L 2056 2813 
Q 2006 2822 1964 2825 
Q 1922 2828 1872 2828 
Q 1447 2828 1219 2554 
Q 991 2281 991 1925 
L 991 0 
L 428 0 
L 428 3347 
z
" id="Helvetica-72" transform="scale(0.015625)"/>
       <path d="M 369 4606 
L 916 4606 
L 916 2941 
Q 1100 3181 1356 3307 
Q 1613 3434 1913 3434 
Q 2538 3434 2927 3004 
Q 3316 2575 3316 1738 
Q 3316 944 2931 419 
Q 2547 -106 1866 -106 
Q 1484 -106 1222 78 
Q 1066 188 888 428 
L 888 0 
L 369 0 
L 369 4606 
z
M 1831 391 
Q 2288 391 2514 753 
Q 2741 1116 2741 1709 
Q 2741 2238 2514 2584 
Q 2288 2931 1847 2931 
Q 1463 2931 1173 2647 
Q 884 2363 884 1709 
Q 884 1238 1003 944 
Q 1225 391 1831 391 
z
" id="Helvetica-62" transform="scale(0.015625)"/>
       <path d="M 844 891 
Q 844 647 1022 506 
Q 1200 366 1444 366 
Q 1741 366 2019 503 
Q 2488 731 2488 1250 
L 2488 1703 
Q 2384 1638 2221 1594 
Q 2059 1550 1903 1531 
L 1563 1488 
Q 1256 1447 1103 1359 
Q 844 1213 844 891 
z
M 2206 2028 
Q 2400 2053 2466 2191 
Q 2503 2266 2503 2406 
Q 2503 2694 2298 2823 
Q 2094 2953 1713 2953 
Q 1272 2953 1088 2716 
Q 984 2584 953 2325 
L 428 2325 
Q 444 2944 830 3186 
Q 1216 3428 1725 3428 
Q 2316 3428 2684 3203 
Q 3050 2978 3050 2503 
L 3050 575 
Q 3050 488 3086 434 
Q 3122 381 3238 381 
Q 3275 381 3322 386 
Q 3369 391 3422 400 
L 3422 -16 
Q 3291 -53 3222 -62 
Q 3153 -72 3034 -72 
Q 2744 -72 2613 134 
Q 2544 244 2516 444 
Q 2344 219 2022 53 
Q 1700 -113 1313 -113 
Q 847 -113 551 170 
Q 256 453 256 878 
Q 256 1344 547 1600 
Q 838 1856 1309 1916 
L 2206 2028 
z
M 1741 3428 
L 1741 3428 
z
" id="Helvetica-61" transform="scale(0.015625)"/>
       <path d="M 428 4591 
L 991 4591 
L 991 0 
L 428 0 
L 428 4591 
z
" id="Helvetica-6c" transform="scale(0.015625)"/>
       <path d="M 2503 3347 
L 3125 3347 
Q 3006 3025 2597 1878 
Q 2291 1016 2084 472 
Q 1597 -809 1397 -1090 
Q 1197 -1372 709 -1372 
Q 591 -1372 527 -1362 
Q 463 -1353 369 -1328 
L 369 -816 
Q 516 -856 581 -865 
Q 647 -875 697 -875 
Q 853 -875 926 -823 
Q 1000 -772 1050 -697 
Q 1066 -672 1162 -440 
Q 1259 -209 1303 -97 
L 66 3347 
L 703 3347 
L 1600 622 
L 2503 3347 
z
M 1597 3428 
L 1597 3428 
z
" id="Helvetica-79" transform="scale(0.015625)"/>
      </defs>
      <use xlink:href="#Helvetica-50"/>
      <use x="66.699219" xlink:href="#Helvetica-72"/>
      <use x="100" xlink:href="#Helvetica-6f"/>
      <use x="155.615234" xlink:href="#Helvetica-62"/>
      <use x="211.230469" xlink:href="#Helvetica-61"/>
      <use x="266.845703" xlink:href="#Helvetica-62"/>
      <use x="322.460938" xlink:href="#Helvetica-69"/>
      <use x="344.677734" xlink:href="#Helvetica-6c"/>
      <use x="366.894531" xlink:href="#Helvetica-69"/>
      <use x="389.111328" xlink:href="#Helvetica-74"/>
      <use x="416.894531" xlink:href="#Helvetica-79"/>
     </g>
    </g>
   </g>
   <g id="patch_83">
    <path d="M 94.94 141.64 
L 94.94 28.8 
" style="fill:none;stroke:#000000;stroke-linecap:square;stroke-linejoin:miter;"/>
   </g>
  </g>
 </g>
 <defs>
  <clipPath id="pf483a7e7d5">
   <rect height="112.84" width="243.46" x="94.94" y="28.8"/>
  </clipPath>
 </defs>
</svg>
