<?xml version="1.0" encoding="utf-8" standalone="no"?>
<!DOCTYPE svg PUBLIC "-//W3C//DTD SVG 1.1//EN"
  "http://www.w3.org/Graphics/SVG/1.1/DTD/svg11.dtd">
<svg height="144pt" version="1.1" viewBox="0 0 144 144" width="144pt" xmlns="http://www.w3.org/2000/svg" xmlns:xlink="http://www.w3.org/1999/xlink">
 <metadata>
  <rdf:RDF xmlns:cc="http://creativecommons.org/ns#" xmlns:dc="http://purl.org/dc/elements/1.1/" xmlns:rdf="http://www.w3.org/1999/02/22-rdf-syntax-ns#">
   <cc:Work>
    <dc:type rdf:resource="http://purl.org/dc/dcmitype/StillImage"/>
    <dc:date>2022-12-19T21:12:43.268735</dc:date>
    <dc:format>image/svg+xml</dc:format>
    <dc:creator>
     <cc:Agent>
      <dc:title>Matplotlib v3.4.2, https://matplotlib.org/</dc:title>
     </cc:Agent>
    </dc:creator>
   </cc:Work>
  </rdf:RDF>
 </metadata>
 <defs>
  <style type="text/css">*{stroke-linecap:butt;stroke-linejoin:round;}</style>
 </defs>
 <g id="figure_1">
  <g id="patch_1">
   <path d="M 0 144 
L 144 144 
L 144 0 
L 0 0 
z
" style="fill:#ffffff;"/>
  </g>
  <g id="axes_1">
   <g id="patch_2">
    <path d="M 18 128.16 
L 129.6 128.16 
L 129.6 17.28 
L 18 17.28 
z
" style="fill:#ffffff;"/>
   </g>
   <g id="matplotlib.axis_1">
    <g id="xtick_1">
     <g id="text_1">
      <!-- Original -->
      <g style="fill:#262626;" transform="translate(41.78125 204.0725)rotate(-90)scale(0.2 -0.2)">
       <defs>
        <path d="M 309 2231 
Q 309 3372 921 4017 
Q 1534 4663 2503 4663 
Q 3138 4663 3647 4359 
Q 4156 4056 4423 3514 
Q 4691 2972 4691 2284 
Q 4691 1588 4409 1038 
Q 4128 488 3612 205 
Q 3097 -78 2500 -78 
Q 1853 -78 1343 234 
Q 834 547 571 1087 
Q 309 1628 309 2231 
z
M 934 2222 
Q 934 1394 1379 917 
Q 1825 441 2497 441 
Q 3181 441 3623 922 
Q 4066 1403 4066 2288 
Q 4066 2847 3877 3264 
Q 3688 3681 3323 3911 
Q 2959 4141 2506 4141 
Q 1863 4141 1398 3698 
Q 934 3256 934 2222 
z
" id="ArialMT-4f" transform="scale(0.015625)"/>
        <path d="M 416 0 
L 416 3319 
L 922 3319 
L 922 2816 
Q 1116 3169 1280 3281 
Q 1444 3394 1641 3394 
Q 1925 3394 2219 3213 
L 2025 2691 
Q 1819 2813 1613 2813 
Q 1428 2813 1281 2702 
Q 1134 2591 1072 2394 
Q 978 2094 978 1738 
L 978 0 
L 416 0 
z
" id="ArialMT-72" transform="scale(0.015625)"/>
        <path d="M 425 3934 
L 425 4581 
L 988 4581 
L 988 3934 
L 425 3934 
z
M 425 0 
L 425 3319 
L 988 3319 
L 988 0 
L 425 0 
z
" id="ArialMT-69" transform="scale(0.015625)"/>
        <path d="M 319 -275 
L 866 -356 
Q 900 -609 1056 -725 
Q 1266 -881 1628 -881 
Q 2019 -881 2231 -725 
Q 2444 -569 2519 -288 
Q 2563 -116 2559 434 
Q 2191 0 1641 0 
Q 956 0 581 494 
Q 206 988 206 1678 
Q 206 2153 378 2554 
Q 550 2956 876 3175 
Q 1203 3394 1644 3394 
Q 2231 3394 2613 2919 
L 2613 3319 
L 3131 3319 
L 3131 450 
Q 3131 -325 2973 -648 
Q 2816 -972 2473 -1159 
Q 2131 -1347 1631 -1347 
Q 1038 -1347 672 -1080 
Q 306 -813 319 -275 
z
M 784 1719 
Q 784 1066 1043 766 
Q 1303 466 1694 466 
Q 2081 466 2343 764 
Q 2606 1063 2606 1700 
Q 2606 2309 2336 2618 
Q 2066 2928 1684 2928 
Q 1309 2928 1046 2623 
Q 784 2319 784 1719 
z
" id="ArialMT-67" transform="scale(0.015625)"/>
        <path d="M 422 0 
L 422 3319 
L 928 3319 
L 928 2847 
Q 1294 3394 1984 3394 
Q 2284 3394 2536 3286 
Q 2788 3178 2913 3003 
Q 3038 2828 3088 2588 
Q 3119 2431 3119 2041 
L 3119 0 
L 2556 0 
L 2556 2019 
Q 2556 2363 2490 2533 
Q 2425 2703 2258 2804 
Q 2091 2906 1866 2906 
Q 1506 2906 1245 2678 
Q 984 2450 984 1813 
L 984 0 
L 422 0 
z
" id="ArialMT-6e" transform="scale(0.015625)"/>
        <path d="M 2588 409 
Q 2275 144 1986 34 
Q 1697 -75 1366 -75 
Q 819 -75 525 192 
Q 231 459 231 875 
Q 231 1119 342 1320 
Q 453 1522 633 1644 
Q 813 1766 1038 1828 
Q 1203 1872 1538 1913 
Q 2219 1994 2541 2106 
Q 2544 2222 2544 2253 
Q 2544 2597 2384 2738 
Q 2169 2928 1744 2928 
Q 1347 2928 1158 2789 
Q 969 2650 878 2297 
L 328 2372 
Q 403 2725 575 2942 
Q 747 3159 1072 3276 
Q 1397 3394 1825 3394 
Q 2250 3394 2515 3294 
Q 2781 3194 2906 3042 
Q 3031 2891 3081 2659 
Q 3109 2516 3109 2141 
L 3109 1391 
Q 3109 606 3145 398 
Q 3181 191 3288 0 
L 2700 0 
Q 2613 175 2588 409 
z
M 2541 1666 
Q 2234 1541 1622 1453 
Q 1275 1403 1131 1340 
Q 988 1278 909 1158 
Q 831 1038 831 891 
Q 831 666 1001 516 
Q 1172 366 1500 366 
Q 1825 366 2078 508 
Q 2331 650 2450 897 
Q 2541 1088 2541 1459 
L 2541 1666 
z
" id="ArialMT-61" transform="scale(0.015625)"/>
        <path d="M 409 0 
L 409 4581 
L 972 4581 
L 972 0 
L 409 0 
z
" id="ArialMT-6c" transform="scale(0.015625)"/>
       </defs>
       <use xlink:href="#ArialMT-4f"/>
       <use x="77.783203" xlink:href="#ArialMT-72"/>
       <use x="111.083984" xlink:href="#ArialMT-69"/>
       <use x="133.300781" xlink:href="#ArialMT-67"/>
       <use x="188.916016" xlink:href="#ArialMT-69"/>
       <use x="211.132812" xlink:href="#ArialMT-6e"/>
       <use x="266.748047" xlink:href="#ArialMT-61"/>
       <use x="322.363281" xlink:href="#ArialMT-6c"/>
      </g>
     </g>
    </g>
    <g id="xtick_2">
     <g id="text_2">
      <!-- Mutated -->
      <g style="fill:#262626;" transform="translate(78.970312 207.419375)rotate(-90)scale(0.2 -0.2)">
       <defs>
        <path d="M 475 0 
L 475 4581 
L 1388 4581 
L 2472 1338 
Q 2622 884 2691 659 
Q 2769 909 2934 1394 
L 4031 4581 
L 4847 4581 
L 4847 0 
L 4263 0 
L 4263 3834 
L 2931 0 
L 2384 0 
L 1059 3900 
L 1059 0 
L 475 0 
z
" id="ArialMT-4d" transform="scale(0.015625)"/>
        <path d="M 2597 0 
L 2597 488 
Q 2209 -75 1544 -75 
Q 1250 -75 995 37 
Q 741 150 617 320 
Q 494 491 444 738 
Q 409 903 409 1263 
L 409 3319 
L 972 3319 
L 972 1478 
Q 972 1038 1006 884 
Q 1059 663 1231 536 
Q 1403 409 1656 409 
Q 1909 409 2131 539 
Q 2353 669 2445 892 
Q 2538 1116 2538 1541 
L 2538 3319 
L 3100 3319 
L 3100 0 
L 2597 0 
z
" id="ArialMT-75" transform="scale(0.015625)"/>
        <path d="M 1650 503 
L 1731 6 
Q 1494 -44 1306 -44 
Q 1000 -44 831 53 
Q 663 150 594 308 
Q 525 466 525 972 
L 525 2881 
L 113 2881 
L 113 3319 
L 525 3319 
L 525 4141 
L 1084 4478 
L 1084 3319 
L 1650 3319 
L 1650 2881 
L 1084 2881 
L 1084 941 
Q 1084 700 1114 631 
Q 1144 563 1211 522 
Q 1278 481 1403 481 
Q 1497 481 1650 503 
z
" id="ArialMT-74" transform="scale(0.015625)"/>
        <path d="M 2694 1069 
L 3275 997 
Q 3138 488 2766 206 
Q 2394 -75 1816 -75 
Q 1088 -75 661 373 
Q 234 822 234 1631 
Q 234 2469 665 2931 
Q 1097 3394 1784 3394 
Q 2450 3394 2872 2941 
Q 3294 2488 3294 1666 
Q 3294 1616 3291 1516 
L 816 1516 
Q 847 969 1125 678 
Q 1403 388 1819 388 
Q 2128 388 2347 550 
Q 2566 713 2694 1069 
z
M 847 1978 
L 2700 1978 
Q 2663 2397 2488 2606 
Q 2219 2931 1791 2931 
Q 1403 2931 1139 2672 
Q 875 2413 847 1978 
z
" id="ArialMT-65" transform="scale(0.015625)"/>
        <path d="M 2575 0 
L 2575 419 
Q 2259 -75 1647 -75 
Q 1250 -75 917 144 
Q 584 363 401 755 
Q 219 1147 219 1656 
Q 219 2153 384 2558 
Q 550 2963 881 3178 
Q 1213 3394 1622 3394 
Q 1922 3394 2156 3267 
Q 2391 3141 2538 2938 
L 2538 4581 
L 3097 4581 
L 3097 0 
L 2575 0 
z
M 797 1656 
Q 797 1019 1065 703 
Q 1334 388 1700 388 
Q 2069 388 2326 689 
Q 2584 991 2584 1609 
Q 2584 2291 2321 2609 
Q 2059 2928 1675 2928 
Q 1300 2928 1048 2622 
Q 797 2316 797 1656 
z
" id="ArialMT-64" transform="scale(0.015625)"/>
       </defs>
       <use xlink:href="#ArialMT-4d"/>
       <use x="83.300781" xlink:href="#ArialMT-75"/>
       <use x="138.916016" xlink:href="#ArialMT-74"/>
       <use x="166.699219" xlink:href="#ArialMT-61"/>
       <use x="222.314453" xlink:href="#ArialMT-74"/>
       <use x="250.097656" xlink:href="#ArialMT-65"/>
       <use x="305.712891" xlink:href="#ArialMT-64"/>
      </g>
     </g>
    </g>
    <g id="xtick_3">
     <g id="text_3">
      <!-- STORM -->
      <g style="fill:#262626;" transform="translate(116.170312 207.025625)rotate(-90)scale(0.2 -0.2)">
       <defs>
        <path d="M 288 1472 
L 859 1522 
Q 900 1178 1048 958 
Q 1197 738 1509 602 
Q 1822 466 2213 466 
Q 2559 466 2825 569 
Q 3091 672 3220 851 
Q 3350 1031 3350 1244 
Q 3350 1459 3225 1620 
Q 3100 1781 2813 1891 
Q 2628 1963 1997 2114 
Q 1366 2266 1113 2400 
Q 784 2572 623 2826 
Q 463 3081 463 3397 
Q 463 3744 659 4045 
Q 856 4347 1234 4503 
Q 1613 4659 2075 4659 
Q 2584 4659 2973 4495 
Q 3363 4331 3572 4012 
Q 3781 3694 3797 3291 
L 3216 3247 
Q 3169 3681 2898 3903 
Q 2628 4125 2100 4125 
Q 1550 4125 1298 3923 
Q 1047 3722 1047 3438 
Q 1047 3191 1225 3031 
Q 1400 2872 2139 2705 
Q 2878 2538 3153 2413 
Q 3553 2228 3743 1945 
Q 3934 1663 3934 1294 
Q 3934 928 3725 604 
Q 3516 281 3123 101 
Q 2731 -78 2241 -78 
Q 1619 -78 1198 103 
Q 778 284 539 648 
Q 300 1013 288 1472 
z
" id="ArialMT-53" transform="scale(0.015625)"/>
        <path d="M 1659 0 
L 1659 4041 
L 150 4041 
L 150 4581 
L 3781 4581 
L 3781 4041 
L 2266 4041 
L 2266 0 
L 1659 0 
z
" id="ArialMT-54" transform="scale(0.015625)"/>
        <path d="M 503 0 
L 503 4581 
L 2534 4581 
Q 3147 4581 3465 4457 
Q 3784 4334 3975 4021 
Q 4166 3709 4166 3331 
Q 4166 2844 3850 2509 
Q 3534 2175 2875 2084 
Q 3116 1969 3241 1856 
Q 3506 1613 3744 1247 
L 4541 0 
L 3778 0 
L 3172 953 
Q 2906 1366 2734 1584 
Q 2563 1803 2427 1890 
Q 2291 1978 2150 2013 
Q 2047 2034 1813 2034 
L 1109 2034 
L 1109 0 
L 503 0 
z
M 1109 2559 
L 2413 2559 
Q 2828 2559 3062 2645 
Q 3297 2731 3419 2920 
Q 3541 3109 3541 3331 
Q 3541 3656 3305 3865 
Q 3069 4075 2559 4075 
L 1109 4075 
L 1109 2559 
z
" id="ArialMT-52" transform="scale(0.015625)"/>
       </defs>
       <use xlink:href="#ArialMT-53"/>
       <use x="66.699219" xlink:href="#ArialMT-54"/>
       <use x="126.033203" xlink:href="#ArialMT-4f"/>
       <use x="203.816406" xlink:href="#ArialMT-52"/>
       <use x="276.033203" xlink:href="#ArialMT-4d"/>
      </g>
     </g>
    </g>
    <g id="text_4">
     <!-- Method -->
     <g style="fill:#262626;" transform="translate(40.448437 225.735)scale(0.2 -0.2)">
      <defs>
       <path d="M 422 0 
L 422 4581 
L 984 4581 
L 984 2938 
Q 1378 3394 1978 3394 
Q 2347 3394 2619 3248 
Q 2891 3103 3008 2847 
Q 3125 2591 3125 2103 
L 3125 0 
L 2563 0 
L 2563 2103 
Q 2563 2525 2380 2717 
Q 2197 2909 1863 2909 
Q 1613 2909 1392 2779 
Q 1172 2650 1078 2428 
Q 984 2206 984 1816 
L 984 0 
L 422 0 
z
" id="ArialMT-68" transform="scale(0.015625)"/>
       <path d="M 213 1659 
Q 213 2581 725 3025 
Q 1153 3394 1769 3394 
Q 2453 3394 2887 2945 
Q 3322 2497 3322 1706 
Q 3322 1066 3130 698 
Q 2938 331 2570 128 
Q 2203 -75 1769 -75 
Q 1072 -75 642 372 
Q 213 819 213 1659 
z
M 791 1659 
Q 791 1022 1069 705 
Q 1347 388 1769 388 
Q 2188 388 2466 706 
Q 2744 1025 2744 1678 
Q 2744 2294 2464 2611 
Q 2184 2928 1769 2928 
Q 1347 2928 1069 2612 
Q 791 2297 791 1659 
z
" id="ArialMT-6f" transform="scale(0.015625)"/>
      </defs>
      <use xlink:href="#ArialMT-4d"/>
      <use x="83.300781" xlink:href="#ArialMT-65"/>
      <use x="138.916016" xlink:href="#ArialMT-74"/>
      <use x="166.699219" xlink:href="#ArialMT-68"/>
      <use x="222.314453" xlink:href="#ArialMT-6f"/>
      <use x="277.929688" xlink:href="#ArialMT-64"/>
     </g>
    </g>
   </g>
   <g id="matplotlib.axis_2">
    <g id="ytick_1">
     <g id="text_5">
      <!-- 0 -->
      <g style="fill:#262626;" transform="translate(-0.121875 127.155765)scale(0.2 -0.2)">
       <defs>
        <path d="M 266 2259 
Q 266 3072 433 3567 
Q 600 4063 929 4331 
Q 1259 4600 1759 4600 
Q 2128 4600 2406 4451 
Q 2684 4303 2865 4023 
Q 3047 3744 3150 3342 
Q 3253 2941 3253 2259 
Q 3253 1453 3087 958 
Q 2922 463 2592 192 
Q 2263 -78 1759 -78 
Q 1097 -78 719 397 
Q 266 969 266 2259 
z
M 844 2259 
Q 844 1131 1108 757 
Q 1372 384 1759 384 
Q 2147 384 2411 759 
Q 2675 1134 2675 2259 
Q 2675 3391 2411 3762 
Q 2147 4134 1753 4134 
Q 1366 4134 1134 3806 
Q 844 3388 844 2259 
z
" id="ArialMT-30" transform="scale(0.015625)"/>
       </defs>
       <use xlink:href="#ArialMT-30"/>
      </g>
     </g>
    </g>
    <g id="ytick_2">
     <g id="text_6">
      <!-- 1 -->
      <g style="fill:#262626;" transform="translate(-0.121875 32.59986)scale(0.2 -0.2)">
       <defs>
        <path d="M 2384 0 
L 1822 0 
L 1822 3584 
Q 1619 3391 1289 3197 
Q 959 3003 697 2906 
L 697 3450 
Q 1169 3672 1522 3987 
Q 1875 4303 2022 4600 
L 2384 4600 
L 2384 0 
z
" id="ArialMT-31" transform="scale(0.015625)"/>
       </defs>
       <use xlink:href="#ArialMT-31"/>
      </g>
     </g>
    </g>
    <g id="text_7">
     <!-- Predictions -->
     <g style="fill:#262626;" transform="translate(-8.096875 122.185625)rotate(-90)scale(0.2 -0.2)">
      <defs>
       <path d="M 494 0 
L 494 4581 
L 2222 4581 
Q 2678 4581 2919 4538 
Q 3256 4481 3484 4323 
Q 3713 4166 3852 3881 
Q 3991 3597 3991 3256 
Q 3991 2672 3619 2267 
Q 3247 1863 2275 1863 
L 1100 1863 
L 1100 0 
L 494 0 
z
M 1100 2403 
L 2284 2403 
Q 2872 2403 3119 2622 
Q 3366 2841 3366 3238 
Q 3366 3525 3220 3729 
Q 3075 3934 2838 4000 
Q 2684 4041 2272 4041 
L 1100 4041 
L 1100 2403 
z
" id="ArialMT-50" transform="scale(0.015625)"/>
       <path d="M 2588 1216 
L 3141 1144 
Q 3050 572 2676 248 
Q 2303 -75 1759 -75 
Q 1078 -75 664 370 
Q 250 816 250 1647 
Q 250 2184 428 2587 
Q 606 2991 970 3192 
Q 1334 3394 1763 3394 
Q 2303 3394 2647 3120 
Q 2991 2847 3088 2344 
L 2541 2259 
Q 2463 2594 2264 2762 
Q 2066 2931 1784 2931 
Q 1359 2931 1093 2626 
Q 828 2322 828 1663 
Q 828 994 1084 691 
Q 1341 388 1753 388 
Q 2084 388 2306 591 
Q 2528 794 2588 1216 
z
" id="ArialMT-63" transform="scale(0.015625)"/>
       <path d="M 197 991 
L 753 1078 
Q 800 744 1014 566 
Q 1228 388 1613 388 
Q 2000 388 2187 545 
Q 2375 703 2375 916 
Q 2375 1106 2209 1216 
Q 2094 1291 1634 1406 
Q 1016 1563 777 1677 
Q 538 1791 414 1992 
Q 291 2194 291 2438 
Q 291 2659 392 2848 
Q 494 3038 669 3163 
Q 800 3259 1026 3326 
Q 1253 3394 1513 3394 
Q 1903 3394 2198 3281 
Q 2494 3169 2634 2976 
Q 2775 2784 2828 2463 
L 2278 2388 
Q 2241 2644 2061 2787 
Q 1881 2931 1553 2931 
Q 1166 2931 1000 2803 
Q 834 2675 834 2503 
Q 834 2394 903 2306 
Q 972 2216 1119 2156 
Q 1203 2125 1616 2013 
Q 2213 1853 2448 1751 
Q 2684 1650 2818 1456 
Q 2953 1263 2953 975 
Q 2953 694 2789 445 
Q 2625 197 2315 61 
Q 2006 -75 1616 -75 
Q 969 -75 630 194 
Q 291 463 197 991 
z
" id="ArialMT-73" transform="scale(0.015625)"/>
      </defs>
      <use xlink:href="#ArialMT-50"/>
      <use x="66.699219" xlink:href="#ArialMT-72"/>
      <use x="100" xlink:href="#ArialMT-65"/>
      <use x="155.615234" xlink:href="#ArialMT-64"/>
      <use x="211.230469" xlink:href="#ArialMT-69"/>
      <use x="233.447266" xlink:href="#ArialMT-63"/>
      <use x="283.447266" xlink:href="#ArialMT-74"/>
      <use x="311.230469" xlink:href="#ArialMT-69"/>
      <use x="333.447266" xlink:href="#ArialMT-6f"/>
      <use x="389.0625" xlink:href="#ArialMT-6e"/>
      <use x="444.677734" xlink:href="#ArialMT-73"/>
     </g>
    </g>
   </g>
   <g id="PolyCollection_1">
    <defs>
     <path d="M 37.308374 -24.002048 
L 35.891626 -24.002048 
L 35.710487 -24.002048 
L 35.498203 -24.002048 
L 35.25378 -24.002048 
L 34.977428 -24.002048 
L 34.670806 -24.002048 
L 34.337201 -24.002048 
L 33.981615 -24.002048 
L 33.610741 -24.002048 
L 33.232791 -24.002048 
L 32.857187 -24.002048 
L 32.494108 -24.002048 
L 32.153914 -24.002048 
L 31.846489 -24.002048 
L 31.580545 -24.002048 
L 31.362947 -24.002048 
L 31.198124 -24.002048 
L 31.087618 -24.002048 
L 31.029836 -24.002048 
L 31.02002 -24.002048 
L 31.050478 -24.002048 
L 31.111048 -24.002048 
L 31.189783 -24.002048 
L 31.273803 -24.002048 
L 31.350249 -24.002048 
L 31.407268 -24.002048 
L 31.43494 -24.002048 
L 31.426084 -24.002048 
L 31.376863 -24.002048 
L 31.287134 -24.002048 
L 31.160532 -24.002048 
L 31.00425 -24.002048 
L 30.828555 -24.002048 
L 30.646059 -24.002048 
L 30.470821 -24.002048 
L 30.317335 -24.002048 
L 30.199495 -24.002048 
L 30.129619 -24.002048 
L 30.117601 -24.002048 
L 30.170261 -24.002048 
L 30.290936 -24.002048 
L 30.479331 -24.002048 
L 30.731633 -24.002048 
L 31.040864 -24.002048 
L 31.397422 -24.002048 
L 31.789767 -24.002048 
L 32.205177 -24.002048 
L 32.63051 -24.002048 
L 33.052918 -24.002048 
L 33.460462 -24.002048 
L 33.842593 -24.002048 
L 34.19049 -24.002048 
L 34.497247 -24.002048 
L 34.757926 -24.002048 
L 34.969495 -24.002048 
L 35.130687 -24.002048 
L 35.241804 -24.002048 
L 35.304498 -24.002048 
L 35.321551 -24.002048 
L 35.296665 -24.002048 
L 35.234286 -24.002048 
L 35.139448 -24.002048 
L 35.017639 -24.002048 
L 34.874684 -24.002048 
L 34.716643 -24.002048 
L 34.549695 -24.002048 
L 34.380024 -24.002048 
L 34.213692 -24.002048 
L 34.056503 -24.002048 
L 33.913854 -24.002048 
L 33.790594 -24.002048 
L 33.690882 -24.002048 
L 33.618069 -24.002048 
L 33.574592 -24.002048 
L 33.561916 -24.002048 
L 33.580499 -24.002048 
L 33.629807 -24.002048 
L 33.708362 -24.002048 
L 33.813834 -24.002048 
L 33.943164 -24.002048 
L 34.092712 -24.002048 
L 34.258424 -24.002048 
L 34.43601 -24.002048 
L 34.621123 -24.002048 
L 34.809523 -24.002048 
L 34.99723 -24.002048 
L 35.180652 -24.002048 
L 35.356683 -24.002048 
L 35.522771 -24.002048 
L 35.676954 -24.002048 
L 35.817864 -24.002048 
L 35.9447 -24.002048 
L 36.057187 -24.002048 
L 36.155505 -24.002048 
L 36.240214 -24.002048 
L 36.312168 -24.002048 
L 36.372433 -24.002048 
L 36.422209 -24.002048 
L 36.462753 -24.002048 
L 36.495323 -24.002048 
L 36.704677 -24.002048 
L 36.704677 -24.002048 
L 36.737247 -24.002048 
L 36.777791 -24.002048 
L 36.827567 -24.002048 
L 36.887832 -24.002048 
L 36.959786 -24.002048 
L 37.044495 -24.002048 
L 37.142813 -24.002048 
L 37.2553 -24.002048 
L 37.382136 -24.002048 
L 37.523046 -24.002048 
L 37.677229 -24.002048 
L 37.843317 -24.002048 
L 38.019348 -24.002048 
L 38.20277 -24.002048 
L 38.390477 -24.002048 
L 38.578877 -24.002048 
L 38.76399 -24.002048 
L 38.941576 -24.002048 
L 39.107288 -24.002048 
L 39.256836 -24.002048 
L 39.386166 -24.002048 
L 39.491638 -24.002048 
L 39.570193 -24.002048 
L 39.619501 -24.002048 
L 39.638084 -24.002048 
L 39.625408 -24.002048 
L 39.581931 -24.002048 
L 39.509118 -24.002048 
L 39.409406 -24.002048 
L 39.286146 -24.002048 
L 39.143497 -24.002048 
L 38.986308 -24.002048 
L 38.819976 -24.002048 
L 38.650305 -24.002048 
L 38.483357 -24.002048 
L 38.325316 -24.002048 
L 38.182361 -24.002048 
L 38.060552 -24.002048 
L 37.965714 -24.002048 
L 37.903335 -24.002048 
L 37.878449 -24.002048 
L 37.895502 -24.002048 
L 37.958196 -24.002048 
L 38.069313 -24.002048 
L 38.230505 -24.002048 
L 38.442074 -24.002048 
L 38.702753 -24.002048 
L 39.00951 -24.002048 
L 39.357407 -24.002048 
L 39.739538 -24.002048 
L 40.147082 -24.002048 
L 40.56949 -24.002048 
L 40.994823 -24.002048 
L 41.410233 -24.002048 
L 41.802578 -24.002048 
L 42.159136 -24.002048 
L 42.468367 -24.002048 
L 42.720669 -24.002048 
L 42.909064 -24.002048 
L 43.029739 -24.002048 
L 43.082399 -24.002048 
L 43.070381 -24.002048 
L 43.000505 -24.002048 
L 42.882665 -24.002048 
L 42.729179 -24.002048 
L 42.553941 -24.002048 
L 42.371445 -24.002048 
L 42.19575 -24.002048 
L 42.039468 -24.002048 
L 41.912866 -24.002048 
L 41.823137 -24.002048 
L 41.773916 -24.002048 
L 41.76506 -24.002048 
L 41.792732 -24.002048 
L 41.849751 -24.002048 
L 41.926197 -24.002048 
L 42.010217 -24.002048 
L 42.088952 -24.002048 
L 42.149522 -24.002048 
L 42.17998 -24.002048 
L 42.170164 -24.002048 
L 42.112382 -24.002048 
L 42.001876 -24.002048 
L 41.837053 -24.002048 
L 41.619455 -24.002048 
L 41.353511 -24.002048 
L 41.046086 -24.002048 
L 40.705892 -24.002048 
L 40.342813 -24.002048 
L 39.967209 -24.002048 
L 39.589259 -24.002048 
L 39.218385 -24.002048 
L 38.862799 -24.002048 
L 38.529194 -24.002048 
L 38.222572 -24.002048 
L 37.94622 -24.002048 
L 37.701797 -24.002048 
L 37.489513 -24.002048 
L 37.308374 -24.002048 
z
" id="me0a657decd" style="stroke:#262626;stroke-width:0.75;"/>
    </defs>
    <g clip-path="url(#p96749c16dd)">
     <use style="fill:#7f9dd2;stroke:#262626;stroke-width:0.75;" x="0" xlink:href="#me0a657decd" y="144"/>
    </g>
   </g>
   <g id="PolyCollection_2">
    <defs>
     <path d="M 73.8 -20.88 
L 73.8 -20.88 
L 73.8 -21.898182 
L 73.8 -22.916364 
L 73.8 -23.934545 
L 73.8 -24.952727 
L 73.8 -25.970909 
L 73.8 -26.989091 
L 73.8 -28.007273 
L 73.8 -29.025455 
L 73.8 -30.043636 
L 73.8 -31.061818 
L 73.8 -32.08 
L 73.8 -33.098182 
L 73.8 -34.116364 
L 73.8 -35.134545 
L 73.8 -36.152727 
L 73.8 -37.170909 
L 73.8 -38.189091 
L 73.8 -39.207273 
L 73.8 -40.225455 
L 73.8 -41.243636 
L 73.8 -42.261818 
L 73.8 -43.28 
L 73.8 -44.298182 
L 73.8 -45.316364 
L 73.8 -46.334545 
L 73.8 -47.352727 
L 73.8 -48.370909 
L 73.8 -49.389091 
L 73.8 -50.407273 
L 73.8 -51.425455 
L 73.8 -52.443636 
L 73.8 -53.461818 
L 73.8 -54.48 
L 73.8 -55.498182 
L 73.8 -56.516364 
L 73.8 -57.534545 
L 73.8 -58.552727 
L 73.8 -59.570909 
L 73.8 -60.589091 
L 73.8 -61.607273 
L 73.8 -62.625455 
L 73.8 -63.643636 
L 73.8 -64.661818 
L 73.8 -65.68 
L 73.8 -66.698182 
L 73.8 -67.716364 
L 73.8 -68.734545 
L 73.8 -69.752727 
L 73.8 -70.770909 
L 73.8 -71.789091 
L 73.8 -72.807273 
L 73.8 -73.825455 
L 73.8 -74.843636 
L 73.8 -75.861818 
L 73.8 -76.88 
L 73.8 -77.898182 
L 73.8 -78.916364 
L 73.8 -79.934545 
L 73.8 -80.952727 
L 73.8 -81.970909 
L 73.8 -82.989091 
L 73.8 -84.007273 
L 73.8 -85.025455 
L 73.8 -86.043636 
L 73.8 -87.061818 
L 73.8 -88.08 
L 73.8 -89.098182 
L 73.8 -90.116364 
L 73.8 -91.134545 
L 73.8 -92.152727 
L 73.8 -93.170909 
L 73.8 -94.189091 
L 73.8 -95.207273 
L 73.8 -96.225455 
L 73.8 -97.243636 
L 73.8 -98.261818 
L 73.8 -99.28 
L 73.8 -100.298182 
L 73.8 -101.316364 
L 73.8 -102.334545 
L 73.8 -103.352727 
L 73.8 -104.370909 
L 73.8 -105.389091 
L 73.8 -106.407273 
L 73.8 -107.425455 
L 73.8 -108.443636 
L 73.8 -109.461818 
L 73.8 -110.48 
L 73.8 -111.498182 
L 73.8 -112.516364 
L 73.8 -113.534545 
L 73.8 -114.552727 
L 73.8 -115.570909 
L 73.8 -116.589091 
L 73.8 -117.607273 
L 73.8 -118.625455 
L 73.8 -119.643636 
L 73.8 -120.661818 
L 73.8 -121.68 
L 73.8 -121.68 
L 73.8 -121.68 
L 73.8 -120.661818 
L 73.8 -119.643636 
L 73.8 -118.625455 
L 73.8 -117.607273 
L 73.8 -116.589091 
L 73.8 -115.570909 
L 73.8 -114.552727 
L 73.8 -113.534545 
L 73.8 -112.516364 
L 73.8 -111.498182 
L 73.8 -110.48 
L 73.8 -109.461818 
L 73.8 -108.443636 
L 73.8 -107.425455 
L 73.8 -106.407273 
L 73.8 -105.389091 
L 73.8 -104.370909 
L 73.8 -103.352727 
L 73.8 -102.334545 
L 73.8 -101.316364 
L 73.8 -100.298182 
L 73.8 -99.28 
L 73.8 -98.261818 
L 73.8 -97.243636 
L 73.8 -96.225455 
L 73.8 -95.207273 
L 73.8 -94.189091 
L 73.8 -93.170909 
L 73.8 -92.152727 
L 73.8 -91.134545 
L 73.8 -90.116364 
L 73.8 -89.098182 
L 73.8 -88.08 
L 73.8 -87.061818 
L 73.8 -86.043636 
L 73.8 -85.025455 
L 73.8 -84.007273 
L 73.8 -82.989091 
L 73.8 -81.970909 
L 73.8 -80.952727 
L 73.8 -79.934545 
L 73.8 -78.916364 
L 73.8 -77.898182 
L 73.8 -76.88 
L 73.8 -75.861818 
L 73.8 -74.843636 
L 73.8 -73.825455 
L 73.8 -72.807273 
L 73.8 -71.789091 
L 73.8 -70.770909 
L 73.8 -69.752727 
L 73.8 -68.734545 
L 73.8 -67.716364 
L 73.8 -66.698182 
L 73.8 -65.68 
L 73.8 -64.661818 
L 73.8 -63.643636 
L 73.8 -62.625455 
L 73.8 -61.607273 
L 73.8 -60.589091 
L 73.8 -59.570909 
L 73.8 -58.552727 
L 73.8 -57.534545 
L 73.8 -56.516364 
L 73.8 -55.498182 
L 73.8 -54.48 
L 73.8 -53.461818 
L 73.8 -52.443636 
L 73.8 -51.425455 
L 73.8 -50.407273 
L 73.8 -49.389091 
L 73.8 -48.370909 
L 73.8 -47.352727 
L 73.8 -46.334545 
L 73.8 -45.316364 
L 73.8 -44.298182 
L 73.8 -43.28 
L 73.8 -42.261818 
L 73.8 -41.243636 
L 73.8 -40.225455 
L 73.8 -39.207273 
L 73.8 -38.189091 
L 73.8 -37.170909 
L 73.8 -36.152727 
L 73.8 -35.134545 
L 73.8 -34.116364 
L 73.8 -33.098182 
L 73.8 -32.08 
L 73.8 -31.061818 
L 73.8 -30.043636 
L 73.8 -29.025455 
L 73.8 -28.007273 
L 73.8 -26.989091 
L 73.8 -25.970909 
L 73.8 -24.952727 
L 73.8 -23.934545 
L 73.8 -22.916364 
L 73.8 -21.898182 
L 73.8 -20.88 
z
" id="m9224338564" style="stroke:#262626;stroke-width:0.75;"/>
    </defs>
    <g clip-path="url(#p96749c16dd)">
     <use style="fill:#1a1a66;stroke:#262626;stroke-width:0.75;" x="0" xlink:href="#m9224338564" y="144"/>
    </g>
   </g>
   <g id="PolyCollection_3">
    <defs>
     <path d="M 111.5065 -24.002048 
L 110.4935 -24.002048 
L 110.415754 -24.002048 
L 110.329623 -24.002048 
L 110.234846 -24.002048 
L 110.131267 -24.002048 
L 110.018856 -24.002048 
L 109.897728 -24.002048 
L 109.768156 -24.002048 
L 109.630583 -24.002048 
L 109.485635 -24.002048 
L 109.334121 -24.002048 
L 109.17704 -24.002048 
L 109.015568 -24.002048 
L 108.851053 -24.002048 
L 108.684994 -24.002048 
L 108.519018 -24.002048 
L 108.354851 -24.002048 
L 108.194281 -24.002048 
L 108.039118 -24.002048 
L 107.891147 -24.002048 
L 107.75208 -24.002048 
L 107.623504 -24.002048 
L 107.506832 -24.002048 
L 107.403249 -24.002048 
L 107.313663 -24.002048 
L 107.238664 -24.002048 
L 107.178476 -24.002048 
L 107.132933 -24.002048 
L 107.101446 -24.002048 
L 107.08299 -24.002048 
L 107.076096 -24.002048 
L 107.078854 -24.002048 
L 107.088927 -24.002048 
L 107.103575 -24.002048 
L 107.119693 -24.002048 
L 107.133854 -24.002048 
L 107.142368 -24.002048 
L 107.141343 -24.002048 
L 107.126762 -24.002048 
L 107.094561 -24.002048 
L 107.040718 -24.002048 
L 106.96134 -24.002048 
L 106.852761 -24.002048 
L 106.711636 -24.002048 
L 106.535033 -24.002048 
L 106.32053 -24.002048 
L 106.066299 -24.002048 
L 105.771187 -24.002048 
L 105.434789 -24.002048 
L 105.057508 -24.002048 
L 104.640598 -24.002048 
L 104.186198 -24.002048 
L 103.697343 -24.002048 
L 103.177954 -24.002048 
L 102.632813 -24.002048 
L 102.067509 -24.002048 
L 101.488368 -24.002048 
L 100.902357 -24.002048 
L 100.316969 -24.002048 
L 99.740089 -24.002048 
L 99.179846 -24.002048 
L 98.64445 -24.002048 
L 98.142019 -24.002048 
L 97.680406 -24.002048 
L 97.267026 -24.002048 
L 96.908685 -24.002048 
L 96.611425 -24.002048 
L 96.380382 -24.002048 
L 96.219668 -24.002048 
L 96.132273 -24.002048 
L 96.12 -24.002048 
L 96.183424 -24.002048 
L 96.321891 -24.002048 
L 96.533535 -24.002048 
L 96.815344 -24.002048 
L 97.163236 -24.002048 
L 97.572171 -24.002048 
L 98.036283 -24.002048 
L 98.549027 -24.002048 
L 99.10334 -24.002048 
L 99.691806 -24.002048 
L 100.306829 -24.002048 
L 100.940791 -24.002048 
L 101.586214 -24.002048 
L 102.235901 -24.002048 
L 102.883064 -24.002048 
L 103.521434 -24.002048 
L 104.145347 -24.002048 
L 104.74981 -24.002048 
L 105.330546 -24.002048 
L 105.884015 -24.002048 
L 106.407416 -24.002048 
L 106.898673 -24.002048 
L 107.356397 -24.002048 
L 107.779845 -24.002048 
L 108.168859 -24.002048 
L 108.523804 -24.002048 
L 108.845498 -24.002048 
L 109.135135 -24.002048 
L 109.394221 -24.002048 
L 112.605779 -24.002048 
L 112.605779 -24.002048 
L 112.864865 -24.002048 
L 113.154502 -24.002048 
L 113.476196 -24.002048 
L 113.831141 -24.002048 
L 114.220155 -24.002048 
L 114.643603 -24.002048 
L 115.101327 -24.002048 
L 115.592584 -24.002048 
L 116.115985 -24.002048 
L 116.669454 -24.002048 
L 117.25019 -24.002048 
L 117.854653 -24.002048 
L 118.478566 -24.002048 
L 119.116936 -24.002048 
L 119.764099 -24.002048 
L 120.413786 -24.002048 
L 121.059209 -24.002048 
L 121.693171 -24.002048 
L 122.308194 -24.002048 
L 122.89666 -24.002048 
L 123.450973 -24.002048 
L 123.963717 -24.002048 
L 124.427829 -24.002048 
L 124.836764 -24.002048 
L 125.184656 -24.002048 
L 125.466465 -24.002048 
L 125.678109 -24.002048 
L 125.816576 -24.002048 
L 125.88 -24.002048 
L 125.867727 -24.002048 
L 125.780332 -24.002048 
L 125.619618 -24.002048 
L 125.388575 -24.002048 
L 125.091315 -24.002048 
L 124.732974 -24.002048 
L 124.319594 -24.002048 
L 123.857981 -24.002048 
L 123.35555 -24.002048 
L 122.820154 -24.002048 
L 122.259911 -24.002048 
L 121.683031 -24.002048 
L 121.097643 -24.002048 
L 120.511632 -24.002048 
L 119.932491 -24.002048 
L 119.367187 -24.002048 
L 118.822046 -24.002048 
L 118.302657 -24.002048 
L 117.813802 -24.002048 
L 117.359402 -24.002048 
L 116.942492 -24.002048 
L 116.565211 -24.002048 
L 116.228813 -24.002048 
L 115.933701 -24.002048 
L 115.67947 -24.002048 
L 115.464967 -24.002048 
L 115.288364 -24.002048 
L 115.147239 -24.002048 
L 115.03866 -24.002048 
L 114.959282 -24.002048 
L 114.905439 -24.002048 
L 114.873238 -24.002048 
L 114.858657 -24.002048 
L 114.857632 -24.002048 
L 114.866146 -24.002048 
L 114.880307 -24.002048 
L 114.896425 -24.002048 
L 114.911073 -24.002048 
L 114.921146 -24.002048 
L 114.923904 -24.002048 
L 114.91701 -24.002048 
L 114.898554 -24.002048 
L 114.867067 -24.002048 
L 114.821524 -24.002048 
L 114.761336 -24.002048 
L 114.686337 -24.002048 
L 114.596751 -24.002048 
L 114.493168 -24.002048 
L 114.376496 -24.002048 
L 114.24792 -24.002048 
L 114.108853 -24.002048 
L 113.960882 -24.002048 
L 113.805719 -24.002048 
L 113.645149 -24.002048 
L 113.480982 -24.002048 
L 113.315006 -24.002048 
L 113.148947 -24.002048 
L 112.984432 -24.002048 
L 112.82296 -24.002048 
L 112.665879 -24.002048 
L 112.514365 -24.002048 
L 112.369417 -24.002048 
L 112.231844 -24.002048 
L 112.102272 -24.002048 
L 111.981144 -24.002048 
L 111.868733 -24.002048 
L 111.765154 -24.002048 
L 111.670377 -24.002048 
L 111.584246 -24.002048 
L 111.5065 -24.002048 
z
" id="meefa133d78" style="stroke:#262626;stroke-width:0.75;"/>
    </defs>
    <g clip-path="url(#p96749c16dd)">
     <use style="fill:#cc8733;stroke:#262626;stroke-width:0.75;" x="0" xlink:href="#meefa133d78" y="144"/>
    </g>
   </g>
   <g id="line2d_1">
    <path clip-path="url(#p96749c16dd)" d="M 36.6 119.997952 
L 36.6 119.997952 
" style="fill:none;stroke:#262626;stroke-linecap:round;stroke-width:0.75;"/>
   </g>
   <g id="line2d_2">
    <path clip-path="url(#p96749c16dd)" d="M 36.6 119.997952 
L 36.6 119.997952 
" style="fill:none;stroke:#262626;stroke-linecap:round;stroke-width:2.25;"/>
   </g>
   <g id="line2d_3">
    <path clip-path="url(#p96749c16dd)" d="M 73.8 119.997952 
L 73.8 119.997952 
" style="fill:none;stroke:#262626;stroke-linecap:round;stroke-width:0.75;"/>
   </g>
   <g id="line2d_4">
    <path clip-path="url(#p96749c16dd)" d="M 73.8 119.997952 
L 73.8 119.997952 
" style="fill:none;stroke:#262626;stroke-linecap:round;stroke-width:2.25;"/>
   </g>
   <g id="line2d_5">
    <path clip-path="url(#p96749c16dd)" d="M 111 119.997952 
L 111 119.997952 
" style="fill:none;stroke:#262626;stroke-linecap:round;stroke-width:0.75;"/>
   </g>
   <g id="line2d_6">
    <path clip-path="url(#p96749c16dd)" d="M 111 119.997952 
L 111 119.997952 
" style="fill:none;stroke:#262626;stroke-linecap:round;stroke-width:2.25;"/>
   </g>
   <g id="patch_3">
    <path d="M 18 128.16 
L 18 17.28 
" style="fill:none;stroke:#262626;stroke-linecap:square;stroke-linejoin:miter;stroke-width:0.8;"/>
   </g>
   <g id="patch_4">
    <path d="M 18 128.16 
L 129.6 128.16 
" style="fill:none;stroke:#262626;stroke-linecap:square;stroke-linejoin:miter;stroke-width:0.8;"/>
   </g>
   <g id="PathCollection_1">
    <defs>
     <path d="M 0 0.75 
C 0.198902 0.75 0.389685 0.670975 0.53033 0.53033 
C 0.670975 0.389685 0.75 0.198902 0.75 0 
C 0.75 -0.198902 0.670975 -0.389685 0.53033 -0.53033 
C 0.389685 -0.670975 0.198902 -0.75 0 -0.75 
C -0.198902 -0.75 -0.389685 -0.670975 -0.53033 -0.53033 
C -0.670975 -0.389685 -0.75 -0.198902 -0.75 0 
C -0.75 0.198902 -0.670975 0.389685 -0.53033 0.53033 
C -0.389685 0.670975 -0.198902 0.75 0 0.75 
z
" id="mf0e06aa9dd" style="stroke:#262626;"/>
    </defs>
    <g clip-path="url(#p96749c16dd)">
     <use style="fill:#ffffff;stroke:#262626;" x="36.6" xlink:href="#mf0e06aa9dd" y="119.997952"/>
    </g>
   </g>
   <g id="PathCollection_2">
    <g clip-path="url(#p96749c16dd)">
     <use style="fill:#ffffff;stroke:#262626;" x="73.8" xlink:href="#mf0e06aa9dd" y="119.997952"/>
    </g>
   </g>
   <g id="PathCollection_3">
    <g clip-path="url(#p96749c16dd)">
     <use style="fill:#ffffff;stroke:#262626;" x="111" xlink:href="#mf0e06aa9dd" y="119.997952"/>
    </g>
   </g>
   <g id="text_8">
    <!-- Classb -->
    <g style="fill:#262626;" transform="translate(37.12125 11.28)scale(0.24 -0.24)">
     <defs>
      <path d="M 3763 1606 
L 4369 1453 
Q 4178 706 3683 314 
Q 3188 -78 2472 -78 
Q 1731 -78 1267 223 
Q 803 525 561 1097 
Q 319 1669 319 2325 
Q 319 3041 592 3573 
Q 866 4106 1370 4382 
Q 1875 4659 2481 4659 
Q 3169 4659 3637 4309 
Q 4106 3959 4291 3325 
L 3694 3184 
Q 3534 3684 3231 3912 
Q 2928 4141 2469 4141 
Q 1941 4141 1586 3887 
Q 1231 3634 1087 3207 
Q 944 2781 944 2328 
Q 944 1744 1114 1308 
Q 1284 872 1643 656 
Q 2003 441 2422 441 
Q 2931 441 3284 734 
Q 3638 1028 3763 1606 
z
" id="ArialMT-43" transform="scale(0.015625)"/>
      <path d="M 941 0 
L 419 0 
L 419 4581 
L 981 4581 
L 981 2947 
Q 1338 3394 1891 3394 
Q 2197 3394 2470 3270 
Q 2744 3147 2920 2923 
Q 3097 2700 3197 2384 
Q 3297 2069 3297 1709 
Q 3297 856 2875 390 
Q 2453 -75 1863 -75 
Q 1275 -75 941 416 
L 941 0 
z
M 934 1684 
Q 934 1088 1097 822 
Q 1363 388 1816 388 
Q 2184 388 2453 708 
Q 2722 1028 2722 1663 
Q 2722 2313 2464 2622 
Q 2206 2931 1841 2931 
Q 1472 2931 1203 2611 
Q 934 2291 934 1684 
z
" id="ArialMT-62" transform="scale(0.015625)"/>
     </defs>
     <use xlink:href="#ArialMT-43"/>
     <use x="72.216797" xlink:href="#ArialMT-6c"/>
     <use x="94.433594" xlink:href="#ArialMT-61"/>
     <use x="150.048828" xlink:href="#ArialMT-73"/>
     <use x="200.048828" xlink:href="#ArialMT-73"/>
     <use x="250.048828" xlink:href="#ArialMT-62"/>
    </g>
   </g>
  </g>
 </g>
 <defs>
  <clipPath id="p96749c16dd">
   <rect height="110.88" width="111.6" x="18" y="17.28"/>
  </clipPath>
 </defs>
</svg>
