<?xml version="1.0" encoding="utf-8" standalone="no"?>
<!DOCTYPE svg PUBLIC "-//W3C//DTD SVG 1.1//EN"
  "http://www.w3.org/Graphics/SVG/1.1/DTD/svg11.dtd">
<svg height="216pt" version="1.1" viewBox="0 0 360 216" width="360pt" xmlns="http://www.w3.org/2000/svg" xmlns:xlink="http://www.w3.org/1999/xlink">
 <metadata>
  <rdf:RDF xmlns:cc="http://creativecommons.org/ns#" xmlns:dc="http://purl.org/dc/elements/1.1/" xmlns:rdf="http://www.w3.org/1999/02/22-rdf-syntax-ns#">
   <cc:Work>
    <dc:type rdf:resource="http://purl.org/dc/dcmitype/StillImage"/>
    <dc:date>2022-12-19T21:13:21.050268</dc:date>
    <dc:format>image/svg+xml</dc:format>
    <dc:creator>
     <cc:Agent>
      <dc:title>Matplotlib v3.4.2, https://matplotlib.org/</dc:title>
     </cc:Agent>
    </dc:creator>
   </cc:Work>
  </rdf:RDF>
 </metadata>
 <defs>
  <style type="text/css">*{stroke-linecap:butt;stroke-linejoin:round;}</style>
 </defs>
 <g id="figure_1">
  <g id="patch_1">
   <path d="M 0 216 
L 360 216 
L 360 0 
L 0 0 
z
" style="fill:#ffffff;"/>
  </g>
  <g id="axes_1">
   <g id="patch_2">
    <path d="M 94.94 141.64 
L 338.4 141.64 
L 338.4 28.8 
L 94.94 28.8 
z
" style="fill:#ffffff;"/>
   </g>
   <g id="line2d_1">
    <path clip-path="url(#pca33a1b19b)" d="M 94.94 141.64 
L 338.4 141.64 
" style="fill:none;stroke:#000000;stroke-linecap:round;stroke-width:0.5;"/>
   </g>
   <g id="patch_3">
    <path clip-path="url(#pca33a1b19b)" d="M 102.72171 136.503089 
L 100.7494 130.964728 
L 98.652583 136.503089 
L 102.72171 136.503089 
z
M 99.829744 129.102222 
L 101.819032 129.102222 
L 106.533333 141.64 
L 104.603469 141.64 
L 103.287653 137.884948 
L 98.148894 137.884948 
L 96.742527 141.64 
L 94.94 141.64 
L 99.829744 129.102222 
z
M 100.740911 129.102222 
L 100.740911 129.102222 
z
" style="fill:#008000;"/>
   </g>
   <g id="patch_4">
    <path clip-path="url(#pca33a1b19b)" d="M 100.919108 104.062948 
Q 102.707589 104.062948 104.012322 105.358708 
Q 105.903081 107.21942 106.326013 111.884158 
L 104.62599 111.884158 
Q 104.313627 109.277088 103.337841 108.084988 
Q 102.362055 106.892889 100.87488 106.892889 
Q 99.114042 106.892889 97.908822 109.375566 
Q 96.703602 111.85306 96.703602 116.7614 
Q 96.703602 121.001128 97.695974 123.665212 
Q 98.69111 126.329295 100.935694 126.329295 
Q 102.655068 126.329295 103.782888 124.4634 
Q 104.910709 122.592322 104.935587 118.409607 
L 100.963337 118.409607 
L 100.963337 115.740341 
L 106.533333 115.740341 
L 106.533333 128.469891 
L 105.427627 128.469891 
L 105.012987 125.406714 
Q 104.142243 127.205229 103.467762 127.90494 
Q 102.334413 129.102222 100.590161 129.102222 
Q 98.337283 129.102222 96.711895 126.365576 
Q 94.94 122.92922 94.94 116.937623 
Q 94.94 110.961576 96.667667 107.431925 
Q 98.309641 104.062948 100.919108 104.062948 
z
M 100.634389 104.026667 
L 100.634389 104.026667 
z
" style="fill:#ffa600;"/>
   </g>
   <g id="patch_5">
    <path clip-path="url(#pca33a1b19b)" d="M 101.035611 66.413333 
Q 103.518269 66.413333 104.887718 69.991851 
Q 106.257166 73.562589 106.408062 78.105751 
L 104.682728 78.105751 
Q 104.389478 74.659483 103.512575 72.644622 
Q 102.635673 70.621981 101.052693 70.621981 
Q 99.122369 70.621981 97.935134 74.332749 
Q 96.747899 78.035737 96.747899 85.690653 
Q 96.747899 91.968618 97.818404 95.87387 
Q 98.891755 99.771342 101.018528 99.771342 
Q 102.974476 99.771342 103.999427 95.663826 
Q 104.540373 93.501157 104.807999 89.969315 
L 106.533333 89.969315 
Q 106.302719 95.609371 105.004448 99.429049 
Q 103.447092 104.026667 100.804997 104.026667 
Q 98.527328 104.026667 96.978513 100.253664 
Q 94.94 95.274857 94.94 84.866038 
Q 94.94 76.969961 96.471732 71.91336 
Q 98.125889 66.413333 101.035611 66.413333 
z
M 100.679725 66.413333 
L 100.679725 66.413333 
z
" style="fill:#0000ff;"/>
   </g>
   <g id="patch_6">
    <path clip-path="url(#pca33a1b19b)" d="M 106.533333 28.8 
L 106.533333 33.281484 
L 101.718599 33.281484 
L 101.718599 66.413333 
L 99.754735 66.413333 
L 99.754735 33.281484 
L 94.94 33.281484 
L 94.94 28.8 
L 106.533333 28.8 
z
" style="fill:#ff0000;"/>
   </g>
   <g id="patch_7">
    <path clip-path="url(#pca33a1b19b)" d="M 118.736842 129.102222 
L 118.736842 130.59605 
L 113.922107 130.59605 
L 113.922107 141.64 
L 111.958243 141.64 
L 111.958243 130.59605 
L 107.143509 130.59605 
L 107.143509 129.102222 
L 118.736842 129.102222 
z
" style="fill:#ff0000;"/>
   </g>
   <g id="patch_8">
    <path clip-path="url(#pca33a1b19b)" d="M 114.925219 118.8284 
L 112.952909 107.751678 
L 110.856092 118.8284 
L 114.925219 118.8284 
z
M 112.033252 104.026667 
L 114.022541 104.026667 
L 118.736842 129.102222 
L 116.806978 129.102222 
L 115.491162 121.592118 
L 110.352403 121.592118 
L 108.946036 129.102222 
L 107.143509 129.102222 
L 112.033252 104.026667 
z
M 112.94442 104.026667 
L 112.94442 104.026667 
z
" style="fill:#008000;"/>
   </g>
   <g id="patch_9">
    <path clip-path="url(#pca33a1b19b)" d="M 113.239119 78.951111 
Q 115.721778 78.951111 117.091227 81.33679 
Q 118.460675 83.717282 118.61157 86.746056 
L 116.886236 86.746056 
Q 116.592987 84.448544 115.716084 83.105303 
Q 114.839182 81.756876 113.256202 81.756876 
Q 111.325878 81.756876 110.138643 84.230721 
Q 108.951408 86.69938 108.951408 91.802657 
Q 108.951408 95.987967 110.021913 98.591469 
Q 111.095264 101.189784 113.222037 101.189784 
Q 115.177985 101.189784 116.202936 98.45144 
Q 116.743882 97.00966 117.011508 94.655099 
L 118.736842 94.655099 
Q 118.506228 98.415136 117.207957 100.961588 
Q 115.650601 104.026667 113.008505 104.026667 
Q 110.730837 104.026667 109.182022 101.511332 
Q 107.143509 98.192127 107.143509 91.252914 
Q 107.143509 85.988863 108.675241 82.617795 
Q 110.329398 78.951111 113.239119 78.951111 
z
M 112.883234 78.951111 
L 112.883234 78.951111 
z
" style="fill:#0000ff;"/>
   </g>
   <g id="patch_10">
    <path clip-path="url(#pca33a1b19b)" d="M 113.122617 28.872563 
Q 114.911097 28.872563 116.215831 31.464083 
Q 118.106589 35.185507 118.529522 44.514982 
L 116.829498 44.514982 
Q 116.517136 39.300842 115.54135 36.916643 
Q 114.565564 34.532444 113.078389 34.532444 
Q 111.317551 34.532444 110.112331 39.497798 
Q 108.907111 44.452786 108.907111 54.269467 
Q 108.907111 62.748923 109.899482 68.07709 
Q 110.894618 73.405257 113.139203 73.405257 
Q 114.858576 73.405257 115.986397 69.673467 
Q 117.114218 65.93131 117.139096 57.565881 
L 113.166845 57.565881 
L 113.166845 52.227348 
L 118.736842 52.227348 
L 118.736842 77.686449 
L 117.631136 77.686449 
L 117.216496 71.560094 
Q 116.345752 75.157125 115.671271 76.556546 
Q 114.537921 78.951111 112.793669 78.951111 
Q 110.540792 78.951111 108.915404 73.477819 
Q 107.143509 66.605106 107.143509 54.621914 
Q 107.143509 42.669819 108.871175 35.610517 
Q 110.51315 28.872563 113.122617 28.872563 
z
M 112.837898 28.8 
L 112.837898 28.8 
z
" style="fill:#ffa600;"/>
   </g>
   <g id="patch_11">
    <path clip-path="url(#pca33a1b19b)" d="M 127.128728 136.503089 
L 125.156418 130.964728 
L 123.059601 136.503089 
L 127.128728 136.503089 
z
M 124.236761 129.102222 
L 126.226049 129.102222 
L 130.940351 141.64 
L 129.010487 141.64 
L 127.69467 137.884948 
L 122.555912 137.884948 
L 121.149545 141.64 
L 119.347018 141.64 
L 124.236761 129.102222 
z
M 125.147929 129.102222 
L 125.147929 129.102222 
z
" style="fill:#008000;"/>
   </g>
   <g id="patch_12">
    <path clip-path="url(#pca33a1b19b)" d="M 130.940351 116.564444 
L 130.940351 118.058272 
L 126.125616 118.058272 
L 126.125616 129.102222 
L 124.161752 129.102222 
L 124.161752 118.058272 
L 119.347018 118.058272 
L 119.347018 116.564444 
L 130.940351 116.564444 
z
" style="fill:#ff0000;"/>
   </g>
   <g id="patch_13">
    <path clip-path="url(#pca33a1b19b)" d="M 125.326126 79.005533 
Q 127.114606 79.005533 128.41934 80.949174 
Q 130.310098 83.740242 130.733031 90.737348 
L 129.033007 90.737348 
Q 128.720645 86.826743 127.744859 85.038594 
Q 126.769073 83.250444 125.281898 83.250444 
Q 123.52106 83.250444 122.31584 86.97446 
Q 121.11062 90.6907 121.11062 98.053211 
Q 121.11062 104.412803 122.102991 108.408928 
Q 123.098127 112.405054 125.342711 112.405054 
Q 127.062085 112.405054 128.189906 109.606211 
Q 129.317726 106.799594 129.342605 100.525522 
L 125.370354 100.525522 
L 125.370354 96.521622 
L 130.940351 96.521622 
L 130.940351 115.615948 
L 129.834644 115.615948 
L 129.420004 111.021181 
Q 128.54926 113.718955 127.874779 114.768521 
Q 126.74143 116.564444 124.997178 116.564444 
Q 122.744301 116.564444 121.118912 112.459475 
Q 119.347018 107.304941 119.347018 98.317546 
Q 119.347018 89.353476 121.074684 84.058999 
Q 122.716658 79.005533 125.326126 79.005533 
z
M 125.041406 78.951111 
L 125.041406 78.951111 
z
" style="fill:#ffa600;"/>
   </g>
   <g id="patch_14">
    <path clip-path="url(#pca33a1b19b)" d="M 125.442628 28.8 
Q 127.925287 28.8 129.294735 33.571357 
Q 130.664184 38.332341 130.815079 44.38989 
L 129.089745 44.38989 
Q 128.796495 39.794866 127.919593 37.108385 
Q 127.04269 34.411531 125.459711 34.411531 
Q 123.529387 34.411531 122.342152 39.35922 
Q 121.154917 44.296538 121.154917 54.503093 
Q 121.154917 62.873713 122.225421 68.080715 
Q 123.298773 73.277345 125.425546 73.277345 
Q 127.381494 73.277345 128.406445 67.800657 
Q 128.947391 64.917098 129.215017 60.207976 
L 130.940351 60.207976 
Q 130.709737 67.72805 129.411466 72.820955 
Q 127.85411 78.951111 125.212014 78.951111 
Q 122.934346 78.951111 121.385531 73.920441 
Q 119.347018 67.282031 119.347018 53.403606 
Q 119.347018 42.875503 120.87875 36.133368 
Q 122.532907 28.8 125.442628 28.8 
z
M 125.086742 28.8 
L 125.086742 28.8 
z
" style="fill:#0000ff;"/>
   </g>
   <g id="patch_15">
    <path clip-path="url(#pca33a1b19b)" d="M 137.529635 129.120363 
Q 139.318115 129.120363 140.622849 129.768243 
Q 142.513607 130.698599 142.93654 133.030968 
L 141.236516 133.030968 
Q 140.924154 131.727433 139.948368 131.131383 
Q 138.972582 130.535333 137.485406 130.535333 
Q 135.724569 130.535333 134.519348 131.776672 
Q 133.314128 133.015419 133.314128 135.469589 
Q 133.314128 137.589453 134.3065 138.921495 
Q 135.301636 140.253536 137.54622 140.253536 
Q 139.265594 140.253536 140.393415 139.320589 
Q 141.521235 138.38505 141.546114 136.293693 
L 137.573863 136.293693 
L 137.573863 134.959059 
L 143.14386 134.959059 
L 143.14386 141.323834 
L 142.038153 141.323834 
L 141.623513 139.792246 
Q 140.752769 140.691503 140.078288 141.041359 
Q 138.944939 141.64 137.200687 141.64 
Q 134.94781 141.64 133.322421 140.271677 
Q 131.550526 138.553499 131.550526 135.557701 
Q 131.550526 132.569677 133.278193 130.804851 
Q 134.920167 129.120363 137.529635 129.120363 
z
M 137.244915 129.102222 
L 137.244915 129.102222 
z
" style="fill:#ffa600;"/>
   </g>
   <g id="patch_16">
    <path clip-path="url(#pca33a1b19b)" d="M 139.332237 118.8284 
L 137.359927 107.751678 
L 135.26311 118.8284 
L 139.332237 118.8284 
z
M 136.44027 104.026667 
L 138.429558 104.026667 
L 143.14386 129.102222 
L 141.213996 129.102222 
L 139.898179 121.592118 
L 134.759421 121.592118 
L 133.353053 129.102222 
L 131.550526 129.102222 
L 136.44027 104.026667 
z
M 137.351438 104.026667 
L 137.351438 104.026667 
z
" style="fill:#008000;"/>
   </g>
   <g id="patch_17">
    <path clip-path="url(#pca33a1b19b)" d="M 137.646137 66.413333 
Q 140.128796 66.413333 141.498244 69.991851 
Q 142.867692 73.562589 143.018588 78.105751 
L 141.293254 78.105751 
Q 141.000004 74.659483 140.123102 72.644622 
Q 139.246199 70.621981 137.66322 70.621981 
Q 135.732895 70.621981 134.545661 74.332749 
Q 133.358426 78.035737 133.358426 85.690653 
Q 133.358426 91.968618 134.42893 95.87387 
Q 135.502281 99.771342 137.629054 99.771342 
Q 139.585002 99.771342 140.609953 95.663826 
Q 141.1509 93.501157 141.418526 89.969315 
L 143.14386 89.969315 
Q 142.913246 95.609371 141.614975 99.429049 
Q 140.057619 104.026667 137.415523 104.026667 
Q 135.137854 104.026667 133.58904 100.253664 
Q 131.550526 95.274857 131.550526 84.866038 
Q 131.550526 76.969961 133.082258 71.91336 
Q 134.736415 66.413333 137.646137 66.413333 
z
M 137.290251 66.413333 
L 137.290251 66.413333 
z
" style="fill:#0000ff;"/>
   </g>
   <g id="patch_18">
    <path clip-path="url(#pca33a1b19b)" d="M 143.14386 28.8 
L 143.14386 33.281484 
L 138.329125 33.281484 
L 138.329125 66.413333 
L 136.365261 66.413333 
L 136.365261 33.281484 
L 131.550526 33.281484 
L 131.550526 28.8 
L 143.14386 28.8 
z
" style="fill:#ff0000;"/>
   </g>
   <g id="patch_19">
    <path clip-path="url(#pca33a1b19b)" d="M 151.535745 136.503089 
L 149.563435 130.964728 
L 147.466618 136.503089 
L 151.535745 136.503089 
z
M 148.643779 129.102222 
L 150.633067 129.102222 
L 155.347368 141.64 
L 153.417504 141.64 
L 152.101688 137.884948 
L 146.962929 137.884948 
L 145.556562 141.64 
L 143.754035 141.64 
L 148.643779 129.102222 
z
M 149.554946 129.102222 
L 149.554946 129.102222 
z
" style="fill:#008000;"/>
   </g>
   <g id="patch_20">
    <path clip-path="url(#pca33a1b19b)" d="M 149.733143 104.062948 
Q 151.521624 104.062948 152.826357 105.358708 
Q 154.717116 107.21942 155.140048 111.884158 
L 153.440025 111.884158 
Q 153.127662 109.277088 152.151876 108.084988 
Q 151.17609 106.892889 149.688915 106.892889 
Q 147.928077 106.892889 146.722857 109.375566 
Q 145.517637 111.85306 145.517637 116.7614 
Q 145.517637 121.001128 146.510009 123.665212 
Q 147.505145 126.329295 149.749729 126.329295 
Q 151.469103 126.329295 152.596923 124.4634 
Q 153.724744 122.592322 153.749622 118.409607 
L 149.777372 118.409607 
L 149.777372 115.740341 
L 155.347368 115.740341 
L 155.347368 128.469891 
L 154.241662 128.469891 
L 153.827022 125.406714 
Q 152.956278 127.205229 152.281797 127.90494 
Q 151.148448 129.102222 149.404196 129.102222 
Q 147.151319 129.102222 145.52593 126.365576 
Q 143.754035 122.92922 143.754035 116.937623 
Q 143.754035 110.961576 145.481702 107.431925 
Q 147.123676 104.062948 149.733143 104.062948 
z
M 149.448424 104.026667 
L 149.448424 104.026667 
z
" style="fill:#ffa600;"/>
   </g>
   <g id="patch_21">
    <path clip-path="url(#pca33a1b19b)" d="M 155.347368 78.951111 
L 155.347368 81.938767 
L 150.532634 81.938767 
L 150.532634 104.026667 
L 148.56877 104.026667 
L 148.56877 81.938767 
L 143.754035 81.938767 
L 143.754035 78.951111 
L 155.347368 78.951111 
z
" style="fill:#ff0000;"/>
   </g>
   <g id="patch_22">
    <path clip-path="url(#pca33a1b19b)" d="M 149.849646 28.8 
Q 152.332305 28.8 153.701753 33.571357 
Q 155.071201 38.332341 155.222097 44.38989 
L 153.496763 44.38989 
Q 153.203513 39.794866 152.32661 37.108385 
Q 151.449708 34.411531 149.866728 34.411531 
Q 147.936404 34.411531 146.749169 39.35922 
Q 145.561935 44.296538 145.561935 54.503093 
Q 145.561935 62.873713 146.632439 68.080715 
Q 147.70579 73.277345 149.832563 73.277345 
Q 151.788511 73.277345 152.813462 67.800657 
Q 153.354408 64.917098 153.622034 60.207976 
L 155.347368 60.207976 
Q 155.116754 67.72805 153.818483 72.820955 
Q 152.261127 78.951111 149.619032 78.951111 
Q 147.341363 78.951111 145.792549 73.920441 
Q 143.754035 67.282031 143.754035 53.403606 
Q 143.754035 42.875503 145.285767 36.133368 
Q 146.939924 28.8 149.849646 28.8 
z
M 149.49376 28.8 
L 149.49376 28.8 
z
" style="fill:#0000ff;"/>
   </g>
   <g id="patch_23">
    <path clip-path="url(#pca33a1b19b)" d="M 161.936652 129.120363 
Q 163.725132 129.120363 165.029866 129.768243 
Q 166.920624 130.698599 167.343557 133.030968 
L 165.643533 133.030968 
Q 165.331171 131.727433 164.355385 131.131383 
Q 163.379599 130.535333 161.892424 130.535333 
Q 160.131586 130.535333 158.926366 131.776672 
Q 157.721146 133.015419 157.721146 135.469589 
Q 157.721146 137.589453 158.713517 138.921495 
Q 159.708653 140.253536 161.953238 140.253536 
Q 163.672611 140.253536 164.800432 139.320589 
Q 165.928253 138.38505 165.953131 136.293693 
L 161.98088 136.293693 
L 161.98088 134.959059 
L 167.550877 134.959059 
L 167.550877 141.323834 
L 166.445171 141.323834 
L 166.030531 139.792246 
Q 165.159787 140.691503 164.485306 141.041359 
Q 163.351957 141.64 161.607704 141.64 
Q 159.354827 141.64 157.729439 140.271677 
Q 155.957544 138.553499 155.957544 135.557701 
Q 155.957544 132.569677 157.68521 130.804851 
Q 159.327185 129.120363 161.936652 129.120363 
z
M 161.651933 129.102222 
L 161.651933 129.102222 
z
" style="fill:#ffa600;"/>
   </g>
   <g id="patch_24">
    <path clip-path="url(#pca33a1b19b)" d="M 163.739254 118.8284 
L 161.766944 107.751678 
L 159.670127 118.8284 
L 163.739254 118.8284 
z
M 160.847288 104.026667 
L 162.836576 104.026667 
L 167.550877 129.102222 
L 165.621013 129.102222 
L 164.305197 121.592118 
L 159.166438 121.592118 
L 157.760071 129.102222 
L 155.957544 129.102222 
L 160.847288 104.026667 
z
M 161.758455 104.026667 
L 161.758455 104.026667 
z
" style="fill:#008000;"/>
   </g>
   <g id="patch_25">
    <path clip-path="url(#pca33a1b19b)" d="M 162.053155 66.413333 
Q 164.535813 66.413333 165.905262 69.991851 
Q 167.27471 73.562589 167.425605 78.105751 
L 165.700271 78.105751 
Q 165.407022 74.659483 164.530119 72.644622 
Q 163.653217 70.621981 162.070237 70.621981 
Q 160.139913 70.621981 158.952678 74.332749 
Q 157.765443 78.035737 157.765443 85.690653 
Q 157.765443 91.968618 158.835948 95.87387 
Q 159.909299 99.771342 162.036072 99.771342 
Q 163.99202 99.771342 165.016971 95.663826 
Q 165.557917 93.501157 165.825543 89.969315 
L 167.550877 89.969315 
Q 167.320263 95.609371 166.021992 99.429049 
Q 164.464636 104.026667 161.822541 104.026667 
Q 159.544872 104.026667 157.996057 100.253664 
Q 155.957544 95.274857 155.957544 84.866038 
Q 155.957544 76.969961 157.489276 71.91336 
Q 159.143433 66.413333 162.053155 66.413333 
z
M 161.697269 66.413333 
L 161.697269 66.413333 
z
" style="fill:#0000ff;"/>
   </g>
   <g id="patch_26">
    <path clip-path="url(#pca33a1b19b)" d="M 167.550877 28.8 
L 167.550877 33.281484 
L 162.736143 33.281484 
L 162.736143 66.413333 
L 160.772279 66.413333 
L 160.772279 33.281484 
L 155.957544 33.281484 
L 155.957544 28.8 
L 167.550877 28.8 
z
" style="fill:#ff0000;"/>
   </g>
   <g id="patch_27">
    <path clip-path="url(#pca33a1b19b)" d="M 175.942763 136.503089 
L 173.970453 130.964728 
L 171.873636 136.503089 
L 175.942763 136.503089 
z
M 173.050796 129.102222 
L 175.040084 129.102222 
L 179.754386 141.64 
L 177.824522 141.64 
L 176.508705 137.884948 
L 171.369947 137.884948 
L 169.96358 141.64 
L 168.161053 141.64 
L 173.050796 129.102222 
z
M 173.961964 129.102222 
L 173.961964 129.102222 
z
" style="fill:#008000;"/>
   </g>
   <g id="patch_28">
    <path clip-path="url(#pca33a1b19b)" d="M 179.754386 104.026667 
L 179.754386 107.014323 
L 174.939651 107.014323 
L 174.939651 129.102222 
L 172.975787 129.102222 
L 172.975787 107.014323 
L 168.161053 107.014323 
L 168.161053 104.026667 
L 179.754386 104.026667 
z
" style="fill:#ff0000;"/>
   </g>
   <g id="patch_29">
    <path clip-path="url(#pca33a1b19b)" d="M 174.256663 66.413333 
Q 176.739322 66.413333 178.10877 69.991851 
Q 179.478219 73.562589 179.629114 78.105751 
L 177.90378 78.105751 
Q 177.61053 74.659483 176.733628 72.644622 
Q 175.856726 70.621981 174.273746 70.621981 
Q 172.343422 70.621981 171.156187 74.332749 
Q 169.968952 78.035737 169.968952 85.690653 
Q 169.968952 91.968618 171.039456 95.87387 
Q 172.112808 99.771342 174.239581 99.771342 
Q 176.195529 99.771342 177.22048 95.663826 
Q 177.761426 93.501157 178.029052 89.969315 
L 179.754386 89.969315 
Q 179.523772 95.609371 178.225501 99.429049 
Q 176.668145 104.026667 174.026049 104.026667 
Q 171.748381 104.026667 170.199566 100.253664 
Q 168.161053 95.274857 168.161053 84.866038 
Q 168.161053 76.969961 169.692785 71.91336 
Q 171.346942 66.413333 174.256663 66.413333 
z
M 173.900778 66.413333 
L 173.900778 66.413333 
z
" style="fill:#0000ff;"/>
   </g>
   <g id="patch_30">
    <path clip-path="url(#pca33a1b19b)" d="M 174.140161 28.854422 
Q 175.928641 28.854422 177.233375 30.798063 
Q 179.124133 33.58913 179.547066 40.586237 
L 177.847042 40.586237 
Q 177.53468 36.675632 176.558894 34.887482 
Q 175.583108 33.099333 174.095933 33.099333 
Q 172.335095 33.099333 171.129875 36.823348 
Q 169.924655 40.539589 169.924655 47.9021 
Q 169.924655 54.261692 170.917026 58.257817 
Q 171.912162 62.253942 174.156746 62.253942 
Q 175.87612 62.253942 177.003941 59.4551 
Q 178.131762 56.648483 178.15664 50.374411 
L 174.184389 50.374411 
L 174.184389 46.370511 
L 179.754386 46.370511 
L 179.754386 65.464837 
L 178.648679 65.464837 
L 178.234039 60.87007 
Q 177.363296 63.567843 176.688815 64.617409 
Q 175.555465 66.413333 173.811213 66.413333 
Q 171.558336 66.413333 169.932947 62.308364 
Q 168.161053 57.153829 168.161053 48.166435 
Q 168.161053 39.202365 169.888719 33.907888 
Q 171.530693 28.854422 174.140161 28.854422 
z
M 173.855441 28.8 
L 173.855441 28.8 
z
" style="fill:#ffa600;"/>
   </g>
   <g id="patch_31">
    <path clip-path="url(#pca33a1b19b)" d="M 191.957895 129.102222 
L 191.957895 130.59605 
L 187.14316 130.59605 
L 187.14316 141.64 
L 185.179296 141.64 
L 185.179296 130.59605 
L 180.364561 130.59605 
L 180.364561 129.102222 
L 191.957895 129.102222 
z
" style="fill:#ff0000;"/>
   </g>
   <g id="patch_32">
    <path clip-path="url(#pca33a1b19b)" d="M 186.34367 104.062948 
Q 188.13215 104.062948 189.436884 105.358708 
Q 191.327642 107.21942 191.750575 111.884158 
L 190.050551 111.884158 
Q 189.738189 109.277088 188.762403 108.084988 
Q 187.786617 106.892889 186.299441 106.892889 
Q 184.538604 106.892889 183.333384 109.375566 
Q 182.128163 111.85306 182.128163 116.7614 
Q 182.128163 121.001128 183.120535 123.665212 
Q 184.115671 126.329295 186.360255 126.329295 
Q 188.079629 126.329295 189.20745 124.4634 
Q 190.33527 122.592322 190.360149 118.409607 
L 186.387898 118.409607 
L 186.387898 115.740341 
L 191.957895 115.740341 
L 191.957895 128.469891 
L 190.852188 128.469891 
L 190.437548 125.406714 
Q 189.566804 127.205229 188.892323 127.90494 
Q 187.758974 129.102222 186.014722 129.102222 
Q 183.761845 129.102222 182.136456 126.365576 
Q 180.364561 122.92922 180.364561 116.937623 
Q 180.364561 110.961576 182.092228 107.431925 
Q 183.734202 104.062948 186.34367 104.062948 
z
M 186.05895 104.026667 
L 186.05895 104.026667 
z
" style="fill:#ffa600;"/>
   </g>
   <g id="patch_33">
    <path clip-path="url(#pca33a1b19b)" d="M 188.146272 88.615933 
L 186.173962 72.000851 
L 184.077145 88.615933 
L 188.146272 88.615933 
z
M 185.254305 66.413333 
L 187.243593 66.413333 
L 191.957895 104.026667 
L 190.028031 104.026667 
L 188.712214 92.76151 
L 183.573456 92.76151 
L 182.167088 104.026667 
L 180.364561 104.026667 
L 185.254305 66.413333 
z
M 186.165473 66.413333 
L 186.165473 66.413333 
z
" style="fill:#008000;"/>
   </g>
   <g id="patch_34">
    <path clip-path="url(#pca33a1b19b)" d="M 186.460172 28.8 
Q 188.942831 28.8 190.312279 32.378518 
Q 191.681727 35.949256 191.832623 40.492418 
L 190.107289 40.492418 
Q 189.814039 37.04615 188.937137 35.031289 
Q 188.060234 33.008648 186.477255 33.008648 
Q 184.54693 33.008648 183.359696 36.719415 
Q 182.172461 40.422403 182.172461 48.07732 
Q 182.172461 54.355284 183.242965 58.260536 
Q 184.316316 62.158009 186.44309 62.158009 
Q 188.399038 62.158009 189.423988 58.050493 
Q 189.964935 55.887824 190.232561 52.355982 
L 191.957895 52.355982 
Q 191.727281 57.996037 190.42901 61.815716 
Q 188.871654 66.413333 186.229558 66.413333 
Q 183.951889 66.413333 182.403075 62.640331 
Q 180.364561 57.661524 180.364561 47.252705 
Q 180.364561 39.356627 181.896294 34.300026 
Q 183.55045 28.8 186.460172 28.8 
z
M 186.104286 28.8 
L 186.104286 28.8 
z
" style="fill:#0000ff;"/>
   </g>
   <g id="patch_35">
    <path clip-path="url(#pca33a1b19b)" d="M 204.161404 129.102222 
L 204.161404 130.59605 
L 199.346669 130.59605 
L 199.346669 141.64 
L 197.382805 141.64 
L 197.382805 130.59605 
L 192.56807 130.59605 
L 192.56807 129.102222 
L 204.161404 129.102222 
z
" style="fill:#ff0000;"/>
   </g>
   <g id="patch_36">
    <path clip-path="url(#pca33a1b19b)" d="M 198.663681 104.026667 
Q 201.14634 104.026667 202.515788 106.412345 
Q 203.885236 108.792837 204.036132 111.821612 
L 202.310798 111.821612 
Q 202.017548 109.5241 201.140645 108.180859 
Q 200.263743 106.832432 198.680763 106.832432 
Q 196.750439 106.832432 195.563204 109.306277 
Q 194.37597 111.774936 194.37597 116.878213 
Q 194.37597 121.063523 195.446474 123.667024 
Q 196.519825 126.265339 198.646598 126.265339 
Q 200.602546 126.265339 201.627497 123.526995 
Q 202.168443 122.085216 202.43607 119.730655 
L 204.161404 119.730655 
Q 203.93079 123.490691 202.632518 126.037144 
Q 201.075163 129.102222 198.433067 129.102222 
Q 196.155398 129.102222 194.606584 126.586887 
Q 192.56807 123.267682 192.56807 116.32847 
Q 192.56807 111.064418 194.099802 107.693351 
Q 195.753959 104.026667 198.663681 104.026667 
z
M 198.307795 104.026667 
L 198.307795 104.026667 
z
" style="fill:#0000ff;"/>
   </g>
   <g id="patch_37">
    <path clip-path="url(#pca33a1b19b)" d="M 200.34978 88.615933 
L 198.377471 72.000851 
L 196.280653 88.615933 
L 200.34978 88.615933 
z
M 197.457814 66.413333 
L 199.447102 66.413333 
L 204.161404 104.026667 
L 202.231539 104.026667 
L 200.915723 92.76151 
L 195.776964 92.76151 
L 194.370597 104.026667 
L 192.56807 104.026667 
L 197.457814 66.413333 
z
M 198.368981 66.413333 
L 198.368981 66.413333 
z
" style="fill:#008000;"/>
   </g>
   <g id="patch_38">
    <path clip-path="url(#pca33a1b19b)" d="M 198.547178 28.854422 
Q 200.335659 28.854422 201.640393 30.798063 
Q 203.531151 33.58913 203.954084 40.586237 
L 202.25406 40.586237 
Q 201.941698 36.675632 200.965912 34.887482 
Q 199.990125 33.099333 198.50295 33.099333 
Q 196.742112 33.099333 195.536892 36.823348 
Q 194.331672 40.539589 194.331672 47.9021 
Q 194.331672 54.261692 195.324044 58.257817 
Q 196.31918 62.253942 198.563764 62.253942 
Q 200.283138 62.253942 201.410958 59.4551 
Q 202.538779 56.648483 202.563658 50.374411 
L 198.591407 50.374411 
L 198.591407 46.370511 
L 204.161404 46.370511 
L 204.161404 65.464837 
L 203.055697 65.464837 
L 202.641057 60.87007 
Q 201.770313 63.567843 201.095832 64.617409 
Q 199.962483 66.413333 198.218231 66.413333 
Q 195.965354 66.413333 194.339965 62.308364 
Q 192.56807 57.153829 192.56807 48.166435 
Q 192.56807 39.202365 194.295737 33.907888 
Q 195.937711 28.854422 198.547178 28.854422 
z
M 198.262459 28.8 
L 198.262459 28.8 
z
" style="fill:#ffa600;"/>
   </g>
   <g id="patch_39">
    <path clip-path="url(#pca33a1b19b)" d="M 212.553289 131.366177 
L 210.580979 120.289456 
L 208.484162 131.366177 
L 212.553289 131.366177 
z
M 209.661323 116.564444 
L 211.650611 116.564444 
L 216.364912 141.64 
L 214.435048 141.64 
L 213.119232 134.129896 
L 207.980473 134.129896 
L 206.574106 141.64 
L 204.771579 141.64 
L 209.661323 116.564444 
z
M 210.57249 116.564444 
L 210.57249 116.564444 
z
" style="fill:#008000;"/>
   </g>
   <g id="patch_40">
    <path clip-path="url(#pca33a1b19b)" d="M 210.86719 91.488889 
Q 213.349848 91.488889 214.719297 93.874567 
Q 216.088745 96.25506 216.239641 99.283834 
L 214.514307 99.283834 
Q 214.221057 96.986322 213.344154 95.643081 
Q 212.467252 94.294654 210.884272 94.294654 
Q 208.953948 94.294654 207.766713 96.768499 
Q 206.579478 99.237158 206.579478 104.340435 
Q 206.579478 108.525745 207.649983 111.129246 
Q 208.723334 113.727562 210.850107 113.727562 
Q 212.806055 113.727562 213.831006 110.989218 
Q 214.371952 109.547438 214.639578 107.192877 
L 216.364912 107.192877 
Q 216.134298 110.952914 214.836027 113.499366 
Q 213.278671 116.564444 210.636576 116.564444 
Q 208.358907 116.564444 206.810092 114.04911 
Q 204.771579 110.729905 204.771579 103.790692 
Q 204.771579 98.52664 206.303311 95.155573 
Q 207.957468 91.488889 210.86719 91.488889 
z
M 210.511304 91.488889 
L 210.511304 91.488889 
z
" style="fill:#0000ff;"/>
   </g>
   <g id="patch_41">
    <path clip-path="url(#pca33a1b19b)" d="M 216.364912 66.413333 
L 216.364912 69.400989 
L 211.550178 69.400989 
L 211.550178 91.488889 
L 209.586314 91.488889 
L 209.586314 69.400989 
L 204.771579 69.400989 
L 204.771579 66.413333 
L 216.364912 66.413333 
z
" style="fill:#ff0000;"/>
   </g>
   <g id="patch_42">
    <path clip-path="url(#pca33a1b19b)" d="M 210.750687 28.854422 
Q 212.539168 28.854422 213.843901 30.798063 
Q 215.73466 33.58913 216.157592 40.586237 
L 214.457568 40.586237 
Q 214.145206 36.675632 213.16942 34.887482 
Q 212.193634 33.099333 210.706459 33.099333 
Q 208.945621 33.099333 207.740401 36.823348 
Q 206.535181 40.539589 206.535181 47.9021 
Q 206.535181 54.261692 207.527553 58.257817 
Q 208.522688 62.253942 210.767273 62.253942 
Q 212.486647 62.253942 213.614467 59.4551 
Q 214.742288 56.648483 214.767166 50.374411 
L 210.794915 50.374411 
L 210.794915 46.370511 
L 216.364912 46.370511 
L 216.364912 65.464837 
L 215.259206 65.464837 
L 214.844566 60.87007 
Q 213.973822 63.567843 213.299341 64.617409 
Q 212.165992 66.413333 210.421739 66.413333 
Q 208.168862 66.413333 206.543474 62.308364 
Q 204.771579 57.153829 204.771579 48.166435 
Q 204.771579 39.202365 206.499245 33.907888 
Q 208.14122 28.854422 210.750687 28.854422 
z
M 210.465968 28.8 
L 210.465968 28.8 
z
" style="fill:#ffa600;"/>
   </g>
   <g id="patch_43">
    <path clip-path="url(#pca33a1b19b)" d="M 224.756798 131.366177 
L 222.784488 120.289456 
L 220.687671 131.366177 
L 224.756798 131.366177 
z
M 221.864831 116.564444 
L 223.85412 116.564444 
L 228.568421 141.64 
L 226.638557 141.64 
L 225.32274 134.129896 
L 220.183982 134.129896 
L 218.777615 141.64 
L 216.975088 141.64 
L 221.864831 116.564444 
z
M 222.775999 116.564444 
L 222.775999 116.564444 
z
" style="fill:#008000;"/>
   </g>
   <g id="patch_44">
    <path clip-path="url(#pca33a1b19b)" d="M 223.070698 91.488889 
Q 225.553357 91.488889 226.922805 93.874567 
Q 228.292254 96.25506 228.443149 99.283834 
L 226.717815 99.283834 
Q 226.424565 96.986322 225.547663 95.643081 
Q 224.670761 94.294654 223.087781 94.294654 
Q 221.157457 94.294654 219.970222 96.768499 
Q 218.782987 99.237158 218.782987 104.340435 
Q 218.782987 108.525745 219.853491 111.129246 
Q 220.926843 113.727562 223.053616 113.727562 
Q 225.009564 113.727562 226.034515 110.989218 
Q 226.575461 109.547438 226.843087 107.192877 
L 228.568421 107.192877 
Q 228.337807 110.952914 227.039536 113.499366 
Q 225.48218 116.564444 222.840084 116.564444 
Q 220.562416 116.564444 219.013601 114.04911 
Q 216.975088 110.729905 216.975088 103.790692 
Q 216.975088 98.52664 218.50682 95.155573 
Q 220.160977 91.488889 223.070698 91.488889 
z
M 222.714813 91.488889 
L 222.714813 91.488889 
z
" style="fill:#0000ff;"/>
   </g>
   <g id="patch_45">
    <path clip-path="url(#pca33a1b19b)" d="M 228.568421 66.413333 
L 228.568421 69.400989 
L 223.753686 69.400989 
L 223.753686 91.488889 
L 221.789822 91.488889 
L 221.789822 69.400989 
L 216.975088 69.400989 
L 216.975088 66.413333 
L 228.568421 66.413333 
z
" style="fill:#ff0000;"/>
   </g>
   <g id="patch_46">
    <path clip-path="url(#pca33a1b19b)" d="M 222.954196 28.854422 
Q 224.742676 28.854422 226.04741 30.798063 
Q 227.938168 33.58913 228.361101 40.586237 
L 226.661077 40.586237 
Q 226.348715 36.675632 225.372929 34.887482 
Q 224.397143 33.099333 222.909968 33.099333 
Q 221.14913 33.099333 219.94391 36.823348 
Q 218.73869 40.539589 218.73869 47.9021 
Q 218.73869 54.261692 219.731061 58.257817 
Q 220.726197 62.253942 222.970782 62.253942 
Q 224.690155 62.253942 225.817976 59.4551 
Q 226.945797 56.648483 226.970675 50.374411 
L 222.998424 50.374411 
L 222.998424 46.370511 
L 228.568421 46.370511 
L 228.568421 65.464837 
L 227.462714 65.464837 
L 227.048075 60.87007 
Q 226.177331 63.567843 225.50285 64.617409 
Q 224.3695 66.413333 222.625248 66.413333 
Q 220.372371 66.413333 218.746982 62.308364 
Q 216.975088 57.153829 216.975088 48.166435 
Q 216.975088 39.202365 218.702754 33.907888 
Q 220.344728 28.854422 222.954196 28.854422 
z
M 222.669477 28.8 
L 222.669477 28.8 
z
" style="fill:#ffa600;"/>
   </g>
   <g id="patch_47">
    <path clip-path="url(#pca33a1b19b)" d="M 236.960307 136.503089 
L 234.987997 130.964728 
L 232.89118 136.503089 
L 236.960307 136.503089 
z
M 234.06834 129.102222 
L 236.057628 129.102222 
L 240.77193 141.64 
L 238.842066 141.64 
L 237.526249 137.884948 
L 232.387491 137.884948 
L 230.981124 141.64 
L 229.178596 141.64 
L 234.06834 129.102222 
z
M 234.979508 129.102222 
L 234.979508 129.102222 
z
" style="fill:#008000;"/>
   </g>
   <g id="patch_48">
    <path clip-path="url(#pca33a1b19b)" d="M 235.274207 116.564444 
Q 237.756866 116.564444 239.126314 117.757284 
Q 240.495763 118.94753 240.646658 120.461917 
L 238.921324 120.461917 
Q 238.628074 119.313161 237.751172 118.641541 
Q 236.874269 117.967327 235.29129 117.967327 
Q 233.360966 117.967327 232.173731 119.20425 
Q 230.986496 120.438579 230.986496 122.990218 
Q 230.986496 125.082873 232.057 126.384623 
Q 233.130352 127.683781 235.257125 127.683781 
Q 237.213073 127.683781 238.238023 126.314609 
Q 238.77897 125.593719 239.046596 124.416438 
L 240.77193 124.416438 
Q 240.541316 126.296457 239.243045 127.569683 
Q 237.685689 129.102222 235.043593 129.102222 
Q 232.765925 129.102222 231.21711 127.844555 
Q 229.178596 126.184952 229.178596 122.715346 
Q 229.178596 120.08332 230.710329 118.397787 
Q 232.364485 116.564444 235.274207 116.564444 
z
M 234.918321 116.564444 
L 234.918321 116.564444 
z
" style="fill:#0000ff;"/>
   </g>
   <g id="patch_49">
    <path clip-path="url(#pca33a1b19b)" d="M 235.157705 79.005533 
Q 236.946185 79.005533 238.250919 80.949174 
Q 240.141677 83.740242 240.56461 90.737348 
L 238.864586 90.737348 
Q 238.552224 86.826743 237.576438 85.038594 
Q 236.600652 83.250444 235.113476 83.250444 
Q 233.352639 83.250444 232.147419 86.97446 
Q 230.942198 90.6907 230.942198 98.053211 
Q 230.942198 104.412803 231.93457 108.408928 
Q 232.929706 112.405054 235.17429 112.405054 
Q 236.893664 112.405054 238.021485 109.606211 
Q 239.149305 106.799594 239.174184 100.525522 
L 235.201933 100.525522 
L 235.201933 96.521622 
L 240.77193 96.521622 
L 240.77193 115.615948 
L 239.666223 115.615948 
L 239.251583 111.021181 
Q 238.380839 113.718955 237.706358 114.768521 
Q 236.573009 116.564444 234.828757 116.564444 
Q 232.57588 116.564444 230.950491 112.459475 
Q 229.178596 107.304941 229.178596 98.317546 
Q 229.178596 89.353476 230.906263 84.058999 
Q 232.548237 79.005533 235.157705 79.005533 
z
M 234.872985 78.951111 
L 234.872985 78.951111 
z
" style="fill:#ffa600;"/>
   </g>
   <g id="patch_50">
    <path clip-path="url(#pca33a1b19b)" d="M 240.77193 28.8 
L 240.77193 34.775312 
L 235.957195 34.775312 
L 235.957195 78.951111 
L 233.993331 78.951111 
L 233.993331 34.775312 
L 229.178596 34.775312 
L 229.178596 28.8 
L 240.77193 28.8 
z
" style="fill:#ff0000;"/>
   </g>
   <g id="patch_51">
    <path clip-path="url(#pca33a1b19b)" d="M 249.163815 136.503089 
L 247.191506 130.964728 
L 245.094688 136.503089 
L 249.163815 136.503089 
z
M 246.271849 129.102222 
L 248.261137 129.102222 
L 252.975439 141.64 
L 251.045574 141.64 
L 249.729758 137.884948 
L 244.591 137.884948 
L 243.184632 141.64 
L 241.382105 141.64 
L 246.271849 129.102222 
z
M 247.183016 129.102222 
L 247.183016 129.102222 
z
" style="fill:#008000;"/>
   </g>
   <g id="patch_52">
    <path clip-path="url(#pca33a1b19b)" d="M 247.361214 104.062948 
Q 249.149694 104.062948 250.454428 105.358708 
Q 252.345186 107.21942 252.768119 111.884158 
L 251.068095 111.884158 
Q 250.755733 109.277088 249.779947 108.084988 
Q 248.804161 106.892889 247.316985 106.892889 
Q 245.556148 106.892889 244.350927 109.375566 
Q 243.145707 111.85306 243.145707 116.7614 
Q 243.145707 121.001128 244.138079 123.665212 
Q 245.133215 126.329295 247.377799 126.329295 
Q 249.097173 126.329295 250.224994 124.4634 
Q 251.352814 122.592322 251.377693 118.409607 
L 247.405442 118.409607 
L 247.405442 115.740341 
L 252.975439 115.740341 
L 252.975439 128.469891 
L 251.869732 128.469891 
L 251.455092 125.406714 
Q 250.584348 127.205229 249.909867 127.90494 
Q 248.776518 129.102222 247.032266 129.102222 
Q 244.779389 129.102222 243.154 126.365576 
Q 241.382105 122.92922 241.382105 116.937623 
Q 241.382105 110.961576 243.109772 107.431925 
Q 244.751746 104.062948 247.361214 104.062948 
z
M 247.076494 104.026667 
L 247.076494 104.026667 
z
" style="fill:#ffa600;"/>
   </g>
   <g id="patch_53">
    <path clip-path="url(#pca33a1b19b)" d="M 252.975439 78.951111 
L 252.975439 81.938767 
L 248.160704 81.938767 
L 248.160704 104.026667 
L 246.19684 104.026667 
L 246.19684 81.938767 
L 241.382105 81.938767 
L 241.382105 78.951111 
L 252.975439 78.951111 
z
" style="fill:#ff0000;"/>
   </g>
   <g id="patch_54">
    <path clip-path="url(#pca33a1b19b)" d="M 247.477716 28.8 
Q 249.960375 28.8 251.329823 33.571357 
Q 252.699271 38.332341 252.850167 44.38989 
L 251.124833 44.38989 
Q 250.831583 39.794866 249.954681 37.108385 
Q 249.077778 34.411531 247.494798 34.411531 
Q 245.564474 34.411531 244.37724 39.35922 
Q 243.190005 44.296538 243.190005 54.503093 
Q 243.190005 62.873713 244.260509 68.080715 
Q 245.33386 73.277345 247.460633 73.277345 
Q 249.416581 73.277345 250.441532 67.800657 
Q 250.982479 64.917098 251.250105 60.207976 
L 252.975439 60.207976 
Q 252.744825 67.72805 251.446554 72.820955 
Q 249.889198 78.951111 247.247102 78.951111 
Q 244.969433 78.951111 243.420619 73.920441 
Q 241.382105 67.282031 241.382105 53.403606 
Q 241.382105 42.875503 242.913837 36.133368 
Q 244.567994 28.8 247.477716 28.8 
z
M 247.12183 28.8 
L 247.12183 28.8 
z
" style="fill:#0000ff;"/>
   </g>
   <g id="patch_55">
    <path clip-path="url(#pca33a1b19b)" d="M 261.367324 136.503089 
L 259.395014 130.964728 
L 257.298197 136.503089 
L 261.367324 136.503089 
z
M 258.475358 129.102222 
L 260.464646 129.102222 
L 265.178947 141.64 
L 263.249083 141.64 
L 261.933267 137.884948 
L 256.794508 137.884948 
L 255.388141 141.64 
L 253.585614 141.64 
L 258.475358 129.102222 
z
M 259.386525 129.102222 
L 259.386525 129.102222 
z
" style="fill:#008000;"/>
   </g>
   <g id="patch_56">
    <path clip-path="url(#pca33a1b19b)" d="M 259.681225 104.026667 
Q 262.163884 104.026667 263.533332 106.412345 
Q 264.90278 108.792837 265.053676 111.821612 
L 263.328342 111.821612 
Q 263.035092 109.5241 262.158189 108.180859 
Q 261.281287 106.832432 259.698307 106.832432 
Q 257.767983 106.832432 256.580748 109.306277 
Q 255.393514 111.774936 255.393514 116.878213 
Q 255.393514 121.063523 256.464018 123.667024 
Q 257.537369 126.265339 259.664142 126.265339 
Q 261.62009 126.265339 262.645041 123.526995 
Q 263.185987 122.085216 263.453613 119.730655 
L 265.178947 119.730655 
Q 264.948333 123.490691 263.650062 126.037144 
Q 262.092706 129.102222 259.450611 129.102222 
Q 257.172942 129.102222 255.624127 126.586887 
Q 253.585614 123.267682 253.585614 116.32847 
Q 253.585614 111.064418 255.117346 107.693351 
Q 256.771503 104.026667 259.681225 104.026667 
z
M 259.325339 104.026667 
L 259.325339 104.026667 
z
" style="fill:#0000ff;"/>
   </g>
   <g id="patch_57">
    <path clip-path="url(#pca33a1b19b)" d="M 259.564722 66.467755 
Q 261.353203 66.467755 262.657936 68.411396 
Q 264.548695 71.202464 264.971627 78.19957 
L 263.271604 78.19957 
Q 262.959241 74.288965 261.983455 72.500816 
Q 261.007669 70.712666 259.520494 70.712666 
Q 257.759656 70.712666 256.554436 74.436682 
Q 255.349216 78.152923 255.349216 85.515433 
Q 255.349216 91.875025 256.341588 95.871151 
Q 257.336724 99.867276 259.581308 99.867276 
Q 261.300682 99.867276 262.428502 97.068433 
Q 263.556323 94.261816 263.581201 87.987744 
L 259.608951 87.987744 
L 259.608951 83.983845 
L 265.178947 83.983845 
L 265.178947 103.07817 
L 264.073241 103.07817 
L 263.658601 98.483404 
Q 262.787857 101.181177 262.113376 102.230743 
Q 260.980027 104.026667 259.235775 104.026667 
Q 256.982897 104.026667 255.357509 99.921698 
Q 253.585614 94.767163 253.585614 85.779768 
Q 253.585614 76.815698 255.313281 71.521221 
Q 256.955255 66.467755 259.564722 66.467755 
z
M 259.280003 66.413333 
L 259.280003 66.413333 
z
" style="fill:#ffa600;"/>
   </g>
   <g id="patch_58">
    <path clip-path="url(#pca33a1b19b)" d="M 265.178947 28.8 
L 265.178947 33.281484 
L 260.364213 33.281484 
L 260.364213 66.413333 
L 258.400349 66.413333 
L 258.400349 33.281484 
L 253.585614 33.281484 
L 253.585614 28.8 
L 265.178947 28.8 
z
" style="fill:#ff0000;"/>
   </g>
   <g id="patch_59">
    <path clip-path="url(#pca33a1b19b)" d="M 277.382456 129.102222 
L 277.382456 130.59605 
L 272.567721 130.59605 
L 272.567721 141.64 
L 270.603857 141.64 
L 270.603857 130.59605 
L 265.789123 130.59605 
L 265.789123 129.102222 
L 277.382456 129.102222 
z
" style="fill:#ff0000;"/>
   </g>
   <g id="patch_60">
    <path clip-path="url(#pca33a1b19b)" d="M 273.570833 118.8284 
L 271.598523 107.751678 
L 269.501706 118.8284 
L 273.570833 118.8284 
z
M 270.678867 104.026667 
L 272.668155 104.026667 
L 277.382456 129.102222 
L 275.452592 129.102222 
L 274.136776 121.592118 
L 268.998017 121.592118 
L 267.59165 129.102222 
L 265.789123 129.102222 
L 270.678867 104.026667 
z
M 271.590034 104.026667 
L 271.590034 104.026667 
z
" style="fill:#008000;"/>
   </g>
   <g id="patch_61">
    <path clip-path="url(#pca33a1b19b)" d="M 271.884733 66.413333 
Q 274.367392 66.413333 275.736841 69.991851 
Q 277.106289 73.562589 277.257184 78.105751 
L 275.53185 78.105751 
Q 275.238601 74.659483 274.361698 72.644622 
Q 273.484796 70.621981 271.901816 70.621981 
Q 269.971492 70.621981 268.784257 74.332749 
Q 267.597022 78.035737 267.597022 85.690653 
Q 267.597022 91.968618 268.667527 95.87387 
Q 269.740878 99.771342 271.867651 99.771342 
Q 273.823599 99.771342 274.84855 95.663826 
Q 275.389496 93.501157 275.657122 89.969315 
L 277.382456 89.969315 
Q 277.151842 95.609371 275.853571 99.429049 
Q 274.296215 104.026667 271.65412 104.026667 
Q 269.376451 104.026667 267.827636 100.253664 
Q 265.789123 95.274857 265.789123 84.866038 
Q 265.789123 76.969961 267.320855 71.91336 
Q 268.975012 66.413333 271.884733 66.413333 
z
M 271.528848 66.413333 
L 271.528848 66.413333 
z
" style="fill:#0000ff;"/>
   </g>
   <g id="patch_62">
    <path clip-path="url(#pca33a1b19b)" d="M 271.768231 28.854422 
Q 273.556711 28.854422 274.861445 30.798063 
Q 276.752203 33.58913 277.175136 40.586237 
L 275.475112 40.586237 
Q 275.16275 36.675632 274.186964 34.887482 
Q 273.211178 33.099333 271.724003 33.099333 
Q 269.963165 33.099333 268.757945 36.823348 
Q 267.552725 40.539589 267.552725 47.9021 
Q 267.552725 54.261692 268.545096 58.257817 
Q 269.540232 62.253942 271.784817 62.253942 
Q 273.50419 62.253942 274.632011 59.4551 
Q 275.759832 56.648483 275.78471 50.374411 
L 271.812459 50.374411 
L 271.812459 46.370511 
L 277.382456 46.370511 
L 277.382456 65.464837 
L 276.27675 65.464837 
L 275.86211 60.87007 
Q 274.991366 63.567843 274.316885 64.617409 
Q 273.183535 66.413333 271.439283 66.413333 
Q 269.186406 66.413333 267.561018 62.308364 
Q 265.789123 57.153829 265.789123 48.166435 
Q 265.789123 39.202365 267.516789 33.907888 
Q 269.158764 28.854422 271.768231 28.854422 
z
M 271.483512 28.8 
L 271.483512 28.8 
z
" style="fill:#ffa600;"/>
   </g>
   <g id="patch_63">
    <path clip-path="url(#pca33a1b19b)" d="M 285.774342 136.503089 
L 283.802032 130.964728 
L 281.705215 136.503089 
L 285.774342 136.503089 
z
M 282.882375 129.102222 
L 284.871663 129.102222 
L 289.585965 141.64 
L 287.656101 141.64 
L 286.340284 137.884948 
L 281.201526 137.884948 
L 279.795159 141.64 
L 277.992632 141.64 
L 282.882375 129.102222 
z
M 283.793543 129.102222 
L 283.793543 129.102222 
z
" style="fill:#008000;"/>
   </g>
   <g id="patch_64">
    <path clip-path="url(#pca33a1b19b)" d="M 283.97174 104.062948 
Q 285.76022 104.062948 287.064954 105.358708 
Q 288.955712 107.21942 289.378645 111.884158 
L 287.678621 111.884158 
Q 287.366259 109.277088 286.390473 108.084988 
Q 285.414687 106.892889 283.927512 106.892889 
Q 282.166674 106.892889 280.961454 109.375566 
Q 279.756234 111.85306 279.756234 116.7614 
Q 279.756234 121.001128 280.748605 123.665212 
Q 281.743741 126.329295 283.988325 126.329295 
Q 285.707699 126.329295 286.83552 124.4634 
Q 287.963341 122.592322 287.988219 118.409607 
L 284.015968 118.409607 
L 284.015968 115.740341 
L 289.585965 115.740341 
L 289.585965 128.469891 
L 288.480258 128.469891 
L 288.065618 125.406714 
Q 287.194874 127.205229 286.520393 127.90494 
Q 285.387044 129.102222 283.642792 129.102222 
Q 281.389915 129.102222 279.764526 126.365576 
Q 277.992632 122.92922 277.992632 116.937623 
Q 277.992632 110.961576 279.720298 107.431925 
Q 281.362272 104.062948 283.97174 104.062948 
z
M 283.68702 104.026667 
L 283.68702 104.026667 
z
" style="fill:#ffa600;"/>
   </g>
   <g id="patch_65">
    <path clip-path="url(#pca33a1b19b)" d="M 284.088242 66.413333 
Q 286.570901 66.413333 287.940349 69.991851 
Q 289.309798 73.562589 289.460693 78.105751 
L 287.735359 78.105751 
Q 287.442109 74.659483 286.565207 72.644622 
Q 285.688304 70.621981 284.105325 70.621981 
Q 282.175001 70.621981 280.987766 74.332749 
Q 279.800531 78.035737 279.800531 85.690653 
Q 279.800531 91.968618 280.871035 95.87387 
Q 281.944387 99.771342 284.07116 99.771342 
Q 286.027108 99.771342 287.052059 95.663826 
Q 287.593005 93.501157 287.860631 89.969315 
L 289.585965 89.969315 
Q 289.355351 95.609371 288.05708 99.429049 
Q 286.499724 104.026667 283.857628 104.026667 
Q 281.57996 104.026667 280.031145 100.253664 
Q 277.992632 95.274857 277.992632 84.866038 
Q 277.992632 76.969961 279.524364 71.91336 
Q 281.178521 66.413333 284.088242 66.413333 
z
M 283.732357 66.413333 
L 283.732357 66.413333 
z
" style="fill:#0000ff;"/>
   </g>
   <g id="patch_66">
    <path clip-path="url(#pca33a1b19b)" d="M 289.585965 28.8 
L 289.585965 33.281484 
L 284.77123 33.281484 
L 284.77123 66.413333 
L 282.807366 66.413333 
L 282.807366 33.281484 
L 277.992632 33.281484 
L 277.992632 28.8 
L 289.585965 28.8 
z
" style="fill:#ff0000;"/>
   </g>
   <g id="patch_67">
    <path clip-path="url(#pca33a1b19b)" d="M 301.789474 129.102222 
L 301.789474 130.59605 
L 296.974739 130.59605 
L 296.974739 141.64 
L 295.010875 141.64 
L 295.010875 130.59605 
L 290.19614 130.59605 
L 290.19614 129.102222 
L 301.789474 129.102222 
z
" style="fill:#ff0000;"/>
   </g>
   <g id="patch_68">
    <path clip-path="url(#pca33a1b19b)" d="M 297.977851 118.8284 
L 296.005541 107.751678 
L 293.908724 118.8284 
L 297.977851 118.8284 
z
M 295.085884 104.026667 
L 297.075172 104.026667 
L 301.789474 129.102222 
L 299.85961 129.102222 
L 298.543793 121.592118 
L 293.405035 121.592118 
L 291.998667 129.102222 
L 290.19614 129.102222 
L 295.085884 104.026667 
z
M 295.997052 104.026667 
L 295.997052 104.026667 
z
" style="fill:#008000;"/>
   </g>
   <g id="patch_69">
    <path clip-path="url(#pca33a1b19b)" d="M 296.291751 66.413333 
Q 298.77441 66.413333 300.143858 69.991851 
Q 301.513306 73.562589 301.664202 78.105751 
L 299.938868 78.105751 
Q 299.645618 74.659483 298.768716 72.644622 
Q 297.891813 70.621981 296.308834 70.621981 
Q 294.378509 70.621981 293.191275 74.332749 
Q 292.00404 78.035737 292.00404 85.690653 
Q 292.00404 91.968618 293.074544 95.87387 
Q 294.147895 99.771342 296.274669 99.771342 
Q 298.230616 99.771342 299.255567 95.663826 
Q 299.796514 93.501157 300.06414 89.969315 
L 301.789474 89.969315 
Q 301.55886 95.609371 300.260589 99.429049 
Q 298.703233 104.026667 296.061137 104.026667 
Q 293.783468 104.026667 292.234654 100.253664 
Q 290.19614 95.274857 290.19614 84.866038 
Q 290.19614 76.969961 291.727873 71.91336 
Q 293.382029 66.413333 296.291751 66.413333 
z
M 295.935865 66.413333 
L 295.935865 66.413333 
z
" style="fill:#0000ff;"/>
   </g>
   <g id="patch_70">
    <path clip-path="url(#pca33a1b19b)" d="M 296.175249 28.854422 
Q 297.963729 28.854422 299.268463 30.798063 
Q 301.159221 33.58913 301.582154 40.586237 
L 299.88213 40.586237 
Q 299.569768 36.675632 298.593982 34.887482 
Q 297.618196 33.099333 296.13102 33.099333 
Q 294.370183 33.099333 293.164962 36.823348 
Q 291.959742 40.539589 291.959742 47.9021 
Q 291.959742 54.261692 292.952114 58.257817 
Q 293.94725 62.253942 296.191834 62.253942 
Q 297.911208 62.253942 299.039029 59.4551 
Q 300.166849 56.648483 300.191728 50.374411 
L 296.219477 50.374411 
L 296.219477 46.370511 
L 301.789474 46.370511 
L 301.789474 65.464837 
L 300.683767 65.464837 
L 300.269127 60.87007 
Q 299.398383 63.567843 298.723902 64.617409 
Q 297.590553 66.413333 295.846301 66.413333 
Q 293.593424 66.413333 291.968035 62.308364 
Q 290.19614 57.153829 290.19614 48.166435 
Q 290.19614 39.202365 291.923807 33.907888 
Q 293.565781 28.854422 296.175249 28.854422 
z
M 295.890529 28.8 
L 295.890529 28.8 
z
" style="fill:#ffa600;"/>
   </g>
   <g id="patch_71">
    <path clip-path="url(#pca33a1b19b)" d="M 310.181359 136.503089 
L 308.209049 130.964728 
L 306.112232 136.503089 
L 310.181359 136.503089 
z
M 307.289393 129.102222 
L 309.278681 129.102222 
L 313.992982 141.64 
L 312.063118 141.64 
L 310.747302 137.884948 
L 305.608543 137.884948 
L 304.202176 141.64 
L 302.399649 141.64 
L 307.289393 129.102222 
z
M 308.20056 129.102222 
L 308.20056 129.102222 
z
" style="fill:#008000;"/>
   </g>
   <g id="patch_72">
    <path clip-path="url(#pca33a1b19b)" d="M 308.378757 104.062948 
Q 310.167238 104.062948 311.471971 105.358708 
Q 313.36273 107.21942 313.785662 111.884158 
L 312.085639 111.884158 
Q 311.773277 109.277088 310.79749 108.084988 
Q 309.821704 106.892889 308.334529 106.892889 
Q 306.573691 106.892889 305.368471 109.375566 
Q 304.163251 111.85306 304.163251 116.7614 
Q 304.163251 121.001128 305.155623 123.665212 
Q 306.150759 126.329295 308.395343 126.329295 
Q 310.114717 126.329295 311.242537 124.4634 
Q 312.370358 122.592322 312.395236 118.409607 
L 308.422986 118.409607 
L 308.422986 115.740341 
L 313.992982 115.740341 
L 313.992982 128.469891 
L 312.887276 128.469891 
L 312.472636 125.406714 
Q 311.601892 127.205229 310.927411 127.90494 
Q 309.794062 129.102222 308.04981 129.102222 
Q 305.796933 129.102222 304.171544 126.365576 
Q 302.399649 122.92922 302.399649 116.937623 
Q 302.399649 110.961576 304.127316 107.431925 
Q 305.76929 104.062948 308.378757 104.062948 
z
M 308.094038 104.026667 
L 308.094038 104.026667 
z
" style="fill:#ffa600;"/>
   </g>
   <g id="patch_73">
    <path clip-path="url(#pca33a1b19b)" d="M 308.49526 66.413333 
Q 310.977919 66.413333 312.347367 69.991851 
Q 313.716815 73.562589 313.867711 78.105751 
L 312.142377 78.105751 
Q 311.849127 74.659483 310.972224 72.644622 
Q 310.095322 70.621981 308.512342 70.621981 
Q 306.582018 70.621981 305.394783 74.332749 
Q 304.207549 78.035737 304.207549 85.690653 
Q 304.207549 91.968618 305.278053 95.87387 
Q 306.351404 99.771342 308.478177 99.771342 
Q 310.434125 99.771342 311.459076 95.663826 
Q 312.000022 93.501157 312.267648 89.969315 
L 313.992982 89.969315 
Q 313.762369 95.609371 312.464097 99.429049 
Q 310.906741 104.026667 308.264646 104.026667 
Q 305.986977 104.026667 304.438163 100.253664 
Q 302.399649 95.274857 302.399649 84.866038 
Q 302.399649 76.969961 303.931381 71.91336 
Q 305.585538 66.413333 308.49526 66.413333 
z
M 308.139374 66.413333 
L 308.139374 66.413333 
z
" style="fill:#0000ff;"/>
   </g>
   <g id="patch_74">
    <path clip-path="url(#pca33a1b19b)" d="M 313.992982 28.8 
L 313.992982 33.281484 
L 309.178248 33.281484 
L 309.178248 66.413333 
L 307.214384 66.413333 
L 307.214384 33.281484 
L 302.399649 33.281484 
L 302.399649 28.8 
L 313.992982 28.8 
z
" style="fill:#ff0000;"/>
   </g>
   <g id="patch_75">
    <path clip-path="url(#pca33a1b19b)" d="M 320.698769 129.102222 
Q 323.181427 129.102222 324.550876 130.295061 
Q 325.920324 131.485308 326.071219 132.999695 
L 324.345885 132.999695 
Q 324.052636 131.850939 323.175733 131.179318 
Q 322.298831 130.505105 320.715851 130.505105 
Q 318.785527 130.505105 317.598292 131.742027 
Q 316.411057 132.976357 316.411057 135.527995 
Q 316.411057 137.62065 317.481562 138.922401 
Q 318.554913 140.221559 320.681686 140.221559 
Q 322.637634 140.221559 323.662585 138.852387 
Q 324.203531 138.131497 324.471157 136.954216 
L 326.196491 136.954216 
Q 325.965877 138.834235 324.667606 140.107461 
Q 323.11025 141.64 320.468155 141.64 
Q 318.190486 141.64 316.641671 140.382333 
Q 314.603158 138.72273 314.603158 135.253124 
Q 314.603158 132.621098 316.13489 130.935564 
Q 317.789047 129.102222 320.698769 129.102222 
z
M 320.342883 129.102222 
L 320.342883 129.102222 
z
" style="fill:#0000ff;"/>
   </g>
   <g id="patch_76">
    <path clip-path="url(#pca33a1b19b)" d="M 322.384868 118.8284 
L 320.412558 107.751678 
L 318.315741 118.8284 
L 322.384868 118.8284 
z
M 319.492902 104.026667 
L 321.48219 104.026667 
L 326.196491 129.102222 
L 324.266627 129.102222 
L 322.950811 121.592118 
L 317.812052 121.592118 
L 316.405685 129.102222 
L 314.603158 129.102222 
L 319.492902 104.026667 
z
M 320.404069 104.026667 
L 320.404069 104.026667 
z
" style="fill:#008000;"/>
   </g>
   <g id="patch_77">
    <path clip-path="url(#pca33a1b19b)" d="M 320.582266 66.467755 
Q 322.370747 66.467755 323.67548 68.411396 
Q 325.566238 71.202464 325.989171 78.19957 
L 324.289147 78.19957 
Q 323.976785 74.288965 323.000999 72.500816 
Q 322.025213 70.712666 320.538038 70.712666 
Q 318.7772 70.712666 317.57198 74.436682 
Q 316.36676 78.152923 316.36676 85.515433 
Q 316.36676 91.875025 317.359132 95.871151 
Q 318.354267 99.867276 320.598852 99.867276 
Q 322.318225 99.867276 323.446046 97.068433 
Q 324.573867 94.261816 324.598745 87.987744 
L 320.626494 87.987744 
L 320.626494 83.983845 
L 326.196491 83.983845 
L 326.196491 103.07817 
L 325.090785 103.07817 
L 324.676145 98.483404 
Q 323.805401 101.181177 323.13092 102.230743 
Q 321.997571 104.026667 320.253318 104.026667 
Q 318.000441 104.026667 316.375053 99.921698 
Q 314.603158 94.767163 314.603158 85.779768 
Q 314.603158 76.815698 316.330824 71.521221 
Q 317.972799 66.467755 320.582266 66.467755 
z
M 320.297547 66.413333 
L 320.297547 66.413333 
z
" style="fill:#ffa600;"/>
   </g>
   <g id="patch_78">
    <path clip-path="url(#pca33a1b19b)" d="M 326.196491 28.8 
L 326.196491 33.281484 
L 321.381757 33.281484 
L 321.381757 66.413333 
L 319.417893 66.413333 
L 319.417893 33.281484 
L 314.603158 33.281484 
L 314.603158 28.8 
L 326.196491 28.8 
z
" style="fill:#ff0000;"/>
   </g>
   <g id="patch_79">
    <path clip-path="url(#pca33a1b19b)" d="M 338.4 129.102222 
L 338.4 130.59605 
L 333.585265 130.59605 
L 333.585265 141.64 
L 331.621401 141.64 
L 331.621401 130.59605 
L 326.806667 130.59605 
L 326.806667 129.102222 
L 338.4 129.102222 
z
" style="fill:#ff0000;"/>
   </g>
   <g id="patch_80">
    <path clip-path="url(#pca33a1b19b)" d="M 334.588377 118.8284 
L 332.616067 107.751678 
L 330.51925 118.8284 
L 334.588377 118.8284 
z
M 331.69641 104.026667 
L 333.685698 104.026667 
L 338.4 129.102222 
L 336.470136 129.102222 
L 335.154319 121.592118 
L 330.015561 121.592118 
L 328.609194 129.102222 
L 326.806667 129.102222 
L 331.69641 104.026667 
z
M 332.607578 104.026667 
L 332.607578 104.026667 
z
" style="fill:#008000;"/>
   </g>
   <g id="patch_81">
    <path clip-path="url(#pca33a1b19b)" d="M 332.785775 78.987392 
Q 334.574255 78.987392 335.878989 80.283153 
Q 337.769747 82.143865 338.19268 86.808602 
L 336.492656 86.808602 
Q 336.180294 84.201532 335.204508 83.009433 
Q 334.228722 81.817333 332.741547 81.817333 
Q 330.980709 81.817333 329.775489 84.30001 
Q 328.570269 86.777504 328.570269 91.685844 
Q 328.570269 95.925573 329.56264 98.589656 
Q 330.557776 101.253739 332.802361 101.253739 
Q 334.521734 101.253739 335.649555 99.387844 
Q 336.777376 97.516766 336.802254 93.334052 
L 332.830003 93.334052 
L 332.830003 90.664785 
L 338.4 90.664785 
L 338.4 103.394336 
L 337.294293 103.394336 
L 336.879653 100.331158 
Q 336.00891 102.129673 335.334429 102.829384 
Q 334.201079 104.026667 332.456827 104.026667 
Q 330.20395 104.026667 328.578561 101.290021 
Q 326.806667 97.853664 326.806667 91.862068 
Q 326.806667 85.886021 328.534333 82.356369 
Q 330.176307 78.987392 332.785775 78.987392 
z
M 332.501055 78.951111 
L 332.501055 78.951111 
z
" style="fill:#ffa600;"/>
   </g>
   <g id="patch_82">
    <path clip-path="url(#pca33a1b19b)" d="M 332.902277 28.8 
Q 335.384936 28.8 336.754384 33.571357 
Q 338.123833 38.332341 338.274728 44.38989 
L 336.549394 44.38989 
Q 336.256144 39.794866 335.379242 37.108385 
Q 334.50234 34.411531 332.91936 34.411531 
Q 330.989036 34.411531 329.801801 39.35922 
Q 328.614566 44.296538 328.614566 54.503093 
Q 328.614566 62.873713 329.68507 68.080715 
Q 330.758422 73.277345 332.885195 73.277345 
Q 334.841143 73.277345 335.866094 67.800657 
Q 336.40704 64.917098 336.674666 60.207976 
L 338.4 60.207976 
Q 338.169386 67.72805 336.871115 72.820955 
Q 335.313759 78.951111 332.671663 78.951111 
Q 330.393995 78.951111 328.84518 73.920441 
Q 326.806667 67.282031 326.806667 53.403606 
Q 326.806667 42.875503 328.338399 36.133368 
Q 329.992556 28.8 332.902277 28.8 
z
M 332.546392 28.8 
L 332.546392 28.8 
z
" style="fill:#0000ff;"/>
   </g>
   <g id="matplotlib.axis_1">
    <g id="xtick_1">
     <g id="text_1">
      <!-- 0 -->
      <g style="fill:#262626;" transform="translate(95.175729 162.986875)scale(0.2 -0.2)">
       <defs>
        <path d="M 1731 4475 
Q 2600 4475 2988 3759 
Q 3288 3206 3288 2244 
Q 3288 1331 3016 734 
Q 2622 -122 1728 -122 
Q 922 -122 528 578 
Q 200 1163 200 2147 
Q 200 2909 397 3456 
Q 766 4475 1731 4475 
z
M 1725 391 
Q 2163 391 2422 778 
Q 2681 1166 2681 2222 
Q 2681 2984 2493 3476 
Q 2306 3969 1766 3969 
Q 1269 3969 1039 3501 
Q 809 3034 809 2125 
Q 809 1441 956 1025 
Q 1181 391 1725 391 
z
" id="Helvetica-30" transform="scale(0.015625)"/>
       </defs>
       <use xlink:href="#Helvetica-30"/>
      </g>
     </g>
    </g>
    <g id="xtick_2">
     <g id="text_2">
      <!-- 10 -->
      <g style="fill:#262626;" transform="translate(211.649879 162.986875)scale(0.2 -0.2)">
       <defs>
        <path d="M 613 3169 
L 613 3600 
Q 1222 3659 1462 3798 
Q 1703 3938 1822 4456 
L 2266 4456 
L 2266 0 
L 1666 0 
L 1666 3169 
L 613 3169 
z
" id="Helvetica-31" transform="scale(0.015625)"/>
       </defs>
       <use xlink:href="#Helvetica-31"/>
       <use x="55.615234" xlink:href="#Helvetica-30"/>
      </g>
     </g>
    </g>
    <g id="text_3">
     <!-- Position -->
     <g style="fill:#262626;" transform="translate(172.20125 189.089219)scale(0.25 -0.25)">
      <defs>
       <path d="M 547 4591 
L 2613 4591 
Q 3225 4591 3600 4245 
Q 3975 3900 3975 3275 
Q 3975 2738 3640 2339 
Q 3306 1941 2613 1941 
L 1169 1941 
L 1169 0 
L 547 0 
L 547 4591 
z
M 3347 3272 
Q 3347 3778 2972 3959 
Q 2766 4056 2406 4056 
L 1169 4056 
L 1169 2466 
L 2406 2466 
Q 2825 2466 3086 2644 
Q 3347 2822 3347 3272 
z
" id="Helvetica-50" transform="scale(0.015625)"/>
       <path d="M 1741 363 
Q 2300 363 2508 786 
Q 2716 1209 2716 1728 
Q 2716 2197 2566 2491 
Q 2328 2953 1747 2953 
Q 1231 2953 997 2559 
Q 763 2166 763 1609 
Q 763 1075 997 719 
Q 1231 363 1741 363 
z
M 1763 3444 
Q 2409 3444 2856 3012 
Q 3303 2581 3303 1744 
Q 3303 934 2909 406 
Q 2516 -122 1688 -122 
Q 997 -122 590 345 
Q 184 813 184 1600 
Q 184 2444 612 2944 
Q 1041 3444 1763 3444 
z
M 1744 3428 
L 1744 3428 
z
" id="Helvetica-6f" transform="scale(0.015625)"/>
       <path d="M 747 1050 
Q 772 769 888 619 
Q 1100 347 1625 347 
Q 1938 347 2175 483 
Q 2413 619 2413 903 
Q 2413 1119 2222 1231 
Q 2100 1300 1741 1391 
L 1294 1503 
Q 866 1609 663 1741 
Q 300 1969 300 2372 
Q 300 2847 642 3140 
Q 984 3434 1563 3434 
Q 2319 3434 2653 2991 
Q 2863 2709 2856 2384 
L 2325 2384 
Q 2309 2575 2191 2731 
Q 1997 2953 1519 2953 
Q 1200 2953 1036 2831 
Q 872 2709 872 2509 
Q 872 2291 1088 2159 
Q 1213 2081 1456 2022 
L 1828 1931 
Q 2434 1784 2641 1647 
Q 2969 1431 2969 969 
Q 2969 522 2630 197 
Q 2291 -128 1597 -128 
Q 850 -128 539 211 
Q 228 550 206 1050 
L 747 1050 
z
M 1578 3428 
L 1578 3428 
z
" id="Helvetica-73" transform="scale(0.015625)"/>
       <path d="M 413 3331 
L 984 3331 
L 984 0 
L 413 0 
L 413 3331 
z
M 413 4591 
L 984 4591 
L 984 3953 
L 413 3953 
L 413 4591 
z
" id="Helvetica-69" transform="scale(0.015625)"/>
       <path d="M 525 4281 
L 1094 4281 
L 1094 3347 
L 1628 3347 
L 1628 2888 
L 1094 2888 
L 1094 703 
Q 1094 528 1213 469 
Q 1278 434 1431 434 
Q 1472 434 1519 436 
Q 1566 438 1628 444 
L 1628 0 
Q 1531 -28 1426 -40 
Q 1322 -53 1200 -53 
Q 806 -53 665 148 
Q 525 350 525 672 
L 525 2888 
L 72 2888 
L 72 3347 
L 525 3347 
L 525 4281 
z
" id="Helvetica-74" transform="scale(0.015625)"/>
       <path d="M 413 3347 
L 947 3347 
L 947 2872 
Q 1184 3166 1450 3294 
Q 1716 3422 2041 3422 
Q 2753 3422 3003 2925 
Q 3141 2653 3141 2147 
L 3141 0 
L 2569 0 
L 2569 2109 
Q 2569 2416 2478 2603 
Q 2328 2916 1934 2916 
Q 1734 2916 1606 2875 
Q 1375 2806 1200 2600 
Q 1059 2434 1017 2257 
Q 975 2081 975 1753 
L 975 0 
L 413 0 
L 413 3347 
z
M 1734 3428 
L 1734 3428 
z
" id="Helvetica-6e" transform="scale(0.015625)"/>
      </defs>
      <use xlink:href="#Helvetica-50"/>
      <use x="66.699219" xlink:href="#Helvetica-6f"/>
      <use x="122.314453" xlink:href="#Helvetica-73"/>
      <use x="172.314453" xlink:href="#Helvetica-69"/>
      <use x="194.53125" xlink:href="#Helvetica-74"/>
      <use x="222.314453" xlink:href="#Helvetica-69"/>
      <use x="244.53125" xlink:href="#Helvetica-6f"/>
      <use x="300.146484" xlink:href="#Helvetica-6e"/>
     </g>
    </g>
   </g>
   <g id="matplotlib.axis_2">
    <g id="ytick_1">
     <g id="text_4">
      <!-- 0 -->
      <g style="fill:#262626;" transform="translate(76.818125 148.813438)scale(0.2 -0.2)">
       <use xlink:href="#Helvetica-30"/>
      </g>
     </g>
    </g>
    <g id="ytick_2">
     <g id="text_5">
      <!-- 0.25 -->
      <g style="fill:#262626;" transform="translate(49.018125 120.603437)scale(0.2 -0.2)">
       <defs>
        <path d="M 547 681 
L 1200 681 
L 1200 0 
L 547 0 
L 547 681 
z
" id="Helvetica-2e" transform="scale(0.015625)"/>
        <path d="M 200 0 
Q 231 578 439 1006 
Q 647 1434 1250 1784 
L 1850 2131 
Q 2253 2366 2416 2531 
Q 2672 2791 2672 3125 
Q 2672 3516 2437 3745 
Q 2203 3975 1813 3975 
Q 1234 3975 1013 3538 
Q 894 3303 881 2888 
L 309 2888 
Q 319 3472 525 3841 
Q 891 4491 1816 4491 
Q 2584 4491 2939 4075 
Q 3294 3659 3294 3150 
Q 3294 2613 2916 2231 
Q 2697 2009 2131 1694 
L 1703 1456 
Q 1397 1288 1222 1134 
Q 909 863 828 531 
L 3272 531 
L 3272 0 
L 200 0 
z
" id="Helvetica-32" transform="scale(0.015625)"/>
        <path d="M 791 1141 
Q 847 659 1238 475 
Q 1438 381 1700 381 
Q 2200 381 2440 700 
Q 2681 1019 2681 1406 
Q 2681 1875 2395 2131 
Q 2109 2388 1709 2388 
Q 1419 2388 1211 2275 
Q 1003 2163 856 1963 
L 369 1991 
L 709 4400 
L 3034 4400 
L 3034 3856 
L 1131 3856 
L 941 2613 
Q 1097 2731 1238 2791 
Q 1488 2894 1816 2894 
Q 2431 2894 2859 2497 
Q 3288 2100 3288 1491 
Q 3288 856 2895 371 
Q 2503 -113 1644 -113 
Q 1097 -113 676 195 
Q 256 503 206 1141 
L 791 1141 
z
" id="Helvetica-35" transform="scale(0.015625)"/>
       </defs>
       <use xlink:href="#Helvetica-30"/>
       <use x="55.615234" xlink:href="#Helvetica-2e"/>
       <use x="83.398438" xlink:href="#Helvetica-32"/>
       <use x="139.013672" xlink:href="#Helvetica-35"/>
      </g>
     </g>
    </g>
    <g id="ytick_3">
     <g id="text_6">
      <!-- 0.50 -->
      <g style="fill:#262626;" transform="translate(49.018125 92.393438)scale(0.2 -0.2)">
       <use xlink:href="#Helvetica-30"/>
       <use x="55.615234" xlink:href="#Helvetica-2e"/>
       <use x="83.398438" xlink:href="#Helvetica-35"/>
       <use x="139.013672" xlink:href="#Helvetica-30"/>
      </g>
     </g>
    </g>
    <g id="ytick_4">
     <g id="text_7">
      <!-- 0.75 -->
      <g style="fill:#262626;" transform="translate(49.018125 64.183437)scale(0.2 -0.2)">
       <defs>
        <path d="M 3347 4400 
L 3347 3909 
Q 3131 3700 2773 3181 
Q 2416 2663 2141 2063 
Q 1869 1478 1728 997 
Q 1638 688 1494 0 
L 872 0 
Q 1084 1281 1809 2550 
Q 2238 3294 2709 3834 
L 234 3834 
L 234 4400 
L 3347 4400 
z
" id="Helvetica-37" transform="scale(0.015625)"/>
       </defs>
       <use xlink:href="#Helvetica-30"/>
       <use x="55.615234" xlink:href="#Helvetica-2e"/>
       <use x="83.398438" xlink:href="#Helvetica-37"/>
       <use x="139.013672" xlink:href="#Helvetica-35"/>
      </g>
     </g>
    </g>
    <g id="ytick_5">
     <g id="text_8">
      <!-- 1.0 -->
      <g style="fill:#262626;" transform="translate(60.14 35.973437)scale(0.2 -0.2)">
       <use xlink:href="#Helvetica-31"/>
       <use x="55.615234" xlink:href="#Helvetica-2e"/>
       <use x="83.398438" xlink:href="#Helvetica-30"/>
      </g>
     </g>
    </g>
    <g id="text_9">
     <!-- Probability -->
     <g style="fill:#262626;" transform="translate(39.65875 143.579375)rotate(-90)scale(0.25 -0.25)">
      <defs>
       <path d="M 428 3347 
L 963 3347 
L 963 2769 
Q 1028 2938 1284 3180 
Q 1541 3422 1875 3422 
Q 1891 3422 1928 3419 
Q 1966 3416 2056 3406 
L 2056 2813 
Q 2006 2822 1964 2825 
Q 1922 2828 1872 2828 
Q 1447 2828 1219 2554 
Q 991 2281 991 1925 
L 991 0 
L 428 0 
L 428 3347 
z
" id="Helvetica-72" transform="scale(0.015625)"/>
       <path d="M 369 4606 
L 916 4606 
L 916 2941 
Q 1100 3181 1356 3307 
Q 1613 3434 1913 3434 
Q 2538 3434 2927 3004 
Q 3316 2575 3316 1738 
Q 3316 944 2931 419 
Q 2547 -106 1866 -106 
Q 1484 -106 1222 78 
Q 1066 188 888 428 
L 888 0 
L 369 0 
L 369 4606 
z
M 1831 391 
Q 2288 391 2514 753 
Q 2741 1116 2741 1709 
Q 2741 2238 2514 2584 
Q 2288 2931 1847 2931 
Q 1463 2931 1173 2647 
Q 884 2363 884 1709 
Q 884 1238 1003 944 
Q 1225 391 1831 391 
z
" id="Helvetica-62" transform="scale(0.015625)"/>
       <path d="M 844 891 
Q 844 647 1022 506 
Q 1200 366 1444 366 
Q 1741 366 2019 503 
Q 2488 731 2488 1250 
L 2488 1703 
Q 2384 1638 2221 1594 
Q 2059 1550 1903 1531 
L 1563 1488 
Q 1256 1447 1103 1359 
Q 844 1213 844 891 
z
M 2206 2028 
Q 2400 2053 2466 2191 
Q 2503 2266 2503 2406 
Q 2503 2694 2298 2823 
Q 2094 2953 1713 2953 
Q 1272 2953 1088 2716 
Q 984 2584 953 2325 
L 428 2325 
Q 444 2944 830 3186 
Q 1216 3428 1725 3428 
Q 2316 3428 2684 3203 
Q 3050 2978 3050 2503 
L 3050 575 
Q 3050 488 3086 434 
Q 3122 381 3238 381 
Q 3275 381 3322 386 
Q 3369 391 3422 400 
L 3422 -16 
Q 3291 -53 3222 -62 
Q 3153 -72 3034 -72 
Q 2744 -72 2613 134 
Q 2544 244 2516 444 
Q 2344 219 2022 53 
Q 1700 -113 1313 -113 
Q 847 -113 551 170 
Q 256 453 256 878 
Q 256 1344 547 1600 
Q 838 1856 1309 1916 
L 2206 2028 
z
M 1741 3428 
L 1741 3428 
z
" id="Helvetica-61" transform="scale(0.015625)"/>
       <path d="M 428 4591 
L 991 4591 
L 991 0 
L 428 0 
L 428 4591 
z
" id="Helvetica-6c" transform="scale(0.015625)"/>
       <path d="M 2503 3347 
L 3125 3347 
Q 3006 3025 2597 1878 
Q 2291 1016 2084 472 
Q 1597 -809 1397 -1090 
Q 1197 -1372 709 -1372 
Q 591 -1372 527 -1362 
Q 463 -1353 369 -1328 
L 369 -816 
Q 516 -856 581 -865 
Q 647 -875 697 -875 
Q 853 -875 926 -823 
Q 1000 -772 1050 -697 
Q 1066 -672 1162 -440 
Q 1259 -209 1303 -97 
L 66 3347 
L 703 3347 
L 1600 622 
L 2503 3347 
z
M 1597 3428 
L 1597 3428 
z
" id="Helvetica-79" transform="scale(0.015625)"/>
      </defs>
      <use xlink:href="#Helvetica-50"/>
      <use x="66.699219" xlink:href="#Helvetica-72"/>
      <use x="100" xlink:href="#Helvetica-6f"/>
      <use x="155.615234" xlink:href="#Helvetica-62"/>
      <use x="211.230469" xlink:href="#Helvetica-61"/>
      <use x="266.845703" xlink:href="#Helvetica-62"/>
      <use x="322.460938" xlink:href="#Helvetica-69"/>
      <use x="344.677734" xlink:href="#Helvetica-6c"/>
      <use x="366.894531" xlink:href="#Helvetica-69"/>
      <use x="389.111328" xlink:href="#Helvetica-74"/>
      <use x="416.894531" xlink:href="#Helvetica-79"/>
     </g>
    </g>
   </g>
   <g id="patch_83">
    <path d="M 94.94 141.64 
L 94.94 28.8 
" style="fill:none;stroke:#000000;stroke-linecap:square;stroke-linejoin:miter;"/>
   </g>
  </g>
 </g>
 <defs>
  <clipPath id="pca33a1b19b">
   <rect height="112.84" width="243.46" x="94.94" y="28.8"/>
  </clipPath>
 </defs>
</svg>
