<?xml version="1.0" encoding="utf-8" standalone="no"?>
<!DOCTYPE svg PUBLIC "-//W3C//DTD SVG 1.1//EN"
  "http://www.w3.org/Graphics/SVG/1.1/DTD/svg11.dtd">
<svg height="216pt" version="1.1" viewBox="0 0 360 216" width="360pt" xmlns="http://www.w3.org/2000/svg" xmlns:xlink="http://www.w3.org/1999/xlink">
 <metadata>
  <rdf:RDF xmlns:cc="http://creativecommons.org/ns#" xmlns:dc="http://purl.org/dc/elements/1.1/" xmlns:rdf="http://www.w3.org/1999/02/22-rdf-syntax-ns#">
   <cc:Work>
    <dc:type rdf:resource="http://purl.org/dc/dcmitype/StillImage"/>
    <dc:date>2022-12-19T21:13:20.121390</dc:date>
    <dc:format>image/svg+xml</dc:format>
    <dc:creator>
     <cc:Agent>
      <dc:title>Matplotlib v3.4.2, https://matplotlib.org/</dc:title>
     </cc:Agent>
    </dc:creator>
   </cc:Work>
  </rdf:RDF>
 </metadata>
 <defs>
  <style type="text/css">*{stroke-linecap:butt;stroke-linejoin:round;}</style>
 </defs>
 <g id="figure_1">
  <g id="patch_1">
   <path d="M 0 216 
L 360 216 
L 360 0 
L 0 0 
z
" style="fill:#ffffff;"/>
  </g>
  <g id="axes_1">
   <g id="patch_2">
    <path d="M 94.94 141.64 
L 338.4 141.64 
L 338.4 28.8 
L 94.94 28.8 
z
" style="fill:#ffffff;"/>
   </g>
   <g id="line2d_1">
    <path clip-path="url(#pc88cbf0c42)" d="M 94.94 141.64 
L 338.4 141.64 
" style="fill:none;stroke:#000000;stroke-linecap:round;stroke-width:0.5;"/>
   </g>
   <g id="patch_3">
    <path clip-path="url(#pc88cbf0c42)" d="M 102.72171 136.503089 
L 100.7494 130.964728 
L 98.652583 136.503089 
L 102.72171 136.503089 
z
M 99.829744 129.102222 
L 101.819032 129.102222 
L 106.533333 141.64 
L 104.603469 141.64 
L 103.287653 137.884948 
L 98.148894 137.884948 
L 96.742527 141.64 
L 94.94 141.64 
L 99.829744 129.102222 
z
M 100.740911 129.102222 
L 100.740911 129.102222 
z
" style="fill:#008000;"/>
   </g>
   <g id="patch_4">
    <path clip-path="url(#pc88cbf0c42)" d="M 101.035611 104.026667 
Q 103.518269 104.026667 104.887718 106.412345 
Q 106.257166 108.792837 106.408062 111.821612 
L 104.682728 111.821612 
Q 104.389478 109.5241 103.512575 108.180859 
Q 102.635673 106.832432 101.052693 106.832432 
Q 99.122369 106.832432 97.935134 109.306277 
Q 96.747899 111.774936 96.747899 116.878213 
Q 96.747899 121.063523 97.818404 123.667024 
Q 98.891755 126.265339 101.018528 126.265339 
Q 102.974476 126.265339 103.999427 123.526995 
Q 104.540373 122.085216 104.807999 119.730655 
L 106.533333 119.730655 
Q 106.302719 123.490691 105.004448 126.037144 
Q 103.447092 129.102222 100.804997 129.102222 
Q 98.527328 129.102222 96.978513 126.586887 
Q 94.94 123.267682 94.94 116.32847 
Q 94.94 111.064418 96.471732 107.693351 
Q 98.125889 104.026667 101.035611 104.026667 
z
M 100.679725 104.026667 
L 100.679725 104.026667 
z
" style="fill:#0000ff;"/>
   </g>
   <g id="patch_5">
    <path clip-path="url(#pc88cbf0c42)" d="M 100.919108 66.467755 
Q 102.707589 66.467755 104.012322 68.411396 
Q 105.903081 71.202464 106.326013 78.19957 
L 104.62599 78.19957 
Q 104.313627 74.288965 103.337841 72.500816 
Q 102.362055 70.712666 100.87488 70.712666 
Q 99.114042 70.712666 97.908822 74.436682 
Q 96.703602 78.152923 96.703602 85.515433 
Q 96.703602 91.875025 97.695974 95.871151 
Q 98.69111 99.867276 100.935694 99.867276 
Q 102.655068 99.867276 103.782888 97.068433 
Q 104.910709 94.261816 104.935587 87.987744 
L 100.963337 87.987744 
L 100.963337 83.983845 
L 106.533333 83.983845 
L 106.533333 103.07817 
L 105.427627 103.07817 
L 105.012987 98.483404 
Q 104.142243 101.181177 103.467762 102.230743 
Q 102.334413 104.026667 100.590161 104.026667 
Q 98.337283 104.026667 96.711895 99.921698 
Q 94.94 94.767163 94.94 85.779768 
Q 94.94 76.815698 96.667667 71.521221 
Q 98.309641 66.467755 100.919108 66.467755 
z
M 100.634389 66.413333 
L 100.634389 66.413333 
z
" style="fill:#ffa600;"/>
   </g>
   <g id="patch_6">
    <path clip-path="url(#pc88cbf0c42)" d="M 106.533333 28.8 
L 106.533333 33.281484 
L 101.718599 33.281484 
L 101.718599 66.413333 
L 99.754735 66.413333 
L 99.754735 33.281484 
L 94.94 33.281484 
L 94.94 28.8 
L 106.533333 28.8 
z
" style="fill:#ff0000;"/>
   </g>
   <g id="patch_7">
    <path clip-path="url(#pc88cbf0c42)" d="M 114.925219 136.503089 
L 112.952909 130.964728 
L 110.856092 136.503089 
L 114.925219 136.503089 
z
M 112.033252 129.102222 
L 114.022541 129.102222 
L 118.736842 141.64 
L 116.806978 141.64 
L 115.491162 137.884948 
L 110.352403 137.884948 
L 108.946036 141.64 
L 107.143509 141.64 
L 112.033252 129.102222 
z
M 112.94442 129.102222 
L 112.94442 129.102222 
z
" style="fill:#008000;"/>
   </g>
   <g id="patch_8">
    <path clip-path="url(#pc88cbf0c42)" d="M 113.239119 116.564444 
Q 115.721778 116.564444 117.091227 117.757284 
Q 118.460675 118.94753 118.61157 120.461917 
L 116.886236 120.461917 
Q 116.592987 119.313161 115.716084 118.641541 
Q 114.839182 117.967327 113.256202 117.967327 
Q 111.325878 117.967327 110.138643 119.20425 
Q 108.951408 120.438579 108.951408 122.990218 
Q 108.951408 125.082873 110.021913 126.384623 
Q 111.095264 127.683781 113.222037 127.683781 
Q 115.177985 127.683781 116.202936 126.314609 
Q 116.743882 125.593719 117.011508 124.416438 
L 118.736842 124.416438 
Q 118.506228 126.296457 117.207957 127.569683 
Q 115.650601 129.102222 113.008505 129.102222 
Q 110.730837 129.102222 109.182022 127.844555 
Q 107.143509 126.184952 107.143509 122.715346 
Q 107.143509 120.08332 108.675241 118.397787 
Q 110.329398 116.564444 113.239119 116.564444 
z
M 112.883234 116.564444 
L 112.883234 116.564444 
z
" style="fill:#0000ff;"/>
   </g>
   <g id="patch_9">
    <path clip-path="url(#pc88cbf0c42)" d="M 113.122617 79.005533 
Q 114.911097 79.005533 116.215831 80.949174 
Q 118.106589 83.740242 118.529522 90.737348 
L 116.829498 90.737348 
Q 116.517136 86.826743 115.54135 85.038594 
Q 114.565564 83.250444 113.078389 83.250444 
Q 111.317551 83.250444 110.112331 86.97446 
Q 108.907111 90.6907 108.907111 98.053211 
Q 108.907111 104.412803 109.899482 108.408928 
Q 110.894618 112.405054 113.139203 112.405054 
Q 114.858576 112.405054 115.986397 109.606211 
Q 117.114218 106.799594 117.139096 100.525522 
L 113.166845 100.525522 
L 113.166845 96.521622 
L 118.736842 96.521622 
L 118.736842 115.615948 
L 117.631136 115.615948 
L 117.216496 111.021181 
Q 116.345752 113.718955 115.671271 114.768521 
Q 114.537921 116.564444 112.793669 116.564444 
Q 110.540792 116.564444 108.915404 112.459475 
Q 107.143509 107.304941 107.143509 98.317546 
Q 107.143509 89.353476 108.871175 84.058999 
Q 110.51315 79.005533 113.122617 79.005533 
z
M 112.837898 78.951111 
L 112.837898 78.951111 
z
" style="fill:#ffa600;"/>
   </g>
   <g id="patch_10">
    <path clip-path="url(#pc88cbf0c42)" d="M 118.736842 28.8 
L 118.736842 34.775312 
L 113.922107 34.775312 
L 113.922107 78.951111 
L 111.958243 78.951111 
L 111.958243 34.775312 
L 107.143509 34.775312 
L 107.143509 28.8 
L 118.736842 28.8 
z
" style="fill:#ff0000;"/>
   </g>
   <g id="patch_11">
    <path clip-path="url(#pc88cbf0c42)" d="M 127.128728 136.503089 
L 125.156418 130.964728 
L 123.059601 136.503089 
L 127.128728 136.503089 
z
M 124.236761 129.102222 
L 126.226049 129.102222 
L 130.940351 141.64 
L 129.010487 141.64 
L 127.69467 137.884948 
L 122.555912 137.884948 
L 121.149545 141.64 
L 119.347018 141.64 
L 124.236761 129.102222 
z
M 125.147929 129.102222 
L 125.147929 129.102222 
z
" style="fill:#008000;"/>
   </g>
   <g id="patch_12">
    <path clip-path="url(#pc88cbf0c42)" d="M 125.442628 116.564444 
Q 127.925287 116.564444 129.294735 117.757284 
Q 130.664184 118.94753 130.815079 120.461917 
L 129.089745 120.461917 
Q 128.796495 119.313161 127.919593 118.641541 
Q 127.04269 117.967327 125.459711 117.967327 
Q 123.529387 117.967327 122.342152 119.20425 
Q 121.154917 120.438579 121.154917 122.990218 
Q 121.154917 125.082873 122.225421 126.384623 
Q 123.298773 127.683781 125.425546 127.683781 
Q 127.381494 127.683781 128.406445 126.314609 
Q 128.947391 125.593719 129.215017 124.416438 
L 130.940351 124.416438 
Q 130.709737 126.296457 129.411466 127.569683 
Q 127.85411 129.102222 125.212014 129.102222 
Q 122.934346 129.102222 121.385531 127.844555 
Q 119.347018 126.184952 119.347018 122.715346 
Q 119.347018 120.08332 120.87875 118.397787 
Q 122.532907 116.564444 125.442628 116.564444 
z
M 125.086742 116.564444 
L 125.086742 116.564444 
z
" style="fill:#0000ff;"/>
   </g>
   <g id="patch_13">
    <path clip-path="url(#pc88cbf0c42)" d="M 125.326126 91.52517 
Q 127.114606 91.52517 128.41934 92.820931 
Q 130.310098 94.681643 130.733031 99.34638 
L 129.033007 99.34638 
Q 128.720645 96.73931 127.744859 95.547211 
Q 126.769073 94.355111 125.281898 94.355111 
Q 123.52106 94.355111 122.31584 96.837788 
Q 121.11062 99.315282 121.11062 104.223622 
Q 121.11062 108.46335 122.102991 111.127434 
Q 123.098127 113.791517 125.342711 113.791517 
Q 127.062085 113.791517 128.189906 111.925622 
Q 129.317726 110.054544 129.342605 105.871829 
L 125.370354 105.871829 
L 125.370354 103.202563 
L 130.940351 103.202563 
L 130.940351 115.932113 
L 129.834644 115.932113 
L 129.420004 112.868936 
Q 128.54926 114.667451 127.874779 115.367162 
Q 126.74143 116.564444 124.997178 116.564444 
Q 122.744301 116.564444 121.118912 113.827798 
Q 119.347018 110.391442 119.347018 104.399846 
Q 119.347018 98.423799 121.074684 94.894147 
Q 122.716658 91.52517 125.326126 91.52517 
z
M 125.041406 91.488889 
L 125.041406 91.488889 
z
" style="fill:#ffa600;"/>
   </g>
   <g id="patch_14">
    <path clip-path="url(#pc88cbf0c42)" d="M 130.940351 28.8 
L 130.940351 36.26914 
L 126.125616 36.26914 
L 126.125616 91.488889 
L 124.161752 91.488889 
L 124.161752 36.26914 
L 119.347018 36.26914 
L 119.347018 28.8 
L 130.940351 28.8 
z
" style="fill:#ff0000;"/>
   </g>
   <g id="patch_15">
    <path clip-path="url(#pc88cbf0c42)" d="M 137.529635 129.120363 
Q 139.318115 129.120363 140.622849 129.768243 
Q 142.513607 130.698599 142.93654 133.030968 
L 141.236516 133.030968 
Q 140.924154 131.727433 139.948368 131.131383 
Q 138.972582 130.535333 137.485406 130.535333 
Q 135.724569 130.535333 134.519348 131.776672 
Q 133.314128 133.015419 133.314128 135.469589 
Q 133.314128 137.589453 134.3065 138.921495 
Q 135.301636 140.253536 137.54622 140.253536 
Q 139.265594 140.253536 140.393415 139.320589 
Q 141.521235 138.38505 141.546114 136.293693 
L 137.573863 136.293693 
L 137.573863 134.959059 
L 143.14386 134.959059 
L 143.14386 141.323834 
L 142.038153 141.323834 
L 141.623513 139.792246 
Q 140.752769 140.691503 140.078288 141.041359 
Q 138.944939 141.64 137.200687 141.64 
Q 134.94781 141.64 133.322421 140.271677 
Q 131.550526 138.553499 131.550526 135.557701 
Q 131.550526 132.569677 133.278193 130.804851 
Q 134.920167 129.120363 137.529635 129.120363 
z
M 137.244915 129.102222 
L 137.244915 129.102222 
z
" style="fill:#ffa600;"/>
   </g>
   <g id="patch_16">
    <path clip-path="url(#pc88cbf0c42)" d="M 139.332237 118.8284 
L 137.359927 107.751678 
L 135.26311 118.8284 
L 139.332237 118.8284 
z
M 136.44027 104.026667 
L 138.429558 104.026667 
L 143.14386 129.102222 
L 141.213996 129.102222 
L 139.898179 121.592118 
L 134.759421 121.592118 
L 133.353053 129.102222 
L 131.550526 129.102222 
L 136.44027 104.026667 
z
M 137.351438 104.026667 
L 137.351438 104.026667 
z
" style="fill:#008000;"/>
   </g>
   <g id="patch_17">
    <path clip-path="url(#pc88cbf0c42)" d="M 137.646137 66.413333 
Q 140.128796 66.413333 141.498244 69.991851 
Q 142.867692 73.562589 143.018588 78.105751 
L 141.293254 78.105751 
Q 141.000004 74.659483 140.123102 72.644622 
Q 139.246199 70.621981 137.66322 70.621981 
Q 135.732895 70.621981 134.545661 74.332749 
Q 133.358426 78.035737 133.358426 85.690653 
Q 133.358426 91.968618 134.42893 95.87387 
Q 135.502281 99.771342 137.629054 99.771342 
Q 139.585002 99.771342 140.609953 95.663826 
Q 141.1509 93.501157 141.418526 89.969315 
L 143.14386 89.969315 
Q 142.913246 95.609371 141.614975 99.429049 
Q 140.057619 104.026667 137.415523 104.026667 
Q 135.137854 104.026667 133.58904 100.253664 
Q 131.550526 95.274857 131.550526 84.866038 
Q 131.550526 76.969961 133.082258 71.91336 
Q 134.736415 66.413333 137.646137 66.413333 
z
M 137.290251 66.413333 
L 137.290251 66.413333 
z
" style="fill:#0000ff;"/>
   </g>
   <g id="patch_18">
    <path clip-path="url(#pc88cbf0c42)" d="M 143.14386 28.8 
L 143.14386 33.281484 
L 138.329125 33.281484 
L 138.329125 66.413333 
L 136.365261 66.413333 
L 136.365261 33.281484 
L 131.550526 33.281484 
L 131.550526 28.8 
L 143.14386 28.8 
z
" style="fill:#ff0000;"/>
   </g>
   <g id="patch_19">
    <path clip-path="url(#pc88cbf0c42)" d="M 155.347368 129.102222 
L 155.347368 130.59605 
L 150.532634 130.59605 
L 150.532634 141.64 
L 148.56877 141.64 
L 148.56877 130.59605 
L 143.754035 130.59605 
L 143.754035 129.102222 
L 155.347368 129.102222 
z
" style="fill:#ff0000;"/>
   </g>
   <g id="patch_20">
    <path clip-path="url(#pc88cbf0c42)" d="M 149.733143 104.062948 
Q 151.521624 104.062948 152.826357 105.358708 
Q 154.717116 107.21942 155.140048 111.884158 
L 153.440025 111.884158 
Q 153.127662 109.277088 152.151876 108.084988 
Q 151.17609 106.892889 149.688915 106.892889 
Q 147.928077 106.892889 146.722857 109.375566 
Q 145.517637 111.85306 145.517637 116.7614 
Q 145.517637 121.001128 146.510009 123.665212 
Q 147.505145 126.329295 149.749729 126.329295 
Q 151.469103 126.329295 152.596923 124.4634 
Q 153.724744 122.592322 153.749622 118.409607 
L 149.777372 118.409607 
L 149.777372 115.740341 
L 155.347368 115.740341 
L 155.347368 128.469891 
L 154.241662 128.469891 
L 153.827022 125.406714 
Q 152.956278 127.205229 152.281797 127.90494 
Q 151.148448 129.102222 149.404196 129.102222 
Q 147.151319 129.102222 145.52593 126.365576 
Q 143.754035 122.92922 143.754035 116.937623 
Q 143.754035 110.961576 145.481702 107.431925 
Q 147.123676 104.062948 149.733143 104.062948 
z
M 149.448424 104.026667 
L 149.448424 104.026667 
z
" style="fill:#ffa600;"/>
   </g>
   <g id="patch_21">
    <path clip-path="url(#pc88cbf0c42)" d="M 151.535745 88.615933 
L 149.563435 72.000851 
L 147.466618 88.615933 
L 151.535745 88.615933 
z
M 148.643779 66.413333 
L 150.633067 66.413333 
L 155.347368 104.026667 
L 153.417504 104.026667 
L 152.101688 92.76151 
L 146.962929 92.76151 
L 145.556562 104.026667 
L 143.754035 104.026667 
L 148.643779 66.413333 
z
M 149.554946 66.413333 
L 149.554946 66.413333 
z
" style="fill:#008000;"/>
   </g>
   <g id="patch_22">
    <path clip-path="url(#pc88cbf0c42)" d="M 149.849646 28.8 
Q 152.332305 28.8 153.701753 32.378518 
Q 155.071201 35.949256 155.222097 40.492418 
L 153.496763 40.492418 
Q 153.203513 37.04615 152.32661 35.031289 
Q 151.449708 33.008648 149.866728 33.008648 
Q 147.936404 33.008648 146.749169 36.719415 
Q 145.561935 40.422403 145.561935 48.07732 
Q 145.561935 54.355284 146.632439 58.260536 
Q 147.70579 62.158009 149.832563 62.158009 
Q 151.788511 62.158009 152.813462 58.050493 
Q 153.354408 55.887824 153.622034 52.355982 
L 155.347368 52.355982 
Q 155.116754 57.996037 153.818483 61.815716 
Q 152.261127 66.413333 149.619032 66.413333 
Q 147.341363 66.413333 145.792549 62.640331 
Q 143.754035 57.661524 143.754035 47.252705 
Q 143.754035 39.356627 145.285767 34.300026 
Q 146.939924 28.8 149.849646 28.8 
z
M 149.49376 28.8 
L 149.49376 28.8 
z
" style="fill:#0000ff;"/>
   </g>
   <g id="patch_23">
    <path clip-path="url(#pc88cbf0c42)" d="M 162.053155 129.102222 
Q 164.535813 129.102222 165.905262 130.295061 
Q 167.27471 131.485308 167.425605 132.999695 
L 165.700271 132.999695 
Q 165.407022 131.850939 164.530119 131.179318 
Q 163.653217 130.505105 162.070237 130.505105 
Q 160.139913 130.505105 158.952678 131.742027 
Q 157.765443 132.976357 157.765443 135.527995 
Q 157.765443 137.62065 158.835948 138.922401 
Q 159.909299 140.221559 162.036072 140.221559 
Q 163.99202 140.221559 165.016971 138.852387 
Q 165.557917 138.131497 165.825543 136.954216 
L 167.550877 136.954216 
Q 167.320263 138.834235 166.021992 140.107461 
Q 164.464636 141.64 161.822541 141.64 
Q 159.544872 141.64 157.996057 140.382333 
Q 155.957544 138.72273 155.957544 135.253124 
Q 155.957544 132.621098 157.489276 130.935564 
Q 159.143433 129.102222 162.053155 129.102222 
z
M 161.697269 129.102222 
L 161.697269 129.102222 
z
" style="fill:#0000ff;"/>
   </g>
   <g id="patch_24">
    <path clip-path="url(#pc88cbf0c42)" d="M 167.550877 116.564444 
L 167.550877 118.058272 
L 162.736143 118.058272 
L 162.736143 129.102222 
L 160.772279 129.102222 
L 160.772279 118.058272 
L 155.957544 118.058272 
L 155.957544 116.564444 
L 167.550877 116.564444 
z
" style="fill:#ff0000;"/>
   </g>
   <g id="patch_25">
    <path clip-path="url(#pc88cbf0c42)" d="M 161.936652 91.52517 
Q 163.725132 91.52517 165.029866 92.820931 
Q 166.920624 94.681643 167.343557 99.34638 
L 165.643533 99.34638 
Q 165.331171 96.73931 164.355385 95.547211 
Q 163.379599 94.355111 161.892424 94.355111 
Q 160.131586 94.355111 158.926366 96.837788 
Q 157.721146 99.315282 157.721146 104.223622 
Q 157.721146 108.46335 158.713517 111.127434 
Q 159.708653 113.791517 161.953238 113.791517 
Q 163.672611 113.791517 164.800432 111.925622 
Q 165.928253 110.054544 165.953131 105.871829 
L 161.98088 105.871829 
L 161.98088 103.202563 
L 167.550877 103.202563 
L 167.550877 115.932113 
L 166.445171 115.932113 
L 166.030531 112.868936 
Q 165.159787 114.667451 164.485306 115.367162 
Q 163.351957 116.564444 161.607704 116.564444 
Q 159.354827 116.564444 157.729439 113.827798 
Q 155.957544 110.391442 155.957544 104.399846 
Q 155.957544 98.423799 157.68521 94.894147 
Q 159.327185 91.52517 161.936652 91.52517 
z
M 161.651933 91.488889 
L 161.651933 91.488889 
z
" style="fill:#ffa600;"/>
   </g>
   <g id="patch_26">
    <path clip-path="url(#pc88cbf0c42)" d="M 163.739254 65.804332 
L 161.766944 38.112529 
L 159.670127 65.804332 
L 163.739254 65.804332 
z
M 160.847288 28.8 
L 162.836576 28.8 
L 167.550877 91.488889 
L 165.621013 91.488889 
L 164.305197 72.713628 
L 159.166438 72.713628 
L 157.760071 91.488889 
L 155.957544 91.488889 
L 160.847288 28.8 
z
M 161.758455 28.8 
L 161.758455 28.8 
z
" style="fill:#008000;"/>
   </g>
   <g id="patch_27">
    <path clip-path="url(#pc88cbf0c42)" d="M 175.942763 136.503089 
L 173.970453 130.964728 
L 171.873636 136.503089 
L 175.942763 136.503089 
z
M 173.050796 129.102222 
L 175.040084 129.102222 
L 179.754386 141.64 
L 177.824522 141.64 
L 176.508705 137.884948 
L 171.369947 137.884948 
L 169.96358 141.64 
L 168.161053 141.64 
L 173.050796 129.102222 
z
M 173.961964 129.102222 
L 173.961964 129.102222 
z
" style="fill:#008000;"/>
   </g>
   <g id="patch_28">
    <path clip-path="url(#pc88cbf0c42)" d="M 174.256663 116.564444 
Q 176.739322 116.564444 178.10877 117.757284 
Q 179.478219 118.94753 179.629114 120.461917 
L 177.90378 120.461917 
Q 177.61053 119.313161 176.733628 118.641541 
Q 175.856726 117.967327 174.273746 117.967327 
Q 172.343422 117.967327 171.156187 119.20425 
Q 169.968952 120.438579 169.968952 122.990218 
Q 169.968952 125.082873 171.039456 126.384623 
Q 172.112808 127.683781 174.239581 127.683781 
Q 176.195529 127.683781 177.22048 126.314609 
Q 177.761426 125.593719 178.029052 124.416438 
L 179.754386 124.416438 
Q 179.523772 126.296457 178.225501 127.569683 
Q 176.668145 129.102222 174.026049 129.102222 
Q 171.748381 129.102222 170.199566 127.844555 
Q 168.161053 126.184952 168.161053 122.715346 
Q 168.161053 120.08332 169.692785 118.397787 
Q 171.346942 116.564444 174.256663 116.564444 
z
M 173.900778 116.564444 
L 173.900778 116.564444 
z
" style="fill:#0000ff;"/>
   </g>
   <g id="patch_29">
    <path clip-path="url(#pc88cbf0c42)" d="M 174.140161 79.005533 
Q 175.928641 79.005533 177.233375 80.949174 
Q 179.124133 83.740242 179.547066 90.737348 
L 177.847042 90.737348 
Q 177.53468 86.826743 176.558894 85.038594 
Q 175.583108 83.250444 174.095933 83.250444 
Q 172.335095 83.250444 171.129875 86.97446 
Q 169.924655 90.6907 169.924655 98.053211 
Q 169.924655 104.412803 170.917026 108.408928 
Q 171.912162 112.405054 174.156746 112.405054 
Q 175.87612 112.405054 177.003941 109.606211 
Q 178.131762 106.799594 178.15664 100.525522 
L 174.184389 100.525522 
L 174.184389 96.521622 
L 179.754386 96.521622 
L 179.754386 115.615948 
L 178.648679 115.615948 
L 178.234039 111.021181 
Q 177.363296 113.718955 176.688815 114.768521 
Q 175.555465 116.564444 173.811213 116.564444 
Q 171.558336 116.564444 169.932947 112.459475 
Q 168.161053 107.304941 168.161053 98.317546 
Q 168.161053 89.353476 169.888719 84.058999 
Q 171.530693 79.005533 174.140161 79.005533 
z
M 173.855441 78.951111 
L 173.855441 78.951111 
z
" style="fill:#ffa600;"/>
   </g>
   <g id="patch_30">
    <path clip-path="url(#pc88cbf0c42)" d="M 179.754386 28.8 
L 179.754386 34.775312 
L 174.939651 34.775312 
L 174.939651 78.951111 
L 172.975787 78.951111 
L 172.975787 34.775312 
L 168.161053 34.775312 
L 168.161053 28.8 
L 179.754386 28.8 
z
" style="fill:#ff0000;"/>
   </g>
   <g id="patch_31">
    <path clip-path="url(#pc88cbf0c42)" d="M 186.460172 129.102222 
Q 188.942831 129.102222 190.312279 130.295061 
Q 191.681727 131.485308 191.832623 132.999695 
L 190.107289 132.999695 
Q 189.814039 131.850939 188.937137 131.179318 
Q 188.060234 130.505105 186.477255 130.505105 
Q 184.54693 130.505105 183.359696 131.742027 
Q 182.172461 132.976357 182.172461 135.527995 
Q 182.172461 137.62065 183.242965 138.922401 
Q 184.316316 140.221559 186.44309 140.221559 
Q 188.399038 140.221559 189.423988 138.852387 
Q 189.964935 138.131497 190.232561 136.954216 
L 191.957895 136.954216 
Q 191.727281 138.834235 190.42901 140.107461 
Q 188.871654 141.64 186.229558 141.64 
Q 183.951889 141.64 182.403075 140.382333 
Q 180.364561 138.72273 180.364561 135.253124 
Q 180.364561 132.621098 181.896294 130.935564 
Q 183.55045 129.102222 186.460172 129.102222 
z
M 186.104286 129.102222 
L 186.104286 129.102222 
z
" style="fill:#0000ff;"/>
   </g>
   <g id="patch_32">
    <path clip-path="url(#pc88cbf0c42)" d="M 186.34367 116.582585 
Q 188.13215 116.582585 189.436884 117.230465 
Q 191.327642 118.160821 191.750575 120.49319 
L 190.050551 120.49319 
Q 189.738189 119.189655 188.762403 118.593605 
Q 187.786617 117.997555 186.299441 117.997555 
Q 184.538604 117.997555 183.333384 119.238894 
Q 182.128163 120.477641 182.128163 122.931811 
Q 182.128163 125.051675 183.120535 126.383717 
Q 184.115671 127.715759 186.360255 127.715759 
Q 188.079629 127.715759 189.20745 126.782811 
Q 190.33527 125.847272 190.360149 123.755915 
L 186.387898 123.755915 
L 186.387898 122.421282 
L 191.957895 122.421282 
L 191.957895 128.786057 
L 190.852188 128.786057 
L 190.437548 127.254468 
Q 189.566804 128.153726 188.892323 128.503581 
Q 187.758974 129.102222 186.014722 129.102222 
Q 183.761845 129.102222 182.136456 127.733899 
Q 180.364561 126.015721 180.364561 123.019923 
Q 180.364561 120.031899 182.092228 118.267074 
Q 183.734202 116.582585 186.34367 116.582585 
z
M 186.05895 116.564444 
L 186.05895 116.564444 
z
" style="fill:#ffa600;"/>
   </g>
   <g id="patch_33">
    <path clip-path="url(#pc88cbf0c42)" d="M 188.146272 101.15371 
L 186.173962 84.538629 
L 184.077145 101.15371 
L 188.146272 101.15371 
z
M 185.254305 78.951111 
L 187.243593 78.951111 
L 191.957895 116.564444 
L 190.028031 116.564444 
L 188.712214 105.299288 
L 183.573456 105.299288 
L 182.167088 116.564444 
L 180.364561 116.564444 
L 185.254305 78.951111 
z
M 186.165473 78.951111 
L 186.165473 78.951111 
z
" style="fill:#008000;"/>
   </g>
   <g id="patch_34">
    <path clip-path="url(#pc88cbf0c42)" d="M 191.957895 28.8 
L 191.957895 34.775312 
L 187.14316 34.775312 
L 187.14316 78.951111 
L 185.179296 78.951111 
L 185.179296 34.775312 
L 180.364561 34.775312 
L 180.364561 28.8 
L 191.957895 28.8 
z
" style="fill:#ff0000;"/>
   </g>
   <g id="patch_35">
    <path clip-path="url(#pc88cbf0c42)" d="M 200.34978 136.503089 
L 198.377471 130.964728 
L 196.280653 136.503089 
L 200.34978 136.503089 
z
M 197.457814 129.102222 
L 199.447102 129.102222 
L 204.161404 141.64 
L 202.231539 141.64 
L 200.915723 137.884948 
L 195.776964 137.884948 
L 194.370597 141.64 
L 192.56807 141.64 
L 197.457814 129.102222 
z
M 198.368981 129.102222 
L 198.368981 129.102222 
z
" style="fill:#008000;"/>
   </g>
   <g id="patch_36">
    <path clip-path="url(#pc88cbf0c42)" d="M 198.663681 116.564444 
Q 201.14634 116.564444 202.515788 117.757284 
Q 203.885236 118.94753 204.036132 120.461917 
L 202.310798 120.461917 
Q 202.017548 119.313161 201.140645 118.641541 
Q 200.263743 117.967327 198.680763 117.967327 
Q 196.750439 117.967327 195.563204 119.20425 
Q 194.37597 120.438579 194.37597 122.990218 
Q 194.37597 125.082873 195.446474 126.384623 
Q 196.519825 127.683781 198.646598 127.683781 
Q 200.602546 127.683781 201.627497 126.314609 
Q 202.168443 125.593719 202.43607 124.416438 
L 204.161404 124.416438 
Q 203.93079 126.296457 202.632518 127.569683 
Q 201.075163 129.102222 198.433067 129.102222 
Q 196.155398 129.102222 194.606584 127.844555 
Q 192.56807 126.184952 192.56807 122.715346 
Q 192.56807 120.08332 194.099802 118.397787 
Q 195.753959 116.564444 198.663681 116.564444 
z
M 198.307795 116.564444 
L 198.307795 116.564444 
z
" style="fill:#0000ff;"/>
   </g>
   <g id="patch_37">
    <path clip-path="url(#pc88cbf0c42)" d="M 204.161404 78.951111 
L 204.161404 83.432595 
L 199.346669 83.432595 
L 199.346669 116.564444 
L 197.382805 116.564444 
L 197.382805 83.432595 
L 192.56807 83.432595 
L 192.56807 78.951111 
L 204.161404 78.951111 
z
" style="fill:#ff0000;"/>
   </g>
   <g id="patch_38">
    <path clip-path="url(#pc88cbf0c42)" d="M 198.547178 28.872563 
Q 200.335659 28.872563 201.640393 31.464083 
Q 203.531151 35.185507 203.954084 44.514982 
L 202.25406 44.514982 
Q 201.941698 39.300842 200.965912 36.916643 
Q 199.990125 34.532444 198.50295 34.532444 
Q 196.742112 34.532444 195.536892 39.497798 
Q 194.331672 44.452786 194.331672 54.269467 
Q 194.331672 62.748923 195.324044 68.07709 
Q 196.31918 73.405257 198.563764 73.405257 
Q 200.283138 73.405257 201.410958 69.673467 
Q 202.538779 65.93131 202.563658 57.565881 
L 198.591407 57.565881 
L 198.591407 52.227348 
L 204.161404 52.227348 
L 204.161404 77.686449 
L 203.055697 77.686449 
L 202.641057 71.560094 
Q 201.770313 75.157125 201.095832 76.556546 
Q 199.962483 78.951111 198.218231 78.951111 
Q 195.965354 78.951111 194.339965 73.477819 
Q 192.56807 66.605106 192.56807 54.621914 
Q 192.56807 42.669819 194.295737 35.610517 
Q 195.937711 28.872563 198.547178 28.872563 
z
M 198.262459 28.8 
L 198.262459 28.8 
z
" style="fill:#ffa600;"/>
   </g>
   <g id="patch_39">
    <path clip-path="url(#pc88cbf0c42)" d="M 210.86719 129.102222 
Q 213.349848 129.102222 214.719297 130.295061 
Q 216.088745 131.485308 216.239641 132.999695 
L 214.514307 132.999695 
Q 214.221057 131.850939 213.344154 131.179318 
Q 212.467252 130.505105 210.884272 130.505105 
Q 208.953948 130.505105 207.766713 131.742027 
Q 206.579478 132.976357 206.579478 135.527995 
Q 206.579478 137.62065 207.649983 138.922401 
Q 208.723334 140.221559 210.850107 140.221559 
Q 212.806055 140.221559 213.831006 138.852387 
Q 214.371952 138.131497 214.639578 136.954216 
L 216.364912 136.954216 
Q 216.134298 138.834235 214.836027 140.107461 
Q 213.278671 141.64 210.636576 141.64 
Q 208.358907 141.64 206.810092 140.382333 
Q 204.771579 138.72273 204.771579 135.253124 
Q 204.771579 132.621098 206.303311 130.935564 
Q 207.957468 129.102222 210.86719 129.102222 
z
M 210.511304 129.102222 
L 210.511304 129.102222 
z
" style="fill:#0000ff;"/>
   </g>
   <g id="patch_40">
    <path clip-path="url(#pc88cbf0c42)" d="M 212.553289 118.8284 
L 210.580979 107.751678 
L 208.484162 118.8284 
L 212.553289 118.8284 
z
M 209.661323 104.026667 
L 211.650611 104.026667 
L 216.364912 129.102222 
L 214.435048 129.102222 
L 213.119232 121.592118 
L 207.980473 121.592118 
L 206.574106 129.102222 
L 204.771579 129.102222 
L 209.661323 104.026667 
z
M 210.57249 104.026667 
L 210.57249 104.026667 
z
" style="fill:#008000;"/>
   </g>
   <g id="patch_41">
    <path clip-path="url(#pc88cbf0c42)" d="M 210.750687 66.467755 
Q 212.539168 66.467755 213.843901 68.411396 
Q 215.73466 71.202464 216.157592 78.19957 
L 214.457568 78.19957 
Q 214.145206 74.288965 213.16942 72.500816 
Q 212.193634 70.712666 210.706459 70.712666 
Q 208.945621 70.712666 207.740401 74.436682 
Q 206.535181 78.152923 206.535181 85.515433 
Q 206.535181 91.875025 207.527553 95.871151 
Q 208.522688 99.867276 210.767273 99.867276 
Q 212.486647 99.867276 213.614467 97.068433 
Q 214.742288 94.261816 214.767166 87.987744 
L 210.794915 87.987744 
L 210.794915 83.983845 
L 216.364912 83.983845 
L 216.364912 103.07817 
L 215.259206 103.07817 
L 214.844566 98.483404 
Q 213.973822 101.181177 213.299341 102.230743 
Q 212.165992 104.026667 210.421739 104.026667 
Q 208.168862 104.026667 206.543474 99.921698 
Q 204.771579 94.767163 204.771579 85.779768 
Q 204.771579 76.815698 206.499245 71.521221 
Q 208.14122 66.467755 210.750687 66.467755 
z
M 210.465968 66.413333 
L 210.465968 66.413333 
z
" style="fill:#ffa600;"/>
   </g>
   <g id="patch_42">
    <path clip-path="url(#pc88cbf0c42)" d="M 216.364912 28.8 
L 216.364912 33.281484 
L 211.550178 33.281484 
L 211.550178 66.413333 
L 209.586314 66.413333 
L 209.586314 33.281484 
L 204.771579 33.281484 
L 204.771579 28.8 
L 216.364912 28.8 
z
" style="fill:#ff0000;"/>
   </g>
   <g id="patch_43">
    <path clip-path="url(#pc88cbf0c42)" d="M 224.756798 136.503089 
L 222.784488 130.964728 
L 220.687671 136.503089 
L 224.756798 136.503089 
z
M 221.864831 129.102222 
L 223.85412 129.102222 
L 228.568421 141.64 
L 226.638557 141.64 
L 225.32274 137.884948 
L 220.183982 137.884948 
L 218.777615 141.64 
L 216.975088 141.64 
L 221.864831 129.102222 
z
M 222.775999 129.102222 
L 222.775999 129.102222 
z
" style="fill:#008000;"/>
   </g>
   <g id="patch_44">
    <path clip-path="url(#pc88cbf0c42)" d="M 223.070698 104.026667 
Q 225.553357 104.026667 226.922805 106.412345 
Q 228.292254 108.792837 228.443149 111.821612 
L 226.717815 111.821612 
Q 226.424565 109.5241 225.547663 108.180859 
Q 224.670761 106.832432 223.087781 106.832432 
Q 221.157457 106.832432 219.970222 109.306277 
Q 218.782987 111.774936 218.782987 116.878213 
Q 218.782987 121.063523 219.853491 123.667024 
Q 220.926843 126.265339 223.053616 126.265339 
Q 225.009564 126.265339 226.034515 123.526995 
Q 226.575461 122.085216 226.843087 119.730655 
L 228.568421 119.730655 
Q 228.337807 123.490691 227.039536 126.037144 
Q 225.48218 129.102222 222.840084 129.102222 
Q 220.562416 129.102222 219.013601 126.586887 
Q 216.975088 123.267682 216.975088 116.32847 
Q 216.975088 111.064418 218.50682 107.693351 
Q 220.160977 104.026667 223.070698 104.026667 
z
M 222.714813 104.026667 
L 222.714813 104.026667 
z
" style="fill:#0000ff;"/>
   </g>
   <g id="patch_45">
    <path clip-path="url(#pc88cbf0c42)" d="M 222.954196 66.467755 
Q 224.742676 66.467755 226.04741 68.411396 
Q 227.938168 71.202464 228.361101 78.19957 
L 226.661077 78.19957 
Q 226.348715 74.288965 225.372929 72.500816 
Q 224.397143 70.712666 222.909968 70.712666 
Q 221.14913 70.712666 219.94391 74.436682 
Q 218.73869 78.152923 218.73869 85.515433 
Q 218.73869 91.875025 219.731061 95.871151 
Q 220.726197 99.867276 222.970782 99.867276 
Q 224.690155 99.867276 225.817976 97.068433 
Q 226.945797 94.261816 226.970675 87.987744 
L 222.998424 87.987744 
L 222.998424 83.983845 
L 228.568421 83.983845 
L 228.568421 103.07817 
L 227.462714 103.07817 
L 227.048075 98.483404 
Q 226.177331 101.181177 225.50285 102.230743 
Q 224.3695 104.026667 222.625248 104.026667 
Q 220.372371 104.026667 218.746982 99.921698 
Q 216.975088 94.767163 216.975088 85.779768 
Q 216.975088 76.815698 218.702754 71.521221 
Q 220.344728 66.467755 222.954196 66.467755 
z
M 222.669477 66.413333 
L 222.669477 66.413333 
z
" style="fill:#ffa600;"/>
   </g>
   <g id="patch_46">
    <path clip-path="url(#pc88cbf0c42)" d="M 228.568421 28.8 
L 228.568421 33.281484 
L 223.753686 33.281484 
L 223.753686 66.413333 
L 221.789822 66.413333 
L 221.789822 33.281484 
L 216.975088 33.281484 
L 216.975088 28.8 
L 228.568421 28.8 
z
" style="fill:#ff0000;"/>
   </g>
   <g id="patch_47">
    <path clip-path="url(#pc88cbf0c42)" d="M 235.274207 129.102222 
Q 237.756866 129.102222 239.126314 130.295061 
Q 240.495763 131.485308 240.646658 132.999695 
L 238.921324 132.999695 
Q 238.628074 131.850939 237.751172 131.179318 
Q 236.874269 130.505105 235.29129 130.505105 
Q 233.360966 130.505105 232.173731 131.742027 
Q 230.986496 132.976357 230.986496 135.527995 
Q 230.986496 137.62065 232.057 138.922401 
Q 233.130352 140.221559 235.257125 140.221559 
Q 237.213073 140.221559 238.238023 138.852387 
Q 238.77897 138.131497 239.046596 136.954216 
L 240.77193 136.954216 
Q 240.541316 138.834235 239.243045 140.107461 
Q 237.685689 141.64 235.043593 141.64 
Q 232.765925 141.64 231.21711 140.382333 
Q 229.178596 138.72273 229.178596 135.253124 
Q 229.178596 132.621098 230.710329 130.935564 
Q 232.364485 129.102222 235.274207 129.102222 
z
M 234.918321 129.102222 
L 234.918321 129.102222 
z
" style="fill:#0000ff;"/>
   </g>
   <g id="patch_48">
    <path clip-path="url(#pc88cbf0c42)" d="M 235.157705 116.582585 
Q 236.946185 116.582585 238.250919 117.230465 
Q 240.141677 118.160821 240.56461 120.49319 
L 238.864586 120.49319 
Q 238.552224 119.189655 237.576438 118.593605 
Q 236.600652 117.997555 235.113476 117.997555 
Q 233.352639 117.997555 232.147419 119.238894 
Q 230.942198 120.477641 230.942198 122.931811 
Q 230.942198 125.051675 231.93457 126.383717 
Q 232.929706 127.715759 235.17429 127.715759 
Q 236.893664 127.715759 238.021485 126.782811 
Q 239.149305 125.847272 239.174184 123.755915 
L 235.201933 123.755915 
L 235.201933 122.421282 
L 240.77193 122.421282 
L 240.77193 128.786057 
L 239.666223 128.786057 
L 239.251583 127.254468 
Q 238.380839 128.153726 237.706358 128.503581 
Q 236.573009 129.102222 234.828757 129.102222 
Q 232.57588 129.102222 230.950491 127.733899 
Q 229.178596 126.015721 229.178596 123.019923 
Q 229.178596 120.031899 230.906263 118.267074 
Q 232.548237 116.582585 235.157705 116.582585 
z
M 234.872985 116.564444 
L 234.872985 116.564444 
z
" style="fill:#ffa600;"/>
   </g>
   <g id="patch_49">
    <path clip-path="url(#pc88cbf0c42)" d="M 236.960307 101.15371 
L 234.987997 84.538629 
L 232.89118 101.15371 
L 236.960307 101.15371 
z
M 234.06834 78.951111 
L 236.057628 78.951111 
L 240.77193 116.564444 
L 238.842066 116.564444 
L 237.526249 105.299288 
L 232.387491 105.299288 
L 230.981124 116.564444 
L 229.178596 116.564444 
L 234.06834 78.951111 
z
M 234.979508 78.951111 
L 234.979508 78.951111 
z
" style="fill:#008000;"/>
   </g>
   <g id="patch_50">
    <path clip-path="url(#pc88cbf0c42)" d="M 240.77193 28.8 
L 240.77193 34.775312 
L 235.957195 34.775312 
L 235.957195 78.951111 
L 233.993331 78.951111 
L 233.993331 34.775312 
L 229.178596 34.775312 
L 229.178596 28.8 
L 240.77193 28.8 
z
" style="fill:#ff0000;"/>
   </g>
   <g id="patch_51">
    <path clip-path="url(#pc88cbf0c42)" d="M 247.361214 129.120363 
Q 249.149694 129.120363 250.454428 129.768243 
Q 252.345186 130.698599 252.768119 133.030968 
L 251.068095 133.030968 
Q 250.755733 131.727433 249.779947 131.131383 
Q 248.804161 130.535333 247.316985 130.535333 
Q 245.556148 130.535333 244.350927 131.776672 
Q 243.145707 133.015419 243.145707 135.469589 
Q 243.145707 137.589453 244.138079 138.921495 
Q 245.133215 140.253536 247.377799 140.253536 
Q 249.097173 140.253536 250.224994 139.320589 
Q 251.352814 138.38505 251.377693 136.293693 
L 247.405442 136.293693 
L 247.405442 134.959059 
L 252.975439 134.959059 
L 252.975439 141.323834 
L 251.869732 141.323834 
L 251.455092 139.792246 
Q 250.584348 140.691503 249.909867 141.041359 
Q 248.776518 141.64 247.032266 141.64 
Q 244.779389 141.64 243.154 140.271677 
Q 241.382105 138.553499 241.382105 135.557701 
Q 241.382105 132.569677 243.109772 130.804851 
Q 244.751746 129.120363 247.361214 129.120363 
z
M 247.076494 129.102222 
L 247.076494 129.102222 
z
" style="fill:#ffa600;"/>
   </g>
   <g id="patch_52">
    <path clip-path="url(#pc88cbf0c42)" d="M 249.163815 118.8284 
L 247.191506 107.751678 
L 245.094688 118.8284 
L 249.163815 118.8284 
z
M 246.271849 104.026667 
L 248.261137 104.026667 
L 252.975439 129.102222 
L 251.045574 129.102222 
L 249.729758 121.592118 
L 244.591 121.592118 
L 243.184632 129.102222 
L 241.382105 129.102222 
L 246.271849 104.026667 
z
M 247.183016 104.026667 
L 247.183016 104.026667 
z
" style="fill:#008000;"/>
   </g>
   <g id="patch_53">
    <path clip-path="url(#pc88cbf0c42)" d="M 247.477716 66.413333 
Q 249.960375 66.413333 251.329823 69.991851 
Q 252.699271 73.562589 252.850167 78.105751 
L 251.124833 78.105751 
Q 250.831583 74.659483 249.954681 72.644622 
Q 249.077778 70.621981 247.494798 70.621981 
Q 245.564474 70.621981 244.37724 74.332749 
Q 243.190005 78.035737 243.190005 85.690653 
Q 243.190005 91.968618 244.260509 95.87387 
Q 245.33386 99.771342 247.460633 99.771342 
Q 249.416581 99.771342 250.441532 95.663826 
Q 250.982479 93.501157 251.250105 89.969315 
L 252.975439 89.969315 
Q 252.744825 95.609371 251.446554 99.429049 
Q 249.889198 104.026667 247.247102 104.026667 
Q 244.969433 104.026667 243.420619 100.253664 
Q 241.382105 95.274857 241.382105 84.866038 
Q 241.382105 76.969961 242.913837 71.91336 
Q 244.567994 66.413333 247.477716 66.413333 
z
M 247.12183 66.413333 
L 247.12183 66.413333 
z
" style="fill:#0000ff;"/>
   </g>
   <g id="patch_54">
    <path clip-path="url(#pc88cbf0c42)" d="M 252.975439 28.8 
L 252.975439 33.281484 
L 248.160704 33.281484 
L 248.160704 66.413333 
L 246.19684 66.413333 
L 246.19684 33.281484 
L 241.382105 33.281484 
L 241.382105 28.8 
L 252.975439 28.8 
z
" style="fill:#ff0000;"/>
   </g>
   <g id="patch_55">
    <path clip-path="url(#pc88cbf0c42)" d="M 259.681225 129.102222 
Q 262.163884 129.102222 263.533332 130.295061 
Q 264.90278 131.485308 265.053676 132.999695 
L 263.328342 132.999695 
Q 263.035092 131.850939 262.158189 131.179318 
Q 261.281287 130.505105 259.698307 130.505105 
Q 257.767983 130.505105 256.580748 131.742027 
Q 255.393514 132.976357 255.393514 135.527995 
Q 255.393514 137.62065 256.464018 138.922401 
Q 257.537369 140.221559 259.664142 140.221559 
Q 261.62009 140.221559 262.645041 138.852387 
Q 263.185987 138.131497 263.453613 136.954216 
L 265.178947 136.954216 
Q 264.948333 138.834235 263.650062 140.107461 
Q 262.092706 141.64 259.450611 141.64 
Q 257.172942 141.64 255.624127 140.382333 
Q 253.585614 138.72273 253.585614 135.253124 
Q 253.585614 132.621098 255.117346 130.935564 
Q 256.771503 129.102222 259.681225 129.102222 
z
M 259.325339 129.102222 
L 259.325339 129.102222 
z
" style="fill:#0000ff;"/>
   </g>
   <g id="patch_56">
    <path clip-path="url(#pc88cbf0c42)" d="M 259.564722 116.582585 
Q 261.353203 116.582585 262.657936 117.230465 
Q 264.548695 118.160821 264.971627 120.49319 
L 263.271604 120.49319 
Q 262.959241 119.189655 261.983455 118.593605 
Q 261.007669 117.997555 259.520494 117.997555 
Q 257.759656 117.997555 256.554436 119.238894 
Q 255.349216 120.477641 255.349216 122.931811 
Q 255.349216 125.051675 256.341588 126.383717 
Q 257.336724 127.715759 259.581308 127.715759 
Q 261.300682 127.715759 262.428502 126.782811 
Q 263.556323 125.847272 263.581201 123.755915 
L 259.608951 123.755915 
L 259.608951 122.421282 
L 265.178947 122.421282 
L 265.178947 128.786057 
L 264.073241 128.786057 
L 263.658601 127.254468 
Q 262.787857 128.153726 262.113376 128.503581 
Q 260.980027 129.102222 259.235775 129.102222 
Q 256.982897 129.102222 255.357509 127.733899 
Q 253.585614 126.015721 253.585614 123.019923 
Q 253.585614 120.031899 255.313281 118.267074 
Q 256.955255 116.582585 259.564722 116.582585 
z
M 259.280003 116.564444 
L 259.280003 116.564444 
z
" style="fill:#ffa600;"/>
   </g>
   <g id="patch_57">
    <path clip-path="url(#pc88cbf0c42)" d="M 261.367324 101.15371 
L 259.395014 84.538629 
L 257.298197 101.15371 
L 261.367324 101.15371 
z
M 258.475358 78.951111 
L 260.464646 78.951111 
L 265.178947 116.564444 
L 263.249083 116.564444 
L 261.933267 105.299288 
L 256.794508 105.299288 
L 255.388141 116.564444 
L 253.585614 116.564444 
L 258.475358 78.951111 
z
M 259.386525 78.951111 
L 259.386525 78.951111 
z
" style="fill:#008000;"/>
   </g>
   <g id="patch_58">
    <path clip-path="url(#pc88cbf0c42)" d="M 265.178947 28.8 
L 265.178947 34.775312 
L 260.364213 34.775312 
L 260.364213 78.951111 
L 258.400349 78.951111 
L 258.400349 34.775312 
L 253.585614 34.775312 
L 253.585614 28.8 
L 265.178947 28.8 
z
" style="fill:#ff0000;"/>
   </g>
   <g id="patch_59">
    <path clip-path="url(#pc88cbf0c42)" d="M 271.884733 129.102222 
Q 274.367392 129.102222 275.736841 130.295061 
Q 277.106289 131.485308 277.257184 132.999695 
L 275.53185 132.999695 
Q 275.238601 131.850939 274.361698 131.179318 
Q 273.484796 130.505105 271.901816 130.505105 
Q 269.971492 130.505105 268.784257 131.742027 
Q 267.597022 132.976357 267.597022 135.527995 
Q 267.597022 137.62065 268.667527 138.922401 
Q 269.740878 140.221559 271.867651 140.221559 
Q 273.823599 140.221559 274.84855 138.852387 
Q 275.389496 138.131497 275.657122 136.954216 
L 277.382456 136.954216 
Q 277.151842 138.834235 275.853571 140.107461 
Q 274.296215 141.64 271.65412 141.64 
Q 269.376451 141.64 267.827636 140.382333 
Q 265.789123 138.72273 265.789123 135.253124 
Q 265.789123 132.621098 267.320855 130.935564 
Q 268.975012 129.102222 271.884733 129.102222 
z
M 271.528848 129.102222 
L 271.528848 129.102222 
z
" style="fill:#0000ff;"/>
   </g>
   <g id="patch_60">
    <path clip-path="url(#pc88cbf0c42)" d="M 277.382456 116.564444 
L 277.382456 118.058272 
L 272.567721 118.058272 
L 272.567721 129.102222 
L 270.603857 129.102222 
L 270.603857 118.058272 
L 265.789123 118.058272 
L 265.789123 116.564444 
L 277.382456 116.564444 
z
" style="fill:#ff0000;"/>
   </g>
   <g id="patch_61">
    <path clip-path="url(#pc88cbf0c42)" d="M 273.570833 101.15371 
L 271.598523 84.538629 
L 269.501706 101.15371 
L 273.570833 101.15371 
z
M 270.678867 78.951111 
L 272.668155 78.951111 
L 277.382456 116.564444 
L 275.452592 116.564444 
L 274.136776 105.299288 
L 268.998017 105.299288 
L 267.59165 116.564444 
L 265.789123 116.564444 
L 270.678867 78.951111 
z
M 271.590034 78.951111 
L 271.590034 78.951111 
z
" style="fill:#008000;"/>
   </g>
   <g id="patch_62">
    <path clip-path="url(#pc88cbf0c42)" d="M 271.768231 28.872563 
Q 273.556711 28.872563 274.861445 31.464083 
Q 276.752203 35.185507 277.175136 44.514982 
L 275.475112 44.514982 
Q 275.16275 39.300842 274.186964 36.916643 
Q 273.211178 34.532444 271.724003 34.532444 
Q 269.963165 34.532444 268.757945 39.497798 
Q 267.552725 44.452786 267.552725 54.269467 
Q 267.552725 62.748923 268.545096 68.07709 
Q 269.540232 73.405257 271.784817 73.405257 
Q 273.50419 73.405257 274.632011 69.673467 
Q 275.759832 65.93131 275.78471 57.565881 
L 271.812459 57.565881 
L 271.812459 52.227348 
L 277.382456 52.227348 
L 277.382456 77.686449 
L 276.27675 77.686449 
L 275.86211 71.560094 
Q 274.991366 75.157125 274.316885 76.556546 
Q 273.183535 78.951111 271.439283 78.951111 
Q 269.186406 78.951111 267.561018 73.477819 
Q 265.789123 66.605106 265.789123 54.621914 
Q 265.789123 42.669819 267.516789 35.610517 
Q 269.158764 28.872563 271.768231 28.872563 
z
M 271.483512 28.8 
L 271.483512 28.8 
z
" style="fill:#ffa600;"/>
   </g>
   <g id="patch_63">
    <path clip-path="url(#pc88cbf0c42)" d="M 289.585965 129.102222 
L 289.585965 130.59605 
L 284.77123 130.59605 
L 284.77123 141.64 
L 282.807366 141.64 
L 282.807366 130.59605 
L 277.992632 130.59605 
L 277.992632 129.102222 
L 289.585965 129.102222 
z
" style="fill:#ff0000;"/>
   </g>
   <g id="patch_64">
    <path clip-path="url(#pc88cbf0c42)" d="M 285.774342 118.8284 
L 283.802032 107.751678 
L 281.705215 118.8284 
L 285.774342 118.8284 
z
M 282.882375 104.026667 
L 284.871663 104.026667 
L 289.585965 129.102222 
L 287.656101 129.102222 
L 286.340284 121.592118 
L 281.201526 121.592118 
L 279.795159 129.102222 
L 277.992632 129.102222 
L 282.882375 104.026667 
z
M 283.793543 104.026667 
L 283.793543 104.026667 
z
" style="fill:#008000;"/>
   </g>
   <g id="patch_65">
    <path clip-path="url(#pc88cbf0c42)" d="M 284.088242 66.413333 
Q 286.570901 66.413333 287.940349 69.991851 
Q 289.309798 73.562589 289.460693 78.105751 
L 287.735359 78.105751 
Q 287.442109 74.659483 286.565207 72.644622 
Q 285.688304 70.621981 284.105325 70.621981 
Q 282.175001 70.621981 280.987766 74.332749 
Q 279.800531 78.035737 279.800531 85.690653 
Q 279.800531 91.968618 280.871035 95.87387 
Q 281.944387 99.771342 284.07116 99.771342 
Q 286.027108 99.771342 287.052059 95.663826 
Q 287.593005 93.501157 287.860631 89.969315 
L 289.585965 89.969315 
Q 289.355351 95.609371 288.05708 99.429049 
Q 286.499724 104.026667 283.857628 104.026667 
Q 281.57996 104.026667 280.031145 100.253664 
Q 277.992632 95.274857 277.992632 84.866038 
Q 277.992632 76.969961 279.524364 71.91336 
Q 281.178521 66.413333 284.088242 66.413333 
z
M 283.732357 66.413333 
L 283.732357 66.413333 
z
" style="fill:#0000ff;"/>
   </g>
   <g id="patch_66">
    <path clip-path="url(#pc88cbf0c42)" d="M 283.97174 28.854422 
Q 285.76022 28.854422 287.064954 30.798063 
Q 288.955712 33.58913 289.378645 40.586237 
L 287.678621 40.586237 
Q 287.366259 36.675632 286.390473 34.887482 
Q 285.414687 33.099333 283.927512 33.099333 
Q 282.166674 33.099333 280.961454 36.823348 
Q 279.756234 40.539589 279.756234 47.9021 
Q 279.756234 54.261692 280.748605 58.257817 
Q 281.743741 62.253942 283.988325 62.253942 
Q 285.707699 62.253942 286.83552 59.4551 
Q 287.963341 56.648483 287.988219 50.374411 
L 284.015968 50.374411 
L 284.015968 46.370511 
L 289.585965 46.370511 
L 289.585965 65.464837 
L 288.480258 65.464837 
L 288.065618 60.87007 
Q 287.194874 63.567843 286.520393 64.617409 
Q 285.387044 66.413333 283.642792 66.413333 
Q 281.389915 66.413333 279.764526 62.308364 
Q 277.992632 57.153829 277.992632 48.166435 
Q 277.992632 39.202365 279.720298 33.907888 
Q 281.362272 28.854422 283.97174 28.854422 
z
M 283.68702 28.8 
L 283.68702 28.8 
z
" style="fill:#ffa600;"/>
   </g>
   <g id="patch_67">
    <path clip-path="url(#pc88cbf0c42)" d="M 297.977851 136.503089 
L 296.005541 130.964728 
L 293.908724 136.503089 
L 297.977851 136.503089 
z
M 295.085884 129.102222 
L 297.075172 129.102222 
L 301.789474 141.64 
L 299.85961 141.64 
L 298.543793 137.884948 
L 293.405035 137.884948 
L 291.998667 141.64 
L 290.19614 141.64 
L 295.085884 129.102222 
z
M 295.997052 129.102222 
L 295.997052 129.102222 
z
" style="fill:#008000;"/>
   </g>
   <g id="patch_68">
    <path clip-path="url(#pc88cbf0c42)" d="M 296.175249 116.582585 
Q 297.963729 116.582585 299.268463 117.230465 
Q 301.159221 118.160821 301.582154 120.49319 
L 299.88213 120.49319 
Q 299.569768 119.189655 298.593982 118.593605 
Q 297.618196 117.997555 296.13102 117.997555 
Q 294.370183 117.997555 293.164962 119.238894 
Q 291.959742 120.477641 291.959742 122.931811 
Q 291.959742 125.051675 292.952114 126.383717 
Q 293.94725 127.715759 296.191834 127.715759 
Q 297.911208 127.715759 299.039029 126.782811 
Q 300.166849 125.847272 300.191728 123.755915 
L 296.219477 123.755915 
L 296.219477 122.421282 
L 301.789474 122.421282 
L 301.789474 128.786057 
L 300.683767 128.786057 
L 300.269127 127.254468 
Q 299.398383 128.153726 298.723902 128.503581 
Q 297.590553 129.102222 295.846301 129.102222 
Q 293.593424 129.102222 291.968035 127.733899 
Q 290.19614 126.015721 290.19614 123.019923 
Q 290.19614 120.031899 291.923807 118.267074 
Q 293.565781 116.582585 296.175249 116.582585 
z
M 295.890529 116.564444 
L 295.890529 116.564444 
z
" style="fill:#ffa600;"/>
   </g>
   <g id="patch_69">
    <path clip-path="url(#pc88cbf0c42)" d="M 301.789474 78.951111 
L 301.789474 83.432595 
L 296.974739 83.432595 
L 296.974739 116.564444 
L 295.010875 116.564444 
L 295.010875 83.432595 
L 290.19614 83.432595 
L 290.19614 78.951111 
L 301.789474 78.951111 
z
" style="fill:#ff0000;"/>
   </g>
   <g id="patch_70">
    <path clip-path="url(#pc88cbf0c42)" d="M 296.291751 28.8 
Q 298.77441 28.8 300.143858 33.571357 
Q 301.513306 38.332341 301.664202 44.38989 
L 299.938868 44.38989 
Q 299.645618 39.794866 298.768716 37.108385 
Q 297.891813 34.411531 296.308834 34.411531 
Q 294.378509 34.411531 293.191275 39.35922 
Q 292.00404 44.296538 292.00404 54.503093 
Q 292.00404 62.873713 293.074544 68.080715 
Q 294.147895 73.277345 296.274669 73.277345 
Q 298.230616 73.277345 299.255567 67.800657 
Q 299.796514 64.917098 300.06414 60.207976 
L 301.789474 60.207976 
Q 301.55886 67.72805 300.260589 72.820955 
Q 298.703233 78.951111 296.061137 78.951111 
Q 293.783468 78.951111 292.234654 73.920441 
Q 290.19614 67.282031 290.19614 53.403606 
Q 290.19614 42.875503 291.727873 36.133368 
Q 293.382029 28.8 296.291751 28.8 
z
M 295.935865 28.8 
L 295.935865 28.8 
z
" style="fill:#0000ff;"/>
   </g>
   <g id="patch_71">
    <path clip-path="url(#pc88cbf0c42)" d="M 310.181359 136.503089 
L 308.209049 130.964728 
L 306.112232 136.503089 
L 310.181359 136.503089 
z
M 307.289393 129.102222 
L 309.278681 129.102222 
L 313.992982 141.64 
L 312.063118 141.64 
L 310.747302 137.884948 
L 305.608543 137.884948 
L 304.202176 141.64 
L 302.399649 141.64 
L 307.289393 129.102222 
z
M 308.20056 129.102222 
L 308.20056 129.102222 
z
" style="fill:#008000;"/>
   </g>
   <g id="patch_72">
    <path clip-path="url(#pc88cbf0c42)" d="M 308.49526 104.026667 
Q 310.977919 104.026667 312.347367 106.412345 
Q 313.716815 108.792837 313.867711 111.821612 
L 312.142377 111.821612 
Q 311.849127 109.5241 310.972224 108.180859 
Q 310.095322 106.832432 308.512342 106.832432 
Q 306.582018 106.832432 305.394783 109.306277 
Q 304.207549 111.774936 304.207549 116.878213 
Q 304.207549 121.063523 305.278053 123.667024 
Q 306.351404 126.265339 308.478177 126.265339 
Q 310.434125 126.265339 311.459076 123.526995 
Q 312.000022 122.085216 312.267648 119.730655 
L 313.992982 119.730655 
Q 313.762369 123.490691 312.464097 126.037144 
Q 310.906741 129.102222 308.264646 129.102222 
Q 305.986977 129.102222 304.438163 126.586887 
Q 302.399649 123.267682 302.399649 116.32847 
Q 302.399649 111.064418 303.931381 107.693351 
Q 305.585538 104.026667 308.49526 104.026667 
z
M 308.139374 104.026667 
L 308.139374 104.026667 
z
" style="fill:#0000ff;"/>
   </g>
   <g id="patch_73">
    <path clip-path="url(#pc88cbf0c42)" d="M 308.378757 66.467755 
Q 310.167238 66.467755 311.471971 68.411396 
Q 313.36273 71.202464 313.785662 78.19957 
L 312.085639 78.19957 
Q 311.773277 74.288965 310.79749 72.500816 
Q 309.821704 70.712666 308.334529 70.712666 
Q 306.573691 70.712666 305.368471 74.436682 
Q 304.163251 78.152923 304.163251 85.515433 
Q 304.163251 91.875025 305.155623 95.871151 
Q 306.150759 99.867276 308.395343 99.867276 
Q 310.114717 99.867276 311.242537 97.068433 
Q 312.370358 94.261816 312.395236 87.987744 
L 308.422986 87.987744 
L 308.422986 83.983845 
L 313.992982 83.983845 
L 313.992982 103.07817 
L 312.887276 103.07817 
L 312.472636 98.483404 
Q 311.601892 101.181177 310.927411 102.230743 
Q 309.794062 104.026667 308.04981 104.026667 
Q 305.796933 104.026667 304.171544 99.921698 
Q 302.399649 94.767163 302.399649 85.779768 
Q 302.399649 76.815698 304.127316 71.521221 
Q 305.76929 66.467755 308.378757 66.467755 
z
M 308.094038 66.413333 
L 308.094038 66.413333 
z
" style="fill:#ffa600;"/>
   </g>
   <g id="patch_74">
    <path clip-path="url(#pc88cbf0c42)" d="M 313.992982 28.8 
L 313.992982 33.281484 
L 309.178248 33.281484 
L 309.178248 66.413333 
L 307.214384 66.413333 
L 307.214384 33.281484 
L 302.399649 33.281484 
L 302.399649 28.8 
L 313.992982 28.8 
z
" style="fill:#ff0000;"/>
   </g>
   <g id="patch_75">
    <path clip-path="url(#pc88cbf0c42)" d="M 320.698769 129.102222 
Q 323.181427 129.102222 324.550876 130.295061 
Q 325.920324 131.485308 326.071219 132.999695 
L 324.345885 132.999695 
Q 324.052636 131.850939 323.175733 131.179318 
Q 322.298831 130.505105 320.715851 130.505105 
Q 318.785527 130.505105 317.598292 131.742027 
Q 316.411057 132.976357 316.411057 135.527995 
Q 316.411057 137.62065 317.481562 138.922401 
Q 318.554913 140.221559 320.681686 140.221559 
Q 322.637634 140.221559 323.662585 138.852387 
Q 324.203531 138.131497 324.471157 136.954216 
L 326.196491 136.954216 
Q 325.965877 138.834235 324.667606 140.107461 
Q 323.11025 141.64 320.468155 141.64 
Q 318.190486 141.64 316.641671 140.382333 
Q 314.603158 138.72273 314.603158 135.253124 
Q 314.603158 132.621098 316.13489 130.935564 
Q 317.789047 129.102222 320.698769 129.102222 
z
M 320.342883 129.102222 
L 320.342883 129.102222 
z
" style="fill:#0000ff;"/>
   </g>
   <g id="patch_76">
    <path clip-path="url(#pc88cbf0c42)" d="M 320.582266 116.582585 
Q 322.370747 116.582585 323.67548 117.230465 
Q 325.566238 118.160821 325.989171 120.49319 
L 324.289147 120.49319 
Q 323.976785 119.189655 323.000999 118.593605 
Q 322.025213 117.997555 320.538038 117.997555 
Q 318.7772 117.997555 317.57198 119.238894 
Q 316.36676 120.477641 316.36676 122.931811 
Q 316.36676 125.051675 317.359132 126.383717 
Q 318.354267 127.715759 320.598852 127.715759 
Q 322.318225 127.715759 323.446046 126.782811 
Q 324.573867 125.847272 324.598745 123.755915 
L 320.626494 123.755915 
L 320.626494 122.421282 
L 326.196491 122.421282 
L 326.196491 128.786057 
L 325.090785 128.786057 
L 324.676145 127.254468 
Q 323.805401 128.153726 323.13092 128.503581 
Q 321.997571 129.102222 320.253318 129.102222 
Q 318.000441 129.102222 316.375053 127.733899 
Q 314.603158 126.015721 314.603158 123.019923 
Q 314.603158 120.031899 316.330824 118.267074 
Q 317.972799 116.582585 320.582266 116.582585 
z
M 320.297547 116.564444 
L 320.297547 116.564444 
z
" style="fill:#ffa600;"/>
   </g>
   <g id="patch_77">
    <path clip-path="url(#pc88cbf0c42)" d="M 326.196491 78.951111 
L 326.196491 83.432595 
L 321.381757 83.432595 
L 321.381757 116.564444 
L 319.417893 116.564444 
L 319.417893 83.432595 
L 314.603158 83.432595 
L 314.603158 78.951111 
L 326.196491 78.951111 
z
" style="fill:#ff0000;"/>
   </g>
   <g id="patch_78">
    <path clip-path="url(#pc88cbf0c42)" d="M 322.384868 58.403466 
L 320.412558 36.250023 
L 318.315741 58.403466 
L 322.384868 58.403466 
z
M 319.492902 28.8 
L 321.48219 28.8 
L 326.196491 78.951111 
L 324.266627 78.951111 
L 322.950811 63.930902 
L 317.812052 63.930902 
L 316.405685 78.951111 
L 314.603158 78.951111 
L 319.492902 28.8 
z
M 320.404069 28.8 
L 320.404069 28.8 
z
" style="fill:#008000;"/>
   </g>
   <g id="patch_79">
    <path clip-path="url(#pc88cbf0c42)" d="M 334.588377 136.503089 
L 332.616067 130.964728 
L 330.51925 136.503089 
L 334.588377 136.503089 
z
M 331.69641 129.102222 
L 333.685698 129.102222 
L 338.4 141.64 
L 336.470136 141.64 
L 335.154319 137.884948 
L 330.015561 137.884948 
L 328.609194 141.64 
L 326.806667 141.64 
L 331.69641 129.102222 
z
M 332.607578 129.102222 
L 332.607578 129.102222 
z
" style="fill:#008000;"/>
   </g>
   <g id="patch_80">
    <path clip-path="url(#pc88cbf0c42)" d="M 332.785775 116.582585 
Q 334.574255 116.582585 335.878989 117.230465 
Q 337.769747 118.160821 338.19268 120.49319 
L 336.492656 120.49319 
Q 336.180294 119.189655 335.204508 118.593605 
Q 334.228722 117.997555 332.741547 117.997555 
Q 330.980709 117.997555 329.775489 119.238894 
Q 328.570269 120.477641 328.570269 122.931811 
Q 328.570269 125.051675 329.56264 126.383717 
Q 330.557776 127.715759 332.802361 127.715759 
Q 334.521734 127.715759 335.649555 126.782811 
Q 336.777376 125.847272 336.802254 123.755915 
L 332.830003 123.755915 
L 332.830003 122.421282 
L 338.4 122.421282 
L 338.4 128.786057 
L 337.294293 128.786057 
L 336.879653 127.254468 
Q 336.00891 128.153726 335.334429 128.503581 
Q 334.201079 129.102222 332.456827 129.102222 
Q 330.20395 129.102222 328.578561 127.733899 
Q 326.806667 126.015721 326.806667 123.019923 
Q 326.806667 120.031899 328.534333 118.267074 
Q 330.176307 116.582585 332.785775 116.582585 
z
M 332.501055 116.564444 
L 332.501055 116.564444 
z
" style="fill:#ffa600;"/>
   </g>
   <g id="patch_81">
    <path clip-path="url(#pc88cbf0c42)" d="M 332.902277 78.951111 
Q 335.384936 78.951111 336.754384 82.529629 
Q 338.123833 86.100367 338.274728 90.643529 
L 336.549394 90.643529 
Q 336.256144 87.197261 335.379242 85.1824 
Q 334.50234 83.159759 332.91936 83.159759 
Q 330.989036 83.159759 329.801801 86.870526 
Q 328.614566 90.573514 328.614566 98.228431 
Q 328.614566 104.506395 329.68507 108.411647 
Q 330.758422 112.30912 332.885195 112.30912 
Q 334.841143 112.30912 335.866094 108.201604 
Q 336.40704 106.038935 336.674666 102.507093 
L 338.4 102.507093 
Q 338.169386 108.147148 336.871115 111.966827 
Q 335.313759 116.564444 332.671663 116.564444 
Q 330.393995 116.564444 328.84518 112.791442 
Q 326.806667 107.812635 326.806667 97.403816 
Q 326.806667 89.507738 328.338399 84.451137 
Q 329.992556 78.951111 332.902277 78.951111 
z
M 332.546392 78.951111 
L 332.546392 78.951111 
z
" style="fill:#0000ff;"/>
   </g>
   <g id="patch_82">
    <path clip-path="url(#pc88cbf0c42)" d="M 338.4 28.8 
L 338.4 34.775312 
L 333.585265 34.775312 
L 333.585265 78.951111 
L 331.621401 78.951111 
L 331.621401 34.775312 
L 326.806667 34.775312 
L 326.806667 28.8 
L 338.4 28.8 
z
" style="fill:#ff0000;"/>
   </g>
   <g id="matplotlib.axis_1">
    <g id="xtick_1">
     <g id="text_1">
      <!-- 0 -->
      <g style="fill:#262626;" transform="translate(95.175729 162.986875)scale(0.2 -0.2)">
       <defs>
        <path d="M 1731 4475 
Q 2600 4475 2988 3759 
Q 3288 3206 3288 2244 
Q 3288 1331 3016 734 
Q 2622 -122 1728 -122 
Q 922 -122 528 578 
Q 200 1163 200 2147 
Q 200 2909 397 3456 
Q 766 4475 1731 4475 
z
M 1725 391 
Q 2163 391 2422 778 
Q 2681 1166 2681 2222 
Q 2681 2984 2493 3476 
Q 2306 3969 1766 3969 
Q 1269 3969 1039 3501 
Q 809 3034 809 2125 
Q 809 1441 956 1025 
Q 1181 391 1725 391 
z
" id="Helvetica-30" transform="scale(0.015625)"/>
       </defs>
       <use xlink:href="#Helvetica-30"/>
      </g>
     </g>
    </g>
    <g id="xtick_2">
     <g id="text_2">
      <!-- 10 -->
      <g style="fill:#262626;" transform="translate(211.649879 162.986875)scale(0.2 -0.2)">
       <defs>
        <path d="M 613 3169 
L 613 3600 
Q 1222 3659 1462 3798 
Q 1703 3938 1822 4456 
L 2266 4456 
L 2266 0 
L 1666 0 
L 1666 3169 
L 613 3169 
z
" id="Helvetica-31" transform="scale(0.015625)"/>
       </defs>
       <use xlink:href="#Helvetica-31"/>
       <use x="55.615234" xlink:href="#Helvetica-30"/>
      </g>
     </g>
    </g>
    <g id="text_3">
     <!-- Position -->
     <g style="fill:#262626;" transform="translate(172.20125 189.089219)scale(0.25 -0.25)">
      <defs>
       <path d="M 547 4591 
L 2613 4591 
Q 3225 4591 3600 4245 
Q 3975 3900 3975 3275 
Q 3975 2738 3640 2339 
Q 3306 1941 2613 1941 
L 1169 1941 
L 1169 0 
L 547 0 
L 547 4591 
z
M 3347 3272 
Q 3347 3778 2972 3959 
Q 2766 4056 2406 4056 
L 1169 4056 
L 1169 2466 
L 2406 2466 
Q 2825 2466 3086 2644 
Q 3347 2822 3347 3272 
z
" id="Helvetica-50" transform="scale(0.015625)"/>
       <path d="M 1741 363 
Q 2300 363 2508 786 
Q 2716 1209 2716 1728 
Q 2716 2197 2566 2491 
Q 2328 2953 1747 2953 
Q 1231 2953 997 2559 
Q 763 2166 763 1609 
Q 763 1075 997 719 
Q 1231 363 1741 363 
z
M 1763 3444 
Q 2409 3444 2856 3012 
Q 3303 2581 3303 1744 
Q 3303 934 2909 406 
Q 2516 -122 1688 -122 
Q 997 -122 590 345 
Q 184 813 184 1600 
Q 184 2444 612 2944 
Q 1041 3444 1763 3444 
z
M 1744 3428 
L 1744 3428 
z
" id="Helvetica-6f" transform="scale(0.015625)"/>
       <path d="M 747 1050 
Q 772 769 888 619 
Q 1100 347 1625 347 
Q 1938 347 2175 483 
Q 2413 619 2413 903 
Q 2413 1119 2222 1231 
Q 2100 1300 1741 1391 
L 1294 1503 
Q 866 1609 663 1741 
Q 300 1969 300 2372 
Q 300 2847 642 3140 
Q 984 3434 1563 3434 
Q 2319 3434 2653 2991 
Q 2863 2709 2856 2384 
L 2325 2384 
Q 2309 2575 2191 2731 
Q 1997 2953 1519 2953 
Q 1200 2953 1036 2831 
Q 872 2709 872 2509 
Q 872 2291 1088 2159 
Q 1213 2081 1456 2022 
L 1828 1931 
Q 2434 1784 2641 1647 
Q 2969 1431 2969 969 
Q 2969 522 2630 197 
Q 2291 -128 1597 -128 
Q 850 -128 539 211 
Q 228 550 206 1050 
L 747 1050 
z
M 1578 3428 
L 1578 3428 
z
" id="Helvetica-73" transform="scale(0.015625)"/>
       <path d="M 413 3331 
L 984 3331 
L 984 0 
L 413 0 
L 413 3331 
z
M 413 4591 
L 984 4591 
L 984 3953 
L 413 3953 
L 413 4591 
z
" id="Helvetica-69" transform="scale(0.015625)"/>
       <path d="M 525 4281 
L 1094 4281 
L 1094 3347 
L 1628 3347 
L 1628 2888 
L 1094 2888 
L 1094 703 
Q 1094 528 1213 469 
Q 1278 434 1431 434 
Q 1472 434 1519 436 
Q 1566 438 1628 444 
L 1628 0 
Q 1531 -28 1426 -40 
Q 1322 -53 1200 -53 
Q 806 -53 665 148 
Q 525 350 525 672 
L 525 2888 
L 72 2888 
L 72 3347 
L 525 3347 
L 525 4281 
z
" id="Helvetica-74" transform="scale(0.015625)"/>
       <path d="M 413 3347 
L 947 3347 
L 947 2872 
Q 1184 3166 1450 3294 
Q 1716 3422 2041 3422 
Q 2753 3422 3003 2925 
Q 3141 2653 3141 2147 
L 3141 0 
L 2569 0 
L 2569 2109 
Q 2569 2416 2478 2603 
Q 2328 2916 1934 2916 
Q 1734 2916 1606 2875 
Q 1375 2806 1200 2600 
Q 1059 2434 1017 2257 
Q 975 2081 975 1753 
L 975 0 
L 413 0 
L 413 3347 
z
M 1734 3428 
L 1734 3428 
z
" id="Helvetica-6e" transform="scale(0.015625)"/>
      </defs>
      <use xlink:href="#Helvetica-50"/>
      <use x="66.699219" xlink:href="#Helvetica-6f"/>
      <use x="122.314453" xlink:href="#Helvetica-73"/>
      <use x="172.314453" xlink:href="#Helvetica-69"/>
      <use x="194.53125" xlink:href="#Helvetica-74"/>
      <use x="222.314453" xlink:href="#Helvetica-69"/>
      <use x="244.53125" xlink:href="#Helvetica-6f"/>
      <use x="300.146484" xlink:href="#Helvetica-6e"/>
     </g>
    </g>
   </g>
   <g id="matplotlib.axis_2">
    <g id="ytick_1">
     <g id="text_4">
      <!-- 0 -->
      <g style="fill:#262626;" transform="translate(76.818125 148.813438)scale(0.2 -0.2)">
       <use xlink:href="#Helvetica-30"/>
      </g>
     </g>
    </g>
    <g id="ytick_2">
     <g id="text_5">
      <!-- 0.25 -->
      <g style="fill:#262626;" transform="translate(49.018125 120.603437)scale(0.2 -0.2)">
       <defs>
        <path d="M 547 681 
L 1200 681 
L 1200 0 
L 547 0 
L 547 681 
z
" id="Helvetica-2e" transform="scale(0.015625)"/>
        <path d="M 200 0 
Q 231 578 439 1006 
Q 647 1434 1250 1784 
L 1850 2131 
Q 2253 2366 2416 2531 
Q 2672 2791 2672 3125 
Q 2672 3516 2437 3745 
Q 2203 3975 1813 3975 
Q 1234 3975 1013 3538 
Q 894 3303 881 2888 
L 309 2888 
Q 319 3472 525 3841 
Q 891 4491 1816 4491 
Q 2584 4491 2939 4075 
Q 3294 3659 3294 3150 
Q 3294 2613 2916 2231 
Q 2697 2009 2131 1694 
L 1703 1456 
Q 1397 1288 1222 1134 
Q 909 863 828 531 
L 3272 531 
L 3272 0 
L 200 0 
z
" id="Helvetica-32" transform="scale(0.015625)"/>
        <path d="M 791 1141 
Q 847 659 1238 475 
Q 1438 381 1700 381 
Q 2200 381 2440 700 
Q 2681 1019 2681 1406 
Q 2681 1875 2395 2131 
Q 2109 2388 1709 2388 
Q 1419 2388 1211 2275 
Q 1003 2163 856 1963 
L 369 1991 
L 709 4400 
L 3034 4400 
L 3034 3856 
L 1131 3856 
L 941 2613 
Q 1097 2731 1238 2791 
Q 1488 2894 1816 2894 
Q 2431 2894 2859 2497 
Q 3288 2100 3288 1491 
Q 3288 856 2895 371 
Q 2503 -113 1644 -113 
Q 1097 -113 676 195 
Q 256 503 206 1141 
L 791 1141 
z
" id="Helvetica-35" transform="scale(0.015625)"/>
       </defs>
       <use xlink:href="#Helvetica-30"/>
       <use x="55.615234" xlink:href="#Helvetica-2e"/>
       <use x="83.398438" xlink:href="#Helvetica-32"/>
       <use x="139.013672" xlink:href="#Helvetica-35"/>
      </g>
     </g>
    </g>
    <g id="ytick_3">
     <g id="text_6">
      <!-- 0.50 -->
      <g style="fill:#262626;" transform="translate(49.018125 92.393438)scale(0.2 -0.2)">
       <use xlink:href="#Helvetica-30"/>
       <use x="55.615234" xlink:href="#Helvetica-2e"/>
       <use x="83.398438" xlink:href="#Helvetica-35"/>
       <use x="139.013672" xlink:href="#Helvetica-30"/>
      </g>
     </g>
    </g>
    <g id="ytick_4">
     <g id="text_7">
      <!-- 0.75 -->
      <g style="fill:#262626;" transform="translate(49.018125 64.183437)scale(0.2 -0.2)">
       <defs>
        <path d="M 3347 4400 
L 3347 3909 
Q 3131 3700 2773 3181 
Q 2416 2663 2141 2063 
Q 1869 1478 1728 997 
Q 1638 688 1494 0 
L 872 0 
Q 1084 1281 1809 2550 
Q 2238 3294 2709 3834 
L 234 3834 
L 234 4400 
L 3347 4400 
z
" id="Helvetica-37" transform="scale(0.015625)"/>
       </defs>
       <use xlink:href="#Helvetica-30"/>
       <use x="55.615234" xlink:href="#Helvetica-2e"/>
       <use x="83.398438" xlink:href="#Helvetica-37"/>
       <use x="139.013672" xlink:href="#Helvetica-35"/>
      </g>
     </g>
    </g>
    <g id="ytick_5">
     <g id="text_8">
      <!-- 1.0 -->
      <g style="fill:#262626;" transform="translate(60.14 35.973437)scale(0.2 -0.2)">
       <use xlink:href="#Helvetica-31"/>
       <use x="55.615234" xlink:href="#Helvetica-2e"/>
       <use x="83.398438" xlink:href="#Helvetica-30"/>
      </g>
     </g>
    </g>
    <g id="text_9">
     <!-- Probability -->
     <g style="fill:#262626;" transform="translate(39.65875 143.579375)rotate(-90)scale(0.25 -0.25)">
      <defs>
       <path d="M 428 3347 
L 963 3347 
L 963 2769 
Q 1028 2938 1284 3180 
Q 1541 3422 1875 3422 
Q 1891 3422 1928 3419 
Q 1966 3416 2056 3406 
L 2056 2813 
Q 2006 2822 1964 2825 
Q 1922 2828 1872 2828 
Q 1447 2828 1219 2554 
Q 991 2281 991 1925 
L 991 0 
L 428 0 
L 428 3347 
z
" id="Helvetica-72" transform="scale(0.015625)"/>
       <path d="M 369 4606 
L 916 4606 
L 916 2941 
Q 1100 3181 1356 3307 
Q 1613 3434 1913 3434 
Q 2538 3434 2927 3004 
Q 3316 2575 3316 1738 
Q 3316 944 2931 419 
Q 2547 -106 1866 -106 
Q 1484 -106 1222 78 
Q 1066 188 888 428 
L 888 0 
L 369 0 
L 369 4606 
z
M 1831 391 
Q 2288 391 2514 753 
Q 2741 1116 2741 1709 
Q 2741 2238 2514 2584 
Q 2288 2931 1847 2931 
Q 1463 2931 1173 2647 
Q 884 2363 884 1709 
Q 884 1238 1003 944 
Q 1225 391 1831 391 
z
" id="Helvetica-62" transform="scale(0.015625)"/>
       <path d="M 844 891 
Q 844 647 1022 506 
Q 1200 366 1444 366 
Q 1741 366 2019 503 
Q 2488 731 2488 1250 
L 2488 1703 
Q 2384 1638 2221 1594 
Q 2059 1550 1903 1531 
L 1563 1488 
Q 1256 1447 1103 1359 
Q 844 1213 844 891 
z
M 2206 2028 
Q 2400 2053 2466 2191 
Q 2503 2266 2503 2406 
Q 2503 2694 2298 2823 
Q 2094 2953 1713 2953 
Q 1272 2953 1088 2716 
Q 984 2584 953 2325 
L 428 2325 
Q 444 2944 830 3186 
Q 1216 3428 1725 3428 
Q 2316 3428 2684 3203 
Q 3050 2978 3050 2503 
L 3050 575 
Q 3050 488 3086 434 
Q 3122 381 3238 381 
Q 3275 381 3322 386 
Q 3369 391 3422 400 
L 3422 -16 
Q 3291 -53 3222 -62 
Q 3153 -72 3034 -72 
Q 2744 -72 2613 134 
Q 2544 244 2516 444 
Q 2344 219 2022 53 
Q 1700 -113 1313 -113 
Q 847 -113 551 170 
Q 256 453 256 878 
Q 256 1344 547 1600 
Q 838 1856 1309 1916 
L 2206 2028 
z
M 1741 3428 
L 1741 3428 
z
" id="Helvetica-61" transform="scale(0.015625)"/>
       <path d="M 428 4591 
L 991 4591 
L 991 0 
L 428 0 
L 428 4591 
z
" id="Helvetica-6c" transform="scale(0.015625)"/>
       <path d="M 2503 3347 
L 3125 3347 
Q 3006 3025 2597 1878 
Q 2291 1016 2084 472 
Q 1597 -809 1397 -1090 
Q 1197 -1372 709 -1372 
Q 591 -1372 527 -1362 
Q 463 -1353 369 -1328 
L 369 -816 
Q 516 -856 581 -865 
Q 647 -875 697 -875 
Q 853 -875 926 -823 
Q 1000 -772 1050 -697 
Q 1066 -672 1162 -440 
Q 1259 -209 1303 -97 
L 66 3347 
L 703 3347 
L 1600 622 
L 2503 3347 
z
M 1597 3428 
L 1597 3428 
z
" id="Helvetica-79" transform="scale(0.015625)"/>
      </defs>
      <use xlink:href="#Helvetica-50"/>
      <use x="66.699219" xlink:href="#Helvetica-72"/>
      <use x="100" xlink:href="#Helvetica-6f"/>
      <use x="155.615234" xlink:href="#Helvetica-62"/>
      <use x="211.230469" xlink:href="#Helvetica-61"/>
      <use x="266.845703" xlink:href="#Helvetica-62"/>
      <use x="322.460938" xlink:href="#Helvetica-69"/>
      <use x="344.677734" xlink:href="#Helvetica-6c"/>
      <use x="366.894531" xlink:href="#Helvetica-69"/>
      <use x="389.111328" xlink:href="#Helvetica-74"/>
      <use x="416.894531" xlink:href="#Helvetica-79"/>
     </g>
    </g>
   </g>
   <g id="patch_83">
    <path d="M 94.94 141.64 
L 94.94 28.8 
" style="fill:none;stroke:#000000;stroke-linecap:square;stroke-linejoin:miter;"/>
   </g>
  </g>
 </g>
 <defs>
  <clipPath id="pc88cbf0c42">
   <rect height="112.84" width="243.46" x="94.94" y="28.8"/>
  </clipPath>
 </defs>
</svg>
