<?xml version="1.0" encoding="utf-8" standalone="no"?>
<!DOCTYPE svg PUBLIC "-//W3C//DTD SVG 1.1//EN"
  "http://www.w3.org/Graphics/SVG/1.1/DTD/svg11.dtd">
<svg height="288pt" version="1.1" viewBox="0 0 432 288" width="432pt" xmlns="http://www.w3.org/2000/svg" xmlns:xlink="http://www.w3.org/1999/xlink">
 <metadata>
  <rdf:RDF xmlns:cc="http://creativecommons.org/ns#" xmlns:dc="http://purl.org/dc/elements/1.1/" xmlns:rdf="http://www.w3.org/1999/02/22-rdf-syntax-ns#">
   <cc:Work>
    <dc:type rdf:resource="http://purl.org/dc/dcmitype/StillImage"/>
    <dc:date>2023-01-26T14:25:33.883843</dc:date>
    <dc:format>image/svg+xml</dc:format>
    <dc:creator>
     <cc:Agent>
      <dc:title>Matplotlib v3.4.2, https://matplotlib.org/</dc:title>
     </cc:Agent>
    </dc:creator>
   </cc:Work>
  </rdf:RDF>
 </metadata>
 <defs>
  <style type="text/css">*{stroke-linecap:butt;stroke-linejoin:round;}</style>
 </defs>
 <g id="figure_1">
  <g id="patch_1">
   <path d="M 0 288 
L 432 288 
L 432 0 
L 0 0 
z
" style="fill:#ffffff;"/>
  </g>
  <g id="axes_1">
   <g id="patch_2">
    <path d="M 85.39 211.94 
L 410.4 211.94 
L 410.4 21.6 
L 85.39 21.6 
z
" style="fill:#ffffff;"/>
   </g>
   <g id="PolyCollection_1">
    <defs>
     <path d="M 100.163182 -154.798762 
L 100.163182 -113.365 
L 106.586304 -105.770472 
L 113.009427 -102.030802 
L 119.432549 -116.638426 
L 125.855672 -99.613173 
L 132.278794 -96.6512 
L 138.701917 -98.597292 
L 145.12504 -96.646405 
L 151.548162 -104.045338 
L 157.971285 -99.081363 
L 164.394407 -103.005561 
L 170.81753 -88.469078 
L 177.240652 -106.298627 
L 183.663775 -88.673446 
L 190.086897 -90.894251 
L 196.51002 -93.07451 
L 202.933142 -88.491399 
L 209.356265 -87.051468 
L 215.779387 -89.12049 
L 222.20251 -87.752238 
L 228.625632 -96.098189 
L 235.048755 -93.798374 
L 241.471877 -89.047965 
L 247.895 -90.17451 
L 254.318123 -90.498116 
L 260.741245 -90.625551 
L 267.164368 -86.41395 
L 273.58749 -87.407597 
L 280.010613 -85.857946 
L 286.433735 -86.137223 
L 292.856858 -88.736764 
L 299.27998 -87.772386 
L 305.703103 -91.920913 
L 312.126225 -87.280033 
L 318.549348 -88.570983 
L 324.97247 -89.12049 
L 331.395593 -84.711818 
L 337.818715 -98.688822 
L 344.241838 -86.016609 
L 350.66496 -92.100366 
L 357.088083 -94.727318 
L 363.511206 -91.969582 
L 369.934328 -86.382632 
L 376.357451 -88.721072 
L 382.780573 -93.718933 
L 389.203696 -87.490316 
L 395.626818 -90.820763 
L 395.626818 -116.919646 
L 395.626818 -116.919646 
L 389.203696 -109.75753 
L 382.780573 -122.49306 
L 376.357451 -111.122992 
L 369.934328 -108.921553 
L 363.511206 -117.478455 
L 357.088083 -123.708936 
L 350.66496 -119.32795 
L 344.241838 -105.806367 
L 337.818715 -131.039746 
L 331.395593 -102.473137 
L 324.97247 -112.950211 
L 318.549348 -110.865362 
L 312.126225 -107.782914 
L 305.703103 -118.007995 
L 299.27998 -109.269801 
L 292.856858 -112.430925 
L 286.433735 -107.125159 
L 280.010613 -104.811818 
L 273.58749 -106.808497 
L 267.164368 -108.645397 
L 260.741245 -118.054671 
L 254.318123 -117.841249 
L 247.895 -115.176379 
L 241.471877 -112.134146 
L 235.048755 -121.808687 
L 228.625632 -124.540986 
L 222.20251 -110.600181 
L 215.779387 -112.950211 
L 209.356265 -107.103104 
L 202.933142 -110.301193 
L 196.51002 -119.796812 
L 190.086897 -118.73606 
L 183.663775 -111.558552 
L 177.240652 -143.800037 
L 170.81753 -110.466611 
L 164.394407 -141.228559 
L 157.971285 -128.28003 
L 151.548162 -138.260741 
L 145.12504 -130.064036 
L 138.701917 -134.131971 
L 132.278794 -127.710604 
L 125.855672 -134.221344 
L 119.432549 -154.282832 
L 113.009427 -138.257713 
L 106.586304 -141.890532 
L 100.163182 -154.798762 
z
" id="m964cf6136a" style="stroke:#ff8c00;stroke-opacity:0.2;"/>
    </defs>
    <g clip-path="url(#p82f921256f)">
     <use style="fill:#ff8c00;fill-opacity:0.2;stroke:#ff8c00;stroke-opacity:0.2;" x="0" xlink:href="#m964cf6136a" y="288"/>
    </g>
   </g>
   <g id="PolyCollection_2">
    <defs>
     <path d="M 100.163182 -257.748182 
L 100.163182 -206.170464 
L 106.586304 -132.516047 
L 113.009427 -129.952324 
L 119.432549 -116.193508 
L 125.855672 -138.500041 
L 132.278794 -119.737176 
L 138.701917 -134.032374 
L 145.12504 -128.158342 
L 151.548162 -113.802768 
L 157.971285 -92.152921 
L 164.394407 -134.513318 
L 170.81753 -129.863711 
L 177.240652 -141.716643 
L 183.663775 -112.372702 
L 190.086897 -137.204932 
L 196.51002 -125.191192 
L 202.933142 -149.254754 
L 209.356265 -137.882896 
L 215.779387 -119.248143 
L 222.20251 -109.785871 
L 228.625632 -114.133341 
L 235.048755 -93.29635 
L 241.471877 -109.223333 
L 247.895 -119.956886 
L 254.318123 -114.404685 
L 260.741245 -105.021187 
L 267.164368 -120.969124 
L 273.58749 -140.265046 
L 280.010613 -116.376701 
L 286.433735 -129.139354 
L 292.856858 -126.473366 
L 299.27998 -110.993208 
L 305.703103 -98.107659 
L 312.126225 -123.653977 
L 318.549348 -118.436466 
L 324.97247 -108.739288 
L 331.395593 -126.488241 
L 337.818715 -128.509951 
L 344.241838 -114.760174 
L 350.66496 -115.491447 
L 357.088083 -103.105355 
L 363.511206 -114.290052 
L 369.934328 -110.689679 
L 376.357451 -124.459012 
L 382.780573 -117.693575 
L 389.203696 -115.566762 
L 395.626818 -98.086849 
L 395.626818 -128.486631 
L 395.626818 -128.486631 
L 389.203696 -156.337104 
L 382.780573 -158.588013 
L 376.357451 -167.370619 
L 369.934328 -149.885595 
L 363.511206 -152.77084 
L 357.088083 -137.305999 
L 350.66496 -153.654508 
L 344.241838 -155.703411 
L 337.818715 -172.966406 
L 331.395593 -173.11838 
L 324.97247 -145.362862 
L 318.549348 -162.688089 
L 312.126225 -168.533213 
L 305.703103 -129.661811 
L 299.27998 -146.735326 
L 292.856858 -172.302854 
L 286.433735 -175.045967 
L 280.010613 -159.867088 
L 273.58749 -188.652928 
L 267.164368 -164.730543 
L 260.741245 -138.972734 
L 254.318123 -152.628892 
L 247.895 -163.165126 
L 241.471877 -148.985781 
L 235.048755 -121.220061 
L 228.625632 -152.372098 
L 222.20251 -146.839634 
L 215.779387 -158.697571 
L 209.356265 -188.282036 
L 202.933142 -202.688295 
L 196.51002 -173.503801 
L 190.086897 -188.818477 
L 183.663775 -156.528832 
L 177.240652 -190.779825 
L 170.81753 -173.107891 
L 164.394407 -182.386432 
L 157.971285 -121.514077 
L 151.548162 -149.261322 
L 145.12504 -172.14029 
L 138.701917 -179.150418 
L 132.278794 -159.449325 
L 125.855672 -187.851099 
L 119.432549 -156.404794 
L 113.009427 -175.996772 
L 106.586304 -176.692827 
L 100.163182 -257.748182 
z
" id="mcc30a2cbda" style="stroke:#808080;stroke-opacity:0.2;"/>
    </defs>
    <g clip-path="url(#p82f921256f)">
     <use style="fill:#808080;fill-opacity:0.2;stroke:#808080;stroke-opacity:0.2;" x="0" xlink:href="#mcc30a2cbda" y="288"/>
    </g>
   </g>
   <g id="matplotlib.axis_1">
    <g id="xtick_1">
     <g id="line2d_1">
      <defs>
       <path d="M 0 0 
L 0 10 
" id="mee944da26e" style="stroke:#000000;stroke-width:0.8;"/>
      </defs>
      <g>
       <use style="stroke:#000000;stroke-width:0.8;" x="100.163182" xlink:href="#mee944da26e" y="211.94"/>
      </g>
     </g>
     <g id="text_1">
      <!-- 0 -->
      <g transform="translate(94.602244 239.786875)scale(0.2 -0.2)">
       <defs>
        <path d="M 1731 4475 
Q 2600 4475 2988 3759 
Q 3288 3206 3288 2244 
Q 3288 1331 3016 734 
Q 2622 -122 1728 -122 
Q 922 -122 528 578 
Q 200 1163 200 2147 
Q 200 2909 397 3456 
Q 766 4475 1731 4475 
z
M 1725 391 
Q 2163 391 2422 778 
Q 2681 1166 2681 2222 
Q 2681 2984 2493 3476 
Q 2306 3969 1766 3969 
Q 1269 3969 1039 3501 
Q 809 3034 809 2125 
Q 809 1441 956 1025 
Q 1181 391 1725 391 
z
" id="Helvetica-30" transform="scale(0.015625)"/>
       </defs>
       <use xlink:href="#Helvetica-30"/>
      </g>
     </g>
    </g>
    <g id="xtick_2">
     <g id="line2d_2">
      <g>
       <use style="stroke:#000000;stroke-width:0.8;" x="164.394407" xlink:href="#mee944da26e" y="211.94"/>
      </g>
     </g>
     <g id="text_2">
      <!-- 10 -->
      <g transform="translate(153.272532 239.786875)scale(0.2 -0.2)">
       <defs>
        <path d="M 613 3169 
L 613 3600 
Q 1222 3659 1462 3798 
Q 1703 3938 1822 4456 
L 2266 4456 
L 2266 0 
L 1666 0 
L 1666 3169 
L 613 3169 
z
" id="Helvetica-31" transform="scale(0.015625)"/>
       </defs>
       <use xlink:href="#Helvetica-31"/>
       <use x="55.615234" xlink:href="#Helvetica-30"/>
      </g>
     </g>
    </g>
    <g id="xtick_3">
     <g id="line2d_3">
      <g>
       <use style="stroke:#000000;stroke-width:0.8;" x="228.625632" xlink:href="#mee944da26e" y="211.94"/>
      </g>
     </g>
     <g id="text_3">
      <!-- 20 -->
      <g transform="translate(217.503757 239.786875)scale(0.2 -0.2)">
       <defs>
        <path d="M 200 0 
Q 231 578 439 1006 
Q 647 1434 1250 1784 
L 1850 2131 
Q 2253 2366 2416 2531 
Q 2672 2791 2672 3125 
Q 2672 3516 2437 3745 
Q 2203 3975 1813 3975 
Q 1234 3975 1013 3538 
Q 894 3303 881 2888 
L 309 2888 
Q 319 3472 525 3841 
Q 891 4491 1816 4491 
Q 2584 4491 2939 4075 
Q 3294 3659 3294 3150 
Q 3294 2613 2916 2231 
Q 2697 2009 2131 1694 
L 1703 1456 
Q 1397 1288 1222 1134 
Q 909 863 828 531 
L 3272 531 
L 3272 0 
L 200 0 
z
" id="Helvetica-32" transform="scale(0.015625)"/>
       </defs>
       <use xlink:href="#Helvetica-32"/>
       <use x="55.615234" xlink:href="#Helvetica-30"/>
      </g>
     </g>
    </g>
    <g id="xtick_4">
     <g id="line2d_4">
      <g>
       <use style="stroke:#000000;stroke-width:0.8;" x="292.856858" xlink:href="#mee944da26e" y="211.94"/>
      </g>
     </g>
     <g id="text_4">
      <!-- 30 -->
      <g transform="translate(281.734983 239.786875)scale(0.2 -0.2)">
       <defs>
        <path d="M 1663 -122 
Q 869 -122 511 314 
Q 153 750 153 1375 
L 741 1375 
Q 778 941 903 744 
Q 1122 391 1694 391 
Q 2138 391 2406 628 
Q 2675 866 2675 1241 
Q 2675 1703 2392 1887 
Q 2109 2072 1606 2072 
Q 1550 2072 1492 2070 
Q 1434 2069 1375 2066 
L 1375 2563 
Q 1463 2553 1522 2550 
Q 1581 2547 1650 2547 
Q 1966 2547 2169 2647 
Q 2525 2822 2525 3272 
Q 2525 3606 2287 3787 
Q 2050 3969 1734 3969 
Q 1172 3969 956 3594 
Q 838 3388 822 3006 
L 266 3006 
Q 266 3506 466 3856 
Q 809 4481 1675 4481 
Q 2359 4481 2734 4176 
Q 3109 3872 3109 3294 
Q 3109 2881 2888 2625 
Q 2750 2466 2531 2375 
Q 2884 2278 3082 2001 
Q 3281 1725 3281 1325 
Q 3281 684 2859 281 
Q 2438 -122 1663 -122 
z
" id="Helvetica-33" transform="scale(0.015625)"/>
       </defs>
       <use xlink:href="#Helvetica-33"/>
       <use x="55.615234" xlink:href="#Helvetica-30"/>
      </g>
     </g>
    </g>
    <g id="xtick_5">
     <g id="line2d_5">
      <g>
       <use style="stroke:#000000;stroke-width:0.8;" x="357.088083" xlink:href="#mee944da26e" y="211.94"/>
      </g>
     </g>
     <g id="text_5">
      <!-- 40 -->
      <g transform="translate(345.966208 239.786875)scale(0.2 -0.2)">
       <defs>
        <path d="M 2116 1584 
L 2116 3613 
L 681 1584 
L 2116 1584 
z
M 2125 0 
L 2125 1094 
L 163 1094 
L 163 1644 
L 2213 4488 
L 2688 4488 
L 2688 1584 
L 3347 1584 
L 3347 1094 
L 2688 1094 
L 2688 0 
L 2125 0 
z
" id="Helvetica-34" transform="scale(0.015625)"/>
       </defs>
       <use xlink:href="#Helvetica-34"/>
       <use x="55.615234" xlink:href="#Helvetica-30"/>
      </g>
     </g>
    </g>
    <g id="text_6">
     <!-- Position -->
     <g transform="translate(212.32 262.3025)scale(0.2 -0.2)">
      <defs>
       <path d="M 547 4591 
L 2613 4591 
Q 3225 4591 3600 4245 
Q 3975 3900 3975 3275 
Q 3975 2738 3640 2339 
Q 3306 1941 2613 1941 
L 1169 1941 
L 1169 0 
L 547 0 
L 547 4591 
z
M 3347 3272 
Q 3347 3778 2972 3959 
Q 2766 4056 2406 4056 
L 1169 4056 
L 1169 2466 
L 2406 2466 
Q 2825 2466 3086 2644 
Q 3347 2822 3347 3272 
z
" id="Helvetica-50" transform="scale(0.015625)"/>
       <path d="M 1741 363 
Q 2300 363 2508 786 
Q 2716 1209 2716 1728 
Q 2716 2197 2566 2491 
Q 2328 2953 1747 2953 
Q 1231 2953 997 2559 
Q 763 2166 763 1609 
Q 763 1075 997 719 
Q 1231 363 1741 363 
z
M 1763 3444 
Q 2409 3444 2856 3012 
Q 3303 2581 3303 1744 
Q 3303 934 2909 406 
Q 2516 -122 1688 -122 
Q 997 -122 590 345 
Q 184 813 184 1600 
Q 184 2444 612 2944 
Q 1041 3444 1763 3444 
z
M 1744 3428 
L 1744 3428 
z
" id="Helvetica-6f" transform="scale(0.015625)"/>
       <path d="M 747 1050 
Q 772 769 888 619 
Q 1100 347 1625 347 
Q 1938 347 2175 483 
Q 2413 619 2413 903 
Q 2413 1119 2222 1231 
Q 2100 1300 1741 1391 
L 1294 1503 
Q 866 1609 663 1741 
Q 300 1969 300 2372 
Q 300 2847 642 3140 
Q 984 3434 1563 3434 
Q 2319 3434 2653 2991 
Q 2863 2709 2856 2384 
L 2325 2384 
Q 2309 2575 2191 2731 
Q 1997 2953 1519 2953 
Q 1200 2953 1036 2831 
Q 872 2709 872 2509 
Q 872 2291 1088 2159 
Q 1213 2081 1456 2022 
L 1828 1931 
Q 2434 1784 2641 1647 
Q 2969 1431 2969 969 
Q 2969 522 2630 197 
Q 2291 -128 1597 -128 
Q 850 -128 539 211 
Q 228 550 206 1050 
L 747 1050 
z
M 1578 3428 
L 1578 3428 
z
" id="Helvetica-73" transform="scale(0.015625)"/>
       <path d="M 413 3331 
L 984 3331 
L 984 0 
L 413 0 
L 413 3331 
z
M 413 4591 
L 984 4591 
L 984 3953 
L 413 3953 
L 413 4591 
z
" id="Helvetica-69" transform="scale(0.015625)"/>
       <path d="M 525 4281 
L 1094 4281 
L 1094 3347 
L 1628 3347 
L 1628 2888 
L 1094 2888 
L 1094 703 
Q 1094 528 1213 469 
Q 1278 434 1431 434 
Q 1472 434 1519 436 
Q 1566 438 1628 444 
L 1628 0 
Q 1531 -28 1426 -40 
Q 1322 -53 1200 -53 
Q 806 -53 665 148 
Q 525 350 525 672 
L 525 2888 
L 72 2888 
L 72 3347 
L 525 3347 
L 525 4281 
z
" id="Helvetica-74" transform="scale(0.015625)"/>
       <path d="M 413 3347 
L 947 3347 
L 947 2872 
Q 1184 3166 1450 3294 
Q 1716 3422 2041 3422 
Q 2753 3422 3003 2925 
Q 3141 2653 3141 2147 
L 3141 0 
L 2569 0 
L 2569 2109 
Q 2569 2416 2478 2603 
Q 2328 2916 1934 2916 
Q 1734 2916 1606 2875 
Q 1375 2806 1200 2600 
Q 1059 2434 1017 2257 
Q 975 2081 975 1753 
L 975 0 
L 413 0 
L 413 3347 
z
M 1734 3428 
L 1734 3428 
z
" id="Helvetica-6e" transform="scale(0.015625)"/>
      </defs>
      <use xlink:href="#Helvetica-50"/>
      <use x="66.699219" xlink:href="#Helvetica-6f"/>
      <use x="122.314453" xlink:href="#Helvetica-73"/>
      <use x="172.314453" xlink:href="#Helvetica-69"/>
      <use x="194.53125" xlink:href="#Helvetica-74"/>
      <use x="222.314453" xlink:href="#Helvetica-69"/>
      <use x="244.53125" xlink:href="#Helvetica-6f"/>
      <use x="300.146484" xlink:href="#Helvetica-6e"/>
     </g>
    </g>
   </g>
   <g id="matplotlib.axis_2">
    <g id="ytick_1">
     <g id="line2d_6">
      <defs>
       <path d="M 0 0 
L -10 0 
" id="m6cf9388df8" style="stroke:#000000;stroke-width:0.8;"/>
      </defs>
      <g>
       <use style="stroke:#000000;stroke-width:0.8;" x="85.39" xlink:href="#m6cf9388df8" y="201.672135"/>
      </g>
     </g>
     <g id="text_7">
      <!-- 0.0 -->
      <g transform="translate(44.09 208.845573)scale(0.2 -0.2)">
       <defs>
        <path d="M 547 681 
L 1200 681 
L 1200 0 
L 547 0 
L 547 681 
z
" id="Helvetica-2e" transform="scale(0.015625)"/>
       </defs>
       <use xlink:href="#Helvetica-30"/>
       <use x="55.615234" xlink:href="#Helvetica-2e"/>
       <use x="83.398438" xlink:href="#Helvetica-30"/>
      </g>
     </g>
    </g>
    <g id="ytick_2">
     <g id="line2d_7">
      <g>
       <use style="stroke:#000000;stroke-width:0.8;" x="85.39" xlink:href="#m6cf9388df8" y="125.605026"/>
      </g>
     </g>
     <g id="text_8">
      <!-- 0.1 -->
      <g transform="translate(44.09 132.778463)scale(0.2 -0.2)">
       <use xlink:href="#Helvetica-30"/>
       <use x="55.615234" xlink:href="#Helvetica-2e"/>
       <use x="83.398438" xlink:href="#Helvetica-31"/>
      </g>
     </g>
    </g>
    <g id="ytick_3">
     <g id="line2d_8">
      <g>
       <use style="stroke:#000000;stroke-width:0.8;" x="85.39" xlink:href="#m6cf9388df8" y="49.537916"/>
      </g>
     </g>
     <g id="text_9">
      <!-- 0.2 -->
      <g transform="translate(44.09 56.711354)scale(0.2 -0.2)">
       <use xlink:href="#Helvetica-30"/>
       <use x="55.615234" xlink:href="#Helvetica-2e"/>
       <use x="83.398438" xlink:href="#Helvetica-32"/>
      </g>
     </g>
    </g>
    <g id="text_10">
     <!-- Std Dev of Subunit Mismatch -->
     <g transform="translate(35.92125 245.709062)rotate(-90)scale(0.2 -0.2)">
      <defs>
       <path d="M 894 1481 
Q 916 1091 1078 847 
Q 1388 391 2169 391 
Q 2519 391 2806 491 
Q 3363 684 3363 1184 
Q 3363 1559 3128 1719 
Q 2891 1875 2384 1991 
L 1763 2131 
Q 1153 2269 900 2434 
Q 463 2722 463 3294 
Q 463 3913 891 4309 
Q 1319 4706 2103 4706 
Q 2825 4706 3329 4357 
Q 3834 4009 3834 3244 
L 3250 3244 
Q 3203 3613 3050 3809 
Q 2766 4169 2084 4169 
Q 1534 4169 1293 3937 
Q 1053 3706 1053 3400 
Q 1053 3063 1334 2906 
Q 1519 2806 2169 2656 
L 2813 2509 
Q 3278 2403 3531 2219 
Q 3969 1897 3969 1284 
Q 3969 522 3414 194 
Q 2859 -134 2125 -134 
Q 1269 -134 784 303 
Q 300 738 309 1481 
L 894 1481 
z
M 2150 4716 
L 2150 4716 
z
" id="Helvetica-53" transform="scale(0.015625)"/>
       <path d="M 769 1634 
Q 769 1097 997 734 
Q 1225 372 1728 372 
Q 2119 372 2370 708 
Q 2622 1044 2622 1672 
Q 2622 2306 2362 2611 
Q 2103 2916 1722 2916 
Q 1297 2916 1033 2591 
Q 769 2266 769 1634 
z
M 1616 3406 
Q 2000 3406 2259 3244 
Q 2409 3150 2600 2916 
L 2600 4606 
L 3141 4606 
L 3141 0 
L 2634 0 
L 2634 466 
Q 2438 156 2169 18 
Q 1900 -119 1553 -119 
Q 994 -119 584 351 
Q 175 822 175 1603 
Q 175 2334 548 2870 
Q 922 3406 1616 3406 
z
" id="Helvetica-64" transform="scale(0.015625)"/>
       <path id="Helvetica-20" transform="scale(0.015625)"/>
       <path d="M 2250 531 
Q 2566 531 2769 597 
Q 3131 719 3363 1066 
Q 3547 1344 3628 1778 
Q 3675 2038 3675 2259 
Q 3675 3113 3336 3584 
Q 2997 4056 2244 4056 
L 1141 4056 
L 1141 531 
L 2250 531 
z
M 516 4591 
L 2375 4591 
Q 3322 4591 3844 3919 
Q 4309 3313 4309 2366 
Q 4309 1634 4034 1044 
Q 3550 0 2369 0 
L 516 0 
L 516 4591 
z
" id="Helvetica-44" transform="scale(0.015625)"/>
       <path d="M 1806 3422 
Q 2163 3422 2497 3255 
Q 2831 3088 3006 2822 
Q 3175 2569 3231 2231 
Q 3281 2000 3281 1494 
L 828 1494 
Q 844 984 1069 676 
Q 1294 369 1766 369 
Q 2206 369 2469 659 
Q 2619 828 2681 1050 
L 3234 1050 
Q 3213 866 3089 639 
Q 2966 413 2813 269 
Q 2556 19 2178 -69 
Q 1975 -119 1719 -119 
Q 1094 -119 659 336 
Q 225 791 225 1609 
Q 225 2416 662 2919 
Q 1100 3422 1806 3422 
z
M 2703 1941 
Q 2669 2306 2544 2525 
Q 2313 2931 1772 2931 
Q 1384 2931 1121 2651 
Q 859 2372 844 1941 
L 2703 1941 
z
M 1753 3428 
L 1753 3428 
z
" id="Helvetica-65" transform="scale(0.015625)"/>
       <path d="M 688 3347 
L 1581 622 
L 2516 3347 
L 3131 3347 
L 1869 0 
L 1269 0 
L 34 3347 
L 688 3347 
z
" id="Helvetica-76" transform="scale(0.015625)"/>
       <path d="M 553 3856 
Q 566 4206 675 4369 
Q 872 4656 1434 4656 
Q 1488 4656 1544 4653 
Q 1600 4650 1672 4644 
L 1672 4131 
Q 1584 4138 1545 4139 
Q 1506 4141 1472 4141 
Q 1216 4141 1166 4008 
Q 1116 3875 1116 3331 
L 1672 3331 
L 1672 2888 
L 1109 2888 
L 1109 0 
L 553 0 
L 553 2888 
L 88 2888 
L 88 3331 
L 553 3331 
L 553 3856 
z
" id="Helvetica-66" transform="scale(0.015625)"/>
       <path d="M 975 3347 
L 975 1125 
Q 975 869 1056 706 
Q 1206 406 1616 406 
Q 2203 406 2416 931 
Q 2531 1213 2531 1703 
L 2531 3347 
L 3094 3347 
L 3094 0 
L 2563 0 
L 2569 494 
Q 2459 303 2297 172 
Q 1975 -91 1516 -91 
Q 800 -91 541 388 
Q 400 644 400 1072 
L 400 3347 
L 975 3347 
z
M 1747 3428 
L 1747 3428 
z
" id="Helvetica-75" transform="scale(0.015625)"/>
       <path d="M 369 4606 
L 916 4606 
L 916 2941 
Q 1100 3181 1356 3307 
Q 1613 3434 1913 3434 
Q 2538 3434 2927 3004 
Q 3316 2575 3316 1738 
Q 3316 944 2931 419 
Q 2547 -106 1866 -106 
Q 1484 -106 1222 78 
Q 1066 188 888 428 
L 888 0 
L 369 0 
L 369 4606 
z
M 1831 391 
Q 2288 391 2514 753 
Q 2741 1116 2741 1709 
Q 2741 2238 2514 2584 
Q 2288 2931 1847 2931 
Q 1463 2931 1173 2647 
Q 884 2363 884 1709 
Q 884 1238 1003 944 
Q 1225 391 1831 391 
z
" id="Helvetica-62" transform="scale(0.015625)"/>
       <path d="M 472 4591 
L 1363 4591 
L 2681 709 
L 3991 4591 
L 4872 4591 
L 4872 0 
L 4281 0 
L 4281 2709 
Q 4281 2850 4287 3175 
Q 4294 3500 4294 3872 
L 2984 0 
L 2369 0 
L 1050 3872 
L 1050 3731 
Q 1050 3563 1058 3217 
Q 1066 2872 1066 2709 
L 1066 0 
L 472 0 
L 472 4591 
z
" id="Helvetica-4d" transform="scale(0.015625)"/>
       <path d="M 413 3347 
L 969 3347 
L 969 2872 
Q 1169 3119 1331 3231 
Q 1609 3422 1963 3422 
Q 2363 3422 2606 3225 
Q 2744 3113 2856 2894 
Q 3044 3163 3297 3292 
Q 3550 3422 3866 3422 
Q 4541 3422 4784 2934 
Q 4916 2672 4916 2228 
L 4916 0 
L 4331 0 
L 4331 2325 
Q 4331 2659 4164 2784 
Q 3997 2909 3756 2909 
Q 3425 2909 3186 2687 
Q 2947 2466 2947 1947 
L 2947 0 
L 2375 0 
L 2375 2184 
Q 2375 2525 2294 2681 
Q 2166 2916 1816 2916 
Q 1497 2916 1236 2669 
Q 975 2422 975 1775 
L 975 0 
L 413 0 
L 413 3347 
z
" id="Helvetica-6d" transform="scale(0.015625)"/>
       <path d="M 844 891 
Q 844 647 1022 506 
Q 1200 366 1444 366 
Q 1741 366 2019 503 
Q 2488 731 2488 1250 
L 2488 1703 
Q 2384 1638 2221 1594 
Q 2059 1550 1903 1531 
L 1563 1488 
Q 1256 1447 1103 1359 
Q 844 1213 844 891 
z
M 2206 2028 
Q 2400 2053 2466 2191 
Q 2503 2266 2503 2406 
Q 2503 2694 2298 2823 
Q 2094 2953 1713 2953 
Q 1272 2953 1088 2716 
Q 984 2584 953 2325 
L 428 2325 
Q 444 2944 830 3186 
Q 1216 3428 1725 3428 
Q 2316 3428 2684 3203 
Q 3050 2978 3050 2503 
L 3050 575 
Q 3050 488 3086 434 
Q 3122 381 3238 381 
Q 3275 381 3322 386 
Q 3369 391 3422 400 
L 3422 -16 
Q 3291 -53 3222 -62 
Q 3153 -72 3034 -72 
Q 2744 -72 2613 134 
Q 2544 244 2516 444 
Q 2344 219 2022 53 
Q 1700 -113 1313 -113 
Q 847 -113 551 170 
Q 256 453 256 878 
Q 256 1344 547 1600 
Q 838 1856 1309 1916 
L 2206 2028 
z
M 1741 3428 
L 1741 3428 
z
" id="Helvetica-61" transform="scale(0.015625)"/>
       <path d="M 1703 3444 
Q 2269 3444 2623 3169 
Q 2978 2894 3050 2222 
L 2503 2222 
Q 2453 2531 2275 2736 
Q 2097 2941 1703 2941 
Q 1166 2941 934 2416 
Q 784 2075 784 1575 
Q 784 1072 996 728 
Q 1209 384 1666 384 
Q 2016 384 2220 598 
Q 2425 813 2503 1184 
L 3050 1184 
Q 2956 519 2581 211 
Q 2206 -97 1622 -97 
Q 966 -97 575 383 
Q 184 863 184 1581 
Q 184 2463 612 2953 
Q 1041 3444 1703 3444 
z
M 1616 3428 
L 1616 3428 
z
" id="Helvetica-63" transform="scale(0.015625)"/>
       <path d="M 413 4606 
L 975 4606 
L 975 2894 
Q 1175 3147 1334 3250 
Q 1606 3428 2013 3428 
Q 2741 3428 3000 2919 
Q 3141 2641 3141 2147 
L 3141 0 
L 2563 0 
L 2563 2109 
Q 2563 2478 2469 2650 
Q 2316 2925 1894 2925 
Q 1544 2925 1259 2684 
Q 975 2444 975 1775 
L 975 0 
L 413 0 
L 413 4606 
z
" id="Helvetica-68" transform="scale(0.015625)"/>
      </defs>
      <use xlink:href="#Helvetica-53"/>
      <use x="66.699219" xlink:href="#Helvetica-74"/>
      <use x="94.482422" xlink:href="#Helvetica-64"/>
      <use x="150.097656" xlink:href="#Helvetica-20"/>
      <use x="177.880859" xlink:href="#Helvetica-44"/>
      <use x="250.097656" xlink:href="#Helvetica-65"/>
      <use x="305.712891" xlink:href="#Helvetica-76"/>
      <use x="355.712891" xlink:href="#Helvetica-20"/>
      <use x="383.496094" xlink:href="#Helvetica-6f"/>
      <use x="439.111328" xlink:href="#Helvetica-66"/>
      <use x="466.894531" xlink:href="#Helvetica-20"/>
      <use x="494.677734" xlink:href="#Helvetica-53"/>
      <use x="561.376953" xlink:href="#Helvetica-75"/>
      <use x="616.992188" xlink:href="#Helvetica-62"/>
      <use x="672.607422" xlink:href="#Helvetica-75"/>
      <use x="728.222656" xlink:href="#Helvetica-6e"/>
      <use x="783.837891" xlink:href="#Helvetica-69"/>
      <use x="806.054688" xlink:href="#Helvetica-74"/>
      <use x="833.837891" xlink:href="#Helvetica-20"/>
      <use x="861.621094" xlink:href="#Helvetica-4d"/>
      <use x="944.921875" xlink:href="#Helvetica-69"/>
      <use x="967.138672" xlink:href="#Helvetica-73"/>
      <use x="1017.138672" xlink:href="#Helvetica-6d"/>
      <use x="1100.439453" xlink:href="#Helvetica-61"/>
      <use x="1156.054688" xlink:href="#Helvetica-74"/>
      <use x="1183.837891" xlink:href="#Helvetica-63"/>
      <use x="1233.837891" xlink:href="#Helvetica-68"/>
     </g>
    </g>
   </g>
   <g id="line2d_9">
    <path clip-path="url(#p82f921256f)" d="M 100.163182 153.918119 
L 106.586304 164.169498 
L 113.009427 167.855742 
L 119.432549 152.539371 
L 125.855672 171.082741 
L 132.278794 175.819098 
L 138.701917 171.635369 
L 145.12504 174.644779 
L 151.548162 166.846961 
L 157.971285 174.319303 
L 164.394407 165.88294 
L 170.81753 188.532156 
L 177.240652 162.950668 
L 183.663775 187.884001 
L 190.086897 183.184844 
L 196.51002 181.564339 
L 202.933142 188.603704 
L 209.356265 190.922714 
L 215.779387 186.964649 
L 222.20251 188.823791 
L 228.625632 177.680413 
L 235.048755 180.19647 
L 241.471877 187.408944 
L 247.895 185.324555 
L 254.318123 183.830317 
L 260.741245 183.659889 
L 267.164368 190.470326 
L 273.58749 190.891953 
L 280.010613 192.665118 
L 286.433735 191.368809 
L 292.856858 187.416155 
L 299.27998 189.478907 
L 305.703103 183.035546 
L 312.126225 190.468527 
L 318.549348 188.281828 
L 324.97247 186.964649 
L 331.395593 194.407522 
L 337.818715 173.135716 
L 344.241838 192.088512 
L 350.66496 182.285842 
L 357.088083 178.781873 
L 363.511206 183.275982 
L 369.934328 190.347908 
L 376.357451 188.077968 
L 382.780573 179.894003 
L 389.203696 189.376077 
L 395.626818 184.129796 
" style="fill:none;stroke:#ff8c00;stroke-linecap:square;stroke-opacity:0.8;stroke-width:0.7;"/>
    <defs>
     <path d="M 0 -2.5 
L -2.5 2.5 
L 2.5 2.5 
z
" id="m1b24286af4" style="stroke:#000000;stroke-linejoin:miter;stroke-opacity:0.8;"/>
    </defs>
    <g clip-path="url(#p82f921256f)">
     <use style="fill:#ff8c00;fill-opacity:0.8;stroke:#000000;stroke-linejoin:miter;stroke-opacity:0.8;" x="100.163182" xlink:href="#m1b24286af4" y="153.918119"/>
     <use style="fill:#ff8c00;fill-opacity:0.8;stroke:#000000;stroke-linejoin:miter;stroke-opacity:0.8;" x="106.586304" xlink:href="#m1b24286af4" y="164.169498"/>
     <use style="fill:#ff8c00;fill-opacity:0.8;stroke:#000000;stroke-linejoin:miter;stroke-opacity:0.8;" x="113.009427" xlink:href="#m1b24286af4" y="167.855742"/>
     <use style="fill:#ff8c00;fill-opacity:0.8;stroke:#000000;stroke-linejoin:miter;stroke-opacity:0.8;" x="119.432549" xlink:href="#m1b24286af4" y="152.539371"/>
     <use style="fill:#ff8c00;fill-opacity:0.8;stroke:#000000;stroke-linejoin:miter;stroke-opacity:0.8;" x="125.855672" xlink:href="#m1b24286af4" y="171.082741"/>
     <use style="fill:#ff8c00;fill-opacity:0.8;stroke:#000000;stroke-linejoin:miter;stroke-opacity:0.8;" x="132.278794" xlink:href="#m1b24286af4" y="175.819098"/>
     <use style="fill:#ff8c00;fill-opacity:0.8;stroke:#000000;stroke-linejoin:miter;stroke-opacity:0.8;" x="138.701917" xlink:href="#m1b24286af4" y="171.635369"/>
     <use style="fill:#ff8c00;fill-opacity:0.8;stroke:#000000;stroke-linejoin:miter;stroke-opacity:0.8;" x="145.12504" xlink:href="#m1b24286af4" y="174.644779"/>
     <use style="fill:#ff8c00;fill-opacity:0.8;stroke:#000000;stroke-linejoin:miter;stroke-opacity:0.8;" x="151.548162" xlink:href="#m1b24286af4" y="166.846961"/>
     <use style="fill:#ff8c00;fill-opacity:0.8;stroke:#000000;stroke-linejoin:miter;stroke-opacity:0.8;" x="157.971285" xlink:href="#m1b24286af4" y="174.319303"/>
     <use style="fill:#ff8c00;fill-opacity:0.8;stroke:#000000;stroke-linejoin:miter;stroke-opacity:0.8;" x="164.394407" xlink:href="#m1b24286af4" y="165.88294"/>
     <use style="fill:#ff8c00;fill-opacity:0.8;stroke:#000000;stroke-linejoin:miter;stroke-opacity:0.8;" x="170.81753" xlink:href="#m1b24286af4" y="188.532156"/>
     <use style="fill:#ff8c00;fill-opacity:0.8;stroke:#000000;stroke-linejoin:miter;stroke-opacity:0.8;" x="177.240652" xlink:href="#m1b24286af4" y="162.950668"/>
     <use style="fill:#ff8c00;fill-opacity:0.8;stroke:#000000;stroke-linejoin:miter;stroke-opacity:0.8;" x="183.663775" xlink:href="#m1b24286af4" y="187.884001"/>
     <use style="fill:#ff8c00;fill-opacity:0.8;stroke:#000000;stroke-linejoin:miter;stroke-opacity:0.8;" x="190.086897" xlink:href="#m1b24286af4" y="183.184844"/>
     <use style="fill:#ff8c00;fill-opacity:0.8;stroke:#000000;stroke-linejoin:miter;stroke-opacity:0.8;" x="196.51002" xlink:href="#m1b24286af4" y="181.564339"/>
     <use style="fill:#ff8c00;fill-opacity:0.8;stroke:#000000;stroke-linejoin:miter;stroke-opacity:0.8;" x="202.933142" xlink:href="#m1b24286af4" y="188.603704"/>
     <use style="fill:#ff8c00;fill-opacity:0.8;stroke:#000000;stroke-linejoin:miter;stroke-opacity:0.8;" x="209.356265" xlink:href="#m1b24286af4" y="190.922714"/>
     <use style="fill:#ff8c00;fill-opacity:0.8;stroke:#000000;stroke-linejoin:miter;stroke-opacity:0.8;" x="215.779387" xlink:href="#m1b24286af4" y="186.964649"/>
     <use style="fill:#ff8c00;fill-opacity:0.8;stroke:#000000;stroke-linejoin:miter;stroke-opacity:0.8;" x="222.20251" xlink:href="#m1b24286af4" y="188.823791"/>
     <use style="fill:#ff8c00;fill-opacity:0.8;stroke:#000000;stroke-linejoin:miter;stroke-opacity:0.8;" x="228.625632" xlink:href="#m1b24286af4" y="177.680413"/>
     <use style="fill:#ff8c00;fill-opacity:0.8;stroke:#000000;stroke-linejoin:miter;stroke-opacity:0.8;" x="235.048755" xlink:href="#m1b24286af4" y="180.19647"/>
     <use style="fill:#ff8c00;fill-opacity:0.8;stroke:#000000;stroke-linejoin:miter;stroke-opacity:0.8;" x="241.471877" xlink:href="#m1b24286af4" y="187.408944"/>
     <use style="fill:#ff8c00;fill-opacity:0.8;stroke:#000000;stroke-linejoin:miter;stroke-opacity:0.8;" x="247.895" xlink:href="#m1b24286af4" y="185.324555"/>
     <use style="fill:#ff8c00;fill-opacity:0.8;stroke:#000000;stroke-linejoin:miter;stroke-opacity:0.8;" x="254.318123" xlink:href="#m1b24286af4" y="183.830317"/>
     <use style="fill:#ff8c00;fill-opacity:0.8;stroke:#000000;stroke-linejoin:miter;stroke-opacity:0.8;" x="260.741245" xlink:href="#m1b24286af4" y="183.659889"/>
     <use style="fill:#ff8c00;fill-opacity:0.8;stroke:#000000;stroke-linejoin:miter;stroke-opacity:0.8;" x="267.164368" xlink:href="#m1b24286af4" y="190.470326"/>
     <use style="fill:#ff8c00;fill-opacity:0.8;stroke:#000000;stroke-linejoin:miter;stroke-opacity:0.8;" x="273.58749" xlink:href="#m1b24286af4" y="190.891953"/>
     <use style="fill:#ff8c00;fill-opacity:0.8;stroke:#000000;stroke-linejoin:miter;stroke-opacity:0.8;" x="280.010613" xlink:href="#m1b24286af4" y="192.665118"/>
     <use style="fill:#ff8c00;fill-opacity:0.8;stroke:#000000;stroke-linejoin:miter;stroke-opacity:0.8;" x="286.433735" xlink:href="#m1b24286af4" y="191.368809"/>
     <use style="fill:#ff8c00;fill-opacity:0.8;stroke:#000000;stroke-linejoin:miter;stroke-opacity:0.8;" x="292.856858" xlink:href="#m1b24286af4" y="187.416155"/>
     <use style="fill:#ff8c00;fill-opacity:0.8;stroke:#000000;stroke-linejoin:miter;stroke-opacity:0.8;" x="299.27998" xlink:href="#m1b24286af4" y="189.478907"/>
     <use style="fill:#ff8c00;fill-opacity:0.8;stroke:#000000;stroke-linejoin:miter;stroke-opacity:0.8;" x="305.703103" xlink:href="#m1b24286af4" y="183.035546"/>
     <use style="fill:#ff8c00;fill-opacity:0.8;stroke:#000000;stroke-linejoin:miter;stroke-opacity:0.8;" x="312.126225" xlink:href="#m1b24286af4" y="190.468527"/>
     <use style="fill:#ff8c00;fill-opacity:0.8;stroke:#000000;stroke-linejoin:miter;stroke-opacity:0.8;" x="318.549348" xlink:href="#m1b24286af4" y="188.281828"/>
     <use style="fill:#ff8c00;fill-opacity:0.8;stroke:#000000;stroke-linejoin:miter;stroke-opacity:0.8;" x="324.97247" xlink:href="#m1b24286af4" y="186.964649"/>
     <use style="fill:#ff8c00;fill-opacity:0.8;stroke:#000000;stroke-linejoin:miter;stroke-opacity:0.8;" x="331.395593" xlink:href="#m1b24286af4" y="194.407522"/>
     <use style="fill:#ff8c00;fill-opacity:0.8;stroke:#000000;stroke-linejoin:miter;stroke-opacity:0.8;" x="337.818715" xlink:href="#m1b24286af4" y="173.135716"/>
     <use style="fill:#ff8c00;fill-opacity:0.8;stroke:#000000;stroke-linejoin:miter;stroke-opacity:0.8;" x="344.241838" xlink:href="#m1b24286af4" y="192.088512"/>
     <use style="fill:#ff8c00;fill-opacity:0.8;stroke:#000000;stroke-linejoin:miter;stroke-opacity:0.8;" x="350.66496" xlink:href="#m1b24286af4" y="182.285842"/>
     <use style="fill:#ff8c00;fill-opacity:0.8;stroke:#000000;stroke-linejoin:miter;stroke-opacity:0.8;" x="357.088083" xlink:href="#m1b24286af4" y="178.781873"/>
     <use style="fill:#ff8c00;fill-opacity:0.8;stroke:#000000;stroke-linejoin:miter;stroke-opacity:0.8;" x="363.511206" xlink:href="#m1b24286af4" y="183.275982"/>
     <use style="fill:#ff8c00;fill-opacity:0.8;stroke:#000000;stroke-linejoin:miter;stroke-opacity:0.8;" x="369.934328" xlink:href="#m1b24286af4" y="190.347908"/>
     <use style="fill:#ff8c00;fill-opacity:0.8;stroke:#000000;stroke-linejoin:miter;stroke-opacity:0.8;" x="376.357451" xlink:href="#m1b24286af4" y="188.077968"/>
     <use style="fill:#ff8c00;fill-opacity:0.8;stroke:#000000;stroke-linejoin:miter;stroke-opacity:0.8;" x="382.780573" xlink:href="#m1b24286af4" y="179.894003"/>
     <use style="fill:#ff8c00;fill-opacity:0.8;stroke:#000000;stroke-linejoin:miter;stroke-opacity:0.8;" x="389.203696" xlink:href="#m1b24286af4" y="189.376077"/>
     <use style="fill:#ff8c00;fill-opacity:0.8;stroke:#000000;stroke-linejoin:miter;stroke-opacity:0.8;" x="395.626818" xlink:href="#m1b24286af4" y="184.129796"/>
    </g>
   </g>
   <g id="line2d_10">
    <path clip-path="url(#p82f921256f)" d="M 100.163182 153.918119 
L 106.586304 164.169498 
L 113.009427 167.855742 
L 119.432549 152.539371 
L 125.855672 171.082741 
L 132.278794 175.819098 
L 138.701917 171.635369 
L 145.12504 174.644779 
L 151.548162 166.846961 
L 157.971285 174.319303 
L 164.394407 165.88294 
L 170.81753 188.532156 
L 177.240652 162.950668 
L 183.663775 187.884001 
L 190.086897 183.184844 
L 196.51002 181.564339 
L 202.933142 188.603704 
L 209.356265 190.922714 
L 215.779387 186.964649 
L 222.20251 188.823791 
L 228.625632 177.680413 
L 235.048755 180.19647 
L 241.471877 187.408944 
L 247.895 185.324555 
L 254.318123 183.830317 
L 260.741245 183.659889 
L 267.164368 190.470326 
L 273.58749 190.891953 
L 280.010613 192.665118 
L 286.433735 191.368809 
L 292.856858 187.416155 
L 299.27998 189.478907 
L 305.703103 183.035546 
L 312.126225 190.468527 
L 318.549348 188.281828 
L 324.97247 186.964649 
L 331.395593 194.407522 
L 337.818715 173.135716 
L 344.241838 192.088512 
L 350.66496 182.285842 
L 357.088083 178.781873 
L 363.511206 183.275982 
L 369.934328 190.347908 
L 376.357451 188.077968 
L 382.780573 179.894003 
L 389.203696 189.376077 
L 395.626818 184.129796 
" style="fill:none;stroke:#ff8c00;stroke-linecap:square;stroke-width:0.7;"/>
   </g>
   <g id="line2d_11">
    <path clip-path="url(#p82f921256f)" d="M 100.163182 174.635 
L 106.586304 182.229528 
L 113.009427 185.969198 
L 119.432549 171.361574 
L 125.855672 188.386827 
L 132.278794 191.3488 
L 138.701917 189.402708 
L 145.12504 191.353595 
L 151.548162 183.954662 
L 157.971285 188.918637 
L 164.394407 184.994439 
L 170.81753 199.530922 
L 177.240652 181.701373 
L 183.663775 199.326554 
L 190.086897 197.105749 
L 196.51002 194.92549 
L 202.933142 199.508601 
L 209.356265 200.948532 
L 215.779387 198.87951 
L 222.20251 200.247762 
L 228.625632 191.901811 
L 235.048755 194.201626 
L 241.471877 198.952035 
L 247.895 197.82549 
L 254.318123 197.501884 
L 260.741245 197.374449 
L 267.164368 201.58605 
L 273.58749 200.592403 
L 280.010613 202.142054 
L 286.433735 201.862777 
L 292.856858 199.263236 
L 299.27998 200.227614 
L 305.703103 196.079087 
L 312.126225 200.719967 
L 318.549348 199.429017 
L 324.97247 198.87951 
L 331.395593 203.288182 
L 337.818715 189.311178 
L 344.241838 201.983391 
L 350.66496 195.899634 
L 357.088083 193.272682 
L 363.511206 196.030418 
L 369.934328 201.617368 
L 376.357451 199.278928 
L 382.780573 194.281067 
L 389.203696 200.509684 
L 395.626818 197.179237 
" style="fill:none;stroke:#ff8c00;stroke-dasharray:1.85,0.8;stroke-dashoffset:0;stroke-width:0.5;"/>
   </g>
   <g id="line2d_12">
    <path clip-path="url(#p82f921256f)" d="M 100.163182 133.201238 
L 106.586304 146.109468 
L 113.009427 149.742287 
L 119.432549 133.717168 
L 125.855672 153.778656 
L 132.278794 160.289396 
L 138.701917 153.868029 
L 145.12504 157.935964 
L 151.548162 149.739259 
L 157.971285 159.71997 
L 164.394407 146.771441 
L 170.81753 177.533389 
L 177.240652 144.199963 
L 183.663775 176.441448 
L 190.086897 169.26394 
L 196.51002 168.203188 
L 202.933142 177.698807 
L 209.356265 180.896896 
L 215.779387 175.049789 
L 222.20251 177.399819 
L 228.625632 163.459014 
L 235.048755 166.191313 
L 241.471877 175.865854 
L 247.895 172.823621 
L 254.318123 170.158751 
L 260.741245 169.945329 
L 267.164368 179.354603 
L 273.58749 181.191503 
L 280.010613 183.188182 
L 286.433735 180.874841 
L 292.856858 175.569075 
L 299.27998 178.730199 
L 305.703103 169.992005 
L 312.126225 180.217086 
L 318.549348 177.134638 
L 324.97247 175.049789 
L 331.395593 185.526863 
L 337.818715 156.960254 
L 344.241838 182.193633 
L 350.66496 168.67205 
L 357.088083 164.291064 
L 363.511206 170.521545 
L 369.934328 179.078447 
L 376.357451 176.877008 
L 382.780573 165.50694 
L 389.203696 178.24247 
L 395.626818 171.080354 
" style="fill:none;stroke:#ff8c00;stroke-dasharray:1.85,0.8;stroke-dashoffset:0;stroke-width:0.5;"/>
   </g>
   <g id="line2d_13">
    <path clip-path="url(#p82f921256f)" d="M 100.163182 56.040677 
L 106.586304 133.395563 
L 113.009427 135.025452 
L 119.432549 151.700849 
L 125.855672 124.82443 
L 132.278794 148.40675 
L 138.701917 131.408604 
L 145.12504 137.850684 
L 151.548162 156.467955 
L 157.971285 181.166501 
L 164.394407 129.550125 
L 170.81753 136.514199 
L 177.240652 121.751766 
L 183.663775 153.549233 
L 190.086897 124.988296 
L 196.51002 138.652503 
L 202.933142 112.028476 
L 209.356265 124.917534 
L 215.779387 149.027143 
L 222.20251 159.687247 
L 228.625632 154.747281 
L 235.048755 180.741795 
L 241.471877 158.895443 
L 247.895 146.438994 
L 254.318123 154.483212 
L 260.741245 166.003039 
L 267.164368 145.150167 
L 273.58749 123.541013 
L 280.010613 149.878105 
L 286.433735 135.90734 
L 292.856858 138.61189 
L 299.27998 159.135733 
L 305.703103 174.115265 
L 312.126225 141.906405 
L 318.549348 147.437722 
L 324.97247 160.948925 
L 331.395593 138.19669 
L 337.818715 137.261821 
L 344.241838 152.768207 
L 350.66496 153.427023 
L 357.088083 167.794323 
L 363.511206 154.469554 
L 369.934328 157.712363 
L 376.357451 142.085185 
L 382.780573 149.859206 
L 389.203696 152.048067 
L 395.626818 174.71326 
" style="fill:none;stroke:#808080;stroke-linecap:square;stroke-opacity:0.8;stroke-width:0.7;"/>
    <defs>
     <path d="M 0 -2.5 
L -2.5 2.5 
L 2.5 2.5 
z
" id="m5a26c4d779" style="stroke:#000000;stroke-linejoin:miter;stroke-opacity:0.8;"/>
    </defs>
    <g clip-path="url(#p82f921256f)">
     <use style="fill:#808080;fill-opacity:0.8;stroke:#000000;stroke-linejoin:miter;stroke-opacity:0.8;" x="100.163182" xlink:href="#m5a26c4d779" y="56.040677"/>
     <use style="fill:#808080;fill-opacity:0.8;stroke:#000000;stroke-linejoin:miter;stroke-opacity:0.8;" x="106.586304" xlink:href="#m5a26c4d779" y="133.395563"/>
     <use style="fill:#808080;fill-opacity:0.8;stroke:#000000;stroke-linejoin:miter;stroke-opacity:0.8;" x="113.009427" xlink:href="#m5a26c4d779" y="135.025452"/>
     <use style="fill:#808080;fill-opacity:0.8;stroke:#000000;stroke-linejoin:miter;stroke-opacity:0.8;" x="119.432549" xlink:href="#m5a26c4d779" y="151.700849"/>
     <use style="fill:#808080;fill-opacity:0.8;stroke:#000000;stroke-linejoin:miter;stroke-opacity:0.8;" x="125.855672" xlink:href="#m5a26c4d779" y="124.82443"/>
     <use style="fill:#808080;fill-opacity:0.8;stroke:#000000;stroke-linejoin:miter;stroke-opacity:0.8;" x="132.278794" xlink:href="#m5a26c4d779" y="148.40675"/>
     <use style="fill:#808080;fill-opacity:0.8;stroke:#000000;stroke-linejoin:miter;stroke-opacity:0.8;" x="138.701917" xlink:href="#m5a26c4d779" y="131.408604"/>
     <use style="fill:#808080;fill-opacity:0.8;stroke:#000000;stroke-linejoin:miter;stroke-opacity:0.8;" x="145.12504" xlink:href="#m5a26c4d779" y="137.850684"/>
     <use style="fill:#808080;fill-opacity:0.8;stroke:#000000;stroke-linejoin:miter;stroke-opacity:0.8;" x="151.548162" xlink:href="#m5a26c4d779" y="156.467955"/>
     <use style="fill:#808080;fill-opacity:0.8;stroke:#000000;stroke-linejoin:miter;stroke-opacity:0.8;" x="157.971285" xlink:href="#m5a26c4d779" y="181.166501"/>
     <use style="fill:#808080;fill-opacity:0.8;stroke:#000000;stroke-linejoin:miter;stroke-opacity:0.8;" x="164.394407" xlink:href="#m5a26c4d779" y="129.550125"/>
     <use style="fill:#808080;fill-opacity:0.8;stroke:#000000;stroke-linejoin:miter;stroke-opacity:0.8;" x="170.81753" xlink:href="#m5a26c4d779" y="136.514199"/>
     <use style="fill:#808080;fill-opacity:0.8;stroke:#000000;stroke-linejoin:miter;stroke-opacity:0.8;" x="177.240652" xlink:href="#m5a26c4d779" y="121.751766"/>
     <use style="fill:#808080;fill-opacity:0.8;stroke:#000000;stroke-linejoin:miter;stroke-opacity:0.8;" x="183.663775" xlink:href="#m5a26c4d779" y="153.549233"/>
     <use style="fill:#808080;fill-opacity:0.8;stroke:#000000;stroke-linejoin:miter;stroke-opacity:0.8;" x="190.086897" xlink:href="#m5a26c4d779" y="124.988296"/>
     <use style="fill:#808080;fill-opacity:0.8;stroke:#000000;stroke-linejoin:miter;stroke-opacity:0.8;" x="196.51002" xlink:href="#m5a26c4d779" y="138.652503"/>
     <use style="fill:#808080;fill-opacity:0.8;stroke:#000000;stroke-linejoin:miter;stroke-opacity:0.8;" x="202.933142" xlink:href="#m5a26c4d779" y="112.028476"/>
     <use style="fill:#808080;fill-opacity:0.8;stroke:#000000;stroke-linejoin:miter;stroke-opacity:0.8;" x="209.356265" xlink:href="#m5a26c4d779" y="124.917534"/>
     <use style="fill:#808080;fill-opacity:0.8;stroke:#000000;stroke-linejoin:miter;stroke-opacity:0.8;" x="215.779387" xlink:href="#m5a26c4d779" y="149.027143"/>
     <use style="fill:#808080;fill-opacity:0.8;stroke:#000000;stroke-linejoin:miter;stroke-opacity:0.8;" x="222.20251" xlink:href="#m5a26c4d779" y="159.687247"/>
     <use style="fill:#808080;fill-opacity:0.8;stroke:#000000;stroke-linejoin:miter;stroke-opacity:0.8;" x="228.625632" xlink:href="#m5a26c4d779" y="154.747281"/>
     <use style="fill:#808080;fill-opacity:0.8;stroke:#000000;stroke-linejoin:miter;stroke-opacity:0.8;" x="235.048755" xlink:href="#m5a26c4d779" y="180.741795"/>
     <use style="fill:#808080;fill-opacity:0.8;stroke:#000000;stroke-linejoin:miter;stroke-opacity:0.8;" x="241.471877" xlink:href="#m5a26c4d779" y="158.895443"/>
     <use style="fill:#808080;fill-opacity:0.8;stroke:#000000;stroke-linejoin:miter;stroke-opacity:0.8;" x="247.895" xlink:href="#m5a26c4d779" y="146.438994"/>
     <use style="fill:#808080;fill-opacity:0.8;stroke:#000000;stroke-linejoin:miter;stroke-opacity:0.8;" x="254.318123" xlink:href="#m5a26c4d779" y="154.483212"/>
     <use style="fill:#808080;fill-opacity:0.8;stroke:#000000;stroke-linejoin:miter;stroke-opacity:0.8;" x="260.741245" xlink:href="#m5a26c4d779" y="166.003039"/>
     <use style="fill:#808080;fill-opacity:0.8;stroke:#000000;stroke-linejoin:miter;stroke-opacity:0.8;" x="267.164368" xlink:href="#m5a26c4d779" y="145.150167"/>
     <use style="fill:#808080;fill-opacity:0.8;stroke:#000000;stroke-linejoin:miter;stroke-opacity:0.8;" x="273.58749" xlink:href="#m5a26c4d779" y="123.541013"/>
     <use style="fill:#808080;fill-opacity:0.8;stroke:#000000;stroke-linejoin:miter;stroke-opacity:0.8;" x="280.010613" xlink:href="#m5a26c4d779" y="149.878105"/>
     <use style="fill:#808080;fill-opacity:0.8;stroke:#000000;stroke-linejoin:miter;stroke-opacity:0.8;" x="286.433735" xlink:href="#m5a26c4d779" y="135.90734"/>
     <use style="fill:#808080;fill-opacity:0.8;stroke:#000000;stroke-linejoin:miter;stroke-opacity:0.8;" x="292.856858" xlink:href="#m5a26c4d779" y="138.61189"/>
     <use style="fill:#808080;fill-opacity:0.8;stroke:#000000;stroke-linejoin:miter;stroke-opacity:0.8;" x="299.27998" xlink:href="#m5a26c4d779" y="159.135733"/>
     <use style="fill:#808080;fill-opacity:0.8;stroke:#000000;stroke-linejoin:miter;stroke-opacity:0.8;" x="305.703103" xlink:href="#m5a26c4d779" y="174.115265"/>
     <use style="fill:#808080;fill-opacity:0.8;stroke:#000000;stroke-linejoin:miter;stroke-opacity:0.8;" x="312.126225" xlink:href="#m5a26c4d779" y="141.906405"/>
     <use style="fill:#808080;fill-opacity:0.8;stroke:#000000;stroke-linejoin:miter;stroke-opacity:0.8;" x="318.549348" xlink:href="#m5a26c4d779" y="147.437722"/>
     <use style="fill:#808080;fill-opacity:0.8;stroke:#000000;stroke-linejoin:miter;stroke-opacity:0.8;" x="324.97247" xlink:href="#m5a26c4d779" y="160.948925"/>
     <use style="fill:#808080;fill-opacity:0.8;stroke:#000000;stroke-linejoin:miter;stroke-opacity:0.8;" x="331.395593" xlink:href="#m5a26c4d779" y="138.19669"/>
     <use style="fill:#808080;fill-opacity:0.8;stroke:#000000;stroke-linejoin:miter;stroke-opacity:0.8;" x="337.818715" xlink:href="#m5a26c4d779" y="137.261821"/>
     <use style="fill:#808080;fill-opacity:0.8;stroke:#000000;stroke-linejoin:miter;stroke-opacity:0.8;" x="344.241838" xlink:href="#m5a26c4d779" y="152.768207"/>
     <use style="fill:#808080;fill-opacity:0.8;stroke:#000000;stroke-linejoin:miter;stroke-opacity:0.8;" x="350.66496" xlink:href="#m5a26c4d779" y="153.427023"/>
     <use style="fill:#808080;fill-opacity:0.8;stroke:#000000;stroke-linejoin:miter;stroke-opacity:0.8;" x="357.088083" xlink:href="#m5a26c4d779" y="167.794323"/>
     <use style="fill:#808080;fill-opacity:0.8;stroke:#000000;stroke-linejoin:miter;stroke-opacity:0.8;" x="363.511206" xlink:href="#m5a26c4d779" y="154.469554"/>
     <use style="fill:#808080;fill-opacity:0.8;stroke:#000000;stroke-linejoin:miter;stroke-opacity:0.8;" x="369.934328" xlink:href="#m5a26c4d779" y="157.712363"/>
     <use style="fill:#808080;fill-opacity:0.8;stroke:#000000;stroke-linejoin:miter;stroke-opacity:0.8;" x="376.357451" xlink:href="#m5a26c4d779" y="142.085185"/>
     <use style="fill:#808080;fill-opacity:0.8;stroke:#000000;stroke-linejoin:miter;stroke-opacity:0.8;" x="382.780573" xlink:href="#m5a26c4d779" y="149.859206"/>
     <use style="fill:#808080;fill-opacity:0.8;stroke:#000000;stroke-linejoin:miter;stroke-opacity:0.8;" x="389.203696" xlink:href="#m5a26c4d779" y="152.048067"/>
     <use style="fill:#808080;fill-opacity:0.8;stroke:#000000;stroke-linejoin:miter;stroke-opacity:0.8;" x="395.626818" xlink:href="#m5a26c4d779" y="174.71326"/>
    </g>
   </g>
   <g id="line2d_14">
    <path clip-path="url(#p82f921256f)" d="M 100.163182 56.040677 
L 106.586304 133.395563 
L 113.009427 135.025452 
L 119.432549 151.700849 
L 125.855672 124.82443 
L 132.278794 148.40675 
L 138.701917 131.408604 
L 145.12504 137.850684 
L 151.548162 156.467955 
L 157.971285 181.166501 
L 164.394407 129.550125 
L 170.81753 136.514199 
L 177.240652 121.751766 
L 183.663775 153.549233 
L 190.086897 124.988296 
L 196.51002 138.652503 
L 202.933142 112.028476 
L 209.356265 124.917534 
L 215.779387 149.027143 
L 222.20251 159.687247 
L 228.625632 154.747281 
L 235.048755 180.741795 
L 241.471877 158.895443 
L 247.895 146.438994 
L 254.318123 154.483212 
L 260.741245 166.003039 
L 267.164368 145.150167 
L 273.58749 123.541013 
L 280.010613 149.878105 
L 286.433735 135.90734 
L 292.856858 138.61189 
L 299.27998 159.135733 
L 305.703103 174.115265 
L 312.126225 141.906405 
L 318.549348 147.437722 
L 324.97247 160.948925 
L 331.395593 138.19669 
L 337.818715 137.261821 
L 344.241838 152.768207 
L 350.66496 153.427023 
L 357.088083 167.794323 
L 363.511206 154.469554 
L 369.934328 157.712363 
L 376.357451 142.085185 
L 382.780573 149.859206 
L 389.203696 152.048067 
L 395.626818 174.71326 
" style="fill:none;stroke:#808080;stroke-linecap:square;stroke-width:0.7;"/>
   </g>
   <g id="line2d_15">
    <path clip-path="url(#p82f921256f)" d="M 100.163182 81.829536 
L 106.586304 155.483953 
L 113.009427 158.047676 
L 119.432549 171.806492 
L 125.855672 149.499959 
L 132.278794 168.262824 
L 138.701917 153.967626 
L 145.12504 159.841658 
L 151.548162 174.197232 
L 157.971285 195.847079 
L 164.394407 153.486682 
L 170.81753 158.136289 
L 177.240652 146.283357 
L 183.663775 175.627298 
L 190.086897 150.795068 
L 196.51002 162.808808 
L 202.933142 138.745246 
L 209.356265 150.117104 
L 215.779387 168.751857 
L 222.20251 178.214129 
L 228.625632 173.866659 
L 235.048755 194.70365 
L 241.471877 178.776667 
L 247.895 168.043114 
L 254.318123 173.595315 
L 260.741245 182.978813 
L 267.164368 167.030876 
L 273.58749 147.734954 
L 280.010613 171.623299 
L 286.433735 158.860646 
L 292.856858 161.526634 
L 299.27998 177.006792 
L 305.703103 189.892341 
L 312.126225 164.346023 
L 318.549348 169.563534 
L 324.97247 179.260712 
L 331.395593 161.511759 
L 337.818715 159.490049 
L 344.241838 173.239826 
L 350.66496 172.508553 
L 357.088083 184.894645 
L 363.511206 173.709948 
L 369.934328 177.310321 
L 376.357451 163.540988 
L 382.780573 170.306425 
L 389.203696 172.433238 
L 395.626818 189.913151 
" style="fill:none;stroke:#808080;stroke-dasharray:1.85,0.8;stroke-dashoffset:0;stroke-width:0.5;"/>
   </g>
   <g id="line2d_16">
    <path clip-path="url(#p82f921256f)" d="M 100.163182 30.251818 
L 106.586304 111.307173 
L 113.009427 112.003228 
L 119.432549 131.595206 
L 125.855672 100.148901 
L 132.278794 128.550675 
L 138.701917 108.849582 
L 145.12504 115.85971 
L 151.548162 138.738678 
L 157.971285 166.485923 
L 164.394407 105.613568 
L 170.81753 114.892109 
L 177.240652 97.220175 
L 183.663775 131.471168 
L 190.086897 99.181523 
L 196.51002 114.496199 
L 202.933142 85.311705 
L 209.356265 99.717964 
L 215.779387 129.302429 
L 222.20251 141.160366 
L 228.625632 135.627902 
L 235.048755 166.779939 
L 241.471877 139.014219 
L 247.895 124.834874 
L 254.318123 135.371108 
L 260.741245 149.027266 
L 267.164368 123.269457 
L 273.58749 99.347072 
L 280.010613 128.132912 
L 286.433735 112.954033 
L 292.856858 115.697146 
L 299.27998 141.264674 
L 305.703103 158.338189 
L 312.126225 119.466787 
L 318.549348 125.311911 
L 324.97247 142.637138 
L 331.395593 114.88162 
L 337.818715 115.033594 
L 344.241838 132.296589 
L 350.66496 134.345492 
L 357.088083 150.694001 
L 363.511206 135.22916 
L 369.934328 138.114405 
L 376.357451 120.629381 
L 382.780573 129.411987 
L 389.203696 131.662896 
L 395.626818 159.513369 
" style="fill:none;stroke:#808080;stroke-dasharray:1.85,0.8;stroke-dashoffset:0;stroke-width:0.5;"/>
   </g>
   <g id="patch_3">
    <path d="M 85.39 211.94 
L 85.39 21.6 
" style="fill:none;stroke:#000000;stroke-linecap:square;stroke-linejoin:miter;stroke-width:0.8;"/>
   </g>
   <g id="patch_4">
    <path d="M 85.39 211.94 
L 410.4 211.94 
" style="fill:none;stroke:#000000;stroke-linecap:square;stroke-linejoin:miter;stroke-width:0.8;"/>
   </g>
   <g id="legend_1">
    <g id="patch_5">
     <path d="M 99.39 94.63125 
L 246.755625 94.63125 
Q 250.755625 94.63125 250.755625 90.63125 
L 250.755625 35.6 
Q 250.755625 31.6 246.755625 31.6 
L 99.39 31.6 
Q 95.39 31.6 95.39 35.6 
L 95.39 90.63125 
Q 95.39 94.63125 99.39 94.63125 
z
" style="fill:#ffffff;opacity:0.8;stroke:#cccccc;stroke-linejoin:miter;"/>
    </g>
    <g id="line2d_17">
     <path d="M 103.39 46.946875 
L 143.39 46.946875 
" style="fill:none;stroke:#ff8c00;stroke-linecap:square;stroke-opacity:0.8;stroke-width:0.7;"/>
    </g>
    <g id="line2d_18">
     <g>
      <use style="fill:#ff8c00;fill-opacity:0.8;stroke:#000000;stroke-linejoin:miter;stroke-opacity:0.8;" x="123.39" xlink:href="#m1b24286af4" y="46.946875"/>
     </g>
    </g>
    <g id="text_11">
     <!-- Class 0.0 -->
     <g transform="translate(159.39 53.946875)scale(0.2 -0.2)">
      <defs>
       <path d="M 2422 4716 
Q 3294 4716 3775 4256 
Q 4256 3797 4309 3213 
L 3703 3213 
Q 3600 3656 3292 3915 
Q 2984 4175 2428 4175 
Q 1750 4175 1333 3698 
Q 916 3222 916 2238 
Q 916 1431 1292 929 
Q 1669 428 2416 428 
Q 3103 428 3463 956 
Q 3653 1234 3747 1688 
L 4353 1688 
Q 4272 963 3816 472 
Q 3269 -119 2341 -119 
Q 1541 -119 997 366 
Q 281 1006 281 2344 
Q 281 3359 819 4009 
Q 1400 4716 2422 4716 
z
M 2297 4716 
L 2297 4716 
z
" id="Helvetica-43" transform="scale(0.015625)"/>
       <path d="M 428 4591 
L 991 4591 
L 991 0 
L 428 0 
L 428 4591 
z
" id="Helvetica-6c" transform="scale(0.015625)"/>
      </defs>
      <use xlink:href="#Helvetica-43"/>
      <use x="72.216797" xlink:href="#Helvetica-6c"/>
      <use x="94.433594" xlink:href="#Helvetica-61"/>
      <use x="150.048828" xlink:href="#Helvetica-73"/>
      <use x="200.048828" xlink:href="#Helvetica-73"/>
      <use x="250.048828" xlink:href="#Helvetica-20"/>
      <use x="277.832031" xlink:href="#Helvetica-30"/>
      <use x="333.447266" xlink:href="#Helvetica-2e"/>
      <use x="361.230469" xlink:href="#Helvetica-30"/>
     </g>
    </g>
    <g id="line2d_19">
     <path d="M 103.39 75.4625 
L 143.39 75.4625 
" style="fill:none;stroke:#808080;stroke-linecap:square;stroke-opacity:0.8;stroke-width:0.7;"/>
    </g>
    <g id="line2d_20">
     <g>
      <use style="fill:#808080;fill-opacity:0.8;stroke:#000000;stroke-linejoin:miter;stroke-opacity:0.8;" x="123.39" xlink:href="#m5a26c4d779" y="75.4625"/>
     </g>
    </g>
    <g id="text_12">
     <!-- Class 1.0 -->
     <g transform="translate(159.39 82.4625)scale(0.2 -0.2)">
      <use xlink:href="#Helvetica-43"/>
      <use x="72.216797" xlink:href="#Helvetica-6c"/>
      <use x="94.433594" xlink:href="#Helvetica-61"/>
      <use x="150.048828" xlink:href="#Helvetica-73"/>
      <use x="200.048828" xlink:href="#Helvetica-73"/>
      <use x="250.048828" xlink:href="#Helvetica-20"/>
      <use x="277.832031" xlink:href="#Helvetica-31"/>
      <use x="333.447266" xlink:href="#Helvetica-2e"/>
      <use x="361.230469" xlink:href="#Helvetica-30"/>
     </g>
    </g>
   </g>
  </g>
 </g>
 <defs>
  <clipPath id="p82f921256f">
   <rect height="190.34" width="325.01" x="85.39" y="21.6"/>
  </clipPath>
 </defs>
</svg>
