<?xml version="1.0" encoding="utf-8" standalone="no"?>
<!DOCTYPE svg PUBLIC "-//W3C//DTD SVG 1.1//EN"
  "http://www.w3.org/Graphics/SVG/1.1/DTD/svg11.dtd">
<svg height="144pt" version="1.1" viewBox="0 0 144 144" width="144pt" xmlns="http://www.w3.org/2000/svg" xmlns:xlink="http://www.w3.org/1999/xlink">
 <metadata>
  <rdf:RDF xmlns:cc="http://creativecommons.org/ns#" xmlns:dc="http://purl.org/dc/elements/1.1/" xmlns:rdf="http://www.w3.org/1999/02/22-rdf-syntax-ns#">
   <cc:Work>
    <dc:type rdf:resource="http://purl.org/dc/dcmitype/StillImage"/>
    <dc:date>2022-12-16T20:07:55.573438</dc:date>
    <dc:format>image/svg+xml</dc:format>
    <dc:creator>
     <cc:Agent>
      <dc:title>Matplotlib v3.4.2, https://matplotlib.org/</dc:title>
     </cc:Agent>
    </dc:creator>
   </cc:Work>
  </rdf:RDF>
 </metadata>
 <defs>
  <style type="text/css">*{stroke-linecap:butt;stroke-linejoin:round;}</style>
 </defs>
 <g id="figure_1">
  <g id="patch_1">
   <path d="M 0 144 
L 144 144 
L 144 0 
L 0 0 
z
" style="fill:#ffffff;"/>
  </g>
  <g id="axes_1">
   <g id="patch_2">
    <path d="M 18 128.16 
L 129.6 128.16 
L 129.6 17.28 
L 18 17.28 
z
" style="fill:#ffffff;"/>
   </g>
   <g id="matplotlib.axis_1">
    <g id="xtick_1">
     <g id="text_1">
      <!-- Original -->
      <g style="fill:#262626;" transform="translate(51.08125 204.0725)rotate(-90)scale(0.2 -0.2)">
       <defs>
        <path d="M 309 2231 
Q 309 3372 921 4017 
Q 1534 4663 2503 4663 
Q 3138 4663 3647 4359 
Q 4156 4056 4423 3514 
Q 4691 2972 4691 2284 
Q 4691 1588 4409 1038 
Q 4128 488 3612 205 
Q 3097 -78 2500 -78 
Q 1853 -78 1343 234 
Q 834 547 571 1087 
Q 309 1628 309 2231 
z
M 934 2222 
Q 934 1394 1379 917 
Q 1825 441 2497 441 
Q 3181 441 3623 922 
Q 4066 1403 4066 2288 
Q 4066 2847 3877 3264 
Q 3688 3681 3323 3911 
Q 2959 4141 2506 4141 
Q 1863 4141 1398 3698 
Q 934 3256 934 2222 
z
" id="ArialMT-4f" transform="scale(0.015625)"/>
        <path d="M 416 0 
L 416 3319 
L 922 3319 
L 922 2816 
Q 1116 3169 1280 3281 
Q 1444 3394 1641 3394 
Q 1925 3394 2219 3213 
L 2025 2691 
Q 1819 2813 1613 2813 
Q 1428 2813 1281 2702 
Q 1134 2591 1072 2394 
Q 978 2094 978 1738 
L 978 0 
L 416 0 
z
" id="ArialMT-72" transform="scale(0.015625)"/>
        <path d="M 425 3934 
L 425 4581 
L 988 4581 
L 988 3934 
L 425 3934 
z
M 425 0 
L 425 3319 
L 988 3319 
L 988 0 
L 425 0 
z
" id="ArialMT-69" transform="scale(0.015625)"/>
        <path d="M 319 -275 
L 866 -356 
Q 900 -609 1056 -725 
Q 1266 -881 1628 -881 
Q 2019 -881 2231 -725 
Q 2444 -569 2519 -288 
Q 2563 -116 2559 434 
Q 2191 0 1641 0 
Q 956 0 581 494 
Q 206 988 206 1678 
Q 206 2153 378 2554 
Q 550 2956 876 3175 
Q 1203 3394 1644 3394 
Q 2231 3394 2613 2919 
L 2613 3319 
L 3131 3319 
L 3131 450 
Q 3131 -325 2973 -648 
Q 2816 -972 2473 -1159 
Q 2131 -1347 1631 -1347 
Q 1038 -1347 672 -1080 
Q 306 -813 319 -275 
z
M 784 1719 
Q 784 1066 1043 766 
Q 1303 466 1694 466 
Q 2081 466 2343 764 
Q 2606 1063 2606 1700 
Q 2606 2309 2336 2618 
Q 2066 2928 1684 2928 
Q 1309 2928 1046 2623 
Q 784 2319 784 1719 
z
" id="ArialMT-67" transform="scale(0.015625)"/>
        <path d="M 422 0 
L 422 3319 
L 928 3319 
L 928 2847 
Q 1294 3394 1984 3394 
Q 2284 3394 2536 3286 
Q 2788 3178 2913 3003 
Q 3038 2828 3088 2588 
Q 3119 2431 3119 2041 
L 3119 0 
L 2556 0 
L 2556 2019 
Q 2556 2363 2490 2533 
Q 2425 2703 2258 2804 
Q 2091 2906 1866 2906 
Q 1506 2906 1245 2678 
Q 984 2450 984 1813 
L 984 0 
L 422 0 
z
" id="ArialMT-6e" transform="scale(0.015625)"/>
        <path d="M 2588 409 
Q 2275 144 1986 34 
Q 1697 -75 1366 -75 
Q 819 -75 525 192 
Q 231 459 231 875 
Q 231 1119 342 1320 
Q 453 1522 633 1644 
Q 813 1766 1038 1828 
Q 1203 1872 1538 1913 
Q 2219 1994 2541 2106 
Q 2544 2222 2544 2253 
Q 2544 2597 2384 2738 
Q 2169 2928 1744 2928 
Q 1347 2928 1158 2789 
Q 969 2650 878 2297 
L 328 2372 
Q 403 2725 575 2942 
Q 747 3159 1072 3276 
Q 1397 3394 1825 3394 
Q 2250 3394 2515 3294 
Q 2781 3194 2906 3042 
Q 3031 2891 3081 2659 
Q 3109 2516 3109 2141 
L 3109 1391 
Q 3109 606 3145 398 
Q 3181 191 3288 0 
L 2700 0 
Q 2613 175 2588 409 
z
M 2541 1666 
Q 2234 1541 1622 1453 
Q 1275 1403 1131 1340 
Q 988 1278 909 1158 
Q 831 1038 831 891 
Q 831 666 1001 516 
Q 1172 366 1500 366 
Q 1825 366 2078 508 
Q 2331 650 2450 897 
Q 2541 1088 2541 1459 
L 2541 1666 
z
" id="ArialMT-61" transform="scale(0.015625)"/>
        <path d="M 409 0 
L 409 4581 
L 972 4581 
L 972 0 
L 409 0 
z
" id="ArialMT-6c" transform="scale(0.015625)"/>
       </defs>
       <use xlink:href="#ArialMT-4f"/>
       <use x="77.783203" xlink:href="#ArialMT-72"/>
       <use x="111.083984" xlink:href="#ArialMT-69"/>
       <use x="133.300781" xlink:href="#ArialMT-67"/>
       <use x="188.916016" xlink:href="#ArialMT-69"/>
       <use x="211.132812" xlink:href="#ArialMT-6e"/>
       <use x="266.748047" xlink:href="#ArialMT-61"/>
       <use x="322.363281" xlink:href="#ArialMT-6c"/>
      </g>
     </g>
    </g>
    <g id="xtick_2">
     <g id="text_2">
      <!-- Mutated -->
      <g style="fill:#262626;" transform="translate(106.870312 207.419375)rotate(-90)scale(0.2 -0.2)">
       <defs>
        <path d="M 475 0 
L 475 4581 
L 1388 4581 
L 2472 1338 
Q 2622 884 2691 659 
Q 2769 909 2934 1394 
L 4031 4581 
L 4847 4581 
L 4847 0 
L 4263 0 
L 4263 3834 
L 2931 0 
L 2384 0 
L 1059 3900 
L 1059 0 
L 475 0 
z
" id="ArialMT-4d" transform="scale(0.015625)"/>
        <path d="M 2597 0 
L 2597 488 
Q 2209 -75 1544 -75 
Q 1250 -75 995 37 
Q 741 150 617 320 
Q 494 491 444 738 
Q 409 903 409 1263 
L 409 3319 
L 972 3319 
L 972 1478 
Q 972 1038 1006 884 
Q 1059 663 1231 536 
Q 1403 409 1656 409 
Q 1909 409 2131 539 
Q 2353 669 2445 892 
Q 2538 1116 2538 1541 
L 2538 3319 
L 3100 3319 
L 3100 0 
L 2597 0 
z
" id="ArialMT-75" transform="scale(0.015625)"/>
        <path d="M 1650 503 
L 1731 6 
Q 1494 -44 1306 -44 
Q 1000 -44 831 53 
Q 663 150 594 308 
Q 525 466 525 972 
L 525 2881 
L 113 2881 
L 113 3319 
L 525 3319 
L 525 4141 
L 1084 4478 
L 1084 3319 
L 1650 3319 
L 1650 2881 
L 1084 2881 
L 1084 941 
Q 1084 700 1114 631 
Q 1144 563 1211 522 
Q 1278 481 1403 481 
Q 1497 481 1650 503 
z
" id="ArialMT-74" transform="scale(0.015625)"/>
        <path d="M 2694 1069 
L 3275 997 
Q 3138 488 2766 206 
Q 2394 -75 1816 -75 
Q 1088 -75 661 373 
Q 234 822 234 1631 
Q 234 2469 665 2931 
Q 1097 3394 1784 3394 
Q 2450 3394 2872 2941 
Q 3294 2488 3294 1666 
Q 3294 1616 3291 1516 
L 816 1516 
Q 847 969 1125 678 
Q 1403 388 1819 388 
Q 2128 388 2347 550 
Q 2566 713 2694 1069 
z
M 847 1978 
L 2700 1978 
Q 2663 2397 2488 2606 
Q 2219 2931 1791 2931 
Q 1403 2931 1139 2672 
Q 875 2413 847 1978 
z
" id="ArialMT-65" transform="scale(0.015625)"/>
        <path d="M 2575 0 
L 2575 419 
Q 2259 -75 1647 -75 
Q 1250 -75 917 144 
Q 584 363 401 755 
Q 219 1147 219 1656 
Q 219 2153 384 2558 
Q 550 2963 881 3178 
Q 1213 3394 1622 3394 
Q 1922 3394 2156 3267 
Q 2391 3141 2538 2938 
L 2538 4581 
L 3097 4581 
L 3097 0 
L 2575 0 
z
M 797 1656 
Q 797 1019 1065 703 
Q 1334 388 1700 388 
Q 2069 388 2326 689 
Q 2584 991 2584 1609 
Q 2584 2291 2321 2609 
Q 2059 2928 1675 2928 
Q 1300 2928 1048 2622 
Q 797 2316 797 1656 
z
" id="ArialMT-64" transform="scale(0.015625)"/>
       </defs>
       <use xlink:href="#ArialMT-4d"/>
       <use x="83.300781" xlink:href="#ArialMT-75"/>
       <use x="138.916016" xlink:href="#ArialMT-74"/>
       <use x="166.699219" xlink:href="#ArialMT-61"/>
       <use x="222.314453" xlink:href="#ArialMT-74"/>
       <use x="250.097656" xlink:href="#ArialMT-65"/>
       <use x="305.712891" xlink:href="#ArialMT-64"/>
      </g>
     </g>
    </g>
    <g id="text_3">
     <!-- Method -->
     <g style="fill:#262626;" transform="translate(40.448437 225.735)scale(0.2 -0.2)">
      <defs>
       <path d="M 422 0 
L 422 4581 
L 984 4581 
L 984 2938 
Q 1378 3394 1978 3394 
Q 2347 3394 2619 3248 
Q 2891 3103 3008 2847 
Q 3125 2591 3125 2103 
L 3125 0 
L 2563 0 
L 2563 2103 
Q 2563 2525 2380 2717 
Q 2197 2909 1863 2909 
Q 1613 2909 1392 2779 
Q 1172 2650 1078 2428 
Q 984 2206 984 1816 
L 984 0 
L 422 0 
z
" id="ArialMT-68" transform="scale(0.015625)"/>
       <path d="M 213 1659 
Q 213 2581 725 3025 
Q 1153 3394 1769 3394 
Q 2453 3394 2887 2945 
Q 3322 2497 3322 1706 
Q 3322 1066 3130 698 
Q 2938 331 2570 128 
Q 2203 -75 1769 -75 
Q 1072 -75 642 372 
Q 213 819 213 1659 
z
M 791 1659 
Q 791 1022 1069 705 
Q 1347 388 1769 388 
Q 2188 388 2466 706 
Q 2744 1025 2744 1678 
Q 2744 2294 2464 2611 
Q 2184 2928 1769 2928 
Q 1347 2928 1069 2612 
Q 791 2297 791 1659 
z
" id="ArialMT-6f" transform="scale(0.015625)"/>
      </defs>
      <use xlink:href="#ArialMT-4d"/>
      <use x="83.300781" xlink:href="#ArialMT-65"/>
      <use x="138.916016" xlink:href="#ArialMT-74"/>
      <use x="166.699219" xlink:href="#ArialMT-68"/>
      <use x="222.314453" xlink:href="#ArialMT-6f"/>
      <use x="277.929688" xlink:href="#ArialMT-64"/>
     </g>
    </g>
   </g>
   <g id="matplotlib.axis_2">
    <g id="ytick_1">
     <g id="text_4">
      <!-- 0 -->
      <g style="fill:#262626;" transform="translate(-0.121875 121.052159)scale(0.2 -0.2)">
       <defs>
        <path d="M 266 2259 
Q 266 3072 433 3567 
Q 600 4063 929 4331 
Q 1259 4600 1759 4600 
Q 2128 4600 2406 4451 
Q 2684 4303 2865 4023 
Q 3047 3744 3150 3342 
Q 3253 2941 3253 2259 
Q 3253 1453 3087 958 
Q 2922 463 2592 192 
Q 2263 -78 1759 -78 
Q 1097 -78 719 397 
Q 266 969 266 2259 
z
M 844 2259 
Q 844 1131 1108 757 
Q 1372 384 1759 384 
Q 2147 384 2411 759 
Q 2675 1134 2675 2259 
Q 2675 3391 2411 3762 
Q 2147 4134 1753 4134 
Q 1366 4134 1134 3806 
Q 844 3388 844 2259 
z
" id="ArialMT-30" transform="scale(0.015625)"/>
       </defs>
       <use xlink:href="#ArialMT-30"/>
      </g>
     </g>
    </g>
    <g id="ytick_2">
     <g id="text_5">
      <!-- 1 -->
      <g style="fill:#262626;" transform="translate(-0.121875 38.703466)scale(0.2 -0.2)">
       <defs>
        <path d="M 2384 0 
L 1822 0 
L 1822 3584 
Q 1619 3391 1289 3197 
Q 959 3003 697 2906 
L 697 3450 
Q 1169 3672 1522 3987 
Q 1875 4303 2022 4600 
L 2384 4600 
L 2384 0 
z
" id="ArialMT-31" transform="scale(0.015625)"/>
       </defs>
       <use xlink:href="#ArialMT-31"/>
      </g>
     </g>
    </g>
    <g id="text_6">
     <!-- Predictions -->
     <g style="fill:#262626;" transform="translate(-8.096875 122.185625)rotate(-90)scale(0.2 -0.2)">
      <defs>
       <path d="M 494 0 
L 494 4581 
L 2222 4581 
Q 2678 4581 2919 4538 
Q 3256 4481 3484 4323 
Q 3713 4166 3852 3881 
Q 3991 3597 3991 3256 
Q 3991 2672 3619 2267 
Q 3247 1863 2275 1863 
L 1100 1863 
L 1100 0 
L 494 0 
z
M 1100 2403 
L 2284 2403 
Q 2872 2403 3119 2622 
Q 3366 2841 3366 3238 
Q 3366 3525 3220 3729 
Q 3075 3934 2838 4000 
Q 2684 4041 2272 4041 
L 1100 4041 
L 1100 2403 
z
" id="ArialMT-50" transform="scale(0.015625)"/>
       <path d="M 2588 1216 
L 3141 1144 
Q 3050 572 2676 248 
Q 2303 -75 1759 -75 
Q 1078 -75 664 370 
Q 250 816 250 1647 
Q 250 2184 428 2587 
Q 606 2991 970 3192 
Q 1334 3394 1763 3394 
Q 2303 3394 2647 3120 
Q 2991 2847 3088 2344 
L 2541 2259 
Q 2463 2594 2264 2762 
Q 2066 2931 1784 2931 
Q 1359 2931 1093 2626 
Q 828 2322 828 1663 
Q 828 994 1084 691 
Q 1341 388 1753 388 
Q 2084 388 2306 591 
Q 2528 794 2588 1216 
z
" id="ArialMT-63" transform="scale(0.015625)"/>
       <path d="M 197 991 
L 753 1078 
Q 800 744 1014 566 
Q 1228 388 1613 388 
Q 2000 388 2187 545 
Q 2375 703 2375 916 
Q 2375 1106 2209 1216 
Q 2094 1291 1634 1406 
Q 1016 1563 777 1677 
Q 538 1791 414 1992 
Q 291 2194 291 2438 
Q 291 2659 392 2848 
Q 494 3038 669 3163 
Q 800 3259 1026 3326 
Q 1253 3394 1513 3394 
Q 1903 3394 2198 3281 
Q 2494 3169 2634 2976 
Q 2775 2784 2828 2463 
L 2278 2388 
Q 2241 2644 2061 2787 
Q 1881 2931 1553 2931 
Q 1166 2931 1000 2803 
Q 834 2675 834 2503 
Q 834 2394 903 2306 
Q 972 2216 1119 2156 
Q 1203 2125 1616 2013 
Q 2213 1853 2448 1751 
Q 2684 1650 2818 1456 
Q 2953 1263 2953 975 
Q 2953 694 2789 445 
Q 2625 197 2315 61 
Q 2006 -75 1616 -75 
Q 969 -75 630 194 
Q 291 463 197 991 
z
" id="ArialMT-73" transform="scale(0.015625)"/>
      </defs>
      <use xlink:href="#ArialMT-50"/>
      <use x="66.699219" xlink:href="#ArialMT-72"/>
      <use x="100" xlink:href="#ArialMT-65"/>
      <use x="155.615234" xlink:href="#ArialMT-64"/>
      <use x="211.230469" xlink:href="#ArialMT-69"/>
      <use x="233.447266" xlink:href="#ArialMT-63"/>
      <use x="283.447266" xlink:href="#ArialMT-74"/>
      <use x="311.230469" xlink:href="#ArialMT-69"/>
      <use x="333.447266" xlink:href="#ArialMT-6f"/>
      <use x="389.0625" xlink:href="#ArialMT-6e"/>
      <use x="444.677734" xlink:href="#ArialMT-73"/>
     </g>
    </g>
   </g>
   <g id="PolyCollection_1">
    <defs>
     <path d="M 47.387265 -20.88 
L 44.412735 -20.88 
L 43.643003 -21.898182 
L 42.637772 -22.916364 
L 41.409048 -23.934545 
L 40.01152 -24.952727 
L 38.546252 -25.970909 
L 37.153083 -26.989091 
L 35.990723 -28.007273 
L 35.207735 -29.025455 
L 34.911507 -30.043636 
L 35.144086 -31.061818 
L 35.872395 -32.08 
L 36.995945 -33.098182 
L 38.36958 -34.116364 
L 39.834155 -35.134545 
L 41.246239 -36.152727 
L 42.499383 -37.170909 
L 43.533252 -38.189091 
L 44.33113 -39.207273 
L 44.909481 -40.225455 
L 45.304366 -41.243636 
L 45.558857 -42.261818 
L 45.713905 -43.28 
L 45.803312 -44.298182 
L 45.852153 -45.316364 
L 45.877449 -46.334545 
L 45.889876 -47.352727 
L 45.895672 -48.370909 
L 45.898237 -49.389091 
L 45.899316 -50.407273 
L 45.899747 -51.425455 
L 45.899911 -52.443636 
L 45.89997 -53.461818 
L 45.89999 -54.48 
L 45.899997 -55.498182 
L 45.899999 -56.516364 
L 45.9 -57.534545 
L 45.9 -58.552727 
L 45.9 -59.570909 
L 45.9 -60.589091 
L 45.9 -61.607273 
L 45.9 -62.625455 
L 45.9 -63.643636 
L 45.9 -64.661818 
L 45.9 -65.68 
L 45.9 -66.698182 
L 45.9 -67.716364 
L 45.9 -68.734545 
L 45.9 -69.752727 
L 45.9 -70.770909 
L 45.9 -71.789091 
L 45.9 -72.807273 
L 45.9 -73.825455 
L 45.9 -74.843636 
L 45.9 -75.861818 
L 45.9 -76.88 
L 45.9 -77.898182 
L 45.9 -78.916364 
L 45.9 -79.934545 
L 45.9 -80.952727 
L 45.9 -81.970909 
L 45.9 -82.989091 
L 45.9 -84.007273 
L 45.9 -85.025455 
L 45.9 -86.043636 
L 45.9 -87.061818 
L 45.9 -88.08 
L 45.899999 -89.098182 
L 45.899998 -90.116364 
L 45.899995 -91.134545 
L 45.899986 -92.152727 
L 45.899964 -93.170909 
L 45.899912 -94.189091 
L 45.899793 -95.207273 
L 45.89954 -96.225455 
L 45.899024 -97.243636 
L 45.898027 -98.261818 
L 45.896202 -99.28 
L 45.893038 -100.298182 
L 45.887844 -101.316364 
L 45.879785 -102.334545 
L 45.867982 -103.352727 
L 45.851699 -104.370909 
L 45.8306 -105.389091 
L 45.805025 -106.407273 
L 45.776207 -107.425455 
L 45.746318 -108.443636 
L 45.718285 -109.461818 
L 45.695355 -110.48 
L 45.680492 -111.498182 
L 45.675745 -112.516364 
L 45.681791 -113.534545 
L 45.69777 -114.552727 
L 45.721491 -115.570909 
L 45.749924 -116.589091 
L 45.779827 -117.607273 
L 45.808348 -118.625455 
L 45.833424 -119.643636 
L 45.853939 -120.661818 
L 45.869648 -121.68 
L 45.930352 -121.68 
L 45.930352 -121.68 
L 45.946061 -120.661818 
L 45.966576 -119.643636 
L 45.991652 -118.625455 
L 46.020173 -117.607273 
L 46.050076 -116.589091 
L 46.078509 -115.570909 
L 46.10223 -114.552727 
L 46.118209 -113.534545 
L 46.124255 -112.516364 
L 46.119508 -111.498182 
L 46.104645 -110.48 
L 46.081715 -109.461818 
L 46.053682 -108.443636 
L 46.023793 -107.425455 
L 45.994975 -106.407273 
L 45.9694 -105.389091 
L 45.948301 -104.370909 
L 45.932018 -103.352727 
L 45.920215 -102.334545 
L 45.912156 -101.316364 
L 45.906962 -100.298182 
L 45.903798 -99.28 
L 45.901973 -98.261818 
L 45.900976 -97.243636 
L 45.90046 -96.225455 
L 45.900207 -95.207273 
L 45.900088 -94.189091 
L 45.900036 -93.170909 
L 45.900014 -92.152727 
L 45.900005 -91.134545 
L 45.900002 -90.116364 
L 45.900001 -89.098182 
L 45.9 -88.08 
L 45.9 -87.061818 
L 45.9 -86.043636 
L 45.9 -85.025455 
L 45.9 -84.007273 
L 45.9 -82.989091 
L 45.9 -81.970909 
L 45.9 -80.952727 
L 45.9 -79.934545 
L 45.9 -78.916364 
L 45.9 -77.898182 
L 45.9 -76.88 
L 45.9 -75.861818 
L 45.9 -74.843636 
L 45.9 -73.825455 
L 45.9 -72.807273 
L 45.9 -71.789091 
L 45.9 -70.770909 
L 45.9 -69.752727 
L 45.9 -68.734545 
L 45.9 -67.716364 
L 45.9 -66.698182 
L 45.9 -65.68 
L 45.9 -64.661818 
L 45.9 -63.643636 
L 45.9 -62.625455 
L 45.9 -61.607273 
L 45.9 -60.589091 
L 45.9 -59.570909 
L 45.9 -58.552727 
L 45.9 -57.534545 
L 45.900001 -56.516364 
L 45.900003 -55.498182 
L 45.90001 -54.48 
L 45.90003 -53.461818 
L 45.900089 -52.443636 
L 45.900253 -51.425455 
L 45.900684 -50.407273 
L 45.901763 -49.389091 
L 45.904328 -48.370909 
L 45.910124 -47.352727 
L 45.922551 -46.334545 
L 45.947847 -45.316364 
L 45.996688 -44.298182 
L 46.086095 -43.28 
L 46.241143 -42.261818 
L 46.495634 -41.243636 
L 46.890519 -40.225455 
L 47.46887 -39.207273 
L 48.266748 -38.189091 
L 49.300617 -37.170909 
L 50.553761 -36.152727 
L 51.965845 -35.134545 
L 53.43042 -34.116364 
L 54.804055 -33.098182 
L 55.927605 -32.08 
L 56.655914 -31.061818 
L 56.888493 -30.043636 
L 56.592265 -29.025455 
L 55.809277 -28.007273 
L 54.646917 -26.989091 
L 53.253748 -25.970909 
L 51.78848 -24.952727 
L 50.390952 -23.934545 
L 49.162228 -22.916364 
L 48.156997 -21.898182 
L 47.387265 -20.88 
z
" id="m3b928c1073" style="stroke:#262626;stroke-width:0.75;"/>
    </defs>
    <g clip-path="url(#pf7663d12c4)">
     <use style="fill:#7f9dd2;stroke:#262626;stroke-width:0.75;" x="0" xlink:href="#m3b928c1073" y="144"/>
    </g>
   </g>
   <g id="PolyCollection_2">
    <defs>
     <path d="M 104.72331 -25.584174 
L 98.67669 -25.584174 
L 95.405603 -26.507322 
L 90.607973 -27.43047 
L 85.155516 -28.353618 
L 80.812764 -29.276766 
L 79.38 -30.199914 
L 81.51202 -31.123062 
L 86.244716 -32.04621 
L 91.685101 -32.969358 
L 96.207101 -33.892506 
L 99.149989 -34.815654 
L 100.697999 -35.738802 
L 101.366743 -36.66195 
L 101.606184 -37.585098 
L 101.677646 -38.508246 
L 101.695492 -39.431394 
L 101.69923 -40.354542 
L 101.699889 -41.27769 
L 101.699986 -42.200838 
L 101.699999 -43.123986 
L 101.7 -44.047134 
L 101.7 -44.970282 
L 101.7 -45.89343 
L 101.7 -46.816578 
L 101.7 -47.739726 
L 101.7 -48.662874 
L 101.7 -49.586022 
L 101.7 -50.50917 
L 101.7 -51.432318 
L 101.7 -52.355466 
L 101.7 -53.278614 
L 101.7 -54.201762 
L 101.7 -55.12491 
L 101.7 -56.048058 
L 101.7 -56.971206 
L 101.7 -57.894354 
L 101.7 -58.817502 
L 101.7 -59.74065 
L 101.7 -60.663798 
L 101.7 -61.586946 
L 101.7 -62.510094 
L 101.7 -63.433242 
L 101.7 -64.35639 
L 101.7 -65.279538 
L 101.7 -66.202686 
L 101.7 -67.125834 
L 101.7 -68.048982 
L 101.7 -68.97213 
L 101.7 -69.895278 
L 101.7 -70.818426 
L 101.7 -71.741574 
L 101.7 -72.664722 
L 101.7 -73.58787 
L 101.7 -74.511018 
L 101.7 -75.434166 
L 101.7 -76.357314 
L 101.7 -77.280462 
L 101.7 -78.20361 
L 101.7 -79.126758 
L 101.7 -80.049906 
L 101.7 -80.973054 
L 101.7 -81.896202 
L 101.7 -82.81935 
L 101.7 -83.742498 
L 101.7 -84.665646 
L 101.7 -85.588794 
L 101.7 -86.511942 
L 101.7 -87.43509 
L 101.7 -88.358238 
L 101.7 -89.281386 
L 101.7 -90.204534 
L 101.7 -91.127682 
L 101.7 -92.05083 
L 101.7 -92.973978 
L 101.7 -93.897126 
L 101.7 -94.820274 
L 101.7 -95.743422 
L 101.7 -96.66657 
L 101.7 -97.589718 
L 101.7 -98.512866 
L 101.7 -99.436014 
L 101.7 -100.359162 
L 101.699997 -101.28231 
L 101.699981 -102.205458 
L 101.699891 -103.128606 
L 101.699458 -104.051754 
L 101.697727 -104.974902 
L 101.691926 -105.89805 
L 101.675725 -106.821198 
L 101.638221 -107.744346 
L 101.566924 -108.667494 
L 101.45737 -109.590642 
L 101.325566 -110.51379 
L 101.210908 -111.436938 
L 101.159255 -112.360086 
L 101.193967 -113.283234 
L 101.299178 -114.206382 
L 101.431274 -115.12953 
L 101.547506 -116.052678 
L 101.626755 -116.975826 
L 101.773245 -116.975826 
L 101.773245 -116.975826 
L 101.852494 -116.052678 
L 101.968726 -115.12953 
L 102.100822 -114.206382 
L 102.206033 -113.283234 
L 102.240745 -112.360086 
L 102.189092 -111.436938 
L 102.074434 -110.51379 
L 101.94263 -109.590642 
L 101.833076 -108.667494 
L 101.761779 -107.744346 
L 101.724275 -106.821198 
L 101.708074 -105.89805 
L 101.702273 -104.974902 
L 101.700542 -104.051754 
L 101.700109 -103.128606 
L 101.700019 -102.205458 
L 101.700003 -101.28231 
L 101.7 -100.359162 
L 101.7 -99.436014 
L 101.7 -98.512866 
L 101.7 -97.589718 
L 101.7 -96.66657 
L 101.7 -95.743422 
L 101.7 -94.820274 
L 101.7 -93.897126 
L 101.7 -92.973978 
L 101.7 -92.05083 
L 101.7 -91.127682 
L 101.7 -90.204534 
L 101.7 -89.281386 
L 101.7 -88.358238 
L 101.7 -87.43509 
L 101.7 -86.511942 
L 101.7 -85.588794 
L 101.7 -84.665646 
L 101.7 -83.742498 
L 101.7 -82.81935 
L 101.7 -81.896202 
L 101.7 -80.973054 
L 101.7 -80.049906 
L 101.7 -79.126758 
L 101.7 -78.20361 
L 101.7 -77.280462 
L 101.7 -76.357314 
L 101.7 -75.434166 
L 101.7 -74.511018 
L 101.7 -73.58787 
L 101.7 -72.664722 
L 101.7 -71.741574 
L 101.7 -70.818426 
L 101.7 -69.895278 
L 101.7 -68.97213 
L 101.7 -68.048982 
L 101.7 -67.125834 
L 101.7 -66.202686 
L 101.7 -65.279538 
L 101.7 -64.35639 
L 101.7 -63.433242 
L 101.7 -62.510094 
L 101.7 -61.586946 
L 101.7 -60.663798 
L 101.7 -59.74065 
L 101.7 -58.817502 
L 101.7 -57.894354 
L 101.7 -56.971206 
L 101.7 -56.048058 
L 101.7 -55.12491 
L 101.7 -54.201762 
L 101.7 -53.278614 
L 101.7 -52.355466 
L 101.7 -51.432318 
L 101.7 -50.50917 
L 101.7 -49.586022 
L 101.7 -48.662874 
L 101.7 -47.739726 
L 101.7 -46.816578 
L 101.7 -45.89343 
L 101.7 -44.970282 
L 101.7 -44.047134 
L 101.700001 -43.123986 
L 101.700014 -42.200838 
L 101.700111 -41.27769 
L 101.70077 -40.354542 
L 101.704508 -39.431394 
L 101.722354 -38.508246 
L 101.793816 -37.585098 
L 102.033257 -36.66195 
L 102.702001 -35.738802 
L 104.250011 -34.815654 
L 107.192899 -33.892506 
L 111.714899 -32.969358 
L 117.155284 -32.04621 
L 121.88798 -31.123062 
L 124.02 -30.199914 
L 122.587236 -29.276766 
L 118.244484 -28.353618 
L 112.792027 -27.43047 
L 107.994397 -26.507322 
L 104.72331 -25.584174 
z
" id="m680c9fabd1" style="stroke:#262626;stroke-width:0.75;"/>
    </defs>
    <g clip-path="url(#pf7663d12c4)">
     <use style="fill:#1a1a66;stroke:#262626;stroke-width:0.75;" x="0" xlink:href="#m680c9fabd1" y="144"/>
    </g>
   </g>
   <g id="line2d_1">
    <path clip-path="url(#pf7663d12c4)" d="M 45.9 113.894346 
L 45.9 113.894346 
" style="fill:none;stroke:#262626;stroke-linecap:round;stroke-width:0.75;"/>
   </g>
   <g id="line2d_2">
    <path clip-path="url(#pf7663d12c4)" d="M 45.9 113.894346 
L 45.9 113.894346 
" style="fill:none;stroke:#262626;stroke-linecap:round;stroke-width:2.25;"/>
   </g>
   <g id="line2d_3">
    <path clip-path="url(#pf7663d12c4)" d="M 101.7 113.894346 
L 101.7 113.894346 
" style="fill:none;stroke:#262626;stroke-linecap:round;stroke-width:0.75;"/>
   </g>
   <g id="line2d_4">
    <path clip-path="url(#pf7663d12c4)" d="M 101.7 113.894346 
L 101.7 113.894346 
" style="fill:none;stroke:#262626;stroke-linecap:round;stroke-width:2.25;"/>
   </g>
   <g id="patch_3">
    <path d="M 18 128.16 
L 18 17.28 
" style="fill:none;stroke:#262626;stroke-linecap:square;stroke-linejoin:miter;stroke-width:0.8;"/>
   </g>
   <g id="patch_4">
    <path d="M 18 128.16 
L 129.6 128.16 
" style="fill:none;stroke:#262626;stroke-linecap:square;stroke-linejoin:miter;stroke-width:0.8;"/>
   </g>
   <g id="PathCollection_1">
    <defs>
     <path d="M 0 0.75 
C 0.198902 0.75 0.389685 0.670975 0.53033 0.53033 
C 0.670975 0.389685 0.75 0.198902 0.75 0 
C 0.75 -0.198902 0.670975 -0.389685 0.53033 -0.53033 
C 0.389685 -0.670975 0.198902 -0.75 0 -0.75 
C -0.198902 -0.75 -0.389685 -0.670975 -0.53033 -0.53033 
C -0.670975 -0.389685 -0.75 -0.198902 -0.75 0 
C -0.75 0.198902 -0.670975 0.389685 -0.53033 0.53033 
C -0.389685 0.670975 -0.198902 0.75 0 0.75 
z
" id="m3db5a55ab8" style="stroke:#262626;"/>
    </defs>
    <g clip-path="url(#pf7663d12c4)">
     <use style="fill:#ffffff;stroke:#262626;" x="45.9" xlink:href="#m3db5a55ab8" y="113.894346"/>
    </g>
   </g>
   <g id="PathCollection_2">
    <g clip-path="url(#pf7663d12c4)">
     <use style="fill:#ffffff;stroke:#262626;" x="101.7" xlink:href="#m3db5a55ab8" y="113.894346"/>
    </g>
   </g>
   <g id="text_7">
    <!-- Bottom 10% -->
    <g style="fill:#262626;" transform="translate(8.435625 11.28)scale(0.24 -0.24)">
     <defs>
      <path d="M 469 0 
L 469 4581 
L 2188 4581 
Q 2713 4581 3030 4442 
Q 3347 4303 3526 4014 
Q 3706 3725 3706 3409 
Q 3706 3116 3547 2856 
Q 3388 2597 3066 2438 
Q 3481 2316 3704 2022 
Q 3928 1728 3928 1328 
Q 3928 1006 3792 729 
Q 3656 453 3456 303 
Q 3256 153 2954 76 
Q 2653 0 2216 0 
L 469 0 
z
M 1075 2656 
L 2066 2656 
Q 2469 2656 2644 2709 
Q 2875 2778 2992 2937 
Q 3109 3097 3109 3338 
Q 3109 3566 3000 3739 
Q 2891 3913 2687 3977 
Q 2484 4041 1991 4041 
L 1075 4041 
L 1075 2656 
z
M 1075 541 
L 2216 541 
Q 2509 541 2628 563 
Q 2838 600 2978 687 
Q 3119 775 3209 942 
Q 3300 1109 3300 1328 
Q 3300 1584 3169 1773 
Q 3038 1963 2805 2039 
Q 2572 2116 2134 2116 
L 1075 2116 
L 1075 541 
z
" id="ArialMT-42" transform="scale(0.015625)"/>
      <path d="M 422 0 
L 422 3319 
L 925 3319 
L 925 2853 
Q 1081 3097 1340 3245 
Q 1600 3394 1931 3394 
Q 2300 3394 2536 3241 
Q 2772 3088 2869 2813 
Q 3263 3394 3894 3394 
Q 4388 3394 4653 3120 
Q 4919 2847 4919 2278 
L 4919 0 
L 4359 0 
L 4359 2091 
Q 4359 2428 4304 2576 
Q 4250 2725 4106 2815 
Q 3963 2906 3769 2906 
Q 3419 2906 3187 2673 
Q 2956 2441 2956 1928 
L 2956 0 
L 2394 0 
L 2394 2156 
Q 2394 2531 2256 2718 
Q 2119 2906 1806 2906 
Q 1569 2906 1367 2781 
Q 1166 2656 1075 2415 
Q 984 2175 984 1722 
L 984 0 
L 422 0 
z
" id="ArialMT-6d" transform="scale(0.015625)"/>
      <path id="ArialMT-20" transform="scale(0.015625)"/>
      <path d="M 372 3481 
Q 372 3972 619 4315 
Q 866 4659 1334 4659 
Q 1766 4659 2048 4351 
Q 2331 4044 2331 3447 
Q 2331 2866 2045 2552 
Q 1759 2238 1341 2238 
Q 925 2238 648 2547 
Q 372 2856 372 3481 
z
M 1350 4272 
Q 1141 4272 1002 4090 
Q 863 3909 863 3425 
Q 863 2984 1003 2804 
Q 1144 2625 1350 2625 
Q 1563 2625 1702 2806 
Q 1841 2988 1841 3469 
Q 1841 3913 1700 4092 
Q 1559 4272 1350 4272 
z
M 1353 -169 
L 3859 4659 
L 4316 4659 
L 1819 -169 
L 1353 -169 
z
M 3334 1075 
Q 3334 1569 3581 1911 
Q 3828 2253 4300 2253 
Q 4731 2253 5014 1945 
Q 5297 1638 5297 1041 
Q 5297 459 5011 145 
Q 4725 -169 4303 -169 
Q 3888 -169 3611 142 
Q 3334 453 3334 1075 
z
M 4316 1866 
Q 4103 1866 3964 1684 
Q 3825 1503 3825 1019 
Q 3825 581 3965 400 
Q 4106 219 4313 219 
Q 4528 219 4667 400 
Q 4806 581 4806 1063 
Q 4806 1506 4665 1686 
Q 4525 1866 4316 1866 
z
" id="ArialMT-25" transform="scale(0.015625)"/>
     </defs>
     <use xlink:href="#ArialMT-42"/>
     <use x="66.699219" xlink:href="#ArialMT-6f"/>
     <use x="122.314453" xlink:href="#ArialMT-74"/>
     <use x="150.097656" xlink:href="#ArialMT-74"/>
     <use x="177.880859" xlink:href="#ArialMT-6f"/>
     <use x="233.496094" xlink:href="#ArialMT-6d"/>
     <use x="316.796875" xlink:href="#ArialMT-20"/>
     <use x="344.580078" xlink:href="#ArialMT-31"/>
     <use x="400.195312" xlink:href="#ArialMT-30"/>
     <use x="455.810547" xlink:href="#ArialMT-25"/>
    </g>
   </g>
  </g>
 </g>
 <defs>
  <clipPath id="pf7663d12c4">
   <rect height="110.88" width="111.6" x="18" y="17.28"/>
  </clipPath>
 </defs>
</svg>
