<?xml version="1.0" encoding="utf-8" standalone="no"?>
<!DOCTYPE svg PUBLIC "-//W3C//DTD SVG 1.1//EN"
  "http://www.w3.org/Graphics/SVG/1.1/DTD/svg11.dtd">
<svg height="216pt" version="1.1" viewBox="0 0 306 216" width="306pt" xmlns="http://www.w3.org/2000/svg" xmlns:xlink="http://www.w3.org/1999/xlink">
 <metadata>
  <rdf:RDF xmlns:cc="http://creativecommons.org/ns#" xmlns:dc="http://purl.org/dc/elements/1.1/" xmlns:rdf="http://www.w3.org/1999/02/22-rdf-syntax-ns#">
   <cc:Work>
    <dc:type rdf:resource="http://purl.org/dc/dcmitype/StillImage"/>
    <dc:date>2022-12-16T20:08:26.953605</dc:date>
    <dc:format>image/svg+xml</dc:format>
    <dc:creator>
     <cc:Agent>
      <dc:title>Matplotlib v3.4.2, https://matplotlib.org/</dc:title>
     </cc:Agent>
    </dc:creator>
   </cc:Work>
  </rdf:RDF>
 </metadata>
 <defs>
  <style type="text/css">*{stroke-linecap:butt;stroke-linejoin:round;}</style>
 </defs>
 <g id="figure_1">
  <g id="patch_1">
   <path d="M 0 216 
L 306 216 
L 306 0 
L 0 0 
z
" style="fill:#ffffff;"/>
  </g>
  <g id="axes_1">
   <g id="patch_2">
    <path d="M 94.94 141.64 
L 284.4 141.64 
L 284.4 28.8 
L 94.94 28.8 
z
" style="fill:#ffffff;"/>
   </g>
   <g id="line2d_1">
    <path clip-path="url(#p3e9f1862c8)" d="M 94.94 141.64 
L 284.4 141.64 
" style="fill:none;stroke:#000000;stroke-linecap:round;stroke-width:0.5;"/>
   </g>
   <g id="patch_3">
    <path clip-path="url(#p3e9f1862c8)" d="M 100.416455 117.62799 
Q 102.054581 117.62799 103.249628 118.870591 
Q 104.981434 120.654965 105.368811 125.128326 
L 103.811705 125.128326 
Q 103.525603 122.628214 102.63185 121.485022 
Q 101.738096 120.34183 100.375945 120.34183 
Q 98.763138 120.34183 97.659238 122.722652 
Q 96.555339 125.098504 96.555339 129.805474 
Q 96.555339 133.871262 97.464284 136.426049 
Q 98.37576 138.980835 100.431646 138.980835 
Q 102.006475 138.980835 103.039482 137.191491 
Q 104.072489 135.397176 104.095276 131.386062 
L 100.456965 131.386062 
L 100.456965 128.826305 
L 105.558702 128.826305 
L 105.558702 141.033611 
L 104.54595 141.033611 
L 104.166168 138.096104 
Q 103.368626 139.820833 102.750848 140.491837 
Q 101.712777 141.64 100.115161 141.64 
Q 98.05168 141.64 96.562935 139.015628 
Q 94.94 135.720252 94.94 129.974468 
Q 94.94 124.243595 96.522425 120.858751 
Q 98.026361 117.62799 100.416455 117.62799 
z
M 100.155671 117.593198 
L 100.155671 117.593198 
z
" style="fill:#ffa600;"/>
   </g>
   <g id="patch_4">
    <path clip-path="url(#p3e9f1862c8)" d="M 100.523163 90.423997 
Q 102.797109 90.423997 104.051431 93.008864 
Q 105.305752 95.588112 105.443962 98.869769 
L 103.863673 98.869769 
Q 103.595077 96.38043 102.791894 94.925037 
Q 101.988711 93.464025 100.53881 93.464025 
Q 98.770765 93.464025 97.683339 96.14442 
Q 96.595913 98.819196 96.595913 104.348563 
Q 96.595913 108.883319 97.576421 111.704196 
Q 98.559538 114.519453 100.507517 114.519453 
Q 102.299032 114.519453 103.237817 111.552476 
Q 103.733287 109.990317 103.978414 107.439165 
L 105.558702 107.439165 
Q 105.347475 111.513141 104.158348 114.272205 
Q 102.731916 117.593198 100.311937 117.593198 
Q 98.225748 117.593198 96.807139 114.867849 
Q 94.94 111.271512 94.94 103.75292 
Q 94.94 98.049355 96.342962 94.396825 
Q 97.858057 90.423997 100.523163 90.423997 
z
M 100.197196 90.423997 
L 100.197196 90.423997 
z
" style="fill:#0000ff;"/>
   </g>
   <g id="patch_5">
    <path clip-path="url(#p3e9f1862c8)" d="M 102.067515 78.013085 
L 100.261014 64.632261 
L 98.340473 78.013085 
L 102.067515 78.013085 
z
M 99.418672 60.132398 
L 101.240724 60.132398 
L 105.558702 90.423997 
L 103.791078 90.423997 
L 102.58588 81.351693 
L 97.879128 81.351693 
L 96.590992 90.423997 
L 94.94 90.423997 
L 99.418672 60.132398 
z
M 100.253239 60.132398 
L 100.253239 60.132398 
z
" style="fill:#008000;"/>
   </g>
   <g id="patch_6">
    <path clip-path="url(#p3e9f1862c8)" d="M 105.558702 28.8 
L 105.558702 32.533135 
L 101.148734 32.533135 
L 101.148734 60.132398 
L 99.349968 60.132398 
L 99.349968 32.533135 
L 94.94 32.533135 
L 94.94 28.8 
L 105.558702 28.8 
z
" style="fill:#ff0000;"/>
   </g>
   <g id="patch_7">
    <path clip-path="url(#p3e9f1862c8)" d="M 111.594036 126.981632 
Q 113.232162 126.981632 114.427209 127.740189 
Q 116.159015 128.829478 116.546392 131.560286 
L 114.989286 131.560286 
Q 114.703184 130.034068 113.809431 129.336195 
Q 112.915677 128.638322 111.553526 128.638322 
Q 109.940719 128.638322 108.83682 130.091718 
Q 107.73292 131.54208 107.73292 134.415497 
Q 107.73292 136.897497 108.641865 138.457092 
Q 109.553341 140.016687 111.609227 140.016687 
Q 113.184056 140.016687 114.217063 138.924364 
Q 115.25007 137.829006 115.272857 135.380382 
L 111.634546 135.380382 
L 111.634546 133.817753 
L 116.736283 133.817753 
L 116.736283 141.269824 
L 115.723531 141.269824 
L 115.34375 139.476594 
Q 114.546208 140.529472 113.928429 140.939093 
Q 112.890358 141.64 111.292743 141.64 
Q 109.229261 141.64 107.740516 140.037926 
Q 106.117581 138.026231 106.117581 134.518661 
Q 106.117581 131.020193 107.700006 128.953882 
Q 109.203942 126.981632 111.594036 126.981632 
z
M 111.333253 126.960392 
L 111.333253 126.960392 
z
" style="fill:#ffa600;"/>
   </g>
   <g id="patch_8">
    <path clip-path="url(#p3e9f1862c8)" d="M 113.245097 114.123049 
L 111.438595 100.282469 
L 109.518054 114.123049 
L 113.245097 114.123049 
z
M 110.596253 95.627994 
L 112.418305 95.627994 
L 116.736283 126.960392 
L 114.968659 126.960392 
L 113.763461 117.576369 
L 109.056709 117.576369 
L 107.768573 126.960392 
L 106.117581 126.960392 
L 110.596253 95.627994 
z
M 111.43082 95.627994 
L 111.43082 95.627994 
z
" style="fill:#008000;"/>
   </g>
   <g id="patch_9">
    <path clip-path="url(#p3e9f1862c8)" d="M 116.736283 64.295596 
L 116.736283 68.02873 
L 112.326315 68.02873 
L 112.326315 95.627994 
L 110.527549 95.627994 
L 110.527549 68.02873 
L 106.117581 68.02873 
L 106.117581 64.295596 
L 116.736283 64.295596 
z
" style="fill:#ff0000;"/>
   </g>
   <g id="patch_10">
    <path clip-path="url(#p3e9f1862c8)" d="M 111.700744 28.8 
Q 113.97469 28.8 115.229012 32.177037 
Q 116.483333 35.546733 116.621543 39.834101 
L 115.041255 39.834101 
Q 114.772658 36.581868 113.969475 34.680449 
Q 113.166292 32.771689 111.716391 32.771689 
Q 109.948346 32.771689 108.86092 36.27353 
Q 107.773494 39.768029 107.773494 46.991952 
Q 107.773494 52.916449 108.754002 56.601824 
Q 109.737119 60.279858 111.685098 60.279858 
Q 113.476613 60.279858 114.415398 56.403607 
Q 114.910868 54.362702 115.155995 51.029713 
L 116.736283 51.029713 
Q 116.525057 56.352217 115.335929 59.956837 
Q 113.909497 64.295596 111.489518 64.295596 
Q 109.403329 64.295596 107.98472 60.735024 
Q 106.117581 56.036538 106.117581 46.213765 
Q 106.117581 38.762259 107.520543 33.990359 
Q 109.035638 28.8 111.700744 28.8 
z
M 111.374777 28.8 
L 111.374777 28.8 
z
" style="fill:#0000ff;"/>
   </g>
   <g id="patch_11">
    <path clip-path="url(#p3e9f1862c8)" d="M 122.771617 121.785164 
Q 124.409743 121.785164 125.60479 122.812635 
Q 127.336596 124.288082 127.723973 127.986975 
L 126.166868 127.986975 
Q 125.880765 125.919705 124.987012 124.974432 
Q 124.093258 124.029159 122.731107 124.029159 
Q 121.1183 124.029159 120.014401 125.997792 
Q 118.910501 127.962316 118.910501 131.854373 
Q 118.910501 135.216256 119.819446 137.328735 
Q 120.730923 139.441214 122.786809 139.441214 
Q 124.361638 139.441214 125.394644 137.961656 
Q 126.427651 136.477989 126.450438 133.161315 
L 122.812127 133.161315 
L 122.812127 131.044726 
L 127.913864 131.044726 
L 127.913864 141.138595 
L 126.901113 141.138595 
L 126.521331 138.709655 
Q 125.723789 140.135784 125.10601 140.690617 
Q 124.06794 141.64 122.470324 141.64 
Q 120.406842 141.64 118.918097 139.469983 
Q 117.295162 136.745132 117.295162 131.994109 
Q 117.295162 127.255416 118.877587 124.456587 
Q 120.381523 121.785164 122.771617 121.785164 
z
M 122.510834 121.756395 
L 122.510834 121.756395 
z
" style="fill:#ffa600;"/>
   </g>
   <g id="patch_12">
    <path clip-path="url(#p3e9f1862c8)" d="M 124.422678 110.198345 
L 122.616176 97.737033 
L 120.695635 110.198345 
L 124.422678 110.198345 
z
M 121.773834 93.546395 
L 123.595886 93.546395 
L 127.913864 121.756395 
L 126.14624 121.756395 
L 124.941042 113.307528 
L 120.23429 113.307528 
L 118.946154 121.756395 
L 117.295162 121.756395 
L 121.773834 93.546395 
z
M 122.608401 93.546395 
L 122.608401 93.546395 
z
" style="fill:#008000;"/>
   </g>
   <g id="patch_13">
    <path clip-path="url(#p3e9f1862c8)" d="M 127.913864 65.336395 
L 127.913864 68.697508 
L 123.503896 68.697508 
L 123.503896 93.546395 
L 121.705131 93.546395 
L 121.705131 68.697508 
L 117.295162 68.697508 
L 117.295162 65.336395 
L 127.913864 65.336395 
z
" style="fill:#ff0000;"/>
   </g>
   <g id="patch_14">
    <path clip-path="url(#p3e9f1862c8)" d="M 122.878326 28.8 
Q 125.152272 28.8 126.406593 32.276058 
Q 127.660914 35.74456 127.799124 40.157643 
L 126.218836 40.157643 
Q 125.950239 36.810047 125.147056 34.852875 
Q 124.343873 32.888147 122.893972 32.888147 
Q 121.125927 32.888147 120.038501 36.492668 
Q 118.951075 40.089633 118.951075 47.525375 
Q 118.951075 53.62359 119.931584 57.417028 
Q 120.9147 61.202908 122.862679 61.202908 
Q 124.654194 61.202908 125.592979 57.212998 
Q 126.088449 55.11225 126.333576 51.681531 
L 127.913864 51.681531 
Q 127.702638 57.160101 126.51351 60.870416 
Q 125.087078 65.336395 122.667099 65.336395 
Q 120.58091 65.336395 119.162301 61.671421 
Q 117.295162 56.835166 117.295162 46.72437 
Q 117.295162 39.054372 118.698124 34.14255 
Q 120.213219 28.8 122.878326 28.8 
z
M 122.552359 28.8 
L 122.552359 28.8 
z
" style="fill:#0000ff;"/>
   </g>
   <g id="patch_15">
    <path clip-path="url(#p3e9f1862c8)" d="M 133.949198 122.824458 
Q 135.587324 122.824458 136.782371 123.798145 
Q 138.514177 125.196361 138.901554 128.701637 
L 137.344449 128.701637 
Q 137.058346 126.742577 136.164593 125.846785 
Q 135.270839 124.950992 133.908688 124.950992 
Q 132.295881 124.950992 131.191982 126.816578 
Q 130.088082 128.678269 130.088082 132.366598 
Q 130.088082 135.552504 130.997027 137.554406 
Q 131.908504 139.556308 133.96439 139.556308 
Q 135.539219 139.556308 136.572225 138.154198 
Q 137.605232 136.748193 137.628019 133.605129 
L 133.989709 133.605129 
L 133.989709 131.599332 
L 139.091445 131.599332 
L 139.091445 141.16484 
L 138.078694 141.16484 
L 137.698912 138.863043 
Q 136.90137 140.214521 136.283591 140.740313 
Q 135.245521 141.64 133.647905 141.64 
Q 131.584423 141.64 130.095678 139.583571 
Q 128.472743 137.001352 128.472743 132.499019 
Q 128.472743 128.008371 130.055168 125.356046 
Q 131.559104 122.824458 133.949198 122.824458 
z
M 133.688415 122.797194 
L 133.688415 122.797194 
z
" style="fill:#ffa600;"/>
   </g>
   <g id="patch_16">
    <path clip-path="url(#p3e9f1862c8)" d="M 139.091445 98.750392 
L 139.091445 101.615476 
L 134.681477 101.615476 
L 134.681477 122.797194 
L 132.882712 122.797194 
L 132.882712 101.615476 
L 128.472743 101.615476 
L 128.472743 98.750392 
L 139.091445 98.750392 
z
" style="fill:#ff0000;"/>
   </g>
   <g id="patch_17">
    <path clip-path="url(#p3e9f1862c8)" d="M 135.600259 85.060188 
L 133.793758 70.300095 
L 131.873216 85.060188 
L 135.600259 85.060188 
z
M 132.951415 65.336395 
L 134.773467 65.336395 
L 139.091445 98.750392 
L 137.323822 98.750392 
L 136.118624 88.742933 
L 131.411872 88.742933 
L 130.123735 98.750392 
L 128.472743 98.750392 
L 132.951415 65.336395 
z
M 133.785982 65.336395 
L 133.785982 65.336395 
z
" style="fill:#008000;"/>
   </g>
   <g id="patch_18">
    <path clip-path="url(#p3e9f1862c8)" d="M 134.055907 28.8 
Q 136.329853 28.8 137.584174 32.276058 
Q 138.838495 35.74456 138.976705 40.157643 
L 137.396417 40.157643 
Q 137.12782 36.810047 136.324637 34.852875 
Q 135.521454 32.888147 134.071553 32.888147 
Q 132.303508 32.888147 131.216082 36.492668 
Q 130.128656 40.089633 130.128656 47.525375 
Q 130.128656 53.62359 131.109165 57.417028 
Q 132.092281 61.202908 134.04026 61.202908 
Q 135.831775 61.202908 136.77056 57.212998 
Q 137.26603 55.11225 137.511157 51.681531 
L 139.091445 51.681531 
Q 138.880219 57.160101 137.691091 60.870416 
Q 136.264659 65.336395 133.84468 65.336395 
Q 131.758491 65.336395 130.339883 61.671421 
Q 128.472743 56.835166 128.472743 46.72437 
Q 128.472743 39.054372 129.875705 34.14255 
Q 131.3908 28.8 134.055907 28.8 
z
M 133.72994 28.8 
L 133.72994 28.8 
z
" style="fill:#0000ff;"/>
   </g>
   <g id="patch_19">
    <path clip-path="url(#p3e9f1862c8)" d="M 145.12678 128.020925 
Q 146.764906 128.020925 147.959953 128.7257 
Q 149.691758 129.737757 150.079136 132.274948 
L 148.52203 132.274948 
Q 148.235927 130.85694 147.342174 130.208547 
Q 146.448421 129.560154 145.086269 129.560154 
Q 143.473462 129.560154 142.369563 130.910503 
Q 141.265664 132.258033 141.265664 134.927722 
Q 141.265664 137.233746 142.174608 138.682763 
Q 143.086085 140.131781 145.141971 140.131781 
Q 146.7168 140.131781 147.749807 139.116905 
Q 148.782813 138.09921 148.8056 135.824196 
L 145.16729 135.824196 
L 145.16729 134.372359 
L 150.269027 134.372359 
L 150.269027 141.29607 
L 149.256275 141.29607 
L 148.876493 139.629981 
Q 148.078951 140.608209 147.461172 140.988788 
Q 146.423102 141.64 144.825486 141.64 
Q 142.762004 141.64 141.273259 140.151515 
Q 139.650324 138.282451 139.650324 135.023571 
Q 139.650324 131.773148 141.232749 129.85334 
Q 142.736685 128.020925 145.12678 128.020925 
z
M 144.865996 128.001191 
L 144.865996 128.001191 
z
" style="fill:#ffa600;"/>
   </g>
   <g id="patch_20">
    <path clip-path="url(#p3e9f1862c8)" d="M 150.269027 97.709593 
L 150.269027 101.31872 
L 145.859058 101.31872 
L 145.859058 128.001191 
L 144.060293 128.001191 
L 144.060293 101.31872 
L 139.650324 101.31872 
L 139.650324 97.709593 
L 150.269027 97.709593 
z
" style="fill:#ff0000;"/>
   </g>
   <g id="patch_21">
    <path clip-path="url(#p3e9f1862c8)" d="M 146.77784 84.87225 
L 144.971339 71.03167 
L 143.050797 84.87225 
L 146.77784 84.87225 
z
M 144.128996 66.377194 
L 145.951048 66.377194 
L 150.269027 97.709593 
L 148.501403 97.709593 
L 147.296205 88.32557 
L 142.589453 88.32557 
L 141.301316 97.709593 
L 139.650324 97.709593 
L 144.128996 66.377194 
z
M 144.963563 66.377194 
L 144.963563 66.377194 
z
" style="fill:#008000;"/>
   </g>
   <g id="patch_22">
    <path clip-path="url(#p3e9f1862c8)" d="M 145.233488 28.8 
Q 147.507434 28.8 148.761755 32.37508 
Q 150.016076 35.942387 150.154286 40.481184 
L 148.573998 40.481184 
Q 148.305401 37.038227 147.502218 35.025302 
Q 146.699036 33.004604 145.249134 33.004604 
Q 143.481089 33.004604 142.393663 36.711806 
Q 141.306237 40.411237 141.306237 48.058798 
Q 141.306237 54.330731 142.286746 58.232231 
Q 143.269862 62.125959 145.217841 62.125959 
Q 147.009356 62.125959 147.948141 58.022389 
Q 148.443611 55.861798 148.688738 52.33335 
L 150.269027 52.33335 
Q 150.0578 57.967986 148.868672 61.783994 
Q 147.44224 66.377194 145.022261 66.377194 
Q 142.936072 66.377194 141.517464 62.607817 
Q 139.650324 57.633793 139.650324 47.234975 
Q 139.650324 39.346485 141.053287 34.294742 
Q 142.568381 28.8 145.233488 28.8 
z
M 144.907521 28.8 
L 144.907521 28.8 
z
" style="fill:#0000ff;"/>
   </g>
   <g id="patch_23">
    <path clip-path="url(#p3e9f1862c8)" d="M 156.304361 128.020925 
Q 157.942487 128.020925 159.137534 128.7257 
Q 160.869339 129.737757 161.256717 132.274948 
L 159.699611 132.274948 
Q 159.413509 130.85694 158.519755 130.208547 
Q 157.626002 129.560154 156.263851 129.560154 
Q 154.651043 129.560154 153.547144 130.910503 
Q 152.443245 132.258033 152.443245 134.927722 
Q 152.443245 137.233746 153.352189 138.682763 
Q 154.263666 140.131781 156.319552 140.131781 
Q 157.894381 140.131781 158.927388 139.116905 
Q 159.960394 138.09921 159.983181 135.824196 
L 156.344871 135.824196 
L 156.344871 134.372359 
L 161.446608 134.372359 
L 161.446608 141.29607 
L 160.433856 141.29607 
L 160.054074 139.629981 
Q 159.256532 140.608209 158.638753 140.988788 
Q 157.600683 141.64 156.003067 141.64 
Q 153.939585 141.64 152.45084 140.151515 
Q 150.827906 138.282451 150.827906 135.023571 
Q 150.827906 131.773148 152.41033 129.85334 
Q 153.914267 128.020925 156.304361 128.020925 
z
M 156.043577 128.001191 
L 156.043577 128.001191 
z
" style="fill:#ffa600;"/>
   </g>
   <g id="patch_24">
    <path clip-path="url(#p3e9f1862c8)" d="M 156.411069 96.668793 
Q 158.685015 96.668793 159.939336 99.649745 
Q 161.193657 102.624217 161.331867 106.40873 
L 159.751579 106.40873 
Q 159.482982 103.537944 158.679799 101.859538 
Q 157.876617 100.174652 156.426715 100.174652 
Q 154.65867 100.174652 153.571244 103.26577 
Q 152.483818 106.350407 152.483818 112.727052 
Q 152.483818 117.956679 153.464327 121.209805 
Q 154.447444 124.456451 156.395423 124.456451 
Q 158.186937 124.456451 159.125722 121.034836 
Q 159.621192 119.233304 159.866319 116.291234 
L 161.446608 116.291234 
Q 161.235381 120.989474 160.046253 124.171316 
Q 158.619822 128.001191 156.199842 128.001191 
Q 154.113653 128.001191 152.695045 124.858231 
Q 150.827906 120.71082 150.827906 112.040137 
Q 150.827906 105.462602 152.230868 101.250387 
Q 153.745962 96.668793 156.411069 96.668793 
z
M 156.085102 96.668793 
L 156.085102 96.668793 
z
" style="fill:#0000ff;"/>
   </g>
   <g id="patch_25">
    <path clip-path="url(#p3e9f1862c8)" d="M 161.446608 64.295596 
L 161.446608 68.152738 
L 157.036639 68.152738 
L 157.036639 96.668793 
L 155.237874 96.668793 
L 155.237874 68.152738 
L 150.827906 68.152738 
L 150.827906 64.295596 
L 161.446608 64.295596 
z
" style="fill:#ff0000;"/>
   </g>
   <g id="patch_26">
    <path clip-path="url(#p3e9f1862c8)" d="M 157.955421 49.75253 
L 156.14892 34.072924 
L 154.228378 49.75253 
L 157.955421 49.75253 
z
M 155.306577 28.8 
L 157.128629 28.8 
L 161.446608 64.295596 
L 159.678984 64.295596 
L 158.473786 53.6647 
L 153.767034 53.6647 
L 152.478897 64.295596 
L 150.827906 64.295596 
L 155.306577 28.8 
z
M 156.141144 28.8 
L 156.141144 28.8 
z
" style="fill:#008000;"/>
   </g>
   <g id="patch_27">
    <path clip-path="url(#p3e9f1862c8)" d="M 167.481942 122.824458 
Q 169.120068 122.824458 170.315115 123.798145 
Q 172.04692 125.196361 172.434298 128.701637 
L 170.877192 128.701637 
Q 170.59109 126.742577 169.697336 125.846785 
Q 168.803583 124.950992 167.441432 124.950992 
Q 165.828625 124.950992 164.724725 126.816578 
Q 163.620826 128.678269 163.620826 132.366598 
Q 163.620826 135.552504 164.52977 137.554406 
Q 165.441247 139.556308 167.497133 139.556308 
Q 169.071962 139.556308 170.104969 138.154198 
Q 171.137976 136.748193 171.160763 133.605129 
L 167.522452 133.605129 
L 167.522452 131.599332 
L 172.624189 131.599332 
L 172.624189 141.16484 
L 171.611437 141.16484 
L 171.231655 138.863043 
Q 170.434113 140.214521 169.816335 140.740313 
Q 168.778264 141.64 167.180648 141.64 
Q 165.117166 141.64 163.628421 139.583571 
Q 162.005487 137.001352 162.005487 132.499019 
Q 162.005487 128.008371 163.587911 125.356046 
Q 165.091848 122.824458 167.481942 122.824458 
z
M 167.221158 122.797194 
L 167.221158 122.797194 
z
" style="fill:#ffa600;"/>
   </g>
   <g id="patch_28">
    <path clip-path="url(#p3e9f1862c8)" d="M 169.133002 111.665575 
L 167.326501 99.66402 
L 165.40596 111.665575 
L 169.133002 111.665575 
z
M 166.484158 95.627994 
L 168.30621 95.627994 
L 172.624189 122.797194 
L 170.856565 122.797194 
L 169.651367 114.660046 
L 164.944615 114.660046 
L 163.656478 122.797194 
L 162.005487 122.797194 
L 166.484158 95.627994 
z
M 167.318725 95.627994 
L 167.318725 95.627994 
z
" style="fill:#008000;"/>
   </g>
   <g id="patch_29">
    <path clip-path="url(#p3e9f1862c8)" d="M 172.624189 64.295596 
L 172.624189 68.02873 
L 168.21422 68.02873 
L 168.21422 95.627994 
L 166.415455 95.627994 
L 166.415455 68.02873 
L 162.005487 68.02873 
L 162.005487 64.295596 
L 172.624189 64.295596 
z
" style="fill:#ff0000;"/>
   </g>
   <g id="patch_30">
    <path clip-path="url(#p3e9f1862c8)" d="M 167.58865 28.8 
Q 169.862596 28.8 171.116917 32.177037 
Q 172.371238 35.546733 172.509448 39.834101 
L 170.92916 39.834101 
Q 170.660563 36.581868 169.857381 34.680449 
Q 169.054198 32.771689 167.604296 32.771689 
Q 165.836251 32.771689 164.748825 36.27353 
Q 163.661399 39.768029 163.661399 46.991952 
Q 163.661399 52.916449 164.641908 56.601824 
Q 165.625025 60.279858 167.573004 60.279858 
Q 169.364518 60.279858 170.303304 56.403607 
Q 170.798773 54.362702 171.043901 51.029713 
L 172.624189 51.029713 
Q 172.412962 56.352217 171.223834 59.956837 
Q 169.797403 64.295596 167.377423 64.295596 
Q 165.291234 64.295596 163.872626 60.735024 
Q 162.005487 56.036538 162.005487 46.213765 
Q 162.005487 38.762259 163.408449 33.990359 
Q 164.923544 28.8 167.58865 28.8 
z
M 167.262683 28.8 
L 167.262683 28.8 
z
" style="fill:#0000ff;"/>
   </g>
   <g id="patch_31">
    <path clip-path="url(#p3e9f1862c8)" d="M 178.659523 121.785164 
Q 180.297649 121.785164 181.492696 122.812635 
Q 183.224501 124.288082 183.611879 127.986975 
L 182.054773 127.986975 
Q 181.768671 125.919705 180.874917 124.974432 
Q 179.981164 124.029159 178.619013 124.029159 
Q 177.006206 124.029159 175.902306 125.997792 
Q 174.798407 127.962316 174.798407 131.854373 
Q 174.798407 135.216256 175.707352 137.328735 
Q 176.618828 139.441214 178.674714 139.441214 
Q 180.249543 139.441214 181.28255 137.961656 
Q 182.315557 136.477989 182.338344 133.161315 
L 178.700033 133.161315 
L 178.700033 131.044726 
L 183.80177 131.044726 
L 183.80177 141.138595 
L 182.789018 141.138595 
L 182.409236 138.709655 
Q 181.611694 140.135784 180.993916 140.690617 
Q 179.955845 141.64 178.358229 141.64 
Q 176.294748 141.64 174.806003 139.469983 
Q 173.183068 136.745132 173.183068 131.994109 
Q 173.183068 127.255416 174.765492 124.456587 
Q 176.269429 121.785164 178.659523 121.785164 
z
M 178.398739 121.756395 
L 178.398739 121.756395 
z
" style="fill:#ffa600;"/>
   </g>
   <g id="patch_32">
    <path clip-path="url(#p3e9f1862c8)" d="M 180.310583 109.771914 
L 178.504082 96.850846 
L 176.583541 109.771914 
L 180.310583 109.771914 
z
M 177.661739 92.505596 
L 179.483791 92.505596 
L 183.80177 121.756395 
L 182.034146 121.756395 
L 180.828948 112.995809 
L 176.122196 112.995809 
L 174.83406 121.756395 
L 173.183068 121.756395 
L 177.661739 92.505596 
z
M 178.496307 92.505596 
L 178.496307 92.505596 
z
" style="fill:#008000;"/>
   </g>
   <g id="patch_33">
    <path clip-path="url(#p3e9f1862c8)" d="M 183.80177 63.254796 
L 183.80177 66.739917 
L 179.391802 66.739917 
L 179.391802 92.505596 
L 177.593036 92.505596 
L 177.593036 66.739917 
L 173.183068 66.739917 
L 173.183068 63.254796 
L 183.80177 63.254796 
z
" style="fill:#ff0000;"/>
   </g>
   <g id="patch_34">
    <path clip-path="url(#p3e9f1862c8)" d="M 178.766231 28.8 
Q 181.040177 28.8 182.294498 32.078016 
Q 183.548819 35.348905 183.68703 39.51056 
L 182.106741 39.51056 
Q 181.838145 36.353689 181.034962 34.508023 
Q 180.231779 32.655232 178.781878 32.655232 
Q 177.013832 32.655232 175.926406 36.054391 
Q 174.83898 39.446425 174.83898 46.458528 
Q 174.83898 52.209308 175.819489 55.786621 
Q 176.802606 59.356808 178.750585 59.356808 
Q 180.5421 59.356808 181.480885 55.594216 
Q 181.976355 53.613154 182.221482 50.377895 
L 183.80177 50.377895 
Q 183.590543 55.544333 182.401416 59.043259 
Q 180.974984 63.254796 178.555005 63.254796 
Q 176.468816 63.254796 175.050207 59.798627 
Q 173.183068 55.23791 173.183068 45.70316 
Q 173.183068 38.470147 174.58603 33.838168 
Q 176.101125 28.8 178.766231 28.8 
z
M 178.440264 28.8 
L 178.440264 28.8 
z
" style="fill:#0000ff;"/>
   </g>
   <g id="patch_35">
    <path clip-path="url(#p3e9f1862c8)" d="M 189.837104 120.745871 
Q 191.47523 120.745871 192.670277 121.827124 
Q 194.402083 123.379803 194.78946 127.272313 
L 193.232354 127.272313 
Q 192.946252 125.096832 192.052498 124.102079 
Q 191.158745 123.107327 189.796594 123.107327 
Q 188.183787 123.107327 187.079887 125.179007 
Q 185.975988 127.246363 185.975988 131.342148 
Q 185.975988 134.880007 186.884933 137.103063 
Q 187.796409 139.326119 189.852295 139.326119 
Q 191.427124 139.326119 192.460131 137.769115 
Q 193.493138 136.207786 193.515925 132.717502 
L 189.877614 132.717502 
L 189.877614 130.490121 
L 194.979351 130.490121 
L 194.979351 141.112349 
L 193.966599 141.112349 
L 193.586817 138.556267 
Q 192.789275 140.057046 192.171497 140.640922 
Q 191.133426 141.64 189.53581 141.64 
Q 187.472329 141.64 185.983584 139.356394 
Q 184.360649 136.488912 184.360649 131.489199 
Q 184.360649 126.502461 185.943074 123.557128 
Q 187.44701 120.745871 189.837104 120.745871 
z
M 189.57632 120.715596 
L 189.57632 120.715596 
z
" style="fill:#ffa600;"/>
   </g>
   <g id="patch_36">
    <path clip-path="url(#p3e9f1862c8)" d="M 191.488164 110.863268 
L 189.681663 100.240982 
L 187.761122 110.863268 
L 191.488164 110.863268 
z
M 188.83932 96.668793 
L 190.661373 96.668793 
L 194.979351 120.715596 
L 193.211727 120.715596 
L 192.006529 113.513602 
L 187.299777 113.513602 
L 186.011641 120.715596 
L 184.360649 120.715596 
L 188.83932 96.668793 
z
M 189.673888 96.668793 
L 189.673888 96.668793 
z
" style="fill:#008000;"/>
   </g>
   <g id="patch_37">
    <path clip-path="url(#p3e9f1862c8)" d="M 189.943812 66.377194 
Q 192.217758 66.377194 193.472079 69.259125 
Q 194.726401 72.134791 194.864611 75.79359 
L 193.284322 75.79359 
Q 193.015726 73.018165 192.212543 71.395513 
Q 191.40936 69.766596 189.959459 69.766596 
Q 188.191414 69.766596 187.103988 72.755033 
Q 186.016561 75.737205 186.016561 81.90203 
Q 186.016561 86.957939 186.99707 90.103003 
Q 187.980187 93.241802 189.928166 93.241802 
Q 191.719681 93.241802 192.658466 89.933846 
Q 193.153936 88.192158 193.399063 85.347817 
L 194.979351 85.347817 
Q 194.768124 89.889991 193.578997 92.966139 
Q 192.152565 96.668793 189.732586 96.668793 
Q 187.646397 96.668793 186.227788 93.630236 
Q 184.360649 89.620593 184.360649 81.237933 
Q 184.360649 74.87889 185.763611 70.806597 
Q 187.278706 66.377194 189.943812 66.377194 
z
M 189.617845 66.377194 
L 189.617845 66.377194 
z
" style="fill:#0000ff;"/>
   </g>
   <g id="patch_38">
    <path clip-path="url(#p3e9f1862c8)" d="M 194.979351 28.8 
L 194.979351 33.277178 
L 190.569383 33.277178 
L 190.569383 66.377194 
L 188.770617 66.377194 
L 188.770617 33.277178 
L 184.360649 33.277178 
L 184.360649 28.8 
L 194.979351 28.8 
z
" style="fill:#ff0000;"/>
   </g>
   <g id="patch_39">
    <path clip-path="url(#p3e9f1862c8)" d="M 206.156932 119.674796 
L 206.156932 122.291866 
L 201.746964 122.291866 
L 201.746964 141.64 
L 199.948198 141.64 
L 199.948198 122.291866 
L 195.53823 122.291866 
L 195.53823 119.674796 
L 206.156932 119.674796 
z
" style="fill:#ff0000;"/>
   </g>
   <g id="patch_40">
    <path clip-path="url(#p3e9f1862c8)" d="M 201.014685 96.70208 
Q 202.652811 96.70208 203.847858 97.890898 
Q 205.579664 99.59804 205.967041 103.877785 
L 204.409935 103.877785 
Q 204.123833 101.485883 203.23008 100.392171 
Q 202.336326 99.298458 200.974175 99.298458 
Q 199.361368 99.298458 198.257469 101.576233 
Q 197.153569 103.849253 197.153569 108.352495 
Q 197.153569 112.242307 198.062514 114.686517 
Q 198.97399 117.130726 201.029876 117.130726 
Q 202.604705 117.130726 203.637712 115.418828 
Q 204.670719 113.702175 204.693506 109.864671 
L 201.055195 109.864671 
L 201.055195 107.415707 
L 206.156932 107.415707 
L 206.156932 119.094653 
L 205.14418 119.094653 
L 204.764399 116.284288 
Q 203.966857 117.934367 203.349078 118.576329 
Q 202.311007 119.674796 200.713392 119.674796 
Q 198.64991 119.674796 197.161165 117.164013 
Q 195.53823 114.011268 195.53823 108.514174 
Q 195.53823 103.031346 197.120655 99.793007 
Q 198.624591 96.70208 201.014685 96.70208 
z
M 200.753902 96.668793 
L 200.753902 96.668793 
z
" style="fill:#ffa600;"/>
   </g>
   <g id="patch_41">
    <path clip-path="url(#p3e9f1862c8)" d="M 202.665746 84.684312 
L 200.859244 71.763244 
L 198.938703 84.684312 
L 202.665746 84.684312 
z
M 200.016902 67.417994 
L 201.838954 67.417994 
L 206.156932 96.668793 
L 204.389308 96.668793 
L 203.18411 87.908207 
L 198.477358 87.908207 
L 197.189222 96.668793 
L 195.53823 96.668793 
L 200.016902 67.417994 
z
M 200.851469 67.417994 
L 200.851469 67.417994 
z
" style="fill:#008000;"/>
   </g>
   <g id="patch_42">
    <path clip-path="url(#p3e9f1862c8)" d="M 201.121393 28.8 
Q 203.395339 28.8 204.649661 32.474101 
Q 205.903982 36.140214 206.042192 40.804725 
L 204.461904 40.804725 
Q 204.193307 37.266406 203.390124 35.197728 
Q 202.586941 33.121062 201.13704 33.121062 
Q 199.368995 33.121062 198.281569 36.930945 
Q 197.194143 40.73284 197.194143 48.592221 
Q 197.194143 55.037872 198.174651 59.047434 
Q 199.157768 63.049009 201.105747 63.049009 
Q 202.897262 63.049009 203.836047 58.83178 
Q 204.331517 56.611345 204.576644 52.985168 
L 206.156932 52.985168 
Q 205.945706 58.77587 204.756578 62.697573 
Q 203.330146 67.417994 200.910167 67.417994 
Q 198.823978 67.417994 197.405369 63.544214 
Q 195.53823 58.432421 195.53823 47.74558 
Q 195.53823 39.638597 196.941192 34.446933 
Q 198.456287 28.8 201.121393 28.8 
z
M 200.795426 28.8 
L 200.795426 28.8 
z
" style="fill:#0000ff;"/>
   </g>
   <g id="patch_43">
    <path clip-path="url(#p3e9f1862c8)" d="M 213.843327 133.066965 
L 212.036825 123.823948 
L 210.116284 133.066965 
L 213.843327 133.066965 
z
M 211.194483 120.715596 
L 213.016535 120.715596 
L 217.334513 141.64 
L 215.566889 141.64 
L 214.361691 135.373161 
L 209.654939 135.373161 
L 208.366803 141.64 
L 206.715811 141.64 
L 211.194483 120.715596 
z
M 212.02905 120.715596 
L 212.02905 120.715596 
z
" style="fill:#008000;"/>
   </g>
   <g id="patch_44">
    <path clip-path="url(#p3e9f1862c8)" d="M 212.192266 95.664293 
Q 213.830392 95.664293 215.025439 96.960675 
Q 216.757245 98.822281 217.144622 103.48926 
L 215.587517 103.48926 
Q 215.301414 100.880937 214.407661 99.688265 
Q 213.513907 98.495593 212.151756 98.495593 
Q 210.538949 98.495593 209.43505 100.979462 
Q 208.33115 103.458147 208.33115 108.368845 
Q 208.33115 112.61061 209.240095 115.275973 
Q 210.151572 117.941336 212.207458 117.941336 
Q 213.782287 117.941336 214.815293 116.074545 
Q 215.8483 114.202568 215.871087 110.017844 
L 212.232776 110.017844 
L 212.232776 107.347295 
L 217.334513 107.347295 
L 217.334513 120.082961 
L 216.321762 120.082961 
L 215.94198 117.018312 
Q 215.144438 118.817691 214.526659 119.517738 
Q 213.488589 120.715596 211.890973 120.715596 
Q 209.827491 120.715596 208.338746 117.977635 
Q 206.715811 114.539628 206.715811 108.545153 
Q 206.715811 102.566235 208.298236 99.034888 
Q 209.802172 95.664293 212.192266 95.664293 
z
M 211.931483 95.627994 
L 211.931483 95.627994 
z
" style="fill:#ffa600;"/>
   </g>
   <g id="patch_45">
    <path clip-path="url(#p3e9f1862c8)" d="M 217.334513 66.377194 
L 217.334513 69.862315 
L 212.924545 69.862315 
L 212.924545 95.627994 
L 211.12578 95.627994 
L 211.12578 69.862315 
L 206.715811 69.862315 
L 206.715811 66.377194 
L 217.334513 66.377194 
z
" style="fill:#ff0000;"/>
   </g>
   <g id="patch_46">
    <path clip-path="url(#p3e9f1862c8)" d="M 212.298975 28.8 
Q 214.572921 28.8 215.827242 32.37508 
Q 217.081563 35.942387 217.219773 40.481184 
L 215.639485 40.481184 
Q 215.370888 37.038227 214.567705 35.025302 
Q 213.764522 33.004604 212.314621 33.004604 
Q 210.546576 33.004604 209.45915 36.711806 
Q 208.371724 40.411237 208.371724 48.058798 
Q 208.371724 54.330731 209.352233 58.232231 
Q 210.335349 62.125959 212.283328 62.125959 
Q 214.074843 62.125959 215.013628 58.022389 
Q 215.509098 55.861798 215.754225 52.33335 
L 217.334513 52.33335 
Q 217.123287 57.967986 215.934159 61.783994 
Q 214.507727 66.377194 212.087748 66.377194 
Q 210.001559 66.377194 208.58295 62.607817 
Q 206.715811 57.633793 206.715811 47.234975 
Q 206.715811 39.346485 208.118773 34.294742 
Q 209.633868 28.8 212.298975 28.8 
z
M 211.973008 28.8 
L 211.973008 28.8 
z
" style="fill:#0000ff;"/>
   </g>
   <g id="patch_47">
    <path clip-path="url(#p3e9f1862c8)" d="M 223.369847 118.667284 
Q 225.007973 118.667284 226.20302 119.856102 
Q 227.934826 121.563244 228.322203 125.842988 
L 226.765098 125.842988 
Q 226.478995 123.451087 225.585242 122.357374 
Q 224.691488 121.263662 223.329337 121.263662 
Q 221.71653 121.263662 220.612631 123.541437 
Q 219.508731 125.814457 219.508731 130.317699 
Q 219.508731 134.207511 220.417676 136.65172 
Q 221.329153 139.09593 223.385039 139.09593 
Q 224.959868 139.09593 225.992874 137.384032 
Q 227.025881 135.667379 227.048668 131.829875 
L 223.410357 131.829875 
L 223.410357 129.38091 
L 228.512094 129.38091 
L 228.512094 141.059857 
L 227.499343 141.059857 
L 227.119561 138.249491 
Q 226.322019 139.899571 225.70424 140.541532 
Q 224.66617 141.64 223.068554 141.64 
Q 221.005072 141.64 219.516327 139.129217 
Q 217.893392 135.976472 217.893392 130.479378 
Q 217.893392 124.99655 219.475817 121.75821 
Q 220.979753 118.667284 223.369847 118.667284 
z
M 223.109064 118.633997 
L 223.109064 118.633997 
z
" style="fill:#ffa600;"/>
   </g>
   <g id="patch_48">
    <path clip-path="url(#p3e9f1862c8)" d="M 225.020908 107.075946 
L 223.214407 94.614635 
L 221.293865 107.075946 
L 225.020908 107.075946 
z
M 222.372064 90.423997 
L 224.194116 90.423997 
L 228.512094 118.633997 
L 226.744471 118.633997 
L 225.539273 110.18513 
L 220.832521 110.18513 
L 219.544384 118.633997 
L 217.893392 118.633997 
L 222.372064 90.423997 
z
M 223.206631 90.423997 
L 223.206631 90.423997 
z
" style="fill:#008000;"/>
   </g>
   <g id="patch_49">
    <path clip-path="url(#p3e9f1862c8)" d="M 223.476556 60.132398 
Q 225.750502 60.132398 227.004823 63.014329 
Q 228.259144 65.889995 228.397354 69.548794 
L 226.817066 69.548794 
Q 226.548469 66.773369 225.745286 65.150717 
Q 224.942103 63.521799 223.492202 63.521799 
Q 221.724157 63.521799 220.636731 66.510236 
Q 219.549305 69.492408 219.549305 75.657234 
Q 219.549305 80.713143 220.529814 83.858207 
Q 221.51293 86.997005 223.460909 86.997005 
Q 225.252424 86.997005 226.191209 83.68905 
Q 226.686679 81.947361 226.931806 79.103021 
L 228.512094 79.103021 
Q 228.300868 83.645194 227.11174 86.721342 
Q 225.685308 90.423997 223.265329 90.423997 
Q 221.17914 90.423997 219.760531 87.385439 
Q 217.893392 83.375797 217.893392 74.993137 
Q 217.893392 68.634094 219.296354 64.5618 
Q 220.811449 60.132398 223.476556 60.132398 
z
M 223.150589 60.132398 
L 223.150589 60.132398 
z
" style="fill:#0000ff;"/>
   </g>
   <g id="patch_50">
    <path clip-path="url(#p3e9f1862c8)" d="M 228.512094 28.8 
L 228.512094 32.533135 
L 224.102126 32.533135 
L 224.102126 60.132398 
L 222.303361 60.132398 
L 222.303361 32.533135 
L 217.893392 32.533135 
L 217.893392 28.8 
L 228.512094 28.8 
z
" style="fill:#ff0000;"/>
   </g>
   <g id="patch_51">
    <path clip-path="url(#p3e9f1862c8)" d="M 239.689676 122.797194 
L 239.689676 125.042242 
L 235.279707 125.042242 
L 235.279707 141.64 
L 233.480942 141.64 
L 233.480942 125.042242 
L 229.070973 125.042242 
L 229.070973 122.797194 
L 239.689676 122.797194 
z
" style="fill:#ff0000;"/>
   </g>
   <g id="patch_52">
    <path clip-path="url(#p3e9f1862c8)" d="M 234.547429 98.785185 
Q 236.185554 98.785185 237.380602 100.027785 
Q 239.112407 101.812159 239.499785 106.285521 
L 237.942679 106.285521 
Q 237.656576 103.785409 236.762823 102.642216 
Q 235.86907 101.499024 234.506918 101.499024 
Q 232.894111 101.499024 231.790212 103.879846 
Q 230.686312 106.255698 230.686312 110.962668 
Q 230.686312 115.028457 231.595257 117.583243 
Q 232.506734 120.13803 234.56262 120.13803 
Q 236.137449 120.13803 237.170456 118.348685 
Q 238.203462 116.55437 238.226249 112.543256 
L 234.587939 112.543256 
L 234.587939 109.983499 
L 239.689676 109.983499 
L 239.689676 122.190805 
L 238.676924 122.190805 
L 238.297142 119.253298 
Q 237.4996 120.978028 236.881821 121.649032 
Q 235.843751 122.797194 234.246135 122.797194 
Q 232.182653 122.797194 230.693908 120.172822 
Q 229.070973 116.877446 229.070973 111.131662 
Q 229.070973 105.400789 230.653398 102.015946 
Q 232.157334 98.785185 234.547429 98.785185 
z
M 234.286645 98.750392 
L 234.286645 98.750392 
z
" style="fill:#ffa600;"/>
   </g>
   <g id="patch_53">
    <path clip-path="url(#p3e9f1862c8)" d="M 234.654137 65.336395 
Q 236.928083 65.336395 238.182404 68.51539 
Q 239.436725 71.687473 239.574935 75.723414 
L 237.994647 75.723414 
Q 237.72605 72.661904 236.922867 70.871992 
Q 236.119685 69.075169 234.669783 69.075169 
Q 232.901738 69.075169 231.814312 72.371648 
Q 230.726886 75.661216 230.726886 82.4615 
Q 230.726886 88.038563 231.707395 91.507813 
Q 232.690511 94.970153 234.63849 94.970153 
Q 236.430005 94.970153 237.36879 91.32122 
Q 237.86426 89.400002 238.109387 86.262472 
L 239.689676 86.262472 
Q 239.478449 91.272844 238.289321 94.666075 
Q 236.862889 98.750392 234.44291 98.750392 
Q 232.356721 98.750392 230.938113 95.398626 
Q 229.070973 90.975677 229.070973 81.72895 
Q 229.070973 74.714429 230.473936 70.222371 
Q 231.98903 65.336395 234.654137 65.336395 
z
M 234.32817 65.336395 
L 234.32817 65.336395 
z
" style="fill:#0000ff;"/>
   </g>
   <g id="patch_54">
    <path clip-path="url(#p3e9f1862c8)" d="M 236.198489 50.366898 
L 234.391988 34.227537 
L 232.471446 50.366898 
L 236.198489 50.366898 
z
M 233.549645 28.8 
L 235.371697 28.8 
L 239.689676 65.336395 
L 237.922052 65.336395 
L 236.716854 54.393781 
L 232.010102 54.393781 
L 230.721965 65.336395 
L 229.070973 65.336395 
L 233.549645 28.8 
z
M 234.384212 28.8 
L 234.384212 28.8 
z
" style="fill:#008000;"/>
   </g>
   <g id="patch_55">
    <path clip-path="url(#p3e9f1862c8)" d="M 250.867257 122.797194 
L 250.867257 125.042242 
L 246.457288 125.042242 
L 246.457288 141.64 
L 244.658523 141.64 
L 244.658523 125.042242 
L 240.248555 125.042242 
L 240.248555 122.797194 
L 250.867257 122.797194 
z
" style="fill:#ff0000;"/>
   </g>
   <g id="patch_56">
    <path clip-path="url(#p3e9f1862c8)" d="M 245.831718 101.87279 
Q 248.105664 101.87279 249.359985 103.86353 
Q 250.614306 105.849942 250.752516 108.377315 
L 249.172228 108.377315 
Q 248.903631 106.460147 248.100448 105.339274 
Q 247.297266 104.214073 245.847364 104.214073 
Q 244.079319 104.214073 242.991893 106.278383 
Q 241.904467 108.338366 241.904467 112.596818 
Q 241.904467 116.089268 242.884976 118.26177 
Q 243.868093 120.429945 245.816071 120.429945 
Q 247.607586 120.429945 248.546371 118.144923 
Q 249.041841 116.941823 249.286968 114.97705 
L 250.867257 114.97705 
Q 250.65603 118.114629 249.466902 120.239527 
Q 248.040471 122.797194 245.620491 122.797194 
Q 243.534302 122.797194 242.115694 120.698262 
Q 240.248555 117.928538 240.248555 112.138082 
Q 240.248555 107.745472 241.651517 104.93247 
Q 243.166611 101.87279 245.831718 101.87279 
z
M 245.505751 101.87279 
L 245.505751 101.87279 
z
" style="fill:#0000ff;"/>
   </g>
   <g id="patch_57">
    <path clip-path="url(#p3e9f1862c8)" d="M 247.37607 88.182586 
L 245.569569 73.422493 
L 243.649027 88.182586 
L 247.37607 88.182586 
z
M 244.727226 68.458793 
L 246.549278 68.458793 
L 250.867257 101.87279 
L 249.099633 101.87279 
L 247.894435 91.865331 
L 243.187683 91.865331 
L 241.899546 101.87279 
L 240.248555 101.87279 
L 244.727226 68.458793 
z
M 245.561793 68.458793 
L 245.561793 68.458793 
z
" style="fill:#008000;"/>
   </g>
   <g id="patch_58">
    <path clip-path="url(#p3e9f1862c8)" d="M 245.72501 28.857381 
Q 247.363136 28.857381 248.558183 30.90672 
Q 250.289988 33.849569 250.677366 41.227187 
L 249.12026 41.227187 
Q 248.834158 37.103918 247.940404 35.218527 
Q 247.046651 33.333136 245.6845 33.333136 
Q 244.071692 33.333136 242.967793 37.259668 
Q 241.863894 41.178003 241.863894 48.940896 
Q 241.863894 55.646331 242.772838 59.85977 
Q 243.684315 64.073209 245.740201 64.073209 
Q 247.31503 64.073209 248.348037 61.122162 
Q 249.381043 58.162918 249.40383 51.547654 
L 245.76552 51.547654 
L 245.76552 47.326018 
L 250.867257 47.326018 
L 250.867257 67.458716 
L 249.854505 67.458716 
L 249.474723 62.614081 
Q 248.677181 65.458562 248.059402 66.565205 
Q 247.021332 68.458793 245.423716 68.458793 
Q 243.360234 68.458793 241.871489 64.130591 
Q 240.248555 58.695746 240.248555 49.219606 
Q 240.248555 39.768058 241.830979 34.185661 
Q 243.334916 28.857381 245.72501 28.857381 
z
M 245.464226 28.8 
L 245.464226 28.8 
z
" style="fill:#ffa600;"/>
   </g>
   <g id="patch_59">
    <path clip-path="url(#p3e9f1862c8)" d="M 257.009299 121.756395 
Q 259.283245 121.756395 260.537566 123.648113 
Q 261.791887 125.535719 261.930097 127.937379 
L 260.349809 127.937379 
Q 260.081212 126.115572 259.27803 125.050452 
Q 258.474847 123.98122 257.024945 123.98122 
Q 255.2569 123.98122 254.169474 125.94285 
Q 253.082048 127.900367 253.082048 131.947 
Q 253.082048 135.265732 254.062557 137.330172 
Q 255.045674 139.3905 256.993653 139.3905 
Q 258.785167 139.3905 259.723952 137.219136 
Q 260.219422 136.075881 260.46455 134.208837 
L 262.044838 134.208837 
Q 261.833611 137.190349 260.644483 139.209553 
Q 259.218052 141.64 256.798072 141.64 
Q 254.711883 141.64 253.293275 139.645471 
Q 251.426136 137.013515 251.426136 131.511082 
Q 251.426136 127.336964 252.829098 124.663884 
Q 254.344193 121.756395 257.009299 121.756395 
z
M 256.683332 121.756395 
L 256.683332 121.756395 
z
" style="fill:#0000ff;"/>
   </g>
   <g id="patch_60">
    <path clip-path="url(#p3e9f1862c8)" d="M 258.553651 113.18336 
L 256.74715 103.940343 
L 254.826609 113.18336 
L 258.553651 113.18336 
z
M 255.904807 100.831991 
L 257.726859 100.831991 
L 262.044838 121.756395 
L 260.277214 121.756395 
L 259.072016 115.489557 
L 254.365264 115.489557 
L 253.077127 121.756395 
L 251.426136 121.756395 
L 255.904807 100.831991 
z
M 256.739374 100.831991 
L 256.739374 100.831991 
z
" style="fill:#008000;"/>
   </g>
   <g id="patch_61">
    <path clip-path="url(#p3e9f1862c8)" d="M 262.044838 70.540392 
L 262.044838 74.14952 
L 257.634869 74.14952 
L 257.634869 100.831991 
L 255.836104 100.831991 
L 255.836104 74.14952 
L 251.426136 74.14952 
L 251.426136 70.540392 
L 262.044838 70.540392 
z
" style="fill:#ff0000;"/>
   </g>
   <g id="patch_62">
    <path clip-path="url(#p3e9f1862c8)" d="M 256.902591 28.860393 
Q 258.540717 28.860393 259.735764 31.017297 
Q 261.467569 34.11461 261.854947 41.879461 
L 260.297841 41.879461 
Q 260.011739 37.539772 259.117985 35.555421 
Q 258.224232 33.57107 256.862081 33.57107 
Q 255.249274 33.57107 254.145374 37.703697 
Q 253.041475 41.827696 253.041475 49.998045 
Q 253.041475 57.055433 253.950419 61.490026 
Q 254.861896 65.924619 256.917782 65.924619 
Q 258.492611 65.924619 259.525618 62.818678 
Q 260.558625 59.70411 260.581411 52.741626 
L 256.943101 52.741626 
L 256.943101 48.298406 
L 262.044838 48.298406 
L 262.044838 69.487823 
L 261.032086 69.487823 
L 260.652304 64.388904 
Q 259.854762 67.382686 259.236984 68.547413 
Q 258.198913 70.540392 256.601297 70.540392 
Q 254.537815 70.540392 253.04907 65.985012 
Q 251.426136 60.264905 251.426136 50.291384 
Q 251.426136 40.343746 253.00856 34.468342 
Q 254.512497 28.860393 256.902591 28.860393 
z
M 256.641807 28.8 
L 256.641807 28.8 
z
" style="fill:#ffa600;"/>
   </g>
   <g id="patch_63">
    <path clip-path="url(#p3e9f1862c8)" d="M 268.18688 119.674796 
Q 270.460826 119.674796 271.715147 121.764557 
Q 272.969468 123.849775 273.107678 126.502863 
L 271.52739 126.502863 
Q 271.258793 124.490332 270.455611 123.313706 
Q 269.652428 122.132537 268.202527 122.132537 
Q 266.434481 122.132537 265.347055 124.299528 
Q 264.259629 126.461976 264.259629 130.932247 
Q 264.259629 134.598415 265.240138 136.87898 
Q 266.223255 139.155002 268.171234 139.155002 
Q 269.962749 139.155002 270.901534 136.75632 
Q 271.397003 135.493377 271.642131 133.430874 
L 273.222419 133.430874 
Q 273.011192 136.724519 271.822065 138.955112 
Q 270.395633 141.64 267.975654 141.64 
Q 265.889465 141.64 264.470856 139.436665 
Q 262.603717 136.529172 262.603717 130.450694 
Q 262.603717 125.839591 264.006679 122.886668 
Q 265.521774 119.674796 268.18688 119.674796 
z
M 267.860913 119.674796 
L 267.860913 119.674796 
z
" style="fill:#0000ff;"/>
   </g>
   <g id="patch_64">
    <path clip-path="url(#p3e9f1862c8)" d="M 269.731232 108.116746 
L 267.924731 95.655435 
L 266.00419 108.116746 
L 269.731232 108.116746 
z
M 267.082388 91.464796 
L 268.90444 91.464796 
L 273.222419 119.674796 
L 271.454795 119.674796 
L 270.249597 111.225929 
L 265.542845 111.225929 
L 264.254709 119.674796 
L 262.603717 119.674796 
L 267.082388 91.464796 
z
M 267.916956 91.464796 
L 267.916956 91.464796 
z
" style="fill:#008000;"/>
   </g>
   <g id="patch_65">
    <path clip-path="url(#p3e9f1862c8)" d="M 273.222419 61.173198 
L 273.222419 64.782325 
L 268.812451 64.782325 
L 268.812451 91.464796 
L 267.013685 91.464796 
L 267.013685 64.782325 
L 262.603717 64.782325 
L 262.603717 61.173198 
L 273.222419 61.173198 
z
" style="fill:#ff0000;"/>
   </g>
   <g id="patch_66">
    <path clip-path="url(#p3e9f1862c8)" d="M 268.080172 28.84684 
Q 269.718298 28.84684 270.913345 30.519701 
Q 272.64515 32.921928 273.032528 38.944226 
L 271.475422 38.944226 
Q 271.18932 35.578431 270.295566 34.039399 
Q 269.401813 32.500368 268.039662 32.500368 
Q 266.426855 32.500368 265.322955 35.705568 
Q 264.219056 38.904078 264.219056 45.240874 
Q 264.219056 50.714473 265.128001 54.153875 
Q 266.039477 57.593276 268.095363 57.593276 
Q 269.670192 57.593276 270.703199 55.184357 
Q 271.736206 52.768746 271.758993 47.368752 
L 268.120682 47.368752 
L 268.120682 43.922659 
L 273.222419 43.922659 
L 273.222419 60.356842 
L 272.209667 60.356842 
L 271.829885 56.402199 
Q 271.032343 58.72413 270.414565 59.627474 
Q 269.376494 61.173198 267.778878 61.173198 
Q 265.715397 61.173198 264.226651 57.640116 
Q 262.603717 53.20369 262.603717 45.468383 
Q 262.603717 37.75315 264.186141 33.196278 
Q 265.690078 28.84684 268.080172 28.84684 
z
M 267.819388 28.8 
L 267.819388 28.8 
z
" style="fill:#ffa600;"/>
   </g>
   <g id="patch_67">
    <path clip-path="url(#p3e9f1862c8)" d="M 284.4 130.08279 
L 284.4 131.459787 
L 279.990032 131.459787 
L 279.990032 141.64 
L 278.191266 141.64 
L 278.191266 131.459787 
L 273.781298 131.459787 
L 273.781298 130.08279 
L 284.4 130.08279 
z
" style="fill:#ff0000;"/>
   </g>
   <g id="patch_68">
    <path clip-path="url(#p3e9f1862c8)" d="M 279.257753 115.424422 
Q 280.895879 115.424422 282.090926 116.182979 
Q 283.822732 117.272268 284.210109 120.003076 
L 282.653003 120.003076 
Q 282.366901 118.476858 281.473147 117.778985 
Q 280.579394 117.081112 279.217243 117.081112 
Q 277.604436 117.081112 276.500536 118.534508 
Q 275.396637 119.98487 275.396637 122.858287 
Q 275.396637 125.340288 276.305582 126.899882 
Q 277.217058 128.459477 279.272944 128.459477 
Q 280.847773 128.459477 281.88078 127.367154 
Q 282.913787 126.271796 282.936574 123.823172 
L 279.298263 123.823172 
L 279.298263 122.260543 
L 284.4 122.260543 
L 284.4 129.712614 
L 283.387248 129.712614 
L 283.007466 127.919384 
Q 282.209924 128.972262 281.592146 129.381883 
Q 280.554075 130.08279 278.956459 130.08279 
Q 276.892978 130.08279 275.404233 128.480716 
Q 273.781298 126.469021 273.781298 122.961451 
Q 273.781298 119.462983 275.363723 117.396672 
Q 276.867659 115.424422 279.257753 115.424422 
z
M 278.996969 115.403182 
L 278.996969 115.403182 
z
" style="fill:#ffa600;"/>
   </g>
   <g id="patch_69">
    <path clip-path="url(#p3e9f1862c8)" d="M 279.364461 95.519577 
Q 281.638407 95.519577 282.892728 97.411296 
Q 284.14705 99.298902 284.28526 101.700561 
L 282.704971 101.700561 
Q 282.436375 99.878754 281.633192 98.813635 
Q 280.830009 97.744403 279.380108 97.744403 
Q 277.612063 97.744403 276.524636 99.706032 
Q 275.43721 101.663549 275.43721 105.710182 
Q 275.43721 109.028914 276.417719 111.093354 
Q 277.400836 113.153682 279.348815 113.153682 
Q 281.14033 113.153682 282.079115 110.982319 
Q 282.574585 109.839063 282.819712 107.972019 
L 284.4 107.972019 
Q 284.188773 110.953532 282.999646 112.972735 
Q 281.573214 115.403182 279.153235 115.403182 
Q 277.067046 115.403182 275.648437 113.408653 
Q 273.781298 110.776697 273.781298 105.274264 
Q 273.781298 101.100146 275.18426 98.427066 
Q 276.699355 95.519577 279.364461 95.519577 
z
M 279.038494 95.519577 
L 279.038494 95.519577 
z
" style="fill:#0000ff;"/>
   </g>
   <g id="patch_70">
    <path clip-path="url(#p3e9f1862c8)" d="M 280.908813 68.183588 
L 279.102312 38.711294 
L 277.181771 68.183588 
L 280.908813 68.183588 
z
M 278.259969 28.8 
L 280.082022 28.8 
L 284.4 95.519577 
L 282.632376 95.519577 
L 281.427178 75.537129 
L 276.720426 75.537129 
L 275.43229 95.519577 
L 273.781298 95.519577 
L 278.259969 28.8 
z
M 279.094537 28.8 
L 279.094537 28.8 
z
" style="fill:#008000;"/>
   </g>
   <g id="matplotlib.axis_1">
    <g id="xtick_1">
     <g id="text_1">
      <!-- 0 -->
      <g style="fill:#262626;" transform="translate(94.688414 162.986875)scale(0.2 -0.2)">
       <defs>
        <path d="M 1731 4475 
Q 2600 4475 2988 3759 
Q 3288 3206 3288 2244 
Q 3288 1331 3016 734 
Q 2622 -122 1728 -122 
Q 922 -122 528 578 
Q 200 1163 200 2147 
Q 200 2909 397 3456 
Q 766 4475 1731 4475 
z
M 1725 391 
Q 2163 391 2422 778 
Q 2681 1166 2681 2222 
Q 2681 2984 2493 3476 
Q 2306 3969 1766 3969 
Q 1269 3969 1039 3501 
Q 809 3034 809 2125 
Q 809 1441 956 1025 
Q 1181 391 1725 391 
z
" id="Helvetica-30" transform="scale(0.015625)"/>
       </defs>
       <use xlink:href="#Helvetica-30"/>
      </g>
     </g>
    </g>
    <g id="xtick_2">
     <g id="text_2">
      <!-- 10 -->
      <g style="fill:#262626;" transform="translate(200.903287 162.986875)scale(0.2 -0.2)">
       <defs>
        <path d="M 613 3169 
L 613 3600 
Q 1222 3659 1462 3798 
Q 1703 3938 1822 4456 
L 2266 4456 
L 2266 0 
L 1666 0 
L 1666 3169 
L 613 3169 
z
" id="Helvetica-31" transform="scale(0.015625)"/>
       </defs>
       <use xlink:href="#Helvetica-31"/>
       <use x="55.615234" xlink:href="#Helvetica-30"/>
      </g>
     </g>
    </g>
    <g id="text_3">
     <!-- Position -->
     <g style="fill:#262626;" transform="translate(145.20125 189.089219)scale(0.25 -0.25)">
      <defs>
       <path d="M 547 4591 
L 2613 4591 
Q 3225 4591 3600 4245 
Q 3975 3900 3975 3275 
Q 3975 2738 3640 2339 
Q 3306 1941 2613 1941 
L 1169 1941 
L 1169 0 
L 547 0 
L 547 4591 
z
M 3347 3272 
Q 3347 3778 2972 3959 
Q 2766 4056 2406 4056 
L 1169 4056 
L 1169 2466 
L 2406 2466 
Q 2825 2466 3086 2644 
Q 3347 2822 3347 3272 
z
" id="Helvetica-50" transform="scale(0.015625)"/>
       <path d="M 1741 363 
Q 2300 363 2508 786 
Q 2716 1209 2716 1728 
Q 2716 2197 2566 2491 
Q 2328 2953 1747 2953 
Q 1231 2953 997 2559 
Q 763 2166 763 1609 
Q 763 1075 997 719 
Q 1231 363 1741 363 
z
M 1763 3444 
Q 2409 3444 2856 3012 
Q 3303 2581 3303 1744 
Q 3303 934 2909 406 
Q 2516 -122 1688 -122 
Q 997 -122 590 345 
Q 184 813 184 1600 
Q 184 2444 612 2944 
Q 1041 3444 1763 3444 
z
M 1744 3428 
L 1744 3428 
z
" id="Helvetica-6f" transform="scale(0.015625)"/>
       <path d="M 747 1050 
Q 772 769 888 619 
Q 1100 347 1625 347 
Q 1938 347 2175 483 
Q 2413 619 2413 903 
Q 2413 1119 2222 1231 
Q 2100 1300 1741 1391 
L 1294 1503 
Q 866 1609 663 1741 
Q 300 1969 300 2372 
Q 300 2847 642 3140 
Q 984 3434 1563 3434 
Q 2319 3434 2653 2991 
Q 2863 2709 2856 2384 
L 2325 2384 
Q 2309 2575 2191 2731 
Q 1997 2953 1519 2953 
Q 1200 2953 1036 2831 
Q 872 2709 872 2509 
Q 872 2291 1088 2159 
Q 1213 2081 1456 2022 
L 1828 1931 
Q 2434 1784 2641 1647 
Q 2969 1431 2969 969 
Q 2969 522 2630 197 
Q 2291 -128 1597 -128 
Q 850 -128 539 211 
Q 228 550 206 1050 
L 747 1050 
z
M 1578 3428 
L 1578 3428 
z
" id="Helvetica-73" transform="scale(0.015625)"/>
       <path d="M 413 3331 
L 984 3331 
L 984 0 
L 413 0 
L 413 3331 
z
M 413 4591 
L 984 4591 
L 984 3953 
L 413 3953 
L 413 4591 
z
" id="Helvetica-69" transform="scale(0.015625)"/>
       <path d="M 525 4281 
L 1094 4281 
L 1094 3347 
L 1628 3347 
L 1628 2888 
L 1094 2888 
L 1094 703 
Q 1094 528 1213 469 
Q 1278 434 1431 434 
Q 1472 434 1519 436 
Q 1566 438 1628 444 
L 1628 0 
Q 1531 -28 1426 -40 
Q 1322 -53 1200 -53 
Q 806 -53 665 148 
Q 525 350 525 672 
L 525 2888 
L 72 2888 
L 72 3347 
L 525 3347 
L 525 4281 
z
" id="Helvetica-74" transform="scale(0.015625)"/>
       <path d="M 413 3347 
L 947 3347 
L 947 2872 
Q 1184 3166 1450 3294 
Q 1716 3422 2041 3422 
Q 2753 3422 3003 2925 
Q 3141 2653 3141 2147 
L 3141 0 
L 2569 0 
L 2569 2109 
Q 2569 2416 2478 2603 
Q 2328 2916 1934 2916 
Q 1734 2916 1606 2875 
Q 1375 2806 1200 2600 
Q 1059 2434 1017 2257 
Q 975 2081 975 1753 
L 975 0 
L 413 0 
L 413 3347 
z
M 1734 3428 
L 1734 3428 
z
" id="Helvetica-6e" transform="scale(0.015625)"/>
      </defs>
      <use xlink:href="#Helvetica-50"/>
      <use x="66.699219" xlink:href="#Helvetica-6f"/>
      <use x="122.314453" xlink:href="#Helvetica-73"/>
      <use x="172.314453" xlink:href="#Helvetica-69"/>
      <use x="194.53125" xlink:href="#Helvetica-74"/>
      <use x="222.314453" xlink:href="#Helvetica-69"/>
      <use x="244.53125" xlink:href="#Helvetica-6f"/>
      <use x="300.146484" xlink:href="#Helvetica-6e"/>
     </g>
    </g>
   </g>
   <g id="matplotlib.axis_2">
    <g id="ytick_1">
     <g id="text_4">
      <!-- 0 -->
      <g style="fill:#262626;" transform="translate(76.818125 148.813438)scale(0.2 -0.2)">
       <use xlink:href="#Helvetica-30"/>
      </g>
     </g>
    </g>
    <g id="ytick_2">
     <g id="text_5">
      <!-- 0.25 -->
      <g style="fill:#262626;" transform="translate(49.018125 120.603438)scale(0.2 -0.2)">
       <defs>
        <path d="M 547 681 
L 1200 681 
L 1200 0 
L 547 0 
L 547 681 
z
" id="Helvetica-2e" transform="scale(0.015625)"/>
        <path d="M 200 0 
Q 231 578 439 1006 
Q 647 1434 1250 1784 
L 1850 2131 
Q 2253 2366 2416 2531 
Q 2672 2791 2672 3125 
Q 2672 3516 2437 3745 
Q 2203 3975 1813 3975 
Q 1234 3975 1013 3538 
Q 894 3303 881 2888 
L 309 2888 
Q 319 3472 525 3841 
Q 891 4491 1816 4491 
Q 2584 4491 2939 4075 
Q 3294 3659 3294 3150 
Q 3294 2613 2916 2231 
Q 2697 2009 2131 1694 
L 1703 1456 
Q 1397 1288 1222 1134 
Q 909 863 828 531 
L 3272 531 
L 3272 0 
L 200 0 
z
" id="Helvetica-32" transform="scale(0.015625)"/>
        <path d="M 791 1141 
Q 847 659 1238 475 
Q 1438 381 1700 381 
Q 2200 381 2440 700 
Q 2681 1019 2681 1406 
Q 2681 1875 2395 2131 
Q 2109 2388 1709 2388 
Q 1419 2388 1211 2275 
Q 1003 2163 856 1963 
L 369 1991 
L 709 4400 
L 3034 4400 
L 3034 3856 
L 1131 3856 
L 941 2613 
Q 1097 2731 1238 2791 
Q 1488 2894 1816 2894 
Q 2431 2894 2859 2497 
Q 3288 2100 3288 1491 
Q 3288 856 2895 371 
Q 2503 -113 1644 -113 
Q 1097 -113 676 195 
Q 256 503 206 1141 
L 791 1141 
z
" id="Helvetica-35" transform="scale(0.015625)"/>
       </defs>
       <use xlink:href="#Helvetica-30"/>
       <use x="55.615234" xlink:href="#Helvetica-2e"/>
       <use x="83.398438" xlink:href="#Helvetica-32"/>
       <use x="139.013672" xlink:href="#Helvetica-35"/>
      </g>
     </g>
    </g>
    <g id="ytick_3">
     <g id="text_6">
      <!-- 0.50 -->
      <g style="fill:#262626;" transform="translate(49.018125 92.393438)scale(0.2 -0.2)">
       <use xlink:href="#Helvetica-30"/>
       <use x="55.615234" xlink:href="#Helvetica-2e"/>
       <use x="83.398438" xlink:href="#Helvetica-35"/>
       <use x="139.013672" xlink:href="#Helvetica-30"/>
      </g>
     </g>
    </g>
    <g id="ytick_4">
     <g id="text_7">
      <!-- 0.75 -->
      <g style="fill:#262626;" transform="translate(49.018125 64.183437)scale(0.2 -0.2)">
       <defs>
        <path d="M 3347 4400 
L 3347 3909 
Q 3131 3700 2773 3181 
Q 2416 2663 2141 2063 
Q 1869 1478 1728 997 
Q 1638 688 1494 0 
L 872 0 
Q 1084 1281 1809 2550 
Q 2238 3294 2709 3834 
L 234 3834 
L 234 4400 
L 3347 4400 
z
" id="Helvetica-37" transform="scale(0.015625)"/>
       </defs>
       <use xlink:href="#Helvetica-30"/>
       <use x="55.615234" xlink:href="#Helvetica-2e"/>
       <use x="83.398438" xlink:href="#Helvetica-37"/>
       <use x="139.013672" xlink:href="#Helvetica-35"/>
      </g>
     </g>
    </g>
    <g id="ytick_5">
     <g id="text_8">
      <!-- 1.0 -->
      <g style="fill:#262626;" transform="translate(60.14 35.973438)scale(0.2 -0.2)">
       <use xlink:href="#Helvetica-31"/>
       <use x="55.615234" xlink:href="#Helvetica-2e"/>
       <use x="83.398438" xlink:href="#Helvetica-30"/>
      </g>
     </g>
    </g>
    <g id="text_9">
     <!-- Probability -->
     <g style="fill:#262626;" transform="translate(39.65875 143.579375)rotate(-90)scale(0.25 -0.25)">
      <defs>
       <path d="M 428 3347 
L 963 3347 
L 963 2769 
Q 1028 2938 1284 3180 
Q 1541 3422 1875 3422 
Q 1891 3422 1928 3419 
Q 1966 3416 2056 3406 
L 2056 2813 
Q 2006 2822 1964 2825 
Q 1922 2828 1872 2828 
Q 1447 2828 1219 2554 
Q 991 2281 991 1925 
L 991 0 
L 428 0 
L 428 3347 
z
" id="Helvetica-72" transform="scale(0.015625)"/>
       <path d="M 369 4606 
L 916 4606 
L 916 2941 
Q 1100 3181 1356 3307 
Q 1613 3434 1913 3434 
Q 2538 3434 2927 3004 
Q 3316 2575 3316 1738 
Q 3316 944 2931 419 
Q 2547 -106 1866 -106 
Q 1484 -106 1222 78 
Q 1066 188 888 428 
L 888 0 
L 369 0 
L 369 4606 
z
M 1831 391 
Q 2288 391 2514 753 
Q 2741 1116 2741 1709 
Q 2741 2238 2514 2584 
Q 2288 2931 1847 2931 
Q 1463 2931 1173 2647 
Q 884 2363 884 1709 
Q 884 1238 1003 944 
Q 1225 391 1831 391 
z
" id="Helvetica-62" transform="scale(0.015625)"/>
       <path d="M 844 891 
Q 844 647 1022 506 
Q 1200 366 1444 366 
Q 1741 366 2019 503 
Q 2488 731 2488 1250 
L 2488 1703 
Q 2384 1638 2221 1594 
Q 2059 1550 1903 1531 
L 1563 1488 
Q 1256 1447 1103 1359 
Q 844 1213 844 891 
z
M 2206 2028 
Q 2400 2053 2466 2191 
Q 2503 2266 2503 2406 
Q 2503 2694 2298 2823 
Q 2094 2953 1713 2953 
Q 1272 2953 1088 2716 
Q 984 2584 953 2325 
L 428 2325 
Q 444 2944 830 3186 
Q 1216 3428 1725 3428 
Q 2316 3428 2684 3203 
Q 3050 2978 3050 2503 
L 3050 575 
Q 3050 488 3086 434 
Q 3122 381 3238 381 
Q 3275 381 3322 386 
Q 3369 391 3422 400 
L 3422 -16 
Q 3291 -53 3222 -62 
Q 3153 -72 3034 -72 
Q 2744 -72 2613 134 
Q 2544 244 2516 444 
Q 2344 219 2022 53 
Q 1700 -113 1313 -113 
Q 847 -113 551 170 
Q 256 453 256 878 
Q 256 1344 547 1600 
Q 838 1856 1309 1916 
L 2206 2028 
z
M 1741 3428 
L 1741 3428 
z
" id="Helvetica-61" transform="scale(0.015625)"/>
       <path d="M 428 4591 
L 991 4591 
L 991 0 
L 428 0 
L 428 4591 
z
" id="Helvetica-6c" transform="scale(0.015625)"/>
       <path d="M 2503 3347 
L 3125 3347 
Q 3006 3025 2597 1878 
Q 2291 1016 2084 472 
Q 1597 -809 1397 -1090 
Q 1197 -1372 709 -1372 
Q 591 -1372 527 -1362 
Q 463 -1353 369 -1328 
L 369 -816 
Q 516 -856 581 -865 
Q 647 -875 697 -875 
Q 853 -875 926 -823 
Q 1000 -772 1050 -697 
Q 1066 -672 1162 -440 
Q 1259 -209 1303 -97 
L 66 3347 
L 703 3347 
L 1600 622 
L 2503 3347 
z
M 1597 3428 
L 1597 3428 
z
" id="Helvetica-79" transform="scale(0.015625)"/>
      </defs>
      <use xlink:href="#Helvetica-50"/>
      <use x="66.699219" xlink:href="#Helvetica-72"/>
      <use x="100" xlink:href="#Helvetica-6f"/>
      <use x="155.615234" xlink:href="#Helvetica-62"/>
      <use x="211.230469" xlink:href="#Helvetica-61"/>
      <use x="266.845703" xlink:href="#Helvetica-62"/>
      <use x="322.460938" xlink:href="#Helvetica-69"/>
      <use x="344.677734" xlink:href="#Helvetica-6c"/>
      <use x="366.894531" xlink:href="#Helvetica-69"/>
      <use x="389.111328" xlink:href="#Helvetica-74"/>
      <use x="416.894531" xlink:href="#Helvetica-79"/>
     </g>
    </g>
   </g>
   <g id="patch_71">
    <path d="M 94.94 141.64 
L 94.94 28.8 
" style="fill:none;stroke:#000000;stroke-linecap:square;stroke-linejoin:miter;"/>
   </g>
  </g>
 </g>
 <defs>
  <clipPath id="p3e9f1862c8">
   <rect height="112.84" width="189.46" x="94.94" y="28.8"/>
  </clipPath>
 </defs>
</svg>
