<?xml version="1.0" encoding="utf-8" standalone="no"?>
<!DOCTYPE svg PUBLIC "-//W3C//DTD SVG 1.1//EN"
  "http://www.w3.org/Graphics/SVG/1.1/DTD/svg11.dtd">
<svg height="216pt" version="1.1" viewBox="0 0 306 216" width="306pt" xmlns="http://www.w3.org/2000/svg" xmlns:xlink="http://www.w3.org/1999/xlink">
 <metadata>
  <rdf:RDF xmlns:cc="http://creativecommons.org/ns#" xmlns:dc="http://purl.org/dc/elements/1.1/" xmlns:rdf="http://www.w3.org/1999/02/22-rdf-syntax-ns#">
   <cc:Work>
    <dc:type rdf:resource="http://purl.org/dc/dcmitype/StillImage"/>
    <dc:date>2022-12-16T20:08:28.195928</dc:date>
    <dc:format>image/svg+xml</dc:format>
    <dc:creator>
     <cc:Agent>
      <dc:title>Matplotlib v3.4.2, https://matplotlib.org/</dc:title>
     </cc:Agent>
    </dc:creator>
   </cc:Work>
  </rdf:RDF>
 </metadata>
 <defs>
  <style type="text/css">*{stroke-linecap:butt;stroke-linejoin:round;}</style>
 </defs>
 <g id="figure_1">
  <g id="patch_1">
   <path d="M 0 216 
L 306 216 
L 306 0 
L 0 0 
z
" style="fill:#ffffff;"/>
  </g>
  <g id="axes_1">
   <g id="patch_2">
    <path d="M 94.94 141.64 
L 284.4 141.64 
L 284.4 28.8 
L 94.94 28.8 
z
" style="fill:#ffffff;"/>
   </g>
   <g id="line2d_1">
    <path clip-path="url(#p7f16dd5fc4)" d="M 94.94 141.64 
L 284.4 141.64 
" style="fill:none;stroke:#000000;stroke-linecap:round;stroke-width:0.5;"/>
   </g>
   <g id="patch_3">
    <path clip-path="url(#p7f16dd5fc4)" d="M 105.558702 121.733444 
L 105.558702 124.105233 
L 101.148734 124.105233 
L 101.148734 141.64 
L 99.349968 141.64 
L 99.349968 124.105233 
L 94.94 124.105233 
L 94.94 121.733444 
L 105.558702 121.733444 
z
" style="fill:#ff0000;"/>
   </g>
   <g id="patch_4">
    <path clip-path="url(#p7f16dd5fc4)" d="M 100.523163 100.784886 
Q 102.797109 100.784886 104.051431 102.777924 
Q 105.305752 104.766629 105.443962 107.29692 
L 103.863673 107.29692 
Q 103.595077 105.377538 102.791894 104.255371 
Q 101.988711 103.128872 100.53881 103.128872 
Q 98.770765 103.128872 97.683339 105.195565 
Q 96.595913 107.257926 96.595913 111.521293 
Q 96.595913 115.017774 97.576421 117.192784 
Q 98.559538 119.363462 100.507517 119.363462 
Q 102.299032 119.363462 103.237817 117.075802 
Q 103.733287 115.871314 103.978414 113.904272 
L 105.558702 113.904272 
Q 105.347475 117.045473 104.158348 119.172824 
Q 102.731916 121.733444 100.311937 121.733444 
Q 98.225748 121.733444 96.807139 119.632089 
Q 94.94 116.859167 94.94 111.062028 
Q 94.94 106.664347 96.342962 103.848098 
Q 97.858057 100.784886 100.523163 100.784886 
z
M 100.197196 100.784886 
L 100.197196 100.784886 
z
" style="fill:#0000ff;"/>
   </g>
   <g id="patch_5">
    <path clip-path="url(#p7f16dd5fc4)" d="M 100.416455 73.667035 
Q 102.054581 73.667035 103.249628 75.07036 
Q 104.981434 77.085534 105.368811 82.137504 
L 103.811705 82.137504 
Q 103.525603 79.314014 102.63185 78.022955 
Q 101.738096 76.731896 100.375945 76.731896 
Q 98.763138 76.731896 97.659238 79.420667 
Q 96.555339 82.103824 96.555339 87.419619 
Q 96.555339 92.011299 97.464284 94.896535 
Q 98.37576 97.781771 100.431646 97.781771 
Q 102.006475 97.781771 103.039482 95.760983 
Q 104.072489 93.734582 104.095276 89.204649 
L 100.456965 89.204649 
L 100.456965 86.313799 
L 105.558702 86.313799 
L 105.558702 100.100064 
L 104.54595 100.100064 
L 104.166168 96.782604 
Q 103.368626 98.730419 102.750848 99.488214 
Q 101.712777 100.784886 100.115161 100.784886 
Q 98.05168 100.784886 96.562935 97.821064 
Q 94.94 94.099446 94.94 87.610472 
Q 94.94 81.138337 96.522425 77.315679 
Q 98.026361 73.667035 100.416455 73.667035 
z
M 100.155671 73.627741 
L 100.155671 73.627741 
z
" style="fill:#ffa600;"/>
   </g>
   <g id="patch_6">
    <path clip-path="url(#p7f16dd5fc4)" d="M 102.067515 55.261159 
L 100.261014 35.459229 
L 98.340473 55.261159 
L 102.067515 55.261159 
z
M 99.418672 28.8 
L 101.240724 28.8 
L 105.558702 73.627741 
L 103.791078 73.627741 
L 102.58588 60.201877 
L 97.879128 60.201877 
L 96.590992 73.627741 
L 94.94 73.627741 
L 99.418672 28.8 
z
M 100.253239 28.8 
L 100.253239 28.8 
z
" style="fill:#008000;"/>
   </g>
   <g id="patch_7">
    <path clip-path="url(#p7f16dd5fc4)" d="M 116.736283 120.691443 
L 116.736283 123.187383 
L 112.326315 123.187383 
L 112.326315 141.64 
L 110.527549 141.64 
L 110.527549 123.187383 
L 106.117581 123.187383 
L 106.117581 120.691443 
L 116.736283 120.691443 
z
" style="fill:#ff0000;"/>
   </g>
   <g id="patch_8">
    <path clip-path="url(#p7f16dd5fc4)" d="M 111.700744 98.700885 
Q 113.97469 98.700885 115.229012 100.793058 
Q 116.483333 102.880683 116.621543 105.536833 
L 115.041255 105.536833 
Q 114.772658 103.521979 113.969475 102.343995 
Q 113.166292 101.161462 111.716391 101.161462 
Q 109.948346 101.161462 108.86092 103.330955 
Q 107.773494 105.495899 107.773494 109.97133 
Q 107.773494 113.641729 108.754002 115.924927 
Q 109.737119 118.203576 111.685098 118.203576 
Q 113.476613 118.203576 114.415398 115.802125 
Q 114.910868 114.537725 115.155995 112.472841 
L 116.736283 112.472841 
Q 116.525057 115.770288 115.335929 118.003455 
Q 113.909497 120.691443 111.489518 120.691443 
Q 109.403329 120.691443 107.98472 118.485565 
Q 106.117581 115.574715 106.117581 109.489221 
Q 106.117581 104.872795 107.520543 101.916464 
Q 109.035638 98.700885 111.700744 98.700885 
z
M 111.374777 98.700885 
L 111.374777 98.700885 
z
" style="fill:#0000ff;"/>
   </g>
   <g id="patch_9">
    <path clip-path="url(#p7f16dd5fc4)" d="M 111.594036 73.707373 
Q 113.232162 73.707373 114.427209 75.000765 
Q 116.159015 76.858077 116.546392 81.514289 
L 114.989286 81.514289 
Q 114.703184 78.911984 113.809431 77.722063 
Q 112.915677 76.532142 111.553526 76.532142 
Q 109.940719 76.532142 108.83682 79.010281 
Q 107.73292 81.483247 107.73292 86.382617 
Q 107.73292 90.614597 108.641865 93.273811 
Q 109.553341 95.933026 111.609227 95.933026 
Q 113.184056 95.933026 114.217063 94.070541 
Q 115.25007 92.202882 115.272857 88.027812 
L 111.634546 88.027812 
L 111.634546 85.363424 
L 116.736283 85.363424 
L 116.736283 98.06971 
L 115.723531 98.06971 
L 115.34375 95.01213 
Q 114.546208 96.807359 113.928429 97.505791 
Q 112.890358 98.700885 111.292743 98.700885 
Q 109.229261 98.700885 107.740516 95.969241 
Q 106.117581 92.539164 106.117581 86.558519 
Q 106.117581 80.593393 107.700006 77.070193 
Q 109.203942 73.707373 111.594036 73.707373 
z
M 111.333253 73.671158 
L 111.333253 73.671158 
z
" style="fill:#ffa600;"/>
   </g>
   <g id="patch_10">
    <path clip-path="url(#p7f16dd5fc4)" d="M 113.245097 55.286787 
L 111.438595 35.465678 
L 109.518054 55.286787 
L 113.245097 55.286787 
z
M 110.596253 28.8 
L 112.418305 28.8 
L 116.736283 73.671158 
L 114.968659 73.671158 
L 113.763461 60.23229 
L 109.056709 60.23229 
L 107.768573 73.671158 
L 106.117581 73.671158 
L 110.596253 28.8 
z
M 111.43082 28.8 
L 111.43082 28.8 
z
" style="fill:#008000;"/>
   </g>
   <g id="patch_11">
    <path clip-path="url(#p7f16dd5fc4)" d="M 122.878326 127.985448 
Q 125.152272 127.985448 126.406593 129.284537 
Q 127.660914 130.580802 127.799124 132.230079 
L 126.218836 132.230079 
Q 125.950239 130.979 125.147056 130.247557 
Q 124.343873 129.51329 122.893972 129.51329 
Q 121.125927 129.51329 120.038501 130.860388 
Q 118.951075 132.204662 118.951075 134.983583 
Q 118.951075 137.262636 119.931584 138.680337 
Q 120.9147 140.095214 122.862679 140.095214 
Q 124.654194 140.095214 125.592979 138.604086 
Q 126.088449 137.818985 126.333576 136.536841 
L 127.913864 136.536841 
Q 127.702638 138.584317 126.51351 139.970953 
Q 125.087078 141.64 122.667099 141.64 
Q 120.58091 141.64 119.162301 140.270309 
Q 117.295162 138.462881 117.295162 134.684227 
Q 117.295162 131.81776 118.698124 129.982091 
Q 120.213219 127.985448 122.878326 127.985448 
z
M 122.552359 127.985448 
L 122.552359 127.985448 
z
" style="fill:#0000ff;"/>
   </g>
   <g id="patch_12">
    <path clip-path="url(#p7f16dd5fc4)" d="M 124.422678 116.431845 
L 122.616176 103.975328 
L 120.695635 116.431845 
L 124.422678 116.431845 
z
M 121.773834 99.786302 
L 123.595886 99.786302 
L 127.913864 127.985448 
L 126.14624 127.985448 
L 124.941042 119.539832 
L 120.23429 119.539832 
L 118.946154 127.985448 
L 117.295162 127.985448 
L 121.773834 99.786302 
z
M 122.608401 99.786302 
L 122.608401 99.786302 
z
" style="fill:#008000;"/>
   </g>
   <g id="patch_13">
    <path clip-path="url(#p7f16dd5fc4)" d="M 127.913864 67.419154 
L 127.913864 71.275575 
L 123.503896 71.275575 
L 123.503896 99.786302 
L 121.705131 99.786302 
L 121.705131 71.275575 
L 117.295162 71.275575 
L 117.295162 67.419154 
L 127.913864 67.419154 
z
" style="fill:#ff0000;"/>
   </g>
   <g id="patch_14">
    <path clip-path="url(#p7f16dd5fc4)" d="M 122.771617 28.855877 
Q 124.409743 28.855877 125.60479 30.851493 
Q 127.336596 33.717197 127.723973 40.901413 
L 126.166868 40.901413 
Q 125.880765 36.886235 124.987012 35.050268 
Q 124.093258 33.214302 122.731107 33.214302 
Q 121.1183 33.214302 120.014401 37.037901 
Q 118.910501 40.853518 118.910501 48.41291 
Q 118.910501 54.942565 119.819446 59.04555 
Q 120.730923 63.148536 122.786809 63.148536 
Q 124.361638 63.148536 125.394644 60.27485 
Q 126.427651 57.393181 126.450438 50.951333 
L 122.812127 50.951333 
L 122.812127 46.840365 
L 127.913864 46.840365 
L 127.913864 66.445293 
L 126.901113 66.445293 
L 126.521331 61.727658 
Q 125.723789 64.497572 125.10601 65.575205 
Q 124.06794 67.419154 122.470324 67.419154 
Q 120.406842 67.419154 118.918097 63.204413 
Q 117.295162 57.912041 117.295162 48.684314 
Q 117.295162 39.480535 118.877587 34.044478 
Q 120.381523 28.855877 122.771617 28.855877 
z
M 122.510834 28.8 
L 122.510834 28.8 
z
" style="fill:#ffa600;"/>
   </g>
   <g id="patch_15">
    <path clip-path="url(#p7f16dd5fc4)" d="M 134.055907 136.321454 
Q 136.329853 136.321454 137.584174 136.827459 
Q 138.838495 137.332363 138.976705 137.974769 
L 137.396417 137.974769 
Q 137.12782 137.487464 136.324637 137.202562 
Q 135.521454 136.91656 134.071553 136.91656 
Q 132.303508 136.91656 131.216082 137.441264 
Q 130.128656 137.964868 130.128656 139.047278 
Q 130.128656 139.934985 131.109165 140.48719 
Q 132.092281 141.038295 134.04026 141.038295 
Q 135.831775 141.038295 136.77056 140.45749 
Q 137.26603 140.151687 137.511157 139.652283 
L 139.091445 139.652283 
Q 138.880219 140.44979 137.691091 140.989894 
Q 136.264659 141.64 133.84468 141.64 
Q 131.758491 141.64 130.339883 141.106495 
Q 128.472743 140.402489 128.472743 138.930677 
Q 128.472743 137.814167 129.875705 137.099161 
Q 131.3908 136.321454 134.055907 136.321454 
z
M 133.72994 136.321454 
L 133.72994 136.321454 
z
" style="fill:#0000ff;"/>
   </g>
   <g id="patch_16">
    <path clip-path="url(#p7f16dd5fc4)" d="M 139.091445 120.582901 
L 139.091445 122.458089 
L 134.681477 122.458089 
L 134.681477 136.321454 
L 132.882712 136.321454 
L 132.882712 122.458089 
L 128.472743 122.458089 
L 128.472743 120.582901 
L 139.091445 120.582901 
z
" style="fill:#ff0000;"/>
   </g>
   <g id="patch_17">
    <path clip-path="url(#p7f16dd5fc4)" d="M 133.949198 88.21923 
Q 135.587324 88.21923 136.782371 89.894021 
Q 138.514177 92.299022 138.901554 98.328271 
L 137.344449 98.328271 
Q 137.058346 94.958591 136.164593 93.417783 
Q 135.270839 91.876974 133.908688 91.876974 
Q 132.295881 91.876974 131.191982 95.085875 
Q 130.088082 98.288076 130.088082 104.632187 
Q 130.088082 110.112104 130.997027 113.555476 
Q 131.908504 116.998847 133.96439 116.998847 
Q 135.539219 116.998847 136.572225 114.587147 
Q 137.605232 112.168748 137.628019 106.762521 
L 133.989709 106.762521 
L 133.989709 103.312451 
L 139.091445 103.312451 
L 139.091445 119.765603 
L 138.078694 119.765603 
L 137.698912 115.806396 
Q 136.90137 118.131006 136.283591 119.035394 
Q 135.245521 120.582901 133.647905 120.582901 
Q 131.584423 120.582901 130.095678 117.045741 
Q 128.472743 112.604194 128.472743 104.859958 
Q 128.472743 97.13582 130.055168 92.573688 
Q 131.559104 88.21923 133.949198 88.21923 
z
M 133.688415 88.172336 
L 133.688415 88.172336 
z
" style="fill:#ffa600;"/>
   </g>
   <g id="patch_18">
    <path clip-path="url(#p7f16dd5fc4)" d="M 135.600259 63.846619 
L 133.793758 37.61985 
L 131.873216 63.846619 
L 135.600259 63.846619 
z
M 132.951415 28.8 
L 134.773467 28.8 
L 139.091445 88.172336 
L 137.323822 88.172336 
L 136.118624 70.390379 
L 131.411872 70.390379 
L 130.123735 88.172336 
L 128.472743 88.172336 
L 132.951415 28.8 
z
M 133.785982 28.8 
L 133.785982 28.8 
z
" style="fill:#008000;"/>
   </g>
   <g id="patch_19">
    <path clip-path="url(#p7f16dd5fc4)" d="M 150.269027 139.447457 
L 150.269027 139.70869 
L 145.859058 139.70869 
L 145.859058 141.64 
L 144.060293 141.64 
L 144.060293 139.70869 
L 139.650324 139.70869 
L 139.650324 139.447457 
L 150.269027 139.447457 
z
" style="fill:#ff0000;"/>
   </g>
   <g id="patch_20">
    <path clip-path="url(#p7f16dd5fc4)" d="M 145.233488 126.834906 
Q 147.507434 126.834906 148.761755 128.034859 
Q 150.016076 129.232203 150.154286 130.755622 
L 148.573998 130.755622 
Q 148.305401 129.600015 147.502218 128.924389 
Q 146.699036 128.246155 145.249134 128.246155 
Q 143.481089 128.246155 142.393663 129.490454 
Q 141.306237 130.732145 141.306237 133.299001 
Q 141.306237 135.404136 142.286746 136.71365 
Q 143.269862 138.020556 145.217841 138.020556 
Q 147.009356 138.020556 147.948141 136.643218 
Q 148.443611 135.918029 148.688738 134.733728 
L 150.269027 134.733728 
Q 150.0578 136.624958 148.868672 137.905778 
Q 147.44224 139.447457 145.022261 139.447457 
Q 142.936072 139.447457 141.517464 138.182289 
Q 139.650324 136.512789 139.650324 133.02249 
Q 139.650324 130.374768 141.053287 128.679182 
Q 142.568381 126.834906 145.233488 126.834906 
z
M 144.907521 126.834906 
L 144.907521 126.834906 
z
" style="fill:#0000ff;"/>
   </g>
   <g id="patch_21">
    <path clip-path="url(#p7f16dd5fc4)" d="M 146.77784 119.532744 
L 144.971339 111.659918 
L 143.050797 119.532744 
L 146.77784 119.532744 
z
M 144.128996 109.012351 
L 145.951048 109.012351 
L 150.269027 126.834906 
L 148.501403 126.834906 
L 147.296205 121.497068 
L 142.589453 121.497068 
L 141.301316 126.834906 
L 139.650324 126.834906 
L 144.128996 109.012351 
z
M 144.963563 109.012351 
L 144.963563 109.012351 
z
" style="fill:#008000;"/>
   </g>
   <g id="patch_22">
    <path clip-path="url(#p7f16dd5fc4)" d="M 145.12678 28.916058 
Q 146.764906 28.916058 147.959953 33.06097 
Q 149.691758 39.013065 150.079136 53.934751 
L 148.52203 53.934751 
Q 148.235927 45.595186 147.342174 41.781867 
Q 146.448421 37.968547 145.086269 37.968547 
Q 143.473462 37.968547 142.369563 45.9102 
Q 141.265664 53.835273 141.265664 69.536202 
Q 141.265664 83.098357 142.174608 91.620297 
Q 143.086085 100.142238 145.141971 100.142238 
Q 146.7168 100.142238 147.749807 94.173563 
Q 148.782813 88.188309 148.8056 74.808531 
L 145.16729 74.808531 
L 145.16729 66.270011 
L 150.269027 66.270011 
L 150.269027 106.989633 
L 149.256275 106.989633 
L 148.876493 97.19106 
Q 148.078951 102.944199 147.461172 105.182452 
Q 146.423102 109.012351 144.825486 109.012351 
Q 142.762004 109.012351 141.273259 100.258295 
Q 139.650324 89.265987 139.650324 70.09991 
Q 139.650324 50.983573 141.232749 39.692831 
Q 142.736685 28.916058 145.12678 28.916058 
z
M 144.865996 28.8 
L 144.865996 28.8 
z
" style="fill:#ffa600;"/>
   </g>
   <g id="patch_23">
    <path clip-path="url(#p7f16dd5fc4)" d="M 156.411069 132.153451 
Q 158.685015 132.153451 159.939336 133.055998 
Q 161.193657 133.956582 161.331867 135.102424 
L 159.751579 135.102424 
Q 159.482982 134.233232 158.679799 133.725059 
Q 157.876617 133.214925 156.426715 133.214925 
Q 154.65867 133.214925 153.571244 134.150826 
Q 152.483818 135.084765 152.483818 137.01543 
Q 152.483818 138.598811 153.464327 139.583764 
Q 154.447444 140.566754 156.395423 140.566754 
Q 158.186937 140.566754 159.125722 139.530788 
Q 159.621192 138.985336 159.866319 138.094562 
L 161.446608 138.094562 
Q 161.235381 139.517054 160.046253 140.480424 
Q 158.619822 141.64 156.199842 141.64 
Q 154.113653 141.64 152.695045 140.688402 
Q 150.827906 139.432685 150.827906 136.807452 
Q 150.827906 134.815964 152.230868 133.540626 
Q 153.745962 132.153451 156.411069 132.153451 
z
M 156.085102 132.153451 
L 156.085102 132.153451 
z
" style="fill:#0000ff;"/>
   </g>
   <g id="patch_24">
    <path clip-path="url(#p7f16dd5fc4)" d="M 161.446608 116.480023 
L 161.446608 118.347452 
L 157.036639 118.347452 
L 157.036639 132.153451 
L 155.237874 132.153451 
L 155.237874 118.347452 
L 150.827906 118.347452 
L 150.827906 116.480023 
L 161.446608 116.480023 
z
" style="fill:#ff0000;"/>
   </g>
   <g id="patch_25">
    <path clip-path="url(#p7f16dd5fc4)" d="M 156.304361 78.913886 
Q 157.942487 78.913886 159.137534 80.857901 
Q 160.869339 83.649505 161.256717 90.647958 
L 159.699611 90.647958 
Q 159.413509 86.736601 158.519755 84.948107 
Q 157.626002 83.159614 156.263851 83.159614 
Q 154.651043 83.159614 153.547144 86.884346 
Q 152.443245 90.601301 152.443245 97.965229 
Q 152.443245 104.326044 153.352189 108.322938 
Q 154.263666 112.319832 156.319552 112.319832 
Q 157.894381 112.319832 158.927388 109.520451 
Q 159.960394 106.713294 159.983181 100.438015 
L 156.344871 100.438015 
L 156.344871 96.433345 
L 161.446608 96.433345 
L 161.446608 115.531344 
L 160.433856 115.531344 
L 160.054074 110.935694 
Q 159.256532 113.633986 158.638753 114.683754 
Q 157.600683 116.480023 156.003067 116.480023 
Q 153.939585 116.480023 152.45084 112.374264 
Q 150.827906 107.218738 150.827906 98.229615 
Q 150.827906 89.263819 152.41033 83.968324 
Q 153.914267 78.913886 156.304361 78.913886 
z
M 156.043577 78.859454 
L 156.043577 78.859454 
z
" style="fill:#ffa600;"/>
   </g>
   <g id="patch_26">
    <path clip-path="url(#p7f16dd5fc4)" d="M 157.955421 58.349362 
L 156.14892 36.236408 
L 154.228378 58.349362 
L 157.955421 58.349362 
z
M 155.306577 28.8 
L 157.128629 28.8 
L 161.446608 78.859454 
L 159.678984 78.859454 
L 158.473786 63.866696 
L 153.767034 63.866696 
L 152.478897 78.859454 
L 150.827906 78.859454 
L 155.306577 28.8 
z
M 156.141144 28.8 
L 156.141144 28.8 
z
" style="fill:#008000;"/>
   </g>
   <g id="patch_27">
    <path clip-path="url(#p7f16dd5fc4)" d="M 167.58865 138.405456 
Q 169.862596 138.405456 171.116917 138.713189 
Q 172.371238 139.020253 172.509448 139.410941 
L 170.92916 139.410941 
Q 170.660563 139.11458 169.857381 138.941313 
Q 169.054198 138.767377 167.604296 138.767377 
Q 165.836251 138.767377 164.748825 139.086483 
Q 163.661399 139.40492 163.661399 140.063202 
Q 163.661399 140.603073 164.641908 140.938903 
Q 165.625025 141.274065 167.573004 141.274065 
Q 169.364518 141.274065 170.303304 140.920841 
Q 170.798773 140.734863 171.043901 140.431144 
L 172.624189 140.431144 
Q 172.412962 140.916158 171.223834 141.24463 
Q 169.797403 141.64 167.377423 141.64 
Q 165.291234 141.64 163.872626 141.315542 
Q 162.005487 140.887392 162.005487 139.992289 
Q 162.005487 139.313269 163.408449 138.878429 
Q 164.923544 138.405456 167.58865 138.405456 
z
M 167.262683 138.405456 
L 167.262683 138.405456 
z
" style="fill:#0000ff;"/>
   </g>
   <g id="patch_28">
    <path clip-path="url(#p7f16dd5fc4)" d="M 172.624189 132.04491 
L 172.624189 132.802744 
L 168.21422 132.802744 
L 168.21422 138.405456 
L 166.415455 138.405456 
L 166.415455 132.802744 
L 162.005487 132.802744 
L 162.005487 132.04491 
L 172.624189 132.04491 
z
" style="fill:#ff0000;"/>
   </g>
   <g id="patch_29">
    <path clip-path="url(#p7f16dd5fc4)" d="M 169.133002 120.473518 
L 167.326501 107.997822 
L 165.40596 120.473518 
L 169.133002 120.473518 
z
M 166.484158 103.802347 
L 168.30621 103.802347 
L 172.624189 132.04491 
L 170.856565 132.04491 
L 169.651367 123.58629 
L 164.944615 123.58629 
L 163.656478 132.04491 
L 162.005487 132.04491 
L 166.484158 103.802347 
z
M 167.318725 103.802347 
L 167.318725 103.802347 
z
" style="fill:#008000;"/>
   </g>
   <g id="patch_30">
    <path clip-path="url(#p7f16dd5fc4)" d="M 167.481942 28.908519 
Q 169.120068 28.908519 170.315115 32.784209 
Q 172.04692 38.349699 172.434298 52.302182 
L 170.877192 52.302182 
Q 170.59109 44.504295 169.697336 40.93866 
Q 168.803583 37.373026 167.441432 37.373026 
Q 165.828625 37.373026 164.724725 44.798847 
Q 163.620826 52.209166 163.620826 66.890278 
Q 163.620826 79.571535 164.52977 87.539953 
Q 165.441247 95.508371 167.497133 95.508371 
Q 169.071962 95.508371 170.104969 89.927378 
Q 171.137976 84.330882 171.160763 71.820156 
L 167.522452 71.820156 
L 167.522452 63.836235 
L 172.624189 63.836235 
L 172.624189 101.91101 
L 171.611437 101.91101 
L 171.231655 92.74888 
Q 170.434113 98.128337 169.816335 100.22121 
Q 168.778264 103.802347 167.180648 103.802347 
Q 165.117166 103.802347 163.628421 95.61689 
Q 162.005487 85.338561 162.005487 67.417372 
Q 162.005487 49.542691 163.587911 38.985313 
Q 165.091848 28.908519 167.481942 28.908519 
z
M 167.221158 28.8 
L 167.221158 28.8 
z
" style="fill:#ffa600;"/>
   </g>
   <g id="patch_31">
    <path clip-path="url(#p7f16dd5fc4)" d="M 178.766231 138.405456 
Q 181.040177 138.405456 182.294498 138.713189 
Q 183.548819 139.020253 183.68703 139.410941 
L 182.106741 139.410941 
Q 181.838145 139.11458 181.034962 138.941313 
Q 180.231779 138.767377 178.781878 138.767377 
Q 177.013832 138.767377 175.926406 139.086483 
Q 174.83898 139.40492 174.83898 140.063202 
Q 174.83898 140.603073 175.819489 140.938903 
Q 176.802606 141.274065 178.750585 141.274065 
Q 180.5421 141.274065 181.480885 140.920841 
Q 181.976355 140.734863 182.221482 140.431144 
L 183.80177 140.431144 
Q 183.590543 140.916158 182.401416 141.24463 
Q 180.974984 141.64 178.555005 141.64 
Q 176.468816 141.64 175.050207 141.315542 
Q 173.183068 140.887392 173.183068 139.992289 
Q 173.183068 139.313269 174.58603 138.878429 
Q 176.101125 138.405456 178.766231 138.405456 
z
M 178.440264 138.405456 
L 178.440264 138.405456 
z
" style="fill:#0000ff;"/>
   </g>
   <g id="patch_32">
    <path clip-path="url(#p7f16dd5fc4)" d="M 183.80177 128.918907 
L 183.80177 130.049193 
L 179.391802 130.049193 
L 179.391802 138.405456 
L 177.593036 138.405456 
L 177.593036 130.049193 
L 173.183068 130.049193 
L 173.183068 128.918907 
L 183.80177 128.918907 
z
" style="fill:#ff0000;"/>
   </g>
   <g id="patch_33">
    <path clip-path="url(#p7f16dd5fc4)" d="M 180.310583 115.6754 
L 178.504082 101.396914 
L 176.583541 115.6754 
L 180.310583 115.6754 
z
M 177.661739 96.595175 
L 179.483791 96.595175 
L 183.80177 128.918907 
L 182.034146 128.918907 
L 180.828948 119.237981 
L 176.122196 119.237981 
L 174.83406 128.918907 
L 173.183068 128.918907 
L 177.661739 96.595175 
z
M 178.496307 96.595175 
L 178.496307 96.595175 
z
" style="fill:#008000;"/>
   </g>
   <g id="patch_34">
    <path clip-path="url(#p7f16dd5fc4)" d="M 178.659523 28.898091 
Q 180.297649 28.898091 181.492696 32.401356 
Q 183.224501 37.432044 183.611879 50.043796 
L 182.054773 50.043796 
Q 181.768671 42.995228 180.874917 39.772224 
Q 179.981164 36.549221 178.619013 36.549221 
Q 177.006206 36.549221 175.902306 43.261476 
Q 174.798407 49.959718 174.798407 63.230084 
Q 174.798407 74.692765 175.707352 81.895477 
Q 176.618828 89.098189 178.674714 89.098189 
Q 180.249543 89.098189 181.28255 84.053488 
Q 182.315557 78.994774 182.338344 67.686236 
L 178.700033 67.686236 
L 178.700033 60.469511 
L 183.80177 60.469511 
L 183.80177 94.885582 
L 182.789018 94.885582 
L 182.409236 86.603865 
Q 181.611694 91.466396 180.993916 93.358159 
Q 179.955845 96.595175 178.358229 96.595175 
Q 176.294748 96.595175 174.806003 89.19628 
Q 173.183068 79.905623 173.183068 63.706528 
Q 173.183068 47.549472 174.765492 38.006579 
Q 176.269429 28.898091 178.659523 28.898091 
z
M 178.398739 28.8 
L 178.398739 28.8 
z
" style="fill:#ffa600;"/>
   </g>
   <g id="patch_35">
    <path clip-path="url(#p7f16dd5fc4)" d="M 189.943812 137.363455 
Q 192.217758 137.363455 193.472079 137.770324 
Q 194.726401 138.176308 194.864611 138.692855 
L 193.284322 138.692855 
Q 193.015726 138.301022 192.212543 138.071938 
Q 191.40936 137.841968 189.959459 137.841968 
Q 188.191414 137.841968 187.103988 138.263874 
Q 186.016561 138.684894 186.016561 139.55524 
Q 186.016561 140.269029 186.99707 140.713047 
Q 187.980187 141.15618 189.928166 141.15618 
Q 191.719681 141.15618 192.658466 140.689165 
Q 193.153936 140.443275 193.399063 140.041713 
L 194.979351 140.041713 
Q 194.768124 140.682974 193.578997 141.117262 
Q 192.152565 141.64 189.732586 141.64 
Q 187.646397 141.64 186.227788 141.211019 
Q 184.360649 140.64494 184.360649 139.461483 
Q 184.360649 138.563718 185.763611 137.988795 
Q 187.278706 137.363455 189.943812 137.363455 
z
M 189.617845 137.363455 
L 189.617845 137.363455 
z
" style="fill:#0000ff;"/>
   </g>
   <g id="patch_36">
    <path clip-path="url(#p7f16dd5fc4)" d="M 194.979351 133.08691 
L 194.979351 133.596444 
L 190.569383 133.596444 
L 190.569383 137.363455 
L 188.770617 137.363455 
L 188.770617 133.596444 
L 184.360649 133.596444 
L 184.360649 133.08691 
L 194.979351 133.08691 
z
" style="fill:#ff0000;"/>
   </g>
   <g id="patch_37">
    <path clip-path="url(#p7f16dd5fc4)" d="M 191.488164 118.953981 
L 189.681663 103.716563 
L 187.761122 118.953981 
L 191.488164 118.953981 
z
M 188.83932 98.592343 
L 190.661373 98.592343 
L 194.979351 133.08691 
L 193.211727 133.08691 
L 192.006529 122.755821 
L 187.299777 122.755821 
L 186.011641 133.08691 
L 184.360649 133.08691 
L 188.83932 98.592343 
z
M 189.673888 98.592343 
L 189.673888 98.592343 
z
" style="fill:#008000;"/>
   </g>
   <g id="patch_38">
    <path clip-path="url(#p7f16dd5fc4)" d="M 189.837104 28.900981 
Q 191.47523 28.900981 192.670277 32.507448 
Q 194.402083 37.686334 194.78946 50.669614 
L 193.232354 50.669614 
Q 192.946252 43.413403 192.052498 40.095454 
Q 191.158745 36.777504 189.796594 36.777504 
Q 188.183787 36.777504 187.079887 43.687494 
Q 185.975988 50.583059 185.975988 64.244355 
Q 185.975988 76.044714 186.884933 83.459609 
Q 187.796409 90.874505 189.852295 90.874505 
Q 191.427124 90.874505 192.460131 85.681192 
Q 193.493138 80.473455 193.515925 68.83178 
L 189.877614 68.83178 
L 189.877614 61.402459 
L 194.979351 61.402459 
L 194.979351 96.832387 
L 193.966599 96.832387 
L 193.586817 88.3067 
Q 192.789275 93.312476 192.171497 95.259968 
Q 191.133426 98.592343 189.53581 98.592343 
Q 187.472329 98.592343 185.983584 90.975486 
Q 184.360649 81.411136 184.360649 64.734834 
Q 184.360649 48.10181 185.943074 38.277794 
Q 187.44701 28.900981 189.837104 28.900981 
z
M 189.57632 28.8 
L 189.57632 28.8 
z
" style="fill:#ffa600;"/>
   </g>
   <g id="patch_39">
    <path clip-path="url(#p7f16dd5fc4)" d="M 206.156932 133.195452 
L 206.156932 134.201588 
L 201.746964 134.201588 
L 201.746964 141.64 
L 199.948198 141.64 
L 199.948198 134.201588 
L 195.53823 134.201588 
L 195.53823 133.195452 
L 206.156932 133.195452 
z
" style="fill:#ff0000;"/>
   </g>
   <g id="patch_40">
    <path clip-path="url(#p7f16dd5fc4)" d="M 201.121393 118.4989 
Q 203.395339 118.4989 204.649661 119.897124 
Q 205.903982 121.292308 206.042192 123.067445 
L 204.461904 123.067445 
Q 204.193307 121.720895 203.390124 120.933634 
Q 202.586941 120.143333 201.13704 120.143333 
Q 199.368995 120.143333 198.281569 121.593231 
Q 197.194143 123.040089 197.194143 126.031073 
Q 197.194143 128.484044 198.174651 130.009933 
Q 199.157768 131.532781 201.105747 131.532781 
Q 202.897262 131.532781 203.836047 129.927863 
Q 204.331517 129.082849 204.576644 127.702863 
L 206.156932 127.702863 
Q 205.945706 129.906586 204.756578 131.399038 
Q 203.330146 133.195452 200.910167 133.195452 
Q 198.823978 133.195452 197.405369 131.721237 
Q 195.53823 129.775882 195.53823 125.708873 
Q 195.53823 122.623661 196.941192 120.647909 
Q 198.456287 118.4989 201.121393 118.4989 
z
M 200.795426 118.4989 
L 200.795426 118.4989 
z
" style="fill:#0000ff;"/>
   </g>
   <g id="patch_41">
    <path clip-path="url(#p7f16dd5fc4)" d="M 202.665746 105.646739 
L 200.859244 91.790183 
L 198.938703 105.646739 
L 202.665746 105.646739 
z
M 200.016902 87.130335 
L 201.838954 87.130335 
L 206.156932 118.4989 
L 204.389308 118.4989 
L 203.18411 109.104045 
L 198.477358 109.104045 
L 197.189222 118.4989 
L 195.53823 118.4989 
L 200.016902 87.130335 
z
M 200.851469 87.130335 
L 200.851469 87.130335 
z
" style="fill:#008000;"/>
   </g>
   <g id="patch_42">
    <path clip-path="url(#p7f16dd5fc4)" d="M 201.014685 28.884397 
Q 202.652811 28.884397 203.847858 31.898573 
Q 205.579664 36.22693 205.967041 47.077964 
L 204.409935 47.077964 
Q 204.123833 41.013441 203.23008 38.240399 
Q 202.336326 35.467357 200.974175 35.467357 
Q 199.361368 35.467357 198.257469 41.242519 
Q 197.153569 47.005623 197.153569 58.423322 
Q 197.153569 68.285706 198.062514 74.482852 
Q 198.97399 80.679998 201.029876 80.679998 
Q 202.604705 80.679998 203.637712 76.339585 
Q 204.670719 71.987114 204.693506 62.257354 
L 201.055195 62.257354 
L 201.055195 56.048151 
L 206.156932 56.048151 
L 206.156932 85.659417 
L 205.14418 85.659417 
L 204.764399 78.533905 
Q 203.966857 82.717581 203.349078 84.345236 
Q 202.311007 87.130335 200.713392 87.130335 
Q 198.64991 87.130335 197.161165 80.764395 
Q 195.53823 72.7708 195.53823 58.83325 
Q 195.53823 44.93187 197.120655 36.721255 
Q 198.624591 28.884397 201.014685 28.884397 
z
M 200.753902 28.8 
L 200.753902 28.8 
z
" style="fill:#ffa600;"/>
   </g>
   <g id="patch_43">
    <path clip-path="url(#p7f16dd5fc4)" d="M 217.334513 129.027449 
L 217.334513 130.530186 
L 212.924545 130.530186 
L 212.924545 141.64 
L 211.12578 141.64 
L 211.12578 130.530186 
L 206.715811 130.530186 
L 206.715811 129.027449 
L 217.334513 129.027449 
z
" style="fill:#ff0000;"/>
   </g>
   <g id="patch_44">
    <path clip-path="url(#p7f16dd5fc4)" d="M 212.298975 111.204894 
Q 214.572921 111.204894 215.827242 112.900525 
Q 217.081563 114.59247 217.219773 116.745184 
L 215.639485 116.745184 
Q 215.370888 115.112217 214.567705 114.157504 
Q 213.764522 113.199104 212.314621 113.199104 
Q 210.546576 113.199104 209.45915 114.957399 
Q 208.371724 116.712008 208.371724 120.339184 
Q 208.371724 123.31391 209.352233 125.16436 
Q 210.335349 127.011123 212.283328 127.011123 
Q 214.074843 127.011123 215.013628 125.064833 
Q 215.509098 124.040083 215.754225 122.366569 
L 217.334513 122.366569 
Q 217.123287 125.03903 215.934159 126.848932 
Q 214.507727 129.027449 212.087748 129.027449 
Q 210.001559 129.027449 208.58295 127.239664 
Q 206.715811 124.880526 206.715811 119.948452 
Q 206.715811 116.207005 208.118773 113.811005 
Q 209.633868 111.204894 212.298975 111.204894 
z
M 211.973008 111.204894 
L 211.973008 111.204894 
z
" style="fill:#0000ff;"/>
   </g>
   <g id="patch_45">
    <path clip-path="url(#p7f16dd5fc4)" d="M 212.192266 80.965563 
Q 213.830392 80.965563 215.025439 82.530422 
Q 216.757245 84.777559 217.144622 90.411051 
L 215.587517 90.411051 
Q 215.301414 87.262555 214.407661 85.822885 
Q 213.513907 84.383214 212.151756 84.383214 
Q 210.538949 84.383214 209.43505 87.381484 
Q 208.33115 90.373494 208.33115 96.301179 
Q 208.33115 101.421397 209.240095 104.638747 
Q 210.151572 107.856096 212.207458 107.856096 
Q 213.782287 107.856096 214.815293 105.6027 
Q 215.8483 103.343044 215.871087 98.291679 
L 212.232776 98.291679 
L 212.232776 95.06807 
L 217.334513 95.06807 
L 217.334513 110.441243 
L 216.321762 110.441243 
L 215.94198 106.741917 
Q 215.144438 108.913941 214.526659 109.758965 
Q 213.488589 111.204894 211.890973 111.204894 
Q 209.827491 111.204894 208.338746 107.899912 
Q 206.715811 103.749907 206.715811 96.514 
Q 206.715811 89.296871 208.298236 85.034196 
Q 209.802172 80.965563 212.192266 80.965563 
z
M 211.931483 80.921747 
L 211.931483 80.921747 
z
" style="fill:#ffa600;"/>
   </g>
   <g id="patch_46">
    <path clip-path="url(#p7f16dd5fc4)" d="M 213.843327 59.566703 
L 212.036825 36.542764 
L 210.116284 59.566703 
L 213.843327 59.566703 
z
M 211.194483 28.8 
L 213.016535 28.8 
L 217.334513 80.921747 
L 215.566889 80.921747 
L 214.361691 65.311335 
L 209.654939 65.311335 
L 208.366803 80.921747 
L 206.715811 80.921747 
L 211.194483 28.8 
z
M 212.02905 28.8 
L 212.02905 28.8 
z
" style="fill:#008000;"/>
   </g>
   <g id="patch_47">
    <path clip-path="url(#p7f16dd5fc4)" d="M 228.512094 136.321454 
L 228.512094 136.955139 
L 224.102126 136.955139 
L 224.102126 141.64 
L 222.303361 141.64 
L 222.303361 136.955139 
L 217.893392 136.955139 
L 217.893392 136.321454 
L 228.512094 136.321454 
z
" style="fill:#ff0000;"/>
   </g>
   <g id="patch_48">
    <path clip-path="url(#p7f16dd5fc4)" d="M 223.476556 123.708903 
Q 225.750502 123.708903 227.004823 124.908857 
Q 228.259144 126.106201 228.397354 127.62962 
L 226.817066 127.62962 
Q 226.548469 126.474013 225.745286 125.798387 
Q 224.942103 125.120153 223.492202 125.120153 
Q 221.724157 125.120153 220.636731 126.364452 
Q 219.549305 127.606143 219.549305 130.172999 
Q 219.549305 132.278134 220.529814 133.587648 
Q 221.51293 134.894554 223.460909 134.894554 
Q 225.252424 134.894554 226.191209 133.517216 
Q 226.686679 132.792027 226.931806 131.607725 
L 228.512094 131.607725 
Q 228.300868 133.498956 227.11174 134.779775 
Q 225.685308 136.321454 223.265329 136.321454 
Q 221.17914 136.321454 219.760531 135.056286 
Q 217.893392 133.386786 217.893392 129.896488 
Q 217.893392 127.248765 219.296354 125.553179 
Q 220.811449 123.708903 223.476556 123.708903 
z
M 223.150589 123.708903 
L 223.150589 123.708903 
z
" style="fill:#0000ff;"/>
   </g>
   <g id="patch_49">
    <path clip-path="url(#p7f16dd5fc4)" d="M 223.369847 78.989376 
Q 225.007973 78.989376 226.20302 81.303572 
Q 227.934826 84.626758 228.322203 92.957864 
L 226.765098 92.957864 
Q 226.478995 88.301702 225.585242 86.172641 
Q 224.691488 84.043581 223.329337 84.043581 
Q 221.71653 84.043581 220.612631 88.477581 
Q 219.508731 92.902324 219.508731 101.668499 
Q 219.508731 109.240549 220.417676 113.998536 
Q 221.329153 118.756524 223.385039 118.756524 
Q 224.959868 118.756524 225.992874 115.424081 
Q 227.025881 112.082382 227.048668 104.612156 
L 223.410357 104.612156 
L 223.410357 99.844912 
L 228.512094 99.844912 
L 228.512094 122.579576 
L 227.499343 122.579576 
L 227.119561 117.108816 
Q 226.322019 120.32092 225.70424 121.570586 
Q 224.66617 123.708903 223.068554 123.708903 
Q 221.005072 123.708903 219.516327 118.821321 
Q 217.893392 112.684073 217.893392 101.98323 
Q 217.893392 91.310157 219.475817 85.006286 
Q 220.979753 78.989376 223.369847 78.989376 
z
M 223.109064 78.924579 
L 223.109064 78.924579 
z
" style="fill:#ffa600;"/>
   </g>
   <g id="patch_50">
    <path clip-path="url(#p7f16dd5fc4)" d="M 225.020908 58.387804 
L 223.214407 36.246082 
L 221.293865 58.387804 
L 225.020908 58.387804 
z
M 222.372064 28.8 
L 224.194116 28.8 
L 228.512094 78.924579 
L 226.744471 78.924579 
L 225.539273 63.912316 
L 220.832521 63.912316 
L 219.544384 78.924579 
L 217.893392 78.924579 
L 222.372064 28.8 
z
M 223.206631 28.8 
L 223.206631 28.8 
z
" style="fill:#008000;"/>
   </g>
   <g id="patch_51">
    <path clip-path="url(#p7f16dd5fc4)" d="M 234.654137 138.405456 
Q 236.928083 138.405456 238.182404 138.713189 
Q 239.436725 139.020253 239.574935 139.410941 
L 237.994647 139.410941 
Q 237.72605 139.11458 236.922867 138.941313 
Q 236.119685 138.767377 234.669783 138.767377 
Q 232.901738 138.767377 231.814312 139.086483 
Q 230.726886 139.40492 230.726886 140.063202 
Q 230.726886 140.603073 231.707395 140.938903 
Q 232.690511 141.274065 234.63849 141.274065 
Q 236.430005 141.274065 237.36879 140.920841 
Q 237.86426 140.734863 238.109387 140.431144 
L 239.689676 140.431144 
Q 239.478449 140.916158 238.289321 141.24463 
Q 236.862889 141.64 234.44291 141.64 
Q 232.356721 141.64 230.938113 141.315542 
Q 229.070973 140.887392 229.070973 139.992289 
Q 229.070973 139.313269 230.473936 138.878429 
Q 231.98903 138.405456 234.654137 138.405456 
z
M 234.32817 138.405456 
L 234.32817 138.405456 
z
" style="fill:#0000ff;"/>
   </g>
   <g id="patch_52">
    <path clip-path="url(#p7f16dd5fc4)" d="M 234.547429 122.733028 
Q 236.185554 122.733028 237.380602 123.544063 
Q 239.112407 124.708708 239.499785 127.628432 
L 237.942679 127.628432 
Q 237.656576 125.996631 236.762823 125.250479 
Q 235.86907 124.504327 234.506918 124.504327 
Q 232.894111 124.504327 231.790212 126.058269 
Q 230.686312 127.608967 230.686312 130.681165 
Q 230.686312 133.334869 231.595257 135.002356 
Q 232.506734 136.669842 234.56262 136.669842 
Q 236.137449 136.669842 237.170456 135.501953 
Q 238.203462 134.330819 238.226249 131.712801 
L 234.587939 131.712801 
L 234.587939 130.04207 
L 239.689676 130.04207 
L 239.689676 138.009671 
L 238.676924 138.009671 
L 238.297142 136.092386 
Q 237.4996 137.218102 236.881821 137.65606 
Q 235.843751 138.405456 234.246135 138.405456 
Q 232.182653 138.405456 230.693908 136.692551 
Q 229.070973 134.541688 229.070973 130.791466 
Q 229.070973 127.050975 230.653398 124.841718 
Q 232.157334 122.733028 234.547429 122.733028 
z
M 234.286645 122.710319 
L 234.286645 122.710319 
z
" style="fill:#ffa600;"/>
   </g>
   <g id="patch_53">
    <path clip-path="url(#p7f16dd5fc4)" d="M 239.689676 86.218584 
L 239.689676 90.566434 
L 235.279707 90.566434 
L 235.279707 122.710319 
L 233.480942 122.710319 
L 233.480942 90.566434 
L 229.070973 90.566434 
L 229.070973 86.218584 
L 239.689676 86.218584 
z
" style="fill:#ff0000;"/>
   </g>
   <g id="patch_54">
    <path clip-path="url(#p7f16dd5fc4)" d="M 236.198489 62.693348 
L 234.391988 37.329618 
L 232.471446 62.693348 
L 236.198489 62.693348 
z
M 233.549645 28.8 
L 235.371697 28.8 
L 239.689676 86.218584 
L 237.922052 86.218584 
L 236.716854 69.021774 
L 232.010102 69.021774 
L 230.721965 86.218584 
L 229.070973 86.218584 
L 233.549645 28.8 
z
M 234.384212 28.8 
L 234.384212 28.8 
z
" style="fill:#008000;"/>
   </g>
   <g id="patch_55">
    <path clip-path="url(#p7f16dd5fc4)" d="M 245.831718 130.06945 
Q 248.105664 130.06945 249.359985 131.170267 
Q 250.614306 132.268692 250.752516 133.666252 
L 249.172228 133.666252 
Q 248.903631 132.606116 248.100448 131.986308 
Q 247.297266 131.364107 245.847364 131.364107 
Q 244.079319 131.364107 242.991893 132.505607 
Q 241.904467 133.644714 241.904467 135.999506 
Q 241.904467 137.930723 242.884976 139.13205 
Q 243.868093 140.330984 245.816071 140.330984 
Q 247.607586 140.330984 248.546371 139.067437 
Q 249.041841 138.40216 249.286968 137.315701 
L 250.867257 137.315701 
Q 250.65603 139.050686 249.466902 140.225689 
Q 248.040471 141.64 245.620491 141.64 
Q 243.534302 141.64 242.115694 140.479355 
Q 240.248555 138.947783 240.248555 135.74584 
Q 240.248555 133.316862 241.651517 131.761359 
Q 243.166611 130.06945 245.831718 130.06945 
z
M 245.505751 130.06945 
L 245.505751 130.06945 
z
" style="fill:#0000ff;"/>
   </g>
   <g id="patch_56">
    <path clip-path="url(#p7f16dd5fc4)" d="M 245.72501 115.394161 
Q 247.363136 115.394161 248.558183 116.153595 
Q 250.289988 117.244141 250.677366 119.978101 
L 249.12026 119.978101 
Q 248.834158 118.450121 247.940404 117.751442 
Q 247.046651 117.052764 245.6845 117.052764 
Q 244.071692 117.052764 242.967793 118.507838 
Q 241.863894 119.959874 241.863894 122.836607 
Q 241.863894 125.321473 242.772838 126.882868 
Q 243.684315 128.444263 245.740201 128.444263 
Q 247.31503 128.444263 248.348037 127.350679 
Q 249.381043 126.254057 249.40383 123.802606 
L 245.76552 123.802606 
L 245.76552 122.238174 
L 250.867257 122.238174 
L 250.867257 129.698846 
L 249.854505 129.698846 
L 249.474723 127.903546 
Q 248.677181 128.957639 248.059402 129.367733 
Q 247.021332 130.06945 245.423716 130.06945 
Q 243.360234 130.06945 241.871489 128.465527 
Q 240.248555 126.45151 240.248555 122.93989 
Q 240.248555 119.437384 241.830979 117.368688 
Q 243.334916 115.394161 245.72501 115.394161 
z
M 245.464226 115.372897 
L 245.464226 115.372897 
z
" style="fill:#ffa600;"/>
   </g>
   <g id="patch_57">
    <path clip-path="url(#p7f16dd5fc4)" d="M 247.37607 101.239967 
L 245.569569 86.00255 
L 243.649027 101.239967 
L 247.37607 101.239967 
z
M 244.727226 80.87833 
L 246.549278 80.87833 
L 250.867257 115.372897 
L 249.099633 115.372897 
L 247.894435 105.041808 
L 243.187683 105.041808 
L 241.899546 115.372897 
L 240.248555 115.372897 
L 244.727226 80.87833 
z
M 245.561793 80.87833 
L 245.561793 80.87833 
z
" style="fill:#008000;"/>
   </g>
   <g id="patch_58">
    <path clip-path="url(#p7f16dd5fc4)" d="M 250.867257 28.8 
L 250.867257 35.004933 
L 246.457288 35.004933 
L 246.457288 80.87833 
L 244.658523 80.87833 
L 244.658523 35.004933 
L 240.248555 35.004933 
L 240.248555 28.8 
L 250.867257 28.8 
z
" style="fill:#ff0000;"/>
   </g>
   <g id="patch_59">
    <path clip-path="url(#p7f16dd5fc4)" d="M 256.902591 132.167177 
Q 258.540717 132.167177 259.735764 132.657387 
Q 261.467569 133.361329 261.854947 135.126086 
L 260.297841 135.126086 
Q 260.011739 134.139783 259.117985 133.68879 
Q 258.224232 133.237796 256.862081 133.237796 
Q 255.249274 133.237796 254.145374 134.177039 
Q 253.041475 135.114321 253.041475 136.971238 
Q 253.041475 138.575206 253.950419 139.583078 
Q 254.861896 140.59095 256.917782 140.59095 
Q 258.492611 140.59095 259.525618 139.885047 
Q 260.558625 139.177184 260.581411 137.594785 
L 256.943101 137.594785 
L 256.943101 136.584952 
L 262.044838 136.584952 
L 262.044838 141.400777 
L 261.032086 141.400777 
L 260.652304 140.24192 
Q 259.854762 140.922332 259.236984 141.187046 
Q 258.198913 141.64 256.601297 141.64 
Q 254.537815 141.64 253.04907 140.604676 
Q 251.426136 139.304638 251.426136 137.037906 
Q 251.426136 134.777057 253.00856 133.441724 
Q 254.512497 132.167177 256.902591 132.167177 
z
M 256.641807 132.153451 
L 256.641807 132.153451 
z
" style="fill:#ffa600;"/>
   </g>
   <g id="patch_60">
    <path clip-path="url(#p7f16dd5fc4)" d="M 262.044838 110.184602 
L 262.044838 112.802106 
L 257.634869 112.802106 
L 257.634869 132.153451 
L 255.836104 132.153451 
L 255.836104 112.802106 
L 251.426136 112.802106 
L 251.426136 110.184602 
L 262.044838 110.184602 
z
" style="fill:#ff0000;"/>
   </g>
   <g id="patch_61">
    <path clip-path="url(#p7f16dd5fc4)" d="M 257.009299 87.152043 
Q 259.283245 87.152043 260.537566 89.343352 
Q 261.791887 91.529897 261.930097 94.311906 
L 260.349809 94.311906 
Q 260.081212 92.20158 259.27803 90.967778 
Q 258.474847 89.729213 257.024945 89.729213 
Q 255.2569 89.729213 254.169474 92.001504 
Q 253.082048 94.269032 253.082048 98.956527 
Q 253.082048 102.800845 254.062557 105.192229 
Q 255.045674 107.57885 256.993653 107.57885 
Q 258.785167 107.57885 259.723952 105.063609 
Q 260.219422 103.739296 260.46455 101.57657 
L 262.044838 101.57657 
Q 261.833611 105.030263 260.644483 107.369247 
Q 259.218052 110.184602 256.798072 110.184602 
Q 254.711883 110.184602 253.293275 107.8742 
Q 251.426136 104.825423 251.426136 98.451573 
Q 251.426136 93.616403 252.829098 90.519989 
Q 254.344193 87.152043 257.009299 87.152043 
z
M 256.683332 87.152043 
L 256.683332 87.152043 
z
" style="fill:#0000ff;"/>
   </g>
   <g id="patch_62">
    <path clip-path="url(#p7f16dd5fc4)" d="M 258.553651 63.244356 
L 256.74715 37.468284 
L 254.826609 63.244356 
L 258.553651 63.244356 
z
M 255.904807 28.8 
L 257.726859 28.8 
L 262.044838 87.152043 
L 260.277214 87.152043 
L 259.072016 69.675663 
L 254.365264 69.675663 
L 253.077127 87.152043 
L 251.426136 87.152043 
L 255.904807 28.8 
z
M 256.739374 28.8 
L 256.739374 28.8 
z
" style="fill:#008000;"/>
   </g>
   <g id="patch_63">
    <path clip-path="url(#p7f16dd5fc4)" d="M 268.080172 138.410136 
Q 269.718298 138.410136 270.913345 138.577279 
Q 272.64515 138.817295 273.032528 139.419009 
L 271.475422 139.419009 
Q 271.18932 139.082718 270.295566 138.928947 
Q 269.401813 138.775175 268.039662 138.775175 
Q 266.426855 138.775175 265.322955 139.095421 
Q 264.219056 139.414997 264.219056 140.048134 
Q 264.219056 140.595024 265.128001 140.93867 
Q 266.039477 141.282315 268.095363 141.282315 
Q 269.670192 141.282315 270.703199 141.041629 
Q 271.736206 140.800275 271.758993 140.260739 
L 268.120682 140.260739 
L 268.120682 139.916425 
L 273.222419 139.916425 
L 273.222419 141.558434 
L 272.209667 141.558434 
L 271.829885 141.163309 
Q 271.032343 141.395303 270.414565 141.48556 
Q 269.376494 141.64 267.778878 141.64 
Q 265.715397 141.64 264.226651 141.286995 
Q 262.603717 140.843733 262.603717 140.070865 
Q 262.603717 139.300003 264.186141 138.844707 
Q 265.690078 138.410136 268.080172 138.410136 
z
M 267.819388 138.405456 
L 267.819388 138.405456 
z
" style="fill:#ffa600;"/>
   </g>
   <g id="patch_64">
    <path clip-path="url(#p7f16dd5fc4)" d="M 269.731232 129.822525 
L 267.924731 120.568839 
L 266.00419 129.822525 
L 269.731232 129.822525 
z
M 267.082388 117.456899 
L 268.90444 117.456899 
L 273.222419 138.405456 
L 271.454795 138.405456 
L 270.249597 132.131384 
L 265.542845 132.131384 
L 264.254709 138.405456 
L 262.603717 138.405456 
L 267.082388 117.456899 
z
M 267.916956 117.456899 
L 267.916956 117.456899 
z
" style="fill:#008000;"/>
   </g>
   <g id="patch_65">
    <path clip-path="url(#p7f16dd5fc4)" d="M 273.222419 77.795745 
L 273.222419 82.521219 
L 268.812451 82.521219 
L 268.812451 117.456899 
L 267.013685 117.456899 
L 267.013685 82.521219 
L 262.603717 82.521219 
L 262.603717 77.795745 
L 273.222419 77.795745 
z
" style="fill:#ff0000;"/>
   </g>
   <g id="patch_66">
    <path clip-path="url(#p7f16dd5fc4)" d="M 268.18688 28.8 
Q 270.460826 28.8 271.715147 33.461436 
Q 272.969468 38.112738 273.107678 44.030735 
L 271.52739 44.030735 
Q 271.258793 39.54157 270.455611 36.916979 
Q 269.652428 34.282254 268.202527 34.282254 
Q 266.434481 34.282254 265.347055 39.11596 
Q 264.259629 43.939533 264.259629 53.910952 
Q 264.259629 62.088732 265.240138 67.175778 
Q 266.223255 72.252689 268.171234 72.252689 
Q 269.962749 72.252689 270.901534 66.902172 
Q 271.397003 64.085043 271.642131 59.484408 
L 273.222419 59.484408 
Q 273.011192 66.831237 271.822065 71.806813 
Q 270.395633 77.795745 267.975654 77.795745 
Q 265.889465 77.795745 264.470856 72.88097 
Q 262.603717 66.395494 262.603717 52.836795 
Q 262.603717 42.551236 264.006679 35.964424 
Q 265.521774 28.8 268.18688 28.8 
z
M 267.860913 28.8 
L 267.860913 28.8 
z
" style="fill:#0000ff;"/>
   </g>
   <g id="patch_67">
    <path clip-path="url(#p7f16dd5fc4)" d="M 280.908813 140.741683 
L 279.102312 139.773162 
L 277.181771 140.741683 
L 280.908813 140.741683 
z
M 278.259969 139.447457 
L 280.082022 139.447457 
L 284.4 141.64 
L 282.632376 141.64 
L 281.427178 140.983335 
L 276.720426 140.983335 
L 275.43229 141.64 
L 273.781298 141.64 
L 278.259969 139.447457 
z
M 279.094537 139.447457 
L 279.094537 139.447457 
z
" style="fill:#008000;"/>
   </g>
   <g id="patch_68">
    <path clip-path="url(#p7f16dd5fc4)" d="M 279.257753 133.096113 
Q 280.895879 133.096113 282.090926 133.42479 
Q 283.822732 133.896769 284.210109 135.080004 
L 282.653003 135.080004 
Q 282.366901 134.418707 281.473147 134.116325 
Q 280.579394 133.813943 279.217243 133.813943 
Q 277.604436 133.813943 276.500536 134.443687 
Q 275.396637 135.072116 275.396637 136.317142 
Q 275.396637 137.392572 276.305582 138.06833 
Q 277.217058 138.744089 279.272944 138.744089 
Q 280.847773 138.744089 281.88078 138.270795 
Q 282.913787 137.796186 282.936574 136.735219 
L 279.298263 136.735219 
L 279.298263 136.058145 
L 284.4 136.058145 
L 284.4 139.287063 
L 283.387248 139.287063 
L 283.007466 138.510072 
Q 282.209924 138.966274 281.592146 139.14376 
Q 280.554075 139.447457 278.956459 139.447457 
Q 276.892978 139.447457 275.404233 138.753292 
Q 273.781298 137.881642 273.781298 136.361842 
Q 273.781298 134.845987 275.363723 133.950672 
Q 276.867659 133.096113 279.257753 133.096113 
z
M 278.996969 133.08691 
L 278.996969 133.08691 
z
" style="fill:#ffa600;"/>
   </g>
   <g id="patch_69">
    <path clip-path="url(#p7f16dd5fc4)" d="M 279.364461 101.718346 
Q 281.638407 101.718346 282.892728 104.702738 
Q 284.14705 107.680644 284.28526 111.469525 
L 282.704971 111.469525 
Q 282.436375 108.595425 281.633192 106.915082 
Q 280.830009 105.228251 279.380108 105.228251 
Q 277.612063 105.228251 276.524636 108.322937 
Q 275.43721 111.411135 275.43721 117.79514 
Q 275.43721 123.030804 276.417719 126.287685 
Q 277.400836 129.538078 279.348815 129.538078 
Q 281.14033 129.538078 282.079115 126.112514 
Q 282.574585 124.308902 282.819712 121.363436 
L 284.4 121.363436 
Q 284.188773 126.067099 282.999646 129.252614 
Q 281.573214 133.08691 279.153235 133.08691 
Q 277.067046 133.08691 275.648437 129.940322 
Q 273.781298 125.788123 273.781298 117.107433 
Q 273.781298 110.522305 275.18426 106.305228 
Q 276.699355 101.718346 279.364461 101.718346 
z
M 279.038494 101.718346 
L 279.038494 101.718346 
z
" style="fill:#0000ff;"/>
   </g>
   <g id="patch_70">
    <path clip-path="url(#p7f16dd5fc4)" d="M 284.4 28.8 
L 284.4 37.487941 
L 279.990032 37.487941 
L 279.990032 101.718346 
L 278.191266 101.718346 
L 278.191266 37.487941 
L 273.781298 37.487941 
L 273.781298 28.8 
L 284.4 28.8 
z
" style="fill:#ff0000;"/>
   </g>
   <g id="matplotlib.axis_1">
    <g id="xtick_1">
     <g id="text_1">
      <!-- 0 -->
      <g style="fill:#262626;" transform="translate(94.688414 162.986875)scale(0.2 -0.2)">
       <defs>
        <path d="M 1731 4475 
Q 2600 4475 2988 3759 
Q 3288 3206 3288 2244 
Q 3288 1331 3016 734 
Q 2622 -122 1728 -122 
Q 922 -122 528 578 
Q 200 1163 200 2147 
Q 200 2909 397 3456 
Q 766 4475 1731 4475 
z
M 1725 391 
Q 2163 391 2422 778 
Q 2681 1166 2681 2222 
Q 2681 2984 2493 3476 
Q 2306 3969 1766 3969 
Q 1269 3969 1039 3501 
Q 809 3034 809 2125 
Q 809 1441 956 1025 
Q 1181 391 1725 391 
z
" id="Helvetica-30" transform="scale(0.015625)"/>
       </defs>
       <use xlink:href="#Helvetica-30"/>
      </g>
     </g>
    </g>
    <g id="xtick_2">
     <g id="text_2">
      <!-- 10 -->
      <g style="fill:#262626;" transform="translate(200.903287 162.986875)scale(0.2 -0.2)">
       <defs>
        <path d="M 613 3169 
L 613 3600 
Q 1222 3659 1462 3798 
Q 1703 3938 1822 4456 
L 2266 4456 
L 2266 0 
L 1666 0 
L 1666 3169 
L 613 3169 
z
" id="Helvetica-31" transform="scale(0.015625)"/>
       </defs>
       <use xlink:href="#Helvetica-31"/>
       <use x="55.615234" xlink:href="#Helvetica-30"/>
      </g>
     </g>
    </g>
    <g id="text_3">
     <!-- Position -->
     <g style="fill:#262626;" transform="translate(145.20125 189.089219)scale(0.25 -0.25)">
      <defs>
       <path d="M 547 4591 
L 2613 4591 
Q 3225 4591 3600 4245 
Q 3975 3900 3975 3275 
Q 3975 2738 3640 2339 
Q 3306 1941 2613 1941 
L 1169 1941 
L 1169 0 
L 547 0 
L 547 4591 
z
M 3347 3272 
Q 3347 3778 2972 3959 
Q 2766 4056 2406 4056 
L 1169 4056 
L 1169 2466 
L 2406 2466 
Q 2825 2466 3086 2644 
Q 3347 2822 3347 3272 
z
" id="Helvetica-50" transform="scale(0.015625)"/>
       <path d="M 1741 363 
Q 2300 363 2508 786 
Q 2716 1209 2716 1728 
Q 2716 2197 2566 2491 
Q 2328 2953 1747 2953 
Q 1231 2953 997 2559 
Q 763 2166 763 1609 
Q 763 1075 997 719 
Q 1231 363 1741 363 
z
M 1763 3444 
Q 2409 3444 2856 3012 
Q 3303 2581 3303 1744 
Q 3303 934 2909 406 
Q 2516 -122 1688 -122 
Q 997 -122 590 345 
Q 184 813 184 1600 
Q 184 2444 612 2944 
Q 1041 3444 1763 3444 
z
M 1744 3428 
L 1744 3428 
z
" id="Helvetica-6f" transform="scale(0.015625)"/>
       <path d="M 747 1050 
Q 772 769 888 619 
Q 1100 347 1625 347 
Q 1938 347 2175 483 
Q 2413 619 2413 903 
Q 2413 1119 2222 1231 
Q 2100 1300 1741 1391 
L 1294 1503 
Q 866 1609 663 1741 
Q 300 1969 300 2372 
Q 300 2847 642 3140 
Q 984 3434 1563 3434 
Q 2319 3434 2653 2991 
Q 2863 2709 2856 2384 
L 2325 2384 
Q 2309 2575 2191 2731 
Q 1997 2953 1519 2953 
Q 1200 2953 1036 2831 
Q 872 2709 872 2509 
Q 872 2291 1088 2159 
Q 1213 2081 1456 2022 
L 1828 1931 
Q 2434 1784 2641 1647 
Q 2969 1431 2969 969 
Q 2969 522 2630 197 
Q 2291 -128 1597 -128 
Q 850 -128 539 211 
Q 228 550 206 1050 
L 747 1050 
z
M 1578 3428 
L 1578 3428 
z
" id="Helvetica-73" transform="scale(0.015625)"/>
       <path d="M 413 3331 
L 984 3331 
L 984 0 
L 413 0 
L 413 3331 
z
M 413 4591 
L 984 4591 
L 984 3953 
L 413 3953 
L 413 4591 
z
" id="Helvetica-69" transform="scale(0.015625)"/>
       <path d="M 525 4281 
L 1094 4281 
L 1094 3347 
L 1628 3347 
L 1628 2888 
L 1094 2888 
L 1094 703 
Q 1094 528 1213 469 
Q 1278 434 1431 434 
Q 1472 434 1519 436 
Q 1566 438 1628 444 
L 1628 0 
Q 1531 -28 1426 -40 
Q 1322 -53 1200 -53 
Q 806 -53 665 148 
Q 525 350 525 672 
L 525 2888 
L 72 2888 
L 72 3347 
L 525 3347 
L 525 4281 
z
" id="Helvetica-74" transform="scale(0.015625)"/>
       <path d="M 413 3347 
L 947 3347 
L 947 2872 
Q 1184 3166 1450 3294 
Q 1716 3422 2041 3422 
Q 2753 3422 3003 2925 
Q 3141 2653 3141 2147 
L 3141 0 
L 2569 0 
L 2569 2109 
Q 2569 2416 2478 2603 
Q 2328 2916 1934 2916 
Q 1734 2916 1606 2875 
Q 1375 2806 1200 2600 
Q 1059 2434 1017 2257 
Q 975 2081 975 1753 
L 975 0 
L 413 0 
L 413 3347 
z
M 1734 3428 
L 1734 3428 
z
" id="Helvetica-6e" transform="scale(0.015625)"/>
      </defs>
      <use xlink:href="#Helvetica-50"/>
      <use x="66.699219" xlink:href="#Helvetica-6f"/>
      <use x="122.314453" xlink:href="#Helvetica-73"/>
      <use x="172.314453" xlink:href="#Helvetica-69"/>
      <use x="194.53125" xlink:href="#Helvetica-74"/>
      <use x="222.314453" xlink:href="#Helvetica-69"/>
      <use x="244.53125" xlink:href="#Helvetica-6f"/>
      <use x="300.146484" xlink:href="#Helvetica-6e"/>
     </g>
    </g>
   </g>
   <g id="matplotlib.axis_2">
    <g id="ytick_1">
     <g id="text_4">
      <!-- 0 -->
      <g style="fill:#262626;" transform="translate(76.818125 148.813438)scale(0.2 -0.2)">
       <use xlink:href="#Helvetica-30"/>
      </g>
     </g>
    </g>
    <g id="ytick_2">
     <g id="text_5">
      <!-- 0.25 -->
      <g style="fill:#262626;" transform="translate(49.018125 120.603437)scale(0.2 -0.2)">
       <defs>
        <path d="M 547 681 
L 1200 681 
L 1200 0 
L 547 0 
L 547 681 
z
" id="Helvetica-2e" transform="scale(0.015625)"/>
        <path d="M 200 0 
Q 231 578 439 1006 
Q 647 1434 1250 1784 
L 1850 2131 
Q 2253 2366 2416 2531 
Q 2672 2791 2672 3125 
Q 2672 3516 2437 3745 
Q 2203 3975 1813 3975 
Q 1234 3975 1013 3538 
Q 894 3303 881 2888 
L 309 2888 
Q 319 3472 525 3841 
Q 891 4491 1816 4491 
Q 2584 4491 2939 4075 
Q 3294 3659 3294 3150 
Q 3294 2613 2916 2231 
Q 2697 2009 2131 1694 
L 1703 1456 
Q 1397 1288 1222 1134 
Q 909 863 828 531 
L 3272 531 
L 3272 0 
L 200 0 
z
" id="Helvetica-32" transform="scale(0.015625)"/>
        <path d="M 791 1141 
Q 847 659 1238 475 
Q 1438 381 1700 381 
Q 2200 381 2440 700 
Q 2681 1019 2681 1406 
Q 2681 1875 2395 2131 
Q 2109 2388 1709 2388 
Q 1419 2388 1211 2275 
Q 1003 2163 856 1963 
L 369 1991 
L 709 4400 
L 3034 4400 
L 3034 3856 
L 1131 3856 
L 941 2613 
Q 1097 2731 1238 2791 
Q 1488 2894 1816 2894 
Q 2431 2894 2859 2497 
Q 3288 2100 3288 1491 
Q 3288 856 2895 371 
Q 2503 -113 1644 -113 
Q 1097 -113 676 195 
Q 256 503 206 1141 
L 791 1141 
z
" id="Helvetica-35" transform="scale(0.015625)"/>
       </defs>
       <use xlink:href="#Helvetica-30"/>
       <use x="55.615234" xlink:href="#Helvetica-2e"/>
       <use x="83.398438" xlink:href="#Helvetica-32"/>
       <use x="139.013672" xlink:href="#Helvetica-35"/>
      </g>
     </g>
    </g>
    <g id="ytick_3">
     <g id="text_6">
      <!-- 0.50 -->
      <g style="fill:#262626;" transform="translate(49.018125 92.393438)scale(0.2 -0.2)">
       <use xlink:href="#Helvetica-30"/>
       <use x="55.615234" xlink:href="#Helvetica-2e"/>
       <use x="83.398438" xlink:href="#Helvetica-35"/>
       <use x="139.013672" xlink:href="#Helvetica-30"/>
      </g>
     </g>
    </g>
    <g id="ytick_4">
     <g id="text_7">
      <!-- 0.75 -->
      <g style="fill:#262626;" transform="translate(49.018125 64.183437)scale(0.2 -0.2)">
       <defs>
        <path d="M 3347 4400 
L 3347 3909 
Q 3131 3700 2773 3181 
Q 2416 2663 2141 2063 
Q 1869 1478 1728 997 
Q 1638 688 1494 0 
L 872 0 
Q 1084 1281 1809 2550 
Q 2238 3294 2709 3834 
L 234 3834 
L 234 4400 
L 3347 4400 
z
" id="Helvetica-37" transform="scale(0.015625)"/>
       </defs>
       <use xlink:href="#Helvetica-30"/>
       <use x="55.615234" xlink:href="#Helvetica-2e"/>
       <use x="83.398438" xlink:href="#Helvetica-37"/>
       <use x="139.013672" xlink:href="#Helvetica-35"/>
      </g>
     </g>
    </g>
    <g id="ytick_5">
     <g id="text_8">
      <!-- 1.0 -->
      <g style="fill:#262626;" transform="translate(60.14 35.973437)scale(0.2 -0.2)">
       <use xlink:href="#Helvetica-31"/>
       <use x="55.615234" xlink:href="#Helvetica-2e"/>
       <use x="83.398438" xlink:href="#Helvetica-30"/>
      </g>
     </g>
    </g>
    <g id="text_9">
     <!-- Probability -->
     <g style="fill:#262626;" transform="translate(39.65875 143.579375)rotate(-90)scale(0.25 -0.25)">
      <defs>
       <path d="M 428 3347 
L 963 3347 
L 963 2769 
Q 1028 2938 1284 3180 
Q 1541 3422 1875 3422 
Q 1891 3422 1928 3419 
Q 1966 3416 2056 3406 
L 2056 2813 
Q 2006 2822 1964 2825 
Q 1922 2828 1872 2828 
Q 1447 2828 1219 2554 
Q 991 2281 991 1925 
L 991 0 
L 428 0 
L 428 3347 
z
" id="Helvetica-72" transform="scale(0.015625)"/>
       <path d="M 369 4606 
L 916 4606 
L 916 2941 
Q 1100 3181 1356 3307 
Q 1613 3434 1913 3434 
Q 2538 3434 2927 3004 
Q 3316 2575 3316 1738 
Q 3316 944 2931 419 
Q 2547 -106 1866 -106 
Q 1484 -106 1222 78 
Q 1066 188 888 428 
L 888 0 
L 369 0 
L 369 4606 
z
M 1831 391 
Q 2288 391 2514 753 
Q 2741 1116 2741 1709 
Q 2741 2238 2514 2584 
Q 2288 2931 1847 2931 
Q 1463 2931 1173 2647 
Q 884 2363 884 1709 
Q 884 1238 1003 944 
Q 1225 391 1831 391 
z
" id="Helvetica-62" transform="scale(0.015625)"/>
       <path d="M 844 891 
Q 844 647 1022 506 
Q 1200 366 1444 366 
Q 1741 366 2019 503 
Q 2488 731 2488 1250 
L 2488 1703 
Q 2384 1638 2221 1594 
Q 2059 1550 1903 1531 
L 1563 1488 
Q 1256 1447 1103 1359 
Q 844 1213 844 891 
z
M 2206 2028 
Q 2400 2053 2466 2191 
Q 2503 2266 2503 2406 
Q 2503 2694 2298 2823 
Q 2094 2953 1713 2953 
Q 1272 2953 1088 2716 
Q 984 2584 953 2325 
L 428 2325 
Q 444 2944 830 3186 
Q 1216 3428 1725 3428 
Q 2316 3428 2684 3203 
Q 3050 2978 3050 2503 
L 3050 575 
Q 3050 488 3086 434 
Q 3122 381 3238 381 
Q 3275 381 3322 386 
Q 3369 391 3422 400 
L 3422 -16 
Q 3291 -53 3222 -62 
Q 3153 -72 3034 -72 
Q 2744 -72 2613 134 
Q 2544 244 2516 444 
Q 2344 219 2022 53 
Q 1700 -113 1313 -113 
Q 847 -113 551 170 
Q 256 453 256 878 
Q 256 1344 547 1600 
Q 838 1856 1309 1916 
L 2206 2028 
z
M 1741 3428 
L 1741 3428 
z
" id="Helvetica-61" transform="scale(0.015625)"/>
       <path d="M 428 4591 
L 991 4591 
L 991 0 
L 428 0 
L 428 4591 
z
" id="Helvetica-6c" transform="scale(0.015625)"/>
       <path d="M 2503 3347 
L 3125 3347 
Q 3006 3025 2597 1878 
Q 2291 1016 2084 472 
Q 1597 -809 1397 -1090 
Q 1197 -1372 709 -1372 
Q 591 -1372 527 -1362 
Q 463 -1353 369 -1328 
L 369 -816 
Q 516 -856 581 -865 
Q 647 -875 697 -875 
Q 853 -875 926 -823 
Q 1000 -772 1050 -697 
Q 1066 -672 1162 -440 
Q 1259 -209 1303 -97 
L 66 3347 
L 703 3347 
L 1600 622 
L 2503 3347 
z
M 1597 3428 
L 1597 3428 
z
" id="Helvetica-79" transform="scale(0.015625)"/>
      </defs>
      <use xlink:href="#Helvetica-50"/>
      <use x="66.699219" xlink:href="#Helvetica-72"/>
      <use x="100" xlink:href="#Helvetica-6f"/>
      <use x="155.615234" xlink:href="#Helvetica-62"/>
      <use x="211.230469" xlink:href="#Helvetica-61"/>
      <use x="266.845703" xlink:href="#Helvetica-62"/>
      <use x="322.460938" xlink:href="#Helvetica-69"/>
      <use x="344.677734" xlink:href="#Helvetica-6c"/>
      <use x="366.894531" xlink:href="#Helvetica-69"/>
      <use x="389.111328" xlink:href="#Helvetica-74"/>
      <use x="416.894531" xlink:href="#Helvetica-79"/>
     </g>
    </g>
   </g>
   <g id="patch_71">
    <path d="M 94.94 141.64 
L 94.94 28.8 
" style="fill:none;stroke:#000000;stroke-linecap:square;stroke-linejoin:miter;"/>
   </g>
  </g>
 </g>
 <defs>
  <clipPath id="p7f16dd5fc4">
   <rect height="112.84" width="189.46" x="94.94" y="28.8"/>
  </clipPath>
 </defs>
</svg>
