<?xml version="1.0" encoding="utf-8" standalone="no"?>
<!DOCTYPE svg PUBLIC "-//W3C//DTD SVG 1.1//EN"
  "http://www.w3.org/Graphics/SVG/1.1/DTD/svg11.dtd">
<svg height="144pt" version="1.1" viewBox="0 0 144 144" width="144pt" xmlns="http://www.w3.org/2000/svg" xmlns:xlink="http://www.w3.org/1999/xlink">
 <metadata>
  <rdf:RDF xmlns:cc="http://creativecommons.org/ns#" xmlns:dc="http://purl.org/dc/elements/1.1/" xmlns:rdf="http://www.w3.org/1999/02/22-rdf-syntax-ns#">
   <cc:Work>
    <dc:type rdf:resource="http://purl.org/dc/dcmitype/StillImage"/>
    <dc:date>2022-11-07T10:50:56.360226</dc:date>
    <dc:format>image/svg+xml</dc:format>
    <dc:creator>
     <cc:Agent>
      <dc:title>Matplotlib v3.4.2, https://matplotlib.org/</dc:title>
     </cc:Agent>
    </dc:creator>
   </cc:Work>
  </rdf:RDF>
 </metadata>
 <defs>
  <style type="text/css">*{stroke-linecap:butt;stroke-linejoin:round;}</style>
 </defs>
 <g id="figure_1">
  <g id="patch_1">
   <path d="M 0 144 
L 144 144 
L 144 0 
L 0 0 
z
" style="fill:#ffffff;"/>
  </g>
  <g id="axes_1">
   <g id="patch_2">
    <path d="M 44.78 76.96 
L 133.2 76.96 
L 133.2 25.44 
L 44.78 25.44 
z
" style="fill:#ffffff;"/>
   </g>
   <g id="matplotlib.axis_1">
    <g id="xtick_1">
     <g id="text_1">
      <!-- Original -->
      <g style="fill:#262626;" transform="translate(62.107292 118.41625)rotate(-90)scale(0.1 -0.1)">
       <defs>
        <path d="M 309 2231 
Q 309 3372 921 4017 
Q 1534 4663 2503 4663 
Q 3138 4663 3647 4359 
Q 4156 4056 4423 3514 
Q 4691 2972 4691 2284 
Q 4691 1588 4409 1038 
Q 4128 488 3612 205 
Q 3097 -78 2500 -78 
Q 1853 -78 1343 234 
Q 834 547 571 1087 
Q 309 1628 309 2231 
z
M 934 2222 
Q 934 1394 1379 917 
Q 1825 441 2497 441 
Q 3181 441 3623 922 
Q 4066 1403 4066 2288 
Q 4066 2847 3877 3264 
Q 3688 3681 3323 3911 
Q 2959 4141 2506 4141 
Q 1863 4141 1398 3698 
Q 934 3256 934 2222 
z
" id="ArialMT-4f" transform="scale(0.015625)"/>
        <path d="M 416 0 
L 416 3319 
L 922 3319 
L 922 2816 
Q 1116 3169 1280 3281 
Q 1444 3394 1641 3394 
Q 1925 3394 2219 3213 
L 2025 2691 
Q 1819 2813 1613 2813 
Q 1428 2813 1281 2702 
Q 1134 2591 1072 2394 
Q 978 2094 978 1738 
L 978 0 
L 416 0 
z
" id="ArialMT-72" transform="scale(0.015625)"/>
        <path d="M 425 3934 
L 425 4581 
L 988 4581 
L 988 3934 
L 425 3934 
z
M 425 0 
L 425 3319 
L 988 3319 
L 988 0 
L 425 0 
z
" id="ArialMT-69" transform="scale(0.015625)"/>
        <path d="M 319 -275 
L 866 -356 
Q 900 -609 1056 -725 
Q 1266 -881 1628 -881 
Q 2019 -881 2231 -725 
Q 2444 -569 2519 -288 
Q 2563 -116 2559 434 
Q 2191 0 1641 0 
Q 956 0 581 494 
Q 206 988 206 1678 
Q 206 2153 378 2554 
Q 550 2956 876 3175 
Q 1203 3394 1644 3394 
Q 2231 3394 2613 2919 
L 2613 3319 
L 3131 3319 
L 3131 450 
Q 3131 -325 2973 -648 
Q 2816 -972 2473 -1159 
Q 2131 -1347 1631 -1347 
Q 1038 -1347 672 -1080 
Q 306 -813 319 -275 
z
M 784 1719 
Q 784 1066 1043 766 
Q 1303 466 1694 466 
Q 2081 466 2343 764 
Q 2606 1063 2606 1700 
Q 2606 2309 2336 2618 
Q 2066 2928 1684 2928 
Q 1309 2928 1046 2623 
Q 784 2319 784 1719 
z
" id="ArialMT-67" transform="scale(0.015625)"/>
        <path d="M 422 0 
L 422 3319 
L 928 3319 
L 928 2847 
Q 1294 3394 1984 3394 
Q 2284 3394 2536 3286 
Q 2788 3178 2913 3003 
Q 3038 2828 3088 2588 
Q 3119 2431 3119 2041 
L 3119 0 
L 2556 0 
L 2556 2019 
Q 2556 2363 2490 2533 
Q 2425 2703 2258 2804 
Q 2091 2906 1866 2906 
Q 1506 2906 1245 2678 
Q 984 2450 984 1813 
L 984 0 
L 422 0 
z
" id="ArialMT-6e" transform="scale(0.015625)"/>
        <path d="M 2588 409 
Q 2275 144 1986 34 
Q 1697 -75 1366 -75 
Q 819 -75 525 192 
Q 231 459 231 875 
Q 231 1119 342 1320 
Q 453 1522 633 1644 
Q 813 1766 1038 1828 
Q 1203 1872 1538 1913 
Q 2219 1994 2541 2106 
Q 2544 2222 2544 2253 
Q 2544 2597 2384 2738 
Q 2169 2928 1744 2928 
Q 1347 2928 1158 2789 
Q 969 2650 878 2297 
L 328 2372 
Q 403 2725 575 2942 
Q 747 3159 1072 3276 
Q 1397 3394 1825 3394 
Q 2250 3394 2515 3294 
Q 2781 3194 2906 3042 
Q 3031 2891 3081 2659 
Q 3109 2516 3109 2141 
L 3109 1391 
Q 3109 606 3145 398 
Q 3181 191 3288 0 
L 2700 0 
Q 2613 175 2588 409 
z
M 2541 1666 
Q 2234 1541 1622 1453 
Q 1275 1403 1131 1340 
Q 988 1278 909 1158 
Q 831 1038 831 891 
Q 831 666 1001 516 
Q 1172 366 1500 366 
Q 1825 366 2078 508 
Q 2331 650 2450 897 
Q 2541 1088 2541 1459 
L 2541 1666 
z
" id="ArialMT-61" transform="scale(0.015625)"/>
        <path d="M 409 0 
L 409 4581 
L 972 4581 
L 972 0 
L 409 0 
z
" id="ArialMT-6c" transform="scale(0.015625)"/>
       </defs>
       <use xlink:href="#ArialMT-4f"/>
       <use x="77.783203" xlink:href="#ArialMT-72"/>
       <use x="111.083984" xlink:href="#ArialMT-69"/>
       <use x="133.300781" xlink:href="#ArialMT-67"/>
       <use x="188.916016" xlink:href="#ArialMT-69"/>
       <use x="211.132812" xlink:href="#ArialMT-6e"/>
       <use x="266.748047" xlink:href="#ArialMT-61"/>
       <use x="322.363281" xlink:href="#ArialMT-6c"/>
      </g>
     </g>
    </g>
    <g id="xtick_2">
     <g id="text_2">
      <!-- Mutated -->
      <g style="fill:#262626;" transform="translate(91.575156 120.089687)rotate(-90)scale(0.1 -0.1)">
       <defs>
        <path d="M 475 0 
L 475 4581 
L 1388 4581 
L 2472 1338 
Q 2622 884 2691 659 
Q 2769 909 2934 1394 
L 4031 4581 
L 4847 4581 
L 4847 0 
L 4263 0 
L 4263 3834 
L 2931 0 
L 2384 0 
L 1059 3900 
L 1059 0 
L 475 0 
z
" id="ArialMT-4d" transform="scale(0.015625)"/>
        <path d="M 2597 0 
L 2597 488 
Q 2209 -75 1544 -75 
Q 1250 -75 995 37 
Q 741 150 617 320 
Q 494 491 444 738 
Q 409 903 409 1263 
L 409 3319 
L 972 3319 
L 972 1478 
Q 972 1038 1006 884 
Q 1059 663 1231 536 
Q 1403 409 1656 409 
Q 1909 409 2131 539 
Q 2353 669 2445 892 
Q 2538 1116 2538 1541 
L 2538 3319 
L 3100 3319 
L 3100 0 
L 2597 0 
z
" id="ArialMT-75" transform="scale(0.015625)"/>
        <path d="M 1650 503 
L 1731 6 
Q 1494 -44 1306 -44 
Q 1000 -44 831 53 
Q 663 150 594 308 
Q 525 466 525 972 
L 525 2881 
L 113 2881 
L 113 3319 
L 525 3319 
L 525 4141 
L 1084 4478 
L 1084 3319 
L 1650 3319 
L 1650 2881 
L 1084 2881 
L 1084 941 
Q 1084 700 1114 631 
Q 1144 563 1211 522 
Q 1278 481 1403 481 
Q 1497 481 1650 503 
z
" id="ArialMT-74" transform="scale(0.015625)"/>
        <path d="M 2694 1069 
L 3275 997 
Q 3138 488 2766 206 
Q 2394 -75 1816 -75 
Q 1088 -75 661 373 
Q 234 822 234 1631 
Q 234 2469 665 2931 
Q 1097 3394 1784 3394 
Q 2450 3394 2872 2941 
Q 3294 2488 3294 1666 
Q 3294 1616 3291 1516 
L 816 1516 
Q 847 969 1125 678 
Q 1403 388 1819 388 
Q 2128 388 2347 550 
Q 2566 713 2694 1069 
z
M 847 1978 
L 2700 1978 
Q 2663 2397 2488 2606 
Q 2219 2931 1791 2931 
Q 1403 2931 1139 2672 
Q 875 2413 847 1978 
z
" id="ArialMT-65" transform="scale(0.015625)"/>
        <path d="M 2575 0 
L 2575 419 
Q 2259 -75 1647 -75 
Q 1250 -75 917 144 
Q 584 363 401 755 
Q 219 1147 219 1656 
Q 219 2153 384 2558 
Q 550 2963 881 3178 
Q 1213 3394 1622 3394 
Q 1922 3394 2156 3267 
Q 2391 3141 2538 2938 
L 2538 4581 
L 3097 4581 
L 3097 0 
L 2575 0 
z
M 797 1656 
Q 797 1019 1065 703 
Q 1334 388 1700 388 
Q 2069 388 2326 689 
Q 2584 991 2584 1609 
Q 2584 2291 2321 2609 
Q 2059 2928 1675 2928 
Q 1300 2928 1048 2622 
Q 797 2316 797 1656 
z
" id="ArialMT-64" transform="scale(0.015625)"/>
       </defs>
       <use xlink:href="#ArialMT-4d"/>
       <use x="83.300781" xlink:href="#ArialMT-75"/>
       <use x="138.916016" xlink:href="#ArialMT-74"/>
       <use x="166.699219" xlink:href="#ArialMT-61"/>
       <use x="222.314453" xlink:href="#ArialMT-74"/>
       <use x="250.097656" xlink:href="#ArialMT-65"/>
       <use x="305.712891" xlink:href="#ArialMT-64"/>
      </g>
     </g>
    </g>
    <g id="xtick_3">
     <g id="text_3">
      <!-- STORM -->
      <g style="fill:#262626;" transform="translate(121.04849 119.892812)rotate(-90)scale(0.1 -0.1)">
       <defs>
        <path d="M 288 1472 
L 859 1522 
Q 900 1178 1048 958 
Q 1197 738 1509 602 
Q 1822 466 2213 466 
Q 2559 466 2825 569 
Q 3091 672 3220 851 
Q 3350 1031 3350 1244 
Q 3350 1459 3225 1620 
Q 3100 1781 2813 1891 
Q 2628 1963 1997 2114 
Q 1366 2266 1113 2400 
Q 784 2572 623 2826 
Q 463 3081 463 3397 
Q 463 3744 659 4045 
Q 856 4347 1234 4503 
Q 1613 4659 2075 4659 
Q 2584 4659 2973 4495 
Q 3363 4331 3572 4012 
Q 3781 3694 3797 3291 
L 3216 3247 
Q 3169 3681 2898 3903 
Q 2628 4125 2100 4125 
Q 1550 4125 1298 3923 
Q 1047 3722 1047 3438 
Q 1047 3191 1225 3031 
Q 1400 2872 2139 2705 
Q 2878 2538 3153 2413 
Q 3553 2228 3743 1945 
Q 3934 1663 3934 1294 
Q 3934 928 3725 604 
Q 3516 281 3123 101 
Q 2731 -78 2241 -78 
Q 1619 -78 1198 103 
Q 778 284 539 648 
Q 300 1013 288 1472 
z
" id="ArialMT-53" transform="scale(0.015625)"/>
        <path d="M 1659 0 
L 1659 4041 
L 150 4041 
L 150 4581 
L 3781 4581 
L 3781 4041 
L 2266 4041 
L 2266 0 
L 1659 0 
z
" id="ArialMT-54" transform="scale(0.015625)"/>
        <path d="M 503 0 
L 503 4581 
L 2534 4581 
Q 3147 4581 3465 4457 
Q 3784 4334 3975 4021 
Q 4166 3709 4166 3331 
Q 4166 2844 3850 2509 
Q 3534 2175 2875 2084 
Q 3116 1969 3241 1856 
Q 3506 1613 3744 1247 
L 4541 0 
L 3778 0 
L 3172 953 
Q 2906 1366 2734 1584 
Q 2563 1803 2427 1890 
Q 2291 1978 2150 2013 
Q 2047 2034 1813 2034 
L 1109 2034 
L 1109 0 
L 503 0 
z
M 1109 2559 
L 2413 2559 
Q 2828 2559 3062 2645 
Q 3297 2731 3419 2920 
Q 3541 3109 3541 3331 
Q 3541 3656 3305 3865 
Q 3069 4075 2559 4075 
L 1109 4075 
L 1109 2559 
z
" id="ArialMT-52" transform="scale(0.015625)"/>
       </defs>
       <use xlink:href="#ArialMT-53"/>
       <use x="66.699219" xlink:href="#ArialMT-54"/>
       <use x="126.033203" xlink:href="#ArialMT-4f"/>
       <use x="203.816406" xlink:href="#ArialMT-52"/>
       <use x="276.033203" xlink:href="#ArialMT-4d"/>
      </g>
     </g>
    </g>
    <g id="text_4">
     <!-- Method -->
     <g style="fill:#262626;" transform="translate(72.314219 131.2475)scale(0.1 -0.1)">
      <defs>
       <path d="M 422 0 
L 422 4581 
L 984 4581 
L 984 2938 
Q 1378 3394 1978 3394 
Q 2347 3394 2619 3248 
Q 2891 3103 3008 2847 
Q 3125 2591 3125 2103 
L 3125 0 
L 2563 0 
L 2563 2103 
Q 2563 2525 2380 2717 
Q 2197 2909 1863 2909 
Q 1613 2909 1392 2779 
Q 1172 2650 1078 2428 
Q 984 2206 984 1816 
L 984 0 
L 422 0 
z
" id="ArialMT-68" transform="scale(0.015625)"/>
       <path d="M 213 1659 
Q 213 2581 725 3025 
Q 1153 3394 1769 3394 
Q 2453 3394 2887 2945 
Q 3322 2497 3322 1706 
Q 3322 1066 3130 698 
Q 2938 331 2570 128 
Q 2203 -75 1769 -75 
Q 1072 -75 642 372 
Q 213 819 213 1659 
z
M 791 1659 
Q 791 1022 1069 705 
Q 1347 388 1769 388 
Q 2188 388 2466 706 
Q 2744 1025 2744 1678 
Q 2744 2294 2464 2611 
Q 2184 2928 1769 2928 
Q 1347 2928 1069 2612 
Q 791 2297 791 1659 
z
" id="ArialMT-6f" transform="scale(0.015625)"/>
      </defs>
      <use xlink:href="#ArialMT-4d"/>
      <use x="83.300781" xlink:href="#ArialMT-65"/>
      <use x="138.916016" xlink:href="#ArialMT-74"/>
      <use x="166.699219" xlink:href="#ArialMT-68"/>
      <use x="222.314453" xlink:href="#ArialMT-6f"/>
      <use x="277.929688" xlink:href="#ArialMT-64"/>
     </g>
    </g>
   </g>
   <g id="matplotlib.axis_2">
    <g id="ytick_1">
     <g id="text_5">
      <!-- 0 -->
      <g style="fill:#262626;" transform="translate(32.219063 70.071203)scale(0.1 -0.1)">
       <defs>
        <path d="M 266 2259 
Q 266 3072 433 3567 
Q 600 4063 929 4331 
Q 1259 4600 1759 4600 
Q 2128 4600 2406 4451 
Q 2684 4303 2865 4023 
Q 3047 3744 3150 3342 
Q 3253 2941 3253 2259 
Q 3253 1453 3087 958 
Q 2922 463 2592 192 
Q 2263 -78 1759 -78 
Q 1097 -78 719 397 
Q 266 969 266 2259 
z
M 844 2259 
Q 844 1131 1108 757 
Q 1372 384 1759 384 
Q 2147 384 2411 759 
Q 2675 1134 2675 2259 
Q 2675 3391 2411 3762 
Q 2147 4134 1753 4134 
Q 1366 4134 1134 3806 
Q 844 3388 844 2259 
z
" id="ArialMT-30" transform="scale(0.015625)"/>
       </defs>
       <use xlink:href="#ArialMT-30"/>
      </g>
     </g>
    </g>
    <g id="ytick_2">
     <g id="text_6">
      <!-- 1 -->
      <g style="fill:#262626;" transform="translate(32.219063 39.532913)scale(0.1 -0.1)">
       <defs>
        <path d="M 2384 0 
L 1822 0 
L 1822 3584 
Q 1619 3391 1289 3197 
Q 959 3003 697 2906 
L 697 3450 
Q 1169 3672 1522 3987 
Q 1875 4303 2022 4600 
L 2384 4600 
L 2384 0 
z
" id="ArialMT-31" transform="scale(0.015625)"/>
       </defs>
       <use xlink:href="#ArialMT-31"/>
      </g>
     </g>
    </g>
    <g id="text_7">
     <!-- Predictions -->
     <g style="fill:#262626;" transform="translate(26.231563 75.932813)rotate(-90)scale(0.1 -0.1)">
      <defs>
       <path d="M 494 0 
L 494 4581 
L 2222 4581 
Q 2678 4581 2919 4538 
Q 3256 4481 3484 4323 
Q 3713 4166 3852 3881 
Q 3991 3597 3991 3256 
Q 3991 2672 3619 2267 
Q 3247 1863 2275 1863 
L 1100 1863 
L 1100 0 
L 494 0 
z
M 1100 2403 
L 2284 2403 
Q 2872 2403 3119 2622 
Q 3366 2841 3366 3238 
Q 3366 3525 3220 3729 
Q 3075 3934 2838 4000 
Q 2684 4041 2272 4041 
L 1100 4041 
L 1100 2403 
z
" id="ArialMT-50" transform="scale(0.015625)"/>
       <path d="M 2588 1216 
L 3141 1144 
Q 3050 572 2676 248 
Q 2303 -75 1759 -75 
Q 1078 -75 664 370 
Q 250 816 250 1647 
Q 250 2184 428 2587 
Q 606 2991 970 3192 
Q 1334 3394 1763 3394 
Q 2303 3394 2647 3120 
Q 2991 2847 3088 2344 
L 2541 2259 
Q 2463 2594 2264 2762 
Q 2066 2931 1784 2931 
Q 1359 2931 1093 2626 
Q 828 2322 828 1663 
Q 828 994 1084 691 
Q 1341 388 1753 388 
Q 2084 388 2306 591 
Q 2528 794 2588 1216 
z
" id="ArialMT-63" transform="scale(0.015625)"/>
       <path d="M 197 991 
L 753 1078 
Q 800 744 1014 566 
Q 1228 388 1613 388 
Q 2000 388 2187 545 
Q 2375 703 2375 916 
Q 2375 1106 2209 1216 
Q 2094 1291 1634 1406 
Q 1016 1563 777 1677 
Q 538 1791 414 1992 
Q 291 2194 291 2438 
Q 291 2659 392 2848 
Q 494 3038 669 3163 
Q 800 3259 1026 3326 
Q 1253 3394 1513 3394 
Q 1903 3394 2198 3281 
Q 2494 3169 2634 2976 
Q 2775 2784 2828 2463 
L 2278 2388 
Q 2241 2644 2061 2787 
Q 1881 2931 1553 2931 
Q 1166 2931 1000 2803 
Q 834 2675 834 2503 
Q 834 2394 903 2306 
Q 972 2216 1119 2156 
Q 1203 2125 1616 2013 
Q 2213 1853 2448 1751 
Q 2684 1650 2818 1456 
Q 2953 1263 2953 975 
Q 2953 694 2789 445 
Q 2625 197 2315 61 
Q 2006 -75 1616 -75 
Q 969 -75 630 194 
Q 291 463 197 991 
z
" id="ArialMT-73" transform="scale(0.015625)"/>
      </defs>
      <use xlink:href="#ArialMT-50"/>
      <use x="66.699219" xlink:href="#ArialMT-72"/>
      <use x="100" xlink:href="#ArialMT-65"/>
      <use x="155.615234" xlink:href="#ArialMT-64"/>
      <use x="211.230469" xlink:href="#ArialMT-69"/>
      <use x="233.447266" xlink:href="#ArialMT-63"/>
      <use x="283.447266" xlink:href="#ArialMT-74"/>
      <use x="311.230469" xlink:href="#ArialMT-69"/>
      <use x="333.447266" xlink:href="#ArialMT-6f"/>
      <use x="389.0625" xlink:href="#ArialMT-6e"/>
      <use x="444.677734" xlink:href="#ArialMT-73"/>
     </g>
    </g>
   </g>
   <g id="PolyCollection_1">
    <defs>
     <path d="M 59.576289 -69.381818 
L 59.457044 -69.381818 
L 59.441032 -69.854913 
L 59.421949 -70.328007 
L 59.399566 -70.801102 
L 59.373736 -71.274197 
L 59.34442 -71.747291 
L 59.311714 -72.220386 
L 59.275864 -72.69348 
L 59.237283 -73.166575 
L 59.196556 -73.639669 
L 59.15443 -74.112764 
L 59.111801 -74.585859 
L 59.069677 -75.058953 
L 59.029145 -75.532048 
L 58.991314 -76.005142 
L 58.957264 -76.478237 
L 58.927987 -76.951331 
L 58.904334 -77.424426 
L 58.886964 -77.897521 
L 58.876305 -78.370615 
L 58.872534 -78.84371 
L 58.87556 -79.316804 
L 58.885036 -79.789899 
L 58.900379 -80.262994 
L 58.920801 -80.736088 
L 58.945356 -81.209183 
L 58.972992 -81.682277 
L 59.002605 -82.155372 
L 59.033091 -82.628466 
L 59.063396 -83.101561 
L 59.092558 -83.574656 
L 59.119741 -84.04775 
L 59.14426 -84.520845 
L 59.165591 -84.993939 
L 59.183378 -85.467034 
L 59.19743 -85.940129 
L 59.207711 -86.413223 
L 59.214323 -86.886318 
L 59.217492 -87.359412 
L 59.217543 -87.832507 
L 59.214882 -88.305601 
L 59.209976 -88.778696 
L 59.203328 -89.251791 
L 59.195456 -89.724885 
L 59.186876 -90.19798 
L 59.178073 -90.671074 
L 59.169485 -91.144169 
L 59.161474 -91.617264 
L 59.154305 -92.090358 
L 59.14812 -92.563453 
L 59.142915 -93.036547 
L 59.138517 -93.509642 
L 59.13456 -93.982736 
L 59.130466 -94.455831 
L 59.125431 -94.928926 
L 59.118411 -95.40202 
L 59.108119 -95.875115 
L 59.093026 -96.348209 
L 59.071376 -96.821304 
L 59.04121 -97.294399 
L 59.000411 -97.767493 
L 58.946761 -98.240588 
L 58.878024 -98.713682 
L 58.792052 -99.186777 
L 58.686913 -99.659871 
L 58.561036 -100.132966 
L 58.413379 -100.606061 
L 58.243595 -101.079155 
L 58.052195 -101.55225 
L 57.840695 -102.025344 
L 57.611722 -102.498439 
L 57.369063 -102.971534 
L 57.117656 -103.444628 
L 56.863489 -103.917723 
L 56.613426 -104.390817 
L 56.374937 -104.863912 
L 56.155767 -105.337006 
L 55.963545 -105.810101 
L 55.805367 -106.283196 
L 55.68738 -106.75629 
L 55.614411 -107.229385 
L 55.589651 -107.702479 
L 55.614452 -108.175574 
L 55.688225 -108.648669 
L 55.808477 -109.121763 
L 55.97096 -109.594858 
L 56.169937 -110.067952 
L 56.39853 -110.541047 
L 56.649134 -111.014141 
L 56.913842 -111.487236 
L 57.184864 -111.960331 
L 57.454913 -112.433425 
L 57.717505 -112.90652 
L 57.967199 -113.379614 
L 58.199727 -113.852709 
L 58.412046 -114.325803 
L 58.602305 -114.798898 
L 58.769746 -115.271993 
L 58.914554 -115.745087 
L 59.03768 -116.218182 
L 59.995654 -116.218182 
L 59.995654 -116.218182 
L 60.11878 -115.745087 
L 60.263587 -115.271993 
L 60.431028 -114.798898 
L 60.621287 -114.325803 
L 60.833606 -113.852709 
L 61.066134 -113.379614 
L 61.315828 -112.90652 
L 61.578421 -112.433425 
L 61.848469 -111.960331 
L 62.119492 -111.487236 
L 62.384199 -111.014141 
L 62.634803 -110.541047 
L 62.863397 -110.067952 
L 63.062373 -109.594858 
L 63.224856 -109.121763 
L 63.345108 -108.648669 
L 63.418882 -108.175574 
L 63.443682 -107.702479 
L 63.418923 -107.229385 
L 63.345953 -106.75629 
L 63.227967 -106.283196 
L 63.069788 -105.810101 
L 62.877566 -105.337006 
L 62.658396 -104.863912 
L 62.419907 -104.390817 
L 62.169844 -103.917723 
L 61.915678 -103.444628 
L 61.664271 -102.971534 
L 61.421612 -102.498439 
L 61.192638 -102.025344 
L 60.981139 -101.55225 
L 60.789739 -101.079155 
L 60.619954 -100.606061 
L 60.472297 -100.132966 
L 60.346421 -99.659871 
L 60.241281 -99.186777 
L 60.15531 -98.713682 
L 60.086572 -98.240588 
L 60.032922 -97.767493 
L 59.992123 -97.294399 
L 59.961958 -96.821304 
L 59.940308 -96.348209 
L 59.925215 -95.875115 
L 59.914922 -95.40202 
L 59.907902 -94.928926 
L 59.902867 -94.455831 
L 59.898773 -93.982736 
L 59.894816 -93.509642 
L 59.890418 -93.036547 
L 59.885214 -92.563453 
L 59.879029 -92.090358 
L 59.871859 -91.617264 
L 59.863848 -91.144169 
L 59.85526 -90.671074 
L 59.846458 -90.19798 
L 59.837877 -89.724885 
L 59.830006 -89.251791 
L 59.823357 -88.778696 
L 59.818451 -88.305601 
L 59.815791 -87.832507 
L 59.815841 -87.359412 
L 59.81901 -86.886318 
L 59.825623 -86.413223 
L 59.835903 -85.940129 
L 59.849956 -85.467034 
L 59.867743 -84.993939 
L 59.889073 -84.520845 
L 59.913592 -84.04775 
L 59.940776 -83.574656 
L 59.969938 -83.101561 
L 60.000242 -82.628466 
L 60.030728 -82.155372 
L 60.060341 -81.682277 
L 60.087978 -81.209183 
L 60.112533 -80.736088 
L 60.132954 -80.262994 
L 60.148297 -79.789899 
L 60.157774 -79.316804 
L 60.1608 -78.84371 
L 60.157028 -78.370615 
L 60.146369 -77.897521 
L 60.128999 -77.424426 
L 60.105346 -76.951331 
L 60.07607 -76.478237 
L 60.04202 -76.005142 
L 60.004188 -75.532048 
L 59.963656 -75.058953 
L 59.921532 -74.585859 
L 59.878903 -74.112764 
L 59.836778 -73.639669 
L 59.79605 -73.166575 
L 59.75747 -72.69348 
L 59.721619 -72.220386 
L 59.688913 -71.747291 
L 59.659597 -71.274197 
L 59.633767 -70.801102 
L 59.611384 -70.328007 
L 59.592301 -69.854913 
L 59.576289 -69.381818 
z
" id="m93ef990c6c" style="stroke:#262626;stroke-width:0.75;"/>
    </defs>
    <g clip-path="url(#pa91cbcf0ac)">
     <use style="fill:#7f9dd2;stroke:#262626;stroke-width:0.75;" x="0" xlink:href="#m93ef990c6c" y="144"/>
    </g>
   </g>
   <g id="PolyCollection_2">
    <defs>
     <path d="M 89.118123 -75.017431 
L 88.861877 -75.017431 
L 88.759778 -75.376211 
L 88.607722 -75.734992 
L 88.402982 -76.093772 
L 88.15558 -76.452553 
L 87.890657 -76.811333 
L 87.64525 -77.170114 
L 87.459184 -77.528895 
L 87.363031 -77.887675 
L 87.36831 -78.246456 
L 87.464454 -78.605236 
L 87.623734 -78.964017 
L 87.811429 -79.322797 
L 87.996341 -79.681578 
L 88.15759 -80.040358 
L 88.286179 -80.399139 
L 88.382528 -80.75792 
L 88.452328 -81.1167 
L 88.502816 -81.475481 
L 88.540458 -81.834261 
L 88.570066 -82.193042 
L 88.594826 -82.551822 
L 88.616706 -82.910603 
L 88.636846 -83.269384 
L 88.655806 -83.628164 
L 88.673685 -83.986945 
L 88.690215 -84.345725 
L 88.704901 -84.704506 
L 88.717222 -85.063286 
L 88.726813 -85.422067 
L 88.733578 -85.780847 
L 88.737682 -86.139628 
L 88.739484 -86.498409 
L 88.739455 -86.857189 
L 88.738122 -87.21597 
L 88.736027 -87.57475 
L 88.733673 -87.933531 
L 88.731458 -88.292311 
L 88.7296 -88.651092 
L 88.728137 -89.009873 
L 88.726977 -89.368653 
L 88.726017 -89.727434 
L 88.725236 -90.086214 
L 88.724741 -90.444995 
L 88.72472 -90.803775 
L 88.725345 -91.162556 
L 88.726654 -91.521336 
L 88.72847 -91.880117 
L 88.730395 -92.238898 
L 88.73188 -92.597678 
L 88.73235 -92.956459 
L 88.73135 -93.315239 
L 88.728654 -93.67402 
L 88.724308 -94.0328 
L 88.718589 -94.391581 
L 88.711917 -94.750362 
L 88.704754 -95.109142 
L 88.697528 -95.467923 
L 88.690597 -95.826703 
L 88.684241 -96.185484 
L 88.678653 -96.544264 
L 88.673921 -96.903045 
L 88.670019 -97.261825 
L 88.666812 -97.620606 
L 88.664101 -97.979387 
L 88.661679 -98.338167 
L 88.659349 -98.696948 
L 88.656892 -99.055728 
L 88.653973 -99.414509 
L 88.650051 -99.773289 
L 88.64438 -100.13207 
L 88.636119 -100.49085 
L 88.624535 -100.849631 
L 88.609164 -101.208412 
L 88.589823 -101.567192 
L 88.566419 -101.925973 
L 88.538553 -102.284753 
L 88.505006 -102.643534 
L 88.463032 -103.002314 
L 88.407209 -103.361095 
L 88.327298 -103.719876 
L 88.204556 -104.078656 
L 88.006466 -104.437437 
L 87.681475 -104.796217 
L 87.157862 -105.154998 
L 86.353112 -105.513778 
L 85.199492 -105.872559 
L 83.685041 -106.231339 
L 81.897346 -106.59012 
L 80.046081 -106.948901 
L 78.439753 -107.307681 
L 77.409266 -107.666462 
L 77.200667 -108.025242 
L 77.883654 -108.384023 
L 79.321738 -108.742803 
L 81.220582 -109.101584 
L 83.230443 -109.460365 
L 85.053289 -109.819145 
L 86.509934 -110.177926 
L 87.55034 -110.536706 
L 90.42966 -110.536706 
L 90.42966 -110.536706 
L 91.470066 -110.177926 
L 92.926711 -109.819145 
L 94.749557 -109.460365 
L 96.759418 -109.101584 
L 98.658262 -108.742803 
L 100.096346 -108.384023 
L 100.779333 -108.025242 
L 100.570734 -107.666462 
L 99.540247 -107.307681 
L 97.933919 -106.948901 
L 96.082654 -106.59012 
L 94.294959 -106.231339 
L 92.780508 -105.872559 
L 91.626888 -105.513778 
L 90.822138 -105.154998 
L 90.298525 -104.796217 
L 89.973534 -104.437437 
L 89.775444 -104.078656 
L 89.652702 -103.719876 
L 89.572791 -103.361095 
L 89.516968 -103.002314 
L 89.474994 -102.643534 
L 89.441447 -102.284753 
L 89.413581 -101.925973 
L 89.390177 -101.567192 
L 89.370836 -101.208412 
L 89.355465 -100.849631 
L 89.343881 -100.49085 
L 89.33562 -100.13207 
L 89.329949 -99.773289 
L 89.326027 -99.414509 
L 89.323108 -99.055728 
L 89.320651 -98.696948 
L 89.318321 -98.338167 
L 89.315899 -97.979387 
L 89.313188 -97.620606 
L 89.309981 -97.261825 
L 89.306079 -96.903045 
L 89.301347 -96.544264 
L 89.295759 -96.185484 
L 89.289403 -95.826703 
L 89.282472 -95.467923 
L 89.275246 -95.109142 
L 89.268083 -94.750362 
L 89.261411 -94.391581 
L 89.255692 -94.0328 
L 89.251346 -93.67402 
L 89.24865 -93.315239 
L 89.24765 -92.956459 
L 89.24812 -92.597678 
L 89.249605 -92.238898 
L 89.25153 -91.880117 
L 89.253346 -91.521336 
L 89.254655 -91.162556 
L 89.25528 -90.803775 
L 89.255259 -90.444995 
L 89.254764 -90.086214 
L 89.253983 -89.727434 
L 89.253023 -89.368653 
L 89.251863 -89.009873 
L 89.2504 -88.651092 
L 89.248542 -88.292311 
L 89.246327 -87.933531 
L 89.243973 -87.57475 
L 89.241878 -87.21597 
L 89.240545 -86.857189 
L 89.240516 -86.498409 
L 89.242318 -86.139628 
L 89.246422 -85.780847 
L 89.253187 -85.422067 
L 89.262778 -85.063286 
L 89.275099 -84.704506 
L 89.289785 -84.345725 
L 89.306315 -83.986945 
L 89.324194 -83.628164 
L 89.343154 -83.269384 
L 89.363294 -82.910603 
L 89.385174 -82.551822 
L 89.409934 -82.193042 
L 89.439542 -81.834261 
L 89.477184 -81.475481 
L 89.527672 -81.1167 
L 89.597472 -80.75792 
L 89.693821 -80.399139 
L 89.82241 -80.040358 
L 89.983659 -79.681578 
L 90.168571 -79.322797 
L 90.356266 -78.964017 
L 90.515546 -78.605236 
L 90.61169 -78.246456 
L 90.616969 -77.887675 
L 90.520816 -77.528895 
L 90.33475 -77.170114 
L 90.089343 -76.811333 
L 89.82442 -76.452553 
L 89.577018 -76.093772 
L 89.372278 -75.734992 
L 89.220222 -75.376211 
L 89.118123 -75.017431 
z
" id="me3aa06f657" style="stroke:#262626;stroke-width:0.75;"/>
    </defs>
    <g clip-path="url(#pa91cbcf0ac)">
     <use style="fill:#1a1a66;stroke:#262626;stroke-width:0.75;" x="0" xlink:href="#me3aa06f657" y="144"/>
    </g>
   </g>
   <g id="line2d_1">
    <path clip-path="url(#pa91cbcf0ac)" d="M 59.516667 44.976185 
L 59.516667 35.954007 
" style="fill:none;stroke:#262626;stroke-linecap:round;stroke-width:0.75;"/>
   </g>
   <g id="line2d_2">
    <path clip-path="url(#pa91cbcf0ac)" d="M 59.516667 39.604819 
L 59.516667 35.95404 
" style="fill:none;stroke:#262626;stroke-linecap:round;stroke-width:2.25;"/>
   </g>
   <g id="line2d_3">
    <path clip-path="url(#pa91cbcf0ac)" d="M 88.99 46.776108 
L 88.99 35.954007 
" style="fill:none;stroke:#262626;stroke-linecap:round;stroke-width:0.75;"/>
   </g>
   <g id="line2d_4">
    <path clip-path="url(#pa91cbcf0ac)" d="M 88.99 40.283025 
L 88.99 35.954032 
" style="fill:none;stroke:#262626;stroke-linecap:round;stroke-width:2.25;"/>
   </g>
   <g id="line2d_5">
    <path clip-path="url(#pa91cbcf0ac)" d="M 106.674 66.174766 
L 130.252667 66.174766 
" style="fill:none;stroke:#262626;stroke-linecap:round;stroke-width:0.75;"/>
   </g>
   <g id="patch_3">
    <path d="M 44.78 76.96 
L 44.78 25.44 
" style="fill:none;stroke:#262626;stroke-linecap:square;stroke-linejoin:miter;stroke-width:0.8;"/>
   </g>
   <g id="patch_4">
    <path d="M 44.78 76.96 
L 133.2 76.96 
" style="fill:none;stroke:#262626;stroke-linecap:square;stroke-linejoin:miter;stroke-width:0.8;"/>
   </g>
   <g id="PathCollection_1">
    <defs>
     <path d="M 0 0.75 
C 0.198902 0.75 0.389685 0.670975 0.53033 0.53033 
C 0.670975 0.389685 0.75 0.198902 0.75 0 
C 0.75 -0.198902 0.670975 -0.389685 0.53033 -0.53033 
C 0.389685 -0.670975 0.198902 -0.75 0 -0.75 
C -0.198902 -0.75 -0.389685 -0.670975 -0.53033 -0.53033 
C -0.670975 -0.389685 -0.75 -0.198902 -0.75 0 
C -0.75 0.198902 -0.670975 0.389685 -0.53033 0.53033 
C -0.389685 0.670975 -0.198902 0.75 0 0.75 
z
" id="m2a66a1e0a4" style="stroke:#262626;"/>
    </defs>
    <g clip-path="url(#pa91cbcf0ac)">
     <use style="fill:#ffffff;stroke:#262626;" x="59.516667" xlink:href="#m2a66a1e0a4" y="35.957713"/>
    </g>
   </g>
   <g id="PathCollection_2">
    <g clip-path="url(#pa91cbcf0ac)">
     <use style="fill:#ffffff;stroke:#262626;" x="88.99" xlink:href="#m2a66a1e0a4" y="35.959695"/>
    </g>
   </g>
   <g id="text_8">
    <!-- Class0.0 -->
    <g style="fill:#262626;" transform="translate(65.647188 19.44)scale(0.12 -0.12)">
     <defs>
      <path d="M 3763 1606 
L 4369 1453 
Q 4178 706 3683 314 
Q 3188 -78 2472 -78 
Q 1731 -78 1267 223 
Q 803 525 561 1097 
Q 319 1669 319 2325 
Q 319 3041 592 3573 
Q 866 4106 1370 4382 
Q 1875 4659 2481 4659 
Q 3169 4659 3637 4309 
Q 4106 3959 4291 3325 
L 3694 3184 
Q 3534 3684 3231 3912 
Q 2928 4141 2469 4141 
Q 1941 4141 1586 3887 
Q 1231 3634 1087 3207 
Q 944 2781 944 2328 
Q 944 1744 1114 1308 
Q 1284 872 1643 656 
Q 2003 441 2422 441 
Q 2931 441 3284 734 
Q 3638 1028 3763 1606 
z
" id="ArialMT-43" transform="scale(0.015625)"/>
      <path d="M 581 0 
L 581 641 
L 1222 641 
L 1222 0 
L 581 0 
z
" id="ArialMT-2e" transform="scale(0.015625)"/>
     </defs>
     <use xlink:href="#ArialMT-43"/>
     <use x="72.216797" xlink:href="#ArialMT-6c"/>
     <use x="94.433594" xlink:href="#ArialMT-61"/>
     <use x="150.048828" xlink:href="#ArialMT-73"/>
     <use x="200.048828" xlink:href="#ArialMT-73"/>
     <use x="250.048828" xlink:href="#ArialMT-30"/>
     <use x="305.664062" xlink:href="#ArialMT-2e"/>
     <use x="333.447266" xlink:href="#ArialMT-30"/>
    </g>
   </g>
  </g>
 </g>
 <defs>
  <clipPath id="pa91cbcf0ac">
   <rect height="51.52" width="88.42" x="44.78" y="25.44"/>
  </clipPath>
 </defs>
</svg>
