<?xml version="1.0" encoding="utf-8" standalone="no"?>
<!DOCTYPE svg PUBLIC "-//W3C//DTD SVG 1.1//EN"
  "http://www.w3.org/Graphics/SVG/1.1/DTD/svg11.dtd">
<svg height="720pt" version="1.1" viewBox="0 0 144 720" width="144pt" xmlns="http://www.w3.org/2000/svg" xmlns:xlink="http://www.w3.org/1999/xlink">
 <metadata>
  <rdf:RDF xmlns:cc="http://creativecommons.org/ns#" xmlns:dc="http://purl.org/dc/elements/1.1/" xmlns:rdf="http://www.w3.org/1999/02/22-rdf-syntax-ns#">
   <cc:Work>
    <dc:type rdf:resource="http://purl.org/dc/dcmitype/StillImage"/>
    <dc:date>2022-01-12T16:16:55.450574</dc:date>
    <dc:format>image/svg+xml</dc:format>
    <dc:creator>
     <cc:Agent>
      <dc:title>Matplotlib v3.4.2, https://matplotlib.org/</dc:title>
     </cc:Agent>
    </dc:creator>
   </cc:Work>
  </rdf:RDF>
 </metadata>
 <defs>
  <style type="text/css">*{stroke-linecap:butt;stroke-linejoin:round;}</style>
 </defs>
 <g id="figure_1">
  <g id="patch_1">
   <path d="M 0 720 
L 144 720 
L 144 0 
L 0 0 
z
" style="fill:none;"/>
  </g>
  <g id="axes_1">
   <g id="legend_1">
    <g id="patch_2">
     <path d="M -4.448438 491.448438 
L 148.448438 491.448438 
Q 152.448438 491.448438 152.448438 487.448438 
L 152.448438 232.551562 
Q 152.448438 228.551562 148.448438 228.551562 
L -4.448438 228.551562 
Q -8.448438 228.551562 -8.448438 232.551562 
L -8.448438 487.448438 
Q -8.448438 491.448438 -4.448438 491.448438 
z
" style="fill:#ffffff;opacity:0.8;stroke:#cccccc;stroke-linejoin:miter;"/>
    </g>
    <g id="line2d_1">
     <path d="M -0.448438 243.898438 
L 39.551562 243.898438 
" style="fill:none;stroke:#30123b;stroke-linecap:square;stroke-width:1.5;"/>
    </g>
    <g id="line2d_2">
     <defs>
      <path d="M 0 5 
C 1.326016 5 2.597899 4.473168 3.535534 3.535534 
C 4.473168 2.597899 5 1.326016 5 0 
C 5 -1.326016 4.473168 -2.597899 3.535534 -3.535534 
C 2.597899 -4.473168 1.326016 -5 0 -5 
C -1.326016 -5 -2.597899 -4.473168 -3.535534 -3.535534 
C -4.473168 -2.597899 -5 -1.326016 -5 0 
C -5 1.326016 -4.473168 2.597899 -3.535534 3.535534 
C -2.597899 4.473168 -1.326016 5 0 5 
z
" id="md1b350b8ef" style="stroke:#30123b;"/>
     </defs>
     <g>
      <use style="fill:#30123b;stroke:#30123b;" x="19.551562" xlink:href="#md1b350b8ef" y="243.898438"/>
     </g>
    </g>
    <g id="text_1">
     <!-- a: Gal -->
     <g transform="translate(55.551562 250.898438)scale(0.2 -0.2)">
      <defs>
       <path d="M 844 891 
Q 844 647 1022 506 
Q 1200 366 1444 366 
Q 1741 366 2019 503 
Q 2488 731 2488 1250 
L 2488 1703 
Q 2384 1638 2221 1594 
Q 2059 1550 1903 1531 
L 1563 1488 
Q 1256 1447 1103 1359 
Q 844 1213 844 891 
z
M 2206 2028 
Q 2400 2053 2466 2191 
Q 2503 2266 2503 2406 
Q 2503 2694 2298 2823 
Q 2094 2953 1713 2953 
Q 1272 2953 1088 2716 
Q 984 2584 953 2325 
L 428 2325 
Q 444 2944 830 3186 
Q 1216 3428 1725 3428 
Q 2316 3428 2684 3203 
Q 3050 2978 3050 2503 
L 3050 575 
Q 3050 488 3086 434 
Q 3122 381 3238 381 
Q 3275 381 3322 386 
Q 3369 391 3422 400 
L 3422 -16 
Q 3291 -53 3222 -62 
Q 3153 -72 3034 -72 
Q 2744 -72 2613 134 
Q 2544 244 2516 444 
Q 2344 219 2022 53 
Q 1700 -113 1313 -113 
Q 847 -113 551 170 
Q 256 453 256 878 
Q 256 1344 547 1600 
Q 838 1856 1309 1916 
L 2206 2028 
z
M 1741 3428 
L 1741 3428 
z
" id="Helvetica-61" transform="scale(0.015625)"/>
       <path d="M 709 3303 
L 1363 3303 
L 1363 2622 
L 709 2622 
L 709 3303 
z
M 709 681 
L 1363 681 
L 1363 0 
L 709 0 
L 709 681 
z
" id="Helvetica-3a" transform="scale(0.015625)"/>
       <path id="Helvetica-20" transform="scale(0.015625)"/>
       <path d="M 2472 4709 
Q 3119 4709 3591 4459 
Q 4275 4100 4428 3200 
L 3813 3200 
Q 3700 3703 3347 3933 
Q 2994 4163 2456 4163 
Q 1819 4163 1383 3684 
Q 947 3206 947 2259 
Q 947 1441 1306 927 
Q 1666 413 2478 413 
Q 3100 413 3508 773 
Q 3916 1134 3925 1941 
L 2488 1941 
L 2488 2456 
L 4503 2456 
L 4503 0 
L 4103 0 
L 3953 591 
Q 3638 244 3394 109 
Q 2984 -122 2353 -122 
Q 1538 -122 950 406 
Q 309 1069 309 2225 
Q 309 3378 934 4059 
Q 1528 4709 2472 4709 
z
M 2369 4716 
L 2369 4716 
z
" id="Helvetica-47" transform="scale(0.015625)"/>
       <path d="M 428 4591 
L 991 4591 
L 991 0 
L 428 0 
L 428 4591 
z
" id="Helvetica-6c" transform="scale(0.015625)"/>
      </defs>
      <use xlink:href="#Helvetica-61"/>
      <use x="55.615234" xlink:href="#Helvetica-3a"/>
      <use x="83.398438" xlink:href="#Helvetica-20"/>
      <use x="111.181641" xlink:href="#Helvetica-47"/>
      <use x="188.964844" xlink:href="#Helvetica-61"/>
      <use x="244.580078" xlink:href="#Helvetica-6c"/>
     </g>
    </g>
    <g id="line2d_3">
     <path d="M -0.448438 272.414062 
L 39.551562 272.414062 
" style="fill:none;stroke:#466be3;stroke-linecap:square;stroke-width:1.5;"/>
    </g>
    <g id="line2d_4">
     <defs>
      <path d="M 0 5 
C 1.326016 5 2.597899 4.473168 3.535534 3.535534 
C 4.473168 2.597899 5 1.326016 5 0 
C 5 -1.326016 4.473168 -2.597899 3.535534 -3.535534 
C 2.597899 -4.473168 1.326016 -5 0 -5 
C -1.326016 -5 -2.597899 -4.473168 -3.535534 -3.535534 
C -4.473168 -2.597899 -5 -1.326016 -5 0 
C -5 1.326016 -4.473168 2.597899 -3.535534 3.535534 
C -2.597899 4.473168 -1.326016 5 0 5 
z
" id="m5f53df9c2b" style="stroke:#466be3;"/>
     </defs>
     <g>
      <use style="fill:#466be3;stroke:#466be3;" x="19.551562" xlink:href="#m5f53df9c2b" y="272.414062"/>
     </g>
    </g>
    <g id="text_2">
     <!-- b: Glc -->
     <g transform="translate(55.551562 279.414062)scale(0.2 -0.2)">
      <defs>
       <path d="M 369 4606 
L 916 4606 
L 916 2941 
Q 1100 3181 1356 3307 
Q 1613 3434 1913 3434 
Q 2538 3434 2927 3004 
Q 3316 2575 3316 1738 
Q 3316 944 2931 419 
Q 2547 -106 1866 -106 
Q 1484 -106 1222 78 
Q 1066 188 888 428 
L 888 0 
L 369 0 
L 369 4606 
z
M 1831 391 
Q 2288 391 2514 753 
Q 2741 1116 2741 1709 
Q 2741 2238 2514 2584 
Q 2288 2931 1847 2931 
Q 1463 2931 1173 2647 
Q 884 2363 884 1709 
Q 884 1238 1003 944 
Q 1225 391 1831 391 
z
" id="Helvetica-62" transform="scale(0.015625)"/>
       <path d="M 1703 3444 
Q 2269 3444 2623 3169 
Q 2978 2894 3050 2222 
L 2503 2222 
Q 2453 2531 2275 2736 
Q 2097 2941 1703 2941 
Q 1166 2941 934 2416 
Q 784 2075 784 1575 
Q 784 1072 996 728 
Q 1209 384 1666 384 
Q 2016 384 2220 598 
Q 2425 813 2503 1184 
L 3050 1184 
Q 2956 519 2581 211 
Q 2206 -97 1622 -97 
Q 966 -97 575 383 
Q 184 863 184 1581 
Q 184 2463 612 2953 
Q 1041 3444 1703 3444 
z
M 1616 3428 
L 1616 3428 
z
" id="Helvetica-63" transform="scale(0.015625)"/>
      </defs>
      <use xlink:href="#Helvetica-62"/>
      <use x="55.615234" xlink:href="#Helvetica-3a"/>
      <use x="83.398438" xlink:href="#Helvetica-20"/>
      <use x="111.181641" xlink:href="#Helvetica-47"/>
      <use x="188.964844" xlink:href="#Helvetica-6c"/>
      <use x="211.181641" xlink:href="#Helvetica-63"/>
     </g>
    </g>
    <g id="line2d_5">
     <path d="M -0.448438 300.929688 
L 39.551562 300.929688 
" style="fill:none;stroke:#28bceb;stroke-linecap:square;stroke-width:1.5;"/>
    </g>
    <g id="line2d_6">
     <defs>
      <path d="M 0 5 
C 1.326016 5 2.597899 4.473168 3.535534 3.535534 
C 4.473168 2.597899 5 1.326016 5 0 
C 5 -1.326016 4.473168 -2.597899 3.535534 -3.535534 
C 2.597899 -4.473168 1.326016 -5 0 -5 
C -1.326016 -5 -2.597899 -4.473168 -3.535534 -3.535534 
C -4.473168 -2.597899 -5 -1.326016 -5 0 
C -5 1.326016 -4.473168 2.597899 -3.535534 3.535534 
C -2.597899 4.473168 -1.326016 5 0 5 
z
" id="mac8cf2c196" style="stroke:#28bceb;"/>
     </defs>
     <g>
      <use style="fill:#28bceb;stroke:#28bceb;" x="19.551562" xlink:href="#mac8cf2c196" y="300.929688"/>
     </g>
    </g>
    <g id="text_3">
     <!-- c: GlcNAc -->
     <g transform="translate(55.551562 307.929688)scale(0.2 -0.2)">
      <defs>
       <path d="M 488 4591 
L 1222 4591 
L 3541 872 
L 3541 4591 
L 4131 4591 
L 4131 0 
L 3434 0 
L 1081 3716 
L 1081 0 
L 488 0 
L 488 4591 
z
M 2269 4591 
L 2269 4591 
z
" id="Helvetica-4e" transform="scale(0.015625)"/>
       <path d="M 2844 1881 
L 2147 3909 
L 1406 1881 
L 2844 1881 
z
M 1822 4591 
L 2525 4591 
L 4191 0 
L 3509 0 
L 3044 1375 
L 1228 1375 
L 731 0 
L 94 0 
L 1822 4591 
z
M 2144 4591 
L 2144 4591 
z
" id="Helvetica-41" transform="scale(0.015625)"/>
      </defs>
      <use xlink:href="#Helvetica-63"/>
      <use x="50" xlink:href="#Helvetica-3a"/>
      <use x="77.783203" xlink:href="#Helvetica-20"/>
      <use x="105.566406" xlink:href="#Helvetica-47"/>
      <use x="183.349609" xlink:href="#Helvetica-6c"/>
      <use x="205.566406" xlink:href="#Helvetica-63"/>
      <use x="255.566406" xlink:href="#Helvetica-4e"/>
      <use x="327.783203" xlink:href="#Helvetica-41"/>
      <use x="394.482422" xlink:href="#Helvetica-63"/>
     </g>
    </g>
    <g id="line2d_7">
     <path d="M -0.448438 329.445312 
L 39.551562 329.445312 
" style="fill:none;stroke:#32f298;stroke-linecap:square;stroke-width:1.5;"/>
    </g>
    <g id="line2d_8">
     <defs>
      <path d="M 0 5 
C 1.326016 5 2.597899 4.473168 3.535534 3.535534 
C 4.473168 2.597899 5 1.326016 5 0 
C 5 -1.326016 4.473168 -2.597899 3.535534 -3.535534 
C 2.597899 -4.473168 1.326016 -5 0 -5 
C -1.326016 -5 -2.597899 -4.473168 -3.535534 -3.535534 
C -4.473168 -2.597899 -5 -1.326016 -5 0 
C -5 1.326016 -4.473168 2.597899 -3.535534 3.535534 
C -2.597899 4.473168 -1.326016 5 0 5 
z
" id="mb24740abe9" style="stroke:#32f298;"/>
     </defs>
     <g>
      <use style="fill:#32f298;stroke:#32f298;" x="19.551562" xlink:href="#mb24740abe9" y="329.445312"/>
     </g>
    </g>
    <g id="text_4">
     <!-- d: Rha -->
     <g transform="translate(55.551562 336.445312)scale(0.2 -0.2)">
      <defs>
       <path d="M 769 1634 
Q 769 1097 997 734 
Q 1225 372 1728 372 
Q 2119 372 2370 708 
Q 2622 1044 2622 1672 
Q 2622 2306 2362 2611 
Q 2103 2916 1722 2916 
Q 1297 2916 1033 2591 
Q 769 2266 769 1634 
z
M 1616 3406 
Q 2000 3406 2259 3244 
Q 2409 3150 2600 2916 
L 2600 4606 
L 3141 4606 
L 3141 0 
L 2634 0 
L 2634 466 
Q 2438 156 2169 18 
Q 1900 -119 1553 -119 
Q 994 -119 584 351 
Q 175 822 175 1603 
Q 175 2334 548 2870 
Q 922 3406 1616 3406 
z
" id="Helvetica-64" transform="scale(0.015625)"/>
       <path d="M 2622 2488 
Q 3059 2488 3314 2663 
Q 3569 2838 3569 3294 
Q 3569 3784 3213 3963 
Q 3022 4056 2703 4056 
L 1184 4056 
L 1184 2488 
L 2622 2488 
z
M 563 4591 
L 2688 4591 
Q 3213 4591 3553 4438 
Q 4200 4144 4200 3353 
Q 4200 2941 4029 2678 
Q 3859 2416 3553 2256 
Q 3822 2147 3958 1969 
Q 4094 1791 4109 1391 
L 4131 775 
Q 4141 513 4175 384 
Q 4231 166 4375 103 
L 4375 0 
L 3613 0 
Q 3581 59 3562 153 
Q 3544 247 3531 516 
L 3494 1281 
Q 3472 1731 3159 1884 
Q 2981 1969 2600 1969 
L 1184 1969 
L 1184 0 
L 563 0 
L 563 4591 
z
" id="Helvetica-52" transform="scale(0.015625)"/>
       <path d="M 413 4606 
L 975 4606 
L 975 2894 
Q 1175 3147 1334 3250 
Q 1606 3428 2013 3428 
Q 2741 3428 3000 2919 
Q 3141 2641 3141 2147 
L 3141 0 
L 2563 0 
L 2563 2109 
Q 2563 2478 2469 2650 
Q 2316 2925 1894 2925 
Q 1544 2925 1259 2684 
Q 975 2444 975 1775 
L 975 0 
L 413 0 
L 413 4606 
z
" id="Helvetica-68" transform="scale(0.015625)"/>
      </defs>
      <use xlink:href="#Helvetica-64"/>
      <use x="55.615234" xlink:href="#Helvetica-3a"/>
      <use x="83.398438" xlink:href="#Helvetica-20"/>
      <use x="111.181641" xlink:href="#Helvetica-52"/>
      <use x="183.398438" xlink:href="#Helvetica-68"/>
      <use x="239.013672" xlink:href="#Helvetica-61"/>
     </g>
    </g>
    <g id="line2d_9">
     <path d="M -0.448438 357.960938 
L 39.551562 357.960938 
" style="fill:none;stroke:#a4fc3c;stroke-linecap:square;stroke-width:1.5;"/>
    </g>
    <g id="line2d_10">
     <defs>
      <path d="M 0 5 
C 1.326016 5 2.597899 4.473168 3.535534 3.535534 
C 4.473168 2.597899 5 1.326016 5 0 
C 5 -1.326016 4.473168 -2.597899 3.535534 -3.535534 
C 2.597899 -4.473168 1.326016 -5 0 -5 
C -1.326016 -5 -2.597899 -4.473168 -3.535534 -3.535534 
C -4.473168 -2.597899 -5 -1.326016 -5 0 
C -5 1.326016 -4.473168 2.597899 -3.535534 3.535534 
C -2.597899 4.473168 -1.326016 5 0 5 
z
" id="m2b855f991b" style="stroke:#a4fc3c;"/>
     </defs>
     <g>
      <use style="fill:#a4fc3c;stroke:#a4fc3c;" x="19.551562" xlink:href="#m2b855f991b" y="357.960938"/>
     </g>
    </g>
    <g id="text_5">
     <!-- e: a1-2 -->
     <g transform="translate(55.551562 364.960938)scale(0.2 -0.2)">
      <defs>
       <path d="M 1806 3422 
Q 2163 3422 2497 3255 
Q 2831 3088 3006 2822 
Q 3175 2569 3231 2231 
Q 3281 2000 3281 1494 
L 828 1494 
Q 844 984 1069 676 
Q 1294 369 1766 369 
Q 2206 369 2469 659 
Q 2619 828 2681 1050 
L 3234 1050 
Q 3213 866 3089 639 
Q 2966 413 2813 269 
Q 2556 19 2178 -69 
Q 1975 -119 1719 -119 
Q 1094 -119 659 336 
Q 225 791 225 1609 
Q 225 2416 662 2919 
Q 1100 3422 1806 3422 
z
M 2703 1941 
Q 2669 2306 2544 2525 
Q 2313 2931 1772 2931 
Q 1384 2931 1121 2651 
Q 859 2372 844 1941 
L 2703 1941 
z
M 1753 3428 
L 1753 3428 
z
" id="Helvetica-65" transform="scale(0.015625)"/>
       <path d="M 613 3169 
L 613 3600 
Q 1222 3659 1462 3798 
Q 1703 3938 1822 4456 
L 2266 4456 
L 2266 0 
L 1666 0 
L 1666 3169 
L 613 3169 
z
" id="Helvetica-31" transform="scale(0.015625)"/>
       <path d="M 266 2072 
L 1834 2072 
L 1834 1494 
L 266 1494 
L 266 2072 
z
" id="Helvetica-2d" transform="scale(0.015625)"/>
       <path d="M 200 0 
Q 231 578 439 1006 
Q 647 1434 1250 1784 
L 1850 2131 
Q 2253 2366 2416 2531 
Q 2672 2791 2672 3125 
Q 2672 3516 2437 3745 
Q 2203 3975 1813 3975 
Q 1234 3975 1013 3538 
Q 894 3303 881 2888 
L 309 2888 
Q 319 3472 525 3841 
Q 891 4491 1816 4491 
Q 2584 4491 2939 4075 
Q 3294 3659 3294 3150 
Q 3294 2613 2916 2231 
Q 2697 2009 2131 1694 
L 1703 1456 
Q 1397 1288 1222 1134 
Q 909 863 828 531 
L 3272 531 
L 3272 0 
L 200 0 
z
" id="Helvetica-32" transform="scale(0.015625)"/>
      </defs>
      <use xlink:href="#Helvetica-65"/>
      <use x="55.615234" xlink:href="#Helvetica-3a"/>
      <use x="83.398438" xlink:href="#Helvetica-20"/>
      <use x="111.181641" xlink:href="#Helvetica-61"/>
      <use x="166.796875" xlink:href="#Helvetica-31"/>
      <use x="222.412109" xlink:href="#Helvetica-2d"/>
      <use x="255.712891" xlink:href="#Helvetica-32"/>
     </g>
    </g>
    <g id="line2d_11">
     <path d="M -0.448438 386.476562 
L 39.551562 386.476562 
" style="fill:none;stroke:#eecf3a;stroke-linecap:square;stroke-width:1.5;"/>
    </g>
    <g id="line2d_12">
     <defs>
      <path d="M 0 5 
C 1.326016 5 2.597899 4.473168 3.535534 3.535534 
C 4.473168 2.597899 5 1.326016 5 0 
C 5 -1.326016 4.473168 -2.597899 3.535534 -3.535534 
C 2.597899 -4.473168 1.326016 -5 0 -5 
C -1.326016 -5 -2.597899 -4.473168 -3.535534 -3.535534 
C -4.473168 -2.597899 -5 -1.326016 -5 0 
C -5 1.326016 -4.473168 2.597899 -3.535534 3.535534 
C -2.597899 4.473168 -1.326016 5 0 5 
z
" id="mb226b7f9d1" style="stroke:#eecf3a;"/>
     </defs>
     <g>
      <use style="fill:#eecf3a;stroke:#eecf3a;" x="19.551562" xlink:href="#mb226b7f9d1" y="386.476562"/>
     </g>
    </g>
    <g id="text_6">
     <!-- f: a1-3 -->
     <g transform="translate(55.551562 393.476562)scale(0.2 -0.2)">
      <defs>
       <path d="M 553 3856 
Q 566 4206 675 4369 
Q 872 4656 1434 4656 
Q 1488 4656 1544 4653 
Q 1600 4650 1672 4644 
L 1672 4131 
Q 1584 4138 1545 4139 
Q 1506 4141 1472 4141 
Q 1216 4141 1166 4008 
Q 1116 3875 1116 3331 
L 1672 3331 
L 1672 2888 
L 1109 2888 
L 1109 0 
L 553 0 
L 553 2888 
L 88 2888 
L 88 3331 
L 553 3331 
L 553 3856 
z
" id="Helvetica-66" transform="scale(0.015625)"/>
       <path d="M 1663 -122 
Q 869 -122 511 314 
Q 153 750 153 1375 
L 741 1375 
Q 778 941 903 744 
Q 1122 391 1694 391 
Q 2138 391 2406 628 
Q 2675 866 2675 1241 
Q 2675 1703 2392 1887 
Q 2109 2072 1606 2072 
Q 1550 2072 1492 2070 
Q 1434 2069 1375 2066 
L 1375 2563 
Q 1463 2553 1522 2550 
Q 1581 2547 1650 2547 
Q 1966 2547 2169 2647 
Q 2525 2822 2525 3272 
Q 2525 3606 2287 3787 
Q 2050 3969 1734 3969 
Q 1172 3969 956 3594 
Q 838 3388 822 3006 
L 266 3006 
Q 266 3506 466 3856 
Q 809 4481 1675 4481 
Q 2359 4481 2734 4176 
Q 3109 3872 3109 3294 
Q 3109 2881 2888 2625 
Q 2750 2466 2531 2375 
Q 2884 2278 3082 2001 
Q 3281 1725 3281 1325 
Q 3281 684 2859 281 
Q 2438 -122 1663 -122 
z
" id="Helvetica-33" transform="scale(0.015625)"/>
      </defs>
      <use xlink:href="#Helvetica-66"/>
      <use x="27.783203" xlink:href="#Helvetica-3a"/>
      <use x="55.566406" xlink:href="#Helvetica-20"/>
      <use x="83.349609" xlink:href="#Helvetica-61"/>
      <use x="138.964844" xlink:href="#Helvetica-31"/>
      <use x="194.580078" xlink:href="#Helvetica-2d"/>
      <use x="227.880859" xlink:href="#Helvetica-33"/>
     </g>
    </g>
    <g id="line2d_13">
     <path d="M -0.448438 414.992188 
L 39.551562 414.992188 
" style="fill:none;stroke:#fb7e21;stroke-linecap:square;stroke-width:1.5;"/>
    </g>
    <g id="line2d_14">
     <defs>
      <path d="M 0 5 
C 1.326016 5 2.597899 4.473168 3.535534 3.535534 
C 4.473168 2.597899 5 1.326016 5 0 
C 5 -1.326016 4.473168 -2.597899 3.535534 -3.535534 
C 2.597899 -4.473168 1.326016 -5 0 -5 
C -1.326016 -5 -2.597899 -4.473168 -3.535534 -3.535534 
C -4.473168 -2.597899 -5 -1.326016 -5 0 
C -5 1.326016 -4.473168 2.597899 -3.535534 3.535534 
C -2.597899 4.473168 -1.326016 5 0 5 
z
" id="ma51a5b351f" style="stroke:#fb7e21;"/>
     </defs>
     <g>
      <use style="fill:#fb7e21;stroke:#fb7e21;" x="19.551562" xlink:href="#ma51a5b351f" y="414.992188"/>
     </g>
    </g>
    <g id="text_7">
     <!-- g: a1-4 -->
     <g transform="translate(55.551562 421.992188)scale(0.2 -0.2)">
      <defs>
       <path d="M 1594 3406 
Q 1988 3406 2281 3213 
Q 2441 3103 2606 2894 
L 2606 3316 
L 3125 3316 
L 3125 272 
Q 3125 -366 2938 -734 
Q 2588 -1416 1616 -1416 
Q 1075 -1416 706 -1173 
Q 338 -931 294 -416 
L 866 -416 
Q 906 -641 1028 -763 
Q 1219 -950 1628 -950 
Q 2275 -950 2475 -494 
Q 2594 -225 2584 466 
Q 2416 209 2178 84 
Q 1941 -41 1550 -41 
Q 1006 -41 598 345 
Q 191 731 191 1622 
Q 191 2463 602 2934 
Q 1013 3406 1594 3406 
z
M 2606 1688 
Q 2606 2309 2350 2609 
Q 2094 2909 1697 2909 
Q 1103 2909 884 2353 
Q 769 2056 769 1575 
Q 769 1009 998 714 
Q 1228 419 1616 419 
Q 2222 419 2469 966 
Q 2606 1275 2606 1688 
z
M 1659 3428 
L 1659 3428 
z
" id="Helvetica-67" transform="scale(0.015625)"/>
       <path d="M 2116 1584 
L 2116 3613 
L 681 1584 
L 2116 1584 
z
M 2125 0 
L 2125 1094 
L 163 1094 
L 163 1644 
L 2213 4488 
L 2688 4488 
L 2688 1584 
L 3347 1584 
L 3347 1094 
L 2688 1094 
L 2688 0 
L 2125 0 
z
" id="Helvetica-34" transform="scale(0.015625)"/>
      </defs>
      <use xlink:href="#Helvetica-67"/>
      <use x="55.615234" xlink:href="#Helvetica-3a"/>
      <use x="83.398438" xlink:href="#Helvetica-20"/>
      <use x="111.181641" xlink:href="#Helvetica-61"/>
      <use x="166.796875" xlink:href="#Helvetica-31"/>
      <use x="222.412109" xlink:href="#Helvetica-2d"/>
      <use x="255.712891" xlink:href="#Helvetica-34"/>
     </g>
    </g>
    <g id="line2d_15">
     <path d="M -0.448438 443.764063 
L 39.551562 443.764063 
" style="fill:none;stroke:#d02f05;stroke-linecap:square;stroke-width:1.5;"/>
    </g>
    <g id="line2d_16">
     <defs>
      <path d="M 0 5 
C 1.326016 5 2.597899 4.473168 3.535534 3.535534 
C 4.473168 2.597899 5 1.326016 5 0 
C 5 -1.326016 4.473168 -2.597899 3.535534 -3.535534 
C 2.597899 -4.473168 1.326016 -5 0 -5 
C -1.326016 -5 -2.597899 -4.473168 -3.535534 -3.535534 
C -4.473168 -2.597899 -5 -1.326016 -5 0 
C -5 1.326016 -4.473168 2.597899 -3.535534 3.535534 
C -2.597899 4.473168 -1.326016 5 0 5 
z
" id="mfbfac298eb" style="stroke:#d02f05;"/>
     </defs>
     <g>
      <use style="fill:#d02f05;stroke:#d02f05;" x="19.551562" xlink:href="#mfbfac298eb" y="443.764063"/>
     </g>
    </g>
    <g id="text_8">
     <!-- h: b1-3 -->
     <g transform="translate(55.551562 450.764063)scale(0.2 -0.2)">
      <use xlink:href="#Helvetica-68"/>
      <use x="55.615234" xlink:href="#Helvetica-3a"/>
      <use x="83.398438" xlink:href="#Helvetica-20"/>
      <use x="111.181641" xlink:href="#Helvetica-62"/>
      <use x="166.796875" xlink:href="#Helvetica-31"/>
      <use x="222.412109" xlink:href="#Helvetica-2d"/>
      <use x="255.712891" xlink:href="#Helvetica-33"/>
     </g>
    </g>
    <g id="line2d_17">
     <path d="M -0.448438 472.279688 
L 39.551562 472.279688 
" style="fill:none;stroke:#7a0403;stroke-linecap:square;stroke-width:1.5;"/>
    </g>
    <g id="line2d_18">
     <defs>
      <path d="M 0 5 
C 1.326016 5 2.597899 4.473168 3.535534 3.535534 
C 4.473168 2.597899 5 1.326016 5 0 
C 5 -1.326016 4.473168 -2.597899 3.535534 -3.535534 
C 2.597899 -4.473168 1.326016 -5 0 -5 
C -1.326016 -5 -2.597899 -4.473168 -3.535534 -3.535534 
C -4.473168 -2.597899 -5 -1.326016 -5 0 
C -5 1.326016 -4.473168 2.597899 -3.535534 3.535534 
C -2.597899 4.473168 -1.326016 5 0 5 
z
" id="m32acda6832" style="stroke:#7a0403;"/>
     </defs>
     <g>
      <use style="fill:#7a0403;stroke:#7a0403;" x="19.551562" xlink:href="#m32acda6832" y="472.279688"/>
     </g>
    </g>
    <g id="text_9">
     <!-- i: b1-4 -->
     <g transform="translate(55.551562 479.279688)scale(0.2 -0.2)">
      <defs>
       <path d="M 413 3331 
L 984 3331 
L 984 0 
L 413 0 
L 413 3331 
z
M 413 4591 
L 984 4591 
L 984 3953 
L 413 3953 
L 413 4591 
z
" id="Helvetica-69" transform="scale(0.015625)"/>
      </defs>
      <use xlink:href="#Helvetica-69"/>
      <use x="22.216797" xlink:href="#Helvetica-3a"/>
      <use x="50" xlink:href="#Helvetica-20"/>
      <use x="77.783203" xlink:href="#Helvetica-62"/>
      <use x="133.398438" xlink:href="#Helvetica-31"/>
      <use x="189.013672" xlink:href="#Helvetica-2d"/>
      <use x="222.314453" xlink:href="#Helvetica-34"/>
     </g>
    </g>
   </g>
  </g>
 </g>
</svg>
