<?xml version="1.0" encoding="utf-8" standalone="no"?>
<!DOCTYPE svg PUBLIC "-//W3C//DTD SVG 1.1//EN"
  "http://www.w3.org/Graphics/SVG/1.1/DTD/svg11.dtd">
<svg height="144pt" version="1.1" viewBox="0 0 144 144" width="144pt" xmlns="http://www.w3.org/2000/svg" xmlns:xlink="http://www.w3.org/1999/xlink">
 <metadata>
  <rdf:RDF xmlns:cc="http://creativecommons.org/ns#" xmlns:dc="http://purl.org/dc/elements/1.1/" xmlns:rdf="http://www.w3.org/1999/02/22-rdf-syntax-ns#">
   <cc:Work>
    <dc:type rdf:resource="http://purl.org/dc/dcmitype/StillImage"/>
    <dc:date>2022-12-18T11:54:22.837067</dc:date>
    <dc:format>image/svg+xml</dc:format>
    <dc:creator>
     <cc:Agent>
      <dc:title>Matplotlib v3.4.2, https://matplotlib.org/</dc:title>
     </cc:Agent>
    </dc:creator>
   </cc:Work>
  </rdf:RDF>
 </metadata>
 <defs>
  <style type="text/css">*{stroke-linecap:butt;stroke-linejoin:round;}</style>
 </defs>
 <g id="figure_1">
  <g id="patch_1">
   <path d="M 0 144 
L 144 144 
L 144 0 
L 0 0 
z
" style="fill:#ffffff;"/>
  </g>
  <g id="axes_1">
   <g id="patch_2">
    <path d="M 18 128.16 
L 129.6 128.16 
L 129.6 17.28 
L 18 17.28 
z
" style="fill:#ffffff;"/>
   </g>
   <g id="matplotlib.axis_1">
    <g id="xtick_1">
     <g id="text_1">
      <!-- Original -->
      <g style="fill:#262626;" transform="translate(51.08125 204.0725)rotate(-90)scale(0.2 -0.2)">
       <defs>
        <path d="M 309 2231 
Q 309 3372 921 4017 
Q 1534 4663 2503 4663 
Q 3138 4663 3647 4359 
Q 4156 4056 4423 3514 
Q 4691 2972 4691 2284 
Q 4691 1588 4409 1038 
Q 4128 488 3612 205 
Q 3097 -78 2500 -78 
Q 1853 -78 1343 234 
Q 834 547 571 1087 
Q 309 1628 309 2231 
z
M 934 2222 
Q 934 1394 1379 917 
Q 1825 441 2497 441 
Q 3181 441 3623 922 
Q 4066 1403 4066 2288 
Q 4066 2847 3877 3264 
Q 3688 3681 3323 3911 
Q 2959 4141 2506 4141 
Q 1863 4141 1398 3698 
Q 934 3256 934 2222 
z
" id="ArialMT-4f" transform="scale(0.015625)"/>
        <path d="M 416 0 
L 416 3319 
L 922 3319 
L 922 2816 
Q 1116 3169 1280 3281 
Q 1444 3394 1641 3394 
Q 1925 3394 2219 3213 
L 2025 2691 
Q 1819 2813 1613 2813 
Q 1428 2813 1281 2702 
Q 1134 2591 1072 2394 
Q 978 2094 978 1738 
L 978 0 
L 416 0 
z
" id="ArialMT-72" transform="scale(0.015625)"/>
        <path d="M 425 3934 
L 425 4581 
L 988 4581 
L 988 3934 
L 425 3934 
z
M 425 0 
L 425 3319 
L 988 3319 
L 988 0 
L 425 0 
z
" id="ArialMT-69" transform="scale(0.015625)"/>
        <path d="M 319 -275 
L 866 -356 
Q 900 -609 1056 -725 
Q 1266 -881 1628 -881 
Q 2019 -881 2231 -725 
Q 2444 -569 2519 -288 
Q 2563 -116 2559 434 
Q 2191 0 1641 0 
Q 956 0 581 494 
Q 206 988 206 1678 
Q 206 2153 378 2554 
Q 550 2956 876 3175 
Q 1203 3394 1644 3394 
Q 2231 3394 2613 2919 
L 2613 3319 
L 3131 3319 
L 3131 450 
Q 3131 -325 2973 -648 
Q 2816 -972 2473 -1159 
Q 2131 -1347 1631 -1347 
Q 1038 -1347 672 -1080 
Q 306 -813 319 -275 
z
M 784 1719 
Q 784 1066 1043 766 
Q 1303 466 1694 466 
Q 2081 466 2343 764 
Q 2606 1063 2606 1700 
Q 2606 2309 2336 2618 
Q 2066 2928 1684 2928 
Q 1309 2928 1046 2623 
Q 784 2319 784 1719 
z
" id="ArialMT-67" transform="scale(0.015625)"/>
        <path d="M 422 0 
L 422 3319 
L 928 3319 
L 928 2847 
Q 1294 3394 1984 3394 
Q 2284 3394 2536 3286 
Q 2788 3178 2913 3003 
Q 3038 2828 3088 2588 
Q 3119 2431 3119 2041 
L 3119 0 
L 2556 0 
L 2556 2019 
Q 2556 2363 2490 2533 
Q 2425 2703 2258 2804 
Q 2091 2906 1866 2906 
Q 1506 2906 1245 2678 
Q 984 2450 984 1813 
L 984 0 
L 422 0 
z
" id="ArialMT-6e" transform="scale(0.015625)"/>
        <path d="M 2588 409 
Q 2275 144 1986 34 
Q 1697 -75 1366 -75 
Q 819 -75 525 192 
Q 231 459 231 875 
Q 231 1119 342 1320 
Q 453 1522 633 1644 
Q 813 1766 1038 1828 
Q 1203 1872 1538 1913 
Q 2219 1994 2541 2106 
Q 2544 2222 2544 2253 
Q 2544 2597 2384 2738 
Q 2169 2928 1744 2928 
Q 1347 2928 1158 2789 
Q 969 2650 878 2297 
L 328 2372 
Q 403 2725 575 2942 
Q 747 3159 1072 3276 
Q 1397 3394 1825 3394 
Q 2250 3394 2515 3294 
Q 2781 3194 2906 3042 
Q 3031 2891 3081 2659 
Q 3109 2516 3109 2141 
L 3109 1391 
Q 3109 606 3145 398 
Q 3181 191 3288 0 
L 2700 0 
Q 2613 175 2588 409 
z
M 2541 1666 
Q 2234 1541 1622 1453 
Q 1275 1403 1131 1340 
Q 988 1278 909 1158 
Q 831 1038 831 891 
Q 831 666 1001 516 
Q 1172 366 1500 366 
Q 1825 366 2078 508 
Q 2331 650 2450 897 
Q 2541 1088 2541 1459 
L 2541 1666 
z
" id="ArialMT-61" transform="scale(0.015625)"/>
        <path d="M 409 0 
L 409 4581 
L 972 4581 
L 972 0 
L 409 0 
z
" id="ArialMT-6c" transform="scale(0.015625)"/>
       </defs>
       <use xlink:href="#ArialMT-4f"/>
       <use x="77.783203" xlink:href="#ArialMT-72"/>
       <use x="111.083984" xlink:href="#ArialMT-69"/>
       <use x="133.300781" xlink:href="#ArialMT-67"/>
       <use x="188.916016" xlink:href="#ArialMT-69"/>
       <use x="211.132812" xlink:href="#ArialMT-6e"/>
       <use x="266.748047" xlink:href="#ArialMT-61"/>
       <use x="322.363281" xlink:href="#ArialMT-6c"/>
      </g>
     </g>
    </g>
    <g id="xtick_2">
     <g id="text_2">
      <!-- Mutated -->
      <g style="fill:#262626;" transform="translate(106.870312 207.419375)rotate(-90)scale(0.2 -0.2)">
       <defs>
        <path d="M 475 0 
L 475 4581 
L 1388 4581 
L 2472 1338 
Q 2622 884 2691 659 
Q 2769 909 2934 1394 
L 4031 4581 
L 4847 4581 
L 4847 0 
L 4263 0 
L 4263 3834 
L 2931 0 
L 2384 0 
L 1059 3900 
L 1059 0 
L 475 0 
z
" id="ArialMT-4d" transform="scale(0.015625)"/>
        <path d="M 2597 0 
L 2597 488 
Q 2209 -75 1544 -75 
Q 1250 -75 995 37 
Q 741 150 617 320 
Q 494 491 444 738 
Q 409 903 409 1263 
L 409 3319 
L 972 3319 
L 972 1478 
Q 972 1038 1006 884 
Q 1059 663 1231 536 
Q 1403 409 1656 409 
Q 1909 409 2131 539 
Q 2353 669 2445 892 
Q 2538 1116 2538 1541 
L 2538 3319 
L 3100 3319 
L 3100 0 
L 2597 0 
z
" id="ArialMT-75" transform="scale(0.015625)"/>
        <path d="M 1650 503 
L 1731 6 
Q 1494 -44 1306 -44 
Q 1000 -44 831 53 
Q 663 150 594 308 
Q 525 466 525 972 
L 525 2881 
L 113 2881 
L 113 3319 
L 525 3319 
L 525 4141 
L 1084 4478 
L 1084 3319 
L 1650 3319 
L 1650 2881 
L 1084 2881 
L 1084 941 
Q 1084 700 1114 631 
Q 1144 563 1211 522 
Q 1278 481 1403 481 
Q 1497 481 1650 503 
z
" id="ArialMT-74" transform="scale(0.015625)"/>
        <path d="M 2694 1069 
L 3275 997 
Q 3138 488 2766 206 
Q 2394 -75 1816 -75 
Q 1088 -75 661 373 
Q 234 822 234 1631 
Q 234 2469 665 2931 
Q 1097 3394 1784 3394 
Q 2450 3394 2872 2941 
Q 3294 2488 3294 1666 
Q 3294 1616 3291 1516 
L 816 1516 
Q 847 969 1125 678 
Q 1403 388 1819 388 
Q 2128 388 2347 550 
Q 2566 713 2694 1069 
z
M 847 1978 
L 2700 1978 
Q 2663 2397 2488 2606 
Q 2219 2931 1791 2931 
Q 1403 2931 1139 2672 
Q 875 2413 847 1978 
z
" id="ArialMT-65" transform="scale(0.015625)"/>
        <path d="M 2575 0 
L 2575 419 
Q 2259 -75 1647 -75 
Q 1250 -75 917 144 
Q 584 363 401 755 
Q 219 1147 219 1656 
Q 219 2153 384 2558 
Q 550 2963 881 3178 
Q 1213 3394 1622 3394 
Q 1922 3394 2156 3267 
Q 2391 3141 2538 2938 
L 2538 4581 
L 3097 4581 
L 3097 0 
L 2575 0 
z
M 797 1656 
Q 797 1019 1065 703 
Q 1334 388 1700 388 
Q 2069 388 2326 689 
Q 2584 991 2584 1609 
Q 2584 2291 2321 2609 
Q 2059 2928 1675 2928 
Q 1300 2928 1048 2622 
Q 797 2316 797 1656 
z
" id="ArialMT-64" transform="scale(0.015625)"/>
       </defs>
       <use xlink:href="#ArialMT-4d"/>
       <use x="83.300781" xlink:href="#ArialMT-75"/>
       <use x="138.916016" xlink:href="#ArialMT-74"/>
       <use x="166.699219" xlink:href="#ArialMT-61"/>
       <use x="222.314453" xlink:href="#ArialMT-74"/>
       <use x="250.097656" xlink:href="#ArialMT-65"/>
       <use x="305.712891" xlink:href="#ArialMT-64"/>
      </g>
     </g>
    </g>
    <g id="text_3">
     <!-- Method -->
     <g style="fill:#262626;" transform="translate(40.448437 225.735)scale(0.2 -0.2)">
      <defs>
       <path d="M 422 0 
L 422 4581 
L 984 4581 
L 984 2938 
Q 1378 3394 1978 3394 
Q 2347 3394 2619 3248 
Q 2891 3103 3008 2847 
Q 3125 2591 3125 2103 
L 3125 0 
L 2563 0 
L 2563 2103 
Q 2563 2525 2380 2717 
Q 2197 2909 1863 2909 
Q 1613 2909 1392 2779 
Q 1172 2650 1078 2428 
Q 984 2206 984 1816 
L 984 0 
L 422 0 
z
" id="ArialMT-68" transform="scale(0.015625)"/>
       <path d="M 213 1659 
Q 213 2581 725 3025 
Q 1153 3394 1769 3394 
Q 2453 3394 2887 2945 
Q 3322 2497 3322 1706 
Q 3322 1066 3130 698 
Q 2938 331 2570 128 
Q 2203 -75 1769 -75 
Q 1072 -75 642 372 
Q 213 819 213 1659 
z
M 791 1659 
Q 791 1022 1069 705 
Q 1347 388 1769 388 
Q 2188 388 2466 706 
Q 2744 1025 2744 1678 
Q 2744 2294 2464 2611 
Q 2184 2928 1769 2928 
Q 1347 2928 1069 2612 
Q 791 2297 791 1659 
z
" id="ArialMT-6f" transform="scale(0.015625)"/>
      </defs>
      <use xlink:href="#ArialMT-4d"/>
      <use x="83.300781" xlink:href="#ArialMT-65"/>
      <use x="138.916016" xlink:href="#ArialMT-74"/>
      <use x="166.699219" xlink:href="#ArialMT-68"/>
      <use x="222.314453" xlink:href="#ArialMT-6f"/>
      <use x="277.929688" xlink:href="#ArialMT-64"/>
     </g>
    </g>
   </g>
   <g id="matplotlib.axis_2">
    <g id="ytick_1">
     <g id="text_4">
      <!-- 0 -->
      <g style="fill:#262626;" transform="translate(-0.121875 111.087693)scale(0.2 -0.2)">
       <defs>
        <path d="M 266 2259 
Q 266 3072 433 3567 
Q 600 4063 929 4331 
Q 1259 4600 1759 4600 
Q 2128 4600 2406 4451 
Q 2684 4303 2865 4023 
Q 3047 3744 3150 3342 
Q 3253 2941 3253 2259 
Q 3253 1453 3087 958 
Q 2922 463 2592 192 
Q 2263 -78 1759 -78 
Q 1097 -78 719 397 
Q 266 969 266 2259 
z
M 844 2259 
Q 844 1131 1108 757 
Q 1372 384 1759 384 
Q 2147 384 2411 759 
Q 2675 1134 2675 2259 
Q 2675 3391 2411 3762 
Q 2147 4134 1753 4134 
Q 1366 4134 1134 3806 
Q 844 3388 844 2259 
z
" id="ArialMT-30" transform="scale(0.015625)"/>
       </defs>
       <use xlink:href="#ArialMT-30"/>
      </g>
     </g>
    </g>
    <g id="ytick_2">
     <g id="text_5">
      <!-- 1 -->
      <g style="fill:#262626;" transform="translate(-0.121875 48.667932)scale(0.2 -0.2)">
       <defs>
        <path d="M 2384 0 
L 1822 0 
L 1822 3584 
Q 1619 3391 1289 3197 
Q 959 3003 697 2906 
L 697 3450 
Q 1169 3672 1522 3987 
Q 1875 4303 2022 4600 
L 2384 4600 
L 2384 0 
z
" id="ArialMT-31" transform="scale(0.015625)"/>
       </defs>
       <use xlink:href="#ArialMT-31"/>
      </g>
     </g>
    </g>
    <g id="text_6">
     <!-- Predictions -->
     <g style="fill:#262626;" transform="translate(-8.096875 122.185625)rotate(-90)scale(0.2 -0.2)">
      <defs>
       <path d="M 494 0 
L 494 4581 
L 2222 4581 
Q 2678 4581 2919 4538 
Q 3256 4481 3484 4323 
Q 3713 4166 3852 3881 
Q 3991 3597 3991 3256 
Q 3991 2672 3619 2267 
Q 3247 1863 2275 1863 
L 1100 1863 
L 1100 0 
L 494 0 
z
M 1100 2403 
L 2284 2403 
Q 2872 2403 3119 2622 
Q 3366 2841 3366 3238 
Q 3366 3525 3220 3729 
Q 3075 3934 2838 4000 
Q 2684 4041 2272 4041 
L 1100 4041 
L 1100 2403 
z
" id="ArialMT-50" transform="scale(0.015625)"/>
       <path d="M 2588 1216 
L 3141 1144 
Q 3050 572 2676 248 
Q 2303 -75 1759 -75 
Q 1078 -75 664 370 
Q 250 816 250 1647 
Q 250 2184 428 2587 
Q 606 2991 970 3192 
Q 1334 3394 1763 3394 
Q 2303 3394 2647 3120 
Q 2991 2847 3088 2344 
L 2541 2259 
Q 2463 2594 2264 2762 
Q 2066 2931 1784 2931 
Q 1359 2931 1093 2626 
Q 828 2322 828 1663 
Q 828 994 1084 691 
Q 1341 388 1753 388 
Q 2084 388 2306 591 
Q 2528 794 2588 1216 
z
" id="ArialMT-63" transform="scale(0.015625)"/>
       <path d="M 197 991 
L 753 1078 
Q 800 744 1014 566 
Q 1228 388 1613 388 
Q 2000 388 2187 545 
Q 2375 703 2375 916 
Q 2375 1106 2209 1216 
Q 2094 1291 1634 1406 
Q 1016 1563 777 1677 
Q 538 1791 414 1992 
Q 291 2194 291 2438 
Q 291 2659 392 2848 
Q 494 3038 669 3163 
Q 800 3259 1026 3326 
Q 1253 3394 1513 3394 
Q 1903 3394 2198 3281 
Q 2494 3169 2634 2976 
Q 2775 2784 2828 2463 
L 2278 2388 
Q 2241 2644 2061 2787 
Q 1881 2931 1553 2931 
Q 1166 2931 1000 2803 
Q 834 2675 834 2503 
Q 834 2394 903 2306 
Q 972 2216 1119 2156 
Q 1203 2125 1616 2013 
Q 2213 1853 2448 1751 
Q 2684 1650 2818 1456 
Q 2953 1263 2953 975 
Q 2953 694 2789 445 
Q 2625 197 2315 61 
Q 2006 -75 1616 -75 
Q 969 -75 630 194 
Q 291 463 197 991 
z
" id="ArialMT-73" transform="scale(0.015625)"/>
      </defs>
      <use xlink:href="#ArialMT-50"/>
      <use x="66.699219" xlink:href="#ArialMT-72"/>
      <use x="100" xlink:href="#ArialMT-65"/>
      <use x="155.615234" xlink:href="#ArialMT-64"/>
      <use x="211.230469" xlink:href="#ArialMT-69"/>
      <use x="233.447266" xlink:href="#ArialMT-63"/>
      <use x="283.447266" xlink:href="#ArialMT-74"/>
      <use x="311.230469" xlink:href="#ArialMT-69"/>
      <use x="333.447266" xlink:href="#ArialMT-6f"/>
      <use x="389.0625" xlink:href="#ArialMT-6e"/>
      <use x="444.677734" xlink:href="#ArialMT-73"/>
     </g>
    </g>
   </g>
   <g id="PolyCollection_1">
    <defs>
     <path d="M 46.613735 -20.88 
L 45.186265 -20.88 
L 45.022469 -21.898182 
L 44.833164 -22.916364 
L 44.617545 -23.934545 
L 44.375609 -24.952727 
L 44.10832 -25.970909 
L 43.817744 -26.989091 
L 43.50714 -28.007273 
L 43.180994 -29.025455 
L 42.844989 -30.043636 
L 42.505897 -31.061818 
L 42.171391 -32.08 
L 41.849782 -33.098182 
L 41.549697 -34.116364 
L 41.279698 -35.134545 
L 41.047888 -36.152727 
L 40.861503 -37.170909 
L 40.726544 -38.189091 
L 40.64745 -39.207273 
L 40.62686 -40.225455 
L 40.665465 -41.243636 
L 40.761972 -42.261818 
L 40.91317 -43.28 
L 41.114115 -44.298182 
L 41.358392 -45.316364 
L 41.638459 -46.334545 
L 41.946031 -47.352727 
L 42.272481 -48.370909 
L 42.609244 -49.389091 
L 42.94817 -50.407273 
L 43.281837 -51.425455 
L 43.603789 -52.443636 
L 43.9087 -53.461818 
L 44.192458 -54.48 
L 44.452174 -55.498182 
L 44.68613 -56.516364 
L 44.893672 -57.534545 
L 45.075063 -58.552727 
L 45.231317 -59.570909 
L 45.364023 -60.589091 
L 45.47517 -61.607273 
L 45.566987 -62.625455 
L 45.641803 -63.643636 
L 45.701932 -64.661818 
L 45.749576 -65.68 
L 45.786765 -66.698182 
L 45.815312 -67.716364 
L 45.836786 -68.734545 
L 45.852506 -69.752727 
L 45.863543 -70.770909 
L 45.870732 -71.789091 
L 45.874685 -72.807273 
L 45.875815 -73.825455 
L 45.874353 -74.843636 
L 45.870366 -75.861818 
L 45.863782 -76.88 
L 45.854405 -77.898182 
L 45.841938 -78.916364 
L 45.826003 -79.934545 
L 45.806171 -80.952727 
L 45.781984 -81.970909 
L 45.752989 -82.989091 
L 45.718776 -84.007273 
L 45.679013 -85.025455 
L 45.633489 -86.043636 
L 45.582153 -87.061818 
L 45.525155 -88.08 
L 45.462875 -89.098182 
L 45.395948 -90.116364 
L 45.325278 -91.134545 
L 45.252035 -92.152727 
L 45.177638 -93.170909 
L 45.103715 -94.189091 
L 45.032055 -95.207273 
L 44.96454 -96.225455 
L 44.903062 -97.243636 
L 44.84944 -98.261818 
L 44.80533 -99.28 
L 44.77214 -100.298182 
L 44.750956 -101.316364 
L 44.742481 -102.334545 
L 44.747001 -103.352727 
L 44.764363 -104.370909 
L 44.793988 -105.389091 
L 44.834902 -106.407273 
L 44.885787 -107.425455 
L 44.945055 -108.443636 
L 45.010928 -109.461818 
L 45.081525 -110.48 
L 45.154953 -111.498182 
L 45.229388 -112.516364 
L 45.303145 -113.534545 
L 45.374738 -114.552727 
L 45.442919 -115.570909 
L 45.506704 -116.589091 
L 45.565377 -117.607273 
L 45.618485 -118.625455 
L 45.665817 -119.643636 
L 45.707371 -120.661818 
L 45.743326 -121.68 
L 46.056674 -121.68 
L 46.056674 -121.68 
L 46.092629 -120.661818 
L 46.134183 -119.643636 
L 46.181515 -118.625455 
L 46.234623 -117.607273 
L 46.293296 -116.589091 
L 46.357081 -115.570909 
L 46.425262 -114.552727 
L 46.496855 -113.534545 
L 46.570612 -112.516364 
L 46.645047 -111.498182 
L 46.718475 -110.48 
L 46.789072 -109.461818 
L 46.854945 -108.443636 
L 46.914213 -107.425455 
L 46.965098 -106.407273 
L 47.006012 -105.389091 
L 47.035637 -104.370909 
L 47.052999 -103.352727 
L 47.057519 -102.334545 
L 47.049044 -101.316364 
L 47.02786 -100.298182 
L 46.99467 -99.28 
L 46.95056 -98.261818 
L 46.896938 -97.243636 
L 46.83546 -96.225455 
L 46.767945 -95.207273 
L 46.696285 -94.189091 
L 46.622362 -93.170909 
L 46.547965 -92.152727 
L 46.474722 -91.134545 
L 46.404052 -90.116364 
L 46.337125 -89.098182 
L 46.274845 -88.08 
L 46.217847 -87.061818 
L 46.166511 -86.043636 
L 46.120987 -85.025455 
L 46.081224 -84.007273 
L 46.047011 -82.989091 
L 46.018016 -81.970909 
L 45.993829 -80.952727 
L 45.973997 -79.934545 
L 45.958062 -78.916364 
L 45.945595 -77.898182 
L 45.936218 -76.88 
L 45.929634 -75.861818 
L 45.925647 -74.843636 
L 45.924185 -73.825455 
L 45.925315 -72.807273 
L 45.929268 -71.789091 
L 45.936457 -70.770909 
L 45.947494 -69.752727 
L 45.963214 -68.734545 
L 45.984688 -67.716364 
L 46.013235 -66.698182 
L 46.050424 -65.68 
L 46.098068 -64.661818 
L 46.158197 -63.643636 
L 46.233013 -62.625455 
L 46.32483 -61.607273 
L 46.435977 -60.589091 
L 46.568683 -59.570909 
L 46.724937 -58.552727 
L 46.906328 -57.534545 
L 47.11387 -56.516364 
L 47.347826 -55.498182 
L 47.607542 -54.48 
L 47.8913 -53.461818 
L 48.196211 -52.443636 
L 48.518163 -51.425455 
L 48.85183 -50.407273 
L 49.190756 -49.389091 
L 49.527519 -48.370909 
L 49.853969 -47.352727 
L 50.161541 -46.334545 
L 50.441608 -45.316364 
L 50.685885 -44.298182 
L 50.88683 -43.28 
L 51.038028 -42.261818 
L 51.134535 -41.243636 
L 51.17314 -40.225455 
L 51.15255 -39.207273 
L 51.073456 -38.189091 
L 50.938497 -37.170909 
L 50.752112 -36.152727 
L 50.520302 -35.134545 
L 50.250303 -34.116364 
L 49.950218 -33.098182 
L 49.628609 -32.08 
L 49.294103 -31.061818 
L 48.955011 -30.043636 
L 48.619006 -29.025455 
L 48.29286 -28.007273 
L 47.982256 -26.989091 
L 47.69168 -25.970909 
L 47.424391 -24.952727 
L 47.182455 -23.934545 
L 46.966836 -22.916364 
L 46.777531 -21.898182 
L 46.613735 -20.88 
z
" id="m04466fefd3" style="stroke:#262626;stroke-width:0.75;"/>
    </defs>
    <g clip-path="url(#pf12f6e620b)">
     <use style="fill:#7f9dd2;stroke:#262626;stroke-width:0.75;" x="0" xlink:href="#m04466fefd3" y="144"/>
    </g>
   </g>
   <g id="PolyCollection_2">
    <defs>
     <path d="M 104.730698 -35.955767 
L 98.669302 -35.955767 
L 95.988897 -36.669388 
L 92.158063 -37.383009 
L 87.565117 -38.09663 
L 83.135338 -38.810251 
L 80.081725 -39.523871 
L 79.38 -40.237492 
L 81.268206 -40.951113 
L 85.117196 -41.664734 
L 89.767029 -42.378355 
L 94.086605 -43.091976 
L 97.393273 -43.805597 
L 99.539992 -44.519217 
L 100.739488 -45.232838 
L 101.321305 -45.946459 
L 101.567622 -46.66008 
L 101.658972 -47.373701 
L 101.688726 -48.087322 
L 101.697253 -48.800943 
L 101.699407 -49.514564 
L 101.699886 -50.228184 
L 101.699981 -50.941805 
L 101.699997 -51.655426 
L 101.7 -52.369047 
L 101.7 -53.082668 
L 101.7 -53.796289 
L 101.7 -54.50991 
L 101.7 -55.22353 
L 101.7 -55.937151 
L 101.7 -56.650772 
L 101.7 -57.364393 
L 101.7 -58.078014 
L 101.7 -58.791635 
L 101.7 -59.505256 
L 101.7 -60.218877 
L 101.7 -60.932497 
L 101.7 -61.646118 
L 101.7 -62.359739 
L 101.7 -63.07336 
L 101.7 -63.786981 
L 101.7 -64.500602 
L 101.7 -65.214223 
L 101.7 -65.927843 
L 101.7 -66.641464 
L 101.7 -67.355085 
L 101.7 -68.068706 
L 101.7 -68.782327 
L 101.7 -69.495948 
L 101.7 -70.209569 
L 101.7 -70.92319 
L 101.7 -71.63681 
L 101.7 -72.350431 
L 101.7 -73.064052 
L 101.7 -73.777673 
L 101.7 -74.491294 
L 101.7 -75.204915 
L 101.7 -75.918536 
L 101.7 -76.632157 
L 101.7 -77.345777 
L 101.7 -78.059398 
L 101.7 -78.773019 
L 101.7 -79.48664 
L 101.7 -80.200261 
L 101.7 -80.913882 
L 101.7 -81.627503 
L 101.7 -82.341123 
L 101.7 -83.054744 
L 101.7 -83.768365 
L 101.7 -84.481986 
L 101.7 -85.195607 
L 101.7 -85.909228 
L 101.7 -86.622849 
L 101.7 -87.33647 
L 101.7 -88.05009 
L 101.7 -88.763711 
L 101.7 -89.477332 
L 101.7 -90.190953 
L 101.699999 -90.904574 
L 101.699993 -91.618195 
L 101.699961 -92.331816 
L 101.699799 -93.045436 
L 101.699067 -93.759057 
L 101.696172 -94.472678 
L 101.686069 -95.186299 
L 101.655052 -95.89992 
L 101.571417 -96.613541 
L 101.373864 -97.327162 
L 100.966582 -98.040783 
L 100.237677 -98.754403 
L 99.114918 -99.468024 
L 97.648232 -100.181645 
L 96.069409 -100.895266 
L 94.762508 -101.608887 
L 94.121379 -102.322508 
L 94.359645 -103.036129 
L 95.396481 -103.749749 
L 96.900586 -104.46337 
L 98.460093 -105.176991 
L 99.760829 -105.890612 
L 100.670945 -106.604233 
L 102.729055 -106.604233 
L 102.729055 -106.604233 
L 103.639171 -105.890612 
L 104.939907 -105.176991 
L 106.499414 -104.46337 
L 108.003519 -103.749749 
L 109.040355 -103.036129 
L 109.278621 -102.322508 
L 108.637492 -101.608887 
L 107.330591 -100.895266 
L 105.751768 -100.181645 
L 104.285082 -99.468024 
L 103.162323 -98.754403 
L 102.433418 -98.040783 
L 102.026136 -97.327162 
L 101.828583 -96.613541 
L 101.744948 -95.89992 
L 101.713931 -95.186299 
L 101.703828 -94.472678 
L 101.700933 -93.759057 
L 101.700201 -93.045436 
L 101.700039 -92.331816 
L 101.700007 -91.618195 
L 101.700001 -90.904574 
L 101.7 -90.190953 
L 101.7 -89.477332 
L 101.7 -88.763711 
L 101.7 -88.05009 
L 101.7 -87.33647 
L 101.7 -86.622849 
L 101.7 -85.909228 
L 101.7 -85.195607 
L 101.7 -84.481986 
L 101.7 -83.768365 
L 101.7 -83.054744 
L 101.7 -82.341123 
L 101.7 -81.627503 
L 101.7 -80.913882 
L 101.7 -80.200261 
L 101.7 -79.48664 
L 101.7 -78.773019 
L 101.7 -78.059398 
L 101.7 -77.345777 
L 101.7 -76.632157 
L 101.7 -75.918536 
L 101.7 -75.204915 
L 101.7 -74.491294 
L 101.7 -73.777673 
L 101.7 -73.064052 
L 101.7 -72.350431 
L 101.7 -71.63681 
L 101.7 -70.92319 
L 101.7 -70.209569 
L 101.7 -69.495948 
L 101.7 -68.782327 
L 101.7 -68.068706 
L 101.7 -67.355085 
L 101.7 -66.641464 
L 101.7 -65.927843 
L 101.7 -65.214223 
L 101.7 -64.500602 
L 101.7 -63.786981 
L 101.7 -63.07336 
L 101.7 -62.359739 
L 101.7 -61.646118 
L 101.7 -60.932497 
L 101.7 -60.218877 
L 101.7 -59.505256 
L 101.7 -58.791635 
L 101.7 -58.078014 
L 101.7 -57.364393 
L 101.7 -56.650772 
L 101.7 -55.937151 
L 101.7 -55.22353 
L 101.7 -54.50991 
L 101.7 -53.796289 
L 101.7 -53.082668 
L 101.7 -52.369047 
L 101.700003 -51.655426 
L 101.700019 -50.941805 
L 101.700114 -50.228184 
L 101.700593 -49.514564 
L 101.702747 -48.800943 
L 101.711274 -48.087322 
L 101.741028 -47.373701 
L 101.832378 -46.66008 
L 102.078695 -45.946459 
L 102.660512 -45.232838 
L 103.860008 -44.519217 
L 106.006727 -43.805597 
L 109.313395 -43.091976 
L 113.632971 -42.378355 
L 118.282804 -41.664734 
L 122.131794 -40.951113 
L 124.02 -40.237492 
L 123.318275 -39.523871 
L 120.264662 -38.810251 
L 115.834883 -38.09663 
L 111.241937 -37.383009 
L 107.411103 -36.669388 
L 104.730698 -35.955767 
z
" id="mad4d61cf78" style="stroke:#262626;stroke-width:0.75;"/>
    </defs>
    <g clip-path="url(#pf12f6e620b)">
     <use style="fill:#1a1a66;stroke:#262626;stroke-width:0.75;" x="0" xlink:href="#mad4d61cf78" y="144"/>
    </g>
   </g>
   <g id="line2d_1">
    <path clip-path="url(#pf12f6e620b)" d="M 45.9 103.929881 
L 45.9 103.929881 
" style="fill:none;stroke:#262626;stroke-linecap:round;stroke-width:0.75;"/>
   </g>
   <g id="line2d_2">
    <path clip-path="url(#pf12f6e620b)" d="M 45.9 103.929881 
L 45.9 103.929881 
" style="fill:none;stroke:#262626;stroke-linecap:round;stroke-width:2.25;"/>
   </g>
   <g id="line2d_3">
    <path clip-path="url(#pf12f6e620b)" d="M 101.7 103.929881 
L 101.7 41.510119 
" style="fill:none;stroke:#262626;stroke-linecap:round;stroke-width:0.75;"/>
   </g>
   <g id="line2d_4">
    <path clip-path="url(#pf12f6e620b)" d="M 101.7 103.929881 
L 101.7 41.510119 
" style="fill:none;stroke:#262626;stroke-linecap:round;stroke-width:2.25;"/>
   </g>
   <g id="patch_3">
    <path d="M 18 128.16 
L 18 17.28 
" style="fill:none;stroke:#262626;stroke-linecap:square;stroke-linejoin:miter;stroke-width:0.8;"/>
   </g>
   <g id="patch_4">
    <path d="M 18 128.16 
L 129.6 128.16 
" style="fill:none;stroke:#262626;stroke-linecap:square;stroke-linejoin:miter;stroke-width:0.8;"/>
   </g>
   <g id="PathCollection_1">
    <defs>
     <path d="M 0 0.75 
C 0.198902 0.75 0.389685 0.670975 0.53033 0.53033 
C 0.670975 0.389685 0.75 0.198902 0.75 0 
C 0.75 -0.198902 0.670975 -0.389685 0.53033 -0.53033 
C 0.389685 -0.670975 0.198902 -0.75 0 -0.75 
C -0.198902 -0.75 -0.389685 -0.670975 -0.53033 -0.53033 
C -0.670975 -0.389685 -0.75 -0.198902 -0.75 0 
C -0.75 0.198902 -0.670975 0.389685 -0.53033 0.53033 
C -0.389685 0.670975 -0.198902 0.75 0 0.75 
z
" id="m9b273099b7" style="stroke:#262626;"/>
    </defs>
    <g clip-path="url(#pf12f6e620b)">
     <use style="fill:#ffffff;stroke:#262626;" x="45.9" xlink:href="#m9b273099b7" y="103.929881"/>
    </g>
   </g>
   <g id="PathCollection_2">
    <g clip-path="url(#pf12f6e620b)">
     <use style="fill:#ffffff;stroke:#262626;" x="101.7" xlink:href="#m9b273099b7" y="103.929881"/>
    </g>
   </g>
   <g id="text_7">
    <!-- Random -->
    <g style="fill:#262626;" transform="translate(28.445625 11.28)scale(0.24 -0.24)">
     <defs>
      <path d="M 503 0 
L 503 4581 
L 2534 4581 
Q 3147 4581 3465 4457 
Q 3784 4334 3975 4021 
Q 4166 3709 4166 3331 
Q 4166 2844 3850 2509 
Q 3534 2175 2875 2084 
Q 3116 1969 3241 1856 
Q 3506 1613 3744 1247 
L 4541 0 
L 3778 0 
L 3172 953 
Q 2906 1366 2734 1584 
Q 2563 1803 2427 1890 
Q 2291 1978 2150 2013 
Q 2047 2034 1813 2034 
L 1109 2034 
L 1109 0 
L 503 0 
z
M 1109 2559 
L 2413 2559 
Q 2828 2559 3062 2645 
Q 3297 2731 3419 2920 
Q 3541 3109 3541 3331 
Q 3541 3656 3305 3865 
Q 3069 4075 2559 4075 
L 1109 4075 
L 1109 2559 
z
" id="ArialMT-52" transform="scale(0.015625)"/>
      <path d="M 422 0 
L 422 3319 
L 925 3319 
L 925 2853 
Q 1081 3097 1340 3245 
Q 1600 3394 1931 3394 
Q 2300 3394 2536 3241 
Q 2772 3088 2869 2813 
Q 3263 3394 3894 3394 
Q 4388 3394 4653 3120 
Q 4919 2847 4919 2278 
L 4919 0 
L 4359 0 
L 4359 2091 
Q 4359 2428 4304 2576 
Q 4250 2725 4106 2815 
Q 3963 2906 3769 2906 
Q 3419 2906 3187 2673 
Q 2956 2441 2956 1928 
L 2956 0 
L 2394 0 
L 2394 2156 
Q 2394 2531 2256 2718 
Q 2119 2906 1806 2906 
Q 1569 2906 1367 2781 
Q 1166 2656 1075 2415 
Q 984 2175 984 1722 
L 984 0 
L 422 0 
z
" id="ArialMT-6d" transform="scale(0.015625)"/>
     </defs>
     <use xlink:href="#ArialMT-52"/>
     <use x="72.216797" xlink:href="#ArialMT-61"/>
     <use x="127.832031" xlink:href="#ArialMT-6e"/>
     <use x="183.447266" xlink:href="#ArialMT-64"/>
     <use x="239.0625" xlink:href="#ArialMT-6f"/>
     <use x="294.677734" xlink:href="#ArialMT-6d"/>
    </g>
   </g>
  </g>
 </g>
 <defs>
  <clipPath id="pf12f6e620b">
   <rect height="110.88" width="111.6" x="18" y="17.28"/>
  </clipPath>
 </defs>
</svg>
