<?xml version="1.0" encoding="utf-8" standalone="no"?>
<!DOCTYPE svg PUBLIC "-//W3C//DTD SVG 1.1//EN"
  "http://www.w3.org/Graphics/SVG/1.1/DTD/svg11.dtd">
<svg height="144pt" version="1.1" viewBox="0 0 144 144" width="144pt" xmlns="http://www.w3.org/2000/svg" xmlns:xlink="http://www.w3.org/1999/xlink">
 <metadata>
  <rdf:RDF xmlns:cc="http://creativecommons.org/ns#" xmlns:dc="http://purl.org/dc/elements/1.1/" xmlns:rdf="http://www.w3.org/1999/02/22-rdf-syntax-ns#">
   <cc:Work>
    <dc:type rdf:resource="http://purl.org/dc/dcmitype/StillImage"/>
    <dc:date>2022-12-18T11:54:23.587124</dc:date>
    <dc:format>image/svg+xml</dc:format>
    <dc:creator>
     <cc:Agent>
      <dc:title>Matplotlib v3.4.2, https://matplotlib.org/</dc:title>
     </cc:Agent>
    </dc:creator>
   </cc:Work>
  </rdf:RDF>
 </metadata>
 <defs>
  <style type="text/css">*{stroke-linecap:butt;stroke-linejoin:round;}</style>
 </defs>
 <g id="figure_1">
  <g id="patch_1">
   <path d="M 0 144 
L 144 144 
L 144 0 
L 0 0 
z
" style="fill:#ffffff;"/>
  </g>
  <g id="axes_1">
   <g id="patch_2">
    <path d="M 18 128.16 
L 129.6 128.16 
L 129.6 17.28 
L 18 17.28 
z
" style="fill:#ffffff;"/>
   </g>
   <g id="matplotlib.axis_1">
    <g id="xtick_1">
     <g id="text_1">
      <!-- Original -->
      <g style="fill:#262626;" transform="translate(51.08125 204.0725)rotate(-90)scale(0.2 -0.2)">
       <defs>
        <path d="M 309 2231 
Q 309 3372 921 4017 
Q 1534 4663 2503 4663 
Q 3138 4663 3647 4359 
Q 4156 4056 4423 3514 
Q 4691 2972 4691 2284 
Q 4691 1588 4409 1038 
Q 4128 488 3612 205 
Q 3097 -78 2500 -78 
Q 1853 -78 1343 234 
Q 834 547 571 1087 
Q 309 1628 309 2231 
z
M 934 2222 
Q 934 1394 1379 917 
Q 1825 441 2497 441 
Q 3181 441 3623 922 
Q 4066 1403 4066 2288 
Q 4066 2847 3877 3264 
Q 3688 3681 3323 3911 
Q 2959 4141 2506 4141 
Q 1863 4141 1398 3698 
Q 934 3256 934 2222 
z
" id="ArialMT-4f" transform="scale(0.015625)"/>
        <path d="M 416 0 
L 416 3319 
L 922 3319 
L 922 2816 
Q 1116 3169 1280 3281 
Q 1444 3394 1641 3394 
Q 1925 3394 2219 3213 
L 2025 2691 
Q 1819 2813 1613 2813 
Q 1428 2813 1281 2702 
Q 1134 2591 1072 2394 
Q 978 2094 978 1738 
L 978 0 
L 416 0 
z
" id="ArialMT-72" transform="scale(0.015625)"/>
        <path d="M 425 3934 
L 425 4581 
L 988 4581 
L 988 3934 
L 425 3934 
z
M 425 0 
L 425 3319 
L 988 3319 
L 988 0 
L 425 0 
z
" id="ArialMT-69" transform="scale(0.015625)"/>
        <path d="M 319 -275 
L 866 -356 
Q 900 -609 1056 -725 
Q 1266 -881 1628 -881 
Q 2019 -881 2231 -725 
Q 2444 -569 2519 -288 
Q 2563 -116 2559 434 
Q 2191 0 1641 0 
Q 956 0 581 494 
Q 206 988 206 1678 
Q 206 2153 378 2554 
Q 550 2956 876 3175 
Q 1203 3394 1644 3394 
Q 2231 3394 2613 2919 
L 2613 3319 
L 3131 3319 
L 3131 450 
Q 3131 -325 2973 -648 
Q 2816 -972 2473 -1159 
Q 2131 -1347 1631 -1347 
Q 1038 -1347 672 -1080 
Q 306 -813 319 -275 
z
M 784 1719 
Q 784 1066 1043 766 
Q 1303 466 1694 466 
Q 2081 466 2343 764 
Q 2606 1063 2606 1700 
Q 2606 2309 2336 2618 
Q 2066 2928 1684 2928 
Q 1309 2928 1046 2623 
Q 784 2319 784 1719 
z
" id="ArialMT-67" transform="scale(0.015625)"/>
        <path d="M 422 0 
L 422 3319 
L 928 3319 
L 928 2847 
Q 1294 3394 1984 3394 
Q 2284 3394 2536 3286 
Q 2788 3178 2913 3003 
Q 3038 2828 3088 2588 
Q 3119 2431 3119 2041 
L 3119 0 
L 2556 0 
L 2556 2019 
Q 2556 2363 2490 2533 
Q 2425 2703 2258 2804 
Q 2091 2906 1866 2906 
Q 1506 2906 1245 2678 
Q 984 2450 984 1813 
L 984 0 
L 422 0 
z
" id="ArialMT-6e" transform="scale(0.015625)"/>
        <path d="M 2588 409 
Q 2275 144 1986 34 
Q 1697 -75 1366 -75 
Q 819 -75 525 192 
Q 231 459 231 875 
Q 231 1119 342 1320 
Q 453 1522 633 1644 
Q 813 1766 1038 1828 
Q 1203 1872 1538 1913 
Q 2219 1994 2541 2106 
Q 2544 2222 2544 2253 
Q 2544 2597 2384 2738 
Q 2169 2928 1744 2928 
Q 1347 2928 1158 2789 
Q 969 2650 878 2297 
L 328 2372 
Q 403 2725 575 2942 
Q 747 3159 1072 3276 
Q 1397 3394 1825 3394 
Q 2250 3394 2515 3294 
Q 2781 3194 2906 3042 
Q 3031 2891 3081 2659 
Q 3109 2516 3109 2141 
L 3109 1391 
Q 3109 606 3145 398 
Q 3181 191 3288 0 
L 2700 0 
Q 2613 175 2588 409 
z
M 2541 1666 
Q 2234 1541 1622 1453 
Q 1275 1403 1131 1340 
Q 988 1278 909 1158 
Q 831 1038 831 891 
Q 831 666 1001 516 
Q 1172 366 1500 366 
Q 1825 366 2078 508 
Q 2331 650 2450 897 
Q 2541 1088 2541 1459 
L 2541 1666 
z
" id="ArialMT-61" transform="scale(0.015625)"/>
        <path d="M 409 0 
L 409 4581 
L 972 4581 
L 972 0 
L 409 0 
z
" id="ArialMT-6c" transform="scale(0.015625)"/>
       </defs>
       <use xlink:href="#ArialMT-4f"/>
       <use x="77.783203" xlink:href="#ArialMT-72"/>
       <use x="111.083984" xlink:href="#ArialMT-69"/>
       <use x="133.300781" xlink:href="#ArialMT-67"/>
       <use x="188.916016" xlink:href="#ArialMT-69"/>
       <use x="211.132812" xlink:href="#ArialMT-6e"/>
       <use x="266.748047" xlink:href="#ArialMT-61"/>
       <use x="322.363281" xlink:href="#ArialMT-6c"/>
      </g>
     </g>
    </g>
    <g id="xtick_2">
     <g id="text_2">
      <!-- Mutated -->
      <g style="fill:#262626;" transform="translate(106.870312 207.419375)rotate(-90)scale(0.2 -0.2)">
       <defs>
        <path d="M 475 0 
L 475 4581 
L 1388 4581 
L 2472 1338 
Q 2622 884 2691 659 
Q 2769 909 2934 1394 
L 4031 4581 
L 4847 4581 
L 4847 0 
L 4263 0 
L 4263 3834 
L 2931 0 
L 2384 0 
L 1059 3900 
L 1059 0 
L 475 0 
z
" id="ArialMT-4d" transform="scale(0.015625)"/>
        <path d="M 2597 0 
L 2597 488 
Q 2209 -75 1544 -75 
Q 1250 -75 995 37 
Q 741 150 617 320 
Q 494 491 444 738 
Q 409 903 409 1263 
L 409 3319 
L 972 3319 
L 972 1478 
Q 972 1038 1006 884 
Q 1059 663 1231 536 
Q 1403 409 1656 409 
Q 1909 409 2131 539 
Q 2353 669 2445 892 
Q 2538 1116 2538 1541 
L 2538 3319 
L 3100 3319 
L 3100 0 
L 2597 0 
z
" id="ArialMT-75" transform="scale(0.015625)"/>
        <path d="M 1650 503 
L 1731 6 
Q 1494 -44 1306 -44 
Q 1000 -44 831 53 
Q 663 150 594 308 
Q 525 466 525 972 
L 525 2881 
L 113 2881 
L 113 3319 
L 525 3319 
L 525 4141 
L 1084 4478 
L 1084 3319 
L 1650 3319 
L 1650 2881 
L 1084 2881 
L 1084 941 
Q 1084 700 1114 631 
Q 1144 563 1211 522 
Q 1278 481 1403 481 
Q 1497 481 1650 503 
z
" id="ArialMT-74" transform="scale(0.015625)"/>
        <path d="M 2694 1069 
L 3275 997 
Q 3138 488 2766 206 
Q 2394 -75 1816 -75 
Q 1088 -75 661 373 
Q 234 822 234 1631 
Q 234 2469 665 2931 
Q 1097 3394 1784 3394 
Q 2450 3394 2872 2941 
Q 3294 2488 3294 1666 
Q 3294 1616 3291 1516 
L 816 1516 
Q 847 969 1125 678 
Q 1403 388 1819 388 
Q 2128 388 2347 550 
Q 2566 713 2694 1069 
z
M 847 1978 
L 2700 1978 
Q 2663 2397 2488 2606 
Q 2219 2931 1791 2931 
Q 1403 2931 1139 2672 
Q 875 2413 847 1978 
z
" id="ArialMT-65" transform="scale(0.015625)"/>
        <path d="M 2575 0 
L 2575 419 
Q 2259 -75 1647 -75 
Q 1250 -75 917 144 
Q 584 363 401 755 
Q 219 1147 219 1656 
Q 219 2153 384 2558 
Q 550 2963 881 3178 
Q 1213 3394 1622 3394 
Q 1922 3394 2156 3267 
Q 2391 3141 2538 2938 
L 2538 4581 
L 3097 4581 
L 3097 0 
L 2575 0 
z
M 797 1656 
Q 797 1019 1065 703 
Q 1334 388 1700 388 
Q 2069 388 2326 689 
Q 2584 991 2584 1609 
Q 2584 2291 2321 2609 
Q 2059 2928 1675 2928 
Q 1300 2928 1048 2622 
Q 797 2316 797 1656 
z
" id="ArialMT-64" transform="scale(0.015625)"/>
       </defs>
       <use xlink:href="#ArialMT-4d"/>
       <use x="83.300781" xlink:href="#ArialMT-75"/>
       <use x="138.916016" xlink:href="#ArialMT-74"/>
       <use x="166.699219" xlink:href="#ArialMT-61"/>
       <use x="222.314453" xlink:href="#ArialMT-74"/>
       <use x="250.097656" xlink:href="#ArialMT-65"/>
       <use x="305.712891" xlink:href="#ArialMT-64"/>
      </g>
     </g>
    </g>
    <g id="text_3">
     <!-- Method -->
     <g style="fill:#262626;" transform="translate(40.448437 225.735)scale(0.2 -0.2)">
      <defs>
       <path d="M 422 0 
L 422 4581 
L 984 4581 
L 984 2938 
Q 1378 3394 1978 3394 
Q 2347 3394 2619 3248 
Q 2891 3103 3008 2847 
Q 3125 2591 3125 2103 
L 3125 0 
L 2563 0 
L 2563 2103 
Q 2563 2525 2380 2717 
Q 2197 2909 1863 2909 
Q 1613 2909 1392 2779 
Q 1172 2650 1078 2428 
Q 984 2206 984 1816 
L 984 0 
L 422 0 
z
" id="ArialMT-68" transform="scale(0.015625)"/>
       <path d="M 213 1659 
Q 213 2581 725 3025 
Q 1153 3394 1769 3394 
Q 2453 3394 2887 2945 
Q 3322 2497 3322 1706 
Q 3322 1066 3130 698 
Q 2938 331 2570 128 
Q 2203 -75 1769 -75 
Q 1072 -75 642 372 
Q 213 819 213 1659 
z
M 791 1659 
Q 791 1022 1069 705 
Q 1347 388 1769 388 
Q 2188 388 2466 706 
Q 2744 1025 2744 1678 
Q 2744 2294 2464 2611 
Q 2184 2928 1769 2928 
Q 1347 2928 1069 2612 
Q 791 2297 791 1659 
z
" id="ArialMT-6f" transform="scale(0.015625)"/>
      </defs>
      <use xlink:href="#ArialMT-4d"/>
      <use x="83.300781" xlink:href="#ArialMT-65"/>
      <use x="138.916016" xlink:href="#ArialMT-74"/>
      <use x="166.699219" xlink:href="#ArialMT-68"/>
      <use x="222.314453" xlink:href="#ArialMT-6f"/>
      <use x="277.929688" xlink:href="#ArialMT-64"/>
     </g>
    </g>
   </g>
   <g id="matplotlib.axis_2">
    <g id="ytick_1">
     <g id="text_4">
      <!-- 0 -->
      <g style="fill:#262626;" transform="translate(-0.121875 115.664363)scale(0.2 -0.2)">
       <defs>
        <path d="M 266 2259 
Q 266 3072 433 3567 
Q 600 4063 929 4331 
Q 1259 4600 1759 4600 
Q 2128 4600 2406 4451 
Q 2684 4303 2865 4023 
Q 3047 3744 3150 3342 
Q 3253 2941 3253 2259 
Q 3253 1453 3087 958 
Q 2922 463 2592 192 
Q 2263 -78 1759 -78 
Q 1097 -78 719 397 
Q 266 969 266 2259 
z
M 844 2259 
Q 844 1131 1108 757 
Q 1372 384 1759 384 
Q 2147 384 2411 759 
Q 2675 1134 2675 2259 
Q 2675 3391 2411 3762 
Q 2147 4134 1753 4134 
Q 1366 4134 1134 3806 
Q 844 3388 844 2259 
z
" id="ArialMT-30" transform="scale(0.015625)"/>
       </defs>
       <use xlink:href="#ArialMT-30"/>
      </g>
     </g>
    </g>
    <g id="ytick_2">
     <g id="text_5">
      <!-- 1 -->
      <g style="fill:#262626;" transform="translate(-0.121875 44.091262)scale(0.2 -0.2)">
       <defs>
        <path d="M 2384 0 
L 1822 0 
L 1822 3584 
Q 1619 3391 1289 3197 
Q 959 3003 697 2906 
L 697 3450 
Q 1169 3672 1522 3987 
Q 1875 4303 2022 4600 
L 2384 4600 
L 2384 0 
z
" id="ArialMT-31" transform="scale(0.015625)"/>
       </defs>
       <use xlink:href="#ArialMT-31"/>
      </g>
     </g>
    </g>
    <g id="text_6">
     <!-- Predictions -->
     <g style="fill:#262626;" transform="translate(-8.096875 122.185625)rotate(-90)scale(0.2 -0.2)">
      <defs>
       <path d="M 494 0 
L 494 4581 
L 2222 4581 
Q 2678 4581 2919 4538 
Q 3256 4481 3484 4323 
Q 3713 4166 3852 3881 
Q 3991 3597 3991 3256 
Q 3991 2672 3619 2267 
Q 3247 1863 2275 1863 
L 1100 1863 
L 1100 0 
L 494 0 
z
M 1100 2403 
L 2284 2403 
Q 2872 2403 3119 2622 
Q 3366 2841 3366 3238 
Q 3366 3525 3220 3729 
Q 3075 3934 2838 4000 
Q 2684 4041 2272 4041 
L 1100 4041 
L 1100 2403 
z
" id="ArialMT-50" transform="scale(0.015625)"/>
       <path d="M 2588 1216 
L 3141 1144 
Q 3050 572 2676 248 
Q 2303 -75 1759 -75 
Q 1078 -75 664 370 
Q 250 816 250 1647 
Q 250 2184 428 2587 
Q 606 2991 970 3192 
Q 1334 3394 1763 3394 
Q 2303 3394 2647 3120 
Q 2991 2847 3088 2344 
L 2541 2259 
Q 2463 2594 2264 2762 
Q 2066 2931 1784 2931 
Q 1359 2931 1093 2626 
Q 828 2322 828 1663 
Q 828 994 1084 691 
Q 1341 388 1753 388 
Q 2084 388 2306 591 
Q 2528 794 2588 1216 
z
" id="ArialMT-63" transform="scale(0.015625)"/>
       <path d="M 197 991 
L 753 1078 
Q 800 744 1014 566 
Q 1228 388 1613 388 
Q 2000 388 2187 545 
Q 2375 703 2375 916 
Q 2375 1106 2209 1216 
Q 2094 1291 1634 1406 
Q 1016 1563 777 1677 
Q 538 1791 414 1992 
Q 291 2194 291 2438 
Q 291 2659 392 2848 
Q 494 3038 669 3163 
Q 800 3259 1026 3326 
Q 1253 3394 1513 3394 
Q 1903 3394 2198 3281 
Q 2494 3169 2634 2976 
Q 2775 2784 2828 2463 
L 2278 2388 
Q 2241 2644 2061 2787 
Q 1881 2931 1553 2931 
Q 1166 2931 1000 2803 
Q 834 2675 834 2503 
Q 834 2394 903 2306 
Q 972 2216 1119 2156 
Q 1203 2125 1616 2013 
Q 2213 1853 2448 1751 
Q 2684 1650 2818 1456 
Q 2953 1263 2953 975 
Q 2953 694 2789 445 
Q 2625 197 2315 61 
Q 2006 -75 1616 -75 
Q 969 -75 630 194 
Q 291 463 197 991 
z
" id="ArialMT-73" transform="scale(0.015625)"/>
      </defs>
      <use xlink:href="#ArialMT-50"/>
      <use x="66.699219" xlink:href="#ArialMT-72"/>
      <use x="100" xlink:href="#ArialMT-65"/>
      <use x="155.615234" xlink:href="#ArialMT-64"/>
      <use x="211.230469" xlink:href="#ArialMT-69"/>
      <use x="233.447266" xlink:href="#ArialMT-63"/>
      <use x="283.447266" xlink:href="#ArialMT-74"/>
      <use x="311.230469" xlink:href="#ArialMT-69"/>
      <use x="333.447266" xlink:href="#ArialMT-6f"/>
      <use x="389.0625" xlink:href="#ArialMT-6e"/>
      <use x="444.677734" xlink:href="#ArialMT-73"/>
     </g>
    </g>
   </g>
   <g id="PolyCollection_1">
    <defs>
     <path d="M 46.034778 -20.88 
L 45.765222 -20.88 
L 45.723625 -21.898182 
L 45.673627 -22.916364 
L 45.615043 -23.934545 
L 45.548197 -24.952727 
L 45.474022 -25.970909 
L 45.394127 -26.989091 
L 45.3108 -28.007273 
L 45.226945 -29.025455 
L 45.145941 -30.043636 
L 45.071434 -31.061818 
L 45.007073 -32.08 
L 44.956219 -33.098182 
L 44.921651 -34.116364 
L 44.905321 -35.134545 
L 44.908166 -36.152727 
L 44.930022 -37.170909 
L 44.969639 -38.189091 
L 45.024798 -39.207273 
L 45.09252 -40.225455 
L 45.169328 -41.243636 
L 45.251546 -42.261818 
L 45.335579 -43.28 
L 45.418169 -44.298182 
L 45.496585 -45.316364 
L 45.568734 -46.334545 
L 45.633211 -47.352727 
L 45.68927 -48.370909 
L 45.736751 -49.389091 
L 45.775965 -50.407273 
L 45.807572 -51.425455 
L 45.83245 -52.443636 
L 45.85158 -53.461818 
L 45.865961 -54.48 
L 45.87653 -55.498182 
L 45.884129 -56.516364 
L 45.889474 -57.534545 
L 45.893153 -58.552727 
L 45.895632 -59.570909 
L 45.897267 -60.589091 
L 45.898323 -61.607273 
L 45.89899 -62.625455 
L 45.899404 -63.643636 
L 45.899654 -64.661818 
L 45.899803 -65.68 
L 45.899888 -66.698182 
L 45.899934 -67.716364 
L 45.899954 -68.734545 
L 45.899954 -69.752727 
L 45.899933 -70.770909 
L 45.899881 -71.789091 
L 45.899775 -72.807273 
L 45.899575 -73.825455 
L 45.899208 -74.843636 
L 45.898551 -75.861818 
L 45.897398 -76.88 
L 45.895417 -77.898182 
L 45.892084 -78.916364 
L 45.886589 -79.934545 
L 45.877718 -80.952727 
L 45.86369 -81.970909 
L 45.841968 -82.989091 
L 45.809035 -84.007273 
L 45.760156 -85.025455 
L 45.689144 -86.043636 
L 45.588189 -87.061818 
L 45.447764 -88.08 
L 45.256711 -89.098182 
L 45.002544 -90.116364 
L 44.67203 -91.134545 
L 44.252108 -92.152727 
L 43.731114 -93.170909 
L 43.1003 -94.189091 
L 42.355515 -95.207273 
L 41.498896 -96.225455 
L 40.540343 -97.243636 
L 39.498537 -98.261818 
L 38.401259 -99.28 
L 37.284821 -100.298182 
L 36.192507 -101.316364 
L 35.17205 -102.334545 
L 34.272315 -103.352727 
L 33.539484 -104.370909 
L 33.013148 -105.389091 
L 32.722777 -106.407273 
L 32.684979 -107.425455 
L 32.901937 -108.443636 
L 33.361191 -109.461818 
L 34.036829 -110.48 
L 34.891906 -111.498182 
L 35.881785 -112.516364 
L 36.957984 -113.534545 
L 38.072063 -114.552727 
L 39.17912 -115.570909 
L 40.240582 -116.589091 
L 41.226048 -117.607273 
L 42.114148 -118.625455 
L 42.892471 -119.643636 
L 43.556727 -120.661818 
L 44.109383 -121.68 
L 47.690617 -121.68 
L 47.690617 -121.68 
L 48.243273 -120.661818 
L 48.907529 -119.643636 
L 49.685852 -118.625455 
L 50.573952 -117.607273 
L 51.559418 -116.589091 
L 52.62088 -115.570909 
L 53.727937 -114.552727 
L 54.842016 -113.534545 
L 55.918215 -112.516364 
L 56.908094 -111.498182 
L 57.763171 -110.48 
L 58.438809 -109.461818 
L 58.898063 -108.443636 
L 59.115021 -107.425455 
L 59.077223 -106.407273 
L 58.786852 -105.389091 
L 58.260516 -104.370909 
L 57.527685 -103.352727 
L 56.62795 -102.334545 
L 55.607493 -101.316364 
L 54.515179 -100.298182 
L 53.398741 -99.28 
L 52.301463 -98.261818 
L 51.259657 -97.243636 
L 50.301104 -96.225455 
L 49.444485 -95.207273 
L 48.6997 -94.189091 
L 48.068886 -93.170909 
L 47.547892 -92.152727 
L 47.12797 -91.134545 
L 46.797456 -90.116364 
L 46.543289 -89.098182 
L 46.352236 -88.08 
L 46.211811 -87.061818 
L 46.110856 -86.043636 
L 46.039844 -85.025455 
L 45.990965 -84.007273 
L 45.958032 -82.989091 
L 45.93631 -81.970909 
L 45.922282 -80.952727 
L 45.913411 -79.934545 
L 45.907916 -78.916364 
L 45.904583 -77.898182 
L 45.902602 -76.88 
L 45.901449 -75.861818 
L 45.900792 -74.843636 
L 45.900425 -73.825455 
L 45.900225 -72.807273 
L 45.900119 -71.789091 
L 45.900067 -70.770909 
L 45.900046 -69.752727 
L 45.900046 -68.734545 
L 45.900066 -67.716364 
L 45.900112 -66.698182 
L 45.900197 -65.68 
L 45.900346 -64.661818 
L 45.900596 -63.643636 
L 45.90101 -62.625455 
L 45.901677 -61.607273 
L 45.902733 -60.589091 
L 45.904368 -59.570909 
L 45.906847 -58.552727 
L 45.910526 -57.534545 
L 45.915871 -56.516364 
L 45.92347 -55.498182 
L 45.934039 -54.48 
L 45.94842 -53.461818 
L 45.96755 -52.443636 
L 45.992428 -51.425455 
L 46.024035 -50.407273 
L 46.063249 -49.389091 
L 46.11073 -48.370909 
L 46.166789 -47.352727 
L 46.231266 -46.334545 
L 46.303415 -45.316364 
L 46.381831 -44.298182 
L 46.464421 -43.28 
L 46.548454 -42.261818 
L 46.630672 -41.243636 
L 46.70748 -40.225455 
L 46.775202 -39.207273 
L 46.830361 -38.189091 
L 46.869978 -37.170909 
L 46.891834 -36.152727 
L 46.894679 -35.134545 
L 46.878349 -34.116364 
L 46.843781 -33.098182 
L 46.792927 -32.08 
L 46.728566 -31.061818 
L 46.654059 -30.043636 
L 46.573055 -29.025455 
L 46.4892 -28.007273 
L 46.405873 -26.989091 
L 46.325978 -25.970909 
L 46.251803 -24.952727 
L 46.184957 -23.934545 
L 46.126373 -22.916364 
L 46.076375 -21.898182 
L 46.034778 -20.88 
z
" id="mad0e47fde8" style="stroke:#262626;stroke-width:0.75;"/>
    </defs>
    <g clip-path="url(#p4095e5a6bb)">
     <use style="fill:#7f9dd2;stroke:#262626;stroke-width:0.75;" x="0" xlink:href="#mad0e47fde8" y="144"/>
    </g>
   </g>
   <g id="PolyCollection_2">
    <defs>
     <path d="M 104.749076 -30.140789 
L 98.650924 -30.140789 
L 96.293007 -30.971884 
L 92.993102 -31.802979 
L 88.968162 -32.634074 
L 84.794081 -33.465169 
L 81.315199 -34.296264 
L 79.38 -35.12736 
L 79.50772 -35.958455 
L 81.663138 -36.78955 
L 85.272272 -37.620645 
L 89.469469 -38.45174 
L 93.431378 -39.282836 
L 96.623773 -40.113931 
L 98.870114 -40.945026 
L 100.267427 -41.776121 
L 101.041456 -42.607216 
L 101.425101 -43.438311 
L 101.595797 -44.269407 
L 101.664132 -45.100502 
L 101.688789 -45.931597 
L 101.696818 -46.762692 
L 101.69918 -47.593787 
L 101.699808 -48.424883 
L 101.699959 -49.255978 
L 101.699992 -50.087073 
L 101.699999 -50.918168 
L 101.7 -51.749263 
L 101.7 -52.580358 
L 101.7 -53.411454 
L 101.7 -54.242549 
L 101.7 -55.073644 
L 101.7 -55.904739 
L 101.7 -56.735834 
L 101.7 -57.56693 
L 101.7 -58.398025 
L 101.7 -59.22912 
L 101.7 -60.060215 
L 101.7 -60.89131 
L 101.7 -61.722405 
L 101.7 -62.553501 
L 101.7 -63.384596 
L 101.7 -64.215691 
L 101.7 -65.046786 
L 101.7 -65.877881 
L 101.7 -66.708977 
L 101.7 -67.540072 
L 101.7 -68.371167 
L 101.7 -69.202262 
L 101.7 -70.033357 
L 101.7 -70.864452 
L 101.7 -71.695548 
L 101.7 -72.526643 
L 101.7 -73.357738 
L 101.7 -74.188833 
L 101.7 -75.019928 
L 101.7 -75.851023 
L 101.7 -76.682119 
L 101.7 -77.513214 
L 101.7 -78.344309 
L 101.7 -79.175404 
L 101.7 -80.006499 
L 101.7 -80.837595 
L 101.7 -81.66869 
L 101.7 -82.499785 
L 101.7 -83.33088 
L 101.7 -84.161975 
L 101.7 -84.99307 
L 101.7 -85.824166 
L 101.7 -86.655261 
L 101.7 -87.486356 
L 101.7 -88.317451 
L 101.7 -89.148546 
L 101.7 -89.979642 
L 101.7 -90.810737 
L 101.699999 -91.641832 
L 101.699994 -92.472927 
L 101.69997 -93.304022 
L 101.699861 -94.135117 
L 101.699406 -94.966213 
L 101.697696 -95.797308 
L 101.691883 -96.628403 
L 101.674032 -97.459498 
L 101.624558 -98.290593 
L 101.500976 -99.121689 
L 101.223221 -99.952784 
L 100.662832 -100.783879 
L 99.651192 -101.614974 
L 98.024865 -102.446069 
L 95.713604 -103.277164 
L 92.845224 -104.10826 
L 89.806497 -104.939355 
L 87.193522 -105.77045 
L 85.633021 -106.601545 
L 85.540554 -107.43264 
L 86.941618 -108.263736 
L 89.460292 -109.094831 
L 92.482282 -109.925926 
L 95.396297 -110.757021 
L 97.785393 -111.588116 
L 99.492501 -112.419211 
L 103.907499 -112.419211 
L 103.907499 -112.419211 
L 105.614607 -111.588116 
L 108.003703 -110.757021 
L 110.917718 -109.925926 
L 113.939708 -109.094831 
L 116.458382 -108.263736 
L 117.859446 -107.43264 
L 117.766979 -106.601545 
L 116.206478 -105.77045 
L 113.593503 -104.939355 
L 110.554776 -104.10826 
L 107.686396 -103.277164 
L 105.375135 -102.446069 
L 103.748808 -101.614974 
L 102.737168 -100.783879 
L 102.176779 -99.952784 
L 101.899024 -99.121689 
L 101.775442 -98.290593 
L 101.725968 -97.459498 
L 101.708117 -96.628403 
L 101.702304 -95.797308 
L 101.700594 -94.966213 
L 101.700139 -94.135117 
L 101.70003 -93.304022 
L 101.700006 -92.472927 
L 101.700001 -91.641832 
L 101.7 -90.810737 
L 101.7 -89.979642 
L 101.7 -89.148546 
L 101.7 -88.317451 
L 101.7 -87.486356 
L 101.7 -86.655261 
L 101.7 -85.824166 
L 101.7 -84.99307 
L 101.7 -84.161975 
L 101.7 -83.33088 
L 101.7 -82.499785 
L 101.7 -81.66869 
L 101.7 -80.837595 
L 101.7 -80.006499 
L 101.7 -79.175404 
L 101.7 -78.344309 
L 101.7 -77.513214 
L 101.7 -76.682119 
L 101.7 -75.851023 
L 101.7 -75.019928 
L 101.7 -74.188833 
L 101.7 -73.357738 
L 101.7 -72.526643 
L 101.7 -71.695548 
L 101.7 -70.864452 
L 101.7 -70.033357 
L 101.7 -69.202262 
L 101.7 -68.371167 
L 101.7 -67.540072 
L 101.7 -66.708977 
L 101.7 -65.877881 
L 101.7 -65.046786 
L 101.7 -64.215691 
L 101.7 -63.384596 
L 101.7 -62.553501 
L 101.7 -61.722405 
L 101.7 -60.89131 
L 101.7 -60.060215 
L 101.7 -59.22912 
L 101.7 -58.398025 
L 101.7 -57.56693 
L 101.7 -56.735834 
L 101.7 -55.904739 
L 101.7 -55.073644 
L 101.7 -54.242549 
L 101.7 -53.411454 
L 101.7 -52.580358 
L 101.7 -51.749263 
L 101.700001 -50.918168 
L 101.700008 -50.087073 
L 101.700041 -49.255978 
L 101.700192 -48.424883 
L 101.70082 -47.593787 
L 101.703182 -46.762692 
L 101.711211 -45.931597 
L 101.735868 -45.100502 
L 101.804203 -44.269407 
L 101.974899 -43.438311 
L 102.358544 -42.607216 
L 103.132573 -41.776121 
L 104.529886 -40.945026 
L 106.776227 -40.113931 
L 109.968622 -39.282836 
L 113.930531 -38.45174 
L 118.127728 -37.620645 
L 121.736862 -36.78955 
L 123.89228 -35.958455 
L 124.02 -35.12736 
L 122.084801 -34.296264 
L 118.605919 -33.465169 
L 114.431838 -32.634074 
L 110.406898 -31.802979 
L 107.106993 -30.971884 
L 104.749076 -30.140789 
z
" id="mc344f0e5f2" style="stroke:#262626;stroke-width:0.75;"/>
    </defs>
    <g clip-path="url(#p4095e5a6bb)">
     <use style="fill:#1a1a66;stroke:#262626;stroke-width:0.75;" x="0" xlink:href="#mc344f0e5f2" y="144"/>
    </g>
   </g>
   <g id="line2d_1">
    <path clip-path="url(#p4095e5a6bb)" d="M 45.9 36.933449 
L 45.9 36.933449 
" style="fill:none;stroke:#262626;stroke-linecap:round;stroke-width:0.75;"/>
   </g>
   <g id="line2d_2">
    <path clip-path="url(#p4095e5a6bb)" d="M 45.9 36.933449 
L 45.9 36.933449 
" style="fill:none;stroke:#262626;stroke-linecap:round;stroke-width:2.25;"/>
   </g>
   <g id="line2d_3">
    <path clip-path="url(#p4095e5a6bb)" d="M 101.7 108.506551 
L 101.7 36.933449 
" style="fill:none;stroke:#262626;stroke-linecap:round;stroke-width:0.75;"/>
   </g>
   <g id="line2d_4">
    <path clip-path="url(#p4095e5a6bb)" d="M 101.7 108.506551 
L 101.7 36.933449 
" style="fill:none;stroke:#262626;stroke-linecap:round;stroke-width:2.25;"/>
   </g>
   <g id="patch_3">
    <path d="M 18 128.16 
L 18 17.28 
" style="fill:none;stroke:#262626;stroke-linecap:square;stroke-linejoin:miter;stroke-width:0.8;"/>
   </g>
   <g id="patch_4">
    <path d="M 18 128.16 
L 129.6 128.16 
" style="fill:none;stroke:#262626;stroke-linecap:square;stroke-linejoin:miter;stroke-width:0.8;"/>
   </g>
   <g id="PathCollection_1">
    <defs>
     <path d="M 0 0.75 
C 0.198902 0.75 0.389685 0.670975 0.53033 0.53033 
C 0.670975 0.389685 0.75 0.198902 0.75 0 
C 0.75 -0.198902 0.670975 -0.389685 0.53033 -0.53033 
C 0.389685 -0.670975 0.198902 -0.75 0 -0.75 
C -0.198902 -0.75 -0.389685 -0.670975 -0.53033 -0.53033 
C -0.670975 -0.389685 -0.75 -0.198902 -0.75 0 
C -0.75 0.198902 -0.670975 0.389685 -0.53033 0.53033 
C -0.389685 0.670975 -0.198902 0.75 0 0.75 
z
" id="mfb5cd87996" style="stroke:#262626;"/>
    </defs>
    <g clip-path="url(#p4095e5a6bb)">
     <use style="fill:#ffffff;stroke:#262626;" x="45.9" xlink:href="#mfb5cd87996" y="36.933449"/>
    </g>
   </g>
   <g id="PathCollection_2">
    <g clip-path="url(#p4095e5a6bb)">
     <use style="fill:#ffffff;stroke:#262626;" x="101.7" xlink:href="#mfb5cd87996" y="108.506551"/>
    </g>
   </g>
   <g id="text_7">
    <!-- Top 10% -->
    <g style="fill:#262626;" transform="translate(27.10875 11.28)scale(0.24 -0.24)">
     <defs>
      <path d="M 1659 0 
L 1659 4041 
L 150 4041 
L 150 4581 
L 3781 4581 
L 3781 4041 
L 2266 4041 
L 2266 0 
L 1659 0 
z
" id="ArialMT-54" transform="scale(0.015625)"/>
      <path d="M 422 -1272 
L 422 3319 
L 934 3319 
L 934 2888 
Q 1116 3141 1344 3267 
Q 1572 3394 1897 3394 
Q 2322 3394 2647 3175 
Q 2972 2956 3137 2557 
Q 3303 2159 3303 1684 
Q 3303 1175 3120 767 
Q 2938 359 2589 142 
Q 2241 -75 1856 -75 
Q 1575 -75 1351 44 
Q 1128 163 984 344 
L 984 -1272 
L 422 -1272 
z
M 931 1641 
Q 931 1000 1190 694 
Q 1450 388 1819 388 
Q 2194 388 2461 705 
Q 2728 1022 2728 1688 
Q 2728 2322 2467 2637 
Q 2206 2953 1844 2953 
Q 1484 2953 1207 2617 
Q 931 2281 931 1641 
z
" id="ArialMT-70" transform="scale(0.015625)"/>
      <path id="ArialMT-20" transform="scale(0.015625)"/>
      <path d="M 372 3481 
Q 372 3972 619 4315 
Q 866 4659 1334 4659 
Q 1766 4659 2048 4351 
Q 2331 4044 2331 3447 
Q 2331 2866 2045 2552 
Q 1759 2238 1341 2238 
Q 925 2238 648 2547 
Q 372 2856 372 3481 
z
M 1350 4272 
Q 1141 4272 1002 4090 
Q 863 3909 863 3425 
Q 863 2984 1003 2804 
Q 1144 2625 1350 2625 
Q 1563 2625 1702 2806 
Q 1841 2988 1841 3469 
Q 1841 3913 1700 4092 
Q 1559 4272 1350 4272 
z
M 1353 -169 
L 3859 4659 
L 4316 4659 
L 1819 -169 
L 1353 -169 
z
M 3334 1075 
Q 3334 1569 3581 1911 
Q 3828 2253 4300 2253 
Q 4731 2253 5014 1945 
Q 5297 1638 5297 1041 
Q 5297 459 5011 145 
Q 4725 -169 4303 -169 
Q 3888 -169 3611 142 
Q 3334 453 3334 1075 
z
M 4316 1866 
Q 4103 1866 3964 1684 
Q 3825 1503 3825 1019 
Q 3825 581 3965 400 
Q 4106 219 4313 219 
Q 4528 219 4667 400 
Q 4806 581 4806 1063 
Q 4806 1506 4665 1686 
Q 4525 1866 4316 1866 
z
" id="ArialMT-25" transform="scale(0.015625)"/>
     </defs>
     <use xlink:href="#ArialMT-54"/>
     <use x="49.958984" xlink:href="#ArialMT-6f"/>
     <use x="105.574219" xlink:href="#ArialMT-70"/>
     <use x="161.189453" xlink:href="#ArialMT-20"/>
     <use x="188.972656" xlink:href="#ArialMT-31"/>
     <use x="244.587891" xlink:href="#ArialMT-30"/>
     <use x="300.203125" xlink:href="#ArialMT-25"/>
    </g>
   </g>
  </g>
 </g>
 <defs>
  <clipPath id="p4095e5a6bb">
   <rect height="110.88" width="111.6" x="18" y="17.28"/>
  </clipPath>
 </defs>
</svg>
