<?xml version="1.0" encoding="utf-8" standalone="no"?>
<!DOCTYPE svg PUBLIC "-//W3C//DTD SVG 1.1//EN"
  "http://www.w3.org/Graphics/SVG/1.1/DTD/svg11.dtd">
<svg height="144pt" version="1.1" viewBox="0 0 144 144" width="144pt" xmlns="http://www.w3.org/2000/svg" xmlns:xlink="http://www.w3.org/1999/xlink">
 <metadata>
  <rdf:RDF xmlns:cc="http://creativecommons.org/ns#" xmlns:dc="http://purl.org/dc/elements/1.1/" xmlns:rdf="http://www.w3.org/1999/02/22-rdf-syntax-ns#">
   <cc:Work>
    <dc:type rdf:resource="http://purl.org/dc/dcmitype/StillImage"/>
    <dc:date>2022-12-21T14:50:24.697255</dc:date>
    <dc:format>image/svg+xml</dc:format>
    <dc:creator>
     <cc:Agent>
      <dc:title>Matplotlib v3.4.2, https://matplotlib.org/</dc:title>
     </cc:Agent>
    </dc:creator>
   </cc:Work>
  </rdf:RDF>
 </metadata>
 <defs>
  <style type="text/css">*{stroke-linecap:butt;stroke-linejoin:round;}</style>
 </defs>
 <g id="figure_1">
  <g id="patch_1">
   <path d="M 0 144 
L 144 144 
L 144 0 
L 0 0 
z
" style="fill:#ffffff;"/>
  </g>
  <g id="axes_1">
   <g id="patch_2">
    <path d="M 18 128.16 
L 129.6 128.16 
L 129.6 17.28 
L 18 17.28 
z
" style="fill:#ffffff;"/>
   </g>
   <g id="matplotlib.axis_1">
    <g id="xtick_1">
     <g id="text_1">
      <!-- Original -->
      <g style="fill:#262626;" transform="translate(51.08125 204.0725)rotate(-90)scale(0.2 -0.2)">
       <defs>
        <path d="M 309 2231 
Q 309 3372 921 4017 
Q 1534 4663 2503 4663 
Q 3138 4663 3647 4359 
Q 4156 4056 4423 3514 
Q 4691 2972 4691 2284 
Q 4691 1588 4409 1038 
Q 4128 488 3612 205 
Q 3097 -78 2500 -78 
Q 1853 -78 1343 234 
Q 834 547 571 1087 
Q 309 1628 309 2231 
z
M 934 2222 
Q 934 1394 1379 917 
Q 1825 441 2497 441 
Q 3181 441 3623 922 
Q 4066 1403 4066 2288 
Q 4066 2847 3877 3264 
Q 3688 3681 3323 3911 
Q 2959 4141 2506 4141 
Q 1863 4141 1398 3698 
Q 934 3256 934 2222 
z
" id="ArialMT-4f" transform="scale(0.015625)"/>
        <path d="M 416 0 
L 416 3319 
L 922 3319 
L 922 2816 
Q 1116 3169 1280 3281 
Q 1444 3394 1641 3394 
Q 1925 3394 2219 3213 
L 2025 2691 
Q 1819 2813 1613 2813 
Q 1428 2813 1281 2702 
Q 1134 2591 1072 2394 
Q 978 2094 978 1738 
L 978 0 
L 416 0 
z
" id="ArialMT-72" transform="scale(0.015625)"/>
        <path d="M 425 3934 
L 425 4581 
L 988 4581 
L 988 3934 
L 425 3934 
z
M 425 0 
L 425 3319 
L 988 3319 
L 988 0 
L 425 0 
z
" id="ArialMT-69" transform="scale(0.015625)"/>
        <path d="M 319 -275 
L 866 -356 
Q 900 -609 1056 -725 
Q 1266 -881 1628 -881 
Q 2019 -881 2231 -725 
Q 2444 -569 2519 -288 
Q 2563 -116 2559 434 
Q 2191 0 1641 0 
Q 956 0 581 494 
Q 206 988 206 1678 
Q 206 2153 378 2554 
Q 550 2956 876 3175 
Q 1203 3394 1644 3394 
Q 2231 3394 2613 2919 
L 2613 3319 
L 3131 3319 
L 3131 450 
Q 3131 -325 2973 -648 
Q 2816 -972 2473 -1159 
Q 2131 -1347 1631 -1347 
Q 1038 -1347 672 -1080 
Q 306 -813 319 -275 
z
M 784 1719 
Q 784 1066 1043 766 
Q 1303 466 1694 466 
Q 2081 466 2343 764 
Q 2606 1063 2606 1700 
Q 2606 2309 2336 2618 
Q 2066 2928 1684 2928 
Q 1309 2928 1046 2623 
Q 784 2319 784 1719 
z
" id="ArialMT-67" transform="scale(0.015625)"/>
        <path d="M 422 0 
L 422 3319 
L 928 3319 
L 928 2847 
Q 1294 3394 1984 3394 
Q 2284 3394 2536 3286 
Q 2788 3178 2913 3003 
Q 3038 2828 3088 2588 
Q 3119 2431 3119 2041 
L 3119 0 
L 2556 0 
L 2556 2019 
Q 2556 2363 2490 2533 
Q 2425 2703 2258 2804 
Q 2091 2906 1866 2906 
Q 1506 2906 1245 2678 
Q 984 2450 984 1813 
L 984 0 
L 422 0 
z
" id="ArialMT-6e" transform="scale(0.015625)"/>
        <path d="M 2588 409 
Q 2275 144 1986 34 
Q 1697 -75 1366 -75 
Q 819 -75 525 192 
Q 231 459 231 875 
Q 231 1119 342 1320 
Q 453 1522 633 1644 
Q 813 1766 1038 1828 
Q 1203 1872 1538 1913 
Q 2219 1994 2541 2106 
Q 2544 2222 2544 2253 
Q 2544 2597 2384 2738 
Q 2169 2928 1744 2928 
Q 1347 2928 1158 2789 
Q 969 2650 878 2297 
L 328 2372 
Q 403 2725 575 2942 
Q 747 3159 1072 3276 
Q 1397 3394 1825 3394 
Q 2250 3394 2515 3294 
Q 2781 3194 2906 3042 
Q 3031 2891 3081 2659 
Q 3109 2516 3109 2141 
L 3109 1391 
Q 3109 606 3145 398 
Q 3181 191 3288 0 
L 2700 0 
Q 2613 175 2588 409 
z
M 2541 1666 
Q 2234 1541 1622 1453 
Q 1275 1403 1131 1340 
Q 988 1278 909 1158 
Q 831 1038 831 891 
Q 831 666 1001 516 
Q 1172 366 1500 366 
Q 1825 366 2078 508 
Q 2331 650 2450 897 
Q 2541 1088 2541 1459 
L 2541 1666 
z
" id="ArialMT-61" transform="scale(0.015625)"/>
        <path d="M 409 0 
L 409 4581 
L 972 4581 
L 972 0 
L 409 0 
z
" id="ArialMT-6c" transform="scale(0.015625)"/>
       </defs>
       <use xlink:href="#ArialMT-4f"/>
       <use x="77.783203" xlink:href="#ArialMT-72"/>
       <use x="111.083984" xlink:href="#ArialMT-69"/>
       <use x="133.300781" xlink:href="#ArialMT-67"/>
       <use x="188.916016" xlink:href="#ArialMT-69"/>
       <use x="211.132812" xlink:href="#ArialMT-6e"/>
       <use x="266.748047" xlink:href="#ArialMT-61"/>
       <use x="322.363281" xlink:href="#ArialMT-6c"/>
      </g>
     </g>
    </g>
    <g id="xtick_2">
     <g id="text_2">
      <!-- Mutated -->
      <g style="fill:#262626;" transform="translate(106.870312 207.419375)rotate(-90)scale(0.2 -0.2)">
       <defs>
        <path d="M 475 0 
L 475 4581 
L 1388 4581 
L 2472 1338 
Q 2622 884 2691 659 
Q 2769 909 2934 1394 
L 4031 4581 
L 4847 4581 
L 4847 0 
L 4263 0 
L 4263 3834 
L 2931 0 
L 2384 0 
L 1059 3900 
L 1059 0 
L 475 0 
z
" id="ArialMT-4d" transform="scale(0.015625)"/>
        <path d="M 2597 0 
L 2597 488 
Q 2209 -75 1544 -75 
Q 1250 -75 995 37 
Q 741 150 617 320 
Q 494 491 444 738 
Q 409 903 409 1263 
L 409 3319 
L 972 3319 
L 972 1478 
Q 972 1038 1006 884 
Q 1059 663 1231 536 
Q 1403 409 1656 409 
Q 1909 409 2131 539 
Q 2353 669 2445 892 
Q 2538 1116 2538 1541 
L 2538 3319 
L 3100 3319 
L 3100 0 
L 2597 0 
z
" id="ArialMT-75" transform="scale(0.015625)"/>
        <path d="M 1650 503 
L 1731 6 
Q 1494 -44 1306 -44 
Q 1000 -44 831 53 
Q 663 150 594 308 
Q 525 466 525 972 
L 525 2881 
L 113 2881 
L 113 3319 
L 525 3319 
L 525 4141 
L 1084 4478 
L 1084 3319 
L 1650 3319 
L 1650 2881 
L 1084 2881 
L 1084 941 
Q 1084 700 1114 631 
Q 1144 563 1211 522 
Q 1278 481 1403 481 
Q 1497 481 1650 503 
z
" id="ArialMT-74" transform="scale(0.015625)"/>
        <path d="M 2694 1069 
L 3275 997 
Q 3138 488 2766 206 
Q 2394 -75 1816 -75 
Q 1088 -75 661 373 
Q 234 822 234 1631 
Q 234 2469 665 2931 
Q 1097 3394 1784 3394 
Q 2450 3394 2872 2941 
Q 3294 2488 3294 1666 
Q 3294 1616 3291 1516 
L 816 1516 
Q 847 969 1125 678 
Q 1403 388 1819 388 
Q 2128 388 2347 550 
Q 2566 713 2694 1069 
z
M 847 1978 
L 2700 1978 
Q 2663 2397 2488 2606 
Q 2219 2931 1791 2931 
Q 1403 2931 1139 2672 
Q 875 2413 847 1978 
z
" id="ArialMT-65" transform="scale(0.015625)"/>
        <path d="M 2575 0 
L 2575 419 
Q 2259 -75 1647 -75 
Q 1250 -75 917 144 
Q 584 363 401 755 
Q 219 1147 219 1656 
Q 219 2153 384 2558 
Q 550 2963 881 3178 
Q 1213 3394 1622 3394 
Q 1922 3394 2156 3267 
Q 2391 3141 2538 2938 
L 2538 4581 
L 3097 4581 
L 3097 0 
L 2575 0 
z
M 797 1656 
Q 797 1019 1065 703 
Q 1334 388 1700 388 
Q 2069 388 2326 689 
Q 2584 991 2584 1609 
Q 2584 2291 2321 2609 
Q 2059 2928 1675 2928 
Q 1300 2928 1048 2622 
Q 797 2316 797 1656 
z
" id="ArialMT-64" transform="scale(0.015625)"/>
       </defs>
       <use xlink:href="#ArialMT-4d"/>
       <use x="83.300781" xlink:href="#ArialMT-75"/>
       <use x="138.916016" xlink:href="#ArialMT-74"/>
       <use x="166.699219" xlink:href="#ArialMT-61"/>
       <use x="222.314453" xlink:href="#ArialMT-74"/>
       <use x="250.097656" xlink:href="#ArialMT-65"/>
       <use x="305.712891" xlink:href="#ArialMT-64"/>
      </g>
     </g>
    </g>
    <g id="text_3">
     <!-- Method -->
     <g style="fill:#262626;" transform="translate(40.448437 225.735)scale(0.2 -0.2)">
      <defs>
       <path d="M 422 0 
L 422 4581 
L 984 4581 
L 984 2938 
Q 1378 3394 1978 3394 
Q 2347 3394 2619 3248 
Q 2891 3103 3008 2847 
Q 3125 2591 3125 2103 
L 3125 0 
L 2563 0 
L 2563 2103 
Q 2563 2525 2380 2717 
Q 2197 2909 1863 2909 
Q 1613 2909 1392 2779 
Q 1172 2650 1078 2428 
Q 984 2206 984 1816 
L 984 0 
L 422 0 
z
" id="ArialMT-68" transform="scale(0.015625)"/>
       <path d="M 213 1659 
Q 213 2581 725 3025 
Q 1153 3394 1769 3394 
Q 2453 3394 2887 2945 
Q 3322 2497 3322 1706 
Q 3322 1066 3130 698 
Q 2938 331 2570 128 
Q 2203 -75 1769 -75 
Q 1072 -75 642 372 
Q 213 819 213 1659 
z
M 791 1659 
Q 791 1022 1069 705 
Q 1347 388 1769 388 
Q 2188 388 2466 706 
Q 2744 1025 2744 1678 
Q 2744 2294 2464 2611 
Q 2184 2928 1769 2928 
Q 1347 2928 1069 2612 
Q 791 2297 791 1659 
z
" id="ArialMT-6f" transform="scale(0.015625)"/>
      </defs>
      <use xlink:href="#ArialMT-4d"/>
      <use x="83.300781" xlink:href="#ArialMT-65"/>
      <use x="138.916016" xlink:href="#ArialMT-74"/>
      <use x="166.699219" xlink:href="#ArialMT-68"/>
      <use x="222.314453" xlink:href="#ArialMT-6f"/>
      <use x="277.929688" xlink:href="#ArialMT-64"/>
     </g>
    </g>
   </g>
   <g id="matplotlib.axis_2">
    <g id="ytick_1">
     <g id="text_4">
      <!-- 0.0 -->
      <g style="fill:#262626;" transform="translate(-16.8 116.583199)scale(0.2 -0.2)">
       <defs>
        <path d="M 266 2259 
Q 266 3072 433 3567 
Q 600 4063 929 4331 
Q 1259 4600 1759 4600 
Q 2128 4600 2406 4451 
Q 2684 4303 2865 4023 
Q 3047 3744 3150 3342 
Q 3253 2941 3253 2259 
Q 3253 1453 3087 958 
Q 2922 463 2592 192 
Q 2263 -78 1759 -78 
Q 1097 -78 719 397 
Q 266 969 266 2259 
z
M 844 2259 
Q 844 1131 1108 757 
Q 1372 384 1759 384 
Q 2147 384 2411 759 
Q 2675 1134 2675 2259 
Q 2675 3391 2411 3762 
Q 2147 4134 1753 4134 
Q 1366 4134 1134 3806 
Q 844 3388 844 2259 
z
" id="ArialMT-30" transform="scale(0.015625)"/>
        <path d="M 581 0 
L 581 641 
L 1222 641 
L 1222 0 
L 581 0 
z
" id="ArialMT-2e" transform="scale(0.015625)"/>
       </defs>
       <use xlink:href="#ArialMT-30"/>
       <use x="55.615234" xlink:href="#ArialMT-2e"/>
       <use x="83.398438" xlink:href="#ArialMT-30"/>
      </g>
     </g>
    </g>
    <g id="ytick_2">
     <g id="text_5">
      <!-- 2.5 -->
      <g style="fill:#262626;" transform="translate(-16.8 55.407555)scale(0.2 -0.2)">
       <defs>
        <path d="M 3222 541 
L 3222 0 
L 194 0 
Q 188 203 259 391 
Q 375 700 629 1000 
Q 884 1300 1366 1694 
Q 2113 2306 2375 2664 
Q 2638 3022 2638 3341 
Q 2638 3675 2398 3904 
Q 2159 4134 1775 4134 
Q 1369 4134 1125 3890 
Q 881 3647 878 3216 
L 300 3275 
Q 359 3922 746 4261 
Q 1134 4600 1788 4600 
Q 2447 4600 2831 4234 
Q 3216 3869 3216 3328 
Q 3216 3053 3103 2787 
Q 2991 2522 2730 2228 
Q 2469 1934 1863 1422 
Q 1356 997 1212 845 
Q 1069 694 975 541 
L 3222 541 
z
" id="ArialMT-32" transform="scale(0.015625)"/>
        <path d="M 266 1200 
L 856 1250 
Q 922 819 1161 601 
Q 1400 384 1738 384 
Q 2144 384 2425 690 
Q 2706 997 2706 1503 
Q 2706 1984 2436 2262 
Q 2166 2541 1728 2541 
Q 1456 2541 1237 2417 
Q 1019 2294 894 2097 
L 366 2166 
L 809 4519 
L 3088 4519 
L 3088 3981 
L 1259 3981 
L 1013 2750 
Q 1425 3038 1878 3038 
Q 2478 3038 2890 2622 
Q 3303 2206 3303 1553 
Q 3303 931 2941 478 
Q 2500 -78 1738 -78 
Q 1113 -78 717 272 
Q 322 622 266 1200 
z
" id="ArialMT-35" transform="scale(0.015625)"/>
       </defs>
       <use xlink:href="#ArialMT-32"/>
       <use x="55.615234" xlink:href="#ArialMT-2e"/>
       <use x="83.398438" xlink:href="#ArialMT-35"/>
      </g>
     </g>
    </g>
    <g id="text_6">
     <!-- Predictions -->
     <g style="fill:#262626;" transform="translate(-24.775 122.185625)rotate(-90)scale(0.2 -0.2)">
      <defs>
       <path d="M 494 0 
L 494 4581 
L 2222 4581 
Q 2678 4581 2919 4538 
Q 3256 4481 3484 4323 
Q 3713 4166 3852 3881 
Q 3991 3597 3991 3256 
Q 3991 2672 3619 2267 
Q 3247 1863 2275 1863 
L 1100 1863 
L 1100 0 
L 494 0 
z
M 1100 2403 
L 2284 2403 
Q 2872 2403 3119 2622 
Q 3366 2841 3366 3238 
Q 3366 3525 3220 3729 
Q 3075 3934 2838 4000 
Q 2684 4041 2272 4041 
L 1100 4041 
L 1100 2403 
z
" id="ArialMT-50" transform="scale(0.015625)"/>
       <path d="M 2588 1216 
L 3141 1144 
Q 3050 572 2676 248 
Q 2303 -75 1759 -75 
Q 1078 -75 664 370 
Q 250 816 250 1647 
Q 250 2184 428 2587 
Q 606 2991 970 3192 
Q 1334 3394 1763 3394 
Q 2303 3394 2647 3120 
Q 2991 2847 3088 2344 
L 2541 2259 
Q 2463 2594 2264 2762 
Q 2066 2931 1784 2931 
Q 1359 2931 1093 2626 
Q 828 2322 828 1663 
Q 828 994 1084 691 
Q 1341 388 1753 388 
Q 2084 388 2306 591 
Q 2528 794 2588 1216 
z
" id="ArialMT-63" transform="scale(0.015625)"/>
       <path d="M 197 991 
L 753 1078 
Q 800 744 1014 566 
Q 1228 388 1613 388 
Q 2000 388 2187 545 
Q 2375 703 2375 916 
Q 2375 1106 2209 1216 
Q 2094 1291 1634 1406 
Q 1016 1563 777 1677 
Q 538 1791 414 1992 
Q 291 2194 291 2438 
Q 291 2659 392 2848 
Q 494 3038 669 3163 
Q 800 3259 1026 3326 
Q 1253 3394 1513 3394 
Q 1903 3394 2198 3281 
Q 2494 3169 2634 2976 
Q 2775 2784 2828 2463 
L 2278 2388 
Q 2241 2644 2061 2787 
Q 1881 2931 1553 2931 
Q 1166 2931 1000 2803 
Q 834 2675 834 2503 
Q 834 2394 903 2306 
Q 972 2216 1119 2156 
Q 1203 2125 1616 2013 
Q 2213 1853 2448 1751 
Q 2684 1650 2818 1456 
Q 2953 1263 2953 975 
Q 2953 694 2789 445 
Q 2625 197 2315 61 
Q 2006 -75 1616 -75 
Q 969 -75 630 194 
Q 291 463 197 991 
z
" id="ArialMT-73" transform="scale(0.015625)"/>
      </defs>
      <use xlink:href="#ArialMT-50"/>
      <use x="66.699219" xlink:href="#ArialMT-72"/>
      <use x="100" xlink:href="#ArialMT-65"/>
      <use x="155.615234" xlink:href="#ArialMT-64"/>
      <use x="211.230469" xlink:href="#ArialMT-69"/>
      <use x="233.447266" xlink:href="#ArialMT-63"/>
      <use x="283.447266" xlink:href="#ArialMT-74"/>
      <use x="311.230469" xlink:href="#ArialMT-69"/>
      <use x="333.447266" xlink:href="#ArialMT-6f"/>
      <use x="389.0625" xlink:href="#ArialMT-6e"/>
      <use x="444.677734" xlink:href="#ArialMT-73"/>
     </g>
    </g>
   </g>
   <g id="PolyCollection_1">
    <defs>
     <path d="M 46.173747 -20.88 
L 45.626253 -20.88 
L 45.535492 -21.898182 
L 45.425253 -22.916364 
L 45.295194 -23.934545 
L 45.146349 -24.952727 
L 44.981402 -25.970909 
L 44.804821 -26.989091 
L 44.622813 -28.007273 
L 44.443061 -29.025455 
L 44.274224 -30.043636 
L 44.125252 -31.061818 
L 44.004554 -32.08 
L 43.919132 -33.098182 
L 43.873768 -34.116364 
L 43.870375 -35.134545 
L 43.907595 -36.152727 
L 43.980675 -37.170909 
L 44.081649 -38.189091 
L 44.199768 -39.207273 
L 44.322137 -40.225455 
L 44.434477 -41.243636 
L 44.521945 -42.261818 
L 44.569982 -43.28 
L 44.565141 -44.298182 
L 44.49593 -45.316364 
L 44.353635 -46.334545 
L 44.133163 -47.352727 
L 43.833832 -48.370909 
L 43.460063 -49.389091 
L 43.021843 -50.407273 
L 42.534843 -51.425455 
L 42.020042 -52.443636 
L 41.502779 -53.461818 
L 41.011207 -54.48 
L 40.574235 -55.498182 
L 40.219132 -56.516364 
L 39.969061 -57.534545 
L 39.840854 -58.552727 
L 39.843328 -59.570909 
L 39.976392 -60.589091 
L 40.231068 -61.607273 
L 40.590428 -62.625455 
L 41.031314 -63.643636 
L 41.526578 -64.661818 
L 42.047564 -65.68 
L 42.566493 -66.698182 
L 43.0585 -67.716364 
L 43.503139 -68.734545 
L 43.885288 -69.752727 
L 44.195461 -70.770909 
L 44.42963 -71.789091 
L 44.588699 -72.807273 
L 44.677757 -73.825455 
L 44.705233 -74.843636 
L 44.682046 -75.861818 
L 44.620772 -76.88 
L 44.534847 -77.898182 
L 44.437802 -78.916364 
L 44.342513 -79.934545 
L 44.260506 -80.952727 
L 44.201311 -81.970909 
L 44.171945 -82.989091 
L 44.176571 -84.007273 
L 44.216369 -85.025455 
L 44.289662 -86.043636 
L 44.392272 -87.061818 
L 44.518089 -88.08 
L 44.659762 -89.098182 
L 44.809445 -90.116364 
L 44.959499 -91.134545 
L 45.103092 -92.152727 
L 45.234629 -93.170909 
L 45.350003 -94.189091 
L 45.446669 -95.207273 
L 45.523573 -96.225455 
L 45.58097 -97.243636 
L 45.620187 -98.261818 
L 45.643357 -99.28 
L 45.653163 -100.298182 
L 45.652606 -101.316364 
L 45.644799 -102.334545 
L 45.632792 -103.352727 
L 45.619422 -104.370909 
L 45.607181 -105.389091 
L 45.598113 -106.407273 
L 45.593736 -107.425455 
L 45.594994 -108.443636 
L 45.602253 -109.461818 
L 45.615336 -110.48 
L 45.633597 -111.498182 
L 45.656031 -112.516364 
L 45.681405 -113.534545 
L 45.708394 -114.552727 
L 45.735709 -115.570909 
L 45.762203 -116.589091 
L 45.786949 -117.607273 
L 45.809277 -118.625455 
L 45.828787 -119.643636 
L 45.845324 -120.661818 
L 45.858938 -121.68 
L 45.941062 -121.68 
L 45.941062 -121.68 
L 45.954676 -120.661818 
L 45.971213 -119.643636 
L 45.990723 -118.625455 
L 46.013051 -117.607273 
L 46.037797 -116.589091 
L 46.064291 -115.570909 
L 46.091606 -114.552727 
L 46.118595 -113.534545 
L 46.143969 -112.516364 
L 46.166403 -111.498182 
L 46.184664 -110.48 
L 46.197747 -109.461818 
L 46.205006 -108.443636 
L 46.206264 -107.425455 
L 46.201887 -106.407273 
L 46.192819 -105.389091 
L 46.180578 -104.370909 
L 46.167208 -103.352727 
L 46.155201 -102.334545 
L 46.147394 -101.316364 
L 46.146837 -100.298182 
L 46.156643 -99.28 
L 46.179813 -98.261818 
L 46.21903 -97.243636 
L 46.276427 -96.225455 
L 46.353331 -95.207273 
L 46.449997 -94.189091 
L 46.565371 -93.170909 
L 46.696908 -92.152727 
L 46.840501 -91.134545 
L 46.990555 -90.116364 
L 47.140238 -89.098182 
L 47.281911 -88.08 
L 47.407728 -87.061818 
L 47.510338 -86.043636 
L 47.583631 -85.025455 
L 47.623429 -84.007273 
L 47.628055 -82.989091 
L 47.598689 -81.970909 
L 47.539494 -80.952727 
L 47.457487 -79.934545 
L 47.362198 -78.916364 
L 47.265153 -77.898182 
L 47.179228 -76.88 
L 47.117954 -75.861818 
L 47.094767 -74.843636 
L 47.122243 -73.825455 
L 47.211301 -72.807273 
L 47.37037 -71.789091 
L 47.604539 -70.770909 
L 47.914712 -69.752727 
L 48.296861 -68.734545 
L 48.7415 -67.716364 
L 49.233507 -66.698182 
L 49.752436 -65.68 
L 50.273422 -64.661818 
L 50.768686 -63.643636 
L 51.209572 -62.625455 
L 51.568932 -61.607273 
L 51.823608 -60.589091 
L 51.956672 -59.570909 
L 51.959146 -58.552727 
L 51.830939 -57.534545 
L 51.580868 -56.516364 
L 51.225765 -55.498182 
L 50.788793 -54.48 
L 50.297221 -53.461818 
L 49.779958 -52.443636 
L 49.265157 -51.425455 
L 48.778157 -50.407273 
L 48.339937 -49.389091 
L 47.966168 -48.370909 
L 47.666837 -47.352727 
L 47.446365 -46.334545 
L 47.30407 -45.316364 
L 47.234859 -44.298182 
L 47.230018 -43.28 
L 47.278055 -42.261818 
L 47.365523 -41.243636 
L 47.477863 -40.225455 
L 47.600232 -39.207273 
L 47.718351 -38.189091 
L 47.819325 -37.170909 
L 47.892405 -36.152727 
L 47.929625 -35.134545 
L 47.926232 -34.116364 
L 47.880868 -33.098182 
L 47.795446 -32.08 
L 47.674748 -31.061818 
L 47.525776 -30.043636 
L 47.356939 -29.025455 
L 47.177187 -28.007273 
L 46.995179 -26.989091 
L 46.818598 -25.970909 
L 46.653651 -24.952727 
L 46.504806 -23.934545 
L 46.374747 -22.916364 
L 46.264508 -21.898182 
L 46.173747 -20.88 
z
" id="m9990217ee5" style="stroke:#262626;stroke-width:0.75;"/>
    </defs>
    <g clip-path="url(#p5ef172aea5)">
     <use style="fill:#7f9dd2;stroke:#262626;stroke-width:0.75;" x="0" xlink:href="#m9990217ee5" y="144"/>
    </g>
   </g>
   <g id="PolyCollection_2">
    <defs>
     <path d="M 104.779099 -30.963287 
L 98.620901 -30.963287 
L 94.844552 -31.777766 
L 89.246685 -32.592245 
L 83.242575 -33.406724 
L 79.38 -34.221203 
L 79.678128 -35.035682 
L 83.972348 -35.850161 
L 90.056457 -36.66464 
L 95.46041 -37.479119 
L 98.971877 -38.293598 
L 100.726785 -39.108077 
L 101.416737 -39.922557 
L 101.632732 -40.737036 
L 101.686966 -41.551515 
L 101.69794 -42.365994 
L 101.699734 -43.180473 
L 101.699972 -43.994952 
L 101.699998 -44.809431 
L 101.7 -45.62391 
L 101.7 -46.438389 
L 101.7 -47.252868 
L 101.7 -48.067347 
L 101.699999 -48.881826 
L 101.69999 -49.696305 
L 101.699903 -50.510784 
L 101.699263 -51.325263 
L 101.695421 -52.139742 
L 101.676786 -52.954221 
L 101.603986 -53.7687 
L 101.375983 -54.583179 
L 100.807854 -55.397659 
L 99.695798 -56.212138 
L 98.026466 -57.026617 
L 96.206318 -57.841096 
L 94.996835 -58.655575 
L 95.026814 -59.470054 
L 96.279697 -60.284533 
L 98.10788 -61.099012 
L 99.757706 -61.913491 
L 100.843128 -62.72797 
L 101.391572 -63.542449 
L 101.609421 -64.356928 
L 101.678296 -65.171407 
L 101.695757 -65.985886 
L 101.699323 -66.800365 
L 101.699912 -67.614844 
L 101.699991 -68.429323 
L 101.699999 -69.243802 
L 101.7 -70.058281 
L 101.7 -70.87276 
L 101.7 -71.68724 
L 101.7 -72.501719 
L 101.699999 -73.316198 
L 101.699992 -74.130677 
L 101.699923 -74.945156 
L 101.699408 -75.759635 
L 101.696286 -76.574114 
L 101.681004 -77.388593 
L 101.620723 -78.203072 
L 101.430057 -79.017551 
L 100.950047 -79.83203 
L 100.000062 -80.646509 
L 98.5561 -81.460988 
L 96.956034 -82.275467 
L 95.859484 -83.089946 
L 95.833246 -83.904425 
L 96.891811 -84.718904 
L 98.484844 -85.533383 
L 99.945879 -86.347862 
L 100.919174 -87.162341 
L 101.416414 -87.976821 
L 101.615966 -88.7913 
L 101.679683 -89.605779 
L 101.695992 -90.420258 
L 101.699355 -91.234737 
L 101.699915 -92.049216 
L 101.699991 -92.863695 
L 101.699999 -93.678174 
L 101.7 -94.492653 
L 101.7 -95.307132 
L 101.7 -96.121611 
L 101.7 -96.93609 
L 101.7 -97.750569 
L 101.699997 -98.565048 
L 101.699968 -99.379527 
L 101.699752 -100.194006 
L 101.698433 -101.008485 
L 101.691914 -101.822964 
L 101.665949 -102.637443 
L 101.583008 -103.451923 
L 101.372049 -104.266402 
L 100.94993 -105.080881 
L 100.300313 -105.89536 
L 99.568934 -106.709839 
L 99.05272 -107.524318 
L 99.016881 -108.338797 
L 99.481207 -109.153276 
L 100.202969 -109.967755 
L 100.875897 -110.782234 
L 101.329857 -111.596713 
L 102.070143 -111.596713 
L 102.070143 -111.596713 
L 102.524103 -110.782234 
L 103.197031 -109.967755 
L 103.918793 -109.153276 
L 104.383119 -108.338797 
L 104.34728 -107.524318 
L 103.831066 -106.709839 
L 103.099687 -105.89536 
L 102.45007 -105.080881 
L 102.027951 -104.266402 
L 101.816992 -103.451923 
L 101.734051 -102.637443 
L 101.708086 -101.822964 
L 101.701567 -101.008485 
L 101.700248 -100.194006 
L 101.700032 -99.379527 
L 101.700003 -98.565048 
L 101.7 -97.750569 
L 101.7 -96.93609 
L 101.7 -96.121611 
L 101.7 -95.307132 
L 101.7 -94.492653 
L 101.700001 -93.678174 
L 101.700009 -92.863695 
L 101.700085 -92.049216 
L 101.700645 -91.234737 
L 101.704008 -90.420258 
L 101.720317 -89.605779 
L 101.784034 -88.7913 
L 101.983586 -87.976821 
L 102.480826 -87.162341 
L 103.454121 -86.347862 
L 104.915156 -85.533383 
L 106.508189 -84.718904 
L 107.566754 -83.904425 
L 107.540516 -83.089946 
L 106.443966 -82.275467 
L 104.8439 -81.460988 
L 103.399938 -80.646509 
L 102.449953 -79.83203 
L 101.969943 -79.017551 
L 101.779277 -78.203072 
L 101.718996 -77.388593 
L 101.703714 -76.574114 
L 101.700592 -75.759635 
L 101.700077 -74.945156 
L 101.700008 -74.130677 
L 101.700001 -73.316198 
L 101.7 -72.501719 
L 101.7 -71.68724 
L 101.7 -70.87276 
L 101.7 -70.058281 
L 101.700001 -69.243802 
L 101.700009 -68.429323 
L 101.700088 -67.614844 
L 101.700677 -66.800365 
L 101.704243 -65.985886 
L 101.721704 -65.171407 
L 101.790579 -64.356928 
L 102.008428 -63.542449 
L 102.556872 -62.72797 
L 103.642294 -61.913491 
L 105.29212 -61.099012 
L 107.120303 -60.284533 
L 108.373186 -59.470054 
L 108.403165 -58.655575 
L 107.193682 -57.841096 
L 105.373534 -57.026617 
L 103.704202 -56.212138 
L 102.592146 -55.397659 
L 102.024017 -54.583179 
L 101.796014 -53.7687 
L 101.723214 -52.954221 
L 101.704579 -52.139742 
L 101.700737 -51.325263 
L 101.700097 -50.510784 
L 101.70001 -49.696305 
L 101.700001 -48.881826 
L 101.7 -48.067347 
L 101.7 -47.252868 
L 101.7 -46.438389 
L 101.7 -45.62391 
L 101.700002 -44.809431 
L 101.700028 -43.994952 
L 101.700266 -43.180473 
L 101.70206 -42.365994 
L 101.713034 -41.551515 
L 101.767268 -40.737036 
L 101.983263 -39.922557 
L 102.673215 -39.108077 
L 104.428123 -38.293598 
L 107.93959 -37.479119 
L 113.343543 -36.66464 
L 119.427652 -35.850161 
L 123.721872 -35.035682 
L 124.02 -34.221203 
L 120.157425 -33.406724 
L 114.153315 -32.592245 
L 108.555448 -31.777766 
L 104.779099 -30.963287 
z
" id="md13a0e4668" style="stroke:#262626;stroke-width:0.75;"/>
    </defs>
    <g clip-path="url(#p5ef172aea5)">
     <use style="fill:#1a1a66;stroke:#262626;stroke-width:0.75;" x="0" xlink:href="#md13a0e4668" y="144"/>
    </g>
   </g>
   <g id="line2d_1">
    <path clip-path="url(#p5ef172aea5)" d="M 45.9 84.955129 
L 45.9 84.955129 
" style="fill:none;stroke:#262626;stroke-linecap:round;stroke-width:0.75;"/>
   </g>
   <g id="line2d_2">
    <path clip-path="url(#p5ef172aea5)" d="M 45.9 84.955129 
L 45.9 84.955129 
" style="fill:none;stroke:#262626;stroke-linecap:round;stroke-width:2.25;"/>
   </g>
   <g id="line2d_3">
    <path clip-path="url(#p5ef172aea5)" d="M 101.7 109.425387 
L 101.7 60.484871 
" style="fill:none;stroke:#262626;stroke-linecap:round;stroke-width:0.75;"/>
   </g>
   <g id="line2d_4">
    <path clip-path="url(#p5ef172aea5)" d="M 101.7 109.425387 
L 101.7 84.955129 
" style="fill:none;stroke:#262626;stroke-linecap:round;stroke-width:2.25;"/>
   </g>
   <g id="patch_3">
    <path d="M 18 128.16 
L 18 17.28 
" style="fill:none;stroke:#262626;stroke-linecap:square;stroke-linejoin:miter;stroke-width:0.8;"/>
   </g>
   <g id="patch_4">
    <path d="M 18 128.16 
L 129.6 128.16 
" style="fill:none;stroke:#262626;stroke-linecap:square;stroke-linejoin:miter;stroke-width:0.8;"/>
   </g>
   <g id="PathCollection_1">
    <defs>
     <path d="M 0 0.75 
C 0.198902 0.75 0.389685 0.670975 0.53033 0.53033 
C 0.670975 0.389685 0.75 0.198902 0.75 0 
C 0.75 -0.198902 0.670975 -0.389685 0.53033 -0.53033 
C 0.389685 -0.670975 0.198902 -0.75 0 -0.75 
C -0.198902 -0.75 -0.389685 -0.670975 -0.53033 -0.53033 
C -0.670975 -0.389685 -0.75 -0.198902 -0.75 0 
C -0.75 0.198902 -0.670975 0.389685 -0.53033 0.53033 
C -0.389685 0.670975 -0.198902 0.75 0 0.75 
z
" id="me5f6a674d7" style="stroke:#262626;"/>
    </defs>
    <g clip-path="url(#p5ef172aea5)">
     <use style="fill:#ffffff;stroke:#262626;" x="45.9" xlink:href="#me5f6a674d7" y="84.955129"/>
    </g>
   </g>
   <g id="PathCollection_2">
    <g clip-path="url(#p5ef172aea5)">
     <use style="fill:#ffffff;stroke:#262626;" x="101.7" xlink:href="#me5f6a674d7" y="109.425387"/>
    </g>
   </g>
   <g id="text_7">
    <!-- Classb -->
    <g style="fill:#262626;" transform="translate(37.12125 11.28)scale(0.24 -0.24)">
     <defs>
      <path d="M 3763 1606 
L 4369 1453 
Q 4178 706 3683 314 
Q 3188 -78 2472 -78 
Q 1731 -78 1267 223 
Q 803 525 561 1097 
Q 319 1669 319 2325 
Q 319 3041 592 3573 
Q 866 4106 1370 4382 
Q 1875 4659 2481 4659 
Q 3169 4659 3637 4309 
Q 4106 3959 4291 3325 
L 3694 3184 
Q 3534 3684 3231 3912 
Q 2928 4141 2469 4141 
Q 1941 4141 1586 3887 
Q 1231 3634 1087 3207 
Q 944 2781 944 2328 
Q 944 1744 1114 1308 
Q 1284 872 1643 656 
Q 2003 441 2422 441 
Q 2931 441 3284 734 
Q 3638 1028 3763 1606 
z
" id="ArialMT-43" transform="scale(0.015625)"/>
      <path d="M 941 0 
L 419 0 
L 419 4581 
L 981 4581 
L 981 2947 
Q 1338 3394 1891 3394 
Q 2197 3394 2470 3270 
Q 2744 3147 2920 2923 
Q 3097 2700 3197 2384 
Q 3297 2069 3297 1709 
Q 3297 856 2875 390 
Q 2453 -75 1863 -75 
Q 1275 -75 941 416 
L 941 0 
z
M 934 1684 
Q 934 1088 1097 822 
Q 1363 388 1816 388 
Q 2184 388 2453 708 
Q 2722 1028 2722 1663 
Q 2722 2313 2464 2622 
Q 2206 2931 1841 2931 
Q 1472 2931 1203 2611 
Q 934 2291 934 1684 
z
" id="ArialMT-62" transform="scale(0.015625)"/>
     </defs>
     <use xlink:href="#ArialMT-43"/>
     <use x="72.216797" xlink:href="#ArialMT-6c"/>
     <use x="94.433594" xlink:href="#ArialMT-61"/>
     <use x="150.048828" xlink:href="#ArialMT-73"/>
     <use x="200.048828" xlink:href="#ArialMT-73"/>
     <use x="250.048828" xlink:href="#ArialMT-62"/>
    </g>
   </g>
  </g>
 </g>
 <defs>
  <clipPath id="p5ef172aea5">
   <rect height="110.88" width="111.6" x="18" y="17.28"/>
  </clipPath>
 </defs>
</svg>
