<?xml version="1.0" encoding="utf-8" standalone="no"?>
<!DOCTYPE svg PUBLIC "-//W3C//DTD SVG 1.1//EN"
  "http://www.w3.org/Graphics/SVG/1.1/DTD/svg11.dtd">
<svg height="144pt" version="1.1" viewBox="0 0 144 144" width="144pt" xmlns="http://www.w3.org/2000/svg" xmlns:xlink="http://www.w3.org/1999/xlink">
 <metadata>
  <rdf:RDF xmlns:cc="http://creativecommons.org/ns#" xmlns:dc="http://purl.org/dc/elements/1.1/" xmlns:rdf="http://www.w3.org/1999/02/22-rdf-syntax-ns#">
   <cc:Work>
    <dc:type rdf:resource="http://purl.org/dc/dcmitype/StillImage"/>
    <dc:date>2022-12-21T14:50:25.513088</dc:date>
    <dc:format>image/svg+xml</dc:format>
    <dc:creator>
     <cc:Agent>
      <dc:title>Matplotlib v3.4.2, https://matplotlib.org/</dc:title>
     </cc:Agent>
    </dc:creator>
   </cc:Work>
  </rdf:RDF>
 </metadata>
 <defs>
  <style type="text/css">*{stroke-linecap:butt;stroke-linejoin:round;}</style>
 </defs>
 <g id="figure_1">
  <g id="patch_1">
   <path d="M 0 144 
L 144 144 
L 144 0 
L 0 0 
z
" style="fill:#ffffff;"/>
  </g>
  <g id="axes_1">
   <g id="patch_2">
    <path d="M 18 128.16 
L 129.6 128.16 
L 129.6 17.28 
L 18 17.28 
z
" style="fill:#ffffff;"/>
   </g>
   <g id="matplotlib.axis_1">
    <g id="xtick_1">
     <g id="text_1">
      <!-- Original -->
      <g style="fill:#262626;" transform="translate(51.08125 204.0725)rotate(-90)scale(0.2 -0.2)">
       <defs>
        <path d="M 309 2231 
Q 309 3372 921 4017 
Q 1534 4663 2503 4663 
Q 3138 4663 3647 4359 
Q 4156 4056 4423 3514 
Q 4691 2972 4691 2284 
Q 4691 1588 4409 1038 
Q 4128 488 3612 205 
Q 3097 -78 2500 -78 
Q 1853 -78 1343 234 
Q 834 547 571 1087 
Q 309 1628 309 2231 
z
M 934 2222 
Q 934 1394 1379 917 
Q 1825 441 2497 441 
Q 3181 441 3623 922 
Q 4066 1403 4066 2288 
Q 4066 2847 3877 3264 
Q 3688 3681 3323 3911 
Q 2959 4141 2506 4141 
Q 1863 4141 1398 3698 
Q 934 3256 934 2222 
z
" id="ArialMT-4f" transform="scale(0.015625)"/>
        <path d="M 416 0 
L 416 3319 
L 922 3319 
L 922 2816 
Q 1116 3169 1280 3281 
Q 1444 3394 1641 3394 
Q 1925 3394 2219 3213 
L 2025 2691 
Q 1819 2813 1613 2813 
Q 1428 2813 1281 2702 
Q 1134 2591 1072 2394 
Q 978 2094 978 1738 
L 978 0 
L 416 0 
z
" id="ArialMT-72" transform="scale(0.015625)"/>
        <path d="M 425 3934 
L 425 4581 
L 988 4581 
L 988 3934 
L 425 3934 
z
M 425 0 
L 425 3319 
L 988 3319 
L 988 0 
L 425 0 
z
" id="ArialMT-69" transform="scale(0.015625)"/>
        <path d="M 319 -275 
L 866 -356 
Q 900 -609 1056 -725 
Q 1266 -881 1628 -881 
Q 2019 -881 2231 -725 
Q 2444 -569 2519 -288 
Q 2563 -116 2559 434 
Q 2191 0 1641 0 
Q 956 0 581 494 
Q 206 988 206 1678 
Q 206 2153 378 2554 
Q 550 2956 876 3175 
Q 1203 3394 1644 3394 
Q 2231 3394 2613 2919 
L 2613 3319 
L 3131 3319 
L 3131 450 
Q 3131 -325 2973 -648 
Q 2816 -972 2473 -1159 
Q 2131 -1347 1631 -1347 
Q 1038 -1347 672 -1080 
Q 306 -813 319 -275 
z
M 784 1719 
Q 784 1066 1043 766 
Q 1303 466 1694 466 
Q 2081 466 2343 764 
Q 2606 1063 2606 1700 
Q 2606 2309 2336 2618 
Q 2066 2928 1684 2928 
Q 1309 2928 1046 2623 
Q 784 2319 784 1719 
z
" id="ArialMT-67" transform="scale(0.015625)"/>
        <path d="M 422 0 
L 422 3319 
L 928 3319 
L 928 2847 
Q 1294 3394 1984 3394 
Q 2284 3394 2536 3286 
Q 2788 3178 2913 3003 
Q 3038 2828 3088 2588 
Q 3119 2431 3119 2041 
L 3119 0 
L 2556 0 
L 2556 2019 
Q 2556 2363 2490 2533 
Q 2425 2703 2258 2804 
Q 2091 2906 1866 2906 
Q 1506 2906 1245 2678 
Q 984 2450 984 1813 
L 984 0 
L 422 0 
z
" id="ArialMT-6e" transform="scale(0.015625)"/>
        <path d="M 2588 409 
Q 2275 144 1986 34 
Q 1697 -75 1366 -75 
Q 819 -75 525 192 
Q 231 459 231 875 
Q 231 1119 342 1320 
Q 453 1522 633 1644 
Q 813 1766 1038 1828 
Q 1203 1872 1538 1913 
Q 2219 1994 2541 2106 
Q 2544 2222 2544 2253 
Q 2544 2597 2384 2738 
Q 2169 2928 1744 2928 
Q 1347 2928 1158 2789 
Q 969 2650 878 2297 
L 328 2372 
Q 403 2725 575 2942 
Q 747 3159 1072 3276 
Q 1397 3394 1825 3394 
Q 2250 3394 2515 3294 
Q 2781 3194 2906 3042 
Q 3031 2891 3081 2659 
Q 3109 2516 3109 2141 
L 3109 1391 
Q 3109 606 3145 398 
Q 3181 191 3288 0 
L 2700 0 
Q 2613 175 2588 409 
z
M 2541 1666 
Q 2234 1541 1622 1453 
Q 1275 1403 1131 1340 
Q 988 1278 909 1158 
Q 831 1038 831 891 
Q 831 666 1001 516 
Q 1172 366 1500 366 
Q 1825 366 2078 508 
Q 2331 650 2450 897 
Q 2541 1088 2541 1459 
L 2541 1666 
z
" id="ArialMT-61" transform="scale(0.015625)"/>
        <path d="M 409 0 
L 409 4581 
L 972 4581 
L 972 0 
L 409 0 
z
" id="ArialMT-6c" transform="scale(0.015625)"/>
       </defs>
       <use xlink:href="#ArialMT-4f"/>
       <use x="77.783203" xlink:href="#ArialMT-72"/>
       <use x="111.083984" xlink:href="#ArialMT-69"/>
       <use x="133.300781" xlink:href="#ArialMT-67"/>
       <use x="188.916016" xlink:href="#ArialMT-69"/>
       <use x="211.132812" xlink:href="#ArialMT-6e"/>
       <use x="266.748047" xlink:href="#ArialMT-61"/>
       <use x="322.363281" xlink:href="#ArialMT-6c"/>
      </g>
     </g>
    </g>
    <g id="xtick_2">
     <g id="text_2">
      <!-- Mutated -->
      <g style="fill:#262626;" transform="translate(106.870312 207.419375)rotate(-90)scale(0.2 -0.2)">
       <defs>
        <path d="M 475 0 
L 475 4581 
L 1388 4581 
L 2472 1338 
Q 2622 884 2691 659 
Q 2769 909 2934 1394 
L 4031 4581 
L 4847 4581 
L 4847 0 
L 4263 0 
L 4263 3834 
L 2931 0 
L 2384 0 
L 1059 3900 
L 1059 0 
L 475 0 
z
" id="ArialMT-4d" transform="scale(0.015625)"/>
        <path d="M 2597 0 
L 2597 488 
Q 2209 -75 1544 -75 
Q 1250 -75 995 37 
Q 741 150 617 320 
Q 494 491 444 738 
Q 409 903 409 1263 
L 409 3319 
L 972 3319 
L 972 1478 
Q 972 1038 1006 884 
Q 1059 663 1231 536 
Q 1403 409 1656 409 
Q 1909 409 2131 539 
Q 2353 669 2445 892 
Q 2538 1116 2538 1541 
L 2538 3319 
L 3100 3319 
L 3100 0 
L 2597 0 
z
" id="ArialMT-75" transform="scale(0.015625)"/>
        <path d="M 1650 503 
L 1731 6 
Q 1494 -44 1306 -44 
Q 1000 -44 831 53 
Q 663 150 594 308 
Q 525 466 525 972 
L 525 2881 
L 113 2881 
L 113 3319 
L 525 3319 
L 525 4141 
L 1084 4478 
L 1084 3319 
L 1650 3319 
L 1650 2881 
L 1084 2881 
L 1084 941 
Q 1084 700 1114 631 
Q 1144 563 1211 522 
Q 1278 481 1403 481 
Q 1497 481 1650 503 
z
" id="ArialMT-74" transform="scale(0.015625)"/>
        <path d="M 2694 1069 
L 3275 997 
Q 3138 488 2766 206 
Q 2394 -75 1816 -75 
Q 1088 -75 661 373 
Q 234 822 234 1631 
Q 234 2469 665 2931 
Q 1097 3394 1784 3394 
Q 2450 3394 2872 2941 
Q 3294 2488 3294 1666 
Q 3294 1616 3291 1516 
L 816 1516 
Q 847 969 1125 678 
Q 1403 388 1819 388 
Q 2128 388 2347 550 
Q 2566 713 2694 1069 
z
M 847 1978 
L 2700 1978 
Q 2663 2397 2488 2606 
Q 2219 2931 1791 2931 
Q 1403 2931 1139 2672 
Q 875 2413 847 1978 
z
" id="ArialMT-65" transform="scale(0.015625)"/>
        <path d="M 2575 0 
L 2575 419 
Q 2259 -75 1647 -75 
Q 1250 -75 917 144 
Q 584 363 401 755 
Q 219 1147 219 1656 
Q 219 2153 384 2558 
Q 550 2963 881 3178 
Q 1213 3394 1622 3394 
Q 1922 3394 2156 3267 
Q 2391 3141 2538 2938 
L 2538 4581 
L 3097 4581 
L 3097 0 
L 2575 0 
z
M 797 1656 
Q 797 1019 1065 703 
Q 1334 388 1700 388 
Q 2069 388 2326 689 
Q 2584 991 2584 1609 
Q 2584 2291 2321 2609 
Q 2059 2928 1675 2928 
Q 1300 2928 1048 2622 
Q 797 2316 797 1656 
z
" id="ArialMT-64" transform="scale(0.015625)"/>
       </defs>
       <use xlink:href="#ArialMT-4d"/>
       <use x="83.300781" xlink:href="#ArialMT-75"/>
       <use x="138.916016" xlink:href="#ArialMT-74"/>
       <use x="166.699219" xlink:href="#ArialMT-61"/>
       <use x="222.314453" xlink:href="#ArialMT-74"/>
       <use x="250.097656" xlink:href="#ArialMT-65"/>
       <use x="305.712891" xlink:href="#ArialMT-64"/>
      </g>
     </g>
    </g>
    <g id="text_3">
     <!-- Method -->
     <g style="fill:#262626;" transform="translate(40.448437 225.735)scale(0.2 -0.2)">
      <defs>
       <path d="M 422 0 
L 422 4581 
L 984 4581 
L 984 2938 
Q 1378 3394 1978 3394 
Q 2347 3394 2619 3248 
Q 2891 3103 3008 2847 
Q 3125 2591 3125 2103 
L 3125 0 
L 2563 0 
L 2563 2103 
Q 2563 2525 2380 2717 
Q 2197 2909 1863 2909 
Q 1613 2909 1392 2779 
Q 1172 2650 1078 2428 
Q 984 2206 984 1816 
L 984 0 
L 422 0 
z
" id="ArialMT-68" transform="scale(0.015625)"/>
       <path d="M 213 1659 
Q 213 2581 725 3025 
Q 1153 3394 1769 3394 
Q 2453 3394 2887 2945 
Q 3322 2497 3322 1706 
Q 3322 1066 3130 698 
Q 2938 331 2570 128 
Q 2203 -75 1769 -75 
Q 1072 -75 642 372 
Q 213 819 213 1659 
z
M 791 1659 
Q 791 1022 1069 705 
Q 1347 388 1769 388 
Q 2188 388 2466 706 
Q 2744 1025 2744 1678 
Q 2744 2294 2464 2611 
Q 2184 2928 1769 2928 
Q 1347 2928 1069 2612 
Q 791 2297 791 1659 
z
" id="ArialMT-6f" transform="scale(0.015625)"/>
      </defs>
      <use xlink:href="#ArialMT-4d"/>
      <use x="83.300781" xlink:href="#ArialMT-65"/>
      <use x="138.916016" xlink:href="#ArialMT-74"/>
      <use x="166.699219" xlink:href="#ArialMT-68"/>
      <use x="222.314453" xlink:href="#ArialMT-6f"/>
      <use x="277.929688" xlink:href="#ArialMT-64"/>
     </g>
    </g>
   </g>
   <g id="matplotlib.axis_2">
    <g id="ytick_1">
     <g id="text_4">
      <!-- 0.0 -->
      <g style="fill:#262626;" transform="translate(-16.8 117.083372)scale(0.2 -0.2)">
       <defs>
        <path d="M 266 2259 
Q 266 3072 433 3567 
Q 600 4063 929 4331 
Q 1259 4600 1759 4600 
Q 2128 4600 2406 4451 
Q 2684 4303 2865 4023 
Q 3047 3744 3150 3342 
Q 3253 2941 3253 2259 
Q 3253 1453 3087 958 
Q 2922 463 2592 192 
Q 2263 -78 1759 -78 
Q 1097 -78 719 397 
Q 266 969 266 2259 
z
M 844 2259 
Q 844 1131 1108 757 
Q 1372 384 1759 384 
Q 2147 384 2411 759 
Q 2675 1134 2675 2259 
Q 2675 3391 2411 3762 
Q 2147 4134 1753 4134 
Q 1366 4134 1134 3806 
Q 844 3388 844 2259 
z
" id="ArialMT-30" transform="scale(0.015625)"/>
        <path d="M 581 0 
L 581 641 
L 1222 641 
L 1222 0 
L 581 0 
z
" id="ArialMT-2e" transform="scale(0.015625)"/>
       </defs>
       <use xlink:href="#ArialMT-30"/>
       <use x="55.615234" xlink:href="#ArialMT-2e"/>
       <use x="83.398438" xlink:href="#ArialMT-30"/>
      </g>
     </g>
    </g>
    <g id="ytick_2">
     <g id="text_5">
      <!-- 2.5 -->
      <g style="fill:#262626;" transform="translate(-16.8 55.074106)scale(0.2 -0.2)">
       <defs>
        <path d="M 3222 541 
L 3222 0 
L 194 0 
Q 188 203 259 391 
Q 375 700 629 1000 
Q 884 1300 1366 1694 
Q 2113 2306 2375 2664 
Q 2638 3022 2638 3341 
Q 2638 3675 2398 3904 
Q 2159 4134 1775 4134 
Q 1369 4134 1125 3890 
Q 881 3647 878 3216 
L 300 3275 
Q 359 3922 746 4261 
Q 1134 4600 1788 4600 
Q 2447 4600 2831 4234 
Q 3216 3869 3216 3328 
Q 3216 3053 3103 2787 
Q 2991 2522 2730 2228 
Q 2469 1934 1863 1422 
Q 1356 997 1212 845 
Q 1069 694 975 541 
L 3222 541 
z
" id="ArialMT-32" transform="scale(0.015625)"/>
        <path d="M 266 1200 
L 856 1250 
Q 922 819 1161 601 
Q 1400 384 1738 384 
Q 2144 384 2425 690 
Q 2706 997 2706 1503 
Q 2706 1984 2436 2262 
Q 2166 2541 1728 2541 
Q 1456 2541 1237 2417 
Q 1019 2294 894 2097 
L 366 2166 
L 809 4519 
L 3088 4519 
L 3088 3981 
L 1259 3981 
L 1013 2750 
Q 1425 3038 1878 3038 
Q 2478 3038 2890 2622 
Q 3303 2206 3303 1553 
Q 3303 931 2941 478 
Q 2500 -78 1738 -78 
Q 1113 -78 717 272 
Q 322 622 266 1200 
z
" id="ArialMT-35" transform="scale(0.015625)"/>
       </defs>
       <use xlink:href="#ArialMT-32"/>
       <use x="55.615234" xlink:href="#ArialMT-2e"/>
       <use x="83.398438" xlink:href="#ArialMT-35"/>
      </g>
     </g>
    </g>
    <g id="text_6">
     <!-- Predictions -->
     <g style="fill:#262626;" transform="translate(-24.775 122.185625)rotate(-90)scale(0.2 -0.2)">
      <defs>
       <path d="M 494 0 
L 494 4581 
L 2222 4581 
Q 2678 4581 2919 4538 
Q 3256 4481 3484 4323 
Q 3713 4166 3852 3881 
Q 3991 3597 3991 3256 
Q 3991 2672 3619 2267 
Q 3247 1863 2275 1863 
L 1100 1863 
L 1100 0 
L 494 0 
z
M 1100 2403 
L 2284 2403 
Q 2872 2403 3119 2622 
Q 3366 2841 3366 3238 
Q 3366 3525 3220 3729 
Q 3075 3934 2838 4000 
Q 2684 4041 2272 4041 
L 1100 4041 
L 1100 2403 
z
" id="ArialMT-50" transform="scale(0.015625)"/>
       <path d="M 2588 1216 
L 3141 1144 
Q 3050 572 2676 248 
Q 2303 -75 1759 -75 
Q 1078 -75 664 370 
Q 250 816 250 1647 
Q 250 2184 428 2587 
Q 606 2991 970 3192 
Q 1334 3394 1763 3394 
Q 2303 3394 2647 3120 
Q 2991 2847 3088 2344 
L 2541 2259 
Q 2463 2594 2264 2762 
Q 2066 2931 1784 2931 
Q 1359 2931 1093 2626 
Q 828 2322 828 1663 
Q 828 994 1084 691 
Q 1341 388 1753 388 
Q 2084 388 2306 591 
Q 2528 794 2588 1216 
z
" id="ArialMT-63" transform="scale(0.015625)"/>
       <path d="M 197 991 
L 753 1078 
Q 800 744 1014 566 
Q 1228 388 1613 388 
Q 2000 388 2187 545 
Q 2375 703 2375 916 
Q 2375 1106 2209 1216 
Q 2094 1291 1634 1406 
Q 1016 1563 777 1677 
Q 538 1791 414 1992 
Q 291 2194 291 2438 
Q 291 2659 392 2848 
Q 494 3038 669 3163 
Q 800 3259 1026 3326 
Q 1253 3394 1513 3394 
Q 1903 3394 2198 3281 
Q 2494 3169 2634 2976 
Q 2775 2784 2828 2463 
L 2278 2388 
Q 2241 2644 2061 2787 
Q 1881 2931 1553 2931 
Q 1166 2931 1000 2803 
Q 834 2675 834 2503 
Q 834 2394 903 2306 
Q 972 2216 1119 2156 
Q 1203 2125 1616 2013 
Q 2213 1853 2448 1751 
Q 2684 1650 2818 1456 
Q 2953 1263 2953 975 
Q 2953 694 2789 445 
Q 2625 197 2315 61 
Q 2006 -75 1616 -75 
Q 969 -75 630 194 
Q 291 463 197 991 
z
" id="ArialMT-73" transform="scale(0.015625)"/>
      </defs>
      <use xlink:href="#ArialMT-50"/>
      <use x="66.699219" xlink:href="#ArialMT-72"/>
      <use x="100" xlink:href="#ArialMT-65"/>
      <use x="155.615234" xlink:href="#ArialMT-64"/>
      <use x="211.230469" xlink:href="#ArialMT-69"/>
      <use x="233.447266" xlink:href="#ArialMT-63"/>
      <use x="283.447266" xlink:href="#ArialMT-74"/>
      <use x="311.230469" xlink:href="#ArialMT-69"/>
      <use x="333.447266" xlink:href="#ArialMT-6f"/>
      <use x="389.0625" xlink:href="#ArialMT-6e"/>
      <use x="444.677734" xlink:href="#ArialMT-73"/>
     </g>
    </g>
   </g>
   <g id="PolyCollection_1">
    <defs>
     <path d="M 45.931479 -20.88 
L 45.868521 -20.88 
L 45.857646 -21.898182 
L 45.844354 -22.916364 
L 45.82861 -23.934545 
L 45.810568 -24.952727 
L 45.790601 -25.970909 
L 45.769323 -26.989091 
L 45.747571 -28.007273 
L 45.726366 -29.025455 
L 45.706834 -30.043636 
L 45.690098 -31.061818 
L 45.677156 -32.08 
L 45.668757 -33.098182 
L 45.665278 -34.116364 
L 45.666629 -35.134545 
L 45.672191 -36.152727 
L 45.680779 -37.170909 
L 45.690642 -38.189091 
L 45.69949 -39.207273 
L 45.70453 -40.225455 
L 45.702534 -41.243636 
L 45.689925 -42.261818 
L 45.662891 -43.28 
L 45.617574 -44.298182 
L 45.550309 -45.316364 
L 45.457969 -46.334545 
L 45.338371 -47.352727 
L 45.190747 -48.370909 
L 45.016209 -49.389091 
L 44.818132 -50.407273 
L 44.602376 -51.425455 
L 44.377256 -52.443636 
L 44.153195 -53.461818 
L 43.942056 -54.48 
L 43.756165 -55.498182 
L 43.60715 -56.516364 
L 43.504705 -57.534545 
L 43.455462 -58.552727 
L 43.46212 -59.570909 
L 43.522943 -60.589091 
L 43.631703 -61.607273 
L 43.77804 -62.625455 
L 43.948167 -63.643636 
L 44.125805 -64.661818 
L 44.293208 -65.68 
L 44.432179 -66.698182 
L 44.524991 -67.716364 
L 44.555236 -68.734545 
L 44.508611 -69.752727 
L 44.373731 -70.770909 
L 44.143014 -71.789091 
L 43.813655 -72.807273 
L 43.388622 -73.825455 
L 42.87753 -74.843636 
L 42.297185 -75.861818 
L 41.671562 -76.88 
L 41.031015 -77.898182 
L 40.410601 -78.916364 
L 39.847577 -79.934545 
L 39.378246 -80.952727 
L 39.034529 -81.970909 
L 38.840707 -82.989091 
L 38.810829 -84.007273 
L 38.94716 -85.025455 
L 39.239955 -86.043636 
L 39.668568 -87.061818 
L 40.203734 -88.08 
L 40.81066 -89.098182 
L 41.452474 -90.116364 
L 42.093526 -91.134545 
L 42.70217 -92.152727 
L 43.252728 -93.170909 
L 43.726554 -94.189091 
L 44.112254 -95.207273 
L 44.405224 -96.225455 
L 44.606757 -97.243636 
L 44.722948 -98.261818 
L 44.763575 -99.28 
L 44.741096 -100.298182 
L 44.669761 -101.316364 
L 44.564845 -102.334545 
L 44.441936 -103.352727 
L 44.316209 -104.370909 
L 44.201693 -105.389091 
L 44.11051 -106.407273 
L 44.052186 -107.425455 
L 44.033082 -108.443636 
L 44.05607 -109.461818 
L 44.120501 -110.48 
L 44.222498 -111.498182 
L 44.355558 -112.516364 
L 44.511377 -113.534545 
L 44.680786 -114.552727 
L 44.854686 -115.570909 
L 45.024861 -116.589091 
L 45.184568 -117.607273 
L 45.328894 -118.625455 
L 45.454833 -119.643636 
L 45.561167 -120.661818 
L 45.648173 -121.68 
L 46.151827 -121.68 
L 46.151827 -121.68 
L 46.238833 -120.661818 
L 46.345167 -119.643636 
L 46.471106 -118.625455 
L 46.615432 -117.607273 
L 46.775139 -116.589091 
L 46.945314 -115.570909 
L 47.119214 -114.552727 
L 47.288623 -113.534545 
L 47.444442 -112.516364 
L 47.577502 -111.498182 
L 47.679499 -110.48 
L 47.74393 -109.461818 
L 47.766918 -108.443636 
L 47.747814 -107.425455 
L 47.68949 -106.407273 
L 47.598307 -105.389091 
L 47.483791 -104.370909 
L 47.358064 -103.352727 
L 47.235155 -102.334545 
L 47.130239 -101.316364 
L 47.058904 -100.298182 
L 47.036425 -99.28 
L 47.077052 -98.261818 
L 47.193243 -97.243636 
L 47.394776 -96.225455 
L 47.687746 -95.207273 
L 48.073446 -94.189091 
L 48.547272 -93.170909 
L 49.09783 -92.152727 
L 49.706474 -91.134545 
L 50.347526 -90.116364 
L 50.98934 -89.098182 
L 51.596266 -88.08 
L 52.131432 -87.061818 
L 52.560045 -86.043636 
L 52.85284 -85.025455 
L 52.989171 -84.007273 
L 52.959293 -82.989091 
L 52.765471 -81.970909 
L 52.421754 -80.952727 
L 51.952423 -79.934545 
L 51.389399 -78.916364 
L 50.768985 -77.898182 
L 50.128438 -76.88 
L 49.502815 -75.861818 
L 48.92247 -74.843636 
L 48.411378 -73.825455 
L 47.986345 -72.807273 
L 47.656986 -71.789091 
L 47.426269 -70.770909 
L 47.291389 -69.752727 
L 47.244764 -68.734545 
L 47.275009 -67.716364 
L 47.367821 -66.698182 
L 47.506792 -65.68 
L 47.674195 -64.661818 
L 47.851833 -63.643636 
L 48.02196 -62.625455 
L 48.168297 -61.607273 
L 48.277057 -60.589091 
L 48.33788 -59.570909 
L 48.344538 -58.552727 
L 48.295295 -57.534545 
L 48.19285 -56.516364 
L 48.043835 -55.498182 
L 47.857944 -54.48 
L 47.646805 -53.461818 
L 47.422744 -52.443636 
L 47.197624 -51.425455 
L 46.981868 -50.407273 
L 46.783791 -49.389091 
L 46.609253 -48.370909 
L 46.461629 -47.352727 
L 46.342031 -46.334545 
L 46.249691 -45.316364 
L 46.182426 -44.298182 
L 46.137109 -43.28 
L 46.110075 -42.261818 
L 46.097466 -41.243636 
L 46.09547 -40.225455 
L 46.10051 -39.207273 
L 46.109358 -38.189091 
L 46.119221 -37.170909 
L 46.127809 -36.152727 
L 46.133371 -35.134545 
L 46.134722 -34.116364 
L 46.131243 -33.098182 
L 46.122844 -32.08 
L 46.109902 -31.061818 
L 46.093166 -30.043636 
L 46.073634 -29.025455 
L 46.052429 -28.007273 
L 46.030677 -26.989091 
L 46.009399 -25.970909 
L 45.989432 -24.952727 
L 45.97139 -23.934545 
L 45.955646 -22.916364 
L 45.942354 -21.898182 
L 45.931479 -20.88 
z
" id="m2375b3f3f4" style="stroke:#262626;stroke-width:0.75;"/>
    </defs>
    <g clip-path="url(#pa7d49af13e)">
     <use style="fill:#7f9dd2;stroke:#262626;stroke-width:0.75;" x="0" xlink:href="#m2375b3f3f4" y="144"/>
    </g>
   </g>
   <g id="PolyCollection_2">
    <defs>
     <path d="M 104.766516 -30.262024 
L 98.633484 -30.262024 
L 95.044295 -31.09067 
L 89.741593 -31.919316 
L 83.913802 -32.747962 
L 79.801045 -33.576608 
L 79.38 -34.405254 
L 82.868042 -35.2339 
L 88.546925 -36.062546 
L 94.095169 -36.891192 
L 98.060159 -37.719838 
L 100.257866 -38.548484 
L 101.227002 -39.37713 
L 101.571577 -40.205776 
L 101.671136 -41.034422 
L 101.69463 -41.863068 
L 101.699173 -42.691714 
L 101.699895 -43.52036 
L 101.699989 -44.349006 
L 101.699999 -45.177652 
L 101.7 -46.006298 
L 101.7 -46.834944 
L 101.7 -47.66359 
L 101.699998 -48.492236 
L 101.699976 -49.320882 
L 101.699807 -50.149528 
L 101.698713 -50.978174 
L 101.692906 -51.80682 
L 101.667625 -52.635466 
L 101.577692 -53.464112 
L 101.317501 -54.292758 
L 100.709774 -55.121404 
L 99.577883 -55.95005 
L 97.935262 -56.778696 
L 96.171202 -57.607341 
L 94.978641 -58.435987 
L 94.935837 -59.264633 
L 96.064902 -60.093279 
L 97.813851 -60.921925 
L 99.481457 -61.750571 
L 100.651552 -62.579217 
L 101.289837 -63.407863 
L 101.56717 -64.236509 
L 101.66439 -65.065155 
L 101.692097 -65.893801 
L 101.698548 -66.722447 
L 101.699779 -67.551093 
L 101.699972 -68.379739 
L 101.699997 -69.208385 
L 101.7 -70.037031 
L 101.7 -70.865677 
L 101.7 -71.694323 
L 101.7 -72.522969 
L 101.699997 -73.351615 
L 101.69997 -74.180261 
L 101.699764 -75.008907 
L 101.698449 -75.837553 
L 101.691559 -76.666199 
L 101.661963 -77.494845 
L 101.558116 -78.323491 
L 101.261881 -79.152137 
L 100.58009 -79.980783 
L 99.330242 -80.809429 
L 97.548973 -81.638075 
L 95.680816 -82.466721 
L 94.474794 -83.295367 
L 94.520515 -84.124013 
L 95.794361 -84.952659 
L 97.678659 -85.781304 
L 99.43324 -86.60995 
L 100.64228 -87.438596 
L 101.29143 -88.267242 
L 101.569355 -89.095888 
L 101.665418 -89.924534 
L 101.692422 -90.75318 
L 101.698625 -91.581826 
L 101.699794 -92.410472 
L 101.699974 -93.239118 
L 101.699997 -94.067764 
L 101.7 -94.89641 
L 101.7 -95.725056 
L 101.7 -96.553702 
L 101.7 -97.382348 
L 101.699998 -98.210994 
L 101.699985 -99.03964 
L 101.699879 -99.868286 
L 101.699215 -100.696932 
L 101.695782 -101.525578 
L 101.681234 -102.354224 
L 101.630881 -103.18287 
L 101.489262 -104.011516 
L 101.168112 -104.840162 
L 100.588709 -105.668808 
L 99.777947 -106.497454 
L 98.948094 -107.3261 
L 98.438387 -108.154746 
L 98.499915 -108.983392 
L 99.10091 -109.812038 
L 99.952523 -110.640684 
L 100.727405 -111.46933 
L 101.251891 -112.297976 
L 102.148109 -112.297976 
L 102.148109 -112.297976 
L 102.672595 -111.46933 
L 103.447477 -110.640684 
L 104.29909 -109.812038 
L 104.900085 -108.983392 
L 104.961613 -108.154746 
L 104.451906 -107.3261 
L 103.622053 -106.497454 
L 102.811291 -105.668808 
L 102.231888 -104.840162 
L 101.910738 -104.011516 
L 101.769119 -103.18287 
L 101.718766 -102.354224 
L 101.704218 -101.525578 
L 101.700785 -100.696932 
L 101.700121 -99.868286 
L 101.700015 -99.03964 
L 101.700002 -98.210994 
L 101.7 -97.382348 
L 101.7 -96.553702 
L 101.7 -95.725056 
L 101.7 -94.89641 
L 101.700003 -94.067764 
L 101.700026 -93.239118 
L 101.700206 -92.410472 
L 101.701375 -91.581826 
L 101.707578 -90.75318 
L 101.734582 -89.924534 
L 101.830645 -89.095888 
L 102.10857 -88.267242 
L 102.75772 -87.438596 
L 103.96676 -86.60995 
L 105.721341 -85.781304 
L 107.605639 -84.952659 
L 108.879485 -84.124013 
L 108.925206 -83.295367 
L 107.719184 -82.466721 
L 105.851027 -81.638075 
L 104.069758 -80.809429 
L 102.81991 -79.980783 
L 102.138119 -79.152137 
L 101.841884 -78.323491 
L 101.738037 -77.494845 
L 101.708441 -76.666199 
L 101.701551 -75.837553 
L 101.700236 -75.008907 
L 101.70003 -74.180261 
L 101.700003 -73.351615 
L 101.7 -72.522969 
L 101.7 -71.694323 
L 101.7 -70.865677 
L 101.7 -70.037031 
L 101.700003 -69.208385 
L 101.700028 -68.379739 
L 101.700221 -67.551093 
L 101.701452 -66.722447 
L 101.707903 -65.893801 
L 101.73561 -65.065155 
L 101.83283 -64.236509 
L 102.110163 -63.407863 
L 102.748448 -62.579217 
L 103.918543 -61.750571 
L 105.586149 -60.921925 
L 107.335098 -60.093279 
L 108.464163 -59.264633 
L 108.421359 -58.435987 
L 107.228798 -57.607341 
L 105.464738 -56.778696 
L 103.822117 -55.95005 
L 102.690226 -55.121404 
L 102.082499 -54.292758 
L 101.822308 -53.464112 
L 101.732375 -52.635466 
L 101.707094 -51.80682 
L 101.701287 -50.978174 
L 101.700193 -50.149528 
L 101.700024 -49.320882 
L 101.700002 -48.492236 
L 101.7 -47.66359 
L 101.7 -46.834944 
L 101.7 -46.006298 
L 101.700001 -45.177652 
L 101.700011 -44.349006 
L 101.700105 -43.52036 
L 101.700827 -42.691714 
L 101.70537 -41.863068 
L 101.728864 -41.034422 
L 101.828423 -40.205776 
L 102.172998 -39.37713 
L 103.142134 -38.548484 
L 105.339841 -37.719838 
L 109.304831 -36.891192 
L 114.853075 -36.062546 
L 120.531958 -35.2339 
L 124.02 -34.405254 
L 123.598955 -33.576608 
L 119.486198 -32.747962 
L 113.658407 -31.919316 
L 108.355705 -31.09067 
L 104.766516 -30.262024 
z
" id="m22e7bff67d" style="stroke:#262626;stroke-width:0.75;"/>
    </defs>
    <g clip-path="url(#pa7d49af13e)">
     <use style="fill:#1a1a66;stroke:#262626;stroke-width:0.75;" x="0" xlink:href="#m22e7bff67d" y="144"/>
    </g>
   </g>
   <g id="line2d_1">
    <path clip-path="url(#pa7d49af13e)" d="M 45.9 60.318147 
L 45.9 60.318147 
" style="fill:none;stroke:#262626;stroke-linecap:round;stroke-width:0.75;"/>
   </g>
   <g id="line2d_2">
    <path clip-path="url(#pa7d49af13e)" d="M 45.9 60.318147 
L 45.9 60.318147 
" style="fill:none;stroke:#262626;stroke-linecap:round;stroke-width:2.25;"/>
   </g>
   <g id="line2d_3">
    <path clip-path="url(#pa7d49af13e)" d="M 101.7 109.925559 
L 101.7 35.514441 
" style="fill:none;stroke:#262626;stroke-linecap:round;stroke-width:0.75;"/>
   </g>
   <g id="line2d_4">
    <path clip-path="url(#pa7d49af13e)" d="M 101.7 109.925559 
L 101.7 60.318147 
" style="fill:none;stroke:#262626;stroke-linecap:round;stroke-width:2.25;"/>
   </g>
   <g id="patch_3">
    <path d="M 18 128.16 
L 18 17.28 
" style="fill:none;stroke:#262626;stroke-linecap:square;stroke-linejoin:miter;stroke-width:0.8;"/>
   </g>
   <g id="patch_4">
    <path d="M 18 128.16 
L 129.6 128.16 
" style="fill:none;stroke:#262626;stroke-linecap:square;stroke-linejoin:miter;stroke-width:0.8;"/>
   </g>
   <g id="PathCollection_1">
    <defs>
     <path d="M 0 0.75 
C 0.198902 0.75 0.389685 0.670975 0.53033 0.53033 
C 0.670975 0.389685 0.75 0.198902 0.75 0 
C 0.75 -0.198902 0.670975 -0.389685 0.53033 -0.53033 
C 0.389685 -0.670975 0.198902 -0.75 0 -0.75 
C -0.198902 -0.75 -0.389685 -0.670975 -0.53033 -0.53033 
C -0.670975 -0.389685 -0.75 -0.198902 -0.75 0 
C -0.75 0.198902 -0.670975 0.389685 -0.53033 0.53033 
C -0.389685 0.670975 -0.198902 0.75 0 0.75 
z
" id="mb12180602e" style="stroke:#262626;"/>
    </defs>
    <g clip-path="url(#pa7d49af13e)">
     <use style="fill:#ffffff;stroke:#262626;" x="45.9" xlink:href="#mb12180602e" y="60.318147"/>
    </g>
   </g>
   <g id="PathCollection_2">
    <g clip-path="url(#pa7d49af13e)">
     <use style="fill:#ffffff;stroke:#262626;" x="101.7" xlink:href="#mb12180602e" y="109.925559"/>
    </g>
   </g>
   <g id="text_7">
    <!-- Classc -->
    <g style="fill:#262626;" transform="translate(37.794375 11.28)scale(0.24 -0.24)">
     <defs>
      <path d="M 3763 1606 
L 4369 1453 
Q 4178 706 3683 314 
Q 3188 -78 2472 -78 
Q 1731 -78 1267 223 
Q 803 525 561 1097 
Q 319 1669 319 2325 
Q 319 3041 592 3573 
Q 866 4106 1370 4382 
Q 1875 4659 2481 4659 
Q 3169 4659 3637 4309 
Q 4106 3959 4291 3325 
L 3694 3184 
Q 3534 3684 3231 3912 
Q 2928 4141 2469 4141 
Q 1941 4141 1586 3887 
Q 1231 3634 1087 3207 
Q 944 2781 944 2328 
Q 944 1744 1114 1308 
Q 1284 872 1643 656 
Q 2003 441 2422 441 
Q 2931 441 3284 734 
Q 3638 1028 3763 1606 
z
" id="ArialMT-43" transform="scale(0.015625)"/>
     </defs>
     <use xlink:href="#ArialMT-43"/>
     <use x="72.216797" xlink:href="#ArialMT-6c"/>
     <use x="94.433594" xlink:href="#ArialMT-61"/>
     <use x="150.048828" xlink:href="#ArialMT-73"/>
     <use x="200.048828" xlink:href="#ArialMT-73"/>
     <use x="250.048828" xlink:href="#ArialMT-63"/>
    </g>
   </g>
  </g>
 </g>
 <defs>
  <clipPath id="pa7d49af13e">
   <rect height="110.88" width="111.6" x="18" y="17.28"/>
  </clipPath>
 </defs>
</svg>
