<?xml version="1.0" encoding="utf-8" standalone="no"?>
<!DOCTYPE svg PUBLIC "-//W3C//DTD SVG 1.1//EN"
  "http://www.w3.org/Graphics/SVG/1.1/DTD/svg11.dtd">
<svg height="144pt" version="1.1" viewBox="0 0 144 144" width="144pt" xmlns="http://www.w3.org/2000/svg" xmlns:xlink="http://www.w3.org/1999/xlink">
 <metadata>
  <rdf:RDF xmlns:cc="http://creativecommons.org/ns#" xmlns:dc="http://purl.org/dc/elements/1.1/" xmlns:rdf="http://www.w3.org/1999/02/22-rdf-syntax-ns#">
   <cc:Work>
    <dc:type rdf:resource="http://purl.org/dc/dcmitype/StillImage"/>
    <dc:date>2022-11-07T10:51:04.885444</dc:date>
    <dc:format>image/svg+xml</dc:format>
    <dc:creator>
     <cc:Agent>
      <dc:title>Matplotlib v3.4.2, https://matplotlib.org/</dc:title>
     </cc:Agent>
    </dc:creator>
   </cc:Work>
  </rdf:RDF>
 </metadata>
 <defs>
  <style type="text/css">*{stroke-linecap:butt;stroke-linejoin:round;}</style>
 </defs>
 <g id="figure_1">
  <g id="patch_1">
   <path d="M 0 144 
L 144 144 
L 144 0 
L 0 0 
z
" style="fill:#ffffff;"/>
  </g>
  <g id="axes_1">
   <g id="patch_2">
    <path d="M 42.32 76.96 
L 133.2 76.96 
L 133.2 25.44 
L 42.32 25.44 
z
" style="fill:#ffffff;"/>
   </g>
   <g id="matplotlib.axis_1">
    <g id="xtick_1">
     <g id="text_1">
      <!-- Original -->
      <g style="fill:#262626;" transform="translate(60.057292 118.41625)rotate(-90)scale(0.1 -0.1)">
       <defs>
        <path d="M 309 2231 
Q 309 3372 921 4017 
Q 1534 4663 2503 4663 
Q 3138 4663 3647 4359 
Q 4156 4056 4423 3514 
Q 4691 2972 4691 2284 
Q 4691 1588 4409 1038 
Q 4128 488 3612 205 
Q 3097 -78 2500 -78 
Q 1853 -78 1343 234 
Q 834 547 571 1087 
Q 309 1628 309 2231 
z
M 934 2222 
Q 934 1394 1379 917 
Q 1825 441 2497 441 
Q 3181 441 3623 922 
Q 4066 1403 4066 2288 
Q 4066 2847 3877 3264 
Q 3688 3681 3323 3911 
Q 2959 4141 2506 4141 
Q 1863 4141 1398 3698 
Q 934 3256 934 2222 
z
" id="ArialMT-4f" transform="scale(0.015625)"/>
        <path d="M 416 0 
L 416 3319 
L 922 3319 
L 922 2816 
Q 1116 3169 1280 3281 
Q 1444 3394 1641 3394 
Q 1925 3394 2219 3213 
L 2025 2691 
Q 1819 2813 1613 2813 
Q 1428 2813 1281 2702 
Q 1134 2591 1072 2394 
Q 978 2094 978 1738 
L 978 0 
L 416 0 
z
" id="ArialMT-72" transform="scale(0.015625)"/>
        <path d="M 425 3934 
L 425 4581 
L 988 4581 
L 988 3934 
L 425 3934 
z
M 425 0 
L 425 3319 
L 988 3319 
L 988 0 
L 425 0 
z
" id="ArialMT-69" transform="scale(0.015625)"/>
        <path d="M 319 -275 
L 866 -356 
Q 900 -609 1056 -725 
Q 1266 -881 1628 -881 
Q 2019 -881 2231 -725 
Q 2444 -569 2519 -288 
Q 2563 -116 2559 434 
Q 2191 0 1641 0 
Q 956 0 581 494 
Q 206 988 206 1678 
Q 206 2153 378 2554 
Q 550 2956 876 3175 
Q 1203 3394 1644 3394 
Q 2231 3394 2613 2919 
L 2613 3319 
L 3131 3319 
L 3131 450 
Q 3131 -325 2973 -648 
Q 2816 -972 2473 -1159 
Q 2131 -1347 1631 -1347 
Q 1038 -1347 672 -1080 
Q 306 -813 319 -275 
z
M 784 1719 
Q 784 1066 1043 766 
Q 1303 466 1694 466 
Q 2081 466 2343 764 
Q 2606 1063 2606 1700 
Q 2606 2309 2336 2618 
Q 2066 2928 1684 2928 
Q 1309 2928 1046 2623 
Q 784 2319 784 1719 
z
" id="ArialMT-67" transform="scale(0.015625)"/>
        <path d="M 422 0 
L 422 3319 
L 928 3319 
L 928 2847 
Q 1294 3394 1984 3394 
Q 2284 3394 2536 3286 
Q 2788 3178 2913 3003 
Q 3038 2828 3088 2588 
Q 3119 2431 3119 2041 
L 3119 0 
L 2556 0 
L 2556 2019 
Q 2556 2363 2490 2533 
Q 2425 2703 2258 2804 
Q 2091 2906 1866 2906 
Q 1506 2906 1245 2678 
Q 984 2450 984 1813 
L 984 0 
L 422 0 
z
" id="ArialMT-6e" transform="scale(0.015625)"/>
        <path d="M 2588 409 
Q 2275 144 1986 34 
Q 1697 -75 1366 -75 
Q 819 -75 525 192 
Q 231 459 231 875 
Q 231 1119 342 1320 
Q 453 1522 633 1644 
Q 813 1766 1038 1828 
Q 1203 1872 1538 1913 
Q 2219 1994 2541 2106 
Q 2544 2222 2544 2253 
Q 2544 2597 2384 2738 
Q 2169 2928 1744 2928 
Q 1347 2928 1158 2789 
Q 969 2650 878 2297 
L 328 2372 
Q 403 2725 575 2942 
Q 747 3159 1072 3276 
Q 1397 3394 1825 3394 
Q 2250 3394 2515 3294 
Q 2781 3194 2906 3042 
Q 3031 2891 3081 2659 
Q 3109 2516 3109 2141 
L 3109 1391 
Q 3109 606 3145 398 
Q 3181 191 3288 0 
L 2700 0 
Q 2613 175 2588 409 
z
M 2541 1666 
Q 2234 1541 1622 1453 
Q 1275 1403 1131 1340 
Q 988 1278 909 1158 
Q 831 1038 831 891 
Q 831 666 1001 516 
Q 1172 366 1500 366 
Q 1825 366 2078 508 
Q 2331 650 2450 897 
Q 2541 1088 2541 1459 
L 2541 1666 
z
" id="ArialMT-61" transform="scale(0.015625)"/>
        <path d="M 409 0 
L 409 4581 
L 972 4581 
L 972 0 
L 409 0 
z
" id="ArialMT-6c" transform="scale(0.015625)"/>
       </defs>
       <use xlink:href="#ArialMT-4f"/>
       <use x="77.783203" xlink:href="#ArialMT-72"/>
       <use x="111.083984" xlink:href="#ArialMT-69"/>
       <use x="133.300781" xlink:href="#ArialMT-67"/>
       <use x="188.916016" xlink:href="#ArialMT-69"/>
       <use x="211.132812" xlink:href="#ArialMT-6e"/>
       <use x="266.748047" xlink:href="#ArialMT-61"/>
       <use x="322.363281" xlink:href="#ArialMT-6c"/>
      </g>
     </g>
    </g>
    <g id="xtick_2">
     <g id="text_2">
      <!-- Mutated -->
      <g style="fill:#262626;" transform="translate(90.345156 120.089687)rotate(-90)scale(0.1 -0.1)">
       <defs>
        <path d="M 475 0 
L 475 4581 
L 1388 4581 
L 2472 1338 
Q 2622 884 2691 659 
Q 2769 909 2934 1394 
L 4031 4581 
L 4847 4581 
L 4847 0 
L 4263 0 
L 4263 3834 
L 2931 0 
L 2384 0 
L 1059 3900 
L 1059 0 
L 475 0 
z
" id="ArialMT-4d" transform="scale(0.015625)"/>
        <path d="M 2597 0 
L 2597 488 
Q 2209 -75 1544 -75 
Q 1250 -75 995 37 
Q 741 150 617 320 
Q 494 491 444 738 
Q 409 903 409 1263 
L 409 3319 
L 972 3319 
L 972 1478 
Q 972 1038 1006 884 
Q 1059 663 1231 536 
Q 1403 409 1656 409 
Q 1909 409 2131 539 
Q 2353 669 2445 892 
Q 2538 1116 2538 1541 
L 2538 3319 
L 3100 3319 
L 3100 0 
L 2597 0 
z
" id="ArialMT-75" transform="scale(0.015625)"/>
        <path d="M 1650 503 
L 1731 6 
Q 1494 -44 1306 -44 
Q 1000 -44 831 53 
Q 663 150 594 308 
Q 525 466 525 972 
L 525 2881 
L 113 2881 
L 113 3319 
L 525 3319 
L 525 4141 
L 1084 4478 
L 1084 3319 
L 1650 3319 
L 1650 2881 
L 1084 2881 
L 1084 941 
Q 1084 700 1114 631 
Q 1144 563 1211 522 
Q 1278 481 1403 481 
Q 1497 481 1650 503 
z
" id="ArialMT-74" transform="scale(0.015625)"/>
        <path d="M 2694 1069 
L 3275 997 
Q 3138 488 2766 206 
Q 2394 -75 1816 -75 
Q 1088 -75 661 373 
Q 234 822 234 1631 
Q 234 2469 665 2931 
Q 1097 3394 1784 3394 
Q 2450 3394 2872 2941 
Q 3294 2488 3294 1666 
Q 3294 1616 3291 1516 
L 816 1516 
Q 847 969 1125 678 
Q 1403 388 1819 388 
Q 2128 388 2347 550 
Q 2566 713 2694 1069 
z
M 847 1978 
L 2700 1978 
Q 2663 2397 2488 2606 
Q 2219 2931 1791 2931 
Q 1403 2931 1139 2672 
Q 875 2413 847 1978 
z
" id="ArialMT-65" transform="scale(0.015625)"/>
        <path d="M 2575 0 
L 2575 419 
Q 2259 -75 1647 -75 
Q 1250 -75 917 144 
Q 584 363 401 755 
Q 219 1147 219 1656 
Q 219 2153 384 2558 
Q 550 2963 881 3178 
Q 1213 3394 1622 3394 
Q 1922 3394 2156 3267 
Q 2391 3141 2538 2938 
L 2538 4581 
L 3097 4581 
L 3097 0 
L 2575 0 
z
M 797 1656 
Q 797 1019 1065 703 
Q 1334 388 1700 388 
Q 2069 388 2326 689 
Q 2584 991 2584 1609 
Q 2584 2291 2321 2609 
Q 2059 2928 1675 2928 
Q 1300 2928 1048 2622 
Q 797 2316 797 1656 
z
" id="ArialMT-64" transform="scale(0.015625)"/>
       </defs>
       <use xlink:href="#ArialMT-4d"/>
       <use x="83.300781" xlink:href="#ArialMT-75"/>
       <use x="138.916016" xlink:href="#ArialMT-74"/>
       <use x="166.699219" xlink:href="#ArialMT-61"/>
       <use x="222.314453" xlink:href="#ArialMT-74"/>
       <use x="250.097656" xlink:href="#ArialMT-65"/>
       <use x="305.712891" xlink:href="#ArialMT-64"/>
      </g>
     </g>
    </g>
    <g id="xtick_3">
     <g id="text_3">
      <!-- STORM -->
      <g style="fill:#262626;" transform="translate(120.63849 119.892812)rotate(-90)scale(0.1 -0.1)">
       <defs>
        <path d="M 288 1472 
L 859 1522 
Q 900 1178 1048 958 
Q 1197 738 1509 602 
Q 1822 466 2213 466 
Q 2559 466 2825 569 
Q 3091 672 3220 851 
Q 3350 1031 3350 1244 
Q 3350 1459 3225 1620 
Q 3100 1781 2813 1891 
Q 2628 1963 1997 2114 
Q 1366 2266 1113 2400 
Q 784 2572 623 2826 
Q 463 3081 463 3397 
Q 463 3744 659 4045 
Q 856 4347 1234 4503 
Q 1613 4659 2075 4659 
Q 2584 4659 2973 4495 
Q 3363 4331 3572 4012 
Q 3781 3694 3797 3291 
L 3216 3247 
Q 3169 3681 2898 3903 
Q 2628 4125 2100 4125 
Q 1550 4125 1298 3923 
Q 1047 3722 1047 3438 
Q 1047 3191 1225 3031 
Q 1400 2872 2139 2705 
Q 2878 2538 3153 2413 
Q 3553 2228 3743 1945 
Q 3934 1663 3934 1294 
Q 3934 928 3725 604 
Q 3516 281 3123 101 
Q 2731 -78 2241 -78 
Q 1619 -78 1198 103 
Q 778 284 539 648 
Q 300 1013 288 1472 
z
" id="ArialMT-53" transform="scale(0.015625)"/>
        <path d="M 1659 0 
L 1659 4041 
L 150 4041 
L 150 4581 
L 3781 4581 
L 3781 4041 
L 2266 4041 
L 2266 0 
L 1659 0 
z
" id="ArialMT-54" transform="scale(0.015625)"/>
        <path d="M 503 0 
L 503 4581 
L 2534 4581 
Q 3147 4581 3465 4457 
Q 3784 4334 3975 4021 
Q 4166 3709 4166 3331 
Q 4166 2844 3850 2509 
Q 3534 2175 2875 2084 
Q 3116 1969 3241 1856 
Q 3506 1613 3744 1247 
L 4541 0 
L 3778 0 
L 3172 953 
Q 2906 1366 2734 1584 
Q 2563 1803 2427 1890 
Q 2291 1978 2150 2013 
Q 2047 2034 1813 2034 
L 1109 2034 
L 1109 0 
L 503 0 
z
M 1109 2559 
L 2413 2559 
Q 2828 2559 3062 2645 
Q 3297 2731 3419 2920 
Q 3541 3109 3541 3331 
Q 3541 3656 3305 3865 
Q 3069 4075 2559 4075 
L 1109 4075 
L 1109 2559 
z
" id="ArialMT-52" transform="scale(0.015625)"/>
       </defs>
       <use xlink:href="#ArialMT-53"/>
       <use x="66.699219" xlink:href="#ArialMT-54"/>
       <use x="126.033203" xlink:href="#ArialMT-4f"/>
       <use x="203.816406" xlink:href="#ArialMT-52"/>
       <use x="276.033203" xlink:href="#ArialMT-4d"/>
      </g>
     </g>
    </g>
    <g id="text_4">
     <!-- Method -->
     <g style="fill:#262626;" transform="translate(71.084219 131.2475)scale(0.1 -0.1)">
      <defs>
       <path d="M 422 0 
L 422 4581 
L 984 4581 
L 984 2938 
Q 1378 3394 1978 3394 
Q 2347 3394 2619 3248 
Q 2891 3103 3008 2847 
Q 3125 2591 3125 2103 
L 3125 0 
L 2563 0 
L 2563 2103 
Q 2563 2525 2380 2717 
Q 2197 2909 1863 2909 
Q 1613 2909 1392 2779 
Q 1172 2650 1078 2428 
Q 984 2206 984 1816 
L 984 0 
L 422 0 
z
" id="ArialMT-68" transform="scale(0.015625)"/>
       <path d="M 213 1659 
Q 213 2581 725 3025 
Q 1153 3394 1769 3394 
Q 2453 3394 2887 2945 
Q 3322 2497 3322 1706 
Q 3322 1066 3130 698 
Q 2938 331 2570 128 
Q 2203 -75 1769 -75 
Q 1072 -75 642 372 
Q 213 819 213 1659 
z
M 791 1659 
Q 791 1022 1069 705 
Q 1347 388 1769 388 
Q 2188 388 2466 706 
Q 2744 1025 2744 1678 
Q 2744 2294 2464 2611 
Q 2184 2928 1769 2928 
Q 1347 2928 1069 2612 
Q 791 2297 791 1659 
z
" id="ArialMT-6f" transform="scale(0.015625)"/>
      </defs>
      <use xlink:href="#ArialMT-4d"/>
      <use x="83.300781" xlink:href="#ArialMT-65"/>
      <use x="138.916016" xlink:href="#ArialMT-74"/>
      <use x="166.699219" xlink:href="#ArialMT-68"/>
      <use x="222.314453" xlink:href="#ArialMT-6f"/>
      <use x="277.929688" xlink:href="#ArialMT-64"/>
     </g>
    </g>
   </g>
   <g id="matplotlib.axis_2">
    <g id="ytick_1">
     <g id="text_5">
      <!-- −2.5 -->
      <g style="fill:#262626;" transform="translate(15.579375 71.482277)scale(0.1 -0.1)">
       <defs>
        <path d="M 3381 1997 
L 356 1997 
L 356 2522 
L 3381 2522 
L 3381 1997 
z
" id="ArialMT-2212" transform="scale(0.015625)"/>
        <path d="M 3222 541 
L 3222 0 
L 194 0 
Q 188 203 259 391 
Q 375 700 629 1000 
Q 884 1300 1366 1694 
Q 2113 2306 2375 2664 
Q 2638 3022 2638 3341 
Q 2638 3675 2398 3904 
Q 2159 4134 1775 4134 
Q 1369 4134 1125 3890 
Q 881 3647 878 3216 
L 300 3275 
Q 359 3922 746 4261 
Q 1134 4600 1788 4600 
Q 2447 4600 2831 4234 
Q 3216 3869 3216 3328 
Q 3216 3053 3103 2787 
Q 2991 2522 2730 2228 
Q 2469 1934 1863 1422 
Q 1356 997 1212 845 
Q 1069 694 975 541 
L 3222 541 
z
" id="ArialMT-32" transform="scale(0.015625)"/>
        <path d="M 581 0 
L 581 641 
L 1222 641 
L 1222 0 
L 581 0 
z
" id="ArialMT-2e" transform="scale(0.015625)"/>
        <path d="M 266 1200 
L 856 1250 
Q 922 819 1161 601 
Q 1400 384 1738 384 
Q 2144 384 2425 690 
Q 2706 997 2706 1503 
Q 2706 1984 2436 2262 
Q 2166 2541 1728 2541 
Q 1456 2541 1237 2417 
Q 1019 2294 894 2097 
L 366 2166 
L 809 4519 
L 3088 4519 
L 3088 3981 
L 1259 3981 
L 1013 2750 
Q 1425 3038 1878 3038 
Q 2478 3038 2890 2622 
Q 3303 2206 3303 1553 
Q 3303 931 2941 478 
Q 2500 -78 1738 -78 
Q 1113 -78 717 272 
Q 322 622 266 1200 
z
" id="ArialMT-35" transform="scale(0.015625)"/>
       </defs>
       <use xlink:href="#ArialMT-2212"/>
       <use x="58.398438" xlink:href="#ArialMT-32"/>
       <use x="114.013672" xlink:href="#ArialMT-2e"/>
       <use x="141.796875" xlink:href="#ArialMT-35"/>
      </g>
     </g>
    </g>
    <g id="ytick_2">
     <g id="text_6">
      <!-- 0.0 -->
      <g style="fill:#262626;" transform="translate(21.42 53.244247)scale(0.1 -0.1)">
       <defs>
        <path d="M 266 2259 
Q 266 3072 433 3567 
Q 600 4063 929 4331 
Q 1259 4600 1759 4600 
Q 2128 4600 2406 4451 
Q 2684 4303 2865 4023 
Q 3047 3744 3150 3342 
Q 3253 2941 3253 2259 
Q 3253 1453 3087 958 
Q 2922 463 2592 192 
Q 2263 -78 1759 -78 
Q 1097 -78 719 397 
Q 266 969 266 2259 
z
M 844 2259 
Q 844 1131 1108 757 
Q 1372 384 1759 384 
Q 2147 384 2411 759 
Q 2675 1134 2675 2259 
Q 2675 3391 2411 3762 
Q 2147 4134 1753 4134 
Q 1366 4134 1134 3806 
Q 844 3388 844 2259 
z
" id="ArialMT-30" transform="scale(0.015625)"/>
       </defs>
       <use xlink:href="#ArialMT-30"/>
       <use x="55.615234" xlink:href="#ArialMT-2e"/>
       <use x="83.398438" xlink:href="#ArialMT-30"/>
      </g>
     </g>
    </g>
    <g id="ytick_3">
     <g id="text_7">
      <!-- 2.5 -->
      <g style="fill:#262626;" transform="translate(21.42 35.006217)scale(0.1 -0.1)">
       <use xlink:href="#ArialMT-32"/>
       <use x="55.615234" xlink:href="#ArialMT-2e"/>
       <use x="83.398438" xlink:href="#ArialMT-35"/>
      </g>
     </g>
    </g>
    <g id="text_8">
     <!-- Predictions -->
     <g style="fill:#262626;" transform="translate(9.591875 75.932813)rotate(-90)scale(0.1 -0.1)">
      <defs>
       <path d="M 494 0 
L 494 4581 
L 2222 4581 
Q 2678 4581 2919 4538 
Q 3256 4481 3484 4323 
Q 3713 4166 3852 3881 
Q 3991 3597 3991 3256 
Q 3991 2672 3619 2267 
Q 3247 1863 2275 1863 
L 1100 1863 
L 1100 0 
L 494 0 
z
M 1100 2403 
L 2284 2403 
Q 2872 2403 3119 2622 
Q 3366 2841 3366 3238 
Q 3366 3525 3220 3729 
Q 3075 3934 2838 4000 
Q 2684 4041 2272 4041 
L 1100 4041 
L 1100 2403 
z
" id="ArialMT-50" transform="scale(0.015625)"/>
       <path d="M 2588 1216 
L 3141 1144 
Q 3050 572 2676 248 
Q 2303 -75 1759 -75 
Q 1078 -75 664 370 
Q 250 816 250 1647 
Q 250 2184 428 2587 
Q 606 2991 970 3192 
Q 1334 3394 1763 3394 
Q 2303 3394 2647 3120 
Q 2991 2847 3088 2344 
L 2541 2259 
Q 2463 2594 2264 2762 
Q 2066 2931 1784 2931 
Q 1359 2931 1093 2626 
Q 828 2322 828 1663 
Q 828 994 1084 691 
Q 1341 388 1753 388 
Q 2084 388 2306 591 
Q 2528 794 2588 1216 
z
" id="ArialMT-63" transform="scale(0.015625)"/>
       <path d="M 197 991 
L 753 1078 
Q 800 744 1014 566 
Q 1228 388 1613 388 
Q 2000 388 2187 545 
Q 2375 703 2375 916 
Q 2375 1106 2209 1216 
Q 2094 1291 1634 1406 
Q 1016 1563 777 1677 
Q 538 1791 414 1992 
Q 291 2194 291 2438 
Q 291 2659 392 2848 
Q 494 3038 669 3163 
Q 800 3259 1026 3326 
Q 1253 3394 1513 3394 
Q 1903 3394 2198 3281 
Q 2494 3169 2634 2976 
Q 2775 2784 2828 2463 
L 2278 2388 
Q 2241 2644 2061 2787 
Q 1881 2931 1553 2931 
Q 1166 2931 1000 2803 
Q 834 2675 834 2503 
Q 834 2394 903 2306 
Q 972 2216 1119 2156 
Q 1203 2125 1616 2013 
Q 2213 1853 2448 1751 
Q 2684 1650 2818 1456 
Q 2953 1263 2953 975 
Q 2953 694 2789 445 
Q 2625 197 2315 61 
Q 2006 -75 1616 -75 
Q 969 -75 630 194 
Q 291 463 197 991 
z
" id="ArialMT-73" transform="scale(0.015625)"/>
      </defs>
      <use xlink:href="#ArialMT-50"/>
      <use x="66.699219" xlink:href="#ArialMT-72"/>
      <use x="100" xlink:href="#ArialMT-65"/>
      <use x="155.615234" xlink:href="#ArialMT-64"/>
      <use x="211.230469" xlink:href="#ArialMT-69"/>
      <use x="233.447266" xlink:href="#ArialMT-63"/>
      <use x="283.447266" xlink:href="#ArialMT-74"/>
      <use x="311.230469" xlink:href="#ArialMT-69"/>
      <use x="333.447266" xlink:href="#ArialMT-6f"/>
      <use x="389.0625" xlink:href="#ArialMT-6e"/>
      <use x="444.677734" xlink:href="#ArialMT-73"/>
     </g>
    </g>
   </g>
   <g id="PolyCollection_1">
    <defs>
     <path d="M 57.507133 -74.217652 
L 57.426201 -74.217652 
L 57.412164 -74.353889 
L 57.394538 -74.490126 
L 57.372824 -74.626362 
L 57.346561 -74.762599 
L 57.315352 -74.898836 
L 57.278879 -75.035072 
L 57.236923 -75.171309 
L 57.189373 -75.307546 
L 57.136234 -75.443782 
L 57.077633 -75.580019 
L 57.013827 -75.716256 
L 56.945218 -75.852492 
L 56.872364 -75.988729 
L 56.795994 -76.124965 
L 56.717023 -76.261202 
L 56.636545 -76.397439 
L 56.555818 -76.533675 
L 56.476223 -76.669912 
L 56.399206 -76.806149 
L 56.326196 -76.942385 
L 56.258521 -77.078622 
L 56.197327 -77.214859 
L 56.143501 -77.351095 
L 56.097622 -77.487332 
L 56.059931 -77.623569 
L 56.030313 -77.759805 
L 56.008298 -77.896042 
L 55.993057 -78.032279 
L 55.983394 -78.168515 
L 55.977735 -78.304752 
L 55.974102 -78.440989 
L 55.970103 -78.577225 
L 55.962938 -78.713462 
L 55.949434 -78.849699 
L 55.92613 -78.985935 
L 55.889413 -79.122172 
L 55.835696 -79.258409 
L 55.761632 -79.394645 
L 55.664339 -79.530882 
L 55.541611 -79.667119 
L 55.392088 -79.803355 
L 55.215354 -79.939592 
L 55.011963 -80.075829 
L 54.783372 -80.212065 
L 54.531803 -80.348302 
L 54.260045 -80.484539 
L 53.971242 -80.620775 
L 53.668681 -80.757012 
L 53.355625 -80.893249 
L 53.035194 -81.029485 
L 52.71031 -81.165722 
L 52.383689 -81.301958 
L 52.057858 -81.438195 
L 51.73519 -81.574432 
L 51.417917 -81.710668 
L 51.108135 -81.846905 
L 50.807786 -81.983142 
L 50.518632 -82.119378 
L 50.242223 -82.255615 
L 49.979866 -82.391852 
L 49.732583 -82.528088 
L 49.501049 -82.664325 
L 49.285489 -82.800562 
L 49.085533 -82.936798 
L 48.900031 -83.073035 
L 48.726865 -83.209272 
L 48.562795 -83.345508 
L 48.403407 -83.481745 
L 48.243223 -83.617982 
L 48.076005 -83.754218 
L 47.895295 -83.890455 
L 47.695154 -84.026692 
L 47.471075 -84.162928 
L 47.220972 -84.299165 
L 46.946148 -84.435402 
L 46.652094 -84.571638 
L 46.349008 -84.707875 
L 46.051877 -84.844112 
L 45.780033 -84.980348 
L 45.556126 -85.116585 
L 45.404538 -85.252822 
L 45.349333 -85.389058 
L 45.41194 -85.525295 
L 45.608834 -85.661532 
L 45.949511 -85.797768 
L 46.435054 -85.934005 
L 47.057517 -86.070241 
L 47.800241 -86.206478 
L 48.639105 -86.342715 
L 49.544547 -86.478951 
L 50.484104 -86.615188 
L 51.425126 -86.751425 
L 52.337338 -86.887661 
L 53.194944 -87.023898 
L 53.978083 -87.160135 
L 54.67352 -87.296371 
L 55.274623 -87.432608 
L 55.780725 -87.568845 
L 56.196055 -87.705081 
L 58.737278 -87.705081 
L 58.737278 -87.705081 
L 59.152608 -87.568845 
L 59.658711 -87.432608 
L 60.259814 -87.296371 
L 60.95525 -87.160135 
L 61.738389 -87.023898 
L 62.595996 -86.887661 
L 63.508207 -86.751425 
L 64.449229 -86.615188 
L 65.388786 -86.478951 
L 66.294229 -86.342715 
L 67.133092 -86.206478 
L 67.875816 -86.070241 
L 68.498279 -85.934005 
L 68.983823 -85.797768 
L 69.324499 -85.661532 
L 69.521393 -85.525295 
L 69.584 -85.389058 
L 69.528795 -85.252822 
L 69.377208 -85.116585 
L 69.153301 -84.980348 
L 68.881456 -84.844112 
L 68.584325 -84.707875 
L 68.28124 -84.571638 
L 67.987186 -84.435402 
L 67.712361 -84.299165 
L 67.462259 -84.162928 
L 67.238179 -84.026692 
L 67.038038 -83.890455 
L 66.857328 -83.754218 
L 66.69011 -83.617982 
L 66.529926 -83.481745 
L 66.370538 -83.345508 
L 66.206468 -83.209272 
L 66.033302 -83.073035 
L 65.8478 -82.936798 
L 65.647844 -82.800562 
L 65.432285 -82.664325 
L 65.200751 -82.528088 
L 64.953468 -82.391852 
L 64.69111 -82.255615 
L 64.414701 -82.119378 
L 64.125547 -81.983142 
L 63.825198 -81.846905 
L 63.515416 -81.710668 
L 63.198143 -81.574432 
L 62.875475 -81.438195 
L 62.549645 -81.301958 
L 62.223023 -81.165722 
L 61.89814 -81.029485 
L 61.577708 -80.893249 
L 61.264652 -80.757012 
L 60.962091 -80.620775 
L 60.673288 -80.484539 
L 60.40153 -80.348302 
L 60.149961 -80.212065 
L 59.921371 -80.075829 
L 59.71798 -79.939592 
L 59.541246 -79.803355 
L 59.391722 -79.667119 
L 59.268994 -79.530882 
L 59.171701 -79.394645 
L 59.097637 -79.258409 
L 59.04392 -79.122172 
L 59.007203 -78.985935 
L 58.9839 -78.849699 
L 58.970395 -78.713462 
L 58.96323 -78.577225 
L 58.959232 -78.440989 
L 58.955598 -78.304752 
L 58.949939 -78.168515 
L 58.940276 -78.032279 
L 58.925035 -77.896042 
L 58.90302 -77.759805 
L 58.873402 -77.623569 
L 58.835711 -77.487332 
L 58.789833 -77.351095 
L 58.736006 -77.214859 
L 58.674812 -77.078622 
L 58.607137 -76.942385 
L 58.534127 -76.806149 
L 58.45711 -76.669912 
L 58.377515 -76.533675 
L 58.296788 -76.397439 
L 58.21631 -76.261202 
L 58.137339 -76.124965 
L 58.06097 -75.988729 
L 57.988115 -75.852492 
L 57.919506 -75.716256 
L 57.8557 -75.580019 
L 57.797099 -75.443782 
L 57.74396 -75.307546 
L 57.69641 -75.171309 
L 57.654455 -75.035072 
L 57.617982 -74.898836 
L 57.586772 -74.762599 
L 57.560509 -74.626362 
L 57.538795 -74.490126 
L 57.521169 -74.353889 
L 57.507133 -74.217652 
z
" id="m06e7f59757" style="stroke:#262626;stroke-width:0.75;"/>
    </defs>
    <g clip-path="url(#p10a6f4e888)">
     <use style="fill:#7f9dd2;stroke:#262626;stroke-width:0.75;" x="0" xlink:href="#m06e7f59757" y="144"/>
    </g>
   </g>
   <g id="PolyCollection_2">
    <defs>
     <path d="M 87.760123 -69.381818 
L 87.759877 -69.381818 
L 87.759572 -69.628027 
L 87.759179 -69.874236 
L 87.759108 -70.120444 
L 87.759169 -70.366653 
L 87.757816 -70.612862 
L 87.753175 -70.859071 
L 87.747447 -71.10528 
L 87.747128 -71.351488 
L 87.751341 -71.597697 
L 87.748642 -71.843906 
L 87.729937 -72.090115 
L 87.707138 -72.336323 
L 87.707918 -72.582532 
L 87.727499 -72.828741 
L 87.724826 -73.07495 
L 87.674582 -73.321159 
L 87.615746 -73.567367 
L 87.623316 -73.813576 
L 87.680312 -74.059785 
L 87.688685 -74.305994 
L 87.602786 -74.552202 
L 87.505156 -74.798411 
L 87.526216 -75.04462 
L 87.617726 -75.290829 
L 87.586139 -75.537037 
L 87.343476 -75.783246 
L 87.10395 -76.029455 
L 87.180089 -76.275664 
L 87.423397 -76.521873 
L 87.378354 -76.768081 
L 86.888179 -77.01429 
L 86.437647 -77.260499 
L 86.633604 -77.506708 
L 87.129575 -77.752916 
L 87.069658 -77.999125 
L 86.239487 -78.245334 
L 85.537509 -78.491543 
L 85.933124 -78.737751 
L 86.751764 -78.98396 
L 86.606238 -79.230169 
L 85.256865 -79.476378 
L 84.228781 -79.722587 
L 84.956335 -79.968795 
L 86.218013 -80.215004 
L 85.872548 -80.461213 
L 83.713361 -80.707422 
L 82.249503 -80.95363 
L 83.540651 -81.199839 
L 85.504519 -81.446048 
L 85.034663 -81.692257 
L 82.099619 -81.938465 
L 80.329801 -82.184674 
L 82.271127 -82.430883 
L 84.882055 -82.677092 
L 84.243259 -82.923301 
L 80.649037 -83.169509 
L 78.75892 -83.415718 
L 81.342556 -83.661927 
L 84.446232 -83.908136 
L 83.636796 -84.154344 
L 79.636609 -84.400553 
L 77.842046 -84.646762 
L 80.916323 -84.892971 
L 84.150894 -85.139179 
L 82.837941 -85.385388 
L 78.197421 -85.631597 
L 76.496001 -85.877806 
L 80.295094 -86.124015 
L 84.13867 -86.370223 
L 83.458695 -86.616432 
L 79.849694 -86.862641 
L 78.788189 -87.10885 
L 81.998168 -87.355058 
L 84.853504 -87.601267 
L 83.861987 -87.847476 
L 80.662983 -88.093685 
L 79.991134 -88.339893 
L 82.951842 -88.586102 
L 85.423195 -88.832311 
L 84.741003 -89.07852 
L 82.46353 -89.324729 
L 82.172323 -89.570937 
L 84.419896 -89.817146 
L 86.149869 -90.063355 
L 85.649802 -90.309564 
L 84.165109 -90.555772 
L 84.105581 -90.801981 
L 85.67222 -91.04819 
L 86.88916 -91.294399 
L 86.873963 -91.540607 
L 86.356926 -91.786816 
L 86.388903 -92.033025 
L 87.008806 -92.279234 
L 87.47753 -92.525443 
L 87.528125 -92.771651 
L 87.419166 -93.01786 
L 87.44005 -93.264069 
L 87.593463 -93.510278 
L 87.712323 -93.756486 
L 87.807677 -93.756486 
L 87.807677 -93.756486 
L 87.926537 -93.510278 
L 88.07995 -93.264069 
L 88.100834 -93.01786 
L 87.991875 -92.771651 
L 88.04247 -92.525443 
L 88.511194 -92.279234 
L 89.131097 -92.033025 
L 89.163074 -91.786816 
L 88.646037 -91.540607 
L 88.63084 -91.294399 
L 89.84778 -91.04819 
L 91.414419 -90.801981 
L 91.354891 -90.555772 
L 89.870198 -90.309564 
L 89.370131 -90.063355 
L 91.100104 -89.817146 
L 93.347677 -89.570937 
L 93.05647 -89.324729 
L 90.778997 -89.07852 
L 90.096805 -88.832311 
L 92.568158 -88.586102 
L 95.528866 -88.339893 
L 94.857017 -88.093685 
L 91.658013 -87.847476 
L 90.666496 -87.601267 
L 93.521832 -87.355058 
L 96.731811 -87.10885 
L 95.670306 -86.862641 
L 92.061305 -86.616432 
L 91.38133 -86.370223 
L 95.224906 -86.124015 
L 99.023999 -85.877806 
L 97.322579 -85.631597 
L 92.682059 -85.385388 
L 91.369106 -85.139179 
L 94.603677 -84.892971 
L 97.677954 -84.646762 
L 95.883391 -84.400553 
L 91.883204 -84.154344 
L 91.073768 -83.908136 
L 94.177444 -83.661927 
L 96.76108 -83.415718 
L 94.870963 -83.169509 
L 91.276741 -82.923301 
L 90.637945 -82.677092 
L 93.248873 -82.430883 
L 95.190199 -82.184674 
L 93.420381 -81.938465 
L 90.485337 -81.692257 
L 90.015481 -81.446048 
L 91.979349 -81.199839 
L 93.270497 -80.95363 
L 91.806639 -80.707422 
L 89.647452 -80.461213 
L 89.301987 -80.215004 
L 90.563665 -79.968795 
L 91.291219 -79.722587 
L 90.263135 -79.476378 
L 88.913762 -79.230169 
L 88.768236 -78.98396 
L 89.586876 -78.737751 
L 89.982491 -78.491543 
L 89.280513 -78.245334 
L 88.450342 -77.999125 
L 88.390425 -77.752916 
L 88.886396 -77.506708 
L 89.082353 -77.260499 
L 88.631821 -77.01429 
L 88.141646 -76.768081 
L 88.096603 -76.521873 
L 88.339911 -76.275664 
L 88.41605 -76.029455 
L 88.176524 -75.783246 
L 87.933861 -75.537037 
L 87.902274 -75.290829 
L 87.993784 -75.04462 
L 88.014844 -74.798411 
L 87.917214 -74.552202 
L 87.831315 -74.305994 
L 87.839688 -74.059785 
L 87.896684 -73.813576 
L 87.904254 -73.567367 
L 87.845418 -73.321159 
L 87.795174 -73.07495 
L 87.792501 -72.828741 
L 87.812082 -72.582532 
L 87.812862 -72.336323 
L 87.790063 -72.090115 
L 87.771358 -71.843906 
L 87.768659 -71.597697 
L 87.772872 -71.351488 
L 87.772553 -71.10528 
L 87.766825 -70.859071 
L 87.762184 -70.612862 
L 87.760831 -70.366653 
L 87.760892 -70.120444 
L 87.760821 -69.874236 
L 87.760428 -69.628027 
L 87.760123 -69.381818 
z
" id="mee9163abd3" style="stroke:#262626;stroke-width:0.75;"/>
    </defs>
    <g clip-path="url(#p10a6f4e888)">
     <use style="fill:#1a1a66;stroke:#262626;stroke-width:0.75;" x="0" xlink:href="#mee9163abd3" y="144"/>
    </g>
   </g>
   <g id="line2d_1">
    <path clip-path="url(#p10a6f4e888)" d="M 57.466667 66.686621 
L 57.466667 58.175061 
" style="fill:none;stroke:#262626;stroke-linecap:round;stroke-width:0.75;"/>
   </g>
   <g id="line2d_2">
    <path clip-path="url(#p10a6f4e888)" d="M 57.466667 61.823428 
L 57.466667 58.176187 
" style="fill:none;stroke:#262626;stroke-linecap:round;stroke-width:2.25;"/>
   </g>
   <g id="line2d_3">
    <path clip-path="url(#p10a6f4e888)" d="M 87.76 69.118247 
L 87.76 50.880144 
" style="fill:none;stroke:#262626;stroke-linecap:round;stroke-width:0.75;"/>
   </g>
   <g id="line2d_4">
    <path clip-path="url(#p10a6f4e888)" d="M 87.76 61.822969 
L 87.76 56.959449 
" style="fill:none;stroke:#262626;stroke-linecap:round;stroke-width:2.25;"/>
   </g>
   <g id="line2d_5">
    <path clip-path="url(#p10a6f4e888)" d="M 105.936 27.781818 
L 130.170667 27.781818 
" style="fill:none;stroke:#262626;stroke-linecap:round;stroke-width:0.75;"/>
   </g>
   <g id="patch_3">
    <path d="M 42.32 76.96 
L 42.32 25.44 
" style="fill:none;stroke:#262626;stroke-linecap:square;stroke-linejoin:miter;stroke-width:0.8;"/>
   </g>
   <g id="patch_4">
    <path d="M 42.32 76.96 
L 133.2 76.96 
" style="fill:none;stroke:#262626;stroke-linecap:square;stroke-linejoin:miter;stroke-width:0.8;"/>
   </g>
   <g id="PathCollection_1">
    <defs>
     <path d="M 0 0.75 
C 0.198902 0.75 0.389685 0.670975 0.53033 0.53033 
C 0.670975 0.389685 0.75 0.198902 0.75 0 
C 0.75 -0.198902 0.670975 -0.389685 0.53033 -0.53033 
C 0.389685 -0.670975 0.198902 -0.75 0 -0.75 
C -0.198902 -0.75 -0.389685 -0.670975 -0.53033 -0.53033 
C -0.670975 -0.389685 -0.75 -0.198902 -0.75 0 
C -0.75 0.198902 -0.670975 0.389685 -0.53033 0.53033 
C -0.389685 0.670975 -0.198902 0.75 0 0.75 
z
" id="me306ff2d08" style="stroke:#262626;"/>
    </defs>
    <g clip-path="url(#p10a6f4e888)">
     <use style="fill:#ffffff;stroke:#262626;" x="57.466667" xlink:href="#me306ff2d08" y="59.392573"/>
    </g>
   </g>
   <g id="PathCollection_2">
    <g clip-path="url(#p10a6f4e888)">
     <use style="fill:#ffffff;stroke:#262626;" x="87.76" xlink:href="#me306ff2d08" y="58.177214"/>
    </g>
   </g>
   <g id="text_9">
    <!-- Bottom 10% -->
    <g style="fill:#262626;" transform="translate(55.077813 19.44)scale(0.12 -0.12)">
     <defs>
      <path d="M 469 0 
L 469 4581 
L 2188 4581 
Q 2713 4581 3030 4442 
Q 3347 4303 3526 4014 
Q 3706 3725 3706 3409 
Q 3706 3116 3547 2856 
Q 3388 2597 3066 2438 
Q 3481 2316 3704 2022 
Q 3928 1728 3928 1328 
Q 3928 1006 3792 729 
Q 3656 453 3456 303 
Q 3256 153 2954 76 
Q 2653 0 2216 0 
L 469 0 
z
M 1075 2656 
L 2066 2656 
Q 2469 2656 2644 2709 
Q 2875 2778 2992 2937 
Q 3109 3097 3109 3338 
Q 3109 3566 3000 3739 
Q 2891 3913 2687 3977 
Q 2484 4041 1991 4041 
L 1075 4041 
L 1075 2656 
z
M 1075 541 
L 2216 541 
Q 2509 541 2628 563 
Q 2838 600 2978 687 
Q 3119 775 3209 942 
Q 3300 1109 3300 1328 
Q 3300 1584 3169 1773 
Q 3038 1963 2805 2039 
Q 2572 2116 2134 2116 
L 1075 2116 
L 1075 541 
z
" id="ArialMT-42" transform="scale(0.015625)"/>
      <path d="M 422 0 
L 422 3319 
L 925 3319 
L 925 2853 
Q 1081 3097 1340 3245 
Q 1600 3394 1931 3394 
Q 2300 3394 2536 3241 
Q 2772 3088 2869 2813 
Q 3263 3394 3894 3394 
Q 4388 3394 4653 3120 
Q 4919 2847 4919 2278 
L 4919 0 
L 4359 0 
L 4359 2091 
Q 4359 2428 4304 2576 
Q 4250 2725 4106 2815 
Q 3963 2906 3769 2906 
Q 3419 2906 3187 2673 
Q 2956 2441 2956 1928 
L 2956 0 
L 2394 0 
L 2394 2156 
Q 2394 2531 2256 2718 
Q 2119 2906 1806 2906 
Q 1569 2906 1367 2781 
Q 1166 2656 1075 2415 
Q 984 2175 984 1722 
L 984 0 
L 422 0 
z
" id="ArialMT-6d" transform="scale(0.015625)"/>
      <path id="ArialMT-20" transform="scale(0.015625)"/>
      <path d="M 2384 0 
L 1822 0 
L 1822 3584 
Q 1619 3391 1289 3197 
Q 959 3003 697 2906 
L 697 3450 
Q 1169 3672 1522 3987 
Q 1875 4303 2022 4600 
L 2384 4600 
L 2384 0 
z
" id="ArialMT-31" transform="scale(0.015625)"/>
      <path d="M 372 3481 
Q 372 3972 619 4315 
Q 866 4659 1334 4659 
Q 1766 4659 2048 4351 
Q 2331 4044 2331 3447 
Q 2331 2866 2045 2552 
Q 1759 2238 1341 2238 
Q 925 2238 648 2547 
Q 372 2856 372 3481 
z
M 1350 4272 
Q 1141 4272 1002 4090 
Q 863 3909 863 3425 
Q 863 2984 1003 2804 
Q 1144 2625 1350 2625 
Q 1563 2625 1702 2806 
Q 1841 2988 1841 3469 
Q 1841 3913 1700 4092 
Q 1559 4272 1350 4272 
z
M 1353 -169 
L 3859 4659 
L 4316 4659 
L 1819 -169 
L 1353 -169 
z
M 3334 1075 
Q 3334 1569 3581 1911 
Q 3828 2253 4300 2253 
Q 4731 2253 5014 1945 
Q 5297 1638 5297 1041 
Q 5297 459 5011 145 
Q 4725 -169 4303 -169 
Q 3888 -169 3611 142 
Q 3334 453 3334 1075 
z
M 4316 1866 
Q 4103 1866 3964 1684 
Q 3825 1503 3825 1019 
Q 3825 581 3965 400 
Q 4106 219 4313 219 
Q 4528 219 4667 400 
Q 4806 581 4806 1063 
Q 4806 1506 4665 1686 
Q 4525 1866 4316 1866 
z
" id="ArialMT-25" transform="scale(0.015625)"/>
     </defs>
     <use xlink:href="#ArialMT-42"/>
     <use x="66.699219" xlink:href="#ArialMT-6f"/>
     <use x="122.314453" xlink:href="#ArialMT-74"/>
     <use x="150.097656" xlink:href="#ArialMT-74"/>
     <use x="177.880859" xlink:href="#ArialMT-6f"/>
     <use x="233.496094" xlink:href="#ArialMT-6d"/>
     <use x="316.796875" xlink:href="#ArialMT-20"/>
     <use x="344.580078" xlink:href="#ArialMT-31"/>
     <use x="400.195312" xlink:href="#ArialMT-30"/>
     <use x="455.810547" xlink:href="#ArialMT-25"/>
    </g>
   </g>
  </g>
 </g>
 <defs>
  <clipPath id="p10a6f4e888">
   <rect height="51.52" width="90.88" x="42.32" y="25.44"/>
  </clipPath>
 </defs>
</svg>
