<?xml version="1.0" encoding="utf-8" standalone="no"?>
<!DOCTYPE svg PUBLIC "-//W3C//DTD SVG 1.1//EN"
  "http://www.w3.org/Graphics/SVG/1.1/DTD/svg11.dtd">
<svg height="216pt" version="1.1" viewBox="0 0 360 216" width="360pt" xmlns="http://www.w3.org/2000/svg" xmlns:xlink="http://www.w3.org/1999/xlink">
 <metadata>
  <rdf:RDF xmlns:cc="http://creativecommons.org/ns#" xmlns:dc="http://purl.org/dc/elements/1.1/" xmlns:rdf="http://www.w3.org/1999/02/22-rdf-syntax-ns#">
   <cc:Work>
    <dc:type rdf:resource="http://purl.org/dc/dcmitype/StillImage"/>
    <dc:date>2022-01-23T21:25:38.483853</dc:date>
    <dc:format>image/svg+xml</dc:format>
    <dc:creator>
     <cc:Agent>
      <dc:title>Matplotlib v3.4.2, https://matplotlib.org/</dc:title>
     </cc:Agent>
    </dc:creator>
   </cc:Work>
  </rdf:RDF>
 </metadata>
 <defs>
  <style type="text/css">*{stroke-linecap:butt;stroke-linejoin:round;}</style>
 </defs>
 <g id="figure_1">
  <g id="patch_1">
   <path d="M 0 216 
L 360 216 
L 360 0 
L 0 0 
z
" style="fill:#ffffff;"/>
  </g>
  <g id="axes_1">
   <g id="patch_2">
    <path d="M 94.94 141.64 
L 338.4 141.64 
L 338.4 28.8 
L 94.94 28.8 
z
" style="fill:#ffffff;"/>
   </g>
   <g id="line2d_1">
    <path clip-path="url(#p561f4b962e)" d="M 94.94 141.64 
L 338.4 141.64 
" style="fill:none;stroke:#000000;stroke-linecap:round;stroke-width:0.5;"/>
   </g>
   <g id="patch_3">
    <path clip-path="url(#p561f4b962e)" d="M 100.919108 124.241349 
Q 102.707589 124.241349 104.012322 125.141714 
Q 105.903081 126.434638 106.326013 129.675952 
L 104.62599 129.675952 
Q 104.313627 127.864417 103.337841 127.036082 
Q 102.362055 126.207746 100.87488 126.207746 
Q 99.114042 126.207746 97.908822 127.932845 
Q 96.703602 129.654343 96.703602 133.064925 
Q 96.703602 136.010919 97.695974 137.862069 
Q 98.69111 139.713219 100.935694 139.713219 
Q 102.655068 139.713219 103.782888 138.416694 
Q 104.910709 137.116567 104.935587 134.210189 
L 100.963337 134.210189 
L 100.963337 132.355437 
L 106.533333 132.355437 
L 106.533333 141.200622 
L 105.427627 141.200622 
L 105.012987 139.072159 
Q 104.142243 140.321866 103.467762 140.808063 
Q 102.334413 141.64 100.590161 141.64 
Q 98.337283 141.64 96.711895 139.738429 
Q 94.94 137.350662 94.94 133.187375 
Q 94.94 129.034892 96.667667 126.582298 
Q 98.309641 124.241349 100.919108 124.241349 
z
M 100.634389 124.216139 
L 100.634389 124.216139 
z
" style="fill:#ffa600;"/>
   </g>
   <g id="patch_4">
    <path clip-path="url(#p561f4b962e)" d="M 101.035611 101.889488 
Q 103.518269 101.889488 104.887718 104.013636 
Q 106.257166 106.133168 106.408062 108.829913 
L 104.682728 108.829913 
Q 104.389478 106.784265 103.512575 105.588277 
Q 102.635673 104.387671 101.052693 104.387671 
Q 99.122369 104.387671 97.935134 106.590321 
Q 96.747899 108.788354 96.747899 113.332185 
Q 96.747899 117.058681 97.818404 119.376774 
Q 98.891755 121.690249 101.018528 121.690249 
Q 102.974476 121.690249 103.999427 119.252095 
Q 104.540373 117.968371 104.807999 115.871928 
L 106.533333 115.871928 
Q 106.302719 119.219771 105.004448 121.487069 
Q 103.447092 124.216139 100.804997 124.216139 
Q 98.527328 124.216139 96.978513 121.976547 
Q 94.94 119.02121 94.94 112.842707 
Q 94.94 108.155727 96.471732 105.154212 
Q 98.125889 101.889488 101.035611 101.889488 
z
M 100.679725 101.889488 
L 100.679725 101.889488 
z
" style="fill:#0000ff;"/>
   </g>
   <g id="patch_5">
    <path clip-path="url(#p561f4b962e)" d="M 106.533333 72.698929 
L 106.533333 76.176872 
L 101.718599 76.176872 
L 101.718599 101.889488 
L 99.754735 101.889488 
L 99.754735 76.176872 
L 94.94 76.176872 
L 94.94 72.698929 
L 106.533333 72.698929 
z
" style="fill:#ff0000;"/>
   </g>
   <g id="patch_6">
    <path clip-path="url(#p561f4b962e)" d="M 102.72171 54.712895 
L 100.7494 35.321252 
L 98.652583 54.712895 
L 102.72171 54.712895 
z
M 99.829744 28.8 
L 101.819032 28.8 
L 106.533333 72.698929 
L 104.603469 72.698929 
L 103.287653 59.551243 
L 98.148894 59.551243 
L 96.742527 72.698929 
L 94.94 72.698929 
L 99.829744 28.8 
z
M 100.740911 28.8 
L 100.740911 28.8 
z
" style="fill:#008000;"/>
   </g>
   <g id="patch_7">
    <path clip-path="url(#p561f4b962e)" d="M 113.122617 128.157907 
Q 114.911097 128.157907 116.215831 128.855593 
Q 118.106589 129.857471 118.529522 132.369142 
L 116.829498 132.369142 
Q 116.517136 130.965397 115.54135 130.323525 
Q 114.565564 129.681654 113.078389 129.681654 
Q 111.317551 129.681654 110.112331 131.018421 
Q 108.907111 132.352398 108.907111 134.995234 
Q 108.907111 137.278064 109.899482 138.712508 
Q 110.894618 140.146951 113.139203 140.146951 
Q 114.858576 140.146951 115.986397 139.142282 
Q 117.114218 138.134823 117.139096 135.882691 
L 113.166845 135.882691 
L 113.166845 134.445457 
L 118.736842 134.445457 
L 118.736842 141.299529 
L 117.631136 141.299529 
L 117.216496 139.650198 
Q 116.345752 140.618587 115.671271 140.995338 
Q 114.537921 141.64 112.793669 141.64 
Q 110.540792 141.64 108.915404 140.166486 
Q 107.143509 138.316222 107.143509 135.090119 
Q 107.143509 131.872389 108.871175 129.971891 
Q 110.51315 128.157907 113.122617 128.157907 
z
M 112.837898 128.138371 
L 112.837898 128.138371 
z
" style="fill:#ffa600;"/>
   </g>
   <g id="patch_8">
    <path clip-path="url(#p561f4b962e)" d="M 113.239119 106.792278 
Q 115.721778 106.792278 117.091227 108.823137 
Q 118.460675 110.849581 118.61157 113.427889 
L 116.886236 113.427889 
Q 116.592987 111.472083 115.716084 110.328621 
Q 114.839182 109.180745 113.256202 109.180745 
Q 111.325878 109.180745 110.138643 111.286657 
Q 108.951408 113.388155 108.951408 117.732427 
Q 108.951408 121.29526 110.021913 123.511545 
Q 111.095264 125.723415 113.222037 125.723415 
Q 115.177985 125.723415 116.202936 123.392342 
Q 116.743882 122.164997 117.011508 120.160628 
L 118.736842 120.160628 
Q 118.506228 123.361438 117.207957 125.529159 
Q 115.650601 128.138371 113.008505 128.138371 
Q 110.730837 128.138371 109.182022 125.99714 
Q 107.143509 123.171597 107.143509 117.264446 
Q 107.143509 112.783312 108.675241 109.91362 
Q 110.329398 106.792278 113.239119 106.792278 
z
M 112.883234 106.792278 
L 112.883234 106.792278 
z
" style="fill:#0000ff;"/>
   </g>
   <g id="patch_9">
    <path clip-path="url(#p561f4b962e)" d="M 118.736842 73.679488 
L 118.736842 77.624749 
L 113.922107 77.624749 
L 113.922107 106.792278 
L 111.958243 106.792278 
L 111.958243 77.624749 
L 107.143509 77.624749 
L 107.143509 73.679488 
L 118.736842 73.679488 
z
" style="fill:#ff0000;"/>
   </g>
   <g id="patch_10">
    <path clip-path="url(#p561f4b962e)" d="M 114.925219 55.291704 
L 112.952909 35.466916 
L 110.856092 55.291704 
L 114.925219 55.291704 
z
M 112.033252 28.8 
L 114.022541 28.8 
L 118.736842 73.679488 
L 116.806978 73.679488 
L 115.491162 60.238125 
L 110.352403 60.238125 
L 108.946036 73.679488 
L 107.143509 73.679488 
L 112.033252 28.8 
z
M 112.94442 28.8 
L 112.94442 28.8 
z
" style="fill:#008000;"/>
   </g>
   <g id="patch_11">
    <path clip-path="url(#p561f4b962e)" d="M 125.326126 129.137046 
Q 127.114606 129.137046 128.41934 129.784063 
Q 130.310098 130.713179 130.733031 133.04244 
L 129.033007 133.04244 
Q 128.720645 131.740642 127.744859 131.145386 
Q 126.769073 130.550131 125.281898 130.550131 
Q 123.52106 130.550131 122.31584 131.789815 
Q 121.11062 133.026911 121.11062 135.477811 
Q 121.11062 137.59485 122.102991 138.925117 
Q 123.098127 140.255384 125.342711 140.255384 
Q 127.062085 140.255384 128.189906 139.32368 
Q 129.317726 138.389387 129.342605 136.300817 
L 125.370354 136.300817 
L 125.370354 134.967962 
L 130.940351 134.967962 
L 130.940351 141.324256 
L 129.834644 141.324256 
L 129.420004 139.794708 
Q 128.54926 140.692767 127.874779 141.042156 
Q 126.74143 141.64 124.997178 141.64 
Q 122.744301 141.64 121.118912 140.2735 
Q 119.347018 138.557612 119.347018 135.565806 
Q 119.347018 132.581764 121.074684 130.81929 
Q 122.716658 129.137046 125.326126 129.137046 
z
M 125.041406 129.118929 
L 125.041406 129.118929 
z
" style="fill:#ffa600;"/>
   </g>
   <g id="patch_12">
    <path clip-path="url(#p561f4b962e)" d="M 125.442628 107.772836 
Q 127.925287 107.772836 129.294735 109.803695 
Q 130.664184 111.830139 130.815079 114.408447 
L 129.089745 114.408447 
Q 128.796495 112.452641 127.919593 111.30918 
Q 127.04269 110.161303 125.459711 110.161303 
Q 123.529387 110.161303 122.342152 112.267215 
Q 121.154917 114.368713 121.154917 118.712985 
Q 121.154917 122.275818 122.225421 124.492103 
Q 123.298773 126.703973 125.425546 126.703973 
Q 127.381494 126.703973 128.406445 124.3729 
Q 128.947391 123.145555 129.215017 121.141186 
L 130.940351 121.141186 
Q 130.709737 124.341996 129.411466 126.509717 
Q 127.85411 129.118929 125.212014 129.118929 
Q 122.934346 129.118929 121.385531 126.977698 
Q 119.347018 124.152155 119.347018 118.245004 
Q 119.347018 113.76387 120.87875 110.894178 
Q 122.532907 107.772836 125.442628 107.772836 
z
M 125.086742 107.772836 
L 125.086742 107.772836 
z
" style="fill:#0000ff;"/>
   </g>
   <g id="patch_13">
    <path clip-path="url(#p561f4b962e)" d="M 130.940351 73.679488 
L 130.940351 77.741579 
L 126.125616 77.741579 
L 126.125616 107.772836 
L 124.161752 107.772836 
L 124.161752 77.741579 
L 119.347018 77.741579 
L 119.347018 73.679488 
L 130.940351 73.679488 
z
" style="fill:#ff0000;"/>
   </g>
   <g id="patch_14">
    <path clip-path="url(#p561f4b962e)" d="M 127.128728 55.291704 
L 125.156418 35.466916 
L 123.059601 55.291704 
L 127.128728 55.291704 
z
M 124.236761 28.8 
L 126.226049 28.8 
L 130.940351 73.679488 
L 129.010487 73.679488 
L 127.69467 60.238125 
L 122.555912 60.238125 
L 121.149545 73.679488 
L 119.347018 73.679488 
L 124.236761 28.8 
z
M 125.147929 28.8 
L 125.147929 28.8 
z
" style="fill:#008000;"/>
   </g>
   <g id="patch_15">
    <path clip-path="url(#p561f4b962e)" d="M 137.529635 124.241349 
Q 139.318115 124.241349 140.622849 125.141714 
Q 142.513607 126.434638 142.93654 129.675952 
L 141.236516 129.675952 
Q 140.924154 127.864417 139.948368 127.036082 
Q 138.972582 126.207746 137.485406 126.207746 
Q 135.724569 126.207746 134.519348 127.932845 
Q 133.314128 129.654343 133.314128 133.064925 
Q 133.314128 136.010919 134.3065 137.862069 
Q 135.301636 139.713219 137.54622 139.713219 
Q 139.265594 139.713219 140.393415 138.416694 
Q 141.521235 137.116567 141.546114 134.210189 
L 137.573863 134.210189 
L 137.573863 132.355437 
L 143.14386 132.355437 
L 143.14386 141.200622 
L 142.038153 141.200622 
L 141.623513 139.072159 
Q 140.752769 140.321866 140.078288 140.808063 
Q 138.944939 141.64 137.200687 141.64 
Q 134.94781 141.64 133.322421 139.738429 
Q 131.550526 137.350662 131.550526 133.187375 
Q 131.550526 129.034892 133.278193 126.582298 
Q 134.920167 124.241349 137.529635 124.241349 
z
M 137.244915 124.216139 
L 137.244915 124.216139 
z
" style="fill:#ffa600;"/>
   </g>
   <g id="patch_16">
    <path clip-path="url(#p561f4b962e)" d="M 137.646137 105.81172 
Q 140.128796 105.81172 141.498244 107.562709 
Q 142.867692 109.309892 143.018588 111.532887 
L 141.293254 111.532887 
Q 141.000004 109.846608 140.123102 108.860725 
Q 139.246199 107.871035 137.66322 107.871035 
Q 135.732895 107.871035 134.545661 109.686735 
Q 133.358426 111.498628 133.358426 115.244223 
Q 133.358426 118.316067 134.42893 120.226929 
Q 135.502281 122.133984 137.629054 122.133984 
Q 139.585002 122.133984 140.609953 120.124153 
Q 141.1509 119.065947 141.418526 117.337797 
L 143.14386 117.337797 
Q 142.913246 120.097508 141.614975 121.966499 
Q 140.057619 124.216139 137.415523 124.216139 
Q 135.137854 124.216139 133.58904 122.369987 
Q 131.550526 119.933828 131.550526 114.840734 
Q 131.550526 110.977138 133.082258 108.502914 
Q 134.736415 105.81172 137.646137 105.81172 
z
M 137.290251 105.81172 
L 137.290251 105.81172 
z
" style="fill:#0000ff;"/>
   </g>
   <g id="patch_17">
    <path clip-path="url(#p561f4b962e)" d="M 143.14386 76.621162 
L 143.14386 80.099105 
L 138.329125 80.099105 
L 138.329125 105.81172 
L 136.365261 105.81172 
L 136.365261 80.099105 
L 131.550526 80.099105 
L 131.550526 76.621162 
L 143.14386 76.621162 
z
" style="fill:#ff0000;"/>
   </g>
   <g id="patch_18">
    <path clip-path="url(#p561f4b962e)" d="M 139.332237 57.028131 
L 137.359927 35.903906 
L 135.26311 57.028131 
L 139.332237 57.028131 
z
M 136.44027 28.8 
L 138.429558 28.8 
L 143.14386 76.621162 
L 141.213996 76.621162 
L 139.898179 62.298771 
L 134.759421 62.298771 
L 133.353053 76.621162 
L 131.550526 76.621162 
L 136.44027 28.8 
z
M 137.351438 28.8 
L 137.351438 28.8 
z
" style="fill:#008000;"/>
   </g>
   <g id="patch_19">
    <path clip-path="url(#p561f4b962e)" d="M 149.733143 122.283071 
Q 151.521624 122.283071 152.826357 123.284775 
Q 154.717116 124.723222 155.140048 128.329356 
L 153.440025 128.329356 
Q 153.127662 126.313928 152.151876 125.39236 
Q 151.17609 124.470792 149.688915 124.470792 
Q 147.928077 124.470792 146.722857 126.390057 
Q 145.517637 128.305315 145.517637 132.09977 
Q 145.517637 135.377346 146.510009 137.43685 
Q 147.505145 139.496353 149.749729 139.496353 
Q 151.469103 139.496353 152.596923 138.053899 
Q 153.724744 136.607439 153.749622 133.373938 
L 149.777372 133.373938 
L 149.777372 131.310428 
L 155.347368 131.310428 
L 155.347368 141.151168 
L 154.241662 141.151168 
L 153.827022 138.78314 
Q 152.956278 140.173505 152.281797 140.714425 
Q 151.148448 141.64 149.404196 141.64 
Q 147.151319 141.64 145.52593 139.524401 
Q 143.754035 136.867882 143.754035 132.236002 
Q 143.754035 127.616143 145.481702 124.887501 
Q 147.123676 122.283071 149.733143 122.283071 
z
M 149.448424 122.255023 
L 149.448424 122.255023 
z
" style="fill:#ffa600;"/>
   </g>
   <g id="patch_20">
    <path clip-path="url(#p561f4b962e)" d="M 149.849646 100.908929 
Q 152.332305 100.908929 153.701753 102.939788 
Q 155.071201 104.966232 155.222097 107.54454 
L 153.496763 107.54454 
Q 153.203513 105.588735 152.32661 104.445273 
Q 151.449708 103.297396 149.866728 103.297396 
Q 147.936404 103.297396 146.749169 105.403309 
Q 145.561935 107.504806 145.561935 111.849078 
Q 145.561935 115.411911 146.632439 117.628196 
Q 147.70579 119.840067 149.832563 119.840067 
Q 151.788511 119.840067 152.813462 117.508994 
Q 153.354408 116.281649 153.622034 114.277279 
L 155.347368 114.277279 
Q 155.116754 117.478089 153.818483 119.645811 
Q 152.261127 122.255023 149.619032 122.255023 
Q 147.341363 122.255023 145.792549 120.113791 
Q 143.754035 117.288248 143.754035 111.381098 
Q 143.754035 106.899963 145.285767 104.030271 
Q 146.939924 100.908929 149.849646 100.908929 
z
M 149.49376 100.908929 
L 149.49376 100.908929 
z
" style="fill:#0000ff;"/>
   </g>
   <g id="patch_21">
    <path clip-path="url(#p561f4b962e)" d="M 155.347368 79.562836 
L 155.347368 82.106141 
L 150.532634 82.106141 
L 150.532634 100.908929 
L 148.56877 100.908929 
L 148.56877 82.106141 
L 143.754035 82.106141 
L 143.754035 79.562836 
L 155.347368 79.562836 
z
" style="fill:#ff0000;"/>
   </g>
   <g id="patch_22">
    <path clip-path="url(#p561f4b962e)" d="M 151.535745 58.764558 
L 149.563435 36.340896 
L 147.466618 58.764558 
L 151.535745 58.764558 
z
M 148.643779 28.8 
L 150.633067 28.8 
L 155.347368 79.562836 
L 153.417504 79.562836 
L 152.101688 64.359416 
L 146.962929 64.359416 
L 145.556562 79.562836 
L 143.754035 79.562836 
L 148.643779 28.8 
z
M 149.554946 28.8 
L 149.554946 28.8 
z
" style="fill:#008000;"/>
   </g>
   <g id="patch_23">
    <path clip-path="url(#p561f4b962e)" d="M 161.936652 128.157907 
Q 163.725132 128.157907 165.029866 128.855593 
Q 166.920624 129.857471 167.343557 132.369142 
L 165.643533 132.369142 
Q 165.331171 130.965397 164.355385 130.323525 
Q 163.379599 129.681654 161.892424 129.681654 
Q 160.131586 129.681654 158.926366 131.018421 
Q 157.721146 132.352398 157.721146 134.995234 
Q 157.721146 137.278064 158.713517 138.712508 
Q 159.708653 140.146951 161.953238 140.146951 
Q 163.672611 140.146951 164.800432 139.142282 
Q 165.928253 138.134823 165.953131 135.882691 
L 161.98088 135.882691 
L 161.98088 134.445457 
L 167.550877 134.445457 
L 167.550877 141.299529 
L 166.445171 141.299529 
L 166.030531 139.650198 
Q 165.159787 140.618587 164.485306 140.995338 
Q 163.351957 141.64 161.607704 141.64 
Q 159.354827 141.64 157.729439 140.166486 
Q 155.957544 138.316222 155.957544 135.090119 
Q 155.957544 131.872389 157.68521 129.971891 
Q 159.327185 128.157907 161.936652 128.157907 
z
M 161.651933 128.138371 
L 161.651933 128.138371 
z
" style="fill:#ffa600;"/>
   </g>
   <g id="patch_24">
    <path clip-path="url(#p561f4b962e)" d="M 162.053155 104.831162 
Q 164.535813 104.831162 165.905262 107.048601 
Q 167.27471 109.261219 167.425605 112.076402 
L 165.700271 112.076402 
Q 165.407022 109.940912 164.530119 108.692398 
Q 163.653217 107.439063 162.070237 107.439063 
Q 160.139913 107.439063 158.952678 109.73845 
Q 157.765443 112.033017 157.765443 116.776408 
Q 157.765443 120.666567 158.835948 123.086467 
Q 159.909299 125.501547 162.036072 125.501547 
Q 163.99202 125.501547 165.016971 122.956313 
Q 165.557917 121.616209 165.825543 119.427693 
L 167.550877 119.427693 
Q 167.320263 122.92257 166.021992 125.289445 
Q 164.464636 128.138371 161.822541 128.138371 
Q 159.544872 128.138371 157.996057 125.80042 
Q 155.957544 122.715287 155.957544 116.265433 
Q 155.957544 111.372606 157.489276 108.239269 
Q 159.143433 104.831162 162.053155 104.831162 
z
M 161.697269 104.831162 
L 161.697269 104.831162 
z
" style="fill:#0000ff;"/>
   </g>
   <g id="patch_25">
    <path clip-path="url(#p561f4b962e)" d="M 167.550877 70.737813 
L 167.550877 74.799905 
L 162.736143 74.799905 
L 162.736143 104.831162 
L 160.772279 104.831162 
L 160.772279 74.799905 
L 155.957544 74.799905 
L 155.957544 70.737813 
L 167.550877 70.737813 
z
" style="fill:#ff0000;"/>
   </g>
   <g id="patch_26">
    <path clip-path="url(#p561f4b962e)" d="M 163.739254 53.555276 
L 161.766944 35.029926 
L 159.670127 53.555276 
L 163.739254 53.555276 
z
M 160.847288 28.8 
L 162.836576 28.8 
L 167.550877 70.737813 
L 165.621013 70.737813 
L 164.305197 58.177479 
L 159.166438 58.177479 
L 157.760071 70.737813 
L 155.957544 70.737813 
L 160.847288 28.8 
z
M 161.758455 28.8 
L 161.758455 28.8 
z
" style="fill:#008000;"/>
   </g>
   <g id="patch_27">
    <path clip-path="url(#p561f4b962e)" d="M 174.140161 128.157907 
Q 175.928641 128.157907 177.233375 128.855593 
Q 179.124133 129.857471 179.547066 132.369142 
L 177.847042 132.369142 
Q 177.53468 130.965397 176.558894 130.323525 
Q 175.583108 129.681654 174.095933 129.681654 
Q 172.335095 129.681654 171.129875 131.018421 
Q 169.924655 132.352398 169.924655 134.995234 
Q 169.924655 137.278064 170.917026 138.712508 
Q 171.912162 140.146951 174.156746 140.146951 
Q 175.87612 140.146951 177.003941 139.142282 
Q 178.131762 138.134823 178.15664 135.882691 
L 174.184389 135.882691 
L 174.184389 134.445457 
L 179.754386 134.445457 
L 179.754386 141.299529 
L 178.648679 141.299529 
L 178.234039 139.650198 
Q 177.363296 140.618587 176.688815 140.995338 
Q 175.555465 141.64 173.811213 141.64 
Q 171.558336 141.64 169.932947 140.166486 
Q 168.161053 138.316222 168.161053 135.090119 
Q 168.161053 131.872389 169.888719 129.971891 
Q 171.530693 128.157907 174.140161 128.157907 
z
M 173.855441 128.138371 
L 173.855441 128.138371 
z
" style="fill:#ffa600;"/>
   </g>
   <g id="patch_28">
    <path clip-path="url(#p561f4b962e)" d="M 179.754386 102.870046 
L 179.754386 105.880669 
L 174.939651 105.880669 
L 174.939651 128.138371 
L 172.975787 128.138371 
L 172.975787 105.880669 
L 168.161053 105.880669 
L 168.161053 102.870046 
L 179.754386 102.870046 
z
" style="fill:#ff0000;"/>
   </g>
   <g id="patch_29">
    <path clip-path="url(#p561f4b962e)" d="M 174.256663 73.679488 
Q 176.739322 73.679488 178.10877 76.456666 
Q 179.478219 79.227807 179.629114 82.753616 
L 177.90378 82.753616 
Q 177.61053 80.079072 176.733628 78.5154 
Q 175.856726 76.945691 174.273746 76.945691 
Q 172.343422 76.945691 171.156187 79.825504 
Q 169.968952 82.699279 169.968952 88.640026 
Q 169.968952 93.512162 171.039456 96.542909 
Q 172.112808 99.567618 174.239581 99.567618 
Q 176.195529 99.567618 177.22048 96.379901 
Q 177.761426 94.701519 178.029052 91.960565 
L 179.754386 91.960565 
Q 179.523772 96.337639 178.225501 99.301975 
Q 176.668145 102.870046 174.026049 102.870046 
Q 171.748381 102.870046 170.199566 99.941934 
Q 168.161053 96.078034 168.161053 88.000067 
Q 168.161053 81.872163 169.692785 77.94789 
Q 171.346942 73.679488 174.256663 73.679488 
z
M 173.900778 73.679488 
L 173.900778 73.679488 
z
" style="fill:#0000ff;"/>
   </g>
   <g id="patch_30">
    <path clip-path="url(#p561f4b962e)" d="M 175.942763 55.291704 
L 173.970453 35.466916 
L 171.873636 55.291704 
L 175.942763 55.291704 
z
M 173.050796 28.8 
L 175.040084 28.8 
L 179.754386 73.679488 
L 177.824522 73.679488 
L 176.508705 60.238125 
L 171.369947 60.238125 
L 169.96358 73.679488 
L 168.161053 73.679488 
L 173.050796 28.8 
z
M 173.961964 28.8 
L 173.961964 28.8 
z
" style="fill:#008000;"/>
   </g>
   <g id="patch_31">
    <path clip-path="url(#p561f4b962e)" d="M 186.34367 127.178767 
Q 188.13215 127.178767 189.436884 127.927123 
Q 191.327642 129.001763 191.750575 131.695844 
L 190.050551 131.695844 
Q 189.738189 130.190152 188.762403 129.501664 
Q 187.786617 128.813177 186.299441 128.813177 
Q 184.538604 128.813177 183.333384 130.247027 
Q 182.128163 131.677884 182.128163 134.512657 
Q 182.128163 136.961278 183.120535 138.499898 
Q 184.115671 140.038518 186.360255 140.038518 
Q 188.079629 140.038518 189.20745 138.960885 
Q 190.33527 137.880259 190.360149 135.464566 
L 186.387898 135.464566 
L 186.387898 133.922952 
L 191.957895 133.922952 
L 191.957895 141.274802 
L 190.852188 141.274802 
L 190.437548 139.505688 
Q 189.566804 140.544407 188.892323 140.948519 
Q 187.758974 141.64 186.014722 141.64 
Q 183.761845 141.64 182.136456 140.059472 
Q 180.364561 138.074832 180.364561 134.614433 
Q 180.364561 131.163015 182.092228 129.124493 
Q 183.734202 127.178767 186.34367 127.178767 
z
M 186.05895 127.157813 
L 186.05895 127.157813 
z
" style="fill:#ffa600;"/>
   </g>
   <g id="patch_32">
    <path clip-path="url(#p561f4b962e)" d="M 186.460172 99.928371 
Q 188.942831 99.928371 190.312279 102.51897 
Q 191.681727 105.103936 191.832623 108.39287 
L 190.107289 108.39287 
Q 189.814039 105.898011 188.937137 104.439392 
Q 188.060234 102.97514 186.477255 102.97514 
Q 184.54693 102.97514 183.359696 105.661478 
Q 182.172461 108.342184 182.172461 113.883812 
Q 182.172461 118.428623 183.242965 121.255754 
Q 184.316316 124.077254 186.44309 124.077254 
Q 188.399038 124.077254 189.423988 121.103697 
Q 189.964935 119.538075 190.232561 116.981267 
L 191.957895 116.981267 
Q 191.727281 121.064275 190.42901 123.829457 
Q 188.871654 127.157813 186.229558 127.157813 
Q 183.951889 127.157813 182.403075 124.426421 
Q 180.364561 120.822111 180.364561 113.286848 
Q 180.364561 107.570637 181.896294 103.910008 
Q 183.55045 99.928371 186.460172 99.928371 
z
M 186.104286 99.928371 
L 186.104286 99.928371 
z
" style="fill:#0000ff;"/>
   </g>
   <g id="patch_33">
    <path clip-path="url(#p561f4b962e)" d="M 191.957895 72.698929 
L 191.957895 75.943213 
L 187.14316 75.943213 
L 187.14316 99.928371 
L 185.179296 99.928371 
L 185.179296 75.943213 
L 180.364561 75.943213 
L 180.364561 72.698929 
L 191.957895 72.698929 
z
" style="fill:#ff0000;"/>
   </g>
   <g id="patch_34">
    <path clip-path="url(#p561f4b962e)" d="M 188.146272 54.712895 
L 186.173962 35.321252 
L 184.077145 54.712895 
L 188.146272 54.712895 
z
M 185.254305 28.8 
L 187.243593 28.8 
L 191.957895 72.698929 
L 190.028031 72.698929 
L 188.712214 59.551243 
L 183.573456 59.551243 
L 182.167088 72.698929 
L 180.364561 72.698929 
L 185.254305 28.8 
z
M 186.165473 28.8 
L 186.165473 28.8 
z
" style="fill:#008000;"/>
   </g>
   <g id="patch_35">
    <path clip-path="url(#p561f4b962e)" d="M 198.547178 126.199628 
Q 200.335659 126.199628 201.640393 126.998654 
Q 203.531151 128.146054 203.954084 131.022547 
L 202.25406 131.022547 
Q 201.941698 129.414907 200.965912 128.679804 
Q 199.990125 127.9447 198.50295 127.9447 
Q 196.742112 127.9447 195.536892 129.475633 
Q 194.331672 131.00337 194.331672 134.030079 
Q 194.331672 136.644491 195.324044 138.287288 
Q 196.31918 139.930085 198.563764 139.930085 
Q 200.283138 139.930085 201.410958 138.779488 
Q 202.538779 137.625695 202.563658 135.04644 
L 198.591407 135.04644 
L 198.591407 133.400447 
L 204.161404 133.400447 
L 204.161404 141.250075 
L 203.055697 141.250075 
L 202.641057 139.361179 
Q 201.770313 140.470226 201.095832 140.9017 
Q 199.962483 141.64 198.218231 141.64 
Q 195.965354 141.64 194.339965 139.952458 
Q 192.56807 137.833442 192.56807 134.138747 
Q 192.56807 130.453641 194.295737 128.277095 
Q 195.937711 126.199628 198.547178 126.199628 
z
M 198.262459 126.177255 
L 198.262459 126.177255 
z
" style="fill:#ffa600;"/>
   </g>
   <g id="patch_36">
    <path clip-path="url(#p561f4b962e)" d="M 198.663681 97.967255 
Q 201.14634 97.967255 202.515788 100.651143 
Q 203.885236 103.329197 204.036132 106.736569 
L 202.310798 106.736569 
Q 202.017548 104.151867 201.140645 102.640722 
Q 200.263743 101.123741 198.680763 101.123741 
Q 196.750439 101.123741 195.563204 103.906817 
Q 194.37597 106.684058 194.37597 112.425245 
Q 194.37597 117.133718 195.446474 120.062657 
Q 196.519825 122.985762 198.646598 122.985762 
Q 200.602546 122.985762 201.627497 119.905125 
Q 202.168443 118.283123 202.43607 115.634242 
L 204.161404 115.634242 
Q 203.93079 119.864283 202.632518 122.729042 
Q 201.075163 126.177255 198.433067 126.177255 
Q 196.155398 126.177255 194.606584 123.347503 
Q 192.56807 119.613398 192.56807 111.806784 
Q 192.56807 105.884726 194.099802 102.092275 
Q 195.753959 97.967255 198.663681 97.967255 
z
M 198.307795 97.967255 
L 198.307795 97.967255 
z
" style="fill:#0000ff;"/>
   </g>
   <g id="patch_37">
    <path clip-path="url(#p561f4b962e)" d="M 200.34978 84.40046 
L 198.377471 69.77342 
L 196.280653 84.40046 
L 200.34978 84.40046 
z
M 197.457814 64.854465 
L 199.447102 64.854465 
L 204.161404 97.967255 
L 202.231539 97.967255 
L 200.915723 88.050007 
L 195.776964 88.050007 
L 194.370597 97.967255 
L 192.56807 97.967255 
L 197.457814 64.854465 
z
M 198.368981 64.854465 
L 198.368981 64.854465 
z
" style="fill:#008000;"/>
   </g>
   <g id="patch_38">
    <path clip-path="url(#p561f4b962e)" d="M 204.161404 28.8 
L 204.161404 33.095751 
L 199.346669 33.095751 
L 199.346669 64.854465 
L 197.382805 64.854465 
L 197.382805 33.095751 
L 192.56807 33.095751 
L 192.56807 28.8 
L 204.161404 28.8 
z
" style="fill:#ff0000;"/>
   </g>
   <g id="patch_39">
    <path clip-path="url(#p561f4b962e)" d="M 210.750687 129.137046 
Q 212.539168 129.137046 213.843901 129.784063 
Q 215.73466 130.713179 216.157592 133.04244 
L 214.457568 133.04244 
Q 214.145206 131.740642 213.16942 131.145386 
Q 212.193634 130.550131 210.706459 130.550131 
Q 208.945621 130.550131 207.740401 131.789815 
Q 206.535181 133.026911 206.535181 135.477811 
Q 206.535181 137.59485 207.527553 138.925117 
Q 208.522688 140.255384 210.767273 140.255384 
Q 212.486647 140.255384 213.614467 139.32368 
Q 214.742288 138.389387 214.767166 136.300817 
L 210.794915 136.300817 
L 210.794915 134.967962 
L 216.364912 134.967962 
L 216.364912 141.324256 
L 215.259206 141.324256 
L 214.844566 139.794708 
Q 213.973822 140.692767 213.299341 141.042156 
Q 212.165992 141.64 210.421739 141.64 
Q 208.168862 141.64 206.543474 140.2735 
Q 204.771579 138.557612 204.771579 135.565806 
Q 204.771579 132.581764 206.499245 130.81929 
Q 208.14122 129.137046 210.750687 129.137046 
z
M 210.465968 129.118929 
L 210.465968 129.118929 
z
" style="fill:#ffa600;"/>
   </g>
   <g id="patch_40">
    <path clip-path="url(#p561f4b962e)" d="M 210.86719 105.81172 
Q 213.349848 105.81172 214.719297 108.029159 
Q 216.088745 110.241777 216.239641 113.05696 
L 214.514307 113.05696 
Q 214.221057 110.92147 213.344154 109.672956 
Q 212.467252 108.419621 210.884272 108.419621 
Q 208.953948 108.419621 207.766713 110.719008 
Q 206.579478 113.013575 206.579478 117.756966 
Q 206.579478 121.647125 207.649983 124.067025 
Q 208.723334 126.482106 210.850107 126.482106 
Q 212.806055 126.482106 213.831006 123.936871 
Q 214.371952 122.596767 214.639578 120.408252 
L 216.364912 120.408252 
Q 216.134298 123.903128 214.836027 126.270003 
Q 213.278671 129.118929 210.636576 129.118929 
Q 208.358907 129.118929 206.810092 126.780978 
Q 204.771579 123.695846 204.771579 117.245991 
Q 204.771579 112.353164 206.303311 109.219827 
Q 207.957468 105.81172 210.86719 105.81172 
z
M 210.511304 105.81172 
L 210.511304 105.81172 
z
" style="fill:#0000ff;"/>
   </g>
   <g id="patch_41">
    <path clip-path="url(#p561f4b962e)" d="M 216.364912 72.698929 
L 216.364912 76.644191 
L 211.550178 76.644191 
L 211.550178 105.81172 
L 209.586314 105.81172 
L 209.586314 76.644191 
L 204.771579 76.644191 
L 204.771579 72.698929 
L 216.364912 72.698929 
z
" style="fill:#ff0000;"/>
   </g>
   <g id="patch_42">
    <path clip-path="url(#p561f4b962e)" d="M 212.553289 54.712895 
L 210.580979 35.321252 
L 208.484162 54.712895 
L 212.553289 54.712895 
z
M 209.661323 28.8 
L 211.650611 28.8 
L 216.364912 72.698929 
L 214.435048 72.698929 
L 213.119232 59.551243 
L 207.980473 59.551243 
L 206.574106 72.698929 
L 204.771579 72.698929 
L 209.661323 28.8 
z
M 210.57249 28.8 
L 210.57249 28.8 
z
" style="fill:#008000;"/>
   </g>
   <g id="patch_43">
    <path clip-path="url(#p561f4b962e)" d="M 222.954196 121.303931 
Q 224.742676 121.303931 226.04741 122.356305 
Q 227.938168 123.867513 228.361101 127.656059 
L 226.661077 127.656059 
Q 226.348715 125.538683 225.372929 124.570499 
Q 224.397143 123.602315 222.909968 123.602315 
Q 221.14913 123.602315 219.94391 125.618663 
Q 218.73869 127.630802 218.73869 131.617193 
Q 218.73869 135.06056 219.731061 137.22424 
Q 220.726197 139.38792 222.970782 139.38792 
Q 224.690155 139.38792 225.817976 137.872502 
Q 226.945797 136.352875 226.970675 132.955812 
L 222.998424 132.955812 
L 222.998424 130.787923 
L 228.568421 130.787923 
L 228.568421 141.126442 
L 227.462714 141.126442 
L 227.048075 138.63863 
Q 226.177331 140.099325 225.50285 140.667607 
Q 224.3695 141.64 222.625248 141.64 
Q 220.372371 141.64 218.746982 139.417387 
Q 216.975088 136.626492 216.975088 131.760316 
Q 216.975088 126.906769 218.702754 124.040103 
Q 220.344728 121.303931 222.954196 121.303931 
z
M 222.669477 121.274465 
L 222.669477 121.274465 
z
" style="fill:#ffa600;"/>
   </g>
   <g id="patch_44">
    <path clip-path="url(#p561f4b962e)" d="M 223.070698 99.928371 
Q 225.553357 99.928371 226.922805 101.95923 
Q 228.292254 103.985674 228.443149 106.563982 
L 226.717815 106.563982 
Q 226.424565 104.608177 225.547663 103.464715 
Q 224.670761 102.316838 223.087781 102.316838 
Q 221.157457 102.316838 219.970222 104.42275 
Q 218.782987 106.524248 218.782987 110.86852 
Q 218.782987 114.431353 219.853491 116.647638 
Q 220.926843 118.859509 223.053616 118.859509 
Q 225.009564 118.859509 226.034515 116.528436 
Q 226.575461 115.301091 226.843087 113.296721 
L 228.568421 113.296721 
Q 228.337807 116.497531 227.039536 118.665252 
Q 225.48218 121.274465 222.840084 121.274465 
Q 220.562416 121.274465 219.013601 119.133233 
Q 216.975088 116.30769 216.975088 110.40054 
Q 216.975088 105.919405 218.50682 103.049713 
Q 220.160977 99.928371 223.070698 99.928371 
z
M 222.714813 99.928371 
L 222.714813 99.928371 
z
" style="fill:#0000ff;"/>
   </g>
   <g id="patch_45">
    <path clip-path="url(#p561f4b962e)" d="M 228.568421 66.815581 
L 228.568421 70.760843 
L 223.753686 70.760843 
L 223.753686 99.928371 
L 221.789822 99.928371 
L 221.789822 70.760843 
L 216.975088 70.760843 
L 216.975088 66.815581 
L 228.568421 66.815581 
z
" style="fill:#ff0000;"/>
   </g>
   <g id="patch_46">
    <path clip-path="url(#p561f4b962e)" d="M 224.756798 51.24004 
L 222.784488 34.447272 
L 220.687671 51.24004 
L 224.756798 51.24004 
z
M 221.864831 28.8 
L 223.85412 28.8 
L 228.568421 66.815581 
L 226.638557 66.815581 
L 225.32274 55.429952 
L 220.183982 55.429952 
L 218.777615 66.815581 
L 216.975088 66.815581 
L 221.864831 28.8 
z
M 222.775999 28.8 
L 222.775999 28.8 
z
" style="fill:#008000;"/>
   </g>
   <g id="patch_47">
    <path clip-path="url(#p561f4b962e)" d="M 235.157705 129.137046 
Q 236.946185 129.137046 238.250919 129.784063 
Q 240.141677 130.713179 240.56461 133.04244 
L 238.864586 133.04244 
Q 238.552224 131.740642 237.576438 131.145386 
Q 236.600652 130.550131 235.113476 130.550131 
Q 233.352639 130.550131 232.147419 131.789815 
Q 230.942198 133.026911 230.942198 135.477811 
Q 230.942198 137.59485 231.93457 138.925117 
Q 232.929706 140.255384 235.17429 140.255384 
Q 236.893664 140.255384 238.021485 139.32368 
Q 239.149305 138.389387 239.174184 136.300817 
L 235.201933 136.300817 
L 235.201933 134.967962 
L 240.77193 134.967962 
L 240.77193 141.324256 
L 239.666223 141.324256 
L 239.251583 139.794708 
Q 238.380839 140.692767 237.706358 141.042156 
Q 236.573009 141.64 234.828757 141.64 
Q 232.57588 141.64 230.950491 140.2735 
Q 229.178596 138.557612 229.178596 135.565806 
Q 229.178596 132.581764 230.906263 130.81929 
Q 232.548237 129.137046 235.157705 129.137046 
z
M 234.872985 129.118929 
L 234.872985 129.118929 
z
" style="fill:#ffa600;"/>
   </g>
   <g id="patch_48">
    <path clip-path="url(#p561f4b962e)" d="M 235.274207 106.792278 
Q 237.756866 106.792278 239.126314 108.916427 
Q 240.495763 111.035958 240.646658 113.732703 
L 238.921324 113.732703 
Q 238.628074 111.687056 237.751172 110.491068 
Q 236.874269 109.290462 235.29129 109.290462 
Q 233.360966 109.290462 232.173731 111.493112 
Q 230.986496 113.691144 230.986496 118.234975 
Q 230.986496 121.961471 232.057 124.279564 
Q 233.130352 126.593039 235.257125 126.593039 
Q 237.213073 126.593039 238.238023 124.154886 
Q 238.77897 122.871161 239.046596 120.774719 
L 240.77193 120.774719 
Q 240.541316 124.122562 239.243045 126.38986 
Q 237.685689 129.118929 235.043593 129.118929 
Q 232.765925 129.118929 231.21711 126.879338 
Q 229.178596 123.924 229.178596 117.745498 
Q 229.178596 113.058517 230.710329 110.057002 
Q 232.364485 106.792278 235.274207 106.792278 
z
M 234.918321 106.792278 
L 234.918321 106.792278 
z
" style="fill:#0000ff;"/>
   </g>
   <g id="patch_49">
    <path clip-path="url(#p561f4b962e)" d="M 240.77193 76.621162 
L 240.77193 80.215934 
L 235.957195 80.215934 
L 235.957195 106.792278 
L 233.993331 106.792278 
L 233.993331 80.215934 
L 229.178596 80.215934 
L 229.178596 76.621162 
L 240.77193 76.621162 
z
" style="fill:#ff0000;"/>
   </g>
   <g id="patch_50">
    <path clip-path="url(#p561f4b962e)" d="M 236.960307 57.028131 
L 234.987997 35.903906 
L 232.89118 57.028131 
L 236.960307 57.028131 
z
M 234.06834 28.8 
L 236.057628 28.8 
L 240.77193 76.621162 
L 238.842066 76.621162 
L 237.526249 62.298771 
L 232.387491 62.298771 
L 230.981124 76.621162 
L 229.178596 76.621162 
L 234.06834 28.8 
z
M 234.979508 28.8 
L 234.979508 28.8 
z
" style="fill:#008000;"/>
   </g>
   <g id="patch_51">
    <path clip-path="url(#p561f4b962e)" d="M 247.477716 120.293907 
Q 249.960375 120.293907 251.329823 122.324766 
Q 252.699271 124.35121 252.850167 126.929517 
L 251.124833 126.929517 
Q 250.831583 124.973712 249.954681 123.83025 
Q 249.077778 122.682373 247.494798 122.682373 
Q 245.564474 122.682373 244.37724 124.788286 
Q 243.190005 126.889783 243.190005 131.234055 
Q 243.190005 134.796888 244.260509 137.013174 
Q 245.33386 139.225044 247.460633 139.225044 
Q 249.416581 139.225044 250.441532 136.893971 
Q 250.982479 135.666626 251.250105 133.662256 
L 252.975439 133.662256 
Q 252.744825 136.863067 251.446554 139.030788 
Q 249.889198 141.64 247.247102 141.64 
Q 244.969433 141.64 243.420619 139.498768 
Q 241.382105 136.673225 241.382105 130.766075 
Q 241.382105 126.28494 242.913837 123.415249 
Q 244.567994 120.293907 247.477716 120.293907 
z
M 247.12183 120.293907 
L 247.12183 120.293907 
z
" style="fill:#0000ff;"/>
   </g>
   <g id="patch_52">
    <path clip-path="url(#p561f4b962e)" d="M 247.361214 98.978698 
Q 249.149694 98.978698 250.454428 100.081742 
Q 252.345186 101.665712 252.768119 105.636668 
L 251.068095 105.636668 
Q 250.755733 103.417345 249.779947 102.402545 
Q 248.804161 101.387745 247.316985 101.387745 
Q 245.556148 101.387745 244.350927 103.501176 
Q 243.145707 105.610195 243.145707 109.788523 
Q 243.145707 113.39768 244.138079 115.665537 
Q 245.133215 117.933394 247.377799 117.933394 
Q 249.097173 117.933394 250.224994 116.345012 
Q 251.352814 114.752217 251.377693 111.191594 
L 247.405442 111.191594 
L 247.405442 108.919324 
L 252.975439 108.919324 
L 252.975439 119.755622 
L 251.869732 119.755622 
L 251.455092 117.148027 
Q 250.584348 118.679051 249.909867 119.274695 
Q 248.776518 120.293907 247.032266 120.293907 
Q 244.779389 120.293907 243.154 117.964279 
Q 241.382105 115.039008 241.382105 109.938536 
Q 241.382105 104.851301 243.109772 101.846611 
Q 244.751746 98.978698 247.361214 98.978698 
z
M 247.076494 98.947813 
L 247.076494 98.947813 
z
" style="fill:#ffa600;"/>
   </g>
   <g id="patch_53">
    <path clip-path="url(#p561f4b962e)" d="M 252.975439 73.679488 
L 252.975439 76.690111 
L 248.160704 76.690111 
L 248.160704 98.947813 
L 246.19684 98.947813 
L 246.19684 76.690111 
L 241.382105 76.690111 
L 241.382105 73.679488 
L 252.975439 73.679488 
z
" style="fill:#ff0000;"/>
   </g>
   <g id="patch_54">
    <path clip-path="url(#p561f4b962e)" d="M 249.163815 55.291704 
L 247.191506 35.466916 
L 245.094688 55.291704 
L 249.163815 55.291704 
z
M 246.271849 28.8 
L 248.261137 28.8 
L 252.975439 73.679488 
L 251.045574 73.679488 
L 249.729758 60.238125 
L 244.591 60.238125 
L 243.184632 73.679488 
L 241.382105 73.679488 
L 246.271849 28.8 
z
M 247.183016 28.8 
L 247.183016 28.8 
z
" style="fill:#008000;"/>
   </g>
   <g id="patch_55">
    <path clip-path="url(#p561f4b962e)" d="M 259.564722 125.220489 
Q 261.353203 125.220489 262.657936 126.070184 
Q 264.548695 127.290346 264.971627 130.349249 
L 263.271604 130.349249 
Q 262.959241 128.639662 261.983455 127.857943 
Q 261.007669 127.076223 259.520494 127.076223 
Q 257.759656 127.076223 256.554436 128.704239 
Q 255.349216 130.328857 255.349216 133.547502 
Q 255.349216 136.327705 256.341588 138.074679 
Q 257.336724 139.821652 259.581308 139.821652 
Q 261.300682 139.821652 262.428502 138.598091 
Q 263.556323 137.371131 263.581201 134.628315 
L 259.608951 134.628315 
L 259.608951 132.877942 
L 265.178947 132.877942 
L 265.178947 141.225349 
L 264.073241 141.225349 
L 263.658601 139.216669 
Q 262.787857 140.396046 262.113376 140.854882 
Q 260.980027 141.64 259.235775 141.64 
Q 256.982897 141.64 255.357509 139.845444 
Q 253.585614 137.592052 253.585614 133.663061 
Q 253.585614 129.744266 255.313281 127.429696 
Q 256.955255 125.220489 259.564722 125.220489 
z
M 259.280003 125.196697 
L 259.280003 125.196697 
z
" style="fill:#ffa600;"/>
   </g>
   <g id="patch_56">
    <path clip-path="url(#p561f4b962e)" d="M 259.681225 102.870046 
Q 262.163884 102.870046 263.533332 104.994194 
Q 264.90278 107.113726 265.053676 109.810471 
L 263.328342 109.810471 
Q 263.035092 107.764823 262.158189 106.568835 
Q 261.281287 105.368229 259.698307 105.368229 
Q 257.767983 105.368229 256.580748 107.570879 
Q 255.393514 109.768912 255.393514 114.312743 
Q 255.393514 118.039239 256.464018 120.357332 
Q 257.537369 122.670807 259.664142 122.670807 
Q 261.62009 122.670807 262.645041 120.232654 
Q 263.185987 118.948929 263.453613 116.852486 
L 265.178947 116.852486 
Q 264.948333 120.20033 263.650062 122.467628 
Q 262.092706 125.196697 259.450611 125.196697 
Q 257.172942 125.196697 255.624127 122.957105 
Q 253.585614 120.001768 253.585614 113.823265 
Q 253.585614 109.136285 255.117346 106.13477 
Q 256.771503 102.870046 259.681225 102.870046 
z
M 259.325339 102.870046 
L 259.325339 102.870046 
z
" style="fill:#0000ff;"/>
   </g>
   <g id="patch_57">
    <path clip-path="url(#p561f4b962e)" d="M 265.178947 70.737813 
L 265.178947 74.566245 
L 260.364213 74.566245 
L 260.364213 102.870046 
L 258.400349 102.870046 
L 258.400349 74.566245 
L 253.585614 74.566245 
L 253.585614 70.737813 
L 265.178947 70.737813 
z
" style="fill:#ff0000;"/>
   </g>
   <g id="patch_58">
    <path clip-path="url(#p561f4b962e)" d="M 261.367324 53.555276 
L 259.395014 35.029926 
L 257.298197 53.555276 
L 261.367324 53.555276 
z
M 258.475358 28.8 
L 260.464646 28.8 
L 265.178947 70.737813 
L 263.249083 70.737813 
L 261.933267 58.177479 
L 256.794508 58.177479 
L 255.388141 70.737813 
L 253.585614 70.737813 
L 258.475358 28.8 
z
M 259.386525 28.8 
L 259.386525 28.8 
z
" style="fill:#008000;"/>
   </g>
   <g id="patch_59">
    <path clip-path="url(#p561f4b962e)" d="M 271.884733 122.255023 
Q 274.367392 122.255023 275.736841 124.099302 
Q 277.106289 125.939572 277.257184 128.281004 
L 275.53185 128.281004 
Q 275.238601 126.504883 274.361698 125.466474 
Q 273.484796 124.424055 271.901816 124.424055 
Q 269.971492 124.424055 268.784257 126.336493 
Q 267.597022 128.244921 267.597022 132.190074 
Q 267.597022 135.425581 268.667527 137.438251 
Q 269.740878 139.446912 271.867651 139.446912 
Q 273.823599 139.446912 274.84855 137.33 
Q 275.389496 136.215414 275.657122 134.395191 
L 277.382456 134.395191 
Q 277.151842 137.301935 275.853571 139.270502 
Q 274.296215 141.64 271.65412 141.64 
Q 269.376451 141.64 267.827636 139.695488 
Q 265.789123 137.129535 265.789123 131.765088 
Q 265.789123 127.695646 267.320855 125.0896 
Q 268.975012 122.255023 271.884733 122.255023 
z
M 271.528848 122.255023 
L 271.528848 122.255023 
z
" style="fill:#0000ff;"/>
   </g>
   <g id="patch_60">
    <path clip-path="url(#p561f4b962e)" d="M 277.382456 96.986697 
L 277.382456 99.997321 
L 272.567721 99.997321 
L 272.567721 122.255023 
L 270.603857 122.255023 
L 270.603857 99.997321 
L 265.789123 99.997321 
L 265.789123 96.986697 
L 277.382456 96.986697 
z
" style="fill:#ff0000;"/>
   </g>
   <g id="patch_61">
    <path clip-path="url(#p561f4b962e)" d="M 271.768231 68.817514 
Q 273.556711 68.817514 274.861445 70.275244 
Q 276.752203 72.368545 277.175136 77.616375 
L 275.475112 77.616375 
Q 275.16275 74.683421 274.186964 73.342309 
Q 273.211178 72.001197 271.724003 72.001197 
Q 269.963165 72.001197 268.757945 74.794208 
Q 267.552725 77.581389 267.552725 83.103272 
Q 267.552725 87.872966 268.545096 90.87006 
Q 269.540232 93.867154 271.784817 93.867154 
Q 273.50419 93.867154 274.632011 91.768022 
Q 275.759832 89.663059 275.78471 84.957505 
L 271.812459 84.957505 
L 271.812459 81.954581 
L 277.382456 81.954581 
L 277.382456 96.275325 
L 276.27675 96.275325 
L 275.86211 92.82925 
Q 274.991366 94.85258 274.316885 95.639754 
Q 273.183535 96.986697 271.439283 96.986697 
Q 269.186406 96.986697 267.561018 93.90797 
Q 265.789123 90.042069 265.789123 83.301523 
Q 265.789123 76.578471 267.516789 72.607613 
Q 269.158764 68.817514 271.768231 68.817514 
z
M 271.483512 68.776697 
L 271.483512 68.776697 
z
" style="fill:#ffa600;"/>
   </g>
   <g id="patch_62">
    <path clip-path="url(#p561f4b962e)" d="M 273.570833 52.397658 
L 271.598523 34.738599 
L 269.501706 52.397658 
L 273.570833 52.397658 
z
M 270.678867 28.8 
L 272.668155 28.8 
L 277.382456 68.776697 
L 275.452592 68.776697 
L 274.136776 56.803715 
L 268.998017 56.803715 
L 267.59165 68.776697 
L 265.789123 68.776697 
L 270.678867 28.8 
z
M 271.590034 28.8 
L 271.590034 28.8 
z
" style="fill:#008000;"/>
   </g>
   <g id="patch_63">
    <path clip-path="url(#p561f4b962e)" d="M 283.97174 121.303931 
Q 285.76022 121.303931 287.064954 122.356305 
Q 288.955712 123.867513 289.378645 127.656059 
L 287.678621 127.656059 
Q 287.366259 125.538683 286.390473 124.570499 
Q 285.414687 123.602315 283.927512 123.602315 
Q 282.166674 123.602315 280.961454 125.618663 
Q 279.756234 127.630802 279.756234 131.617193 
Q 279.756234 135.06056 280.748605 137.22424 
Q 281.743741 139.38792 283.988325 139.38792 
Q 285.707699 139.38792 286.83552 137.872502 
Q 287.963341 136.352875 287.988219 132.955812 
L 284.015968 132.955812 
L 284.015968 130.787923 
L 289.585965 130.787923 
L 289.585965 141.126442 
L 288.480258 141.126442 
L 288.065618 138.63863 
Q 287.194874 140.099325 286.520393 140.667607 
Q 285.387044 141.64 283.642792 141.64 
Q 281.389915 141.64 279.764526 139.417387 
Q 277.992632 136.626492 277.992632 131.760316 
Q 277.992632 126.906769 279.720298 124.040103 
Q 281.362272 121.303931 283.97174 121.303931 
z
M 283.68702 121.274465 
L 283.68702 121.274465 
z
" style="fill:#ffa600;"/>
   </g>
   <g id="patch_64">
    <path clip-path="url(#p561f4b962e)" d="M 284.088242 97.967255 
Q 286.570901 97.967255 287.940349 100.184694 
Q 289.309798 102.397312 289.460693 105.212495 
L 287.735359 105.212495 
Q 287.442109 103.077005 286.565207 101.828491 
Q 285.688304 100.575156 284.105325 100.575156 
Q 282.175001 100.575156 280.987766 102.874544 
Q 279.800531 105.169111 279.800531 109.912501 
Q 279.800531 113.80266 280.871035 116.222561 
Q 281.944387 118.637641 284.07116 118.637641 
Q 286.027108 118.637641 287.052059 116.092407 
Q 287.593005 114.752302 287.860631 112.563787 
L 289.585965 112.563787 
Q 289.355351 116.058663 288.05708 118.425538 
Q 286.499724 121.274465 283.857628 121.274465 
Q 281.57996 121.274465 280.031145 118.936513 
Q 277.992632 115.851381 277.992632 109.401526 
Q 277.992632 104.5087 279.524364 101.375362 
Q 281.178521 97.967255 284.088242 97.967255 
z
M 283.732357 97.967255 
L 283.732357 97.967255 
z
" style="fill:#0000ff;"/>
   </g>
   <g id="patch_65">
    <path clip-path="url(#p561f4b962e)" d="M 289.585965 68.776697 
L 289.585965 72.25464 
L 284.77123 72.25464 
L 284.77123 97.967255 
L 282.807366 97.967255 
L 282.807366 72.25464 
L 277.992632 72.25464 
L 277.992632 68.776697 
L 289.585965 68.776697 
z
" style="fill:#ff0000;"/>
   </g>
   <g id="patch_66">
    <path clip-path="url(#p561f4b962e)" d="M 285.774342 52.397658 
L 283.802032 34.738599 
L 281.705215 52.397658 
L 285.774342 52.397658 
z
M 282.882375 28.8 
L 284.871663 28.8 
L 289.585965 68.776697 
L 287.656101 68.776697 
L 286.340284 56.803715 
L 281.201526 56.803715 
L 279.795159 68.776697 
L 277.992632 68.776697 
L 282.882375 28.8 
z
M 283.793543 28.8 
L 283.793543 28.8 
z
" style="fill:#008000;"/>
   </g>
   <g id="patch_67">
    <path clip-path="url(#p561f4b962e)" d="M 296.175249 127.178767 
Q 297.963729 127.178767 299.268463 127.927123 
Q 301.159221 129.001763 301.582154 131.695844 
L 299.88213 131.695844 
Q 299.569768 130.190152 298.593982 129.501664 
Q 297.618196 128.813177 296.13102 128.813177 
Q 294.370183 128.813177 293.164962 130.247027 
Q 291.959742 131.677884 291.959742 134.512657 
Q 291.959742 136.961278 292.952114 138.499898 
Q 293.94725 140.038518 296.191834 140.038518 
Q 297.911208 140.038518 299.039029 138.960885 
Q 300.166849 137.880259 300.191728 135.464566 
L 296.219477 135.464566 
L 296.219477 133.922952 
L 301.789474 133.922952 
L 301.789474 141.274802 
L 300.683767 141.274802 
L 300.269127 139.505688 
Q 299.398383 140.544407 298.723902 140.948519 
Q 297.590553 141.64 295.846301 141.64 
Q 293.593424 141.64 291.968035 140.059472 
Q 290.19614 138.074832 290.19614 134.614433 
Q 290.19614 131.163015 291.923807 129.124493 
Q 293.565781 127.178767 296.175249 127.178767 
z
M 295.890529 127.157813 
L 295.890529 127.157813 
z
" style="fill:#ffa600;"/>
   </g>
   <g id="patch_68">
    <path clip-path="url(#p561f4b962e)" d="M 296.291751 102.870046 
Q 298.77441 102.870046 300.143858 105.180774 
Q 301.513306 107.48648 301.664202 110.4201 
L 299.938868 110.4201 
Q 299.645618 108.194768 298.768716 106.893728 
Q 297.891813 105.587663 296.308834 105.587663 
Q 294.378509 105.587663 293.191275 107.983789 
Q 292.00404 110.37489 292.00404 115.31784 
Q 292.00404 119.371662 293.074544 121.893371 
Q 294.147895 124.410055 296.274669 124.410055 
Q 298.230616 124.410055 299.255567 121.757741 
Q 299.796514 120.361257 300.06414 118.080668 
L 301.789474 118.080668 
Q 301.55886 121.722578 300.260589 124.189029 
Q 298.703233 127.157813 296.061137 127.157813 
Q 293.783468 127.157813 292.234654 124.721502 
Q 290.19614 121.506575 290.19614 114.785368 
Q 290.19614 109.686695 291.727873 106.421535 
Q 293.382029 102.870046 296.291751 102.870046 
z
M 295.935865 102.870046 
L 295.935865 102.870046 
z
" style="fill:#0000ff;"/>
   </g>
   <g id="patch_69">
    <path clip-path="url(#p561f4b962e)" d="M 301.789474 68.776697 
L 301.789474 72.838788 
L 296.974739 72.838788 
L 296.974739 102.870046 
L 295.010875 102.870046 
L 295.010875 72.838788 
L 290.19614 72.838788 
L 290.19614 68.776697 
L 301.789474 68.776697 
z
" style="fill:#ff0000;"/>
   </g>
   <g id="patch_70">
    <path clip-path="url(#p561f4b962e)" d="M 297.977851 52.397658 
L 296.005541 34.738599 
L 293.908724 52.397658 
L 297.977851 52.397658 
z
M 295.085884 28.8 
L 297.075172 28.8 
L 301.789474 68.776697 
L 299.85961 68.776697 
L 298.543793 56.803715 
L 293.405035 56.803715 
L 291.998667 68.776697 
L 290.19614 68.776697 
L 295.085884 28.8 
z
M 295.997052 28.8 
L 295.997052 28.8 
z
" style="fill:#008000;"/>
   </g>
   <g id="patch_71">
    <path clip-path="url(#p561f4b962e)" d="M 308.378757 128.157907 
Q 310.167238 128.157907 311.471971 128.855593 
Q 313.36273 129.857471 313.785662 132.369142 
L 312.085639 132.369142 
Q 311.773277 130.965397 310.79749 130.323525 
Q 309.821704 129.681654 308.334529 129.681654 
Q 306.573691 129.681654 305.368471 131.018421 
Q 304.163251 132.352398 304.163251 134.995234 
Q 304.163251 137.278064 305.155623 138.712508 
Q 306.150759 140.146951 308.395343 140.146951 
Q 310.114717 140.146951 311.242537 139.142282 
Q 312.370358 138.134823 312.395236 135.882691 
L 308.422986 135.882691 
L 308.422986 134.445457 
L 313.992982 134.445457 
L 313.992982 141.299529 
L 312.887276 141.299529 
L 312.472636 139.650198 
Q 311.601892 140.618587 310.927411 140.995338 
Q 309.794062 141.64 308.04981 141.64 
Q 305.796933 141.64 304.171544 140.166486 
Q 302.399649 138.316222 302.399649 135.090119 
Q 302.399649 131.872389 304.127316 129.971891 
Q 305.76929 128.157907 308.378757 128.157907 
z
M 308.094038 128.138371 
L 308.094038 128.138371 
z
" style="fill:#ffa600;"/>
   </g>
   <g id="patch_72">
    <path clip-path="url(#p561f4b962e)" d="M 308.49526 99.928371 
Q 310.977919 99.928371 312.347367 102.61226 
Q 313.716815 105.290313 313.867711 108.697685 
L 312.142377 108.697685 
Q 311.849127 106.112984 310.972224 104.601838 
Q 310.095322 103.084857 308.512342 103.084857 
Q 306.582018 103.084857 305.394783 105.867933 
Q 304.207549 108.645174 304.207549 114.386361 
Q 304.207549 119.094835 305.278053 122.023774 
Q 306.351404 124.946878 308.478177 124.946878 
Q 310.434125 124.946878 311.459076 121.866241 
Q 312.000022 120.244239 312.267648 117.595358 
L 313.992982 117.595358 
Q 313.762369 121.825399 312.464097 124.690158 
Q 310.906741 128.138371 308.264646 128.138371 
Q 305.986977 128.138371 304.438163 125.30862 
Q 302.399649 121.574514 302.399649 113.7679 
Q 302.399649 107.845842 303.931381 104.053391 
Q 305.585538 99.928371 308.49526 99.928371 
z
M 308.139374 99.928371 
L 308.139374 99.928371 
z
" style="fill:#0000ff;"/>
   </g>
   <g id="patch_73">
    <path clip-path="url(#p561f4b962e)" d="M 313.992982 64.854465 
L 313.992982 69.033386 
L 309.178248 69.033386 
L 309.178248 99.928371 
L 307.214384 99.928371 
L 307.214384 69.033386 
L 302.399649 69.033386 
L 302.399649 64.854465 
L 313.992982 64.854465 
z
" style="fill:#ff0000;"/>
   </g>
   <g id="patch_74">
    <path clip-path="url(#p561f4b962e)" d="M 310.181359 50.082422 
L 308.209049 34.155945 
L 306.112232 50.082422 
L 310.181359 50.082422 
z
M 307.289393 28.8 
L 309.278681 28.8 
L 313.992982 64.854465 
L 312.063118 64.854465 
L 310.747302 54.056188 
L 305.608543 54.056188 
L 304.202176 64.854465 
L 302.399649 64.854465 
L 307.289393 28.8 
z
M 308.20056 28.8 
L 308.20056 28.8 
z
" style="fill:#008000;"/>
   </g>
   <g id="patch_75">
    <path clip-path="url(#p561f4b962e)" d="M 320.582266 128.157907 
Q 322.370747 128.157907 323.67548 128.855593 
Q 325.566238 129.857471 325.989171 132.369142 
L 324.289147 132.369142 
Q 323.976785 130.965397 323.000999 130.323525 
Q 322.025213 129.681654 320.538038 129.681654 
Q 318.7772 129.681654 317.57198 131.018421 
Q 316.36676 132.352398 316.36676 134.995234 
Q 316.36676 137.278064 317.359132 138.712508 
Q 318.354267 140.146951 320.598852 140.146951 
Q 322.318225 140.146951 323.446046 139.142282 
Q 324.573867 138.134823 324.598745 135.882691 
L 320.626494 135.882691 
L 320.626494 134.445457 
L 326.196491 134.445457 
L 326.196491 141.299529 
L 325.090785 141.299529 
L 324.676145 139.650198 
Q 323.805401 140.618587 323.13092 140.995338 
Q 321.997571 141.64 320.253318 141.64 
Q 318.000441 141.64 316.375053 140.166486 
Q 314.603158 138.316222 314.603158 135.090119 
Q 314.603158 131.872389 316.330824 129.971891 
Q 317.972799 128.157907 320.582266 128.157907 
z
M 320.297547 128.138371 
L 320.297547 128.138371 
z
" style="fill:#ffa600;"/>
   </g>
   <g id="patch_76">
    <path clip-path="url(#p561f4b962e)" d="M 320.698769 104.831162 
Q 323.181427 104.831162 324.550876 107.048601 
Q 325.920324 109.261219 326.071219 112.076402 
L 324.345885 112.076402 
Q 324.052636 109.940912 323.175733 108.692398 
Q 322.298831 107.439063 320.715851 107.439063 
Q 318.785527 107.439063 317.598292 109.73845 
Q 316.411057 112.033017 316.411057 116.776408 
Q 316.411057 120.666567 317.481562 123.086467 
Q 318.554913 125.501547 320.681686 125.501547 
Q 322.637634 125.501547 323.662585 122.956313 
Q 324.203531 121.616209 324.471157 119.427693 
L 326.196491 119.427693 
Q 325.965877 122.92257 324.667606 125.289445 
Q 323.11025 128.138371 320.468155 128.138371 
Q 318.190486 128.138371 316.641671 125.80042 
Q 314.603158 122.715287 314.603158 116.265433 
Q 314.603158 111.372606 316.13489 108.239269 
Q 317.789047 104.831162 320.698769 104.831162 
z
M 320.342883 104.831162 
L 320.342883 104.831162 
z
" style="fill:#0000ff;"/>
   </g>
   <g id="patch_77">
    <path clip-path="url(#p561f4b962e)" d="M 326.196491 69.757255 
L 326.196491 73.936176 
L 321.381757 73.936176 
L 321.381757 104.831162 
L 319.417893 104.831162 
L 319.417893 73.936176 
L 314.603158 73.936176 
L 314.603158 69.757255 
L 326.196491 69.757255 
z
" style="fill:#ff0000;"/>
   </g>
   <g id="patch_78">
    <path clip-path="url(#p561f4b962e)" d="M 322.384868 52.976467 
L 320.412558 34.884262 
L 318.315741 52.976467 
L 322.384868 52.976467 
z
M 319.492902 28.8 
L 321.48219 28.8 
L 326.196491 69.757255 
L 324.266627 69.757255 
L 322.950811 57.490597 
L 317.812052 57.490597 
L 316.405685 69.757255 
L 314.603158 69.757255 
L 319.492902 28.8 
z
M 320.404069 28.8 
L 320.404069 28.8 
z
" style="fill:#008000;"/>
   </g>
   <g id="patch_79">
    <path clip-path="url(#p561f4b962e)" d="M 332.785775 125.220489 
Q 334.574255 125.220489 335.878989 126.070184 
Q 337.769747 127.290346 338.19268 130.349249 
L 336.492656 130.349249 
Q 336.180294 128.639662 335.204508 127.857943 
Q 334.228722 127.076223 332.741547 127.076223 
Q 330.980709 127.076223 329.775489 128.704239 
Q 328.570269 130.328857 328.570269 133.547502 
Q 328.570269 136.327705 329.56264 138.074679 
Q 330.557776 139.821652 332.802361 139.821652 
Q 334.521734 139.821652 335.649555 138.598091 
Q 336.777376 137.371131 336.802254 134.628315 
L 332.830003 134.628315 
L 332.830003 132.877942 
L 338.4 132.877942 
L 338.4 141.225349 
L 337.294293 141.225349 
L 336.879653 139.216669 
Q 336.00891 140.396046 335.334429 140.854882 
Q 334.201079 141.64 332.456827 141.64 
Q 330.20395 141.64 328.578561 139.845444 
Q 326.806667 137.592052 326.806667 133.663061 
Q 326.806667 129.744266 328.534333 127.429696 
Q 330.176307 125.220489 332.785775 125.220489 
z
M 332.501055 125.196697 
L 332.501055 125.196697 
z
" style="fill:#ffa600;"/>
   </g>
   <g id="patch_80">
    <path clip-path="url(#p561f4b962e)" d="M 332.902277 102.870046 
Q 335.384936 102.870046 336.754384 104.994194 
Q 338.123833 107.113726 338.274728 109.810471 
L 336.549394 109.810471 
Q 336.256144 107.764823 335.379242 106.568835 
Q 334.50234 105.368229 332.91936 105.368229 
Q 330.989036 105.368229 329.801801 107.570879 
Q 328.614566 109.768912 328.614566 114.312743 
Q 328.614566 118.039239 329.68507 120.357332 
Q 330.758422 122.670807 332.885195 122.670807 
Q 334.841143 122.670807 335.866094 120.232654 
Q 336.40704 118.948929 336.674666 116.852486 
L 338.4 116.852486 
Q 338.169386 120.20033 336.871115 122.467628 
Q 335.313759 125.196697 332.671663 125.196697 
Q 330.393995 125.196697 328.84518 122.957105 
Q 326.806667 120.001768 326.806667 113.823265 
Q 326.806667 109.136285 328.338399 106.13477 
Q 329.992556 102.870046 332.902277 102.870046 
z
M 332.546392 102.870046 
L 332.546392 102.870046 
z
" style="fill:#0000ff;"/>
   </g>
   <g id="patch_81">
    <path clip-path="url(#p561f4b962e)" d="M 338.4 75.640604 
L 338.4 78.884887 
L 333.585265 78.884887 
L 333.585265 102.870046 
L 331.621401 102.870046 
L 331.621401 78.884887 
L 326.806667 78.884887 
L 326.806667 75.640604 
L 338.4 75.640604 
z
" style="fill:#ff0000;"/>
   </g>
   <g id="patch_82">
    <path clip-path="url(#p561f4b962e)" d="M 334.588377 56.449322 
L 332.616067 35.758243 
L 330.51925 56.449322 
L 334.588377 56.449322 
z
M 331.69641 28.8 
L 333.685698 28.8 
L 338.4 75.640604 
L 336.470136 75.640604 
L 335.154319 61.611889 
L 330.015561 61.611889 
L 328.609194 75.640604 
L 326.806667 75.640604 
L 331.69641 28.8 
z
M 332.607578 28.8 
L 332.607578 28.8 
z
" style="fill:#008000;"/>
   </g>
   <g id="matplotlib.axis_1">
    <g id="xtick_1">
     <g id="line2d_2">
      <path clip-path="url(#p561f4b962e)" d="M 100.736667 141.64 
L 100.736667 28.8 
" style="fill:none;stroke:#cccccc;stroke-linecap:round;stroke-width:0.8;"/>
     </g>
     <g id="text_1">
      <!-- 0 -->
      <g style="fill:#262626;" transform="translate(95.175729 162.986875)scale(0.2 -0.2)">
       <defs>
        <path d="M 1731 4475 
Q 2600 4475 2988 3759 
Q 3288 3206 3288 2244 
Q 3288 1331 3016 734 
Q 2622 -122 1728 -122 
Q 922 -122 528 578 
Q 200 1163 200 2147 
Q 200 2909 397 3456 
Q 766 4475 1731 4475 
z
M 1725 391 
Q 2163 391 2422 778 
Q 2681 1166 2681 2222 
Q 2681 2984 2493 3476 
Q 2306 3969 1766 3969 
Q 1269 3969 1039 3501 
Q 809 3034 809 2125 
Q 809 1441 956 1025 
Q 1181 391 1725 391 
z
" id="Helvetica-30" transform="scale(0.015625)"/>
       </defs>
       <use xlink:href="#Helvetica-30"/>
      </g>
     </g>
    </g>
    <g id="xtick_2">
     <g id="line2d_3">
      <path clip-path="url(#p561f4b962e)" d="M 222.771754 141.64 
L 222.771754 28.8 
" style="fill:none;stroke:#cccccc;stroke-linecap:round;stroke-width:0.8;"/>
     </g>
     <g id="text_2">
      <!-- 10 -->
      <g style="fill:#262626;" transform="translate(211.649879 162.986875)scale(0.2 -0.2)">
       <defs>
        <path d="M 613 3169 
L 613 3600 
Q 1222 3659 1462 3798 
Q 1703 3938 1822 4456 
L 2266 4456 
L 2266 0 
L 1666 0 
L 1666 3169 
L 613 3169 
z
" id="Helvetica-31" transform="scale(0.015625)"/>
       </defs>
       <use xlink:href="#Helvetica-31"/>
       <use x="55.615234" xlink:href="#Helvetica-30"/>
      </g>
     </g>
    </g>
    <g id="text_3">
     <!-- Position -->
     <g style="fill:#262626;" transform="translate(172.20125 189.089219)scale(0.25 -0.25)">
      <defs>
       <path d="M 547 4591 
L 2613 4591 
Q 3225 4591 3600 4245 
Q 3975 3900 3975 3275 
Q 3975 2738 3640 2339 
Q 3306 1941 2613 1941 
L 1169 1941 
L 1169 0 
L 547 0 
L 547 4591 
z
M 3347 3272 
Q 3347 3778 2972 3959 
Q 2766 4056 2406 4056 
L 1169 4056 
L 1169 2466 
L 2406 2466 
Q 2825 2466 3086 2644 
Q 3347 2822 3347 3272 
z
" id="Helvetica-50" transform="scale(0.015625)"/>
       <path d="M 1741 363 
Q 2300 363 2508 786 
Q 2716 1209 2716 1728 
Q 2716 2197 2566 2491 
Q 2328 2953 1747 2953 
Q 1231 2953 997 2559 
Q 763 2166 763 1609 
Q 763 1075 997 719 
Q 1231 363 1741 363 
z
M 1763 3444 
Q 2409 3444 2856 3012 
Q 3303 2581 3303 1744 
Q 3303 934 2909 406 
Q 2516 -122 1688 -122 
Q 997 -122 590 345 
Q 184 813 184 1600 
Q 184 2444 612 2944 
Q 1041 3444 1763 3444 
z
M 1744 3428 
L 1744 3428 
z
" id="Helvetica-6f" transform="scale(0.015625)"/>
       <path d="M 747 1050 
Q 772 769 888 619 
Q 1100 347 1625 347 
Q 1938 347 2175 483 
Q 2413 619 2413 903 
Q 2413 1119 2222 1231 
Q 2100 1300 1741 1391 
L 1294 1503 
Q 866 1609 663 1741 
Q 300 1969 300 2372 
Q 300 2847 642 3140 
Q 984 3434 1563 3434 
Q 2319 3434 2653 2991 
Q 2863 2709 2856 2384 
L 2325 2384 
Q 2309 2575 2191 2731 
Q 1997 2953 1519 2953 
Q 1200 2953 1036 2831 
Q 872 2709 872 2509 
Q 872 2291 1088 2159 
Q 1213 2081 1456 2022 
L 1828 1931 
Q 2434 1784 2641 1647 
Q 2969 1431 2969 969 
Q 2969 522 2630 197 
Q 2291 -128 1597 -128 
Q 850 -128 539 211 
Q 228 550 206 1050 
L 747 1050 
z
M 1578 3428 
L 1578 3428 
z
" id="Helvetica-73" transform="scale(0.015625)"/>
       <path d="M 413 3331 
L 984 3331 
L 984 0 
L 413 0 
L 413 3331 
z
M 413 4591 
L 984 4591 
L 984 3953 
L 413 3953 
L 413 4591 
z
" id="Helvetica-69" transform="scale(0.015625)"/>
       <path d="M 525 4281 
L 1094 4281 
L 1094 3347 
L 1628 3347 
L 1628 2888 
L 1094 2888 
L 1094 703 
Q 1094 528 1213 469 
Q 1278 434 1431 434 
Q 1472 434 1519 436 
Q 1566 438 1628 444 
L 1628 0 
Q 1531 -28 1426 -40 
Q 1322 -53 1200 -53 
Q 806 -53 665 148 
Q 525 350 525 672 
L 525 2888 
L 72 2888 
L 72 3347 
L 525 3347 
L 525 4281 
z
" id="Helvetica-74" transform="scale(0.015625)"/>
       <path d="M 413 3347 
L 947 3347 
L 947 2872 
Q 1184 3166 1450 3294 
Q 1716 3422 2041 3422 
Q 2753 3422 3003 2925 
Q 3141 2653 3141 2147 
L 3141 0 
L 2569 0 
L 2569 2109 
Q 2569 2416 2478 2603 
Q 2328 2916 1934 2916 
Q 1734 2916 1606 2875 
Q 1375 2806 1200 2600 
Q 1059 2434 1017 2257 
Q 975 2081 975 1753 
L 975 0 
L 413 0 
L 413 3347 
z
M 1734 3428 
L 1734 3428 
z
" id="Helvetica-6e" transform="scale(0.015625)"/>
      </defs>
      <use xlink:href="#Helvetica-50"/>
      <use x="66.699219" xlink:href="#Helvetica-6f"/>
      <use x="122.314453" xlink:href="#Helvetica-73"/>
      <use x="172.314453" xlink:href="#Helvetica-69"/>
      <use x="194.53125" xlink:href="#Helvetica-74"/>
      <use x="222.314453" xlink:href="#Helvetica-69"/>
      <use x="244.53125" xlink:href="#Helvetica-6f"/>
      <use x="300.146484" xlink:href="#Helvetica-6e"/>
     </g>
    </g>
   </g>
   <g id="matplotlib.axis_2">
    <g id="ytick_1">
     <g id="line2d_4">
      <path clip-path="url(#p561f4b962e)" d="M 94.94 141.64 
L 338.4 141.64 
" style="fill:none;stroke:#cccccc;stroke-linecap:round;stroke-width:0.8;"/>
     </g>
     <g id="text_4">
      <!-- 0 -->
      <g style="fill:#262626;" transform="translate(76.818125 148.813438)scale(0.2 -0.2)">
       <use xlink:href="#Helvetica-30"/>
      </g>
     </g>
    </g>
    <g id="ytick_2">
     <g id="line2d_5">
      <path clip-path="url(#p561f4b962e)" d="M 94.94 113.43 
L 338.4 113.43 
" style="fill:none;stroke:#cccccc;stroke-linecap:round;stroke-width:0.8;"/>
     </g>
     <g id="text_5">
      <!-- 0.25 -->
      <g style="fill:#262626;" transform="translate(49.018125 120.603437)scale(0.2 -0.2)">
       <defs>
        <path d="M 547 681 
L 1200 681 
L 1200 0 
L 547 0 
L 547 681 
z
" id="Helvetica-2e" transform="scale(0.015625)"/>
        <path d="M 200 0 
Q 231 578 439 1006 
Q 647 1434 1250 1784 
L 1850 2131 
Q 2253 2366 2416 2531 
Q 2672 2791 2672 3125 
Q 2672 3516 2437 3745 
Q 2203 3975 1813 3975 
Q 1234 3975 1013 3538 
Q 894 3303 881 2888 
L 309 2888 
Q 319 3472 525 3841 
Q 891 4491 1816 4491 
Q 2584 4491 2939 4075 
Q 3294 3659 3294 3150 
Q 3294 2613 2916 2231 
Q 2697 2009 2131 1694 
L 1703 1456 
Q 1397 1288 1222 1134 
Q 909 863 828 531 
L 3272 531 
L 3272 0 
L 200 0 
z
" id="Helvetica-32" transform="scale(0.015625)"/>
        <path d="M 791 1141 
Q 847 659 1238 475 
Q 1438 381 1700 381 
Q 2200 381 2440 700 
Q 2681 1019 2681 1406 
Q 2681 1875 2395 2131 
Q 2109 2388 1709 2388 
Q 1419 2388 1211 2275 
Q 1003 2163 856 1963 
L 369 1991 
L 709 4400 
L 3034 4400 
L 3034 3856 
L 1131 3856 
L 941 2613 
Q 1097 2731 1238 2791 
Q 1488 2894 1816 2894 
Q 2431 2894 2859 2497 
Q 3288 2100 3288 1491 
Q 3288 856 2895 371 
Q 2503 -113 1644 -113 
Q 1097 -113 676 195 
Q 256 503 206 1141 
L 791 1141 
z
" id="Helvetica-35" transform="scale(0.015625)"/>
       </defs>
       <use xlink:href="#Helvetica-30"/>
       <use x="55.615234" xlink:href="#Helvetica-2e"/>
       <use x="83.398438" xlink:href="#Helvetica-32"/>
       <use x="139.013672" xlink:href="#Helvetica-35"/>
      </g>
     </g>
    </g>
    <g id="ytick_3">
     <g id="line2d_6">
      <path clip-path="url(#p561f4b962e)" d="M 94.94 85.22 
L 338.4 85.22 
" style="fill:none;stroke:#cccccc;stroke-linecap:round;stroke-width:0.8;"/>
     </g>
     <g id="text_6">
      <!-- 0.50 -->
      <g style="fill:#262626;" transform="translate(49.018125 92.393438)scale(0.2 -0.2)">
       <use xlink:href="#Helvetica-30"/>
       <use x="55.615234" xlink:href="#Helvetica-2e"/>
       <use x="83.398438" xlink:href="#Helvetica-35"/>
       <use x="139.013672" xlink:href="#Helvetica-30"/>
      </g>
     </g>
    </g>
    <g id="ytick_4">
     <g id="line2d_7">
      <path clip-path="url(#p561f4b962e)" d="M 94.94 57.01 
L 338.4 57.01 
" style="fill:none;stroke:#cccccc;stroke-linecap:round;stroke-width:0.8;"/>
     </g>
     <g id="text_7">
      <!-- 0.75 -->
      <g style="fill:#262626;" transform="translate(49.018125 64.183437)scale(0.2 -0.2)">
       <defs>
        <path d="M 3347 4400 
L 3347 3909 
Q 3131 3700 2773 3181 
Q 2416 2663 2141 2063 
Q 1869 1478 1728 997 
Q 1638 688 1494 0 
L 872 0 
Q 1084 1281 1809 2550 
Q 2238 3294 2709 3834 
L 234 3834 
L 234 4400 
L 3347 4400 
z
" id="Helvetica-37" transform="scale(0.015625)"/>
       </defs>
       <use xlink:href="#Helvetica-30"/>
       <use x="55.615234" xlink:href="#Helvetica-2e"/>
       <use x="83.398438" xlink:href="#Helvetica-37"/>
       <use x="139.013672" xlink:href="#Helvetica-35"/>
      </g>
     </g>
    </g>
    <g id="ytick_5">
     <g id="line2d_8">
      <path clip-path="url(#p561f4b962e)" d="M 94.94 28.8 
L 338.4 28.8 
" style="fill:none;stroke:#cccccc;stroke-linecap:round;stroke-width:0.8;"/>
     </g>
     <g id="text_8">
      <!-- 1.0 -->
      <g style="fill:#262626;" transform="translate(60.14 35.973437)scale(0.2 -0.2)">
       <use xlink:href="#Helvetica-31"/>
       <use x="55.615234" xlink:href="#Helvetica-2e"/>
       <use x="83.398438" xlink:href="#Helvetica-30"/>
      </g>
     </g>
    </g>
    <g id="text_9">
     <!-- Probability -->
     <g style="fill:#262626;" transform="translate(39.65875 143.579375)rotate(-90)scale(0.25 -0.25)">
      <defs>
       <path d="M 428 3347 
L 963 3347 
L 963 2769 
Q 1028 2938 1284 3180 
Q 1541 3422 1875 3422 
Q 1891 3422 1928 3419 
Q 1966 3416 2056 3406 
L 2056 2813 
Q 2006 2822 1964 2825 
Q 1922 2828 1872 2828 
Q 1447 2828 1219 2554 
Q 991 2281 991 1925 
L 991 0 
L 428 0 
L 428 3347 
z
" id="Helvetica-72" transform="scale(0.015625)"/>
       <path d="M 369 4606 
L 916 4606 
L 916 2941 
Q 1100 3181 1356 3307 
Q 1613 3434 1913 3434 
Q 2538 3434 2927 3004 
Q 3316 2575 3316 1738 
Q 3316 944 2931 419 
Q 2547 -106 1866 -106 
Q 1484 -106 1222 78 
Q 1066 188 888 428 
L 888 0 
L 369 0 
L 369 4606 
z
M 1831 391 
Q 2288 391 2514 753 
Q 2741 1116 2741 1709 
Q 2741 2238 2514 2584 
Q 2288 2931 1847 2931 
Q 1463 2931 1173 2647 
Q 884 2363 884 1709 
Q 884 1238 1003 944 
Q 1225 391 1831 391 
z
" id="Helvetica-62" transform="scale(0.015625)"/>
       <path d="M 844 891 
Q 844 647 1022 506 
Q 1200 366 1444 366 
Q 1741 366 2019 503 
Q 2488 731 2488 1250 
L 2488 1703 
Q 2384 1638 2221 1594 
Q 2059 1550 1903 1531 
L 1563 1488 
Q 1256 1447 1103 1359 
Q 844 1213 844 891 
z
M 2206 2028 
Q 2400 2053 2466 2191 
Q 2503 2266 2503 2406 
Q 2503 2694 2298 2823 
Q 2094 2953 1713 2953 
Q 1272 2953 1088 2716 
Q 984 2584 953 2325 
L 428 2325 
Q 444 2944 830 3186 
Q 1216 3428 1725 3428 
Q 2316 3428 2684 3203 
Q 3050 2978 3050 2503 
L 3050 575 
Q 3050 488 3086 434 
Q 3122 381 3238 381 
Q 3275 381 3322 386 
Q 3369 391 3422 400 
L 3422 -16 
Q 3291 -53 3222 -62 
Q 3153 -72 3034 -72 
Q 2744 -72 2613 134 
Q 2544 244 2516 444 
Q 2344 219 2022 53 
Q 1700 -113 1313 -113 
Q 847 -113 551 170 
Q 256 453 256 878 
Q 256 1344 547 1600 
Q 838 1856 1309 1916 
L 2206 2028 
z
M 1741 3428 
L 1741 3428 
z
" id="Helvetica-61" transform="scale(0.015625)"/>
       <path d="M 428 4591 
L 991 4591 
L 991 0 
L 428 0 
L 428 4591 
z
" id="Helvetica-6c" transform="scale(0.015625)"/>
       <path d="M 2503 3347 
L 3125 3347 
Q 3006 3025 2597 1878 
Q 2291 1016 2084 472 
Q 1597 -809 1397 -1090 
Q 1197 -1372 709 -1372 
Q 591 -1372 527 -1362 
Q 463 -1353 369 -1328 
L 369 -816 
Q 516 -856 581 -865 
Q 647 -875 697 -875 
Q 853 -875 926 -823 
Q 1000 -772 1050 -697 
Q 1066 -672 1162 -440 
Q 1259 -209 1303 -97 
L 66 3347 
L 703 3347 
L 1600 622 
L 2503 3347 
z
M 1597 3428 
L 1597 3428 
z
" id="Helvetica-79" transform="scale(0.015625)"/>
      </defs>
      <use xlink:href="#Helvetica-50"/>
      <use x="66.699219" xlink:href="#Helvetica-72"/>
      <use x="100" xlink:href="#Helvetica-6f"/>
      <use x="155.615234" xlink:href="#Helvetica-62"/>
      <use x="211.230469" xlink:href="#Helvetica-61"/>
      <use x="266.845703" xlink:href="#Helvetica-62"/>
      <use x="322.460938" xlink:href="#Helvetica-69"/>
      <use x="344.677734" xlink:href="#Helvetica-6c"/>
      <use x="366.894531" xlink:href="#Helvetica-69"/>
      <use x="389.111328" xlink:href="#Helvetica-74"/>
      <use x="416.894531" xlink:href="#Helvetica-79"/>
     </g>
    </g>
   </g>
   <g id="patch_83">
    <path d="M 94.94 141.64 
L 94.94 28.8 
" style="fill:none;stroke:#000000;stroke-linecap:square;stroke-linejoin:miter;"/>
   </g>
  </g>
 </g>
 <defs>
  <clipPath id="p561f4b962e">
   <rect height="112.84" width="243.46" x="94.94" y="28.8"/>
  </clipPath>
 </defs>
</svg>
