<?xml version="1.0" encoding="utf-8" standalone="no"?>
<!DOCTYPE svg PUBLIC "-//W3C//DTD SVG 1.1//EN"
  "http://www.w3.org/Graphics/SVG/1.1/DTD/svg11.dtd">
<svg height="216pt" version="1.1" viewBox="0 0 360 216" width="360pt" xmlns="http://www.w3.org/2000/svg" xmlns:xlink="http://www.w3.org/1999/xlink">
 <metadata>
  <rdf:RDF xmlns:cc="http://creativecommons.org/ns#" xmlns:dc="http://purl.org/dc/elements/1.1/" xmlns:rdf="http://www.w3.org/1999/02/22-rdf-syntax-ns#">
   <cc:Work>
    <dc:type rdf:resource="http://purl.org/dc/dcmitype/StillImage"/>
    <dc:date>2022-01-23T21:25:46.505303</dc:date>
    <dc:format>image/svg+xml</dc:format>
    <dc:creator>
     <cc:Agent>
      <dc:title>Matplotlib v3.4.2, https://matplotlib.org/</dc:title>
     </cc:Agent>
    </dc:creator>
   </cc:Work>
  </rdf:RDF>
 </metadata>
 <defs>
  <style type="text/css">*{stroke-linecap:butt;stroke-linejoin:round;}</style>
 </defs>
 <g id="figure_1">
  <g id="patch_1">
   <path d="M 0 216 
L 360 216 
L 360 0 
L 0 0 
z
" style="fill:#ffffff;"/>
  </g>
  <g id="axes_1">
   <g id="patch_2">
    <path d="M 94.94 141.64 
L 338.4 141.64 
L 338.4 28.8 
L 94.94 28.8 
z
" style="fill:#ffffff;"/>
   </g>
   <g id="line2d_1">
    <path clip-path="url(#p66c8e028a9)" d="M 94.94 141.64 
L 338.4 141.64 
" style="fill:none;stroke:#000000;stroke-linecap:round;stroke-width:0.5;"/>
   </g>
   <g id="patch_3">
    <path clip-path="url(#p66c8e028a9)" d="M 106.533333 118.317736 
L 106.533333 121.096494 
L 101.718599 121.096494 
L 101.718599 141.64 
L 99.754735 141.64 
L 99.754735 121.096494 
L 94.94 121.096494 
L 94.94 118.317736 
L 106.533333 118.317736 
z
" style="fill:#ff0000;"/>
   </g>
   <g id="patch_4">
    <path clip-path="url(#p66c8e028a9)" d="M 100.919108 90.130089 
Q 102.707589 90.130089 104.012322 91.588775 
Q 105.903081 93.683448 106.326013 98.934717 
L 104.62599 98.934717 
Q 104.313627 95.999841 103.337841 94.65785 
Q 102.362055 93.315859 100.87488 93.315859 
Q 99.114042 93.315859 97.908822 96.110701 
Q 96.703602 98.899709 96.703602 104.425211 
Q 96.703602 109.198031 97.695974 112.197089 
Q 98.69111 115.196148 100.935694 115.196148 
Q 102.655068 115.196148 103.782888 113.09564 
Q 104.910709 110.989297 104.935587 106.280659 
L 100.963337 106.280659 
L 100.963337 103.275766 
L 106.533333 103.275766 
L 106.533333 117.605897 
L 105.427627 117.605897 
L 105.012987 114.157563 
Q 104.142243 116.182219 103.467762 116.96991 
Q 102.334413 118.317736 100.590161 118.317736 
Q 98.337283 118.317736 96.711895 115.236991 
Q 94.94 111.368556 94.94 104.623592 
Q 94.94 97.896133 96.667667 93.922672 
Q 98.309641 90.130089 100.919108 90.130089 
z
M 100.634389 90.089246 
L 100.634389 90.089246 
z
" style="fill:#ffa600;"/>
   </g>
   <g id="patch_5">
    <path clip-path="url(#p66c8e028a9)" d="M 102.72171 78.151891 
L 100.7494 65.281634 
L 98.652583 78.151891 
L 102.72171 78.151891 
z
M 99.829744 60.95347 
L 101.819032 60.95347 
L 106.533333 90.089246 
L 104.603469 90.089246 
L 103.287653 81.363109 
L 98.148894 81.363109 
L 96.742527 90.089246 
L 94.94 90.089246 
L 99.829744 60.95347 
z
M 100.740911 60.95347 
L 100.740911 60.95347 
z
" style="fill:#008000;"/>
   </g>
   <g id="patch_6">
    <path clip-path="url(#p66c8e028a9)" d="M 101.035611 28.8 
Q 103.518269 28.8 104.887718 31.859069 
Q 106.257166 34.911487 106.408062 38.795174 
L 104.682728 38.795174 
Q 104.389478 35.849158 103.512575 34.126769 
Q 102.635673 32.397731 101.052693 32.397731 
Q 99.122369 32.397731 97.935134 35.569852 
Q 96.747899 38.735323 96.747899 45.279069 
Q 96.747899 50.645739 97.818404 53.984114 
Q 98.891755 57.315839 101.018528 57.315839 
Q 102.974476 57.315839 103.999427 53.80456 
Q 104.540373 51.955819 104.807999 48.936651 
L 106.533333 48.936651 
Q 106.302719 53.758009 105.004448 57.023232 
Q 103.447092 60.95347 100.804997 60.95347 
Q 98.527328 60.95347 96.978513 57.728148 
Q 94.94 53.472053 94.94 44.574153 
Q 94.94 37.824252 96.471732 33.501655 
Q 98.125889 28.8 101.035611 28.8 
z
M 100.679725 28.8 
L 100.679725 28.8 
z
" style="fill:#0000ff;"/>
   </g>
   <g id="patch_7">
    <path clip-path="url(#p66c8e028a9)" d="M 114.925219 130.878435 
L 112.952909 119.275854 
L 110.856092 130.878435 
L 114.925219 130.878435 
z
M 112.033252 115.374 
L 114.022541 115.374 
L 118.736842 141.64 
L 116.806978 141.64 
L 115.491162 133.773359 
L 110.352403 133.773359 
L 108.946036 141.64 
L 107.143509 141.64 
L 112.033252 115.374 
z
M 112.94442 115.374 
L 112.94442 115.374 
z
" style="fill:#008000;"/>
   </g>
   <g id="patch_8">
    <path clip-path="url(#p66c8e028a9)" d="M 113.122617 87.260206 
Q 114.911097 87.260206 116.215831 88.715071 
Q 118.106589 90.804255 118.529522 96.041766 
L 116.829498 96.041766 
Q 116.517136 93.11458 115.54135 91.776105 
Q 114.565564 90.43763 113.078389 90.43763 
Q 111.317551 90.43763 110.112331 93.225149 
Q 108.907111 96.006849 108.907111 101.517875 
Q 108.907111 106.27819 109.899482 109.26939 
Q 110.894618 112.260591 113.139203 112.260591 
Q 114.858576 112.260591 115.986397 110.165587 
Q 117.114218 108.064763 117.139096 103.368462 
L 113.166845 103.368462 
L 113.166845 100.371442 
L 118.736842 100.371442 
L 118.736842 114.664027 
L 117.631136 114.664027 
L 117.216496 111.224728 
Q 116.345752 113.244079 115.671271 114.029706 
Q 114.537921 115.374 112.793669 115.374 
Q 110.540792 115.374 108.915404 112.301327 
Q 107.143509 108.443028 107.143509 101.715736 
Q 107.143509 95.005903 108.871175 91.042853 
Q 110.51315 87.260206 113.122617 87.260206 
z
M 112.837898 87.21947 
L 112.837898 87.21947 
z
" style="fill:#ffa600;"/>
   </g>
   <g id="patch_9">
    <path clip-path="url(#p66c8e028a9)" d="M 118.736842 58.99098 
L 118.736842 62.354296 
L 113.922107 62.354296 
L 113.922107 87.21947 
L 111.958243 87.21947 
L 111.958243 62.354296 
L 107.143509 62.354296 
L 107.143509 58.99098 
L 118.736842 58.99098 
z
" style="fill:#ff0000;"/>
   </g>
   <g id="patch_10">
    <path clip-path="url(#p66c8e028a9)" d="M 113.239119 28.8 
Q 115.721778 28.8 117.091227 31.672358 
Q 118.460675 34.538472 118.61157 38.185118 
L 116.886236 38.185118 
Q 116.592987 35.418912 115.716084 33.801649 
Q 114.839182 32.178143 113.256202 32.178143 
Q 111.325878 32.178143 110.138643 35.156653 
Q 108.951408 38.128919 108.951408 44.273268 
Q 108.951408 49.312383 110.021913 52.446999 
Q 111.095264 55.575372 113.222037 55.575372 
Q 115.177985 55.575372 116.202936 52.278404 
Q 116.743882 50.542501 117.011508 47.707609 
L 118.736842 47.707609 
Q 118.506228 52.234695 117.207957 55.300625 
Q 115.650601 58.99098 113.008505 58.99098 
Q 110.730837 58.99098 109.182022 55.962516 
Q 107.143509 51.966192 107.143509 43.611376 
Q 107.143509 37.273456 108.675241 33.214689 
Q 110.329398 28.8 113.239119 28.8 
z
M 112.883234 28.8 
L 112.883234 28.8 
z
" style="fill:#0000ff;"/>
   </g>
   <g id="patch_11">
    <path clip-path="url(#p66c8e028a9)" d="M 130.940351 117.33649 
L 130.940351 120.23216 
L 126.125616 120.23216 
L 126.125616 141.64 
L 124.161752 141.64 
L 124.161752 120.23216 
L 119.347018 120.23216 
L 119.347018 117.33649 
L 130.940351 117.33649 
z
" style="fill:#ff0000;"/>
   </g>
   <g id="patch_12">
    <path clip-path="url(#p66c8e028a9)" d="M 127.128728 106.605228 
L 125.156418 95.035318 
L 123.059601 106.605228 
L 127.128728 106.605228 
z
M 124.236761 91.144451 
L 126.226049 91.144451 
L 130.940351 117.33649 
L 129.010487 117.33649 
L 127.69467 109.492 
L 122.555912 109.492 
L 121.149545 117.33649 
L 119.347018 117.33649 
L 124.236761 91.144451 
z
M 125.147929 91.144451 
L 125.147929 91.144451 
z
" style="fill:#008000;"/>
   </g>
   <g id="patch_13">
    <path clip-path="url(#p66c8e028a9)" d="M 125.442628 59.972225 
Q 127.925287 59.972225 129.294735 62.937939 
Q 130.664184 65.897205 130.815079 69.662371 
L 129.089745 69.662371 
Q 128.796495 66.80626 127.919593 65.136435 
Q 127.04269 63.460162 125.459711 63.460162 
Q 123.529387 63.460162 122.342152 66.535478 
Q 121.154917 69.604346 121.154917 75.948394 
Q 121.154917 81.151286 122.225421 84.387782 
Q 123.298773 87.617831 125.425546 87.617831 
Q 127.381494 87.617831 128.406445 84.213708 
Q 128.947391 82.421385 129.215017 79.494355 
L 130.940351 79.494355 
Q 130.709737 84.168577 129.411466 87.334154 
Q 127.85411 91.144451 125.212014 91.144451 
Q 122.934346 91.144451 121.385531 88.017557 
Q 119.347018 83.891348 119.347018 75.26499 
Q 119.347018 68.721079 120.87875 64.530398 
Q 122.532907 59.972225 125.442628 59.972225 
z
M 125.086742 59.972225 
L 125.086742 59.972225 
z
" style="fill:#0000ff;"/>
   </g>
   <g id="patch_14">
    <path clip-path="url(#p66c8e028a9)" d="M 125.326126 28.845102 
Q 127.114606 28.845102 128.41934 30.455904 
Q 130.310098 32.769014 130.733031 38.567899 
L 129.033007 38.567899 
Q 128.720645 35.326967 127.744859 33.845029 
Q 126.769073 32.363092 125.281898 32.363092 
Q 123.52106 32.363092 122.31584 35.449387 
Q 121.11062 38.529239 121.11062 44.630954 
Q 121.11062 49.901496 122.102991 53.213303 
Q 123.098127 56.525111 125.342711 56.525111 
Q 127.062085 56.525111 128.189906 54.205557 
Q 129.317726 51.87956 129.342605 46.679894 
L 125.370354 46.679894 
L 125.370354 43.361643 
L 130.940351 43.361643 
L 130.940351 59.186154 
L 129.834644 59.186154 
L 129.420004 55.37822 
Q 128.54926 57.614012 127.874779 58.483845 
Q 126.74143 59.972225 124.997178 59.972225 
Q 122.744301 59.972225 121.118912 56.570213 
Q 119.347018 52.298368 119.347018 44.850023 
Q 119.347018 37.421008 121.074684 33.033186 
Q 122.716658 28.845102 125.326126 28.845102 
z
M 125.041406 28.8 
L 125.041406 28.8 
z
" style="fill:#ffa600;"/>
   </g>
   <g id="patch_15">
    <path clip-path="url(#p66c8e028a9)" d="M 137.646137 118.391696 
Q 140.128796 118.391696 141.498244 120.60353 
Q 142.867692 122.810556 143.018588 125.618625 
L 141.293254 125.618625 
Q 141.000004 123.488532 140.123102 122.243173 
Q 139.246199 120.993005 137.66322 120.993005 
Q 135.732895 120.993005 134.545661 123.286582 
Q 133.358426 125.57535 133.358426 130.306752 
Q 133.358426 134.187079 134.42893 136.600864 
Q 135.502281 139.00984 137.629054 139.00984 
Q 139.585002 139.00984 140.609953 136.471039 
Q 141.1509 135.134321 141.418526 132.951337 
L 143.14386 132.951337 
Q 142.913246 136.43738 141.614975 138.798273 
Q 140.057619 141.64 137.415523 141.64 
Q 135.137854 141.64 133.58904 139.307957 
Q 131.550526 136.230622 131.550526 129.797068 
Q 131.550526 124.916607 133.082258 121.791189 
Q 134.736415 118.391696 137.646137 118.391696 
z
M 137.290251 118.391696 
L 137.290251 118.391696 
z
" style="fill:#0000ff;"/>
   </g>
   <g id="patch_16">
    <path clip-path="url(#p66c8e028a9)" d="M 143.14386 94.088186 
L 143.14386 96.983856 
L 138.329125 96.983856 
L 138.329125 118.391696 
L 136.365261 118.391696 
L 136.365261 96.983856 
L 131.550526 96.983856 
L 131.550526 94.088186 
L 143.14386 94.088186 
z
" style="fill:#ff0000;"/>
   </g>
   <g id="patch_17">
    <path clip-path="url(#p66c8e028a9)" d="M 139.332237 82.92459 
L 137.359927 70.888561 
L 135.26311 82.92459 
L 139.332237 82.92459 
z
M 136.44027 66.840941 
L 138.429558 66.840941 
L 143.14386 94.088186 
L 141.213996 94.088186 
L 139.898179 85.927663 
L 134.759421 85.927663 
L 133.353053 94.088186 
L 131.550526 94.088186 
L 136.44027 66.840941 
z
M 137.351438 66.840941 
L 137.351438 66.840941 
z
" style="fill:#008000;"/>
   </g>
   <g id="patch_18">
    <path clip-path="url(#p66c8e028a9)" d="M 137.529635 28.855041 
Q 139.318115 28.855041 140.622849 30.820778 
Q 142.513607 33.643576 142.93654 40.720229 
L 141.236516 40.720229 
Q 140.924154 36.765166 139.948368 34.956688 
Q 138.972582 33.14821 137.485406 33.14821 
Q 135.724569 33.14821 134.519348 36.914562 
Q 133.314128 40.673051 133.314128 48.119263 
Q 133.314128 54.551154 134.3065 58.592709 
Q 135.301636 62.634264 137.54622 62.634264 
Q 139.265594 62.634264 140.393415 59.803603 
Q 141.521235 56.965079 141.546114 50.61968 
L 137.573863 50.61968 
L 137.573863 46.570262 
L 143.14386 46.570262 
L 143.14386 65.881662 
L 142.038153 65.881662 
L 141.623513 61.234659 
Q 140.752769 63.963102 140.078288 65.0246 
Q 138.944939 66.840941 137.200687 66.840941 
Q 134.94781 66.840941 133.322421 62.689305 
Q 131.550526 57.47617 131.550526 48.386603 
Q 131.550526 39.320624 133.278193 33.965957 
Q 134.920167 28.855041 137.529635 28.855041 
z
M 137.244915 28.8 
L 137.244915 28.8 
z
" style="fill:#ffa600;"/>
   </g>
   <g id="patch_19">
    <path clip-path="url(#p66c8e028a9)" d="M 155.347368 117.33649 
L 155.347368 120.23216 
L 150.532634 120.23216 
L 150.532634 141.64 
L 148.56877 141.64 
L 148.56877 120.23216 
L 143.754035 120.23216 
L 143.754035 117.33649 
L 155.347368 117.33649 
z
" style="fill:#ff0000;"/>
   </g>
   <g id="patch_20">
    <path clip-path="url(#p66c8e028a9)" d="M 149.849646 92.125696 
Q 152.332305 92.125696 153.701753 94.524241 
Q 155.071201 96.917572 155.222097 99.962681 
L 153.496763 99.962681 
Q 153.203513 97.652778 152.32661 96.302293 
Q 151.449708 94.946593 149.866728 94.946593 
Q 147.936404 94.946593 146.749169 97.43378 
Q 145.561935 99.915753 145.561935 105.046554 
Q 145.561935 109.254436 146.632439 111.871979 
Q 147.70579 114.484307 149.832563 114.484307 
Q 151.788511 114.484307 152.813462 111.731195 
Q 153.354408 110.281639 153.622034 107.91438 
L 155.347368 107.91438 
Q 155.116754 111.694695 153.818483 114.254881 
Q 152.261127 117.33649 149.619032 117.33649 
Q 147.341363 117.33649 145.792549 114.80759 
Q 143.754035 111.470483 143.754035 104.493846 
Q 143.754035 99.201404 145.285767 95.812155 
Q 146.939924 92.125696 149.849646 92.125696 
z
M 149.49376 92.125696 
L 149.49376 92.125696 
z
" style="fill:#0000ff;"/>
   </g>
   <g id="patch_21">
    <path clip-path="url(#p66c8e028a9)" d="M 149.733143 60.998573 
Q 151.521624 60.998573 152.826357 62.609374 
Q 154.717116 64.922485 155.140048 70.721369 
L 153.440025 70.721369 
Q 153.127662 67.480437 152.151876 65.9985 
Q 151.17609 64.516563 149.688915 64.516563 
Q 147.928077 64.516563 146.722857 67.602858 
Q 145.517637 70.68271 145.517637 76.784425 
Q 145.517637 82.054967 146.510009 85.366774 
Q 147.505145 88.678581 149.749729 88.678581 
Q 151.469103 88.678581 152.596923 86.359027 
Q 153.724744 84.03303 153.749622 78.833364 
L 149.777372 78.833364 
L 149.777372 75.515114 
L 155.347368 75.515114 
L 155.347368 91.339625 
L 154.241662 91.339625 
L 153.827022 87.531691 
Q 152.956278 89.767483 152.281797 90.637315 
Q 151.148448 92.125696 149.404196 92.125696 
Q 147.151319 92.125696 145.52593 88.723684 
Q 143.754035 84.451839 143.754035 77.003494 
Q 143.754035 69.574479 145.481702 65.186656 
Q 147.123676 60.998573 149.733143 60.998573 
z
M 149.448424 60.95347 
L 149.448424 60.95347 
z
" style="fill:#ffa600;"/>
   </g>
   <g id="patch_22">
    <path clip-path="url(#p66c8e028a9)" d="M 151.535745 47.779722 
L 149.563435 33.576447 
L 147.466618 47.779722 
L 151.535745 47.779722 
z
M 148.643779 28.8 
L 150.633067 28.8 
L 155.347368 60.95347 
L 153.417504 60.95347 
L 152.101688 51.323538 
L 146.962929 51.323538 
L 145.556562 60.95347 
L 143.754035 60.95347 
L 148.643779 28.8 
z
M 149.554946 28.8 
L 149.554946 28.8 
z
" style="fill:#008000;"/>
   </g>
   <g id="patch_23">
    <path clip-path="url(#p66c8e028a9)" d="M 162.053155 119.298981 
Q 164.535813 119.298981 165.905262 121.424496 
Q 167.27471 123.545392 167.425605 126.243873 
L 165.700271 126.243873 
Q 165.407022 124.196908 164.530119 123.000151 
Q 163.653217 121.798772 162.070237 121.798772 
Q 160.139913 121.798772 158.952678 124.00284 
Q 157.765443 126.202286 157.765443 130.749042 
Q 157.765443 134.477936 158.835948 136.797521 
Q 159.909299 139.112484 162.036072 139.112484 
Q 163.99202 139.112484 165.016971 136.672762 
Q 165.557917 135.388211 165.825543 133.290419 
L 167.550877 133.290419 
Q 167.320263 136.640417 166.021992 138.909174 
Q 164.464636 141.64 161.822541 141.64 
Q 159.544872 141.64 157.996057 139.398967 
Q 155.957544 136.441728 155.957544 130.259249 
Q 155.957544 125.569252 157.489276 122.565806 
Q 159.143433 119.298981 162.053155 119.298981 
z
M 161.697269 119.298981 
L 161.697269 119.298981 
z
" style="fill:#0000ff;"/>
   </g>
   <g id="patch_24">
    <path clip-path="url(#p66c8e028a9)" d="M 161.936652 92.091159 
Q 163.725132 92.091159 165.029866 93.49914 
Q 166.920624 95.521001 167.343557 100.589731 
L 165.643533 100.589731 
Q 165.331171 97.756874 164.355385 96.461532 
Q 163.379599 95.166189 161.892424 95.166189 
Q 160.131586 95.166189 158.926366 97.863881 
Q 157.721146 100.55594 157.721146 105.889371 
Q 157.721146 110.496285 158.713517 113.391093 
Q 159.708653 116.285902 161.953238 116.285902 
Q 163.672611 116.285902 164.800432 114.258409 
Q 165.928253 112.225285 165.953131 107.680323 
L 161.98088 107.680323 
L 161.98088 104.779882 
L 167.550877 104.779882 
L 167.550877 118.611886 
L 166.445171 118.611886 
L 166.030531 115.283419 
Q 165.159787 117.237697 164.485306 117.998006 
Q 163.351957 119.298981 161.607704 119.298981 
Q 159.354827 119.298981 157.729439 116.325325 
Q 155.957544 112.59136 155.957544 106.080857 
Q 155.957544 99.587249 157.68521 95.751909 
Q 159.327185 92.091159 161.936652 92.091159 
z
M 161.651933 92.051736 
L 161.651933 92.051736 
z
" style="fill:#ffa600;"/>
   </g>
   <g id="patch_25">
    <path clip-path="url(#p66c8e028a9)" d="M 167.550877 61.860756 
L 167.550877 65.457895 
L 162.736143 65.457895 
L 162.736143 92.051736 
L 160.772279 92.051736 
L 160.772279 65.457895 
L 155.957544 65.457895 
L 155.957544 61.860756 
L 167.550877 61.860756 
z
" style="fill:#ff0000;"/>
   </g>
   <g id="patch_26">
    <path clip-path="url(#p66c8e028a9)" d="M 163.739254 48.315279 
L 161.766944 33.711225 
L 159.670127 48.315279 
L 163.739254 48.315279 
z
M 160.847288 28.8 
L 162.836576 28.8 
L 167.550877 61.860756 
L 165.621013 61.860756 
L 164.305197 51.959092 
L 159.166438 51.959092 
L 157.760071 61.860756 
L 155.957544 61.860756 
L 160.847288 28.8 
z
M 161.758455 28.8 
L 161.758455 28.8 
z
" style="fill:#008000;"/>
   </g>
   <g id="patch_27">
    <path clip-path="url(#p66c8e028a9)" d="M 175.942763 134.094679 
L 173.970453 125.959692 
L 171.873636 134.094679 
L 175.942763 134.094679 
z
M 173.050796 123.223961 
L 175.040084 123.223961 
L 179.754386 141.64 
L 177.824522 141.64 
L 176.508705 136.124414 
L 171.369947 136.124414 
L 169.96358 141.64 
L 168.161053 141.64 
L 173.050796 123.223961 
z
M 173.961964 123.223961 
L 173.961964 123.223961 
z
" style="fill:#008000;"/>
   </g>
   <g id="patch_28">
    <path clip-path="url(#p66c8e028a9)" d="M 174.256663 94.014226 
Q 176.739322 94.014226 178.10877 96.793229 
Q 179.478219 99.56619 179.629114 103.094315 
L 177.90378 103.094315 
Q 177.61053 100.418015 176.733628 98.853316 
Q 175.856726 97.282575 174.273746 97.282575 
Q 172.343422 97.282575 171.156187 100.16428 
Q 169.968952 103.039944 169.968952 108.984593 
Q 169.968952 113.85993 171.039456 116.892668 
Q 172.112808 119.919364 174.239581 119.919364 
Q 176.195529 119.919364 177.22048 116.729553 
Q 177.761426 115.050068 178.029052 112.307313 
L 179.754386 112.307313 
Q 179.523772 116.687263 178.225501 119.653547 
Q 176.668145 123.223961 174.026049 123.223961 
Q 171.748381 123.223961 170.199566 120.293926 
Q 168.161053 116.427487 168.161053 108.344214 
Q 168.161053 102.212284 169.692785 98.285432 
Q 171.346942 94.014226 174.256663 94.014226 
z
M 173.900778 94.014226 
L 173.900778 94.014226 
z
" style="fill:#0000ff;"/>
   </g>
   <g id="patch_29">
    <path clip-path="url(#p66c8e028a9)" d="M 174.140161 63.940781 
Q 175.928641 63.940781 177.233375 65.497056 
Q 179.124133 67.731866 179.547066 73.334453 
L 177.847042 73.334453 
Q 177.53468 70.203229 176.558894 68.771457 
Q 175.583108 67.339685 174.095933 67.339685 
Q 172.335095 67.339685 171.129875 70.321506 
Q 169.924655 73.297103 169.924655 79.19227 
Q 169.924655 84.284399 170.917026 87.484099 
Q 171.912162 90.683799 174.156746 90.683799 
Q 175.87612 90.683799 177.003941 88.442764 
Q 178.131762 86.195504 178.15664 81.171851 
L 174.184389 81.171851 
L 174.184389 77.965925 
L 179.754386 77.965925 
L 179.754386 93.254764 
L 178.648679 93.254764 
L 178.234039 89.575732 
Q 177.363296 91.73584 176.688815 92.576229 
Q 175.555465 94.014226 173.811213 94.014226 
Q 171.558336 94.014226 169.932947 90.727375 
Q 168.161053 86.600135 168.161053 79.403923 
Q 168.161053 72.226386 169.888719 67.987095 
Q 171.530693 63.940781 174.140161 63.940781 
z
M 173.855441 63.897206 
L 173.855441 63.897206 
z
" style="fill:#ffa600;"/>
   </g>
   <g id="patch_30">
    <path clip-path="url(#p66c8e028a9)" d="M 179.754386 28.8 
L 179.754386 32.981697 
L 174.939651 32.981697 
L 174.939651 63.897206 
L 172.975787 63.897206 
L 172.975787 32.981697 
L 168.161053 32.981697 
L 168.161053 28.8 
L 179.754386 28.8 
z
" style="fill:#ff0000;"/>
   </g>
   <g id="patch_31">
    <path clip-path="url(#p66c8e028a9)" d="M 186.460172 117.33649 
Q 188.942831 117.33649 190.312279 119.648717 
Q 191.681727 121.955917 191.832623 124.891439 
L 190.107289 124.891439 
Q 189.814039 122.664664 188.937137 121.36278 
Q 188.060234 120.05587 186.477255 120.05587 
Q 184.54693 120.05587 183.359696 122.453548 
Q 182.172461 124.8462 182.172461 129.792353 
Q 182.172461 133.848803 183.242965 136.372145 
Q 184.316316 138.890461 186.44309 138.890461 
Q 188.399038 138.890461 189.423988 136.236428 
Q 189.964935 134.839039 190.232561 132.556972 
L 191.957895 132.556972 
Q 191.727281 136.201242 190.42901 138.669292 
Q 188.871654 141.64 186.229558 141.64 
Q 183.951889 141.64 182.403075 139.202109 
Q 180.364561 135.985099 180.364561 129.259536 
Q 180.364561 124.157558 181.896294 120.890282 
Q 183.55045 117.33649 186.460172 117.33649 
z
M 186.104286 117.33649 
L 186.104286 117.33649 
z
" style="fill:#0000ff;"/>
   </g>
   <g id="patch_32">
    <path clip-path="url(#p66c8e028a9)" d="M 191.957895 91.144451 
L 191.957895 94.265132 
L 187.14316 94.265132 
L 187.14316 117.33649 
L 185.179296 117.33649 
L 185.179296 94.265132 
L 180.364561 94.265132 
L 180.364561 91.144451 
L 191.957895 91.144451 
z
" style="fill:#ff0000;"/>
   </g>
   <g id="patch_33">
    <path clip-path="url(#p66c8e028a9)" d="M 186.34367 61.976979 
Q 188.13215 61.976979 189.436884 63.48637 
Q 191.327642 65.653855 191.750575 71.087663 
L 190.050551 71.087663 
Q 189.738189 68.050768 188.762403 66.662128 
Q 187.786617 65.273489 186.299441 65.273489 
Q 184.538604 65.273489 183.333384 68.165482 
Q 182.128163 71.051437 182.128163 76.769011 
Q 182.128163 81.707738 183.120535 84.811046 
Q 184.115671 87.914354 186.360255 87.914354 
Q 188.079629 87.914354 189.20745 85.740831 
Q 190.33527 83.56127 190.360149 78.688956 
L 186.387898 78.688956 
L 186.387898 75.57961 
L 191.957895 75.57961 
L 191.957895 90.407868 
L 190.852188 90.407868 
L 190.437548 86.839667 
Q 189.566804 88.934702 188.892323 89.749773 
Q 187.758974 91.144451 186.014722 91.144451 
Q 183.761845 91.144451 182.136456 87.956617 
Q 180.364561 83.953712 180.364561 76.974288 
Q 180.364561 70.012976 182.092228 65.901395 
Q 183.734202 61.976979 186.34367 61.976979 
z
M 186.05895 61.934716 
L 186.05895 61.934716 
z
" style="fill:#ffa600;"/>
   </g>
   <g id="patch_34">
    <path clip-path="url(#p66c8e028a9)" d="M 188.146272 48.358937 
L 186.173962 33.722212 
L 184.077145 48.358937 
L 188.146272 48.358937 
z
M 185.254305 28.8 
L 187.243593 28.8 
L 191.957895 61.934716 
L 190.028031 61.934716 
L 188.712214 52.010901 
L 183.573456 52.010901 
L 182.167088 61.934716 
L 180.364561 61.934716 
L 185.254305 28.8 
z
M 186.165473 28.8 
L 186.165473 28.8 
z
" style="fill:#008000;"/>
   </g>
   <g id="patch_35">
    <path clip-path="url(#p66c8e028a9)" d="M 198.547178 121.290956 
Q 200.335659 121.290956 201.640393 122.344001 
Q 203.531151 123.856174 203.954084 127.647136 
L 202.25406 127.647136 
Q 201.941698 125.52841 200.965912 124.559608 
Q 199.990125 123.590807 198.50295 123.590807 
Q 196.742112 123.590807 195.536892 125.608441 
Q 194.331672 127.621863 194.331672 131.610798 
Q 194.331672 135.056362 195.324044 137.221423 
Q 196.31918 139.386483 198.563764 139.386483 
Q 200.283138 139.386483 201.410958 137.870098 
Q 202.538779 136.349501 202.563658 132.950272 
L 198.591407 132.950272 
L 198.591407 130.780999 
L 204.161404 130.780999 
L 204.161404 141.126114 
L 203.055697 141.126114 
L 202.641057 138.636715 
Q 201.770313 140.098342 201.095832 140.666986 
Q 199.962483 141.64 198.218231 141.64 
Q 195.965354 141.64 194.339965 139.415969 
Q 192.56807 136.623293 192.56807 131.754012 
Q 192.56807 126.897368 194.295737 124.028873 
Q 195.937711 121.290956 198.547178 121.290956 
z
M 198.262459 121.261471 
L 198.262459 121.261471 
z
" style="fill:#ffa600;"/>
   </g>
   <g id="patch_36">
    <path clip-path="url(#p66c8e028a9)" d="M 198.663681 94.995471 
Q 201.14634 94.995471 202.515788 97.494408 
Q 203.885236 99.987912 204.036132 103.160476 
L 202.310798 103.160476 
Q 202.017548 100.753891 201.140645 99.346881 
Q 200.263743 97.934438 198.680763 97.934438 
Q 196.750439 97.934438 195.563204 100.525727 
Q 194.37597 103.111584 194.37597 108.457136 
Q 194.37597 112.84114 195.446474 115.568241 
Q 196.519825 118.289909 198.646598 118.289909 
Q 200.602546 118.289909 201.627497 115.421564 
Q 202.168443 113.911337 202.43607 111.444995 
L 204.161404 111.444995 
Q 203.93079 115.383537 202.632518 118.05088 
Q 201.075163 121.261471 198.433067 121.261471 
Q 196.155398 121.261471 194.606584 118.626722 
Q 192.56807 115.14994 192.56807 107.881294 
Q 192.56807 102.367335 194.099802 98.836228 
Q 195.753959 94.995471 198.663681 94.995471 
z
M 198.307795 94.995471 
L 198.307795 94.995471 
z
" style="fill:#0000ff;"/>
   </g>
   <g id="patch_37">
    <path clip-path="url(#p66c8e028a9)" d="M 200.34978 82.625784 
L 198.377471 69.289407 
L 196.280653 82.625784 
L 200.34978 82.625784 
z
M 197.457814 64.804491 
L 199.447102 64.804491 
L 204.161404 94.995471 
L 202.231539 94.995471 
L 200.915723 85.953302 
L 195.776964 85.953302 
L 194.370597 94.995471 
L 192.56807 94.995471 
L 197.457814 64.804491 
z
M 198.368981 64.804491 
L 198.368981 64.804491 
z
" style="fill:#008000;"/>
   </g>
   <g id="patch_38">
    <path clip-path="url(#p66c8e028a9)" d="M 204.161404 28.8 
L 204.161404 33.089797 
L 199.346669 33.089797 
L 199.346669 64.804491 
L 197.382805 64.804491 
L 197.382805 33.089797 
L 192.56807 33.089797 
L 192.56807 28.8 
L 204.161404 28.8 
z
" style="fill:#ff0000;"/>
   </g>
   <g id="patch_39">
    <path clip-path="url(#p66c8e028a9)" d="M 210.86719 116.429205 
Q 213.349848 116.429205 214.719297 118.82775 
Q 216.088745 121.221081 216.239641 124.266191 
L 214.514307 124.266191 
Q 214.221057 121.956288 213.344154 120.605802 
Q 212.467252 119.250103 210.884272 119.250103 
Q 208.953948 119.250103 207.766713 121.73729 
Q 206.579478 124.219263 206.579478 129.350063 
Q 206.579478 133.557946 207.649983 136.175489 
Q 208.723334 138.787817 210.850107 138.787817 
Q 212.806055 138.787817 213.831006 136.034704 
Q 214.371952 134.585149 214.639578 132.217889 
L 216.364912 132.217889 
Q 216.134298 135.998205 214.836027 138.558391 
Q 213.278671 141.64 210.636576 141.64 
Q 208.358907 141.64 206.810092 139.111099 
Q 204.771579 135.773993 204.771579 128.797355 
Q 204.771579 123.504913 206.303311 120.115665 
Q 207.957468 116.429205 210.86719 116.429205 
z
M 210.511304 116.429205 
L 210.511304 116.429205 
z
" style="fill:#0000ff;"/>
   </g>
   <g id="patch_40">
    <path clip-path="url(#p66c8e028a9)" d="M 212.553289 106.069671 
L 210.580979 94.900539 
L 208.484162 106.069671 
L 212.553289 106.069671 
z
M 209.661323 91.144451 
L 211.650611 91.144451 
L 216.364912 116.429205 
L 214.435048 116.429205 
L 213.119232 108.856446 
L 207.980473 108.856446 
L 206.574106 116.429205 
L 204.771579 116.429205 
L 209.661323 91.144451 
z
M 210.57249 91.144451 
L 210.57249 91.144451 
z
" style="fill:#008000;"/>
   </g>
   <g id="patch_41">
    <path clip-path="url(#p66c8e028a9)" d="M 210.750687 60.997153 
Q 212.539168 60.997153 213.843901 62.557249 
Q 215.73466 64.797547 216.157592 70.413893 
L 214.457568 70.413893 
Q 214.145206 67.27498 213.16942 65.839692 
Q 212.193634 64.404403 210.706459 64.404403 
Q 208.945621 64.404403 207.740401 67.393547 
Q 206.535181 70.376451 206.535181 76.286095 
Q 206.535181 81.39073 207.527553 84.598287 
Q 208.522688 87.805845 210.767273 87.805845 
Q 212.486647 87.805845 213.614467 85.559307 
Q 214.742288 83.306528 214.767166 78.270537 
L 210.794915 78.270537 
L 210.794915 75.056739 
L 216.364912 75.056739 
L 216.364912 90.383124 
L 215.259206 90.383124 
L 214.844566 86.695057 
Q 213.973822 88.86047 213.299341 89.702922 
Q 212.165992 91.144451 210.421739 91.144451 
Q 208.168862 91.144451 206.543474 87.849528 
Q 204.771579 83.712153 204.771579 76.498268 
Q 204.771579 69.303105 206.499245 65.053403 
Q 208.14122 60.997153 210.750687 60.997153 
z
M 210.465968 60.95347 
L 210.465968 60.95347 
z
" style="fill:#ffa600;"/>
   </g>
   <g id="patch_42">
    <path clip-path="url(#p66c8e028a9)" d="M 216.364912 28.8 
L 216.364912 32.630962 
L 211.550178 32.630962 
L 211.550178 60.95347 
L 209.586314 60.95347 
L 209.586314 32.630962 
L 204.771579 32.630962 
L 204.771579 28.8 
L 216.364912 28.8 
z
" style="fill:#ff0000;"/>
   </g>
   <g id="patch_43">
    <path clip-path="url(#p66c8e028a9)" d="M 222.954196 116.391829 
Q 224.742676 116.391829 226.04741 117.6984 
Q 227.938168 119.574635 228.361101 124.27829 
L 226.661077 124.27829 
Q 226.348715 121.649469 225.372929 120.447425 
Q 224.397143 119.24538 222.909968 119.24538 
Q 221.14913 119.24538 219.94391 121.748769 
Q 218.73869 124.246932 218.73869 129.196221 
Q 218.73869 133.47132 219.731061 136.15763 
Q 220.726197 138.843939 222.970782 138.843939 
Q 224.690155 138.843939 225.817976 136.962477 
Q 226.945797 135.075789 226.970675 130.858179 
L 222.998424 130.858179 
L 222.998424 128.166644 
L 228.568421 128.166644 
L 228.568421 141.002394 
L 227.462714 141.002394 
L 227.048075 137.913661 
Q 226.177331 139.727181 225.50285 140.432729 
Q 224.3695 141.64 222.625248 141.64 
Q 220.372371 141.64 218.746982 138.880523 
Q 216.975088 135.415498 216.975088 129.373915 
Q 216.975088 123.348011 218.702754 119.788913 
Q 220.344728 116.391829 222.954196 116.391829 
z
M 222.669477 116.355245 
L 222.669477 116.355245 
z
" style="fill:#ffa600;"/>
   </g>
   <g id="patch_44">
    <path clip-path="url(#p66c8e028a9)" d="M 224.756798 104.819922 
L 222.784488 92.383113 
L 220.687671 104.819922 
L 224.756798 104.819922 
z
M 221.864831 88.200715 
L 223.85412 88.200715 
L 228.568421 116.355245 
L 226.638557 116.355245 
L 225.32274 107.922991 
L 220.183982 107.922991 
L 218.777615 116.355245 
L 216.975088 116.355245 
L 221.864831 88.200715 
z
M 222.775999 88.200715 
L 222.775999 88.200715 
z
" style="fill:#008000;"/>
   </g>
   <g id="patch_45">
    <path clip-path="url(#p66c8e028a9)" d="M 228.568421 58.99098 
L 228.568421 62.471208 
L 223.753686 62.471208 
L 223.753686 88.200715 
L 221.789822 88.200715 
L 221.789822 62.471208 
L 216.975088 62.471208 
L 216.975088 58.99098 
L 228.568421 58.99098 
z
" style="fill:#ff0000;"/>
   </g>
   <g id="patch_46">
    <path clip-path="url(#p66c8e028a9)" d="M 223.070698 28.8 
Q 225.553357 28.8 226.922805 31.672358 
Q 228.292254 34.538472 228.443149 38.185118 
L 226.717815 38.185118 
Q 226.424565 35.418912 225.547663 33.801649 
Q 224.670761 32.178143 223.087781 32.178143 
Q 221.157457 32.178143 219.970222 35.156653 
Q 218.782987 38.128919 218.782987 44.273268 
Q 218.782987 49.312383 219.853491 52.446999 
Q 220.926843 55.575372 223.053616 55.575372 
Q 225.009564 55.575372 226.034515 52.278404 
Q 226.575461 50.542501 226.843087 47.707609 
L 228.568421 47.707609 
Q 228.337807 52.234695 227.039536 55.300625 
Q 225.48218 58.99098 222.840084 58.99098 
Q 220.562416 58.99098 219.013601 55.962516 
Q 216.975088 51.966192 216.975088 43.611376 
Q 216.975088 37.273456 218.50682 33.214689 
Q 220.160977 28.8 223.070698 28.8 
z
M 222.714813 28.8 
L 222.714813 28.8 
z
" style="fill:#0000ff;"/>
   </g>
   <g id="patch_47">
    <path clip-path="url(#p66c8e028a9)" d="M 236.960307 131.310768 
L 234.987997 120.174307 
L 232.89118 131.310768 
L 236.960307 131.310768 
z
M 234.06834 116.429205 
L 236.057628 116.429205 
L 240.77193 141.64 
L 238.842066 141.64 
L 237.526249 134.089392 
L 232.387491 134.089392 
L 230.981124 141.64 
L 229.178596 141.64 
L 234.06834 116.429205 
z
M 234.979508 116.429205 
L 234.979508 116.429205 
z
" style="fill:#008000;"/>
   </g>
   <g id="patch_48">
    <path clip-path="url(#p66c8e028a9)" d="M 240.77193 88.200715 
L 240.77193 91.564031 
L 235.957195 91.564031 
L 235.957195 116.429205 
L 233.993331 116.429205 
L 233.993331 91.564031 
L 229.178596 91.564031 
L 229.178596 88.200715 
L 240.77193 88.200715 
z
" style="fill:#ff0000;"/>
   </g>
   <g id="patch_49">
    <path clip-path="url(#p66c8e028a9)" d="M 235.157705 59.033243 
Q 236.946185 59.033243 238.250919 60.542634 
Q 240.141677 62.71012 240.56461 68.143927 
L 238.864586 68.143927 
Q 238.552224 65.107033 237.576438 63.718393 
Q 236.600652 62.329753 235.113476 62.329753 
Q 233.352639 62.329753 232.147419 65.221746 
Q 230.942198 68.107702 230.942198 73.825275 
Q 230.942198 78.764003 231.93457 81.867311 
Q 232.929706 84.970619 235.17429 84.970619 
Q 236.893664 84.970619 238.021485 82.797095 
Q 239.149305 80.617535 239.174184 75.745221 
L 235.201933 75.745221 
L 235.201933 72.635875 
L 240.77193 72.635875 
L 240.77193 87.464133 
L 239.666223 87.464133 
L 239.251583 83.895932 
Q 238.380839 85.990967 237.706358 86.806038 
Q 236.573009 88.200715 234.828757 88.200715 
Q 232.57588 88.200715 230.950491 85.012881 
Q 229.178596 81.009976 229.178596 74.030552 
Q 229.178596 67.069241 230.906263 62.95766 
Q 232.548237 59.033243 235.157705 59.033243 
z
M 234.872985 58.99098 
L 234.872985 58.99098 
z
" style="fill:#ffa600;"/>
   </g>
   <g id="patch_50">
    <path clip-path="url(#p66c8e028a9)" d="M 235.274207 28.8 
Q 237.756866 28.8 239.126314 31.672358 
Q 240.495763 34.538472 240.646658 38.185118 
L 238.921324 38.185118 
Q 238.628074 35.418912 237.751172 33.801649 
Q 236.874269 32.178143 235.29129 32.178143 
Q 233.360966 32.178143 232.173731 35.156653 
Q 230.986496 38.128919 230.986496 44.273268 
Q 230.986496 49.312383 232.057 52.446999 
Q 233.130352 55.575372 235.257125 55.575372 
Q 237.213073 55.575372 238.238023 52.278404 
Q 238.77897 50.542501 239.046596 47.707609 
L 240.77193 47.707609 
Q 240.541316 52.234695 239.243045 55.300625 
Q 237.685689 58.99098 235.043593 58.99098 
Q 232.765925 58.99098 231.21711 55.962516 
Q 229.178596 51.966192 229.178596 43.611376 
Q 229.178596 37.273456 230.710329 33.214689 
Q 232.364485 28.8 235.274207 28.8 
z
M 234.918321 28.8 
L 234.918321 28.8 
z
" style="fill:#0000ff;"/>
   </g>
   <g id="patch_51">
    <path clip-path="url(#p66c8e028a9)" d="M 252.975439 115.44796 
L 252.975439 118.568641 
L 248.160704 118.568641 
L 248.160704 141.64 
L 246.19684 141.64 
L 246.19684 118.568641 
L 241.382105 118.568641 
L 241.382105 115.44796 
L 252.975439 115.44796 
z
" style="fill:#ff0000;"/>
   </g>
   <g id="patch_52">
    <path clip-path="url(#p66c8e028a9)" d="M 247.361214 87.260313 
Q 249.149694 87.260313 250.454428 88.718999 
Q 252.345186 90.813672 252.768119 96.064942 
L 251.068095 96.064942 
Q 250.755733 93.130066 249.779947 91.788075 
Q 248.804161 90.446083 247.316985 90.446083 
Q 245.556148 90.446083 244.350927 93.240926 
Q 243.145707 96.029933 243.145707 101.555435 
Q 243.145707 106.328256 244.138079 109.327314 
Q 245.133215 112.326372 247.377799 112.326372 
Q 249.097173 112.326372 250.224994 110.225865 
Q 251.352814 108.119522 251.377693 103.410884 
L 247.405442 103.410884 
L 247.405442 100.405991 
L 252.975439 100.405991 
L 252.975439 114.736121 
L 251.869732 114.736121 
L 251.455092 111.287788 
Q 250.584348 113.312444 249.909867 114.100134 
Q 248.776518 115.44796 247.032266 115.44796 
Q 244.779389 115.44796 243.154 112.367216 
Q 241.382105 108.49878 241.382105 101.753817 
Q 241.382105 95.026357 243.109772 91.052897 
Q 244.751746 87.260313 247.361214 87.260313 
z
M 247.076494 87.21947 
L 247.076494 87.21947 
z
" style="fill:#ffa600;"/>
   </g>
   <g id="patch_53">
    <path clip-path="url(#p66c8e028a9)" d="M 249.163815 75.251814 
L 247.191506 62.348885 
L 245.094688 75.251814 
L 249.163815 75.251814 
z
M 246.271849 58.009735 
L 248.261137 58.009735 
L 252.975439 87.21947 
L 251.045574 87.21947 
L 249.729758 78.471183 
L 244.591 78.471183 
L 243.184632 87.21947 
L 241.382105 87.21947 
L 246.271849 58.009735 
z
M 247.183016 58.009735 
L 247.183016 58.009735 
z
" style="fill:#008000;"/>
   </g>
   <g id="patch_54">
    <path clip-path="url(#p66c8e028a9)" d="M 247.477716 28.8 
Q 249.960375 28.8 251.329823 31.579003 
Q 252.699271 34.351964 252.850167 37.880089 
L 251.124833 37.880089 
Q 250.831583 35.203789 249.954681 33.63909 
Q 249.077778 32.068349 247.494798 32.068349 
Q 245.564474 32.068349 244.37724 34.950054 
Q 243.190005 37.825718 243.190005 43.770367 
Q 243.190005 48.645704 244.260509 51.678442 
Q 245.33386 54.705138 247.460633 54.705138 
Q 249.416581 54.705138 250.441532 51.515327 
Q 250.982479 49.835842 251.250105 47.093087 
L 252.975439 47.093087 
Q 252.744825 51.473037 251.446554 54.439321 
Q 249.889198 58.009735 247.247102 58.009735 
Q 244.969433 58.009735 243.420619 55.0797 
Q 241.382105 51.213261 241.382105 43.129988 
Q 241.382105 36.998058 242.913837 33.071206 
Q 244.567994 28.8 247.477716 28.8 
z
M 247.12183 28.8 
L 247.12183 28.8 
z
" style="fill:#0000ff;"/>
   </g>
   <g id="patch_55">
    <path clip-path="url(#p66c8e028a9)" d="M 259.564722 119.405158 
Q 261.353203 119.405158 262.657936 120.555792 
Q 264.548695 122.208102 264.971627 126.350382 
L 263.271604 126.350382 
Q 262.959241 124.035308 261.983455 122.976725 
Q 261.007669 121.918142 259.520494 121.918142 
Q 257.759656 121.918142 256.554436 124.122756 
Q 255.349216 126.322767 255.349216 130.681367 
Q 255.349216 134.446239 256.341588 136.811942 
Q 257.336724 139.177644 259.581308 139.177644 
Q 261.300682 139.177644 262.428502 137.520732 
Q 263.556323 135.859217 263.581201 132.144972 
L 259.608951 132.144972 
L 259.608951 129.774667 
L 265.178947 129.774667 
L 265.178947 141.078491 
L 264.073241 141.078491 
L 263.658601 138.358393 
Q 262.787857 139.955473 262.113376 140.576815 
Q 260.980027 141.64 259.235775 141.64 
Q 256.982897 141.64 255.357509 139.209862 
Q 253.585614 136.158382 253.585614 130.837853 
Q 253.585614 125.531131 255.313281 122.396805 
Q 256.955255 119.405158 259.564722 119.405158 
z
M 259.280003 119.372941 
L 259.280003 119.372941 
z
" style="fill:#ffa600;"/>
   </g>
   <g id="patch_56">
    <path clip-path="url(#p66c8e028a9)" d="M 265.178947 94.088186 
L 265.178947 97.100767 
L 260.364213 97.100767 
L 260.364213 119.372941 
L 258.400349 119.372941 
L 258.400349 97.100767 
L 253.585614 97.100767 
L 253.585614 94.088186 
L 265.178947 94.088186 
z
" style="fill:#ff0000;"/>
   </g>
   <g id="patch_57">
    <path clip-path="url(#p66c8e028a9)" d="M 261.367324 80.914438 
L 259.395014 66.711162 
L 257.298197 80.914438 
L 261.367324 80.914438 
z
M 258.475358 61.934716 
L 260.464646 61.934716 
L 265.178947 94.088186 
L 263.249083 94.088186 
L 261.933267 84.458253 
L 256.794508 84.458253 
L 255.388141 94.088186 
L 253.585614 94.088186 
L 258.475358 61.934716 
z
M 259.386525 61.934716 
L 259.386525 61.934716 
z
" style="fill:#008000;"/>
   </g>
   <g id="patch_58">
    <path clip-path="url(#p66c8e028a9)" d="M 259.681225 28.8 
Q 262.163884 28.8 263.533332 31.952424 
Q 264.90278 35.097995 265.053676 39.100202 
L 263.328342 39.100202 
Q 263.035092 36.064281 262.158189 34.289329 
Q 261.281287 32.507525 259.698307 32.507525 
Q 257.767983 32.507525 256.580748 35.776451 
Q 255.393514 39.038524 255.393514 45.78197 
Q 255.393514 51.312418 256.464018 54.752672 
Q 257.537369 58.186072 259.664142 58.186072 
Q 261.62009 58.186072 262.645041 54.567638 
Q 263.185987 52.662478 263.453613 49.551172 
L 265.178947 49.551172 
Q 264.948333 54.519666 263.650062 57.884536 
Q 262.092706 61.934716 259.450611 61.934716 
Q 257.172942 61.934716 255.624127 58.610964 
Q 253.585614 54.224983 253.585614 45.055542 
Q 253.585614 38.09965 255.117346 33.645138 
Q 256.771503 28.8 259.681225 28.8 
z
M 259.325339 28.8 
L 259.325339 28.8 
z
" style="fill:#0000ff;"/>
   </g>
   <g id="patch_59">
    <path clip-path="url(#p66c8e028a9)" d="M 277.382456 114.392755 
L 277.382456 117.63916 
L 272.567721 117.63916 
L 272.567721 141.64 
L 270.603857 141.64 
L 270.603857 117.63916 
L 265.789123 117.63916 
L 265.789123 114.392755 
L 277.382456 114.392755 
z
" style="fill:#ff0000;"/>
   </g>
   <g id="patch_60">
    <path clip-path="url(#p66c8e028a9)" d="M 273.570833 102.827129 
L 271.598523 90.35765 
L 269.501706 102.827129 
L 273.570833 102.827129 
z
M 270.678867 86.164265 
L 272.668155 86.164265 
L 277.382456 114.392755 
L 275.452592 114.392755 
L 274.136776 105.93835 
L 268.998017 105.93835 
L 267.59165 114.392755 
L 265.789123 114.392755 
L 270.678867 86.164265 
z
M 271.590034 86.164265 
L 271.590034 86.164265 
z
" style="fill:#008000;"/>
   </g>
   <g id="patch_61">
    <path clip-path="url(#p66c8e028a9)" d="M 271.768231 57.976618 
Q 273.556711 57.976618 274.861445 59.435304 
Q 276.752203 61.529977 277.175136 66.781247 
L 275.475112 66.781247 
Q 275.16275 63.84637 274.186964 62.504379 
Q 273.211178 61.162388 271.724003 61.162388 
Q 269.963165 61.162388 268.757945 63.957231 
Q 267.552725 66.746238 267.552725 72.27174 
Q 267.552725 77.044561 268.545096 80.043619 
Q 269.540232 83.042677 271.784817 83.042677 
Q 273.50419 83.042677 274.632011 80.94217 
Q 275.759832 78.835827 275.78471 74.127189 
L 271.812459 74.127189 
L 271.812459 71.122296 
L 277.382456 71.122296 
L 277.382456 85.452426 
L 276.27675 85.452426 
L 275.86211 82.004093 
Q 274.991366 84.028749 274.316885 84.816439 
Q 273.183535 86.164265 271.439283 86.164265 
Q 269.186406 86.164265 267.561018 83.08352 
Q 265.789123 79.215085 265.789123 72.470122 
Q 265.789123 65.742662 267.516789 61.769202 
Q 269.158764 57.976618 271.768231 57.976618 
z
M 271.483512 57.935775 
L 271.483512 57.935775 
z
" style="fill:#ffa600;"/>
   </g>
   <g id="patch_62">
    <path clip-path="url(#p66c8e028a9)" d="M 271.884733 28.8 
Q 274.367392 28.8 275.736841 31.571966 
Q 277.106289 34.337906 277.257184 37.857098 
L 275.53185 37.857098 
Q 275.238601 35.187574 274.361698 33.626837 
Q 273.484796 32.060073 271.901816 32.060073 
Q 269.971492 32.060073 268.784257 34.934482 
Q 267.597022 37.802864 267.597022 43.732461 
Q 267.597022 48.595454 268.667527 51.620513 
Q 269.740878 54.639546 271.867651 54.639546 
Q 273.823599 54.639546 274.84855 51.457811 
Q 275.389496 49.782579 275.657122 47.046769 
L 277.382456 47.046769 
Q 277.151842 51.415629 275.853571 54.374401 
Q 274.296215 57.935775 271.65412 57.935775 
Q 269.376451 57.935775 267.827636 55.013159 
Q 265.789123 51.15651 265.789123 43.093704 
Q 265.789123 36.9773 267.320855 33.060392 
Q 268.975012 28.8 271.884733 28.8 
z
M 271.528848 28.8 
L 271.528848 28.8 
z
" style="fill:#0000ff;"/>
   </g>
   <g id="patch_63">
    <path clip-path="url(#p66c8e028a9)" d="M 289.585965 116.356521 
L 289.585965 119.36895 
L 284.77123 119.36895 
L 284.77123 141.64 
L 282.807366 141.64 
L 282.807366 119.36895 
L 277.992632 119.36895 
L 277.992632 116.356521 
L 289.585965 116.356521 
z
" style="fill:#ff0000;"/>
   </g>
   <g id="patch_64">
    <path clip-path="url(#p66c8e028a9)" d="M 284.088242 89.110551 
Q 286.570901 89.110551 287.940349 91.702722 
Q 289.309798 94.289257 289.460693 97.580187 
L 287.735359 97.580187 
Q 287.442109 95.083814 286.565207 93.624309 
Q 285.688304 92.159169 284.105325 92.159169 
Q 282.175001 92.159169 280.987766 94.847138 
Q 279.800531 97.529471 279.800531 103.074462 
Q 279.800531 107.622032 280.871035 110.450879 
Q 281.944387 113.274091 284.07116 113.274091 
Q 286.027108 113.274091 287.052059 110.29873 
Q 287.593005 108.732157 287.860631 106.173797 
L 289.585965 106.173797 
Q 289.355351 110.259284 288.05708 113.026144 
Q 286.499724 116.356521 283.857628 116.356521 
Q 281.57996 116.356521 280.031145 113.623471 
Q 277.992632 110.016972 277.992632 102.477136 
Q 277.992632 96.757455 279.524364 93.094605 
Q 281.178521 89.110551 284.088242 89.110551 
z
M 283.732357 89.110551 
L 283.732357 89.110551 
z
" style="fill:#0000ff;"/>
   </g>
   <g id="patch_65">
    <path clip-path="url(#p66c8e028a9)" d="M 285.774342 76.755492 
L 283.802032 63.434887 
L 281.705215 76.755492 
L 285.774342 76.755492 
z
M 282.882375 58.955275 
L 284.871663 58.955275 
L 289.585965 89.110551 
L 287.656101 89.110551 
L 286.340284 80.079075 
L 281.201526 80.079075 
L 279.795159 89.110551 
L 277.992632 89.110551 
L 282.882375 58.955275 
z
M 283.793543 58.955275 
L 283.793543 58.955275 
z
" style="fill:#008000;"/>
   </g>
   <g id="patch_66">
    <path clip-path="url(#p66c8e028a9)" d="M 283.97174 28.843631 
Q 285.76022 28.843631 287.064954 30.401882 
Q 288.955712 32.639531 289.378645 38.249235 
L 287.678621 38.249235 
Q 287.366259 35.114033 286.390473 33.680442 
Q 285.414687 32.246851 283.927512 32.246851 
Q 282.166674 32.246851 280.961454 35.232461 
Q 279.756234 38.211837 279.756234 44.114492 
Q 279.756234 49.213089 280.748605 52.416854 
Q 281.743741 55.620618 283.988325 55.620618 
Q 285.707699 55.620618 286.83552 53.376736 
Q 287.963341 51.126622 287.988219 46.096587 
L 284.015968 46.096587 
L 284.015968 42.88659 
L 289.585965 42.88659 
L 289.585965 58.194849 
L 288.480258 58.194849 
L 288.065618 54.511143 
Q 287.194874 56.673996 286.520393 57.515451 
Q 285.387044 58.955275 283.642792 58.955275 
Q 281.389915 58.955275 279.764526 55.664249 
Q 277.992632 51.531767 277.992632 44.326414 
Q 277.992632 37.13976 279.720298 32.895084 
Q 281.362272 28.843631 283.97174 28.843631 
z
M 283.68702 28.8 
L 283.68702 28.8 
z
" style="fill:#ffa600;"/>
   </g>
   <g id="patch_67">
    <path clip-path="url(#p66c8e028a9)" d="M 296.175249 117.371655 
Q 297.963729 117.371655 299.268463 118.62752 
Q 301.159221 120.430943 301.582154 124.952059 
L 299.88213 124.952059 
Q 299.569768 122.425258 298.593982 121.269861 
Q 297.618196 120.114465 296.13102 120.114465 
Q 294.370183 120.114465 293.164962 122.520703 
Q 291.959742 124.921918 291.959742 129.679137 
Q 291.959742 133.788329 292.952114 136.370388 
Q 293.94725 138.952448 296.191834 138.952448 
Q 297.911208 138.952448 299.039029 137.144001 
Q 300.166849 135.330532 300.191728 131.276598 
L 296.219477 131.276598 
L 296.219477 128.689515 
L 301.789474 128.689515 
L 301.789474 141.027138 
L 300.683767 141.027138 
L 300.269127 138.058272 
Q 299.398383 139.801413 298.723902 140.47958 
Q 297.590553 141.64 295.846301 141.64 
Q 293.593424 141.64 291.968035 138.987612 
Q 290.19614 135.657057 290.19614 129.849934 
Q 290.19614 124.057883 291.923807 120.636905 
Q 293.565781 117.371655 296.175249 117.371655 
z
M 295.890529 117.33649 
L 295.890529 117.33649 
z
" style="fill:#ffa600;"/>
   </g>
   <g id="patch_68">
    <path clip-path="url(#p66c8e028a9)" d="M 301.789474 90.089246 
L 301.789474 93.33565 
L 296.974739 93.33565 
L 296.974739 117.33649 
L 295.010875 117.33649 
L 295.010875 93.33565 
L 290.19614 93.33565 
L 290.19614 90.089246 
L 301.789474 90.089246 
z
" style="fill:#ff0000;"/>
   </g>
   <g id="patch_69">
    <path clip-path="url(#p66c8e028a9)" d="M 296.291751 59.898265 
Q 298.77441 59.898265 300.143858 62.770623 
Q 301.513306 65.636737 301.664202 69.283383 
L 299.938868 69.283383 
Q 299.645618 66.517177 298.768716 64.899915 
Q 297.891813 63.276408 296.308834 63.276408 
Q 294.378509 63.276408 293.191275 66.254918 
Q 292.00404 69.227185 292.00404 75.371533 
Q 292.00404 80.410648 293.074544 83.545265 
Q 294.147895 86.673637 296.274669 86.673637 
Q 298.230616 86.673637 299.255567 83.37667 
Q 299.796514 81.640767 300.06414 78.805874 
L 301.789474 78.805874 
Q 301.55886 83.33296 300.260589 86.39889 
Q 298.703233 90.089246 296.061137 90.089246 
Q 293.783468 90.089246 292.234654 87.060781 
Q 290.19614 83.064457 290.19614 74.709642 
Q 290.19614 68.371721 291.727873 64.312955 
Q 293.382029 59.898265 296.291751 59.898265 
z
M 295.935865 59.898265 
L 295.935865 59.898265 
z
" style="fill:#0000ff;"/>
   </g>
   <g id="patch_70">
    <path clip-path="url(#p66c8e028a9)" d="M 297.977851 47.15685 
L 296.005541 33.419694 
L 293.908724 47.15685 
L 297.977851 47.15685 
z
M 295.085884 28.8 
L 297.075172 28.8 
L 301.789474 59.898265 
L 299.85961 59.898265 
L 298.543793 50.584365 
L 293.405035 50.584365 
L 291.998667 59.898265 
L 290.19614 59.898265 
L 295.085884 28.8 
z
M 295.997052 28.8 
L 295.997052 28.8 
z
" style="fill:#008000;"/>
   </g>
   <g id="patch_71">
    <path clip-path="url(#p66c8e028a9)" d="M 308.378757 118.352753 
Q 310.167238 118.352753 311.471971 119.557848 
Q 313.36273 121.288364 313.785662 125.626704 
L 312.085639 125.626704 
Q 311.773277 123.202054 310.79749 122.093367 
Q 309.821704 120.98468 308.334529 120.98468 
Q 306.573691 120.98468 305.368471 123.293641 
Q 304.163251 125.597782 304.163251 130.16268 
Q 304.163251 134.105749 305.155623 136.583423 
Q 306.150759 139.061098 308.395343 139.061098 
Q 310.114717 139.061098 311.242537 137.325762 
Q 312.370358 135.585605 312.395236 131.69556 
L 308.422986 131.69556 
L 308.422986 129.213065 
L 313.992982 129.213065 
L 313.992982 141.051914 
L 312.887276 141.051914 
L 312.472636 138.20307 
Q 311.601892 139.875742 310.927411 140.526493 
Q 309.794062 141.64 308.04981 141.64 
Q 305.796933 141.64 304.171544 139.09484 
Q 302.399649 135.89893 302.399649 130.326573 
Q 302.399649 124.768677 304.127316 121.485999 
Q 305.76929 118.352753 308.378757 118.352753 
z
M 308.094038 118.319011 
L 308.094038 118.319011 
z
" style="fill:#ffa600;"/>
   </g>
   <g id="patch_72">
    <path clip-path="url(#p66c8e028a9)" d="M 308.49526 89.14498 
Q 310.977919 89.14498 312.347367 91.920586 
Q 313.716815 94.690158 313.867711 98.213971 
L 312.142377 98.213971 
Q 311.849127 95.540942 310.972224 93.978155 
Q 310.095322 92.409334 308.512342 92.409334 
Q 306.582018 92.409334 305.394783 95.287517 
Q 304.207549 98.159665 304.207549 104.097048 
Q 304.207549 108.966426 305.278053 111.995457 
Q 306.351404 115.018453 308.478177 115.018453 
Q 310.434125 115.018453 311.459076 111.832541 
Q 312.000022 110.155109 312.267648 107.415707 
L 313.992982 107.415707 
Q 313.762369 111.790303 312.464097 114.752961 
Q 310.906741 118.319011 308.264646 118.319011 
Q 305.986977 118.319011 304.438163 115.392557 
Q 302.399649 111.530844 302.399649 103.457452 
Q 302.399649 97.333017 303.931381 93.410966 
Q 305.585538 89.14498 308.49526 89.14498 
z
M 308.139374 89.14498 
L 308.139374 89.14498 
z
" style="fill:#0000ff;"/>
   </g>
   <g id="patch_73">
    <path clip-path="url(#p66c8e028a9)" d="M 313.992982 58.989705 
L 313.992982 62.58259 
L 309.178248 62.58259 
L 309.178248 89.14498 
L 307.214384 89.14498 
L 307.214384 62.58259 
L 302.399649 62.58259 
L 302.399649 58.989705 
L 313.992982 58.989705 
z
" style="fill:#ff0000;"/>
   </g>
   <g id="patch_74">
    <path clip-path="url(#p66c8e028a9)" d="M 310.181359 46.62054 
L 308.209049 33.284726 
L 306.112232 46.62054 
L 310.181359 46.62054 
z
M 307.289393 28.8 
L 309.278681 28.8 
L 313.992982 58.989705 
L 312.063118 58.989705 
L 310.747302 49.947918 
L 305.608543 49.947918 
L 304.202176 58.989705 
L 302.399649 58.989705 
L 307.289393 28.8 
z
M 308.20056 28.8 
L 308.20056 28.8 
z
" style="fill:#008000;"/>
   </g>
   <g id="patch_75">
    <path clip-path="url(#p66c8e028a9)" d="M 322.384868 134.094679 
L 320.412558 125.959692 
L 318.315741 134.094679 
L 322.384868 134.094679 
z
M 319.492902 123.223961 
L 321.48219 123.223961 
L 326.196491 141.64 
L 324.266627 141.64 
L 322.950811 136.124414 
L 317.812052 136.124414 
L 316.405685 141.64 
L 314.603158 141.64 
L 319.492902 123.223961 
z
M 320.404069 123.223961 
L 320.404069 123.223961 
z
" style="fill:#008000;"/>
   </g>
   <g id="patch_76">
    <path clip-path="url(#p66c8e028a9)" d="M 320.582266 98.955616 
Q 322.370747 98.955616 323.67548 100.211481 
Q 325.566238 102.014904 325.989171 106.53602 
L 324.289147 106.53602 
Q 323.976785 104.009219 323.000999 102.853822 
Q 322.025213 101.698426 320.538038 101.698426 
Q 318.7772 101.698426 317.57198 104.104664 
Q 316.36676 106.505879 316.36676 111.263098 
Q 316.36676 115.37229 317.359132 117.954349 
Q 318.354267 120.536409 320.598852 120.536409 
Q 322.318225 120.536409 323.446046 118.727963 
Q 324.573867 116.914493 324.598745 112.860559 
L 320.626494 112.860559 
L 320.626494 110.273476 
L 326.196491 110.273476 
L 326.196491 122.611099 
L 325.090785 122.611099 
L 324.676145 119.642233 
Q 323.805401 121.385374 323.13092 122.063541 
Q 321.997571 123.223961 320.253318 123.223961 
Q 318.000441 123.223961 316.375053 120.571573 
Q 314.603158 117.241018 314.603158 111.433896 
Q 314.603158 105.641844 316.330824 102.220866 
Q 317.972799 98.955616 320.582266 98.955616 
z
M 320.297547 98.920452 
L 320.297547 98.920452 
z
" style="fill:#ffa600;"/>
   </g>
   <g id="patch_77">
    <path clip-path="url(#p66c8e028a9)" d="M 320.698769 64.878451 
Q 323.181427 64.878451 324.550876 68.117193 
Q 325.920324 71.348895 326.071219 75.46069 
L 324.345885 75.46069 
Q 324.052636 72.34164 323.175733 70.518087 
Q 322.298831 68.687494 320.715851 68.687494 
Q 318.785527 68.687494 317.598292 72.045929 
Q 316.411057 75.397323 316.411057 82.325416 
Q 316.411057 88.007297 317.481562 91.541751 
Q 318.554913 95.069164 320.681686 95.069164 
Q 322.637634 95.069164 323.662585 91.351651 
Q 324.203531 89.394324 324.471157 86.197826 
L 326.196491 86.197826 
Q 325.965877 91.302366 324.667606 94.759371 
Q 323.11025 98.920452 320.468155 98.920452 
Q 318.190486 98.920452 316.641671 95.50569 
Q 314.603158 90.999614 314.603158 81.579097 
Q 314.603158 74.432741 316.13489 69.856257 
Q 317.789047 64.878451 320.698769 64.878451 
z
M 320.342883 64.878451 
L 320.342883 64.878451 
z
" style="fill:#0000ff;"/>
   </g>
   <g id="patch_78">
    <path clip-path="url(#p66c8e028a9)" d="M 326.196491 28.8 
L 326.196491 33.098609 
L 321.381757 33.098609 
L 321.381757 64.878451 
L 319.417893 64.878451 
L 319.417893 33.098609 
L 314.603158 33.098609 
L 314.603158 28.8 
L 326.196491 28.8 
z
" style="fill:#ff0000;"/>
   </g>
   <g id="patch_79">
    <path clip-path="url(#p66c8e028a9)" d="M 334.588377 132.084526 
L 332.616067 121.782293 
L 330.51925 132.084526 
L 334.588377 132.084526 
z
M 331.69641 118.317736 
L 333.685698 118.317736 
L 338.4 141.64 
L 336.470136 141.64 
L 335.154319 134.655005 
L 330.015561 134.655005 
L 328.609194 141.64 
L 326.806667 141.64 
L 331.69641 118.317736 
z
M 332.607578 118.317736 
L 332.607578 118.317736 
z
" style="fill:#008000;"/>
   </g>
   <g id="patch_80">
    <path clip-path="url(#p66c8e028a9)" d="M 338.4 90.089246 
L 338.4 93.452562 
L 333.585265 93.452562 
L 333.585265 118.317736 
L 331.621401 118.317736 
L 331.621401 93.452562 
L 326.806667 93.452562 
L 326.806667 90.089246 
L 338.4 90.089246 
z
" style="fill:#ff0000;"/>
   </g>
   <g id="patch_81">
    <path clip-path="url(#p66c8e028a9)" d="M 332.902277 59.898265 
Q 335.384936 59.898265 336.754384 62.770623 
Q 338.123833 65.636737 338.274728 69.283383 
L 336.549394 69.283383 
Q 336.256144 66.517177 335.379242 64.899915 
Q 334.50234 63.276408 332.91936 63.276408 
Q 330.989036 63.276408 329.801801 66.254918 
Q 328.614566 69.227185 328.614566 75.371533 
Q 328.614566 80.410648 329.68507 83.545265 
Q 330.758422 86.673637 332.885195 86.673637 
Q 334.841143 86.673637 335.866094 83.37667 
Q 336.40704 81.640767 336.674666 78.805874 
L 338.4 78.805874 
Q 338.169386 83.33296 336.871115 86.39889 
Q 335.313759 90.089246 332.671663 90.089246 
Q 330.393995 90.089246 328.84518 87.060781 
Q 326.806667 83.064457 326.806667 74.709642 
Q 326.806667 68.371721 328.338399 64.312955 
Q 329.992556 59.898265 332.902277 59.898265 
z
M 332.546392 59.898265 
L 332.546392 59.898265 
z
" style="fill:#0000ff;"/>
   </g>
   <g id="patch_82">
    <path clip-path="url(#p66c8e028a9)" d="M 332.785775 28.844995 
Q 334.574255 28.844995 335.878989 30.451975 
Q 337.769747 32.759597 338.19268 38.544723 
L 336.492656 38.544723 
Q 336.180294 35.311481 335.204508 33.833059 
Q 334.228722 32.354638 332.741547 32.354638 
Q 330.980709 32.354638 329.775489 35.433611 
Q 328.570269 38.506156 328.570269 44.593394 
Q 328.570269 49.85143 329.56264 53.15538 
Q 330.557776 56.459329 332.802361 56.459329 
Q 334.521734 56.459329 335.649555 54.145279 
Q 336.777376 51.824801 336.802254 46.637471 
L 332.830003 46.637471 
L 332.830003 43.327094 
L 338.4 43.327094 
L 338.4 59.114059 
L 337.294293 59.114059 
L 336.879653 55.31516 
Q 336.00891 57.545647 335.334429 58.413416 
Q 334.201079 59.898265 332.456827 59.898265 
Q 330.20395 59.898265 328.578561 56.504325 
Q 326.806667 52.242615 326.806667 44.811943 
Q 326.806667 37.400554 328.534333 33.023142 
Q 330.176307 28.844995 332.785775 28.844995 
z
M 332.501055 28.8 
L 332.501055 28.8 
z
" style="fill:#ffa600;"/>
   </g>
   <g id="matplotlib.axis_1">
    <g id="xtick_1">
     <g id="line2d_2">
      <path clip-path="url(#p66c8e028a9)" d="M 100.736667 141.64 
L 100.736667 28.8 
" style="fill:none;stroke:#cccccc;stroke-linecap:round;stroke-width:0.8;"/>
     </g>
     <g id="text_1">
      <!-- 0 -->
      <g style="fill:#262626;" transform="translate(95.175729 162.986875)scale(0.2 -0.2)">
       <defs>
        <path d="M 1731 4475 
Q 2600 4475 2988 3759 
Q 3288 3206 3288 2244 
Q 3288 1331 3016 734 
Q 2622 -122 1728 -122 
Q 922 -122 528 578 
Q 200 1163 200 2147 
Q 200 2909 397 3456 
Q 766 4475 1731 4475 
z
M 1725 391 
Q 2163 391 2422 778 
Q 2681 1166 2681 2222 
Q 2681 2984 2493 3476 
Q 2306 3969 1766 3969 
Q 1269 3969 1039 3501 
Q 809 3034 809 2125 
Q 809 1441 956 1025 
Q 1181 391 1725 391 
z
" id="Helvetica-30" transform="scale(0.015625)"/>
       </defs>
       <use xlink:href="#Helvetica-30"/>
      </g>
     </g>
    </g>
    <g id="xtick_2">
     <g id="line2d_3">
      <path clip-path="url(#p66c8e028a9)" d="M 222.771754 141.64 
L 222.771754 28.8 
" style="fill:none;stroke:#cccccc;stroke-linecap:round;stroke-width:0.8;"/>
     </g>
     <g id="text_2">
      <!-- 10 -->
      <g style="fill:#262626;" transform="translate(211.649879 162.986875)scale(0.2 -0.2)">
       <defs>
        <path d="M 613 3169 
L 613 3600 
Q 1222 3659 1462 3798 
Q 1703 3938 1822 4456 
L 2266 4456 
L 2266 0 
L 1666 0 
L 1666 3169 
L 613 3169 
z
" id="Helvetica-31" transform="scale(0.015625)"/>
       </defs>
       <use xlink:href="#Helvetica-31"/>
       <use x="55.615234" xlink:href="#Helvetica-30"/>
      </g>
     </g>
    </g>
    <g id="text_3">
     <!-- Position -->
     <g style="fill:#262626;" transform="translate(172.20125 189.089219)scale(0.25 -0.25)">
      <defs>
       <path d="M 547 4591 
L 2613 4591 
Q 3225 4591 3600 4245 
Q 3975 3900 3975 3275 
Q 3975 2738 3640 2339 
Q 3306 1941 2613 1941 
L 1169 1941 
L 1169 0 
L 547 0 
L 547 4591 
z
M 3347 3272 
Q 3347 3778 2972 3959 
Q 2766 4056 2406 4056 
L 1169 4056 
L 1169 2466 
L 2406 2466 
Q 2825 2466 3086 2644 
Q 3347 2822 3347 3272 
z
" id="Helvetica-50" transform="scale(0.015625)"/>
       <path d="M 1741 363 
Q 2300 363 2508 786 
Q 2716 1209 2716 1728 
Q 2716 2197 2566 2491 
Q 2328 2953 1747 2953 
Q 1231 2953 997 2559 
Q 763 2166 763 1609 
Q 763 1075 997 719 
Q 1231 363 1741 363 
z
M 1763 3444 
Q 2409 3444 2856 3012 
Q 3303 2581 3303 1744 
Q 3303 934 2909 406 
Q 2516 -122 1688 -122 
Q 997 -122 590 345 
Q 184 813 184 1600 
Q 184 2444 612 2944 
Q 1041 3444 1763 3444 
z
M 1744 3428 
L 1744 3428 
z
" id="Helvetica-6f" transform="scale(0.015625)"/>
       <path d="M 747 1050 
Q 772 769 888 619 
Q 1100 347 1625 347 
Q 1938 347 2175 483 
Q 2413 619 2413 903 
Q 2413 1119 2222 1231 
Q 2100 1300 1741 1391 
L 1294 1503 
Q 866 1609 663 1741 
Q 300 1969 300 2372 
Q 300 2847 642 3140 
Q 984 3434 1563 3434 
Q 2319 3434 2653 2991 
Q 2863 2709 2856 2384 
L 2325 2384 
Q 2309 2575 2191 2731 
Q 1997 2953 1519 2953 
Q 1200 2953 1036 2831 
Q 872 2709 872 2509 
Q 872 2291 1088 2159 
Q 1213 2081 1456 2022 
L 1828 1931 
Q 2434 1784 2641 1647 
Q 2969 1431 2969 969 
Q 2969 522 2630 197 
Q 2291 -128 1597 -128 
Q 850 -128 539 211 
Q 228 550 206 1050 
L 747 1050 
z
M 1578 3428 
L 1578 3428 
z
" id="Helvetica-73" transform="scale(0.015625)"/>
       <path d="M 413 3331 
L 984 3331 
L 984 0 
L 413 0 
L 413 3331 
z
M 413 4591 
L 984 4591 
L 984 3953 
L 413 3953 
L 413 4591 
z
" id="Helvetica-69" transform="scale(0.015625)"/>
       <path d="M 525 4281 
L 1094 4281 
L 1094 3347 
L 1628 3347 
L 1628 2888 
L 1094 2888 
L 1094 703 
Q 1094 528 1213 469 
Q 1278 434 1431 434 
Q 1472 434 1519 436 
Q 1566 438 1628 444 
L 1628 0 
Q 1531 -28 1426 -40 
Q 1322 -53 1200 -53 
Q 806 -53 665 148 
Q 525 350 525 672 
L 525 2888 
L 72 2888 
L 72 3347 
L 525 3347 
L 525 4281 
z
" id="Helvetica-74" transform="scale(0.015625)"/>
       <path d="M 413 3347 
L 947 3347 
L 947 2872 
Q 1184 3166 1450 3294 
Q 1716 3422 2041 3422 
Q 2753 3422 3003 2925 
Q 3141 2653 3141 2147 
L 3141 0 
L 2569 0 
L 2569 2109 
Q 2569 2416 2478 2603 
Q 2328 2916 1934 2916 
Q 1734 2916 1606 2875 
Q 1375 2806 1200 2600 
Q 1059 2434 1017 2257 
Q 975 2081 975 1753 
L 975 0 
L 413 0 
L 413 3347 
z
M 1734 3428 
L 1734 3428 
z
" id="Helvetica-6e" transform="scale(0.015625)"/>
      </defs>
      <use xlink:href="#Helvetica-50"/>
      <use x="66.699219" xlink:href="#Helvetica-6f"/>
      <use x="122.314453" xlink:href="#Helvetica-73"/>
      <use x="172.314453" xlink:href="#Helvetica-69"/>
      <use x="194.53125" xlink:href="#Helvetica-74"/>
      <use x="222.314453" xlink:href="#Helvetica-69"/>
      <use x="244.53125" xlink:href="#Helvetica-6f"/>
      <use x="300.146484" xlink:href="#Helvetica-6e"/>
     </g>
    </g>
   </g>
   <g id="matplotlib.axis_2">
    <g id="ytick_1">
     <g id="line2d_4">
      <path clip-path="url(#p66c8e028a9)" d="M 94.94 141.64 
L 338.4 141.64 
" style="fill:none;stroke:#cccccc;stroke-linecap:round;stroke-width:0.8;"/>
     </g>
     <g id="text_4">
      <!-- 0 -->
      <g style="fill:#262626;" transform="translate(76.818125 148.813438)scale(0.2 -0.2)">
       <use xlink:href="#Helvetica-30"/>
      </g>
     </g>
    </g>
    <g id="ytick_2">
     <g id="line2d_5">
      <path clip-path="url(#p66c8e028a9)" d="M 94.94 113.43 
L 338.4 113.43 
" style="fill:none;stroke:#cccccc;stroke-linecap:round;stroke-width:0.8;"/>
     </g>
     <g id="text_5">
      <!-- 0.25 -->
      <g style="fill:#262626;" transform="translate(49.018125 120.603437)scale(0.2 -0.2)">
       <defs>
        <path d="M 547 681 
L 1200 681 
L 1200 0 
L 547 0 
L 547 681 
z
" id="Helvetica-2e" transform="scale(0.015625)"/>
        <path d="M 200 0 
Q 231 578 439 1006 
Q 647 1434 1250 1784 
L 1850 2131 
Q 2253 2366 2416 2531 
Q 2672 2791 2672 3125 
Q 2672 3516 2437 3745 
Q 2203 3975 1813 3975 
Q 1234 3975 1013 3538 
Q 894 3303 881 2888 
L 309 2888 
Q 319 3472 525 3841 
Q 891 4491 1816 4491 
Q 2584 4491 2939 4075 
Q 3294 3659 3294 3150 
Q 3294 2613 2916 2231 
Q 2697 2009 2131 1694 
L 1703 1456 
Q 1397 1288 1222 1134 
Q 909 863 828 531 
L 3272 531 
L 3272 0 
L 200 0 
z
" id="Helvetica-32" transform="scale(0.015625)"/>
        <path d="M 791 1141 
Q 847 659 1238 475 
Q 1438 381 1700 381 
Q 2200 381 2440 700 
Q 2681 1019 2681 1406 
Q 2681 1875 2395 2131 
Q 2109 2388 1709 2388 
Q 1419 2388 1211 2275 
Q 1003 2163 856 1963 
L 369 1991 
L 709 4400 
L 3034 4400 
L 3034 3856 
L 1131 3856 
L 941 2613 
Q 1097 2731 1238 2791 
Q 1488 2894 1816 2894 
Q 2431 2894 2859 2497 
Q 3288 2100 3288 1491 
Q 3288 856 2895 371 
Q 2503 -113 1644 -113 
Q 1097 -113 676 195 
Q 256 503 206 1141 
L 791 1141 
z
" id="Helvetica-35" transform="scale(0.015625)"/>
       </defs>
       <use xlink:href="#Helvetica-30"/>
       <use x="55.615234" xlink:href="#Helvetica-2e"/>
       <use x="83.398438" xlink:href="#Helvetica-32"/>
       <use x="139.013672" xlink:href="#Helvetica-35"/>
      </g>
     </g>
    </g>
    <g id="ytick_3">
     <g id="line2d_6">
      <path clip-path="url(#p66c8e028a9)" d="M 94.94 85.22 
L 338.4 85.22 
" style="fill:none;stroke:#cccccc;stroke-linecap:round;stroke-width:0.8;"/>
     </g>
     <g id="text_6">
      <!-- 0.50 -->
      <g style="fill:#262626;" transform="translate(49.018125 92.393438)scale(0.2 -0.2)">
       <use xlink:href="#Helvetica-30"/>
       <use x="55.615234" xlink:href="#Helvetica-2e"/>
       <use x="83.398438" xlink:href="#Helvetica-35"/>
       <use x="139.013672" xlink:href="#Helvetica-30"/>
      </g>
     </g>
    </g>
    <g id="ytick_4">
     <g id="line2d_7">
      <path clip-path="url(#p66c8e028a9)" d="M 94.94 57.01 
L 338.4 57.01 
" style="fill:none;stroke:#cccccc;stroke-linecap:round;stroke-width:0.8;"/>
     </g>
     <g id="text_7">
      <!-- 0.75 -->
      <g style="fill:#262626;" transform="translate(49.018125 64.183437)scale(0.2 -0.2)">
       <defs>
        <path d="M 3347 4400 
L 3347 3909 
Q 3131 3700 2773 3181 
Q 2416 2663 2141 2063 
Q 1869 1478 1728 997 
Q 1638 688 1494 0 
L 872 0 
Q 1084 1281 1809 2550 
Q 2238 3294 2709 3834 
L 234 3834 
L 234 4400 
L 3347 4400 
z
" id="Helvetica-37" transform="scale(0.015625)"/>
       </defs>
       <use xlink:href="#Helvetica-30"/>
       <use x="55.615234" xlink:href="#Helvetica-2e"/>
       <use x="83.398438" xlink:href="#Helvetica-37"/>
       <use x="139.013672" xlink:href="#Helvetica-35"/>
      </g>
     </g>
    </g>
    <g id="ytick_5">
     <g id="line2d_8">
      <path clip-path="url(#p66c8e028a9)" d="M 94.94 28.8 
L 338.4 28.8 
" style="fill:none;stroke:#cccccc;stroke-linecap:round;stroke-width:0.8;"/>
     </g>
     <g id="text_8">
      <!-- 1.0 -->
      <g style="fill:#262626;" transform="translate(60.14 35.973437)scale(0.2 -0.2)">
       <use xlink:href="#Helvetica-31"/>
       <use x="55.615234" xlink:href="#Helvetica-2e"/>
       <use x="83.398438" xlink:href="#Helvetica-30"/>
      </g>
     </g>
    </g>
    <g id="text_9">
     <!-- Probability -->
     <g style="fill:#262626;" transform="translate(39.65875 143.579375)rotate(-90)scale(0.25 -0.25)">
      <defs>
       <path d="M 428 3347 
L 963 3347 
L 963 2769 
Q 1028 2938 1284 3180 
Q 1541 3422 1875 3422 
Q 1891 3422 1928 3419 
Q 1966 3416 2056 3406 
L 2056 2813 
Q 2006 2822 1964 2825 
Q 1922 2828 1872 2828 
Q 1447 2828 1219 2554 
Q 991 2281 991 1925 
L 991 0 
L 428 0 
L 428 3347 
z
" id="Helvetica-72" transform="scale(0.015625)"/>
       <path d="M 369 4606 
L 916 4606 
L 916 2941 
Q 1100 3181 1356 3307 
Q 1613 3434 1913 3434 
Q 2538 3434 2927 3004 
Q 3316 2575 3316 1738 
Q 3316 944 2931 419 
Q 2547 -106 1866 -106 
Q 1484 -106 1222 78 
Q 1066 188 888 428 
L 888 0 
L 369 0 
L 369 4606 
z
M 1831 391 
Q 2288 391 2514 753 
Q 2741 1116 2741 1709 
Q 2741 2238 2514 2584 
Q 2288 2931 1847 2931 
Q 1463 2931 1173 2647 
Q 884 2363 884 1709 
Q 884 1238 1003 944 
Q 1225 391 1831 391 
z
" id="Helvetica-62" transform="scale(0.015625)"/>
       <path d="M 844 891 
Q 844 647 1022 506 
Q 1200 366 1444 366 
Q 1741 366 2019 503 
Q 2488 731 2488 1250 
L 2488 1703 
Q 2384 1638 2221 1594 
Q 2059 1550 1903 1531 
L 1563 1488 
Q 1256 1447 1103 1359 
Q 844 1213 844 891 
z
M 2206 2028 
Q 2400 2053 2466 2191 
Q 2503 2266 2503 2406 
Q 2503 2694 2298 2823 
Q 2094 2953 1713 2953 
Q 1272 2953 1088 2716 
Q 984 2584 953 2325 
L 428 2325 
Q 444 2944 830 3186 
Q 1216 3428 1725 3428 
Q 2316 3428 2684 3203 
Q 3050 2978 3050 2503 
L 3050 575 
Q 3050 488 3086 434 
Q 3122 381 3238 381 
Q 3275 381 3322 386 
Q 3369 391 3422 400 
L 3422 -16 
Q 3291 -53 3222 -62 
Q 3153 -72 3034 -72 
Q 2744 -72 2613 134 
Q 2544 244 2516 444 
Q 2344 219 2022 53 
Q 1700 -113 1313 -113 
Q 847 -113 551 170 
Q 256 453 256 878 
Q 256 1344 547 1600 
Q 838 1856 1309 1916 
L 2206 2028 
z
M 1741 3428 
L 1741 3428 
z
" id="Helvetica-61" transform="scale(0.015625)"/>
       <path d="M 428 4591 
L 991 4591 
L 991 0 
L 428 0 
L 428 4591 
z
" id="Helvetica-6c" transform="scale(0.015625)"/>
       <path d="M 2503 3347 
L 3125 3347 
Q 3006 3025 2597 1878 
Q 2291 1016 2084 472 
Q 1597 -809 1397 -1090 
Q 1197 -1372 709 -1372 
Q 591 -1372 527 -1362 
Q 463 -1353 369 -1328 
L 369 -816 
Q 516 -856 581 -865 
Q 647 -875 697 -875 
Q 853 -875 926 -823 
Q 1000 -772 1050 -697 
Q 1066 -672 1162 -440 
Q 1259 -209 1303 -97 
L 66 3347 
L 703 3347 
L 1600 622 
L 2503 3347 
z
M 1597 3428 
L 1597 3428 
z
" id="Helvetica-79" transform="scale(0.015625)"/>
      </defs>
      <use xlink:href="#Helvetica-50"/>
      <use x="66.699219" xlink:href="#Helvetica-72"/>
      <use x="100" xlink:href="#Helvetica-6f"/>
      <use x="155.615234" xlink:href="#Helvetica-62"/>
      <use x="211.230469" xlink:href="#Helvetica-61"/>
      <use x="266.845703" xlink:href="#Helvetica-62"/>
      <use x="322.460938" xlink:href="#Helvetica-69"/>
      <use x="344.677734" xlink:href="#Helvetica-6c"/>
      <use x="366.894531" xlink:href="#Helvetica-69"/>
      <use x="389.111328" xlink:href="#Helvetica-74"/>
      <use x="416.894531" xlink:href="#Helvetica-79"/>
     </g>
    </g>
   </g>
   <g id="patch_83">
    <path d="M 94.94 141.64 
L 94.94 28.8 
" style="fill:none;stroke:#000000;stroke-linecap:square;stroke-linejoin:miter;"/>
   </g>
  </g>
 </g>
 <defs>
  <clipPath id="p66c8e028a9">
   <rect height="112.84" width="243.46" x="94.94" y="28.8"/>
  </clipPath>
 </defs>
</svg>
