<?xml version="1.0" encoding="utf-8" standalone="no"?>
<!DOCTYPE svg PUBLIC "-//W3C//DTD SVG 1.1//EN"
  "http://www.w3.org/Graphics/SVG/1.1/DTD/svg11.dtd">
<svg height="216pt" version="1.1" viewBox="0 0 360 216" width="360pt" xmlns="http://www.w3.org/2000/svg" xmlns:xlink="http://www.w3.org/1999/xlink">
 <metadata>
  <rdf:RDF xmlns:cc="http://creativecommons.org/ns#" xmlns:dc="http://purl.org/dc/elements/1.1/" xmlns:rdf="http://www.w3.org/1999/02/22-rdf-syntax-ns#">
   <cc:Work>
    <dc:type rdf:resource="http://purl.org/dc/dcmitype/StillImage"/>
    <dc:date>2022-01-23T21:25:55.920230</dc:date>
    <dc:format>image/svg+xml</dc:format>
    <dc:creator>
     <cc:Agent>
      <dc:title>Matplotlib v3.4.2, https://matplotlib.org/</dc:title>
     </cc:Agent>
    </dc:creator>
   </cc:Work>
  </rdf:RDF>
 </metadata>
 <defs>
  <style type="text/css">*{stroke-linecap:butt;stroke-linejoin:round;}</style>
 </defs>
 <g id="figure_1">
  <g id="patch_1">
   <path d="M 0 216 
L 360 216 
L 360 0 
L 0 0 
z
" style="fill:#ffffff;"/>
  </g>
  <g id="axes_1">
   <g id="patch_2">
    <path d="M 94.94 141.64 
L 338.4 141.64 
L 338.4 28.8 
L 94.94 28.8 
z
" style="fill:#ffffff;"/>
   </g>
   <g id="line2d_1">
    <path clip-path="url(#pf298252eea)" d="M 94.94 141.64 
L 338.4 141.64 
" style="fill:none;stroke:#000000;stroke-linecap:round;stroke-width:0.5;"/>
   </g>
   <g id="patch_3">
    <path clip-path="url(#pf298252eea)" d="M 102.72171 136.503089 
L 100.7494 130.964728 
L 98.652583 136.503089 
L 102.72171 136.503089 
z
M 99.829744 129.102222 
L 101.819032 129.102222 
L 106.533333 141.64 
L 104.603469 141.64 
L 103.287653 137.884948 
L 98.148894 137.884948 
L 96.742527 141.64 
L 94.94 141.64 
L 99.829744 129.102222 
z
M 100.740911 129.102222 
L 100.740911 129.102222 
z
" style="fill:#008000;"/>
   </g>
   <g id="patch_4">
    <path clip-path="url(#pf298252eea)" d="M 101.035611 116.564444 
Q 103.518269 116.564444 104.887718 117.757284 
Q 106.257166 118.94753 106.408062 120.461917 
L 104.682728 120.461917 
Q 104.389478 119.313161 103.512575 118.641541 
Q 102.635673 117.967327 101.052693 117.967327 
Q 99.122369 117.967327 97.935134 119.20425 
Q 96.747899 120.438579 96.747899 122.990218 
Q 96.747899 125.082873 97.818404 126.384623 
Q 98.891755 127.683781 101.018528 127.683781 
Q 102.974476 127.683781 103.999427 126.314609 
Q 104.540373 125.593719 104.807999 124.416438 
L 106.533333 124.416438 
Q 106.302719 126.296457 105.004448 127.569683 
Q 103.447092 129.102222 100.804997 129.102222 
Q 98.527328 129.102222 96.978513 127.844555 
Q 94.94 126.184952 94.94 122.715346 
Q 94.94 120.08332 96.471732 118.397787 
Q 98.125889 116.564444 101.035611 116.564444 
z
M 100.679725 116.564444 
L 100.679725 116.564444 
z
" style="fill:#0000ff;"/>
   </g>
   <g id="patch_5">
    <path clip-path="url(#pf298252eea)" d="M 106.533333 104.026667 
L 106.533333 105.520495 
L 101.718599 105.520495 
L 101.718599 116.564444 
L 99.754735 116.564444 
L 99.754735 105.520495 
L 94.94 105.520495 
L 94.94 104.026667 
L 106.533333 104.026667 
z
" style="fill:#ff0000;"/>
   </g>
   <g id="patch_6">
    <path clip-path="url(#pf298252eea)" d="M 100.919108 28.908844 
Q 102.707589 28.908844 104.012322 32.796125 
Q 105.903081 38.378261 106.326013 52.372473 
L 104.62599 52.372473 
Q 104.313627 44.551264 103.337841 40.974965 
Q 102.362055 37.398666 100.87488 37.398666 
Q 99.114042 37.398666 97.908822 44.846697 
Q 96.703602 52.279179 96.703602 67.0042 
Q 96.703602 79.723384 97.695974 87.715635 
Q 98.69111 95.707885 100.935694 95.707885 
Q 102.655068 95.707885 103.782888 90.1102 
Q 104.910709 84.496966 104.935587 71.948822 
L 100.963337 71.948822 
L 100.963337 63.941022 
L 106.533333 63.941022 
L 106.533333 102.129673 
L 105.427627 102.129673 
L 105.012987 92.940141 
Q 104.142243 98.335687 103.467762 100.434819 
Q 102.334413 104.026667 100.590161 104.026667 
Q 98.337283 104.026667 96.711895 95.816729 
Q 94.94 85.507659 94.94 67.53287 
Q 94.94 49.604729 96.667667 39.015775 
Q 98.309641 28.908844 100.919108 28.908844 
z
M 100.634389 28.8 
L 100.634389 28.8 
z
" style="fill:#ffa600;"/>
   </g>
   <g id="patch_7">
    <path clip-path="url(#pf298252eea)" d="M 114.925219 136.503089 
L 112.952909 130.964728 
L 110.856092 136.503089 
L 114.925219 136.503089 
z
M 112.033252 129.102222 
L 114.022541 129.102222 
L 118.736842 141.64 
L 116.806978 141.64 
L 115.491162 137.884948 
L 110.352403 137.884948 
L 108.946036 141.64 
L 107.143509 141.64 
L 112.033252 129.102222 
z
M 112.94442 129.102222 
L 112.94442 129.102222 
z
" style="fill:#008000;"/>
   </g>
   <g id="patch_8">
    <path clip-path="url(#pf298252eea)" d="M 113.239119 116.564444 
Q 115.721778 116.564444 117.091227 117.757284 
Q 118.460675 118.94753 118.61157 120.461917 
L 116.886236 120.461917 
Q 116.592987 119.313161 115.716084 118.641541 
Q 114.839182 117.967327 113.256202 117.967327 
Q 111.325878 117.967327 110.138643 119.20425 
Q 108.951408 120.438579 108.951408 122.990218 
Q 108.951408 125.082873 110.021913 126.384623 
Q 111.095264 127.683781 113.222037 127.683781 
Q 115.177985 127.683781 116.202936 126.314609 
Q 116.743882 125.593719 117.011508 124.416438 
L 118.736842 124.416438 
Q 118.506228 126.296457 117.207957 127.569683 
Q 115.650601 129.102222 113.008505 129.102222 
Q 110.730837 129.102222 109.182022 127.844555 
Q 107.143509 126.184952 107.143509 122.715346 
Q 107.143509 120.08332 108.675241 118.397787 
Q 110.329398 116.564444 113.239119 116.564444 
z
M 112.883234 116.564444 
L 112.883234 116.564444 
z
" style="fill:#0000ff;"/>
   </g>
   <g id="patch_9">
    <path clip-path="url(#pf298252eea)" d="M 118.736842 104.026667 
L 118.736842 105.520495 
L 113.922107 105.520495 
L 113.922107 116.564444 
L 111.958243 116.564444 
L 111.958243 105.520495 
L 107.143509 105.520495 
L 107.143509 104.026667 
L 118.736842 104.026667 
z
" style="fill:#ff0000;"/>
   </g>
   <g id="patch_10">
    <path clip-path="url(#pf298252eea)" d="M 113.122617 28.908844 
Q 114.911097 28.908844 116.215831 32.796125 
Q 118.106589 38.378261 118.529522 52.372473 
L 116.829498 52.372473 
Q 116.517136 44.551264 115.54135 40.974965 
Q 114.565564 37.398666 113.078389 37.398666 
Q 111.317551 37.398666 110.112331 44.846697 
Q 108.907111 52.279179 108.907111 67.0042 
Q 108.907111 79.723384 109.899482 87.715635 
Q 110.894618 95.707885 113.139203 95.707885 
Q 114.858576 95.707885 115.986397 90.1102 
Q 117.114218 84.496966 117.139096 71.948822 
L 113.166845 71.948822 
L 113.166845 63.941022 
L 118.736842 63.941022 
L 118.736842 102.129673 
L 117.631136 102.129673 
L 117.216496 92.940141 
Q 116.345752 98.335687 115.671271 100.434819 
Q 114.537921 104.026667 112.793669 104.026667 
Q 110.540792 104.026667 108.915404 95.816729 
Q 107.143509 85.507659 107.143509 67.53287 
Q 107.143509 49.604729 108.871175 39.015775 
Q 110.51315 28.908844 113.122617 28.908844 
z
M 112.837898 28.8 
L 112.837898 28.8 
z
" style="fill:#ffa600;"/>
   </g>
   <g id="patch_11">
    <path clip-path="url(#pf298252eea)" d="M 127.128728 136.503089 
L 125.156418 130.964728 
L 123.059601 136.503089 
L 127.128728 136.503089 
z
M 124.236761 129.102222 
L 126.226049 129.102222 
L 130.940351 141.64 
L 129.010487 141.64 
L 127.69467 137.884948 
L 122.555912 137.884948 
L 121.149545 141.64 
L 119.347018 141.64 
L 124.236761 129.102222 
z
M 125.147929 129.102222 
L 125.147929 129.102222 
z
" style="fill:#008000;"/>
   </g>
   <g id="patch_12">
    <path clip-path="url(#pf298252eea)" d="M 125.442628 116.564444 
Q 127.925287 116.564444 129.294735 117.757284 
Q 130.664184 118.94753 130.815079 120.461917 
L 129.089745 120.461917 
Q 128.796495 119.313161 127.919593 118.641541 
Q 127.04269 117.967327 125.459711 117.967327 
Q 123.529387 117.967327 122.342152 119.20425 
Q 121.154917 120.438579 121.154917 122.990218 
Q 121.154917 125.082873 122.225421 126.384623 
Q 123.298773 127.683781 125.425546 127.683781 
Q 127.381494 127.683781 128.406445 126.314609 
Q 128.947391 125.593719 129.215017 124.416438 
L 130.940351 124.416438 
Q 130.709737 126.296457 129.411466 127.569683 
Q 127.85411 129.102222 125.212014 129.102222 
Q 122.934346 129.102222 121.385531 127.844555 
Q 119.347018 126.184952 119.347018 122.715346 
Q 119.347018 120.08332 120.87875 118.397787 
Q 122.532907 116.564444 125.442628 116.564444 
z
M 125.086742 116.564444 
L 125.086742 116.564444 
z
" style="fill:#0000ff;"/>
   </g>
   <g id="patch_13">
    <path clip-path="url(#pf298252eea)" d="M 130.940351 104.026667 
L 130.940351 105.520495 
L 126.125616 105.520495 
L 126.125616 116.564444 
L 124.161752 116.564444 
L 124.161752 105.520495 
L 119.347018 105.520495 
L 119.347018 104.026667 
L 130.940351 104.026667 
z
" style="fill:#ff0000;"/>
   </g>
   <g id="patch_14">
    <path clip-path="url(#pf298252eea)" d="M 125.326126 28.908844 
Q 127.114606 28.908844 128.41934 32.796125 
Q 130.310098 38.378261 130.733031 52.372473 
L 129.033007 52.372473 
Q 128.720645 44.551264 127.744859 40.974965 
Q 126.769073 37.398666 125.281898 37.398666 
Q 123.52106 37.398666 122.31584 44.846697 
Q 121.11062 52.279179 121.11062 67.0042 
Q 121.11062 79.723384 122.102991 87.715635 
Q 123.098127 95.707885 125.342711 95.707885 
Q 127.062085 95.707885 128.189906 90.1102 
Q 129.317726 84.496966 129.342605 71.948822 
L 125.370354 71.948822 
L 125.370354 63.941022 
L 130.940351 63.941022 
L 130.940351 102.129673 
L 129.834644 102.129673 
L 129.420004 92.940141 
Q 128.54926 98.335687 127.874779 100.434819 
Q 126.74143 104.026667 124.997178 104.026667 
Q 122.744301 104.026667 121.118912 95.816729 
Q 119.347018 85.507659 119.347018 67.53287 
Q 119.347018 49.604729 121.074684 39.015775 
Q 122.716658 28.908844 125.326126 28.908844 
z
M 125.041406 28.8 
L 125.041406 28.8 
z
" style="fill:#ffa600;"/>
   </g>
   <g id="patch_15">
    <path clip-path="url(#pf298252eea)" d="M 139.332237 136.503089 
L 137.359927 130.964728 
L 135.26311 136.503089 
L 139.332237 136.503089 
z
M 136.44027 129.102222 
L 138.429558 129.102222 
L 143.14386 141.64 
L 141.213996 141.64 
L 139.898179 137.884948 
L 134.759421 137.884948 
L 133.353053 141.64 
L 131.550526 141.64 
L 136.44027 129.102222 
z
M 137.351438 129.102222 
L 137.351438 129.102222 
z
" style="fill:#008000;"/>
   </g>
   <g id="patch_16">
    <path clip-path="url(#pf298252eea)" d="M 137.646137 116.564444 
Q 140.128796 116.564444 141.498244 117.757284 
Q 142.867692 118.94753 143.018588 120.461917 
L 141.293254 120.461917 
Q 141.000004 119.313161 140.123102 118.641541 
Q 139.246199 117.967327 137.66322 117.967327 
Q 135.732895 117.967327 134.545661 119.20425 
Q 133.358426 120.438579 133.358426 122.990218 
Q 133.358426 125.082873 134.42893 126.384623 
Q 135.502281 127.683781 137.629054 127.683781 
Q 139.585002 127.683781 140.609953 126.314609 
Q 141.1509 125.593719 141.418526 124.416438 
L 143.14386 124.416438 
Q 142.913246 126.296457 141.614975 127.569683 
Q 140.057619 129.102222 137.415523 129.102222 
Q 135.137854 129.102222 133.58904 127.844555 
Q 131.550526 126.184952 131.550526 122.715346 
Q 131.550526 120.08332 133.082258 118.397787 
Q 134.736415 116.564444 137.646137 116.564444 
z
M 137.290251 116.564444 
L 137.290251 116.564444 
z
" style="fill:#0000ff;"/>
   </g>
   <g id="patch_17">
    <path clip-path="url(#pf298252eea)" d="M 143.14386 104.026667 
L 143.14386 105.520495 
L 138.329125 105.520495 
L 138.329125 116.564444 
L 136.365261 116.564444 
L 136.365261 105.520495 
L 131.550526 105.520495 
L 131.550526 104.026667 
L 143.14386 104.026667 
z
" style="fill:#ff0000;"/>
   </g>
   <g id="patch_18">
    <path clip-path="url(#pf298252eea)" d="M 137.529635 28.908844 
Q 139.318115 28.908844 140.622849 32.796125 
Q 142.513607 38.378261 142.93654 52.372473 
L 141.236516 52.372473 
Q 140.924154 44.551264 139.948368 40.974965 
Q 138.972582 37.398666 137.485406 37.398666 
Q 135.724569 37.398666 134.519348 44.846697 
Q 133.314128 52.279179 133.314128 67.0042 
Q 133.314128 79.723384 134.3065 87.715635 
Q 135.301636 95.707885 137.54622 95.707885 
Q 139.265594 95.707885 140.393415 90.1102 
Q 141.521235 84.496966 141.546114 71.948822 
L 137.573863 71.948822 
L 137.573863 63.941022 
L 143.14386 63.941022 
L 143.14386 102.129673 
L 142.038153 102.129673 
L 141.623513 92.940141 
Q 140.752769 98.335687 140.078288 100.434819 
Q 138.944939 104.026667 137.200687 104.026667 
Q 134.94781 104.026667 133.322421 95.816729 
Q 131.550526 85.507659 131.550526 67.53287 
Q 131.550526 49.604729 133.278193 39.015775 
Q 134.920167 28.908844 137.529635 28.908844 
z
M 137.244915 28.8 
L 137.244915 28.8 
z
" style="fill:#ffa600;"/>
   </g>
   <g id="patch_19">
    <path clip-path="url(#pf298252eea)" d="M 149.849646 129.102222 
Q 152.332305 129.102222 153.701753 130.295061 
Q 155.071201 131.485308 155.222097 132.999695 
L 153.496763 132.999695 
Q 153.203513 131.850939 152.32661 131.179318 
Q 151.449708 130.505105 149.866728 130.505105 
Q 147.936404 130.505105 146.749169 131.742027 
Q 145.561935 132.976357 145.561935 135.527995 
Q 145.561935 137.62065 146.632439 138.922401 
Q 147.70579 140.221559 149.832563 140.221559 
Q 151.788511 140.221559 152.813462 138.852387 
Q 153.354408 138.131497 153.622034 136.954216 
L 155.347368 136.954216 
Q 155.116754 138.834235 153.818483 140.107461 
Q 152.261127 141.64 149.619032 141.64 
Q 147.341363 141.64 145.792549 140.382333 
Q 143.754035 138.72273 143.754035 135.253124 
Q 143.754035 132.621098 145.285767 130.935564 
Q 146.939924 129.102222 149.849646 129.102222 
z
M 149.49376 129.102222 
L 149.49376 129.102222 
z
" style="fill:#0000ff;"/>
   </g>
   <g id="patch_20">
    <path clip-path="url(#pf298252eea)" d="M 149.733143 116.582585 
Q 151.521624 116.582585 152.826357 117.230465 
Q 154.717116 118.160821 155.140048 120.49319 
L 153.440025 120.49319 
Q 153.127662 119.189655 152.151876 118.593605 
Q 151.17609 117.997555 149.688915 117.997555 
Q 147.928077 117.997555 146.722857 119.238894 
Q 145.517637 120.477641 145.517637 122.931811 
Q 145.517637 125.051675 146.510009 126.383717 
Q 147.505145 127.715759 149.749729 127.715759 
Q 151.469103 127.715759 152.596923 126.782811 
Q 153.724744 125.847272 153.749622 123.755915 
L 149.777372 123.755915 
L 149.777372 122.421282 
L 155.347368 122.421282 
L 155.347368 128.786057 
L 154.241662 128.786057 
L 153.827022 127.254468 
Q 152.956278 128.153726 152.281797 128.503581 
Q 151.148448 129.102222 149.404196 129.102222 
Q 147.151319 129.102222 145.52593 127.733899 
Q 143.754035 126.015721 143.754035 123.019923 
Q 143.754035 120.031899 145.481702 118.267074 
Q 147.123676 116.582585 149.733143 116.582585 
z
M 149.448424 116.564444 
L 149.448424 116.564444 
z
" style="fill:#ffa600;"/>
   </g>
   <g id="patch_21">
    <path clip-path="url(#pf298252eea)" d="M 155.347368 104.026667 
L 155.347368 105.520495 
L 150.532634 105.520495 
L 150.532634 116.564444 
L 148.56877 116.564444 
L 148.56877 105.520495 
L 143.754035 105.520495 
L 143.754035 104.026667 
L 155.347368 104.026667 
z
" style="fill:#ff0000;"/>
   </g>
   <g id="patch_22">
    <path clip-path="url(#pf298252eea)" d="M 151.535745 73.205199 
L 149.563435 39.975035 
L 147.466618 73.205199 
L 151.535745 73.205199 
z
M 148.643779 28.8 
L 150.633067 28.8 
L 155.347368 104.026667 
L 153.417504 104.026667 
L 152.101688 81.496354 
L 146.962929 81.496354 
L 145.556562 104.026667 
L 143.754035 104.026667 
L 148.643779 28.8 
z
M 149.554946 28.8 
L 149.554946 28.8 
z
" style="fill:#008000;"/>
   </g>
   <g id="patch_23">
    <path clip-path="url(#pf298252eea)" d="M 163.739254 136.503089 
L 161.766944 130.964728 
L 159.670127 136.503089 
L 163.739254 136.503089 
z
M 160.847288 129.102222 
L 162.836576 129.102222 
L 167.550877 141.64 
L 165.621013 141.64 
L 164.305197 137.884948 
L 159.166438 137.884948 
L 157.760071 141.64 
L 155.957544 141.64 
L 160.847288 129.102222 
z
M 161.758455 129.102222 
L 161.758455 129.102222 
z
" style="fill:#008000;"/>
   </g>
   <g id="patch_24">
    <path clip-path="url(#pf298252eea)" d="M 162.053155 116.564444 
Q 164.535813 116.564444 165.905262 117.757284 
Q 167.27471 118.94753 167.425605 120.461917 
L 165.700271 120.461917 
Q 165.407022 119.313161 164.530119 118.641541 
Q 163.653217 117.967327 162.070237 117.967327 
Q 160.139913 117.967327 158.952678 119.20425 
Q 157.765443 120.438579 157.765443 122.990218 
Q 157.765443 125.082873 158.835948 126.384623 
Q 159.909299 127.683781 162.036072 127.683781 
Q 163.99202 127.683781 165.016971 126.314609 
Q 165.557917 125.593719 165.825543 124.416438 
L 167.550877 124.416438 
Q 167.320263 126.296457 166.021992 127.569683 
Q 164.464636 129.102222 161.822541 129.102222 
Q 159.544872 129.102222 157.996057 127.844555 
Q 155.957544 126.184952 155.957544 122.715346 
Q 155.957544 120.08332 157.489276 118.397787 
Q 159.143433 116.564444 162.053155 116.564444 
z
M 161.697269 116.564444 
L 161.697269 116.564444 
z
" style="fill:#0000ff;"/>
   </g>
   <g id="patch_25">
    <path clip-path="url(#pf298252eea)" d="M 167.550877 104.026667 
L 167.550877 105.520495 
L 162.736143 105.520495 
L 162.736143 116.564444 
L 160.772279 116.564444 
L 160.772279 105.520495 
L 155.957544 105.520495 
L 155.957544 104.026667 
L 167.550877 104.026667 
z
" style="fill:#ff0000;"/>
   </g>
   <g id="patch_26">
    <path clip-path="url(#pf298252eea)" d="M 161.936652 28.908844 
Q 163.725132 28.908844 165.029866 32.796125 
Q 166.920624 38.378261 167.343557 52.372473 
L 165.643533 52.372473 
Q 165.331171 44.551264 164.355385 40.974965 
Q 163.379599 37.398666 161.892424 37.398666 
Q 160.131586 37.398666 158.926366 44.846697 
Q 157.721146 52.279179 157.721146 67.0042 
Q 157.721146 79.723384 158.713517 87.715635 
Q 159.708653 95.707885 161.953238 95.707885 
Q 163.672611 95.707885 164.800432 90.1102 
Q 165.928253 84.496966 165.953131 71.948822 
L 161.98088 71.948822 
L 161.98088 63.941022 
L 167.550877 63.941022 
L 167.550877 102.129673 
L 166.445171 102.129673 
L 166.030531 92.940141 
Q 165.159787 98.335687 164.485306 100.434819 
Q 163.351957 104.026667 161.607704 104.026667 
Q 159.354827 104.026667 157.729439 95.816729 
Q 155.957544 85.507659 155.957544 67.53287 
Q 155.957544 49.604729 157.68521 39.015775 
Q 159.327185 28.908844 161.936652 28.908844 
z
M 161.651933 28.8 
L 161.651933 28.8 
z
" style="fill:#ffa600;"/>
   </g>
   <g id="patch_27">
    <path clip-path="url(#pf298252eea)" d="M 175.942763 136.503089 
L 173.970453 130.964728 
L 171.873636 136.503089 
L 175.942763 136.503089 
z
M 173.050796 129.102222 
L 175.040084 129.102222 
L 179.754386 141.64 
L 177.824522 141.64 
L 176.508705 137.884948 
L 171.369947 137.884948 
L 169.96358 141.64 
L 168.161053 141.64 
L 173.050796 129.102222 
z
M 173.961964 129.102222 
L 173.961964 129.102222 
z
" style="fill:#008000;"/>
   </g>
   <g id="patch_28">
    <path clip-path="url(#pf298252eea)" d="M 174.256663 116.564444 
Q 176.739322 116.564444 178.10877 117.757284 
Q 179.478219 118.94753 179.629114 120.461917 
L 177.90378 120.461917 
Q 177.61053 119.313161 176.733628 118.641541 
Q 175.856726 117.967327 174.273746 117.967327 
Q 172.343422 117.967327 171.156187 119.20425 
Q 169.968952 120.438579 169.968952 122.990218 
Q 169.968952 125.082873 171.039456 126.384623 
Q 172.112808 127.683781 174.239581 127.683781 
Q 176.195529 127.683781 177.22048 126.314609 
Q 177.761426 125.593719 178.029052 124.416438 
L 179.754386 124.416438 
Q 179.523772 126.296457 178.225501 127.569683 
Q 176.668145 129.102222 174.026049 129.102222 
Q 171.748381 129.102222 170.199566 127.844555 
Q 168.161053 126.184952 168.161053 122.715346 
Q 168.161053 120.08332 169.692785 118.397787 
Q 171.346942 116.564444 174.256663 116.564444 
z
M 173.900778 116.564444 
L 173.900778 116.564444 
z
" style="fill:#0000ff;"/>
   </g>
   <g id="patch_29">
    <path clip-path="url(#pf298252eea)" d="M 179.754386 104.026667 
L 179.754386 105.520495 
L 174.939651 105.520495 
L 174.939651 116.564444 
L 172.975787 116.564444 
L 172.975787 105.520495 
L 168.161053 105.520495 
L 168.161053 104.026667 
L 179.754386 104.026667 
z
" style="fill:#ff0000;"/>
   </g>
   <g id="patch_30">
    <path clip-path="url(#pf298252eea)" d="M 174.140161 28.908844 
Q 175.928641 28.908844 177.233375 32.796125 
Q 179.124133 38.378261 179.547066 52.372473 
L 177.847042 52.372473 
Q 177.53468 44.551264 176.558894 40.974965 
Q 175.583108 37.398666 174.095933 37.398666 
Q 172.335095 37.398666 171.129875 44.846697 
Q 169.924655 52.279179 169.924655 67.0042 
Q 169.924655 79.723384 170.917026 87.715635 
Q 171.912162 95.707885 174.156746 95.707885 
Q 175.87612 95.707885 177.003941 90.1102 
Q 178.131762 84.496966 178.15664 71.948822 
L 174.184389 71.948822 
L 174.184389 63.941022 
L 179.754386 63.941022 
L 179.754386 102.129673 
L 178.648679 102.129673 
L 178.234039 92.940141 
Q 177.363296 98.335687 176.688815 100.434819 
Q 175.555465 104.026667 173.811213 104.026667 
Q 171.558336 104.026667 169.932947 95.816729 
Q 168.161053 85.507659 168.161053 67.53287 
Q 168.161053 49.604729 169.888719 39.015775 
Q 171.530693 28.908844 174.140161 28.908844 
z
M 173.855441 28.8 
L 173.855441 28.8 
z
" style="fill:#ffa600;"/>
   </g>
   <g id="patch_31">
    <path clip-path="url(#pf298252eea)" d="M 188.146272 136.503089 
L 186.173962 130.964728 
L 184.077145 136.503089 
L 188.146272 136.503089 
z
M 185.254305 129.102222 
L 187.243593 129.102222 
L 191.957895 141.64 
L 190.028031 141.64 
L 188.712214 137.884948 
L 183.573456 137.884948 
L 182.167088 141.64 
L 180.364561 141.64 
L 185.254305 129.102222 
z
M 186.165473 129.102222 
L 186.165473 129.102222 
z
" style="fill:#008000;"/>
   </g>
   <g id="patch_32">
    <path clip-path="url(#pf298252eea)" d="M 186.460172 116.564444 
Q 188.942831 116.564444 190.312279 117.757284 
Q 191.681727 118.94753 191.832623 120.461917 
L 190.107289 120.461917 
Q 189.814039 119.313161 188.937137 118.641541 
Q 188.060234 117.967327 186.477255 117.967327 
Q 184.54693 117.967327 183.359696 119.20425 
Q 182.172461 120.438579 182.172461 122.990218 
Q 182.172461 125.082873 183.242965 126.384623 
Q 184.316316 127.683781 186.44309 127.683781 
Q 188.399038 127.683781 189.423988 126.314609 
Q 189.964935 125.593719 190.232561 124.416438 
L 191.957895 124.416438 
Q 191.727281 126.296457 190.42901 127.569683 
Q 188.871654 129.102222 186.229558 129.102222 
Q 183.951889 129.102222 182.403075 127.844555 
Q 180.364561 126.184952 180.364561 122.715346 
Q 180.364561 120.08332 181.896294 118.397787 
Q 183.55045 116.564444 186.460172 116.564444 
z
M 186.104286 116.564444 
L 186.104286 116.564444 
z
" style="fill:#0000ff;"/>
   </g>
   <g id="patch_33">
    <path clip-path="url(#pf298252eea)" d="M 191.957895 104.026667 
L 191.957895 105.520495 
L 187.14316 105.520495 
L 187.14316 116.564444 
L 185.179296 116.564444 
L 185.179296 105.520495 
L 180.364561 105.520495 
L 180.364561 104.026667 
L 191.957895 104.026667 
z
" style="fill:#ff0000;"/>
   </g>
   <g id="patch_34">
    <path clip-path="url(#pf298252eea)" d="M 186.34367 28.908844 
Q 188.13215 28.908844 189.436884 32.796125 
Q 191.327642 38.378261 191.750575 52.372473 
L 190.050551 52.372473 
Q 189.738189 44.551264 188.762403 40.974965 
Q 187.786617 37.398666 186.299441 37.398666 
Q 184.538604 37.398666 183.333384 44.846697 
Q 182.128163 52.279179 182.128163 67.0042 
Q 182.128163 79.723384 183.120535 87.715635 
Q 184.115671 95.707885 186.360255 95.707885 
Q 188.079629 95.707885 189.20745 90.1102 
Q 190.33527 84.496966 190.360149 71.948822 
L 186.387898 71.948822 
L 186.387898 63.941022 
L 191.957895 63.941022 
L 191.957895 102.129673 
L 190.852188 102.129673 
L 190.437548 92.940141 
Q 189.566804 98.335687 188.892323 100.434819 
Q 187.758974 104.026667 186.014722 104.026667 
Q 183.761845 104.026667 182.136456 95.816729 
Q 180.364561 85.507659 180.364561 67.53287 
Q 180.364561 49.604729 182.092228 39.015775 
Q 183.734202 28.908844 186.34367 28.908844 
z
M 186.05895 28.8 
L 186.05895 28.8 
z
" style="fill:#ffa600;"/>
   </g>
   <g id="patch_35">
    <path clip-path="url(#pf298252eea)" d="M 200.34978 136.503089 
L 198.377471 130.964728 
L 196.280653 136.503089 
L 200.34978 136.503089 
z
M 197.457814 129.102222 
L 199.447102 129.102222 
L 204.161404 141.64 
L 202.231539 141.64 
L 200.915723 137.884948 
L 195.776964 137.884948 
L 194.370597 141.64 
L 192.56807 141.64 
L 197.457814 129.102222 
z
M 198.368981 129.102222 
L 198.368981 129.102222 
z
" style="fill:#008000;"/>
   </g>
   <g id="patch_36">
    <path clip-path="url(#pf298252eea)" d="M 198.663681 116.564444 
Q 201.14634 116.564444 202.515788 117.757284 
Q 203.885236 118.94753 204.036132 120.461917 
L 202.310798 120.461917 
Q 202.017548 119.313161 201.140645 118.641541 
Q 200.263743 117.967327 198.680763 117.967327 
Q 196.750439 117.967327 195.563204 119.20425 
Q 194.37597 120.438579 194.37597 122.990218 
Q 194.37597 125.082873 195.446474 126.384623 
Q 196.519825 127.683781 198.646598 127.683781 
Q 200.602546 127.683781 201.627497 126.314609 
Q 202.168443 125.593719 202.43607 124.416438 
L 204.161404 124.416438 
Q 203.93079 126.296457 202.632518 127.569683 
Q 201.075163 129.102222 198.433067 129.102222 
Q 196.155398 129.102222 194.606584 127.844555 
Q 192.56807 126.184952 192.56807 122.715346 
Q 192.56807 120.08332 194.099802 118.397787 
Q 195.753959 116.564444 198.663681 116.564444 
z
M 198.307795 116.564444 
L 198.307795 116.564444 
z
" style="fill:#0000ff;"/>
   </g>
   <g id="patch_37">
    <path clip-path="url(#pf298252eea)" d="M 204.161404 104.026667 
L 204.161404 105.520495 
L 199.346669 105.520495 
L 199.346669 116.564444 
L 197.382805 116.564444 
L 197.382805 105.520495 
L 192.56807 105.520495 
L 192.56807 104.026667 
L 204.161404 104.026667 
z
" style="fill:#ff0000;"/>
   </g>
   <g id="patch_38">
    <path clip-path="url(#pf298252eea)" d="M 198.547178 28.908844 
Q 200.335659 28.908844 201.640393 32.796125 
Q 203.531151 38.378261 203.954084 52.372473 
L 202.25406 52.372473 
Q 201.941698 44.551264 200.965912 40.974965 
Q 199.990125 37.398666 198.50295 37.398666 
Q 196.742112 37.398666 195.536892 44.846697 
Q 194.331672 52.279179 194.331672 67.0042 
Q 194.331672 79.723384 195.324044 87.715635 
Q 196.31918 95.707885 198.563764 95.707885 
Q 200.283138 95.707885 201.410958 90.1102 
Q 202.538779 84.496966 202.563658 71.948822 
L 198.591407 71.948822 
L 198.591407 63.941022 
L 204.161404 63.941022 
L 204.161404 102.129673 
L 203.055697 102.129673 
L 202.641057 92.940141 
Q 201.770313 98.335687 201.095832 100.434819 
Q 199.962483 104.026667 198.218231 104.026667 
Q 195.965354 104.026667 194.339965 95.816729 
Q 192.56807 85.507659 192.56807 67.53287 
Q 192.56807 49.604729 194.295737 39.015775 
Q 195.937711 28.908844 198.547178 28.908844 
z
M 198.262459 28.8 
L 198.262459 28.8 
z
" style="fill:#ffa600;"/>
   </g>
   <g id="patch_39">
    <path clip-path="url(#pf298252eea)" d="M 210.86719 129.102222 
Q 213.349848 129.102222 214.719297 130.295061 
Q 216.088745 131.485308 216.239641 132.999695 
L 214.514307 132.999695 
Q 214.221057 131.850939 213.344154 131.179318 
Q 212.467252 130.505105 210.884272 130.505105 
Q 208.953948 130.505105 207.766713 131.742027 
Q 206.579478 132.976357 206.579478 135.527995 
Q 206.579478 137.62065 207.649983 138.922401 
Q 208.723334 140.221559 210.850107 140.221559 
Q 212.806055 140.221559 213.831006 138.852387 
Q 214.371952 138.131497 214.639578 136.954216 
L 216.364912 136.954216 
Q 216.134298 138.834235 214.836027 140.107461 
Q 213.278671 141.64 210.636576 141.64 
Q 208.358907 141.64 206.810092 140.382333 
Q 204.771579 138.72273 204.771579 135.253124 
Q 204.771579 132.621098 206.303311 130.935564 
Q 207.957468 129.102222 210.86719 129.102222 
z
M 210.511304 129.102222 
L 210.511304 129.102222 
z
" style="fill:#0000ff;"/>
   </g>
   <g id="patch_40">
    <path clip-path="url(#pf298252eea)" d="M 210.750687 116.582585 
Q 212.539168 116.582585 213.843901 117.230465 
Q 215.73466 118.160821 216.157592 120.49319 
L 214.457568 120.49319 
Q 214.145206 119.189655 213.16942 118.593605 
Q 212.193634 117.997555 210.706459 117.997555 
Q 208.945621 117.997555 207.740401 119.238894 
Q 206.535181 120.477641 206.535181 122.931811 
Q 206.535181 125.051675 207.527553 126.383717 
Q 208.522688 127.715759 210.767273 127.715759 
Q 212.486647 127.715759 213.614467 126.782811 
Q 214.742288 125.847272 214.767166 123.755915 
L 210.794915 123.755915 
L 210.794915 122.421282 
L 216.364912 122.421282 
L 216.364912 128.786057 
L 215.259206 128.786057 
L 214.844566 127.254468 
Q 213.973822 128.153726 213.299341 128.503581 
Q 212.165992 129.102222 210.421739 129.102222 
Q 208.168862 129.102222 206.543474 127.733899 
Q 204.771579 126.015721 204.771579 123.019923 
Q 204.771579 120.031899 206.499245 118.267074 
Q 208.14122 116.582585 210.750687 116.582585 
z
M 210.465968 116.564444 
L 210.465968 116.564444 
z
" style="fill:#ffa600;"/>
   </g>
   <g id="patch_41">
    <path clip-path="url(#pf298252eea)" d="M 216.364912 104.026667 
L 216.364912 105.520495 
L 211.550178 105.520495 
L 211.550178 116.564444 
L 209.586314 116.564444 
L 209.586314 105.520495 
L 204.771579 105.520495 
L 204.771579 104.026667 
L 216.364912 104.026667 
z
" style="fill:#ff0000;"/>
   </g>
   <g id="patch_42">
    <path clip-path="url(#pf298252eea)" d="M 212.553289 73.205199 
L 210.580979 39.975035 
L 208.484162 73.205199 
L 212.553289 73.205199 
z
M 209.661323 28.8 
L 211.650611 28.8 
L 216.364912 104.026667 
L 214.435048 104.026667 
L 213.119232 81.496354 
L 207.980473 81.496354 
L 206.574106 104.026667 
L 204.771579 104.026667 
L 209.661323 28.8 
z
M 210.57249 28.8 
L 210.57249 28.8 
z
" style="fill:#008000;"/>
   </g>
   <g id="patch_43">
    <path clip-path="url(#pf298252eea)" d="M 224.756798 136.503089 
L 222.784488 130.964728 
L 220.687671 136.503089 
L 224.756798 136.503089 
z
M 221.864831 129.102222 
L 223.85412 129.102222 
L 228.568421 141.64 
L 226.638557 141.64 
L 225.32274 137.884948 
L 220.183982 137.884948 
L 218.777615 141.64 
L 216.975088 141.64 
L 221.864831 129.102222 
z
M 222.775999 129.102222 
L 222.775999 129.102222 
z
" style="fill:#008000;"/>
   </g>
   <g id="patch_44">
    <path clip-path="url(#pf298252eea)" d="M 223.070698 116.564444 
Q 225.553357 116.564444 226.922805 117.757284 
Q 228.292254 118.94753 228.443149 120.461917 
L 226.717815 120.461917 
Q 226.424565 119.313161 225.547663 118.641541 
Q 224.670761 117.967327 223.087781 117.967327 
Q 221.157457 117.967327 219.970222 119.20425 
Q 218.782987 120.438579 218.782987 122.990218 
Q 218.782987 125.082873 219.853491 126.384623 
Q 220.926843 127.683781 223.053616 127.683781 
Q 225.009564 127.683781 226.034515 126.314609 
Q 226.575461 125.593719 226.843087 124.416438 
L 228.568421 124.416438 
Q 228.337807 126.296457 227.039536 127.569683 
Q 225.48218 129.102222 222.840084 129.102222 
Q 220.562416 129.102222 219.013601 127.844555 
Q 216.975088 126.184952 216.975088 122.715346 
Q 216.975088 120.08332 218.50682 118.397787 
Q 220.160977 116.564444 223.070698 116.564444 
z
M 222.714813 116.564444 
L 222.714813 116.564444 
z
" style="fill:#0000ff;"/>
   </g>
   <g id="patch_45">
    <path clip-path="url(#pf298252eea)" d="M 228.568421 104.026667 
L 228.568421 105.520495 
L 223.753686 105.520495 
L 223.753686 116.564444 
L 221.789822 116.564444 
L 221.789822 105.520495 
L 216.975088 105.520495 
L 216.975088 104.026667 
L 228.568421 104.026667 
z
" style="fill:#ff0000;"/>
   </g>
   <g id="patch_46">
    <path clip-path="url(#pf298252eea)" d="M 222.954196 28.908844 
Q 224.742676 28.908844 226.04741 32.796125 
Q 227.938168 38.378261 228.361101 52.372473 
L 226.661077 52.372473 
Q 226.348715 44.551264 225.372929 40.974965 
Q 224.397143 37.398666 222.909968 37.398666 
Q 221.14913 37.398666 219.94391 44.846697 
Q 218.73869 52.279179 218.73869 67.0042 
Q 218.73869 79.723384 219.731061 87.715635 
Q 220.726197 95.707885 222.970782 95.707885 
Q 224.690155 95.707885 225.817976 90.1102 
Q 226.945797 84.496966 226.970675 71.948822 
L 222.998424 71.948822 
L 222.998424 63.941022 
L 228.568421 63.941022 
L 228.568421 102.129673 
L 227.462714 102.129673 
L 227.048075 92.940141 
Q 226.177331 98.335687 225.50285 100.434819 
Q 224.3695 104.026667 222.625248 104.026667 
Q 220.372371 104.026667 218.746982 95.816729 
Q 216.975088 85.507659 216.975088 67.53287 
Q 216.975088 49.604729 218.702754 39.015775 
Q 220.344728 28.908844 222.954196 28.908844 
z
M 222.669477 28.8 
L 222.669477 28.8 
z
" style="fill:#ffa600;"/>
   </g>
   <g id="patch_47">
    <path clip-path="url(#pf298252eea)" d="M 236.960307 136.503089 
L 234.987997 130.964728 
L 232.89118 136.503089 
L 236.960307 136.503089 
z
M 234.06834 129.102222 
L 236.057628 129.102222 
L 240.77193 141.64 
L 238.842066 141.64 
L 237.526249 137.884948 
L 232.387491 137.884948 
L 230.981124 141.64 
L 229.178596 141.64 
L 234.06834 129.102222 
z
M 234.979508 129.102222 
L 234.979508 129.102222 
z
" style="fill:#008000;"/>
   </g>
   <g id="patch_48">
    <path clip-path="url(#pf298252eea)" d="M 235.274207 116.564444 
Q 237.756866 116.564444 239.126314 117.757284 
Q 240.495763 118.94753 240.646658 120.461917 
L 238.921324 120.461917 
Q 238.628074 119.313161 237.751172 118.641541 
Q 236.874269 117.967327 235.29129 117.967327 
Q 233.360966 117.967327 232.173731 119.20425 
Q 230.986496 120.438579 230.986496 122.990218 
Q 230.986496 125.082873 232.057 126.384623 
Q 233.130352 127.683781 235.257125 127.683781 
Q 237.213073 127.683781 238.238023 126.314609 
Q 238.77897 125.593719 239.046596 124.416438 
L 240.77193 124.416438 
Q 240.541316 126.296457 239.243045 127.569683 
Q 237.685689 129.102222 235.043593 129.102222 
Q 232.765925 129.102222 231.21711 127.844555 
Q 229.178596 126.184952 229.178596 122.715346 
Q 229.178596 120.08332 230.710329 118.397787 
Q 232.364485 116.564444 235.274207 116.564444 
z
M 234.918321 116.564444 
L 234.918321 116.564444 
z
" style="fill:#0000ff;"/>
   </g>
   <g id="patch_49">
    <path clip-path="url(#pf298252eea)" d="M 240.77193 104.026667 
L 240.77193 105.520495 
L 235.957195 105.520495 
L 235.957195 116.564444 
L 233.993331 116.564444 
L 233.993331 105.520495 
L 229.178596 105.520495 
L 229.178596 104.026667 
L 240.77193 104.026667 
z
" style="fill:#ff0000;"/>
   </g>
   <g id="patch_50">
    <path clip-path="url(#pf298252eea)" d="M 235.157705 28.908844 
Q 236.946185 28.908844 238.250919 32.796125 
Q 240.141677 38.378261 240.56461 52.372473 
L 238.864586 52.372473 
Q 238.552224 44.551264 237.576438 40.974965 
Q 236.600652 37.398666 235.113476 37.398666 
Q 233.352639 37.398666 232.147419 44.846697 
Q 230.942198 52.279179 230.942198 67.0042 
Q 230.942198 79.723384 231.93457 87.715635 
Q 232.929706 95.707885 235.17429 95.707885 
Q 236.893664 95.707885 238.021485 90.1102 
Q 239.149305 84.496966 239.174184 71.948822 
L 235.201933 71.948822 
L 235.201933 63.941022 
L 240.77193 63.941022 
L 240.77193 102.129673 
L 239.666223 102.129673 
L 239.251583 92.940141 
Q 238.380839 98.335687 237.706358 100.434819 
Q 236.573009 104.026667 234.828757 104.026667 
Q 232.57588 104.026667 230.950491 95.816729 
Q 229.178596 85.507659 229.178596 67.53287 
Q 229.178596 49.604729 230.906263 39.015775 
Q 232.548237 28.908844 235.157705 28.908844 
z
M 234.872985 28.8 
L 234.872985 28.8 
z
" style="fill:#ffa600;"/>
   </g>
   <g id="patch_51">
    <path clip-path="url(#pf298252eea)" d="M 249.163815 136.503089 
L 247.191506 130.964728 
L 245.094688 136.503089 
L 249.163815 136.503089 
z
M 246.271849 129.102222 
L 248.261137 129.102222 
L 252.975439 141.64 
L 251.045574 141.64 
L 249.729758 137.884948 
L 244.591 137.884948 
L 243.184632 141.64 
L 241.382105 141.64 
L 246.271849 129.102222 
z
M 247.183016 129.102222 
L 247.183016 129.102222 
z
" style="fill:#008000;"/>
   </g>
   <g id="patch_52">
    <path clip-path="url(#pf298252eea)" d="M 247.477716 116.564444 
Q 249.960375 116.564444 251.329823 117.757284 
Q 252.699271 118.94753 252.850167 120.461917 
L 251.124833 120.461917 
Q 250.831583 119.313161 249.954681 118.641541 
Q 249.077778 117.967327 247.494798 117.967327 
Q 245.564474 117.967327 244.37724 119.20425 
Q 243.190005 120.438579 243.190005 122.990218 
Q 243.190005 125.082873 244.260509 126.384623 
Q 245.33386 127.683781 247.460633 127.683781 
Q 249.416581 127.683781 250.441532 126.314609 
Q 250.982479 125.593719 251.250105 124.416438 
L 252.975439 124.416438 
Q 252.744825 126.296457 251.446554 127.569683 
Q 249.889198 129.102222 247.247102 129.102222 
Q 244.969433 129.102222 243.420619 127.844555 
Q 241.382105 126.184952 241.382105 122.715346 
Q 241.382105 120.08332 242.913837 118.397787 
Q 244.567994 116.564444 247.477716 116.564444 
z
M 247.12183 116.564444 
L 247.12183 116.564444 
z
" style="fill:#0000ff;"/>
   </g>
   <g id="patch_53">
    <path clip-path="url(#pf298252eea)" d="M 252.975439 104.026667 
L 252.975439 105.520495 
L 248.160704 105.520495 
L 248.160704 116.564444 
L 246.19684 116.564444 
L 246.19684 105.520495 
L 241.382105 105.520495 
L 241.382105 104.026667 
L 252.975439 104.026667 
z
" style="fill:#ff0000;"/>
   </g>
   <g id="patch_54">
    <path clip-path="url(#pf298252eea)" d="M 247.361214 28.908844 
Q 249.149694 28.908844 250.454428 32.796125 
Q 252.345186 38.378261 252.768119 52.372473 
L 251.068095 52.372473 
Q 250.755733 44.551264 249.779947 40.974965 
Q 248.804161 37.398666 247.316985 37.398666 
Q 245.556148 37.398666 244.350927 44.846697 
Q 243.145707 52.279179 243.145707 67.0042 
Q 243.145707 79.723384 244.138079 87.715635 
Q 245.133215 95.707885 247.377799 95.707885 
Q 249.097173 95.707885 250.224994 90.1102 
Q 251.352814 84.496966 251.377693 71.948822 
L 247.405442 71.948822 
L 247.405442 63.941022 
L 252.975439 63.941022 
L 252.975439 102.129673 
L 251.869732 102.129673 
L 251.455092 92.940141 
Q 250.584348 98.335687 249.909867 100.434819 
Q 248.776518 104.026667 247.032266 104.026667 
Q 244.779389 104.026667 243.154 95.816729 
Q 241.382105 85.507659 241.382105 67.53287 
Q 241.382105 49.604729 243.109772 39.015775 
Q 244.751746 28.908844 247.361214 28.908844 
z
M 247.076494 28.8 
L 247.076494 28.8 
z
" style="fill:#ffa600;"/>
   </g>
   <g id="patch_55">
    <path clip-path="url(#pf298252eea)" d="M 261.367324 136.503089 
L 259.395014 130.964728 
L 257.298197 136.503089 
L 261.367324 136.503089 
z
M 258.475358 129.102222 
L 260.464646 129.102222 
L 265.178947 141.64 
L 263.249083 141.64 
L 261.933267 137.884948 
L 256.794508 137.884948 
L 255.388141 141.64 
L 253.585614 141.64 
L 258.475358 129.102222 
z
M 259.386525 129.102222 
L 259.386525 129.102222 
z
" style="fill:#008000;"/>
   </g>
   <g id="patch_56">
    <path clip-path="url(#pf298252eea)" d="M 259.681225 116.564444 
Q 262.163884 116.564444 263.533332 117.757284 
Q 264.90278 118.94753 265.053676 120.461917 
L 263.328342 120.461917 
Q 263.035092 119.313161 262.158189 118.641541 
Q 261.281287 117.967327 259.698307 117.967327 
Q 257.767983 117.967327 256.580748 119.20425 
Q 255.393514 120.438579 255.393514 122.990218 
Q 255.393514 125.082873 256.464018 126.384623 
Q 257.537369 127.683781 259.664142 127.683781 
Q 261.62009 127.683781 262.645041 126.314609 
Q 263.185987 125.593719 263.453613 124.416438 
L 265.178947 124.416438 
Q 264.948333 126.296457 263.650062 127.569683 
Q 262.092706 129.102222 259.450611 129.102222 
Q 257.172942 129.102222 255.624127 127.844555 
Q 253.585614 126.184952 253.585614 122.715346 
Q 253.585614 120.08332 255.117346 118.397787 
Q 256.771503 116.564444 259.681225 116.564444 
z
M 259.325339 116.564444 
L 259.325339 116.564444 
z
" style="fill:#0000ff;"/>
   </g>
   <g id="patch_57">
    <path clip-path="url(#pf298252eea)" d="M 265.178947 104.026667 
L 265.178947 105.520495 
L 260.364213 105.520495 
L 260.364213 116.564444 
L 258.400349 116.564444 
L 258.400349 105.520495 
L 253.585614 105.520495 
L 253.585614 104.026667 
L 265.178947 104.026667 
z
" style="fill:#ff0000;"/>
   </g>
   <g id="patch_58">
    <path clip-path="url(#pf298252eea)" d="M 259.564722 28.908844 
Q 261.353203 28.908844 262.657936 32.796125 
Q 264.548695 38.378261 264.971627 52.372473 
L 263.271604 52.372473 
Q 262.959241 44.551264 261.983455 40.974965 
Q 261.007669 37.398666 259.520494 37.398666 
Q 257.759656 37.398666 256.554436 44.846697 
Q 255.349216 52.279179 255.349216 67.0042 
Q 255.349216 79.723384 256.341588 87.715635 
Q 257.336724 95.707885 259.581308 95.707885 
Q 261.300682 95.707885 262.428502 90.1102 
Q 263.556323 84.496966 263.581201 71.948822 
L 259.608951 71.948822 
L 259.608951 63.941022 
L 265.178947 63.941022 
L 265.178947 102.129673 
L 264.073241 102.129673 
L 263.658601 92.940141 
Q 262.787857 98.335687 262.113376 100.434819 
Q 260.980027 104.026667 259.235775 104.026667 
Q 256.982897 104.026667 255.357509 95.816729 
Q 253.585614 85.507659 253.585614 67.53287 
Q 253.585614 49.604729 255.313281 39.015775 
Q 256.955255 28.908844 259.564722 28.908844 
z
M 259.280003 28.8 
L 259.280003 28.8 
z
" style="fill:#ffa600;"/>
   </g>
   <g id="patch_59">
    <path clip-path="url(#pf298252eea)" d="M 271.884733 129.102222 
Q 274.367392 129.102222 275.736841 130.295061 
Q 277.106289 131.485308 277.257184 132.999695 
L 275.53185 132.999695 
Q 275.238601 131.850939 274.361698 131.179318 
Q 273.484796 130.505105 271.901816 130.505105 
Q 269.971492 130.505105 268.784257 131.742027 
Q 267.597022 132.976357 267.597022 135.527995 
Q 267.597022 137.62065 268.667527 138.922401 
Q 269.740878 140.221559 271.867651 140.221559 
Q 273.823599 140.221559 274.84855 138.852387 
Q 275.389496 138.131497 275.657122 136.954216 
L 277.382456 136.954216 
Q 277.151842 138.834235 275.853571 140.107461 
Q 274.296215 141.64 271.65412 141.64 
Q 269.376451 141.64 267.827636 140.382333 
Q 265.789123 138.72273 265.789123 135.253124 
Q 265.789123 132.621098 267.320855 130.935564 
Q 268.975012 129.102222 271.884733 129.102222 
z
M 271.528848 129.102222 
L 271.528848 129.102222 
z
" style="fill:#0000ff;"/>
   </g>
   <g id="patch_60">
    <path clip-path="url(#pf298252eea)" d="M 271.768231 116.582585 
Q 273.556711 116.582585 274.861445 117.230465 
Q 276.752203 118.160821 277.175136 120.49319 
L 275.475112 120.49319 
Q 275.16275 119.189655 274.186964 118.593605 
Q 273.211178 117.997555 271.724003 117.997555 
Q 269.963165 117.997555 268.757945 119.238894 
Q 267.552725 120.477641 267.552725 122.931811 
Q 267.552725 125.051675 268.545096 126.383717 
Q 269.540232 127.715759 271.784817 127.715759 
Q 273.50419 127.715759 274.632011 126.782811 
Q 275.759832 125.847272 275.78471 123.755915 
L 271.812459 123.755915 
L 271.812459 122.421282 
L 277.382456 122.421282 
L 277.382456 128.786057 
L 276.27675 128.786057 
L 275.86211 127.254468 
Q 274.991366 128.153726 274.316885 128.503581 
Q 273.183535 129.102222 271.439283 129.102222 
Q 269.186406 129.102222 267.561018 127.733899 
Q 265.789123 126.015721 265.789123 123.019923 
Q 265.789123 120.031899 267.516789 118.267074 
Q 269.158764 116.582585 271.768231 116.582585 
z
M 271.483512 116.564444 
L 271.483512 116.564444 
z
" style="fill:#ffa600;"/>
   </g>
   <g id="patch_61">
    <path clip-path="url(#pf298252eea)" d="M 277.382456 104.026667 
L 277.382456 105.520495 
L 272.567721 105.520495 
L 272.567721 116.564444 
L 270.603857 116.564444 
L 270.603857 105.520495 
L 265.789123 105.520495 
L 265.789123 104.026667 
L 277.382456 104.026667 
z
" style="fill:#ff0000;"/>
   </g>
   <g id="patch_62">
    <path clip-path="url(#pf298252eea)" d="M 273.570833 73.205199 
L 271.598523 39.975035 
L 269.501706 73.205199 
L 273.570833 73.205199 
z
M 270.678867 28.8 
L 272.668155 28.8 
L 277.382456 104.026667 
L 275.452592 104.026667 
L 274.136776 81.496354 
L 268.998017 81.496354 
L 267.59165 104.026667 
L 265.789123 104.026667 
L 270.678867 28.8 
z
M 271.590034 28.8 
L 271.590034 28.8 
z
" style="fill:#008000;"/>
   </g>
   <g id="patch_63">
    <path clip-path="url(#pf298252eea)" d="M 285.774342 136.503089 
L 283.802032 130.964728 
L 281.705215 136.503089 
L 285.774342 136.503089 
z
M 282.882375 129.102222 
L 284.871663 129.102222 
L 289.585965 141.64 
L 287.656101 141.64 
L 286.340284 137.884948 
L 281.201526 137.884948 
L 279.795159 141.64 
L 277.992632 141.64 
L 282.882375 129.102222 
z
M 283.793543 129.102222 
L 283.793543 129.102222 
z
" style="fill:#008000;"/>
   </g>
   <g id="patch_64">
    <path clip-path="url(#pf298252eea)" d="M 284.088242 116.564444 
Q 286.570901 116.564444 287.940349 117.757284 
Q 289.309798 118.94753 289.460693 120.461917 
L 287.735359 120.461917 
Q 287.442109 119.313161 286.565207 118.641541 
Q 285.688304 117.967327 284.105325 117.967327 
Q 282.175001 117.967327 280.987766 119.20425 
Q 279.800531 120.438579 279.800531 122.990218 
Q 279.800531 125.082873 280.871035 126.384623 
Q 281.944387 127.683781 284.07116 127.683781 
Q 286.027108 127.683781 287.052059 126.314609 
Q 287.593005 125.593719 287.860631 124.416438 
L 289.585965 124.416438 
Q 289.355351 126.296457 288.05708 127.569683 
Q 286.499724 129.102222 283.857628 129.102222 
Q 281.57996 129.102222 280.031145 127.844555 
Q 277.992632 126.184952 277.992632 122.715346 
Q 277.992632 120.08332 279.524364 118.397787 
Q 281.178521 116.564444 284.088242 116.564444 
z
M 283.732357 116.564444 
L 283.732357 116.564444 
z
" style="fill:#0000ff;"/>
   </g>
   <g id="patch_65">
    <path clip-path="url(#pf298252eea)" d="M 289.585965 104.026667 
L 289.585965 105.520495 
L 284.77123 105.520495 
L 284.77123 116.564444 
L 282.807366 116.564444 
L 282.807366 105.520495 
L 277.992632 105.520495 
L 277.992632 104.026667 
L 289.585965 104.026667 
z
" style="fill:#ff0000;"/>
   </g>
   <g id="patch_66">
    <path clip-path="url(#pf298252eea)" d="M 283.97174 28.908844 
Q 285.76022 28.908844 287.064954 32.796125 
Q 288.955712 38.378261 289.378645 52.372473 
L 287.678621 52.372473 
Q 287.366259 44.551264 286.390473 40.974965 
Q 285.414687 37.398666 283.927512 37.398666 
Q 282.166674 37.398666 280.961454 44.846697 
Q 279.756234 52.279179 279.756234 67.0042 
Q 279.756234 79.723384 280.748605 87.715635 
Q 281.743741 95.707885 283.988325 95.707885 
Q 285.707699 95.707885 286.83552 90.1102 
Q 287.963341 84.496966 287.988219 71.948822 
L 284.015968 71.948822 
L 284.015968 63.941022 
L 289.585965 63.941022 
L 289.585965 102.129673 
L 288.480258 102.129673 
L 288.065618 92.940141 
Q 287.194874 98.335687 286.520393 100.434819 
Q 285.387044 104.026667 283.642792 104.026667 
Q 281.389915 104.026667 279.764526 95.816729 
Q 277.992632 85.507659 277.992632 67.53287 
Q 277.992632 49.604729 279.720298 39.015775 
Q 281.362272 28.908844 283.97174 28.908844 
z
M 283.68702 28.8 
L 283.68702 28.8 
z
" style="fill:#ffa600;"/>
   </g>
   <g id="patch_67">
    <path clip-path="url(#pf298252eea)" d="M 297.977851 136.503089 
L 296.005541 130.964728 
L 293.908724 136.503089 
L 297.977851 136.503089 
z
M 295.085884 129.102222 
L 297.075172 129.102222 
L 301.789474 141.64 
L 299.85961 141.64 
L 298.543793 137.884948 
L 293.405035 137.884948 
L 291.998667 141.64 
L 290.19614 141.64 
L 295.085884 129.102222 
z
M 295.997052 129.102222 
L 295.997052 129.102222 
z
" style="fill:#008000;"/>
   </g>
   <g id="patch_68">
    <path clip-path="url(#pf298252eea)" d="M 296.291751 116.564444 
Q 298.77441 116.564444 300.143858 117.757284 
Q 301.513306 118.94753 301.664202 120.461917 
L 299.938868 120.461917 
Q 299.645618 119.313161 298.768716 118.641541 
Q 297.891813 117.967327 296.308834 117.967327 
Q 294.378509 117.967327 293.191275 119.20425 
Q 292.00404 120.438579 292.00404 122.990218 
Q 292.00404 125.082873 293.074544 126.384623 
Q 294.147895 127.683781 296.274669 127.683781 
Q 298.230616 127.683781 299.255567 126.314609 
Q 299.796514 125.593719 300.06414 124.416438 
L 301.789474 124.416438 
Q 301.55886 126.296457 300.260589 127.569683 
Q 298.703233 129.102222 296.061137 129.102222 
Q 293.783468 129.102222 292.234654 127.844555 
Q 290.19614 126.184952 290.19614 122.715346 
Q 290.19614 120.08332 291.727873 118.397787 
Q 293.382029 116.564444 296.291751 116.564444 
z
M 295.935865 116.564444 
L 295.935865 116.564444 
z
" style="fill:#0000ff;"/>
   </g>
   <g id="patch_69">
    <path clip-path="url(#pf298252eea)" d="M 301.789474 104.026667 
L 301.789474 105.520495 
L 296.974739 105.520495 
L 296.974739 116.564444 
L 295.010875 116.564444 
L 295.010875 105.520495 
L 290.19614 105.520495 
L 290.19614 104.026667 
L 301.789474 104.026667 
z
" style="fill:#ff0000;"/>
   </g>
   <g id="patch_70">
    <path clip-path="url(#pf298252eea)" d="M 296.175249 28.908844 
Q 297.963729 28.908844 299.268463 32.796125 
Q 301.159221 38.378261 301.582154 52.372473 
L 299.88213 52.372473 
Q 299.569768 44.551264 298.593982 40.974965 
Q 297.618196 37.398666 296.13102 37.398666 
Q 294.370183 37.398666 293.164962 44.846697 
Q 291.959742 52.279179 291.959742 67.0042 
Q 291.959742 79.723384 292.952114 87.715635 
Q 293.94725 95.707885 296.191834 95.707885 
Q 297.911208 95.707885 299.039029 90.1102 
Q 300.166849 84.496966 300.191728 71.948822 
L 296.219477 71.948822 
L 296.219477 63.941022 
L 301.789474 63.941022 
L 301.789474 102.129673 
L 300.683767 102.129673 
L 300.269127 92.940141 
Q 299.398383 98.335687 298.723902 100.434819 
Q 297.590553 104.026667 295.846301 104.026667 
Q 293.593424 104.026667 291.968035 95.816729 
Q 290.19614 85.507659 290.19614 67.53287 
Q 290.19614 49.604729 291.923807 39.015775 
Q 293.565781 28.908844 296.175249 28.908844 
z
M 295.890529 28.8 
L 295.890529 28.8 
z
" style="fill:#ffa600;"/>
   </g>
   <g id="patch_71">
    <path clip-path="url(#pf298252eea)" d="M 310.181359 136.503089 
L 308.209049 130.964728 
L 306.112232 136.503089 
L 310.181359 136.503089 
z
M 307.289393 129.102222 
L 309.278681 129.102222 
L 313.992982 141.64 
L 312.063118 141.64 
L 310.747302 137.884948 
L 305.608543 137.884948 
L 304.202176 141.64 
L 302.399649 141.64 
L 307.289393 129.102222 
z
M 308.20056 129.102222 
L 308.20056 129.102222 
z
" style="fill:#008000;"/>
   </g>
   <g id="patch_72">
    <path clip-path="url(#pf298252eea)" d="M 308.49526 116.564444 
Q 310.977919 116.564444 312.347367 117.757284 
Q 313.716815 118.94753 313.867711 120.461917 
L 312.142377 120.461917 
Q 311.849127 119.313161 310.972224 118.641541 
Q 310.095322 117.967327 308.512342 117.967327 
Q 306.582018 117.967327 305.394783 119.20425 
Q 304.207549 120.438579 304.207549 122.990218 
Q 304.207549 125.082873 305.278053 126.384623 
Q 306.351404 127.683781 308.478177 127.683781 
Q 310.434125 127.683781 311.459076 126.314609 
Q 312.000022 125.593719 312.267648 124.416438 
L 313.992982 124.416438 
Q 313.762369 126.296457 312.464097 127.569683 
Q 310.906741 129.102222 308.264646 129.102222 
Q 305.986977 129.102222 304.438163 127.844555 
Q 302.399649 126.184952 302.399649 122.715346 
Q 302.399649 120.08332 303.931381 118.397787 
Q 305.585538 116.564444 308.49526 116.564444 
z
M 308.139374 116.564444 
L 308.139374 116.564444 
z
" style="fill:#0000ff;"/>
   </g>
   <g id="patch_73">
    <path clip-path="url(#pf298252eea)" d="M 313.992982 104.026667 
L 313.992982 105.520495 
L 309.178248 105.520495 
L 309.178248 116.564444 
L 307.214384 116.564444 
L 307.214384 105.520495 
L 302.399649 105.520495 
L 302.399649 104.026667 
L 313.992982 104.026667 
z
" style="fill:#ff0000;"/>
   </g>
   <g id="patch_74">
    <path clip-path="url(#pf298252eea)" d="M 308.378757 28.908844 
Q 310.167238 28.908844 311.471971 32.796125 
Q 313.36273 38.378261 313.785662 52.372473 
L 312.085639 52.372473 
Q 311.773277 44.551264 310.79749 40.974965 
Q 309.821704 37.398666 308.334529 37.398666 
Q 306.573691 37.398666 305.368471 44.846697 
Q 304.163251 52.279179 304.163251 67.0042 
Q 304.163251 79.723384 305.155623 87.715635 
Q 306.150759 95.707885 308.395343 95.707885 
Q 310.114717 95.707885 311.242537 90.1102 
Q 312.370358 84.496966 312.395236 71.948822 
L 308.422986 71.948822 
L 308.422986 63.941022 
L 313.992982 63.941022 
L 313.992982 102.129673 
L 312.887276 102.129673 
L 312.472636 92.940141 
Q 311.601892 98.335687 310.927411 100.434819 
Q 309.794062 104.026667 308.04981 104.026667 
Q 305.796933 104.026667 304.171544 95.816729 
Q 302.399649 85.507659 302.399649 67.53287 
Q 302.399649 49.604729 304.127316 39.015775 
Q 305.76929 28.908844 308.378757 28.908844 
z
M 308.094038 28.8 
L 308.094038 28.8 
z
" style="fill:#ffa600;"/>
   </g>
   <g id="patch_75">
    <path clip-path="url(#pf298252eea)" d="M 322.384868 136.503089 
L 320.412558 130.964728 
L 318.315741 136.503089 
L 322.384868 136.503089 
z
M 319.492902 129.102222 
L 321.48219 129.102222 
L 326.196491 141.64 
L 324.266627 141.64 
L 322.950811 137.884948 
L 317.812052 137.884948 
L 316.405685 141.64 
L 314.603158 141.64 
L 319.492902 129.102222 
z
M 320.404069 129.102222 
L 320.404069 129.102222 
z
" style="fill:#008000;"/>
   </g>
   <g id="patch_76">
    <path clip-path="url(#pf298252eea)" d="M 320.698769 116.564444 
Q 323.181427 116.564444 324.550876 117.757284 
Q 325.920324 118.94753 326.071219 120.461917 
L 324.345885 120.461917 
Q 324.052636 119.313161 323.175733 118.641541 
Q 322.298831 117.967327 320.715851 117.967327 
Q 318.785527 117.967327 317.598292 119.20425 
Q 316.411057 120.438579 316.411057 122.990218 
Q 316.411057 125.082873 317.481562 126.384623 
Q 318.554913 127.683781 320.681686 127.683781 
Q 322.637634 127.683781 323.662585 126.314609 
Q 324.203531 125.593719 324.471157 124.416438 
L 326.196491 124.416438 
Q 325.965877 126.296457 324.667606 127.569683 
Q 323.11025 129.102222 320.468155 129.102222 
Q 318.190486 129.102222 316.641671 127.844555 
Q 314.603158 126.184952 314.603158 122.715346 
Q 314.603158 120.08332 316.13489 118.397787 
Q 317.789047 116.564444 320.698769 116.564444 
z
M 320.342883 116.564444 
L 320.342883 116.564444 
z
" style="fill:#0000ff;"/>
   </g>
   <g id="patch_77">
    <path clip-path="url(#pf298252eea)" d="M 326.196491 104.026667 
L 326.196491 105.520495 
L 321.381757 105.520495 
L 321.381757 116.564444 
L 319.417893 116.564444 
L 319.417893 105.520495 
L 314.603158 105.520495 
L 314.603158 104.026667 
L 326.196491 104.026667 
z
" style="fill:#ff0000;"/>
   </g>
   <g id="patch_78">
    <path clip-path="url(#pf298252eea)" d="M 320.582266 28.908844 
Q 322.370747 28.908844 323.67548 32.796125 
Q 325.566238 38.378261 325.989171 52.372473 
L 324.289147 52.372473 
Q 323.976785 44.551264 323.000999 40.974965 
Q 322.025213 37.398666 320.538038 37.398666 
Q 318.7772 37.398666 317.57198 44.846697 
Q 316.36676 52.279179 316.36676 67.0042 
Q 316.36676 79.723384 317.359132 87.715635 
Q 318.354267 95.707885 320.598852 95.707885 
Q 322.318225 95.707885 323.446046 90.1102 
Q 324.573867 84.496966 324.598745 71.948822 
L 320.626494 71.948822 
L 320.626494 63.941022 
L 326.196491 63.941022 
L 326.196491 102.129673 
L 325.090785 102.129673 
L 324.676145 92.940141 
Q 323.805401 98.335687 323.13092 100.434819 
Q 321.997571 104.026667 320.253318 104.026667 
Q 318.000441 104.026667 316.375053 95.816729 
Q 314.603158 85.507659 314.603158 67.53287 
Q 314.603158 49.604729 316.330824 39.015775 
Q 317.972799 28.908844 320.582266 28.908844 
z
M 320.297547 28.8 
L 320.297547 28.8 
z
" style="fill:#ffa600;"/>
   </g>
   <g id="patch_79">
    <path clip-path="url(#pf298252eea)" d="M 332.902277 129.102222 
Q 335.384936 129.102222 336.754384 130.295061 
Q 338.123833 131.485308 338.274728 132.999695 
L 336.549394 132.999695 
Q 336.256144 131.850939 335.379242 131.179318 
Q 334.50234 130.505105 332.91936 130.505105 
Q 330.989036 130.505105 329.801801 131.742027 
Q 328.614566 132.976357 328.614566 135.527995 
Q 328.614566 137.62065 329.68507 138.922401 
Q 330.758422 140.221559 332.885195 140.221559 
Q 334.841143 140.221559 335.866094 138.852387 
Q 336.40704 138.131497 336.674666 136.954216 
L 338.4 136.954216 
Q 338.169386 138.834235 336.871115 140.107461 
Q 335.313759 141.64 332.671663 141.64 
Q 330.393995 141.64 328.84518 140.382333 
Q 326.806667 138.72273 326.806667 135.253124 
Q 326.806667 132.621098 328.338399 130.935564 
Q 329.992556 129.102222 332.902277 129.102222 
z
M 332.546392 129.102222 
L 332.546392 129.102222 
z
" style="fill:#0000ff;"/>
   </g>
   <g id="patch_80">
    <path clip-path="url(#pf298252eea)" d="M 332.785775 116.582585 
Q 334.574255 116.582585 335.878989 117.230465 
Q 337.769747 118.160821 338.19268 120.49319 
L 336.492656 120.49319 
Q 336.180294 119.189655 335.204508 118.593605 
Q 334.228722 117.997555 332.741547 117.997555 
Q 330.980709 117.997555 329.775489 119.238894 
Q 328.570269 120.477641 328.570269 122.931811 
Q 328.570269 125.051675 329.56264 126.383717 
Q 330.557776 127.715759 332.802361 127.715759 
Q 334.521734 127.715759 335.649555 126.782811 
Q 336.777376 125.847272 336.802254 123.755915 
L 332.830003 123.755915 
L 332.830003 122.421282 
L 338.4 122.421282 
L 338.4 128.786057 
L 337.294293 128.786057 
L 336.879653 127.254468 
Q 336.00891 128.153726 335.334429 128.503581 
Q 334.201079 129.102222 332.456827 129.102222 
Q 330.20395 129.102222 328.578561 127.733899 
Q 326.806667 126.015721 326.806667 123.019923 
Q 326.806667 120.031899 328.534333 118.267074 
Q 330.176307 116.582585 332.785775 116.582585 
z
M 332.501055 116.564444 
L 332.501055 116.564444 
z
" style="fill:#ffa600;"/>
   </g>
   <g id="patch_81">
    <path clip-path="url(#pf298252eea)" d="M 338.4 104.026667 
L 338.4 105.520495 
L 333.585265 105.520495 
L 333.585265 116.564444 
L 331.621401 116.564444 
L 331.621401 105.520495 
L 326.806667 105.520495 
L 326.806667 104.026667 
L 338.4 104.026667 
z
" style="fill:#ff0000;"/>
   </g>
   <g id="patch_82">
    <path clip-path="url(#pf298252eea)" d="M 334.588377 73.205199 
L 332.616067 39.975035 
L 330.51925 73.205199 
L 334.588377 73.205199 
z
M 331.69641 28.8 
L 333.685698 28.8 
L 338.4 104.026667 
L 336.470136 104.026667 
L 335.154319 81.496354 
L 330.015561 81.496354 
L 328.609194 104.026667 
L 326.806667 104.026667 
L 331.69641 28.8 
z
M 332.607578 28.8 
L 332.607578 28.8 
z
" style="fill:#008000;"/>
   </g>
   <g id="matplotlib.axis_1">
    <g id="xtick_1">
     <g id="line2d_2">
      <path clip-path="url(#pf298252eea)" d="M 100.736667 141.64 
L 100.736667 28.8 
" style="fill:none;stroke:#cccccc;stroke-linecap:round;stroke-width:0.8;"/>
     </g>
     <g id="text_1">
      <!-- 0 -->
      <g style="fill:#262626;" transform="translate(95.175729 162.986875)scale(0.2 -0.2)">
       <defs>
        <path d="M 1731 4475 
Q 2600 4475 2988 3759 
Q 3288 3206 3288 2244 
Q 3288 1331 3016 734 
Q 2622 -122 1728 -122 
Q 922 -122 528 578 
Q 200 1163 200 2147 
Q 200 2909 397 3456 
Q 766 4475 1731 4475 
z
M 1725 391 
Q 2163 391 2422 778 
Q 2681 1166 2681 2222 
Q 2681 2984 2493 3476 
Q 2306 3969 1766 3969 
Q 1269 3969 1039 3501 
Q 809 3034 809 2125 
Q 809 1441 956 1025 
Q 1181 391 1725 391 
z
" id="Helvetica-30" transform="scale(0.015625)"/>
       </defs>
       <use xlink:href="#Helvetica-30"/>
      </g>
     </g>
    </g>
    <g id="xtick_2">
     <g id="line2d_3">
      <path clip-path="url(#pf298252eea)" d="M 222.771754 141.64 
L 222.771754 28.8 
" style="fill:none;stroke:#cccccc;stroke-linecap:round;stroke-width:0.8;"/>
     </g>
     <g id="text_2">
      <!-- 10 -->
      <g style="fill:#262626;" transform="translate(211.649879 162.986875)scale(0.2 -0.2)">
       <defs>
        <path d="M 613 3169 
L 613 3600 
Q 1222 3659 1462 3798 
Q 1703 3938 1822 4456 
L 2266 4456 
L 2266 0 
L 1666 0 
L 1666 3169 
L 613 3169 
z
" id="Helvetica-31" transform="scale(0.015625)"/>
       </defs>
       <use xlink:href="#Helvetica-31"/>
       <use x="55.615234" xlink:href="#Helvetica-30"/>
      </g>
     </g>
    </g>
    <g id="text_3">
     <!-- Position -->
     <g style="fill:#262626;" transform="translate(172.20125 189.089219)scale(0.25 -0.25)">
      <defs>
       <path d="M 547 4591 
L 2613 4591 
Q 3225 4591 3600 4245 
Q 3975 3900 3975 3275 
Q 3975 2738 3640 2339 
Q 3306 1941 2613 1941 
L 1169 1941 
L 1169 0 
L 547 0 
L 547 4591 
z
M 3347 3272 
Q 3347 3778 2972 3959 
Q 2766 4056 2406 4056 
L 1169 4056 
L 1169 2466 
L 2406 2466 
Q 2825 2466 3086 2644 
Q 3347 2822 3347 3272 
z
" id="Helvetica-50" transform="scale(0.015625)"/>
       <path d="M 1741 363 
Q 2300 363 2508 786 
Q 2716 1209 2716 1728 
Q 2716 2197 2566 2491 
Q 2328 2953 1747 2953 
Q 1231 2953 997 2559 
Q 763 2166 763 1609 
Q 763 1075 997 719 
Q 1231 363 1741 363 
z
M 1763 3444 
Q 2409 3444 2856 3012 
Q 3303 2581 3303 1744 
Q 3303 934 2909 406 
Q 2516 -122 1688 -122 
Q 997 -122 590 345 
Q 184 813 184 1600 
Q 184 2444 612 2944 
Q 1041 3444 1763 3444 
z
M 1744 3428 
L 1744 3428 
z
" id="Helvetica-6f" transform="scale(0.015625)"/>
       <path d="M 747 1050 
Q 772 769 888 619 
Q 1100 347 1625 347 
Q 1938 347 2175 483 
Q 2413 619 2413 903 
Q 2413 1119 2222 1231 
Q 2100 1300 1741 1391 
L 1294 1503 
Q 866 1609 663 1741 
Q 300 1969 300 2372 
Q 300 2847 642 3140 
Q 984 3434 1563 3434 
Q 2319 3434 2653 2991 
Q 2863 2709 2856 2384 
L 2325 2384 
Q 2309 2575 2191 2731 
Q 1997 2953 1519 2953 
Q 1200 2953 1036 2831 
Q 872 2709 872 2509 
Q 872 2291 1088 2159 
Q 1213 2081 1456 2022 
L 1828 1931 
Q 2434 1784 2641 1647 
Q 2969 1431 2969 969 
Q 2969 522 2630 197 
Q 2291 -128 1597 -128 
Q 850 -128 539 211 
Q 228 550 206 1050 
L 747 1050 
z
M 1578 3428 
L 1578 3428 
z
" id="Helvetica-73" transform="scale(0.015625)"/>
       <path d="M 413 3331 
L 984 3331 
L 984 0 
L 413 0 
L 413 3331 
z
M 413 4591 
L 984 4591 
L 984 3953 
L 413 3953 
L 413 4591 
z
" id="Helvetica-69" transform="scale(0.015625)"/>
       <path d="M 525 4281 
L 1094 4281 
L 1094 3347 
L 1628 3347 
L 1628 2888 
L 1094 2888 
L 1094 703 
Q 1094 528 1213 469 
Q 1278 434 1431 434 
Q 1472 434 1519 436 
Q 1566 438 1628 444 
L 1628 0 
Q 1531 -28 1426 -40 
Q 1322 -53 1200 -53 
Q 806 -53 665 148 
Q 525 350 525 672 
L 525 2888 
L 72 2888 
L 72 3347 
L 525 3347 
L 525 4281 
z
" id="Helvetica-74" transform="scale(0.015625)"/>
       <path d="M 413 3347 
L 947 3347 
L 947 2872 
Q 1184 3166 1450 3294 
Q 1716 3422 2041 3422 
Q 2753 3422 3003 2925 
Q 3141 2653 3141 2147 
L 3141 0 
L 2569 0 
L 2569 2109 
Q 2569 2416 2478 2603 
Q 2328 2916 1934 2916 
Q 1734 2916 1606 2875 
Q 1375 2806 1200 2600 
Q 1059 2434 1017 2257 
Q 975 2081 975 1753 
L 975 0 
L 413 0 
L 413 3347 
z
M 1734 3428 
L 1734 3428 
z
" id="Helvetica-6e" transform="scale(0.015625)"/>
      </defs>
      <use xlink:href="#Helvetica-50"/>
      <use x="66.699219" xlink:href="#Helvetica-6f"/>
      <use x="122.314453" xlink:href="#Helvetica-73"/>
      <use x="172.314453" xlink:href="#Helvetica-69"/>
      <use x="194.53125" xlink:href="#Helvetica-74"/>
      <use x="222.314453" xlink:href="#Helvetica-69"/>
      <use x="244.53125" xlink:href="#Helvetica-6f"/>
      <use x="300.146484" xlink:href="#Helvetica-6e"/>
     </g>
    </g>
   </g>
   <g id="matplotlib.axis_2">
    <g id="ytick_1">
     <g id="line2d_4">
      <path clip-path="url(#pf298252eea)" d="M 94.94 141.64 
L 338.4 141.64 
" style="fill:none;stroke:#cccccc;stroke-linecap:round;stroke-width:0.8;"/>
     </g>
     <g id="text_4">
      <!-- 0 -->
      <g style="fill:#262626;" transform="translate(76.818125 148.813438)scale(0.2 -0.2)">
       <use xlink:href="#Helvetica-30"/>
      </g>
     </g>
    </g>
    <g id="ytick_2">
     <g id="line2d_5">
      <path clip-path="url(#pf298252eea)" d="M 94.94 113.43 
L 338.4 113.43 
" style="fill:none;stroke:#cccccc;stroke-linecap:round;stroke-width:0.8;"/>
     </g>
     <g id="text_5">
      <!-- 0.25 -->
      <g style="fill:#262626;" transform="translate(49.018125 120.603437)scale(0.2 -0.2)">
       <defs>
        <path d="M 547 681 
L 1200 681 
L 1200 0 
L 547 0 
L 547 681 
z
" id="Helvetica-2e" transform="scale(0.015625)"/>
        <path d="M 200 0 
Q 231 578 439 1006 
Q 647 1434 1250 1784 
L 1850 2131 
Q 2253 2366 2416 2531 
Q 2672 2791 2672 3125 
Q 2672 3516 2437 3745 
Q 2203 3975 1813 3975 
Q 1234 3975 1013 3538 
Q 894 3303 881 2888 
L 309 2888 
Q 319 3472 525 3841 
Q 891 4491 1816 4491 
Q 2584 4491 2939 4075 
Q 3294 3659 3294 3150 
Q 3294 2613 2916 2231 
Q 2697 2009 2131 1694 
L 1703 1456 
Q 1397 1288 1222 1134 
Q 909 863 828 531 
L 3272 531 
L 3272 0 
L 200 0 
z
" id="Helvetica-32" transform="scale(0.015625)"/>
        <path d="M 791 1141 
Q 847 659 1238 475 
Q 1438 381 1700 381 
Q 2200 381 2440 700 
Q 2681 1019 2681 1406 
Q 2681 1875 2395 2131 
Q 2109 2388 1709 2388 
Q 1419 2388 1211 2275 
Q 1003 2163 856 1963 
L 369 1991 
L 709 4400 
L 3034 4400 
L 3034 3856 
L 1131 3856 
L 941 2613 
Q 1097 2731 1238 2791 
Q 1488 2894 1816 2894 
Q 2431 2894 2859 2497 
Q 3288 2100 3288 1491 
Q 3288 856 2895 371 
Q 2503 -113 1644 -113 
Q 1097 -113 676 195 
Q 256 503 206 1141 
L 791 1141 
z
" id="Helvetica-35" transform="scale(0.015625)"/>
       </defs>
       <use xlink:href="#Helvetica-30"/>
       <use x="55.615234" xlink:href="#Helvetica-2e"/>
       <use x="83.398438" xlink:href="#Helvetica-32"/>
       <use x="139.013672" xlink:href="#Helvetica-35"/>
      </g>
     </g>
    </g>
    <g id="ytick_3">
     <g id="line2d_6">
      <path clip-path="url(#pf298252eea)" d="M 94.94 85.22 
L 338.4 85.22 
" style="fill:none;stroke:#cccccc;stroke-linecap:round;stroke-width:0.8;"/>
     </g>
     <g id="text_6">
      <!-- 0.50 -->
      <g style="fill:#262626;" transform="translate(49.018125 92.393438)scale(0.2 -0.2)">
       <use xlink:href="#Helvetica-30"/>
       <use x="55.615234" xlink:href="#Helvetica-2e"/>
       <use x="83.398438" xlink:href="#Helvetica-35"/>
       <use x="139.013672" xlink:href="#Helvetica-30"/>
      </g>
     </g>
    </g>
    <g id="ytick_4">
     <g id="line2d_7">
      <path clip-path="url(#pf298252eea)" d="M 94.94 57.01 
L 338.4 57.01 
" style="fill:none;stroke:#cccccc;stroke-linecap:round;stroke-width:0.8;"/>
     </g>
     <g id="text_7">
      <!-- 0.75 -->
      <g style="fill:#262626;" transform="translate(49.018125 64.183437)scale(0.2 -0.2)">
       <defs>
        <path d="M 3347 4400 
L 3347 3909 
Q 3131 3700 2773 3181 
Q 2416 2663 2141 2063 
Q 1869 1478 1728 997 
Q 1638 688 1494 0 
L 872 0 
Q 1084 1281 1809 2550 
Q 2238 3294 2709 3834 
L 234 3834 
L 234 4400 
L 3347 4400 
z
" id="Helvetica-37" transform="scale(0.015625)"/>
       </defs>
       <use xlink:href="#Helvetica-30"/>
       <use x="55.615234" xlink:href="#Helvetica-2e"/>
       <use x="83.398438" xlink:href="#Helvetica-37"/>
       <use x="139.013672" xlink:href="#Helvetica-35"/>
      </g>
     </g>
    </g>
    <g id="ytick_5">
     <g id="line2d_8">
      <path clip-path="url(#pf298252eea)" d="M 94.94 28.8 
L 338.4 28.8 
" style="fill:none;stroke:#cccccc;stroke-linecap:round;stroke-width:0.8;"/>
     </g>
     <g id="text_8">
      <!-- 1.0 -->
      <g style="fill:#262626;" transform="translate(60.14 35.973437)scale(0.2 -0.2)">
       <use xlink:href="#Helvetica-31"/>
       <use x="55.615234" xlink:href="#Helvetica-2e"/>
       <use x="83.398438" xlink:href="#Helvetica-30"/>
      </g>
     </g>
    </g>
    <g id="text_9">
     <!-- Probability -->
     <g style="fill:#262626;" transform="translate(39.65875 143.579375)rotate(-90)scale(0.25 -0.25)">
      <defs>
       <path d="M 428 3347 
L 963 3347 
L 963 2769 
Q 1028 2938 1284 3180 
Q 1541 3422 1875 3422 
Q 1891 3422 1928 3419 
Q 1966 3416 2056 3406 
L 2056 2813 
Q 2006 2822 1964 2825 
Q 1922 2828 1872 2828 
Q 1447 2828 1219 2554 
Q 991 2281 991 1925 
L 991 0 
L 428 0 
L 428 3347 
z
" id="Helvetica-72" transform="scale(0.015625)"/>
       <path d="M 369 4606 
L 916 4606 
L 916 2941 
Q 1100 3181 1356 3307 
Q 1613 3434 1913 3434 
Q 2538 3434 2927 3004 
Q 3316 2575 3316 1738 
Q 3316 944 2931 419 
Q 2547 -106 1866 -106 
Q 1484 -106 1222 78 
Q 1066 188 888 428 
L 888 0 
L 369 0 
L 369 4606 
z
M 1831 391 
Q 2288 391 2514 753 
Q 2741 1116 2741 1709 
Q 2741 2238 2514 2584 
Q 2288 2931 1847 2931 
Q 1463 2931 1173 2647 
Q 884 2363 884 1709 
Q 884 1238 1003 944 
Q 1225 391 1831 391 
z
" id="Helvetica-62" transform="scale(0.015625)"/>
       <path d="M 844 891 
Q 844 647 1022 506 
Q 1200 366 1444 366 
Q 1741 366 2019 503 
Q 2488 731 2488 1250 
L 2488 1703 
Q 2384 1638 2221 1594 
Q 2059 1550 1903 1531 
L 1563 1488 
Q 1256 1447 1103 1359 
Q 844 1213 844 891 
z
M 2206 2028 
Q 2400 2053 2466 2191 
Q 2503 2266 2503 2406 
Q 2503 2694 2298 2823 
Q 2094 2953 1713 2953 
Q 1272 2953 1088 2716 
Q 984 2584 953 2325 
L 428 2325 
Q 444 2944 830 3186 
Q 1216 3428 1725 3428 
Q 2316 3428 2684 3203 
Q 3050 2978 3050 2503 
L 3050 575 
Q 3050 488 3086 434 
Q 3122 381 3238 381 
Q 3275 381 3322 386 
Q 3369 391 3422 400 
L 3422 -16 
Q 3291 -53 3222 -62 
Q 3153 -72 3034 -72 
Q 2744 -72 2613 134 
Q 2544 244 2516 444 
Q 2344 219 2022 53 
Q 1700 -113 1313 -113 
Q 847 -113 551 170 
Q 256 453 256 878 
Q 256 1344 547 1600 
Q 838 1856 1309 1916 
L 2206 2028 
z
M 1741 3428 
L 1741 3428 
z
" id="Helvetica-61" transform="scale(0.015625)"/>
       <path d="M 428 4591 
L 991 4591 
L 991 0 
L 428 0 
L 428 4591 
z
" id="Helvetica-6c" transform="scale(0.015625)"/>
       <path d="M 2503 3347 
L 3125 3347 
Q 3006 3025 2597 1878 
Q 2291 1016 2084 472 
Q 1597 -809 1397 -1090 
Q 1197 -1372 709 -1372 
Q 591 -1372 527 -1362 
Q 463 -1353 369 -1328 
L 369 -816 
Q 516 -856 581 -865 
Q 647 -875 697 -875 
Q 853 -875 926 -823 
Q 1000 -772 1050 -697 
Q 1066 -672 1162 -440 
Q 1259 -209 1303 -97 
L 66 3347 
L 703 3347 
L 1600 622 
L 2503 3347 
z
M 1597 3428 
L 1597 3428 
z
" id="Helvetica-79" transform="scale(0.015625)"/>
      </defs>
      <use xlink:href="#Helvetica-50"/>
      <use x="66.699219" xlink:href="#Helvetica-72"/>
      <use x="100" xlink:href="#Helvetica-6f"/>
      <use x="155.615234" xlink:href="#Helvetica-62"/>
      <use x="211.230469" xlink:href="#Helvetica-61"/>
      <use x="266.845703" xlink:href="#Helvetica-62"/>
      <use x="322.460938" xlink:href="#Helvetica-69"/>
      <use x="344.677734" xlink:href="#Helvetica-6c"/>
      <use x="366.894531" xlink:href="#Helvetica-69"/>
      <use x="389.111328" xlink:href="#Helvetica-74"/>
      <use x="416.894531" xlink:href="#Helvetica-79"/>
     </g>
    </g>
   </g>
   <g id="patch_83">
    <path d="M 94.94 141.64 
L 94.94 28.8 
" style="fill:none;stroke:#000000;stroke-linecap:square;stroke-linejoin:miter;"/>
   </g>
  </g>
 </g>
 <defs>
  <clipPath id="pf298252eea">
   <rect height="112.84" width="243.46" x="94.94" y="28.8"/>
  </clipPath>
 </defs>
</svg>
