<?xml version="1.0" encoding="utf-8" standalone="no"?>
<!DOCTYPE svg PUBLIC "-//W3C//DTD SVG 1.1//EN"
  "http://www.w3.org/Graphics/SVG/1.1/DTD/svg11.dtd">
<svg height="288pt" version="1.1" viewBox="0 0 432 288" width="432pt" xmlns="http://www.w3.org/2000/svg" xmlns:xlink="http://www.w3.org/1999/xlink">
 <metadata>
  <rdf:RDF xmlns:cc="http://creativecommons.org/ns#" xmlns:dc="http://purl.org/dc/elements/1.1/" xmlns:rdf="http://www.w3.org/1999/02/22-rdf-syntax-ns#">
   <cc:Work>
    <dc:type rdf:resource="http://purl.org/dc/dcmitype/StillImage"/>
    <dc:date>2022-12-18T11:31:32.888054</dc:date>
    <dc:format>image/svg+xml</dc:format>
    <dc:creator>
     <cc:Agent>
      <dc:title>Matplotlib v3.4.2, https://matplotlib.org/</dc:title>
     </cc:Agent>
    </dc:creator>
   </cc:Work>
  </rdf:RDF>
 </metadata>
 <defs>
  <style type="text/css">*{stroke-linecap:butt;stroke-linejoin:round;}</style>
 </defs>
 <g id="figure_1">
  <g id="patch_1">
   <path d="M 0 288 
L 432 288 
L 432 0 
L 0 0 
z
" style="fill:#ffffff;"/>
  </g>
  <g id="axes_1">
   <g id="patch_2">
    <path d="M 85.39 211.94 
L 410.4 211.94 
L 410.4 21.6 
L 85.39 21.6 
z
" style="fill:#ffffff;"/>
   </g>
   <g id="matplotlib.axis_1">
    <g id="xtick_1">
     <g id="line2d_1">
      <path clip-path="url(#p973364260c)" d="M 100.163182 211.94 
L 100.163182 21.6 
" style="fill:none;stroke:#cccccc;stroke-linecap:round;stroke-width:0.8;"/>
     </g>
     <g id="text_1">
      <!-- 0 -->
      <g style="fill:#262626;" transform="translate(94.602244 239.786875)scale(0.2 -0.2)">
       <defs>
        <path d="M 1731 4475 
Q 2600 4475 2988 3759 
Q 3288 3206 3288 2244 
Q 3288 1331 3016 734 
Q 2622 -122 1728 -122 
Q 922 -122 528 578 
Q 200 1163 200 2147 
Q 200 2909 397 3456 
Q 766 4475 1731 4475 
z
M 1725 391 
Q 2163 391 2422 778 
Q 2681 1166 2681 2222 
Q 2681 2984 2493 3476 
Q 2306 3969 1766 3969 
Q 1269 3969 1039 3501 
Q 809 3034 809 2125 
Q 809 1441 956 1025 
Q 1181 391 1725 391 
z
" id="Helvetica-30" transform="scale(0.015625)"/>
       </defs>
       <use xlink:href="#Helvetica-30"/>
      </g>
     </g>
    </g>
    <g id="xtick_2">
     <g id="line2d_2">
      <path clip-path="url(#p973364260c)" d="M 151.105188 211.94 
L 151.105188 21.6 
" style="fill:none;stroke:#cccccc;stroke-linecap:round;stroke-width:0.8;"/>
     </g>
     <g id="text_2">
      <!-- 10 -->
      <g style="fill:#262626;" transform="translate(139.983313 239.786875)scale(0.2 -0.2)">
       <defs>
        <path d="M 613 3169 
L 613 3600 
Q 1222 3659 1462 3798 
Q 1703 3938 1822 4456 
L 2266 4456 
L 2266 0 
L 1666 0 
L 1666 3169 
L 613 3169 
z
" id="Helvetica-31" transform="scale(0.015625)"/>
       </defs>
       <use xlink:href="#Helvetica-31"/>
       <use x="55.615234" xlink:href="#Helvetica-30"/>
      </g>
     </g>
    </g>
    <g id="xtick_3">
     <g id="line2d_3">
      <path clip-path="url(#p973364260c)" d="M 202.047194 211.94 
L 202.047194 21.6 
" style="fill:none;stroke:#cccccc;stroke-linecap:round;stroke-width:0.8;"/>
     </g>
     <g id="text_3">
      <!-- 20 -->
      <g style="fill:#262626;" transform="translate(190.925319 239.786875)scale(0.2 -0.2)">
       <defs>
        <path d="M 200 0 
Q 231 578 439 1006 
Q 647 1434 1250 1784 
L 1850 2131 
Q 2253 2366 2416 2531 
Q 2672 2791 2672 3125 
Q 2672 3516 2437 3745 
Q 2203 3975 1813 3975 
Q 1234 3975 1013 3538 
Q 894 3303 881 2888 
L 309 2888 
Q 319 3472 525 3841 
Q 891 4491 1816 4491 
Q 2584 4491 2939 4075 
Q 3294 3659 3294 3150 
Q 3294 2613 2916 2231 
Q 2697 2009 2131 1694 
L 1703 1456 
Q 1397 1288 1222 1134 
Q 909 863 828 531 
L 3272 531 
L 3272 0 
L 200 0 
z
" id="Helvetica-32" transform="scale(0.015625)"/>
       </defs>
       <use xlink:href="#Helvetica-32"/>
       <use x="55.615234" xlink:href="#Helvetica-30"/>
      </g>
     </g>
    </g>
    <g id="xtick_4">
     <g id="line2d_4">
      <path clip-path="url(#p973364260c)" d="M 252.989201 211.94 
L 252.989201 21.6 
" style="fill:none;stroke:#cccccc;stroke-linecap:round;stroke-width:0.8;"/>
     </g>
     <g id="text_4">
      <!-- 30 -->
      <g style="fill:#262626;" transform="translate(241.867326 239.786875)scale(0.2 -0.2)">
       <defs>
        <path d="M 1663 -122 
Q 869 -122 511 314 
Q 153 750 153 1375 
L 741 1375 
Q 778 941 903 744 
Q 1122 391 1694 391 
Q 2138 391 2406 628 
Q 2675 866 2675 1241 
Q 2675 1703 2392 1887 
Q 2109 2072 1606 2072 
Q 1550 2072 1492 2070 
Q 1434 2069 1375 2066 
L 1375 2563 
Q 1463 2553 1522 2550 
Q 1581 2547 1650 2547 
Q 1966 2547 2169 2647 
Q 2525 2822 2525 3272 
Q 2525 3606 2287 3787 
Q 2050 3969 1734 3969 
Q 1172 3969 956 3594 
Q 838 3388 822 3006 
L 266 3006 
Q 266 3506 466 3856 
Q 809 4481 1675 4481 
Q 2359 4481 2734 4176 
Q 3109 3872 3109 3294 
Q 3109 2881 2888 2625 
Q 2750 2466 2531 2375 
Q 2884 2278 3082 2001 
Q 3281 1725 3281 1325 
Q 3281 684 2859 281 
Q 2438 -122 1663 -122 
z
" id="Helvetica-33" transform="scale(0.015625)"/>
       </defs>
       <use xlink:href="#Helvetica-33"/>
       <use x="55.615234" xlink:href="#Helvetica-30"/>
      </g>
     </g>
    </g>
    <g id="xtick_5">
     <g id="line2d_5">
      <path clip-path="url(#p973364260c)" d="M 303.931207 211.94 
L 303.931207 21.6 
" style="fill:none;stroke:#cccccc;stroke-linecap:round;stroke-width:0.8;"/>
     </g>
     <g id="text_5">
      <!-- 40 -->
      <g style="fill:#262626;" transform="translate(292.809332 239.786875)scale(0.2 -0.2)">
       <defs>
        <path d="M 2116 1584 
L 2116 3613 
L 681 1584 
L 2116 1584 
z
M 2125 0 
L 2125 1094 
L 163 1094 
L 163 1644 
L 2213 4488 
L 2688 4488 
L 2688 1584 
L 3347 1584 
L 3347 1094 
L 2688 1094 
L 2688 0 
L 2125 0 
z
" id="Helvetica-34" transform="scale(0.015625)"/>
       </defs>
       <use xlink:href="#Helvetica-34"/>
       <use x="55.615234" xlink:href="#Helvetica-30"/>
      </g>
     </g>
    </g>
    <g id="xtick_6">
     <g id="line2d_6">
      <path clip-path="url(#p973364260c)" d="M 354.873213 211.94 
L 354.873213 21.6 
" style="fill:none;stroke:#cccccc;stroke-linecap:round;stroke-width:0.8;"/>
     </g>
     <g id="text_6">
      <!-- 50 -->
      <g style="fill:#262626;" transform="translate(343.751338 239.786875)scale(0.2 -0.2)">
       <defs>
        <path d="M 791 1141 
Q 847 659 1238 475 
Q 1438 381 1700 381 
Q 2200 381 2440 700 
Q 2681 1019 2681 1406 
Q 2681 1875 2395 2131 
Q 2109 2388 1709 2388 
Q 1419 2388 1211 2275 
Q 1003 2163 856 1963 
L 369 1991 
L 709 4400 
L 3034 4400 
L 3034 3856 
L 1131 3856 
L 941 2613 
Q 1097 2731 1238 2791 
Q 1488 2894 1816 2894 
Q 2431 2894 2859 2497 
Q 3288 2100 3288 1491 
Q 3288 856 2895 371 
Q 2503 -113 1644 -113 
Q 1097 -113 676 195 
Q 256 503 206 1141 
L 791 1141 
z
" id="Helvetica-35" transform="scale(0.015625)"/>
       </defs>
       <use xlink:href="#Helvetica-35"/>
       <use x="55.615234" xlink:href="#Helvetica-30"/>
      </g>
     </g>
    </g>
    <g id="text_7">
     <!-- Position -->
     <g style="fill:#262626;" transform="translate(212.32 262.3025)scale(0.2 -0.2)">
      <defs>
       <path d="M 547 4591 
L 2613 4591 
Q 3225 4591 3600 4245 
Q 3975 3900 3975 3275 
Q 3975 2738 3640 2339 
Q 3306 1941 2613 1941 
L 1169 1941 
L 1169 0 
L 547 0 
L 547 4591 
z
M 3347 3272 
Q 3347 3778 2972 3959 
Q 2766 4056 2406 4056 
L 1169 4056 
L 1169 2466 
L 2406 2466 
Q 2825 2466 3086 2644 
Q 3347 2822 3347 3272 
z
" id="Helvetica-50" transform="scale(0.015625)"/>
       <path d="M 1741 363 
Q 2300 363 2508 786 
Q 2716 1209 2716 1728 
Q 2716 2197 2566 2491 
Q 2328 2953 1747 2953 
Q 1231 2953 997 2559 
Q 763 2166 763 1609 
Q 763 1075 997 719 
Q 1231 363 1741 363 
z
M 1763 3444 
Q 2409 3444 2856 3012 
Q 3303 2581 3303 1744 
Q 3303 934 2909 406 
Q 2516 -122 1688 -122 
Q 997 -122 590 345 
Q 184 813 184 1600 
Q 184 2444 612 2944 
Q 1041 3444 1763 3444 
z
M 1744 3428 
L 1744 3428 
z
" id="Helvetica-6f" transform="scale(0.015625)"/>
       <path d="M 747 1050 
Q 772 769 888 619 
Q 1100 347 1625 347 
Q 1938 347 2175 483 
Q 2413 619 2413 903 
Q 2413 1119 2222 1231 
Q 2100 1300 1741 1391 
L 1294 1503 
Q 866 1609 663 1741 
Q 300 1969 300 2372 
Q 300 2847 642 3140 
Q 984 3434 1563 3434 
Q 2319 3434 2653 2991 
Q 2863 2709 2856 2384 
L 2325 2384 
Q 2309 2575 2191 2731 
Q 1997 2953 1519 2953 
Q 1200 2953 1036 2831 
Q 872 2709 872 2509 
Q 872 2291 1088 2159 
Q 1213 2081 1456 2022 
L 1828 1931 
Q 2434 1784 2641 1647 
Q 2969 1431 2969 969 
Q 2969 522 2630 197 
Q 2291 -128 1597 -128 
Q 850 -128 539 211 
Q 228 550 206 1050 
L 747 1050 
z
M 1578 3428 
L 1578 3428 
z
" id="Helvetica-73" transform="scale(0.015625)"/>
       <path d="M 413 3331 
L 984 3331 
L 984 0 
L 413 0 
L 413 3331 
z
M 413 4591 
L 984 4591 
L 984 3953 
L 413 3953 
L 413 4591 
z
" id="Helvetica-69" transform="scale(0.015625)"/>
       <path d="M 525 4281 
L 1094 4281 
L 1094 3347 
L 1628 3347 
L 1628 2888 
L 1094 2888 
L 1094 703 
Q 1094 528 1213 469 
Q 1278 434 1431 434 
Q 1472 434 1519 436 
Q 1566 438 1628 444 
L 1628 0 
Q 1531 -28 1426 -40 
Q 1322 -53 1200 -53 
Q 806 -53 665 148 
Q 525 350 525 672 
L 525 2888 
L 72 2888 
L 72 3347 
L 525 3347 
L 525 4281 
z
" id="Helvetica-74" transform="scale(0.015625)"/>
       <path d="M 413 3347 
L 947 3347 
L 947 2872 
Q 1184 3166 1450 3294 
Q 1716 3422 2041 3422 
Q 2753 3422 3003 2925 
Q 3141 2653 3141 2147 
L 3141 0 
L 2569 0 
L 2569 2109 
Q 2569 2416 2478 2603 
Q 2328 2916 1934 2916 
Q 1734 2916 1606 2875 
Q 1375 2806 1200 2600 
Q 1059 2434 1017 2257 
Q 975 2081 975 1753 
L 975 0 
L 413 0 
L 413 3347 
z
M 1734 3428 
L 1734 3428 
z
" id="Helvetica-6e" transform="scale(0.015625)"/>
      </defs>
      <use xlink:href="#Helvetica-50"/>
      <use x="66.699219" xlink:href="#Helvetica-6f"/>
      <use x="122.314453" xlink:href="#Helvetica-73"/>
      <use x="172.314453" xlink:href="#Helvetica-69"/>
      <use x="194.53125" xlink:href="#Helvetica-74"/>
      <use x="222.314453" xlink:href="#Helvetica-69"/>
      <use x="244.53125" xlink:href="#Helvetica-6f"/>
      <use x="300.146484" xlink:href="#Helvetica-6e"/>
     </g>
    </g>
   </g>
   <g id="matplotlib.axis_2">
    <g id="ytick_1">
     <g id="line2d_7">
      <path clip-path="url(#p973364260c)" d="M 85.39 196.932416 
L 410.4 196.932416 
" style="fill:none;stroke:#cccccc;stroke-linecap:round;stroke-width:0.8;"/>
     </g>
     <g id="text_8">
      <!-- 0.0 -->
      <g style="fill:#262626;" transform="translate(44.09 204.105854)scale(0.2 -0.2)">
       <defs>
        <path d="M 547 681 
L 1200 681 
L 1200 0 
L 547 0 
L 547 681 
z
" id="Helvetica-2e" transform="scale(0.015625)"/>
       </defs>
       <use xlink:href="#Helvetica-30"/>
       <use x="55.615234" xlink:href="#Helvetica-2e"/>
       <use x="83.398438" xlink:href="#Helvetica-30"/>
      </g>
     </g>
    </g>
    <g id="ytick_2">
     <g id="line2d_8">
      <path clip-path="url(#p973364260c)" d="M 85.39 133.977571 
L 410.4 133.977571 
" style="fill:none;stroke:#cccccc;stroke-linecap:round;stroke-width:0.8;"/>
     </g>
     <g id="text_9">
      <!-- 0.1 -->
      <g style="fill:#262626;" transform="translate(44.09 141.151008)scale(0.2 -0.2)">
       <use xlink:href="#Helvetica-30"/>
       <use x="55.615234" xlink:href="#Helvetica-2e"/>
       <use x="83.398438" xlink:href="#Helvetica-31"/>
      </g>
     </g>
    </g>
    <g id="ytick_3">
     <g id="line2d_9">
      <path clip-path="url(#p973364260c)" d="M 85.39 71.022725 
L 410.4 71.022725 
" style="fill:none;stroke:#cccccc;stroke-linecap:round;stroke-width:0.8;"/>
     </g>
     <g id="text_10">
      <!-- 0.2 -->
      <g style="fill:#262626;" transform="translate(44.09 78.196162)scale(0.2 -0.2)">
       <use xlink:href="#Helvetica-30"/>
       <use x="55.615234" xlink:href="#Helvetica-2e"/>
       <use x="83.398438" xlink:href="#Helvetica-32"/>
      </g>
     </g>
    </g>
    <g id="text_11">
     <!-- Std Dev of Subunit Mismatch -->
     <g style="fill:#262626;" transform="translate(35.92125 245.709062)rotate(-90)scale(0.2 -0.2)">
      <defs>
       <path d="M 894 1481 
Q 916 1091 1078 847 
Q 1388 391 2169 391 
Q 2519 391 2806 491 
Q 3363 684 3363 1184 
Q 3363 1559 3128 1719 
Q 2891 1875 2384 1991 
L 1763 2131 
Q 1153 2269 900 2434 
Q 463 2722 463 3294 
Q 463 3913 891 4309 
Q 1319 4706 2103 4706 
Q 2825 4706 3329 4357 
Q 3834 4009 3834 3244 
L 3250 3244 
Q 3203 3613 3050 3809 
Q 2766 4169 2084 4169 
Q 1534 4169 1293 3937 
Q 1053 3706 1053 3400 
Q 1053 3063 1334 2906 
Q 1519 2806 2169 2656 
L 2813 2509 
Q 3278 2403 3531 2219 
Q 3969 1897 3969 1284 
Q 3969 522 3414 194 
Q 2859 -134 2125 -134 
Q 1269 -134 784 303 
Q 300 738 309 1481 
L 894 1481 
z
M 2150 4716 
L 2150 4716 
z
" id="Helvetica-53" transform="scale(0.015625)"/>
       <path d="M 769 1634 
Q 769 1097 997 734 
Q 1225 372 1728 372 
Q 2119 372 2370 708 
Q 2622 1044 2622 1672 
Q 2622 2306 2362 2611 
Q 2103 2916 1722 2916 
Q 1297 2916 1033 2591 
Q 769 2266 769 1634 
z
M 1616 3406 
Q 2000 3406 2259 3244 
Q 2409 3150 2600 2916 
L 2600 4606 
L 3141 4606 
L 3141 0 
L 2634 0 
L 2634 466 
Q 2438 156 2169 18 
Q 1900 -119 1553 -119 
Q 994 -119 584 351 
Q 175 822 175 1603 
Q 175 2334 548 2870 
Q 922 3406 1616 3406 
z
" id="Helvetica-64" transform="scale(0.015625)"/>
       <path id="Helvetica-20" transform="scale(0.015625)"/>
       <path d="M 2250 531 
Q 2566 531 2769 597 
Q 3131 719 3363 1066 
Q 3547 1344 3628 1778 
Q 3675 2038 3675 2259 
Q 3675 3113 3336 3584 
Q 2997 4056 2244 4056 
L 1141 4056 
L 1141 531 
L 2250 531 
z
M 516 4591 
L 2375 4591 
Q 3322 4591 3844 3919 
Q 4309 3313 4309 2366 
Q 4309 1634 4034 1044 
Q 3550 0 2369 0 
L 516 0 
L 516 4591 
z
" id="Helvetica-44" transform="scale(0.015625)"/>
       <path d="M 1806 3422 
Q 2163 3422 2497 3255 
Q 2831 3088 3006 2822 
Q 3175 2569 3231 2231 
Q 3281 2000 3281 1494 
L 828 1494 
Q 844 984 1069 676 
Q 1294 369 1766 369 
Q 2206 369 2469 659 
Q 2619 828 2681 1050 
L 3234 1050 
Q 3213 866 3089 639 
Q 2966 413 2813 269 
Q 2556 19 2178 -69 
Q 1975 -119 1719 -119 
Q 1094 -119 659 336 
Q 225 791 225 1609 
Q 225 2416 662 2919 
Q 1100 3422 1806 3422 
z
M 2703 1941 
Q 2669 2306 2544 2525 
Q 2313 2931 1772 2931 
Q 1384 2931 1121 2651 
Q 859 2372 844 1941 
L 2703 1941 
z
M 1753 3428 
L 1753 3428 
z
" id="Helvetica-65" transform="scale(0.015625)"/>
       <path d="M 688 3347 
L 1581 622 
L 2516 3347 
L 3131 3347 
L 1869 0 
L 1269 0 
L 34 3347 
L 688 3347 
z
" id="Helvetica-76" transform="scale(0.015625)"/>
       <path d="M 553 3856 
Q 566 4206 675 4369 
Q 872 4656 1434 4656 
Q 1488 4656 1544 4653 
Q 1600 4650 1672 4644 
L 1672 4131 
Q 1584 4138 1545 4139 
Q 1506 4141 1472 4141 
Q 1216 4141 1166 4008 
Q 1116 3875 1116 3331 
L 1672 3331 
L 1672 2888 
L 1109 2888 
L 1109 0 
L 553 0 
L 553 2888 
L 88 2888 
L 88 3331 
L 553 3331 
L 553 3856 
z
" id="Helvetica-66" transform="scale(0.015625)"/>
       <path d="M 975 3347 
L 975 1125 
Q 975 869 1056 706 
Q 1206 406 1616 406 
Q 2203 406 2416 931 
Q 2531 1213 2531 1703 
L 2531 3347 
L 3094 3347 
L 3094 0 
L 2563 0 
L 2569 494 
Q 2459 303 2297 172 
Q 1975 -91 1516 -91 
Q 800 -91 541 388 
Q 400 644 400 1072 
L 400 3347 
L 975 3347 
z
M 1747 3428 
L 1747 3428 
z
" id="Helvetica-75" transform="scale(0.015625)"/>
       <path d="M 369 4606 
L 916 4606 
L 916 2941 
Q 1100 3181 1356 3307 
Q 1613 3434 1913 3434 
Q 2538 3434 2927 3004 
Q 3316 2575 3316 1738 
Q 3316 944 2931 419 
Q 2547 -106 1866 -106 
Q 1484 -106 1222 78 
Q 1066 188 888 428 
L 888 0 
L 369 0 
L 369 4606 
z
M 1831 391 
Q 2288 391 2514 753 
Q 2741 1116 2741 1709 
Q 2741 2238 2514 2584 
Q 2288 2931 1847 2931 
Q 1463 2931 1173 2647 
Q 884 2363 884 1709 
Q 884 1238 1003 944 
Q 1225 391 1831 391 
z
" id="Helvetica-62" transform="scale(0.015625)"/>
       <path d="M 472 4591 
L 1363 4591 
L 2681 709 
L 3991 4591 
L 4872 4591 
L 4872 0 
L 4281 0 
L 4281 2709 
Q 4281 2850 4287 3175 
Q 4294 3500 4294 3872 
L 2984 0 
L 2369 0 
L 1050 3872 
L 1050 3731 
Q 1050 3563 1058 3217 
Q 1066 2872 1066 2709 
L 1066 0 
L 472 0 
L 472 4591 
z
" id="Helvetica-4d" transform="scale(0.015625)"/>
       <path d="M 413 3347 
L 969 3347 
L 969 2872 
Q 1169 3119 1331 3231 
Q 1609 3422 1963 3422 
Q 2363 3422 2606 3225 
Q 2744 3113 2856 2894 
Q 3044 3163 3297 3292 
Q 3550 3422 3866 3422 
Q 4541 3422 4784 2934 
Q 4916 2672 4916 2228 
L 4916 0 
L 4331 0 
L 4331 2325 
Q 4331 2659 4164 2784 
Q 3997 2909 3756 2909 
Q 3425 2909 3186 2687 
Q 2947 2466 2947 1947 
L 2947 0 
L 2375 0 
L 2375 2184 
Q 2375 2525 2294 2681 
Q 2166 2916 1816 2916 
Q 1497 2916 1236 2669 
Q 975 2422 975 1775 
L 975 0 
L 413 0 
L 413 3347 
z
" id="Helvetica-6d" transform="scale(0.015625)"/>
       <path d="M 844 891 
Q 844 647 1022 506 
Q 1200 366 1444 366 
Q 1741 366 2019 503 
Q 2488 731 2488 1250 
L 2488 1703 
Q 2384 1638 2221 1594 
Q 2059 1550 1903 1531 
L 1563 1488 
Q 1256 1447 1103 1359 
Q 844 1213 844 891 
z
M 2206 2028 
Q 2400 2053 2466 2191 
Q 2503 2266 2503 2406 
Q 2503 2694 2298 2823 
Q 2094 2953 1713 2953 
Q 1272 2953 1088 2716 
Q 984 2584 953 2325 
L 428 2325 
Q 444 2944 830 3186 
Q 1216 3428 1725 3428 
Q 2316 3428 2684 3203 
Q 3050 2978 3050 2503 
L 3050 575 
Q 3050 488 3086 434 
Q 3122 381 3238 381 
Q 3275 381 3322 386 
Q 3369 391 3422 400 
L 3422 -16 
Q 3291 -53 3222 -62 
Q 3153 -72 3034 -72 
Q 2744 -72 2613 134 
Q 2544 244 2516 444 
Q 2344 219 2022 53 
Q 1700 -113 1313 -113 
Q 847 -113 551 170 
Q 256 453 256 878 
Q 256 1344 547 1600 
Q 838 1856 1309 1916 
L 2206 2028 
z
M 1741 3428 
L 1741 3428 
z
" id="Helvetica-61" transform="scale(0.015625)"/>
       <path d="M 1703 3444 
Q 2269 3444 2623 3169 
Q 2978 2894 3050 2222 
L 2503 2222 
Q 2453 2531 2275 2736 
Q 2097 2941 1703 2941 
Q 1166 2941 934 2416 
Q 784 2075 784 1575 
Q 784 1072 996 728 
Q 1209 384 1666 384 
Q 2016 384 2220 598 
Q 2425 813 2503 1184 
L 3050 1184 
Q 2956 519 2581 211 
Q 2206 -97 1622 -97 
Q 966 -97 575 383 
Q 184 863 184 1581 
Q 184 2463 612 2953 
Q 1041 3444 1703 3444 
z
M 1616 3428 
L 1616 3428 
z
" id="Helvetica-63" transform="scale(0.015625)"/>
       <path d="M 413 4606 
L 975 4606 
L 975 2894 
Q 1175 3147 1334 3250 
Q 1606 3428 2013 3428 
Q 2741 3428 3000 2919 
Q 3141 2641 3141 2147 
L 3141 0 
L 2563 0 
L 2563 2109 
Q 2563 2478 2469 2650 
Q 2316 2925 1894 2925 
Q 1544 2925 1259 2684 
Q 975 2444 975 1775 
L 975 0 
L 413 0 
L 413 4606 
z
" id="Helvetica-68" transform="scale(0.015625)"/>
      </defs>
      <use xlink:href="#Helvetica-53"/>
      <use x="66.699219" xlink:href="#Helvetica-74"/>
      <use x="94.482422" xlink:href="#Helvetica-64"/>
      <use x="150.097656" xlink:href="#Helvetica-20"/>
      <use x="177.880859" xlink:href="#Helvetica-44"/>
      <use x="250.097656" xlink:href="#Helvetica-65"/>
      <use x="305.712891" xlink:href="#Helvetica-76"/>
      <use x="355.712891" xlink:href="#Helvetica-20"/>
      <use x="383.496094" xlink:href="#Helvetica-6f"/>
      <use x="439.111328" xlink:href="#Helvetica-66"/>
      <use x="466.894531" xlink:href="#Helvetica-20"/>
      <use x="494.677734" xlink:href="#Helvetica-53"/>
      <use x="561.376953" xlink:href="#Helvetica-75"/>
      <use x="616.992188" xlink:href="#Helvetica-62"/>
      <use x="672.607422" xlink:href="#Helvetica-75"/>
      <use x="728.222656" xlink:href="#Helvetica-6e"/>
      <use x="783.837891" xlink:href="#Helvetica-69"/>
      <use x="806.054688" xlink:href="#Helvetica-74"/>
      <use x="833.837891" xlink:href="#Helvetica-20"/>
      <use x="861.621094" xlink:href="#Helvetica-4d"/>
      <use x="944.921875" xlink:href="#Helvetica-69"/>
      <use x="967.138672" xlink:href="#Helvetica-73"/>
      <use x="1017.138672" xlink:href="#Helvetica-6d"/>
      <use x="1100.439453" xlink:href="#Helvetica-61"/>
      <use x="1156.054688" xlink:href="#Helvetica-74"/>
      <use x="1183.837891" xlink:href="#Helvetica-63"/>
      <use x="1233.837891" xlink:href="#Helvetica-68"/>
     </g>
    </g>
   </g>
   <g id="PolyCollection_1">
    <defs>
     <path d="M 100.163182 -126.009289 
L 100.163182 -88.838175 
L 105.257382 -91.067584 
L 110.351583 -91.067584 
L 115.445784 -85.563329 
L 120.539984 -86.636052 
L 125.634185 -86.636052 
L 130.728386 -91.067584 
L 135.822586 -91.067584 
L 140.916787 -85.563329 
L 146.010987 -91.067584 
L 151.105188 -84.711818 
L 156.199389 -91.067584 
L 161.293589 -91.617084 
L 166.38779 -91.067584 
L 171.481991 -98.348614 
L 176.576191 -86.636052 
L 181.670392 -91.625201 
L 186.764592 -86.636052 
L 191.858793 -88.838175 
L 196.952994 -85.563329 
L 202.047194 -91.067584 
L 207.141395 -88.838175 
L 212.235596 -88.560643 
L 217.329796 -98.831676 
L 222.423997 -88.838175 
L 227.518197 -84.711818 
L 232.612398 -86.636052 
L 237.706599 -91.617084 
L 242.800799 -91.067584 
L 247.895 -98.651095 
L 252.989201 -91.067584 
L 258.083401 -85.563329 
L 263.177602 -91.067584 
L 268.271803 -84.711818 
L 273.366003 -91.067584 
L 278.460204 -94.91867 
L 283.554404 -86.636052 
L 288.648605 -91.625201 
L 293.742806 -85.563329 
L 298.837006 -91.617084 
L 303.931207 -85.563329 
L 309.025408 -91.644562 
L 314.119608 -106.497222 
L 319.213809 -94.91867 
L 324.308009 -99.029958 
L 329.40221 -106.497222 
L 334.496411 -111.603315 
L 339.590611 -85.563329 
L 344.684812 -91.067584 
L 349.779013 -91.067584 
L 354.873213 -102.275044 
L 359.967414 -85.563329 
L 365.061614 -88.838175 
L 370.155815 -88.560643 
L 375.250016 -84.711818 
L 380.344216 -86.248974 
L 385.438417 -86.636052 
L 390.532618 -91.067584 
L 395.626818 -86.636052 
L 395.626818 -117.307313 
L 395.626818 -117.307313 
L 390.532618 -91.067584 
L 385.438417 -117.307313 
L 380.344216 -119.381262 
L 375.250016 -110.014318 
L 370.155815 -129.660562 
L 365.061614 -126.009289 
L 359.967414 -107.475937 
L 354.873213 -157.875688 
L 349.779013 -91.067584 
L 344.684812 -91.067584 
L 339.590611 -107.475937 
L 334.496411 -177.103095 
L 329.40221 -166.244479 
L 324.308009 -155.277284 
L 319.213809 -143.423863 
L 314.119608 -166.244479 
L 309.025408 -134.107001 
L 303.931207 -107.475937 
L 298.837006 -135.82135 
L 293.742806 -107.475937 
L 288.648605 -137.500103 
L 283.554404 -117.307313 
L 278.460204 -143.423863 
L 273.366003 -91.067584 
L 268.271803 -110.014318 
L 263.177602 -91.067584 
L 258.083401 -107.475937 
L 252.989201 -91.067584 
L 247.895 -152.282407 
L 242.800799 -91.067584 
L 237.706599 -135.82135 
L 232.612398 -117.307313 
L 227.518197 -110.014318 
L 222.423997 -126.009289 
L 217.329796 -153.788697 
L 212.235596 -129.660562 
L 207.141395 -126.009289 
L 202.047194 -91.067584 
L 196.952994 -107.475937 
L 191.858793 -126.009289 
L 186.764592 -117.307313 
L 181.670392 -137.500103 
L 176.576191 -117.307313 
L 171.481991 -149.211148 
L 166.38779 -91.067584 
L 161.293589 -135.82135 
L 156.199389 -91.067584 
L 151.105188 -110.014318 
L 146.010987 -91.067584 
L 140.916787 -107.475937 
L 135.822586 -91.067584 
L 130.728386 -91.067584 
L 125.634185 -117.307313 
L 120.539984 -117.307313 
L 115.445784 -107.475937 
L 110.351583 -91.067584 
L 105.257382 -91.067584 
L 100.163182 -126.009289 
z
" id="m7d48c46232" style="stroke:#808080;stroke-opacity:0.2;"/>
    </defs>
    <g clip-path="url(#p973364260c)">
     <use style="fill:#808080;fill-opacity:0.2;stroke:#808080;stroke-opacity:0.2;" x="0" xlink:href="#m7d48c46232" y="288"/>
    </g>
   </g>
   <g id="PolyCollection_2">
    <defs>
     <path d="M 100.163182 -107.475937 
L 100.163182 -85.563329 
L 105.257382 -91.067584 
L 110.351583 -91.067584 
L 115.445784 -84.711818 
L 120.539984 -91.067584 
L 125.634185 -91.067584 
L 130.728386 -91.067584 
L 135.822586 -91.067584 
L 140.916787 -84.711818 
L 146.010987 -85.563329 
L 151.105188 -91.067584 
L 156.199389 -91.067584 
L 161.293589 -85.563329 
L 166.38779 -84.711818 
L 171.481991 -86.636052 
L 176.576191 -86.248974 
L 181.670392 -86.248974 
L 186.764592 -86.636052 
L 191.858793 -88.673277 
L 196.952994 -95.013645 
L 202.047194 -91.067584 
L 207.141395 -91.067584 
L 212.235596 -85.563329 
L 217.329796 -85.563329 
L 222.423997 -91.067584 
L 227.518197 -91.067584 
L 232.612398 -91.067584 
L 237.706599 -85.563329 
L 242.800799 -91.067584 
L 247.895 -85.563329 
L 252.989201 -91.067584 
L 258.083401 -84.711818 
L 263.177602 -91.067584 
L 268.271803 -91.067584 
L 273.366003 -84.711818 
L 278.460204 -86.636052 
L 283.554404 -91.067584 
L 288.648605 -85.563329 
L 293.742806 -85.563329 
L 298.837006 -91.067584 
L 303.931207 -84.711818 
L 309.025408 -88.838175 
L 314.119608 -85.563329 
L 319.213809 -91.067584 
L 324.308009 -85.563329 
L 329.40221 -85.563329 
L 334.496411 -85.563329 
L 339.590611 -84.711818 
L 344.684812 -91.067584 
L 349.779013 -91.067584 
L 354.873213 -98.489564 
L 359.967414 -88.673277 
L 365.061614 -91.665157 
L 370.155815 -86.636052 
L 375.250016 -86.636052 
L 380.344216 -86.248974 
L 385.438417 -85.563329 
L 390.532618 -84.711818 
L 395.626818 -91.067584 
L 395.626818 -91.067584 
L 395.626818 -91.067584 
L 390.532618 -110.014318 
L 385.438417 -107.475937 
L 380.344216 -119.381262 
L 375.250016 -117.307313 
L 370.155815 -117.307313 
L 365.061614 -139.147016 
L 359.967414 -127.861057 
L 354.873213 -150.757068 
L 349.779013 -91.067584 
L 344.684812 -91.067584 
L 339.590611 -110.014318 
L 334.496411 -107.475937 
L 329.40221 -107.475937 
L 324.308009 -107.475937 
L 319.213809 -91.067584 
L 314.119608 -107.475937 
L 309.025408 -126.009289 
L 303.931207 -110.014318 
L 298.837006 -91.067584 
L 293.742806 -107.475937 
L 288.648605 -107.475937 
L 283.554404 -91.067584 
L 278.460204 -117.307313 
L 273.366003 -110.014318 
L 268.271803 -91.067584 
L 263.177602 -91.067584 
L 258.083401 -110.014318 
L 252.989201 -91.067584 
L 247.895 -107.475937 
L 242.800799 -91.067584 
L 237.706599 -107.475937 
L 232.612398 -91.067584 
L 227.518197 -91.067584 
L 222.423997 -91.067584 
L 217.329796 -107.475937 
L 212.235596 -107.475937 
L 207.141395 -91.067584 
L 202.047194 -91.067584 
L 196.952994 -145.015758 
L 191.858793 -127.861057 
L 186.764592 -117.307313 
L 181.670392 -119.381262 
L 176.576191 -119.381262 
L 171.481991 -117.307313 
L 166.38779 -110.014318 
L 161.293589 -107.475937 
L 156.199389 -91.067584 
L 151.105188 -91.067584 
L 146.010987 -107.475937 
L 140.916787 -110.014318 
L 135.822586 -91.067584 
L 130.728386 -91.067584 
L 125.634185 -91.067584 
L 120.539984 -91.067584 
L 115.445784 -110.014318 
L 110.351583 -91.067584 
L 105.257382 -91.067584 
L 100.163182 -107.475937 
z
" id="m822c0aa778" style="stroke:#ff7f0e;stroke-opacity:0.2;"/>
    </defs>
    <g clip-path="url(#p973364260c)">
     <use style="fill:#ff7f0e;fill-opacity:0.2;stroke:#ff7f0e;stroke-opacity:0.2;" x="0" xlink:href="#m822c0aa778" y="288"/>
    </g>
   </g>
   <g id="PolyCollection_3">
    <defs>
     <path d="M 100.163182 -126.009289 
L 100.163182 -88.838175 
L 105.257382 -88.560643 
L 110.351583 -85.563329 
L 115.445784 -88.560643 
L 120.539984 -85.563329 
L 125.634185 -86.248974 
L 130.728386 -86.248974 
L 135.822586 -86.636052 
L 140.916787 -94.850038 
L 146.010987 -88.838175 
L 151.105188 -88.838175 
L 156.199389 -86.248974 
L 161.293589 -106.238455 
L 166.38779 -94.91867 
L 171.481991 -118.9685 
L 176.576191 -125.839681 
L 181.670392 -88.673277 
L 186.764592 -110.649812 
L 191.858793 -98.831676 
L 196.952994 -130.098119 
L 202.047194 -91.067584 
L 207.141395 -88.673277 
L 212.235596 -94.91867 
L 217.329796 -103.224148 
L 222.423997 -98.348614 
L 227.518197 -84.711818 
L 232.612398 -88.493285 
L 237.706599 -124.608122 
L 242.800799 -91.665157 
L 247.895 -129.66792 
L 252.989201 -86.636052 
L 258.083401 -88.838175 
L 263.177602 -88.673277 
L 268.271803 -98.489564 
L 273.366003 -85.563329 
L 278.460204 -111.27509 
L 283.554404 -94.91867 
L 288.648605 -107.656852 
L 293.742806 -138.764714 
L 298.837006 -106.238455 
L 303.931207 -88.560643 
L 309.025408 -102.489831 
L 314.119608 -135.308745 
L 319.213809 -125.011749 
L 324.308009 -110.957083 
L 329.40221 -107.053481 
L 334.496411 -102.72024 
L 339.590611 -159.204892 
L 344.684812 -106.497222 
L 349.779013 -86.248974 
L 354.873213 -178.555006 
L 359.967414 -91.617084 
L 365.061614 -115.268015 
L 370.155815 -123.441834 
L 375.250016 -98.831676 
L 380.344216 -91.617084 
L 385.438417 -102.275044 
L 390.532618 -98.489564 
L 395.626818 -98.348614 
L 395.626818 -149.211148 
L 395.626818 -149.211148 
L 390.532618 -150.757068 
L 385.438417 -157.875688 
L 380.344216 -135.82135 
L 375.250016 -153.788697 
L 370.155815 -191.229393 
L 365.061614 -180.968754 
L 359.967414 -135.82135 
L 354.873213 -257.748182 
L 349.779013 -119.381262 
L 344.684812 -166.244479 
L 339.590611 -238.54251 
L 334.496411 -160.804231 
L 329.40221 -169.061959 
L 324.308009 -174.375586 
L 319.213809 -196.406959 
L 314.119608 -211.2919 
L 309.025408 -159.347771 
L 303.931207 -129.660562 
L 298.837006 -164.816376 
L 293.742806 -213.67942 
L 288.648605 -171.832328 
L 283.554404 -143.423863 
L 278.460204 -175.74445 
L 273.366003 -107.475937 
L 268.271803 -150.757068 
L 263.177602 -127.861057 
L 258.083401 -126.009289 
L 252.989201 -117.307313 
L 247.895 -202.654887 
L 242.800799 -139.147016 
L 237.706599 -195.123715 
L 232.612398 -131.41479 
L 227.518197 -110.014318 
L 222.423997 -149.211148 
L 217.329796 -163.674064 
L 212.235596 -143.423863 
L 207.141395 -127.861057 
L 202.047194 -91.067584 
L 196.952994 -203.911557 
L 191.858793 -153.788697 
L 186.764592 -172.995987 
L 181.670392 -127.861057 
L 176.576191 -198.952766 
L 171.481991 -184.798628 
L 166.38779 -143.423863 
L 161.293589 -164.816376 
L 156.199389 -119.381262 
L 151.105188 -126.009289 
L 146.010987 -126.009289 
L 140.916787 -141.805625 
L 135.822586 -117.307313 
L 130.728386 -119.381262 
L 125.634185 -119.381262 
L 120.539984 -107.475937 
L 115.445784 -129.660562 
L 110.351583 -107.475937 
L 105.257382 -129.660562 
L 100.163182 -126.009289 
z
" id="md2ea598d75" style="stroke:#1f77b4;stroke-opacity:0.2;"/>
    </defs>
    <g clip-path="url(#p973364260c)">
     <use style="fill:#1f77b4;fill-opacity:0.2;stroke:#1f77b4;stroke-opacity:0.2;" x="0" xlink:href="#md2ea598d75" y="288"/>
    </g>
   </g>
   <g id="line2d_10">
    <path clip-path="url(#p973364260c)" d="M 100.163182 180.576268 
L 105.257382 196.932416 
L 110.351583 196.932416 
L 115.445784 191.480367 
L 120.539984 186.028317 
L 125.634185 186.028317 
L 130.728386 196.932416 
L 135.822586 196.932416 
L 140.916787 191.480367 
L 146.010987 196.932416 
L 151.105188 190.636932 
L 156.199389 196.932416 
L 161.293589 174.280783 
L 166.38779 196.932416 
L 171.481991 164.220119 
L 176.576191 186.028317 
L 181.670392 173.437348 
L 186.764592 186.028317 
L 191.858793 180.576268 
L 196.952994 191.480367 
L 202.047194 196.932416 
L 207.141395 180.576268 
L 212.235596 178.889398 
L 217.329796 161.689814 
L 222.423997 180.576268 
L 227.518197 190.636932 
L 232.612398 186.028317 
L 237.706599 174.280783 
L 242.800799 196.932416 
L 247.895 162.533249 
L 252.989201 196.932416 
L 258.083401 191.480367 
L 263.177602 196.932416 
L 268.271803 190.636932 
L 273.366003 196.932416 
L 278.460204 168.828734 
L 283.554404 186.028317 
L 288.648605 173.437348 
L 293.742806 191.480367 
L 298.837006 174.280783 
L 303.931207 191.480367 
L 309.025408 175.124218 
L 314.119608 151.62915 
L 319.213809 168.828734 
L 324.308009 160.846379 
L 329.40221 151.62915 
L 334.496411 143.646795 
L 339.590611 191.480367 
L 344.684812 196.932416 
L 349.779013 196.932416 
L 354.873213 157.924634 
L 359.967414 191.480367 
L 365.061614 180.576268 
L 370.155815 178.889398 
L 375.250016 190.636932 
L 380.344216 185.184882 
L 385.438417 186.028317 
L 390.532618 196.932416 
L 395.626818 186.028317 
" style="fill:none;stroke:#808080;stroke-linecap:round;stroke-opacity:0.8;stroke-width:0.7;"/>
    <defs>
     <path d="M -0 2.5 
L 2.5 -2.5 
L -2.5 -2.5 
z
" id="mc96ac760aa" style="stroke:#000000;stroke-linejoin:miter;stroke-opacity:0.8;"/>
    </defs>
    <g clip-path="url(#p973364260c)">
     <use style="fill:#808080;fill-opacity:0.8;stroke:#000000;stroke-linejoin:miter;stroke-opacity:0.8;" x="100.163182" xlink:href="#mc96ac760aa" y="180.576268"/>
     <use style="fill:#808080;fill-opacity:0.8;stroke:#000000;stroke-linejoin:miter;stroke-opacity:0.8;" x="105.257382" xlink:href="#mc96ac760aa" y="196.932416"/>
     <use style="fill:#808080;fill-opacity:0.8;stroke:#000000;stroke-linejoin:miter;stroke-opacity:0.8;" x="110.351583" xlink:href="#mc96ac760aa" y="196.932416"/>
     <use style="fill:#808080;fill-opacity:0.8;stroke:#000000;stroke-linejoin:miter;stroke-opacity:0.8;" x="115.445784" xlink:href="#mc96ac760aa" y="191.480367"/>
     <use style="fill:#808080;fill-opacity:0.8;stroke:#000000;stroke-linejoin:miter;stroke-opacity:0.8;" x="120.539984" xlink:href="#mc96ac760aa" y="186.028317"/>
     <use style="fill:#808080;fill-opacity:0.8;stroke:#000000;stroke-linejoin:miter;stroke-opacity:0.8;" x="125.634185" xlink:href="#mc96ac760aa" y="186.028317"/>
     <use style="fill:#808080;fill-opacity:0.8;stroke:#000000;stroke-linejoin:miter;stroke-opacity:0.8;" x="130.728386" xlink:href="#mc96ac760aa" y="196.932416"/>
     <use style="fill:#808080;fill-opacity:0.8;stroke:#000000;stroke-linejoin:miter;stroke-opacity:0.8;" x="135.822586" xlink:href="#mc96ac760aa" y="196.932416"/>
     <use style="fill:#808080;fill-opacity:0.8;stroke:#000000;stroke-linejoin:miter;stroke-opacity:0.8;" x="140.916787" xlink:href="#mc96ac760aa" y="191.480367"/>
     <use style="fill:#808080;fill-opacity:0.8;stroke:#000000;stroke-linejoin:miter;stroke-opacity:0.8;" x="146.010987" xlink:href="#mc96ac760aa" y="196.932416"/>
     <use style="fill:#808080;fill-opacity:0.8;stroke:#000000;stroke-linejoin:miter;stroke-opacity:0.8;" x="151.105188" xlink:href="#mc96ac760aa" y="190.636932"/>
     <use style="fill:#808080;fill-opacity:0.8;stroke:#000000;stroke-linejoin:miter;stroke-opacity:0.8;" x="156.199389" xlink:href="#mc96ac760aa" y="196.932416"/>
     <use style="fill:#808080;fill-opacity:0.8;stroke:#000000;stroke-linejoin:miter;stroke-opacity:0.8;" x="161.293589" xlink:href="#mc96ac760aa" y="174.280783"/>
     <use style="fill:#808080;fill-opacity:0.8;stroke:#000000;stroke-linejoin:miter;stroke-opacity:0.8;" x="166.38779" xlink:href="#mc96ac760aa" y="196.932416"/>
     <use style="fill:#808080;fill-opacity:0.8;stroke:#000000;stroke-linejoin:miter;stroke-opacity:0.8;" x="171.481991" xlink:href="#mc96ac760aa" y="164.220119"/>
     <use style="fill:#808080;fill-opacity:0.8;stroke:#000000;stroke-linejoin:miter;stroke-opacity:0.8;" x="176.576191" xlink:href="#mc96ac760aa" y="186.028317"/>
     <use style="fill:#808080;fill-opacity:0.8;stroke:#000000;stroke-linejoin:miter;stroke-opacity:0.8;" x="181.670392" xlink:href="#mc96ac760aa" y="173.437348"/>
     <use style="fill:#808080;fill-opacity:0.8;stroke:#000000;stroke-linejoin:miter;stroke-opacity:0.8;" x="186.764592" xlink:href="#mc96ac760aa" y="186.028317"/>
     <use style="fill:#808080;fill-opacity:0.8;stroke:#000000;stroke-linejoin:miter;stroke-opacity:0.8;" x="191.858793" xlink:href="#mc96ac760aa" y="180.576268"/>
     <use style="fill:#808080;fill-opacity:0.8;stroke:#000000;stroke-linejoin:miter;stroke-opacity:0.8;" x="196.952994" xlink:href="#mc96ac760aa" y="191.480367"/>
     <use style="fill:#808080;fill-opacity:0.8;stroke:#000000;stroke-linejoin:miter;stroke-opacity:0.8;" x="202.047194" xlink:href="#mc96ac760aa" y="196.932416"/>
     <use style="fill:#808080;fill-opacity:0.8;stroke:#000000;stroke-linejoin:miter;stroke-opacity:0.8;" x="207.141395" xlink:href="#mc96ac760aa" y="180.576268"/>
     <use style="fill:#808080;fill-opacity:0.8;stroke:#000000;stroke-linejoin:miter;stroke-opacity:0.8;" x="212.235596" xlink:href="#mc96ac760aa" y="178.889398"/>
     <use style="fill:#808080;fill-opacity:0.8;stroke:#000000;stroke-linejoin:miter;stroke-opacity:0.8;" x="217.329796" xlink:href="#mc96ac760aa" y="161.689814"/>
     <use style="fill:#808080;fill-opacity:0.8;stroke:#000000;stroke-linejoin:miter;stroke-opacity:0.8;" x="222.423997" xlink:href="#mc96ac760aa" y="180.576268"/>
     <use style="fill:#808080;fill-opacity:0.8;stroke:#000000;stroke-linejoin:miter;stroke-opacity:0.8;" x="227.518197" xlink:href="#mc96ac760aa" y="190.636932"/>
     <use style="fill:#808080;fill-opacity:0.8;stroke:#000000;stroke-linejoin:miter;stroke-opacity:0.8;" x="232.612398" xlink:href="#mc96ac760aa" y="186.028317"/>
     <use style="fill:#808080;fill-opacity:0.8;stroke:#000000;stroke-linejoin:miter;stroke-opacity:0.8;" x="237.706599" xlink:href="#mc96ac760aa" y="174.280783"/>
     <use style="fill:#808080;fill-opacity:0.8;stroke:#000000;stroke-linejoin:miter;stroke-opacity:0.8;" x="242.800799" xlink:href="#mc96ac760aa" y="196.932416"/>
     <use style="fill:#808080;fill-opacity:0.8;stroke:#000000;stroke-linejoin:miter;stroke-opacity:0.8;" x="247.895" xlink:href="#mc96ac760aa" y="162.533249"/>
     <use style="fill:#808080;fill-opacity:0.8;stroke:#000000;stroke-linejoin:miter;stroke-opacity:0.8;" x="252.989201" xlink:href="#mc96ac760aa" y="196.932416"/>
     <use style="fill:#808080;fill-opacity:0.8;stroke:#000000;stroke-linejoin:miter;stroke-opacity:0.8;" x="258.083401" xlink:href="#mc96ac760aa" y="191.480367"/>
     <use style="fill:#808080;fill-opacity:0.8;stroke:#000000;stroke-linejoin:miter;stroke-opacity:0.8;" x="263.177602" xlink:href="#mc96ac760aa" y="196.932416"/>
     <use style="fill:#808080;fill-opacity:0.8;stroke:#000000;stroke-linejoin:miter;stroke-opacity:0.8;" x="268.271803" xlink:href="#mc96ac760aa" y="190.636932"/>
     <use style="fill:#808080;fill-opacity:0.8;stroke:#000000;stroke-linejoin:miter;stroke-opacity:0.8;" x="273.366003" xlink:href="#mc96ac760aa" y="196.932416"/>
     <use style="fill:#808080;fill-opacity:0.8;stroke:#000000;stroke-linejoin:miter;stroke-opacity:0.8;" x="278.460204" xlink:href="#mc96ac760aa" y="168.828734"/>
     <use style="fill:#808080;fill-opacity:0.8;stroke:#000000;stroke-linejoin:miter;stroke-opacity:0.8;" x="283.554404" xlink:href="#mc96ac760aa" y="186.028317"/>
     <use style="fill:#808080;fill-opacity:0.8;stroke:#000000;stroke-linejoin:miter;stroke-opacity:0.8;" x="288.648605" xlink:href="#mc96ac760aa" y="173.437348"/>
     <use style="fill:#808080;fill-opacity:0.8;stroke:#000000;stroke-linejoin:miter;stroke-opacity:0.8;" x="293.742806" xlink:href="#mc96ac760aa" y="191.480367"/>
     <use style="fill:#808080;fill-opacity:0.8;stroke:#000000;stroke-linejoin:miter;stroke-opacity:0.8;" x="298.837006" xlink:href="#mc96ac760aa" y="174.280783"/>
     <use style="fill:#808080;fill-opacity:0.8;stroke:#000000;stroke-linejoin:miter;stroke-opacity:0.8;" x="303.931207" xlink:href="#mc96ac760aa" y="191.480367"/>
     <use style="fill:#808080;fill-opacity:0.8;stroke:#000000;stroke-linejoin:miter;stroke-opacity:0.8;" x="309.025408" xlink:href="#mc96ac760aa" y="175.124218"/>
     <use style="fill:#808080;fill-opacity:0.8;stroke:#000000;stroke-linejoin:miter;stroke-opacity:0.8;" x="314.119608" xlink:href="#mc96ac760aa" y="151.62915"/>
     <use style="fill:#808080;fill-opacity:0.8;stroke:#000000;stroke-linejoin:miter;stroke-opacity:0.8;" x="319.213809" xlink:href="#mc96ac760aa" y="168.828734"/>
     <use style="fill:#808080;fill-opacity:0.8;stroke:#000000;stroke-linejoin:miter;stroke-opacity:0.8;" x="324.308009" xlink:href="#mc96ac760aa" y="160.846379"/>
     <use style="fill:#808080;fill-opacity:0.8;stroke:#000000;stroke-linejoin:miter;stroke-opacity:0.8;" x="329.40221" xlink:href="#mc96ac760aa" y="151.62915"/>
     <use style="fill:#808080;fill-opacity:0.8;stroke:#000000;stroke-linejoin:miter;stroke-opacity:0.8;" x="334.496411" xlink:href="#mc96ac760aa" y="143.646795"/>
     <use style="fill:#808080;fill-opacity:0.8;stroke:#000000;stroke-linejoin:miter;stroke-opacity:0.8;" x="339.590611" xlink:href="#mc96ac760aa" y="191.480367"/>
     <use style="fill:#808080;fill-opacity:0.8;stroke:#000000;stroke-linejoin:miter;stroke-opacity:0.8;" x="344.684812" xlink:href="#mc96ac760aa" y="196.932416"/>
     <use style="fill:#808080;fill-opacity:0.8;stroke:#000000;stroke-linejoin:miter;stroke-opacity:0.8;" x="349.779013" xlink:href="#mc96ac760aa" y="196.932416"/>
     <use style="fill:#808080;fill-opacity:0.8;stroke:#000000;stroke-linejoin:miter;stroke-opacity:0.8;" x="354.873213" xlink:href="#mc96ac760aa" y="157.924634"/>
     <use style="fill:#808080;fill-opacity:0.8;stroke:#000000;stroke-linejoin:miter;stroke-opacity:0.8;" x="359.967414" xlink:href="#mc96ac760aa" y="191.480367"/>
     <use style="fill:#808080;fill-opacity:0.8;stroke:#000000;stroke-linejoin:miter;stroke-opacity:0.8;" x="365.061614" xlink:href="#mc96ac760aa" y="180.576268"/>
     <use style="fill:#808080;fill-opacity:0.8;stroke:#000000;stroke-linejoin:miter;stroke-opacity:0.8;" x="370.155815" xlink:href="#mc96ac760aa" y="178.889398"/>
     <use style="fill:#808080;fill-opacity:0.8;stroke:#000000;stroke-linejoin:miter;stroke-opacity:0.8;" x="375.250016" xlink:href="#mc96ac760aa" y="190.636932"/>
     <use style="fill:#808080;fill-opacity:0.8;stroke:#000000;stroke-linejoin:miter;stroke-opacity:0.8;" x="380.344216" xlink:href="#mc96ac760aa" y="185.184882"/>
     <use style="fill:#808080;fill-opacity:0.8;stroke:#000000;stroke-linejoin:miter;stroke-opacity:0.8;" x="385.438417" xlink:href="#mc96ac760aa" y="186.028317"/>
     <use style="fill:#808080;fill-opacity:0.8;stroke:#000000;stroke-linejoin:miter;stroke-opacity:0.8;" x="390.532618" xlink:href="#mc96ac760aa" y="196.932416"/>
     <use style="fill:#808080;fill-opacity:0.8;stroke:#000000;stroke-linejoin:miter;stroke-opacity:0.8;" x="395.626818" xlink:href="#mc96ac760aa" y="186.028317"/>
    </g>
   </g>
   <g id="line2d_11">
    <path clip-path="url(#p973364260c)" d="M 100.163182 180.576268 
L 105.257382 196.932416 
L 110.351583 196.932416 
L 115.445784 191.480367 
L 120.539984 186.028317 
L 125.634185 186.028317 
L 130.728386 196.932416 
L 135.822586 196.932416 
L 140.916787 191.480367 
L 146.010987 196.932416 
L 151.105188 190.636932 
L 156.199389 196.932416 
L 161.293589 174.280783 
L 166.38779 196.932416 
L 171.481991 164.220119 
L 176.576191 186.028317 
L 181.670392 173.437348 
L 186.764592 186.028317 
L 191.858793 180.576268 
L 196.952994 191.480367 
L 202.047194 196.932416 
L 207.141395 180.576268 
L 212.235596 178.889398 
L 217.329796 161.689814 
L 222.423997 180.576268 
L 227.518197 190.636932 
L 232.612398 186.028317 
L 237.706599 174.280783 
L 242.800799 196.932416 
L 247.895 162.533249 
L 252.989201 196.932416 
L 258.083401 191.480367 
L 263.177602 196.932416 
L 268.271803 190.636932 
L 273.366003 196.932416 
L 278.460204 168.828734 
L 283.554404 186.028317 
L 288.648605 173.437348 
L 293.742806 191.480367 
L 298.837006 174.280783 
L 303.931207 191.480367 
L 309.025408 175.124218 
L 314.119608 151.62915 
L 319.213809 168.828734 
L 324.308009 160.846379 
L 329.40221 151.62915 
L 334.496411 143.646795 
L 339.590611 191.480367 
L 344.684812 196.932416 
L 349.779013 196.932416 
L 354.873213 157.924634 
L 359.967414 191.480367 
L 365.061614 180.576268 
L 370.155815 178.889398 
L 375.250016 190.636932 
L 380.344216 185.184882 
L 385.438417 186.028317 
L 390.532618 196.932416 
L 395.626818 186.028317 
" style="fill:none;stroke:#808080;stroke-linecap:round;stroke-width:0.7;"/>
   </g>
   <g id="line2d_12">
    <path clip-path="url(#p973364260c)" d="M 100.163182 199.161825 
L 105.257382 196.932416 
L 110.351583 196.932416 
L 115.445784 202.436671 
L 120.539984 201.363948 
L 125.634185 201.363948 
L 130.728386 196.932416 
L 135.822586 196.932416 
L 140.916787 202.436671 
L 146.010987 196.932416 
L 151.105188 203.288182 
L 156.199389 196.932416 
L 161.293589 196.382916 
L 166.38779 196.932416 
L 171.481991 189.651386 
L 176.576191 201.363948 
L 181.670392 196.374799 
L 186.764592 201.363948 
L 191.858793 199.161825 
L 196.952994 202.436671 
L 202.047194 196.932416 
L 207.141395 199.161825 
L 212.235596 199.439357 
L 217.329796 189.168324 
L 222.423997 199.161825 
L 227.518197 203.288182 
L 232.612398 201.363948 
L 237.706599 196.382916 
L 242.800799 196.932416 
L 247.895 189.348905 
L 252.989201 196.932416 
L 258.083401 202.436671 
L 263.177602 196.932416 
L 268.271803 203.288182 
L 273.366003 196.932416 
L 278.460204 193.08133 
L 283.554404 201.363948 
L 288.648605 196.374799 
L 293.742806 202.436671 
L 298.837006 196.382916 
L 303.931207 202.436671 
L 309.025408 196.355438 
L 314.119608 181.502778 
L 319.213809 193.08133 
L 324.308009 188.970042 
L 329.40221 181.502778 
L 334.496411 176.396685 
L 339.590611 202.436671 
L 344.684812 196.932416 
L 349.779013 196.932416 
L 354.873213 185.724956 
L 359.967414 202.436671 
L 365.061614 199.161825 
L 370.155815 199.439357 
L 375.250016 203.288182 
L 380.344216 201.751026 
L 385.438417 201.363948 
L 390.532618 196.932416 
L 395.626818 201.363948 
" style="fill:none;stroke:#808080;stroke-dasharray:1.85,0.8;stroke-dashoffset:0;stroke-width:0.5;"/>
   </g>
   <g id="line2d_13">
    <path clip-path="url(#p973364260c)" d="M 100.163182 161.990711 
L 105.257382 196.932416 
L 110.351583 196.932416 
L 115.445784 180.524063 
L 120.539984 170.692687 
L 125.634185 170.692687 
L 130.728386 196.932416 
L 135.822586 196.932416 
L 140.916787 180.524063 
L 146.010987 196.932416 
L 151.105188 177.985682 
L 156.199389 196.932416 
L 161.293589 152.17865 
L 166.38779 196.932416 
L 171.481991 138.788852 
L 176.576191 170.692687 
L 181.670392 150.499897 
L 186.764592 170.692687 
L 191.858793 161.990711 
L 196.952994 180.524063 
L 202.047194 196.932416 
L 207.141395 161.990711 
L 212.235596 158.339438 
L 217.329796 134.211303 
L 222.423997 161.990711 
L 227.518197 177.985682 
L 232.612398 170.692687 
L 237.706599 152.17865 
L 242.800799 196.932416 
L 247.895 135.717593 
L 252.989201 196.932416 
L 258.083401 180.524063 
L 263.177602 196.932416 
L 268.271803 177.985682 
L 273.366003 196.932416 
L 278.460204 144.576137 
L 283.554404 170.692687 
L 288.648605 150.499897 
L 293.742806 180.524063 
L 298.837006 152.17865 
L 303.931207 180.524063 
L 309.025408 153.892999 
L 314.119608 121.755521 
L 319.213809 144.576137 
L 324.308009 132.722716 
L 329.40221 121.755521 
L 334.496411 110.896905 
L 339.590611 180.524063 
L 344.684812 196.932416 
L 349.779013 196.932416 
L 354.873213 130.124312 
L 359.967414 180.524063 
L 365.061614 161.990711 
L 370.155815 158.339438 
L 375.250016 177.985682 
L 380.344216 168.618738 
L 385.438417 170.692687 
L 390.532618 196.932416 
L 395.626818 170.692687 
" style="fill:none;stroke:#808080;stroke-dasharray:1.85,0.8;stroke-dashoffset:0;stroke-width:0.5;"/>
   </g>
   <g id="line2d_14">
    <path clip-path="url(#p973364260c)" d="M 100.163182 191.480367 
L 105.257382 196.932416 
L 110.351583 196.932416 
L 115.445784 190.636932 
L 120.539984 196.932416 
L 125.634185 196.932416 
L 130.728386 196.932416 
L 135.822586 196.932416 
L 140.916787 190.636932 
L 146.010987 191.480367 
L 151.105188 196.932416 
L 156.199389 196.932416 
L 161.293589 191.480367 
L 166.38779 190.636932 
L 171.481991 186.028317 
L 176.576191 185.184882 
L 181.670392 185.184882 
L 186.764592 186.028317 
L 191.858793 179.732833 
L 196.952994 167.985299 
L 202.047194 196.932416 
L 207.141395 196.932416 
L 212.235596 191.480367 
L 217.329796 191.480367 
L 222.423997 196.932416 
L 227.518197 196.932416 
L 232.612398 196.932416 
L 237.706599 191.480367 
L 242.800799 196.932416 
L 247.895 191.480367 
L 252.989201 196.932416 
L 258.083401 190.636932 
L 263.177602 196.932416 
L 268.271803 196.932416 
L 273.366003 190.636932 
L 278.460204 186.028317 
L 283.554404 196.932416 
L 288.648605 191.480367 
L 293.742806 191.480367 
L 298.837006 196.932416 
L 303.931207 190.636932 
L 309.025408 180.576268 
L 314.119608 191.480367 
L 319.213809 196.932416 
L 324.308009 191.480367 
L 329.40221 191.480367 
L 334.496411 191.480367 
L 339.590611 190.636932 
L 344.684812 196.932416 
L 349.779013 196.932416 
L 354.873213 163.376684 
L 359.967414 179.732833 
L 365.061614 172.593913 
L 370.155815 186.028317 
L 375.250016 186.028317 
L 380.344216 185.184882 
L 385.438417 191.480367 
L 390.532618 190.636932 
L 395.626818 196.932416 
" style="fill:none;stroke:#ff7f0e;stroke-linecap:round;stroke-opacity:0.8;stroke-width:0.7;"/>
    <defs>
     <path d="M 0 -2.5 
L -2.5 2.5 
L 2.5 2.5 
z
" id="ma2dd0c0ede" style="stroke:#000000;stroke-linejoin:miter;stroke-opacity:0.8;"/>
    </defs>
    <g clip-path="url(#p973364260c)">
     <use style="fill:#ff7f0e;fill-opacity:0.8;stroke:#000000;stroke-linejoin:miter;stroke-opacity:0.8;" x="100.163182" xlink:href="#ma2dd0c0ede" y="191.480367"/>
     <use style="fill:#ff7f0e;fill-opacity:0.8;stroke:#000000;stroke-linejoin:miter;stroke-opacity:0.8;" x="105.257382" xlink:href="#ma2dd0c0ede" y="196.932416"/>
     <use style="fill:#ff7f0e;fill-opacity:0.8;stroke:#000000;stroke-linejoin:miter;stroke-opacity:0.8;" x="110.351583" xlink:href="#ma2dd0c0ede" y="196.932416"/>
     <use style="fill:#ff7f0e;fill-opacity:0.8;stroke:#000000;stroke-linejoin:miter;stroke-opacity:0.8;" x="115.445784" xlink:href="#ma2dd0c0ede" y="190.636932"/>
     <use style="fill:#ff7f0e;fill-opacity:0.8;stroke:#000000;stroke-linejoin:miter;stroke-opacity:0.8;" x="120.539984" xlink:href="#ma2dd0c0ede" y="196.932416"/>
     <use style="fill:#ff7f0e;fill-opacity:0.8;stroke:#000000;stroke-linejoin:miter;stroke-opacity:0.8;" x="125.634185" xlink:href="#ma2dd0c0ede" y="196.932416"/>
     <use style="fill:#ff7f0e;fill-opacity:0.8;stroke:#000000;stroke-linejoin:miter;stroke-opacity:0.8;" x="130.728386" xlink:href="#ma2dd0c0ede" y="196.932416"/>
     <use style="fill:#ff7f0e;fill-opacity:0.8;stroke:#000000;stroke-linejoin:miter;stroke-opacity:0.8;" x="135.822586" xlink:href="#ma2dd0c0ede" y="196.932416"/>
     <use style="fill:#ff7f0e;fill-opacity:0.8;stroke:#000000;stroke-linejoin:miter;stroke-opacity:0.8;" x="140.916787" xlink:href="#ma2dd0c0ede" y="190.636932"/>
     <use style="fill:#ff7f0e;fill-opacity:0.8;stroke:#000000;stroke-linejoin:miter;stroke-opacity:0.8;" x="146.010987" xlink:href="#ma2dd0c0ede" y="191.480367"/>
     <use style="fill:#ff7f0e;fill-opacity:0.8;stroke:#000000;stroke-linejoin:miter;stroke-opacity:0.8;" x="151.105188" xlink:href="#ma2dd0c0ede" y="196.932416"/>
     <use style="fill:#ff7f0e;fill-opacity:0.8;stroke:#000000;stroke-linejoin:miter;stroke-opacity:0.8;" x="156.199389" xlink:href="#ma2dd0c0ede" y="196.932416"/>
     <use style="fill:#ff7f0e;fill-opacity:0.8;stroke:#000000;stroke-linejoin:miter;stroke-opacity:0.8;" x="161.293589" xlink:href="#ma2dd0c0ede" y="191.480367"/>
     <use style="fill:#ff7f0e;fill-opacity:0.8;stroke:#000000;stroke-linejoin:miter;stroke-opacity:0.8;" x="166.38779" xlink:href="#ma2dd0c0ede" y="190.636932"/>
     <use style="fill:#ff7f0e;fill-opacity:0.8;stroke:#000000;stroke-linejoin:miter;stroke-opacity:0.8;" x="171.481991" xlink:href="#ma2dd0c0ede" y="186.028317"/>
     <use style="fill:#ff7f0e;fill-opacity:0.8;stroke:#000000;stroke-linejoin:miter;stroke-opacity:0.8;" x="176.576191" xlink:href="#ma2dd0c0ede" y="185.184882"/>
     <use style="fill:#ff7f0e;fill-opacity:0.8;stroke:#000000;stroke-linejoin:miter;stroke-opacity:0.8;" x="181.670392" xlink:href="#ma2dd0c0ede" y="185.184882"/>
     <use style="fill:#ff7f0e;fill-opacity:0.8;stroke:#000000;stroke-linejoin:miter;stroke-opacity:0.8;" x="186.764592" xlink:href="#ma2dd0c0ede" y="186.028317"/>
     <use style="fill:#ff7f0e;fill-opacity:0.8;stroke:#000000;stroke-linejoin:miter;stroke-opacity:0.8;" x="191.858793" xlink:href="#ma2dd0c0ede" y="179.732833"/>
     <use style="fill:#ff7f0e;fill-opacity:0.8;stroke:#000000;stroke-linejoin:miter;stroke-opacity:0.8;" x="196.952994" xlink:href="#ma2dd0c0ede" y="167.985299"/>
     <use style="fill:#ff7f0e;fill-opacity:0.8;stroke:#000000;stroke-linejoin:miter;stroke-opacity:0.8;" x="202.047194" xlink:href="#ma2dd0c0ede" y="196.932416"/>
     <use style="fill:#ff7f0e;fill-opacity:0.8;stroke:#000000;stroke-linejoin:miter;stroke-opacity:0.8;" x="207.141395" xlink:href="#ma2dd0c0ede" y="196.932416"/>
     <use style="fill:#ff7f0e;fill-opacity:0.8;stroke:#000000;stroke-linejoin:miter;stroke-opacity:0.8;" x="212.235596" xlink:href="#ma2dd0c0ede" y="191.480367"/>
     <use style="fill:#ff7f0e;fill-opacity:0.8;stroke:#000000;stroke-linejoin:miter;stroke-opacity:0.8;" x="217.329796" xlink:href="#ma2dd0c0ede" y="191.480367"/>
     <use style="fill:#ff7f0e;fill-opacity:0.8;stroke:#000000;stroke-linejoin:miter;stroke-opacity:0.8;" x="222.423997" xlink:href="#ma2dd0c0ede" y="196.932416"/>
     <use style="fill:#ff7f0e;fill-opacity:0.8;stroke:#000000;stroke-linejoin:miter;stroke-opacity:0.8;" x="227.518197" xlink:href="#ma2dd0c0ede" y="196.932416"/>
     <use style="fill:#ff7f0e;fill-opacity:0.8;stroke:#000000;stroke-linejoin:miter;stroke-opacity:0.8;" x="232.612398" xlink:href="#ma2dd0c0ede" y="196.932416"/>
     <use style="fill:#ff7f0e;fill-opacity:0.8;stroke:#000000;stroke-linejoin:miter;stroke-opacity:0.8;" x="237.706599" xlink:href="#ma2dd0c0ede" y="191.480367"/>
     <use style="fill:#ff7f0e;fill-opacity:0.8;stroke:#000000;stroke-linejoin:miter;stroke-opacity:0.8;" x="242.800799" xlink:href="#ma2dd0c0ede" y="196.932416"/>
     <use style="fill:#ff7f0e;fill-opacity:0.8;stroke:#000000;stroke-linejoin:miter;stroke-opacity:0.8;" x="247.895" xlink:href="#ma2dd0c0ede" y="191.480367"/>
     <use style="fill:#ff7f0e;fill-opacity:0.8;stroke:#000000;stroke-linejoin:miter;stroke-opacity:0.8;" x="252.989201" xlink:href="#ma2dd0c0ede" y="196.932416"/>
     <use style="fill:#ff7f0e;fill-opacity:0.8;stroke:#000000;stroke-linejoin:miter;stroke-opacity:0.8;" x="258.083401" xlink:href="#ma2dd0c0ede" y="190.636932"/>
     <use style="fill:#ff7f0e;fill-opacity:0.8;stroke:#000000;stroke-linejoin:miter;stroke-opacity:0.8;" x="263.177602" xlink:href="#ma2dd0c0ede" y="196.932416"/>
     <use style="fill:#ff7f0e;fill-opacity:0.8;stroke:#000000;stroke-linejoin:miter;stroke-opacity:0.8;" x="268.271803" xlink:href="#ma2dd0c0ede" y="196.932416"/>
     <use style="fill:#ff7f0e;fill-opacity:0.8;stroke:#000000;stroke-linejoin:miter;stroke-opacity:0.8;" x="273.366003" xlink:href="#ma2dd0c0ede" y="190.636932"/>
     <use style="fill:#ff7f0e;fill-opacity:0.8;stroke:#000000;stroke-linejoin:miter;stroke-opacity:0.8;" x="278.460204" xlink:href="#ma2dd0c0ede" y="186.028317"/>
     <use style="fill:#ff7f0e;fill-opacity:0.8;stroke:#000000;stroke-linejoin:miter;stroke-opacity:0.8;" x="283.554404" xlink:href="#ma2dd0c0ede" y="196.932416"/>
     <use style="fill:#ff7f0e;fill-opacity:0.8;stroke:#000000;stroke-linejoin:miter;stroke-opacity:0.8;" x="288.648605" xlink:href="#ma2dd0c0ede" y="191.480367"/>
     <use style="fill:#ff7f0e;fill-opacity:0.8;stroke:#000000;stroke-linejoin:miter;stroke-opacity:0.8;" x="293.742806" xlink:href="#ma2dd0c0ede" y="191.480367"/>
     <use style="fill:#ff7f0e;fill-opacity:0.8;stroke:#000000;stroke-linejoin:miter;stroke-opacity:0.8;" x="298.837006" xlink:href="#ma2dd0c0ede" y="196.932416"/>
     <use style="fill:#ff7f0e;fill-opacity:0.8;stroke:#000000;stroke-linejoin:miter;stroke-opacity:0.8;" x="303.931207" xlink:href="#ma2dd0c0ede" y="190.636932"/>
     <use style="fill:#ff7f0e;fill-opacity:0.8;stroke:#000000;stroke-linejoin:miter;stroke-opacity:0.8;" x="309.025408" xlink:href="#ma2dd0c0ede" y="180.576268"/>
     <use style="fill:#ff7f0e;fill-opacity:0.8;stroke:#000000;stroke-linejoin:miter;stroke-opacity:0.8;" x="314.119608" xlink:href="#ma2dd0c0ede" y="191.480367"/>
     <use style="fill:#ff7f0e;fill-opacity:0.8;stroke:#000000;stroke-linejoin:miter;stroke-opacity:0.8;" x="319.213809" xlink:href="#ma2dd0c0ede" y="196.932416"/>
     <use style="fill:#ff7f0e;fill-opacity:0.8;stroke:#000000;stroke-linejoin:miter;stroke-opacity:0.8;" x="324.308009" xlink:href="#ma2dd0c0ede" y="191.480367"/>
     <use style="fill:#ff7f0e;fill-opacity:0.8;stroke:#000000;stroke-linejoin:miter;stroke-opacity:0.8;" x="329.40221" xlink:href="#ma2dd0c0ede" y="191.480367"/>
     <use style="fill:#ff7f0e;fill-opacity:0.8;stroke:#000000;stroke-linejoin:miter;stroke-opacity:0.8;" x="334.496411" xlink:href="#ma2dd0c0ede" y="191.480367"/>
     <use style="fill:#ff7f0e;fill-opacity:0.8;stroke:#000000;stroke-linejoin:miter;stroke-opacity:0.8;" x="339.590611" xlink:href="#ma2dd0c0ede" y="190.636932"/>
     <use style="fill:#ff7f0e;fill-opacity:0.8;stroke:#000000;stroke-linejoin:miter;stroke-opacity:0.8;" x="344.684812" xlink:href="#ma2dd0c0ede" y="196.932416"/>
     <use style="fill:#ff7f0e;fill-opacity:0.8;stroke:#000000;stroke-linejoin:miter;stroke-opacity:0.8;" x="349.779013" xlink:href="#ma2dd0c0ede" y="196.932416"/>
     <use style="fill:#ff7f0e;fill-opacity:0.8;stroke:#000000;stroke-linejoin:miter;stroke-opacity:0.8;" x="354.873213" xlink:href="#ma2dd0c0ede" y="163.376684"/>
     <use style="fill:#ff7f0e;fill-opacity:0.8;stroke:#000000;stroke-linejoin:miter;stroke-opacity:0.8;" x="359.967414" xlink:href="#ma2dd0c0ede" y="179.732833"/>
     <use style="fill:#ff7f0e;fill-opacity:0.8;stroke:#000000;stroke-linejoin:miter;stroke-opacity:0.8;" x="365.061614" xlink:href="#ma2dd0c0ede" y="172.593913"/>
     <use style="fill:#ff7f0e;fill-opacity:0.8;stroke:#000000;stroke-linejoin:miter;stroke-opacity:0.8;" x="370.155815" xlink:href="#ma2dd0c0ede" y="186.028317"/>
     <use style="fill:#ff7f0e;fill-opacity:0.8;stroke:#000000;stroke-linejoin:miter;stroke-opacity:0.8;" x="375.250016" xlink:href="#ma2dd0c0ede" y="186.028317"/>
     <use style="fill:#ff7f0e;fill-opacity:0.8;stroke:#000000;stroke-linejoin:miter;stroke-opacity:0.8;" x="380.344216" xlink:href="#ma2dd0c0ede" y="185.184882"/>
     <use style="fill:#ff7f0e;fill-opacity:0.8;stroke:#000000;stroke-linejoin:miter;stroke-opacity:0.8;" x="385.438417" xlink:href="#ma2dd0c0ede" y="191.480367"/>
     <use style="fill:#ff7f0e;fill-opacity:0.8;stroke:#000000;stroke-linejoin:miter;stroke-opacity:0.8;" x="390.532618" xlink:href="#ma2dd0c0ede" y="190.636932"/>
     <use style="fill:#ff7f0e;fill-opacity:0.8;stroke:#000000;stroke-linejoin:miter;stroke-opacity:0.8;" x="395.626818" xlink:href="#ma2dd0c0ede" y="196.932416"/>
    </g>
   </g>
   <g id="line2d_15">
    <path clip-path="url(#p973364260c)" d="M 100.163182 191.480367 
L 105.257382 196.932416 
L 110.351583 196.932416 
L 115.445784 190.636932 
L 120.539984 196.932416 
L 125.634185 196.932416 
L 130.728386 196.932416 
L 135.822586 196.932416 
L 140.916787 190.636932 
L 146.010987 191.480367 
L 151.105188 196.932416 
L 156.199389 196.932416 
L 161.293589 191.480367 
L 166.38779 190.636932 
L 171.481991 186.028317 
L 176.576191 185.184882 
L 181.670392 185.184882 
L 186.764592 186.028317 
L 191.858793 179.732833 
L 196.952994 167.985299 
L 202.047194 196.932416 
L 207.141395 196.932416 
L 212.235596 191.480367 
L 217.329796 191.480367 
L 222.423997 196.932416 
L 227.518197 196.932416 
L 232.612398 196.932416 
L 237.706599 191.480367 
L 242.800799 196.932416 
L 247.895 191.480367 
L 252.989201 196.932416 
L 258.083401 190.636932 
L 263.177602 196.932416 
L 268.271803 196.932416 
L 273.366003 190.636932 
L 278.460204 186.028317 
L 283.554404 196.932416 
L 288.648605 191.480367 
L 293.742806 191.480367 
L 298.837006 196.932416 
L 303.931207 190.636932 
L 309.025408 180.576268 
L 314.119608 191.480367 
L 319.213809 196.932416 
L 324.308009 191.480367 
L 329.40221 191.480367 
L 334.496411 191.480367 
L 339.590611 190.636932 
L 344.684812 196.932416 
L 349.779013 196.932416 
L 354.873213 163.376684 
L 359.967414 179.732833 
L 365.061614 172.593913 
L 370.155815 186.028317 
L 375.250016 186.028317 
L 380.344216 185.184882 
L 385.438417 191.480367 
L 390.532618 190.636932 
L 395.626818 196.932416 
" style="fill:none;stroke:#ff7f0e;stroke-linecap:round;stroke-width:0.7;"/>
   </g>
   <g id="line2d_16">
    <path clip-path="url(#p973364260c)" d="M 100.163182 202.436671 
L 105.257382 196.932416 
L 110.351583 196.932416 
L 115.445784 203.288182 
L 120.539984 196.932416 
L 125.634185 196.932416 
L 130.728386 196.932416 
L 135.822586 196.932416 
L 140.916787 203.288182 
L 146.010987 202.436671 
L 151.105188 196.932416 
L 156.199389 196.932416 
L 161.293589 202.436671 
L 166.38779 203.288182 
L 171.481991 201.363948 
L 176.576191 201.751026 
L 181.670392 201.751026 
L 186.764592 201.363948 
L 191.858793 199.326723 
L 196.952994 192.986355 
L 202.047194 196.932416 
L 207.141395 196.932416 
L 212.235596 202.436671 
L 217.329796 202.436671 
L 222.423997 196.932416 
L 227.518197 196.932416 
L 232.612398 196.932416 
L 237.706599 202.436671 
L 242.800799 196.932416 
L 247.895 202.436671 
L 252.989201 196.932416 
L 258.083401 203.288182 
L 263.177602 196.932416 
L 268.271803 196.932416 
L 273.366003 203.288182 
L 278.460204 201.363948 
L 283.554404 196.932416 
L 288.648605 202.436671 
L 293.742806 202.436671 
L 298.837006 196.932416 
L 303.931207 203.288182 
L 309.025408 199.161825 
L 314.119608 202.436671 
L 319.213809 196.932416 
L 324.308009 202.436671 
L 329.40221 202.436671 
L 334.496411 202.436671 
L 339.590611 203.288182 
L 344.684812 196.932416 
L 349.779013 196.932416 
L 354.873213 189.510436 
L 359.967414 199.326723 
L 365.061614 196.334843 
L 370.155815 201.363948 
L 375.250016 201.363948 
L 380.344216 201.751026 
L 385.438417 202.436671 
L 390.532618 203.288182 
L 395.626818 196.932416 
" style="fill:none;stroke:#ff7f0e;stroke-dasharray:1.85,0.8;stroke-dashoffset:0;stroke-width:0.5;"/>
   </g>
   <g id="line2d_17">
    <path clip-path="url(#p973364260c)" d="M 100.163182 180.524063 
L 105.257382 196.932416 
L 110.351583 196.932416 
L 115.445784 177.985682 
L 120.539984 196.932416 
L 125.634185 196.932416 
L 130.728386 196.932416 
L 135.822586 196.932416 
L 140.916787 177.985682 
L 146.010987 180.524063 
L 151.105188 196.932416 
L 156.199389 196.932416 
L 161.293589 180.524063 
L 166.38779 177.985682 
L 171.481991 170.692687 
L 176.576191 168.618738 
L 181.670392 168.618738 
L 186.764592 170.692687 
L 191.858793 160.138943 
L 196.952994 142.984242 
L 202.047194 196.932416 
L 207.141395 196.932416 
L 212.235596 180.524063 
L 217.329796 180.524063 
L 222.423997 196.932416 
L 227.518197 196.932416 
L 232.612398 196.932416 
L 237.706599 180.524063 
L 242.800799 196.932416 
L 247.895 180.524063 
L 252.989201 196.932416 
L 258.083401 177.985682 
L 263.177602 196.932416 
L 268.271803 196.932416 
L 273.366003 177.985682 
L 278.460204 170.692687 
L 283.554404 196.932416 
L 288.648605 180.524063 
L 293.742806 180.524063 
L 298.837006 196.932416 
L 303.931207 177.985682 
L 309.025408 161.990711 
L 314.119608 180.524063 
L 319.213809 196.932416 
L 324.308009 180.524063 
L 329.40221 180.524063 
L 334.496411 180.524063 
L 339.590611 177.985682 
L 344.684812 196.932416 
L 349.779013 196.932416 
L 354.873213 137.242932 
L 359.967414 160.138943 
L 365.061614 148.852984 
L 370.155815 170.692687 
L 375.250016 170.692687 
L 380.344216 168.618738 
L 385.438417 180.524063 
L 390.532618 177.985682 
L 395.626818 196.932416 
" style="fill:none;stroke:#ff7f0e;stroke-dasharray:1.85,0.8;stroke-dashoffset:0;stroke-width:0.5;"/>
   </g>
   <g id="line2d_18">
    <path clip-path="url(#p973364260c)" d="M 100.163182 180.576268 
L 105.257382 178.889398 
L 110.351583 191.480367 
L 115.445784 178.889398 
L 120.539984 191.480367 
L 125.634185 185.184882 
L 130.728386 185.184882 
L 135.822586 186.028317 
L 140.916787 169.672169 
L 146.010987 180.576268 
L 151.105188 180.576268 
L 156.199389 185.184882 
L 161.293589 152.472585 
L 166.38779 168.828734 
L 171.481991 136.116436 
L 176.576191 125.603776 
L 181.670392 179.732833 
L 186.764592 146.1771 
L 191.858793 161.689814 
L 196.952994 120.995162 
L 202.047194 196.932416 
L 207.141395 179.732833 
L 212.235596 168.828734 
L 217.329796 154.550894 
L 222.423997 164.220119 
L 227.518197 190.636932 
L 232.612398 178.045963 
L 237.706599 128.134081 
L 242.800799 172.593913 
L 247.895 121.838597 
L 252.989201 186.028317 
L 258.083401 180.576268 
L 263.177602 179.732833 
L 268.271803 163.376684 
L 273.366003 191.480367 
L 278.460204 144.49023 
L 283.554404 168.828734 
L 288.648605 148.25541 
L 293.742806 111.777933 
L 298.837006 152.472585 
L 303.931207 178.889398 
L 309.025408 157.081199 
L 314.119608 114.699677 
L 319.213809 127.290646 
L 324.308009 145.333665 
L 329.40221 149.94228 
L 334.496411 156.237764 
L 339.590611 89.126299 
L 344.684812 151.62915 
L 349.779013 185.184882 
L 354.873213 69.848406 
L 359.967414 174.280783 
L 365.061614 139.881616 
L 370.155815 130.664386 
L 375.250016 161.689814 
L 380.344216 174.280783 
L 385.438417 157.924634 
L 390.532618 163.376684 
L 395.626818 164.220119 
" style="fill:none;stroke:#1f77b4;stroke-linecap:round;stroke-opacity:0.8;stroke-width:0.7;"/>
    <defs>
     <path d="M 0 2.5 
C 0.663008 2.5 1.29895 2.236584 1.767767 1.767767 
C 2.236584 1.29895 2.5 0.663008 2.5 0 
C 2.5 -0.663008 2.236584 -1.29895 1.767767 -1.767767 
C 1.29895 -2.236584 0.663008 -2.5 0 -2.5 
C -0.663008 -2.5 -1.29895 -2.236584 -1.767767 -1.767767 
C -2.236584 -1.29895 -2.5 -0.663008 -2.5 0 
C -2.5 0.663008 -2.236584 1.29895 -1.767767 1.767767 
C -1.29895 2.236584 -0.663008 2.5 0 2.5 
z
" id="m1903f3e037" style="stroke:#000000;stroke-opacity:0.8;"/>
    </defs>
    <g clip-path="url(#p973364260c)">
     <use style="fill:#1f77b4;fill-opacity:0.8;stroke:#000000;stroke-opacity:0.8;" x="100.163182" xlink:href="#m1903f3e037" y="180.576268"/>
     <use style="fill:#1f77b4;fill-opacity:0.8;stroke:#000000;stroke-opacity:0.8;" x="105.257382" xlink:href="#m1903f3e037" y="178.889398"/>
     <use style="fill:#1f77b4;fill-opacity:0.8;stroke:#000000;stroke-opacity:0.8;" x="110.351583" xlink:href="#m1903f3e037" y="191.480367"/>
     <use style="fill:#1f77b4;fill-opacity:0.8;stroke:#000000;stroke-opacity:0.8;" x="115.445784" xlink:href="#m1903f3e037" y="178.889398"/>
     <use style="fill:#1f77b4;fill-opacity:0.8;stroke:#000000;stroke-opacity:0.8;" x="120.539984" xlink:href="#m1903f3e037" y="191.480367"/>
     <use style="fill:#1f77b4;fill-opacity:0.8;stroke:#000000;stroke-opacity:0.8;" x="125.634185" xlink:href="#m1903f3e037" y="185.184882"/>
     <use style="fill:#1f77b4;fill-opacity:0.8;stroke:#000000;stroke-opacity:0.8;" x="130.728386" xlink:href="#m1903f3e037" y="185.184882"/>
     <use style="fill:#1f77b4;fill-opacity:0.8;stroke:#000000;stroke-opacity:0.8;" x="135.822586" xlink:href="#m1903f3e037" y="186.028317"/>
     <use style="fill:#1f77b4;fill-opacity:0.8;stroke:#000000;stroke-opacity:0.8;" x="140.916787" xlink:href="#m1903f3e037" y="169.672169"/>
     <use style="fill:#1f77b4;fill-opacity:0.8;stroke:#000000;stroke-opacity:0.8;" x="146.010987" xlink:href="#m1903f3e037" y="180.576268"/>
     <use style="fill:#1f77b4;fill-opacity:0.8;stroke:#000000;stroke-opacity:0.8;" x="151.105188" xlink:href="#m1903f3e037" y="180.576268"/>
     <use style="fill:#1f77b4;fill-opacity:0.8;stroke:#000000;stroke-opacity:0.8;" x="156.199389" xlink:href="#m1903f3e037" y="185.184882"/>
     <use style="fill:#1f77b4;fill-opacity:0.8;stroke:#000000;stroke-opacity:0.8;" x="161.293589" xlink:href="#m1903f3e037" y="152.472585"/>
     <use style="fill:#1f77b4;fill-opacity:0.8;stroke:#000000;stroke-opacity:0.8;" x="166.38779" xlink:href="#m1903f3e037" y="168.828734"/>
     <use style="fill:#1f77b4;fill-opacity:0.8;stroke:#000000;stroke-opacity:0.8;" x="171.481991" xlink:href="#m1903f3e037" y="136.116436"/>
     <use style="fill:#1f77b4;fill-opacity:0.8;stroke:#000000;stroke-opacity:0.8;" x="176.576191" xlink:href="#m1903f3e037" y="125.603776"/>
     <use style="fill:#1f77b4;fill-opacity:0.8;stroke:#000000;stroke-opacity:0.8;" x="181.670392" xlink:href="#m1903f3e037" y="179.732833"/>
     <use style="fill:#1f77b4;fill-opacity:0.8;stroke:#000000;stroke-opacity:0.8;" x="186.764592" xlink:href="#m1903f3e037" y="146.1771"/>
     <use style="fill:#1f77b4;fill-opacity:0.8;stroke:#000000;stroke-opacity:0.8;" x="191.858793" xlink:href="#m1903f3e037" y="161.689814"/>
     <use style="fill:#1f77b4;fill-opacity:0.8;stroke:#000000;stroke-opacity:0.8;" x="196.952994" xlink:href="#m1903f3e037" y="120.995162"/>
     <use style="fill:#1f77b4;fill-opacity:0.8;stroke:#000000;stroke-opacity:0.8;" x="202.047194" xlink:href="#m1903f3e037" y="196.932416"/>
     <use style="fill:#1f77b4;fill-opacity:0.8;stroke:#000000;stroke-opacity:0.8;" x="207.141395" xlink:href="#m1903f3e037" y="179.732833"/>
     <use style="fill:#1f77b4;fill-opacity:0.8;stroke:#000000;stroke-opacity:0.8;" x="212.235596" xlink:href="#m1903f3e037" y="168.828734"/>
     <use style="fill:#1f77b4;fill-opacity:0.8;stroke:#000000;stroke-opacity:0.8;" x="217.329796" xlink:href="#m1903f3e037" y="154.550894"/>
     <use style="fill:#1f77b4;fill-opacity:0.8;stroke:#000000;stroke-opacity:0.8;" x="222.423997" xlink:href="#m1903f3e037" y="164.220119"/>
     <use style="fill:#1f77b4;fill-opacity:0.8;stroke:#000000;stroke-opacity:0.8;" x="227.518197" xlink:href="#m1903f3e037" y="190.636932"/>
     <use style="fill:#1f77b4;fill-opacity:0.8;stroke:#000000;stroke-opacity:0.8;" x="232.612398" xlink:href="#m1903f3e037" y="178.045963"/>
     <use style="fill:#1f77b4;fill-opacity:0.8;stroke:#000000;stroke-opacity:0.8;" x="237.706599" xlink:href="#m1903f3e037" y="128.134081"/>
     <use style="fill:#1f77b4;fill-opacity:0.8;stroke:#000000;stroke-opacity:0.8;" x="242.800799" xlink:href="#m1903f3e037" y="172.593913"/>
     <use style="fill:#1f77b4;fill-opacity:0.8;stroke:#000000;stroke-opacity:0.8;" x="247.895" xlink:href="#m1903f3e037" y="121.838597"/>
     <use style="fill:#1f77b4;fill-opacity:0.8;stroke:#000000;stroke-opacity:0.8;" x="252.989201" xlink:href="#m1903f3e037" y="186.028317"/>
     <use style="fill:#1f77b4;fill-opacity:0.8;stroke:#000000;stroke-opacity:0.8;" x="258.083401" xlink:href="#m1903f3e037" y="180.576268"/>
     <use style="fill:#1f77b4;fill-opacity:0.8;stroke:#000000;stroke-opacity:0.8;" x="263.177602" xlink:href="#m1903f3e037" y="179.732833"/>
     <use style="fill:#1f77b4;fill-opacity:0.8;stroke:#000000;stroke-opacity:0.8;" x="268.271803" xlink:href="#m1903f3e037" y="163.376684"/>
     <use style="fill:#1f77b4;fill-opacity:0.8;stroke:#000000;stroke-opacity:0.8;" x="273.366003" xlink:href="#m1903f3e037" y="191.480367"/>
     <use style="fill:#1f77b4;fill-opacity:0.8;stroke:#000000;stroke-opacity:0.8;" x="278.460204" xlink:href="#m1903f3e037" y="144.49023"/>
     <use style="fill:#1f77b4;fill-opacity:0.8;stroke:#000000;stroke-opacity:0.8;" x="283.554404" xlink:href="#m1903f3e037" y="168.828734"/>
     <use style="fill:#1f77b4;fill-opacity:0.8;stroke:#000000;stroke-opacity:0.8;" x="288.648605" xlink:href="#m1903f3e037" y="148.25541"/>
     <use style="fill:#1f77b4;fill-opacity:0.8;stroke:#000000;stroke-opacity:0.8;" x="293.742806" xlink:href="#m1903f3e037" y="111.777933"/>
     <use style="fill:#1f77b4;fill-opacity:0.8;stroke:#000000;stroke-opacity:0.8;" x="298.837006" xlink:href="#m1903f3e037" y="152.472585"/>
     <use style="fill:#1f77b4;fill-opacity:0.8;stroke:#000000;stroke-opacity:0.8;" x="303.931207" xlink:href="#m1903f3e037" y="178.889398"/>
     <use style="fill:#1f77b4;fill-opacity:0.8;stroke:#000000;stroke-opacity:0.8;" x="309.025408" xlink:href="#m1903f3e037" y="157.081199"/>
     <use style="fill:#1f77b4;fill-opacity:0.8;stroke:#000000;stroke-opacity:0.8;" x="314.119608" xlink:href="#m1903f3e037" y="114.699677"/>
     <use style="fill:#1f77b4;fill-opacity:0.8;stroke:#000000;stroke-opacity:0.8;" x="319.213809" xlink:href="#m1903f3e037" y="127.290646"/>
     <use style="fill:#1f77b4;fill-opacity:0.8;stroke:#000000;stroke-opacity:0.8;" x="324.308009" xlink:href="#m1903f3e037" y="145.333665"/>
     <use style="fill:#1f77b4;fill-opacity:0.8;stroke:#000000;stroke-opacity:0.8;" x="329.40221" xlink:href="#m1903f3e037" y="149.94228"/>
     <use style="fill:#1f77b4;fill-opacity:0.8;stroke:#000000;stroke-opacity:0.8;" x="334.496411" xlink:href="#m1903f3e037" y="156.237764"/>
     <use style="fill:#1f77b4;fill-opacity:0.8;stroke:#000000;stroke-opacity:0.8;" x="339.590611" xlink:href="#m1903f3e037" y="89.126299"/>
     <use style="fill:#1f77b4;fill-opacity:0.8;stroke:#000000;stroke-opacity:0.8;" x="344.684812" xlink:href="#m1903f3e037" y="151.62915"/>
     <use style="fill:#1f77b4;fill-opacity:0.8;stroke:#000000;stroke-opacity:0.8;" x="349.779013" xlink:href="#m1903f3e037" y="185.184882"/>
     <use style="fill:#1f77b4;fill-opacity:0.8;stroke:#000000;stroke-opacity:0.8;" x="354.873213" xlink:href="#m1903f3e037" y="69.848406"/>
     <use style="fill:#1f77b4;fill-opacity:0.8;stroke:#000000;stroke-opacity:0.8;" x="359.967414" xlink:href="#m1903f3e037" y="174.280783"/>
     <use style="fill:#1f77b4;fill-opacity:0.8;stroke:#000000;stroke-opacity:0.8;" x="365.061614" xlink:href="#m1903f3e037" y="139.881616"/>
     <use style="fill:#1f77b4;fill-opacity:0.8;stroke:#000000;stroke-opacity:0.8;" x="370.155815" xlink:href="#m1903f3e037" y="130.664386"/>
     <use style="fill:#1f77b4;fill-opacity:0.8;stroke:#000000;stroke-opacity:0.8;" x="375.250016" xlink:href="#m1903f3e037" y="161.689814"/>
     <use style="fill:#1f77b4;fill-opacity:0.8;stroke:#000000;stroke-opacity:0.8;" x="380.344216" xlink:href="#m1903f3e037" y="174.280783"/>
     <use style="fill:#1f77b4;fill-opacity:0.8;stroke:#000000;stroke-opacity:0.8;" x="385.438417" xlink:href="#m1903f3e037" y="157.924634"/>
     <use style="fill:#1f77b4;fill-opacity:0.8;stroke:#000000;stroke-opacity:0.8;" x="390.532618" xlink:href="#m1903f3e037" y="163.376684"/>
     <use style="fill:#1f77b4;fill-opacity:0.8;stroke:#000000;stroke-opacity:0.8;" x="395.626818" xlink:href="#m1903f3e037" y="164.220119"/>
    </g>
   </g>
   <g id="line2d_19">
    <path clip-path="url(#p973364260c)" d="M 100.163182 180.576268 
L 105.257382 178.889398 
L 110.351583 191.480367 
L 115.445784 178.889398 
L 120.539984 191.480367 
L 125.634185 185.184882 
L 130.728386 185.184882 
L 135.822586 186.028317 
L 140.916787 169.672169 
L 146.010987 180.576268 
L 151.105188 180.576268 
L 156.199389 185.184882 
L 161.293589 152.472585 
L 166.38779 168.828734 
L 171.481991 136.116436 
L 176.576191 125.603776 
L 181.670392 179.732833 
L 186.764592 146.1771 
L 191.858793 161.689814 
L 196.952994 120.995162 
L 202.047194 196.932416 
L 207.141395 179.732833 
L 212.235596 168.828734 
L 217.329796 154.550894 
L 222.423997 164.220119 
L 227.518197 190.636932 
L 232.612398 178.045963 
L 237.706599 128.134081 
L 242.800799 172.593913 
L 247.895 121.838597 
L 252.989201 186.028317 
L 258.083401 180.576268 
L 263.177602 179.732833 
L 268.271803 163.376684 
L 273.366003 191.480367 
L 278.460204 144.49023 
L 283.554404 168.828734 
L 288.648605 148.25541 
L 293.742806 111.777933 
L 298.837006 152.472585 
L 303.931207 178.889398 
L 309.025408 157.081199 
L 314.119608 114.699677 
L 319.213809 127.290646 
L 324.308009 145.333665 
L 329.40221 149.94228 
L 334.496411 156.237764 
L 339.590611 89.126299 
L 344.684812 151.62915 
L 349.779013 185.184882 
L 354.873213 69.848406 
L 359.967414 174.280783 
L 365.061614 139.881616 
L 370.155815 130.664386 
L 375.250016 161.689814 
L 380.344216 174.280783 
L 385.438417 157.924634 
L 390.532618 163.376684 
L 395.626818 164.220119 
" style="fill:none;stroke:#1f77b4;stroke-linecap:round;stroke-width:0.7;"/>
   </g>
   <g id="line2d_20">
    <path clip-path="url(#p973364260c)" d="M 100.163182 199.161825 
L 105.257382 199.439357 
L 110.351583 202.436671 
L 115.445784 199.439357 
L 120.539984 202.436671 
L 125.634185 201.751026 
L 130.728386 201.751026 
L 135.822586 201.363948 
L 140.916787 193.149962 
L 146.010987 199.161825 
L 151.105188 199.161825 
L 156.199389 201.751026 
L 161.293589 181.761545 
L 166.38779 193.08133 
L 171.481991 169.0315 
L 176.576191 162.160319 
L 181.670392 199.326723 
L 186.764592 177.350188 
L 191.858793 189.168324 
L 196.952994 157.901881 
L 202.047194 196.932416 
L 207.141395 199.326723 
L 212.235596 193.08133 
L 217.329796 184.775852 
L 222.423997 189.651386 
L 227.518197 203.288182 
L 232.612398 199.506715 
L 237.706599 163.391878 
L 242.800799 196.334843 
L 247.895 158.33208 
L 252.989201 201.363948 
L 258.083401 199.161825 
L 263.177602 199.326723 
L 268.271803 189.510436 
L 273.366003 202.436671 
L 278.460204 176.72491 
L 283.554404 193.08133 
L 288.648605 180.343148 
L 293.742806 149.235286 
L 298.837006 181.761545 
L 303.931207 199.439357 
L 309.025408 185.510169 
L 314.119608 152.691255 
L 319.213809 162.988251 
L 324.308009 177.042917 
L 329.40221 180.946519 
L 334.496411 185.27976 
L 339.590611 128.795108 
L 344.684812 181.502778 
L 349.779013 201.751026 
L 354.873213 109.444994 
L 359.967414 196.382916 
L 365.061614 172.731985 
L 370.155815 164.558166 
L 375.250016 189.168324 
L 380.344216 196.382916 
L 385.438417 185.724956 
L 390.532618 189.510436 
L 395.626818 189.651386 
" style="fill:none;stroke:#1f77b4;stroke-dasharray:1.85,0.8;stroke-dashoffset:0;stroke-width:0.5;"/>
   </g>
   <g id="line2d_21">
    <path clip-path="url(#p973364260c)" d="M 100.163182 161.990711 
L 105.257382 158.339438 
L 110.351583 180.524063 
L 115.445784 158.339438 
L 120.539984 180.524063 
L 125.634185 168.618738 
L 130.728386 168.618738 
L 135.822586 170.692687 
L 140.916787 146.194375 
L 146.010987 161.990711 
L 151.105188 161.990711 
L 156.199389 168.618738 
L 161.293589 123.183624 
L 166.38779 144.576137 
L 171.481991 103.201372 
L 176.576191 89.047234 
L 181.670392 160.138943 
L 186.764592 115.004013 
L 191.858793 134.211303 
L 196.952994 84.088443 
L 202.047194 196.932416 
L 207.141395 160.138943 
L 212.235596 144.576137 
L 217.329796 124.325936 
L 222.423997 138.788852 
L 227.518197 177.985682 
L 232.612398 156.58521 
L 237.706599 92.876285 
L 242.800799 148.852984 
L 247.895 85.345113 
L 252.989201 170.692687 
L 258.083401 161.990711 
L 263.177602 160.138943 
L 268.271803 137.242932 
L 273.366003 180.524063 
L 278.460204 112.25555 
L 283.554404 144.576137 
L 288.648605 116.167672 
L 293.742806 74.32058 
L 298.837006 123.183624 
L 303.931207 158.339438 
L 309.025408 128.652229 
L 314.119608 76.7081 
L 319.213809 91.593041 
L 324.308009 113.624414 
L 329.40221 118.938041 
L 334.496411 127.195769 
L 339.590611 49.45749 
L 344.684812 121.755521 
L 349.779013 168.618738 
L 354.873213 30.251818 
L 359.967414 152.17865 
L 365.061614 107.031246 
L 370.155815 96.770607 
L 375.250016 134.211303 
L 380.344216 152.17865 
L 385.438417 130.124312 
L 390.532618 137.242932 
L 395.626818 138.788852 
" style="fill:none;stroke:#1f77b4;stroke-dasharray:1.85,0.8;stroke-dashoffset:0;stroke-width:0.5;"/>
   </g>
   <g id="patch_3">
    <path d="M 85.39 211.94 
L 85.39 21.6 
" style="fill:none;stroke:#cccccc;stroke-linecap:square;stroke-linejoin:miter;stroke-width:0.8;"/>
   </g>
   <g id="patch_4">
    <path d="M 85.39 211.94 
L 410.4 211.94 
" style="fill:none;stroke:#cccccc;stroke-linecap:square;stroke-linejoin:miter;stroke-width:0.8;"/>
   </g>
   <g id="legend_1">
    <g id="patch_5">
     <path d="M 99.39 123.146875 
L 272.330625 123.146875 
Q 276.330625 123.146875 276.330625 119.146875 
L 276.330625 35.6 
Q 276.330625 31.6 272.330625 31.6 
L 99.39 31.6 
Q 95.39 31.6 95.39 35.6 
L 95.39 119.146875 
Q 95.39 123.146875 99.39 123.146875 
z
" style="fill:#ffffff;opacity:0.8;stroke:#cccccc;stroke-linejoin:miter;"/>
    </g>
    <g id="line2d_22">
     <path d="M 103.39 46.946875 
L 143.39 46.946875 
" style="fill:none;stroke:#808080;stroke-linecap:round;stroke-opacity:0.8;stroke-width:0.7;"/>
    </g>
    <g id="line2d_23">
     <g>
      <use style="fill:#808080;fill-opacity:0.8;stroke:#000000;stroke-linejoin:miter;stroke-opacity:0.8;" x="123.39" xlink:href="#mc96ac760aa" y="46.946875"/>
     </g>
    </g>
    <g id="text_12">
     <!-- Random -->
     <g style="fill:#262626;" transform="translate(159.39 53.946875)scale(0.2 -0.2)">
      <defs>
       <path d="M 2622 2488 
Q 3059 2488 3314 2663 
Q 3569 2838 3569 3294 
Q 3569 3784 3213 3963 
Q 3022 4056 2703 4056 
L 1184 4056 
L 1184 2488 
L 2622 2488 
z
M 563 4591 
L 2688 4591 
Q 3213 4591 3553 4438 
Q 4200 4144 4200 3353 
Q 4200 2941 4029 2678 
Q 3859 2416 3553 2256 
Q 3822 2147 3958 1969 
Q 4094 1791 4109 1391 
L 4131 775 
Q 4141 513 4175 384 
Q 4231 166 4375 103 
L 4375 0 
L 3613 0 
Q 3581 59 3562 153 
Q 3544 247 3531 516 
L 3494 1281 
Q 3472 1731 3159 1884 
Q 2981 1969 2600 1969 
L 1184 1969 
L 1184 0 
L 563 0 
L 563 4591 
z
" id="Helvetica-52" transform="scale(0.015625)"/>
      </defs>
      <use xlink:href="#Helvetica-52"/>
      <use x="72.216797" xlink:href="#Helvetica-61"/>
      <use x="127.832031" xlink:href="#Helvetica-6e"/>
      <use x="183.447266" xlink:href="#Helvetica-64"/>
      <use x="239.0625" xlink:href="#Helvetica-6f"/>
      <use x="294.677734" xlink:href="#Helvetica-6d"/>
     </g>
    </g>
    <g id="line2d_24">
     <path d="M 103.39 75.4625 
L 143.39 75.4625 
" style="fill:none;stroke:#ff7f0e;stroke-linecap:round;stroke-opacity:0.8;stroke-width:0.7;"/>
    </g>
    <g id="line2d_25">
     <g>
      <use style="fill:#ff7f0e;fill-opacity:0.8;stroke:#000000;stroke-linejoin:miter;stroke-opacity:0.8;" x="123.39" xlink:href="#ma2dd0c0ede" y="75.4625"/>
     </g>
    </g>
    <g id="text_13">
     <!-- Bottom 10% -->
     <g style="fill:#262626;" transform="translate(159.39 82.4625)scale(0.2 -0.2)">
      <defs>
       <path d="M 2213 2650 
Q 2606 2650 2825 2759 
Q 3169 2931 3169 3378 
Q 3169 3828 2803 3984 
Q 2597 4072 2191 4072 
L 1081 4072 
L 1081 2650 
L 2213 2650 
z
M 2422 531 
Q 2994 531 3238 863 
Q 3391 1072 3391 1369 
Q 3391 1869 2944 2050 
Q 2706 2147 2316 2147 
L 1081 2147 
L 1081 531 
L 2422 531 
z
M 472 4591 
L 2444 4591 
Q 3250 4591 3591 4109 
Q 3791 3825 3791 3453 
Q 3791 3019 3544 2741 
Q 3416 2594 3175 2472 
Q 3528 2338 3703 2169 
Q 4013 1869 4013 1341 
Q 4013 897 3734 538 
Q 3319 0 2413 0 
L 472 0 
L 472 4591 
z
" id="Helvetica-42" transform="scale(0.015625)"/>
       <path d="M 4363 2175 
Q 4813 2175 5131 1856 
Q 5450 1538 5450 1088 
Q 5450 638 5131 319 
Q 4813 0 4363 0 
Q 3909 0 3590 319 
Q 3272 638 3272 1088 
Q 3272 1538 3590 1856 
Q 3909 2175 4363 2175 
z
M 3909 4456 
L 4256 4456 
L 1753 -119 
L 1406 -119 
L 3909 4456 
z
M 1294 2606 
Q 1563 2606 1752 2795 
Q 1941 2984 1941 3250 
Q 1941 3516 1752 3705 
Q 1563 3894 1294 3894 
Q 1028 3894 839 3706 
Q 650 3519 650 3250 
Q 650 2984 839 2795 
Q 1028 2606 1294 2606 
z
M 1294 4341 
Q 1747 4341 2065 4020 
Q 2384 3700 2384 3250 
Q 2384 2800 2065 2481 
Q 1747 2163 1294 2163 
Q 844 2163 525 2481 
Q 206 2800 206 3250 
Q 206 3700 525 4020 
Q 844 4341 1294 4341 
z
M 4363 444 
Q 4628 444 4817 633 
Q 5006 822 5006 1088 
Q 5006 1353 4817 1542 
Q 4628 1731 4363 1731 
Q 4094 1731 3905 1542 
Q 3716 1353 3716 1088 
Q 3716 822 3905 633 
Q 4094 444 4363 444 
z
" id="Helvetica-25" transform="scale(0.015625)"/>
      </defs>
      <use xlink:href="#Helvetica-42"/>
      <use x="66.699219" xlink:href="#Helvetica-6f"/>
      <use x="122.314453" xlink:href="#Helvetica-74"/>
      <use x="150.097656" xlink:href="#Helvetica-74"/>
      <use x="177.880859" xlink:href="#Helvetica-6f"/>
      <use x="233.496094" xlink:href="#Helvetica-6d"/>
      <use x="316.796875" xlink:href="#Helvetica-20"/>
      <use x="344.580078" xlink:href="#Helvetica-31"/>
      <use x="400.195312" xlink:href="#Helvetica-30"/>
      <use x="455.810547" xlink:href="#Helvetica-25"/>
     </g>
    </g>
    <g id="line2d_26">
     <path d="M 103.39 103.978125 
L 143.39 103.978125 
" style="fill:none;stroke:#1f77b4;stroke-linecap:round;stroke-opacity:0.8;stroke-width:0.7;"/>
    </g>
    <g id="line2d_27">
     <g>
      <use style="fill:#1f77b4;fill-opacity:0.8;stroke:#000000;stroke-opacity:0.8;" x="123.39" xlink:href="#m1903f3e037" y="103.978125"/>
     </g>
    </g>
    <g id="text_14">
     <!-- Top 10% -->
     <g style="fill:#262626;" transform="translate(159.39 110.978125)scale(0.2 -0.2)">
      <defs>
       <path d="M 3828 4591 
L 3828 4044 
L 2281 4044 
L 2281 0 
L 1650 0 
L 1650 4044 
L 103 4044 
L 103 4591 
L 3828 4591 
z
" id="Helvetica-54" transform="scale(0.015625)"/>
       <path d="M 1825 378 
Q 2219 378 2480 708 
Q 2741 1038 2741 1694 
Q 2741 2094 2625 2381 
Q 2406 2934 1825 2934 
Q 1241 2934 1025 2350 
Q 909 2038 909 1556 
Q 909 1169 1025 897 
Q 1244 378 1825 378 
z
M 369 3331 
L 916 3331 
L 916 2888 
Q 1084 3116 1284 3241 
Q 1569 3428 1953 3428 
Q 2522 3428 2919 2992 
Q 3316 2556 3316 1747 
Q 3316 653 2744 184 
Q 2381 -113 1900 -113 
Q 1522 -113 1266 53 
Q 1116 147 931 375 
L 931 -1334 
L 369 -1334 
L 369 3331 
z
" id="Helvetica-70" transform="scale(0.015625)"/>
      </defs>
      <use xlink:href="#Helvetica-54"/>
      <use x="61.083984" xlink:href="#Helvetica-6f"/>
      <use x="116.699219" xlink:href="#Helvetica-70"/>
      <use x="172.314453" xlink:href="#Helvetica-20"/>
      <use x="200.097656" xlink:href="#Helvetica-31"/>
      <use x="255.712891" xlink:href="#Helvetica-30"/>
      <use x="311.328125" xlink:href="#Helvetica-25"/>
     </g>
    </g>
   </g>
  </g>
 </g>
 <defs>
  <clipPath id="p973364260c">
   <rect height="190.34" width="325.01" x="85.39" y="21.6"/>
  </clipPath>
 </defs>
</svg>
