<?xml version="1.0" encoding="utf-8" standalone="no"?>
<!DOCTYPE svg PUBLIC "-//W3C//DTD SVG 1.1//EN"
  "http://www.w3.org/Graphics/SVG/1.1/DTD/svg11.dtd">
<svg height="216pt" version="1.1" viewBox="0 0 306 216" width="306pt" xmlns="http://www.w3.org/2000/svg" xmlns:xlink="http://www.w3.org/1999/xlink">
 <metadata>
  <rdf:RDF xmlns:cc="http://creativecommons.org/ns#" xmlns:dc="http://purl.org/dc/elements/1.1/" xmlns:rdf="http://www.w3.org/1999/02/22-rdf-syntax-ns#">
   <cc:Work>
    <dc:type rdf:resource="http://purl.org/dc/dcmitype/StillImage"/>
    <dc:date>2022-03-08T00:56:15.411929</dc:date>
    <dc:format>image/svg+xml</dc:format>
    <dc:creator>
     <cc:Agent>
      <dc:title>Matplotlib v3.4.2, https://matplotlib.org/</dc:title>
     </cc:Agent>
    </dc:creator>
   </cc:Work>
  </rdf:RDF>
 </metadata>
 <defs>
  <style type="text/css">*{stroke-linecap:butt;stroke-linejoin:round;}</style>
 </defs>
 <g id="figure_1">
  <g id="patch_1">
   <path d="M 0 216 
L 306 216 
L 306 0 
L 0 0 
z
" style="fill:#ffffff;"/>
  </g>
  <g id="axes_1">
   <g id="patch_2">
    <path d="M 94.94 141.64 
L 284.4 141.64 
L 284.4 28.8 
L 94.94 28.8 
z
" style="fill:#ffffff;"/>
   </g>
   <g id="line2d_1">
    <path clip-path="url(#p530c1ebe1b)" d="M 94.94 141.64 
L 284.4 141.64 
" style="fill:none;stroke:#000000;stroke-linecap:round;stroke-width:0.5;"/>
   </g>
   <g id="patch_3">
    <path clip-path="url(#p530c1ebe1b)" d="M 105.558702 129.531631 
L 105.558702 130.974297 
L 101.148734 130.974297 
L 101.148734 141.64 
L 99.349968 141.64 
L 99.349968 130.974297 
L 94.94 130.974297 
L 94.94 129.531631 
L 105.558702 129.531631 
z
" style="fill:#ff0000;"/>
   </g>
   <g id="patch_4">
    <path clip-path="url(#p530c1ebe1b)" d="M 100.523163 103.495904 
Q 102.797109 103.495904 104.051431 105.972933 
Q 105.305752 108.444577 105.443962 111.589327 
L 103.863673 111.589327 
Q 103.595077 109.20384 102.791894 107.809165 
Q 101.988711 106.409106 100.53881 106.409106 
Q 98.770765 106.409106 97.683339 108.977677 
Q 96.595913 111.540863 96.595913 116.839551 
Q 96.595913 121.185121 97.576421 123.888313 
Q 98.559538 126.586121 100.507517 126.586121 
Q 102.299032 126.586121 103.237817 123.742922 
Q 103.733287 122.245935 103.978414 119.801216 
L 105.558702 119.801216 
Q 105.347475 123.705228 104.158348 126.349187 
Q 102.731916 129.531631 100.311937 129.531631 
Q 98.225748 129.531631 96.807139 126.919981 
Q 94.94 123.47368 94.94 116.268757 
Q 94.94 110.803139 96.342962 107.30299 
Q 97.858057 103.495904 100.523163 103.495904 
z
M 100.197196 103.495904 
L 100.197196 103.495904 
z
" style="fill:#0000ff;"/>
   </g>
   <g id="patch_5">
    <path clip-path="url(#p530c1ebe1b)" d="M 100.416455 77.151578 
Q 102.054581 77.151578 103.249628 78.514873 
Q 104.981434 80.472566 105.368811 85.380431 
L 103.811705 85.380431 
Q 103.525603 82.63748 102.63185 81.383247 
Q 101.738096 80.129015 100.375945 80.129015 
Q 98.763138 80.129015 97.659238 82.74109 
Q 96.555339 85.347711 96.555339 90.511876 
Q 96.555339 94.972579 97.464284 97.775515 
Q 98.37576 100.578452 100.431646 100.578452 
Q 102.006475 100.578452 103.039482 98.615306 
Q 104.072489 96.646707 104.095276 92.245988 
L 100.456965 92.245988 
L 100.456965 89.437599 
L 105.558702 89.437599 
L 105.558702 102.830616 
L 104.54595 102.830616 
L 104.166168 99.607785 
Q 103.368626 101.500039 102.750848 102.236219 
Q 101.712777 103.495904 100.115161 103.495904 
Q 98.05168 103.495904 96.562935 100.616624 
Q 94.94 97.001163 94.94 90.697284 
Q 94.94 84.409764 96.522425 80.696146 
Q 98.026361 77.151578 100.416455 77.151578 
z
M 100.155671 77.113405 
L 100.155671 77.113405 
z
" style="fill:#ffa600;"/>
   </g>
   <g id="patch_6">
    <path clip-path="url(#p530c1ebe1b)" d="M 102.067515 57.318695 
L 100.261014 35.977029 
L 98.340473 57.318695 
L 102.067515 57.318695 
z
M 99.418672 28.8 
L 101.240724 28.8 
L 105.558702 77.113405 
L 103.791078 77.113405 
L 102.58588 62.643588 
L 97.879128 62.643588 
L 96.590992 77.113405 
L 94.94 77.113405 
L 99.418672 28.8 
z
M 100.253239 28.8 
L 100.253239 28.8 
z
" style="fill:#008000;"/>
   </g>
   <g id="patch_7">
    <path clip-path="url(#p530c1ebe1b)" d="M 111.700744 122.906212 
Q 113.97469 122.906212 115.229012 124.688538 
Q 116.483333 126.466988 116.621543 128.729766 
L 115.041255 128.729766 
Q 114.772658 127.01331 113.969475 126.009783 
Q 113.166292 125.002382 111.716391 125.002382 
Q 109.948346 125.002382 108.86092 126.850575 
Q 107.773494 128.694895 107.773494 132.507521 
Q 107.773494 135.634339 108.754002 137.579398 
Q 109.737119 139.520583 111.685098 139.520583 
Q 113.476613 139.520583 114.415398 137.474784 
Q 114.910868 136.397639 115.155995 134.638562 
L 116.736283 134.638562 
Q 116.525057 137.447661 115.335929 139.3501 
Q 113.909497 141.64 111.489518 141.64 
Q 109.403329 141.64 107.98472 139.760809 
Q 106.117581 137.281053 106.117581 132.096811 
Q 106.117581 128.164072 107.520543 125.645569 
Q 109.035638 122.906212 111.700744 122.906212 
z
M 111.374777 122.906212 
L 111.374777 122.906212 
z
" style="fill:#0000ff;"/>
   </g>
   <g id="patch_8">
    <path clip-path="url(#p530c1ebe1b)" d="M 111.594036 101.369414 
Q 113.232162 101.369414 114.427209 102.483925 
Q 116.159015 104.084361 116.546392 108.096599 
L 114.989286 108.096599 
Q 114.703184 105.854204 113.809431 104.828854 
Q 112.915677 103.803505 111.553526 103.803505 
Q 109.940719 103.803505 108.83682 105.938907 
Q 107.73292 108.06985 107.73292 112.291616 
Q 107.73292 115.938294 108.641865 118.229727 
Q 109.553341 120.52116 111.609227 120.52116 
Q 113.184056 120.52116 114.217063 118.916265 
Q 115.25007 117.306912 115.272857 113.709273 
L 111.634546 113.709273 
L 111.634546 111.413382 
L 116.736283 111.413382 
L 116.736283 122.362331 
L 115.723531 122.362331 
L 115.34375 119.727629 
Q 114.546208 121.274569 113.928429 121.876405 
Q 112.890358 122.906212 111.292743 122.906212 
Q 109.229261 122.906212 107.740516 120.552366 
Q 106.117581 117.596685 106.117581 112.443189 
Q 106.117581 107.303067 107.700006 104.267141 
Q 109.203942 101.369414 111.594036 101.369414 
z
M 111.333253 101.338208 
L 111.333253 101.338208 
z
" style="fill:#ffa600;"/>
   </g>
   <g id="patch_9">
    <path clip-path="url(#p530c1ebe1b)" d="M 116.736283 65.708438 
L 116.736283 69.953588 
L 112.326315 69.953588 
L 112.326315 101.338208 
L 110.527549 101.338208 
L 110.527549 69.953588 
L 106.117581 69.953588 
L 106.117581 65.708438 
L 116.736283 65.708438 
z
" style="fill:#ff0000;"/>
   </g>
   <g id="patch_10">
    <path clip-path="url(#p530c1ebe1b)" d="M 113.245097 50.58651 
L 111.438595 34.282804 
L 109.518054 50.58651 
L 113.245097 50.58651 
z
M 110.596253 28.8 
L 112.418305 28.8 
L 116.736283 65.708438 
L 114.968659 65.708438 
L 113.763461 54.654397 
L 109.056709 54.654397 
L 107.768573 65.708438 
L 106.117581 65.708438 
L 110.596253 28.8 
z
M 111.43082 28.8 
L 111.43082 28.8 
z
" style="fill:#008000;"/>
   </g>
   <g id="patch_11">
    <path clip-path="url(#p530c1ebe1b)" d="M 127.913864 119.142788 
L 127.913864 121.823245 
L 123.503896 121.823245 
L 123.503896 141.64 
L 121.705131 141.64 
L 121.705131 121.823245 
L 117.295162 121.823245 
L 117.295162 119.142788 
L 127.913864 119.142788 
z
" style="fill:#ff0000;"/>
   </g>
   <g id="patch_12">
    <path clip-path="url(#p530c1ebe1b)" d="M 122.878326 93.623188 
Q 125.152272 93.623188 126.406593 96.051113 
Q 127.660914 98.47376 127.799124 101.556168 
L 126.218836 101.556168 
Q 125.950239 99.217971 125.147056 97.850944 
Q 124.343873 96.478639 122.893972 96.478639 
Q 121.125927 96.478639 120.038501 98.996291 
Q 118.951075 101.508666 118.951075 106.702313 
Q 118.951075 110.961738 119.931584 113.611342 
Q 120.9147 116.255669 122.862679 116.255669 
Q 124.654194 116.255669 125.592979 113.468834 
Q 126.088449 112.001523 126.333576 109.605267 
L 127.913864 109.605267 
Q 127.702638 113.431887 126.51351 116.023433 
Q 125.087078 119.142788 122.667099 119.142788 
Q 120.58091 119.142788 119.162301 116.582911 
Q 117.295162 113.204929 117.295162 106.142835 
Q 117.295162 100.785566 118.698124 97.354803 
Q 120.213219 93.623188 122.878326 93.623188 
z
M 122.552359 93.623188 
L 122.552359 93.623188 
z
" style="fill:#0000ff;"/>
   </g>
   <g id="patch_13">
    <path clip-path="url(#p530c1ebe1b)" d="M 122.771617 61.821739 
Q 124.409743 61.821739 125.60479 63.467436 
Q 127.336596 65.830657 127.723973 71.755167 
L 126.166868 71.755167 
Q 125.880765 68.444024 124.987012 66.929983 
Q 124.093258 65.415942 122.731107 65.415942 
Q 121.1183 65.415942 120.014401 68.569097 
Q 118.910501 71.71567 118.910501 77.94957 
Q 118.910501 83.334291 119.819446 86.717844 
Q 120.730923 90.101397 122.786809 90.101397 
Q 124.361638 90.101397 125.394644 87.731593 
Q 126.427651 85.355207 126.450438 80.042897 
L 122.812127 80.042897 
L 122.812127 76.652761 
L 127.913864 76.652761 
L 127.913864 92.820088 
L 126.901113 92.820088 
L 126.521331 88.929661 
Q 125.723789 91.213888 125.10601 92.102564 
Q 124.06794 93.623188 122.470324 93.623188 
Q 120.406842 93.623188 118.918097 90.147476 
Q 117.295162 85.783088 117.295162 78.173385 
Q 117.295162 70.58343 118.877587 66.100552 
Q 120.381523 61.821739 122.771617 61.821739 
z
M 122.510834 61.77566 
L 122.510834 61.77566 
z
" style="fill:#ffa600;"/>
   </g>
   <g id="patch_14">
    <path clip-path="url(#p530c1ebe1b)" d="M 124.422678 48.265049 
L 122.616176 33.698584 
L 120.695635 48.265049 
L 124.422678 48.265049 
z
M 121.773834 28.8 
L 123.595886 28.8 
L 127.913864 61.77566 
L 126.14624 61.77566 
L 124.941042 51.899482 
L 120.23429 51.899482 
L 118.946154 61.77566 
L 117.295162 61.77566 
L 121.773834 28.8 
z
M 122.608401 28.8 
L 122.608401 28.8 
z
" style="fill:#008000;"/>
   </g>
   <g id="patch_15">
    <path clip-path="url(#p530c1ebe1b)" d="M 134.055907 135.331784 
Q 136.329853 135.331784 137.584174 135.931945 
Q 138.838495 136.530802 138.976705 137.292746 
L 137.396417 137.292746 
Q 137.12782 136.714764 136.324637 136.376848 
Q 135.521454 136.037626 134.071553 136.037626 
Q 132.303508 136.037626 131.216082 136.659967 
Q 130.128656 137.281003 130.128656 138.564826 
Q 130.128656 139.617718 131.109165 140.272676 
Q 132.092281 140.92633 134.04026 140.92633 
Q 135.831775 140.92633 136.77056 140.237449 
Q 137.26603 139.874743 137.511157 139.28241 
L 139.091445 139.28241 
Q 138.880219 140.228317 137.691091 140.868923 
Q 136.264659 141.64 133.84468 141.64 
Q 131.758491 141.64 130.339883 141.007221 
Q 128.472743 140.172215 128.472743 138.426528 
Q 128.472743 137.10226 129.875705 136.254206 
Q 131.3908 135.331784 134.055907 135.331784 
z
M 133.72994 135.331784 
L 133.72994 135.331784 
z
" style="fill:#0000ff;"/>
   </g>
   <g id="patch_16">
    <path clip-path="url(#p530c1ebe1b)" d="M 139.091445 125.152618 
L 139.091445 126.365427 
L 134.681477 126.365427 
L 134.681477 135.331784 
L 132.882712 135.331784 
L 132.882712 126.365427 
L 128.472743 126.365427 
L 128.472743 125.152618 
L 139.091445 125.152618 
z
" style="fill:#ff0000;"/>
   </g>
   <g id="patch_17">
    <path clip-path="url(#p530c1ebe1b)" d="M 133.949198 84.352599 
Q 135.587324 84.352599 136.782371 86.463964 
Q 138.514177 89.495884 138.901554 97.096799 
L 137.344449 97.096799 
Q 137.058346 92.848732 136.164593 90.906276 
Q 135.270839 88.96382 133.908688 88.96382 
Q 132.295881 88.96382 131.191982 93.009196 
Q 130.088082 97.046126 130.088082 105.043977 
Q 130.088082 111.952364 130.997027 116.29333 
Q 131.908504 120.634297 133.96439 120.634297 
Q 135.539219 120.634297 136.572225 117.593931 
Q 137.605232 114.54512 137.628019 107.729633 
L 133.989709 107.729633 
L 133.989709 103.380221 
L 139.091445 103.380221 
L 139.091445 124.122272 
L 138.078694 124.122272 
L 137.698912 119.131005 
Q 136.90137 122.06158 136.283591 123.201717 
Q 135.245521 125.152618 133.647905 125.152618 
Q 131.584423 125.152618 130.095678 120.693415 
Q 128.472743 115.094075 128.472743 105.331123 
Q 128.472743 95.593507 130.055168 89.842148 
Q 131.559104 84.352599 133.949198 84.352599 
z
M 133.688415 84.293481 
L 133.688415 84.293481 
z
" style="fill:#ffa600;"/>
   </g>
   <g id="patch_18">
    <path clip-path="url(#p530c1ebe1b)" d="M 135.600259 61.556988 
L 133.793758 37.043641 
L 131.873216 61.556988 
L 135.600259 61.556988 
z
M 132.951415 28.8 
L 134.773467 28.8 
L 139.091445 84.293481 
L 137.323822 84.293481 
L 136.118624 67.673238 
L 131.411872 67.673238 
L 130.123735 84.293481 
L 128.472743 84.293481 
L 132.951415 28.8 
z
M 133.785982 28.8 
L 133.785982 28.8 
z
" style="fill:#008000;"/>
   </g>
   <g id="patch_19">
    <path clip-path="url(#p530c1ebe1b)" d="M 150.269027 133.390037 
L 150.269027 134.372988 
L 145.859058 134.372988 
L 145.859058 141.64 
L 144.060293 141.64 
L 144.060293 134.372988 
L 139.650324 134.372988 
L 139.650324 133.390037 
L 150.269027 133.390037 
z
" style="fill:#ff0000;"/>
   </g>
   <g id="patch_20">
    <path clip-path="url(#p530c1ebe1b)" d="M 146.77784 129.613409 
L 144.971339 125.541639 
L 143.050797 129.613409 
L 146.77784 129.613409 
z
M 144.128996 124.172336 
L 145.951048 124.172336 
L 150.269027 133.390037 
L 148.501403 133.390037 
L 147.296205 130.629344 
L 142.589453 130.629344 
L 141.301316 133.390037 
L 139.650324 133.390037 
L 144.128996 124.172336 
z
M 144.963563 124.172336 
L 144.963563 124.172336 
z
" style="fill:#008000;"/>
   </g>
   <g id="patch_21">
    <path clip-path="url(#p530c1ebe1b)" d="M 145.233488 109.148209 
Q 147.507434 109.148209 148.761755 110.577599 
Q 150.016076 112.003881 150.154286 113.818584 
L 148.573998 113.818584 
Q 148.305401 112.44202 147.502218 111.637211 
Q 146.699036 110.829295 145.249134 110.829295 
Q 143.481089 110.829295 142.393663 112.31151 
Q 141.306237 113.790618 141.306237 116.848268 
Q 141.306237 119.355915 142.286746 120.915814 
Q 143.269862 122.472605 145.217841 122.472605 
Q 147.009356 122.472605 147.948141 120.831915 
Q 148.443611 119.968066 148.688738 118.557321 
L 150.269027 118.557321 
Q 150.0578 120.810163 148.868672 122.335881 
Q 147.44224 124.172336 145.022261 124.172336 
Q 142.936072 124.172336 141.517464 122.665262 
Q 139.650324 120.676546 139.650324 116.518887 
Q 139.650324 113.364908 141.053287 111.345119 
Q 142.568381 109.148209 145.233488 109.148209 
z
M 144.907521 109.148209 
L 144.907521 109.148209 
z
" style="fill:#0000ff;"/>
   </g>
   <g id="patch_22">
    <path clip-path="url(#p530c1ebe1b)" d="M 145.12678 28.916254 
Q 146.764906 28.916254 147.959953 33.068187 
Q 149.691758 39.030363 150.079136 53.977322 
L 148.52203 53.977322 
Q 148.235927 45.623633 147.342174 41.803854 
Q 146.448421 37.984076 145.086269 37.984076 
Q 143.473462 37.984076 142.369563 45.93918 
Q 141.265664 53.877676 141.265664 69.605198 
Q 141.265664 83.190323 142.174608 91.726698 
Q 143.086085 100.263072 145.141971 100.263072 
Q 146.7168 100.263072 147.749807 94.284289 
Q 148.782813 88.288897 148.8056 74.886457 
L 145.16729 74.886457 
L 145.16729 66.333475 
L 150.269027 66.333475 
L 150.269027 107.122066 
L 149.256275 107.122066 
L 148.876493 97.306896 
Q 148.078951 103.069779 147.461172 105.311823 
Q 146.423102 109.148209 144.825486 109.148209 
Q 142.762004 109.148209 141.273259 100.379326 
Q 139.650324 89.3684 139.650324 70.169861 
Q 139.650324 51.021146 141.232749 39.71128 
Q 142.736685 28.916254 145.12678 28.916254 
z
M 144.865996 28.8 
L 144.865996 28.8 
z
" style="fill:#ffa600;"/>
   </g>
   <g id="patch_23">
    <path clip-path="url(#p530c1ebe1b)" d="M 156.411069 126.942933 
Q 158.685015 126.942933 159.939336 128.341206 
Q 161.193657 129.736439 161.331867 131.511638 
L 159.751579 131.511638 
Q 159.482982 130.165041 158.679799 129.377752 
Q 157.876617 128.587424 156.426715 128.587424 
Q 154.65867 128.587424 153.571244 130.037372 
Q 152.483818 131.484281 152.483818 134.47537 
Q 152.483818 136.928427 153.464327 138.454369 
Q 154.447444 139.977271 156.395423 139.977271 
Q 158.186937 139.977271 159.125722 138.372296 
Q 159.621192 137.527253 159.866319 136.147218 
L 161.446608 136.147218 
Q 161.235381 138.351018 160.046253 139.843523 
Q 158.619822 141.64 156.199842 141.64 
Q 154.113653 141.64 152.695045 140.165734 
Q 150.827906 138.22031 150.827906 134.153159 
Q 150.827906 131.067839 152.230868 129.092018 
Q 153.745962 126.942933 156.411069 126.942933 
z
M 156.085102 126.942933 
L 156.085102 126.942933 
z
" style="fill:#0000ff;"/>
   </g>
   <g id="patch_24">
    <path clip-path="url(#p530c1ebe1b)" d="M 161.446608 106.644636 
L 161.446608 109.0631 
L 157.036639 109.0631 
L 157.036639 126.942933 
L 155.237874 126.942933 
L 155.237874 109.0631 
L 150.827906 109.0631 
L 150.827906 106.644636 
L 161.446608 106.644636 
z
" style="fill:#ff0000;"/>
   </g>
   <g id="patch_25">
    <path clip-path="url(#p530c1ebe1b)" d="M 157.955421 90.735956 
L 156.14892 73.584015 
L 154.228378 90.735956 
L 157.955421 90.735956 
z
M 155.306577 67.815956 
L 157.128629 67.815956 
L 161.446608 106.644636 
L 159.678984 106.644636 
L 158.473786 95.015484 
L 153.767034 95.015484 
L 152.478897 106.644636 
L 150.827906 106.644636 
L 155.306577 67.815956 
z
M 156.141144 67.815956 
L 156.141144 67.815956 
z
" style="fill:#008000;"/>
   </g>
   <g id="patch_26">
    <path clip-path="url(#p530c1ebe1b)" d="M 156.304361 28.856451 
Q 157.942487 28.856451 159.137534 30.872571 
Q 160.869339 33.76772 161.256717 41.025752 
L 159.699611 41.025752 
Q 159.413509 36.969319 158.519755 35.114488 
Q 157.626002 33.259658 156.263851 33.259658 
Q 154.651043 33.259658 153.547144 37.122544 
Q 152.443245 40.977365 152.443245 48.614428 
Q 152.443245 55.211173 153.352189 59.356316 
Q 154.263666 63.501459 156.319552 63.501459 
Q 157.894381 63.501459 158.927388 60.598246 
Q 159.960394 57.686968 159.983181 51.178933 
L 156.344871 51.178933 
L 156.344871 47.025725 
L 161.446608 47.025725 
L 161.446608 66.832089 
L 160.433856 66.832089 
L 160.054074 62.065981 
Q 159.256532 64.864356 158.638753 65.953061 
Q 157.600683 67.815956 156.003067 67.815956 
Q 153.939585 67.815956 152.45084 63.55791 
Q 150.827906 58.21116 150.827906 48.88862 
Q 150.827906 39.590275 152.41033 34.098364 
Q 153.914267 28.856451 156.304361 28.856451 
z
M 156.043577 28.8 
L 156.043577 28.8 
z
" style="fill:#ffa600;"/>
   </g>
   <g id="patch_27">
    <path clip-path="url(#p530c1ebe1b)" d="M 167.58865 137.260987 
Q 169.862596 137.260987 171.116917 137.677605 
Q 172.371238 138.093317 172.509448 138.62224 
L 170.92916 138.62224 
Q 170.660563 138.221019 169.857381 137.986445 
Q 169.054198 137.750966 167.604296 137.750966 
Q 165.836251 137.750966 164.748825 138.18298 
Q 163.661399 138.614089 163.661399 139.505288 
Q 163.661399 140.23618 164.641908 140.690837 
Q 165.625025 141.144587 167.573004 141.144587 
Q 169.364518 141.144587 170.303304 140.666383 
Q 170.798773 140.414601 171.043901 140.003418 
L 172.624189 140.003418 
Q 172.412962 140.660043 171.223834 141.104737 
Q 169.797403 141.64 167.377423 141.64 
Q 165.291234 141.64 163.872626 141.20074 
Q 162.005487 140.621098 162.005487 139.409285 
Q 162.005487 138.490009 163.408449 137.90131 
Q 164.923544 137.260987 167.58865 137.260987 
z
M 167.262683 137.260987 
L 167.262683 137.260987 
z
" style="fill:#0000ff;"/>
   </g>
   <g id="patch_28">
    <path clip-path="url(#p530c1ebe1b)" d="M 172.624189 129.011024 
L 172.624189 129.993975 
L 168.21422 129.993975 
L 168.21422 137.260987 
L 166.415455 137.260987 
L 166.415455 129.993975 
L 162.005487 129.993975 
L 162.005487 129.011024 
L 172.624189 129.011024 
z
" style="fill:#ff0000;"/>
   </g>
   <g id="patch_29">
    <path clip-path="url(#p530c1ebe1b)" d="M 169.133002 118.949563 
L 167.326501 108.1018 
L 165.40596 118.949563 
L 169.133002 118.949563 
z
M 166.484158 104.453785 
L 168.30621 104.453785 
L 172.624189 129.011024 
L 170.856565 129.011024 
L 169.651367 121.656155 
L 164.944615 121.656155 
L 163.656478 129.011024 
L 162.005487 129.011024 
L 166.484158 104.453785 
z
M 167.318725 104.453785 
L 167.318725 104.453785 
z
" style="fill:#008000;"/>
   </g>
   <g id="patch_30">
    <path clip-path="url(#p530c1ebe1b)" d="M 167.481942 28.909462 
Q 169.120068 28.909462 170.315115 32.818814 
Q 172.04692 38.432644 172.434298 52.506312 
L 170.877192 52.506312 
Q 170.59109 44.640695 169.697336 41.044091 
Q 168.803583 37.447487 167.441432 37.447487 
Q 165.828625 37.447487 164.724725 44.937806 
Q 163.620826 52.412488 163.620826 67.221114 
Q 163.620826 80.012515 164.52977 88.050143 
Q 165.441247 96.087772 167.497133 96.087772 
Q 169.071962 96.087772 170.104969 90.458304 
Q 171.137976 84.8132 171.160763 72.19381 
L 167.522452 72.19381 
L 167.522452 64.140545 
L 172.624189 64.140545 
L 172.624189 102.546022 
L 171.611437 102.546022 
L 171.231655 93.304313 
Q 170.434113 98.730494 169.816335 100.841544 
Q 168.778264 104.453785 167.180648 104.453785 
Q 165.117166 104.453785 163.628421 96.197233 
Q 162.005487 85.829631 162.005487 67.752786 
Q 162.005487 49.722853 163.587911 39.073778 
Q 165.091848 28.909462 167.481942 28.909462 
z
M 167.221158 28.8 
L 167.221158 28.8 
z
" style="fill:#ffa600;"/>
   </g>
   <g id="patch_31">
    <path clip-path="url(#p530c1ebe1b)" d="M 178.766231 137.283389 
Q 181.040177 137.283389 182.294498 137.697875 
Q 183.548819 138.11146 183.68703 138.637677 
L 182.106741 138.637677 
Q 181.838145 138.238509 181.034962 138.005135 
Q 180.231779 137.77086 178.781878 137.77086 
Q 177.013832 137.77086 175.926406 138.200665 
Q 174.83898 138.629568 174.83898 139.516208 
Q 174.83898 140.243361 175.819489 140.695692 
Q 176.802606 141.147122 178.750585 141.147122 
Q 180.5421 141.147122 181.480885 140.671364 
Q 181.976355 140.42087 182.221482 140.01179 
L 183.80177 140.01179 
Q 183.590543 140.665056 182.401416 141.107475 
Q 180.974984 141.64 178.555005 141.64 
Q 176.468816 141.64 175.050207 141.202987 
Q 173.183068 140.626311 173.183068 139.420696 
Q 173.183068 138.506123 174.58603 137.920436 
Q 176.101125 137.283389 178.766231 137.283389 
z
M 178.440264 137.283389 
L 178.440264 137.283389 
z
" style="fill:#0000ff;"/>
   </g>
   <g id="patch_32">
    <path clip-path="url(#p530c1ebe1b)" d="M 183.80177 118.984187 
L 183.80177 121.164466 
L 179.391802 121.164466 
L 179.391802 137.283389 
L 177.593036 137.283389 
L 177.593036 121.164466 
L 173.183068 121.164466 
L 173.183068 118.984187 
L 183.80177 118.984187 
z
" style="fill:#ff0000;"/>
   </g>
   <g id="patch_33">
    <path clip-path="url(#p530c1ebe1b)" d="M 180.310583 109.771522 
L 178.504082 99.838888 
L 176.583541 109.771522 
L 180.310583 109.771522 
z
M 177.661739 96.498624 
L 179.483791 96.498624 
L 183.80177 118.984187 
L 182.034146 118.984187 
L 180.828948 112.249783 
L 176.122196 112.249783 
L 174.83406 118.984187 
L 173.183068 118.984187 
L 177.661739 96.498624 
z
M 178.496307 96.498624 
L 178.496307 96.498624 
z
" style="fill:#008000;"/>
   </g>
   <g id="patch_34">
    <path clip-path="url(#p530c1ebe1b)" d="M 178.659523 28.897952 
Q 180.297649 28.897952 181.492696 32.396227 
Q 183.224501 37.41975 183.611879 50.013541 
L 182.054773 50.013541 
Q 181.768671 42.975012 180.874917 39.756598 
Q 179.981164 36.538185 178.619013 36.538185 
Q 177.006206 36.538185 175.902306 43.24088 
Q 174.798407 49.929583 174.798407 63.18105 
Q 174.798407 74.627406 175.707352 81.819861 
Q 176.618828 89.012315 178.674714 89.012315 
Q 180.249543 89.012315 181.28255 83.974798 
Q 182.315557 78.923289 182.338344 67.630856 
L 178.700033 67.630856 
L 178.700033 60.424409 
L 183.80177 60.424409 
L 183.80177 94.791465 
L 182.789018 94.791465 
L 182.409236 86.521543 
Q 181.611694 91.377149 180.993916 93.266217 
Q 179.955845 96.498624 178.358229 96.498624 
Q 176.294748 96.498624 174.806003 89.110266 
Q 173.183068 79.83284 173.183068 63.656815 
Q 173.183068 47.522769 174.765492 37.993467 
Q 176.269429 28.897952 178.659523 28.897952 
z
M 178.398739 28.8 
L 178.398739 28.8 
z
" style="fill:#ffa600;"/>
   </g>
   <g id="patch_35">
    <path clip-path="url(#p530c1ebe1b)" d="M 189.943812 136.29325 
Q 192.217758 136.29325 193.472079 136.801937 
Q 194.726401 137.309519 194.864611 137.955331 
L 193.284322 137.955331 
Q 193.015726 137.465443 192.212543 137.17903 
Q 191.40936 136.891511 189.959459 136.891511 
Q 188.191414 136.891511 187.103988 137.418998 
Q 186.016561 137.945379 186.016561 139.033528 
Q 186.016561 139.925944 186.99707 140.481077 
Q 187.980187 141.035104 189.928166 141.035104 
Q 191.719681 141.035104 192.658466 140.451219 
Q 193.153936 140.143795 193.399063 139.641742 
L 194.979351 139.641742 
Q 194.768124 140.443478 193.578997 140.986447 
Q 192.152565 141.64 189.732586 141.64 
Q 187.646397 141.64 186.227788 141.103666 
Q 184.360649 140.395927 184.360649 138.916309 
Q 184.360649 137.793878 185.763611 137.075081 
Q 187.278706 136.29325 189.943812 136.29325 
z
M 189.617845 136.29325 
L 189.617845 136.29325 
z
" style="fill:#0000ff;"/>
   </g>
   <g id="patch_36">
    <path clip-path="url(#p530c1ebe1b)" d="M 194.979351 129.978762 
L 194.979351 130.731109 
L 190.569383 130.731109 
L 190.569383 136.29325 
L 188.770617 136.29325 
L 188.770617 130.731109 
L 184.360649 130.731109 
L 184.360649 129.978762 
L 194.979351 129.978762 
z
" style="fill:#ff0000;"/>
   </g>
   <g id="patch_37">
    <path clip-path="url(#p530c1ebe1b)" d="M 191.488164 115.558044 
L 189.681663 100.01035 
L 187.761122 115.558044 
L 191.488164 115.558044 
z
M 188.83932 94.781785 
L 190.661373 94.781785 
L 194.979351 129.978762 
L 193.211727 129.978762 
L 192.006529 119.437302 
L 187.299777 119.437302 
L 186.011641 129.978762 
L 184.360649 129.978762 
L 188.83932 94.781785 
z
M 189.673888 94.781785 
L 189.673888 94.781785 
z
" style="fill:#008000;"/>
   </g>
   <g id="patch_38">
    <path clip-path="url(#p530c1ebe1b)" d="M 189.837104 28.895468 
Q 191.47523 28.895468 192.670277 32.305027 
Q 194.402083 37.201153 194.78946 49.475566 
L 193.232354 49.475566 
Q 192.946252 42.615533 192.052498 39.478739 
Q 191.158745 36.341944 189.796594 36.341944 
Q 188.183787 36.341944 187.079887 42.874659 
Q 185.975988 49.393736 185.975988 62.309146 
Q 185.975988 73.465223 186.884933 80.475276 
Q 187.796409 87.485329 189.852295 87.485329 
Q 191.427124 87.485329 192.460131 82.575564 
Q 193.493138 77.652161 193.515925 66.646105 
L 189.877614 66.646105 
L 189.877614 59.622413 
L 194.979351 59.622413 
L 194.979351 93.117921 
L 193.966599 93.117921 
L 193.586817 85.057723 
Q 192.789275 89.790191 192.171497 91.631353 
Q 191.133426 94.781785 189.53581 94.781785 
Q 187.472329 94.781785 185.983584 87.580797 
Q 184.360649 78.538646 184.360649 62.772846 
Q 184.360649 47.04796 185.943074 37.760321 
Q 187.44701 28.895468 189.837104 28.895468 
z
M 189.57632 28.8 
L 189.57632 28.8 
z
" style="fill:#ffa600;"/>
   </g>
   <g id="patch_39">
    <path clip-path="url(#p530c1ebe1b)" d="M 206.156932 127.700994 
L 206.156932 129.361773 
L 201.746964 129.361773 
L 201.746964 141.64 
L 199.948198 141.64 
L 199.948198 129.361773 
L 195.53823 129.361773 
L 195.53823 127.700994 
L 206.156932 127.700994 
z
" style="fill:#ff0000;"/>
   </g>
   <g id="patch_40">
    <path clip-path="url(#p530c1ebe1b)" d="M 201.121393 112.692996 
Q 203.395339 112.692996 204.649661 114.120851 
Q 205.903982 115.545602 206.042192 117.358357 
L 204.461904 117.358357 
Q 204.193307 115.983271 203.390124 115.179326 
Q 202.586941 114.372278 201.13704 114.372278 
Q 199.368995 114.372278 198.281569 115.852901 
Q 197.194143 117.330421 197.194143 120.384789 
Q 197.194143 122.889743 198.174651 124.447968 
Q 199.157768 126.003088 201.105747 126.003088 
Q 202.897262 126.003088 203.836047 124.364159 
Q 204.331517 123.501238 204.576644 122.092007 
L 206.156932 122.092007 
Q 205.945706 124.342431 204.756578 125.866511 
Q 203.330146 127.700994 200.910167 127.700994 
Q 198.823978 127.700994 197.405369 126.195538 
Q 195.53823 124.208957 195.53823 120.055762 
Q 195.53823 116.905168 196.941192 114.887547 
Q 198.456287 112.692996 201.121393 112.692996 
z
M 200.795426 112.692996 
L 200.795426 112.692996 
z
" style="fill:#0000ff;"/>
   </g>
   <g id="patch_41">
    <path clip-path="url(#p530c1ebe1b)" d="M 202.665746 102.584543 
L 200.859244 91.686116 
L 198.938703 102.584543 
L 202.665746 102.584543 
z
M 200.016902 88.021063 
L 201.838954 88.021063 
L 206.156932 112.692996 
L 204.389308 112.692996 
L 203.18411 105.303776 
L 198.477358 105.303776 
L 197.189222 112.692996 
L 195.53823 112.692996 
L 200.016902 88.021063 
z
M 200.851469 88.021063 
L 200.851469 88.021063 
z
" style="fill:#008000;"/>
   </g>
   <g id="patch_42">
    <path clip-path="url(#p530c1ebe1b)" d="M 201.014685 28.885686 
Q 202.652811 28.885686 203.847858 31.945889 
Q 205.579664 36.340342 205.967041 47.357075 
L 204.409935 47.357075 
Q 204.123833 41.199946 203.23008 38.384558 
Q 202.336326 35.569171 200.974175 35.569171 
Q 199.361368 35.569171 198.257469 41.432521 
Q 197.153569 47.283631 197.153569 58.875682 
Q 197.153569 68.888669 198.062514 75.180448 
Q 198.97399 81.472227 201.029876 81.472227 
Q 202.604705 81.472227 203.637712 77.065533 
Q 204.670719 72.646599 204.693506 62.768262 
L 201.055195 62.768262 
L 201.055195 56.464242 
L 206.156932 56.464242 
L 206.156932 86.527683 
L 205.14418 86.527683 
L 204.764399 79.293362 
Q 203.966857 83.540925 203.349078 85.193435 
Q 202.311007 88.021063 200.713392 88.021063 
Q 198.64991 88.021063 197.161165 81.557913 
Q 195.53823 73.442252 195.53823 59.29187 
Q 195.53823 45.17821 197.120655 36.842215 
Q 198.624591 28.885686 201.014685 28.885686 
z
M 200.753902 28.8 
L 200.753902 28.8 
z
" style="fill:#ffa600;"/>
   </g>
   <g id="patch_43">
    <path clip-path="url(#p530c1ebe1b)" d="M 217.334513 126.739529 
L 217.334513 128.514863 
L 212.924545 128.514863 
L 212.924545 141.64 
L 211.12578 141.64 
L 211.12578 128.514863 
L 206.715811 128.514863 
L 206.715811 126.739529 
L 217.334513 126.739529 
z
" style="fill:#ff0000;"/>
   </g>
   <g id="patch_44">
    <path clip-path="url(#p530c1ebe1b)" d="M 212.298975 105.03174 
Q 214.572921 105.03174 215.827242 107.09701 
Q 217.081563 109.157791 217.219773 111.779787 
L 215.639485 111.779787 
Q 215.370888 109.790841 214.567705 108.628004 
Q 213.764522 107.460678 212.314621 107.460678 
Q 210.546576 107.460678 209.45915 109.602273 
Q 208.371724 111.739379 208.371724 116.157262 
Q 208.371724 119.780465 209.352233 122.034304 
Q 210.335349 124.283653 212.283328 124.283653 
Q 214.074843 124.283653 215.013628 121.913081 
Q 215.509098 120.66494 215.754225 118.626607 
L 217.334513 118.626607 
Q 217.123287 121.881653 215.934159 124.086105 
Q 214.507727 126.739529 212.087748 126.739529 
Q 210.001559 126.739529 208.58295 124.562015 
Q 206.715811 121.688595 206.715811 115.681352 
Q 206.715811 111.124288 208.118773 108.205971 
Q 209.633868 105.03174 212.298975 105.03174 
z
M 211.973008 105.03174 
L 211.973008 105.03174 
z
" style="fill:#0000ff;"/>
   </g>
   <g id="patch_45">
    <path clip-path="url(#p530c1ebe1b)" d="M 212.192266 72.27648 
Q 213.830392 72.27648 215.025439 73.971536 
Q 216.757245 76.405636 217.144622 82.507837 
L 215.587517 82.507837 
Q 215.301414 79.097385 214.407661 77.537933 
Q 213.513907 75.978482 212.151756 75.978482 
Q 210.538949 75.978482 209.43505 79.226209 
Q 208.33115 82.467156 208.33115 88.888028 
Q 208.33115 94.43425 209.240095 97.919285 
Q 210.151572 101.40432 212.207458 101.40432 
Q 213.782287 101.40432 214.815293 98.96344 
Q 215.8483 96.515779 215.871087 91.044139 
L 212.232776 91.044139 
L 212.232776 87.552324 
L 217.334513 87.552324 
L 217.334513 104.204553 
L 216.321762 104.204553 
L 215.94198 100.19744 
Q 215.144438 102.550178 214.526659 103.465508 
Q 213.488589 105.03174 211.890973 105.03174 
Q 209.827491 105.03174 208.338746 101.451782 
Q 206.715811 96.956494 206.715811 89.118555 
Q 206.715811 81.300957 208.298236 76.683625 
Q 209.802172 72.27648 212.192266 72.27648 
z
M 211.931483 72.229018 
L 211.931483 72.229018 
z
" style="fill:#ffa600;"/>
   </g>
   <g id="patch_46">
    <path clip-path="url(#p530c1ebe1b)" d="M 213.843327 54.435513 
L 212.036825 35.251446 
L 210.116284 54.435513 
L 213.843327 54.435513 
z
M 211.194483 28.8 
L 213.016535 28.8 
L 217.334513 72.229018 
L 215.566889 72.229018 
L 214.361691 59.22207 
L 209.654939 59.22207 
L 208.366803 72.229018 
L 206.715811 72.229018 
L 211.194483 28.8 
z
M 212.02905 28.8 
L 212.02905 28.8 
z
" style="fill:#008000;"/>
   </g>
   <g id="patch_47">
    <path clip-path="url(#p530c1ebe1b)" d="M 228.512094 135.325512 
L 228.512094 136.077859 
L 224.102126 136.077859 
L 224.102126 141.64 
L 222.303361 141.64 
L 222.303361 136.077859 
L 217.893392 136.077859 
L 217.893392 135.325512 
L 228.512094 135.325512 
z
" style="fill:#ff0000;"/>
   </g>
   <g id="patch_48">
    <path clip-path="url(#p530c1ebe1b)" d="M 223.476556 121.269123 
Q 225.750502 121.269123 227.004823 122.606442 
Q 228.259144 123.940854 228.397354 125.638668 
L 226.817066 125.638668 
Q 226.548469 124.350772 225.745286 123.597803 
Q 224.942103 122.841927 223.492202 122.841927 
Q 221.724157 122.841927 220.636731 124.228669 
Q 219.549305 125.612503 219.549305 128.473204 
Q 219.549305 130.819327 220.529814 132.27875 
Q 221.51293 133.735265 223.460909 133.735265 
Q 225.252424 133.735265 226.191209 132.200255 
Q 226.686679 131.392049 226.931806 130.072173 
L 228.512094 130.072173 
Q 228.300868 132.179904 227.11174 133.607347 
Q 225.685308 135.325512 223.265329 135.325512 
Q 221.17914 135.325512 219.760531 133.915512 
Q 217.893392 132.054894 217.893392 128.165039 
Q 217.893392 125.214215 219.296354 123.324525 
Q 220.811449 121.269123 223.476556 121.269123 
z
M 223.150589 121.269123 
L 223.150589 121.269123 
z
" style="fill:#0000ff;"/>
   </g>
   <g id="patch_49">
    <path clip-path="url(#p530c1ebe1b)" d="M 223.369847 75.547941 
Q 225.007973 75.547941 226.20302 77.913972 
Q 227.934826 81.311592 228.322203 89.829304 
L 226.765098 89.829304 
Q 226.478995 85.068849 225.585242 82.892101 
Q 224.691488 80.715352 223.329337 80.715352 
Q 221.71653 80.715352 220.612631 85.248668 
Q 219.508731 89.772519 219.508731 98.735044 
Q 219.508731 106.476697 220.417676 111.341257 
Q 221.329153 116.205817 223.385039 116.205817 
Q 224.959868 116.205817 225.992874 112.798732 
Q 227.025881 109.382183 227.048668 101.744636 
L 223.410357 101.744636 
L 223.410357 96.870612 
L 228.512094 96.870612 
L 228.512094 120.1145 
L 227.499343 120.1145 
L 227.119561 114.521203 
Q 226.322019 117.805254 225.70424 119.08291 
Q 224.66617 121.269123 223.068554 121.269123 
Q 221.005072 121.269123 219.516327 116.272065 
Q 217.893392 109.997351 217.893392 99.056824 
Q 217.893392 88.14469 219.475817 81.699621 
Q 220.979753 75.547941 223.369847 75.547941 
z
M 223.109064 75.481692 
L 223.109064 75.481692 
z
" style="fill:#ffa600;"/>
   </g>
   <g id="patch_50">
    <path clip-path="url(#p530c1ebe1b)" d="M 225.020908 56.355519 
L 223.214407 35.734636 
L 221.293865 56.355519 
L 225.020908 56.355519 
z
M 222.372064 28.8 
L 224.194116 28.8 
L 228.512094 75.481692 
L 226.744471 75.481692 
L 225.539273 61.500571 
L 220.832521 61.500571 
L 219.544384 75.481692 
L 217.893392 75.481692 
L 222.372064 28.8 
z
M 223.206631 28.8 
L 223.206631 28.8 
z
" style="fill:#008000;"/>
   </g>
   <g id="patch_51">
    <path clip-path="url(#p530c1ebe1b)" d="M 234.654137 135.347913 
Q 236.928083 135.347913 238.182404 135.94654 
Q 239.436725 136.543865 239.574935 137.303861 
L 237.994647 137.303861 
Q 237.72605 136.727357 236.922867 136.390304 
Q 236.119685 136.05195 234.669783 136.05195 
Q 232.901738 136.05195 231.814312 136.6727 
Q 230.726886 137.292149 230.726886 138.572689 
Q 230.726886 139.622888 231.707395 140.276172 
Q 232.690511 140.928155 234.63849 140.928155 
Q 236.430005 140.928155 237.36879 140.241036 
Q 237.86426 139.879257 238.109387 139.288438 
L 239.689676 139.288438 
Q 239.478449 140.231926 238.289321 140.870895 
Q 236.862889 141.64 234.44291 141.64 
Q 232.356721 141.64 230.938113 141.008839 
Q 229.070973 140.175967 229.070973 138.434745 
Q 229.070973 137.113862 230.473936 136.267976 
Q 231.98903 135.347913 234.654137 135.347913 
z
M 234.32817 135.347913 
L 234.32817 135.347913 
z
" style="fill:#0000ff;"/>
   </g>
   <g id="patch_52">
    <path clip-path="url(#p530c1ebe1b)" d="M 234.547429 116.783497 
Q 236.185554 116.783497 237.380602 117.74419 
Q 239.112407 119.123744 239.499785 122.582236 
L 237.942679 122.582236 
Q 237.656576 120.649323 236.762823 119.765486 
Q 235.86907 118.881649 234.506918 118.881649 
Q 232.894111 118.881649 231.790212 120.722335 
Q 230.686312 122.559179 230.686312 126.198281 
Q 230.686312 129.341666 231.595257 131.316849 
Q 232.506734 133.292032 234.56262 133.292032 
Q 236.137449 133.292032 237.170456 131.908635 
Q 238.203462 130.521396 238.226249 127.420281 
L 234.587939 127.420281 
L 234.587939 125.441255 
L 239.689676 125.441255 
L 239.689676 134.879095 
L 238.676924 134.879095 
L 238.297142 132.608019 
Q 237.4996 133.94146 236.881821 134.460234 
Q 235.843751 135.347913 234.246135 135.347913 
Q 232.182653 135.347913 230.693908 133.318931 
Q 229.070973 130.771176 229.070973 126.328935 
Q 229.070973 121.898223 230.653398 119.281297 
Q 232.157334 116.783497 234.547429 116.783497 
z
M 234.286645 116.756598 
L 234.286645 116.756598 
z
" style="fill:#ffa600;"/>
   </g>
   <g id="patch_53">
    <path clip-path="url(#p530c1ebe1b)" d="M 239.689676 79.754971 
L 239.689676 84.163572 
L 235.279707 84.163572 
L 235.279707 116.756598 
L 233.480942 116.756598 
L 233.480942 84.163572 
L 229.070973 84.163572 
L 229.070973 79.754971 
L 239.689676 79.754971 
z
" style="fill:#ff0000;"/>
   </g>
   <g id="patch_54">
    <path clip-path="url(#p530c1ebe1b)" d="M 236.198489 58.877972 
L 234.391988 36.369438 
L 232.471446 58.877972 
L 236.198489 58.877972 
z
M 233.549645 28.8 
L 235.371697 28.8 
L 239.689676 79.754971 
L 237.922052 79.754971 
L 236.716854 64.494007 
L 232.010102 64.494007 
L 230.721965 79.754971 
L 229.070973 79.754971 
L 233.549645 28.8 
z
M 234.384212 28.8 
L 234.384212 28.8 
z
" style="fill:#008000;"/>
   </g>
   <g id="patch_55">
    <path clip-path="url(#p530c1ebe1b)" d="M 245.72501 130.505645 
Q 247.363136 130.505645 248.558183 131.081838 
Q 250.289988 131.909252 250.677366 133.983547 
L 249.12026 133.983547 
Q 248.834158 132.824246 247.940404 132.294149 
Q 247.046651 131.764051 245.6845 131.764051 
Q 244.071692 131.764051 242.967793 132.868037 
Q 241.863894 133.969718 241.863894 136.152337 
Q 241.863894 138.037641 242.772838 139.222294 
Q 243.684315 140.406947 245.740201 140.406947 
Q 247.31503 140.406947 248.348037 139.577229 
Q 249.381043 138.745206 249.40383 136.885255 
L 245.76552 136.885255 
L 245.76552 135.698297 
L 250.867257 135.698297 
L 250.867257 141.358818 
L 249.854505 141.358818 
L 249.474723 139.996697 
Q 248.677181 140.796453 248.059402 141.107598 
Q 247.021332 141.64 245.423716 141.64 
Q 243.360234 141.64 241.871489 140.42308 
Q 240.248555 138.895016 240.248555 136.2307 
Q 240.248555 133.573297 241.830979 132.003747 
Q 243.334916 130.505645 245.72501 130.505645 
z
M 245.464226 130.489512 
L 245.464226 130.489512 
z
" style="fill:#ffa600;"/>
   </g>
   <g id="patch_56">
    <path clip-path="url(#p530c1ebe1b)" d="M 245.831718 115.494955 
Q 248.105664 115.494955 249.359985 116.921531 
Q 250.614306 118.345006 250.752516 120.156138 
L 249.172228 120.156138 
Q 248.903631 118.782283 248.100448 117.979058 
Q 247.297266 117.172733 245.847364 117.172733 
Q 244.079319 117.172733 242.991893 118.65203 
Q 241.904467 120.128227 241.904467 123.179859 
Q 241.904467 125.68257 242.884976 127.239399 
Q 243.868093 128.793127 245.816071 128.793127 
Q 247.607586 128.793127 248.546371 127.155665 
Q 249.041841 126.293517 249.286968 124.885548 
L 250.867257 124.885548 
Q 250.65603 127.133956 249.466902 128.656672 
Q 248.040471 130.489512 245.620491 130.489512 
Q 243.534302 130.489512 242.115694 128.985404 
Q 240.248555 127.000603 240.248555 122.851126 
Q 240.248555 119.703355 241.651517 117.687541 
Q 243.166611 115.494955 245.831718 115.494955 
z
M 245.505751 115.494955 
L 245.505751 115.494955 
z
" style="fill:#0000ff;"/>
   </g>
   <g id="patch_57">
    <path clip-path="url(#p530c1ebe1b)" d="M 247.37607 100.711517 
L 245.569569 84.772755 
L 243.649027 100.711517 
L 247.37607 100.711517 
z
M 244.727226 79.412678 
L 246.549278 79.412678 
L 250.867257 115.494955 
L 249.099633 115.494955 
L 247.894435 104.688348 
L 243.187683 104.688348 
L 241.899546 115.494955 
L 240.248555 115.494955 
L 244.727226 79.412678 
z
M 245.561793 79.412678 
L 245.561793 79.412678 
z
" style="fill:#008000;"/>
   </g>
   <g id="patch_58">
    <path clip-path="url(#p530c1ebe1b)" d="M 250.867257 28.8 
L 250.867257 34.830306 
L 246.457288 34.830306 
L 246.457288 79.412678 
L 244.658523 79.412678 
L 244.658523 34.830306 
L 240.248555 34.830306 
L 240.248555 28.8 
L 250.867257 28.8 
z
" style="fill:#ff0000;"/>
   </g>
   <g id="patch_59">
    <path clip-path="url(#p530c1ebe1b)" d="M 256.902591 134.375469 
Q 258.540717 134.375469 259.735764 134.751402 
Q 261.467569 135.291242 261.854947 136.644601 
L 260.297841 136.644601 
Q 260.011739 135.888224 259.117985 135.542365 
Q 258.224232 135.196507 256.862081 135.196507 
Q 255.249274 135.196507 254.145374 135.916795 
Q 253.041475 136.635579 253.041475 138.059613 
Q 253.041475 139.289666 253.950419 140.062585 
Q 254.861896 140.835503 256.917782 140.835503 
Q 258.492611 140.835503 259.525618 140.29416 
Q 260.558625 139.751312 260.581411 138.5378 
L 256.943101 138.5378 
L 256.943101 137.763378 
L 262.044838 137.763378 
L 262.044838 141.456545 
L 261.032086 141.456545 
L 260.652304 140.567839 
Q 259.854762 141.089634 259.236984 141.292638 
Q 258.198913 141.64 256.601297 141.64 
Q 254.537815 141.64 253.04907 140.846029 
Q 251.426136 139.849055 251.426136 138.11074 
Q 251.426136 136.376937 253.00856 135.352895 
Q 254.512497 134.375469 256.902591 134.375469 
z
M 256.641807 134.364943 
L 256.641807 134.364943 
z
" style="fill:#ffa600;"/>
   </g>
   <g id="patch_60">
    <path clip-path="url(#p530c1ebe1b)" d="M 257.009299 107.857892 
Q 259.283245 107.857892 260.537566 110.379763 
Q 261.791887 112.896151 261.930097 116.097829 
L 260.349809 116.097829 
Q 260.081212 113.669159 259.27803 112.249236 
Q 258.474847 110.823831 257.024945 110.823831 
Q 255.2569 110.823831 254.169474 113.438901 
Q 253.082048 116.048489 253.082048 121.443098 
Q 253.082048 125.867336 254.062557 128.619464 
Q 255.045674 131.36611 256.993653 131.36611 
Q 258.785167 131.36611 259.723952 128.471441 
Q 260.219422 126.947354 260.46455 124.458378 
L 262.044838 124.458378 
Q 261.833611 128.433065 260.644483 131.124888 
Q 259.218052 134.364943 256.798072 134.364943 
Q 254.711883 134.364943 253.293275 131.706014 
Q 251.426136 128.197325 251.426136 120.861972 
Q 251.426136 115.29741 252.829098 111.733897 
Q 254.344193 107.857892 257.009299 107.857892 
z
M 256.683332 107.857892 
L 256.683332 107.857892 
z
" style="fill:#0000ff;"/>
   </g>
   <g id="patch_61">
    <path clip-path="url(#p530c1ebe1b)" d="M 262.044838 71.248736 
L 262.044838 75.610576 
L 257.634869 75.610576 
L 257.634869 107.857892 
L 255.836104 107.857892 
L 255.836104 75.610576 
L 251.426136 75.610576 
L 251.426136 71.248736 
L 262.044838 71.248736 
z
" style="fill:#ff0000;"/>
   </g>
   <g id="patch_62">
    <path clip-path="url(#p530c1ebe1b)" d="M 258.553651 53.856867 
L 256.74715 35.105824 
L 254.826609 53.856867 
L 258.553651 53.856867 
z
M 255.904807 28.8 
L 257.726859 28.8 
L 262.044838 71.248736 
L 260.277214 71.248736 
L 259.072016 58.535381 
L 254.365264 58.535381 
L 253.077127 71.248736 
L 251.426136 71.248736 
L 255.904807 28.8 
z
M 256.739374 28.8 
L 256.739374 28.8 
z
" style="fill:#008000;"/>
   </g>
   <g id="patch_63">
    <path clip-path="url(#p530c1ebe1b)" d="M 268.080172 133.419869 
Q 269.718298 133.419869 270.913345 133.845253 
Q 272.64515 134.456105 273.032528 135.98749 
L 271.475422 135.98749 
Q 271.18932 135.131616 270.295566 134.740262 
Q 269.401813 134.348908 268.039662 134.348908 
Q 266.426855 134.348908 265.322955 135.163945 
Q 264.219056 135.977281 264.219056 137.588637 
Q 264.219056 138.980496 265.128001 139.855086 
Q 266.039477 140.729677 268.095363 140.729677 
Q 269.670192 140.729677 270.703199 140.117123 
Q 271.736206 139.502868 271.758993 138.129727 
L 268.120682 138.129727 
L 268.120682 137.253434 
L 273.222419 137.253434 
L 273.222419 141.432412 
L 272.209667 141.432412 
L 271.829885 140.426803 
Q 271.032343 141.017237 270.414565 141.246945 
Q 269.376494 141.64 267.778878 141.64 
Q 265.715397 141.64 264.226651 140.741588 
Q 262.603717 139.613468 262.603717 137.64649 
Q 262.603717 135.684616 264.186141 134.525868 
Q 265.690078 133.419869 268.080172 133.419869 
z
M 267.819388 133.407958 
L 267.819388 133.407958 
z
" style="fill:#ffa600;"/>
   </g>
   <g id="patch_64">
    <path clip-path="url(#p530c1ebe1b)" d="M 269.731232 127.656192 
L 267.924731 121.454925 
L 266.00419 127.656192 
L 269.731232 127.656192 
z
M 267.082388 119.36949 
L 268.90444 119.36949 
L 273.222419 133.407958 
L 271.454795 133.407958 
L 270.249597 129.20345 
L 265.542845 129.20345 
L 264.254709 133.407958 
L 262.603717 133.407958 
L 267.082388 119.36949 
z
M 267.916956 119.36949 
L 267.916956 119.36949 
z
" style="fill:#008000;"/>
   </g>
   <g id="patch_65">
    <path clip-path="url(#p530c1ebe1b)" d="M 273.222419 82.812305 
L 273.222419 87.167953 
L 268.812451 87.167953 
L 268.812451 119.36949 
L 267.013685 119.36949 
L 267.013685 87.167953 
L 262.603717 87.167953 
L 262.603717 82.812305 
L 273.222419 82.812305 
z
" style="fill:#ff0000;"/>
   </g>
   <g id="patch_66">
    <path clip-path="url(#p530c1ebe1b)" d="M 268.18688 28.8 
Q 270.460826 28.8 271.715147 33.938709 
Q 272.969468 39.066248 273.107678 45.590175 
L 271.52739 45.590175 
Q 271.258793 40.641374 270.455611 37.748057 
Q 269.652428 34.843569 268.202527 34.843569 
Q 266.434481 34.843569 265.347055 40.172187 
Q 264.259629 45.489635 264.259629 56.482004 
Q 264.259629 65.497088 265.240138 71.104984 
Q 266.223255 76.701709 268.171234 76.701709 
Q 269.962749 76.701709 270.901534 70.803364 
Q 271.397003 67.697796 271.642131 62.626113 
L 273.222419 62.626113 
Q 273.011192 70.725166 271.822065 76.21018 
Q 270.395633 82.812305 267.975654 82.812305 
Q 265.889465 82.812305 264.470856 77.394317 
Q 262.603717 70.244809 262.603717 55.297867 
Q 262.603717 43.959193 264.006679 36.697973 
Q 265.521774 28.8 268.18688 28.8 
z
M 267.860913 28.8 
L 267.860913 28.8 
z
" style="fill:#0000ff;"/>
   </g>
   <g id="patch_67">
    <path clip-path="url(#p530c1ebe1b)" d="M 280.908813 139.052862 
L 279.102312 136.263539 
L 277.181771 139.052862 
L 280.908813 139.052862 
z
M 278.259969 135.325512 
L 280.082022 135.325512 
L 284.4 141.64 
L 282.632376 141.64 
L 281.427178 139.748817 
L 276.720426 139.748817 
L 275.43229 141.64 
L 273.781298 141.64 
L 278.259969 135.325512 
z
M 279.094537 135.325512 
L 279.094537 135.325512 
z
" style="fill:#008000;"/>
   </g>
   <g id="patch_68">
    <path clip-path="url(#p530c1ebe1b)" d="M 279.257753 129.02016 
Q 280.895879 129.02016 282.090926 129.346457 
Q 283.822732 129.815018 284.210109 130.989685 
L 282.653003 130.989685 
Q 282.366901 130.333177 281.473147 130.032984 
Q 280.579394 129.732792 279.217243 129.732792 
Q 277.604436 129.732792 276.500536 130.357975 
Q 275.396637 130.981854 275.396637 132.217865 
Q 275.396637 133.285507 276.305582 133.956372 
Q 277.217058 134.627238 279.272944 134.627238 
Q 280.847773 134.627238 281.88078 134.157371 
Q 282.913787 133.686199 282.936574 132.632914 
L 279.298263 132.632914 
L 279.298263 131.960743 
L 284.4 131.960743 
L 284.4 135.166279 
L 283.387248 135.166279 
L 283.007466 134.394915 
Q 282.209924 134.847814 281.592146 135.024014 
Q 280.554075 135.325512 278.956459 135.325512 
Q 276.892978 135.325512 275.404233 134.636374 
Q 273.781298 133.771036 273.781298 132.262241 
Q 273.781298 130.757362 275.363723 129.868531 
Q 276.867659 129.02016 279.257753 129.02016 
z
M 278.996969 129.011024 
L 278.996969 129.011024 
z
" style="fill:#ffa600;"/>
   </g>
   <g id="patch_69">
    <path clip-path="url(#p530c1ebe1b)" d="M 279.364461 97.767435 
Q 281.638407 97.767435 282.892728 100.739938 
Q 284.14705 103.705979 284.28526 107.479765 
L 282.704971 107.479765 
Q 282.436375 104.617115 281.633192 102.943467 
Q 280.830009 101.263357 279.380108 101.263357 
Q 277.612063 101.263357 276.524636 104.345713 
Q 275.43721 107.421607 275.43721 113.780178 
Q 275.43721 118.994982 276.417719 122.238887 
Q 277.400836 125.47633 279.348815 125.47633 
Q 281.14033 125.47633 282.079115 122.064414 
Q 282.574585 120.267989 282.819712 117.334258 
L 284.4 117.334258 
Q 284.188773 122.01918 282.999646 125.192004 
Q 281.573214 129.011024 279.153235 129.011024 
Q 277.067046 129.011024 275.648437 125.876972 
Q 273.781298 121.741316 273.781298 113.09521 
Q 273.781298 106.536318 275.18426 102.336043 
Q 276.699355 97.767435 279.364461 97.767435 
z
M 279.038494 97.767435 
L 279.038494 97.767435 
z
" style="fill:#0000ff;"/>
   </g>
   <g id="patch_70">
    <path clip-path="url(#p530c1ebe1b)" d="M 284.4 28.8 
L 284.4 37.017205 
L 279.990032 37.017205 
L 279.990032 97.767435 
L 278.191266 97.767435 
L 278.191266 37.017205 
L 273.781298 37.017205 
L 273.781298 28.8 
L 284.4 28.8 
z
" style="fill:#ff0000;"/>
   </g>
   <g id="matplotlib.axis_1">
    <g id="xtick_1">
     <g id="line2d_2">
      <path clip-path="url(#p530c1ebe1b)" d="M 100.249351 141.64 
L 100.249351 28.8 
" style="fill:none;stroke:#cccccc;stroke-linecap:round;stroke-width:0.8;"/>
     </g>
     <g id="text_1">
      <!-- 0 -->
      <g style="fill:#262626;" transform="translate(94.688414 162.986875)scale(0.2 -0.2)">
       <defs>
        <path d="M 1731 4475 
Q 2600 4475 2988 3759 
Q 3288 3206 3288 2244 
Q 3288 1331 3016 734 
Q 2622 -122 1728 -122 
Q 922 -122 528 578 
Q 200 1163 200 2147 
Q 200 2909 397 3456 
Q 766 4475 1731 4475 
z
M 1725 391 
Q 2163 391 2422 778 
Q 2681 1166 2681 2222 
Q 2681 2984 2493 3476 
Q 2306 3969 1766 3969 
Q 1269 3969 1039 3501 
Q 809 3034 809 2125 
Q 809 1441 956 1025 
Q 1181 391 1725 391 
z
" id="Helvetica-30" transform="scale(0.015625)"/>
       </defs>
       <use xlink:href="#Helvetica-30"/>
      </g>
     </g>
    </g>
    <g id="xtick_2">
     <g id="line2d_3">
      <path clip-path="url(#p530c1ebe1b)" d="M 212.025162 141.64 
L 212.025162 28.8 
" style="fill:none;stroke:#cccccc;stroke-linecap:round;stroke-width:0.8;"/>
     </g>
     <g id="text_2">
      <!-- 10 -->
      <g style="fill:#262626;" transform="translate(200.903287 162.986875)scale(0.2 -0.2)">
       <defs>
        <path d="M 613 3169 
L 613 3600 
Q 1222 3659 1462 3798 
Q 1703 3938 1822 4456 
L 2266 4456 
L 2266 0 
L 1666 0 
L 1666 3169 
L 613 3169 
z
" id="Helvetica-31" transform="scale(0.015625)"/>
       </defs>
       <use xlink:href="#Helvetica-31"/>
       <use x="55.615234" xlink:href="#Helvetica-30"/>
      </g>
     </g>
    </g>
    <g id="text_3">
     <!-- Position -->
     <g style="fill:#262626;" transform="translate(145.20125 189.089219)scale(0.25 -0.25)">
      <defs>
       <path d="M 547 4591 
L 2613 4591 
Q 3225 4591 3600 4245 
Q 3975 3900 3975 3275 
Q 3975 2738 3640 2339 
Q 3306 1941 2613 1941 
L 1169 1941 
L 1169 0 
L 547 0 
L 547 4591 
z
M 3347 3272 
Q 3347 3778 2972 3959 
Q 2766 4056 2406 4056 
L 1169 4056 
L 1169 2466 
L 2406 2466 
Q 2825 2466 3086 2644 
Q 3347 2822 3347 3272 
z
" id="Helvetica-50" transform="scale(0.015625)"/>
       <path d="M 1741 363 
Q 2300 363 2508 786 
Q 2716 1209 2716 1728 
Q 2716 2197 2566 2491 
Q 2328 2953 1747 2953 
Q 1231 2953 997 2559 
Q 763 2166 763 1609 
Q 763 1075 997 719 
Q 1231 363 1741 363 
z
M 1763 3444 
Q 2409 3444 2856 3012 
Q 3303 2581 3303 1744 
Q 3303 934 2909 406 
Q 2516 -122 1688 -122 
Q 997 -122 590 345 
Q 184 813 184 1600 
Q 184 2444 612 2944 
Q 1041 3444 1763 3444 
z
M 1744 3428 
L 1744 3428 
z
" id="Helvetica-6f" transform="scale(0.015625)"/>
       <path d="M 747 1050 
Q 772 769 888 619 
Q 1100 347 1625 347 
Q 1938 347 2175 483 
Q 2413 619 2413 903 
Q 2413 1119 2222 1231 
Q 2100 1300 1741 1391 
L 1294 1503 
Q 866 1609 663 1741 
Q 300 1969 300 2372 
Q 300 2847 642 3140 
Q 984 3434 1563 3434 
Q 2319 3434 2653 2991 
Q 2863 2709 2856 2384 
L 2325 2384 
Q 2309 2575 2191 2731 
Q 1997 2953 1519 2953 
Q 1200 2953 1036 2831 
Q 872 2709 872 2509 
Q 872 2291 1088 2159 
Q 1213 2081 1456 2022 
L 1828 1931 
Q 2434 1784 2641 1647 
Q 2969 1431 2969 969 
Q 2969 522 2630 197 
Q 2291 -128 1597 -128 
Q 850 -128 539 211 
Q 228 550 206 1050 
L 747 1050 
z
M 1578 3428 
L 1578 3428 
z
" id="Helvetica-73" transform="scale(0.015625)"/>
       <path d="M 413 3331 
L 984 3331 
L 984 0 
L 413 0 
L 413 3331 
z
M 413 4591 
L 984 4591 
L 984 3953 
L 413 3953 
L 413 4591 
z
" id="Helvetica-69" transform="scale(0.015625)"/>
       <path d="M 525 4281 
L 1094 4281 
L 1094 3347 
L 1628 3347 
L 1628 2888 
L 1094 2888 
L 1094 703 
Q 1094 528 1213 469 
Q 1278 434 1431 434 
Q 1472 434 1519 436 
Q 1566 438 1628 444 
L 1628 0 
Q 1531 -28 1426 -40 
Q 1322 -53 1200 -53 
Q 806 -53 665 148 
Q 525 350 525 672 
L 525 2888 
L 72 2888 
L 72 3347 
L 525 3347 
L 525 4281 
z
" id="Helvetica-74" transform="scale(0.015625)"/>
       <path d="M 413 3347 
L 947 3347 
L 947 2872 
Q 1184 3166 1450 3294 
Q 1716 3422 2041 3422 
Q 2753 3422 3003 2925 
Q 3141 2653 3141 2147 
L 3141 0 
L 2569 0 
L 2569 2109 
Q 2569 2416 2478 2603 
Q 2328 2916 1934 2916 
Q 1734 2916 1606 2875 
Q 1375 2806 1200 2600 
Q 1059 2434 1017 2257 
Q 975 2081 975 1753 
L 975 0 
L 413 0 
L 413 3347 
z
M 1734 3428 
L 1734 3428 
z
" id="Helvetica-6e" transform="scale(0.015625)"/>
      </defs>
      <use xlink:href="#Helvetica-50"/>
      <use x="66.699219" xlink:href="#Helvetica-6f"/>
      <use x="122.314453" xlink:href="#Helvetica-73"/>
      <use x="172.314453" xlink:href="#Helvetica-69"/>
      <use x="194.53125" xlink:href="#Helvetica-74"/>
      <use x="222.314453" xlink:href="#Helvetica-69"/>
      <use x="244.53125" xlink:href="#Helvetica-6f"/>
      <use x="300.146484" xlink:href="#Helvetica-6e"/>
     </g>
    </g>
   </g>
   <g id="matplotlib.axis_2">
    <g id="ytick_1">
     <g id="line2d_4">
      <path clip-path="url(#p530c1ebe1b)" d="M 94.94 141.64 
L 284.4 141.64 
" style="fill:none;stroke:#cccccc;stroke-linecap:round;stroke-width:0.8;"/>
     </g>
     <g id="text_4">
      <!-- 0 -->
      <g style="fill:#262626;" transform="translate(76.818125 148.813438)scale(0.2 -0.2)">
       <use xlink:href="#Helvetica-30"/>
      </g>
     </g>
    </g>
    <g id="ytick_2">
     <g id="line2d_5">
      <path clip-path="url(#p530c1ebe1b)" d="M 94.94 113.43 
L 284.4 113.43 
" style="fill:none;stroke:#cccccc;stroke-linecap:round;stroke-width:0.8;"/>
     </g>
     <g id="text_5">
      <!-- 0.25 -->
      <g style="fill:#262626;" transform="translate(49.018125 120.603437)scale(0.2 -0.2)">
       <defs>
        <path d="M 547 681 
L 1200 681 
L 1200 0 
L 547 0 
L 547 681 
z
" id="Helvetica-2e" transform="scale(0.015625)"/>
        <path d="M 200 0 
Q 231 578 439 1006 
Q 647 1434 1250 1784 
L 1850 2131 
Q 2253 2366 2416 2531 
Q 2672 2791 2672 3125 
Q 2672 3516 2437 3745 
Q 2203 3975 1813 3975 
Q 1234 3975 1013 3538 
Q 894 3303 881 2888 
L 309 2888 
Q 319 3472 525 3841 
Q 891 4491 1816 4491 
Q 2584 4491 2939 4075 
Q 3294 3659 3294 3150 
Q 3294 2613 2916 2231 
Q 2697 2009 2131 1694 
L 1703 1456 
Q 1397 1288 1222 1134 
Q 909 863 828 531 
L 3272 531 
L 3272 0 
L 200 0 
z
" id="Helvetica-32" transform="scale(0.015625)"/>
        <path d="M 791 1141 
Q 847 659 1238 475 
Q 1438 381 1700 381 
Q 2200 381 2440 700 
Q 2681 1019 2681 1406 
Q 2681 1875 2395 2131 
Q 2109 2388 1709 2388 
Q 1419 2388 1211 2275 
Q 1003 2163 856 1963 
L 369 1991 
L 709 4400 
L 3034 4400 
L 3034 3856 
L 1131 3856 
L 941 2613 
Q 1097 2731 1238 2791 
Q 1488 2894 1816 2894 
Q 2431 2894 2859 2497 
Q 3288 2100 3288 1491 
Q 3288 856 2895 371 
Q 2503 -113 1644 -113 
Q 1097 -113 676 195 
Q 256 503 206 1141 
L 791 1141 
z
" id="Helvetica-35" transform="scale(0.015625)"/>
       </defs>
       <use xlink:href="#Helvetica-30"/>
       <use x="55.615234" xlink:href="#Helvetica-2e"/>
       <use x="83.398438" xlink:href="#Helvetica-32"/>
       <use x="139.013672" xlink:href="#Helvetica-35"/>
      </g>
     </g>
    </g>
    <g id="ytick_3">
     <g id="line2d_6">
      <path clip-path="url(#p530c1ebe1b)" d="M 94.94 85.22 
L 284.4 85.22 
" style="fill:none;stroke:#cccccc;stroke-linecap:round;stroke-width:0.8;"/>
     </g>
     <g id="text_6">
      <!-- 0.50 -->
      <g style="fill:#262626;" transform="translate(49.018125 92.393438)scale(0.2 -0.2)">
       <use xlink:href="#Helvetica-30"/>
       <use x="55.615234" xlink:href="#Helvetica-2e"/>
       <use x="83.398438" xlink:href="#Helvetica-35"/>
       <use x="139.013672" xlink:href="#Helvetica-30"/>
      </g>
     </g>
    </g>
    <g id="ytick_4">
     <g id="line2d_7">
      <path clip-path="url(#p530c1ebe1b)" d="M 94.94 57.01 
L 284.4 57.01 
" style="fill:none;stroke:#cccccc;stroke-linecap:round;stroke-width:0.8;"/>
     </g>
     <g id="text_7">
      <!-- 0.75 -->
      <g style="fill:#262626;" transform="translate(49.018125 64.183437)scale(0.2 -0.2)">
       <defs>
        <path d="M 3347 4400 
L 3347 3909 
Q 3131 3700 2773 3181 
Q 2416 2663 2141 2063 
Q 1869 1478 1728 997 
Q 1638 688 1494 0 
L 872 0 
Q 1084 1281 1809 2550 
Q 2238 3294 2709 3834 
L 234 3834 
L 234 4400 
L 3347 4400 
z
" id="Helvetica-37" transform="scale(0.015625)"/>
       </defs>
       <use xlink:href="#Helvetica-30"/>
       <use x="55.615234" xlink:href="#Helvetica-2e"/>
       <use x="83.398438" xlink:href="#Helvetica-37"/>
       <use x="139.013672" xlink:href="#Helvetica-35"/>
      </g>
     </g>
    </g>
    <g id="ytick_5">
     <g id="line2d_8">
      <path clip-path="url(#p530c1ebe1b)" d="M 94.94 28.8 
L 284.4 28.8 
" style="fill:none;stroke:#cccccc;stroke-linecap:round;stroke-width:0.8;"/>
     </g>
     <g id="text_8">
      <!-- 1.0 -->
      <g style="fill:#262626;" transform="translate(60.14 35.973437)scale(0.2 -0.2)">
       <use xlink:href="#Helvetica-31"/>
       <use x="55.615234" xlink:href="#Helvetica-2e"/>
       <use x="83.398438" xlink:href="#Helvetica-30"/>
      </g>
     </g>
    </g>
    <g id="text_9">
     <!-- Probability -->
     <g style="fill:#262626;" transform="translate(39.65875 143.579375)rotate(-90)scale(0.25 -0.25)">
      <defs>
       <path d="M 428 3347 
L 963 3347 
L 963 2769 
Q 1028 2938 1284 3180 
Q 1541 3422 1875 3422 
Q 1891 3422 1928 3419 
Q 1966 3416 2056 3406 
L 2056 2813 
Q 2006 2822 1964 2825 
Q 1922 2828 1872 2828 
Q 1447 2828 1219 2554 
Q 991 2281 991 1925 
L 991 0 
L 428 0 
L 428 3347 
z
" id="Helvetica-72" transform="scale(0.015625)"/>
       <path d="M 369 4606 
L 916 4606 
L 916 2941 
Q 1100 3181 1356 3307 
Q 1613 3434 1913 3434 
Q 2538 3434 2927 3004 
Q 3316 2575 3316 1738 
Q 3316 944 2931 419 
Q 2547 -106 1866 -106 
Q 1484 -106 1222 78 
Q 1066 188 888 428 
L 888 0 
L 369 0 
L 369 4606 
z
M 1831 391 
Q 2288 391 2514 753 
Q 2741 1116 2741 1709 
Q 2741 2238 2514 2584 
Q 2288 2931 1847 2931 
Q 1463 2931 1173 2647 
Q 884 2363 884 1709 
Q 884 1238 1003 944 
Q 1225 391 1831 391 
z
" id="Helvetica-62" transform="scale(0.015625)"/>
       <path d="M 844 891 
Q 844 647 1022 506 
Q 1200 366 1444 366 
Q 1741 366 2019 503 
Q 2488 731 2488 1250 
L 2488 1703 
Q 2384 1638 2221 1594 
Q 2059 1550 1903 1531 
L 1563 1488 
Q 1256 1447 1103 1359 
Q 844 1213 844 891 
z
M 2206 2028 
Q 2400 2053 2466 2191 
Q 2503 2266 2503 2406 
Q 2503 2694 2298 2823 
Q 2094 2953 1713 2953 
Q 1272 2953 1088 2716 
Q 984 2584 953 2325 
L 428 2325 
Q 444 2944 830 3186 
Q 1216 3428 1725 3428 
Q 2316 3428 2684 3203 
Q 3050 2978 3050 2503 
L 3050 575 
Q 3050 488 3086 434 
Q 3122 381 3238 381 
Q 3275 381 3322 386 
Q 3369 391 3422 400 
L 3422 -16 
Q 3291 -53 3222 -62 
Q 3153 -72 3034 -72 
Q 2744 -72 2613 134 
Q 2544 244 2516 444 
Q 2344 219 2022 53 
Q 1700 -113 1313 -113 
Q 847 -113 551 170 
Q 256 453 256 878 
Q 256 1344 547 1600 
Q 838 1856 1309 1916 
L 2206 2028 
z
M 1741 3428 
L 1741 3428 
z
" id="Helvetica-61" transform="scale(0.015625)"/>
       <path d="M 428 4591 
L 991 4591 
L 991 0 
L 428 0 
L 428 4591 
z
" id="Helvetica-6c" transform="scale(0.015625)"/>
       <path d="M 2503 3347 
L 3125 3347 
Q 3006 3025 2597 1878 
Q 2291 1016 2084 472 
Q 1597 -809 1397 -1090 
Q 1197 -1372 709 -1372 
Q 591 -1372 527 -1362 
Q 463 -1353 369 -1328 
L 369 -816 
Q 516 -856 581 -865 
Q 647 -875 697 -875 
Q 853 -875 926 -823 
Q 1000 -772 1050 -697 
Q 1066 -672 1162 -440 
Q 1259 -209 1303 -97 
L 66 3347 
L 703 3347 
L 1600 622 
L 2503 3347 
z
M 1597 3428 
L 1597 3428 
z
" id="Helvetica-79" transform="scale(0.015625)"/>
      </defs>
      <use xlink:href="#Helvetica-50"/>
      <use x="66.699219" xlink:href="#Helvetica-72"/>
      <use x="100" xlink:href="#Helvetica-6f"/>
      <use x="155.615234" xlink:href="#Helvetica-62"/>
      <use x="211.230469" xlink:href="#Helvetica-61"/>
      <use x="266.845703" xlink:href="#Helvetica-62"/>
      <use x="322.460938" xlink:href="#Helvetica-69"/>
      <use x="344.677734" xlink:href="#Helvetica-6c"/>
      <use x="366.894531" xlink:href="#Helvetica-69"/>
      <use x="389.111328" xlink:href="#Helvetica-74"/>
      <use x="416.894531" xlink:href="#Helvetica-79"/>
     </g>
    </g>
   </g>
   <g id="patch_71">
    <path d="M 94.94 141.64 
L 94.94 28.8 
" style="fill:none;stroke:#000000;stroke-linecap:square;stroke-linejoin:miter;"/>
   </g>
  </g>
 </g>
 <defs>
  <clipPath id="p530c1ebe1b">
   <rect height="112.84" width="189.46" x="94.94" y="28.8"/>
  </clipPath>
 </defs>
</svg>
