<?xml version="1.0" encoding="utf-8" standalone="no"?>
<!DOCTYPE svg PUBLIC "-//W3C//DTD SVG 1.1//EN"
  "http://www.w3.org/Graphics/SVG/1.1/DTD/svg11.dtd">
<svg height="216pt" version="1.1" viewBox="0 0 306 216" width="306pt" xmlns="http://www.w3.org/2000/svg" xmlns:xlink="http://www.w3.org/1999/xlink">
 <metadata>
  <rdf:RDF xmlns:cc="http://creativecommons.org/ns#" xmlns:dc="http://purl.org/dc/elements/1.1/" xmlns:rdf="http://www.w3.org/1999/02/22-rdf-syntax-ns#">
   <cc:Work>
    <dc:type rdf:resource="http://purl.org/dc/dcmitype/StillImage"/>
    <dc:date>2022-03-08T00:56:05.249674</dc:date>
    <dc:format>image/svg+xml</dc:format>
    <dc:creator>
     <cc:Agent>
      <dc:title>Matplotlib v3.4.2, https://matplotlib.org/</dc:title>
     </cc:Agent>
    </dc:creator>
   </cc:Work>
  </rdf:RDF>
 </metadata>
 <defs>
  <style type="text/css">*{stroke-linecap:butt;stroke-linejoin:round;}</style>
 </defs>
 <g id="figure_1">
  <g id="patch_1">
   <path d="M 0 216 
L 306 216 
L 306 0 
L 0 0 
z
" style="fill:#ffffff;"/>
  </g>
  <g id="axes_1">
   <g id="patch_2">
    <path d="M 94.94 141.64 
L 284.4 141.64 
L 284.4 28.8 
L 94.94 28.8 
z
" style="fill:#ffffff;"/>
   </g>
   <g id="line2d_1">
    <path clip-path="url(#p6375a7bde8)" d="M 94.94 141.64 
L 284.4 141.64 
" style="fill:none;stroke:#000000;stroke-linecap:round;stroke-width:0.5;"/>
   </g>
   <g id="patch_3">
    <path clip-path="url(#p6375a7bde8)" d="M 100.523163 122.029763 
Q 102.797109 122.029763 104.051431 123.895473 
Q 105.305752 125.757128 105.443962 128.125769 
L 103.863673 128.125769 
Q 103.595077 126.329008 102.791894 125.278532 
Q 101.988711 124.224001 100.53881 124.224001 
Q 98.770765 124.224001 97.683339 126.158661 
Q 96.595913 128.089266 96.595913 132.080263 
Q 96.595913 135.353368 97.576421 137.389425 
Q 98.559538 139.421427 100.507517 139.421427 
Q 102.299032 139.421427 103.237817 137.279916 
Q 103.733287 136.152378 103.978414 134.311004 
L 105.558702 134.311004 
Q 105.347475 137.251525 104.158348 139.242968 
Q 102.731916 141.64 100.311937 141.64 
Q 98.225748 141.64 96.807139 139.672892 
Q 94.94 137.077122 94.94 131.650339 
Q 94.94 127.533608 96.342962 124.897279 
Q 97.858057 122.029763 100.523163 122.029763 
z
M 100.197196 122.029763 
L 100.197196 122.029763 
z
" style="fill:#0000ff;"/>
   </g>
   <g id="patch_4">
    <path clip-path="url(#p6375a7bde8)" d="M 100.416455 94.81296 
Q 102.054581 94.81296 103.249628 96.221406 
Q 104.981434 98.243934 105.368811 103.314338 
L 103.811705 103.314338 
Q 103.525603 100.480545 102.63185 99.184775 
Q 101.738096 97.889005 100.375945 97.889005 
Q 98.763138 97.889005 97.659238 100.587587 
Q 96.555339 103.280535 96.555339 108.615727 
Q 96.555339 113.224161 97.464284 116.119925 
Q 98.37576 119.01569 100.431646 119.01569 
Q 102.006475 119.01569 103.039482 116.987528 
Q 104.072489 114.953732 104.095276 110.40727 
L 100.456965 110.40727 
L 100.456965 107.505872 
L 105.558702 107.505872 
L 105.558702 121.342442 
L 104.54595 121.342442 
L 104.166168 118.012876 
Q 103.368626 119.967799 102.750848 120.728359 
Q 101.712777 122.029763 100.115161 122.029763 
Q 98.05168 122.029763 96.562935 119.055126 
Q 94.94 115.319928 94.94 108.807276 
Q 94.94 102.311525 96.522425 98.474919 
Q 98.026361 94.81296 100.416455 94.81296 
z
M 100.155671 94.773524 
L 100.155671 94.773524 
z
" style="fill:#ffa600;"/>
   </g>
   <g id="patch_5">
    <path clip-path="url(#p6375a7bde8)" d="M 105.558702 65.60711 
L 105.558702 69.082176 
L 101.148734 69.082176 
L 101.148734 94.773524 
L 99.349968 94.773524 
L 99.349968 69.082176 
L 94.94 69.082176 
L 94.94 65.60711 
L 105.558702 65.60711 
z
" style="fill:#ff0000;"/>
   </g>
   <g id="patch_6">
    <path clip-path="url(#p6375a7bde8)" d="M 102.067515 50.526698 
L 100.261014 34.267752 
L 98.340473 50.526698 
L 102.067515 50.526698 
z
M 99.418672 28.8 
L 101.240724 28.8 
L 105.558702 65.60711 
L 103.791078 65.60711 
L 102.58588 54.583417 
L 97.879128 54.583417 
L 96.590992 65.60711 
L 94.94 65.60711 
L 99.418672 28.8 
z
M 100.253239 28.8 
L 100.253239 28.8 
z
" style="fill:#008000;"/>
   </g>
   <g id="patch_7">
    <path clip-path="url(#p6375a7bde8)" d="M 111.594036 124.913954 
Q 113.232162 124.913954 114.427209 125.779512 
Q 116.159015 127.022454 116.546392 130.138463 
L 114.989286 130.138463 
Q 114.703184 128.39696 113.809431 127.600647 
Q 112.915677 126.804333 111.553526 126.804333 
Q 109.940719 126.804333 108.83682 128.462742 
Q 107.73292 130.11769 107.73292 133.396424 
Q 107.73292 136.22853 108.641865 138.008118 
Q 109.553341 139.787706 111.609227 139.787706 
Q 113.184056 139.787706 114.217063 138.541302 
Q 115.25007 137.291436 115.272857 134.497414 
L 111.634546 134.497414 
L 111.634546 132.714364 
L 116.736283 132.714364 
L 116.736283 141.217608 
L 115.723531 141.217608 
L 115.34375 139.171428 
Q 114.546208 140.372823 113.928429 140.840224 
Q 112.890358 141.64 111.292743 141.64 
Q 109.229261 141.64 107.740516 139.811941 
Q 106.117581 137.516481 106.117581 133.51414 
Q 106.117581 129.522186 107.700006 127.164405 
Q 109.203942 124.913954 111.594036 124.913954 
z
M 111.333253 124.889718 
L 111.333253 124.889718 
z
" style="fill:#ffa600;"/>
   </g>
   <g id="patch_8">
    <path clip-path="url(#p6375a7bde8)" d="M 116.736283 94.768218 
L 116.736283 98.357079 
L 112.326315 98.357079 
L 112.326315 124.889718 
L 110.527549 124.889718 
L 110.527549 98.357079 
L 106.117581 98.357079 
L 106.117581 94.768218 
L 116.736283 94.768218 
z
" style="fill:#ff0000;"/>
   </g>
   <g id="patch_9">
    <path clip-path="url(#p6375a7bde8)" d="M 111.700744 62.736543 
Q 113.97469 62.736543 115.229012 65.784024 
Q 116.483333 68.82488 116.621543 72.693856 
L 115.041255 72.693856 
Q 114.772658 69.758999 113.969475 68.043135 
Q 113.166292 66.320645 111.716391 66.320645 
Q 109.948346 66.320645 108.86092 69.480751 
Q 107.773494 72.634231 107.773494 79.15319 
Q 107.773494 84.499532 108.754002 87.825261 
Q 109.737119 91.144365 111.685098 91.144365 
Q 113.476613 91.144365 114.415398 87.646387 
Q 114.910868 85.804649 115.155995 82.796918 
L 116.736283 82.796918 
Q 116.525057 87.600012 115.335929 90.852867 
Q 113.909497 94.768218 111.489518 94.768218 
Q 109.403329 94.768218 107.98472 91.555113 
Q 106.117581 87.315139 106.117581 78.450945 
Q 106.117581 71.726612 107.520543 67.420389 
Q 109.035638 62.736543 111.700744 62.736543 
z
M 111.374777 62.736543 
L 111.374777 62.736543 
z
" style="fill:#0000ff;"/>
   </g>
   <g id="patch_10">
    <path clip-path="url(#p6375a7bde8)" d="M 113.245097 48.832244 
L 111.438595 33.841325 
L 109.518054 48.832244 
L 113.245097 48.832244 
z
M 110.596253 28.8 
L 112.418305 28.8 
L 116.736283 62.736543 
L 114.968659 62.736543 
L 113.763461 52.572582 
L 109.056709 52.572582 
L 107.768573 62.736543 
L 106.117581 62.736543 
L 110.596253 28.8 
z
M 111.43082 28.8 
L 111.43082 28.8 
z
" style="fill:#008000;"/>
   </g>
   <g id="patch_11">
    <path clip-path="url(#p6375a7bde8)" d="M 127.913864 122.024457 
L 127.913864 124.361574 
L 123.503896 124.361574 
L 123.503896 141.64 
L 121.705131 141.64 
L 121.705131 124.361574 
L 117.295162 124.361574 
L 117.295162 122.024457 
L 127.913864 122.024457 
z
" style="fill:#ff0000;"/>
   </g>
   <g id="patch_12">
    <path clip-path="url(#p6375a7bde8)" d="M 122.771617 100.529885 
Q 124.409743 100.529885 125.60479 101.64221 
Q 127.336596 103.239509 127.723973 107.24388 
L 126.166868 107.24388 
Q 125.880765 105.005882 124.987012 103.982543 
Q 124.093258 102.959203 122.731107 102.959203 
Q 121.1183 102.959203 120.014401 105.090418 
Q 118.910501 107.217184 118.910501 111.430672 
Q 118.910501 115.0702 119.819446 117.357141 
Q 120.730923 119.644081 122.786809 119.644081 
Q 124.361638 119.644081 125.394644 118.042333 
Q 126.427651 116.436135 126.450438 112.84555 
L 122.812127 112.84555 
L 122.812127 110.55416 
L 127.913864 110.55416 
L 127.913864 121.481642 
L 126.901113 121.481642 
L 126.521331 118.852106 
Q 125.723789 120.396013 125.10601 120.996669 
Q 124.06794 122.024457 122.470324 122.024457 
Q 120.406842 122.024457 118.918097 119.675226 
Q 117.295162 116.72534 117.295162 111.581948 
Q 117.295162 106.451905 118.877587 103.421931 
Q 120.381523 100.529885 122.771617 100.529885 
z
M 122.510834 100.49874 
L 122.510834 100.49874 
z
" style="fill:#ffa600;"/>
   </g>
   <g id="patch_13">
    <path clip-path="url(#p6375a7bde8)" d="M 124.422678 86.594441 
L 122.616176 71.603522 
L 120.695635 86.594441 
L 124.422678 86.594441 
z
M 121.773834 66.562197 
L 123.595886 66.562197 
L 127.913864 100.49874 
L 126.14624 100.49874 
L 124.941042 90.334779 
L 120.23429 90.334779 
L 118.946154 100.49874 
L 117.295162 100.49874 
L 121.773834 66.562197 
z
M 122.608401 66.562197 
L 122.608401 66.562197 
z
" style="fill:#008000;"/>
   </g>
   <g id="patch_14">
    <path clip-path="url(#p6375a7bde8)" d="M 122.878326 28.8 
Q 125.152272 28.8 126.406593 32.392681 
Q 127.660914 35.977551 127.799124 40.538693 
L 126.218836 40.538693 
Q 125.950239 37.078786 125.147056 35.05595 
Q 124.343873 33.025305 122.893972 33.025305 
Q 121.125927 33.025305 120.038501 36.750758 
Q 118.951075 40.468402 118.951075 48.153614 
Q 118.951075 54.456426 119.931584 58.377134 
Q 120.9147 62.290031 122.862679 62.290031 
Q 124.654194 62.290031 125.592979 58.166259 
Q 126.088449 55.99503 126.333576 52.449211 
L 127.913864 52.449211 
Q 127.702638 58.111588 126.51351 61.946384 
Q 125.087078 66.562197 122.667099 66.562197 
Q 120.58091 66.562197 119.162301 62.774262 
Q 117.295162 57.77575 117.295162 47.325736 
Q 117.295162 39.398408 118.698124 34.321794 
Q 120.213219 28.8 122.878326 28.8 
z
M 122.552359 28.8 
L 122.552359 28.8 
z
" style="fill:#0000ff;"/>
   </g>
   <g id="patch_15">
    <path clip-path="url(#p6375a7bde8)" d="M 133.949198 126.821364 
Q 135.587324 126.821364 136.782371 127.588216 
Q 138.514177 128.689414 138.901554 131.450079 
L 137.344449 131.450079 
Q 137.058346 129.907174 136.164593 129.201671 
Q 135.270839 128.496168 133.908688 128.496168 
Q 132.295881 128.496168 131.191982 129.965455 
Q 130.088082 131.431675 130.088082 134.336508 
Q 130.088082 136.845645 130.997027 138.422292 
Q 131.908504 139.998938 133.96439 139.998938 
Q 135.539219 139.998938 136.572225 138.894672 
Q 137.605232 137.787339 137.628019 135.311943 
L 133.989709 135.311943 
L 133.989709 133.732229 
L 139.091445 133.732229 
L 139.091445 141.265777 
L 138.078694 141.265777 
L 137.698912 139.45294 
Q 136.90137 140.51733 136.283591 140.931429 
Q 135.245521 141.64 133.647905 141.64 
Q 131.584423 141.64 130.095678 140.02041 
Q 128.472743 137.98672 128.472743 134.440799 
Q 128.472743 130.904081 130.055168 128.815178 
Q 131.559104 126.821364 133.949198 126.821364 
z
M 133.688415 126.799892 
L 133.688415 126.799892 
z
" style="fill:#ffa600;"/>
   </g>
   <g id="patch_16">
    <path clip-path="url(#p6375a7bde8)" d="M 139.091445 107.18435 
L 139.091445 109.521466 
L 134.681477 109.521466 
L 134.681477 126.799892 
L 132.882712 126.799892 
L 132.882712 109.521466 
L 128.472743 109.521466 
L 128.472743 107.18435 
L 139.091445 107.18435 
z
" style="fill:#ff0000;"/>
   </g>
   <g id="patch_17">
    <path clip-path="url(#p6375a7bde8)" d="M 134.055907 71.337633 
Q 136.329853 71.337633 137.584174 74.748075 
Q 138.838495 78.151104 138.976705 82.480883 
L 137.396417 82.480883 
Q 137.12782 79.196478 136.324637 77.276251 
Q 135.521454 75.34861 134.071553 75.34861 
Q 132.303508 75.34861 131.216082 78.88509 
Q 130.128656 82.414157 130.128656 89.709538 
Q 130.128656 95.692641 131.109165 99.414472 
Q 132.092281 103.128889 134.04026 103.128889 
Q 135.831775 103.128889 136.77056 99.214294 
Q 137.26603 97.1532 137.511157 93.787241 
L 139.091445 93.787241 
Q 138.880219 99.162396 137.691091 102.802672 
Q 136.264659 107.18435 133.84468 107.18435 
Q 131.758491 107.18435 130.339883 103.588557 
Q 128.472743 98.843593 128.472743 88.923654 
Q 128.472743 81.398438 129.875705 76.579335 
Q 131.3908 71.337633 134.055907 71.337633 
z
M 133.72994 71.337633 
L 133.72994 71.337633 
z
" style="fill:#0000ff;"/>
   </g>
   <g id="patch_18">
    <path clip-path="url(#p6375a7bde8)" d="M 135.600259 53.909341 
L 133.793758 35.11903 
L 131.873216 53.909341 
L 135.600259 53.909341 
z
M 132.951415 28.8 
L 134.773467 28.8 
L 139.091445 71.337633 
L 137.323822 71.337633 
L 136.118624 58.597653 
L 131.411872 58.597653 
L 130.123735 71.337633 
L 128.472743 71.337633 
L 132.951415 28.8 
z
M 133.785982 28.8 
L 133.785982 28.8 
z
" style="fill:#008000;"/>
   </g>
   <g id="patch_19">
    <path clip-path="url(#p6375a7bde8)" d="M 145.12678 125.867659 
Q 146.764906 125.867659 147.959953 126.683864 
Q 149.691758 127.855934 150.079136 130.794271 
L 148.52203 130.794271 
Q 148.235927 129.152067 147.342174 128.401159 
Q 146.448421 127.65025 145.086269 127.65025 
Q 143.473462 127.65025 142.369563 129.214099 
Q 141.265664 130.774682 141.265664 133.866466 
Q 141.265664 136.537088 142.174608 138.215205 
Q 143.086085 139.893322 145.141971 139.893322 
Q 146.7168 139.893322 147.749807 138.717987 
Q 148.782813 137.539387 148.8056 134.904678 
L 145.16729 134.904678 
L 145.16729 133.223296 
L 150.269027 133.223296 
L 150.269027 141.241692 
L 149.256275 141.241692 
L 148.876493 139.312184 
Q 148.078951 140.445076 147.461172 140.885827 
Q 146.423102 141.64 144.825486 141.64 
Q 142.762004 141.64 141.273259 139.916176 
Q 139.650324 137.751601 139.650324 133.97747 
Q 139.650324 130.213133 141.232749 127.989792 
Q 142.736685 125.867659 145.12678 125.867659 
z
M 144.865996 125.844805 
L 144.865996 125.844805 
z
" style="fill:#ffa600;"/>
   </g>
   <g id="patch_20">
    <path clip-path="url(#p6375a7bde8)" d="M 150.269027 97.633479 
L 150.269027 100.99475 
L 145.859058 100.99475 
L 145.859058 125.844805 
L 144.060293 125.844805 
L 144.060293 100.99475 
L 139.650324 100.99475 
L 139.650324 97.633479 
L 150.269027 97.633479 
z
" style="fill:#ff0000;"/>
   </g>
   <g id="patch_21">
    <path clip-path="url(#p6375a7bde8)" d="M 145.233488 66.562197 
Q 147.507434 66.562197 148.761755 69.518307 
Q 150.016076 72.46799 150.154286 76.220964 
L 148.573998 76.220964 
Q 148.305401 73.374102 147.502218 71.709684 
Q 146.699036 70.038839 145.249134 70.038839 
Q 143.481089 70.038839 142.393663 73.104196 
Q 141.306237 76.163127 141.306237 82.486631 
Q 141.306237 87.672675 142.286746 90.89869 
Q 143.269862 94.118279 145.217841 94.118279 
Q 147.009356 94.118279 147.948141 90.725179 
Q 148.443611 88.938661 148.688738 86.02111 
L 150.269027 86.02111 
Q 150.0578 90.680195 148.868672 93.835521 
Q 147.44224 97.633479 145.022261 97.633479 
Q 142.936072 97.633479 141.517464 94.516711 
Q 139.650324 90.403863 139.650324 81.80544 
Q 139.650324 75.28272 141.053287 71.105609 
Q 142.568381 66.562197 145.233488 66.562197 
z
M 144.907521 66.562197 
L 144.907521 66.562197 
z
" style="fill:#0000ff;"/>
   </g>
   <g id="patch_22">
    <path clip-path="url(#p6375a7bde8)" d="M 146.77784 51.090471 
L 144.971339 34.409632 
L 143.050797 51.090471 
L 146.77784 51.090471 
z
M 144.128996 28.8 
L 145.951048 28.8 
L 150.269027 66.562197 
L 148.501403 66.562197 
L 147.296205 55.252456 
L 142.589453 55.252456 
L 141.301316 66.562197 
L 139.650324 66.562197 
L 144.128996 28.8 
z
M 144.963563 28.8 
L 144.963563 28.8 
z
" style="fill:#008000;"/>
   </g>
   <g id="patch_23">
    <path clip-path="url(#p6375a7bde8)" d="M 156.304361 125.867659 
Q 157.942487 125.867659 159.137534 126.683864 
Q 160.869339 127.855934 161.256717 130.794271 
L 159.699611 130.794271 
Q 159.413509 129.152067 158.519755 128.401159 
Q 157.626002 127.65025 156.263851 127.65025 
Q 154.651043 127.65025 153.547144 129.214099 
Q 152.443245 130.774682 152.443245 133.866466 
Q 152.443245 136.537088 153.352189 138.215205 
Q 154.263666 139.893322 156.319552 139.893322 
Q 157.894381 139.893322 158.927388 138.717987 
Q 159.960394 137.539387 159.983181 134.904678 
L 156.344871 134.904678 
L 156.344871 133.223296 
L 161.446608 133.223296 
L 161.446608 141.241692 
L 160.433856 141.241692 
L 160.054074 139.312184 
Q 159.256532 140.445076 158.638753 140.885827 
Q 157.600683 141.64 156.003067 141.64 
Q 153.939585 141.64 152.45084 139.916176 
Q 150.827906 137.751601 150.827906 133.97747 
Q 150.827906 130.213133 152.41033 127.989792 
Q 153.914267 125.867659 156.304361 125.867659 
z
M 156.043577 125.844805 
L 156.043577 125.844805 
z
" style="fill:#ffa600;"/>
   </g>
   <g id="patch_24">
    <path clip-path="url(#p6375a7bde8)" d="M 161.446608 98.588566 
L 161.446608 101.836042 
L 157.036639 101.836042 
L 157.036639 125.844805 
L 155.237874 125.844805 
L 155.237874 101.836042 
L 150.827906 101.836042 
L 150.827906 98.588566 
L 161.446608 98.588566 
z
" style="fill:#ff0000;"/>
   </g>
   <g id="patch_25">
    <path clip-path="url(#p6375a7bde8)" d="M 156.411069 64.64937 
Q 158.685015 64.64937 159.939336 67.878332 
Q 161.193657 71.100274 161.331867 75.199652 
L 159.751579 75.199652 
Q 159.482982 72.090021 158.679799 70.271975 
Q 157.876617 68.44691 156.426715 68.44691 
Q 154.65867 68.44691 153.571244 71.795203 
Q 152.483818 75.136476 152.483818 82.043647 
Q 152.483818 87.708369 153.464327 91.232149 
Q 154.447444 94.748909 156.395423 94.748909 
Q 158.186937 94.748909 159.125722 91.042623 
Q 159.621192 89.091207 159.866319 85.904362 
L 161.446608 85.904362 
Q 161.235381 90.993486 160.046253 94.440052 
Q 158.619822 98.588566 156.199842 98.588566 
Q 154.113653 98.588566 152.695045 95.184117 
Q 150.827906 90.691649 150.827906 81.299582 
Q 150.827906 74.174807 152.230868 69.612144 
Q 153.745962 64.64937 156.411069 64.64937 
z
M 156.085102 64.64937 
L 156.085102 64.64937 
z
" style="fill:#0000ff;"/>
   </g>
   <g id="patch_26">
    <path clip-path="url(#p6375a7bde8)" d="M 157.955421 49.961358 
L 156.14892 34.125478 
L 154.228378 49.961358 
L 157.955421 49.961358 
z
M 155.306577 28.8 
L 157.128629 28.8 
L 161.446608 64.64937 
L 159.678984 64.64937 
L 158.473786 53.912519 
L 153.767034 53.912519 
L 152.478897 64.64937 
L 150.827906 64.64937 
L 155.306577 28.8 
z
M 156.141144 28.8 
L 156.141144 28.8 
z
" style="fill:#008000;"/>
   </g>
   <g id="patch_27">
    <path clip-path="url(#p6375a7bde8)" d="M 167.481942 126.821364 
Q 169.120068 126.821364 170.315115 127.588216 
Q 172.04692 128.689414 172.434298 131.450079 
L 170.877192 131.450079 
Q 170.59109 129.907174 169.697336 129.201671 
Q 168.803583 128.496168 167.441432 128.496168 
Q 165.828625 128.496168 164.724725 129.965455 
Q 163.620826 131.431675 163.620826 134.336508 
Q 163.620826 136.845645 164.52977 138.422292 
Q 165.441247 139.998938 167.497133 139.998938 
Q 169.071962 139.998938 170.104969 138.894672 
Q 171.137976 137.787339 171.160763 135.311943 
L 167.522452 135.311943 
L 167.522452 133.732229 
L 172.624189 133.732229 
L 172.624189 141.265777 
L 171.611437 141.265777 
L 171.231655 139.45294 
Q 170.434113 140.51733 169.816335 140.931429 
Q 168.778264 141.64 167.180648 141.64 
Q 165.117166 141.64 163.628421 140.02041 
Q 162.005487 137.98672 162.005487 134.440799 
Q 162.005487 130.904081 163.587911 128.815178 
Q 165.091848 126.821364 167.481942 126.821364 
z
M 167.221158 126.799892 
L 167.221158 126.799892 
z
" style="fill:#ffa600;"/>
   </g>
   <g id="patch_28">
    <path clip-path="url(#p6375a7bde8)" d="M 172.624189 104.319088 
L 172.624189 106.99759 
L 168.21422 106.99759 
L 168.21422 126.799892 
L 166.415455 126.799892 
L 166.415455 106.99759 
L 162.005487 106.99759 
L 162.005487 104.319088 
L 172.624189 104.319088 
z
" style="fill:#ff0000;"/>
   </g>
   <g id="patch_29">
    <path clip-path="url(#p6375a7bde8)" d="M 167.58865 66.562197 
Q 169.862596 66.562197 171.116917 70.154373 
Q 172.371238 73.73874 172.509448 78.299241 
L 170.92916 78.299241 
Q 170.660563 74.83982 169.857381 72.817269 
Q 169.054198 70.786908 167.604296 70.786908 
Q 165.836251 70.786908 164.748825 74.511838 
Q 163.661399 78.228959 163.661399 85.913092 
Q 163.661399 92.215018 164.641908 96.135175 
Q 165.625025 100.047523 167.573004 100.047523 
Q 169.364518 100.047523 170.303304 95.92433 
Q 170.798773 93.753406 171.043901 90.208085 
L 172.624189 90.208085 
Q 172.412962 95.869666 171.223834 99.703923 
Q 169.797403 104.319088 167.377423 104.319088 
Q 165.291234 104.319088 163.872626 100.531686 
Q 162.005487 95.533876 162.005487 85.08533 
Q 162.005487 77.159116 163.408449 72.083215 
Q 164.923544 66.562197 167.58865 66.562197 
z
M 167.262683 66.562197 
L 167.262683 66.562197 
z
" style="fill:#0000ff;"/>
   </g>
   <g id="patch_30">
    <path clip-path="url(#p6375a7bde8)" d="M 169.133002 51.090471 
L 167.326501 34.409632 
L 165.40596 51.090471 
L 169.133002 51.090471 
z
M 166.484158 28.8 
L 168.30621 28.8 
L 172.624189 66.562197 
L 170.856565 66.562197 
L 169.651367 55.252456 
L 164.944615 55.252456 
L 163.656478 66.562197 
L 162.005487 66.562197 
L 166.484158 28.8 
z
M 167.318725 28.8 
L 167.318725 28.8 
z
" style="fill:#008000;"/>
   </g>
   <g id="patch_31">
    <path clip-path="url(#p6375a7bde8)" d="M 178.659523 120.145428 
Q 180.297649 120.145428 181.492696 121.257753 
Q 183.224501 122.855052 183.611879 126.859423 
L 182.054773 126.859423 
Q 181.768671 124.621425 180.874917 123.598085 
Q 179.981164 122.574746 178.619013 122.574746 
Q 177.006206 122.574746 175.902306 124.705961 
Q 174.798407 126.832727 174.798407 131.046215 
Q 174.798407 134.685743 175.707352 136.972684 
Q 176.618828 139.259624 178.674714 139.259624 
Q 180.249543 139.259624 181.28255 137.657876 
Q 182.315557 136.051678 182.338344 132.461093 
L 178.700033 132.461093 
L 178.700033 130.169703 
L 183.80177 130.169703 
L 183.80177 141.097185 
L 182.789018 141.097185 
L 182.409236 138.467649 
Q 181.611694 140.011556 180.993916 140.612212 
Q 179.955845 141.64 178.358229 141.64 
Q 176.294748 141.64 174.806003 139.290769 
Q 173.183068 136.340883 173.183068 131.197491 
Q 173.183068 126.067447 174.765492 123.037474 
Q 176.269429 120.145428 178.659523 120.145428 
z
M 178.398739 120.114283 
L 178.398739 120.114283 
z
" style="fill:#ffa600;"/>
   </g>
   <g id="patch_32">
    <path clip-path="url(#p6375a7bde8)" d="M 183.80177 97.633479 
L 183.80177 100.31198 
L 179.391802 100.31198 
L 179.391802 120.114283 
L 177.593036 120.114283 
L 177.593036 100.31198 
L 173.183068 100.31198 
L 173.183068 97.633479 
L 183.80177 97.633479 
z
" style="fill:#ff0000;"/>
   </g>
   <g id="patch_33">
    <path clip-path="url(#p6375a7bde8)" d="M 178.766231 65.601804 
Q 181.040177 65.601804 182.294498 68.649285 
Q 183.548819 71.690141 183.68703 75.559117 
L 182.106741 75.559117 
Q 181.838145 72.62426 181.034962 70.908396 
Q 180.231779 69.185907 178.781878 69.185907 
Q 177.013832 69.185907 175.926406 72.346012 
Q 174.83898 75.499492 174.83898 82.018451 
Q 174.83898 87.364793 175.819489 90.690522 
Q 176.802606 94.009627 178.750585 94.009627 
Q 180.5421 94.009627 181.480885 90.511648 
Q 181.976355 88.66991 182.221482 85.662179 
L 183.80177 85.662179 
Q 183.590543 90.465274 182.401416 93.718128 
Q 180.974984 97.633479 178.555005 97.633479 
Q 176.468816 97.633479 175.050207 94.420374 
Q 173.183068 90.1804 173.183068 81.316206 
Q 173.183068 74.591873 174.58603 70.28565 
Q 176.101125 65.601804 178.766231 65.601804 
z
M 178.440264 65.601804 
L 178.440264 65.601804 
z
" style="fill:#0000ff;"/>
   </g>
   <g id="patch_34">
    <path clip-path="url(#p6375a7bde8)" d="M 180.310583 50.523565 
L 178.504082 34.266964 
L 176.583541 50.523565 
L 180.310583 50.523565 
z
M 177.661739 28.8 
L 179.483791 28.8 
L 183.80177 65.601804 
L 182.034146 65.601804 
L 180.828948 54.5797 
L 176.122196 54.5797 
L 174.83406 65.601804 
L 173.183068 65.601804 
L 177.661739 28.8 
z
M 178.496307 28.8 
L 178.496307 28.8 
z
" style="fill:#008000;"/>
   </g>
   <g id="patch_35">
    <path clip-path="url(#p6375a7bde8)" d="M 189.837104 126.821364 
Q 191.47523 126.821364 192.670277 127.588216 
Q 194.402083 128.689414 194.78946 131.450079 
L 193.232354 131.450079 
Q 192.946252 129.907174 192.052498 129.201671 
Q 191.158745 128.496168 189.796594 128.496168 
Q 188.183787 128.496168 187.079887 129.965455 
Q 185.975988 131.431675 185.975988 134.336508 
Q 185.975988 136.845645 186.884933 138.422292 
Q 187.796409 139.998938 189.852295 139.998938 
Q 191.427124 139.998938 192.460131 138.894672 
Q 193.493138 137.787339 193.515925 135.311943 
L 189.877614 135.311943 
L 189.877614 133.732229 
L 194.979351 133.732229 
L 194.979351 141.265777 
L 193.966599 141.265777 
L 193.586817 139.45294 
Q 192.789275 140.51733 192.171497 140.931429 
Q 191.133426 141.64 189.53581 141.64 
Q 187.472329 141.64 185.983584 140.02041 
Q 184.360649 137.98672 184.360649 134.440799 
Q 184.360649 130.904081 185.943074 128.815178 
Q 187.44701 126.821364 189.837104 126.821364 
z
M 189.57632 126.799892 
L 189.57632 126.799892 
z
" style="fill:#ffa600;"/>
   </g>
   <g id="patch_36">
    <path clip-path="url(#p6375a7bde8)" d="M 194.979351 100.49874 
L 194.979351 103.632421 
L 190.569383 103.632421 
L 190.569383 126.799892 
L 188.770617 126.799892 
L 188.770617 103.632421 
L 184.360649 103.632421 
L 184.360649 100.49874 
L 194.979351 100.49874 
z
" style="fill:#ff0000;"/>
   </g>
   <g id="patch_37">
    <path clip-path="url(#p6375a7bde8)" d="M 189.943812 65.60711 
Q 192.217758 65.60711 193.472079 68.926686 
Q 194.726401 72.239046 194.864611 76.453464 
L 193.284322 76.453464 
Q 193.015726 73.256568 192.212543 71.387502 
Q 191.40936 69.51122 189.959459 69.51122 
Q 188.191414 69.51122 187.103988 72.953476 
Q 186.016561 76.388516 186.016561 83.489522 
Q 186.016561 89.313212 186.99707 92.93588 
Q 187.980187 96.551331 189.928166 96.551331 
Q 191.719681 96.551331 192.658466 92.741035 
Q 193.153936 90.734857 193.399063 87.45858 
L 194.979351 87.45858 
Q 194.768124 92.69052 193.578997 96.233807 
Q 192.152565 100.49874 189.732586 100.49874 
Q 187.646397 100.49874 186.227788 96.998752 
Q 184.360649 92.380212 184.360649 82.724576 
Q 184.360649 75.399859 185.763611 70.709154 
Q 187.278706 65.60711 189.943812 65.60711 
z
M 189.617845 65.60711 
L 189.617845 65.60711 
z
" style="fill:#0000ff;"/>
   </g>
   <g id="patch_38">
    <path clip-path="url(#p6375a7bde8)" d="M 191.488164 50.526698 
L 189.681663 34.267752 
L 187.761122 50.526698 
L 191.488164 50.526698 
z
M 188.83932 28.8 
L 190.661373 28.8 
L 194.979351 65.60711 
L 193.211727 65.60711 
L 192.006529 54.583417 
L 187.299777 54.583417 
L 186.011641 65.60711 
L 184.360649 65.60711 
L 188.83932 28.8 
z
M 189.673888 28.8 
L 189.673888 28.8 
z
" style="fill:#008000;"/>
   </g>
   <g id="patch_39">
    <path clip-path="url(#p6375a7bde8)" d="M 206.156932 118.204109 
L 206.156932 120.996405 
L 201.746964 120.996405 
L 201.746964 141.64 
L 199.948198 141.64 
L 199.948198 120.996405 
L 195.53823 120.996405 
L 195.53823 118.204109 
L 206.156932 118.204109 
z
" style="fill:#ff0000;"/>
   </g>
   <g id="patch_40">
    <path clip-path="url(#p6375a7bde8)" d="M 201.014685 93.848421 
Q 202.652811 93.848421 203.847858 95.108807 
Q 205.579664 96.91872 205.967041 101.456108 
L 204.409935 101.456108 
Q 204.123833 98.920212 203.23008 97.760658 
Q 202.336326 96.601103 200.974175 96.601103 
Q 199.361368 96.601103 198.257469 99.016002 
Q 197.153569 101.425858 197.153569 106.200198 
Q 197.153569 110.324179 198.062514 112.915532 
Q 198.97399 115.506884 201.029876 115.506884 
Q 202.604705 115.506884 203.637712 113.691929 
Q 204.670719 111.871933 204.693506 107.803409 
L 201.055195 107.803409 
L 201.055195 105.207015 
L 206.156932 105.207015 
L 206.156932 117.589041 
L 205.14418 117.589041 
L 204.764399 114.60949 
Q 203.966857 116.358905 203.349078 117.039513 
Q 202.311007 118.204109 200.713392 118.204109 
Q 198.64991 118.204109 197.161165 115.542175 
Q 195.53823 112.199633 195.53823 106.371611 
Q 195.53823 100.558713 197.120655 97.125423 
Q 198.624591 93.848421 201.014685 93.848421 
z
M 200.753902 93.813131 
L 200.753902 93.813131 
z
" style="fill:#ffa600;"/>
   </g>
   <g id="patch_41">
    <path clip-path="url(#p6375a7bde8)" d="M 201.121393 63.69163 
Q 203.395339 63.69163 204.649661 66.557378 
Q 205.903982 69.416896 206.042192 73.055149 
L 204.461904 73.055149 
Q 204.193307 70.29531 203.390124 68.681769 
Q 202.586941 67.061998 201.13704 67.061998 
Q 199.368995 67.061998 198.281569 70.033654 
Q 197.194143 72.99908 197.194143 79.129288 
Q 197.194143 84.156807 198.174651 87.28421 
Q 199.157768 90.405383 201.105747 90.405383 
Q 202.897262 90.405383 203.836047 87.116003 
Q 204.331517 85.384094 204.576644 82.555726 
L 206.156932 82.555726 
Q 205.945706 87.072394 204.756578 90.131268 
Q 203.330146 93.813131 200.910167 93.813131 
Q 198.823978 93.813131 197.405369 90.791636 
Q 195.53823 86.804508 195.53823 78.46892 
Q 195.53823 72.145586 196.941192 68.09616 
Q 198.456287 63.69163 201.121393 63.69163 
z
M 200.795426 63.69163 
L 200.795426 63.69163 
z
" style="fill:#0000ff;"/>
   </g>
   <g id="patch_42">
    <path clip-path="url(#p6375a7bde8)" d="M 202.665746 49.396018 
L 200.859244 33.983204 
L 198.938703 49.396018 
L 202.665746 49.396018 
z
M 200.016902 28.8 
L 201.838954 28.8 
L 206.156932 63.69163 
L 204.389308 63.69163 
L 203.18411 53.241621 
L 198.477358 53.241621 
L 197.189222 63.69163 
L 195.53823 63.69163 
L 200.016902 28.8 
z
M 200.851469 28.8 
L 200.851469 28.8 
z
" style="fill:#008000;"/>
   </g>
   <g id="patch_43">
    <path clip-path="url(#p6375a7bde8)" d="M 212.192266 123.006544 
Q 213.830392 123.006544 215.025439 123.970809 
Q 216.757245 125.355493 217.144622 128.826847 
L 215.587517 128.826847 
Q 215.301414 126.886746 214.407661 125.999622 
Q 213.513907 125.112498 212.151756 125.112498 
Q 210.538949 125.112498 209.43505 126.96003 
Q 208.33115 128.803705 208.33115 132.45634 
Q 208.33115 135.611415 209.240095 137.593944 
Q 210.151572 139.576473 212.207458 139.576473 
Q 213.782287 139.576473 214.815293 138.187931 
Q 215.8483 136.795533 215.871087 133.682885 
L 212.232776 133.682885 
L 212.232776 131.6965 
L 217.334513 131.6965 
L 217.334513 141.169439 
L 216.321762 141.169439 
L 215.94198 138.889916 
Q 215.144438 140.228316 214.526659 140.749019 
Q 213.488589 141.64 211.890973 141.64 
Q 209.827491 141.64 208.338746 139.603472 
Q 206.715811 137.046242 206.715811 132.58748 
Q 206.715811 128.14029 208.298236 125.513633 
Q 209.802172 123.006544 212.192266 123.006544 
z
M 211.931483 122.979544 
L 211.931483 122.979544 
z
" style="fill:#ffa600;"/>
   </g>
   <g id="patch_44">
    <path clip-path="url(#p6375a7bde8)" d="M 217.334513 102.408914 
L 217.334513 104.859826 
L 212.924545 104.859826 
L 212.924545 122.979544 
L 211.12578 122.979544 
L 211.12578 104.859826 
L 206.715811 104.859826 
L 206.715811 102.408914 
L 217.334513 102.408914 
z
" style="fill:#ff0000;"/>
   </g>
   <g id="patch_45">
    <path clip-path="url(#p6375a7bde8)" d="M 213.843327 89.677468 
L 212.036825 75.95106 
L 210.116284 89.677468 
L 213.843327 89.677468 
z
M 211.194483 71.33498 
L 213.016535 71.33498 
L 217.334513 102.408914 
L 215.566889 102.408914 
L 214.361691 93.102301 
L 209.654939 93.102301 
L 208.366803 102.408914 
L 206.715811 102.408914 
L 211.194483 71.33498 
z
M 212.02905 71.33498 
L 212.02905 71.33498 
z
" style="fill:#008000;"/>
   </g>
   <g id="patch_46">
    <path clip-path="url(#p6375a7bde8)" d="M 212.298975 28.8 
Q 214.572921 28.8 215.827242 32.846761 
Q 217.081563 36.884725 217.219773 42.022352 
L 215.639485 42.022352 
Q 215.370888 38.125145 214.567705 35.846643 
Q 213.764522 33.559343 212.314621 33.559343 
Q 210.546576 33.559343 209.45915 37.755659 
Q 208.371724 41.943177 208.371724 50.599727 
Q 208.371724 57.699154 209.352233 62.115402 
Q 210.335349 66.522853 212.283328 66.522853 
Q 214.074843 66.522853 215.013628 61.877874 
Q 215.509098 59.432223 215.754225 55.438246 
L 217.334513 55.438246 
Q 217.123287 61.816293 215.934159 66.135771 
Q 214.507727 71.33498 212.087748 71.33498 
Q 210.001559 71.33498 208.58295 67.068286 
Q 206.715811 61.438009 206.715811 49.667212 
Q 206.715811 40.737946 208.118773 35.019696 
Q 209.633868 28.8 212.298975 28.8 
z
M 211.973008 28.8 
L 211.973008 28.8 
z
" style="fill:#0000ff;"/>
   </g>
   <g id="patch_47">
    <path clip-path="url(#p6375a7bde8)" d="M 225.020908 133.211911 
L 223.214407 124.125168 
L 221.293865 133.211911 
L 225.020908 133.211911 
z
M 222.372064 121.06937 
L 224.194116 121.06937 
L 228.512094 141.64 
L 226.744471 141.64 
L 225.539273 135.479116 
L 220.832521 135.479116 
L 219.544384 141.64 
L 217.893392 141.64 
L 222.372064 121.06937 
z
M 223.206631 121.06937 
L 223.206631 121.06937 
z
" style="fill:#008000;"/>
   </g>
   <g id="patch_48">
    <path clip-path="url(#p6375a7bde8)" d="M 223.476556 94.768218 
Q 225.750502 94.768218 227.004823 97.270499 
Q 228.259144 99.767341 228.397354 102.94415 
L 226.817066 102.94415 
Q 226.548469 100.534344 225.745286 99.125451 
Q 224.942103 97.711118 223.492202 97.711118 
Q 221.724157 97.711118 220.636731 100.305875 
Q 219.549305 102.895192 219.549305 108.247898 
Q 219.549305 112.63777 220.529814 115.36852 
Q 221.51293 118.093831 223.460909 118.093831 
Q 225.252424 118.093831 226.191209 115.221647 
Q 226.686679 113.709399 226.931806 111.239756 
L 228.512094 111.239756 
Q 228.300868 115.183569 227.11174 117.854483 
Q 225.685308 121.06937 223.265329 121.06937 
Q 221.17914 121.06937 219.760531 118.431095 
Q 217.893392 114.94966 217.893392 107.671286 
Q 217.893392 102.149948 219.296354 98.614115 
Q 220.811449 94.768218 223.476556 94.768218 
z
M 223.150589 94.768218 
L 223.150589 94.768218 
z
" style="fill:#0000ff;"/>
   </g>
   <g id="patch_49">
    <path clip-path="url(#p6375a7bde8)" d="M 228.512094 65.601804 
L 228.512094 69.07687 
L 224.102126 69.07687 
L 224.102126 94.768218 
L 222.303361 94.768218 
L 222.303361 69.07687 
L 217.893392 69.07687 
L 217.893392 65.601804 
L 228.512094 65.601804 
z
" style="fill:#ff0000;"/>
   </g>
   <g id="patch_50">
    <path clip-path="url(#p6375a7bde8)" d="M 223.369847 28.853248 
Q 225.007973 28.853248 226.20302 30.754953 
Q 227.934826 33.485802 228.322203 40.331942 
L 226.765098 40.331942 
Q 226.478995 36.505711 225.585242 34.756142 
Q 224.691488 33.006572 223.329337 33.006572 
Q 221.71653 33.006572 220.612631 36.65024 
Q 219.508731 40.286301 219.508731 47.489961 
Q 219.508731 53.712342 220.417676 57.622248 
Q 221.329153 61.532154 223.385039 61.532154 
Q 224.959868 61.532154 225.992874 58.793699 
Q 227.025881 56.047636 227.048668 49.908931 
L 223.410357 49.908931 
L 223.410357 45.991417 
L 228.512094 45.991417 
L 228.512094 64.673772 
L 227.499343 64.673772 
L 227.119561 60.17814 
Q 226.322019 62.817707 225.70424 63.844628 
Q 224.66617 65.601804 223.068554 65.601804 
Q 221.005072 65.601804 219.516327 61.585402 
Q 217.893392 56.542079 217.893392 47.748593 
Q 217.893392 38.977928 219.475817 33.797682 
Q 220.979753 28.853248 223.369847 28.853248 
z
M 223.109064 28.8 
L 223.109064 28.8 
z
" style="fill:#ffa600;"/>
   </g>
   <g id="patch_51">
    <path clip-path="url(#p6375a7bde8)" d="M 239.689676 122.024457 
L 239.689676 124.361574 
L 235.279707 124.361574 
L 235.279707 141.64 
L 233.480942 141.64 
L 233.480942 124.361574 
L 229.070973 124.361574 
L 229.070973 122.024457 
L 239.689676 122.024457 
z
" style="fill:#ff0000;"/>
   </g>
   <g id="patch_52">
    <path clip-path="url(#p6375a7bde8)" d="M 234.654137 92.858044 
Q 236.928083 92.858044 238.182404 95.632925 
Q 239.436725 98.401773 239.574935 101.924666 
L 237.994647 101.924666 
Q 237.72605 99.252335 236.922867 97.689956 
Q 236.119685 96.121545 234.669783 96.121545 
Q 232.901738 96.121545 231.814312 98.998976 
Q 230.726886 101.870375 230.726886 107.806208 
Q 230.726886 112.674314 231.707395 115.702554 
Q 232.690511 118.724762 234.63849 118.724762 
Q 236.430005 118.724762 237.36879 115.539681 
Q 237.86426 113.862687 238.109387 111.124 
L 239.689676 111.124 
Q 239.478449 115.497454 238.289321 118.459338 
Q 236.862889 122.024457 234.44291 122.024457 
Q 232.356721 122.024457 230.938113 119.098767 
Q 229.070973 115.238063 229.070973 107.166778 
Q 229.070973 101.043943 230.473936 97.122915 
Q 231.98903 92.858044 234.654137 92.858044 
z
M 234.32817 92.858044 
L 234.32817 92.858044 
z
" style="fill:#0000ff;"/>
   </g>
   <g id="patch_53">
    <path clip-path="url(#p6375a7bde8)" d="M 236.198489 80.126597 
L 234.391988 66.400189 
L 232.471446 80.126597 
L 236.198489 80.126597 
z
M 233.549645 61.784109 
L 235.371697 61.784109 
L 239.689676 92.858044 
L 237.922052 92.858044 
L 236.716854 83.551431 
L 232.010102 83.551431 
L 230.721965 92.858044 
L 229.070973 92.858044 
L 233.549645 61.784109 
z
M 234.384212 61.784109 
L 234.384212 61.784109 
z
" style="fill:#008000;"/>
   </g>
   <g id="patch_54">
    <path clip-path="url(#p6375a7bde8)" d="M 234.547429 28.847724 
Q 236.185554 28.847724 237.380602 30.552153 
Q 239.112407 32.999713 239.499785 39.135657 
L 237.942679 39.135657 
Q 237.656576 35.706346 236.762823 34.138271 
Q 235.86907 32.570197 234.506918 32.570197 
Q 232.894111 32.570197 231.790212 35.835883 
Q 230.686312 39.094751 230.686312 45.551128 
Q 230.686312 51.128019 231.595257 54.632325 
Q 232.506734 58.136631 234.56262 58.136631 
Q 236.137449 58.136631 237.170456 55.682253 
Q 238.203462 53.221058 238.226249 47.719161 
L 234.587939 47.719161 
L 234.587939 44.208038 
L 239.689676 44.208038 
L 239.689676 60.952348 
L 238.676924 60.952348 
L 238.297142 56.923078 
Q 237.4996 59.288825 236.881821 60.209217 
Q 235.843751 61.784109 234.246135 61.784109 
Q 232.182653 61.784109 230.693908 58.184355 
Q 229.070973 53.664209 229.070973 45.78293 
Q 229.070973 37.922104 230.653398 33.279239 
Q 232.157334 28.847724 234.547429 28.847724 
z
M 234.286645 28.8 
L 234.286645 28.8 
z
" style="fill:#ffa600;"/>
   </g>
   <g id="patch_55">
    <path clip-path="url(#p6375a7bde8)" d="M 250.867257 126.799892 
L 250.867257 128.568034 
L 246.457288 128.568034 
L 246.457288 141.64 
L 244.658523 141.64 
L 244.658523 128.568034 
L 240.248555 128.568034 
L 240.248555 126.799892 
L 250.867257 126.799892 
z
" style="fill:#ff0000;"/>
   </g>
   <g id="patch_56">
    <path clip-path="url(#p6375a7bde8)" d="M 247.37607 116.415238 
L 245.569569 105.219024 
L 243.649027 116.415238 
L 247.37607 116.415238 
z
M 244.727226 101.453827 
L 246.549278 101.453827 
L 250.867257 126.799892 
L 249.099633 126.799892 
L 247.894435 119.208771 
L 243.187683 119.208771 
L 241.899546 126.799892 
L 240.248555 126.799892 
L 244.727226 101.453827 
z
M 245.561793 101.453827 
L 245.561793 101.453827 
z
" style="fill:#008000;"/>
   </g>
   <g id="patch_57">
    <path clip-path="url(#p6375a7bde8)" d="M 245.831718 71.337633 
Q 248.105664 71.337633 249.359985 74.202875 
Q 250.614306 77.06189 250.752516 80.699502 
L 249.172228 80.699502 
Q 248.903631 77.940149 248.100448 76.326893 
Q 247.297266 74.707407 245.847364 74.707407 
Q 244.079319 74.707407 242.991893 77.67854 
Q 241.904467 80.643443 241.904467 86.772572 
Q 241.904467 91.799204 242.884976 94.926056 
Q 243.868093 98.04668 245.816071 98.04668 
Q 247.607586 98.04668 248.546371 94.757879 
Q 249.041841 93.026276 249.286968 90.198406 
L 250.867257 90.198406 
Q 250.65603 94.714278 249.466902 97.772613 
Q 248.040471 101.453827 245.620491 101.453827 
Q 243.534302 101.453827 242.115694 98.432865 
Q 240.248555 94.44644 240.248555 86.11232 
Q 240.248555 79.790099 241.651517 75.741386 
Q 243.166611 71.337633 245.831718 71.337633 
z
M 245.505751 71.337633 
L 245.505751 71.337633 
z
" style="fill:#0000ff;"/>
   </g>
   <g id="patch_58">
    <path clip-path="url(#p6375a7bde8)" d="M 245.72501 28.861547 
Q 247.363136 28.861547 248.558183 31.059647 
Q 250.289988 34.216119 250.677366 42.129279 
L 249.12026 42.129279 
Q 248.834158 37.706701 247.940404 35.684449 
Q 247.046651 33.662197 245.6845 33.662197 
Q 244.071692 33.662197 242.967793 37.873757 
Q 241.863894 42.076524 241.863894 50.402927 
Q 241.863894 57.595111 242.772838 62.114405 
Q 243.684315 66.633698 245.740201 66.633698 
Q 247.31503 66.633698 248.348037 63.468434 
Q 249.381043 60.294378 249.40383 53.198911 
L 245.76552 53.198911 
L 245.76552 48.670825 
L 250.867257 48.670825 
L 250.867257 70.26496 
L 249.854505 70.26496 
L 249.474723 65.068651 
Q 248.677181 68.119614 248.059402 69.306588 
Q 247.021332 71.337633 245.423716 71.337633 
Q 243.360234 71.337633 241.871489 66.695245 
Q 240.248555 60.865884 240.248555 50.701869 
Q 240.248555 40.564232 241.830979 34.576607 
Q 243.334916 28.861547 245.72501 28.861547 
z
M 245.464226 28.8 
L 245.464226 28.8 
z
" style="fill:#ffa600;"/>
   </g>
   <g id="patch_59">
    <path clip-path="url(#p6375a7bde8)" d="M 257.009299 118.206762 
Q 259.283245 118.206762 260.537566 120.436191 
Q 261.791887 122.660773 261.930097 125.491179 
L 260.349809 125.491179 
Q 260.081212 123.344142 259.27803 122.088876 
Q 258.474847 120.828764 257.024945 120.828764 
Q 255.2569 120.828764 254.169474 123.140585 
Q 253.082048 125.44756 253.082048 130.216599 
Q 253.082048 134.127793 254.062557 136.560779 
Q 255.045674 138.988918 256.993653 138.988918 
Q 258.785167 138.988918 259.723952 136.429921 
Q 260.219422 135.082571 260.46455 132.882221 
L 262.044838 132.882221 
Q 261.833611 136.395995 260.644483 138.775668 
Q 259.218052 141.64 256.798072 141.64 
Q 254.711883 141.64 253.293275 139.289406 
Q 251.426136 136.187592 251.426136 129.702861 
Q 251.426136 124.783578 252.829098 121.633297 
Q 254.344193 118.206762 257.009299 118.206762 
z
M 256.683332 118.206762 
L 256.683332 118.206762 
z
" style="fill:#0000ff;"/>
   </g>
   <g id="patch_60">
    <path clip-path="url(#p6375a7bde8)" d="M 258.553651 107.430794 
L 256.74715 95.812685 
L 254.826609 107.430794 
L 258.553651 107.430794 
z
M 255.904807 91.905609 
L 257.726859 91.905609 
L 262.044838 118.206762 
L 260.277214 118.206762 
L 259.072016 110.329593 
L 254.365264 110.329593 
L 253.077127 118.206762 
L 251.426136 118.206762 
L 255.904807 91.905609 
z
M 256.739374 91.905609 
L 256.739374 91.905609 
z
" style="fill:#008000;"/>
   </g>
   <g id="patch_61">
    <path clip-path="url(#p6375a7bde8)" d="M 256.902591 63.735101 
Q 258.540717 63.735101 259.735764 65.1929 
Q 261.467569 67.2863 261.854947 72.534376 
L 260.297841 72.534376 
Q 260.011739 69.601285 259.117985 68.260109 
Q 258.224232 66.918934 256.862081 66.918934 
Q 255.249274 66.918934 254.145374 69.712077 
Q 253.041475 72.499389 253.041475 78.021532 
Q 253.041475 82.79145 253.950419 85.788685 
Q 254.861896 88.78592 256.917782 88.78592 
Q 258.492611 88.78592 259.525618 86.686689 
Q 260.558625 84.581627 260.581411 79.875852 
L 256.943101 79.875852 
L 256.943101 76.872786 
L 262.044838 76.872786 
L 262.044838 91.194204 
L 261.032086 91.194204 
L 260.652304 87.747967 
Q 259.854762 89.771392 259.236984 90.558603 
Q 258.198913 91.905609 256.601297 91.905609 
Q 254.537815 91.905609 253.04907 88.826738 
Q 251.426136 84.960655 251.426136 78.219792 
Q 251.426136 71.496423 253.00856 67.525379 
Q 254.512497 63.735101 256.902591 63.735101 
z
M 256.641807 63.694283 
L 256.641807 63.694283 
z
" style="fill:#ffa600;"/>
   </g>
   <g id="patch_62">
    <path clip-path="url(#p6375a7bde8)" d="M 262.044838 28.8 
L 262.044838 32.95752 
L 257.634869 32.95752 
L 257.634869 63.694283 
L 255.836104 63.694283 
L 255.836104 32.95752 
L 251.426136 32.95752 
L 251.426136 28.8 
L 262.044838 28.8 
z
" style="fill:#ff0000;"/>
   </g>
   <g id="patch_63">
    <path clip-path="url(#p6375a7bde8)" d="M 268.18688 121.06937 
Q 270.460826 121.06937 271.715147 123.026452 
Q 272.969468 124.979279 273.107678 127.463922 
L 271.52739 127.463922 
Q 271.258793 125.579167 270.455611 124.477245 
Q 269.652428 123.371068 268.202527 123.371068 
Q 266.434481 123.371068 265.347055 125.400477 
Q 264.259629 127.425631 264.259629 131.612084 
Q 264.259629 135.045486 265.240138 137.181257 
Q 266.223255 139.312775 268.171234 139.312775 
Q 269.962749 139.312775 270.901534 137.066385 
Q 271.397003 135.883627 271.642131 133.952073 
L 273.222419 133.952073 
Q 273.011192 137.036604 271.822065 139.125576 
Q 270.395633 141.64 267.975654 141.64 
Q 265.889465 141.64 264.470856 139.576555 
Q 262.603717 136.853659 262.603717 131.161104 
Q 262.603717 126.842761 264.006679 124.077319 
Q 265.521774 121.06937 268.18688 121.06937 
z
M 267.860913 121.06937 
L 267.860913 121.06937 
z
" style="fill:#0000ff;"/>
   </g>
   <g id="patch_64">
    <path clip-path="url(#p6375a7bde8)" d="M 273.222419 92.86335 
L 273.222419 96.223988 
L 268.812451 96.223988 
L 268.812451 121.06937 
L 267.013685 121.06937 
L 267.013685 96.223988 
L 262.603717 96.223988 
L 262.603717 92.86335 
L 273.222419 92.86335 
z
" style="fill:#ff0000;"/>
   </g>
   <g id="patch_65">
    <path clip-path="url(#p6375a7bde8)" d="M 268.080172 64.692841 
Q 269.718298 64.692841 270.913345 66.15064 
Q 272.64515 68.24404 273.032528 73.492116 
L 271.475422 73.492116 
Q 271.18932 70.559025 270.295566 69.21785 
Q 269.401813 67.876674 268.039662 67.876674 
Q 266.426855 67.876674 265.322955 70.669817 
Q 264.219056 73.457129 264.219056 78.979272 
Q 264.219056 83.74919 265.128001 86.746425 
Q 266.039477 89.74366 268.095363 89.74366 
Q 269.670192 89.74366 270.703199 87.644429 
Q 271.736206 85.539367 271.758993 80.833592 
L 268.120682 80.833592 
L 268.120682 77.830526 
L 273.222419 77.830526 
L 273.222419 92.151944 
L 272.209667 92.151944 
L 271.829885 88.705707 
Q 271.032343 90.729132 270.414565 91.516343 
Q 269.376494 92.86335 267.778878 92.86335 
Q 265.715397 92.86335 264.226651 89.784478 
Q 262.603717 85.918395 262.603717 79.177532 
Q 262.603717 72.454163 264.186141 68.483119 
Q 265.690078 64.692841 268.080172 64.692841 
z
M 267.819388 64.652023 
L 267.819388 64.652023 
z
" style="fill:#ffa600;"/>
   </g>
   <g id="patch_66">
    <path clip-path="url(#p6375a7bde8)" d="M 269.731232 49.962924 
L 267.924731 34.125872 
L 266.00419 49.962924 
L 269.731232 49.962924 
z
M 267.082388 28.8 
L 268.90444 28.8 
L 273.222419 64.652023 
L 271.454795 64.652023 
L 270.249597 53.914377 
L 265.542845 53.914377 
L 264.254709 64.652023 
L 262.603717 64.652023 
L 267.082388 28.8 
z
M 267.916956 28.8 
L 267.916956 28.8 
z
" style="fill:#008000;"/>
   </g>
   <g id="patch_67">
    <path clip-path="url(#p6375a7bde8)" d="M 284.4 132.530415 
L 284.4 133.615787 
L 279.990032 133.615787 
L 279.990032 141.64 
L 278.191266 141.64 
L 278.191266 133.615787 
L 273.781298 133.615787 
L 273.781298 132.530415 
L 284.4 132.530415 
z
" style="fill:#ff0000;"/>
   </g>
   <g id="patch_68">
    <path clip-path="url(#p6375a7bde8)" d="M 279.364461 111.959785 
Q 281.638407 111.959785 282.892728 113.916867 
Q 284.14705 115.869694 284.28526 118.354337 
L 282.704971 118.354337 
Q 282.436375 116.469582 281.633192 115.36766 
Q 280.830009 114.261483 279.380108 114.261483 
Q 277.612063 114.261483 276.524636 116.290892 
Q 275.43721 118.316046 275.43721 122.502499 
Q 275.43721 125.935901 276.417719 128.071672 
Q 277.400836 130.20319 279.348815 130.20319 
Q 281.14033 130.20319 282.079115 127.9568 
Q 282.574585 126.774042 282.819712 124.842488 
L 284.4 124.842488 
Q 284.188773 127.927018 282.999646 130.01599 
Q 281.573214 132.530415 279.153235 132.530415 
Q 277.067046 132.530415 275.648437 130.46697 
Q 273.781298 127.744074 273.781298 122.051519 
Q 273.781298 117.733176 275.18426 114.967734 
Q 276.699355 111.959785 279.364461 111.959785 
z
M 279.038494 111.959785 
L 279.038494 111.959785 
z
" style="fill:#0000ff;"/>
   </g>
   <g id="patch_69">
    <path clip-path="url(#p6375a7bde8)" d="M 279.257753 91.418918 
Q 280.895879 91.418918 282.090926 92.48189 
Q 283.822732 94.008317 284.210109 97.835016 
L 282.653003 97.835016 
Q 282.366901 95.696317 281.473147 94.718383 
Q 280.579394 93.740449 279.217243 93.740449 
Q 277.604436 93.740449 276.500536 95.777103 
Q 275.396637 97.809505 275.396637 101.836042 
Q 275.396637 105.314085 276.305582 107.499555 
Q 277.217058 109.685025 279.272944 109.685025 
Q 280.847773 109.685025 281.88078 108.154346 
Q 282.913787 106.619415 282.936574 103.188142 
L 279.298263 103.188142 
L 279.298263 100.99842 
L 284.4 100.99842 
L 284.4 111.441055 
L 283.387248 111.441055 
L 283.007466 108.928189 
Q 282.209924 110.403594 281.592146 110.977599 
Q 280.554075 111.959785 278.956459 111.959785 
Q 276.892978 111.959785 275.404233 109.714789 
Q 273.781298 106.895787 273.781298 101.980606 
Q 273.781298 97.07818 275.363723 94.182645 
Q 276.867659 91.418918 279.257753 91.418918 
z
M 278.996969 91.389155 
L 278.996969 91.389155 
z
" style="fill:#ffa600;"/>
   </g>
   <g id="patch_70">
    <path clip-path="url(#p6375a7bde8)" d="M 280.908813 65.745461 
L 279.102312 38.097714 
L 277.181771 65.745461 
L 280.908813 65.745461 
z
M 278.259969 28.8 
L 280.082022 28.8 
L 284.4 91.389155 
L 282.632376 91.389155 
L 281.427178 72.643764 
L 276.720426 72.643764 
L 275.43229 91.389155 
L 273.781298 91.389155 
L 278.259969 28.8 
z
M 279.094537 28.8 
L 279.094537 28.8 
z
" style="fill:#008000;"/>
   </g>
   <g id="matplotlib.axis_1">
    <g id="xtick_1">
     <g id="line2d_2">
      <path clip-path="url(#p6375a7bde8)" d="M 100.249351 141.64 
L 100.249351 28.8 
" style="fill:none;stroke:#cccccc;stroke-linecap:round;stroke-width:0.8;"/>
     </g>
     <g id="text_1">
      <!-- 0 -->
      <g style="fill:#262626;" transform="translate(94.688414 162.986875)scale(0.2 -0.2)">
       <defs>
        <path d="M 1731 4475 
Q 2600 4475 2988 3759 
Q 3288 3206 3288 2244 
Q 3288 1331 3016 734 
Q 2622 -122 1728 -122 
Q 922 -122 528 578 
Q 200 1163 200 2147 
Q 200 2909 397 3456 
Q 766 4475 1731 4475 
z
M 1725 391 
Q 2163 391 2422 778 
Q 2681 1166 2681 2222 
Q 2681 2984 2493 3476 
Q 2306 3969 1766 3969 
Q 1269 3969 1039 3501 
Q 809 3034 809 2125 
Q 809 1441 956 1025 
Q 1181 391 1725 391 
z
" id="Helvetica-30" transform="scale(0.015625)"/>
       </defs>
       <use xlink:href="#Helvetica-30"/>
      </g>
     </g>
    </g>
    <g id="xtick_2">
     <g id="line2d_3">
      <path clip-path="url(#p6375a7bde8)" d="M 212.025162 141.64 
L 212.025162 28.8 
" style="fill:none;stroke:#cccccc;stroke-linecap:round;stroke-width:0.8;"/>
     </g>
     <g id="text_2">
      <!-- 10 -->
      <g style="fill:#262626;" transform="translate(200.903287 162.986875)scale(0.2 -0.2)">
       <defs>
        <path d="M 613 3169 
L 613 3600 
Q 1222 3659 1462 3798 
Q 1703 3938 1822 4456 
L 2266 4456 
L 2266 0 
L 1666 0 
L 1666 3169 
L 613 3169 
z
" id="Helvetica-31" transform="scale(0.015625)"/>
       </defs>
       <use xlink:href="#Helvetica-31"/>
       <use x="55.615234" xlink:href="#Helvetica-30"/>
      </g>
     </g>
    </g>
    <g id="text_3">
     <!-- Position -->
     <g style="fill:#262626;" transform="translate(145.20125 189.089219)scale(0.25 -0.25)">
      <defs>
       <path d="M 547 4591 
L 2613 4591 
Q 3225 4591 3600 4245 
Q 3975 3900 3975 3275 
Q 3975 2738 3640 2339 
Q 3306 1941 2613 1941 
L 1169 1941 
L 1169 0 
L 547 0 
L 547 4591 
z
M 3347 3272 
Q 3347 3778 2972 3959 
Q 2766 4056 2406 4056 
L 1169 4056 
L 1169 2466 
L 2406 2466 
Q 2825 2466 3086 2644 
Q 3347 2822 3347 3272 
z
" id="Helvetica-50" transform="scale(0.015625)"/>
       <path d="M 1741 363 
Q 2300 363 2508 786 
Q 2716 1209 2716 1728 
Q 2716 2197 2566 2491 
Q 2328 2953 1747 2953 
Q 1231 2953 997 2559 
Q 763 2166 763 1609 
Q 763 1075 997 719 
Q 1231 363 1741 363 
z
M 1763 3444 
Q 2409 3444 2856 3012 
Q 3303 2581 3303 1744 
Q 3303 934 2909 406 
Q 2516 -122 1688 -122 
Q 997 -122 590 345 
Q 184 813 184 1600 
Q 184 2444 612 2944 
Q 1041 3444 1763 3444 
z
M 1744 3428 
L 1744 3428 
z
" id="Helvetica-6f" transform="scale(0.015625)"/>
       <path d="M 747 1050 
Q 772 769 888 619 
Q 1100 347 1625 347 
Q 1938 347 2175 483 
Q 2413 619 2413 903 
Q 2413 1119 2222 1231 
Q 2100 1300 1741 1391 
L 1294 1503 
Q 866 1609 663 1741 
Q 300 1969 300 2372 
Q 300 2847 642 3140 
Q 984 3434 1563 3434 
Q 2319 3434 2653 2991 
Q 2863 2709 2856 2384 
L 2325 2384 
Q 2309 2575 2191 2731 
Q 1997 2953 1519 2953 
Q 1200 2953 1036 2831 
Q 872 2709 872 2509 
Q 872 2291 1088 2159 
Q 1213 2081 1456 2022 
L 1828 1931 
Q 2434 1784 2641 1647 
Q 2969 1431 2969 969 
Q 2969 522 2630 197 
Q 2291 -128 1597 -128 
Q 850 -128 539 211 
Q 228 550 206 1050 
L 747 1050 
z
M 1578 3428 
L 1578 3428 
z
" id="Helvetica-73" transform="scale(0.015625)"/>
       <path d="M 413 3331 
L 984 3331 
L 984 0 
L 413 0 
L 413 3331 
z
M 413 4591 
L 984 4591 
L 984 3953 
L 413 3953 
L 413 4591 
z
" id="Helvetica-69" transform="scale(0.015625)"/>
       <path d="M 525 4281 
L 1094 4281 
L 1094 3347 
L 1628 3347 
L 1628 2888 
L 1094 2888 
L 1094 703 
Q 1094 528 1213 469 
Q 1278 434 1431 434 
Q 1472 434 1519 436 
Q 1566 438 1628 444 
L 1628 0 
Q 1531 -28 1426 -40 
Q 1322 -53 1200 -53 
Q 806 -53 665 148 
Q 525 350 525 672 
L 525 2888 
L 72 2888 
L 72 3347 
L 525 3347 
L 525 4281 
z
" id="Helvetica-74" transform="scale(0.015625)"/>
       <path d="M 413 3347 
L 947 3347 
L 947 2872 
Q 1184 3166 1450 3294 
Q 1716 3422 2041 3422 
Q 2753 3422 3003 2925 
Q 3141 2653 3141 2147 
L 3141 0 
L 2569 0 
L 2569 2109 
Q 2569 2416 2478 2603 
Q 2328 2916 1934 2916 
Q 1734 2916 1606 2875 
Q 1375 2806 1200 2600 
Q 1059 2434 1017 2257 
Q 975 2081 975 1753 
L 975 0 
L 413 0 
L 413 3347 
z
M 1734 3428 
L 1734 3428 
z
" id="Helvetica-6e" transform="scale(0.015625)"/>
      </defs>
      <use xlink:href="#Helvetica-50"/>
      <use x="66.699219" xlink:href="#Helvetica-6f"/>
      <use x="122.314453" xlink:href="#Helvetica-73"/>
      <use x="172.314453" xlink:href="#Helvetica-69"/>
      <use x="194.53125" xlink:href="#Helvetica-74"/>
      <use x="222.314453" xlink:href="#Helvetica-69"/>
      <use x="244.53125" xlink:href="#Helvetica-6f"/>
      <use x="300.146484" xlink:href="#Helvetica-6e"/>
     </g>
    </g>
   </g>
   <g id="matplotlib.axis_2">
    <g id="ytick_1">
     <g id="line2d_4">
      <path clip-path="url(#p6375a7bde8)" d="M 94.94 141.64 
L 284.4 141.64 
" style="fill:none;stroke:#cccccc;stroke-linecap:round;stroke-width:0.8;"/>
     </g>
     <g id="text_4">
      <!-- 0 -->
      <g style="fill:#262626;" transform="translate(76.818125 148.813438)scale(0.2 -0.2)">
       <use xlink:href="#Helvetica-30"/>
      </g>
     </g>
    </g>
    <g id="ytick_2">
     <g id="line2d_5">
      <path clip-path="url(#p6375a7bde8)" d="M 94.94 113.43 
L 284.4 113.43 
" style="fill:none;stroke:#cccccc;stroke-linecap:round;stroke-width:0.8;"/>
     </g>
     <g id="text_5">
      <!-- 0.25 -->
      <g style="fill:#262626;" transform="translate(49.018125 120.603438)scale(0.2 -0.2)">
       <defs>
        <path d="M 547 681 
L 1200 681 
L 1200 0 
L 547 0 
L 547 681 
z
" id="Helvetica-2e" transform="scale(0.015625)"/>
        <path d="M 200 0 
Q 231 578 439 1006 
Q 647 1434 1250 1784 
L 1850 2131 
Q 2253 2366 2416 2531 
Q 2672 2791 2672 3125 
Q 2672 3516 2437 3745 
Q 2203 3975 1813 3975 
Q 1234 3975 1013 3538 
Q 894 3303 881 2888 
L 309 2888 
Q 319 3472 525 3841 
Q 891 4491 1816 4491 
Q 2584 4491 2939 4075 
Q 3294 3659 3294 3150 
Q 3294 2613 2916 2231 
Q 2697 2009 2131 1694 
L 1703 1456 
Q 1397 1288 1222 1134 
Q 909 863 828 531 
L 3272 531 
L 3272 0 
L 200 0 
z
" id="Helvetica-32" transform="scale(0.015625)"/>
        <path d="M 791 1141 
Q 847 659 1238 475 
Q 1438 381 1700 381 
Q 2200 381 2440 700 
Q 2681 1019 2681 1406 
Q 2681 1875 2395 2131 
Q 2109 2388 1709 2388 
Q 1419 2388 1211 2275 
Q 1003 2163 856 1963 
L 369 1991 
L 709 4400 
L 3034 4400 
L 3034 3856 
L 1131 3856 
L 941 2613 
Q 1097 2731 1238 2791 
Q 1488 2894 1816 2894 
Q 2431 2894 2859 2497 
Q 3288 2100 3288 1491 
Q 3288 856 2895 371 
Q 2503 -113 1644 -113 
Q 1097 -113 676 195 
Q 256 503 206 1141 
L 791 1141 
z
" id="Helvetica-35" transform="scale(0.015625)"/>
       </defs>
       <use xlink:href="#Helvetica-30"/>
       <use x="55.615234" xlink:href="#Helvetica-2e"/>
       <use x="83.398438" xlink:href="#Helvetica-32"/>
       <use x="139.013672" xlink:href="#Helvetica-35"/>
      </g>
     </g>
    </g>
    <g id="ytick_3">
     <g id="line2d_6">
      <path clip-path="url(#p6375a7bde8)" d="M 94.94 85.22 
L 284.4 85.22 
" style="fill:none;stroke:#cccccc;stroke-linecap:round;stroke-width:0.8;"/>
     </g>
     <g id="text_6">
      <!-- 0.50 -->
      <g style="fill:#262626;" transform="translate(49.018125 92.393438)scale(0.2 -0.2)">
       <use xlink:href="#Helvetica-30"/>
       <use x="55.615234" xlink:href="#Helvetica-2e"/>
       <use x="83.398438" xlink:href="#Helvetica-35"/>
       <use x="139.013672" xlink:href="#Helvetica-30"/>
      </g>
     </g>
    </g>
    <g id="ytick_4">
     <g id="line2d_7">
      <path clip-path="url(#p6375a7bde8)" d="M 94.94 57.01 
L 284.4 57.01 
" style="fill:none;stroke:#cccccc;stroke-linecap:round;stroke-width:0.8;"/>
     </g>
     <g id="text_7">
      <!-- 0.75 -->
      <g style="fill:#262626;" transform="translate(49.018125 64.183437)scale(0.2 -0.2)">
       <defs>
        <path d="M 3347 4400 
L 3347 3909 
Q 3131 3700 2773 3181 
Q 2416 2663 2141 2063 
Q 1869 1478 1728 997 
Q 1638 688 1494 0 
L 872 0 
Q 1084 1281 1809 2550 
Q 2238 3294 2709 3834 
L 234 3834 
L 234 4400 
L 3347 4400 
z
" id="Helvetica-37" transform="scale(0.015625)"/>
       </defs>
       <use xlink:href="#Helvetica-30"/>
       <use x="55.615234" xlink:href="#Helvetica-2e"/>
       <use x="83.398438" xlink:href="#Helvetica-37"/>
       <use x="139.013672" xlink:href="#Helvetica-35"/>
      </g>
     </g>
    </g>
    <g id="ytick_5">
     <g id="line2d_8">
      <path clip-path="url(#p6375a7bde8)" d="M 94.94 28.8 
L 284.4 28.8 
" style="fill:none;stroke:#cccccc;stroke-linecap:round;stroke-width:0.8;"/>
     </g>
     <g id="text_8">
      <!-- 1.0 -->
      <g style="fill:#262626;" transform="translate(60.14 35.973438)scale(0.2 -0.2)">
       <use xlink:href="#Helvetica-31"/>
       <use x="55.615234" xlink:href="#Helvetica-2e"/>
       <use x="83.398438" xlink:href="#Helvetica-30"/>
      </g>
     </g>
    </g>
    <g id="text_9">
     <!-- Probability -->
     <g style="fill:#262626;" transform="translate(39.65875 143.579375)rotate(-90)scale(0.25 -0.25)">
      <defs>
       <path d="M 428 3347 
L 963 3347 
L 963 2769 
Q 1028 2938 1284 3180 
Q 1541 3422 1875 3422 
Q 1891 3422 1928 3419 
Q 1966 3416 2056 3406 
L 2056 2813 
Q 2006 2822 1964 2825 
Q 1922 2828 1872 2828 
Q 1447 2828 1219 2554 
Q 991 2281 991 1925 
L 991 0 
L 428 0 
L 428 3347 
z
" id="Helvetica-72" transform="scale(0.015625)"/>
       <path d="M 369 4606 
L 916 4606 
L 916 2941 
Q 1100 3181 1356 3307 
Q 1613 3434 1913 3434 
Q 2538 3434 2927 3004 
Q 3316 2575 3316 1738 
Q 3316 944 2931 419 
Q 2547 -106 1866 -106 
Q 1484 -106 1222 78 
Q 1066 188 888 428 
L 888 0 
L 369 0 
L 369 4606 
z
M 1831 391 
Q 2288 391 2514 753 
Q 2741 1116 2741 1709 
Q 2741 2238 2514 2584 
Q 2288 2931 1847 2931 
Q 1463 2931 1173 2647 
Q 884 2363 884 1709 
Q 884 1238 1003 944 
Q 1225 391 1831 391 
z
" id="Helvetica-62" transform="scale(0.015625)"/>
       <path d="M 844 891 
Q 844 647 1022 506 
Q 1200 366 1444 366 
Q 1741 366 2019 503 
Q 2488 731 2488 1250 
L 2488 1703 
Q 2384 1638 2221 1594 
Q 2059 1550 1903 1531 
L 1563 1488 
Q 1256 1447 1103 1359 
Q 844 1213 844 891 
z
M 2206 2028 
Q 2400 2053 2466 2191 
Q 2503 2266 2503 2406 
Q 2503 2694 2298 2823 
Q 2094 2953 1713 2953 
Q 1272 2953 1088 2716 
Q 984 2584 953 2325 
L 428 2325 
Q 444 2944 830 3186 
Q 1216 3428 1725 3428 
Q 2316 3428 2684 3203 
Q 3050 2978 3050 2503 
L 3050 575 
Q 3050 488 3086 434 
Q 3122 381 3238 381 
Q 3275 381 3322 386 
Q 3369 391 3422 400 
L 3422 -16 
Q 3291 -53 3222 -62 
Q 3153 -72 3034 -72 
Q 2744 -72 2613 134 
Q 2544 244 2516 444 
Q 2344 219 2022 53 
Q 1700 -113 1313 -113 
Q 847 -113 551 170 
Q 256 453 256 878 
Q 256 1344 547 1600 
Q 838 1856 1309 1916 
L 2206 2028 
z
M 1741 3428 
L 1741 3428 
z
" id="Helvetica-61" transform="scale(0.015625)"/>
       <path d="M 428 4591 
L 991 4591 
L 991 0 
L 428 0 
L 428 4591 
z
" id="Helvetica-6c" transform="scale(0.015625)"/>
       <path d="M 2503 3347 
L 3125 3347 
Q 3006 3025 2597 1878 
Q 2291 1016 2084 472 
Q 1597 -809 1397 -1090 
Q 1197 -1372 709 -1372 
Q 591 -1372 527 -1362 
Q 463 -1353 369 -1328 
L 369 -816 
Q 516 -856 581 -865 
Q 647 -875 697 -875 
Q 853 -875 926 -823 
Q 1000 -772 1050 -697 
Q 1066 -672 1162 -440 
Q 1259 -209 1303 -97 
L 66 3347 
L 703 3347 
L 1600 622 
L 2503 3347 
z
M 1597 3428 
L 1597 3428 
z
" id="Helvetica-79" transform="scale(0.015625)"/>
      </defs>
      <use xlink:href="#Helvetica-50"/>
      <use x="66.699219" xlink:href="#Helvetica-72"/>
      <use x="100" xlink:href="#Helvetica-6f"/>
      <use x="155.615234" xlink:href="#Helvetica-62"/>
      <use x="211.230469" xlink:href="#Helvetica-61"/>
      <use x="266.845703" xlink:href="#Helvetica-62"/>
      <use x="322.460938" xlink:href="#Helvetica-69"/>
      <use x="344.677734" xlink:href="#Helvetica-6c"/>
      <use x="366.894531" xlink:href="#Helvetica-69"/>
      <use x="389.111328" xlink:href="#Helvetica-74"/>
      <use x="416.894531" xlink:href="#Helvetica-79"/>
     </g>
    </g>
   </g>
   <g id="patch_71">
    <path d="M 94.94 141.64 
L 94.94 28.8 
" style="fill:none;stroke:#000000;stroke-linecap:square;stroke-linejoin:miter;"/>
   </g>
  </g>
 </g>
 <defs>
  <clipPath id="p6375a7bde8">
   <rect height="112.84" width="189.46" x="94.94" y="28.8"/>
  </clipPath>
 </defs>
</svg>
