<?xml version="1.0" encoding="utf-8" standalone="no"?>
<!DOCTYPE svg PUBLIC "-//W3C//DTD SVG 1.1//EN"
  "http://www.w3.org/Graphics/SVG/1.1/DTD/svg11.dtd">
<svg height="216pt" version="1.1" viewBox="0 0 306 216" width="306pt" xmlns="http://www.w3.org/2000/svg" xmlns:xlink="http://www.w3.org/1999/xlink">
 <metadata>
  <rdf:RDF xmlns:cc="http://creativecommons.org/ns#" xmlns:dc="http://purl.org/dc/elements/1.1/" xmlns:rdf="http://www.w3.org/1999/02/22-rdf-syntax-ns#">
   <cc:Work>
    <dc:type rdf:resource="http://purl.org/dc/dcmitype/StillImage"/>
    <dc:date>2022-12-15T23:57:25.920165</dc:date>
    <dc:format>image/svg+xml</dc:format>
    <dc:creator>
     <cc:Agent>
      <dc:title>Matplotlib v3.4.2, https://matplotlib.org/</dc:title>
     </cc:Agent>
    </dc:creator>
   </cc:Work>
  </rdf:RDF>
 </metadata>
 <defs>
  <style type="text/css">*{stroke-linecap:butt;stroke-linejoin:round;}</style>
 </defs>
 <g id="figure_1">
  <g id="patch_1">
   <path d="M 0 216 
L 306 216 
L 306 0 
L 0 0 
z
" style="fill:#ffffff;"/>
  </g>
  <g id="axes_1">
   <g id="patch_2">
    <path d="M 94.94 141.64 
L 284.4 141.64 
L 284.4 28.8 
L 94.94 28.8 
z
" style="fill:#ffffff;"/>
   </g>
   <g id="line2d_1">
    <path clip-path="url(#p277fe0fb52)" d="M 94.94 141.64 
L 284.4 141.64 
" style="fill:none;stroke:#000000;stroke-linecap:round;stroke-width:0.5;"/>
   </g>
   <g id="patch_3">
    <path clip-path="url(#p277fe0fb52)" d="M 102.067515 132.403328 
L 100.261014 122.44481 
L 98.340473 132.403328 
L 102.067515 132.403328 
z
M 99.418672 119.095841 
L 101.240724 119.095841 
L 105.558702 141.64 
L 103.791078 141.64 
L 102.58588 134.888047 
L 97.879128 134.888047 
L 96.590992 141.64 
L 94.94 141.64 
L 99.418672 119.095841 
z
M 100.253239 119.095841 
L 100.253239 119.095841 
z
" style="fill:#008000;"/>
   </g>
   <g id="patch_4">
    <path clip-path="url(#p277fe0fb52)" d="M 100.416455 89.630296 
Q 102.054581 89.630296 103.249628 91.155112 
Q 104.981434 93.344748 105.368811 98.834086 
L 103.811705 98.834086 
Q 103.525603 95.766156 102.63185 94.363325 
Q 101.738096 92.960494 100.375945 92.960494 
Q 98.763138 92.960494 97.659238 95.882042 
Q 96.555339 98.79749 96.555339 104.573493 
Q 96.555339 109.562691 97.464284 112.697713 
Q 98.37576 115.832735 100.431646 115.832735 
Q 102.006475 115.832735 103.039482 113.637 
Q 104.072489 111.435166 104.095276 106.513059 
L 100.456965 106.513059 
L 100.456965 103.371938 
L 105.558702 103.371938 
L 105.558702 118.351731 
L 104.54595 118.351731 
L 104.166168 114.747066 
Q 103.368626 116.863511 102.750848 117.686911 
Q 101.712777 119.095841 100.115161 119.095841 
Q 98.05168 119.095841 96.562935 115.87543 
Q 94.94 111.831618 94.94 104.780868 
Q 94.94 97.748417 96.522425 93.594818 
Q 98.026361 89.630296 100.416455 89.630296 
z
M 100.155671 89.587601 
L 100.155671 89.587601 
z
" style="fill:#ffa600;"/>
   </g>
   <g id="patch_5">
    <path clip-path="url(#p277fe0fb52)" d="M 105.558702 59.891609 
L 105.558702 63.429773 
L 101.148734 63.429773 
L 101.148734 89.587601 
L 99.349968 89.587601 
L 99.349968 63.429773 
L 94.94 63.429773 
L 94.94 59.891609 
L 105.558702 59.891609 
z
" style="fill:#ff0000;"/>
   </g>
   <g id="patch_6">
    <path clip-path="url(#p277fe0fb52)" d="M 100.523163 28.8 
Q 102.797109 28.8 104.051431 31.758043 
Q 105.305752 34.709656 105.443962 38.465086 
L 103.863673 38.465086 
Q 103.595077 35.616361 102.791894 33.950854 
Q 101.988711 32.278916 100.53881 32.278916 
Q 98.770765 32.278916 97.683339 35.346279 
Q 96.595913 38.407211 96.595913 44.734852 
Q 96.595913 49.924289 97.576421 53.152415 
Q 98.559538 56.37411 100.507517 56.37411 
Q 102.299032 56.37411 103.237817 52.97879 
Q 103.733287 51.191103 103.978414 48.271643 
L 105.558702 48.271643 
Q 105.347475 52.933777 104.158348 56.091167 
Q 102.731916 59.891609 100.311937 59.891609 
Q 98.225748 59.891609 96.807139 56.772803 
Q 94.94 52.657264 94.94 44.053216 
Q 94.94 37.526228 96.342962 33.346384 
Q 97.858057 28.8 100.523163 28.8 
z
M 100.197196 28.8 
L 100.197196 28.8 
z
" style="fill:#0000ff;"/>
   </g>
   <g id="patch_7">
    <path clip-path="url(#p277fe0fb52)" d="M 111.594036 115.147597 
Q 113.232162 115.147597 114.427209 116.518556 
Q 116.159015 118.487252 116.546392 123.422703 
L 114.989286 123.422703 
Q 114.703184 120.664334 113.809431 119.403052 
Q 112.915677 118.141771 111.553526 118.141771 
Q 109.940719 118.141771 108.83682 120.768527 
Q 107.73292 123.3898 107.73292 128.582991 
Q 107.73292 133.068767 108.641865 135.887458 
Q 109.553341 138.706149 111.609227 138.706149 
Q 113.184056 138.706149 114.217063 136.731968 
Q 115.25007 134.752304 115.272857 130.32685 
L 111.634546 130.32685 
L 111.634546 127.502675 
L 116.736283 127.502675 
L 116.736283 140.970972 
L 115.723531 140.970972 
L 115.34375 137.730026 
Q 114.546208 139.632917 113.928429 140.373234 
Q 112.890358 141.64 111.292743 141.64 
Q 109.229261 141.64 107.740516 138.744536 
Q 106.117581 135.108753 106.117581 128.769441 
Q 106.117581 122.44658 107.700006 118.712089 
Q 109.203942 115.147597 111.594036 115.147597 
z
M 111.333253 115.10921 
L 111.333253 115.10921 
z
" style="fill:#ffa600;"/>
   </g>
   <g id="patch_8">
    <path clip-path="url(#p277fe0fb52)" d="M 113.245097 103.636843 
L 111.438595 91.267912 
L 109.518054 103.636843 
L 113.245097 103.636843 
z
M 110.596253 87.108341 
L 112.418305 87.108341 
L 116.736283 115.10921 
L 114.968659 115.10921 
L 113.763461 106.722977 
L 109.056709 106.722977 
L 107.768573 115.10921 
L 106.117581 115.10921 
L 110.596253 87.108341 
z
M 111.43082 87.108341 
L 111.43082 87.108341 
z
" style="fill:#008000;"/>
   </g>
   <g id="patch_9">
    <path clip-path="url(#p277fe0fb52)" d="M 116.736283 58.464757 
L 116.736283 61.87753 
L 112.326315 61.87753 
L 112.326315 87.108341 
L 110.527549 87.108341 
L 110.527549 61.87753 
L 106.117581 61.87753 
L 106.117581 58.464757 
L 116.736283 58.464757 
z
" style="fill:#ff0000;"/>
   </g>
   <g id="patch_10">
    <path clip-path="url(#p277fe0fb52)" d="M 111.700744 28.8 
Q 113.97469 28.8 115.229012 31.622293 
Q 116.483333 34.438451 116.621543 38.021537 
L 115.041255 38.021537 
Q 114.772658 35.303545 113.969475 33.714472 
Q 113.166292 32.119262 111.716391 32.119262 
Q 109.948346 32.119262 108.86092 35.045858 
Q 107.773494 37.966318 107.773494 44.003571 
Q 107.773494 48.954856 108.754002 52.034837 
Q 109.737119 55.108682 111.685098 55.108682 
Q 113.476613 55.108682 114.415398 51.86918 
Q 114.910868 50.163533 115.155995 47.378053 
L 116.736283 47.378053 
Q 116.525057 51.826232 115.335929 54.838724 
Q 113.909497 58.464757 111.489518 58.464757 
Q 109.403329 58.464757 107.98472 55.489078 
Q 106.117581 51.562409 106.117581 43.353217 
Q 106.117581 37.125765 107.520543 33.137742 
Q 109.035638 28.8 111.700744 28.8 
z
M 111.374777 28.8 
L 111.374777 28.8 
z
" style="fill:#0000ff;"/>
   </g>
   <g id="patch_11">
    <path clip-path="url(#p277fe0fb52)" d="M 124.422678 131.130729 
L 122.616176 119.800159 
L 120.695635 131.130729 
L 124.422678 131.130729 
z
M 121.773834 115.98978 
L 123.595886 115.98978 
L 127.913864 141.64 
L 126.14624 141.64 
L 124.941042 133.957784 
L 120.23429 133.957784 
L 118.946154 141.64 
L 117.295162 141.64 
L 121.773834 115.98978 
z
M 122.608401 115.98978 
L 122.608401 115.98978 
z
" style="fill:#008000;"/>
   </g>
   <g id="patch_12">
    <path clip-path="url(#p277fe0fb52)" d="M 122.771617 88.519644 
Q 124.409743 88.519644 125.60479 89.941199 
Q 127.336596 91.982552 127.723973 97.100152 
L 126.166868 97.100152 
Q 125.880765 94.239982 124.987012 92.932151 
Q 124.093258 91.62432 122.731107 91.62432 
Q 121.1183 91.62432 120.014401 94.348021 
Q 118.910501 97.066034 118.910501 102.450886 
Q 118.910501 107.102216 119.819446 110.024933 
Q 120.730923 112.947651 122.786809 112.947651 
Q 124.361638 112.947651 125.394644 110.900611 
Q 126.427651 108.847886 126.450438 104.259105 
L 122.812127 104.259105 
L 122.812127 101.330701 
L 127.913864 101.330701 
L 127.913864 115.296061 
L 126.901113 115.296061 
L 126.521331 111.935504 
Q 125.723789 113.908623 125.10601 114.676263 
Q 124.06794 115.98978 122.470324 115.98978 
Q 120.406842 115.98978 118.918097 112.987455 
Q 117.295162 109.21749 117.295162 102.644218 
Q 117.295162 96.088004 118.877587 92.215688 
Q 120.381523 88.519644 122.771617 88.519644 
z
M 122.510834 88.47984 
L 122.510834 88.47984 
z
" style="fill:#ffa600;"/>
   </g>
   <g id="patch_13">
    <path clip-path="url(#p277fe0fb52)" d="M 127.913864 58.818783 
L 127.913864 62.352784 
L 123.503896 62.352784 
L 123.503896 88.47984 
L 121.705131 88.47984 
L 121.705131 62.352784 
L 117.295162 62.352784 
L 117.295162 58.818783 
L 127.913864 58.818783 
z
" style="fill:#ff0000;"/>
   </g>
   <g id="patch_14">
    <path clip-path="url(#p277fe0fb52)" d="M 122.878326 28.8 
Q 125.152272 28.8 126.406593 31.655975 
Q 127.660914 34.505742 127.799124 38.131589 
L 126.218836 38.131589 
Q 125.950239 35.38116 125.147056 33.773122 
Q 124.343873 32.158875 122.893972 32.158875 
Q 121.125927 32.158875 120.038501 35.120397 
Q 118.951075 38.075711 118.951075 44.185014 
Q 118.951075 49.195388 119.931584 52.312126 
Q 120.9147 55.422656 122.862679 55.422656 
Q 124.654194 55.422656 125.592979 52.144493 
Q 126.088449 50.418491 126.333576 47.599767 
L 127.913864 47.599767 
Q 127.702638 52.101032 126.51351 55.149476 
Q 125.087078 58.818783 122.667099 58.818783 
Q 120.58091 58.818783 119.162301 55.807592 
Q 117.295162 51.834061 117.295162 43.526898 
Q 117.295162 37.225127 118.698124 33.18951 
Q 120.213219 28.8 122.878326 28.8 
z
M 122.552359 28.8 
L 122.552359 28.8 
z
" style="fill:#0000ff;"/>
   </g>
   <g id="patch_15">
    <path clip-path="url(#p277fe0fb52)" d="M 133.949198 115.593541 
Q 135.587324 115.593541 136.782371 116.941422 
Q 138.514177 118.87698 138.901554 123.729353 
L 137.344449 123.729353 
Q 137.058346 121.017415 136.164593 119.777364 
Q 135.270839 118.537314 133.908688 118.537314 
Q 132.295881 118.537314 131.191982 121.119854 
Q 130.088082 123.697003 130.088082 128.802778 
Q 130.088082 133.213046 130.997027 135.98429 
Q 131.908504 138.755534 133.96439 138.755534 
Q 135.539219 138.755534 136.572225 136.814585 
Q 137.605232 134.868244 137.628019 130.517283 
L 133.989709 130.517283 
L 133.989709 127.740647 
L 139.091445 127.740647 
L 139.091445 140.982234 
L 138.078694 140.982234 
L 137.698912 137.795842 
Q 136.90137 139.666702 136.283591 140.394558 
Q 135.245521 141.64 133.647905 141.64 
Q 131.584423 141.64 130.095678 138.793275 
Q 128.472743 135.218693 128.472743 128.98609 
Q 128.472743 122.769661 130.055168 119.098032 
Q 131.559104 115.593541 133.949198 115.593541 
z
M 133.688415 115.5558 
L 133.688415 115.5558 
z
" style="fill:#ffa600;"/>
   </g>
   <g id="patch_16">
    <path clip-path="url(#p277fe0fb52)" d="M 134.055907 87.8816 
Q 136.329853 87.8816 137.584174 90.514513 
Q 138.838495 93.141701 138.976705 96.484355 
L 137.396417 96.484355 
Q 137.12782 93.948746 136.324637 92.466302 
Q 135.521454 90.978134 134.071553 90.978134 
Q 132.303508 90.978134 131.216082 93.70835 
Q 130.128656 96.432842 130.128656 102.064985 
Q 130.128656 106.68403 131.109165 109.557338 
Q 132.092281 112.424924 134.04026 112.424924 
Q 135.831775 112.424924 136.77056 109.402798 
Q 137.26603 107.811603 137.511157 105.213033 
L 139.091445 105.213033 
Q 138.880219 109.362732 137.691091 112.17308 
Q 136.264659 115.5558 133.84468 115.5558 
Q 131.758491 115.5558 130.339883 112.779794 
Q 128.472743 109.116612 128.472743 101.458271 
Q 128.472743 95.648692 129.875705 91.928272 
Q 131.3908 87.8816 134.055907 87.8816 
z
M 133.72994 87.8816 
L 133.72994 87.8816 
z
" style="fill:#0000ff;"/>
   </g>
   <g id="patch_17">
    <path clip-path="url(#p277fe0fb52)" d="M 139.091445 58.941233 
L 139.091445 62.389366 
L 134.681477 62.389366 
L 134.681477 87.8816 
L 132.882712 87.8816 
L 132.882712 62.389366 
L 128.472743 62.389366 
L 128.472743 58.941233 
L 139.091445 58.941233 
z
" style="fill:#ff0000;"/>
   </g>
   <g id="patch_18">
    <path clip-path="url(#p277fe0fb52)" d="M 135.600259 46.591928 
L 133.793758 33.277526 
L 131.873216 46.591928 
L 135.600259 46.591928 
z
M 132.951415 28.8 
L 134.773467 28.8 
L 139.091445 58.941233 
L 137.323822 58.941233 
L 136.118624 49.913963 
L 131.411872 49.913963 
L 130.123735 58.941233 
L 128.472743 58.941233 
L 132.951415 28.8 
z
M 133.785982 28.8 
L 133.785982 28.8 
z
" style="fill:#008000;"/>
   </g>
   <g id="patch_19">
    <path clip-path="url(#p277fe0fb52)" d="M 145.12678 115.719276 
Q 146.764906 115.719276 147.959953 117.060651 
Q 149.691758 118.986865 150.079136 123.815813 
L 148.52203 123.815813 
Q 148.235927 121.116968 147.342174 119.882903 
Q 146.448421 118.648838 145.086269 118.648838 
Q 143.473462 118.648838 142.369563 121.218912 
Q 141.265664 123.78362 141.265664 128.864748 
Q 141.265664 133.253726 142.174608 136.011592 
Q 143.086085 138.769458 145.141971 138.769458 
Q 146.7168 138.769458 147.749807 136.837879 
Q 148.782813 134.900934 148.8056 130.570976 
L 145.16729 130.570976 
L 145.16729 127.807744 
L 150.269027 127.807744 
L 150.269027 140.985409 
L 149.256275 140.985409 
L 148.876493 137.814399 
Q 148.078951 139.676227 147.461172 140.40057 
Q 146.423102 141.64 144.825486 141.64 
Q 142.762004 141.64 141.273259 138.807017 
Q 139.650324 135.249691 139.650324 129.047175 
Q 139.650324 122.860755 141.232749 119.20685 
Q 142.736685 115.719276 145.12678 115.719276 
z
M 144.865996 115.681717 
L 144.865996 115.681717 
z
" style="fill:#ffa600;"/>
   </g>
   <g id="patch_20">
    <path clip-path="url(#p277fe0fb52)" d="M 146.77784 104.620065 
L 144.971339 92.693946 
L 143.050797 104.620065 
L 146.77784 104.620065 
z
M 144.128996 88.683289 
L 145.951048 88.683289 
L 150.269027 115.681717 
L 148.501403 115.681717 
L 147.296205 107.595714 
L 142.589453 107.595714 
L 141.301316 115.681717 
L 139.650324 115.681717 
L 144.128996 88.683289 
z
M 144.963563 88.683289 
L 144.963563 88.683289 
z
" style="fill:#008000;"/>
   </g>
   <g id="patch_21">
    <path clip-path="url(#p277fe0fb52)" d="M 145.233488 59.117536 
Q 147.507434 59.117536 148.761755 61.93041 
Q 150.016076 64.73717 150.154286 68.308297 
L 148.573998 68.308297 
Q 148.305401 65.599377 147.502218 64.015606 
Q 146.699036 62.425721 145.249134 62.425721 
Q 143.481089 62.425721 142.393663 65.342549 
Q 141.306237 68.253262 141.306237 74.270367 
Q 141.306237 79.205126 142.286746 82.274828 
Q 143.269862 85.338414 145.217841 85.338414 
Q 147.009356 85.338414 147.948141 82.109724 
Q 148.443611 80.40977 148.688738 77.633586 
L 150.269027 77.633586 
Q 150.0578 82.06692 148.868672 85.069357 
Q 147.44224 88.683289 145.022261 88.683289 
Q 142.936072 88.683289 141.517464 85.717541 
Q 139.650324 81.803977 139.650324 73.622183 
Q 139.650324 67.415515 141.053287 63.440802 
Q 142.568381 59.117536 145.233488 59.117536 
z
M 144.907521 59.117536 
L 144.907521 59.117536 
z
" style="fill:#0000ff;"/>
   </g>
   <g id="patch_22">
    <path clip-path="url(#p277fe0fb52)" d="M 150.269027 28.8 
L 150.269027 32.412218 
L 145.859058 32.412218 
L 145.859058 59.117536 
L 144.060293 59.117536 
L 144.060293 32.412218 
L 139.650324 32.412218 
L 139.650324 28.8 
L 150.269027 28.8 
z
" style="fill:#ff0000;"/>
   </g>
   <g id="patch_23">
    <path clip-path="url(#p277fe0fb52)" d="M 156.304361 116.80002 
Q 157.942487 116.80002 159.137534 118.085468 
Q 160.869339 119.93137 161.256717 124.558979 
L 159.699611 124.558979 
Q 159.413509 121.97266 158.519755 120.790048 
Q 157.626002 119.607437 156.263851 119.607437 
Q 154.651043 119.607437 153.547144 122.070354 
Q 152.443245 124.528128 152.443245 129.397402 
Q 152.443245 133.603385 153.352189 136.246264 
Q 154.263666 138.889143 156.319552 138.889143 
Q 157.894381 138.889143 158.927388 137.038099 
Q 159.960394 135.181914 159.983181 131.032491 
L 156.344871 131.032491 
L 156.344871 128.38447 
L 161.446608 128.38447 
L 161.446608 141.012702 
L 160.433856 141.012702 
L 160.054074 137.973905 
Q 159.256532 139.758105 158.638753 140.452247 
Q 157.600683 141.64 156.003067 141.64 
Q 153.939585 141.64 152.45084 138.925136 
Q 150.827906 135.51613 150.827906 129.572223 
Q 150.827906 123.643741 152.41033 120.142183 
Q 153.914267 116.80002 156.304361 116.80002 
z
M 156.043577 116.764028 
L 156.043577 116.764028 
z
" style="fill:#ffa600;"/>
   </g>
   <g id="patch_24">
    <path clip-path="url(#p277fe0fb52)" d="M 157.955421 105.494634 
L 156.14892 93.344539 
L 154.228378 105.494634 
L 157.955421 105.494634 
z
M 155.306577 89.25856 
L 157.128629 89.25856 
L 161.446608 116.764028 
L 159.678984 116.764028 
L 158.473786 108.526167 
L 153.767034 108.526167 
L 152.478897 116.764028 
L 150.827906 116.764028 
L 155.306577 89.25856 
z
M 156.141144 89.25856 
L 156.141144 89.25856 
z
" style="fill:#008000;"/>
   </g>
   <g id="patch_25">
    <path clip-path="url(#p277fe0fb52)" d="M 156.411069 59.727111 
Q 158.685015 59.727111 159.939336 62.536722 
Q 161.193657 65.340224 161.331867 68.907208 
L 159.751579 68.907208 
Q 159.482982 66.201431 158.679799 64.619498 
Q 157.876617 63.031457 156.426715 63.031457 
Q 154.65867 63.031457 153.571244 65.944901 
Q 152.483818 68.852237 152.483818 74.86236 
Q 152.483818 79.791394 153.464327 82.857534 
Q 154.447444 85.917567 156.395423 85.917567 
Q 158.186937 85.917567 159.125722 82.692622 
Q 159.621192 80.99464 159.866319 78.221677 
L 161.446608 78.221677 
Q 161.235381 82.649867 160.046253 85.648821 
Q 158.619822 89.25856 156.199842 89.25856 
Q 154.113653 89.25856 152.695045 86.296253 
Q 150.827906 82.38723 150.827906 74.214928 
Q 150.827906 68.015462 152.230868 64.04536 
Q 153.745962 59.727111 156.411069 59.727111 
z
M 156.085102 59.727111 
L 156.085102 59.727111 
z
" style="fill:#0000ff;"/>
   </g>
   <g id="patch_26">
    <path clip-path="url(#p277fe0fb52)" d="M 161.446608 28.8 
L 161.446608 32.484846 
L 157.036639 32.484846 
L 157.036639 59.727111 
L 155.237874 59.727111 
L 155.237874 32.484846 
L 150.827906 32.484846 
L 150.827906 28.8 
L 161.446608 28.8 
z
" style="fill:#ff0000;"/>
   </g>
   <g id="patch_27">
    <path clip-path="url(#p277fe0fb52)" d="M 167.481942 115.557576 
Q 169.120068 115.557576 170.315115 116.907318 
Q 172.04692 118.845548 172.434298 123.704622 
L 170.877192 123.704622 
Q 170.59109 120.98894 169.697336 119.747176 
Q 168.803583 118.505413 167.441432 118.505413 
Q 165.828625 118.505413 164.724725 121.09152 
Q 163.620826 123.672228 163.620826 128.785052 
Q 163.620826 133.20141 164.52977 135.97648 
Q 165.441247 138.751551 167.497133 138.751551 
Q 169.071962 138.751551 170.104969 136.807922 
Q 171.137976 134.858894 171.160763 130.501925 
L 167.522452 130.501925 
L 167.522452 127.721455 
L 172.624189 127.721455 
L 172.624189 140.981326 
L 171.611437 140.981326 
L 171.231655 137.790534 
Q 170.434113 139.663977 169.816335 140.392838 
Q 168.778264 141.64 167.180648 141.64 
Q 165.117166 141.64 163.628421 138.789344 
Q 162.005487 135.209827 162.005487 128.968617 
Q 162.005487 122.743605 163.587911 119.066906 
Q 165.091848 115.557576 167.481942 115.557576 
z
M 167.221158 115.519783 
L 167.221158 115.519783 
z
" style="fill:#ffa600;"/>
   </g>
   <g id="patch_28">
    <path clip-path="url(#p277fe0fb52)" d="M 167.58865 88.011209 
Q 169.862596 88.011209 171.116917 90.628364 
Q 172.371238 93.239829 172.509448 96.562478 
L 170.92916 96.562478 
Q 170.660563 94.042044 169.857381 92.568472 
Q 169.054198 91.08921 167.604296 91.08921 
Q 165.836251 91.08921 164.748825 93.803086 
Q 163.661399 96.511273 163.661399 102.109709 
Q 163.661399 106.701109 164.641908 109.557221 
Q 165.625025 112.407644 167.573004 112.407644 
Q 169.364518 112.407644 170.303304 109.403606 
Q 170.798773 107.821934 171.043901 105.238916 
L 172.624189 105.238916 
Q 172.412962 109.363779 171.223834 112.157308 
Q 169.797403 115.519783 167.377423 115.519783 
Q 165.291234 115.519783 163.872626 112.760391 
Q 162.005487 109.119132 162.005487 101.506625 
Q 162.005487 95.731816 163.408449 92.033662 
Q 164.923544 88.011209 167.58865 88.011209 
z
M 167.262683 88.011209 
L 167.262683 88.011209 
z
" style="fill:#0000ff;"/>
   </g>
   <g id="patch_29">
    <path clip-path="url(#p277fe0fb52)" d="M 169.133002 76.261582 
L 167.326501 63.593724 
L 165.40596 76.261582 
L 169.133002 76.261582 
z
M 166.484158 59.333625 
L 168.30621 59.333625 
L 172.624189 88.011209 
L 170.856565 88.011209 
L 169.651367 79.422301 
L 164.944615 79.422301 
L 163.656478 88.011209 
L 162.005487 88.011209 
L 166.484158 59.333625 
z
M 167.318725 59.333625 
L 167.318725 59.333625 
z
" style="fill:#008000;"/>
   </g>
   <g id="patch_30">
    <path clip-path="url(#p277fe0fb52)" d="M 172.624189 28.8 
L 172.624189 32.437964 
L 168.21422 32.437964 
L 168.21422 59.333625 
L 166.415455 59.333625 
L 166.415455 32.437964 
L 162.005487 32.437964 
L 162.005487 28.8 
L 172.624189 28.8 
z
" style="fill:#ff0000;"/>
   </g>
   <g id="patch_31">
    <path clip-path="url(#p277fe0fb52)" d="M 178.659523 114.125991 
Q 180.297649 114.125991 181.492696 115.549817 
Q 183.224501 117.594431 183.611879 122.720203 
L 182.054773 122.720203 
Q 181.768671 119.855466 180.874917 118.545546 
Q 179.981164 117.235627 178.619013 117.235627 
Q 177.006206 117.235627 175.902306 119.963677 
Q 174.798407 122.686032 174.798407 128.079484 
Q 174.798407 132.738241 175.707352 135.665627 
Q 176.618828 138.593013 178.674714 138.593013 
Q 180.249543 138.593013 181.28255 136.542704 
Q 182.315557 134.486699 182.338344 129.89059 
L 178.700033 129.89059 
L 178.700033 126.957509 
L 183.80177 126.957509 
L 183.80177 140.945173 
L 182.789018 140.945173 
L 182.409236 137.579249 
Q 181.611694 139.555519 180.993916 140.324385 
Q 179.955845 141.64 178.358229 141.64 
Q 176.294748 141.64 174.806003 138.63288 
Q 173.183068 134.856894 173.183068 128.273124 
Q 173.183068 121.70644 174.765492 117.827938 
Q 176.269429 114.125991 178.659523 114.125991 
z
M 178.398739 114.086124 
L 178.398739 114.086124 
z
" style="fill:#ffa600;"/>
   </g>
   <g id="patch_32">
    <path clip-path="url(#p277fe0fb52)" d="M 178.766231 86.476842 
Q 181.040177 86.476842 182.294498 89.103578 
Q 183.548819 91.724604 183.68703 95.059417 
L 182.106741 95.059417 
Q 181.838145 92.529756 181.034962 91.050789 
Q 180.231779 89.566112 178.781878 89.566112 
Q 177.013832 89.566112 175.926406 92.289923 
Q 174.83898 95.008024 174.83898 100.626956 
Q 174.83898 105.235165 175.819489 108.101734 
Q 176.802606 110.962592 178.750585 110.962592 
Q 180.5421 110.962592 181.480885 107.947556 
Q 181.976355 106.360093 182.221482 103.767619 
L 183.80177 103.767619 
Q 183.590543 107.907584 182.401416 110.711339 
Q 180.974984 114.086124 178.555005 114.086124 
Q 176.468816 114.086124 175.050207 111.31663 
Q 173.183068 107.662041 173.183068 100.021664 
Q 173.183068 94.225714 174.58603 90.514021 
Q 176.101125 86.476842 178.766231 86.476842 
z
M 178.440264 86.476842 
L 178.440264 86.476842 
z
" style="fill:#0000ff;"/>
   </g>
   <g id="patch_33">
    <path clip-path="url(#p277fe0fb52)" d="M 180.310583 74.71843 
L 178.504082 62.0411 
L 176.583541 74.71843 
L 180.310583 74.71843 
z
M 177.661739 57.777816 
L 179.483791 57.777816 
L 183.80177 86.476842 
L 182.034146 86.476842 
L 180.828948 77.881512 
L 176.122196 77.881512 
L 174.83406 86.476842 
L 173.183068 86.476842 
L 177.661739 57.777816 
z
M 178.496307 57.777816 
L 178.496307 57.777816 
z
" style="fill:#008000;"/>
   </g>
   <g id="patch_34">
    <path clip-path="url(#p277fe0fb52)" d="M 183.80177 28.8 
L 183.80177 32.252595 
L 179.391802 32.252595 
L 179.391802 57.777816 
L 177.593036 57.777816 
L 177.593036 32.252595 
L 173.183068 32.252595 
L 173.183068 28.8 
L 183.80177 28.8 
z
" style="fill:#ff0000;"/>
   </g>
   <g id="patch_35">
    <path clip-path="url(#p277fe0fb52)" d="M 189.837104 114.582577 
Q 191.47523 114.582577 192.670277 115.982775 
Q 194.402083 117.993459 194.78946 123.034171 
L 193.232354 123.034171 
Q 192.946252 120.216973 192.052498 118.928791 
Q 191.158745 117.640609 189.796594 117.640609 
Q 188.183787 117.640609 187.079887 120.323388 
Q 185.975988 123.000566 185.975988 128.304516 
Q 185.975988 132.885963 186.884933 135.76477 
Q 187.796409 138.643577 189.852295 138.643577 
Q 191.427124 138.643577 192.460131 136.627292 
Q 193.493138 134.605406 193.515925 130.085567 
L 189.877614 130.085567 
L 189.877614 127.20116 
L 194.979351 127.20116 
L 194.979351 140.956703 
L 193.966599 140.956703 
L 193.586817 137.646636 
Q 192.789275 139.59011 192.171497 140.346217 
Q 191.133426 141.64 189.53581 141.64 
Q 187.472329 141.64 185.983584 138.682782 
Q 184.360649 134.969458 184.360649 128.494943 
Q 184.360649 122.03723 185.943074 118.223091 
Q 187.44701 114.582577 189.837104 114.582577 
z
M 189.57632 114.543372 
L 189.57632 114.543372 
z
" style="fill:#ffa600;"/>
   </g>
   <g id="patch_36">
    <path clip-path="url(#p277fe0fb52)" d="M 189.943812 87.170322 
Q 192.217758 87.170322 193.472079 89.774583 
Q 194.726401 92.373183 194.864611 95.679462 
L 193.284322 95.679462 
Q 193.015726 93.171446 192.212543 91.705133 
Q 191.40936 90.23316 189.959459 90.23316 
Q 188.191414 90.23316 187.103988 92.933665 
Q 186.016561 95.628509 186.016561 101.199364 
Q 186.016561 105.768144 186.99707 108.610185 
Q 187.980187 111.446565 189.928166 111.446565 
Q 191.719681 111.446565 192.658466 108.457326 
Q 193.153936 106.883447 193.399063 104.313154 
L 194.979351 104.313154 
Q 194.768124 108.417696 193.578997 111.197462 
Q 192.152565 114.543372 189.732586 114.543372 
Q 187.646397 114.543372 186.227788 111.797574 
Q 184.360649 108.174255 184.360649 100.599251 
Q 184.360649 94.852893 185.763611 91.172958 
Q 187.278706 87.170322 189.943812 87.170322 
z
M 189.617845 87.170322 
L 189.617845 87.170322 
z
" style="fill:#0000ff;"/>
   </g>
   <g id="patch_37">
    <path clip-path="url(#p277fe0fb52)" d="M 191.488164 75.919687 
L 189.681663 63.789815 
L 187.761122 75.919687 
L 191.488164 75.919687 
z
M 188.83932 59.710637 
L 190.661373 59.710637 
L 194.979351 87.170322 
L 193.211727 87.170322 
L 192.006529 78.946173 
L 187.299777 78.946173 
L 186.011641 87.170322 
L 184.360649 87.170322 
L 188.83932 59.710637 
z
M 189.673888 59.710637 
L 189.673888 59.710637 
z
" style="fill:#008000;"/>
   </g>
   <g id="patch_38">
    <path clip-path="url(#p277fe0fb52)" d="M 194.979351 28.8 
L 194.979351 32.482884 
L 190.569383 32.482884 
L 190.569383 59.710637 
L 188.770617 59.710637 
L 188.770617 32.482884 
L 184.360649 32.482884 
L 184.360649 28.8 
L 194.979351 28.8 
z
" style="fill:#ff0000;"/>
   </g>
   <g id="patch_39">
    <path clip-path="url(#p277fe0fb52)" d="M 201.014685 115.147519 
Q 202.652811 115.147519 203.847858 116.518482 
Q 205.579664 118.487184 205.967041 123.422649 
L 204.409935 123.422649 
Q 204.123833 120.664273 203.23008 119.402987 
Q 202.336326 118.141701 200.974175 118.141701 
Q 199.361368 118.141701 198.257469 120.768466 
Q 197.153569 123.389746 197.153569 128.582952 
Q 197.153569 133.068742 198.062514 135.887441 
Q 198.97399 138.70614 201.029876 138.70614 
Q 202.604705 138.70614 203.637712 136.731954 
Q 204.670719 134.752284 204.693506 130.326817 
L 201.055195 130.326817 
L 201.055195 127.502634 
L 206.156932 127.502634 
L 206.156932 140.97097 
L 205.14418 140.97097 
L 204.764399 137.730015 
Q 203.966857 139.632911 203.349078 140.373231 
Q 202.311007 141.64 200.713392 141.64 
Q 198.64991 141.64 197.161165 138.744527 
Q 195.53823 135.108734 195.53823 128.769403 
Q 195.53823 122.446524 197.120655 118.712022 
Q 198.624591 115.147519 201.014685 115.147519 
z
M 200.753902 115.109132 
L 200.753902 115.109132 
z
" style="fill:#ffa600;"/>
   </g>
   <g id="patch_40">
    <path clip-path="url(#p277fe0fb52)" d="M 202.665746 103.508285 
L 200.859244 91.000832 
L 198.938703 103.508285 
L 202.665746 103.508285 
z
M 200.016902 86.794677 
L 201.838954 86.794677 
L 206.156932 115.109132 
L 204.389308 115.109132 
L 203.18411 106.628981 
L 198.477358 106.628981 
L 197.189222 115.109132 
L 195.53823 115.109132 
L 200.016902 86.794677 
z
M 200.851469 86.794677 
L 200.851469 86.794677 
z
" style="fill:#008000;"/>
   </g>
   <g id="patch_41">
    <path clip-path="url(#p277fe0fb52)" d="M 201.121393 57.902207 
Q 203.395339 57.902207 204.649661 60.651025 
Q 205.903982 63.393868 206.042192 66.883672 
L 204.461904 66.883672 
Q 204.193307 64.23644 203.390124 62.688736 
Q 202.586941 61.135056 201.13704 61.135056 
Q 199.368995 61.135056 198.281569 63.985461 
Q 197.194143 66.82989 197.194143 72.709971 
Q 197.194143 77.532354 198.174651 80.532152 
Q 199.157768 83.525973 201.105747 83.525973 
Q 202.897262 83.525973 203.836047 80.370808 
Q 204.331517 78.709566 204.576644 75.996602 
L 206.156932 75.996602 
Q 205.945706 80.328978 204.756578 83.263043 
Q 203.330146 86.794677 200.910167 86.794677 
Q 198.823978 86.794677 197.405369 83.896466 
Q 195.53823 80.072023 195.53823 72.076548 
Q 195.53823 66.011221 196.941192 62.127021 
Q 198.456287 57.902207 201.121393 57.902207 
z
M 200.795426 57.902207 
L 200.795426 57.902207 
z
" style="fill:#0000ff;"/>
   </g>
   <g id="patch_42">
    <path clip-path="url(#p277fe0fb52)" d="M 206.156932 28.8 
L 206.156932 32.267416 
L 201.746964 32.267416 
L 201.746964 57.902207 
L 199.948198 57.902207 
L 199.948198 32.267416 
L 195.53823 32.267416 
L 195.53823 28.8 
L 206.156932 28.8 
z
" style="fill:#ff0000;"/>
   </g>
   <g id="patch_43">
    <path clip-path="url(#p277fe0fb52)" d="M 212.192266 115.499948 
Q 213.830392 115.499948 215.025439 116.852673 
Q 216.757245 118.795186 217.144622 123.664995 
L 215.587517 123.664995 
Q 215.301414 120.943313 214.407661 119.698806 
Q 213.513907 118.454299 212.151756 118.454299 
Q 210.538949 118.454299 209.43505 121.04612 
Q 208.33115 123.632529 208.33115 128.75665 
Q 208.33115 133.182765 209.240095 135.963967 
Q 210.151572 138.745169 212.207458 138.745169 
Q 213.782287 138.745169 214.815293 136.797246 
Q 215.8483 134.843911 215.871087 130.477316 
L 212.232776 130.477316 
L 212.232776 127.690703 
L 217.334513 127.690703 
L 217.334513 140.97987 
L 216.321762 140.97987 
L 215.94198 137.782029 
Q 215.144438 139.659611 214.526659 140.390082 
Q 213.488589 141.64 211.890973 141.64 
Q 209.827491 141.64 208.338746 138.783045 
Q 206.715811 135.19562 206.715811 128.940621 
Q 206.715811 122.701855 208.298236 119.017033 
Q 209.802172 115.499948 212.192266 115.499948 
z
M 211.931483 115.462072 
L 211.931483 115.462072 
z
" style="fill:#ffa600;"/>
   </g>
   <g id="patch_44">
    <path clip-path="url(#p277fe0fb52)" d="M 217.334513 88.365476 
L 217.334513 91.593932 
L 212.924545 91.593932 
L 212.924545 115.462072 
L 211.12578 115.462072 
L 211.12578 91.593932 
L 206.715811 91.593932 
L 206.715811 88.365476 
L 217.334513 88.365476 
z
" style="fill:#ff0000;"/>
   </g>
   <g id="patch_45">
    <path clip-path="url(#p277fe0fb52)" d="M 213.843327 77.144079 
L 212.036825 65.04573 
L 210.116284 77.144079 
L 213.843327 77.144079 
z
M 211.194483 60.977153 
L 213.016535 60.977153 
L 217.334513 88.365476 
L 215.566889 88.365476 
L 214.361691 80.1627 
L 209.654939 80.1627 
L 208.366803 88.365476 
L 206.715811 88.365476 
L 211.194483 60.977153 
z
M 212.02905 60.977153 
L 212.02905 60.977153 
z
" style="fill:#008000;"/>
   </g>
   <g id="patch_46">
    <path clip-path="url(#p277fe0fb52)" d="M 212.298975 28.8 
Q 214.572921 28.8 215.827242 31.861322 
Q 217.081563 34.915988 217.219773 38.802536 
L 215.639485 38.802536 
Q 215.370888 35.85435 214.567705 34.130693 
Q 213.764522 32.40038 212.314621 32.40038 
Q 210.546576 32.40038 209.45915 35.574838 
Q 208.371724 38.74264 208.371724 45.291207 
Q 208.371724 50.66183 209.352233 54.002663 
Q 210.335349 57.336842 212.283328 57.336842 
Q 214.074843 57.336842 215.013628 53.822977 
Q 215.509098 51.972874 215.754225 48.951483 
L 217.334513 48.951483 
Q 217.123287 53.776392 215.934159 57.04402 
Q 214.507727 60.977153 212.087748 60.977153 
Q 210.001559 60.977153 208.58295 57.749455 
Q 206.715811 53.490225 206.715811 44.585772 
Q 206.715811 37.830899 208.118773 33.505118 
Q 209.633868 28.8 212.298975 28.8 
z
M 211.973008 28.8 
L 211.973008 28.8 
z
" style="fill:#0000ff;"/>
   </g>
   <g id="patch_47">
    <path clip-path="url(#p277fe0fb52)" d="M 223.369847 115.79401 
Q 225.007973 115.79401 226.20302 117.131517 
Q 227.934826 119.052177 228.322203 123.867203 
L 226.765098 123.867203 
Q 226.478995 121.176139 225.585242 119.945632 
Q 224.691488 118.715125 223.329337 118.715125 
Q 221.71653 118.715125 220.612631 121.277789 
Q 219.508731 123.835103 219.508731 128.901581 
Q 219.508731 133.277905 220.417676 136.027819 
Q 221.329153 138.777734 223.385039 138.777734 
Q 224.959868 138.777734 225.992874 136.851724 
Q 227.025881 134.920363 227.048668 130.60289 
L 223.410357 130.60289 
L 223.410357 127.847625 
L 228.512094 127.847625 
L 228.512094 140.987296 
L 227.499343 140.987296 
L 227.119561 137.825429 
Q 226.322019 139.681889 225.70424 140.404143 
Q 224.66617 141.64 223.068554 141.64 
Q 221.005072 141.64 219.516327 138.815185 
Q 217.893392 135.268115 217.893392 129.083482 
Q 217.893392 122.914898 219.475817 119.271528 
Q 220.979753 115.79401 223.369847 115.79401 
z
M 223.109064 115.756559 
L 223.109064 115.756559 
z
" style="fill:#ffa600;"/>
   </g>
   <g id="patch_48">
    <path clip-path="url(#p277fe0fb52)" d="M 225.020908 104.768235 
L 223.214407 92.921174 
L 221.293865 104.768235 
L 225.020908 104.768235 
z
M 222.372064 88.937103 
L 224.194116 88.937103 
L 228.512094 115.756559 
L 226.744471 115.756559 
L 225.539273 107.724158 
L 220.832521 107.724158 
L 219.544384 115.756559 
L 217.893392 115.756559 
L 222.372064 88.937103 
z
M 223.206631 88.937103 
L 223.206631 88.937103 
z
" style="fill:#008000;"/>
   </g>
   <g id="patch_49">
    <path clip-path="url(#p277fe0fb52)" d="M 223.476556 59.320805 
Q 225.750502 59.320805 227.004823 62.138488 
Q 228.259144 64.950046 228.397354 68.527278 
L 226.817066 68.527278 
Q 226.548469 65.813727 225.745286 64.227249 
Q 224.942103 62.634645 223.492202 62.634645 
Q 221.724157 62.634645 220.636731 65.55646 
Q 219.549305 68.472149 219.549305 74.499541 
Q 219.549305 79.442736 220.529814 82.517686 
Q 221.51293 85.58651 223.460909 85.58651 
Q 225.252424 85.58651 226.191209 82.3523 
Q 226.686679 80.64944 226.931806 77.868509 
L 228.512094 77.868509 
Q 228.300868 82.309423 227.11174 85.316993 
Q 225.685308 88.937103 223.265329 88.937103 
Q 221.17914 88.937103 219.760531 85.966285 
Q 217.893392 82.04603 217.893392 73.850248 
Q 217.893392 67.63297 219.296354 63.651461 
Q 220.811449 59.320805 223.476556 59.320805 
z
M 223.150589 59.320805 
L 223.150589 59.320805 
z
" style="fill:#0000ff;"/>
   </g>
   <g id="patch_50">
    <path clip-path="url(#p277fe0fb52)" d="M 228.512094 28.8 
L 228.512094 32.436437 
L 224.102126 32.436437 
L 224.102126 59.320805 
L 222.303361 59.320805 
L 222.303361 32.436437 
L 217.893392 32.436437 
L 217.893392 28.8 
L 228.512094 28.8 
z
" style="fill:#ff0000;"/>
   </g>
   <g id="patch_51">
    <path clip-path="url(#p277fe0fb52)" d="M 234.547429 115.376129 
Q 236.185554 115.376129 237.380602 116.735261 
Q 239.112407 118.686975 239.499785 123.579851 
L 237.942679 123.579851 
Q 237.656576 120.845277 236.762823 119.594875 
Q 235.86907 118.344474 234.506918 118.344474 
Q 232.894111 118.344474 231.790212 120.948571 
Q 230.686312 123.547232 230.686312 128.695625 
Q 230.686312 133.142705 231.595257 135.937081 
Q 232.506734 138.731457 234.56262 138.731457 
Q 236.137449 138.731457 237.170456 136.774307 
Q 238.203462 134.81172 238.226249 130.424441 
L 234.587939 130.424441 
L 234.587939 127.624629 
L 239.689676 127.624629 
L 239.689676 140.976743 
L 238.676924 140.976743 
L 238.297142 137.763755 
Q 237.4996 139.65023 236.881821 140.384162 
Q 235.843751 141.64 234.246135 141.64 
Q 232.182653 141.64 230.693908 138.769513 
Q 229.070973 135.165094 229.070973 128.880467 
Q 229.070973 122.612149 230.653398 118.909873 
Q 232.157334 115.376129 234.547429 115.376129 
z
M 234.286645 115.338073 
L 234.286645 115.338073 
z
" style="fill:#ffa600;"/>
   </g>
   <g id="patch_52">
    <path clip-path="url(#p277fe0fb52)" d="M 239.689676 88.112025 
L 239.689676 91.355904 
L 235.279707 91.355904 
L 235.279707 115.338073 
L 233.480942 115.338073 
L 233.480942 91.355904 
L 229.070973 91.355904 
L 229.070973 88.112025 
L 239.689676 88.112025 
z
" style="fill:#ff0000;"/>
   </g>
   <g id="patch_53">
    <path clip-path="url(#p277fe0fb52)" d="M 236.198489 76.227107 
L 234.391988 63.413384 
L 232.471446 76.227107 
L 236.198489 76.227107 
z
M 233.549645 59.104233 
L 235.371697 59.104233 
L 239.689676 88.112025 
L 237.922052 88.112025 
L 236.716854 79.42422 
L 232.010102 79.42422 
L 230.721965 88.112025 
L 229.070973 88.112025 
L 233.549645 59.104233 
z
M 234.384212 59.104233 
L 234.384212 59.104233 
z
" style="fill:#008000;"/>
   </g>
   <g id="patch_54">
    <path clip-path="url(#p277fe0fb52)" d="M 234.654137 28.8 
Q 236.928083 28.8 238.182404 31.683133 
Q 239.436725 34.559998 239.574935 38.220323 
L 237.994647 38.220323 
Q 237.72605 35.443741 236.922867 33.820412 
Q 236.119685 32.190815 234.669783 32.190815 
Q 232.901738 32.190815 231.814312 35.180498 
Q 230.726886 38.163914 230.726886 44.331311 
Q 230.726886 49.389329 231.707395 52.535704 
Q 232.690511 55.675812 234.63849 55.675812 
Q 236.430005 55.675812 237.36879 52.366477 
Q 237.86426 50.624062 238.109387 47.778535 
L 239.689676 47.778535 
Q 239.478449 52.322603 238.289321 55.400034 
Q 236.862889 59.104233 234.44291 59.104233 
Q 232.356721 59.104233 230.938113 56.064408 
Q 229.070973 52.053093 229.070973 43.666937 
Q 229.070973 37.305242 230.473936 33.23125 
Q 231.98903 28.8 234.654137 28.8 
z
M 234.32817 28.8 
L 234.32817 28.8 
z
" style="fill:#0000ff;"/>
   </g>
   <g id="patch_55">
    <path clip-path="url(#p277fe0fb52)" d="M 245.72501 115.283893 
Q 247.363136 115.283893 248.558183 116.647798 
Q 250.289988 118.606366 250.677366 123.516426 
L 249.12026 123.516426 
Q 248.834158 120.772248 247.940404 119.517455 
Q 247.046651 118.262662 245.6845 118.262662 
Q 244.071692 118.262662 242.967793 120.875905 
Q 241.863894 123.483692 241.863894 128.650165 
Q 241.863894 133.112864 242.772838 135.917053 
Q 243.684315 138.721243 245.740201 138.721243 
Q 247.31503 138.721243 248.348037 136.757219 
Q 249.381043 134.78774 249.40383 130.385053 
L 245.76552 130.385053 
L 245.76552 127.575408 
L 250.867257 127.575408 
L 250.867257 140.974414 
L 249.854505 140.974414 
L 249.474723 137.750142 
Q 248.677181 139.643243 248.059402 140.379751 
Q 247.021332 141.64 245.423716 141.64 
Q 243.360234 141.64 241.871489 138.759432 
Q 240.248555 135.142355 240.248555 128.835657 
Q 240.248555 122.545325 241.830979 118.830047 
Q 243.334916 115.283893 245.72501 115.283893 
z
M 245.464226 115.245704 
L 245.464226 115.245704 
z
" style="fill:#ffa600;"/>
   </g>
   <g id="patch_56">
    <path clip-path="url(#p277fe0fb52)" d="M 247.37607 103.876174 
L 245.569569 91.618116 
L 243.649027 103.876174 
L 247.37607 103.876174 
z
M 244.727226 87.495831 
L 246.549278 87.495831 
L 250.867257 115.245704 
L 249.099633 115.245704 
L 247.894435 106.934644 
L 243.187683 106.934644 
L 241.899546 115.245704 
L 240.248555 115.245704 
L 244.727226 87.495831 
z
M 245.561793 87.495831 
L 245.561793 87.495831 
z
" style="fill:#008000;"/>
   </g>
   <g id="patch_57">
    <path clip-path="url(#p277fe0fb52)" d="M 245.831718 58.654962 
Q 248.105664 58.654962 249.359985 61.398871 
Q 250.614306 64.136814 250.752516 67.620386 
L 249.172228 67.620386 
Q 248.903631 64.977882 248.100448 63.432942 
Q 247.297266 61.882037 245.847364 61.882037 
Q 244.079319 61.882037 242.991893 64.727351 
Q 241.904467 67.566701 241.904467 73.43628 
Q 241.904467 78.250051 242.884976 81.24449 
Q 243.868093 84.232965 245.816071 84.232965 
Q 247.607586 84.232965 248.546371 81.083435 
Q 249.041841 79.425159 249.286968 76.71704 
L 250.867257 76.71704 
Q 250.65603 81.04168 249.466902 83.970504 
Q 248.040471 87.495831 245.620491 87.495831 
Q 243.534302 87.495831 242.115694 84.602796 
Q 240.248555 80.785184 240.248555 72.803988 
Q 240.248555 66.749493 241.651517 62.87223 
Q 243.166611 58.654962 245.831718 58.654962 
z
M 245.505751 58.654962 
L 245.505751 58.654962 
z
" style="fill:#0000ff;"/>
   </g>
   <g id="patch_58">
    <path clip-path="url(#p277fe0fb52)" d="M 250.867257 28.8 
L 250.867257 32.357104 
L 246.457288 32.357104 
L 246.457288 58.654962 
L 244.658523 58.654962 
L 244.658523 32.357104 
L 240.248555 32.357104 
L 240.248555 28.8 
L 250.867257 28.8 
z
" style="fill:#ff0000;"/>
   </g>
   <g id="patch_59">
    <path clip-path="url(#p277fe0fb52)" d="M 262.044838 115.316111 
L 262.044838 118.452501 
L 257.634869 118.452501 
L 257.634869 141.64 
L 255.836104 141.64 
L 255.836104 118.452501 
L 251.426136 118.452501 
L 251.426136 115.316111 
L 262.044838 115.316111 
z
" style="fill:#ff0000;"/>
   </g>
   <g id="patch_60">
    <path clip-path="url(#p277fe0fb52)" d="M 256.902591 88.546841 
Q 258.540717 88.546841 259.735764 89.932127 
Q 261.467569 91.921398 261.854947 96.908429 
L 260.297841 96.908429 
Q 260.011739 94.121233 259.117985 92.84677 
Q 258.224232 91.572306 256.862081 91.572306 
Q 255.249274 91.572306 254.145374 94.226515 
Q 253.041475 96.875182 253.041475 102.122646 
Q 253.041475 106.655302 253.950419 109.50345 
Q 254.861896 112.351599 256.917782 112.351599 
Q 258.492611 112.351599 259.525618 110.356787 
Q 260.558625 108.356433 260.581411 103.88473 
L 256.943101 103.88473 
L 256.943101 101.03104 
L 262.044838 101.03104 
L 262.044838 114.640091 
L 261.032086 114.640091 
L 260.652304 111.365275 
Q 259.854762 113.288052 259.236984 114.036107 
Q 258.198913 115.316111 256.601297 115.316111 
Q 254.537815 115.316111 253.04907 112.390387 
Q 251.426136 108.716608 251.426136 102.311045 
Q 251.426136 95.922105 253.00856 92.148585 
Q 254.512497 88.546841 256.902591 88.546841 
z
M 256.641807 88.508053 
L 256.641807 88.508053 
z
" style="fill:#ffa600;"/>
   </g>
   <g id="patch_61">
    <path clip-path="url(#p277fe0fb52)" d="M 258.553651 76.339981 
L 256.74715 63.220975 
L 254.826609 76.339981 
L 258.553651 76.339981 
z
M 255.904807 58.809159 
L 257.726859 58.809159 
L 262.044838 88.508053 
L 260.277214 88.508053 
L 259.072016 79.613264 
L 254.365264 79.613264 
L 253.077127 88.508053 
L 251.426136 88.508053 
L 255.904807 58.809159 
z
M 256.739374 58.809159 
L 256.739374 58.809159 
z
" style="fill:#008000;"/>
   </g>
   <g id="patch_62">
    <path clip-path="url(#p277fe0fb52)" d="M 257.009299 28.8 
Q 259.283245 28.8 260.537566 31.65506 
Q 261.791887 34.503913 261.930097 38.128597 
L 260.349809 38.128597 
Q 260.081212 35.37905 259.27803 33.771528 
Q 258.474847 32.157798 257.024945 32.157798 
Q 255.2569 32.157798 254.169474 35.118371 
Q 253.082048 38.072737 253.082048 44.180082 
Q 253.082048 49.188849 254.062557 52.304588 
Q 255.045674 55.414121 256.993653 55.414121 
Q 258.785167 55.414121 259.723952 52.137009 
Q 260.219422 50.41156 260.46455 47.59374 
L 262.044838 47.59374 
Q 261.833611 52.093562 260.644483 55.141028 
Q 259.218052 58.809159 256.798072 58.809159 
Q 254.711883 58.809159 253.293275 55.798933 
Q 251.426136 51.826676 251.426136 43.522177 
Q 251.426136 37.222426 252.829098 33.188102 
Q 254.344193 28.8 257.009299 28.8 
z
M 256.683332 28.8 
L 256.683332 28.8 
z
" style="fill:#0000ff;"/>
   </g>
   <g id="patch_63">
    <path clip-path="url(#p277fe0fb52)" d="M 268.080172 114.779827 
Q 269.718298 114.779827 270.913345 116.169817 
Q 272.64515 118.165843 273.032528 123.169808 
L 271.475422 123.169808 
Q 271.18932 120.373148 270.295566 119.094357 
Q 269.401813 117.815566 268.039662 117.815566 
Q 266.426855 117.815566 265.322955 120.478787 
Q 264.219056 123.136449 264.219056 128.401732 
Q 264.219056 132.94978 265.128001 135.807601 
Q 266.039477 138.665421 268.095363 138.665421 
Q 269.670192 138.665421 270.703199 136.663835 
Q 271.736206 134.656689 271.758993 130.1698 
L 268.120682 130.1698 
L 268.120682 127.30642 
L 273.222419 127.30642 
L 273.222419 140.961685 
L 272.209667 140.961685 
L 271.829885 137.675748 
Q 271.032343 139.605054 270.414565 140.355649 
Q 269.376494 141.64 267.778878 141.64 
Q 265.715397 141.64 264.226651 138.70434 
Q 262.603717 135.018086 262.603717 128.590771 
Q 262.603717 122.180135 264.186141 118.393802 
Q 265.690078 114.779827 268.080172 114.779827 
z
M 267.819388 114.740907 
L 267.819388 114.740907 
z
" style="fill:#ffa600;"/>
   </g>
   <g id="patch_64">
    <path clip-path="url(#p277fe0fb52)" d="M 269.731232 103.220992 
L 267.924731 90.800796 
L 266.00419 103.220992 
L 269.731232 103.220992 
z
M 267.082388 86.623985 
L 268.90444 86.623985 
L 273.222419 114.740907 
L 271.454795 114.740907 
L 270.249597 106.319916 
L 265.542845 106.319916 
L 264.254709 114.740907 
L 262.603717 114.740907 
L 267.082388 86.623985 
z
M 267.916956 86.623985 
L 267.916956 86.623985 
z
" style="fill:#008000;"/>
   </g>
   <g id="patch_65">
    <path clip-path="url(#p277fe0fb52)" d="M 268.18688 57.838908 
Q 270.460826 57.838908 271.715147 60.577509 
Q 272.969468 63.310157 273.107678 66.786989 
L 271.52739 66.786989 
Q 271.258793 64.149597 270.455611 62.607646 
Q 269.652428 61.059741 268.202527 61.059741 
Q 266.434481 61.059741 265.347055 63.899551 
Q 264.259629 66.733408 264.259629 72.591632 
Q 264.259629 77.396091 265.240138 80.384738 
Q 266.223255 83.367431 268.171234 83.367431 
Q 269.962749 83.367431 270.901534 80.223994 
Q 271.397003 78.568926 271.642131 75.866046 
L 273.222419 75.866046 
Q 273.011192 80.182319 271.822065 83.105478 
Q 270.395633 86.623985 267.975654 86.623985 
Q 265.889465 86.623985 264.470856 83.736547 
Q 262.603717 79.92632 262.603717 71.960563 
Q 262.603717 65.917781 264.006679 62.048019 
Q 265.521774 57.838908 268.18688 57.838908 
z
M 267.860913 57.838908 
L 267.860913 57.838908 
z
" style="fill:#0000ff;"/>
   </g>
   <g id="patch_66">
    <path clip-path="url(#p277fe0fb52)" d="M 273.222419 28.8 
L 273.222419 32.259874 
L 268.812451 32.259874 
L 268.812451 57.838908 
L 267.013685 57.838908 
L 267.013685 32.259874 
L 262.603717 32.259874 
L 262.603717 28.8 
L 273.222419 28.8 
z
" style="fill:#ff0000;"/>
   </g>
   <g id="patch_67">
    <path clip-path="url(#p277fe0fb52)" d="M 279.257753 118.103019 
Q 280.895879 118.103019 282.090926 119.321037 
Q 283.822732 121.070111 284.210109 125.454976 
L 282.653003 125.454976 
Q 282.366901 123.004324 281.473147 121.883747 
Q 280.579394 120.763171 279.217243 120.763171 
Q 277.604436 120.763171 276.500536 123.096893 
Q 275.396637 125.425744 275.396637 130.039596 
Q 275.396637 134.024951 276.305582 136.529196 
Q 277.217058 139.033441 279.272944 139.033441 
Q 280.847773 139.033441 281.88078 137.279495 
Q 282.913787 135.520677 282.936574 131.588915 
L 279.298263 131.588915 
L 279.298263 129.079798 
L 284.4 129.079798 
L 284.4 141.045607 
L 283.387248 141.045607 
L 283.007466 138.166213 
Q 282.209924 139.856822 281.592146 140.514551 
Q 280.554075 141.64 278.956459 141.64 
Q 276.892978 141.64 275.404233 139.067546 
Q 273.781298 135.837362 273.781298 130.205247 
Q 273.781298 124.587747 275.363723 121.269866 
Q 276.867659 118.103019 279.257753 118.103019 
z
M 278.996969 118.068915 
L 278.996969 118.068915 
z
" style="fill:#ffa600;"/>
   </g>
   <g id="patch_68">
    <path clip-path="url(#p277fe0fb52)" d="M 280.908813 106.030271 
L 279.102312 93.050808 
L 277.181771 106.030271 
L 280.908813 106.030271 
z
M 278.259969 88.68592 
L 280.082022 88.68592 
L 284.4 118.068915 
L 282.632376 118.068915 
L 281.427178 109.268737 
L 276.720426 109.268737 
L 275.43229 118.068915 
L 273.781298 118.068915 
L 278.259969 88.68592 
z
M 279.094537 88.68592 
L 279.094537 88.68592 
z
" style="fill:#008000;"/>
   </g>
   <g id="patch_69">
    <path clip-path="url(#p277fe0fb52)" d="M 279.364461 59.001716 
Q 281.638407 59.001716 282.892728 61.82586 
Q 284.14705 64.643864 284.28526 68.229298 
L 282.704971 68.229298 
Q 282.436375 65.509525 281.633192 63.91941 
Q 280.830009 62.323155 279.380108 62.323155 
Q 277.612063 62.323155 276.524636 65.251669 
Q 275.43721 68.174043 275.43721 74.215254 
Q 275.43721 79.169784 276.417719 82.251784 
Q 277.400836 85.327645 279.348815 85.327645 
Q 281.14033 85.327645 282.079115 82.086019 
Q 282.574585 80.379254 282.819712 77.591948 
L 284.4 77.591948 
Q 284.188773 82.043043 282.999646 85.057509 
Q 281.573214 88.68592 279.153235 88.68592 
Q 277.067046 88.68592 275.648437 85.70829 
Q 273.781298 81.779047 273.781298 73.564473 
Q 273.781298 67.332939 275.18426 63.342302 
Q 276.699355 59.001716 279.364461 59.001716 
z
M 279.038494 59.001716 
L 279.038494 59.001716 
z
" style="fill:#0000ff;"/>
   </g>
   <g id="patch_70">
    <path clip-path="url(#p277fe0fb52)" d="M 284.4 28.8 
L 284.4 32.398418 
L 279.990032 32.398418 
L 279.990032 59.001716 
L 278.191266 59.001716 
L 278.191266 32.398418 
L 273.781298 32.398418 
L 273.781298 28.8 
L 284.4 28.8 
z
" style="fill:#ff0000;"/>
   </g>
   <g id="matplotlib.axis_1">
    <g id="xtick_1">
     <g id="line2d_2">
      <path clip-path="url(#p277fe0fb52)" d="M 100.249351 141.64 
L 100.249351 28.8 
" style="fill:none;stroke:#cccccc;stroke-linecap:round;stroke-width:0.8;"/>
     </g>
     <g id="text_1">
      <!-- 0 -->
      <g style="fill:#262626;" transform="translate(94.688414 162.986875)scale(0.2 -0.2)">
       <defs>
        <path d="M 1731 4475 
Q 2600 4475 2988 3759 
Q 3288 3206 3288 2244 
Q 3288 1331 3016 734 
Q 2622 -122 1728 -122 
Q 922 -122 528 578 
Q 200 1163 200 2147 
Q 200 2909 397 3456 
Q 766 4475 1731 4475 
z
M 1725 391 
Q 2163 391 2422 778 
Q 2681 1166 2681 2222 
Q 2681 2984 2493 3476 
Q 2306 3969 1766 3969 
Q 1269 3969 1039 3501 
Q 809 3034 809 2125 
Q 809 1441 956 1025 
Q 1181 391 1725 391 
z
" id="Helvetica-30" transform="scale(0.015625)"/>
       </defs>
       <use xlink:href="#Helvetica-30"/>
      </g>
     </g>
    </g>
    <g id="xtick_2">
     <g id="line2d_3">
      <path clip-path="url(#p277fe0fb52)" d="M 212.025162 141.64 
L 212.025162 28.8 
" style="fill:none;stroke:#cccccc;stroke-linecap:round;stroke-width:0.8;"/>
     </g>
     <g id="text_2">
      <!-- 10 -->
      <g style="fill:#262626;" transform="translate(200.903287 162.986875)scale(0.2 -0.2)">
       <defs>
        <path d="M 613 3169 
L 613 3600 
Q 1222 3659 1462 3798 
Q 1703 3938 1822 4456 
L 2266 4456 
L 2266 0 
L 1666 0 
L 1666 3169 
L 613 3169 
z
" id="Helvetica-31" transform="scale(0.015625)"/>
       </defs>
       <use xlink:href="#Helvetica-31"/>
       <use x="55.615234" xlink:href="#Helvetica-30"/>
      </g>
     </g>
    </g>
    <g id="text_3">
     <!-- Position -->
     <g style="fill:#262626;" transform="translate(145.20125 189.089219)scale(0.25 -0.25)">
      <defs>
       <path d="M 547 4591 
L 2613 4591 
Q 3225 4591 3600 4245 
Q 3975 3900 3975 3275 
Q 3975 2738 3640 2339 
Q 3306 1941 2613 1941 
L 1169 1941 
L 1169 0 
L 547 0 
L 547 4591 
z
M 3347 3272 
Q 3347 3778 2972 3959 
Q 2766 4056 2406 4056 
L 1169 4056 
L 1169 2466 
L 2406 2466 
Q 2825 2466 3086 2644 
Q 3347 2822 3347 3272 
z
" id="Helvetica-50" transform="scale(0.015625)"/>
       <path d="M 1741 363 
Q 2300 363 2508 786 
Q 2716 1209 2716 1728 
Q 2716 2197 2566 2491 
Q 2328 2953 1747 2953 
Q 1231 2953 997 2559 
Q 763 2166 763 1609 
Q 763 1075 997 719 
Q 1231 363 1741 363 
z
M 1763 3444 
Q 2409 3444 2856 3012 
Q 3303 2581 3303 1744 
Q 3303 934 2909 406 
Q 2516 -122 1688 -122 
Q 997 -122 590 345 
Q 184 813 184 1600 
Q 184 2444 612 2944 
Q 1041 3444 1763 3444 
z
M 1744 3428 
L 1744 3428 
z
" id="Helvetica-6f" transform="scale(0.015625)"/>
       <path d="M 747 1050 
Q 772 769 888 619 
Q 1100 347 1625 347 
Q 1938 347 2175 483 
Q 2413 619 2413 903 
Q 2413 1119 2222 1231 
Q 2100 1300 1741 1391 
L 1294 1503 
Q 866 1609 663 1741 
Q 300 1969 300 2372 
Q 300 2847 642 3140 
Q 984 3434 1563 3434 
Q 2319 3434 2653 2991 
Q 2863 2709 2856 2384 
L 2325 2384 
Q 2309 2575 2191 2731 
Q 1997 2953 1519 2953 
Q 1200 2953 1036 2831 
Q 872 2709 872 2509 
Q 872 2291 1088 2159 
Q 1213 2081 1456 2022 
L 1828 1931 
Q 2434 1784 2641 1647 
Q 2969 1431 2969 969 
Q 2969 522 2630 197 
Q 2291 -128 1597 -128 
Q 850 -128 539 211 
Q 228 550 206 1050 
L 747 1050 
z
M 1578 3428 
L 1578 3428 
z
" id="Helvetica-73" transform="scale(0.015625)"/>
       <path d="M 413 3331 
L 984 3331 
L 984 0 
L 413 0 
L 413 3331 
z
M 413 4591 
L 984 4591 
L 984 3953 
L 413 3953 
L 413 4591 
z
" id="Helvetica-69" transform="scale(0.015625)"/>
       <path d="M 525 4281 
L 1094 4281 
L 1094 3347 
L 1628 3347 
L 1628 2888 
L 1094 2888 
L 1094 703 
Q 1094 528 1213 469 
Q 1278 434 1431 434 
Q 1472 434 1519 436 
Q 1566 438 1628 444 
L 1628 0 
Q 1531 -28 1426 -40 
Q 1322 -53 1200 -53 
Q 806 -53 665 148 
Q 525 350 525 672 
L 525 2888 
L 72 2888 
L 72 3347 
L 525 3347 
L 525 4281 
z
" id="Helvetica-74" transform="scale(0.015625)"/>
       <path d="M 413 3347 
L 947 3347 
L 947 2872 
Q 1184 3166 1450 3294 
Q 1716 3422 2041 3422 
Q 2753 3422 3003 2925 
Q 3141 2653 3141 2147 
L 3141 0 
L 2569 0 
L 2569 2109 
Q 2569 2416 2478 2603 
Q 2328 2916 1934 2916 
Q 1734 2916 1606 2875 
Q 1375 2806 1200 2600 
Q 1059 2434 1017 2257 
Q 975 2081 975 1753 
L 975 0 
L 413 0 
L 413 3347 
z
M 1734 3428 
L 1734 3428 
z
" id="Helvetica-6e" transform="scale(0.015625)"/>
      </defs>
      <use xlink:href="#Helvetica-50"/>
      <use x="66.699219" xlink:href="#Helvetica-6f"/>
      <use x="122.314453" xlink:href="#Helvetica-73"/>
      <use x="172.314453" xlink:href="#Helvetica-69"/>
      <use x="194.53125" xlink:href="#Helvetica-74"/>
      <use x="222.314453" xlink:href="#Helvetica-69"/>
      <use x="244.53125" xlink:href="#Helvetica-6f"/>
      <use x="300.146484" xlink:href="#Helvetica-6e"/>
     </g>
    </g>
   </g>
   <g id="matplotlib.axis_2">
    <g id="ytick_1">
     <g id="line2d_4">
      <path clip-path="url(#p277fe0fb52)" d="M 94.94 141.64 
L 284.4 141.64 
" style="fill:none;stroke:#cccccc;stroke-linecap:round;stroke-width:0.8;"/>
     </g>
     <g id="text_4">
      <!-- 0 -->
      <g style="fill:#262626;" transform="translate(76.818125 148.813438)scale(0.2 -0.2)">
       <use xlink:href="#Helvetica-30"/>
      </g>
     </g>
    </g>
    <g id="ytick_2">
     <g id="line2d_5">
      <path clip-path="url(#p277fe0fb52)" d="M 94.94 113.43 
L 284.4 113.43 
" style="fill:none;stroke:#cccccc;stroke-linecap:round;stroke-width:0.8;"/>
     </g>
     <g id="text_5">
      <!-- 0.25 -->
      <g style="fill:#262626;" transform="translate(49.018125 120.603437)scale(0.2 -0.2)">
       <defs>
        <path d="M 547 681 
L 1200 681 
L 1200 0 
L 547 0 
L 547 681 
z
" id="Helvetica-2e" transform="scale(0.015625)"/>
        <path d="M 200 0 
Q 231 578 439 1006 
Q 647 1434 1250 1784 
L 1850 2131 
Q 2253 2366 2416 2531 
Q 2672 2791 2672 3125 
Q 2672 3516 2437 3745 
Q 2203 3975 1813 3975 
Q 1234 3975 1013 3538 
Q 894 3303 881 2888 
L 309 2888 
Q 319 3472 525 3841 
Q 891 4491 1816 4491 
Q 2584 4491 2939 4075 
Q 3294 3659 3294 3150 
Q 3294 2613 2916 2231 
Q 2697 2009 2131 1694 
L 1703 1456 
Q 1397 1288 1222 1134 
Q 909 863 828 531 
L 3272 531 
L 3272 0 
L 200 0 
z
" id="Helvetica-32" transform="scale(0.015625)"/>
        <path d="M 791 1141 
Q 847 659 1238 475 
Q 1438 381 1700 381 
Q 2200 381 2440 700 
Q 2681 1019 2681 1406 
Q 2681 1875 2395 2131 
Q 2109 2388 1709 2388 
Q 1419 2388 1211 2275 
Q 1003 2163 856 1963 
L 369 1991 
L 709 4400 
L 3034 4400 
L 3034 3856 
L 1131 3856 
L 941 2613 
Q 1097 2731 1238 2791 
Q 1488 2894 1816 2894 
Q 2431 2894 2859 2497 
Q 3288 2100 3288 1491 
Q 3288 856 2895 371 
Q 2503 -113 1644 -113 
Q 1097 -113 676 195 
Q 256 503 206 1141 
L 791 1141 
z
" id="Helvetica-35" transform="scale(0.015625)"/>
       </defs>
       <use xlink:href="#Helvetica-30"/>
       <use x="55.615234" xlink:href="#Helvetica-2e"/>
       <use x="83.398438" xlink:href="#Helvetica-32"/>
       <use x="139.013672" xlink:href="#Helvetica-35"/>
      </g>
     </g>
    </g>
    <g id="ytick_3">
     <g id="line2d_6">
      <path clip-path="url(#p277fe0fb52)" d="M 94.94 85.22 
L 284.4 85.22 
" style="fill:none;stroke:#cccccc;stroke-linecap:round;stroke-width:0.8;"/>
     </g>
     <g id="text_6">
      <!-- 0.50 -->
      <g style="fill:#262626;" transform="translate(49.018125 92.393438)scale(0.2 -0.2)">
       <use xlink:href="#Helvetica-30"/>
       <use x="55.615234" xlink:href="#Helvetica-2e"/>
       <use x="83.398438" xlink:href="#Helvetica-35"/>
       <use x="139.013672" xlink:href="#Helvetica-30"/>
      </g>
     </g>
    </g>
    <g id="ytick_4">
     <g id="line2d_7">
      <path clip-path="url(#p277fe0fb52)" d="M 94.94 57.01 
L 284.4 57.01 
" style="fill:none;stroke:#cccccc;stroke-linecap:round;stroke-width:0.8;"/>
     </g>
     <g id="text_7">
      <!-- 0.75 -->
      <g style="fill:#262626;" transform="translate(49.018125 64.183437)scale(0.2 -0.2)">
       <defs>
        <path d="M 3347 4400 
L 3347 3909 
Q 3131 3700 2773 3181 
Q 2416 2663 2141 2063 
Q 1869 1478 1728 997 
Q 1638 688 1494 0 
L 872 0 
Q 1084 1281 1809 2550 
Q 2238 3294 2709 3834 
L 234 3834 
L 234 4400 
L 3347 4400 
z
" id="Helvetica-37" transform="scale(0.015625)"/>
       </defs>
       <use xlink:href="#Helvetica-30"/>
       <use x="55.615234" xlink:href="#Helvetica-2e"/>
       <use x="83.398438" xlink:href="#Helvetica-37"/>
       <use x="139.013672" xlink:href="#Helvetica-35"/>
      </g>
     </g>
    </g>
    <g id="ytick_5">
     <g id="line2d_8">
      <path clip-path="url(#p277fe0fb52)" d="M 94.94 28.8 
L 284.4 28.8 
" style="fill:none;stroke:#cccccc;stroke-linecap:round;stroke-width:0.8;"/>
     </g>
     <g id="text_8">
      <!-- 1.0 -->
      <g style="fill:#262626;" transform="translate(60.14 35.973437)scale(0.2 -0.2)">
       <use xlink:href="#Helvetica-31"/>
       <use x="55.615234" xlink:href="#Helvetica-2e"/>
       <use x="83.398438" xlink:href="#Helvetica-30"/>
      </g>
     </g>
    </g>
    <g id="text_9">
     <!-- Probability -->
     <g style="fill:#262626;" transform="translate(39.65875 143.579375)rotate(-90)scale(0.25 -0.25)">
      <defs>
       <path d="M 428 3347 
L 963 3347 
L 963 2769 
Q 1028 2938 1284 3180 
Q 1541 3422 1875 3422 
Q 1891 3422 1928 3419 
Q 1966 3416 2056 3406 
L 2056 2813 
Q 2006 2822 1964 2825 
Q 1922 2828 1872 2828 
Q 1447 2828 1219 2554 
Q 991 2281 991 1925 
L 991 0 
L 428 0 
L 428 3347 
z
" id="Helvetica-72" transform="scale(0.015625)"/>
       <path d="M 369 4606 
L 916 4606 
L 916 2941 
Q 1100 3181 1356 3307 
Q 1613 3434 1913 3434 
Q 2538 3434 2927 3004 
Q 3316 2575 3316 1738 
Q 3316 944 2931 419 
Q 2547 -106 1866 -106 
Q 1484 -106 1222 78 
Q 1066 188 888 428 
L 888 0 
L 369 0 
L 369 4606 
z
M 1831 391 
Q 2288 391 2514 753 
Q 2741 1116 2741 1709 
Q 2741 2238 2514 2584 
Q 2288 2931 1847 2931 
Q 1463 2931 1173 2647 
Q 884 2363 884 1709 
Q 884 1238 1003 944 
Q 1225 391 1831 391 
z
" id="Helvetica-62" transform="scale(0.015625)"/>
       <path d="M 844 891 
Q 844 647 1022 506 
Q 1200 366 1444 366 
Q 1741 366 2019 503 
Q 2488 731 2488 1250 
L 2488 1703 
Q 2384 1638 2221 1594 
Q 2059 1550 1903 1531 
L 1563 1488 
Q 1256 1447 1103 1359 
Q 844 1213 844 891 
z
M 2206 2028 
Q 2400 2053 2466 2191 
Q 2503 2266 2503 2406 
Q 2503 2694 2298 2823 
Q 2094 2953 1713 2953 
Q 1272 2953 1088 2716 
Q 984 2584 953 2325 
L 428 2325 
Q 444 2944 830 3186 
Q 1216 3428 1725 3428 
Q 2316 3428 2684 3203 
Q 3050 2978 3050 2503 
L 3050 575 
Q 3050 488 3086 434 
Q 3122 381 3238 381 
Q 3275 381 3322 386 
Q 3369 391 3422 400 
L 3422 -16 
Q 3291 -53 3222 -62 
Q 3153 -72 3034 -72 
Q 2744 -72 2613 134 
Q 2544 244 2516 444 
Q 2344 219 2022 53 
Q 1700 -113 1313 -113 
Q 847 -113 551 170 
Q 256 453 256 878 
Q 256 1344 547 1600 
Q 838 1856 1309 1916 
L 2206 2028 
z
M 1741 3428 
L 1741 3428 
z
" id="Helvetica-61" transform="scale(0.015625)"/>
       <path d="M 428 4591 
L 991 4591 
L 991 0 
L 428 0 
L 428 4591 
z
" id="Helvetica-6c" transform="scale(0.015625)"/>
       <path d="M 2503 3347 
L 3125 3347 
Q 3006 3025 2597 1878 
Q 2291 1016 2084 472 
Q 1597 -809 1397 -1090 
Q 1197 -1372 709 -1372 
Q 591 -1372 527 -1362 
Q 463 -1353 369 -1328 
L 369 -816 
Q 516 -856 581 -865 
Q 647 -875 697 -875 
Q 853 -875 926 -823 
Q 1000 -772 1050 -697 
Q 1066 -672 1162 -440 
Q 1259 -209 1303 -97 
L 66 3347 
L 703 3347 
L 1600 622 
L 2503 3347 
z
M 1597 3428 
L 1597 3428 
z
" id="Helvetica-79" transform="scale(0.015625)"/>
      </defs>
      <use xlink:href="#Helvetica-50"/>
      <use x="66.699219" xlink:href="#Helvetica-72"/>
      <use x="100" xlink:href="#Helvetica-6f"/>
      <use x="155.615234" xlink:href="#Helvetica-62"/>
      <use x="211.230469" xlink:href="#Helvetica-61"/>
      <use x="266.845703" xlink:href="#Helvetica-62"/>
      <use x="322.460938" xlink:href="#Helvetica-69"/>
      <use x="344.677734" xlink:href="#Helvetica-6c"/>
      <use x="366.894531" xlink:href="#Helvetica-69"/>
      <use x="389.111328" xlink:href="#Helvetica-74"/>
      <use x="416.894531" xlink:href="#Helvetica-79"/>
     </g>
    </g>
   </g>
   <g id="patch_71">
    <path d="M 94.94 141.64 
L 94.94 28.8 
" style="fill:none;stroke:#000000;stroke-linecap:square;stroke-linejoin:miter;"/>
   </g>
  </g>
 </g>
 <defs>
  <clipPath id="p277fe0fb52">
   <rect height="112.84" width="189.46" x="94.94" y="28.8"/>
  </clipPath>
 </defs>
</svg>
