<?xml version="1.0" encoding="utf-8" standalone="no"?>
<!DOCTYPE svg PUBLIC "-//W3C//DTD SVG 1.1//EN"
  "http://www.w3.org/Graphics/SVG/1.1/DTD/svg11.dtd">
<svg height="144pt" version="1.1" viewBox="0 0 144 144" width="144pt" xmlns="http://www.w3.org/2000/svg" xmlns:xlink="http://www.w3.org/1999/xlink">
 <metadata>
  <rdf:RDF xmlns:cc="http://creativecommons.org/ns#" xmlns:dc="http://purl.org/dc/elements/1.1/" xmlns:rdf="http://www.w3.org/1999/02/22-rdf-syntax-ns#">
   <cc:Work>
    <dc:type rdf:resource="http://purl.org/dc/dcmitype/StillImage"/>
    <dc:date>2022-12-30T22:18:21.098255</dc:date>
    <dc:format>image/svg+xml</dc:format>
    <dc:creator>
     <cc:Agent>
      <dc:title>Matplotlib v3.4.2, https://matplotlib.org/</dc:title>
     </cc:Agent>
    </dc:creator>
   </cc:Work>
  </rdf:RDF>
 </metadata>
 <defs>
  <style type="text/css">*{stroke-linecap:butt;stroke-linejoin:round;}</style>
 </defs>
 <g id="figure_1">
  <g id="patch_1">
   <path d="M 0 144 
L 144 144 
L 144 0 
L 0 0 
z
" style="fill:#ffffff;"/>
  </g>
  <g id="axes_1">
   <g id="patch_2">
    <path d="M 18 128.16 
L 129.6 128.16 
L 129.6 17.28 
L 18 17.28 
z
" style="fill:#ffffff;"/>
   </g>
   <g id="matplotlib.axis_1">
    <g id="xtick_1">
     <g id="text_1">
      <!-- Original -->
      <g style="fill:#262626;" transform="translate(51.08125 204.0725)rotate(-90)scale(0.2 -0.2)">
       <defs>
        <path d="M 309 2231 
Q 309 3372 921 4017 
Q 1534 4663 2503 4663 
Q 3138 4663 3647 4359 
Q 4156 4056 4423 3514 
Q 4691 2972 4691 2284 
Q 4691 1588 4409 1038 
Q 4128 488 3612 205 
Q 3097 -78 2500 -78 
Q 1853 -78 1343 234 
Q 834 547 571 1087 
Q 309 1628 309 2231 
z
M 934 2222 
Q 934 1394 1379 917 
Q 1825 441 2497 441 
Q 3181 441 3623 922 
Q 4066 1403 4066 2288 
Q 4066 2847 3877 3264 
Q 3688 3681 3323 3911 
Q 2959 4141 2506 4141 
Q 1863 4141 1398 3698 
Q 934 3256 934 2222 
z
" id="ArialMT-4f" transform="scale(0.015625)"/>
        <path d="M 416 0 
L 416 3319 
L 922 3319 
L 922 2816 
Q 1116 3169 1280 3281 
Q 1444 3394 1641 3394 
Q 1925 3394 2219 3213 
L 2025 2691 
Q 1819 2813 1613 2813 
Q 1428 2813 1281 2702 
Q 1134 2591 1072 2394 
Q 978 2094 978 1738 
L 978 0 
L 416 0 
z
" id="ArialMT-72" transform="scale(0.015625)"/>
        <path d="M 425 3934 
L 425 4581 
L 988 4581 
L 988 3934 
L 425 3934 
z
M 425 0 
L 425 3319 
L 988 3319 
L 988 0 
L 425 0 
z
" id="ArialMT-69" transform="scale(0.015625)"/>
        <path d="M 319 -275 
L 866 -356 
Q 900 -609 1056 -725 
Q 1266 -881 1628 -881 
Q 2019 -881 2231 -725 
Q 2444 -569 2519 -288 
Q 2563 -116 2559 434 
Q 2191 0 1641 0 
Q 956 0 581 494 
Q 206 988 206 1678 
Q 206 2153 378 2554 
Q 550 2956 876 3175 
Q 1203 3394 1644 3394 
Q 2231 3394 2613 2919 
L 2613 3319 
L 3131 3319 
L 3131 450 
Q 3131 -325 2973 -648 
Q 2816 -972 2473 -1159 
Q 2131 -1347 1631 -1347 
Q 1038 -1347 672 -1080 
Q 306 -813 319 -275 
z
M 784 1719 
Q 784 1066 1043 766 
Q 1303 466 1694 466 
Q 2081 466 2343 764 
Q 2606 1063 2606 1700 
Q 2606 2309 2336 2618 
Q 2066 2928 1684 2928 
Q 1309 2928 1046 2623 
Q 784 2319 784 1719 
z
" id="ArialMT-67" transform="scale(0.015625)"/>
        <path d="M 422 0 
L 422 3319 
L 928 3319 
L 928 2847 
Q 1294 3394 1984 3394 
Q 2284 3394 2536 3286 
Q 2788 3178 2913 3003 
Q 3038 2828 3088 2588 
Q 3119 2431 3119 2041 
L 3119 0 
L 2556 0 
L 2556 2019 
Q 2556 2363 2490 2533 
Q 2425 2703 2258 2804 
Q 2091 2906 1866 2906 
Q 1506 2906 1245 2678 
Q 984 2450 984 1813 
L 984 0 
L 422 0 
z
" id="ArialMT-6e" transform="scale(0.015625)"/>
        <path d="M 2588 409 
Q 2275 144 1986 34 
Q 1697 -75 1366 -75 
Q 819 -75 525 192 
Q 231 459 231 875 
Q 231 1119 342 1320 
Q 453 1522 633 1644 
Q 813 1766 1038 1828 
Q 1203 1872 1538 1913 
Q 2219 1994 2541 2106 
Q 2544 2222 2544 2253 
Q 2544 2597 2384 2738 
Q 2169 2928 1744 2928 
Q 1347 2928 1158 2789 
Q 969 2650 878 2297 
L 328 2372 
Q 403 2725 575 2942 
Q 747 3159 1072 3276 
Q 1397 3394 1825 3394 
Q 2250 3394 2515 3294 
Q 2781 3194 2906 3042 
Q 3031 2891 3081 2659 
Q 3109 2516 3109 2141 
L 3109 1391 
Q 3109 606 3145 398 
Q 3181 191 3288 0 
L 2700 0 
Q 2613 175 2588 409 
z
M 2541 1666 
Q 2234 1541 1622 1453 
Q 1275 1403 1131 1340 
Q 988 1278 909 1158 
Q 831 1038 831 891 
Q 831 666 1001 516 
Q 1172 366 1500 366 
Q 1825 366 2078 508 
Q 2331 650 2450 897 
Q 2541 1088 2541 1459 
L 2541 1666 
z
" id="ArialMT-61" transform="scale(0.015625)"/>
        <path d="M 409 0 
L 409 4581 
L 972 4581 
L 972 0 
L 409 0 
z
" id="ArialMT-6c" transform="scale(0.015625)"/>
       </defs>
       <use xlink:href="#ArialMT-4f"/>
       <use x="77.783203" xlink:href="#ArialMT-72"/>
       <use x="111.083984" xlink:href="#ArialMT-69"/>
       <use x="133.300781" xlink:href="#ArialMT-67"/>
       <use x="188.916016" xlink:href="#ArialMT-69"/>
       <use x="211.132812" xlink:href="#ArialMT-6e"/>
       <use x="266.748047" xlink:href="#ArialMT-61"/>
       <use x="322.363281" xlink:href="#ArialMT-6c"/>
      </g>
     </g>
    </g>
    <g id="xtick_2">
     <g id="text_2">
      <!-- Mutated -->
      <g style="fill:#262626;" transform="translate(106.870312 207.419375)rotate(-90)scale(0.2 -0.2)">
       <defs>
        <path d="M 475 0 
L 475 4581 
L 1388 4581 
L 2472 1338 
Q 2622 884 2691 659 
Q 2769 909 2934 1394 
L 4031 4581 
L 4847 4581 
L 4847 0 
L 4263 0 
L 4263 3834 
L 2931 0 
L 2384 0 
L 1059 3900 
L 1059 0 
L 475 0 
z
" id="ArialMT-4d" transform="scale(0.015625)"/>
        <path d="M 2597 0 
L 2597 488 
Q 2209 -75 1544 -75 
Q 1250 -75 995 37 
Q 741 150 617 320 
Q 494 491 444 738 
Q 409 903 409 1263 
L 409 3319 
L 972 3319 
L 972 1478 
Q 972 1038 1006 884 
Q 1059 663 1231 536 
Q 1403 409 1656 409 
Q 1909 409 2131 539 
Q 2353 669 2445 892 
Q 2538 1116 2538 1541 
L 2538 3319 
L 3100 3319 
L 3100 0 
L 2597 0 
z
" id="ArialMT-75" transform="scale(0.015625)"/>
        <path d="M 1650 503 
L 1731 6 
Q 1494 -44 1306 -44 
Q 1000 -44 831 53 
Q 663 150 594 308 
Q 525 466 525 972 
L 525 2881 
L 113 2881 
L 113 3319 
L 525 3319 
L 525 4141 
L 1084 4478 
L 1084 3319 
L 1650 3319 
L 1650 2881 
L 1084 2881 
L 1084 941 
Q 1084 700 1114 631 
Q 1144 563 1211 522 
Q 1278 481 1403 481 
Q 1497 481 1650 503 
z
" id="ArialMT-74" transform="scale(0.015625)"/>
        <path d="M 2694 1069 
L 3275 997 
Q 3138 488 2766 206 
Q 2394 -75 1816 -75 
Q 1088 -75 661 373 
Q 234 822 234 1631 
Q 234 2469 665 2931 
Q 1097 3394 1784 3394 
Q 2450 3394 2872 2941 
Q 3294 2488 3294 1666 
Q 3294 1616 3291 1516 
L 816 1516 
Q 847 969 1125 678 
Q 1403 388 1819 388 
Q 2128 388 2347 550 
Q 2566 713 2694 1069 
z
M 847 1978 
L 2700 1978 
Q 2663 2397 2488 2606 
Q 2219 2931 1791 2931 
Q 1403 2931 1139 2672 
Q 875 2413 847 1978 
z
" id="ArialMT-65" transform="scale(0.015625)"/>
        <path d="M 2575 0 
L 2575 419 
Q 2259 -75 1647 -75 
Q 1250 -75 917 144 
Q 584 363 401 755 
Q 219 1147 219 1656 
Q 219 2153 384 2558 
Q 550 2963 881 3178 
Q 1213 3394 1622 3394 
Q 1922 3394 2156 3267 
Q 2391 3141 2538 2938 
L 2538 4581 
L 3097 4581 
L 3097 0 
L 2575 0 
z
M 797 1656 
Q 797 1019 1065 703 
Q 1334 388 1700 388 
Q 2069 388 2326 689 
Q 2584 991 2584 1609 
Q 2584 2291 2321 2609 
Q 2059 2928 1675 2928 
Q 1300 2928 1048 2622 
Q 797 2316 797 1656 
z
" id="ArialMT-64" transform="scale(0.015625)"/>
       </defs>
       <use xlink:href="#ArialMT-4d"/>
       <use x="83.300781" xlink:href="#ArialMT-75"/>
       <use x="138.916016" xlink:href="#ArialMT-74"/>
       <use x="166.699219" xlink:href="#ArialMT-61"/>
       <use x="222.314453" xlink:href="#ArialMT-74"/>
       <use x="250.097656" xlink:href="#ArialMT-65"/>
       <use x="305.712891" xlink:href="#ArialMT-64"/>
      </g>
     </g>
    </g>
    <g id="text_3">
     <!-- Method -->
     <g style="fill:#262626;" transform="translate(40.448437 225.735)scale(0.2 -0.2)">
      <defs>
       <path d="M 422 0 
L 422 4581 
L 984 4581 
L 984 2938 
Q 1378 3394 1978 3394 
Q 2347 3394 2619 3248 
Q 2891 3103 3008 2847 
Q 3125 2591 3125 2103 
L 3125 0 
L 2563 0 
L 2563 2103 
Q 2563 2525 2380 2717 
Q 2197 2909 1863 2909 
Q 1613 2909 1392 2779 
Q 1172 2650 1078 2428 
Q 984 2206 984 1816 
L 984 0 
L 422 0 
z
" id="ArialMT-68" transform="scale(0.015625)"/>
       <path d="M 213 1659 
Q 213 2581 725 3025 
Q 1153 3394 1769 3394 
Q 2453 3394 2887 2945 
Q 3322 2497 3322 1706 
Q 3322 1066 3130 698 
Q 2938 331 2570 128 
Q 2203 -75 1769 -75 
Q 1072 -75 642 372 
Q 213 819 213 1659 
z
M 791 1659 
Q 791 1022 1069 705 
Q 1347 388 1769 388 
Q 2188 388 2466 706 
Q 2744 1025 2744 1678 
Q 2744 2294 2464 2611 
Q 2184 2928 1769 2928 
Q 1347 2928 1069 2612 
Q 791 2297 791 1659 
z
" id="ArialMT-6f" transform="scale(0.015625)"/>
      </defs>
      <use xlink:href="#ArialMT-4d"/>
      <use x="83.300781" xlink:href="#ArialMT-65"/>
      <use x="138.916016" xlink:href="#ArialMT-74"/>
      <use x="166.699219" xlink:href="#ArialMT-68"/>
      <use x="222.314453" xlink:href="#ArialMT-6f"/>
      <use x="277.929688" xlink:href="#ArialMT-64"/>
     </g>
    </g>
   </g>
   <g id="matplotlib.axis_2">
    <g id="ytick_1">
     <g id="text_4">
      <!-- 0 -->
      <g style="fill:#262626;" transform="translate(-0.121875 83.197334)scale(0.2 -0.2)">
       <defs>
        <path d="M 266 2259 
Q 266 3072 433 3567 
Q 600 4063 929 4331 
Q 1259 4600 1759 4600 
Q 2128 4600 2406 4451 
Q 2684 4303 2865 4023 
Q 3047 3744 3150 3342 
Q 3253 2941 3253 2259 
Q 3253 1453 3087 958 
Q 2922 463 2592 192 
Q 2263 -78 1759 -78 
Q 1097 -78 719 397 
Q 266 969 266 2259 
z
M 844 2259 
Q 844 1131 1108 757 
Q 1372 384 1759 384 
Q 2147 384 2411 759 
Q 2675 1134 2675 2259 
Q 2675 3391 2411 3762 
Q 2147 4134 1753 4134 
Q 1366 4134 1134 3806 
Q 844 3388 844 2259 
z
" id="ArialMT-30" transform="scale(0.015625)"/>
       </defs>
       <use xlink:href="#ArialMT-30"/>
      </g>
     </g>
    </g>
    <g id="ytick_2">
     <g id="text_5">
      <!-- 1 -->
      <g style="fill:#262626;" transform="translate(-0.121875 30.213746)scale(0.2 -0.2)">
       <defs>
        <path d="M 2384 0 
L 1822 0 
L 1822 3584 
Q 1619 3391 1289 3197 
Q 959 3003 697 2906 
L 697 3450 
Q 1169 3672 1522 3987 
Q 1875 4303 2022 4600 
L 2384 4600 
L 2384 0 
z
" id="ArialMT-31" transform="scale(0.015625)"/>
       </defs>
       <use xlink:href="#ArialMT-31"/>
      </g>
     </g>
    </g>
    <g id="text_6">
     <!-- Predictions -->
     <g style="fill:#262626;" transform="translate(-8.096875 122.185625)rotate(-90)scale(0.2 -0.2)">
      <defs>
       <path d="M 494 0 
L 494 4581 
L 2222 4581 
Q 2678 4581 2919 4538 
Q 3256 4481 3484 4323 
Q 3713 4166 3852 3881 
Q 3991 3597 3991 3256 
Q 3991 2672 3619 2267 
Q 3247 1863 2275 1863 
L 1100 1863 
L 1100 0 
L 494 0 
z
M 1100 2403 
L 2284 2403 
Q 2872 2403 3119 2622 
Q 3366 2841 3366 3238 
Q 3366 3525 3220 3729 
Q 3075 3934 2838 4000 
Q 2684 4041 2272 4041 
L 1100 4041 
L 1100 2403 
z
" id="ArialMT-50" transform="scale(0.015625)"/>
       <path d="M 2588 1216 
L 3141 1144 
Q 3050 572 2676 248 
Q 2303 -75 1759 -75 
Q 1078 -75 664 370 
Q 250 816 250 1647 
Q 250 2184 428 2587 
Q 606 2991 970 3192 
Q 1334 3394 1763 3394 
Q 2303 3394 2647 3120 
Q 2991 2847 3088 2344 
L 2541 2259 
Q 2463 2594 2264 2762 
Q 2066 2931 1784 2931 
Q 1359 2931 1093 2626 
Q 828 2322 828 1663 
Q 828 994 1084 691 
Q 1341 388 1753 388 
Q 2084 388 2306 591 
Q 2528 794 2588 1216 
z
" id="ArialMT-63" transform="scale(0.015625)"/>
       <path d="M 197 991 
L 753 1078 
Q 800 744 1014 566 
Q 1228 388 1613 388 
Q 2000 388 2187 545 
Q 2375 703 2375 916 
Q 2375 1106 2209 1216 
Q 2094 1291 1634 1406 
Q 1016 1563 777 1677 
Q 538 1791 414 1992 
Q 291 2194 291 2438 
Q 291 2659 392 2848 
Q 494 3038 669 3163 
Q 800 3259 1026 3326 
Q 1253 3394 1513 3394 
Q 1903 3394 2198 3281 
Q 2494 3169 2634 2976 
Q 2775 2784 2828 2463 
L 2278 2388 
Q 2241 2644 2061 2787 
Q 1881 2931 1553 2931 
Q 1166 2931 1000 2803 
Q 834 2675 834 2503 
Q 834 2394 903 2306 
Q 972 2216 1119 2156 
Q 1203 2125 1616 2013 
Q 2213 1853 2448 1751 
Q 2684 1650 2818 1456 
Q 2953 1263 2953 975 
Q 2953 694 2789 445 
Q 2625 197 2315 61 
Q 2006 -75 1616 -75 
Q 969 -75 630 194 
Q 291 463 197 991 
z
" id="ArialMT-73" transform="scale(0.015625)"/>
      </defs>
      <use xlink:href="#ArialMT-50"/>
      <use x="66.699219" xlink:href="#ArialMT-72"/>
      <use x="100" xlink:href="#ArialMT-65"/>
      <use x="155.615234" xlink:href="#ArialMT-64"/>
      <use x="211.230469" xlink:href="#ArialMT-69"/>
      <use x="233.447266" xlink:href="#ArialMT-63"/>
      <use x="283.447266" xlink:href="#ArialMT-74"/>
      <use x="311.230469" xlink:href="#ArialMT-69"/>
      <use x="333.447266" xlink:href="#ArialMT-6f"/>
      <use x="389.0625" xlink:href="#ArialMT-6e"/>
      <use x="444.677734" xlink:href="#ArialMT-73"/>
     </g>
    </g>
   </g>
   <g id="PolyCollection_1">
    <defs>
     <path d="M 46.267501 -20.88 
L 45.532499 -20.88 
L 45.346796 -21.677208 
L 45.08596 -22.474416 
L 44.728907 -23.271624 
L 44.252686 -24.068832 
L 43.634011 -24.86604 
L 42.85141 -25.663248 
L 41.887921 -26.460456 
L 40.734076 -27.257664 
L 39.390835 -28.054872 
L 37.87202 -28.852081 
L 36.205763 -29.649289 
L 34.434542 -30.446497 
L 32.613549 -31.243705 
L 30.807354 -32.040913 
L 29.08512 -32.838121 
L 27.514889 -33.635329 
L 26.157689 -34.432537 
L 25.062242 -35.229745 
L 24.261041 -36.026953 
L 23.7683 -36.824161 
L 23.58 -37.621369 
L 23.675888 -38.418577 
L 24.022972 -39.215785 
L 24.57985 -40.012993 
L 25.301162 -40.810201 
L 26.141516 -41.607409 
L 27.058462 -42.404617 
L 28.014348 -43.201825 
L 28.977142 -43.999034 
L 29.920491 -44.796242 
L 30.823375 -45.59345 
L 31.669697 -46.390658 
L 32.448031 -47.187866 
L 33.151587 -47.985074 
L 33.778339 -48.782282 
L 34.3311 -49.57949 
L 34.817366 -50.376698 
L 35.248732 -51.173906 
L 35.639833 -51.971114 
L 36.006843 -52.768322 
L 36.365718 -53.56553 
L 36.730415 -54.362738 
L 37.111367 -55.159946 
L 37.514441 -55.957154 
L 37.940542 -56.754362 
L 38.385904 -57.55157 
L 38.843007 -58.348779 
L 39.301958 -59.145987 
L 39.752104 -59.943195 
L 40.183626 -60.740403 
L 40.588875 -61.537611 
L 40.963263 -62.334819 
L 41.305614 -63.132027 
L 41.617967 -63.929235 
L 41.904897 -64.726443 
L 42.172525 -65.523651 
L 42.427387 -66.320859 
L 42.675366 -67.118067 
L 42.920834 -67.915275 
L 43.166116 -68.712483 
L 43.411311 -69.509691 
L 43.654451 -70.306899 
L 43.891926 -71.104107 
L 44.119075 -71.901315 
L 44.330844 -72.698523 
L 44.52242 -73.495732 
L 44.689762 -74.29294 
L 44.829995 -75.090148 
L 44.941631 -75.887356 
L 45.02463 -76.684564 
L 45.080304 -77.481772 
L 45.111106 -78.27898 
L 45.120341 -79.076188 
L 45.111844 -79.873396 
L 45.089693 -80.670604 
L 45.057964 -81.467812 
L 45.02058 -82.26502 
L 44.981238 -83.062228 
L 44.943402 -83.859436 
L 44.910307 -84.656644 
L 44.884961 -85.453852 
L 44.870083 -86.25106 
L 44.867987 -87.048268 
L 44.880406 -87.845476 
L 44.908302 -88.642685 
L 44.951698 -89.439893 
L 45.009597 -90.237101 
L 45.079998 -91.034309 
L 45.160048 -91.831517 
L 45.246301 -92.628725 
L 45.335041 -93.425933 
L 45.422643 -94.223141 
L 45.505885 -95.020349 
L 45.5822 -95.817557 
L 45.649811 -96.614765 
L 45.707771 -97.411973 
L 45.755895 -98.209181 
L 45.794624 -99.006389 
L 45.824853 -99.803597 
L 45.975147 -99.803597 
L 45.975147 -99.803597 
L 46.005376 -99.006389 
L 46.044105 -98.209181 
L 46.092229 -97.411973 
L 46.150189 -96.614765 
L 46.2178 -95.817557 
L 46.294115 -95.020349 
L 46.377357 -94.223141 
L 46.464959 -93.425933 
L 46.553699 -92.628725 
L 46.639952 -91.831517 
L 46.720002 -91.034309 
L 46.790403 -90.237101 
L 46.848302 -89.439893 
L 46.891698 -88.642685 
L 46.919594 -87.845476 
L 46.932013 -87.048268 
L 46.929917 -86.25106 
L 46.915039 -85.453852 
L 46.889693 -84.656644 
L 46.856598 -83.859436 
L 46.818762 -83.062228 
L 46.77942 -82.26502 
L 46.742036 -81.467812 
L 46.710307 -80.670604 
L 46.688156 -79.873396 
L 46.679659 -79.076188 
L 46.688894 -78.27898 
L 46.719696 -77.481772 
L 46.77537 -76.684564 
L 46.858369 -75.887356 
L 46.970005 -75.090148 
L 47.110238 -74.29294 
L 47.27758 -73.495732 
L 47.469156 -72.698523 
L 47.680925 -71.901315 
L 47.908074 -71.104107 
L 48.145549 -70.306899 
L 48.388689 -69.509691 
L 48.633884 -68.712483 
L 48.879166 -67.915275 
L 49.124634 -67.118067 
L 49.372613 -66.320859 
L 49.627475 -65.523651 
L 49.895103 -64.726443 
L 50.182033 -63.929235 
L 50.494386 -63.132027 
L 50.836737 -62.334819 
L 51.211125 -61.537611 
L 51.616374 -60.740403 
L 52.047896 -59.943195 
L 52.498042 -59.145987 
L 52.956993 -58.348779 
L 53.414096 -57.55157 
L 53.859458 -56.754362 
L 54.285559 -55.957154 
L 54.688633 -55.159946 
L 55.069585 -54.362738 
L 55.434282 -53.56553 
L 55.793157 -52.768322 
L 56.160167 -51.971114 
L 56.551268 -51.173906 
L 56.982634 -50.376698 
L 57.4689 -49.57949 
L 58.021661 -48.782282 
L 58.648413 -47.985074 
L 59.351969 -47.187866 
L 60.130303 -46.390658 
L 60.976625 -45.59345 
L 61.879509 -44.796242 
L 62.822858 -43.999034 
L 63.785652 -43.201825 
L 64.741538 -42.404617 
L 65.658484 -41.607409 
L 66.498838 -40.810201 
L 67.22015 -40.012993 
L 67.777028 -39.215785 
L 68.124112 -38.418577 
L 68.22 -37.621369 
L 68.0317 -36.824161 
L 67.538959 -36.026953 
L 66.737758 -35.229745 
L 65.642311 -34.432537 
L 64.285111 -33.635329 
L 62.71488 -32.838121 
L 60.992646 -32.040913 
L 59.186451 -31.243705 
L 57.365458 -30.446497 
L 55.594237 -29.649289 
L 53.92798 -28.852081 
L 52.409165 -28.054872 
L 51.065924 -27.257664 
L 49.912079 -26.460456 
L 48.94859 -25.663248 
L 48.165989 -24.86604 
L 47.547314 -24.068832 
L 47.071093 -23.271624 
L 46.71404 -22.474416 
L 46.453204 -21.677208 
L 46.267501 -20.88 
z
" id="m182519eeb8" style="stroke:#262626;stroke-width:0.75;"/>
    </defs>
    <g clip-path="url(#p79a09bddb0)">
     <use style="fill:#7f9dd2;stroke:#262626;stroke-width:0.75;" x="0" xlink:href="#m182519eeb8" y="144"/>
    </g>
   </g>
   <g id="PolyCollection_2">
    <defs>
     <path d="M 101.700057 -25.959924 
L 101.699943 -25.959924 
L 101.69972 -26.926794 
L 101.697934 -27.893663 
L 101.682591 -28.860532 
L 101.590558 -29.827402 
L 101.22667 -30.794271 
L 100.248524 -31.761141 
L 98.348682 -32.72801 
L 95.508234 -33.69488 
L 92.158721 -34.661749 
L 89.131734 -35.628619 
L 87.354742 -36.595488 
L 87.499968 -37.562358 
L 89.363517 -38.529227 
L 91.743543 -39.496096 
L 93.536535 -40.462966 
L 94.395544 -41.429835 
L 94.431925 -42.396705 
L 93.946496 -43.363574 
L 93.30063 -44.330444 
L 92.667755 -45.297313 
L 91.897338 -46.264183 
L 90.944315 -47.231052 
L 90.240963 -48.197922 
L 90.144081 -49.164791 
L 90.308899 -50.13166 
L 90.199265 -51.09853 
L 89.863324 -52.065399 
L 89.608321 -53.032269 
L 89.35005 -53.999138 
L 88.85346 -54.966008 
L 88.225023 -55.932877 
L 87.929527 -56.899747 
L 88.48485 -57.866616 
L 89.817011 -58.833486 
L 91.167102 -59.800355 
L 91.961349 -60.767224 
L 92.412709 -61.734094 
L 93.00856 -62.700963 
L 93.667999 -63.667833 
L 93.997798 -64.634702 
L 94.021724 -65.601572 
L 94.006447 -66.568441 
L 94.037537 -67.535311 
L 94.209972 -68.50218 
L 94.625176 -69.469049 
L 95.074043 -70.435919 
L 95.299267 -71.402788 
L 95.408466 -72.369658 
L 95.696478 -73.336527 
L 96.163186 -74.303397 
L 96.503584 -75.270266 
L 96.584771 -76.237136 
L 96.565903 -77.204005 
L 96.536653 -78.170875 
L 96.390364 -79.137744 
L 96.075851 -80.104613 
L 95.678621 -81.071483 
L 95.251735 -82.038352 
L 94.871592 -83.005222 
L 94.795407 -83.972091 
L 95.119141 -84.938961 
L 95.501394 -85.90583 
L 95.767557 -86.8727 
L 96.162733 -87.839569 
L 96.78066 -88.806439 
L 97.475416 -89.773308 
L 98.088426 -90.740177 
L 98.505508 -91.707047 
L 98.784746 -92.673916 
L 99.077723 -93.640786 
L 99.364106 -94.607655 
L 99.507529 -95.574525 
L 99.465341 -96.541394 
L 99.284393 -97.508264 
L 99.078994 -98.475133 
L 99.022276 -99.442003 
L 99.201556 -100.408872 
L 99.529378 -101.375741 
L 99.850391 -102.342611 
L 100.081877 -103.30948 
L 100.255732 -104.27635 
L 100.46118 -105.243219 
L 100.713732 -106.210089 
L 100.927967 -107.176958 
L 101.074307 -108.143828 
L 101.210703 -109.110697 
L 101.352359 -110.077567 
L 101.464052 -111.044436 
L 101.535571 -112.011305 
L 101.582653 -112.978175 
L 101.614894 -113.945044 
L 101.631309 -114.911914 
L 101.628573 -115.878783 
L 101.612173 -116.845653 
L 101.605324 -117.812522 
L 101.626614 -118.779392 
L 101.662147 -119.746261 
L 101.687362 -120.713131 
L 101.697298 -121.68 
L 101.702702 -121.68 
L 101.702702 -121.68 
L 101.712638 -120.713131 
L 101.737853 -119.746261 
L 101.773386 -118.779392 
L 101.794676 -117.812522 
L 101.787827 -116.845653 
L 101.771427 -115.878783 
L 101.768691 -114.911914 
L 101.785106 -113.945044 
L 101.817347 -112.978175 
L 101.864429 -112.011305 
L 101.935948 -111.044436 
L 102.047641 -110.077567 
L 102.189297 -109.110697 
L 102.325693 -108.143828 
L 102.472033 -107.176958 
L 102.686268 -106.210089 
L 102.93882 -105.243219 
L 103.144268 -104.27635 
L 103.318123 -103.30948 
L 103.549609 -102.342611 
L 103.870622 -101.375741 
L 104.198444 -100.408872 
L 104.377724 -99.442003 
L 104.321006 -98.475133 
L 104.115607 -97.508264 
L 103.934659 -96.541394 
L 103.892471 -95.574525 
L 104.035894 -94.607655 
L 104.322277 -93.640786 
L 104.615254 -92.673916 
L 104.894492 -91.707047 
L 105.311574 -90.740177 
L 105.924584 -89.773308 
L 106.61934 -88.806439 
L 107.237267 -87.839569 
L 107.632443 -86.8727 
L 107.898606 -85.90583 
L 108.280859 -84.938961 
L 108.604593 -83.972091 
L 108.528408 -83.005222 
L 108.148265 -82.038352 
L 107.721379 -81.071483 
L 107.324149 -80.104613 
L 107.009636 -79.137744 
L 106.863347 -78.170875 
L 106.834097 -77.204005 
L 106.815229 -76.237136 
L 106.896416 -75.270266 
L 107.236814 -74.303397 
L 107.703522 -73.336527 
L 107.991534 -72.369658 
L 108.100733 -71.402788 
L 108.325957 -70.435919 
L 108.774824 -69.469049 
L 109.190028 -68.50218 
L 109.362463 -67.535311 
L 109.393553 -66.568441 
L 109.378276 -65.601572 
L 109.402202 -64.634702 
L 109.732001 -63.667833 
L 110.39144 -62.700963 
L 110.987291 -61.734094 
L 111.438651 -60.767224 
L 112.232898 -59.800355 
L 113.582989 -58.833486 
L 114.91515 -57.866616 
L 115.470473 -56.899747 
L 115.174977 -55.932877 
L 114.54654 -54.966008 
L 114.04995 -53.999138 
L 113.791679 -53.032269 
L 113.536676 -52.065399 
L 113.200735 -51.09853 
L 113.091101 -50.13166 
L 113.255919 -49.164791 
L 113.159037 -48.197922 
L 112.455685 -47.231052 
L 111.502662 -46.264183 
L 110.732245 -45.297313 
L 110.09937 -44.330444 
L 109.453504 -43.363574 
L 108.968075 -42.396705 
L 109.004456 -41.429835 
L 109.863465 -40.462966 
L 111.656457 -39.496096 
L 114.036483 -38.529227 
L 115.900032 -37.562358 
L 116.045258 -36.595488 
L 114.268266 -35.628619 
L 111.241279 -34.661749 
L 107.891766 -33.69488 
L 105.051318 -32.72801 
L 103.151476 -31.761141 
L 102.17333 -30.794271 
L 101.809442 -29.827402 
L 101.717409 -28.860532 
L 101.702066 -27.893663 
L 101.70028 -26.926794 
L 101.700057 -25.959924 
z
" id="mad82653c77" style="stroke:#262626;stroke-width:0.75;"/>
    </defs>
    <g clip-path="url(#p79a09bddb0)">
     <use style="fill:#1a1a66;stroke:#262626;stroke-width:0.75;" x="0" xlink:href="#mad82653c77" y="144"/>
    </g>
   </g>
   <g id="line2d_1">
    <path clip-path="url(#p79a09bddb0)" d="M 45.9 113.44831 
L 45.9 71.994865 
" style="fill:none;stroke:#262626;stroke-linecap:round;stroke-width:0.75;"/>
   </g>
   <g id="line2d_2">
    <path clip-path="url(#p79a09bddb0)" d="M 45.9 107.733416 
L 45.9 92.106278 
" style="fill:none;stroke:#262626;stroke-linecap:round;stroke-width:2.25;"/>
   </g>
   <g id="line2d_3">
    <path clip-path="url(#p79a09bddb0)" d="M 101.7 115.248666 
L 101.7 29.847446 
" style="fill:none;stroke:#262626;stroke-linecap:round;stroke-width:0.75;"/>
   </g>
   <g id="line2d_4">
    <path clip-path="url(#p79a09bddb0)" d="M 101.7 97.440075 
L 101.7 70.397508 
" style="fill:none;stroke:#262626;stroke-linecap:round;stroke-width:2.25;"/>
   </g>
   <g id="patch_3">
    <path d="M 18 128.16 
L 18 17.28 
" style="fill:none;stroke:#262626;stroke-linecap:square;stroke-linejoin:miter;stroke-width:0.8;"/>
   </g>
   <g id="patch_4">
    <path d="M 18 128.16 
L 129.6 128.16 
" style="fill:none;stroke:#262626;stroke-linecap:square;stroke-linejoin:miter;stroke-width:0.8;"/>
   </g>
   <g id="PathCollection_1">
    <defs>
     <path d="M 0 0.75 
C 0.198902 0.75 0.389685 0.670975 0.53033 0.53033 
C 0.670975 0.389685 0.75 0.198902 0.75 0 
C 0.75 -0.198902 0.670975 -0.389685 0.53033 -0.53033 
C 0.389685 -0.670975 0.198902 -0.75 0 -0.75 
C -0.198902 -0.75 -0.389685 -0.670975 -0.53033 -0.53033 
C -0.670975 -0.389685 -0.75 -0.198902 -0.75 0 
C -0.75 0.198902 -0.670975 0.389685 -0.53033 0.53033 
C -0.389685 0.670975 -0.198902 0.75 0 0.75 
z
" id="mee083a1278" style="stroke:#262626;"/>
    </defs>
    <g clip-path="url(#p79a09bddb0)">
     <use style="fill:#ffffff;stroke:#262626;" x="45.9" xlink:href="#mee083a1278" y="102.278466"/>
    </g>
   </g>
   <g id="PathCollection_2">
    <g clip-path="url(#p79a09bddb0)">
     <use style="fill:#ffffff;stroke:#262626;" x="101.7" xlink:href="#mee083a1278" y="86.572004"/>
    </g>
   </g>
   <g id="text_7">
    <!-- Bottom 10% -->
    <g style="fill:#262626;" transform="translate(8.435625 11.28)scale(0.24 -0.24)">
     <defs>
      <path d="M 469 0 
L 469 4581 
L 2188 4581 
Q 2713 4581 3030 4442 
Q 3347 4303 3526 4014 
Q 3706 3725 3706 3409 
Q 3706 3116 3547 2856 
Q 3388 2597 3066 2438 
Q 3481 2316 3704 2022 
Q 3928 1728 3928 1328 
Q 3928 1006 3792 729 
Q 3656 453 3456 303 
Q 3256 153 2954 76 
Q 2653 0 2216 0 
L 469 0 
z
M 1075 2656 
L 2066 2656 
Q 2469 2656 2644 2709 
Q 2875 2778 2992 2937 
Q 3109 3097 3109 3338 
Q 3109 3566 3000 3739 
Q 2891 3913 2687 3977 
Q 2484 4041 1991 4041 
L 1075 4041 
L 1075 2656 
z
M 1075 541 
L 2216 541 
Q 2509 541 2628 563 
Q 2838 600 2978 687 
Q 3119 775 3209 942 
Q 3300 1109 3300 1328 
Q 3300 1584 3169 1773 
Q 3038 1963 2805 2039 
Q 2572 2116 2134 2116 
L 1075 2116 
L 1075 541 
z
" id="ArialMT-42" transform="scale(0.015625)"/>
      <path d="M 422 0 
L 422 3319 
L 925 3319 
L 925 2853 
Q 1081 3097 1340 3245 
Q 1600 3394 1931 3394 
Q 2300 3394 2536 3241 
Q 2772 3088 2869 2813 
Q 3263 3394 3894 3394 
Q 4388 3394 4653 3120 
Q 4919 2847 4919 2278 
L 4919 0 
L 4359 0 
L 4359 2091 
Q 4359 2428 4304 2576 
Q 4250 2725 4106 2815 
Q 3963 2906 3769 2906 
Q 3419 2906 3187 2673 
Q 2956 2441 2956 1928 
L 2956 0 
L 2394 0 
L 2394 2156 
Q 2394 2531 2256 2718 
Q 2119 2906 1806 2906 
Q 1569 2906 1367 2781 
Q 1166 2656 1075 2415 
Q 984 2175 984 1722 
L 984 0 
L 422 0 
z
" id="ArialMT-6d" transform="scale(0.015625)"/>
      <path id="ArialMT-20" transform="scale(0.015625)"/>
      <path d="M 372 3481 
Q 372 3972 619 4315 
Q 866 4659 1334 4659 
Q 1766 4659 2048 4351 
Q 2331 4044 2331 3447 
Q 2331 2866 2045 2552 
Q 1759 2238 1341 2238 
Q 925 2238 648 2547 
Q 372 2856 372 3481 
z
M 1350 4272 
Q 1141 4272 1002 4090 
Q 863 3909 863 3425 
Q 863 2984 1003 2804 
Q 1144 2625 1350 2625 
Q 1563 2625 1702 2806 
Q 1841 2988 1841 3469 
Q 1841 3913 1700 4092 
Q 1559 4272 1350 4272 
z
M 1353 -169 
L 3859 4659 
L 4316 4659 
L 1819 -169 
L 1353 -169 
z
M 3334 1075 
Q 3334 1569 3581 1911 
Q 3828 2253 4300 2253 
Q 4731 2253 5014 1945 
Q 5297 1638 5297 1041 
Q 5297 459 5011 145 
Q 4725 -169 4303 -169 
Q 3888 -169 3611 142 
Q 3334 453 3334 1075 
z
M 4316 1866 
Q 4103 1866 3964 1684 
Q 3825 1503 3825 1019 
Q 3825 581 3965 400 
Q 4106 219 4313 219 
Q 4528 219 4667 400 
Q 4806 581 4806 1063 
Q 4806 1506 4665 1686 
Q 4525 1866 4316 1866 
z
" id="ArialMT-25" transform="scale(0.015625)"/>
     </defs>
     <use xlink:href="#ArialMT-42"/>
     <use x="66.699219" xlink:href="#ArialMT-6f"/>
     <use x="122.314453" xlink:href="#ArialMT-74"/>
     <use x="150.097656" xlink:href="#ArialMT-74"/>
     <use x="177.880859" xlink:href="#ArialMT-6f"/>
     <use x="233.496094" xlink:href="#ArialMT-6d"/>
     <use x="316.796875" xlink:href="#ArialMT-20"/>
     <use x="344.580078" xlink:href="#ArialMT-31"/>
     <use x="400.195312" xlink:href="#ArialMT-30"/>
     <use x="455.810547" xlink:href="#ArialMT-25"/>
    </g>
   </g>
  </g>
 </g>
 <defs>
  <clipPath id="p79a09bddb0">
   <rect height="110.88" width="111.6" x="18" y="17.28"/>
  </clipPath>
 </defs>
</svg>
