<?xml version="1.0" encoding="utf-8" standalone="no"?>
<!DOCTYPE svg PUBLIC "-//W3C//DTD SVG 1.1//EN"
  "http://www.w3.org/Graphics/SVG/1.1/DTD/svg11.dtd">
<svg height="144pt" version="1.1" viewBox="0 0 144 144" width="144pt" xmlns="http://www.w3.org/2000/svg" xmlns:xlink="http://www.w3.org/1999/xlink">
 <metadata>
  <rdf:RDF xmlns:cc="http://creativecommons.org/ns#" xmlns:dc="http://purl.org/dc/elements/1.1/" xmlns:rdf="http://www.w3.org/1999/02/22-rdf-syntax-ns#">
   <cc:Work>
    <dc:type rdf:resource="http://purl.org/dc/dcmitype/StillImage"/>
    <dc:date>2022-12-30T22:18:35.812703</dc:date>
    <dc:format>image/svg+xml</dc:format>
    <dc:creator>
     <cc:Agent>
      <dc:title>Matplotlib v3.4.2, https://matplotlib.org/</dc:title>
     </cc:Agent>
    </dc:creator>
   </cc:Work>
  </rdf:RDF>
 </metadata>
 <defs>
  <style type="text/css">*{stroke-linecap:butt;stroke-linejoin:round;}</style>
 </defs>
 <g id="figure_1">
  <g id="patch_1">
   <path d="M 0 144 
L 144 144 
L 144 0 
L 0 0 
z
" style="fill:#ffffff;"/>
  </g>
  <g id="axes_1">
   <g id="patch_2">
    <path d="M 18 128.16 
L 129.6 128.16 
L 129.6 17.28 
L 18 17.28 
z
" style="fill:#ffffff;"/>
   </g>
   <g id="matplotlib.axis_1">
    <g id="xtick_1">
     <g id="text_1">
      <!-- Original -->
      <g style="fill:#262626;" transform="translate(51.08125 204.0725)rotate(-90)scale(0.2 -0.2)">
       <defs>
        <path d="M 309 2231 
Q 309 3372 921 4017 
Q 1534 4663 2503 4663 
Q 3138 4663 3647 4359 
Q 4156 4056 4423 3514 
Q 4691 2972 4691 2284 
Q 4691 1588 4409 1038 
Q 4128 488 3612 205 
Q 3097 -78 2500 -78 
Q 1853 -78 1343 234 
Q 834 547 571 1087 
Q 309 1628 309 2231 
z
M 934 2222 
Q 934 1394 1379 917 
Q 1825 441 2497 441 
Q 3181 441 3623 922 
Q 4066 1403 4066 2288 
Q 4066 2847 3877 3264 
Q 3688 3681 3323 3911 
Q 2959 4141 2506 4141 
Q 1863 4141 1398 3698 
Q 934 3256 934 2222 
z
" id="ArialMT-4f" transform="scale(0.015625)"/>
        <path d="M 416 0 
L 416 3319 
L 922 3319 
L 922 2816 
Q 1116 3169 1280 3281 
Q 1444 3394 1641 3394 
Q 1925 3394 2219 3213 
L 2025 2691 
Q 1819 2813 1613 2813 
Q 1428 2813 1281 2702 
Q 1134 2591 1072 2394 
Q 978 2094 978 1738 
L 978 0 
L 416 0 
z
" id="ArialMT-72" transform="scale(0.015625)"/>
        <path d="M 425 3934 
L 425 4581 
L 988 4581 
L 988 3934 
L 425 3934 
z
M 425 0 
L 425 3319 
L 988 3319 
L 988 0 
L 425 0 
z
" id="ArialMT-69" transform="scale(0.015625)"/>
        <path d="M 319 -275 
L 866 -356 
Q 900 -609 1056 -725 
Q 1266 -881 1628 -881 
Q 2019 -881 2231 -725 
Q 2444 -569 2519 -288 
Q 2563 -116 2559 434 
Q 2191 0 1641 0 
Q 956 0 581 494 
Q 206 988 206 1678 
Q 206 2153 378 2554 
Q 550 2956 876 3175 
Q 1203 3394 1644 3394 
Q 2231 3394 2613 2919 
L 2613 3319 
L 3131 3319 
L 3131 450 
Q 3131 -325 2973 -648 
Q 2816 -972 2473 -1159 
Q 2131 -1347 1631 -1347 
Q 1038 -1347 672 -1080 
Q 306 -813 319 -275 
z
M 784 1719 
Q 784 1066 1043 766 
Q 1303 466 1694 466 
Q 2081 466 2343 764 
Q 2606 1063 2606 1700 
Q 2606 2309 2336 2618 
Q 2066 2928 1684 2928 
Q 1309 2928 1046 2623 
Q 784 2319 784 1719 
z
" id="ArialMT-67" transform="scale(0.015625)"/>
        <path d="M 422 0 
L 422 3319 
L 928 3319 
L 928 2847 
Q 1294 3394 1984 3394 
Q 2284 3394 2536 3286 
Q 2788 3178 2913 3003 
Q 3038 2828 3088 2588 
Q 3119 2431 3119 2041 
L 3119 0 
L 2556 0 
L 2556 2019 
Q 2556 2363 2490 2533 
Q 2425 2703 2258 2804 
Q 2091 2906 1866 2906 
Q 1506 2906 1245 2678 
Q 984 2450 984 1813 
L 984 0 
L 422 0 
z
" id="ArialMT-6e" transform="scale(0.015625)"/>
        <path d="M 2588 409 
Q 2275 144 1986 34 
Q 1697 -75 1366 -75 
Q 819 -75 525 192 
Q 231 459 231 875 
Q 231 1119 342 1320 
Q 453 1522 633 1644 
Q 813 1766 1038 1828 
Q 1203 1872 1538 1913 
Q 2219 1994 2541 2106 
Q 2544 2222 2544 2253 
Q 2544 2597 2384 2738 
Q 2169 2928 1744 2928 
Q 1347 2928 1158 2789 
Q 969 2650 878 2297 
L 328 2372 
Q 403 2725 575 2942 
Q 747 3159 1072 3276 
Q 1397 3394 1825 3394 
Q 2250 3394 2515 3294 
Q 2781 3194 2906 3042 
Q 3031 2891 3081 2659 
Q 3109 2516 3109 2141 
L 3109 1391 
Q 3109 606 3145 398 
Q 3181 191 3288 0 
L 2700 0 
Q 2613 175 2588 409 
z
M 2541 1666 
Q 2234 1541 1622 1453 
Q 1275 1403 1131 1340 
Q 988 1278 909 1158 
Q 831 1038 831 891 
Q 831 666 1001 516 
Q 1172 366 1500 366 
Q 1825 366 2078 508 
Q 2331 650 2450 897 
Q 2541 1088 2541 1459 
L 2541 1666 
z
" id="ArialMT-61" transform="scale(0.015625)"/>
        <path d="M 409 0 
L 409 4581 
L 972 4581 
L 972 0 
L 409 0 
z
" id="ArialMT-6c" transform="scale(0.015625)"/>
       </defs>
       <use xlink:href="#ArialMT-4f"/>
       <use x="77.783203" xlink:href="#ArialMT-72"/>
       <use x="111.083984" xlink:href="#ArialMT-69"/>
       <use x="133.300781" xlink:href="#ArialMT-67"/>
       <use x="188.916016" xlink:href="#ArialMT-69"/>
       <use x="211.132812" xlink:href="#ArialMT-6e"/>
       <use x="266.748047" xlink:href="#ArialMT-61"/>
       <use x="322.363281" xlink:href="#ArialMT-6c"/>
      </g>
     </g>
    </g>
    <g id="xtick_2">
     <g id="text_2">
      <!-- Mutated -->
      <g style="fill:#262626;" transform="translate(106.870312 207.419375)rotate(-90)scale(0.2 -0.2)">
       <defs>
        <path d="M 475 0 
L 475 4581 
L 1388 4581 
L 2472 1338 
Q 2622 884 2691 659 
Q 2769 909 2934 1394 
L 4031 4581 
L 4847 4581 
L 4847 0 
L 4263 0 
L 4263 3834 
L 2931 0 
L 2384 0 
L 1059 3900 
L 1059 0 
L 475 0 
z
" id="ArialMT-4d" transform="scale(0.015625)"/>
        <path d="M 2597 0 
L 2597 488 
Q 2209 -75 1544 -75 
Q 1250 -75 995 37 
Q 741 150 617 320 
Q 494 491 444 738 
Q 409 903 409 1263 
L 409 3319 
L 972 3319 
L 972 1478 
Q 972 1038 1006 884 
Q 1059 663 1231 536 
Q 1403 409 1656 409 
Q 1909 409 2131 539 
Q 2353 669 2445 892 
Q 2538 1116 2538 1541 
L 2538 3319 
L 3100 3319 
L 3100 0 
L 2597 0 
z
" id="ArialMT-75" transform="scale(0.015625)"/>
        <path d="M 1650 503 
L 1731 6 
Q 1494 -44 1306 -44 
Q 1000 -44 831 53 
Q 663 150 594 308 
Q 525 466 525 972 
L 525 2881 
L 113 2881 
L 113 3319 
L 525 3319 
L 525 4141 
L 1084 4478 
L 1084 3319 
L 1650 3319 
L 1650 2881 
L 1084 2881 
L 1084 941 
Q 1084 700 1114 631 
Q 1144 563 1211 522 
Q 1278 481 1403 481 
Q 1497 481 1650 503 
z
" id="ArialMT-74" transform="scale(0.015625)"/>
        <path d="M 2694 1069 
L 3275 997 
Q 3138 488 2766 206 
Q 2394 -75 1816 -75 
Q 1088 -75 661 373 
Q 234 822 234 1631 
Q 234 2469 665 2931 
Q 1097 3394 1784 3394 
Q 2450 3394 2872 2941 
Q 3294 2488 3294 1666 
Q 3294 1616 3291 1516 
L 816 1516 
Q 847 969 1125 678 
Q 1403 388 1819 388 
Q 2128 388 2347 550 
Q 2566 713 2694 1069 
z
M 847 1978 
L 2700 1978 
Q 2663 2397 2488 2606 
Q 2219 2931 1791 2931 
Q 1403 2931 1139 2672 
Q 875 2413 847 1978 
z
" id="ArialMT-65" transform="scale(0.015625)"/>
        <path d="M 2575 0 
L 2575 419 
Q 2259 -75 1647 -75 
Q 1250 -75 917 144 
Q 584 363 401 755 
Q 219 1147 219 1656 
Q 219 2153 384 2558 
Q 550 2963 881 3178 
Q 1213 3394 1622 3394 
Q 1922 3394 2156 3267 
Q 2391 3141 2538 2938 
L 2538 4581 
L 3097 4581 
L 3097 0 
L 2575 0 
z
M 797 1656 
Q 797 1019 1065 703 
Q 1334 388 1700 388 
Q 2069 388 2326 689 
Q 2584 991 2584 1609 
Q 2584 2291 2321 2609 
Q 2059 2928 1675 2928 
Q 1300 2928 1048 2622 
Q 797 2316 797 1656 
z
" id="ArialMT-64" transform="scale(0.015625)"/>
       </defs>
       <use xlink:href="#ArialMT-4d"/>
       <use x="83.300781" xlink:href="#ArialMT-75"/>
       <use x="138.916016" xlink:href="#ArialMT-74"/>
       <use x="166.699219" xlink:href="#ArialMT-61"/>
       <use x="222.314453" xlink:href="#ArialMT-74"/>
       <use x="250.097656" xlink:href="#ArialMT-65"/>
       <use x="305.712891" xlink:href="#ArialMT-64"/>
      </g>
     </g>
    </g>
    <g id="text_3">
     <!-- Method -->
     <g style="fill:#262626;" transform="translate(40.448437 225.735)scale(0.2 -0.2)">
      <defs>
       <path d="M 422 0 
L 422 4581 
L 984 4581 
L 984 2938 
Q 1378 3394 1978 3394 
Q 2347 3394 2619 3248 
Q 2891 3103 3008 2847 
Q 3125 2591 3125 2103 
L 3125 0 
L 2563 0 
L 2563 2103 
Q 2563 2525 2380 2717 
Q 2197 2909 1863 2909 
Q 1613 2909 1392 2779 
Q 1172 2650 1078 2428 
Q 984 2206 984 1816 
L 984 0 
L 422 0 
z
" id="ArialMT-68" transform="scale(0.015625)"/>
       <path d="M 213 1659 
Q 213 2581 725 3025 
Q 1153 3394 1769 3394 
Q 2453 3394 2887 2945 
Q 3322 2497 3322 1706 
Q 3322 1066 3130 698 
Q 2938 331 2570 128 
Q 2203 -75 1769 -75 
Q 1072 -75 642 372 
Q 213 819 213 1659 
z
M 791 1659 
Q 791 1022 1069 705 
Q 1347 388 1769 388 
Q 2188 388 2466 706 
Q 2744 1025 2744 1678 
Q 2744 2294 2464 2611 
Q 2184 2928 1769 2928 
Q 1347 2928 1069 2612 
Q 791 2297 791 1659 
z
" id="ArialMT-6f" transform="scale(0.015625)"/>
      </defs>
      <use xlink:href="#ArialMT-4d"/>
      <use x="83.300781" xlink:href="#ArialMT-65"/>
      <use x="138.916016" xlink:href="#ArialMT-74"/>
      <use x="166.699219" xlink:href="#ArialMT-68"/>
      <use x="222.314453" xlink:href="#ArialMT-6f"/>
      <use x="277.929688" xlink:href="#ArialMT-64"/>
     </g>
    </g>
   </g>
   <g id="matplotlib.axis_2">
    <g id="ytick_1">
     <g id="text_4">
      <!-- −1 -->
      <g style="fill:#262626;" transform="translate(-11.803125 135.007415)scale(0.2 -0.2)">
       <defs>
        <path d="M 3381 1997 
L 356 1997 
L 356 2522 
L 3381 2522 
L 3381 1997 
z
" id="ArialMT-2212" transform="scale(0.015625)"/>
        <path d="M 2384 0 
L 1822 0 
L 1822 3584 
Q 1619 3391 1289 3197 
Q 959 3003 697 2906 
L 697 3450 
Q 1169 3672 1522 3987 
Q 1875 4303 2022 4600 
L 2384 4600 
L 2384 0 
z
" id="ArialMT-31" transform="scale(0.015625)"/>
       </defs>
       <use xlink:href="#ArialMT-2212"/>
       <use x="58.398438" xlink:href="#ArialMT-31"/>
      </g>
     </g>
    </g>
    <g id="ytick_2">
     <g id="text_5">
      <!-- 0 -->
      <g style="fill:#262626;" transform="translate(-0.121875 87.706799)scale(0.2 -0.2)">
       <defs>
        <path d="M 266 2259 
Q 266 3072 433 3567 
Q 600 4063 929 4331 
Q 1259 4600 1759 4600 
Q 2128 4600 2406 4451 
Q 2684 4303 2865 4023 
Q 3047 3744 3150 3342 
Q 3253 2941 3253 2259 
Q 3253 1453 3087 958 
Q 2922 463 2592 192 
Q 2263 -78 1759 -78 
Q 1097 -78 719 397 
Q 266 969 266 2259 
z
M 844 2259 
Q 844 1131 1108 757 
Q 1372 384 1759 384 
Q 2147 384 2411 759 
Q 2675 1134 2675 2259 
Q 2675 3391 2411 3762 
Q 2147 4134 1753 4134 
Q 1366 4134 1134 3806 
Q 844 3388 844 2259 
z
" id="ArialMT-30" transform="scale(0.015625)"/>
       </defs>
       <use xlink:href="#ArialMT-30"/>
      </g>
     </g>
    </g>
    <g id="ytick_3">
     <g id="text_6">
      <!-- 1 -->
      <g style="fill:#262626;" transform="translate(-0.121875 40.406184)scale(0.2 -0.2)">
       <use xlink:href="#ArialMT-31"/>
      </g>
     </g>
    </g>
    <g id="text_7">
     <!-- Predictions -->
     <g style="fill:#262626;" transform="translate(-19.778125 122.185625)rotate(-90)scale(0.2 -0.2)">
      <defs>
       <path d="M 494 0 
L 494 4581 
L 2222 4581 
Q 2678 4581 2919 4538 
Q 3256 4481 3484 4323 
Q 3713 4166 3852 3881 
Q 3991 3597 3991 3256 
Q 3991 2672 3619 2267 
Q 3247 1863 2275 1863 
L 1100 1863 
L 1100 0 
L 494 0 
z
M 1100 2403 
L 2284 2403 
Q 2872 2403 3119 2622 
Q 3366 2841 3366 3238 
Q 3366 3525 3220 3729 
Q 3075 3934 2838 4000 
Q 2684 4041 2272 4041 
L 1100 4041 
L 1100 2403 
z
" id="ArialMT-50" transform="scale(0.015625)"/>
       <path d="M 2588 1216 
L 3141 1144 
Q 3050 572 2676 248 
Q 2303 -75 1759 -75 
Q 1078 -75 664 370 
Q 250 816 250 1647 
Q 250 2184 428 2587 
Q 606 2991 970 3192 
Q 1334 3394 1763 3394 
Q 2303 3394 2647 3120 
Q 2991 2847 3088 2344 
L 2541 2259 
Q 2463 2594 2264 2762 
Q 2066 2931 1784 2931 
Q 1359 2931 1093 2626 
Q 828 2322 828 1663 
Q 828 994 1084 691 
Q 1341 388 1753 388 
Q 2084 388 2306 591 
Q 2528 794 2588 1216 
z
" id="ArialMT-63" transform="scale(0.015625)"/>
       <path d="M 197 991 
L 753 1078 
Q 800 744 1014 566 
Q 1228 388 1613 388 
Q 2000 388 2187 545 
Q 2375 703 2375 916 
Q 2375 1106 2209 1216 
Q 2094 1291 1634 1406 
Q 1016 1563 777 1677 
Q 538 1791 414 1992 
Q 291 2194 291 2438 
Q 291 2659 392 2848 
Q 494 3038 669 3163 
Q 800 3259 1026 3326 
Q 1253 3394 1513 3394 
Q 1903 3394 2198 3281 
Q 2494 3169 2634 2976 
Q 2775 2784 2828 2463 
L 2278 2388 
Q 2241 2644 2061 2787 
Q 1881 2931 1553 2931 
Q 1166 2931 1000 2803 
Q 834 2675 834 2503 
Q 834 2394 903 2306 
Q 972 2216 1119 2156 
Q 1203 2125 1616 2013 
Q 2213 1853 2448 1751 
Q 2684 1650 2818 1456 
Q 2953 1263 2953 975 
Q 2953 694 2789 445 
Q 2625 197 2315 61 
Q 2006 -75 1616 -75 
Q 969 -75 630 194 
Q 291 463 197 991 
z
" id="ArialMT-73" transform="scale(0.015625)"/>
      </defs>
      <use xlink:href="#ArialMT-50"/>
      <use x="66.699219" xlink:href="#ArialMT-72"/>
      <use x="100" xlink:href="#ArialMT-65"/>
      <use x="155.615234" xlink:href="#ArialMT-64"/>
      <use x="211.230469" xlink:href="#ArialMT-69"/>
      <use x="233.447266" xlink:href="#ArialMT-63"/>
      <use x="283.447266" xlink:href="#ArialMT-74"/>
      <use x="311.230469" xlink:href="#ArialMT-69"/>
      <use x="333.447266" xlink:href="#ArialMT-6f"/>
      <use x="389.0625" xlink:href="#ArialMT-6e"/>
      <use x="444.677734" xlink:href="#ArialMT-73"/>
     </g>
    </g>
   </g>
   <g id="PolyCollection_1">
    <defs>
     <path d="M 46.296334 -20.88 
L 45.503666 -20.88 
L 45.361067 -21.898182 
L 45.177464 -22.916364 
L 44.944797 -23.934545 
L 44.654606 -24.952727 
L 44.298378 -25.970909 
L 43.867976 -26.989091 
L 43.356161 -28.007273 
L 42.757137 -29.025455 
L 42.067133 -30.043636 
L 41.284938 -31.061818 
L 40.412368 -32.08 
L 39.454607 -33.098182 
L 38.420392 -34.116364 
L 37.322012 -35.134545 
L 36.175106 -36.152727 
L 34.998271 -37.170909 
L 33.812496 -38.189091 
L 32.640456 -39.207273 
L 31.505711 -40.225455 
L 30.431852 -41.243636 
L 29.441647 -42.261818 
L 28.556209 -43.28 
L 27.794237 -44.298182 
L 27.171333 -45.316364 
L 26.699422 -46.334545 
L 26.386283 -47.352727 
L 26.235191 -48.370909 
L 26.244706 -49.389091 
L 26.4086 -50.407273 
L 26.715961 -51.425455 
L 27.151477 -52.443636 
L 27.695928 -53.461818 
L 28.326872 -54.48 
L 29.019518 -55.498182 
L 29.747757 -56.516364 
L 30.485288 -57.534545 
L 31.206781 -58.552727 
L 31.889004 -59.570909 
L 32.511818 -60.589091 
L 33.059 -61.607273 
L 33.518815 -62.625455 
L 33.884319 -63.643636 
L 34.153374 -64.661818 
L 34.328407 -65.68 
L 34.415928 -66.698182 
L 34.425869 -67.716364 
L 34.370809 -68.734545 
L 34.265116 -69.752727 
L 34.124097 -70.770909 
L 33.963173 -71.789091 
L 33.797135 -72.807273 
L 33.639505 -73.825455 
L 33.502025 -74.843636 
L 33.394285 -75.861818 
L 33.323515 -76.88 
L 33.29452 -77.898182 
L 33.309772 -78.916364 
L 33.369638 -79.934545 
L 33.472715 -80.952727 
L 33.616239 -81.970909 
L 33.796529 -82.989091 
L 34.009425 -84.007273 
L 34.250662 -85.025455 
L 34.516176 -86.043636 
L 34.802296 -87.061818 
L 35.10584 -88.08 
L 35.424123 -89.098182 
L 35.754905 -90.116364 
L 36.096306 -91.134545 
L 36.446726 -92.152727 
L 36.804795 -93.170909 
L 37.169354 -94.189091 
L 37.539473 -95.207273 
L 37.91448 -96.225455 
L 38.293991 -97.243636 
L 38.6779 -98.261818 
L 39.066328 -99.28 
L 39.4595 -100.298182 
L 39.857578 -101.316364 
L 40.260461 -102.334545 
L 40.667578 -103.352727 
L 41.077714 -104.370909 
L 41.488896 -105.389091 
L 41.89837 -106.407273 
L 42.302676 -107.425455 
L 42.697812 -108.443636 
L 43.079476 -109.461818 
L 43.443353 -110.48 
L 43.785416 -111.498182 
L 44.1022 -112.516364 
L 44.391023 -113.534545 
L 44.650133 -114.552727 
L 44.878774 -115.570909 
L 45.077161 -116.589091 
L 45.246389 -117.607273 
L 45.388285 -118.625455 
L 45.505226 -119.643636 
L 45.599946 -120.661818 
L 45.675346 -121.68 
L 46.124654 -121.68 
L 46.124654 -121.68 
L 46.200054 -120.661818 
L 46.294774 -119.643636 
L 46.411715 -118.625455 
L 46.553611 -117.607273 
L 46.722839 -116.589091 
L 46.921226 -115.570909 
L 47.149867 -114.552727 
L 47.408977 -113.534545 
L 47.6978 -112.516364 
L 48.014584 -111.498182 
L 48.356647 -110.48 
L 48.720524 -109.461818 
L 49.102188 -108.443636 
L 49.497324 -107.425455 
L 49.90163 -106.407273 
L 50.311104 -105.389091 
L 50.722286 -104.370909 
L 51.132422 -103.352727 
L 51.539539 -102.334545 
L 51.942422 -101.316364 
L 52.3405 -100.298182 
L 52.733672 -99.28 
L 53.1221 -98.261818 
L 53.506009 -97.243636 
L 53.88552 -96.225455 
L 54.260527 -95.207273 
L 54.630646 -94.189091 
L 54.995205 -93.170909 
L 55.353274 -92.152727 
L 55.703694 -91.134545 
L 56.045095 -90.116364 
L 56.375877 -89.098182 
L 56.69416 -88.08 
L 56.997704 -87.061818 
L 57.283824 -86.043636 
L 57.549338 -85.025455 
L 57.790575 -84.007273 
L 58.003471 -82.989091 
L 58.183761 -81.970909 
L 58.327285 -80.952727 
L 58.430362 -79.934545 
L 58.490228 -78.916364 
L 58.50548 -77.898182 
L 58.476485 -76.88 
L 58.405715 -75.861818 
L 58.297975 -74.843636 
L 58.160495 -73.825455 
L 58.002865 -72.807273 
L 57.836827 -71.789091 
L 57.675903 -70.770909 
L 57.534884 -69.752727 
L 57.429191 -68.734545 
L 57.374131 -67.716364 
L 57.384072 -66.698182 
L 57.471593 -65.68 
L 57.646626 -64.661818 
L 57.915681 -63.643636 
L 58.281185 -62.625455 
L 58.741 -61.607273 
L 59.288182 -60.589091 
L 59.910996 -59.570909 
L 60.593219 -58.552727 
L 61.314712 -57.534545 
L 62.052243 -56.516364 
L 62.780482 -55.498182 
L 63.473128 -54.48 
L 64.104072 -53.461818 
L 64.648523 -52.443636 
L 65.084039 -51.425455 
L 65.3914 -50.407273 
L 65.555294 -49.389091 
L 65.564809 -48.370909 
L 65.413717 -47.352727 
L 65.100578 -46.334545 
L 64.628667 -45.316364 
L 64.005763 -44.298182 
L 63.243791 -43.28 
L 62.358353 -42.261818 
L 61.368148 -41.243636 
L 60.294289 -40.225455 
L 59.159544 -39.207273 
L 57.987504 -38.189091 
L 56.801729 -37.170909 
L 55.624894 -36.152727 
L 54.477988 -35.134545 
L 53.379608 -34.116364 
L 52.345393 -33.098182 
L 51.387632 -32.08 
L 50.515062 -31.061818 
L 49.732867 -30.043636 
L 49.042863 -29.025455 
L 48.443839 -28.007273 
L 47.932024 -26.989091 
L 47.501622 -25.970909 
L 47.145394 -24.952727 
L 46.855203 -23.934545 
L 46.622536 -22.916364 
L 46.438933 -21.898182 
L 46.296334 -20.88 
z
" id="me82621e681" style="stroke:#262626;stroke-width:0.75;"/>
    </defs>
    <g clip-path="url(#pf0f7fcdad6)">
     <use style="fill:#7f9dd2;stroke:#262626;stroke-width:0.75;" x="0" xlink:href="#me82621e681" y="144"/>
    </g>
   </g>
   <g id="PolyCollection_2">
    <defs>
     <path d="M 101.710538 -28.757917 
L 101.689462 -28.757917 
L 101.648393 -29.589276 
L 101.50345 -30.420636 
L 101.113844 -31.251996 
L 100.31094 -32.083356 
L 99.013927 -32.914716 
L 97.294761 -33.746075 
L 95.326375 -34.577435 
L 93.397531 -35.408795 
L 91.974958 -36.240155 
L 91.396573 -37.071514 
L 91.340188 -37.902874 
L 90.926669 -38.734234 
L 89.600796 -39.565594 
L 87.82125 -40.396953 
L 86.728324 -41.228313 
L 87.064439 -42.059673 
L 88.448893 -42.891033 
L 89.733331 -43.722393 
L 90.01644 -44.553752 
L 89.286341 -45.385112 
L 88.135541 -46.216472 
L 86.987163 -47.047832 
L 85.764678 -47.879191 
L 84.310129 -48.710551 
L 82.812636 -49.541911 
L 81.58909 -50.373271 
L 80.670472 -51.20463 
L 79.910233 -52.03599 
L 79.382476 -52.86735 
L 79.38 -53.69871 
L 80.02872 -54.53007 
L 81.122516 -55.361429 
L 82.361996 -56.192789 
L 83.628809 -57.024149 
L 85.009876 -57.855509 
L 86.602612 -58.686868 
L 88.325463 -59.518228 
L 89.918894 -60.349588 
L 91.112739 -61.180948 
L 91.810351 -62.012307 
L 92.12306 -62.843667 
L 92.189789 -63.675027 
L 91.986475 -64.506387 
L 91.415286 -65.337747 
L 90.577319 -66.169106 
L 89.832577 -67.000466 
L 89.51511 -67.831826 
L 89.62263 -68.663186 
L 89.894151 -69.494545 
L 90.139002 -70.325905 
L 90.277617 -71.157265 
L 90.16602 -71.988625 
L 89.680395 -72.819984 
L 88.938035 -73.651344 
L 88.242083 -74.482704 
L 87.776494 -75.314064 
L 87.390712 -76.145424 
L 86.728542 -76.976783 
L 85.642395 -77.808143 
L 84.481367 -78.639503 
L 83.873545 -79.470863 
L 84.20228 -80.302222 
L 85.359979 -81.133582 
L 86.948532 -81.964942 
L 88.571886 -82.796302 
L 89.958253 -83.627661 
L 90.946151 -84.459021 
L 91.438727 -85.290381 
L 91.38316 -86.121741 
L 90.771385 -86.953101 
L 89.669709 -87.78446 
L 88.322175 -88.61582 
L 87.23178 -89.44718 
L 86.954282 -90.27854 
L 87.64581 -91.109899 
L 88.908319 -91.941259 
L 90.198824 -92.772619 
L 91.29468 -93.603979 
L 92.265817 -94.435338 
L 93.103679 -95.266698 
L 93.552007 -96.098058 
L 93.325011 -96.929418 
L 92.404892 -97.760778 
L 91.139631 -98.592137 
L 90.11739 -99.423497 
L 89.819461 -100.254857 
L 90.200635 -101.086217 
L 90.715369 -101.917576 
L 90.984879 -102.748936 
L 91.319941 -103.580296 
L 92.343166 -104.411656 
L 94.219549 -105.243015 
L 96.497474 -106.074375 
L 98.577229 -106.905735 
L 100.104867 -107.737095 
L 101.023116 -108.568455 
L 101.467665 -109.399814 
L 101.636844 -110.231174 
L 101.686576 -111.062534 
L 101.713424 -111.062534 
L 101.713424 -111.062534 
L 101.763156 -110.231174 
L 101.932335 -109.399814 
L 102.376884 -108.568455 
L 103.295133 -107.737095 
L 104.822771 -106.905735 
L 106.902526 -106.074375 
L 109.180451 -105.243015 
L 111.056834 -104.411656 
L 112.080059 -103.580296 
L 112.415121 -102.748936 
L 112.684631 -101.917576 
L 113.199365 -101.086217 
L 113.580539 -100.254857 
L 113.28261 -99.423497 
L 112.260369 -98.592137 
L 110.995108 -97.760778 
L 110.074989 -96.929418 
L 109.847993 -96.098058 
L 110.296321 -95.266698 
L 111.134183 -94.435338 
L 112.10532 -93.603979 
L 113.201176 -92.772619 
L 114.491681 -91.941259 
L 115.75419 -91.109899 
L 116.445718 -90.27854 
L 116.16822 -89.44718 
L 115.077825 -88.61582 
L 113.730291 -87.78446 
L 112.628615 -86.953101 
L 112.01684 -86.121741 
L 111.961273 -85.290381 
L 112.453849 -84.459021 
L 113.441747 -83.627661 
L 114.828114 -82.796302 
L 116.451468 -81.964942 
L 118.040021 -81.133582 
L 119.19772 -80.302222 
L 119.526455 -79.470863 
L 118.918633 -78.639503 
L 117.757605 -77.808143 
L 116.671458 -76.976783 
L 116.009288 -76.145424 
L 115.623506 -75.314064 
L 115.157917 -74.482704 
L 114.461965 -73.651344 
L 113.719605 -72.819984 
L 113.23398 -71.988625 
L 113.122383 -71.157265 
L 113.260998 -70.325905 
L 113.505849 -69.494545 
L 113.77737 -68.663186 
L 113.88489 -67.831826 
L 113.567423 -67.000466 
L 112.822681 -66.169106 
L 111.984714 -65.337747 
L 111.413525 -64.506387 
L 111.210211 -63.675027 
L 111.27694 -62.843667 
L 111.589649 -62.012307 
L 112.287261 -61.180948 
L 113.481106 -60.349588 
L 115.074537 -59.518228 
L 116.797388 -58.686868 
L 118.390124 -57.855509 
L 119.771191 -57.024149 
L 121.038004 -56.192789 
L 122.277484 -55.361429 
L 123.37128 -54.53007 
L 124.02 -53.69871 
L 124.017524 -52.86735 
L 123.489767 -52.03599 
L 122.729528 -51.20463 
L 121.81091 -50.373271 
L 120.587364 -49.541911 
L 119.089871 -48.710551 
L 117.635322 -47.879191 
L 116.412837 -47.047832 
L 115.264459 -46.216472 
L 114.113659 -45.385112 
L 113.38356 -44.553752 
L 113.666669 -43.722393 
L 114.951107 -42.891033 
L 116.335561 -42.059673 
L 116.671676 -41.228313 
L 115.57875 -40.396953 
L 113.799204 -39.565594 
L 112.473331 -38.734234 
L 112.059812 -37.902874 
L 112.003427 -37.071514 
L 111.425042 -36.240155 
L 110.002469 -35.408795 
L 108.073625 -34.577435 
L 106.105239 -33.746075 
L 104.386073 -32.914716 
L 103.08906 -32.083356 
L 102.286156 -31.251996 
L 101.89655 -30.420636 
L 101.751607 -29.589276 
L 101.710538 -28.757917 
z
" id="m825d7a833d" style="stroke:#262626;stroke-width:0.75;"/>
    </defs>
    <g clip-path="url(#pf0f7fcdad6)">
     <use style="fill:#1a1a66;stroke:#262626;stroke-width:0.75;" x="0" xlink:href="#m825d7a833d" y="144"/>
    </g>
   </g>
   <g id="line2d_1">
    <path clip-path="url(#pf0f7fcdad6)" d="M 45.9 107.385321 
L 45.9 38.054679 
" style="fill:none;stroke:#262626;stroke-linecap:round;stroke-width:0.75;"/>
   </g>
   <g id="line2d_2">
    <path clip-path="url(#pf0f7fcdad6)" d="M 45.9 95.143465 
L 45.9 63.938512 
" style="fill:none;stroke:#262626;stroke-linecap:round;stroke-width:2.25;"/>
   </g>
   <g id="line2d_3">
    <path clip-path="url(#pf0f7fcdad6)" d="M 101.7 112.210792 
L 101.7 35.968758 
" style="fill:none;stroke:#262626;stroke-linecap:round;stroke-width:0.75;"/>
   </g>
   <g id="line2d_4">
    <path clip-path="url(#pf0f7fcdad6)" d="M 101.7 92.538948 
L 101.7 59.518563 
" style="fill:none;stroke:#262626;stroke-linecap:round;stroke-width:2.25;"/>
   </g>
   <g id="patch_3">
    <path d="M 18 128.16 
L 18 17.28 
" style="fill:none;stroke:#262626;stroke-linecap:square;stroke-linejoin:miter;stroke-width:0.8;"/>
   </g>
   <g id="patch_4">
    <path d="M 18 128.16 
L 129.6 128.16 
" style="fill:none;stroke:#262626;stroke-linecap:square;stroke-linejoin:miter;stroke-width:0.8;"/>
   </g>
   <g id="PathCollection_1">
    <defs>
     <path d="M 0 0.75 
C 0.198902 0.75 0.389685 0.670975 0.53033 0.53033 
C 0.670975 0.389685 0.75 0.198902 0.75 0 
C 0.75 -0.198902 0.670975 -0.389685 0.53033 -0.53033 
C 0.389685 -0.670975 0.198902 -0.75 0 -0.75 
C -0.198902 -0.75 -0.389685 -0.670975 -0.53033 -0.53033 
C -0.670975 -0.389685 -0.75 -0.198902 -0.75 0 
C -0.75 0.198902 -0.670975 0.389685 -0.53033 0.53033 
C -0.389685 0.670975 -0.198902 0.75 0 0.75 
z
" id="m60280a49da" style="stroke:#262626;"/>
    </defs>
    <g clip-path="url(#pf0f7fcdad6)">
     <use style="fill:#ffffff;stroke:#262626;" x="45.9" xlink:href="#m60280a49da" y="84.445927"/>
    </g>
   </g>
   <g id="PathCollection_2">
    <g clip-path="url(#pf0f7fcdad6)">
     <use style="fill:#ffffff;stroke:#262626;" x="101.7" xlink:href="#m60280a49da" y="76.529257"/>
    </g>
   </g>
   <g id="text_8">
    <!-- Random -->
    <g style="fill:#262626;" transform="translate(28.445625 11.28)scale(0.24 -0.24)">
     <defs>
      <path d="M 503 0 
L 503 4581 
L 2534 4581 
Q 3147 4581 3465 4457 
Q 3784 4334 3975 4021 
Q 4166 3709 4166 3331 
Q 4166 2844 3850 2509 
Q 3534 2175 2875 2084 
Q 3116 1969 3241 1856 
Q 3506 1613 3744 1247 
L 4541 0 
L 3778 0 
L 3172 953 
Q 2906 1366 2734 1584 
Q 2563 1803 2427 1890 
Q 2291 1978 2150 2013 
Q 2047 2034 1813 2034 
L 1109 2034 
L 1109 0 
L 503 0 
z
M 1109 2559 
L 2413 2559 
Q 2828 2559 3062 2645 
Q 3297 2731 3419 2920 
Q 3541 3109 3541 3331 
Q 3541 3656 3305 3865 
Q 3069 4075 2559 4075 
L 1109 4075 
L 1109 2559 
z
" id="ArialMT-52" transform="scale(0.015625)"/>
      <path d="M 422 0 
L 422 3319 
L 925 3319 
L 925 2853 
Q 1081 3097 1340 3245 
Q 1600 3394 1931 3394 
Q 2300 3394 2536 3241 
Q 2772 3088 2869 2813 
Q 3263 3394 3894 3394 
Q 4388 3394 4653 3120 
Q 4919 2847 4919 2278 
L 4919 0 
L 4359 0 
L 4359 2091 
Q 4359 2428 4304 2576 
Q 4250 2725 4106 2815 
Q 3963 2906 3769 2906 
Q 3419 2906 3187 2673 
Q 2956 2441 2956 1928 
L 2956 0 
L 2394 0 
L 2394 2156 
Q 2394 2531 2256 2718 
Q 2119 2906 1806 2906 
Q 1569 2906 1367 2781 
Q 1166 2656 1075 2415 
Q 984 2175 984 1722 
L 984 0 
L 422 0 
z
" id="ArialMT-6d" transform="scale(0.015625)"/>
     </defs>
     <use xlink:href="#ArialMT-52"/>
     <use x="72.216797" xlink:href="#ArialMT-61"/>
     <use x="127.832031" xlink:href="#ArialMT-6e"/>
     <use x="183.447266" xlink:href="#ArialMT-64"/>
     <use x="239.0625" xlink:href="#ArialMT-6f"/>
     <use x="294.677734" xlink:href="#ArialMT-6d"/>
    </g>
   </g>
  </g>
 </g>
 <defs>
  <clipPath id="pf0f7fcdad6">
   <rect height="110.88" width="111.6" x="18" y="17.28"/>
  </clipPath>
 </defs>
</svg>
