<?xml version="1.0" encoding="utf-8" standalone="no"?>
<!DOCTYPE svg PUBLIC "-//W3C//DTD SVG 1.1//EN"
  "http://www.w3.org/Graphics/SVG/1.1/DTD/svg11.dtd">
<svg height="216pt" version="1.1" viewBox="0 0 306 216" width="306pt" xmlns="http://www.w3.org/2000/svg" xmlns:xlink="http://www.w3.org/1999/xlink">
 <metadata>
  <rdf:RDF xmlns:cc="http://creativecommons.org/ns#" xmlns:dc="http://purl.org/dc/elements/1.1/" xmlns:rdf="http://www.w3.org/1999/02/22-rdf-syntax-ns#">
   <cc:Work>
    <dc:type rdf:resource="http://purl.org/dc/dcmitype/StillImage"/>
    <dc:date>2022-03-14T21:33:11.353270</dc:date>
    <dc:format>image/svg+xml</dc:format>
    <dc:creator>
     <cc:Agent>
      <dc:title>Matplotlib v3.4.2, https://matplotlib.org/</dc:title>
     </cc:Agent>
    </dc:creator>
   </cc:Work>
  </rdf:RDF>
 </metadata>
 <defs>
  <style type="text/css">*{stroke-linecap:butt;stroke-linejoin:round;}</style>
 </defs>
 <g id="figure_1">
  <g id="patch_1">
   <path d="M 0 216 
L 306 216 
L 306 0 
L 0 0 
z
" style="fill:#ffffff;"/>
  </g>
  <g id="axes_1">
   <g id="patch_2">
    <path d="M 94.94 141.64 
L 284.4 141.64 
L 284.4 28.8 
L 94.94 28.8 
z
" style="fill:#ffffff;"/>
   </g>
   <g id="line2d_1">
    <path clip-path="url(#pe156c0f51c)" d="M 94.94 141.64 
L 284.4 141.64 
" style="fill:none;stroke:#000000;stroke-linecap:round;stroke-width:0.5;"/>
   </g>
   <g id="patch_3">
    <path clip-path="url(#pe156c0f51c)" d="M 102.067515 130.632625 
L 100.261014 118.765025 
L 98.340473 130.632625 
L 102.067515 130.632625 
z
M 99.418672 114.774047 
L 101.240724 114.774047 
L 105.558702 141.64 
L 103.791078 141.64 
L 102.58588 133.593673 
L 97.879128 133.593673 
L 96.590992 141.64 
L 94.94 141.64 
L 99.418672 114.774047 
z
M 100.253239 114.774047 
L 100.253239 114.774047 
z
" style="fill:#008000;"/>
   </g>
   <g id="patch_4">
    <path clip-path="url(#pe156c0f51c)" d="M 105.558702 87.016741 
L 105.558702 90.323917 
L 101.148734 90.323917 
L 101.148734 114.774047 
L 99.349968 114.774047 
L 99.349968 90.323917 
L 94.94 90.323917 
L 94.94 87.016741 
L 105.558702 87.016741 
z
" style="fill:#ff0000;"/>
   </g>
   <g id="patch_5">
    <path clip-path="url(#pe156c0f51c)" d="M 100.523163 59.031642 
Q 102.797109 59.031642 104.051431 61.694133 
Q 105.305752 64.350836 105.443962 67.731043 
L 103.863673 67.731043 
Q 103.595077 65.166948 102.791894 63.667849 
Q 101.988711 62.162963 100.53881 62.162963 
Q 98.770765 62.162963 97.683339 64.923851 
Q 96.595913 67.67895 96.595913 73.374367 
Q 96.595913 78.045303 97.576421 80.950891 
Q 98.559538 83.850691 100.507517 83.850691 
Q 102.299032 83.850691 103.237817 80.794614 
Q 103.733287 79.185543 103.978414 76.55778 
L 105.558702 76.55778 
Q 105.347475 80.754098 104.158348 83.596018 
Q 102.731916 87.016741 100.311937 87.016741 
Q 98.225748 87.016741 96.807139 84.209549 
Q 94.94 80.505213 94.94 72.760836 
Q 94.94 66.885991 96.342962 63.123775 
Q 97.858057 59.031642 100.523163 59.031642 
z
M 100.197196 59.031642 
L 100.197196 59.031642 
z
" style="fill:#0000ff;"/>
   </g>
   <g id="patch_6">
    <path clip-path="url(#pe156c0f51c)" d="M 100.416455 28.843742 
Q 102.054581 28.843742 103.249628 30.405939 
Q 104.981434 32.649254 105.368811 38.273164 
L 103.811705 38.273164 
Q 103.525603 35.130023 102.63185 33.692802 
Q 101.738096 32.25558 100.375945 32.25558 
Q 98.763138 32.25558 97.659238 35.24875 
Q 96.555339 38.235672 96.555339 44.153275 
Q 96.555339 49.264784 97.464284 52.476662 
Q 98.37576 55.68854 100.431646 55.68854 
Q 102.006475 55.68854 103.039482 53.438975 
Q 104.072489 51.183163 104.095276 46.14039 
L 100.456965 46.14039 
L 100.456965 42.922263 
L 105.558702 42.922263 
L 105.558702 58.269289 
L 104.54595 58.269289 
L 104.166168 54.576255 
Q 103.368626 56.744585 102.750848 57.588171 
Q 101.712777 59.031642 100.115161 59.031642 
Q 98.05168 59.031642 96.562935 55.732281 
Q 94.94 51.589334 94.94 44.365734 
Q 94.94 37.16088 96.522425 32.905454 
Q 98.026361 28.843742 100.416455 28.843742 
z
M 100.155671 28.8 
L 100.155671 28.8 
z
" style="fill:#ffa600;"/>
   </g>
   <g id="patch_7">
    <path clip-path="url(#pe156c0f51c)" d="M 111.700744 116.393667 
Q 113.97469 116.393667 115.229012 118.795593 
Q 116.483333 121.192298 116.621543 124.2417 
L 115.041255 124.2417 
Q 114.772658 121.92854 113.969475 120.576151 
Q 113.166292 119.218541 111.716391 119.218541 
Q 109.948346 119.218541 108.86092 121.709234 
Q 107.773494 124.194706 107.773494 129.332739 
Q 107.773494 133.546553 108.754002 136.167786 
Q 109.737119 138.783796 111.685098 138.783796 
Q 113.476613 138.783796 114.415398 136.026803 
Q 114.910868 134.575204 115.155995 132.204607 
L 116.736283 132.204607 
Q 116.525057 135.990252 115.335929 138.554047 
Q 113.909497 141.64 111.489518 141.64 
Q 109.403329 141.64 107.98472 139.107534 
Q 106.117581 135.765724 106.117581 128.779252 
Q 106.117581 123.479349 107.520543 120.085323 
Q 109.035638 116.393667 111.700744 116.393667 
z
M 111.374777 116.393667 
L 111.374777 116.393667 
z
" style="fill:#0000ff;"/>
   </g>
   <g id="patch_8">
    <path clip-path="url(#pe156c0f51c)" d="M 113.245097 105.480829 
L 111.438595 93.715155 
L 109.518054 105.480829 
L 113.245097 105.480829 
z
M 110.596253 89.758453 
L 112.418305 89.758453 
L 116.736283 116.393667 
L 114.968659 116.393667 
L 113.763461 108.416447 
L 109.056709 108.416447 
L 107.768573 116.393667 
L 106.117581 116.393667 
L 110.596253 89.758453 
z
M 111.43082 89.758453 
L 111.43082 89.758453 
z
" style="fill:#008000;"/>
   </g>
   <g id="patch_9">
    <path clip-path="url(#pe156c0f51c)" d="M 116.736283 61.330485 
L 116.736283 64.717568 
L 112.326315 64.717568 
L 112.326315 89.758453 
L 110.527549 89.758453 
L 110.527549 64.717568 
L 106.117581 64.717568 
L 106.117581 61.330485 
L 116.736283 61.330485 
z
" style="fill:#ff0000;"/>
   </g>
   <g id="patch_10">
    <path clip-path="url(#pe156c0f51c)" d="M 111.594036 28.847068 
Q 113.232162 28.847068 114.427209 30.528056 
Q 116.159015 32.941955 116.546392 38.993513 
L 114.989286 38.993513 
Q 114.703184 35.611364 113.809431 34.064855 
Q 112.915677 32.518346 111.553526 32.518346 
Q 109.940719 32.518346 108.83682 35.73912 
Q 107.73292 38.953169 107.73292 45.320753 
Q 107.73292 50.820946 108.641865 54.277058 
Q 109.553341 57.73317 111.609227 57.73317 
Q 113.184056 57.73317 114.217063 55.312547 
Q 115.25007 52.8852 115.272857 47.45897 
L 111.634546 47.45897 
L 111.634546 43.996134 
L 116.736283 43.996134 
L 116.736283 60.510163 
L 115.723531 60.510163 
L 115.34375 56.536306 
Q 114.546208 58.869518 113.928429 59.777252 
Q 112.890358 61.330485 111.292743 61.330485 
Q 109.229261 61.330485 107.740516 57.780238 
Q 106.117581 53.322257 106.117581 45.549367 
Q 106.117581 37.796649 107.700006 33.217637 
Q 109.203942 28.847068 111.594036 28.847068 
z
M 111.333253 28.8 
L 111.333253 28.8 
z
" style="fill:#ffa600;"/>
   </g>
   <g id="patch_11">
    <path clip-path="url(#pe156c0f51c)" d="M 124.422678 130.593224 
L 122.616176 118.683143 
L 120.695635 130.593224 
L 124.422678 130.593224 
z
M 121.773834 114.67788 
L 123.595886 114.67788 
L 127.913864 141.64 
L 126.14624 141.64 
L 124.941042 133.564871 
L 120.23429 133.564871 
L 118.946154 141.64 
L 117.295162 141.64 
L 121.773834 114.67788 
z
M 122.608401 114.67788 
L 122.608401 114.67788 
z
" style="fill:#008000;"/>
   </g>
   <g id="patch_12">
    <path clip-path="url(#pe156c0f51c)" d="M 127.913864 87.428865 
L 127.913864 90.675481 
L 123.503896 90.675481 
L 123.503896 114.67788 
L 121.705131 114.67788 
L 121.705131 90.675481 
L 117.295162 90.675481 
L 117.295162 87.428865 
L 127.913864 87.428865 
z
" style="fill:#ff0000;"/>
   </g>
   <g id="patch_13">
    <path clip-path="url(#pe156c0f51c)" d="M 122.878326 59.933938 
Q 125.152272 59.933938 126.406593 62.549795 
Q 127.660914 65.159964 127.799124 68.480965 
L 126.218836 68.480965 
Q 125.950239 65.961781 125.147056 64.48894 
Q 124.343873 63.010413 122.893972 63.010413 
Q 121.125927 63.010413 120.038501 65.722942 
Q 118.951075 68.429785 118.951075 74.025444 
Q 118.951075 78.614566 119.931584 81.469262 
Q 120.9147 84.318271 122.862679 84.318271 
Q 124.654194 84.318271 125.592979 81.315722 
Q 126.088449 79.734835 126.333576 77.153098 
L 127.913864 77.153098 
Q 127.702638 81.275916 126.51351 84.068058 
Q 125.087078 87.428865 122.667099 87.428865 
Q 120.58091 87.428865 119.162301 84.670843 
Q 117.295162 81.03139 117.295162 73.422659 
Q 117.295162 67.650715 118.698124 63.954396 
Q 120.213219 59.933938 122.878326 59.933938 
z
M 122.552359 59.933938 
L 122.552359 59.933938 
z
" style="fill:#0000ff;"/>
   </g>
   <g id="patch_14">
    <path clip-path="url(#pe156c0f51c)" d="M 122.771617 28.845047 
Q 124.409743 28.845047 125.60479 30.45387 
Q 127.336596 32.764139 127.723973 38.555901 
L 126.166868 38.555901 
Q 125.880765 35.31895 124.987012 33.838833 
Q 124.093258 32.358716 122.731107 32.358716 
Q 121.1183 32.358716 120.014401 35.44122 
Q 118.910501 38.517289 118.910501 44.61151 
Q 118.910501 49.875578 119.819446 53.183318 
Q 120.730923 56.491057 122.786809 56.491057 
Q 124.361638 56.491057 125.394644 54.174352 
Q 126.427651 51.851212 126.450438 46.657933 
L 122.812127 46.657933 
L 122.812127 43.343758 
L 127.913864 43.343758 
L 127.913864 59.148832 
L 126.901113 59.148832 
L 126.521331 55.345575 
Q 125.723789 57.578621 125.10601 58.447386 
Q 124.06794 59.933938 122.470324 59.933938 
Q 120.406842 59.933938 118.918097 56.536104 
Q 117.295162 52.269506 117.295162 44.83031 
Q 117.295162 37.410419 118.877587 33.027986 
Q 120.381523 28.845047 122.771617 28.845047 
z
M 122.510834 28.8 
L 122.510834 28.8 
z
" style="fill:#ffa600;"/>
   </g>
   <g id="patch_15">
    <path clip-path="url(#pe156c0f51c)" d="M 139.091445 116.205019 
L 139.091445 119.235499 
L 134.681477 119.235499 
L 134.681477 141.64 
L 132.882712 141.64 
L 132.882712 119.235499 
L 128.472743 119.235499 
L 128.472743 116.205019 
L 139.091445 116.205019 
z
" style="fill:#ff0000;"/>
   </g>
   <g id="patch_16">
    <path clip-path="url(#pe156c0f51c)" d="M 134.055907 88.609565 
Q 136.329853 88.609565 137.584174 91.234986 
Q 138.838495 93.854699 138.976705 97.187842 
L 137.396417 97.187842 
Q 137.12782 94.659447 136.324637 93.181221 
Q 135.521454 91.697288 134.071553 91.697288 
Q 132.303508 91.697288 131.216082 94.419735 
Q 130.128656 97.136475 130.128656 102.752592 
Q 130.128656 107.358493 131.109165 110.223626 
Q 132.092281 113.083052 134.04026 113.083052 
Q 135.831775 113.083052 136.77056 110.069525 
Q 137.26603 108.482858 137.511157 105.891682 
L 139.091445 105.891682 
Q 138.880219 110.029573 137.691091 112.831924 
Q 136.264659 116.205019 133.84468 116.205019 
Q 131.758491 116.205019 130.339883 113.436913 
Q 128.472743 109.784153 128.472743 102.147604 
Q 128.472743 96.354556 129.875705 92.644722 
Q 131.3908 88.609565 134.055907 88.609565 
z
M 133.72994 88.609565 
L 133.72994 88.609565 
z
" style="fill:#0000ff;"/>
   </g>
   <g id="patch_17">
    <path clip-path="url(#pe156c0f51c)" d="M 135.600259 77.229019 
L 133.793758 64.959083 
L 131.873216 77.229019 
L 135.600259 77.229019 
z
M 132.951415 60.832803 
L 134.773467 60.832803 
L 139.091445 88.609565 
L 137.323822 88.609565 
L 136.118624 80.290452 
L 131.411872 80.290452 
L 130.123735 88.609565 
L 128.472743 88.609565 
L 132.951415 60.832803 
z
M 133.785982 60.832803 
L 133.785982 60.832803 
z
" style="fill:#008000;"/>
   </g>
   <g id="patch_18">
    <path clip-path="url(#pe156c0f51c)" d="M 133.949198 28.846348 
Q 135.587324 28.846348 136.782371 30.501619 
Q 138.514177 32.878588 138.901554 38.837563 
L 137.344449 38.837563 
Q 137.058346 35.507158 136.164593 33.984309 
Q 135.270839 32.461459 133.908688 32.461459 
Q 132.295881 32.461459 131.191982 35.632958 
Q 130.088082 38.797836 130.088082 45.068003 
Q 130.088082 50.484049 130.997027 53.887286 
Q 131.908504 57.290523 133.96439 57.290523 
Q 135.539219 57.290523 136.572225 54.906933 
Q 137.605232 52.516722 137.628019 47.173507 
L 133.989709 47.173507 
L 133.989709 43.763649 
L 139.091445 43.763649 
L 139.091445 60.025031 
L 138.078694 60.025031 
L 137.698912 56.11197 
Q 136.90137 58.409486 136.283591 59.303333 
Q 135.245521 60.832803 133.647905 60.832803 
Q 131.584423 60.832803 130.095678 57.336871 
Q 128.472743 52.947092 128.472743 45.29312 
Q 128.472743 37.65901 130.055168 33.150052 
Q 131.559104 28.846348 133.949198 28.846348 
z
M 133.688415 28.8 
L 133.688415 28.8 
z
" style="fill:#ffa600;"/>
   </g>
   <g id="patch_19">
    <path clip-path="url(#pe156c0f51c)" d="M 150.269027 116.980081 
L 150.269027 119.918216 
L 145.859058 119.918216 
L 145.859058 141.64 
L 144.060293 141.64 
L 144.060293 119.918216 
L 139.650324 119.918216 
L 139.650324 116.980081 
L 150.269027 116.980081 
z
" style="fill:#ff0000;"/>
   </g>
   <g id="patch_20">
    <path clip-path="url(#pe156c0f51c)" d="M 145.233488 89.475281 
Q 147.507434 89.475281 148.761755 92.092077 
Q 150.016076 94.703184 150.154286 98.025377 
L 148.573998 98.025377 
Q 148.305401 95.505289 147.502218 94.031919 
Q 146.699036 92.55286 145.249134 92.55286 
Q 143.481089 92.55286 142.393663 95.266364 
Q 141.306237 97.974179 141.306237 103.571847 
Q 141.306237 108.162617 142.286746 111.018337 
Q 143.269862 113.868369 145.217841 113.868369 
Q 147.009356 113.868369 147.948141 110.864743 
Q 148.443611 109.283288 148.688738 106.700624 
L 150.269027 106.700624 
Q 150.0578 110.824922 148.868672 113.618067 
Q 147.44224 116.980081 145.022261 116.980081 
Q 142.936072 116.980081 141.517464 114.221068 
Q 139.650324 110.580309 139.650324 102.968846 
Q 139.650324 97.194829 141.053287 93.497182 
Q 142.568381 89.475281 145.233488 89.475281 
z
M 144.907521 89.475281 
L 144.907521 89.475281 
z
" style="fill:#0000ff;"/>
   </g>
   <g id="patch_21">
    <path clip-path="url(#pe156c0f51c)" d="M 146.77784 77.876612 
L 144.971339 65.371509 
L 143.050797 77.876612 
L 146.77784 77.876612 
z
M 144.128996 61.166144 
L 145.951048 61.166144 
L 150.269027 89.475281 
L 148.501403 89.475281 
L 147.296205 80.996722 
L 142.589453 80.996722 
L 141.301316 89.475281 
L 139.650324 89.475281 
L 144.128996 61.166144 
z
M 144.963563 61.166144 
L 144.963563 61.166144 
z
" style="fill:#008000;"/>
   </g>
   <g id="patch_22">
    <path clip-path="url(#pe156c0f51c)" d="M 145.12678 28.84683 
Q 146.764906 28.84683 147.959953 30.519326 
Q 149.691758 32.92103 150.079136 38.942016 
L 148.52203 38.942016 
Q 148.235927 35.576954 147.342174 34.038258 
Q 146.448421 32.499561 145.086269 32.499561 
Q 143.473462 32.499561 142.369563 35.704064 
Q 141.265664 38.901876 141.265664 45.237291 
Q 141.265664 50.709698 142.174608 54.14835 
Q 143.086085 57.587002 145.141971 57.587002 
Q 146.7168 57.587002 147.749807 55.178608 
Q 148.782813 52.763523 148.8056 47.364706 
L 145.16729 47.364706 
L 145.16729 43.919364 
L 150.269027 43.919364 
L 150.269027 60.349965 
L 149.256275 60.349965 
L 148.876493 56.396185 
Q 148.078951 58.717609 147.461172 59.620757 
Q 146.423102 61.166144 144.825486 61.166144 
Q 142.762004 61.166144 141.273259 57.633832 
Q 139.650324 53.198372 139.650324 45.464751 
Q 139.650324 37.751199 141.232749 33.19532 
Q 142.736685 28.84683 145.12678 28.84683 
z
M 144.865996 28.8 
L 144.865996 28.8 
z
" style="fill:#ffa600;"/>
   </g>
   <g id="patch_23">
    <path clip-path="url(#pe156c0f51c)" d="M 161.446608 118.500166 
L 161.446608 121.257188 
L 157.036639 121.257188 
L 157.036639 141.64 
L 155.237874 141.64 
L 155.237874 121.257188 
L 150.827906 121.257188 
L 150.827906 118.500166 
L 161.446608 118.500166 
z
" style="fill:#ff0000;"/>
   </g>
   <g id="patch_24">
    <path clip-path="url(#pe156c0f51c)" d="M 156.411069 91.306907 
Q 158.685015 91.306907 159.939336 93.894063 
Q 161.193657 96.475595 161.331867 99.760158 
L 159.751579 99.760158 
Q 159.482982 97.268614 158.679799 95.811933 
Q 157.876617 94.349628 156.426715 94.349628 
Q 154.65867 94.349628 153.571244 97.032396 
Q 152.483818 99.70954 152.483818 105.243804 
Q 152.483818 109.782575 153.464327 112.60595 
Q 154.447444 115.4237 156.395423 115.4237 
Q 158.186937 115.4237 159.125722 112.454095 
Q 159.621192 110.890553 159.866319 108.337142 
L 161.446608 108.337142 
Q 161.235381 112.414725 160.046253 115.176233 
Q 158.619822 118.500166 156.199842 118.500166 
Q 154.113653 118.500166 152.695045 115.772404 
Q 150.827906 112.172882 150.827906 104.647633 
Q 150.827906 98.939017 152.230868 95.283253 
Q 153.745962 91.306907 156.411069 91.306907 
z
M 156.085102 91.306907 
L 156.085102 91.306907 
z
" style="fill:#0000ff;"/>
   </g>
   <g id="patch_25">
    <path clip-path="url(#pe156c0f51c)" d="M 157.955421 79.08985 
L 156.14892 65.918031 
L 154.228378 79.08985 
L 157.955421 79.08985 
z
M 155.306577 61.488455 
L 157.128629 61.488455 
L 161.446608 91.306907 
L 159.678984 91.306907 
L 158.473786 82.37631 
L 153.767034 82.37631 
L 152.478897 91.306907 
L 150.827906 91.306907 
L 155.306577 61.488455 
z
M 156.141144 61.488455 
L 156.141144 61.488455 
z
" style="fill:#008000;"/>
   </g>
   <g id="patch_26">
    <path clip-path="url(#pe156c0f51c)" d="M 156.304361 28.847296 
Q 157.942487 28.847296 159.137534 30.536447 
Q 160.869339 32.962069 161.256717 39.043013 
L 159.699611 39.043013 
Q 159.413509 35.644441 158.519755 34.090422 
Q 157.626002 32.536403 156.263851 32.536403 
Q 154.651043 32.536403 153.547144 35.772816 
Q 152.443245 39.002473 152.443245 45.400978 
Q 152.443245 50.927881 153.352189 54.400776 
Q 154.263666 57.873671 156.319552 57.873671 
Q 157.894381 57.873671 158.927388 55.441293 
Q 159.960394 53.002159 159.983181 47.549579 
L 156.344871 47.549579 
L 156.344871 44.069927 
L 161.446608 44.069927 
L 161.446608 60.664149 
L 160.433856 60.664149 
L 160.054074 56.670995 
Q 159.256532 59.015537 158.638753 59.927679 
Q 157.600683 61.488455 156.003067 61.488455 
Q 153.939585 61.488455 152.45084 57.920967 
Q 150.827906 53.441338 150.827906 45.630703 
Q 150.827906 37.840337 152.41033 33.239089 
Q 153.914267 28.847296 156.304361 28.847296 
z
M 156.043577 28.8 
L 156.043577 28.8 
z
" style="fill:#ffa600;"/>
   </g>
   <g id="patch_27">
    <path clip-path="url(#pe156c0f51c)" d="M 172.624189 114.433973 
L 172.624189 117.675466 
L 168.21422 117.675466 
L 168.21422 141.64 
L 166.415455 141.64 
L 166.415455 117.675466 
L 162.005487 117.675466 
L 162.005487 114.433973 
L 172.624189 114.433973 
z
" style="fill:#ff0000;"/>
   </g>
   <g id="patch_28">
    <path clip-path="url(#pe156c0f51c)" d="M 167.58865 86.825517 
Q 169.862596 86.825517 171.116917 89.452175 
Q 172.371238 92.073122 172.509448 95.407835 
L 170.92916 95.407835 
Q 170.660563 92.87825 169.857381 91.399328 
Q 169.054198 89.914695 167.604296 89.914695 
Q 165.836251 89.914695 164.748825 92.638425 
Q 163.661399 95.356444 163.661399 100.975208 
Q 163.661399 105.583279 164.641908 108.449762 
Q 165.625025 111.310534 167.573004 111.310534 
Q 169.364518 111.310534 170.303304 108.295588 
Q 170.798773 106.708173 171.043901 104.115776 
L 172.624189 104.115776 
Q 172.412962 108.255617 171.223834 111.059289 
Q 169.797403 114.433973 167.377423 114.433973 
Q 165.291234 114.433973 163.872626 111.664562 
Q 162.005487 108.010082 162.005487 100.369934 
Q 162.005487 94.574157 163.408449 90.862576 
Q 164.923544 86.825517 167.58865 86.825517 
z
M 167.262683 86.825517 
L 167.262683 86.825517 
z
" style="fill:#0000ff;"/>
   </g>
   <g id="patch_29">
    <path clip-path="url(#pe156c0f51c)" d="M 169.133002 75.482507 
L 167.326501 63.253042 
L 165.40596 75.482507 
L 169.133002 75.482507 
z
M 166.484158 59.140371 
L 168.30621 59.140371 
L 172.624189 86.825517 
L 170.856565 86.825517 
L 169.651367 78.533843 
L 164.944615 78.533843 
L 163.656478 86.825517 
L 162.005487 86.825517 
L 166.484158 59.140371 
z
M 167.318725 59.140371 
L 167.318725 59.140371 
z
" style="fill:#008000;"/>
   </g>
   <g id="patch_30">
    <path clip-path="url(#pe156c0f51c)" d="M 167.481942 28.843899 
Q 169.120068 28.843899 170.315115 30.411715 
Q 172.04692 32.663098 172.434298 38.307235 
L 170.877192 38.307235 
Q 170.59109 35.15279 169.697336 33.710399 
Q 168.803583 32.268009 167.441432 32.268009 
Q 165.828625 32.268009 164.724725 35.271944 
Q 163.620826 38.269607 163.620826 44.208494 
Q 163.620826 49.338387 164.52977 52.561816 
Q 165.441247 55.785246 167.497133 55.785246 
Q 169.071962 55.785246 170.104969 53.527591 
Q 171.137976 51.263665 171.160763 46.202755 
L 167.522452 46.202755 
L 167.522452 42.973055 
L 172.624189 42.973055 
L 172.624189 58.375277 
L 171.611437 58.375277 
L 171.231655 54.668961 
Q 170.434113 56.845089 169.816335 57.69171 
Q 168.778264 59.140371 167.180648 59.140371 
Q 165.117166 59.140371 163.628421 55.829145 
Q 162.005487 51.671297 162.005487 44.421717 
Q 162.005487 37.19095 163.587911 32.92022 
Q 165.091848 28.843899 167.481942 28.843899 
z
M 167.221158 28.8 
L 167.221158 28.8 
z
" style="fill:#ffa600;"/>
   </g>
   <g id="patch_31">
    <path clip-path="url(#pe156c0f51c)" d="M 183.80177 116.462236 
L 183.80177 119.462069 
L 179.391802 119.462069 
L 179.391802 141.64 
L 177.593036 141.64 
L 177.593036 119.462069 
L 173.183068 119.462069 
L 173.183068 116.462236 
L 183.80177 116.462236 
z
" style="fill:#ff0000;"/>
   </g>
   <g id="patch_32">
    <path clip-path="url(#pe156c0f51c)" d="M 178.766231 88.779978 
Q 181.040177 88.779978 182.294498 91.413658 
Q 183.548819 94.041611 183.68703 97.385239 
L 182.106741 97.385239 
Q 181.838145 94.848891 181.034962 93.366015 
Q 180.231779 91.877414 178.781878 91.877414 
Q 177.013832 91.877414 175.926406 94.608425 
Q 174.83898 97.33371 174.83898 102.967493 
Q 174.83898 107.587882 175.819489 110.462028 
Q 176.802606 113.330448 178.750585 113.330448 
Q 180.5421 113.330448 181.480885 110.307442 
Q 181.976355 108.715784 182.221482 106.116457 
L 183.80177 106.116457 
Q 183.590543 110.267364 182.401416 113.078531 
Q 180.974984 116.462236 178.555005 116.462236 
Q 176.468816 116.462236 175.050207 113.685422 
Q 173.183068 110.021173 173.183068 102.360602 
Q 173.183068 96.549332 174.58603 92.827829 
Q 176.101125 88.779978 178.766231 88.779978 
z
M 178.440264 88.779978 
L 178.440264 88.779978 
z
" style="fill:#0000ff;"/>
   </g>
   <g id="patch_33">
    <path clip-path="url(#pe156c0f51c)" d="M 180.310583 76.677339 
L 178.504082 63.628878 
L 176.583541 76.677339 
L 180.310583 76.677339 
z
M 177.661739 59.240787 
L 179.483791 59.240787 
L 183.80177 88.779978 
L 182.034146 88.779978 
L 180.828948 79.93302 
L 176.122196 79.93302 
L 174.83406 88.779978 
L 173.183068 88.779978 
L 177.661739 59.240787 
z
M 178.496307 59.240787 
L 178.496307 59.240787 
z
" style="fill:#008000;"/>
   </g>
   <g id="patch_34">
    <path clip-path="url(#pe156c0f51c)" d="M 178.659523 28.844044 
Q 180.297649 28.844044 181.492696 30.417049 
Q 183.224501 32.675884 183.611879 38.3387 
L 182.054773 38.3387 
Q 181.768671 35.173815 180.874917 33.726651 
Q 179.981164 32.279486 178.619013 32.279486 
Q 177.006206 32.279486 175.902306 35.293363 
Q 174.798407 38.300948 174.798407 44.25949 
Q 174.798407 49.406361 175.707352 52.640459 
Q 176.618828 55.874557 178.674714 55.874557 
Q 180.249543 55.874557 181.28255 53.60943 
Q 182.315557 51.338011 182.338344 46.260352 
L 178.700033 46.260352 
L 178.700033 43.019962 
L 183.80177 43.019962 
L 183.80177 58.473161 
L 182.789018 58.473161 
L 182.409236 54.754577 
Q 181.611694 56.937908 180.993916 57.787331 
Q 179.955845 59.240787 178.358229 59.240787 
Q 176.294748 59.240787 174.806003 55.918601 
Q 173.183068 51.746992 173.183068 44.473419 
Q 173.183068 37.218721 174.765492 32.933856 
Q 176.269429 28.844044 178.659523 28.844044 
z
M 178.398739 28.8 
L 178.398739 28.8 
z
" style="fill:#ffa600;"/>
   </g>
   <g id="patch_35">
    <path clip-path="url(#pe156c0f51c)" d="M 189.943812 116.25308 
Q 192.217758 116.25308 193.472079 118.668381 
Q 194.726401 121.078432 194.864611 124.144815 
L 193.284322 124.144815 
Q 193.015726 121.818775 192.212543 120.458855 
Q 191.40936 119.093684 189.959459 119.093684 
Q 188.191414 119.093684 187.103988 121.598247 
Q 186.016561 124.097559 186.016561 129.264205 
Q 186.016561 133.501484 186.99707 136.137313 
Q 187.980187 138.767891 189.928166 138.767891 
Q 191.719681 138.767891 192.658466 135.995545 
Q 193.153936 134.535863 193.399063 132.152065 
L 194.979351 132.152065 
Q 194.768124 135.958791 193.578997 138.536862 
Q 192.152565 141.64 189.732586 141.64 
Q 187.646397 141.64 186.227788 139.093432 
Q 184.360649 135.733012 184.360649 128.707635 
Q 184.360649 123.378219 185.763611 119.965293 
Q 187.278706 116.25308 189.943812 116.25308 
z
M 189.617845 116.25308 
L 189.617845 116.25308 
z
" style="fill:#0000ff;"/>
   </g>
   <g id="patch_36">
    <path clip-path="url(#pe156c0f51c)" d="M 194.979351 88.607423 
L 194.979351 91.901297 
L 190.569383 91.901297 
L 190.569383 116.25308 
L 188.770617 116.25308 
L 188.770617 91.901297 
L 184.360649 91.901297 
L 184.360649 88.607423 
L 194.979351 88.607423 
z
" style="fill:#ff0000;"/>
   </g>
   <g id="patch_37">
    <path clip-path="url(#pe156c0f51c)" d="M 191.488164 76.595762 
L 189.681663 63.64539 
L 187.761122 76.595762 
L 191.488164 76.595762 
z
M 188.83932 59.290285 
L 190.661373 59.290285 
L 194.979351 88.607423 
L 193.211727 88.607423 
L 192.006529 79.826969 
L 187.299777 79.826969 
L 186.011641 88.607423 
L 184.360649 88.607423 
L 188.83932 59.290285 
z
M 189.673888 59.290285 
L 189.673888 59.290285 
z
" style="fill:#008000;"/>
   </g>
   <g id="patch_38">
    <path clip-path="url(#pe156c0f51c)" d="M 189.837104 28.844116 
Q 191.47523 28.844116 192.670277 30.419678 
Q 194.402083 32.682186 194.78946 38.354211 
L 193.232354 38.354211 
Q 192.946252 35.184179 192.052498 33.734662 
Q 191.158745 32.285144 189.796594 32.285144 
Q 188.183787 32.285144 187.079887 35.303922 
Q 185.975988 38.316397 185.975988 44.284628 
Q 185.975988 49.439869 186.884933 52.679225 
Q 187.796409 55.918581 189.852295 55.918581 
Q 191.427124 55.918581 192.460131 53.649771 
Q 193.493138 51.374659 193.515925 46.288744 
L 189.877614 46.288744 
L 189.877614 43.043085 
L 194.979351 43.043085 
L 194.979351 58.521411 
L 193.966599 58.521411 
L 193.586817 54.796781 
Q 192.789275 56.983662 192.171497 57.834465 
Q 191.133426 59.290285 189.53581 59.290285 
Q 187.472329 59.290285 185.983584 55.962697 
Q 184.360649 51.784305 184.360649 44.498905 
Q 184.360649 37.23241 185.943074 32.940578 
Q 187.44701 28.844116 189.837104 28.844116 
z
M 189.57632 28.8 
L 189.57632 28.8 
z
" style="fill:#ffa600;"/>
   </g>
   <g id="patch_39">
    <path clip-path="url(#pe156c0f51c)" d="M 206.156932 116.462156 
L 206.156932 119.462 
L 201.746964 119.462 
L 201.746964 141.64 
L 199.948198 141.64 
L 199.948198 119.462 
L 195.53823 119.462 
L 195.53823 116.462156 
L 206.156932 116.462156 
z
" style="fill:#ff0000;"/>
   </g>
   <g id="patch_40">
    <path clip-path="url(#pe156c0f51c)" d="M 201.121393 88.972791 
Q 203.395339 88.972791 204.649661 91.588118 
Q 205.903982 94.19776 206.042192 97.518089 
L 204.461904 97.518089 
Q 204.193307 94.999415 203.390124 93.526872 
Q 202.586941 92.048643 201.13704 92.048643 
Q 199.368995 92.048643 198.281569 94.760624 
Q 197.194143 97.466919 197.194143 103.061446 
Q 197.194143 107.64964 198.174651 110.503758 
Q 199.157768 113.352191 201.105747 113.352191 
Q 202.897262 113.352191 203.836047 110.35025 
Q 204.331517 108.769682 204.576644 106.188468 
L 206.156932 106.188468 
Q 205.945706 110.310451 204.756578 113.102029 
Q 203.330146 116.462156 200.910167 116.462156 
Q 198.823978 116.462156 197.405369 113.704692 
Q 195.53823 110.065975 195.53823 102.458784 
Q 195.53823 96.688007 196.941192 92.992435 
Q 198.456287 88.972791 201.121393 88.972791 
z
M 200.795426 88.972791 
L 200.795426 88.972791 
z
" style="fill:#0000ff;"/>
   </g>
   <g id="patch_41">
    <path clip-path="url(#pe156c0f51c)" d="M 202.665746 76.821255 
L 200.859244 63.720077 
L 198.938703 76.821255 
L 202.665746 76.821255 
z
M 200.016902 59.314257 
L 201.838954 59.314257 
L 206.156932 88.972791 
L 204.389308 88.972791 
L 203.18411 80.090089 
L 198.477358 80.090089 
L 197.189222 88.972791 
L 195.53823 88.972791 
L 200.016902 59.314257 
z
M 200.851469 59.314257 
L 200.851469 59.314257 
z
" style="fill:#008000;"/>
   </g>
   <g id="patch_42">
    <path clip-path="url(#pe156c0f51c)" d="M 201.014685 28.84415 
Q 202.652811 28.84415 203.847858 30.420952 
Q 205.579664 32.685238 205.967041 38.361723 
L 204.409935 38.361723 
Q 204.123833 35.189199 203.23008 33.738541 
Q 202.336326 32.287884 200.974175 32.287884 
Q 199.361368 32.287884 198.257469 35.309035 
Q 197.153569 38.323879 197.153569 44.296802 
Q 197.153569 49.456096 198.062514 52.697999 
Q 198.97399 55.939903 201.029876 55.939903 
Q 202.604705 55.939903 203.637712 53.669309 
Q 204.670719 51.392408 204.693506 46.302494 
L 201.055195 46.302494 
L 201.055195 43.054283 
L 206.156932 43.054283 
L 206.156932 58.544778 
L 205.14418 58.544778 
L 204.764399 54.81722 
Q 203.966857 57.00582 203.349078 57.857293 
Q 202.311007 59.314257 200.713392 59.314257 
Q 198.64991 59.314257 197.161165 55.984053 
Q 195.53823 51.802376 195.53823 44.511247 
Q 195.53823 37.23904 197.120655 32.943834 
Q 198.624591 28.84415 201.014685 28.84415 
z
M 200.753902 28.8 
L 200.753902 28.8 
z
" style="fill:#ffa600;"/>
   </g>
   <g id="patch_43">
    <path clip-path="url(#pe156c0f51c)" d="M 212.298975 115.949821 
Q 214.572921 115.949821 215.827242 118.393974 
Q 217.081563 120.832814 217.219773 123.935827 
L 215.639485 123.935827 
Q 215.370888 121.582001 214.567705 120.205836 
Q 213.764522 118.824358 212.314621 118.824358 
Q 210.546576 118.824358 209.45915 121.358839 
Q 208.371724 123.888006 208.371724 129.11637 
Q 208.371724 133.404265 209.352233 136.071581 
Q 210.335349 138.733583 212.283328 138.733583 
Q 214.074843 138.733583 215.013628 135.928119 
Q 215.509098 134.451 215.754225 132.038727 
L 217.334513 132.038727 
Q 217.123287 135.890926 215.934159 138.499794 
Q 214.507727 141.64 212.087748 141.64 
Q 210.001559 141.64 208.58295 139.063012 
Q 206.715811 135.66245 206.715811 128.553152 
Q 206.715811 123.160074 208.118773 119.706378 
Q 209.633868 115.949821 212.298975 115.949821 
z
M 211.973008 115.949821 
L 211.973008 115.949821 
z
" style="fill:#0000ff;"/>
   </g>
   <g id="patch_44">
    <path clip-path="url(#pe156c0f51c)" d="M 217.334513 88.829466 
L 217.334513 92.060752 
L 212.924545 92.060752 
L 212.924545 115.949821 
L 211.12578 115.949821 
L 211.12578 92.060752 
L 206.715811 92.060752 
L 206.715811 88.829466 
L 217.334513 88.829466 
z
" style="fill:#ff0000;"/>
   </g>
   <g id="patch_45">
    <path clip-path="url(#pe156c0f51c)" d="M 213.843327 77.186481 
L 212.036825 64.633596 
L 210.116284 77.186481 
L 213.843327 77.186481 
z
M 211.194483 60.412163 
L 213.016535 60.412163 
L 217.334513 88.829466 
L 215.566889 88.829466 
L 214.361691 80.318512 
L 209.654939 80.318512 
L 208.366803 88.829466 
L 206.715811 88.829466 
L 211.194483 60.412163 
z
M 212.02905 60.412163 
L 212.02905 60.412163 
z
" style="fill:#008000;"/>
   </g>
   <g id="patch_46">
    <path clip-path="url(#pe156c0f51c)" d="M 212.192266 28.845739 
Q 213.830392 28.845739 215.025439 30.479274 
Q 216.757245 32.825029 217.144622 38.705754 
L 215.587517 38.705754 
Q 215.301414 35.419083 214.407661 33.916231 
Q 213.513907 32.413379 212.151756 32.413379 
Q 210.538949 32.413379 209.43505 35.543231 
Q 208.33115 38.666549 208.33115 44.854379 
Q 208.33115 50.199304 209.240095 53.557852 
Q 210.151572 56.916399 212.207458 56.916399 
Q 213.782287 56.916399 214.815293 54.564109 
Q 215.8483 52.205285 215.871087 46.932235 
L 212.232776 46.932235 
L 212.232776 43.567153 
L 217.334513 43.567153 
L 217.334513 59.614998 
L 216.321762 59.614998 
L 215.94198 55.753322 
Q 215.144438 58.020668 214.526659 58.902777 
Q 213.488589 60.412163 211.890973 60.412163 
Q 209.827491 60.412163 208.338746 56.962138 
Q 206.715811 52.630004 206.715811 45.07654 
Q 206.715811 37.542678 208.298236 33.092929 
Q 209.802172 28.845739 212.192266 28.845739 
z
M 211.931483 28.8 
L 211.931483 28.8 
z
" style="fill:#ffa600;"/>
   </g>
   <g id="patch_47">
    <path clip-path="url(#pe156c0f51c)" d="M 223.476556 118.054212 
Q 225.750502 118.054212 227.004823 120.298154 
Q 228.259144 122.537219 228.397354 125.38605 
L 226.817066 125.38605 
Q 226.548469 123.225036 225.745286 121.961599 
Q 224.942103 120.693283 223.492202 120.693283 
Q 221.724157 120.693283 220.636731 123.020154 
Q 219.549305 125.342147 219.549305 130.142233 
Q 219.549305 134.078889 220.529814 136.527713 
Q 221.51293 138.97166 223.460909 138.97166 
Q 225.252424 138.97166 226.191209 136.396004 
Q 226.686679 135.039882 226.931806 132.825208 
L 228.512094 132.825208 
Q 228.300868 136.361857 227.11174 138.757022 
Q 225.685308 141.64 223.265329 141.64 
Q 221.17914 141.64 219.760531 139.274104 
Q 217.893392 136.152097 217.893392 129.625151 
Q 217.893392 124.673842 219.296354 121.503054 
Q 220.811449 118.054212 223.476556 118.054212 
z
M 223.150589 118.054212 
L 223.150589 118.054212 
z
" style="fill:#0000ff;"/>
   </g>
   <g id="patch_48">
    <path clip-path="url(#pe156c0f51c)" d="M 225.020908 106.548353 
L 223.214407 94.143313 
L 221.293865 106.548353 
L 225.020908 106.548353 
z
M 222.372064 89.971598 
L 224.194116 89.971598 
L 228.512094 118.054212 
L 226.744471 118.054212 
L 225.539273 109.643496 
L 220.832521 109.643496 
L 219.544384 118.054212 
L 217.893392 118.054212 
L 222.372064 89.971598 
z
M 223.206631 89.971598 
L 223.206631 89.971598 
z
" style="fill:#008000;"/>
   </g>
   <g id="patch_49">
    <path clip-path="url(#pe156c0f51c)" d="M 228.512094 61.749919 
L 228.512094 65.112423 
L 224.102126 65.112423 
L 224.102126 89.971598 
L 222.303361 89.971598 
L 222.303361 65.112423 
L 217.893392 65.112423 
L 217.893392 61.749919 
L 228.512094 61.749919 
z
" style="fill:#ff0000;"/>
   </g>
   <g id="patch_50">
    <path clip-path="url(#pe156c0f51c)" d="M 223.369847 28.847675 
Q 225.007973 28.847675 226.20302 30.550337 
Q 227.934826 32.99536 228.322203 39.124944 
L 226.765098 39.124944 
Q 226.478995 35.699187 225.585242 34.132738 
Q 224.691488 32.566289 223.329337 32.566289 
Q 221.71653 32.566289 220.612631 35.82859 
Q 219.508731 39.08408 219.508731 45.533764 
Q 219.508731 51.104875 220.417676 54.605548 
Q 221.329153 58.106222 223.385039 58.106222 
Q 224.959868 58.106222 225.992874 55.654388 
Q 227.025881 53.195744 227.048668 47.69955 
L 223.410357 47.69955 
L 223.410357 44.192066 
L 228.512094 44.192066 
L 228.512094 60.91902 
L 227.499343 60.91902 
L 227.119561 56.893926 
Q 226.322019 59.257221 225.70424 60.176659 
Q 224.66617 61.749919 223.068554 61.749919 
Q 221.005072 61.749919 219.516327 58.153896 
Q 217.893392 53.638436 217.893392 45.765326 
Q 217.893392 37.912648 219.475817 33.274596 
Q 220.979753 28.847675 223.369847 28.847675 
z
M 223.109064 28.8 
L 223.109064 28.8 
z
" style="fill:#ffa600;"/>
   </g>
   <g id="patch_51">
    <path clip-path="url(#pe156c0f51c)" d="M 234.654137 117.59116 
Q 236.928083 117.59116 238.182404 119.879157 
Q 239.436725 122.16218 239.574935 125.066942 
L 237.994647 125.066942 
Q 237.72605 122.863501 236.922867 121.575259 
Q 236.119685 120.282044 234.669783 120.282044 
Q 232.901738 120.282044 231.814312 122.654597 
Q 230.726886 125.022177 230.726886 129.916501 
Q 230.726886 133.930444 231.707395 136.427346 
Q 232.690511 138.919273 234.63849 138.919273 
Q 236.430005 138.919273 237.36879 136.29305 
Q 237.86426 134.910304 238.109387 132.65215 
L 239.689676 132.65215 
Q 239.478449 136.258233 238.289321 138.700421 
Q 236.862889 141.64 234.44291 141.64 
Q 232.356721 141.64 230.938113 139.227655 
Q 229.070973 136.044355 229.070973 129.389267 
Q 229.070973 124.340752 230.473936 121.107712 
Q 231.98903 117.59116 234.654137 117.59116 
z
M 234.32817 117.59116 
L 234.32817 117.59116 
z
" style="fill:#0000ff;"/>
   </g>
   <g id="patch_52">
    <path clip-path="url(#pe156c0f51c)" d="M 236.198489 106.324684 
L 234.391988 94.177734 
L 232.471446 106.324684 
L 236.198489 106.324684 
z
M 233.549645 90.092813 
L 235.371697 90.092813 
L 239.689676 117.59116 
L 237.922052 117.59116 
L 236.716854 109.355432 
L 232.010102 109.355432 
L 230.721965 117.59116 
L 229.070973 117.59116 
L 233.549645 90.092813 
z
M 234.384212 90.092813 
L 234.384212 90.092813 
z
" style="fill:#008000;"/>
   </g>
   <g id="patch_53">
    <path clip-path="url(#pe156c0f51c)" d="M 239.689676 62.061362 
L 239.689676 65.401202 
L 235.279707 65.401202 
L 235.279707 90.092813 
L 233.480942 90.092813 
L 233.480942 65.401202 
L 229.070973 65.401202 
L 229.070973 62.061362 
L 239.689676 62.061362 
z
" style="fill:#ff0000;"/>
   </g>
   <g id="patch_54">
    <path clip-path="url(#pe156c0f51c)" d="M 234.547429 28.848125 
Q 236.185554 28.848125 237.380602 30.566881 
Q 239.112407 33.035014 239.499785 39.222535 
L 237.942679 39.222535 
Q 237.656576 35.764398 236.762823 34.183143 
Q 235.86907 32.601888 234.506918 32.601888 
Q 232.894111 32.601888 231.790212 35.895024 
Q 230.686312 39.181285 230.686312 45.691932 
Q 230.686312 51.315701 231.595257 54.849463 
Q 232.506734 58.383225 234.56262 58.383225 
Q 236.137449 58.383225 237.170456 55.908216 
Q 238.203462 53.426333 238.226249 47.878189 
L 234.587939 47.878189 
L 234.587939 44.337552 
L 239.689676 44.337552 
L 239.689676 61.222609 
L 238.676924 61.222609 
L 238.297142 57.159471 
Q 237.4996 59.545104 236.881821 60.473232 
Q 235.843751 62.061362 234.246135 62.061362 
Q 232.182653 62.061362 230.693908 58.43135 
Q 229.070973 53.873209 229.070973 45.925683 
Q 229.070973 37.998781 230.653398 33.31689 
Q 232.157334 28.848125 234.547429 28.848125 
z
M 234.286645 28.8 
L 234.286645 28.8 
z
" style="fill:#ffa600;"/>
   </g>
   <g id="patch_55">
    <path clip-path="url(#pe156c0f51c)" d="M 250.867257 116.724705 
L 250.867257 119.693267 
L 246.457288 119.693267 
L 246.457288 141.64 
L 244.658523 141.64 
L 244.658523 119.693267 
L 240.248555 119.693267 
L 240.248555 116.724705 
L 250.867257 116.724705 
z
" style="fill:#ff0000;"/>
   </g>
   <g id="patch_56">
    <path clip-path="url(#pe156c0f51c)" d="M 245.831718 89.203834 
Q 248.105664 89.203834 249.359985 91.822159 
Q 250.614306 94.434792 250.752516 97.758926 
L 249.172228 97.758926 
Q 248.903631 95.237366 248.100448 93.763135 
Q 247.297266 92.283212 245.847364 92.283212 
Q 244.079319 92.283212 242.991893 94.998301 
Q 241.904467 97.707698 241.904467 103.308637 
Q 241.904467 107.902089 242.884976 110.759478 
Q 243.868093 113.611176 245.816071 113.611176 
Q 247.607586 113.611176 248.546371 110.605794 
Q 249.041841 109.023415 249.286968 106.439242 
L 250.867257 106.439242 
Q 250.65603 110.56595 249.466902 113.360727 
Q 248.040471 116.724705 245.620491 116.724705 
Q 243.534302 116.724705 242.115694 113.96408 
Q 240.248555 110.321193 240.248555 102.705283 
Q 240.248555 96.927893 241.651517 93.228086 
Q 243.166611 89.203834 245.831718 89.203834 
z
M 245.505751 89.203834 
L 245.505751 89.203834 
z
" style="fill:#0000ff;"/>
   </g>
   <g id="patch_57">
    <path clip-path="url(#pe156c0f51c)" d="M 247.37607 77.717235 
L 245.569569 65.332959 
L 243.649027 77.717235 
L 247.37607 77.717235 
z
M 244.727226 61.168227 
L 246.549278 61.168227 
L 250.867257 89.203834 
L 249.099633 89.203834 
L 247.894435 80.807197 
L 243.187683 80.807197 
L 241.899546 89.203834 
L 240.248555 89.203834 
L 244.727226 61.168227 
z
M 245.561793 61.168227 
L 245.561793 61.168227 
z
" style="fill:#008000;"/>
   </g>
   <g id="patch_58">
    <path clip-path="url(#pe156c0f51c)" d="M 245.72501 28.846833 
Q 247.363136 28.846833 248.558183 30.519437 
Q 250.289988 32.921295 250.677366 38.942669 
L 249.12026 38.942669 
Q 248.834158 35.57739 247.940404 34.038595 
Q 247.046651 32.499799 245.6845 32.499799 
Q 244.071692 32.499799 242.967793 35.704508 
Q 241.863894 38.902526 241.863894 45.238349 
Q 241.863894 50.711108 242.772838 54.149981 
Q 243.684315 57.588855 245.740201 57.588855 
Q 247.31503 57.588855 248.348037 55.180305 
Q 249.381043 52.765066 249.40383 47.365901 
L 245.76552 47.365901 
L 245.76552 43.920337 
L 250.867257 43.920337 
L 250.867257 60.351996 
L 249.854505 60.351996 
L 249.474723 56.397961 
Q 248.677181 58.719535 248.059402 59.622741 
Q 247.021332 61.168227 245.423716 61.168227 
Q 243.360234 61.168227 241.871489 57.635688 
Q 240.248555 53.199943 240.248555 45.465823 
Q 240.248555 37.751775 241.830979 33.195602 
Q 243.334916 28.846833 245.72501 28.846833 
z
M 245.464226 28.8 
L 245.464226 28.8 
z
" style="fill:#ffa600;"/>
   </g>
   <g id="patch_59">
    <path clip-path="url(#pe156c0f51c)" d="M 257.009299 115.360736 
Q 259.283245 115.360736 260.537566 117.860935 
Q 261.791887 120.355698 261.930097 123.529864 
L 260.349809 123.529864 
Q 260.081212 121.122064 259.27803 119.714343 
Q 258.474847 118.301187 257.024945 118.301187 
Q 255.2569 118.301187 254.169474 120.893785 
Q 253.082048 123.480947 253.082048 128.829198 
Q 253.082048 133.215417 254.062557 135.943895 
Q 255.045674 138.666937 256.993653 138.666937 
Q 258.785167 138.666937 259.723952 135.797144 
Q 260.219422 134.286154 260.46455 131.818567 
L 262.044838 131.818567 
Q 261.833611 135.759097 260.644483 138.427788 
Q 259.218052 141.64 256.798072 141.64 
Q 254.711883 141.64 253.293275 139.003921 
Q 251.426136 135.525383 251.426136 128.253066 
Q 251.426136 122.736322 252.829098 119.203433 
Q 254.344193 115.360736 257.009299 115.360736 
z
M 256.683332 115.360736 
L 256.683332 115.360736 
z
" style="fill:#0000ff;"/>
   </g>
   <g id="patch_60">
    <path clip-path="url(#pe156c0f51c)" d="M 258.553651 104.541632 
L 256.74715 92.877017 
L 254.826609 104.541632 
L 258.553651 104.541632 
z
M 255.904807 88.954301 
L 257.726859 88.954301 
L 262.044838 115.360736 
L 260.277214 115.360736 
L 259.072016 107.452034 
L 254.365264 107.452034 
L 253.077127 115.360736 
L 251.426136 115.360736 
L 255.904807 88.954301 
z
M 256.739374 88.954301 
L 256.739374 88.954301 
z
" style="fill:#008000;"/>
   </g>
   <g id="patch_61">
    <path clip-path="url(#pe156c0f51c)" d="M 262.044838 61.240812 
L 262.044838 64.542767 
L 257.634869 64.542767 
L 257.634869 88.954301 
L 255.836104 88.954301 
L 255.836104 64.542767 
L 251.426136 64.542767 
L 251.426136 61.240812 
L 262.044838 61.240812 
z
" style="fill:#ff0000;"/>
   </g>
   <g id="patch_62">
    <path clip-path="url(#pe156c0f51c)" d="M 256.902591 28.846938 
Q 258.540717 28.846938 259.735764 30.523292 
Q 261.467569 32.930537 261.854947 38.965413 
L 260.297841 38.965413 
Q 260.011739 35.592588 259.117985 34.050342 
Q 258.224232 32.508096 256.862081 32.508096 
Q 255.249274 32.508096 254.145374 35.719991 
Q 253.041475 38.925181 253.041475 45.275212 
Q 253.041475 50.760244 253.950419 54.206828 
Q 254.861896 57.653413 256.917782 57.653413 
Q 258.492611 57.653413 259.525618 55.239463 
Q 260.558625 52.818807 260.581411 47.407535 
L 256.943101 47.407535 
L 256.943101 43.954244 
L 262.044838 43.954244 
L 262.044838 60.422751 
L 261.032086 60.422751 
L 260.652304 56.459849 
Q 259.854762 58.786629 259.236984 59.69186 
Q 258.198913 61.240812 256.601297 61.240812 
Q 254.537815 61.240812 253.04907 57.700351 
Q 251.426136 53.254659 251.426136 45.503196 
Q 251.426136 37.771849 253.00856 33.20546 
Q 254.512497 28.846938 256.902591 28.846938 
z
M 256.641807 28.8 
L 256.641807 28.8 
z
" style="fill:#ffa600;"/>
   </g>
   <g id="patch_63">
    <path clip-path="url(#pe156c0f51c)" d="M 273.222419 115.432548 
L 273.222419 118.555065 
L 268.812451 118.555065 
L 268.812451 141.64 
L 267.013685 141.64 
L 267.013685 118.555065 
L 262.603717 118.555065 
L 262.603717 115.432548 
L 273.222419 115.432548 
z
" style="fill:#ff0000;"/>
   </g>
   <g id="patch_64">
    <path clip-path="url(#pe156c0f51c)" d="M 268.18688 88.199888 
Q 270.460826 88.199888 271.715147 90.790792 
Q 272.969468 93.376064 273.107678 96.665387 
L 271.52739 96.665387 
Q 271.258793 94.170233 270.455611 92.711441 
Q 269.652428 91.247017 268.202527 91.247017 
Q 266.434481 91.247017 265.347055 93.933672 
Q 264.259629 96.614695 264.259629 102.156978 
Q 264.259629 106.702326 265.240138 109.529792 
Q 266.223255 112.351625 268.171234 112.351625 
Q 269.962749 112.351625 270.901534 109.377717 
Q 271.397003 107.811909 271.642131 105.254799 
L 273.222419 105.254799 
Q 273.011192 109.33829 271.822065 112.103799 
Q 270.395633 115.432548 267.975654 115.432548 
Q 265.889465 115.432548 264.470856 112.700833 
Q 262.603717 109.096097 262.603717 101.559944 
Q 262.603717 95.843056 264.006679 92.181995 
Q 265.521774 88.199888 268.18688 88.199888 
z
M 267.860913 88.199888 
L 267.860913 88.199888 
z
" style="fill:#0000ff;"/>
   </g>
   <g id="patch_65">
    <path clip-path="url(#pe156c0f51c)" d="M 269.731232 76.698441 
L 267.924731 64.298157 
L 266.00419 76.698441 
L 269.731232 76.698441 
z
M 267.082388 60.128042 
L 268.90444 60.128042 
L 273.222419 88.199888 
L 271.454795 88.199888 
L 270.249597 79.792397 
L 265.542845 79.792397 
L 264.254709 88.199888 
L 262.603717 88.199888 
L 267.082388 60.128042 
z
M 267.916956 60.128042 
L 267.916956 60.128042 
z
" style="fill:#008000;"/>
   </g>
   <g id="patch_66">
    <path clip-path="url(#pe156c0f51c)" d="M 268.080172 28.845328 
Q 269.718298 28.845328 270.913345 30.464181 
Q 272.64515 32.788854 273.032528 38.616724 
L 271.475422 38.616724 
Q 271.18932 35.359592 270.295566 33.870247 
Q 269.401813 32.380903 268.039662 32.380903 
Q 266.426855 32.380903 265.322955 35.482625 
Q 264.219056 38.577872 264.219056 44.710087 
Q 264.219056 50.006974 265.128001 53.335335 
Q 266.039477 56.663697 268.095363 56.663697 
Q 269.670192 56.663697 270.703199 54.332549 
Q 271.736206 51.994925 271.758993 46.769268 
L 268.120682 46.769268 
L 268.120682 43.434431 
L 273.222419 43.434431 
L 273.222419 59.338042 
L 272.209667 59.338042 
L 271.829885 55.511074 
Q 271.032343 57.758042 270.414565 58.632222 
Q 269.376494 60.128042 267.778878 60.128042 
Q 265.715397 60.128042 264.226651 56.709025 
Q 262.603717 52.415827 262.603717 44.930251 
Q 262.603717 37.464101 264.186141 33.054346 
Q 265.690078 28.845328 268.080172 28.845328 
z
M 267.819388 28.8 
L 267.819388 28.8 
z
" style="fill:#ffa600;"/>
   </g>
   <g id="patch_67">
    <path clip-path="url(#pe156c0f51c)" d="M 279.257753 116.113025 
Q 280.895879 116.113025 282.090926 117.434023 
Q 283.822732 119.330977 284.210109 124.086572 
L 282.653003 124.086572 
Q 282.366901 121.428723 281.473147 120.213404 
Q 280.579394 118.998086 279.217243 118.998086 
Q 277.604436 118.998086 276.500536 121.529119 
Q 275.396637 124.054868 275.396637 129.05881 
Q 275.396637 133.381117 276.305582 136.09709 
Q 277.217058 138.813063 279.272944 138.813063 
Q 280.847773 138.813063 281.88078 136.910825 
Q 282.913787 135.003303 282.936574 130.73912 
L 279.298263 130.73912 
L 279.298263 128.017863 
L 284.4 128.017863 
L 284.4 140.995353 
L 283.387248 140.995353 
L 283.007466 137.872512 
Q 282.209924 139.706058 281.592146 140.419397 
Q 280.554075 141.64 278.956459 141.64 
Q 276.892978 141.64 275.404233 138.850051 
Q 273.781298 135.346763 273.781298 129.238466 
Q 273.781298 123.146021 275.363723 119.547621 
Q 276.867659 116.113025 279.257753 116.113025 
z
M 278.996969 116.076037 
L 278.996969 116.076037 
z
" style="fill:#ffa600;"/>
   </g>
   <g id="patch_68">
    <path clip-path="url(#pe156c0f51c)" d="M 284.4 88.057116 
L 284.4 91.395463 
L 279.990032 91.395463 
L 279.990032 116.076037 
L 278.191266 116.076037 
L 278.191266 91.395463 
L 273.781298 91.395463 
L 273.781298 88.057116 
L 284.4 88.057116 
z
" style="fill:#ff0000;"/>
   </g>
   <g id="patch_69">
    <path clip-path="url(#pe156c0f51c)" d="M 279.364461 58.805608 
Q 281.638407 58.805608 282.892728 61.588585 
Q 284.14705 64.365512 284.28526 67.898682 
L 282.704971 67.898682 
Q 282.436375 65.218555 281.633192 63.651617 
Q 280.830009 62.07863 279.380108 62.07863 
Q 277.612063 62.07863 276.524636 64.964457 
Q 275.43721 67.844233 275.43721 73.797384 
Q 275.43721 78.679693 276.417719 81.716768 
Q 277.400836 84.747793 279.348815 84.747793 
Q 281.14033 84.747793 282.079115 81.55342 
Q 282.574585 79.871533 282.819712 77.124856 
L 284.4 77.124856 
Q 284.188773 81.51107 282.999646 84.481595 
Q 281.573214 88.057116 279.153235 88.057116 
Q 277.067046 88.057116 275.648437 85.12289 
Q 273.781298 81.250922 273.781298 73.156089 
Q 273.781298 67.01539 275.18426 63.082922 
Q 276.699355 58.805608 279.364461 58.805608 
z
M 279.038494 58.805608 
L 279.038494 58.805608 
z
" style="fill:#0000ff;"/>
   </g>
   <g id="patch_70">
    <path clip-path="url(#pe156c0f51c)" d="M 280.908813 46.51187 
L 279.102312 33.257378 
L 277.181771 46.51187 
L 280.908813 46.51187 
z
M 278.259969 28.8 
L 280.082022 28.8 
L 284.4 58.805608 
L 282.632376 58.805608 
L 281.427178 49.818957 
L 276.720426 49.818957 
L 275.43229 58.805608 
L 273.781298 58.805608 
L 278.259969 28.8 
z
M 279.094537 28.8 
L 279.094537 28.8 
z
" style="fill:#008000;"/>
   </g>
   <g id="matplotlib.axis_1">
    <g id="xtick_1">
     <g id="line2d_2">
      <path clip-path="url(#pe156c0f51c)" d="M 100.249351 141.64 
L 100.249351 28.8 
" style="fill:none;stroke:#cccccc;stroke-linecap:round;stroke-width:0.8;"/>
     </g>
     <g id="text_1">
      <!-- 0 -->
      <g style="fill:#262626;" transform="translate(94.688414 162.986875)scale(0.2 -0.2)">
       <defs>
        <path d="M 1731 4475 
Q 2600 4475 2988 3759 
Q 3288 3206 3288 2244 
Q 3288 1331 3016 734 
Q 2622 -122 1728 -122 
Q 922 -122 528 578 
Q 200 1163 200 2147 
Q 200 2909 397 3456 
Q 766 4475 1731 4475 
z
M 1725 391 
Q 2163 391 2422 778 
Q 2681 1166 2681 2222 
Q 2681 2984 2493 3476 
Q 2306 3969 1766 3969 
Q 1269 3969 1039 3501 
Q 809 3034 809 2125 
Q 809 1441 956 1025 
Q 1181 391 1725 391 
z
" id="Helvetica-30" transform="scale(0.015625)"/>
       </defs>
       <use xlink:href="#Helvetica-30"/>
      </g>
     </g>
    </g>
    <g id="xtick_2">
     <g id="line2d_3">
      <path clip-path="url(#pe156c0f51c)" d="M 212.025162 141.64 
L 212.025162 28.8 
" style="fill:none;stroke:#cccccc;stroke-linecap:round;stroke-width:0.8;"/>
     </g>
     <g id="text_2">
      <!-- 10 -->
      <g style="fill:#262626;" transform="translate(200.903287 162.986875)scale(0.2 -0.2)">
       <defs>
        <path d="M 613 3169 
L 613 3600 
Q 1222 3659 1462 3798 
Q 1703 3938 1822 4456 
L 2266 4456 
L 2266 0 
L 1666 0 
L 1666 3169 
L 613 3169 
z
" id="Helvetica-31" transform="scale(0.015625)"/>
       </defs>
       <use xlink:href="#Helvetica-31"/>
       <use x="55.615234" xlink:href="#Helvetica-30"/>
      </g>
     </g>
    </g>
    <g id="text_3">
     <!-- Position -->
     <g style="fill:#262626;" transform="translate(145.20125 189.089219)scale(0.25 -0.25)">
      <defs>
       <path d="M 547 4591 
L 2613 4591 
Q 3225 4591 3600 4245 
Q 3975 3900 3975 3275 
Q 3975 2738 3640 2339 
Q 3306 1941 2613 1941 
L 1169 1941 
L 1169 0 
L 547 0 
L 547 4591 
z
M 3347 3272 
Q 3347 3778 2972 3959 
Q 2766 4056 2406 4056 
L 1169 4056 
L 1169 2466 
L 2406 2466 
Q 2825 2466 3086 2644 
Q 3347 2822 3347 3272 
z
" id="Helvetica-50" transform="scale(0.015625)"/>
       <path d="M 1741 363 
Q 2300 363 2508 786 
Q 2716 1209 2716 1728 
Q 2716 2197 2566 2491 
Q 2328 2953 1747 2953 
Q 1231 2953 997 2559 
Q 763 2166 763 1609 
Q 763 1075 997 719 
Q 1231 363 1741 363 
z
M 1763 3444 
Q 2409 3444 2856 3012 
Q 3303 2581 3303 1744 
Q 3303 934 2909 406 
Q 2516 -122 1688 -122 
Q 997 -122 590 345 
Q 184 813 184 1600 
Q 184 2444 612 2944 
Q 1041 3444 1763 3444 
z
M 1744 3428 
L 1744 3428 
z
" id="Helvetica-6f" transform="scale(0.015625)"/>
       <path d="M 747 1050 
Q 772 769 888 619 
Q 1100 347 1625 347 
Q 1938 347 2175 483 
Q 2413 619 2413 903 
Q 2413 1119 2222 1231 
Q 2100 1300 1741 1391 
L 1294 1503 
Q 866 1609 663 1741 
Q 300 1969 300 2372 
Q 300 2847 642 3140 
Q 984 3434 1563 3434 
Q 2319 3434 2653 2991 
Q 2863 2709 2856 2384 
L 2325 2384 
Q 2309 2575 2191 2731 
Q 1997 2953 1519 2953 
Q 1200 2953 1036 2831 
Q 872 2709 872 2509 
Q 872 2291 1088 2159 
Q 1213 2081 1456 2022 
L 1828 1931 
Q 2434 1784 2641 1647 
Q 2969 1431 2969 969 
Q 2969 522 2630 197 
Q 2291 -128 1597 -128 
Q 850 -128 539 211 
Q 228 550 206 1050 
L 747 1050 
z
M 1578 3428 
L 1578 3428 
z
" id="Helvetica-73" transform="scale(0.015625)"/>
       <path d="M 413 3331 
L 984 3331 
L 984 0 
L 413 0 
L 413 3331 
z
M 413 4591 
L 984 4591 
L 984 3953 
L 413 3953 
L 413 4591 
z
" id="Helvetica-69" transform="scale(0.015625)"/>
       <path d="M 525 4281 
L 1094 4281 
L 1094 3347 
L 1628 3347 
L 1628 2888 
L 1094 2888 
L 1094 703 
Q 1094 528 1213 469 
Q 1278 434 1431 434 
Q 1472 434 1519 436 
Q 1566 438 1628 444 
L 1628 0 
Q 1531 -28 1426 -40 
Q 1322 -53 1200 -53 
Q 806 -53 665 148 
Q 525 350 525 672 
L 525 2888 
L 72 2888 
L 72 3347 
L 525 3347 
L 525 4281 
z
" id="Helvetica-74" transform="scale(0.015625)"/>
       <path d="M 413 3347 
L 947 3347 
L 947 2872 
Q 1184 3166 1450 3294 
Q 1716 3422 2041 3422 
Q 2753 3422 3003 2925 
Q 3141 2653 3141 2147 
L 3141 0 
L 2569 0 
L 2569 2109 
Q 2569 2416 2478 2603 
Q 2328 2916 1934 2916 
Q 1734 2916 1606 2875 
Q 1375 2806 1200 2600 
Q 1059 2434 1017 2257 
Q 975 2081 975 1753 
L 975 0 
L 413 0 
L 413 3347 
z
M 1734 3428 
L 1734 3428 
z
" id="Helvetica-6e" transform="scale(0.015625)"/>
      </defs>
      <use xlink:href="#Helvetica-50"/>
      <use x="66.699219" xlink:href="#Helvetica-6f"/>
      <use x="122.314453" xlink:href="#Helvetica-73"/>
      <use x="172.314453" xlink:href="#Helvetica-69"/>
      <use x="194.53125" xlink:href="#Helvetica-74"/>
      <use x="222.314453" xlink:href="#Helvetica-69"/>
      <use x="244.53125" xlink:href="#Helvetica-6f"/>
      <use x="300.146484" xlink:href="#Helvetica-6e"/>
     </g>
    </g>
   </g>
   <g id="matplotlib.axis_2">
    <g id="ytick_1">
     <g id="line2d_4">
      <path clip-path="url(#pe156c0f51c)" d="M 94.94 141.64 
L 284.4 141.64 
" style="fill:none;stroke:#cccccc;stroke-linecap:round;stroke-width:0.8;"/>
     </g>
     <g id="text_4">
      <!-- 0 -->
      <g style="fill:#262626;" transform="translate(76.818125 148.813438)scale(0.2 -0.2)">
       <use xlink:href="#Helvetica-30"/>
      </g>
     </g>
    </g>
    <g id="ytick_2">
     <g id="line2d_5">
      <path clip-path="url(#pe156c0f51c)" d="M 94.94 113.43 
L 284.4 113.43 
" style="fill:none;stroke:#cccccc;stroke-linecap:round;stroke-width:0.8;"/>
     </g>
     <g id="text_5">
      <!-- 0.25 -->
      <g style="fill:#262626;" transform="translate(49.018125 120.603438)scale(0.2 -0.2)">
       <defs>
        <path d="M 547 681 
L 1200 681 
L 1200 0 
L 547 0 
L 547 681 
z
" id="Helvetica-2e" transform="scale(0.015625)"/>
        <path d="M 200 0 
Q 231 578 439 1006 
Q 647 1434 1250 1784 
L 1850 2131 
Q 2253 2366 2416 2531 
Q 2672 2791 2672 3125 
Q 2672 3516 2437 3745 
Q 2203 3975 1813 3975 
Q 1234 3975 1013 3538 
Q 894 3303 881 2888 
L 309 2888 
Q 319 3472 525 3841 
Q 891 4491 1816 4491 
Q 2584 4491 2939 4075 
Q 3294 3659 3294 3150 
Q 3294 2613 2916 2231 
Q 2697 2009 2131 1694 
L 1703 1456 
Q 1397 1288 1222 1134 
Q 909 863 828 531 
L 3272 531 
L 3272 0 
L 200 0 
z
" id="Helvetica-32" transform="scale(0.015625)"/>
        <path d="M 791 1141 
Q 847 659 1238 475 
Q 1438 381 1700 381 
Q 2200 381 2440 700 
Q 2681 1019 2681 1406 
Q 2681 1875 2395 2131 
Q 2109 2388 1709 2388 
Q 1419 2388 1211 2275 
Q 1003 2163 856 1963 
L 369 1991 
L 709 4400 
L 3034 4400 
L 3034 3856 
L 1131 3856 
L 941 2613 
Q 1097 2731 1238 2791 
Q 1488 2894 1816 2894 
Q 2431 2894 2859 2497 
Q 3288 2100 3288 1491 
Q 3288 856 2895 371 
Q 2503 -113 1644 -113 
Q 1097 -113 676 195 
Q 256 503 206 1141 
L 791 1141 
z
" id="Helvetica-35" transform="scale(0.015625)"/>
       </defs>
       <use xlink:href="#Helvetica-30"/>
       <use x="55.615234" xlink:href="#Helvetica-2e"/>
       <use x="83.398438" xlink:href="#Helvetica-32"/>
       <use x="139.013672" xlink:href="#Helvetica-35"/>
      </g>
     </g>
    </g>
    <g id="ytick_3">
     <g id="line2d_6">
      <path clip-path="url(#pe156c0f51c)" d="M 94.94 85.22 
L 284.4 85.22 
" style="fill:none;stroke:#cccccc;stroke-linecap:round;stroke-width:0.8;"/>
     </g>
     <g id="text_6">
      <!-- 0.50 -->
      <g style="fill:#262626;" transform="translate(49.018125 92.393438)scale(0.2 -0.2)">
       <use xlink:href="#Helvetica-30"/>
       <use x="55.615234" xlink:href="#Helvetica-2e"/>
       <use x="83.398438" xlink:href="#Helvetica-35"/>
       <use x="139.013672" xlink:href="#Helvetica-30"/>
      </g>
     </g>
    </g>
    <g id="ytick_4">
     <g id="line2d_7">
      <path clip-path="url(#pe156c0f51c)" d="M 94.94 57.01 
L 284.4 57.01 
" style="fill:none;stroke:#cccccc;stroke-linecap:round;stroke-width:0.8;"/>
     </g>
     <g id="text_7">
      <!-- 0.75 -->
      <g style="fill:#262626;" transform="translate(49.018125 64.183437)scale(0.2 -0.2)">
       <defs>
        <path d="M 3347 4400 
L 3347 3909 
Q 3131 3700 2773 3181 
Q 2416 2663 2141 2063 
Q 1869 1478 1728 997 
Q 1638 688 1494 0 
L 872 0 
Q 1084 1281 1809 2550 
Q 2238 3294 2709 3834 
L 234 3834 
L 234 4400 
L 3347 4400 
z
" id="Helvetica-37" transform="scale(0.015625)"/>
       </defs>
       <use xlink:href="#Helvetica-30"/>
       <use x="55.615234" xlink:href="#Helvetica-2e"/>
       <use x="83.398438" xlink:href="#Helvetica-37"/>
       <use x="139.013672" xlink:href="#Helvetica-35"/>
      </g>
     </g>
    </g>
    <g id="ytick_5">
     <g id="line2d_8">
      <path clip-path="url(#pe156c0f51c)" d="M 94.94 28.8 
L 284.4 28.8 
" style="fill:none;stroke:#cccccc;stroke-linecap:round;stroke-width:0.8;"/>
     </g>
     <g id="text_8">
      <!-- 1.0 -->
      <g style="fill:#262626;" transform="translate(60.14 35.973438)scale(0.2 -0.2)">
       <use xlink:href="#Helvetica-31"/>
       <use x="55.615234" xlink:href="#Helvetica-2e"/>
       <use x="83.398438" xlink:href="#Helvetica-30"/>
      </g>
     </g>
    </g>
    <g id="text_9">
     <!-- Probability -->
     <g style="fill:#262626;" transform="translate(39.65875 143.579375)rotate(-90)scale(0.25 -0.25)">
      <defs>
       <path d="M 428 3347 
L 963 3347 
L 963 2769 
Q 1028 2938 1284 3180 
Q 1541 3422 1875 3422 
Q 1891 3422 1928 3419 
Q 1966 3416 2056 3406 
L 2056 2813 
Q 2006 2822 1964 2825 
Q 1922 2828 1872 2828 
Q 1447 2828 1219 2554 
Q 991 2281 991 1925 
L 991 0 
L 428 0 
L 428 3347 
z
" id="Helvetica-72" transform="scale(0.015625)"/>
       <path d="M 369 4606 
L 916 4606 
L 916 2941 
Q 1100 3181 1356 3307 
Q 1613 3434 1913 3434 
Q 2538 3434 2927 3004 
Q 3316 2575 3316 1738 
Q 3316 944 2931 419 
Q 2547 -106 1866 -106 
Q 1484 -106 1222 78 
Q 1066 188 888 428 
L 888 0 
L 369 0 
L 369 4606 
z
M 1831 391 
Q 2288 391 2514 753 
Q 2741 1116 2741 1709 
Q 2741 2238 2514 2584 
Q 2288 2931 1847 2931 
Q 1463 2931 1173 2647 
Q 884 2363 884 1709 
Q 884 1238 1003 944 
Q 1225 391 1831 391 
z
" id="Helvetica-62" transform="scale(0.015625)"/>
       <path d="M 844 891 
Q 844 647 1022 506 
Q 1200 366 1444 366 
Q 1741 366 2019 503 
Q 2488 731 2488 1250 
L 2488 1703 
Q 2384 1638 2221 1594 
Q 2059 1550 1903 1531 
L 1563 1488 
Q 1256 1447 1103 1359 
Q 844 1213 844 891 
z
M 2206 2028 
Q 2400 2053 2466 2191 
Q 2503 2266 2503 2406 
Q 2503 2694 2298 2823 
Q 2094 2953 1713 2953 
Q 1272 2953 1088 2716 
Q 984 2584 953 2325 
L 428 2325 
Q 444 2944 830 3186 
Q 1216 3428 1725 3428 
Q 2316 3428 2684 3203 
Q 3050 2978 3050 2503 
L 3050 575 
Q 3050 488 3086 434 
Q 3122 381 3238 381 
Q 3275 381 3322 386 
Q 3369 391 3422 400 
L 3422 -16 
Q 3291 -53 3222 -62 
Q 3153 -72 3034 -72 
Q 2744 -72 2613 134 
Q 2544 244 2516 444 
Q 2344 219 2022 53 
Q 1700 -113 1313 -113 
Q 847 -113 551 170 
Q 256 453 256 878 
Q 256 1344 547 1600 
Q 838 1856 1309 1916 
L 2206 2028 
z
M 1741 3428 
L 1741 3428 
z
" id="Helvetica-61" transform="scale(0.015625)"/>
       <path d="M 428 4591 
L 991 4591 
L 991 0 
L 428 0 
L 428 4591 
z
" id="Helvetica-6c" transform="scale(0.015625)"/>
       <path d="M 2503 3347 
L 3125 3347 
Q 3006 3025 2597 1878 
Q 2291 1016 2084 472 
Q 1597 -809 1397 -1090 
Q 1197 -1372 709 -1372 
Q 591 -1372 527 -1362 
Q 463 -1353 369 -1328 
L 369 -816 
Q 516 -856 581 -865 
Q 647 -875 697 -875 
Q 853 -875 926 -823 
Q 1000 -772 1050 -697 
Q 1066 -672 1162 -440 
Q 1259 -209 1303 -97 
L 66 3347 
L 703 3347 
L 1600 622 
L 2503 3347 
z
M 1597 3428 
L 1597 3428 
z
" id="Helvetica-79" transform="scale(0.015625)"/>
      </defs>
      <use xlink:href="#Helvetica-50"/>
      <use x="66.699219" xlink:href="#Helvetica-72"/>
      <use x="100" xlink:href="#Helvetica-6f"/>
      <use x="155.615234" xlink:href="#Helvetica-62"/>
      <use x="211.230469" xlink:href="#Helvetica-61"/>
      <use x="266.845703" xlink:href="#Helvetica-62"/>
      <use x="322.460938" xlink:href="#Helvetica-69"/>
      <use x="344.677734" xlink:href="#Helvetica-6c"/>
      <use x="366.894531" xlink:href="#Helvetica-69"/>
      <use x="389.111328" xlink:href="#Helvetica-74"/>
      <use x="416.894531" xlink:href="#Helvetica-79"/>
     </g>
    </g>
   </g>
   <g id="patch_71">
    <path d="M 94.94 141.64 
L 94.94 28.8 
" style="fill:none;stroke:#000000;stroke-linecap:square;stroke-linejoin:miter;"/>
   </g>
  </g>
 </g>
 <defs>
  <clipPath id="pe156c0f51c">
   <rect height="112.84" width="189.46" x="94.94" y="28.8"/>
  </clipPath>
 </defs>
</svg>
