<?xml version="1.0" encoding="utf-8" standalone="no"?>
<!DOCTYPE svg PUBLIC "-//W3C//DTD SVG 1.1//EN"
  "http://www.w3.org/Graphics/SVG/1.1/DTD/svg11.dtd">
<svg height="216pt" version="1.1" viewBox="0 0 306 216" width="306pt" xmlns="http://www.w3.org/2000/svg" xmlns:xlink="http://www.w3.org/1999/xlink">
 <metadata>
  <rdf:RDF xmlns:cc="http://creativecommons.org/ns#" xmlns:dc="http://purl.org/dc/elements/1.1/" xmlns:rdf="http://www.w3.org/1999/02/22-rdf-syntax-ns#">
   <cc:Work>
    <dc:type rdf:resource="http://purl.org/dc/dcmitype/StillImage"/>
    <dc:date>2022-03-14T21:31:37.302683</dc:date>
    <dc:format>image/svg+xml</dc:format>
    <dc:creator>
     <cc:Agent>
      <dc:title>Matplotlib v3.4.2, https://matplotlib.org/</dc:title>
     </cc:Agent>
    </dc:creator>
   </cc:Work>
  </rdf:RDF>
 </metadata>
 <defs>
  <style type="text/css">*{stroke-linecap:butt;stroke-linejoin:round;}</style>
 </defs>
 <g id="figure_1">
  <g id="patch_1">
   <path d="M 0 216 
L 306 216 
L 306 0 
L 0 0 
z
" style="fill:#ffffff;"/>
  </g>
  <g id="axes_1">
   <g id="patch_2">
    <path d="M 95.6 141.64 
L 284.4 141.64 
L 284.4 21.6 
L 95.6 21.6 
z
" style="fill:#ffffff;"/>
   </g>
   <g id="line2d_1">
    <path clip-path="url(#p88c104cc69)" d="M 95.6 78.725652 
L 284.4 78.725652 
" style="fill:none;stroke:#000000;stroke-linecap:round;stroke-width:0.5;"/>
   </g>
   <g id="patch_3">
    <path clip-path="url(#p88c104cc69)" d="M 101.163714 68.657087 
Q 103.429738 68.657087 104.67969 69.615006 
Q 105.929642 70.570843 106.06737 71.786984 
L 104.492587 71.786984 
Q 104.224926 70.864466 103.424541 70.325116 
Q 102.624156 69.783683 101.179306 69.783683 
Q 99.41742 69.783683 98.333782 70.777004 
Q 97.250144 71.768242 97.250144 73.817357 
Q 97.250144 75.49788 98.227237 76.543262 
Q 99.206929 77.586561 101.148122 77.586561 
Q 102.933396 77.586561 103.868911 76.487036 
Q 104.362655 75.90812 104.606928 74.962695 
L 106.181711 74.962695 
Q 105.97122 76.472459 104.786235 77.494934 
Q 103.364772 78.725652 100.953223 78.725652 
Q 98.874302 78.725652 97.460635 77.715672 
Q 95.6 76.382915 95.6 73.596619 
Q 95.6 71.482949 96.998075 70.129367 
Q 98.507892 68.657087 101.163714 68.657087 
z
M 100.838882 68.657087 
L 100.838882 68.657087 
z
" style="fill:#0000ff;"/>
   </g>
   <g id="patch_4">
    <path clip-path="url(#p88c104cc69)" d="M 106.181711 56.117863 
L 106.181711 57.611863 
L 101.787105 57.611863 
L 101.787105 68.657087 
L 99.994606 68.657087 
L 99.994606 57.611863 
L 95.6 57.611863 
L 95.6 56.117863 
L 106.181711 56.117863 
z
" style="fill:#ff0000;"/>
   </g>
   <g id="patch_5">
    <path clip-path="url(#p88c104cc69)" d="M 117.320354 71.230265 
L 117.320354 72.123312 
L 112.925748 72.123312 
L 112.925748 78.725652 
L 111.133249 78.725652 
L 111.133249 72.123312 
L 106.738643 72.123312 
L 106.738643 71.230265 
L 117.320354 71.230265 
z
" style="fill:#ff0000;"/>
   </g>
   <g id="patch_6">
    <path clip-path="url(#p88c104cc69)" d="M 123.334664 75.466124 
Q 124.967083 75.466124 126.157967 75.634802 
Q 127.88374 75.877023 128.269768 76.484263 
L 126.718086 76.484263 
Q 126.43298 76.144883 125.54234 75.989699 
Q 124.6517 75.834516 123.294295 75.834516 
Q 121.687106 75.834516 120.587052 76.157702 
Q 119.486998 76.480214 119.486998 77.119165 
Q 119.486998 77.671079 120.392776 78.01788 
Q 121.301078 78.364682 123.349802 78.364682 
Q 124.919145 78.364682 125.948553 78.121786 
Q 126.977961 77.878215 127.000669 77.333724 
L 123.375032 77.333724 
L 123.375032 76.986247 
L 128.458997 76.986247 
L 128.458997 78.643337 
L 127.449773 78.643337 
L 127.071314 78.244583 
Q 126.276551 78.478708 125.660924 78.569794 
Q 124.62647 78.725652 123.034419 78.725652 
Q 120.978126 78.725652 119.494567 78.369405 
Q 117.877286 77.922071 117.877286 77.142106 
Q 117.877286 76.364164 119.454198 75.904686 
Q 120.952895 75.466124 123.334664 75.466124 
z
M 123.074788 75.461401 
L 123.074788 75.461401 
z
" style="fill:#ffa600;"/>
   </g>
   <g id="patch_7">
    <path clip-path="url(#p88c104cc69)" d="M 124.979972 67.432132 
L 123.179764 58.775377 
L 121.265913 67.432132 
L 124.979972 67.432132 
z
M 122.340356 55.86418 
L 124.156061 55.86418 
L 128.458997 75.461401 
L 126.697531 75.461401 
L 125.496531 69.592052 
L 120.806176 69.592052 
L 119.522527 75.461401 
L 117.877286 75.461401 
L 122.340356 55.86418 
z
M 123.172016 55.86418 
L 123.172016 55.86418 
z
" style="fill:#008000;"/>
   </g>
   <g id="patch_8">
    <path clip-path="url(#p88c104cc69)" d="M 134.579643 76.321586 
Q 136.845668 76.321586 138.095619 76.550308 
Q 139.345571 76.778533 139.483299 77.06891 
L 137.908516 77.06891 
Q 137.640855 76.848641 136.84047 76.719861 
Q 136.040086 76.590583 134.595235 76.590583 
Q 132.833349 76.590583 131.749711 76.827758 
Q 130.666073 77.064435 130.666073 77.553701 
Q 130.666073 77.954959 131.643166 78.204564 
Q 132.622858 78.453672 134.564051 78.453672 
Q 136.349325 78.453672 137.28484 78.191139 
Q 137.778584 78.052911 138.022857 77.827173 
L 139.59764 77.827173 
Q 139.387149 78.187658 138.202164 78.431794 
Q 136.780701 78.725652 134.369152 78.725652 
Q 132.290231 78.725652 130.876564 78.4845 
Q 129.015929 78.166278 129.015929 77.500996 
Q 129.015929 76.996316 130.414004 76.673122 
Q 131.923821 76.321586 134.579643 76.321586 
z
M 134.254812 76.321586 
L 134.254812 76.321586 
z
" style="fill:#0000ff;"/>
   </g>
   <g id="patch_9">
    <path clip-path="url(#p88c104cc69)" d="M 136.118615 74.53767 
L 134.318407 72.614342 
L 132.404556 74.53767 
L 136.118615 74.53767 
z
M 133.478999 71.967542 
L 135.294704 71.967542 
L 139.59764 76.321586 
L 137.836174 76.321586 
L 136.635174 75.017554 
L 131.944819 75.017554 
L 130.66117 76.321586 
L 129.015929 76.321586 
L 133.478999 71.967542 
z
M 134.310659 71.967542 
L 134.310659 71.967542 
z
" style="fill:#008000;"/>
   </g>
   <g id="patch_10">
    <path clip-path="url(#p88c104cc69)" d="M 139.59764 67.070725 
L 139.59764 67.654161 
L 135.203034 67.654161 
L 135.203034 71.967542 
L 133.410535 71.967542 
L 133.410535 67.654161 
L 129.015929 67.654161 
L 129.015929 67.070725 
L 139.59764 67.070725 
z
" style="fill:#ff0000;"/>
   </g>
   <g id="patch_11">
    <path clip-path="url(#p88c104cc69)" d="M 145.718286 62.692278 
Q 147.984311 62.692278 149.234262 64.217687 
Q 150.484214 65.73978 150.621942 67.676386 
L 149.047159 67.676386 
Q 148.779498 66.207351 147.979113 65.348479 
Q 147.178729 64.486292 145.733878 64.486292 
Q 143.971992 64.486292 142.888354 66.068075 
Q 141.804716 67.646541 141.804716 70.90959 
Q 141.804716 73.585687 142.781809 75.250373 
Q 143.761501 76.911742 145.702694 76.911742 
Q 147.487968 76.911742 148.423483 75.160838 
Q 148.917227 74.23896 149.1615 72.733448 
L 150.736283 72.733448 
Q 150.525792 75.137625 149.340807 76.765833 
Q 147.919344 78.725652 145.507795 78.725652 
Q 143.428874 78.725652 142.015207 77.117341 
Q 140.154572 74.995033 140.154572 70.558082 
Q 140.154572 67.192235 141.552647 65.036765 
Q 143.062464 62.692278 145.718286 62.692278 
z
M 145.393455 62.692278 
L 145.393455 62.692278 
z
" style="fill:#0000ff;"/>
   </g>
   <g id="patch_12">
    <path clip-path="url(#p88c104cc69)" d="M 147.257258 51.892185 
L 145.45705 40.248066 
L 143.543199 51.892185 
L 147.257258 51.892185 
z
M 144.617642 36.332243 
L 146.433347 36.332243 
L 150.736283 62.692278 
L 148.974817 62.692278 
L 147.773817 54.797473 
L 143.083462 54.797473 
L 141.799813 62.692278 
L 140.154572 62.692278 
L 144.617642 36.332243 
z
M 145.449302 36.332243 
L 145.449302 36.332243 
z
" style="fill:#008000;"/>
   </g>
   <g id="patch_13">
    <path clip-path="url(#p88c104cc69)" d="M 161.874926 76.618567 
L 161.874926 76.869618 
L 157.48032 76.869618 
L 157.48032 78.725652 
L 155.687821 78.725652 
L 155.687821 76.869618 
L 151.293215 76.869618 
L 151.293215 76.618567 
L 161.874926 76.618567 
z
" style="fill:#ff0000;"/>
   </g>
   <g id="patch_14">
    <path clip-path="url(#p88c104cc69)" d="M 156.856929 64.705088 
Q 159.122954 64.705088 160.372905 65.838532 
Q 161.622857 66.969511 161.760586 68.408492 
L 160.185802 68.408492 
Q 159.918141 67.316936 159.117756 66.678758 
Q 158.317372 66.038116 156.872521 66.038116 
Q 155.110635 66.038116 154.026997 67.213448 
Q 152.943359 68.386316 152.943359 70.8109 
Q 152.943359 72.799355 153.920453 74.036287 
Q 154.900144 75.270755 156.841337 75.270755 
Q 158.626611 75.270755 159.562126 73.969759 
Q 160.05587 73.284764 160.300143 72.166105 
L 161.874926 72.166105 
Q 161.664435 73.952511 160.47945 75.162339 
Q 159.057987 76.618567 156.646438 76.618567 
Q 154.567517 76.618567 153.15385 75.423523 
Q 151.293215 73.846558 151.293215 70.549715 
Q 151.293215 68.048747 152.69129 66.447142 
Q 154.201107 64.705088 156.856929 64.705088 
z
M 156.532098 64.705088 
L 156.532098 64.705088 
z
" style="fill:#0000ff;"/>
   </g>
   <g id="patch_15">
    <path clip-path="url(#p88c104cc69)" d="M 156.750593 45.100616 
Q 158.383012 45.100616 159.573896 46.11513 
Q 161.299669 47.571972 161.685697 51.224223 
L 160.134015 51.224223 
Q 159.84891 49.183021 158.95827 48.249668 
Q 158.06763 47.316315 156.710224 47.316315 
Q 155.103035 47.316315 154.002981 49.260124 
Q 152.902927 51.199875 152.902927 55.042855 
Q 152.902927 58.362345 153.808706 60.448186 
Q 154.717007 62.534027 156.765731 62.534027 
Q 158.335074 62.534027 159.364482 61.073127 
Q 160.39389 59.608169 160.416598 56.333317 
L 156.790962 56.333317 
L 156.790962 54.243417 
L 161.874926 54.243417 
L 161.874926 64.210005 
L 160.865703 64.210005 
L 160.487244 61.811693 
Q 159.69248 63.219839 159.076853 63.767677 
Q 158.042399 64.705088 156.450349 64.705088 
Q 154.394055 64.705088 152.910496 62.562434 
Q 151.293215 59.871942 151.293215 55.180829 
Q 151.293215 50.501889 152.870127 47.738353 
Q 154.368825 45.100616 156.750593 45.100616 
z
M 156.490718 45.072209 
L 156.490718 45.072209 
z
" style="fill:#ffa600;"/>
   </g>
   <g id="patch_16">
    <path clip-path="url(#p88c104cc69)" d="M 173.013569 77.512797 
L 173.013569 77.657304 
L 168.618963 77.657304 
L 168.618963 78.725652 
L 166.826464 78.725652 
L 166.826464 77.657304 
L 162.431858 77.657304 
L 162.431858 77.512797 
L 173.013569 77.512797 
z
" style="fill:#ff0000;"/>
   </g>
   <g id="patch_17">
    <path clip-path="url(#p88c104cc69)" d="M 167.995572 75.324947 
Q 170.261597 75.324947 171.511548 75.533098 
Q 172.7615 75.740797 172.899229 76.005058 
L 171.324446 76.005058 
Q 171.056784 75.804599 170.2564 75.687401 
Q 169.456015 75.56975 168.011164 75.56975 
Q 166.249278 75.56975 165.16564 75.785594 
Q 164.082002 76.000986 164.082002 76.446248 
Q 164.082002 76.811418 165.059096 77.038574 
Q 166.038787 77.265278 167.97998 77.265278 
Q 169.765254 77.265278 170.700769 77.026357 
Q 171.194513 76.900561 171.438786 76.695125 
L 173.013569 76.695125 
Q 172.803079 77.023189 171.618093 77.245368 
Q 170.196631 77.512797 167.785082 77.512797 
Q 165.70616 77.512797 164.292493 77.293333 
Q 162.431858 77.003732 162.431858 76.398283 
Q 162.431858 75.938993 163.829933 75.644866 
Q 165.33975 75.324947 167.995572 75.324947 
z
M 167.670741 75.324947 
L 167.670741 75.324947 
z
" style="fill:#0000ff;"/>
   </g>
   <g id="patch_18">
    <path clip-path="url(#p88c104cc69)" d="M 169.534545 64.005015 
L 167.734336 51.800432 
L 165.820485 64.005015 
L 169.534545 64.005015 
z
M 166.894928 47.696129 
L 168.710633 47.696129 
L 173.013569 75.324947 
L 171.252103 75.324947 
L 170.051104 67.050143 
L 165.360748 67.050143 
L 164.077099 75.324947 
L 162.431858 75.324947 
L 166.894928 47.696129 
z
M 167.726588 47.696129 
L 167.726588 47.696129 
z
" style="fill:#008000;"/>
   </g>
   <g id="patch_19">
    <path clip-path="url(#p88c104cc69)" d="M 180.673188 76.677685 
L 178.87298 74.46967 
L 176.959128 76.677685 
L 180.673188 76.677685 
z
M 178.033571 73.727133 
L 179.849276 73.727133 
L 184.152212 78.725652 
L 182.390746 78.725652 
L 181.189747 77.2286 
L 176.499391 77.2286 
L 175.215742 78.725652 
L 173.570501 78.725652 
L 178.033571 73.727133 
z
M 178.865231 73.727133 
L 178.865231 73.727133 
z
" style="fill:#008000;"/>
   </g>
   <g id="patch_20">
    <path clip-path="url(#p88c104cc69)" d="M 179.027879 67.408218 
Q 180.660298 67.408218 181.851182 67.735216 
Q 183.576955 68.204786 183.962983 69.38198 
L 182.411301 69.38198 
Q 182.126196 68.724059 181.235556 68.423221 
Q 180.344916 68.122382 178.98751 68.122382 
Q 177.380321 68.122382 176.280267 68.748911 
Q 175.180213 69.374132 175.180213 70.612801 
Q 175.180213 71.682739 176.085992 72.355048 
Q 176.994293 73.027356 179.043017 73.027356 
Q 180.61236 73.027356 181.641768 72.556479 
Q 182.671177 72.084293 182.693884 71.028743 
L 179.068248 71.028743 
L 179.068248 70.355126 
L 184.152212 70.355126 
L 184.152212 73.567557 
L 183.142989 73.567557 
L 182.76453 72.794534 
Q 181.969766 73.248407 181.35414 73.424986 
Q 180.319685 73.727133 178.727635 73.727133 
Q 176.671341 73.727133 175.187783 73.036512 
Q 173.570501 72.169313 173.570501 70.657273 
Q 173.570501 69.149157 175.147414 68.258414 
Q 176.646111 67.408218 179.027879 67.408218 
z
M 178.768004 67.399062 
L 178.768004 67.399062 
z
" style="fill:#ffa600;"/>
   </g>
   <g id="patch_21">
    <path clip-path="url(#p88c104cc69)" d="M 195.290855 21.6 
L 195.290855 28.406302 
L 190.89625 28.406302 
L 190.89625 78.725652 
L 189.10375 78.725652 
L 189.10375 28.406302 
L 184.709145 28.406302 
L 184.709145 21.6 
L 195.290855 21.6 
z
" style="fill:#ff0000;"/>
   </g>
   <g id="patch_22">
    <path clip-path="url(#p88c104cc69)" d="M 201.411502 38.186394 
Q 203.677526 38.186394 204.927478 42.043283 
Q 206.177429 45.891787 206.315158 50.78836 
L 204.740375 50.78836 
Q 204.472714 47.074008 203.672329 44.902412 
Q 202.871944 42.722431 201.427093 42.722431 
Q 199.665207 42.722431 198.58157 46.721857 
Q 197.497932 50.712899 197.497932 58.963288 
Q 197.497932 65.729613 198.475025 69.938653 
Q 199.454717 74.139308 201.39591 74.139308 
Q 203.181184 74.139308 204.116698 69.71227 
Q 204.610442 67.381367 204.854715 63.574786 
L 206.429499 63.574786 
Q 206.219008 69.653578 205.034022 73.770388 
Q 203.61256 78.725652 201.201011 78.725652 
Q 199.122089 78.725652 197.708422 74.659149 
Q 195.847788 69.293043 195.847788 58.074526 
Q 195.847788 49.564217 197.245862 44.114265 
Q 198.755679 38.186394 201.411502 38.186394 
z
M 201.08667 38.186394 
L 201.08667 38.186394 
z
" style="fill:#0000ff;"/>
   </g>
   <g id="patch_23">
    <path clip-path="url(#p88c104cc69)" d="M 214.089117 76.791424 
L 212.288909 74.706036 
L 210.375058 76.791424 
L 214.089117 76.791424 
z
M 211.4495 74.004737 
L 213.265205 74.004737 
L 217.568142 78.725652 
L 215.806675 78.725652 
L 214.605676 77.311743 
L 209.91532 77.311743 
L 208.631671 78.725652 
L 206.986431 78.725652 
L 211.4495 74.004737 
z
M 212.28116 74.004737 
L 212.28116 74.004737 
z
" style="fill:#008000;"/>
   </g>
   <g id="patch_24">
    <path clip-path="url(#p88c104cc69)" d="M 217.568142 68.221392 
L 217.568142 68.910456 
L 213.173536 68.910456 
L 213.173536 74.004737 
L 211.381037 74.004737 
L 211.381037 68.910456 
L 206.986431 68.910456 
L 206.986431 68.221392 
L 217.568142 68.221392 
z
" style="fill:#ff0000;"/>
   </g>
   <g id="patch_25">
    <path clip-path="url(#p88c104cc69)" d="M 212.443808 36.54521 
Q 214.076227 36.54521 215.267111 38.184425 
Q 216.992884 40.538337 217.378912 46.439509 
L 215.827231 46.439509 
Q 215.542125 43.141409 214.651485 41.633332 
Q 213.760845 40.125255 212.403439 40.125255 
Q 210.79625 40.125255 209.696196 43.26599 
Q 208.596143 46.400168 208.596143 52.609513 
Q 208.596143 57.973023 209.501921 61.343248 
Q 210.410222 64.713473 212.458946 64.713473 
Q 214.028289 64.713473 215.057698 62.353004 
Q 216.087106 59.985978 216.109813 54.694594 
L 212.484177 54.694594 
L 212.484177 51.317812 
L 217.568142 51.317812 
L 217.568142 67.421456 
L 216.558918 67.421456 
L 216.180459 63.546352 
Q 215.385695 65.821582 214.770069 66.706758 
Q 213.735614 68.221392 212.143564 68.221392 
Q 210.087271 68.221392 208.603712 64.759371 
Q 206.986431 60.412174 206.986431 52.832446 
Q 206.986431 45.272388 208.563343 40.807168 
Q 210.06204 36.54521 212.443808 36.54521 
z
M 212.183933 36.499312 
L 212.183933 36.499312 
z
" style="fill:#ffa600;"/>
   </g>
   <g id="patch_26">
    <path clip-path="url(#p88c104cc69)" d="M 225.22776 73.298423 
L 223.427552 67.447056 
L 221.513701 73.298423 
L 225.22776 73.298423 
z
M 222.588143 65.479288 
L 224.403848 65.479288 
L 228.706785 78.725652 
L 226.945319 78.725652 
L 225.744319 74.758379 
L 221.053963 74.758379 
L 219.770314 78.725652 
L 218.125074 78.725652 
L 222.588143 65.479288 
z
M 223.419803 65.479288 
L 223.419803 65.479288 
z
" style="fill:#008000;"/>
   </g>
   <g id="patch_27">
    <path clip-path="url(#p88c104cc69)" d="M 228.706785 41.201615 
L 228.706785 44.094206 
L 224.312179 44.094206 
L 224.312179 65.479288 
L 222.51968 65.479288 
L 222.51968 44.094206 
L 218.125074 44.094206 
L 218.125074 41.201615 
L 228.706785 41.201615 
z
" style="fill:#ff0000;"/>
   </g>
   <g id="patch_28">
    <path clip-path="url(#p88c104cc69)" d="M 236.366403 76.567243 
L 234.566195 74.240154 
L 232.652344 76.567243 
L 236.366403 76.567243 
z
M 233.726786 73.457572 
L 235.542491 73.457572 
L 239.845428 78.725652 
L 238.083962 78.725652 
L 236.882962 77.147867 
L 232.192606 77.147867 
L 230.908957 78.725652 
L 229.263717 78.725652 
L 233.726786 73.457572 
z
M 234.558446 73.457572 
L 234.558446 73.457572 
z
" style="fill:#008000;"/>
   </g>
   <g id="patch_29">
    <path clip-path="url(#p88c104cc69)" d="M 234.827431 27.333486 
Q 237.093455 27.333486 238.343407 31.721714 
Q 239.593358 36.100401 239.731087 41.671542 
L 238.156304 41.671542 
Q 237.888643 37.445489 237.088258 34.974726 
Q 236.287873 32.494423 234.843023 32.494423 
Q 233.081137 32.494423 231.997499 37.044824 
Q 230.913861 41.585686 230.913861 50.972677 
Q 230.913861 58.671154 231.890954 63.460045 
Q 232.870646 68.239398 234.811839 68.239398 
Q 236.597113 68.239398 237.532627 63.202476 
Q 238.026371 60.55046 238.270645 56.21947 
L 239.845428 56.21947 
Q 239.634937 63.135698 238.449952 67.819654 
Q 237.028489 73.457572 234.61694 73.457572 
Q 232.538018 73.457572 231.124352 68.830854 
Q 229.263717 62.725494 229.263717 49.961476 
Q 229.263717 40.278757 230.661792 34.078001 
Q 232.171608 27.333486 234.827431 27.333486 
z
M 234.502599 27.333486 
L 234.502599 27.333486 
z
" style="fill:#0000ff;"/>
   </g>
   <g id="patch_30">
    <path clip-path="url(#p88c104cc69)" d="M 245.966074 57.733642 
Q 248.232098 57.733642 249.48205 59.730814 
Q 250.732002 61.723644 250.86973 64.259183 
L 249.294947 64.259183 
Q 249.027286 62.33582 248.226901 61.211326 
Q 247.426516 60.08249 245.981666 60.08249 
Q 244.21978 60.08249 243.136142 62.15347 
Q 242.052504 64.220108 242.052504 68.492319 
Q 242.052504 71.996052 243.029597 74.175574 
Q 244.009289 76.350755 245.950482 76.350755 
Q 247.735756 76.350755 248.671271 74.058349 
Q 249.165014 72.851363 249.409288 70.880241 
L 250.984071 70.880241 
Q 250.77358 74.027957 249.588595 76.159721 
Q 248.167132 78.725652 245.755583 78.725652 
Q 243.676661 78.725652 242.262995 76.619939 
Q 240.40236 73.841265 240.40236 68.032101 
Q 240.40236 63.625298 241.800435 60.803208 
Q 243.310251 57.733642 245.966074 57.733642 
z
M 245.641242 57.733642 
L 245.641242 57.733642 
z
" style="fill:#0000ff;"/>
   </g>
   <g id="patch_31">
    <path clip-path="url(#p88c104cc69)" d="M 245.859737 21.819212 
Q 247.492157 21.819212 248.683041 23.677752 
Q 250.408813 26.346616 250.794841 33.037361 
L 249.24316 33.037361 
Q 248.958054 29.297978 248.067414 27.588121 
Q 247.176774 25.878264 245.819368 25.878264 
Q 244.21218 25.878264 243.112126 29.439227 
Q 242.012072 32.992756 242.012072 40.032906 
Q 242.012072 46.114049 242.91785 49.935208 
Q 243.826151 53.756366 245.874876 53.756366 
Q 247.444219 53.756366 248.473627 51.080068 
Q 249.503035 48.396336 249.525742 42.396969 
L 245.900106 42.396969 
L 245.900106 38.568376 
L 250.984071 38.568376 
L 250.984071 56.826674 
L 249.974847 56.826674 
L 249.596388 52.433086 
Q 248.801624 55.012739 248.185998 56.016351 
Q 247.151544 57.733642 245.559493 57.733642 
Q 243.5032 57.733642 242.019641 53.808405 
Q 240.40236 48.879557 240.40236 40.285667 
Q 240.40236 31.71408 241.979272 26.651417 
Q 243.477969 21.819212 245.859737 21.819212 
z
M 245.599862 21.767173 
L 245.599862 21.767173 
z
" style="fill:#ffa600;"/>
   </g>
   <g id="patch_32">
    <path clip-path="url(#p88c104cc69)" d="M 257.104717 51.638364 
Q 259.370741 51.638364 260.620693 54.215438 
Q 261.870645 56.786909 262.008373 60.058673 
L 260.43359 60.058673 
Q 260.165929 57.576838 259.365544 56.125834 
Q 258.565159 54.669227 257.120309 54.669227 
Q 255.358423 54.669227 254.274785 57.34154 
Q 253.191147 60.008252 253.191147 65.520949 
Q 253.191147 70.042033 254.16824 72.854405 
Q 255.147932 75.661175 257.089125 75.661175 
Q 258.874399 75.661175 259.809914 72.703142 
Q 260.303657 71.145693 260.547931 68.602233 
L 262.122714 68.602233 
Q 261.912223 72.663926 260.727238 75.414672 
Q 259.305775 78.725652 256.894226 78.725652 
Q 254.815304 78.725652 253.401638 76.00852 
Q 251.541003 72.423026 251.541003 64.927102 
Q 251.541003 59.240732 252.939078 55.599214 
Q 254.448895 51.638364 257.104717 51.638364 
z
M 256.779885 51.638364 
L 256.779885 51.638364 
z
" style="fill:#0000ff;"/>
   </g>
   <g id="patch_33">
    <path clip-path="url(#p88c104cc69)" d="M 258.643689 40.278056 
L 256.843481 28.029942 
L 254.92963 40.278056 
L 258.643689 40.278056 
z
M 256.004073 23.911 
L 257.819777 23.911 
L 262.122714 51.638364 
L 260.361248 51.638364 
L 259.160248 43.334045 
L 254.469892 43.334045 
L 253.186243 51.638364 
L 251.541003 51.638364 
L 256.004073 23.911 
z
M 256.835733 23.911 
L 256.835733 23.911 
z
" style="fill:#008000;"/>
   </g>
   <g id="patch_34">
    <path clip-path="url(#p88c104cc69)" d="M 269.782332 76.759354 
L 267.982124 74.63939 
L 266.068273 76.759354 
L 269.782332 76.759354 
z
M 267.142716 73.926463 
L 268.958421 73.926463 
L 273.261357 78.725652 
L 271.499891 78.725652 
L 270.298891 77.2883 
L 265.608535 77.2883 
L 264.324886 78.725652 
L 262.679646 78.725652 
L 267.142716 73.926463 
z
M 267.974376 73.926463 
L 267.974376 73.926463 
z
" style="fill:#008000;"/>
   </g>
   <g id="patch_35">
    <path clip-path="url(#p88c104cc69)" d="M 273.261357 63.377433 
L 273.261357 64.63431 
L 268.866751 64.63431 
L 268.866751 73.926463 
L 267.074252 73.926463 
L 267.074252 64.63431 
L 262.679646 64.63431 
L 262.679646 63.377433 
L 273.261357 63.377433 
z
" style="fill:#ff0000;"/>
   </g>
   <g id="patch_36">
    <path clip-path="url(#p88c104cc69)" d="M 279.275666 76.534169 
Q 280.908086 76.534169 282.09897 76.647576 
Q 283.824742 76.810429 284.210771 77.218696 
L 282.659089 77.218696 
Q 282.373983 76.99052 281.483343 76.886185 
Q 280.592703 76.781851 279.235298 76.781851 
Q 277.628109 76.781851 276.528055 76.999139 
Q 275.428001 77.215974 275.428001 77.645561 
Q 275.428001 78.01663 276.333779 78.249795 
Q 277.242081 78.48296 279.290805 78.48296 
Q 280.860148 78.48296 281.889556 78.319654 
Q 282.918964 78.155894 282.941672 77.789815 
L 279.316035 77.789815 
L 279.316035 77.556196 
L 284.4 77.556196 
L 284.4 78.670309 
L 283.390776 78.670309 
L 283.012317 78.402214 
Q 282.217554 78.559624 281.601927 78.620864 
Q 280.567473 78.725652 278.975422 78.725652 
Q 276.919129 78.725652 275.43557 78.486136 
Q 273.818289 78.18538 273.818289 77.660984 
Q 273.818289 77.13795 275.395201 76.829028 
Q 276.893898 76.534169 279.275666 76.534169 
z
M 279.015791 76.530994 
L 279.015791 76.530994 
z
" style="fill:#ffa600;"/>
   </g>
   <g id="patch_37">
    <path clip-path="url(#p88c104cc69)" d="M 284.4 65.483788 
L 284.4 66.80002 
L 280.005394 66.80002 
L 280.005394 76.530994 
L 278.212895 76.530994 
L 278.212895 66.80002 
L 273.818289 66.80002 
L 273.818289 65.483788 
L 284.4 65.483788 
z
" style="fill:#ff0000;"/>
   </g>
   <g id="patch_38">
    <path clip-path="url(#p88c104cc69)" d="M 102.702686 89.890515 
L 100.902478 99.031463 
L 98.988627 89.890515 
L 102.702686 89.890515 
z
M 100.06307 102.105489 
L 101.878775 102.105489 
L 106.181711 81.412151 
L 104.420245 81.412151 
L 103.219245 87.609786 
L 98.528889 87.609786 
L 97.24524 81.412151 
L 95.6 81.412151 
L 100.06307 102.105489 
z
M 100.89473 102.105489 
L 100.89473 102.105489 
z
" style="fill:none;opacity:0;"/>
   </g>
   <g id="patch_39">
    <path clip-path="url(#p88c104cc69)" d="M 101.057377 81.408264 
Q 102.689797 81.408264 103.880681 81.269441 
Q 105.606453 81.070092 105.992481 80.57033 
L 104.4408 80.57033 
Q 104.155694 80.849641 103.265054 80.977358 
Q 102.374414 81.105075 101.017008 81.105075 
Q 99.40982 81.105075 98.309766 80.839091 
Q 97.209712 80.573661 97.209712 80.047801 
Q 97.209712 79.593572 98.11549 79.308153 
Q 99.023792 79.022733 101.072516 79.022733 
Q 102.641859 79.022733 103.671267 79.222638 
Q 104.700675 79.423098 104.723383 79.871218 
L 101.097746 79.871218 
L 101.097746 80.157193 
L 106.181711 80.157193 
L 106.181711 78.793398 
L 105.172487 78.793398 
L 104.794028 79.121575 
Q 103.999265 78.928889 103.383638 78.853924 
Q 102.349184 78.725652 100.757133 78.725652 
Q 98.70084 78.725652 97.217281 79.018846 
Q 95.6 79.387004 95.6 80.028921 
Q 95.6 80.669171 97.176912 81.047325 
Q 98.675609 81.408264 101.057377 81.408264 
z
M 100.797502 81.412151 
L 100.797502 81.412151 
z
" style="fill:none;opacity:0;"/>
   </g>
   <g id="patch_40">
    <path clip-path="url(#p88c104cc69)" d="M 113.841329 81.317506 
L 112.041121 82.698446 
L 110.12727 81.317506 
L 113.841329 81.317506 
z
M 111.201713 83.162844 
L 113.017418 83.162844 
L 117.320354 80.036664 
L 115.558888 80.036664 
L 114.357888 80.972952 
L 109.667533 80.972952 
L 108.383883 80.036664 
L 106.738643 80.036664 
L 111.201713 83.162844 
z
M 112.033373 83.162844 
L 112.033373 83.162844 
z
" style="fill:none;opacity:0;"/>
   </g>
   <g id="patch_41">
    <path clip-path="url(#p88c104cc69)" d="M 112.302357 80.036664 
Q 114.568382 80.036664 115.818333 79.911935 
Q 117.068285 79.787477 117.206013 79.629125 
L 115.63123 79.629125 
Q 115.363569 79.749244 114.563184 79.819472 
Q 113.762799 79.889971 112.317949 79.889971 
Q 110.556063 79.889971 109.472425 79.760633 
Q 108.388787 79.631565 108.388787 79.364753 
Q 108.388787 79.145935 109.36588 79.009818 
Q 110.345572 78.873971 112.286765 78.873971 
Q 114.072039 78.873971 115.007554 79.017139 
Q 115.501298 79.092518 115.745571 79.215621 
L 117.320354 79.215621 
Q 117.109863 79.019037 115.924878 78.885902 
Q 114.503415 78.725652 112.091866 78.725652 
Q 110.012945 78.725652 108.599278 78.85716 
Q 106.738643 79.030696 106.738643 79.393495 
Q 106.738643 79.668713 108.136718 79.844961 
Q 109.646535 80.036664 112.302357 80.036664 
z
M 111.977525 80.036664 
L 111.977525 80.036664 
z
" style="fill:none;opacity:0;"/>
   </g>
   <g id="patch_42">
    <path clip-path="url(#p88c104cc69)" d="M 112.19602 86.30361 
Q 113.82844 86.30361 115.019324 86.141078 
Q 116.745096 85.907682 117.131125 85.322568 
L 115.579443 85.322568 
Q 115.294337 85.649582 114.403697 85.799111 
Q 113.513057 85.948641 112.155651 85.948641 
Q 110.548463 85.948641 109.448409 85.637229 
Q 108.348355 85.326469 108.348355 84.710798 
Q 108.348355 84.178994 109.254133 83.844828 
Q 110.162435 83.510663 112.211159 83.510663 
Q 113.780502 83.510663 114.80991 83.744709 
Q 115.839318 83.979405 115.862026 84.504057 
L 112.236389 84.504057 
L 112.236389 84.838873 
L 117.320354 84.838873 
L 117.320354 83.24216 
L 116.31113 83.24216 
L 115.932671 83.626385 
Q 115.137908 83.400791 114.522281 83.313024 
Q 113.487827 83.162844 111.895776 83.162844 
Q 109.839483 83.162844 108.355924 83.506112 
Q 106.738643 83.937146 106.738643 84.688694 
Q 106.738643 85.43829 108.315555 85.881027 
Q 109.814252 86.30361 112.19602 86.30361 
z
M 111.936145 86.308161 
L 111.936145 86.308161 
z
" style="fill:none;opacity:0;"/>
   </g>
   <g id="patch_43">
    <path clip-path="url(#p88c104cc69)" d="M 123.441 102.419365 
Q 125.707025 102.419365 126.956976 100.743196 
Q 128.206928 99.07067 128.344656 96.942663 
L 126.769873 96.942663 
Q 126.502212 98.556887 125.701827 99.500644 
Q 124.901442 100.448044 123.456592 100.448044 
Q 121.694706 100.448044 120.611068 98.709929 
Q 119.52743 96.975458 119.52743 93.389913 
Q 119.52743 90.449328 120.504523 88.620117 
Q 121.484215 86.79455 123.425408 86.79455 
Q 125.210682 86.79455 126.146197 88.718501 
Q 126.639941 89.731491 126.884214 91.385797 
L 128.458997 91.385797 
Q 128.248506 88.744008 127.063521 86.954879 
Q 125.642058 84.801366 123.230509 84.801366 
Q 121.151588 84.801366 119.737921 86.568632 
Q 117.877286 88.900694 117.877286 93.776161 
Q 117.877286 97.474665 119.275361 99.843165 
Q 120.785178 102.419365 123.441 102.419365 
z
M 123.116169 102.419365 
L 123.116169 102.419365 
z
" style="fill:none;opacity:0;"/>
   </g>
   <g id="patch_44">
    <path clip-path="url(#p88c104cc69)" d="M 128.458997 84.801366 
L 128.458997 84.077468 
L 124.064391 84.077468 
L 124.064391 78.725652 
L 122.271892 78.725652 
L 122.271892 84.077468 
L 117.877286 84.077468 
L 117.877286 84.801366 
L 128.458997 84.801366 
z
" style="fill:none;opacity:0;"/>
   </g>
   <g id="patch_45">
    <path clip-path="url(#p88c104cc69)" d="M 134.473307 90.574335 
Q 136.105726 90.574335 137.29661 89.961176 
Q 139.022383 89.08068 139.408411 86.873308 
L 137.856729 86.873308 
Q 137.571623 88.106983 136.680984 88.67109 
Q 135.790344 89.235196 134.432938 89.235196 
Q 132.825749 89.235196 131.725695 88.060383 
Q 130.625641 86.888024 130.625641 84.565378 
Q 130.625641 82.559122 131.531419 81.298467 
Q 132.439721 80.037812 134.488445 80.037812 
Q 136.057788 80.037812 137.087196 80.920761 
Q 138.116604 81.806162 138.139312 83.785439 
L 134.513676 83.785439 
L 134.513676 85.048547 
L 139.59764 85.048547 
L 139.59764 79.024874 
L 138.588416 79.024874 
L 138.209957 80.474381 
Q 137.415194 79.623317 136.799567 79.292211 
Q 135.765113 78.725652 134.173063 78.725652 
Q 132.116769 78.725652 130.63321 80.020644 
Q 129.015929 81.646741 129.015929 84.481988 
Q 129.015929 87.309877 130.592841 88.980122 
Q 132.091539 90.574335 134.473307 90.574335 
z
M 134.213431 90.591503 
L 134.213431 90.591503 
z
" style="fill:none;opacity:0;"/>
   </g>
   <g id="patch_46">
    <path clip-path="url(#p88c104cc69)" d="M 145.61195 123.442551 
Q 147.244369 123.442551 148.435253 121.808527 
Q 150.161026 119.462068 150.547054 113.579579 
L 148.995372 113.579579 
Q 148.710267 116.867237 147.819627 118.370539 
Q 146.928987 119.873842 145.571581 119.873842 
Q 143.964392 119.873842 142.864338 116.743051 
Q 141.764284 113.618796 141.764284 107.429111 
Q 141.764284 102.082583 142.670062 98.723029 
Q 143.578364 95.363475 145.627088 95.363475 
Q 147.196431 95.363475 148.225839 97.71647 
Q 149.255247 100.076001 149.277955 105.350632 
L 145.652319 105.350632 
L 145.652319 108.716723 
L 150.736283 108.716723 
L 150.736283 92.664066 
L 149.727059 92.664066 
L 149.348601 96.5269 
Q 148.553837 94.258874 147.93821 93.376501 
Q 146.903756 91.866662 145.311706 91.866662 
Q 143.255412 91.866662 141.771853 95.317722 
Q 140.154572 99.651155 140.154572 107.206884 
Q 140.154572 114.743005 141.731484 119.194088 
Q 143.230182 123.442551 145.61195 123.442551 
z
M 145.352075 123.488304 
L 145.352075 123.488304 
z
" style="fill:none;opacity:0;"/>
   </g>
   <g id="patch_47">
    <path clip-path="url(#p88c104cc69)" d="M 150.736283 91.866662 
L 150.736283 90.300961 
L 146.341677 90.300961 
L 146.341677 78.725652 
L 144.549178 78.725652 
L 144.549178 90.300961 
L 140.154572 90.300961 
L 140.154572 91.866662 
L 150.736283 91.866662 
z
" style="fill:none;opacity:0;"/>
   </g>
   <g id="patch_48">
    <path clip-path="url(#p88c104cc69)" d="M 158.395901 93.328448 
L 156.595693 109.072451 
L 154.681842 93.328448 
L 158.395901 93.328448 
z
M 155.756285 114.367031 
L 157.57199 114.367031 
L 161.874926 78.725652 
L 160.11346 78.725652 
L 158.91246 89.40021 
L 154.222105 89.40021 
L 152.938456 78.725652 
L 151.293215 78.725652 
L 155.756285 114.367031 
z
M 156.587945 114.367031 
L 156.587945 114.367031 
z
" style="fill:none;opacity:0;"/>
   </g>
   <g id="patch_49">
    <path clip-path="url(#p88c104cc69)" d="M 167.889236 111.783673 
Q 169.521655 111.783673 170.712539 110.072949 
Q 172.438312 107.61635 172.82434 101.457746 
L 171.272658 101.457746 
Q 170.987553 104.899721 170.096913 106.473587 
Q 169.206273 108.047453 167.848867 108.047453 
Q 166.241678 108.047453 165.141624 104.769706 
Q 164.04157 101.498803 164.04157 95.018583 
Q 164.04157 89.421095 164.947349 85.903848 
Q 165.85565 82.3866 167.904374 82.3866 
Q 169.473717 82.3866 170.503125 84.850042 
Q 171.532533 87.320327 171.555241 92.842542 
L 167.929605 92.842542 
L 167.929605 96.366633 
L 173.013569 96.366633 
L 173.013569 79.560485 
L 172.004346 79.560485 
L 171.625887 83.604636 
Q 170.831123 81.230151 170.215497 80.306361 
Q 169.181042 78.725652 167.588992 78.725652 
Q 165.532698 78.725652 164.049139 82.3387 
Q 162.431858 86.875539 162.431858 94.785924 
Q 162.431858 102.675781 164.008771 107.335792 
Q 165.507468 111.783673 167.889236 111.783673 
z
M 167.629361 111.831573 
L 167.629361 111.831573 
z
" style="fill:none;opacity:0;"/>
   </g>
   <g id="patch_50">
    <path clip-path="url(#p88c104cc69)" d="M 179.134215 90.261292 
Q 181.40024 90.261292 182.650192 89.209493 
Q 183.900143 88.15998 184.037872 86.824653 
L 182.463089 86.824653 
Q 182.195427 87.837581 181.395043 88.429789 
Q 180.594658 89.024284 179.149807 89.024284 
Q 177.387921 89.024284 176.304283 87.933615 
Q 175.220645 86.845231 175.220645 84.595296 
Q 175.220645 82.750075 176.197739 81.602242 
Q 177.17743 80.456695 179.118623 80.456695 
Q 180.903897 80.456695 181.839412 81.663978 
Q 182.333156 82.29963 182.577429 83.33771 
L 184.152212 83.33771 
Q 183.941722 81.679983 182.756736 80.557302 
Q 181.335274 79.205969 178.923725 79.205969 
Q 176.844803 79.205969 175.431136 80.314931 
Q 173.570501 81.778304 173.570501 84.837667 
Q 173.570501 87.158484 174.968576 88.644722 
Q 176.478393 90.261292 179.134215 90.261292 
z
M 178.809384 90.261292 
L 178.809384 90.261292 
z
" style="fill:none;opacity:0;"/>
   </g>
   <g id="patch_51">
    <path clip-path="url(#p88c104cc69)" d="M 184.152212 79.205969 
L 184.152212 79.148741 
L 179.757607 79.148741 
L 179.757607 78.725652 
L 177.965107 78.725652 
L 177.965107 79.148741 
L 173.570501 79.148741 
L 173.570501 79.205969 
L 184.152212 79.205969 
z
" style="fill:none;opacity:0;"/>
   </g>
   <g id="patch_52">
    <path clip-path="url(#p88c104cc69)" d="M 191.811831 121.516062 
L 190.011623 136.575599 
L 188.097772 121.516062 
L 191.811831 121.516062 
z
M 189.172214 141.64 
L 190.987919 141.64 
L 195.290855 107.548118 
L 193.529389 107.548118 
L 192.32839 117.758603 
L 187.638034 117.758603 
L 186.354385 107.548118 
L 184.709145 107.548118 
L 189.172214 141.64 
z
M 190.003874 141.64 
L 190.003874 141.64 
z
" style="fill:none;opacity:0;"/>
   </g>
   <g id="patch_53">
    <path clip-path="url(#p88c104cc69)" d="M 190.272858 82.470263 
Q 192.538883 82.470263 193.788835 82.114002 
Q 195.038786 81.758516 195.176515 81.306219 
L 193.601732 81.306219 
Q 193.334071 81.649314 192.533686 81.849904 
Q 191.733301 82.051269 190.28845 82.051269 
Q 188.526564 82.051269 187.442926 81.681842 
Q 186.359289 81.31319 186.359289 80.551101 
Q 186.359289 79.926096 187.336382 79.537307 
Q 188.316074 79.149293 190.257267 79.149293 
Q 192.04254 79.149293 192.978055 79.558218 
Q 193.471799 79.773524 193.716072 80.125137 
L 195.290855 80.125137 
Q 195.080365 79.563639 193.895379 79.18337 
Q 192.473917 78.725652 190.062368 78.725652 
Q 187.983446 78.725652 186.569779 79.101275 
Q 184.709145 79.596942 184.709145 80.633196 
Q 184.709145 81.419293 186.107219 81.922705 
Q 187.617036 82.470263 190.272858 82.470263 
z
M 189.948027 82.470263 
L 189.948027 82.470263 
z
" style="fill:none;opacity:0;"/>
   </g>
   <g id="patch_54">
    <path clip-path="url(#p88c104cc69)" d="M 190.166522 107.511834 
Q 191.798941 107.511834 192.989825 106.215954 
Q 194.715598 104.355072 195.101626 99.689906 
L 193.549945 99.689906 
Q 193.264839 102.297216 192.374199 103.489424 
Q 191.483559 104.681633 190.126153 104.681633 
Q 188.518964 104.681633 187.41891 102.198729 
Q 186.318856 99.721008 186.318856 94.812217 
Q 186.318856 90.5721 187.224635 87.907772 
Q 188.132936 85.243444 190.18166 85.243444 
Q 191.751003 85.243444 192.780411 87.109511 
Q 193.80982 88.98076 193.832527 93.163858 
L 190.206891 93.163858 
L 190.206891 95.83337 
L 195.290855 95.83337 
L 195.290855 83.102652 
L 194.281632 83.102652 
L 193.903173 86.16611 
Q 193.108409 84.36743 192.492783 83.667655 
Q 191.458328 82.470263 189.866278 82.470263 
Q 187.809984 82.470263 186.326426 85.20716 
Q 184.709145 88.643832 184.709145 94.635977 
Q 184.709145 100.612572 186.286057 104.142548 
Q 187.784754 107.511834 190.166522 107.511834 
z
M 189.906647 107.548118 
L 189.906647 107.548118 
z
" style="fill:none;opacity:0;"/>
   </g>
   <g id="patch_55">
    <path clip-path="url(#p88c104cc69)" d="M 202.950474 99.662095 
L 201.150266 117.016788 
L 199.236415 99.662095 
L 202.950474 99.662095 
z
M 200.310857 122.85303 
L 202.126562 122.85303 
L 206.429499 83.565361 
L 204.668032 83.565361 
L 203.467033 95.331979 
L 198.776677 95.331979 
L 197.493028 83.565361 
L 195.847788 83.565361 
L 200.310857 122.85303 
z
M 201.142517 122.85303 
L 201.142517 122.85303 
z
" style="fill:none;opacity:0;"/>
   </g>
   <g id="patch_56">
    <path clip-path="url(#p88c104cc69)" d="M 201.305165 80.729053 
Q 202.937584 80.729053 204.128468 80.625379 
Q 205.854241 80.476503 206.240269 80.103275 
L 204.688588 80.103275 
Q 204.403482 80.311868 203.512842 80.407248 
Q 202.622202 80.502628 201.264796 80.502628 
Q 199.657607 80.502628 198.557553 80.303989 
Q 197.457499 80.105764 197.457499 79.713046 
Q 197.457499 79.373823 198.363278 79.160669 
Q 199.271579 78.947515 201.320303 78.947515 
Q 202.889646 78.947515 203.919054 79.096806 
Q 204.948463 79.246511 204.97117 79.581172 
L 201.345534 79.581172 
L 201.345534 79.794741 
L 206.429499 79.794741 
L 206.429499 78.776245 
L 205.420275 78.776245 
L 205.041816 79.021331 
Q 204.247052 78.877431 203.631426 78.821447 
Q 202.596971 78.725652 201.004921 78.725652 
Q 198.948628 78.725652 197.465069 78.944612 
Q 195.847788 79.219556 195.847788 79.698946 
Q 195.847788 80.177091 197.4247 80.4595 
Q 198.923397 80.729053 201.305165 80.729053 
z
M 201.04529 80.731956 
L 201.04529 80.731956 
z
" style="fill:none;opacity:0;"/>
   </g>
   <g id="patch_57">
    <path clip-path="url(#p88c104cc69)" d="M 206.429499 83.565361 
L 206.429499 83.227772 
L 202.034893 83.227772 
L 202.034893 80.731956 
L 200.242393 80.731956 
L 200.242393 83.227772 
L 195.847788 83.227772 
L 195.847788 83.565361 
L 206.429499 83.565361 
z
" style="fill:none;opacity:0;"/>
   </g>
   <g id="patch_58">
    <path clip-path="url(#p88c104cc69)" d="M 212.550145 124.428421 
Q 214.816169 124.428421 216.066121 120.080278 
Q 217.316072 115.741587 217.453801 110.221335 
L 215.879018 110.221335 
Q 215.611357 114.408786 214.810972 116.85698 
Q 214.010587 119.314627 212.565737 119.314627 
Q 210.80385 119.314627 209.720213 114.805791 
Q 208.636575 110.306407 208.636575 101.005161 
Q 208.636575 93.377005 209.613668 88.631857 
Q 210.59336 83.896162 212.534553 83.896162 
Q 214.319827 83.896162 215.255341 88.887074 
Q 215.749085 91.514866 215.993358 95.806294 
L 217.568142 95.806294 
Q 217.357651 88.953242 216.172665 84.312071 
Q 214.751203 78.725652 212.339654 78.725652 
Q 210.260732 78.725652 208.847066 83.310108 
Q 206.986431 89.359699 206.986431 102.007125 
Q 206.986431 111.601398 208.384505 117.745514 
Q 209.894322 124.428421 212.550145 124.428421 
z
M 212.225313 124.428421 
L 212.225313 124.428421 
z
" style="fill:none;opacity:0;"/>
   </g>
   <g id="patch_59">
    <path clip-path="url(#p88c104cc69)" d="M 223.688788 95.146392 
Q 225.954812 95.146392 227.204764 93.584129 
Q 228.454715 92.025263 228.592444 90.041868 
L 227.017661 90.041868 
Q 226.75 91.546395 225.949615 92.426017 
Q 225.14923 93.309035 223.70438 93.309035 
Q 221.942494 93.309035 220.858856 91.689037 
Q 219.775218 90.072434 219.775218 86.730551 
Q 219.775218 83.989798 220.752311 82.284894 
Q 221.732003 80.583386 223.673196 80.583386 
Q 225.45847 80.583386 226.393984 82.376592 
Q 226.887728 83.320742 227.132002 84.862628 
L 228.706785 84.862628 
Q 228.496294 82.400366 227.311309 80.73282 
Q 225.889846 78.725652 223.478297 78.725652 
Q 221.399375 78.725652 219.985709 80.37282 
Q 218.125074 82.546403 218.125074 87.09055 
Q 218.125074 90.537717 219.523149 92.745262 
Q 221.032965 95.146392 223.688788 95.146392 
z
M 223.363956 95.146392 
L 223.363956 95.146392 
z
" style="fill:none;opacity:0;"/>
   </g>
   <g id="patch_60">
    <path clip-path="url(#p88c104cc69)" d="M 223.582451 117.959407 
Q 225.214871 117.959407 226.405755 116.778853 
Q 228.131527 115.083579 228.517555 110.833586 
L 226.965874 110.833586 
Q 226.680768 113.20886 225.790128 114.294969 
Q 224.899488 115.381078 223.542082 115.381078 
Q 221.934893 115.381078 220.834839 113.119138 
Q 219.734786 110.86192 219.734786 106.389983 
Q 219.734786 102.527212 220.640564 100.099994 
Q 221.548865 97.672777 223.597589 97.672777 
Q 225.166932 97.672777 226.196341 99.372774 
Q 227.225749 101.077493 227.248456 104.888319 
L 223.62282 104.888319 
L 223.62282 107.320259 
L 228.706785 107.320259 
L 228.706785 95.722502 
L 227.697561 95.722502 
L 227.319102 98.513331 
Q 226.524338 96.874722 225.908712 96.237224 
Q 224.874258 95.146392 223.282207 95.146392 
Q 221.225914 95.146392 219.742355 97.639721 
Q 218.125074 100.770549 218.125074 106.229428 
Q 218.125074 111.67414 219.701986 114.889968 
Q 221.200683 117.959407 223.582451 117.959407 
z
M 223.322576 117.992462 
L 223.322576 117.992462 
z
" style="fill:none;opacity:0;"/>
   </g>
   <g id="patch_61">
    <path clip-path="url(#p88c104cc69)" d="M 234.721094 101.537063 
Q 236.353514 101.537063 237.544398 100.356592 
Q 239.27017 98.661437 239.656198 94.411743 
L 238.104517 94.411743 
Q 237.819411 96.78685 236.928771 97.872883 
Q 236.038131 98.958915 234.680725 98.958915 
Q 233.073536 98.958915 231.973483 96.697134 
Q 230.873429 94.440075 230.873429 89.968453 
Q 230.873429 86.105953 231.779207 83.678906 
Q 232.687508 81.251859 234.736233 81.251859 
Q 236.305575 81.251859 237.334984 82.951736 
Q 238.364392 84.656336 238.387099 88.466894 
L 234.761463 88.466894 
L 234.761463 90.898663 
L 239.845428 90.898663 
L 239.845428 79.301722 
L 238.836204 79.301722 
L 238.457745 82.092354 
Q 237.662981 80.453861 237.047355 79.816407 
Q 236.012901 78.725652 234.42085 78.725652 
Q 232.364557 78.725652 230.880998 81.218806 
Q 229.263717 84.349413 229.263717 89.807909 
Q 229.263717 95.252238 230.840629 98.46784 
Q 232.339326 101.537063 234.721094 101.537063 
z
M 234.461219 101.570116 
L 234.461219 101.570116 
z
" style="fill:none;opacity:0;"/>
   </g>
   <g id="patch_62">
    <path clip-path="url(#p88c104cc69)" d="M 239.845428 134.363583 
L 239.845428 130.456367 
L 235.450822 130.456367 
L 235.450822 101.570116 
L 233.658323 101.570116 
L 233.658323 130.456367 
L 229.263717 130.456367 
L 229.263717 134.363583 
L 239.845428 134.363583 
z
" style="fill:none;opacity:0;"/>
   </g>
   <g id="patch_63">
    <path clip-path="url(#p88c104cc69)" d="M 247.505046 90.995832 
L 245.704838 104.224926 
L 243.790987 90.995832 
L 247.505046 90.995832 
z
M 244.86543 108.673764 
L 246.681134 108.673764 
L 250.984071 78.725652 
L 249.222605 78.725652 
L 248.021605 87.695082 
L 243.331249 87.695082 
L 242.0476 78.725652 
L 240.40236 78.725652 
L 244.86543 108.673764 
z
M 245.69709 108.673764 
L 245.69709 108.673764 
z
" style="fill:none;opacity:0;"/>
   </g>
   <g id="patch_64">
    <path clip-path="url(#p88c104cc69)" d="M 250.984071 139.708214 
L 250.984071 136.010579 
L 246.589465 136.010579 
L 246.589465 108.673764 
L 244.796966 108.673764 
L 244.796966 136.010579 
L 240.40236 136.010579 
L 240.40236 139.708214 
L 250.984071 139.708214 
z
" style="fill:none;opacity:0;"/>
   </g>
   <g id="patch_65">
    <path clip-path="url(#p88c104cc69)" d="M 256.99838 137.461395 
Q 258.6308 137.461395 259.821684 135.252891 
Q 261.547456 132.08148 261.933484 124.130868 
L 260.381803 124.130868 
Q 260.096697 128.574377 259.206057 130.6062 
Q 258.315417 132.638023 256.958011 132.638023 
Q 255.350823 132.638023 254.250769 128.406531 
Q 253.150715 124.183872 253.150715 115.818061 
Q 253.150715 108.591838 254.056493 104.051155 
Q 254.964794 99.510472 257.013519 99.510472 
Q 258.582862 99.510472 259.61227 102.690717 
Q 260.641678 105.879796 260.664386 113.008845 
L 257.038749 113.008845 
L 257.038749 117.558362 
L 262.122714 117.558362 
L 262.122714 95.862024 
L 261.11349 95.862024 
L 260.735031 101.082926 
Q 259.940268 98.017523 259.324641 96.824932 
Q 258.290187 94.784274 256.698136 94.784274 
Q 254.641843 94.784274 253.158284 99.448634 
Q 251.541003 105.305585 251.541003 115.517705 
Q 251.541003 125.703323 253.117915 131.719286 
Q 254.616612 137.461395 256.99838 137.461395 
z
M 256.738505 137.523233 
L 256.738505 137.523233 
z
" style="fill:none;opacity:0;"/>
   </g>
   <g id="patch_66">
    <path clip-path="url(#p88c104cc69)" d="M 262.122714 94.784274 
L 262.122714 92.870951 
L 257.728108 92.870951 
L 257.728108 78.725652 
L 255.935609 78.725652 
L 255.935609 92.870951 
L 251.541003 92.870951 
L 251.541003 94.784274 
L 262.122714 94.784274 
z
" style="fill:none;opacity:0;"/>
   </g>
   <g id="patch_67">
    <path clip-path="url(#p88c104cc69)" d="M 268.24336 84.776526 
Q 270.509384 84.776526 271.759336 84.200848 
Q 273.009288 83.626422 273.147016 82.895561 
L 271.572233 82.895561 
Q 271.304572 83.449964 270.504187 83.774096 
Q 269.703802 84.099479 268.258952 84.099479 
Q 266.497066 84.099479 265.413428 83.502526 
Q 264.32979 82.906825 264.32979 81.675375 
Q 264.32979 80.665436 265.306883 80.037196 
Q 266.286575 79.410208 268.227768 79.410208 
Q 270.013042 79.410208 270.948557 80.070986 
Q 271.442301 80.418896 271.686574 80.987064 
L 273.261357 80.987064 
Q 273.050866 80.079746 271.865881 79.465273 
Q 270.444418 78.725652 268.032869 78.725652 
Q 265.953948 78.725652 264.540281 79.332617 
Q 262.679646 80.13356 262.679646 81.808031 
Q 262.679646 83.078276 264.077721 83.891734 
Q 265.587538 84.776526 268.24336 84.776526 
z
M 267.918528 84.776526 
L 267.918528 84.776526 
z
" style="fill:none;opacity:0;"/>
   </g>
   <g id="patch_68">
    <path clip-path="url(#p88c104cc69)" d="M 268.137023 94.354462 
Q 269.769443 94.354462 270.960327 93.858812 
Q 272.686099 93.147059 273.072127 91.36272 
L 271.520446 91.36272 
Q 271.23534 92.359967 270.3447 92.815965 
Q 269.45406 93.271963 268.096654 93.271963 
Q 266.489466 93.271963 265.389412 92.322298 
Q 264.289358 91.374616 264.289358 89.497094 
Q 264.289358 87.875328 265.195136 86.856272 
Q 266.103438 85.837216 268.152162 85.837216 
Q 269.721505 85.837216 270.750913 86.550952 
Q 271.780321 87.26667 271.803029 88.866628 
L 268.177392 88.866628 
L 268.177392 89.887666 
L 273.261357 89.887666 
L 273.261357 85.018403 
L 272.252133 85.018403 
L 271.873674 86.190119 
Q 271.078911 85.502157 270.463284 85.234506 
Q 269.42883 84.776526 267.836779 84.776526 
Q 265.780486 84.776526 264.296927 85.823338 
Q 262.679646 87.137801 262.679646 89.429686 
Q 262.679646 91.715623 264.256558 93.065773 
Q 265.755255 94.354462 268.137023 94.354462 
z
M 267.877148 94.36834 
L 267.877148 94.36834 
z
" style="fill:none;opacity:0;"/>
   </g>
   <g id="patch_69">
    <path clip-path="url(#p88c104cc69)" d="M 280.920975 86.20077 
L 279.120767 90.719365 
L 277.206916 86.20077 
L 280.920975 86.20077 
z
M 278.281359 92.238932 
L 280.097064 92.238932 
L 284.4 82.009707 
L 282.638534 82.009707 
L 281.437534 85.07335 
L 276.747179 85.07335 
L 275.463529 82.009707 
L 273.818289 82.009707 
L 278.281359 92.238932 
z
M 279.113019 92.238932 
L 279.113019 92.238932 
z
" style="fill:none;opacity:0;"/>
   </g>
   <g id="patch_70">
    <path clip-path="url(#p88c104cc69)" d="M 279.382003 82.009707 
Q 281.648028 82.009707 282.897979 81.697263 
Q 284.147931 81.385498 284.285659 80.988831 
L 282.710876 80.988831 
Q 282.443215 81.289728 281.64283 81.465647 
Q 280.842445 81.642246 279.397595 81.642246 
Q 277.635709 81.642246 276.552071 81.318255 
Q 275.468433 80.994944 275.468433 80.326586 
Q 275.468433 79.778451 276.445526 79.43748 
Q 277.425218 79.097188 279.366411 79.097188 
Q 281.151685 79.097188 282.0872 79.455819 
Q 282.580944 79.644644 282.825217 79.953012 
L 284.4 79.953012 
Q 284.189509 79.460574 283.004524 79.127074 
Q 281.583061 78.725652 279.171512 78.725652 
Q 277.092591 78.725652 275.678924 79.055076 
Q 273.818289 79.489781 273.818289 80.398584 
Q 273.818289 81.087998 275.216364 81.529494 
Q 276.726181 82.009707 279.382003 82.009707 
z
M 279.057172 82.009707 
L 279.057172 82.009707 
z
" style="fill:none;opacity:0;"/>
   </g>
   <g id="matplotlib.axis_1">
    <g id="xtick_1">
     <g id="line2d_2">
      <path clip-path="url(#p88c104cc69)" d="M 100.890855 141.64 
L 100.890855 21.6 
" style="fill:none;stroke:#cccccc;stroke-linecap:round;stroke-width:0.8;"/>
     </g>
     <g id="text_1">
      <!-- 0 -->
      <g style="fill:#262626;" transform="translate(95.329918 162.986875)scale(0.2 -0.2)">
       <defs>
        <path d="M 1731 4475 
Q 2600 4475 2988 3759 
Q 3288 3206 3288 2244 
Q 3288 1331 3016 734 
Q 2622 -122 1728 -122 
Q 922 -122 528 578 
Q 200 1163 200 2147 
Q 200 2909 397 3456 
Q 766 4475 1731 4475 
z
M 1725 391 
Q 2163 391 2422 778 
Q 2681 1166 2681 2222 
Q 2681 2984 2493 3476 
Q 2306 3969 1766 3969 
Q 1269 3969 1039 3501 
Q 809 3034 809 2125 
Q 809 1441 956 1025 
Q 1181 391 1725 391 
z
" id="Helvetica-30" transform="scale(0.015625)"/>
       </defs>
       <use xlink:href="#Helvetica-30"/>
      </g>
     </g>
    </g>
    <g id="xtick_2">
     <g id="line2d_3">
      <path clip-path="url(#p88c104cc69)" d="M 212.277286 141.64 
L 212.277286 21.6 
" style="fill:none;stroke:#cccccc;stroke-linecap:round;stroke-width:0.8;"/>
     </g>
     <g id="text_2">
      <!-- 10 -->
      <g style="fill:#262626;" transform="translate(201.155411 162.986875)scale(0.2 -0.2)">
       <defs>
        <path d="M 613 3169 
L 613 3600 
Q 1222 3659 1462 3798 
Q 1703 3938 1822 4456 
L 2266 4456 
L 2266 0 
L 1666 0 
L 1666 3169 
L 613 3169 
z
" id="Helvetica-31" transform="scale(0.015625)"/>
       </defs>
       <use xlink:href="#Helvetica-31"/>
       <use x="55.615234" xlink:href="#Helvetica-30"/>
      </g>
     </g>
    </g>
    <g id="text_3">
     <!-- Position -->
     <g style="fill:#262626;" transform="translate(145.53125 189.089219)scale(0.25 -0.25)">
      <defs>
       <path d="M 547 4591 
L 2613 4591 
Q 3225 4591 3600 4245 
Q 3975 3900 3975 3275 
Q 3975 2738 3640 2339 
Q 3306 1941 2613 1941 
L 1169 1941 
L 1169 0 
L 547 0 
L 547 4591 
z
M 3347 3272 
Q 3347 3778 2972 3959 
Q 2766 4056 2406 4056 
L 1169 4056 
L 1169 2466 
L 2406 2466 
Q 2825 2466 3086 2644 
Q 3347 2822 3347 3272 
z
" id="Helvetica-50" transform="scale(0.015625)"/>
       <path d="M 1741 363 
Q 2300 363 2508 786 
Q 2716 1209 2716 1728 
Q 2716 2197 2566 2491 
Q 2328 2953 1747 2953 
Q 1231 2953 997 2559 
Q 763 2166 763 1609 
Q 763 1075 997 719 
Q 1231 363 1741 363 
z
M 1763 3444 
Q 2409 3444 2856 3012 
Q 3303 2581 3303 1744 
Q 3303 934 2909 406 
Q 2516 -122 1688 -122 
Q 997 -122 590 345 
Q 184 813 184 1600 
Q 184 2444 612 2944 
Q 1041 3444 1763 3444 
z
M 1744 3428 
L 1744 3428 
z
" id="Helvetica-6f" transform="scale(0.015625)"/>
       <path d="M 747 1050 
Q 772 769 888 619 
Q 1100 347 1625 347 
Q 1938 347 2175 483 
Q 2413 619 2413 903 
Q 2413 1119 2222 1231 
Q 2100 1300 1741 1391 
L 1294 1503 
Q 866 1609 663 1741 
Q 300 1969 300 2372 
Q 300 2847 642 3140 
Q 984 3434 1563 3434 
Q 2319 3434 2653 2991 
Q 2863 2709 2856 2384 
L 2325 2384 
Q 2309 2575 2191 2731 
Q 1997 2953 1519 2953 
Q 1200 2953 1036 2831 
Q 872 2709 872 2509 
Q 872 2291 1088 2159 
Q 1213 2081 1456 2022 
L 1828 1931 
Q 2434 1784 2641 1647 
Q 2969 1431 2969 969 
Q 2969 522 2630 197 
Q 2291 -128 1597 -128 
Q 850 -128 539 211 
Q 228 550 206 1050 
L 747 1050 
z
M 1578 3428 
L 1578 3428 
z
" id="Helvetica-73" transform="scale(0.015625)"/>
       <path d="M 413 3331 
L 984 3331 
L 984 0 
L 413 0 
L 413 3331 
z
M 413 4591 
L 984 4591 
L 984 3953 
L 413 3953 
L 413 4591 
z
" id="Helvetica-69" transform="scale(0.015625)"/>
       <path d="M 525 4281 
L 1094 4281 
L 1094 3347 
L 1628 3347 
L 1628 2888 
L 1094 2888 
L 1094 703 
Q 1094 528 1213 469 
Q 1278 434 1431 434 
Q 1472 434 1519 436 
Q 1566 438 1628 444 
L 1628 0 
Q 1531 -28 1426 -40 
Q 1322 -53 1200 -53 
Q 806 -53 665 148 
Q 525 350 525 672 
L 525 2888 
L 72 2888 
L 72 3347 
L 525 3347 
L 525 4281 
z
" id="Helvetica-74" transform="scale(0.015625)"/>
       <path d="M 413 3347 
L 947 3347 
L 947 2872 
Q 1184 3166 1450 3294 
Q 1716 3422 2041 3422 
Q 2753 3422 3003 2925 
Q 3141 2653 3141 2147 
L 3141 0 
L 2569 0 
L 2569 2109 
Q 2569 2416 2478 2603 
Q 2328 2916 1934 2916 
Q 1734 2916 1606 2875 
Q 1375 2806 1200 2600 
Q 1059 2434 1017 2257 
Q 975 2081 975 1753 
L 975 0 
L 413 0 
L 413 3347 
z
M 1734 3428 
L 1734 3428 
z
" id="Helvetica-6e" transform="scale(0.015625)"/>
      </defs>
      <use xlink:href="#Helvetica-50"/>
      <use x="66.699219" xlink:href="#Helvetica-6f"/>
      <use x="122.314453" xlink:href="#Helvetica-73"/>
      <use x="172.314453" xlink:href="#Helvetica-69"/>
      <use x="194.53125" xlink:href="#Helvetica-74"/>
      <use x="222.314453" xlink:href="#Helvetica-69"/>
      <use x="244.53125" xlink:href="#Helvetica-6f"/>
      <use x="300.146484" xlink:href="#Helvetica-6e"/>
     </g>
    </g>
   </g>
   <g id="matplotlib.axis_2">
    <g id="ytick_1">
     <g id="line2d_4">
      <path clip-path="url(#p88c104cc69)" d="M 95.6 140.650403 
L 284.4 140.650403 
" style="fill:none;stroke:#cccccc;stroke-linecap:round;stroke-width:0.8;"/>
     </g>
     <g id="text_4">
      <!-- 0.2 -->
      <g style="fill:#262626;" transform="translate(49.11875 147.823841)scale(0.2 -0.2)">
       <defs>
        <path d="M 3547 1894 
L 3547 1369 
L 288 1369 
L 288 1894 
L 3547 1894 
z
" id="Helvetica-2212" transform="scale(0.015625)"/>
        <path d="M 547 681 
L 1200 681 
L 1200 0 
L 547 0 
L 547 681 
z
" id="Helvetica-2e" transform="scale(0.015625)"/>
        <path d="M 200 0 
Q 231 578 439 1006 
Q 647 1434 1250 1784 
L 1850 2131 
Q 2253 2366 2416 2531 
Q 2672 2791 2672 3125 
Q 2672 3516 2437 3745 
Q 2203 3975 1813 3975 
Q 1234 3975 1013 3538 
Q 894 3303 881 2888 
L 309 2888 
Q 319 3472 525 3841 
Q 891 4491 1816 4491 
Q 2584 4491 2939 4075 
Q 3294 3659 3294 3150 
Q 3294 2613 2916 2231 
Q 2697 2009 2131 1694 
L 1703 1456 
Q 1397 1288 1222 1134 
Q 909 863 828 531 
L 3272 531 
L 3272 0 
L 200 0 
z
" id="Helvetica-32" transform="scale(0.015625)"/>
       </defs>
       <use xlink:href="#Helvetica-2212"/>
       <use x="58.398438" xlink:href="#Helvetica-30"/>
       <use x="114.013672" xlink:href="#Helvetica-2e"/>
       <use x="141.796875" xlink:href="#Helvetica-32"/>
      </g>
     </g>
    </g>
    <g id="ytick_2">
     <g id="line2d_5">
      <path clip-path="url(#p88c104cc69)" d="M 95.6 78.725652 
L 284.4 78.725652 
" style="fill:none;stroke:#cccccc;stroke-linecap:round;stroke-width:0.8;"/>
     </g>
     <g id="text_5">
      <!-- 0.0 -->
      <g style="fill:#262626;" transform="translate(60.8 85.89909)scale(0.2 -0.2)">
       <use xlink:href="#Helvetica-30"/>
       <use x="55.615234" xlink:href="#Helvetica-2e"/>
       <use x="83.398438" xlink:href="#Helvetica-30"/>
      </g>
     </g>
    </g>
    <g id="text_6">
     <!-- Weight -->
     <g style="fill:#262626;" transform="translate(39.5875 120.522344)rotate(-90)scale(0.25 -0.25)">
      <defs>
       <path d="M 791 4591 
L 1656 856 
L 2694 4591 
L 3369 4591 
L 4406 856 
L 5272 4591 
L 5953 4591 
L 4747 0 
L 4094 0 
L 3034 3806 
L 1969 0 
L 1316 0 
L 116 4591 
L 791 4591 
z
" id="Helvetica-57" transform="scale(0.015625)"/>
       <path d="M 1806 3422 
Q 2163 3422 2497 3255 
Q 2831 3088 3006 2822 
Q 3175 2569 3231 2231 
Q 3281 2000 3281 1494 
L 828 1494 
Q 844 984 1069 676 
Q 1294 369 1766 369 
Q 2206 369 2469 659 
Q 2619 828 2681 1050 
L 3234 1050 
Q 3213 866 3089 639 
Q 2966 413 2813 269 
Q 2556 19 2178 -69 
Q 1975 -119 1719 -119 
Q 1094 -119 659 336 
Q 225 791 225 1609 
Q 225 2416 662 2919 
Q 1100 3422 1806 3422 
z
M 2703 1941 
Q 2669 2306 2544 2525 
Q 2313 2931 1772 2931 
Q 1384 2931 1121 2651 
Q 859 2372 844 1941 
L 2703 1941 
z
M 1753 3428 
L 1753 3428 
z
" id="Helvetica-65" transform="scale(0.015625)"/>
       <path d="M 1594 3406 
Q 1988 3406 2281 3213 
Q 2441 3103 2606 2894 
L 2606 3316 
L 3125 3316 
L 3125 272 
Q 3125 -366 2938 -734 
Q 2588 -1416 1616 -1416 
Q 1075 -1416 706 -1173 
Q 338 -931 294 -416 
L 866 -416 
Q 906 -641 1028 -763 
Q 1219 -950 1628 -950 
Q 2275 -950 2475 -494 
Q 2594 -225 2584 466 
Q 2416 209 2178 84 
Q 1941 -41 1550 -41 
Q 1006 -41 598 345 
Q 191 731 191 1622 
Q 191 2463 602 2934 
Q 1013 3406 1594 3406 
z
M 2606 1688 
Q 2606 2309 2350 2609 
Q 2094 2909 1697 2909 
Q 1103 2909 884 2353 
Q 769 2056 769 1575 
Q 769 1009 998 714 
Q 1228 419 1616 419 
Q 2222 419 2469 966 
Q 2606 1275 2606 1688 
z
M 1659 3428 
L 1659 3428 
z
" id="Helvetica-67" transform="scale(0.015625)"/>
       <path d="M 413 4606 
L 975 4606 
L 975 2894 
Q 1175 3147 1334 3250 
Q 1606 3428 2013 3428 
Q 2741 3428 3000 2919 
Q 3141 2641 3141 2147 
L 3141 0 
L 2563 0 
L 2563 2109 
Q 2563 2478 2469 2650 
Q 2316 2925 1894 2925 
Q 1544 2925 1259 2684 
Q 975 2444 975 1775 
L 975 0 
L 413 0 
L 413 4606 
z
" id="Helvetica-68" transform="scale(0.015625)"/>
      </defs>
      <use xlink:href="#Helvetica-57"/>
      <use x="94.384766" xlink:href="#Helvetica-65"/>
      <use x="150" xlink:href="#Helvetica-69"/>
      <use x="172.216797" xlink:href="#Helvetica-67"/>
      <use x="227.832031" xlink:href="#Helvetica-68"/>
      <use x="283.447266" xlink:href="#Helvetica-74"/>
     </g>
    </g>
   </g>
   <g id="patch_71">
    <path d="M 95.6 141.64 
L 95.6 21.6 
" style="fill:none;stroke:#000000;stroke-linecap:square;stroke-linejoin:miter;"/>
   </g>
  </g>
 </g>
 <defs>
  <clipPath id="p88c104cc69">
   <rect height="120.04" width="188.8" x="95.6" y="21.6"/>
  </clipPath>
 </defs>
</svg>
