<?xml version="1.0" encoding="utf-8" standalone="no"?>
<!DOCTYPE svg PUBLIC "-//W3C//DTD SVG 1.1//EN"
  "http://www.w3.org/Graphics/SVG/1.1/DTD/svg11.dtd">
<svg height="216pt" version="1.1" viewBox="0 0 306 216" width="306pt" xmlns="http://www.w3.org/2000/svg" xmlns:xlink="http://www.w3.org/1999/xlink">
 <metadata>
  <rdf:RDF xmlns:cc="http://creativecommons.org/ns#" xmlns:dc="http://purl.org/dc/elements/1.1/" xmlns:rdf="http://www.w3.org/1999/02/22-rdf-syntax-ns#">
   <cc:Work>
    <dc:type rdf:resource="http://purl.org/dc/dcmitype/StillImage"/>
    <dc:date>2022-03-08T17:55:01.242526</dc:date>
    <dc:format>image/svg+xml</dc:format>
    <dc:creator>
     <cc:Agent>
      <dc:title>Matplotlib v3.4.2, https://matplotlib.org/</dc:title>
     </cc:Agent>
    </dc:creator>
   </cc:Work>
  </rdf:RDF>
 </metadata>
 <defs>
  <style type="text/css">*{stroke-linecap:butt;stroke-linejoin:round;}</style>
 </defs>
 <g id="figure_1">
  <g id="patch_1">
   <path d="M 0 216 
L 306 216 
L 306 0 
L 0 0 
z
" style="fill:#ffffff;"/>
  </g>
  <g id="axes_1">
   <g id="patch_2">
    <path d="M 94.94 141.64 
L 284.4 141.64 
L 284.4 28.8 
L 94.94 28.8 
z
" style="fill:#ffffff;"/>
   </g>
   <g id="line2d_1">
    <path clip-path="url(#p1c125c0f72)" d="M 94.94 141.64 
L 284.4 141.64 
" style="fill:none;stroke:#000000;stroke-linecap:round;stroke-width:0.5;"/>
   </g>
   <g id="patch_3">
    <path clip-path="url(#p1c125c0f72)" d="M 105.558702 131.803464 
L 105.558702 132.975449 
L 101.148734 132.975449 
L 101.148734 141.64 
L 99.349968 141.64 
L 99.349968 132.975449 
L 94.94 132.975449 
L 94.94 131.803464 
L 105.558702 131.803464 
z
" style="fill:#ff0000;"/>
   </g>
   <g id="patch_4">
    <path clip-path="url(#p1c125c0f72)" d="M 100.523163 108.760202 
Q 102.797109 108.760202 104.051431 110.952528 
Q 105.305752 113.140089 105.443962 115.923391 
L 103.863673 115.923391 
Q 103.595077 113.812085 102.791894 112.57771 
Q 101.988711 111.338569 100.53881 111.338569 
Q 98.770765 111.338569 97.683339 113.611916 
Q 96.595913 115.880498 96.595913 120.570171 
Q 96.595913 124.416275 97.576421 126.808771 
Q 98.559538 129.196501 100.507517 129.196501 
Q 102.299032 129.196501 103.237817 126.680091 
Q 103.733287 125.355163 103.978414 123.191432 
L 105.558702 123.191432 
Q 105.347475 126.64673 104.158348 128.9868 
Q 102.731916 131.803464 100.311937 131.803464 
Q 98.225748 131.803464 96.807139 129.491989 
Q 94.94 126.441795 94.94 120.064983 
Q 94.94 115.227566 96.342962 112.129713 
Q 97.858057 108.760202 100.523163 108.760202 
z
M 100.197196 108.760202 
L 100.197196 108.760202 
z
" style="fill:#0000ff;"/>
   </g>
   <g id="patch_5">
    <path clip-path="url(#p1c125c0f72)" d="M 100.416455 82.638182 
Q 102.054581 82.638182 103.249628 83.989974 
Q 104.981434 85.931146 105.368811 90.797596 
L 103.811705 90.797596 
Q 103.525603 88.077791 102.63185 86.834143 
Q 101.738096 85.590495 100.375945 85.590495 
Q 98.763138 85.590495 97.659238 88.180527 
Q 96.555339 90.765153 96.555339 95.885739 
Q 96.555339 100.308801 97.464284 103.088084 
Q 98.37576 105.867368 100.431646 105.867368 
Q 102.006475 105.867368 103.039482 103.920788 
Q 104.072489 101.968801 104.095276 97.605218 
L 100.456965 97.605218 
L 100.456965 94.820527 
L 105.558702 94.820527 
L 105.558702 108.100527 
L 104.54595 108.100527 
L 104.166168 104.904892 
Q 103.368626 106.781179 102.750848 107.511146 
Q 101.712777 108.760202 100.115161 108.760202 
Q 98.05168 108.760202 96.562935 105.905218 
Q 94.94 102.320267 94.94 96.069583 
Q 94.94 89.83512 96.522425 86.15284 
Q 98.026361 82.638182 100.416455 82.638182 
z
M 100.155671 82.600332 
L 100.155671 82.600332 
z
" style="fill:#ffa600;"/>
   </g>
   <g id="patch_6">
    <path clip-path="url(#p1c125c0f72)" d="M 102.067515 60.557547 
L 100.261014 36.792121 
L 98.340473 60.557547 
L 102.067515 60.557547 
z
M 99.418672 28.8 
L 101.240724 28.8 
L 105.558702 82.600332 
L 103.791078 82.600332 
L 102.58588 66.487185 
L 97.879128 66.487185 
L 96.590992 82.600332 
L 94.94 82.600332 
L 99.418672 28.8 
z
M 100.253239 28.8 
L 100.253239 28.8 
z
" style="fill:#008000;"/>
   </g>
   <g id="patch_7">
    <path clip-path="url(#p1c125c0f72)" d="M 111.700744 120.756277 
Q 113.97469 120.756277 115.229012 122.743146 
Q 116.483333 124.725696 116.621543 127.248156 
L 115.041255 127.248156 
Q 114.772658 125.334715 113.969475 124.216021 
Q 113.166292 123.093008 111.716391 123.093008 
Q 109.948346 123.093008 108.86092 125.153305 
Q 107.773494 127.209282 107.773494 131.459455 
Q 107.773494 134.945115 108.754002 137.113394 
Q 109.737119 139.277353 111.685098 139.277353 
Q 113.476613 139.277353 114.415398 136.996773 
Q 114.910868 135.796013 115.155995 133.835059 
L 116.736283 133.835059 
Q 116.525057 136.966538 115.335929 139.087305 
Q 113.909497 141.64 111.489518 141.64 
Q 109.403329 141.64 107.98472 139.545149 
Q 106.117581 136.780809 106.117581 131.001611 
Q 106.117581 126.617541 107.520543 123.810008 
Q 109.035638 120.756277 111.700744 120.756277 
z
M 111.374777 120.756277 
L 111.374777 120.756277 
z
" style="fill:#0000ff;"/>
   </g>
   <g id="patch_8">
    <path clip-path="url(#p1c125c0f72)" d="M 111.594036 95.659371 
Q 113.232162 95.659371 114.427209 96.958114 
Q 116.159015 98.823109 116.546392 103.498583 
L 114.989286 103.498583 
Q 114.703184 100.885512 113.809431 99.690669 
Q 112.915677 98.495825 111.553526 98.495825 
Q 109.940719 98.495825 108.83682 100.984217 
Q 107.73292 103.467413 107.73292 108.38705 
Q 107.73292 112.636537 108.641865 115.306752 
Q 109.553341 117.976967 111.609227 117.976967 
Q 113.184056 117.976967 114.217063 116.106778 
Q 115.25007 114.231393 115.272857 110.039051 
L 111.634546 110.039051 
L 111.634546 107.363641 
L 116.736283 107.363641 
L 116.736283 120.12249 
L 115.723531 120.12249 
L 115.34375 117.052262 
Q 114.546208 118.854917 113.928429 119.556238 
Q 112.890358 120.756277 111.292743 120.756277 
Q 109.229261 120.756277 107.740516 118.013332 
Q 106.117581 114.569066 106.117581 108.563679 
Q 106.117581 102.573878 107.700006 99.036102 
Q 109.203942 95.659371 111.594036 95.659371 
z
M 111.333253 95.623006 
L 111.333253 95.623006 
z
" style="fill:#ffa600;"/>
   </g>
   <g id="patch_9">
    <path clip-path="url(#p1c125c0f72)" d="M 116.736283 67.57763 
L 116.736283 70.919129 
L 112.326315 70.919129 
L 112.326315 95.623006 
L 110.527549 95.623006 
L 110.527549 70.919129 
L 106.117581 70.919129 
L 106.117581 67.57763 
L 116.736283 67.57763 
z
" style="fill:#ff0000;"/>
   </g>
   <g id="patch_10">
    <path clip-path="url(#p1c125c0f72)" d="M 113.245097 51.689867 
L 111.438595 34.560476 
L 109.518054 51.689867 
L 113.245097 51.689867 
z
M 110.596253 28.8 
L 112.418305 28.8 
L 116.736283 67.57763 
L 114.968659 67.57763 
L 113.763461 55.963768 
L 109.056709 55.963768 
L 107.768573 67.57763 
L 106.117581 67.57763 
L 110.596253 28.8 
z
M 111.43082 28.8 
L 111.43082 28.8 
z
" style="fill:#008000;"/>
   </g>
   <g id="patch_11">
    <path clip-path="url(#p1c125c0f72)" d="M 122.878326 120.756277 
Q 125.152272 120.756277 126.406593 122.743146 
Q 127.660914 124.725696 127.799124 127.248156 
L 126.218836 127.248156 
Q 125.950239 125.334715 125.147056 124.216021 
Q 124.343873 123.093008 122.893972 123.093008 
Q 121.125927 123.093008 120.038501 125.153305 
Q 118.951075 127.209282 118.951075 131.459455 
Q 118.951075 134.945115 119.931584 137.113394 
Q 120.9147 139.277353 122.862679 139.277353 
Q 124.654194 139.277353 125.592979 136.996773 
Q 126.088449 135.796013 126.333576 133.835059 
L 127.913864 133.835059 
Q 127.702638 136.966538 126.51351 139.087305 
Q 125.087078 141.64 122.667099 141.64 
Q 120.58091 141.64 119.162301 139.545149 
Q 117.295162 136.780809 117.295162 131.001611 
Q 117.295162 126.617541 118.698124 123.810008 
Q 120.213219 120.756277 122.878326 120.756277 
z
M 122.552359 120.756277 
L 122.552359 120.756277 
z
" style="fill:#0000ff;"/>
   </g>
   <g id="patch_12">
    <path clip-path="url(#p1c125c0f72)" d="M 127.913864 94.383725 
L 127.913864 97.525914 
L 123.503896 97.525914 
L 123.503896 120.756277 
L 121.705131 120.756277 
L 121.705131 97.525914 
L 117.295162 97.525914 
L 117.295162 94.383725 
L 127.913864 94.383725 
z
" style="fill:#ff0000;"/>
   </g>
   <g id="patch_13">
    <path clip-path="url(#p1c125c0f72)" d="M 122.771617 67.983986 
Q 124.409743 67.983986 125.60479 69.350149 
Q 127.336596 71.31196 127.723973 76.230148 
L 126.166868 76.230148 
Q 125.880765 73.481427 124.987012 72.224557 
Q 124.093258 70.967687 122.731107 70.967687 
Q 121.1183 70.967687 120.014401 73.585255 
Q 118.910501 76.19736 118.910501 81.372386 
Q 118.910501 85.842473 119.819446 88.651304 
Q 120.730923 91.460136 122.786809 91.460136 
Q 124.361638 91.460136 125.394644 89.492861 
Q 126.427651 87.520121 126.450438 83.110146 
L 122.812127 83.110146 
L 122.812127 80.29585 
L 127.913864 80.29585 
L 127.913864 93.717038 
L 126.901113 93.717038 
L 126.521331 90.487428 
Q 125.723789 92.383662 125.10601 93.121391 
Q 124.06794 94.383725 122.470324 94.383725 
Q 120.406842 94.383725 118.918097 91.498389 
Q 117.295162 87.875323 117.295162 81.558184 
Q 117.295162 75.257439 118.877587 71.536011 
Q 120.381523 67.983986 122.771617 67.983986 
z
M 122.510834 67.945733 
L 122.510834 67.945733 
z
" style="fill:#ffa600;"/>
   </g>
   <g id="patch_14">
    <path clip-path="url(#p1c125c0f72)" d="M 124.422678 51.907153 
L 122.616176 34.615158 
L 120.695635 51.907153 
L 124.422678 51.907153 
z
M 121.773834 28.8 
L 123.595886 28.8 
L 127.913864 67.945733 
L 126.14624 67.945733 
L 124.941042 56.221625 
L 120.23429 56.221625 
L 118.946154 67.945733 
L 117.295162 67.945733 
L 121.773834 28.8 
z
M 122.608401 28.8 
L 122.608401 28.8 
z
" style="fill:#008000;"/>
   </g>
   <g id="patch_15">
    <path clip-path="url(#p1c125c0f72)" d="M 134.055907 140.102147 
Q 136.329853 140.102147 137.584174 140.248457 
Q 138.838495 140.39445 138.976705 140.580201 
L 137.396417 140.580201 
Q 137.12782 140.439297 136.324637 140.356918 
Q 135.521454 140.274221 134.071553 140.274221 
Q 132.303508 140.274221 131.216082 140.425939 
Q 130.128656 140.577338 130.128656 140.890316 
Q 130.128656 141.146996 131.109165 141.306666 
Q 132.092281 141.466017 134.04026 141.466017 
Q 135.831775 141.466017 136.77056 141.298078 
Q 137.26603 141.209655 137.511157 141.065253 
L 139.091445 141.065253 
Q 138.880219 141.295852 137.691091 141.452022 
Q 136.264659 141.64 133.84468 141.64 
Q 131.758491 141.64 130.339883 141.485738 
Q 128.472743 141.282175 128.472743 140.856601 
Q 128.472743 140.533763 129.875705 140.32702 
Q 131.3908 140.102147 134.055907 140.102147 
z
M 133.72994 140.102147 
L 133.72994 140.102147 
z
" style="fill:#0000ff;"/>
   </g>
   <g id="patch_16">
    <path clip-path="url(#p1c125c0f72)" d="M 139.091445 131.42718 
L 139.091445 132.460769 
L 134.681477 132.460769 
L 134.681477 140.102147 
L 132.882712 140.102147 
L 132.882712 132.460769 
L 128.472743 132.460769 
L 128.472743 131.42718 
L 139.091445 131.42718 
z
" style="fill:#ff0000;"/>
   </g>
   <g id="patch_17">
    <path clip-path="url(#p1c125c0f72)" d="M 133.949198 88.143697 
Q 135.587324 88.143697 136.782371 90.383579 
Q 138.514177 93.60005 138.901554 101.663626 
L 137.344449 101.663626 
Q 137.058346 97.156983 136.164593 95.096291 
Q 135.270839 93.0356 133.908688 93.0356 
Q 132.295881 93.0356 131.191982 97.327214 
Q 130.088082 101.609869 130.088082 110.094542 
Q 130.088082 117.423437 130.997027 122.028635 
Q 131.908504 126.633832 133.96439 126.633832 
Q 135.539219 126.633832 136.572225 123.408402 
Q 137.605232 120.174012 137.628019 112.943672 
L 133.989709 112.943672 
L 133.989709 108.329515 
L 139.091445 108.329515 
L 139.091445 130.334118 
L 138.078694 130.334118 
L 137.698912 125.039036 
Q 136.90137 128.147993 136.283591 129.357529 
Q 135.245521 131.42718 133.647905 131.42718 
Q 131.584423 131.42718 130.095678 126.696549 
Q 128.472743 120.756382 128.472743 110.399166 
Q 128.472743 100.06883 130.055168 93.967391 
Q 131.559104 88.143697 133.949198 88.143697 
z
M 133.688415 88.08098 
L 133.688415 88.08098 
z
" style="fill:#ffa600;"/>
   </g>
   <g id="patch_18">
    <path clip-path="url(#p1c125c0f72)" d="M 135.600259 63.792694 
L 133.793758 37.606279 
L 131.873216 63.792694 
L 135.600259 63.792694 
z
M 132.951415 28.8 
L 134.773467 28.8 
L 139.091445 88.08098 
L 137.323822 88.08098 
L 136.118624 70.326385 
L 131.411872 70.326385 
L 130.123735 88.08098 
L 128.472743 88.08098 
L 132.951415 28.8 
z
M 133.785982 28.8 
L 133.785982 28.8 
z
" style="fill:#008000;"/>
   </g>
   <g id="patch_19">
    <path clip-path="url(#p1c125c0f72)" d="M 150.269027 139.828114 
L 150.269027 140.043993 
L 145.859058 140.043993 
L 145.859058 141.64 
L 144.060293 141.64 
L 144.060293 140.043993 
L 139.650324 140.043993 
L 139.650324 139.828114 
L 150.269027 139.828114 
z
" style="fill:#ff0000;"/>
   </g>
   <g id="patch_20">
    <path clip-path="url(#p1c125c0f72)" d="M 145.233488 133.292237 
Q 147.507434 133.292237 148.761755 133.914058 
Q 150.016076 134.534527 150.154286 135.323969 
L 148.573998 135.323969 
Q 148.305401 134.725128 147.502218 134.375016 
Q 146.699036 134.023552 145.249134 134.023552 
Q 143.481089 134.023552 142.393663 134.668353 
Q 141.306237 135.311803 141.306237 136.641958 
Q 141.306237 137.732848 142.286746 138.411444 
Q 143.269862 139.088688 145.217841 139.088688 
Q 147.009356 139.088688 147.948141 138.374946 
Q 148.443611 137.99915 148.688738 137.38544 
L 150.269027 137.38544 
Q 150.0578 138.365483 148.868672 139.02921 
Q 147.44224 139.828114 145.022261 139.828114 
Q 142.936072 139.828114 141.517464 139.172499 
Q 139.650324 138.307357 139.650324 136.498669 
Q 139.650324 135.126608 141.053287 134.247948 
Q 142.568381 133.292237 145.233488 133.292237 
z
M 144.907521 133.292237 
L 144.907521 133.292237 
z
" style="fill:#0000ff;"/>
   </g>
   <g id="patch_21">
    <path clip-path="url(#p1c125c0f72)" d="M 146.77784 127.264572 
L 144.971339 120.765847 
L 143.050797 127.264572 
L 146.77784 127.264572 
z
M 144.128996 118.580378 
L 145.951048 118.580378 
L 150.269027 133.292237 
L 148.501403 133.292237 
L 147.296205 128.886049 
L 142.589453 128.886049 
L 141.301316 133.292237 
L 139.650324 133.292237 
L 144.128996 118.580378 
z
M 144.963563 118.580378 
L 144.963563 118.580378 
z
" style="fill:#008000;"/>
   </g>
   <g id="patch_22">
    <path clip-path="url(#p1c125c0f72)" d="M 145.12678 28.929901 
Q 146.764906 28.929901 147.959953 33.569235 
Q 149.691758 40.231317 150.079136 56.932917 
L 148.52203 56.932917 
Q 148.235927 47.598578 147.342174 43.330392 
Q 146.448421 39.062205 145.086269 39.062205 
Q 143.473462 39.062205 142.369563 47.951168 
Q 141.265664 56.821573 141.265664 74.395368 
Q 141.265664 89.575266 142.174608 99.113735 
Q 143.086085 108.652204 145.141971 108.652204 
Q 146.7168 108.652204 147.749807 101.971565 
Q 148.782813 95.272367 148.8056 80.296599 
L 145.16729 80.296599 
L 145.16729 70.739573 
L 150.269027 70.739573 
L 150.269027 116.316383 
L 149.256275 116.316383 
L 148.876493 105.348999 
Q 148.078951 111.788394 147.461172 114.293634 
Q 146.423102 118.580378 144.825486 118.580378 
Q 142.762004 118.580378 141.273259 108.782106 
Q 139.650324 96.478594 139.650324 75.026317 
Q 139.650324 53.629712 141.232749 40.992168 
Q 142.736685 28.929901 145.12678 28.929901 
z
M 144.865996 28.8 
L 144.865996 28.8 
z
" style="fill:#ffa600;"/>
   </g>
   <g id="patch_23">
    <path clip-path="url(#p1c125c0f72)" d="M 156.411069 130.797315 
Q 158.685015 130.797315 159.939336 131.828884 
Q 161.193657 132.85821 161.331867 134.167854 
L 159.751579 134.167854 
Q 159.482982 133.174408 158.679799 132.59359 
Q 157.876617 132.010529 156.426715 132.010529 
Q 154.65867 132.010529 153.571244 133.080221 
Q 152.483818 134.147671 152.483818 136.354331 
Q 152.483818 138.164062 153.464327 139.289817 
Q 154.447444 140.41333 156.395423 140.41333 
Q 158.186937 140.41333 159.125722 139.229269 
Q 159.621192 138.605842 159.866319 137.587729 
L 161.446608 137.587729 
Q 161.235381 139.213571 160.046253 140.314658 
Q 158.619822 141.64 156.199842 141.64 
Q 154.113653 141.64 152.695045 140.552368 
Q 150.827906 139.117142 150.827906 136.116622 
Q 150.827906 133.840443 152.230868 132.382791 
Q 153.745962 130.797315 156.411069 130.797315 
z
M 156.085102 130.797315 
L 156.085102 130.797315 
z
" style="fill:#0000ff;"/>
   </g>
   <g id="patch_24">
    <path clip-path="url(#p1c125c0f72)" d="M 161.446608 118.363606 
L 161.446608 119.845034 
L 157.036639 119.845034 
L 157.036639 130.797315 
L 155.237874 130.797315 
L 155.237874 119.845034 
L 150.827906 119.845034 
L 150.827906 118.363606 
L 161.446608 118.363606 
z
" style="fill:#ff0000;"/>
   </g>
   <g id="patch_25">
    <path clip-path="url(#p1c125c0f72)" d="M 156.304361 74.830991 
Q 157.942487 74.830991 159.137534 77.083766 
Q 160.869339 80.31875 161.256717 88.428738 
L 159.699611 88.428738 
Q 159.413509 83.896156 158.519755 81.823603 
Q 157.626002 79.751051 156.263851 79.751051 
Q 154.651043 79.751051 153.547144 84.067367 
Q 152.443245 88.374671 152.443245 96.908181 
Q 152.443245 104.279259 153.352189 108.910964 
Q 154.263666 113.542668 156.319552 113.542668 
Q 157.894381 113.542668 158.927388 110.298673 
Q 159.960394 107.045667 159.983181 99.77371 
L 156.344871 99.77371 
L 156.344871 95.132995 
L 161.446608 95.132995 
L 161.446608 117.264252 
L 160.433856 117.264252 
L 160.054074 111.938693 
Q 159.256532 115.065544 158.638753 116.282042 
Q 157.600683 118.363606 156.003067 118.363606 
Q 153.939585 118.363606 152.45084 113.605746 
Q 150.827906 107.631388 150.827906 97.214559 
Q 150.827906 86.824763 152.41033 80.688205 
Q 153.914267 74.830991 156.304361 74.830991 
z
M 156.043577 74.767913 
L 156.043577 74.767913 
z
" style="fill:#ffa600;"/>
   </g>
   <g id="patch_26">
    <path clip-path="url(#p1c125c0f72)" d="M 157.955421 55.934185 
L 156.14892 35.628603 
L 154.228378 55.934185 
L 157.955421 55.934185 
z
M 155.306577 28.8 
L 157.128629 28.8 
L 161.446608 74.767913 
L 159.678984 74.767913 
L 158.473786 61.000568 
L 153.767034 61.000568 
L 152.478897 74.767913 
L 150.827906 74.767913 
L 155.306577 28.8 
z
M 156.141144 28.8 
L 156.141144 28.8 
z
" style="fill:#008000;"/>
   </g>
   <g id="patch_27">
    <path clip-path="url(#p1c125c0f72)" d="M 167.58865 140.760642 
Q 169.862596 140.760642 171.116917 140.844304 
Q 172.371238 140.927784 172.509448 141.033998 
L 170.92916 141.033998 
Q 170.660563 140.953428 169.857381 140.906323 
Q 169.054198 140.859036 167.604296 140.859036 
Q 165.836251 140.859036 164.748825 140.945789 
Q 163.661399 141.032361 163.661399 141.211324 
Q 163.661399 141.358096 164.641908 141.449397 
Q 165.625025 141.540515 167.573004 141.540515 
Q 169.364518 141.540515 170.303304 141.444486 
Q 170.798773 141.393925 171.043901 141.311355 
L 172.624189 141.311355 
Q 172.412962 141.443213 171.223834 141.532513 
Q 169.797403 141.64 167.377423 141.64 
Q 165.291234 141.64 163.872626 141.551791 
Q 162.005487 141.435392 162.005487 141.192046 
Q 162.005487 141.007444 163.408449 140.889227 
Q 164.923544 140.760642 167.58865 140.760642 
z
M 167.262683 140.760642 
L 167.262683 140.760642 
z
" style="fill:#0000ff;"/>
   </g>
   <g id="patch_28">
    <path clip-path="url(#p1c125c0f72)" d="M 172.624189 139.32913 
L 172.624189 139.499689 
L 168.21422 139.499689 
L 168.21422 140.760642 
L 166.415455 140.760642 
L 166.415455 139.499689 
L 162.005487 139.499689 
L 162.005487 139.32913 
L 172.624189 139.32913 
z
" style="fill:#ff0000;"/>
   </g>
   <g id="patch_29">
    <path clip-path="url(#p1c125c0f72)" d="M 169.133002 128.542342 
L 167.326501 116.912568 
L 165.40596 128.542342 
L 169.133002 128.542342 
z
M 166.484158 113.001569 
L 168.30621 113.001569 
L 172.624189 139.32913 
L 170.856565 139.32913 
L 169.651367 131.444051 
L 164.944615 131.444051 
L 163.656478 139.32913 
L 162.005487 139.32913 
L 166.484158 113.001569 
z
M 167.318725 113.001569 
L 167.318725 113.001569 
z
" style="fill:#008000;"/>
   </g>
   <g id="patch_30">
    <path clip-path="url(#p1c125c0f72)" d="M 167.481942 28.921829 
Q 169.120068 28.921829 170.315115 33.272882 
Q 172.04692 39.520993 172.434298 55.184783 
L 170.877192 55.184783 
Q 170.59109 46.430465 169.697336 42.427497 
Q 168.803583 38.424528 167.441432 38.424528 
Q 165.828625 38.424528 164.724725 46.761145 
Q 163.620826 55.080357 163.620826 71.562144 
Q 163.620826 85.798788 164.52977 94.744552 
Q 165.441247 103.690316 167.497133 103.690316 
Q 169.071962 103.690316 170.104969 97.424801 
Q 171.137976 91.141881 171.160763 77.096683 
L 167.522452 77.096683 
L 167.522452 68.133515 
L 172.624189 68.133515 
L 172.624189 110.878255 
L 171.611437 110.878255 
L 171.231655 100.592367 
Q 170.434113 106.631628 169.816335 108.981196 
Q 168.778264 113.001569 167.180648 113.001569 
Q 165.117166 113.001569 163.628421 103.812146 
Q 162.005487 92.273154 162.005487 72.153888 
Q 162.005487 52.086833 163.587911 40.234566 
Q 165.091848 28.921829 167.481942 28.921829 
z
M 167.221158 28.8 
L 167.221158 28.8 
z
" style="fill:#ffa600;"/>
   </g>
   <g id="patch_31">
    <path clip-path="url(#p1c125c0f72)" d="M 178.766231 140.662481 
Q 181.040177 140.662481 182.294498 140.755482 
Q 183.548819 140.848281 183.68703 140.966351 
L 182.106741 140.966351 
Q 181.838145 140.876787 181.034962 140.824424 
Q 180.231779 140.771858 178.781878 140.771858 
Q 177.013832 140.771858 175.926406 140.868296 
Q 174.83898 140.964532 174.83898 141.163472 
Q 174.83898 141.326628 175.819489 141.42812 
Q 176.802606 141.52941 178.750585 141.52941 
Q 180.5421 141.52941 181.480885 141.422661 
Q 181.976355 141.366457 182.221482 141.274669 
L 183.80177 141.274669 
Q 183.590543 141.421246 182.401416 141.520514 
Q 180.974984 141.64 178.555005 141.64 
Q 176.468816 141.64 175.050207 141.541945 
Q 173.183068 141.412553 173.183068 141.142042 
Q 173.183068 140.936834 174.58603 140.80542 
Q 176.101125 140.662481 178.766231 140.662481 
z
M 178.440264 140.662481 
L 178.440264 140.662481 
z
" style="fill:#0000ff;"/>
   </g>
   <g id="patch_32">
    <path clip-path="url(#p1c125c0f72)" d="M 183.80177 129.742086 
L 183.80177 131.043209 
L 179.391802 131.043209 
L 179.391802 140.662481 
L 177.593036 140.662481 
L 177.593036 131.043209 
L 173.183068 131.043209 
L 173.183068 129.742086 
L 183.80177 129.742086 
z
" style="fill:#ff0000;"/>
   </g>
   <g id="patch_33">
    <path clip-path="url(#p1c125c0f72)" d="M 180.310583 117.923037 
L 178.504082 105.180331 
L 176.583541 117.923037 
L 180.310583 117.923037 
z
M 177.661739 100.895063 
L 179.483791 100.895063 
L 183.80177 129.742086 
L 182.034146 129.742086 
L 180.828948 121.10243 
L 176.122196 121.10243 
L 174.83406 129.742086 
L 173.183068 129.742086 
L 177.661739 100.895063 
z
M 178.496307 100.895063 
L 178.496307 100.895063 
z
" style="fill:#008000;"/>
   </g>
   <g id="patch_34">
    <path clip-path="url(#p1c125c0f72)" d="M 178.659523 28.904313 
Q 180.297649 28.904313 181.492696 32.629771 
Q 183.224501 37.979528 183.611879 51.391177 
L 182.054773 51.391177 
Q 181.768671 43.895556 180.874917 40.468134 
Q 179.981164 37.040713 178.619013 37.040713 
Q 177.006206 37.040713 175.902306 44.17869 
Q 174.798407 51.301766 174.798407 65.413801 
Q 174.798407 77.603499 175.707352 85.263041 
Q 176.618828 92.922582 178.674714 92.922582 
Q 180.249543 92.922582 181.28255 87.557923 
Q 182.315557 82.178362 182.338344 70.152583 
L 178.700033 70.152583 
L 178.700033 62.47814 
L 183.80177 62.47814 
L 183.80177 99.077039 
L 182.789018 99.077039 
L 182.409236 90.270056 
Q 181.611694 95.440992 180.993916 97.452739 
Q 179.955845 100.895063 178.358229 100.895063 
Q 176.294748 100.895063 174.806003 93.026895 
Q 173.183068 83.146981 173.183068 65.920463 
Q 173.183068 48.738651 174.765492 38.590504 
Q 176.269429 28.904313 178.659523 28.904313 
z
M 178.398739 28.8 
L 178.398739 28.8 
z
" style="fill:#ffa600;"/>
   </g>
   <g id="patch_35">
    <path clip-path="url(#p1c125c0f72)" d="M 189.943812 140.47434 
Q 192.217758 140.47434 193.472079 140.58524 
Q 194.726401 140.6959 194.864611 140.836695 
L 193.284322 140.836695 
Q 193.015726 140.729893 192.212543 140.667451 
Q 191.40936 140.604768 189.959459 140.604768 
Q 188.191414 140.604768 187.103988 140.719767 
Q 186.016561 140.834525 186.016561 141.071756 
Q 186.016561 141.266314 186.99707 141.38734 
Q 187.980187 141.508125 189.928166 141.508125 
Q 191.719681 141.508125 192.658466 141.38083 
Q 193.153936 141.313808 193.399063 141.204354 
L 194.979351 141.204354 
Q 194.768124 141.379143 193.578997 141.497517 
Q 192.152565 141.64 189.732586 141.64 
Q 187.646397 141.64 186.227788 141.523072 
Q 184.360649 141.368776 184.360649 141.0462 
Q 184.360649 140.801496 185.763611 140.644789 
Q 187.278706 140.47434 189.943812 140.47434 
z
M 189.617845 140.47434 
L 189.617845 140.47434 
z
" style="fill:#0000ff;"/>
   </g>
   <g id="patch_36">
    <path clip-path="url(#p1c125c0f72)" d="M 194.979351 138.650184 
L 194.979351 138.867525 
L 190.569383 138.867525 
L 190.569383 140.47434 
L 188.770617 140.47434 
L 188.770617 138.867525 
L 184.360649 138.867525 
L 184.360649 138.650184 
L 194.979351 138.650184 
z
" style="fill:#ff0000;"/>
   </g>
   <g id="patch_37">
    <path clip-path="url(#p1c125c0f72)" d="M 191.488164 122.335105 
L 189.681663 104.745003 
L 187.761122 122.335105 
L 191.488164 122.335105 
z
M 188.83932 98.829594 
L 190.661373 98.829594 
L 194.979351 138.650184 
L 193.211727 138.650184 
L 192.006529 126.723956 
L 187.299777 126.723956 
L 186.011641 138.650184 
L 184.360649 138.650184 
L 188.83932 98.829594 
z
M 189.673888 98.829594 
L 189.673888 98.829594 
z
" style="fill:#008000;"/>
   </g>
   <g id="patch_38">
    <path clip-path="url(#p1c125c0f72)" d="M 189.837104 28.901324 
Q 191.47523 28.901324 192.670277 32.520051 
Q 194.402083 37.716542 194.78946 50.743957 
L 193.232354 50.743957 
Q 192.946252 43.46308 192.052498 40.133851 
Q 191.158745 36.804623 189.796594 36.804623 
Q 188.183787 36.804623 187.079887 43.738103 
Q 185.975988 50.657108 185.975988 64.364844 
Q 185.975988 76.205317 186.884933 83.645418 
Q 187.796409 91.08552 189.852295 91.08552 
Q 191.427124 91.08552 192.460131 85.874554 
Q 193.493138 80.649113 193.515925 68.967864 
L 189.877614 68.967864 
L 189.877614 61.513287 
L 194.979351 61.513287 
L 194.979351 97.063656 
L 193.966599 97.063656 
L 193.586817 88.508987 
Q 192.789275 93.531779 192.171497 95.485891 
Q 191.133426 98.829594 189.53581 98.829594 
Q 187.472329 98.829594 185.983584 91.186844 
Q 184.360649 81.589982 184.360649 64.85699 
Q 184.360649 48.167424 185.943074 38.310013 
Q 187.44701 28.901324 189.837104 28.901324 
z
M 189.57632 28.8 
L 189.57632 28.8 
z
" style="fill:#ffa600;"/>
   </g>
   <g id="patch_39">
    <path clip-path="url(#p1c125c0f72)" d="M 206.156932 131.578512 
L 206.156932 132.777299 
L 201.746964 132.777299 
L 201.746964 141.64 
L 199.948198 141.64 
L 199.948198 132.777299 
L 195.53823 132.777299 
L 195.53823 131.578512 
L 206.156932 131.578512 
z
" style="fill:#ff0000;"/>
   </g>
   <g id="patch_40">
    <path clip-path="url(#p1c125c0f72)" d="M 201.121393 115.930034 
Q 203.395339 115.930034 204.649661 117.418824 
Q 205.903982 118.904378 206.042192 120.794494 
L 204.461904 120.794494 
Q 204.193307 119.360724 203.390124 118.522471 
Q 202.586941 117.680981 201.13704 117.680981 
Q 199.368995 117.680981 198.281569 119.224791 
Q 197.194143 120.765365 197.194143 123.950081 
Q 197.194143 126.561937 198.174651 128.18666 
Q 199.157768 129.808146 201.105747 129.808146 
Q 202.897262 129.808146 203.836047 128.099274 
Q 204.331517 127.199527 204.576644 125.730156 
L 206.156932 125.730156 
Q 205.945706 128.076619 204.756578 129.66574 
Q 203.330146 131.578512 200.910167 131.578512 
Q 198.823978 131.578512 197.405369 130.008809 
Q 195.53823 127.937449 195.53823 123.607012 
Q 195.53823 120.321965 196.941192 118.21824 
Q 198.456287 115.930034 201.121393 115.930034 
z
M 200.795426 115.930034 
L 200.795426 115.930034 
z
" style="fill:#0000ff;"/>
   </g>
   <g id="patch_41">
    <path clip-path="url(#p1c125c0f72)" d="M 202.665746 104.280237 
L 200.859244 91.720008 
L 198.938703 104.280237 
L 202.665746 104.280237 
z
M 200.016902 87.496105 
L 201.838954 87.496105 
L 206.156932 115.930034 
L 204.389308 115.930034 
L 203.18411 107.4141 
L 198.477358 107.4141 
L 197.189222 115.930034 
L 195.53823 115.930034 
L 200.016902 87.496105 
z
M 200.851469 87.496105 
L 200.851469 87.496105 
z
" style="fill:#008000;"/>
   </g>
   <g id="patch_42">
    <path clip-path="url(#p1c125c0f72)" d="M 201.014685 28.884926 
Q 202.652811 28.884926 203.847858 31.918003 
Q 205.579664 36.273502 205.967041 47.192579 
L 204.409935 47.192579 
Q 204.123833 41.090028 203.23008 38.299597 
Q 202.336326 35.509166 200.974175 35.509166 
Q 199.361368 35.509166 198.257469 41.320542 
Q 197.153569 47.119785 197.153569 58.60908 
Q 197.153569 68.533308 198.062514 74.769314 
Q 198.97399 81.00532 201.029876 81.00532 
Q 202.604705 81.00532 203.637712 76.63769 
Q 204.670719 72.257926 204.693506 62.467154 
L 201.055195 62.467154 
L 201.055195 56.219016 
L 206.156932 56.219016 
L 206.156932 86.015963 
L 205.14418 86.015963 
L 204.764399 78.84577 
Q 203.966857 83.05568 203.349078 84.693542 
Q 202.311007 87.496105 200.713392 87.496105 
Q 198.64991 87.496105 197.161165 81.090246 
Q 195.53823 73.046526 195.53823 59.021579 
Q 195.53823 45.033028 197.120655 36.770926 
Q 198.624591 28.884926 201.014685 28.884926 
z
M 200.753902 28.8 
L 200.753902 28.8 
z
" style="fill:#ffa600;"/>
   </g>
   <g id="patch_43">
    <path clip-path="url(#p1c125c0f72)" d="M 217.334513 130.895476 
L 217.334513 132.175644 
L 212.924545 132.175644 
L 212.924545 141.64 
L 211.12578 141.64 
L 211.12578 132.175644 
L 206.715811 132.175644 
L 206.715811 130.895476 
L 217.334513 130.895476 
z
" style="fill:#ff0000;"/>
   </g>
   <g id="patch_44">
    <path clip-path="url(#p1c125c0f72)" d="M 212.298975 108.281667 
Q 214.572921 108.281667 215.827242 110.433136 
Q 217.081563 112.579928 217.219773 115.311358 
L 215.639485 115.311358 
Q 215.370888 113.2394 214.567705 112.028029 
Q 213.764522 110.811982 212.314621 110.811982 
Q 210.546576 110.811982 209.45915 113.042961 
Q 208.371724 115.269264 208.371724 119.871536 
Q 208.371724 123.645961 209.352233 125.993868 
Q 210.335349 128.337099 212.283328 128.337099 
Q 214.074843 128.337099 215.013628 125.867587 
Q 215.509098 124.567351 215.754225 122.443945 
L 217.334513 122.443945 
Q 217.123287 125.834847 215.934159 128.131306 
Q 214.507727 130.895476 212.087748 130.895476 
Q 210.001559 130.895476 208.58295 128.627079 
Q 206.715811 125.633731 206.715811 119.375763 
Q 206.715811 114.6285 208.118773 111.588381 
Q 209.633868 108.281667 212.298975 108.281667 
z
M 211.973008 108.281667 
L 211.973008 108.281667 
z
" style="fill:#0000ff;"/>
   </g>
   <g id="patch_45">
    <path clip-path="url(#p1c125c0f72)" d="M 212.192266 75.563797 
Q 213.830392 75.563797 215.025439 77.256918 
Q 216.757245 79.68824 217.144622 85.783476 
L 215.587517 85.783476 
Q 215.301414 82.376916 214.407661 80.819245 
Q 213.513907 79.261574 212.151756 79.261574 
Q 210.538949 79.261574 209.43505 82.505593 
Q 208.33115 85.742841 208.33115 92.156383 
Q 208.33115 97.696275 209.240095 101.177332 
Q 210.151572 104.658388 212.207458 104.658388 
Q 213.782287 104.658388 214.815293 102.220294 
Q 215.8483 99.775427 215.871087 94.310033 
L 212.232776 94.310033 
L 212.232776 90.822204 
L 217.334513 90.822204 
L 217.334513 107.455424 
L 216.321762 107.455424 
L 215.94198 103.452886 
Q 215.144438 105.802938 214.526659 106.717224 
Q 213.488589 108.281667 211.890973 108.281667 
Q 209.827491 108.281667 208.338746 104.705796 
Q 206.715811 100.215639 206.715811 92.386647 
Q 206.715811 84.577973 208.298236 79.965912 
Q 209.802172 75.563797 212.192266 75.563797 
z
M 211.931483 75.51639 
L 211.931483 75.51639 
z
" style="fill:#ffa600;"/>
   </g>
   <g id="patch_46">
    <path clip-path="url(#p1c125c0f72)" d="M 213.843327 56.376 
L 212.036825 35.73979 
L 210.116284 56.376 
L 213.843327 56.376 
z
M 211.194483 28.8 
L 213.016535 28.8 
L 217.334513 75.51639 
L 215.566889 75.51639 
L 214.361691 61.524877 
L 209.654939 61.524877 
L 208.366803 75.51639 
L 206.715811 75.51639 
L 211.194483 28.8 
z
M 212.02905 28.8 
L 212.02905 28.8 
z
" style="fill:#008000;"/>
   </g>
   <g id="patch_47">
    <path clip-path="url(#p1c125c0f72)" d="M 228.512094 138.703354 
L 228.512094 139.053244 
L 224.102126 139.053244 
L 224.102126 141.64 
L 222.303361 141.64 
L 222.303361 139.053244 
L 217.893392 139.053244 
L 217.893392 138.703354 
L 228.512094 138.703354 
z
" style="fill:#ff0000;"/>
   </g>
   <g id="patch_48">
    <path clip-path="url(#p1c125c0f72)" d="M 223.476556 127.92611 
Q 225.750502 127.92611 227.004823 128.951452 
Q 228.259144 129.974566 228.397354 131.276306 
L 226.817066 131.276306 
Q 226.548469 130.288856 225.745286 129.711544 
Q 224.942103 129.132002 223.492202 129.132002 
Q 221.724157 129.132002 220.636731 130.195238 
Q 219.549305 131.256245 219.549305 133.449587 
Q 219.549305 135.248395 220.529814 136.367356 
Q 221.51293 137.484088 223.460909 137.484088 
Q 225.252424 137.484088 226.191209 136.307173 
Q 226.686679 135.687509 226.931806 134.67554 
L 228.512094 134.67554 
Q 228.300868 136.29157 227.11174 137.386012 
Q 225.685308 138.703354 223.265329 138.703354 
Q 221.17914 138.703354 219.760531 137.622286 
Q 217.893392 136.195722 217.893392 133.213312 
Q 217.893392 130.950871 219.296354 129.502017 
Q 220.811449 127.92611 223.476556 127.92611 
z
M 223.150589 127.92611 
L 223.150589 127.92611 
z
" style="fill:#0000ff;"/>
   </g>
   <g id="patch_49">
    <path clip-path="url(#p1c125c0f72)" d="M 223.369847 83.948326 
Q 225.007973 83.948326 226.20302 86.224138 
Q 227.934826 89.492203 228.322203 97.685125 
L 226.765098 97.685125 
Q 226.478995 93.106192 225.585242 91.012445 
Q 224.691488 88.918699 223.329337 88.918699 
Q 221.71653 88.918699 220.612631 93.279154 
Q 219.508731 97.630505 219.508731 106.25128 
Q 219.508731 113.697735 220.417676 118.376804 
Q 221.329153 123.055873 223.385039 123.055873 
Q 224.959868 123.055873 225.992874 119.778704 
Q 227.025881 116.492432 227.048668 109.146112 
L 223.410357 109.146112 
L 223.410357 104.45794 
L 228.512094 104.45794 
L 228.512094 126.815514 
L 227.499343 126.815514 
L 227.119561 121.435495 
Q 226.322019 124.594321 225.70424 125.82326 
Q 224.66617 127.92611 223.068554 127.92611 
Q 221.005072 127.92611 219.516327 123.119596 
Q 217.893392 117.084143 217.893392 106.56079 
Q 217.893392 96.064747 219.475817 89.865436 
Q 220.979753 83.948326 223.369847 83.948326 
z
M 223.109064 83.884603 
L 223.109064 83.884603 
z
" style="fill:#ffa600;"/>
   </g>
   <g id="patch_50">
    <path clip-path="url(#p1c125c0f72)" d="M 225.020908 61.315634 
L 223.214407 36.982901 
L 221.293865 61.315634 
L 225.020908 61.315634 
z
M 222.372064 28.8 
L 224.194116 28.8 
L 228.512094 83.884603 
L 226.744471 83.884603 
L 225.539273 67.386819 
L 220.832521 67.386819 
L 219.544384 83.884603 
L 217.893392 83.884603 
L 222.372064 28.8 
z
M 223.206631 28.8 
L 223.206631 28.8 
z
" style="fill:#008000;"/>
   </g>
   <g id="patch_51">
    <path clip-path="url(#p1c125c0f72)" d="M 234.654137 139.280049 
Q 236.928083 139.280049 238.182404 139.504574 
Q 239.436725 139.728611 239.574935 140.01366 
L 237.994647 140.01366 
Q 237.72605 139.797432 236.922867 139.671015 
Q 236.119685 139.54411 234.669783 139.54411 
Q 232.901738 139.54411 231.814312 139.776932 
Q 230.726886 140.009267 230.726886 140.489555 
Q 230.726886 140.883449 231.707395 141.128474 
Q 232.690511 141.373011 234.63849 141.373011 
Q 236.430005 141.373011 237.36879 141.115295 
Q 237.86426 140.979604 238.109387 140.758008 
L 239.689676 140.758008 
Q 239.478449 141.111879 238.289321 141.351534 
Q 236.862889 141.64 234.44291 141.64 
Q 232.356721 141.64 230.938113 141.403273 
Q 229.070973 141.09089 229.070973 140.437816 
Q 229.070973 139.942397 230.473936 139.625134 
Q 231.98903 139.280049 234.654137 139.280049 
z
M 234.32817 139.280049 
L 234.32817 139.280049 
z
" style="fill:#0000ff;"/>
   </g>
   <g id="patch_52">
    <path clip-path="url(#p1c125c0f72)" d="M 234.547429 125.492067 
Q 236.185554 125.492067 237.380602 126.205583 
Q 239.112407 127.230192 239.499785 129.798849 
L 237.942679 129.798849 
Q 237.656576 128.363255 236.762823 127.70682 
Q 235.86907 127.050385 234.506918 127.050385 
Q 232.894111 127.050385 231.790212 128.417482 
Q 230.686312 129.781725 230.686312 132.484523 
Q 230.686312 134.819147 231.595257 136.286136 
Q 232.506734 137.753125 234.56262 137.753125 
Q 236.137449 137.753125 237.170456 136.725662 
Q 238.203462 135.695345 238.226249 133.392115 
L 234.587939 133.392115 
L 234.587939 131.922273 
L 239.689676 131.922273 
L 239.689676 138.931853 
L 238.676924 138.931853 
L 238.297142 137.245102 
Q 237.4996 138.235462 236.881821 138.620761 
Q 235.843751 139.280049 234.246135 139.280049 
Q 232.182653 139.280049 230.693908 137.773104 
Q 229.070973 135.880859 229.070973 132.581561 
Q 229.070973 129.290826 230.653398 127.347208 
Q 232.157334 125.492067 234.547429 125.492067 
z
M 234.286645 125.472088 
L 234.286645 125.472088 
z
" style="fill:#ffa600;"/>
   </g>
   <g id="patch_53">
    <path clip-path="url(#p1c125c0f72)" d="M 239.689676 84.984823 
L 239.689676 89.808725 
L 235.279707 89.808725 
L 235.279707 125.472088 
L 233.480942 125.472088 
L 233.480942 89.808725 
L 229.070973 89.808725 
L 229.070973 84.984823 
L 239.689676 84.984823 
z
" style="fill:#ff0000;"/>
   </g>
   <g id="patch_54">
    <path clip-path="url(#p1c125c0f72)" d="M 236.198489 61.965077 
L 234.391988 37.146341 
L 232.471446 61.965077 
L 236.198489 61.965077 
z
M 233.549645 28.8 
L 235.371697 28.8 
L 239.689676 84.984823 
L 237.922052 84.984823 
L 236.716854 68.157524 
L 232.010102 68.157524 
L 230.721965 84.984823 
L 229.070973 84.984823 
L 233.549645 28.8 
z
M 234.384212 28.8 
L 234.384212 28.8 
z
" style="fill:#008000;"/>
   </g>
   <g id="patch_55">
    <path clip-path="url(#p1c125c0f72)" d="M 245.72501 131.401116 
Q 247.363136 131.401116 248.558183 131.930969 
Q 250.289988 132.691838 250.677366 134.59931 
L 249.12026 134.59931 
Q 248.834158 133.533245 247.940404 133.04578 
Q 247.046651 132.558315 245.6845 132.558315 
Q 244.071692 132.558315 242.967793 133.573514 
Q 241.863894 134.586594 241.863894 136.593678 
Q 241.863894 138.327358 242.772838 139.416736 
Q 243.684315 140.506114 245.740201 140.506114 
Q 247.31503 140.506114 248.348037 139.743125 
Q 249.381043 138.978017 249.40383 137.267651 
L 245.76552 137.267651 
L 245.76552 136.176153 
L 250.867257 136.176153 
L 250.867257 141.381432 
L 249.854505 141.381432 
L 249.474723 140.128859 
Q 248.677181 140.864295 248.059402 141.150416 
Q 247.021332 141.64 245.423716 141.64 
Q 243.360234 141.64 241.871489 140.52095 
Q 240.248555 139.115779 240.248555 136.665738 
Q 240.248555 134.222055 241.830979 132.778734 
Q 243.334916 131.401116 245.72501 131.401116 
z
M 245.464226 131.38628 
L 245.464226 131.38628 
z
" style="fill:#ffa600;"/>
   </g>
   <g id="patch_56">
    <path clip-path="url(#p1c125c0f72)" d="M 245.831718 117.795091 
Q 248.105664 117.795091 249.359985 119.088151 
Q 250.614306 120.378401 250.752516 122.020025 
L 249.172228 122.020025 
Q 248.903631 120.774752 248.100448 120.046702 
Q 247.297266 119.315842 245.847364 119.315842 
Q 244.079319 119.315842 242.991893 120.65669 
Q 241.904467 121.994726 241.904467 124.760751 
Q 241.904467 127.029229 242.884976 128.440351 
Q 243.868093 129.848663 245.816071 129.848663 
Q 247.607586 129.848663 248.546371 128.364454 
Q 249.041841 127.582996 249.286968 126.306801 
L 250.867257 126.306801 
Q 250.65603 128.344777 249.466902 129.724979 
Q 248.040471 131.38628 245.620491 131.38628 
Q 243.534302 131.38628 242.115694 130.022945 
Q 240.248555 128.223904 240.248555 124.462785 
Q 240.248555 121.609619 241.651517 119.782468 
Q 243.166611 117.795091 245.831718 117.795091 
z
M 245.505751 117.795091 
L 245.505751 117.795091 
z
" style="fill:#0000ff;"/>
   </g>
   <g id="patch_57">
    <path clip-path="url(#p1c125c0f72)" d="M 247.37607 104.281862 
L 245.569569 89.712575 
L 243.649027 104.281862 
L 247.37607 104.281862 
z
M 244.727226 84.813041 
L 246.549278 84.813041 
L 250.867257 117.795091 
L 249.099633 117.795091 
L 247.894435 107.916999 
L 243.187683 107.916999 
L 241.899546 117.795091 
L 240.248555 117.795091 
L 244.727226 84.813041 
z
M 245.561793 84.813041 
L 245.561793 84.813041 
z
" style="fill:#008000;"/>
   </g>
   <g id="patch_58">
    <path clip-path="url(#p1c125c0f72)" d="M 250.867257 28.8 
L 250.867257 35.473739 
L 246.457288 35.473739 
L 246.457288 84.813041 
L 244.658523 84.813041 
L 244.658523 35.473739 
L 240.248555 35.473739 
L 240.248555 28.8 
L 250.867257 28.8 
z
" style="fill:#ff0000;"/>
   </g>
   <g id="patch_59">
    <path clip-path="url(#p1c125c0f72)" d="M 256.902591 134.692915 
Q 258.540717 134.692915 259.735764 135.052421 
Q 261.467569 135.568671 261.854947 136.862891 
L 260.297841 136.862891 
Q 260.011739 136.139565 259.117985 135.80882 
Q 258.224232 135.478075 256.862081 135.478075 
Q 255.249274 135.478075 254.145374 136.166888 
Q 253.041475 136.854262 253.041475 138.216069 
Q 253.041475 139.392371 253.950419 140.131515 
Q 254.861896 140.870658 256.917782 140.870658 
Q 258.492611 140.870658 259.525618 140.35297 
Q 260.558625 139.833844 260.581411 138.67336 
L 256.943101 138.67336 
L 256.943101 137.932779 
L 262.044838 137.932779 
L 262.044838 141.464561 
L 261.032086 141.464561 
L 260.652304 140.61469 
Q 259.854762 141.113684 259.236984 141.307817 
Q 258.198913 141.64 256.601297 141.64 
Q 254.537815 141.64 253.04907 140.880724 
Q 251.426136 139.927316 251.426136 138.264962 
Q 251.426136 136.606923 253.00856 135.627629 
Q 254.512497 134.692915 256.902591 134.692915 
z
M 256.641807 134.682849 
L 256.641807 134.682849 
z
" style="fill:#ffa600;"/>
   </g>
   <g id="patch_60">
    <path clip-path="url(#p1c125c0f72)" d="M 262.044838 110.097643 
L 262.044838 113.026876 
L 257.634869 113.026876 
L 257.634869 134.682849 
L 255.836104 134.682849 
L 255.836104 113.026876 
L 251.426136 113.026876 
L 251.426136 110.097643 
L 262.044838 110.097643 
z
" style="fill:#ff0000;"/>
   </g>
   <g id="patch_61">
    <path clip-path="url(#p1c125c0f72)" d="M 257.009299 81.385591 
Q 259.283245 81.385591 260.537566 84.117245 
Q 261.791887 86.84296 261.930097 90.310972 
L 260.349809 90.310972 
Q 260.081212 87.680271 259.27803 86.142231 
Q 258.474847 84.598253 257.024945 84.598253 
Q 255.2569 84.598253 254.169474 87.430859 
Q 253.082048 90.257526 253.082048 96.100889 
Q 253.082048 100.893159 254.062557 103.874224 
Q 255.045674 106.849351 256.993653 106.849351 
Q 258.785167 106.849351 259.723952 103.713888 
Q 260.219422 102.063019 260.46455 99.366996 
L 262.044838 99.366996 
Q 261.833611 103.67232 260.644483 106.588063 
Q 259.218052 110.097643 256.798072 110.097643 
Q 254.711883 110.097643 253.293275 107.217531 
Q 251.426136 103.416969 251.426136 95.471421 
Q 251.426136 89.443969 252.829098 85.584024 
Q 254.344193 81.385591 257.009299 81.385591 
z
M 256.683332 81.385591 
L 256.683332 81.385591 
z
" style="fill:#0000ff;"/>
   </g>
   <g id="patch_62">
    <path clip-path="url(#p1c125c0f72)" d="M 258.553651 59.840504 
L 256.74715 36.611669 
L 254.826609 59.840504 
L 258.553651 59.840504 
z
M 255.904807 28.8 
L 257.726859 28.8 
L 262.044838 81.385591 
L 260.277214 81.385591 
L 259.072016 65.636258 
L 254.365264 65.636258 
L 253.077127 81.385591 
L 251.426136 81.385591 
L 255.904807 28.8 
z
M 256.739374 28.8 
L 256.739374 28.8 
z
" style="fill:#008000;"/>
   </g>
   <g id="patch_63">
    <path clip-path="url(#p1c125c0f72)" d="M 268.080172 138.968987 
Q 269.718298 138.968987 270.913345 139.107209 
Q 272.64515 139.305697 273.032528 139.803298 
L 271.475422 139.803298 
Q 271.18932 139.525194 270.295566 139.39803 
Q 269.401813 139.270865 268.039662 139.270865 
Q 266.426855 139.270865 265.322955 139.535699 
Q 264.219056 139.799981 264.219056 140.323568 
Q 264.219056 140.775832 265.128001 141.060018 
Q 266.039477 141.344204 268.095363 141.344204 
Q 269.670192 141.344204 270.703199 141.145163 
Q 271.736206 140.94557 271.758993 140.499387 
L 268.120682 140.499387 
L 268.120682 140.214649 
L 273.222419 140.214649 
L 273.222419 141.572547 
L 272.209667 141.572547 
L 271.829885 141.245789 
Q 271.032343 141.437642 270.414565 141.512282 
Q 269.376494 141.64 267.778878 141.64 
Q 265.715397 141.64 264.226651 141.348074 
Q 262.603717 140.981508 262.603717 140.342366 
Q 262.603717 139.704884 264.186141 139.328365 
Q 265.690078 138.968987 268.080172 138.968987 
z
M 267.819388 138.965117 
L 267.819388 138.965117 
z
" style="fill:#ffa600;"/>
   </g>
   <g id="patch_64">
    <path clip-path="url(#p1c125c0f72)" d="M 269.731232 133.275953 
L 267.924731 127.142182 
L 266.00419 133.275953 
L 269.731232 133.275953 
z
M 267.082388 125.079445 
L 268.90444 125.079445 
L 273.222419 138.965117 
L 271.454795 138.965117 
L 270.249597 134.806371 
L 265.542845 134.806371 
L 264.254709 138.965117 
L 262.603717 138.965117 
L 267.082388 125.079445 
z
M 267.916956 125.079445 
L 267.916956 125.079445 
z
" style="fill:#008000;"/>
   </g>
   <g id="patch_65">
    <path clip-path="url(#p1c125c0f72)" d="M 273.222419 83.226108 
L 273.222419 88.212772 
L 268.812451 88.212772 
L 268.812451 125.079445 
L 267.013685 125.079445 
L 267.013685 88.212772 
L 262.603717 88.212772 
L 262.603717 83.226108 
L 273.222419 83.226108 
z
" style="fill:#ff0000;"/>
   </g>
   <g id="patch_66">
    <path clip-path="url(#p1c125c0f72)" d="M 268.18688 28.8 
Q 270.460826 28.8 271.715147 33.978078 
Q 272.969468 39.1449 273.107678 45.718809 
L 271.52739 45.718809 
Q 271.258793 40.732094 270.455611 37.816611 
Q 269.652428 34.889871 268.202527 34.889871 
Q 266.434481 34.889871 265.347055 40.259313 
Q 264.259629 45.617498 264.259629 56.694084 
Q 264.259629 65.778234 265.240138 71.429094 
Q 266.223255 77.068697 268.171234 77.068697 
Q 269.962749 77.068697 270.901534 71.125163 
Q 271.397003 67.995803 271.642131 62.885264 
L 273.222419 62.885264 
Q 273.011192 71.046366 271.822065 76.573402 
Q 270.395633 83.226108 267.975654 83.226108 
Q 265.889465 83.226108 264.470856 77.766612 
Q 262.603717 70.562329 262.603717 55.500874 
Q 262.603717 44.075332 264.006679 36.758481 
Q 265.521774 28.8 268.18688 28.8 
z
M 267.860913 28.8 
L 267.860913 28.8 
z
" style="fill:#0000ff;"/>
   </g>
   <g id="patch_67">
    <path clip-path="url(#p1c125c0f72)" d="M 280.908813 140.530655 
L 279.102312 139.334615 
L 277.181771 140.530655 
L 280.908813 140.530655 
z
M 278.259969 138.932396 
L 280.082022 138.932396 
L 284.4 141.64 
L 282.632376 141.64 
L 281.427178 140.829075 
L 276.720426 140.829075 
L 275.43229 141.64 
L 273.781298 141.64 
L 278.259969 138.932396 
z
M 279.094537 138.932396 
L 279.094537 138.932396 
z
" style="fill:#008000;"/>
   </g>
   <g id="patch_68">
    <path clip-path="url(#p1c125c0f72)" d="M 279.257753 136.093934 
Q 280.895879 136.093934 282.090926 136.240822 
Q 283.822732 136.451753 284.210109 136.98055 
L 282.653003 136.98055 
Q 282.366901 136.685011 281.473147 136.549874 
Q 280.579394 136.414737 279.217243 136.414737 
Q 277.604436 136.414737 276.500536 136.696175 
Q 275.396637 136.977024 275.396637 137.533436 
Q 275.396637 138.014053 276.305582 138.316055 
Q 277.217058 138.618056 279.272944 138.618056 
Q 280.847773 138.618056 281.88078 138.406538 
Q 282.913787 138.194431 282.936574 137.720277 
L 279.298263 137.720277 
L 279.298263 137.417688 
L 284.4 137.417688 
L 284.4 138.860715 
L 283.387248 138.860715 
L 283.007466 138.513472 
Q 282.209924 138.717352 281.592146 138.796672 
Q 280.554075 138.932396 278.956459 138.932396 
Q 276.892978 138.932396 275.404233 138.622169 
Q 273.781298 138.232622 273.781298 137.553412 
Q 273.781298 136.875965 275.363723 136.475843 
Q 276.867659 136.093934 279.257753 136.093934 
z
M 278.996969 136.089821 
L 278.996969 136.089821 
z
" style="fill:#ffa600;"/>
   </g>
   <g id="patch_69">
    <path clip-path="url(#p1c125c0f72)" d="M 279.364461 96.121991 
Q 281.638407 96.121991 282.892728 99.924514 
Q 284.14705 103.718772 284.28526 108.546324 
L 282.704971 108.546324 
Q 282.436375 104.884328 281.633192 102.743342 
Q 280.830009 100.594089 279.380108 100.594089 
Q 277.612063 100.594089 276.524636 104.537141 
Q 275.43721 108.471926 275.43721 116.606021 
Q 275.43721 123.27697 276.417719 127.42668 
Q 277.400836 131.568125 279.348815 131.568125 
Q 281.14033 131.568125 282.079115 127.203489 
Q 282.574585 124.905442 282.819712 121.152516 
L 284.4 121.152516 
Q 284.188773 127.145624 282.999646 131.204405 
Q 281.573214 136.089821 279.153235 136.089821 
Q 277.067046 136.089821 275.648437 132.080639 
Q 273.781298 126.790171 273.781298 115.729787 
Q 273.781298 107.339436 275.18426 101.966304 
Q 276.699355 96.121991 279.364461 96.121991 
z
M 279.038494 96.121991 
L 279.038494 96.121991 
z
" style="fill:#0000ff;"/>
   </g>
   <g id="patch_70">
    <path clip-path="url(#p1c125c0f72)" d="M 284.4 28.8 
L 284.4 36.821156 
L 279.990032 36.821156 
L 279.990032 96.121991 
L 278.191266 96.121991 
L 278.191266 36.821156 
L 273.781298 36.821156 
L 273.781298 28.8 
L 284.4 28.8 
z
" style="fill:#ff0000;"/>
   </g>
   <g id="matplotlib.axis_1">
    <g id="xtick_1">
     <g id="line2d_2">
      <path clip-path="url(#p1c125c0f72)" d="M 100.249351 141.64 
L 100.249351 28.8 
" style="fill:none;stroke:#cccccc;stroke-linecap:round;stroke-width:0.8;"/>
     </g>
     <g id="text_1">
      <!-- 0 -->
      <g style="fill:#262626;" transform="translate(94.688414 162.986875)scale(0.2 -0.2)">
       <defs>
        <path d="M 1731 4475 
Q 2600 4475 2988 3759 
Q 3288 3206 3288 2244 
Q 3288 1331 3016 734 
Q 2622 -122 1728 -122 
Q 922 -122 528 578 
Q 200 1163 200 2147 
Q 200 2909 397 3456 
Q 766 4475 1731 4475 
z
M 1725 391 
Q 2163 391 2422 778 
Q 2681 1166 2681 2222 
Q 2681 2984 2493 3476 
Q 2306 3969 1766 3969 
Q 1269 3969 1039 3501 
Q 809 3034 809 2125 
Q 809 1441 956 1025 
Q 1181 391 1725 391 
z
" id="Helvetica-30" transform="scale(0.015625)"/>
       </defs>
       <use xlink:href="#Helvetica-30"/>
      </g>
     </g>
    </g>
    <g id="xtick_2">
     <g id="line2d_3">
      <path clip-path="url(#p1c125c0f72)" d="M 212.025162 141.64 
L 212.025162 28.8 
" style="fill:none;stroke:#cccccc;stroke-linecap:round;stroke-width:0.8;"/>
     </g>
     <g id="text_2">
      <!-- 10 -->
      <g style="fill:#262626;" transform="translate(200.903287 162.986875)scale(0.2 -0.2)">
       <defs>
        <path d="M 613 3169 
L 613 3600 
Q 1222 3659 1462 3798 
Q 1703 3938 1822 4456 
L 2266 4456 
L 2266 0 
L 1666 0 
L 1666 3169 
L 613 3169 
z
" id="Helvetica-31" transform="scale(0.015625)"/>
       </defs>
       <use xlink:href="#Helvetica-31"/>
       <use x="55.615234" xlink:href="#Helvetica-30"/>
      </g>
     </g>
    </g>
    <g id="text_3">
     <!-- Position -->
     <g style="fill:#262626;" transform="translate(145.20125 189.089219)scale(0.25 -0.25)">
      <defs>
       <path d="M 547 4591 
L 2613 4591 
Q 3225 4591 3600 4245 
Q 3975 3900 3975 3275 
Q 3975 2738 3640 2339 
Q 3306 1941 2613 1941 
L 1169 1941 
L 1169 0 
L 547 0 
L 547 4591 
z
M 3347 3272 
Q 3347 3778 2972 3959 
Q 2766 4056 2406 4056 
L 1169 4056 
L 1169 2466 
L 2406 2466 
Q 2825 2466 3086 2644 
Q 3347 2822 3347 3272 
z
" id="Helvetica-50" transform="scale(0.015625)"/>
       <path d="M 1741 363 
Q 2300 363 2508 786 
Q 2716 1209 2716 1728 
Q 2716 2197 2566 2491 
Q 2328 2953 1747 2953 
Q 1231 2953 997 2559 
Q 763 2166 763 1609 
Q 763 1075 997 719 
Q 1231 363 1741 363 
z
M 1763 3444 
Q 2409 3444 2856 3012 
Q 3303 2581 3303 1744 
Q 3303 934 2909 406 
Q 2516 -122 1688 -122 
Q 997 -122 590 345 
Q 184 813 184 1600 
Q 184 2444 612 2944 
Q 1041 3444 1763 3444 
z
M 1744 3428 
L 1744 3428 
z
" id="Helvetica-6f" transform="scale(0.015625)"/>
       <path d="M 747 1050 
Q 772 769 888 619 
Q 1100 347 1625 347 
Q 1938 347 2175 483 
Q 2413 619 2413 903 
Q 2413 1119 2222 1231 
Q 2100 1300 1741 1391 
L 1294 1503 
Q 866 1609 663 1741 
Q 300 1969 300 2372 
Q 300 2847 642 3140 
Q 984 3434 1563 3434 
Q 2319 3434 2653 2991 
Q 2863 2709 2856 2384 
L 2325 2384 
Q 2309 2575 2191 2731 
Q 1997 2953 1519 2953 
Q 1200 2953 1036 2831 
Q 872 2709 872 2509 
Q 872 2291 1088 2159 
Q 1213 2081 1456 2022 
L 1828 1931 
Q 2434 1784 2641 1647 
Q 2969 1431 2969 969 
Q 2969 522 2630 197 
Q 2291 -128 1597 -128 
Q 850 -128 539 211 
Q 228 550 206 1050 
L 747 1050 
z
M 1578 3428 
L 1578 3428 
z
" id="Helvetica-73" transform="scale(0.015625)"/>
       <path d="M 413 3331 
L 984 3331 
L 984 0 
L 413 0 
L 413 3331 
z
M 413 4591 
L 984 4591 
L 984 3953 
L 413 3953 
L 413 4591 
z
" id="Helvetica-69" transform="scale(0.015625)"/>
       <path d="M 525 4281 
L 1094 4281 
L 1094 3347 
L 1628 3347 
L 1628 2888 
L 1094 2888 
L 1094 703 
Q 1094 528 1213 469 
Q 1278 434 1431 434 
Q 1472 434 1519 436 
Q 1566 438 1628 444 
L 1628 0 
Q 1531 -28 1426 -40 
Q 1322 -53 1200 -53 
Q 806 -53 665 148 
Q 525 350 525 672 
L 525 2888 
L 72 2888 
L 72 3347 
L 525 3347 
L 525 4281 
z
" id="Helvetica-74" transform="scale(0.015625)"/>
       <path d="M 413 3347 
L 947 3347 
L 947 2872 
Q 1184 3166 1450 3294 
Q 1716 3422 2041 3422 
Q 2753 3422 3003 2925 
Q 3141 2653 3141 2147 
L 3141 0 
L 2569 0 
L 2569 2109 
Q 2569 2416 2478 2603 
Q 2328 2916 1934 2916 
Q 1734 2916 1606 2875 
Q 1375 2806 1200 2600 
Q 1059 2434 1017 2257 
Q 975 2081 975 1753 
L 975 0 
L 413 0 
L 413 3347 
z
M 1734 3428 
L 1734 3428 
z
" id="Helvetica-6e" transform="scale(0.015625)"/>
      </defs>
      <use xlink:href="#Helvetica-50"/>
      <use x="66.699219" xlink:href="#Helvetica-6f"/>
      <use x="122.314453" xlink:href="#Helvetica-73"/>
      <use x="172.314453" xlink:href="#Helvetica-69"/>
      <use x="194.53125" xlink:href="#Helvetica-74"/>
      <use x="222.314453" xlink:href="#Helvetica-69"/>
      <use x="244.53125" xlink:href="#Helvetica-6f"/>
      <use x="300.146484" xlink:href="#Helvetica-6e"/>
     </g>
    </g>
   </g>
   <g id="matplotlib.axis_2">
    <g id="ytick_1">
     <g id="line2d_4">
      <path clip-path="url(#p1c125c0f72)" d="M 94.94 141.64 
L 284.4 141.64 
" style="fill:none;stroke:#cccccc;stroke-linecap:round;stroke-width:0.8;"/>
     </g>
     <g id="text_4">
      <!-- 0 -->
      <g style="fill:#262626;" transform="translate(76.818125 148.813438)scale(0.2 -0.2)">
       <use xlink:href="#Helvetica-30"/>
      </g>
     </g>
    </g>
    <g id="ytick_2">
     <g id="line2d_5">
      <path clip-path="url(#p1c125c0f72)" d="M 94.94 113.43 
L 284.4 113.43 
" style="fill:none;stroke:#cccccc;stroke-linecap:round;stroke-width:0.8;"/>
     </g>
     <g id="text_5">
      <!-- 0.25 -->
      <g style="fill:#262626;" transform="translate(49.018125 120.603437)scale(0.2 -0.2)">
       <defs>
        <path d="M 547 681 
L 1200 681 
L 1200 0 
L 547 0 
L 547 681 
z
" id="Helvetica-2e" transform="scale(0.015625)"/>
        <path d="M 200 0 
Q 231 578 439 1006 
Q 647 1434 1250 1784 
L 1850 2131 
Q 2253 2366 2416 2531 
Q 2672 2791 2672 3125 
Q 2672 3516 2437 3745 
Q 2203 3975 1813 3975 
Q 1234 3975 1013 3538 
Q 894 3303 881 2888 
L 309 2888 
Q 319 3472 525 3841 
Q 891 4491 1816 4491 
Q 2584 4491 2939 4075 
Q 3294 3659 3294 3150 
Q 3294 2613 2916 2231 
Q 2697 2009 2131 1694 
L 1703 1456 
Q 1397 1288 1222 1134 
Q 909 863 828 531 
L 3272 531 
L 3272 0 
L 200 0 
z
" id="Helvetica-32" transform="scale(0.015625)"/>
        <path d="M 791 1141 
Q 847 659 1238 475 
Q 1438 381 1700 381 
Q 2200 381 2440 700 
Q 2681 1019 2681 1406 
Q 2681 1875 2395 2131 
Q 2109 2388 1709 2388 
Q 1419 2388 1211 2275 
Q 1003 2163 856 1963 
L 369 1991 
L 709 4400 
L 3034 4400 
L 3034 3856 
L 1131 3856 
L 941 2613 
Q 1097 2731 1238 2791 
Q 1488 2894 1816 2894 
Q 2431 2894 2859 2497 
Q 3288 2100 3288 1491 
Q 3288 856 2895 371 
Q 2503 -113 1644 -113 
Q 1097 -113 676 195 
Q 256 503 206 1141 
L 791 1141 
z
" id="Helvetica-35" transform="scale(0.015625)"/>
       </defs>
       <use xlink:href="#Helvetica-30"/>
       <use x="55.615234" xlink:href="#Helvetica-2e"/>
       <use x="83.398438" xlink:href="#Helvetica-32"/>
       <use x="139.013672" xlink:href="#Helvetica-35"/>
      </g>
     </g>
    </g>
    <g id="ytick_3">
     <g id="line2d_6">
      <path clip-path="url(#p1c125c0f72)" d="M 94.94 85.22 
L 284.4 85.22 
" style="fill:none;stroke:#cccccc;stroke-linecap:round;stroke-width:0.8;"/>
     </g>
     <g id="text_6">
      <!-- 0.50 -->
      <g style="fill:#262626;" transform="translate(49.018125 92.393438)scale(0.2 -0.2)">
       <use xlink:href="#Helvetica-30"/>
       <use x="55.615234" xlink:href="#Helvetica-2e"/>
       <use x="83.398438" xlink:href="#Helvetica-35"/>
       <use x="139.013672" xlink:href="#Helvetica-30"/>
      </g>
     </g>
    </g>
    <g id="ytick_4">
     <g id="line2d_7">
      <path clip-path="url(#p1c125c0f72)" d="M 94.94 57.01 
L 284.4 57.01 
" style="fill:none;stroke:#cccccc;stroke-linecap:round;stroke-width:0.8;"/>
     </g>
     <g id="text_7">
      <!-- 0.75 -->
      <g style="fill:#262626;" transform="translate(49.018125 64.183437)scale(0.2 -0.2)">
       <defs>
        <path d="M 3347 4400 
L 3347 3909 
Q 3131 3700 2773 3181 
Q 2416 2663 2141 2063 
Q 1869 1478 1728 997 
Q 1638 688 1494 0 
L 872 0 
Q 1084 1281 1809 2550 
Q 2238 3294 2709 3834 
L 234 3834 
L 234 4400 
L 3347 4400 
z
" id="Helvetica-37" transform="scale(0.015625)"/>
       </defs>
       <use xlink:href="#Helvetica-30"/>
       <use x="55.615234" xlink:href="#Helvetica-2e"/>
       <use x="83.398438" xlink:href="#Helvetica-37"/>
       <use x="139.013672" xlink:href="#Helvetica-35"/>
      </g>
     </g>
    </g>
    <g id="ytick_5">
     <g id="line2d_8">
      <path clip-path="url(#p1c125c0f72)" d="M 94.94 28.8 
L 284.4 28.8 
" style="fill:none;stroke:#cccccc;stroke-linecap:round;stroke-width:0.8;"/>
     </g>
     <g id="text_8">
      <!-- 1.0 -->
      <g style="fill:#262626;" transform="translate(60.14 35.973437)scale(0.2 -0.2)">
       <use xlink:href="#Helvetica-31"/>
       <use x="55.615234" xlink:href="#Helvetica-2e"/>
       <use x="83.398438" xlink:href="#Helvetica-30"/>
      </g>
     </g>
    </g>
    <g id="text_9">
     <!-- Probability -->
     <g style="fill:#262626;" transform="translate(39.65875 143.579375)rotate(-90)scale(0.25 -0.25)">
      <defs>
       <path d="M 428 3347 
L 963 3347 
L 963 2769 
Q 1028 2938 1284 3180 
Q 1541 3422 1875 3422 
Q 1891 3422 1928 3419 
Q 1966 3416 2056 3406 
L 2056 2813 
Q 2006 2822 1964 2825 
Q 1922 2828 1872 2828 
Q 1447 2828 1219 2554 
Q 991 2281 991 1925 
L 991 0 
L 428 0 
L 428 3347 
z
" id="Helvetica-72" transform="scale(0.015625)"/>
       <path d="M 369 4606 
L 916 4606 
L 916 2941 
Q 1100 3181 1356 3307 
Q 1613 3434 1913 3434 
Q 2538 3434 2927 3004 
Q 3316 2575 3316 1738 
Q 3316 944 2931 419 
Q 2547 -106 1866 -106 
Q 1484 -106 1222 78 
Q 1066 188 888 428 
L 888 0 
L 369 0 
L 369 4606 
z
M 1831 391 
Q 2288 391 2514 753 
Q 2741 1116 2741 1709 
Q 2741 2238 2514 2584 
Q 2288 2931 1847 2931 
Q 1463 2931 1173 2647 
Q 884 2363 884 1709 
Q 884 1238 1003 944 
Q 1225 391 1831 391 
z
" id="Helvetica-62" transform="scale(0.015625)"/>
       <path d="M 844 891 
Q 844 647 1022 506 
Q 1200 366 1444 366 
Q 1741 366 2019 503 
Q 2488 731 2488 1250 
L 2488 1703 
Q 2384 1638 2221 1594 
Q 2059 1550 1903 1531 
L 1563 1488 
Q 1256 1447 1103 1359 
Q 844 1213 844 891 
z
M 2206 2028 
Q 2400 2053 2466 2191 
Q 2503 2266 2503 2406 
Q 2503 2694 2298 2823 
Q 2094 2953 1713 2953 
Q 1272 2953 1088 2716 
Q 984 2584 953 2325 
L 428 2325 
Q 444 2944 830 3186 
Q 1216 3428 1725 3428 
Q 2316 3428 2684 3203 
Q 3050 2978 3050 2503 
L 3050 575 
Q 3050 488 3086 434 
Q 3122 381 3238 381 
Q 3275 381 3322 386 
Q 3369 391 3422 400 
L 3422 -16 
Q 3291 -53 3222 -62 
Q 3153 -72 3034 -72 
Q 2744 -72 2613 134 
Q 2544 244 2516 444 
Q 2344 219 2022 53 
Q 1700 -113 1313 -113 
Q 847 -113 551 170 
Q 256 453 256 878 
Q 256 1344 547 1600 
Q 838 1856 1309 1916 
L 2206 2028 
z
M 1741 3428 
L 1741 3428 
z
" id="Helvetica-61" transform="scale(0.015625)"/>
       <path d="M 428 4591 
L 991 4591 
L 991 0 
L 428 0 
L 428 4591 
z
" id="Helvetica-6c" transform="scale(0.015625)"/>
       <path d="M 2503 3347 
L 3125 3347 
Q 3006 3025 2597 1878 
Q 2291 1016 2084 472 
Q 1597 -809 1397 -1090 
Q 1197 -1372 709 -1372 
Q 591 -1372 527 -1362 
Q 463 -1353 369 -1328 
L 369 -816 
Q 516 -856 581 -865 
Q 647 -875 697 -875 
Q 853 -875 926 -823 
Q 1000 -772 1050 -697 
Q 1066 -672 1162 -440 
Q 1259 -209 1303 -97 
L 66 3347 
L 703 3347 
L 1600 622 
L 2503 3347 
z
M 1597 3428 
L 1597 3428 
z
" id="Helvetica-79" transform="scale(0.015625)"/>
      </defs>
      <use xlink:href="#Helvetica-50"/>
      <use x="66.699219" xlink:href="#Helvetica-72"/>
      <use x="100" xlink:href="#Helvetica-6f"/>
      <use x="155.615234" xlink:href="#Helvetica-62"/>
      <use x="211.230469" xlink:href="#Helvetica-61"/>
      <use x="266.845703" xlink:href="#Helvetica-62"/>
      <use x="322.460938" xlink:href="#Helvetica-69"/>
      <use x="344.677734" xlink:href="#Helvetica-6c"/>
      <use x="366.894531" xlink:href="#Helvetica-69"/>
      <use x="389.111328" xlink:href="#Helvetica-74"/>
      <use x="416.894531" xlink:href="#Helvetica-79"/>
     </g>
    </g>
   </g>
   <g id="patch_71">
    <path d="M 94.94 141.64 
L 94.94 28.8 
" style="fill:none;stroke:#000000;stroke-linecap:square;stroke-linejoin:miter;"/>
   </g>
  </g>
 </g>
 <defs>
  <clipPath id="p1c125c0f72">
   <rect height="112.84" width="189.46" x="94.94" y="28.8"/>
  </clipPath>
 </defs>
</svg>
