<?xml version="1.0" encoding="utf-8" standalone="no"?>
<!DOCTYPE svg PUBLIC "-//W3C//DTD SVG 1.1//EN"
  "http://www.w3.org/Graphics/SVG/1.1/DTD/svg11.dtd">
<svg height="288pt" version="1.1" viewBox="0 0 432 288" width="432pt" xmlns="http://www.w3.org/2000/svg" xmlns:xlink="http://www.w3.org/1999/xlink">
 <metadata>
  <rdf:RDF xmlns:cc="http://creativecommons.org/ns#" xmlns:dc="http://purl.org/dc/elements/1.1/" xmlns:rdf="http://www.w3.org/1999/02/22-rdf-syntax-ns#">
   <cc:Work>
    <dc:type rdf:resource="http://purl.org/dc/dcmitype/StillImage"/>
    <dc:date>2021-12-20T22:24:00.062844</dc:date>
    <dc:format>image/svg+xml</dc:format>
    <dc:creator>
     <cc:Agent>
      <dc:title>Matplotlib v3.4.2, https://matplotlib.org/</dc:title>
     </cc:Agent>
    </dc:creator>
   </cc:Work>
  </rdf:RDF>
 </metadata>
 <defs>
  <style type="text/css">*{stroke-linecap:butt;stroke-linejoin:round;}</style>
 </defs>
 <g id="figure_1">
  <g id="patch_1">
   <path d="M 0 288 
L 432 288 
L 432 0 
L 0 0 
z
" style="fill:#ffffff;"/>
  </g>
  <g id="axes_1">
   <g id="patch_2">
    <path d="M 85.63 211.94 
L 410.4 211.94 
L 410.4 21.6 
L 85.63 21.6 
z
" style="fill:#ffffff;"/>
   </g>
   <g id="matplotlib.axis_1">
    <g id="xtick_1">
     <g id="line2d_1">
      <path clip-path="url(#p741582a082)" d="M 100.392273 211.94 
L 100.392273 21.6 
" style="fill:none;stroke:#cccccc;stroke-linecap:round;stroke-width:0.8;"/>
     </g>
     <g id="text_1">
      <!-- 0 -->
      <g style="fill:#262626;" transform="translate(94.831335 239.786875)scale(0.2 -0.2)">
       <defs>
        <path d="M 1731 4475 
Q 2600 4475 2988 3759 
Q 3288 3206 3288 2244 
Q 3288 1331 3016 734 
Q 2622 -122 1728 -122 
Q 922 -122 528 578 
Q 200 1163 200 2147 
Q 200 2909 397 3456 
Q 766 4475 1731 4475 
z
M 1725 391 
Q 2163 391 2422 778 
Q 2681 1166 2681 2222 
Q 2681 2984 2493 3476 
Q 2306 3969 1766 3969 
Q 1269 3969 1039 3501 
Q 809 3034 809 2125 
Q 809 1441 956 1025 
Q 1181 391 1725 391 
z
" id="Helvetica-30" transform="scale(0.015625)"/>
       </defs>
       <use xlink:href="#Helvetica-30"/>
      </g>
     </g>
    </g>
    <g id="xtick_2">
     <g id="line2d_2">
      <path clip-path="url(#p741582a082)" d="M 284.920682 211.94 
L 284.920682 21.6 
" style="fill:none;stroke:#cccccc;stroke-linecap:round;stroke-width:0.8;"/>
     </g>
     <g id="text_2">
      <!-- 10 -->
      <g style="fill:#262626;" transform="translate(273.798807 239.786875)scale(0.2 -0.2)">
       <defs>
        <path d="M 613 3169 
L 613 3600 
Q 1222 3659 1462 3798 
Q 1703 3938 1822 4456 
L 2266 4456 
L 2266 0 
L 1666 0 
L 1666 3169 
L 613 3169 
z
" id="Helvetica-31" transform="scale(0.015625)"/>
       </defs>
       <use xlink:href="#Helvetica-31"/>
       <use x="55.615234" xlink:href="#Helvetica-30"/>
      </g>
     </g>
    </g>
    <g id="text_3">
     <!-- Position -->
     <g style="fill:#262626;" transform="translate(212.44 262.3025)scale(0.2 -0.2)">
      <defs>
       <path d="M 547 4591 
L 2613 4591 
Q 3225 4591 3600 4245 
Q 3975 3900 3975 3275 
Q 3975 2738 3640 2339 
Q 3306 1941 2613 1941 
L 1169 1941 
L 1169 0 
L 547 0 
L 547 4591 
z
M 3347 3272 
Q 3347 3778 2972 3959 
Q 2766 4056 2406 4056 
L 1169 4056 
L 1169 2466 
L 2406 2466 
Q 2825 2466 3086 2644 
Q 3347 2822 3347 3272 
z
" id="Helvetica-50" transform="scale(0.015625)"/>
       <path d="M 1741 363 
Q 2300 363 2508 786 
Q 2716 1209 2716 1728 
Q 2716 2197 2566 2491 
Q 2328 2953 1747 2953 
Q 1231 2953 997 2559 
Q 763 2166 763 1609 
Q 763 1075 997 719 
Q 1231 363 1741 363 
z
M 1763 3444 
Q 2409 3444 2856 3012 
Q 3303 2581 3303 1744 
Q 3303 934 2909 406 
Q 2516 -122 1688 -122 
Q 997 -122 590 345 
Q 184 813 184 1600 
Q 184 2444 612 2944 
Q 1041 3444 1763 3444 
z
M 1744 3428 
L 1744 3428 
z
" id="Helvetica-6f" transform="scale(0.015625)"/>
       <path d="M 747 1050 
Q 772 769 888 619 
Q 1100 347 1625 347 
Q 1938 347 2175 483 
Q 2413 619 2413 903 
Q 2413 1119 2222 1231 
Q 2100 1300 1741 1391 
L 1294 1503 
Q 866 1609 663 1741 
Q 300 1969 300 2372 
Q 300 2847 642 3140 
Q 984 3434 1563 3434 
Q 2319 3434 2653 2991 
Q 2863 2709 2856 2384 
L 2325 2384 
Q 2309 2575 2191 2731 
Q 1997 2953 1519 2953 
Q 1200 2953 1036 2831 
Q 872 2709 872 2509 
Q 872 2291 1088 2159 
Q 1213 2081 1456 2022 
L 1828 1931 
Q 2434 1784 2641 1647 
Q 2969 1431 2969 969 
Q 2969 522 2630 197 
Q 2291 -128 1597 -128 
Q 850 -128 539 211 
Q 228 550 206 1050 
L 747 1050 
z
M 1578 3428 
L 1578 3428 
z
" id="Helvetica-73" transform="scale(0.015625)"/>
       <path d="M 413 3331 
L 984 3331 
L 984 0 
L 413 0 
L 413 3331 
z
M 413 4591 
L 984 4591 
L 984 3953 
L 413 3953 
L 413 4591 
z
" id="Helvetica-69" transform="scale(0.015625)"/>
       <path d="M 525 4281 
L 1094 4281 
L 1094 3347 
L 1628 3347 
L 1628 2888 
L 1094 2888 
L 1094 703 
Q 1094 528 1213 469 
Q 1278 434 1431 434 
Q 1472 434 1519 436 
Q 1566 438 1628 444 
L 1628 0 
Q 1531 -28 1426 -40 
Q 1322 -53 1200 -53 
Q 806 -53 665 148 
Q 525 350 525 672 
L 525 2888 
L 72 2888 
L 72 3347 
L 525 3347 
L 525 4281 
z
" id="Helvetica-74" transform="scale(0.015625)"/>
       <path d="M 413 3347 
L 947 3347 
L 947 2872 
Q 1184 3166 1450 3294 
Q 1716 3422 2041 3422 
Q 2753 3422 3003 2925 
Q 3141 2653 3141 2147 
L 3141 0 
L 2569 0 
L 2569 2109 
Q 2569 2416 2478 2603 
Q 2328 2916 1934 2916 
Q 1734 2916 1606 2875 
Q 1375 2806 1200 2600 
Q 1059 2434 1017 2257 
Q 975 2081 975 1753 
L 975 0 
L 413 0 
L 413 3347 
z
M 1734 3428 
L 1734 3428 
z
" id="Helvetica-6e" transform="scale(0.015625)"/>
      </defs>
      <use xlink:href="#Helvetica-50"/>
      <use x="66.699219" xlink:href="#Helvetica-6f"/>
      <use x="122.314453" xlink:href="#Helvetica-73"/>
      <use x="172.314453" xlink:href="#Helvetica-69"/>
      <use x="194.53125" xlink:href="#Helvetica-74"/>
      <use x="222.314453" xlink:href="#Helvetica-69"/>
      <use x="244.53125" xlink:href="#Helvetica-6f"/>
      <use x="300.146484" xlink:href="#Helvetica-6e"/>
     </g>
    </g>
   </g>
   <g id="matplotlib.axis_2">
    <g id="ytick_1">
     <g id="line2d_3">
      <path clip-path="url(#p741582a082)" d="M 85.63 206.804312 
L 410.4 206.804312 
" style="fill:none;stroke:#cccccc;stroke-linecap:round;stroke-width:0.8;"/>
     </g>
     <g id="text_4">
      <!-- 0.0 -->
      <g style="fill:#262626;" transform="translate(44.33 213.97775)scale(0.2 -0.2)">
       <defs>
        <path d="M 547 681 
L 1200 681 
L 1200 0 
L 547 0 
L 547 681 
z
" id="Helvetica-2e" transform="scale(0.015625)"/>
       </defs>
       <use xlink:href="#Helvetica-30"/>
       <use x="55.615234" xlink:href="#Helvetica-2e"/>
       <use x="83.398438" xlink:href="#Helvetica-30"/>
      </g>
     </g>
    </g>
    <g id="ytick_2">
     <g id="line2d_4">
      <path clip-path="url(#p741582a082)" d="M 85.63 128.201353 
L 410.4 128.201353 
" style="fill:none;stroke:#cccccc;stroke-linecap:round;stroke-width:0.8;"/>
     </g>
     <g id="text_5">
      <!-- 0.2 -->
      <g style="fill:#262626;" transform="translate(44.33 135.374791)scale(0.2 -0.2)">
       <defs>
        <path d="M 200 0 
Q 231 578 439 1006 
Q 647 1434 1250 1784 
L 1850 2131 
Q 2253 2366 2416 2531 
Q 2672 2791 2672 3125 
Q 2672 3516 2437 3745 
Q 2203 3975 1813 3975 
Q 1234 3975 1013 3538 
Q 894 3303 881 2888 
L 309 2888 
Q 319 3472 525 3841 
Q 891 4491 1816 4491 
Q 2584 4491 2939 4075 
Q 3294 3659 3294 3150 
Q 3294 2613 2916 2231 
Q 2697 2009 2131 1694 
L 1703 1456 
Q 1397 1288 1222 1134 
Q 909 863 828 531 
L 3272 531 
L 3272 0 
L 200 0 
z
" id="Helvetica-32" transform="scale(0.015625)"/>
       </defs>
       <use xlink:href="#Helvetica-30"/>
       <use x="55.615234" xlink:href="#Helvetica-2e"/>
       <use x="83.398438" xlink:href="#Helvetica-32"/>
      </g>
     </g>
    </g>
    <g id="ytick_3">
     <g id="line2d_5">
      <path clip-path="url(#p741582a082)" d="M 85.63 49.598394 
L 410.4 49.598394 
" style="fill:none;stroke:#cccccc;stroke-linecap:round;stroke-width:0.8;"/>
     </g>
     <g id="text_6">
      <!-- 0.4 -->
      <g style="fill:#262626;" transform="translate(44.33 56.771832)scale(0.2 -0.2)">
       <defs>
        <path d="M 2116 1584 
L 2116 3613 
L 681 1584 
L 2116 1584 
z
M 2125 0 
L 2125 1094 
L 163 1094 
L 163 1644 
L 2213 4488 
L 2688 4488 
L 2688 1584 
L 3347 1584 
L 3347 1094 
L 2688 1094 
L 2688 0 
L 2125 0 
z
" id="Helvetica-34" transform="scale(0.015625)"/>
       </defs>
       <use xlink:href="#Helvetica-30"/>
       <use x="55.615234" xlink:href="#Helvetica-2e"/>
       <use x="83.398438" xlink:href="#Helvetica-34"/>
      </g>
     </g>
    </g>
    <g id="text_7">
     <!-- Std Dev of 1bp Mismatch -->
     <g style="fill:#262626;" transform="translate(36.16125 228.477812)rotate(-90)scale(0.2 -0.2)">
      <defs>
       <path d="M 894 1481 
Q 916 1091 1078 847 
Q 1388 391 2169 391 
Q 2519 391 2806 491 
Q 3363 684 3363 1184 
Q 3363 1559 3128 1719 
Q 2891 1875 2384 1991 
L 1763 2131 
Q 1153 2269 900 2434 
Q 463 2722 463 3294 
Q 463 3913 891 4309 
Q 1319 4706 2103 4706 
Q 2825 4706 3329 4357 
Q 3834 4009 3834 3244 
L 3250 3244 
Q 3203 3613 3050 3809 
Q 2766 4169 2084 4169 
Q 1534 4169 1293 3937 
Q 1053 3706 1053 3400 
Q 1053 3063 1334 2906 
Q 1519 2806 2169 2656 
L 2813 2509 
Q 3278 2403 3531 2219 
Q 3969 1897 3969 1284 
Q 3969 522 3414 194 
Q 2859 -134 2125 -134 
Q 1269 -134 784 303 
Q 300 738 309 1481 
L 894 1481 
z
M 2150 4716 
L 2150 4716 
z
" id="Helvetica-53" transform="scale(0.015625)"/>
       <path d="M 769 1634 
Q 769 1097 997 734 
Q 1225 372 1728 372 
Q 2119 372 2370 708 
Q 2622 1044 2622 1672 
Q 2622 2306 2362 2611 
Q 2103 2916 1722 2916 
Q 1297 2916 1033 2591 
Q 769 2266 769 1634 
z
M 1616 3406 
Q 2000 3406 2259 3244 
Q 2409 3150 2600 2916 
L 2600 4606 
L 3141 4606 
L 3141 0 
L 2634 0 
L 2634 466 
Q 2438 156 2169 18 
Q 1900 -119 1553 -119 
Q 994 -119 584 351 
Q 175 822 175 1603 
Q 175 2334 548 2870 
Q 922 3406 1616 3406 
z
" id="Helvetica-64" transform="scale(0.015625)"/>
       <path id="Helvetica-20" transform="scale(0.015625)"/>
       <path d="M 2250 531 
Q 2566 531 2769 597 
Q 3131 719 3363 1066 
Q 3547 1344 3628 1778 
Q 3675 2038 3675 2259 
Q 3675 3113 3336 3584 
Q 2997 4056 2244 4056 
L 1141 4056 
L 1141 531 
L 2250 531 
z
M 516 4591 
L 2375 4591 
Q 3322 4591 3844 3919 
Q 4309 3313 4309 2366 
Q 4309 1634 4034 1044 
Q 3550 0 2369 0 
L 516 0 
L 516 4591 
z
" id="Helvetica-44" transform="scale(0.015625)"/>
       <path d="M 1806 3422 
Q 2163 3422 2497 3255 
Q 2831 3088 3006 2822 
Q 3175 2569 3231 2231 
Q 3281 2000 3281 1494 
L 828 1494 
Q 844 984 1069 676 
Q 1294 369 1766 369 
Q 2206 369 2469 659 
Q 2619 828 2681 1050 
L 3234 1050 
Q 3213 866 3089 639 
Q 2966 413 2813 269 
Q 2556 19 2178 -69 
Q 1975 -119 1719 -119 
Q 1094 -119 659 336 
Q 225 791 225 1609 
Q 225 2416 662 2919 
Q 1100 3422 1806 3422 
z
M 2703 1941 
Q 2669 2306 2544 2525 
Q 2313 2931 1772 2931 
Q 1384 2931 1121 2651 
Q 859 2372 844 1941 
L 2703 1941 
z
M 1753 3428 
L 1753 3428 
z
" id="Helvetica-65" transform="scale(0.015625)"/>
       <path d="M 688 3347 
L 1581 622 
L 2516 3347 
L 3131 3347 
L 1869 0 
L 1269 0 
L 34 3347 
L 688 3347 
z
" id="Helvetica-76" transform="scale(0.015625)"/>
       <path d="M 553 3856 
Q 566 4206 675 4369 
Q 872 4656 1434 4656 
Q 1488 4656 1544 4653 
Q 1600 4650 1672 4644 
L 1672 4131 
Q 1584 4138 1545 4139 
Q 1506 4141 1472 4141 
Q 1216 4141 1166 4008 
Q 1116 3875 1116 3331 
L 1672 3331 
L 1672 2888 
L 1109 2888 
L 1109 0 
L 553 0 
L 553 2888 
L 88 2888 
L 88 3331 
L 553 3331 
L 553 3856 
z
" id="Helvetica-66" transform="scale(0.015625)"/>
       <path d="M 369 4606 
L 916 4606 
L 916 2941 
Q 1100 3181 1356 3307 
Q 1613 3434 1913 3434 
Q 2538 3434 2927 3004 
Q 3316 2575 3316 1738 
Q 3316 944 2931 419 
Q 2547 -106 1866 -106 
Q 1484 -106 1222 78 
Q 1066 188 888 428 
L 888 0 
L 369 0 
L 369 4606 
z
M 1831 391 
Q 2288 391 2514 753 
Q 2741 1116 2741 1709 
Q 2741 2238 2514 2584 
Q 2288 2931 1847 2931 
Q 1463 2931 1173 2647 
Q 884 2363 884 1709 
Q 884 1238 1003 944 
Q 1225 391 1831 391 
z
" id="Helvetica-62" transform="scale(0.015625)"/>
       <path d="M 1825 378 
Q 2219 378 2480 708 
Q 2741 1038 2741 1694 
Q 2741 2094 2625 2381 
Q 2406 2934 1825 2934 
Q 1241 2934 1025 2350 
Q 909 2038 909 1556 
Q 909 1169 1025 897 
Q 1244 378 1825 378 
z
M 369 3331 
L 916 3331 
L 916 2888 
Q 1084 3116 1284 3241 
Q 1569 3428 1953 3428 
Q 2522 3428 2919 2992 
Q 3316 2556 3316 1747 
Q 3316 653 2744 184 
Q 2381 -113 1900 -113 
Q 1522 -113 1266 53 
Q 1116 147 931 375 
L 931 -1334 
L 369 -1334 
L 369 3331 
z
" id="Helvetica-70" transform="scale(0.015625)"/>
       <path d="M 472 4591 
L 1363 4591 
L 2681 709 
L 3991 4591 
L 4872 4591 
L 4872 0 
L 4281 0 
L 4281 2709 
Q 4281 2850 4287 3175 
Q 4294 3500 4294 3872 
L 2984 0 
L 2369 0 
L 1050 3872 
L 1050 3731 
Q 1050 3563 1058 3217 
Q 1066 2872 1066 2709 
L 1066 0 
L 472 0 
L 472 4591 
z
" id="Helvetica-4d" transform="scale(0.015625)"/>
       <path d="M 413 3347 
L 969 3347 
L 969 2872 
Q 1169 3119 1331 3231 
Q 1609 3422 1963 3422 
Q 2363 3422 2606 3225 
Q 2744 3113 2856 2894 
Q 3044 3163 3297 3292 
Q 3550 3422 3866 3422 
Q 4541 3422 4784 2934 
Q 4916 2672 4916 2228 
L 4916 0 
L 4331 0 
L 4331 2325 
Q 4331 2659 4164 2784 
Q 3997 2909 3756 2909 
Q 3425 2909 3186 2687 
Q 2947 2466 2947 1947 
L 2947 0 
L 2375 0 
L 2375 2184 
Q 2375 2525 2294 2681 
Q 2166 2916 1816 2916 
Q 1497 2916 1236 2669 
Q 975 2422 975 1775 
L 975 0 
L 413 0 
L 413 3347 
z
" id="Helvetica-6d" transform="scale(0.015625)"/>
       <path d="M 844 891 
Q 844 647 1022 506 
Q 1200 366 1444 366 
Q 1741 366 2019 503 
Q 2488 731 2488 1250 
L 2488 1703 
Q 2384 1638 2221 1594 
Q 2059 1550 1903 1531 
L 1563 1488 
Q 1256 1447 1103 1359 
Q 844 1213 844 891 
z
M 2206 2028 
Q 2400 2053 2466 2191 
Q 2503 2266 2503 2406 
Q 2503 2694 2298 2823 
Q 2094 2953 1713 2953 
Q 1272 2953 1088 2716 
Q 984 2584 953 2325 
L 428 2325 
Q 444 2944 830 3186 
Q 1216 3428 1725 3428 
Q 2316 3428 2684 3203 
Q 3050 2978 3050 2503 
L 3050 575 
Q 3050 488 3086 434 
Q 3122 381 3238 381 
Q 3275 381 3322 386 
Q 3369 391 3422 400 
L 3422 -16 
Q 3291 -53 3222 -62 
Q 3153 -72 3034 -72 
Q 2744 -72 2613 134 
Q 2544 244 2516 444 
Q 2344 219 2022 53 
Q 1700 -113 1313 -113 
Q 847 -113 551 170 
Q 256 453 256 878 
Q 256 1344 547 1600 
Q 838 1856 1309 1916 
L 2206 2028 
z
M 1741 3428 
L 1741 3428 
z
" id="Helvetica-61" transform="scale(0.015625)"/>
       <path d="M 1703 3444 
Q 2269 3444 2623 3169 
Q 2978 2894 3050 2222 
L 2503 2222 
Q 2453 2531 2275 2736 
Q 2097 2941 1703 2941 
Q 1166 2941 934 2416 
Q 784 2075 784 1575 
Q 784 1072 996 728 
Q 1209 384 1666 384 
Q 2016 384 2220 598 
Q 2425 813 2503 1184 
L 3050 1184 
Q 2956 519 2581 211 
Q 2206 -97 1622 -97 
Q 966 -97 575 383 
Q 184 863 184 1581 
Q 184 2463 612 2953 
Q 1041 3444 1703 3444 
z
M 1616 3428 
L 1616 3428 
z
" id="Helvetica-63" transform="scale(0.015625)"/>
       <path d="M 413 4606 
L 975 4606 
L 975 2894 
Q 1175 3147 1334 3250 
Q 1606 3428 2013 3428 
Q 2741 3428 3000 2919 
Q 3141 2641 3141 2147 
L 3141 0 
L 2563 0 
L 2563 2109 
Q 2563 2478 2469 2650 
Q 2316 2925 1894 2925 
Q 1544 2925 1259 2684 
Q 975 2444 975 1775 
L 975 0 
L 413 0 
L 413 4606 
z
" id="Helvetica-68" transform="scale(0.015625)"/>
      </defs>
      <use xlink:href="#Helvetica-53"/>
      <use x="66.699219" xlink:href="#Helvetica-74"/>
      <use x="94.482422" xlink:href="#Helvetica-64"/>
      <use x="150.097656" xlink:href="#Helvetica-20"/>
      <use x="177.880859" xlink:href="#Helvetica-44"/>
      <use x="250.097656" xlink:href="#Helvetica-65"/>
      <use x="305.712891" xlink:href="#Helvetica-76"/>
      <use x="355.712891" xlink:href="#Helvetica-20"/>
      <use x="383.496094" xlink:href="#Helvetica-6f"/>
      <use x="439.111328" xlink:href="#Helvetica-66"/>
      <use x="466.894531" xlink:href="#Helvetica-20"/>
      <use x="494.677734" xlink:href="#Helvetica-31"/>
      <use x="550.292969" xlink:href="#Helvetica-62"/>
      <use x="605.908203" xlink:href="#Helvetica-70"/>
      <use x="661.523438" xlink:href="#Helvetica-20"/>
      <use x="689.306641" xlink:href="#Helvetica-4d"/>
      <use x="772.607422" xlink:href="#Helvetica-69"/>
      <use x="794.824219" xlink:href="#Helvetica-73"/>
      <use x="844.824219" xlink:href="#Helvetica-6d"/>
      <use x="928.125" xlink:href="#Helvetica-61"/>
      <use x="983.740234" xlink:href="#Helvetica-74"/>
      <use x="1011.523438" xlink:href="#Helvetica-63"/>
      <use x="1061.523438" xlink:href="#Helvetica-68"/>
     </g>
    </g>
   </g>
   <g id="PolyCollection_1">
    <defs>
     <path d="M 100.392273 -135.638094 
L 100.392273 -105.844977 
L 118.845114 -121.449083 
L 137.297955 -140.454043 
L 155.750795 -142.643172 
L 174.203636 -149.985459 
L 192.656477 -152.338472 
L 211.109318 -145.707592 
L 229.562159 -154.656763 
L 248.015 -146.925162 
L 266.467841 -125.62704 
L 284.920682 -119.685198 
L 303.373523 -111.563377 
L 321.826364 -112.597022 
L 340.279205 -108.688662 
L 358.732045 -127.855102 
L 377.184886 -127.022706 
L 395.637727 -170.527591 
L 395.637727 -210.050574 
L 395.637727 -210.050574 
L 377.184886 -161.96311 
L 358.732045 -161.80502 
L 340.279205 -139.075085 
L 321.826364 -144.60664 
L 303.373523 -142.481045 
L 284.920682 -152.430344 
L 266.467841 -160.914512 
L 248.015 -187.686344 
L 229.562159 -194.385518 
L 211.109318 -181.72269 
L 192.656477 -192.623994 
L 174.203636 -190.817753 
L 155.750795 -180.803896 
L 137.297955 -177.670729 
L 118.845114 -154.596607 
L 100.392273 -135.638094 
z
" id="m7755d7f82c" style="stroke:#ff8c00;stroke-opacity:0.2;"/>
    </defs>
    <g clip-path="url(#p741582a082)">
     <use style="fill:#ff8c00;fill-opacity:0.2;stroke:#ff8c00;stroke-opacity:0.2;" x="0" xlink:href="#m7755d7f82c" y="288"/>
    </g>
   </g>
   <g id="PolyCollection_2">
    <defs>
     <path d="M 100.392273 -103.610973 
L 100.392273 -84.711818 
L 118.845114 -89.50403 
L 137.297955 -96.661419 
L 155.750795 -122.303873 
L 174.203636 -129.417731 
L 192.656477 -160.877325 
L 211.109318 -166.211565 
L 229.562159 -170.942664 
L 248.015 -165.084346 
L 266.467841 -136.755975 
L 284.920682 -98.867123 
L 303.373523 -95.125767 
L 321.826364 -95.671765 
L 340.279205 -97.93546 
L 358.732045 -88.424957 
L 377.184886 -92.383735 
L 395.637727 -122.372554 
L 395.637727 -156.305836 
L 395.637727 -156.305836 
L 377.184886 -116.360704 
L 358.732045 -110.108658 
L 340.279205 -124.423411 
L 321.826364 -121.98605 
L 303.373523 -120.425888 
L 284.920682 -128.233474 
L 266.467841 -173.941306 
L 248.015 -202.128521 
L 229.562159 -215.6033 
L 211.109318 -207.399039 
L 192.656477 -201.337052 
L 174.203636 -165.077852 
L 155.750795 -155.039265 
L 137.297955 -122.820384 
L 118.845114 -111.380113 
L 100.392273 -103.610973 
z
" id="m77bac8845a" style="stroke:#808080;stroke-opacity:0.2;"/>
    </defs>
    <g clip-path="url(#p741582a082)">
     <use style="fill:#808080;fill-opacity:0.2;stroke:#808080;stroke-opacity:0.2;" x="0" xlink:href="#m77bac8845a" y="288"/>
    </g>
   </g>
   <g id="PolyCollection_3">
    <defs>
     <path d="M 100.392273 -168.463689 
L 100.392273 -133.513417 
L 118.845114 -142.011172 
L 137.297955 -169.657156 
L 155.750795 -156.794617 
L 174.203636 -173.99649 
L 192.656477 -188.787124 
L 211.109318 -189.765075 
L 229.562159 -204.965869 
L 248.015 -202.513091 
L 266.467841 -161.780624 
L 284.920682 -154.692518 
L 303.373523 -157.156108 
L 321.826364 -131.405812 
L 340.279205 -143.488993 
L 358.732045 -174.131719 
L 377.184886 -161.40457 
L 395.637727 -201.164619 
L 395.637727 -239.464282 
L 395.637727 -239.464282 
L 377.184886 -199.906395 
L 358.732045 -208.761071 
L 340.279205 -178.909761 
L 321.826364 -166.923318 
L 303.373523 -192.47151 
L 284.920682 -192.240737 
L 266.467841 -202.259641 
L 248.015 -242.952237 
L 229.562159 -246.970471 
L 211.109318 -230.910704 
L 192.656477 -227.258975 
L 174.203636 -214.77531 
L 155.750795 -193.644578 
L 137.297955 -208.042976 
L 118.845114 -177.510514 
L 100.392273 -168.463689 
z
" id="m8e15e6472b" style="stroke:#f4a460;stroke-opacity:0.2;"/>
    </defs>
    <g clip-path="url(#p741582a082)">
     <use style="fill:#f4a460;fill-opacity:0.2;stroke:#f4a460;stroke-opacity:0.2;" x="0" xlink:href="#m8e15e6472b" y="288"/>
    </g>
   </g>
   <g id="PolyCollection_4">
    <defs>
     <path d="M 100.392273 -146.913241 
L 100.392273 -114.991477 
L 118.845114 -112.249684 
L 137.297955 -153.447154 
L 155.750795 -166.93963 
L 174.203636 -160.688124 
L 192.656477 -210.725627 
L 211.109318 -224.102788 
L 229.562159 -206.316381 
L 248.015 -191.480066 
L 266.467841 -168.892047 
L 284.920682 -145.874804 
L 303.373523 -134.57366 
L 321.826364 -123.41028 
L 340.279205 -131.643616 
L 358.732045 -141.971893 
L 377.184886 -128.798837 
L 395.637727 -159.891602 
L 395.637727 -197.06214 
L 395.637727 -197.06214 
L 377.184886 -165.358643 
L 358.732045 -178.030898 
L 340.279205 -168.75387 
L 321.826364 -157.092098 
L 303.373523 -171.092092 
L 284.920682 -184.799706 
L 266.467841 -210.242805 
L 248.015 -232.234093 
L 229.562159 -245.665394 
L 211.109318 -257.748182 
L 192.656477 -249.406247 
L 174.203636 -200.571675 
L 155.750795 -203.818881 
L 137.297955 -191.568378 
L 118.845114 -143.900899 
L 100.392273 -146.913241 
z
" id="m7a8c3b50b5" style="stroke:#556b2f;stroke-opacity:0.2;"/>
    </defs>
    <g clip-path="url(#p741582a082)">
     <use style="fill:#556b2f;fill-opacity:0.2;stroke:#556b2f;stroke-opacity:0.2;" x="0" xlink:href="#m7a8c3b50b5" y="288"/>
    </g>
   </g>
   <g id="line2d_6">
    <path clip-path="url(#p741582a082)" d="M 100.392273 167.258465 
L 118.845114 149.977155 
L 137.297955 128.937614 
L 155.750795 126.276466 
L 174.203636 117.598394 
L 192.656477 115.518767 
L 211.109318 124.284859 
L 229.562159 113.478859 
L 248.015 120.694247 
L 266.467841 144.729224 
L 284.920682 151.942229 
L 303.373523 160.977789 
L 321.826364 159.398169 
L 340.279205 164.118127 
L 358.732045 143.169939 
L 377.184886 143.507092 
L 395.637727 97.710917 
" style="fill:none;stroke:#ff8c00;stroke-linecap:round;stroke-opacity:0.8;stroke-width:0.7;"/>
    <defs>
     <path d="M 0 -2.5 
L -2.5 2.5 
L 2.5 2.5 
z
" id="m6fde2e434e" style="stroke:#000000;stroke-linejoin:miter;stroke-opacity:0.8;"/>
    </defs>
    <g clip-path="url(#p741582a082)">
     <use style="fill:#ff8c00;fill-opacity:0.8;stroke:#000000;stroke-linejoin:miter;stroke-opacity:0.8;" x="100.392273" xlink:href="#m6fde2e434e" y="167.258465"/>
     <use style="fill:#ff8c00;fill-opacity:0.8;stroke:#000000;stroke-linejoin:miter;stroke-opacity:0.8;" x="118.845114" xlink:href="#m6fde2e434e" y="149.977155"/>
     <use style="fill:#ff8c00;fill-opacity:0.8;stroke:#000000;stroke-linejoin:miter;stroke-opacity:0.8;" x="137.297955" xlink:href="#m6fde2e434e" y="128.937614"/>
     <use style="fill:#ff8c00;fill-opacity:0.8;stroke:#000000;stroke-linejoin:miter;stroke-opacity:0.8;" x="155.750795" xlink:href="#m6fde2e434e" y="126.276466"/>
     <use style="fill:#ff8c00;fill-opacity:0.8;stroke:#000000;stroke-linejoin:miter;stroke-opacity:0.8;" x="174.203636" xlink:href="#m6fde2e434e" y="117.598394"/>
     <use style="fill:#ff8c00;fill-opacity:0.8;stroke:#000000;stroke-linejoin:miter;stroke-opacity:0.8;" x="192.656477" xlink:href="#m6fde2e434e" y="115.518767"/>
     <use style="fill:#ff8c00;fill-opacity:0.8;stroke:#000000;stroke-linejoin:miter;stroke-opacity:0.8;" x="211.109318" xlink:href="#m6fde2e434e" y="124.284859"/>
     <use style="fill:#ff8c00;fill-opacity:0.8;stroke:#000000;stroke-linejoin:miter;stroke-opacity:0.8;" x="229.562159" xlink:href="#m6fde2e434e" y="113.478859"/>
     <use style="fill:#ff8c00;fill-opacity:0.8;stroke:#000000;stroke-linejoin:miter;stroke-opacity:0.8;" x="248.015" xlink:href="#m6fde2e434e" y="120.694247"/>
     <use style="fill:#ff8c00;fill-opacity:0.8;stroke:#000000;stroke-linejoin:miter;stroke-opacity:0.8;" x="266.467841" xlink:href="#m6fde2e434e" y="144.729224"/>
     <use style="fill:#ff8c00;fill-opacity:0.8;stroke:#000000;stroke-linejoin:miter;stroke-opacity:0.8;" x="284.920682" xlink:href="#m6fde2e434e" y="151.942229"/>
     <use style="fill:#ff8c00;fill-opacity:0.8;stroke:#000000;stroke-linejoin:miter;stroke-opacity:0.8;" x="303.373523" xlink:href="#m6fde2e434e" y="160.977789"/>
     <use style="fill:#ff8c00;fill-opacity:0.8;stroke:#000000;stroke-linejoin:miter;stroke-opacity:0.8;" x="321.826364" xlink:href="#m6fde2e434e" y="159.398169"/>
     <use style="fill:#ff8c00;fill-opacity:0.8;stroke:#000000;stroke-linejoin:miter;stroke-opacity:0.8;" x="340.279205" xlink:href="#m6fde2e434e" y="164.118127"/>
     <use style="fill:#ff8c00;fill-opacity:0.8;stroke:#000000;stroke-linejoin:miter;stroke-opacity:0.8;" x="358.732045" xlink:href="#m6fde2e434e" y="143.169939"/>
     <use style="fill:#ff8c00;fill-opacity:0.8;stroke:#000000;stroke-linejoin:miter;stroke-opacity:0.8;" x="377.184886" xlink:href="#m6fde2e434e" y="143.507092"/>
     <use style="fill:#ff8c00;fill-opacity:0.8;stroke:#000000;stroke-linejoin:miter;stroke-opacity:0.8;" x="395.637727" xlink:href="#m6fde2e434e" y="97.710917"/>
    </g>
   </g>
   <g id="line2d_7">
    <path clip-path="url(#p741582a082)" d="M 100.392273 167.258465 
L 118.845114 149.977155 
L 137.297955 128.937614 
L 155.750795 126.276466 
L 174.203636 117.598394 
L 192.656477 115.518767 
L 211.109318 124.284859 
L 229.562159 113.478859 
L 248.015 120.694247 
L 266.467841 144.729224 
L 284.920682 151.942229 
L 303.373523 160.977789 
L 321.826364 159.398169 
L 340.279205 164.118127 
L 358.732045 143.169939 
L 377.184886 143.507092 
L 395.637727 97.710917 
" style="fill:none;stroke:#ff8c00;stroke-linecap:round;stroke-width:0.7;"/>
   </g>
   <g id="line2d_8">
    <path clip-path="url(#p741582a082)" d="M 100.392273 182.155023 
L 118.845114 166.550917 
L 137.297955 147.545957 
L 155.750795 145.356828 
L 174.203636 138.014541 
L 192.656477 135.661528 
L 211.109318 142.292408 
L 229.562159 133.343237 
L 248.015 141.074838 
L 266.467841 162.37296 
L 284.920682 168.314802 
L 303.373523 176.436623 
L 321.826364 175.402978 
L 340.279205 179.311338 
L 358.732045 160.144898 
L 377.184886 160.977294 
L 395.637727 117.472409 
" style="fill:none;stroke:#ff8c00;stroke-dasharray:1.85,0.8;stroke-dashoffset:0;stroke-width:0.5;"/>
   </g>
   <g id="line2d_9">
    <path clip-path="url(#p741582a082)" d="M 100.392273 152.361906 
L 118.845114 133.403393 
L 137.297955 110.329271 
L 155.750795 107.196104 
L 174.203636 97.182247 
L 192.656477 95.376006 
L 211.109318 106.27731 
L 229.562159 93.614482 
L 248.015 100.313656 
L 266.467841 127.085488 
L 284.920682 135.569656 
L 303.373523 145.518955 
L 321.826364 143.39336 
L 340.279205 148.924915 
L 358.732045 126.19498 
L 377.184886 126.03689 
L 395.637727 77.949426 
" style="fill:none;stroke:#ff8c00;stroke-dasharray:1.85,0.8;stroke-dashoffset:0;stroke-width:0.5;"/>
   </g>
   <g id="line2d_10">
    <path clip-path="url(#p741582a082)" d="M 100.392273 193.838604 
L 118.845114 187.557928 
L 137.297955 178.259098 
L 155.750795 149.328431 
L 174.203636 140.752208 
L 192.656477 106.892811 
L 211.109318 101.194698 
L 229.562159 94.727018 
L 248.015 104.393566 
L 266.467841 132.65136 
L 284.920682 174.449702 
L 303.373523 180.224172 
L 321.826364 179.171092 
L 340.279205 176.820564 
L 358.732045 188.733192 
L 377.184886 183.62778 
L 395.637727 148.660805 
" style="fill:none;stroke:#808080;stroke-linecap:round;stroke-opacity:0.8;stroke-width:0.7;"/>
    <defs>
     <path d="M 0 -2.5 
L -2.5 2.5 
L 2.5 2.5 
z
" id="mee492d54a5" style="stroke:#000000;stroke-linejoin:miter;stroke-opacity:0.8;"/>
    </defs>
    <g clip-path="url(#p741582a082)">
     <use style="fill:#808080;fill-opacity:0.8;stroke:#000000;stroke-linejoin:miter;stroke-opacity:0.8;" x="100.392273" xlink:href="#mee492d54a5" y="193.838604"/>
     <use style="fill:#808080;fill-opacity:0.8;stroke:#000000;stroke-linejoin:miter;stroke-opacity:0.8;" x="118.845114" xlink:href="#mee492d54a5" y="187.557928"/>
     <use style="fill:#808080;fill-opacity:0.8;stroke:#000000;stroke-linejoin:miter;stroke-opacity:0.8;" x="137.297955" xlink:href="#mee492d54a5" y="178.259098"/>
     <use style="fill:#808080;fill-opacity:0.8;stroke:#000000;stroke-linejoin:miter;stroke-opacity:0.8;" x="155.750795" xlink:href="#mee492d54a5" y="149.328431"/>
     <use style="fill:#808080;fill-opacity:0.8;stroke:#000000;stroke-linejoin:miter;stroke-opacity:0.8;" x="174.203636" xlink:href="#mee492d54a5" y="140.752208"/>
     <use style="fill:#808080;fill-opacity:0.8;stroke:#000000;stroke-linejoin:miter;stroke-opacity:0.8;" x="192.656477" xlink:href="#mee492d54a5" y="106.892811"/>
     <use style="fill:#808080;fill-opacity:0.8;stroke:#000000;stroke-linejoin:miter;stroke-opacity:0.8;" x="211.109318" xlink:href="#mee492d54a5" y="101.194698"/>
     <use style="fill:#808080;fill-opacity:0.8;stroke:#000000;stroke-linejoin:miter;stroke-opacity:0.8;" x="229.562159" xlink:href="#mee492d54a5" y="94.727018"/>
     <use style="fill:#808080;fill-opacity:0.8;stroke:#000000;stroke-linejoin:miter;stroke-opacity:0.8;" x="248.015" xlink:href="#mee492d54a5" y="104.393566"/>
     <use style="fill:#808080;fill-opacity:0.8;stroke:#000000;stroke-linejoin:miter;stroke-opacity:0.8;" x="266.467841" xlink:href="#mee492d54a5" y="132.65136"/>
     <use style="fill:#808080;fill-opacity:0.8;stroke:#000000;stroke-linejoin:miter;stroke-opacity:0.8;" x="284.920682" xlink:href="#mee492d54a5" y="174.449702"/>
     <use style="fill:#808080;fill-opacity:0.8;stroke:#000000;stroke-linejoin:miter;stroke-opacity:0.8;" x="303.373523" xlink:href="#mee492d54a5" y="180.224172"/>
     <use style="fill:#808080;fill-opacity:0.8;stroke:#000000;stroke-linejoin:miter;stroke-opacity:0.8;" x="321.826364" xlink:href="#mee492d54a5" y="179.171092"/>
     <use style="fill:#808080;fill-opacity:0.8;stroke:#000000;stroke-linejoin:miter;stroke-opacity:0.8;" x="340.279205" xlink:href="#mee492d54a5" y="176.820564"/>
     <use style="fill:#808080;fill-opacity:0.8;stroke:#000000;stroke-linejoin:miter;stroke-opacity:0.8;" x="358.732045" xlink:href="#mee492d54a5" y="188.733192"/>
     <use style="fill:#808080;fill-opacity:0.8;stroke:#000000;stroke-linejoin:miter;stroke-opacity:0.8;" x="377.184886" xlink:href="#mee492d54a5" y="183.62778"/>
     <use style="fill:#808080;fill-opacity:0.8;stroke:#000000;stroke-linejoin:miter;stroke-opacity:0.8;" x="395.637727" xlink:href="#mee492d54a5" y="148.660805"/>
    </g>
   </g>
   <g id="line2d_11">
    <path clip-path="url(#p741582a082)" d="M 100.392273 193.838604 
L 118.845114 187.557928 
L 137.297955 178.259098 
L 155.750795 149.328431 
L 174.203636 140.752208 
L 192.656477 106.892811 
L 211.109318 101.194698 
L 229.562159 94.727018 
L 248.015 104.393566 
L 266.467841 132.65136 
L 284.920682 174.449702 
L 303.373523 180.224172 
L 321.826364 179.171092 
L 340.279205 176.820564 
L 358.732045 188.733192 
L 377.184886 183.62778 
L 395.637727 148.660805 
" style="fill:none;stroke:#808080;stroke-linecap:round;stroke-width:0.7;"/>
   </g>
   <g id="line2d_12">
    <path clip-path="url(#p741582a082)" d="M 100.392273 203.288182 
L 118.845114 198.49597 
L 137.297955 191.338581 
L 155.750795 165.696127 
L 174.203636 158.582269 
L 192.656477 127.122675 
L 211.109318 121.788435 
L 229.562159 117.057336 
L 248.015 122.915654 
L 266.467841 151.244025 
L 284.920682 189.132877 
L 303.373523 192.874233 
L 321.826364 192.328235 
L 340.279205 190.06454 
L 358.732045 199.575043 
L 377.184886 195.616265 
L 395.637727 165.627446 
" style="fill:none;stroke:#808080;stroke-dasharray:1.85,0.8;stroke-dashoffset:0;stroke-width:0.5;"/>
   </g>
   <g id="line2d_13">
    <path clip-path="url(#p741582a082)" d="M 100.392273 184.389027 
L 118.845114 176.619887 
L 137.297955 165.179616 
L 155.750795 132.960735 
L 174.203636 122.922148 
L 192.656477 86.662948 
L 211.109318 80.600961 
L 229.562159 72.3967 
L 248.015 85.871479 
L 266.467841 114.058694 
L 284.920682 159.766526 
L 303.373523 167.574112 
L 321.826364 166.01395 
L 340.279205 163.576589 
L 358.732045 177.891342 
L 377.184886 171.639296 
L 395.637727 131.694164 
" style="fill:none;stroke:#808080;stroke-dasharray:1.85,0.8;stroke-dashoffset:0;stroke-width:0.5;"/>
   </g>
   <g id="line2d_14">
    <path clip-path="url(#p741582a082)" d="M 100.392273 137.011447 
L 118.845114 128.239157 
L 137.297955 99.149934 
L 155.750795 112.780402 
L 174.203636 93.6141 
L 192.656477 79.976951 
L 211.109318 77.662111 
L 229.562159 62.03183 
L 248.015 65.267336 
L 266.467841 105.979867 
L 284.920682 114.533372 
L 303.373523 113.186191 
L 321.826364 138.835435 
L 340.279205 126.800623 
L 358.732045 96.553605 
L 377.184886 107.344518 
L 395.637727 67.68555 
" style="fill:none;stroke:#f4a460;stroke-linecap:round;stroke-opacity:0.8;stroke-width:0.7;"/>
    <defs>
     <path d="M 0 -2.5 
L -2.5 2.5 
L 2.5 2.5 
z
" id="m532bd58ba6" style="stroke:#000000;stroke-linejoin:miter;stroke-opacity:0.8;"/>
    </defs>
    <g clip-path="url(#p741582a082)">
     <use style="fill:#f4a460;fill-opacity:0.8;stroke:#000000;stroke-linejoin:miter;stroke-opacity:0.8;" x="100.392273" xlink:href="#m532bd58ba6" y="137.011447"/>
     <use style="fill:#f4a460;fill-opacity:0.8;stroke:#000000;stroke-linejoin:miter;stroke-opacity:0.8;" x="118.845114" xlink:href="#m532bd58ba6" y="128.239157"/>
     <use style="fill:#f4a460;fill-opacity:0.8;stroke:#000000;stroke-linejoin:miter;stroke-opacity:0.8;" x="137.297955" xlink:href="#m532bd58ba6" y="99.149934"/>
     <use style="fill:#f4a460;fill-opacity:0.8;stroke:#000000;stroke-linejoin:miter;stroke-opacity:0.8;" x="155.750795" xlink:href="#m532bd58ba6" y="112.780402"/>
     <use style="fill:#f4a460;fill-opacity:0.8;stroke:#000000;stroke-linejoin:miter;stroke-opacity:0.8;" x="174.203636" xlink:href="#m532bd58ba6" y="93.6141"/>
     <use style="fill:#f4a460;fill-opacity:0.8;stroke:#000000;stroke-linejoin:miter;stroke-opacity:0.8;" x="192.656477" xlink:href="#m532bd58ba6" y="79.976951"/>
     <use style="fill:#f4a460;fill-opacity:0.8;stroke:#000000;stroke-linejoin:miter;stroke-opacity:0.8;" x="211.109318" xlink:href="#m532bd58ba6" y="77.662111"/>
     <use style="fill:#f4a460;fill-opacity:0.8;stroke:#000000;stroke-linejoin:miter;stroke-opacity:0.8;" x="229.562159" xlink:href="#m532bd58ba6" y="62.03183"/>
     <use style="fill:#f4a460;fill-opacity:0.8;stroke:#000000;stroke-linejoin:miter;stroke-opacity:0.8;" x="248.015" xlink:href="#m532bd58ba6" y="65.267336"/>
     <use style="fill:#f4a460;fill-opacity:0.8;stroke:#000000;stroke-linejoin:miter;stroke-opacity:0.8;" x="266.467841" xlink:href="#m532bd58ba6" y="105.979867"/>
     <use style="fill:#f4a460;fill-opacity:0.8;stroke:#000000;stroke-linejoin:miter;stroke-opacity:0.8;" x="284.920682" xlink:href="#m532bd58ba6" y="114.533372"/>
     <use style="fill:#f4a460;fill-opacity:0.8;stroke:#000000;stroke-linejoin:miter;stroke-opacity:0.8;" x="303.373523" xlink:href="#m532bd58ba6" y="113.186191"/>
     <use style="fill:#f4a460;fill-opacity:0.8;stroke:#000000;stroke-linejoin:miter;stroke-opacity:0.8;" x="321.826364" xlink:href="#m532bd58ba6" y="138.835435"/>
     <use style="fill:#f4a460;fill-opacity:0.8;stroke:#000000;stroke-linejoin:miter;stroke-opacity:0.8;" x="340.279205" xlink:href="#m532bd58ba6" y="126.800623"/>
     <use style="fill:#f4a460;fill-opacity:0.8;stroke:#000000;stroke-linejoin:miter;stroke-opacity:0.8;" x="358.732045" xlink:href="#m532bd58ba6" y="96.553605"/>
     <use style="fill:#f4a460;fill-opacity:0.8;stroke:#000000;stroke-linejoin:miter;stroke-opacity:0.8;" x="377.184886" xlink:href="#m532bd58ba6" y="107.344518"/>
     <use style="fill:#f4a460;fill-opacity:0.8;stroke:#000000;stroke-linejoin:miter;stroke-opacity:0.8;" x="395.637727" xlink:href="#m532bd58ba6" y="67.68555"/>
    </g>
   </g>
   <g id="line2d_15">
    <path clip-path="url(#p741582a082)" d="M 100.392273 137.011447 
L 118.845114 128.239157 
L 137.297955 99.149934 
L 155.750795 112.780402 
L 174.203636 93.6141 
L 192.656477 79.976951 
L 211.109318 77.662111 
L 229.562159 62.03183 
L 248.015 65.267336 
L 266.467841 105.979867 
L 284.920682 114.533372 
L 303.373523 113.186191 
L 321.826364 138.835435 
L 340.279205 126.800623 
L 358.732045 96.553605 
L 377.184886 107.344518 
L 395.637727 67.68555 
" style="fill:none;stroke:#f4a460;stroke-linecap:round;stroke-width:0.7;"/>
   </g>
   <g id="line2d_16">
    <path clip-path="url(#p741582a082)" d="M 100.392273 154.486583 
L 118.845114 145.988828 
L 137.297955 118.342844 
L 155.750795 131.205383 
L 174.203636 114.00351 
L 192.656477 99.212876 
L 211.109318 98.234925 
L 229.562159 83.034131 
L 248.015 85.486909 
L 266.467841 126.219376 
L 284.920682 133.307482 
L 303.373523 130.843892 
L 321.826364 156.594188 
L 340.279205 144.511007 
L 358.732045 113.868281 
L 377.184886 126.59543 
L 395.637727 86.835381 
" style="fill:none;stroke:#f4a460;stroke-dasharray:1.85,0.8;stroke-dashoffset:0;stroke-width:0.5;"/>
   </g>
   <g id="line2d_17">
    <path clip-path="url(#p741582a082)" d="M 100.392273 119.536311 
L 118.845114 110.489486 
L 137.297955 79.957024 
L 155.750795 94.355422 
L 174.203636 73.22469 
L 192.656477 60.741025 
L 211.109318 57.089296 
L 229.562159 41.029529 
L 248.015 45.047763 
L 266.467841 85.740359 
L 284.920682 95.759263 
L 303.373523 95.52849 
L 321.826364 121.076682 
L 340.279205 109.090239 
L 358.732045 79.238929 
L 377.184886 88.093605 
L 395.637727 48.535718 
" style="fill:none;stroke:#f4a460;stroke-dasharray:1.85,0.8;stroke-dashoffset:0;stroke-width:0.5;"/>
   </g>
   <g id="line2d_18">
    <path clip-path="url(#p741582a082)" d="M 100.392273 157.047641 
L 118.845114 159.924709 
L 137.297955 115.492234 
L 155.750795 102.620744 
L 174.203636 107.370101 
L 192.656477 57.934063 
L 211.109318 47.074515 
L 229.562159 62.009113 
L 248.015 76.142921 
L 266.467841 98.432574 
L 284.920682 122.662745 
L 303.373523 135.167124 
L 321.826364 147.748811 
L 340.279205 137.801257 
L 358.732045 127.998604 
L 377.184886 140.92126 
L 395.637727 109.523129 
" style="fill:none;stroke:#556b2f;stroke-linecap:round;stroke-opacity:0.8;stroke-width:0.7;"/>
    <defs>
     <path d="M 0 -2.5 
L -2.5 2.5 
L 2.5 2.5 
z
" id="m1df182ffed" style="stroke:#000000;stroke-linejoin:miter;stroke-opacity:0.8;"/>
    </defs>
    <g clip-path="url(#p741582a082)">
     <use style="fill:#556b2f;fill-opacity:0.8;stroke:#000000;stroke-linejoin:miter;stroke-opacity:0.8;" x="100.392273" xlink:href="#m1df182ffed" y="157.047641"/>
     <use style="fill:#556b2f;fill-opacity:0.8;stroke:#000000;stroke-linejoin:miter;stroke-opacity:0.8;" x="118.845114" xlink:href="#m1df182ffed" y="159.924709"/>
     <use style="fill:#556b2f;fill-opacity:0.8;stroke:#000000;stroke-linejoin:miter;stroke-opacity:0.8;" x="137.297955" xlink:href="#m1df182ffed" y="115.492234"/>
     <use style="fill:#556b2f;fill-opacity:0.8;stroke:#000000;stroke-linejoin:miter;stroke-opacity:0.8;" x="155.750795" xlink:href="#m1df182ffed" y="102.620744"/>
     <use style="fill:#556b2f;fill-opacity:0.8;stroke:#000000;stroke-linejoin:miter;stroke-opacity:0.8;" x="174.203636" xlink:href="#m1df182ffed" y="107.370101"/>
     <use style="fill:#556b2f;fill-opacity:0.8;stroke:#000000;stroke-linejoin:miter;stroke-opacity:0.8;" x="192.656477" xlink:href="#m1df182ffed" y="57.934063"/>
     <use style="fill:#556b2f;fill-opacity:0.8;stroke:#000000;stroke-linejoin:miter;stroke-opacity:0.8;" x="211.109318" xlink:href="#m1df182ffed" y="47.074515"/>
     <use style="fill:#556b2f;fill-opacity:0.8;stroke:#000000;stroke-linejoin:miter;stroke-opacity:0.8;" x="229.562159" xlink:href="#m1df182ffed" y="62.009113"/>
     <use style="fill:#556b2f;fill-opacity:0.8;stroke:#000000;stroke-linejoin:miter;stroke-opacity:0.8;" x="248.015" xlink:href="#m1df182ffed" y="76.142921"/>
     <use style="fill:#556b2f;fill-opacity:0.8;stroke:#000000;stroke-linejoin:miter;stroke-opacity:0.8;" x="266.467841" xlink:href="#m1df182ffed" y="98.432574"/>
     <use style="fill:#556b2f;fill-opacity:0.8;stroke:#000000;stroke-linejoin:miter;stroke-opacity:0.8;" x="284.920682" xlink:href="#m1df182ffed" y="122.662745"/>
     <use style="fill:#556b2f;fill-opacity:0.8;stroke:#000000;stroke-linejoin:miter;stroke-opacity:0.8;" x="303.373523" xlink:href="#m1df182ffed" y="135.167124"/>
     <use style="fill:#556b2f;fill-opacity:0.8;stroke:#000000;stroke-linejoin:miter;stroke-opacity:0.8;" x="321.826364" xlink:href="#m1df182ffed" y="147.748811"/>
     <use style="fill:#556b2f;fill-opacity:0.8;stroke:#000000;stroke-linejoin:miter;stroke-opacity:0.8;" x="340.279205" xlink:href="#m1df182ffed" y="137.801257"/>
     <use style="fill:#556b2f;fill-opacity:0.8;stroke:#000000;stroke-linejoin:miter;stroke-opacity:0.8;" x="358.732045" xlink:href="#m1df182ffed" y="127.998604"/>
     <use style="fill:#556b2f;fill-opacity:0.8;stroke:#000000;stroke-linejoin:miter;stroke-opacity:0.8;" x="377.184886" xlink:href="#m1df182ffed" y="140.92126"/>
     <use style="fill:#556b2f;fill-opacity:0.8;stroke:#000000;stroke-linejoin:miter;stroke-opacity:0.8;" x="395.637727" xlink:href="#m1df182ffed" y="109.523129"/>
    </g>
   </g>
   <g id="line2d_19">
    <path clip-path="url(#p741582a082)" d="M 100.392273 157.047641 
L 118.845114 159.924709 
L 137.297955 115.492234 
L 155.750795 102.620744 
L 174.203636 107.370101 
L 192.656477 57.934063 
L 211.109318 47.074515 
L 229.562159 62.009113 
L 248.015 76.142921 
L 266.467841 98.432574 
L 284.920682 122.662745 
L 303.373523 135.167124 
L 321.826364 147.748811 
L 340.279205 137.801257 
L 358.732045 127.998604 
L 377.184886 140.92126 
L 395.637727 109.523129 
" style="fill:none;stroke:#556b2f;stroke-linecap:round;stroke-width:0.7;"/>
   </g>
   <g id="line2d_20">
    <path clip-path="url(#p741582a082)" d="M 100.392273 173.008523 
L 118.845114 175.750316 
L 137.297955 134.552846 
L 155.750795 121.06037 
L 174.203636 127.311876 
L 192.656477 77.274373 
L 211.109318 63.897212 
L 229.562159 81.683619 
L 248.015 96.519934 
L 266.467841 119.107953 
L 284.920682 142.125196 
L 303.373523 153.42634 
L 321.826364 164.58972 
L 340.279205 156.356384 
L 358.732045 146.028107 
L 377.184886 159.201163 
L 395.637727 128.108398 
" style="fill:none;stroke:#556b2f;stroke-dasharray:1.85,0.8;stroke-dashoffset:0;stroke-width:0.5;"/>
   </g>
   <g id="line2d_21">
    <path clip-path="url(#p741582a082)" d="M 100.392273 141.086759 
L 118.845114 144.099101 
L 137.297955 96.431622 
L 155.750795 84.181119 
L 174.203636 87.428325 
L 192.656477 38.593753 
L 211.109318 30.251818 
L 229.562159 42.334606 
L 248.015 55.765907 
L 266.467841 77.757195 
L 284.920682 103.200294 
L 303.373523 116.907908 
L 321.826364 130.907902 
L 340.279205 119.24613 
L 358.732045 109.969102 
L 377.184886 122.641357 
L 395.637727 90.93786 
" style="fill:none;stroke:#556b2f;stroke-dasharray:1.85,0.8;stroke-dashoffset:0;stroke-width:0.5;"/>
   </g>
   <g id="patch_3">
    <path d="M 85.63 211.94 
L 85.63 21.6 
" style="fill:none;stroke:#cccccc;stroke-linecap:square;stroke-linejoin:miter;stroke-width:0.8;"/>
   </g>
   <g id="patch_4">
    <path d="M 85.63 211.94 
L 410.4 211.94 
" style="fill:none;stroke:#cccccc;stroke-linecap:square;stroke-linejoin:miter;stroke-width:0.8;"/>
   </g>
   <g id="legend_1">
    <g id="patch_5">
     <path d="M 99.63 151.6625 
L 230.3175 151.6625 
Q 234.3175 151.6625 234.3175 147.6625 
L 234.3175 35.6 
Q 234.3175 31.6 230.3175 31.6 
L 99.63 31.6 
Q 95.63 31.6 95.63 35.6 
L 95.63 147.6625 
Q 95.63 151.6625 99.63 151.6625 
z
" style="fill:#ffffff;opacity:0.8;stroke:#cccccc;stroke-linejoin:miter;"/>
    </g>
    <g id="line2d_22">
     <path d="M 103.63 46.946875 
L 143.63 46.946875 
" style="fill:none;stroke:#ff8c00;stroke-linecap:round;stroke-opacity:0.8;stroke-width:0.7;"/>
    </g>
    <g id="line2d_23">
     <g>
      <use style="fill:#ff8c00;fill-opacity:0.8;stroke:#000000;stroke-linejoin:miter;stroke-opacity:0.8;" x="123.63" xlink:href="#m6fde2e434e" y="46.946875"/>
     </g>
    </g>
    <g id="text_8">
     <!-- Class a -->
     <g style="fill:#262626;" transform="translate(159.63 53.946875)scale(0.2 -0.2)">
      <defs>
       <path d="M 2422 4716 
Q 3294 4716 3775 4256 
Q 4256 3797 4309 3213 
L 3703 3213 
Q 3600 3656 3292 3915 
Q 2984 4175 2428 4175 
Q 1750 4175 1333 3698 
Q 916 3222 916 2238 
Q 916 1431 1292 929 
Q 1669 428 2416 428 
Q 3103 428 3463 956 
Q 3653 1234 3747 1688 
L 4353 1688 
Q 4272 963 3816 472 
Q 3269 -119 2341 -119 
Q 1541 -119 997 366 
Q 281 1006 281 2344 
Q 281 3359 819 4009 
Q 1400 4716 2422 4716 
z
M 2297 4716 
L 2297 4716 
z
" id="Helvetica-43" transform="scale(0.015625)"/>
       <path d="M 428 4591 
L 991 4591 
L 991 0 
L 428 0 
L 428 4591 
z
" id="Helvetica-6c" transform="scale(0.015625)"/>
      </defs>
      <use xlink:href="#Helvetica-43"/>
      <use x="72.216797" xlink:href="#Helvetica-6c"/>
      <use x="94.433594" xlink:href="#Helvetica-61"/>
      <use x="150.048828" xlink:href="#Helvetica-73"/>
      <use x="200.048828" xlink:href="#Helvetica-73"/>
      <use x="250.048828" xlink:href="#Helvetica-20"/>
      <use x="277.832031" xlink:href="#Helvetica-61"/>
     </g>
    </g>
    <g id="line2d_24">
     <path d="M 103.63 75.4625 
L 143.63 75.4625 
" style="fill:none;stroke:#808080;stroke-linecap:round;stroke-opacity:0.8;stroke-width:0.7;"/>
    </g>
    <g id="line2d_25">
     <g>
      <use style="fill:#808080;fill-opacity:0.8;stroke:#000000;stroke-linejoin:miter;stroke-opacity:0.8;" x="123.63" xlink:href="#mee492d54a5" y="75.4625"/>
     </g>
    </g>
    <g id="text_9">
     <!-- Class d -->
     <g style="fill:#262626;" transform="translate(159.63 82.4625)scale(0.2 -0.2)">
      <use xlink:href="#Helvetica-43"/>
      <use x="72.216797" xlink:href="#Helvetica-6c"/>
      <use x="94.433594" xlink:href="#Helvetica-61"/>
      <use x="150.048828" xlink:href="#Helvetica-73"/>
      <use x="200.048828" xlink:href="#Helvetica-73"/>
      <use x="250.048828" xlink:href="#Helvetica-20"/>
      <use x="277.832031" xlink:href="#Helvetica-64"/>
     </g>
    </g>
    <g id="line2d_26">
     <path d="M 103.63 103.978125 
L 143.63 103.978125 
" style="fill:none;stroke:#f4a460;stroke-linecap:round;stroke-opacity:0.8;stroke-width:0.7;"/>
    </g>
    <g id="line2d_27">
     <g>
      <use style="fill:#f4a460;fill-opacity:0.8;stroke:#000000;stroke-linejoin:miter;stroke-opacity:0.8;" x="123.63" xlink:href="#m532bd58ba6" y="103.978125"/>
     </g>
    </g>
    <g id="text_10">
     <!-- Class b -->
     <g style="fill:#262626;" transform="translate(159.63 110.978125)scale(0.2 -0.2)">
      <use xlink:href="#Helvetica-43"/>
      <use x="72.216797" xlink:href="#Helvetica-6c"/>
      <use x="94.433594" xlink:href="#Helvetica-61"/>
      <use x="150.048828" xlink:href="#Helvetica-73"/>
      <use x="200.048828" xlink:href="#Helvetica-73"/>
      <use x="250.048828" xlink:href="#Helvetica-20"/>
      <use x="277.832031" xlink:href="#Helvetica-62"/>
     </g>
    </g>
    <g id="line2d_28">
     <path d="M 103.63 132.49375 
L 143.63 132.49375 
" style="fill:none;stroke:#556b2f;stroke-linecap:round;stroke-opacity:0.8;stroke-width:0.7;"/>
    </g>
    <g id="line2d_29">
     <g>
      <use style="fill:#556b2f;fill-opacity:0.8;stroke:#000000;stroke-linejoin:miter;stroke-opacity:0.8;" x="123.63" xlink:href="#m1df182ffed" y="132.49375"/>
     </g>
    </g>
    <g id="text_11">
     <!-- Class c -->
     <g style="fill:#262626;" transform="translate(159.63 139.49375)scale(0.2 -0.2)">
      <use xlink:href="#Helvetica-43"/>
      <use x="72.216797" xlink:href="#Helvetica-6c"/>
      <use x="94.433594" xlink:href="#Helvetica-61"/>
      <use x="150.048828" xlink:href="#Helvetica-73"/>
      <use x="200.048828" xlink:href="#Helvetica-73"/>
      <use x="250.048828" xlink:href="#Helvetica-20"/>
      <use x="277.832031" xlink:href="#Helvetica-63"/>
     </g>
    </g>
   </g>
  </g>
 </g>
 <defs>
  <clipPath id="p741582a082">
   <rect height="190.34" width="324.77" x="85.63" y="21.6"/>
  </clipPath>
 </defs>
</svg>
