<?xml version="1.0" encoding="utf-8" standalone="no"?>
<!DOCTYPE svg PUBLIC "-//W3C//DTD SVG 1.1//EN"
  "http://www.w3.org/Graphics/SVG/1.1/DTD/svg11.dtd">
<svg height="216pt" version="1.1" viewBox="0 0 360 216" width="360pt" xmlns="http://www.w3.org/2000/svg" xmlns:xlink="http://www.w3.org/1999/xlink">
 <metadata>
  <rdf:RDF xmlns:cc="http://creativecommons.org/ns#" xmlns:dc="http://purl.org/dc/elements/1.1/" xmlns:rdf="http://www.w3.org/1999/02/22-rdf-syntax-ns#">
   <cc:Work>
    <dc:type rdf:resource="http://purl.org/dc/dcmitype/StillImage"/>
    <dc:date>2022-12-20T01:56:31.461959</dc:date>
    <dc:format>image/svg+xml</dc:format>
    <dc:creator>
     <cc:Agent>
      <dc:title>Matplotlib v3.4.2, https://matplotlib.org/</dc:title>
     </cc:Agent>
    </dc:creator>
   </cc:Work>
  </rdf:RDF>
 </metadata>
 <defs>
  <style type="text/css">*{stroke-linecap:butt;stroke-linejoin:round;}</style>
 </defs>
 <g id="figure_1">
  <g id="patch_1">
   <path d="M 0 216 
L 360 216 
L 360 0 
L 0 0 
z
" style="fill:#ffffff;"/>
  </g>
  <g id="axes_1">
   <g id="patch_2">
    <path d="M 94.94 141.64 
L 338.4 141.64 
L 338.4 28.8 
L 94.94 28.8 
z
" style="fill:#ffffff;"/>
   </g>
   <g id="line2d_1">
    <path clip-path="url(#p1481a16592)" d="M 94.94 141.64 
L 338.4 141.64 
" style="fill:none;stroke:#000000;stroke-linecap:round;stroke-width:0.5;"/>
   </g>
   <g id="patch_3">
    <path clip-path="url(#p1481a16592)" d="M 101.035611 119.313349 
Q 103.518269 119.313349 104.887718 121.437497 
Q 106.257166 123.557029 106.408062 126.253774 
L 104.682728 126.253774 
Q 104.389478 124.208126 103.512575 123.012138 
Q 102.635673 121.811532 101.052693 121.811532 
Q 99.122369 121.811532 97.935134 124.014182 
Q 96.747899 126.212215 96.747899 130.756046 
Q 96.747899 134.482542 97.818404 136.800635 
Q 98.891755 139.11411 101.018528 139.11411 
Q 102.974476 139.11411 103.999427 136.675957 
Q 104.540373 135.392232 104.807999 133.295789 
L 106.533333 133.295789 
Q 106.302719 136.643632 105.004448 138.910931 
Q 103.447092 141.64 100.804997 141.64 
Q 98.527328 141.64 96.978513 139.400408 
Q 94.94 136.445071 94.94 130.266568 
Q 94.94 125.579588 96.471732 122.578073 
Q 98.125889 119.313349 101.035611 119.313349 
z
M 100.679725 119.313349 
L 100.679725 119.313349 
z
" style="fill:#0000ff;"/>
   </g>
   <g id="patch_4">
    <path clip-path="url(#p1481a16592)" d="M 106.533333 95.025581 
L 106.533333 97.919375 
L 101.718599 97.919375 
L 101.718599 119.313349 
L 99.754735 119.313349 
L 99.754735 97.919375 
L 94.94 97.919375 
L 94.94 95.025581 
L 106.533333 95.025581 
z
" style="fill:#ff0000;"/>
   </g>
   <g id="patch_5">
    <path clip-path="url(#p1481a16592)" d="M 100.919108 68.814676 
Q 102.707589 68.814676 104.012322 70.171067 
Q 105.903081 72.118845 106.326013 77.001854 
L 104.62599 77.001854 
Q 104.313627 74.272795 103.337841 73.024915 
Q 102.362055 71.777035 100.87488 71.777035 
Q 99.114042 71.777035 97.908822 74.37588 
Q 96.703602 76.9693 96.703602 82.10731 
Q 96.703602 86.545423 97.695974 89.334163 
Q 98.69111 92.122904 100.935694 92.122904 
Q 102.655068 92.122904 103.782888 90.1697 
Q 104.910709 88.211071 104.935587 83.83264 
L 100.963337 83.83264 
L 100.963337 81.038474 
L 106.533333 81.038474 
L 106.533333 94.363662 
L 105.427627 94.363662 
L 105.012987 91.157153 
Q 104.142243 93.039824 103.467762 93.772275 
Q 102.334413 95.025581 100.590161 95.025581 
Q 98.337283 95.025581 96.711895 92.160883 
Q 94.94 88.563733 94.94 82.29178 
Q 94.94 76.036103 96.667667 72.341293 
Q 98.309641 68.814676 100.919108 68.814676 
z
M 100.634389 68.776697 
L 100.634389 68.776697 
z
" style="fill:#ffa600;"/>
   </g>
   <g id="patch_6">
    <path clip-path="url(#p1481a16592)" d="M 102.72171 52.397658 
L 100.7494 34.738599 
L 98.652583 52.397658 
L 102.72171 52.397658 
z
M 99.829744 28.8 
L 101.819032 28.8 
L 106.533333 68.776697 
L 104.603469 68.776697 
L 103.287653 56.803715 
L 98.148894 56.803715 
L 96.742527 68.776697 
L 94.94 68.776697 
L 99.829744 28.8 
z
M 100.740911 28.8 
L 100.740911 28.8 
z
" style="fill:#008000;"/>
   </g>
   <g id="patch_7">
    <path clip-path="url(#p1481a16592)" d="M 113.122617 121.303931 
Q 114.911097 121.303931 116.215831 122.356305 
Q 118.106589 123.867513 118.529522 127.656059 
L 116.829498 127.656059 
Q 116.517136 125.538683 115.54135 124.570499 
Q 114.565564 123.602315 113.078389 123.602315 
Q 111.317551 123.602315 110.112331 125.618663 
Q 108.907111 127.630802 108.907111 131.617193 
Q 108.907111 135.06056 109.899482 137.22424 
Q 110.894618 139.38792 113.139203 139.38792 
Q 114.858576 139.38792 115.986397 137.872502 
Q 117.114218 136.352875 117.139096 132.955812 
L 113.166845 132.955812 
L 113.166845 130.787923 
L 118.736842 130.787923 
L 118.736842 141.126442 
L 117.631136 141.126442 
L 117.216496 138.63863 
Q 116.345752 140.099325 115.671271 140.667607 
Q 114.537921 141.64 112.793669 141.64 
Q 110.540792 141.64 108.915404 139.417387 
Q 107.143509 136.626492 107.143509 131.760316 
Q 107.143509 126.906769 108.871175 124.040103 
Q 110.51315 121.303931 113.122617 121.303931 
z
M 112.837898 121.274465 
L 112.837898 121.274465 
z
" style="fill:#ffa600;"/>
   </g>
   <g id="patch_8">
    <path clip-path="url(#p1481a16592)" d="M 114.925219 109.314665 
L 112.952909 96.420208 
L 110.856092 109.314665 
L 114.925219 109.314665 
z
M 112.033252 92.083907 
L 114.022541 92.083907 
L 118.736842 121.274465 
L 116.806978 121.274465 
L 115.491162 112.531921 
L 110.352403 112.531921 
L 108.946036 121.274465 
L 107.143509 121.274465 
L 112.033252 92.083907 
z
M 112.94442 92.083907 
L 112.94442 92.083907 
z
" style="fill:#008000;"/>
   </g>
   <g id="patch_9">
    <path clip-path="url(#p1481a16592)" d="M 113.239119 62.893349 
Q 115.721778 62.893349 117.091227 65.670527 
Q 118.460675 68.441668 118.61157 71.967477 
L 116.886236 71.967477 
Q 116.592987 69.292933 115.716084 67.729261 
Q 114.839182 66.159552 113.256202 66.159552 
Q 111.325878 66.159552 110.138643 69.039365 
Q 108.951408 71.91314 108.951408 77.853887 
Q 108.951408 82.726023 110.021913 85.75677 
Q 111.095264 88.781479 113.222037 88.781479 
Q 115.177985 88.781479 116.202936 85.593762 
Q 116.743882 83.91538 117.011508 81.174426 
L 118.736842 81.174426 
Q 118.506228 85.5515 117.207957 88.515836 
Q 115.650601 92.083907 113.008505 92.083907 
Q 110.730837 92.083907 109.182022 89.155795 
Q 107.143509 85.291895 107.143509 77.213928 
Q 107.143509 71.086024 108.675241 67.161751 
Q 110.329398 62.893349 113.239119 62.893349 
z
M 112.883234 62.893349 
L 112.883234 62.893349 
z
" style="fill:#0000ff;"/>
   </g>
   <g id="patch_10">
    <path clip-path="url(#p1481a16592)" d="M 118.736842 28.8 
L 118.736842 32.862091 
L 113.922107 32.862091 
L 113.922107 62.893349 
L 111.958243 62.893349 
L 111.958243 32.862091 
L 107.143509 32.862091 
L 107.143509 28.8 
L 118.736842 28.8 
z
" style="fill:#ff0000;"/>
   </g>
   <g id="patch_11">
    <path clip-path="url(#p1481a16592)" d="M 125.326126 123.26221 
Q 127.114606 123.26221 128.41934 124.213244 
Q 130.310098 125.57893 130.733031 129.002654 
L 129.033007 129.002654 
Q 128.720645 127.089173 127.744859 126.214221 
Q 126.769073 125.339269 125.281898 125.339269 
Q 123.52106 125.339269 122.31584 127.161451 
Q 121.11062 128.979829 121.11062 132.582348 
Q 121.11062 135.694132 122.102991 137.649459 
Q 123.098127 139.604786 125.342711 139.604786 
Q 127.062085 139.604786 128.189906 138.235297 
Q 129.317726 136.862003 129.342605 133.792064 
L 125.370354 133.792064 
L 125.370354 131.832933 
L 130.940351 131.832933 
L 130.940351 141.175895 
L 129.834644 141.175895 
L 129.420004 138.92765 
Q 128.54926 140.247686 127.874779 140.761244 
Q 126.74143 141.64 124.997178 141.64 
Q 122.744301 141.64 121.118912 139.631415 
Q 119.347018 137.109272 119.347018 132.711688 
Q 119.347018 128.325517 121.074684 125.734899 
Q 122.716658 123.26221 125.326126 123.26221 
z
M 125.041406 123.235581 
L 125.041406 123.235581 
z
" style="fill:#ffa600;"/>
   </g>
   <g id="patch_12">
    <path clip-path="url(#p1481a16592)" d="M 125.442628 96.006139 
Q 127.925287 96.006139 129.294735 98.596737 
Q 130.664184 101.181704 130.815079 104.470638 
L 129.089745 104.470638 
Q 128.796495 101.975779 127.919593 100.517159 
Q 127.04269 99.052908 125.459711 99.052908 
Q 123.529387 99.052908 122.342152 101.739246 
Q 121.154917 104.419952 121.154917 109.96158 
Q 121.154917 114.506391 122.225421 117.333522 
Q 123.298773 120.155021 125.425546 120.155021 
Q 127.381494 120.155021 128.406445 117.181465 
Q 128.947391 115.615843 129.215017 113.059035 
L 130.940351 113.059035 
Q 130.709737 117.142043 129.411466 119.907225 
Q 127.85411 123.235581 125.212014 123.235581 
Q 122.934346 123.235581 121.385531 120.504189 
Q 119.347018 116.899878 119.347018 109.364616 
Q 119.347018 103.648404 120.87875 99.987776 
Q 122.532907 96.006139 125.442628 96.006139 
z
M 125.086742 96.006139 
L 125.086742 96.006139 
z
" style="fill:#0000ff;"/>
   </g>
   <g id="patch_13">
    <path clip-path="url(#p1481a16592)" d="M 127.128728 84.046339 
L 125.156418 71.151882 
L 123.059601 84.046339 
L 127.128728 84.046339 
z
M 124.236761 66.815581 
L 126.226049 66.815581 
L 130.940351 96.006139 
L 129.010487 96.006139 
L 127.69467 87.263595 
L 122.555912 87.263595 
L 121.149545 96.006139 
L 119.347018 96.006139 
L 124.236761 66.815581 
z
M 125.147929 66.815581 
L 125.147929 66.815581 
z
" style="fill:#008000;"/>
   </g>
   <g id="patch_14">
    <path clip-path="url(#p1481a16592)" d="M 130.940351 28.8 
L 130.940351 33.32941 
L 126.125616 33.32941 
L 126.125616 66.815581 
L 124.161752 66.815581 
L 124.161752 33.32941 
L 119.347018 33.32941 
L 119.347018 28.8 
L 130.940351 28.8 
z
" style="fill:#ff0000;"/>
   </g>
   <g id="patch_15">
    <path clip-path="url(#p1481a16592)" d="M 137.529635 125.220489 
Q 139.318115 125.220489 140.622849 126.070184 
Q 142.513607 127.290346 142.93654 130.349249 
L 141.236516 130.349249 
Q 140.924154 128.639662 139.948368 127.857943 
Q 138.972582 127.076223 137.485406 127.076223 
Q 135.724569 127.076223 134.519348 128.704239 
Q 133.314128 130.328857 133.314128 133.547502 
Q 133.314128 136.327705 134.3065 138.074679 
Q 135.301636 139.821652 137.54622 139.821652 
Q 139.265594 139.821652 140.393415 138.598091 
Q 141.521235 137.371131 141.546114 134.628315 
L 137.573863 134.628315 
L 137.573863 132.877942 
L 143.14386 132.877942 
L 143.14386 141.225349 
L 142.038153 141.225349 
L 141.623513 139.216669 
Q 140.752769 140.396046 140.078288 140.854882 
Q 138.944939 141.64 137.200687 141.64 
Q 134.94781 141.64 133.322421 139.845444 
Q 131.550526 137.592052 131.550526 133.663061 
Q 131.550526 129.744266 133.278193 127.429696 
Q 134.920167 125.220489 137.529635 125.220489 
z
M 137.244915 125.196697 
L 137.244915 125.196697 
z
" style="fill:#ffa600;"/>
   </g>
   <g id="patch_16">
    <path clip-path="url(#p1481a16592)" d="M 137.646137 99.928371 
Q 140.128796 99.928371 141.498244 102.33239 
Q 142.867692 104.731182 143.018588 107.783241 
L 141.293254 107.783241 
Q 141.000004 105.468066 140.123102 104.114499 
Q 139.246199 102.755706 137.66322 102.755706 
Q 135.732895 102.755706 134.545661 105.248569 
Q 133.358426 107.736206 133.358426 112.878715 
Q 133.358426 117.0962 134.42893 119.719716 
Q 135.502281 122.338005 137.629054 122.338005 
Q 139.585002 122.338005 140.609953 119.57861 
Q 141.1509 118.125747 141.418526 115.753085 
L 143.14386 115.753085 
Q 142.913246 119.542027 141.614975 122.108056 
Q 140.057619 125.196697 137.415523 125.196697 
Q 135.137854 125.196697 133.58904 122.662025 
Q 131.550526 119.317304 131.550526 112.324745 
Q 131.550526 107.020226 133.082258 103.623243 
Q 134.736415 99.928371 137.646137 99.928371 
z
M 137.290251 99.928371 
L 137.290251 99.928371 
z
" style="fill:#0000ff;"/>
   </g>
   <g id="patch_17">
    <path clip-path="url(#p1481a16592)" d="M 143.14386 69.757255 
L 143.14386 73.352028 
L 138.329125 73.352028 
L 138.329125 99.928371 
L 136.365261 99.928371 
L 136.365261 73.352028 
L 131.550526 73.352028 
L 131.550526 69.757255 
L 143.14386 69.757255 
z
" style="fill:#ff0000;"/>
   </g>
   <g id="patch_18">
    <path clip-path="url(#p1481a16592)" d="M 139.332237 52.976467 
L 137.359927 34.884262 
L 135.26311 52.976467 
L 139.332237 52.976467 
z
M 136.44027 28.8 
L 138.429558 28.8 
L 143.14386 69.757255 
L 141.213996 69.757255 
L 139.898179 57.490597 
L 134.759421 57.490597 
L 133.353053 69.757255 
L 131.550526 69.757255 
L 136.44027 28.8 
z
M 137.351438 28.8 
L 137.351438 28.8 
z
" style="fill:#008000;"/>
   </g>
   <g id="patch_19">
    <path clip-path="url(#p1481a16592)" d="M 149.733143 129.137046 
Q 151.521624 129.137046 152.826357 129.784063 
Q 154.717116 130.713179 155.140048 133.04244 
L 153.440025 133.04244 
Q 153.127662 131.740642 152.151876 131.145386 
Q 151.17609 130.550131 149.688915 130.550131 
Q 147.928077 130.550131 146.722857 131.789815 
Q 145.517637 133.026911 145.517637 135.477811 
Q 145.517637 137.59485 146.510009 138.925117 
Q 147.505145 140.255384 149.749729 140.255384 
Q 151.469103 140.255384 152.596923 139.32368 
Q 153.724744 138.389387 153.749622 136.300817 
L 149.777372 136.300817 
L 149.777372 134.967962 
L 155.347368 134.967962 
L 155.347368 141.324256 
L 154.241662 141.324256 
L 153.827022 139.794708 
Q 152.956278 140.692767 152.281797 141.042156 
Q 151.148448 141.64 149.404196 141.64 
Q 147.151319 141.64 145.52593 140.2735 
Q 143.754035 138.557612 143.754035 135.565806 
Q 143.754035 132.581764 145.481702 130.81929 
Q 147.123676 129.137046 149.733143 129.137046 
z
M 149.448424 129.118929 
L 149.448424 129.118929 
z
" style="fill:#ffa600;"/>
   </g>
   <g id="patch_20">
    <path clip-path="url(#p1481a16592)" d="M 149.849646 104.831162 
Q 152.332305 104.831162 153.701753 107.14189 
Q 155.071201 109.447596 155.222097 112.381217 
L 153.496763 112.381217 
Q 153.203513 110.155884 152.32661 108.854844 
Q 151.449708 107.54878 149.866728 107.54878 
Q 147.936404 107.54878 146.749169 109.944905 
Q 145.561935 112.336007 145.561935 117.278957 
Q 145.561935 121.332778 146.632439 123.854487 
Q 147.70579 126.371172 149.832563 126.371172 
Q 151.788511 126.371172 152.813462 123.718857 
Q 153.354408 122.322373 153.622034 120.041784 
L 155.347368 120.041784 
Q 155.116754 123.683694 153.818483 126.150145 
Q 152.261127 129.118929 149.619032 129.118929 
Q 147.341363 129.118929 145.792549 126.682618 
Q 143.754035 123.467691 143.754035 116.746484 
Q 143.754035 111.647811 145.285767 108.382651 
Q 146.939924 104.831162 149.849646 104.831162 
z
M 149.49376 104.831162 
L 149.49376 104.831162 
z
" style="fill:#0000ff;"/>
   </g>
   <g id="patch_21">
    <path clip-path="url(#p1481a16592)" d="M 155.347368 68.776697 
L 155.347368 73.072448 
L 150.532634 73.072448 
L 150.532634 104.831162 
L 148.56877 104.831162 
L 148.56877 73.072448 
L 143.754035 73.072448 
L 143.754035 68.776697 
L 155.347368 68.776697 
z
" style="fill:#ff0000;"/>
   </g>
   <g id="patch_22">
    <path clip-path="url(#p1481a16592)" d="M 151.535745 52.397658 
L 149.563435 34.738599 
L 147.466618 52.397658 
L 151.535745 52.397658 
z
M 148.643779 28.8 
L 150.633067 28.8 
L 155.347368 68.776697 
L 153.417504 68.776697 
L 152.101688 56.803715 
L 146.962929 56.803715 
L 145.556562 68.776697 
L 143.754035 68.776697 
L 148.643779 28.8 
z
M 149.554946 28.8 
L 149.554946 28.8 
z
" style="fill:#008000;"/>
   </g>
   <g id="patch_23">
    <path clip-path="url(#p1481a16592)" d="M 161.936652 123.26221 
Q 163.725132 123.26221 165.029866 124.213244 
Q 166.920624 125.57893 167.343557 129.002654 
L 165.643533 129.002654 
Q 165.331171 127.089173 164.355385 126.214221 
Q 163.379599 125.339269 161.892424 125.339269 
Q 160.131586 125.339269 158.926366 127.161451 
Q 157.721146 128.979829 157.721146 132.582348 
Q 157.721146 135.694132 158.713517 137.649459 
Q 159.708653 139.604786 161.953238 139.604786 
Q 163.672611 139.604786 164.800432 138.235297 
Q 165.928253 136.862003 165.953131 133.792064 
L 161.98088 133.792064 
L 161.98088 131.832933 
L 167.550877 131.832933 
L 167.550877 141.175895 
L 166.445171 141.175895 
L 166.030531 138.92765 
Q 165.159787 140.247686 164.485306 140.761244 
Q 163.351957 141.64 161.607704 141.64 
Q 159.354827 141.64 157.729439 139.631415 
Q 155.957544 137.109272 155.957544 132.711688 
Q 155.957544 128.325517 157.68521 125.734899 
Q 159.327185 123.26221 161.936652 123.26221 
z
M 161.651933 123.235581 
L 161.651933 123.235581 
z
" style="fill:#ffa600;"/>
   </g>
   <g id="patch_24">
    <path clip-path="url(#p1481a16592)" d="M 162.053155 97.967255 
Q 164.535813 97.967255 165.905262 100.371274 
Q 167.27471 102.770066 167.425605 105.822125 
L 165.700271 105.822125 
Q 165.407022 103.50695 164.530119 102.153383 
Q 163.653217 100.79459 162.070237 100.79459 
Q 160.139913 100.79459 158.952678 103.287453 
Q 157.765443 105.775089 157.765443 110.917599 
Q 157.765443 115.135084 158.835948 117.758599 
Q 159.909299 120.376889 162.036072 120.376889 
Q 163.99202 120.376889 165.016971 117.617494 
Q 165.557917 116.164631 165.825543 113.791969 
L 167.550877 113.791969 
Q 167.320263 117.580911 166.021992 120.14694 
Q 164.464636 123.235581 161.822541 123.235581 
Q 159.544872 123.235581 157.996057 120.700909 
Q 155.957544 117.356188 155.957544 110.363629 
Q 155.957544 105.05911 157.489276 101.662127 
Q 159.143433 97.967255 162.053155 97.967255 
z
M 161.697269 97.967255 
L 161.697269 97.967255 
z
" style="fill:#0000ff;"/>
   </g>
   <g id="patch_25">
    <path clip-path="url(#p1481a16592)" d="M 163.739254 83.99871 
L 161.766944 68.938525 
L 159.670127 83.99871 
L 163.739254 83.99871 
z
M 160.847288 63.873907 
L 162.836576 63.873907 
L 167.550877 97.967255 
L 165.621013 97.967255 
L 164.305197 87.756331 
L 159.166438 87.756331 
L 157.760071 97.967255 
L 155.957544 97.967255 
L 160.847288 63.873907 
z
M 161.758455 63.873907 
L 161.758455 63.873907 
z
" style="fill:#008000;"/>
   </g>
   <g id="patch_26">
    <path clip-path="url(#p1481a16592)" d="M 167.550877 28.8 
L 167.550877 32.978921 
L 162.736143 32.978921 
L 162.736143 63.873907 
L 160.772279 63.873907 
L 160.772279 32.978921 
L 155.957544 32.978921 
L 155.957544 28.8 
L 167.550877 28.8 
z
" style="fill:#ff0000;"/>
   </g>
   <g id="patch_27">
    <path clip-path="url(#p1481a16592)" d="M 174.140161 123.26221 
Q 175.928641 123.26221 177.233375 124.213244 
Q 179.124133 125.57893 179.547066 129.002654 
L 177.847042 129.002654 
Q 177.53468 127.089173 176.558894 126.214221 
Q 175.583108 125.339269 174.095933 125.339269 
Q 172.335095 125.339269 171.129875 127.161451 
Q 169.924655 128.979829 169.924655 132.582348 
Q 169.924655 135.694132 170.917026 137.649459 
Q 171.912162 139.604786 174.156746 139.604786 
Q 175.87612 139.604786 177.003941 138.235297 
Q 178.131762 136.862003 178.15664 133.792064 
L 174.184389 133.792064 
L 174.184389 131.832933 
L 179.754386 131.832933 
L 179.754386 141.175895 
L 178.648679 141.175895 
L 178.234039 138.92765 
Q 177.363296 140.247686 176.688815 140.761244 
Q 175.555465 141.64 173.811213 141.64 
Q 171.558336 141.64 169.932947 139.631415 
Q 168.161053 137.109272 168.161053 132.711688 
Q 168.161053 128.325517 169.888719 125.734899 
Q 171.530693 123.26221 174.140161 123.26221 
z
M 173.855441 123.235581 
L 173.855441 123.235581 
z
" style="fill:#ffa600;"/>
   </g>
   <g id="patch_28">
    <path clip-path="url(#p1481a16592)" d="M 174.256663 98.947813 
Q 176.739322 98.947813 178.10877 101.258542 
Q 179.478219 103.564247 179.629114 106.497868 
L 177.90378 106.497868 
Q 177.61053 104.272536 176.733628 102.971495 
Q 175.856726 101.665431 174.273746 101.665431 
Q 172.343422 101.665431 171.156187 104.061556 
Q 169.968952 106.452658 169.968952 111.395608 
Q 169.968952 115.44943 171.039456 117.971138 
Q 172.112808 120.487823 174.239581 120.487823 
Q 176.195529 120.487823 177.22048 117.835508 
Q 177.761426 116.439025 178.029052 114.158436 
L 179.754386 114.158436 
Q 179.523772 117.800345 178.225501 120.266797 
Q 176.668145 123.235581 174.026049 123.235581 
Q 171.748381 123.235581 170.199566 120.799269 
Q 168.161053 117.584342 168.161053 110.863136 
Q 168.161053 105.764463 169.692785 102.499303 
Q 171.346942 98.947813 174.256663 98.947813 
z
M 173.900778 98.947813 
L 173.900778 98.947813 
z
" style="fill:#0000ff;"/>
   </g>
   <g id="patch_29">
    <path clip-path="url(#p1481a16592)" d="M 179.754386 65.835023 
L 179.754386 69.780284 
L 174.939651 69.780284 
L 174.939651 98.947813 
L 172.975787 98.947813 
L 172.975787 69.780284 
L 168.161053 69.780284 
L 168.161053 65.835023 
L 179.754386 65.835023 
z
" style="fill:#ff0000;"/>
   </g>
   <g id="patch_30">
    <path clip-path="url(#p1481a16592)" d="M 175.942763 50.661231 
L 173.970453 34.301609 
L 171.873636 50.661231 
L 175.942763 50.661231 
z
M 173.050796 28.8 
L 175.040084 28.8 
L 179.754386 65.835023 
L 177.824522 65.835023 
L 176.508705 54.74307 
L 171.369947 54.74307 
L 169.96358 65.835023 
L 168.161053 65.835023 
L 173.050796 28.8 
z
M 173.961964 28.8 
L 173.961964 28.8 
z
" style="fill:#008000;"/>
   </g>
   <g id="patch_31">
    <path clip-path="url(#p1481a16592)" d="M 186.34367 130.116185 
Q 188.13215 130.116185 189.436884 130.712533 
Q 191.327642 131.568887 191.750575 133.715737 
L 190.050551 133.715737 
Q 189.738189 132.515887 188.762403 131.967247 
Q 187.786617 131.418608 186.299441 131.418608 
Q 184.538604 131.418608 183.333384 132.561209 
Q 182.128163 133.701425 182.128163 135.960389 
Q 182.128163 137.911637 183.120535 139.137727 
Q 184.115671 140.363817 186.360255 140.363817 
Q 188.079629 140.363817 189.20745 139.505077 
Q 190.33527 138.643951 190.360149 136.718942 
L 186.387898 136.718942 
L 186.387898 135.490467 
L 191.957895 135.490467 
L 191.957895 141.348983 
L 190.852188 141.348983 
L 190.437548 139.939218 
Q 189.566804 140.766948 188.892323 141.088975 
Q 187.758974 141.64 186.014722 141.64 
Q 183.761845 141.64 182.136456 140.380515 
Q 180.364561 138.799002 180.364561 136.041492 
Q 180.364561 133.291138 182.092228 131.666688 
Q 183.734202 130.116185 186.34367 130.116185 
z
M 186.05895 130.099488 
L 186.05895 130.099488 
z
" style="fill:#ffa600;"/>
   </g>
   <g id="patch_32">
    <path clip-path="url(#p1481a16592)" d="M 186.460172 102.870046 
Q 188.942831 102.870046 190.312279 105.460644 
Q 191.681727 108.045611 191.832623 111.334544 
L 190.107289 111.334544 
Q 189.814039 108.839685 188.937137 107.381066 
Q 188.060234 105.916815 186.477255 105.916815 
Q 184.54693 105.916815 183.359696 108.603153 
Q 182.172461 111.283859 182.172461 116.825487 
Q 182.172461 121.370297 183.242965 124.197429 
Q 184.316316 127.018928 186.44309 127.018928 
Q 188.399038 127.018928 189.423988 124.045372 
Q 189.964935 122.479749 190.232561 119.922941 
L 191.957895 119.922941 
Q 191.727281 124.00595 190.42901 126.771132 
Q 188.871654 130.099488 186.229558 130.099488 
Q 183.951889 130.099488 182.403075 127.368096 
Q 180.364561 123.763785 180.364561 116.228523 
Q 180.364561 110.512311 181.896294 106.851683 
Q 183.55045 102.870046 186.460172 102.870046 
z
M 186.104286 102.870046 
L 186.104286 102.870046 
z
" style="fill:#0000ff;"/>
   </g>
   <g id="patch_33">
    <path clip-path="url(#p1481a16592)" d="M 191.957895 70.737813 
L 191.957895 74.566245 
L 187.14316 74.566245 
L 187.14316 102.870046 
L 185.179296 102.870046 
L 185.179296 74.566245 
L 180.364561 74.566245 
L 180.364561 70.737813 
L 191.957895 70.737813 
z
" style="fill:#ff0000;"/>
   </g>
   <g id="patch_34">
    <path clip-path="url(#p1481a16592)" d="M 188.146272 53.555276 
L 186.173962 35.029926 
L 184.077145 53.555276 
L 188.146272 53.555276 
z
M 185.254305 28.8 
L 187.243593 28.8 
L 191.957895 70.737813 
L 190.028031 70.737813 
L 188.712214 58.177479 
L 183.573456 58.177479 
L 182.167088 70.737813 
L 180.364561 70.737813 
L 185.254305 28.8 
z
M 186.165473 28.8 
L 186.165473 28.8 
z
" style="fill:#008000;"/>
   </g>
   <g id="patch_35">
    <path clip-path="url(#p1481a16592)" d="M 198.547178 126.199628 
Q 200.335659 126.199628 201.640393 126.998654 
Q 203.531151 128.146054 203.954084 131.022547 
L 202.25406 131.022547 
Q 201.941698 129.414907 200.965912 128.679804 
Q 199.990125 127.9447 198.50295 127.9447 
Q 196.742112 127.9447 195.536892 129.475633 
Q 194.331672 131.00337 194.331672 134.030079 
Q 194.331672 136.644491 195.324044 138.287288 
Q 196.31918 139.930085 198.563764 139.930085 
Q 200.283138 139.930085 201.410958 138.779488 
Q 202.538779 137.625695 202.563658 135.04644 
L 198.591407 135.04644 
L 198.591407 133.400447 
L 204.161404 133.400447 
L 204.161404 141.250075 
L 203.055697 141.250075 
L 202.641057 139.361179 
Q 201.770313 140.470226 201.095832 140.9017 
Q 199.962483 141.64 198.218231 141.64 
Q 195.965354 141.64 194.339965 139.952458 
Q 192.56807 137.833442 192.56807 134.138747 
Q 192.56807 130.453641 194.295737 128.277095 
Q 195.937711 126.199628 198.547178 126.199628 
z
M 198.262459 126.177255 
L 198.262459 126.177255 
z
" style="fill:#ffa600;"/>
   </g>
   <g id="patch_36">
    <path clip-path="url(#p1481a16592)" d="M 204.161404 102.870046 
L 204.161404 105.64701 
L 199.346669 105.64701 
L 199.346669 126.177255 
L 197.382805 126.177255 
L 197.382805 105.64701 
L 192.56807 105.64701 
L 192.56807 102.870046 
L 204.161404 102.870046 
z
" style="fill:#ff0000;"/>
   </g>
   <g id="patch_37">
    <path clip-path="url(#p1481a16592)" d="M 198.663681 70.737813 
Q 201.14634 70.737813 202.515788 73.794861 
Q 203.885236 76.845263 204.036132 80.726385 
L 202.310798 80.726385 
Q 202.017548 77.782315 201.140645 76.061064 
Q 200.263743 74.333167 198.680763 74.333167 
Q 196.750439 74.333167 195.563204 77.503193 
Q 194.37597 80.666573 194.37597 87.205998 
Q 194.37597 92.569123 195.446474 95.905293 
Q 196.519825 99.234817 198.646598 99.234817 
Q 200.602546 99.234817 201.627497 95.725857 
Q 202.168443 93.878337 202.43607 90.861164 
L 204.161404 90.861164 
Q 203.93079 95.679337 202.632518 98.942404 
Q 201.075163 102.870046 198.433067 102.870046 
Q 196.155398 102.870046 194.606584 99.646854 
Q 192.56807 95.39357 192.56807 86.501548 
Q 192.56807 79.756105 194.099802 75.436363 
Q 195.753959 70.737813 198.663681 70.737813 
z
M 198.307795 70.737813 
L 198.307795 70.737813 
z
" style="fill:#0000ff;"/>
   </g>
   <g id="patch_38">
    <path clip-path="url(#p1481a16592)" d="M 200.34978 53.555276 
L 198.377471 35.029926 
L 196.280653 53.555276 
L 200.34978 53.555276 
z
M 197.457814 28.8 
L 199.447102 28.8 
L 204.161404 70.737813 
L 202.231539 70.737813 
L 200.915723 58.177479 
L 195.776964 58.177479 
L 194.370597 70.737813 
L 192.56807 70.737813 
L 197.457814 28.8 
z
M 198.368981 28.8 
L 198.368981 28.8 
z
" style="fill:#008000;"/>
   </g>
   <g id="patch_39">
    <path clip-path="url(#p1481a16592)" d="M 210.750687 121.303931 
Q 212.539168 121.303931 213.843901 122.356305 
Q 215.73466 123.867513 216.157592 127.656059 
L 214.457568 127.656059 
Q 214.145206 125.538683 213.16942 124.570499 
Q 212.193634 123.602315 210.706459 123.602315 
Q 208.945621 123.602315 207.740401 125.618663 
Q 206.535181 127.630802 206.535181 131.617193 
Q 206.535181 135.06056 207.527553 137.22424 
Q 208.522688 139.38792 210.767273 139.38792 
Q 212.486647 139.38792 213.614467 137.872502 
Q 214.742288 136.352875 214.767166 132.955812 
L 210.794915 132.955812 
L 210.794915 130.787923 
L 216.364912 130.787923 
L 216.364912 141.126442 
L 215.259206 141.126442 
L 214.844566 138.63863 
Q 213.973822 140.099325 213.299341 140.667607 
Q 212.165992 141.64 210.421739 141.64 
Q 208.168862 141.64 206.543474 139.417387 
Q 204.771579 136.626492 204.771579 131.760316 
Q 204.771579 126.906769 206.499245 124.040103 
Q 208.14122 121.303931 210.750687 121.303931 
z
M 210.465968 121.274465 
L 210.465968 121.274465 
z
" style="fill:#ffa600;"/>
   </g>
   <g id="patch_40">
    <path clip-path="url(#p1481a16592)" d="M 210.86719 95.025581 
Q 213.349848 95.025581 214.719297 97.522889 
Q 216.088745 100.014769 216.239641 103.185265 
L 214.514307 103.185265 
Q 214.221057 100.780248 213.344154 99.374155 
Q 212.467252 97.962633 210.884272 97.962633 
Q 208.953948 97.962633 207.766713 100.552233 
Q 206.579478 103.136405 206.579478 108.478473 
Q 206.579478 112.859621 207.649983 115.584945 
Q 208.723334 118.304839 210.850107 118.304839 
Q 212.806055 118.304839 213.831006 115.438363 
Q 214.371952 113.92912 214.639578 111.464385 
L 216.364912 111.464385 
Q 216.134298 115.400361 214.836027 118.065966 
Q 213.278671 121.274465 210.636576 121.274465 
Q 208.358907 121.274465 206.810092 118.641433 
Q 204.771579 115.166917 204.771579 107.903006 
Q 204.771579 102.392641 206.303311 98.863835 
Q 207.957468 95.025581 210.86719 95.025581 
z
M 210.511304 95.025581 
L 210.511304 95.025581 
z
" style="fill:#0000ff;"/>
   </g>
   <g id="patch_41">
    <path clip-path="url(#p1481a16592)" d="M 216.364912 67.796139 
L 216.364912 71.040422 
L 211.550178 71.040422 
L 211.550178 95.025581 
L 209.586314 95.025581 
L 209.586314 71.040422 
L 204.771579 71.040422 
L 204.771579 67.796139 
L 216.364912 67.796139 
z
" style="fill:#ff0000;"/>
   </g>
   <g id="patch_42">
    <path clip-path="url(#p1481a16592)" d="M 212.553289 51.818849 
L 210.580979 34.592935 
L 208.484162 51.818849 
L 212.553289 51.818849 
z
M 209.661323 28.8 
L 211.650611 28.8 
L 216.364912 67.796139 
L 214.435048 67.796139 
L 213.119232 56.116834 
L 207.980473 56.116834 
L 206.574106 67.796139 
L 204.771579 67.796139 
L 209.661323 28.8 
z
M 210.57249 28.8 
L 210.57249 28.8 
z
" style="fill:#008000;"/>
   </g>
   <g id="patch_43">
    <path clip-path="url(#p1481a16592)" d="M 223.070698 118.33279 
Q 225.553357 118.33279 226.922805 120.550229 
Q 228.292254 122.762847 228.443149 125.578031 
L 226.717815 125.578031 
Q 226.424565 123.442541 225.547663 122.194026 
Q 224.670761 120.940691 223.087781 120.940691 
Q 221.157457 120.940691 219.970222 123.240079 
Q 218.782987 125.534646 218.782987 130.278037 
Q 218.782987 134.168195 219.853491 136.588096 
Q 220.926843 139.003176 223.053616 139.003176 
Q 225.009564 139.003176 226.034515 136.457942 
Q 226.575461 135.117838 226.843087 132.929322 
L 228.568421 132.929322 
Q 228.337807 136.424198 227.039536 138.791073 
Q 225.48218 141.64 222.840084 141.64 
Q 220.562416 141.64 219.013601 139.302048 
Q 216.975088 136.216916 216.975088 129.767062 
Q 216.975088 124.874235 218.50682 121.740897 
Q 220.160977 118.33279 223.070698 118.33279 
z
M 222.714813 118.33279 
L 222.714813 118.33279 
z
" style="fill:#0000ff;"/>
   </g>
   <g id="patch_44">
    <path clip-path="url(#p1481a16592)" d="M 222.954196 91.142746 
Q 224.742676 91.142746 226.04741 92.549807 
Q 227.938168 94.570347 228.361101 99.635766 
L 226.661077 99.635766 
Q 226.348715 96.804759 225.372929 95.510263 
Q 224.397143 94.215767 222.909968 94.215767 
Q 221.14913 94.215767 219.94391 96.911696 
Q 218.73869 99.601996 218.73869 104.931943 
Q 218.73869 109.535846 219.731061 112.428763 
Q 220.726197 115.32168 222.970782 115.32168 
Q 224.690155 115.32168 225.817976 113.295513 
Q 226.945797 111.263717 226.970675 106.721724 
L 222.998424 106.721724 
L 222.998424 103.823179 
L 228.568421 103.823179 
L 228.568421 117.646145 
L 227.462714 117.646145 
L 227.048075 114.319853 
Q 226.177331 116.272853 225.50285 117.032666 
Q 224.3695 118.33279 222.625248 118.33279 
Q 220.372371 118.33279 218.746982 115.361078 
Q 216.975088 111.629552 216.975088 105.123303 
Q 216.975088 98.633938 218.702754 94.801105 
Q 220.344728 91.142746 222.954196 91.142746 
z
M 222.669477 91.103349 
L 222.669477 91.103349 
z
" style="fill:#ffa600;"/>
   </g>
   <g id="patch_45">
    <path clip-path="url(#p1481a16592)" d="M 228.568421 62.893349 
L 228.568421 66.254462 
L 223.753686 66.254462 
L 223.753686 91.103349 
L 221.789822 91.103349 
L 221.789822 66.254462 
L 216.975088 66.254462 
L 216.975088 62.893349 
L 228.568421 62.893349 
z
" style="fill:#ff0000;"/>
   </g>
   <g id="patch_46">
    <path clip-path="url(#p1481a16592)" d="M 224.756798 48.924804 
L 222.784488 33.864619 
L 220.687671 48.924804 
L 224.756798 48.924804 
z
M 221.864831 28.8 
L 223.85412 28.8 
L 228.568421 62.893349 
L 226.638557 62.893349 
L 225.32274 52.682424 
L 220.183982 52.682424 
L 218.777615 62.893349 
L 216.975088 62.893349 
L 221.864831 28.8 
z
M 222.775999 28.8 
L 222.775999 28.8 
z
" style="fill:#008000;"/>
   </g>
   <g id="patch_47">
    <path clip-path="url(#p1481a16592)" d="M 235.157705 120.324792 
Q 236.946185 120.324792 238.250919 121.427835 
Q 240.141677 123.011805 240.56461 126.982761 
L 238.864586 126.982761 
Q 238.552224 124.763438 237.576438 123.748638 
Q 236.600652 122.733838 235.113476 122.733838 
Q 233.352639 122.733838 232.147419 124.847269 
Q 230.942198 126.956288 230.942198 131.134616 
Q 230.942198 134.743773 231.93457 137.01163 
Q 232.929706 139.279487 235.17429 139.279487 
Q 236.893664 139.279487 238.021485 137.691105 
Q 239.149305 136.098311 239.174184 132.537687 
L 235.201933 132.537687 
L 235.201933 130.265418 
L 240.77193 130.265418 
L 240.77193 141.101715 
L 239.666223 141.101715 
L 239.251583 138.494121 
Q 238.380839 140.025145 237.706358 140.620788 
Q 236.573009 141.64 234.828757 141.64 
Q 232.57588 141.64 230.950491 139.310373 
Q 229.178596 136.385102 229.178596 131.28463 
Q 229.178596 126.197394 230.906263 123.192704 
Q 232.548237 120.324792 235.157705 120.324792 
z
M 234.872985 120.293907 
L 234.872985 120.293907 
z
" style="fill:#ffa600;"/>
   </g>
   <g id="patch_48">
    <path clip-path="url(#p1481a16592)" d="M 235.274207 97.967255 
Q 237.756866 97.967255 239.126314 100.091404 
Q 240.495763 102.210935 240.646658 104.907681 
L 238.921324 104.907681 
Q 238.628074 102.862033 237.751172 101.666045 
Q 236.874269 100.465439 235.29129 100.465439 
Q 233.360966 100.465439 232.173731 102.668089 
Q 230.986496 104.866121 230.986496 109.409953 
Q 230.986496 113.136449 232.057 115.454541 
Q 233.130352 117.768017 235.257125 117.768017 
Q 237.213073 117.768017 238.238023 115.329863 
Q 238.77897 114.046138 239.046596 111.949696 
L 240.77193 111.949696 
Q 240.541316 115.297539 239.243045 117.564837 
Q 237.685689 120.293907 235.043593 120.293907 
Q 232.765925 120.293907 231.21711 118.054315 
Q 229.178596 115.098977 229.178596 108.920475 
Q 229.178596 104.233494 230.710329 101.23198 
Q 232.364485 97.967255 235.274207 97.967255 
z
M 234.918321 97.967255 
L 234.918321 97.967255 
z
" style="fill:#0000ff;"/>
   </g>
   <g id="patch_49">
    <path clip-path="url(#p1481a16592)" d="M 240.77193 75.640604 
L 240.77193 78.300738 
L 235.957195 78.300738 
L 235.957195 97.967255 
L 233.993331 97.967255 
L 233.993331 78.300738 
L 229.178596 78.300738 
L 229.178596 75.640604 
L 240.77193 75.640604 
z
" style="fill:#ff0000;"/>
   </g>
   <g id="patch_50">
    <path clip-path="url(#p1481a16592)" d="M 236.960307 56.449322 
L 234.987997 35.758243 
L 232.89118 56.449322 
L 236.960307 56.449322 
z
M 234.06834 28.8 
L 236.057628 28.8 
L 240.77193 75.640604 
L 238.842066 75.640604 
L 237.526249 61.611889 
L 232.387491 61.611889 
L 230.981124 75.640604 
L 229.178596 75.640604 
L 234.06834 28.8 
z
M 234.979508 28.8 
L 234.979508 28.8 
z
" style="fill:#008000;"/>
   </g>
   <g id="patch_51">
    <path clip-path="url(#p1481a16592)" d="M 247.361214 117.387374 
Q 249.149694 117.387374 250.454428 118.642426 
Q 252.345186 120.444681 252.768119 124.962868 
L 251.068095 124.962868 
Q 250.755733 122.437703 249.779947 121.283055 
Q 248.804161 120.128408 247.316985 120.128408 
Q 245.556148 120.128408 244.350927 122.533087 
Q 243.145707 124.932747 243.145707 129.686884 
Q 243.145707 133.793414 244.138079 136.373802 
Q 245.133215 138.954189 247.377799 138.954189 
Q 249.097173 138.954189 250.224994 137.146914 
Q 251.352814 135.334618 251.377693 131.28331 
L 247.405442 131.28331 
L 247.405442 128.697903 
L 252.975439 128.697903 
L 252.975439 141.027535 
L 251.869732 141.027535 
L 251.455092 138.060591 
Q 250.584348 139.802604 249.909867 140.480332 
Q 248.776518 141.64 247.032266 141.64 
Q 244.779389 141.64 243.154 138.98933 
Q 241.382105 135.660932 241.382105 129.857571 
Q 241.382105 124.069271 243.109772 120.650509 
Q 244.751746 117.387374 247.361214 117.387374 
z
M 247.076494 117.352232 
L 247.076494 117.352232 
z
" style="fill:#ffa600;"/>
   </g>
   <g id="patch_52">
    <path clip-path="url(#p1481a16592)" d="M 247.477716 92.083907 
Q 249.960375 92.083907 251.329823 94.487925 
Q 252.699271 96.886718 252.850167 99.938776 
L 251.124833 99.938776 
Q 250.831583 97.623602 249.954681 96.270035 
Q 249.077778 94.911242 247.494798 94.911242 
Q 245.564474 94.911242 244.37724 97.404104 
Q 243.190005 99.891741 243.190005 105.03425 
Q 243.190005 109.251735 244.260509 111.875251 
Q 245.33386 114.493541 247.460633 114.493541 
Q 249.416581 114.493541 250.441532 111.734145 
Q 250.982479 110.281282 251.250105 107.90862 
L 252.975439 107.90862 
Q 252.744825 111.697563 251.446554 114.263591 
Q 249.889198 117.352232 247.247102 117.352232 
Q 244.969433 117.352232 243.420619 114.817561 
Q 241.382105 111.472839 241.382105 104.480281 
Q 241.382105 99.175761 242.913837 95.778779 
Q 244.567994 92.083907 247.477716 92.083907 
z
M 247.12183 92.083907 
L 247.12183 92.083907 
z
" style="fill:#0000ff;"/>
   </g>
   <g id="patch_53">
    <path clip-path="url(#p1481a16592)" d="M 249.163815 80.525856 
L 247.191506 68.064545 
L 245.094688 80.525856 
L 249.163815 80.525856 
z
M 246.271849 63.873907 
L 248.261137 63.873907 
L 252.975439 92.083907 
L 251.045574 92.083907 
L 249.729758 83.635039 
L 244.591 83.635039 
L 243.184632 92.083907 
L 241.382105 92.083907 
L 246.271849 63.873907 
z
M 247.183016 63.873907 
L 247.183016 63.873907 
z
" style="fill:#008000;"/>
   </g>
   <g id="patch_54">
    <path clip-path="url(#p1481a16592)" d="M 252.975439 28.8 
L 252.975439 32.978921 
L 248.160704 32.978921 
L 248.160704 63.873907 
L 246.19684 63.873907 
L 246.19684 32.978921 
L 241.382105 32.978921 
L 241.382105 28.8 
L 252.975439 28.8 
z
" style="fill:#ff0000;"/>
   </g>
   <g id="patch_55">
    <path clip-path="url(#p1481a16592)" d="M 259.564722 121.303931 
Q 261.353203 121.303931 262.657936 122.356305 
Q 264.548695 123.867513 264.971627 127.656059 
L 263.271604 127.656059 
Q 262.959241 125.538683 261.983455 124.570499 
Q 261.007669 123.602315 259.520494 123.602315 
Q 257.759656 123.602315 256.554436 125.618663 
Q 255.349216 127.630802 255.349216 131.617193 
Q 255.349216 135.06056 256.341588 137.22424 
Q 257.336724 139.38792 259.581308 139.38792 
Q 261.300682 139.38792 262.428502 137.872502 
Q 263.556323 136.352875 263.581201 132.955812 
L 259.608951 132.955812 
L 259.608951 130.787923 
L 265.178947 130.787923 
L 265.178947 141.126442 
L 264.073241 141.126442 
L 263.658601 138.63863 
Q 262.787857 140.099325 262.113376 140.667607 
Q 260.980027 141.64 259.235775 141.64 
Q 256.982897 141.64 255.357509 139.417387 
Q 253.585614 136.626492 253.585614 131.760316 
Q 253.585614 126.906769 255.313281 124.040103 
Q 256.955255 121.303931 259.564722 121.303931 
z
M 259.280003 121.274465 
L 259.280003 121.274465 
z
" style="fill:#ffa600;"/>
   </g>
   <g id="patch_56">
    <path clip-path="url(#p1481a16592)" d="M 259.681225 94.045023 
Q 262.163884 94.045023 263.533332 96.635621 
Q 264.90278 99.220588 265.053676 102.509522 
L 263.328342 102.509522 
Q 263.035092 100.014663 262.158189 98.556043 
Q 261.281287 97.091792 259.698307 97.091792 
Q 257.767983 97.091792 256.580748 99.77813 
Q 255.393514 102.458836 255.393514 108.000464 
Q 255.393514 112.545274 256.464018 115.372406 
Q 257.537369 118.193905 259.664142 118.193905 
Q 261.62009 118.193905 262.645041 115.220349 
Q 263.185987 113.654726 263.453613 111.097918 
L 265.178947 111.097918 
Q 264.948333 115.180927 263.650062 117.946109 
Q 262.092706 121.274465 259.450611 121.274465 
Q 257.172942 121.274465 255.624127 118.543073 
Q 253.585614 114.938762 253.585614 107.4035 
Q 253.585614 101.687288 255.117346 98.02666 
Q 256.771503 94.045023 259.681225 94.045023 
z
M 259.325339 94.045023 
L 259.325339 94.045023 
z
" style="fill:#0000ff;"/>
   </g>
   <g id="patch_57">
    <path clip-path="url(#p1481a16592)" d="M 265.178947 63.873907 
L 265.178947 67.468679 
L 260.364213 67.468679 
L 260.364213 94.045023 
L 258.400349 94.045023 
L 258.400349 67.468679 
L 253.585614 67.468679 
L 253.585614 63.873907 
L 265.178947 63.873907 
z
" style="fill:#ff0000;"/>
   </g>
   <g id="patch_58">
    <path clip-path="url(#p1481a16592)" d="M 261.367324 49.503613 
L 259.395014 34.010282 
L 257.298197 49.503613 
L 261.367324 49.503613 
z
M 258.475358 28.8 
L 260.464646 28.8 
L 265.178947 63.873907 
L 263.249083 63.873907 
L 261.933267 53.369306 
L 256.794508 53.369306 
L 255.388141 63.873907 
L 253.585614 63.873907 
L 258.475358 28.8 
z
M 259.386525 28.8 
L 259.386525 28.8 
z
" style="fill:#008000;"/>
   </g>
   <g id="patch_59">
    <path clip-path="url(#p1481a16592)" d="M 271.768231 122.283071 
Q 273.556711 122.283071 274.861445 123.284775 
Q 276.752203 124.723222 277.175136 128.329356 
L 275.475112 128.329356 
Q 275.16275 126.313928 274.186964 125.39236 
Q 273.211178 124.470792 271.724003 124.470792 
Q 269.963165 124.470792 268.757945 126.390057 
Q 267.552725 128.305315 267.552725 132.09977 
Q 267.552725 135.377346 268.545096 137.43685 
Q 269.540232 139.496353 271.784817 139.496353 
Q 273.50419 139.496353 274.632011 138.053899 
Q 275.759832 136.607439 275.78471 133.373938 
L 271.812459 133.373938 
L 271.812459 131.310428 
L 277.382456 131.310428 
L 277.382456 141.151168 
L 276.27675 141.151168 
L 275.86211 138.78314 
Q 274.991366 140.173505 274.316885 140.714425 
Q 273.183535 141.64 271.439283 141.64 
Q 269.186406 141.64 267.561018 139.524401 
Q 265.789123 136.867882 265.789123 132.236002 
Q 265.789123 127.616143 267.516789 124.887501 
Q 269.158764 122.283071 271.768231 122.283071 
z
M 271.483512 122.255023 
L 271.483512 122.255023 
z
" style="fill:#ffa600;"/>
   </g>
   <g id="patch_60">
    <path clip-path="url(#p1481a16592)" d="M 271.884733 95.025581 
Q 274.367392 95.025581 275.736841 97.616179 
Q 277.106289 100.201146 277.257184 103.49008 
L 275.53185 103.49008 
Q 275.238601 100.995221 274.361698 99.536601 
Q 273.484796 98.07235 271.901816 98.07235 
Q 269.971492 98.07235 268.784257 100.758688 
Q 267.597022 103.439394 267.597022 108.981022 
Q 267.597022 113.525833 268.667527 116.352964 
Q 269.740878 119.174463 271.867651 119.174463 
Q 273.823599 119.174463 274.84855 116.200907 
Q 275.389496 114.635284 275.657122 112.078476 
L 277.382456 112.078476 
Q 277.151842 116.161485 275.853571 118.926667 
Q 274.296215 122.255023 271.65412 122.255023 
Q 269.376451 122.255023 267.827636 119.523631 
Q 265.789123 115.91932 265.789123 108.384058 
Q 265.789123 102.667846 267.320855 99.007218 
Q 268.975012 95.025581 271.884733 95.025581 
z
M 271.528848 95.025581 
L 271.528848 95.025581 
z
" style="fill:#0000ff;"/>
   </g>
   <g id="patch_61">
    <path clip-path="url(#p1481a16592)" d="M 277.382456 63.873907 
L 277.382456 67.585509 
L 272.567721 67.585509 
L 272.567721 95.025581 
L 270.603857 95.025581 
L 270.603857 67.585509 
L 265.789123 67.585509 
L 265.789123 63.873907 
L 277.382456 63.873907 
z
" style="fill:#ff0000;"/>
   </g>
   <g id="patch_62">
    <path clip-path="url(#p1481a16592)" d="M 273.570833 49.503613 
L 271.598523 34.010282 
L 269.501706 49.503613 
L 273.570833 49.503613 
z
M 270.678867 28.8 
L 272.668155 28.8 
L 277.382456 63.873907 
L 275.452592 63.873907 
L 274.136776 53.369306 
L 268.998017 53.369306 
L 267.59165 63.873907 
L 265.789123 63.873907 
L 270.678867 28.8 
z
M 271.590034 28.8 
L 271.590034 28.8 
z
" style="fill:#008000;"/>
   </g>
   <g id="patch_63">
    <path clip-path="url(#p1481a16592)" d="M 283.97174 122.283071 
Q 285.76022 122.283071 287.064954 123.284775 
Q 288.955712 124.723222 289.378645 128.329356 
L 287.678621 128.329356 
Q 287.366259 126.313928 286.390473 125.39236 
Q 285.414687 124.470792 283.927512 124.470792 
Q 282.166674 124.470792 280.961454 126.390057 
Q 279.756234 128.305315 279.756234 132.09977 
Q 279.756234 135.377346 280.748605 137.43685 
Q 281.743741 139.496353 283.988325 139.496353 
Q 285.707699 139.496353 286.83552 138.053899 
Q 287.963341 136.607439 287.988219 133.373938 
L 284.015968 133.373938 
L 284.015968 131.310428 
L 289.585965 131.310428 
L 289.585965 141.151168 
L 288.480258 141.151168 
L 288.065618 138.78314 
Q 287.194874 140.173505 286.520393 140.714425 
Q 285.387044 141.64 283.642792 141.64 
Q 281.389915 141.64 279.764526 139.524401 
Q 277.992632 136.867882 277.992632 132.236002 
Q 277.992632 127.616143 279.720298 124.887501 
Q 281.362272 122.283071 283.97174 122.283071 
z
M 283.68702 122.255023 
L 283.68702 122.255023 
z
" style="fill:#ffa600;"/>
   </g>
   <g id="patch_64">
    <path clip-path="url(#p1481a16592)" d="M 284.088242 96.006139 
Q 286.570901 96.006139 287.940349 98.503447 
Q 289.309798 100.995327 289.460693 104.165823 
L 287.735359 104.165823 
Q 287.442109 101.760806 286.565207 100.354713 
Q 285.688304 98.943191 284.105325 98.943191 
Q 282.175001 98.943191 280.987766 101.532791 
Q 279.800531 104.116963 279.800531 109.459031 
Q 279.800531 113.840179 280.871035 116.565503 
Q 281.944387 119.285397 284.07116 119.285397 
Q 286.027108 119.285397 287.052059 116.418921 
Q 287.593005 114.909678 287.860631 112.444944 
L 289.585965 112.444944 
Q 289.355351 116.380919 288.05708 119.046524 
Q 286.499724 122.255023 283.857628 122.255023 
Q 281.57996 122.255023 280.031145 119.621991 
Q 277.992632 116.147475 277.992632 108.883565 
Q 277.992632 103.373199 279.524364 99.844394 
Q 281.178521 96.006139 284.088242 96.006139 
z
M 283.732357 96.006139 
L 283.732357 96.006139 
z
" style="fill:#0000ff;"/>
   </g>
   <g id="patch_65">
    <path clip-path="url(#p1481a16592)" d="M 285.774342 83.64459 
L 283.802032 70.316988 
L 281.705215 83.64459 
L 285.774342 83.64459 
z
M 282.882375 65.835023 
L 284.871663 65.835023 
L 289.585965 96.006139 
L 287.656101 96.006139 
L 286.340284 86.969919 
L 281.201526 86.969919 
L 279.795159 96.006139 
L 277.992632 96.006139 
L 282.882375 65.835023 
z
M 283.793543 65.835023 
L 283.793543 65.835023 
z
" style="fill:#008000;"/>
   </g>
   <g id="patch_66">
    <path clip-path="url(#p1481a16592)" d="M 289.585965 28.8 
L 289.585965 33.212581 
L 284.77123 33.212581 
L 284.77123 65.835023 
L 282.807366 65.835023 
L 282.807366 33.212581 
L 277.992632 33.212581 
L 277.992632 28.8 
L 289.585965 28.8 
z
" style="fill:#ff0000;"/>
   </g>
   <g id="patch_67">
    <path clip-path="url(#p1481a16592)" d="M 296.291751 121.274465 
Q 298.77441 121.274465 300.143858 123.212034 
Q 301.513306 125.145391 301.664202 127.605261 
L 299.938868 127.605261 
Q 299.645618 125.739298 298.768716 124.648362 
Q 297.891813 123.553214 296.308834 123.553214 
Q 294.378509 123.553214 293.191275 125.562389 
Q 292.00404 127.567352 292.00404 131.712065 
Q 292.00404 135.111235 293.074544 137.225712 
Q 294.147895 139.335978 296.274669 139.335978 
Q 298.230616 139.335978 299.255567 137.111985 
Q 299.796514 135.94102 300.06414 134.028723 
L 301.789474 134.028723 
Q 301.55886 137.082501 300.260589 139.150645 
Q 298.703233 141.64 296.061137 141.64 
Q 293.783468 141.64 292.234654 139.597128 
Q 290.19614 136.90138 290.19614 131.265582 
Q 290.19614 126.990293 291.727873 124.252424 
Q 293.382029 121.274465 296.291751 121.274465 
z
M 295.935865 121.274465 
L 295.935865 121.274465 
z
" style="fill:#0000ff;"/>
   </g>
   <g id="patch_68">
    <path clip-path="url(#p1481a16592)" d="M 296.175249 98.980117 
Q 297.963729 98.980117 299.268463 100.13383 
Q 301.159221 101.790562 301.582154 105.943928 
L 299.88213 105.943928 
Q 299.569768 103.622658 298.593982 102.561242 
Q 297.618196 101.499826 296.13102 101.499826 
Q 294.370183 101.499826 293.164962 103.71034 
Q 291.959742 105.916239 291.959742 110.286503 
Q 291.959742 114.061452 292.952114 116.433486 
Q 293.94725 118.805519 296.191834 118.805519 
Q 297.911208 118.805519 299.039029 117.144173 
Q 300.166849 115.478211 300.191728 111.754026 
L 296.219477 111.754026 
L 296.219477 109.377378 
L 301.789474 109.377378 
L 301.789474 120.711453 
L 300.683767 120.711453 
L 300.269127 117.984076 
Q 299.398383 119.585429 298.723902 120.208434 
Q 297.590553 121.274465 295.846301 121.274465 
Q 293.593424 121.274465 291.968035 118.837823 
Q 290.19614 115.778177 290.19614 110.443408 
Q 290.19614 105.122485 291.923807 101.979771 
Q 293.565781 98.980117 296.175249 98.980117 
z
M 295.890529 98.947813 
L 295.890529 98.947813 
z
" style="fill:#ffa600;"/>
   </g>
   <g id="patch_69">
    <path clip-path="url(#p1481a16592)" d="M 301.789474 65.835023 
L 301.789474 69.780284 
L 296.974739 69.780284 
L 296.974739 98.947813 
L 295.010875 98.947813 
L 295.010875 69.780284 
L 290.19614 69.780284 
L 290.19614 65.835023 
L 301.789474 65.835023 
z
" style="fill:#ff0000;"/>
   </g>
   <g id="patch_70">
    <path clip-path="url(#p1481a16592)" d="M 297.977851 50.661231 
L 296.005541 34.301609 
L 293.908724 50.661231 
L 297.977851 50.661231 
z
M 295.085884 28.8 
L 297.075172 28.8 
L 301.789474 65.835023 
L 299.85961 65.835023 
L 298.543793 54.74307 
L 293.405035 54.74307 
L 291.998667 65.835023 
L 290.19614 65.835023 
L 295.085884 28.8 
z
M 295.997052 28.8 
L 295.997052 28.8 
z
" style="fill:#008000;"/>
   </g>
   <g id="patch_71">
    <path clip-path="url(#p1481a16592)" d="M 308.378757 126.199628 
Q 310.167238 126.199628 311.471971 126.998654 
Q 313.36273 128.146054 313.785662 131.022547 
L 312.085639 131.022547 
Q 311.773277 129.414907 310.79749 128.679804 
Q 309.821704 127.9447 308.334529 127.9447 
Q 306.573691 127.9447 305.368471 129.475633 
Q 304.163251 131.00337 304.163251 134.030079 
Q 304.163251 136.644491 305.155623 138.287288 
Q 306.150759 139.930085 308.395343 139.930085 
Q 310.114717 139.930085 311.242537 138.779488 
Q 312.370358 137.625695 312.395236 135.04644 
L 308.422986 135.04644 
L 308.422986 133.400447 
L 313.992982 133.400447 
L 313.992982 141.250075 
L 312.887276 141.250075 
L 312.472636 139.361179 
Q 311.601892 140.470226 310.927411 140.9017 
Q 309.794062 141.64 308.04981 141.64 
Q 305.796933 141.64 304.171544 139.952458 
Q 302.399649 137.833442 302.399649 134.138747 
Q 302.399649 130.453641 304.127316 128.277095 
Q 305.76929 126.199628 308.378757 126.199628 
z
M 308.094038 126.177255 
L 308.094038 126.177255 
z
" style="fill:#ffa600;"/>
   </g>
   <g id="patch_72">
    <path clip-path="url(#p1481a16592)" d="M 308.49526 103.850604 
Q 310.977919 103.850604 312.347367 105.974753 
Q 313.716815 108.094284 313.867711 110.791029 
L 312.142377 110.791029 
Q 311.849127 108.745381 310.972224 107.549393 
Q 310.095322 106.348787 308.512342 106.348787 
Q 306.582018 106.348787 305.394783 108.551437 
Q 304.207549 110.74947 304.207549 115.293301 
Q 304.207549 119.019797 305.278053 121.33789 
Q 306.351404 123.651365 308.478177 123.651365 
Q 310.434125 123.651365 311.459076 121.213212 
Q 312.000022 119.929487 312.267648 117.833044 
L 313.992982 117.833044 
Q 313.762369 121.180888 312.464097 123.448186 
Q 310.906741 126.177255 308.264646 126.177255 
Q 305.986977 126.177255 304.438163 123.937663 
Q 302.399649 120.982326 302.399649 114.803823 
Q 302.399649 110.116843 303.931381 107.115328 
Q 305.585538 103.850604 308.49526 103.850604 
z
M 308.139374 103.850604 
L 308.139374 103.850604 
z
" style="fill:#0000ff;"/>
   </g>
   <g id="patch_73">
    <path clip-path="url(#p1481a16592)" d="M 310.181359 89.48031 
L 308.209049 73.986979 
L 306.112232 89.48031 
L 310.181359 89.48031 
z
M 307.289393 68.776697 
L 309.278681 68.776697 
L 313.992982 103.850604 
L 312.063118 103.850604 
L 310.747302 93.346003 
L 305.608543 93.346003 
L 304.202176 103.850604 
L 302.399649 103.850604 
L 307.289393 68.776697 
z
M 308.20056 68.776697 
L 308.20056 68.776697 
z
" style="fill:#008000;"/>
   </g>
   <g id="patch_74">
    <path clip-path="url(#p1481a16592)" d="M 313.992982 28.8 
L 313.992982 33.56307 
L 309.178248 33.56307 
L 309.178248 68.776697 
L 307.214384 68.776697 
L 307.214384 33.56307 
L 302.399649 33.56307 
L 302.399649 28.8 
L 313.992982 28.8 
z
" style="fill:#ff0000;"/>
   </g>
   <g id="patch_75">
    <path clip-path="url(#p1481a16592)" d="M 320.582266 124.241349 
Q 322.370747 124.241349 323.67548 125.141714 
Q 325.566238 126.434638 325.989171 129.675952 
L 324.289147 129.675952 
Q 323.976785 127.864417 323.000999 127.036082 
Q 322.025213 126.207746 320.538038 126.207746 
Q 318.7772 126.207746 317.57198 127.932845 
Q 316.36676 129.654343 316.36676 133.064925 
Q 316.36676 136.010919 317.359132 137.862069 
Q 318.354267 139.713219 320.598852 139.713219 
Q 322.318225 139.713219 323.446046 138.416694 
Q 324.573867 137.116567 324.598745 134.210189 
L 320.626494 134.210189 
L 320.626494 132.355437 
L 326.196491 132.355437 
L 326.196491 141.200622 
L 325.090785 141.200622 
L 324.676145 139.072159 
Q 323.805401 140.321866 323.13092 140.808063 
Q 321.997571 141.64 320.253318 141.64 
Q 318.000441 141.64 316.375053 139.738429 
Q 314.603158 137.350662 314.603158 133.187375 
Q 314.603158 129.034892 316.330824 126.582298 
Q 317.972799 124.241349 320.582266 124.241349 
z
M 320.297547 124.216139 
L 320.297547 124.216139 
z
" style="fill:#ffa600;"/>
   </g>
   <g id="patch_76">
    <path clip-path="url(#p1481a16592)" d="M 320.698769 96.986697 
Q 323.181427 96.986697 324.550876 99.577295 
Q 325.920324 102.162262 326.071219 105.451196 
L 324.345885 105.451196 
Q 324.052636 102.956337 323.175733 101.497717 
Q 322.298831 100.033466 320.715851 100.033466 
Q 318.785527 100.033466 317.598292 102.719804 
Q 316.411057 105.40051 316.411057 110.942138 
Q 316.411057 115.486949 317.481562 118.31408 
Q 318.554913 121.13558 320.681686 121.13558 
Q 322.637634 121.13558 323.662585 118.162023 
Q 324.203531 116.596401 324.471157 114.039593 
L 326.196491 114.039593 
Q 325.965877 118.122601 324.667606 120.887783 
Q 323.11025 124.216139 320.468155 124.216139 
Q 318.190486 124.216139 316.641671 121.484747 
Q 314.603158 117.880436 314.603158 110.345174 
Q 314.603158 104.628962 316.13489 100.968334 
Q 317.789047 96.986697 320.698769 96.986697 
z
M 320.342883 96.986697 
L 320.342883 96.986697 
z
" style="fill:#0000ff;"/>
   </g>
   <g id="patch_77">
    <path clip-path="url(#p1481a16592)" d="M 322.384868 83.82165 
L 320.412558 69.627756 
L 318.315741 83.82165 
L 322.384868 83.82165 
z
M 319.492902 64.854465 
L 321.48219 64.854465 
L 326.196491 96.986697 
L 324.266627 96.986697 
L 322.950811 87.363125 
L 317.812052 87.363125 
L 316.405685 96.986697 
L 314.603158 96.986697 
L 319.492902 64.854465 
z
M 320.404069 64.854465 
L 320.404069 64.854465 
z
" style="fill:#008000;"/>
   </g>
   <g id="patch_78">
    <path clip-path="url(#p1481a16592)" d="M 326.196491 28.8 
L 326.196491 33.095751 
L 321.381757 33.095751 
L 321.381757 64.854465 
L 319.417893 64.854465 
L 319.417893 33.095751 
L 314.603158 33.095751 
L 314.603158 28.8 
L 326.196491 28.8 
z
" style="fill:#ff0000;"/>
   </g>
   <g id="patch_79">
    <path clip-path="url(#p1481a16592)" d="M 332.902277 119.313349 
Q 335.384936 119.313349 336.754384 121.437497 
Q 338.123833 123.557029 338.274728 126.253774 
L 336.549394 126.253774 
Q 336.256144 124.208126 335.379242 123.012138 
Q 334.50234 121.811532 332.91936 121.811532 
Q 330.989036 121.811532 329.801801 124.014182 
Q 328.614566 126.212215 328.614566 130.756046 
Q 328.614566 134.482542 329.68507 136.800635 
Q 330.758422 139.11411 332.885195 139.11411 
Q 334.841143 139.11411 335.866094 136.675957 
Q 336.40704 135.392232 336.674666 133.295789 
L 338.4 133.295789 
Q 338.169386 136.643632 336.871115 138.910931 
Q 335.313759 141.64 332.671663 141.64 
Q 330.393995 141.64 328.84518 139.400408 
Q 326.806667 136.445071 326.806667 130.266568 
Q 326.806667 125.579588 328.338399 122.578073 
Q 329.992556 119.313349 332.902277 119.313349 
z
M 332.546392 119.313349 
L 332.546392 119.313349 
z
" style="fill:#0000ff;"/>
   </g>
   <g id="patch_80">
    <path clip-path="url(#p1481a16592)" d="M 332.785775 95.060722 
Q 334.574255 95.060722 335.878989 96.315774 
Q 337.769747 98.118029 338.19268 102.636217 
L 336.492656 102.636217 
Q 336.180294 100.111052 335.204508 98.956404 
Q 334.228722 97.801756 332.741547 97.801756 
Q 330.980709 97.801756 329.775489 100.206436 
Q 328.570269 102.606095 328.570269 107.360233 
Q 328.570269 111.466763 329.56264 114.04715 
Q 330.557776 116.627537 332.802361 116.627537 
Q 334.521734 116.627537 335.649555 114.820262 
Q 336.777376 113.007967 336.802254 108.956659 
L 332.830003 108.956659 
L 332.830003 106.371252 
L 338.4 106.371252 
L 338.4 118.700883 
L 337.294293 118.700883 
L 336.879653 115.73394 
Q 336.00891 117.475952 335.334429 118.15368 
Q 334.201079 119.313349 332.456827 119.313349 
Q 330.20395 119.313349 328.578561 116.662679 
Q 326.806667 113.33428 326.806667 107.53092 
Q 326.806667 101.74262 328.534333 98.323858 
Q 330.176307 95.060722 332.785775 95.060722 
z
M 332.501055 95.025581 
L 332.501055 95.025581 
z
" style="fill:#ffa600;"/>
   </g>
   <g id="patch_81">
    <path clip-path="url(#p1481a16592)" d="M 338.4 64.854465 
L 338.4 68.449237 
L 333.585265 68.449237 
L 333.585265 95.025581 
L 331.621401 95.025581 
L 331.621401 68.449237 
L 326.806667 68.449237 
L 326.806667 64.854465 
L 338.4 64.854465 
z
" style="fill:#ff0000;"/>
   </g>
   <g id="patch_82">
    <path clip-path="url(#p1481a16592)" d="M 334.588377 50.082422 
L 332.616067 34.155945 
L 330.51925 50.082422 
L 334.588377 50.082422 
z
M 331.69641 28.8 
L 333.685698 28.8 
L 338.4 64.854465 
L 336.470136 64.854465 
L 335.154319 54.056188 
L 330.015561 54.056188 
L 328.609194 64.854465 
L 326.806667 64.854465 
L 331.69641 28.8 
z
M 332.607578 28.8 
L 332.607578 28.8 
z
" style="fill:#008000;"/>
   </g>
   <g id="matplotlib.axis_1">
    <g id="xtick_1">
     <g id="text_1">
      <!-- 0 -->
      <g style="fill:#262626;" transform="translate(95.175729 162.986875)scale(0.2 -0.2)">
       <defs>
        <path d="M 1731 4475 
Q 2600 4475 2988 3759 
Q 3288 3206 3288 2244 
Q 3288 1331 3016 734 
Q 2622 -122 1728 -122 
Q 922 -122 528 578 
Q 200 1163 200 2147 
Q 200 2909 397 3456 
Q 766 4475 1731 4475 
z
M 1725 391 
Q 2163 391 2422 778 
Q 2681 1166 2681 2222 
Q 2681 2984 2493 3476 
Q 2306 3969 1766 3969 
Q 1269 3969 1039 3501 
Q 809 3034 809 2125 
Q 809 1441 956 1025 
Q 1181 391 1725 391 
z
" id="Helvetica-30" transform="scale(0.015625)"/>
       </defs>
       <use xlink:href="#Helvetica-30"/>
      </g>
     </g>
    </g>
    <g id="xtick_2">
     <g id="text_2">
      <!-- 10 -->
      <g style="fill:#262626;" transform="translate(211.649879 162.986875)scale(0.2 -0.2)">
       <defs>
        <path d="M 613 3169 
L 613 3600 
Q 1222 3659 1462 3798 
Q 1703 3938 1822 4456 
L 2266 4456 
L 2266 0 
L 1666 0 
L 1666 3169 
L 613 3169 
z
" id="Helvetica-31" transform="scale(0.015625)"/>
       </defs>
       <use xlink:href="#Helvetica-31"/>
       <use x="55.615234" xlink:href="#Helvetica-30"/>
      </g>
     </g>
    </g>
    <g id="text_3">
     <!-- Position -->
     <g style="fill:#262626;" transform="translate(172.20125 189.089219)scale(0.25 -0.25)">
      <defs>
       <path d="M 547 4591 
L 2613 4591 
Q 3225 4591 3600 4245 
Q 3975 3900 3975 3275 
Q 3975 2738 3640 2339 
Q 3306 1941 2613 1941 
L 1169 1941 
L 1169 0 
L 547 0 
L 547 4591 
z
M 3347 3272 
Q 3347 3778 2972 3959 
Q 2766 4056 2406 4056 
L 1169 4056 
L 1169 2466 
L 2406 2466 
Q 2825 2466 3086 2644 
Q 3347 2822 3347 3272 
z
" id="Helvetica-50" transform="scale(0.015625)"/>
       <path d="M 1741 363 
Q 2300 363 2508 786 
Q 2716 1209 2716 1728 
Q 2716 2197 2566 2491 
Q 2328 2953 1747 2953 
Q 1231 2953 997 2559 
Q 763 2166 763 1609 
Q 763 1075 997 719 
Q 1231 363 1741 363 
z
M 1763 3444 
Q 2409 3444 2856 3012 
Q 3303 2581 3303 1744 
Q 3303 934 2909 406 
Q 2516 -122 1688 -122 
Q 997 -122 590 345 
Q 184 813 184 1600 
Q 184 2444 612 2944 
Q 1041 3444 1763 3444 
z
M 1744 3428 
L 1744 3428 
z
" id="Helvetica-6f" transform="scale(0.015625)"/>
       <path d="M 747 1050 
Q 772 769 888 619 
Q 1100 347 1625 347 
Q 1938 347 2175 483 
Q 2413 619 2413 903 
Q 2413 1119 2222 1231 
Q 2100 1300 1741 1391 
L 1294 1503 
Q 866 1609 663 1741 
Q 300 1969 300 2372 
Q 300 2847 642 3140 
Q 984 3434 1563 3434 
Q 2319 3434 2653 2991 
Q 2863 2709 2856 2384 
L 2325 2384 
Q 2309 2575 2191 2731 
Q 1997 2953 1519 2953 
Q 1200 2953 1036 2831 
Q 872 2709 872 2509 
Q 872 2291 1088 2159 
Q 1213 2081 1456 2022 
L 1828 1931 
Q 2434 1784 2641 1647 
Q 2969 1431 2969 969 
Q 2969 522 2630 197 
Q 2291 -128 1597 -128 
Q 850 -128 539 211 
Q 228 550 206 1050 
L 747 1050 
z
M 1578 3428 
L 1578 3428 
z
" id="Helvetica-73" transform="scale(0.015625)"/>
       <path d="M 413 3331 
L 984 3331 
L 984 0 
L 413 0 
L 413 3331 
z
M 413 4591 
L 984 4591 
L 984 3953 
L 413 3953 
L 413 4591 
z
" id="Helvetica-69" transform="scale(0.015625)"/>
       <path d="M 525 4281 
L 1094 4281 
L 1094 3347 
L 1628 3347 
L 1628 2888 
L 1094 2888 
L 1094 703 
Q 1094 528 1213 469 
Q 1278 434 1431 434 
Q 1472 434 1519 436 
Q 1566 438 1628 444 
L 1628 0 
Q 1531 -28 1426 -40 
Q 1322 -53 1200 -53 
Q 806 -53 665 148 
Q 525 350 525 672 
L 525 2888 
L 72 2888 
L 72 3347 
L 525 3347 
L 525 4281 
z
" id="Helvetica-74" transform="scale(0.015625)"/>
       <path d="M 413 3347 
L 947 3347 
L 947 2872 
Q 1184 3166 1450 3294 
Q 1716 3422 2041 3422 
Q 2753 3422 3003 2925 
Q 3141 2653 3141 2147 
L 3141 0 
L 2569 0 
L 2569 2109 
Q 2569 2416 2478 2603 
Q 2328 2916 1934 2916 
Q 1734 2916 1606 2875 
Q 1375 2806 1200 2600 
Q 1059 2434 1017 2257 
Q 975 2081 975 1753 
L 975 0 
L 413 0 
L 413 3347 
z
M 1734 3428 
L 1734 3428 
z
" id="Helvetica-6e" transform="scale(0.015625)"/>
      </defs>
      <use xlink:href="#Helvetica-50"/>
      <use x="66.699219" xlink:href="#Helvetica-6f"/>
      <use x="122.314453" xlink:href="#Helvetica-73"/>
      <use x="172.314453" xlink:href="#Helvetica-69"/>
      <use x="194.53125" xlink:href="#Helvetica-74"/>
      <use x="222.314453" xlink:href="#Helvetica-69"/>
      <use x="244.53125" xlink:href="#Helvetica-6f"/>
      <use x="300.146484" xlink:href="#Helvetica-6e"/>
     </g>
    </g>
   </g>
   <g id="matplotlib.axis_2">
    <g id="ytick_1">
     <g id="text_4">
      <!-- 0 -->
      <g style="fill:#262626;" transform="translate(76.818125 148.813438)scale(0.2 -0.2)">
       <use xlink:href="#Helvetica-30"/>
      </g>
     </g>
    </g>
    <g id="ytick_2">
     <g id="text_5">
      <!-- 0.25 -->
      <g style="fill:#262626;" transform="translate(49.018125 120.603437)scale(0.2 -0.2)">
       <defs>
        <path d="M 547 681 
L 1200 681 
L 1200 0 
L 547 0 
L 547 681 
z
" id="Helvetica-2e" transform="scale(0.015625)"/>
        <path d="M 200 0 
Q 231 578 439 1006 
Q 647 1434 1250 1784 
L 1850 2131 
Q 2253 2366 2416 2531 
Q 2672 2791 2672 3125 
Q 2672 3516 2437 3745 
Q 2203 3975 1813 3975 
Q 1234 3975 1013 3538 
Q 894 3303 881 2888 
L 309 2888 
Q 319 3472 525 3841 
Q 891 4491 1816 4491 
Q 2584 4491 2939 4075 
Q 3294 3659 3294 3150 
Q 3294 2613 2916 2231 
Q 2697 2009 2131 1694 
L 1703 1456 
Q 1397 1288 1222 1134 
Q 909 863 828 531 
L 3272 531 
L 3272 0 
L 200 0 
z
" id="Helvetica-32" transform="scale(0.015625)"/>
        <path d="M 791 1141 
Q 847 659 1238 475 
Q 1438 381 1700 381 
Q 2200 381 2440 700 
Q 2681 1019 2681 1406 
Q 2681 1875 2395 2131 
Q 2109 2388 1709 2388 
Q 1419 2388 1211 2275 
Q 1003 2163 856 1963 
L 369 1991 
L 709 4400 
L 3034 4400 
L 3034 3856 
L 1131 3856 
L 941 2613 
Q 1097 2731 1238 2791 
Q 1488 2894 1816 2894 
Q 2431 2894 2859 2497 
Q 3288 2100 3288 1491 
Q 3288 856 2895 371 
Q 2503 -113 1644 -113 
Q 1097 -113 676 195 
Q 256 503 206 1141 
L 791 1141 
z
" id="Helvetica-35" transform="scale(0.015625)"/>
       </defs>
       <use xlink:href="#Helvetica-30"/>
       <use x="55.615234" xlink:href="#Helvetica-2e"/>
       <use x="83.398438" xlink:href="#Helvetica-32"/>
       <use x="139.013672" xlink:href="#Helvetica-35"/>
      </g>
     </g>
    </g>
    <g id="ytick_3">
     <g id="text_6">
      <!-- 0.50 -->
      <g style="fill:#262626;" transform="translate(49.018125 92.393438)scale(0.2 -0.2)">
       <use xlink:href="#Helvetica-30"/>
       <use x="55.615234" xlink:href="#Helvetica-2e"/>
       <use x="83.398438" xlink:href="#Helvetica-35"/>
       <use x="139.013672" xlink:href="#Helvetica-30"/>
      </g>
     </g>
    </g>
    <g id="ytick_4">
     <g id="text_7">
      <!-- 0.75 -->
      <g style="fill:#262626;" transform="translate(49.018125 64.183437)scale(0.2 -0.2)">
       <defs>
        <path d="M 3347 4400 
L 3347 3909 
Q 3131 3700 2773 3181 
Q 2416 2663 2141 2063 
Q 1869 1478 1728 997 
Q 1638 688 1494 0 
L 872 0 
Q 1084 1281 1809 2550 
Q 2238 3294 2709 3834 
L 234 3834 
L 234 4400 
L 3347 4400 
z
" id="Helvetica-37" transform="scale(0.015625)"/>
       </defs>
       <use xlink:href="#Helvetica-30"/>
       <use x="55.615234" xlink:href="#Helvetica-2e"/>
       <use x="83.398438" xlink:href="#Helvetica-37"/>
       <use x="139.013672" xlink:href="#Helvetica-35"/>
      </g>
     </g>
    </g>
    <g id="ytick_5">
     <g id="text_8">
      <!-- 1.0 -->
      <g style="fill:#262626;" transform="translate(60.14 35.973437)scale(0.2 -0.2)">
       <use xlink:href="#Helvetica-31"/>
       <use x="55.615234" xlink:href="#Helvetica-2e"/>
       <use x="83.398438" xlink:href="#Helvetica-30"/>
      </g>
     </g>
    </g>
    <g id="text_9">
     <!-- Probability -->
     <g style="fill:#262626;" transform="translate(39.65875 143.579375)rotate(-90)scale(0.25 -0.25)">
      <defs>
       <path d="M 428 3347 
L 963 3347 
L 963 2769 
Q 1028 2938 1284 3180 
Q 1541 3422 1875 3422 
Q 1891 3422 1928 3419 
Q 1966 3416 2056 3406 
L 2056 2813 
Q 2006 2822 1964 2825 
Q 1922 2828 1872 2828 
Q 1447 2828 1219 2554 
Q 991 2281 991 1925 
L 991 0 
L 428 0 
L 428 3347 
z
" id="Helvetica-72" transform="scale(0.015625)"/>
       <path d="M 369 4606 
L 916 4606 
L 916 2941 
Q 1100 3181 1356 3307 
Q 1613 3434 1913 3434 
Q 2538 3434 2927 3004 
Q 3316 2575 3316 1738 
Q 3316 944 2931 419 
Q 2547 -106 1866 -106 
Q 1484 -106 1222 78 
Q 1066 188 888 428 
L 888 0 
L 369 0 
L 369 4606 
z
M 1831 391 
Q 2288 391 2514 753 
Q 2741 1116 2741 1709 
Q 2741 2238 2514 2584 
Q 2288 2931 1847 2931 
Q 1463 2931 1173 2647 
Q 884 2363 884 1709 
Q 884 1238 1003 944 
Q 1225 391 1831 391 
z
" id="Helvetica-62" transform="scale(0.015625)"/>
       <path d="M 844 891 
Q 844 647 1022 506 
Q 1200 366 1444 366 
Q 1741 366 2019 503 
Q 2488 731 2488 1250 
L 2488 1703 
Q 2384 1638 2221 1594 
Q 2059 1550 1903 1531 
L 1563 1488 
Q 1256 1447 1103 1359 
Q 844 1213 844 891 
z
M 2206 2028 
Q 2400 2053 2466 2191 
Q 2503 2266 2503 2406 
Q 2503 2694 2298 2823 
Q 2094 2953 1713 2953 
Q 1272 2953 1088 2716 
Q 984 2584 953 2325 
L 428 2325 
Q 444 2944 830 3186 
Q 1216 3428 1725 3428 
Q 2316 3428 2684 3203 
Q 3050 2978 3050 2503 
L 3050 575 
Q 3050 488 3086 434 
Q 3122 381 3238 381 
Q 3275 381 3322 386 
Q 3369 391 3422 400 
L 3422 -16 
Q 3291 -53 3222 -62 
Q 3153 -72 3034 -72 
Q 2744 -72 2613 134 
Q 2544 244 2516 444 
Q 2344 219 2022 53 
Q 1700 -113 1313 -113 
Q 847 -113 551 170 
Q 256 453 256 878 
Q 256 1344 547 1600 
Q 838 1856 1309 1916 
L 2206 2028 
z
M 1741 3428 
L 1741 3428 
z
" id="Helvetica-61" transform="scale(0.015625)"/>
       <path d="M 428 4591 
L 991 4591 
L 991 0 
L 428 0 
L 428 4591 
z
" id="Helvetica-6c" transform="scale(0.015625)"/>
       <path d="M 2503 3347 
L 3125 3347 
Q 3006 3025 2597 1878 
Q 2291 1016 2084 472 
Q 1597 -809 1397 -1090 
Q 1197 -1372 709 -1372 
Q 591 -1372 527 -1362 
Q 463 -1353 369 -1328 
L 369 -816 
Q 516 -856 581 -865 
Q 647 -875 697 -875 
Q 853 -875 926 -823 
Q 1000 -772 1050 -697 
Q 1066 -672 1162 -440 
Q 1259 -209 1303 -97 
L 66 3347 
L 703 3347 
L 1600 622 
L 2503 3347 
z
M 1597 3428 
L 1597 3428 
z
" id="Helvetica-79" transform="scale(0.015625)"/>
      </defs>
      <use xlink:href="#Helvetica-50"/>
      <use x="66.699219" xlink:href="#Helvetica-72"/>
      <use x="100" xlink:href="#Helvetica-6f"/>
      <use x="155.615234" xlink:href="#Helvetica-62"/>
      <use x="211.230469" xlink:href="#Helvetica-61"/>
      <use x="266.845703" xlink:href="#Helvetica-62"/>
      <use x="322.460938" xlink:href="#Helvetica-69"/>
      <use x="344.677734" xlink:href="#Helvetica-6c"/>
      <use x="366.894531" xlink:href="#Helvetica-69"/>
      <use x="389.111328" xlink:href="#Helvetica-74"/>
      <use x="416.894531" xlink:href="#Helvetica-79"/>
     </g>
    </g>
   </g>
   <g id="patch_83">
    <path d="M 94.94 141.64 
L 94.94 28.8 
" style="fill:none;stroke:#000000;stroke-linecap:square;stroke-linejoin:miter;"/>
   </g>
  </g>
 </g>
 <defs>
  <clipPath id="p1481a16592">
   <rect height="112.84" width="243.46" x="94.94" y="28.8"/>
  </clipPath>
 </defs>
</svg>
