<?xml version="1.0" encoding="utf-8" standalone="no"?>
<!DOCTYPE svg PUBLIC "-//W3C//DTD SVG 1.1//EN"
  "http://www.w3.org/Graphics/SVG/1.1/DTD/svg11.dtd">
<svg height="216pt" version="1.1" viewBox="0 0 360 216" width="360pt" xmlns="http://www.w3.org/2000/svg" xmlns:xlink="http://www.w3.org/1999/xlink">
 <metadata>
  <rdf:RDF xmlns:cc="http://creativecommons.org/ns#" xmlns:dc="http://purl.org/dc/elements/1.1/" xmlns:rdf="http://www.w3.org/1999/02/22-rdf-syntax-ns#">
   <cc:Work>
    <dc:type rdf:resource="http://purl.org/dc/dcmitype/StillImage"/>
    <dc:date>2022-12-20T01:56:47.070888</dc:date>
    <dc:format>image/svg+xml</dc:format>
    <dc:creator>
     <cc:Agent>
      <dc:title>Matplotlib v3.4.2, https://matplotlib.org/</dc:title>
     </cc:Agent>
    </dc:creator>
   </cc:Work>
  </rdf:RDF>
 </metadata>
 <defs>
  <style type="text/css">*{stroke-linecap:butt;stroke-linejoin:round;}</style>
 </defs>
 <g id="figure_1">
  <g id="patch_1">
   <path d="M 0 216 
L 360 216 
L 360 0 
L 0 0 
z
" style="fill:#ffffff;"/>
  </g>
  <g id="axes_1">
   <g id="patch_2">
    <path d="M 94.94 141.64 
L 338.4 141.64 
L 338.4 28.8 
L 94.94 28.8 
z
" style="fill:#ffffff;"/>
   </g>
   <g id="line2d_1">
    <path clip-path="url(#p7b57a159d4)" d="M 94.94 141.64 
L 338.4 141.64 
" style="fill:none;stroke:#000000;stroke-linecap:round;stroke-width:0.5;"/>
   </g>
   <g id="patch_3">
    <path clip-path="url(#p7b57a159d4)" d="M 102.72171 132.894193 
L 100.7494 123.464901 
L 98.652583 132.894193 
L 102.72171 132.894193 
z
M 99.829744 120.293907 
L 101.819032 120.293907 
L 106.533333 141.64 
L 104.603469 141.64 
L 103.287653 135.246866 
L 98.148894 135.246866 
L 96.742527 141.64 
L 94.94 141.64 
L 99.829744 120.293907 
z
M 100.740911 120.293907 
L 100.740911 120.293907 
z
" style="fill:#008000;"/>
   </g>
   <g id="patch_4">
    <path clip-path="url(#p7b57a159d4)" d="M 106.533333 93.064465 
L 106.533333 96.308748 
L 101.718599 96.308748 
L 101.718599 120.293907 
L 99.754735 120.293907 
L 99.754735 96.308748 
L 94.94 96.308748 
L 94.94 93.064465 
L 106.533333 93.064465 
z
" style="fill:#ff0000;"/>
   </g>
   <g id="patch_5">
    <path clip-path="url(#p7b57a159d4)" d="M 101.035611 62.893349 
Q 103.518269 62.893349 104.887718 65.763817 
Q 106.257166 68.628045 106.408062 72.272291 
L 104.682728 72.272291 
Q 104.389478 69.507906 103.512575 67.891707 
Q 102.635673 66.269269 101.052693 66.269269 
Q 99.122369 66.269269 97.935134 69.245819 
Q 96.747899 72.21613 96.747899 78.356436 
Q 96.747899 83.392235 97.818404 86.524789 
Q 98.891755 89.651104 101.018528 89.651104 
Q 102.974476 89.651104 103.999427 86.356305 
Q 104.540373 84.621544 104.807999 81.788517 
L 106.533333 81.788517 
Q 106.302719 86.312624 105.004448 89.376537 
Q 103.447092 93.064465 100.804997 93.064465 
Q 98.527328 93.064465 96.978513 90.037993 
Q 94.94 86.044298 94.94 77.69498 
Q 94.94 71.36123 96.471732 67.305133 
Q 98.125889 62.893349 101.035611 62.893349 
z
M 100.679725 62.893349 
L 100.679725 62.893349 
z
" style="fill:#0000ff;"/>
   </g>
   <g id="patch_6">
    <path clip-path="url(#p7b57a159d4)" d="M 100.919108 28.849329 
Q 102.707589 28.849329 104.012322 30.611077 
Q 105.903081 33.140947 106.326013 39.48324 
L 104.62599 39.48324 
Q 104.313627 35.938603 103.337841 34.317795 
Q 102.362055 32.696987 100.87488 32.696987 
Q 99.114042 32.696987 97.908822 36.072496 
Q 96.703602 39.440958 96.703602 46.11446 
Q 96.703602 51.8789 97.695974 55.501054 
Q 98.69111 59.123208 100.935694 59.123208 
Q 102.655068 59.123208 103.782888 56.58629 
Q 104.910709 54.042326 104.935587 48.355404 
L 100.963337 48.355404 
L 100.963337 44.726203 
L 106.533333 44.726203 
L 106.533333 62.033615 
L 105.427627 62.033615 
L 105.012987 57.868843 
Q 104.142243 60.314149 103.467762 61.265493 
Q 102.334413 62.893349 100.590161 62.893349 
Q 98.337283 62.893349 96.711895 59.172537 
Q 94.94 54.500381 94.94 46.354058 
Q 94.94 38.228876 96.667667 33.429874 
Q 98.309641 28.849329 100.919108 28.849329 
z
M 100.634389 28.8 
L 100.634389 28.8 
z
" style="fill:#ffa600;"/>
   </g>
   <g id="patch_7">
    <path clip-path="url(#p7b57a159d4)" d="M 114.925219 131.688946 
L 112.952909 120.960217 
L 110.856092 131.688946 
L 114.925219 131.688946 
z
M 112.033252 117.352232 
L 114.022541 117.352232 
L 118.736842 141.64 
L 116.806978 141.64 
L 115.491162 134.365837 
L 110.352403 134.365837 
L 108.946036 141.64 
L 107.143509 141.64 
L 112.033252 117.352232 
z
M 112.94442 117.352232 
L 112.94442 117.352232 
z
" style="fill:#008000;"/>
   </g>
   <g id="patch_8">
    <path clip-path="url(#p7b57a159d4)" d="M 118.736842 91.103349 
L 118.736842 94.230802 
L 113.922107 94.230802 
L 113.922107 117.352232 
L 111.958243 117.352232 
L 111.958243 94.230802 
L 107.143509 94.230802 
L 107.143509 91.103349 
L 118.736842 91.103349 
z
" style="fill:#ff0000;"/>
   </g>
   <g id="patch_9">
    <path clip-path="url(#p7b57a159d4)" d="M 113.239119 62.893349 
Q 115.721778 62.893349 117.091227 65.577237 
Q 118.460675 68.255291 118.61157 71.662662 
L 116.886236 71.662662 
Q 116.592987 69.077961 115.716084 67.566815 
Q 114.839182 66.049835 113.256202 66.049835 
Q 111.325878 66.049835 110.138643 68.83291 
Q 108.951408 71.610151 108.951408 77.351338 
Q 108.951408 82.059812 110.021913 84.988751 
Q 111.095264 87.911855 113.222037 87.911855 
Q 115.177985 87.911855 116.202936 84.831218 
Q 116.743882 83.209216 117.011508 80.560335 
L 118.736842 80.560335 
Q 118.506228 84.790376 117.207957 87.655136 
Q 115.650601 91.103349 113.008505 91.103349 
Q 110.730837 91.103349 109.182022 88.273597 
Q 107.143509 84.539491 107.143509 76.732877 
Q 107.143509 70.810819 108.675241 67.018368 
Q 110.329398 62.893349 113.239119 62.893349 
z
M 112.883234 62.893349 
L 112.883234 62.893349 
z
" style="fill:#0000ff;"/>
   </g>
   <g id="patch_10">
    <path clip-path="url(#p7b57a159d4)" d="M 113.122617 28.849329 
Q 114.911097 28.849329 116.215831 30.611077 
Q 118.106589 33.140947 118.529522 39.48324 
L 116.829498 39.48324 
Q 116.517136 35.938603 115.54135 34.317795 
Q 114.565564 32.696987 113.078389 32.696987 
Q 111.317551 32.696987 110.112331 36.072496 
Q 108.907111 39.440958 108.907111 46.11446 
Q 108.907111 51.8789 109.899482 55.501054 
Q 110.894618 59.123208 113.139203 59.123208 
Q 114.858576 59.123208 115.986397 56.58629 
Q 117.114218 54.042326 117.139096 48.355404 
L 113.166845 48.355404 
L 113.166845 44.726203 
L 118.736842 44.726203 
L 118.736842 62.033615 
L 117.631136 62.033615 
L 117.216496 57.868843 
Q 116.345752 60.314149 115.671271 61.265493 
Q 114.537921 62.893349 112.793669 62.893349 
Q 110.540792 62.893349 108.915404 59.172537 
Q 107.143509 54.500381 107.143509 46.354058 
Q 107.143509 38.228876 108.871175 33.429874 
Q 110.51315 28.849329 113.122617 28.849329 
z
M 112.837898 28.8 
L 112.837898 28.8 
z
" style="fill:#ffa600;"/>
   </g>
   <g id="patch_11">
    <path clip-path="url(#p7b57a159d4)" d="M 127.128728 132.492444 
L 125.156418 122.630006 
L 123.059601 132.492444 
L 127.128728 132.492444 
z
M 124.236761 119.313349 
L 126.226049 119.313349 
L 130.940351 141.64 
L 129.010487 141.64 
L 127.69467 134.95319 
L 122.555912 134.95319 
L 121.149545 141.64 
L 119.347018 141.64 
L 124.236761 119.313349 
z
M 125.147929 119.313349 
L 125.147929 119.313349 
z
" style="fill:#008000;"/>
   </g>
   <g id="patch_12">
    <path clip-path="url(#p7b57a159d4)" d="M 125.326126 94.081583 
Q 127.114606 94.081583 128.41934 95.387305 
Q 130.310098 97.262321 130.733031 101.962919 
L 129.033007 101.962919 
Q 128.720645 99.335807 127.744859 98.134543 
Q 126.769073 96.933279 125.281898 96.933279 
Q 123.52106 96.933279 122.31584 99.435042 
Q 121.11062 101.931582 121.11062 106.877655 
Q 121.11062 111.149977 122.102991 113.83454 
Q 123.098127 116.519104 125.342711 116.519104 
Q 127.062085 116.519104 128.189906 114.638865 
Q 129.317726 112.753403 129.342605 108.538533 
L 125.370354 108.538533 
L 125.370354 105.848747 
L 130.940351 105.848747 
L 130.940351 118.676156 
L 129.834644 118.676156 
L 129.420004 115.58943 
Q 128.54926 117.401772 127.874779 118.106862 
Q 126.74143 119.313349 124.997178 119.313349 
Q 122.744301 119.313349 121.118912 116.555664 
Q 119.347018 113.092891 119.347018 107.055234 
Q 119.347018 101.033245 121.074684 97.476459 
Q 122.716658 94.081583 125.326126 94.081583 
z
M 125.041406 94.045023 
L 125.041406 94.045023 
z
" style="fill:#ffa600;"/>
   </g>
   <g id="patch_13">
    <path clip-path="url(#p7b57a159d4)" d="M 125.442628 65.835023 
Q 127.925287 65.835023 129.294735 68.518911 
Q 130.664184 71.196965 130.815079 74.604336 
L 129.089745 74.604336 
Q 128.796495 72.019635 127.919593 70.508489 
Q 127.04269 68.991509 125.459711 68.991509 
Q 123.529387 68.991509 122.342152 71.774584 
Q 121.154917 74.551825 121.154917 80.293012 
Q 121.154917 85.001486 122.225421 87.930425 
Q 123.298773 90.85353 125.425546 90.85353 
Q 127.381494 90.85353 128.406445 87.772893 
Q 128.947391 86.15089 129.215017 83.502009 
L 130.940351 83.502009 
Q 130.709737 87.732051 129.411466 90.59681 
Q 127.85411 94.045023 125.212014 94.045023 
Q 122.934346 94.045023 121.385531 91.215271 
Q 119.347018 87.481166 119.347018 79.674551 
Q 119.347018 73.752493 120.87875 69.960042 
Q 122.532907 65.835023 125.442628 65.835023 
z
M 125.086742 65.835023 
L 125.086742 65.835023 
z
" style="fill:#0000ff;"/>
   </g>
   <g id="patch_14">
    <path clip-path="url(#p7b57a159d4)" d="M 130.940351 28.8 
L 130.940351 33.212581 
L 126.125616 33.212581 
L 126.125616 65.835023 
L 124.161752 65.835023 
L 124.161752 33.212581 
L 119.347018 33.212581 
L 119.347018 28.8 
L 130.940351 28.8 
z
" style="fill:#ff0000;"/>
   </g>
   <g id="patch_15">
    <path clip-path="url(#p7b57a159d4)" d="M 139.332237 134.501189 
L 137.359927 126.80448 
L 135.26311 134.501189 
L 139.332237 134.501189 
z
M 136.44027 124.216139 
L 138.429558 124.216139 
L 143.14386 141.64 
L 141.213996 141.64 
L 139.898179 136.421571 
L 134.759421 136.421571 
L 133.353053 141.64 
L 131.550526 141.64 
L 136.44027 124.216139 
z
M 137.351438 124.216139 
L 137.351438 124.216139 
z
" style="fill:#008000;"/>
   </g>
   <g id="patch_16">
    <path clip-path="url(#p7b57a159d4)" d="M 137.646137 95.025581 
Q 140.128796 95.025581 141.498244 97.802759 
Q 142.867692 100.5739 143.018588 104.099709 
L 141.293254 104.099709 
Q 141.000004 101.425166 140.123102 99.861493 
Q 139.246199 98.291784 137.66322 98.291784 
Q 135.732895 98.291784 134.545661 101.171597 
Q 133.358426 104.045373 133.358426 109.986119 
Q 133.358426 114.858256 134.42893 117.889003 
Q 135.502281 120.913712 137.629054 120.913712 
Q 139.585002 120.913712 140.609953 117.725994 
Q 141.1509 116.047613 141.418526 113.306658 
L 143.14386 113.306658 
Q 142.913246 117.683733 141.614975 120.648069 
Q 140.057619 124.216139 137.415523 124.216139 
Q 135.137854 124.216139 133.58904 121.288027 
Q 131.550526 117.424127 131.550526 109.346161 
Q 131.550526 103.218257 133.082258 99.293983 
Q 134.736415 95.025581 137.646137 95.025581 
z
M 137.290251 95.025581 
L 137.290251 95.025581 
z
" style="fill:#0000ff;"/>
   </g>
   <g id="patch_17">
    <path clip-path="url(#p7b57a159d4)" d="M 143.14386 65.835023 
L 143.14386 69.312966 
L 138.329125 69.312966 
L 138.329125 95.025581 
L 136.365261 95.025581 
L 136.365261 69.312966 
L 131.550526 69.312966 
L 131.550526 65.835023 
L 143.14386 65.835023 
z
" style="fill:#ff0000;"/>
   </g>
   <g id="patch_18">
    <path clip-path="url(#p7b57a159d4)" d="M 137.529635 28.853585 
Q 139.318115 28.853585 140.622849 30.767342 
Q 142.513607 33.515497 142.93654 40.405022 
L 141.236516 40.405022 
Q 140.924154 36.554543 139.948368 34.793886 
Q 138.972582 33.03323 137.485406 33.03323 
Q 135.724569 33.03323 134.519348 36.699988 
Q 133.314128 40.359091 133.314128 47.608402 
Q 133.314128 53.870215 134.3065 57.804899 
Q 135.301636 61.739583 137.54622 61.739583 
Q 139.265594 61.739583 140.393415 58.983773 
Q 141.521235 56.220308 141.546114 50.042701 
L 137.573863 50.042701 
L 137.573863 46.100362 
L 143.14386 46.100362 
L 143.14386 64.901109 
L 142.038153 64.901109 
L 141.623513 60.376988 
Q 140.752769 63.033283 140.078288 64.066711 
Q 138.944939 65.835023 137.200687 65.835023 
Q 134.94781 65.835023 133.322421 61.793168 
Q 131.550526 56.717885 131.550526 47.868673 
Q 131.550526 39.042427 133.278193 33.829353 
Q 134.920167 28.853585 137.529635 28.853585 
z
M 137.244915 28.8 
L 137.244915 28.8 
z
" style="fill:#ffa600;"/>
   </g>
   <g id="patch_19">
    <path clip-path="url(#p7b57a159d4)" d="M 149.733143 117.387374 
Q 151.521624 117.387374 152.826357 118.642426 
Q 154.717116 120.444681 155.140048 124.962868 
L 153.440025 124.962868 
Q 153.127662 122.437703 152.151876 121.283055 
Q 151.17609 120.128408 149.688915 120.128408 
Q 147.928077 120.128408 146.722857 122.533087 
Q 145.517637 124.932747 145.517637 129.686884 
Q 145.517637 133.793414 146.510009 136.373802 
Q 147.505145 138.954189 149.749729 138.954189 
Q 151.469103 138.954189 152.596923 137.146914 
Q 153.724744 135.334618 153.749622 131.28331 
L 149.777372 131.28331 
L 149.777372 128.697903 
L 155.347368 128.697903 
L 155.347368 141.027535 
L 154.241662 141.027535 
L 153.827022 138.060591 
Q 152.956278 139.802604 152.281797 140.480332 
Q 151.148448 141.64 149.404196 141.64 
Q 147.151319 141.64 145.52593 138.98933 
Q 143.754035 135.660932 143.754035 129.857571 
Q 143.754035 124.069271 145.481702 120.650509 
Q 147.123676 117.387374 149.733143 117.387374 
z
M 149.448424 117.352232 
L 149.448424 117.352232 
z
" style="fill:#ffa600;"/>
   </g>
   <g id="patch_20">
    <path clip-path="url(#p7b57a159d4)" d="M 149.849646 92.083907 
Q 152.332305 92.083907 153.701753 94.487925 
Q 155.071201 96.886718 155.222097 99.938776 
L 153.496763 99.938776 
Q 153.203513 97.623602 152.32661 96.270035 
Q 151.449708 94.911242 149.866728 94.911242 
Q 147.936404 94.911242 146.749169 97.404104 
Q 145.561935 99.891741 145.561935 105.03425 
Q 145.561935 109.251735 146.632439 111.875251 
Q 147.70579 114.493541 149.832563 114.493541 
Q 151.788511 114.493541 152.813462 111.734145 
Q 153.354408 110.281282 153.622034 107.90862 
L 155.347368 107.90862 
Q 155.116754 111.697563 153.818483 114.263591 
Q 152.261127 117.352232 149.619032 117.352232 
Q 147.341363 117.352232 145.792549 114.817561 
Q 143.754035 111.472839 143.754035 104.480281 
Q 143.754035 99.175761 145.285767 95.778779 
Q 146.939924 92.083907 149.849646 92.083907 
z
M 149.49376 92.083907 
L 149.49376 92.083907 
z
" style="fill:#0000ff;"/>
   </g>
   <g id="patch_21">
    <path clip-path="url(#p7b57a159d4)" d="M 151.535745 80.124107 
L 149.563435 67.22965 
L 147.466618 80.124107 
L 151.535745 80.124107 
z
M 148.643779 62.893349 
L 150.633067 62.893349 
L 155.347368 92.083907 
L 153.417504 92.083907 
L 152.101688 83.341363 
L 146.962929 83.341363 
L 145.556562 92.083907 
L 143.754035 92.083907 
L 148.643779 62.893349 
z
M 149.554946 62.893349 
L 149.554946 62.893349 
z
" style="fill:#008000;"/>
   </g>
   <g id="patch_22">
    <path clip-path="url(#p7b57a159d4)" d="M 155.347368 28.8 
L 155.347368 32.862091 
L 150.532634 32.862091 
L 150.532634 62.893349 
L 148.56877 62.893349 
L 148.56877 32.862091 
L 143.754035 32.862091 
L 143.754035 28.8 
L 155.347368 28.8 
z
" style="fill:#ff0000;"/>
   </g>
   <g id="patch_23">
    <path clip-path="url(#p7b57a159d4)" d="M 161.936652 119.345653 
Q 163.725132 119.345653 165.029866 120.499365 
Q 166.920624 122.156097 167.343557 126.309463 
L 165.643533 126.309463 
Q 165.331171 123.988193 164.355385 122.926777 
Q 163.379599 121.865361 161.892424 121.865361 
Q 160.131586 121.865361 158.926366 124.075875 
Q 157.721146 126.281774 157.721146 130.652039 
Q 157.721146 134.426987 158.713517 136.799021 
Q 159.708653 139.171054 161.953238 139.171054 
Q 163.672611 139.171054 164.800432 137.509708 
Q 165.928253 135.843747 165.953131 132.119561 
L 161.98088 132.119561 
L 161.98088 129.742913 
L 167.550877 129.742913 
L 167.550877 141.076988 
L 166.445171 141.076988 
L 166.030531 138.349611 
Q 165.159787 139.950964 164.485306 140.573969 
Q 163.351957 141.64 161.607704 141.64 
Q 159.354827 141.64 157.729439 139.203358 
Q 155.957544 136.143712 155.957544 130.808944 
Q 155.957544 125.48802 157.68521 122.345306 
Q 159.327185 119.345653 161.936652 119.345653 
z
M 161.651933 119.313349 
L 161.651933 119.313349 
z
" style="fill:#ffa600;"/>
   </g>
   <g id="patch_24">
    <path clip-path="url(#p7b57a159d4)" d="M 163.739254 109.764043 
L 161.766944 99.46846 
L 159.670127 109.764043 
L 163.739254 109.764043 
z
M 160.847288 96.006139 
L 162.836576 96.006139 
L 167.550877 119.313349 
L 165.621013 119.313349 
L 164.305197 112.332862 
L 159.166438 112.332862 
L 157.760071 119.313349 
L 155.957544 119.313349 
L 160.847288 96.006139 
z
M 161.758455 96.006139 
L 161.758455 96.006139 
z
" style="fill:#008000;"/>
   </g>
   <g id="patch_25">
    <path clip-path="url(#p7b57a159d4)" d="M 162.053155 66.815581 
Q 164.535813 66.815581 165.905262 69.592759 
Q 167.27471 72.3639 167.425605 75.889709 
L 165.700271 75.889709 
Q 165.407022 73.215166 164.530119 71.651493 
Q 163.653217 70.081784 162.070237 70.081784 
Q 160.139913 70.081784 158.952678 72.961597 
Q 157.765443 75.835373 157.765443 81.776119 
Q 157.765443 86.648256 158.835948 89.679003 
Q 159.909299 92.703712 162.036072 92.703712 
Q 163.99202 92.703712 165.016971 89.515994 
Q 165.557917 87.837613 165.825543 85.096658 
L 167.550877 85.096658 
Q 167.320263 89.473733 166.021992 92.438069 
Q 164.464636 96.006139 161.822541 96.006139 
Q 159.544872 96.006139 157.996057 93.078027 
Q 155.957544 89.214127 155.957544 81.136161 
Q 155.957544 75.008257 157.489276 71.083983 
Q 159.143433 66.815581 162.053155 66.815581 
z
M 161.697269 66.815581 
L 161.697269 66.815581 
z
" style="fill:#0000ff;"/>
   </g>
   <g id="patch_26">
    <path clip-path="url(#p7b57a159d4)" d="M 167.550877 28.8 
L 167.550877 33.32941 
L 162.736143 33.32941 
L 162.736143 66.815581 
L 160.772279 66.815581 
L 160.772279 33.32941 
L 155.957544 33.32941 
L 155.957544 28.8 
L 167.550877 28.8 
z
" style="fill:#ff0000;"/>
   </g>
   <g id="patch_27">
    <path clip-path="url(#p7b57a159d4)" d="M 174.256663 119.313349 
Q 176.739322 119.313349 178.10877 121.437497 
Q 179.478219 123.557029 179.629114 126.253774 
L 177.90378 126.253774 
Q 177.61053 124.208126 176.733628 123.012138 
Q 175.856726 121.811532 174.273746 121.811532 
Q 172.343422 121.811532 171.156187 124.014182 
Q 169.968952 126.212215 169.968952 130.756046 
Q 169.968952 134.482542 171.039456 136.800635 
Q 172.112808 139.11411 174.239581 139.11411 
Q 176.195529 139.11411 177.22048 136.675957 
Q 177.761426 135.392232 178.029052 133.295789 
L 179.754386 133.295789 
Q 179.523772 136.643632 178.225501 138.910931 
Q 176.668145 141.64 174.026049 141.64 
Q 171.748381 141.64 170.199566 139.400408 
Q 168.161053 136.445071 168.161053 130.266568 
Q 168.161053 125.579588 169.692785 122.578073 
Q 171.346942 119.313349 174.256663 119.313349 
z
M 173.900778 119.313349 
L 173.900778 119.313349 
z
" style="fill:#0000ff;"/>
   </g>
   <g id="patch_28">
    <path clip-path="url(#p7b57a159d4)" d="M 179.754386 92.083907 
L 179.754386 95.32819 
L 174.939651 95.32819 
L 174.939651 119.313349 
L 172.975787 119.313349 
L 172.975787 95.32819 
L 168.161053 95.32819 
L 168.161053 92.083907 
L 179.754386 92.083907 
z
" style="fill:#ff0000;"/>
   </g>
   <g id="patch_29">
    <path clip-path="url(#p7b57a159d4)" d="M 175.942763 79.320609 
L 173.970453 65.559861 
L 171.873636 79.320609 
L 175.942763 79.320609 
z
M 173.050796 60.932232 
L 175.040084 60.932232 
L 179.754386 92.083907 
L 177.824522 92.083907 
L 176.508705 82.754011 
L 171.369947 82.754011 
L 169.96358 92.083907 
L 168.161053 92.083907 
L 173.050796 60.932232 
z
M 173.961964 60.932232 
L 173.961964 60.932232 
z
" style="fill:#008000;"/>
   </g>
   <g id="patch_30">
    <path clip-path="url(#p7b57a159d4)" d="M 174.140161 28.846491 
Q 175.928641 28.846491 177.233375 30.5069 
Q 179.124133 32.891247 179.547066 38.868719 
L 177.847042 38.868719 
Q 177.53468 35.527977 176.558894 34.000401 
Q 175.583108 32.472824 174.095933 32.472824 
Q 172.335095 32.472824 171.129875 35.654168 
Q 169.924655 38.82887 169.924655 45.118498 
Q 169.924655 50.551356 170.917026 53.965157 
Q 171.912162 57.378957 174.156746 57.378957 
Q 175.87612 57.378957 177.003941 54.987969 
Q 178.131762 52.590338 178.15664 47.230538 
L 174.184389 47.230538 
L 174.184389 43.810096 
L 179.754386 43.810096 
L 179.754386 60.121953 
L 178.648679 60.121953 
L 178.234039 56.196746 
Q 177.363296 58.501394 176.688815 59.398015 
Q 175.555465 60.932232 173.811213 60.932232 
Q 171.558336 60.932232 169.932947 57.425449 
Q 168.161053 53.022045 168.161053 45.344314 
Q 168.161053 37.686508 169.888719 33.163554 
Q 171.530693 28.846491 174.140161 28.846491 
z
M 173.855441 28.8 
L 173.855441 28.8 
z
" style="fill:#ffa600;"/>
   </g>
   <g id="patch_31">
    <path clip-path="url(#p7b57a159d4)" d="M 186.460172 118.33279 
Q 188.942831 118.33279 190.312279 120.550229 
Q 191.681727 122.762847 191.832623 125.578031 
L 190.107289 125.578031 
Q 189.814039 123.442541 188.937137 122.194026 
Q 188.060234 120.940691 186.477255 120.940691 
Q 184.54693 120.940691 183.359696 123.240079 
Q 182.172461 125.534646 182.172461 130.278037 
Q 182.172461 134.168195 183.242965 136.588096 
Q 184.316316 139.003176 186.44309 139.003176 
Q 188.399038 139.003176 189.423988 136.457942 
Q 189.964935 135.117838 190.232561 132.929322 
L 191.957895 132.929322 
Q 191.727281 136.424198 190.42901 138.791073 
Q 188.871654 141.64 186.229558 141.64 
Q 183.951889 141.64 182.403075 139.302048 
Q 180.364561 136.216916 180.364561 129.767062 
Q 180.364561 124.874235 181.896294 121.740897 
Q 183.55045 118.33279 186.460172 118.33279 
z
M 186.104286 118.33279 
L 186.104286 118.33279 
z
" style="fill:#0000ff;"/>
   </g>
   <g id="patch_32">
    <path clip-path="url(#p7b57a159d4)" d="M 188.146272 108.381736 
L 186.173962 97.653007 
L 184.077145 108.381736 
L 188.146272 108.381736 
z
M 185.254305 94.045023 
L 187.243593 94.045023 
L 191.957895 118.33279 
L 190.028031 118.33279 
L 188.712214 111.058628 
L 183.573456 111.058628 
L 182.167088 118.33279 
L 180.364561 118.33279 
L 185.254305 94.045023 
z
M 186.165473 94.045023 
L 186.165473 94.045023 
z
" style="fill:#008000;"/>
   </g>
   <g id="patch_33">
    <path clip-path="url(#p7b57a159d4)" d="M 191.957895 67.796139 
L 191.957895 70.923593 
L 187.14316 70.923593 
L 187.14316 94.045023 
L 185.179296 94.045023 
L 185.179296 70.923593 
L 180.364561 70.923593 
L 180.364561 67.796139 
L 191.957895 67.796139 
z
" style="fill:#ff0000;"/>
   </g>
   <g id="patch_34">
    <path clip-path="url(#p7b57a159d4)" d="M 186.34367 28.856423 
Q 188.13215 28.856423 189.436884 30.871519 
Q 191.327642 33.765197 191.750575 41.019543 
L 190.050551 41.019543 
Q 189.738189 36.965169 188.762403 35.111281 
Q 187.786617 33.257392 186.299441 33.257392 
Q 184.538604 33.257392 183.333384 37.118317 
Q 182.128163 40.97118 182.128163 48.604364 
Q 182.128163 55.197758 183.120535 59.340796 
Q 184.115671 63.483833 186.360255 63.483833 
Q 188.079629 63.483833 189.20745 60.582095 
Q 190.33527 57.672296 190.360149 51.167566 
L 186.387898 51.167566 
L 186.387898 47.016468 
L 191.957895 47.016468 
L 191.957895 66.812772 
L 190.852188 66.812772 
L 190.437548 62.049085 
Q 189.566804 64.846038 188.892323 65.93419 
Q 187.758974 67.796139 186.014722 67.796139 
Q 183.761845 67.796139 182.136456 63.540256 
Q 180.364561 58.196221 180.364561 48.878417 
Q 180.364561 39.584794 182.092228 34.095672 
Q 183.734202 28.856423 186.34367 28.856423 
z
M 186.05895 28.8 
L 186.05895 28.8 
z
" style="fill:#ffa600;"/>
   </g>
   <g id="patch_35">
    <path clip-path="url(#p7b57a159d4)" d="M 204.161404 119.313349 
L 204.161404 121.973483 
L 199.346669 121.973483 
L 199.346669 141.64 
L 197.382805 141.64 
L 197.382805 121.973483 
L 192.56807 121.973483 
L 192.56807 119.313349 
L 204.161404 119.313349 
z
" style="fill:#ff0000;"/>
   </g>
   <g id="patch_36">
    <path clip-path="url(#p7b57a159d4)" d="M 200.34978 109.764043 
L 198.377471 99.46846 
L 196.280653 109.764043 
L 200.34978 109.764043 
z
M 197.457814 96.006139 
L 199.447102 96.006139 
L 204.161404 119.313349 
L 202.231539 119.313349 
L 200.915723 112.332862 
L 195.776964 112.332862 
L 194.370597 119.313349 
L 192.56807 119.313349 
L 197.457814 96.006139 
z
M 198.368981 96.006139 
L 198.368981 96.006139 
z
" style="fill:#008000;"/>
   </g>
   <g id="patch_37">
    <path clip-path="url(#p7b57a159d4)" d="M 198.663681 65.835023 
Q 201.14634 65.835023 202.515788 68.705491 
Q 203.885236 71.569719 204.036132 75.213965 
L 202.310798 75.213965 
Q 202.017548 72.44958 201.140645 70.833381 
Q 200.263743 69.210943 198.680763 69.210943 
Q 196.750439 69.210943 195.563204 72.187494 
Q 194.37597 75.157804 194.37597 81.29811 
Q 194.37597 86.333909 195.446474 89.466464 
Q 196.519825 92.592778 198.646598 92.592778 
Q 200.602546 92.592778 201.627497 89.29798 
Q 202.168443 87.563219 202.43607 84.730191 
L 204.161404 84.730191 
Q 203.93079 89.254299 202.632518 92.318211 
Q 201.075163 96.006139 198.433067 96.006139 
Q 196.155398 96.006139 194.606584 92.979667 
Q 192.56807 88.985972 192.56807 80.636654 
Q 192.56807 74.302904 194.099802 70.246808 
Q 195.753959 65.835023 198.663681 65.835023 
z
M 198.307795 65.835023 
L 198.307795 65.835023 
z
" style="fill:#0000ff;"/>
   </g>
   <g id="patch_38">
    <path clip-path="url(#p7b57a159d4)" d="M 198.547178 28.853585 
Q 200.335659 28.853585 201.640393 30.767342 
Q 203.531151 33.515497 203.954084 40.405022 
L 202.25406 40.405022 
Q 201.941698 36.554543 200.965912 34.793886 
Q 199.990125 33.03323 198.50295 33.03323 
Q 196.742112 33.03323 195.536892 36.699988 
Q 194.331672 40.359091 194.331672 47.608402 
Q 194.331672 53.870215 195.324044 57.804899 
Q 196.31918 61.739583 198.563764 61.739583 
Q 200.283138 61.739583 201.410958 58.983773 
Q 202.538779 56.220308 202.563658 50.042701 
L 198.591407 50.042701 
L 198.591407 46.100362 
L 204.161404 46.100362 
L 204.161404 64.901109 
L 203.055697 64.901109 
L 202.641057 60.376988 
Q 201.770313 63.033283 201.095832 64.066711 
Q 199.962483 65.835023 198.218231 65.835023 
Q 195.965354 65.835023 194.339965 61.793168 
Q 192.56807 56.717885 192.56807 47.868673 
Q 192.56807 39.042427 194.295737 33.829353 
Q 195.937711 28.853585 198.547178 28.853585 
z
M 198.262459 28.8 
L 198.262459 28.8 
z
" style="fill:#ffa600;"/>
   </g>
   <g id="patch_39">
    <path clip-path="url(#p7b57a159d4)" d="M 212.553289 132.090695 
L 210.580979 121.795112 
L 208.484162 132.090695 
L 212.553289 132.090695 
z
M 209.661323 118.33279 
L 211.650611 118.33279 
L 216.364912 141.64 
L 214.435048 141.64 
L 213.119232 134.659514 
L 207.980473 134.659514 
L 206.574106 141.64 
L 204.771579 141.64 
L 209.661323 118.33279 
z
M 210.57249 118.33279 
L 210.57249 118.33279 
z
" style="fill:#008000;"/>
   </g>
   <g id="patch_40">
    <path clip-path="url(#p7b57a159d4)" d="M 210.86719 90.12279 
Q 213.349848 90.12279 214.719297 92.806679 
Q 216.088745 95.484733 216.239641 98.892104 
L 214.514307 98.892104 
Q 214.221057 96.307403 213.344154 94.796257 
Q 212.467252 93.279276 210.884272 93.279276 
Q 208.953948 93.279276 207.766713 96.062352 
Q 206.579478 98.839593 206.579478 104.58078 
Q 206.579478 109.289254 207.649983 112.218193 
Q 208.723334 115.141297 210.850107 115.141297 
Q 212.806055 115.141297 213.831006 112.06066 
Q 214.371952 110.438658 214.639578 107.789777 
L 216.364912 107.789777 
Q 216.134298 112.019818 214.836027 114.884577 
Q 213.278671 118.33279 210.636576 118.33279 
Q 208.358907 118.33279 206.810092 115.503039 
Q 204.771579 111.768933 204.771579 103.962319 
Q 204.771579 98.040261 206.303311 94.24781 
Q 207.957468 90.12279 210.86719 90.12279 
z
M 210.511304 90.12279 
L 210.511304 90.12279 
z
" style="fill:#0000ff;"/>
   </g>
   <g id="patch_41">
    <path clip-path="url(#p7b57a159d4)" d="M 216.364912 61.91279 
L 216.364912 65.273903 
L 211.550178 65.273903 
L 211.550178 90.12279 
L 209.586314 90.12279 
L 209.586314 65.273903 
L 204.771579 65.273903 
L 204.771579 61.91279 
L 216.364912 61.91279 
z
" style="fill:#ff0000;"/>
   </g>
   <g id="patch_42">
    <path clip-path="url(#p7b57a159d4)" d="M 210.750687 28.84791 
Q 212.539168 28.84791 213.843901 30.558989 
Q 215.73466 33.016097 216.157592 39.17598 
L 214.457568 39.17598 
Q 214.145206 35.73329 213.16942 34.159098 
Q 212.193634 32.584906 210.706459 32.584906 
Q 208.945621 32.584906 207.740401 35.863332 
Q 206.535181 39.134914 206.535181 45.616479 
Q 206.535181 51.215128 207.527553 54.733105 
Q 208.522688 58.251083 210.767273 58.251083 
Q 212.486647 58.251083 213.614467 55.78713 
Q 214.742288 53.316332 214.767166 47.792971 
L 210.794915 47.792971 
L 210.794915 44.268149 
L 216.364912 44.268149 
L 216.364912 61.077784 
L 215.259206 61.077784 
L 214.844566 57.032795 
Q 213.973822 59.407772 213.299341 60.331754 
Q 212.165992 61.91279 210.421739 61.91279 
Q 208.168862 61.91279 206.543474 58.298993 
Q 204.771579 53.761213 204.771579 45.849186 
Q 204.771579 37.957692 206.499245 33.296714 
Q 208.14122 28.84791 210.750687 28.84791 
z
M 210.465968 28.8 
L 210.465968 28.8 
z
" style="fill:#ffa600;"/>
   </g>
   <g id="patch_43">
    <path clip-path="url(#p7b57a159d4)" d="M 228.568421 121.274465 
L 228.568421 123.70094 
L 223.753686 123.70094 
L 223.753686 141.64 
L 221.789822 141.64 
L 221.789822 123.70094 
L 216.975088 123.70094 
L 216.975088 121.274465 
L 228.568421 121.274465 
z
" style="fill:#ff0000;"/>
   </g>
   <g id="patch_44">
    <path clip-path="url(#p7b57a159d4)" d="M 222.954196 93.105281 
Q 224.742676 93.105281 226.04741 94.563012 
Q 227.938168 96.656313 228.361101 101.904142 
L 226.661077 101.904142 
Q 226.348715 98.971189 225.372929 97.630077 
Q 224.397143 96.288965 222.909968 96.288965 
Q 221.14913 96.288965 219.94391 99.081976 
Q 218.73869 101.869157 218.73869 107.39104 
Q 218.73869 112.160734 219.731061 115.157828 
Q 220.726197 118.154922 222.970782 118.154922 
Q 224.690155 118.154922 225.817976 116.05579 
Q 226.945797 113.950827 226.970675 109.245273 
L 222.998424 109.245273 
L 222.998424 106.242348 
L 228.568421 106.242348 
L 228.568421 120.563092 
L 227.462714 120.563092 
L 227.048075 117.117017 
Q 226.177331 119.140347 225.50285 119.927522 
Q 224.3695 121.274465 222.625248 121.274465 
Q 220.372371 121.274465 218.746982 118.195738 
Q 216.975088 114.329837 216.975088 107.589291 
Q 216.975088 100.866238 218.702754 96.89538 
Q 220.344728 93.105281 222.954196 93.105281 
z
M 222.669477 93.064465 
L 222.669477 93.064465 
z
" style="fill:#ffa600;"/>
   </g>
   <g id="patch_45">
    <path clip-path="url(#p7b57a159d4)" d="M 224.756798 80.301167 
L 222.784488 66.540419 
L 220.687671 80.301167 
L 224.756798 80.301167 
z
M 221.864831 61.91279 
L 223.85412 61.91279 
L 228.568421 93.064465 
L 226.638557 93.064465 
L 225.32274 83.734569 
L 220.183982 83.734569 
L 218.777615 93.064465 
L 216.975088 93.064465 
L 221.864831 61.91279 
z
M 222.775999 61.91279 
L 222.775999 61.91279 
z
" style="fill:#008000;"/>
   </g>
   <g id="patch_46">
    <path clip-path="url(#p7b57a159d4)" d="M 223.070698 28.8 
Q 225.553357 28.8 226.922805 31.950338 
Q 228.292254 35.093827 228.443149 39.093387 
L 226.717815 39.093387 
Q 226.424565 36.059474 225.547663 34.285697 
Q 224.670761 32.505071 223.087781 32.505071 
Q 221.157457 32.505071 219.970222 35.771835 
Q 218.782987 39.03175 218.782987 45.770733 
Q 218.782987 51.297522 219.853491 54.735499 
Q 220.926843 58.166628 223.053616 58.166628 
Q 225.009564 58.166628 226.034515 54.550588 
Q 226.575461 52.646688 226.843087 49.537441 
L 228.568421 49.537441 
Q 228.337807 54.502648 227.039536 57.865291 
Q 225.48218 61.91279 222.840084 61.91279 
Q 220.562416 61.91279 219.013601 58.591239 
Q 216.975088 54.20816 216.975088 45.044786 
Q 216.975088 38.093497 218.50682 33.641932 
Q 220.160977 28.8 223.070698 28.8 
z
M 222.714813 28.8 
L 222.714813 28.8 
z
" style="fill:#0000ff;"/>
   </g>
   <g id="patch_47">
    <path clip-path="url(#p7b57a159d4)" d="M 236.960307 132.492444 
L 234.987997 122.630006 
L 232.89118 132.492444 
L 236.960307 132.492444 
z
M 234.06834 119.313349 
L 236.057628 119.313349 
L 240.77193 141.64 
L 238.842066 141.64 
L 237.526249 134.95319 
L 232.387491 134.95319 
L 230.981124 141.64 
L 229.178596 141.64 
L 234.06834 119.313349 
z
M 234.979508 119.313349 
L 234.979508 119.313349 
z
" style="fill:#008000;"/>
   </g>
   <g id="patch_48">
    <path clip-path="url(#p7b57a159d4)" d="M 235.274207 95.025581 
Q 237.756866 95.025581 239.126314 97.33631 
Q 240.495763 99.642015 240.646658 102.575636 
L 238.921324 102.575636 
Q 238.628074 100.350303 237.751172 99.049263 
Q 236.874269 97.743199 235.29129 97.743199 
Q 233.360966 97.743199 232.173731 100.139324 
Q 230.986496 102.530426 230.986496 107.473376 
Q 230.986496 111.527198 232.057 114.048906 
Q 233.130352 116.565591 235.257125 116.565591 
Q 237.213073 116.565591 238.238023 113.913276 
Q 238.77897 112.516792 239.046596 110.236204 
L 240.77193 110.236204 
Q 240.541316 113.878113 239.243045 116.344565 
Q 237.685689 119.313349 235.043593 119.313349 
Q 232.765925 119.313349 231.21711 116.877037 
Q 229.178596 113.66211 229.178596 106.940904 
Q 229.178596 101.84223 230.710329 98.57707 
Q 232.364485 95.025581 235.274207 95.025581 
z
M 234.918321 95.025581 
L 234.918321 95.025581 
z
" style="fill:#0000ff;"/>
   </g>
   <g id="patch_49">
    <path clip-path="url(#p7b57a159d4)" d="M 240.77193 69.757255 
L 240.77193 72.767879 
L 235.957195 72.767879 
L 235.957195 95.025581 
L 233.993331 95.025581 
L 233.993331 72.767879 
L 229.178596 72.767879 
L 229.178596 69.757255 
L 240.77193 69.757255 
z
" style="fill:#ff0000;"/>
   </g>
   <g id="patch_50">
    <path clip-path="url(#p7b57a159d4)" d="M 235.157705 28.85926 
Q 236.946185 28.85926 238.250919 30.975695 
Q 240.141677 34.014896 240.56461 41.634063 
L 238.864586 41.634063 
Q 238.552224 37.375796 237.576438 35.428675 
Q 236.600652 33.481555 235.113476 33.481555 
Q 233.352639 33.481555 232.147419 37.536645 
Q 230.942198 41.583269 230.942198 49.600326 
Q 230.942198 56.525302 231.93457 60.876693 
Q 232.929706 65.228084 235.17429 65.228084 
Q 236.893664 65.228084 238.021485 62.180417 
Q 239.149305 59.124284 239.174184 52.292431 
L 235.201933 52.292431 
L 235.201933 47.932575 
L 240.77193 47.932575 
L 240.77193 68.724435 
L 239.666223 68.724435 
L 239.251583 63.721182 
Q 238.380839 66.658794 237.706358 67.801669 
Q 236.573009 69.757255 234.828757 69.757255 
Q 232.57588 69.757255 230.950491 65.287344 
Q 229.178596 59.674558 229.178596 49.888161 
Q 229.178596 40.127162 230.906263 34.361992 
Q 232.548237 28.85926 235.157705 28.85926 
z
M 234.872985 28.8 
L 234.872985 28.8 
z
" style="fill:#ffa600;"/>
   </g>
   <g id="patch_51">
    <path clip-path="url(#p7b57a159d4)" d="M 252.975439 120.293907 
L 252.975439 122.837212 
L 248.160704 122.837212 
L 248.160704 141.64 
L 246.19684 141.64 
L 246.19684 122.837212 
L 241.382105 122.837212 
L 241.382105 120.293907 
L 252.975439 120.293907 
z
" style="fill:#ff0000;"/>
   </g>
   <g id="patch_52">
    <path clip-path="url(#p7b57a159d4)" d="M 247.361214 92.124723 
Q 249.149694 92.124723 250.454428 93.582454 
Q 252.345186 95.675755 252.768119 100.923584 
L 251.068095 100.923584 
Q 250.755733 97.99063 249.779947 96.649518 
Q 248.804161 95.308406 247.316985 95.308406 
Q 245.556148 95.308406 244.350927 98.101418 
Q 243.145707 100.888599 243.145707 106.410482 
Q 243.145707 111.180176 244.138079 114.17727 
Q 245.133215 117.174363 247.377799 117.174363 
Q 249.097173 117.174363 250.224994 115.075232 
Q 251.352814 112.970269 251.377693 108.264715 
L 247.405442 108.264715 
L 247.405442 105.26179 
L 252.975439 105.26179 
L 252.975439 119.582534 
L 251.869732 119.582534 
L 251.455092 116.136459 
Q 250.584348 118.159789 249.909867 118.946964 
Q 248.776518 120.293907 247.032266 120.293907 
Q 244.779389 120.293907 243.154 117.21518 
Q 241.382105 113.349279 241.382105 106.608733 
Q 241.382105 99.88568 243.109772 95.914822 
Q 244.751746 92.124723 247.361214 92.124723 
z
M 247.076494 92.083907 
L 247.076494 92.083907 
z
" style="fill:#ffa600;"/>
   </g>
   <g id="patch_53">
    <path clip-path="url(#p7b57a159d4)" d="M 247.477716 62.893349 
Q 249.960375 62.893349 251.329823 65.670527 
Q 252.699271 68.441668 252.850167 71.967477 
L 251.124833 71.967477 
Q 250.831583 69.292933 249.954681 67.729261 
Q 249.077778 66.159552 247.494798 66.159552 
Q 245.564474 66.159552 244.37724 69.039365 
Q 243.190005 71.91314 243.190005 77.853887 
Q 243.190005 82.726023 244.260509 85.75677 
Q 245.33386 88.781479 247.460633 88.781479 
Q 249.416581 88.781479 250.441532 85.593762 
Q 250.982479 83.91538 251.250105 81.174426 
L 252.975439 81.174426 
Q 252.744825 85.5515 251.446554 88.515836 
Q 249.889198 92.083907 247.247102 92.083907 
Q 244.969433 92.083907 243.420619 89.155795 
Q 241.382105 85.291895 241.382105 77.213928 
Q 241.382105 71.086024 242.913837 67.161751 
Q 244.567994 62.893349 247.477716 62.893349 
z
M 247.12183 62.893349 
L 247.12183 62.893349 
z
" style="fill:#0000ff;"/>
   </g>
   <g id="patch_54">
    <path clip-path="url(#p7b57a159d4)" d="M 249.163815 48.924804 
L 247.191506 33.864619 
L 245.094688 48.924804 
L 249.163815 48.924804 
z
M 246.271849 28.8 
L 248.261137 28.8 
L 252.975439 62.893349 
L 251.045574 62.893349 
L 249.729758 52.682424 
L 244.591 52.682424 
L 243.184632 62.893349 
L 241.382105 62.893349 
L 246.271849 28.8 
z
M 247.183016 28.8 
L 247.183016 28.8 
z
" style="fill:#008000;"/>
   </g>
   <g id="patch_55">
    <path clip-path="url(#p7b57a159d4)" d="M 265.178947 116.371674 
L 265.178947 119.382298 
L 260.364213 119.382298 
L 260.364213 141.64 
L 258.400349 141.64 
L 258.400349 119.382298 
L 253.585614 119.382298 
L 253.585614 116.371674 
L 265.178947 116.371674 
z
" style="fill:#ff0000;"/>
   </g>
   <g id="patch_56">
    <path clip-path="url(#p7b57a159d4)" d="M 259.681225 89.142232 
Q 262.163884 89.142232 263.533332 91.732831 
Q 264.90278 94.317797 265.053676 97.606731 
L 263.328342 97.606731 
Q 263.035092 95.111872 262.158189 93.653253 
Q 261.281287 92.189001 259.698307 92.189001 
Q 257.767983 92.189001 256.580748 94.875339 
Q 255.393514 97.556045 255.393514 103.097673 
Q 255.393514 107.642484 256.464018 110.469615 
Q 257.537369 113.291115 259.664142 113.291115 
Q 261.62009 113.291115 262.645041 110.317558 
Q 263.185987 108.751936 263.453613 106.195128 
L 265.178947 106.195128 
Q 264.948333 110.278136 263.650062 113.043318 
Q 262.092706 116.371674 259.450611 116.371674 
Q 257.172942 116.371674 255.624127 113.640282 
Q 253.585614 110.035972 253.585614 102.500709 
Q 253.585614 96.784498 255.117346 93.123869 
Q 256.771503 89.142232 259.681225 89.142232 
z
M 259.325339 89.142232 
L 259.325339 89.142232 
z
" style="fill:#0000ff;"/>
   </g>
   <g id="patch_57">
    <path clip-path="url(#p7b57a159d4)" d="M 259.564722 60.973049 
Q 261.353203 60.973049 262.657936 62.430779 
Q 264.548695 64.52408 264.971627 69.77191 
L 263.271604 69.77191 
Q 262.959241 66.838956 261.983455 65.497844 
Q 261.007669 64.156732 259.520494 64.156732 
Q 257.759656 64.156732 256.554436 66.949744 
Q 255.349216 69.736924 255.349216 75.258807 
Q 255.349216 80.028501 256.341588 83.025595 
Q 257.336724 86.022689 259.581308 86.022689 
Q 261.300682 86.022689 262.428502 83.923557 
Q 263.556323 81.818594 263.581201 77.113041 
L 259.608951 77.113041 
L 259.608951 74.110116 
L 265.178947 74.110116 
L 265.178947 88.43086 
L 264.073241 88.43086 
L 263.658601 84.984785 
Q 262.787857 87.008115 262.113376 87.795289 
Q 260.980027 89.142232 259.235775 89.142232 
Q 256.982897 89.142232 255.357509 86.063506 
Q 253.585614 82.197604 253.585614 75.457059 
Q 253.585614 68.734006 255.313281 64.763148 
Q 256.955255 60.973049 259.564722 60.973049 
z
M 259.280003 60.932232 
L 259.280003 60.932232 
z
" style="fill:#ffa600;"/>
   </g>
   <g id="patch_58">
    <path clip-path="url(#p7b57a159d4)" d="M 261.367324 47.767186 
L 259.395014 33.573292 
L 257.298197 47.767186 
L 261.367324 47.767186 
z
M 258.475358 28.8 
L 260.464646 28.8 
L 265.178947 60.932232 
L 263.249083 60.932232 
L 261.933267 51.30866 
L 256.794508 51.30866 
L 255.388141 60.932232 
L 253.585614 60.932232 
L 258.475358 28.8 
z
M 259.386525 28.8 
L 259.386525 28.8 
z
" style="fill:#008000;"/>
   </g>
   <g id="patch_59">
    <path clip-path="url(#p7b57a159d4)" d="M 273.570833 133.295942 
L 271.598523 124.299796 
L 269.501706 133.295942 
L 273.570833 133.295942 
z
M 270.678867 121.274465 
L 272.668155 121.274465 
L 277.382456 141.64 
L 275.452592 141.64 
L 274.136776 135.540542 
L 268.998017 135.540542 
L 267.59165 141.64 
L 265.789123 141.64 
L 270.678867 121.274465 
z
M 271.590034 121.274465 
L 271.590034 121.274465 
z
" style="fill:#008000;"/>
   </g>
   <g id="patch_60">
    <path clip-path="url(#p7b57a159d4)" d="M 277.382456 93.064465 
L 277.382456 96.425578 
L 272.567721 96.425578 
L 272.567721 121.274465 
L 270.603857 121.274465 
L 270.603857 96.425578 
L 265.789123 96.425578 
L 265.789123 93.064465 
L 277.382456 93.064465 
z
" style="fill:#ff0000;"/>
   </g>
   <g id="patch_61">
    <path clip-path="url(#p7b57a159d4)" d="M 271.768231 63.916142 
Q 273.556711 63.916142 274.861445 65.424542 
Q 276.752203 67.590604 277.175136 73.020845 
L 275.475112 73.020845 
Q 275.16275 69.985944 274.186964 68.598216 
Q 273.211178 67.210488 271.724003 67.210488 
Q 269.963165 67.210488 268.757945 70.100582 
Q 267.552725 72.984643 267.552725 78.698462 
Q 267.552725 83.633948 268.545096 86.735218 
Q 269.540232 89.836489 271.784817 89.836489 
Q 273.50419 89.836489 274.632011 87.664392 
Q 275.759832 85.486263 275.78471 80.617147 
L 271.812459 80.617147 
L 271.812459 77.509843 
L 277.382456 77.509843 
L 277.382456 92.328365 
L 276.27675 92.328365 
L 275.86211 88.762508 
Q 274.991366 90.856167 274.316885 91.670703 
Q 273.183535 93.064465 271.439283 93.064465 
Q 269.186406 93.064465 267.561018 89.878724 
Q 265.789123 85.878447 265.789123 78.903605 
Q 265.789123 71.946864 267.516789 67.837982 
Q 269.158764 63.916142 271.768231 63.916142 
z
M 271.483512 63.873907 
L 271.483512 63.873907 
z
" style="fill:#ffa600;"/>
   </g>
   <g id="patch_62">
    <path clip-path="url(#p7b57a159d4)" d="M 271.884733 28.8 
Q 274.367392 28.8 275.736841 32.136918 
Q 277.106289 35.466581 277.257184 39.703016 
L 275.53185 39.703016 
Q 275.238601 36.489419 274.361698 34.610589 
Q 273.484796 32.724505 271.901816 32.724505 
Q 269.971492 32.724505 268.784257 36.184744 
Q 267.597022 39.637728 267.597022 46.775831 
Q 267.597022 52.629945 268.667527 56.271538 
Q 269.740878 59.905876 271.867651 59.905876 
Q 273.823599 59.905876 274.84855 56.075675 
Q 275.389496 54.059016 275.657122 50.765623 
L 277.382456 50.765623 
Q 277.151842 56.024896 275.853571 59.586693 
Q 274.296215 63.873907 271.65412 63.873907 
Q 269.376451 63.873907 267.827636 60.355635 
Q 265.789123 55.712967 265.789123 46.006889 
Q 265.789123 38.643907 267.320855 33.928697 
Q 268.975012 28.8 271.884733 28.8 
z
M 271.528848 28.8 
L 271.528848 28.8 
z
" style="fill:#0000ff;"/>
   </g>
   <g id="patch_63">
    <path clip-path="url(#p7b57a159d4)" d="M 284.088242 118.33279 
Q 286.570901 118.33279 287.940349 120.550229 
Q 289.309798 122.762847 289.460693 125.578031 
L 287.735359 125.578031 
Q 287.442109 123.442541 286.565207 122.194026 
Q 285.688304 120.940691 284.105325 120.940691 
Q 282.175001 120.940691 280.987766 123.240079 
Q 279.800531 125.534646 279.800531 130.278037 
Q 279.800531 134.168195 280.871035 136.588096 
Q 281.944387 139.003176 284.07116 139.003176 
Q 286.027108 139.003176 287.052059 136.457942 
Q 287.593005 135.117838 287.860631 132.929322 
L 289.585965 132.929322 
Q 289.355351 136.424198 288.05708 138.791073 
Q 286.499724 141.64 283.857628 141.64 
Q 281.57996 141.64 280.031145 139.302048 
Q 277.992632 136.216916 277.992632 129.767062 
Q 277.992632 124.874235 279.524364 121.740897 
Q 281.178521 118.33279 284.088242 118.33279 
z
M 283.732357 118.33279 
L 283.732357 118.33279 
z
" style="fill:#0000ff;"/>
   </g>
   <g id="patch_64">
    <path clip-path="url(#p7b57a159d4)" d="M 289.585965 91.103349 
L 289.585965 94.347632 
L 284.77123 94.347632 
L 284.77123 118.33279 
L 282.807366 118.33279 
L 282.807366 94.347632 
L 277.992632 94.347632 
L 277.992632 91.103349 
L 289.585965 91.103349 
z
" style="fill:#ff0000;"/>
   </g>
   <g id="patch_65">
    <path clip-path="url(#p7b57a159d4)" d="M 283.97174 62.934165 
Q 285.76022 62.934165 287.064954 64.391895 
Q 288.955712 66.485196 289.378645 71.733026 
L 287.678621 71.733026 
Q 287.366259 68.800072 286.390473 67.45896 
Q 285.414687 66.117848 283.927512 66.117848 
Q 282.166674 66.117848 280.961454 68.91086 
Q 279.756234 71.698041 279.756234 77.219924 
Q 279.756234 81.989618 280.748605 84.986712 
Q 281.743741 87.983805 283.988325 87.983805 
Q 285.707699 87.983805 286.83552 85.884673 
Q 287.963341 83.779711 287.988219 79.074157 
L 284.015968 79.074157 
L 284.015968 76.071232 
L 289.585965 76.071232 
L 289.585965 90.391976 
L 288.480258 90.391976 
L 288.065618 86.945901 
Q 287.194874 88.969231 286.520393 89.756406 
Q 285.387044 91.103349 283.642792 91.103349 
Q 281.389915 91.103349 279.764526 88.024622 
Q 277.992632 84.158721 277.992632 77.418175 
Q 277.992632 70.695122 279.720298 66.724264 
Q 281.362272 62.934165 283.97174 62.934165 
z
M 283.68702 62.893349 
L 283.68702 62.893349 
z
" style="fill:#ffa600;"/>
   </g>
   <g id="patch_66">
    <path clip-path="url(#p7b57a159d4)" d="M 285.774342 48.924804 
L 283.802032 33.864619 
L 281.705215 48.924804 
L 285.774342 48.924804 
z
M 282.882375 28.8 
L 284.871663 28.8 
L 289.585965 62.893349 
L 287.656101 62.893349 
L 286.340284 52.682424 
L 281.201526 52.682424 
L 279.795159 62.893349 
L 277.992632 62.893349 
L 282.882375 28.8 
z
M 283.793543 28.8 
L 283.793543 28.8 
z
" style="fill:#008000;"/>
   </g>
   <g id="patch_67">
    <path clip-path="url(#p7b57a159d4)" d="M 297.977851 132.894193 
L 296.005541 123.464901 
L 293.908724 132.894193 
L 297.977851 132.894193 
z
M 295.085884 120.293907 
L 297.075172 120.293907 
L 301.789474 141.64 
L 299.85961 141.64 
L 298.543793 135.246866 
L 293.405035 135.246866 
L 291.998667 141.64 
L 290.19614 141.64 
L 295.085884 120.293907 
z
M 295.997052 120.293907 
L 295.997052 120.293907 
z
" style="fill:#008000;"/>
   </g>
   <g id="patch_68">
    <path clip-path="url(#p7b57a159d4)" d="M 301.789474 96.006139 
L 301.789474 98.899933 
L 296.974739 98.899933 
L 296.974739 120.293907 
L 295.010875 120.293907 
L 295.010875 98.899933 
L 290.19614 98.899933 
L 290.19614 96.006139 
L 301.789474 96.006139 
z
" style="fill:#ff0000;"/>
   </g>
   <g id="patch_69">
    <path clip-path="url(#p7b57a159d4)" d="M 296.291751 62.893349 
Q 298.77441 62.893349 300.143858 66.043686 
Q 301.513306 69.187176 301.664202 73.186735 
L 299.938868 73.186735 
Q 299.645618 70.152823 298.768716 68.379046 
Q 297.891813 66.59842 296.308834 66.59842 
Q 294.378509 66.59842 293.191275 69.865183 
Q 292.00404 73.125098 292.00404 79.864082 
Q 292.00404 85.39087 293.074544 88.828847 
Q 294.147895 92.259976 296.274669 92.259976 
Q 298.230616 92.259976 299.255567 88.643936 
Q 299.796514 86.740037 300.06414 83.63079 
L 301.789474 83.63079 
Q 301.55886 88.595996 300.260589 91.95864 
Q 298.703233 96.006139 296.061137 96.006139 
Q 293.783468 96.006139 292.234654 92.684587 
Q 290.19614 88.301508 290.19614 79.138134 
Q 290.19614 72.186845 291.727873 67.735281 
Q 293.382029 62.893349 296.291751 62.893349 
z
M 295.935865 62.893349 
L 295.935865 62.893349 
z
" style="fill:#0000ff;"/>
   </g>
   <g id="patch_70">
    <path clip-path="url(#p7b57a159d4)" d="M 296.175249 28.849329 
Q 297.963729 28.849329 299.268463 30.611077 
Q 301.159221 33.140947 301.582154 39.48324 
L 299.88213 39.48324 
Q 299.569768 35.938603 298.593982 34.317795 
Q 297.618196 32.696987 296.13102 32.696987 
Q 294.370183 32.696987 293.164962 36.072496 
Q 291.959742 39.440958 291.959742 46.11446 
Q 291.959742 51.8789 292.952114 55.501054 
Q 293.94725 59.123208 296.191834 59.123208 
Q 297.911208 59.123208 299.039029 56.58629 
Q 300.166849 54.042326 300.191728 48.355404 
L 296.219477 48.355404 
L 296.219477 44.726203 
L 301.789474 44.726203 
L 301.789474 62.033615 
L 300.683767 62.033615 
L 300.269127 57.868843 
Q 299.398383 60.314149 298.723902 61.265493 
Q 297.590553 62.893349 295.846301 62.893349 
Q 293.593424 62.893349 291.968035 59.172537 
Q 290.19614 54.500381 290.19614 46.354058 
Q 290.19614 38.228876 291.923807 33.429874 
Q 293.565781 28.849329 296.175249 28.849329 
z
M 295.890529 28.8 
L 295.890529 28.8 
z
" style="fill:#ffa600;"/>
   </g>
   <g id="patch_71">
    <path clip-path="url(#p7b57a159d4)" d="M 308.378757 118.366513 
Q 310.167238 118.366513 311.471971 119.570896 
Q 313.36273 121.300389 313.785662 125.636166 
L 312.085639 125.636166 
Q 311.773277 123.212948 310.79749 122.104916 
Q 309.821704 120.996884 308.334529 120.996884 
Q 306.573691 120.996884 305.368471 123.304481 
Q 304.163251 125.607261 304.163251 130.169461 
Q 304.163251 134.110201 305.155623 136.586411 
Q 306.150759 139.062622 308.395343 139.062622 
Q 310.114717 139.062622 311.242537 137.328311 
Q 312.370358 135.589182 312.395236 131.701436 
L 308.422986 131.701436 
L 308.422986 129.220408 
L 313.992982 129.220408 
L 313.992982 141.052261 
L 312.887276 141.052261 
L 312.472636 138.205101 
Q 311.601892 139.876784 310.927411 140.527151 
Q 309.794062 141.64 308.04981 141.64 
Q 305.796933 141.64 304.171544 139.096344 
Q 302.399649 135.902322 302.399649 130.333257 
Q 302.399649 124.778645 304.127316 121.497908 
Q 305.76929 118.366513 308.378757 118.366513 
z
M 308.094038 118.33279 
L 308.094038 118.33279 
z
" style="fill:#ffa600;"/>
   </g>
   <g id="patch_72">
    <path clip-path="url(#p7b57a159d4)" d="M 310.181359 108.381736 
L 308.209049 97.653007 
L 306.112232 108.381736 
L 310.181359 108.381736 
z
M 307.289393 94.045023 
L 309.278681 94.045023 
L 313.992982 118.33279 
L 312.063118 118.33279 
L 310.747302 111.058628 
L 305.608543 111.058628 
L 304.202176 118.33279 
L 302.399649 118.33279 
L 307.289393 94.045023 
z
M 308.20056 94.045023 
L 308.20056 94.045023 
z
" style="fill:#008000;"/>
   </g>
   <g id="patch_73">
    <path clip-path="url(#p7b57a159d4)" d="M 308.49526 63.873907 
Q 310.977919 63.873907 312.347367 66.744375 
Q 313.716815 69.608603 313.867711 73.252849 
L 312.142377 73.252849 
Q 311.849127 70.488464 310.972224 68.872265 
Q 310.095322 67.249827 308.512342 67.249827 
Q 306.582018 67.249827 305.394783 70.226377 
Q 304.207549 73.196688 304.207549 79.336994 
Q 304.207549 84.372793 305.278053 87.505348 
Q 306.351404 90.631662 308.478177 90.631662 
Q 310.434125 90.631662 311.459076 87.336864 
Q 312.000022 85.602102 312.267648 82.769075 
L 313.992982 82.769075 
Q 313.762369 87.293183 312.464097 90.357095 
Q 310.906741 94.045023 308.264646 94.045023 
Q 305.986977 94.045023 304.438163 91.018551 
Q 302.399649 87.024856 302.399649 78.675538 
Q 302.399649 72.341788 303.931381 68.285691 
Q 305.585538 63.873907 308.49526 63.873907 
z
M 308.139374 63.873907 
L 308.139374 63.873907 
z
" style="fill:#0000ff;"/>
   </g>
   <g id="patch_74">
    <path clip-path="url(#p7b57a159d4)" d="M 313.992982 28.8 
L 313.992982 32.978921 
L 309.178248 32.978921 
L 309.178248 63.873907 
L 307.214384 63.873907 
L 307.214384 32.978921 
L 302.399649 32.978921 
L 302.399649 28.8 
L 313.992982 28.8 
z
" style="fill:#ff0000;"/>
   </g>
   <g id="patch_75">
    <path clip-path="url(#p7b57a159d4)" d="M 322.384868 131.287197 
L 320.412558 120.125322 
L 318.315741 131.287197 
L 322.384868 131.287197 
z
M 319.492902 116.371674 
L 321.48219 116.371674 
L 326.196491 141.64 
L 324.266627 141.64 
L 322.950811 134.072161 
L 317.812052 134.072161 
L 316.405685 141.64 
L 314.603158 141.64 
L 319.492902 116.371674 
z
M 320.404069 116.371674 
L 320.404069 116.371674 
z
" style="fill:#008000;"/>
   </g>
   <g id="patch_76">
    <path clip-path="url(#p7b57a159d4)" d="M 326.196491 91.103349 
L 326.196491 94.113972 
L 321.381757 94.113972 
L 321.381757 116.371674 
L 319.417893 116.371674 
L 319.417893 94.113972 
L 314.603158 94.113972 
L 314.603158 91.103349 
L 326.196491 91.103349 
z
" style="fill:#ff0000;"/>
   </g>
   <g id="patch_77">
    <path clip-path="url(#p7b57a159d4)" d="M 320.698769 62.893349 
Q 323.181427 62.893349 324.550876 65.577237 
Q 325.920324 68.255291 326.071219 71.662662 
L 324.345885 71.662662 
Q 324.052636 69.077961 323.175733 67.566815 
Q 322.298831 66.049835 320.715851 66.049835 
Q 318.785527 66.049835 317.598292 68.83291 
Q 316.411057 71.610151 316.411057 77.351338 
Q 316.411057 82.059812 317.481562 84.988751 
Q 318.554913 87.911855 320.681686 87.911855 
Q 322.637634 87.911855 323.662585 84.831218 
Q 324.203531 83.209216 324.471157 80.560335 
L 326.196491 80.560335 
Q 325.965877 84.790376 324.667606 87.655136 
Q 323.11025 91.103349 320.468155 91.103349 
Q 318.190486 91.103349 316.641671 88.273597 
Q 314.603158 84.539491 314.603158 76.732877 
Q 314.603158 70.810819 316.13489 67.018368 
Q 317.789047 62.893349 320.698769 62.893349 
z
M 320.342883 62.893349 
L 320.342883 62.893349 
z
" style="fill:#0000ff;"/>
   </g>
   <g id="patch_78">
    <path clip-path="url(#p7b57a159d4)" d="M 320.582266 28.849329 
Q 322.370747 28.849329 323.67548 30.611077 
Q 325.566238 33.140947 325.989171 39.48324 
L 324.289147 39.48324 
Q 323.976785 35.938603 323.000999 34.317795 
Q 322.025213 32.696987 320.538038 32.696987 
Q 318.7772 32.696987 317.57198 36.072496 
Q 316.36676 39.440958 316.36676 46.11446 
Q 316.36676 51.8789 317.359132 55.501054 
Q 318.354267 59.123208 320.598852 59.123208 
Q 322.318225 59.123208 323.446046 56.58629 
Q 324.573867 54.042326 324.598745 48.355404 
L 320.626494 48.355404 
L 320.626494 44.726203 
L 326.196491 44.726203 
L 326.196491 62.033615 
L 325.090785 62.033615 
L 324.676145 57.868843 
Q 323.805401 60.314149 323.13092 61.265493 
Q 321.997571 62.893349 320.253318 62.893349 
Q 318.000441 62.893349 316.375053 59.172537 
Q 314.603158 54.500381 314.603158 46.354058 
Q 314.603158 38.228876 316.330824 33.429874 
Q 317.972799 28.849329 320.582266 28.849329 
z
M 320.297547 28.8 
L 320.297547 28.8 
z
" style="fill:#ffa600;"/>
   </g>
   <g id="patch_79">
    <path clip-path="url(#p7b57a159d4)" d="M 338.4 117.352232 
L 338.4 120.246027 
L 333.585265 120.246027 
L 333.585265 141.64 
L 331.621401 141.64 
L 331.621401 120.246027 
L 326.806667 120.246027 
L 326.806667 117.352232 
L 338.4 117.352232 
z
" style="fill:#ff0000;"/>
   </g>
   <g id="patch_80">
    <path clip-path="url(#p7b57a159d4)" d="M 334.588377 106.59768 
L 332.616067 95.00266 
L 330.51925 106.59768 
L 334.588377 106.59768 
z
M 331.69641 91.103349 
L 333.685698 91.103349 
L 338.4 117.352232 
L 336.470136 117.352232 
L 335.154319 109.490717 
L 330.015561 109.490717 
L 328.609194 117.352232 
L 326.806667 117.352232 
L 331.69641 91.103349 
z
M 332.607578 91.103349 
L 332.607578 91.103349 
z
" style="fill:#008000;"/>
   </g>
   <g id="patch_81">
    <path clip-path="url(#p7b57a159d4)" d="M 332.902277 62.893349 
Q 335.384936 62.893349 336.754384 65.577237 
Q 338.123833 68.255291 338.274728 71.662662 
L 336.549394 71.662662 
Q 336.256144 69.077961 335.379242 67.566815 
Q 334.50234 66.049835 332.91936 66.049835 
Q 330.989036 66.049835 329.801801 68.83291 
Q 328.614566 71.610151 328.614566 77.351338 
Q 328.614566 82.059812 329.68507 84.988751 
Q 330.758422 87.911855 332.885195 87.911855 
Q 334.841143 87.911855 335.866094 84.831218 
Q 336.40704 83.209216 336.674666 80.560335 
L 338.4 80.560335 
Q 338.169386 84.790376 336.871115 87.655136 
Q 335.313759 91.103349 332.671663 91.103349 
Q 330.393995 91.103349 328.84518 88.273597 
Q 326.806667 84.539491 326.806667 76.732877 
Q 326.806667 70.810819 328.338399 67.018368 
Q 329.992556 62.893349 332.902277 62.893349 
z
M 332.546392 62.893349 
L 332.546392 62.893349 
z
" style="fill:#0000ff;"/>
   </g>
   <g id="patch_82">
    <path clip-path="url(#p7b57a159d4)" d="M 332.785775 28.849329 
Q 334.574255 28.849329 335.878989 30.611077 
Q 337.769747 33.140947 338.19268 39.48324 
L 336.492656 39.48324 
Q 336.180294 35.938603 335.204508 34.317795 
Q 334.228722 32.696987 332.741547 32.696987 
Q 330.980709 32.696987 329.775489 36.072496 
Q 328.570269 39.440958 328.570269 46.11446 
Q 328.570269 51.8789 329.56264 55.501054 
Q 330.557776 59.123208 332.802361 59.123208 
Q 334.521734 59.123208 335.649555 56.58629 
Q 336.777376 54.042326 336.802254 48.355404 
L 332.830003 48.355404 
L 332.830003 44.726203 
L 338.4 44.726203 
L 338.4 62.033615 
L 337.294293 62.033615 
L 336.879653 57.868843 
Q 336.00891 60.314149 335.334429 61.265493 
Q 334.201079 62.893349 332.456827 62.893349 
Q 330.20395 62.893349 328.578561 59.172537 
Q 326.806667 54.500381 326.806667 46.354058 
Q 326.806667 38.228876 328.534333 33.429874 
Q 330.176307 28.849329 332.785775 28.849329 
z
M 332.501055 28.8 
L 332.501055 28.8 
z
" style="fill:#ffa600;"/>
   </g>
   <g id="matplotlib.axis_1">
    <g id="xtick_1">
     <g id="text_1">
      <!-- 0 -->
      <g style="fill:#262626;" transform="translate(95.175729 162.986875)scale(0.2 -0.2)">
       <defs>
        <path d="M 1731 4475 
Q 2600 4475 2988 3759 
Q 3288 3206 3288 2244 
Q 3288 1331 3016 734 
Q 2622 -122 1728 -122 
Q 922 -122 528 578 
Q 200 1163 200 2147 
Q 200 2909 397 3456 
Q 766 4475 1731 4475 
z
M 1725 391 
Q 2163 391 2422 778 
Q 2681 1166 2681 2222 
Q 2681 2984 2493 3476 
Q 2306 3969 1766 3969 
Q 1269 3969 1039 3501 
Q 809 3034 809 2125 
Q 809 1441 956 1025 
Q 1181 391 1725 391 
z
" id="Helvetica-30" transform="scale(0.015625)"/>
       </defs>
       <use xlink:href="#Helvetica-30"/>
      </g>
     </g>
    </g>
    <g id="xtick_2">
     <g id="text_2">
      <!-- 10 -->
      <g style="fill:#262626;" transform="translate(211.649879 162.986875)scale(0.2 -0.2)">
       <defs>
        <path d="M 613 3169 
L 613 3600 
Q 1222 3659 1462 3798 
Q 1703 3938 1822 4456 
L 2266 4456 
L 2266 0 
L 1666 0 
L 1666 3169 
L 613 3169 
z
" id="Helvetica-31" transform="scale(0.015625)"/>
       </defs>
       <use xlink:href="#Helvetica-31"/>
       <use x="55.615234" xlink:href="#Helvetica-30"/>
      </g>
     </g>
    </g>
    <g id="text_3">
     <!-- Position -->
     <g style="fill:#262626;" transform="translate(172.20125 189.089219)scale(0.25 -0.25)">
      <defs>
       <path d="M 547 4591 
L 2613 4591 
Q 3225 4591 3600 4245 
Q 3975 3900 3975 3275 
Q 3975 2738 3640 2339 
Q 3306 1941 2613 1941 
L 1169 1941 
L 1169 0 
L 547 0 
L 547 4591 
z
M 3347 3272 
Q 3347 3778 2972 3959 
Q 2766 4056 2406 4056 
L 1169 4056 
L 1169 2466 
L 2406 2466 
Q 2825 2466 3086 2644 
Q 3347 2822 3347 3272 
z
" id="Helvetica-50" transform="scale(0.015625)"/>
       <path d="M 1741 363 
Q 2300 363 2508 786 
Q 2716 1209 2716 1728 
Q 2716 2197 2566 2491 
Q 2328 2953 1747 2953 
Q 1231 2953 997 2559 
Q 763 2166 763 1609 
Q 763 1075 997 719 
Q 1231 363 1741 363 
z
M 1763 3444 
Q 2409 3444 2856 3012 
Q 3303 2581 3303 1744 
Q 3303 934 2909 406 
Q 2516 -122 1688 -122 
Q 997 -122 590 345 
Q 184 813 184 1600 
Q 184 2444 612 2944 
Q 1041 3444 1763 3444 
z
M 1744 3428 
L 1744 3428 
z
" id="Helvetica-6f" transform="scale(0.015625)"/>
       <path d="M 747 1050 
Q 772 769 888 619 
Q 1100 347 1625 347 
Q 1938 347 2175 483 
Q 2413 619 2413 903 
Q 2413 1119 2222 1231 
Q 2100 1300 1741 1391 
L 1294 1503 
Q 866 1609 663 1741 
Q 300 1969 300 2372 
Q 300 2847 642 3140 
Q 984 3434 1563 3434 
Q 2319 3434 2653 2991 
Q 2863 2709 2856 2384 
L 2325 2384 
Q 2309 2575 2191 2731 
Q 1997 2953 1519 2953 
Q 1200 2953 1036 2831 
Q 872 2709 872 2509 
Q 872 2291 1088 2159 
Q 1213 2081 1456 2022 
L 1828 1931 
Q 2434 1784 2641 1647 
Q 2969 1431 2969 969 
Q 2969 522 2630 197 
Q 2291 -128 1597 -128 
Q 850 -128 539 211 
Q 228 550 206 1050 
L 747 1050 
z
M 1578 3428 
L 1578 3428 
z
" id="Helvetica-73" transform="scale(0.015625)"/>
       <path d="M 413 3331 
L 984 3331 
L 984 0 
L 413 0 
L 413 3331 
z
M 413 4591 
L 984 4591 
L 984 3953 
L 413 3953 
L 413 4591 
z
" id="Helvetica-69" transform="scale(0.015625)"/>
       <path d="M 525 4281 
L 1094 4281 
L 1094 3347 
L 1628 3347 
L 1628 2888 
L 1094 2888 
L 1094 703 
Q 1094 528 1213 469 
Q 1278 434 1431 434 
Q 1472 434 1519 436 
Q 1566 438 1628 444 
L 1628 0 
Q 1531 -28 1426 -40 
Q 1322 -53 1200 -53 
Q 806 -53 665 148 
Q 525 350 525 672 
L 525 2888 
L 72 2888 
L 72 3347 
L 525 3347 
L 525 4281 
z
" id="Helvetica-74" transform="scale(0.015625)"/>
       <path d="M 413 3347 
L 947 3347 
L 947 2872 
Q 1184 3166 1450 3294 
Q 1716 3422 2041 3422 
Q 2753 3422 3003 2925 
Q 3141 2653 3141 2147 
L 3141 0 
L 2569 0 
L 2569 2109 
Q 2569 2416 2478 2603 
Q 2328 2916 1934 2916 
Q 1734 2916 1606 2875 
Q 1375 2806 1200 2600 
Q 1059 2434 1017 2257 
Q 975 2081 975 1753 
L 975 0 
L 413 0 
L 413 3347 
z
M 1734 3428 
L 1734 3428 
z
" id="Helvetica-6e" transform="scale(0.015625)"/>
      </defs>
      <use xlink:href="#Helvetica-50"/>
      <use x="66.699219" xlink:href="#Helvetica-6f"/>
      <use x="122.314453" xlink:href="#Helvetica-73"/>
      <use x="172.314453" xlink:href="#Helvetica-69"/>
      <use x="194.53125" xlink:href="#Helvetica-74"/>
      <use x="222.314453" xlink:href="#Helvetica-69"/>
      <use x="244.53125" xlink:href="#Helvetica-6f"/>
      <use x="300.146484" xlink:href="#Helvetica-6e"/>
     </g>
    </g>
   </g>
   <g id="matplotlib.axis_2">
    <g id="ytick_1">
     <g id="text_4">
      <!-- 0 -->
      <g style="fill:#262626;" transform="translate(76.818125 148.813438)scale(0.2 -0.2)">
       <use xlink:href="#Helvetica-30"/>
      </g>
     </g>
    </g>
    <g id="ytick_2">
     <g id="text_5">
      <!-- 0.25 -->
      <g style="fill:#262626;" transform="translate(49.018125 120.603437)scale(0.2 -0.2)">
       <defs>
        <path d="M 547 681 
L 1200 681 
L 1200 0 
L 547 0 
L 547 681 
z
" id="Helvetica-2e" transform="scale(0.015625)"/>
        <path d="M 200 0 
Q 231 578 439 1006 
Q 647 1434 1250 1784 
L 1850 2131 
Q 2253 2366 2416 2531 
Q 2672 2791 2672 3125 
Q 2672 3516 2437 3745 
Q 2203 3975 1813 3975 
Q 1234 3975 1013 3538 
Q 894 3303 881 2888 
L 309 2888 
Q 319 3472 525 3841 
Q 891 4491 1816 4491 
Q 2584 4491 2939 4075 
Q 3294 3659 3294 3150 
Q 3294 2613 2916 2231 
Q 2697 2009 2131 1694 
L 1703 1456 
Q 1397 1288 1222 1134 
Q 909 863 828 531 
L 3272 531 
L 3272 0 
L 200 0 
z
" id="Helvetica-32" transform="scale(0.015625)"/>
        <path d="M 791 1141 
Q 847 659 1238 475 
Q 1438 381 1700 381 
Q 2200 381 2440 700 
Q 2681 1019 2681 1406 
Q 2681 1875 2395 2131 
Q 2109 2388 1709 2388 
Q 1419 2388 1211 2275 
Q 1003 2163 856 1963 
L 369 1991 
L 709 4400 
L 3034 4400 
L 3034 3856 
L 1131 3856 
L 941 2613 
Q 1097 2731 1238 2791 
Q 1488 2894 1816 2894 
Q 2431 2894 2859 2497 
Q 3288 2100 3288 1491 
Q 3288 856 2895 371 
Q 2503 -113 1644 -113 
Q 1097 -113 676 195 
Q 256 503 206 1141 
L 791 1141 
z
" id="Helvetica-35" transform="scale(0.015625)"/>
       </defs>
       <use xlink:href="#Helvetica-30"/>
       <use x="55.615234" xlink:href="#Helvetica-2e"/>
       <use x="83.398438" xlink:href="#Helvetica-32"/>
       <use x="139.013672" xlink:href="#Helvetica-35"/>
      </g>
     </g>
    </g>
    <g id="ytick_3">
     <g id="text_6">
      <!-- 0.50 -->
      <g style="fill:#262626;" transform="translate(49.018125 92.393438)scale(0.2 -0.2)">
       <use xlink:href="#Helvetica-30"/>
       <use x="55.615234" xlink:href="#Helvetica-2e"/>
       <use x="83.398438" xlink:href="#Helvetica-35"/>
       <use x="139.013672" xlink:href="#Helvetica-30"/>
      </g>
     </g>
    </g>
    <g id="ytick_4">
     <g id="text_7">
      <!-- 0.75 -->
      <g style="fill:#262626;" transform="translate(49.018125 64.183437)scale(0.2 -0.2)">
       <defs>
        <path d="M 3347 4400 
L 3347 3909 
Q 3131 3700 2773 3181 
Q 2416 2663 2141 2063 
Q 1869 1478 1728 997 
Q 1638 688 1494 0 
L 872 0 
Q 1084 1281 1809 2550 
Q 2238 3294 2709 3834 
L 234 3834 
L 234 4400 
L 3347 4400 
z
" id="Helvetica-37" transform="scale(0.015625)"/>
       </defs>
       <use xlink:href="#Helvetica-30"/>
       <use x="55.615234" xlink:href="#Helvetica-2e"/>
       <use x="83.398438" xlink:href="#Helvetica-37"/>
       <use x="139.013672" xlink:href="#Helvetica-35"/>
      </g>
     </g>
    </g>
    <g id="ytick_5">
     <g id="text_8">
      <!-- 1.0 -->
      <g style="fill:#262626;" transform="translate(60.14 35.973437)scale(0.2 -0.2)">
       <use xlink:href="#Helvetica-31"/>
       <use x="55.615234" xlink:href="#Helvetica-2e"/>
       <use x="83.398438" xlink:href="#Helvetica-30"/>
      </g>
     </g>
    </g>
    <g id="text_9">
     <!-- Probability -->
     <g style="fill:#262626;" transform="translate(39.65875 143.579375)rotate(-90)scale(0.25 -0.25)">
      <defs>
       <path d="M 428 3347 
L 963 3347 
L 963 2769 
Q 1028 2938 1284 3180 
Q 1541 3422 1875 3422 
Q 1891 3422 1928 3419 
Q 1966 3416 2056 3406 
L 2056 2813 
Q 2006 2822 1964 2825 
Q 1922 2828 1872 2828 
Q 1447 2828 1219 2554 
Q 991 2281 991 1925 
L 991 0 
L 428 0 
L 428 3347 
z
" id="Helvetica-72" transform="scale(0.015625)"/>
       <path d="M 369 4606 
L 916 4606 
L 916 2941 
Q 1100 3181 1356 3307 
Q 1613 3434 1913 3434 
Q 2538 3434 2927 3004 
Q 3316 2575 3316 1738 
Q 3316 944 2931 419 
Q 2547 -106 1866 -106 
Q 1484 -106 1222 78 
Q 1066 188 888 428 
L 888 0 
L 369 0 
L 369 4606 
z
M 1831 391 
Q 2288 391 2514 753 
Q 2741 1116 2741 1709 
Q 2741 2238 2514 2584 
Q 2288 2931 1847 2931 
Q 1463 2931 1173 2647 
Q 884 2363 884 1709 
Q 884 1238 1003 944 
Q 1225 391 1831 391 
z
" id="Helvetica-62" transform="scale(0.015625)"/>
       <path d="M 844 891 
Q 844 647 1022 506 
Q 1200 366 1444 366 
Q 1741 366 2019 503 
Q 2488 731 2488 1250 
L 2488 1703 
Q 2384 1638 2221 1594 
Q 2059 1550 1903 1531 
L 1563 1488 
Q 1256 1447 1103 1359 
Q 844 1213 844 891 
z
M 2206 2028 
Q 2400 2053 2466 2191 
Q 2503 2266 2503 2406 
Q 2503 2694 2298 2823 
Q 2094 2953 1713 2953 
Q 1272 2953 1088 2716 
Q 984 2584 953 2325 
L 428 2325 
Q 444 2944 830 3186 
Q 1216 3428 1725 3428 
Q 2316 3428 2684 3203 
Q 3050 2978 3050 2503 
L 3050 575 
Q 3050 488 3086 434 
Q 3122 381 3238 381 
Q 3275 381 3322 386 
Q 3369 391 3422 400 
L 3422 -16 
Q 3291 -53 3222 -62 
Q 3153 -72 3034 -72 
Q 2744 -72 2613 134 
Q 2544 244 2516 444 
Q 2344 219 2022 53 
Q 1700 -113 1313 -113 
Q 847 -113 551 170 
Q 256 453 256 878 
Q 256 1344 547 1600 
Q 838 1856 1309 1916 
L 2206 2028 
z
M 1741 3428 
L 1741 3428 
z
" id="Helvetica-61" transform="scale(0.015625)"/>
       <path d="M 428 4591 
L 991 4591 
L 991 0 
L 428 0 
L 428 4591 
z
" id="Helvetica-6c" transform="scale(0.015625)"/>
       <path d="M 2503 3347 
L 3125 3347 
Q 3006 3025 2597 1878 
Q 2291 1016 2084 472 
Q 1597 -809 1397 -1090 
Q 1197 -1372 709 -1372 
Q 591 -1372 527 -1362 
Q 463 -1353 369 -1328 
L 369 -816 
Q 516 -856 581 -865 
Q 647 -875 697 -875 
Q 853 -875 926 -823 
Q 1000 -772 1050 -697 
Q 1066 -672 1162 -440 
Q 1259 -209 1303 -97 
L 66 3347 
L 703 3347 
L 1600 622 
L 2503 3347 
z
M 1597 3428 
L 1597 3428 
z
" id="Helvetica-79" transform="scale(0.015625)"/>
      </defs>
      <use xlink:href="#Helvetica-50"/>
      <use x="66.699219" xlink:href="#Helvetica-72"/>
      <use x="100" xlink:href="#Helvetica-6f"/>
      <use x="155.615234" xlink:href="#Helvetica-62"/>
      <use x="211.230469" xlink:href="#Helvetica-61"/>
      <use x="266.845703" xlink:href="#Helvetica-62"/>
      <use x="322.460938" xlink:href="#Helvetica-69"/>
      <use x="344.677734" xlink:href="#Helvetica-6c"/>
      <use x="366.894531" xlink:href="#Helvetica-69"/>
      <use x="389.111328" xlink:href="#Helvetica-74"/>
      <use x="416.894531" xlink:href="#Helvetica-79"/>
     </g>
    </g>
   </g>
   <g id="patch_83">
    <path d="M 94.94 141.64 
L 94.94 28.8 
" style="fill:none;stroke:#000000;stroke-linecap:square;stroke-linejoin:miter;"/>
   </g>
  </g>
 </g>
 <defs>
  <clipPath id="p7b57a159d4">
   <rect height="112.84" width="243.46" x="94.94" y="28.8"/>
  </clipPath>
 </defs>
</svg>
