<?xml version="1.0" encoding="utf-8" standalone="no"?>
<!DOCTYPE svg PUBLIC "-//W3C//DTD SVG 1.1//EN"
  "http://www.w3.org/Graphics/SVG/1.1/DTD/svg11.dtd">
<svg height="144pt" version="1.1" viewBox="0 0 144 144" width="144pt" xmlns="http://www.w3.org/2000/svg" xmlns:xlink="http://www.w3.org/1999/xlink">
 <metadata>
  <rdf:RDF xmlns:cc="http://creativecommons.org/ns#" xmlns:dc="http://purl.org/dc/elements/1.1/" xmlns:rdf="http://www.w3.org/1999/02/22-rdf-syntax-ns#">
   <cc:Work>
    <dc:type rdf:resource="http://purl.org/dc/dcmitype/StillImage"/>
    <dc:date>2022-12-28T10:08:48.416020</dc:date>
    <dc:format>image/svg+xml</dc:format>
    <dc:creator>
     <cc:Agent>
      <dc:title>Matplotlib v3.4.2, https://matplotlib.org/</dc:title>
     </cc:Agent>
    </dc:creator>
   </cc:Work>
  </rdf:RDF>
 </metadata>
 <defs>
  <style type="text/css">*{stroke-linecap:butt;stroke-linejoin:round;}</style>
 </defs>
 <g id="figure_1">
  <g id="patch_1">
   <path d="M 0 144 
L 144 144 
L 144 0 
L 0 0 
z
" style="fill:#ffffff;"/>
  </g>
  <g id="axes_1">
   <g id="patch_2">
    <path d="M 18 128.16 
L 129.6 128.16 
L 129.6 17.28 
L 18 17.28 
z
" style="fill:#ffffff;"/>
   </g>
   <g id="matplotlib.axis_1">
    <g id="xtick_1">
     <g id="text_1">
      <!-- Original -->
      <g style="fill:#262626;" transform="translate(51.08125 204.0725)rotate(-90)scale(0.2 -0.2)">
       <defs>
        <path d="M 309 2231 
Q 309 3372 921 4017 
Q 1534 4663 2503 4663 
Q 3138 4663 3647 4359 
Q 4156 4056 4423 3514 
Q 4691 2972 4691 2284 
Q 4691 1588 4409 1038 
Q 4128 488 3612 205 
Q 3097 -78 2500 -78 
Q 1853 -78 1343 234 
Q 834 547 571 1087 
Q 309 1628 309 2231 
z
M 934 2222 
Q 934 1394 1379 917 
Q 1825 441 2497 441 
Q 3181 441 3623 922 
Q 4066 1403 4066 2288 
Q 4066 2847 3877 3264 
Q 3688 3681 3323 3911 
Q 2959 4141 2506 4141 
Q 1863 4141 1398 3698 
Q 934 3256 934 2222 
z
" id="ArialMT-4f" transform="scale(0.015625)"/>
        <path d="M 416 0 
L 416 3319 
L 922 3319 
L 922 2816 
Q 1116 3169 1280 3281 
Q 1444 3394 1641 3394 
Q 1925 3394 2219 3213 
L 2025 2691 
Q 1819 2813 1613 2813 
Q 1428 2813 1281 2702 
Q 1134 2591 1072 2394 
Q 978 2094 978 1738 
L 978 0 
L 416 0 
z
" id="ArialMT-72" transform="scale(0.015625)"/>
        <path d="M 425 3934 
L 425 4581 
L 988 4581 
L 988 3934 
L 425 3934 
z
M 425 0 
L 425 3319 
L 988 3319 
L 988 0 
L 425 0 
z
" id="ArialMT-69" transform="scale(0.015625)"/>
        <path d="M 319 -275 
L 866 -356 
Q 900 -609 1056 -725 
Q 1266 -881 1628 -881 
Q 2019 -881 2231 -725 
Q 2444 -569 2519 -288 
Q 2563 -116 2559 434 
Q 2191 0 1641 0 
Q 956 0 581 494 
Q 206 988 206 1678 
Q 206 2153 378 2554 
Q 550 2956 876 3175 
Q 1203 3394 1644 3394 
Q 2231 3394 2613 2919 
L 2613 3319 
L 3131 3319 
L 3131 450 
Q 3131 -325 2973 -648 
Q 2816 -972 2473 -1159 
Q 2131 -1347 1631 -1347 
Q 1038 -1347 672 -1080 
Q 306 -813 319 -275 
z
M 784 1719 
Q 784 1066 1043 766 
Q 1303 466 1694 466 
Q 2081 466 2343 764 
Q 2606 1063 2606 1700 
Q 2606 2309 2336 2618 
Q 2066 2928 1684 2928 
Q 1309 2928 1046 2623 
Q 784 2319 784 1719 
z
" id="ArialMT-67" transform="scale(0.015625)"/>
        <path d="M 422 0 
L 422 3319 
L 928 3319 
L 928 2847 
Q 1294 3394 1984 3394 
Q 2284 3394 2536 3286 
Q 2788 3178 2913 3003 
Q 3038 2828 3088 2588 
Q 3119 2431 3119 2041 
L 3119 0 
L 2556 0 
L 2556 2019 
Q 2556 2363 2490 2533 
Q 2425 2703 2258 2804 
Q 2091 2906 1866 2906 
Q 1506 2906 1245 2678 
Q 984 2450 984 1813 
L 984 0 
L 422 0 
z
" id="ArialMT-6e" transform="scale(0.015625)"/>
        <path d="M 2588 409 
Q 2275 144 1986 34 
Q 1697 -75 1366 -75 
Q 819 -75 525 192 
Q 231 459 231 875 
Q 231 1119 342 1320 
Q 453 1522 633 1644 
Q 813 1766 1038 1828 
Q 1203 1872 1538 1913 
Q 2219 1994 2541 2106 
Q 2544 2222 2544 2253 
Q 2544 2597 2384 2738 
Q 2169 2928 1744 2928 
Q 1347 2928 1158 2789 
Q 969 2650 878 2297 
L 328 2372 
Q 403 2725 575 2942 
Q 747 3159 1072 3276 
Q 1397 3394 1825 3394 
Q 2250 3394 2515 3294 
Q 2781 3194 2906 3042 
Q 3031 2891 3081 2659 
Q 3109 2516 3109 2141 
L 3109 1391 
Q 3109 606 3145 398 
Q 3181 191 3288 0 
L 2700 0 
Q 2613 175 2588 409 
z
M 2541 1666 
Q 2234 1541 1622 1453 
Q 1275 1403 1131 1340 
Q 988 1278 909 1158 
Q 831 1038 831 891 
Q 831 666 1001 516 
Q 1172 366 1500 366 
Q 1825 366 2078 508 
Q 2331 650 2450 897 
Q 2541 1088 2541 1459 
L 2541 1666 
z
" id="ArialMT-61" transform="scale(0.015625)"/>
        <path d="M 409 0 
L 409 4581 
L 972 4581 
L 972 0 
L 409 0 
z
" id="ArialMT-6c" transform="scale(0.015625)"/>
       </defs>
       <use xlink:href="#ArialMT-4f"/>
       <use x="77.783203" xlink:href="#ArialMT-72"/>
       <use x="111.083984" xlink:href="#ArialMT-69"/>
       <use x="133.300781" xlink:href="#ArialMT-67"/>
       <use x="188.916016" xlink:href="#ArialMT-69"/>
       <use x="211.132812" xlink:href="#ArialMT-6e"/>
       <use x="266.748047" xlink:href="#ArialMT-61"/>
       <use x="322.363281" xlink:href="#ArialMT-6c"/>
      </g>
     </g>
    </g>
    <g id="xtick_2">
     <g id="text_2">
      <!-- Mutated -->
      <g style="fill:#262626;" transform="translate(106.870312 207.419375)rotate(-90)scale(0.2 -0.2)">
       <defs>
        <path d="M 475 0 
L 475 4581 
L 1388 4581 
L 2472 1338 
Q 2622 884 2691 659 
Q 2769 909 2934 1394 
L 4031 4581 
L 4847 4581 
L 4847 0 
L 4263 0 
L 4263 3834 
L 2931 0 
L 2384 0 
L 1059 3900 
L 1059 0 
L 475 0 
z
" id="ArialMT-4d" transform="scale(0.015625)"/>
        <path d="M 2597 0 
L 2597 488 
Q 2209 -75 1544 -75 
Q 1250 -75 995 37 
Q 741 150 617 320 
Q 494 491 444 738 
Q 409 903 409 1263 
L 409 3319 
L 972 3319 
L 972 1478 
Q 972 1038 1006 884 
Q 1059 663 1231 536 
Q 1403 409 1656 409 
Q 1909 409 2131 539 
Q 2353 669 2445 892 
Q 2538 1116 2538 1541 
L 2538 3319 
L 3100 3319 
L 3100 0 
L 2597 0 
z
" id="ArialMT-75" transform="scale(0.015625)"/>
        <path d="M 1650 503 
L 1731 6 
Q 1494 -44 1306 -44 
Q 1000 -44 831 53 
Q 663 150 594 308 
Q 525 466 525 972 
L 525 2881 
L 113 2881 
L 113 3319 
L 525 3319 
L 525 4141 
L 1084 4478 
L 1084 3319 
L 1650 3319 
L 1650 2881 
L 1084 2881 
L 1084 941 
Q 1084 700 1114 631 
Q 1144 563 1211 522 
Q 1278 481 1403 481 
Q 1497 481 1650 503 
z
" id="ArialMT-74" transform="scale(0.015625)"/>
        <path d="M 2694 1069 
L 3275 997 
Q 3138 488 2766 206 
Q 2394 -75 1816 -75 
Q 1088 -75 661 373 
Q 234 822 234 1631 
Q 234 2469 665 2931 
Q 1097 3394 1784 3394 
Q 2450 3394 2872 2941 
Q 3294 2488 3294 1666 
Q 3294 1616 3291 1516 
L 816 1516 
Q 847 969 1125 678 
Q 1403 388 1819 388 
Q 2128 388 2347 550 
Q 2566 713 2694 1069 
z
M 847 1978 
L 2700 1978 
Q 2663 2397 2488 2606 
Q 2219 2931 1791 2931 
Q 1403 2931 1139 2672 
Q 875 2413 847 1978 
z
" id="ArialMT-65" transform="scale(0.015625)"/>
        <path d="M 2575 0 
L 2575 419 
Q 2259 -75 1647 -75 
Q 1250 -75 917 144 
Q 584 363 401 755 
Q 219 1147 219 1656 
Q 219 2153 384 2558 
Q 550 2963 881 3178 
Q 1213 3394 1622 3394 
Q 1922 3394 2156 3267 
Q 2391 3141 2538 2938 
L 2538 4581 
L 3097 4581 
L 3097 0 
L 2575 0 
z
M 797 1656 
Q 797 1019 1065 703 
Q 1334 388 1700 388 
Q 2069 388 2326 689 
Q 2584 991 2584 1609 
Q 2584 2291 2321 2609 
Q 2059 2928 1675 2928 
Q 1300 2928 1048 2622 
Q 797 2316 797 1656 
z
" id="ArialMT-64" transform="scale(0.015625)"/>
       </defs>
       <use xlink:href="#ArialMT-4d"/>
       <use x="83.300781" xlink:href="#ArialMT-75"/>
       <use x="138.916016" xlink:href="#ArialMT-74"/>
       <use x="166.699219" xlink:href="#ArialMT-61"/>
       <use x="222.314453" xlink:href="#ArialMT-74"/>
       <use x="250.097656" xlink:href="#ArialMT-65"/>
       <use x="305.712891" xlink:href="#ArialMT-64"/>
      </g>
     </g>
    </g>
    <g id="text_3">
     <!-- Method -->
     <g style="fill:#262626;" transform="translate(40.448437 225.735)scale(0.2 -0.2)">
      <defs>
       <path d="M 422 0 
L 422 4581 
L 984 4581 
L 984 2938 
Q 1378 3394 1978 3394 
Q 2347 3394 2619 3248 
Q 2891 3103 3008 2847 
Q 3125 2591 3125 2103 
L 3125 0 
L 2563 0 
L 2563 2103 
Q 2563 2525 2380 2717 
Q 2197 2909 1863 2909 
Q 1613 2909 1392 2779 
Q 1172 2650 1078 2428 
Q 984 2206 984 1816 
L 984 0 
L 422 0 
z
" id="ArialMT-68" transform="scale(0.015625)"/>
       <path d="M 213 1659 
Q 213 2581 725 3025 
Q 1153 3394 1769 3394 
Q 2453 3394 2887 2945 
Q 3322 2497 3322 1706 
Q 3322 1066 3130 698 
Q 2938 331 2570 128 
Q 2203 -75 1769 -75 
Q 1072 -75 642 372 
Q 213 819 213 1659 
z
M 791 1659 
Q 791 1022 1069 705 
Q 1347 388 1769 388 
Q 2188 388 2466 706 
Q 2744 1025 2744 1678 
Q 2744 2294 2464 2611 
Q 2184 2928 1769 2928 
Q 1347 2928 1069 2612 
Q 791 2297 791 1659 
z
" id="ArialMT-6f" transform="scale(0.015625)"/>
      </defs>
      <use xlink:href="#ArialMT-4d"/>
      <use x="83.300781" xlink:href="#ArialMT-65"/>
      <use x="138.916016" xlink:href="#ArialMT-74"/>
      <use x="166.699219" xlink:href="#ArialMT-68"/>
      <use x="222.314453" xlink:href="#ArialMT-6f"/>
      <use x="277.929688" xlink:href="#ArialMT-64"/>
     </g>
    </g>
   </g>
   <g id="matplotlib.axis_2">
    <g id="ytick_1">
     <g id="text_4">
      <!-- 0 -->
      <g style="fill:#262626;" transform="translate(-0.121875 111.314393)scale(0.2 -0.2)">
       <defs>
        <path d="M 266 2259 
Q 266 3072 433 3567 
Q 600 4063 929 4331 
Q 1259 4600 1759 4600 
Q 2128 4600 2406 4451 
Q 2684 4303 2865 4023 
Q 3047 3744 3150 3342 
Q 3253 2941 3253 2259 
Q 3253 1453 3087 958 
Q 2922 463 2592 192 
Q 2263 -78 1759 -78 
Q 1097 -78 719 397 
Q 266 969 266 2259 
z
M 844 2259 
Q 844 1131 1108 757 
Q 1372 384 1759 384 
Q 2147 384 2411 759 
Q 2675 1134 2675 2259 
Q 2675 3391 2411 3762 
Q 2147 4134 1753 4134 
Q 1366 4134 1134 3806 
Q 844 3388 844 2259 
z
" id="ArialMT-30" transform="scale(0.015625)"/>
       </defs>
       <use xlink:href="#ArialMT-30"/>
      </g>
     </g>
    </g>
    <g id="ytick_2">
     <g id="text_5">
      <!-- 2 -->
      <g style="fill:#262626;" transform="translate(-0.121875 24.571341)scale(0.2 -0.2)">
       <defs>
        <path d="M 3222 541 
L 3222 0 
L 194 0 
Q 188 203 259 391 
Q 375 700 629 1000 
Q 884 1300 1366 1694 
Q 2113 2306 2375 2664 
Q 2638 3022 2638 3341 
Q 2638 3675 2398 3904 
Q 2159 4134 1775 4134 
Q 1369 4134 1125 3890 
Q 881 3647 878 3216 
L 300 3275 
Q 359 3922 746 4261 
Q 1134 4600 1788 4600 
Q 2447 4600 2831 4234 
Q 3216 3869 3216 3328 
Q 3216 3053 3103 2787 
Q 2991 2522 2730 2228 
Q 2469 1934 1863 1422 
Q 1356 997 1212 845 
Q 1069 694 975 541 
L 3222 541 
z
" id="ArialMT-32" transform="scale(0.015625)"/>
       </defs>
       <use xlink:href="#ArialMT-32"/>
      </g>
     </g>
    </g>
    <g id="text_6">
     <!-- Predictions -->
     <g style="fill:#262626;" transform="translate(-8.096875 122.185625)rotate(-90)scale(0.2 -0.2)">
      <defs>
       <path d="M 494 0 
L 494 4581 
L 2222 4581 
Q 2678 4581 2919 4538 
Q 3256 4481 3484 4323 
Q 3713 4166 3852 3881 
Q 3991 3597 3991 3256 
Q 3991 2672 3619 2267 
Q 3247 1863 2275 1863 
L 1100 1863 
L 1100 0 
L 494 0 
z
M 1100 2403 
L 2284 2403 
Q 2872 2403 3119 2622 
Q 3366 2841 3366 3238 
Q 3366 3525 3220 3729 
Q 3075 3934 2838 4000 
Q 2684 4041 2272 4041 
L 1100 4041 
L 1100 2403 
z
" id="ArialMT-50" transform="scale(0.015625)"/>
       <path d="M 2588 1216 
L 3141 1144 
Q 3050 572 2676 248 
Q 2303 -75 1759 -75 
Q 1078 -75 664 370 
Q 250 816 250 1647 
Q 250 2184 428 2587 
Q 606 2991 970 3192 
Q 1334 3394 1763 3394 
Q 2303 3394 2647 3120 
Q 2991 2847 3088 2344 
L 2541 2259 
Q 2463 2594 2264 2762 
Q 2066 2931 1784 2931 
Q 1359 2931 1093 2626 
Q 828 2322 828 1663 
Q 828 994 1084 691 
Q 1341 388 1753 388 
Q 2084 388 2306 591 
Q 2528 794 2588 1216 
z
" id="ArialMT-63" transform="scale(0.015625)"/>
       <path d="M 197 991 
L 753 1078 
Q 800 744 1014 566 
Q 1228 388 1613 388 
Q 2000 388 2187 545 
Q 2375 703 2375 916 
Q 2375 1106 2209 1216 
Q 2094 1291 1634 1406 
Q 1016 1563 777 1677 
Q 538 1791 414 1992 
Q 291 2194 291 2438 
Q 291 2659 392 2848 
Q 494 3038 669 3163 
Q 800 3259 1026 3326 
Q 1253 3394 1513 3394 
Q 1903 3394 2198 3281 
Q 2494 3169 2634 2976 
Q 2775 2784 2828 2463 
L 2278 2388 
Q 2241 2644 2061 2787 
Q 1881 2931 1553 2931 
Q 1166 2931 1000 2803 
Q 834 2675 834 2503 
Q 834 2394 903 2306 
Q 972 2216 1119 2156 
Q 1203 2125 1616 2013 
Q 2213 1853 2448 1751 
Q 2684 1650 2818 1456 
Q 2953 1263 2953 975 
Q 2953 694 2789 445 
Q 2625 197 2315 61 
Q 2006 -75 1616 -75 
Q 969 -75 630 194 
Q 291 463 197 991 
z
" id="ArialMT-73" transform="scale(0.015625)"/>
      </defs>
      <use xlink:href="#ArialMT-50"/>
      <use x="66.699219" xlink:href="#ArialMT-72"/>
      <use x="100" xlink:href="#ArialMT-65"/>
      <use x="155.615234" xlink:href="#ArialMT-64"/>
      <use x="211.230469" xlink:href="#ArialMT-69"/>
      <use x="233.447266" xlink:href="#ArialMT-63"/>
      <use x="283.447266" xlink:href="#ArialMT-74"/>
      <use x="311.230469" xlink:href="#ArialMT-69"/>
      <use x="333.447266" xlink:href="#ArialMT-6f"/>
      <use x="389.0625" xlink:href="#ArialMT-6e"/>
      <use x="444.677734" xlink:href="#ArialMT-73"/>
     </g>
    </g>
   </g>
   <g id="PolyCollection_1">
    <defs>
     <path d="M 46.26876 -23.316444 
L 45.53124 -23.316444 
L 45.343027 -23.633069 
L 45.079751 -23.949693 
L 44.721702 -24.266317 
L 44.248235 -24.582941 
L 43.639446 -24.899565 
L 42.878306 -25.216189 
L 41.953111 -25.532813 
L 40.860003 -25.849437 
L 39.605219 -26.166061 
L 38.206741 -26.482685 
L 36.695003 -26.799309 
L 35.112443 -27.115934 
L 33.511773 -27.432558 
L 31.953043 -27.749182 
L 30.499727 -28.065806 
L 29.214211 -28.38243 
L 28.153149 -28.699054 
L 27.363192 -29.015678 
L 26.877553 -29.332302 
L 26.713753 -29.648926 
L 26.872761 -29.96555 
L 27.339549 -30.282175 
L 28.084925 -30.598799 
L 29.068351 -30.915423 
L 30.241389 -31.232047 
L 31.551339 -31.548671 
L 32.944711 -31.865295 
L 34.370213 -32.181919 
L 35.78107 -32.498543 
L 37.136626 -32.815167 
L 38.403274 -33.131791 
L 39.554858 -33.448415 
L 40.572695 -33.76504 
L 41.445382 -34.081664 
L 42.168469 -34.398288 
L 42.74403 -34.714912 
L 43.180109 -35.031536 
L 43.489982 -35.34816 
L 43.691186 -35.664784 
L 43.804296 -35.981408 
L 43.851501 -36.298032 
L 43.855075 -36.614656 
L 43.835874 -36.93128 
L 43.812032 -37.247905 
L 43.797974 -37.564529 
L 43.803841 -37.881153 
L 43.835368 -38.197777 
L 43.894171 -38.514401 
L 43.978371 -38.831025 
L 44.083453 -39.147649 
L 44.203229 -39.464273 
L 44.33081 -39.780897 
L 44.459484 -40.097521 
L 44.58343 -40.414145 
L 44.698222 -40.73077 
L 44.801092 -41.047394 
L 44.890957 -41.364018 
L 44.968221 -41.680642 
L 45.034403 -41.997266 
L 45.091669 -42.31389 
L 45.142333 -42.630514 
L 45.188421 -42.947138 
L 45.231369 -43.263762 
L 45.271889 -43.580386 
L 45.310017 -43.897011 
L 45.34531 -44.213635 
L 45.377128 -44.530259 
L 45.404923 -44.846883 
L 45.428465 -45.163507 
L 45.447927 -45.480131 
L 45.46383 -45.796755 
L 45.476854 -46.113379 
L 45.487573 -46.430003 
L 45.496195 -46.746627 
L 45.502389 -47.063251 
L 45.505264 -47.379876 
L 45.503534 -47.6965 
L 45.49583 -48.013124 
L 45.481123 -48.329748 
L 45.459141 -48.646372 
L 45.430699 -48.962996 
L 45.397829 -49.27962 
L 45.363679 -49.596244 
L 45.332177 -49.912868 
L 45.307506 -50.229492 
L 45.293486 -50.546116 
L 45.292996 -50.862741 
L 45.307536 -51.179365 
L 45.337009 -51.495989 
L 45.379772 -51.812613 
L 45.432926 -52.129237 
L 45.492769 -52.445861 
L 45.555334 -52.762485 
L 45.616891 -53.079109 
L 45.67435 -53.395733 
L 45.725501 -53.712357 
L 45.769082 -54.028981 
L 45.804714 -54.345606 
L 45.832723 -54.66223 
L 45.967277 -54.66223 
L 45.967277 -54.66223 
L 45.995286 -54.345606 
L 46.030918 -54.028981 
L 46.074499 -53.712357 
L 46.12565 -53.395733 
L 46.183109 -53.079109 
L 46.244666 -52.762485 
L 46.307231 -52.445861 
L 46.367074 -52.129237 
L 46.420228 -51.812613 
L 46.462991 -51.495989 
L 46.492464 -51.179365 
L 46.507004 -50.862741 
L 46.506514 -50.546116 
L 46.492494 -50.229492 
L 46.467823 -49.912868 
L 46.436321 -49.596244 
L 46.402171 -49.27962 
L 46.369301 -48.962996 
L 46.340859 -48.646372 
L 46.318877 -48.329748 
L 46.30417 -48.013124 
L 46.296466 -47.6965 
L 46.294736 -47.379876 
L 46.297611 -47.063251 
L 46.303805 -46.746627 
L 46.312427 -46.430003 
L 46.323146 -46.113379 
L 46.33617 -45.796755 
L 46.352073 -45.480131 
L 46.371535 -45.163507 
L 46.395077 -44.846883 
L 46.422872 -44.530259 
L 46.45469 -44.213635 
L 46.489983 -43.897011 
L 46.528111 -43.580386 
L 46.568631 -43.263762 
L 46.611579 -42.947138 
L 46.657667 -42.630514 
L 46.708331 -42.31389 
L 46.765597 -41.997266 
L 46.831779 -41.680642 
L 46.909043 -41.364018 
L 46.998908 -41.047394 
L 47.101778 -40.73077 
L 47.21657 -40.414145 
L 47.340516 -40.097521 
L 47.46919 -39.780897 
L 47.596771 -39.464273 
L 47.716547 -39.147649 
L 47.821629 -38.831025 
L 47.905829 -38.514401 
L 47.964632 -38.197777 
L 47.996159 -37.881153 
L 48.002026 -37.564529 
L 47.987968 -37.247905 
L 47.964126 -36.93128 
L 47.944925 -36.614656 
L 47.948499 -36.298032 
L 47.995704 -35.981408 
L 48.108814 -35.664784 
L 48.310018 -35.34816 
L 48.619891 -35.031536 
L 49.05597 -34.714912 
L 49.631531 -34.398288 
L 50.354618 -34.081664 
L 51.227305 -33.76504 
L 52.245142 -33.448415 
L 53.396726 -33.131791 
L 54.663374 -32.815167 
L 56.01893 -32.498543 
L 57.429787 -32.181919 
L 58.855289 -31.865295 
L 60.248661 -31.548671 
L 61.558611 -31.232047 
L 62.731649 -30.915423 
L 63.715075 -30.598799 
L 64.460451 -30.282175 
L 64.927239 -29.96555 
L 65.086247 -29.648926 
L 64.922447 -29.332302 
L 64.436808 -29.015678 
L 63.646851 -28.699054 
L 62.585789 -28.38243 
L 61.300273 -28.065806 
L 59.846957 -27.749182 
L 58.288227 -27.432558 
L 56.687557 -27.115934 
L 55.104997 -26.799309 
L 53.593259 -26.482685 
L 52.194781 -26.166061 
L 50.939997 -25.849437 
L 49.846889 -25.532813 
L 48.921694 -25.216189 
L 48.160554 -24.899565 
L 47.551765 -24.582941 
L 47.078298 -24.266317 
L 46.720249 -23.949693 
L 46.456973 -23.633069 
L 46.26876 -23.316444 
z
" id="m63f7d47f82" style="stroke:#262626;stroke-width:0.75;"/>
    </defs>
    <g clip-path="url(#pc68c4603cc)">
     <use style="fill:#7f9dd2;stroke:#262626;stroke-width:0.75;" x="0" xlink:href="#m63f7d47f82" y="144"/>
    </g>
   </g>
   <g id="PolyCollection_2">
    <defs>
     <path d="M 101.700087 -20.88 
L 101.699913 -20.88 
L 101.698928 -21.898182 
L 101.690253 -22.916364 
L 101.625987 -23.934545 
L 101.236692 -24.952727 
L 99.609763 -25.970909 
L 95.279806 -26.989091 
L 88.148751 -28.007273 
L 81.219902 -29.025455 
L 79.38 -30.043636 
L 84.82459 -31.061818 
L 91.620241 -32.08 
L 95.161859 -33.098182 
L 96.923394 -34.116364 
L 97.930897 -35.134545 
L 98.570659 -36.152727 
L 99.067283 -37.170909 
L 99.503306 -38.189091 
L 99.919951 -39.207273 
L 100.225029 -40.225455 
L 100.473982 -41.243636 
L 100.690474 -42.261818 
L 100.831986 -43.28 
L 100.959844 -44.298182 
L 101.058481 -45.316364 
L 101.117462 -46.334545 
L 101.1612 -47.352727 
L 101.207693 -48.370909 
L 101.249123 -49.389091 
L 101.279278 -50.407273 
L 101.315673 -51.425455 
L 101.346998 -52.443636 
L 101.378108 -53.461818 
L 101.399357 -54.48 
L 101.42838 -55.498182 
L 101.453769 -56.516364 
L 101.474435 -57.534545 
L 101.494929 -58.552727 
L 101.505041 -59.570909 
L 101.51249 -60.589091 
L 101.524601 -61.607273 
L 101.531288 -62.625455 
L 101.539972 -63.643636 
L 101.551549 -64.661818 
L 101.552933 -65.68 
L 101.557668 -66.698182 
L 101.568663 -67.716364 
L 101.581622 -68.734545 
L 101.595376 -69.752727 
L 101.603177 -70.770909 
L 101.603005 -71.789091 
L 101.602811 -72.807273 
L 101.610467 -73.825455 
L 101.619807 -74.843636 
L 101.623249 -75.861818 
L 101.619569 -76.88 
L 101.620481 -77.898182 
L 101.625167 -78.916364 
L 101.633853 -79.934545 
L 101.634498 -80.952727 
L 101.64298 -81.970909 
L 101.650312 -82.989091 
L 101.65282 -84.007273 
L 101.650128 -85.025455 
L 101.649445 -86.043636 
L 101.658021 -87.061818 
L 101.664032 -88.08 
L 101.664891 -89.098182 
L 101.67159 -90.116364 
L 101.672698 -91.134545 
L 101.672557 -92.152727 
L 101.675955 -93.170909 
L 101.675816 -94.189091 
L 101.676527 -95.207273 
L 101.679371 -96.225455 
L 101.681754 -97.243636 
L 101.681615 -98.261818 
L 101.684024 -99.28 
L 101.685918 -100.298182 
L 101.686461 -101.316364 
L 101.688356 -102.334545 
L 101.690392 -103.352727 
L 101.693241 -104.370909 
L 101.693469 -105.389091 
L 101.692061 -106.407273 
L 101.694441 -107.425455 
L 101.695145 -108.443636 
L 101.69559 -109.461818 
L 101.697077 -110.48 
L 101.697961 -111.498182 
L 101.698282 -112.516364 
L 101.699216 -113.534545 
L 101.699902 -114.552727 
L 101.699997 -115.570909 
L 101.7 -116.589091 
L 101.699996 -117.607273 
L 101.6999 -118.625455 
L 101.69955 -119.643636 
L 101.699599 -120.661818 
L 101.699929 -121.68 
L 101.700071 -121.68 
L 101.700071 -121.68 
L 101.700401 -120.661818 
L 101.70045 -119.643636 
L 101.7001 -118.625455 
L 101.700004 -117.607273 
L 101.7 -116.589091 
L 101.700003 -115.570909 
L 101.700098 -114.552727 
L 101.700784 -113.534545 
L 101.701718 -112.516364 
L 101.702039 -111.498182 
L 101.702923 -110.48 
L 101.70441 -109.461818 
L 101.704855 -108.443636 
L 101.705559 -107.425455 
L 101.707939 -106.407273 
L 101.706531 -105.389091 
L 101.706759 -104.370909 
L 101.709608 -103.352727 
L 101.711644 -102.334545 
L 101.713539 -101.316364 
L 101.714082 -100.298182 
L 101.715976 -99.28 
L 101.718385 -98.261818 
L 101.718246 -97.243636 
L 101.720629 -96.225455 
L 101.723473 -95.207273 
L 101.724184 -94.189091 
L 101.724045 -93.170909 
L 101.727443 -92.152727 
L 101.727302 -91.134545 
L 101.72841 -90.116364 
L 101.735109 -89.098182 
L 101.735968 -88.08 
L 101.741979 -87.061818 
L 101.750555 -86.043636 
L 101.749872 -85.025455 
L 101.74718 -84.007273 
L 101.749688 -82.989091 
L 101.75702 -81.970909 
L 101.765502 -80.952727 
L 101.766147 -79.934545 
L 101.774833 -78.916364 
L 101.779519 -77.898182 
L 101.780431 -76.88 
L 101.776751 -75.861818 
L 101.780193 -74.843636 
L 101.789533 -73.825455 
L 101.797189 -72.807273 
L 101.796995 -71.789091 
L 101.796823 -70.770909 
L 101.804624 -69.752727 
L 101.818378 -68.734545 
L 101.831337 -67.716364 
L 101.842332 -66.698182 
L 101.847067 -65.68 
L 101.848451 -64.661818 
L 101.860028 -63.643636 
L 101.868712 -62.625455 
L 101.875399 -61.607273 
L 101.88751 -60.589091 
L 101.894959 -59.570909 
L 101.905071 -58.552727 
L 101.925565 -57.534545 
L 101.946231 -56.516364 
L 101.97162 -55.498182 
L 102.000643 -54.48 
L 102.021892 -53.461818 
L 102.053002 -52.443636 
L 102.084327 -51.425455 
L 102.120722 -50.407273 
L 102.150877 -49.389091 
L 102.192307 -48.370909 
L 102.2388 -47.352727 
L 102.282538 -46.334545 
L 102.341519 -45.316364 
L 102.440156 -44.298182 
L 102.568014 -43.28 
L 102.709526 -42.261818 
L 102.926018 -41.243636 
L 103.174971 -40.225455 
L 103.480049 -39.207273 
L 103.896694 -38.189091 
L 104.332717 -37.170909 
L 104.829341 -36.152727 
L 105.469103 -35.134545 
L 106.476606 -34.116364 
L 108.238141 -33.098182 
L 111.779759 -32.08 
L 118.57541 -31.061818 
L 124.02 -30.043636 
L 122.180098 -29.025455 
L 115.251249 -28.007273 
L 108.120194 -26.989091 
L 103.790237 -25.970909 
L 102.163308 -24.952727 
L 101.774013 -23.934545 
L 101.709747 -22.916364 
L 101.701072 -21.898182 
L 101.700087 -20.88 
z
" id="mc846edd35a" style="stroke:#262626;stroke-width:0.75;"/>
    </defs>
    <g clip-path="url(#pc68c4603cc)">
     <use style="fill:#1a1a66;stroke:#262626;stroke-width:0.75;" x="0" xlink:href="#mc846edd35a" y="144"/>
    </g>
   </g>
   <g id="line2d_1">
    <path clip-path="url(#pc68c4603cc)" d="M 45.9 117.068029 
L 45.9 110.330093 
" style="fill:none;stroke:#262626;stroke-linecap:round;stroke-width:0.75;"/>
   </g>
   <g id="line2d_2">
    <path clip-path="url(#pc68c4603cc)" d="M 45.9 115.141823 
L 45.9 112.485878 
" style="fill:none;stroke:#262626;stroke-linecap:round;stroke-width:2.25;"/>
   </g>
   <g id="line2d_3">
    <path clip-path="url(#pc68c4603cc)" d="M 101.7 120.688589 
L 101.7 104.107901 
" style="fill:none;stroke:#262626;stroke-linecap:round;stroke-width:0.75;"/>
   </g>
   <g id="line2d_4">
    <path clip-path="url(#pc68c4603cc)" d="M 101.7 114.872503 
L 101.7 110.566634 
" style="fill:none;stroke:#262626;stroke-linecap:round;stroke-width:2.25;"/>
   </g>
   <g id="patch_3">
    <path d="M 18 128.16 
L 18 17.28 
" style="fill:none;stroke:#262626;stroke-linecap:square;stroke-linejoin:miter;stroke-width:0.8;"/>
   </g>
   <g id="patch_4">
    <path d="M 18 128.16 
L 129.6 128.16 
" style="fill:none;stroke:#262626;stroke-linecap:square;stroke-linejoin:miter;stroke-width:0.8;"/>
   </g>
   <g id="PathCollection_1">
    <defs>
     <path d="M 0 0.75 
C 0.198902 0.75 0.389685 0.670975 0.53033 0.53033 
C 0.670975 0.389685 0.75 0.198902 0.75 0 
C 0.75 -0.198902 0.670975 -0.389685 0.53033 -0.53033 
C 0.389685 -0.670975 0.198902 -0.75 0 -0.75 
C -0.198902 -0.75 -0.389685 -0.670975 -0.53033 -0.53033 
C -0.670975 -0.389685 -0.75 -0.198902 -0.75 0 
C -0.75 0.198902 -0.670975 0.389685 -0.53033 0.53033 
C -0.389685 0.670975 -0.198902 0.75 0 0.75 
z
" id="ma87b2b3e01" style="stroke:#262626;"/>
    </defs>
    <g clip-path="url(#pc68c4603cc)">
     <use style="fill:#ffffff;stroke:#262626;" x="45.9" xlink:href="#ma87b2b3e01" y="114.074145"/>
    </g>
   </g>
   <g id="PathCollection_2">
    <g clip-path="url(#pc68c4603cc)">
     <use style="fill:#ffffff;stroke:#262626;" x="101.7" xlink:href="#ma87b2b3e01" y="113.520733"/>
    </g>
   </g>
   <g id="text_7">
    <!-- Bottom 10% -->
    <g style="fill:#262626;" transform="translate(8.435625 11.28)scale(0.24 -0.24)">
     <defs>
      <path d="M 469 0 
L 469 4581 
L 2188 4581 
Q 2713 4581 3030 4442 
Q 3347 4303 3526 4014 
Q 3706 3725 3706 3409 
Q 3706 3116 3547 2856 
Q 3388 2597 3066 2438 
Q 3481 2316 3704 2022 
Q 3928 1728 3928 1328 
Q 3928 1006 3792 729 
Q 3656 453 3456 303 
Q 3256 153 2954 76 
Q 2653 0 2216 0 
L 469 0 
z
M 1075 2656 
L 2066 2656 
Q 2469 2656 2644 2709 
Q 2875 2778 2992 2937 
Q 3109 3097 3109 3338 
Q 3109 3566 3000 3739 
Q 2891 3913 2687 3977 
Q 2484 4041 1991 4041 
L 1075 4041 
L 1075 2656 
z
M 1075 541 
L 2216 541 
Q 2509 541 2628 563 
Q 2838 600 2978 687 
Q 3119 775 3209 942 
Q 3300 1109 3300 1328 
Q 3300 1584 3169 1773 
Q 3038 1963 2805 2039 
Q 2572 2116 2134 2116 
L 1075 2116 
L 1075 541 
z
" id="ArialMT-42" transform="scale(0.015625)"/>
      <path d="M 422 0 
L 422 3319 
L 925 3319 
L 925 2853 
Q 1081 3097 1340 3245 
Q 1600 3394 1931 3394 
Q 2300 3394 2536 3241 
Q 2772 3088 2869 2813 
Q 3263 3394 3894 3394 
Q 4388 3394 4653 3120 
Q 4919 2847 4919 2278 
L 4919 0 
L 4359 0 
L 4359 2091 
Q 4359 2428 4304 2576 
Q 4250 2725 4106 2815 
Q 3963 2906 3769 2906 
Q 3419 2906 3187 2673 
Q 2956 2441 2956 1928 
L 2956 0 
L 2394 0 
L 2394 2156 
Q 2394 2531 2256 2718 
Q 2119 2906 1806 2906 
Q 1569 2906 1367 2781 
Q 1166 2656 1075 2415 
Q 984 2175 984 1722 
L 984 0 
L 422 0 
z
" id="ArialMT-6d" transform="scale(0.015625)"/>
      <path id="ArialMT-20" transform="scale(0.015625)"/>
      <path d="M 2384 0 
L 1822 0 
L 1822 3584 
Q 1619 3391 1289 3197 
Q 959 3003 697 2906 
L 697 3450 
Q 1169 3672 1522 3987 
Q 1875 4303 2022 4600 
L 2384 4600 
L 2384 0 
z
" id="ArialMT-31" transform="scale(0.015625)"/>
      <path d="M 372 3481 
Q 372 3972 619 4315 
Q 866 4659 1334 4659 
Q 1766 4659 2048 4351 
Q 2331 4044 2331 3447 
Q 2331 2866 2045 2552 
Q 1759 2238 1341 2238 
Q 925 2238 648 2547 
Q 372 2856 372 3481 
z
M 1350 4272 
Q 1141 4272 1002 4090 
Q 863 3909 863 3425 
Q 863 2984 1003 2804 
Q 1144 2625 1350 2625 
Q 1563 2625 1702 2806 
Q 1841 2988 1841 3469 
Q 1841 3913 1700 4092 
Q 1559 4272 1350 4272 
z
M 1353 -169 
L 3859 4659 
L 4316 4659 
L 1819 -169 
L 1353 -169 
z
M 3334 1075 
Q 3334 1569 3581 1911 
Q 3828 2253 4300 2253 
Q 4731 2253 5014 1945 
Q 5297 1638 5297 1041 
Q 5297 459 5011 145 
Q 4725 -169 4303 -169 
Q 3888 -169 3611 142 
Q 3334 453 3334 1075 
z
M 4316 1866 
Q 4103 1866 3964 1684 
Q 3825 1503 3825 1019 
Q 3825 581 3965 400 
Q 4106 219 4313 219 
Q 4528 219 4667 400 
Q 4806 581 4806 1063 
Q 4806 1506 4665 1686 
Q 4525 1866 4316 1866 
z
" id="ArialMT-25" transform="scale(0.015625)"/>
     </defs>
     <use xlink:href="#ArialMT-42"/>
     <use x="66.699219" xlink:href="#ArialMT-6f"/>
     <use x="122.314453" xlink:href="#ArialMT-74"/>
     <use x="150.097656" xlink:href="#ArialMT-74"/>
     <use x="177.880859" xlink:href="#ArialMT-6f"/>
     <use x="233.496094" xlink:href="#ArialMT-6d"/>
     <use x="316.796875" xlink:href="#ArialMT-20"/>
     <use x="344.580078" xlink:href="#ArialMT-31"/>
     <use x="400.195312" xlink:href="#ArialMT-30"/>
     <use x="455.810547" xlink:href="#ArialMT-25"/>
    </g>
   </g>
  </g>
 </g>
 <defs>
  <clipPath id="pc68c4603cc">
   <rect height="110.88" width="111.6" x="18" y="17.28"/>
  </clipPath>
 </defs>
</svg>
