<?xml version="1.0" encoding="utf-8" standalone="no"?>
<!DOCTYPE svg PUBLIC "-//W3C//DTD SVG 1.1//EN"
  "http://www.w3.org/Graphics/SVG/1.1/DTD/svg11.dtd">
<svg height="216pt" version="1.1" viewBox="0 0 306 216" width="306pt" xmlns="http://www.w3.org/2000/svg" xmlns:xlink="http://www.w3.org/1999/xlink">
 <metadata>
  <rdf:RDF xmlns:cc="http://creativecommons.org/ns#" xmlns:dc="http://purl.org/dc/elements/1.1/" xmlns:rdf="http://www.w3.org/1999/02/22-rdf-syntax-ns#">
   <cc:Work>
    <dc:type rdf:resource="http://purl.org/dc/dcmitype/StillImage"/>
    <dc:date>2022-12-28T10:09:11.810564</dc:date>
    <dc:format>image/svg+xml</dc:format>
    <dc:creator>
     <cc:Agent>
      <dc:title>Matplotlib v3.4.2, https://matplotlib.org/</dc:title>
     </cc:Agent>
    </dc:creator>
   </cc:Work>
  </rdf:RDF>
 </metadata>
 <defs>
  <style type="text/css">*{stroke-linecap:butt;stroke-linejoin:round;}</style>
 </defs>
 <g id="figure_1">
  <g id="patch_1">
   <path d="M 0 216 
L 306 216 
L 306 0 
L 0 0 
z
" style="fill:#ffffff;"/>
  </g>
  <g id="axes_1">
   <g id="patch_2">
    <path d="M 94.94 141.64 
L 284.4 141.64 
L 284.4 28.8 
L 94.94 28.8 
z
" style="fill:#ffffff;"/>
   </g>
   <g id="line2d_1">
    <path clip-path="url(#p3a781856cc)" d="M 94.94 141.64 
L 284.4 141.64 
" style="fill:none;stroke:#000000;stroke-linecap:round;stroke-width:0.5;"/>
   </g>
   <g id="patch_3">
    <path clip-path="url(#p3a781856cc)" d="M 100.416455 120.145428 
Q 102.054581 120.145428 103.249628 121.257753 
Q 104.981434 122.855052 105.368811 126.859423 
L 103.811705 126.859423 
Q 103.525603 124.621425 102.63185 123.598085 
Q 101.738096 122.574746 100.375945 122.574746 
Q 98.763138 122.574746 97.659238 124.705961 
Q 96.555339 126.832727 96.555339 131.046215 
Q 96.555339 134.685743 97.464284 136.972684 
Q 98.37576 139.259624 100.431646 139.259624 
Q 102.006475 139.259624 103.039482 137.657876 
Q 104.072489 136.051678 104.095276 132.461093 
L 100.456965 132.461093 
L 100.456965 130.169703 
L 105.558702 130.169703 
L 105.558702 141.097185 
L 104.54595 141.097185 
L 104.166168 138.467649 
Q 103.368626 140.011556 102.750848 140.612212 
Q 101.712777 141.64 100.115161 141.64 
Q 98.05168 141.64 96.562935 139.290769 
Q 94.94 136.340883 94.94 131.197491 
Q 94.94 126.067447 96.522425 123.037474 
Q 98.026361 120.145428 100.416455 120.145428 
z
M 100.155671 120.114283 
L 100.155671 120.114283 
z
" style="fill:#ffa600;"/>
   </g>
   <g id="patch_4">
    <path clip-path="url(#p3a781856cc)" d="M 105.558702 92.858044 
L 105.558702 96.10552 
L 101.148734 96.10552 
L 101.148734 120.114283 
L 99.349968 120.114283 
L 99.349968 96.10552 
L 94.94 96.10552 
L 94.94 92.858044 
L 105.558702 92.858044 
z
" style="fill:#ff0000;"/>
   </g>
   <g id="patch_5">
    <path clip-path="url(#p3a781856cc)" d="M 100.523163 64.646717 
Q 102.797109 64.646717 104.051431 67.330732 
Q 105.305752 70.008911 105.443962 73.416443 
L 103.863673 73.416443 
Q 103.595077 70.83162 102.791894 69.320403 
Q 101.988711 67.803351 100.53881 67.803351 
Q 98.770765 67.803351 97.683339 70.586558 
Q 96.595913 73.363929 96.595913 79.105387 
Q 96.595913 83.814082 97.576421 86.743158 
Q 98.559538 89.6664 100.507517 89.6664 
Q 102.299032 89.6664 103.237817 86.585618 
Q 103.733287 84.96354 103.978414 82.314534 
L 105.558702 82.314534 
Q 105.347475 86.544775 104.158348 89.409668 
Q 102.731916 92.858044 100.311937 92.858044 
Q 98.225748 92.858044 96.807139 90.028159 
Q 94.94 86.293878 94.94 78.486896 
Q 94.94 72.56456 96.342962 68.771931 
Q 97.858057 64.646717 100.523163 64.646717 
z
M 100.197196 64.646717 
L 100.197196 64.646717 
z
" style="fill:#0000ff;"/>
   </g>
   <g id="patch_6">
    <path clip-path="url(#p3a781856cc)" d="M 102.067515 49.959792 
L 100.261014 34.125084 
L 98.340473 49.959792 
L 102.067515 49.959792 
z
M 99.418672 28.8 
L 101.240724 28.8 
L 105.558702 64.646717 
L 103.791078 64.646717 
L 102.58588 53.91066 
L 97.879128 53.91066 
L 96.590992 64.646717 
L 94.94 64.646717 
L 99.418672 28.8 
z
M 100.253239 28.8 
L 100.253239 28.8 
z
" style="fill:#008000;"/>
   </g>
   <g id="patch_7">
    <path clip-path="url(#p3a781856cc)" d="M 116.736283 120.114283 
L 116.736283 122.678989 
L 112.326315 122.678989 
L 112.326315 141.64 
L 110.527549 141.64 
L 110.527549 122.678989 
L 106.117581 122.678989 
L 106.117581 120.114283 
L 116.736283 120.114283 
z
" style="fill:#ff0000;"/>
   </g>
   <g id="patch_8">
    <path clip-path="url(#p3a781856cc)" d="M 111.594036 94.80754 
Q 113.232162 94.80754 114.427209 96.117141 
Q 116.159015 97.997729 116.546392 102.712295 
L 114.989286 102.712295 
Q 114.703184 100.077377 113.809431 98.872543 
Q 112.915677 97.66771 111.553526 97.66771 
Q 109.940719 97.66771 108.83682 100.176907 
Q 107.73292 102.680865 107.73292 107.641636 
Q 107.73292 111.926653 108.641865 114.619194 
Q 109.553341 117.311735 111.609227 117.311735 
Q 113.184056 117.311735 114.217063 115.425909 
Q 115.25007 113.534844 115.272857 109.30745 
L 111.634546 109.30745 
L 111.634546 106.60967 
L 116.736283 106.60967 
L 116.736283 119.475197 
L 115.723531 119.475197 
L 115.34375 116.379299 
Q 114.546208 118.197026 113.928429 118.904211 
Q 112.890358 120.114283 111.292743 120.114283 
Q 109.229261 120.114283 107.740516 117.348404 
Q 106.117581 113.87534 106.117581 107.819742 
Q 106.117581 101.779859 107.700006 98.212504 
Q 109.203942 94.80754 111.594036 94.80754 
z
M 111.333253 94.770871 
L 111.333253 94.770871 
z
" style="fill:#ffa600;"/>
   </g>
   <g id="patch_9">
    <path clip-path="url(#p3a781856cc)" d="M 111.700744 61.786762 
Q 113.97469 61.786762 115.229012 64.924857 
Q 116.483333 68.05613 116.621543 72.040147 
L 115.041255 72.040147 
Q 114.772658 69.018025 113.969475 67.251141 
Q 113.166292 65.477435 111.716391 65.477435 
Q 109.948346 65.477435 108.86092 68.731503 
Q 107.773494 71.978749 107.773494 78.691544 
Q 107.773494 84.196854 108.754002 87.621471 
Q 109.737119 91.039266 111.685098 91.039266 
Q 113.476613 91.039266 114.415398 87.437279 
Q 114.910868 85.540778 115.155995 82.443614 
L 116.736283 82.443614 
Q 116.525057 87.389525 115.335929 90.739101 
Q 113.909497 94.770871 111.489518 94.770871 
Q 109.403329 94.770871 107.98472 91.462227 
Q 106.117581 87.096181 106.117581 77.968418 
Q 106.117581 71.044143 107.520543 66.609878 
Q 109.035638 61.786762 111.700744 61.786762 
z
M 111.374777 61.786762 
L 111.374777 61.786762 
z
" style="fill:#0000ff;"/>
   </g>
   <g id="patch_10">
    <path clip-path="url(#p3a781856cc)" d="M 113.245097 48.271602 
L 111.438595 33.700233 
L 109.518054 48.271602 
L 113.245097 48.271602 
z
M 110.596253 28.8 
L 112.418305 28.8 
L 116.736283 61.786762 
L 114.968659 61.786762 
L 113.763461 51.907259 
L 109.056709 51.907259 
L 107.768573 61.786762 
L 106.117581 61.786762 
L 110.596253 28.8 
z
M 111.43082 28.8 
L 111.43082 28.8 
z
" style="fill:#008000;"/>
   </g>
   <g id="patch_11">
    <path clip-path="url(#p3a781856cc)" d="M 122.771617 118.238018 
Q 124.409743 118.238018 125.60479 119.44905 
Q 127.336596 121.188092 127.723973 125.547807 
L 126.166868 125.547807 
Q 125.880765 123.11121 124.987012 121.997061 
Q 124.093258 120.882912 122.731107 120.882912 
Q 121.1183 120.882912 120.014401 123.203249 
Q 118.910501 125.518742 118.910501 130.106131 
Q 118.910501 134.068628 119.819446 136.55851 
Q 120.730923 139.048392 122.786809 139.048392 
Q 124.361638 139.048392 125.394644 137.304505 
Q 126.427651 135.555775 126.450438 131.646564 
L 122.812127 131.646564 
L 122.812127 129.151838 
L 127.913864 129.151838 
L 127.913864 141.049016 
L 126.901113 141.049016 
L 126.521331 138.186137 
Q 125.723789 139.867049 125.10601 140.521006 
Q 124.06794 141.64 122.470324 141.64 
Q 120.406842 141.64 118.918097 139.0823 
Q 117.295162 135.870644 117.295162 130.270832 
Q 117.295162 124.685552 118.877587 121.386701 
Q 120.381523 118.238018 122.771617 118.238018 
z
M 122.510834 118.204109 
L 122.510834 118.204109 
z
" style="fill:#ffa600;"/>
   </g>
   <g id="patch_12">
    <path clip-path="url(#p3a781856cc)" d="M 127.913864 94.768218 
L 127.913864 97.560514 
L 123.503896 97.560514 
L 123.503896 118.204109 
L 121.705131 118.204109 
L 121.705131 97.560514 
L 117.295162 97.560514 
L 117.295162 94.768218 
L 127.913864 94.768218 
z
" style="fill:#ff0000;"/>
   </g>
   <g id="patch_13">
    <path clip-path="url(#p3a781856cc)" d="M 122.878326 66.562197 
Q 125.152272 66.562197 126.406593 69.245707 
Q 127.660914 71.923383 127.799124 75.330273 
L 126.218836 75.330273 
Q 125.950239 72.745937 125.147056 71.235004 
Q 124.343873 69.718238 122.893972 69.718238 
Q 121.125927 69.718238 120.038501 72.500921 
Q 118.951075 75.27777 118.951075 81.018147 
Q 118.951075 85.725957 119.931584 88.654483 
Q 120.9147 91.577175 122.862679 91.577175 
Q 124.654194 91.577175 125.592979 88.496972 
Q 126.088449 86.875199 126.333576 84.226692 
L 127.913864 84.226692 
Q 127.702638 88.456136 126.51351 91.320491 
Q 125.087078 94.768218 122.667099 94.768218 
Q 120.58091 94.768218 119.162301 91.938865 
Q 117.295162 88.205286 117.295162 80.399773 
Q 117.295162 74.478551 118.698124 70.686635 
Q 120.213219 66.562197 122.878326 66.562197 
z
M 122.552359 66.562197 
L 122.552359 66.562197 
z
" style="fill:#0000ff;"/>
   </g>
   <g id="patch_14">
    <path clip-path="url(#p3a781856cc)" d="M 124.422678 51.090471 
L 122.616176 34.409632 
L 120.695635 51.090471 
L 124.422678 51.090471 
z
M 121.773834 28.8 
L 123.595886 28.8 
L 127.913864 66.562197 
L 126.14624 66.562197 
L 124.941042 55.252456 
L 120.23429 55.252456 
L 118.946154 66.562197 
L 117.295162 66.562197 
L 121.773834 28.8 
z
M 122.608401 28.8 
L 122.608401 28.8 
z
" style="fill:#008000;"/>
   </g>
   <g id="patch_15">
    <path clip-path="url(#p3a781856cc)" d="M 139.091445 124.889718 
L 139.091445 126.88545 
L 134.681477 126.88545 
L 134.681477 141.64 
L 132.882712 141.64 
L 132.882712 126.88545 
L 128.472743 126.88545 
L 128.472743 124.889718 
L 139.091445 124.889718 
z
" style="fill:#ff0000;"/>
   </g>
   <g id="patch_16">
    <path clip-path="url(#p3a781856cc)" d="M 133.949198 98.626621 
Q 135.587324 98.626621 136.782371 99.985713 
Q 138.514177 101.937369 138.901554 106.830101 
L 137.344449 106.830101 
Q 137.058346 104.095608 136.164593 102.845243 
Q 135.270839 101.594878 133.908688 101.594878 
Q 132.295881 101.594878 131.191982 104.198899 
Q 130.088082 106.797483 130.088082 111.945724 
Q 130.088082 116.392674 130.997027 119.186967 
Q 131.908504 121.981261 133.96439 121.981261 
Q 135.539219 121.981261 136.572225 120.024168 
Q 137.605232 118.061639 137.628019 113.674489 
L 133.989709 113.674489 
L 133.989709 110.87476 
L 139.091445 110.87476 
L 139.091445 124.226481 
L 138.078694 124.226481 
L 137.698912 121.013587 
Q 136.90137 122.900007 136.283591 123.633917 
Q 135.245521 124.889718 133.647905 124.889718 
Q 131.584423 124.889718 130.095678 122.019316 
Q 128.472743 118.415003 128.472743 112.130561 
Q 128.472743 105.862427 130.055168 102.16026 
Q 131.559104 98.626621 133.949198 98.626621 
z
M 133.688415 98.588566 
L 133.688415 98.588566 
z
" style="fill:#ffa600;"/>
   </g>
   <g id="patch_17">
    <path clip-path="url(#p3a781856cc)" d="M 134.055907 67.511978 
Q 136.329853 67.511978 137.584174 70.468593 
Q 138.838495 73.41878 138.976705 77.172394 
L 137.396417 77.172394 
Q 137.12782 74.325046 136.324637 72.660344 
Q 135.521454 70.989214 134.071553 70.989214 
Q 132.303508 70.989214 131.216082 74.055094 
Q 130.128656 77.114547 130.128656 83.439131 
Q 130.128656 88.626061 131.109165 91.852627 
Q 132.092281 95.072766 134.04026 95.072766 
Q 135.831775 95.072766 136.77056 91.679087 
Q 137.26603 89.892263 137.511157 86.974214 
L 139.091445 86.974214 
Q 138.880219 91.634095 137.691091 94.789959 
Q 136.264659 98.588566 133.84468 98.588566 
Q 131.758491 98.588566 130.339883 95.471266 
Q 128.472743 91.357716 128.472743 82.757824 
Q 128.472743 76.233991 129.875705 72.056166 
Q 131.3908 67.511978 134.055907 67.511978 
z
M 133.72994 67.511978 
L 133.72994 67.511978 
z
" style="fill:#0000ff;"/>
   </g>
   <g id="patch_18">
    <path clip-path="url(#p3a781856cc)" d="M 135.600259 51.651113 
L 133.793758 34.550723 
L 131.873216 51.651113 
L 135.600259 51.651113 
z
M 132.951415 28.8 
L 134.773467 28.8 
L 139.091445 67.511978 
L 137.323822 67.511978 
L 136.118624 55.917779 
L 131.411872 55.917779 
L 130.123735 67.511978 
L 128.472743 67.511978 
L 132.951415 28.8 
z
M 133.785982 28.8 
L 133.785982 28.8 
z
" style="fill:#008000;"/>
   </g>
   <g id="patch_19">
    <path clip-path="url(#p3a781856cc)" d="M 145.233488 115.338848 
Q 147.507434 115.338848 148.761755 117.841129 
Q 150.016076 120.33797 150.154286 123.51478 
L 148.573998 123.51478 
Q 148.305401 121.104974 147.502218 119.696081 
Q 146.699036 118.281748 145.249134 118.281748 
Q 143.481089 118.281748 142.393663 120.876505 
Q 141.306237 123.465822 141.306237 128.818528 
Q 141.306237 133.2084 142.286746 135.93915 
Q 143.269862 138.664461 145.217841 138.664461 
Q 147.009356 138.664461 147.948141 135.792277 
Q 148.443611 134.280029 148.688738 131.810386 
L 150.269027 131.810386 
Q 150.0578 135.754199 148.868672 138.425113 
Q 147.44224 141.64 145.022261 141.64 
Q 142.936072 141.64 141.517464 139.001725 
Q 139.650324 135.52029 139.650324 128.241916 
Q 139.650324 122.720577 141.053287 119.184745 
Q 142.568381 115.338848 145.233488 115.338848 
z
M 144.907521 115.338848 
L 144.907521 115.338848 
z
" style="fill:#0000ff;"/>
   </g>
   <g id="patch_20">
    <path clip-path="url(#p3a781856cc)" d="M 146.77784 103.780254 
L 144.971339 91.318356 
L 143.050797 103.780254 
L 146.77784 103.780254 
z
M 144.128996 87.127521 
L 145.951048 87.127521 
L 150.269027 115.338848 
L 148.501403 115.338848 
L 147.296205 106.889583 
L 142.589453 106.889583 
L 141.301316 115.338848 
L 139.650324 115.338848 
L 144.128996 87.127521 
z
M 144.963563 87.127521 
L 144.963563 87.127521 
z
" style="fill:#008000;"/>
   </g>
   <g id="patch_21">
    <path clip-path="url(#p3a781856cc)" d="M 150.269027 58.916195 
L 150.269027 62.277466 
L 145.859058 62.277466 
L 145.859058 87.127521 
L 144.060293 87.127521 
L 144.060293 62.277466 
L 139.650324 62.277466 
L 139.650324 58.916195 
L 150.269027 58.916195 
z
" style="fill:#ff0000;"/>
   </g>
   <g id="patch_22">
    <path clip-path="url(#p3a781856cc)" d="M 145.12678 28.843574 
Q 146.764906 28.843574 147.959953 30.399806 
Q 149.691758 32.634555 150.079136 38.236989 
L 148.52203 38.236989 
Q 148.235927 35.105851 147.342174 33.674117 
Q 146.448421 32.242384 145.086269 32.242384 
Q 143.473462 32.242384 142.369563 35.224124 
Q 141.265664 38.199639 141.265664 44.094645 
Q 141.265664 49.186634 142.174608 52.386247 
Q 143.086085 55.585859 145.141971 55.585859 
Q 146.7168 55.585859 147.749807 53.344885 
Q 148.782813 51.097687 148.8056 46.074171 
L 145.16729 46.074171 
L 145.16729 42.868334 
L 150.269027 42.868334 
L 150.269027 58.156754 
L 149.256275 58.156754 
L 148.876493 54.477822 
Q 148.078951 56.637871 147.461172 57.478237 
Q 146.423102 58.916195 144.825486 58.916195 
Q 142.762004 58.916195 141.273259 55.629433 
Q 139.650324 51.502307 139.650324 44.306292 
Q 139.650324 37.128952 141.232749 32.889777 
Q 142.736685 28.843574 145.12678 28.843574 
z
M 144.865996 28.8 
L 144.865996 28.8 
z
" style="fill:#ffa600;"/>
   </g>
   <g id="patch_23">
    <path clip-path="url(#p3a781856cc)" d="M 156.304361 126.821364 
Q 157.942487 126.821364 159.137534 127.588216 
Q 160.869339 128.689414 161.256717 131.450079 
L 159.699611 131.450079 
Q 159.413509 129.907174 158.519755 129.201671 
Q 157.626002 128.496168 156.263851 128.496168 
Q 154.651043 128.496168 153.547144 129.965455 
Q 152.443245 131.431675 152.443245 134.336508 
Q 152.443245 136.845645 153.352189 138.422292 
Q 154.263666 139.998938 156.319552 139.998938 
Q 157.894381 139.998938 158.927388 138.894672 
Q 159.960394 137.787339 159.983181 135.311943 
L 156.344871 135.311943 
L 156.344871 133.732229 
L 161.446608 133.732229 
L 161.446608 141.265777 
L 160.433856 141.265777 
L 160.054074 139.45294 
Q 159.256532 140.51733 158.638753 140.931429 
Q 157.600683 141.64 156.003067 141.64 
Q 153.939585 141.64 152.45084 140.02041 
Q 150.827906 137.98672 150.827906 134.440799 
Q 150.827906 130.904081 152.41033 128.815178 
Q 153.914267 126.821364 156.304361 126.821364 
z
M 156.043577 126.799892 
L 156.043577 126.799892 
z
" style="fill:#ffa600;"/>
   </g>
   <g id="patch_24">
    <path clip-path="url(#p3a781856cc)" d="M 156.411069 105.274175 
Q 158.685015 105.274175 159.939336 107.322124 
Q 161.193657 109.36562 161.331867 111.965624 
L 159.751579 111.965624 
Q 159.482982 109.993361 158.679799 108.840277 
Q 157.876617 107.682741 156.426715 107.682741 
Q 154.65867 107.682741 153.571244 109.806374 
Q 152.483818 111.925555 152.483818 116.306384 
Q 152.483818 119.899197 153.464327 122.134132 
Q 154.447444 124.364615 156.395423 124.364615 
Q 158.186937 124.364615 159.125722 122.013926 
Q 159.621192 120.776253 159.866319 118.755017 
L 161.446608 118.755017 
Q 161.235381 121.982762 160.046253 124.168724 
Q 158.619822 126.799892 156.199842 126.799892 
Q 154.113653 126.799892 152.695045 124.640643 
Q 150.827906 121.791323 150.827906 115.834465 
Q 150.827906 111.315623 152.230868 108.421783 
Q 153.745962 105.274175 156.411069 105.274175 
z
M 156.085102 105.274175 
L 156.085102 105.274175 
z
" style="fill:#0000ff;"/>
   </g>
   <g id="patch_25">
    <path clip-path="url(#p3a781856cc)" d="M 161.446608 76.107762 
L 161.446608 79.582828 
L 157.036639 79.582828 
L 157.036639 105.274175 
L 155.237874 105.274175 
L 155.237874 79.582828 
L 150.827906 79.582828 
L 150.827906 76.107762 
L 161.446608 76.107762 
z
" style="fill:#ff0000;"/>
   </g>
   <g id="patch_26">
    <path clip-path="url(#p3a781856cc)" d="M 157.955421 56.725078 
L 156.14892 35.82764 
L 154.228378 56.725078 
L 157.955421 56.725078 
z
M 155.306577 28.8 
L 157.128629 28.8 
L 161.446608 76.107762 
L 159.678984 76.107762 
L 158.473786 61.939134 
L 153.767034 61.939134 
L 152.478897 76.107762 
L 150.827906 76.107762 
L 155.306577 28.8 
z
M 156.141144 28.8 
L 156.141144 28.8 
z
" style="fill:#008000;"/>
   </g>
   <g id="patch_27">
    <path clip-path="url(#p3a781856cc)" d="M 172.624189 120.114283 
L 172.624189 122.678989 
L 168.21422 122.678989 
L 168.21422 141.64 
L 166.415455 141.64 
L 166.415455 122.678989 
L 162.005487 122.678989 
L 162.005487 120.114283 
L 172.624189 120.114283 
z
" style="fill:#ff0000;"/>
   </g>
   <g id="patch_28">
    <path clip-path="url(#p3a781856cc)" d="M 167.481942 91.943775 
Q 169.120068 91.943775 170.315115 93.401574 
Q 172.04692 95.494973 172.434298 100.74305 
L 170.877192 100.74305 
Q 170.59109 97.809958 169.697336 96.468783 
Q 168.803583 95.127608 167.441432 95.127608 
Q 165.828625 95.127608 164.724725 97.920751 
Q 163.620826 100.708063 163.620826 106.230205 
Q 163.620826 111.000124 164.52977 113.997358 
Q 165.441247 116.994593 167.497133 116.994593 
Q 169.071962 116.994593 170.104969 114.895363 
Q 171.137976 112.790301 171.160763 108.084526 
L 167.522452 108.084526 
L 167.522452 105.08146 
L 172.624189 105.08146 
L 172.624189 119.402877 
L 171.611437 119.402877 
L 171.231655 115.95664 
Q 170.434113 117.980065 169.816335 118.767277 
Q 168.778264 120.114283 167.180648 120.114283 
Q 165.117166 120.114283 163.628421 117.035411 
Q 162.005487 113.169328 162.005487 106.428466 
Q 162.005487 99.705097 163.587911 95.734052 
Q 165.091848 91.943775 167.481942 91.943775 
z
M 167.221158 91.902956 
L 167.221158 91.902956 
z
" style="fill:#ffa600;"/>
   </g>
   <g id="patch_29">
    <path clip-path="url(#p3a781856cc)" d="M 167.58865 61.781456 
Q 169.862596 61.781456 171.116917 64.647204 
Q 172.371238 67.506721 172.509448 71.144975 
L 170.92916 71.144975 
Q 170.660563 68.385135 169.857381 66.771595 
Q 169.054198 65.151824 167.604296 65.151824 
Q 165.836251 65.151824 164.748825 68.12348 
Q 163.661399 71.088906 163.661399 77.219114 
Q 163.661399 82.246633 164.641908 85.374036 
Q 165.625025 88.495209 167.573004 88.495209 
Q 169.364518 88.495209 170.303304 85.205829 
Q 170.798773 83.47392 171.043901 80.645552 
L 172.624189 80.645552 
Q 172.412962 85.162219 171.223834 88.221094 
Q 169.797403 91.902956 167.377423 91.902956 
Q 165.291234 91.902956 163.872626 88.881462 
Q 162.005487 84.894334 162.005487 76.558746 
Q 162.005487 70.235412 163.408449 66.185985 
Q 164.923544 61.781456 167.58865 61.781456 
z
M 167.262683 61.781456 
L 167.262683 61.781456 
z
" style="fill:#0000ff;"/>
   </g>
   <g id="patch_30">
    <path clip-path="url(#p3a781856cc)" d="M 169.133002 48.26847 
L 167.326501 33.699445 
L 165.40596 48.26847 
L 169.133002 48.26847 
z
M 166.484158 28.8 
L 168.30621 28.8 
L 172.624189 61.781456 
L 170.856565 61.781456 
L 169.651367 51.903542 
L 164.944615 51.903542 
L 163.656478 61.781456 
L 162.005487 61.781456 
L 166.484158 28.8 
z
M 167.318725 28.8 
L 167.318725 28.8 
z
" style="fill:#008000;"/>
   </g>
   <g id="patch_31">
    <path clip-path="url(#p3a781856cc)" d="M 178.659523 114.428495 
Q 180.297649 114.428495 181.492696 115.836667 
Q 183.224501 117.858801 183.611879 122.928218 
L 182.054773 122.928218 
Q 181.768671 120.094977 180.874917 118.79946 
Q 179.981164 117.503942 178.619013 117.503942 
Q 177.006206 117.503942 175.902306 120.201998 
Q 174.798407 122.894422 174.798407 128.228575 
Q 174.798407 132.836112 175.707352 135.731313 
Q 176.618828 138.626513 178.674714 138.626513 
Q 180.249543 138.626513 181.28255 136.598746 
Q 182.315557 134.565347 182.338344 130.019769 
L 178.700033 130.019769 
L 178.700033 127.118936 
L 183.80177 127.118936 
L 183.80177 140.952812 
L 182.789018 140.952812 
L 182.409236 137.623895 
Q 181.611694 139.578437 180.993916 140.33885 
Q 179.955845 141.64 178.358229 141.64 
Q 176.294748 141.64 174.806003 138.665942 
Q 173.183068 134.931471 173.183068 128.420087 
Q 173.183068 121.9256 174.765492 118.089741 
Q 176.269429 114.428495 178.659523 114.428495 
z
M 178.398739 114.389067 
L 178.398739 114.389067 
z
" style="fill:#ffa600;"/>
   </g>
   <g id="patch_32">
    <path clip-path="url(#p3a781856cc)" d="M 178.766231 87.132827 
Q 181.040177 87.132827 182.294498 89.725975 
Q 183.548819 92.313486 183.68703 95.605656 
L 182.106741 95.605656 
Q 181.838145 93.108342 181.034962 91.648287 
Q 180.231779 90.182595 178.781878 90.182595 
Q 177.013832 90.182595 175.926406 92.871576 
Q 174.83898 95.554921 174.83898 101.102002 
Q 174.83898 105.651286 175.819489 108.481199 
Q 176.802606 111.305475 178.750585 111.305475 
Q 180.5421 111.305475 181.480885 108.328993 
Q 181.976355 106.761829 182.221482 104.202505 
L 183.80177 104.202505 
Q 183.590543 108.289532 182.401416 111.057435 
Q 180.974984 114.389067 178.555005 114.389067 
Q 176.468816 114.389067 175.050207 111.654987 
Q 173.183068 108.047129 173.183068 100.504451 
Q 173.183068 94.782613 174.58603 91.118383 
Q 176.101125 87.132827 178.766231 87.132827 
z
M 178.440264 87.132827 
L 178.440264 87.132827 
z
" style="fill:#0000ff;"/>
   </g>
   <g id="patch_33">
    <path clip-path="url(#p3a781856cc)" d="M 180.310583 75.18292 
L 178.504082 62.299128 
L 176.583541 75.18292 
L 180.310583 75.18292 
z
M 177.661739 57.966414 
L 179.483791 57.966414 
L 183.80177 87.132827 
L 182.034146 87.132827 
L 180.828948 78.397515 
L 176.122196 78.397515 
L 174.83406 87.132827 
L 173.183068 87.132827 
L 177.661739 57.966414 
z
M 178.496307 57.966414 
L 178.496307 57.966414 
z
" style="fill:#008000;"/>
   </g>
   <g id="patch_34">
    <path clip-path="url(#p3a781856cc)" d="M 183.80177 28.8 
L 183.80177 32.275066 
L 179.391802 32.275066 
L 179.391802 57.966414 
L 177.593036 57.966414 
L 177.593036 32.275066 
L 173.183068 32.275066 
L 173.183068 28.8 
L 183.80177 28.8 
z
" style="fill:#ff0000;"/>
   </g>
   <g id="patch_35">
    <path clip-path="url(#p3a781856cc)" d="M 189.943812 123.934631 
Q 192.217758 123.934631 193.472079 125.619113 
Q 194.726401 127.299933 194.864611 129.438493 
L 193.284322 129.438493 
Q 193.015726 127.816263 192.212543 126.867827 
Q 191.40936 125.915728 189.959459 125.915728 
Q 188.191414 125.915728 187.103988 127.662463 
Q 186.016561 129.405535 186.016561 133.008862 
Q 186.016561 135.964029 186.99707 137.802311 
Q 187.980187 139.636931 189.928166 139.636931 
Q 191.719681 139.636931 192.658466 137.703439 
Q 193.153936 136.685426 193.399063 135.022916 
L 194.979351 135.022916 
Q 194.768124 137.677806 193.578997 139.475807 
Q 192.152565 141.64 189.732586 141.64 
Q 187.646397 141.64 186.227788 139.86397 
Q 184.360649 137.520343 184.360649 132.620698 
Q 184.360649 128.903853 185.763611 126.523607 
Q 187.278706 123.934631 189.943812 123.934631 
z
M 189.617845 123.934631 
L 189.617845 123.934631 
z
" style="fill:#0000ff;"/>
   </g>
   <g id="patch_36">
    <path clip-path="url(#p3a781856cc)" d="M 189.837104 101.486354 
Q 191.47523 101.486354 192.670277 102.648033 
Q 194.402083 104.316203 194.78946 108.498246 
L 193.232354 108.498246 
Q 192.946252 106.160949 192.052498 105.092205 
Q 191.158745 104.02346 189.796594 104.02346 
Q 188.183787 104.02346 187.079887 106.249236 
Q 185.975988 108.470366 185.975988 112.870804 
Q 185.975988 116.671817 186.884933 119.060228 
Q 187.796409 121.448639 189.852295 121.448639 
Q 191.427124 121.448639 192.460131 119.775822 
Q 193.493138 118.098358 193.515925 114.34846 
L 189.877614 114.34846 
L 189.877614 111.955402 
L 194.979351 111.955402 
L 194.979351 123.367732 
L 193.966599 123.367732 
L 193.586817 120.621524 
Q 192.789275 122.233934 192.171497 122.86124 
Q 191.133426 123.934631 189.53581 123.934631 
Q 187.472329 123.934631 185.983584 121.481166 
Q 184.360649 118.400394 184.360649 113.028793 
Q 184.360649 107.671131 185.943074 104.506719 
Q 187.44701 101.486354 189.837104 101.486354 
z
M 189.57632 101.453827 
L 189.57632 101.453827 
z
" style="fill:#ffa600;"/>
   </g>
   <g id="patch_37">
    <path clip-path="url(#p3a781856cc)" d="M 194.979351 75.152675 
L 194.979351 78.286356 
L 190.569383 78.286356 
L 190.569383 101.453827 
L 188.770617 101.453827 
L 188.770617 78.286356 
L 184.360649 78.286356 
L 184.360649 75.152675 
L 194.979351 75.152675 
z
" style="fill:#ff0000;"/>
   </g>
   <g id="patch_38">
    <path clip-path="url(#p3a781856cc)" d="M 191.488164 56.161304 
L 189.681663 35.68576 
L 187.761122 56.161304 
L 191.488164 56.161304 
z
M 188.83932 28.8 
L 190.661373 28.8 
L 194.979351 75.152675 
L 193.211727 75.152675 
L 192.006529 61.270094 
L 187.299777 61.270094 
L 186.011641 75.152675 
L 184.360649 75.152675 
L 188.83932 28.8 
z
M 189.673888 28.8 
L 189.673888 28.8 
z
" style="fill:#008000;"/>
   </g>
   <g id="patch_39">
    <path clip-path="url(#p3a781856cc)" d="M 201.121393 117.249022 
Q 203.395339 117.249022 204.649661 119.56957 
Q 205.903982 121.885073 206.042192 124.83116 
L 204.461904 124.83116 
Q 204.193307 122.596372 203.390124 121.289802 
Q 202.586941 119.978188 201.13704 119.978188 
Q 199.368995 119.978188 198.281569 122.384496 
Q 197.194143 124.785758 197.194143 129.749713 
Q 197.194143 133.820762 198.174651 136.353186 
Q 199.157768 138.880566 201.105747 138.880566 
Q 202.897262 138.880566 203.836047 136.21698 
Q 204.331517 134.814562 204.576644 132.524282 
L 206.156932 132.524282 
Q 205.945706 136.181667 204.756578 138.6586 
Q 203.330146 141.64 200.910167 141.64 
Q 198.823978 141.64 197.405369 139.193335 
Q 195.53823 135.964747 195.53823 129.214978 
Q 195.53823 124.094639 196.941192 120.815603 
Q 198.456287 117.249022 201.121393 117.249022 
z
M 200.795426 117.249022 
L 200.795426 117.249022 
z
" style="fill:#0000ff;"/>
   </g>
   <g id="patch_40">
    <path clip-path="url(#p3a781856cc)" d="M 206.156932 89.995435 
L 206.156932 93.242595 
L 201.746964 93.242595 
L 201.746964 117.249022 
L 199.948198 117.249022 
L 199.948198 93.242595 
L 195.53823 93.242595 
L 195.53823 89.995435 
L 206.156932 89.995435 
z
" style="fill:#ff0000;"/>
   </g>
   <g id="patch_41">
    <path clip-path="url(#p3a781856cc)" d="M 201.014685 61.824927 
Q 202.652811 61.824927 203.847858 63.282726 
Q 205.579664 65.376126 205.967041 70.624202 
L 204.409935 70.624202 
Q 204.123833 67.69111 203.23008 66.349935 
Q 202.336326 65.00876 200.974175 65.00876 
Q 199.361368 65.00876 198.257469 67.801903 
Q 197.153569 70.589215 197.153569 76.111358 
Q 197.153569 80.881276 198.062514 83.878511 
Q 198.97399 86.875745 201.029876 86.875745 
Q 202.604705 86.875745 203.637712 84.776515 
Q 204.670719 82.671453 204.693506 77.965678 
L 201.055195 77.965678 
L 201.055195 74.962612 
L 206.156932 74.962612 
L 206.156932 89.284029 
L 205.14418 89.284029 
L 204.764399 85.837793 
Q 203.966857 87.861218 203.349078 88.648429 
Q 202.311007 89.995435 200.713392 89.995435 
Q 198.64991 89.995435 197.161165 86.916564 
Q 195.53823 83.050481 195.53823 76.309618 
Q 195.53823 69.586249 197.120655 65.615205 
Q 198.624591 61.824927 201.014685 61.824927 
z
M 200.753902 61.784109 
L 200.753902 61.784109 
z
" style="fill:#ffa600;"/>
   </g>
   <g id="patch_42">
    <path clip-path="url(#p3a781856cc)" d="M 202.665746 48.270036 
L 200.859244 33.699839 
L 198.938703 48.270036 
L 202.665746 48.270036 
z
M 200.016902 28.8 
L 201.838954 28.8 
L 206.156932 61.784109 
L 204.389308 61.784109 
L 203.18411 51.905401 
L 198.477358 51.905401 
L 197.189222 61.784109 
L 195.53823 61.784109 
L 200.016902 28.8 
z
M 200.851469 28.8 
L 200.851469 28.8 
z
" style="fill:#008000;"/>
   </g>
   <g id="patch_43">
    <path clip-path="url(#p3a781856cc)" d="M 212.298975 118.206762 
Q 214.572921 118.206762 215.827242 120.436191 
Q 217.081563 122.660773 217.219773 125.491179 
L 215.639485 125.491179 
Q 215.370888 123.344142 214.567705 122.088876 
Q 213.764522 120.828764 212.314621 120.828764 
Q 210.546576 120.828764 209.45915 123.140585 
Q 208.371724 125.44756 208.371724 130.216599 
Q 208.371724 134.127793 209.352233 136.560779 
Q 210.335349 138.988918 212.283328 138.988918 
Q 214.074843 138.988918 215.013628 136.429921 
Q 215.509098 135.082571 215.754225 132.882221 
L 217.334513 132.882221 
Q 217.123287 136.395995 215.934159 138.775668 
Q 214.507727 141.64 212.087748 141.64 
Q 210.001559 141.64 208.58295 139.289406 
Q 206.715811 136.187592 206.715811 129.702861 
Q 206.715811 124.783578 208.118773 121.633297 
Q 209.633868 118.206762 212.298975 118.206762 
z
M 211.973008 118.206762 
L 211.973008 118.206762 
z
" style="fill:#0000ff;"/>
   </g>
   <g id="patch_44">
    <path clip-path="url(#p3a781856cc)" d="M 212.192266 92.897369 
Q 213.830392 92.897369 215.025439 94.207108 
Q 216.757245 96.087893 217.144622 100.802953 
L 215.587517 100.802953 
Q 215.301414 98.167758 214.407661 96.962798 
Q 213.513907 95.757839 212.151756 95.757839 
Q 210.538949 95.757839 209.43505 98.267298 
Q 208.33115 100.771519 208.33115 105.73281 
Q 208.33115 110.018275 209.240095 112.711098 
Q 210.151572 115.403921 212.207458 115.403921 
Q 213.782287 115.403921 214.815293 113.517897 
Q 215.8483 111.626634 215.871087 107.398797 
L 212.232776 107.398797 
L 212.232776 104.700735 
L 217.334513 104.700735 
L 217.334513 117.567609 
L 216.321762 117.567609 
L 215.94198 114.471387 
Q 215.144438 116.289304 214.526659 116.996563 
Q 213.488589 118.206762 211.890973 118.206762 
Q 209.827491 118.206762 208.338746 115.440594 
Q 206.715811 111.967166 206.715811 105.910934 
Q 206.715811 99.870419 208.298236 96.30269 
Q 209.802172 92.897369 212.192266 92.897369 
z
M 211.931483 92.860697 
L 211.931483 92.860697 
z
" style="fill:#ffa600;"/>
   </g>
   <g id="patch_45">
    <path clip-path="url(#p3a781856cc)" d="M 213.843327 81.693416 
L 212.036825 69.653413 
L 210.116284 81.693416 
L 213.843327 81.693416 
z
M 211.194483 65.604457 
L 213.016535 65.604457 
L 217.334513 92.860697 
L 215.566889 92.860697 
L 214.361691 84.69748 
L 209.654939 84.69748 
L 208.366803 92.860697 
L 206.715811 92.860697 
L 211.194483 65.604457 
z
M 212.02905 65.604457 
L 212.02905 65.604457 
z
" style="fill:#008000;"/>
   </g>
   <g id="patch_46">
    <path clip-path="url(#p3a781856cc)" d="M 217.334513 28.8 
L 217.334513 33.18511 
L 212.924545 33.18511 
L 212.924545 65.604457 
L 211.12578 65.604457 
L 211.12578 33.18511 
L 206.715811 33.18511 
L 206.715811 28.8 
L 217.334513 28.8 
z
" style="fill:#ff0000;"/>
   </g>
   <g id="patch_47">
    <path clip-path="url(#p3a781856cc)" d="M 223.369847 123.960249 
Q 225.007973 123.960249 226.20302 124.87516 
Q 227.934826 126.188973 228.322203 129.482655 
L 226.765098 129.482655 
Q 226.478995 127.641853 225.585242 126.800134 
Q 224.691488 125.958416 223.329337 125.958416 
Q 221.71653 125.958416 220.612631 127.711386 
Q 219.508731 129.460697 219.508731 132.926382 
Q 219.508731 135.919973 220.417676 137.801031 
Q 221.329153 139.682089 223.385039 139.682089 
Q 224.959868 139.682089 225.992874 138.364617 
Q 227.025881 137.043484 227.048668 134.09015 
L 223.410357 134.09015 
L 223.410357 132.205432 
L 228.512094 132.205432 
L 228.512094 141.193523 
L 227.499343 141.193523 
L 227.119561 139.030672 
Q 226.322019 140.300569 225.70424 140.794622 
Q 224.66617 141.64 223.068554 141.64 
Q 221.005072 141.64 219.516327 139.707707 
Q 217.893392 137.281361 217.893392 133.05081 
Q 217.893392 128.831238 219.475817 126.339019 
Q 220.979753 123.960249 223.369847 123.960249 
z
M 223.109064 123.934631 
L 223.109064 123.934631 
z
" style="fill:#ffa600;"/>
   </g>
   <g id="patch_48">
    <path clip-path="url(#p3a781856cc)" d="M 228.512094 99.543653 
L 228.512094 102.449744 
L 224.102126 102.449744 
L 224.102126 123.934631 
L 222.303361 123.934631 
L 222.303361 102.449744 
L 217.893392 102.449744 
L 217.893392 99.543653 
L 228.512094 99.543653 
z
" style="fill:#ff0000;"/>
   </g>
   <g id="patch_49">
    <path clip-path="url(#p3a781856cc)" d="M 223.476556 72.287414 
Q 225.750502 72.287414 227.004823 74.880562 
Q 228.259144 77.468072 228.397354 80.760243 
L 226.817066 80.760243 
Q 226.548469 78.262928 225.745286 76.802873 
Q 224.942103 75.337181 223.492202 75.337181 
Q 221.724157 75.337181 220.636731 78.026163 
Q 219.549305 80.709507 219.549305 86.256589 
Q 219.549305 90.805872 220.529814 93.635786 
Q 221.51293 96.460062 223.460909 96.460062 
Q 225.252424 96.460062 226.191209 93.483579 
Q 226.686679 91.916416 226.931806 89.357092 
L 228.512094 89.357092 
Q 228.300868 93.444118 227.11174 96.212022 
Q 225.685308 99.543653 223.265329 99.543653 
Q 221.17914 99.543653 219.760531 96.809573 
Q 217.893392 93.201715 217.893392 85.659037 
Q 217.893392 79.9372 219.296354 76.272969 
Q 220.811449 72.287414 223.476556 72.287414 
z
M 223.150589 72.287414 
L 223.150589 72.287414 
z
" style="fill:#0000ff;"/>
   </g>
   <g id="patch_50">
    <path clip-path="url(#p3a781856cc)" d="M 225.020908 54.469983 
L 223.214407 35.260121 
L 221.293865 54.469983 
L 225.020908 54.469983 
z
M 222.372064 28.8 
L 224.194116 28.8 
L 228.512094 72.287414 
L 226.744471 72.287414 
L 225.539273 59.262976 
L 220.832521 59.262976 
L 219.544384 72.287414 
L 217.893392 72.287414 
L 222.372064 28.8 
z
M 223.206631 28.8 
L 223.206631 28.8 
z
" style="fill:#008000;"/>
   </g>
   <g id="patch_51">
    <path clip-path="url(#p3a781856cc)" d="M 234.547429 123.960249 
Q 236.185554 123.960249 237.380602 124.87516 
Q 239.112407 126.188973 239.499785 129.482655 
L 237.942679 129.482655 
Q 237.656576 127.641853 236.762823 126.800134 
Q 235.86907 125.958416 234.506918 125.958416 
Q 232.894111 125.958416 231.790212 127.711386 
Q 230.686312 129.460697 230.686312 132.926382 
Q 230.686312 135.919973 231.595257 137.801031 
Q 232.506734 139.682089 234.56262 139.682089 
Q 236.137449 139.682089 237.170456 138.364617 
Q 238.203462 137.043484 238.226249 134.09015 
L 234.587939 134.09015 
L 234.587939 132.205432 
L 239.689676 132.205432 
L 239.689676 141.193523 
L 238.676924 141.193523 
L 238.297142 139.030672 
Q 237.4996 140.300569 236.881821 140.794622 
Q 235.843751 141.64 234.246135 141.64 
Q 232.182653 141.64 230.693908 139.707707 
Q 229.070973 137.281361 229.070973 133.05081 
Q 229.070973 128.831238 230.653398 126.339019 
Q 232.157334 123.960249 234.547429 123.960249 
z
M 234.286645 123.934631 
L 234.286645 123.934631 
z
" style="fill:#ffa600;"/>
   </g>
   <g id="patch_52">
    <path clip-path="url(#p3a781856cc)" d="M 234.654137 98.588566 
Q 236.928083 98.588566 238.182404 100.999981 
Q 239.436725 103.406153 239.574935 106.467601 
L 237.994647 106.467601 
Q 237.72605 104.145304 236.922867 102.787573 
Q 236.119685 101.424599 234.669783 101.424599 
Q 232.901738 101.424599 231.814312 103.925132 
Q 230.726886 106.420422 230.726886 111.578752 
Q 230.726886 115.809212 231.707395 118.4408 
Q 232.690511 121.067145 234.63849 121.067145 
Q 236.430005 121.067145 237.36879 118.29926 
Q 237.86426 116.841927 238.109387 114.461965 
L 239.689676 114.461965 
Q 239.478449 118.262565 238.289321 120.836488 
Q 236.862889 123.934631 234.44291 123.934631 
Q 232.356721 123.934631 230.938113 121.392161 
Q 229.070973 118.03715 229.070973 111.023078 
Q 229.070973 105.702239 230.473936 102.294806 
Q 231.98903 98.588566 234.654137 98.588566 
z
M 234.32817 98.588566 
L 234.32817 98.588566 
z
" style="fill:#0000ff;"/>
   </g>
   <g id="patch_53">
    <path clip-path="url(#p3a781856cc)" d="M 239.689676 68.467065 
L 239.689676 72.055926 
L 235.279707 72.055926 
L 235.279707 98.588566 
L 233.480942 98.588566 
L 233.480942 72.055926 
L 229.070973 72.055926 
L 229.070973 68.467065 
L 239.689676 68.467065 
z
" style="fill:#ff0000;"/>
   </g>
   <g id="patch_54">
    <path clip-path="url(#p3a781856cc)" d="M 236.198489 52.214887 
L 234.391988 34.692603 
L 232.471446 52.214887 
L 236.198489 52.214887 
z
M 233.549645 28.8 
L 235.371697 28.8 
L 239.689676 68.467065 
L 237.922052 68.467065 
L 236.716854 56.586818 
L 232.010102 56.586818 
L 230.721965 68.467065 
L 229.070973 68.467065 
L 233.549645 28.8 
z
M 234.384212 28.8 
L 234.384212 28.8 
z
" style="fill:#008000;"/>
   </g>
   <g id="patch_55">
    <path clip-path="url(#p3a781856cc)" d="M 250.867257 117.251675 
L 250.867257 120.15745 
L 246.457288 120.15745 
L 246.457288 141.64 
L 244.658523 141.64 
L 244.658523 120.15745 
L 240.248555 120.15745 
L 240.248555 117.251675 
L 250.867257 117.251675 
z
" style="fill:#ff0000;"/>
   </g>
   <g id="patch_56">
    <path clip-path="url(#p3a781856cc)" d="M 245.72501 92.895987 
Q 247.363136 92.895987 248.558183 94.156373 
Q 250.289988 95.966286 250.677366 100.503674 
L 249.12026 100.503674 
Q 248.834158 97.967778 247.940404 96.808224 
Q 247.046651 95.648669 245.6845 95.648669 
Q 244.071692 95.648669 242.967793 98.063567 
Q 241.863894 100.473424 241.863894 105.247764 
Q 241.863894 109.371745 242.772838 111.963098 
Q 243.684315 114.55445 245.740201 114.55445 
Q 247.31503 114.55445 248.348037 112.739495 
Q 249.381043 110.919499 249.40383 106.850974 
L 245.76552 106.850974 
L 245.76552 104.254581 
L 250.867257 104.254581 
L 250.867257 116.636607 
L 249.854505 116.636607 
L 249.474723 113.657056 
Q 248.677181 115.406471 248.059402 116.087079 
Q 247.021332 117.251675 245.423716 117.251675 
Q 243.360234 117.251675 241.871489 114.589741 
Q 240.248555 111.247199 240.248555 105.419177 
Q 240.248555 99.606279 241.830979 96.172989 
Q 243.334916 92.895987 245.72501 92.895987 
z
M 245.464226 92.860697 
L 245.464226 92.860697 
z
" style="fill:#ffa600;"/>
   </g>
   <g id="patch_57">
    <path clip-path="url(#p3a781856cc)" d="M 245.831718 66.562197 
Q 248.105664 66.562197 249.359985 69.064226 
Q 250.614306 71.560816 250.752516 74.737305 
L 249.172228 74.737305 
Q 248.903631 72.327742 248.100448 70.918991 
Q 247.297266 69.504801 245.847364 69.504801 
Q 244.079319 69.504801 242.991893 72.099296 
Q 241.904467 74.688352 241.904467 80.040518 
Q 241.904467 84.429947 242.884976 87.160422 
Q 243.868093 89.885458 245.816071 89.885458 
Q 247.607586 89.885458 248.546371 87.013564 
Q 249.041841 85.501468 249.286968 83.032074 
L 250.867257 83.032074 
Q 250.65603 86.975489 249.466902 89.646133 
Q 248.040471 92.860697 245.620491 92.860697 
Q 243.534302 92.860697 242.115694 90.222688 
Q 240.248555 86.741604 240.248555 79.463964 
Q 240.248555 73.943182 241.651517 70.407707 
Q 243.166611 66.562197 245.831718 66.562197 
z
M 245.505751 66.562197 
L 245.505751 66.562197 
z
" style="fill:#0000ff;"/>
   </g>
   <g id="patch_58">
    <path clip-path="url(#p3a781856cc)" d="M 247.37607 51.090471 
L 245.569569 34.409632 
L 243.649027 51.090471 
L 247.37607 51.090471 
z
M 244.727226 28.8 
L 246.549278 28.8 
L 250.867257 66.562197 
L 249.099633 66.562197 
L 247.894435 55.252456 
L 243.187683 55.252456 
L 241.899546 66.562197 
L 240.248555 66.562197 
L 244.727226 28.8 
z
M 245.561793 28.8 
L 245.561793 28.8 
z
" style="fill:#008000;"/>
   </g>
   <g id="patch_59">
    <path clip-path="url(#p3a781856cc)" d="M 262.044838 122.024457 
L 262.044838 124.361574 
L 257.634869 124.361574 
L 257.634869 141.64 
L 255.836104 141.64 
L 255.836104 124.361574 
L 251.426136 124.361574 
L 251.426136 122.024457 
L 262.044838 122.024457 
z
" style="fill:#ff0000;"/>
   </g>
   <g id="patch_60">
    <path clip-path="url(#p3a781856cc)" d="M 256.902591 99.57618 
Q 258.540717 99.57618 259.735764 100.737859 
Q 261.467569 102.406029 261.854947 106.588072 
L 260.297841 106.588072 
Q 260.011739 104.250775 259.117985 103.18203 
Q 258.224232 102.113286 256.862081 102.113286 
Q 255.249274 102.113286 254.145374 104.339062 
Q 253.041475 106.560192 253.041475 110.96063 
Q 253.041475 114.761643 253.950419 117.150054 
Q 254.861896 119.538465 256.917782 119.538465 
Q 258.492611 119.538465 259.525618 117.865648 
Q 260.558625 116.188184 260.581411 112.438285 
L 256.943101 112.438285 
L 256.943101 110.045227 
L 262.044838 110.045227 
L 262.044838 121.457558 
L 261.032086 121.457558 
L 260.652304 118.71135 
Q 259.854762 120.32376 259.236984 120.951066 
Q 258.198913 122.024457 256.601297 122.024457 
Q 254.537815 122.024457 253.04907 119.570992 
Q 251.426136 116.49022 251.426136 111.118619 
Q 251.426136 105.760957 253.00856 102.596544 
Q 254.512497 99.57618 256.902591 99.57618 
z
M 256.641807 99.543653 
L 256.641807 99.543653 
z
" style="fill:#ffa600;"/>
   </g>
   <g id="patch_61">
    <path clip-path="url(#p3a781856cc)" d="M 257.009299 73.242501 
Q 259.283245 73.242501 260.537566 75.744782 
Q 261.791887 78.241624 261.930097 81.418433 
L 260.349809 81.418433 
Q 260.081212 79.008627 259.27803 77.599734 
Q 258.474847 76.185401 257.024945 76.185401 
Q 255.2569 76.185401 254.169474 78.780158 
Q 253.082048 81.369475 253.082048 86.722181 
Q 253.082048 91.112053 254.062557 93.842803 
Q 255.045674 96.568114 256.993653 96.568114 
Q 258.785167 96.568114 259.723952 93.69593 
Q 260.219422 92.183682 260.46455 89.714039 
L 262.044838 89.714039 
Q 261.833611 93.657852 260.644483 96.328766 
Q 259.218052 99.543653 256.798072 99.543653 
Q 254.711883 99.543653 253.293275 96.905378 
Q 251.426136 93.423943 251.426136 86.145569 
Q 251.426136 80.624231 252.829098 77.088398 
Q 254.344193 73.242501 257.009299 73.242501 
z
M 256.683332 73.242501 
L 256.683332 73.242501 
z
" style="fill:#0000ff;"/>
   </g>
   <g id="patch_62">
    <path clip-path="url(#p3a781856cc)" d="M 258.553651 55.033757 
L 256.74715 35.402001 
L 254.826609 55.033757 
L 258.553651 55.033757 
z
M 255.904807 28.8 
L 257.726859 28.8 
L 262.044838 73.242501 
L 260.277214 73.242501 
L 259.072016 59.932015 
L 254.365264 59.932015 
L 253.077127 73.242501 
L 251.426136 73.242501 
L 255.904807 28.8 
z
M 256.739374 28.8 
L 256.739374 28.8 
z
" style="fill:#008000;"/>
   </g>
   <g id="patch_63">
    <path clip-path="url(#p3a781856cc)" d="M 273.222419 118.204109 
L 273.222419 120.996405 
L 268.812451 120.996405 
L 268.812451 141.64 
L 267.013685 141.64 
L 267.013685 120.996405 
L 262.603717 120.996405 
L 262.603717 118.204109 
L 273.222419 118.204109 
z
" style="fill:#ff0000;"/>
   </g>
   <g id="patch_64">
    <path clip-path="url(#p3a781856cc)" d="M 268.080172 92.894716 
Q 269.718298 92.894716 270.913345 94.204455 
Q 272.64515 96.08524 273.032528 100.8003 
L 271.475422 100.8003 
Q 271.18932 98.165105 270.295566 96.960145 
Q 269.401813 95.755186 268.039662 95.755186 
Q 266.426855 95.755186 265.322955 98.264645 
Q 264.219056 100.768866 264.219056 105.730156 
Q 264.219056 110.015622 265.128001 112.708445 
Q 266.039477 115.401268 268.095363 115.401268 
Q 269.670192 115.401268 270.703199 113.515244 
Q 271.736206 111.623981 271.758993 107.396144 
L 268.120682 107.396144 
L 268.120682 104.698082 
L 273.222419 104.698082 
L 273.222419 117.564956 
L 272.209667 117.564956 
L 271.829885 114.468734 
Q 271.032343 116.286651 270.414565 116.99391 
Q 269.376494 118.204109 267.778878 118.204109 
Q 265.715397 118.204109 264.226651 115.43794 
Q 262.603717 111.964513 262.603717 105.908281 
Q 262.603717 99.867766 264.186141 96.300037 
Q 265.690078 92.894716 268.080172 92.894716 
z
M 267.819388 92.858044 
L 267.819388 92.858044 
z
" style="fill:#ffa600;"/>
   </g>
   <g id="patch_65">
    <path clip-path="url(#p3a781856cc)" d="M 269.731232 80.12551 
L 267.924731 66.39793 
L 266.00419 80.12551 
L 269.731232 80.12551 
z
M 267.082388 61.781456 
L 268.90444 61.781456 
L 273.222419 92.858044 
L 271.454795 92.858044 
L 270.249597 83.550636 
L 265.542845 83.550636 
L 264.254709 92.858044 
L 262.603717 92.858044 
L 267.082388 61.781456 
z
M 267.916956 61.781456 
L 267.916956 61.781456 
z
" style="fill:#008000;"/>
   </g>
   <g id="patch_66">
    <path clip-path="url(#p3a781856cc)" d="M 268.18688 28.8 
Q 270.460826 28.8 271.715147 31.937843 
Q 272.969468 35.068864 273.107678 39.05256 
L 271.52739 39.05256 
Q 271.258793 36.030681 270.455611 34.263939 
Q 269.652428 32.490376 268.202527 32.490376 
Q 266.434481 32.490376 265.347055 35.744182 
Q 264.259629 38.991168 264.259629 45.703422 
Q 264.259629 51.20829 265.240138 54.632631 
Q 266.223255 58.050152 268.171234 58.050152 
Q 269.962749 58.050152 270.901534 54.448454 
Q 271.397003 52.552105 271.642131 49.455191 
L 273.222419 49.455191 
Q 273.011192 54.400704 271.822065 57.75001 
Q 270.395633 61.781456 267.975654 61.781456 
Q 265.889465 61.781456 264.470856 58.473078 
Q 262.603717 54.107384 262.603717 44.980354 
Q 262.603717 38.056636 264.006679 33.622728 
Q 265.521774 28.8 268.18688 28.8 
z
M 267.860913 28.8 
L 267.860913 28.8 
z
" style="fill:#0000ff;"/>
   </g>
   <g id="patch_67">
    <path clip-path="url(#p3a781856cc)" d="M 279.257753 117.284313 
Q 280.895879 117.284313 282.090926 118.544698 
Q 283.822732 120.354611 284.210109 124.891999 
L 282.653003 124.891999 
Q 282.366901 122.356103 281.473147 121.196549 
Q 280.579394 120.036994 279.217243 120.036994 
Q 277.604436 120.036994 276.500536 122.451893 
Q 275.396637 124.86175 275.396637 129.636089 
Q 275.396637 133.76007 276.305582 136.351423 
Q 277.217058 138.942775 279.272944 138.942775 
Q 280.847773 138.942775 281.88078 137.12782 
Q 282.913787 135.307824 282.936574 131.2393 
L 279.298263 131.2393 
L 279.298263 128.642906 
L 284.4 128.642906 
L 284.4 141.024932 
L 283.387248 141.024932 
L 283.007466 138.045381 
Q 282.209924 139.794796 281.592146 140.475404 
Q 280.554075 141.64 278.956459 141.64 
Q 276.892978 141.64 275.404233 138.978066 
Q 273.781298 135.635524 273.781298 129.807502 
Q 273.781298 123.994604 275.363723 120.561315 
Q 276.867659 117.284313 279.257753 117.284313 
z
M 278.996969 117.249022 
L 278.996969 117.249022 
z
" style="fill:#ffa600;"/>
   </g>
   <g id="patch_68">
    <path clip-path="url(#p3a781856cc)" d="M 279.364461 89.998088 
Q 281.638407 89.998088 282.892728 92.590731 
Q 284.14705 95.177738 284.28526 98.469268 
L 282.704971 98.469268 
Q 282.436375 95.97244 281.633192 94.512669 
Q 280.830009 93.047262 279.380108 93.047262 
Q 277.612063 93.047262 276.524636 95.73572 
Q 275.43721 98.418542 275.43721 103.964544 
Q 275.43721 108.512942 276.417719 111.342304 
Q 277.400836 114.166031 279.348815 114.166031 
Q 281.14033 114.166031 282.079115 111.190128 
Q 282.574585 109.623269 282.819712 107.064443 
L 284.4 107.064443 
Q 284.188773 111.150674 282.999646 113.918039 
Q 281.573214 117.249022 279.153235 117.249022 
Q 277.067046 117.249022 275.648437 114.515474 
Q 273.781298 110.908319 273.781298 103.367109 
Q 273.781298 97.646386 275.18426 93.982868 
Q 276.699355 89.998088 279.364461 89.998088 
z
M 279.038494 89.998088 
L 279.038494 89.998088 
z
" style="fill:#0000ff;"/>
   </g>
   <g id="patch_69">
    <path clip-path="url(#p3a781856cc)" d="M 284.4 62.741849 
L 284.4 65.989325 
L 279.990032 65.989325 
L 279.990032 89.998088 
L 278.191266 89.998088 
L 278.191266 65.989325 
L 273.781298 65.989325 
L 273.781298 62.741849 
L 284.4 62.741849 
z
" style="fill:#ff0000;"/>
   </g>
   <g id="patch_70">
    <path clip-path="url(#p3a781856cc)" d="M 280.908813 48.835376 
L 279.102312 33.842113 
L 277.181771 48.835376 
L 280.908813 48.835376 
z
M 278.259969 28.8 
L 280.082022 28.8 
L 284.4 62.741849 
L 282.632376 62.741849 
L 281.427178 52.576298 
L 276.720426 52.576298 
L 275.43229 62.741849 
L 273.781298 62.741849 
L 278.259969 28.8 
z
M 279.094537 28.8 
L 279.094537 28.8 
z
" style="fill:#008000;"/>
   </g>
   <g id="matplotlib.axis_1">
    <g id="xtick_1">
     <g id="text_1">
      <!-- 0 -->
      <g style="fill:#262626;" transform="translate(94.688414 162.986875)scale(0.2 -0.2)">
       <defs>
        <path d="M 1731 4475 
Q 2600 4475 2988 3759 
Q 3288 3206 3288 2244 
Q 3288 1331 3016 734 
Q 2622 -122 1728 -122 
Q 922 -122 528 578 
Q 200 1163 200 2147 
Q 200 2909 397 3456 
Q 766 4475 1731 4475 
z
M 1725 391 
Q 2163 391 2422 778 
Q 2681 1166 2681 2222 
Q 2681 2984 2493 3476 
Q 2306 3969 1766 3969 
Q 1269 3969 1039 3501 
Q 809 3034 809 2125 
Q 809 1441 956 1025 
Q 1181 391 1725 391 
z
" id="Helvetica-30" transform="scale(0.015625)"/>
       </defs>
       <use xlink:href="#Helvetica-30"/>
      </g>
     </g>
    </g>
    <g id="xtick_2">
     <g id="text_2">
      <!-- 10 -->
      <g style="fill:#262626;" transform="translate(200.903287 162.986875)scale(0.2 -0.2)">
       <defs>
        <path d="M 613 3169 
L 613 3600 
Q 1222 3659 1462 3798 
Q 1703 3938 1822 4456 
L 2266 4456 
L 2266 0 
L 1666 0 
L 1666 3169 
L 613 3169 
z
" id="Helvetica-31" transform="scale(0.015625)"/>
       </defs>
       <use xlink:href="#Helvetica-31"/>
       <use x="55.615234" xlink:href="#Helvetica-30"/>
      </g>
     </g>
    </g>
    <g id="text_3">
     <!-- Position -->
     <g style="fill:#262626;" transform="translate(145.20125 189.089219)scale(0.25 -0.25)">
      <defs>
       <path d="M 547 4591 
L 2613 4591 
Q 3225 4591 3600 4245 
Q 3975 3900 3975 3275 
Q 3975 2738 3640 2339 
Q 3306 1941 2613 1941 
L 1169 1941 
L 1169 0 
L 547 0 
L 547 4591 
z
M 3347 3272 
Q 3347 3778 2972 3959 
Q 2766 4056 2406 4056 
L 1169 4056 
L 1169 2466 
L 2406 2466 
Q 2825 2466 3086 2644 
Q 3347 2822 3347 3272 
z
" id="Helvetica-50" transform="scale(0.015625)"/>
       <path d="M 1741 363 
Q 2300 363 2508 786 
Q 2716 1209 2716 1728 
Q 2716 2197 2566 2491 
Q 2328 2953 1747 2953 
Q 1231 2953 997 2559 
Q 763 2166 763 1609 
Q 763 1075 997 719 
Q 1231 363 1741 363 
z
M 1763 3444 
Q 2409 3444 2856 3012 
Q 3303 2581 3303 1744 
Q 3303 934 2909 406 
Q 2516 -122 1688 -122 
Q 997 -122 590 345 
Q 184 813 184 1600 
Q 184 2444 612 2944 
Q 1041 3444 1763 3444 
z
M 1744 3428 
L 1744 3428 
z
" id="Helvetica-6f" transform="scale(0.015625)"/>
       <path d="M 747 1050 
Q 772 769 888 619 
Q 1100 347 1625 347 
Q 1938 347 2175 483 
Q 2413 619 2413 903 
Q 2413 1119 2222 1231 
Q 2100 1300 1741 1391 
L 1294 1503 
Q 866 1609 663 1741 
Q 300 1969 300 2372 
Q 300 2847 642 3140 
Q 984 3434 1563 3434 
Q 2319 3434 2653 2991 
Q 2863 2709 2856 2384 
L 2325 2384 
Q 2309 2575 2191 2731 
Q 1997 2953 1519 2953 
Q 1200 2953 1036 2831 
Q 872 2709 872 2509 
Q 872 2291 1088 2159 
Q 1213 2081 1456 2022 
L 1828 1931 
Q 2434 1784 2641 1647 
Q 2969 1431 2969 969 
Q 2969 522 2630 197 
Q 2291 -128 1597 -128 
Q 850 -128 539 211 
Q 228 550 206 1050 
L 747 1050 
z
M 1578 3428 
L 1578 3428 
z
" id="Helvetica-73" transform="scale(0.015625)"/>
       <path d="M 413 3331 
L 984 3331 
L 984 0 
L 413 0 
L 413 3331 
z
M 413 4591 
L 984 4591 
L 984 3953 
L 413 3953 
L 413 4591 
z
" id="Helvetica-69" transform="scale(0.015625)"/>
       <path d="M 525 4281 
L 1094 4281 
L 1094 3347 
L 1628 3347 
L 1628 2888 
L 1094 2888 
L 1094 703 
Q 1094 528 1213 469 
Q 1278 434 1431 434 
Q 1472 434 1519 436 
Q 1566 438 1628 444 
L 1628 0 
Q 1531 -28 1426 -40 
Q 1322 -53 1200 -53 
Q 806 -53 665 148 
Q 525 350 525 672 
L 525 2888 
L 72 2888 
L 72 3347 
L 525 3347 
L 525 4281 
z
" id="Helvetica-74" transform="scale(0.015625)"/>
       <path d="M 413 3347 
L 947 3347 
L 947 2872 
Q 1184 3166 1450 3294 
Q 1716 3422 2041 3422 
Q 2753 3422 3003 2925 
Q 3141 2653 3141 2147 
L 3141 0 
L 2569 0 
L 2569 2109 
Q 2569 2416 2478 2603 
Q 2328 2916 1934 2916 
Q 1734 2916 1606 2875 
Q 1375 2806 1200 2600 
Q 1059 2434 1017 2257 
Q 975 2081 975 1753 
L 975 0 
L 413 0 
L 413 3347 
z
M 1734 3428 
L 1734 3428 
z
" id="Helvetica-6e" transform="scale(0.015625)"/>
      </defs>
      <use xlink:href="#Helvetica-50"/>
      <use x="66.699219" xlink:href="#Helvetica-6f"/>
      <use x="122.314453" xlink:href="#Helvetica-73"/>
      <use x="172.314453" xlink:href="#Helvetica-69"/>
      <use x="194.53125" xlink:href="#Helvetica-74"/>
      <use x="222.314453" xlink:href="#Helvetica-69"/>
      <use x="244.53125" xlink:href="#Helvetica-6f"/>
      <use x="300.146484" xlink:href="#Helvetica-6e"/>
     </g>
    </g>
   </g>
   <g id="matplotlib.axis_2">
    <g id="ytick_1">
     <g id="text_4">
      <!-- 0 -->
      <g style="fill:#262626;" transform="translate(76.818125 148.813438)scale(0.2 -0.2)">
       <use xlink:href="#Helvetica-30"/>
      </g>
     </g>
    </g>
    <g id="ytick_2">
     <g id="text_5">
      <!-- 0.25 -->
      <g style="fill:#262626;" transform="translate(49.018125 120.603438)scale(0.2 -0.2)">
       <defs>
        <path d="M 547 681 
L 1200 681 
L 1200 0 
L 547 0 
L 547 681 
z
" id="Helvetica-2e" transform="scale(0.015625)"/>
        <path d="M 200 0 
Q 231 578 439 1006 
Q 647 1434 1250 1784 
L 1850 2131 
Q 2253 2366 2416 2531 
Q 2672 2791 2672 3125 
Q 2672 3516 2437 3745 
Q 2203 3975 1813 3975 
Q 1234 3975 1013 3538 
Q 894 3303 881 2888 
L 309 2888 
Q 319 3472 525 3841 
Q 891 4491 1816 4491 
Q 2584 4491 2939 4075 
Q 3294 3659 3294 3150 
Q 3294 2613 2916 2231 
Q 2697 2009 2131 1694 
L 1703 1456 
Q 1397 1288 1222 1134 
Q 909 863 828 531 
L 3272 531 
L 3272 0 
L 200 0 
z
" id="Helvetica-32" transform="scale(0.015625)"/>
        <path d="M 791 1141 
Q 847 659 1238 475 
Q 1438 381 1700 381 
Q 2200 381 2440 700 
Q 2681 1019 2681 1406 
Q 2681 1875 2395 2131 
Q 2109 2388 1709 2388 
Q 1419 2388 1211 2275 
Q 1003 2163 856 1963 
L 369 1991 
L 709 4400 
L 3034 4400 
L 3034 3856 
L 1131 3856 
L 941 2613 
Q 1097 2731 1238 2791 
Q 1488 2894 1816 2894 
Q 2431 2894 2859 2497 
Q 3288 2100 3288 1491 
Q 3288 856 2895 371 
Q 2503 -113 1644 -113 
Q 1097 -113 676 195 
Q 256 503 206 1141 
L 791 1141 
z
" id="Helvetica-35" transform="scale(0.015625)"/>
       </defs>
       <use xlink:href="#Helvetica-30"/>
       <use x="55.615234" xlink:href="#Helvetica-2e"/>
       <use x="83.398438" xlink:href="#Helvetica-32"/>
       <use x="139.013672" xlink:href="#Helvetica-35"/>
      </g>
     </g>
    </g>
    <g id="ytick_3">
     <g id="text_6">
      <!-- 0.50 -->
      <g style="fill:#262626;" transform="translate(49.018125 92.393438)scale(0.2 -0.2)">
       <use xlink:href="#Helvetica-30"/>
       <use x="55.615234" xlink:href="#Helvetica-2e"/>
       <use x="83.398438" xlink:href="#Helvetica-35"/>
       <use x="139.013672" xlink:href="#Helvetica-30"/>
      </g>
     </g>
    </g>
    <g id="ytick_4">
     <g id="text_7">
      <!-- 0.75 -->
      <g style="fill:#262626;" transform="translate(49.018125 64.183437)scale(0.2 -0.2)">
       <defs>
        <path d="M 3347 4400 
L 3347 3909 
Q 3131 3700 2773 3181 
Q 2416 2663 2141 2063 
Q 1869 1478 1728 997 
Q 1638 688 1494 0 
L 872 0 
Q 1084 1281 1809 2550 
Q 2238 3294 2709 3834 
L 234 3834 
L 234 4400 
L 3347 4400 
z
" id="Helvetica-37" transform="scale(0.015625)"/>
       </defs>
       <use xlink:href="#Helvetica-30"/>
       <use x="55.615234" xlink:href="#Helvetica-2e"/>
       <use x="83.398438" xlink:href="#Helvetica-37"/>
       <use x="139.013672" xlink:href="#Helvetica-35"/>
      </g>
     </g>
    </g>
    <g id="ytick_5">
     <g id="text_8">
      <!-- 1.0 -->
      <g style="fill:#262626;" transform="translate(60.14 35.973438)scale(0.2 -0.2)">
       <use xlink:href="#Helvetica-31"/>
       <use x="55.615234" xlink:href="#Helvetica-2e"/>
       <use x="83.398438" xlink:href="#Helvetica-30"/>
      </g>
     </g>
    </g>
    <g id="text_9">
     <!-- Probability -->
     <g style="fill:#262626;" transform="translate(39.65875 143.579375)rotate(-90)scale(0.25 -0.25)">
      <defs>
       <path d="M 428 3347 
L 963 3347 
L 963 2769 
Q 1028 2938 1284 3180 
Q 1541 3422 1875 3422 
Q 1891 3422 1928 3419 
Q 1966 3416 2056 3406 
L 2056 2813 
Q 2006 2822 1964 2825 
Q 1922 2828 1872 2828 
Q 1447 2828 1219 2554 
Q 991 2281 991 1925 
L 991 0 
L 428 0 
L 428 3347 
z
" id="Helvetica-72" transform="scale(0.015625)"/>
       <path d="M 369 4606 
L 916 4606 
L 916 2941 
Q 1100 3181 1356 3307 
Q 1613 3434 1913 3434 
Q 2538 3434 2927 3004 
Q 3316 2575 3316 1738 
Q 3316 944 2931 419 
Q 2547 -106 1866 -106 
Q 1484 -106 1222 78 
Q 1066 188 888 428 
L 888 0 
L 369 0 
L 369 4606 
z
M 1831 391 
Q 2288 391 2514 753 
Q 2741 1116 2741 1709 
Q 2741 2238 2514 2584 
Q 2288 2931 1847 2931 
Q 1463 2931 1173 2647 
Q 884 2363 884 1709 
Q 884 1238 1003 944 
Q 1225 391 1831 391 
z
" id="Helvetica-62" transform="scale(0.015625)"/>
       <path d="M 844 891 
Q 844 647 1022 506 
Q 1200 366 1444 366 
Q 1741 366 2019 503 
Q 2488 731 2488 1250 
L 2488 1703 
Q 2384 1638 2221 1594 
Q 2059 1550 1903 1531 
L 1563 1488 
Q 1256 1447 1103 1359 
Q 844 1213 844 891 
z
M 2206 2028 
Q 2400 2053 2466 2191 
Q 2503 2266 2503 2406 
Q 2503 2694 2298 2823 
Q 2094 2953 1713 2953 
Q 1272 2953 1088 2716 
Q 984 2584 953 2325 
L 428 2325 
Q 444 2944 830 3186 
Q 1216 3428 1725 3428 
Q 2316 3428 2684 3203 
Q 3050 2978 3050 2503 
L 3050 575 
Q 3050 488 3086 434 
Q 3122 381 3238 381 
Q 3275 381 3322 386 
Q 3369 391 3422 400 
L 3422 -16 
Q 3291 -53 3222 -62 
Q 3153 -72 3034 -72 
Q 2744 -72 2613 134 
Q 2544 244 2516 444 
Q 2344 219 2022 53 
Q 1700 -113 1313 -113 
Q 847 -113 551 170 
Q 256 453 256 878 
Q 256 1344 547 1600 
Q 838 1856 1309 1916 
L 2206 2028 
z
M 1741 3428 
L 1741 3428 
z
" id="Helvetica-61" transform="scale(0.015625)"/>
       <path d="M 428 4591 
L 991 4591 
L 991 0 
L 428 0 
L 428 4591 
z
" id="Helvetica-6c" transform="scale(0.015625)"/>
       <path d="M 2503 3347 
L 3125 3347 
Q 3006 3025 2597 1878 
Q 2291 1016 2084 472 
Q 1597 -809 1397 -1090 
Q 1197 -1372 709 -1372 
Q 591 -1372 527 -1362 
Q 463 -1353 369 -1328 
L 369 -816 
Q 516 -856 581 -865 
Q 647 -875 697 -875 
Q 853 -875 926 -823 
Q 1000 -772 1050 -697 
Q 1066 -672 1162 -440 
Q 1259 -209 1303 -97 
L 66 3347 
L 703 3347 
L 1600 622 
L 2503 3347 
z
M 1597 3428 
L 1597 3428 
z
" id="Helvetica-79" transform="scale(0.015625)"/>
      </defs>
      <use xlink:href="#Helvetica-50"/>
      <use x="66.699219" xlink:href="#Helvetica-72"/>
      <use x="100" xlink:href="#Helvetica-6f"/>
      <use x="155.615234" xlink:href="#Helvetica-62"/>
      <use x="211.230469" xlink:href="#Helvetica-61"/>
      <use x="266.845703" xlink:href="#Helvetica-62"/>
      <use x="322.460938" xlink:href="#Helvetica-69"/>
      <use x="344.677734" xlink:href="#Helvetica-6c"/>
      <use x="366.894531" xlink:href="#Helvetica-69"/>
      <use x="389.111328" xlink:href="#Helvetica-74"/>
      <use x="416.894531" xlink:href="#Helvetica-79"/>
     </g>
    </g>
   </g>
   <g id="patch_71">
    <path d="M 94.94 141.64 
L 94.94 28.8 
" style="fill:none;stroke:#000000;stroke-linecap:square;stroke-linejoin:miter;"/>
   </g>
  </g>
 </g>
 <defs>
  <clipPath id="p3a781856cc">
   <rect height="112.84" width="189.46" x="94.94" y="28.8"/>
  </clipPath>
 </defs>
</svg>
