<?xml version="1.0" encoding="utf-8" standalone="no"?>
<!DOCTYPE svg PUBLIC "-//W3C//DTD SVG 1.1//EN"
  "http://www.w3.org/Graphics/SVG/1.1/DTD/svg11.dtd">
<svg height="216pt" version="1.1" viewBox="0 0 306 216" width="306pt" xmlns="http://www.w3.org/2000/svg" xmlns:xlink="http://www.w3.org/1999/xlink">
 <metadata>
  <rdf:RDF xmlns:cc="http://creativecommons.org/ns#" xmlns:dc="http://purl.org/dc/elements/1.1/" xmlns:rdf="http://www.w3.org/1999/02/22-rdf-syntax-ns#">
   <cc:Work>
    <dc:type rdf:resource="http://purl.org/dc/dcmitype/StillImage"/>
    <dc:date>2022-12-28T10:09:06.731010</dc:date>
    <dc:format>image/svg+xml</dc:format>
    <dc:creator>
     <cc:Agent>
      <dc:title>Matplotlib v3.4.2, https://matplotlib.org/</dc:title>
     </cc:Agent>
    </dc:creator>
   </cc:Work>
  </rdf:RDF>
 </metadata>
 <defs>
  <style type="text/css">*{stroke-linecap:butt;stroke-linejoin:round;}</style>
 </defs>
 <g id="figure_1">
  <g id="patch_1">
   <path d="M 0 216 
L 306 216 
L 306 0 
L 0 0 
z
" style="fill:#ffffff;"/>
  </g>
  <g id="axes_1">
   <g id="patch_2">
    <path d="M 94.94 141.64 
L 284.4 141.64 
L 284.4 28.8 
L 94.94 28.8 
z
" style="fill:#ffffff;"/>
   </g>
   <g id="line2d_1">
    <path clip-path="url(#pa08ec0c4d5)" d="M 94.94 141.64 
L 284.4 141.64 
" style="fill:none;stroke:#000000;stroke-linecap:round;stroke-width:0.5;"/>
   </g>
   <g id="patch_3">
    <path clip-path="url(#pa08ec0c4d5)" d="M 105.558702 116.295126 
L 105.558702 119.314871 
L 101.148734 119.314871 
L 101.148734 141.64 
L 99.349968 141.64 
L 99.349968 119.314871 
L 94.94 119.314871 
L 94.94 116.295126 
L 105.558702 116.295126 
z
" style="fill:#ff0000;"/>
   </g>
   <g id="patch_4">
    <path clip-path="url(#pa08ec0c4d5)" d="M 100.523163 89.040169 
Q 102.797109 89.040169 104.051431 91.633195 
Q 105.305752 94.220584 105.443962 97.512599 
L 103.863673 97.512599 
Q 103.595077 95.015402 102.791894 93.555416 
Q 101.988711 92.089793 100.53881 92.089793 
Q 98.770765 92.089793 97.683339 94.778648 
Q 96.595913 97.461866 96.595913 103.008687 
Q 96.595913 107.557756 97.576421 110.387537 
Q 98.559538 113.21168 100.507517 113.21168 
Q 102.299032 113.21168 103.237817 110.235338 
Q 103.733287 108.668248 103.978414 106.109044 
L 105.558702 106.109044 
Q 105.347475 110.195878 104.158348 112.963652 
Q 102.731916 116.295126 100.311937 116.295126 
Q 98.225748 116.295126 96.807139 113.561175 
Q 94.94 109.953487 94.94 102.411163 
Q 94.94 96.689595 96.342962 93.025537 
Q 97.858057 89.040169 100.523163 89.040169 
z
M 100.197196 89.040169 
L 100.197196 89.040169 
z
" style="fill:#0000ff;"/>
   </g>
   <g id="patch_5">
    <path clip-path="url(#pa08ec0c4d5)" d="M 100.416455 59.917325 
Q 102.054581 59.917325 103.249628 61.424406 
Q 104.981434 63.588575 105.368811 69.014069 
L 103.811705 69.014069 
Q 103.525603 65.981821 102.63185 64.595306 
Q 101.738096 63.208791 100.375945 63.208791 
Q 98.763138 63.208791 97.659238 66.096359 
Q 96.555339 68.977899 96.555339 74.686724 
Q 96.555339 79.617895 97.464284 82.716454 
Q 98.37576 85.815014 100.431646 85.815014 
Q 102.006475 85.815014 103.039482 83.644817 
Q 104.072489 81.468591 104.095276 76.603732 
L 100.456965 76.603732 
L 100.456965 73.499144 
L 105.558702 73.499144 
L 105.558702 88.304713 
L 104.54595 88.304713 
L 104.166168 84.741972 
Q 103.368626 86.833801 102.750848 87.647625 
Q 101.712777 89.040169 100.115161 89.040169 
Q 98.05168 89.040169 96.562935 85.857212 
Q 94.94 81.860432 94.94 74.891687 
Q 94.94 67.941027 96.522425 63.835737 
Q 98.026361 59.917325 100.416455 59.917325 
z
M 100.155671 59.875126 
L 100.155671 59.875126 
z
" style="fill:#ffa600;"/>
   </g>
   <g id="patch_6">
    <path clip-path="url(#pa08ec0c4d5)" d="M 102.067515 47.143192 
L 100.261014 33.416257 
L 98.340473 47.143192 
L 102.067515 47.143192 
z
M 99.418672 28.8 
L 101.240724 28.8 
L 105.558702 59.875126 
L 103.791078 59.875126 
L 102.58588 50.568157 
L 97.879128 50.568157 
L 96.590992 59.875126 
L 94.94 59.875126 
L 99.418672 28.8 
z
M 100.253239 28.8 
L 100.253239 28.8 
z
" style="fill:#008000;"/>
   </g>
   <g id="patch_7">
    <path clip-path="url(#pa08ec0c4d5)" d="M 111.594036 129.683042 
Q 113.232162 129.683042 114.427209 130.301804 
Q 116.159015 131.190346 116.546392 133.41789 
L 114.989286 133.41789 
Q 114.703184 132.172941 113.809431 131.603679 
Q 112.915677 131.034418 111.553526 131.034418 
Q 109.940719 131.034418 108.83682 132.219967 
Q 107.73292 133.40304 107.73292 135.74691 
Q 107.73292 137.7715 108.641865 139.043674 
Q 109.553341 140.315849 111.609227 140.315849 
Q 113.184056 140.315849 114.217063 139.424832 
Q 115.25007 138.531339 115.272857 136.533976 
L 111.634546 136.533976 
L 111.634546 135.259326 
L 116.736283 135.259326 
L 116.736283 141.338044 
L 115.723531 141.338044 
L 115.34375 139.875291 
Q 114.546208 140.734132 113.928429 141.068264 
Q 112.890358 141.64 111.292743 141.64 
Q 109.229261 141.64 107.740516 140.333175 
Q 106.117581 138.692218 106.117581 135.831062 
Q 106.117581 132.977331 107.700006 131.291823 
Q 109.203942 129.683042 111.594036 129.683042 
z
M 111.333253 129.665717 
L 111.333253 129.665717 
z
" style="fill:#ffa600;"/>
   </g>
   <g id="patch_8">
    <path clip-path="url(#pa08ec0c4d5)" d="M 111.700744 98.59059 
Q 113.97469 98.59059 115.229012 101.547066 
Q 116.483333 104.497114 116.621543 108.250552 
L 115.041255 108.250552 
Q 114.772658 105.403338 113.969475 103.738714 
Q 113.166292 102.067662 111.716391 102.067662 
Q 109.948346 102.067662 108.86092 105.133399 
Q 107.773494 108.192708 107.773494 114.516994 
Q 107.773494 119.70368 108.754002 122.930095 
Q 109.737119 126.150082 111.685098 126.150082 
Q 113.476613 126.150082 114.415398 122.756562 
Q 114.910868 120.969823 115.155995 118.05191 
L 116.736283 118.05191 
Q 116.525057 122.711573 115.335929 125.867289 
Q 113.909497 129.665717 111.489518 129.665717 
Q 109.403329 129.665717 107.98472 126.548563 
Q 106.117581 122.435206 106.117581 113.83572 
Q 106.117581 107.312192 107.520543 103.134564 
Q 109.035638 98.59059 111.700744 98.59059 
z
M 111.374777 98.59059 
L 111.374777 98.59059 
z
" style="fill:#0000ff;"/>
   </g>
   <g id="patch_9">
    <path clip-path="url(#pa08ec0c4d5)" d="M 113.245097 85.467361 
L 111.438595 71.318552 
L 109.518054 85.467361 
L 113.245097 85.467361 
z
M 110.596253 66.560422 
L 112.418305 66.560422 
L 116.736283 98.59059 
L 114.968659 98.59059 
L 113.763461 88.997586 
L 109.056709 88.997586 
L 107.768573 98.59059 
L 106.117581 98.59059 
L 110.596253 66.560422 
z
M 111.43082 66.560422 
L 111.43082 66.560422 
z
" style="fill:#008000;"/>
   </g>
   <g id="patch_10">
    <path clip-path="url(#pa08ec0c4d5)" d="M 116.736283 28.8 
L 116.736283 33.299009 
L 112.326315 33.299009 
L 112.326315 66.560422 
L 110.527549 66.560422 
L 110.527549 33.299009 
L 106.117581 33.299009 
L 106.117581 28.8 
L 116.736283 28.8 
z
" style="fill:#ff0000;"/>
   </g>
   <g id="patch_11">
    <path clip-path="url(#pa08ec0c4d5)" d="M 122.771617 126.822061 
Q 124.409743 126.822061 125.60479 127.588876 
Q 127.336596 128.690023 127.723973 131.450558 
L 126.166868 131.450558 
Q 125.880765 129.907726 124.987012 129.202256 
Q 124.093258 128.496786 122.731107 128.496786 
Q 121.1183 128.496786 120.014401 129.966004 
Q 118.910501 131.432155 118.910501 134.336851 
Q 118.910501 136.845871 119.819446 138.422443 
Q 120.730923 139.999015 122.786809 139.999015 
Q 124.361638 139.999015 125.394644 138.894801 
Q 126.427651 137.78752 126.450438 135.31224 
L 122.812127 135.31224 
L 122.812127 133.732601 
L 127.913864 133.732601 
L 127.913864 141.265794 
L 126.901113 141.265794 
L 126.521331 139.453043 
Q 125.723789 140.517382 125.10601 140.931463 
Q 124.06794 141.64 122.470324 141.64 
Q 120.406842 141.64 118.918097 140.020486 
Q 117.295162 137.986892 117.295162 134.441138 
Q 117.295162 130.904586 118.877587 128.815781 
Q 120.381523 126.822061 122.771617 126.822061 
z
M 122.510834 126.80059 
L 122.510834 126.80059 
z
" style="fill:#ffa600;"/>
   </g>
   <g id="patch_12">
    <path clip-path="url(#pa08ec0c4d5)" d="M 127.913864 99.545632 
L 127.913864 102.792956 
L 123.503896 102.792956 
L 123.503896 126.80059 
L 121.705131 126.80059 
L 121.705131 102.792956 
L 117.295162 102.792956 
L 117.295162 99.545632 
L 127.913864 99.545632 
z
" style="fill:#ff0000;"/>
   </g>
   <g id="patch_13">
    <path clip-path="url(#pa08ec0c4d5)" d="M 124.422678 86.031108 
L 122.616176 71.460425 
L 120.695635 86.031108 
L 124.422678 86.031108 
z
M 121.773834 66.560422 
L 123.595886 66.560422 
L 127.913864 99.545632 
L 126.14624 99.545632 
L 124.941042 89.666594 
L 120.23429 89.666594 
L 118.946154 99.545632 
L 117.295162 99.545632 
L 121.773834 66.560422 
z
M 122.608401 66.560422 
L 122.608401 66.560422 
z
" style="fill:#008000;"/>
   </g>
   <g id="patch_14">
    <path clip-path="url(#pa08ec0c4d5)" d="M 122.878326 28.8 
Q 125.152272 28.8 126.406593 32.392512 
Q 127.660914 35.977214 127.799124 40.538141 
L 126.218836 40.538141 
Q 125.950239 37.078396 125.147056 35.055656 
Q 124.343873 33.025106 122.893972 33.025106 
Q 121.125927 33.025106 120.038501 36.750385 
Q 118.951075 40.467853 118.951075 48.152704 
Q 118.951075 54.455219 119.931584 58.375743 
Q 120.9147 62.288457 122.862679 62.288457 
Q 124.654194 62.288457 125.592979 58.164878 
Q 126.088449 55.993751 126.333576 52.448099 
L 127.913864 52.448099 
Q 127.702638 58.110209 126.51351 61.944825 
Q 125.087078 66.560422 122.667099 66.560422 
Q 120.58091 66.560422 119.162301 62.772665 
Q 117.295162 57.774388 117.295162 47.324865 
Q 117.295162 39.397909 118.698124 34.321534 
Q 120.213219 28.8 122.878326 28.8 
z
M 122.552359 28.8 
L 122.552359 28.8 
z
" style="fill:#0000ff;"/>
   </g>
   <g id="patch_15">
    <path clip-path="url(#pa08ec0c4d5)" d="M 133.949198 123.96108 
Q 135.587324 123.96108 136.782371 124.875949 
Q 138.514177 126.1897 138.901554 129.483227 
L 137.344449 129.483227 
Q 137.058346 127.642511 136.164593 126.800832 
Q 135.270839 125.959153 133.908688 125.959153 
Q 132.295881 125.959153 131.191982 127.712041 
Q 130.088082 129.46127 130.088082 132.926792 
Q 130.088082 135.920242 130.997027 137.801212 
Q 131.908504 139.682181 133.96439 139.682181 
Q 135.539219 139.682181 136.572225 138.364771 
Q 137.605232 137.0437 137.628019 134.090505 
L 133.989709 134.090505 
L 133.989709 132.205875 
L 139.091445 132.205875 
L 139.091445 141.193544 
L 138.078694 141.193544 
L 137.698912 139.030795 
Q 136.90137 140.300632 136.283591 140.794661 
Q 135.245521 141.64 133.647905 141.64 
Q 131.584423 141.64 130.095678 139.707798 
Q 128.472743 137.281566 128.472743 133.051214 
Q 128.472743 128.83184 130.055168 126.339738 
Q 131.559104 123.96108 133.949198 123.96108 
z
M 133.688415 123.935464 
L 133.688415 123.935464 
z
" style="fill:#ffa600;"/>
   </g>
   <g id="patch_16">
    <path clip-path="url(#pa08ec0c4d5)" d="M 139.091445 99.545632 
L 139.091445 102.451587 
L 134.681477 102.451587 
L 134.681477 123.935464 
L 132.882712 123.935464 
L 132.882712 102.451587 
L 128.472743 102.451587 
L 128.472743 99.545632 
L 139.091445 99.545632 
z
" style="fill:#ff0000;"/>
   </g>
   <g id="patch_17">
    <path clip-path="url(#pa08ec0c4d5)" d="M 134.055907 68.470506 
Q 136.329853 68.470506 137.584174 71.426981 
Q 138.838495 74.377029 138.976705 78.130468 
L 137.396417 78.130468 
Q 137.12782 75.283253 136.324637 73.618629 
Q 135.521454 71.947578 134.071553 71.947578 
Q 132.303508 71.947578 131.216082 75.013314 
Q 130.128656 78.072624 130.128656 84.39691 
Q 130.128656 89.583596 131.109165 92.81001 
Q 132.092281 96.029998 134.04026 96.029998 
Q 135.831775 96.029998 136.77056 92.636478 
Q 137.26603 90.849739 137.511157 87.931826 
L 139.091445 87.931826 
Q 138.880219 92.591488 137.691091 95.747204 
Q 136.264659 99.545632 133.84468 99.545632 
Q 131.758491 99.545632 130.339883 96.428479 
Q 128.472743 92.315122 128.472743 83.715635 
Q 128.472743 77.192108 129.875705 73.01448 
Q 131.3908 68.470506 134.055907 68.470506 
z
M 133.72994 68.470506 
L 133.72994 68.470506 
z
" style="fill:#0000ff;"/>
   </g>
   <g id="patch_18">
    <path clip-path="url(#pa08ec0c4d5)" d="M 135.600259 52.216918 
L 133.793758 34.693114 
L 131.873216 52.216918 
L 135.600259 52.216918 
z
M 132.951415 28.8 
L 134.773467 28.8 
L 139.091445 68.470506 
L 137.323822 68.470506 
L 136.118624 56.589228 
L 131.411872 56.589228 
L 130.123735 68.470506 
L 128.472743 68.470506 
L 132.951415 28.8 
z
M 133.785982 28.8 
L 133.785982 28.8 
z
" style="fill:#008000;"/>
   </g>
   <g id="patch_19">
    <path clip-path="url(#pa08ec0c4d5)" d="M 145.12678 123.96108 
Q 146.764906 123.96108 147.959953 124.875949 
Q 149.691758 126.1897 150.079136 129.483227 
L 148.52203 129.483227 
Q 148.235927 127.642511 147.342174 126.800832 
Q 146.448421 125.959153 145.086269 125.959153 
Q 143.473462 125.959153 142.369563 127.712041 
Q 141.265664 129.46127 141.265664 132.926792 
Q 141.265664 135.920242 142.174608 137.801212 
Q 143.086085 139.682181 145.141971 139.682181 
Q 146.7168 139.682181 147.749807 138.364771 
Q 148.782813 137.0437 148.8056 134.090505 
L 145.16729 134.090505 
L 145.16729 132.205875 
L 150.269027 132.205875 
L 150.269027 141.193544 
L 149.256275 141.193544 
L 148.876493 139.030795 
Q 148.078951 140.300632 147.461172 140.794661 
Q 146.423102 141.64 144.825486 141.64 
Q 142.762004 141.64 141.273259 139.707798 
Q 139.650324 137.281566 139.650324 133.051214 
Q 139.650324 128.83184 141.232749 126.339738 
Q 142.736685 123.96108 145.12678 123.96108 
z
M 144.865996 123.935464 
L 144.865996 123.935464 
z
" style="fill:#ffa600;"/>
   </g>
   <g id="patch_20">
    <path clip-path="url(#pa08ec0c4d5)" d="M 150.269027 98.59059 
L 150.269027 101.610335 
L 145.859058 101.610335 
L 145.859058 123.935464 
L 144.060293 123.935464 
L 144.060293 101.610335 
L 139.650324 101.610335 
L 139.650324 98.59059 
L 150.269027 98.59059 
z
" style="fill:#ff0000;"/>
   </g>
   <g id="patch_21">
    <path clip-path="url(#pa08ec0c4d5)" d="M 145.233488 65.605379 
Q 147.507434 65.605379 148.761755 68.743579 
Q 150.016076 71.874957 150.154286 75.859107 
L 148.573998 75.859107 
Q 148.305401 72.836884 147.502218 71.069941 
Q 146.699036 69.296176 145.249134 69.296176 
Q 143.481089 69.296176 142.393663 72.550352 
Q 141.306237 75.797707 141.306237 82.510726 
Q 141.306237 88.016221 142.286746 91.440952 
Q 143.269862 94.858861 145.217841 94.858861 
Q 147.009356 94.858861 147.948141 91.256753 
Q 148.443611 89.360189 148.688738 86.262922 
L 150.269027 86.262922 
Q 150.0578 91.208998 148.868672 94.558685 
Q 147.44224 98.59059 145.022261 98.59059 
Q 142.936072 98.59059 141.517464 95.281836 
Q 139.650324 90.915645 139.650324 81.787576 
Q 139.650324 74.863069 141.053287 70.428656 
Q 142.568381 65.605379 145.233488 65.605379 
z
M 144.907521 65.605379 
L 144.907521 65.605379 
z
" style="fill:#0000ff;"/>
   </g>
   <g id="patch_22">
    <path clip-path="url(#pa08ec0c4d5)" d="M 146.77784 50.525676 
L 144.971339 34.267495 
L 143.050797 50.525676 
L 146.77784 50.525676 
z
M 144.128996 28.8 
L 145.951048 28.8 
L 150.269027 65.605379 
L 148.501403 65.605379 
L 147.296205 54.582204 
L 142.589453 54.582204 
L 141.301316 65.605379 
L 139.650324 65.605379 
L 144.128996 28.8 
z
M 144.963563 28.8 
L 144.963563 28.8 
z
" style="fill:#008000;"/>
   </g>
   <g id="patch_23">
    <path clip-path="url(#pa08ec0c4d5)" d="M 156.304361 121.100099 
Q 157.942487 121.100099 159.137534 122.163021 
Q 160.869339 123.689377 161.256717 127.515895 
L 159.699611 127.515895 
Q 159.413509 125.377296 158.519755 124.399408 
Q 157.626002 123.42152 156.263851 123.42152 
Q 154.651043 123.42152 153.547144 125.458078 
Q 152.443245 127.490385 152.443245 131.516733 
Q 152.443245 134.994613 153.352189 137.17998 
Q 154.263666 139.365347 156.319552 139.365347 
Q 157.894381 139.365347 158.927388 137.83474 
Q 159.960394 136.299881 159.983181 132.868769 
L 156.344871 132.868769 
L 156.344871 130.67915 
L 161.446608 130.67915 
L 161.446608 141.121294 
L 160.433856 141.121294 
L 160.054074 138.608547 
Q 159.256532 140.083882 158.638753 140.65786 
Q 157.600683 141.64 156.003067 141.64 
Q 153.939585 141.64 152.45084 139.395109 
Q 150.827906 136.576241 150.827906 131.66129 
Q 150.827906 126.759095 152.41033 123.863696 
Q 153.914267 121.100099 156.304361 121.100099 
z
M 156.043577 121.070337 
L 156.043577 121.070337 
z
" style="fill:#ffa600;"/>
   </g>
   <g id="patch_24">
    <path clip-path="url(#pa08ec0c4d5)" d="M 161.446608 96.680506 
L 161.446608 99.586461 
L 157.036639 99.586461 
L 157.036639 121.070337 
L 155.237874 121.070337 
L 155.237874 99.586461 
L 150.827906 99.586461 
L 150.827906 96.680506 
L 161.446608 96.680506 
z
" style="fill:#ff0000;"/>
   </g>
   <g id="patch_25">
    <path clip-path="url(#pa08ec0c4d5)" d="M 157.955421 83.165982 
L 156.14892 68.595298 
L 154.228378 83.165982 
L 157.955421 83.165982 
z
M 155.306577 63.695295 
L 157.128629 63.695295 
L 161.446608 96.680506 
L 159.678984 96.680506 
L 158.473786 86.801468 
L 153.767034 86.801468 
L 152.478897 96.680506 
L 150.827906 96.680506 
L 155.306577 63.695295 
z
M 156.141144 63.695295 
L 156.141144 63.695295 
z
" style="fill:#008000;"/>
   </g>
   <g id="patch_26">
    <path clip-path="url(#pa08ec0c4d5)" d="M 156.411069 28.8 
Q 158.685015 28.8 159.939336 32.119925 
Q 161.193657 35.432632 161.331867 39.647493 
L 159.751579 39.647493 
Q 159.482982 36.450261 158.679799 34.580999 
Q 157.876617 32.70452 156.426715 32.70452 
Q 154.65867 32.70452 153.571244 36.147138 
Q 152.483818 39.582538 152.483818 46.68429 
Q 152.483818 52.508592 153.464327 56.131641 
Q 154.447444 59.747472 156.395423 59.747472 
Q 158.186937 59.747472 159.125722 55.936776 
Q 159.621192 53.930386 159.866319 50.653765 
L 161.446608 50.653765 
Q 161.235381 55.886255 160.046253 59.429914 
Q 158.619822 63.695295 156.199842 63.695295 
Q 154.113653 63.695295 152.695045 60.19494 
Q 150.827906 55.575914 150.827906 45.919264 
Q 150.827906 38.593778 152.230868 33.90258 
Q 153.745962 28.8 156.411069 28.8 
z
M 156.085102 28.8 
L 156.085102 28.8 
z
" style="fill:#0000ff;"/>
   </g>
   <g id="patch_27">
    <path clip-path="url(#pa08ec0c4d5)" d="M 167.481942 123.96108 
Q 169.120068 123.96108 170.315115 124.875949 
Q 172.04692 126.1897 172.434298 129.483227 
L 170.877192 129.483227 
Q 170.59109 127.642511 169.697336 126.800832 
Q 168.803583 125.959153 167.441432 125.959153 
Q 165.828625 125.959153 164.724725 127.712041 
Q 163.620826 129.46127 163.620826 132.926792 
Q 163.620826 135.920242 164.52977 137.801212 
Q 165.441247 139.682181 167.497133 139.682181 
Q 169.071962 139.682181 170.104969 138.364771 
Q 171.137976 137.0437 171.160763 134.090505 
L 167.522452 134.090505 
L 167.522452 132.205875 
L 172.624189 132.205875 
L 172.624189 141.193544 
L 171.611437 141.193544 
L 171.231655 139.030795 
Q 170.434113 140.300632 169.816335 140.794661 
Q 168.778264 141.64 167.180648 141.64 
Q 165.117166 141.64 163.628421 139.707798 
Q 162.005487 137.281566 162.005487 133.051214 
Q 162.005487 128.83184 163.587911 126.339738 
Q 165.091848 123.96108 167.481942 123.96108 
z
M 167.221158 123.935464 
L 167.221158 123.935464 
z
" style="fill:#ffa600;"/>
   </g>
   <g id="patch_28">
    <path clip-path="url(#pa08ec0c4d5)" d="M 169.133002 113.942592 
L 167.326501 103.168779 
L 165.40596 113.942592 
L 169.133002 113.942592 
z
M 166.484158 99.545632 
L 168.30621 99.545632 
L 172.624189 123.935464 
L 170.856565 123.935464 
L 169.651367 116.630733 
L 164.944615 116.630733 
L 163.656478 123.935464 
L 162.005487 123.935464 
L 166.484158 99.545632 
z
M 167.318725 99.545632 
L 167.318725 99.545632 
z
" style="fill:#008000;"/>
   </g>
   <g id="patch_29">
    <path clip-path="url(#pa08ec0c4d5)" d="M 172.624189 75.155801 
L 172.624189 78.061756 
L 168.21422 78.061756 
L 168.21422 99.545632 
L 166.415455 99.545632 
L 166.415455 78.061756 
L 162.005487 78.061756 
L 162.005487 75.155801 
L 172.624189 75.155801 
z
" style="fill:#ff0000;"/>
   </g>
   <g id="patch_30">
    <path clip-path="url(#pa08ec0c4d5)" d="M 167.58865 28.8 
Q 169.862596 28.8 171.116917 33.210273 
Q 172.371238 37.610958 172.509448 43.210087 
L 170.92916 43.210087 
Q 170.660563 38.962802 169.857381 36.479627 
Q 169.054198 33.986864 167.604296 33.986864 
Q 165.836251 33.986864 164.748825 38.560125 
Q 163.661399 43.123799 163.661399 52.557947 
Q 163.661399 60.2951 164.641908 65.108049 
Q 165.625025 69.911412 167.573004 69.911412 
Q 169.364518 69.911412 170.303304 64.849186 
Q 170.798773 62.183847 171.043901 57.831099 
L 172.624189 57.831099 
Q 172.412962 64.782073 171.223834 69.489559 
Q 169.797403 75.155801 167.377423 75.155801 
Q 165.291234 75.155801 163.872626 70.50584 
Q 162.005487 64.369808 162.005487 51.541667 
Q 162.005487 41.810304 163.408449 35.578397 
Q 164.923544 28.8 167.58865 28.8 
z
M 167.262683 28.8 
L 167.262683 28.8 
z
" style="fill:#0000ff;"/>
   </g>
   <g id="patch_31">
    <path clip-path="url(#pa08ec0c4d5)" d="M 178.659523 123.96108 
Q 180.297649 123.96108 181.492696 124.875949 
Q 183.224501 126.1897 183.611879 129.483227 
L 182.054773 129.483227 
Q 181.768671 127.642511 180.874917 126.800832 
Q 179.981164 125.959153 178.619013 125.959153 
Q 177.006206 125.959153 175.902306 127.712041 
Q 174.798407 129.46127 174.798407 132.926792 
Q 174.798407 135.920242 175.707352 137.801212 
Q 176.618828 139.682181 178.674714 139.682181 
Q 180.249543 139.682181 181.28255 138.364771 
Q 182.315557 137.0437 182.338344 134.090505 
L 178.700033 134.090505 
L 178.700033 132.205875 
L 183.80177 132.205875 
L 183.80177 141.193544 
L 182.789018 141.193544 
L 182.409236 139.030795 
Q 181.611694 140.300632 180.993916 140.794661 
Q 179.955845 141.64 178.358229 141.64 
Q 176.294748 141.64 174.806003 139.707798 
Q 173.183068 137.281566 173.183068 133.051214 
Q 173.183068 128.83184 174.765492 126.339738 
Q 176.269429 123.96108 178.659523 123.96108 
z
M 178.398739 123.935464 
L 178.398739 123.935464 
z
" style="fill:#ffa600;"/>
   </g>
   <g id="patch_32">
    <path clip-path="url(#pa08ec0c4d5)" d="M 180.310583 113.160003 
L 178.504082 101.54244 
L 176.583541 113.160003 
L 180.310583 113.160003 
z
M 177.661739 97.635548 
L 179.483791 97.635548 
L 183.80177 123.935464 
L 182.034146 123.935464 
L 180.828948 116.058665 
L 176.122196 116.058665 
L 174.83406 123.935464 
L 173.183068 123.935464 
L 177.661739 97.635548 
z
M 178.496307 97.635548 
L 178.496307 97.635548 
z
" style="fill:#008000;"/>
   </g>
   <g id="patch_33">
    <path clip-path="url(#pa08ec0c4d5)" d="M 183.80177 66.560422 
L 183.80177 70.262903 
L 179.391802 70.262903 
L 179.391802 97.635548 
L 177.593036 97.635548 
L 177.593036 70.262903 
L 173.183068 70.262903 
L 173.183068 66.560422 
L 183.80177 66.560422 
z
" style="fill:#ff0000;"/>
   </g>
   <g id="patch_34">
    <path clip-path="url(#pa08ec0c4d5)" d="M 178.766231 28.8 
Q 181.040177 28.8 182.294498 32.392512 
Q 183.548819 35.977214 183.68703 40.538141 
L 182.106741 40.538141 
Q 181.838145 37.078396 181.034962 35.055656 
Q 180.231779 33.025106 178.781878 33.025106 
Q 177.013832 33.025106 175.926406 36.750385 
Q 174.83898 40.467853 174.83898 48.152704 
Q 174.83898 54.455219 175.819489 58.375743 
Q 176.802606 62.288457 178.750585 62.288457 
Q 180.5421 62.288457 181.480885 58.164878 
Q 181.976355 55.993751 182.221482 52.448099 
L 183.80177 52.448099 
Q 183.590543 58.110209 182.401416 61.944825 
Q 180.974984 66.560422 178.555005 66.560422 
Q 176.468816 66.560422 175.050207 62.772665 
Q 173.183068 57.774388 173.183068 47.324865 
Q 173.183068 39.397909 174.58603 34.321534 
Q 176.101125 28.8 178.766231 28.8 
z
M 178.440264 28.8 
L 178.440264 28.8 
z
" style="fill:#0000ff;"/>
   </g>
   <g id="patch_35">
    <path clip-path="url(#pa08ec0c4d5)" d="M 194.979351 117.250169 
L 194.979351 120.156123 
L 190.569383 120.156123 
L 190.569383 141.64 
L 188.770617 141.64 
L 188.770617 120.156123 
L 184.360649 120.156123 
L 184.360649 117.250169 
L 194.979351 117.250169 
z
" style="fill:#ff0000;"/>
   </g>
   <g id="patch_36">
    <path clip-path="url(#pa08ec0c4d5)" d="M 189.837104 90.988306 
Q 191.47523 90.988306 192.670277 92.347334 
Q 194.402083 94.298899 194.78946 99.191401 
L 193.232354 99.191401 
Q 192.946252 96.457036 192.052498 95.20673 
Q 191.158745 93.956424 189.796594 93.956424 
Q 188.183787 93.956424 187.079887 96.560322 
Q 185.975988 99.158784 185.975988 104.306783 
Q 185.975988 108.753524 186.884933 111.547686 
Q 187.796409 114.341848 189.852295 114.341848 
Q 191.427124 114.341848 192.460131 112.384847 
Q 193.493138 110.42241 193.515925 106.035467 
L 189.877614 106.035467 
L 189.877614 103.235869 
L 194.979351 103.235869 
L 194.979351 116.586963 
L 193.966599 116.586963 
L 193.586817 113.37422 
Q 192.789275 115.260551 192.171497 115.994426 
Q 191.133426 117.250169 189.53581 117.250169 
Q 187.472329 117.250169 185.983584 114.379901 
Q 184.360649 110.775758 184.360649 104.491611 
Q 184.360649 98.223772 185.943074 94.521779 
Q 187.44701 90.988306 189.837104 90.988306 
z
M 189.57632 90.950253 
L 189.57632 90.950253 
z
" style="fill:#ffa600;"/>
   </g>
   <g id="patch_37">
    <path clip-path="url(#pa08ec0c4d5)" d="M 191.488164 78.218318 
L 189.681663 64.491384 
L 187.761122 78.218318 
L 191.488164 78.218318 
z
M 188.83932 59.875126 
L 190.661373 59.875126 
L 194.979351 90.950253 
L 193.211727 90.950253 
L 192.006529 81.643283 
L 187.299777 81.643283 
L 186.011641 90.950253 
L 184.360649 90.950253 
L 188.83932 59.875126 
z
M 189.673888 59.875126 
L 189.673888 59.875126 
z
" style="fill:#008000;"/>
   </g>
   <g id="patch_38">
    <path clip-path="url(#pa08ec0c4d5)" d="M 189.943812 28.8 
Q 192.217758 28.8 193.472079 31.756475 
Q 194.726401 34.706524 194.864611 38.459962 
L 193.284322 38.459962 
Q 193.015726 35.612747 192.212543 33.948123 
Q 191.40936 32.277072 189.959459 32.277072 
Q 188.191414 32.277072 187.103988 35.342808 
Q 186.016561 38.402118 186.016561 44.726404 
Q 186.016561 49.91309 186.99707 53.139504 
Q 187.980187 56.359492 189.928166 56.359492 
Q 191.719681 56.359492 192.658466 52.965972 
Q 193.153936 51.179233 193.399063 48.26132 
L 194.979351 48.26132 
Q 194.768124 52.920982 193.578997 56.076698 
Q 192.152565 59.875126 189.732586 59.875126 
Q 187.646397 59.875126 186.227788 56.757973 
Q 184.360649 52.644616 184.360649 44.045129 
Q 184.360649 37.521602 185.763611 33.343974 
Q 187.278706 28.8 189.943812 28.8 
z
M 189.617845 28.8 
L 189.617845 28.8 
z
" style="fill:#0000ff;"/>
   </g>
   <g id="patch_39">
    <path clip-path="url(#pa08ec0c4d5)" d="M 201.014685 120.146439 
Q 202.652811 120.146439 203.847858 121.258712 
Q 205.579664 122.855936 205.967041 126.860118 
L 204.409935 126.860118 
Q 204.123833 124.622225 203.23008 123.598934 
Q 202.336326 122.575643 200.974175 122.575643 
Q 199.361368 122.575643 198.257469 124.706758 
Q 197.153569 126.833423 197.153569 131.046713 
Q 197.153569 134.68607 198.062514 136.972903 
Q 198.97399 139.259736 201.029876 139.259736 
Q 202.604705 139.259736 203.637712 137.658063 
Q 204.670719 136.051941 204.693506 132.461524 
L 201.055195 132.461524 
L 201.055195 130.170242 
L 206.156932 130.170242 
L 206.156932 141.097211 
L 205.14418 141.097211 
L 204.764399 138.467798 
Q 203.966857 140.011632 203.349078 140.61226 
Q 202.311007 141.64 200.713392 141.64 
Q 198.64991 141.64 197.161165 139.29088 
Q 195.53823 136.341132 195.53823 131.197982 
Q 195.53823 126.06818 197.120655 123.038348 
Q 198.624591 120.146439 201.014685 120.146439 
z
M 200.753902 120.115295 
L 200.753902 120.115295 
z
" style="fill:#ffa600;"/>
   </g>
   <g id="patch_40">
    <path clip-path="url(#pa08ec0c4d5)" d="M 206.156932 96.680506 
L 206.156932 99.472671 
L 201.746964 99.472671 
L 201.746964 120.115295 
L 199.948198 120.115295 
L 199.948198 99.472671 
L 195.53823 99.472671 
L 195.53823 96.680506 
L 206.156932 96.680506 
z
" style="fill:#ff0000;"/>
   </g>
   <g id="patch_41">
    <path clip-path="url(#pa08ec0c4d5)" d="M 201.121393 63.695295 
Q 203.395339 63.695295 204.649661 66.833495 
Q 205.903982 69.964873 206.042192 73.949023 
L 204.461904 73.949023 
Q 204.193307 70.926799 203.390124 69.159856 
Q 202.586941 67.386091 201.13704 67.386091 
Q 199.368995 67.386091 198.281569 70.640268 
Q 197.194143 73.887623 197.194143 80.600642 
Q 197.194143 86.106136 198.174651 89.530868 
Q 199.157768 92.948777 201.105747 92.948777 
Q 202.897262 92.948777 203.836047 89.346669 
Q 204.331517 87.450105 204.576644 84.352838 
L 206.156932 84.352838 
Q 205.945706 89.298914 204.756578 92.648601 
Q 203.330146 96.680506 200.910167 96.680506 
Q 198.823978 96.680506 197.405369 93.371752 
Q 195.53823 89.00556 195.53823 79.877492 
Q 195.53823 72.952985 196.941192 68.518572 
Q 198.456287 63.695295 201.121393 63.695295 
z
M 200.795426 63.695295 
L 200.795426 63.695295 
z
" style="fill:#0000ff;"/>
   </g>
   <g id="patch_42">
    <path clip-path="url(#pa08ec0c4d5)" d="M 202.665746 49.398181 
L 200.859244 33.983749 
L 198.938703 49.398181 
L 202.665746 49.398181 
z
M 200.016902 28.8 
L 201.838954 28.8 
L 206.156932 63.695295 
L 204.389308 63.695295 
L 203.18411 53.244188 
L 198.477358 53.244188 
L 197.189222 63.695295 
L 195.53823 63.695295 
L 200.016902 28.8 
z
M 200.851469 28.8 
L 200.851469 28.8 
z
" style="fill:#008000;"/>
   </g>
   <g id="patch_43">
    <path clip-path="url(#pa08ec0c4d5)" d="M 212.192266 118.239118 
Q 213.830392 118.239118 215.025439 119.450093 
Q 216.757245 121.189053 217.144622 125.548564 
L 215.587517 125.548564 
Q 215.301414 123.112082 214.407661 121.997985 
Q 213.513907 120.883888 212.151756 120.883888 
Q 210.538949 120.883888 209.43505 123.204116 
Q 208.33115 125.5195 208.33115 130.106674 
Q 208.33115 134.068984 209.240095 136.558749 
Q 210.151572 139.048513 212.207458 139.048513 
Q 213.782287 139.048513 214.815293 137.304709 
Q 215.8483 135.556061 215.871087 131.647034 
L 212.232776 131.647034 
L 212.232776 129.152425 
L 217.334513 129.152425 
L 217.334513 141.049044 
L 216.321762 141.049044 
L 215.94198 138.186299 
Q 215.144438 139.867133 214.526659 140.521059 
Q 213.488589 141.64 211.890973 141.64 
Q 209.827491 141.64 208.338746 139.082421 
Q 206.715811 135.870915 206.715811 130.271366 
Q 206.715811 124.686349 208.298236 121.387653 
Q 209.802172 118.239118 212.192266 118.239118 
z
M 211.931483 118.205211 
L 211.931483 118.205211 
z
" style="fill:#ffa600;"/>
   </g>
   <g id="patch_44">
    <path clip-path="url(#pa08ec0c4d5)" d="M 212.298975 91.905295 
Q 214.572921 91.905295 215.827242 94.407459 
Q 217.081563 96.904183 217.219773 100.080843 
L 215.639485 100.080843 
Q 215.370888 97.67115 214.567705 96.262324 
Q 213.764522 94.848057 212.314621 94.848057 
Q 210.546576 94.848057 209.45915 97.442692 
Q 208.371724 100.031887 208.371724 105.384342 
Q 208.371724 109.774007 209.352233 112.504629 
Q 210.335349 115.229812 212.283328 115.229812 
Q 214.074843 115.229812 215.013628 112.357763 
Q 215.509098 110.845586 215.754225 108.376059 
L 217.334513 108.376059 
Q 217.123287 112.319687 215.934159 114.990474 
Q 214.507727 118.205211 212.087748 118.205211 
Q 210.001559 118.205211 208.58295 115.56706 
Q 206.715811 112.085789 206.715811 104.807756 
Q 206.715811 99.286678 208.118773 95.751012 
Q 209.633868 91.905295 212.298975 91.905295 
z
M 211.973008 91.905295 
L 211.973008 91.905295 
z
" style="fill:#0000ff;"/>
   </g>
   <g id="patch_45">
    <path clip-path="url(#pa08ec0c4d5)" d="M 213.843327 79.17336 
L 212.036825 65.446426 
L 210.116284 79.17336 
L 213.843327 79.17336 
z
M 211.194483 60.830169 
L 213.016535 60.830169 
L 217.334513 91.905295 
L 215.566889 91.905295 
L 214.361691 82.598325 
L 209.654939 82.598325 
L 208.366803 91.905295 
L 206.715811 91.905295 
L 211.194483 60.830169 
z
M 212.02905 60.830169 
L 212.02905 60.830169 
z
" style="fill:#008000;"/>
   </g>
   <g id="patch_46">
    <path clip-path="url(#pa08ec0c4d5)" d="M 217.334513 28.8 
L 217.334513 32.616271 
L 212.924545 32.616271 
L 212.924545 60.830169 
L 211.12578 60.830169 
L 211.12578 32.616271 
L 206.715811 32.616271 
L 206.715811 28.8 
L 217.334513 28.8 
z
" style="fill:#ff0000;"/>
   </g>
   <g id="patch_47">
    <path clip-path="url(#pa08ec0c4d5)" d="M 223.369847 120.146439 
Q 225.007973 120.146439 226.20302 121.258712 
Q 227.934826 122.855936 228.322203 126.860118 
L 226.765098 126.860118 
Q 226.478995 124.622225 225.585242 123.598934 
Q 224.691488 122.575643 223.329337 122.575643 
Q 221.71653 122.575643 220.612631 124.706758 
Q 219.508731 126.833423 219.508731 131.046713 
Q 219.508731 134.68607 220.417676 136.972903 
Q 221.329153 139.259736 223.385039 139.259736 
Q 224.959868 139.259736 225.992874 137.658063 
Q 227.025881 136.051941 227.048668 132.461524 
L 223.410357 132.461524 
L 223.410357 130.170242 
L 228.512094 130.170242 
L 228.512094 141.097211 
L 227.499343 141.097211 
L 227.119561 138.467798 
Q 226.322019 140.011632 225.70424 140.61226 
Q 224.66617 141.64 223.068554 141.64 
Q 221.005072 141.64 219.516327 139.29088 
Q 217.893392 136.341132 217.893392 131.197982 
Q 217.893392 126.06818 219.475817 123.038348 
Q 220.979753 120.146439 223.369847 120.146439 
z
M 223.109064 120.115295 
L 223.109064 120.115295 
z
" style="fill:#ffa600;"/>
   </g>
   <g id="patch_48">
    <path clip-path="url(#pa08ec0c4d5)" d="M 223.476556 90.950253 
Q 225.750502 90.950253 227.004823 93.725004 
Q 228.259144 96.493722 228.397354 100.016449 
L 226.817066 100.016449 
Q 226.548469 97.344244 225.745286 95.781938 
Q 224.942103 94.213601 223.492202 94.213601 
Q 221.724157 94.213601 220.636731 97.090897 
Q 219.549305 99.962161 219.549305 105.897714 
Q 219.549305 110.765592 220.529814 113.793689 
Q 221.51293 116.815755 223.460909 116.815755 
Q 225.252424 116.815755 226.191209 113.630824 
Q 226.686679 111.953909 226.931806 109.215351 
L 228.512094 109.215351 
Q 228.300868 113.588599 227.11174 116.550344 
Q 225.685308 120.115295 223.265329 120.115295 
Q 221.17914 120.115295 219.760531 117.189743 
Q 217.893392 113.32922 217.893392 105.258315 
Q 217.893392 99.135767 219.296354 95.214924 
Q 220.811449 90.950253 223.476556 90.950253 
z
M 223.150589 90.950253 
L 223.150589 90.950253 
z
" style="fill:#0000ff;"/>
   </g>
   <g id="patch_49">
    <path clip-path="url(#pa08ec0c4d5)" d="M 228.512094 60.830169 
L 228.512094 64.418861 
L 224.102126 64.418861 
L 224.102126 90.950253 
L 222.303361 90.950253 
L 222.303361 64.418861 
L 217.893392 64.418861 
L 217.893392 60.830169 
L 228.512094 60.830169 
z
" style="fill:#ff0000;"/>
   </g>
   <g id="patch_50">
    <path clip-path="url(#pa08ec0c4d5)" d="M 225.020908 47.706939 
L 223.214407 33.55813 
L 221.293865 47.706939 
L 225.020908 47.706939 
z
M 222.372064 28.8 
L 224.194116 28.8 
L 228.512094 60.830169 
L 226.744471 60.830169 
L 225.539273 51.237165 
L 220.832521 51.237165 
L 219.544384 60.830169 
L 217.893392 60.830169 
L 222.372064 28.8 
z
M 223.206631 28.8 
L 223.206631 28.8 
z
" style="fill:#008000;"/>
   </g>
   <g id="patch_51">
    <path clip-path="url(#pa08ec0c4d5)" d="M 234.547429 117.285458 
Q 236.185554 117.285458 237.380602 118.545784 
Q 239.112407 120.355612 239.499785 124.892786 
L 237.942679 124.892786 
Q 237.656576 122.35701 236.762823 121.19751 
Q 235.86907 120.03801 234.506918 120.03801 
Q 232.894111 120.03801 231.790212 122.452795 
Q 230.686312 124.862538 230.686312 129.636654 
Q 230.686312 133.760441 231.595257 136.351672 
Q 232.506734 138.942902 234.56262 138.942902 
Q 236.137449 138.942902 237.170456 137.128032 
Q 238.203462 135.308122 238.226249 131.239789 
L 234.587939 131.239789 
L 234.587939 128.643517 
L 239.689676 128.643517 
L 239.689676 141.024961 
L 238.676924 141.024961 
L 238.297142 138.04555 
Q 237.4996 139.794883 236.881821 140.475459 
Q 235.843751 141.64 234.246135 141.64 
Q 232.182653 141.64 230.693908 138.978191 
Q 229.070973 135.635806 229.070973 129.808058 
Q 229.070973 123.995434 230.653398 120.562306 
Q 232.157334 117.285458 234.547429 117.285458 
z
M 234.286645 117.250169 
L 234.286645 117.250169 
z
" style="fill:#ffa600;"/>
   </g>
   <g id="patch_52">
    <path clip-path="url(#pa08ec0c4d5)" d="M 236.198489 106.474708 
L 234.391988 94.857145 
L 232.471446 106.474708 
L 236.198489 106.474708 
z
M 233.549645 90.950253 
L 235.371697 90.950253 
L 239.689676 117.250169 
L 237.922052 117.250169 
L 236.716854 109.37337 
L 232.010102 109.37337 
L 230.721965 117.250169 
L 229.070973 117.250169 
L 233.549645 90.950253 
z
M 234.384212 90.950253 
L 234.384212 90.950253 
z
" style="fill:#008000;"/>
   </g>
   <g id="patch_53">
    <path clip-path="url(#pa08ec0c4d5)" d="M 239.689676 60.830169 
L 239.689676 64.418861 
L 235.279707 64.418861 
L 235.279707 90.950253 
L 233.480942 90.950253 
L 233.480942 64.418861 
L 229.070973 64.418861 
L 229.070973 60.830169 
L 239.689676 60.830169 
z
" style="fill:#ff0000;"/>
   </g>
   <g id="patch_54">
    <path clip-path="url(#pa08ec0c4d5)" d="M 234.654137 28.8 
Q 236.928083 28.8 238.182404 31.847338 
Q 239.436725 34.888051 239.574935 38.756845 
L 237.994647 38.756845 
Q 237.72605 35.822126 236.922867 34.106342 
Q 236.119685 32.383934 234.669783 32.383934 
Q 232.901738 32.383934 231.814312 35.543891 
Q 230.726886 38.697223 230.726886 45.215875 
Q 230.726886 50.561966 231.707395 53.887539 
Q 232.690511 57.206487 234.63849 57.206487 
Q 236.430005 57.206487 237.36879 53.708673 
Q 237.86426 51.867021 238.109387 48.859431 
L 239.689676 48.859431 
Q 239.478449 53.662301 238.289321 56.915002 
Q 236.862889 60.830169 234.44291 60.830169 
Q 232.356721 60.830169 230.938113 57.617215 
Q 229.070973 53.377441 229.070973 44.513663 
Q 229.070973 37.789646 230.473936 33.483625 
Q 231.98903 28.8 234.654137 28.8 
z
M 234.32817 28.8 
L 234.32817 28.8 
z
" style="fill:#0000ff;"/>
   </g>
   <g id="patch_55">
    <path clip-path="url(#pa08ec0c4d5)" d="M 245.72501 119.192778 
Q 247.363136 119.192778 248.558183 120.354402 
Q 250.289988 122.022494 250.677366 126.204341 
L 249.12026 126.204341 
Q 248.834158 123.867153 247.940404 122.798459 
Q 247.046651 121.729765 245.6845 121.729765 
Q 244.071692 121.729765 242.967793 123.955437 
Q 241.863894 126.176462 241.863894 130.576693 
Q 241.863894 134.377527 242.772838 136.765826 
Q 243.684315 139.154125 245.740201 139.154125 
Q 247.31503 139.154125 248.348037 137.481386 
Q 249.381043 135.804001 249.40383 132.054279 
L 245.76552 132.054279 
L 245.76552 129.661334 
L 250.867257 129.661334 
L 250.867257 141.073128 
L 249.854505 141.073128 
L 249.474723 138.327048 
Q 248.677181 139.939383 248.059402 140.566659 
Q 247.021332 141.64 245.423716 141.64 
Q 243.360234 141.64 241.871489 139.18665 
Q 240.248555 136.106023 240.248555 130.734674 
Q 240.248555 125.377264 241.830979 122.213001 
Q 243.334916 119.192778 245.72501 119.192778 
z
M 245.464226 119.160253 
L 245.464226 119.160253 
z
" style="fill:#ffa600;"/>
   </g>
   <g id="patch_56">
    <path clip-path="url(#pa08ec0c4d5)" d="M 250.867257 92.860337 
L 250.867257 95.993871 
L 246.457288 95.993871 
L 246.457288 119.160253 
L 244.658523 119.160253 
L 244.658523 95.993871 
L 240.248555 95.993871 
L 240.248555 92.860337 
L 250.867257 92.860337 
z
" style="fill:#ff0000;"/>
   </g>
   <g id="patch_57">
    <path clip-path="url(#pa08ec0c4d5)" d="M 247.37607 79.737108 
L 245.569569 65.588299 
L 243.649027 79.737108 
L 247.37607 79.737108 
z
M 244.727226 60.830169 
L 246.549278 60.830169 
L 250.867257 92.860337 
L 249.099633 92.860337 
L 247.894435 83.267333 
L 243.187683 83.267333 
L 241.899546 92.860337 
L 240.248555 92.860337 
L 244.727226 60.830169 
z
M 245.561793 60.830169 
L 245.561793 60.830169 
z
" style="fill:#008000;"/>
   </g>
   <g id="patch_58">
    <path clip-path="url(#pa08ec0c4d5)" d="M 245.831718 28.8 
Q 248.105664 28.8 249.359985 31.847338 
Q 250.614306 34.888051 250.752516 38.756845 
L 249.172228 38.756845 
Q 248.903631 35.822126 248.100448 34.106342 
Q 247.297266 32.383934 245.847364 32.383934 
Q 244.079319 32.383934 242.991893 35.543891 
Q 241.904467 38.697223 241.904467 45.215875 
Q 241.904467 50.561966 242.884976 53.887539 
Q 243.868093 57.206487 245.816071 57.206487 
Q 247.607586 57.206487 248.546371 53.708673 
Q 249.041841 51.867021 249.286968 48.859431 
L 250.867257 48.859431 
Q 250.65603 53.662301 249.466902 56.915002 
Q 248.040471 60.830169 245.620491 60.830169 
Q 243.534302 60.830169 242.115694 57.617215 
Q 240.248555 53.377441 240.248555 44.513663 
Q 240.248555 37.789646 241.651517 33.483625 
Q 243.166611 28.8 245.831718 28.8 
z
M 245.505751 28.8 
L 245.505751 28.8 
z
" style="fill:#0000ff;"/>
   </g>
   <g id="patch_59">
    <path clip-path="url(#pa08ec0c4d5)" d="M 257.009299 122.025379 
Q 259.283245 122.025379 260.537566 123.891507 
Q 261.791887 125.753577 261.930097 128.122748 
L 260.349809 128.122748 
Q 260.081212 126.325586 259.27803 125.274875 
Q 258.474847 124.220107 257.024945 124.220107 
Q 255.2569 124.220107 254.169474 126.1552 
Q 253.082048 128.086236 253.082048 132.078126 
Q 253.082048 135.351962 254.062557 137.388475 
Q 255.045674 139.420931 256.993653 139.420931 
Q 258.785167 139.420931 259.723952 137.278942 
Q 260.219422 136.151152 260.46455 134.309365 
L 262.044838 134.309365 
Q 261.833611 137.250544 260.644483 139.242432 
Q 259.218052 141.64 256.798072 141.64 
Q 254.711883 141.64 253.293275 139.672453 
Q 251.426136 137.076102 251.426136 131.648105 
Q 251.426136 127.530455 252.829098 124.893536 
Q 254.344193 122.025379 257.009299 122.025379 
z
M 256.683332 122.025379 
L 256.683332 122.025379 
z
" style="fill:#0000ff;"/>
   </g>
   <g id="patch_60">
    <path clip-path="url(#pa08ec0c4d5)" d="M 258.553651 111.249918 
L 256.74715 99.632356 
L 254.826609 111.249918 
L 258.553651 111.249918 
z
M 255.904807 95.725464 
L 257.726859 95.725464 
L 262.044838 122.025379 
L 260.277214 122.025379 
L 259.072016 114.14858 
L 254.365264 114.14858 
L 253.077127 122.025379 
L 251.426136 122.025379 
L 255.904807 95.725464 
z
M 256.739374 95.725464 
L 256.739374 95.725464 
z
" style="fill:#008000;"/>
   </g>
   <g id="patch_61">
    <path clip-path="url(#pa08ec0c4d5)" d="M 262.044838 68.470506 
L 262.044838 71.717829 
L 257.634869 71.717829 
L 257.634869 95.725464 
L 255.836104 95.725464 
L 255.836104 71.717829 
L 251.426136 71.717829 
L 251.426136 68.470506 
L 262.044838 68.470506 
z
" style="fill:#ff0000;"/>
   </g>
   <g id="patch_62">
    <path clip-path="url(#pa08ec0c4d5)" d="M 256.902591 28.857398 
Q 258.540717 28.857398 259.735764 30.907342 
Q 261.467569 33.851061 261.854947 41.230857 
L 260.297841 41.230857 
Q 260.011739 37.106371 259.117985 35.220423 
Q 258.224232 33.334475 256.862081 33.334475 
Q 255.249274 33.334475 254.145374 37.262167 
Q 253.041475 41.181659 253.041475 48.946844 
Q 253.041475 55.654259 253.950419 59.868943 
Q 254.861896 64.083627 256.917782 64.083627 
Q 258.492611 64.083627 259.525618 61.131708 
Q 260.558625 58.17159 260.581411 51.554372 
L 256.943101 51.554372 
L 256.943101 47.331489 
L 262.044838 47.331489 
L 262.044838 67.470134 
L 261.032086 67.470134 
L 260.652304 62.624067 
Q 259.854762 65.469389 259.236984 66.576358 
Q 258.198913 68.470506 256.601297 68.470506 
Q 254.537815 68.470506 253.04907 64.141025 
Q 251.426136 58.704575 251.426136 49.225637 
Q 251.426136 39.771297 253.00856 34.187251 
Q 254.512497 28.857398 256.902591 28.857398 
z
M 256.641807 28.8 
L 256.641807 28.8 
z
" style="fill:#ffa600;"/>
   </g>
   <g id="patch_63">
    <path clip-path="url(#pa08ec0c4d5)" d="M 268.18688 125.845548 
Q 270.460826 125.845548 271.715147 127.348226 
Q 272.969468 128.847637 273.107678 130.755385 
L 271.52739 130.755385 
Q 271.258793 129.308241 270.455611 128.462168 
Q 269.652428 127.612828 268.202527 127.612828 
Q 266.434481 127.612828 265.347055 129.17104 
Q 264.259629 130.725985 264.259629 133.940409 
Q 264.259629 136.576629 265.240138 138.216508 
Q 266.223255 139.85312 268.171234 139.85312 
Q 269.962749 139.85312 270.901534 138.128307 
Q 271.397003 137.220167 271.642131 135.737089 
L 273.222419 135.737089 
Q 273.011192 138.10544 271.822065 139.709386 
Q 270.395633 141.64 267.975654 141.64 
Q 265.889465 141.64 264.470856 140.055655 
Q 262.603717 137.964972 262.603717 133.59414 
Q 262.603717 130.278448 264.006679 128.155099 
Q 265.521774 125.845548 268.18688 125.845548 
z
M 267.860913 125.845548 
L 267.860913 125.845548 
z
" style="fill:#0000ff;"/>
   </g>
   <g id="patch_64">
    <path clip-path="url(#pa08ec0c4d5)" d="M 269.731232 114.678792 
L 267.924731 102.639356 
L 266.00419 114.678792 
L 269.731232 114.678792 
z
M 267.082388 98.59059 
L 268.90444 98.59059 
L 273.222419 125.845548 
L 271.454795 125.845548 
L 270.249597 117.682715 
L 265.542845 117.682715 
L 264.254709 125.845548 
L 262.603717 125.845548 
L 267.082388 98.59059 
z
M 267.916956 98.59059 
L 267.916956 98.59059 
z
" style="fill:#008000;"/>
   </g>
   <g id="patch_65">
    <path clip-path="url(#pa08ec0c4d5)" d="M 273.222419 66.560422 
L 273.222419 70.376693 
L 268.812451 70.376693 
L 268.812451 98.59059 
L 267.013685 98.59059 
L 267.013685 70.376693 
L 262.603717 70.376693 
L 262.603717 66.560422 
L 273.222419 66.560422 
z
" style="fill:#ff0000;"/>
   </g>
   <g id="patch_66">
    <path clip-path="url(#pa08ec0c4d5)" d="M 268.080172 28.854635 
Q 269.718298 28.854635 270.913345 30.805876 
Q 272.64515 33.607859 273.032528 40.632327 
L 271.475422 40.632327 
Q 271.18932 36.70643 270.295566 34.911288 
Q 269.401813 33.116146 268.039662 33.116146 
Q 266.426855 33.116146 265.322955 36.854724 
Q 264.219056 40.585497 264.219056 47.976799 
Q 264.219056 54.361261 265.128001 58.373013 
Q 266.039477 62.384765 268.095363 62.384765 
Q 269.670192 62.384765 270.703199 59.574978 
Q 271.736206 56.757385 271.758993 50.458778 
L 268.120682 50.458778 
L 268.120682 46.439221 
L 273.222419 46.439221 
L 273.222419 65.608216 
L 272.209667 65.608216 
L 271.829885 60.995481 
Q 271.032343 63.703804 270.414565 64.757475 
Q 269.376494 66.560422 267.778878 66.560422 
Q 265.715397 66.560422 264.226651 62.4394 
Q 262.603717 57.264708 262.603717 48.242168 
Q 262.603717 39.243043 264.186141 33.927862 
Q 265.690078 28.854635 268.080172 28.854635 
z
M 267.819388 28.8 
L 267.819388 28.8 
z
" style="fill:#ffa600;"/>
   </g>
   <g id="patch_67">
    <path clip-path="url(#pa08ec0c4d5)" d="M 279.364461 125.845548 
Q 281.638407 125.845548 282.892728 127.348226 
Q 284.14705 128.847637 284.28526 130.755385 
L 282.704971 130.755385 
Q 282.436375 129.308241 281.633192 128.462168 
Q 280.830009 127.612828 279.380108 127.612828 
Q 277.612063 127.612828 276.524636 129.17104 
Q 275.43721 130.725985 275.43721 133.940409 
Q 275.43721 136.576629 276.417719 138.216508 
Q 277.400836 139.85312 279.348815 139.85312 
Q 281.14033 139.85312 282.079115 138.128307 
Q 282.574585 137.220167 282.819712 135.737089 
L 284.4 135.737089 
Q 284.188773 138.10544 282.999646 139.709386 
Q 281.573214 141.64 279.153235 141.64 
Q 277.067046 141.64 275.648437 140.055655 
Q 273.781298 137.964972 273.781298 133.59414 
Q 273.781298 130.278448 275.18426 128.155099 
Q 276.699355 125.845548 279.364461 125.845548 
z
M 279.038494 125.845548 
L 279.038494 125.845548 
z
" style="fill:#0000ff;"/>
   </g>
   <g id="patch_68">
    <path clip-path="url(#pa08ec0c4d5)" d="M 284.4 110.051096 
L 284.4 111.932944 
L 279.990032 111.932944 
L 279.990032 125.845548 
L 278.191266 125.845548 
L 278.191266 111.932944 
L 273.781298 111.932944 
L 273.781298 110.051096 
L 284.4 110.051096 
z
" style="fill:#ff0000;"/>
   </g>
   <g id="patch_69">
    <path clip-path="url(#pa08ec0c4d5)" d="M 279.257753 88.557535 
Q 280.895879 88.557535 282.090926 89.669808 
Q 283.822732 91.267032 284.210109 95.271214 
L 282.653003 95.271214 
Q 282.366901 93.033321 281.473147 92.01003 
Q 280.579394 90.986739 279.217243 90.986739 
Q 277.604436 90.986739 276.500536 93.117854 
Q 275.396637 95.24452 275.396637 99.457809 
Q 275.396637 103.097166 276.305582 105.383999 
Q 277.217058 107.670832 279.272944 107.670832 
Q 280.847773 107.670832 281.88078 106.069159 
Q 282.913787 104.463037 282.936574 100.87262 
L 279.298263 100.87262 
L 279.298263 98.581338 
L 284.4 98.581338 
L 284.4 109.508307 
L 283.387248 109.508307 
L 283.007466 106.878894 
Q 282.209924 108.422729 281.592146 109.023356 
Q 280.554075 110.051096 278.956459 110.051096 
Q 276.892978 110.051096 275.404233 107.701976 
Q 273.781298 104.752228 273.781298 99.609078 
Q 273.781298 94.479276 275.363723 91.449444 
Q 276.867659 88.557535 279.257753 88.557535 
z
M 278.996969 88.526391 
L 278.996969 88.526391 
z
" style="fill:#ffa600;"/>
   </g>
   <g id="patch_70">
    <path clip-path="url(#pa08ec0c4d5)" d="M 280.908813 64.055613 
L 279.102312 37.672446 
L 277.181771 64.055613 
L 280.908813 64.055613 
z
M 278.259969 28.8 
L 280.082022 28.8 
L 284.4 88.526391 
L 282.632376 88.526391 
L 281.427178 70.638396 
L 276.720426 70.638396 
L 275.43229 88.526391 
L 273.781298 88.526391 
L 278.259969 28.8 
z
M 279.094537 28.8 
L 279.094537 28.8 
z
" style="fill:#008000;"/>
   </g>
   <g id="matplotlib.axis_1">
    <g id="xtick_1">
     <g id="text_1">
      <!-- 0 -->
      <g style="fill:#262626;" transform="translate(94.688414 162.986875)scale(0.2 -0.2)">
       <defs>
        <path d="M 1731 4475 
Q 2600 4475 2988 3759 
Q 3288 3206 3288 2244 
Q 3288 1331 3016 734 
Q 2622 -122 1728 -122 
Q 922 -122 528 578 
Q 200 1163 200 2147 
Q 200 2909 397 3456 
Q 766 4475 1731 4475 
z
M 1725 391 
Q 2163 391 2422 778 
Q 2681 1166 2681 2222 
Q 2681 2984 2493 3476 
Q 2306 3969 1766 3969 
Q 1269 3969 1039 3501 
Q 809 3034 809 2125 
Q 809 1441 956 1025 
Q 1181 391 1725 391 
z
" id="Helvetica-30" transform="scale(0.015625)"/>
       </defs>
       <use xlink:href="#Helvetica-30"/>
      </g>
     </g>
    </g>
    <g id="xtick_2">
     <g id="text_2">
      <!-- 10 -->
      <g style="fill:#262626;" transform="translate(200.903287 162.986875)scale(0.2 -0.2)">
       <defs>
        <path d="M 613 3169 
L 613 3600 
Q 1222 3659 1462 3798 
Q 1703 3938 1822 4456 
L 2266 4456 
L 2266 0 
L 1666 0 
L 1666 3169 
L 613 3169 
z
" id="Helvetica-31" transform="scale(0.015625)"/>
       </defs>
       <use xlink:href="#Helvetica-31"/>
       <use x="55.615234" xlink:href="#Helvetica-30"/>
      </g>
     </g>
    </g>
    <g id="text_3">
     <!-- Position -->
     <g style="fill:#262626;" transform="translate(145.20125 189.089219)scale(0.25 -0.25)">
      <defs>
       <path d="M 547 4591 
L 2613 4591 
Q 3225 4591 3600 4245 
Q 3975 3900 3975 3275 
Q 3975 2738 3640 2339 
Q 3306 1941 2613 1941 
L 1169 1941 
L 1169 0 
L 547 0 
L 547 4591 
z
M 3347 3272 
Q 3347 3778 2972 3959 
Q 2766 4056 2406 4056 
L 1169 4056 
L 1169 2466 
L 2406 2466 
Q 2825 2466 3086 2644 
Q 3347 2822 3347 3272 
z
" id="Helvetica-50" transform="scale(0.015625)"/>
       <path d="M 1741 363 
Q 2300 363 2508 786 
Q 2716 1209 2716 1728 
Q 2716 2197 2566 2491 
Q 2328 2953 1747 2953 
Q 1231 2953 997 2559 
Q 763 2166 763 1609 
Q 763 1075 997 719 
Q 1231 363 1741 363 
z
M 1763 3444 
Q 2409 3444 2856 3012 
Q 3303 2581 3303 1744 
Q 3303 934 2909 406 
Q 2516 -122 1688 -122 
Q 997 -122 590 345 
Q 184 813 184 1600 
Q 184 2444 612 2944 
Q 1041 3444 1763 3444 
z
M 1744 3428 
L 1744 3428 
z
" id="Helvetica-6f" transform="scale(0.015625)"/>
       <path d="M 747 1050 
Q 772 769 888 619 
Q 1100 347 1625 347 
Q 1938 347 2175 483 
Q 2413 619 2413 903 
Q 2413 1119 2222 1231 
Q 2100 1300 1741 1391 
L 1294 1503 
Q 866 1609 663 1741 
Q 300 1969 300 2372 
Q 300 2847 642 3140 
Q 984 3434 1563 3434 
Q 2319 3434 2653 2991 
Q 2863 2709 2856 2384 
L 2325 2384 
Q 2309 2575 2191 2731 
Q 1997 2953 1519 2953 
Q 1200 2953 1036 2831 
Q 872 2709 872 2509 
Q 872 2291 1088 2159 
Q 1213 2081 1456 2022 
L 1828 1931 
Q 2434 1784 2641 1647 
Q 2969 1431 2969 969 
Q 2969 522 2630 197 
Q 2291 -128 1597 -128 
Q 850 -128 539 211 
Q 228 550 206 1050 
L 747 1050 
z
M 1578 3428 
L 1578 3428 
z
" id="Helvetica-73" transform="scale(0.015625)"/>
       <path d="M 413 3331 
L 984 3331 
L 984 0 
L 413 0 
L 413 3331 
z
M 413 4591 
L 984 4591 
L 984 3953 
L 413 3953 
L 413 4591 
z
" id="Helvetica-69" transform="scale(0.015625)"/>
       <path d="M 525 4281 
L 1094 4281 
L 1094 3347 
L 1628 3347 
L 1628 2888 
L 1094 2888 
L 1094 703 
Q 1094 528 1213 469 
Q 1278 434 1431 434 
Q 1472 434 1519 436 
Q 1566 438 1628 444 
L 1628 0 
Q 1531 -28 1426 -40 
Q 1322 -53 1200 -53 
Q 806 -53 665 148 
Q 525 350 525 672 
L 525 2888 
L 72 2888 
L 72 3347 
L 525 3347 
L 525 4281 
z
" id="Helvetica-74" transform="scale(0.015625)"/>
       <path d="M 413 3347 
L 947 3347 
L 947 2872 
Q 1184 3166 1450 3294 
Q 1716 3422 2041 3422 
Q 2753 3422 3003 2925 
Q 3141 2653 3141 2147 
L 3141 0 
L 2569 0 
L 2569 2109 
Q 2569 2416 2478 2603 
Q 2328 2916 1934 2916 
Q 1734 2916 1606 2875 
Q 1375 2806 1200 2600 
Q 1059 2434 1017 2257 
Q 975 2081 975 1753 
L 975 0 
L 413 0 
L 413 3347 
z
M 1734 3428 
L 1734 3428 
z
" id="Helvetica-6e" transform="scale(0.015625)"/>
      </defs>
      <use xlink:href="#Helvetica-50"/>
      <use x="66.699219" xlink:href="#Helvetica-6f"/>
      <use x="122.314453" xlink:href="#Helvetica-73"/>
      <use x="172.314453" xlink:href="#Helvetica-69"/>
      <use x="194.53125" xlink:href="#Helvetica-74"/>
      <use x="222.314453" xlink:href="#Helvetica-69"/>
      <use x="244.53125" xlink:href="#Helvetica-6f"/>
      <use x="300.146484" xlink:href="#Helvetica-6e"/>
     </g>
    </g>
   </g>
   <g id="matplotlib.axis_2">
    <g id="ytick_1">
     <g id="text_4">
      <!-- 0 -->
      <g style="fill:#262626;" transform="translate(76.818125 148.813438)scale(0.2 -0.2)">
       <use xlink:href="#Helvetica-30"/>
      </g>
     </g>
    </g>
    <g id="ytick_2">
     <g id="text_5">
      <!-- 0.25 -->
      <g style="fill:#262626;" transform="translate(49.018125 120.603437)scale(0.2 -0.2)">
       <defs>
        <path d="M 547 681 
L 1200 681 
L 1200 0 
L 547 0 
L 547 681 
z
" id="Helvetica-2e" transform="scale(0.015625)"/>
        <path d="M 200 0 
Q 231 578 439 1006 
Q 647 1434 1250 1784 
L 1850 2131 
Q 2253 2366 2416 2531 
Q 2672 2791 2672 3125 
Q 2672 3516 2437 3745 
Q 2203 3975 1813 3975 
Q 1234 3975 1013 3538 
Q 894 3303 881 2888 
L 309 2888 
Q 319 3472 525 3841 
Q 891 4491 1816 4491 
Q 2584 4491 2939 4075 
Q 3294 3659 3294 3150 
Q 3294 2613 2916 2231 
Q 2697 2009 2131 1694 
L 1703 1456 
Q 1397 1288 1222 1134 
Q 909 863 828 531 
L 3272 531 
L 3272 0 
L 200 0 
z
" id="Helvetica-32" transform="scale(0.015625)"/>
        <path d="M 791 1141 
Q 847 659 1238 475 
Q 1438 381 1700 381 
Q 2200 381 2440 700 
Q 2681 1019 2681 1406 
Q 2681 1875 2395 2131 
Q 2109 2388 1709 2388 
Q 1419 2388 1211 2275 
Q 1003 2163 856 1963 
L 369 1991 
L 709 4400 
L 3034 4400 
L 3034 3856 
L 1131 3856 
L 941 2613 
Q 1097 2731 1238 2791 
Q 1488 2894 1816 2894 
Q 2431 2894 2859 2497 
Q 3288 2100 3288 1491 
Q 3288 856 2895 371 
Q 2503 -113 1644 -113 
Q 1097 -113 676 195 
Q 256 503 206 1141 
L 791 1141 
z
" id="Helvetica-35" transform="scale(0.015625)"/>
       </defs>
       <use xlink:href="#Helvetica-30"/>
       <use x="55.615234" xlink:href="#Helvetica-2e"/>
       <use x="83.398438" xlink:href="#Helvetica-32"/>
       <use x="139.013672" xlink:href="#Helvetica-35"/>
      </g>
     </g>
    </g>
    <g id="ytick_3">
     <g id="text_6">
      <!-- 0.50 -->
      <g style="fill:#262626;" transform="translate(49.018125 92.393438)scale(0.2 -0.2)">
       <use xlink:href="#Helvetica-30"/>
       <use x="55.615234" xlink:href="#Helvetica-2e"/>
       <use x="83.398438" xlink:href="#Helvetica-35"/>
       <use x="139.013672" xlink:href="#Helvetica-30"/>
      </g>
     </g>
    </g>
    <g id="ytick_4">
     <g id="text_7">
      <!-- 0.75 -->
      <g style="fill:#262626;" transform="translate(49.018125 64.183437)scale(0.2 -0.2)">
       <defs>
        <path d="M 3347 4400 
L 3347 3909 
Q 3131 3700 2773 3181 
Q 2416 2663 2141 2063 
Q 1869 1478 1728 997 
Q 1638 688 1494 0 
L 872 0 
Q 1084 1281 1809 2550 
Q 2238 3294 2709 3834 
L 234 3834 
L 234 4400 
L 3347 4400 
z
" id="Helvetica-37" transform="scale(0.015625)"/>
       </defs>
       <use xlink:href="#Helvetica-30"/>
       <use x="55.615234" xlink:href="#Helvetica-2e"/>
       <use x="83.398438" xlink:href="#Helvetica-37"/>
       <use x="139.013672" xlink:href="#Helvetica-35"/>
      </g>
     </g>
    </g>
    <g id="ytick_5">
     <g id="text_8">
      <!-- 1.0 -->
      <g style="fill:#262626;" transform="translate(60.14 35.973437)scale(0.2 -0.2)">
       <use xlink:href="#Helvetica-31"/>
       <use x="55.615234" xlink:href="#Helvetica-2e"/>
       <use x="83.398438" xlink:href="#Helvetica-30"/>
      </g>
     </g>
    </g>
    <g id="text_9">
     <!-- Probability -->
     <g style="fill:#262626;" transform="translate(39.65875 143.579375)rotate(-90)scale(0.25 -0.25)">
      <defs>
       <path d="M 428 3347 
L 963 3347 
L 963 2769 
Q 1028 2938 1284 3180 
Q 1541 3422 1875 3422 
Q 1891 3422 1928 3419 
Q 1966 3416 2056 3406 
L 2056 2813 
Q 2006 2822 1964 2825 
Q 1922 2828 1872 2828 
Q 1447 2828 1219 2554 
Q 991 2281 991 1925 
L 991 0 
L 428 0 
L 428 3347 
z
" id="Helvetica-72" transform="scale(0.015625)"/>
       <path d="M 369 4606 
L 916 4606 
L 916 2941 
Q 1100 3181 1356 3307 
Q 1613 3434 1913 3434 
Q 2538 3434 2927 3004 
Q 3316 2575 3316 1738 
Q 3316 944 2931 419 
Q 2547 -106 1866 -106 
Q 1484 -106 1222 78 
Q 1066 188 888 428 
L 888 0 
L 369 0 
L 369 4606 
z
M 1831 391 
Q 2288 391 2514 753 
Q 2741 1116 2741 1709 
Q 2741 2238 2514 2584 
Q 2288 2931 1847 2931 
Q 1463 2931 1173 2647 
Q 884 2363 884 1709 
Q 884 1238 1003 944 
Q 1225 391 1831 391 
z
" id="Helvetica-62" transform="scale(0.015625)"/>
       <path d="M 844 891 
Q 844 647 1022 506 
Q 1200 366 1444 366 
Q 1741 366 2019 503 
Q 2488 731 2488 1250 
L 2488 1703 
Q 2384 1638 2221 1594 
Q 2059 1550 1903 1531 
L 1563 1488 
Q 1256 1447 1103 1359 
Q 844 1213 844 891 
z
M 2206 2028 
Q 2400 2053 2466 2191 
Q 2503 2266 2503 2406 
Q 2503 2694 2298 2823 
Q 2094 2953 1713 2953 
Q 1272 2953 1088 2716 
Q 984 2584 953 2325 
L 428 2325 
Q 444 2944 830 3186 
Q 1216 3428 1725 3428 
Q 2316 3428 2684 3203 
Q 3050 2978 3050 2503 
L 3050 575 
Q 3050 488 3086 434 
Q 3122 381 3238 381 
Q 3275 381 3322 386 
Q 3369 391 3422 400 
L 3422 -16 
Q 3291 -53 3222 -62 
Q 3153 -72 3034 -72 
Q 2744 -72 2613 134 
Q 2544 244 2516 444 
Q 2344 219 2022 53 
Q 1700 -113 1313 -113 
Q 847 -113 551 170 
Q 256 453 256 878 
Q 256 1344 547 1600 
Q 838 1856 1309 1916 
L 2206 2028 
z
M 1741 3428 
L 1741 3428 
z
" id="Helvetica-61" transform="scale(0.015625)"/>
       <path d="M 428 4591 
L 991 4591 
L 991 0 
L 428 0 
L 428 4591 
z
" id="Helvetica-6c" transform="scale(0.015625)"/>
       <path d="M 2503 3347 
L 3125 3347 
Q 3006 3025 2597 1878 
Q 2291 1016 2084 472 
Q 1597 -809 1397 -1090 
Q 1197 -1372 709 -1372 
Q 591 -1372 527 -1362 
Q 463 -1353 369 -1328 
L 369 -816 
Q 516 -856 581 -865 
Q 647 -875 697 -875 
Q 853 -875 926 -823 
Q 1000 -772 1050 -697 
Q 1066 -672 1162 -440 
Q 1259 -209 1303 -97 
L 66 3347 
L 703 3347 
L 1600 622 
L 2503 3347 
z
M 1597 3428 
L 1597 3428 
z
" id="Helvetica-79" transform="scale(0.015625)"/>
      </defs>
      <use xlink:href="#Helvetica-50"/>
      <use x="66.699219" xlink:href="#Helvetica-72"/>
      <use x="100" xlink:href="#Helvetica-6f"/>
      <use x="155.615234" xlink:href="#Helvetica-62"/>
      <use x="211.230469" xlink:href="#Helvetica-61"/>
      <use x="266.845703" xlink:href="#Helvetica-62"/>
      <use x="322.460938" xlink:href="#Helvetica-69"/>
      <use x="344.677734" xlink:href="#Helvetica-6c"/>
      <use x="366.894531" xlink:href="#Helvetica-69"/>
      <use x="389.111328" xlink:href="#Helvetica-74"/>
      <use x="416.894531" xlink:href="#Helvetica-79"/>
     </g>
    </g>
   </g>
   <g id="patch_71">
    <path d="M 94.94 141.64 
L 94.94 28.8 
" style="fill:none;stroke:#000000;stroke-linecap:square;stroke-linejoin:miter;"/>
   </g>
  </g>
 </g>
 <defs>
  <clipPath id="pa08ec0c4d5">
   <rect height="112.84" width="189.46" x="94.94" y="28.8"/>
  </clipPath>
 </defs>
</svg>
