<?xml version="1.0" encoding="utf-8" standalone="no"?>
<!DOCTYPE svg PUBLIC "-//W3C//DTD SVG 1.1//EN"
  "http://www.w3.org/Graphics/SVG/1.1/DTD/svg11.dtd">
<svg height="144pt" version="1.1" viewBox="0 0 144 144" width="144pt" xmlns="http://www.w3.org/2000/svg" xmlns:xlink="http://www.w3.org/1999/xlink">
 <metadata>
  <rdf:RDF xmlns:cc="http://creativecommons.org/ns#" xmlns:dc="http://purl.org/dc/elements/1.1/" xmlns:rdf="http://www.w3.org/1999/02/22-rdf-syntax-ns#">
   <cc:Work>
    <dc:type rdf:resource="http://purl.org/dc/dcmitype/StillImage"/>
    <dc:date>2022-12-28T10:09:00.112771</dc:date>
    <dc:format>image/svg+xml</dc:format>
    <dc:creator>
     <cc:Agent>
      <dc:title>Matplotlib v3.4.2, https://matplotlib.org/</dc:title>
     </cc:Agent>
    </dc:creator>
   </cc:Work>
  </rdf:RDF>
 </metadata>
 <defs>
  <style type="text/css">*{stroke-linecap:butt;stroke-linejoin:round;}</style>
 </defs>
 <g id="figure_1">
  <g id="patch_1">
   <path d="M 0 144 
L 144 144 
L 144 0 
L 0 0 
z
" style="fill:#ffffff;"/>
  </g>
  <g id="axes_1">
   <g id="patch_2">
    <path d="M 18 128.16 
L 129.6 128.16 
L 129.6 17.28 
L 18 17.28 
z
" style="fill:#ffffff;"/>
   </g>
   <g id="matplotlib.axis_1">
    <g id="xtick_1">
     <g id="text_1">
      <!-- Original -->
      <g style="fill:#262626;" transform="translate(51.08125 204.0725)rotate(-90)scale(0.2 -0.2)">
       <defs>
        <path d="M 309 2231 
Q 309 3372 921 4017 
Q 1534 4663 2503 4663 
Q 3138 4663 3647 4359 
Q 4156 4056 4423 3514 
Q 4691 2972 4691 2284 
Q 4691 1588 4409 1038 
Q 4128 488 3612 205 
Q 3097 -78 2500 -78 
Q 1853 -78 1343 234 
Q 834 547 571 1087 
Q 309 1628 309 2231 
z
M 934 2222 
Q 934 1394 1379 917 
Q 1825 441 2497 441 
Q 3181 441 3623 922 
Q 4066 1403 4066 2288 
Q 4066 2847 3877 3264 
Q 3688 3681 3323 3911 
Q 2959 4141 2506 4141 
Q 1863 4141 1398 3698 
Q 934 3256 934 2222 
z
" id="ArialMT-4f" transform="scale(0.015625)"/>
        <path d="M 416 0 
L 416 3319 
L 922 3319 
L 922 2816 
Q 1116 3169 1280 3281 
Q 1444 3394 1641 3394 
Q 1925 3394 2219 3213 
L 2025 2691 
Q 1819 2813 1613 2813 
Q 1428 2813 1281 2702 
Q 1134 2591 1072 2394 
Q 978 2094 978 1738 
L 978 0 
L 416 0 
z
" id="ArialMT-72" transform="scale(0.015625)"/>
        <path d="M 425 3934 
L 425 4581 
L 988 4581 
L 988 3934 
L 425 3934 
z
M 425 0 
L 425 3319 
L 988 3319 
L 988 0 
L 425 0 
z
" id="ArialMT-69" transform="scale(0.015625)"/>
        <path d="M 319 -275 
L 866 -356 
Q 900 -609 1056 -725 
Q 1266 -881 1628 -881 
Q 2019 -881 2231 -725 
Q 2444 -569 2519 -288 
Q 2563 -116 2559 434 
Q 2191 0 1641 0 
Q 956 0 581 494 
Q 206 988 206 1678 
Q 206 2153 378 2554 
Q 550 2956 876 3175 
Q 1203 3394 1644 3394 
Q 2231 3394 2613 2919 
L 2613 3319 
L 3131 3319 
L 3131 450 
Q 3131 -325 2973 -648 
Q 2816 -972 2473 -1159 
Q 2131 -1347 1631 -1347 
Q 1038 -1347 672 -1080 
Q 306 -813 319 -275 
z
M 784 1719 
Q 784 1066 1043 766 
Q 1303 466 1694 466 
Q 2081 466 2343 764 
Q 2606 1063 2606 1700 
Q 2606 2309 2336 2618 
Q 2066 2928 1684 2928 
Q 1309 2928 1046 2623 
Q 784 2319 784 1719 
z
" id="ArialMT-67" transform="scale(0.015625)"/>
        <path d="M 422 0 
L 422 3319 
L 928 3319 
L 928 2847 
Q 1294 3394 1984 3394 
Q 2284 3394 2536 3286 
Q 2788 3178 2913 3003 
Q 3038 2828 3088 2588 
Q 3119 2431 3119 2041 
L 3119 0 
L 2556 0 
L 2556 2019 
Q 2556 2363 2490 2533 
Q 2425 2703 2258 2804 
Q 2091 2906 1866 2906 
Q 1506 2906 1245 2678 
Q 984 2450 984 1813 
L 984 0 
L 422 0 
z
" id="ArialMT-6e" transform="scale(0.015625)"/>
        <path d="M 2588 409 
Q 2275 144 1986 34 
Q 1697 -75 1366 -75 
Q 819 -75 525 192 
Q 231 459 231 875 
Q 231 1119 342 1320 
Q 453 1522 633 1644 
Q 813 1766 1038 1828 
Q 1203 1872 1538 1913 
Q 2219 1994 2541 2106 
Q 2544 2222 2544 2253 
Q 2544 2597 2384 2738 
Q 2169 2928 1744 2928 
Q 1347 2928 1158 2789 
Q 969 2650 878 2297 
L 328 2372 
Q 403 2725 575 2942 
Q 747 3159 1072 3276 
Q 1397 3394 1825 3394 
Q 2250 3394 2515 3294 
Q 2781 3194 2906 3042 
Q 3031 2891 3081 2659 
Q 3109 2516 3109 2141 
L 3109 1391 
Q 3109 606 3145 398 
Q 3181 191 3288 0 
L 2700 0 
Q 2613 175 2588 409 
z
M 2541 1666 
Q 2234 1541 1622 1453 
Q 1275 1403 1131 1340 
Q 988 1278 909 1158 
Q 831 1038 831 891 
Q 831 666 1001 516 
Q 1172 366 1500 366 
Q 1825 366 2078 508 
Q 2331 650 2450 897 
Q 2541 1088 2541 1459 
L 2541 1666 
z
" id="ArialMT-61" transform="scale(0.015625)"/>
        <path d="M 409 0 
L 409 4581 
L 972 4581 
L 972 0 
L 409 0 
z
" id="ArialMT-6c" transform="scale(0.015625)"/>
       </defs>
       <use xlink:href="#ArialMT-4f"/>
       <use x="77.783203" xlink:href="#ArialMT-72"/>
       <use x="111.083984" xlink:href="#ArialMT-69"/>
       <use x="133.300781" xlink:href="#ArialMT-67"/>
       <use x="188.916016" xlink:href="#ArialMT-69"/>
       <use x="211.132812" xlink:href="#ArialMT-6e"/>
       <use x="266.748047" xlink:href="#ArialMT-61"/>
       <use x="322.363281" xlink:href="#ArialMT-6c"/>
      </g>
     </g>
    </g>
    <g id="xtick_2">
     <g id="text_2">
      <!-- Mutated -->
      <g style="fill:#262626;" transform="translate(106.870312 207.419375)rotate(-90)scale(0.2 -0.2)">
       <defs>
        <path d="M 475 0 
L 475 4581 
L 1388 4581 
L 2472 1338 
Q 2622 884 2691 659 
Q 2769 909 2934 1394 
L 4031 4581 
L 4847 4581 
L 4847 0 
L 4263 0 
L 4263 3834 
L 2931 0 
L 2384 0 
L 1059 3900 
L 1059 0 
L 475 0 
z
" id="ArialMT-4d" transform="scale(0.015625)"/>
        <path d="M 2597 0 
L 2597 488 
Q 2209 -75 1544 -75 
Q 1250 -75 995 37 
Q 741 150 617 320 
Q 494 491 444 738 
Q 409 903 409 1263 
L 409 3319 
L 972 3319 
L 972 1478 
Q 972 1038 1006 884 
Q 1059 663 1231 536 
Q 1403 409 1656 409 
Q 1909 409 2131 539 
Q 2353 669 2445 892 
Q 2538 1116 2538 1541 
L 2538 3319 
L 3100 3319 
L 3100 0 
L 2597 0 
z
" id="ArialMT-75" transform="scale(0.015625)"/>
        <path d="M 1650 503 
L 1731 6 
Q 1494 -44 1306 -44 
Q 1000 -44 831 53 
Q 663 150 594 308 
Q 525 466 525 972 
L 525 2881 
L 113 2881 
L 113 3319 
L 525 3319 
L 525 4141 
L 1084 4478 
L 1084 3319 
L 1650 3319 
L 1650 2881 
L 1084 2881 
L 1084 941 
Q 1084 700 1114 631 
Q 1144 563 1211 522 
Q 1278 481 1403 481 
Q 1497 481 1650 503 
z
" id="ArialMT-74" transform="scale(0.015625)"/>
        <path d="M 2694 1069 
L 3275 997 
Q 3138 488 2766 206 
Q 2394 -75 1816 -75 
Q 1088 -75 661 373 
Q 234 822 234 1631 
Q 234 2469 665 2931 
Q 1097 3394 1784 3394 
Q 2450 3394 2872 2941 
Q 3294 2488 3294 1666 
Q 3294 1616 3291 1516 
L 816 1516 
Q 847 969 1125 678 
Q 1403 388 1819 388 
Q 2128 388 2347 550 
Q 2566 713 2694 1069 
z
M 847 1978 
L 2700 1978 
Q 2663 2397 2488 2606 
Q 2219 2931 1791 2931 
Q 1403 2931 1139 2672 
Q 875 2413 847 1978 
z
" id="ArialMT-65" transform="scale(0.015625)"/>
        <path d="M 2575 0 
L 2575 419 
Q 2259 -75 1647 -75 
Q 1250 -75 917 144 
Q 584 363 401 755 
Q 219 1147 219 1656 
Q 219 2153 384 2558 
Q 550 2963 881 3178 
Q 1213 3394 1622 3394 
Q 1922 3394 2156 3267 
Q 2391 3141 2538 2938 
L 2538 4581 
L 3097 4581 
L 3097 0 
L 2575 0 
z
M 797 1656 
Q 797 1019 1065 703 
Q 1334 388 1700 388 
Q 2069 388 2326 689 
Q 2584 991 2584 1609 
Q 2584 2291 2321 2609 
Q 2059 2928 1675 2928 
Q 1300 2928 1048 2622 
Q 797 2316 797 1656 
z
" id="ArialMT-64" transform="scale(0.015625)"/>
       </defs>
       <use xlink:href="#ArialMT-4d"/>
       <use x="83.300781" xlink:href="#ArialMT-75"/>
       <use x="138.916016" xlink:href="#ArialMT-74"/>
       <use x="166.699219" xlink:href="#ArialMT-61"/>
       <use x="222.314453" xlink:href="#ArialMT-74"/>
       <use x="250.097656" xlink:href="#ArialMT-65"/>
       <use x="305.712891" xlink:href="#ArialMT-64"/>
      </g>
     </g>
    </g>
    <g id="text_3">
     <!-- Method -->
     <g style="fill:#262626;" transform="translate(40.448437 225.735)scale(0.2 -0.2)">
      <defs>
       <path d="M 422 0 
L 422 4581 
L 984 4581 
L 984 2938 
Q 1378 3394 1978 3394 
Q 2347 3394 2619 3248 
Q 2891 3103 3008 2847 
Q 3125 2591 3125 2103 
L 3125 0 
L 2563 0 
L 2563 2103 
Q 2563 2525 2380 2717 
Q 2197 2909 1863 2909 
Q 1613 2909 1392 2779 
Q 1172 2650 1078 2428 
Q 984 2206 984 1816 
L 984 0 
L 422 0 
z
" id="ArialMT-68" transform="scale(0.015625)"/>
       <path d="M 213 1659 
Q 213 2581 725 3025 
Q 1153 3394 1769 3394 
Q 2453 3394 2887 2945 
Q 3322 2497 3322 1706 
Q 3322 1066 3130 698 
Q 2938 331 2570 128 
Q 2203 -75 1769 -75 
Q 1072 -75 642 372 
Q 213 819 213 1659 
z
M 791 1659 
Q 791 1022 1069 705 
Q 1347 388 1769 388 
Q 2188 388 2466 706 
Q 2744 1025 2744 1678 
Q 2744 2294 2464 2611 
Q 2184 2928 1769 2928 
Q 1347 2928 1069 2612 
Q 791 2297 791 1659 
z
" id="ArialMT-6f" transform="scale(0.015625)"/>
      </defs>
      <use xlink:href="#ArialMT-4d"/>
      <use x="83.300781" xlink:href="#ArialMT-65"/>
      <use x="138.916016" xlink:href="#ArialMT-74"/>
      <use x="166.699219" xlink:href="#ArialMT-68"/>
      <use x="222.314453" xlink:href="#ArialMT-6f"/>
      <use x="277.929688" xlink:href="#ArialMT-64"/>
     </g>
    </g>
   </g>
   <g id="matplotlib.axis_2">
    <g id="ytick_1">
     <g id="text_4">
      <!-- 0 -->
      <g style="fill:#262626;" transform="translate(-0.121875 117.849116)scale(0.2 -0.2)">
       <defs>
        <path d="M 266 2259 
Q 266 3072 433 3567 
Q 600 4063 929 4331 
Q 1259 4600 1759 4600 
Q 2128 4600 2406 4451 
Q 2684 4303 2865 4023 
Q 3047 3744 3150 3342 
Q 3253 2941 3253 2259 
Q 3253 1453 3087 958 
Q 2922 463 2592 192 
Q 2263 -78 1759 -78 
Q 1097 -78 719 397 
Q 266 969 266 2259 
z
M 844 2259 
Q 844 1131 1108 757 
Q 1372 384 1759 384 
Q 2147 384 2411 759 
Q 2675 1134 2675 2259 
Q 2675 3391 2411 3762 
Q 2147 4134 1753 4134 
Q 1366 4134 1134 3806 
Q 844 3388 844 2259 
z
" id="ArialMT-30" transform="scale(0.015625)"/>
       </defs>
       <use xlink:href="#ArialMT-30"/>
      </g>
     </g>
    </g>
    <g id="ytick_2">
     <g id="text_5">
      <!-- 2 -->
      <g style="fill:#262626;" transform="translate(-0.121875 42.774204)scale(0.2 -0.2)">
       <defs>
        <path d="M 3222 541 
L 3222 0 
L 194 0 
Q 188 203 259 391 
Q 375 700 629 1000 
Q 884 1300 1366 1694 
Q 2113 2306 2375 2664 
Q 2638 3022 2638 3341 
Q 2638 3675 2398 3904 
Q 2159 4134 1775 4134 
Q 1369 4134 1125 3890 
Q 881 3647 878 3216 
L 300 3275 
Q 359 3922 746 4261 
Q 1134 4600 1788 4600 
Q 2447 4600 2831 4234 
Q 3216 3869 3216 3328 
Q 3216 3053 3103 2787 
Q 2991 2522 2730 2228 
Q 2469 1934 1863 1422 
Q 1356 997 1212 845 
Q 1069 694 975 541 
L 3222 541 
z
" id="ArialMT-32" transform="scale(0.015625)"/>
       </defs>
       <use xlink:href="#ArialMT-32"/>
      </g>
     </g>
    </g>
    <g id="text_6">
     <!-- Predictions -->
     <g style="fill:#262626;" transform="translate(-8.096875 122.185625)rotate(-90)scale(0.2 -0.2)">
      <defs>
       <path d="M 494 0 
L 494 4581 
L 2222 4581 
Q 2678 4581 2919 4538 
Q 3256 4481 3484 4323 
Q 3713 4166 3852 3881 
Q 3991 3597 3991 3256 
Q 3991 2672 3619 2267 
Q 3247 1863 2275 1863 
L 1100 1863 
L 1100 0 
L 494 0 
z
M 1100 2403 
L 2284 2403 
Q 2872 2403 3119 2622 
Q 3366 2841 3366 3238 
Q 3366 3525 3220 3729 
Q 3075 3934 2838 4000 
Q 2684 4041 2272 4041 
L 1100 4041 
L 1100 2403 
z
" id="ArialMT-50" transform="scale(0.015625)"/>
       <path d="M 2588 1216 
L 3141 1144 
Q 3050 572 2676 248 
Q 2303 -75 1759 -75 
Q 1078 -75 664 370 
Q 250 816 250 1647 
Q 250 2184 428 2587 
Q 606 2991 970 3192 
Q 1334 3394 1763 3394 
Q 2303 3394 2647 3120 
Q 2991 2847 3088 2344 
L 2541 2259 
Q 2463 2594 2264 2762 
Q 2066 2931 1784 2931 
Q 1359 2931 1093 2626 
Q 828 2322 828 1663 
Q 828 994 1084 691 
Q 1341 388 1753 388 
Q 2084 388 2306 591 
Q 2528 794 2588 1216 
z
" id="ArialMT-63" transform="scale(0.015625)"/>
       <path d="M 197 991 
L 753 1078 
Q 800 744 1014 566 
Q 1228 388 1613 388 
Q 2000 388 2187 545 
Q 2375 703 2375 916 
Q 2375 1106 2209 1216 
Q 2094 1291 1634 1406 
Q 1016 1563 777 1677 
Q 538 1791 414 1992 
Q 291 2194 291 2438 
Q 291 2659 392 2848 
Q 494 3038 669 3163 
Q 800 3259 1026 3326 
Q 1253 3394 1513 3394 
Q 1903 3394 2198 3281 
Q 2494 3169 2634 2976 
Q 2775 2784 2828 2463 
L 2278 2388 
Q 2241 2644 2061 2787 
Q 1881 2931 1553 2931 
Q 1166 2931 1000 2803 
Q 834 2675 834 2503 
Q 834 2394 903 2306 
Q 972 2216 1119 2156 
Q 1203 2125 1616 2013 
Q 2213 1853 2448 1751 
Q 2684 1650 2818 1456 
Q 2953 1263 2953 975 
Q 2953 694 2789 445 
Q 2625 197 2315 61 
Q 2006 -75 1616 -75 
Q 969 -75 630 194 
Q 291 463 197 991 
z
" id="ArialMT-73" transform="scale(0.015625)"/>
      </defs>
      <use xlink:href="#ArialMT-50"/>
      <use x="66.699219" xlink:href="#ArialMT-72"/>
      <use x="100" xlink:href="#ArialMT-65"/>
      <use x="155.615234" xlink:href="#ArialMT-64"/>
      <use x="211.230469" xlink:href="#ArialMT-69"/>
      <use x="233.447266" xlink:href="#ArialMT-63"/>
      <use x="283.447266" xlink:href="#ArialMT-74"/>
      <use x="311.230469" xlink:href="#ArialMT-69"/>
      <use x="333.447266" xlink:href="#ArialMT-6f"/>
      <use x="389.0625" xlink:href="#ArialMT-6e"/>
      <use x="444.677734" xlink:href="#ArialMT-73"/>
     </g>
    </g>
   </g>
   <g id="PolyCollection_1">
    <defs>
     <path d="M 46.067022 -66.175482 
L 45.732978 -66.175482 
L 45.665971 -66.670197 
L 45.577842 -67.164911 
L 45.464194 -67.659626 
L 45.320482 -68.154341 
L 45.142266 -68.649056 
L 44.925514 -69.14377 
L 44.666951 -69.638485 
L 44.364409 -70.1332 
L 44.017152 -70.627915 
L 43.626121 -71.122629 
L 43.194065 -71.617344 
L 42.725504 -72.112059 
L 42.226506 -72.606774 
L 41.704271 -73.101488 
L 41.166529 -73.596203 
L 40.620827 -74.090918 
L 40.073757 -74.585633 
L 39.530258 -75.080347 
L 38.993078 -75.575062 
L 38.462509 -76.069777 
L 37.936466 -76.564492 
L 37.410923 -77.059206 
L 36.880671 -77.553921 
L 36.340287 -78.048636 
L 35.785166 -78.543351 
L 35.212431 -79.038066 
L 34.621549 -79.53278 
L 34.014522 -80.027495 
L 33.395606 -80.52221 
L 32.770594 -81.016925 
L 32.145785 -81.511639 
L 31.526851 -82.006354 
L 30.917829 -82.501069 
L 30.32046 -82.995784 
L 29.73403 -83.490498 
L 29.155774 -83.985213 
L 28.581813 -84.479928 
L 28.008444 -84.974643 
L 27.433593 -85.469357 
L 26.858146 -85.964072 
L 26.286934 -86.458787 
L 25.729187 -86.953502 
L 25.198371 -87.448216 
L 24.711403 -87.942931 
L 24.287349 -88.437646 
L 23.945774 -88.932361 
L 23.70493 -89.427075 
L 23.58 -89.92179 
L 23.581582 -90.416505 
L 23.714559 -90.91122 
L 23.977459 -91.405934 
L 24.362354 -91.900649 
L 24.855307 -92.395364 
L 25.437327 -92.890079 
L 26.085746 -93.384793 
L 26.775901 -93.879508 
L 27.482975 -94.374223 
L 28.183818 -94.868938 
L 28.858582 -95.363652 
L 29.492009 -95.858367 
L 30.074247 -96.353082 
L 30.601134 -96.847797 
L 31.073941 -97.342511 
L 31.498629 -97.837226 
L 31.884758 -98.331941 
L 32.244167 -98.826656 
L 32.589628 -99.32137 
L 32.933592 -99.816085 
L 33.287184 -100.3108 
L 33.659492 -100.805515 
L 34.057201 -101.300229 
L 34.484524 -101.794944 
L 34.943387 -102.289659 
L 35.43376 -102.784374 
L 35.954063 -103.279088 
L 36.501552 -103.773803 
L 37.072626 -104.268518 
L 37.663039 -104.763233 
L 38.26801 -105.257947 
L 38.882257 -105.752662 
L 39.50001 -106.247377 
L 40.115041 -106.742092 
L 40.720752 -107.236806 
L 41.31034 -107.731521 
L 41.877041 -108.226236 
L 42.414435 -108.720951 
L 42.916776 -109.215665 
L 43.379303 -109.71038 
L 43.798493 -110.205095 
L 44.172228 -110.69981 
L 44.499854 -111.194524 
L 44.782123 -111.689239 
L 45.02105 -112.183954 
L 45.219682 -112.678669 
L 45.381823 -113.173383 
L 45.51175 -113.668098 
L 45.613931 -114.162813 
L 45.692785 -114.657528 
L 45.752485 -115.152242 
L 46.047515 -115.152242 
L 46.047515 -115.152242 
L 46.107215 -114.657528 
L 46.186069 -114.162813 
L 46.28825 -113.668098 
L 46.418177 -113.173383 
L 46.580318 -112.678669 
L 46.77895 -112.183954 
L 47.017877 -111.689239 
L 47.300146 -111.194524 
L 47.627772 -110.69981 
L 48.001507 -110.205095 
L 48.420697 -109.71038 
L 48.883224 -109.215665 
L 49.385565 -108.720951 
L 49.922959 -108.226236 
L 50.48966 -107.731521 
L 51.079248 -107.236806 
L 51.684959 -106.742092 
L 52.29999 -106.247377 
L 52.917743 -105.752662 
L 53.53199 -105.257947 
L 54.136961 -104.763233 
L 54.727374 -104.268518 
L 55.298448 -103.773803 
L 55.845937 -103.279088 
L 56.36624 -102.784374 
L 56.856613 -102.289659 
L 57.315476 -101.794944 
L 57.742799 -101.300229 
L 58.140508 -100.805515 
L 58.512816 -100.3108 
L 58.866408 -99.816085 
L 59.210372 -99.32137 
L 59.555833 -98.826656 
L 59.915242 -98.331941 
L 60.301371 -97.837226 
L 60.726059 -97.342511 
L 61.198866 -96.847797 
L 61.725753 -96.353082 
L 62.307991 -95.858367 
L 62.941418 -95.363652 
L 63.616182 -94.868938 
L 64.317025 -94.374223 
L 65.024099 -93.879508 
L 65.714254 -93.384793 
L 66.362673 -92.890079 
L 66.944693 -92.395364 
L 67.437646 -91.900649 
L 67.822541 -91.405934 
L 68.085441 -90.91122 
L 68.218418 -90.416505 
L 68.22 -89.92179 
L 68.09507 -89.427075 
L 67.854226 -88.932361 
L 67.512651 -88.437646 
L 67.088597 -87.942931 
L 66.601629 -87.448216 
L 66.070813 -86.953502 
L 65.513066 -86.458787 
L 64.941854 -85.964072 
L 64.366407 -85.469357 
L 63.791556 -84.974643 
L 63.218187 -84.479928 
L 62.644226 -83.985213 
L 62.06597 -83.490498 
L 61.47954 -82.995784 
L 60.882171 -82.501069 
L 60.273149 -82.006354 
L 59.654215 -81.511639 
L 59.029406 -81.016925 
L 58.404394 -80.52221 
L 57.785478 -80.027495 
L 57.178451 -79.53278 
L 56.587569 -79.038066 
L 56.014834 -78.543351 
L 55.459713 -78.048636 
L 54.919329 -77.553921 
L 54.389077 -77.059206 
L 53.863534 -76.564492 
L 53.337491 -76.069777 
L 52.806922 -75.575062 
L 52.269742 -75.080347 
L 51.726243 -74.585633 
L 51.179173 -74.090918 
L 50.633471 -73.596203 
L 50.095729 -73.101488 
L 49.573494 -72.606774 
L 49.074496 -72.112059 
L 48.605935 -71.617344 
L 48.173879 -71.122629 
L 47.782848 -70.627915 
L 47.435591 -70.1332 
L 47.133049 -69.638485 
L 46.874486 -69.14377 
L 46.657734 -68.649056 
L 46.479518 -68.154341 
L 46.335806 -67.659626 
L 46.222158 -67.164911 
L 46.134029 -66.670197 
L 46.067022 -66.175482 
z
" id="mad693604a4" style="stroke:#262626;stroke-width:0.75;"/>
    </defs>
    <g clip-path="url(#p09645d7ecf)">
     <use style="fill:#7f9dd2;stroke:#262626;stroke-width:0.75;" x="0" xlink:href="#mad693604a4" y="144"/>
    </g>
   </g>
   <g id="PolyCollection_2">
    <defs>
     <path d="M 101.702171 -20.88 
L 101.697829 -20.88 
L 101.68937 -21.898182 
L 101.662253 -22.916364 
L 101.600435 -23.934545 
L 101.496936 -24.952727 
L 101.360627 -25.970909 
L 101.205627 -26.989091 
L 101.044315 -28.007273 
L 100.888654 -29.025455 
L 100.745653 -30.043636 
L 100.617447 -31.061818 
L 100.506315 -32.08 
L 100.41398 -33.098182 
L 100.34085 -34.116364 
L 100.286471 -35.134545 
L 100.246082 -36.152727 
L 100.206279 -37.170909 
L 100.153412 -38.189091 
L 100.089705 -39.207273 
L 100.031894 -40.225455 
L 99.993051 -41.243636 
L 99.965393 -42.261818 
L 99.927097 -43.28 
L 99.870104 -44.298182 
L 99.803969 -45.316364 
L 99.738713 -46.334545 
L 99.675148 -47.352727 
L 99.600163 -48.370909 
L 99.50095 -49.389091 
L 99.391007 -50.407273 
L 99.293183 -51.425455 
L 99.201686 -52.443636 
L 99.09647 -53.461818 
L 98.974946 -54.48 
L 98.845719 -55.498182 
L 98.71599 -56.516364 
L 98.586643 -57.534545 
L 98.445354 -58.552727 
L 98.273943 -59.570909 
L 98.061124 -60.589091 
L 97.802872 -61.607273 
L 97.499365 -62.625455 
L 97.151139 -63.643636 
L 96.757768 -64.661818 
L 96.319019 -65.68 
L 95.822028 -66.698182 
L 95.243349 -67.716364 
L 94.581049 -68.734545 
L 93.852315 -69.752727 
L 93.061509 -70.770909 
L 92.217932 -71.789091 
L 91.365618 -72.807273 
L 90.555898 -73.825455 
L 89.803611 -74.843636 
L 89.089697 -75.861818 
L 88.417589 -76.88 
L 87.850356 -77.898182 
L 87.458218 -78.916364 
L 87.241444 -79.934545 
L 87.136811 -80.952727 
L 87.079879 -81.970909 
L 87.035852 -82.989091 
L 87.003835 -84.007273 
L 87.026121 -85.025455 
L 87.177953 -86.043636 
L 87.508083 -87.061818 
L 87.992255 -88.08 
L 88.562434 -89.098182 
L 89.165778 -90.116364 
L 89.795852 -91.134545 
L 90.476313 -92.152727 
L 91.216176 -93.170909 
L 91.984642 -94.189091 
L 92.731092 -95.207273 
L 93.423586 -96.225455 
L 94.064071 -97.243636 
L 94.678594 -98.261818 
L 95.287056 -99.28 
L 95.888273 -100.298182 
L 96.483082 -101.316364 
L 97.076889 -102.334545 
L 97.661646 -103.352727 
L 98.234439 -104.370909 
L 98.811412 -105.389091 
L 99.383103 -106.407273 
L 99.896163 -107.425455 
L 100.316788 -108.443636 
L 100.665358 -109.461818 
L 100.968276 -110.48 
L 101.221678 -111.498182 
L 101.412663 -112.516364 
L 101.542198 -113.534545 
L 101.620801 -114.552727 
L 101.661595 -115.570909 
L 101.679593 -116.589091 
L 101.687779 -117.607273 
L 101.692903 -118.625455 
L 101.696578 -119.643636 
L 101.69875 -120.661818 
L 101.699672 -121.68 
L 101.700328 -121.68 
L 101.700328 -121.68 
L 101.70125 -120.661818 
L 101.703422 -119.643636 
L 101.707097 -118.625455 
L 101.712221 -117.607273 
L 101.720407 -116.589091 
L 101.738405 -115.570909 
L 101.779199 -114.552727 
L 101.857802 -113.534545 
L 101.987337 -112.516364 
L 102.178322 -111.498182 
L 102.431724 -110.48 
L 102.734642 -109.461818 
L 103.083212 -108.443636 
L 103.503837 -107.425455 
L 104.016897 -106.407273 
L 104.588588 -105.389091 
L 105.165561 -104.370909 
L 105.738354 -103.352727 
L 106.323111 -102.334545 
L 106.916918 -101.316364 
L 107.511727 -100.298182 
L 108.112944 -99.28 
L 108.721406 -98.261818 
L 109.335929 -97.243636 
L 109.976414 -96.225455 
L 110.668908 -95.207273 
L 111.415358 -94.189091 
L 112.183824 -93.170909 
L 112.923687 -92.152727 
L 113.604148 -91.134545 
L 114.234222 -90.116364 
L 114.837566 -89.098182 
L 115.407745 -88.08 
L 115.891917 -87.061818 
L 116.222047 -86.043636 
L 116.373879 -85.025455 
L 116.396165 -84.007273 
L 116.364148 -82.989091 
L 116.320121 -81.970909 
L 116.263189 -80.952727 
L 116.158556 -79.934545 
L 115.941782 -78.916364 
L 115.549644 -77.898182 
L 114.982411 -76.88 
L 114.310303 -75.861818 
L 113.596389 -74.843636 
L 112.844102 -73.825455 
L 112.034382 -72.807273 
L 111.182068 -71.789091 
L 110.338491 -70.770909 
L 109.547685 -69.752727 
L 108.818951 -68.734545 
L 108.156651 -67.716364 
L 107.577972 -66.698182 
L 107.080981 -65.68 
L 106.642232 -64.661818 
L 106.248861 -63.643636 
L 105.900635 -62.625455 
L 105.597128 -61.607273 
L 105.338876 -60.589091 
L 105.126057 -59.570909 
L 104.954646 -58.552727 
L 104.813357 -57.534545 
L 104.68401 -56.516364 
L 104.554281 -55.498182 
L 104.425054 -54.48 
L 104.30353 -53.461818 
L 104.198314 -52.443636 
L 104.106817 -51.425455 
L 104.008993 -50.407273 
L 103.89905 -49.389091 
L 103.799837 -48.370909 
L 103.724852 -47.352727 
L 103.661287 -46.334545 
L 103.596031 -45.316364 
L 103.529896 -44.298182 
L 103.472903 -43.28 
L 103.434607 -42.261818 
L 103.406949 -41.243636 
L 103.368106 -40.225455 
L 103.310295 -39.207273 
L 103.246588 -38.189091 
L 103.193721 -37.170909 
L 103.153918 -36.152727 
L 103.113529 -35.134545 
L 103.05915 -34.116364 
L 102.98602 -33.098182 
L 102.893685 -32.08 
L 102.782553 -31.061818 
L 102.654347 -30.043636 
L 102.511346 -29.025455 
L 102.355685 -28.007273 
L 102.194373 -26.989091 
L 102.039373 -25.970909 
L 101.903064 -24.952727 
L 101.799565 -23.934545 
L 101.737747 -22.916364 
L 101.71063 -21.898182 
L 101.702171 -20.88 
z
" id="m1f0d322f9f" style="stroke:#262626;stroke-width:0.75;"/>
    </defs>
    <g clip-path="url(#p09645d7ecf)">
     <use style="fill:#1a1a66;stroke:#262626;stroke-width:0.75;" x="0" xlink:href="#m1f0d322f9f" y="144"/>
    </g>
   </g>
   <g id="line2d_1">
    <path clip-path="url(#p09645d7ecf)" d="M 45.9 71.132637 
L 45.9 35.539639 
" style="fill:none;stroke:#262626;stroke-linecap:round;stroke-width:0.75;"/>
   </g>
   <g id="line2d_2">
    <path clip-path="url(#p09645d7ecf)" d="M 45.9 59.862404 
L 45.9 46.956103 
" style="fill:none;stroke:#262626;stroke-linecap:round;stroke-width:2.25;"/>
   </g>
   <g id="line2d_3">
    <path clip-path="url(#p09645d7ecf)" d="M 101.7 101.027914 
L 101.7 26.363032 
" style="fill:none;stroke:#262626;stroke-linecap:round;stroke-width:0.75;"/>
   </g>
   <g id="line2d_4">
    <path clip-path="url(#p09645d7ecf)" d="M 101.7 72.841931 
L 101.7 54.050787 
" style="fill:none;stroke:#262626;stroke-linecap:round;stroke-width:2.25;"/>
   </g>
   <g id="patch_3">
    <path d="M 18 128.16 
L 18 17.28 
" style="fill:none;stroke:#262626;stroke-linecap:square;stroke-linejoin:miter;stroke-width:0.8;"/>
   </g>
   <g id="patch_4">
    <path d="M 18 128.16 
L 129.6 128.16 
" style="fill:none;stroke:#262626;stroke-linecap:square;stroke-linejoin:miter;stroke-width:0.8;"/>
   </g>
   <g id="PathCollection_1">
    <defs>
     <path d="M 0 0.75 
C 0.198902 0.75 0.389685 0.670975 0.53033 0.53033 
C 0.670975 0.389685 0.75 0.198902 0.75 0 
C 0.75 -0.198902 0.670975 -0.389685 0.53033 -0.53033 
C 0.389685 -0.670975 0.198902 -0.75 0 -0.75 
C -0.198902 -0.75 -0.389685 -0.670975 -0.53033 -0.53033 
C -0.670975 -0.389685 -0.75 -0.198902 -0.75 0 
C -0.75 0.198902 -0.670975 0.389685 -0.53033 0.53033 
C -0.389685 0.670975 -0.198902 0.75 0 0.75 
z
" id="m15c68cfd02" style="stroke:#262626;"/>
    </defs>
    <g clip-path="url(#p09645d7ecf)">
     <use style="fill:#ffffff;stroke:#262626;" x="45.9" xlink:href="#m15c68cfd02" y="53.586645"/>
    </g>
   </g>
   <g id="PathCollection_2">
    <g clip-path="url(#p09645d7ecf)">
     <use style="fill:#ffffff;stroke:#262626;" x="101.7" xlink:href="#m15c68cfd02" y="62.832412"/>
    </g>
   </g>
   <g id="text_7">
    <!-- Top 10% -->
    <g style="fill:#262626;" transform="translate(27.10875 11.28)scale(0.24 -0.24)">
     <defs>
      <path d="M 1659 0 
L 1659 4041 
L 150 4041 
L 150 4581 
L 3781 4581 
L 3781 4041 
L 2266 4041 
L 2266 0 
L 1659 0 
z
" id="ArialMT-54" transform="scale(0.015625)"/>
      <path d="M 422 -1272 
L 422 3319 
L 934 3319 
L 934 2888 
Q 1116 3141 1344 3267 
Q 1572 3394 1897 3394 
Q 2322 3394 2647 3175 
Q 2972 2956 3137 2557 
Q 3303 2159 3303 1684 
Q 3303 1175 3120 767 
Q 2938 359 2589 142 
Q 2241 -75 1856 -75 
Q 1575 -75 1351 44 
Q 1128 163 984 344 
L 984 -1272 
L 422 -1272 
z
M 931 1641 
Q 931 1000 1190 694 
Q 1450 388 1819 388 
Q 2194 388 2461 705 
Q 2728 1022 2728 1688 
Q 2728 2322 2467 2637 
Q 2206 2953 1844 2953 
Q 1484 2953 1207 2617 
Q 931 2281 931 1641 
z
" id="ArialMT-70" transform="scale(0.015625)"/>
      <path id="ArialMT-20" transform="scale(0.015625)"/>
      <path d="M 2384 0 
L 1822 0 
L 1822 3584 
Q 1619 3391 1289 3197 
Q 959 3003 697 2906 
L 697 3450 
Q 1169 3672 1522 3987 
Q 1875 4303 2022 4600 
L 2384 4600 
L 2384 0 
z
" id="ArialMT-31" transform="scale(0.015625)"/>
      <path d="M 372 3481 
Q 372 3972 619 4315 
Q 866 4659 1334 4659 
Q 1766 4659 2048 4351 
Q 2331 4044 2331 3447 
Q 2331 2866 2045 2552 
Q 1759 2238 1341 2238 
Q 925 2238 648 2547 
Q 372 2856 372 3481 
z
M 1350 4272 
Q 1141 4272 1002 4090 
Q 863 3909 863 3425 
Q 863 2984 1003 2804 
Q 1144 2625 1350 2625 
Q 1563 2625 1702 2806 
Q 1841 2988 1841 3469 
Q 1841 3913 1700 4092 
Q 1559 4272 1350 4272 
z
M 1353 -169 
L 3859 4659 
L 4316 4659 
L 1819 -169 
L 1353 -169 
z
M 3334 1075 
Q 3334 1569 3581 1911 
Q 3828 2253 4300 2253 
Q 4731 2253 5014 1945 
Q 5297 1638 5297 1041 
Q 5297 459 5011 145 
Q 4725 -169 4303 -169 
Q 3888 -169 3611 142 
Q 3334 453 3334 1075 
z
M 4316 1866 
Q 4103 1866 3964 1684 
Q 3825 1503 3825 1019 
Q 3825 581 3965 400 
Q 4106 219 4313 219 
Q 4528 219 4667 400 
Q 4806 581 4806 1063 
Q 4806 1506 4665 1686 
Q 4525 1866 4316 1866 
z
" id="ArialMT-25" transform="scale(0.015625)"/>
     </defs>
     <use xlink:href="#ArialMT-54"/>
     <use x="49.958984" xlink:href="#ArialMT-6f"/>
     <use x="105.574219" xlink:href="#ArialMT-70"/>
     <use x="161.189453" xlink:href="#ArialMT-20"/>
     <use x="188.972656" xlink:href="#ArialMT-31"/>
     <use x="244.587891" xlink:href="#ArialMT-30"/>
     <use x="300.203125" xlink:href="#ArialMT-25"/>
    </g>
   </g>
  </g>
 </g>
 <defs>
  <clipPath id="p09645d7ecf">
   <rect height="110.88" width="111.6" x="18" y="17.28"/>
  </clipPath>
 </defs>
</svg>
