<?xml version="1.0" encoding="utf-8" standalone="no"?>
<!DOCTYPE svg PUBLIC "-//W3C//DTD SVG 1.1//EN"
  "http://www.w3.org/Graphics/SVG/1.1/DTD/svg11.dtd">
<svg height="288pt" version="1.1" viewBox="0 0 432 288" width="432pt" xmlns="http://www.w3.org/2000/svg" xmlns:xlink="http://www.w3.org/1999/xlink">
 <metadata>
  <rdf:RDF xmlns:cc="http://creativecommons.org/ns#" xmlns:dc="http://purl.org/dc/elements/1.1/" xmlns:rdf="http://www.w3.org/1999/02/22-rdf-syntax-ns#">
   <cc:Work>
    <dc:type rdf:resource="http://purl.org/dc/dcmitype/StillImage"/>
    <dc:date>2022-12-18T13:43:25.012647</dc:date>
    <dc:format>image/svg+xml</dc:format>
    <dc:creator>
     <cc:Agent>
      <dc:title>Matplotlib v3.4.2, https://matplotlib.org/</dc:title>
     </cc:Agent>
    </dc:creator>
   </cc:Work>
  </rdf:RDF>
 </metadata>
 <defs>
  <style type="text/css">*{stroke-linecap:butt;stroke-linejoin:round;}</style>
 </defs>
 <g id="figure_1">
  <g id="patch_1">
   <path d="M 0 288 
L 432 288 
L 432 0 
L 0 0 
z
" style="fill:#ffffff;"/>
  </g>
  <g id="axes_1">
   <g id="patch_2">
    <path d="M 85.39 211.94 
L 410.4 211.94 
L 410.4 21.6 
L 85.39 21.6 
z
" style="fill:#ffffff;"/>
   </g>
   <g id="matplotlib.axis_1">
    <g id="xtick_1">
     <g id="line2d_1">
      <path clip-path="url(#p050193215d)" d="M 100.163182 211.94 
L 100.163182 21.6 
" style="fill:none;stroke:#cccccc;stroke-linecap:round;stroke-width:0.8;"/>
     </g>
     <g id="text_1">
      <!-- 0 -->
      <g style="fill:#262626;" transform="translate(94.602244 239.786875)scale(0.2 -0.2)">
       <defs>
        <path d="M 1731 4475 
Q 2600 4475 2988 3759 
Q 3288 3206 3288 2244 
Q 3288 1331 3016 734 
Q 2622 -122 1728 -122 
Q 922 -122 528 578 
Q 200 1163 200 2147 
Q 200 2909 397 3456 
Q 766 4475 1731 4475 
z
M 1725 391 
Q 2163 391 2422 778 
Q 2681 1166 2681 2222 
Q 2681 2984 2493 3476 
Q 2306 3969 1766 3969 
Q 1269 3969 1039 3501 
Q 809 3034 809 2125 
Q 809 1441 956 1025 
Q 1181 391 1725 391 
z
" id="Helvetica-30" transform="scale(0.015625)"/>
       </defs>
       <use xlink:href="#Helvetica-30"/>
      </g>
     </g>
    </g>
    <g id="xtick_2">
     <g id="line2d_2">
      <path clip-path="url(#p050193215d)" d="M 151.105188 211.94 
L 151.105188 21.6 
" style="fill:none;stroke:#cccccc;stroke-linecap:round;stroke-width:0.8;"/>
     </g>
     <g id="text_2">
      <!-- 10 -->
      <g style="fill:#262626;" transform="translate(139.983313 239.786875)scale(0.2 -0.2)">
       <defs>
        <path d="M 613 3169 
L 613 3600 
Q 1222 3659 1462 3798 
Q 1703 3938 1822 4456 
L 2266 4456 
L 2266 0 
L 1666 0 
L 1666 3169 
L 613 3169 
z
" id="Helvetica-31" transform="scale(0.015625)"/>
       </defs>
       <use xlink:href="#Helvetica-31"/>
       <use x="55.615234" xlink:href="#Helvetica-30"/>
      </g>
     </g>
    </g>
    <g id="xtick_3">
     <g id="line2d_3">
      <path clip-path="url(#p050193215d)" d="M 202.047194 211.94 
L 202.047194 21.6 
" style="fill:none;stroke:#cccccc;stroke-linecap:round;stroke-width:0.8;"/>
     </g>
     <g id="text_3">
      <!-- 20 -->
      <g style="fill:#262626;" transform="translate(190.925319 239.786875)scale(0.2 -0.2)">
       <defs>
        <path d="M 200 0 
Q 231 578 439 1006 
Q 647 1434 1250 1784 
L 1850 2131 
Q 2253 2366 2416 2531 
Q 2672 2791 2672 3125 
Q 2672 3516 2437 3745 
Q 2203 3975 1813 3975 
Q 1234 3975 1013 3538 
Q 894 3303 881 2888 
L 309 2888 
Q 319 3472 525 3841 
Q 891 4491 1816 4491 
Q 2584 4491 2939 4075 
Q 3294 3659 3294 3150 
Q 3294 2613 2916 2231 
Q 2697 2009 2131 1694 
L 1703 1456 
Q 1397 1288 1222 1134 
Q 909 863 828 531 
L 3272 531 
L 3272 0 
L 200 0 
z
" id="Helvetica-32" transform="scale(0.015625)"/>
       </defs>
       <use xlink:href="#Helvetica-32"/>
       <use x="55.615234" xlink:href="#Helvetica-30"/>
      </g>
     </g>
    </g>
    <g id="xtick_4">
     <g id="line2d_4">
      <path clip-path="url(#p050193215d)" d="M 252.989201 211.94 
L 252.989201 21.6 
" style="fill:none;stroke:#cccccc;stroke-linecap:round;stroke-width:0.8;"/>
     </g>
     <g id="text_4">
      <!-- 30 -->
      <g style="fill:#262626;" transform="translate(241.867326 239.786875)scale(0.2 -0.2)">
       <defs>
        <path d="M 1663 -122 
Q 869 -122 511 314 
Q 153 750 153 1375 
L 741 1375 
Q 778 941 903 744 
Q 1122 391 1694 391 
Q 2138 391 2406 628 
Q 2675 866 2675 1241 
Q 2675 1703 2392 1887 
Q 2109 2072 1606 2072 
Q 1550 2072 1492 2070 
Q 1434 2069 1375 2066 
L 1375 2563 
Q 1463 2553 1522 2550 
Q 1581 2547 1650 2547 
Q 1966 2547 2169 2647 
Q 2525 2822 2525 3272 
Q 2525 3606 2287 3787 
Q 2050 3969 1734 3969 
Q 1172 3969 956 3594 
Q 838 3388 822 3006 
L 266 3006 
Q 266 3506 466 3856 
Q 809 4481 1675 4481 
Q 2359 4481 2734 4176 
Q 3109 3872 3109 3294 
Q 3109 2881 2888 2625 
Q 2750 2466 2531 2375 
Q 2884 2278 3082 2001 
Q 3281 1725 3281 1325 
Q 3281 684 2859 281 
Q 2438 -122 1663 -122 
z
" id="Helvetica-33" transform="scale(0.015625)"/>
       </defs>
       <use xlink:href="#Helvetica-33"/>
       <use x="55.615234" xlink:href="#Helvetica-30"/>
      </g>
     </g>
    </g>
    <g id="xtick_5">
     <g id="line2d_5">
      <path clip-path="url(#p050193215d)" d="M 303.931207 211.94 
L 303.931207 21.6 
" style="fill:none;stroke:#cccccc;stroke-linecap:round;stroke-width:0.8;"/>
     </g>
     <g id="text_5">
      <!-- 40 -->
      <g style="fill:#262626;" transform="translate(292.809332 239.786875)scale(0.2 -0.2)">
       <defs>
        <path d="M 2116 1584 
L 2116 3613 
L 681 1584 
L 2116 1584 
z
M 2125 0 
L 2125 1094 
L 163 1094 
L 163 1644 
L 2213 4488 
L 2688 4488 
L 2688 1584 
L 3347 1584 
L 3347 1094 
L 2688 1094 
L 2688 0 
L 2125 0 
z
" id="Helvetica-34" transform="scale(0.015625)"/>
       </defs>
       <use xlink:href="#Helvetica-34"/>
       <use x="55.615234" xlink:href="#Helvetica-30"/>
      </g>
     </g>
    </g>
    <g id="xtick_6">
     <g id="line2d_6">
      <path clip-path="url(#p050193215d)" d="M 354.873213 211.94 
L 354.873213 21.6 
" style="fill:none;stroke:#cccccc;stroke-linecap:round;stroke-width:0.8;"/>
     </g>
     <g id="text_6">
      <!-- 50 -->
      <g style="fill:#262626;" transform="translate(343.751338 239.786875)scale(0.2 -0.2)">
       <defs>
        <path d="M 791 1141 
Q 847 659 1238 475 
Q 1438 381 1700 381 
Q 2200 381 2440 700 
Q 2681 1019 2681 1406 
Q 2681 1875 2395 2131 
Q 2109 2388 1709 2388 
Q 1419 2388 1211 2275 
Q 1003 2163 856 1963 
L 369 1991 
L 709 4400 
L 3034 4400 
L 3034 3856 
L 1131 3856 
L 941 2613 
Q 1097 2731 1238 2791 
Q 1488 2894 1816 2894 
Q 2431 2894 2859 2497 
Q 3288 2100 3288 1491 
Q 3288 856 2895 371 
Q 2503 -113 1644 -113 
Q 1097 -113 676 195 
Q 256 503 206 1141 
L 791 1141 
z
" id="Helvetica-35" transform="scale(0.015625)"/>
       </defs>
       <use xlink:href="#Helvetica-35"/>
       <use x="55.615234" xlink:href="#Helvetica-30"/>
      </g>
     </g>
    </g>
    <g id="text_7">
     <!-- Position -->
     <g style="fill:#262626;" transform="translate(212.32 262.3025)scale(0.2 -0.2)">
      <defs>
       <path d="M 547 4591 
L 2613 4591 
Q 3225 4591 3600 4245 
Q 3975 3900 3975 3275 
Q 3975 2738 3640 2339 
Q 3306 1941 2613 1941 
L 1169 1941 
L 1169 0 
L 547 0 
L 547 4591 
z
M 3347 3272 
Q 3347 3778 2972 3959 
Q 2766 4056 2406 4056 
L 1169 4056 
L 1169 2466 
L 2406 2466 
Q 2825 2466 3086 2644 
Q 3347 2822 3347 3272 
z
" id="Helvetica-50" transform="scale(0.015625)"/>
       <path d="M 1741 363 
Q 2300 363 2508 786 
Q 2716 1209 2716 1728 
Q 2716 2197 2566 2491 
Q 2328 2953 1747 2953 
Q 1231 2953 997 2559 
Q 763 2166 763 1609 
Q 763 1075 997 719 
Q 1231 363 1741 363 
z
M 1763 3444 
Q 2409 3444 2856 3012 
Q 3303 2581 3303 1744 
Q 3303 934 2909 406 
Q 2516 -122 1688 -122 
Q 997 -122 590 345 
Q 184 813 184 1600 
Q 184 2444 612 2944 
Q 1041 3444 1763 3444 
z
M 1744 3428 
L 1744 3428 
z
" id="Helvetica-6f" transform="scale(0.015625)"/>
       <path d="M 747 1050 
Q 772 769 888 619 
Q 1100 347 1625 347 
Q 1938 347 2175 483 
Q 2413 619 2413 903 
Q 2413 1119 2222 1231 
Q 2100 1300 1741 1391 
L 1294 1503 
Q 866 1609 663 1741 
Q 300 1969 300 2372 
Q 300 2847 642 3140 
Q 984 3434 1563 3434 
Q 2319 3434 2653 2991 
Q 2863 2709 2856 2384 
L 2325 2384 
Q 2309 2575 2191 2731 
Q 1997 2953 1519 2953 
Q 1200 2953 1036 2831 
Q 872 2709 872 2509 
Q 872 2291 1088 2159 
Q 1213 2081 1456 2022 
L 1828 1931 
Q 2434 1784 2641 1647 
Q 2969 1431 2969 969 
Q 2969 522 2630 197 
Q 2291 -128 1597 -128 
Q 850 -128 539 211 
Q 228 550 206 1050 
L 747 1050 
z
M 1578 3428 
L 1578 3428 
z
" id="Helvetica-73" transform="scale(0.015625)"/>
       <path d="M 413 3331 
L 984 3331 
L 984 0 
L 413 0 
L 413 3331 
z
M 413 4591 
L 984 4591 
L 984 3953 
L 413 3953 
L 413 4591 
z
" id="Helvetica-69" transform="scale(0.015625)"/>
       <path d="M 525 4281 
L 1094 4281 
L 1094 3347 
L 1628 3347 
L 1628 2888 
L 1094 2888 
L 1094 703 
Q 1094 528 1213 469 
Q 1278 434 1431 434 
Q 1472 434 1519 436 
Q 1566 438 1628 444 
L 1628 0 
Q 1531 -28 1426 -40 
Q 1322 -53 1200 -53 
Q 806 -53 665 148 
Q 525 350 525 672 
L 525 2888 
L 72 2888 
L 72 3347 
L 525 3347 
L 525 4281 
z
" id="Helvetica-74" transform="scale(0.015625)"/>
       <path d="M 413 3347 
L 947 3347 
L 947 2872 
Q 1184 3166 1450 3294 
Q 1716 3422 2041 3422 
Q 2753 3422 3003 2925 
Q 3141 2653 3141 2147 
L 3141 0 
L 2569 0 
L 2569 2109 
Q 2569 2416 2478 2603 
Q 2328 2916 1934 2916 
Q 1734 2916 1606 2875 
Q 1375 2806 1200 2600 
Q 1059 2434 1017 2257 
Q 975 2081 975 1753 
L 975 0 
L 413 0 
L 413 3347 
z
M 1734 3428 
L 1734 3428 
z
" id="Helvetica-6e" transform="scale(0.015625)"/>
      </defs>
      <use xlink:href="#Helvetica-50"/>
      <use x="66.699219" xlink:href="#Helvetica-6f"/>
      <use x="122.314453" xlink:href="#Helvetica-73"/>
      <use x="172.314453" xlink:href="#Helvetica-69"/>
      <use x="194.53125" xlink:href="#Helvetica-74"/>
      <use x="222.314453" xlink:href="#Helvetica-69"/>
      <use x="244.53125" xlink:href="#Helvetica-6f"/>
      <use x="300.146484" xlink:href="#Helvetica-6e"/>
     </g>
    </g>
   </g>
   <g id="matplotlib.axis_2">
    <g id="ytick_1">
     <g id="line2d_7">
      <path clip-path="url(#p050193215d)" d="M 85.39 197.646081 
L 410.4 197.646081 
" style="fill:none;stroke:#cccccc;stroke-linecap:round;stroke-width:0.8;"/>
     </g>
     <g id="text_8">
      <!-- 0.0 -->
      <g style="fill:#262626;" transform="translate(44.09 204.819518)scale(0.2 -0.2)">
       <defs>
        <path d="M 547 681 
L 1200 681 
L 1200 0 
L 547 0 
L 547 681 
z
" id="Helvetica-2e" transform="scale(0.015625)"/>
       </defs>
       <use xlink:href="#Helvetica-30"/>
       <use x="55.615234" xlink:href="#Helvetica-2e"/>
       <use x="83.398438" xlink:href="#Helvetica-30"/>
      </g>
     </g>
    </g>
    <g id="ytick_2">
     <g id="line2d_8">
      <path clip-path="url(#p050193215d)" d="M 85.39 141.760191 
L 410.4 141.760191 
" style="fill:none;stroke:#cccccc;stroke-linecap:round;stroke-width:0.8;"/>
     </g>
     <g id="text_9">
      <!-- 0.1 -->
      <g style="fill:#262626;" transform="translate(44.09 148.933628)scale(0.2 -0.2)">
       <use xlink:href="#Helvetica-30"/>
       <use x="55.615234" xlink:href="#Helvetica-2e"/>
       <use x="83.398438" xlink:href="#Helvetica-31"/>
      </g>
     </g>
    </g>
    <g id="ytick_3">
     <g id="line2d_9">
      <path clip-path="url(#p050193215d)" d="M 85.39 85.874301 
L 410.4 85.874301 
" style="fill:none;stroke:#cccccc;stroke-linecap:round;stroke-width:0.8;"/>
     </g>
     <g id="text_10">
      <!-- 0.2 -->
      <g style="fill:#262626;" transform="translate(44.09 93.047738)scale(0.2 -0.2)">
       <use xlink:href="#Helvetica-30"/>
       <use x="55.615234" xlink:href="#Helvetica-2e"/>
       <use x="83.398438" xlink:href="#Helvetica-32"/>
      </g>
     </g>
    </g>
    <g id="ytick_4">
     <g id="line2d_10">
      <path clip-path="url(#p050193215d)" d="M 85.39 29.98841 
L 410.4 29.98841 
" style="fill:none;stroke:#cccccc;stroke-linecap:round;stroke-width:0.8;"/>
     </g>
     <g id="text_11">
      <!-- 0.3 -->
      <g style="fill:#262626;" transform="translate(44.09 37.161848)scale(0.2 -0.2)">
       <use xlink:href="#Helvetica-30"/>
       <use x="55.615234" xlink:href="#Helvetica-2e"/>
       <use x="83.398438" xlink:href="#Helvetica-33"/>
      </g>
     </g>
    </g>
    <g id="text_12">
     <!-- Std Dev of Subunit Mismatch -->
     <g style="fill:#262626;" transform="translate(35.92125 245.709062)rotate(-90)scale(0.2 -0.2)">
      <defs>
       <path d="M 894 1481 
Q 916 1091 1078 847 
Q 1388 391 2169 391 
Q 2519 391 2806 491 
Q 3363 684 3363 1184 
Q 3363 1559 3128 1719 
Q 2891 1875 2384 1991 
L 1763 2131 
Q 1153 2269 900 2434 
Q 463 2722 463 3294 
Q 463 3913 891 4309 
Q 1319 4706 2103 4706 
Q 2825 4706 3329 4357 
Q 3834 4009 3834 3244 
L 3250 3244 
Q 3203 3613 3050 3809 
Q 2766 4169 2084 4169 
Q 1534 4169 1293 3937 
Q 1053 3706 1053 3400 
Q 1053 3063 1334 2906 
Q 1519 2806 2169 2656 
L 2813 2509 
Q 3278 2403 3531 2219 
Q 3969 1897 3969 1284 
Q 3969 522 3414 194 
Q 2859 -134 2125 -134 
Q 1269 -134 784 303 
Q 300 738 309 1481 
L 894 1481 
z
M 2150 4716 
L 2150 4716 
z
" id="Helvetica-53" transform="scale(0.015625)"/>
       <path d="M 769 1634 
Q 769 1097 997 734 
Q 1225 372 1728 372 
Q 2119 372 2370 708 
Q 2622 1044 2622 1672 
Q 2622 2306 2362 2611 
Q 2103 2916 1722 2916 
Q 1297 2916 1033 2591 
Q 769 2266 769 1634 
z
M 1616 3406 
Q 2000 3406 2259 3244 
Q 2409 3150 2600 2916 
L 2600 4606 
L 3141 4606 
L 3141 0 
L 2634 0 
L 2634 466 
Q 2438 156 2169 18 
Q 1900 -119 1553 -119 
Q 994 -119 584 351 
Q 175 822 175 1603 
Q 175 2334 548 2870 
Q 922 3406 1616 3406 
z
" id="Helvetica-64" transform="scale(0.015625)"/>
       <path id="Helvetica-20" transform="scale(0.015625)"/>
       <path d="M 2250 531 
Q 2566 531 2769 597 
Q 3131 719 3363 1066 
Q 3547 1344 3628 1778 
Q 3675 2038 3675 2259 
Q 3675 3113 3336 3584 
Q 2997 4056 2244 4056 
L 1141 4056 
L 1141 531 
L 2250 531 
z
M 516 4591 
L 2375 4591 
Q 3322 4591 3844 3919 
Q 4309 3313 4309 2366 
Q 4309 1634 4034 1044 
Q 3550 0 2369 0 
L 516 0 
L 516 4591 
z
" id="Helvetica-44" transform="scale(0.015625)"/>
       <path d="M 1806 3422 
Q 2163 3422 2497 3255 
Q 2831 3088 3006 2822 
Q 3175 2569 3231 2231 
Q 3281 2000 3281 1494 
L 828 1494 
Q 844 984 1069 676 
Q 1294 369 1766 369 
Q 2206 369 2469 659 
Q 2619 828 2681 1050 
L 3234 1050 
Q 3213 866 3089 639 
Q 2966 413 2813 269 
Q 2556 19 2178 -69 
Q 1975 -119 1719 -119 
Q 1094 -119 659 336 
Q 225 791 225 1609 
Q 225 2416 662 2919 
Q 1100 3422 1806 3422 
z
M 2703 1941 
Q 2669 2306 2544 2525 
Q 2313 2931 1772 2931 
Q 1384 2931 1121 2651 
Q 859 2372 844 1941 
L 2703 1941 
z
M 1753 3428 
L 1753 3428 
z
" id="Helvetica-65" transform="scale(0.015625)"/>
       <path d="M 688 3347 
L 1581 622 
L 2516 3347 
L 3131 3347 
L 1869 0 
L 1269 0 
L 34 3347 
L 688 3347 
z
" id="Helvetica-76" transform="scale(0.015625)"/>
       <path d="M 553 3856 
Q 566 4206 675 4369 
Q 872 4656 1434 4656 
Q 1488 4656 1544 4653 
Q 1600 4650 1672 4644 
L 1672 4131 
Q 1584 4138 1545 4139 
Q 1506 4141 1472 4141 
Q 1216 4141 1166 4008 
Q 1116 3875 1116 3331 
L 1672 3331 
L 1672 2888 
L 1109 2888 
L 1109 0 
L 553 0 
L 553 2888 
L 88 2888 
L 88 3331 
L 553 3331 
L 553 3856 
z
" id="Helvetica-66" transform="scale(0.015625)"/>
       <path d="M 975 3347 
L 975 1125 
Q 975 869 1056 706 
Q 1206 406 1616 406 
Q 2203 406 2416 931 
Q 2531 1213 2531 1703 
L 2531 3347 
L 3094 3347 
L 3094 0 
L 2563 0 
L 2569 494 
Q 2459 303 2297 172 
Q 1975 -91 1516 -91 
Q 800 -91 541 388 
Q 400 644 400 1072 
L 400 3347 
L 975 3347 
z
M 1747 3428 
L 1747 3428 
z
" id="Helvetica-75" transform="scale(0.015625)"/>
       <path d="M 369 4606 
L 916 4606 
L 916 2941 
Q 1100 3181 1356 3307 
Q 1613 3434 1913 3434 
Q 2538 3434 2927 3004 
Q 3316 2575 3316 1738 
Q 3316 944 2931 419 
Q 2547 -106 1866 -106 
Q 1484 -106 1222 78 
Q 1066 188 888 428 
L 888 0 
L 369 0 
L 369 4606 
z
M 1831 391 
Q 2288 391 2514 753 
Q 2741 1116 2741 1709 
Q 2741 2238 2514 2584 
Q 2288 2931 1847 2931 
Q 1463 2931 1173 2647 
Q 884 2363 884 1709 
Q 884 1238 1003 944 
Q 1225 391 1831 391 
z
" id="Helvetica-62" transform="scale(0.015625)"/>
       <path d="M 472 4591 
L 1363 4591 
L 2681 709 
L 3991 4591 
L 4872 4591 
L 4872 0 
L 4281 0 
L 4281 2709 
Q 4281 2850 4287 3175 
Q 4294 3500 4294 3872 
L 2984 0 
L 2369 0 
L 1050 3872 
L 1050 3731 
Q 1050 3563 1058 3217 
Q 1066 2872 1066 2709 
L 1066 0 
L 472 0 
L 472 4591 
z
" id="Helvetica-4d" transform="scale(0.015625)"/>
       <path d="M 413 3347 
L 969 3347 
L 969 2872 
Q 1169 3119 1331 3231 
Q 1609 3422 1963 3422 
Q 2363 3422 2606 3225 
Q 2744 3113 2856 2894 
Q 3044 3163 3297 3292 
Q 3550 3422 3866 3422 
Q 4541 3422 4784 2934 
Q 4916 2672 4916 2228 
L 4916 0 
L 4331 0 
L 4331 2325 
Q 4331 2659 4164 2784 
Q 3997 2909 3756 2909 
Q 3425 2909 3186 2687 
Q 2947 2466 2947 1947 
L 2947 0 
L 2375 0 
L 2375 2184 
Q 2375 2525 2294 2681 
Q 2166 2916 1816 2916 
Q 1497 2916 1236 2669 
Q 975 2422 975 1775 
L 975 0 
L 413 0 
L 413 3347 
z
" id="Helvetica-6d" transform="scale(0.015625)"/>
       <path d="M 844 891 
Q 844 647 1022 506 
Q 1200 366 1444 366 
Q 1741 366 2019 503 
Q 2488 731 2488 1250 
L 2488 1703 
Q 2384 1638 2221 1594 
Q 2059 1550 1903 1531 
L 1563 1488 
Q 1256 1447 1103 1359 
Q 844 1213 844 891 
z
M 2206 2028 
Q 2400 2053 2466 2191 
Q 2503 2266 2503 2406 
Q 2503 2694 2298 2823 
Q 2094 2953 1713 2953 
Q 1272 2953 1088 2716 
Q 984 2584 953 2325 
L 428 2325 
Q 444 2944 830 3186 
Q 1216 3428 1725 3428 
Q 2316 3428 2684 3203 
Q 3050 2978 3050 2503 
L 3050 575 
Q 3050 488 3086 434 
Q 3122 381 3238 381 
Q 3275 381 3322 386 
Q 3369 391 3422 400 
L 3422 -16 
Q 3291 -53 3222 -62 
Q 3153 -72 3034 -72 
Q 2744 -72 2613 134 
Q 2544 244 2516 444 
Q 2344 219 2022 53 
Q 1700 -113 1313 -113 
Q 847 -113 551 170 
Q 256 453 256 878 
Q 256 1344 547 1600 
Q 838 1856 1309 1916 
L 2206 2028 
z
M 1741 3428 
L 1741 3428 
z
" id="Helvetica-61" transform="scale(0.015625)"/>
       <path d="M 1703 3444 
Q 2269 3444 2623 3169 
Q 2978 2894 3050 2222 
L 2503 2222 
Q 2453 2531 2275 2736 
Q 2097 2941 1703 2941 
Q 1166 2941 934 2416 
Q 784 2075 784 1575 
Q 784 1072 996 728 
Q 1209 384 1666 384 
Q 2016 384 2220 598 
Q 2425 813 2503 1184 
L 3050 1184 
Q 2956 519 2581 211 
Q 2206 -97 1622 -97 
Q 966 -97 575 383 
Q 184 863 184 1581 
Q 184 2463 612 2953 
Q 1041 3444 1703 3444 
z
M 1616 3428 
L 1616 3428 
z
" id="Helvetica-63" transform="scale(0.015625)"/>
       <path d="M 413 4606 
L 975 4606 
L 975 2894 
Q 1175 3147 1334 3250 
Q 1606 3428 2013 3428 
Q 2741 3428 3000 2919 
Q 3141 2641 3141 2147 
L 3141 0 
L 2563 0 
L 2563 2109 
Q 2563 2478 2469 2650 
Q 2316 2925 1894 2925 
Q 1544 2925 1259 2684 
Q 975 2444 975 1775 
L 975 0 
L 413 0 
L 413 4606 
z
" id="Helvetica-68" transform="scale(0.015625)"/>
      </defs>
      <use xlink:href="#Helvetica-53"/>
      <use x="66.699219" xlink:href="#Helvetica-74"/>
      <use x="94.482422" xlink:href="#Helvetica-64"/>
      <use x="150.097656" xlink:href="#Helvetica-20"/>
      <use x="177.880859" xlink:href="#Helvetica-44"/>
      <use x="250.097656" xlink:href="#Helvetica-65"/>
      <use x="305.712891" xlink:href="#Helvetica-76"/>
      <use x="355.712891" xlink:href="#Helvetica-20"/>
      <use x="383.496094" xlink:href="#Helvetica-6f"/>
      <use x="439.111328" xlink:href="#Helvetica-66"/>
      <use x="466.894531" xlink:href="#Helvetica-20"/>
      <use x="494.677734" xlink:href="#Helvetica-53"/>
      <use x="561.376953" xlink:href="#Helvetica-75"/>
      <use x="616.992188" xlink:href="#Helvetica-62"/>
      <use x="672.607422" xlink:href="#Helvetica-75"/>
      <use x="728.222656" xlink:href="#Helvetica-6e"/>
      <use x="783.837891" xlink:href="#Helvetica-69"/>
      <use x="806.054688" xlink:href="#Helvetica-74"/>
      <use x="833.837891" xlink:href="#Helvetica-20"/>
      <use x="861.621094" xlink:href="#Helvetica-4d"/>
      <use x="944.921875" xlink:href="#Helvetica-69"/>
      <use x="967.138672" xlink:href="#Helvetica-73"/>
      <use x="1017.138672" xlink:href="#Helvetica-6d"/>
      <use x="1100.439453" xlink:href="#Helvetica-61"/>
      <use x="1156.054688" xlink:href="#Helvetica-74"/>
      <use x="1183.837891" xlink:href="#Helvetica-63"/>
      <use x="1233.837891" xlink:href="#Helvetica-68"/>
     </g>
    </g>
   </g>
   <g id="PolyCollection_1">
    <defs>
     <path d="M 100.163182 -104.919842 
L 100.163182 -85.467716 
L 105.257382 -90.353919 
L 110.351583 -85.467716 
L 115.445784 -90.866111 
L 120.539984 -90.353919 
L 125.634185 -90.353919 
L 130.728386 -85.467716 
L 135.822586 -86.076372 
L 140.916787 -86.076372 
L 146.010987 -90.866111 
L 151.105188 -86.419987 
L 156.199389 -93.856893 
L 161.293589 -86.076372 
L 166.38779 -90.884394 
L 171.481991 -97.085908 
L 176.576191 -97.246211 
L 181.670392 -97.085908 
L 186.764592 -100.698144 
L 191.858793 -93.772582 
L 196.952994 -86.419987 
L 202.047194 -107.737335 
L 207.141395 -86.076372 
L 212.235596 -86.419987 
L 217.329796 -93.962547 
L 222.423997 -116.431798 
L 227.518197 -100.302937 
L 232.612398 -101.14547 
L 237.706599 -100.127099 
L 242.800799 -97.246211 
L 247.895 -104.051023 
L 252.989201 -90.353919 
L 258.083401 -90.353919 
L 263.177602 -90.848924 
L 268.271803 -90.353919 
L 273.366003 -90.841718 
L 278.460204 -90.353919 
L 283.554404 -88.228461 
L 288.648605 -90.866111 
L 293.742806 -90.353919 
L 298.837006 -88.374843 
L 303.931207 -90.353919 
L 309.025408 -104.292409 
L 314.119608 -128.434191 
L 319.213809 -134.354045 
L 324.308009 -111.537003 
L 329.40221 -107.737335 
L 334.496411 -93.962547 
L 339.590611 -90.353919 
L 344.684812 -84.711818 
L 349.779013 -88.228461 
L 354.873213 -96.942514 
L 359.967414 -90.841718 
L 365.061614 -93.856893 
L 370.155815 -90.848924 
L 375.250016 -86.076372 
L 380.344216 -97.085908 
L 385.438417 -90.848924 
L 390.532618 -90.884394 
L 395.626818 -86.419987 
L 395.626818 -113.647292 
L 395.626818 -113.647292 
L 390.532618 -133.034699 
L 385.438417 -131.572711 
L 380.344216 -144.695167 
L 375.250016 -115.488364 
L 370.155815 -131.572711 
L 365.061614 -138.244462 
L 359.967414 -130.082459 
L 354.873213 -143.341103 
L 349.779013 -123.015996 
L 344.684812 -107.173198 
L 339.590611 -90.353919 
L 334.496411 -139.636265 
L 329.40221 -163.0829 
L 324.308009 -168.962952 
L 319.213809 -203.529258 
L 314.119608 -193.779561 
L 309.025408 -158.345564 
L 303.931207 -90.353919 
L 298.837006 -121.372156 
L 293.742806 -90.353919 
L 288.648605 -128.560607 
L 283.554404 -123.015996 
L 278.460204 -90.353919 
L 273.366003 -130.082459 
L 268.271803 -90.353919 
L 263.177602 -131.572711 
L 258.083401 -90.353919 
L 252.989201 -90.353919 
L 247.895 -157.089492 
L 242.800799 -146.032321 
L 237.706599 -148.33878 
L 232.612398 -154.807699 
L 227.518197 -149.6604 
L 222.423997 -178.240251 
L 217.329796 -139.636265 
L 212.235596 -113.647292 
L 207.141395 -115.488364 
L 202.047194 -163.0829 
L 196.952994 -113.647292 
L 191.858793 -136.831315 
L 186.764592 -152.260109 
L 181.670392 -144.695167 
L 176.576191 -146.032321 
L 171.481991 -144.695167 
L 166.38779 -133.034699 
L 161.293589 -115.488364 
L 156.199389 -138.244462 
L 151.105188 -113.647292 
L 146.010987 -128.560607 
L 140.916787 -115.488364 
L 135.822586 -115.488364 
L 130.728386 -104.919842 
L 125.634185 -90.353919 
L 120.539984 -90.353919 
L 115.445784 -128.560607 
L 110.351583 -104.919842 
L 105.257382 -90.353919 
L 100.163182 -104.919842 
z
" id="m87cfed05d3" style="stroke:#808080;stroke-opacity:0.2;"/>
    </defs>
    <g clip-path="url(#p050193215d)">
     <use style="fill:#808080;fill-opacity:0.2;stroke:#808080;stroke-opacity:0.2;" x="0" xlink:href="#m87cfed05d3" y="288"/>
    </g>
   </g>
   <g id="PolyCollection_2">
    <defs>
     <path d="M 100.163182 -90.353919 
L 100.163182 -90.353919 
L 105.257382 -90.353919 
L 110.351583 -84.711818 
L 115.445784 -85.467716 
L 120.539984 -85.467716 
L 125.634185 -85.467716 
L 130.728386 -85.467716 
L 135.822586 -85.467716 
L 140.916787 -90.353919 
L 146.010987 -90.353919 
L 151.105188 -85.467716 
L 156.199389 -90.353919 
L 161.293589 -85.467716 
L 166.38779 -85.467716 
L 171.481991 -86.419987 
L 176.576191 -86.076372 
L 181.670392 -85.467716 
L 186.764592 -84.711818 
L 191.858793 -90.353919 
L 196.952994 -85.467716 
L 202.047194 -86.076372 
L 207.141395 -90.353919 
L 212.235596 -85.467716 
L 217.329796 -85.467716 
L 222.423997 -85.467716 
L 227.518197 -90.353919 
L 232.612398 -90.353919 
L 237.706599 -85.467716 
L 242.800799 -86.419987 
L 247.895 -85.811406 
L 252.989201 -90.353919 
L 258.083401 -90.353919 
L 263.177602 -85.467716 
L 268.271803 -90.353919 
L 273.366003 -90.353919 
L 278.460204 -90.353919 
L 283.554404 -90.353919 
L 288.648605 -90.353919 
L 293.742806 -90.353919 
L 298.837006 -90.353919 
L 303.931207 -90.353919 
L 309.025408 -84.711818 
L 314.119608 -88.228461 
L 319.213809 -88.374843 
L 324.308009 -88.374843 
L 329.40221 -86.076372 
L 334.496411 -85.467716 
L 339.590611 -90.353919 
L 344.684812 -84.711818 
L 349.779013 -90.353919 
L 354.873213 -85.467716 
L 359.967414 -84.711818 
L 365.061614 -85.467716 
L 370.155815 -85.467716 
L 375.250016 -90.353919 
L 380.344216 -90.353919 
L 385.438417 -85.467716 
L 390.532618 -85.467716 
L 395.626818 -85.467716 
L 395.626818 -104.919842 
L 395.626818 -104.919842 
L 390.532618 -104.919842 
L 385.438417 -104.919842 
L 380.344216 -90.353919 
L 375.250016 -90.353919 
L 370.155815 -104.919842 
L 365.061614 -104.919842 
L 359.967414 -107.173198 
L 354.873213 -104.919842 
L 349.779013 -90.353919 
L 344.684812 -107.173198 
L 339.590611 -90.353919 
L 334.496411 -104.919842 
L 329.40221 -115.488364 
L 324.308009 -121.372156 
L 319.213809 -121.372156 
L 314.119608 -123.015996 
L 309.025408 -107.173198 
L 303.931207 -90.353919 
L 298.837006 -90.353919 
L 293.742806 -90.353919 
L 288.648605 -90.353919 
L 283.554404 -90.353919 
L 278.460204 -90.353919 
L 273.366003 -90.353919 
L 268.271803 -90.353919 
L 263.177602 -104.919842 
L 258.083401 -90.353919 
L 252.989201 -90.353919 
L 247.895 -117.250789 
L 242.800799 -113.647292 
L 237.706599 -104.919842 
L 232.612398 -90.353919 
L 227.518197 -90.353919 
L 222.423997 -104.919842 
L 217.329796 -104.919842 
L 212.235596 -104.919842 
L 207.141395 -90.353919 
L 202.047194 -115.488364 
L 196.952994 -104.919842 
L 191.858793 -90.353919 
L 186.764592 -107.173198 
L 181.670392 -104.919842 
L 176.576191 -115.488364 
L 171.481991 -113.647292 
L 166.38779 -104.919842 
L 161.293589 -104.919842 
L 156.199389 -90.353919 
L 151.105188 -104.919842 
L 146.010987 -90.353919 
L 140.916787 -90.353919 
L 135.822586 -104.919842 
L 130.728386 -104.919842 
L 125.634185 -104.919842 
L 120.539984 -104.919842 
L 115.445784 -104.919842 
L 110.351583 -107.173198 
L 105.257382 -90.353919 
L 100.163182 -90.353919 
z
" id="m1a9daa56e3" style="stroke:#ff7f0e;stroke-opacity:0.2;"/>
    </defs>
    <g clip-path="url(#p050193215d)">
     <use style="fill:#ff7f0e;fill-opacity:0.2;stroke:#ff7f0e;stroke-opacity:0.2;" x="0" xlink:href="#m1a9daa56e3" y="288"/>
    </g>
   </g>
   <g id="PolyCollection_3">
    <defs>
     <path d="M 100.163182 -107.173198 
L 100.163182 -84.711818 
L 105.257382 -88.374843 
L 110.351583 -86.076372 
L 115.445784 -90.841718 
L 120.539984 -84.711818 
L 125.634185 -90.841718 
L 130.728386 -88.228461 
L 135.822586 -85.467716 
L 140.916787 -93.962547 
L 146.010987 -90.841718 
L 151.105188 -100.698144 
L 156.199389 -86.076372 
L 161.293589 -100.915689 
L 166.38779 -104.544823 
L 171.481991 -123.873317 
L 176.576191 -108.010104 
L 181.670392 -142.731263 
L 186.764592 -140.985555 
L 191.858793 -123.508967 
L 196.952994 -142.731263 
L 202.047194 -185.114585 
L 207.141395 -103.821312 
L 212.235596 -100.915689 
L 217.329796 -107.737335 
L 222.423997 -142.288646 
L 227.518197 -108.883792 
L 232.612398 -116.431798 
L 237.706599 -108.583773 
L 242.800799 -111.537003 
L 247.895 -160.54137 
L 252.989201 -90.353919 
L 258.083401 -90.353919 
L 263.177602 -121.221593 
L 268.271803 -90.353919 
L 273.366003 -137.445001 
L 278.460204 -90.353919 
L 283.554404 -137.445001 
L 288.648605 -146.315844 
L 293.742806 -90.353919 
L 298.837006 -146.315844 
L 303.931207 -90.353919 
L 309.025408 -130.035096 
L 314.119608 -137.870966 
L 319.213809 -125.389219 
L 324.308009 -108.292403 
L 329.40221 -140.985555 
L 334.496411 -117.487275 
L 339.590611 -90.353919 
L 344.684812 -88.128473 
L 349.779013 -141.415679 
L 354.873213 -160.54137 
L 359.967414 -128.434191 
L 365.061614 -120.851123 
L 370.155815 -107.737335 
L 375.250016 -100.493606 
L 380.344216 -120.128321 
L 385.438417 -128.826802 
L 390.532618 -111.537003 
L 395.626818 -115.12195 
L 395.626818 -173.560268 
L 395.626818 -173.560268 
L 390.532618 -168.962952 
L 385.438417 -194.884407 
L 380.344216 -182.725991 
L 375.250016 -150.967189 
L 370.155815 -163.0829 
L 365.061614 -184.998104 
L 359.967414 -193.779561 
L 354.873213 -232.425338 
L 349.779013 -209.837232 
L 344.684812 -124.613442 
L 339.590611 -90.353919 
L 334.496411 -181.677148 
L 329.40221 -208.769899 
L 324.308009 -165.522748 
L 319.213809 -191.637187 
L 314.119608 -206.697141 
L 309.025408 -198.168487 
L 303.931207 -90.353919 
L 298.837006 -216.114246 
L 293.742806 -90.353919 
L 288.648605 -216.114246 
L 283.554404 -205.625649 
L 278.460204 -90.353919 
L 273.366003 -205.625649 
L 268.271803 -90.353919 
L 263.177602 -186.125093 
L 258.083401 -90.353919 
L 252.989201 -90.353919 
L 247.895 -232.425338 
L 242.800799 -168.962952 
L 237.706599 -166.728836 
L 232.612398 -178.240251 
L 227.518197 -167.926275 
L 222.423997 -211.959181 
L 217.329796 -163.0829 
L 212.235596 -153.540022 
L 207.141395 -155.821745 
L 202.047194 -257.748182 
L 196.952994 -213.014023 
L 191.858793 -186.030148 
L 186.764592 -208.769899 
L 181.670392 -213.014023 
L 176.576191 -164.307589 
L 171.481991 -187.163256 
L 166.38779 -159.590608 
L 161.293589 -153.540022 
L 156.199389 -115.488364 
L 151.105188 -152.260109 
L 146.010987 -130.082459 
L 140.916787 -139.636265 
L 135.822586 -104.919842 
L 130.728386 -123.015996 
L 125.634185 -130.082459 
L 120.539984 -107.173198 
L 115.445784 -130.082459 
L 110.351583 -115.488364 
L 105.257382 -121.372156 
L 100.163182 -107.173198 
z
" id="m02a82e3507" style="stroke:#1f77b4;stroke-opacity:0.2;"/>
    </defs>
    <g clip-path="url(#p050193215d)">
     <use style="fill:#1f77b4;fill-opacity:0.2;stroke:#1f77b4;stroke-opacity:0.2;" x="0" xlink:href="#m02a82e3507" y="288"/>
    </g>
   </g>
   <g id="line2d_11">
    <path clip-path="url(#p050193215d)" d="M 100.163182 192.806221 
L 105.257382 197.646081 
L 110.351583 192.806221 
L 115.445784 178.286641 
L 120.539984 197.646081 
L 125.634185 197.646081 
L 130.728386 192.806221 
L 135.822586 187.217632 
L 140.916787 187.217632 
L 146.010987 178.286641 
L 151.105188 187.966361 
L 156.199389 171.949323 
L 161.293589 187.217632 
L 166.38779 176.040454 
L 171.481991 167.109463 
L 176.576191 166.360734 
L 181.670392 167.109463 
L 186.764592 161.520874 
L 191.858793 172.698052 
L 196.952994 187.966361 
L 202.047194 152.589882 
L 207.141395 187.217632 
L 212.235596 187.966361 
L 217.329796 171.200594 
L 222.423997 140.663975 
L 227.518197 163.018331 
L 232.612398 160.023416 
L 237.706599 163.76706 
L 242.800799 166.360734 
L 247.895 157.429742 
L 252.989201 197.646081 
L 258.083401 197.646081 
L 263.177602 176.789183 
L 268.271803 197.646081 
L 273.366003 177.537912 
L 278.460204 197.646081 
L 283.554404 182.377772 
L 288.648605 178.286641 
L 293.742806 197.646081 
L 298.837006 183.126501 
L 303.931207 197.646081 
L 309.025408 156.681013 
L 314.119608 126.893124 
L 319.213809 119.058348 
L 324.308009 147.750022 
L 329.40221 152.589882 
L 334.496411 171.200594 
L 339.590611 197.646081 
L 344.684812 192.057492 
L 349.779013 182.377772 
L 354.873213 167.858191 
L 359.967414 177.537912 
L 365.061614 171.949323 
L 370.155815 176.789183 
L 375.250016 187.217632 
L 380.344216 167.109463 
L 385.438417 176.789183 
L 390.532618 176.040454 
L 395.626818 187.966361 
" style="fill:none;stroke:#808080;stroke-linecap:round;stroke-opacity:0.8;stroke-width:0.7;"/>
    <defs>
     <path d="M -0 2.5 
L 2.5 -2.5 
L -2.5 -2.5 
z
" id="m87a0dccbb9" style="stroke:#000000;stroke-linejoin:miter;stroke-opacity:0.8;"/>
    </defs>
    <g clip-path="url(#p050193215d)">
     <use style="fill:#808080;fill-opacity:0.8;stroke:#000000;stroke-linejoin:miter;stroke-opacity:0.8;" x="100.163182" xlink:href="#m87a0dccbb9" y="192.806221"/>
     <use style="fill:#808080;fill-opacity:0.8;stroke:#000000;stroke-linejoin:miter;stroke-opacity:0.8;" x="105.257382" xlink:href="#m87a0dccbb9" y="197.646081"/>
     <use style="fill:#808080;fill-opacity:0.8;stroke:#000000;stroke-linejoin:miter;stroke-opacity:0.8;" x="110.351583" xlink:href="#m87a0dccbb9" y="192.806221"/>
     <use style="fill:#808080;fill-opacity:0.8;stroke:#000000;stroke-linejoin:miter;stroke-opacity:0.8;" x="115.445784" xlink:href="#m87a0dccbb9" y="178.286641"/>
     <use style="fill:#808080;fill-opacity:0.8;stroke:#000000;stroke-linejoin:miter;stroke-opacity:0.8;" x="120.539984" xlink:href="#m87a0dccbb9" y="197.646081"/>
     <use style="fill:#808080;fill-opacity:0.8;stroke:#000000;stroke-linejoin:miter;stroke-opacity:0.8;" x="125.634185" xlink:href="#m87a0dccbb9" y="197.646081"/>
     <use style="fill:#808080;fill-opacity:0.8;stroke:#000000;stroke-linejoin:miter;stroke-opacity:0.8;" x="130.728386" xlink:href="#m87a0dccbb9" y="192.806221"/>
     <use style="fill:#808080;fill-opacity:0.8;stroke:#000000;stroke-linejoin:miter;stroke-opacity:0.8;" x="135.822586" xlink:href="#m87a0dccbb9" y="187.217632"/>
     <use style="fill:#808080;fill-opacity:0.8;stroke:#000000;stroke-linejoin:miter;stroke-opacity:0.8;" x="140.916787" xlink:href="#m87a0dccbb9" y="187.217632"/>
     <use style="fill:#808080;fill-opacity:0.8;stroke:#000000;stroke-linejoin:miter;stroke-opacity:0.8;" x="146.010987" xlink:href="#m87a0dccbb9" y="178.286641"/>
     <use style="fill:#808080;fill-opacity:0.8;stroke:#000000;stroke-linejoin:miter;stroke-opacity:0.8;" x="151.105188" xlink:href="#m87a0dccbb9" y="187.966361"/>
     <use style="fill:#808080;fill-opacity:0.8;stroke:#000000;stroke-linejoin:miter;stroke-opacity:0.8;" x="156.199389" xlink:href="#m87a0dccbb9" y="171.949323"/>
     <use style="fill:#808080;fill-opacity:0.8;stroke:#000000;stroke-linejoin:miter;stroke-opacity:0.8;" x="161.293589" xlink:href="#m87a0dccbb9" y="187.217632"/>
     <use style="fill:#808080;fill-opacity:0.8;stroke:#000000;stroke-linejoin:miter;stroke-opacity:0.8;" x="166.38779" xlink:href="#m87a0dccbb9" y="176.040454"/>
     <use style="fill:#808080;fill-opacity:0.8;stroke:#000000;stroke-linejoin:miter;stroke-opacity:0.8;" x="171.481991" xlink:href="#m87a0dccbb9" y="167.109463"/>
     <use style="fill:#808080;fill-opacity:0.8;stroke:#000000;stroke-linejoin:miter;stroke-opacity:0.8;" x="176.576191" xlink:href="#m87a0dccbb9" y="166.360734"/>
     <use style="fill:#808080;fill-opacity:0.8;stroke:#000000;stroke-linejoin:miter;stroke-opacity:0.8;" x="181.670392" xlink:href="#m87a0dccbb9" y="167.109463"/>
     <use style="fill:#808080;fill-opacity:0.8;stroke:#000000;stroke-linejoin:miter;stroke-opacity:0.8;" x="186.764592" xlink:href="#m87a0dccbb9" y="161.520874"/>
     <use style="fill:#808080;fill-opacity:0.8;stroke:#000000;stroke-linejoin:miter;stroke-opacity:0.8;" x="191.858793" xlink:href="#m87a0dccbb9" y="172.698052"/>
     <use style="fill:#808080;fill-opacity:0.8;stroke:#000000;stroke-linejoin:miter;stroke-opacity:0.8;" x="196.952994" xlink:href="#m87a0dccbb9" y="187.966361"/>
     <use style="fill:#808080;fill-opacity:0.8;stroke:#000000;stroke-linejoin:miter;stroke-opacity:0.8;" x="202.047194" xlink:href="#m87a0dccbb9" y="152.589882"/>
     <use style="fill:#808080;fill-opacity:0.8;stroke:#000000;stroke-linejoin:miter;stroke-opacity:0.8;" x="207.141395" xlink:href="#m87a0dccbb9" y="187.217632"/>
     <use style="fill:#808080;fill-opacity:0.8;stroke:#000000;stroke-linejoin:miter;stroke-opacity:0.8;" x="212.235596" xlink:href="#m87a0dccbb9" y="187.966361"/>
     <use style="fill:#808080;fill-opacity:0.8;stroke:#000000;stroke-linejoin:miter;stroke-opacity:0.8;" x="217.329796" xlink:href="#m87a0dccbb9" y="171.200594"/>
     <use style="fill:#808080;fill-opacity:0.8;stroke:#000000;stroke-linejoin:miter;stroke-opacity:0.8;" x="222.423997" xlink:href="#m87a0dccbb9" y="140.663975"/>
     <use style="fill:#808080;fill-opacity:0.8;stroke:#000000;stroke-linejoin:miter;stroke-opacity:0.8;" x="227.518197" xlink:href="#m87a0dccbb9" y="163.018331"/>
     <use style="fill:#808080;fill-opacity:0.8;stroke:#000000;stroke-linejoin:miter;stroke-opacity:0.8;" x="232.612398" xlink:href="#m87a0dccbb9" y="160.023416"/>
     <use style="fill:#808080;fill-opacity:0.8;stroke:#000000;stroke-linejoin:miter;stroke-opacity:0.8;" x="237.706599" xlink:href="#m87a0dccbb9" y="163.76706"/>
     <use style="fill:#808080;fill-opacity:0.8;stroke:#000000;stroke-linejoin:miter;stroke-opacity:0.8;" x="242.800799" xlink:href="#m87a0dccbb9" y="166.360734"/>
     <use style="fill:#808080;fill-opacity:0.8;stroke:#000000;stroke-linejoin:miter;stroke-opacity:0.8;" x="247.895" xlink:href="#m87a0dccbb9" y="157.429742"/>
     <use style="fill:#808080;fill-opacity:0.8;stroke:#000000;stroke-linejoin:miter;stroke-opacity:0.8;" x="252.989201" xlink:href="#m87a0dccbb9" y="197.646081"/>
     <use style="fill:#808080;fill-opacity:0.8;stroke:#000000;stroke-linejoin:miter;stroke-opacity:0.8;" x="258.083401" xlink:href="#m87a0dccbb9" y="197.646081"/>
     <use style="fill:#808080;fill-opacity:0.8;stroke:#000000;stroke-linejoin:miter;stroke-opacity:0.8;" x="263.177602" xlink:href="#m87a0dccbb9" y="176.789183"/>
     <use style="fill:#808080;fill-opacity:0.8;stroke:#000000;stroke-linejoin:miter;stroke-opacity:0.8;" x="268.271803" xlink:href="#m87a0dccbb9" y="197.646081"/>
     <use style="fill:#808080;fill-opacity:0.8;stroke:#000000;stroke-linejoin:miter;stroke-opacity:0.8;" x="273.366003" xlink:href="#m87a0dccbb9" y="177.537912"/>
     <use style="fill:#808080;fill-opacity:0.8;stroke:#000000;stroke-linejoin:miter;stroke-opacity:0.8;" x="278.460204" xlink:href="#m87a0dccbb9" y="197.646081"/>
     <use style="fill:#808080;fill-opacity:0.8;stroke:#000000;stroke-linejoin:miter;stroke-opacity:0.8;" x="283.554404" xlink:href="#m87a0dccbb9" y="182.377772"/>
     <use style="fill:#808080;fill-opacity:0.8;stroke:#000000;stroke-linejoin:miter;stroke-opacity:0.8;" x="288.648605" xlink:href="#m87a0dccbb9" y="178.286641"/>
     <use style="fill:#808080;fill-opacity:0.8;stroke:#000000;stroke-linejoin:miter;stroke-opacity:0.8;" x="293.742806" xlink:href="#m87a0dccbb9" y="197.646081"/>
     <use style="fill:#808080;fill-opacity:0.8;stroke:#000000;stroke-linejoin:miter;stroke-opacity:0.8;" x="298.837006" xlink:href="#m87a0dccbb9" y="183.126501"/>
     <use style="fill:#808080;fill-opacity:0.8;stroke:#000000;stroke-linejoin:miter;stroke-opacity:0.8;" x="303.931207" xlink:href="#m87a0dccbb9" y="197.646081"/>
     <use style="fill:#808080;fill-opacity:0.8;stroke:#000000;stroke-linejoin:miter;stroke-opacity:0.8;" x="309.025408" xlink:href="#m87a0dccbb9" y="156.681013"/>
     <use style="fill:#808080;fill-opacity:0.8;stroke:#000000;stroke-linejoin:miter;stroke-opacity:0.8;" x="314.119608" xlink:href="#m87a0dccbb9" y="126.893124"/>
     <use style="fill:#808080;fill-opacity:0.8;stroke:#000000;stroke-linejoin:miter;stroke-opacity:0.8;" x="319.213809" xlink:href="#m87a0dccbb9" y="119.058348"/>
     <use style="fill:#808080;fill-opacity:0.8;stroke:#000000;stroke-linejoin:miter;stroke-opacity:0.8;" x="324.308009" xlink:href="#m87a0dccbb9" y="147.750022"/>
     <use style="fill:#808080;fill-opacity:0.8;stroke:#000000;stroke-linejoin:miter;stroke-opacity:0.8;" x="329.40221" xlink:href="#m87a0dccbb9" y="152.589882"/>
     <use style="fill:#808080;fill-opacity:0.8;stroke:#000000;stroke-linejoin:miter;stroke-opacity:0.8;" x="334.496411" xlink:href="#m87a0dccbb9" y="171.200594"/>
     <use style="fill:#808080;fill-opacity:0.8;stroke:#000000;stroke-linejoin:miter;stroke-opacity:0.8;" x="339.590611" xlink:href="#m87a0dccbb9" y="197.646081"/>
     <use style="fill:#808080;fill-opacity:0.8;stroke:#000000;stroke-linejoin:miter;stroke-opacity:0.8;" x="344.684812" xlink:href="#m87a0dccbb9" y="192.057492"/>
     <use style="fill:#808080;fill-opacity:0.8;stroke:#000000;stroke-linejoin:miter;stroke-opacity:0.8;" x="349.779013" xlink:href="#m87a0dccbb9" y="182.377772"/>
     <use style="fill:#808080;fill-opacity:0.8;stroke:#000000;stroke-linejoin:miter;stroke-opacity:0.8;" x="354.873213" xlink:href="#m87a0dccbb9" y="167.858191"/>
     <use style="fill:#808080;fill-opacity:0.8;stroke:#000000;stroke-linejoin:miter;stroke-opacity:0.8;" x="359.967414" xlink:href="#m87a0dccbb9" y="177.537912"/>
     <use style="fill:#808080;fill-opacity:0.8;stroke:#000000;stroke-linejoin:miter;stroke-opacity:0.8;" x="365.061614" xlink:href="#m87a0dccbb9" y="171.949323"/>
     <use style="fill:#808080;fill-opacity:0.8;stroke:#000000;stroke-linejoin:miter;stroke-opacity:0.8;" x="370.155815" xlink:href="#m87a0dccbb9" y="176.789183"/>
     <use style="fill:#808080;fill-opacity:0.8;stroke:#000000;stroke-linejoin:miter;stroke-opacity:0.8;" x="375.250016" xlink:href="#m87a0dccbb9" y="187.217632"/>
     <use style="fill:#808080;fill-opacity:0.8;stroke:#000000;stroke-linejoin:miter;stroke-opacity:0.8;" x="380.344216" xlink:href="#m87a0dccbb9" y="167.109463"/>
     <use style="fill:#808080;fill-opacity:0.8;stroke:#000000;stroke-linejoin:miter;stroke-opacity:0.8;" x="385.438417" xlink:href="#m87a0dccbb9" y="176.789183"/>
     <use style="fill:#808080;fill-opacity:0.8;stroke:#000000;stroke-linejoin:miter;stroke-opacity:0.8;" x="390.532618" xlink:href="#m87a0dccbb9" y="176.040454"/>
     <use style="fill:#808080;fill-opacity:0.8;stroke:#000000;stroke-linejoin:miter;stroke-opacity:0.8;" x="395.626818" xlink:href="#m87a0dccbb9" y="187.966361"/>
    </g>
   </g>
   <g id="line2d_12">
    <path clip-path="url(#p050193215d)" d="M 100.163182 192.806221 
L 105.257382 197.646081 
L 110.351583 192.806221 
L 115.445784 178.286641 
L 120.539984 197.646081 
L 125.634185 197.646081 
L 130.728386 192.806221 
L 135.822586 187.217632 
L 140.916787 187.217632 
L 146.010987 178.286641 
L 151.105188 187.966361 
L 156.199389 171.949323 
L 161.293589 187.217632 
L 166.38779 176.040454 
L 171.481991 167.109463 
L 176.576191 166.360734 
L 181.670392 167.109463 
L 186.764592 161.520874 
L 191.858793 172.698052 
L 196.952994 187.966361 
L 202.047194 152.589882 
L 207.141395 187.217632 
L 212.235596 187.966361 
L 217.329796 171.200594 
L 222.423997 140.663975 
L 227.518197 163.018331 
L 232.612398 160.023416 
L 237.706599 163.76706 
L 242.800799 166.360734 
L 247.895 157.429742 
L 252.989201 197.646081 
L 258.083401 197.646081 
L 263.177602 176.789183 
L 268.271803 197.646081 
L 273.366003 177.537912 
L 278.460204 197.646081 
L 283.554404 182.377772 
L 288.648605 178.286641 
L 293.742806 197.646081 
L 298.837006 183.126501 
L 303.931207 197.646081 
L 309.025408 156.681013 
L 314.119608 126.893124 
L 319.213809 119.058348 
L 324.308009 147.750022 
L 329.40221 152.589882 
L 334.496411 171.200594 
L 339.590611 197.646081 
L 344.684812 192.057492 
L 349.779013 182.377772 
L 354.873213 167.858191 
L 359.967414 177.537912 
L 365.061614 171.949323 
L 370.155815 176.789183 
L 375.250016 187.217632 
L 380.344216 167.109463 
L 385.438417 176.789183 
L 390.532618 176.040454 
L 395.626818 187.966361 
" style="fill:none;stroke:#808080;stroke-linecap:round;stroke-width:0.7;"/>
   </g>
   <g id="line2d_13">
    <path clip-path="url(#p050193215d)" d="M 100.163182 202.532284 
L 105.257382 197.646081 
L 110.351583 202.532284 
L 115.445784 197.133889 
L 120.539984 197.646081 
L 125.634185 197.646081 
L 130.728386 202.532284 
L 135.822586 201.923628 
L 140.916787 201.923628 
L 146.010987 197.133889 
L 151.105188 201.580013 
L 156.199389 194.143107 
L 161.293589 201.923628 
L 166.38779 197.115606 
L 171.481991 190.914092 
L 176.576191 190.753789 
L 181.670392 190.914092 
L 186.764592 187.301856 
L 191.858793 194.227418 
L 196.952994 201.580013 
L 202.047194 180.262665 
L 207.141395 201.923628 
L 212.235596 201.580013 
L 217.329796 194.037453 
L 222.423997 171.568202 
L 227.518197 187.697063 
L 232.612398 186.85453 
L 237.706599 187.872901 
L 242.800799 190.753789 
L 247.895 183.948977 
L 252.989201 197.646081 
L 258.083401 197.646081 
L 263.177602 197.151076 
L 268.271803 197.646081 
L 273.366003 197.158282 
L 278.460204 197.646081 
L 283.554404 199.771539 
L 288.648605 197.133889 
L 293.742806 197.646081 
L 298.837006 199.625157 
L 303.931207 197.646081 
L 309.025408 183.707591 
L 314.119608 159.565809 
L 319.213809 153.645955 
L 324.308009 176.462997 
L 329.40221 180.262665 
L 334.496411 194.037453 
L 339.590611 197.646081 
L 344.684812 203.288182 
L 349.779013 199.771539 
L 354.873213 191.057486 
L 359.967414 197.158282 
L 365.061614 194.143107 
L 370.155815 197.151076 
L 375.250016 201.923628 
L 380.344216 190.914092 
L 385.438417 197.151076 
L 390.532618 197.115606 
L 395.626818 201.580013 
" style="fill:none;stroke:#808080;stroke-dasharray:1.85,0.8;stroke-dashoffset:0;stroke-width:0.5;"/>
   </g>
   <g id="line2d_14">
    <path clip-path="url(#p050193215d)" d="M 100.163182 183.080158 
L 105.257382 197.646081 
L 110.351583 183.080158 
L 115.445784 159.439393 
L 120.539984 197.646081 
L 125.634185 197.646081 
L 130.728386 183.080158 
L 135.822586 172.511636 
L 140.916787 172.511636 
L 146.010987 159.439393 
L 151.105188 174.352708 
L 156.199389 149.755538 
L 161.293589 172.511636 
L 166.38779 154.965301 
L 171.481991 143.304833 
L 176.576191 141.967679 
L 181.670392 143.304833 
L 186.764592 135.739891 
L 191.858793 151.168685 
L 196.952994 174.352708 
L 202.047194 124.9171 
L 207.141395 172.511636 
L 212.235596 174.352708 
L 217.329796 148.363735 
L 222.423997 109.759749 
L 227.518197 138.3396 
L 232.612398 133.192301 
L 237.706599 139.66122 
L 242.800799 141.967679 
L 247.895 130.910508 
L 252.989201 197.646081 
L 258.083401 197.646081 
L 263.177602 156.427289 
L 268.271803 197.646081 
L 273.366003 157.917541 
L 278.460204 197.646081 
L 283.554404 164.984004 
L 288.648605 159.439393 
L 293.742806 197.646081 
L 298.837006 166.627844 
L 303.931207 197.646081 
L 309.025408 129.654436 
L 314.119608 94.220439 
L 319.213809 84.470742 
L 324.308009 119.037048 
L 329.40221 124.9171 
L 334.496411 148.363735 
L 339.590611 197.646081 
L 344.684812 180.826802 
L 349.779013 164.984004 
L 354.873213 144.658897 
L 359.967414 157.917541 
L 365.061614 149.755538 
L 370.155815 156.427289 
L 375.250016 172.511636 
L 380.344216 143.304833 
L 385.438417 156.427289 
L 390.532618 154.965301 
L 395.626818 174.352708 
" style="fill:none;stroke:#808080;stroke-dasharray:1.85,0.8;stroke-dashoffset:0;stroke-width:0.5;"/>
   </g>
   <g id="line2d_15">
    <path clip-path="url(#p050193215d)" d="M 100.163182 197.646081 
L 105.257382 197.646081 
L 110.351583 192.057492 
L 115.445784 192.806221 
L 120.539984 192.806221 
L 125.634185 192.806221 
L 130.728386 192.806221 
L 135.822586 192.806221 
L 140.916787 197.646081 
L 146.010987 197.646081 
L 151.105188 192.806221 
L 156.199389 197.646081 
L 161.293589 192.806221 
L 166.38779 192.806221 
L 171.481991 187.966361 
L 176.576191 187.217632 
L 181.670392 192.806221 
L 186.764592 192.057492 
L 191.858793 197.646081 
L 196.952994 192.806221 
L 202.047194 187.217632 
L 207.141395 197.646081 
L 212.235596 192.806221 
L 217.329796 192.806221 
L 222.423997 192.806221 
L 227.518197 197.646081 
L 232.612398 197.646081 
L 237.706599 192.806221 
L 242.800799 187.966361 
L 247.895 186.468903 
L 252.989201 197.646081 
L 258.083401 197.646081 
L 263.177602 192.806221 
L 268.271803 197.646081 
L 273.366003 197.646081 
L 278.460204 197.646081 
L 283.554404 197.646081 
L 288.648605 197.646081 
L 293.742806 197.646081 
L 298.837006 197.646081 
L 303.931207 197.646081 
L 309.025408 192.057492 
L 314.119608 182.377772 
L 319.213809 183.126501 
L 324.308009 183.126501 
L 329.40221 187.217632 
L 334.496411 192.806221 
L 339.590611 197.646081 
L 344.684812 192.057492 
L 349.779013 197.646081 
L 354.873213 192.806221 
L 359.967414 192.057492 
L 365.061614 192.806221 
L 370.155815 192.806221 
L 375.250016 197.646081 
L 380.344216 197.646081 
L 385.438417 192.806221 
L 390.532618 192.806221 
L 395.626818 192.806221 
" style="fill:none;stroke:#ff7f0e;stroke-linecap:round;stroke-opacity:0.8;stroke-width:0.7;"/>
    <defs>
     <path d="M 0 -2.5 
L -2.5 2.5 
L 2.5 2.5 
z
" id="mb78e8428a5" style="stroke:#000000;stroke-linejoin:miter;stroke-opacity:0.8;"/>
    </defs>
    <g clip-path="url(#p050193215d)">
     <use style="fill:#ff7f0e;fill-opacity:0.8;stroke:#000000;stroke-linejoin:miter;stroke-opacity:0.8;" x="100.163182" xlink:href="#mb78e8428a5" y="197.646081"/>
     <use style="fill:#ff7f0e;fill-opacity:0.8;stroke:#000000;stroke-linejoin:miter;stroke-opacity:0.8;" x="105.257382" xlink:href="#mb78e8428a5" y="197.646081"/>
     <use style="fill:#ff7f0e;fill-opacity:0.8;stroke:#000000;stroke-linejoin:miter;stroke-opacity:0.8;" x="110.351583" xlink:href="#mb78e8428a5" y="192.057492"/>
     <use style="fill:#ff7f0e;fill-opacity:0.8;stroke:#000000;stroke-linejoin:miter;stroke-opacity:0.8;" x="115.445784" xlink:href="#mb78e8428a5" y="192.806221"/>
     <use style="fill:#ff7f0e;fill-opacity:0.8;stroke:#000000;stroke-linejoin:miter;stroke-opacity:0.8;" x="120.539984" xlink:href="#mb78e8428a5" y="192.806221"/>
     <use style="fill:#ff7f0e;fill-opacity:0.8;stroke:#000000;stroke-linejoin:miter;stroke-opacity:0.8;" x="125.634185" xlink:href="#mb78e8428a5" y="192.806221"/>
     <use style="fill:#ff7f0e;fill-opacity:0.8;stroke:#000000;stroke-linejoin:miter;stroke-opacity:0.8;" x="130.728386" xlink:href="#mb78e8428a5" y="192.806221"/>
     <use style="fill:#ff7f0e;fill-opacity:0.8;stroke:#000000;stroke-linejoin:miter;stroke-opacity:0.8;" x="135.822586" xlink:href="#mb78e8428a5" y="192.806221"/>
     <use style="fill:#ff7f0e;fill-opacity:0.8;stroke:#000000;stroke-linejoin:miter;stroke-opacity:0.8;" x="140.916787" xlink:href="#mb78e8428a5" y="197.646081"/>
     <use style="fill:#ff7f0e;fill-opacity:0.8;stroke:#000000;stroke-linejoin:miter;stroke-opacity:0.8;" x="146.010987" xlink:href="#mb78e8428a5" y="197.646081"/>
     <use style="fill:#ff7f0e;fill-opacity:0.8;stroke:#000000;stroke-linejoin:miter;stroke-opacity:0.8;" x="151.105188" xlink:href="#mb78e8428a5" y="192.806221"/>
     <use style="fill:#ff7f0e;fill-opacity:0.8;stroke:#000000;stroke-linejoin:miter;stroke-opacity:0.8;" x="156.199389" xlink:href="#mb78e8428a5" y="197.646081"/>
     <use style="fill:#ff7f0e;fill-opacity:0.8;stroke:#000000;stroke-linejoin:miter;stroke-opacity:0.8;" x="161.293589" xlink:href="#mb78e8428a5" y="192.806221"/>
     <use style="fill:#ff7f0e;fill-opacity:0.8;stroke:#000000;stroke-linejoin:miter;stroke-opacity:0.8;" x="166.38779" xlink:href="#mb78e8428a5" y="192.806221"/>
     <use style="fill:#ff7f0e;fill-opacity:0.8;stroke:#000000;stroke-linejoin:miter;stroke-opacity:0.8;" x="171.481991" xlink:href="#mb78e8428a5" y="187.966361"/>
     <use style="fill:#ff7f0e;fill-opacity:0.8;stroke:#000000;stroke-linejoin:miter;stroke-opacity:0.8;" x="176.576191" xlink:href="#mb78e8428a5" y="187.217632"/>
     <use style="fill:#ff7f0e;fill-opacity:0.8;stroke:#000000;stroke-linejoin:miter;stroke-opacity:0.8;" x="181.670392" xlink:href="#mb78e8428a5" y="192.806221"/>
     <use style="fill:#ff7f0e;fill-opacity:0.8;stroke:#000000;stroke-linejoin:miter;stroke-opacity:0.8;" x="186.764592" xlink:href="#mb78e8428a5" y="192.057492"/>
     <use style="fill:#ff7f0e;fill-opacity:0.8;stroke:#000000;stroke-linejoin:miter;stroke-opacity:0.8;" x="191.858793" xlink:href="#mb78e8428a5" y="197.646081"/>
     <use style="fill:#ff7f0e;fill-opacity:0.8;stroke:#000000;stroke-linejoin:miter;stroke-opacity:0.8;" x="196.952994" xlink:href="#mb78e8428a5" y="192.806221"/>
     <use style="fill:#ff7f0e;fill-opacity:0.8;stroke:#000000;stroke-linejoin:miter;stroke-opacity:0.8;" x="202.047194" xlink:href="#mb78e8428a5" y="187.217632"/>
     <use style="fill:#ff7f0e;fill-opacity:0.8;stroke:#000000;stroke-linejoin:miter;stroke-opacity:0.8;" x="207.141395" xlink:href="#mb78e8428a5" y="197.646081"/>
     <use style="fill:#ff7f0e;fill-opacity:0.8;stroke:#000000;stroke-linejoin:miter;stroke-opacity:0.8;" x="212.235596" xlink:href="#mb78e8428a5" y="192.806221"/>
     <use style="fill:#ff7f0e;fill-opacity:0.8;stroke:#000000;stroke-linejoin:miter;stroke-opacity:0.8;" x="217.329796" xlink:href="#mb78e8428a5" y="192.806221"/>
     <use style="fill:#ff7f0e;fill-opacity:0.8;stroke:#000000;stroke-linejoin:miter;stroke-opacity:0.8;" x="222.423997" xlink:href="#mb78e8428a5" y="192.806221"/>
     <use style="fill:#ff7f0e;fill-opacity:0.8;stroke:#000000;stroke-linejoin:miter;stroke-opacity:0.8;" x="227.518197" xlink:href="#mb78e8428a5" y="197.646081"/>
     <use style="fill:#ff7f0e;fill-opacity:0.8;stroke:#000000;stroke-linejoin:miter;stroke-opacity:0.8;" x="232.612398" xlink:href="#mb78e8428a5" y="197.646081"/>
     <use style="fill:#ff7f0e;fill-opacity:0.8;stroke:#000000;stroke-linejoin:miter;stroke-opacity:0.8;" x="237.706599" xlink:href="#mb78e8428a5" y="192.806221"/>
     <use style="fill:#ff7f0e;fill-opacity:0.8;stroke:#000000;stroke-linejoin:miter;stroke-opacity:0.8;" x="242.800799" xlink:href="#mb78e8428a5" y="187.966361"/>
     <use style="fill:#ff7f0e;fill-opacity:0.8;stroke:#000000;stroke-linejoin:miter;stroke-opacity:0.8;" x="247.895" xlink:href="#mb78e8428a5" y="186.468903"/>
     <use style="fill:#ff7f0e;fill-opacity:0.8;stroke:#000000;stroke-linejoin:miter;stroke-opacity:0.8;" x="252.989201" xlink:href="#mb78e8428a5" y="197.646081"/>
     <use style="fill:#ff7f0e;fill-opacity:0.8;stroke:#000000;stroke-linejoin:miter;stroke-opacity:0.8;" x="258.083401" xlink:href="#mb78e8428a5" y="197.646081"/>
     <use style="fill:#ff7f0e;fill-opacity:0.8;stroke:#000000;stroke-linejoin:miter;stroke-opacity:0.8;" x="263.177602" xlink:href="#mb78e8428a5" y="192.806221"/>
     <use style="fill:#ff7f0e;fill-opacity:0.8;stroke:#000000;stroke-linejoin:miter;stroke-opacity:0.8;" x="268.271803" xlink:href="#mb78e8428a5" y="197.646081"/>
     <use style="fill:#ff7f0e;fill-opacity:0.8;stroke:#000000;stroke-linejoin:miter;stroke-opacity:0.8;" x="273.366003" xlink:href="#mb78e8428a5" y="197.646081"/>
     <use style="fill:#ff7f0e;fill-opacity:0.8;stroke:#000000;stroke-linejoin:miter;stroke-opacity:0.8;" x="278.460204" xlink:href="#mb78e8428a5" y="197.646081"/>
     <use style="fill:#ff7f0e;fill-opacity:0.8;stroke:#000000;stroke-linejoin:miter;stroke-opacity:0.8;" x="283.554404" xlink:href="#mb78e8428a5" y="197.646081"/>
     <use style="fill:#ff7f0e;fill-opacity:0.8;stroke:#000000;stroke-linejoin:miter;stroke-opacity:0.8;" x="288.648605" xlink:href="#mb78e8428a5" y="197.646081"/>
     <use style="fill:#ff7f0e;fill-opacity:0.8;stroke:#000000;stroke-linejoin:miter;stroke-opacity:0.8;" x="293.742806" xlink:href="#mb78e8428a5" y="197.646081"/>
     <use style="fill:#ff7f0e;fill-opacity:0.8;stroke:#000000;stroke-linejoin:miter;stroke-opacity:0.8;" x="298.837006" xlink:href="#mb78e8428a5" y="197.646081"/>
     <use style="fill:#ff7f0e;fill-opacity:0.8;stroke:#000000;stroke-linejoin:miter;stroke-opacity:0.8;" x="303.931207" xlink:href="#mb78e8428a5" y="197.646081"/>
     <use style="fill:#ff7f0e;fill-opacity:0.8;stroke:#000000;stroke-linejoin:miter;stroke-opacity:0.8;" x="309.025408" xlink:href="#mb78e8428a5" y="192.057492"/>
     <use style="fill:#ff7f0e;fill-opacity:0.8;stroke:#000000;stroke-linejoin:miter;stroke-opacity:0.8;" x="314.119608" xlink:href="#mb78e8428a5" y="182.377772"/>
     <use style="fill:#ff7f0e;fill-opacity:0.8;stroke:#000000;stroke-linejoin:miter;stroke-opacity:0.8;" x="319.213809" xlink:href="#mb78e8428a5" y="183.126501"/>
     <use style="fill:#ff7f0e;fill-opacity:0.8;stroke:#000000;stroke-linejoin:miter;stroke-opacity:0.8;" x="324.308009" xlink:href="#mb78e8428a5" y="183.126501"/>
     <use style="fill:#ff7f0e;fill-opacity:0.8;stroke:#000000;stroke-linejoin:miter;stroke-opacity:0.8;" x="329.40221" xlink:href="#mb78e8428a5" y="187.217632"/>
     <use style="fill:#ff7f0e;fill-opacity:0.8;stroke:#000000;stroke-linejoin:miter;stroke-opacity:0.8;" x="334.496411" xlink:href="#mb78e8428a5" y="192.806221"/>
     <use style="fill:#ff7f0e;fill-opacity:0.8;stroke:#000000;stroke-linejoin:miter;stroke-opacity:0.8;" x="339.590611" xlink:href="#mb78e8428a5" y="197.646081"/>
     <use style="fill:#ff7f0e;fill-opacity:0.8;stroke:#000000;stroke-linejoin:miter;stroke-opacity:0.8;" x="344.684812" xlink:href="#mb78e8428a5" y="192.057492"/>
     <use style="fill:#ff7f0e;fill-opacity:0.8;stroke:#000000;stroke-linejoin:miter;stroke-opacity:0.8;" x="349.779013" xlink:href="#mb78e8428a5" y="197.646081"/>
     <use style="fill:#ff7f0e;fill-opacity:0.8;stroke:#000000;stroke-linejoin:miter;stroke-opacity:0.8;" x="354.873213" xlink:href="#mb78e8428a5" y="192.806221"/>
     <use style="fill:#ff7f0e;fill-opacity:0.8;stroke:#000000;stroke-linejoin:miter;stroke-opacity:0.8;" x="359.967414" xlink:href="#mb78e8428a5" y="192.057492"/>
     <use style="fill:#ff7f0e;fill-opacity:0.8;stroke:#000000;stroke-linejoin:miter;stroke-opacity:0.8;" x="365.061614" xlink:href="#mb78e8428a5" y="192.806221"/>
     <use style="fill:#ff7f0e;fill-opacity:0.8;stroke:#000000;stroke-linejoin:miter;stroke-opacity:0.8;" x="370.155815" xlink:href="#mb78e8428a5" y="192.806221"/>
     <use style="fill:#ff7f0e;fill-opacity:0.8;stroke:#000000;stroke-linejoin:miter;stroke-opacity:0.8;" x="375.250016" xlink:href="#mb78e8428a5" y="197.646081"/>
     <use style="fill:#ff7f0e;fill-opacity:0.8;stroke:#000000;stroke-linejoin:miter;stroke-opacity:0.8;" x="380.344216" xlink:href="#mb78e8428a5" y="197.646081"/>
     <use style="fill:#ff7f0e;fill-opacity:0.8;stroke:#000000;stroke-linejoin:miter;stroke-opacity:0.8;" x="385.438417" xlink:href="#mb78e8428a5" y="192.806221"/>
     <use style="fill:#ff7f0e;fill-opacity:0.8;stroke:#000000;stroke-linejoin:miter;stroke-opacity:0.8;" x="390.532618" xlink:href="#mb78e8428a5" y="192.806221"/>
     <use style="fill:#ff7f0e;fill-opacity:0.8;stroke:#000000;stroke-linejoin:miter;stroke-opacity:0.8;" x="395.626818" xlink:href="#mb78e8428a5" y="192.806221"/>
    </g>
   </g>
   <g id="line2d_16">
    <path clip-path="url(#p050193215d)" d="M 100.163182 197.646081 
L 105.257382 197.646081 
L 110.351583 192.057492 
L 115.445784 192.806221 
L 120.539984 192.806221 
L 125.634185 192.806221 
L 130.728386 192.806221 
L 135.822586 192.806221 
L 140.916787 197.646081 
L 146.010987 197.646081 
L 151.105188 192.806221 
L 156.199389 197.646081 
L 161.293589 192.806221 
L 166.38779 192.806221 
L 171.481991 187.966361 
L 176.576191 187.217632 
L 181.670392 192.806221 
L 186.764592 192.057492 
L 191.858793 197.646081 
L 196.952994 192.806221 
L 202.047194 187.217632 
L 207.141395 197.646081 
L 212.235596 192.806221 
L 217.329796 192.806221 
L 222.423997 192.806221 
L 227.518197 197.646081 
L 232.612398 197.646081 
L 237.706599 192.806221 
L 242.800799 187.966361 
L 247.895 186.468903 
L 252.989201 197.646081 
L 258.083401 197.646081 
L 263.177602 192.806221 
L 268.271803 197.646081 
L 273.366003 197.646081 
L 278.460204 197.646081 
L 283.554404 197.646081 
L 288.648605 197.646081 
L 293.742806 197.646081 
L 298.837006 197.646081 
L 303.931207 197.646081 
L 309.025408 192.057492 
L 314.119608 182.377772 
L 319.213809 183.126501 
L 324.308009 183.126501 
L 329.40221 187.217632 
L 334.496411 192.806221 
L 339.590611 197.646081 
L 344.684812 192.057492 
L 349.779013 197.646081 
L 354.873213 192.806221 
L 359.967414 192.057492 
L 365.061614 192.806221 
L 370.155815 192.806221 
L 375.250016 197.646081 
L 380.344216 197.646081 
L 385.438417 192.806221 
L 390.532618 192.806221 
L 395.626818 192.806221 
" style="fill:none;stroke:#ff7f0e;stroke-linecap:round;stroke-width:0.7;"/>
   </g>
   <g id="line2d_17">
    <path clip-path="url(#p050193215d)" d="M 100.163182 197.646081 
L 105.257382 197.646081 
L 110.351583 203.288182 
L 115.445784 202.532284 
L 120.539984 202.532284 
L 125.634185 202.532284 
L 130.728386 202.532284 
L 135.822586 202.532284 
L 140.916787 197.646081 
L 146.010987 197.646081 
L 151.105188 202.532284 
L 156.199389 197.646081 
L 161.293589 202.532284 
L 166.38779 202.532284 
L 171.481991 201.580013 
L 176.576191 201.923628 
L 181.670392 202.532284 
L 186.764592 203.288182 
L 191.858793 197.646081 
L 196.952994 202.532284 
L 202.047194 201.923628 
L 207.141395 197.646081 
L 212.235596 202.532284 
L 217.329796 202.532284 
L 222.423997 202.532284 
L 227.518197 197.646081 
L 232.612398 197.646081 
L 237.706599 202.532284 
L 242.800799 201.580013 
L 247.895 202.188594 
L 252.989201 197.646081 
L 258.083401 197.646081 
L 263.177602 202.532284 
L 268.271803 197.646081 
L 273.366003 197.646081 
L 278.460204 197.646081 
L 283.554404 197.646081 
L 288.648605 197.646081 
L 293.742806 197.646081 
L 298.837006 197.646081 
L 303.931207 197.646081 
L 309.025408 203.288182 
L 314.119608 199.771539 
L 319.213809 199.625157 
L 324.308009 199.625157 
L 329.40221 201.923628 
L 334.496411 202.532284 
L 339.590611 197.646081 
L 344.684812 203.288182 
L 349.779013 197.646081 
L 354.873213 202.532284 
L 359.967414 203.288182 
L 365.061614 202.532284 
L 370.155815 202.532284 
L 375.250016 197.646081 
L 380.344216 197.646081 
L 385.438417 202.532284 
L 390.532618 202.532284 
L 395.626818 202.532284 
" style="fill:none;stroke:#ff7f0e;stroke-dasharray:1.85,0.8;stroke-dashoffset:0;stroke-width:0.5;"/>
   </g>
   <g id="line2d_18">
    <path clip-path="url(#p050193215d)" d="M 100.163182 197.646081 
L 105.257382 197.646081 
L 110.351583 180.826802 
L 115.445784 183.080158 
L 120.539984 183.080158 
L 125.634185 183.080158 
L 130.728386 183.080158 
L 135.822586 183.080158 
L 140.916787 197.646081 
L 146.010987 197.646081 
L 151.105188 183.080158 
L 156.199389 197.646081 
L 161.293589 183.080158 
L 166.38779 183.080158 
L 171.481991 174.352708 
L 176.576191 172.511636 
L 181.670392 183.080158 
L 186.764592 180.826802 
L 191.858793 197.646081 
L 196.952994 183.080158 
L 202.047194 172.511636 
L 207.141395 197.646081 
L 212.235596 183.080158 
L 217.329796 183.080158 
L 222.423997 183.080158 
L 227.518197 197.646081 
L 232.612398 197.646081 
L 237.706599 183.080158 
L 242.800799 174.352708 
L 247.895 170.749211 
L 252.989201 197.646081 
L 258.083401 197.646081 
L 263.177602 183.080158 
L 268.271803 197.646081 
L 273.366003 197.646081 
L 278.460204 197.646081 
L 283.554404 197.646081 
L 288.648605 197.646081 
L 293.742806 197.646081 
L 298.837006 197.646081 
L 303.931207 197.646081 
L 309.025408 180.826802 
L 314.119608 164.984004 
L 319.213809 166.627844 
L 324.308009 166.627844 
L 329.40221 172.511636 
L 334.496411 183.080158 
L 339.590611 197.646081 
L 344.684812 180.826802 
L 349.779013 197.646081 
L 354.873213 183.080158 
L 359.967414 180.826802 
L 365.061614 183.080158 
L 370.155815 183.080158 
L 375.250016 197.646081 
L 380.344216 197.646081 
L 385.438417 183.080158 
L 390.532618 183.080158 
L 395.626818 183.080158 
" style="fill:none;stroke:#ff7f0e;stroke-dasharray:1.85,0.8;stroke-dashoffset:0;stroke-width:0.5;"/>
   </g>
   <g id="line2d_19">
    <path clip-path="url(#p050193215d)" d="M 100.163182 192.057492 
L 105.257382 183.126501 
L 110.351583 187.217632 
L 115.445784 177.537912 
L 120.539984 192.057492 
L 125.634185 177.537912 
L 130.728386 182.377772 
L 135.822586 192.806221 
L 140.916787 171.200594 
L 146.010987 177.537912 
L 151.105188 161.520874 
L 156.199389 187.217632 
L 161.293589 160.772145 
L 166.38779 155.932285 
L 171.481991 132.481713 
L 176.576191 151.841153 
L 181.670392 110.127357 
L 186.764592 113.122273 
L 191.858793 133.230442 
L 196.952994 110.127357 
L 202.047194 66.568617 
L 207.141395 158.178471 
L 212.235596 160.772145 
L 217.329796 152.589882 
L 222.423997 110.876086 
L 227.518197 149.594967 
L 232.612398 140.663975 
L 237.706599 150.343695 
L 242.800799 147.750022 
L 247.895 91.516646 
L 252.989201 197.646081 
L 258.083401 197.646081 
L 263.177602 134.326657 
L 268.271803 197.646081 
L 273.366003 116.464675 
L 278.460204 197.646081 
L 283.554404 116.464675 
L 288.648605 106.784955 
L 293.742806 197.646081 
L 298.837006 106.784955 
L 303.931207 197.646081 
L 309.025408 123.898208 
L 314.119608 115.715946 
L 319.213809 129.486797 
L 324.308009 151.092424 
L 329.40221 113.122273 
L 334.496411 138.417789 
L 339.590611 197.646081 
L 344.684812 181.629043 
L 349.779013 112.373544 
L 354.873213 91.516646 
L 359.967414 126.893124 
L 365.061614 135.075386 
L 370.155815 152.589882 
L 375.250016 162.269602 
L 380.344216 136.572844 
L 385.438417 126.144395 
L 390.532618 147.750022 
L 395.626818 143.658891 
" style="fill:none;stroke:#1f77b4;stroke-linecap:round;stroke-opacity:0.8;stroke-width:0.7;"/>
    <defs>
     <path d="M 0 2.5 
C 0.663008 2.5 1.29895 2.236584 1.767767 1.767767 
C 2.236584 1.29895 2.5 0.663008 2.5 0 
C 2.5 -0.663008 2.236584 -1.29895 1.767767 -1.767767 
C 1.29895 -2.236584 0.663008 -2.5 0 -2.5 
C -0.663008 -2.5 -1.29895 -2.236584 -1.767767 -1.767767 
C -2.236584 -1.29895 -2.5 -0.663008 -2.5 0 
C -2.5 0.663008 -2.236584 1.29895 -1.767767 1.767767 
C -1.29895 2.236584 -0.663008 2.5 0 2.5 
z
" id="mb40f531be4" style="stroke:#000000;stroke-opacity:0.8;"/>
    </defs>
    <g clip-path="url(#p050193215d)">
     <use style="fill:#1f77b4;fill-opacity:0.8;stroke:#000000;stroke-opacity:0.8;" x="100.163182" xlink:href="#mb40f531be4" y="192.057492"/>
     <use style="fill:#1f77b4;fill-opacity:0.8;stroke:#000000;stroke-opacity:0.8;" x="105.257382" xlink:href="#mb40f531be4" y="183.126501"/>
     <use style="fill:#1f77b4;fill-opacity:0.8;stroke:#000000;stroke-opacity:0.8;" x="110.351583" xlink:href="#mb40f531be4" y="187.217632"/>
     <use style="fill:#1f77b4;fill-opacity:0.8;stroke:#000000;stroke-opacity:0.8;" x="115.445784" xlink:href="#mb40f531be4" y="177.537912"/>
     <use style="fill:#1f77b4;fill-opacity:0.8;stroke:#000000;stroke-opacity:0.8;" x="120.539984" xlink:href="#mb40f531be4" y="192.057492"/>
     <use style="fill:#1f77b4;fill-opacity:0.8;stroke:#000000;stroke-opacity:0.8;" x="125.634185" xlink:href="#mb40f531be4" y="177.537912"/>
     <use style="fill:#1f77b4;fill-opacity:0.8;stroke:#000000;stroke-opacity:0.8;" x="130.728386" xlink:href="#mb40f531be4" y="182.377772"/>
     <use style="fill:#1f77b4;fill-opacity:0.8;stroke:#000000;stroke-opacity:0.8;" x="135.822586" xlink:href="#mb40f531be4" y="192.806221"/>
     <use style="fill:#1f77b4;fill-opacity:0.8;stroke:#000000;stroke-opacity:0.8;" x="140.916787" xlink:href="#mb40f531be4" y="171.200594"/>
     <use style="fill:#1f77b4;fill-opacity:0.8;stroke:#000000;stroke-opacity:0.8;" x="146.010987" xlink:href="#mb40f531be4" y="177.537912"/>
     <use style="fill:#1f77b4;fill-opacity:0.8;stroke:#000000;stroke-opacity:0.8;" x="151.105188" xlink:href="#mb40f531be4" y="161.520874"/>
     <use style="fill:#1f77b4;fill-opacity:0.8;stroke:#000000;stroke-opacity:0.8;" x="156.199389" xlink:href="#mb40f531be4" y="187.217632"/>
     <use style="fill:#1f77b4;fill-opacity:0.8;stroke:#000000;stroke-opacity:0.8;" x="161.293589" xlink:href="#mb40f531be4" y="160.772145"/>
     <use style="fill:#1f77b4;fill-opacity:0.8;stroke:#000000;stroke-opacity:0.8;" x="166.38779" xlink:href="#mb40f531be4" y="155.932285"/>
     <use style="fill:#1f77b4;fill-opacity:0.8;stroke:#000000;stroke-opacity:0.8;" x="171.481991" xlink:href="#mb40f531be4" y="132.481713"/>
     <use style="fill:#1f77b4;fill-opacity:0.8;stroke:#000000;stroke-opacity:0.8;" x="176.576191" xlink:href="#mb40f531be4" y="151.841153"/>
     <use style="fill:#1f77b4;fill-opacity:0.8;stroke:#000000;stroke-opacity:0.8;" x="181.670392" xlink:href="#mb40f531be4" y="110.127357"/>
     <use style="fill:#1f77b4;fill-opacity:0.8;stroke:#000000;stroke-opacity:0.8;" x="186.764592" xlink:href="#mb40f531be4" y="113.122273"/>
     <use style="fill:#1f77b4;fill-opacity:0.8;stroke:#000000;stroke-opacity:0.8;" x="191.858793" xlink:href="#mb40f531be4" y="133.230442"/>
     <use style="fill:#1f77b4;fill-opacity:0.8;stroke:#000000;stroke-opacity:0.8;" x="196.952994" xlink:href="#mb40f531be4" y="110.127357"/>
     <use style="fill:#1f77b4;fill-opacity:0.8;stroke:#000000;stroke-opacity:0.8;" x="202.047194" xlink:href="#mb40f531be4" y="66.568617"/>
     <use style="fill:#1f77b4;fill-opacity:0.8;stroke:#000000;stroke-opacity:0.8;" x="207.141395" xlink:href="#mb40f531be4" y="158.178471"/>
     <use style="fill:#1f77b4;fill-opacity:0.8;stroke:#000000;stroke-opacity:0.8;" x="212.235596" xlink:href="#mb40f531be4" y="160.772145"/>
     <use style="fill:#1f77b4;fill-opacity:0.8;stroke:#000000;stroke-opacity:0.8;" x="217.329796" xlink:href="#mb40f531be4" y="152.589882"/>
     <use style="fill:#1f77b4;fill-opacity:0.8;stroke:#000000;stroke-opacity:0.8;" x="222.423997" xlink:href="#mb40f531be4" y="110.876086"/>
     <use style="fill:#1f77b4;fill-opacity:0.8;stroke:#000000;stroke-opacity:0.8;" x="227.518197" xlink:href="#mb40f531be4" y="149.594967"/>
     <use style="fill:#1f77b4;fill-opacity:0.8;stroke:#000000;stroke-opacity:0.8;" x="232.612398" xlink:href="#mb40f531be4" y="140.663975"/>
     <use style="fill:#1f77b4;fill-opacity:0.8;stroke:#000000;stroke-opacity:0.8;" x="237.706599" xlink:href="#mb40f531be4" y="150.343695"/>
     <use style="fill:#1f77b4;fill-opacity:0.8;stroke:#000000;stroke-opacity:0.8;" x="242.800799" xlink:href="#mb40f531be4" y="147.750022"/>
     <use style="fill:#1f77b4;fill-opacity:0.8;stroke:#000000;stroke-opacity:0.8;" x="247.895" xlink:href="#mb40f531be4" y="91.516646"/>
     <use style="fill:#1f77b4;fill-opacity:0.8;stroke:#000000;stroke-opacity:0.8;" x="252.989201" xlink:href="#mb40f531be4" y="197.646081"/>
     <use style="fill:#1f77b4;fill-opacity:0.8;stroke:#000000;stroke-opacity:0.8;" x="258.083401" xlink:href="#mb40f531be4" y="197.646081"/>
     <use style="fill:#1f77b4;fill-opacity:0.8;stroke:#000000;stroke-opacity:0.8;" x="263.177602" xlink:href="#mb40f531be4" y="134.326657"/>
     <use style="fill:#1f77b4;fill-opacity:0.8;stroke:#000000;stroke-opacity:0.8;" x="268.271803" xlink:href="#mb40f531be4" y="197.646081"/>
     <use style="fill:#1f77b4;fill-opacity:0.8;stroke:#000000;stroke-opacity:0.8;" x="273.366003" xlink:href="#mb40f531be4" y="116.464675"/>
     <use style="fill:#1f77b4;fill-opacity:0.8;stroke:#000000;stroke-opacity:0.8;" x="278.460204" xlink:href="#mb40f531be4" y="197.646081"/>
     <use style="fill:#1f77b4;fill-opacity:0.8;stroke:#000000;stroke-opacity:0.8;" x="283.554404" xlink:href="#mb40f531be4" y="116.464675"/>
     <use style="fill:#1f77b4;fill-opacity:0.8;stroke:#000000;stroke-opacity:0.8;" x="288.648605" xlink:href="#mb40f531be4" y="106.784955"/>
     <use style="fill:#1f77b4;fill-opacity:0.8;stroke:#000000;stroke-opacity:0.8;" x="293.742806" xlink:href="#mb40f531be4" y="197.646081"/>
     <use style="fill:#1f77b4;fill-opacity:0.8;stroke:#000000;stroke-opacity:0.8;" x="298.837006" xlink:href="#mb40f531be4" y="106.784955"/>
     <use style="fill:#1f77b4;fill-opacity:0.8;stroke:#000000;stroke-opacity:0.8;" x="303.931207" xlink:href="#mb40f531be4" y="197.646081"/>
     <use style="fill:#1f77b4;fill-opacity:0.8;stroke:#000000;stroke-opacity:0.8;" x="309.025408" xlink:href="#mb40f531be4" y="123.898208"/>
     <use style="fill:#1f77b4;fill-opacity:0.8;stroke:#000000;stroke-opacity:0.8;" x="314.119608" xlink:href="#mb40f531be4" y="115.715946"/>
     <use style="fill:#1f77b4;fill-opacity:0.8;stroke:#000000;stroke-opacity:0.8;" x="319.213809" xlink:href="#mb40f531be4" y="129.486797"/>
     <use style="fill:#1f77b4;fill-opacity:0.8;stroke:#000000;stroke-opacity:0.8;" x="324.308009" xlink:href="#mb40f531be4" y="151.092424"/>
     <use style="fill:#1f77b4;fill-opacity:0.8;stroke:#000000;stroke-opacity:0.8;" x="329.40221" xlink:href="#mb40f531be4" y="113.122273"/>
     <use style="fill:#1f77b4;fill-opacity:0.8;stroke:#000000;stroke-opacity:0.8;" x="334.496411" xlink:href="#mb40f531be4" y="138.417789"/>
     <use style="fill:#1f77b4;fill-opacity:0.8;stroke:#000000;stroke-opacity:0.8;" x="339.590611" xlink:href="#mb40f531be4" y="197.646081"/>
     <use style="fill:#1f77b4;fill-opacity:0.8;stroke:#000000;stroke-opacity:0.8;" x="344.684812" xlink:href="#mb40f531be4" y="181.629043"/>
     <use style="fill:#1f77b4;fill-opacity:0.8;stroke:#000000;stroke-opacity:0.8;" x="349.779013" xlink:href="#mb40f531be4" y="112.373544"/>
     <use style="fill:#1f77b4;fill-opacity:0.8;stroke:#000000;stroke-opacity:0.8;" x="354.873213" xlink:href="#mb40f531be4" y="91.516646"/>
     <use style="fill:#1f77b4;fill-opacity:0.8;stroke:#000000;stroke-opacity:0.8;" x="359.967414" xlink:href="#mb40f531be4" y="126.893124"/>
     <use style="fill:#1f77b4;fill-opacity:0.8;stroke:#000000;stroke-opacity:0.8;" x="365.061614" xlink:href="#mb40f531be4" y="135.075386"/>
     <use style="fill:#1f77b4;fill-opacity:0.8;stroke:#000000;stroke-opacity:0.8;" x="370.155815" xlink:href="#mb40f531be4" y="152.589882"/>
     <use style="fill:#1f77b4;fill-opacity:0.8;stroke:#000000;stroke-opacity:0.8;" x="375.250016" xlink:href="#mb40f531be4" y="162.269602"/>
     <use style="fill:#1f77b4;fill-opacity:0.8;stroke:#000000;stroke-opacity:0.8;" x="380.344216" xlink:href="#mb40f531be4" y="136.572844"/>
     <use style="fill:#1f77b4;fill-opacity:0.8;stroke:#000000;stroke-opacity:0.8;" x="385.438417" xlink:href="#mb40f531be4" y="126.144395"/>
     <use style="fill:#1f77b4;fill-opacity:0.8;stroke:#000000;stroke-opacity:0.8;" x="390.532618" xlink:href="#mb40f531be4" y="147.750022"/>
     <use style="fill:#1f77b4;fill-opacity:0.8;stroke:#000000;stroke-opacity:0.8;" x="395.626818" xlink:href="#mb40f531be4" y="143.658891"/>
    </g>
   </g>
   <g id="line2d_20">
    <path clip-path="url(#p050193215d)" d="M 100.163182 192.057492 
L 105.257382 183.126501 
L 110.351583 187.217632 
L 115.445784 177.537912 
L 120.539984 192.057492 
L 125.634185 177.537912 
L 130.728386 182.377772 
L 135.822586 192.806221 
L 140.916787 171.200594 
L 146.010987 177.537912 
L 151.105188 161.520874 
L 156.199389 187.217632 
L 161.293589 160.772145 
L 166.38779 155.932285 
L 171.481991 132.481713 
L 176.576191 151.841153 
L 181.670392 110.127357 
L 186.764592 113.122273 
L 191.858793 133.230442 
L 196.952994 110.127357 
L 202.047194 66.568617 
L 207.141395 158.178471 
L 212.235596 160.772145 
L 217.329796 152.589882 
L 222.423997 110.876086 
L 227.518197 149.594967 
L 232.612398 140.663975 
L 237.706599 150.343695 
L 242.800799 147.750022 
L 247.895 91.516646 
L 252.989201 197.646081 
L 258.083401 197.646081 
L 263.177602 134.326657 
L 268.271803 197.646081 
L 273.366003 116.464675 
L 278.460204 197.646081 
L 283.554404 116.464675 
L 288.648605 106.784955 
L 293.742806 197.646081 
L 298.837006 106.784955 
L 303.931207 197.646081 
L 309.025408 123.898208 
L 314.119608 115.715946 
L 319.213809 129.486797 
L 324.308009 151.092424 
L 329.40221 113.122273 
L 334.496411 138.417789 
L 339.590611 197.646081 
L 344.684812 181.629043 
L 349.779013 112.373544 
L 354.873213 91.516646 
L 359.967414 126.893124 
L 365.061614 135.075386 
L 370.155815 152.589882 
L 375.250016 162.269602 
L 380.344216 136.572844 
L 385.438417 126.144395 
L 390.532618 147.750022 
L 395.626818 143.658891 
" style="fill:none;stroke:#1f77b4;stroke-linecap:round;stroke-width:0.7;"/>
   </g>
   <g id="line2d_21">
    <path clip-path="url(#p050193215d)" d="M 100.163182 203.288182 
L 105.257382 199.625157 
L 110.351583 201.923628 
L 115.445784 197.158282 
L 120.539984 203.288182 
L 125.634185 197.158282 
L 130.728386 199.771539 
L 135.822586 202.532284 
L 140.916787 194.037453 
L 146.010987 197.158282 
L 151.105188 187.301856 
L 156.199389 201.923628 
L 161.293589 187.084311 
L 166.38779 183.455177 
L 171.481991 164.126683 
L 176.576191 179.989896 
L 181.670392 145.268737 
L 186.764592 147.014445 
L 191.858793 164.491033 
L 196.952994 145.268737 
L 202.047194 102.885415 
L 207.141395 184.178688 
L 212.235596 187.084311 
L 217.329796 180.262665 
L 222.423997 145.711354 
L 227.518197 179.116208 
L 232.612398 171.568202 
L 237.706599 179.416227 
L 242.800799 176.462997 
L 247.895 127.45863 
L 252.989201 197.646081 
L 258.083401 197.646081 
L 263.177602 166.778407 
L 268.271803 197.646081 
L 273.366003 150.554999 
L 278.460204 197.646081 
L 283.554404 150.554999 
L 288.648605 141.684156 
L 293.742806 197.646081 
L 298.837006 141.684156 
L 303.931207 197.646081 
L 309.025408 157.964904 
L 314.119608 150.129034 
L 319.213809 162.610781 
L 324.308009 179.707597 
L 329.40221 147.014445 
L 334.496411 170.512725 
L 339.590611 197.646081 
L 344.684812 199.871527 
L 349.779013 146.584321 
L 354.873213 127.45863 
L 359.967414 159.565809 
L 365.061614 167.148877 
L 370.155815 180.262665 
L 375.250016 187.506394 
L 380.344216 167.871679 
L 385.438417 159.173198 
L 390.532618 176.462997 
L 395.626818 172.87805 
" style="fill:none;stroke:#1f77b4;stroke-dasharray:1.85,0.8;stroke-dashoffset:0;stroke-width:0.5;"/>
   </g>
   <g id="line2d_22">
    <path clip-path="url(#p050193215d)" d="M 100.163182 180.826802 
L 105.257382 166.627844 
L 110.351583 172.511636 
L 115.445784 157.917541 
L 120.539984 180.826802 
L 125.634185 157.917541 
L 130.728386 164.984004 
L 135.822586 183.080158 
L 140.916787 148.363735 
L 146.010987 157.917541 
L 151.105188 135.739891 
L 156.199389 172.511636 
L 161.293589 134.459978 
L 166.38779 128.409392 
L 171.481991 100.836744 
L 176.576191 123.692411 
L 181.670392 74.985977 
L 186.764592 79.230101 
L 191.858793 101.969852 
L 196.952994 74.985977 
L 202.047194 30.251818 
L 207.141395 132.178255 
L 212.235596 134.459978 
L 217.329796 124.9171 
L 222.423997 76.040819 
L 227.518197 120.073725 
L 232.612398 109.759749 
L 237.706599 121.271164 
L 242.800799 119.037048 
L 247.895 55.574662 
L 252.989201 197.646081 
L 258.083401 197.646081 
L 263.177602 101.874907 
L 268.271803 197.646081 
L 273.366003 82.374351 
L 278.460204 197.646081 
L 283.554404 82.374351 
L 288.648605 71.885754 
L 293.742806 197.646081 
L 298.837006 71.885754 
L 303.931207 197.646081 
L 309.025408 89.831513 
L 314.119608 81.302859 
L 319.213809 96.362813 
L 324.308009 122.477252 
L 329.40221 79.230101 
L 334.496411 106.322852 
L 339.590611 197.646081 
L 344.684812 163.386558 
L 349.779013 78.162768 
L 354.873213 55.574662 
L 359.967414 94.220439 
L 365.061614 103.001896 
L 370.155815 124.9171 
L 375.250016 137.032811 
L 380.344216 105.274009 
L 385.438417 93.115593 
L 390.532618 119.037048 
L 395.626818 114.439732 
" style="fill:none;stroke:#1f77b4;stroke-dasharray:1.85,0.8;stroke-dashoffset:0;stroke-width:0.5;"/>
   </g>
   <g id="patch_3">
    <path d="M 85.39 211.94 
L 85.39 21.6 
" style="fill:none;stroke:#cccccc;stroke-linecap:square;stroke-linejoin:miter;stroke-width:0.8;"/>
   </g>
   <g id="patch_4">
    <path d="M 85.39 211.94 
L 410.4 211.94 
" style="fill:none;stroke:#cccccc;stroke-linecap:square;stroke-linejoin:miter;stroke-width:0.8;"/>
   </g>
   <g id="legend_1">
    <g id="patch_5">
     <path d="M 99.39 123.146875 
L 272.330625 123.146875 
Q 276.330625 123.146875 276.330625 119.146875 
L 276.330625 35.6 
Q 276.330625 31.6 272.330625 31.6 
L 99.39 31.6 
Q 95.39 31.6 95.39 35.6 
L 95.39 119.146875 
Q 95.39 123.146875 99.39 123.146875 
z
" style="fill:#ffffff;opacity:0.8;stroke:#cccccc;stroke-linejoin:miter;"/>
    </g>
    <g id="line2d_23">
     <path d="M 103.39 46.946875 
L 143.39 46.946875 
" style="fill:none;stroke:#808080;stroke-linecap:round;stroke-opacity:0.8;stroke-width:0.7;"/>
    </g>
    <g id="line2d_24">
     <g>
      <use style="fill:#808080;fill-opacity:0.8;stroke:#000000;stroke-linejoin:miter;stroke-opacity:0.8;" x="123.39" xlink:href="#m87a0dccbb9" y="46.946875"/>
     </g>
    </g>
    <g id="text_13">
     <!-- Random -->
     <g style="fill:#262626;" transform="translate(159.39 53.946875)scale(0.2 -0.2)">
      <defs>
       <path d="M 2622 2488 
Q 3059 2488 3314 2663 
Q 3569 2838 3569 3294 
Q 3569 3784 3213 3963 
Q 3022 4056 2703 4056 
L 1184 4056 
L 1184 2488 
L 2622 2488 
z
M 563 4591 
L 2688 4591 
Q 3213 4591 3553 4438 
Q 4200 4144 4200 3353 
Q 4200 2941 4029 2678 
Q 3859 2416 3553 2256 
Q 3822 2147 3958 1969 
Q 4094 1791 4109 1391 
L 4131 775 
Q 4141 513 4175 384 
Q 4231 166 4375 103 
L 4375 0 
L 3613 0 
Q 3581 59 3562 153 
Q 3544 247 3531 516 
L 3494 1281 
Q 3472 1731 3159 1884 
Q 2981 1969 2600 1969 
L 1184 1969 
L 1184 0 
L 563 0 
L 563 4591 
z
" id="Helvetica-52" transform="scale(0.015625)"/>
      </defs>
      <use xlink:href="#Helvetica-52"/>
      <use x="72.216797" xlink:href="#Helvetica-61"/>
      <use x="127.832031" xlink:href="#Helvetica-6e"/>
      <use x="183.447266" xlink:href="#Helvetica-64"/>
      <use x="239.0625" xlink:href="#Helvetica-6f"/>
      <use x="294.677734" xlink:href="#Helvetica-6d"/>
     </g>
    </g>
    <g id="line2d_25">
     <path d="M 103.39 75.4625 
L 143.39 75.4625 
" style="fill:none;stroke:#ff7f0e;stroke-linecap:round;stroke-opacity:0.8;stroke-width:0.7;"/>
    </g>
    <g id="line2d_26">
     <g>
      <use style="fill:#ff7f0e;fill-opacity:0.8;stroke:#000000;stroke-linejoin:miter;stroke-opacity:0.8;" x="123.39" xlink:href="#mb78e8428a5" y="75.4625"/>
     </g>
    </g>
    <g id="text_14">
     <!-- Bottom 10% -->
     <g style="fill:#262626;" transform="translate(159.39 82.4625)scale(0.2 -0.2)">
      <defs>
       <path d="M 2213 2650 
Q 2606 2650 2825 2759 
Q 3169 2931 3169 3378 
Q 3169 3828 2803 3984 
Q 2597 4072 2191 4072 
L 1081 4072 
L 1081 2650 
L 2213 2650 
z
M 2422 531 
Q 2994 531 3238 863 
Q 3391 1072 3391 1369 
Q 3391 1869 2944 2050 
Q 2706 2147 2316 2147 
L 1081 2147 
L 1081 531 
L 2422 531 
z
M 472 4591 
L 2444 4591 
Q 3250 4591 3591 4109 
Q 3791 3825 3791 3453 
Q 3791 3019 3544 2741 
Q 3416 2594 3175 2472 
Q 3528 2338 3703 2169 
Q 4013 1869 4013 1341 
Q 4013 897 3734 538 
Q 3319 0 2413 0 
L 472 0 
L 472 4591 
z
" id="Helvetica-42" transform="scale(0.015625)"/>
       <path d="M 4363 2175 
Q 4813 2175 5131 1856 
Q 5450 1538 5450 1088 
Q 5450 638 5131 319 
Q 4813 0 4363 0 
Q 3909 0 3590 319 
Q 3272 638 3272 1088 
Q 3272 1538 3590 1856 
Q 3909 2175 4363 2175 
z
M 3909 4456 
L 4256 4456 
L 1753 -119 
L 1406 -119 
L 3909 4456 
z
M 1294 2606 
Q 1563 2606 1752 2795 
Q 1941 2984 1941 3250 
Q 1941 3516 1752 3705 
Q 1563 3894 1294 3894 
Q 1028 3894 839 3706 
Q 650 3519 650 3250 
Q 650 2984 839 2795 
Q 1028 2606 1294 2606 
z
M 1294 4341 
Q 1747 4341 2065 4020 
Q 2384 3700 2384 3250 
Q 2384 2800 2065 2481 
Q 1747 2163 1294 2163 
Q 844 2163 525 2481 
Q 206 2800 206 3250 
Q 206 3700 525 4020 
Q 844 4341 1294 4341 
z
M 4363 444 
Q 4628 444 4817 633 
Q 5006 822 5006 1088 
Q 5006 1353 4817 1542 
Q 4628 1731 4363 1731 
Q 4094 1731 3905 1542 
Q 3716 1353 3716 1088 
Q 3716 822 3905 633 
Q 4094 444 4363 444 
z
" id="Helvetica-25" transform="scale(0.015625)"/>
      </defs>
      <use xlink:href="#Helvetica-42"/>
      <use x="66.699219" xlink:href="#Helvetica-6f"/>
      <use x="122.314453" xlink:href="#Helvetica-74"/>
      <use x="150.097656" xlink:href="#Helvetica-74"/>
      <use x="177.880859" xlink:href="#Helvetica-6f"/>
      <use x="233.496094" xlink:href="#Helvetica-6d"/>
      <use x="316.796875" xlink:href="#Helvetica-20"/>
      <use x="344.580078" xlink:href="#Helvetica-31"/>
      <use x="400.195312" xlink:href="#Helvetica-30"/>
      <use x="455.810547" xlink:href="#Helvetica-25"/>
     </g>
    </g>
    <g id="line2d_27">
     <path d="M 103.39 103.978125 
L 143.39 103.978125 
" style="fill:none;stroke:#1f77b4;stroke-linecap:round;stroke-opacity:0.8;stroke-width:0.7;"/>
    </g>
    <g id="line2d_28">
     <g>
      <use style="fill:#1f77b4;fill-opacity:0.8;stroke:#000000;stroke-opacity:0.8;" x="123.39" xlink:href="#mb40f531be4" y="103.978125"/>
     </g>
    </g>
    <g id="text_15">
     <!-- Top 10% -->
     <g style="fill:#262626;" transform="translate(159.39 110.978125)scale(0.2 -0.2)">
      <defs>
       <path d="M 3828 4591 
L 3828 4044 
L 2281 4044 
L 2281 0 
L 1650 0 
L 1650 4044 
L 103 4044 
L 103 4591 
L 3828 4591 
z
" id="Helvetica-54" transform="scale(0.015625)"/>
       <path d="M 1825 378 
Q 2219 378 2480 708 
Q 2741 1038 2741 1694 
Q 2741 2094 2625 2381 
Q 2406 2934 1825 2934 
Q 1241 2934 1025 2350 
Q 909 2038 909 1556 
Q 909 1169 1025 897 
Q 1244 378 1825 378 
z
M 369 3331 
L 916 3331 
L 916 2888 
Q 1084 3116 1284 3241 
Q 1569 3428 1953 3428 
Q 2522 3428 2919 2992 
Q 3316 2556 3316 1747 
Q 3316 653 2744 184 
Q 2381 -113 1900 -113 
Q 1522 -113 1266 53 
Q 1116 147 931 375 
L 931 -1334 
L 369 -1334 
L 369 3331 
z
" id="Helvetica-70" transform="scale(0.015625)"/>
      </defs>
      <use xlink:href="#Helvetica-54"/>
      <use x="61.083984" xlink:href="#Helvetica-6f"/>
      <use x="116.699219" xlink:href="#Helvetica-70"/>
      <use x="172.314453" xlink:href="#Helvetica-20"/>
      <use x="200.097656" xlink:href="#Helvetica-31"/>
      <use x="255.712891" xlink:href="#Helvetica-30"/>
      <use x="311.328125" xlink:href="#Helvetica-25"/>
     </g>
    </g>
   </g>
  </g>
 </g>
 <defs>
  <clipPath id="p050193215d">
   <rect height="190.34" width="325.01" x="85.39" y="21.6"/>
  </clipPath>
 </defs>
</svg>
