<?xml version="1.0" encoding="utf-8" standalone="no"?>
<!DOCTYPE svg PUBLIC "-//W3C//DTD SVG 1.1//EN"
  "http://www.w3.org/Graphics/SVG/1.1/DTD/svg11.dtd">
<svg height="144pt" version="1.1" viewBox="0 0 144 144" width="144pt" xmlns="http://www.w3.org/2000/svg" xmlns:xlink="http://www.w3.org/1999/xlink">
 <metadata>
  <rdf:RDF xmlns:cc="http://creativecommons.org/ns#" xmlns:dc="http://purl.org/dc/elements/1.1/" xmlns:rdf="http://www.w3.org/1999/02/22-rdf-syntax-ns#">
   <cc:Work>
    <dc:type rdf:resource="http://purl.org/dc/dcmitype/StillImage"/>
    <dc:date>2023-01-27T03:32:38.677781</dc:date>
    <dc:format>image/svg+xml</dc:format>
    <dc:creator>
     <cc:Agent>
      <dc:title>Matplotlib v3.4.2, https://matplotlib.org/</dc:title>
     </cc:Agent>
    </dc:creator>
   </cc:Work>
  </rdf:RDF>
 </metadata>
 <defs>
  <style type="text/css">*{stroke-linecap:butt;stroke-linejoin:round;}</style>
 </defs>
 <g id="figure_1">
  <g id="patch_1">
   <path d="M 0 144 
L 144 144 
L 144 0 
L 0 0 
z
" style="fill:#ffffff;"/>
  </g>
  <g id="axes_1">
   <g id="patch_2">
    <path d="M 18 128.16 
L 129.6 128.16 
L 129.6 17.28 
L 18 17.28 
z
" style="fill:#ffffff;"/>
   </g>
   <g id="matplotlib.axis_1">
    <g id="xtick_1">
     <g id="text_1">
      <!-- Original -->
      <g style="fill:#262626;" transform="translate(41.78125 204.0725)rotate(-90)scale(0.2 -0.2)">
       <defs>
        <path d="M 309 2231 
Q 309 3372 921 4017 
Q 1534 4663 2503 4663 
Q 3138 4663 3647 4359 
Q 4156 4056 4423 3514 
Q 4691 2972 4691 2284 
Q 4691 1588 4409 1038 
Q 4128 488 3612 205 
Q 3097 -78 2500 -78 
Q 1853 -78 1343 234 
Q 834 547 571 1087 
Q 309 1628 309 2231 
z
M 934 2222 
Q 934 1394 1379 917 
Q 1825 441 2497 441 
Q 3181 441 3623 922 
Q 4066 1403 4066 2288 
Q 4066 2847 3877 3264 
Q 3688 3681 3323 3911 
Q 2959 4141 2506 4141 
Q 1863 4141 1398 3698 
Q 934 3256 934 2222 
z
" id="ArialMT-4f" transform="scale(0.015625)"/>
        <path d="M 416 0 
L 416 3319 
L 922 3319 
L 922 2816 
Q 1116 3169 1280 3281 
Q 1444 3394 1641 3394 
Q 1925 3394 2219 3213 
L 2025 2691 
Q 1819 2813 1613 2813 
Q 1428 2813 1281 2702 
Q 1134 2591 1072 2394 
Q 978 2094 978 1738 
L 978 0 
L 416 0 
z
" id="ArialMT-72" transform="scale(0.015625)"/>
        <path d="M 425 3934 
L 425 4581 
L 988 4581 
L 988 3934 
L 425 3934 
z
M 425 0 
L 425 3319 
L 988 3319 
L 988 0 
L 425 0 
z
" id="ArialMT-69" transform="scale(0.015625)"/>
        <path d="M 319 -275 
L 866 -356 
Q 900 -609 1056 -725 
Q 1266 -881 1628 -881 
Q 2019 -881 2231 -725 
Q 2444 -569 2519 -288 
Q 2563 -116 2559 434 
Q 2191 0 1641 0 
Q 956 0 581 494 
Q 206 988 206 1678 
Q 206 2153 378 2554 
Q 550 2956 876 3175 
Q 1203 3394 1644 3394 
Q 2231 3394 2613 2919 
L 2613 3319 
L 3131 3319 
L 3131 450 
Q 3131 -325 2973 -648 
Q 2816 -972 2473 -1159 
Q 2131 -1347 1631 -1347 
Q 1038 -1347 672 -1080 
Q 306 -813 319 -275 
z
M 784 1719 
Q 784 1066 1043 766 
Q 1303 466 1694 466 
Q 2081 466 2343 764 
Q 2606 1063 2606 1700 
Q 2606 2309 2336 2618 
Q 2066 2928 1684 2928 
Q 1309 2928 1046 2623 
Q 784 2319 784 1719 
z
" id="ArialMT-67" transform="scale(0.015625)"/>
        <path d="M 422 0 
L 422 3319 
L 928 3319 
L 928 2847 
Q 1294 3394 1984 3394 
Q 2284 3394 2536 3286 
Q 2788 3178 2913 3003 
Q 3038 2828 3088 2588 
Q 3119 2431 3119 2041 
L 3119 0 
L 2556 0 
L 2556 2019 
Q 2556 2363 2490 2533 
Q 2425 2703 2258 2804 
Q 2091 2906 1866 2906 
Q 1506 2906 1245 2678 
Q 984 2450 984 1813 
L 984 0 
L 422 0 
z
" id="ArialMT-6e" transform="scale(0.015625)"/>
        <path d="M 2588 409 
Q 2275 144 1986 34 
Q 1697 -75 1366 -75 
Q 819 -75 525 192 
Q 231 459 231 875 
Q 231 1119 342 1320 
Q 453 1522 633 1644 
Q 813 1766 1038 1828 
Q 1203 1872 1538 1913 
Q 2219 1994 2541 2106 
Q 2544 2222 2544 2253 
Q 2544 2597 2384 2738 
Q 2169 2928 1744 2928 
Q 1347 2928 1158 2789 
Q 969 2650 878 2297 
L 328 2372 
Q 403 2725 575 2942 
Q 747 3159 1072 3276 
Q 1397 3394 1825 3394 
Q 2250 3394 2515 3294 
Q 2781 3194 2906 3042 
Q 3031 2891 3081 2659 
Q 3109 2516 3109 2141 
L 3109 1391 
Q 3109 606 3145 398 
Q 3181 191 3288 0 
L 2700 0 
Q 2613 175 2588 409 
z
M 2541 1666 
Q 2234 1541 1622 1453 
Q 1275 1403 1131 1340 
Q 988 1278 909 1158 
Q 831 1038 831 891 
Q 831 666 1001 516 
Q 1172 366 1500 366 
Q 1825 366 2078 508 
Q 2331 650 2450 897 
Q 2541 1088 2541 1459 
L 2541 1666 
z
" id="ArialMT-61" transform="scale(0.015625)"/>
        <path d="M 409 0 
L 409 4581 
L 972 4581 
L 972 0 
L 409 0 
z
" id="ArialMT-6c" transform="scale(0.015625)"/>
       </defs>
       <use xlink:href="#ArialMT-4f"/>
       <use x="77.783203" xlink:href="#ArialMT-72"/>
       <use x="111.083984" xlink:href="#ArialMT-69"/>
       <use x="133.300781" xlink:href="#ArialMT-67"/>
       <use x="188.916016" xlink:href="#ArialMT-69"/>
       <use x="211.132812" xlink:href="#ArialMT-6e"/>
       <use x="266.748047" xlink:href="#ArialMT-61"/>
       <use x="322.363281" xlink:href="#ArialMT-6c"/>
      </g>
     </g>
    </g>
    <g id="xtick_2">
     <g id="text_2">
      <!-- Mutated -->
      <g style="fill:#262626;" transform="translate(78.970312 207.419375)rotate(-90)scale(0.2 -0.2)">
       <defs>
        <path d="M 475 0 
L 475 4581 
L 1388 4581 
L 2472 1338 
Q 2622 884 2691 659 
Q 2769 909 2934 1394 
L 4031 4581 
L 4847 4581 
L 4847 0 
L 4263 0 
L 4263 3834 
L 2931 0 
L 2384 0 
L 1059 3900 
L 1059 0 
L 475 0 
z
" id="ArialMT-4d" transform="scale(0.015625)"/>
        <path d="M 2597 0 
L 2597 488 
Q 2209 -75 1544 -75 
Q 1250 -75 995 37 
Q 741 150 617 320 
Q 494 491 444 738 
Q 409 903 409 1263 
L 409 3319 
L 972 3319 
L 972 1478 
Q 972 1038 1006 884 
Q 1059 663 1231 536 
Q 1403 409 1656 409 
Q 1909 409 2131 539 
Q 2353 669 2445 892 
Q 2538 1116 2538 1541 
L 2538 3319 
L 3100 3319 
L 3100 0 
L 2597 0 
z
" id="ArialMT-75" transform="scale(0.015625)"/>
        <path d="M 1650 503 
L 1731 6 
Q 1494 -44 1306 -44 
Q 1000 -44 831 53 
Q 663 150 594 308 
Q 525 466 525 972 
L 525 2881 
L 113 2881 
L 113 3319 
L 525 3319 
L 525 4141 
L 1084 4478 
L 1084 3319 
L 1650 3319 
L 1650 2881 
L 1084 2881 
L 1084 941 
Q 1084 700 1114 631 
Q 1144 563 1211 522 
Q 1278 481 1403 481 
Q 1497 481 1650 503 
z
" id="ArialMT-74" transform="scale(0.015625)"/>
        <path d="M 2694 1069 
L 3275 997 
Q 3138 488 2766 206 
Q 2394 -75 1816 -75 
Q 1088 -75 661 373 
Q 234 822 234 1631 
Q 234 2469 665 2931 
Q 1097 3394 1784 3394 
Q 2450 3394 2872 2941 
Q 3294 2488 3294 1666 
Q 3294 1616 3291 1516 
L 816 1516 
Q 847 969 1125 678 
Q 1403 388 1819 388 
Q 2128 388 2347 550 
Q 2566 713 2694 1069 
z
M 847 1978 
L 2700 1978 
Q 2663 2397 2488 2606 
Q 2219 2931 1791 2931 
Q 1403 2931 1139 2672 
Q 875 2413 847 1978 
z
" id="ArialMT-65" transform="scale(0.015625)"/>
        <path d="M 2575 0 
L 2575 419 
Q 2259 -75 1647 -75 
Q 1250 -75 917 144 
Q 584 363 401 755 
Q 219 1147 219 1656 
Q 219 2153 384 2558 
Q 550 2963 881 3178 
Q 1213 3394 1622 3394 
Q 1922 3394 2156 3267 
Q 2391 3141 2538 2938 
L 2538 4581 
L 3097 4581 
L 3097 0 
L 2575 0 
z
M 797 1656 
Q 797 1019 1065 703 
Q 1334 388 1700 388 
Q 2069 388 2326 689 
Q 2584 991 2584 1609 
Q 2584 2291 2321 2609 
Q 2059 2928 1675 2928 
Q 1300 2928 1048 2622 
Q 797 2316 797 1656 
z
" id="ArialMT-64" transform="scale(0.015625)"/>
       </defs>
       <use xlink:href="#ArialMT-4d"/>
       <use x="83.300781" xlink:href="#ArialMT-75"/>
       <use x="138.916016" xlink:href="#ArialMT-74"/>
       <use x="166.699219" xlink:href="#ArialMT-61"/>
       <use x="222.314453" xlink:href="#ArialMT-74"/>
       <use x="250.097656" xlink:href="#ArialMT-65"/>
       <use x="305.712891" xlink:href="#ArialMT-64"/>
      </g>
     </g>
    </g>
    <g id="xtick_3">
     <g id="text_3">
      <!-- STORM -->
      <g style="fill:#262626;" transform="translate(116.170312 207.025625)rotate(-90)scale(0.2 -0.2)">
       <defs>
        <path d="M 288 1472 
L 859 1522 
Q 900 1178 1048 958 
Q 1197 738 1509 602 
Q 1822 466 2213 466 
Q 2559 466 2825 569 
Q 3091 672 3220 851 
Q 3350 1031 3350 1244 
Q 3350 1459 3225 1620 
Q 3100 1781 2813 1891 
Q 2628 1963 1997 2114 
Q 1366 2266 1113 2400 
Q 784 2572 623 2826 
Q 463 3081 463 3397 
Q 463 3744 659 4045 
Q 856 4347 1234 4503 
Q 1613 4659 2075 4659 
Q 2584 4659 2973 4495 
Q 3363 4331 3572 4012 
Q 3781 3694 3797 3291 
L 3216 3247 
Q 3169 3681 2898 3903 
Q 2628 4125 2100 4125 
Q 1550 4125 1298 3923 
Q 1047 3722 1047 3438 
Q 1047 3191 1225 3031 
Q 1400 2872 2139 2705 
Q 2878 2538 3153 2413 
Q 3553 2228 3743 1945 
Q 3934 1663 3934 1294 
Q 3934 928 3725 604 
Q 3516 281 3123 101 
Q 2731 -78 2241 -78 
Q 1619 -78 1198 103 
Q 778 284 539 648 
Q 300 1013 288 1472 
z
" id="ArialMT-53" transform="scale(0.015625)"/>
        <path d="M 1659 0 
L 1659 4041 
L 150 4041 
L 150 4581 
L 3781 4581 
L 3781 4041 
L 2266 4041 
L 2266 0 
L 1659 0 
z
" id="ArialMT-54" transform="scale(0.015625)"/>
        <path d="M 503 0 
L 503 4581 
L 2534 4581 
Q 3147 4581 3465 4457 
Q 3784 4334 3975 4021 
Q 4166 3709 4166 3331 
Q 4166 2844 3850 2509 
Q 3534 2175 2875 2084 
Q 3116 1969 3241 1856 
Q 3506 1613 3744 1247 
L 4541 0 
L 3778 0 
L 3172 953 
Q 2906 1366 2734 1584 
Q 2563 1803 2427 1890 
Q 2291 1978 2150 2013 
Q 2047 2034 1813 2034 
L 1109 2034 
L 1109 0 
L 503 0 
z
M 1109 2559 
L 2413 2559 
Q 2828 2559 3062 2645 
Q 3297 2731 3419 2920 
Q 3541 3109 3541 3331 
Q 3541 3656 3305 3865 
Q 3069 4075 2559 4075 
L 1109 4075 
L 1109 2559 
z
" id="ArialMT-52" transform="scale(0.015625)"/>
       </defs>
       <use xlink:href="#ArialMT-53"/>
       <use x="66.699219" xlink:href="#ArialMT-54"/>
       <use x="126.033203" xlink:href="#ArialMT-4f"/>
       <use x="203.816406" xlink:href="#ArialMT-52"/>
       <use x="276.033203" xlink:href="#ArialMT-4d"/>
      </g>
     </g>
    </g>
    <g id="text_4">
     <!-- Method -->
     <g style="fill:#262626;" transform="translate(40.448437 225.735)scale(0.2 -0.2)">
      <defs>
       <path d="M 422 0 
L 422 4581 
L 984 4581 
L 984 2938 
Q 1378 3394 1978 3394 
Q 2347 3394 2619 3248 
Q 2891 3103 3008 2847 
Q 3125 2591 3125 2103 
L 3125 0 
L 2563 0 
L 2563 2103 
Q 2563 2525 2380 2717 
Q 2197 2909 1863 2909 
Q 1613 2909 1392 2779 
Q 1172 2650 1078 2428 
Q 984 2206 984 1816 
L 984 0 
L 422 0 
z
" id="ArialMT-68" transform="scale(0.015625)"/>
       <path d="M 213 1659 
Q 213 2581 725 3025 
Q 1153 3394 1769 3394 
Q 2453 3394 2887 2945 
Q 3322 2497 3322 1706 
Q 3322 1066 3130 698 
Q 2938 331 2570 128 
Q 2203 -75 1769 -75 
Q 1072 -75 642 372 
Q 213 819 213 1659 
z
M 791 1659 
Q 791 1022 1069 705 
Q 1347 388 1769 388 
Q 2188 388 2466 706 
Q 2744 1025 2744 1678 
Q 2744 2294 2464 2611 
Q 2184 2928 1769 2928 
Q 1347 2928 1069 2612 
Q 791 2297 791 1659 
z
" id="ArialMT-6f" transform="scale(0.015625)"/>
      </defs>
      <use xlink:href="#ArialMT-4d"/>
      <use x="83.300781" xlink:href="#ArialMT-65"/>
      <use x="138.916016" xlink:href="#ArialMT-74"/>
      <use x="166.699219" xlink:href="#ArialMT-68"/>
      <use x="222.314453" xlink:href="#ArialMT-6f"/>
      <use x="277.929688" xlink:href="#ArialMT-64"/>
     </g>
    </g>
   </g>
   <g id="matplotlib.axis_2">
    <g id="ytick_1">
     <g id="text_5">
      <!-- 0.0 -->
      <g style="fill:#262626;" transform="translate(-16.8 92.364383)scale(0.2 -0.2)">
       <defs>
        <path d="M 266 2259 
Q 266 3072 433 3567 
Q 600 4063 929 4331 
Q 1259 4600 1759 4600 
Q 2128 4600 2406 4451 
Q 2684 4303 2865 4023 
Q 3047 3744 3150 3342 
Q 3253 2941 3253 2259 
Q 3253 1453 3087 958 
Q 2922 463 2592 192 
Q 2263 -78 1759 -78 
Q 1097 -78 719 397 
Q 266 969 266 2259 
z
M 844 2259 
Q 844 1131 1108 757 
Q 1372 384 1759 384 
Q 2147 384 2411 759 
Q 2675 1134 2675 2259 
Q 2675 3391 2411 3762 
Q 2147 4134 1753 4134 
Q 1366 4134 1134 3806 
Q 844 3388 844 2259 
z
" id="ArialMT-30" transform="scale(0.015625)"/>
        <path d="M 581 0 
L 581 641 
L 1222 641 
L 1222 0 
L 581 0 
z
" id="ArialMT-2e" transform="scale(0.015625)"/>
       </defs>
       <use xlink:href="#ArialMT-30"/>
       <use x="55.615234" xlink:href="#ArialMT-2e"/>
       <use x="83.398438" xlink:href="#ArialMT-30"/>
      </g>
     </g>
    </g>
    <g id="ytick_2">
     <g id="text_6">
      <!-- 2.5 -->
      <g style="fill:#262626;" transform="translate(-16.8 33.725995)scale(0.2 -0.2)">
       <defs>
        <path d="M 3222 541 
L 3222 0 
L 194 0 
Q 188 203 259 391 
Q 375 700 629 1000 
Q 884 1300 1366 1694 
Q 2113 2306 2375 2664 
Q 2638 3022 2638 3341 
Q 2638 3675 2398 3904 
Q 2159 4134 1775 4134 
Q 1369 4134 1125 3890 
Q 881 3647 878 3216 
L 300 3275 
Q 359 3922 746 4261 
Q 1134 4600 1788 4600 
Q 2447 4600 2831 4234 
Q 3216 3869 3216 3328 
Q 3216 3053 3103 2787 
Q 2991 2522 2730 2228 
Q 2469 1934 1863 1422 
Q 1356 997 1212 845 
Q 1069 694 975 541 
L 3222 541 
z
" id="ArialMT-32" transform="scale(0.015625)"/>
        <path d="M 266 1200 
L 856 1250 
Q 922 819 1161 601 
Q 1400 384 1738 384 
Q 2144 384 2425 690 
Q 2706 997 2706 1503 
Q 2706 1984 2436 2262 
Q 2166 2541 1728 2541 
Q 1456 2541 1237 2417 
Q 1019 2294 894 2097 
L 366 2166 
L 809 4519 
L 3088 4519 
L 3088 3981 
L 1259 3981 
L 1013 2750 
Q 1425 3038 1878 3038 
Q 2478 3038 2890 2622 
Q 3303 2206 3303 1553 
Q 3303 931 2941 478 
Q 2500 -78 1738 -78 
Q 1113 -78 717 272 
Q 322 622 266 1200 
z
" id="ArialMT-35" transform="scale(0.015625)"/>
       </defs>
       <use xlink:href="#ArialMT-32"/>
       <use x="55.615234" xlink:href="#ArialMT-2e"/>
       <use x="83.398438" xlink:href="#ArialMT-35"/>
      </g>
     </g>
    </g>
    <g id="text_7">
     <!-- Predictions -->
     <g style="fill:#262626;" transform="translate(-24.775 122.185625)rotate(-90)scale(0.2 -0.2)">
      <defs>
       <path d="M 494 0 
L 494 4581 
L 2222 4581 
Q 2678 4581 2919 4538 
Q 3256 4481 3484 4323 
Q 3713 4166 3852 3881 
Q 3991 3597 3991 3256 
Q 3991 2672 3619 2267 
Q 3247 1863 2275 1863 
L 1100 1863 
L 1100 0 
L 494 0 
z
M 1100 2403 
L 2284 2403 
Q 2872 2403 3119 2622 
Q 3366 2841 3366 3238 
Q 3366 3525 3220 3729 
Q 3075 3934 2838 4000 
Q 2684 4041 2272 4041 
L 1100 4041 
L 1100 2403 
z
" id="ArialMT-50" transform="scale(0.015625)"/>
       <path d="M 2588 1216 
L 3141 1144 
Q 3050 572 2676 248 
Q 2303 -75 1759 -75 
Q 1078 -75 664 370 
Q 250 816 250 1647 
Q 250 2184 428 2587 
Q 606 2991 970 3192 
Q 1334 3394 1763 3394 
Q 2303 3394 2647 3120 
Q 2991 2847 3088 2344 
L 2541 2259 
Q 2463 2594 2264 2762 
Q 2066 2931 1784 2931 
Q 1359 2931 1093 2626 
Q 828 2322 828 1663 
Q 828 994 1084 691 
Q 1341 388 1753 388 
Q 2084 388 2306 591 
Q 2528 794 2588 1216 
z
" id="ArialMT-63" transform="scale(0.015625)"/>
       <path d="M 197 991 
L 753 1078 
Q 800 744 1014 566 
Q 1228 388 1613 388 
Q 2000 388 2187 545 
Q 2375 703 2375 916 
Q 2375 1106 2209 1216 
Q 2094 1291 1634 1406 
Q 1016 1563 777 1677 
Q 538 1791 414 1992 
Q 291 2194 291 2438 
Q 291 2659 392 2848 
Q 494 3038 669 3163 
Q 800 3259 1026 3326 
Q 1253 3394 1513 3394 
Q 1903 3394 2198 3281 
Q 2494 3169 2634 2976 
Q 2775 2784 2828 2463 
L 2278 2388 
Q 2241 2644 2061 2787 
Q 1881 2931 1553 2931 
Q 1166 2931 1000 2803 
Q 834 2675 834 2503 
Q 834 2394 903 2306 
Q 972 2216 1119 2156 
Q 1203 2125 1616 2013 
Q 2213 1853 2448 1751 
Q 2684 1650 2818 1456 
Q 2953 1263 2953 975 
Q 2953 694 2789 445 
Q 2625 197 2315 61 
Q 2006 -75 1616 -75 
Q 969 -75 630 194 
Q 291 463 197 991 
z
" id="ArialMT-73" transform="scale(0.015625)"/>
      </defs>
      <use xlink:href="#ArialMT-50"/>
      <use x="66.699219" xlink:href="#ArialMT-72"/>
      <use x="100" xlink:href="#ArialMT-65"/>
      <use x="155.615234" xlink:href="#ArialMT-64"/>
      <use x="211.230469" xlink:href="#ArialMT-69"/>
      <use x="233.447266" xlink:href="#ArialMT-63"/>
      <use x="283.447266" xlink:href="#ArialMT-74"/>
      <use x="311.230469" xlink:href="#ArialMT-69"/>
      <use x="333.447266" xlink:href="#ArialMT-6f"/>
      <use x="389.0625" xlink:href="#ArialMT-6e"/>
      <use x="444.677734" xlink:href="#ArialMT-73"/>
     </g>
    </g>
   </g>
   <g id="PolyCollection_1">
    <defs>
     <path d="M 36.652611 -20.88 
L 36.547389 -20.88 
L 36.528649 -21.643214 
L 36.505064 -22.406428 
L 36.475971 -23.169643 
L 36.440738 -23.932857 
L 36.398755 -24.696071 
L 36.349408 -25.459285 
L 36.292013 -26.222499 
L 36.225717 -26.985713 
L 36.149392 -27.748928 
L 36.061506 -28.512142 
L 35.960018 -29.275356 
L 35.842305 -30.03857 
L 35.705151 -30.801784 
L 35.544802 -31.564998 
L 35.357102 -32.328213 
L 35.137703 -33.091427 
L 34.882322 -33.854641 
L 34.587037 -34.617855 
L 34.248587 -35.381069 
L 33.864653 -36.144284 
L 33.434107 -36.907498 
L 32.957223 -37.670712 
L 32.435832 -38.433926 
L 31.873433 -39.19714 
L 31.275242 -39.960354 
L 30.648168 -40.723569 
L 30.000703 -41.486783 
L 29.342694 -42.249997 
L 28.684996 -43.013211 
L 28.039005 -43.776425 
L 27.416086 -44.539639 
L 26.826961 -45.302854 
L 26.281115 -46.066068 
L 25.786298 -46.829282 
L 25.348197 -47.592496 
L 24.970327 -48.35571 
L 24.654141 -49.118925 
L 24.399356 -49.882139 
L 24.204407 -50.645353 
L 24.066954 -51.408567 
L 23.984353 -52.171781 
L 23.953998 -52.934995 
L 23.973482 -53.69821 
L 24.04056 -54.461424 
L 24.152937 -55.224638 
L 24.307922 -55.987852 
L 24.502026 -56.751066 
L 24.730589 -57.51428 
L 24.987505 -58.277495 
L 25.265111 -59.040709 
L 25.554294 -59.803923 
L 25.844815 -60.567137 
L 26.125848 -61.330351 
L 26.386709 -62.093566 
L 26.617687 -62.85678 
L 26.810914 -63.619994 
L 26.961164 -64.383208 
L 27.066474 -65.146422 
L 27.128503 -65.909636 
L 27.152546 -66.672851 
L 27.147176 -67.436065 
L 27.123532 -68.199279 
L 27.09433 -68.962493 
L 27.072699 -69.725707 
L 27.071015 -70.488921 
L 27.099866 -71.252136 
L 27.167299 -72.01535 
L 27.278436 -72.778564 
L 27.43547 -73.541778 
L 27.638025 -74.304992 
L 27.883748 -75.068207 
L 28.169021 -75.831421 
L 28.489646 -76.594635 
L 28.84138 -77.357849 
L 29.220246 -78.121063 
L 29.622625 -78.884277 
L 30.045132 -79.647492 
L 30.484378 -80.410706 
L 30.936702 -81.17392 
L 31.397945 -81.937134 
L 31.863344 -82.700348 
L 32.327562 -83.463562 
L 32.784854 -84.226777 
L 33.229331 -84.989991 
L 33.655285 -85.753205 
L 34.05751 -86.516419 
L 34.431587 -87.279633 
L 34.7741 -88.042848 
L 35.082759 -88.806062 
L 35.356441 -89.569276 
L 35.595141 -90.33249 
L 35.799868 -91.095704 
L 35.972482 -91.858918 
L 36.115504 -92.622133 
L 36.231918 -93.385347 
L 36.324966 -94.148561 
L 36.397969 -94.911775 
L 36.454171 -95.674989 
L 36.496608 -96.438203 
L 36.703392 -96.438203 
L 36.703392 -96.438203 
L 36.745829 -95.674989 
L 36.802031 -94.911775 
L 36.875034 -94.148561 
L 36.968082 -93.385347 
L 37.084496 -92.622133 
L 37.227518 -91.858918 
L 37.400132 -91.095704 
L 37.604859 -90.33249 
L 37.843559 -89.569276 
L 38.117241 -88.806062 
L 38.4259 -88.042848 
L 38.768413 -87.279633 
L 39.14249 -86.516419 
L 39.544715 -85.753205 
L 39.970669 -84.989991 
L 40.415146 -84.226777 
L 40.872438 -83.463562 
L 41.336656 -82.700348 
L 41.802055 -81.937134 
L 42.263298 -81.17392 
L 42.715622 -80.410706 
L 43.154868 -79.647492 
L 43.577375 -78.884277 
L 43.979754 -78.121063 
L 44.35862 -77.357849 
L 44.710354 -76.594635 
L 45.030979 -75.831421 
L 45.316252 -75.068207 
L 45.561975 -74.304992 
L 45.76453 -73.541778 
L 45.921564 -72.778564 
L 46.032701 -72.01535 
L 46.100134 -71.252136 
L 46.128985 -70.488921 
L 46.127301 -69.725707 
L 46.10567 -68.962493 
L 46.076468 -68.199279 
L 46.052824 -67.436065 
L 46.047454 -66.672851 
L 46.071497 -65.909636 
L 46.133526 -65.146422 
L 46.238836 -64.383208 
L 46.389086 -63.619994 
L 46.582313 -62.85678 
L 46.813291 -62.093566 
L 47.074152 -61.330351 
L 47.355185 -60.567137 
L 47.645706 -59.803923 
L 47.934889 -59.040709 
L 48.212495 -58.277495 
L 48.469411 -57.51428 
L 48.697974 -56.751066 
L 48.892078 -55.987852 
L 49.047063 -55.224638 
L 49.15944 -54.461424 
L 49.226518 -53.69821 
L 49.246002 -52.934995 
L 49.215647 -52.171781 
L 49.133046 -51.408567 
L 48.995593 -50.645353 
L 48.800644 -49.882139 
L 48.545859 -49.118925 
L 48.229673 -48.35571 
L 47.851803 -47.592496 
L 47.413702 -46.829282 
L 46.918885 -46.066068 
L 46.373039 -45.302854 
L 45.783914 -44.539639 
L 45.160995 -43.776425 
L 44.515004 -43.013211 
L 43.857306 -42.249997 
L 43.199297 -41.486783 
L 42.551832 -40.723569 
L 41.924758 -39.960354 
L 41.326567 -39.19714 
L 40.764168 -38.433926 
L 40.242777 -37.670712 
L 39.765893 -36.907498 
L 39.335347 -36.144284 
L 38.951413 -35.381069 
L 38.612963 -34.617855 
L 38.317678 -33.854641 
L 38.062297 -33.091427 
L 37.842898 -32.328213 
L 37.655198 -31.564998 
L 37.494849 -30.801784 
L 37.357695 -30.03857 
L 37.239982 -29.275356 
L 37.138494 -28.512142 
L 37.050608 -27.748928 
L 36.974283 -26.985713 
L 36.907987 -26.222499 
L 36.850592 -25.459285 
L 36.801245 -24.696071 
L 36.759262 -23.932857 
L 36.724029 -23.169643 
L 36.694936 -22.406428 
L 36.671351 -21.643214 
L 36.652611 -20.88 
z
" id="m5ced2a05a3" style="stroke:#262626;stroke-width:0.75;"/>
    </defs>
    <g clip-path="url(#p4cc7316675)">
     <use style="fill:#7f9dd2;stroke:#262626;stroke-width:0.75;" x="0" xlink:href="#m5ced2a05a3" y="144"/>
    </g>
   </g>
   <g id="PolyCollection_2">
    <defs>
     <path d="M 73.804701 -23.935973 
L 73.795299 -23.935973 
L 73.787005 -24.923286 
L 73.769964 -25.9106 
L 73.74093 -26.897913 
L 73.698574 -27.885226 
L 73.641758 -28.87254 
L 73.562301 -29.859853 
L 73.434782 -30.847167 
L 73.213114 -31.83448 
L 72.846237 -32.821793 
L 72.31422 -33.809107 
L 71.662008 -34.79642 
L 70.991751 -35.783734 
L 70.397896 -36.771047 
L 69.888924 -37.758361 
L 69.367932 -38.745674 
L 68.690466 -39.732987 
L 67.746831 -40.720301 
L 66.515473 -41.707614 
L 65.07349 -42.694928 
L 63.566541 -43.682241 
L 62.153602 -44.669554 
L 60.962516 -45.656868 
L 60.072195 -46.644181 
L 59.499946 -47.631495 
L 59.190119 -48.618808 
L 59.037405 -49.606121 
L 58.952541 -50.593435 
L 58.92 -51.580748 
L 58.993245 -52.568062 
L 59.232556 -53.555375 
L 59.643293 -54.542688 
L 60.161526 -55.530002 
L 60.684182 -56.517315 
L 61.115844 -57.504629 
L 61.41196 -58.491942 
L 61.604388 -59.479255 
L 61.792372 -60.466569 
L 62.090495 -61.453882 
L 62.557637 -62.441196 
L 63.160587 -63.428509 
L 63.804306 -64.415822 
L 64.400215 -65.403136 
L 64.915189 -66.390449 
L 65.371665 -67.377763 
L 65.812037 -68.365076 
L 66.260472 -69.352389 
L 66.707086 -70.339703 
L 67.117572 -71.327016 
L 67.455099 -72.31433 
L 67.70046 -73.301643 
L 67.864838 -74.288957 
L 67.992636 -75.27627 
L 68.14603 -76.263583 
L 68.369588 -77.250897 
L 68.659991 -78.23821 
L 68.973909 -79.225524 
L 69.271708 -80.212837 
L 69.555029 -81.20015 
L 69.860559 -82.187464 
L 70.216976 -83.174777 
L 70.611614 -84.162091 
L 71.003974 -85.149404 
L 71.369018 -86.136717 
L 71.717065 -87.124031 
L 72.068468 -88.111344 
L 72.418582 -89.098658 
L 72.735166 -90.085971 
L 72.986156 -91.073284 
L 73.164218 -92.060598 
L 73.286818 -93.047911 
L 73.378933 -94.035225 
L 73.456914 -95.022538 
L 73.524518 -96.009851 
L 73.579738 -96.997165 
L 73.622857 -97.984478 
L 73.657618 -98.971792 
L 73.687174 -99.959105 
L 73.712143 -100.946418 
L 73.732667 -101.933732 
L 73.750007 -102.921045 
L 73.765404 -103.908359 
L 73.77865 -104.895672 
L 73.788586 -105.882986 
L 73.794529 -106.870299 
L 73.796815 -107.857612 
L 73.796331 -108.844926 
L 73.794136 -109.832239 
L 73.791562 -110.819553 
L 73.790035 -111.806866 
L 73.790214 -112.794179 
L 73.791358 -113.781493 
L 73.791974 -114.768806 
L 73.791323 -115.75612 
L 73.790188 -116.743433 
L 73.790061 -117.730746 
L 73.79166 -118.71806 
L 73.794354 -119.705373 
L 73.796941 -120.692687 
L 73.798677 -121.68 
L 73.801323 -121.68 
L 73.801323 -121.68 
L 73.803059 -120.692687 
L 73.805646 -119.705373 
L 73.80834 -118.71806 
L 73.809939 -117.730746 
L 73.809812 -116.743433 
L 73.808677 -115.75612 
L 73.808026 -114.768806 
L 73.808642 -113.781493 
L 73.809786 -112.794179 
L 73.809965 -111.806866 
L 73.808438 -110.819553 
L 73.805864 -109.832239 
L 73.803669 -108.844926 
L 73.803185 -107.857612 
L 73.805471 -106.870299 
L 73.811414 -105.882986 
L 73.82135 -104.895672 
L 73.834596 -103.908359 
L 73.849993 -102.921045 
L 73.867333 -101.933732 
L 73.887857 -100.946418 
L 73.912826 -99.959105 
L 73.942382 -98.971792 
L 73.977143 -97.984478 
L 74.020262 -96.997165 
L 74.075482 -96.009851 
L 74.143086 -95.022538 
L 74.221067 -94.035225 
L 74.313182 -93.047911 
L 74.435782 -92.060598 
L 74.613844 -91.073284 
L 74.864834 -90.085971 
L 75.181418 -89.098658 
L 75.531532 -88.111344 
L 75.882935 -87.124031 
L 76.230982 -86.136717 
L 76.596026 -85.149404 
L 76.988386 -84.162091 
L 77.383024 -83.174777 
L 77.739441 -82.187464 
L 78.044971 -81.20015 
L 78.328292 -80.212837 
L 78.626091 -79.225524 
L 78.940009 -78.23821 
L 79.230412 -77.250897 
L 79.45397 -76.263583 
L 79.607364 -75.27627 
L 79.735162 -74.288957 
L 79.89954 -73.301643 
L 80.144901 -72.31433 
L 80.482428 -71.327016 
L 80.892914 -70.339703 
L 81.339528 -69.352389 
L 81.787963 -68.365076 
L 82.228335 -67.377763 
L 82.684811 -66.390449 
L 83.199785 -65.403136 
L 83.795694 -64.415822 
L 84.439413 -63.428509 
L 85.042363 -62.441196 
L 85.509505 -61.453882 
L 85.807628 -60.466569 
L 85.995612 -59.479255 
L 86.18804 -58.491942 
L 86.484156 -57.504629 
L 86.915818 -56.517315 
L 87.438474 -55.530002 
L 87.956707 -54.542688 
L 88.367444 -53.555375 
L 88.606755 -52.568062 
L 88.68 -51.580748 
L 88.647459 -50.593435 
L 88.562595 -49.606121 
L 88.409881 -48.618808 
L 88.100054 -47.631495 
L 87.527805 -46.644181 
L 86.637484 -45.656868 
L 85.446398 -44.669554 
L 84.033459 -43.682241 
L 82.52651 -42.694928 
L 81.084527 -41.707614 
L 79.853169 -40.720301 
L 78.909534 -39.732987 
L 78.232068 -38.745674 
L 77.711076 -37.758361 
L 77.202104 -36.771047 
L 76.608249 -35.783734 
L 75.937992 -34.79642 
L 75.28578 -33.809107 
L 74.753763 -32.821793 
L 74.386886 -31.83448 
L 74.165218 -30.847167 
L 74.037699 -29.859853 
L 73.958242 -28.87254 
L 73.901426 -27.885226 
L 73.85907 -26.897913 
L 73.830036 -25.9106 
L 73.812995 -24.923286 
L 73.804701 -23.935973 
z
" id="m82972aa396" style="stroke:#262626;stroke-width:0.75;"/>
    </defs>
    <g clip-path="url(#p4cc7316675)">
     <use style="fill:#1a1a66;stroke:#262626;stroke-width:0.75;" x="0" xlink:href="#m82972aa396" y="144"/>
    </g>
   </g>
   <g id="PolyCollection_3">
    <defs>
     <path d="M 111.678461 -34.342773 
L 110.321539 -34.342773 
L 110.213517 -34.904592 
L 110.092773 -35.46641 
L 109.958585 -36.028229 
L 109.810315 -36.590048 
L 109.647423 -37.151866 
L 109.469487 -37.713685 
L 109.276219 -38.275504 
L 109.067479 -38.837323 
L 108.843285 -39.399141 
L 108.603819 -39.96096 
L 108.349436 -40.522779 
L 108.080656 -41.084597 
L 107.798163 -41.646416 
L 107.502796 -42.208235 
L 107.195529 -42.770054 
L 106.877462 -43.331872 
L 106.549794 -43.893691 
L 106.213802 -44.45551 
L 105.87082 -45.017329 
L 105.522213 -45.579147 
L 105.169353 -46.140966 
L 104.813602 -46.702785 
L 104.456292 -47.264603 
L 104.098709 -47.826422 
L 103.742087 -48.388241 
L 103.387601 -48.95006 
L 103.036363 -49.511878 
L 102.689428 -50.073697 
L 102.347796 -50.635516 
L 102.012424 -51.197334 
L 101.684229 -51.759153 
L 101.364103 -52.320972 
L 101.052915 -52.882791 
L 100.751519 -53.444609 
L 100.460755 -54.006428 
L 100.181443 -54.568247 
L 99.91438 -55.130066 
L 99.660326 -55.691884 
L 99.419984 -56.253703 
L 99.193987 -56.815522 
L 98.982873 -57.37734 
L 98.787063 -57.939159 
L 98.606839 -58.500978 
L 98.442331 -59.062797 
L 98.293501 -59.624615 
L 98.160138 -60.186434 
L 98.041862 -60.748253 
L 97.938136 -61.310071 
L 97.848289 -61.87189 
L 97.771544 -62.433709 
L 97.707062 -62.995528 
L 97.653986 -63.557346 
L 97.611499 -64.119165 
L 97.578873 -64.680984 
L 97.555532 -65.242803 
L 97.541097 -65.804621 
L 97.535439 -66.36644 
L 97.538711 -66.928259 
L 97.551375 -67.490077 
L 97.574213 -68.051896 
L 97.608319 -68.613715 
L 97.655081 -69.175534 
L 97.716144 -69.737352 
L 97.793353 -70.299171 
L 97.88869 -70.86099 
L 98.004196 -71.422809 
L 98.141883 -71.984627 
L 98.303652 -72.546446 
L 98.491195 -73.108265 
L 98.705916 -73.670083 
L 98.948847 -74.231902 
L 99.22059 -74.793721 
L 99.521254 -75.35554 
L 99.850426 -75.917358 
L 100.207154 -76.479177 
L 100.589943 -77.040996 
L 100.996778 -77.602814 
L 101.425161 -78.164633 
L 101.872168 -78.726452 
L 102.334512 -79.288271 
L 102.808623 -79.850089 
L 103.290737 -80.411908 
L 103.776983 -80.973727 
L 104.263475 -81.535546 
L 104.7464 -82.097364 
L 105.222104 -82.659183 
L 105.687162 -83.221002 
L 106.138443 -83.78282 
L 106.573166 -84.344639 
L 106.988935 -84.906458 
L 107.383767 -85.468277 
L 107.756103 -86.030095 
L 108.10481 -86.591914 
L 108.429171 -87.153733 
L 108.728861 -87.715551 
L 109.003918 -88.27737 
L 109.254709 -88.839189 
L 109.481888 -89.401008 
L 109.686352 -89.962826 
L 112.313648 -89.962826 
L 112.313648 -89.962826 
L 112.518112 -89.401008 
L 112.745291 -88.839189 
L 112.996082 -88.27737 
L 113.271139 -87.715551 
L 113.570829 -87.153733 
L 113.89519 -86.591914 
L 114.243897 -86.030095 
L 114.616233 -85.468277 
L 115.011065 -84.906458 
L 115.426834 -84.344639 
L 115.861557 -83.78282 
L 116.312838 -83.221002 
L 116.777896 -82.659183 
L 117.2536 -82.097364 
L 117.736525 -81.535546 
L 118.223017 -80.973727 
L 118.709263 -80.411908 
L 119.191377 -79.850089 
L 119.665488 -79.288271 
L 120.127832 -78.726452 
L 120.574839 -78.164633 
L 121.003222 -77.602814 
L 121.410057 -77.040996 
L 121.792846 -76.479177 
L 122.149574 -75.917358 
L 122.478746 -75.35554 
L 122.77941 -74.793721 
L 123.051153 -74.231902 
L 123.294084 -73.670083 
L 123.508805 -73.108265 
L 123.696348 -72.546446 
L 123.858117 -71.984627 
L 123.995804 -71.422809 
L 124.11131 -70.86099 
L 124.206647 -70.299171 
L 124.283856 -69.737352 
L 124.344919 -69.175534 
L 124.391681 -68.613715 
L 124.425787 -68.051896 
L 124.448625 -67.490077 
L 124.461289 -66.928259 
L 124.464561 -66.36644 
L 124.458903 -65.804621 
L 124.444468 -65.242803 
L 124.421127 -64.680984 
L 124.388501 -64.119165 
L 124.346014 -63.557346 
L 124.292938 -62.995528 
L 124.228456 -62.433709 
L 124.151711 -61.87189 
L 124.061864 -61.310071 
L 123.958138 -60.748253 
L 123.839862 -60.186434 
L 123.706499 -59.624615 
L 123.557669 -59.062797 
L 123.393161 -58.500978 
L 123.212937 -57.939159 
L 123.017127 -57.37734 
L 122.806013 -56.815522 
L 122.580016 -56.253703 
L 122.339674 -55.691884 
L 122.08562 -55.130066 
L 121.818557 -54.568247 
L 121.539245 -54.006428 
L 121.248481 -53.444609 
L 120.947085 -52.882791 
L 120.635897 -52.320972 
L 120.315771 -51.759153 
L 119.987576 -51.197334 
L 119.652204 -50.635516 
L 119.310572 -50.073697 
L 118.963637 -49.511878 
L 118.612399 -48.95006 
L 118.257913 -48.388241 
L 117.901291 -47.826422 
L 117.543708 -47.264603 
L 117.186398 -46.702785 
L 116.830647 -46.140966 
L 116.477787 -45.579147 
L 116.12918 -45.017329 
L 115.786198 -44.45551 
L 115.450206 -43.893691 
L 115.122538 -43.331872 
L 114.804471 -42.770054 
L 114.497204 -42.208235 
L 114.201837 -41.646416 
L 113.919344 -41.084597 
L 113.650564 -40.522779 
L 113.396181 -39.96096 
L 113.156715 -39.399141 
L 112.932521 -38.837323 
L 112.723781 -38.275504 
L 112.530513 -37.713685 
L 112.352577 -37.151866 
L 112.189685 -36.590048 
L 112.041415 -36.028229 
L 111.907227 -35.46641 
L 111.786483 -34.904592 
L 111.678461 -34.342773 
z
" id="mc653cab220" style="stroke:#262626;stroke-width:0.75;"/>
    </defs>
    <g clip-path="url(#p4cc7316675)">
     <use style="fill:#cc8733;stroke:#262626;stroke-width:0.75;" x="0" xlink:href="#mc653cab220" y="144"/>
    </g>
   </g>
   <g id="line2d_1">
    <path clip-path="url(#p4cc7316675)" d="M 36.6 112.979245 
L 36.6 57.702552 
" style="fill:none;stroke:#262626;stroke-linecap:round;stroke-width:0.75;"/>
   </g>
   <g id="line2d_2">
    <path clip-path="url(#p4cc7316675)" d="M 36.6 94.171554 
L 36.6 72.700921 
" style="fill:none;stroke:#262626;stroke-linecap:round;stroke-width:2.25;"/>
   </g>
   <g id="line2d_3">
    <path clip-path="url(#p4cc7316675)" d="M 73.8 115.909464 
L 73.8 49.933162 
" style="fill:none;stroke:#262626;stroke-linecap:round;stroke-width:0.75;"/>
   </g>
   <g id="line2d_4">
    <path clip-path="url(#p4cc7316675)" d="M 73.8 95.439434 
L 73.8 77.165003 
" style="fill:none;stroke:#262626;stroke-linecap:round;stroke-width:2.25;"/>
   </g>
   <g id="line2d_5">
    <path clip-path="url(#p4cc7316675)" d="M 111 94.286448 
L 111 69.407953 
" style="fill:none;stroke:#262626;stroke-linecap:round;stroke-width:0.75;"/>
   </g>
   <g id="line2d_6">
    <path clip-path="url(#p4cc7316675)" d="M 111 84.547745 
L 111 69.407953 
" style="fill:none;stroke:#262626;stroke-linecap:round;stroke-width:2.25;"/>
   </g>
   <g id="patch_3">
    <path d="M 18 128.16 
L 18 17.28 
" style="fill:none;stroke:#262626;stroke-linecap:square;stroke-linejoin:miter;stroke-width:0.8;"/>
   </g>
   <g id="patch_4">
    <path d="M 18 128.16 
L 129.6 128.16 
" style="fill:none;stroke:#262626;stroke-linecap:square;stroke-linejoin:miter;stroke-width:0.8;"/>
   </g>
   <g id="PathCollection_1">
    <defs>
     <path d="M 0 0.75 
C 0.198902 0.75 0.389685 0.670975 0.53033 0.53033 
C 0.670975 0.389685 0.75 0.198902 0.75 0 
C 0.75 -0.198902 0.670975 -0.389685 0.53033 -0.53033 
C 0.389685 -0.670975 0.198902 -0.75 0 -0.75 
C -0.198902 -0.75 -0.389685 -0.670975 -0.53033 -0.53033 
C -0.670975 -0.389685 -0.75 -0.198902 -0.75 0 
C -0.75 0.198902 -0.670975 0.389685 -0.53033 0.53033 
C -0.389685 0.670975 -0.198902 0.75 0 0.75 
z
" id="m07b2779914" style="stroke:#262626;"/>
    </defs>
    <g clip-path="url(#p4cc7316675)">
     <use style="fill:#ffffff;stroke:#262626;" x="36.6" xlink:href="#m07b2779914" y="85.18592"/>
    </g>
   </g>
   <g id="PathCollection_2">
    <g clip-path="url(#p4cc7316675)">
     <use style="fill:#ffffff;stroke:#262626;" x="73.8" xlink:href="#m07b2779914" y="87.572595"/>
    </g>
   </g>
   <g id="PathCollection_3">
    <g clip-path="url(#p4cc7316675)">
     <use style="fill:#ffffff;stroke:#262626;" x="111" xlink:href="#m07b2779914" y="80.982536"/>
    </g>
   </g>
   <g id="text_8">
    <!-- Random -->
    <g style="fill:#262626;" transform="translate(28.445625 11.28)scale(0.24 -0.24)">
     <defs>
      <path d="M 422 0 
L 422 3319 
L 925 3319 
L 925 2853 
Q 1081 3097 1340 3245 
Q 1600 3394 1931 3394 
Q 2300 3394 2536 3241 
Q 2772 3088 2869 2813 
Q 3263 3394 3894 3394 
Q 4388 3394 4653 3120 
Q 4919 2847 4919 2278 
L 4919 0 
L 4359 0 
L 4359 2091 
Q 4359 2428 4304 2576 
Q 4250 2725 4106 2815 
Q 3963 2906 3769 2906 
Q 3419 2906 3187 2673 
Q 2956 2441 2956 1928 
L 2956 0 
L 2394 0 
L 2394 2156 
Q 2394 2531 2256 2718 
Q 2119 2906 1806 2906 
Q 1569 2906 1367 2781 
Q 1166 2656 1075 2415 
Q 984 2175 984 1722 
L 984 0 
L 422 0 
z
" id="ArialMT-6d" transform="scale(0.015625)"/>
     </defs>
     <use xlink:href="#ArialMT-52"/>
     <use x="72.216797" xlink:href="#ArialMT-61"/>
     <use x="127.832031" xlink:href="#ArialMT-6e"/>
     <use x="183.447266" xlink:href="#ArialMT-64"/>
     <use x="239.0625" xlink:href="#ArialMT-6f"/>
     <use x="294.677734" xlink:href="#ArialMT-6d"/>
    </g>
   </g>
  </g>
 </g>
 <defs>
  <clipPath id="p4cc7316675">
   <rect height="110.88" width="111.6" x="18" y="17.28"/>
  </clipPath>
 </defs>
</svg>
