<?xml version="1.0" encoding="utf-8" standalone="no"?>
<!DOCTYPE svg PUBLIC "-//W3C//DTD SVG 1.1//EN"
  "http://www.w3.org/Graphics/SVG/1.1/DTD/svg11.dtd">
<svg height="144pt" version="1.1" viewBox="0 0 144 144" width="144pt" xmlns="http://www.w3.org/2000/svg" xmlns:xlink="http://www.w3.org/1999/xlink">
 <metadata>
  <rdf:RDF xmlns:cc="http://creativecommons.org/ns#" xmlns:dc="http://purl.org/dc/elements/1.1/" xmlns:rdf="http://www.w3.org/1999/02/22-rdf-syntax-ns#">
   <cc:Work>
    <dc:type rdf:resource="http://purl.org/dc/dcmitype/StillImage"/>
    <dc:date>2023-01-28T06:15:33.188582</dc:date>
    <dc:format>image/svg+xml</dc:format>
    <dc:creator>
     <cc:Agent>
      <dc:title>Matplotlib v3.4.2, https://matplotlib.org/</dc:title>
     </cc:Agent>
    </dc:creator>
   </cc:Work>
  </rdf:RDF>
 </metadata>
 <defs>
  <style type="text/css">*{stroke-linecap:butt;stroke-linejoin:round;}</style>
 </defs>
 <g id="figure_1">
  <g id="patch_1">
   <path d="M 0 144 
L 144 144 
L 144 0 
L 0 0 
z
" style="fill:#ffffff;"/>
  </g>
  <g id="axes_1">
   <g id="patch_2">
    <path d="M 18 128.16 
L 129.6 128.16 
L 129.6 17.28 
L 18 17.28 
z
" style="fill:#ffffff;"/>
   </g>
   <g id="matplotlib.axis_1">
    <g id="xtick_1">
     <g id="text_1">
      <!-- Original -->
      <g style="fill:#262626;" transform="translate(41.78125 204.0725)rotate(-90)scale(0.2 -0.2)">
       <defs>
        <path d="M 309 2231 
Q 309 3372 921 4017 
Q 1534 4663 2503 4663 
Q 3138 4663 3647 4359 
Q 4156 4056 4423 3514 
Q 4691 2972 4691 2284 
Q 4691 1588 4409 1038 
Q 4128 488 3612 205 
Q 3097 -78 2500 -78 
Q 1853 -78 1343 234 
Q 834 547 571 1087 
Q 309 1628 309 2231 
z
M 934 2222 
Q 934 1394 1379 917 
Q 1825 441 2497 441 
Q 3181 441 3623 922 
Q 4066 1403 4066 2288 
Q 4066 2847 3877 3264 
Q 3688 3681 3323 3911 
Q 2959 4141 2506 4141 
Q 1863 4141 1398 3698 
Q 934 3256 934 2222 
z
" id="ArialMT-4f" transform="scale(0.015625)"/>
        <path d="M 416 0 
L 416 3319 
L 922 3319 
L 922 2816 
Q 1116 3169 1280 3281 
Q 1444 3394 1641 3394 
Q 1925 3394 2219 3213 
L 2025 2691 
Q 1819 2813 1613 2813 
Q 1428 2813 1281 2702 
Q 1134 2591 1072 2394 
Q 978 2094 978 1738 
L 978 0 
L 416 0 
z
" id="ArialMT-72" transform="scale(0.015625)"/>
        <path d="M 425 3934 
L 425 4581 
L 988 4581 
L 988 3934 
L 425 3934 
z
M 425 0 
L 425 3319 
L 988 3319 
L 988 0 
L 425 0 
z
" id="ArialMT-69" transform="scale(0.015625)"/>
        <path d="M 319 -275 
L 866 -356 
Q 900 -609 1056 -725 
Q 1266 -881 1628 -881 
Q 2019 -881 2231 -725 
Q 2444 -569 2519 -288 
Q 2563 -116 2559 434 
Q 2191 0 1641 0 
Q 956 0 581 494 
Q 206 988 206 1678 
Q 206 2153 378 2554 
Q 550 2956 876 3175 
Q 1203 3394 1644 3394 
Q 2231 3394 2613 2919 
L 2613 3319 
L 3131 3319 
L 3131 450 
Q 3131 -325 2973 -648 
Q 2816 -972 2473 -1159 
Q 2131 -1347 1631 -1347 
Q 1038 -1347 672 -1080 
Q 306 -813 319 -275 
z
M 784 1719 
Q 784 1066 1043 766 
Q 1303 466 1694 466 
Q 2081 466 2343 764 
Q 2606 1063 2606 1700 
Q 2606 2309 2336 2618 
Q 2066 2928 1684 2928 
Q 1309 2928 1046 2623 
Q 784 2319 784 1719 
z
" id="ArialMT-67" transform="scale(0.015625)"/>
        <path d="M 422 0 
L 422 3319 
L 928 3319 
L 928 2847 
Q 1294 3394 1984 3394 
Q 2284 3394 2536 3286 
Q 2788 3178 2913 3003 
Q 3038 2828 3088 2588 
Q 3119 2431 3119 2041 
L 3119 0 
L 2556 0 
L 2556 2019 
Q 2556 2363 2490 2533 
Q 2425 2703 2258 2804 
Q 2091 2906 1866 2906 
Q 1506 2906 1245 2678 
Q 984 2450 984 1813 
L 984 0 
L 422 0 
z
" id="ArialMT-6e" transform="scale(0.015625)"/>
        <path d="M 2588 409 
Q 2275 144 1986 34 
Q 1697 -75 1366 -75 
Q 819 -75 525 192 
Q 231 459 231 875 
Q 231 1119 342 1320 
Q 453 1522 633 1644 
Q 813 1766 1038 1828 
Q 1203 1872 1538 1913 
Q 2219 1994 2541 2106 
Q 2544 2222 2544 2253 
Q 2544 2597 2384 2738 
Q 2169 2928 1744 2928 
Q 1347 2928 1158 2789 
Q 969 2650 878 2297 
L 328 2372 
Q 403 2725 575 2942 
Q 747 3159 1072 3276 
Q 1397 3394 1825 3394 
Q 2250 3394 2515 3294 
Q 2781 3194 2906 3042 
Q 3031 2891 3081 2659 
Q 3109 2516 3109 2141 
L 3109 1391 
Q 3109 606 3145 398 
Q 3181 191 3288 0 
L 2700 0 
Q 2613 175 2588 409 
z
M 2541 1666 
Q 2234 1541 1622 1453 
Q 1275 1403 1131 1340 
Q 988 1278 909 1158 
Q 831 1038 831 891 
Q 831 666 1001 516 
Q 1172 366 1500 366 
Q 1825 366 2078 508 
Q 2331 650 2450 897 
Q 2541 1088 2541 1459 
L 2541 1666 
z
" id="ArialMT-61" transform="scale(0.015625)"/>
        <path d="M 409 0 
L 409 4581 
L 972 4581 
L 972 0 
L 409 0 
z
" id="ArialMT-6c" transform="scale(0.015625)"/>
       </defs>
       <use xlink:href="#ArialMT-4f"/>
       <use x="77.783203" xlink:href="#ArialMT-72"/>
       <use x="111.083984" xlink:href="#ArialMT-69"/>
       <use x="133.300781" xlink:href="#ArialMT-67"/>
       <use x="188.916016" xlink:href="#ArialMT-69"/>
       <use x="211.132812" xlink:href="#ArialMT-6e"/>
       <use x="266.748047" xlink:href="#ArialMT-61"/>
       <use x="322.363281" xlink:href="#ArialMT-6c"/>
      </g>
     </g>
    </g>
    <g id="xtick_2">
     <g id="text_2">
      <!-- Mutated -->
      <g style="fill:#262626;" transform="translate(78.970312 207.419375)rotate(-90)scale(0.2 -0.2)">
       <defs>
        <path d="M 475 0 
L 475 4581 
L 1388 4581 
L 2472 1338 
Q 2622 884 2691 659 
Q 2769 909 2934 1394 
L 4031 4581 
L 4847 4581 
L 4847 0 
L 4263 0 
L 4263 3834 
L 2931 0 
L 2384 0 
L 1059 3900 
L 1059 0 
L 475 0 
z
" id="ArialMT-4d" transform="scale(0.015625)"/>
        <path d="M 2597 0 
L 2597 488 
Q 2209 -75 1544 -75 
Q 1250 -75 995 37 
Q 741 150 617 320 
Q 494 491 444 738 
Q 409 903 409 1263 
L 409 3319 
L 972 3319 
L 972 1478 
Q 972 1038 1006 884 
Q 1059 663 1231 536 
Q 1403 409 1656 409 
Q 1909 409 2131 539 
Q 2353 669 2445 892 
Q 2538 1116 2538 1541 
L 2538 3319 
L 3100 3319 
L 3100 0 
L 2597 0 
z
" id="ArialMT-75" transform="scale(0.015625)"/>
        <path d="M 1650 503 
L 1731 6 
Q 1494 -44 1306 -44 
Q 1000 -44 831 53 
Q 663 150 594 308 
Q 525 466 525 972 
L 525 2881 
L 113 2881 
L 113 3319 
L 525 3319 
L 525 4141 
L 1084 4478 
L 1084 3319 
L 1650 3319 
L 1650 2881 
L 1084 2881 
L 1084 941 
Q 1084 700 1114 631 
Q 1144 563 1211 522 
Q 1278 481 1403 481 
Q 1497 481 1650 503 
z
" id="ArialMT-74" transform="scale(0.015625)"/>
        <path d="M 2694 1069 
L 3275 997 
Q 3138 488 2766 206 
Q 2394 -75 1816 -75 
Q 1088 -75 661 373 
Q 234 822 234 1631 
Q 234 2469 665 2931 
Q 1097 3394 1784 3394 
Q 2450 3394 2872 2941 
Q 3294 2488 3294 1666 
Q 3294 1616 3291 1516 
L 816 1516 
Q 847 969 1125 678 
Q 1403 388 1819 388 
Q 2128 388 2347 550 
Q 2566 713 2694 1069 
z
M 847 1978 
L 2700 1978 
Q 2663 2397 2488 2606 
Q 2219 2931 1791 2931 
Q 1403 2931 1139 2672 
Q 875 2413 847 1978 
z
" id="ArialMT-65" transform="scale(0.015625)"/>
        <path d="M 2575 0 
L 2575 419 
Q 2259 -75 1647 -75 
Q 1250 -75 917 144 
Q 584 363 401 755 
Q 219 1147 219 1656 
Q 219 2153 384 2558 
Q 550 2963 881 3178 
Q 1213 3394 1622 3394 
Q 1922 3394 2156 3267 
Q 2391 3141 2538 2938 
L 2538 4581 
L 3097 4581 
L 3097 0 
L 2575 0 
z
M 797 1656 
Q 797 1019 1065 703 
Q 1334 388 1700 388 
Q 2069 388 2326 689 
Q 2584 991 2584 1609 
Q 2584 2291 2321 2609 
Q 2059 2928 1675 2928 
Q 1300 2928 1048 2622 
Q 797 2316 797 1656 
z
" id="ArialMT-64" transform="scale(0.015625)"/>
       </defs>
       <use xlink:href="#ArialMT-4d"/>
       <use x="83.300781" xlink:href="#ArialMT-75"/>
       <use x="138.916016" xlink:href="#ArialMT-74"/>
       <use x="166.699219" xlink:href="#ArialMT-61"/>
       <use x="222.314453" xlink:href="#ArialMT-74"/>
       <use x="250.097656" xlink:href="#ArialMT-65"/>
       <use x="305.712891" xlink:href="#ArialMT-64"/>
      </g>
     </g>
    </g>
    <g id="xtick_3">
     <g id="text_3">
      <!-- STORM -->
      <g style="fill:#262626;" transform="translate(116.170312 207.025625)rotate(-90)scale(0.2 -0.2)">
       <defs>
        <path d="M 288 1472 
L 859 1522 
Q 900 1178 1048 958 
Q 1197 738 1509 602 
Q 1822 466 2213 466 
Q 2559 466 2825 569 
Q 3091 672 3220 851 
Q 3350 1031 3350 1244 
Q 3350 1459 3225 1620 
Q 3100 1781 2813 1891 
Q 2628 1963 1997 2114 
Q 1366 2266 1113 2400 
Q 784 2572 623 2826 
Q 463 3081 463 3397 
Q 463 3744 659 4045 
Q 856 4347 1234 4503 
Q 1613 4659 2075 4659 
Q 2584 4659 2973 4495 
Q 3363 4331 3572 4012 
Q 3781 3694 3797 3291 
L 3216 3247 
Q 3169 3681 2898 3903 
Q 2628 4125 2100 4125 
Q 1550 4125 1298 3923 
Q 1047 3722 1047 3438 
Q 1047 3191 1225 3031 
Q 1400 2872 2139 2705 
Q 2878 2538 3153 2413 
Q 3553 2228 3743 1945 
Q 3934 1663 3934 1294 
Q 3934 928 3725 604 
Q 3516 281 3123 101 
Q 2731 -78 2241 -78 
Q 1619 -78 1198 103 
Q 778 284 539 648 
Q 300 1013 288 1472 
z
" id="ArialMT-53" transform="scale(0.015625)"/>
        <path d="M 1659 0 
L 1659 4041 
L 150 4041 
L 150 4581 
L 3781 4581 
L 3781 4041 
L 2266 4041 
L 2266 0 
L 1659 0 
z
" id="ArialMT-54" transform="scale(0.015625)"/>
        <path d="M 503 0 
L 503 4581 
L 2534 4581 
Q 3147 4581 3465 4457 
Q 3784 4334 3975 4021 
Q 4166 3709 4166 3331 
Q 4166 2844 3850 2509 
Q 3534 2175 2875 2084 
Q 3116 1969 3241 1856 
Q 3506 1613 3744 1247 
L 4541 0 
L 3778 0 
L 3172 953 
Q 2906 1366 2734 1584 
Q 2563 1803 2427 1890 
Q 2291 1978 2150 2013 
Q 2047 2034 1813 2034 
L 1109 2034 
L 1109 0 
L 503 0 
z
M 1109 2559 
L 2413 2559 
Q 2828 2559 3062 2645 
Q 3297 2731 3419 2920 
Q 3541 3109 3541 3331 
Q 3541 3656 3305 3865 
Q 3069 4075 2559 4075 
L 1109 4075 
L 1109 2559 
z
" id="ArialMT-52" transform="scale(0.015625)"/>
       </defs>
       <use xlink:href="#ArialMT-53"/>
       <use x="66.699219" xlink:href="#ArialMT-54"/>
       <use x="126.033203" xlink:href="#ArialMT-4f"/>
       <use x="203.816406" xlink:href="#ArialMT-52"/>
       <use x="276.033203" xlink:href="#ArialMT-4d"/>
      </g>
     </g>
    </g>
    <g id="text_4">
     <!-- Method -->
     <g style="fill:#262626;" transform="translate(40.448437 225.735)scale(0.2 -0.2)">
      <defs>
       <path d="M 422 0 
L 422 4581 
L 984 4581 
L 984 2938 
Q 1378 3394 1978 3394 
Q 2347 3394 2619 3248 
Q 2891 3103 3008 2847 
Q 3125 2591 3125 2103 
L 3125 0 
L 2563 0 
L 2563 2103 
Q 2563 2525 2380 2717 
Q 2197 2909 1863 2909 
Q 1613 2909 1392 2779 
Q 1172 2650 1078 2428 
Q 984 2206 984 1816 
L 984 0 
L 422 0 
z
" id="ArialMT-68" transform="scale(0.015625)"/>
       <path d="M 213 1659 
Q 213 2581 725 3025 
Q 1153 3394 1769 3394 
Q 2453 3394 2887 2945 
Q 3322 2497 3322 1706 
Q 3322 1066 3130 698 
Q 2938 331 2570 128 
Q 2203 -75 1769 -75 
Q 1072 -75 642 372 
Q 213 819 213 1659 
z
M 791 1659 
Q 791 1022 1069 705 
Q 1347 388 1769 388 
Q 2188 388 2466 706 
Q 2744 1025 2744 1678 
Q 2744 2294 2464 2611 
Q 2184 2928 1769 2928 
Q 1347 2928 1069 2612 
Q 791 2297 791 1659 
z
" id="ArialMT-6f" transform="scale(0.015625)"/>
      </defs>
      <use xlink:href="#ArialMT-4d"/>
      <use x="83.300781" xlink:href="#ArialMT-65"/>
      <use x="138.916016" xlink:href="#ArialMT-74"/>
      <use x="166.699219" xlink:href="#ArialMT-68"/>
      <use x="222.314453" xlink:href="#ArialMT-6f"/>
      <use x="277.929688" xlink:href="#ArialMT-64"/>
     </g>
    </g>
   </g>
   <g id="matplotlib.axis_2">
    <g id="ytick_1">
     <g id="text_5">
      <!-- 0 -->
      <g style="fill:#262626;" transform="translate(-0.121875 98.017676)scale(0.2 -0.2)">
       <defs>
        <path d="M 266 2259 
Q 266 3072 433 3567 
Q 600 4063 929 4331 
Q 1259 4600 1759 4600 
Q 2128 4600 2406 4451 
Q 2684 4303 2865 4023 
Q 3047 3744 3150 3342 
Q 3253 2941 3253 2259 
Q 3253 1453 3087 958 
Q 2922 463 2592 192 
Q 2263 -78 1759 -78 
Q 1097 -78 719 397 
Q 266 969 266 2259 
z
M 844 2259 
Q 844 1131 1108 757 
Q 1372 384 1759 384 
Q 2147 384 2411 759 
Q 2675 1134 2675 2259 
Q 2675 3391 2411 3762 
Q 2147 4134 1753 4134 
Q 1366 4134 1134 3806 
Q 844 3388 844 2259 
z
" id="ArialMT-30" transform="scale(0.015625)"/>
       </defs>
       <use xlink:href="#ArialMT-30"/>
      </g>
     </g>
    </g>
    <g id="ytick_2">
     <g id="text_6">
      <!-- 2 -->
      <g style="fill:#262626;" transform="translate(-0.121875 32.947714)scale(0.2 -0.2)">
       <defs>
        <path d="M 3222 541 
L 3222 0 
L 194 0 
Q 188 203 259 391 
Q 375 700 629 1000 
Q 884 1300 1366 1694 
Q 2113 2306 2375 2664 
Q 2638 3022 2638 3341 
Q 2638 3675 2398 3904 
Q 2159 4134 1775 4134 
Q 1369 4134 1125 3890 
Q 881 3647 878 3216 
L 300 3275 
Q 359 3922 746 4261 
Q 1134 4600 1788 4600 
Q 2447 4600 2831 4234 
Q 3216 3869 3216 3328 
Q 3216 3053 3103 2787 
Q 2991 2522 2730 2228 
Q 2469 1934 1863 1422 
Q 1356 997 1212 845 
Q 1069 694 975 541 
L 3222 541 
z
" id="ArialMT-32" transform="scale(0.015625)"/>
       </defs>
       <use xlink:href="#ArialMT-32"/>
      </g>
     </g>
    </g>
    <g id="text_7">
     <!-- Predictions -->
     <g style="fill:#262626;" transform="translate(-8.096875 122.185625)rotate(-90)scale(0.2 -0.2)">
      <defs>
       <path d="M 494 0 
L 494 4581 
L 2222 4581 
Q 2678 4581 2919 4538 
Q 3256 4481 3484 4323 
Q 3713 4166 3852 3881 
Q 3991 3597 3991 3256 
Q 3991 2672 3619 2267 
Q 3247 1863 2275 1863 
L 1100 1863 
L 1100 0 
L 494 0 
z
M 1100 2403 
L 2284 2403 
Q 2872 2403 3119 2622 
Q 3366 2841 3366 3238 
Q 3366 3525 3220 3729 
Q 3075 3934 2838 4000 
Q 2684 4041 2272 4041 
L 1100 4041 
L 1100 2403 
z
" id="ArialMT-50" transform="scale(0.015625)"/>
       <path d="M 2588 1216 
L 3141 1144 
Q 3050 572 2676 248 
Q 2303 -75 1759 -75 
Q 1078 -75 664 370 
Q 250 816 250 1647 
Q 250 2184 428 2587 
Q 606 2991 970 3192 
Q 1334 3394 1763 3394 
Q 2303 3394 2647 3120 
Q 2991 2847 3088 2344 
L 2541 2259 
Q 2463 2594 2264 2762 
Q 2066 2931 1784 2931 
Q 1359 2931 1093 2626 
Q 828 2322 828 1663 
Q 828 994 1084 691 
Q 1341 388 1753 388 
Q 2084 388 2306 591 
Q 2528 794 2588 1216 
z
" id="ArialMT-63" transform="scale(0.015625)"/>
       <path d="M 197 991 
L 753 1078 
Q 800 744 1014 566 
Q 1228 388 1613 388 
Q 2000 388 2187 545 
Q 2375 703 2375 916 
Q 2375 1106 2209 1216 
Q 2094 1291 1634 1406 
Q 1016 1563 777 1677 
Q 538 1791 414 1992 
Q 291 2194 291 2438 
Q 291 2659 392 2848 
Q 494 3038 669 3163 
Q 800 3259 1026 3326 
Q 1253 3394 1513 3394 
Q 1903 3394 2198 3281 
Q 2494 3169 2634 2976 
Q 2775 2784 2828 2463 
L 2278 2388 
Q 2241 2644 2061 2787 
Q 1881 2931 1553 2931 
Q 1166 2931 1000 2803 
Q 834 2675 834 2503 
Q 834 2394 903 2306 
Q 972 2216 1119 2156 
Q 1203 2125 1616 2013 
Q 2213 1853 2448 1751 
Q 2684 1650 2818 1456 
Q 2953 1263 2953 975 
Q 2953 694 2789 445 
Q 2625 197 2315 61 
Q 2006 -75 1616 -75 
Q 969 -75 630 194 
Q 291 463 197 991 
z
" id="ArialMT-73" transform="scale(0.015625)"/>
      </defs>
      <use xlink:href="#ArialMT-50"/>
      <use x="66.699219" xlink:href="#ArialMT-72"/>
      <use x="100" xlink:href="#ArialMT-65"/>
      <use x="155.615234" xlink:href="#ArialMT-64"/>
      <use x="211.230469" xlink:href="#ArialMT-69"/>
      <use x="233.447266" xlink:href="#ArialMT-63"/>
      <use x="283.447266" xlink:href="#ArialMT-74"/>
      <use x="311.230469" xlink:href="#ArialMT-69"/>
      <use x="333.447266" xlink:href="#ArialMT-6f"/>
      <use x="389.0625" xlink:href="#ArialMT-6e"/>
      <use x="444.677734" xlink:href="#ArialMT-73"/>
     </g>
    </g>
   </g>
   <g id="PolyCollection_1">
    <defs>
     <path d="M 36.629832 -20.88 
L 36.570168 -20.88 
L 36.550622 -21.80021 
L 36.520832 -22.72042 
L 36.476748 -23.640629 
L 36.413246 -24.560839 
L 36.324045 -25.481049 
L 36.201725 -26.401259 
L 36.037949 -27.321469 
L 35.823922 -28.241679 
L 35.551129 -29.161888 
L 35.212288 -30.082098 
L 34.802378 -31.002308 
L 34.319625 -31.922518 
L 33.766327 -32.842728 
L 33.149485 -33.762938 
L 32.481273 -34.683147 
L 31.77928 -35.603357 
L 31.066402 -36.523567 
L 30.37009 -37.443777 
L 29.720721 -38.363987 
L 29.149038 -39.284197 
L 28.68297 -40.204406 
L 28.344494 -41.124616 
L 28.147277 -42.044826 
L 28.095702 -42.965036 
L 28.185409 -43.885246 
L 28.405037 -44.805455 
L 28.738538 -45.725665 
L 29.167409 -46.645875 
L 29.672402 -47.566085 
L 30.234585 -48.486295 
L 30.835849 -49.406505 
L 31.459061 -50.326714 
L 32.088053 -51.246924 
L 32.707574 -52.167134 
L 33.303281 -53.087344 
L 33.861876 -54.007554 
L 34.371445 -54.927764 
L 34.822038 -55.847973 
L 35.206422 -56.768183 
L 35.520829 -57.688393 
L 35.765496 -58.608603 
L 35.944767 -59.528813 
L 36.066657 -60.449022 
L 36.141893 -61.369232 
L 36.182592 -62.289442 
L 36.200813 -63.209652 
L 36.207275 -64.129862 
L 36.210444 -65.050072 
L 36.216145 -65.970281 
L 36.227651 -66.890491 
L 36.246146 -67.810701 
L 36.271348 -68.730911 
L 36.302098 -69.651121 
L 36.336807 -70.571331 
L 36.373721 -71.49154 
L 36.411071 -72.41175 
L 36.44717 -73.33196 
L 36.480524 -74.25217 
L 36.509961 -75.17238 
L 36.534738 -76.09259 
L 36.554597 -77.012799 
L 36.569733 -77.933009 
L 36.580691 -78.853219 
L 36.588216 -79.773429 
L 36.593106 -80.693639 
L 36.596087 -81.613848 
L 36.597735 -82.534058 
L 36.59844 -83.454268 
L 36.598393 -84.374478 
L 36.597585 -85.294688 
L 36.595815 -86.214898 
L 36.592697 -87.135107 
L 36.58769 -88.055317 
L 36.580163 -88.975527 
L 36.569501 -89.895737 
L 36.555259 -90.815947 
L 36.537331 -91.736157 
L 36.516094 -92.656366 
L 36.492455 -93.576576 
L 36.467779 -94.496786 
L 36.443682 -95.416996 
L 36.421746 -96.337206 
L 36.403254 -97.257415 
L 36.389028 -98.177625 
L 36.379437 -99.097835 
L 36.374541 -100.018045 
L 36.374296 -100.938255 
L 36.378697 -101.858465 
L 36.387791 -102.778674 
L 36.401536 -103.698884 
L 36.419607 -104.619094 
L 36.441231 -105.539304 
L 36.465172 -106.459514 
L 36.489865 -107.379724 
L 36.513685 -108.299933 
L 36.535228 -109.220143 
L 36.553534 -110.140353 
L 36.56817 -111.060563 
L 36.579198 -111.980773 
L 36.620802 -111.980773 
L 36.620802 -111.980773 
L 36.63183 -111.060563 
L 36.646466 -110.140353 
L 36.664772 -109.220143 
L 36.686315 -108.299933 
L 36.710135 -107.379724 
L 36.734828 -106.459514 
L 36.758769 -105.539304 
L 36.780393 -104.619094 
L 36.798464 -103.698884 
L 36.812209 -102.778674 
L 36.821303 -101.858465 
L 36.825704 -100.938255 
L 36.825459 -100.018045 
L 36.820563 -99.097835 
L 36.810972 -98.177625 
L 36.796746 -97.257415 
L 36.778254 -96.337206 
L 36.756318 -95.416996 
L 36.732221 -94.496786 
L 36.707545 -93.576576 
L 36.683906 -92.656366 
L 36.662669 -91.736157 
L 36.644741 -90.815947 
L 36.630499 -89.895737 
L 36.619837 -88.975527 
L 36.61231 -88.055317 
L 36.607303 -87.135107 
L 36.604185 -86.214898 
L 36.602415 -85.294688 
L 36.601607 -84.374478 
L 36.60156 -83.454268 
L 36.602265 -82.534058 
L 36.603913 -81.613848 
L 36.606894 -80.693639 
L 36.611784 -79.773429 
L 36.619309 -78.853219 
L 36.630267 -77.933009 
L 36.645403 -77.012799 
L 36.665262 -76.09259 
L 36.690039 -75.17238 
L 36.719476 -74.25217 
L 36.75283 -73.33196 
L 36.788929 -72.41175 
L 36.826279 -71.49154 
L 36.863193 -70.571331 
L 36.897902 -69.651121 
L 36.928652 -68.730911 
L 36.953854 -67.810701 
L 36.972349 -66.890491 
L 36.983855 -65.970281 
L 36.989556 -65.050072 
L 36.992725 -64.129862 
L 36.999187 -63.209652 
L 37.017408 -62.289442 
L 37.058107 -61.369232 
L 37.133343 -60.449022 
L 37.255233 -59.528813 
L 37.434504 -58.608603 
L 37.679171 -57.688393 
L 37.993578 -56.768183 
L 38.377962 -55.847973 
L 38.828555 -54.927764 
L 39.338124 -54.007554 
L 39.896719 -53.087344 
L 40.492426 -52.167134 
L 41.111947 -51.246924 
L 41.740939 -50.326714 
L 42.364151 -49.406505 
L 42.965415 -48.486295 
L 43.527598 -47.566085 
L 44.032591 -46.645875 
L 44.461462 -45.725665 
L 44.794963 -44.805455 
L 45.014591 -43.885246 
L 45.104298 -42.965036 
L 45.052723 -42.044826 
L 44.855506 -41.124616 
L 44.51703 -40.204406 
L 44.050962 -39.284197 
L 43.479279 -38.363987 
L 42.82991 -37.443777 
L 42.133598 -36.523567 
L 41.42072 -35.603357 
L 40.718727 -34.683147 
L 40.050515 -33.762938 
L 39.433673 -32.842728 
L 38.880375 -31.922518 
L 38.397622 -31.002308 
L 37.987712 -30.082098 
L 37.648871 -29.161888 
L 37.376078 -28.241679 
L 37.162051 -27.321469 
L 36.998275 -26.401259 
L 36.875955 -25.481049 
L 36.786754 -24.560839 
L 36.723252 -23.640629 
L 36.679168 -22.72042 
L 36.649378 -21.80021 
L 36.629832 -20.88 
z
" id="m2dfebc93bf" style="stroke:#262626;stroke-width:0.75;"/>
    </defs>
    <g clip-path="url(#p974b3ed010)">
     <use style="fill:#7f9dd2;stroke:#262626;stroke-width:0.75;" x="0" xlink:href="#m2dfebc93bf" y="144"/>
    </g>
   </g>
   <g id="PolyCollection_2">
    <defs>
     <path d="M 73.804794 -21.94745 
L 73.795206 -21.94745 
L 73.78607 -22.954849 
L 73.76715 -23.962249 
L 73.733971 -24.969648 
L 73.680285 -25.977048 
L 73.596093 -26.984447 
L 73.469704 -27.991847 
L 73.290867 -28.999246 
L 73.047699 -30.006646 
L 72.722561 -31.014045 
L 72.297894 -32.021445 
L 71.765974 -33.028844 
L 71.12474 -34.036244 
L 70.362538 -35.043643 
L 69.46103 -36.051043 
L 68.427347 -37.058442 
L 67.322949 -38.065842 
L 66.256506 -39.073241 
L 65.350345 -40.080641 
L 64.707982 -41.08804 
L 64.389038 -42.09544 
L 64.390426 -43.102839 
L 64.650801 -44.110239 
L 65.087952 -45.117638 
L 65.64095 -46.125038 
L 66.278721 -47.132437 
L 66.980365 -48.139837 
L 67.724407 -49.147236 
L 68.488636 -50.154636 
L 69.239949 -51.162035 
L 69.933141 -52.169435 
L 70.538654 -53.176834 
L 71.065292 -54.184234 
L 71.541291 -55.191633 
L 71.975823 -56.199033 
L 72.349643 -57.206432 
L 72.640388 -58.213832 
L 72.846111 -59.221231 
L 72.986631 -60.228631 
L 73.091067 -61.23603 
L 73.182037 -62.24343 
L 73.265678 -63.250829 
L 73.336383 -64.258229 
L 73.390642 -65.265628 
L 73.433228 -66.273028 
L 73.471267 -67.280427 
L 73.507651 -68.287827 
L 73.541358 -69.295226 
L 73.571187 -70.302626 
L 73.598076 -71.310025 
L 73.624348 -72.317425 
L 73.650898 -73.324824 
L 73.675243 -74.332224 
L 73.692355 -75.339623 
L 73.699027 -76.347023 
L 73.698781 -77.354422 
L 73.699628 -78.361822 
L 73.705525 -79.369221 
L 73.713645 -80.376621 
L 73.720244 -81.38402 
L 73.724833 -82.39142 
L 73.728655 -83.398819 
L 73.732328 -84.406219 
L 73.734574 -85.413618 
L 73.731746 -86.421018 
L 73.72067 -87.428417 
L 73.703595 -88.435817 
L 73.687625 -89.443216 
L 73.677612 -90.450616 
L 73.672489 -91.458015 
L 73.669103 -92.465415 
L 73.665888 -93.472814 
L 73.661975 -94.480214 
L 73.656154 -95.487613 
L 73.648709 -96.495013 
L 73.642634 -97.502412 
L 73.640991 -98.509812 
L 73.643713 -99.517211 
L 73.648815 -100.524611 
L 73.656168 -101.53201 
L 73.668068 -102.53941 
L 73.685879 -103.546809 
L 73.707392 -104.554209 
L 73.727939 -105.561608 
L 73.743635 -106.569008 
L 73.753393 -107.576407 
L 73.758648 -108.583807 
L 73.761833 -109.591206 
L 73.76474 -110.598606 
L 73.767885 -111.606005 
L 73.771132 -112.613405 
L 73.774441 -113.620804 
L 73.77797 -114.628204 
L 73.781747 -115.635603 
L 73.785485 -116.643003 
L 73.788957 -117.650402 
L 73.792252 -118.657802 
L 73.795307 -119.665201 
L 73.797692 -120.672601 
L 73.799113 -121.68 
L 73.800887 -121.68 
L 73.800887 -121.68 
L 73.802308 -120.672601 
L 73.804693 -119.665201 
L 73.807748 -118.657802 
L 73.811043 -117.650402 
L 73.814515 -116.643003 
L 73.818253 -115.635603 
L 73.82203 -114.628204 
L 73.825559 -113.620804 
L 73.828868 -112.613405 
L 73.832115 -111.606005 
L 73.83526 -110.598606 
L 73.838167 -109.591206 
L 73.841352 -108.583807 
L 73.846607 -107.576407 
L 73.856365 -106.569008 
L 73.872061 -105.561608 
L 73.892608 -104.554209 
L 73.914121 -103.546809 
L 73.931932 -102.53941 
L 73.943832 -101.53201 
L 73.951185 -100.524611 
L 73.956287 -99.517211 
L 73.959009 -98.509812 
L 73.957366 -97.502412 
L 73.951291 -96.495013 
L 73.943846 -95.487613 
L 73.938025 -94.480214 
L 73.934112 -93.472814 
L 73.930897 -92.465415 
L 73.927511 -91.458015 
L 73.922388 -90.450616 
L 73.912375 -89.443216 
L 73.896405 -88.435817 
L 73.87933 -87.428417 
L 73.868254 -86.421018 
L 73.865426 -85.413618 
L 73.867672 -84.406219 
L 73.871345 -83.398819 
L 73.875167 -82.39142 
L 73.879756 -81.38402 
L 73.886355 -80.376621 
L 73.894475 -79.369221 
L 73.900372 -78.361822 
L 73.901219 -77.354422 
L 73.900973 -76.347023 
L 73.907645 -75.339623 
L 73.924757 -74.332224 
L 73.949102 -73.324824 
L 73.975652 -72.317425 
L 74.001924 -71.310025 
L 74.028813 -70.302626 
L 74.058642 -69.295226 
L 74.092349 -68.287827 
L 74.128733 -67.280427 
L 74.166772 -66.273028 
L 74.209358 -65.265628 
L 74.263617 -64.258229 
L 74.334322 -63.250829 
L 74.417963 -62.24343 
L 74.508933 -61.23603 
L 74.613369 -60.228631 
L 74.753889 -59.221231 
L 74.959612 -58.213832 
L 75.250357 -57.206432 
L 75.624177 -56.199033 
L 76.058709 -55.191633 
L 76.534708 -54.184234 
L 77.061346 -53.176834 
L 77.666859 -52.169435 
L 78.360051 -51.162035 
L 79.111364 -50.154636 
L 79.875593 -49.147236 
L 80.619635 -48.139837 
L 81.321279 -47.132437 
L 81.95905 -46.125038 
L 82.512048 -45.117638 
L 82.949199 -44.110239 
L 83.209574 -43.102839 
L 83.210962 -42.09544 
L 82.892018 -41.08804 
L 82.249655 -40.080641 
L 81.343494 -39.073241 
L 80.277051 -38.065842 
L 79.172653 -37.058442 
L 78.13897 -36.051043 
L 77.237462 -35.043643 
L 76.47526 -34.036244 
L 75.834026 -33.028844 
L 75.302106 -32.021445 
L 74.877439 -31.014045 
L 74.552301 -30.006646 
L 74.309133 -28.999246 
L 74.130296 -27.991847 
L 74.003907 -26.984447 
L 73.919715 -25.977048 
L 73.866029 -24.969648 
L 73.83285 -23.962249 
L 73.81393 -22.954849 
L 73.804794 -21.94745 
z
" id="me14fc0e872" style="stroke:#262626;stroke-width:0.75;"/>
    </defs>
    <g clip-path="url(#p974b3ed010)">
     <use style="fill:#1a1a66;stroke:#262626;stroke-width:0.75;" x="0" xlink:href="#me14fc0e872" y="144"/>
    </g>
   </g>
   <g id="PolyCollection_3">
    <defs>
     <path d="M 111.694807 -35.763655 
L 110.305193 -35.763655 
L 110.195141 -35.94724 
L 110.072453 -36.130826 
L 109.936527 -36.314411 
L 109.786865 -36.497996 
L 109.6231 -36.681581 
L 109.445009 -36.865166 
L 109.252535 -37.048751 
L 109.045791 -37.232337 
L 108.825077 -37.415922 
L 108.590872 -37.599507 
L 108.34384 -37.783092 
L 108.084811 -37.966677 
L 107.814774 -38.150262 
L 107.534847 -38.333848 
L 107.246253 -38.517433 
L 106.950287 -38.701018 
L 106.64828 -38.884603 
L 106.341557 -39.068188 
L 106.031403 -39.251773 
L 105.719021 -39.435359 
L 105.405499 -39.618944 
L 105.09178 -39.802529 
L 104.778639 -39.986114 
L 104.466666 -40.169699 
L 104.156261 -40.353284 
L 103.847637 -40.53687 
L 103.540835 -40.720455 
L 103.235742 -40.90404 
L 102.932127 -41.087625 
L 102.629677 -41.27121 
L 102.32804 -41.454795 
L 102.026872 -41.638381 
L 101.725884 -41.821966 
L 101.424885 -42.005551 
L 101.123822 -42.189136 
L 100.822814 -42.372721 
L 100.522173 -42.556306 
L 100.22242 -42.739892 
L 99.924286 -42.923477 
L 99.628701 -43.107062 
L 99.336777 -43.290647 
L 99.049775 -43.474232 
L 98.76907 -43.657817 
L 98.496106 -43.841403 
L 98.232354 -44.024988 
L 97.979264 -44.208573 
L 97.738224 -44.392158 
L 97.510526 -44.575743 
L 97.297336 -44.759328 
L 97.09968 -44.942914 
L 96.918435 -45.126499 
L 96.754337 -45.310084 
L 96.607993 -45.493669 
L 96.479914 -45.677254 
L 96.370541 -45.860839 
L 96.280289 -46.044425 
L 96.209585 -46.22801 
L 96.158907 -46.411595 
L 96.12882 -46.59518 
L 96.12 -46.778765 
L 96.133253 -46.96235 
L 96.169517 -47.145936 
L 96.229852 -47.329521 
L 96.315417 -47.513106 
L 96.42743 -47.696691 
L 96.567121 -47.880276 
L 96.735669 -48.063861 
L 96.934138 -48.247447 
L 97.163403 -48.431032 
L 97.424077 -48.614617 
L 97.716453 -48.798202 
L 98.040433 -48.981787 
L 98.395487 -49.165372 
L 98.780617 -49.348958 
L 99.194334 -49.532543 
L 99.634663 -49.716128 
L 100.099153 -49.899713 
L 100.584915 -50.083298 
L 101.088669 -50.266883 
L 101.606809 -50.450469 
L 102.135478 -50.634054 
L 102.670652 -50.817639 
L 103.208228 -51.001224 
L 103.744112 -51.184809 
L 104.274313 -51.368394 
L 104.795021 -51.55198 
L 105.302683 -51.735565 
L 105.794069 -51.91915 
L 106.266324 -52.102735 
L 106.717009 -52.28632 
L 107.144123 -52.469905 
L 107.54612 -52.653491 
L 107.921906 -52.837076 
L 108.270823 -53.020661 
L 108.592633 -53.204246 
L 108.887479 -53.387831 
L 109.155849 -53.571416 
L 109.398532 -53.755002 
L 109.616569 -53.938587 
L 112.383431 -53.938587 
L 112.383431 -53.938587 
L 112.601468 -53.755002 
L 112.844151 -53.571416 
L 113.112521 -53.387831 
L 113.407367 -53.204246 
L 113.729177 -53.020661 
L 114.078094 -52.837076 
L 114.45388 -52.653491 
L 114.855877 -52.469905 
L 115.282991 -52.28632 
L 115.733676 -52.102735 
L 116.205931 -51.91915 
L 116.697317 -51.735565 
L 117.204979 -51.55198 
L 117.725687 -51.368394 
L 118.255888 -51.184809 
L 118.791772 -51.001224 
L 119.329348 -50.817639 
L 119.864522 -50.634054 
L 120.393191 -50.450469 
L 120.911331 -50.266883 
L 121.415085 -50.083298 
L 121.900847 -49.899713 
L 122.365337 -49.716128 
L 122.805666 -49.532543 
L 123.219383 -49.348958 
L 123.604513 -49.165372 
L 123.959567 -48.981787 
L 124.283547 -48.798202 
L 124.575923 -48.614617 
L 124.836597 -48.431032 
L 125.065862 -48.247447 
L 125.264331 -48.063861 
L 125.432879 -47.880276 
L 125.57257 -47.696691 
L 125.684583 -47.513106 
L 125.770148 -47.329521 
L 125.830483 -47.145936 
L 125.866747 -46.96235 
L 125.88 -46.778765 
L 125.87118 -46.59518 
L 125.841093 -46.411595 
L 125.790415 -46.22801 
L 125.719711 -46.044425 
L 125.629459 -45.860839 
L 125.520086 -45.677254 
L 125.392007 -45.493669 
L 125.245663 -45.310084 
L 125.081565 -45.126499 
L 124.90032 -44.942914 
L 124.702664 -44.759328 
L 124.489474 -44.575743 
L 124.261776 -44.392158 
L 124.020736 -44.208573 
L 123.767646 -44.024988 
L 123.503894 -43.841403 
L 123.23093 -43.657817 
L 122.950225 -43.474232 
L 122.663223 -43.290647 
L 122.371299 -43.107062 
L 122.075714 -42.923477 
L 121.77758 -42.739892 
L 121.477827 -42.556306 
L 121.177186 -42.372721 
L 120.876178 -42.189136 
L 120.575115 -42.005551 
L 120.274116 -41.821966 
L 119.973128 -41.638381 
L 119.67196 -41.454795 
L 119.370323 -41.27121 
L 119.067873 -41.087625 
L 118.764258 -40.90404 
L 118.459165 -40.720455 
L 118.152363 -40.53687 
L 117.843739 -40.353284 
L 117.533334 -40.169699 
L 117.221361 -39.986114 
L 116.90822 -39.802529 
L 116.594501 -39.618944 
L 116.280979 -39.435359 
L 115.968597 -39.251773 
L 115.658443 -39.068188 
L 115.35172 -38.884603 
L 115.049713 -38.701018 
L 114.753747 -38.517433 
L 114.465153 -38.333848 
L 114.185226 -38.150262 
L 113.915189 -37.966677 
L 113.65616 -37.783092 
L 113.409128 -37.599507 
L 113.174923 -37.415922 
L 112.954209 -37.232337 
L 112.747465 -37.048751 
L 112.554991 -36.865166 
L 112.3769 -36.681581 
L 112.213135 -36.497996 
L 112.063473 -36.314411 
L 111.927547 -36.130826 
L 111.804859 -35.94724 
L 111.694807 -35.763655 
z
" id="md29907abd5" style="stroke:#262626;stroke-width:0.75;"/>
    </defs>
    <g clip-path="url(#p974b3ed010)">
     <use style="fill:#cc8733;stroke:#262626;stroke-width:0.75;" x="0" xlink:href="#md29907abd5" y="144"/>
    </g>
   </g>
   <g id="line2d_1">
    <path clip-path="url(#p974b3ed010)" d="M 36.6 114.834431 
L 36.6 88.483602 
" style="fill:none;stroke:#262626;stroke-linecap:round;stroke-width:0.75;"/>
   </g>
   <g id="line2d_2">
    <path clip-path="url(#p974b3ed010)" d="M 36.6 103.952695 
L 36.6 96.021031 
" style="fill:none;stroke:#262626;stroke-linecap:round;stroke-width:2.25;"/>
   </g>
   <g id="line2d_3">
    <path clip-path="url(#p974b3ed010)" d="M 73.8 116.985222 
L 73.8 81.441616 
" style="fill:none;stroke:#262626;stroke-linecap:round;stroke-width:0.75;"/>
   </g>
   <g id="line2d_4">
    <path clip-path="url(#p974b3ed010)" d="M 73.8 103.921669 
L 73.8 94.917462 
" style="fill:none;stroke:#262626;stroke-linecap:round;stroke-width:2.25;"/>
   </g>
   <g id="line2d_5">
    <path clip-path="url(#p974b3ed010)" d="M 111 103.257964 
L 111 95.039794 
" style="fill:none;stroke:#262626;stroke-linecap:round;stroke-width:0.75;"/>
   </g>
   <g id="line2d_6">
    <path clip-path="url(#p974b3ed010)" d="M 111 99.422801 
L 111 95.039794 
" style="fill:none;stroke:#262626;stroke-linecap:round;stroke-width:2.25;"/>
   </g>
   <g id="patch_3">
    <path d="M 18 128.16 
L 18 17.28 
" style="fill:none;stroke:#262626;stroke-linecap:square;stroke-linejoin:miter;stroke-width:0.8;"/>
   </g>
   <g id="patch_4">
    <path d="M 18 128.16 
L 129.6 128.16 
" style="fill:none;stroke:#262626;stroke-linecap:square;stroke-linejoin:miter;stroke-width:0.8;"/>
   </g>
   <g id="PathCollection_1">
    <defs>
     <path d="M 0 0.75 
C 0.198902 0.75 0.389685 0.670975 0.53033 0.53033 
C 0.670975 0.389685 0.75 0.198902 0.75 0 
C 0.75 -0.198902 0.670975 -0.389685 0.53033 -0.53033 
C 0.389685 -0.670975 0.198902 -0.75 0 -0.75 
C -0.198902 -0.75 -0.389685 -0.670975 -0.53033 -0.53033 
C -0.670975 -0.389685 -0.75 -0.198902 -0.75 0 
C -0.75 0.198902 -0.670975 0.389685 -0.53033 0.53033 
C -0.389685 0.670975 -0.198902 0.75 0 0.75 
z
" id="m94db4e0c4e" style="stroke:#262626;"/>
    </defs>
    <g clip-path="url(#p974b3ed010)">
     <use style="fill:#ffffff;stroke:#262626;" x="36.6" xlink:href="#m94db4e0c4e" y="100.567029"/>
    </g>
   </g>
   <g id="PathCollection_2">
    <g clip-path="url(#p974b3ed010)">
     <use style="fill:#ffffff;stroke:#262626;" x="73.8" xlink:href="#m94db4e0c4e" y="99.924017"/>
    </g>
   </g>
   <g id="PathCollection_3">
    <g clip-path="url(#p974b3ed010)">
     <use style="fill:#ffffff;stroke:#262626;" x="111" xlink:href="#m94db4e0c4e" y="98.591697"/>
    </g>
   </g>
   <g id="text_8">
    <!-- Bottom 10% -->
    <g style="fill:#262626;" transform="translate(8.435625 11.28)scale(0.24 -0.24)">
     <defs>
      <path d="M 469 0 
L 469 4581 
L 2188 4581 
Q 2713 4581 3030 4442 
Q 3347 4303 3526 4014 
Q 3706 3725 3706 3409 
Q 3706 3116 3547 2856 
Q 3388 2597 3066 2438 
Q 3481 2316 3704 2022 
Q 3928 1728 3928 1328 
Q 3928 1006 3792 729 
Q 3656 453 3456 303 
Q 3256 153 2954 76 
Q 2653 0 2216 0 
L 469 0 
z
M 1075 2656 
L 2066 2656 
Q 2469 2656 2644 2709 
Q 2875 2778 2992 2937 
Q 3109 3097 3109 3338 
Q 3109 3566 3000 3739 
Q 2891 3913 2687 3977 
Q 2484 4041 1991 4041 
L 1075 4041 
L 1075 2656 
z
M 1075 541 
L 2216 541 
Q 2509 541 2628 563 
Q 2838 600 2978 687 
Q 3119 775 3209 942 
Q 3300 1109 3300 1328 
Q 3300 1584 3169 1773 
Q 3038 1963 2805 2039 
Q 2572 2116 2134 2116 
L 1075 2116 
L 1075 541 
z
" id="ArialMT-42" transform="scale(0.015625)"/>
      <path d="M 422 0 
L 422 3319 
L 925 3319 
L 925 2853 
Q 1081 3097 1340 3245 
Q 1600 3394 1931 3394 
Q 2300 3394 2536 3241 
Q 2772 3088 2869 2813 
Q 3263 3394 3894 3394 
Q 4388 3394 4653 3120 
Q 4919 2847 4919 2278 
L 4919 0 
L 4359 0 
L 4359 2091 
Q 4359 2428 4304 2576 
Q 4250 2725 4106 2815 
Q 3963 2906 3769 2906 
Q 3419 2906 3187 2673 
Q 2956 2441 2956 1928 
L 2956 0 
L 2394 0 
L 2394 2156 
Q 2394 2531 2256 2718 
Q 2119 2906 1806 2906 
Q 1569 2906 1367 2781 
Q 1166 2656 1075 2415 
Q 984 2175 984 1722 
L 984 0 
L 422 0 
z
" id="ArialMT-6d" transform="scale(0.015625)"/>
      <path id="ArialMT-20" transform="scale(0.015625)"/>
      <path d="M 2384 0 
L 1822 0 
L 1822 3584 
Q 1619 3391 1289 3197 
Q 959 3003 697 2906 
L 697 3450 
Q 1169 3672 1522 3987 
Q 1875 4303 2022 4600 
L 2384 4600 
L 2384 0 
z
" id="ArialMT-31" transform="scale(0.015625)"/>
      <path d="M 372 3481 
Q 372 3972 619 4315 
Q 866 4659 1334 4659 
Q 1766 4659 2048 4351 
Q 2331 4044 2331 3447 
Q 2331 2866 2045 2552 
Q 1759 2238 1341 2238 
Q 925 2238 648 2547 
Q 372 2856 372 3481 
z
M 1350 4272 
Q 1141 4272 1002 4090 
Q 863 3909 863 3425 
Q 863 2984 1003 2804 
Q 1144 2625 1350 2625 
Q 1563 2625 1702 2806 
Q 1841 2988 1841 3469 
Q 1841 3913 1700 4092 
Q 1559 4272 1350 4272 
z
M 1353 -169 
L 3859 4659 
L 4316 4659 
L 1819 -169 
L 1353 -169 
z
M 3334 1075 
Q 3334 1569 3581 1911 
Q 3828 2253 4300 2253 
Q 4731 2253 5014 1945 
Q 5297 1638 5297 1041 
Q 5297 459 5011 145 
Q 4725 -169 4303 -169 
Q 3888 -169 3611 142 
Q 3334 453 3334 1075 
z
M 4316 1866 
Q 4103 1866 3964 1684 
Q 3825 1503 3825 1019 
Q 3825 581 3965 400 
Q 4106 219 4313 219 
Q 4528 219 4667 400 
Q 4806 581 4806 1063 
Q 4806 1506 4665 1686 
Q 4525 1866 4316 1866 
z
" id="ArialMT-25" transform="scale(0.015625)"/>
     </defs>
     <use xlink:href="#ArialMT-42"/>
     <use x="66.699219" xlink:href="#ArialMT-6f"/>
     <use x="122.314453" xlink:href="#ArialMT-74"/>
     <use x="150.097656" xlink:href="#ArialMT-74"/>
     <use x="177.880859" xlink:href="#ArialMT-6f"/>
     <use x="233.496094" xlink:href="#ArialMT-6d"/>
     <use x="316.796875" xlink:href="#ArialMT-20"/>
     <use x="344.580078" xlink:href="#ArialMT-31"/>
     <use x="400.195312" xlink:href="#ArialMT-30"/>
     <use x="455.810547" xlink:href="#ArialMT-25"/>
    </g>
   </g>
  </g>
 </g>
 <defs>
  <clipPath id="p974b3ed010">
   <rect height="110.88" width="111.6" x="18" y="17.28"/>
  </clipPath>
 </defs>
</svg>
