<?xml version="1.0" encoding="utf-8" standalone="no"?>
<!DOCTYPE svg PUBLIC "-//W3C//DTD SVG 1.1//EN"
  "http://www.w3.org/Graphics/SVG/1.1/DTD/svg11.dtd">
<svg height="144pt" version="1.1" viewBox="0 0 144 144" width="144pt" xmlns="http://www.w3.org/2000/svg" xmlns:xlink="http://www.w3.org/1999/xlink">
 <metadata>
  <rdf:RDF xmlns:cc="http://creativecommons.org/ns#" xmlns:dc="http://purl.org/dc/elements/1.1/" xmlns:rdf="http://www.w3.org/1999/02/22-rdf-syntax-ns#">
   <cc:Work>
    <dc:type rdf:resource="http://purl.org/dc/dcmitype/StillImage"/>
    <dc:date>2023-01-28T06:15:36.331277</dc:date>
    <dc:format>image/svg+xml</dc:format>
    <dc:creator>
     <cc:Agent>
      <dc:title>Matplotlib v3.4.2, https://matplotlib.org/</dc:title>
     </cc:Agent>
    </dc:creator>
   </cc:Work>
  </rdf:RDF>
 </metadata>
 <defs>
  <style type="text/css">*{stroke-linecap:butt;stroke-linejoin:round;}</style>
 </defs>
 <g id="figure_1">
  <g id="patch_1">
   <path d="M 0 144 
L 144 144 
L 144 0 
L 0 0 
z
" style="fill:#ffffff;"/>
  </g>
  <g id="axes_1">
   <g id="patch_2">
    <path d="M 18 128.16 
L 129.6 128.16 
L 129.6 17.28 
L 18 17.28 
z
" style="fill:#ffffff;"/>
   </g>
   <g id="matplotlib.axis_1">
    <g id="xtick_1">
     <g id="text_1">
      <!-- Original -->
      <g style="fill:#262626;" transform="translate(41.78125 204.0725)rotate(-90)scale(0.2 -0.2)">
       <defs>
        <path d="M 309 2231 
Q 309 3372 921 4017 
Q 1534 4663 2503 4663 
Q 3138 4663 3647 4359 
Q 4156 4056 4423 3514 
Q 4691 2972 4691 2284 
Q 4691 1588 4409 1038 
Q 4128 488 3612 205 
Q 3097 -78 2500 -78 
Q 1853 -78 1343 234 
Q 834 547 571 1087 
Q 309 1628 309 2231 
z
M 934 2222 
Q 934 1394 1379 917 
Q 1825 441 2497 441 
Q 3181 441 3623 922 
Q 4066 1403 4066 2288 
Q 4066 2847 3877 3264 
Q 3688 3681 3323 3911 
Q 2959 4141 2506 4141 
Q 1863 4141 1398 3698 
Q 934 3256 934 2222 
z
" id="ArialMT-4f" transform="scale(0.015625)"/>
        <path d="M 416 0 
L 416 3319 
L 922 3319 
L 922 2816 
Q 1116 3169 1280 3281 
Q 1444 3394 1641 3394 
Q 1925 3394 2219 3213 
L 2025 2691 
Q 1819 2813 1613 2813 
Q 1428 2813 1281 2702 
Q 1134 2591 1072 2394 
Q 978 2094 978 1738 
L 978 0 
L 416 0 
z
" id="ArialMT-72" transform="scale(0.015625)"/>
        <path d="M 425 3934 
L 425 4581 
L 988 4581 
L 988 3934 
L 425 3934 
z
M 425 0 
L 425 3319 
L 988 3319 
L 988 0 
L 425 0 
z
" id="ArialMT-69" transform="scale(0.015625)"/>
        <path d="M 319 -275 
L 866 -356 
Q 900 -609 1056 -725 
Q 1266 -881 1628 -881 
Q 2019 -881 2231 -725 
Q 2444 -569 2519 -288 
Q 2563 -116 2559 434 
Q 2191 0 1641 0 
Q 956 0 581 494 
Q 206 988 206 1678 
Q 206 2153 378 2554 
Q 550 2956 876 3175 
Q 1203 3394 1644 3394 
Q 2231 3394 2613 2919 
L 2613 3319 
L 3131 3319 
L 3131 450 
Q 3131 -325 2973 -648 
Q 2816 -972 2473 -1159 
Q 2131 -1347 1631 -1347 
Q 1038 -1347 672 -1080 
Q 306 -813 319 -275 
z
M 784 1719 
Q 784 1066 1043 766 
Q 1303 466 1694 466 
Q 2081 466 2343 764 
Q 2606 1063 2606 1700 
Q 2606 2309 2336 2618 
Q 2066 2928 1684 2928 
Q 1309 2928 1046 2623 
Q 784 2319 784 1719 
z
" id="ArialMT-67" transform="scale(0.015625)"/>
        <path d="M 422 0 
L 422 3319 
L 928 3319 
L 928 2847 
Q 1294 3394 1984 3394 
Q 2284 3394 2536 3286 
Q 2788 3178 2913 3003 
Q 3038 2828 3088 2588 
Q 3119 2431 3119 2041 
L 3119 0 
L 2556 0 
L 2556 2019 
Q 2556 2363 2490 2533 
Q 2425 2703 2258 2804 
Q 2091 2906 1866 2906 
Q 1506 2906 1245 2678 
Q 984 2450 984 1813 
L 984 0 
L 422 0 
z
" id="ArialMT-6e" transform="scale(0.015625)"/>
        <path d="M 2588 409 
Q 2275 144 1986 34 
Q 1697 -75 1366 -75 
Q 819 -75 525 192 
Q 231 459 231 875 
Q 231 1119 342 1320 
Q 453 1522 633 1644 
Q 813 1766 1038 1828 
Q 1203 1872 1538 1913 
Q 2219 1994 2541 2106 
Q 2544 2222 2544 2253 
Q 2544 2597 2384 2738 
Q 2169 2928 1744 2928 
Q 1347 2928 1158 2789 
Q 969 2650 878 2297 
L 328 2372 
Q 403 2725 575 2942 
Q 747 3159 1072 3276 
Q 1397 3394 1825 3394 
Q 2250 3394 2515 3294 
Q 2781 3194 2906 3042 
Q 3031 2891 3081 2659 
Q 3109 2516 3109 2141 
L 3109 1391 
Q 3109 606 3145 398 
Q 3181 191 3288 0 
L 2700 0 
Q 2613 175 2588 409 
z
M 2541 1666 
Q 2234 1541 1622 1453 
Q 1275 1403 1131 1340 
Q 988 1278 909 1158 
Q 831 1038 831 891 
Q 831 666 1001 516 
Q 1172 366 1500 366 
Q 1825 366 2078 508 
Q 2331 650 2450 897 
Q 2541 1088 2541 1459 
L 2541 1666 
z
" id="ArialMT-61" transform="scale(0.015625)"/>
        <path d="M 409 0 
L 409 4581 
L 972 4581 
L 972 0 
L 409 0 
z
" id="ArialMT-6c" transform="scale(0.015625)"/>
       </defs>
       <use xlink:href="#ArialMT-4f"/>
       <use x="77.783203" xlink:href="#ArialMT-72"/>
       <use x="111.083984" xlink:href="#ArialMT-69"/>
       <use x="133.300781" xlink:href="#ArialMT-67"/>
       <use x="188.916016" xlink:href="#ArialMT-69"/>
       <use x="211.132812" xlink:href="#ArialMT-6e"/>
       <use x="266.748047" xlink:href="#ArialMT-61"/>
       <use x="322.363281" xlink:href="#ArialMT-6c"/>
      </g>
     </g>
    </g>
    <g id="xtick_2">
     <g id="text_2">
      <!-- Mutated -->
      <g style="fill:#262626;" transform="translate(78.970312 207.419375)rotate(-90)scale(0.2 -0.2)">
       <defs>
        <path d="M 475 0 
L 475 4581 
L 1388 4581 
L 2472 1338 
Q 2622 884 2691 659 
Q 2769 909 2934 1394 
L 4031 4581 
L 4847 4581 
L 4847 0 
L 4263 0 
L 4263 3834 
L 2931 0 
L 2384 0 
L 1059 3900 
L 1059 0 
L 475 0 
z
" id="ArialMT-4d" transform="scale(0.015625)"/>
        <path d="M 2597 0 
L 2597 488 
Q 2209 -75 1544 -75 
Q 1250 -75 995 37 
Q 741 150 617 320 
Q 494 491 444 738 
Q 409 903 409 1263 
L 409 3319 
L 972 3319 
L 972 1478 
Q 972 1038 1006 884 
Q 1059 663 1231 536 
Q 1403 409 1656 409 
Q 1909 409 2131 539 
Q 2353 669 2445 892 
Q 2538 1116 2538 1541 
L 2538 3319 
L 3100 3319 
L 3100 0 
L 2597 0 
z
" id="ArialMT-75" transform="scale(0.015625)"/>
        <path d="M 1650 503 
L 1731 6 
Q 1494 -44 1306 -44 
Q 1000 -44 831 53 
Q 663 150 594 308 
Q 525 466 525 972 
L 525 2881 
L 113 2881 
L 113 3319 
L 525 3319 
L 525 4141 
L 1084 4478 
L 1084 3319 
L 1650 3319 
L 1650 2881 
L 1084 2881 
L 1084 941 
Q 1084 700 1114 631 
Q 1144 563 1211 522 
Q 1278 481 1403 481 
Q 1497 481 1650 503 
z
" id="ArialMT-74" transform="scale(0.015625)"/>
        <path d="M 2694 1069 
L 3275 997 
Q 3138 488 2766 206 
Q 2394 -75 1816 -75 
Q 1088 -75 661 373 
Q 234 822 234 1631 
Q 234 2469 665 2931 
Q 1097 3394 1784 3394 
Q 2450 3394 2872 2941 
Q 3294 2488 3294 1666 
Q 3294 1616 3291 1516 
L 816 1516 
Q 847 969 1125 678 
Q 1403 388 1819 388 
Q 2128 388 2347 550 
Q 2566 713 2694 1069 
z
M 847 1978 
L 2700 1978 
Q 2663 2397 2488 2606 
Q 2219 2931 1791 2931 
Q 1403 2931 1139 2672 
Q 875 2413 847 1978 
z
" id="ArialMT-65" transform="scale(0.015625)"/>
        <path d="M 2575 0 
L 2575 419 
Q 2259 -75 1647 -75 
Q 1250 -75 917 144 
Q 584 363 401 755 
Q 219 1147 219 1656 
Q 219 2153 384 2558 
Q 550 2963 881 3178 
Q 1213 3394 1622 3394 
Q 1922 3394 2156 3267 
Q 2391 3141 2538 2938 
L 2538 4581 
L 3097 4581 
L 3097 0 
L 2575 0 
z
M 797 1656 
Q 797 1019 1065 703 
Q 1334 388 1700 388 
Q 2069 388 2326 689 
Q 2584 991 2584 1609 
Q 2584 2291 2321 2609 
Q 2059 2928 1675 2928 
Q 1300 2928 1048 2622 
Q 797 2316 797 1656 
z
" id="ArialMT-64" transform="scale(0.015625)"/>
       </defs>
       <use xlink:href="#ArialMT-4d"/>
       <use x="83.300781" xlink:href="#ArialMT-75"/>
       <use x="138.916016" xlink:href="#ArialMT-74"/>
       <use x="166.699219" xlink:href="#ArialMT-61"/>
       <use x="222.314453" xlink:href="#ArialMT-74"/>
       <use x="250.097656" xlink:href="#ArialMT-65"/>
       <use x="305.712891" xlink:href="#ArialMT-64"/>
      </g>
     </g>
    </g>
    <g id="xtick_3">
     <g id="text_3">
      <!-- STORM -->
      <g style="fill:#262626;" transform="translate(116.170312 207.025625)rotate(-90)scale(0.2 -0.2)">
       <defs>
        <path d="M 288 1472 
L 859 1522 
Q 900 1178 1048 958 
Q 1197 738 1509 602 
Q 1822 466 2213 466 
Q 2559 466 2825 569 
Q 3091 672 3220 851 
Q 3350 1031 3350 1244 
Q 3350 1459 3225 1620 
Q 3100 1781 2813 1891 
Q 2628 1963 1997 2114 
Q 1366 2266 1113 2400 
Q 784 2572 623 2826 
Q 463 3081 463 3397 
Q 463 3744 659 4045 
Q 856 4347 1234 4503 
Q 1613 4659 2075 4659 
Q 2584 4659 2973 4495 
Q 3363 4331 3572 4012 
Q 3781 3694 3797 3291 
L 3216 3247 
Q 3169 3681 2898 3903 
Q 2628 4125 2100 4125 
Q 1550 4125 1298 3923 
Q 1047 3722 1047 3438 
Q 1047 3191 1225 3031 
Q 1400 2872 2139 2705 
Q 2878 2538 3153 2413 
Q 3553 2228 3743 1945 
Q 3934 1663 3934 1294 
Q 3934 928 3725 604 
Q 3516 281 3123 101 
Q 2731 -78 2241 -78 
Q 1619 -78 1198 103 
Q 778 284 539 648 
Q 300 1013 288 1472 
z
" id="ArialMT-53" transform="scale(0.015625)"/>
        <path d="M 1659 0 
L 1659 4041 
L 150 4041 
L 150 4581 
L 3781 4581 
L 3781 4041 
L 2266 4041 
L 2266 0 
L 1659 0 
z
" id="ArialMT-54" transform="scale(0.015625)"/>
        <path d="M 503 0 
L 503 4581 
L 2534 4581 
Q 3147 4581 3465 4457 
Q 3784 4334 3975 4021 
Q 4166 3709 4166 3331 
Q 4166 2844 3850 2509 
Q 3534 2175 2875 2084 
Q 3116 1969 3241 1856 
Q 3506 1613 3744 1247 
L 4541 0 
L 3778 0 
L 3172 953 
Q 2906 1366 2734 1584 
Q 2563 1803 2427 1890 
Q 2291 1978 2150 2013 
Q 2047 2034 1813 2034 
L 1109 2034 
L 1109 0 
L 503 0 
z
M 1109 2559 
L 2413 2559 
Q 2828 2559 3062 2645 
Q 3297 2731 3419 2920 
Q 3541 3109 3541 3331 
Q 3541 3656 3305 3865 
Q 3069 4075 2559 4075 
L 1109 4075 
L 1109 2559 
z
" id="ArialMT-52" transform="scale(0.015625)"/>
       </defs>
       <use xlink:href="#ArialMT-53"/>
       <use x="66.699219" xlink:href="#ArialMT-54"/>
       <use x="126.033203" xlink:href="#ArialMT-4f"/>
       <use x="203.816406" xlink:href="#ArialMT-52"/>
       <use x="276.033203" xlink:href="#ArialMT-4d"/>
      </g>
     </g>
    </g>
    <g id="text_4">
     <!-- Method -->
     <g style="fill:#262626;" transform="translate(40.448437 225.735)scale(0.2 -0.2)">
      <defs>
       <path d="M 422 0 
L 422 4581 
L 984 4581 
L 984 2938 
Q 1378 3394 1978 3394 
Q 2347 3394 2619 3248 
Q 2891 3103 3008 2847 
Q 3125 2591 3125 2103 
L 3125 0 
L 2563 0 
L 2563 2103 
Q 2563 2525 2380 2717 
Q 2197 2909 1863 2909 
Q 1613 2909 1392 2779 
Q 1172 2650 1078 2428 
Q 984 2206 984 1816 
L 984 0 
L 422 0 
z
" id="ArialMT-68" transform="scale(0.015625)"/>
       <path d="M 213 1659 
Q 213 2581 725 3025 
Q 1153 3394 1769 3394 
Q 2453 3394 2887 2945 
Q 3322 2497 3322 1706 
Q 3322 1066 3130 698 
Q 2938 331 2570 128 
Q 2203 -75 1769 -75 
Q 1072 -75 642 372 
Q 213 819 213 1659 
z
M 791 1659 
Q 791 1022 1069 705 
Q 1347 388 1769 388 
Q 2188 388 2466 706 
Q 2744 1025 2744 1678 
Q 2744 2294 2464 2611 
Q 2184 2928 1769 2928 
Q 1347 2928 1069 2612 
Q 791 2297 791 1659 
z
" id="ArialMT-6f" transform="scale(0.015625)"/>
      </defs>
      <use xlink:href="#ArialMT-4d"/>
      <use x="83.300781" xlink:href="#ArialMT-65"/>
      <use x="138.916016" xlink:href="#ArialMT-74"/>
      <use x="166.699219" xlink:href="#ArialMT-68"/>
      <use x="222.314453" xlink:href="#ArialMT-6f"/>
      <use x="277.929688" xlink:href="#ArialMT-64"/>
     </g>
    </g>
   </g>
   <g id="matplotlib.axis_2">
    <g id="ytick_1">
     <g id="text_5">
      <!-- 0.0 -->
      <g style="fill:#262626;" transform="translate(-16.8 97.922909)scale(0.2 -0.2)">
       <defs>
        <path d="M 266 2259 
Q 266 3072 433 3567 
Q 600 4063 929 4331 
Q 1259 4600 1759 4600 
Q 2128 4600 2406 4451 
Q 2684 4303 2865 4023 
Q 3047 3744 3150 3342 
Q 3253 2941 3253 2259 
Q 3253 1453 3087 958 
Q 2922 463 2592 192 
Q 2263 -78 1759 -78 
Q 1097 -78 719 397 
Q 266 969 266 2259 
z
M 844 2259 
Q 844 1131 1108 757 
Q 1372 384 1759 384 
Q 2147 384 2411 759 
Q 2675 1134 2675 2259 
Q 2675 3391 2411 3762 
Q 2147 4134 1753 4134 
Q 1366 4134 1134 3806 
Q 844 3388 844 2259 
z
" id="ArialMT-30" transform="scale(0.015625)"/>
        <path d="M 581 0 
L 581 641 
L 1222 641 
L 1222 0 
L 581 0 
z
" id="ArialMT-2e" transform="scale(0.015625)"/>
       </defs>
       <use xlink:href="#ArialMT-30"/>
       <use x="55.615234" xlink:href="#ArialMT-2e"/>
       <use x="83.398438" xlink:href="#ArialMT-30"/>
      </g>
     </g>
    </g>
    <g id="ytick_2">
     <g id="text_6">
      <!-- 2.5 -->
      <g style="fill:#262626;" transform="translate(-16.8 35.845261)scale(0.2 -0.2)">
       <defs>
        <path d="M 3222 541 
L 3222 0 
L 194 0 
Q 188 203 259 391 
Q 375 700 629 1000 
Q 884 1300 1366 1694 
Q 2113 2306 2375 2664 
Q 2638 3022 2638 3341 
Q 2638 3675 2398 3904 
Q 2159 4134 1775 4134 
Q 1369 4134 1125 3890 
Q 881 3647 878 3216 
L 300 3275 
Q 359 3922 746 4261 
Q 1134 4600 1788 4600 
Q 2447 4600 2831 4234 
Q 3216 3869 3216 3328 
Q 3216 3053 3103 2787 
Q 2991 2522 2730 2228 
Q 2469 1934 1863 1422 
Q 1356 997 1212 845 
Q 1069 694 975 541 
L 3222 541 
z
" id="ArialMT-32" transform="scale(0.015625)"/>
        <path d="M 266 1200 
L 856 1250 
Q 922 819 1161 601 
Q 1400 384 1738 384 
Q 2144 384 2425 690 
Q 2706 997 2706 1503 
Q 2706 1984 2436 2262 
Q 2166 2541 1728 2541 
Q 1456 2541 1237 2417 
Q 1019 2294 894 2097 
L 366 2166 
L 809 4519 
L 3088 4519 
L 3088 3981 
L 1259 3981 
L 1013 2750 
Q 1425 3038 1878 3038 
Q 2478 3038 2890 2622 
Q 3303 2206 3303 1553 
Q 3303 931 2941 478 
Q 2500 -78 1738 -78 
Q 1113 -78 717 272 
Q 322 622 266 1200 
z
" id="ArialMT-35" transform="scale(0.015625)"/>
       </defs>
       <use xlink:href="#ArialMT-32"/>
       <use x="55.615234" xlink:href="#ArialMT-2e"/>
       <use x="83.398438" xlink:href="#ArialMT-35"/>
      </g>
     </g>
    </g>
    <g id="text_7">
     <!-- Predictions -->
     <g style="fill:#262626;" transform="translate(-24.775 122.185625)rotate(-90)scale(0.2 -0.2)">
      <defs>
       <path d="M 494 0 
L 494 4581 
L 2222 4581 
Q 2678 4581 2919 4538 
Q 3256 4481 3484 4323 
Q 3713 4166 3852 3881 
Q 3991 3597 3991 3256 
Q 3991 2672 3619 2267 
Q 3247 1863 2275 1863 
L 1100 1863 
L 1100 0 
L 494 0 
z
M 1100 2403 
L 2284 2403 
Q 2872 2403 3119 2622 
Q 3366 2841 3366 3238 
Q 3366 3525 3220 3729 
Q 3075 3934 2838 4000 
Q 2684 4041 2272 4041 
L 1100 4041 
L 1100 2403 
z
" id="ArialMT-50" transform="scale(0.015625)"/>
       <path d="M 2588 1216 
L 3141 1144 
Q 3050 572 2676 248 
Q 2303 -75 1759 -75 
Q 1078 -75 664 370 
Q 250 816 250 1647 
Q 250 2184 428 2587 
Q 606 2991 970 3192 
Q 1334 3394 1763 3394 
Q 2303 3394 2647 3120 
Q 2991 2847 3088 2344 
L 2541 2259 
Q 2463 2594 2264 2762 
Q 2066 2931 1784 2931 
Q 1359 2931 1093 2626 
Q 828 2322 828 1663 
Q 828 994 1084 691 
Q 1341 388 1753 388 
Q 2084 388 2306 591 
Q 2528 794 2588 1216 
z
" id="ArialMT-63" transform="scale(0.015625)"/>
       <path d="M 197 991 
L 753 1078 
Q 800 744 1014 566 
Q 1228 388 1613 388 
Q 2000 388 2187 545 
Q 2375 703 2375 916 
Q 2375 1106 2209 1216 
Q 2094 1291 1634 1406 
Q 1016 1563 777 1677 
Q 538 1791 414 1992 
Q 291 2194 291 2438 
Q 291 2659 392 2848 
Q 494 3038 669 3163 
Q 800 3259 1026 3326 
Q 1253 3394 1513 3394 
Q 1903 3394 2198 3281 
Q 2494 3169 2634 2976 
Q 2775 2784 2828 2463 
L 2278 2388 
Q 2241 2644 2061 2787 
Q 1881 2931 1553 2931 
Q 1166 2931 1000 2803 
Q 834 2675 834 2503 
Q 834 2394 903 2306 
Q 972 2216 1119 2156 
Q 1203 2125 1616 2013 
Q 2213 1853 2448 1751 
Q 2684 1650 2818 1456 
Q 2953 1263 2953 975 
Q 2953 694 2789 445 
Q 2625 197 2315 61 
Q 2006 -75 1616 -75 
Q 969 -75 630 194 
Q 291 463 197 991 
z
" id="ArialMT-73" transform="scale(0.015625)"/>
      </defs>
      <use xlink:href="#ArialMT-50"/>
      <use x="66.699219" xlink:href="#ArialMT-72"/>
      <use x="100" xlink:href="#ArialMT-65"/>
      <use x="155.615234" xlink:href="#ArialMT-64"/>
      <use x="211.230469" xlink:href="#ArialMT-69"/>
      <use x="233.447266" xlink:href="#ArialMT-63"/>
      <use x="283.447266" xlink:href="#ArialMT-74"/>
      <use x="311.230469" xlink:href="#ArialMT-69"/>
      <use x="333.447266" xlink:href="#ArialMT-6f"/>
      <use x="389.0625" xlink:href="#ArialMT-6e"/>
      <use x="444.677734" xlink:href="#ArialMT-73"/>
     </g>
    </g>
   </g>
   <g id="PolyCollection_1">
    <defs>
     <path d="M 36.65518 -34.86759 
L 36.54482 -34.86759 
L 36.523777 -35.58521 
L 36.496786 -36.30283 
L 36.462936 -37.02045 
L 36.421413 -37.73807 
L 36.371569 -38.45569 
L 36.312978 -39.17331 
L 36.245481 -39.89093 
L 36.169194 -40.60855 
L 36.084487 -41.32617 
L 35.99192 -42.043791 
L 35.892164 -42.761411 
L 35.785888 -43.479031 
L 35.673673 -44.196651 
L 35.555936 -44.914271 
L 35.432918 -45.631891 
L 35.304729 -46.349511 
L 35.171466 -47.067131 
L 35.033386 -47.784751 
L 34.891101 -48.502371 
L 34.745771 -49.219991 
L 34.599229 -49.937611 
L 34.454014 -50.655231 
L 34.313269 -51.372851 
L 34.180513 -52.090471 
L 34.059301 -52.808091 
L 33.952817 -53.525711 
L 33.863469 -54.243331 
L 33.792547 -54.960952 
L 33.739995 -55.678572 
L 33.70434 -56.396192 
L 33.682768 -57.113812 
L 33.671324 -57.831432 
L 33.665186 -58.549052 
L 33.658947 -59.266672 
L 33.646863 -59.984292 
L 33.623036 -60.701912 
L 33.581522 -61.419532 
L 33.516408 -62.137152 
L 33.421903 -62.854772 
L 33.292496 -63.572392 
L 33.123237 -64.290012 
L 32.910134 -65.007632 
L 32.650653 -65.725252 
L 32.344248 -66.442872 
L 31.992801 -67.160493 
L 31.600876 -67.878113 
L 31.175666 -68.595733 
L 30.726579 -69.313353 
L 30.264451 -70.030973 
L 29.800461 -70.748593 
L 29.344868 -71.466213 
L 28.905765 -72.183833 
L 28.488024 -72.901453 
L 28.09264 -73.619073 
L 27.716574 -74.336693 
L 27.353176 -75.054313 
L 26.993141 -75.771933 
L 26.625905 -76.489553 
L 26.241296 -77.207173 
L 25.831229 -77.924793 
L 25.391245 -78.642413 
L 24.921681 -79.360033 
L 24.428341 -80.077654 
L 23.922592 -80.795274 
L 23.420853 -81.512894 
L 22.943564 -82.230514 
L 22.513721 -82.948134 
L 22.155147 -83.665754 
L 21.890663 -84.383374 
L 21.740342 -85.100994 
L 21.72 -85.818614 
L 21.840044 -86.536234 
L 22.10478 -87.253854 
L 22.512194 -87.971474 
L 23.054212 -88.689094 
L 23.717369 -89.406714 
L 24.483804 -90.124334 
L 25.332474 -90.841954 
L 26.240458 -91.559574 
L 27.184247 -92.277195 
L 28.14093 -92.994815 
L 29.089188 -93.712435 
L 30.010077 -94.430055 
L 30.887565 -95.147675 
L 31.708842 -95.865295 
L 32.464424 -96.582915 
L 33.148075 -97.300535 
L 33.756598 -98.018155 
L 34.289519 -98.735775 
L 34.7487 -99.453395 
L 35.137907 -100.171015 
L 35.462363 -100.888635 
L 35.728302 -101.606255 
L 35.942548 -102.323875 
L 36.112133 -103.041495 
L 36.243971 -103.759115 
L 36.344595 -104.476735 
L 36.419966 -105.194356 
L 36.475351 -105.911976 
L 36.724649 -105.911976 
L 36.724649 -105.911976 
L 36.780034 -105.194356 
L 36.855405 -104.476735 
L 36.956029 -103.759115 
L 37.087867 -103.041495 
L 37.257452 -102.323875 
L 37.471698 -101.606255 
L 37.737637 -100.888635 
L 38.062093 -100.171015 
L 38.4513 -99.453395 
L 38.910481 -98.735775 
L 39.443402 -98.018155 
L 40.051925 -97.300535 
L 40.735576 -96.582915 
L 41.491158 -95.865295 
L 42.312435 -95.147675 
L 43.189923 -94.430055 
L 44.110812 -93.712435 
L 45.05907 -92.994815 
L 46.015753 -92.277195 
L 46.959542 -91.559574 
L 47.867526 -90.841954 
L 48.716196 -90.124334 
L 49.482631 -89.406714 
L 50.145788 -88.689094 
L 50.687806 -87.971474 
L 51.09522 -87.253854 
L 51.359956 -86.536234 
L 51.48 -85.818614 
L 51.459658 -85.100994 
L 51.309337 -84.383374 
L 51.044853 -83.665754 
L 50.686279 -82.948134 
L 50.256436 -82.230514 
L 49.779147 -81.512894 
L 49.277408 -80.795274 
L 48.771659 -80.077654 
L 48.278319 -79.360033 
L 47.808755 -78.642413 
L 47.368771 -77.924793 
L 46.958704 -77.207173 
L 46.574095 -76.489553 
L 46.206859 -75.771933 
L 45.846824 -75.054313 
L 45.483426 -74.336693 
L 45.10736 -73.619073 
L 44.711976 -72.901453 
L 44.294235 -72.183833 
L 43.855132 -71.466213 
L 43.399539 -70.748593 
L 42.935549 -70.030973 
L 42.473421 -69.313353 
L 42.024334 -68.595733 
L 41.599124 -67.878113 
L 41.207199 -67.160493 
L 40.855752 -66.442872 
L 40.549347 -65.725252 
L 40.289866 -65.007632 
L 40.076763 -64.290012 
L 39.907504 -63.572392 
L 39.778097 -62.854772 
L 39.683592 -62.137152 
L 39.618478 -61.419532 
L 39.576964 -60.701912 
L 39.553137 -59.984292 
L 39.541053 -59.266672 
L 39.534814 -58.549052 
L 39.528676 -57.831432 
L 39.517232 -57.113812 
L 39.49566 -56.396192 
L 39.460005 -55.678572 
L 39.407453 -54.960952 
L 39.336531 -54.243331 
L 39.247183 -53.525711 
L 39.140699 -52.808091 
L 39.019487 -52.090471 
L 38.886731 -51.372851 
L 38.745986 -50.655231 
L 38.600771 -49.937611 
L 38.454229 -49.219991 
L 38.308899 -48.502371 
L 38.166614 -47.784751 
L 38.028534 -47.067131 
L 37.895271 -46.349511 
L 37.767082 -45.631891 
L 37.644064 -44.914271 
L 37.526327 -44.196651 
L 37.414112 -43.479031 
L 37.307836 -42.761411 
L 37.20808 -42.043791 
L 37.115513 -41.32617 
L 37.030806 -40.60855 
L 36.954519 -39.89093 
L 36.887022 -39.17331 
L 36.828431 -38.45569 
L 36.778587 -37.73807 
L 36.737064 -37.02045 
L 36.703214 -36.30283 
L 36.676223 -35.58521 
L 36.65518 -34.86759 
z
" id="mb3e7059a03" style="stroke:#262626;stroke-width:0.75;"/>
    </defs>
    <g clip-path="url(#p46bcd70e89)">
     <use style="fill:#7f9dd2;stroke:#262626;stroke-width:0.75;" x="0" xlink:href="#mb3e7059a03" y="144"/>
    </g>
   </g>
   <g id="PolyCollection_2">
    <defs>
     <path d="M 73.805085 -33.654309 
L 73.794915 -33.654309 
L 73.789393 -34.418797 
L 73.779946 -35.183285 
L 73.765356 -35.947774 
L 73.744636 -36.712262 
L 73.716737 -37.47675 
L 73.679705 -38.241239 
L 73.62981 -39.005727 
L 73.56165 -39.770215 
L 73.469878 -40.534703 
L 73.35189 -41.299192 
L 73.209565 -42.06368 
L 73.048466 -42.828168 
L 72.874827 -43.592657 
L 72.692643 -44.357145 
L 72.503134 -45.121633 
L 72.306647 -45.886121 
L 72.104973 -46.65061 
L 71.901986 -47.415098 
L 71.702338 -48.179586 
L 71.509445 -48.944074 
L 71.324042 -49.708563 
L 71.143766 -50.473051 
L 70.963947 -51.237539 
L 70.779829 -52.002028 
L 70.589901 -52.766516 
L 70.398855 -53.531004 
L 70.218069 -54.295492 
L 70.062625 -55.059981 
L 69.94603 -55.824469 
L 69.875451 -56.588957 
L 69.849752 -57.353446 
L 69.860312 -58.117934 
L 69.892543 -58.882422 
L 69.926281 -59.64691 
L 69.935728 -60.411399 
L 69.891833 -61.175887 
L 69.769029 -61.940375 
L 69.554131 -62.704863 
L 69.251546 -63.469352 
L 68.880031 -64.23384 
L 68.462574 -64.998328 
L 68.01697 -65.762817 
L 67.554052 -66.527305 
L 67.083019 -67.291793 
L 66.616395 -68.056281 
L 66.167946 -68.82077 
L 65.744499 -69.585258 
L 65.339273 -70.349746 
L 64.933612 -71.114234 
L 64.507082 -71.878723 
L 64.049505 -72.643211 
L 63.567618 -73.407699 
L 63.083404 -74.172188 
L 62.626241 -74.936676 
L 62.22329 -75.701164 
L 61.891584 -76.465652 
L 61.633174 -77.230141 
L 61.433827 -77.994629 
L 61.266245 -78.759117 
L 61.098824 -79.523606 
L 60.908571 -80.288094 
L 60.693101 -81.052582 
L 60.475516 -81.81707 
L 60.299203 -82.581559 
L 60.214923 -83.346047 
L 60.265965 -84.110535 
L 60.477242 -84.875023 
L 60.852339 -85.639512 
L 61.379116 -86.404 
L 62.039765 -87.168488 
L 62.817948 -87.932977 
L 63.697708 -88.697465 
L 64.656174 -89.461953 
L 65.657937 -90.226441 
L 66.657558 -90.99093 
L 67.6095 -91.755418 
L 68.479009 -92.519906 
L 69.24786 -93.284395 
L 69.913533 -94.048883 
L 70.484348 -94.813371 
L 70.973867 -95.577859 
L 71.396422 -96.342348 
L 71.764322 -97.106836 
L 72.086749 -97.871324 
L 72.370135 -98.635812 
L 72.619272 -99.400301 
L 72.838111 -100.164789 
L 73.029799 -100.929277 
L 73.196379 -101.693766 
L 73.3389 -102.458254 
L 73.458067 -103.222742 
L 73.554938 -103.98723 
L 73.631204 -104.751719 
L 73.689069 -105.516207 
L 73.731042 -106.280695 
L 73.759829 -107.045183 
L 73.778266 -107.809672 
L 73.789168 -108.57416 
L 73.795061 -109.338648 
L 73.804939 -109.338648 
L 73.804939 -109.338648 
L 73.810832 -108.57416 
L 73.821734 -107.809672 
L 73.840171 -107.045183 
L 73.868958 -106.280695 
L 73.910931 -105.516207 
L 73.968796 -104.751719 
L 74.045062 -103.98723 
L 74.141933 -103.222742 
L 74.2611 -102.458254 
L 74.403621 -101.693766 
L 74.570201 -100.929277 
L 74.761889 -100.164789 
L 74.980728 -99.400301 
L 75.229865 -98.635812 
L 75.513251 -97.871324 
L 75.835678 -97.106836 
L 76.203578 -96.342348 
L 76.626133 -95.577859 
L 77.115652 -94.813371 
L 77.686467 -94.048883 
L 78.35214 -93.284395 
L 79.120991 -92.519906 
L 79.9905 -91.755418 
L 80.942442 -90.99093 
L 81.942063 -90.226441 
L 82.943826 -89.461953 
L 83.902292 -88.697465 
L 84.782052 -87.932977 
L 85.560235 -87.168488 
L 86.220884 -86.404 
L 86.747661 -85.639512 
L 87.122758 -84.875023 
L 87.334035 -84.110535 
L 87.385077 -83.346047 
L 87.300797 -82.581559 
L 87.124484 -81.81707 
L 86.906899 -81.052582 
L 86.691429 -80.288094 
L 86.501176 -79.523606 
L 86.333755 -78.759117 
L 86.166173 -77.994629 
L 85.966826 -77.230141 
L 85.708416 -76.465652 
L 85.37671 -75.701164 
L 84.973759 -74.936676 
L 84.516596 -74.172188 
L 84.032382 -73.407699 
L 83.550495 -72.643211 
L 83.092918 -71.878723 
L 82.666388 -71.114234 
L 82.260727 -70.349746 
L 81.855501 -69.585258 
L 81.432054 -68.82077 
L 80.983605 -68.056281 
L 80.516981 -67.291793 
L 80.045948 -66.527305 
L 79.58303 -65.762817 
L 79.137426 -64.998328 
L 78.719969 -64.23384 
L 78.348454 -63.469352 
L 78.045869 -62.704863 
L 77.830971 -61.940375 
L 77.708167 -61.175887 
L 77.664272 -60.411399 
L 77.673719 -59.64691 
L 77.707457 -58.882422 
L 77.739688 -58.117934 
L 77.750248 -57.353446 
L 77.724549 -56.588957 
L 77.65397 -55.824469 
L 77.537375 -55.059981 
L 77.381931 -54.295492 
L 77.201145 -53.531004 
L 77.010099 -52.766516 
L 76.820171 -52.002028 
L 76.636053 -51.237539 
L 76.456234 -50.473051 
L 76.275958 -49.708563 
L 76.090555 -48.944074 
L 75.897662 -48.179586 
L 75.698014 -47.415098 
L 75.495027 -46.65061 
L 75.293353 -45.886121 
L 75.096866 -45.121633 
L 74.907357 -44.357145 
L 74.725173 -43.592657 
L 74.551534 -42.828168 
L 74.390435 -42.06368 
L 74.24811 -41.299192 
L 74.130122 -40.534703 
L 74.03835 -39.770215 
L 73.97019 -39.005727 
L 73.920295 -38.241239 
L 73.883263 -37.47675 
L 73.855364 -36.712262 
L 73.834644 -35.947774 
L 73.820054 -35.183285 
L 73.810607 -34.418797 
L 73.805085 -33.654309 
z
" id="m95c756eb5d" style="stroke:#262626;stroke-width:0.75;"/>
    </defs>
    <g clip-path="url(#p46bcd70e89)">
     <use style="fill:#1a1a66;stroke:#262626;stroke-width:0.75;" x="0" xlink:href="#m95c756eb5d" y="144"/>
    </g>
   </g>
   <g id="PolyCollection_3">
    <defs>
     <path d="M 111.370103 -20.88 
L 110.629897 -20.88 
L 110.569299 -21.898182 
L 110.500977 -22.916364 
L 110.424345 -23.934545 
L 110.338836 -24.952727 
L 110.243923 -25.970909 
L 110.139123 -26.989091 
L 110.024024 -28.007273 
L 109.89829 -29.025455 
L 109.761685 -30.043636 
L 109.614085 -31.061818 
L 109.455494 -32.08 
L 109.286059 -33.098182 
L 109.106086 -34.116364 
L 108.916044 -35.134545 
L 108.71658 -36.152727 
L 108.508521 -37.170909 
L 108.292879 -38.189091 
L 108.070844 -39.207273 
L 107.843784 -40.225455 
L 107.613228 -41.243636 
L 107.380857 -42.261818 
L 107.148479 -43.28 
L 106.918007 -44.298182 
L 106.691431 -45.316364 
L 106.470782 -46.334545 
L 106.2581 -47.352727 
L 106.055393 -48.370909 
L 105.864598 -49.389091 
L 105.687539 -50.407273 
L 105.525887 -51.425455 
L 105.381121 -52.443636 
L 105.25449 -53.461818 
L 105.146979 -54.48 
L 105.059285 -55.498182 
L 104.991791 -56.516364 
L 104.94455 -57.534545 
L 104.917281 -58.552727 
L 104.909364 -59.570909 
L 104.919854 -60.589091 
L 104.947494 -61.607273 
L 104.990746 -62.625455 
L 105.047819 -63.643636 
L 105.116716 -64.661818 
L 105.195277 -65.68 
L 105.281238 -66.698182 
L 105.37228 -67.716364 
L 105.466094 -68.734545 
L 105.560438 -69.752727 
L 105.653197 -70.770909 
L 105.742434 -71.789091 
L 105.826445 -72.807273 
L 105.903799 -73.825455 
L 105.973379 -74.843636 
L 106.034404 -75.861818 
L 106.086449 -76.88 
L 106.129453 -77.898182 
L 106.163713 -78.916364 
L 106.189872 -79.934545 
L 106.208891 -80.952727 
L 106.22202 -81.970909 
L 106.230752 -82.989091 
L 106.236775 -84.007273 
L 106.24192 -85.025455 
L 106.2481 -86.043636 
L 106.257253 -87.061818 
L 106.271285 -88.08 
L 106.292007 -89.098182 
L 106.321088 -90.116364 
L 106.360008 -91.134545 
L 106.410011 -92.152727 
L 106.472081 -93.170909 
L 106.546913 -94.189091 
L 106.6349 -95.207273 
L 106.73613 -96.225455 
L 106.850387 -97.243636 
L 106.977167 -98.261818 
L 107.115696 -99.28 
L 107.26496 -100.298182 
L 107.423738 -101.316364 
L 107.590637 -102.334545 
L 107.764134 -103.352727 
L 107.942621 -104.370909 
L 108.12444 -105.389091 
L 108.30793 -106.407273 
L 108.491461 -107.425455 
L 108.67347 -108.443636 
L 108.852493 -109.461818 
L 109.027187 -110.48 
L 109.196353 -111.498182 
L 109.358948 -112.516364 
L 109.514099 -113.534545 
L 109.661102 -114.552727 
L 109.799425 -115.570909 
L 109.928703 -116.589091 
L 110.048727 -117.607273 
L 110.159435 -118.625455 
L 110.260897 -119.643636 
L 110.353299 -120.661818 
L 110.436926 -121.68 
L 111.563074 -121.68 
L 111.563074 -121.68 
L 111.646701 -120.661818 
L 111.739103 -119.643636 
L 111.840565 -118.625455 
L 111.951273 -117.607273 
L 112.071297 -116.589091 
L 112.200575 -115.570909 
L 112.338898 -114.552727 
L 112.485901 -113.534545 
L 112.641052 -112.516364 
L 112.803647 -111.498182 
L 112.972813 -110.48 
L 113.147507 -109.461818 
L 113.32653 -108.443636 
L 113.508539 -107.425455 
L 113.69207 -106.407273 
L 113.87556 -105.389091 
L 114.057379 -104.370909 
L 114.235866 -103.352727 
L 114.409363 -102.334545 
L 114.576262 -101.316364 
L 114.73504 -100.298182 
L 114.884304 -99.28 
L 115.022833 -98.261818 
L 115.149613 -97.243636 
L 115.26387 -96.225455 
L 115.3651 -95.207273 
L 115.453087 -94.189091 
L 115.527919 -93.170909 
L 115.589989 -92.152727 
L 115.639992 -91.134545 
L 115.678912 -90.116364 
L 115.707993 -89.098182 
L 115.728715 -88.08 
L 115.742747 -87.061818 
L 115.7519 -86.043636 
L 115.75808 -85.025455 
L 115.763225 -84.007273 
L 115.769248 -82.989091 
L 115.77798 -81.970909 
L 115.791109 -80.952727 
L 115.810128 -79.934545 
L 115.836287 -78.916364 
L 115.870547 -77.898182 
L 115.913551 -76.88 
L 115.965596 -75.861818 
L 116.026621 -74.843636 
L 116.096201 -73.825455 
L 116.173555 -72.807273 
L 116.257566 -71.789091 
L 116.346803 -70.770909 
L 116.439562 -69.752727 
L 116.533906 -68.734545 
L 116.62772 -67.716364 
L 116.718762 -66.698182 
L 116.804723 -65.68 
L 116.883284 -64.661818 
L 116.952181 -63.643636 
L 117.009254 -62.625455 
L 117.052506 -61.607273 
L 117.080146 -60.589091 
L 117.090636 -59.570909 
L 117.082719 -58.552727 
L 117.05545 -57.534545 
L 117.008209 -56.516364 
L 116.940715 -55.498182 
L 116.853021 -54.48 
L 116.74551 -53.461818 
L 116.618879 -52.443636 
L 116.474113 -51.425455 
L 116.312461 -50.407273 
L 116.135402 -49.389091 
L 115.944607 -48.370909 
L 115.7419 -47.352727 
L 115.529218 -46.334545 
L 115.308569 -45.316364 
L 115.081993 -44.298182 
L 114.851521 -43.28 
L 114.619143 -42.261818 
L 114.386772 -41.243636 
L 114.156216 -40.225455 
L 113.929156 -39.207273 
L 113.707121 -38.189091 
L 113.491479 -37.170909 
L 113.28342 -36.152727 
L 113.083956 -35.134545 
L 112.893914 -34.116364 
L 112.713941 -33.098182 
L 112.544506 -32.08 
L 112.385915 -31.061818 
L 112.238315 -30.043636 
L 112.10171 -29.025455 
L 111.975976 -28.007273 
L 111.860877 -26.989091 
L 111.756077 -25.970909 
L 111.661164 -24.952727 
L 111.575655 -23.934545 
L 111.499023 -22.916364 
L 111.430701 -21.898182 
L 111.370103 -20.88 
z
" id="mc2c666b202" style="stroke:#262626;stroke-width:0.75;"/>
    </defs>
    <g clip-path="url(#p46bcd70e89)">
     <use style="fill:#cc8733;stroke:#262626;stroke-width:0.75;" x="0" xlink:href="#mc2c666b202" y="144"/>
    </g>
   </g>
   <g id="line2d_1">
    <path clip-path="url(#p46bcd70e89)" d="M 36.6 90.428558 
L 36.6 47.473601 
" style="fill:none;stroke:#262626;stroke-linecap:round;stroke-width:0.75;"/>
   </g>
   <g id="line2d_2">
    <path clip-path="url(#p46bcd70e89)" d="M 36.6 71.453048 
L 36.6 56.117408 
" style="fill:none;stroke:#262626;stroke-linecap:round;stroke-width:2.25;"/>
   </g>
   <g id="line2d_3">
    <path clip-path="url(#p46bcd70e89)" d="M 73.8 99.552794 
L 73.8 39.103536 
" style="fill:none;stroke:#262626;stroke-linecap:round;stroke-width:0.75;"/>
   </g>
   <g id="line2d_4">
    <path clip-path="url(#p46bcd70e89)" d="M 73.8 75.176655 
L 73.8 58.920008 
" style="fill:none;stroke:#262626;stroke-linecap:round;stroke-width:2.25;"/>
   </g>
   <g id="line2d_5">
    <path clip-path="url(#p46bcd70e89)" d="M 111 94.186307 
L 111 51.253693 
" style="fill:none;stroke:#262626;stroke-linecap:round;stroke-width:0.75;"/>
   </g>
   <g id="line2d_6">
    <path clip-path="url(#p46bcd70e89)" d="M 111 83.00145 
L 111 51.253693 
" style="fill:none;stroke:#262626;stroke-linecap:round;stroke-width:2.25;"/>
   </g>
   <g id="patch_3">
    <path d="M 18 128.16 
L 18 17.28 
" style="fill:none;stroke:#262626;stroke-linecap:square;stroke-linejoin:miter;stroke-width:0.8;"/>
   </g>
   <g id="patch_4">
    <path d="M 18 128.16 
L 129.6 128.16 
" style="fill:none;stroke:#262626;stroke-linecap:square;stroke-linejoin:miter;stroke-width:0.8;"/>
   </g>
   <g id="PathCollection_1">
    <defs>
     <path d="M 0 0.75 
C 0.198902 0.75 0.389685 0.670975 0.53033 0.53033 
C 0.670975 0.389685 0.75 0.198902 0.75 0 
C 0.75 -0.198902 0.670975 -0.389685 0.53033 -0.53033 
C 0.389685 -0.670975 0.198902 -0.75 0 -0.75 
C -0.198902 -0.75 -0.389685 -0.670975 -0.53033 -0.53033 
C -0.670975 -0.389685 -0.75 -0.198902 -0.75 0 
C -0.75 0.198902 -0.670975 0.389685 -0.53033 0.53033 
C -0.389685 0.670975 -0.198902 0.75 0 0.75 
z
" id="m521456fc59" style="stroke:#262626;"/>
    </defs>
    <g clip-path="url(#p46bcd70e89)">
     <use style="fill:#ffffff;stroke:#262626;" x="36.6" xlink:href="#m521456fc59" y="61.301042"/>
    </g>
   </g>
   <g id="PathCollection_2">
    <g clip-path="url(#p46bcd70e89)">
     <use style="fill:#ffffff;stroke:#262626;" x="73.8" xlink:href="#m521456fc59" y="66.007728"/>
    </g>
   </g>
   <g id="PathCollection_3">
    <g clip-path="url(#p46bcd70e89)">
     <use style="fill:#ffffff;stroke:#262626;" x="111" xlink:href="#m521456fc59" y="83.00145"/>
    </g>
   </g>
   <g id="text_8">
    <!-- Random -->
    <g style="fill:#262626;" transform="translate(28.445625 11.28)scale(0.24 -0.24)">
     <defs>
      <path d="M 422 0 
L 422 3319 
L 925 3319 
L 925 2853 
Q 1081 3097 1340 3245 
Q 1600 3394 1931 3394 
Q 2300 3394 2536 3241 
Q 2772 3088 2869 2813 
Q 3263 3394 3894 3394 
Q 4388 3394 4653 3120 
Q 4919 2847 4919 2278 
L 4919 0 
L 4359 0 
L 4359 2091 
Q 4359 2428 4304 2576 
Q 4250 2725 4106 2815 
Q 3963 2906 3769 2906 
Q 3419 2906 3187 2673 
Q 2956 2441 2956 1928 
L 2956 0 
L 2394 0 
L 2394 2156 
Q 2394 2531 2256 2718 
Q 2119 2906 1806 2906 
Q 1569 2906 1367 2781 
Q 1166 2656 1075 2415 
Q 984 2175 984 1722 
L 984 0 
L 422 0 
z
" id="ArialMT-6d" transform="scale(0.015625)"/>
     </defs>
     <use xlink:href="#ArialMT-52"/>
     <use x="72.216797" xlink:href="#ArialMT-61"/>
     <use x="127.832031" xlink:href="#ArialMT-6e"/>
     <use x="183.447266" xlink:href="#ArialMT-64"/>
     <use x="239.0625" xlink:href="#ArialMT-6f"/>
     <use x="294.677734" xlink:href="#ArialMT-6d"/>
    </g>
   </g>
  </g>
 </g>
 <defs>
  <clipPath id="p46bcd70e89">
   <rect height="110.88" width="111.6" x="18" y="17.28"/>
  </clipPath>
 </defs>
</svg>
