<?xml version="1.0" encoding="utf-8" standalone="no"?>
<!DOCTYPE svg PUBLIC "-//W3C//DTD SVG 1.1//EN"
  "http://www.w3.org/Graphics/SVG/1.1/DTD/svg11.dtd">
<svg height="216pt" version="1.1" viewBox="0 0 306 216" width="306pt" xmlns="http://www.w3.org/2000/svg" xmlns:xlink="http://www.w3.org/1999/xlink">
 <metadata>
  <rdf:RDF xmlns:cc="http://creativecommons.org/ns#" xmlns:dc="http://purl.org/dc/elements/1.1/" xmlns:rdf="http://www.w3.org/1999/02/22-rdf-syntax-ns#">
   <cc:Work>
    <dc:type rdf:resource="http://purl.org/dc/dcmitype/StillImage"/>
    <dc:date>2022-12-27T20:10:53.678171</dc:date>
    <dc:format>image/svg+xml</dc:format>
    <dc:creator>
     <cc:Agent>
      <dc:title>Matplotlib v3.4.2, https://matplotlib.org/</dc:title>
     </cc:Agent>
    </dc:creator>
   </cc:Work>
  </rdf:RDF>
 </metadata>
 <defs>
  <style type="text/css">*{stroke-linecap:butt;stroke-linejoin:round;}</style>
 </defs>
 <g id="figure_1">
  <g id="patch_1">
   <path d="M 0 216 
L 306 216 
L 306 0 
L 0 0 
z
" style="fill:#ffffff;"/>
  </g>
  <g id="axes_1">
   <g id="patch_2">
    <path d="M 94.94 141.64 
L 284.4 141.64 
L 284.4 28.8 
L 94.94 28.8 
z
" style="fill:#ffffff;"/>
   </g>
   <g id="line2d_1">
    <path clip-path="url(#pbf7ef5c72f)" d="M 94.94 141.64 
L 284.4 141.64 
" style="fill:none;stroke:#000000;stroke-linecap:round;stroke-width:0.5;"/>
   </g>
   <g id="patch_3">
    <path clip-path="url(#pbf7ef5c72f)" d="M 105.558702 117.250169 
L 105.558702 120.156123 
L 101.148734 120.156123 
L 101.148734 141.64 
L 99.349968 141.64 
L 99.349968 120.156123 
L 94.94 120.156123 
L 94.94 117.250169 
L 105.558702 117.250169 
z
" style="fill:#ff0000;"/>
   </g>
   <g id="patch_4">
    <path clip-path="url(#pbf7ef5c72f)" d="M 102.067515 105.300823 
L 100.261014 92.417638 
L 98.340473 105.300823 
L 102.067515 105.300823 
z
M 99.418672 88.085126 
L 101.240724 88.085126 
L 105.558702 117.250169 
L 103.791078 117.250169 
L 102.58588 108.515267 
L 97.879128 108.515267 
L 96.590992 117.250169 
L 94.94 117.250169 
L 99.418672 88.085126 
z
M 100.253239 88.085126 
L 100.253239 88.085126 
z
" style="fill:#008000;"/>
   </g>
   <g id="patch_5">
    <path clip-path="url(#pbf7ef5c72f)" d="M 100.523163 58.920084 
Q 102.797109 58.920084 104.051431 61.694835 
Q 105.305752 64.463554 105.443962 67.98628 
L 103.863673 67.98628 
Q 103.595077 65.314075 102.791894 63.75177 
Q 101.988711 62.183432 100.53881 62.183432 
Q 98.770765 62.183432 97.683339 65.060728 
Q 96.595913 67.931992 96.595913 73.867545 
Q 96.595913 78.735423 97.576421 81.763521 
Q 98.559538 84.785586 100.507517 84.785586 
Q 102.299032 84.785586 103.237817 81.600655 
Q 103.733287 79.92374 103.978414 77.185182 
L 105.558702 77.185182 
Q 105.347475 81.55843 104.158348 84.520175 
Q 102.731916 88.085126 100.311937 88.085126 
Q 98.225748 88.085126 96.807139 85.159574 
Q 94.94 81.299052 94.94 73.228146 
Q 94.94 67.105599 96.342962 63.184755 
Q 97.858057 58.920084 100.523163 58.920084 
z
M 100.197196 58.920084 
L 100.197196 58.920084 
z
" style="fill:#0000ff;"/>
   </g>
   <g id="patch_6">
    <path clip-path="url(#pbf7ef5c72f)" d="M 100.416455 28.84358 
Q 102.054581 28.84358 103.249628 30.400013 
Q 104.981434 32.63505 105.368811 38.238207 
L 103.811705 38.238207 
Q 103.525603 35.106665 102.63185 33.674747 
Q 101.738096 32.242829 100.375945 32.242829 
Q 98.763138 32.242829 97.659238 35.224954 
Q 96.555339 38.200853 96.555339 44.09662 
Q 96.555339 49.189267 97.464284 52.389293 
Q 98.37576 55.589318 100.431646 55.589318 
Q 102.006475 55.589318 103.039482 53.348055 
Q 104.072489 51.100567 104.095276 46.076402 
L 100.456965 46.076402 
L 100.456965 42.870151 
L 105.558702 42.870151 
L 105.558702 58.160545 
L 104.54595 58.160545 
L 104.166168 54.481138 
Q 103.368626 56.641467 102.750848 57.481941 
Q 101.712777 58.920084 100.115161 58.920084 
Q 98.05168 58.920084 96.562935 55.632899 
Q 94.94 51.505239 94.94 44.308295 
Q 94.94 37.130027 96.522425 32.890305 
Q 98.026361 28.84358 100.416455 28.84358 
z
M 100.155671 28.8 
L 100.155671 28.8 
z
" style="fill:#ffa600;"/>
   </g>
   <g id="patch_7">
    <path clip-path="url(#pbf7ef5c72f)" d="M 111.594036 123.96108 
Q 113.232162 123.96108 114.427209 124.875949 
Q 116.159015 126.1897 116.546392 129.483227 
L 114.989286 129.483227 
Q 114.703184 127.642511 113.809431 126.800832 
Q 112.915677 125.959153 111.553526 125.959153 
Q 109.940719 125.959153 108.83682 127.712041 
Q 107.73292 129.46127 107.73292 132.926792 
Q 107.73292 135.920242 108.641865 137.801212 
Q 109.553341 139.682181 111.609227 139.682181 
Q 113.184056 139.682181 114.217063 138.364771 
Q 115.25007 137.0437 115.272857 134.090505 
L 111.634546 134.090505 
L 111.634546 132.205875 
L 116.736283 132.205875 
L 116.736283 141.193544 
L 115.723531 141.193544 
L 115.34375 139.030795 
Q 114.546208 140.300632 113.928429 140.794661 
Q 112.890358 141.64 111.292743 141.64 
Q 109.229261 141.64 107.740516 139.707798 
Q 106.117581 137.281566 106.117581 133.051214 
Q 106.117581 128.83184 107.700006 126.339738 
Q 109.203942 123.96108 111.594036 123.96108 
z
M 111.333253 123.935464 
L 111.333253 123.935464 
z
" style="fill:#ffa600;"/>
   </g>
   <g id="patch_8">
    <path clip-path="url(#pbf7ef5c72f)" d="M 111.700744 99.545632 
Q 113.97469 99.545632 115.229012 101.866071 
Q 116.483333 104.181466 116.621543 107.127415 
L 115.041255 107.127415 
Q 114.772658 104.892731 113.969475 103.586223 
Q 113.166292 102.27467 111.716391 102.27467 
Q 109.948346 102.27467 108.86092 104.680865 
Q 107.773494 107.082015 107.773494 112.045736 
Q 107.773494 116.116593 108.754002 118.648898 
Q 109.737119 121.176159 111.685098 121.176159 
Q 113.476613 121.176159 114.415398 118.512699 
Q 114.910868 117.110347 115.155995 114.820174 
L 116.736283 114.820174 
Q 116.525057 118.477388 115.335929 120.954204 
Q 113.909497 123.935464 111.489518 123.935464 
Q 109.403329 123.935464 107.98472 121.488914 
Q 106.117581 118.260477 106.117581 111.511026 
Q 106.117581 106.390927 107.520543 103.112046 
Q 109.035638 99.545632 111.700744 99.545632 
z
M 111.374777 99.545632 
L 111.374777 99.545632 
z
" style="fill:#0000ff;"/>
   </g>
   <g id="patch_9">
    <path clip-path="url(#pbf7ef5c72f)" d="M 116.736283 69.425548 
L 116.736283 73.01424 
L 112.326315 73.01424 
L 112.326315 99.545632 
L 110.527549 99.545632 
L 110.527549 73.01424 
L 106.117581 73.01424 
L 106.117581 69.425548 
L 116.736283 69.425548 
z
" style="fill:#ff0000;"/>
   </g>
   <g id="patch_10">
    <path clip-path="url(#pbf7ef5c72f)" d="M 113.245097 52.780666 
L 111.438595 34.834987 
L 109.518054 52.780666 
L 113.245097 52.780666 
z
M 110.596253 28.8 
L 112.418305 28.8 
L 116.736283 69.425548 
L 114.968659 69.425548 
L 113.763461 57.258236 
L 109.056709 57.258236 
L 107.768573 69.425548 
L 106.117581 69.425548 
L 110.596253 28.8 
z
M 111.43082 28.8 
L 111.43082 28.8 
z
" style="fill:#008000;"/>
   </g>
   <g id="patch_11">
    <path clip-path="url(#pbf7ef5c72f)" d="M 122.771617 123.00742 
Q 124.409743 123.00742 125.60479 123.971639 
Q 127.336596 125.356259 127.723973 128.827449 
L 126.166868 128.827449 
Q 125.880765 126.88744 124.987012 126.000358 
Q 124.093258 125.113275 122.731107 125.113275 
Q 121.1183 125.113275 120.014401 126.96072 
Q 118.910501 128.804308 118.910501 132.456772 
Q 118.910501 135.611699 119.819446 137.594134 
Q 120.730923 139.57657 122.786809 139.57657 
Q 124.361638 139.57657 125.394644 138.188094 
Q 126.427651 136.795761 126.450438 133.68326 
L 122.812127 133.68326 
L 122.812127 131.696967 
L 127.913864 131.696967 
L 127.913864 141.169461 
L 126.901113 141.169461 
L 126.521331 138.890046 
Q 125.723789 140.228382 125.10601 140.749061 
Q 124.06794 141.64 122.470324 141.64 
Q 120.406842 141.64 118.918097 139.603568 
Q 117.295162 137.046458 117.295162 132.587906 
Q 117.295162 128.140925 118.877587 125.514391 
Q 120.381523 123.00742 122.771617 123.00742 
z
M 122.510834 122.980422 
L 122.510834 122.980422 
z
" style="fill:#ffa600;"/>
   </g>
   <g id="patch_12">
    <path clip-path="url(#pbf7ef5c72f)" d="M 127.913864 101.455717 
L 127.913864 104.020303 
L 123.503896 104.020303 
L 123.503896 122.980422 
L 121.705131 122.980422 
L 121.705131 104.020303 
L 117.295162 104.020303 
L 117.295162 101.455717 
L 127.913864 101.455717 
z
" style="fill:#ff0000;"/>
   </g>
   <g id="patch_13">
    <path clip-path="url(#pbf7ef5c72f)" d="M 124.422678 87.158603 
L 122.616176 71.744171 
L 120.695635 87.158603 
L 124.422678 87.158603 
z
M 121.773834 66.560422 
L 123.595886 66.560422 
L 127.913864 101.455717 
L 126.14624 101.455717 
L 124.941042 91.00461 
L 120.23429 91.00461 
L 118.946154 101.455717 
L 117.295162 101.455717 
L 121.773834 66.560422 
z
M 122.608401 66.560422 
L 122.608401 66.560422 
z
" style="fill:#008000;"/>
   </g>
   <g id="patch_14">
    <path clip-path="url(#pbf7ef5c72f)" d="M 122.878326 28.8 
Q 125.152272 28.8 126.406593 32.392512 
Q 127.660914 35.977214 127.799124 40.538141 
L 126.218836 40.538141 
Q 125.950239 37.078396 125.147056 35.055656 
Q 124.343873 33.025106 122.893972 33.025106 
Q 121.125927 33.025106 120.038501 36.750385 
Q 118.951075 40.467853 118.951075 48.152704 
Q 118.951075 54.455219 119.931584 58.375743 
Q 120.9147 62.288457 122.862679 62.288457 
Q 124.654194 62.288457 125.592979 58.164878 
Q 126.088449 55.993751 126.333576 52.448099 
L 127.913864 52.448099 
Q 127.702638 58.110209 126.51351 61.944825 
Q 125.087078 66.560422 122.667099 66.560422 
Q 120.58091 66.560422 119.162301 62.772665 
Q 117.295162 57.774388 117.295162 47.324865 
Q 117.295162 39.397909 118.698124 34.321534 
Q 120.213219 28.8 122.878326 28.8 
z
M 122.552359 28.8 
L 122.552359 28.8 
z
" style="fill:#0000ff;"/>
   </g>
   <g id="patch_15">
    <path clip-path="url(#pbf7ef5c72f)" d="M 133.949198 123.96108 
Q 135.587324 123.96108 136.782371 124.875949 
Q 138.514177 126.1897 138.901554 129.483227 
L 137.344449 129.483227 
Q 137.058346 127.642511 136.164593 126.800832 
Q 135.270839 125.959153 133.908688 125.959153 
Q 132.295881 125.959153 131.191982 127.712041 
Q 130.088082 129.46127 130.088082 132.926792 
Q 130.088082 135.920242 130.997027 137.801212 
Q 131.908504 139.682181 133.96439 139.682181 
Q 135.539219 139.682181 136.572225 138.364771 
Q 137.605232 137.0437 137.628019 134.090505 
L 133.989709 134.090505 
L 133.989709 132.205875 
L 139.091445 132.205875 
L 139.091445 141.193544 
L 138.078694 141.193544 
L 137.698912 139.030795 
Q 136.90137 140.300632 136.283591 140.794661 
Q 135.245521 141.64 133.647905 141.64 
Q 131.584423 141.64 130.095678 139.707798 
Q 128.472743 137.281566 128.472743 133.051214 
Q 128.472743 128.83184 130.055168 126.339738 
Q 131.559104 123.96108 133.949198 123.96108 
z
M 133.688415 123.935464 
L 133.688415 123.935464 
z
" style="fill:#ffa600;"/>
   </g>
   <g id="patch_16">
    <path clip-path="url(#pbf7ef5c72f)" d="M 139.091445 105.275885 
L 139.091445 107.499102 
L 134.681477 107.499102 
L 134.681477 123.935464 
L 132.882712 123.935464 
L 132.882712 107.499102 
L 128.472743 107.499102 
L 128.472743 105.275885 
L 139.091445 105.275885 
z
" style="fill:#ff0000;"/>
   </g>
   <g id="patch_17">
    <path clip-path="url(#pbf7ef5c72f)" d="M 134.055907 67.515464 
Q 136.329853 67.515464 137.584174 71.107975 
Q 138.838495 74.692677 138.976705 79.253605 
L 137.396417 79.253605 
Q 137.12782 75.79386 136.324637 73.77112 
Q 135.521454 71.74057 134.071553 71.74057 
Q 132.303508 71.74057 131.216082 75.465848 
Q 130.128656 79.183317 130.128656 86.868168 
Q 130.128656 93.170683 131.109165 97.091207 
Q 132.092281 101.00392 134.04026 101.00392 
Q 135.831775 101.00392 136.77056 96.880342 
Q 137.26603 94.709215 137.511157 91.163562 
L 139.091445 91.163562 
Q 138.880219 96.825673 137.691091 100.660289 
Q 136.264659 105.275885 133.84468 105.275885 
Q 131.758491 105.275885 130.339883 101.488129 
Q 128.472743 96.489851 128.472743 86.040328 
Q 128.472743 78.113373 129.875705 73.036998 
Q 131.3908 67.515464 134.055907 67.515464 
z
M 133.72994 67.515464 
L 133.72994 67.515464 
z
" style="fill:#0000ff;"/>
   </g>
   <g id="patch_18">
    <path clip-path="url(#pbf7ef5c72f)" d="M 135.600259 51.653171 
L 133.793758 34.551241 
L 131.873216 51.653171 
L 135.600259 51.653171 
z
M 132.951415 28.8 
L 134.773467 28.8 
L 139.091445 67.515464 
L 137.323822 67.515464 
L 136.118624 55.92022 
L 131.411872 55.92022 
L 130.123735 67.515464 
L 128.472743 67.515464 
L 132.951415 28.8 
z
M 133.785982 28.8 
L 133.785982 28.8 
z
" style="fill:#008000;"/>
   </g>
   <g id="patch_19">
    <path clip-path="url(#pbf7ef5c72f)" d="M 145.12678 121.100099 
Q 146.764906 121.100099 147.959953 122.163021 
Q 149.691758 123.689377 150.079136 127.515895 
L 148.52203 127.515895 
Q 148.235927 125.377296 147.342174 124.399408 
Q 146.448421 123.42152 145.086269 123.42152 
Q 143.473462 123.42152 142.369563 125.458078 
Q 141.265664 127.490385 141.265664 131.516733 
Q 141.265664 134.994613 142.174608 137.17998 
Q 143.086085 139.365347 145.141971 139.365347 
Q 146.7168 139.365347 147.749807 137.83474 
Q 148.782813 136.299881 148.8056 132.868769 
L 145.16729 132.868769 
L 145.16729 130.67915 
L 150.269027 130.67915 
L 150.269027 141.121294 
L 149.256275 141.121294 
L 148.876493 138.608547 
Q 148.078951 140.083882 147.461172 140.65786 
Q 146.423102 141.64 144.825486 141.64 
Q 142.762004 141.64 141.273259 139.395109 
Q 139.650324 136.576241 139.650324 131.66129 
Q 139.650324 126.759095 141.232749 123.863696 
Q 142.736685 121.100099 145.12678 121.100099 
z
M 144.865996 121.070337 
L 144.865996 121.070337 
z
" style="fill:#ffa600;"/>
   </g>
   <g id="patch_20">
    <path clip-path="url(#pbf7ef5c72f)" d="M 150.269027 94.770422 
L 150.269027 97.903955 
L 145.859058 97.903955 
L 145.859058 121.070337 
L 144.060293 121.070337 
L 144.060293 97.903955 
L 139.650324 97.903955 
L 139.650324 94.770422 
L 150.269027 94.770422 
z
" style="fill:#ff0000;"/>
   </g>
   <g id="patch_21">
    <path clip-path="url(#pbf7ef5c72f)" d="M 145.233488 66.560422 
Q 147.507434 66.560422 148.761755 69.24431 
Q 150.016076 71.922364 150.154286 75.329735 
L 148.573998 75.329735 
Q 148.305401 72.745034 147.502218 71.233888 
Q 146.699036 69.716908 145.249134 69.716908 
Q 143.481089 69.716908 142.393663 72.499983 
Q 141.306237 75.277224 141.306237 81.018411 
Q 141.306237 85.726885 142.286746 88.655824 
Q 143.269862 91.578928 145.217841 91.578928 
Q 147.009356 91.578928 147.948141 88.498291 
Q 148.443611 86.876289 148.688738 84.227408 
L 150.269027 84.227408 
Q 150.0578 88.45745 148.868672 91.322209 
Q 147.44224 94.770422 145.022261 94.770422 
Q 142.936072 94.770422 141.517464 91.94067 
Q 139.650324 88.206564 139.650324 80.39995 
Q 139.650324 74.477892 141.053287 70.685441 
Q 142.568381 66.560422 145.233488 66.560422 
z
M 144.907521 66.560422 
L 144.907521 66.560422 
z
" style="fill:#0000ff;"/>
   </g>
   <g id="patch_22">
    <path clip-path="url(#pbf7ef5c72f)" d="M 146.77784 51.089423 
L 144.971339 34.409368 
L 143.050797 51.089423 
L 146.77784 51.089423 
z
M 144.128996 28.8 
L 145.951048 28.8 
L 150.269027 66.560422 
L 148.501403 66.560422 
L 147.296205 55.251212 
L 142.589453 55.251212 
L 141.301316 66.560422 
L 139.650324 66.560422 
L 144.128996 28.8 
z
M 144.963563 28.8 
L 144.963563 28.8 
z
" style="fill:#008000;"/>
   </g>
   <g id="patch_23">
    <path clip-path="url(#pbf7ef5c72f)" d="M 156.304361 125.868401 
Q 157.942487 125.868401 159.137534 126.684567 
Q 160.869339 127.856582 161.256717 130.794781 
L 159.699611 130.794781 
Q 159.413509 129.152654 158.519755 128.401781 
Q 157.626002 127.650908 156.263851 127.650908 
Q 154.651043 127.650908 153.547144 129.214683 
Q 152.443245 130.775193 152.443245 133.866831 
Q 152.443245 136.537328 153.352189 138.215366 
Q 154.263666 139.893404 156.319552 139.893404 
Q 157.894381 139.893404 158.927388 138.718124 
Q 159.960394 137.53958 159.983181 134.904995 
L 156.344871 134.904995 
L 156.344871 133.223692 
L 161.446608 133.223692 
L 161.446608 141.241711 
L 160.433856 141.241711 
L 160.054074 139.312293 
Q 159.256532 140.445132 158.638753 140.885862 
Q 157.600683 141.64 156.003067 141.64 
Q 153.939585 141.64 152.45084 139.916257 
Q 150.827906 137.751783 150.827906 133.97783 
Q 150.827906 130.213671 152.41033 127.990433 
Q 153.914267 125.868401 156.304361 125.868401 
z
M 156.043577 125.845548 
L 156.043577 125.845548 
z
" style="fill:#ffa600;"/>
   </g>
   <g id="patch_24">
    <path clip-path="url(#pbf7ef5c72f)" d="M 161.446608 104.320843 
L 161.446608 106.885429 
L 157.036639 106.885429 
L 157.036639 125.845548 
L 155.237874 125.845548 
L 155.237874 106.885429 
L 150.827906 106.885429 
L 150.827906 104.320843 
L 161.446608 104.320843 
z
" style="fill:#ff0000;"/>
   </g>
   <g id="patch_25">
    <path clip-path="url(#pbf7ef5c72f)" d="M 157.955421 90.415024 
L 156.14892 75.422466 
L 154.228378 90.415024 
L 157.955421 90.415024 
z
M 155.306577 70.38059 
L 157.128629 70.38059 
L 161.446608 104.320843 
L 159.678984 104.320843 
L 158.473786 94.155771 
L 153.767034 94.155771 
L 152.478897 104.320843 
L 150.827906 104.320843 
L 155.306577 70.38059 
z
M 156.141144 70.38059 
L 156.141144 70.38059 
z
" style="fill:#008000;"/>
   </g>
   <g id="patch_26">
    <path clip-path="url(#pbf7ef5c72f)" d="M 156.411069 28.8 
Q 158.685015 28.8 159.939336 32.755961 
Q 161.193657 36.703322 161.331867 41.725673 
L 159.751579 41.725673 
Q 159.482982 37.91591 158.679799 35.688532 
Q 157.876617 33.452554 156.426715 33.452554 
Q 154.65867 33.452554 153.571244 37.554714 
Q 152.483818 41.648273 152.483818 50.11059 
Q 152.483818 57.050722 153.464327 61.367879 
Q 154.447444 65.676437 156.395423 65.676437 
Q 158.186937 65.676437 159.125722 61.135681 
Q 159.621192 58.744905 159.866319 54.840543 
L 161.446608 54.840543 
Q 161.235381 61.075482 160.046253 65.29804 
Q 158.619822 70.38059 156.199842 70.38059 
Q 154.113653 70.38059 152.695045 66.209631 
Q 150.827906 60.705686 150.827906 49.198999 
Q 150.827906 40.470085 152.230868 34.88014 
Q 153.745962 28.8 156.411069 28.8 
z
M 156.085102 28.8 
L 156.085102 28.8 
z
" style="fill:#0000ff;"/>
   </g>
   <g id="patch_27">
    <path clip-path="url(#pbf7ef5c72f)" d="M 167.481942 123.96108 
Q 169.120068 123.96108 170.315115 124.875949 
Q 172.04692 126.1897 172.434298 129.483227 
L 170.877192 129.483227 
Q 170.59109 127.642511 169.697336 126.800832 
Q 168.803583 125.959153 167.441432 125.959153 
Q 165.828625 125.959153 164.724725 127.712041 
Q 163.620826 129.46127 163.620826 132.926792 
Q 163.620826 135.920242 164.52977 137.801212 
Q 165.441247 139.682181 167.497133 139.682181 
Q 169.071962 139.682181 170.104969 138.364771 
Q 171.137976 137.0437 171.160763 134.090505 
L 167.522452 134.090505 
L 167.522452 132.205875 
L 172.624189 132.205875 
L 172.624189 141.193544 
L 171.611437 141.193544 
L 171.231655 139.030795 
Q 170.434113 140.300632 169.816335 140.794661 
Q 168.778264 141.64 167.180648 141.64 
Q 165.117166 141.64 163.628421 139.707798 
Q 162.005487 137.281566 162.005487 133.051214 
Q 162.005487 128.83184 163.587911 126.339738 
Q 165.091848 123.96108 167.481942 123.96108 
z
M 167.221158 123.935464 
L 167.221158 123.935464 
z
" style="fill:#ffa600;"/>
   </g>
   <g id="patch_28">
    <path clip-path="url(#pbf7ef5c72f)" d="M 172.624189 97.635548 
L 172.624189 100.769082 
L 168.21422 100.769082 
L 168.21422 123.935464 
L 166.415455 123.935464 
L 166.415455 100.769082 
L 162.005487 100.769082 
L 162.005487 97.635548 
L 172.624189 97.635548 
z
" style="fill:#ff0000;"/>
   </g>
   <g id="patch_29">
    <path clip-path="url(#pbf7ef5c72f)" d="M 169.133002 84.903613 
L 167.326501 71.176679 
L 165.40596 84.903613 
L 169.133002 84.903613 
z
M 166.484158 66.560422 
L 168.30621 66.560422 
L 172.624189 97.635548 
L 170.856565 97.635548 
L 169.651367 88.328578 
L 164.944615 88.328578 
L 163.656478 97.635548 
L 162.005487 97.635548 
L 166.484158 66.560422 
z
M 167.318725 66.560422 
L 167.318725 66.560422 
z
" style="fill:#008000;"/>
   </g>
   <g id="patch_30">
    <path clip-path="url(#pbf7ef5c72f)" d="M 167.58865 28.8 
Q 169.862596 28.8 171.116917 32.392512 
Q 172.371238 35.977214 172.509448 40.538141 
L 170.92916 40.538141 
Q 170.660563 37.078396 169.857381 35.055656 
Q 169.054198 33.025106 167.604296 33.025106 
Q 165.836251 33.025106 164.748825 36.750385 
Q 163.661399 40.467853 163.661399 48.152704 
Q 163.661399 54.455219 164.641908 58.375743 
Q 165.625025 62.288457 167.573004 62.288457 
Q 169.364518 62.288457 170.303304 58.164878 
Q 170.798773 55.993751 171.043901 52.448099 
L 172.624189 52.448099 
Q 172.412962 58.110209 171.223834 61.944825 
Q 169.797403 66.560422 167.377423 66.560422 
Q 165.291234 66.560422 163.872626 62.772665 
Q 162.005487 57.774388 162.005487 47.324865 
Q 162.005487 39.397909 163.408449 34.321534 
Q 164.923544 28.8 167.58865 28.8 
z
M 167.262683 28.8 
L 167.262683 28.8 
z
" style="fill:#0000ff;"/>
   </g>
   <g id="patch_31">
    <path clip-path="url(#pbf7ef5c72f)" d="M 183.80177 122.980422 
L 183.80177 125.203639 
L 179.391802 125.203639 
L 179.391802 141.64 
L 177.593036 141.64 
L 177.593036 125.203639 
L 173.183068 125.203639 
L 173.183068 122.980422 
L 183.80177 122.980422 
z
" style="fill:#ff0000;"/>
   </g>
   <g id="patch_32">
    <path clip-path="url(#pbf7ef5c72f)" d="M 178.659523 98.625879 
Q 180.297649 98.625879 181.492696 99.886206 
Q 183.224501 101.696034 183.611879 106.233208 
L 182.054773 106.233208 
Q 181.768671 103.697432 180.874917 102.537932 
Q 179.981164 101.378432 178.619013 101.378432 
Q 177.006206 101.378432 175.902306 103.793217 
Q 174.798407 106.20296 174.798407 110.977076 
Q 174.798407 115.100863 175.707352 117.692093 
Q 176.618828 120.283324 178.674714 120.283324 
Q 180.249543 120.283324 181.28255 118.468454 
Q 182.315557 116.648543 182.338344 112.58021 
L 178.700033 112.58021 
L 178.700033 109.983939 
L 183.80177 109.983939 
L 183.80177 122.365382 
L 182.789018 122.365382 
L 182.409236 119.385971 
Q 181.611694 121.135304 180.993916 121.81588 
Q 179.955845 122.980422 178.358229 122.980422 
Q 176.294748 122.980422 174.806003 120.318613 
Q 173.183068 116.976228 173.183068 111.14848 
Q 173.183068 105.335856 174.765492 101.902727 
Q 176.269429 98.625879 178.659523 98.625879 
z
M 178.398739 98.59059 
L 178.398739 98.59059 
z
" style="fill:#ffa600;"/>
   </g>
   <g id="patch_33">
    <path clip-path="url(#pbf7ef5c72f)" d="M 178.766231 69.425548 
Q 181.040177 69.425548 182.294498 72.200299 
Q 183.548819 74.969017 183.68703 78.491744 
L 182.106741 78.491744 
Q 181.838145 75.819539 181.034962 74.257233 
Q 180.231779 72.688896 178.781878 72.688896 
Q 177.013832 72.688896 175.926406 75.566192 
Q 174.83898 78.437456 174.83898 84.373009 
Q 174.83898 89.240887 175.819489 92.268984 
Q 176.802606 95.29105 178.750585 95.29105 
Q 180.5421 95.29105 181.480885 92.106119 
Q 181.976355 90.429204 182.221482 87.690646 
L 183.80177 87.690646 
Q 183.590543 92.063894 182.401416 95.025639 
Q 180.974984 98.59059 178.555005 98.59059 
Q 176.468816 98.59059 175.050207 95.665038 
Q 173.183068 91.804515 173.183068 83.73361 
Q 173.183068 77.611063 174.58603 73.690219 
Q 176.101125 69.425548 178.766231 69.425548 
z
M 178.440264 69.425548 
L 178.440264 69.425548 
z
" style="fill:#0000ff;"/>
   </g>
   <g id="patch_34">
    <path clip-path="url(#pbf7ef5c72f)" d="M 180.310583 52.780666 
L 178.504082 34.834987 
L 176.583541 52.780666 
L 180.310583 52.780666 
z
M 177.661739 28.8 
L 179.483791 28.8 
L 183.80177 69.425548 
L 182.034146 69.425548 
L 180.828948 57.258236 
L 176.122196 57.258236 
L 174.83406 69.425548 
L 173.183068 69.425548 
L 177.661739 28.8 
z
M 178.496307 28.8 
L 178.496307 28.8 
z
" style="fill:#008000;"/>
   </g>
   <g id="patch_35">
    <path clip-path="url(#pbf7ef5c72f)" d="M 189.837104 123.96108 
Q 191.47523 123.96108 192.670277 124.875949 
Q 194.402083 126.1897 194.78946 129.483227 
L 193.232354 129.483227 
Q 192.946252 127.642511 192.052498 126.800832 
Q 191.158745 125.959153 189.796594 125.959153 
Q 188.183787 125.959153 187.079887 127.712041 
Q 185.975988 129.46127 185.975988 132.926792 
Q 185.975988 135.920242 186.884933 137.801212 
Q 187.796409 139.682181 189.852295 139.682181 
Q 191.427124 139.682181 192.460131 138.364771 
Q 193.493138 137.0437 193.515925 134.090505 
L 189.877614 134.090505 
L 189.877614 132.205875 
L 194.979351 132.205875 
L 194.979351 141.193544 
L 193.966599 141.193544 
L 193.586817 139.030795 
Q 192.789275 140.300632 192.171497 140.794661 
Q 191.133426 141.64 189.53581 141.64 
Q 187.472329 141.64 185.983584 139.707798 
Q 184.360649 137.281566 184.360649 133.051214 
Q 184.360649 128.83184 185.943074 126.339738 
Q 187.44701 123.96108 189.837104 123.96108 
z
M 189.57632 123.935464 
L 189.57632 123.935464 
z
" style="fill:#ffa600;"/>
   </g>
   <g id="patch_36">
    <path clip-path="url(#pbf7ef5c72f)" d="M 194.979351 95.725464 
L 194.979351 99.086577 
L 190.569383 99.086577 
L 190.569383 123.935464 
L 188.770617 123.935464 
L 188.770617 99.086577 
L 184.360649 99.086577 
L 184.360649 95.725464 
L 194.979351 95.725464 
z
" style="fill:#ff0000;"/>
   </g>
   <g id="patch_37">
    <path clip-path="url(#pbf7ef5c72f)" d="M 189.943812 63.695295 
Q 192.217758 63.695295 193.472079 66.742633 
Q 194.726401 69.783346 194.864611 73.65214 
L 193.284322 73.65214 
Q 193.015726 70.717421 192.212543 69.001637 
Q 191.40936 67.279229 189.959459 67.279229 
Q 188.191414 67.279229 187.103988 70.439186 
Q 186.016561 73.592518 186.016561 80.111171 
Q 186.016561 85.457261 186.99707 88.782834 
Q 187.980187 92.101782 189.928166 92.101782 
Q 191.719681 92.101782 192.658466 88.603968 
Q 193.153936 86.762316 193.399063 83.754726 
L 194.979351 83.754726 
Q 194.768124 88.557596 193.578997 91.810297 
Q 192.152565 95.725464 189.732586 95.725464 
Q 187.646397 95.725464 186.227788 92.51251 
Q 184.360649 88.272736 184.360649 79.408958 
Q 184.360649 72.684941 185.763611 68.378921 
Q 187.278706 63.695295 189.943812 63.695295 
z
M 189.617845 63.695295 
L 189.617845 63.695295 
z
" style="fill:#0000ff;"/>
   </g>
   <g id="patch_38">
    <path clip-path="url(#pbf7ef5c72f)" d="M 191.488164 49.398181 
L 189.681663 33.983749 
L 187.761122 49.398181 
L 191.488164 49.398181 
z
M 188.83932 28.8 
L 190.661373 28.8 
L 194.979351 63.695295 
L 193.211727 63.695295 
L 192.006529 53.244188 
L 187.299777 53.244188 
L 186.011641 63.695295 
L 184.360649 63.695295 
L 188.83932 28.8 
z
M 189.673888 28.8 
L 189.673888 28.8 
z
" style="fill:#008000;"/>
   </g>
   <g id="patch_39">
    <path clip-path="url(#pbf7ef5c72f)" d="M 201.014685 122.053759 
Q 202.652811 122.053759 203.847858 123.06733 
Q 205.579664 124.522818 205.967041 128.171672 
L 204.409935 128.171672 
Q 204.123833 126.132368 203.23008 125.199883 
Q 202.336326 124.267398 200.974175 124.267398 
Q 199.361368 124.267398 198.257469 126.209399 
Q 197.153569 128.147347 197.153569 131.986752 
Q 197.153569 135.303156 198.062514 137.387057 
Q 198.97399 139.470959 201.029876 139.470959 
Q 202.604705 139.470959 203.637712 138.011417 
Q 204.670719 136.547821 204.693506 133.276014 
L 201.055195 133.276014 
L 201.055195 131.188059 
L 206.156932 131.188059 
L 206.156932 141.145377 
L 205.14418 141.145377 
L 204.764399 138.749296 
Q 203.966857 140.156132 203.349078 140.703461 
Q 202.311007 141.64 200.713392 141.64 
Q 198.64991 141.64 197.161165 139.499339 
Q 195.53823 136.811349 195.53823 132.124598 
Q 195.53823 127.45001 197.120655 124.689043 
Q 198.624591 122.053759 201.014685 122.053759 
z
M 200.753902 122.025379 
L 200.753902 122.025379 
z
" style="fill:#ffa600;"/>
   </g>
   <g id="patch_40">
    <path clip-path="url(#pbf7ef5c72f)" d="M 206.156932 97.635548 
L 206.156932 100.541503 
L 201.746964 100.541503 
L 201.746964 122.025379 
L 199.948198 122.025379 
L 199.948198 100.541503 
L 195.53823 100.541503 
L 195.53823 97.635548 
L 206.156932 97.635548 
z
" style="fill:#ff0000;"/>
   </g>
   <g id="patch_41">
    <path clip-path="url(#pbf7ef5c72f)" d="M 202.665746 85.294908 
L 200.859244 71.989848 
L 198.938703 85.294908 
L 202.665746 85.294908 
z
M 200.016902 67.515464 
L 201.838954 67.515464 
L 206.156932 97.635548 
L 204.389308 97.635548 
L 203.18411 88.614612 
L 198.477358 88.614612 
L 197.189222 97.635548 
L 195.53823 97.635548 
L 200.016902 67.515464 
z
M 200.851469 67.515464 
L 200.851469 67.515464 
z
" style="fill:#008000;"/>
   </g>
   <g id="patch_42">
    <path clip-path="url(#pbf7ef5c72f)" d="M 201.121393 28.8 
Q 203.395339 28.8 204.649661 32.483374 
Q 205.903982 36.158741 206.042192 40.835024 
L 204.461904 40.835024 
Q 204.193307 37.287775 203.390124 35.213875 
Q 202.586941 33.131968 201.13704 33.131968 
Q 199.368995 33.131968 198.281569 36.951467 
Q 197.194143 40.762958 197.194143 48.642176 
Q 197.194143 55.104095 198.174651 59.123777 
Q 199.157768 63.135452 201.105747 63.135452 
Q 202.897262 63.135452 203.836047 58.907579 
Q 204.331517 56.68154 204.576644 53.04621 
L 206.156932 53.04621 
Q 205.945706 58.851528 204.756578 62.783129 
Q 203.330146 67.515464 200.910167 67.515464 
Q 198.823978 67.515464 197.405369 63.631906 
Q 195.53823 58.507212 195.53823 47.793398 
Q 195.53823 39.665953 196.941192 34.461186 
Q 198.456287 28.8 201.121393 28.8 
z
M 200.795426 28.8 
L 200.795426 28.8 
z
" style="fill:#0000ff;"/>
   </g>
   <g id="patch_43">
    <path clip-path="url(#pbf7ef5c72f)" d="M 212.192266 123.00742 
Q 213.830392 123.00742 215.025439 123.971639 
Q 216.757245 125.356259 217.144622 128.827449 
L 215.587517 128.827449 
Q 215.301414 126.88744 214.407661 126.000358 
Q 213.513907 125.113275 212.151756 125.113275 
Q 210.538949 125.113275 209.43505 126.96072 
Q 208.33115 128.804308 208.33115 132.456772 
Q 208.33115 135.611699 209.240095 137.594134 
Q 210.151572 139.57657 212.207458 139.57657 
Q 213.782287 139.57657 214.815293 138.188094 
Q 215.8483 136.795761 215.871087 133.68326 
L 212.232776 133.68326 
L 212.232776 131.696967 
L 217.334513 131.696967 
L 217.334513 141.169461 
L 216.321762 141.169461 
L 215.94198 138.890046 
Q 215.144438 140.228382 214.526659 140.749061 
Q 213.488589 141.64 211.890973 141.64 
Q 209.827491 141.64 208.338746 139.603568 
Q 206.715811 137.046458 206.715811 132.587906 
Q 206.715811 128.140925 208.298236 125.514391 
Q 209.802172 123.00742 212.192266 123.00742 
z
M 211.931483 122.980422 
L 211.931483 122.980422 
z
" style="fill:#ffa600;"/>
   </g>
   <g id="patch_44">
    <path clip-path="url(#pbf7ef5c72f)" d="M 217.334513 97.635548 
L 217.334513 100.655292 
L 212.924545 100.655292 
L 212.924545 122.980422 
L 211.12578 122.980422 
L 211.12578 100.655292 
L 206.715811 100.655292 
L 206.715811 97.635548 
L 217.334513 97.635548 
z
" style="fill:#ff0000;"/>
   </g>
   <g id="patch_45">
    <path clip-path="url(#pbf7ef5c72f)" d="M 213.843327 84.512318 
L 212.036825 70.363509 
L 210.116284 84.512318 
L 213.843327 84.512318 
z
M 211.194483 65.605379 
L 213.016535 65.605379 
L 217.334513 97.635548 
L 215.566889 97.635548 
L 214.361691 88.042544 
L 209.654939 88.042544 
L 208.366803 97.635548 
L 206.715811 97.635548 
L 211.194483 65.605379 
z
M 212.02905 65.605379 
L 212.02905 65.605379 
z
" style="fill:#008000;"/>
   </g>
   <g id="patch_46">
    <path clip-path="url(#pbf7ef5c72f)" d="M 212.298975 28.8 
Q 214.572921 28.8 215.827242 32.301649 
Q 217.081563 35.795686 217.219773 40.241259 
L 215.639485 40.241259 
Q 215.370888 36.869018 214.567705 34.897437 
Q 213.764522 32.918244 212.314621 32.918244 
Q 210.546576 32.918244 209.45915 36.549302 
Q 208.371724 40.172748 208.371724 47.663233 
Q 208.371724 53.806344 209.352233 57.627709 
Q 210.335349 61.441462 212.283328 61.441462 
Q 214.074843 61.441462 215.013628 57.422177 
Q 215.509098 55.305963 215.754225 51.849987 
L 217.334513 51.849987 
Q 217.123287 57.368891 215.934159 61.106521 
Q 214.507727 65.605379 212.087748 65.605379 
Q 210.001559 65.605379 208.58295 61.913423 
Q 206.715811 57.041563 206.715811 46.856331 
Q 206.715811 39.129866 208.118773 34.181883 
Q 209.633868 28.8 212.298975 28.8 
z
M 211.973008 28.8 
L 211.973008 28.8 
z
" style="fill:#0000ff;"/>
   </g>
   <g id="patch_47">
    <path clip-path="url(#pbf7ef5c72f)" d="M 223.369847 118.239118 
Q 225.007973 118.239118 226.20302 119.450093 
Q 227.934826 121.189053 228.322203 125.548564 
L 226.765098 125.548564 
Q 226.478995 123.112082 225.585242 121.997985 
Q 224.691488 120.883888 223.329337 120.883888 
Q 221.71653 120.883888 220.612631 123.204116 
Q 219.508731 125.5195 219.508731 130.106674 
Q 219.508731 134.068984 220.417676 136.558749 
Q 221.329153 139.048513 223.385039 139.048513 
Q 224.959868 139.048513 225.992874 137.304709 
Q 227.025881 135.556061 227.048668 131.647034 
L 223.410357 131.647034 
L 223.410357 129.152425 
L 228.512094 129.152425 
L 228.512094 141.049044 
L 227.499343 141.049044 
L 227.119561 138.186299 
Q 226.322019 139.867133 225.70424 140.521059 
Q 224.66617 141.64 223.068554 141.64 
Q 221.005072 141.64 219.516327 139.082421 
Q 217.893392 135.870915 217.893392 130.271366 
Q 217.893392 124.686349 219.475817 121.387653 
Q 220.979753 118.239118 223.369847 118.239118 
z
M 223.109064 118.205211 
L 223.109064 118.205211 
z
" style="fill:#ffa600;"/>
   </g>
   <g id="patch_48">
    <path clip-path="url(#pbf7ef5c72f)" d="M 225.020908 108.212339 
L 223.214407 97.438526 
L 221.293865 108.212339 
L 225.020908 108.212339 
z
M 222.372064 93.815379 
L 224.194116 93.815379 
L 228.512094 118.205211 
L 226.744471 118.205211 
L 225.539273 110.90048 
L 220.832521 110.90048 
L 219.544384 118.205211 
L 217.893392 118.205211 
L 222.372064 93.815379 
z
M 223.206631 93.815379 
L 223.206631 93.815379 
z
" style="fill:#008000;"/>
   </g>
   <g id="patch_49">
    <path clip-path="url(#pbf7ef5c72f)" d="M 228.512094 65.605379 
L 228.512094 68.966493 
L 224.102126 68.966493 
L 224.102126 93.815379 
L 222.303361 93.815379 
L 222.303361 68.966493 
L 217.893392 68.966493 
L 217.893392 65.605379 
L 228.512094 65.605379 
z
" style="fill:#ff0000;"/>
   </g>
   <g id="patch_50">
    <path clip-path="url(#pbf7ef5c72f)" d="M 223.476556 28.8 
Q 225.750502 28.8 227.004823 32.301649 
Q 228.259144 35.795686 228.397354 40.241259 
L 226.817066 40.241259 
Q 226.548469 36.869018 225.745286 34.897437 
Q 224.942103 32.918244 223.492202 32.918244 
Q 221.724157 32.918244 220.636731 36.549302 
Q 219.549305 40.172748 219.549305 47.663233 
Q 219.549305 53.806344 220.529814 57.627709 
Q 221.51293 61.441462 223.460909 61.441462 
Q 225.252424 61.441462 226.191209 57.422177 
Q 226.686679 55.305963 226.931806 51.849987 
L 228.512094 51.849987 
Q 228.300868 57.368891 227.11174 61.106521 
Q 225.685308 65.605379 223.265329 65.605379 
Q 221.17914 65.605379 219.760531 61.913423 
Q 217.893392 57.041563 217.893392 46.856331 
Q 217.893392 39.129866 219.296354 34.181883 
Q 220.811449 28.8 223.476556 28.8 
z
M 223.150589 28.8 
L 223.150589 28.8 
z
" style="fill:#0000ff;"/>
   </g>
   <g id="patch_51">
    <path clip-path="url(#pbf7ef5c72f)" d="M 239.689676 120.115295 
L 239.689676 122.679881 
L 235.279707 122.679881 
L 235.279707 141.64 
L 233.480942 141.64 
L 233.480942 122.679881 
L 229.070973 122.679881 
L 229.070973 120.115295 
L 239.689676 120.115295 
z
" style="fill:#ff0000;"/>
   </g>
   <g id="patch_52">
    <path clip-path="url(#pbf7ef5c72f)" d="M 234.547429 92.899772 
Q 236.185554 92.899772 237.380602 94.308151 
Q 239.112407 96.330584 239.499785 101.40075 
L 237.942679 101.40075 
Q 237.656576 98.567091 236.762823 97.271382 
Q 235.86907 95.975672 234.506918 95.975672 
Q 232.894111 95.975672 231.790212 98.674127 
Q 230.686312 101.366949 230.686312 106.70189 
Q 230.686312 111.310107 231.595257 114.205735 
Q 232.506734 117.101363 234.56262 117.101363 
Q 236.137449 117.101363 237.170456 115.073297 
Q 238.203462 113.039597 238.226249 108.493348 
L 234.587939 108.493348 
L 234.587939 105.592087 
L 239.689676 105.592087 
L 239.689676 119.428006 
L 238.676924 119.428006 
L 238.297142 116.098597 
Q 237.4996 118.053428 236.881821 118.813953 
Q 235.843751 120.115295 234.246135 120.115295 
Q 232.182653 120.115295 230.693908 117.140798 
Q 229.070973 113.405776 229.070973 106.893429 
Q 229.070973 100.397984 230.653398 96.561558 
Q 232.157334 92.899772 234.547429 92.899772 
z
M 234.286645 92.860337 
L 234.286645 92.860337 
z
" style="fill:#ffa600;"/>
   </g>
   <g id="patch_53">
    <path clip-path="url(#pbf7ef5c72f)" d="M 236.198489 80.128402 
L 234.391988 66.401468 
L 232.471446 80.128402 
L 236.198489 80.128402 
z
M 233.549645 61.785211 
L 235.371697 61.785211 
L 239.689676 92.860337 
L 237.922052 92.860337 
L 236.716854 83.553367 
L 232.010102 83.553367 
L 230.721965 92.860337 
L 229.070973 92.860337 
L 233.549645 61.785211 
z
M 234.384212 61.785211 
L 234.384212 61.785211 
z
" style="fill:#008000;"/>
   </g>
   <g id="patch_54">
    <path clip-path="url(#pbf7ef5c72f)" d="M 234.654137 28.8 
Q 236.928083 28.8 238.182404 31.9382 
Q 239.436725 35.069578 239.574935 39.053727 
L 237.994647 39.053727 
Q 237.72605 36.031504 236.922867 34.264561 
Q 236.119685 32.490796 234.669783 32.490796 
Q 232.901738 32.490796 231.814312 35.744973 
Q 230.726886 38.992328 230.726886 45.705347 
Q 230.726886 51.210841 231.707395 54.635573 
Q 232.690511 58.053482 234.63849 58.053482 
Q 236.430005 58.053482 237.36879 54.451374 
Q 237.86426 52.55481 238.109387 49.457543 
L 239.689676 49.457543 
Q 239.478449 54.403619 238.289321 57.753306 
Q 236.862889 61.785211 234.44291 61.785211 
Q 232.356721 61.785211 230.938113 58.476456 
Q 229.070973 54.110265 229.070973 44.982196 
Q 229.070973 38.05769 230.473936 33.623277 
Q 231.98903 28.8 234.654137 28.8 
z
M 234.32817 28.8 
L 234.32817 28.8 
z
" style="fill:#0000ff;"/>
   </g>
   <g id="patch_55">
    <path clip-path="url(#pbf7ef5c72f)" d="M 250.867257 121.070337 
L 250.867257 123.521134 
L 246.457288 123.521134 
L 246.457288 141.64 
L 244.658523 141.64 
L 244.658523 123.521134 
L 240.248555 123.521134 
L 240.248555 121.070337 
L 250.867257 121.070337 
z
" style="fill:#ff0000;"/>
   </g>
   <g id="patch_56">
    <path clip-path="url(#pbf7ef5c72f)" d="M 245.831718 95.725464 
Q 248.105664 95.725464 249.359985 98.136765 
Q 250.614306 100.542824 250.752516 103.604129 
L 249.172228 103.604129 
Q 248.903631 101.281941 248.100448 99.924273 
Q 247.297266 98.561364 245.847364 98.561364 
Q 244.079319 98.561364 242.991893 101.061778 
Q 241.904467 103.556951 241.904467 108.715039 
Q 241.904467 112.9453 242.884976 115.576764 
Q 243.868093 118.202986 245.816071 118.202986 
Q 247.607586 118.202986 248.546371 115.435231 
Q 249.041841 113.977966 249.286968 111.598117 
L 250.867257 111.598117 
Q 250.65603 115.398537 249.466902 117.972339 
Q 248.040471 121.070337 245.620491 121.070337 
Q 243.534302 121.070337 242.115694 118.527987 
Q 240.248555 115.173133 240.248555 108.159391 
Q 240.248555 102.838803 241.651517 99.431529 
Q 243.166611 95.725464 245.831718 95.725464 
z
M 245.505751 95.725464 
L 245.505751 95.725464 
z
" style="fill:#0000ff;"/>
   </g>
   <g id="patch_57">
    <path clip-path="url(#pbf7ef5c72f)" d="M 247.37607 82.210939 
L 245.569569 67.640256 
L 243.649027 82.210939 
L 247.37607 82.210939 
z
M 244.727226 62.740253 
L 246.549278 62.740253 
L 250.867257 95.725464 
L 249.099633 95.725464 
L 247.894435 85.846425 
L 243.187683 85.846425 
L 241.899546 95.725464 
L 240.248555 95.725464 
L 244.727226 62.740253 
z
M 245.561793 62.740253 
L 245.561793 62.740253 
z
" style="fill:#008000;"/>
   </g>
   <g id="patch_58">
    <path clip-path="url(#pbf7ef5c72f)" d="M 245.72501 28.849107 
Q 247.363136 28.849107 248.558183 30.602944 
Q 250.289988 33.121454 250.677366 39.435267 
L 249.12026 39.435267 
Q 248.834158 35.906547 247.940404 34.293017 
Q 247.046651 32.679487 245.6845 32.679487 
Q 244.071692 32.679487 242.967793 36.039839 
Q 241.863894 39.393175 241.863894 46.03671 
Q 241.863894 51.775264 242.772838 55.381153 
Q 243.684315 58.987042 245.740201 58.987042 
Q 247.31503 58.987042 248.348037 56.461517 
Q 249.381043 53.928976 249.40383 48.26759 
L 245.76552 48.26759 
L 245.76552 44.654686 
L 250.867257 44.654686 
L 250.867257 61.884381 
L 249.854505 61.884381 
L 249.474723 57.73831 
Q 248.677181 60.172636 248.059402 61.119708 
Q 247.021332 62.740253 245.423716 62.740253 
Q 243.360234 62.740253 241.871489 59.036149 
Q 240.248555 54.384974 240.248555 46.275232 
Q 240.248555 38.186535 241.830979 33.409084 
Q 243.334916 28.849107 245.72501 28.849107 
z
M 245.464226 28.8 
L 245.464226 28.8 
z
" style="fill:#ffa600;"/>
   </g>
   <g id="patch_59">
    <path clip-path="url(#pbf7ef5c72f)" d="M 257.009299 118.205211 
Q 259.283245 118.205211 260.537566 120.434787 
Q 261.791887 122.659517 261.930097 125.49011 
L 260.349809 125.49011 
Q 260.081212 123.342931 259.27803 122.087582 
Q 258.474847 120.827387 257.024945 120.827387 
Q 255.2569 120.827387 254.169474 123.139361 
Q 253.082048 125.446488 253.082048 130.215843 
Q 253.082048 134.127296 254.062557 136.560443 
Q 255.045674 138.988743 256.993653 138.988743 
Q 258.785167 138.988743 259.723952 136.429576 
Q 260.219422 135.082137 260.46455 132.881641 
L 262.044838 132.881641 
Q 261.833611 136.395648 260.644483 138.775479 
Q 259.218052 141.64 256.798072 141.64 
Q 254.711883 141.64 253.293275 139.289251 
Q 251.426136 136.187231 251.426136 129.702071 
Q 251.426136 124.782462 252.829098 121.631973 
Q 254.344193 118.205211 257.009299 118.205211 
z
M 256.683332 118.205211 
L 256.683332 118.205211 
z
" style="fill:#0000ff;"/>
   </g>
   <g id="patch_60">
    <path clip-path="url(#pbf7ef5c72f)" d="M 258.553651 107.821045 
L 256.74715 96.625357 
L 254.826609 107.821045 
L 258.553651 107.821045 
z
M 255.904807 92.860337 
L 257.726859 92.860337 
L 262.044838 118.205211 
L 260.277214 118.205211 
L 259.072016 110.614446 
L 254.365264 110.614446 
L 253.077127 118.205211 
L 251.426136 118.205211 
L 255.904807 92.860337 
z
M 256.739374 92.860337 
L 256.739374 92.860337 
z
" style="fill:#008000;"/>
   </g>
   <g id="patch_61">
    <path clip-path="url(#pbf7ef5c72f)" d="M 262.044838 67.515464 
L 262.044838 70.535208 
L 257.634869 70.535208 
L 257.634869 92.860337 
L 255.836104 92.860337 
L 255.836104 70.535208 
L 251.426136 70.535208 
L 251.426136 67.515464 
L 262.044838 67.515464 
z
" style="fill:#ff0000;"/>
   </g>
   <g id="patch_62">
    <path clip-path="url(#pbf7ef5c72f)" d="M 256.902591 28.856017 
Q 258.540717 28.856017 259.735764 30.856609 
Q 261.467569 33.72946 261.854947 40.931592 
L 260.297841 40.931592 
Q 260.011739 36.9064 259.117985 35.065855 
Q 258.224232 33.22531 256.862081 33.22531 
Q 255.249274 33.22531 254.145374 37.058445 
Q 253.041475 40.883578 253.041475 48.461822 
Q 253.041475 55.00776 253.950419 59.120978 
Q 254.861896 63.234196 256.917782 63.234196 
Q 258.492611 63.234196 259.525618 60.353343 
Q 260.558625 57.464488 260.581411 51.006575 
L 256.943101 51.006575 
L 256.943101 46.885355 
L 262.044838 46.885355 
L 262.044838 66.539175 
L 261.032086 66.539175 
L 260.652304 61.809774 
Q 259.854762 64.586597 259.236984 65.666916 
Q 258.198913 67.515464 256.601297 67.515464 
Q 254.537815 67.515464 253.04907 63.290213 
Q 251.426136 57.984642 251.426136 48.733902 
Q 251.426136 39.50717 253.00856 34.057557 
Q 254.512497 28.856017 256.902591 28.856017 
z
M 256.641807 28.8 
L 256.641807 28.8 
z
" style="fill:#ffa600;"/>
   </g>
   <g id="patch_63">
    <path clip-path="url(#pbf7ef5c72f)" d="M 268.18688 123.935464 
Q 270.460826 123.935464 271.715147 125.619866 
Q 272.969468 127.300607 273.107678 129.439066 
L 271.52739 129.439066 
Q 271.258793 127.816913 270.455611 126.868521 
Q 269.652428 125.916468 268.202527 125.916468 
Q 266.434481 125.916468 265.347055 127.66312 
Q 264.259629 129.406111 264.259629 133.009267 
Q 264.259629 135.964296 265.240138 137.802491 
Q 266.223255 139.637026 268.171234 139.637026 
Q 269.962749 139.637026 270.901534 137.703624 
Q 271.397003 136.685659 271.642131 135.023227 
L 273.222419 135.023227 
Q 273.011192 137.677992 271.822065 139.475909 
Q 270.395633 141.64 267.975654 141.64 
Q 265.889465 141.64 264.470856 139.864054 
Q 262.603717 137.520537 262.603717 132.621122 
Q 262.603717 128.904452 264.006679 126.524317 
Q 265.521774 123.935464 268.18688 123.935464 
z
M 267.860913 123.935464 
L 267.860913 123.935464 
z
" style="fill:#0000ff;"/>
   </g>
   <g id="patch_64">
    <path clip-path="url(#pbf7ef5c72f)" d="M 273.222419 93.815379 
L 273.222419 97.404072 
L 268.812451 97.404072 
L 268.812451 123.935464 
L 267.013685 123.935464 
L 267.013685 97.404072 
L 262.603717 97.404072 
L 262.603717 93.815379 
L 273.222419 93.815379 
z
" style="fill:#ff0000;"/>
   </g>
   <g id="patch_65">
    <path clip-path="url(#pbf7ef5c72f)" d="M 268.080172 61.831555 
Q 269.718298 61.831555 270.913345 63.486689 
Q 272.64515 65.863463 273.032528 71.821948 
L 271.475422 71.821948 
Q 271.18932 68.491817 270.295566 66.969093 
Q 269.401813 65.446369 268.039662 65.446369 
Q 266.426855 65.446369 265.322955 68.617607 
Q 264.219056 71.782225 264.219056 78.051876 
Q 264.219056 83.467477 265.128001 86.870434 
Q 266.039477 90.273391 268.095363 90.273391 
Q 269.670192 90.273391 270.703199 87.889997 
Q 271.736206 85.499982 271.758993 80.157207 
L 268.120682 80.157207 
L 268.120682 76.747629 
L 273.222419 76.747629 
L 273.222419 93.007674 
L 272.209667 93.007674 
L 271.829885 89.094935 
Q 271.032343 91.392262 270.414565 92.286035 
Q 269.376494 93.815379 267.778878 93.815379 
Q 265.715397 93.815379 264.226651 90.319735 
Q 262.603717 85.930317 262.603717 78.276974 
Q 262.603717 70.643492 264.186141 66.134905 
Q 265.690078 61.831555 268.080172 61.831555 
z
M 267.819388 61.785211 
L 267.819388 61.785211 
z
" style="fill:#ffa600;"/>
   </g>
   <g id="patch_66">
    <path clip-path="url(#pbf7ef5c72f)" d="M 269.731232 48.270686 
L 267.924731 33.700003 
L 266.00419 48.270686 
L 269.731232 48.270686 
z
M 267.082388 28.8 
L 268.90444 28.8 
L 273.222419 61.785211 
L 271.454795 61.785211 
L 270.249597 51.906173 
L 265.542845 51.906173 
L 264.254709 61.785211 
L 262.603717 61.785211 
L 267.082388 28.8 
z
M 267.916956 28.8 
L 267.916956 28.8 
z
" style="fill:#008000;"/>
   </g>
   <g id="patch_67">
    <path clip-path="url(#pbf7ef5c72f)" d="M 284.4 130.620759 
L 284.4 131.933659 
L 279.990032 131.933659 
L 279.990032 141.64 
L 278.191266 141.64 
L 278.191266 131.933659 
L 273.781298 131.933659 
L 273.781298 130.620759 
L 284.4 130.620759 
z
" style="fill:#ff0000;"/>
   </g>
   <g id="patch_68">
    <path clip-path="url(#pbf7ef5c72f)" d="M 279.364461 111.006138 
Q 281.638407 111.006138 282.892728 112.872266 
Q 284.14705 114.734336 284.28526 117.103506 
L 282.704971 117.103506 
Q 282.436375 115.306345 281.633192 114.255634 
Q 280.830009 113.200866 279.380108 113.200866 
Q 277.612063 113.200866 276.524636 115.135959 
Q 275.43721 117.066995 275.43721 121.058885 
Q 275.43721 124.332721 276.417719 126.369234 
Q 277.400836 128.40169 279.348815 128.40169 
Q 281.14033 128.40169 282.079115 126.259701 
Q 282.574585 125.131911 282.819712 123.290124 
L 284.4 123.290124 
Q 284.188773 126.231303 282.999646 128.223191 
Q 281.573214 130.620759 279.153235 130.620759 
Q 277.067046 130.620759 275.648437 128.653212 
Q 273.781298 126.056861 273.781298 120.628864 
Q 273.781298 116.511214 275.18426 113.874295 
Q 276.699355 111.006138 279.364461 111.006138 
z
M 279.038494 111.006138 
L 279.038494 111.006138 
z
" style="fill:#0000ff;"/>
   </g>
   <g id="patch_69">
    <path clip-path="url(#pbf7ef5c72f)" d="M 279.257753 89.512577 
Q 280.895879 89.512577 282.090926 90.62485 
Q 283.822732 92.222074 284.210109 96.226256 
L 282.653003 96.226256 
Q 282.366901 93.988363 281.473147 92.965072 
Q 280.579394 91.941781 279.217243 91.941781 
Q 277.604436 91.941781 276.500536 94.072896 
Q 275.396637 96.199562 275.396637 100.412851 
Q 275.396637 104.052208 276.305582 106.339041 
Q 277.217058 108.625874 279.272944 108.625874 
Q 280.847773 108.625874 281.88078 107.024201 
Q 282.913787 105.418079 282.936574 101.827663 
L 279.298263 101.827663 
L 279.298263 99.53638 
L 284.4 99.53638 
L 284.4 110.463349 
L 283.387248 110.463349 
L 283.007466 107.833936 
Q 282.209924 109.377771 281.592146 109.978398 
Q 280.554075 111.006138 278.956459 111.006138 
Q 276.892978 111.006138 275.404233 108.657018 
Q 273.781298 105.70727 273.781298 100.564121 
Q 273.781298 95.434318 275.363723 92.404487 
Q 276.867659 89.512577 279.257753 89.512577 
z
M 278.996969 89.481433 
L 278.996969 89.481433 
z
" style="fill:#ffa600;"/>
   </g>
   <g id="patch_70">
    <path clip-path="url(#pbf7ef5c72f)" d="M 280.908813 64.619361 
L 279.102312 37.814319 
L 277.181771 64.619361 
L 280.908813 64.619361 
z
M 278.259969 28.8 
L 280.082022 28.8 
L 284.4 89.481433 
L 282.632376 89.481433 
L 281.427178 71.307404 
L 276.720426 71.307404 
L 275.43229 89.481433 
L 273.781298 89.481433 
L 278.259969 28.8 
z
M 279.094537 28.8 
L 279.094537 28.8 
z
" style="fill:#008000;"/>
   </g>
   <g id="matplotlib.axis_1">
    <g id="xtick_1">
     <g id="text_1">
      <!-- 0 -->
      <g style="fill:#262626;" transform="translate(94.688414 162.986875)scale(0.2 -0.2)">
       <defs>
        <path d="M 1731 4475 
Q 2600 4475 2988 3759 
Q 3288 3206 3288 2244 
Q 3288 1331 3016 734 
Q 2622 -122 1728 -122 
Q 922 -122 528 578 
Q 200 1163 200 2147 
Q 200 2909 397 3456 
Q 766 4475 1731 4475 
z
M 1725 391 
Q 2163 391 2422 778 
Q 2681 1166 2681 2222 
Q 2681 2984 2493 3476 
Q 2306 3969 1766 3969 
Q 1269 3969 1039 3501 
Q 809 3034 809 2125 
Q 809 1441 956 1025 
Q 1181 391 1725 391 
z
" id="Helvetica-30" transform="scale(0.015625)"/>
       </defs>
       <use xlink:href="#Helvetica-30"/>
      </g>
     </g>
    </g>
    <g id="xtick_2">
     <g id="text_2">
      <!-- 10 -->
      <g style="fill:#262626;" transform="translate(200.903287 162.986875)scale(0.2 -0.2)">
       <defs>
        <path d="M 613 3169 
L 613 3600 
Q 1222 3659 1462 3798 
Q 1703 3938 1822 4456 
L 2266 4456 
L 2266 0 
L 1666 0 
L 1666 3169 
L 613 3169 
z
" id="Helvetica-31" transform="scale(0.015625)"/>
       </defs>
       <use xlink:href="#Helvetica-31"/>
       <use x="55.615234" xlink:href="#Helvetica-30"/>
      </g>
     </g>
    </g>
    <g id="text_3">
     <!-- Position -->
     <g style="fill:#262626;" transform="translate(145.20125 189.089219)scale(0.25 -0.25)">
      <defs>
       <path d="M 547 4591 
L 2613 4591 
Q 3225 4591 3600 4245 
Q 3975 3900 3975 3275 
Q 3975 2738 3640 2339 
Q 3306 1941 2613 1941 
L 1169 1941 
L 1169 0 
L 547 0 
L 547 4591 
z
M 3347 3272 
Q 3347 3778 2972 3959 
Q 2766 4056 2406 4056 
L 1169 4056 
L 1169 2466 
L 2406 2466 
Q 2825 2466 3086 2644 
Q 3347 2822 3347 3272 
z
" id="Helvetica-50" transform="scale(0.015625)"/>
       <path d="M 1741 363 
Q 2300 363 2508 786 
Q 2716 1209 2716 1728 
Q 2716 2197 2566 2491 
Q 2328 2953 1747 2953 
Q 1231 2953 997 2559 
Q 763 2166 763 1609 
Q 763 1075 997 719 
Q 1231 363 1741 363 
z
M 1763 3444 
Q 2409 3444 2856 3012 
Q 3303 2581 3303 1744 
Q 3303 934 2909 406 
Q 2516 -122 1688 -122 
Q 997 -122 590 345 
Q 184 813 184 1600 
Q 184 2444 612 2944 
Q 1041 3444 1763 3444 
z
M 1744 3428 
L 1744 3428 
z
" id="Helvetica-6f" transform="scale(0.015625)"/>
       <path d="M 747 1050 
Q 772 769 888 619 
Q 1100 347 1625 347 
Q 1938 347 2175 483 
Q 2413 619 2413 903 
Q 2413 1119 2222 1231 
Q 2100 1300 1741 1391 
L 1294 1503 
Q 866 1609 663 1741 
Q 300 1969 300 2372 
Q 300 2847 642 3140 
Q 984 3434 1563 3434 
Q 2319 3434 2653 2991 
Q 2863 2709 2856 2384 
L 2325 2384 
Q 2309 2575 2191 2731 
Q 1997 2953 1519 2953 
Q 1200 2953 1036 2831 
Q 872 2709 872 2509 
Q 872 2291 1088 2159 
Q 1213 2081 1456 2022 
L 1828 1931 
Q 2434 1784 2641 1647 
Q 2969 1431 2969 969 
Q 2969 522 2630 197 
Q 2291 -128 1597 -128 
Q 850 -128 539 211 
Q 228 550 206 1050 
L 747 1050 
z
M 1578 3428 
L 1578 3428 
z
" id="Helvetica-73" transform="scale(0.015625)"/>
       <path d="M 413 3331 
L 984 3331 
L 984 0 
L 413 0 
L 413 3331 
z
M 413 4591 
L 984 4591 
L 984 3953 
L 413 3953 
L 413 4591 
z
" id="Helvetica-69" transform="scale(0.015625)"/>
       <path d="M 525 4281 
L 1094 4281 
L 1094 3347 
L 1628 3347 
L 1628 2888 
L 1094 2888 
L 1094 703 
Q 1094 528 1213 469 
Q 1278 434 1431 434 
Q 1472 434 1519 436 
Q 1566 438 1628 444 
L 1628 0 
Q 1531 -28 1426 -40 
Q 1322 -53 1200 -53 
Q 806 -53 665 148 
Q 525 350 525 672 
L 525 2888 
L 72 2888 
L 72 3347 
L 525 3347 
L 525 4281 
z
" id="Helvetica-74" transform="scale(0.015625)"/>
       <path d="M 413 3347 
L 947 3347 
L 947 2872 
Q 1184 3166 1450 3294 
Q 1716 3422 2041 3422 
Q 2753 3422 3003 2925 
Q 3141 2653 3141 2147 
L 3141 0 
L 2569 0 
L 2569 2109 
Q 2569 2416 2478 2603 
Q 2328 2916 1934 2916 
Q 1734 2916 1606 2875 
Q 1375 2806 1200 2600 
Q 1059 2434 1017 2257 
Q 975 2081 975 1753 
L 975 0 
L 413 0 
L 413 3347 
z
M 1734 3428 
L 1734 3428 
z
" id="Helvetica-6e" transform="scale(0.015625)"/>
      </defs>
      <use xlink:href="#Helvetica-50"/>
      <use x="66.699219" xlink:href="#Helvetica-6f"/>
      <use x="122.314453" xlink:href="#Helvetica-73"/>
      <use x="172.314453" xlink:href="#Helvetica-69"/>
      <use x="194.53125" xlink:href="#Helvetica-74"/>
      <use x="222.314453" xlink:href="#Helvetica-69"/>
      <use x="244.53125" xlink:href="#Helvetica-6f"/>
      <use x="300.146484" xlink:href="#Helvetica-6e"/>
     </g>
    </g>
   </g>
   <g id="matplotlib.axis_2">
    <g id="ytick_1">
     <g id="text_4">
      <!-- 0 -->
      <g style="fill:#262626;" transform="translate(76.818125 148.813438)scale(0.2 -0.2)">
       <use xlink:href="#Helvetica-30"/>
      </g>
     </g>
    </g>
    <g id="ytick_2">
     <g id="text_5">
      <!-- 0.25 -->
      <g style="fill:#262626;" transform="translate(49.018125 120.603438)scale(0.2 -0.2)">
       <defs>
        <path d="M 547 681 
L 1200 681 
L 1200 0 
L 547 0 
L 547 681 
z
" id="Helvetica-2e" transform="scale(0.015625)"/>
        <path d="M 200 0 
Q 231 578 439 1006 
Q 647 1434 1250 1784 
L 1850 2131 
Q 2253 2366 2416 2531 
Q 2672 2791 2672 3125 
Q 2672 3516 2437 3745 
Q 2203 3975 1813 3975 
Q 1234 3975 1013 3538 
Q 894 3303 881 2888 
L 309 2888 
Q 319 3472 525 3841 
Q 891 4491 1816 4491 
Q 2584 4491 2939 4075 
Q 3294 3659 3294 3150 
Q 3294 2613 2916 2231 
Q 2697 2009 2131 1694 
L 1703 1456 
Q 1397 1288 1222 1134 
Q 909 863 828 531 
L 3272 531 
L 3272 0 
L 200 0 
z
" id="Helvetica-32" transform="scale(0.015625)"/>
        <path d="M 791 1141 
Q 847 659 1238 475 
Q 1438 381 1700 381 
Q 2200 381 2440 700 
Q 2681 1019 2681 1406 
Q 2681 1875 2395 2131 
Q 2109 2388 1709 2388 
Q 1419 2388 1211 2275 
Q 1003 2163 856 1963 
L 369 1991 
L 709 4400 
L 3034 4400 
L 3034 3856 
L 1131 3856 
L 941 2613 
Q 1097 2731 1238 2791 
Q 1488 2894 1816 2894 
Q 2431 2894 2859 2497 
Q 3288 2100 3288 1491 
Q 3288 856 2895 371 
Q 2503 -113 1644 -113 
Q 1097 -113 676 195 
Q 256 503 206 1141 
L 791 1141 
z
" id="Helvetica-35" transform="scale(0.015625)"/>
       </defs>
       <use xlink:href="#Helvetica-30"/>
       <use x="55.615234" xlink:href="#Helvetica-2e"/>
       <use x="83.398438" xlink:href="#Helvetica-32"/>
       <use x="139.013672" xlink:href="#Helvetica-35"/>
      </g>
     </g>
    </g>
    <g id="ytick_3">
     <g id="text_6">
      <!-- 0.50 -->
      <g style="fill:#262626;" transform="translate(49.018125 92.393438)scale(0.2 -0.2)">
       <use xlink:href="#Helvetica-30"/>
       <use x="55.615234" xlink:href="#Helvetica-2e"/>
       <use x="83.398438" xlink:href="#Helvetica-35"/>
       <use x="139.013672" xlink:href="#Helvetica-30"/>
      </g>
     </g>
    </g>
    <g id="ytick_4">
     <g id="text_7">
      <!-- 0.75 -->
      <g style="fill:#262626;" transform="translate(49.018125 64.183437)scale(0.2 -0.2)">
       <defs>
        <path d="M 3347 4400 
L 3347 3909 
Q 3131 3700 2773 3181 
Q 2416 2663 2141 2063 
Q 1869 1478 1728 997 
Q 1638 688 1494 0 
L 872 0 
Q 1084 1281 1809 2550 
Q 2238 3294 2709 3834 
L 234 3834 
L 234 4400 
L 3347 4400 
z
" id="Helvetica-37" transform="scale(0.015625)"/>
       </defs>
       <use xlink:href="#Helvetica-30"/>
       <use x="55.615234" xlink:href="#Helvetica-2e"/>
       <use x="83.398438" xlink:href="#Helvetica-37"/>
       <use x="139.013672" xlink:href="#Helvetica-35"/>
      </g>
     </g>
    </g>
    <g id="ytick_5">
     <g id="text_8">
      <!-- 1.0 -->
      <g style="fill:#262626;" transform="translate(60.14 35.973438)scale(0.2 -0.2)">
       <use xlink:href="#Helvetica-31"/>
       <use x="55.615234" xlink:href="#Helvetica-2e"/>
       <use x="83.398438" xlink:href="#Helvetica-30"/>
      </g>
     </g>
    </g>
    <g id="text_9">
     <!-- Probability -->
     <g style="fill:#262626;" transform="translate(39.65875 143.579375)rotate(-90)scale(0.25 -0.25)">
      <defs>
       <path d="M 428 3347 
L 963 3347 
L 963 2769 
Q 1028 2938 1284 3180 
Q 1541 3422 1875 3422 
Q 1891 3422 1928 3419 
Q 1966 3416 2056 3406 
L 2056 2813 
Q 2006 2822 1964 2825 
Q 1922 2828 1872 2828 
Q 1447 2828 1219 2554 
Q 991 2281 991 1925 
L 991 0 
L 428 0 
L 428 3347 
z
" id="Helvetica-72" transform="scale(0.015625)"/>
       <path d="M 369 4606 
L 916 4606 
L 916 2941 
Q 1100 3181 1356 3307 
Q 1613 3434 1913 3434 
Q 2538 3434 2927 3004 
Q 3316 2575 3316 1738 
Q 3316 944 2931 419 
Q 2547 -106 1866 -106 
Q 1484 -106 1222 78 
Q 1066 188 888 428 
L 888 0 
L 369 0 
L 369 4606 
z
M 1831 391 
Q 2288 391 2514 753 
Q 2741 1116 2741 1709 
Q 2741 2238 2514 2584 
Q 2288 2931 1847 2931 
Q 1463 2931 1173 2647 
Q 884 2363 884 1709 
Q 884 1238 1003 944 
Q 1225 391 1831 391 
z
" id="Helvetica-62" transform="scale(0.015625)"/>
       <path d="M 844 891 
Q 844 647 1022 506 
Q 1200 366 1444 366 
Q 1741 366 2019 503 
Q 2488 731 2488 1250 
L 2488 1703 
Q 2384 1638 2221 1594 
Q 2059 1550 1903 1531 
L 1563 1488 
Q 1256 1447 1103 1359 
Q 844 1213 844 891 
z
M 2206 2028 
Q 2400 2053 2466 2191 
Q 2503 2266 2503 2406 
Q 2503 2694 2298 2823 
Q 2094 2953 1713 2953 
Q 1272 2953 1088 2716 
Q 984 2584 953 2325 
L 428 2325 
Q 444 2944 830 3186 
Q 1216 3428 1725 3428 
Q 2316 3428 2684 3203 
Q 3050 2978 3050 2503 
L 3050 575 
Q 3050 488 3086 434 
Q 3122 381 3238 381 
Q 3275 381 3322 386 
Q 3369 391 3422 400 
L 3422 -16 
Q 3291 -53 3222 -62 
Q 3153 -72 3034 -72 
Q 2744 -72 2613 134 
Q 2544 244 2516 444 
Q 2344 219 2022 53 
Q 1700 -113 1313 -113 
Q 847 -113 551 170 
Q 256 453 256 878 
Q 256 1344 547 1600 
Q 838 1856 1309 1916 
L 2206 2028 
z
M 1741 3428 
L 1741 3428 
z
" id="Helvetica-61" transform="scale(0.015625)"/>
       <path d="M 428 4591 
L 991 4591 
L 991 0 
L 428 0 
L 428 4591 
z
" id="Helvetica-6c" transform="scale(0.015625)"/>
       <path d="M 2503 3347 
L 3125 3347 
Q 3006 3025 2597 1878 
Q 2291 1016 2084 472 
Q 1597 -809 1397 -1090 
Q 1197 -1372 709 -1372 
Q 591 -1372 527 -1362 
Q 463 -1353 369 -1328 
L 369 -816 
Q 516 -856 581 -865 
Q 647 -875 697 -875 
Q 853 -875 926 -823 
Q 1000 -772 1050 -697 
Q 1066 -672 1162 -440 
Q 1259 -209 1303 -97 
L 66 3347 
L 703 3347 
L 1600 622 
L 2503 3347 
z
M 1597 3428 
L 1597 3428 
z
" id="Helvetica-79" transform="scale(0.015625)"/>
      </defs>
      <use xlink:href="#Helvetica-50"/>
      <use x="66.699219" xlink:href="#Helvetica-72"/>
      <use x="100" xlink:href="#Helvetica-6f"/>
      <use x="155.615234" xlink:href="#Helvetica-62"/>
      <use x="211.230469" xlink:href="#Helvetica-61"/>
      <use x="266.845703" xlink:href="#Helvetica-62"/>
      <use x="322.460938" xlink:href="#Helvetica-69"/>
      <use x="344.677734" xlink:href="#Helvetica-6c"/>
      <use x="366.894531" xlink:href="#Helvetica-69"/>
      <use x="389.111328" xlink:href="#Helvetica-74"/>
      <use x="416.894531" xlink:href="#Helvetica-79"/>
     </g>
    </g>
   </g>
   <g id="patch_71">
    <path d="M 94.94 141.64 
L 94.94 28.8 
" style="fill:none;stroke:#000000;stroke-linecap:square;stroke-linejoin:miter;"/>
   </g>
  </g>
 </g>
 <defs>
  <clipPath id="pbf7ef5c72f">
   <rect height="112.84" width="189.46" x="94.94" y="28.8"/>
  </clipPath>
 </defs>
</svg>
