<?xml version="1.0" encoding="utf-8" standalone="no"?>
<!DOCTYPE svg PUBLIC "-//W3C//DTD SVG 1.1//EN"
  "http://www.w3.org/Graphics/SVG/1.1/DTD/svg11.dtd">
<svg height="216pt" version="1.1" viewBox="0 0 306 216" width="306pt" xmlns="http://www.w3.org/2000/svg" xmlns:xlink="http://www.w3.org/1999/xlink">
 <metadata>
  <rdf:RDF xmlns:cc="http://creativecommons.org/ns#" xmlns:dc="http://purl.org/dc/elements/1.1/" xmlns:rdf="http://www.w3.org/1999/02/22-rdf-syntax-ns#">
   <cc:Work>
    <dc:type rdf:resource="http://purl.org/dc/dcmitype/StillImage"/>
    <dc:date>2022-12-27T20:11:03.999577</dc:date>
    <dc:format>image/svg+xml</dc:format>
    <dc:creator>
     <cc:Agent>
      <dc:title>Matplotlib v3.4.2, https://matplotlib.org/</dc:title>
     </cc:Agent>
    </dc:creator>
   </cc:Work>
  </rdf:RDF>
 </metadata>
 <defs>
  <style type="text/css">*{stroke-linecap:butt;stroke-linejoin:round;}</style>
 </defs>
 <g id="figure_1">
  <g id="patch_1">
   <path d="M 0 216 
L 306 216 
L 306 0 
L 0 0 
z
" style="fill:#ffffff;"/>
  </g>
  <g id="axes_1">
   <g id="patch_2">
    <path d="M 94.94 141.64 
L 284.4 141.64 
L 284.4 28.8 
L 94.94 28.8 
z
" style="fill:#ffffff;"/>
   </g>
   <g id="line2d_1">
    <path clip-path="url(#p51143458cb)" d="M 94.94 141.64 
L 284.4 141.64 
" style="fill:none;stroke:#000000;stroke-linecap:round;stroke-width:0.5;"/>
   </g>
   <g id="patch_3">
    <path clip-path="url(#p51143458cb)" d="M 105.558702 129.551694 
L 105.558702 130.991969 
L 101.148734 130.991969 
L 101.148734 141.64 
L 99.349968 141.64 
L 99.349968 130.991969 
L 94.94 130.991969 
L 94.94 129.551694 
L 105.558702 129.551694 
z
" style="fill:#ff0000;"/>
   </g>
   <g id="patch_4">
    <path clip-path="url(#p51143458cb)" d="M 100.523163 107.969589 
Q 102.797109 107.969589 104.051431 110.022902 
Q 105.305752 112.071751 105.443962 114.678566 
L 103.863673 114.678566 
Q 103.595077 112.701136 102.791894 111.545032 
Q 101.988711 110.384463 100.53881 110.384463 
Q 98.770765 110.384463 97.683339 112.51366 
Q 96.595913 114.638392 96.595913 119.030697 
Q 96.595913 122.632922 97.576421 124.873711 
Q 98.559538 127.110037 100.507517 127.110037 
Q 102.299032 127.110037 103.237817 124.753191 
Q 103.733287 123.512275 103.978414 121.485745 
L 105.558702 121.485745 
Q 105.347475 124.721945 104.158348 126.913633 
Q 102.731916 129.551694 100.311937 129.551694 
Q 98.225748 129.551694 96.807139 127.386788 
Q 94.94 124.530005 94.94 118.557542 
Q 94.94 114.026862 96.342962 111.125441 
Q 97.858057 107.969589 100.523163 107.969589 
z
M 100.197196 107.969589 
L 100.197196 107.969589 
z
" style="fill:#0000ff;"/>
   </g>
   <g id="patch_5">
    <path clip-path="url(#p51143458cb)" d="M 100.416455 76.79834 
Q 102.054581 76.79834 103.249628 78.411425 
Q 104.981434 80.727815 105.368811 86.534919 
L 103.811705 86.534919 
Q 103.525603 83.289393 102.63185 81.805355 
Q 101.738096 80.321317 100.375945 80.321317 
Q 98.763138 80.321317 97.659238 83.411988 
Q 96.555339 86.496205 96.555339 92.60657 
Q 96.555339 97.884583 97.464284 101.201085 
Q 98.37576 104.517587 100.431646 104.517587 
Q 102.006475 104.517587 103.039482 102.194745 
Q 104.072489 99.865451 104.095276 94.658414 
L 100.456965 94.658414 
L 100.456965 91.335459 
L 105.558702 91.335459 
L 105.558702 107.182403 
L 104.54595 107.182403 
L 104.166168 103.369071 
Q 103.368626 105.608033 102.750848 106.479098 
Q 101.712777 107.969589 100.115161 107.969589 
Q 98.05168 107.969589 96.562935 104.562754 
Q 94.94 100.284853 94.94 92.82595 
Q 94.94 85.386403 96.522425 80.992361 
Q 98.026361 76.79834 100.416455 76.79834 
z
M 100.155671 76.753174 
L 100.155671 76.753174 
z
" style="fill:#ffa600;"/>
   </g>
   <g id="patch_6">
    <path clip-path="url(#p51143458cb)" d="M 102.067515 57.106056 
L 100.261014 35.923517 
L 98.340473 57.106056 
L 102.067515 57.106056 
z
M 99.418672 28.8 
L 101.240724 28.8 
L 105.558702 76.753174 
L 103.791078 76.753174 
L 102.58588 62.391245 
L 97.879128 62.391245 
L 96.590992 76.753174 
L 94.94 76.753174 
L 99.418672 28.8 
z
M 100.253239 28.8 
L 100.253239 28.8 
z
" style="fill:#008000;"/>
   </g>
   <g id="patch_7">
    <path clip-path="url(#p51143458cb)" d="M 111.700744 125.70513 
Q 113.97469 125.70513 115.229012 127.221167 
Q 116.483333 128.733909 116.621543 130.658617 
L 115.041255 130.658617 
Q 114.772658 129.198607 113.969475 128.345012 
Q 113.166292 127.488122 111.716391 127.488122 
Q 109.948346 127.488122 108.86092 129.060186 
Q 107.773494 130.628955 107.773494 133.871957 
Q 107.773494 136.531614 108.754002 138.186072 
Q 109.737119 139.837234 111.685098 139.837234 
Q 113.476613 139.837234 114.415398 138.097087 
Q 114.910868 137.180873 115.155995 135.68461 
L 116.736283 135.68461 
Q 116.525057 138.074017 115.335929 139.692222 
Q 113.909497 141.64 111.489518 141.64 
Q 109.403329 141.64 107.98472 140.041569 
Q 106.117581 137.9323 106.117581 133.522609 
Q 106.117581 130.17744 107.520543 128.035213 
Q 109.035638 125.70513 111.700744 125.70513 
z
M 111.374777 125.70513 
L 111.374777 125.70513 
z
" style="fill:#0000ff;"/>
   </g>
   <g id="patch_8">
    <path clip-path="url(#p51143458cb)" d="M 116.736283 101.278823 
L 116.736283 104.189123 
L 112.326315 104.189123 
L 112.326315 125.70513 
L 110.527549 125.70513 
L 110.527549 104.189123 
L 106.117581 104.189123 
L 106.117581 101.278823 
L 116.736283 101.278823 
z
" style="fill:#ff0000;"/>
   </g>
   <g id="patch_9">
    <path clip-path="url(#p51143458cb)" d="M 111.594036 75.901244 
Q 113.232162 75.901244 114.427209 77.214512 
Q 116.159015 79.100364 116.546392 83.828126 
L 114.989286 83.828126 
Q 114.703184 81.185832 113.809431 79.977626 
Q 112.915677 78.76942 111.553526 78.76942 
Q 109.940719 78.76942 108.83682 81.28564 
Q 107.73292 83.796608 107.73292 88.771264 
Q 107.73292 93.068275 108.641865 95.768353 
Q 109.553341 98.468431 111.609227 98.468431 
Q 113.184056 98.468431 114.217063 96.577326 
Q 115.25007 94.680967 115.272857 90.44174 
L 111.634546 90.44174 
L 111.634546 87.73641 
L 116.736283 87.73641 
L 116.736283 100.637948 
L 115.723531 100.637948 
L 115.34375 97.533384 
Q 114.546208 99.356199 113.928429 100.065364 
Q 112.890358 101.278823 111.292743 101.278823 
Q 109.229261 101.278823 107.740516 98.505202 
Q 106.117581 95.022417 106.117581 88.949869 
Q 106.117581 82.89308 107.700006 79.315739 
Q 109.203942 75.901244 111.594036 75.901244 
z
M 111.333253 75.864473 
L 111.333253 75.864473 
z
" style="fill:#ffa600;"/>
   </g>
   <g id="patch_10">
    <path clip-path="url(#p51143458cb)" d="M 113.245097 56.581468 
L 111.438595 35.791499 
L 109.518054 56.581468 
L 113.245097 56.581468 
z
M 110.596253 28.8 
L 112.418305 28.8 
L 116.736283 75.864473 
L 114.968659 75.864473 
L 113.763461 61.768709 
L 109.056709 61.768709 
L 107.768573 75.864473 
L 106.117581 75.864473 
L 110.596253 28.8 
z
M 111.43082 28.8 
L 111.43082 28.8 
z
" style="fill:#008000;"/>
   </g>
   <g id="patch_11">
    <path clip-path="url(#p51143458cb)" d="M 122.878326 125.695285 
Q 125.152272 125.695285 126.406593 127.212259 
Q 127.660914 128.725935 127.799124 130.651833 
L 126.218836 130.651833 
Q 125.950239 129.190921 125.147056 128.336799 
Q 124.343873 127.479379 122.893972 127.479379 
Q 121.125927 127.479379 120.038501 129.052415 
Q 118.951075 130.622153 118.951075 133.867158 
Q 118.951075 136.528458 119.931584 138.183938 
Q 120.9147 139.83612 122.862679 139.83612 
Q 124.654194 139.83612 125.592979 138.094898 
Q 126.088449 137.178118 126.333576 135.680931 
L 127.913864 135.680931 
Q 127.702638 138.071814 126.51351 139.691018 
Q 125.087078 141.64 122.667099 141.64 
Q 120.58091 141.64 119.162301 140.040582 
Q 117.295162 137.93001 117.295162 133.517594 
Q 117.295162 130.170358 118.698124 128.026808 
Q 120.213219 125.695285 122.878326 125.695285 
z
M 122.552359 125.695285 
L 122.552359 125.695285 
z
" style="fill:#0000ff;"/>
   </g>
   <g id="patch_12">
    <path clip-path="url(#p51143458cb)" d="M 127.913864 98.806927 
L 127.913864 102.010571 
L 123.503896 102.010571 
L 123.503896 125.695285 
L 121.705131 125.695285 
L 121.705131 102.010571 
L 117.295162 102.010571 
L 117.295162 98.806927 
L 127.913864 98.806927 
z
" style="fill:#ff0000;"/>
   </g>
   <g id="patch_13">
    <path clip-path="url(#p51143458cb)" d="M 122.771617 68.571352 
Q 124.409743 68.571352 125.60479 70.136016 
Q 127.336596 72.382874 127.723973 78.015666 
L 126.166868 78.015666 
Q 125.880765 74.867561 124.987012 73.42807 
Q 124.093258 71.988579 122.731107 71.988579 
Q 121.1183 71.988579 120.014401 74.986476 
Q 118.910501 77.978114 118.910501 83.905063 
Q 118.910501 89.024645 119.819446 92.241595 
Q 120.730923 95.458545 122.786809 95.458545 
Q 124.361638 95.458545 125.394644 93.205428 
Q 126.427651 90.946053 126.450438 85.895316 
L 122.812127 85.895316 
L 122.812127 82.672107 
L 127.913864 82.672107 
L 127.913864 98.04337 
L 126.901113 98.04337 
L 126.521331 94.344504 
Q 125.723789 96.516258 125.10601 97.361177 
Q 124.06794 98.806927 122.470324 98.806927 
Q 120.406842 98.806927 118.918097 95.502355 
Q 117.295162 91.352865 117.295162 84.117857 
Q 117.295162 76.901625 118.877587 72.639479 
Q 120.381523 68.571352 122.771617 68.571352 
z
M 122.510834 68.527541 
L 122.510834 68.527541 
z
" style="fill:#ffa600;"/>
   </g>
   <g id="patch_14">
    <path clip-path="url(#p51143458cb)" d="M 124.422678 52.250585 
L 122.616176 34.701586 
L 120.695635 52.250585 
L 124.422678 52.250585 
z
M 121.773834 28.8 
L 123.595886 28.8 
L 127.913864 68.527541 
L 126.14624 68.527541 
L 124.941042 56.629182 
L 120.23429 56.629182 
L 118.946154 68.527541 
L 117.295162 68.527541 
L 121.773834 28.8 
z
M 122.608401 28.8 
L 122.608401 28.8 
z
" style="fill:#008000;"/>
   </g>
   <g id="patch_15">
    <path clip-path="url(#p51143458cb)" d="M 134.055907 135.340334 
Q 136.329853 135.340334 137.584174 135.939682 
Q 138.838495 136.537727 138.976705 137.298638 
L 137.396417 137.298638 
Q 137.12782 136.72144 136.324637 136.383981 
Q 135.521454 136.045219 134.071553 136.045219 
Q 132.303508 136.045219 131.216082 136.666717 
Q 130.128656 137.286911 130.128656 138.568994 
Q 130.128656 139.620459 131.109165 140.27453 
Q 132.092281 140.927297 134.04026 140.927297 
Q 135.831775 140.927297 136.77056 140.23935 
Q 137.26603 139.877136 137.511157 139.285606 
L 139.091445 139.285606 
Q 138.880219 140.23023 137.691091 140.869968 
Q 136.264659 141.64 133.84468 141.64 
Q 131.758491 141.64 130.339883 141.008079 
Q 128.472743 140.174204 128.472743 138.430884 
Q 128.472743 137.10841 129.875705 136.261506 
Q 131.3908 135.340334 134.055907 135.340334 
z
M 133.72994 135.340334 
L 133.72994 135.340334 
z
" style="fill:#0000ff;"/>
   </g>
   <g id="patch_16">
    <path clip-path="url(#p51143458cb)" d="M 139.091445 125.174415 
L 139.091445 126.385645 
L 134.681477 126.385645 
L 134.681477 135.340334 
L 132.882712 135.340334 
L 132.882712 126.385645 
L 128.472743 126.385645 
L 128.472743 125.174415 
L 139.091445 125.174415 
z
" style="fill:#ff0000;"/>
   </g>
   <g id="patch_17">
    <path clip-path="url(#p51143458cb)" d="M 133.949198 77.270069 
Q 135.587324 77.270069 136.782371 79.749077 
Q 138.514177 83.308932 138.901554 92.23336 
L 137.344449 92.23336 
Q 137.058346 87.245596 136.164593 84.964909 
Q 135.270839 82.684222 133.908688 82.684222 
Q 132.295881 82.684222 131.191982 87.434001 
Q 130.088082 92.173864 130.088082 101.564345 
Q 130.088082 109.675659 130.997027 114.772499 
Q 131.908504 119.869339 133.96439 119.869339 
Q 135.539219 119.869339 136.572225 116.299567 
Q 137.605232 112.71988 137.628019 104.717643 
L 133.989709 104.717643 
L 133.989709 99.610887 
L 139.091445 99.610887 
L 139.091445 123.964659 
L 138.078694 123.964659 
L 137.698912 118.104285 
Q 136.90137 121.545148 136.283591 122.883812 
Q 135.245521 125.174415 133.647905 125.174415 
Q 131.584423 125.174415 130.095678 119.938751 
Q 128.472743 113.364422 128.472743 101.90149 
Q 128.472743 90.468307 130.055168 83.715489 
Q 131.559104 77.270069 133.949198 77.270069 
z
M 133.688415 77.200657 
L 133.688415 77.200657 
z
" style="fill:#ffa600;"/>
   </g>
   <g id="patch_18">
    <path clip-path="url(#p51143458cb)" d="M 135.600259 57.370198 
L 133.793758 35.989991 
L 131.873216 57.370198 
L 135.600259 57.370198 
z
M 132.951415 28.8 
L 134.773467 28.8 
L 139.091445 77.200657 
L 137.323822 77.200657 
L 136.118624 62.704708 
L 131.411872 62.704708 
L 130.123735 77.200657 
L 128.472743 77.200657 
L 132.951415 28.8 
z
M 133.785982 28.8 
L 133.785982 28.8 
z
" style="fill:#008000;"/>
   </g>
   <g id="patch_19">
    <path clip-path="url(#p51143458cb)" d="M 150.269027 136.301528 
L 150.269027 136.937586 
L 145.859058 136.937586 
L 145.859058 141.64 
L 144.060293 141.64 
L 144.060293 136.937586 
L 139.650324 136.937586 
L 139.650324 136.301528 
L 150.269027 136.301528 
z
" style="fill:#ff0000;"/>
   </g>
   <g id="patch_20">
    <path clip-path="url(#p51143458cb)" d="M 145.233488 129.032614 
Q 147.507434 129.032614 148.761755 129.724175 
Q 150.016076 130.414234 150.154286 131.292216 
L 148.573998 131.292216 
Q 148.305401 130.626212 147.502218 130.236833 
Q 146.699036 129.84595 145.249134 129.84595 
Q 143.481089 129.84595 142.393663 130.56307 
Q 141.306237 131.278686 141.306237 132.758026 
Q 141.306237 133.971266 142.286746 134.72597 
Q 143.269862 135.479171 145.217841 135.479171 
Q 147.009356 135.479171 147.948141 134.685378 
Q 148.443611 134.267435 148.688738 133.584893 
L 150.269027 133.584893 
Q 150.0578 134.674855 148.868672 135.413021 
Q 147.44224 136.301528 145.022261 136.301528 
Q 142.936072 136.301528 141.517464 135.572381 
Q 139.650324 134.610209 139.650324 132.598666 
Q 139.650324 131.072721 141.053287 130.095514 
Q 142.568381 129.032614 145.233488 129.032614 
z
M 144.907521 129.032614 
L 144.907521 129.032614 
z
" style="fill:#0000ff;"/>
   </g>
   <g id="patch_21">
    <path clip-path="url(#p51143458cb)" d="M 146.77784 122.886312 
L 144.971339 116.259677 
L 143.050797 122.886312 
L 146.77784 122.886312 
z
M 144.128996 114.031193 
L 145.951048 114.031193 
L 150.269027 129.032614 
L 148.501403 129.032614 
L 147.296205 124.539703 
L 142.589453 124.539703 
L 141.301316 129.032614 
L 139.650324 129.032614 
L 144.128996 114.031193 
z
M 144.963563 114.031193 
L 144.963563 114.031193 
z
" style="fill:#008000;"/>
   </g>
   <g id="patch_22">
    <path clip-path="url(#p51143458cb)" d="M 145.12678 28.923319 
Q 146.764906 28.923319 147.959953 33.327577 
Q 149.691758 39.652091 150.079136 55.507418 
L 148.52203 55.507418 
Q 148.235927 46.646052 147.342174 42.594135 
Q 146.448421 38.542218 145.086269 38.542218 
Q 143.473462 38.542218 142.369563 46.980775 
Q 141.265664 55.401716 141.265664 72.085044 
Q 141.265664 86.495775 142.174608 95.550928 
Q 143.086085 104.606082 145.141971 104.606082 
Q 146.7168 104.606082 147.749807 98.263951 
Q 148.782813 91.904203 148.8056 77.68726 
L 145.16729 77.68726 
L 145.16729 68.614489 
L 150.269027 68.614489 
L 150.269027 111.881916 
L 149.256275 111.881916 
L 148.876493 101.470251 
Q 148.078951 107.58336 147.461172 109.961659 
Q 146.423102 114.031193 144.825486 114.031193 
Q 142.762004 114.031193 141.273259 104.729401 
Q 139.650324 93.04931 139.650324 72.684023 
Q 139.650324 52.371587 141.232749 40.374389 
Q 142.736685 28.923319 145.12678 28.923319 
z
M 144.865996 28.8 
L 144.865996 28.8 
z
" style="fill:#ffa600;"/>
   </g>
   <g id="patch_23">
    <path clip-path="url(#p51143458cb)" d="M 156.411069 128.854516 
Q 158.685015 128.854516 159.939336 130.070921 
Q 161.193657 131.284683 161.331867 132.82899 
L 159.751579 132.82899 
Q 159.482982 131.657538 158.679799 130.972649 
Q 157.876617 130.285115 156.426715 130.285115 
Q 154.65867 130.285115 153.571244 131.546475 
Q 152.483818 132.805191 152.483818 135.407242 
Q 152.483818 137.541241 153.464327 138.86871 
Q 154.447444 140.193535 156.395423 140.193535 
Q 158.186937 140.193535 159.125722 138.797312 
Q 159.621192 138.06218 159.866319 136.86164 
L 161.446608 136.86164 
Q 161.235381 138.778802 160.046253 140.077183 
Q 158.619822 141.64 156.199842 141.64 
Q 154.113653 141.64 152.695045 140.357485 
Q 150.827906 138.665094 150.827906 135.126939 
Q 150.827906 132.442913 152.230868 130.724079 
Q 153.745962 128.854516 156.411069 128.854516 
z
M 156.085102 128.854516 
L 156.085102 128.854516 
z
" style="fill:#0000ff;"/>
   </g>
   <g id="patch_24">
    <path clip-path="url(#p51143458cb)" d="M 161.446608 112.316439 
L 161.446608 114.286887 
L 157.036639 114.286887 
L 157.036639 128.854516 
L 155.237874 128.854516 
L 155.237874 114.286887 
L 150.827906 114.286887 
L 150.827906 112.316439 
L 161.446608 112.316439 
z
" style="fill:#ff0000;"/>
   </g>
   <g id="patch_25">
    <path clip-path="url(#p51143458cb)" d="M 157.955421 97.204794 
L 156.14892 80.912175 
L 154.228378 97.204794 
L 157.955421 97.204794 
z
M 155.306577 75.433099 
L 157.128629 75.433099 
L 161.446608 112.316439 
L 159.678984 112.316439 
L 158.473786 101.269915 
L 153.767034 101.269915 
L 152.478897 112.316439 
L 150.827906 112.316439 
L 155.306577 75.433099 
z
M 156.141144 75.433099 
L 156.141144 75.433099 
z
" style="fill:#008000;"/>
   </g>
   <g id="patch_26">
    <path clip-path="url(#p51143458cb)" d="M 156.304361 28.867472 
Q 157.942487 28.867472 159.137534 31.277203 
Q 160.869339 34.737575 161.256717 43.412604 
L 159.699611 43.412604 
Q 159.413509 38.564227 158.519755 36.347275 
Q 157.626002 34.130323 156.263851 34.130323 
Q 154.651043 34.130323 153.547144 38.747366 
Q 152.443245 43.354771 152.443245 52.482829 
Q 152.443245 60.367466 153.352189 65.321871 
Q 154.263666 70.276276 156.319552 70.276276 
Q 157.894381 70.276276 158.927388 66.806265 
Q 159.960394 63.326615 159.983181 55.548005 
L 156.344871 55.548005 
L 156.344871 50.583961 
L 161.446608 50.583961 
L 161.446608 74.257151 
L 160.433856 74.257151 
L 160.054074 68.560549 
Q 159.256532 71.905254 158.638753 73.206508 
Q 157.600683 75.433099 156.003067 75.433099 
Q 153.939585 75.433099 152.45084 70.343749 
Q 150.827906 63.953144 150.827906 52.810552 
Q 150.827906 41.696876 152.41033 35.132771 
Q 153.914267 28.867472 156.304361 28.867472 
z
M 156.043577 28.8 
L 156.043577 28.8 
z
" style="fill:#ffa600;"/>
   </g>
   <g id="patch_27">
    <path clip-path="url(#p51143458cb)" d="M 167.58865 136.301528 
Q 169.862596 136.301528 171.116917 136.809428 
Q 172.371238 137.316224 172.509448 137.961036 
L 170.92916 137.961036 
Q 170.660563 137.471906 169.857381 137.185936 
Q 169.054198 136.898862 167.604296 136.898862 
Q 165.836251 136.898862 164.748825 137.425533 
Q 163.661399 137.951099 163.661399 139.037564 
Q 163.661399 139.928597 164.641908 140.482871 
Q 165.625025 141.03604 167.573004 141.03604 
Q 169.364518 141.03604 170.303304 140.453059 
Q 170.798773 140.146111 171.043901 139.644836 
L 172.624189 139.644836 
Q 172.412962 140.445331 171.223834 140.987459 
Q 169.797403 141.64 167.377423 141.64 
Q 165.291234 141.64 163.872626 141.104497 
Q 162.005487 140.397853 162.005487 138.920526 
Q 162.005487 137.799833 163.408449 137.082148 
Q 164.923544 136.301528 167.58865 136.301528 
z
M 167.262683 136.301528 
L 167.262683 136.301528 
z
" style="fill:#0000ff;"/>
   </g>
   <g id="patch_28">
    <path clip-path="url(#p51143458cb)" d="M 172.624189 130.963055 
L 172.624189 131.599114 
L 168.21422 131.599114 
L 168.21422 136.301528 
L 166.415455 136.301528 
L 166.415455 131.599114 
L 162.005487 131.599114 
L 162.005487 130.963055 
L 172.624189 130.963055 
z
" style="fill:#ff0000;"/>
   </g>
   <g id="patch_29">
    <path clip-path="url(#p51143458cb)" d="M 169.133002 118.506912 
L 167.326501 105.077322 
L 165.40596 118.506912 
L 169.133002 118.506912 
z
M 166.484158 100.56106 
L 168.30621 100.56106 
L 172.624189 130.963055 
L 170.856565 130.963055 
L 169.651367 121.857688 
L 164.944615 121.857688 
L 163.656478 130.963055 
L 162.005487 130.963055 
L 166.484158 100.56106 
z
M 167.318725 100.56106 
L 167.318725 100.56106 
z
" style="fill:#008000;"/>
   </g>
   <g id="patch_30">
    <path clip-path="url(#p51143458cb)" d="M 167.481942 28.90383 
Q 169.120068 28.90383 170.315115 32.612028 
Q 172.04692 37.937001 172.434298 51.286517 
L 170.877192 51.286517 
Q 170.59109 43.825621 169.697336 40.414078 
Q 168.803583 37.002535 167.441432 37.002535 
Q 165.828625 37.002535 164.724725 44.107444 
Q 163.620826 51.19752 163.620826 65.244176 
Q 163.620826 77.377402 164.52977 85.001458 
Q 165.441247 92.625515 167.497133 92.625515 
Q 169.071962 92.625515 170.104969 87.285709 
Q 171.137976 81.93107 171.160763 69.961005 
L 167.522452 69.961005 
L 167.522452 62.322116 
L 172.624189 62.322116 
L 172.624189 98.751459 
L 171.611437 98.751459 
L 171.231655 89.985277 
Q 170.434113 95.132257 169.816335 97.134684 
Q 168.778264 100.56106 167.180648 100.56106 
Q 165.117166 100.56106 163.628421 92.729344 
Q 162.005487 82.895202 162.005487 65.748491 
Q 162.005487 48.646279 163.587911 38.545146 
Q 165.091848 28.90383 167.481942 28.90383 
z
M 167.221158 28.8 
L 167.221158 28.8 
z
" style="fill:#ffa600;"/>
   </g>
   <g id="patch_31">
    <path clip-path="url(#p51143458cb)" d="M 178.766231 136.321217 
Q 181.040177 136.321217 182.294498 136.827244 
Q 183.548819 137.332171 183.68703 137.974605 
L 182.106741 137.974605 
Q 181.838145 137.487279 181.034962 137.202364 
Q 180.231779 136.916349 178.781878 136.916349 
Q 177.013832 136.916349 175.926406 137.441077 
Q 174.83898 137.964704 174.83898 139.047162 
Q 174.83898 139.934909 175.819489 140.487139 
Q 176.802606 141.038268 178.750585 141.038268 
Q 180.5421 141.038268 181.480885 140.457437 
Q 181.976355 140.151621 182.221482 139.652194 
L 183.80177 139.652194 
Q 183.590543 140.449737 182.401416 140.989865 
Q 180.974984 141.64 178.555005 141.64 
Q 176.468816 141.64 175.050207 141.106472 
Q 173.183068 140.402434 173.183068 138.930556 
Q 173.183068 137.813996 174.58603 137.098958 
Q 176.101125 136.321217 178.766231 136.321217 
z
M 178.440264 136.321217 
L 178.440264 136.321217 
z
" style="fill:#0000ff;"/>
   </g>
   <g id="patch_32">
    <path clip-path="url(#p51143458cb)" d="M 183.80177 122.555745 
L 183.80177 124.195848 
L 179.391802 124.195848 
L 179.391802 136.321217 
L 177.593036 136.321217 
L 177.593036 124.195848 
L 173.183068 124.195848 
L 173.183068 122.555745 
L 183.80177 122.555745 
z
" style="fill:#ff0000;"/>
   </g>
   <g id="patch_33">
    <path clip-path="url(#p51143458cb)" d="M 180.310583 112.691301 
L 178.504082 102.055951 
L 176.583541 112.691301 
L 180.310583 112.691301 
z
M 177.661739 98.479369 
L 179.483791 98.479369 
L 183.80177 122.555745 
L 182.034146 122.555745 
L 180.828948 115.344894 
L 176.122196 115.344894 
L 174.83406 122.555745 
L 173.183068 122.555745 
L 177.661739 98.479369 
z
M 178.496307 98.479369 
L 178.496307 98.479369 
z
" style="fill:#008000;"/>
   </g>
   <g id="patch_34">
    <path clip-path="url(#p51143458cb)" d="M 178.659523 28.900818 
Q 180.297649 28.900818 181.492696 32.501446 
Q 183.224501 37.671949 183.611879 50.634213 
L 182.054773 50.634213 
Q 181.768671 43.389748 180.874917 40.077169 
Q 179.981164 36.764591 178.619013 36.764591 
Q 177.006206 36.764591 175.902306 43.663396 
Q 174.798407 50.547798 174.798407 64.18698 
Q 174.798407 75.968238 175.707352 83.37113 
Q 176.618828 90.774023 178.674714 90.774023 
Q 180.249543 90.774023 181.28255 85.589118 
Q 182.315557 80.38981 182.338344 68.76698 
L 178.700033 68.76698 
L 178.700033 61.349685 
L 183.80177 61.349685 
L 183.80177 96.722262 
L 182.789018 96.722262 
L 182.409236 88.210376 
Q 181.611694 93.208048 180.993916 95.152388 
Q 179.955845 98.479369 178.358229 98.479369 
Q 176.294748 98.479369 174.806003 90.874841 
Q 173.183068 81.325973 173.183068 64.676666 
Q 173.183068 48.070565 174.765492 38.262453 
Q 176.269429 28.900818 178.659523 28.900818 
z
M 178.398739 28.8 
L 178.398739 28.8 
z
" style="fill:#ffa600;"/>
   </g>
   <g id="patch_35">
    <path clip-path="url(#p51143458cb)" d="M 194.979351 135.339439 
L 194.979351 136.090127 
L 190.569383 136.090127 
L 190.569383 141.64 
L 188.770617 141.64 
L 188.770617 136.090127 
L 184.360649 136.090127 
L 184.360649 135.339439 
L 194.979351 135.339439 
z
" style="fill:#ff0000;"/>
   </g>
   <g id="patch_36">
    <path clip-path="url(#p51143458cb)" d="M 189.943812 129.036194 
Q 192.217758 129.036194 193.472079 129.635882 
Q 194.726401 130.234267 194.864611 130.99561 
L 193.284322 130.99561 
Q 193.015726 130.418084 192.212543 130.080433 
Q 191.40936 129.741479 189.959459 129.741479 
Q 188.191414 129.741479 187.103988 130.36333 
Q 186.016561 130.983877 186.016561 132.266688 
Q 186.016561 133.31875 186.99707 133.973193 
Q 187.980187 134.626332 189.928166 134.626332 
Q 191.719681 134.626332 192.658466 133.937994 
Q 193.153936 133.575573 193.399063 132.983707 
L 194.979351 132.983707 
Q 194.768124 133.928868 193.578997 134.56897 
Q 192.152565 135.339439 189.732586 135.339439 
Q 187.646397 135.339439 186.227788 134.707159 
Q 184.360649 133.87281 184.360649 132.128499 
Q 184.360649 130.805274 185.763611 129.957888 
Q 187.278706 129.036194 189.943812 129.036194 
z
M 189.617845 129.036194 
L 189.617845 129.036194 
z
" style="fill:#0000ff;"/>
   </g>
   <g id="patch_37">
    <path clip-path="url(#p51143458cb)" d="M 191.488164 109.85366 
L 189.681663 89.172012 
L 187.761122 109.85366 
L 191.488164 109.85366 
z
M 188.83932 82.216942 
L 190.661373 82.216942 
L 194.979351 129.036194 
L 193.211727 129.036194 
L 192.006529 115.013874 
L 187.299777 115.013874 
L 186.011641 129.036194 
L 184.360649 129.036194 
L 188.83932 82.216942 
z
M 189.673888 82.216942 
L 189.673888 82.216942 
z
" style="fill:#008000;"/>
   </g>
   <g id="patch_38">
    <path clip-path="url(#p51143458cb)" d="M 189.837104 28.877288 
Q 191.47523 28.877288 192.670277 31.637568 
Q 194.402083 35.60133 194.78946 45.538339 
L 193.232354 45.538339 
Q 192.946252 39.984655 192.052498 37.445197 
Q 191.158745 34.90574 189.796594 34.90574 
Q 188.183787 34.90574 187.079887 40.194436 
Q 185.975988 45.472092 185.975988 55.928033 
Q 185.975988 64.95967 186.884933 70.634806 
Q 187.796409 76.309942 189.852295 76.309942 
Q 191.427124 76.309942 192.460131 72.335139 
Q 193.493138 68.349294 193.515925 59.43911 
L 189.877614 59.43911 
L 189.877614 53.752933 
L 194.979351 53.752933 
L 194.979351 80.869925 
L 193.966599 80.869925 
L 193.586817 74.344623 
Q 192.789275 78.175891 192.171497 79.666443 
Q 191.133426 82.216942 189.53581 82.216942 
Q 187.472329 82.216942 185.983584 76.38723 
Q 184.360649 69.066967 184.360649 56.303431 
Q 184.360649 43.573019 185.943074 36.054016 
Q 187.44701 28.877288 189.837104 28.877288 
z
M 189.57632 28.8 
L 189.57632 28.8 
z
" style="fill:#ffa600;"/>
   </g>
   <g id="patch_39">
    <path clip-path="url(#p51143458cb)" d="M 206.156932 127.612303 
L 206.156932 129.283649 
L 201.746964 129.283649 
L 201.746964 141.64 
L 199.948198 141.64 
L 199.948198 129.283649 
L 195.53823 129.283649 
L 195.53823 127.612303 
L 206.156932 127.612303 
z
" style="fill:#ff0000;"/>
   </g>
   <g id="patch_40">
    <path clip-path="url(#p51143458cb)" d="M 201.121393 110.719819 
Q 203.395339 110.719819 204.649661 112.326963 
Q 205.903982 113.930614 206.042192 115.970988 
L 204.461904 115.970988 
Q 204.193307 114.423239 203.390124 113.518346 
Q 202.586941 112.609961 201.13704 112.609961 
Q 199.368995 112.609961 198.281569 114.276499 
Q 197.194143 115.939544 197.194143 119.377435 
Q 197.194143 122.196925 198.174651 123.950809 
Q 199.157768 125.701199 201.105747 125.701199 
Q 202.897262 125.701199 203.836047 123.856476 
Q 204.331517 122.885202 204.576644 121.299021 
L 206.156932 121.299021 
Q 205.945706 123.83202 204.756578 125.547472 
Q 203.330146 127.612303 200.910167 127.612303 
Q 198.823978 127.612303 197.405369 125.917814 
Q 195.53823 123.681787 195.53823 119.007093 
Q 195.53823 115.460895 196.941192 113.18993 
Q 198.456287 110.719819 201.121393 110.719819 
z
M 200.795426 110.719819 
L 200.795426 110.719819 
z
" style="fill:#0000ff;"/>
   </g>
   <g id="patch_41">
    <path clip-path="url(#p51143458cb)" d="M 202.665746 99.048373 
L 200.859244 86.464803 
L 198.938703 99.048373 
L 202.665746 99.048373 
z
M 200.016902 82.233051 
L 201.838954 82.233051 
L 206.156932 110.719819 
L 204.389308 110.719819 
L 203.18411 102.18806 
L 198.477358 102.18806 
L 197.189222 110.719819 
L 195.53823 110.719819 
L 200.016902 82.233051 
z
M 200.851469 82.233051 
L 200.851469 82.233051 
z
" style="fill:#008000;"/>
   </g>
   <g id="patch_42">
    <path clip-path="url(#p51143458cb)" d="M 201.014685 28.877311 
Q 202.652811 28.877311 203.847858 31.638424 
Q 205.579664 35.603381 205.967041 45.543387 
L 204.409935 45.543387 
Q 204.123833 39.988028 203.23008 37.447805 
Q 202.336326 34.907581 200.974175 34.907581 
Q 199.361368 34.907581 198.257469 40.197873 
Q 197.153569 45.47712 197.153569 55.936215 
Q 197.153569 64.970575 198.062514 70.647422 
Q 198.97399 76.32427 201.029876 76.32427 
Q 202.604705 76.32427 203.637712 72.348268 
Q 204.670719 68.361221 204.693506 59.44835 
L 201.055195 59.44835 
L 201.055195 53.760458 
L 206.156932 53.760458 
L 206.156932 80.885628 
L 205.14418 80.885628 
L 204.764399 74.358358 
Q 203.966857 78.190782 203.349078 79.681783 
Q 202.311007 82.233051 200.713392 82.233051 
Q 198.64991 82.233051 197.161165 76.401581 
Q 195.53823 69.079111 195.53823 56.311726 
Q 195.53823 43.577475 197.120655 36.056204 
Q 198.624591 28.877311 201.014685 28.877311 
z
M 200.753902 28.8 
L 200.753902 28.8 
z
" style="fill:#ffa600;"/>
   </g>
   <g id="patch_43">
    <path clip-path="url(#p51143458cb)" d="M 217.334513 128.593185 
L 217.334513 130.147663 
L 212.924545 130.147663 
L 212.924545 141.64 
L 211.12578 141.64 
L 211.12578 130.147663 
L 206.715811 130.147663 
L 206.715811 128.593185 
L 217.334513 128.593185 
z
" style="fill:#ff0000;"/>
   </g>
   <g id="patch_44">
    <path clip-path="url(#p51143458cb)" d="M 212.192266 108.035175 
Q 213.830392 108.035175 215.025439 109.099034 
Q 216.757245 110.626736 217.144622 114.456628 
L 215.587517 114.456628 
Q 215.301414 112.316144 214.407661 111.337393 
Q 213.513907 110.358643 212.151756 110.358643 
Q 210.538949 110.358643 209.43505 112.396997 
Q 208.33115 114.431095 208.33115 118.460993 
Q 208.33115 121.941939 209.240095 124.129233 
Q 210.151572 126.316527 212.207458 126.316527 
Q 213.782287 126.316527 214.815293 124.78457 
Q 215.8483 123.248358 215.871087 119.814221 
L 212.232776 119.814221 
L 212.232776 117.622672 
L 217.334513 117.622672 
L 217.334513 128.074022 
L 216.321762 128.074022 
L 215.94198 125.55906 
Q 215.144438 127.035696 214.526659 127.61018 
Q 213.488589 128.593185 211.890973 128.593185 
Q 209.827491 128.593185 208.338746 126.346315 
Q 206.715811 123.524961 206.715811 118.605678 
Q 206.715811 113.69916 208.298236 110.801209 
Q 209.802172 108.035175 212.192266 108.035175 
z
M 211.931483 108.005387 
L 211.931483 108.005387 
z
" style="fill:#ffa600;"/>
   </g>
   <g id="patch_45">
    <path clip-path="url(#p51143458cb)" d="M 212.298975 81.429371 
Q 214.572921 81.429371 215.827242 83.957803 
Q 217.081563 86.480738 217.219773 89.690747 
L 215.639485 89.690747 
Q 215.370888 87.255758 214.567705 85.832141 
Q 213.764522 84.403027 212.314621 84.403027 
Q 210.546576 84.403027 209.45915 87.024901 
Q 208.371724 89.641278 208.371724 95.049923 
Q 208.371724 99.485672 209.352233 102.24496 
Q 210.335349 104.998752 212.283328 104.998752 
Q 214.074843 104.998752 215.013628 102.096552 
Q 215.509098 100.5685 215.754225 98.073048 
L 217.334513 98.073048 
Q 217.123287 102.058076 215.934159 104.756902 
Q 214.507727 108.005387 212.087748 108.005387 
Q 210.001559 108.005387 208.58295 105.339541 
Q 206.715811 101.821723 206.715811 94.467284 
Q 206.715811 88.888245 208.118773 85.315461 
Q 209.633868 81.429371 212.298975 81.429371 
z
M 211.973008 81.429371 
L 211.973008 81.429371 
z
" style="fill:#0000ff;"/>
   </g>
   <g id="patch_46">
    <path clip-path="url(#p51143458cb)" d="M 213.843327 59.866346 
L 212.036825 36.618173 
L 210.116284 59.866346 
L 213.843327 59.866346 
z
M 211.194483 28.8 
L 213.016535 28.8 
L 217.334513 81.429371 
L 215.566889 81.429371 
L 214.361691 65.666926 
L 209.654939 65.666926 
L 208.366803 81.429371 
L 206.715811 81.429371 
L 211.194483 28.8 
z
M 212.02905 28.8 
L 212.02905 28.8 
z
" style="fill:#008000;"/>
   </g>
   <g id="patch_47">
    <path clip-path="url(#p51143458cb)" d="M 228.512094 135.336754 
L 228.512094 136.087762 
L 224.102126 136.087762 
L 224.102126 141.64 
L 222.303361 141.64 
L 222.303361 136.087762 
L 217.893392 136.087762 
L 217.893392 135.336754 
L 228.512094 135.336754 
z
" style="fill:#ff0000;"/>
   </g>
   <g id="patch_48">
    <path clip-path="url(#p51143458cb)" d="M 223.476556 121.305477 
Q 225.750502 121.305477 227.004823 122.640407 
Q 228.259144 123.972436 228.397354 125.667217 
L 226.817066 125.667217 
Q 226.548469 124.381621 225.745286 123.629997 
Q 224.942103 122.875471 223.492202 122.875471 
Q 221.724157 122.875471 220.636731 124.259736 
Q 219.549305 125.641098 219.549305 128.496688 
Q 219.549305 130.83862 220.529814 132.295435 
Q 221.51293 133.749348 223.460909 133.749348 
Q 225.252424 133.749348 226.191209 132.217081 
Q 226.686679 131.410318 226.931806 130.0928 
L 228.512094 130.0928 
Q 228.300868 132.196766 227.11174 133.621659 
Q 225.685308 135.336754 223.265329 135.336754 
Q 221.17914 135.336754 219.760531 133.929274 
Q 217.893392 132.071979 217.893392 128.189074 
Q 217.893392 125.243521 219.296354 123.357207 
Q 220.811449 121.305477 223.476556 121.305477 
z
M 223.150589 121.305477 
L 223.150589 121.305477 
z
" style="fill:#0000ff;"/>
   </g>
   <g id="patch_49">
    <path clip-path="url(#p51143458cb)" d="M 223.369847 82.398612 
Q 225.007973 82.398612 226.20302 84.412008 
Q 227.934826 87.303245 228.322203 94.55147 
L 226.765098 94.55147 
Q 226.478995 90.500518 225.585242 88.648193 
Q 224.691488 86.795869 223.329337 86.795869 
Q 221.71653 86.795869 220.612631 90.653536 
Q 219.508731 94.503149 219.508731 102.129893 
Q 219.508731 108.717725 220.417676 112.857267 
Q 221.329153 116.99681 223.385039 116.99681 
Q 224.959868 116.99681 225.992874 114.097519 
Q 227.025881 111.190175 227.048668 104.690933 
L 223.410357 104.690933 
L 223.410357 100.543337 
L 228.512094 100.543337 
L 228.512094 120.32294 
L 227.499343 120.32294 
L 227.119561 115.563272 
Q 226.322019 118.357865 225.70424 119.445099 
Q 224.66617 121.305477 223.068554 121.305477 
Q 221.005072 121.305477 219.516327 117.053185 
Q 217.893392 111.713658 217.893392 102.403715 
Q 217.893392 93.117932 219.475817 87.633442 
Q 220.979753 82.398612 223.369847 82.398612 
z
M 223.109064 82.342237 
L 223.109064 82.342237 
z
" style="fill:#ffa600;"/>
   </g>
   <g id="patch_50">
    <path clip-path="url(#p51143458cb)" d="M 225.020908 60.405197 
L 223.214407 36.75378 
L 221.293865 60.405197 
L 225.020908 60.405197 
z
M 222.372064 28.8 
L 224.194116 28.8 
L 228.512094 82.342237 
L 226.744471 82.342237 
L 225.539273 66.306389 
L 220.832521 66.306389 
L 219.544384 82.342237 
L 217.893392 82.342237 
L 222.372064 28.8 
z
M 223.206631 28.8 
L 223.206631 28.8 
z
" style="fill:#008000;"/>
   </g>
   <g id="patch_51">
    <path clip-path="url(#p51143458cb)" d="M 234.654137 135.346599 
Q 236.928083 135.346599 238.182404 135.945351 
Q 239.436725 136.542801 239.574935 137.302955 
L 237.994647 137.302955 
Q 237.72605 136.726331 236.922867 136.389208 
Q 236.119685 136.050783 234.669783 136.050783 
Q 232.901738 136.050783 231.814312 136.671663 
Q 230.726886 137.29124 230.726886 138.572048 
Q 230.726886 139.622467 231.707395 140.275887 
Q 232.690511 140.928006 234.63849 140.928006 
Q 236.430005 140.928006 237.36879 140.240743 
Q 237.86426 139.878889 238.109387 139.287947 
L 239.689676 139.287947 
Q 239.478449 140.231632 238.289321 140.870734 
Q 236.862889 141.64 234.44291 141.64 
Q 232.356721 141.64 230.938113 141.008707 
Q 229.070973 140.175662 229.070973 138.434075 
Q 229.070973 137.112916 230.473936 136.266854 
Q 231.98903 135.346599 234.654137 135.346599 
z
M 234.32817 135.346599 
L 234.32817 135.346599 
z
" style="fill:#0000ff;"/>
   </g>
   <g id="patch_52">
    <path clip-path="url(#p51143458cb)" d="M 234.547429 117.734129 
Q 236.185554 117.734129 237.380602 118.645559 
Q 239.112407 119.954372 239.499785 123.235519 
L 237.942679 123.235519 
Q 237.656576 121.401722 236.762823 120.563207 
Q 235.86907 119.724692 234.506918 119.724692 
Q 232.894111 119.724692 231.790212 121.470991 
Q 230.686312 123.213645 230.686312 126.666141 
Q 230.686312 129.64834 231.595257 131.522239 
Q 232.506734 133.396139 234.56262 133.396139 
Q 236.137449 133.396139 237.170456 132.08368 
Q 238.203462 130.767575 238.226249 127.82548 
L 234.587939 127.82548 
L 234.587939 125.947935 
L 239.689676 125.947935 
L 239.689676 134.901821 
L 238.676924 134.901821 
L 238.297142 132.747201 
Q 237.4996 134.012266 236.881821 134.504438 
Q 235.843751 135.346599 234.246135 135.346599 
Q 232.182653 135.346599 230.693908 133.421659 
Q 229.070973 131.004547 229.070973 126.790096 
Q 229.070973 122.586581 230.653398 120.103846 
Q 232.157334 117.734129 234.547429 117.734129 
z
M 234.286645 117.708609 
L 234.286645 117.708609 
z
" style="fill:#ffa600;"/>
   </g>
   <g id="patch_53">
    <path clip-path="url(#p51143458cb)" d="M 239.689676 81.649533 
L 239.689676 85.945833 
L 235.279707 85.945833 
L 235.279707 117.708609 
L 233.480942 117.708609 
L 233.480942 85.945833 
L 229.070973 85.945833 
L 229.070973 81.649533 
L 239.689676 81.649533 
z
" style="fill:#ff0000;"/>
   </g>
   <g id="patch_54">
    <path clip-path="url(#p51143458cb)" d="M 236.198489 59.996305 
L 234.391988 36.650878 
L 232.471446 59.996305 
L 236.198489 59.996305 
z
M 233.549645 28.8 
L 235.371697 28.8 
L 239.689676 81.649533 
L 237.922052 81.649533 
L 236.716854 65.82115 
L 232.010102 65.82115 
L 230.721965 81.649533 
L 229.070973 81.649533 
L 233.549645 28.8 
z
M 234.384212 28.8 
L 234.384212 28.8 
z
" style="fill:#008000;"/>
   </g>
   <g id="patch_55">
    <path clip-path="url(#p51143458cb)" d="M 245.72501 126.689776 
Q 247.363136 126.689776 248.558183 127.463437 
Q 250.289988 128.574414 250.677366 131.359593 
L 249.12026 131.359593 
Q 248.834158 129.802988 247.940404 129.09122 
Q 247.046651 128.379452 245.6845 128.379452 
Q 244.071692 128.379452 242.967793 129.861786 
Q 241.863894 131.341026 241.863894 134.271653 
Q 241.863894 136.803072 242.772838 138.393719 
Q 243.684315 139.984366 245.740201 139.984366 
Q 247.31503 139.984366 248.348037 138.870294 
Q 249.381043 137.753127 249.40383 135.25575 
L 245.76552 135.25575 
L 245.76552 133.662008 
L 250.867257 133.662008 
L 250.867257 141.262453 
L 249.854505 141.262453 
L 249.474723 139.433519 
Q 248.677181 140.50736 248.059402 140.925137 
Q 247.021332 141.64 245.423716 141.64 
Q 243.360234 141.64 241.871489 140.006028 
Q 240.248555 137.954279 240.248555 134.376871 
Q 240.248555 130.808747 241.830979 128.701294 
Q 243.334916 126.689776 245.72501 126.689776 
z
M 245.464226 126.668114 
L 245.464226 126.668114 
z
" style="fill:#ffa600;"/>
   </g>
   <g id="patch_56">
    <path clip-path="url(#p51143458cb)" d="M 245.831718 104.930284 
Q 248.105664 104.930284 249.359985 106.998413 
Q 250.614306 109.062045 250.752516 111.687669 
L 249.172228 111.687669 
Q 248.903631 109.695972 248.100448 108.531525 
Q 247.297266 107.362583 245.847364 107.362583 
Q 244.079319 107.362583 242.991893 109.507142 
Q 241.904467 111.647206 241.904467 116.071203 
Q 241.904467 119.699419 242.884976 121.956377 
Q 243.868093 124.208839 245.816071 124.208839 
Q 247.607586 124.208839 248.546371 121.834987 
Q 249.041841 120.585118 249.286968 118.543965 
L 250.867257 118.543965 
Q 250.65603 121.803515 249.466902 124.011018 
Q 248.040471 126.668114 245.620491 126.668114 
Q 243.534302 126.668114 242.115694 124.487587 
Q 240.248555 121.61019 240.248555 115.594634 
Q 240.248555 111.031263 241.651517 108.108908 
Q 243.166611 104.930284 245.831718 104.930284 
z
M 245.505751 104.930284 
L 245.505751 104.930284 
z
" style="fill:#0000ff;"/>
   </g>
   <g id="patch_57">
    <path clip-path="url(#p51143458cb)" d="M 247.37607 95.630162 
L 245.569569 85.603235 
L 243.649027 95.630162 
L 247.37607 95.630162 
z
M 244.727226 82.231261 
L 246.549278 82.231261 
L 250.867257 104.930284 
L 249.099633 104.930284 
L 247.894435 98.131949 
L 243.187683 98.131949 
L 241.899546 104.930284 
L 240.248555 104.930284 
L 244.727226 82.231261 
z
M 245.561793 82.231261 
L 245.561793 82.231261 
z
" style="fill:#008000;"/>
   </g>
   <g id="patch_58">
    <path clip-path="url(#p51143458cb)" d="M 250.867257 28.8 
L 250.867257 35.166129 
L 246.457288 35.166129 
L 246.457288 82.231261 
L 244.658523 82.231261 
L 244.658523 35.166129 
L 240.248555 35.166129 
L 240.248555 28.8 
L 250.867257 28.8 
z
" style="fill:#ff0000;"/>
   </g>
   <g id="patch_59">
    <path clip-path="url(#p51143458cb)" d="M 256.902591 129.55846 
Q 258.540717 129.55846 259.735764 130.183669 
Q 261.467569 131.08147 261.854947 133.332222 
L 260.297841 133.332222 
Q 260.011739 132.074302 259.117985 131.499109 
Q 258.224232 130.923917 256.862081 130.923917 
Q 255.249274 130.923917 254.145374 132.121817 
Q 253.041475 133.317217 253.041475 135.685509 
Q 253.041475 137.731193 253.950419 139.016623 
Q 254.861896 140.302053 256.917782 140.302053 
Q 258.492611 140.302053 259.525618 139.401752 
Q 260.558625 138.49895 260.581411 136.480775 
L 256.943101 136.480775 
L 256.943101 135.192844 
L 262.044838 135.192844 
L 262.044838 141.334898 
L 261.032086 141.334898 
L 260.652304 139.856904 
Q 259.854762 140.724694 259.236984 141.062307 
Q 258.198913 141.64 256.601297 141.64 
Q 254.537815 141.64 253.04907 140.319558 
Q 251.426136 138.661504 251.426136 135.770537 
Q 251.426136 132.887073 253.00856 131.184004 
Q 254.512497 129.55846 256.902591 129.55846 
z
M 256.641807 129.540954 
L 256.641807 129.540954 
z
" style="fill:#ffa600;"/>
   </g>
   <g id="patch_60">
    <path clip-path="url(#p51143458cb)" d="M 262.044838 107.046879 
L 262.044838 109.726961 
L 257.634869 109.726961 
L 257.634869 129.540954 
L 255.836104 129.540954 
L 255.836104 109.726961 
L 251.426136 109.726961 
L 251.426136 107.046879 
L 262.044838 107.046879 
z
" style="fill:#ff0000;"/>
   </g>
   <g id="patch_61">
    <path clip-path="url(#p51143458cb)" d="M 257.009299 79.503405 
Q 259.283245 79.503405 260.537566 82.12388 
Q 261.791887 84.738658 261.930097 88.065523 
L 260.349809 88.065523 
Q 260.081212 85.541891 259.27803 84.06645 
Q 258.474847 82.585311 257.024945 82.585311 
Q 255.2569 82.585311 254.169474 85.30263 
Q 253.082048 88.014253 253.082048 93.619791 
Q 253.082048 98.217016 254.062557 101.076752 
Q 255.045674 103.930792 256.993653 103.930792 
Q 258.785167 103.930792 259.723952 100.922942 
Q 260.219422 99.339263 260.46455 96.752968 
L 262.044838 96.752968 
Q 261.833611 100.883065 260.644483 103.680138 
Q 259.218052 107.046879 256.798072 107.046879 
Q 254.711883 107.046879 253.293275 104.283986 
Q 251.426136 100.638108 251.426136 93.015942 
Q 251.426136 87.233807 252.829098 83.530961 
Q 254.344193 79.503405 257.009299 79.503405 
z
M 256.683332 79.503405 
L 256.683332 79.503405 
z
" style="fill:#0000ff;"/>
   </g>
   <g id="patch_62">
    <path clip-path="url(#p51143458cb)" d="M 258.553651 58.729476 
L 256.74715 36.332068 
L 254.826609 58.729476 
L 258.553651 58.729476 
z
M 255.904807 28.8 
L 257.726859 28.8 
L 262.044838 79.503405 
L 260.277214 79.503405 
L 259.072016 64.317785 
L 254.365264 64.317785 
L 253.077127 79.503405 
L 251.426136 79.503405 
L 255.904807 28.8 
z
M 256.739374 28.8 
L 256.739374 28.8 
z
" style="fill:#008000;"/>
   </g>
   <g id="patch_63">
    <path clip-path="url(#p51143458cb)" d="M 268.080172 136.318189 
Q 269.718298 136.318189 270.913345 136.593588 
Q 272.64515 136.989061 273.032528 137.980497 
L 271.475422 137.980497 
Q 271.18932 137.426394 270.295566 137.173027 
Q 269.401813 136.91966 268.039662 136.91966 
Q 266.426855 136.91966 265.322955 137.447325 
Q 264.219056 137.973888 264.219056 139.017099 
Q 264.219056 139.918205 265.128001 140.484426 
Q 266.039477 141.050646 268.095363 141.050646 
Q 269.670192 141.050646 270.703199 140.654071 
Q 271.736206 140.256395 271.758993 139.367407 
L 268.120682 139.367407 
L 268.120682 138.800085 
L 273.222419 138.800085 
L 273.222419 141.505605 
L 272.209667 141.505605 
L 271.829885 140.854562 
Q 271.032343 141.236816 270.414565 141.385531 
Q 269.376494 141.64 267.778878 141.64 
Q 265.715397 141.64 264.226651 141.058357 
Q 262.603717 140.327999 262.603717 139.054554 
Q 262.603717 137.784413 264.186141 137.034226 
Q 265.690078 136.318189 268.080172 136.318189 
z
M 267.819388 136.310477 
L 267.819388 136.310477 
z
" style="fill:#ffa600;"/>
   </g>
   <g id="patch_64">
    <path clip-path="url(#p51143458cb)" d="M 269.731232 128.978697 
L 267.924731 121.073938 
L 266.00419 128.978697 
L 269.731232 128.978697 
z
M 267.082388 118.415632 
L 268.90444 118.415632 
L 273.222419 136.310477 
L 271.454795 136.310477 
L 270.249597 130.950989 
L 265.542845 130.950989 
L 264.254709 136.310477 
L 262.603717 136.310477 
L 267.082388 118.415632 
z
M 267.916956 118.415632 
L 267.916956 118.415632 
z
" style="fill:#008000;"/>
   </g>
   <g id="patch_65">
    <path clip-path="url(#p51143458cb)" d="M 273.222419 75.105542 
L 273.222419 80.265772 
L 268.812451 80.265772 
L 268.812451 118.415632 
L 267.013685 118.415632 
L 267.013685 80.265772 
L 262.603717 80.265772 
L 262.603717 75.105542 
L 273.222419 75.105542 
z
" style="fill:#ff0000;"/>
   </g>
   <g id="patch_66">
    <path clip-path="url(#p51143458cb)" d="M 268.18688 28.8 
Q 270.460826 28.8 271.715147 33.205491 
Q 272.969468 37.601405 273.107678 43.194463 
L 271.52739 43.194463 
Q 271.258793 38.951784 270.455611 36.471301 
Q 269.652428 33.981241 268.202527 33.981241 
Q 266.434481 33.981241 265.347055 38.549543 
Q 264.259629 43.108269 264.259629 52.532189 
Q 264.259629 60.260952 265.240138 65.068684 
Q 266.223255 69.866838 268.171234 69.866838 
Q 269.962749 69.866838 270.901534 64.810101 
Q 271.397003 62.147652 271.642131 57.799624 
L 273.222419 57.799624 
Q 273.011192 64.743061 271.822065 69.445443 
Q 270.395633 75.105542 267.975654 75.105542 
Q 265.889465 75.105542 264.470856 70.460622 
Q 262.603717 64.331243 262.603717 51.51701 
Q 262.603717 41.796199 264.006679 35.571048 
Q 265.521774 28.8 268.18688 28.8 
z
M 267.860913 28.8 
L 267.860913 28.8 
z
" style="fill:#0000ff;"/>
   </g>
   <g id="patch_67">
    <path clip-path="url(#p51143458cb)" d="M 279.257753 135.344087 
Q 280.895879 135.344087 282.090926 135.669895 
Q 283.822732 136.137755 284.210109 137.310664 
L 282.653003 137.310664 
Q 282.366901 136.655138 281.473147 136.355395 
Q 280.579394 136.055652 279.217243 136.055652 
Q 277.604436 136.055652 276.500536 136.6799 
Q 275.396637 137.302844 275.396637 138.537005 
Q 275.396637 139.603049 276.305582 140.27291 
Q 277.217058 140.942771 279.272944 140.942771 
Q 280.847773 140.942771 281.88078 140.473608 
Q 282.913787 140.003141 282.936574 138.951433 
L 279.298263 138.951433 
L 279.298263 138.280268 
L 284.4 138.280268 
L 284.4 141.481006 
L 283.387248 141.481006 
L 283.007466 140.710796 
Q 282.209924 141.163017 281.592146 141.338953 
Q 280.554075 141.64 278.956459 141.64 
Q 276.892978 141.64 275.404233 140.951894 
Q 273.781298 140.087851 273.781298 138.581315 
Q 273.781298 137.078689 275.363723 136.191188 
Q 276.867659 135.344087 279.257753 135.344087 
z
M 278.996969 135.334964 
L 278.996969 135.334964 
z
" style="fill:#ffa600;"/>
   </g>
   <g id="patch_68">
    <path clip-path="url(#p51143458cb)" d="M 280.908813 131.960769 
L 279.102312 128.32288 
L 277.181771 131.960769 
L 280.908813 131.960769 
z
M 278.259969 127.099487 
L 280.082022 127.099487 
L 284.4 135.334964 
L 282.632376 135.334964 
L 281.427178 132.868447 
L 276.720426 132.868447 
L 275.43229 135.334964 
L 273.781298 135.334964 
L 278.259969 127.099487 
z
M 279.094537 127.099487 
L 279.094537 127.099487 
z
" style="fill:#008000;"/>
   </g>
   <g id="patch_69">
    <path clip-path="url(#p51143458cb)" d="M 279.364461 87.066762 
Q 281.638407 87.066762 282.892728 90.87546 
Q 284.14705 94.675878 284.28526 99.511268 
L 282.704971 99.511268 
Q 282.436375 95.843327 281.633192 93.698864 
Q 280.830009 91.546122 279.380108 91.546122 
Q 277.612063 91.546122 276.524636 95.495576 
Q 275.43721 99.43675 275.43721 107.584051 
Q 275.43721 114.265832 276.417719 118.42228 
Q 277.400836 122.570449 279.348815 122.570449 
Q 281.14033 122.570449 282.079115 118.198726 
Q 282.574585 115.896948 282.819712 112.137929 
L 284.4 112.137929 
Q 284.188773 118.140768 282.999646 122.206139 
Q 281.573214 127.099487 279.153235 127.099487 
Q 277.067046 127.099487 275.648437 123.083795 
Q 273.781298 117.784737 273.781298 106.706395 
Q 273.781298 98.302421 275.18426 92.920565 
Q 276.699355 87.066762 279.364461 87.066762 
z
M 279.038494 87.066762 
L 279.038494 87.066762 
z
" style="fill:#0000ff;"/>
   </g>
   <g id="patch_70">
    <path clip-path="url(#p51143458cb)" d="M 284.4 28.8 
L 284.4 35.742261 
L 279.990032 35.742261 
L 279.990032 87.066762 
L 278.191266 87.066762 
L 278.191266 35.742261 
L 273.781298 35.742261 
L 273.781298 28.8 
L 284.4 28.8 
z
" style="fill:#ff0000;"/>
   </g>
   <g id="matplotlib.axis_1">
    <g id="xtick_1">
     <g id="text_1">
      <!-- 0 -->
      <g style="fill:#262626;" transform="translate(94.688414 162.986875)scale(0.2 -0.2)">
       <defs>
        <path d="M 1731 4475 
Q 2600 4475 2988 3759 
Q 3288 3206 3288 2244 
Q 3288 1331 3016 734 
Q 2622 -122 1728 -122 
Q 922 -122 528 578 
Q 200 1163 200 2147 
Q 200 2909 397 3456 
Q 766 4475 1731 4475 
z
M 1725 391 
Q 2163 391 2422 778 
Q 2681 1166 2681 2222 
Q 2681 2984 2493 3476 
Q 2306 3969 1766 3969 
Q 1269 3969 1039 3501 
Q 809 3034 809 2125 
Q 809 1441 956 1025 
Q 1181 391 1725 391 
z
" id="Helvetica-30" transform="scale(0.015625)"/>
       </defs>
       <use xlink:href="#Helvetica-30"/>
      </g>
     </g>
    </g>
    <g id="xtick_2">
     <g id="text_2">
      <!-- 10 -->
      <g style="fill:#262626;" transform="translate(200.903287 162.986875)scale(0.2 -0.2)">
       <defs>
        <path d="M 613 3169 
L 613 3600 
Q 1222 3659 1462 3798 
Q 1703 3938 1822 4456 
L 2266 4456 
L 2266 0 
L 1666 0 
L 1666 3169 
L 613 3169 
z
" id="Helvetica-31" transform="scale(0.015625)"/>
       </defs>
       <use xlink:href="#Helvetica-31"/>
       <use x="55.615234" xlink:href="#Helvetica-30"/>
      </g>
     </g>
    </g>
    <g id="text_3">
     <!-- Position -->
     <g style="fill:#262626;" transform="translate(145.20125 189.089219)scale(0.25 -0.25)">
      <defs>
       <path d="M 547 4591 
L 2613 4591 
Q 3225 4591 3600 4245 
Q 3975 3900 3975 3275 
Q 3975 2738 3640 2339 
Q 3306 1941 2613 1941 
L 1169 1941 
L 1169 0 
L 547 0 
L 547 4591 
z
M 3347 3272 
Q 3347 3778 2972 3959 
Q 2766 4056 2406 4056 
L 1169 4056 
L 1169 2466 
L 2406 2466 
Q 2825 2466 3086 2644 
Q 3347 2822 3347 3272 
z
" id="Helvetica-50" transform="scale(0.015625)"/>
       <path d="M 1741 363 
Q 2300 363 2508 786 
Q 2716 1209 2716 1728 
Q 2716 2197 2566 2491 
Q 2328 2953 1747 2953 
Q 1231 2953 997 2559 
Q 763 2166 763 1609 
Q 763 1075 997 719 
Q 1231 363 1741 363 
z
M 1763 3444 
Q 2409 3444 2856 3012 
Q 3303 2581 3303 1744 
Q 3303 934 2909 406 
Q 2516 -122 1688 -122 
Q 997 -122 590 345 
Q 184 813 184 1600 
Q 184 2444 612 2944 
Q 1041 3444 1763 3444 
z
M 1744 3428 
L 1744 3428 
z
" id="Helvetica-6f" transform="scale(0.015625)"/>
       <path d="M 747 1050 
Q 772 769 888 619 
Q 1100 347 1625 347 
Q 1938 347 2175 483 
Q 2413 619 2413 903 
Q 2413 1119 2222 1231 
Q 2100 1300 1741 1391 
L 1294 1503 
Q 866 1609 663 1741 
Q 300 1969 300 2372 
Q 300 2847 642 3140 
Q 984 3434 1563 3434 
Q 2319 3434 2653 2991 
Q 2863 2709 2856 2384 
L 2325 2384 
Q 2309 2575 2191 2731 
Q 1997 2953 1519 2953 
Q 1200 2953 1036 2831 
Q 872 2709 872 2509 
Q 872 2291 1088 2159 
Q 1213 2081 1456 2022 
L 1828 1931 
Q 2434 1784 2641 1647 
Q 2969 1431 2969 969 
Q 2969 522 2630 197 
Q 2291 -128 1597 -128 
Q 850 -128 539 211 
Q 228 550 206 1050 
L 747 1050 
z
M 1578 3428 
L 1578 3428 
z
" id="Helvetica-73" transform="scale(0.015625)"/>
       <path d="M 413 3331 
L 984 3331 
L 984 0 
L 413 0 
L 413 3331 
z
M 413 4591 
L 984 4591 
L 984 3953 
L 413 3953 
L 413 4591 
z
" id="Helvetica-69" transform="scale(0.015625)"/>
       <path d="M 525 4281 
L 1094 4281 
L 1094 3347 
L 1628 3347 
L 1628 2888 
L 1094 2888 
L 1094 703 
Q 1094 528 1213 469 
Q 1278 434 1431 434 
Q 1472 434 1519 436 
Q 1566 438 1628 444 
L 1628 0 
Q 1531 -28 1426 -40 
Q 1322 -53 1200 -53 
Q 806 -53 665 148 
Q 525 350 525 672 
L 525 2888 
L 72 2888 
L 72 3347 
L 525 3347 
L 525 4281 
z
" id="Helvetica-74" transform="scale(0.015625)"/>
       <path d="M 413 3347 
L 947 3347 
L 947 2872 
Q 1184 3166 1450 3294 
Q 1716 3422 2041 3422 
Q 2753 3422 3003 2925 
Q 3141 2653 3141 2147 
L 3141 0 
L 2569 0 
L 2569 2109 
Q 2569 2416 2478 2603 
Q 2328 2916 1934 2916 
Q 1734 2916 1606 2875 
Q 1375 2806 1200 2600 
Q 1059 2434 1017 2257 
Q 975 2081 975 1753 
L 975 0 
L 413 0 
L 413 3347 
z
M 1734 3428 
L 1734 3428 
z
" id="Helvetica-6e" transform="scale(0.015625)"/>
      </defs>
      <use xlink:href="#Helvetica-50"/>
      <use x="66.699219" xlink:href="#Helvetica-6f"/>
      <use x="122.314453" xlink:href="#Helvetica-73"/>
      <use x="172.314453" xlink:href="#Helvetica-69"/>
      <use x="194.53125" xlink:href="#Helvetica-74"/>
      <use x="222.314453" xlink:href="#Helvetica-69"/>
      <use x="244.53125" xlink:href="#Helvetica-6f"/>
      <use x="300.146484" xlink:href="#Helvetica-6e"/>
     </g>
    </g>
   </g>
   <g id="matplotlib.axis_2">
    <g id="ytick_1">
     <g id="text_4">
      <!-- 0 -->
      <g style="fill:#262626;" transform="translate(76.818125 148.813438)scale(0.2 -0.2)">
       <use xlink:href="#Helvetica-30"/>
      </g>
     </g>
    </g>
    <g id="ytick_2">
     <g id="text_5">
      <!-- 0.25 -->
      <g style="fill:#262626;" transform="translate(49.018125 120.603437)scale(0.2 -0.2)">
       <defs>
        <path d="M 547 681 
L 1200 681 
L 1200 0 
L 547 0 
L 547 681 
z
" id="Helvetica-2e" transform="scale(0.015625)"/>
        <path d="M 200 0 
Q 231 578 439 1006 
Q 647 1434 1250 1784 
L 1850 2131 
Q 2253 2366 2416 2531 
Q 2672 2791 2672 3125 
Q 2672 3516 2437 3745 
Q 2203 3975 1813 3975 
Q 1234 3975 1013 3538 
Q 894 3303 881 2888 
L 309 2888 
Q 319 3472 525 3841 
Q 891 4491 1816 4491 
Q 2584 4491 2939 4075 
Q 3294 3659 3294 3150 
Q 3294 2613 2916 2231 
Q 2697 2009 2131 1694 
L 1703 1456 
Q 1397 1288 1222 1134 
Q 909 863 828 531 
L 3272 531 
L 3272 0 
L 200 0 
z
" id="Helvetica-32" transform="scale(0.015625)"/>
        <path d="M 791 1141 
Q 847 659 1238 475 
Q 1438 381 1700 381 
Q 2200 381 2440 700 
Q 2681 1019 2681 1406 
Q 2681 1875 2395 2131 
Q 2109 2388 1709 2388 
Q 1419 2388 1211 2275 
Q 1003 2163 856 1963 
L 369 1991 
L 709 4400 
L 3034 4400 
L 3034 3856 
L 1131 3856 
L 941 2613 
Q 1097 2731 1238 2791 
Q 1488 2894 1816 2894 
Q 2431 2894 2859 2497 
Q 3288 2100 3288 1491 
Q 3288 856 2895 371 
Q 2503 -113 1644 -113 
Q 1097 -113 676 195 
Q 256 503 206 1141 
L 791 1141 
z
" id="Helvetica-35" transform="scale(0.015625)"/>
       </defs>
       <use xlink:href="#Helvetica-30"/>
       <use x="55.615234" xlink:href="#Helvetica-2e"/>
       <use x="83.398438" xlink:href="#Helvetica-32"/>
       <use x="139.013672" xlink:href="#Helvetica-35"/>
      </g>
     </g>
    </g>
    <g id="ytick_3">
     <g id="text_6">
      <!-- 0.50 -->
      <g style="fill:#262626;" transform="translate(49.018125 92.393438)scale(0.2 -0.2)">
       <use xlink:href="#Helvetica-30"/>
       <use x="55.615234" xlink:href="#Helvetica-2e"/>
       <use x="83.398438" xlink:href="#Helvetica-35"/>
       <use x="139.013672" xlink:href="#Helvetica-30"/>
      </g>
     </g>
    </g>
    <g id="ytick_4">
     <g id="text_7">
      <!-- 0.75 -->
      <g style="fill:#262626;" transform="translate(49.018125 64.183437)scale(0.2 -0.2)">
       <defs>
        <path d="M 3347 4400 
L 3347 3909 
Q 3131 3700 2773 3181 
Q 2416 2663 2141 2063 
Q 1869 1478 1728 997 
Q 1638 688 1494 0 
L 872 0 
Q 1084 1281 1809 2550 
Q 2238 3294 2709 3834 
L 234 3834 
L 234 4400 
L 3347 4400 
z
" id="Helvetica-37" transform="scale(0.015625)"/>
       </defs>
       <use xlink:href="#Helvetica-30"/>
       <use x="55.615234" xlink:href="#Helvetica-2e"/>
       <use x="83.398438" xlink:href="#Helvetica-37"/>
       <use x="139.013672" xlink:href="#Helvetica-35"/>
      </g>
     </g>
    </g>
    <g id="ytick_5">
     <g id="text_8">
      <!-- 1.0 -->
      <g style="fill:#262626;" transform="translate(60.14 35.973437)scale(0.2 -0.2)">
       <use xlink:href="#Helvetica-31"/>
       <use x="55.615234" xlink:href="#Helvetica-2e"/>
       <use x="83.398438" xlink:href="#Helvetica-30"/>
      </g>
     </g>
    </g>
    <g id="text_9">
     <!-- Probability -->
     <g style="fill:#262626;" transform="translate(39.65875 143.579375)rotate(-90)scale(0.25 -0.25)">
      <defs>
       <path d="M 428 3347 
L 963 3347 
L 963 2769 
Q 1028 2938 1284 3180 
Q 1541 3422 1875 3422 
Q 1891 3422 1928 3419 
Q 1966 3416 2056 3406 
L 2056 2813 
Q 2006 2822 1964 2825 
Q 1922 2828 1872 2828 
Q 1447 2828 1219 2554 
Q 991 2281 991 1925 
L 991 0 
L 428 0 
L 428 3347 
z
" id="Helvetica-72" transform="scale(0.015625)"/>
       <path d="M 369 4606 
L 916 4606 
L 916 2941 
Q 1100 3181 1356 3307 
Q 1613 3434 1913 3434 
Q 2538 3434 2927 3004 
Q 3316 2575 3316 1738 
Q 3316 944 2931 419 
Q 2547 -106 1866 -106 
Q 1484 -106 1222 78 
Q 1066 188 888 428 
L 888 0 
L 369 0 
L 369 4606 
z
M 1831 391 
Q 2288 391 2514 753 
Q 2741 1116 2741 1709 
Q 2741 2238 2514 2584 
Q 2288 2931 1847 2931 
Q 1463 2931 1173 2647 
Q 884 2363 884 1709 
Q 884 1238 1003 944 
Q 1225 391 1831 391 
z
" id="Helvetica-62" transform="scale(0.015625)"/>
       <path d="M 844 891 
Q 844 647 1022 506 
Q 1200 366 1444 366 
Q 1741 366 2019 503 
Q 2488 731 2488 1250 
L 2488 1703 
Q 2384 1638 2221 1594 
Q 2059 1550 1903 1531 
L 1563 1488 
Q 1256 1447 1103 1359 
Q 844 1213 844 891 
z
M 2206 2028 
Q 2400 2053 2466 2191 
Q 2503 2266 2503 2406 
Q 2503 2694 2298 2823 
Q 2094 2953 1713 2953 
Q 1272 2953 1088 2716 
Q 984 2584 953 2325 
L 428 2325 
Q 444 2944 830 3186 
Q 1216 3428 1725 3428 
Q 2316 3428 2684 3203 
Q 3050 2978 3050 2503 
L 3050 575 
Q 3050 488 3086 434 
Q 3122 381 3238 381 
Q 3275 381 3322 386 
Q 3369 391 3422 400 
L 3422 -16 
Q 3291 -53 3222 -62 
Q 3153 -72 3034 -72 
Q 2744 -72 2613 134 
Q 2544 244 2516 444 
Q 2344 219 2022 53 
Q 1700 -113 1313 -113 
Q 847 -113 551 170 
Q 256 453 256 878 
Q 256 1344 547 1600 
Q 838 1856 1309 1916 
L 2206 2028 
z
M 1741 3428 
L 1741 3428 
z
" id="Helvetica-61" transform="scale(0.015625)"/>
       <path d="M 428 4591 
L 991 4591 
L 991 0 
L 428 0 
L 428 4591 
z
" id="Helvetica-6c" transform="scale(0.015625)"/>
       <path d="M 2503 3347 
L 3125 3347 
Q 3006 3025 2597 1878 
Q 2291 1016 2084 472 
Q 1597 -809 1397 -1090 
Q 1197 -1372 709 -1372 
Q 591 -1372 527 -1362 
Q 463 -1353 369 -1328 
L 369 -816 
Q 516 -856 581 -865 
Q 647 -875 697 -875 
Q 853 -875 926 -823 
Q 1000 -772 1050 -697 
Q 1066 -672 1162 -440 
Q 1259 -209 1303 -97 
L 66 3347 
L 703 3347 
L 1600 622 
L 2503 3347 
z
M 1597 3428 
L 1597 3428 
z
" id="Helvetica-79" transform="scale(0.015625)"/>
      </defs>
      <use xlink:href="#Helvetica-50"/>
      <use x="66.699219" xlink:href="#Helvetica-72"/>
      <use x="100" xlink:href="#Helvetica-6f"/>
      <use x="155.615234" xlink:href="#Helvetica-62"/>
      <use x="211.230469" xlink:href="#Helvetica-61"/>
      <use x="266.845703" xlink:href="#Helvetica-62"/>
      <use x="322.460938" xlink:href="#Helvetica-69"/>
      <use x="344.677734" xlink:href="#Helvetica-6c"/>
      <use x="366.894531" xlink:href="#Helvetica-69"/>
      <use x="389.111328" xlink:href="#Helvetica-74"/>
      <use x="416.894531" xlink:href="#Helvetica-79"/>
     </g>
    </g>
   </g>
   <g id="patch_71">
    <path d="M 94.94 141.64 
L 94.94 28.8 
" style="fill:none;stroke:#000000;stroke-linecap:square;stroke-linejoin:miter;"/>
   </g>
  </g>
 </g>
 <defs>
  <clipPath id="p51143458cb">
   <rect height="112.84" width="189.46" x="94.94" y="28.8"/>
  </clipPath>
 </defs>
</svg>
