<?xml version="1.0" encoding="utf-8" standalone="no"?>
<!DOCTYPE svg PUBLIC "-//W3C//DTD SVG 1.1//EN"
  "http://www.w3.org/Graphics/SVG/1.1/DTD/svg11.dtd">
<svg height="216pt" version="1.1" viewBox="0 0 306 216" width="306pt" xmlns="http://www.w3.org/2000/svg" xmlns:xlink="http://www.w3.org/1999/xlink">
 <metadata>
  <rdf:RDF xmlns:cc="http://creativecommons.org/ns#" xmlns:dc="http://purl.org/dc/elements/1.1/" xmlns:rdf="http://www.w3.org/1999/02/22-rdf-syntax-ns#">
   <cc:Work>
    <dc:type rdf:resource="http://purl.org/dc/dcmitype/StillImage"/>
    <dc:date>2023-01-28T06:15:40.294607</dc:date>
    <dc:format>image/svg+xml</dc:format>
    <dc:creator>
     <cc:Agent>
      <dc:title>Matplotlib v3.4.2, https://matplotlib.org/</dc:title>
     </cc:Agent>
    </dc:creator>
   </cc:Work>
  </rdf:RDF>
 </metadata>
 <defs>
  <style type="text/css">*{stroke-linecap:butt;stroke-linejoin:round;}</style>
 </defs>
 <g id="figure_1">
  <g id="patch_1">
   <path d="M 0 216 
L 306 216 
L 306 0 
L 0 0 
z
" style="fill:#ffffff;"/>
  </g>
  <g id="axes_1">
   <g id="patch_2">
    <path d="M 94.94 141.64 
L 284.4 141.64 
L 284.4 28.8 
L 94.94 28.8 
z
" style="fill:#ffffff;"/>
   </g>
   <g id="line2d_1">
    <path clip-path="url(#p63f65a87cf)" d="M 94.94 141.64 
L 284.4 141.64 
" style="fill:none;stroke:#000000;stroke-linecap:round;stroke-width:0.5;"/>
   </g>
   <g id="patch_3">
    <path clip-path="url(#p63f65a87cf)" d="M 100.523163 129.102222 
Q 102.797109 129.102222 104.051431 130.295061 
Q 105.305752 131.485308 105.443962 132.999695 
L 103.863673 132.999695 
Q 103.595077 131.850939 102.791894 131.179318 
Q 101.988711 130.505105 100.53881 130.505105 
Q 98.770765 130.505105 97.683339 131.742027 
Q 96.595913 132.976357 96.595913 135.527995 
Q 96.595913 137.62065 97.576421 138.922401 
Q 98.559538 140.221559 100.507517 140.221559 
Q 102.299032 140.221559 103.237817 138.852387 
Q 103.733287 138.131497 103.978414 136.954216 
L 105.558702 136.954216 
Q 105.347475 138.834235 104.158348 140.107461 
Q 102.731916 141.64 100.311937 141.64 
Q 98.225748 141.64 96.807139 140.382333 
Q 94.94 138.72273 94.94 135.253124 
Q 94.94 132.621098 96.342962 130.935564 
Q 97.858057 129.102222 100.523163 129.102222 
z
M 100.197196 129.102222 
L 100.197196 129.102222 
z
" style="fill:#0000ff;"/>
   </g>
   <g id="patch_4">
    <path clip-path="url(#p63f65a87cf)" d="M 100.416455 116.582585 
Q 102.054581 116.582585 103.249628 117.230465 
Q 104.981434 118.160821 105.368811 120.49319 
L 103.811705 120.49319 
Q 103.525603 119.189655 102.63185 118.593605 
Q 101.738096 117.997555 100.375945 117.997555 
Q 98.763138 117.997555 97.659238 119.238894 
Q 96.555339 120.477641 96.555339 122.931811 
Q 96.555339 125.051675 97.464284 126.383717 
Q 98.37576 127.715759 100.431646 127.715759 
Q 102.006475 127.715759 103.039482 126.782811 
Q 104.072489 125.847272 104.095276 123.755915 
L 100.456965 123.755915 
L 100.456965 122.421282 
L 105.558702 122.421282 
L 105.558702 128.786057 
L 104.54595 128.786057 
L 104.166168 127.254468 
Q 103.368626 128.153726 102.750848 128.503581 
Q 101.712777 129.102222 100.115161 129.102222 
Q 98.05168 129.102222 96.562935 127.733899 
Q 94.94 126.015721 94.94 123.019923 
Q 94.94 120.031899 96.522425 118.267074 
Q 98.026361 116.582585 100.416455 116.582585 
z
M 100.155671 116.564444 
L 100.155671 116.564444 
z
" style="fill:#ffa600;"/>
   </g>
   <g id="patch_5">
    <path clip-path="url(#p63f65a87cf)" d="M 102.067515 101.15371 
L 100.261014 84.538629 
L 98.340473 101.15371 
L 102.067515 101.15371 
z
M 99.418672 78.951111 
L 101.240724 78.951111 
L 105.558702 116.564444 
L 103.791078 116.564444 
L 102.58588 105.299288 
L 97.879128 105.299288 
L 96.590992 116.564444 
L 94.94 116.564444 
L 99.418672 78.951111 
z
M 100.253239 78.951111 
L 100.253239 78.951111 
z
" style="fill:#008000;"/>
   </g>
   <g id="patch_6">
    <path clip-path="url(#p63f65a87cf)" d="M 105.558702 28.8 
L 105.558702 34.775312 
L 101.148734 34.775312 
L 101.148734 78.951111 
L 99.349968 78.951111 
L 99.349968 34.775312 
L 94.94 34.775312 
L 94.94 28.8 
L 105.558702 28.8 
z
" style="fill:#ff0000;"/>
   </g>
   <g id="patch_7">
    <path clip-path="url(#p63f65a87cf)" d="M 111.700744 129.102222 
Q 113.97469 129.102222 115.229012 130.295061 
Q 116.483333 131.485308 116.621543 132.999695 
L 115.041255 132.999695 
Q 114.772658 131.850939 113.969475 131.179318 
Q 113.166292 130.505105 111.716391 130.505105 
Q 109.948346 130.505105 108.86092 131.742027 
Q 107.773494 132.976357 107.773494 135.527995 
Q 107.773494 137.62065 108.754002 138.922401 
Q 109.737119 140.221559 111.685098 140.221559 
Q 113.476613 140.221559 114.415398 138.852387 
Q 114.910868 138.131497 115.155995 136.954216 
L 116.736283 136.954216 
Q 116.525057 138.834235 115.335929 140.107461 
Q 113.909497 141.64 111.489518 141.64 
Q 109.403329 141.64 107.98472 140.382333 
Q 106.117581 138.72273 106.117581 135.253124 
Q 106.117581 132.621098 107.520543 130.935564 
Q 109.035638 129.102222 111.700744 129.102222 
z
M 111.374777 129.102222 
L 111.374777 129.102222 
z
" style="fill:#0000ff;"/>
   </g>
   <g id="patch_8">
    <path clip-path="url(#p63f65a87cf)" d="M 111.594036 116.582585 
Q 113.232162 116.582585 114.427209 117.230465 
Q 116.159015 118.160821 116.546392 120.49319 
L 114.989286 120.49319 
Q 114.703184 119.189655 113.809431 118.593605 
Q 112.915677 117.997555 111.553526 117.997555 
Q 109.940719 117.997555 108.83682 119.238894 
Q 107.73292 120.477641 107.73292 122.931811 
Q 107.73292 125.051675 108.641865 126.383717 
Q 109.553341 127.715759 111.609227 127.715759 
Q 113.184056 127.715759 114.217063 126.782811 
Q 115.25007 125.847272 115.272857 123.755915 
L 111.634546 123.755915 
L 111.634546 122.421282 
L 116.736283 122.421282 
L 116.736283 128.786057 
L 115.723531 128.786057 
L 115.34375 127.254468 
Q 114.546208 128.153726 113.928429 128.503581 
Q 112.890358 129.102222 111.292743 129.102222 
Q 109.229261 129.102222 107.740516 127.733899 
Q 106.117581 126.015721 106.117581 123.019923 
Q 106.117581 120.031899 107.700006 118.267074 
Q 109.203942 116.582585 111.594036 116.582585 
z
M 111.333253 116.564444 
L 111.333253 116.564444 
z
" style="fill:#ffa600;"/>
   </g>
   <g id="patch_9">
    <path clip-path="url(#p63f65a87cf)" d="M 113.245097 101.15371 
L 111.438595 84.538629 
L 109.518054 101.15371 
L 113.245097 101.15371 
z
M 110.596253 78.951111 
L 112.418305 78.951111 
L 116.736283 116.564444 
L 114.968659 116.564444 
L 113.763461 105.299288 
L 109.056709 105.299288 
L 107.768573 116.564444 
L 106.117581 116.564444 
L 110.596253 78.951111 
z
M 111.43082 78.951111 
L 111.43082 78.951111 
z
" style="fill:#008000;"/>
   </g>
   <g id="patch_10">
    <path clip-path="url(#p63f65a87cf)" d="M 116.736283 28.8 
L 116.736283 34.775312 
L 112.326315 34.775312 
L 112.326315 78.951111 
L 110.527549 78.951111 
L 110.527549 34.775312 
L 106.117581 34.775312 
L 106.117581 28.8 
L 116.736283 28.8 
z
" style="fill:#ff0000;"/>
   </g>
   <g id="patch_11">
    <path clip-path="url(#p63f65a87cf)" d="M 124.422678 136.503089 
L 122.616176 130.964728 
L 120.695635 136.503089 
L 124.422678 136.503089 
z
M 121.773834 129.102222 
L 123.595886 129.102222 
L 127.913864 141.64 
L 126.14624 141.64 
L 124.941042 137.884948 
L 120.23429 137.884948 
L 118.946154 141.64 
L 117.295162 141.64 
L 121.773834 129.102222 
z
M 122.608401 129.102222 
L 122.608401 129.102222 
z
" style="fill:#008000;"/>
   </g>
   <g id="patch_12">
    <path clip-path="url(#p63f65a87cf)" d="M 122.771617 116.582585 
Q 124.409743 116.582585 125.60479 117.230465 
Q 127.336596 118.160821 127.723973 120.49319 
L 126.166868 120.49319 
Q 125.880765 119.189655 124.987012 118.593605 
Q 124.093258 117.997555 122.731107 117.997555 
Q 121.1183 117.997555 120.014401 119.238894 
Q 118.910501 120.477641 118.910501 122.931811 
Q 118.910501 125.051675 119.819446 126.383717 
Q 120.730923 127.715759 122.786809 127.715759 
Q 124.361638 127.715759 125.394644 126.782811 
Q 126.427651 125.847272 126.450438 123.755915 
L 122.812127 123.755915 
L 122.812127 122.421282 
L 127.913864 122.421282 
L 127.913864 128.786057 
L 126.901113 128.786057 
L 126.521331 127.254468 
Q 125.723789 128.153726 125.10601 128.503581 
Q 124.06794 129.102222 122.470324 129.102222 
Q 120.406842 129.102222 118.918097 127.733899 
Q 117.295162 126.015721 117.295162 123.019923 
Q 117.295162 120.031899 118.877587 118.267074 
Q 120.381523 116.582585 122.771617 116.582585 
z
M 122.510834 116.564444 
L 122.510834 116.564444 
z
" style="fill:#ffa600;"/>
   </g>
   <g id="patch_13">
    <path clip-path="url(#p63f65a87cf)" d="M 127.913864 91.488889 
L 127.913864 94.476545 
L 123.503896 94.476545 
L 123.503896 116.564444 
L 121.705131 116.564444 
L 121.705131 94.476545 
L 117.295162 94.476545 
L 117.295162 91.488889 
L 127.913864 91.488889 
z
" style="fill:#ff0000;"/>
   </g>
   <g id="patch_14">
    <path clip-path="url(#p63f65a87cf)" d="M 122.878326 28.8 
Q 125.152272 28.8 126.406593 34.764196 
Q 127.660914 40.715427 127.799124 48.287363 
L 126.218836 48.287363 
Q 125.950239 42.543583 125.147056 39.185481 
Q 124.343873 35.814413 122.893972 35.814413 
Q 121.125927 35.814413 120.038501 41.999026 
Q 118.951075 48.170672 118.951075 60.928866 
Q 118.951075 71.392141 119.931584 77.900894 
Q 120.9147 84.396682 122.862679 84.396682 
Q 124.654194 84.396682 125.592979 77.550822 
Q 126.088449 73.946373 126.333576 68.05997 
L 127.913864 68.05997 
Q 127.702638 77.460062 126.51351 83.826193 
Q 125.087078 91.488889 122.667099 91.488889 
Q 120.58091 91.488889 119.162301 85.200552 
Q 117.295162 76.902539 117.295162 59.554508 
Q 117.295162 46.394379 118.698124 37.96671 
Q 120.213219 28.8 122.878326 28.8 
z
M 122.552359 28.8 
L 122.552359 28.8 
z
" style="fill:#0000ff;"/>
   </g>
   <g id="patch_15">
    <path clip-path="url(#p63f65a87cf)" d="M 133.949198 129.120363 
Q 135.587324 129.120363 136.782371 129.768243 
Q 138.514177 130.698599 138.901554 133.030968 
L 137.344449 133.030968 
Q 137.058346 131.727433 136.164593 131.131383 
Q 135.270839 130.535333 133.908688 130.535333 
Q 132.295881 130.535333 131.191982 131.776672 
Q 130.088082 133.015419 130.088082 135.469589 
Q 130.088082 137.589453 130.997027 138.921495 
Q 131.908504 140.253536 133.96439 140.253536 
Q 135.539219 140.253536 136.572225 139.320589 
Q 137.605232 138.38505 137.628019 136.293693 
L 133.989709 136.293693 
L 133.989709 134.959059 
L 139.091445 134.959059 
L 139.091445 141.323834 
L 138.078694 141.323834 
L 137.698912 139.792246 
Q 136.90137 140.691503 136.283591 141.041359 
Q 135.245521 141.64 133.647905 141.64 
Q 131.584423 141.64 130.095678 140.271677 
Q 128.472743 138.553499 128.472743 135.557701 
Q 128.472743 132.569677 130.055168 130.804851 
Q 131.559104 129.120363 133.949198 129.120363 
z
M 133.688415 129.102222 
L 133.688415 129.102222 
z
" style="fill:#ffa600;"/>
   </g>
   <g id="patch_16">
    <path clip-path="url(#p63f65a87cf)" d="M 134.055907 104.026667 
Q 136.329853 104.026667 137.584174 106.412345 
Q 138.838495 108.792837 138.976705 111.821612 
L 137.396417 111.821612 
Q 137.12782 109.5241 136.324637 108.180859 
Q 135.521454 106.832432 134.071553 106.832432 
Q 132.303508 106.832432 131.216082 109.306277 
Q 130.128656 111.774936 130.128656 116.878213 
Q 130.128656 121.063523 131.109165 123.667024 
Q 132.092281 126.265339 134.04026 126.265339 
Q 135.831775 126.265339 136.77056 123.526995 
Q 137.26603 122.085216 137.511157 119.730655 
L 139.091445 119.730655 
Q 138.880219 123.490691 137.691091 126.037144 
Q 136.264659 129.102222 133.84468 129.102222 
Q 131.758491 129.102222 130.339883 126.586887 
Q 128.472743 123.267682 128.472743 116.32847 
Q 128.472743 111.064418 129.875705 107.693351 
Q 131.3908 104.026667 134.055907 104.026667 
z
M 133.72994 104.026667 
L 133.72994 104.026667 
z
" style="fill:#0000ff;"/>
   </g>
   <g id="patch_17">
    <path clip-path="url(#p63f65a87cf)" d="M 135.600259 88.615933 
L 133.793758 72.000851 
L 131.873216 88.615933 
L 135.600259 88.615933 
z
M 132.951415 66.413333 
L 134.773467 66.413333 
L 139.091445 104.026667 
L 137.323822 104.026667 
L 136.118624 92.76151 
L 131.411872 92.76151 
L 130.123735 104.026667 
L 128.472743 104.026667 
L 132.951415 66.413333 
z
M 133.785982 66.413333 
L 133.785982 66.413333 
z
" style="fill:#008000;"/>
   </g>
   <g id="patch_18">
    <path clip-path="url(#p63f65a87cf)" d="M 139.091445 28.8 
L 139.091445 33.281484 
L 134.681477 33.281484 
L 134.681477 66.413333 
L 132.882712 66.413333 
L 132.882712 33.281484 
L 128.472743 33.281484 
L 128.472743 28.8 
L 139.091445 28.8 
z
" style="fill:#ff0000;"/>
   </g>
   <g id="patch_19">
    <path clip-path="url(#p63f65a87cf)" d="M 145.12678 129.120363 
Q 146.764906 129.120363 147.959953 129.768243 
Q 149.691758 130.698599 150.079136 133.030968 
L 148.52203 133.030968 
Q 148.235927 131.727433 147.342174 131.131383 
Q 146.448421 130.535333 145.086269 130.535333 
Q 143.473462 130.535333 142.369563 131.776672 
Q 141.265664 133.015419 141.265664 135.469589 
Q 141.265664 137.589453 142.174608 138.921495 
Q 143.086085 140.253536 145.141971 140.253536 
Q 146.7168 140.253536 147.749807 139.320589 
Q 148.782813 138.38505 148.8056 136.293693 
L 145.16729 136.293693 
L 145.16729 134.959059 
L 150.269027 134.959059 
L 150.269027 141.323834 
L 149.256275 141.323834 
L 148.876493 139.792246 
Q 148.078951 140.691503 147.461172 141.041359 
Q 146.423102 141.64 144.825486 141.64 
Q 142.762004 141.64 141.273259 140.271677 
Q 139.650324 138.553499 139.650324 135.557701 
Q 139.650324 132.569677 141.232749 130.804851 
Q 142.736685 129.120363 145.12678 129.120363 
z
M 144.865996 129.102222 
L 144.865996 129.102222 
z
" style="fill:#ffa600;"/>
   </g>
   <g id="patch_20">
    <path clip-path="url(#p63f65a87cf)" d="M 150.269027 116.564444 
L 150.269027 118.058272 
L 145.859058 118.058272 
L 145.859058 129.102222 
L 144.060293 129.102222 
L 144.060293 118.058272 
L 139.650324 118.058272 
L 139.650324 116.564444 
L 150.269027 116.564444 
z
" style="fill:#ff0000;"/>
   </g>
   <g id="patch_21">
    <path clip-path="url(#p63f65a87cf)" d="M 146.77784 101.15371 
L 144.971339 84.538629 
L 143.050797 101.15371 
L 146.77784 101.15371 
z
M 144.128996 78.951111 
L 145.951048 78.951111 
L 150.269027 116.564444 
L 148.501403 116.564444 
L 147.296205 105.299288 
L 142.589453 105.299288 
L 141.301316 116.564444 
L 139.650324 116.564444 
L 144.128996 78.951111 
z
M 144.963563 78.951111 
L 144.963563 78.951111 
z
" style="fill:#008000;"/>
   </g>
   <g id="patch_22">
    <path clip-path="url(#p63f65a87cf)" d="M 145.233488 28.8 
Q 147.507434 28.8 148.761755 33.571357 
Q 150.016076 38.332341 150.154286 44.38989 
L 148.573998 44.38989 
Q 148.305401 39.794866 147.502218 37.108385 
Q 146.699036 34.411531 145.249134 34.411531 
Q 143.481089 34.411531 142.393663 39.35922 
Q 141.306237 44.296538 141.306237 54.503093 
Q 141.306237 62.873713 142.286746 68.080715 
Q 143.269862 73.277345 145.217841 73.277345 
Q 147.009356 73.277345 147.948141 67.800657 
Q 148.443611 64.917098 148.688738 60.207976 
L 150.269027 60.207976 
Q 150.0578 67.72805 148.868672 72.820955 
Q 147.44224 78.951111 145.022261 78.951111 
Q 142.936072 78.951111 141.517464 73.920441 
Q 139.650324 67.282031 139.650324 53.403606 
Q 139.650324 42.875503 141.053287 36.133368 
Q 142.568381 28.8 145.233488 28.8 
z
M 144.907521 28.8 
L 144.907521 28.8 
z
" style="fill:#0000ff;"/>
   </g>
   <g id="patch_23">
    <path clip-path="url(#p63f65a87cf)" d="M 157.955421 136.503089 
L 156.14892 130.964728 
L 154.228378 136.503089 
L 157.955421 136.503089 
z
M 155.306577 129.102222 
L 157.128629 129.102222 
L 161.446608 141.64 
L 159.678984 141.64 
L 158.473786 137.884948 
L 153.767034 137.884948 
L 152.478897 141.64 
L 150.827906 141.64 
L 155.306577 129.102222 
z
M 156.141144 129.102222 
L 156.141144 129.102222 
z
" style="fill:#008000;"/>
   </g>
   <g id="patch_24">
    <path clip-path="url(#p63f65a87cf)" d="M 161.446608 116.564444 
L 161.446608 118.058272 
L 157.036639 118.058272 
L 157.036639 129.102222 
L 155.237874 129.102222 
L 155.237874 118.058272 
L 150.827906 118.058272 
L 150.827906 116.564444 
L 161.446608 116.564444 
z
" style="fill:#ff0000;"/>
   </g>
   <g id="patch_25">
    <path clip-path="url(#p63f65a87cf)" d="M 156.411069 78.951111 
Q 158.685015 78.951111 159.939336 82.529629 
Q 161.193657 86.100367 161.331867 90.643529 
L 159.751579 90.643529 
Q 159.482982 87.197261 158.679799 85.1824 
Q 157.876617 83.159759 156.426715 83.159759 
Q 154.65867 83.159759 153.571244 86.870526 
Q 152.483818 90.573514 152.483818 98.228431 
Q 152.483818 104.506395 153.464327 108.411647 
Q 154.447444 112.30912 156.395423 112.30912 
Q 158.186937 112.30912 159.125722 108.201604 
Q 159.621192 106.038935 159.866319 102.507093 
L 161.446608 102.507093 
Q 161.235381 108.147148 160.046253 111.966827 
Q 158.619822 116.564444 156.199842 116.564444 
Q 154.113653 116.564444 152.695045 112.791442 
Q 150.827906 107.812635 150.827906 97.403816 
Q 150.827906 89.507738 152.230868 84.451137 
Q 153.745962 78.951111 156.411069 78.951111 
z
M 156.085102 78.951111 
L 156.085102 78.951111 
z
" style="fill:#0000ff;"/>
   </g>
   <g id="patch_26">
    <path clip-path="url(#p63f65a87cf)" d="M 156.304361 28.872563 
Q 157.942487 28.872563 159.137534 31.464083 
Q 160.869339 35.185507 161.256717 44.514982 
L 159.699611 44.514982 
Q 159.413509 39.300842 158.519755 36.916643 
Q 157.626002 34.532444 156.263851 34.532444 
Q 154.651043 34.532444 153.547144 39.497798 
Q 152.443245 44.452786 152.443245 54.269467 
Q 152.443245 62.748923 153.352189 68.07709 
Q 154.263666 73.405257 156.319552 73.405257 
Q 157.894381 73.405257 158.927388 69.673467 
Q 159.960394 65.93131 159.983181 57.565881 
L 156.344871 57.565881 
L 156.344871 52.227348 
L 161.446608 52.227348 
L 161.446608 77.686449 
L 160.433856 77.686449 
L 160.054074 71.560094 
Q 159.256532 75.157125 158.638753 76.556546 
Q 157.600683 78.951111 156.003067 78.951111 
Q 153.939585 78.951111 152.45084 73.477819 
Q 150.827906 66.605106 150.827906 54.621914 
Q 150.827906 42.669819 152.41033 35.610517 
Q 153.914267 28.872563 156.304361 28.872563 
z
M 156.043577 28.8 
L 156.043577 28.8 
z
" style="fill:#ffa600;"/>
   </g>
   <g id="patch_27">
    <path clip-path="url(#p63f65a87cf)" d="M 167.58865 129.102222 
Q 169.862596 129.102222 171.116917 130.295061 
Q 172.371238 131.485308 172.509448 132.999695 
L 170.92916 132.999695 
Q 170.660563 131.850939 169.857381 131.179318 
Q 169.054198 130.505105 167.604296 130.505105 
Q 165.836251 130.505105 164.748825 131.742027 
Q 163.661399 132.976357 163.661399 135.527995 
Q 163.661399 137.62065 164.641908 138.922401 
Q 165.625025 140.221559 167.573004 140.221559 
Q 169.364518 140.221559 170.303304 138.852387 
Q 170.798773 138.131497 171.043901 136.954216 
L 172.624189 136.954216 
Q 172.412962 138.834235 171.223834 140.107461 
Q 169.797403 141.64 167.377423 141.64 
Q 165.291234 141.64 163.872626 140.382333 
Q 162.005487 138.72273 162.005487 135.253124 
Q 162.005487 132.621098 163.408449 130.935564 
Q 164.923544 129.102222 167.58865 129.102222 
z
M 167.262683 129.102222 
L 167.262683 129.102222 
z
" style="fill:#0000ff;"/>
   </g>
   <g id="patch_28">
    <path clip-path="url(#p63f65a87cf)" d="M 172.624189 116.564444 
L 172.624189 118.058272 
L 168.21422 118.058272 
L 168.21422 129.102222 
L 166.415455 129.102222 
L 166.415455 118.058272 
L 162.005487 118.058272 
L 162.005487 116.564444 
L 172.624189 116.564444 
z
" style="fill:#ff0000;"/>
   </g>
   <g id="patch_29">
    <path clip-path="url(#p63f65a87cf)" d="M 169.133002 101.15371 
L 167.326501 84.538629 
L 165.40596 101.15371 
L 169.133002 101.15371 
z
M 166.484158 78.951111 
L 168.30621 78.951111 
L 172.624189 116.564444 
L 170.856565 116.564444 
L 169.651367 105.299288 
L 164.944615 105.299288 
L 163.656478 116.564444 
L 162.005487 116.564444 
L 166.484158 78.951111 
z
M 167.318725 78.951111 
L 167.318725 78.951111 
z
" style="fill:#008000;"/>
   </g>
   <g id="patch_30">
    <path clip-path="url(#p63f65a87cf)" d="M 167.481942 28.872563 
Q 169.120068 28.872563 170.315115 31.464083 
Q 172.04692 35.185507 172.434298 44.514982 
L 170.877192 44.514982 
Q 170.59109 39.300842 169.697336 36.916643 
Q 168.803583 34.532444 167.441432 34.532444 
Q 165.828625 34.532444 164.724725 39.497798 
Q 163.620826 44.452786 163.620826 54.269467 
Q 163.620826 62.748923 164.52977 68.07709 
Q 165.441247 73.405257 167.497133 73.405257 
Q 169.071962 73.405257 170.104969 69.673467 
Q 171.137976 65.93131 171.160763 57.565881 
L 167.522452 57.565881 
L 167.522452 52.227348 
L 172.624189 52.227348 
L 172.624189 77.686449 
L 171.611437 77.686449 
L 171.231655 71.560094 
Q 170.434113 75.157125 169.816335 76.556546 
Q 168.778264 78.951111 167.180648 78.951111 
Q 165.117166 78.951111 163.628421 73.477819 
Q 162.005487 66.605106 162.005487 54.621914 
Q 162.005487 42.669819 163.587911 35.610517 
Q 165.091848 28.872563 167.481942 28.872563 
z
M 167.221158 28.8 
L 167.221158 28.8 
z
" style="fill:#ffa600;"/>
   </g>
   <g id="patch_31">
    <path clip-path="url(#p63f65a87cf)" d="M 183.80177 129.102222 
L 183.80177 130.59605 
L 179.391802 130.59605 
L 179.391802 141.64 
L 177.593036 141.64 
L 177.593036 130.59605 
L 173.183068 130.59605 
L 173.183068 129.102222 
L 183.80177 129.102222 
z
" style="fill:#ff0000;"/>
   </g>
   <g id="patch_32">
    <path clip-path="url(#p63f65a87cf)" d="M 178.659523 104.062948 
Q 180.297649 104.062948 181.492696 105.358708 
Q 183.224501 107.21942 183.611879 111.884158 
L 182.054773 111.884158 
Q 181.768671 109.277088 180.874917 108.084988 
Q 179.981164 106.892889 178.619013 106.892889 
Q 177.006206 106.892889 175.902306 109.375566 
Q 174.798407 111.85306 174.798407 116.7614 
Q 174.798407 121.001128 175.707352 123.665212 
Q 176.618828 126.329295 178.674714 126.329295 
Q 180.249543 126.329295 181.28255 124.4634 
Q 182.315557 122.592322 182.338344 118.409607 
L 178.700033 118.409607 
L 178.700033 115.740341 
L 183.80177 115.740341 
L 183.80177 128.469891 
L 182.789018 128.469891 
L 182.409236 125.406714 
Q 181.611694 127.205229 180.993916 127.90494 
Q 179.955845 129.102222 178.358229 129.102222 
Q 176.294748 129.102222 174.806003 126.365576 
Q 173.183068 122.92922 173.183068 116.937623 
Q 173.183068 110.961576 174.765492 107.431925 
Q 176.269429 104.062948 178.659523 104.062948 
z
M 178.398739 104.026667 
L 178.398739 104.026667 
z
" style="fill:#ffa600;"/>
   </g>
   <g id="patch_33">
    <path clip-path="url(#p63f65a87cf)" d="M 180.310583 88.615933 
L 178.504082 72.000851 
L 176.583541 88.615933 
L 180.310583 88.615933 
z
M 177.661739 66.413333 
L 179.483791 66.413333 
L 183.80177 104.026667 
L 182.034146 104.026667 
L 180.828948 92.76151 
L 176.122196 92.76151 
L 174.83406 104.026667 
L 173.183068 104.026667 
L 177.661739 66.413333 
z
M 178.496307 66.413333 
L 178.496307 66.413333 
z
" style="fill:#008000;"/>
   </g>
   <g id="patch_34">
    <path clip-path="url(#p63f65a87cf)" d="M 178.766231 28.8 
Q 181.040177 28.8 182.294498 32.378518 
Q 183.548819 35.949256 183.68703 40.492418 
L 182.106741 40.492418 
Q 181.838145 37.04615 181.034962 35.031289 
Q 180.231779 33.008648 178.781878 33.008648 
Q 177.013832 33.008648 175.926406 36.719415 
Q 174.83898 40.422403 174.83898 48.07732 
Q 174.83898 54.355284 175.819489 58.260536 
Q 176.802606 62.158009 178.750585 62.158009 
Q 180.5421 62.158009 181.480885 58.050493 
Q 181.976355 55.887824 182.221482 52.355982 
L 183.80177 52.355982 
Q 183.590543 57.996037 182.401416 61.815716 
Q 180.974984 66.413333 178.555005 66.413333 
Q 176.468816 66.413333 175.050207 62.640331 
Q 173.183068 57.661524 173.183068 47.252705 
Q 173.183068 39.356627 174.58603 34.300026 
Q 176.101125 28.8 178.766231 28.8 
z
M 178.440264 28.8 
L 178.440264 28.8 
z
" style="fill:#0000ff;"/>
   </g>
   <g id="patch_35">
    <path clip-path="url(#p63f65a87cf)" d="M 191.488164 136.503089 
L 189.681663 130.964728 
L 187.761122 136.503089 
L 191.488164 136.503089 
z
M 188.83932 129.102222 
L 190.661373 129.102222 
L 194.979351 141.64 
L 193.211727 141.64 
L 192.006529 137.884948 
L 187.299777 137.884948 
L 186.011641 141.64 
L 184.360649 141.64 
L 188.83932 129.102222 
z
M 189.673888 129.102222 
L 189.673888 129.102222 
z
" style="fill:#008000;"/>
   </g>
   <g id="patch_36">
    <path clip-path="url(#p63f65a87cf)" d="M 189.837104 116.582585 
Q 191.47523 116.582585 192.670277 117.230465 
Q 194.402083 118.160821 194.78946 120.49319 
L 193.232354 120.49319 
Q 192.946252 119.189655 192.052498 118.593605 
Q 191.158745 117.997555 189.796594 117.997555 
Q 188.183787 117.997555 187.079887 119.238894 
Q 185.975988 120.477641 185.975988 122.931811 
Q 185.975988 125.051675 186.884933 126.383717 
Q 187.796409 127.715759 189.852295 127.715759 
Q 191.427124 127.715759 192.460131 126.782811 
Q 193.493138 125.847272 193.515925 123.755915 
L 189.877614 123.755915 
L 189.877614 122.421282 
L 194.979351 122.421282 
L 194.979351 128.786057 
L 193.966599 128.786057 
L 193.586817 127.254468 
Q 192.789275 128.153726 192.171497 128.503581 
Q 191.133426 129.102222 189.53581 129.102222 
Q 187.472329 129.102222 185.983584 127.733899 
Q 184.360649 126.015721 184.360649 123.019923 
Q 184.360649 120.031899 185.943074 118.267074 
Q 187.44701 116.582585 189.837104 116.582585 
z
M 189.57632 116.564444 
L 189.57632 116.564444 
z
" style="fill:#ffa600;"/>
   </g>
   <g id="patch_37">
    <path clip-path="url(#p63f65a87cf)" d="M 194.979351 91.488889 
L 194.979351 94.476545 
L 190.569383 94.476545 
L 190.569383 116.564444 
L 188.770617 116.564444 
L 188.770617 94.476545 
L 184.360649 94.476545 
L 184.360649 91.488889 
L 194.979351 91.488889 
z
" style="fill:#ff0000;"/>
   </g>
   <g id="patch_38">
    <path clip-path="url(#p63f65a87cf)" d="M 189.943812 28.8 
Q 192.217758 28.8 193.472079 34.764196 
Q 194.726401 40.715427 194.864611 48.287363 
L 193.284322 48.287363 
Q 193.015726 42.543583 192.212543 39.185481 
Q 191.40936 35.814413 189.959459 35.814413 
Q 188.191414 35.814413 187.103988 41.999026 
Q 186.016561 48.170672 186.016561 60.928866 
Q 186.016561 71.392141 186.99707 77.900894 
Q 187.980187 84.396682 189.928166 84.396682 
Q 191.719681 84.396682 192.658466 77.550822 
Q 193.153936 73.946373 193.399063 68.05997 
L 194.979351 68.05997 
Q 194.768124 77.460062 193.578997 83.826193 
Q 192.152565 91.488889 189.732586 91.488889 
Q 187.646397 91.488889 186.227788 85.200552 
Q 184.360649 76.902539 184.360649 59.554508 
Q 184.360649 46.394379 185.763611 37.96671 
Q 187.278706 28.8 189.943812 28.8 
z
M 189.617845 28.8 
L 189.617845 28.8 
z
" style="fill:#0000ff;"/>
   </g>
   <g id="patch_39">
    <path clip-path="url(#p63f65a87cf)" d="M 206.156932 129.102222 
L 206.156932 130.59605 
L 201.746964 130.59605 
L 201.746964 141.64 
L 199.948198 141.64 
L 199.948198 130.59605 
L 195.53823 130.59605 
L 195.53823 129.102222 
L 206.156932 129.102222 
z
" style="fill:#ff0000;"/>
   </g>
   <g id="patch_40">
    <path clip-path="url(#p63f65a87cf)" d="M 201.121393 104.026667 
Q 203.395339 104.026667 204.649661 106.412345 
Q 205.903982 108.792837 206.042192 111.821612 
L 204.461904 111.821612 
Q 204.193307 109.5241 203.390124 108.180859 
Q 202.586941 106.832432 201.13704 106.832432 
Q 199.368995 106.832432 198.281569 109.306277 
Q 197.194143 111.774936 197.194143 116.878213 
Q 197.194143 121.063523 198.174651 123.667024 
Q 199.157768 126.265339 201.105747 126.265339 
Q 202.897262 126.265339 203.836047 123.526995 
Q 204.331517 122.085216 204.576644 119.730655 
L 206.156932 119.730655 
Q 205.945706 123.490691 204.756578 126.037144 
Q 203.330146 129.102222 200.910167 129.102222 
Q 198.823978 129.102222 197.405369 126.586887 
Q 195.53823 123.267682 195.53823 116.32847 
Q 195.53823 111.064418 196.941192 107.693351 
Q 198.456287 104.026667 201.121393 104.026667 
z
M 200.795426 104.026667 
L 200.795426 104.026667 
z
" style="fill:#0000ff;"/>
   </g>
   <g id="patch_41">
    <path clip-path="url(#p63f65a87cf)" d="M 202.665746 88.615933 
L 200.859244 72.000851 
L 198.938703 88.615933 
L 202.665746 88.615933 
z
M 200.016902 66.413333 
L 201.838954 66.413333 
L 206.156932 104.026667 
L 204.389308 104.026667 
L 203.18411 92.76151 
L 198.477358 92.76151 
L 197.189222 104.026667 
L 195.53823 104.026667 
L 200.016902 66.413333 
z
M 200.851469 66.413333 
L 200.851469 66.413333 
z
" style="fill:#008000;"/>
   </g>
   <g id="patch_42">
    <path clip-path="url(#p63f65a87cf)" d="M 201.014685 28.854422 
Q 202.652811 28.854422 203.847858 30.798063 
Q 205.579664 33.58913 205.967041 40.586237 
L 204.409935 40.586237 
Q 204.123833 36.675632 203.23008 34.887482 
Q 202.336326 33.099333 200.974175 33.099333 
Q 199.361368 33.099333 198.257469 36.823348 
Q 197.153569 40.539589 197.153569 47.9021 
Q 197.153569 54.261692 198.062514 58.257817 
Q 198.97399 62.253942 201.029876 62.253942 
Q 202.604705 62.253942 203.637712 59.4551 
Q 204.670719 56.648483 204.693506 50.374411 
L 201.055195 50.374411 
L 201.055195 46.370511 
L 206.156932 46.370511 
L 206.156932 65.464837 
L 205.14418 65.464837 
L 204.764399 60.87007 
Q 203.966857 63.567843 203.349078 64.617409 
Q 202.311007 66.413333 200.713392 66.413333 
Q 198.64991 66.413333 197.161165 62.308364 
Q 195.53823 57.153829 195.53823 48.166435 
Q 195.53823 39.202365 197.120655 33.907888 
Q 198.624591 28.854422 201.014685 28.854422 
z
M 200.753902 28.8 
L 200.753902 28.8 
z
" style="fill:#ffa600;"/>
   </g>
   <g id="patch_43">
    <path clip-path="url(#p63f65a87cf)" d="M 212.192266 129.120363 
Q 213.830392 129.120363 215.025439 129.768243 
Q 216.757245 130.698599 217.144622 133.030968 
L 215.587517 133.030968 
Q 215.301414 131.727433 214.407661 131.131383 
Q 213.513907 130.535333 212.151756 130.535333 
Q 210.538949 130.535333 209.43505 131.776672 
Q 208.33115 133.015419 208.33115 135.469589 
Q 208.33115 137.589453 209.240095 138.921495 
Q 210.151572 140.253536 212.207458 140.253536 
Q 213.782287 140.253536 214.815293 139.320589 
Q 215.8483 138.38505 215.871087 136.293693 
L 212.232776 136.293693 
L 212.232776 134.959059 
L 217.334513 134.959059 
L 217.334513 141.323834 
L 216.321762 141.323834 
L 215.94198 139.792246 
Q 215.144438 140.691503 214.526659 141.041359 
Q 213.488589 141.64 211.890973 141.64 
Q 209.827491 141.64 208.338746 140.271677 
Q 206.715811 138.553499 206.715811 135.557701 
Q 206.715811 132.569677 208.298236 130.804851 
Q 209.802172 129.120363 212.192266 129.120363 
z
M 211.931483 129.102222 
L 211.931483 129.102222 
z
" style="fill:#ffa600;"/>
   </g>
   <g id="patch_44">
    <path clip-path="url(#p63f65a87cf)" d="M 217.334513 116.564444 
L 217.334513 118.058272 
L 212.924545 118.058272 
L 212.924545 129.102222 
L 211.12578 129.102222 
L 211.12578 118.058272 
L 206.715811 118.058272 
L 206.715811 116.564444 
L 217.334513 116.564444 
z
" style="fill:#ff0000;"/>
   </g>
   <g id="patch_45">
    <path clip-path="url(#p63f65a87cf)" d="M 212.298975 78.951111 
Q 214.572921 78.951111 215.827242 82.529629 
Q 217.081563 86.100367 217.219773 90.643529 
L 215.639485 90.643529 
Q 215.370888 87.197261 214.567705 85.1824 
Q 213.764522 83.159759 212.314621 83.159759 
Q 210.546576 83.159759 209.45915 86.870526 
Q 208.371724 90.573514 208.371724 98.228431 
Q 208.371724 104.506395 209.352233 108.411647 
Q 210.335349 112.30912 212.283328 112.30912 
Q 214.074843 112.30912 215.013628 108.201604 
Q 215.509098 106.038935 215.754225 102.507093 
L 217.334513 102.507093 
Q 217.123287 108.147148 215.934159 111.966827 
Q 214.507727 116.564444 212.087748 116.564444 
Q 210.001559 116.564444 208.58295 112.791442 
Q 206.715811 107.812635 206.715811 97.403816 
Q 206.715811 89.507738 208.118773 84.451137 
Q 209.633868 78.951111 212.298975 78.951111 
z
M 211.973008 78.951111 
L 211.973008 78.951111 
z
" style="fill:#0000ff;"/>
   </g>
   <g id="patch_46">
    <path clip-path="url(#p63f65a87cf)" d="M 213.843327 58.403466 
L 212.036825 36.250023 
L 210.116284 58.403466 
L 213.843327 58.403466 
z
M 211.194483 28.8 
L 213.016535 28.8 
L 217.334513 78.951111 
L 215.566889 78.951111 
L 214.361691 63.930902 
L 209.654939 63.930902 
L 208.366803 78.951111 
L 206.715811 78.951111 
L 211.194483 28.8 
z
M 212.02905 28.8 
L 212.02905 28.8 
z
" style="fill:#008000;"/>
   </g>
   <g id="patch_47">
    <path clip-path="url(#p63f65a87cf)" d="M 225.020908 136.503089 
L 223.214407 130.964728 
L 221.293865 136.503089 
L 225.020908 136.503089 
z
M 222.372064 129.102222 
L 224.194116 129.102222 
L 228.512094 141.64 
L 226.744471 141.64 
L 225.539273 137.884948 
L 220.832521 137.884948 
L 219.544384 141.64 
L 217.893392 141.64 
L 222.372064 129.102222 
z
M 223.206631 129.102222 
L 223.206631 129.102222 
z
" style="fill:#008000;"/>
   </g>
   <g id="patch_48">
    <path clip-path="url(#p63f65a87cf)" d="M 223.476556 116.564444 
Q 225.750502 116.564444 227.004823 117.757284 
Q 228.259144 118.94753 228.397354 120.461917 
L 226.817066 120.461917 
Q 226.548469 119.313161 225.745286 118.641541 
Q 224.942103 117.967327 223.492202 117.967327 
Q 221.724157 117.967327 220.636731 119.20425 
Q 219.549305 120.438579 219.549305 122.990218 
Q 219.549305 125.082873 220.529814 126.384623 
Q 221.51293 127.683781 223.460909 127.683781 
Q 225.252424 127.683781 226.191209 126.314609 
Q 226.686679 125.593719 226.931806 124.416438 
L 228.512094 124.416438 
Q 228.300868 126.296457 227.11174 127.569683 
Q 225.685308 129.102222 223.265329 129.102222 
Q 221.17914 129.102222 219.760531 127.844555 
Q 217.893392 126.184952 217.893392 122.715346 
Q 217.893392 120.08332 219.296354 118.397787 
Q 220.811449 116.564444 223.476556 116.564444 
z
M 223.150589 116.564444 
L 223.150589 116.564444 
z
" style="fill:#0000ff;"/>
   </g>
   <g id="patch_49">
    <path clip-path="url(#p63f65a87cf)" d="M 228.512094 104.026667 
L 228.512094 105.520495 
L 224.102126 105.520495 
L 224.102126 116.564444 
L 222.303361 116.564444 
L 222.303361 105.520495 
L 217.893392 105.520495 
L 217.893392 104.026667 
L 228.512094 104.026667 
z
" style="fill:#ff0000;"/>
   </g>
   <g id="patch_50">
    <path clip-path="url(#p63f65a87cf)" d="M 223.369847 28.908844 
Q 225.007973 28.908844 226.20302 32.796125 
Q 227.934826 38.378261 228.322203 52.372473 
L 226.765098 52.372473 
Q 226.478995 44.551264 225.585242 40.974965 
Q 224.691488 37.398666 223.329337 37.398666 
Q 221.71653 37.398666 220.612631 44.846697 
Q 219.508731 52.279179 219.508731 67.0042 
Q 219.508731 79.723384 220.417676 87.715635 
Q 221.329153 95.707885 223.385039 95.707885 
Q 224.959868 95.707885 225.992874 90.1102 
Q 227.025881 84.496966 227.048668 71.948822 
L 223.410357 71.948822 
L 223.410357 63.941022 
L 228.512094 63.941022 
L 228.512094 102.129673 
L 227.499343 102.129673 
L 227.119561 92.940141 
Q 226.322019 98.335687 225.70424 100.434819 
Q 224.66617 104.026667 223.068554 104.026667 
Q 221.005072 104.026667 219.516327 95.816729 
Q 217.893392 85.507659 217.893392 67.53287 
Q 217.893392 49.604729 219.475817 39.015775 
Q 220.979753 28.908844 223.369847 28.908844 
z
M 223.109064 28.8 
L 223.109064 28.8 
z
" style="fill:#ffa600;"/>
   </g>
   <g id="patch_51">
    <path clip-path="url(#p63f65a87cf)" d="M 236.198489 136.503089 
L 234.391988 130.964728 
L 232.471446 136.503089 
L 236.198489 136.503089 
z
M 233.549645 129.102222 
L 235.371697 129.102222 
L 239.689676 141.64 
L 237.922052 141.64 
L 236.716854 137.884948 
L 232.010102 137.884948 
L 230.721965 141.64 
L 229.070973 141.64 
L 233.549645 129.102222 
z
M 234.384212 129.102222 
L 234.384212 129.102222 
z
" style="fill:#008000;"/>
   </g>
   <g id="patch_52">
    <path clip-path="url(#p63f65a87cf)" d="M 234.654137 116.564444 
Q 236.928083 116.564444 238.182404 117.757284 
Q 239.436725 118.94753 239.574935 120.461917 
L 237.994647 120.461917 
Q 237.72605 119.313161 236.922867 118.641541 
Q 236.119685 117.967327 234.669783 117.967327 
Q 232.901738 117.967327 231.814312 119.20425 
Q 230.726886 120.438579 230.726886 122.990218 
Q 230.726886 125.082873 231.707395 126.384623 
Q 232.690511 127.683781 234.63849 127.683781 
Q 236.430005 127.683781 237.36879 126.314609 
Q 237.86426 125.593719 238.109387 124.416438 
L 239.689676 124.416438 
Q 239.478449 126.296457 238.289321 127.569683 
Q 236.862889 129.102222 234.44291 129.102222 
Q 232.356721 129.102222 230.938113 127.844555 
Q 229.070973 126.184952 229.070973 122.715346 
Q 229.070973 120.08332 230.473936 118.397787 
Q 231.98903 116.564444 234.654137 116.564444 
z
M 234.32817 116.564444 
L 234.32817 116.564444 
z
" style="fill:#0000ff;"/>
   </g>
   <g id="patch_53">
    <path clip-path="url(#p63f65a87cf)" d="M 234.547429 91.52517 
Q 236.185554 91.52517 237.380602 92.820931 
Q 239.112407 94.681643 239.499785 99.34638 
L 237.942679 99.34638 
Q 237.656576 96.73931 236.762823 95.547211 
Q 235.86907 94.355111 234.506918 94.355111 
Q 232.894111 94.355111 231.790212 96.837788 
Q 230.686312 99.315282 230.686312 104.223622 
Q 230.686312 108.46335 231.595257 111.127434 
Q 232.506734 113.791517 234.56262 113.791517 
Q 236.137449 113.791517 237.170456 111.925622 
Q 238.203462 110.054544 238.226249 105.871829 
L 234.587939 105.871829 
L 234.587939 103.202563 
L 239.689676 103.202563 
L 239.689676 115.932113 
L 238.676924 115.932113 
L 238.297142 112.868936 
Q 237.4996 114.667451 236.881821 115.367162 
Q 235.843751 116.564444 234.246135 116.564444 
Q 232.182653 116.564444 230.693908 113.827798 
Q 229.070973 110.391442 229.070973 104.399846 
Q 229.070973 98.423799 230.653398 94.894147 
Q 232.157334 91.52517 234.547429 91.52517 
z
M 234.286645 91.488889 
L 234.286645 91.488889 
z
" style="fill:#ffa600;"/>
   </g>
   <g id="patch_54">
    <path clip-path="url(#p63f65a87cf)" d="M 239.689676 28.8 
L 239.689676 36.26914 
L 235.279707 36.26914 
L 235.279707 91.488889 
L 233.480942 91.488889 
L 233.480942 36.26914 
L 229.070973 36.26914 
L 229.070973 28.8 
L 239.689676 28.8 
z
" style="fill:#ff0000;"/>
   </g>
   <g id="patch_55">
    <path clip-path="url(#p63f65a87cf)" d="M 250.867257 129.102222 
L 250.867257 130.59605 
L 246.457288 130.59605 
L 246.457288 141.64 
L 244.658523 141.64 
L 244.658523 130.59605 
L 240.248555 130.59605 
L 240.248555 129.102222 
L 250.867257 129.102222 
z
" style="fill:#ff0000;"/>
   </g>
   <g id="patch_56">
    <path clip-path="url(#p63f65a87cf)" d="M 245.72501 104.062948 
Q 247.363136 104.062948 248.558183 105.358708 
Q 250.289988 107.21942 250.677366 111.884158 
L 249.12026 111.884158 
Q 248.834158 109.277088 247.940404 108.084988 
Q 247.046651 106.892889 245.6845 106.892889 
Q 244.071692 106.892889 242.967793 109.375566 
Q 241.863894 111.85306 241.863894 116.7614 
Q 241.863894 121.001128 242.772838 123.665212 
Q 243.684315 126.329295 245.740201 126.329295 
Q 247.31503 126.329295 248.348037 124.4634 
Q 249.381043 122.592322 249.40383 118.409607 
L 245.76552 118.409607 
L 245.76552 115.740341 
L 250.867257 115.740341 
L 250.867257 128.469891 
L 249.854505 128.469891 
L 249.474723 125.406714 
Q 248.677181 127.205229 248.059402 127.90494 
Q 247.021332 129.102222 245.423716 129.102222 
Q 243.360234 129.102222 241.871489 126.365576 
Q 240.248555 122.92922 240.248555 116.937623 
Q 240.248555 110.961576 241.830979 107.431925 
Q 243.334916 104.062948 245.72501 104.062948 
z
M 245.464226 104.026667 
L 245.464226 104.026667 
z
" style="fill:#ffa600;"/>
   </g>
   <g id="patch_57">
    <path clip-path="url(#p63f65a87cf)" d="M 247.37607 88.615933 
L 245.569569 72.000851 
L 243.649027 88.615933 
L 247.37607 88.615933 
z
M 244.727226 66.413333 
L 246.549278 66.413333 
L 250.867257 104.026667 
L 249.099633 104.026667 
L 247.894435 92.76151 
L 243.187683 92.76151 
L 241.899546 104.026667 
L 240.248555 104.026667 
L 244.727226 66.413333 
z
M 245.561793 66.413333 
L 245.561793 66.413333 
z
" style="fill:#008000;"/>
   </g>
   <g id="patch_58">
    <path clip-path="url(#p63f65a87cf)" d="M 245.831718 28.8 
Q 248.105664 28.8 249.359985 32.378518 
Q 250.614306 35.949256 250.752516 40.492418 
L 249.172228 40.492418 
Q 248.903631 37.04615 248.100448 35.031289 
Q 247.297266 33.008648 245.847364 33.008648 
Q 244.079319 33.008648 242.991893 36.719415 
Q 241.904467 40.422403 241.904467 48.07732 
Q 241.904467 54.355284 242.884976 58.260536 
Q 243.868093 62.158009 245.816071 62.158009 
Q 247.607586 62.158009 248.546371 58.050493 
Q 249.041841 55.887824 249.286968 52.355982 
L 250.867257 52.355982 
Q 250.65603 57.996037 249.466902 61.815716 
Q 248.040471 66.413333 245.620491 66.413333 
Q 243.534302 66.413333 242.115694 62.640331 
Q 240.248555 57.661524 240.248555 47.252705 
Q 240.248555 39.356627 241.651517 34.300026 
Q 243.166611 28.8 245.831718 28.8 
z
M 245.505751 28.8 
L 245.505751 28.8 
z
" style="fill:#0000ff;"/>
   </g>
   <g id="patch_59">
    <path clip-path="url(#p63f65a87cf)" d="M 257.009299 129.102222 
Q 259.283245 129.102222 260.537566 130.295061 
Q 261.791887 131.485308 261.930097 132.999695 
L 260.349809 132.999695 
Q 260.081212 131.850939 259.27803 131.179318 
Q 258.474847 130.505105 257.024945 130.505105 
Q 255.2569 130.505105 254.169474 131.742027 
Q 253.082048 132.976357 253.082048 135.527995 
Q 253.082048 137.62065 254.062557 138.922401 
Q 255.045674 140.221559 256.993653 140.221559 
Q 258.785167 140.221559 259.723952 138.852387 
Q 260.219422 138.131497 260.46455 136.954216 
L 262.044838 136.954216 
Q 261.833611 138.834235 260.644483 140.107461 
Q 259.218052 141.64 256.798072 141.64 
Q 254.711883 141.64 253.293275 140.382333 
Q 251.426136 138.72273 251.426136 135.253124 
Q 251.426136 132.621098 252.829098 130.935564 
Q 254.344193 129.102222 257.009299 129.102222 
z
M 256.683332 129.102222 
L 256.683332 129.102222 
z
" style="fill:#0000ff;"/>
   </g>
   <g id="patch_60">
    <path clip-path="url(#p63f65a87cf)" d="M 262.044838 116.564444 
L 262.044838 118.058272 
L 257.634869 118.058272 
L 257.634869 129.102222 
L 255.836104 129.102222 
L 255.836104 118.058272 
L 251.426136 118.058272 
L 251.426136 116.564444 
L 262.044838 116.564444 
z
" style="fill:#ff0000;"/>
   </g>
   <g id="patch_61">
    <path clip-path="url(#p63f65a87cf)" d="M 258.553651 106.290622 
L 256.74715 95.213901 
L 254.826609 106.290622 
L 258.553651 106.290622 
z
M 255.904807 91.488889 
L 257.726859 91.488889 
L 262.044838 116.564444 
L 260.277214 116.564444 
L 259.072016 109.05434 
L 254.365264 109.05434 
L 253.077127 116.564444 
L 251.426136 116.564444 
L 255.904807 91.488889 
z
M 256.739374 91.488889 
L 256.739374 91.488889 
z
" style="fill:#008000;"/>
   </g>
   <g id="patch_62">
    <path clip-path="url(#p63f65a87cf)" d="M 256.902591 28.890703 
Q 258.540717 28.890703 259.735764 32.130104 
Q 261.467569 36.781884 261.854947 48.443728 
L 260.297841 48.443728 
Q 260.011739 41.926053 259.117985 38.945804 
Q 258.224232 35.965555 256.862081 35.965555 
Q 255.249274 35.965555 254.145374 42.172247 
Q 253.041475 48.365982 253.041475 60.636833 
Q 253.041475 71.236154 253.950419 77.896362 
Q 254.861896 84.556571 256.917782 84.556571 
Q 258.492611 84.556571 259.525618 79.891833 
Q 260.558625 75.214138 260.581411 64.757352 
L 256.943101 64.757352 
L 256.943101 58.084185 
L 262.044838 58.084185 
L 262.044838 89.908061 
L 261.032086 89.908061 
L 260.652304 82.250117 
Q 259.854762 86.746406 259.236984 88.495682 
Q 258.198913 91.488889 256.601297 91.488889 
Q 254.537815 91.488889 253.04907 84.647274 
Q 251.426136 76.056382 251.426136 61.077392 
Q 251.426136 46.137274 253.00856 37.313146 
Q 254.512497 28.890703 256.902591 28.890703 
z
M 256.641807 28.8 
L 256.641807 28.8 
z
" style="fill:#ffa600;"/>
   </g>
   <g id="patch_63">
    <path clip-path="url(#p63f65a87cf)" d="M 268.080172 129.120363 
Q 269.718298 129.120363 270.913345 129.768243 
Q 272.64515 130.698599 273.032528 133.030968 
L 271.475422 133.030968 
Q 271.18932 131.727433 270.295566 131.131383 
Q 269.401813 130.535333 268.039662 130.535333 
Q 266.426855 130.535333 265.322955 131.776672 
Q 264.219056 133.015419 264.219056 135.469589 
Q 264.219056 137.589453 265.128001 138.921495 
Q 266.039477 140.253536 268.095363 140.253536 
Q 269.670192 140.253536 270.703199 139.320589 
Q 271.736206 138.38505 271.758993 136.293693 
L 268.120682 136.293693 
L 268.120682 134.959059 
L 273.222419 134.959059 
L 273.222419 141.323834 
L 272.209667 141.323834 
L 271.829885 139.792246 
Q 271.032343 140.691503 270.414565 141.041359 
Q 269.376494 141.64 267.778878 141.64 
Q 265.715397 141.64 264.226651 140.271677 
Q 262.603717 138.553499 262.603717 135.557701 
Q 262.603717 132.569677 264.186141 130.804851 
Q 265.690078 129.120363 268.080172 129.120363 
z
M 267.819388 129.102222 
L 267.819388 129.102222 
z
" style="fill:#ffa600;"/>
   </g>
   <g id="patch_64">
    <path clip-path="url(#p63f65a87cf)" d="M 273.222419 116.564444 
L 273.222419 118.058272 
L 268.812451 118.058272 
L 268.812451 129.102222 
L 267.013685 129.102222 
L 267.013685 118.058272 
L 262.603717 118.058272 
L 262.603717 116.564444 
L 273.222419 116.564444 
z
" style="fill:#ff0000;"/>
   </g>
   <g id="patch_65">
    <path clip-path="url(#p63f65a87cf)" d="M 268.18688 91.488889 
Q 270.460826 91.488889 271.715147 93.874567 
Q 272.969468 96.25506 273.107678 99.283834 
L 271.52739 99.283834 
Q 271.258793 96.986322 270.455611 95.643081 
Q 269.652428 94.294654 268.202527 94.294654 
Q 266.434481 94.294654 265.347055 96.768499 
Q 264.259629 99.237158 264.259629 104.340435 
Q 264.259629 108.525745 265.240138 111.129246 
Q 266.223255 113.727562 268.171234 113.727562 
Q 269.962749 113.727562 270.901534 110.989218 
Q 271.397003 109.547438 271.642131 107.192877 
L 273.222419 107.192877 
Q 273.011192 110.952914 271.822065 113.499366 
Q 270.395633 116.564444 267.975654 116.564444 
Q 265.889465 116.564444 264.470856 114.04911 
Q 262.603717 110.729905 262.603717 103.790692 
Q 262.603717 98.52664 264.006679 95.155573 
Q 265.521774 91.488889 268.18688 91.488889 
z
M 267.860913 91.488889 
L 267.860913 91.488889 
z
" style="fill:#0000ff;"/>
   </g>
   <g id="patch_66">
    <path clip-path="url(#p63f65a87cf)" d="M 269.731232 65.804332 
L 267.924731 38.112529 
L 266.00419 65.804332 
L 269.731232 65.804332 
z
M 267.082388 28.8 
L 268.90444 28.8 
L 273.222419 91.488889 
L 271.454795 91.488889 
L 270.249597 72.713628 
L 265.542845 72.713628 
L 264.254709 91.488889 
L 262.603717 91.488889 
L 267.082388 28.8 
z
M 267.916956 28.8 
L 267.916956 28.8 
z
" style="fill:#008000;"/>
   </g>
   <g id="patch_67">
    <path clip-path="url(#p63f65a87cf)" d="M 279.257753 129.120363 
Q 280.895879 129.120363 282.090926 129.768243 
Q 283.822732 130.698599 284.210109 133.030968 
L 282.653003 133.030968 
Q 282.366901 131.727433 281.473147 131.131383 
Q 280.579394 130.535333 279.217243 130.535333 
Q 277.604436 130.535333 276.500536 131.776672 
Q 275.396637 133.015419 275.396637 135.469589 
Q 275.396637 137.589453 276.305582 138.921495 
Q 277.217058 140.253536 279.272944 140.253536 
Q 280.847773 140.253536 281.88078 139.320589 
Q 282.913787 138.38505 282.936574 136.293693 
L 279.298263 136.293693 
L 279.298263 134.959059 
L 284.4 134.959059 
L 284.4 141.323834 
L 283.387248 141.323834 
L 283.007466 139.792246 
Q 282.209924 140.691503 281.592146 141.041359 
Q 280.554075 141.64 278.956459 141.64 
Q 276.892978 141.64 275.404233 140.271677 
Q 273.781298 138.553499 273.781298 135.557701 
Q 273.781298 132.569677 275.363723 130.804851 
Q 276.867659 129.120363 279.257753 129.120363 
z
M 278.996969 129.102222 
L 278.996969 129.102222 
z
" style="fill:#ffa600;"/>
   </g>
   <g id="patch_68">
    <path clip-path="url(#p63f65a87cf)" d="M 284.4 116.564444 
L 284.4 118.058272 
L 279.990032 118.058272 
L 279.990032 129.102222 
L 278.191266 129.102222 
L 278.191266 118.058272 
L 273.781298 118.058272 
L 273.781298 116.564444 
L 284.4 116.564444 
z
" style="fill:#ff0000;"/>
   </g>
   <g id="patch_69">
    <path clip-path="url(#p63f65a87cf)" d="M 279.364461 78.951111 
Q 281.638407 78.951111 282.892728 82.529629 
Q 284.14705 86.100367 284.28526 90.643529 
L 282.704971 90.643529 
Q 282.436375 87.197261 281.633192 85.1824 
Q 280.830009 83.159759 279.380108 83.159759 
Q 277.612063 83.159759 276.524636 86.870526 
Q 275.43721 90.573514 275.43721 98.228431 
Q 275.43721 104.506395 276.417719 108.411647 
Q 277.400836 112.30912 279.348815 112.30912 
Q 281.14033 112.30912 282.079115 108.201604 
Q 282.574585 106.038935 282.819712 102.507093 
L 284.4 102.507093 
Q 284.188773 108.147148 282.999646 111.966827 
Q 281.573214 116.564444 279.153235 116.564444 
Q 277.067046 116.564444 275.648437 112.791442 
Q 273.781298 107.812635 273.781298 97.403816 
Q 273.781298 89.507738 275.18426 84.451137 
Q 276.699355 78.951111 279.364461 78.951111 
z
M 279.038494 78.951111 
L 279.038494 78.951111 
z
" style="fill:#0000ff;"/>
   </g>
   <g id="patch_70">
    <path clip-path="url(#p63f65a87cf)" d="M 280.908813 58.403466 
L 279.102312 36.250023 
L 277.181771 58.403466 
L 280.908813 58.403466 
z
M 278.259969 28.8 
L 280.082022 28.8 
L 284.4 78.951111 
L 282.632376 78.951111 
L 281.427178 63.930902 
L 276.720426 63.930902 
L 275.43229 78.951111 
L 273.781298 78.951111 
L 278.259969 28.8 
z
M 279.094537 28.8 
L 279.094537 28.8 
z
" style="fill:#008000;"/>
   </g>
   <g id="matplotlib.axis_1">
    <g id="xtick_1">
     <g id="text_1">
      <!-- 0 -->
      <g style="fill:#262626;" transform="translate(94.688414 162.986875)scale(0.2 -0.2)">
       <defs>
        <path d="M 1731 4475 
Q 2600 4475 2988 3759 
Q 3288 3206 3288 2244 
Q 3288 1331 3016 734 
Q 2622 -122 1728 -122 
Q 922 -122 528 578 
Q 200 1163 200 2147 
Q 200 2909 397 3456 
Q 766 4475 1731 4475 
z
M 1725 391 
Q 2163 391 2422 778 
Q 2681 1166 2681 2222 
Q 2681 2984 2493 3476 
Q 2306 3969 1766 3969 
Q 1269 3969 1039 3501 
Q 809 3034 809 2125 
Q 809 1441 956 1025 
Q 1181 391 1725 391 
z
" id="Helvetica-30" transform="scale(0.015625)"/>
       </defs>
       <use xlink:href="#Helvetica-30"/>
      </g>
     </g>
    </g>
    <g id="xtick_2">
     <g id="text_2">
      <!-- 10 -->
      <g style="fill:#262626;" transform="translate(200.903287 162.986875)scale(0.2 -0.2)">
       <defs>
        <path d="M 613 3169 
L 613 3600 
Q 1222 3659 1462 3798 
Q 1703 3938 1822 4456 
L 2266 4456 
L 2266 0 
L 1666 0 
L 1666 3169 
L 613 3169 
z
" id="Helvetica-31" transform="scale(0.015625)"/>
       </defs>
       <use xlink:href="#Helvetica-31"/>
       <use x="55.615234" xlink:href="#Helvetica-30"/>
      </g>
     </g>
    </g>
    <g id="text_3">
     <!-- Position -->
     <g style="fill:#262626;" transform="translate(145.20125 189.089219)scale(0.25 -0.25)">
      <defs>
       <path d="M 547 4591 
L 2613 4591 
Q 3225 4591 3600 4245 
Q 3975 3900 3975 3275 
Q 3975 2738 3640 2339 
Q 3306 1941 2613 1941 
L 1169 1941 
L 1169 0 
L 547 0 
L 547 4591 
z
M 3347 3272 
Q 3347 3778 2972 3959 
Q 2766 4056 2406 4056 
L 1169 4056 
L 1169 2466 
L 2406 2466 
Q 2825 2466 3086 2644 
Q 3347 2822 3347 3272 
z
" id="Helvetica-50" transform="scale(0.015625)"/>
       <path d="M 1741 363 
Q 2300 363 2508 786 
Q 2716 1209 2716 1728 
Q 2716 2197 2566 2491 
Q 2328 2953 1747 2953 
Q 1231 2953 997 2559 
Q 763 2166 763 1609 
Q 763 1075 997 719 
Q 1231 363 1741 363 
z
M 1763 3444 
Q 2409 3444 2856 3012 
Q 3303 2581 3303 1744 
Q 3303 934 2909 406 
Q 2516 -122 1688 -122 
Q 997 -122 590 345 
Q 184 813 184 1600 
Q 184 2444 612 2944 
Q 1041 3444 1763 3444 
z
M 1744 3428 
L 1744 3428 
z
" id="Helvetica-6f" transform="scale(0.015625)"/>
       <path d="M 747 1050 
Q 772 769 888 619 
Q 1100 347 1625 347 
Q 1938 347 2175 483 
Q 2413 619 2413 903 
Q 2413 1119 2222 1231 
Q 2100 1300 1741 1391 
L 1294 1503 
Q 866 1609 663 1741 
Q 300 1969 300 2372 
Q 300 2847 642 3140 
Q 984 3434 1563 3434 
Q 2319 3434 2653 2991 
Q 2863 2709 2856 2384 
L 2325 2384 
Q 2309 2575 2191 2731 
Q 1997 2953 1519 2953 
Q 1200 2953 1036 2831 
Q 872 2709 872 2509 
Q 872 2291 1088 2159 
Q 1213 2081 1456 2022 
L 1828 1931 
Q 2434 1784 2641 1647 
Q 2969 1431 2969 969 
Q 2969 522 2630 197 
Q 2291 -128 1597 -128 
Q 850 -128 539 211 
Q 228 550 206 1050 
L 747 1050 
z
M 1578 3428 
L 1578 3428 
z
" id="Helvetica-73" transform="scale(0.015625)"/>
       <path d="M 413 3331 
L 984 3331 
L 984 0 
L 413 0 
L 413 3331 
z
M 413 4591 
L 984 4591 
L 984 3953 
L 413 3953 
L 413 4591 
z
" id="Helvetica-69" transform="scale(0.015625)"/>
       <path d="M 525 4281 
L 1094 4281 
L 1094 3347 
L 1628 3347 
L 1628 2888 
L 1094 2888 
L 1094 703 
Q 1094 528 1213 469 
Q 1278 434 1431 434 
Q 1472 434 1519 436 
Q 1566 438 1628 444 
L 1628 0 
Q 1531 -28 1426 -40 
Q 1322 -53 1200 -53 
Q 806 -53 665 148 
Q 525 350 525 672 
L 525 2888 
L 72 2888 
L 72 3347 
L 525 3347 
L 525 4281 
z
" id="Helvetica-74" transform="scale(0.015625)"/>
       <path d="M 413 3347 
L 947 3347 
L 947 2872 
Q 1184 3166 1450 3294 
Q 1716 3422 2041 3422 
Q 2753 3422 3003 2925 
Q 3141 2653 3141 2147 
L 3141 0 
L 2569 0 
L 2569 2109 
Q 2569 2416 2478 2603 
Q 2328 2916 1934 2916 
Q 1734 2916 1606 2875 
Q 1375 2806 1200 2600 
Q 1059 2434 1017 2257 
Q 975 2081 975 1753 
L 975 0 
L 413 0 
L 413 3347 
z
M 1734 3428 
L 1734 3428 
z
" id="Helvetica-6e" transform="scale(0.015625)"/>
      </defs>
      <use xlink:href="#Helvetica-50"/>
      <use x="66.699219" xlink:href="#Helvetica-6f"/>
      <use x="122.314453" xlink:href="#Helvetica-73"/>
      <use x="172.314453" xlink:href="#Helvetica-69"/>
      <use x="194.53125" xlink:href="#Helvetica-74"/>
      <use x="222.314453" xlink:href="#Helvetica-69"/>
      <use x="244.53125" xlink:href="#Helvetica-6f"/>
      <use x="300.146484" xlink:href="#Helvetica-6e"/>
     </g>
    </g>
   </g>
   <g id="matplotlib.axis_2">
    <g id="ytick_1">
     <g id="text_4">
      <!-- 0 -->
      <g style="fill:#262626;" transform="translate(76.818125 148.813438)scale(0.2 -0.2)">
       <use xlink:href="#Helvetica-30"/>
      </g>
     </g>
    </g>
    <g id="ytick_2">
     <g id="text_5">
      <!-- 0.25 -->
      <g style="fill:#262626;" transform="translate(49.018125 120.603437)scale(0.2 -0.2)">
       <defs>
        <path d="M 547 681 
L 1200 681 
L 1200 0 
L 547 0 
L 547 681 
z
" id="Helvetica-2e" transform="scale(0.015625)"/>
        <path d="M 200 0 
Q 231 578 439 1006 
Q 647 1434 1250 1784 
L 1850 2131 
Q 2253 2366 2416 2531 
Q 2672 2791 2672 3125 
Q 2672 3516 2437 3745 
Q 2203 3975 1813 3975 
Q 1234 3975 1013 3538 
Q 894 3303 881 2888 
L 309 2888 
Q 319 3472 525 3841 
Q 891 4491 1816 4491 
Q 2584 4491 2939 4075 
Q 3294 3659 3294 3150 
Q 3294 2613 2916 2231 
Q 2697 2009 2131 1694 
L 1703 1456 
Q 1397 1288 1222 1134 
Q 909 863 828 531 
L 3272 531 
L 3272 0 
L 200 0 
z
" id="Helvetica-32" transform="scale(0.015625)"/>
        <path d="M 791 1141 
Q 847 659 1238 475 
Q 1438 381 1700 381 
Q 2200 381 2440 700 
Q 2681 1019 2681 1406 
Q 2681 1875 2395 2131 
Q 2109 2388 1709 2388 
Q 1419 2388 1211 2275 
Q 1003 2163 856 1963 
L 369 1991 
L 709 4400 
L 3034 4400 
L 3034 3856 
L 1131 3856 
L 941 2613 
Q 1097 2731 1238 2791 
Q 1488 2894 1816 2894 
Q 2431 2894 2859 2497 
Q 3288 2100 3288 1491 
Q 3288 856 2895 371 
Q 2503 -113 1644 -113 
Q 1097 -113 676 195 
Q 256 503 206 1141 
L 791 1141 
z
" id="Helvetica-35" transform="scale(0.015625)"/>
       </defs>
       <use xlink:href="#Helvetica-30"/>
       <use x="55.615234" xlink:href="#Helvetica-2e"/>
       <use x="83.398438" xlink:href="#Helvetica-32"/>
       <use x="139.013672" xlink:href="#Helvetica-35"/>
      </g>
     </g>
    </g>
    <g id="ytick_3">
     <g id="text_6">
      <!-- 0.50 -->
      <g style="fill:#262626;" transform="translate(49.018125 92.393438)scale(0.2 -0.2)">
       <use xlink:href="#Helvetica-30"/>
       <use x="55.615234" xlink:href="#Helvetica-2e"/>
       <use x="83.398438" xlink:href="#Helvetica-35"/>
       <use x="139.013672" xlink:href="#Helvetica-30"/>
      </g>
     </g>
    </g>
    <g id="ytick_4">
     <g id="text_7">
      <!-- 0.75 -->
      <g style="fill:#262626;" transform="translate(49.018125 64.183437)scale(0.2 -0.2)">
       <defs>
        <path d="M 3347 4400 
L 3347 3909 
Q 3131 3700 2773 3181 
Q 2416 2663 2141 2063 
Q 1869 1478 1728 997 
Q 1638 688 1494 0 
L 872 0 
Q 1084 1281 1809 2550 
Q 2238 3294 2709 3834 
L 234 3834 
L 234 4400 
L 3347 4400 
z
" id="Helvetica-37" transform="scale(0.015625)"/>
       </defs>
       <use xlink:href="#Helvetica-30"/>
       <use x="55.615234" xlink:href="#Helvetica-2e"/>
       <use x="83.398438" xlink:href="#Helvetica-37"/>
       <use x="139.013672" xlink:href="#Helvetica-35"/>
      </g>
     </g>
    </g>
    <g id="ytick_5">
     <g id="text_8">
      <!-- 1.0 -->
      <g style="fill:#262626;" transform="translate(60.14 35.973437)scale(0.2 -0.2)">
       <use xlink:href="#Helvetica-31"/>
       <use x="55.615234" xlink:href="#Helvetica-2e"/>
       <use x="83.398438" xlink:href="#Helvetica-30"/>
      </g>
     </g>
    </g>
    <g id="text_9">
     <!-- Probability -->
     <g style="fill:#262626;" transform="translate(39.65875 143.579375)rotate(-90)scale(0.25 -0.25)">
      <defs>
       <path d="M 428 3347 
L 963 3347 
L 963 2769 
Q 1028 2938 1284 3180 
Q 1541 3422 1875 3422 
Q 1891 3422 1928 3419 
Q 1966 3416 2056 3406 
L 2056 2813 
Q 2006 2822 1964 2825 
Q 1922 2828 1872 2828 
Q 1447 2828 1219 2554 
Q 991 2281 991 1925 
L 991 0 
L 428 0 
L 428 3347 
z
" id="Helvetica-72" transform="scale(0.015625)"/>
       <path d="M 369 4606 
L 916 4606 
L 916 2941 
Q 1100 3181 1356 3307 
Q 1613 3434 1913 3434 
Q 2538 3434 2927 3004 
Q 3316 2575 3316 1738 
Q 3316 944 2931 419 
Q 2547 -106 1866 -106 
Q 1484 -106 1222 78 
Q 1066 188 888 428 
L 888 0 
L 369 0 
L 369 4606 
z
M 1831 391 
Q 2288 391 2514 753 
Q 2741 1116 2741 1709 
Q 2741 2238 2514 2584 
Q 2288 2931 1847 2931 
Q 1463 2931 1173 2647 
Q 884 2363 884 1709 
Q 884 1238 1003 944 
Q 1225 391 1831 391 
z
" id="Helvetica-62" transform="scale(0.015625)"/>
       <path d="M 844 891 
Q 844 647 1022 506 
Q 1200 366 1444 366 
Q 1741 366 2019 503 
Q 2488 731 2488 1250 
L 2488 1703 
Q 2384 1638 2221 1594 
Q 2059 1550 1903 1531 
L 1563 1488 
Q 1256 1447 1103 1359 
Q 844 1213 844 891 
z
M 2206 2028 
Q 2400 2053 2466 2191 
Q 2503 2266 2503 2406 
Q 2503 2694 2298 2823 
Q 2094 2953 1713 2953 
Q 1272 2953 1088 2716 
Q 984 2584 953 2325 
L 428 2325 
Q 444 2944 830 3186 
Q 1216 3428 1725 3428 
Q 2316 3428 2684 3203 
Q 3050 2978 3050 2503 
L 3050 575 
Q 3050 488 3086 434 
Q 3122 381 3238 381 
Q 3275 381 3322 386 
Q 3369 391 3422 400 
L 3422 -16 
Q 3291 -53 3222 -62 
Q 3153 -72 3034 -72 
Q 2744 -72 2613 134 
Q 2544 244 2516 444 
Q 2344 219 2022 53 
Q 1700 -113 1313 -113 
Q 847 -113 551 170 
Q 256 453 256 878 
Q 256 1344 547 1600 
Q 838 1856 1309 1916 
L 2206 2028 
z
M 1741 3428 
L 1741 3428 
z
" id="Helvetica-61" transform="scale(0.015625)"/>
       <path d="M 428 4591 
L 991 4591 
L 991 0 
L 428 0 
L 428 4591 
z
" id="Helvetica-6c" transform="scale(0.015625)"/>
       <path d="M 2503 3347 
L 3125 3347 
Q 3006 3025 2597 1878 
Q 2291 1016 2084 472 
Q 1597 -809 1397 -1090 
Q 1197 -1372 709 -1372 
Q 591 -1372 527 -1362 
Q 463 -1353 369 -1328 
L 369 -816 
Q 516 -856 581 -865 
Q 647 -875 697 -875 
Q 853 -875 926 -823 
Q 1000 -772 1050 -697 
Q 1066 -672 1162 -440 
Q 1259 -209 1303 -97 
L 66 3347 
L 703 3347 
L 1600 622 
L 2503 3347 
z
M 1597 3428 
L 1597 3428 
z
" id="Helvetica-79" transform="scale(0.015625)"/>
      </defs>
      <use xlink:href="#Helvetica-50"/>
      <use x="66.699219" xlink:href="#Helvetica-72"/>
      <use x="100" xlink:href="#Helvetica-6f"/>
      <use x="155.615234" xlink:href="#Helvetica-62"/>
      <use x="211.230469" xlink:href="#Helvetica-61"/>
      <use x="266.845703" xlink:href="#Helvetica-62"/>
      <use x="322.460938" xlink:href="#Helvetica-69"/>
      <use x="344.677734" xlink:href="#Helvetica-6c"/>
      <use x="366.894531" xlink:href="#Helvetica-69"/>
      <use x="389.111328" xlink:href="#Helvetica-74"/>
      <use x="416.894531" xlink:href="#Helvetica-79"/>
     </g>
    </g>
   </g>
   <g id="patch_71">
    <path d="M 94.94 141.64 
L 94.94 28.8 
" style="fill:none;stroke:#000000;stroke-linecap:square;stroke-linejoin:miter;"/>
   </g>
  </g>
 </g>
 <defs>
  <clipPath id="p63f65a87cf">
   <rect height="112.84" width="189.46" x="94.94" y="28.8"/>
  </clipPath>
 </defs>
</svg>
