<?xml version="1.0" encoding="utf-8" standalone="no"?>
<!DOCTYPE svg PUBLIC "-//W3C//DTD SVG 1.1//EN"
  "http://www.w3.org/Graphics/SVG/1.1/DTD/svg11.dtd">
<svg height="216pt" version="1.1" viewBox="0 0 306 216" width="306pt" xmlns="http://www.w3.org/2000/svg" xmlns:xlink="http://www.w3.org/1999/xlink">
 <metadata>
  <rdf:RDF xmlns:cc="http://creativecommons.org/ns#" xmlns:dc="http://purl.org/dc/elements/1.1/" xmlns:rdf="http://www.w3.org/1999/02/22-rdf-syntax-ns#">
   <cc:Work>
    <dc:type rdf:resource="http://purl.org/dc/dcmitype/StillImage"/>
    <dc:date>2023-01-28T06:15:38.751986</dc:date>
    <dc:format>image/svg+xml</dc:format>
    <dc:creator>
     <cc:Agent>
      <dc:title>Matplotlib v3.4.2, https://matplotlib.org/</dc:title>
     </cc:Agent>
    </dc:creator>
   </cc:Work>
  </rdf:RDF>
 </metadata>
 <defs>
  <style type="text/css">*{stroke-linecap:butt;stroke-linejoin:round;}</style>
 </defs>
 <g id="figure_1">
  <g id="patch_1">
   <path d="M 0 216 
L 306 216 
L 306 0 
L 0 0 
z
" style="fill:#ffffff;"/>
  </g>
  <g id="axes_1">
   <g id="patch_2">
    <path d="M 94.94 141.64 
L 284.4 141.64 
L 284.4 28.8 
L 94.94 28.8 
z
" style="fill:#ffffff;"/>
   </g>
   <g id="line2d_1">
    <path clip-path="url(#pe3fc3d0475)" d="M 94.94 141.64 
L 284.4 141.64 
" style="fill:none;stroke:#000000;stroke-linecap:round;stroke-width:0.5;"/>
   </g>
   <g id="patch_3">
    <path clip-path="url(#pe3fc3d0475)" d="M 105.558702 118.633997 
L 105.558702 121.375074 
L 101.148734 121.375074 
L 101.148734 141.64 
L 99.349968 141.64 
L 99.349968 121.375074 
L 94.94 121.375074 
L 94.94 118.633997 
L 105.558702 118.633997 
z
" style="fill:#ff0000;"/>
   </g>
   <g id="patch_4">
    <path clip-path="url(#pe3fc3d0475)" d="M 100.416455 93.582694 
Q 102.054581 93.582694 103.249628 94.879077 
Q 104.981434 96.740683 105.368811 101.407661 
L 103.811705 101.407661 
Q 103.525603 98.799339 102.63185 97.606666 
Q 101.738096 96.413994 100.375945 96.413994 
Q 98.763138 96.413994 97.659238 98.897864 
Q 96.555339 101.376548 96.555339 106.287246 
Q 96.555339 110.529011 97.464284 113.194374 
Q 98.37576 115.859738 100.431646 115.859738 
Q 102.006475 115.859738 103.039482 113.992946 
Q 104.072489 112.120969 104.095276 107.936245 
L 100.456965 107.936245 
L 100.456965 105.265696 
L 105.558702 105.265696 
L 105.558702 118.001362 
L 104.54595 118.001362 
L 104.166168 114.936713 
Q 103.368626 116.736092 102.750848 117.436139 
Q 101.712777 118.633997 100.115161 118.633997 
Q 98.05168 118.633997 96.562935 115.896036 
Q 94.94 112.458029 94.94 106.463554 
Q 94.94 100.484636 96.522425 96.953289 
Q 98.026361 93.582694 100.416455 93.582694 
z
M 100.155671 93.546395 
L 100.155671 93.546395 
z
" style="fill:#ffa600;"/>
   </g>
   <g id="patch_5">
    <path clip-path="url(#pe3fc3d0475)" d="M 100.523163 66.377194 
Q 102.797109 66.377194 104.051431 68.962062 
Q 105.305752 71.541309 105.443962 74.822967 
L 103.863673 74.822967 
Q 103.595077 72.333627 102.791894 70.878235 
Q 101.988711 69.417223 100.53881 69.417223 
Q 98.770765 69.417223 97.683339 72.097618 
Q 96.595913 74.772393 96.595913 80.301761 
Q 96.595913 84.836517 97.576421 87.657394 
Q 98.559538 90.472651 100.507517 90.472651 
Q 102.299032 90.472651 103.237817 87.505673 
Q 103.733287 85.943514 103.978414 83.392363 
L 105.558702 83.392363 
Q 105.347475 87.466338 104.158348 90.225403 
Q 102.731916 93.546395 100.311937 93.546395 
Q 98.225748 93.546395 96.807139 90.821046 
Q 94.94 87.224709 94.94 79.706118 
Q 94.94 74.002552 96.342962 70.350023 
Q 97.858057 66.377194 100.523163 66.377194 
z
M 100.197196 66.377194 
L 100.197196 66.377194 
z
" style="fill:#0000ff;"/>
   </g>
   <g id="patch_6">
    <path clip-path="url(#pe3fc3d0475)" d="M 102.067515 50.981267 
L 100.261014 34.382149 
L 98.340473 50.981267 
L 102.067515 50.981267 
z
M 99.418672 28.8 
L 101.240724 28.8 
L 105.558702 66.377194 
L 103.791078 66.377194 
L 102.58588 55.122862 
L 97.879128 55.122862 
L 96.590992 66.377194 
L 94.94 66.377194 
L 99.418672 28.8 
z
M 100.253239 28.8 
L 100.253239 28.8 
z
" style="fill:#008000;"/>
   </g>
   <g id="patch_7">
    <path clip-path="url(#pe3fc3d0475)" d="M 111.594036 125.942338 
Q 113.232162 125.942338 114.427209 126.754678 
Q 116.159015 127.921199 116.546392 130.845624 
L 114.989286 130.845624 
Q 114.703184 129.211195 113.809431 128.463842 
Q 112.915677 127.716489 111.553526 127.716489 
Q 109.940719 127.716489 108.83682 129.272933 
Q 107.73292 130.826127 107.73292 133.903272 
Q 107.73292 136.561249 108.641865 138.231421 
Q 109.553341 139.901592 111.609227 139.901592 
Q 113.184056 139.901592 114.217063 138.731822 
Q 115.25007 137.558803 115.272857 134.936569 
L 111.634546 134.936569 
L 111.634546 133.263148 
L 116.736283 133.263148 
L 116.736283 141.243578 
L 115.723531 141.243578 
L 115.34375 139.323206 
Q 114.546208 140.450734 113.928429 140.889398 
Q 112.890358 141.64 111.292743 141.64 
Q 109.229261 141.64 107.740516 139.924338 
Q 106.117581 137.770011 106.117581 134.01375 
Q 106.117581 130.267237 107.700006 128.054423 
Q 109.203942 125.942338 111.594036 125.942338 
z
M 111.333253 125.919593 
L 111.333253 125.919593 
z
" style="fill:#ffa600;"/>
   </g>
   <g id="patch_8">
    <path clip-path="url(#pe3fc3d0475)" d="M 116.736283 101.87279 
L 116.736283 104.737874 
L 112.326315 104.737874 
L 112.326315 125.919593 
L 110.527549 125.919593 
L 110.527549 104.737874 
L 106.117581 104.737874 
L 106.117581 101.87279 
L 116.736283 101.87279 
z
" style="fill:#ff0000;"/>
   </g>
   <g id="patch_9">
    <path clip-path="url(#pe3fc3d0475)" d="M 111.700744 73.66279 
Q 113.97469 73.66279 115.229012 76.346678 
Q 116.483333 79.024732 116.621543 82.432104 
L 115.041255 82.432104 
Q 114.772658 79.847402 113.969475 78.336257 
Q 113.166292 76.819276 111.716391 76.819276 
Q 109.948346 76.819276 108.86092 79.602352 
Q 107.773494 82.379593 107.773494 88.12078 
Q 107.773494 92.829253 108.754002 95.758192 
Q 109.737119 98.681297 111.685098 98.681297 
Q 113.476613 98.681297 114.415398 95.60066 
Q 114.910868 93.978658 115.155995 91.329777 
L 116.736283 91.329777 
Q 116.525057 95.559818 115.335929 98.424577 
Q 113.909497 101.87279 111.489518 101.87279 
Q 109.403329 101.87279 107.98472 99.043038 
Q 106.117581 95.308933 106.117581 87.502319 
Q 106.117581 81.580261 107.520543 77.78781 
Q 109.035638 73.66279 111.700744 73.66279 
z
M 111.374777 73.66279 
L 111.374777 73.66279 
z
" style="fill:#0000ff;"/>
   </g>
   <g id="patch_10">
    <path clip-path="url(#pe3fc3d0475)" d="M 113.245097 55.281847 
L 111.438595 35.464435 
L 109.518054 55.281847 
L 113.245097 55.281847 
z
M 110.596253 28.8 
L 112.418305 28.8 
L 116.736283 73.66279 
L 114.968659 73.66279 
L 113.763461 60.226428 
L 109.056709 60.226428 
L 107.768573 73.66279 
L 106.117581 73.66279 
L 110.596253 28.8 
z
M 111.43082 28.8 
L 111.43082 28.8 
z
" style="fill:#008000;"/>
   </g>
   <g id="patch_11">
    <path clip-path="url(#pe3fc3d0475)" d="M 122.771617 124.903045 
Q 124.409743 124.903045 125.60479 125.769167 
Q 127.336596 127.01292 127.723973 130.130961 
L 126.166868 130.130961 
Q 125.880765 128.388322 124.987012 127.59149 
Q 124.093258 126.794657 122.731107 126.794657 
Q 121.1183 126.794657 120.014401 128.454148 
Q 118.910501 130.110174 118.910501 133.391047 
Q 118.910501 136.225001 119.819446 138.005749 
Q 120.730923 139.786497 122.786809 139.786497 
Q 124.361638 139.786497 125.394644 138.539281 
Q 126.427651 137.288599 126.450438 134.492755 
L 122.812127 134.492755 
L 122.812127 132.708543 
L 127.913864 132.708543 
L 127.913864 141.217332 
L 126.901113 141.217332 
L 126.521331 139.169818 
Q 125.723789 140.371996 125.10601 140.839703 
Q 124.06794 141.64 122.470324 141.64 
Q 120.406842 141.64 118.918097 139.810749 
Q 117.295162 137.513791 117.295162 133.50884 
Q 117.295162 129.514282 118.877587 127.154964 
Q 120.381523 124.903045 122.771617 124.903045 
z
M 122.510834 124.878793 
L 122.510834 124.878793 
z
" style="fill:#ffa600;"/>
   </g>
   <g id="patch_12">
    <path clip-path="url(#pe3fc3d0475)" d="M 127.913864 98.750392 
L 127.913864 101.863491 
L 123.503896 101.863491 
L 123.503896 124.878793 
L 121.705131 124.878793 
L 121.705131 101.863491 
L 117.295162 101.863491 
L 117.295162 98.750392 
L 127.913864 98.750392 
z
" style="fill:#ff0000;"/>
   </g>
   <g id="patch_13">
    <path clip-path="url(#pe3fc3d0475)" d="M 122.878326 67.417994 
Q 125.152272 67.417994 126.406593 70.398946 
Q 127.660914 73.373418 127.799124 77.157931 
L 126.218836 77.157931 
Q 125.950239 74.287144 125.147056 72.608739 
Q 124.343873 70.923853 122.893972 70.923853 
Q 121.125927 70.923853 120.038501 74.01497 
Q 118.951075 77.099608 118.951075 83.476253 
Q 118.951075 88.70588 119.931584 91.959006 
Q 120.9147 95.205651 122.862679 95.205651 
Q 124.654194 95.205651 125.592979 91.784037 
Q 126.088449 89.982505 126.333576 87.040435 
L 127.913864 87.040435 
Q 127.702638 91.738674 126.51351 94.920517 
Q 125.087078 98.750392 122.667099 98.750392 
Q 120.58091 98.750392 119.162301 95.607432 
Q 117.295162 91.46002 117.295162 82.789338 
Q 117.295162 76.211802 118.698124 71.999588 
Q 120.213219 67.417994 122.878326 67.417994 
z
M 122.552359 67.417994 
L 122.552359 67.417994 
z
" style="fill:#0000ff;"/>
   </g>
   <g id="patch_14">
    <path clip-path="url(#pe3fc3d0475)" d="M 124.422678 51.595636 
L 122.616176 34.536761 
L 120.695635 51.595636 
L 124.422678 51.595636 
z
M 121.773834 28.8 
L 123.595886 28.8 
L 127.913864 67.417994 
L 126.14624 67.417994 
L 124.941042 55.851943 
L 120.23429 55.851943 
L 118.946154 67.417994 
L 117.295162 67.417994 
L 121.773834 28.8 
z
M 122.608401 28.8 
L 122.608401 28.8 
z
" style="fill:#008000;"/>
   </g>
   <g id="patch_15">
    <path clip-path="url(#pe3fc3d0475)" d="M 139.091445 120.715596 
L 139.091445 123.208658 
L 134.681477 123.208658 
L 134.681477 141.64 
L 132.882712 141.64 
L 132.882712 123.208658 
L 128.472743 123.208658 
L 128.472743 120.715596 
L 139.091445 120.715596 
z
" style="fill:#ff0000;"/>
   </g>
   <g id="patch_16">
    <path clip-path="url(#pe3fc3d0475)" d="M 133.949198 97.74288 
Q 135.587324 97.74288 136.782371 98.931697 
Q 138.514177 100.63884 138.901554 104.918584 
L 137.344449 104.918584 
Q 137.058346 102.526683 136.164593 101.43297 
Q 135.270839 100.339258 133.908688 100.339258 
Q 132.295881 100.339258 131.191982 102.617033 
Q 130.088082 104.890052 130.088082 109.393294 
Q 130.088082 113.283106 130.997027 115.727316 
Q 131.908504 118.171525 133.96439 118.171525 
Q 135.539219 118.171525 136.572225 116.459628 
Q 137.605232 114.742975 137.628019 110.905471 
L 133.989709 110.905471 
L 133.989709 108.456506 
L 139.091445 108.456506 
L 139.091445 120.135453 
L 138.078694 120.135453 
L 137.698912 117.325087 
Q 136.90137 118.975166 136.283591 119.617128 
Q 135.245521 120.715596 133.647905 120.715596 
Q 131.584423 120.715596 130.095678 118.204812 
Q 128.472743 115.052067 128.472743 109.554974 
Q 128.472743 104.072146 130.055168 100.833806 
Q 131.559104 97.74288 133.949198 97.74288 
z
M 133.688415 97.709593 
L 133.688415 97.709593 
z
" style="fill:#ffa600;"/>
   </g>
   <g id="patch_17">
    <path clip-path="url(#pe3fc3d0475)" d="M 135.600259 85.298681 
L 133.793758 71.917857 
L 131.873216 85.298681 
L 135.600259 85.298681 
z
M 132.951415 67.417994 
L 134.773467 67.417994 
L 139.091445 97.709593 
L 137.323822 97.709593 
L 136.118624 88.637288 
L 131.411872 88.637288 
L 130.123735 97.709593 
L 128.472743 97.709593 
L 132.951415 67.417994 
z
M 133.785982 67.417994 
L 133.785982 67.417994 
z
" style="fill:#008000;"/>
   </g>
   <g id="patch_18">
    <path clip-path="url(#pe3fc3d0475)" d="M 134.055907 28.8 
Q 136.329853 28.8 137.584174 32.474101 
Q 138.838495 36.140214 138.976705 40.804725 
L 137.396417 40.804725 
Q 137.12782 37.266406 136.324637 35.197728 
Q 135.521454 33.121062 134.071553 33.121062 
Q 132.303508 33.121062 131.216082 36.930945 
Q 130.128656 40.73284 130.128656 48.592221 
Q 130.128656 55.037872 131.109165 59.047434 
Q 132.092281 63.049009 134.04026 63.049009 
Q 135.831775 63.049009 136.77056 58.83178 
Q 137.26603 56.611345 137.511157 52.985168 
L 139.091445 52.985168 
Q 138.880219 58.77587 137.691091 62.697573 
Q 136.264659 67.417994 133.84468 67.417994 
Q 131.758491 67.417994 130.339883 63.544214 
Q 128.472743 58.432421 128.472743 47.74558 
Q 128.472743 39.638597 129.875705 34.446933 
Q 131.3908 28.8 134.055907 28.8 
z
M 133.72994 28.8 
L 133.72994 28.8 
z
" style="fill:#0000ff;"/>
   </g>
   <g id="patch_19">
    <path clip-path="url(#pe3fc3d0475)" d="M 150.269027 125.919593 
L 150.269027 127.792619 
L 145.859058 127.792619 
L 145.859058 141.64 
L 144.060293 141.64 
L 144.060293 127.792619 
L 139.650324 127.792619 
L 139.650324 125.919593 
L 150.269027 125.919593 
z
" style="fill:#ff0000;"/>
   </g>
   <g id="patch_20">
    <path clip-path="url(#pe3fc3d0475)" d="M 145.12678 102.946876 
Q 146.764906 102.946876 147.959953 104.135694 
Q 149.691758 105.842837 150.079136 110.122581 
L 148.52203 110.122581 
Q 148.235927 107.730679 147.342174 106.636967 
Q 146.448421 105.543255 145.086269 105.543255 
Q 143.473462 105.543255 142.369563 107.82103 
Q 141.265664 110.094049 141.265664 114.597291 
Q 141.265664 118.487103 142.174608 120.931313 
Q 143.086085 123.375522 145.141971 123.375522 
Q 146.7168 123.375522 147.749807 121.663625 
Q 148.782813 119.946972 148.8056 116.109468 
L 145.16729 116.109468 
L 145.16729 113.660503 
L 150.269027 113.660503 
L 150.269027 125.33945 
L 149.256275 125.33945 
L 148.876493 122.529084 
Q 148.078951 124.179163 147.461172 124.821125 
Q 146.423102 125.919593 144.825486 125.919593 
Q 142.762004 125.919593 141.273259 123.408809 
Q 139.650324 120.256064 139.650324 114.758971 
Q 139.650324 109.276143 141.232749 106.037803 
Q 142.736685 102.946876 145.12678 102.946876 
z
M 144.865996 102.91359 
L 144.865996 102.91359 
z
" style="fill:#ffa600;"/>
   </g>
   <g id="patch_21">
    <path clip-path="url(#pe3fc3d0475)" d="M 146.77784 90.502677 
L 144.971339 77.121854 
L 143.050797 90.502677 
L 146.77784 90.502677 
z
M 144.128996 72.621991 
L 145.951048 72.621991 
L 150.269027 102.91359 
L 148.501403 102.91359 
L 147.296205 93.841285 
L 142.589453 93.841285 
L 141.301316 102.91359 
L 139.650324 102.91359 
L 144.128996 72.621991 
z
M 144.963563 72.621991 
L 144.963563 72.621991 
z
" style="fill:#008000;"/>
   </g>
   <g id="patch_22">
    <path clip-path="url(#pe3fc3d0475)" d="M 145.233488 28.8 
Q 147.507434 28.8 148.761755 32.969207 
Q 150.016076 37.12935 150.154286 42.422431 
L 148.573998 42.422431 
Q 148.305401 38.407303 147.502218 36.059858 
Q 146.699036 33.70335 145.249134 33.70335 
Q 143.481089 33.70335 142.393663 38.026636 
Q 141.306237 42.340859 141.306237 51.259337 
Q 141.306237 58.573576 142.286746 63.12345 
Q 143.269862 67.66426 145.217841 67.66426 
Q 147.009356 67.66426 147.948141 62.878735 
Q 148.443611 60.359084 148.688738 56.244258 
L 150.269027 56.244258 
Q 150.0578 62.815291 148.868672 67.265466 
Q 147.44224 72.621991 145.022261 72.621991 
Q 142.936072 72.621991 141.517464 68.226196 
Q 139.650324 62.425561 139.650324 50.298606 
Q 139.650324 41.099161 141.053287 35.20789 
Q 142.568381 28.8 145.233488 28.8 
z
M 144.907521 28.8 
L 144.907521 28.8 
z
" style="fill:#0000ff;"/>
   </g>
   <g id="patch_23">
    <path clip-path="url(#pe3fc3d0475)" d="M 161.446608 123.837994 
L 161.446608 125.959034 
L 157.036639 125.959034 
L 157.036639 141.64 
L 155.237874 141.64 
L 155.237874 125.959034 
L 150.827906 125.959034 
L 150.827906 123.837994 
L 161.446608 123.837994 
z
" style="fill:#ff0000;"/>
   </g>
   <g id="patch_24">
    <path clip-path="url(#pe3fc3d0475)" d="M 156.304361 99.825984 
Q 157.942487 99.825984 159.137534 101.068585 
Q 160.869339 102.852959 161.256717 107.32632 
L 159.699611 107.32632 
Q 159.413509 104.826208 158.519755 103.683016 
Q 157.626002 102.539823 156.263851 102.539823 
Q 154.651043 102.539823 153.547144 104.920646 
Q 152.443245 107.296498 152.443245 112.003468 
Q 152.443245 116.069256 153.352189 118.624043 
Q 154.263666 121.178829 156.319552 121.178829 
Q 157.894381 121.178829 158.927388 119.389485 
Q 159.960394 117.59517 159.983181 113.584056 
L 156.344871 113.584056 
L 156.344871 111.024299 
L 161.446608 111.024299 
L 161.446608 123.231605 
L 160.433856 123.231605 
L 160.054074 120.294098 
Q 159.256532 122.018827 158.638753 122.689831 
Q 157.600683 123.837994 156.003067 123.837994 
Q 153.939585 123.837994 152.45084 121.213622 
Q 150.827906 117.918246 150.827906 112.172462 
Q 150.827906 106.441589 152.41033 103.056745 
Q 153.914267 99.825984 156.304361 99.825984 
z
M 156.043577 99.791191 
L 156.043577 99.791191 
z
" style="fill:#ffa600;"/>
   </g>
   <g id="patch_25">
    <path clip-path="url(#pe3fc3d0475)" d="M 156.411069 65.336395 
Q 158.685015 65.336395 159.939336 68.614411 
Q 161.193657 71.885301 161.331867 76.046955 
L 159.751579 76.046955 
Q 159.482982 72.890084 158.679799 71.044418 
Q 157.876617 69.191627 156.426715 69.191627 
Q 154.65867 69.191627 153.571244 72.590787 
Q 152.483818 75.98282 152.483818 82.994924 
Q 152.483818 88.745703 153.464327 92.323016 
Q 154.447444 95.893203 156.395423 95.893203 
Q 158.186937 95.893203 159.125722 92.130611 
Q 159.621192 90.149549 159.866319 86.91429 
L 161.446608 86.91429 
Q 161.235381 92.080728 160.046253 95.579654 
Q 158.619822 99.791191 156.199842 99.791191 
Q 154.113653 99.791191 152.695045 96.335023 
Q 150.827906 91.774305 150.827906 82.239555 
Q 150.827906 75.006542 152.230868 70.374563 
Q 153.745962 65.336395 156.411069 65.336395 
z
M 156.085102 65.336395 
L 156.085102 65.336395 
z
" style="fill:#0000ff;"/>
   </g>
   <g id="patch_26">
    <path clip-path="url(#pe3fc3d0475)" d="M 157.955421 50.366898 
L 156.14892 34.227537 
L 154.228378 50.366898 
L 157.955421 50.366898 
z
M 155.306577 28.8 
L 157.128629 28.8 
L 161.446608 65.336395 
L 159.678984 65.336395 
L 158.473786 54.393781 
L 153.767034 54.393781 
L 152.478897 65.336395 
L 150.827906 65.336395 
L 155.306577 28.8 
z
M 156.141144 28.8 
L 156.141144 28.8 
z
" style="fill:#008000;"/>
   </g>
   <g id="patch_27">
    <path clip-path="url(#pe3fc3d0475)" d="M 172.624189 119.674796 
L 172.624189 122.291866 
L 168.21422 122.291866 
L 168.21422 141.64 
L 166.415455 141.64 
L 166.415455 122.291866 
L 162.005487 122.291866 
L 162.005487 119.674796 
L 172.624189 119.674796 
z
" style="fill:#ff0000;"/>
   </g>
   <g id="patch_28">
    <path clip-path="url(#pe3fc3d0475)" d="M 167.481942 96.70208 
Q 169.120068 96.70208 170.315115 97.890898 
Q 172.04692 99.59804 172.434298 103.877785 
L 170.877192 103.877785 
Q 170.59109 101.485883 169.697336 100.392171 
Q 168.803583 99.298458 167.441432 99.298458 
Q 165.828625 99.298458 164.724725 101.576233 
Q 163.620826 103.849253 163.620826 108.352495 
Q 163.620826 112.242307 164.52977 114.686517 
Q 165.441247 117.130726 167.497133 117.130726 
Q 169.071962 117.130726 170.104969 115.418828 
Q 171.137976 113.702175 171.160763 109.864671 
L 167.522452 109.864671 
L 167.522452 107.415707 
L 172.624189 107.415707 
L 172.624189 119.094653 
L 171.611437 119.094653 
L 171.231655 116.284288 
Q 170.434113 117.934367 169.816335 118.576329 
Q 168.778264 119.674796 167.180648 119.674796 
Q 165.117166 119.674796 163.628421 117.164013 
Q 162.005487 114.011268 162.005487 108.514174 
Q 162.005487 103.031346 163.587911 99.793007 
Q 165.091848 96.70208 167.481942 96.70208 
z
M 167.221158 96.668793 
L 167.221158 96.668793 
z
" style="fill:#ffa600;"/>
   </g>
   <g id="patch_29">
    <path clip-path="url(#pe3fc3d0475)" d="M 169.133002 83.83145 
L 167.326501 69.99087 
L 165.40596 83.83145 
L 169.133002 83.83145 
z
M 166.484158 65.336395 
L 168.30621 65.336395 
L 172.624189 96.668793 
L 170.856565 96.668793 
L 169.651367 87.284771 
L 164.944615 87.284771 
L 163.656478 96.668793 
L 162.005487 96.668793 
L 166.484158 65.336395 
z
M 167.318725 65.336395 
L 167.318725 65.336395 
z
" style="fill:#008000;"/>
   </g>
   <g id="patch_30">
    <path clip-path="url(#pe3fc3d0475)" d="M 167.58865 28.8 
Q 169.862596 28.8 171.116917 32.276058 
Q 172.371238 35.74456 172.509448 40.157643 
L 170.92916 40.157643 
Q 170.660563 36.810047 169.857381 34.852875 
Q 169.054198 32.888147 167.604296 32.888147 
Q 165.836251 32.888147 164.748825 36.492668 
Q 163.661399 40.089633 163.661399 47.525375 
Q 163.661399 53.62359 164.641908 57.417028 
Q 165.625025 61.202908 167.573004 61.202908 
Q 169.364518 61.202908 170.303304 57.212998 
Q 170.798773 55.11225 171.043901 51.681531 
L 172.624189 51.681531 
Q 172.412962 57.160101 171.223834 60.870416 
Q 169.797403 65.336395 167.377423 65.336395 
Q 165.291234 65.336395 163.872626 61.671421 
Q 162.005487 56.835166 162.005487 46.72437 
Q 162.005487 39.054372 163.408449 34.14255 
Q 164.923544 28.8 167.58865 28.8 
z
M 167.262683 28.8 
L 167.262683 28.8 
z
" style="fill:#0000ff;"/>
   </g>
   <g id="patch_31">
    <path clip-path="url(#pe3fc3d0475)" d="M 183.80177 129.041991 
L 183.80177 130.542995 
L 179.391802 130.542995 
L 179.391802 141.64 
L 177.593036 141.64 
L 177.593036 130.542995 
L 173.183068 130.542995 
L 173.183068 129.041991 
L 183.80177 129.041991 
z
" style="fill:#ff0000;"/>
   </g>
   <g id="patch_32">
    <path clip-path="url(#pe3fc3d0475)" d="M 178.659523 109.187155 
Q 180.297649 109.187155 181.492696 110.214625 
Q 183.224501 111.690073 183.611879 115.388966 
L 182.054773 115.388966 
Q 181.768671 113.321695 180.874917 112.376423 
Q 179.981164 111.43115 178.619013 111.43115 
Q 177.006206 111.43115 175.902306 113.399783 
Q 174.798407 115.364306 174.798407 119.256364 
Q 174.798407 122.618247 175.707352 124.730725 
Q 176.618828 126.843204 178.674714 126.843204 
Q 180.249543 126.843204 181.28255 125.363647 
Q 182.315557 123.87998 182.338344 120.563306 
L 178.700033 120.563306 
L 178.700033 118.446717 
L 183.80177 118.446717 
L 183.80177 128.540585 
L 182.789018 128.540585 
L 182.409236 126.111646 
Q 181.611694 127.537774 180.993916 128.092608 
Q 179.955845 129.041991 178.358229 129.041991 
Q 176.294748 129.041991 174.806003 126.871974 
Q 173.183068 124.147122 173.183068 119.3961 
Q 173.183068 114.657407 174.765492 111.858578 
Q 176.269429 109.187155 178.659523 109.187155 
z
M 178.398739 109.158386 
L 178.398739 109.158386 
z
" style="fill:#ffa600;"/>
   </g>
   <g id="patch_33">
    <path clip-path="url(#pe3fc3d0475)" d="M 178.766231 69.499593 
Q 181.040177 69.499593 182.294498 73.272715 
Q 183.548819 77.037634 183.68703 81.827859 
L 182.106741 81.827859 
Q 181.838145 78.194178 181.034962 76.069746 
Q 180.231779 73.937112 178.781878 73.937112 
Q 177.013832 73.937112 175.926406 77.849676 
Q 174.83898 81.754037 174.83898 89.825237 
Q 174.83898 96.444605 175.819489 100.56223 
Q 176.802606 104.671652 178.750585 104.671652 
Q 180.5421 104.671652 181.480885 100.340764 
Q 181.976355 98.060486 182.221482 94.336578 
L 183.80177 94.336578 
Q 183.590543 100.283347 182.401416 104.310744 
Q 180.974984 109.158386 178.555005 109.158386 
Q 176.468816 109.158386 175.050207 105.180203 
Q 173.183068 99.930642 173.183068 88.955778 
Q 173.183068 80.630303 174.58603 75.298717 
Q 176.101125 69.499593 178.766231 69.499593 
z
M 178.440264 69.499593 
L 178.440264 69.499593 
z
" style="fill:#0000ff;"/>
   </g>
   <g id="patch_34">
    <path clip-path="url(#pe3fc3d0475)" d="M 180.310583 52.824373 
L 178.504082 34.845986 
L 176.583541 52.824373 
L 180.310583 52.824373 
z
M 177.661739 28.8 
L 179.483791 28.8 
L 183.80177 69.499593 
L 182.034146 69.499593 
L 180.828948 57.310105 
L 176.122196 57.310105 
L 174.83406 69.499593 
L 173.183068 69.499593 
L 177.661739 28.8 
z
M 178.496307 28.8 
L 178.496307 28.8 
z
" style="fill:#008000;"/>
   </g>
   <g id="patch_35">
    <path clip-path="url(#pe3fc3d0475)" d="M 194.979351 126.960392 
L 194.979351 128.709411 
L 190.569383 128.709411 
L 190.569383 141.64 
L 188.770617 141.64 
L 188.770617 128.709411 
L 184.360649 128.709411 
L 184.360649 126.960392 
L 194.979351 126.960392 
z
" style="fill:#ff0000;"/>
   </g>
   <g id="patch_36">
    <path clip-path="url(#pe3fc3d0475)" d="M 189.837104 99.830502 
Q 191.47523 99.830502 192.670277 101.23445 
Q 194.402083 103.250519 194.78946 108.304732 
L 193.232354 108.304732 
Q 192.946252 105.479988 192.052498 104.188356 
Q 191.158745 102.896724 189.796594 102.896724 
Q 188.183787 102.896724 187.079887 105.586689 
Q 185.975988 108.271037 185.975988 113.589192 
Q 185.975988 118.182909 186.884933 121.069426 
Q 187.796409 123.955943 189.852295 123.955943 
Q 191.427124 123.955943 192.460131 121.934258 
Q 193.493138 119.906958 193.515925 115.375014 
L 189.877614 115.375014 
L 189.877614 112.482881 
L 194.979351 112.482881 
L 194.979351 126.275265 
L 193.966599 126.275265 
L 193.586817 122.956332 
Q 192.789275 124.905012 192.171497 125.663144 
Q 191.133426 126.960392 189.53581 126.960392 
Q 187.472329 126.960392 185.983584 123.995254 
Q 184.360649 120.271984 184.360649 113.780129 
Q 184.360649 107.305121 185.943074 103.480767 
Q 187.44701 99.830502 189.837104 99.830502 
z
M 189.57632 99.791191 
L 189.57632 99.791191 
z
" style="fill:#ffa600;"/>
   </g>
   <g id="patch_37">
    <path clip-path="url(#pe3fc3d0475)" d="M 191.488164 88.233141 
L 189.681663 75.77183 
L 187.761122 88.233141 
L 191.488164 88.233141 
z
M 188.83932 71.581191 
L 190.661373 71.581191 
L 194.979351 99.791191 
L 193.211727 99.791191 
L 192.006529 91.342324 
L 187.299777 91.342324 
L 186.011641 99.791191 
L 184.360649 99.791191 
L 188.83932 71.581191 
z
M 189.673888 71.581191 
L 189.673888 71.581191 
z
" style="fill:#008000;"/>
   </g>
   <g id="patch_38">
    <path clip-path="url(#pe3fc3d0475)" d="M 189.943812 28.8 
Q 192.217758 28.8 193.472079 32.870186 
Q 194.726401 36.931523 194.864611 42.098889 
L 193.284322 42.098889 
Q 193.015726 38.179124 192.212543 35.887432 
Q 191.40936 33.586892 189.959459 33.586892 
Q 188.191414 33.586892 187.103988 37.807498 
Q 186.016561 42.019255 186.016561 50.725914 
Q 186.016561 57.866435 186.99707 62.308246 
Q 187.980187 66.74121 189.928166 66.74121 
Q 191.719681 66.74121 192.658466 62.069344 
Q 193.153936 59.609536 193.399063 55.59244 
L 194.979351 55.59244 
Q 194.768124 62.007407 193.578997 66.351888 
Q 192.152565 71.581191 189.732586 71.581191 
Q 187.646397 71.581191 186.227788 67.2898 
Q 184.360649 61.626933 184.360649 49.788001 
Q 184.360649 40.807048 185.763611 35.055699 
Q 187.278706 28.8 189.943812 28.8 
z
M 189.617845 28.8 
L 189.617845 28.8 
z
" style="fill:#0000ff;"/>
   </g>
   <g id="patch_39">
    <path clip-path="url(#pe3fc3d0475)" d="M 206.156932 128.001191 
L 206.156932 129.626203 
L 201.746964 129.626203 
L 201.746964 141.64 
L 199.948198 141.64 
L 199.948198 129.626203 
L 195.53823 129.626203 
L 195.53823 128.001191 
L 206.156932 128.001191 
z
" style="fill:#ff0000;"/>
   </g>
   <g id="patch_40">
    <path clip-path="url(#pe3fc3d0475)" d="M 201.014685 99.832008 
Q 202.652811 99.832008 203.847858 101.289738 
Q 205.579664 103.383039 205.967041 108.630869 
L 204.409935 108.630869 
Q 204.123833 105.697915 203.23008 104.356803 
Q 202.336326 103.015691 200.974175 103.015691 
Q 199.361368 103.015691 198.257469 105.808703 
Q 197.153569 108.595883 197.153569 114.117766 
Q 197.153569 118.887461 198.062514 121.884554 
Q 198.97399 124.881648 201.029876 124.881648 
Q 202.604705 124.881648 203.637712 122.782516 
Q 204.670719 120.677554 204.693506 115.972 
L 201.055195 115.972 
L 201.055195 112.969075 
L 206.156932 112.969075 
L 206.156932 127.289819 
L 205.14418 127.289819 
L 204.764399 123.843744 
Q 203.966857 125.867074 203.349078 126.654248 
Q 202.311007 128.001191 200.713392 128.001191 
Q 198.64991 128.001191 197.161165 124.922465 
Q 195.53823 121.056563 195.53823 114.316018 
Q 195.53823 107.592965 197.120655 103.622107 
Q 198.624591 99.832008 201.014685 99.832008 
z
M 200.753902 99.791191 
L 200.753902 99.791191 
z
" style="fill:#ffa600;"/>
   </g>
   <g id="patch_41">
    <path clip-path="url(#pe3fc3d0475)" d="M 202.665746 86.953849 
L 200.859244 73.113268 
L 198.938703 86.953849 
L 202.665746 86.953849 
z
M 200.016902 68.458793 
L 201.838954 68.458793 
L 206.156932 99.791191 
L 204.389308 99.791191 
L 203.18411 90.407169 
L 198.477358 90.407169 
L 197.189222 99.791191 
L 195.53823 99.791191 
L 200.016902 68.458793 
z
M 200.851469 68.458793 
L 200.851469 68.458793 
z
" style="fill:#008000;"/>
   </g>
   <g id="patch_42">
    <path clip-path="url(#pe3fc3d0475)" d="M 201.121393 28.8 
Q 203.395339 28.8 204.649661 32.573122 
Q 205.903982 36.338042 206.042192 41.128266 
L 204.461904 41.128266 
Q 204.193307 37.494585 203.390124 35.370154 
Q 202.586941 33.23752 201.13704 33.23752 
Q 199.368995 33.23752 198.281569 37.150083 
Q 197.194143 41.054444 197.194143 49.125644 
Q 197.194143 55.745013 198.174651 59.862637 
Q 199.157768 63.972059 201.105747 63.972059 
Q 202.897262 63.972059 203.836047 59.641171 
Q 204.331517 57.360893 204.576644 53.636986 
L 206.156932 53.636986 
Q 205.945706 59.583754 204.756578 63.611152 
Q 203.330146 68.458793 200.910167 68.458793 
Q 198.823978 68.458793 197.405369 64.48061 
Q 195.53823 59.231049 195.53823 48.256186 
Q 195.53823 39.93071 196.941192 34.599124 
Q 198.456287 28.8 201.121393 28.8 
z
M 200.795426 28.8 
L 200.795426 28.8 
z
" style="fill:#0000ff;"/>
   </g>
   <g id="patch_43">
    <path clip-path="url(#pe3fc3d0475)" d="M 217.334513 124.878793 
L 217.334513 126.875827 
L 212.924545 126.875827 
L 212.924545 141.64 
L 211.12578 141.64 
L 211.12578 126.875827 
L 206.715811 126.875827 
L 206.715811 124.878793 
L 217.334513 124.878793 
z
" style="fill:#ff0000;"/>
   </g>
   <g id="patch_44">
    <path clip-path="url(#pe3fc3d0475)" d="M 212.192266 107.102544 
Q 213.830392 107.102544 215.025439 108.02245 
Q 216.757245 109.343434 217.144622 112.655092 
L 215.587517 112.655092 
Q 215.301414 110.804243 214.407661 109.95793 
Q 213.513907 109.111617 212.151756 109.111617 
Q 210.538949 109.111617 209.43505 110.874156 
Q 208.33115 112.633015 208.33115 116.117616 
Q 208.33115 119.127546 209.240095 121.018871 
Q 210.151572 122.910196 212.207458 122.910196 
Q 213.782287 122.910196 214.815293 121.585532 
Q 215.8483 120.257189 215.871087 117.287735 
L 212.232776 117.287735 
L 212.232776 115.39273 
L 217.334513 115.39273 
L 217.334513 124.429879 
L 216.321762 124.429879 
L 215.94198 122.255223 
Q 215.144438 123.532052 214.526659 124.028801 
Q 213.488589 124.878793 211.890973 124.878793 
Q 209.827491 124.878793 208.338746 122.935953 
Q 206.715811 120.496365 206.715811 116.242723 
Q 206.715811 112.00012 208.298236 109.494298 
Q 209.802172 107.102544 212.192266 107.102544 
z
M 211.931483 107.076787 
L 211.931483 107.076787 
z
" style="fill:#ffa600;"/>
   </g>
   <g id="patch_45">
    <path clip-path="url(#pe3fc3d0475)" d="M 213.843327 92.960152 
L 212.036825 77.740303 
L 210.116284 92.960152 
L 213.843327 92.960152 
z
M 211.194483 72.621991 
L 213.016535 72.621991 
L 217.334513 107.076787 
L 215.566889 107.076787 
L 214.361691 96.757609 
L 209.654939 96.757609 
L 208.366803 107.076787 
L 206.715811 107.076787 
L 211.194483 72.621991 
z
M 212.02905 72.621991 
L 212.02905 72.621991 
z
" style="fill:#008000;"/>
   </g>
   <g id="patch_46">
    <path clip-path="url(#pe3fc3d0475)" d="M 212.298975 28.8 
Q 214.572921 28.8 215.827242 32.969207 
Q 217.081563 37.12935 217.219773 42.422431 
L 215.639485 42.422431 
Q 215.370888 38.407303 214.567705 36.059858 
Q 213.764522 33.70335 212.314621 33.70335 
Q 210.546576 33.70335 209.45915 38.026636 
Q 208.371724 42.340859 208.371724 51.259337 
Q 208.371724 58.573576 209.352233 63.12345 
Q 210.335349 67.66426 212.283328 67.66426 
Q 214.074843 67.66426 215.013628 62.878735 
Q 215.509098 60.359084 215.754225 56.244258 
L 217.334513 56.244258 
Q 217.123287 62.815291 215.934159 67.265466 
Q 214.507727 72.621991 212.087748 72.621991 
Q 210.001559 72.621991 208.58295 68.226196 
Q 206.715811 62.425561 206.715811 50.298606 
Q 206.715811 41.099161 208.118773 35.20789 
Q 209.633868 28.8 212.298975 28.8 
z
M 211.973008 28.8 
L 211.973008 28.8 
z
" style="fill:#0000ff;"/>
   </g>
   <g id="patch_47">
    <path clip-path="url(#pe3fc3d0475)" d="M 228.512094 129.041991 
L 228.512094 130.542995 
L 224.102126 130.542995 
L 224.102126 141.64 
L 222.303361 141.64 
L 222.303361 130.542995 
L 217.893392 130.542995 
L 217.893392 129.041991 
L 228.512094 129.041991 
z
" style="fill:#ff0000;"/>
   </g>
   <g id="patch_48">
    <path clip-path="url(#pe3fc3d0475)" d="M 225.020908 116.631079 
L 223.214407 103.250255 
L 221.293865 116.631079 
L 225.020908 116.631079 
z
M 222.372064 98.750392 
L 224.194116 98.750392 
L 228.512094 129.041991 
L 226.744471 129.041991 
L 225.539273 119.969687 
L 220.832521 119.969687 
L 219.544384 129.041991 
L 217.893392 129.041991 
L 222.372064 98.750392 
z
M 223.206631 98.750392 
L 223.206631 98.750392 
z
" style="fill:#008000;"/>
   </g>
   <g id="patch_49">
    <path clip-path="url(#pe3fc3d0475)" d="M 223.476556 64.295596 
Q 225.750502 64.295596 227.004823 67.573611 
Q 228.259144 70.844501 228.397354 75.006156 
L 226.817066 75.006156 
Q 226.548469 71.849284 225.745286 70.003619 
Q 224.942103 68.150827 223.492202 68.150827 
Q 221.724157 68.150827 220.636731 71.549987 
Q 219.549305 74.942021 219.549305 81.954124 
Q 219.549305 87.704904 220.529814 91.282217 
Q 221.51293 94.852404 223.460909 94.852404 
Q 225.252424 94.852404 226.191209 91.089812 
Q 226.686679 89.10875 226.931806 85.873491 
L 228.512094 85.873491 
Q 228.300868 91.039929 227.11174 94.538854 
Q 225.685308 98.750392 223.265329 98.750392 
Q 221.17914 98.750392 219.760531 95.294223 
Q 217.893392 90.733506 217.893392 81.198755 
Q 217.893392 73.965742 219.296354 69.333763 
Q 220.811449 64.295596 223.476556 64.295596 
z
M 223.150589 64.295596 
L 223.150589 64.295596 
z
" style="fill:#0000ff;"/>
   </g>
   <g id="patch_50">
    <path clip-path="url(#pe3fc3d0475)" d="M 223.369847 28.851358 
Q 225.007973 28.851358 226.20302 30.685566 
Q 227.934826 33.319489 228.322203 39.922638 
L 226.765098 39.922638 
Q 226.478995 36.232211 225.585242 34.54474 
Q 224.691488 32.857268 223.329337 32.857268 
Q 221.71653 32.857268 220.612631 36.371611 
Q 219.508731 39.878617 219.508731 46.826597 
Q 219.508731 52.828126 220.417676 56.599258 
Q 221.329153 60.37039 223.385039 60.37039 
Q 224.959868 60.37039 225.992874 57.729131 
Q 227.025881 55.080534 227.048668 49.15971 
L 223.410357 49.15971 
L 223.410357 45.381241 
L 228.512094 45.381241 
L 228.512094 63.400502 
L 227.499343 63.400502 
L 227.119561 59.064434 
Q 226.322019 61.610315 225.70424 62.600787 
Q 224.66617 64.295596 223.068554 64.295596 
Q 221.005072 64.295596 219.516327 60.421748 
Q 217.893392 55.557428 217.893392 47.07605 
Q 217.893392 38.616682 219.475817 33.620299 
Q 220.979753 28.851358 223.369847 28.851358 
z
M 223.109064 28.8 
L 223.109064 28.8 
z
" style="fill:#ffa600;"/>
   </g>
   <g id="patch_51">
    <path clip-path="url(#pe3fc3d0475)" d="M 239.689676 124.878793 
L 239.689676 126.875827 
L 235.279707 126.875827 
L 235.279707 141.64 
L 233.480942 141.64 
L 233.480942 126.875827 
L 229.070973 126.875827 
L 229.070973 124.878793 
L 239.689676 124.878793 
z
" style="fill:#ff0000;"/>
   </g>
   <g id="patch_52">
    <path clip-path="url(#pe3fc3d0475)" d="M 236.198489 115.452897 
L 234.391988 105.290367 
L 232.471446 115.452897 
L 236.198489 115.452897 
z
M 233.549645 101.87279 
L 235.371697 101.87279 
L 239.689676 124.878793 
L 237.922052 124.878793 
L 236.716854 117.988518 
L 232.010102 117.988518 
L 230.721965 124.878793 
L 229.070973 124.878793 
L 233.549645 101.87279 
z
M 234.384212 101.87279 
L 234.384212 101.87279 
z
" style="fill:#008000;"/>
   </g>
   <g id="patch_53">
    <path clip-path="url(#pe3fc3d0475)" d="M 234.654137 66.377194 
Q 236.928083 66.377194 238.182404 69.754231 
Q 239.436725 73.123927 239.574935 77.411296 
L 237.994647 77.411296 
Q 237.72605 74.159062 236.922867 72.257644 
Q 236.119685 70.348884 234.669783 70.348884 
Q 232.901738 70.348884 231.814312 73.850724 
Q 230.726886 77.345223 230.726886 84.569146 
Q 230.726886 90.493644 231.707395 94.179019 
Q 232.690511 97.857053 234.63849 97.857053 
Q 236.430005 97.857053 237.36879 93.980801 
Q 237.86426 91.939896 238.109387 88.606908 
L 239.689676 88.606908 
Q 239.478449 93.929412 238.289321 97.534032 
Q 236.862889 101.87279 234.44291 101.87279 
Q 232.356721 101.87279 230.938113 98.312219 
Q 229.070973 93.613732 229.070973 83.790959 
Q 229.070973 76.339454 230.473936 71.567554 
Q 231.98903 66.377194 234.654137 66.377194 
z
M 234.32817 66.377194 
L 234.32817 66.377194 
z
" style="fill:#0000ff;"/>
   </g>
   <g id="patch_54">
    <path clip-path="url(#pe3fc3d0475)" d="M 234.547429 28.85437 
Q 236.185554 28.85437 237.380602 30.796143 
Q 239.112407 33.584529 239.499785 40.574913 
L 237.942679 40.574913 
Q 237.656576 36.668065 236.762823 34.881634 
Q 235.86907 33.095202 234.506918 33.095202 
Q 232.894111 33.095202 231.790212 36.81564 
Q 230.686312 40.52831 230.686312 47.883747 
Q 230.686312 54.237229 231.595257 58.229514 
Q 232.506734 62.2218 234.56262 62.2218 
Q 236.137449 62.2218 237.170456 59.425647 
Q 238.203462 56.621726 238.226249 50.353682 
L 234.587939 50.353682 
L 234.587939 46.353629 
L 239.689676 46.353629 
L 239.689676 65.429609 
L 238.676924 65.429609 
L 238.297142 60.839257 
Q 237.4996 63.534439 236.881821 64.582996 
Q 235.843751 66.377194 234.246135 66.377194 
Q 232.182653 66.377194 230.693908 62.27617 
Q 229.070973 57.126587 229.070973 48.147828 
Q 229.070973 39.19237 230.653398 33.90298 
Q 232.157334 28.85437 234.547429 28.85437 
z
M 234.286645 28.8 
L 234.286645 28.8 
z
" style="fill:#ffa600;"/>
   </g>
   <g id="patch_55">
    <path clip-path="url(#pe3fc3d0475)" d="M 250.867257 130.08279 
L 250.867257 131.459787 
L 246.457288 131.459787 
L 246.457288 141.64 
L 244.658523 141.64 
L 244.658523 131.459787 
L 240.248555 131.459787 
L 240.248555 130.08279 
L 250.867257 130.08279 
z
" style="fill:#ff0000;"/>
   </g>
   <g id="patch_56">
    <path clip-path="url(#pe3fc3d0475)" d="M 247.37607 119.377601 
L 245.569569 107.835802 
L 243.649027 119.377601 
L 247.37607 119.377601 
z
M 244.727226 103.954389 
L 246.549278 103.954389 
L 250.867257 130.08279 
L 249.099633 130.08279 
L 247.894435 122.25736 
L 243.187683 122.25736 
L 241.899546 130.08279 
L 240.248555 130.08279 
L 244.727226 103.954389 
z
M 245.561793 103.954389 
L 245.561793 103.954389 
z
" style="fill:#008000;"/>
   </g>
   <g id="patch_57">
    <path clip-path="url(#pe3fc3d0475)" d="M 245.72501 69.549445 
Q 247.363136 69.549445 248.558183 71.32987 
Q 250.289988 73.886561 250.677366 80.296093 
L 249.12026 80.296093 
Q 248.834158 76.713877 247.940404 75.075886 
Q 247.046651 73.437894 245.6845 73.437894 
Q 244.071692 73.437894 242.967793 76.84919 
Q 241.863894 80.253363 241.863894 86.997615 
Q 241.863894 92.823168 242.772838 96.483723 
Q 243.684315 100.144278 245.740201 100.144278 
Q 247.31503 100.144278 248.348037 97.580465 
Q 249.381043 95.009531 249.40383 89.262317 
L 245.76552 89.262317 
L 245.76552 85.59464 
L 250.867257 85.59464 
L 250.867257 103.085541 
L 249.854505 103.085541 
L 249.474723 98.876615 
Q 248.677181 101.347846 248.059402 102.309276 
Q 247.021332 103.954389 245.423716 103.954389 
Q 243.360234 103.954389 241.871489 100.19413 
Q 240.248555 95.472441 240.248555 87.239753 
Q 240.248555 79.02843 241.830979 74.178551 
Q 243.334916 69.549445 245.72501 69.549445 
z
M 245.464226 69.499593 
L 245.464226 69.499593 
z
" style="fill:#ffa600;"/>
   </g>
   <g id="patch_58">
    <path clip-path="url(#pe3fc3d0475)" d="M 245.831718 28.8 
Q 248.105664 28.8 249.359985 32.672143 
Q 250.614306 36.535869 250.752516 41.451807 
L 249.172228 41.451807 
Q 248.903631 37.722765 248.100448 35.54258 
Q 247.297266 33.353977 245.847364 33.353977 
Q 244.079319 33.353977 242.991893 37.369221 
Q 241.904467 41.376048 241.904467 49.659067 
Q 241.904467 56.452153 242.884976 60.67784 
Q 243.868093 64.895109 245.816071 64.895109 
Q 247.607586 64.895109 248.546371 60.450562 
Q 249.041841 58.110441 249.286968 54.288804 
L 250.867257 54.288804 
Q 250.65603 60.391638 249.466902 64.52473 
Q 248.040471 69.499593 245.620491 69.499593 
Q 243.534302 69.499593 242.115694 65.417007 
Q 240.248555 60.029677 240.248555 48.766791 
Q 240.248555 40.222823 241.651517 34.751316 
Q 243.166611 28.8 245.831718 28.8 
z
M 245.505751 28.8 
L 245.505751 28.8 
z
" style="fill:#0000ff;"/>
   </g>
   <g id="patch_59">
    <path clip-path="url(#pe3fc3d0475)" d="M 262.044838 128.001191 
L 262.044838 129.626203 
L 257.634869 129.626203 
L 257.634869 141.64 
L 255.836104 141.64 
L 255.836104 129.626203 
L 251.426136 129.626203 
L 251.426136 128.001191 
L 262.044838 128.001191 
z
" style="fill:#ff0000;"/>
   </g>
   <g id="patch_60">
    <path clip-path="url(#pe3fc3d0475)" d="M 258.553651 119.428156 
L 256.74715 110.185139 
L 254.826609 119.428156 
L 258.553651 119.428156 
z
M 255.904807 107.076787 
L 257.726859 107.076787 
L 262.044838 128.001191 
L 260.277214 128.001191 
L 259.072016 121.734353 
L 254.365264 121.734353 
L 253.077127 128.001191 
L 251.426136 128.001191 
L 255.904807 107.076787 
z
M 256.739374 107.076787 
L 256.739374 107.076787 
z
" style="fill:#008000;"/>
   </g>
   <g id="patch_61">
    <path clip-path="url(#pe3fc3d0475)" d="M 256.902591 71.632549 
Q 258.540717 71.632549 259.735764 73.466757 
Q 261.467569 76.10068 261.854947 82.703829 
L 260.297841 82.703829 
Q 260.011739 79.013403 259.117985 77.325931 
Q 258.224232 75.63846 256.862081 75.63846 
Q 255.249274 75.63846 254.145374 79.152803 
Q 253.041475 82.659808 253.041475 89.607789 
Q 253.041475 95.609318 253.950419 99.38045 
Q 254.861896 103.151582 256.917782 103.151582 
Q 258.492611 103.151582 259.525618 100.510322 
Q 260.558625 97.861725 260.581411 91.940902 
L 256.943101 91.940902 
L 256.943101 88.162433 
L 262.044838 88.162433 
L 262.044838 106.181694 
L 261.032086 106.181694 
L 260.652304 101.845626 
Q 259.854762 104.391506 259.236984 105.381979 
Q 258.198913 107.076787 256.601297 107.076787 
Q 254.537815 107.076787 253.04907 103.20294 
Q 251.426136 98.33862 251.426136 89.857241 
Q 251.426136 81.397873 253.00856 76.40149 
Q 254.512497 71.632549 256.902591 71.632549 
z
M 256.641807 71.581191 
L 256.641807 71.581191 
z
" style="fill:#ffa600;"/>
   </g>
   <g id="patch_62">
    <path clip-path="url(#pe3fc3d0475)" d="M 257.009299 28.8 
Q 259.283245 28.8 260.537566 32.870186 
Q 261.791887 36.931523 261.930097 42.098889 
L 260.349809 42.098889 
Q 260.081212 38.179124 259.27803 35.887432 
Q 258.474847 33.586892 257.024945 33.586892 
Q 255.2569 33.586892 254.169474 37.807498 
Q 253.082048 42.019255 253.082048 50.725914 
Q 253.082048 57.866435 254.062557 62.308246 
Q 255.045674 66.74121 256.993653 66.74121 
Q 258.785167 66.74121 259.723952 62.069344 
Q 260.219422 59.609536 260.46455 55.59244 
L 262.044838 55.59244 
Q 261.833611 62.007407 260.644483 66.351888 
Q 259.218052 71.581191 256.798072 71.581191 
Q 254.711883 71.581191 253.293275 67.2898 
Q 251.426136 61.626933 251.426136 49.788001 
Q 251.426136 40.807048 252.829098 35.055699 
Q 254.344193 28.8 257.009299 28.8 
z
M 256.683332 28.8 
L 256.683332 28.8 
z
" style="fill:#0000ff;"/>
   </g>
   <g id="patch_63">
    <path clip-path="url(#pe3fc3d0475)" d="M 273.222419 123.837994 
L 273.222419 125.959034 
L 268.812451 125.959034 
L 268.812451 141.64 
L 267.013685 141.64 
L 267.013685 125.959034 
L 262.603717 125.959034 
L 262.603717 123.837994 
L 273.222419 123.837994 
z
" style="fill:#ff0000;"/>
   </g>
   <g id="patch_64">
    <path clip-path="url(#pe3fc3d0475)" d="M 268.18688 94.587194 
Q 270.460826 94.587194 271.715147 97.370104 
Q 272.969468 100.146964 273.107678 103.680049 
L 271.52739 103.680049 
Q 271.258793 100.999986 270.455611 99.433087 
Q 269.652428 97.860138 268.202527 97.860138 
Q 266.434481 97.860138 265.347055 100.745894 
Q 264.259629 103.625601 264.259629 109.578607 
Q 264.259629 114.460799 265.240138 117.4978 
Q 266.223255 120.528751 268.171234 120.528751 
Q 269.962749 120.528751 270.901534 117.334455 
Q 271.397003 115.65261 271.642131 112.905999 
L 273.222419 112.905999 
Q 273.011192 117.292107 271.822065 120.26256 
Q 270.395633 123.837994 267.975654 123.837994 
Q 265.889465 123.837994 264.470856 120.903839 
Q 262.603717 117.031965 262.603717 108.937328 
Q 262.603717 102.796778 264.006679 98.864405 
Q 265.521774 94.587194 268.18688 94.587194 
z
M 267.860913 94.587194 
L 267.860913 94.587194 
z
" style="fill:#0000ff;"/>
   </g>
   <g id="patch_65">
    <path clip-path="url(#pe3fc3d0475)" d="M 268.080172 64.339424 
Q 269.718298 64.339424 270.913345 65.904719 
Q 272.64515 68.152484 273.032528 73.787548 
L 271.475422 73.787548 
Q 271.18932 70.638173 270.295566 69.198101 
Q 269.401813 67.758029 268.039662 67.758029 
Q 266.426855 67.758029 265.322955 70.757136 
Q 264.219056 73.749981 264.219056 79.67932 
Q 264.219056 84.800967 265.128001 88.019214 
Q 266.039477 91.237462 268.095363 91.237462 
Q 269.670192 91.237462 270.703199 88.983437 
Q 271.736206 86.72315 271.758993 81.670376 
L 268.120682 81.670376 
L 268.120682 78.445867 
L 273.222419 78.445867 
L 273.222419 93.82333 
L 272.209667 93.82333 
L 271.829885 90.122972 
Q 271.032343 92.295602 270.414565 93.140861 
Q 269.376494 94.587194 267.778878 94.587194 
Q 265.715397 94.587194 264.226651 91.28129 
Q 262.603717 87.130127 262.603717 79.8922 
Q 262.603717 72.673057 264.186141 68.409192 
Q 265.690078 64.339424 268.080172 64.339424 
z
M 267.819388 64.295596 
L 267.819388 64.295596 
z
" style="fill:#ffa600;"/>
   </g>
   <g id="patch_66">
    <path clip-path="url(#pe3fc3d0475)" d="M 269.731232 49.75253 
L 267.924731 34.072924 
L 266.00419 49.75253 
L 269.731232 49.75253 
z
M 267.082388 28.8 
L 268.90444 28.8 
L 273.222419 64.295596 
L 271.454795 64.295596 
L 270.249597 53.6647 
L 265.542845 53.6647 
L 264.254709 64.295596 
L 262.603717 64.295596 
L 267.082388 28.8 
z
M 267.916956 28.8 
L 267.916956 28.8 
z
" style="fill:#008000;"/>
   </g>
   <g id="patch_67">
    <path clip-path="url(#pe3fc3d0475)" d="M 284.4 130.08279 
L 284.4 131.459787 
L 279.990032 131.459787 
L 279.990032 141.64 
L 278.191266 141.64 
L 278.191266 131.459787 
L 273.781298 131.459787 
L 273.781298 130.08279 
L 284.4 130.08279 
z
" style="fill:#ff0000;"/>
   </g>
   <g id="patch_68">
    <path clip-path="url(#pe3fc3d0475)" d="M 279.364461 107.076787 
Q 281.638407 107.076787 282.892728 109.265569 
Q 284.14705 111.449593 284.28526 114.228395 
L 282.704971 114.228395 
Q 282.436375 112.120502 281.633192 110.888123 
Q 280.830009 109.650985 279.380108 109.650985 
Q 277.612063 109.650985 276.524636 111.920657 
Q 275.43721 114.185571 275.43721 118.867661 
Q 275.43721 122.707546 276.417719 125.096174 
Q 277.400836 127.480043 279.348815 127.480043 
Q 281.14033 127.480043 282.079115 124.967702 
Q 282.574585 123.644916 282.819712 121.484683 
L 284.4 121.484683 
Q 284.188773 124.934394 282.999646 127.270681 
Q 281.573214 130.08279 279.153235 130.08279 
Q 277.067046 130.08279 275.648437 127.775053 
Q 273.781298 124.72979 273.781298 118.36329 
Q 273.781298 113.533694 275.18426 110.44085 
Q 276.699355 107.076787 279.364461 107.076787 
z
M 279.038494 107.076787 
L 279.038494 107.076787 
z
" style="fill:#0000ff;"/>
   </g>
   <g id="patch_69">
    <path clip-path="url(#pe3fc3d0475)" d="M 279.257753 79.946897 
Q 280.895879 79.946897 282.090926 81.350845 
Q 283.822732 83.366914 284.210109 88.421127 
L 282.653003 88.421127 
Q 282.366901 85.596384 281.473147 84.304751 
Q 280.579394 83.013119 279.217243 83.013119 
Q 277.604436 83.013119 276.500536 85.703084 
Q 275.396637 88.387432 275.396637 93.705587 
Q 275.396637 98.299305 276.305582 101.185822 
Q 277.217058 104.072338 279.272944 104.072338 
Q 280.847773 104.072338 281.88078 102.050653 
Q 282.913787 100.023353 282.936574 95.491409 
L 279.298263 95.491409 
L 279.298263 92.599276 
L 284.4 92.599276 
L 284.4 106.39166 
L 283.387248 106.39166 
L 283.007466 103.072728 
Q 282.209924 105.021407 281.592146 105.779539 
Q 280.554075 107.076787 278.956459 107.076787 
Q 276.892978 107.076787 275.404233 104.111649 
Q 273.781298 100.388379 273.781298 93.896524 
Q 273.781298 87.421516 275.363723 83.597162 
Q 276.867659 79.946897 279.257753 79.946897 
z
M 278.996969 79.907586 
L 278.996969 79.907586 
z
" style="fill:#ffa600;"/>
   </g>
   <g id="patch_70">
    <path clip-path="url(#pe3fc3d0475)" d="M 280.908813 58.968059 
L 279.102312 36.392109 
L 277.181771 58.968059 
L 280.908813 58.968059 
z
M 278.259969 28.8 
L 280.082022 28.8 
L 284.4 79.907586 
L 282.632376 79.907586 
L 281.427178 64.600914 
L 276.720426 64.600914 
L 275.43229 79.907586 
L 273.781298 79.907586 
L 278.259969 28.8 
z
M 279.094537 28.8 
L 279.094537 28.8 
z
" style="fill:#008000;"/>
   </g>
   <g id="matplotlib.axis_1">
    <g id="xtick_1">
     <g id="text_1">
      <!-- 0 -->
      <g style="fill:#262626;" transform="translate(94.688414 162.986875)scale(0.2 -0.2)">
       <defs>
        <path d="M 1731 4475 
Q 2600 4475 2988 3759 
Q 3288 3206 3288 2244 
Q 3288 1331 3016 734 
Q 2622 -122 1728 -122 
Q 922 -122 528 578 
Q 200 1163 200 2147 
Q 200 2909 397 3456 
Q 766 4475 1731 4475 
z
M 1725 391 
Q 2163 391 2422 778 
Q 2681 1166 2681 2222 
Q 2681 2984 2493 3476 
Q 2306 3969 1766 3969 
Q 1269 3969 1039 3501 
Q 809 3034 809 2125 
Q 809 1441 956 1025 
Q 1181 391 1725 391 
z
" id="Helvetica-30" transform="scale(0.015625)"/>
       </defs>
       <use xlink:href="#Helvetica-30"/>
      </g>
     </g>
    </g>
    <g id="xtick_2">
     <g id="text_2">
      <!-- 10 -->
      <g style="fill:#262626;" transform="translate(200.903287 162.986875)scale(0.2 -0.2)">
       <defs>
        <path d="M 613 3169 
L 613 3600 
Q 1222 3659 1462 3798 
Q 1703 3938 1822 4456 
L 2266 4456 
L 2266 0 
L 1666 0 
L 1666 3169 
L 613 3169 
z
" id="Helvetica-31" transform="scale(0.015625)"/>
       </defs>
       <use xlink:href="#Helvetica-31"/>
       <use x="55.615234" xlink:href="#Helvetica-30"/>
      </g>
     </g>
    </g>
    <g id="text_3">
     <!-- Position -->
     <g style="fill:#262626;" transform="translate(145.20125 189.089219)scale(0.25 -0.25)">
      <defs>
       <path d="M 547 4591 
L 2613 4591 
Q 3225 4591 3600 4245 
Q 3975 3900 3975 3275 
Q 3975 2738 3640 2339 
Q 3306 1941 2613 1941 
L 1169 1941 
L 1169 0 
L 547 0 
L 547 4591 
z
M 3347 3272 
Q 3347 3778 2972 3959 
Q 2766 4056 2406 4056 
L 1169 4056 
L 1169 2466 
L 2406 2466 
Q 2825 2466 3086 2644 
Q 3347 2822 3347 3272 
z
" id="Helvetica-50" transform="scale(0.015625)"/>
       <path d="M 1741 363 
Q 2300 363 2508 786 
Q 2716 1209 2716 1728 
Q 2716 2197 2566 2491 
Q 2328 2953 1747 2953 
Q 1231 2953 997 2559 
Q 763 2166 763 1609 
Q 763 1075 997 719 
Q 1231 363 1741 363 
z
M 1763 3444 
Q 2409 3444 2856 3012 
Q 3303 2581 3303 1744 
Q 3303 934 2909 406 
Q 2516 -122 1688 -122 
Q 997 -122 590 345 
Q 184 813 184 1600 
Q 184 2444 612 2944 
Q 1041 3444 1763 3444 
z
M 1744 3428 
L 1744 3428 
z
" id="Helvetica-6f" transform="scale(0.015625)"/>
       <path d="M 747 1050 
Q 772 769 888 619 
Q 1100 347 1625 347 
Q 1938 347 2175 483 
Q 2413 619 2413 903 
Q 2413 1119 2222 1231 
Q 2100 1300 1741 1391 
L 1294 1503 
Q 866 1609 663 1741 
Q 300 1969 300 2372 
Q 300 2847 642 3140 
Q 984 3434 1563 3434 
Q 2319 3434 2653 2991 
Q 2863 2709 2856 2384 
L 2325 2384 
Q 2309 2575 2191 2731 
Q 1997 2953 1519 2953 
Q 1200 2953 1036 2831 
Q 872 2709 872 2509 
Q 872 2291 1088 2159 
Q 1213 2081 1456 2022 
L 1828 1931 
Q 2434 1784 2641 1647 
Q 2969 1431 2969 969 
Q 2969 522 2630 197 
Q 2291 -128 1597 -128 
Q 850 -128 539 211 
Q 228 550 206 1050 
L 747 1050 
z
M 1578 3428 
L 1578 3428 
z
" id="Helvetica-73" transform="scale(0.015625)"/>
       <path d="M 413 3331 
L 984 3331 
L 984 0 
L 413 0 
L 413 3331 
z
M 413 4591 
L 984 4591 
L 984 3953 
L 413 3953 
L 413 4591 
z
" id="Helvetica-69" transform="scale(0.015625)"/>
       <path d="M 525 4281 
L 1094 4281 
L 1094 3347 
L 1628 3347 
L 1628 2888 
L 1094 2888 
L 1094 703 
Q 1094 528 1213 469 
Q 1278 434 1431 434 
Q 1472 434 1519 436 
Q 1566 438 1628 444 
L 1628 0 
Q 1531 -28 1426 -40 
Q 1322 -53 1200 -53 
Q 806 -53 665 148 
Q 525 350 525 672 
L 525 2888 
L 72 2888 
L 72 3347 
L 525 3347 
L 525 4281 
z
" id="Helvetica-74" transform="scale(0.015625)"/>
       <path d="M 413 3347 
L 947 3347 
L 947 2872 
Q 1184 3166 1450 3294 
Q 1716 3422 2041 3422 
Q 2753 3422 3003 2925 
Q 3141 2653 3141 2147 
L 3141 0 
L 2569 0 
L 2569 2109 
Q 2569 2416 2478 2603 
Q 2328 2916 1934 2916 
Q 1734 2916 1606 2875 
Q 1375 2806 1200 2600 
Q 1059 2434 1017 2257 
Q 975 2081 975 1753 
L 975 0 
L 413 0 
L 413 3347 
z
M 1734 3428 
L 1734 3428 
z
" id="Helvetica-6e" transform="scale(0.015625)"/>
      </defs>
      <use xlink:href="#Helvetica-50"/>
      <use x="66.699219" xlink:href="#Helvetica-6f"/>
      <use x="122.314453" xlink:href="#Helvetica-73"/>
      <use x="172.314453" xlink:href="#Helvetica-69"/>
      <use x="194.53125" xlink:href="#Helvetica-74"/>
      <use x="222.314453" xlink:href="#Helvetica-69"/>
      <use x="244.53125" xlink:href="#Helvetica-6f"/>
      <use x="300.146484" xlink:href="#Helvetica-6e"/>
     </g>
    </g>
   </g>
   <g id="matplotlib.axis_2">
    <g id="ytick_1">
     <g id="text_4">
      <!-- 0 -->
      <g style="fill:#262626;" transform="translate(76.818125 148.813438)scale(0.2 -0.2)">
       <use xlink:href="#Helvetica-30"/>
      </g>
     </g>
    </g>
    <g id="ytick_2">
     <g id="text_5">
      <!-- 0.25 -->
      <g style="fill:#262626;" transform="translate(49.018125 120.603438)scale(0.2 -0.2)">
       <defs>
        <path d="M 547 681 
L 1200 681 
L 1200 0 
L 547 0 
L 547 681 
z
" id="Helvetica-2e" transform="scale(0.015625)"/>
        <path d="M 200 0 
Q 231 578 439 1006 
Q 647 1434 1250 1784 
L 1850 2131 
Q 2253 2366 2416 2531 
Q 2672 2791 2672 3125 
Q 2672 3516 2437 3745 
Q 2203 3975 1813 3975 
Q 1234 3975 1013 3538 
Q 894 3303 881 2888 
L 309 2888 
Q 319 3472 525 3841 
Q 891 4491 1816 4491 
Q 2584 4491 2939 4075 
Q 3294 3659 3294 3150 
Q 3294 2613 2916 2231 
Q 2697 2009 2131 1694 
L 1703 1456 
Q 1397 1288 1222 1134 
Q 909 863 828 531 
L 3272 531 
L 3272 0 
L 200 0 
z
" id="Helvetica-32" transform="scale(0.015625)"/>
        <path d="M 791 1141 
Q 847 659 1238 475 
Q 1438 381 1700 381 
Q 2200 381 2440 700 
Q 2681 1019 2681 1406 
Q 2681 1875 2395 2131 
Q 2109 2388 1709 2388 
Q 1419 2388 1211 2275 
Q 1003 2163 856 1963 
L 369 1991 
L 709 4400 
L 3034 4400 
L 3034 3856 
L 1131 3856 
L 941 2613 
Q 1097 2731 1238 2791 
Q 1488 2894 1816 2894 
Q 2431 2894 2859 2497 
Q 3288 2100 3288 1491 
Q 3288 856 2895 371 
Q 2503 -113 1644 -113 
Q 1097 -113 676 195 
Q 256 503 206 1141 
L 791 1141 
z
" id="Helvetica-35" transform="scale(0.015625)"/>
       </defs>
       <use xlink:href="#Helvetica-30"/>
       <use x="55.615234" xlink:href="#Helvetica-2e"/>
       <use x="83.398438" xlink:href="#Helvetica-32"/>
       <use x="139.013672" xlink:href="#Helvetica-35"/>
      </g>
     </g>
    </g>
    <g id="ytick_3">
     <g id="text_6">
      <!-- 0.50 -->
      <g style="fill:#262626;" transform="translate(49.018125 92.393438)scale(0.2 -0.2)">
       <use xlink:href="#Helvetica-30"/>
       <use x="55.615234" xlink:href="#Helvetica-2e"/>
       <use x="83.398438" xlink:href="#Helvetica-35"/>
       <use x="139.013672" xlink:href="#Helvetica-30"/>
      </g>
     </g>
    </g>
    <g id="ytick_4">
     <g id="text_7">
      <!-- 0.75 -->
      <g style="fill:#262626;" transform="translate(49.018125 64.183437)scale(0.2 -0.2)">
       <defs>
        <path d="M 3347 4400 
L 3347 3909 
Q 3131 3700 2773 3181 
Q 2416 2663 2141 2063 
Q 1869 1478 1728 997 
Q 1638 688 1494 0 
L 872 0 
Q 1084 1281 1809 2550 
Q 2238 3294 2709 3834 
L 234 3834 
L 234 4400 
L 3347 4400 
z
" id="Helvetica-37" transform="scale(0.015625)"/>
       </defs>
       <use xlink:href="#Helvetica-30"/>
       <use x="55.615234" xlink:href="#Helvetica-2e"/>
       <use x="83.398438" xlink:href="#Helvetica-37"/>
       <use x="139.013672" xlink:href="#Helvetica-35"/>
      </g>
     </g>
    </g>
    <g id="ytick_5">
     <g id="text_8">
      <!-- 1.0 -->
      <g style="fill:#262626;" transform="translate(60.14 35.973438)scale(0.2 -0.2)">
       <use xlink:href="#Helvetica-31"/>
       <use x="55.615234" xlink:href="#Helvetica-2e"/>
       <use x="83.398438" xlink:href="#Helvetica-30"/>
      </g>
     </g>
    </g>
    <g id="text_9">
     <!-- Probability -->
     <g style="fill:#262626;" transform="translate(39.65875 143.579375)rotate(-90)scale(0.25 -0.25)">
      <defs>
       <path d="M 428 3347 
L 963 3347 
L 963 2769 
Q 1028 2938 1284 3180 
Q 1541 3422 1875 3422 
Q 1891 3422 1928 3419 
Q 1966 3416 2056 3406 
L 2056 2813 
Q 2006 2822 1964 2825 
Q 1922 2828 1872 2828 
Q 1447 2828 1219 2554 
Q 991 2281 991 1925 
L 991 0 
L 428 0 
L 428 3347 
z
" id="Helvetica-72" transform="scale(0.015625)"/>
       <path d="M 369 4606 
L 916 4606 
L 916 2941 
Q 1100 3181 1356 3307 
Q 1613 3434 1913 3434 
Q 2538 3434 2927 3004 
Q 3316 2575 3316 1738 
Q 3316 944 2931 419 
Q 2547 -106 1866 -106 
Q 1484 -106 1222 78 
Q 1066 188 888 428 
L 888 0 
L 369 0 
L 369 4606 
z
M 1831 391 
Q 2288 391 2514 753 
Q 2741 1116 2741 1709 
Q 2741 2238 2514 2584 
Q 2288 2931 1847 2931 
Q 1463 2931 1173 2647 
Q 884 2363 884 1709 
Q 884 1238 1003 944 
Q 1225 391 1831 391 
z
" id="Helvetica-62" transform="scale(0.015625)"/>
       <path d="M 844 891 
Q 844 647 1022 506 
Q 1200 366 1444 366 
Q 1741 366 2019 503 
Q 2488 731 2488 1250 
L 2488 1703 
Q 2384 1638 2221 1594 
Q 2059 1550 1903 1531 
L 1563 1488 
Q 1256 1447 1103 1359 
Q 844 1213 844 891 
z
M 2206 2028 
Q 2400 2053 2466 2191 
Q 2503 2266 2503 2406 
Q 2503 2694 2298 2823 
Q 2094 2953 1713 2953 
Q 1272 2953 1088 2716 
Q 984 2584 953 2325 
L 428 2325 
Q 444 2944 830 3186 
Q 1216 3428 1725 3428 
Q 2316 3428 2684 3203 
Q 3050 2978 3050 2503 
L 3050 575 
Q 3050 488 3086 434 
Q 3122 381 3238 381 
Q 3275 381 3322 386 
Q 3369 391 3422 400 
L 3422 -16 
Q 3291 -53 3222 -62 
Q 3153 -72 3034 -72 
Q 2744 -72 2613 134 
Q 2544 244 2516 444 
Q 2344 219 2022 53 
Q 1700 -113 1313 -113 
Q 847 -113 551 170 
Q 256 453 256 878 
Q 256 1344 547 1600 
Q 838 1856 1309 1916 
L 2206 2028 
z
M 1741 3428 
L 1741 3428 
z
" id="Helvetica-61" transform="scale(0.015625)"/>
       <path d="M 428 4591 
L 991 4591 
L 991 0 
L 428 0 
L 428 4591 
z
" id="Helvetica-6c" transform="scale(0.015625)"/>
       <path d="M 2503 3347 
L 3125 3347 
Q 3006 3025 2597 1878 
Q 2291 1016 2084 472 
Q 1597 -809 1397 -1090 
Q 1197 -1372 709 -1372 
Q 591 -1372 527 -1362 
Q 463 -1353 369 -1328 
L 369 -816 
Q 516 -856 581 -865 
Q 647 -875 697 -875 
Q 853 -875 926 -823 
Q 1000 -772 1050 -697 
Q 1066 -672 1162 -440 
Q 1259 -209 1303 -97 
L 66 3347 
L 703 3347 
L 1600 622 
L 2503 3347 
z
M 1597 3428 
L 1597 3428 
z
" id="Helvetica-79" transform="scale(0.015625)"/>
      </defs>
      <use xlink:href="#Helvetica-50"/>
      <use x="66.699219" xlink:href="#Helvetica-72"/>
      <use x="100" xlink:href="#Helvetica-6f"/>
      <use x="155.615234" xlink:href="#Helvetica-62"/>
      <use x="211.230469" xlink:href="#Helvetica-61"/>
      <use x="266.845703" xlink:href="#Helvetica-62"/>
      <use x="322.460938" xlink:href="#Helvetica-69"/>
      <use x="344.677734" xlink:href="#Helvetica-6c"/>
      <use x="366.894531" xlink:href="#Helvetica-69"/>
      <use x="389.111328" xlink:href="#Helvetica-74"/>
      <use x="416.894531" xlink:href="#Helvetica-79"/>
     </g>
    </g>
   </g>
   <g id="patch_71">
    <path d="M 94.94 141.64 
L 94.94 28.8 
" style="fill:none;stroke:#000000;stroke-linecap:square;stroke-linejoin:miter;"/>
   </g>
  </g>
 </g>
 <defs>
  <clipPath id="pe3fc3d0475">
   <rect height="112.84" width="189.46" x="94.94" y="28.8"/>
  </clipPath>
 </defs>
</svg>
