<?xml version="1.0" encoding="utf-8" standalone="no"?>
<!DOCTYPE svg PUBLIC "-//W3C//DTD SVG 1.1//EN"
  "http://www.w3.org/Graphics/SVG/1.1/DTD/svg11.dtd">
<svg height="216pt" version="1.1" viewBox="0 0 306 216" width="306pt" xmlns="http://www.w3.org/2000/svg" xmlns:xlink="http://www.w3.org/1999/xlink">
 <metadata>
  <rdf:RDF xmlns:cc="http://creativecommons.org/ns#" xmlns:dc="http://purl.org/dc/elements/1.1/" xmlns:rdf="http://www.w3.org/1999/02/22-rdf-syntax-ns#">
   <cc:Work>
    <dc:type rdf:resource="http://purl.org/dc/dcmitype/StillImage"/>
    <dc:date>2023-01-27T12:56:24.001225</dc:date>
    <dc:format>image/svg+xml</dc:format>
    <dc:creator>
     <cc:Agent>
      <dc:title>Matplotlib v3.4.2, https://matplotlib.org/</dc:title>
     </cc:Agent>
    </dc:creator>
   </cc:Work>
  </rdf:RDF>
 </metadata>
 <defs>
  <style type="text/css">*{stroke-linecap:butt;stroke-linejoin:round;}</style>
 </defs>
 <g id="figure_1">
  <g id="patch_1">
   <path d="M 0 216 
L 306 216 
L 306 0 
L 0 0 
z
" style="fill:#ffffff;"/>
  </g>
  <g id="axes_1">
   <g id="patch_2">
    <path d="M 94.94 141.64 
L 284.4 141.64 
L 284.4 28.8 
L 94.94 28.8 
z
" style="fill:#ffffff;"/>
   </g>
   <g id="line2d_1">
    <path clip-path="url(#p952d46d542)" d="M 94.94 141.64 
L 284.4 141.64 
" style="fill:none;stroke:#000000;stroke-linecap:round;stroke-width:0.5;"/>
   </g>
   <g id="patch_3">
    <path clip-path="url(#p952d46d542)" d="M 105.558702 141.416111 
L 105.558702 141.442787 
L 101.148734 141.442787 
L 101.148734 141.64 
L 99.349968 141.64 
L 99.349968 141.442787 
L 94.94 141.442787 
L 94.94 141.416111 
L 105.558702 141.416111 
z
" style="fill:#ff0000;"/>
   </g>
   <g id="patch_4">
    <path clip-path="url(#p952d46d542)" d="M 100.416455 126.43726 
Q 102.054581 126.43726 103.249628 127.212402 
Q 104.981434 128.325506 105.368811 131.116019 
L 103.811705 131.116019 
Q 103.525603 129.556433 102.63185 128.843302 
Q 101.738096 128.130171 100.375945 128.130171 
Q 98.763138 128.130171 97.659238 129.615343 
Q 96.555339 131.097416 96.555339 134.033655 
Q 96.555339 136.569921 97.464284 138.163614 
Q 98.37576 139.757306 100.431646 139.757306 
Q 102.006475 139.757306 103.039482 138.641101 
Q 104.072489 137.521796 104.095276 135.019636 
L 100.456965 135.019636 
L 100.456965 133.422843 
L 105.558702 133.422843 
L 105.558702 141.037842 
L 104.54595 141.037842 
L 104.166168 139.205405 
Q 103.368626 140.281303 102.750848 140.69988 
Q 101.712777 141.416111 100.115161 141.416111 
Q 98.05168 141.416111 96.562935 139.77901 
Q 94.94 137.723333 94.94 134.139074 
Q 94.94 130.564118 96.522425 128.45263 
Q 98.026361 126.43726 100.416455 126.43726 
z
M 100.155671 126.415556 
L 100.155671 126.415556 
z
" style="fill:#ffa600;"/>
   </g>
   <g id="patch_5">
    <path clip-path="url(#p952d46d542)" d="M 102.067515 106.968677 
L 100.261014 86.002026 
L 98.340473 106.968677 
L 102.067515 106.968677 
z
M 99.418672 78.951111 
L 101.240724 78.951111 
L 105.558702 126.415556 
L 103.791078 126.415556 
L 102.58588 112.200001 
L 97.879128 112.200001 
L 96.590992 126.415556 
L 94.94 126.415556 
L 99.418672 78.951111 
z
M 100.253239 78.951111 
L 100.253239 78.951111 
z
" style="fill:#008000;"/>
   </g>
   <g id="patch_6">
    <path clip-path="url(#p952d46d542)" d="M 100.523163 28.8 
Q 102.797109 28.8 104.051431 33.571357 
Q 105.305752 38.332341 105.443962 44.38989 
L 103.863673 44.38989 
Q 103.595077 39.794866 102.791894 37.108385 
Q 101.988711 34.411531 100.53881 34.411531 
Q 98.770765 34.411531 97.683339 39.35922 
Q 96.595913 44.296538 96.595913 54.503093 
Q 96.595913 62.873713 97.576421 68.080715 
Q 98.559538 73.277345 100.507517 73.277345 
Q 102.299032 73.277345 103.237817 67.800657 
Q 103.733287 64.917098 103.978414 60.207976 
L 105.558702 60.207976 
Q 105.347475 67.72805 104.158348 72.820955 
Q 102.731916 78.951111 100.311937 78.951111 
Q 98.225748 78.951111 96.807139 73.920441 
Q 94.94 67.282031 94.94 53.403606 
Q 94.94 42.875503 96.342962 36.133368 
Q 97.858057 28.8 100.523163 28.8 
z
M 100.197196 28.8 
L 100.197196 28.8 
z
" style="fill:#0000ff;"/>
   </g>
   <g id="patch_7">
    <path clip-path="url(#p952d46d542)" d="M 111.700744 141.192222 
Q 113.97469 141.192222 115.229012 141.234824 
Q 116.483333 141.277332 116.621543 141.331418 
L 115.041255 141.331418 
Q 114.772658 141.290391 113.969475 141.266404 
Q 113.166292 141.242325 111.716391 141.242325 
Q 109.948346 141.242325 108.86092 141.286501 
Q 107.773494 141.330584 107.773494 141.421714 
Q 107.773494 141.496452 108.754002 141.542943 
Q 109.737119 141.589341 111.685098 141.589341 
Q 113.476613 141.589341 114.415398 141.540442 
Q 114.910868 141.514696 115.155995 141.472651 
L 116.736283 141.472651 
Q 116.525057 141.539794 115.335929 141.585266 
Q 113.909497 141.64 111.489518 141.64 
Q 109.403329 141.64 107.98472 141.595083 
Q 106.117581 141.535812 106.117581 141.411897 
Q 106.117581 141.317896 107.520543 141.257699 
Q 109.035638 141.192222 111.700744 141.192222 
z
M 111.374777 141.192222 
L 111.374777 141.192222 
z
" style="fill:#0000ff;"/>
   </g>
   <g id="patch_8">
    <path clip-path="url(#p952d46d542)" d="M 111.594036 121.518507 
Q 113.232162 121.518507 114.427209 122.536604 
Q 116.159015 123.998592 116.546392 127.663743 
L 114.989286 127.663743 
Q 114.703184 125.615331 113.809431 124.678681 
Q 112.915677 123.742032 111.553526 123.742032 
Q 109.940719 123.742032 108.83682 125.692706 
Q 107.73292 127.639309 107.73292 131.495862 
Q 107.73292 134.827077 108.641865 136.920285 
Q 109.553341 139.013494 111.609227 139.013494 
Q 113.184056 139.013494 114.217063 137.547433 
Q 115.25007 136.077301 115.272857 132.790882 
L 111.634546 132.790882 
L 111.634546 130.693601 
L 116.736283 130.693601 
L 116.736283 140.695391 
L 115.723531 140.695391 
L 115.34375 138.288608 
Q 114.546208 139.701728 113.928429 140.2515 
Q 112.890358 141.192222 111.292743 141.192222 
Q 109.229261 141.192222 107.740516 139.042 
Q 106.117581 136.342006 106.117581 131.634323 
Q 106.117581 126.938858 107.700006 124.16556 
Q 109.203942 121.518507 111.594036 121.518507 
z
M 111.333253 121.49 
L 111.333253 121.49 
z
" style="fill:#ffa600;"/>
   </g>
   <g id="patch_9">
    <path clip-path="url(#p952d46d542)" d="M 116.736283 87.235 
L 116.736283 91.316352 
L 112.326315 91.316352 
L 112.326315 121.49 
L 110.527549 121.49 
L 110.527549 91.316352 
L 106.117581 91.316352 
L 106.117581 87.235 
L 116.736283 87.235 
z
" style="fill:#ff0000;"/>
   </g>
   <g id="patch_10">
    <path clip-path="url(#p952d46d542)" d="M 113.245097 63.293324 
L 111.438595 37.480608 
L 109.518054 63.293324 
L 113.245097 63.293324 
z
M 110.596253 28.8 
L 112.418305 28.8 
L 116.736283 87.235 
L 114.968659 87.235 
L 113.763461 69.733775 
L 109.056709 69.733775 
L 107.768573 87.235 
L 106.117581 87.235 
L 110.596253 28.8 
z
M 111.43082 28.8 
L 111.43082 28.8 
z
" style="fill:#008000;"/>
   </g>
   <g id="patch_11">
    <path clip-path="url(#p952d46d542)" d="M 122.878326 140.968333 
Q 125.152272 140.968333 126.406593 141.032235 
Q 127.660914 141.095999 127.799124 141.177127 
L 126.218836 141.177127 
Q 125.950239 141.115586 125.147056 141.079606 
Q 124.343873 141.043488 122.893972 141.043488 
Q 121.125927 141.043488 120.038501 141.109751 
Q 118.951075 141.175876 118.951075 141.312571 
Q 118.951075 141.424678 119.931584 141.494414 
Q 120.9147 141.564012 122.862679 141.564012 
Q 124.654194 141.564012 125.592979 141.490664 
Q 126.088449 141.452044 126.333576 141.388976 
L 127.913864 141.388976 
Q 127.702638 141.489691 126.51351 141.5579 
Q 125.087078 141.64 122.667099 141.64 
Q 120.58091 141.64 119.162301 141.572625 
Q 117.295162 141.483718 117.295162 141.297846 
Q 117.295162 141.156845 118.698124 141.066548 
Q 120.213219 140.968333 122.878326 140.968333 
z
M 122.552359 140.968333 
L 122.552359 140.968333 
z
" style="fill:#0000ff;"/>
   </g>
   <g id="patch_12">
    <path clip-path="url(#p952d46d542)" d="M 122.771617 128.448696 
Q 124.409743 128.448696 125.60479 129.096576 
Q 127.336596 130.026932 127.723973 132.359301 
L 126.166868 132.359301 
Q 125.880765 131.055766 124.987012 130.459716 
Q 124.093258 129.863667 122.731107 129.863667 
Q 121.1183 129.863667 120.014401 131.105005 
Q 118.910501 132.343752 118.910501 134.797922 
Q 118.910501 136.917786 119.819446 138.249828 
Q 120.730923 139.58187 122.786809 139.58187 
Q 124.361638 139.58187 125.394644 138.648922 
Q 126.427651 137.713383 126.450438 135.622026 
L 122.812127 135.622026 
L 122.812127 134.287393 
L 127.913864 134.287393 
L 127.913864 140.652168 
L 126.901113 140.652168 
L 126.521331 139.120579 
Q 125.723789 140.019837 125.10601 140.369692 
Q 124.06794 140.968333 122.470324 140.968333 
Q 120.406842 140.968333 118.918097 139.60001 
Q 117.295162 137.881832 117.295162 134.886034 
Q 117.295162 131.89801 118.877587 130.133185 
Q 120.381523 128.448696 122.771617 128.448696 
z
M 122.510834 128.430556 
L 122.510834 128.430556 
z
" style="fill:#ffa600;"/>
   </g>
   <g id="patch_13">
    <path clip-path="url(#p952d46d542)" d="M 127.913864 97.086111 
L 127.913864 100.820681 
L 123.503896 100.820681 
L 123.503896 128.430556 
L 121.705131 128.430556 
L 121.705131 100.820681 
L 117.295162 100.820681 
L 117.295162 97.086111 
L 127.913864 97.086111 
z
" style="fill:#ff0000;"/>
   </g>
   <g id="patch_14">
    <path clip-path="url(#p952d46d542)" d="M 124.422678 69.10829 
L 122.616176 38.944005 
L 120.695635 69.10829 
L 124.422678 69.10829 
z
M 121.773834 28.8 
L 123.595886 28.8 
L 127.913864 97.086111 
L 126.14624 97.086111 
L 124.941042 76.634488 
L 120.23429 76.634488 
L 118.946154 97.086111 
L 117.295162 97.086111 
L 121.773834 28.8 
z
M 122.608401 28.8 
L 122.608401 28.8 
z
" style="fill:#008000;"/>
   </g>
   <g id="patch_15">
    <path clip-path="url(#p952d46d542)" d="M 134.055907 141.416111 
Q 136.329853 141.416111 137.584174 141.437412 
Q 138.838495 141.458666 138.976705 141.485709 
L 137.396417 141.485709 
Q 137.12782 141.465195 136.324637 141.453202 
Q 135.521454 141.441163 134.071553 141.441163 
Q 132.303508 141.441163 131.216082 141.46325 
Q 130.128656 141.485292 130.128656 141.530857 
Q 130.128656 141.568226 131.109165 141.591471 
Q 132.092281 141.614671 134.04026 141.614671 
Q 135.831775 141.614671 136.77056 141.590221 
Q 137.26603 141.577348 137.511157 141.556325 
L 139.091445 141.556325 
Q 138.880219 141.589897 137.691091 141.612633 
Q 136.264659 141.64 133.84468 141.64 
Q 131.758491 141.64 130.339883 141.617542 
Q 128.472743 141.587906 128.472743 141.525949 
Q 128.472743 141.478948 129.875705 141.448849 
Q 131.3908 141.416111 134.055907 141.416111 
z
M 133.72994 141.416111 
L 133.72994 141.416111 
z
" style="fill:#0000ff;"/>
   </g>
   <g id="patch_16">
    <path clip-path="url(#p952d46d542)" d="M 139.091445 141.192222 
L 139.091445 141.218898 
L 134.681477 141.218898 
L 134.681477 141.416111 
L 132.882712 141.416111 
L 132.882712 141.218898 
L 128.472743 141.218898 
L 128.472743 141.192222 
L 139.091445 141.192222 
z
" style="fill:#ff0000;"/>
   </g>
   <g id="patch_17">
    <path clip-path="url(#p952d46d542)" d="M 133.949198 119.953552 
Q 135.587324 119.953552 136.782371 121.052635 
Q 138.514177 122.630917 138.901554 126.587614 
L 137.344449 126.587614 
Q 137.058346 124.37626 136.164593 123.365104 
Q 135.270839 122.353948 133.908688 122.353948 
Q 132.295881 122.353948 131.191982 124.45979 
Q 130.088082 126.561236 130.088082 130.724561 
Q 130.088082 134.320758 130.997027 136.580472 
Q 131.908504 138.840186 133.96439 138.840186 
Q 135.539219 138.840186 136.572225 137.257507 
Q 137.605232 135.670432 137.628019 132.122593 
L 133.989709 132.122593 
L 133.989709 129.858484 
L 139.091445 129.858484 
L 139.091445 140.65587 
L 138.078694 140.65587 
L 137.698912 138.057639 
Q 136.90137 139.583165 136.283591 140.17667 
Q 135.245521 141.192222 133.647905 141.192222 
Q 131.584423 141.192222 130.095678 138.87096 
Q 128.472743 135.956193 128.472743 130.874036 
Q 128.472743 125.805067 130.055168 122.811167 
Q 131.559104 119.953552 133.949198 119.953552 
z
M 133.688415 119.922778 
L 133.688415 119.922778 
z
" style="fill:#ffa600;"/>
   </g>
   <g id="patch_18">
    <path clip-path="url(#p952d46d542)" d="M 135.600259 82.58844 
L 133.793758 42.336427 
L 131.873216 82.58844 
L 135.600259 82.58844 
z
M 132.951415 28.8 
L 134.773467 28.8 
L 139.091445 119.922778 
L 137.323822 119.922778 
L 136.118624 92.631595 
L 131.411872 92.631595 
L 130.123735 119.922778 
L 128.472743 119.922778 
L 132.951415 28.8 
z
M 133.785982 28.8 
L 133.785982 28.8 
z
" style="fill:#008000;"/>
   </g>
   <g id="patch_19">
    <path clip-path="url(#p952d46d542)" d="M 146.77784 141.548269 
L 144.971339 141.44937 
L 143.050797 141.548269 
L 146.77784 141.548269 
z
M 144.128996 141.416111 
L 145.951048 141.416111 
L 150.269027 141.64 
L 148.501403 141.64 
L 147.296205 141.572945 
L 142.589453 141.572945 
L 141.301316 141.64 
L 139.650324 141.64 
L 144.128996 141.416111 
z
M 144.963563 141.416111 
L 144.963563 141.416111 
z
" style="fill:#008000;"/>
   </g>
   <g id="patch_20">
    <path clip-path="url(#p952d46d542)" d="M 150.269027 141.192222 
L 150.269027 141.218898 
L 145.859058 141.218898 
L 145.859058 141.416111 
L 144.060293 141.416111 
L 144.060293 141.218898 
L 139.650324 141.218898 
L 139.650324 141.192222 
L 150.269027 141.192222 
z
" style="fill:#ff0000;"/>
   </g>
   <g id="patch_21">
    <path clip-path="url(#p952d46d542)" d="M 145.233488 140.744444 
Q 147.507434 140.744444 148.761755 140.787046 
Q 150.016076 140.829555 150.154286 140.88364 
L 148.573998 140.88364 
Q 148.305401 140.842613 147.502218 140.818626 
Q 146.699036 140.794547 145.249134 140.794547 
Q 143.481089 140.794547 142.393663 140.838723 
Q 141.306237 140.882806 141.306237 140.973936 
Q 141.306237 141.048674 142.286746 141.095165 
Q 143.269862 141.141564 145.217841 141.141564 
Q 147.009356 141.141564 147.948141 141.092665 
Q 148.443611 141.066919 148.688738 141.024873 
L 150.269027 141.024873 
Q 150.0578 141.092016 148.868672 141.137489 
Q 147.44224 141.192222 145.022261 141.192222 
Q 142.936072 141.192222 141.517464 141.147306 
Q 139.650324 141.088034 139.650324 140.964119 
Q 139.650324 140.870119 141.053287 140.809921 
Q 142.568381 140.744444 145.233488 140.744444 
z
M 144.907521 140.744444 
L 144.907521 140.744444 
z
" style="fill:#0000ff;"/>
   </g>
   <g id="patch_22">
    <path clip-path="url(#p952d46d542)" d="M 145.12678 28.96197 
Q 146.764906 28.96197 147.959953 34.746615 
Q 149.691758 43.053365 150.079136 63.878086 
L 148.52203 63.878086 
Q 148.235927 52.23938 147.342174 46.917507 
Q 146.448421 41.595634 145.086269 41.595634 
Q 143.473462 41.595634 142.369563 52.679013 
Q 141.265664 63.739254 141.265664 85.651488 
Q 141.265664 104.578846 142.174608 116.472075 
Q 143.086085 128.365305 145.141971 128.365305 
Q 146.7168 128.365305 147.749807 120.035416 
Q 148.782813 111.682389 148.8056 93.009556 
L 145.16729 93.009556 
L 145.16729 81.093188 
L 150.269027 81.093188 
L 150.269027 137.921538 
L 149.256275 137.921538 
L 148.876493 124.246638 
Q 148.078951 132.275725 147.461172 135.399433 
Q 146.423102 140.744444 144.825486 140.744444 
Q 142.762004 140.744444 141.273259 128.527275 
Q 139.650324 113.186397 139.650324 86.4382 
Q 139.650324 59.759418 141.232749 44.002046 
Q 142.736685 28.96197 145.12678 28.96197 
z
M 144.865996 28.8 
L 144.865996 28.8 
z
" style="fill:#ffa600;"/>
   </g>
   <g id="patch_23">
    <path clip-path="url(#p952d46d542)" d="M 156.304361 133.591662 
Q 157.942487 133.591662 159.137534 134.008156 
Q 160.869339 134.606242 161.256717 136.105622 
L 159.699611 136.105622 
Q 159.413509 135.267635 158.519755 134.884461 
Q 157.626002 134.501286 156.263851 134.501286 
Q 154.651043 134.501286 153.547144 135.299289 
Q 152.443245 136.095626 152.443245 137.673307 
Q 152.443245 139.036077 153.352189 139.892389 
Q 154.263666 140.748702 156.319552 140.748702 
Q 157.894381 140.748702 158.927388 140.14895 
Q 159.960394 139.547532 159.983181 138.203088 
L 156.344871 138.203088 
L 156.344871 137.34511 
L 161.446608 137.34511 
L 161.446608 141.436751 
L 160.433856 141.436751 
L 160.054074 140.452158 
Q 159.256532 141.030252 158.638753 141.255159 
Q 157.600683 141.64 156.003067 141.64 
Q 153.939585 141.64 152.45084 140.760364 
Q 150.827906 139.655821 150.827906 137.72995 
Q 150.827906 135.809078 152.41033 134.674547 
Q 153.914267 133.591662 156.304361 133.591662 
z
M 156.043577 133.58 
L 156.043577 133.58 
z
" style="fill:#ffa600;"/>
   </g>
   <g id="patch_24">
    <path clip-path="url(#p952d46d542)" d="M 161.446608 116.788333 
L 161.446608 118.788996 
L 157.036639 118.788996 
L 157.036639 133.58 
L 155.237874 133.58 
L 155.237874 118.788996 
L 150.827906 118.788996 
L 150.827906 116.788333 
L 161.446608 116.788333 
z
" style="fill:#ff0000;"/>
   </g>
   <g id="patch_25">
    <path clip-path="url(#p952d46d542)" d="M 157.955421 102.294905 
L 156.14892 86.668816 
L 154.228378 102.294905 
L 157.955421 102.294905 
z
M 155.306577 81.413889 
L 157.128629 81.413889 
L 161.446608 116.788333 
L 159.678984 116.788333 
L 158.473786 106.193722 
L 153.767034 106.193722 
L 152.478897 116.788333 
L 150.827906 116.788333 
L 155.306577 81.413889 
z
M 156.141144 81.413889 
L 156.141144 81.413889 
z
" style="fill:#008000;"/>
   </g>
   <g id="patch_26">
    <path clip-path="url(#p952d46d542)" d="M 156.411069 28.8 
Q 158.685015 28.8 159.939336 33.805665 
Q 161.193657 38.800448 161.331867 45.155465 
L 159.751579 45.155465 
Q 159.482982 40.334793 158.679799 37.516386 
Q 157.876617 34.687097 156.426715 34.687097 
Q 154.65867 34.687097 153.571244 39.877754 
Q 152.483818 45.057528 152.483818 55.765298 
Q 152.483818 64.546975 153.464327 70.009679 
Q 154.447444 75.461501 156.395423 75.461501 
Q 158.186937 75.461501 159.125722 69.715868 
Q 159.621192 66.690706 159.866319 61.750332 
L 161.446608 61.750332 
Q 161.235381 69.639695 160.046253 74.982698 
Q 158.619822 81.413889 156.199842 81.413889 
Q 154.113653 81.413889 152.695045 76.136177 
Q 150.827906 69.171774 150.827906 54.611819 
Q 150.827906 43.566711 152.230868 36.493489 
Q 153.745962 28.8 156.411069 28.8 
z
M 156.085102 28.8 
L 156.085102 28.8 
z
" style="fill:#0000ff;"/>
   </g>
   <g id="patch_27">
    <path clip-path="url(#p952d46d542)" d="M 167.58865 141.416111 
Q 169.862596 141.416111 171.116917 141.437412 
Q 172.371238 141.458666 172.509448 141.485709 
L 170.92916 141.485709 
Q 170.660563 141.465195 169.857381 141.453202 
Q 169.054198 141.441163 167.604296 141.441163 
Q 165.836251 141.441163 164.748825 141.46325 
Q 163.661399 141.485292 163.661399 141.530857 
Q 163.661399 141.568226 164.641908 141.591471 
Q 165.625025 141.614671 167.573004 141.614671 
Q 169.364518 141.614671 170.303304 141.590221 
Q 170.798773 141.577348 171.043901 141.556325 
L 172.624189 141.556325 
Q 172.412962 141.589897 171.223834 141.612633 
Q 169.797403 141.64 167.377423 141.64 
Q 165.291234 141.64 163.872626 141.617542 
Q 162.005487 141.587906 162.005487 141.525949 
Q 162.005487 141.478948 163.408449 141.448849 
Q 164.923544 141.416111 167.58865 141.416111 
z
M 167.262683 141.416111 
L 167.262683 141.416111 
z
" style="fill:#0000ff;"/>
   </g>
   <g id="patch_28">
    <path clip-path="url(#p952d46d542)" d="M 172.624189 141.192222 
L 172.624189 141.218898 
L 168.21422 141.218898 
L 168.21422 141.416111 
L 166.415455 141.416111 
L 166.415455 141.218898 
L 162.005487 141.218898 
L 162.005487 141.192222 
L 172.624189 141.192222 
z
" style="fill:#ff0000;"/>
   </g>
   <g id="patch_29">
    <path clip-path="url(#p952d46d542)" d="M 169.133002 140.733569 
L 167.326501 140.239073 
L 165.40596 140.733569 
L 169.133002 140.733569 
z
M 166.484158 140.072778 
L 168.30621 140.072778 
L 172.624189 141.192222 
L 170.856565 141.192222 
L 169.651367 140.85695 
L 164.944615 140.85695 
L 163.656478 141.192222 
L 162.005487 141.192222 
L 166.484158 140.072778 
z
M 167.318725 140.072778 
L 167.318725 140.072778 
z
" style="fill:#008000;"/>
   </g>
   <g id="patch_30">
    <path clip-path="url(#p952d46d542)" d="M 167.481942 28.960998 
Q 169.120068 28.960998 170.315115 34.710935 
Q 172.04692 42.967844 172.434298 63.667617 
L 170.877192 63.667617 
Q 170.59109 52.098744 169.697336 46.808802 
Q 168.803583 41.51886 167.441432 41.51886 
Q 165.828625 41.51886 164.724725 52.535739 
Q 163.620826 63.529619 163.620826 85.310379 
Q 163.620826 104.124173 164.52977 115.946043 
Q 165.441247 127.767913 167.497133 127.767913 
Q 169.071962 127.767913 170.104969 119.488004 
Q 171.137976 111.185095 171.160763 92.624299 
L 167.522452 92.624299 
L 167.522452 80.779429 
L 172.624189 80.779429 
L 172.624189 137.266809 
L 171.611437 137.266809 
L 171.231655 123.673958 
Q 170.434113 131.65487 169.816335 134.759836 
Q 168.778264 140.072778 167.180648 140.072778 
Q 165.117166 140.072778 163.628421 127.928911 
Q 162.005487 112.680079 162.005487 86.092371 
Q 162.005487 59.573662 163.587911 43.910834 
Q 165.091848 28.960998 167.481942 28.960998 
z
M 167.221158 28.8 
L 167.221158 28.8 
z
" style="fill:#ffa600;"/>
   </g>
   <g id="patch_31">
    <path clip-path="url(#p952d46d542)" d="M 178.766231 141.416111 
Q 181.040177 141.416111 182.294498 141.437412 
Q 183.548819 141.458666 183.68703 141.485709 
L 182.106741 141.485709 
Q 181.838145 141.465195 181.034962 141.453202 
Q 180.231779 141.441163 178.781878 141.441163 
Q 177.013832 141.441163 175.926406 141.46325 
Q 174.83898 141.485292 174.83898 141.530857 
Q 174.83898 141.568226 175.819489 141.591471 
Q 176.802606 141.614671 178.750585 141.614671 
Q 180.5421 141.614671 181.480885 141.590221 
Q 181.976355 141.577348 182.221482 141.556325 
L 183.80177 141.556325 
Q 183.590543 141.589897 182.401416 141.612633 
Q 180.974984 141.64 178.555005 141.64 
Q 176.468816 141.64 175.050207 141.617542 
Q 173.183068 141.587906 173.183068 141.525949 
Q 173.183068 141.478948 174.58603 141.448849 
Q 176.101125 141.416111 178.766231 141.416111 
z
M 178.440264 141.416111 
L 178.440264 141.416111 
z
" style="fill:#0000ff;"/>
   </g>
   <g id="patch_32">
    <path clip-path="url(#p952d46d542)" d="M 183.80177 134.251667 
L 183.80177 135.105283 
L 179.391802 135.105283 
L 179.391802 141.416111 
L 177.593036 141.416111 
L 177.593036 135.105283 
L 173.183068 135.105283 
L 173.183068 134.251667 
L 183.80177 134.251667 
z
" style="fill:#ff0000;"/>
   </g>
   <g id="patch_33">
    <path clip-path="url(#p952d46d542)" d="M 178.659523 111.224477 
Q 180.297649 111.224477 181.492696 112.416114 
Q 183.224501 114.127304 183.611879 118.417197 
L 182.054773 118.417197 
Q 181.768671 116.019623 180.874917 114.923318 
Q 179.981164 113.827012 178.619013 113.827012 
Q 177.006206 113.827012 175.902306 116.110188 
Q 174.798407 118.388597 174.798407 122.902518 
Q 174.798407 126.801553 175.707352 129.251559 
Q 176.618828 131.701564 178.674714 131.701564 
Q 180.249543 131.701564 181.28255 129.985607 
Q 182.315557 128.264883 182.338344 124.41828 
L 178.700033 124.41828 
L 178.700033 121.963508 
L 183.80177 121.963508 
L 183.80177 133.670148 
L 182.789018 133.670148 
L 182.409236 130.853118 
Q 181.611694 132.50711 180.993916 133.150594 
Q 179.955845 134.251667 178.358229 134.251667 
Q 176.294748 134.251667 174.806003 131.73493 
Q 173.183068 128.574709 173.183068 123.06458 
Q 173.183068 117.568751 174.765492 114.322733 
Q 176.269429 111.224477 178.659523 111.224477 
z
M 178.398739 111.191111 
L 178.398739 111.191111 
z
" style="fill:#ffa600;"/>
   </g>
   <g id="patch_34">
    <path clip-path="url(#p952d46d542)" d="M 180.310583 77.434265 
L 178.504082 41.039324 
L 176.583541 77.434265 
L 180.310583 77.434265 
z
M 177.661739 28.8 
L 179.483791 28.8 
L 183.80177 111.191111 
L 182.034146 111.191111 
L 180.828948 86.515054 
L 176.122196 86.515054 
L 174.83406 111.191111 
L 173.183068 111.191111 
L 177.661739 28.8 
z
M 178.496307 28.8 
L 178.496307 28.8 
z
" style="fill:#008000;"/>
   </g>
   <g id="patch_35">
    <path clip-path="url(#p952d46d542)" d="M 189.943812 141.416111 
Q 192.217758 141.416111 193.472079 141.437412 
Q 194.726401 141.458666 194.864611 141.485709 
L 193.284322 141.485709 
Q 193.015726 141.465195 192.212543 141.453202 
Q 191.40936 141.441163 189.959459 141.441163 
Q 188.191414 141.441163 187.103988 141.46325 
Q 186.016561 141.485292 186.016561 141.530857 
Q 186.016561 141.568226 186.99707 141.591471 
Q 187.980187 141.614671 189.928166 141.614671 
Q 191.719681 141.614671 192.658466 141.590221 
Q 193.153936 141.577348 193.399063 141.556325 
L 194.979351 141.556325 
Q 194.768124 141.589897 193.578997 141.612633 
Q 192.152565 141.64 189.732586 141.64 
Q 187.646397 141.64 186.227788 141.617542 
Q 184.360649 141.587906 184.360649 141.525949 
Q 184.360649 141.478948 185.763611 141.448849 
Q 187.278706 141.416111 189.943812 141.416111 
z
M 189.617845 141.416111 
L 189.617845 141.416111 
z
" style="fill:#0000ff;"/>
   </g>
   <g id="patch_36">
    <path clip-path="url(#p952d46d542)" d="M 194.979351 141.192222 
L 194.979351 141.218898 
L 190.569383 141.218898 
L 190.569383 141.416111 
L 188.770617 141.416111 
L 188.770617 141.218898 
L 184.360649 141.218898 
L 184.360649 141.192222 
L 194.979351 141.192222 
z
" style="fill:#ff0000;"/>
   </g>
   <g id="patch_37">
    <path clip-path="url(#p952d46d542)" d="M 191.488164 140.917031 
L 189.681663 140.620333 
L 187.761122 140.917031 
L 191.488164 140.917031 
z
M 188.83932 140.520556 
L 190.661373 140.520556 
L 194.979351 141.192222 
L 193.211727 141.192222 
L 192.006529 140.991059 
L 187.299777 140.991059 
L 186.011641 141.192222 
L 184.360649 141.192222 
L 188.83932 140.520556 
z
M 189.673888 140.520556 
L 189.673888 140.520556 
z
" style="fill:#008000;"/>
   </g>
   <g id="patch_38">
    <path clip-path="url(#p952d46d542)" d="M 189.837104 28.961646 
Q 191.47523 28.961646 192.670277 34.734722 
Q 194.402083 43.024858 194.78946 63.807929 
L 193.232354 63.807929 
Q 192.946252 52.192502 192.052498 46.881272 
Q 191.158745 41.570043 189.796594 41.570043 
Q 188.183787 41.570043 187.079887 52.631255 
Q 185.975988 63.669376 185.975988 85.537785 
Q 185.975988 104.427288 186.884933 116.296731 
Q 187.796409 128.166174 189.852295 128.166174 
Q 191.427124 128.166174 192.460131 119.852946 
Q 193.493138 111.516625 193.515925 92.881137 
L 189.877614 92.881137 
L 189.877614 80.988602 
L 194.979351 80.988602 
L 194.979351 137.703295 
L 193.966599 137.703295 
L 193.586817 124.055744 
Q 192.789275 132.068773 192.171497 135.186234 
Q 191.133426 140.520556 189.53581 140.520556 
Q 187.472329 140.520556 185.983584 128.32782 
Q 184.360649 113.017624 184.360649 86.322923 
Q 184.360649 59.6975 185.943074 43.971642 
Q 187.44701 28.961646 189.837104 28.961646 
z
M 189.57632 28.8 
L 189.57632 28.8 
z
" style="fill:#ffa600;"/>
   </g>
   <g id="patch_39">
    <path clip-path="url(#p952d46d542)" d="M 202.665746 141.548269 
L 200.859244 141.44937 
L 198.938703 141.548269 
L 202.665746 141.548269 
z
M 200.016902 141.416111 
L 201.838954 141.416111 
L 206.156932 141.64 
L 204.389308 141.64 
L 203.18411 141.572945 
L 198.477358 141.572945 
L 197.189222 141.64 
L 195.53823 141.64 
L 200.016902 141.416111 
z
M 200.851469 141.416111 
L 200.851469 141.416111 
z
" style="fill:#008000;"/>
   </g>
   <g id="patch_40">
    <path clip-path="url(#p952d46d542)" d="M 206.156932 141.192222 
L 206.156932 141.218898 
L 201.746964 141.218898 
L 201.746964 141.416111 
L 199.948198 141.416111 
L 199.948198 141.218898 
L 195.53823 141.218898 
L 195.53823 141.192222 
L 206.156932 141.192222 
z
" style="fill:#ff0000;"/>
   </g>
   <g id="patch_41">
    <path clip-path="url(#p952d46d542)" d="M 201.121393 140.072778 
Q 203.395339 140.072778 204.649661 140.179281 
Q 205.903982 140.285553 206.042192 140.420766 
L 204.461904 140.420766 
Q 204.193307 140.318199 203.390124 140.258233 
Q 202.586941 140.198035 201.13704 140.198035 
Q 199.368995 140.198035 198.281569 140.308475 
Q 197.194143 140.418683 197.194143 140.646508 
Q 197.194143 140.833352 198.174651 140.949579 
Q 199.157768 141.065576 201.105747 141.065576 
Q 202.897262 141.065576 203.836047 140.943328 
Q 204.331517 140.878963 204.576644 140.773849 
L 206.156932 140.773849 
Q 205.945706 140.941707 204.756578 141.055388 
Q 203.330146 141.192222 200.910167 141.192222 
Q 198.823978 141.192222 197.405369 141.07993 
Q 195.53823 140.931752 195.53823 140.621965 
Q 195.53823 140.386963 196.941192 140.236469 
Q 198.456287 140.072778 201.121393 140.072778 
z
M 200.795426 140.072778 
L 200.795426 140.072778 
z
" style="fill:#0000ff;"/>
   </g>
   <g id="patch_42">
    <path clip-path="url(#p952d46d542)" d="M 201.014685 28.960998 
Q 202.652811 28.960998 203.847858 34.710935 
Q 205.579664 42.967844 205.967041 63.667617 
L 204.409935 63.667617 
Q 204.123833 52.098744 203.23008 46.808802 
Q 202.336326 41.51886 200.974175 41.51886 
Q 199.361368 41.51886 198.257469 52.535739 
Q 197.153569 63.529619 197.153569 85.310379 
Q 197.153569 104.124173 198.062514 115.946043 
Q 198.97399 127.767913 201.029876 127.767913 
Q 202.604705 127.767913 203.637712 119.488004 
Q 204.670719 111.185095 204.693506 92.624299 
L 201.055195 92.624299 
L 201.055195 80.779429 
L 206.156932 80.779429 
L 206.156932 137.266809 
L 205.14418 137.266809 
L 204.764399 123.673958 
Q 203.966857 131.65487 203.349078 134.759836 
Q 202.311007 140.072778 200.713392 140.072778 
Q 198.64991 140.072778 197.161165 127.928911 
Q 195.53823 112.680079 195.53823 86.092371 
Q 195.53823 59.573662 197.120655 43.910834 
Q 198.624591 28.960998 201.014685 28.960998 
z
M 200.753902 28.8 
L 200.753902 28.8 
z
" style="fill:#ffa600;"/>
   </g>
   <g id="patch_43">
    <path clip-path="url(#p952d46d542)" d="M 217.334513 141.192222 
L 217.334513 141.245573 
L 212.924545 141.245573 
L 212.924545 141.64 
L 211.12578 141.64 
L 211.12578 141.245573 
L 206.715811 141.245573 
L 206.715811 141.192222 
L 217.334513 141.192222 
z
" style="fill:#ff0000;"/>
   </g>
   <g id="patch_44">
    <path clip-path="url(#p952d46d542)" d="M 212.298975 140.072778 
Q 214.572921 140.072778 215.827242 140.179281 
Q 217.081563 140.285553 217.219773 140.420766 
L 215.639485 140.420766 
Q 215.370888 140.318199 214.567705 140.258233 
Q 213.764522 140.198035 212.314621 140.198035 
Q 210.546576 140.198035 209.45915 140.308475 
Q 208.371724 140.418683 208.371724 140.646508 
Q 208.371724 140.833352 209.352233 140.949579 
Q 210.335349 141.065576 212.283328 141.065576 
Q 214.074843 141.065576 215.013628 140.943328 
Q 215.509098 140.878963 215.754225 140.773849 
L 217.334513 140.773849 
Q 217.123287 140.941707 215.934159 141.055388 
Q 214.507727 141.192222 212.087748 141.192222 
Q 210.001559 141.192222 208.58295 141.07993 
Q 206.715811 140.931752 206.715811 140.621965 
Q 206.715811 140.386963 208.118773 140.236469 
Q 209.633868 140.072778 212.298975 140.072778 
z
M 211.973008 140.072778 
L 211.973008 140.072778 
z
" style="fill:#0000ff;"/>
   </g>
   <g id="patch_45">
    <path clip-path="url(#p952d46d542)" d="M 212.192266 108.10299 
Q 213.830392 108.10299 215.025439 109.757398 
Q 216.757245 112.133129 217.144622 118.088999 
L 215.587517 118.088999 
Q 215.301414 114.760329 214.407661 113.238274 
Q 213.513907 111.716218 212.151756 111.716218 
Q 210.538949 111.716218 209.43505 114.886064 
Q 208.33115 118.049293 208.33115 124.316192 
Q 208.33115 129.729417 209.240095 133.13088 
Q 210.151572 136.532344 212.207458 136.532344 
Q 213.782287 136.532344 214.815293 134.149996 
Q 215.8483 131.76103 215.871087 126.4206 
L 212.232776 126.4206 
L 212.232776 123.012518 
L 217.334513 123.012518 
L 217.334513 139.265426 
L 216.321762 139.265426 
L 215.94198 135.354405 
Q 215.144438 137.650724 214.526659 138.544104 
Q 213.488589 140.072778 211.890973 140.072778 
Q 209.827491 140.072778 208.338746 136.578667 
Q 206.715811 132.191176 206.715811 124.541192 
Q 206.715811 116.91106 208.298236 112.404452 
Q 209.802172 108.10299 212.192266 108.10299 
z
M 211.931483 108.056667 
L 211.931483 108.056667 
z
" style="fill:#ffa600;"/>
   </g>
   <g id="patch_46">
    <path clip-path="url(#p952d46d542)" d="M 213.843327 75.584049 
L 212.036825 40.573698 
L 210.116284 75.584049 
L 213.843327 75.584049 
z
M 211.194483 28.8 
L 213.016535 28.8 
L 217.334513 108.056667 
L 215.566889 108.056667 
L 214.361691 84.319373 
L 209.654939 84.319373 
L 208.366803 108.056667 
L 206.715811 108.056667 
L 211.194483 28.8 
z
M 212.02905 28.8 
L 212.02905 28.8 
z
" style="fill:#008000;"/>
   </g>
   <g id="patch_47">
    <path clip-path="url(#p952d46d542)" d="M 223.476556 141.416111 
Q 225.750502 141.416111 227.004823 141.437412 
Q 228.259144 141.458666 228.397354 141.485709 
L 226.817066 141.485709 
Q 226.548469 141.465195 225.745286 141.453202 
Q 224.942103 141.441163 223.492202 141.441163 
Q 221.724157 141.441163 220.636731 141.46325 
Q 219.549305 141.485292 219.549305 141.530857 
Q 219.549305 141.568226 220.529814 141.591471 
Q 221.51293 141.614671 223.460909 141.614671 
Q 225.252424 141.614671 226.191209 141.590221 
Q 226.686679 141.577348 226.931806 141.556325 
L 228.512094 141.556325 
Q 228.300868 141.589897 227.11174 141.612633 
Q 225.685308 141.64 223.265329 141.64 
Q 221.17914 141.64 219.760531 141.617542 
Q 217.893392 141.587906 217.893392 141.525949 
Q 217.893392 141.478948 219.296354 141.448849 
Q 220.811449 141.416111 223.476556 141.416111 
z
M 223.150589 141.416111 
L 223.150589 141.416111 
z
" style="fill:#0000ff;"/>
   </g>
   <g id="patch_48">
    <path clip-path="url(#p952d46d542)" d="M 228.512094 141.192222 
L 228.512094 141.218898 
L 224.102126 141.218898 
L 224.102126 141.416111 
L 222.303361 141.416111 
L 222.303361 141.218898 
L 217.893392 141.218898 
L 217.893392 141.192222 
L 228.512094 141.192222 
z
" style="fill:#ff0000;"/>
   </g>
   <g id="patch_49">
    <path clip-path="url(#p952d46d542)" d="M 225.020908 140.550108 
L 223.214407 139.857813 
L 221.293865 140.550108 
L 225.020908 140.550108 
z
M 222.372064 139.625 
L 224.194116 139.625 
L 228.512094 141.192222 
L 226.744471 141.192222 
L 225.539273 140.722841 
L 220.832521 140.722841 
L 219.544384 141.192222 
L 217.893392 141.192222 
L 222.372064 139.625 
z
M 223.206631 139.625 
L 223.206631 139.625 
z
" style="fill:#008000;"/>
   </g>
   <g id="patch_50">
    <path clip-path="url(#p952d46d542)" d="M 223.369847 28.96035 
Q 225.007973 28.96035 226.20302 34.687149 
Q 227.934826 42.910831 228.322203 63.527305 
L 226.765098 63.527305 
Q 226.478995 52.004987 225.585242 46.736332 
Q 224.691488 41.467678 223.329337 41.467678 
Q 221.71653 41.467678 220.612631 52.440223 
Q 219.508731 63.389862 219.508731 85.082973 
Q 219.508731 103.821057 220.417676 115.595354 
Q 221.329153 127.369652 223.385039 127.369652 
Q 224.959868 127.369652 225.992874 119.123062 
Q 227.025881 110.853566 227.048668 92.367461 
L 223.410357 92.367461 
L 223.410357 80.570256 
L 228.512094 80.570256 
L 228.512094 136.830322 
L 227.499343 136.830322 
L 227.119561 123.292171 
Q 226.322019 131.240967 225.70424 134.333438 
Q 224.66617 139.625 223.068554 139.625 
Q 221.005072 139.625 219.516327 127.530002 
Q 217.893392 112.342533 217.893392 85.861818 
Q 217.893392 59.449824 219.475817 43.850026 
Q 220.979753 28.96035 223.369847 28.96035 
z
M 223.109064 28.8 
L 223.109064 28.8 
z
" style="fill:#ffa600;"/>
   </g>
   <g id="patch_51">
    <path clip-path="url(#p952d46d542)" d="M 234.654137 141.416111 
Q 236.928083 141.416111 238.182404 141.437412 
Q 239.436725 141.458666 239.574935 141.485709 
L 237.994647 141.485709 
Q 237.72605 141.465195 236.922867 141.453202 
Q 236.119685 141.441163 234.669783 141.441163 
Q 232.901738 141.441163 231.814312 141.46325 
Q 230.726886 141.485292 230.726886 141.530857 
Q 230.726886 141.568226 231.707395 141.591471 
Q 232.690511 141.614671 234.63849 141.614671 
Q 236.430005 141.614671 237.36879 141.590221 
Q 237.86426 141.577348 238.109387 141.556325 
L 239.689676 141.556325 
Q 239.478449 141.589897 238.289321 141.612633 
Q 236.862889 141.64 234.44291 141.64 
Q 232.356721 141.64 230.938113 141.617542 
Q 229.070973 141.587906 229.070973 141.525949 
Q 229.070973 141.478948 230.473936 141.448849 
Q 231.98903 141.416111 234.654137 141.416111 
z
M 234.32817 141.416111 
L 234.32817 141.416111 
z
" style="fill:#0000ff;"/>
   </g>
   <g id="patch_52">
    <path clip-path="url(#p952d46d542)" d="M 239.689676 116.116667 
L 239.689676 119.130998 
L 235.279707 119.130998 
L 235.279707 141.416111 
L 233.480942 141.416111 
L 233.480942 119.130998 
L 229.070973 119.130998 
L 229.070973 116.116667 
L 239.689676 116.116667 
z
" style="fill:#ff0000;"/>
   </g>
   <g id="patch_53">
    <path clip-path="url(#p952d46d542)" d="M 234.547429 89.288873 
Q 236.185554 89.288873 237.380602 90.677188 
Q 239.112407 92.670807 239.499785 97.668741 
L 237.942679 97.668741 
Q 237.656576 94.875451 236.762823 93.598202 
Q 235.86907 92.320952 234.506918 92.320952 
Q 232.894111 92.320952 231.790212 94.980963 
Q 230.686312 97.635421 230.686312 102.894357 
Q 230.686312 107.436923 231.595257 110.291298 
Q 232.506734 113.145673 234.56262 113.145673 
Q 236.137449 113.145673 237.170456 111.1465 
Q 238.203462 109.141773 238.226249 104.660294 
L 234.587939 104.660294 
L 234.587939 101.800365 
L 239.689676 101.800365 
L 239.689676 115.439169 
L 238.676924 115.439169 
L 238.297142 112.157193 
Q 237.4996 114.084174 236.881821 114.833864 
Q 235.843751 116.116667 234.246135 116.116667 
Q 232.182653 116.116667 230.693908 113.184546 
Q 229.070973 109.502735 229.070973 103.083168 
Q 229.070973 96.68026 230.653398 92.898491 
Q 232.157334 89.288873 234.547429 89.288873 
z
M 234.286645 89.25 
L 234.286645 89.25 
z
" style="fill:#ffa600;"/>
   </g>
   <g id="patch_54">
    <path clip-path="url(#p952d46d542)" d="M 236.198489 64.482749 
L 234.391988 37.779939 
L 232.471446 64.482749 
L 236.198489 64.482749 
z
M 233.549645 28.8 
L 235.371697 28.8 
L 239.689676 89.25 
L 237.922052 89.25 
L 236.716854 71.145284 
L 232.010102 71.145284 
L 230.721965 89.25 
L 229.070973 89.25 
L 233.549645 28.8 
z
M 234.384212 28.8 
L 234.384212 28.8 
z
" style="fill:#008000;"/>
   </g>
   <g id="patch_55">
    <path clip-path="url(#p952d46d542)" d="M 245.72501 141.416435 
Q 247.363136 141.416435 248.558183 141.428004 
Q 250.289988 141.444618 250.677366 141.486267 
L 249.12026 141.486267 
Q 248.834158 141.46299 247.940404 141.452346 
Q 247.046651 141.441702 245.6845 141.441702 
Q 244.071692 141.441702 242.967793 141.463869 
Q 241.863894 141.48599 241.863894 141.529814 
Q 241.863894 141.567669 242.772838 141.591455 
Q 243.684315 141.615242 245.740201 141.615242 
Q 247.31503 141.615242 248.348037 141.598582 
Q 249.381043 141.581876 249.40383 141.54453 
L 245.76552 141.54453 
L 245.76552 141.520697 
L 250.867257 141.520697 
L 250.867257 141.634354 
L 249.854505 141.634354 
L 249.474723 141.607004 
Q 248.677181 141.623063 248.059402 141.62931 
Q 247.021332 141.64 245.423716 141.64 
Q 243.360234 141.64 241.871489 141.615566 
Q 240.248555 141.584884 240.248555 141.531388 
Q 240.248555 141.47803 241.830979 141.446515 
Q 243.334916 141.416435 245.72501 141.416435 
z
M 245.464226 141.416111 
L 245.464226 141.416111 
z
" style="fill:#ffa600;"/>
   </g>
   <g id="patch_56">
    <path clip-path="url(#p952d46d542)" d="M 247.37607 141.049189 
L 245.569569 140.653592 
L 243.649027 141.049189 
L 247.37607 141.049189 
z
M 244.727226 140.520556 
L 246.549278 140.520556 
L 250.867257 141.416111 
L 249.099633 141.416111 
L 247.894435 141.147893 
L 243.187683 141.147893 
L 241.899546 141.416111 
L 240.248555 141.416111 
L 244.727226 140.520556 
z
M 245.561793 140.520556 
L 245.561793 140.520556 
z
" style="fill:#008000;"/>
   </g>
   <g id="patch_57">
    <path clip-path="url(#p952d46d542)" d="M 245.831718 139.625 
Q 248.105664 139.625 249.359985 139.710203 
Q 250.614306 139.79522 250.752516 139.903391 
L 249.172228 139.903391 
Q 248.903631 139.821337 248.100448 139.773364 
Q 247.297266 139.725206 245.847364 139.725206 
Q 244.079319 139.725206 242.991893 139.813558 
Q 241.904467 139.901724 241.904467 140.083984 
Q 241.904467 140.233459 242.884976 140.326441 
Q 243.868093 140.419238 245.816071 140.419238 
Q 247.607586 140.419238 248.546371 140.32144 
Q 249.041841 140.269948 249.286968 140.185857 
L 250.867257 140.185857 
Q 250.65603 140.320144 249.466902 140.411088 
Q 248.040471 140.520556 245.620491 140.520556 
Q 243.534302 140.520556 242.115694 140.430722 
Q 240.248555 140.312179 240.248555 140.06435 
Q 240.248555 139.876348 241.651517 139.755953 
Q 243.166611 139.625 245.831718 139.625 
z
M 245.505751 139.625 
L 245.505751 139.625 
z
" style="fill:#0000ff;"/>
   </g>
   <g id="patch_58">
    <path clip-path="url(#p952d46d542)" d="M 250.867257 28.8 
L 250.867257 42.004373 
L 246.457288 42.004373 
L 246.457288 139.625 
L 244.658523 139.625 
L 244.658523 42.004373 
L 240.248555 42.004373 
L 240.248555 28.8 
L 250.867257 28.8 
z
" style="fill:#ff0000;"/>
   </g>
   <g id="patch_59">
    <path clip-path="url(#p952d46d542)" d="M 256.902591 141.19287 
Q 258.540717 141.19287 259.735764 141.216009 
Q 261.467569 141.249236 261.854947 141.332535 
L 260.297841 141.332535 
Q 260.011739 141.28598 259.117985 141.264692 
Q 258.224232 141.243405 256.862081 141.243405 
Q 255.249274 141.243405 254.145374 141.287738 
Q 253.041475 141.331979 253.041475 141.419628 
Q 253.041475 141.495338 253.950419 141.542911 
Q 254.861896 141.590483 256.917782 141.590483 
Q 258.492611 141.590483 259.525618 141.557164 
Q 260.558625 141.523752 260.581411 141.44906 
L 256.943101 141.44906 
L 256.943101 141.401395 
L 262.044838 141.401395 
L 262.044838 141.628708 
L 261.032086 141.628708 
L 260.652304 141.574009 
Q 259.854762 141.606125 259.236984 141.61862 
Q 258.198913 141.64 256.601297 141.64 
Q 254.537815 141.64 253.04907 141.591131 
Q 251.426136 141.529768 251.426136 141.422775 
Q 251.426136 141.31606 253.00856 141.25303 
Q 254.512497 141.19287 256.902591 141.19287 
z
M 256.641807 141.192222 
L 256.641807 141.192222 
z
" style="fill:#ffa600;"/>
   </g>
   <g id="patch_60">
    <path clip-path="url(#p952d46d542)" d="M 257.009299 140.296667 
Q 259.283245 140.296667 260.537566 140.381869 
Q 261.791887 140.466887 261.930097 140.575058 
L 260.349809 140.575058 
Q 260.081212 140.493004 259.27803 140.445031 
Q 258.474847 140.396873 257.024945 140.396873 
Q 255.2569 140.396873 254.169474 140.485224 
Q 253.082048 140.573391 253.082048 140.75565 
Q 253.082048 140.905126 254.062557 140.998108 
Q 255.045674 141.090905 256.993653 141.090905 
Q 258.785167 141.090905 259.723952 140.993107 
Q 260.219422 140.941615 260.46455 140.857523 
L 262.044838 140.857523 
Q 261.833611 140.99181 260.644483 141.082755 
Q 259.218052 141.192222 256.798072 141.192222 
Q 254.711883 141.192222 253.293275 141.102389 
Q 251.426136 140.983846 251.426136 140.736017 
Q 251.426136 140.548015 252.829098 140.42762 
Q 254.344193 140.296667 257.009299 140.296667 
z
M 256.683332 140.296667 
L 256.683332 140.296667 
z
" style="fill:#0000ff;"/>
   </g>
   <g id="patch_61">
    <path clip-path="url(#p952d46d542)" d="M 262.044838 104.250556 
L 262.044838 108.545311 
L 257.634869 108.545311 
L 257.634869 140.296667 
L 255.836104 140.296667 
L 255.836104 108.545311 
L 251.426136 108.545311 
L 251.426136 104.250556 
L 262.044838 104.250556 
z
" style="fill:#ff0000;"/>
   </g>
   <g id="patch_62">
    <path clip-path="url(#p952d46d542)" d="M 258.553651 73.337357 
L 256.74715 40.008294 
L 254.826609 73.337357 
L 258.553651 73.337357 
z
M 255.904807 28.8 
L 257.726859 28.8 
L 262.044838 104.250556 
L 260.277214 104.250556 
L 259.072016 81.653188 
L 254.365264 81.653188 
L 253.077127 104.250556 
L 251.426136 104.250556 
L 255.904807 28.8 
z
M 256.739374 28.8 
L 256.739374 28.8 
z
" style="fill:#008000;"/>
   </g>
   <g id="patch_63">
    <path clip-path="url(#p952d46d542)" d="M 269.731232 141.548269 
L 267.924731 141.44937 
L 266.00419 141.548269 
L 269.731232 141.548269 
z
M 267.082388 141.416111 
L 268.90444 141.416111 
L 273.222419 141.64 
L 271.454795 141.64 
L 270.249597 141.572945 
L 265.542845 141.572945 
L 264.254709 141.64 
L 262.603717 141.64 
L 267.082388 141.416111 
z
M 267.916956 141.416111 
L 267.916956 141.416111 
z
" style="fill:#008000;"/>
   </g>
   <g id="patch_64">
    <path clip-path="url(#p952d46d542)" d="M 268.080172 141.192546 
Q 269.718298 141.192546 270.913345 141.204115 
Q 272.64515 141.220729 273.032528 141.262378 
L 271.475422 141.262378 
Q 271.18932 141.239101 270.295566 141.228457 
Q 269.401813 141.217813 268.039662 141.217813 
Q 266.426855 141.217813 265.322955 141.23998 
Q 264.219056 141.262101 264.219056 141.305925 
Q 264.219056 141.34378 265.128001 141.367566 
Q 266.039477 141.391353 268.095363 141.391353 
Q 269.670192 141.391353 270.703199 141.374693 
Q 271.736206 141.357987 271.758993 141.320641 
L 268.120682 141.320641 
L 268.120682 141.296809 
L 273.222419 141.296809 
L 273.222419 141.410465 
L 272.209667 141.410465 
L 271.829885 141.383115 
Q 271.032343 141.399174 270.414565 141.405421 
Q 269.376494 141.416111 267.778878 141.416111 
Q 265.715397 141.416111 264.226651 141.391677 
Q 262.603717 141.360995 262.603717 141.307499 
Q 262.603717 141.254141 264.186141 141.222626 
Q 265.690078 141.192546 268.080172 141.192546 
z
M 267.819388 141.192222 
L 267.819388 141.192222 
z
" style="fill:#ffa600;"/>
   </g>
   <g id="patch_65">
    <path clip-path="url(#p952d46d542)" d="M 273.222419 102.683333 
L 273.222419 107.271519 
L 268.812451 107.271519 
L 268.812451 141.192222 
L 267.013685 141.192222 
L 267.013685 107.271519 
L 262.603717 107.271519 
L 262.603717 102.683333 
L 273.222419 102.683333 
z
" style="fill:#ff0000;"/>
   </g>
   <g id="patch_66">
    <path clip-path="url(#p952d46d542)" d="M 268.18688 28.8 
Q 270.460826 28.8 271.715147 35.829231 
Q 272.969468 42.843182 273.107678 51.767249 
L 271.52739 51.767249 
Q 271.258793 44.997794 270.455611 41.040031 
Q 269.652428 37.066987 268.202527 37.066987 
Q 266.434481 37.066987 265.347055 44.355994 
Q 264.259629 51.629721 264.259629 66.666163 
Q 264.259629 78.99788 265.240138 86.668911 
Q 266.223255 94.32466 268.171234 94.32466 
Q 269.962749 94.32466 270.901534 86.256325 
Q 271.397003 82.008225 271.642131 75.070679 
L 273.222419 75.070679 
Q 273.011192 86.149359 271.822065 93.652299 
Q 270.395633 102.683333 267.975654 102.683333 
Q 265.889465 102.683333 264.470856 95.272079 
Q 262.603717 85.492279 262.603717 65.046384 
Q 262.603717 49.536232 264.006679 39.603623 
Q 265.521774 28.8 268.18688 28.8 
z
M 267.860913 28.8 
L 267.860913 28.8 
z
" style="fill:#0000ff;"/>
   </g>
   <g id="patch_67">
    <path clip-path="url(#p952d46d542)" d="M 280.908813 141.548269 
L 279.102312 141.44937 
L 277.181771 141.548269 
L 280.908813 141.548269 
z
M 278.259969 141.416111 
L 280.082022 141.416111 
L 284.4 141.64 
L 282.632376 141.64 
L 281.427178 141.572945 
L 276.720426 141.572945 
L 275.43229 141.64 
L 273.781298 141.64 
L 278.259969 141.416111 
z
M 279.094537 141.416111 
L 279.094537 141.416111 
z
" style="fill:#008000;"/>
   </g>
   <g id="patch_68">
    <path clip-path="url(#p952d46d542)" d="M 279.257753 141.192546 
Q 280.895879 141.192546 282.090926 141.204115 
Q 283.822732 141.220729 284.210109 141.262378 
L 282.653003 141.262378 
Q 282.366901 141.239101 281.473147 141.228457 
Q 280.579394 141.217813 279.217243 141.217813 
Q 277.604436 141.217813 276.500536 141.23998 
Q 275.396637 141.262101 275.396637 141.305925 
Q 275.396637 141.34378 276.305582 141.367566 
Q 277.217058 141.391353 279.272944 141.391353 
Q 280.847773 141.391353 281.88078 141.374693 
Q 282.913787 141.357987 282.936574 141.320641 
L 279.298263 141.320641 
L 279.298263 141.296809 
L 284.4 141.296809 
L 284.4 141.410465 
L 283.387248 141.410465 
L 283.007466 141.383115 
Q 282.209924 141.399174 281.592146 141.405421 
Q 280.554075 141.416111 278.956459 141.416111 
Q 276.892978 141.416111 275.404233 141.391677 
Q 273.781298 141.360995 273.781298 141.307499 
Q 273.781298 141.254141 275.363723 141.222626 
Q 276.867659 141.192546 279.257753 141.192546 
z
M 278.996969 141.192222 
L 278.996969 141.192222 
z
" style="fill:#ffa600;"/>
   </g>
   <g id="patch_69">
    <path clip-path="url(#p952d46d542)" d="M 279.364461 140.072778 
Q 281.638407 140.072778 282.892728 140.179281 
Q 284.14705 140.285553 284.28526 140.420766 
L 282.704971 140.420766 
Q 282.436375 140.318199 281.633192 140.258233 
Q 280.830009 140.198035 279.380108 140.198035 
Q 277.612063 140.198035 276.524636 140.308475 
Q 275.43721 140.418683 275.43721 140.646508 
Q 275.43721 140.833352 276.417719 140.949579 
Q 277.400836 141.065576 279.348815 141.065576 
Q 281.14033 141.065576 282.079115 140.943328 
Q 282.574585 140.878963 282.819712 140.773849 
L 284.4 140.773849 
Q 284.188773 140.941707 282.999646 141.055388 
Q 281.573214 141.192222 279.153235 141.192222 
Q 277.067046 141.192222 275.648437 141.07993 
Q 273.781298 140.931752 273.781298 140.621965 
Q 273.781298 140.386963 275.18426 140.236469 
Q 276.699355 140.072778 279.364461 140.072778 
z
M 279.038494 140.072778 
L 279.038494 140.072778 
z
" style="fill:#0000ff;"/>
   </g>
   <g id="patch_70">
    <path clip-path="url(#p952d46d542)" d="M 284.4 28.8 
L 284.4 42.057724 
L 279.990032 42.057724 
L 279.990032 140.072778 
L 278.191266 140.072778 
L 278.191266 42.057724 
L 273.781298 42.057724 
L 273.781298 28.8 
L 284.4 28.8 
z
" style="fill:#ff0000;"/>
   </g>
   <g id="matplotlib.axis_1">
    <g id="xtick_1">
     <g id="text_1">
      <!-- 0 -->
      <g style="fill:#262626;" transform="translate(94.688414 162.986875)scale(0.2 -0.2)">
       <defs>
        <path d="M 1731 4475 
Q 2600 4475 2988 3759 
Q 3288 3206 3288 2244 
Q 3288 1331 3016 734 
Q 2622 -122 1728 -122 
Q 922 -122 528 578 
Q 200 1163 200 2147 
Q 200 2909 397 3456 
Q 766 4475 1731 4475 
z
M 1725 391 
Q 2163 391 2422 778 
Q 2681 1166 2681 2222 
Q 2681 2984 2493 3476 
Q 2306 3969 1766 3969 
Q 1269 3969 1039 3501 
Q 809 3034 809 2125 
Q 809 1441 956 1025 
Q 1181 391 1725 391 
z
" id="Helvetica-30" transform="scale(0.015625)"/>
       </defs>
       <use xlink:href="#Helvetica-30"/>
      </g>
     </g>
    </g>
    <g id="xtick_2">
     <g id="text_2">
      <!-- 10 -->
      <g style="fill:#262626;" transform="translate(200.903287 162.986875)scale(0.2 -0.2)">
       <defs>
        <path d="M 613 3169 
L 613 3600 
Q 1222 3659 1462 3798 
Q 1703 3938 1822 4456 
L 2266 4456 
L 2266 0 
L 1666 0 
L 1666 3169 
L 613 3169 
z
" id="Helvetica-31" transform="scale(0.015625)"/>
       </defs>
       <use xlink:href="#Helvetica-31"/>
       <use x="55.615234" xlink:href="#Helvetica-30"/>
      </g>
     </g>
    </g>
    <g id="text_3">
     <!-- Position -->
     <g style="fill:#262626;" transform="translate(145.20125 189.089219)scale(0.25 -0.25)">
      <defs>
       <path d="M 547 4591 
L 2613 4591 
Q 3225 4591 3600 4245 
Q 3975 3900 3975 3275 
Q 3975 2738 3640 2339 
Q 3306 1941 2613 1941 
L 1169 1941 
L 1169 0 
L 547 0 
L 547 4591 
z
M 3347 3272 
Q 3347 3778 2972 3959 
Q 2766 4056 2406 4056 
L 1169 4056 
L 1169 2466 
L 2406 2466 
Q 2825 2466 3086 2644 
Q 3347 2822 3347 3272 
z
" id="Helvetica-50" transform="scale(0.015625)"/>
       <path d="M 1741 363 
Q 2300 363 2508 786 
Q 2716 1209 2716 1728 
Q 2716 2197 2566 2491 
Q 2328 2953 1747 2953 
Q 1231 2953 997 2559 
Q 763 2166 763 1609 
Q 763 1075 997 719 
Q 1231 363 1741 363 
z
M 1763 3444 
Q 2409 3444 2856 3012 
Q 3303 2581 3303 1744 
Q 3303 934 2909 406 
Q 2516 -122 1688 -122 
Q 997 -122 590 345 
Q 184 813 184 1600 
Q 184 2444 612 2944 
Q 1041 3444 1763 3444 
z
M 1744 3428 
L 1744 3428 
z
" id="Helvetica-6f" transform="scale(0.015625)"/>
       <path d="M 747 1050 
Q 772 769 888 619 
Q 1100 347 1625 347 
Q 1938 347 2175 483 
Q 2413 619 2413 903 
Q 2413 1119 2222 1231 
Q 2100 1300 1741 1391 
L 1294 1503 
Q 866 1609 663 1741 
Q 300 1969 300 2372 
Q 300 2847 642 3140 
Q 984 3434 1563 3434 
Q 2319 3434 2653 2991 
Q 2863 2709 2856 2384 
L 2325 2384 
Q 2309 2575 2191 2731 
Q 1997 2953 1519 2953 
Q 1200 2953 1036 2831 
Q 872 2709 872 2509 
Q 872 2291 1088 2159 
Q 1213 2081 1456 2022 
L 1828 1931 
Q 2434 1784 2641 1647 
Q 2969 1431 2969 969 
Q 2969 522 2630 197 
Q 2291 -128 1597 -128 
Q 850 -128 539 211 
Q 228 550 206 1050 
L 747 1050 
z
M 1578 3428 
L 1578 3428 
z
" id="Helvetica-73" transform="scale(0.015625)"/>
       <path d="M 413 3331 
L 984 3331 
L 984 0 
L 413 0 
L 413 3331 
z
M 413 4591 
L 984 4591 
L 984 3953 
L 413 3953 
L 413 4591 
z
" id="Helvetica-69" transform="scale(0.015625)"/>
       <path d="M 525 4281 
L 1094 4281 
L 1094 3347 
L 1628 3347 
L 1628 2888 
L 1094 2888 
L 1094 703 
Q 1094 528 1213 469 
Q 1278 434 1431 434 
Q 1472 434 1519 436 
Q 1566 438 1628 444 
L 1628 0 
Q 1531 -28 1426 -40 
Q 1322 -53 1200 -53 
Q 806 -53 665 148 
Q 525 350 525 672 
L 525 2888 
L 72 2888 
L 72 3347 
L 525 3347 
L 525 4281 
z
" id="Helvetica-74" transform="scale(0.015625)"/>
       <path d="M 413 3347 
L 947 3347 
L 947 2872 
Q 1184 3166 1450 3294 
Q 1716 3422 2041 3422 
Q 2753 3422 3003 2925 
Q 3141 2653 3141 2147 
L 3141 0 
L 2569 0 
L 2569 2109 
Q 2569 2416 2478 2603 
Q 2328 2916 1934 2916 
Q 1734 2916 1606 2875 
Q 1375 2806 1200 2600 
Q 1059 2434 1017 2257 
Q 975 2081 975 1753 
L 975 0 
L 413 0 
L 413 3347 
z
M 1734 3428 
L 1734 3428 
z
" id="Helvetica-6e" transform="scale(0.015625)"/>
      </defs>
      <use xlink:href="#Helvetica-50"/>
      <use x="66.699219" xlink:href="#Helvetica-6f"/>
      <use x="122.314453" xlink:href="#Helvetica-73"/>
      <use x="172.314453" xlink:href="#Helvetica-69"/>
      <use x="194.53125" xlink:href="#Helvetica-74"/>
      <use x="222.314453" xlink:href="#Helvetica-69"/>
      <use x="244.53125" xlink:href="#Helvetica-6f"/>
      <use x="300.146484" xlink:href="#Helvetica-6e"/>
     </g>
    </g>
   </g>
   <g id="matplotlib.axis_2">
    <g id="ytick_1">
     <g id="text_4">
      <!-- 0 -->
      <g style="fill:#262626;" transform="translate(76.818125 148.813438)scale(0.2 -0.2)">
       <use xlink:href="#Helvetica-30"/>
      </g>
     </g>
    </g>
    <g id="ytick_2">
     <g id="text_5">
      <!-- 0.25 -->
      <g style="fill:#262626;" transform="translate(49.018125 120.603438)scale(0.2 -0.2)">
       <defs>
        <path d="M 547 681 
L 1200 681 
L 1200 0 
L 547 0 
L 547 681 
z
" id="Helvetica-2e" transform="scale(0.015625)"/>
        <path d="M 200 0 
Q 231 578 439 1006 
Q 647 1434 1250 1784 
L 1850 2131 
Q 2253 2366 2416 2531 
Q 2672 2791 2672 3125 
Q 2672 3516 2437 3745 
Q 2203 3975 1813 3975 
Q 1234 3975 1013 3538 
Q 894 3303 881 2888 
L 309 2888 
Q 319 3472 525 3841 
Q 891 4491 1816 4491 
Q 2584 4491 2939 4075 
Q 3294 3659 3294 3150 
Q 3294 2613 2916 2231 
Q 2697 2009 2131 1694 
L 1703 1456 
Q 1397 1288 1222 1134 
Q 909 863 828 531 
L 3272 531 
L 3272 0 
L 200 0 
z
" id="Helvetica-32" transform="scale(0.015625)"/>
        <path d="M 791 1141 
Q 847 659 1238 475 
Q 1438 381 1700 381 
Q 2200 381 2440 700 
Q 2681 1019 2681 1406 
Q 2681 1875 2395 2131 
Q 2109 2388 1709 2388 
Q 1419 2388 1211 2275 
Q 1003 2163 856 1963 
L 369 1991 
L 709 4400 
L 3034 4400 
L 3034 3856 
L 1131 3856 
L 941 2613 
Q 1097 2731 1238 2791 
Q 1488 2894 1816 2894 
Q 2431 2894 2859 2497 
Q 3288 2100 3288 1491 
Q 3288 856 2895 371 
Q 2503 -113 1644 -113 
Q 1097 -113 676 195 
Q 256 503 206 1141 
L 791 1141 
z
" id="Helvetica-35" transform="scale(0.015625)"/>
       </defs>
       <use xlink:href="#Helvetica-30"/>
       <use x="55.615234" xlink:href="#Helvetica-2e"/>
       <use x="83.398438" xlink:href="#Helvetica-32"/>
       <use x="139.013672" xlink:href="#Helvetica-35"/>
      </g>
     </g>
    </g>
    <g id="ytick_3">
     <g id="text_6">
      <!-- 0.50 -->
      <g style="fill:#262626;" transform="translate(49.018125 92.393438)scale(0.2 -0.2)">
       <use xlink:href="#Helvetica-30"/>
       <use x="55.615234" xlink:href="#Helvetica-2e"/>
       <use x="83.398438" xlink:href="#Helvetica-35"/>
       <use x="139.013672" xlink:href="#Helvetica-30"/>
      </g>
     </g>
    </g>
    <g id="ytick_4">
     <g id="text_7">
      <!-- 0.75 -->
      <g style="fill:#262626;" transform="translate(49.018125 64.183437)scale(0.2 -0.2)">
       <defs>
        <path d="M 3347 4400 
L 3347 3909 
Q 3131 3700 2773 3181 
Q 2416 2663 2141 2063 
Q 1869 1478 1728 997 
Q 1638 688 1494 0 
L 872 0 
Q 1084 1281 1809 2550 
Q 2238 3294 2709 3834 
L 234 3834 
L 234 4400 
L 3347 4400 
z
" id="Helvetica-37" transform="scale(0.015625)"/>
       </defs>
       <use xlink:href="#Helvetica-30"/>
       <use x="55.615234" xlink:href="#Helvetica-2e"/>
       <use x="83.398438" xlink:href="#Helvetica-37"/>
       <use x="139.013672" xlink:href="#Helvetica-35"/>
      </g>
     </g>
    </g>
    <g id="ytick_5">
     <g id="text_8">
      <!-- 1.0 -->
      <g style="fill:#262626;" transform="translate(60.14 35.973438)scale(0.2 -0.2)">
       <use xlink:href="#Helvetica-31"/>
       <use x="55.615234" xlink:href="#Helvetica-2e"/>
       <use x="83.398438" xlink:href="#Helvetica-30"/>
      </g>
     </g>
    </g>
    <g id="text_9">
     <!-- Probability -->
     <g style="fill:#262626;" transform="translate(39.65875 143.579375)rotate(-90)scale(0.25 -0.25)">
      <defs>
       <path d="M 428 3347 
L 963 3347 
L 963 2769 
Q 1028 2938 1284 3180 
Q 1541 3422 1875 3422 
Q 1891 3422 1928 3419 
Q 1966 3416 2056 3406 
L 2056 2813 
Q 2006 2822 1964 2825 
Q 1922 2828 1872 2828 
Q 1447 2828 1219 2554 
Q 991 2281 991 1925 
L 991 0 
L 428 0 
L 428 3347 
z
" id="Helvetica-72" transform="scale(0.015625)"/>
       <path d="M 369 4606 
L 916 4606 
L 916 2941 
Q 1100 3181 1356 3307 
Q 1613 3434 1913 3434 
Q 2538 3434 2927 3004 
Q 3316 2575 3316 1738 
Q 3316 944 2931 419 
Q 2547 -106 1866 -106 
Q 1484 -106 1222 78 
Q 1066 188 888 428 
L 888 0 
L 369 0 
L 369 4606 
z
M 1831 391 
Q 2288 391 2514 753 
Q 2741 1116 2741 1709 
Q 2741 2238 2514 2584 
Q 2288 2931 1847 2931 
Q 1463 2931 1173 2647 
Q 884 2363 884 1709 
Q 884 1238 1003 944 
Q 1225 391 1831 391 
z
" id="Helvetica-62" transform="scale(0.015625)"/>
       <path d="M 844 891 
Q 844 647 1022 506 
Q 1200 366 1444 366 
Q 1741 366 2019 503 
Q 2488 731 2488 1250 
L 2488 1703 
Q 2384 1638 2221 1594 
Q 2059 1550 1903 1531 
L 1563 1488 
Q 1256 1447 1103 1359 
Q 844 1213 844 891 
z
M 2206 2028 
Q 2400 2053 2466 2191 
Q 2503 2266 2503 2406 
Q 2503 2694 2298 2823 
Q 2094 2953 1713 2953 
Q 1272 2953 1088 2716 
Q 984 2584 953 2325 
L 428 2325 
Q 444 2944 830 3186 
Q 1216 3428 1725 3428 
Q 2316 3428 2684 3203 
Q 3050 2978 3050 2503 
L 3050 575 
Q 3050 488 3086 434 
Q 3122 381 3238 381 
Q 3275 381 3322 386 
Q 3369 391 3422 400 
L 3422 -16 
Q 3291 -53 3222 -62 
Q 3153 -72 3034 -72 
Q 2744 -72 2613 134 
Q 2544 244 2516 444 
Q 2344 219 2022 53 
Q 1700 -113 1313 -113 
Q 847 -113 551 170 
Q 256 453 256 878 
Q 256 1344 547 1600 
Q 838 1856 1309 1916 
L 2206 2028 
z
M 1741 3428 
L 1741 3428 
z
" id="Helvetica-61" transform="scale(0.015625)"/>
       <path d="M 428 4591 
L 991 4591 
L 991 0 
L 428 0 
L 428 4591 
z
" id="Helvetica-6c" transform="scale(0.015625)"/>
       <path d="M 2503 3347 
L 3125 3347 
Q 3006 3025 2597 1878 
Q 2291 1016 2084 472 
Q 1597 -809 1397 -1090 
Q 1197 -1372 709 -1372 
Q 591 -1372 527 -1362 
Q 463 -1353 369 -1328 
L 369 -816 
Q 516 -856 581 -865 
Q 647 -875 697 -875 
Q 853 -875 926 -823 
Q 1000 -772 1050 -697 
Q 1066 -672 1162 -440 
Q 1259 -209 1303 -97 
L 66 3347 
L 703 3347 
L 1600 622 
L 2503 3347 
z
M 1597 3428 
L 1597 3428 
z
" id="Helvetica-79" transform="scale(0.015625)"/>
      </defs>
      <use xlink:href="#Helvetica-50"/>
      <use x="66.699219" xlink:href="#Helvetica-72"/>
      <use x="100" xlink:href="#Helvetica-6f"/>
      <use x="155.615234" xlink:href="#Helvetica-62"/>
      <use x="211.230469" xlink:href="#Helvetica-61"/>
      <use x="266.845703" xlink:href="#Helvetica-62"/>
      <use x="322.460938" xlink:href="#Helvetica-69"/>
      <use x="344.677734" xlink:href="#Helvetica-6c"/>
      <use x="366.894531" xlink:href="#Helvetica-69"/>
      <use x="389.111328" xlink:href="#Helvetica-74"/>
      <use x="416.894531" xlink:href="#Helvetica-79"/>
     </g>
    </g>
   </g>
   <g id="patch_71">
    <path d="M 94.94 141.64 
L 94.94 28.8 
" style="fill:none;stroke:#000000;stroke-linecap:square;stroke-linejoin:miter;"/>
   </g>
  </g>
 </g>
 <defs>
  <clipPath id="p952d46d542">
   <rect height="112.84" width="189.46" x="94.94" y="28.8"/>
  </clipPath>
 </defs>
</svg>
