<?xml version="1.0" encoding="utf-8" standalone="no"?>
<!DOCTYPE svg PUBLIC "-//W3C//DTD SVG 1.1//EN"
  "http://www.w3.org/Graphics/SVG/1.1/DTD/svg11.dtd">
<svg height="216pt" version="1.1" viewBox="0 0 306 216" width="306pt" xmlns="http://www.w3.org/2000/svg" xmlns:xlink="http://www.w3.org/1999/xlink">
 <metadata>
  <rdf:RDF xmlns:cc="http://creativecommons.org/ns#" xmlns:dc="http://purl.org/dc/elements/1.1/" xmlns:rdf="http://www.w3.org/1999/02/22-rdf-syntax-ns#">
   <cc:Work>
    <dc:type rdf:resource="http://purl.org/dc/dcmitype/StillImage"/>
    <dc:date>2022-12-27T20:10:58.937188</dc:date>
    <dc:format>image/svg+xml</dc:format>
    <dc:creator>
     <cc:Agent>
      <dc:title>Matplotlib v3.4.2, https://matplotlib.org/</dc:title>
     </cc:Agent>
    </dc:creator>
   </cc:Work>
  </rdf:RDF>
 </metadata>
 <defs>
  <style type="text/css">*{stroke-linecap:butt;stroke-linejoin:round;}</style>
 </defs>
 <g id="figure_1">
  <g id="patch_1">
   <path d="M 0 216 
L 306 216 
L 306 0 
L 0 0 
z
" style="fill:#ffffff;"/>
  </g>
  <g id="axes_1">
   <g id="patch_2">
    <path d="M 94.94 141.64 
L 284.4 141.64 
L 284.4 28.8 
L 94.94 28.8 
z
" style="fill:#ffffff;"/>
   </g>
   <g id="line2d_1">
    <path clip-path="url(#p47d621d4dd)" d="M 94.94 141.64 
L 284.4 141.64 
" style="fill:none;stroke:#000000;stroke-linecap:round;stroke-width:0.5;"/>
   </g>
   <g id="patch_3">
    <path clip-path="url(#p47d621d4dd)" d="M 105.558702 122.023459 
L 105.558702 124.360694 
L 101.148734 124.360694 
L 101.148734 141.64 
L 99.349968 141.64 
L 99.349968 124.360694 
L 94.94 124.360694 
L 94.94 122.023459 
L 105.558702 122.023459 
z
" style="fill:#ff0000;"/>
   </g>
   <g id="patch_4">
    <path clip-path="url(#p47d621d4dd)" d="M 100.416455 99.578197 
Q 102.054581 99.578197 103.249628 100.739719 
Q 104.981434 102.407666 105.368811 106.589147 
L 103.811705 106.589147 
Q 103.525603 104.252163 102.63185 103.183563 
Q 101.738096 102.114962 100.375945 102.114962 
Q 98.763138 102.114962 97.659238 104.340439 
Q 96.555339 106.56127 96.555339 110.961118 
Q 96.555339 114.761619 97.464284 117.14971 
Q 98.37576 119.5378 100.431646 119.5378 
Q 102.006475 119.5378 103.039482 117.865208 
Q 104.072489 116.187969 104.095276 112.438574 
L 100.456965 112.438574 
L 100.456965 110.045838 
L 105.558702 110.045838 
L 105.558702 121.456636 
L 104.54595 121.456636 
L 104.166168 118.710796 
Q 103.368626 120.32299 102.750848 120.950212 
Q 101.712777 122.023459 100.115161 122.023459 
Q 98.05168 122.023459 96.562935 119.570323 
Q 94.94 116.489965 94.94 111.119085 
Q 94.94 105.762143 96.522425 102.598155 
Q 98.026361 99.578197 100.416455 99.578197 
z
M 100.155671 99.545674 
L 100.155671 99.545674 
z
" style="fill:#ffa600;"/>
   </g>
   <g id="patch_5">
    <path clip-path="url(#p47d621d4dd)" d="M 100.523163 70.376914 
Q 102.797109 70.376914 104.051431 73.152019 
Q 105.305752 75.92109 105.443962 79.444266 
L 103.863673 79.444266 
Q 103.595077 76.77172 102.791894 75.209215 
Q 101.988711 73.640678 100.53881 73.640678 
Q 98.770765 73.640678 97.683339 76.518341 
Q 96.595913 79.38997 96.595913 85.326281 
Q 96.595913 90.194779 97.576421 93.223262 
Q 98.559538 96.245713 100.507517 96.245713 
Q 102.299032 96.245713 103.237817 93.060376 
Q 103.733287 91.383247 103.978414 88.64434 
L 105.558702 88.64434 
Q 105.347475 93.018146 104.158348 95.980268 
Q 102.731916 99.545674 100.311937 99.545674 
Q 98.225748 99.545674 96.807139 96.619749 
Q 94.94 92.758734 94.94 84.6868 
Q 94.94 78.563472 96.342962 74.642129 
Q 97.858057 70.376914 100.523163 70.376914 
z
M 100.197196 70.376914 
L 100.197196 70.376914 
z
" style="fill:#0000ff;"/>
   </g>
   <g id="patch_6">
    <path clip-path="url(#p47d621d4dd)" d="M 102.067515 53.342243 
L 100.261014 34.976314 
L 98.340473 53.342243 
L 102.067515 53.342243 
z
M 99.418672 28.8 
L 101.240724 28.8 
L 105.558702 70.376914 
L 103.791078 70.376914 
L 102.58588 57.924669 
L 97.879128 57.924669 
L 96.590992 70.376914 
L 94.94 70.376914 
L 99.418672 28.8 
z
M 100.253239 28.8 
L 100.253239 28.8 
z
" style="fill:#008000;"/>
   </g>
   <g id="patch_7">
    <path clip-path="url(#p47d621d4dd)" d="M 116.736283 122.023459 
L 116.736283 124.360694 
L 112.326315 124.360694 
L 112.326315 141.64 
L 110.527549 141.64 
L 110.527549 124.360694 
L 106.117581 124.360694 
L 106.117581 122.023459 
L 116.736283 122.023459 
z
" style="fill:#ff0000;"/>
   </g>
   <g id="patch_8">
    <path clip-path="url(#p47d621d4dd)" d="M 111.594036 97.673167 
Q 113.232162 97.673167 114.427209 98.933273 
Q 116.159015 100.742785 116.546392 105.279168 
L 114.989286 105.279168 
Q 114.703184 102.743834 113.809431 101.584536 
Q 112.915677 100.425239 111.553526 100.425239 
Q 109.940719 100.425239 108.83682 102.839602 
Q 107.73292 105.248925 107.73292 110.022207 
Q 107.73292 114.145275 108.641865 116.736053 
Q 109.553341 119.326831 111.609227 119.326831 
Q 113.184056 119.326831 114.217063 117.512278 
Q 115.25007 115.692685 115.272857 111.625062 
L 111.634546 111.625062 
L 111.634546 109.029244 
L 116.736283 109.029244 
L 116.736283 121.408527 
L 115.723531 121.408527 
L 115.34375 118.429636 
Q 114.546208 120.178663 113.928429 120.85912 
Q 112.890358 122.023459 111.292743 122.023459 
Q 109.229261 122.023459 107.740516 119.362114 
Q 106.117581 116.020313 106.117581 110.193582 
Q 106.117581 104.381972 107.700006 100.949443 
Q 109.203942 97.673167 111.594036 97.673167 
z
M 111.333253 97.637884 
L 111.333253 97.637884 
z
" style="fill:#ffa600;"/>
   </g>
   <g id="patch_9">
    <path clip-path="url(#p47d621d4dd)" d="M 111.700744 68.4762 
Q 113.97469 68.4762 115.229012 71.250631 
Q 116.483333 74.019031 116.621543 77.541352 
L 115.041255 77.541352 
Q 114.772658 74.869454 113.969475 73.307329 
Q 113.166292 71.739172 111.716391 71.739172 
Q 109.948346 71.739172 108.86092 74.616136 
Q 107.773494 77.48707 107.773494 83.42194 
Q 107.773494 88.289257 108.754002 91.317006 
Q 109.737119 94.338723 111.685098 94.338723 
Q 113.476613 94.338723 114.415398 91.154159 
Q 114.910868 89.477437 115.155995 86.739194 
L 116.736283 86.739194 
Q 116.525057 91.111939 115.335929 94.073343 
Q 113.909497 97.637884 111.489518 97.637884 
Q 109.403329 97.637884 107.98472 94.712668 
Q 106.117581 90.85259 106.117581 82.782614 
Q 106.117581 76.660772 107.520543 72.74038 
Q 109.035638 68.4762 111.700744 68.4762 
z
M 111.374777 68.4762 
L 111.374777 68.4762 
z
" style="fill:#0000ff;"/>
   </g>
   <g id="patch_10">
    <path clip-path="url(#p47d621d4dd)" d="M 113.245097 52.220279 
L 111.438595 34.69396 
L 109.518054 52.220279 
L 113.245097 52.220279 
z
M 110.596253 28.8 
L 112.418305 28.8 
L 116.736283 68.4762 
L 114.968659 68.4762 
L 113.763461 56.593217 
L 109.056709 56.593217 
L 107.768573 68.4762 
L 106.117581 68.4762 
L 110.596253 28.8 
z
M 111.43082 28.8 
L 111.43082 28.8 
z
" style="fill:#008000;"/>
   </g>
   <g id="patch_11">
    <path clip-path="url(#p47d621d4dd)" d="M 127.913864 117.251772 
L 127.913864 120.157535 
L 123.503896 120.157535 
L 123.503896 141.64 
L 121.705131 141.64 
L 121.705131 120.157535 
L 117.295162 120.157535 
L 117.295162 117.251772 
L 127.913864 117.251772 
z
" style="fill:#ff0000;"/>
   </g>
   <g id="patch_12">
    <path clip-path="url(#p47d621d4dd)" d="M 122.771617 91.940575 
Q 124.409743 91.940575 125.60479 93.250407 
Q 127.336596 95.131326 127.723973 99.846722 
L 126.166868 99.846722 
Q 125.880765 97.211339 124.987012 96.006294 
Q 124.093258 94.801248 122.731107 94.801248 
Q 121.1183 94.801248 120.014401 97.310887 
Q 118.910501 99.815286 118.910501 104.77693 
Q 118.910501 109.062701 119.819446 111.755716 
Q 120.730923 114.448731 122.786809 114.448731 
Q 124.361638 114.448731 125.394644 112.562573 
Q 126.427651 110.671175 126.450438 106.443037 
L 122.812127 106.443037 
L 122.812127 103.744782 
L 127.913864 103.744782 
L 127.913864 116.612574 
L 126.901113 116.612574 
L 126.521331 113.51613 
Q 125.723789 115.334177 125.10601 116.041487 
Q 124.06794 117.251772 122.470324 117.251772 
Q 120.406842 117.251772 118.918097 114.485406 
Q 117.295162 111.011731 117.295162 104.955067 
Q 117.295162 98.914121 118.877587 95.346138 
Q 120.381523 91.940575 122.771617 91.940575 
z
M 122.510834 91.903899 
L 122.510834 91.903899 
z
" style="fill:#ffa600;"/>
   </g>
   <g id="patch_13">
    <path clip-path="url(#p47d621d4dd)" d="M 122.878326 64.655312 
Q 125.152272 64.655312 126.406593 67.247732 
Q 127.660914 69.834516 127.799124 73.125763 
L 126.218836 73.125763 
Q 125.950239 70.629149 125.147056 69.169504 
Q 124.343873 67.704224 122.893972 67.704224 
Q 121.125927 67.704224 120.038501 70.39245 
Q 118.951075 73.075041 118.951075 78.620565 
Q 118.951075 83.168572 119.931584 85.997691 
Q 120.9147 88.821174 122.862679 88.821174 
Q 124.654194 88.821174 125.592979 85.845527 
Q 126.088449 84.278804 126.333576 81.720198 
L 127.913864 81.720198 
Q 127.702638 85.806077 126.51351 88.573203 
Q 125.087078 91.903899 122.667099 91.903899 
Q 120.58091 91.903899 119.162301 89.170587 
Q 117.295162 85.563742 117.295162 78.023182 
Q 117.295162 72.302951 118.698124 68.639749 
Q 120.213219 64.655312 122.878326 64.655312 
z
M 122.552359 64.655312 
L 122.552359 64.655312 
z
" style="fill:#0000ff;"/>
   </g>
   <g id="patch_14">
    <path clip-path="url(#p47d621d4dd)" d="M 124.422678 49.964865 
L 122.616176 34.126361 
L 120.695635 49.964865 
L 124.422678 49.964865 
z
M 121.773834 28.8 
L 123.595886 28.8 
L 127.913864 64.655312 
L 126.14624 64.655312 
L 124.941042 53.916682 
L 120.23429 53.916682 
L 118.946154 64.655312 
L 117.295162 64.655312 
L 121.773834 28.8 
z
M 122.608401 28.8 
L 122.608401 28.8 
z
" style="fill:#008000;"/>
   </g>
   <g id="patch_15">
    <path clip-path="url(#p47d621d4dd)" d="M 133.949198 115.391744 
Q 135.587324 115.391744 136.782371 116.750068 
Q 138.514177 118.700621 138.901554 123.590588 
L 137.344449 123.590588 
Q 137.058346 120.85764 136.164593 119.607982 
Q 135.270839 118.358324 133.908688 118.358324 
Q 132.295881 118.358324 131.191982 120.960873 
Q 130.088082 123.557989 130.088082 128.703321 
Q 130.088082 133.147757 130.997027 135.940472 
Q 131.908504 138.733186 133.96439 138.733186 
Q 135.539219 138.733186 136.572225 136.777199 
Q 137.605232 134.815779 137.628019 130.431109 
L 133.989709 130.431109 
L 133.989709 127.632961 
L 139.091445 127.632961 
L 139.091445 140.977138 
L 138.078694 140.977138 
L 137.698912 137.766059 
Q 136.90137 139.651413 136.283591 140.384908 
Q 135.245521 141.64 133.647905 141.64 
Q 131.584423 141.64 130.095678 138.771219 
Q 128.472743 135.168944 128.472743 128.888053 
Q 128.472743 122.623462 130.055168 118.923387 
Q 131.559104 115.391744 133.949198 115.391744 
z
M 133.688415 115.353711 
L 133.688415 115.353711 
z
" style="fill:#ffa600;"/>
   </g>
   <g id="patch_16">
    <path clip-path="url(#p47d621d4dd)" d="M 134.055907 89.048847 
Q 136.329853 89.048847 137.584174 91.551482 
Q 138.838495 94.048676 138.976705 97.225933 
L 137.396417 97.225933 
Q 137.12782 94.815787 136.324637 93.406696 
Q 135.521454 91.992163 134.071553 91.992163 
Q 132.303508 91.992163 131.216082 94.587286 
Q 130.128656 97.176969 130.128656 102.53043 
Q 130.128656 106.920921 131.109165 109.652057 
Q 132.092281 112.377752 134.04026 112.377752 
Q 135.831775 112.377752 136.77056 109.505163 
Q 137.26603 107.992701 137.511157 105.52271 
L 139.091445 105.52271 
Q 138.880219 109.467079 137.691091 112.13837 
Q 136.264659 115.353711 133.84468 115.353711 
Q 131.758491 115.353711 130.339883 112.715064 
Q 128.472743 109.233137 128.472743 101.953736 
Q 128.472743 96.431619 129.875705 92.895288 
Q 131.3908 89.048847 134.055907 89.048847 
z
M 133.72994 89.048847 
L 133.72994 89.048847 
z
" style="fill:#0000ff;"/>
   </g>
   <g id="patch_17">
    <path clip-path="url(#p47d621d4dd)" d="M 139.091445 62.743984 
L 139.091445 65.878108 
L 134.681477 65.878108 
L 134.681477 89.048847 
L 132.882712 89.048847 
L 132.882712 65.878108 
L 128.472743 65.878108 
L 128.472743 62.743984 
L 139.091445 62.743984 
z
" style="fill:#ff0000;"/>
   </g>
   <g id="patch_18">
    <path clip-path="url(#p47d621d4dd)" d="M 135.600259 48.836636 
L 133.793758 33.84243 
L 131.873216 48.836636 
L 135.600259 48.836636 
z
M 132.951415 28.8 
L 134.773467 28.8 
L 139.091445 62.743984 
L 137.323822 62.743984 
L 136.118624 52.577794 
L 131.411872 52.577794 
L 130.123735 62.743984 
L 128.472743 62.743984 
L 132.951415 28.8 
z
M 133.785982 28.8 
L 133.785982 28.8 
z
" style="fill:#008000;"/>
   </g>
   <g id="patch_19">
    <path clip-path="url(#p47d621d4dd)" d="M 145.233488 119.156024 
Q 147.507434 119.156024 148.761755 121.295141 
Q 150.016076 123.429607 150.154286 126.145355 
L 148.573998 126.145355 
Q 148.305401 124.085293 147.502218 122.880877 
Q 146.699036 121.671811 145.249134 121.671811 
Q 143.481089 121.671811 142.393663 123.889982 
Q 141.306237 126.103503 141.306237 130.679352 
Q 141.306237 134.432107 142.286746 136.766534 
Q 143.269862 139.096311 145.217841 139.096311 
Q 147.009356 139.096311 147.948141 136.640977 
Q 148.443611 135.348207 148.688738 133.236992 
L 150.269027 133.236992 
Q 150.0578 136.608426 148.868672 138.8917 
Q 147.44224 141.64 145.022261 141.64 
Q 142.936072 141.64 141.517464 139.384627 
Q 139.650324 136.408465 139.650324 130.186426 
Q 139.650324 125.466418 141.053287 122.443753 
Q 142.568381 119.156024 145.233488 119.156024 
z
M 144.907521 119.156024 
L 144.907521 119.156024 
z
" style="fill:#0000ff;"/>
   </g>
   <g id="patch_20">
    <path clip-path="url(#p47d621d4dd)" d="M 145.12678 92.910417 
Q 146.764906 92.910417 147.959953 94.268604 
Q 149.691758 96.218961 150.079136 101.108434 
L 148.52203 101.108434 
Q 148.235927 98.375762 147.342174 97.12623 
Q 146.448421 95.876698 145.086269 95.876698 
Q 143.473462 95.876698 142.369563 98.478984 
Q 141.265664 101.075838 141.265664 106.220651 
Q 141.265664 110.664639 142.174608 113.457071 
Q 143.086085 116.249504 145.141971 116.249504 
Q 146.7168 116.249504 147.749807 114.293714 
Q 148.782813 112.332492 148.8056 107.948265 
L 145.16729 107.948265 
L 145.16729 105.150399 
L 150.269027 105.150399 
L 150.269027 118.493229 
L 149.256275 118.493229 
L 148.876493 115.282475 
Q 148.078951 117.167638 147.461172 117.901059 
Q 146.423102 119.156024 144.825486 119.156024 
Q 142.762004 119.156024 141.273259 116.287533 
Q 139.650324 112.685621 139.650324 106.405364 
Q 139.650324 100.141405 141.232749 96.441704 
Q 142.736685 92.910417 145.12678 92.910417 
z
M 144.865996 92.872388 
L 144.865996 92.872388 
z
" style="fill:#ffa600;"/>
   </g>
   <g id="patch_21">
    <path clip-path="url(#p47d621d4dd)" d="M 150.269027 66.567525 
L 150.269027 69.701648 
L 145.859058 69.701648 
L 145.859058 92.872388 
L 144.060293 92.872388 
L 144.060293 69.701648 
L 139.650324 69.701648 
L 139.650324 66.567525 
L 150.269027 66.567525 
z
" style="fill:#ff0000;"/>
   </g>
   <g id="patch_22">
    <path clip-path="url(#p47d621d4dd)" d="M 146.77784 51.093616 
L 144.971339 34.410423 
L 143.050797 51.093616 
L 146.77784 51.093616 
z
M 144.128996 28.8 
L 145.951048 28.8 
L 150.269027 66.567525 
L 148.501403 66.567525 
L 147.296205 55.256188 
L 142.589453 55.256188 
L 141.301316 66.567525 
L 139.650324 66.567525 
L 144.128996 28.8 
z
M 144.963563 28.8 
L 144.963563 28.8 
z
" style="fill:#008000;"/>
   </g>
   <g id="patch_23">
    <path clip-path="url(#p47d621d4dd)" d="M 156.304361 121.096235 
Q 157.942487 121.096235 159.137534 122.159357 
Q 160.869339 123.686 161.256717 127.513238 
L 159.699611 127.513238 
Q 159.413509 125.374237 158.519755 124.396165 
Q 157.626002 123.418093 156.263851 123.418093 
Q 154.651043 123.418093 153.547144 125.455034 
Q 152.443245 127.487723 152.443245 131.514828 
Q 152.443245 134.993363 153.352189 137.179141 
Q 154.263666 139.364919 156.319552 139.364919 
Q 157.894381 139.364919 158.927388 137.834024 
Q 159.960394 136.298876 159.983181 132.867119 
L 156.344871 132.867119 
L 156.344871 130.677088 
L 161.446608 130.677088 
L 161.446608 141.121197 
L 160.433856 141.121197 
L 160.054074 138.607977 
Q 159.256532 140.08359 158.638753 140.657675 
Q 157.600683 141.64 156.003067 141.64 
Q 153.939585 141.64 152.45084 139.394687 
Q 150.827906 136.575288 150.827906 131.659413 
Q 150.827906 126.756295 152.41033 123.860352 
Q 153.914267 121.096235 156.304361 121.096235 
z
M 156.043577 121.066468 
L 156.043577 121.066468 
z
" style="fill:#ffa600;"/>
   </g>
   <g id="patch_24">
    <path clip-path="url(#p47d621d4dd)" d="M 161.446608 94.761605 
L 161.446608 97.895728 
L 157.036639 97.895728 
L 157.036639 121.066468 
L 155.237874 121.066468 
L 155.237874 97.895728 
L 150.827906 97.895728 
L 150.827906 94.761605 
L 161.446608 94.761605 
z
" style="fill:#ff0000;"/>
   </g>
   <g id="patch_25">
    <path clip-path="url(#p47d621d4dd)" d="M 156.411069 67.50152 
Q 158.685015 67.50152 159.939336 70.095033 
Q 161.193657 72.682909 161.331867 75.975544 
L 159.751579 75.975544 
Q 159.482982 73.477877 158.679799 72.017616 
Q 157.876617 70.551717 156.426715 70.551717 
Q 154.65867 70.551717 153.571244 73.241078 
Q 152.483818 75.924801 152.483818 81.472666 
Q 152.483818 86.022591 153.464327 88.852904 
Q 154.447444 91.677578 156.395423 91.677578 
Q 158.186937 91.677578 159.125722 88.700676 
Q 159.621192 87.133291 159.866319 84.573606 
L 161.446608 84.573606 
Q 161.235381 88.661209 160.046253 91.429503 
Q 158.619822 94.761605 156.199842 94.761605 
Q 154.113653 94.761605 152.695045 92.027139 
Q 150.827906 88.418772 150.827906 80.87503 
Q 150.827906 75.152385 152.230868 71.487638 
Q 153.745962 67.50152 156.411069 67.50152 
z
M 156.085102 67.50152 
L 156.085102 67.50152 
z
" style="fill:#0000ff;"/>
   </g>
   <g id="patch_26">
    <path clip-path="url(#p47d621d4dd)" d="M 157.955421 51.64494 
L 156.14892 34.549169 
L 154.228378 51.64494 
L 157.955421 51.64494 
z
M 155.306577 28.8 
L 157.128629 28.8 
L 161.446608 67.50152 
L 159.678984 67.50152 
L 158.473786 55.910452 
L 153.767034 55.910452 
L 152.478897 67.50152 
L 150.827906 67.50152 
L 155.306577 28.8 
z
M 156.141144 28.8 
L 156.141144 28.8 
z
" style="fill:#008000;"/>
   </g>
   <g id="patch_27">
    <path clip-path="url(#p47d621d4dd)" d="M 167.481942 117.280876 
Q 169.120068 117.280876 170.315115 118.541439 
Q 172.04692 120.351608 172.434298 124.889636 
L 170.877192 124.889636 
Q 170.59109 122.353383 169.697336 121.193665 
Q 168.803583 120.033946 167.441432 120.033946 
Q 165.828625 120.033946 164.724725 122.449185 
Q 163.620826 124.859382 163.620826 129.634396 
Q 163.620826 133.758959 164.52977 136.350677 
Q 165.441247 138.942395 167.497133 138.942395 
Q 169.071962 138.942395 170.104969 137.127184 
Q 171.137976 135.30693 171.160763 131.237832 
L 167.522452 131.237832 
L 167.522452 128.641072 
L 172.624189 128.641072 
L 172.624189 141.024845 
L 171.611437 141.024845 
L 171.231655 138.044874 
Q 170.434113 139.794535 169.816335 140.47524 
Q 168.778264 141.64 167.180648 141.64 
Q 165.117166 141.64 163.628421 138.97769 
Q 162.005487 135.634677 162.005487 129.805832 
Q 162.005487 123.992115 163.587911 120.558341 
Q 165.091848 117.280876 167.481942 117.280876 
z
M 167.221158 117.24558 
L 167.221158 117.24558 
z
" style="fill:#ffa600;"/>
   </g>
   <g id="patch_28">
    <path clip-path="url(#p47d621d4dd)" d="M 172.624189 92.851161 
L 172.624189 95.757662 
L 168.21422 95.757662 
L 168.21422 117.24558 
L 166.415455 117.24558 
L 166.415455 95.757662 
L 162.005487 95.757662 
L 162.005487 92.851161 
L 172.624189 92.851161 
z
" style="fill:#ff0000;"/>
   </g>
   <g id="patch_29">
    <path clip-path="url(#p47d621d4dd)" d="M 167.58865 65.591076 
Q 169.862596 65.591076 171.116917 68.18459 
Q 172.371238 70.772466 172.509448 74.0651 
L 170.92916 74.0651 
Q 170.660563 71.567434 169.857381 70.107173 
Q 169.054198 68.641274 167.604296 68.641274 
Q 165.836251 68.641274 164.748825 71.330635 
Q 163.661399 74.014358 163.661399 79.562222 
Q 163.661399 84.112147 164.641908 86.94246 
Q 165.625025 89.767135 167.573004 89.767135 
Q 169.364518 89.767135 170.303304 86.790232 
Q 170.798773 85.222848 171.043901 82.663162 
L 172.624189 82.663162 
Q 172.412962 86.750766 171.223834 89.51906 
Q 169.797403 92.851161 167.377423 92.851161 
Q 165.291234 92.851161 163.872626 90.116695 
Q 162.005487 86.508328 162.005487 78.964586 
Q 162.005487 73.241942 163.408449 69.577194 
Q 164.923544 65.591076 167.58865 65.591076 
z
M 167.262683 65.591076 
L 167.262683 65.591076 
z
" style="fill:#0000ff;"/>
   </g>
   <g id="patch_30">
    <path clip-path="url(#p47d621d4dd)" d="M 169.133002 50.517233 
L 167.326501 34.26537 
L 165.40596 50.517233 
L 169.133002 50.517233 
z
M 166.484158 28.8 
L 168.30621 28.8 
L 172.624189 65.591076 
L 170.856565 65.591076 
L 169.651367 54.572185 
L 164.944615 54.572185 
L 163.656478 65.591076 
L 162.005487 65.591076 
L 166.484158 28.8 
z
M 167.318725 28.8 
L 167.318725 28.8 
z
" style="fill:#008000;"/>
   </g>
   <g id="patch_31">
    <path clip-path="url(#p47d621d4dd)" d="M 178.766231 120.111246 
Q 181.040177 120.111246 182.294498 122.159483 
Q 183.548819 124.203268 183.68703 126.803638 
L 182.106741 126.803638 
Q 181.838145 124.831097 181.034962 123.67785 
Q 180.231779 122.520151 178.781878 122.520151 
Q 177.013832 122.520151 175.926406 124.644084 
Q 174.83898 126.763564 174.83898 131.145011 
Q 174.83898 134.738331 175.819489 136.973581 
Q 176.802606 139.204379 178.750585 139.204379 
Q 180.5421 139.204379 181.480885 136.853359 
Q 181.976355 135.615511 182.221482 133.59399 
L 183.80177 133.59399 
Q 183.590543 136.82219 182.401416 139.00846 
Q 180.974984 141.64 178.555005 141.64 
Q 176.468816 141.64 175.050207 139.480446 
Q 173.183068 136.630724 173.183068 130.673026 
Q 173.183068 126.153546 174.58603 123.259297 
Q 176.101125 120.111246 178.766231 120.111246 
z
M 178.440264 120.111246 
L 178.440264 120.111246 
z
" style="fill:#0000ff;"/>
   </g>
   <g id="patch_32">
    <path clip-path="url(#p47d621d4dd)" d="M 183.80177 91.895939 
L 183.80177 95.257685 
L 179.391802 95.257685 
L 179.391802 120.111246 
L 177.593036 120.111246 
L 177.593036 95.257685 
L 173.183068 95.257685 
L 173.183068 91.895939 
L 183.80177 91.895939 
z
" style="fill:#ff0000;"/>
   </g>
   <g id="patch_33">
    <path clip-path="url(#p47d621d4dd)" d="M 178.659523 62.788813 
Q 180.297649 62.788813 181.492696 64.295081 
Q 183.224501 66.458082 183.611879 71.880648 
L 182.054773 71.880648 
Q 181.768671 68.850036 180.874917 67.46427 
Q 179.981164 66.078503 178.619013 66.078503 
Q 177.006206 66.078503 175.902306 68.964513 
Q 174.798407 71.844497 174.798407 77.550241 
Q 174.798407 82.478751 175.707352 85.575638 
Q 176.618828 88.672525 178.674714 88.672525 
Q 180.249543 88.672525 181.28255 86.503499 
Q 182.315557 84.328448 182.338344 79.466214 
L 178.700033 79.466214 
L 178.700033 76.363302 
L 183.80177 76.363302 
L 183.80177 91.16088 
L 182.789018 91.16088 
L 182.409236 87.600062 
Q 181.611694 89.690763 180.993916 90.504147 
Q 179.955845 91.895939 178.358229 91.895939 
Q 176.294748 91.895939 174.806003 88.714701 
Q 173.183068 84.720078 173.183068 77.755094 
Q 173.183068 70.808185 174.765492 66.70511 
Q 176.269429 62.788813 178.659523 62.788813 
z
M 178.398739 62.746638 
L 178.398739 62.746638 
z
" style="fill:#ffa600;"/>
   </g>
   <g id="patch_34">
    <path clip-path="url(#p47d621d4dd)" d="M 180.310583 48.838203 
L 178.504082 33.842824 
L 176.583541 48.838203 
L 180.310583 48.838203 
z
M 177.661739 28.8 
L 179.483791 28.8 
L 183.80177 62.746638 
L 182.034146 62.746638 
L 180.828948 52.579653 
L 176.122196 52.579653 
L 174.83406 62.746638 
L 173.183068 62.746638 
L 177.661739 28.8 
z
M 178.496307 28.8 
L 178.496307 28.8 
z
" style="fill:#008000;"/>
   </g>
   <g id="patch_35">
    <path clip-path="url(#p47d621d4dd)" d="M 189.943812 121.066468 
Q 192.217758 121.066468 193.472079 123.023826 
Q 194.726401 124.976928 194.864611 127.461922 
L 193.284322 127.461922 
Q 193.015726 125.576901 192.212543 124.474823 
Q 191.40936 123.368491 189.959459 123.368491 
Q 188.191414 123.368491 187.103988 125.398186 
Q 186.016561 127.423625 186.016561 131.610669 
Q 186.016561 135.044555 186.99707 137.180628 
Q 187.980187 139.312446 189.928166 139.312446 
Q 191.719681 139.312446 192.658466 137.06574 
Q 193.153936 135.882815 193.399063 133.950988 
L 194.979351 133.950988 
Q 194.768124 137.035954 193.578997 139.125221 
Q 192.152565 141.64 189.732586 141.64 
Q 187.646397 141.64 186.227788 139.576264 
Q 184.360649 136.852984 184.360649 131.159626 
Q 184.360649 126.840673 185.763611 124.074842 
Q 187.278706 121.066468 189.943812 121.066468 
z
M 189.617845 121.066468 
L 189.617845 121.066468 
z
" style="fill:#0000ff;"/>
   </g>
   <g id="patch_36">
    <path clip-path="url(#p47d621d4dd)" d="M 189.837104 93.845825 
Q 191.47523 93.845825 192.670277 95.254469 
Q 194.402083 97.277282 194.78946 102.348402 
L 193.232354 102.348402 
Q 192.946252 99.51421 192.052498 98.218257 
Q 191.158745 96.922304 189.796594 96.922304 
Q 188.183787 96.922304 187.079887 99.621267 
Q 185.975988 102.314595 185.975988 107.650539 
Q 185.975988 112.259623 186.884933 115.155796 
Q 187.796409 118.051969 189.852295 118.051969 
Q 191.427124 118.051969 192.460131 116.023521 
Q 193.493138 113.989439 193.515925 109.442335 
L 189.877614 109.442335 
L 189.877614 106.540528 
L 194.979351 106.540528 
L 194.979351 120.379049 
L 193.966599 120.379049 
L 193.586817 117.049014 
Q 192.789275 119.004212 192.171497 119.76488 
Q 191.133426 121.066468 189.53581 121.066468 
Q 187.472329 121.066468 185.983584 118.091411 
Q 184.360649 114.355686 184.360649 107.842115 
Q 184.360649 101.345447 185.943074 97.5083 
Q 187.44701 93.845825 189.837104 93.845825 
z
M 189.57632 93.806383 
L 189.57632 93.806383 
z
" style="fill:#ffa600;"/>
   </g>
   <g id="patch_37">
    <path clip-path="url(#p47d621d4dd)" d="M 194.979351 66.546298 
L 194.979351 69.794232 
L 190.569383 69.794232 
L 190.569383 93.806383 
L 188.770617 93.806383 
L 188.770617 69.794232 
L 184.360649 69.794232 
L 184.360649 66.546298 
L 194.979351 66.546298 
z
" style="fill:#ff0000;"/>
   </g>
   <g id="patch_38">
    <path clip-path="url(#p47d621d4dd)" d="M 191.488164 51.081086 
L 189.681663 34.40727 
L 187.761122 51.081086 
L 191.488164 51.081086 
z
M 188.83932 28.8 
L 190.661373 28.8 
L 194.979351 66.546298 
L 193.211727 66.546298 
L 192.006529 55.241319 
L 187.299777 55.241319 
L 186.011641 66.546298 
L 184.360649 66.546298 
L 188.83932 28.8 
z
M 189.673888 28.8 
L 189.673888 28.8 
z
" style="fill:#008000;"/>
   </g>
   <g id="patch_39">
    <path clip-path="url(#p47d621d4dd)" d="M 201.014685 120.142395 
Q 202.652811 120.142395 203.847858 121.254878 
Q 205.579664 122.852402 205.967041 126.857338 
L 204.409935 126.857338 
Q 204.123833 124.619024 203.23008 123.59554 
Q 202.336326 122.572056 200.974175 122.572056 
Q 199.361368 122.572056 198.257469 124.703572 
Q 197.153569 126.830638 197.153569 131.04472 
Q 197.153569 134.684762 198.062514 136.972025 
Q 198.97399 139.259288 201.029876 139.259288 
Q 202.604705 139.259288 203.637712 137.657314 
Q 204.670719 136.05089 204.693506 132.459798 
L 201.055195 132.459798 
L 201.055195 130.168084 
L 206.156932 130.168084 
L 206.156932 141.097109 
L 205.14418 141.097109 
L 204.764399 138.467201 
Q 203.966857 140.011326 203.349078 140.612067 
Q 202.311007 141.64 200.713392 141.64 
Q 198.64991 141.64 197.161165 139.290438 
Q 195.53823 136.340135 195.53823 131.196018 
Q 195.53823 126.06525 197.120655 123.034849 
Q 198.624591 120.142395 201.014685 120.142395 
z
M 200.753902 120.111246 
L 200.753902 120.111246 
z
" style="fill:#ffa600;"/>
   </g>
   <g id="patch_40">
    <path clip-path="url(#p47d621d4dd)" d="M 206.156932 97.62727 
L 206.156932 100.306149 
L 201.746964 100.306149 
L 201.746964 120.111246 
L 199.948198 120.111246 
L 199.948198 100.306149 
L 195.53823 100.306149 
L 195.53823 97.62727 
L 206.156932 97.62727 
z
" style="fill:#ff0000;"/>
   </g>
   <g id="patch_41">
    <path clip-path="url(#p47d621d4dd)" d="M 201.121393 67.522747 
Q 203.395339 67.522747 204.649661 70.386879 
Q 205.903982 73.244785 206.042192 76.880988 
L 204.461904 76.880988 
Q 204.193307 74.122704 203.390124 72.510073 
Q 202.586941 70.891216 201.13704 70.891216 
Q 199.368995 70.891216 198.281569 73.861197 
Q 197.194143 76.824951 197.194143 82.951704 
Q 197.194143 87.976389 198.174651 91.102029 
Q 199.157768 94.221443 201.105747 94.221443 
Q 202.897262 94.221443 203.836047 90.933917 
Q 204.331517 89.202985 204.576644 86.37621 
L 206.156932 86.37621 
Q 205.945706 90.890332 204.756578 93.947482 
Q 203.330146 97.62727 200.910167 97.62727 
Q 198.823978 97.62727 197.405369 94.607478 
Q 195.53823 90.622598 195.53823 82.291708 
Q 195.53823 75.971938 196.941192 71.924794 
Q 198.456287 67.522747 201.121393 67.522747 
z
M 200.795426 67.522747 
L 200.795426 67.522747 
z
" style="fill:#0000ff;"/>
   </g>
   <g id="patch_42">
    <path clip-path="url(#p47d621d4dd)" d="M 202.665746 51.65747 
L 200.859244 34.552323 
L 198.938703 51.65747 
L 202.665746 51.65747 
z
M 200.016902 28.8 
L 201.838954 28.8 
L 206.156932 67.522747 
L 204.389308 67.522747 
L 203.18411 55.925322 
L 198.477358 55.925322 
L 197.189222 67.522747 
L 195.53823 67.522747 
L 200.016902 28.8 
z
M 200.851469 28.8 
L 200.851469 28.8 
z
" style="fill:#008000;"/>
   </g>
   <g id="patch_43">
    <path clip-path="url(#p47d621d4dd)" d="M 212.192266 122.068622 
Q 213.830392 122.068622 215.025439 123.081423 
Q 216.757245 124.535807 217.144622 128.181892 
L 215.587517 128.181892 
Q 215.301414 126.144135 214.407661 125.212358 
Q 213.513907 124.280581 212.151756 124.280581 
Q 210.538949 124.280581 209.43505 126.221108 
Q 208.33115 128.157585 208.33115 131.994078 
Q 208.33115 135.307964 209.240095 137.390284 
Q 210.151572 139.472605 212.207458 139.472605 
Q 213.782287 139.472605 214.815293 138.01417 
Q 215.8483 136.551685 215.871087 133.282361 
L 212.232776 133.282361 
L 212.232776 131.19599 
L 217.334513 131.19599 
L 217.334513 141.145753 
L 216.321762 141.145753 
L 215.94198 138.75149 
Q 215.144438 140.157258 214.526659 140.704171 
Q 213.488589 141.64 211.890973 141.64 
Q 209.827491 141.64 208.338746 139.500963 
Q 206.715811 136.815013 206.715811 132.131819 
Q 206.715811 127.460778 208.298236 124.701906 
Q 209.802172 122.068622 212.192266 122.068622 
z
M 211.931483 122.040263 
L 211.931483 122.040263 
z
" style="fill:#ffa600;"/>
   </g>
   <g id="patch_44">
    <path clip-path="url(#p47d621d4dd)" d="M 217.334513 96.690622 
L 217.334513 99.710934 
L 212.924545 99.710934 
L 212.924545 122.040263 
L 211.12578 122.040263 
L 211.12578 99.710934 
L 206.715811 99.710934 
L 206.715811 96.690622 
L 217.334513 96.690622 
z
" style="fill:#ff0000;"/>
   </g>
   <g id="patch_45">
    <path clip-path="url(#p47d621d4dd)" d="M 212.298975 68.477969 
Q 214.572921 68.477969 215.827242 71.162109 
Q 217.081563 73.840415 217.219773 77.248107 
L 215.639485 77.248107 
Q 215.370888 74.663163 214.567705 73.151875 
Q 213.764522 71.634752 212.314621 71.634752 
Q 210.546576 71.634752 209.45915 74.418089 
Q 208.371724 77.195591 208.371724 82.937318 
Q 208.371724 87.646235 209.352233 90.575449 
Q 210.335349 93.498829 212.283328 93.498829 
Q 214.074843 93.498829 215.013628 90.417902 
Q 215.509098 88.795747 215.754225 86.146617 
L 217.334513 86.146617 
Q 217.123287 90.377056 215.934159 93.242085 
Q 214.507727 96.690622 212.087748 96.690622 
Q 210.001559 96.690622 208.58295 93.860604 
Q 206.715811 90.126147 206.715811 82.318799 
Q 206.715811 76.396184 208.118773 72.603376 
Q 209.633868 68.477969 212.298975 68.477969 
z
M 211.973008 68.477969 
L 211.973008 68.477969 
z
" style="fill:#0000ff;"/>
   </g>
   <g id="patch_46">
    <path clip-path="url(#p47d621d4dd)" d="M 213.843327 52.221323 
L 212.036825 34.694222 
L 210.116284 52.221323 
L 213.843327 52.221323 
z
M 211.194483 28.8 
L 213.016535 28.8 
L 217.334513 68.477969 
L 215.566889 68.477969 
L 214.361691 56.594456 
L 209.654939 56.594456 
L 208.366803 68.477969 
L 206.715811 68.477969 
L 211.194483 28.8 
z
M 212.02905 28.8 
L 212.02905 28.8 
z
" style="fill:#008000;"/>
   </g>
   <g id="patch_47">
    <path clip-path="url(#p47d621d4dd)" d="M 223.369847 127.773113 
Q 225.007973 127.773113 226.20302 128.490713 
Q 227.934826 129.521185 228.322203 132.104542 
L 226.765098 132.104542 
Q 226.478995 130.660732 225.585242 130.000541 
Q 224.691488 129.34035 223.329337 129.34035 
Q 221.71653 129.34035 220.612631 130.71527 
Q 219.508731 132.08732 219.508731 134.805585 
Q 219.508731 137.15357 220.417676 138.628954 
Q 221.329153 140.104338 223.385039 140.104338 
Q 224.959868 140.104338 225.992874 139.070995 
Q 227.025881 138.034782 227.048668 135.718372 
L 223.410357 135.718372 
L 223.410357 134.240117 
L 228.512094 134.240117 
L 228.512094 141.289812 
L 227.499343 141.289812 
L 227.119561 139.593407 
Q 226.322019 140.589435 225.70424 140.976938 
Q 224.66617 141.64 223.068554 141.64 
Q 221.005072 141.64 219.516327 140.124431 
Q 217.893392 138.221357 217.893392 134.903179 
Q 217.893392 131.593611 219.475817 129.638871 
Q 220.979753 127.773113 223.369847 127.773113 
z
M 223.109064 127.753021 
L 223.109064 127.753021 
z
" style="fill:#ffa600;"/>
   </g>
   <g id="patch_48">
    <path clip-path="url(#p47d621d4dd)" d="M 223.476556 103.358601 
Q 225.750502 103.358601 227.004823 105.679477 
Q 228.259144 107.995307 228.397354 110.941809 
L 226.817066 110.941809 
Q 226.548469 108.706705 225.745286 107.399952 
Q 224.942103 106.088152 223.492202 106.088152 
Q 221.724157 106.088152 220.636731 108.494799 
Q 219.549305 110.896401 219.549305 115.861056 
Q 219.549305 119.932679 220.529814 122.465461 
Q 221.51293 124.993197 223.460909 124.993197 
Q 225.252424 124.993197 226.191209 122.329235 
Q 226.686679 120.926619 226.931806 118.636016 
L 228.512094 118.636016 
Q 228.300868 122.293918 227.11174 124.7712 
Q 225.685308 127.753021 223.265329 127.753021 
Q 221.17914 127.753021 219.760531 125.306011 
Q 217.893392 122.076966 217.893392 115.326246 
Q 217.893392 110.205184 219.296354 106.925686 
Q 220.811449 103.358601 223.476556 103.358601 
z
M 223.150589 103.358601 
L 223.150589 103.358601 
z
" style="fill:#0000ff;"/>
   </g>
   <g id="patch_49">
    <path clip-path="url(#p47d621d4dd)" d="M 228.512094 78.964182 
L 228.512094 81.870683 
L 224.102126 81.870683 
L 224.102126 103.358601 
L 222.303361 103.358601 
L 222.303361 81.870683 
L 217.893392 81.870683 
L 217.893392 78.964182 
L 228.512094 78.964182 
z
" style="fill:#ff0000;"/>
   </g>
   <g id="patch_50">
    <path clip-path="url(#p47d621d4dd)" d="M 225.020908 58.411181 
L 223.214407 36.251965 
L 221.293865 58.411181 
L 225.020908 58.411181 
z
M 222.372064 28.8 
L 224.194116 28.8 
L 228.512094 78.964182 
L 226.744471 78.964182 
L 225.539273 63.940058 
L 220.832521 63.940058 
L 219.544384 78.964182 
L 217.893392 78.964182 
L 222.372064 28.8 
z
M 223.206631 28.8 
L 223.206631 28.8 
z
" style="fill:#008000;"/>
   </g>
   <g id="patch_51">
    <path clip-path="url(#p47d621d4dd)" d="M 234.547429 122.050075 
Q 236.185554 122.050075 237.380602 123.063836 
Q 239.112407 124.519598 239.499785 128.169139 
L 237.942679 128.169139 
Q 237.656576 126.129451 236.762823 125.19679 
Q 235.86907 124.26413 234.506918 124.26413 
Q 232.894111 124.26413 231.790212 126.206497 
Q 230.686312 128.144808 230.686312 131.984937 
Q 230.686312 135.301964 231.595257 137.386257 
Q 232.506734 139.470551 234.56262 139.470551 
Q 236.137449 139.470551 237.170456 138.010734 
Q 238.203462 136.546863 238.226249 133.274441 
L 234.587939 133.274441 
L 234.587939 131.186093 
L 239.689676 131.186093 
L 239.689676 141.145284 
L 238.676924 141.145284 
L 238.297142 138.748753 
Q 237.4996 140.155853 236.881821 140.703284 
Q 235.843751 141.64 234.246135 141.64 
Q 232.182653 141.64 230.693908 139.498936 
Q 229.070973 136.810441 229.070973 132.122808 
Q 229.070973 127.447341 230.653398 124.685855 
Q 232.157334 122.050075 234.547429 122.050075 
z
M 234.286645 122.02169 
L 234.286645 122.02169 
z
" style="fill:#ffa600;"/>
   </g>
   <g id="patch_52">
    <path clip-path="url(#p47d621d4dd)" d="M 234.654137 92.851161 
Q 236.928083 92.851161 238.182404 95.626434 
Q 239.436725 98.395673 239.574935 101.919063 
L 237.994647 101.919063 
Q 237.72605 99.246354 236.922867 97.683755 
Q 236.119685 96.115123 234.669783 96.115123 
Q 232.901738 96.115123 231.814312 98.99296 
Q 230.726886 101.864764 230.726886 107.801434 
Q 230.726886 112.670227 231.707395 115.698895 
Q 232.690511 118.721528 234.63849 118.721528 
Q 236.430005 118.721528 237.36879 115.535998 
Q 237.86426 113.858768 238.109387 111.119695 
L 239.689676 111.119695 
Q 239.478449 115.493766 238.289321 118.456068 
Q 236.862889 122.02169 234.44291 122.02169 
Q 232.356721 122.02169 230.938113 119.095587 
Q 229.070973 115.234338 229.070973 107.161915 
Q 229.070973 101.038215 230.473936 97.116634 
Q 231.98903 92.851161 234.654137 92.851161 
z
M 234.32817 92.851161 
L 234.32817 92.851161 
z
" style="fill:#0000ff;"/>
   </g>
   <g id="patch_53">
    <path clip-path="url(#p47d621d4dd)" d="M 239.689676 61.791416 
L 239.689676 65.492065 
L 235.279707 65.492065 
L 235.279707 92.851161 
L 233.480942 92.851161 
L 233.480942 65.492065 
L 229.070973 65.492065 
L 229.070973 61.791416 
L 239.689676 61.791416 
z
" style="fill:#ff0000;"/>
   </g>
   <g id="patch_54">
    <path clip-path="url(#p47d621d4dd)" d="M 236.198489 48.274349 
L 234.391988 33.700925 
L 232.471446 48.274349 
L 236.198489 48.274349 
z
M 233.549645 28.8 
L 235.371697 28.8 
L 239.689676 61.791416 
L 237.922052 61.791416 
L 236.716854 51.910519 
L 232.010102 51.910519 
L 230.721965 61.791416 
L 229.070973 61.791416 
L 233.549645 28.8 
z
M 234.384212 28.8 
L 234.384212 28.8 
z
" style="fill:#008000;"/>
   </g>
   <g id="patch_55">
    <path clip-path="url(#p47d621d4dd)" d="M 245.831718 122.976911 
Q 248.105664 122.976911 249.359985 124.75251 
Q 250.614306 126.524249 250.752516 128.778488 
L 249.172228 128.778488 
Q 248.903631 127.068509 248.100448 126.06877 
Q 247.297266 125.06517 245.847364 125.06517 
Q 244.079319 125.06517 242.991893 126.906389 
Q 241.904467 128.743748 241.904467 132.541986 
Q 241.904467 135.657004 242.884976 137.594722 
Q 243.868093 139.528581 245.816071 139.528581 
Q 247.607586 139.528581 248.546371 137.490503 
Q 249.041841 136.417423 249.286968 134.664984 
L 250.867257 134.664984 
Q 250.65603 137.463483 249.466902 139.358741 
Q 248.040471 141.64 245.620491 141.64 
Q 243.534302 141.64 242.115694 139.767901 
Q 240.248555 137.297503 240.248555 132.132826 
Q 240.248555 128.214928 241.651517 125.70593 
Q 243.166611 122.976911 245.831718 122.976911 
z
M 245.505751 122.976911 
L 245.505751 122.976911 
z
" style="fill:#0000ff;"/>
   </g>
   <g id="patch_56">
    <path clip-path="url(#p47d621d4dd)" d="M 245.72501 97.682495 
Q 247.363136 97.682495 248.558183 98.991459 
Q 250.289988 100.871131 250.677366 105.5834 
L 249.12026 105.5834 
Q 248.834158 102.949765 247.940404 101.745519 
Q 247.046651 100.541272 245.6845 100.541272 
Q 244.071692 100.541272 242.967793 103.049246 
Q 241.863894 105.551985 241.863894 110.51034 
Q 241.863894 114.79327 242.772838 117.484499 
Q 243.684315 120.175729 245.740201 120.175729 
Q 247.31503 120.175729 248.348037 118.290821 
Q 249.381043 116.400677 249.40383 112.175342 
L 245.76552 112.175342 
L 245.76552 109.478877 
L 250.867257 109.478877 
L 250.867257 122.338137 
L 249.854505 122.338137 
L 249.474723 119.243747 
Q 248.677181 121.060588 248.059402 121.767429 
Q 247.021332 122.976911 245.423716 122.976911 
Q 243.360234 122.976911 241.871489 120.21238 
Q 240.248555 116.741008 240.248555 110.688359 
Q 240.248555 104.651418 241.830979 101.085801 
Q 243.334916 97.682495 245.72501 97.682495 
z
M 245.464226 97.645844 
L 245.464226 97.645844 
z
" style="fill:#ffa600;"/>
   </g>
   <g id="patch_57">
    <path clip-path="url(#p47d621d4dd)" d="M 250.867257 67.520093 
L 250.867257 71.109461 
L 246.457288 71.109461 
L 246.457288 97.645844 
L 244.658523 97.645844 
L 244.658523 71.109461 
L 240.248555 71.109461 
L 240.248555 67.520093 
L 250.867257 67.520093 
z
" style="fill:#ff0000;"/>
   </g>
   <g id="patch_58">
    <path clip-path="url(#p47d621d4dd)" d="M 247.37607 51.655904 
L 245.569569 34.551928 
L 243.649027 51.655904 
L 247.37607 51.655904 
z
M 244.727226 28.8 
L 246.549278 28.8 
L 250.867257 67.520093 
L 249.099633 67.520093 
L 247.894435 55.923463 
L 243.187683 55.923463 
L 241.899546 67.520093 
L 240.248555 67.520093 
L 244.727226 28.8 
z
M 245.561793 28.8 
L 245.561793 28.8 
z
" style="fill:#008000;"/>
   </g>
   <g id="patch_59">
    <path clip-path="url(#p47d621d4dd)" d="M 262.044838 119.156024 
L 262.044838 121.834903 
L 257.634869 121.834903 
L 257.634869 141.64 
L 255.836104 141.64 
L 255.836104 121.834903 
L 251.426136 121.834903 
L 251.426136 119.156024 
L 262.044838 119.156024 
z
" style="fill:#ff0000;"/>
   </g>
   <g id="patch_60">
    <path clip-path="url(#p47d621d4dd)" d="M 257.009299 90.961945 
Q 259.283245 90.961945 260.537566 93.644318 
Q 261.791887 96.320861 261.930097 99.726309 
L 260.349809 99.726309 
Q 260.081212 97.143066 259.27803 95.632773 
Q 258.474847 94.116649 257.024945 94.116649 
Q 255.2569 94.116649 254.169474 96.898154 
Q 253.082048 99.673828 253.082048 105.411775 
Q 253.082048 110.117591 254.062557 113.044877 
Q 255.045674 115.966332 256.993653 115.966332 
Q 258.785167 115.966332 259.723952 112.887434 
Q 260.219422 111.266347 260.46455 108.618961 
L 262.044838 108.618961 
Q 261.833611 112.846615 260.644483 115.709757 
Q 259.218052 119.156024 256.798072 119.156024 
Q 254.711883 119.156024 253.293275 116.327869 
Q 251.426136 112.595871 251.426136 104.793663 
Q 251.426136 98.874947 252.829098 95.084636 
Q 254.344193 90.961945 257.009299 90.961945 
z
M 256.683332 90.961945 
L 256.683332 90.961945 
z
" style="fill:#0000ff;"/>
   </g>
   <g id="patch_61">
    <path clip-path="url(#p47d621d4dd)" d="M 256.902591 62.787462 
Q 258.540717 62.787462 259.735764 64.245467 
Q 261.467569 66.339161 261.854947 71.587978 
L 260.297841 71.587978 
Q 260.011739 68.654473 259.117985 67.313108 
Q 258.224232 65.971744 256.862081 65.971744 
Q 255.249274 65.971744 254.145374 68.765281 
Q 253.041475 71.552986 253.041475 77.075908 
Q 253.041475 81.846499 253.950419 84.844157 
Q 254.861896 87.841814 256.917782 87.841814 
Q 258.492611 87.841814 259.525618 85.742288 
Q 260.558625 83.636929 260.581411 78.93049 
L 256.943101 78.93049 
L 256.943101 75.927 
L 262.044838 75.927 
L 262.044838 90.250438 
L 261.032086 90.250438 
L 260.652304 86.803715 
Q 259.854762 88.827426 259.236984 89.614748 
Q 258.198913 90.961945 256.601297 90.961945 
Q 254.537815 90.961945 253.04907 87.882639 
Q 251.426136 84.01601 251.426136 77.274196 
Q 251.426136 70.549879 253.00856 66.578274 
Q 254.512497 62.787462 256.902591 62.787462 
z
M 256.641807 62.746638 
L 256.641807 62.746638 
z
" style="fill:#ffa600;"/>
   </g>
   <g id="patch_62">
    <path clip-path="url(#p47d621d4dd)" d="M 258.553651 48.838203 
L 256.74715 33.842824 
L 254.826609 48.838203 
L 258.553651 48.838203 
z
M 255.904807 28.8 
L 257.726859 28.8 
L 262.044838 62.746638 
L 260.277214 62.746638 
L 259.072016 52.579653 
L 254.365264 52.579653 
L 253.077127 62.746638 
L 251.426136 62.746638 
L 255.904807 28.8 
z
M 256.739374 28.8 
L 256.739374 28.8 
z
" style="fill:#008000;"/>
   </g>
   <g id="patch_63">
    <path clip-path="url(#p47d621d4dd)" d="M 268.080172 119.188556 
Q 269.718298 119.188556 270.913345 120.350398 
Q 272.64515 122.018804 273.032528 126.201437 
L 271.475422 126.201437 
Q 271.18932 123.86381 270.295566 122.794915 
Q 269.401813 121.72602 268.039662 121.72602 
Q 266.426855 121.72602 265.322955 123.95211 
Q 264.219056 126.173553 264.219056 130.574612 
Q 264.219056 134.376161 265.128001 136.764909 
Q 266.039477 139.153657 268.095363 139.153657 
Q 269.670192 139.153657 270.703199 137.480604 
Q 271.736206 135.802903 271.758993 132.052476 
L 268.120682 132.052476 
L 268.120682 129.65908 
L 273.222419 129.65908 
L 273.222419 141.073021 
L 272.209667 141.073021 
L 271.829885 138.326425 
Q 271.032343 139.939063 270.414565 140.566458 
Q 269.376494 141.64 267.778878 141.64 
Q 265.715397 141.64 264.226651 139.186189 
Q 262.603717 136.104982 262.603717 130.732623 
Q 262.603717 125.374205 264.186141 122.209346 
Q 265.690078 119.188556 268.080172 119.188556 
z
M 267.819388 119.156024 
L 267.819388 119.156024 
z
" style="fill:#ffa600;"/>
   </g>
   <g id="patch_64">
    <path clip-path="url(#p47d621d4dd)" d="M 273.222419 96.672048 
L 273.222419 99.350928 
L 268.812451 99.350928 
L 268.812451 119.156024 
L 267.013685 119.156024 
L 267.013685 99.350928 
L 262.603717 99.350928 
L 262.603717 96.672048 
L 273.222419 96.672048 
z
" style="fill:#ff0000;"/>
   </g>
   <g id="patch_65">
    <path clip-path="url(#p47d621d4dd)" d="M 268.18688 71.343634 
Q 270.460826 71.343634 271.715147 73.753369 
Q 272.969468 76.157866 273.107678 79.217183 
L 271.52739 79.217183 
Q 271.258793 76.896503 270.455611 75.539717 
Q 269.652428 74.177692 268.202527 74.177692 
Q 266.434481 74.177692 265.347055 76.676483 
Q 264.259629 79.170036 264.259629 84.324774 
Q 264.259629 88.552288 265.240138 91.182042 
Q 266.223255 93.806559 268.171234 93.806559 
Q 269.962749 93.806559 270.901534 91.040601 
Q 271.397003 89.584283 271.642131 87.205979 
L 273.222419 87.205979 
Q 273.011192 91.003932 271.822065 93.576062 
Q 270.395633 96.672048 267.975654 96.672048 
Q 265.889465 96.672048 264.470856 94.131349 
Q 262.603717 90.778674 262.603717 83.769487 
Q 262.603717 78.452353 264.006679 75.047293 
Q 265.521774 71.343634 268.18688 71.343634 
z
M 267.860913 71.343634 
L 267.860913 71.343634 
z
" style="fill:#0000ff;"/>
   </g>
   <g id="patch_66">
    <path clip-path="url(#p47d621d4dd)" d="M 269.731232 53.912884 
L 267.924731 35.119921 
L 266.00419 53.912884 
L 269.731232 53.912884 
z
M 267.082388 28.8 
L 268.90444 28.8 
L 273.222419 71.343634 
L 271.454795 71.343634 
L 270.249597 58.601857 
L 265.542845 58.601857 
L 264.254709 71.343634 
L 262.603717 71.343634 
L 267.082388 28.8 
z
M 267.916956 28.8 
L 267.916956 28.8 
z
" style="fill:#008000;"/>
   </g>
   <g id="patch_67">
    <path clip-path="url(#p47d621d4dd)" d="M 279.257753 118.234716 
Q 280.895879 118.234716 282.090926 119.445919 
Q 283.822732 121.185206 284.210109 125.545536 
L 282.653003 125.545536 
Q 282.366901 123.108596 281.473147 121.99429 
Q 280.579394 120.879983 279.217243 120.879983 
Q 277.604436 120.879983 276.500536 123.200648 
Q 275.396637 125.516468 275.396637 130.104504 
Q 275.396637 134.06756 276.305582 136.557793 
Q 277.217058 139.048026 279.272944 139.048026 
Q 280.847773 139.048026 281.88078 137.303894 
Q 282.913787 135.554917 282.936574 131.645154 
L 279.298263 131.645154 
L 279.298263 129.150076 
L 284.4 129.150076 
L 284.4 141.048933 
L 283.387248 141.048933 
L 283.007466 138.185649 
Q 282.209924 139.866799 281.592146 140.520849 
Q 280.554075 141.64 278.956459 141.64 
Q 276.892978 141.64 275.404233 139.08194 
Q 273.781298 135.86983 273.781298 130.269228 
Q 273.781298 124.68316 275.363723 121.383843 
Q 276.867659 118.234716 279.257753 118.234716 
z
M 278.996969 118.200802 
L 278.996969 118.200802 
z
" style="fill:#ffa600;"/>
   </g>
   <g id="patch_68">
    <path clip-path="url(#p47d621d4dd)" d="M 284.4 89.985496 
L 284.4 93.347241 
L 279.990032 93.347241 
L 279.990032 118.200802 
L 278.191266 118.200802 
L 278.191266 93.347241 
L 273.781298 93.347241 
L 273.781298 89.985496 
L 284.4 89.985496 
z
" style="fill:#ff0000;"/>
   </g>
   <g id="patch_69">
    <path clip-path="url(#p47d621d4dd)" d="M 280.908813 78.033902 
L 279.102312 65.148293 
L 277.181771 78.033902 
L 280.908813 78.033902 
z
M 278.259969 60.814967 
L 280.082022 60.814967 
L 284.4 89.985496 
L 282.632376 89.985496 
L 281.427178 81.248951 
L 276.720426 81.248951 
L 275.43229 89.985496 
L 273.781298 89.985496 
L 278.259969 60.814967 
z
M 279.094537 60.814967 
L 279.094537 60.814967 
z
" style="fill:#008000;"/>
   </g>
   <g id="patch_70">
    <path clip-path="url(#p47d621d4dd)" d="M 279.364461 28.8 
Q 281.638407 28.8 282.892728 31.845891 
Q 284.14705 34.885161 284.28526 38.752119 
L 282.704971 38.752119 
Q 282.436375 35.818793 281.633192 34.103824 
Q 280.830009 32.382233 279.380108 32.382233 
Q 277.612063 32.382233 276.524636 35.54069 
Q 275.43721 38.692525 275.43721 45.208084 
Q 275.43721 50.551637 276.417719 53.875632 
Q 277.400836 57.193005 279.348815 57.193005 
Q 281.14033 57.193005 282.079115 53.696851 
Q 282.574585 51.856073 282.819712 48.849911 
L 284.4 48.849911 
Q 284.188773 53.650501 282.999646 56.901659 
Q 281.573214 60.814967 279.153235 60.814967 
Q 277.067046 60.814967 275.648437 57.603538 
Q 273.781298 53.365776 273.781298 44.506205 
Q 273.781298 37.78538 275.18426 33.481403 
Q 276.699355 28.8 279.364461 28.8 
z
M 279.038494 28.8 
L 279.038494 28.8 
z
" style="fill:#0000ff;"/>
   </g>
   <g id="matplotlib.axis_1">
    <g id="xtick_1">
     <g id="text_1">
      <!-- 0 -->
      <g style="fill:#262626;" transform="translate(94.688414 162.986875)scale(0.2 -0.2)">
       <defs>
        <path d="M 1731 4475 
Q 2600 4475 2988 3759 
Q 3288 3206 3288 2244 
Q 3288 1331 3016 734 
Q 2622 -122 1728 -122 
Q 922 -122 528 578 
Q 200 1163 200 2147 
Q 200 2909 397 3456 
Q 766 4475 1731 4475 
z
M 1725 391 
Q 2163 391 2422 778 
Q 2681 1166 2681 2222 
Q 2681 2984 2493 3476 
Q 2306 3969 1766 3969 
Q 1269 3969 1039 3501 
Q 809 3034 809 2125 
Q 809 1441 956 1025 
Q 1181 391 1725 391 
z
" id="Helvetica-30" transform="scale(0.015625)"/>
       </defs>
       <use xlink:href="#Helvetica-30"/>
      </g>
     </g>
    </g>
    <g id="xtick_2">
     <g id="text_2">
      <!-- 10 -->
      <g style="fill:#262626;" transform="translate(200.903287 162.986875)scale(0.2 -0.2)">
       <defs>
        <path d="M 613 3169 
L 613 3600 
Q 1222 3659 1462 3798 
Q 1703 3938 1822 4456 
L 2266 4456 
L 2266 0 
L 1666 0 
L 1666 3169 
L 613 3169 
z
" id="Helvetica-31" transform="scale(0.015625)"/>
       </defs>
       <use xlink:href="#Helvetica-31"/>
       <use x="55.615234" xlink:href="#Helvetica-30"/>
      </g>
     </g>
    </g>
    <g id="text_3">
     <!-- Position -->
     <g style="fill:#262626;" transform="translate(145.20125 189.089219)scale(0.25 -0.25)">
      <defs>
       <path d="M 547 4591 
L 2613 4591 
Q 3225 4591 3600 4245 
Q 3975 3900 3975 3275 
Q 3975 2738 3640 2339 
Q 3306 1941 2613 1941 
L 1169 1941 
L 1169 0 
L 547 0 
L 547 4591 
z
M 3347 3272 
Q 3347 3778 2972 3959 
Q 2766 4056 2406 4056 
L 1169 4056 
L 1169 2466 
L 2406 2466 
Q 2825 2466 3086 2644 
Q 3347 2822 3347 3272 
z
" id="Helvetica-50" transform="scale(0.015625)"/>
       <path d="M 1741 363 
Q 2300 363 2508 786 
Q 2716 1209 2716 1728 
Q 2716 2197 2566 2491 
Q 2328 2953 1747 2953 
Q 1231 2953 997 2559 
Q 763 2166 763 1609 
Q 763 1075 997 719 
Q 1231 363 1741 363 
z
M 1763 3444 
Q 2409 3444 2856 3012 
Q 3303 2581 3303 1744 
Q 3303 934 2909 406 
Q 2516 -122 1688 -122 
Q 997 -122 590 345 
Q 184 813 184 1600 
Q 184 2444 612 2944 
Q 1041 3444 1763 3444 
z
M 1744 3428 
L 1744 3428 
z
" id="Helvetica-6f" transform="scale(0.015625)"/>
       <path d="M 747 1050 
Q 772 769 888 619 
Q 1100 347 1625 347 
Q 1938 347 2175 483 
Q 2413 619 2413 903 
Q 2413 1119 2222 1231 
Q 2100 1300 1741 1391 
L 1294 1503 
Q 866 1609 663 1741 
Q 300 1969 300 2372 
Q 300 2847 642 3140 
Q 984 3434 1563 3434 
Q 2319 3434 2653 2991 
Q 2863 2709 2856 2384 
L 2325 2384 
Q 2309 2575 2191 2731 
Q 1997 2953 1519 2953 
Q 1200 2953 1036 2831 
Q 872 2709 872 2509 
Q 872 2291 1088 2159 
Q 1213 2081 1456 2022 
L 1828 1931 
Q 2434 1784 2641 1647 
Q 2969 1431 2969 969 
Q 2969 522 2630 197 
Q 2291 -128 1597 -128 
Q 850 -128 539 211 
Q 228 550 206 1050 
L 747 1050 
z
M 1578 3428 
L 1578 3428 
z
" id="Helvetica-73" transform="scale(0.015625)"/>
       <path d="M 413 3331 
L 984 3331 
L 984 0 
L 413 0 
L 413 3331 
z
M 413 4591 
L 984 4591 
L 984 3953 
L 413 3953 
L 413 4591 
z
" id="Helvetica-69" transform="scale(0.015625)"/>
       <path d="M 525 4281 
L 1094 4281 
L 1094 3347 
L 1628 3347 
L 1628 2888 
L 1094 2888 
L 1094 703 
Q 1094 528 1213 469 
Q 1278 434 1431 434 
Q 1472 434 1519 436 
Q 1566 438 1628 444 
L 1628 0 
Q 1531 -28 1426 -40 
Q 1322 -53 1200 -53 
Q 806 -53 665 148 
Q 525 350 525 672 
L 525 2888 
L 72 2888 
L 72 3347 
L 525 3347 
L 525 4281 
z
" id="Helvetica-74" transform="scale(0.015625)"/>
       <path d="M 413 3347 
L 947 3347 
L 947 2872 
Q 1184 3166 1450 3294 
Q 1716 3422 2041 3422 
Q 2753 3422 3003 2925 
Q 3141 2653 3141 2147 
L 3141 0 
L 2569 0 
L 2569 2109 
Q 2569 2416 2478 2603 
Q 2328 2916 1934 2916 
Q 1734 2916 1606 2875 
Q 1375 2806 1200 2600 
Q 1059 2434 1017 2257 
Q 975 2081 975 1753 
L 975 0 
L 413 0 
L 413 3347 
z
M 1734 3428 
L 1734 3428 
z
" id="Helvetica-6e" transform="scale(0.015625)"/>
      </defs>
      <use xlink:href="#Helvetica-50"/>
      <use x="66.699219" xlink:href="#Helvetica-6f"/>
      <use x="122.314453" xlink:href="#Helvetica-73"/>
      <use x="172.314453" xlink:href="#Helvetica-69"/>
      <use x="194.53125" xlink:href="#Helvetica-74"/>
      <use x="222.314453" xlink:href="#Helvetica-69"/>
      <use x="244.53125" xlink:href="#Helvetica-6f"/>
      <use x="300.146484" xlink:href="#Helvetica-6e"/>
     </g>
    </g>
   </g>
   <g id="matplotlib.axis_2">
    <g id="ytick_1">
     <g id="text_4">
      <!-- 0 -->
      <g style="fill:#262626;" transform="translate(76.818125 148.813438)scale(0.2 -0.2)">
       <use xlink:href="#Helvetica-30"/>
      </g>
     </g>
    </g>
    <g id="ytick_2">
     <g id="text_5">
      <!-- 0.25 -->
      <g style="fill:#262626;" transform="translate(49.018125 120.603438)scale(0.2 -0.2)">
       <defs>
        <path d="M 547 681 
L 1200 681 
L 1200 0 
L 547 0 
L 547 681 
z
" id="Helvetica-2e" transform="scale(0.015625)"/>
        <path d="M 200 0 
Q 231 578 439 1006 
Q 647 1434 1250 1784 
L 1850 2131 
Q 2253 2366 2416 2531 
Q 2672 2791 2672 3125 
Q 2672 3516 2437 3745 
Q 2203 3975 1813 3975 
Q 1234 3975 1013 3538 
Q 894 3303 881 2888 
L 309 2888 
Q 319 3472 525 3841 
Q 891 4491 1816 4491 
Q 2584 4491 2939 4075 
Q 3294 3659 3294 3150 
Q 3294 2613 2916 2231 
Q 2697 2009 2131 1694 
L 1703 1456 
Q 1397 1288 1222 1134 
Q 909 863 828 531 
L 3272 531 
L 3272 0 
L 200 0 
z
" id="Helvetica-32" transform="scale(0.015625)"/>
        <path d="M 791 1141 
Q 847 659 1238 475 
Q 1438 381 1700 381 
Q 2200 381 2440 700 
Q 2681 1019 2681 1406 
Q 2681 1875 2395 2131 
Q 2109 2388 1709 2388 
Q 1419 2388 1211 2275 
Q 1003 2163 856 1963 
L 369 1991 
L 709 4400 
L 3034 4400 
L 3034 3856 
L 1131 3856 
L 941 2613 
Q 1097 2731 1238 2791 
Q 1488 2894 1816 2894 
Q 2431 2894 2859 2497 
Q 3288 2100 3288 1491 
Q 3288 856 2895 371 
Q 2503 -113 1644 -113 
Q 1097 -113 676 195 
Q 256 503 206 1141 
L 791 1141 
z
" id="Helvetica-35" transform="scale(0.015625)"/>
       </defs>
       <use xlink:href="#Helvetica-30"/>
       <use x="55.615234" xlink:href="#Helvetica-2e"/>
       <use x="83.398438" xlink:href="#Helvetica-32"/>
       <use x="139.013672" xlink:href="#Helvetica-35"/>
      </g>
     </g>
    </g>
    <g id="ytick_3">
     <g id="text_6">
      <!-- 0.50 -->
      <g style="fill:#262626;" transform="translate(49.018125 92.393438)scale(0.2 -0.2)">
       <use xlink:href="#Helvetica-30"/>
       <use x="55.615234" xlink:href="#Helvetica-2e"/>
       <use x="83.398438" xlink:href="#Helvetica-35"/>
       <use x="139.013672" xlink:href="#Helvetica-30"/>
      </g>
     </g>
    </g>
    <g id="ytick_4">
     <g id="text_7">
      <!-- 0.75 -->
      <g style="fill:#262626;" transform="translate(49.018125 64.183437)scale(0.2 -0.2)">
       <defs>
        <path d="M 3347 4400 
L 3347 3909 
Q 3131 3700 2773 3181 
Q 2416 2663 2141 2063 
Q 1869 1478 1728 997 
Q 1638 688 1494 0 
L 872 0 
Q 1084 1281 1809 2550 
Q 2238 3294 2709 3834 
L 234 3834 
L 234 4400 
L 3347 4400 
z
" id="Helvetica-37" transform="scale(0.015625)"/>
       </defs>
       <use xlink:href="#Helvetica-30"/>
       <use x="55.615234" xlink:href="#Helvetica-2e"/>
       <use x="83.398438" xlink:href="#Helvetica-37"/>
       <use x="139.013672" xlink:href="#Helvetica-35"/>
      </g>
     </g>
    </g>
    <g id="ytick_5">
     <g id="text_8">
      <!-- 1.0 -->
      <g style="fill:#262626;" transform="translate(60.14 35.973438)scale(0.2 -0.2)">
       <use xlink:href="#Helvetica-31"/>
       <use x="55.615234" xlink:href="#Helvetica-2e"/>
       <use x="83.398438" xlink:href="#Helvetica-30"/>
      </g>
     </g>
    </g>
    <g id="text_9">
     <!-- Probability -->
     <g style="fill:#262626;" transform="translate(39.65875 143.579375)rotate(-90)scale(0.25 -0.25)">
      <defs>
       <path d="M 428 3347 
L 963 3347 
L 963 2769 
Q 1028 2938 1284 3180 
Q 1541 3422 1875 3422 
Q 1891 3422 1928 3419 
Q 1966 3416 2056 3406 
L 2056 2813 
Q 2006 2822 1964 2825 
Q 1922 2828 1872 2828 
Q 1447 2828 1219 2554 
Q 991 2281 991 1925 
L 991 0 
L 428 0 
L 428 3347 
z
" id="Helvetica-72" transform="scale(0.015625)"/>
       <path d="M 369 4606 
L 916 4606 
L 916 2941 
Q 1100 3181 1356 3307 
Q 1613 3434 1913 3434 
Q 2538 3434 2927 3004 
Q 3316 2575 3316 1738 
Q 3316 944 2931 419 
Q 2547 -106 1866 -106 
Q 1484 -106 1222 78 
Q 1066 188 888 428 
L 888 0 
L 369 0 
L 369 4606 
z
M 1831 391 
Q 2288 391 2514 753 
Q 2741 1116 2741 1709 
Q 2741 2238 2514 2584 
Q 2288 2931 1847 2931 
Q 1463 2931 1173 2647 
Q 884 2363 884 1709 
Q 884 1238 1003 944 
Q 1225 391 1831 391 
z
" id="Helvetica-62" transform="scale(0.015625)"/>
       <path d="M 844 891 
Q 844 647 1022 506 
Q 1200 366 1444 366 
Q 1741 366 2019 503 
Q 2488 731 2488 1250 
L 2488 1703 
Q 2384 1638 2221 1594 
Q 2059 1550 1903 1531 
L 1563 1488 
Q 1256 1447 1103 1359 
Q 844 1213 844 891 
z
M 2206 2028 
Q 2400 2053 2466 2191 
Q 2503 2266 2503 2406 
Q 2503 2694 2298 2823 
Q 2094 2953 1713 2953 
Q 1272 2953 1088 2716 
Q 984 2584 953 2325 
L 428 2325 
Q 444 2944 830 3186 
Q 1216 3428 1725 3428 
Q 2316 3428 2684 3203 
Q 3050 2978 3050 2503 
L 3050 575 
Q 3050 488 3086 434 
Q 3122 381 3238 381 
Q 3275 381 3322 386 
Q 3369 391 3422 400 
L 3422 -16 
Q 3291 -53 3222 -62 
Q 3153 -72 3034 -72 
Q 2744 -72 2613 134 
Q 2544 244 2516 444 
Q 2344 219 2022 53 
Q 1700 -113 1313 -113 
Q 847 -113 551 170 
Q 256 453 256 878 
Q 256 1344 547 1600 
Q 838 1856 1309 1916 
L 2206 2028 
z
M 1741 3428 
L 1741 3428 
z
" id="Helvetica-61" transform="scale(0.015625)"/>
       <path d="M 428 4591 
L 991 4591 
L 991 0 
L 428 0 
L 428 4591 
z
" id="Helvetica-6c" transform="scale(0.015625)"/>
       <path d="M 2503 3347 
L 3125 3347 
Q 3006 3025 2597 1878 
Q 2291 1016 2084 472 
Q 1597 -809 1397 -1090 
Q 1197 -1372 709 -1372 
Q 591 -1372 527 -1362 
Q 463 -1353 369 -1328 
L 369 -816 
Q 516 -856 581 -865 
Q 647 -875 697 -875 
Q 853 -875 926 -823 
Q 1000 -772 1050 -697 
Q 1066 -672 1162 -440 
Q 1259 -209 1303 -97 
L 66 3347 
L 703 3347 
L 1600 622 
L 2503 3347 
z
M 1597 3428 
L 1597 3428 
z
" id="Helvetica-79" transform="scale(0.015625)"/>
      </defs>
      <use xlink:href="#Helvetica-50"/>
      <use x="66.699219" xlink:href="#Helvetica-72"/>
      <use x="100" xlink:href="#Helvetica-6f"/>
      <use x="155.615234" xlink:href="#Helvetica-62"/>
      <use x="211.230469" xlink:href="#Helvetica-61"/>
      <use x="266.845703" xlink:href="#Helvetica-62"/>
      <use x="322.460938" xlink:href="#Helvetica-69"/>
      <use x="344.677734" xlink:href="#Helvetica-6c"/>
      <use x="366.894531" xlink:href="#Helvetica-69"/>
      <use x="389.111328" xlink:href="#Helvetica-74"/>
      <use x="416.894531" xlink:href="#Helvetica-79"/>
     </g>
    </g>
   </g>
   <g id="patch_71">
    <path d="M 94.94 141.64 
L 94.94 28.8 
" style="fill:none;stroke:#000000;stroke-linecap:square;stroke-linejoin:miter;"/>
   </g>
  </g>
 </g>
 <defs>
  <clipPath id="p47d621d4dd">
   <rect height="112.84" width="189.46" x="94.94" y="28.8"/>
  </clipPath>
 </defs>
</svg>
