<?xml version="1.0" encoding="utf-8" standalone="no"?>
<!DOCTYPE svg PUBLIC "-//W3C//DTD SVG 1.1//EN"
  "http://www.w3.org/Graphics/SVG/1.1/DTD/svg11.dtd">
<svg height="216pt" version="1.1" viewBox="0 0 306 216" width="306pt" xmlns="http://www.w3.org/2000/svg" xmlns:xlink="http://www.w3.org/1999/xlink">
 <metadata>
  <rdf:RDF xmlns:cc="http://creativecommons.org/ns#" xmlns:dc="http://purl.org/dc/elements/1.1/" xmlns:rdf="http://www.w3.org/1999/02/22-rdf-syntax-ns#">
   <cc:Work>
    <dc:type rdf:resource="http://purl.org/dc/dcmitype/StillImage"/>
    <dc:date>2023-01-28T06:15:39.332605</dc:date>
    <dc:format>image/svg+xml</dc:format>
    <dc:creator>
     <cc:Agent>
      <dc:title>Matplotlib v3.4.2, https://matplotlib.org/</dc:title>
     </cc:Agent>
    </dc:creator>
   </cc:Work>
  </rdf:RDF>
 </metadata>
 <defs>
  <style type="text/css">*{stroke-linecap:butt;stroke-linejoin:round;}</style>
 </defs>
 <g id="figure_1">
  <g id="patch_1">
   <path d="M 0 216 
L 306 216 
L 306 0 
L 0 0 
z
" style="fill:#ffffff;"/>
  </g>
  <g id="axes_1">
   <g id="patch_2">
    <path d="M 94.94 141.64 
L 284.4 141.64 
L 284.4 28.8 
L 94.94 28.8 
z
" style="fill:#ffffff;"/>
   </g>
   <g id="line2d_1">
    <path clip-path="url(#p1303c6ab5d)" d="M 94.94 141.64 
L 284.4 141.64 
" style="fill:none;stroke:#000000;stroke-linecap:round;stroke-width:0.5;"/>
   </g>
   <g id="patch_3">
    <path clip-path="url(#p1303c6ab5d)" d="M 105.558702 127.818808 
L 105.558702 129.46555 
L 101.148734 129.46555 
L 101.148734 141.64 
L 99.349968 141.64 
L 99.349968 129.46555 
L 94.94 129.46555 
L 94.94 127.818808 
L 105.558702 127.818808 
z
" style="fill:#ff0000;"/>
   </g>
   <g id="patch_4">
    <path clip-path="url(#p1303c6ab5d)" d="M 100.416455 108.998998 
Q 102.054581 108.998998 103.249628 109.972907 
Q 104.981434 111.37144 105.368811 114.877511 
L 103.811705 114.877511 
Q 103.525603 112.918007 102.63185 112.022011 
Q 101.738096 111.126015 100.375945 111.126015 
Q 98.763138 111.126015 97.659238 112.992024 
Q 96.555339 114.854137 96.555339 118.543303 
Q 96.555339 121.729932 97.464284 123.732288 
Q 98.37576 125.734644 100.431646 125.734644 
Q 102.006475 125.734644 103.039482 124.332216 
Q 104.072489 122.925891 104.095276 119.782114 
L 100.456965 119.782114 
L 100.456965 117.775863 
L 105.558702 117.775863 
L 105.558702 127.343541 
L 104.54595 127.343541 
L 104.166168 125.041221 
Q 103.368626 126.393006 102.750848 126.918917 
Q 101.712777 127.818808 100.115161 127.818808 
Q 98.05168 127.818808 96.562935 125.761913 
Q 94.94 123.179108 94.94 118.675754 
Q 94.94 114.184088 96.522425 111.531161 
Q 98.026361 108.998998 100.416455 108.998998 
z
M 100.155671 108.971729 
L 100.155671 108.971729 
z
" style="fill:#ffa600;"/>
   </g>
   <g id="patch_5">
    <path clip-path="url(#p1303c6ab5d)" d="M 100.523163 77.89058 
Q 102.797109 77.89058 104.051431 80.847628 
Q 105.305752 83.798248 105.443962 87.552414 
L 103.863673 87.552414 
Q 103.595077 84.704648 102.791894 83.039701 
Q 101.988711 81.368326 100.53881 81.368326 
Q 98.770765 81.368326 97.683339 84.434657 
Q 96.595913 87.494559 96.595913 93.820071 
Q 96.595913 99.007762 97.576421 102.234801 
Q 98.559538 105.455413 100.507517 105.455413 
Q 102.299032 105.455413 103.237817 102.061236 
Q 103.733287 100.27415 103.978414 97.355672 
L 105.558702 97.355672 
Q 105.347475 102.016237 104.158348 105.172565 
Q 102.731916 108.971729 100.311937 108.971729 
Q 98.225748 108.971729 96.807139 105.853971 
Q 94.94 101.739817 94.94 93.138664 
Q 94.94 86.613873 96.342962 82.435435 
Q 97.858057 77.89058 100.523163 77.89058 
z
M 100.197196 77.89058 
L 100.197196 77.89058 
z
" style="fill:#0000ff;"/>
   </g>
   <g id="patch_6">
    <path clip-path="url(#p1303c6ab5d)" d="M 102.067515 57.77745 
L 100.261014 36.09248 
L 98.340473 57.77745 
L 102.067515 57.77745 
z
M 99.418672 28.8 
L 101.240724 28.8 
L 105.558702 77.89058 
L 103.791078 77.89058 
L 102.58588 63.188 
L 97.879128 63.188 
L 96.590992 77.89058 
L 94.94 77.89058 
L 99.418672 28.8 
z
M 100.253239 28.8 
L 100.253239 28.8 
z
" style="fill:#008000;"/>
   </g>
   <g id="patch_7">
    <path clip-path="url(#p1303c6ab5d)" d="M 111.700744 123.586482 
Q 113.97469 123.586482 115.229012 125.304086 
Q 116.483333 127.017957 116.621543 129.198568 
L 115.041255 129.198568 
Q 114.772658 127.54444 113.969475 126.577354 
Q 113.166292 125.606534 111.716391 125.606534 
Q 109.948346 125.606534 108.86092 127.387615 
Q 107.773494 129.164963 107.773494 132.839143 
Q 107.773494 135.852419 108.754002 137.726849 
Q 109.737119 139.597544 111.685098 139.597544 
Q 113.476613 139.597544 114.415398 137.626033 
Q 114.910868 136.588002 115.155995 134.892801 
L 116.736283 134.892801 
Q 116.525057 137.599895 115.335929 139.433251 
Q 113.909497 141.64 111.489518 141.64 
Q 109.403329 141.64 107.98472 139.829047 
Q 106.117581 137.439336 106.117581 132.443347 
Q 106.117581 128.653415 107.520543 126.226365 
Q 109.035638 123.586482 111.700744 123.586482 
z
M 111.374777 123.586482 
L 111.374777 123.586482 
z
" style="fill:#0000ff;"/>
   </g>
   <g id="patch_8">
    <path clip-path="url(#p1303c6ab5d)" d="M 111.594036 103.666098 
Q 113.232162 103.666098 114.427209 104.69696 
Q 116.159015 106.177279 116.546392 109.888383 
L 114.989286 109.888383 
Q 114.703184 107.814288 113.809431 106.865895 
Q 112.915677 105.917501 111.553526 105.917501 
Q 109.940719 105.917501 108.83682 107.892634 
Q 107.73292 109.863642 107.73292 113.768549 
Q 107.73292 117.14153 108.641865 119.260983 
Q 109.553341 121.380436 111.609227 121.380436 
Q 113.184056 121.380436 114.217063 119.895995 
Q 115.25007 118.407429 115.272857 115.079806 
L 111.634546 115.079806 
L 111.634546 112.956229 
L 116.736283 112.956229 
L 116.736283 123.083421 
L 115.723531 123.083421 
L 115.34375 120.646462 
Q 114.546208 122.077299 113.928429 122.633965 
Q 112.890358 123.586482 111.292743 123.586482 
Q 109.229261 123.586482 107.740516 121.4093 
Q 106.117581 118.675454 106.117581 113.908746 
Q 106.117581 109.154409 107.700006 106.34634 
Q 109.203942 103.666098 111.594036 103.666098 
z
M 111.333253 103.637234 
L 111.333253 103.637234 
z
" style="fill:#ffa600;"/>
   </g>
   <g id="patch_9">
    <path clip-path="url(#p1303c6ab5d)" d="M 116.736283 71.233483 
L 116.736283 75.094265 
L 112.326315 75.094265 
L 112.326315 103.637234 
L 110.527549 103.637234 
L 110.527549 75.094265 
L 106.117581 75.094265 
L 106.117581 71.233483 
L 116.736283 71.233483 
z
" style="fill:#ff0000;"/>
   </g>
   <g id="patch_10">
    <path clip-path="url(#p1303c6ab5d)" d="M 113.245097 53.847863 
L 111.438595 35.103558 
L 109.518054 53.847863 
L 113.245097 53.847863 
z
M 110.596253 28.8 
L 112.418305 28.8 
L 116.736283 71.233483 
L 114.968659 71.233483 
L 113.763461 58.524697 
L 109.056709 58.524697 
L 107.768573 71.233483 
L 106.117581 71.233483 
L 110.596253 28.8 
z
M 111.43082 28.8 
L 111.43082 28.8 
z
" style="fill:#008000;"/>
   </g>
   <g id="patch_11">
    <path clip-path="url(#p1303c6ab5d)" d="M 127.913864 118.736941 
L 127.913864 121.465752 
L 123.503896 121.465752 
L 123.503896 141.64 
L 121.705131 141.64 
L 121.705131 121.465752 
L 117.295162 121.465752 
L 117.295162 118.736941 
L 127.913864 118.736941 
z
" style="fill:#ff0000;"/>
   </g>
   <g id="patch_12">
    <path clip-path="url(#p1303c6ab5d)" d="M 122.878326 94.290846 
Q 125.152272 94.290846 126.406593 96.616638 
Q 127.660914 98.937374 127.799124 101.890118 
L 126.218836 101.890118 
Q 125.950239 99.650279 125.147056 98.340757 
Q 124.343873 97.026179 122.893972 97.026179 
Q 121.125927 97.026179 120.038501 99.437924 
Q 118.951075 101.844613 118.951075 106.819786 
Q 118.951075 110.900033 119.931584 113.43818 
Q 120.9147 115.971271 122.862679 115.971271 
Q 124.654194 115.971271 125.592979 113.301666 
Q 126.088449 111.896079 126.333576 109.600624 
L 127.913864 109.600624 
Q 127.702638 113.266274 126.51351 115.748804 
Q 125.087078 118.736941 122.667099 118.736941 
Q 120.58091 118.736941 119.162301 116.284747 
Q 117.295162 113.048863 117.295162 106.283842 
Q 117.295162 101.151932 118.698124 97.865487 
Q 120.213219 94.290846 122.878326 94.290846 
z
M 122.552359 94.290846 
L 122.552359 94.290846 
z
" style="fill:#0000ff;"/>
   </g>
   <g id="patch_13">
    <path clip-path="url(#p1303c6ab5d)" d="M 122.771617 66.446332 
Q 124.409743 66.446332 125.60479 67.887261 
Q 127.336596 69.956435 127.723973 75.14378 
L 126.166868 75.14378 
Q 125.880765 72.24463 124.987012 70.918976 
Q 124.093258 69.593321 122.731107 69.593321 
Q 121.1183 69.593321 120.014401 72.354141 
Q 118.910501 75.109197 118.910501 80.567437 
Q 118.910501 85.282157 119.819446 88.244707 
Q 120.730923 91.207258 122.786809 91.207258 
Q 124.361638 91.207258 125.394644 89.13232 
Q 126.427651 87.051618 126.450438 82.400299 
L 122.812127 82.400299 
L 122.812127 79.431985 
L 127.913864 79.431985 
L 127.913864 93.587672 
L 126.901113 93.587672 
L 126.521331 90.181316 
Q 125.723789 92.181326 125.10601 92.959427 
Q 124.06794 94.290846 122.470324 94.290846 
Q 120.406842 94.290846 118.918097 91.247604 
Q 117.295162 87.42626 117.295162 80.763403 
Q 117.295162 74.117838 118.877587 70.192747 
Q 120.381523 66.446332 122.771617 66.446332 
z
M 122.510834 66.405986 
L 122.510834 66.405986 
z
" style="fill:#ffa600;"/>
   </g>
   <g id="patch_14">
    <path clip-path="url(#p1303c6ab5d)" d="M 124.422678 50.998262 
L 122.616176 34.386426 
L 120.695635 50.998262 
L 124.422678 50.998262 
z
M 121.773834 28.8 
L 123.595886 28.8 
L 127.913864 66.405986 
L 126.14624 66.405986 
L 124.941042 55.14303 
L 120.23429 55.14303 
L 118.946154 66.405986 
L 117.295162 66.405986 
L 121.773834 28.8 
z
M 122.608401 28.8 
L 122.608401 28.8 
z
" style="fill:#008000;"/>
   </g>
   <g id="patch_15">
    <path clip-path="url(#p1303c6ab5d)" d="M 134.055907 136.239375 
Q 136.329853 136.239375 137.584174 136.753188 
Q 138.838495 137.265885 138.976705 137.918204 
L 137.396417 137.918204 
Q 137.12782 137.42338 136.324637 137.13408 
Q 135.521454 136.843664 134.071553 136.843664 
Q 132.303508 136.843664 131.216082 137.376466 
Q 130.128656 137.908151 130.128656 139.007265 
Q 130.128656 139.908672 131.109165 140.469399 
Q 132.092281 141.029009 134.04026 141.029009 
Q 135.831775 141.029009 136.77056 140.439241 
Q 137.26603 140.128719 137.511157 139.621607 
L 139.091445 139.621607 
Q 138.880219 140.431422 137.691091 140.979862 
Q 136.264659 141.64 133.84468 141.64 
Q 131.758491 141.64 130.339883 141.098262 
Q 128.472743 140.383391 128.472743 138.888865 
Q 128.472743 137.755124 129.875705 137.029084 
Q 131.3908 136.239375 134.055907 136.239375 
z
M 133.72994 136.239375 
L 133.72994 136.239375 
z
" style="fill:#0000ff;"/>
   </g>
   <g id="patch_16">
    <path clip-path="url(#p1303c6ab5d)" d="M 139.091445 126.606423 
L 139.091445 127.754152 
L 134.681477 127.754152 
L 134.681477 136.239375 
L 132.882712 136.239375 
L 132.882712 127.754152 
L 128.472743 127.754152 
L 128.472743 126.606423 
L 139.091445 126.606423 
z
" style="fill:#ff0000;"/>
   </g>
   <g id="patch_17">
    <path clip-path="url(#p1303c6ab5d)" d="M 133.949198 87.095828 
Q 135.587324 87.095828 136.782371 89.140466 
Q 138.514177 92.076567 138.901554 99.437266 
L 137.344449 99.437266 
Q 137.058346 95.323453 136.164593 93.442386 
Q 135.270839 91.561318 133.908688 91.561318 
Q 132.295881 91.561318 131.191982 95.478846 
Q 130.088082 99.388195 130.088082 107.133286 
Q 130.088082 113.823343 130.997027 118.02712 
Q 131.908504 122.230897 133.96439 122.230897 
Q 135.539219 122.230897 136.572225 119.286617 
Q 137.605232 116.334159 137.628019 109.734066 
L 133.989709 109.734066 
L 133.989709 105.52211 
L 139.091445 105.52211 
L 139.091445 125.60864 
L 138.078694 125.60864 
L 137.698912 120.775114 
Q 136.90137 123.613072 136.283591 124.717177 
Q 135.245521 126.606423 133.647905 126.606423 
Q 131.584423 126.606423 130.095678 122.288147 
Q 128.472743 116.865765 128.472743 107.411356 
Q 128.472743 97.981483 130.055168 92.411888 
Q 131.559104 87.095828 133.949198 87.095828 
z
M 133.688415 87.038578 
L 133.688415 87.038578 
z
" style="fill:#ffa600;"/>
   </g>
   <g id="patch_18">
    <path clip-path="url(#p1303c6ab5d)" d="M 135.600259 63.177379 
L 133.793758 37.451429 
L 131.873216 63.177379 
L 135.600259 63.177379 
z
M 132.951415 28.8 
L 134.773467 28.8 
L 139.091445 87.038578 
L 137.323822 87.038578 
L 136.118624 69.596181 
L 131.411872 69.596181 
L 130.123735 87.038578 
L 128.472743 87.038578 
L 132.951415 28.8 
z
M 133.785982 28.8 
L 133.785982 28.8 
z
" style="fill:#008000;"/>
   </g>
   <g id="patch_19">
    <path clip-path="url(#p1303c6ab5d)" d="M 150.269027 136.239375 
L 150.269027 136.882839 
L 145.859058 136.882839 
L 145.859058 141.64 
L 144.060293 141.64 
L 144.060293 136.882839 
L 139.650324 136.882839 
L 139.650324 136.239375 
L 150.269027 136.239375 
z
" style="fill:#ff0000;"/>
   </g>
   <g id="patch_20">
    <path clip-path="url(#p1303c6ab5d)" d="M 146.77784 132.292613 
L 144.971339 128.037413 
L 143.050797 132.292613 
L 146.77784 132.292613 
z
M 144.128996 126.606423 
L 145.951048 126.606423 
L 150.269027 136.239375 
L 148.501403 136.239375 
L 147.296205 133.354315 
L 142.589453 133.354315 
L 141.301316 136.239375 
L 139.650324 136.239375 
L 144.128996 126.606423 
z
M 144.963563 126.606423 
L 144.963563 126.606423 
z
" style="fill:#008000;"/>
   </g>
   <g id="patch_21">
    <path clip-path="url(#p1303c6ab5d)" d="M 145.233488 106.392655 
Q 147.507434 106.392655 148.761755 108.315785 
Q 150.016076 110.234734 150.154286 112.676273 
L 148.573998 112.676273 
Q 148.305401 110.824215 147.502218 109.741409 
Q 146.699036 108.654423 145.249134 108.654423 
Q 143.481089 108.654423 142.393663 110.648625 
Q 141.306237 112.638647 141.306237 116.752472 
Q 141.306237 120.126311 142.286746 122.225031 
Q 143.269862 124.319571 145.217841 124.319571 
Q 147.009356 124.319571 147.948141 122.112152 
Q 148.443611 120.949913 148.688738 119.051867 
L 150.269027 119.051867 
Q 150.0578 122.082887 148.868672 124.135619 
Q 147.44224 126.606423 145.022261 126.606423 
Q 142.936072 126.606423 141.517464 124.578775 
Q 139.650324 121.903116 139.650324 116.309316 
Q 139.650324 112.065888 141.053287 109.348422 
Q 142.568381 106.392655 145.233488 106.392655 
z
M 144.907521 106.392655 
L 144.907521 106.392655 
z
" style="fill:#0000ff;"/>
   </g>
   <g id="patch_22">
    <path clip-path="url(#p1303c6ab5d)" d="M 145.12678 28.912267 
Q 146.764906 28.912267 147.959953 32.921809 
Q 149.691758 38.679511 150.079136 53.113862 
L 148.52203 53.113862 
Q 148.235927 45.046664 147.342174 41.357885 
Q 146.448421 37.669107 145.086269 37.669107 
Q 143.473462 37.669107 142.369563 45.351389 
Q 141.265664 53.017633 141.265664 68.205778 
Q 141.265664 81.324999 142.174608 89.568617 
Q 143.086085 97.812235 145.141971 97.812235 
Q 146.7168 97.812235 147.749807 92.038495 
Q 148.782813 86.248716 148.8056 73.305915 
L 145.16729 73.305915 
L 145.16729 65.046259 
L 150.269027 65.046259 
L 150.269027 104.435998 
L 149.256275 104.435998 
L 148.876493 94.957441 
Q 148.078951 100.522685 147.461172 102.687838 
Q 146.423102 106.392655 144.825486 106.392655 
Q 142.762004 106.392655 141.273259 97.924502 
Q 139.650324 87.291197 139.650324 68.751075 
Q 139.650324 50.259068 141.232749 39.337076 
Q 142.736685 28.912267 145.12678 28.912267 
z
M 144.865996 28.8 
L 144.865996 28.8 
z
" style="fill:#ffa600;"/>
   </g>
   <g id="patch_23">
    <path clip-path="url(#p1303c6ab5d)" d="M 161.446608 127.003204 
L 161.446608 128.747122 
L 157.036639 128.747122 
L 157.036639 141.64 
L 155.237874 141.64 
L 155.237874 128.747122 
L 150.827906 128.747122 
L 150.827906 127.003204 
L 161.446608 127.003204 
z
" style="fill:#ff0000;"/>
   </g>
   <g id="patch_24">
    <path clip-path="url(#p1303c6ab5d)" d="M 156.304361 110.032357 
Q 157.942487 110.032357 159.137534 110.910584 
Q 160.869339 112.171717 161.256717 115.333332 
L 159.699611 115.333332 
Q 159.413509 113.56634 158.519755 112.758372 
Q 157.626002 111.950404 156.263851 111.950404 
Q 154.651043 111.950404 153.547144 113.633086 
Q 152.443245 115.312254 152.443245 118.638976 
Q 152.443245 121.512533 153.352189 123.318166 
Q 154.263666 125.123799 156.319552 125.123799 
Q 157.894381 125.123799 158.927388 123.859153 
Q 159.960394 122.590994 159.983181 119.75608 
L 156.344871 119.75608 
L 156.344871 117.946933 
L 161.446608 117.946933 
L 161.446608 126.574629 
L 160.433856 126.574629 
L 160.054074 124.498502 
Q 159.256532 125.71748 158.638753 126.191723 
Q 157.600683 127.003204 156.003067 127.003204 
Q 153.939585 127.003204 152.45084 125.14839 
Q 150.827906 122.819333 150.827906 118.758415 
Q 150.827906 114.708035 152.41033 112.315746 
Q 153.914267 110.032357 156.304361 110.032357 
z
M 156.043577 110.007767 
L 156.043577 110.007767 
z
" style="fill:#ffa600;"/>
   </g>
   <g id="patch_25">
    <path clip-path="url(#p1303c6ab5d)" d="M 156.411069 70.946919 
Q 158.685015 70.946919 159.939336 74.663153 
Q 161.193657 78.371308 161.331867 83.089309 
L 159.751579 83.089309 
Q 159.482982 79.510414 158.679799 77.418013 
Q 157.876617 75.317533 156.426715 75.317533 
Q 154.65867 75.317533 153.571244 79.171106 
Q 152.483818 83.0166 152.483818 90.966109 
Q 152.483818 97.485675 153.464327 101.541217 
Q 154.447444 105.588681 156.395423 105.588681 
Q 158.186937 105.588681 159.125722 101.323091 
Q 159.621192 99.077193 159.866319 95.409432 
L 161.446608 95.409432 
Q 161.235381 101.266539 160.046253 105.233215 
Q 158.619822 110.007767 156.199842 110.007767 
Q 154.113653 110.007767 152.695045 106.089564 
Q 150.827906 100.919152 150.827906 90.109759 
Q 150.827906 81.909809 152.230868 76.658609 
Q 153.745962 70.946919 156.411069 70.946919 
z
M 156.085102 70.946919 
L 156.085102 70.946919 
z
" style="fill:#0000ff;"/>
   </g>
   <g id="patch_26">
    <path clip-path="url(#p1303c6ab5d)" d="M 157.955421 53.678709 
L 156.14892 35.060989 
L 154.228378 53.678709 
L 157.955421 53.678709 
z
M 155.306577 28.8 
L 157.128629 28.8 
L 161.446608 70.946919 
L 159.678984 70.946919 
L 158.473786 58.323958 
L 153.767034 58.323958 
L 152.478897 70.946919 
L 150.827906 70.946919 
L 155.306577 28.8 
z
M 156.141144 28.8 
L 156.141144 28.8 
z
" style="fill:#008000;"/>
   </g>
   <g id="patch_27">
    <path clip-path="url(#p1303c6ab5d)" d="M 172.624189 137.297457 
L 172.624189 137.814854 
L 168.21422 137.814854 
L 168.21422 141.64 
L 166.415455 141.64 
L 166.415455 137.814854 
L 162.005487 137.814854 
L 162.005487 137.297457 
L 172.624189 137.297457 
z
" style="fill:#ff0000;"/>
   </g>
   <g id="patch_28">
    <path clip-path="url(#p1303c6ab5d)" d="M 167.58865 130.83875 
Q 169.862596 130.83875 171.116917 131.453229 
Q 172.371238 132.066372 172.509448 132.846493 
L 170.92916 132.846493 
Q 170.660563 132.254723 169.857381 131.908744 
Q 169.054198 131.56143 167.604296 131.56143 
Q 165.836251 131.56143 164.748825 132.198618 
Q 163.661399 132.83447 163.661399 134.14892 
Q 163.661399 135.22693 164.641908 135.897513 
Q 165.625025 136.566761 167.573004 136.566761 
Q 169.364518 136.566761 170.303304 135.861446 
Q 170.798773 135.490087 171.043901 134.883623 
L 172.624189 134.883623 
Q 172.412962 135.852095 171.223834 136.507985 
Q 169.797403 137.297457 167.377423 137.297457 
Q 165.291234 137.297457 163.872626 136.649582 
Q 162.005487 135.794655 162.005487 134.007323 
Q 162.005487 132.651462 163.408449 131.783177 
Q 164.923544 130.83875 167.58865 130.83875 
z
M 167.262683 130.83875 
L 167.262683 130.83875 
z
" style="fill:#0000ff;"/>
   </g>
   <g id="patch_29">
    <path clip-path="url(#p1303c6ab5d)" d="M 169.133002 122.990384 
L 167.326501 114.528669 
L 165.40596 122.990384 
L 169.133002 122.990384 
z
M 166.484158 111.683063 
L 168.30621 111.683063 
L 172.624189 130.83875 
L 170.856565 130.83875 
L 169.651367 125.10164 
L 164.944615 125.10164 
L 163.656478 130.83875 
L 162.005487 130.83875 
L 166.484158 111.683063 
z
M 167.318725 111.683063 
L 167.318725 111.683063 
z
" style="fill:#008000;"/>
   </g>
   <g id="patch_30">
    <path clip-path="url(#p1303c6ab5d)" d="M 167.481942 28.919922 
Q 169.120068 28.919922 170.315115 33.202842 
Q 172.04692 39.353114 172.434298 54.771625 
L 170.877192 54.771625 
Q 170.59109 46.154391 169.697336 42.214105 
Q 168.803583 38.273818 167.441432 38.273818 
Q 165.828625 38.273818 164.724725 46.479893 
Q 163.620826 54.668835 163.620826 70.892535 
Q 163.620826 84.906249 164.52977 93.711932 
Q 165.441247 102.517615 167.497133 102.517615 
Q 169.071962 102.517615 170.104969 96.35021 
Q 171.137976 90.165674 171.160763 76.340409 
L 167.522452 76.340409 
L 167.522452 67.517595 
L 172.624189 67.517595 
L 172.624189 109.592998 
L 171.611437 109.592998 
L 171.231655 99.468176 
Q 170.434113 105.412869 169.816335 107.725645 
Q 168.778264 111.683063 167.180648 111.683063 
Q 165.117166 111.683063 163.628421 102.637537 
Q 162.005487 91.279233 162.005487 71.475012 
Q 162.005487 51.722187 163.587911 40.055513 
Q 165.091848 28.919922 167.481942 28.919922 
z
M 167.221158 28.8 
L 167.221158 28.8 
z
" style="fill:#ffa600;"/>
   </g>
   <g id="patch_31">
    <path clip-path="url(#p1303c6ab5d)" d="M 178.766231 135.181293 
Q 181.040177 135.181293 182.294498 135.795772 
Q 183.548819 136.408915 183.68703 137.189036 
L 182.106741 137.189036 
Q 181.838145 136.597266 181.034962 136.251288 
Q 180.231779 135.903974 178.781878 135.903974 
Q 177.013832 135.903974 175.926406 136.541162 
Q 174.83898 137.177014 174.83898 138.491464 
Q 174.83898 139.569474 175.819489 140.240057 
Q 176.802606 140.909305 178.750585 140.909305 
Q 180.5421 140.909305 181.480885 140.20399 
Q 181.976355 139.832631 182.221482 139.226167 
L 183.80177 139.226167 
Q 183.590543 140.194639 182.401416 140.850528 
Q 180.974984 141.64 178.555005 141.64 
Q 176.468816 141.64 175.050207 140.992126 
Q 173.183068 140.137199 173.183068 138.349867 
Q 173.183068 136.994006 174.58603 136.12572 
Q 176.101125 135.181293 178.766231 135.181293 
z
M 178.440264 135.181293 
L 178.440264 135.181293 
z
" style="fill:#0000ff;"/>
   </g>
   <g id="patch_32">
    <path clip-path="url(#p1303c6ab5d)" d="M 180.310583 124.488008 
L 178.504082 112.959043 
L 176.583541 124.488008 
L 180.310583 124.488008 
z
M 177.661739 109.081946 
L 179.483791 109.081946 
L 183.80177 135.181293 
L 182.034146 135.181293 
L 180.828948 127.364564 
L 176.122196 127.364564 
L 174.83406 135.181293 
L 173.183068 135.181293 
L 177.661739 109.081946 
z
M 178.496307 109.081946 
L 178.496307 109.081946 
z
" style="fill:#008000;"/>
   </g>
   <g id="patch_33">
    <path clip-path="url(#p1303c6ab5d)" d="M 183.80177 73.900731 
L 183.80177 78.092437 
L 179.391802 78.092437 
L 179.391802 109.081946 
L 177.593036 109.081946 
L 177.593036 78.092437 
L 173.183068 78.092437 
L 173.183068 73.900731 
L 183.80177 73.900731 
z
" style="fill:#ff0000;"/>
   </g>
   <g id="patch_34">
    <path clip-path="url(#p1303c6ab5d)" d="M 178.659523 28.865255 
Q 180.297649 28.865255 181.492696 31.195802 
Q 183.224501 34.542466 183.611879 42.932432 
L 182.054773 42.932432 
Q 181.768671 38.243373 180.874917 36.099271 
Q 179.981164 33.955168 178.619013 33.955168 
Q 177.006206 33.955168 175.902306 38.420495 
Q 174.798407 42.876499 174.798407 51.704608 
Q 174.798407 59.330156 175.707352 64.121759 
Q 176.618828 68.913362 178.674714 68.913362 
Q 180.249543 68.913362 181.28255 65.557375 
Q 182.315557 62.192066 182.338344 54.669063 
L 178.700033 54.669063 
L 178.700033 49.868138 
L 183.80177 49.868138 
L 183.80177 72.763424 
L 182.789018 72.763424 
L 182.409236 67.254013 
Q 181.611694 70.488811 180.993916 71.747306 
Q 179.955845 73.900731 178.358229 73.900731 
Q 176.294748 73.900731 174.806003 68.978617 
Q 173.183068 62.798008 173.183068 52.021563 
Q 173.183068 41.273083 174.765492 34.924675 
Q 176.269429 28.865255 178.659523 28.865255 
z
M 178.398739 28.8 
L 178.398739 28.8 
z
" style="fill:#ffa600;"/>
   </g>
   <g id="patch_35">
    <path clip-path="url(#p1303c6ab5d)" d="M 194.979351 137.297457 
L 194.979351 137.814854 
L 190.569383 137.814854 
L 190.569383 141.64 
L 188.770617 141.64 
L 188.770617 137.814854 
L 184.360649 137.814854 
L 184.360649 137.297457 
L 194.979351 137.297457 
z
" style="fill:#ff0000;"/>
   </g>
   <g id="patch_36">
    <path clip-path="url(#p1303c6ab5d)" d="M 189.943812 130.83875 
Q 192.217758 130.83875 193.472079 131.453229 
Q 194.726401 132.066372 194.864611 132.846493 
L 193.284322 132.846493 
Q 193.015726 132.254723 192.212543 131.908744 
Q 191.40936 131.56143 189.959459 131.56143 
Q 188.191414 131.56143 187.103988 132.198618 
Q 186.016561 132.83447 186.016561 134.14892 
Q 186.016561 135.22693 186.99707 135.897513 
Q 187.980187 136.566761 189.928166 136.566761 
Q 191.719681 136.566761 192.658466 135.861446 
Q 193.153936 135.490087 193.399063 134.883623 
L 194.979351 134.883623 
Q 194.768124 135.852095 193.578997 136.507985 
Q 192.152565 137.297457 189.732586 137.297457 
Q 187.646397 137.297457 186.227788 136.649582 
Q 184.360649 135.794655 184.360649 134.007323 
Q 184.360649 132.651462 185.763611 131.783177 
Q 187.278706 130.83875 189.943812 130.83875 
z
M 189.617845 130.83875 
L 189.617845 130.83875 
z
" style="fill:#0000ff;"/>
   </g>
   <g id="patch_37">
    <path clip-path="url(#p1303c6ab5d)" d="M 191.488164 119.955803 
L 189.681663 108.222355 
L 187.761122 119.955803 
L 191.488164 119.955803 
z
M 188.83932 104.276492 
L 190.661373 104.276492 
L 194.979351 130.83875 
L 193.211727 130.83875 
L 192.006529 122.883379 
L 187.299777 122.883379 
L 186.011641 130.83875 
L 184.360649 130.83875 
L 188.83932 104.276492 
z
M 189.673888 104.276492 
L 189.673888 104.276492 
z
" style="fill:#008000;"/>
   </g>
   <g id="patch_38">
    <path clip-path="url(#p1303c6ab5d)" d="M 189.837104 28.909205 
Q 191.47523 28.909205 192.670277 32.809396 
Q 194.402083 38.41007 194.78946 52.450757 
L 193.232354 52.450757 
Q 192.946252 44.603573 192.052498 41.015397 
Q 191.158745 37.427222 189.796594 37.427222 
Q 188.183787 37.427222 187.079887 44.899987 
Q 185.975988 52.357152 185.975988 67.131075 
Q 185.975988 79.892499 186.884933 87.911291 
Q 187.796409 95.930083 189.852295 95.930083 
Q 191.427124 95.930083 192.460131 90.313809 
Q 193.493138 84.681933 193.515925 72.092117 
L 189.877614 72.092117 
L 189.877614 64.057724 
L 194.979351 64.057724 
L 194.979351 102.373198 
L 193.966599 102.373198 
L 193.586817 93.153147 
Q 192.789275 98.566612 192.171497 100.672715 
Q 191.133426 104.276492 189.53581 104.276492 
Q 187.472329 104.276492 185.983584 96.039289 
Q 184.360649 85.695983 184.360649 67.661501 
Q 184.360649 49.673821 185.943074 39.049701 
Q 187.44701 28.909205 189.837104 28.909205 
z
M 189.57632 28.8 
L 189.57632 28.8 
z
" style="fill:#ffa600;"/>
   </g>
   <g id="patch_39">
    <path clip-path="url(#p1303c6ab5d)" d="M 206.156932 132.007048 
L 206.156932 133.154777 
L 201.746964 133.154777 
L 201.746964 141.64 
L 199.948198 141.64 
L 199.948198 133.154777 
L 195.53823 133.154777 
L 195.53823 132.007048 
L 206.156932 132.007048 
z
" style="fill:#ff0000;"/>
   </g>
   <g id="patch_40">
    <path clip-path="url(#p1303c6ab5d)" d="M 201.121393 119.199852 
Q 203.395339 119.199852 204.649661 120.418323 
Q 205.903982 121.634146 206.042192 123.181075 
L 204.461904 123.181075 
Q 204.193307 122.007634 203.390124 121.321582 
Q 202.586941 120.63288 201.13704 120.63288 
Q 199.368995 120.63288 198.281569 121.896382 
Q 197.194143 123.157236 197.194143 125.763705 
Q 197.194143 127.901329 198.174651 129.231052 
Q 199.157768 130.558127 201.105747 130.558127 
Q 202.897262 130.558127 203.836047 129.159533 
Q 204.331517 128.423152 204.576644 127.220574 
L 206.156932 127.220574 
Q 205.945706 129.140991 204.756578 130.441577 
Q 203.330146 132.007048 200.910167 132.007048 
Q 198.823978 132.007048 197.405369 130.722355 
Q 195.53823 129.02709 195.53823 125.482927 
Q 195.53823 122.794343 196.941192 121.07259 
Q 198.456287 119.199852 201.121393 119.199852 
z
M 200.795426 119.199852 
L 200.795426 119.199852 
z
" style="fill:#0000ff;"/>
   </g>
   <g id="patch_41">
    <path clip-path="url(#p1303c6ab5d)" d="M 202.665746 110.484463 
L 200.859244 101.087967 
L 198.938703 110.484463 
L 202.665746 110.484463 
z
M 200.016902 97.928002 
L 201.838954 97.928002 
L 206.156932 119.199852 
L 204.389308 119.199852 
L 203.18411 112.828953 
L 198.477358 112.828953 
L 197.189222 119.199852 
L 195.53823 119.199852 
L 200.016902 97.928002 
z
M 200.851469 97.928002 
L 200.851469 97.928002 
z
" style="fill:#008000;"/>
   </g>
   <g id="patch_42">
    <path clip-path="url(#p1303c6ab5d)" d="M 201.014685 28.90002 
Q 202.652811 28.90002 203.847858 32.472157 
Q 205.579664 37.601746 205.967041 50.461441 
L 204.409935 50.461441 
Q 204.123833 43.2743 203.23008 39.987934 
Q 202.336326 36.701568 200.974175 36.701568 
Q 199.361368 36.701568 198.257469 43.545783 
Q 197.153569 50.375709 197.153569 63.906966 
Q 197.153569 75.594999 198.062514 82.939313 
Q 198.97399 90.283628 201.029876 90.283628 
Q 202.604705 90.283628 203.637712 85.13975 
Q 204.670719 79.981584 204.693506 68.450724 
L 201.055195 68.450724 
L 201.055195 61.092121 
L 206.156932 61.092121 
L 206.156932 96.184799 
L 205.14418 96.184799 
L 204.764399 87.740266 
Q 203.966857 92.698393 203.349078 94.627347 
Q 202.311007 97.928002 200.713392 97.928002 
Q 198.64991 97.928002 197.161165 90.383648 
Q 195.53823 80.910339 195.53823 64.392776 
Q 195.53823 47.918079 197.120655 38.187577 
Q 198.624591 28.90002 201.014685 28.90002 
z
M 200.753902 28.8 
L 200.753902 28.8 
z
" style="fill:#ffa600;"/>
   </g>
   <g id="patch_43">
    <path clip-path="url(#p1303c6ab5d)" d="M 217.334513 137.297457 
L 217.334513 137.814854 
L 212.924545 137.814854 
L 212.924545 141.64 
L 211.12578 141.64 
L 211.12578 137.814854 
L 206.715811 137.814854 
L 206.715811 137.297457 
L 217.334513 137.297457 
z
" style="fill:#ff0000;"/>
   </g>
   <g id="patch_44">
    <path clip-path="url(#p1303c6ab5d)" d="M 212.298975 113.909443 
Q 214.572921 113.909443 215.827242 116.13457 
Q 217.081563 118.354859 217.219773 121.179802 
L 215.639485 121.179802 
Q 215.370888 119.036908 214.567705 117.784066 
Q 213.764522 116.526385 212.314621 116.526385 
Q 210.546576 116.526385 209.45915 118.833745 
Q 208.371724 121.136267 208.371724 125.896102 
Q 208.371724 129.799748 209.352233 132.228038 
Q 210.335349 134.651491 212.283328 134.651491 
Q 214.074843 134.651491 215.013628 132.097433 
Q 215.509098 130.752683 215.754225 128.55658 
L 217.334513 128.55658 
Q 217.123287 132.063572 215.934159 134.438653 
Q 214.507727 137.297457 212.087748 137.297457 
Q 210.001559 137.297457 208.58295 134.951399 
Q 206.715811 131.855571 206.715811 125.383356 
Q 206.715811 120.473566 208.118773 117.329366 
Q 209.633868 113.909443 212.298975 113.909443 
z
M 211.973008 113.909443 
L 211.973008 113.909443 
z
" style="fill:#0000ff;"/>
   </g>
   <g id="patch_45">
    <path clip-path="url(#p1303c6ab5d)" d="M 212.192266 80.341946 
Q 213.830392 80.341946 215.025439 82.079034 
Q 216.757245 84.573493 217.144622 90.827012 
L 215.587517 90.827012 
Q 215.301414 87.33199 214.407661 85.733868 
Q 213.513907 84.135747 212.151756 84.135747 
Q 210.538949 84.135747 209.43505 87.464008 
Q 208.33115 90.785322 208.33115 97.365413 
Q 208.33115 103.049166 209.240095 106.62062 
Q 210.151572 110.192074 212.207458 110.192074 
Q 213.782287 110.192074 214.815293 107.690667 
Q 215.8483 105.182311 215.871087 99.574989 
L 212.232776 99.574989 
L 212.232776 95.996587 
L 217.334513 95.996587 
L 217.334513 113.061744 
L 216.321762 113.061744 
L 215.94198 108.955267 
Q 215.144438 111.366346 214.526659 112.304374 
Q 213.488589 113.909443 211.890973 113.909443 
Q 209.827491 113.909443 208.338746 110.240712 
Q 206.715811 105.633954 206.715811 97.601657 
Q 206.715811 89.590205 208.298236 84.858376 
Q 209.802172 80.341946 212.192266 80.341946 
z
M 211.931483 80.293307 
L 211.931483 80.293307 
z
" style="fill:#ffa600;"/>
   </g>
   <g id="patch_46">
    <path clip-path="url(#p1303c6ab5d)" d="M 213.843327 59.195744 
L 212.036825 36.449409 
L 210.116284 59.195744 
L 213.843327 59.195744 
z
M 211.194483 28.8 
L 213.016535 28.8 
L 217.334513 80.293307 
L 215.566889 80.293307 
L 214.361691 64.871112 
L 209.654939 64.871112 
L 208.366803 80.293307 
L 206.715811 80.293307 
L 211.194483 28.8 
z
M 212.02905 28.8 
L 212.02905 28.8 
z
" style="fill:#008000;"/>
   </g>
   <g id="patch_47">
    <path clip-path="url(#p1303c6ab5d)" d="M 228.512094 138.355538 
L 228.512094 138.746869 
L 224.102126 138.746869 
L 224.102126 141.64 
L 222.303361 141.64 
L 222.303361 138.746869 
L 217.893392 138.746869 
L 217.893392 138.355538 
L 228.512094 138.355538 
z
" style="fill:#ff0000;"/>
   </g>
   <g id="patch_48">
    <path clip-path="url(#p1303c6ab5d)" d="M 223.476556 123.432178 
Q 225.750502 123.432178 227.004823 124.851981 
Q 228.259144 126.268697 228.397354 128.071229 
L 226.817066 128.071229 
Q 226.548469 126.703897 225.745286 125.904487 
Q 224.942103 125.101989 223.492202 125.101989 
Q 221.724157 125.101989 220.636731 126.574263 
Q 219.549305 128.04345 219.549305 131.080593 
Q 219.549305 133.571421 220.529814 135.120857 
Q 221.51293 136.667208 223.460909 136.667208 
Q 225.252424 136.667208 226.191209 135.037521 
Q 226.686679 134.179467 226.931806 132.778183 
L 228.512094 132.778183 
Q 228.300868 135.015916 227.11174 136.5314 
Q 225.685308 138.355538 223.265329 138.355538 
Q 221.17914 138.355538 219.760531 136.858572 
Q 217.893392 134.883195 217.893392 130.753421 
Q 217.893392 127.620596 219.296354 125.614353 
Q 220.811449 123.432178 223.476556 123.432178 
z
M 223.150589 123.432178 
L 223.150589 123.432178 
z
" style="fill:#0000ff;"/>
   </g>
   <g id="patch_49">
    <path clip-path="url(#p1303c6ab5d)" d="M 225.020908 112.11572 
L 223.214407 99.914882 
L 221.293865 112.11572 
L 225.020908 112.11572 
z
M 222.372064 95.811838 
L 224.194116 95.811838 
L 228.512094 123.432178 
L 226.744471 123.432178 
L 225.539273 115.159913 
L 220.832521 115.159913 
L 219.544384 123.432178 
L 217.893392 123.432178 
L 222.372064 95.811838 
z
M 223.206631 95.811838 
L 223.206631 95.811838 
z
" style="fill:#008000;"/>
   </g>
   <g id="patch_50">
    <path clip-path="url(#p1303c6ab5d)" d="M 223.369847 28.896958 
Q 225.007973 28.896958 226.20302 32.359744 
Q 227.934826 37.332305 228.322203 49.798335 
L 226.765098 49.798335 
Q 226.478995 42.83121 225.585242 39.645446 
Q 224.691488 36.459683 223.329337 36.459683 
Q 221.71653 36.459683 220.612631 43.094381 
Q 219.508731 49.715229 219.508731 62.832263 
Q 219.508731 74.162499 220.417676 81.281987 
Q 221.329153 88.401476 223.385039 88.401476 
Q 224.959868 88.401476 225.992874 83.415064 
Q 227.025881 78.4148 227.048668 67.236927 
L 223.410357 67.236927 
L 223.410357 60.103587 
L 228.512094 60.103587 
L 228.512094 94.121999 
L 227.499343 94.121999 
L 227.119561 85.935972 
Q 226.322019 90.742319 225.70424 92.612224 
Q 224.66617 95.811838 223.068554 95.811838 
Q 221.005072 95.811838 219.516327 88.498434 
Q 217.893392 79.315125 217.893392 63.303202 
Q 217.893392 47.332832 219.475817 37.900202 
Q 220.979753 28.896958 223.369847 28.896958 
z
M 223.109064 28.8 
L 223.109064 28.8 
z
" style="fill:#ffa600;"/>
   </g>
   <g id="patch_51">
    <path clip-path="url(#p1303c6ab5d)" d="M 234.654137 135.181293 
Q 236.928083 135.181293 238.182404 135.795772 
Q 239.436725 136.408915 239.574935 137.189036 
L 237.994647 137.189036 
Q 237.72605 136.597266 236.922867 136.251288 
Q 236.119685 135.903974 234.669783 135.903974 
Q 232.901738 135.903974 231.814312 136.541162 
Q 230.726886 137.177014 230.726886 138.491464 
Q 230.726886 139.569474 231.707395 140.240057 
Q 232.690511 140.909305 234.63849 140.909305 
Q 236.430005 140.909305 237.36879 140.20399 
Q 237.86426 139.832631 238.109387 139.226167 
L 239.689676 139.226167 
Q 239.478449 140.194639 238.289321 140.850528 
Q 236.862889 141.64 234.44291 141.64 
Q 232.356721 141.64 230.938113 140.992126 
Q 229.070973 140.137199 229.070973 138.349867 
Q 229.070973 136.994006 230.473936 136.12572 
Q 231.98903 135.181293 234.654137 135.181293 
z
M 234.32817 135.181293 
L 234.32817 135.181293 
z
" style="fill:#0000ff;"/>
   </g>
   <g id="patch_52">
    <path clip-path="url(#p1303c6ab5d)" d="M 234.547429 121.446134 
Q 236.185554 121.446134 237.380602 122.156916 
Q 239.112407 123.1776 239.499785 125.736416 
L 237.942679 125.736416 
Q 237.656576 124.306322 236.762823 123.652402 
Q 235.86907 122.998482 234.506918 122.998482 
Q 232.894111 122.998482 231.790212 124.360342 
Q 230.686312 125.719358 230.686312 128.411801 
Q 230.686312 130.737481 231.595257 132.19885 
Q 232.506734 133.660219 234.56262 133.660219 
Q 236.137449 133.660219 237.170456 132.636692 
Q 238.203462 131.610322 238.226249 129.315917 
L 234.587939 129.315917 
L 234.587939 127.851705 
L 239.689676 127.851705 
L 239.689676 134.834431 
L 238.676924 134.834431 
L 238.297142 133.154142 
Q 237.4996 134.140708 236.881821 134.52453 
Q 235.843751 135.181293 234.246135 135.181293 
Q 232.182653 135.181293 230.693908 133.680121 
Q 229.070973 131.795126 229.070973 128.508468 
Q 229.070973 125.230339 230.653398 123.294168 
Q 232.157334 121.446134 234.547429 121.446134 
z
M 234.286645 121.426232 
L 234.286645 121.426232 
z
" style="fill:#ffa600;"/>
   </g>
   <g id="patch_53">
    <path clip-path="url(#p1303c6ab5d)" d="M 239.689676 76.920672 
L 239.689676 82.223338 
L 235.279707 82.223338 
L 235.279707 121.426232 
L 233.480942 121.426232 
L 233.480942 82.223338 
L 229.070973 82.223338 
L 229.070973 76.920672 
L 239.689676 76.920672 
z
" style="fill:#ff0000;"/>
   </g>
   <g id="patch_54">
    <path clip-path="url(#p1303c6ab5d)" d="M 236.198489 57.204927 
L 234.391988 35.948399 
L 232.471446 57.204927 
L 236.198489 57.204927 
z
M 233.549645 28.8 
L 235.371697 28.8 
L 239.689676 76.920672 
L 237.922052 76.920672 
L 236.716854 62.508578 
L 232.010102 62.508578 
L 230.721965 76.920672 
L 229.070973 76.920672 
L 233.549645 28.8 
z
M 234.384212 28.8 
L 234.384212 28.8 
z
" style="fill:#008000;"/>
   </g>
   <g id="patch_55">
    <path clip-path="url(#p1303c6ab5d)" d="M 245.72501 132.020986 
Q 247.363136 132.020986 248.558183 132.518761 
Q 250.289988 133.233567 250.677366 135.025559 
L 249.12026 135.025559 
Q 248.834158 134.024035 247.940404 133.566081 
Q 247.046651 133.108128 245.6845 133.108128 
Q 244.071692 133.108128 242.967793 134.061866 
Q 241.863894 135.013612 241.863894 136.899186 
Q 241.863894 138.527907 242.772838 139.551334 
Q 243.684315 140.57476 245.740201 140.57476 
Q 247.31503 140.57476 248.348037 139.857964 
Q 249.381043 139.139176 249.40383 137.532356 
L 245.76552 137.532356 
L 245.76552 136.506939 
L 250.867257 136.506939 
L 250.867257 141.397086 
L 249.854505 141.397086 
L 249.474723 140.220344 
Q 248.677181 140.911257 248.059402 141.180055 
Q 247.021332 141.64 245.423716 141.64 
Q 243.360234 141.64 241.871489 140.588698 
Q 240.248555 139.268597 240.248555 136.966883 
Q 240.248555 134.671143 241.830979 133.315202 
Q 243.334916 132.020986 245.72501 132.020986 
z
M 245.464226 132.007048 
L 245.464226 132.007048 
z
" style="fill:#ffa600;"/>
   </g>
   <g id="patch_56">
    <path clip-path="url(#p1303c6ab5d)" d="M 245.831718 114.967525 
Q 248.105664 114.967525 249.359985 116.588658 
Q 250.614306 118.206268 250.752516 120.264403 
L 249.172228 120.264403 
Q 248.903631 118.70318 248.100448 117.790412 
Q 247.297266 116.874119 245.847364 116.874119 
Q 244.079319 116.874119 242.991893 118.555164 
Q 241.904467 120.232685 241.904467 123.700501 
Q 241.904467 126.544533 242.884976 128.313683 
Q 243.868093 130.079309 245.816071 130.079309 
Q 247.607586 130.079309 248.546371 128.21853 
Q 249.041841 127.238801 249.286968 125.638813 
L 250.867257 125.638813 
Q 250.65603 128.19386 249.466902 129.924244 
Q 248.040471 132.007048 245.620491 132.007048 
Q 243.534302 132.007048 242.115694 130.29781 
Q 240.248555 128.042319 240.248555 123.326935 
Q 240.248555 119.749869 241.651517 117.459137 
Q 243.166611 114.967525 245.831718 114.967525 
z
M 245.505751 114.967525 
L 245.505751 114.967525 
z
" style="fill:#0000ff;"/>
   </g>
   <g id="patch_57">
    <path clip-path="url(#p1303c6ab5d)" d="M 247.37607 106.685648 
L 245.569569 97.756542 
L 243.649027 106.685648 
L 247.37607 106.685648 
z
M 244.727226 94.753757 
L 246.549278 94.753757 
L 250.867257 114.967525 
L 249.099633 114.967525 
L 247.894435 108.913521 
L 243.187683 108.913521 
L 241.899546 114.967525 
L 240.248555 114.967525 
L 244.727226 94.753757 
z
M 245.561793 94.753757 
L 245.561793 94.753757 
z
" style="fill:#008000;"/>
   </g>
   <g id="patch_58">
    <path clip-path="url(#p1303c6ab5d)" d="M 250.867257 28.8 
L 250.867257 36.658137 
L 246.457288 36.658137 
L 246.457288 94.753757 
L 244.658523 94.753757 
L 244.658523 36.658137 
L 240.248555 36.658137 
L 240.248555 28.8 
L 250.867257 28.8 
z
" style="fill:#ff0000;"/>
   </g>
   <g id="patch_59">
    <path clip-path="url(#p1303c6ab5d)" d="M 256.902591 132.020986 
Q 258.540717 132.020986 259.735764 132.518761 
Q 261.467569 133.233567 261.854947 135.025559 
L 260.297841 135.025559 
Q 260.011739 134.024035 259.117985 133.566081 
Q 258.224232 133.108128 256.862081 133.108128 
Q 255.249274 133.108128 254.145374 134.061866 
Q 253.041475 135.013612 253.041475 136.899186 
Q 253.041475 138.527907 253.950419 139.551334 
Q 254.861896 140.57476 256.917782 140.57476 
Q 258.492611 140.57476 259.525618 139.857964 
Q 260.558625 139.139176 260.581411 137.532356 
L 256.943101 137.532356 
L 256.943101 136.506939 
L 262.044838 136.506939 
L 262.044838 141.397086 
L 261.032086 141.397086 
L 260.652304 140.220344 
Q 259.854762 140.911257 259.236984 141.180055 
Q 258.198913 141.64 256.601297 141.64 
Q 254.537815 141.64 253.04907 140.588698 
Q 251.426136 139.268597 251.426136 136.966883 
Q 251.426136 134.671143 253.00856 133.315202 
Q 254.512497 132.020986 256.902591 132.020986 
z
M 256.641807 132.007048 
L 256.641807 132.007048 
z
" style="fill:#ffa600;"/>
   </g>
   <g id="patch_60">
    <path clip-path="url(#p1303c6ab5d)" d="M 257.009299 104.386708 
Q 259.283245 104.386708 260.537566 107.014497 
Q 261.791887 109.636572 261.930097 112.972721 
L 260.349809 112.972721 
Q 260.081212 110.442047 259.27803 108.962488 
Q 258.474847 107.477216 257.024945 107.477216 
Q 255.2569 107.477216 254.169474 110.202118 
Q 253.082048 112.921308 253.082048 118.54249 
Q 253.082048 123.152544 254.062557 126.020261 
Q 255.045674 128.882265 256.993653 128.882265 
Q 258.785167 128.882265 259.723952 125.866021 
Q 260.219422 124.277923 260.46455 121.68441 
L 262.044838 121.68441 
Q 261.833611 125.826033 260.644483 128.630912 
Q 259.218052 132.007048 256.798072 132.007048 
Q 254.711883 132.007048 253.293275 129.236445 
Q 251.426136 125.580392 251.426136 117.936956 
Q 251.426136 112.138684 252.829098 108.425505 
Q 254.344193 104.386708 257.009299 104.386708 
z
M 256.683332 104.386708 
L 256.683332 104.386708 
z
" style="fill:#0000ff;"/>
   </g>
   <g id="patch_61">
    <path clip-path="url(#p1303c6ab5d)" d="M 262.044838 73.37169 
L 262.044838 77.06701 
L 257.634869 77.06701 
L 257.634869 104.386708 
L 255.836104 104.386708 
L 255.836104 77.06701 
L 251.426136 77.06701 
L 251.426136 73.37169 
L 262.044838 73.37169 
z
" style="fill:#ff0000;"/>
   </g>
   <g id="patch_62">
    <path clip-path="url(#p1303c6ab5d)" d="M 258.553651 55.110015 
L 256.74715 35.421192 
L 254.826609 55.110015 
L 258.553651 55.110015 
z
M 255.904807 28.8 
L 257.726859 28.8 
L 262.044838 73.37169 
L 260.277214 73.37169 
L 259.072016 60.022512 
L 254.365264 60.022512 
L 253.077127 73.37169 
L 251.426136 73.37169 
L 255.904807 28.8 
z
M 256.739374 28.8 
L 256.739374 28.8 
z
" style="fill:#008000;"/>
   </g>
   <g id="patch_63">
    <path clip-path="url(#p1303c6ab5d)" d="M 268.080172 132.042997 
Q 269.718298 132.042997 270.913345 132.539634 
Q 272.64515 133.252804 273.032528 135.040695 
L 271.475422 135.040695 
Q 271.18932 134.041462 270.295566 133.584557 
Q 269.401813 133.127651 268.039662 133.127651 
Q 266.426855 133.127651 265.322955 134.079207 
Q 264.219056 135.028776 264.219056 136.910035 
Q 264.219056 138.535029 265.128001 139.556113 
Q 266.039477 140.577198 268.095363 140.577198 
Q 269.670192 140.577198 270.703199 139.862042 
Q 271.736206 139.144899 271.758993 137.541756 
L 268.120682 137.541756 
L 268.120682 136.518685 
L 273.222419 136.518685 
L 273.222419 141.397641 
L 272.209667 141.397641 
L 271.829885 140.223593 
Q 271.032343 140.912924 270.414565 141.181108 
Q 269.376494 141.64 267.778878 141.64 
Q 265.715397 141.64 264.226651 140.591104 
Q 262.603717 139.274024 262.603717 136.977577 
Q 262.603717 134.68709 264.186141 133.334252 
Q 265.690078 132.042997 268.080172 132.042997 
z
M 267.819388 132.029092 
L 267.819388 132.029092 
z
" style="fill:#ffa600;"/>
   </g>
   <g id="patch_64">
    <path clip-path="url(#p1303c6ab5d)" d="M 269.731232 125.923804 
L 267.924731 119.341388 
L 266.00419 125.923804 
L 269.731232 125.923804 
z
M 267.082388 117.127775 
L 268.90444 117.127775 
L 273.222419 132.029092 
L 271.454795 132.029092 
L 270.249597 127.566162 
L 265.542845 127.566162 
L 264.254709 132.029092 
L 262.603717 132.029092 
L 267.082388 117.127775 
z
M 267.916956 117.127775 
L 267.916956 117.127775 
z
" style="fill:#008000;"/>
   </g>
   <g id="patch_65">
    <path clip-path="url(#p1303c6ab5d)" d="M 273.222419 83.952506 
L 273.222419 87.905212 
L 268.812451 87.905212 
L 268.812451 117.127775 
L 267.013685 117.127775 
L 267.013685 87.905212 
L 262.603717 87.905212 
L 262.603717 83.952506 
L 273.222419 83.952506 
z
" style="fill:#ff0000;"/>
   </g>
   <g id="patch_66">
    <path clip-path="url(#p1303c6ab5d)" d="M 268.18688 28.8 
Q 270.460826 28.8 271.715147 34.047188 
Q 272.969468 39.282969 273.107678 45.944616 
L 271.52739 45.944616 
Q 271.258793 40.891346 270.455611 37.936951 
Q 269.652428 34.971149 268.202527 34.971149 
Q 266.434481 34.971149 265.347055 40.412255 
Q 264.259629 45.841953 264.259629 57.066372 
Q 264.259629 66.271765 265.240138 71.998044 
Q 266.223255 77.712916 268.171234 77.712916 
Q 269.962749 77.712916 270.901534 71.690057 
Q 271.397003 68.51893 271.642131 63.340184 
L 273.222419 63.340184 
Q 273.011192 71.610208 271.822065 77.211011 
Q 270.395633 83.952506 267.975654 83.952506 
Q 265.889465 83.952506 264.470856 78.420145 
Q 262.603717 71.11971 262.603717 55.857238 
Q 262.603717 44.279204 264.006679 36.864699 
Q 265.521774 28.8 268.18688 28.8 
z
M 267.860913 28.8 
L 267.860913 28.8 
z
" style="fill:#0000ff;"/>
   </g>
   <g id="patch_67">
    <path clip-path="url(#p1303c6ab5d)" d="M 280.908813 138.993773 
L 279.102312 136.140744 
L 277.181771 138.993773 
L 280.908813 138.993773 
z
M 278.259969 135.181293 
L 280.082022 135.181293 
L 284.4 141.64 
L 282.632376 141.64 
L 281.427178 139.705624 
L 276.720426 139.705624 
L 275.43229 141.64 
L 273.781298 141.64 
L 278.259969 135.181293 
z
M 279.094537 135.181293 
L 279.094537 135.181293 
z
" style="fill:#008000;"/>
   </g>
   <g id="patch_68">
    <path clip-path="url(#p1303c6ab5d)" d="M 279.257753 128.731931 
Q 280.895879 128.731931 282.090926 129.06568 
Q 283.822732 129.544943 284.210109 130.746439 
L 282.653003 130.746439 
Q 282.366901 130.074937 281.473147 129.767888 
Q 280.579394 129.460839 279.217243 129.460839 
Q 277.604436 129.460839 276.500536 130.100301 
Q 275.396637 130.738429 275.396637 132.00267 
Q 275.396637 133.094696 276.305582 133.780883 
Q 277.217058 134.467071 279.272944 134.467071 
Q 280.847773 134.467071 281.88078 133.986473 
Q 282.913787 133.504539 282.936574 132.427198 
L 279.298263 132.427198 
L 279.298263 131.739676 
L 284.4 131.739676 
L 284.4 135.018424 
L 283.387248 135.018424 
L 283.007466 134.229442 
Q 282.209924 134.692685 281.592146 134.872909 
Q 280.554075 135.181293 278.956459 135.181293 
Q 276.892978 135.181293 275.404233 134.476416 
Q 273.781298 133.591314 273.781298 132.048059 
Q 273.781298 130.50881 275.363723 129.599678 
Q 276.867659 128.731931 279.257753 128.731931 
z
M 278.996969 128.722586 
L 278.996969 128.722586 
z
" style="fill:#ffa600;"/>
   </g>
   <g id="patch_69">
    <path clip-path="url(#p1303c6ab5d)" d="M 279.364461 100.044165 
Q 281.638407 100.044165 282.892728 102.772619 
Q 284.14705 105.495141 284.28526 108.959091 
L 282.704971 108.959091 
Q 282.436375 106.331471 281.633192 104.795233 
Q 280.830009 103.253064 279.380108 103.253064 
Q 277.612063 103.253064 276.524636 106.082352 
Q 275.43721 108.905708 275.43721 114.742227 
Q 275.43721 119.528884 276.417719 122.506457 
Q 277.400836 125.478099 279.348815 125.478099 
Q 281.14033 125.478099 282.079115 122.346309 
Q 282.574585 120.697374 282.819712 118.004508 
L 284.4 118.004508 
Q 284.188773 122.304789 282.999646 125.217117 
Q 281.573214 128.722586 279.153235 128.722586 
Q 277.067046 128.722586 275.648437 125.845847 
Q 273.781298 122.049738 273.781298 114.113496 
Q 273.781298 108.093103 275.18426 104.23768 
Q 276.699355 100.044165 279.364461 100.044165 
z
M 279.038494 100.044165 
L 279.038494 100.044165 
z
" style="fill:#0000ff;"/>
   </g>
   <g id="patch_70">
    <path clip-path="url(#p1303c6ab5d)" d="M 284.4 28.8 
L 284.4 37.288468 
L 279.990032 37.288468 
L 279.990032 100.044165 
L 278.191266 100.044165 
L 278.191266 37.288468 
L 273.781298 37.288468 
L 273.781298 28.8 
L 284.4 28.8 
z
" style="fill:#ff0000;"/>
   </g>
   <g id="matplotlib.axis_1">
    <g id="xtick_1">
     <g id="text_1">
      <!-- 0 -->
      <g style="fill:#262626;" transform="translate(94.688414 162.986875)scale(0.2 -0.2)">
       <defs>
        <path d="M 1731 4475 
Q 2600 4475 2988 3759 
Q 3288 3206 3288 2244 
Q 3288 1331 3016 734 
Q 2622 -122 1728 -122 
Q 922 -122 528 578 
Q 200 1163 200 2147 
Q 200 2909 397 3456 
Q 766 4475 1731 4475 
z
M 1725 391 
Q 2163 391 2422 778 
Q 2681 1166 2681 2222 
Q 2681 2984 2493 3476 
Q 2306 3969 1766 3969 
Q 1269 3969 1039 3501 
Q 809 3034 809 2125 
Q 809 1441 956 1025 
Q 1181 391 1725 391 
z
" id="Helvetica-30" transform="scale(0.015625)"/>
       </defs>
       <use xlink:href="#Helvetica-30"/>
      </g>
     </g>
    </g>
    <g id="xtick_2">
     <g id="text_2">
      <!-- 10 -->
      <g style="fill:#262626;" transform="translate(200.903287 162.986875)scale(0.2 -0.2)">
       <defs>
        <path d="M 613 3169 
L 613 3600 
Q 1222 3659 1462 3798 
Q 1703 3938 1822 4456 
L 2266 4456 
L 2266 0 
L 1666 0 
L 1666 3169 
L 613 3169 
z
" id="Helvetica-31" transform="scale(0.015625)"/>
       </defs>
       <use xlink:href="#Helvetica-31"/>
       <use x="55.615234" xlink:href="#Helvetica-30"/>
      </g>
     </g>
    </g>
    <g id="text_3">
     <!-- Position -->
     <g style="fill:#262626;" transform="translate(145.20125 189.089219)scale(0.25 -0.25)">
      <defs>
       <path d="M 547 4591 
L 2613 4591 
Q 3225 4591 3600 4245 
Q 3975 3900 3975 3275 
Q 3975 2738 3640 2339 
Q 3306 1941 2613 1941 
L 1169 1941 
L 1169 0 
L 547 0 
L 547 4591 
z
M 3347 3272 
Q 3347 3778 2972 3959 
Q 2766 4056 2406 4056 
L 1169 4056 
L 1169 2466 
L 2406 2466 
Q 2825 2466 3086 2644 
Q 3347 2822 3347 3272 
z
" id="Helvetica-50" transform="scale(0.015625)"/>
       <path d="M 1741 363 
Q 2300 363 2508 786 
Q 2716 1209 2716 1728 
Q 2716 2197 2566 2491 
Q 2328 2953 1747 2953 
Q 1231 2953 997 2559 
Q 763 2166 763 1609 
Q 763 1075 997 719 
Q 1231 363 1741 363 
z
M 1763 3444 
Q 2409 3444 2856 3012 
Q 3303 2581 3303 1744 
Q 3303 934 2909 406 
Q 2516 -122 1688 -122 
Q 997 -122 590 345 
Q 184 813 184 1600 
Q 184 2444 612 2944 
Q 1041 3444 1763 3444 
z
M 1744 3428 
L 1744 3428 
z
" id="Helvetica-6f" transform="scale(0.015625)"/>
       <path d="M 747 1050 
Q 772 769 888 619 
Q 1100 347 1625 347 
Q 1938 347 2175 483 
Q 2413 619 2413 903 
Q 2413 1119 2222 1231 
Q 2100 1300 1741 1391 
L 1294 1503 
Q 866 1609 663 1741 
Q 300 1969 300 2372 
Q 300 2847 642 3140 
Q 984 3434 1563 3434 
Q 2319 3434 2653 2991 
Q 2863 2709 2856 2384 
L 2325 2384 
Q 2309 2575 2191 2731 
Q 1997 2953 1519 2953 
Q 1200 2953 1036 2831 
Q 872 2709 872 2509 
Q 872 2291 1088 2159 
Q 1213 2081 1456 2022 
L 1828 1931 
Q 2434 1784 2641 1647 
Q 2969 1431 2969 969 
Q 2969 522 2630 197 
Q 2291 -128 1597 -128 
Q 850 -128 539 211 
Q 228 550 206 1050 
L 747 1050 
z
M 1578 3428 
L 1578 3428 
z
" id="Helvetica-73" transform="scale(0.015625)"/>
       <path d="M 413 3331 
L 984 3331 
L 984 0 
L 413 0 
L 413 3331 
z
M 413 4591 
L 984 4591 
L 984 3953 
L 413 3953 
L 413 4591 
z
" id="Helvetica-69" transform="scale(0.015625)"/>
       <path d="M 525 4281 
L 1094 4281 
L 1094 3347 
L 1628 3347 
L 1628 2888 
L 1094 2888 
L 1094 703 
Q 1094 528 1213 469 
Q 1278 434 1431 434 
Q 1472 434 1519 436 
Q 1566 438 1628 444 
L 1628 0 
Q 1531 -28 1426 -40 
Q 1322 -53 1200 -53 
Q 806 -53 665 148 
Q 525 350 525 672 
L 525 2888 
L 72 2888 
L 72 3347 
L 525 3347 
L 525 4281 
z
" id="Helvetica-74" transform="scale(0.015625)"/>
       <path d="M 413 3347 
L 947 3347 
L 947 2872 
Q 1184 3166 1450 3294 
Q 1716 3422 2041 3422 
Q 2753 3422 3003 2925 
Q 3141 2653 3141 2147 
L 3141 0 
L 2569 0 
L 2569 2109 
Q 2569 2416 2478 2603 
Q 2328 2916 1934 2916 
Q 1734 2916 1606 2875 
Q 1375 2806 1200 2600 
Q 1059 2434 1017 2257 
Q 975 2081 975 1753 
L 975 0 
L 413 0 
L 413 3347 
z
M 1734 3428 
L 1734 3428 
z
" id="Helvetica-6e" transform="scale(0.015625)"/>
      </defs>
      <use xlink:href="#Helvetica-50"/>
      <use x="66.699219" xlink:href="#Helvetica-6f"/>
      <use x="122.314453" xlink:href="#Helvetica-73"/>
      <use x="172.314453" xlink:href="#Helvetica-69"/>
      <use x="194.53125" xlink:href="#Helvetica-74"/>
      <use x="222.314453" xlink:href="#Helvetica-69"/>
      <use x="244.53125" xlink:href="#Helvetica-6f"/>
      <use x="300.146484" xlink:href="#Helvetica-6e"/>
     </g>
    </g>
   </g>
   <g id="matplotlib.axis_2">
    <g id="ytick_1">
     <g id="text_4">
      <!-- 0 -->
      <g style="fill:#262626;" transform="translate(76.818125 148.813438)scale(0.2 -0.2)">
       <use xlink:href="#Helvetica-30"/>
      </g>
     </g>
    </g>
    <g id="ytick_2">
     <g id="text_5">
      <!-- 0.25 -->
      <g style="fill:#262626;" transform="translate(49.018125 120.603437)scale(0.2 -0.2)">
       <defs>
        <path d="M 547 681 
L 1200 681 
L 1200 0 
L 547 0 
L 547 681 
z
" id="Helvetica-2e" transform="scale(0.015625)"/>
        <path d="M 200 0 
Q 231 578 439 1006 
Q 647 1434 1250 1784 
L 1850 2131 
Q 2253 2366 2416 2531 
Q 2672 2791 2672 3125 
Q 2672 3516 2437 3745 
Q 2203 3975 1813 3975 
Q 1234 3975 1013 3538 
Q 894 3303 881 2888 
L 309 2888 
Q 319 3472 525 3841 
Q 891 4491 1816 4491 
Q 2584 4491 2939 4075 
Q 3294 3659 3294 3150 
Q 3294 2613 2916 2231 
Q 2697 2009 2131 1694 
L 1703 1456 
Q 1397 1288 1222 1134 
Q 909 863 828 531 
L 3272 531 
L 3272 0 
L 200 0 
z
" id="Helvetica-32" transform="scale(0.015625)"/>
        <path d="M 791 1141 
Q 847 659 1238 475 
Q 1438 381 1700 381 
Q 2200 381 2440 700 
Q 2681 1019 2681 1406 
Q 2681 1875 2395 2131 
Q 2109 2388 1709 2388 
Q 1419 2388 1211 2275 
Q 1003 2163 856 1963 
L 369 1991 
L 709 4400 
L 3034 4400 
L 3034 3856 
L 1131 3856 
L 941 2613 
Q 1097 2731 1238 2791 
Q 1488 2894 1816 2894 
Q 2431 2894 2859 2497 
Q 3288 2100 3288 1491 
Q 3288 856 2895 371 
Q 2503 -113 1644 -113 
Q 1097 -113 676 195 
Q 256 503 206 1141 
L 791 1141 
z
" id="Helvetica-35" transform="scale(0.015625)"/>
       </defs>
       <use xlink:href="#Helvetica-30"/>
       <use x="55.615234" xlink:href="#Helvetica-2e"/>
       <use x="83.398438" xlink:href="#Helvetica-32"/>
       <use x="139.013672" xlink:href="#Helvetica-35"/>
      </g>
     </g>
    </g>
    <g id="ytick_3">
     <g id="text_6">
      <!-- 0.50 -->
      <g style="fill:#262626;" transform="translate(49.018125 92.393438)scale(0.2 -0.2)">
       <use xlink:href="#Helvetica-30"/>
       <use x="55.615234" xlink:href="#Helvetica-2e"/>
       <use x="83.398438" xlink:href="#Helvetica-35"/>
       <use x="139.013672" xlink:href="#Helvetica-30"/>
      </g>
     </g>
    </g>
    <g id="ytick_4">
     <g id="text_7">
      <!-- 0.75 -->
      <g style="fill:#262626;" transform="translate(49.018125 64.183437)scale(0.2 -0.2)">
       <defs>
        <path d="M 3347 4400 
L 3347 3909 
Q 3131 3700 2773 3181 
Q 2416 2663 2141 2063 
Q 1869 1478 1728 997 
Q 1638 688 1494 0 
L 872 0 
Q 1084 1281 1809 2550 
Q 2238 3294 2709 3834 
L 234 3834 
L 234 4400 
L 3347 4400 
z
" id="Helvetica-37" transform="scale(0.015625)"/>
       </defs>
       <use xlink:href="#Helvetica-30"/>
       <use x="55.615234" xlink:href="#Helvetica-2e"/>
       <use x="83.398438" xlink:href="#Helvetica-37"/>
       <use x="139.013672" xlink:href="#Helvetica-35"/>
      </g>
     </g>
    </g>
    <g id="ytick_5">
     <g id="text_8">
      <!-- 1.0 -->
      <g style="fill:#262626;" transform="translate(60.14 35.973437)scale(0.2 -0.2)">
       <use xlink:href="#Helvetica-31"/>
       <use x="55.615234" xlink:href="#Helvetica-2e"/>
       <use x="83.398438" xlink:href="#Helvetica-30"/>
      </g>
     </g>
    </g>
    <g id="text_9">
     <!-- Probability -->
     <g style="fill:#262626;" transform="translate(39.65875 143.579375)rotate(-90)scale(0.25 -0.25)">
      <defs>
       <path d="M 428 3347 
L 963 3347 
L 963 2769 
Q 1028 2938 1284 3180 
Q 1541 3422 1875 3422 
Q 1891 3422 1928 3419 
Q 1966 3416 2056 3406 
L 2056 2813 
Q 2006 2822 1964 2825 
Q 1922 2828 1872 2828 
Q 1447 2828 1219 2554 
Q 991 2281 991 1925 
L 991 0 
L 428 0 
L 428 3347 
z
" id="Helvetica-72" transform="scale(0.015625)"/>
       <path d="M 369 4606 
L 916 4606 
L 916 2941 
Q 1100 3181 1356 3307 
Q 1613 3434 1913 3434 
Q 2538 3434 2927 3004 
Q 3316 2575 3316 1738 
Q 3316 944 2931 419 
Q 2547 -106 1866 -106 
Q 1484 -106 1222 78 
Q 1066 188 888 428 
L 888 0 
L 369 0 
L 369 4606 
z
M 1831 391 
Q 2288 391 2514 753 
Q 2741 1116 2741 1709 
Q 2741 2238 2514 2584 
Q 2288 2931 1847 2931 
Q 1463 2931 1173 2647 
Q 884 2363 884 1709 
Q 884 1238 1003 944 
Q 1225 391 1831 391 
z
" id="Helvetica-62" transform="scale(0.015625)"/>
       <path d="M 844 891 
Q 844 647 1022 506 
Q 1200 366 1444 366 
Q 1741 366 2019 503 
Q 2488 731 2488 1250 
L 2488 1703 
Q 2384 1638 2221 1594 
Q 2059 1550 1903 1531 
L 1563 1488 
Q 1256 1447 1103 1359 
Q 844 1213 844 891 
z
M 2206 2028 
Q 2400 2053 2466 2191 
Q 2503 2266 2503 2406 
Q 2503 2694 2298 2823 
Q 2094 2953 1713 2953 
Q 1272 2953 1088 2716 
Q 984 2584 953 2325 
L 428 2325 
Q 444 2944 830 3186 
Q 1216 3428 1725 3428 
Q 2316 3428 2684 3203 
Q 3050 2978 3050 2503 
L 3050 575 
Q 3050 488 3086 434 
Q 3122 381 3238 381 
Q 3275 381 3322 386 
Q 3369 391 3422 400 
L 3422 -16 
Q 3291 -53 3222 -62 
Q 3153 -72 3034 -72 
Q 2744 -72 2613 134 
Q 2544 244 2516 444 
Q 2344 219 2022 53 
Q 1700 -113 1313 -113 
Q 847 -113 551 170 
Q 256 453 256 878 
Q 256 1344 547 1600 
Q 838 1856 1309 1916 
L 2206 2028 
z
M 1741 3428 
L 1741 3428 
z
" id="Helvetica-61" transform="scale(0.015625)"/>
       <path d="M 428 4591 
L 991 4591 
L 991 0 
L 428 0 
L 428 4591 
z
" id="Helvetica-6c" transform="scale(0.015625)"/>
       <path d="M 2503 3347 
L 3125 3347 
Q 3006 3025 2597 1878 
Q 2291 1016 2084 472 
Q 1597 -809 1397 -1090 
Q 1197 -1372 709 -1372 
Q 591 -1372 527 -1362 
Q 463 -1353 369 -1328 
L 369 -816 
Q 516 -856 581 -865 
Q 647 -875 697 -875 
Q 853 -875 926 -823 
Q 1000 -772 1050 -697 
Q 1066 -672 1162 -440 
Q 1259 -209 1303 -97 
L 66 3347 
L 703 3347 
L 1600 622 
L 2503 3347 
z
M 1597 3428 
L 1597 3428 
z
" id="Helvetica-79" transform="scale(0.015625)"/>
      </defs>
      <use xlink:href="#Helvetica-50"/>
      <use x="66.699219" xlink:href="#Helvetica-72"/>
      <use x="100" xlink:href="#Helvetica-6f"/>
      <use x="155.615234" xlink:href="#Helvetica-62"/>
      <use x="211.230469" xlink:href="#Helvetica-61"/>
      <use x="266.845703" xlink:href="#Helvetica-62"/>
      <use x="322.460938" xlink:href="#Helvetica-69"/>
      <use x="344.677734" xlink:href="#Helvetica-6c"/>
      <use x="366.894531" xlink:href="#Helvetica-69"/>
      <use x="389.111328" xlink:href="#Helvetica-74"/>
      <use x="416.894531" xlink:href="#Helvetica-79"/>
     </g>
    </g>
   </g>
   <g id="patch_71">
    <path d="M 94.94 141.64 
L 94.94 28.8 
" style="fill:none;stroke:#000000;stroke-linecap:square;stroke-linejoin:miter;"/>
   </g>
  </g>
 </g>
 <defs>
  <clipPath id="p1303c6ab5d">
   <rect height="112.84" width="189.46" x="94.94" y="28.8"/>
  </clipPath>
 </defs>
</svg>
