<?xml version="1.0" encoding="utf-8" standalone="no"?>
<!DOCTYPE svg PUBLIC "-//W3C//DTD SVG 1.1//EN"
  "http://www.w3.org/Graphics/SVG/1.1/DTD/svg11.dtd">
<svg height="288pt" version="1.1" viewBox="0 0 432 288" width="432pt" xmlns="http://www.w3.org/2000/svg" xmlns:xlink="http://www.w3.org/1999/xlink">
 <metadata>
  <rdf:RDF xmlns:cc="http://creativecommons.org/ns#" xmlns:dc="http://purl.org/dc/elements/1.1/" xmlns:rdf="http://www.w3.org/1999/02/22-rdf-syntax-ns#">
   <cc:Work>
    <dc:type rdf:resource="http://purl.org/dc/dcmitype/StillImage"/>
    <dc:date>2022-01-20T11:48:53.651239</dc:date>
    <dc:format>image/svg+xml</dc:format>
    <dc:creator>
     <cc:Agent>
      <dc:title>Matplotlib v3.4.2, https://matplotlib.org/</dc:title>
     </cc:Agent>
    </dc:creator>
   </cc:Work>
  </rdf:RDF>
 </metadata>
 <defs>
  <style type="text/css">*{stroke-linecap:butt;stroke-linejoin:round;}</style>
 </defs>
 <g id="figure_1">
  <g id="patch_1">
   <path d="M 0 288 
L 432 288 
L 432 0 
L 0 0 
z
" style="fill:#ffffff;"/>
  </g>
  <g id="axes_1">
   <g id="patch_2">
    <path d="M 96.52 211.94 
L 410.4 211.94 
L 410.4 21.6 
L 96.52 21.6 
z
" style="fill:#ffffff;"/>
   </g>
   <g id="matplotlib.axis_1">
    <g id="xtick_1">
     <g id="line2d_1">
      <path clip-path="url(#p08e3fa204f)" d="M 110.787273 211.94 
L 110.787273 21.6 
" style="fill:none;stroke:#cccccc;stroke-linecap:round;stroke-width:0.8;"/>
     </g>
     <g id="text_1">
      <!-- 0 -->
      <g style="fill:#262626;" transform="translate(105.226335 239.786875)scale(0.2 -0.2)">
       <defs>
        <path d="M 1731 4475 
Q 2600 4475 2988 3759 
Q 3288 3206 3288 2244 
Q 3288 1331 3016 734 
Q 2622 -122 1728 -122 
Q 922 -122 528 578 
Q 200 1163 200 2147 
Q 200 2909 397 3456 
Q 766 4475 1731 4475 
z
M 1725 391 
Q 2163 391 2422 778 
Q 2681 1166 2681 2222 
Q 2681 2984 2493 3476 
Q 2306 3969 1766 3969 
Q 1269 3969 1039 3501 
Q 809 3034 809 2125 
Q 809 1441 956 1025 
Q 1181 391 1725 391 
z
" id="Helvetica-30" transform="scale(0.015625)"/>
       </defs>
       <use xlink:href="#Helvetica-30"/>
      </g>
     </g>
    </g>
    <g id="xtick_2">
     <g id="line2d_2">
      <path clip-path="url(#p08e3fa204f)" d="M 159.984765 211.94 
L 159.984765 21.6 
" style="fill:none;stroke:#cccccc;stroke-linecap:round;stroke-width:0.8;"/>
     </g>
     <g id="text_2">
      <!-- 10 -->
      <g style="fill:#262626;" transform="translate(148.86289 239.786875)scale(0.2 -0.2)">
       <defs>
        <path d="M 613 3169 
L 613 3600 
Q 1222 3659 1462 3798 
Q 1703 3938 1822 4456 
L 2266 4456 
L 2266 0 
L 1666 0 
L 1666 3169 
L 613 3169 
z
" id="Helvetica-31" transform="scale(0.015625)"/>
       </defs>
       <use xlink:href="#Helvetica-31"/>
       <use x="55.615234" xlink:href="#Helvetica-30"/>
      </g>
     </g>
    </g>
    <g id="xtick_3">
     <g id="line2d_3">
      <path clip-path="url(#p08e3fa204f)" d="M 209.182257 211.94 
L 209.182257 21.6 
" style="fill:none;stroke:#cccccc;stroke-linecap:round;stroke-width:0.8;"/>
     </g>
     <g id="text_3">
      <!-- 20 -->
      <g style="fill:#262626;" transform="translate(198.060382 239.786875)scale(0.2 -0.2)">
       <defs>
        <path d="M 200 0 
Q 231 578 439 1006 
Q 647 1434 1250 1784 
L 1850 2131 
Q 2253 2366 2416 2531 
Q 2672 2791 2672 3125 
Q 2672 3516 2437 3745 
Q 2203 3975 1813 3975 
Q 1234 3975 1013 3538 
Q 894 3303 881 2888 
L 309 2888 
Q 319 3472 525 3841 
Q 891 4491 1816 4491 
Q 2584 4491 2939 4075 
Q 3294 3659 3294 3150 
Q 3294 2613 2916 2231 
Q 2697 2009 2131 1694 
L 1703 1456 
Q 1397 1288 1222 1134 
Q 909 863 828 531 
L 3272 531 
L 3272 0 
L 200 0 
z
" id="Helvetica-32" transform="scale(0.015625)"/>
       </defs>
       <use xlink:href="#Helvetica-32"/>
       <use x="55.615234" xlink:href="#Helvetica-30"/>
      </g>
     </g>
    </g>
    <g id="xtick_4">
     <g id="line2d_4">
      <path clip-path="url(#p08e3fa204f)" d="M 258.379749 211.94 
L 258.379749 21.6 
" style="fill:none;stroke:#cccccc;stroke-linecap:round;stroke-width:0.8;"/>
     </g>
     <g id="text_4">
      <!-- 30 -->
      <g style="fill:#262626;" transform="translate(247.257874 239.786875)scale(0.2 -0.2)">
       <defs>
        <path d="M 1663 -122 
Q 869 -122 511 314 
Q 153 750 153 1375 
L 741 1375 
Q 778 941 903 744 
Q 1122 391 1694 391 
Q 2138 391 2406 628 
Q 2675 866 2675 1241 
Q 2675 1703 2392 1887 
Q 2109 2072 1606 2072 
Q 1550 2072 1492 2070 
Q 1434 2069 1375 2066 
L 1375 2563 
Q 1463 2553 1522 2550 
Q 1581 2547 1650 2547 
Q 1966 2547 2169 2647 
Q 2525 2822 2525 3272 
Q 2525 3606 2287 3787 
Q 2050 3969 1734 3969 
Q 1172 3969 956 3594 
Q 838 3388 822 3006 
L 266 3006 
Q 266 3506 466 3856 
Q 809 4481 1675 4481 
Q 2359 4481 2734 4176 
Q 3109 3872 3109 3294 
Q 3109 2881 2888 2625 
Q 2750 2466 2531 2375 
Q 2884 2278 3082 2001 
Q 3281 1725 3281 1325 
Q 3281 684 2859 281 
Q 2438 -122 1663 -122 
z
" id="Helvetica-33" transform="scale(0.015625)"/>
       </defs>
       <use xlink:href="#Helvetica-33"/>
       <use x="55.615234" xlink:href="#Helvetica-30"/>
      </g>
     </g>
    </g>
    <g id="xtick_5">
     <g id="line2d_5">
      <path clip-path="url(#p08e3fa204f)" d="M 307.577241 211.94 
L 307.577241 21.6 
" style="fill:none;stroke:#cccccc;stroke-linecap:round;stroke-width:0.8;"/>
     </g>
     <g id="text_5">
      <!-- 40 -->
      <g style="fill:#262626;" transform="translate(296.455366 239.786875)scale(0.2 -0.2)">
       <defs>
        <path d="M 2116 1584 
L 2116 3613 
L 681 1584 
L 2116 1584 
z
M 2125 0 
L 2125 1094 
L 163 1094 
L 163 1644 
L 2213 4488 
L 2688 4488 
L 2688 1584 
L 3347 1584 
L 3347 1094 
L 2688 1094 
L 2688 0 
L 2125 0 
z
" id="Helvetica-34" transform="scale(0.015625)"/>
       </defs>
       <use xlink:href="#Helvetica-34"/>
       <use x="55.615234" xlink:href="#Helvetica-30"/>
      </g>
     </g>
    </g>
    <g id="xtick_6">
     <g id="line2d_6">
      <path clip-path="url(#p08e3fa204f)" d="M 356.774734 211.94 
L 356.774734 21.6 
" style="fill:none;stroke:#cccccc;stroke-linecap:round;stroke-width:0.8;"/>
     </g>
     <g id="text_6">
      <!-- 50 -->
      <g style="fill:#262626;" transform="translate(345.652859 239.786875)scale(0.2 -0.2)">
       <defs>
        <path d="M 791 1141 
Q 847 659 1238 475 
Q 1438 381 1700 381 
Q 2200 381 2440 700 
Q 2681 1019 2681 1406 
Q 2681 1875 2395 2131 
Q 2109 2388 1709 2388 
Q 1419 2388 1211 2275 
Q 1003 2163 856 1963 
L 369 1991 
L 709 4400 
L 3034 4400 
L 3034 3856 
L 1131 3856 
L 941 2613 
Q 1097 2731 1238 2791 
Q 1488 2894 1816 2894 
Q 2431 2894 2859 2497 
Q 3288 2100 3288 1491 
Q 3288 856 2895 371 
Q 2503 -113 1644 -113 
Q 1097 -113 676 195 
Q 256 503 206 1141 
L 791 1141 
z
" id="Helvetica-35" transform="scale(0.015625)"/>
       </defs>
       <use xlink:href="#Helvetica-35"/>
       <use x="55.615234" xlink:href="#Helvetica-30"/>
      </g>
     </g>
    </g>
    <g id="text_7">
     <!-- Position -->
     <g style="fill:#262626;" transform="translate(217.885 262.3025)scale(0.2 -0.2)">
      <defs>
       <path d="M 547 4591 
L 2613 4591 
Q 3225 4591 3600 4245 
Q 3975 3900 3975 3275 
Q 3975 2738 3640 2339 
Q 3306 1941 2613 1941 
L 1169 1941 
L 1169 0 
L 547 0 
L 547 4591 
z
M 3347 3272 
Q 3347 3778 2972 3959 
Q 2766 4056 2406 4056 
L 1169 4056 
L 1169 2466 
L 2406 2466 
Q 2825 2466 3086 2644 
Q 3347 2822 3347 3272 
z
" id="Helvetica-50" transform="scale(0.015625)"/>
       <path d="M 1741 363 
Q 2300 363 2508 786 
Q 2716 1209 2716 1728 
Q 2716 2197 2566 2491 
Q 2328 2953 1747 2953 
Q 1231 2953 997 2559 
Q 763 2166 763 1609 
Q 763 1075 997 719 
Q 1231 363 1741 363 
z
M 1763 3444 
Q 2409 3444 2856 3012 
Q 3303 2581 3303 1744 
Q 3303 934 2909 406 
Q 2516 -122 1688 -122 
Q 997 -122 590 345 
Q 184 813 184 1600 
Q 184 2444 612 2944 
Q 1041 3444 1763 3444 
z
M 1744 3428 
L 1744 3428 
z
" id="Helvetica-6f" transform="scale(0.015625)"/>
       <path d="M 747 1050 
Q 772 769 888 619 
Q 1100 347 1625 347 
Q 1938 347 2175 483 
Q 2413 619 2413 903 
Q 2413 1119 2222 1231 
Q 2100 1300 1741 1391 
L 1294 1503 
Q 866 1609 663 1741 
Q 300 1969 300 2372 
Q 300 2847 642 3140 
Q 984 3434 1563 3434 
Q 2319 3434 2653 2991 
Q 2863 2709 2856 2384 
L 2325 2384 
Q 2309 2575 2191 2731 
Q 1997 2953 1519 2953 
Q 1200 2953 1036 2831 
Q 872 2709 872 2509 
Q 872 2291 1088 2159 
Q 1213 2081 1456 2022 
L 1828 1931 
Q 2434 1784 2641 1647 
Q 2969 1431 2969 969 
Q 2969 522 2630 197 
Q 2291 -128 1597 -128 
Q 850 -128 539 211 
Q 228 550 206 1050 
L 747 1050 
z
M 1578 3428 
L 1578 3428 
z
" id="Helvetica-73" transform="scale(0.015625)"/>
       <path d="M 413 3331 
L 984 3331 
L 984 0 
L 413 0 
L 413 3331 
z
M 413 4591 
L 984 4591 
L 984 3953 
L 413 3953 
L 413 4591 
z
" id="Helvetica-69" transform="scale(0.015625)"/>
       <path d="M 525 4281 
L 1094 4281 
L 1094 3347 
L 1628 3347 
L 1628 2888 
L 1094 2888 
L 1094 703 
Q 1094 528 1213 469 
Q 1278 434 1431 434 
Q 1472 434 1519 436 
Q 1566 438 1628 444 
L 1628 0 
Q 1531 -28 1426 -40 
Q 1322 -53 1200 -53 
Q 806 -53 665 148 
Q 525 350 525 672 
L 525 2888 
L 72 2888 
L 72 3347 
L 525 3347 
L 525 4281 
z
" id="Helvetica-74" transform="scale(0.015625)"/>
       <path d="M 413 3347 
L 947 3347 
L 947 2872 
Q 1184 3166 1450 3294 
Q 1716 3422 2041 3422 
Q 2753 3422 3003 2925 
Q 3141 2653 3141 2147 
L 3141 0 
L 2569 0 
L 2569 2109 
Q 2569 2416 2478 2603 
Q 2328 2916 1934 2916 
Q 1734 2916 1606 2875 
Q 1375 2806 1200 2600 
Q 1059 2434 1017 2257 
Q 975 2081 975 1753 
L 975 0 
L 413 0 
L 413 3347 
z
M 1734 3428 
L 1734 3428 
z
" id="Helvetica-6e" transform="scale(0.015625)"/>
      </defs>
      <use xlink:href="#Helvetica-50"/>
      <use x="66.699219" xlink:href="#Helvetica-6f"/>
      <use x="122.314453" xlink:href="#Helvetica-73"/>
      <use x="172.314453" xlink:href="#Helvetica-69"/>
      <use x="194.53125" xlink:href="#Helvetica-74"/>
      <use x="222.314453" xlink:href="#Helvetica-69"/>
      <use x="244.53125" xlink:href="#Helvetica-6f"/>
      <use x="300.146484" xlink:href="#Helvetica-6e"/>
     </g>
    </g>
   </g>
   <g id="matplotlib.axis_2">
    <g id="ytick_1">
     <g id="line2d_7">
      <path clip-path="url(#p08e3fa204f)" d="M 96.52 137.124463 
L 410.4 137.124463 
" style="fill:none;stroke:#cccccc;stroke-linecap:round;stroke-width:0.8;"/>
     </g>
     <g id="text_8">
      <!-- 0.1 -->
      <g style="fill:#262626;" transform="translate(55.22 144.2979)scale(0.2 -0.2)">
       <defs>
        <path d="M 547 681 
L 1200 681 
L 1200 0 
L 547 0 
L 547 681 
z
" id="Helvetica-2e" transform="scale(0.015625)"/>
       </defs>
       <use xlink:href="#Helvetica-30"/>
       <use x="55.615234" xlink:href="#Helvetica-2e"/>
       <use x="83.398438" xlink:href="#Helvetica-31"/>
      </g>
     </g>
    </g>
    <g id="ytick_2">
     <g id="line2d_8">
      <path clip-path="url(#p08e3fa204f)" d="M 96.52 51.423146 
L 410.4 51.423146 
" style="fill:none;stroke:#cccccc;stroke-linecap:round;stroke-width:0.8;"/>
     </g>
     <g id="text_9">
      <!-- 0.2 -->
      <g style="fill:#262626;" transform="translate(55.22 58.596584)scale(0.2 -0.2)">
       <use xlink:href="#Helvetica-30"/>
       <use x="55.615234" xlink:href="#Helvetica-2e"/>
       <use x="83.398438" xlink:href="#Helvetica-32"/>
      </g>
     </g>
    </g>
    <g id="text_10">
     <!-- Std Dev of 1 Monomer Mismatch -->
     <g style="fill:#262626;" transform="translate(47.05125 262.366875)rotate(-90)scale(0.2 -0.2)">
      <defs>
       <path d="M 894 1481 
Q 916 1091 1078 847 
Q 1388 391 2169 391 
Q 2519 391 2806 491 
Q 3363 684 3363 1184 
Q 3363 1559 3128 1719 
Q 2891 1875 2384 1991 
L 1763 2131 
Q 1153 2269 900 2434 
Q 463 2722 463 3294 
Q 463 3913 891 4309 
Q 1319 4706 2103 4706 
Q 2825 4706 3329 4357 
Q 3834 4009 3834 3244 
L 3250 3244 
Q 3203 3613 3050 3809 
Q 2766 4169 2084 4169 
Q 1534 4169 1293 3937 
Q 1053 3706 1053 3400 
Q 1053 3063 1334 2906 
Q 1519 2806 2169 2656 
L 2813 2509 
Q 3278 2403 3531 2219 
Q 3969 1897 3969 1284 
Q 3969 522 3414 194 
Q 2859 -134 2125 -134 
Q 1269 -134 784 303 
Q 300 738 309 1481 
L 894 1481 
z
M 2150 4716 
L 2150 4716 
z
" id="Helvetica-53" transform="scale(0.015625)"/>
       <path d="M 769 1634 
Q 769 1097 997 734 
Q 1225 372 1728 372 
Q 2119 372 2370 708 
Q 2622 1044 2622 1672 
Q 2622 2306 2362 2611 
Q 2103 2916 1722 2916 
Q 1297 2916 1033 2591 
Q 769 2266 769 1634 
z
M 1616 3406 
Q 2000 3406 2259 3244 
Q 2409 3150 2600 2916 
L 2600 4606 
L 3141 4606 
L 3141 0 
L 2634 0 
L 2634 466 
Q 2438 156 2169 18 
Q 1900 -119 1553 -119 
Q 994 -119 584 351 
Q 175 822 175 1603 
Q 175 2334 548 2870 
Q 922 3406 1616 3406 
z
" id="Helvetica-64" transform="scale(0.015625)"/>
       <path id="Helvetica-20" transform="scale(0.015625)"/>
       <path d="M 2250 531 
Q 2566 531 2769 597 
Q 3131 719 3363 1066 
Q 3547 1344 3628 1778 
Q 3675 2038 3675 2259 
Q 3675 3113 3336 3584 
Q 2997 4056 2244 4056 
L 1141 4056 
L 1141 531 
L 2250 531 
z
M 516 4591 
L 2375 4591 
Q 3322 4591 3844 3919 
Q 4309 3313 4309 2366 
Q 4309 1634 4034 1044 
Q 3550 0 2369 0 
L 516 0 
L 516 4591 
z
" id="Helvetica-44" transform="scale(0.015625)"/>
       <path d="M 1806 3422 
Q 2163 3422 2497 3255 
Q 2831 3088 3006 2822 
Q 3175 2569 3231 2231 
Q 3281 2000 3281 1494 
L 828 1494 
Q 844 984 1069 676 
Q 1294 369 1766 369 
Q 2206 369 2469 659 
Q 2619 828 2681 1050 
L 3234 1050 
Q 3213 866 3089 639 
Q 2966 413 2813 269 
Q 2556 19 2178 -69 
Q 1975 -119 1719 -119 
Q 1094 -119 659 336 
Q 225 791 225 1609 
Q 225 2416 662 2919 
Q 1100 3422 1806 3422 
z
M 2703 1941 
Q 2669 2306 2544 2525 
Q 2313 2931 1772 2931 
Q 1384 2931 1121 2651 
Q 859 2372 844 1941 
L 2703 1941 
z
M 1753 3428 
L 1753 3428 
z
" id="Helvetica-65" transform="scale(0.015625)"/>
       <path d="M 688 3347 
L 1581 622 
L 2516 3347 
L 3131 3347 
L 1869 0 
L 1269 0 
L 34 3347 
L 688 3347 
z
" id="Helvetica-76" transform="scale(0.015625)"/>
       <path d="M 553 3856 
Q 566 4206 675 4369 
Q 872 4656 1434 4656 
Q 1488 4656 1544 4653 
Q 1600 4650 1672 4644 
L 1672 4131 
Q 1584 4138 1545 4139 
Q 1506 4141 1472 4141 
Q 1216 4141 1166 4008 
Q 1116 3875 1116 3331 
L 1672 3331 
L 1672 2888 
L 1109 2888 
L 1109 0 
L 553 0 
L 553 2888 
L 88 2888 
L 88 3331 
L 553 3331 
L 553 3856 
z
" id="Helvetica-66" transform="scale(0.015625)"/>
       <path d="M 472 4591 
L 1363 4591 
L 2681 709 
L 3991 4591 
L 4872 4591 
L 4872 0 
L 4281 0 
L 4281 2709 
Q 4281 2850 4287 3175 
Q 4294 3500 4294 3872 
L 2984 0 
L 2369 0 
L 1050 3872 
L 1050 3731 
Q 1050 3563 1058 3217 
Q 1066 2872 1066 2709 
L 1066 0 
L 472 0 
L 472 4591 
z
" id="Helvetica-4d" transform="scale(0.015625)"/>
       <path d="M 413 3347 
L 969 3347 
L 969 2872 
Q 1169 3119 1331 3231 
Q 1609 3422 1963 3422 
Q 2363 3422 2606 3225 
Q 2744 3113 2856 2894 
Q 3044 3163 3297 3292 
Q 3550 3422 3866 3422 
Q 4541 3422 4784 2934 
Q 4916 2672 4916 2228 
L 4916 0 
L 4331 0 
L 4331 2325 
Q 4331 2659 4164 2784 
Q 3997 2909 3756 2909 
Q 3425 2909 3186 2687 
Q 2947 2466 2947 1947 
L 2947 0 
L 2375 0 
L 2375 2184 
Q 2375 2525 2294 2681 
Q 2166 2916 1816 2916 
Q 1497 2916 1236 2669 
Q 975 2422 975 1775 
L 975 0 
L 413 0 
L 413 3347 
z
" id="Helvetica-6d" transform="scale(0.015625)"/>
       <path d="M 428 3347 
L 963 3347 
L 963 2769 
Q 1028 2938 1284 3180 
Q 1541 3422 1875 3422 
Q 1891 3422 1928 3419 
Q 1966 3416 2056 3406 
L 2056 2813 
Q 2006 2822 1964 2825 
Q 1922 2828 1872 2828 
Q 1447 2828 1219 2554 
Q 991 2281 991 1925 
L 991 0 
L 428 0 
L 428 3347 
z
" id="Helvetica-72" transform="scale(0.015625)"/>
       <path d="M 844 891 
Q 844 647 1022 506 
Q 1200 366 1444 366 
Q 1741 366 2019 503 
Q 2488 731 2488 1250 
L 2488 1703 
Q 2384 1638 2221 1594 
Q 2059 1550 1903 1531 
L 1563 1488 
Q 1256 1447 1103 1359 
Q 844 1213 844 891 
z
M 2206 2028 
Q 2400 2053 2466 2191 
Q 2503 2266 2503 2406 
Q 2503 2694 2298 2823 
Q 2094 2953 1713 2953 
Q 1272 2953 1088 2716 
Q 984 2584 953 2325 
L 428 2325 
Q 444 2944 830 3186 
Q 1216 3428 1725 3428 
Q 2316 3428 2684 3203 
Q 3050 2978 3050 2503 
L 3050 575 
Q 3050 488 3086 434 
Q 3122 381 3238 381 
Q 3275 381 3322 386 
Q 3369 391 3422 400 
L 3422 -16 
Q 3291 -53 3222 -62 
Q 3153 -72 3034 -72 
Q 2744 -72 2613 134 
Q 2544 244 2516 444 
Q 2344 219 2022 53 
Q 1700 -113 1313 -113 
Q 847 -113 551 170 
Q 256 453 256 878 
Q 256 1344 547 1600 
Q 838 1856 1309 1916 
L 2206 2028 
z
M 1741 3428 
L 1741 3428 
z
" id="Helvetica-61" transform="scale(0.015625)"/>
       <path d="M 1703 3444 
Q 2269 3444 2623 3169 
Q 2978 2894 3050 2222 
L 2503 2222 
Q 2453 2531 2275 2736 
Q 2097 2941 1703 2941 
Q 1166 2941 934 2416 
Q 784 2075 784 1575 
Q 784 1072 996 728 
Q 1209 384 1666 384 
Q 2016 384 2220 598 
Q 2425 813 2503 1184 
L 3050 1184 
Q 2956 519 2581 211 
Q 2206 -97 1622 -97 
Q 966 -97 575 383 
Q 184 863 184 1581 
Q 184 2463 612 2953 
Q 1041 3444 1703 3444 
z
M 1616 3428 
L 1616 3428 
z
" id="Helvetica-63" transform="scale(0.015625)"/>
       <path d="M 413 4606 
L 975 4606 
L 975 2894 
Q 1175 3147 1334 3250 
Q 1606 3428 2013 3428 
Q 2741 3428 3000 2919 
Q 3141 2641 3141 2147 
L 3141 0 
L 2563 0 
L 2563 2109 
Q 2563 2478 2469 2650 
Q 2316 2925 1894 2925 
Q 1544 2925 1259 2684 
Q 975 2444 975 1775 
L 975 0 
L 413 0 
L 413 4606 
z
" id="Helvetica-68" transform="scale(0.015625)"/>
      </defs>
      <use xlink:href="#Helvetica-53"/>
      <use x="66.699219" xlink:href="#Helvetica-74"/>
      <use x="94.482422" xlink:href="#Helvetica-64"/>
      <use x="150.097656" xlink:href="#Helvetica-20"/>
      <use x="177.880859" xlink:href="#Helvetica-44"/>
      <use x="250.097656" xlink:href="#Helvetica-65"/>
      <use x="305.712891" xlink:href="#Helvetica-76"/>
      <use x="355.712891" xlink:href="#Helvetica-20"/>
      <use x="383.496094" xlink:href="#Helvetica-6f"/>
      <use x="439.111328" xlink:href="#Helvetica-66"/>
      <use x="466.894531" xlink:href="#Helvetica-20"/>
      <use x="494.677734" xlink:href="#Helvetica-31"/>
      <use x="550.292969" xlink:href="#Helvetica-20"/>
      <use x="578.076172" xlink:href="#Helvetica-4d"/>
      <use x="661.376953" xlink:href="#Helvetica-6f"/>
      <use x="716.992188" xlink:href="#Helvetica-6e"/>
      <use x="772.607422" xlink:href="#Helvetica-6f"/>
      <use x="828.222656" xlink:href="#Helvetica-6d"/>
      <use x="911.523438" xlink:href="#Helvetica-65"/>
      <use x="967.138672" xlink:href="#Helvetica-72"/>
      <use x="1000.439453" xlink:href="#Helvetica-20"/>
      <use x="1028.222656" xlink:href="#Helvetica-4d"/>
      <use x="1111.523438" xlink:href="#Helvetica-69"/>
      <use x="1133.740234" xlink:href="#Helvetica-73"/>
      <use x="1183.740234" xlink:href="#Helvetica-6d"/>
      <use x="1267.041016" xlink:href="#Helvetica-61"/>
      <use x="1322.65625" xlink:href="#Helvetica-74"/>
      <use x="1350.439453" xlink:href="#Helvetica-63"/>
      <use x="1400.439453" xlink:href="#Helvetica-68"/>
     </g>
    </g>
   </g>
   <g id="PolyCollection_1">
    <defs>
     <path d="M 110.787273 -95.508107 
L 110.787273 -88.990043 
L 115.707022 -86.655101 
L 120.626771 -84.711818 
L 125.54652 -89.127708 
L 130.46627 -87.810574 
L 135.386019 -88.098439 
L 140.305768 -85.17448 
L 145.225517 -88.379036 
L 150.145266 -87.542129 
L 155.065016 -87.238734 
L 159.984765 -91.816229 
L 164.904514 -93.560613 
L 169.824263 -96.854713 
L 174.744013 -95.495345 
L 179.663762 -96.088176 
L 184.583511 -116.573069 
L 189.50326 -126.271057 
L 194.423009 -109.109392 
L 199.342759 -105.905546 
L 204.262508 -110.024896 
L 209.182257 -111.895575 
L 214.102006 -97.000137 
L 219.021755 -95.467902 
L 223.941505 -110.075445 
L 228.861254 -123.046675 
L 233.781003 -120.032261 
L 238.700752 -128.238466 
L 243.620502 -133.585624 
L 248.540251 -149.374533 
L 253.46 -165.085977 
L 258.379749 -116.695778 
L 263.299498 -110.940436 
L 268.219248 -105.316814 
L 273.138997 -104.537587 
L 278.058746 -106.087605 
L 282.978495 -102.890834 
L 287.898245 -105.948051 
L 292.817994 -125.697112 
L 297.737743 -107.544036 
L 302.657492 -117.769982 
L 307.577241 -119.524857 
L 312.496991 -165.510632 
L 317.41674 -159.291531 
L 322.336489 -162.489293 
L 327.256238 -149.269418 
L 332.175987 -141.702536 
L 337.095737 -125.164418 
L 342.015486 -106.964213 
L 346.935235 -108.175676 
L 351.854984 -107.592805 
L 356.774734 -153.513987 
L 361.694483 -133.373435 
L 366.614232 -111.653798 
L 371.533981 -149.506941 
L 376.45373 -111.121911 
L 381.37348 -111.800433 
L 386.293229 -124.728162 
L 391.212978 -96.253684 
L 396.132727 -97.407027 
L 396.132727 -107.465601 
L 396.132727 -107.465601 
L 391.212978 -106.153719 
L 386.293229 -149.950778 
L 381.37348 -134.322714 
L 376.45373 -128.481023 
L 371.533981 -181.416982 
L 366.614232 -147.399508 
L 361.694483 -178.36601 
L 356.774734 -201.378197 
L 351.854984 -118.51947 
L 346.935235 -135.072324 
L 342.015486 -122.234266 
L 337.095737 -134.531878 
L 332.175987 -153.014599 
L 327.256238 -159.615151 
L 322.336489 -175.268898 
L 317.41674 -170.837662 
L 312.496991 -178.049208 
L 307.577241 -131.118183 
L 302.657492 -128.853309 
L 297.737743 -116.053266 
L 292.817994 -137.335431 
L 287.898245 -115.139472 
L 282.978495 -114.129618 
L 278.058746 -115.129688 
L 273.138997 -112.372512 
L 268.219248 -113.714356 
L 263.299498 -120.023407 
L 258.379749 -125.575925 
L 253.46 -179.332674 
L 248.540251 -164.131773 
L 243.620502 -144.787021 
L 238.700752 -139.181143 
L 233.781003 -129.632114 
L 228.861254 -131.959955 
L 223.941505 -117.79621 
L 219.021755 -102.259428 
L 214.102006 -103.662883 
L 209.182257 -120.473893 
L 204.262508 -121.184227 
L 199.342759 -115.828123 
L 194.423009 -122.546164 
L 189.50326 -147.590528 
L 184.583511 -135.834594 
L 179.663762 -103.655087 
L 174.744013 -107.651085 
L 169.824263 -110.169973 
L 164.904514 -102.378756 
L 159.984765 -99.216571 
L 155.065016 -94.05336 
L 150.145266 -93.387568 
L 145.225517 -94.18337 
L 140.305768 -89.739999 
L 135.386019 -95.25893 
L 130.46627 -93.431199 
L 125.54652 -94.581225 
L 120.626771 -90.609337 
L 115.707022 -92.663399 
L 110.787273 -95.508107 
z
" id="mcbe71d60d1" style="stroke:#808080;stroke-opacity:0.2;"/>
    </defs>
    <g clip-path="url(#p08e3fa204f)">
     <use style="fill:#808080;fill-opacity:0.2;stroke:#808080;stroke-opacity:0.2;" x="0" xlink:href="#mcbe71d60d1" y="288"/>
    </g>
   </g>
   <g id="PolyCollection_2">
    <defs>
     <path d="M 110.787273 -104.278166 
L 110.787273 -93.163496 
L 115.707022 -92.136092 
L 120.626771 -91.07161 
L 125.54652 -93.516508 
L 130.46627 -93.036493 
L 135.386019 -91.68564 
L 140.305768 -91.802485 
L 145.225517 -94.089919 
L 150.145266 -96.084427 
L 155.065016 -91.364731 
L 159.984765 -97.190214 
L 164.904514 -99.717373 
L 169.824263 -109.931513 
L 174.744013 -107.375835 
L 179.663762 -107.299656 
L 184.583511 -127.029848 
L 189.50326 -136.475683 
L 194.423009 -114.043995 
L 199.342759 -108.342094 
L 204.262508 -115.115637 
L 209.182257 -116.317108 
L 214.102006 -98.260456 
L 219.021755 -96.751157 
L 223.941505 -107.521113 
L 228.861254 -123.066591 
L 233.781003 -119.357222 
L 238.700752 -127.785671 
L 243.620502 -137.264713 
L 248.540251 -139.086649 
L 253.46 -166.793648 
L 258.379749 -121.934953 
L 263.299498 -124.80686 
L 268.219248 -110.0346 
L 273.138997 -112.733792 
L 278.058746 -117.130275 
L 282.978495 -115.507777 
L 287.898245 -116.766038 
L 292.817994 -125.486503 
L 297.737743 -110.650691 
L 302.657492 -128.083565 
L 307.577241 -116.701812 
L 312.496991 -164.644003 
L 317.41674 -146.14774 
L 322.336489 -152.802191 
L 327.256238 -141.663258 
L 332.175987 -133.105447 
L 337.095737 -129.827595 
L 342.015486 -132.707977 
L 346.935235 -130.395486 
L 351.854984 -118.645635 
L 356.774734 -144.608328 
L 361.694483 -137.138616 
L 366.614232 -135.54895 
L 371.533981 -143.95103 
L 376.45373 -131.46922 
L 381.37348 -129.436004 
L 386.293229 -130.259155 
L 391.212978 -112.357247 
L 396.132727 -109.624751 
L 396.132727 -136.31504 
L 396.132727 -136.31504 
L 391.212978 -136.824251 
L 386.293229 -165.21544 
L 381.37348 -173.579336 
L 376.45373 -168.115103 
L 371.533981 -195.058085 
L 366.614232 -182.949289 
L 361.694483 -183.536026 
L 356.774734 -187.269235 
L 351.854984 -130.153592 
L 346.935235 -164.385701 
L 342.015486 -168.077318 
L 337.095737 -140.684872 
L 332.175987 -145.198074 
L 327.256238 -155.875597 
L 322.336489 -166.374706 
L 317.41674 -158.961689 
L 312.496991 -182.560172 
L 307.577241 -130.886443 
L 302.657492 -147.022303 
L 297.737743 -122.941405 
L 292.817994 -136.932582 
L 287.898245 -131.400583 
L 282.978495 -139.3046 
L 278.058746 -131.352976 
L 273.138997 -125.887088 
L 268.219248 -123.957667 
L 263.299498 -144.761506 
L 258.379749 -134.643813 
L 253.46 -182.341054 
L 248.540251 -154.634979 
L 243.620502 -152.608035 
L 238.700752 -139.291434 
L 233.781003 -130.869995 
L 228.861254 -135.913688 
L 223.941505 -115.824511 
L 219.021755 -105.112323 
L 214.102006 -105.942246 
L 209.182257 -133.785526 
L 204.262508 -142.223389 
L 199.342759 -128.646626 
L 194.423009 -136.047218 
L 189.50326 -167.372746 
L 184.583511 -159.66263 
L 179.663762 -120.571982 
L 174.744013 -124.202743 
L 169.824263 -130.611565 
L 164.904514 -111.132878 
L 159.984765 -107.12647 
L 155.065016 -97.638508 
L 150.145266 -105.222244 
L 145.225517 -101.866522 
L 140.305768 -99.016495 
L 135.386019 -99.172364 
L 130.46627 -100.449038 
L 125.54652 -102.596837 
L 120.626771 -100.086737 
L 115.707022 -102.044391 
L 110.787273 -104.278166 
z
" id="m5dbb840a36" style="stroke:#ff7f0e;stroke-opacity:0.2;"/>
    </defs>
    <g clip-path="url(#p08e3fa204f)">
     <use style="fill:#ff7f0e;fill-opacity:0.2;stroke:#ff7f0e;stroke-opacity:0.2;" x="0" xlink:href="#m5dbb840a36" y="288"/>
    </g>
   </g>
   <g id="PolyCollection_3">
    <defs>
     <path d="M 110.787273 -99.130426 
L 110.787273 -92.965193 
L 115.707022 -89.786447 
L 120.626771 -86.772652 
L 125.54652 -87.219663 
L 130.46627 -89.96988 
L 135.386019 -87.512321 
L 140.305768 -88.742997 
L 145.225517 -90.890301 
L 150.145266 -89.010373 
L 155.065016 -88.93882 
L 159.984765 -93.48289 
L 164.904514 -96.492294 
L 169.824263 -98.394209 
L 174.744013 -98.96942 
L 179.663762 -99.452828 
L 184.583511 -111.316724 
L 189.50326 -117.341528 
L 194.423009 -108.498857 
L 199.342759 -106.127554 
L 204.262508 -106.963818 
L 209.182257 -117.325279 
L 214.102006 -101.878459 
L 219.021755 -99.36826 
L 223.941505 -109.188515 
L 228.861254 -126.51534 
L 233.781003 -122.641081 
L 238.700752 -126.794601 
L 243.620502 -132.707688 
L 248.540251 -149.32028 
L 253.46 -162.207787 
L 258.379749 -120.687267 
L 263.299498 -116.90996 
L 268.219248 -112.464613 
L 273.138997 -111.548892 
L 278.058746 -103.692849 
L 282.978495 -111.49173 
L 287.898245 -102.032948 
L 292.817994 -123.880782 
L 297.737743 -122.087955 
L 302.657492 -112.562327 
L 307.577241 -129.263227 
L 312.496991 -164.519186 
L 317.41674 -143.59883 
L 322.336489 -151.021275 
L 327.256238 -133.385469 
L 332.175987 -133.430863 
L 337.095737 -123.08735 
L 342.015486 -109.567875 
L 346.935235 -129.797812 
L 351.854984 -104.465417 
L 356.774734 -190.66098 
L 361.694483 -130.623005 
L 366.614232 -112.474727 
L 371.533981 -177.771404 
L 376.45373 -113.52465 
L 381.37348 -109.301962 
L 386.293229 -147.195412 
L 391.212978 -100.184713 
L 396.132727 -103.215684 
L 396.132727 -120.90321 
L 396.132727 -120.90321 
L 391.212978 -110.481738 
L 386.293229 -185.027648 
L 381.37348 -122.831185 
L 376.45373 -128.085221 
L 371.533981 -221.665437 
L 366.614232 -147.702779 
L 361.694483 -176.096488 
L 356.774734 -257.748182 
L 351.854984 -116.995172 
L 346.935235 -164.868645 
L 342.015486 -120.203038 
L 337.095737 -132.697886 
L 332.175987 -144.801425 
L 327.256238 -144.875946 
L 322.336489 -162.378221 
L 317.41674 -155.856779 
L 312.496991 -177.741899 
L 307.577241 -139.075622 
L 302.657492 -119.869084 
L 297.737743 -130.966259 
L 292.817994 -134.536322 
L 287.898245 -110.453309 
L 282.978495 -120.381619 
L 278.058746 -111.718564 
L 273.138997 -118.05181 
L 268.219248 -124.772322 
L 263.299498 -124.315271 
L 258.379749 -130.190252 
L 253.46 -175.667393 
L 248.540251 -163.635617 
L 243.620502 -143.309072 
L 238.700752 -137.382452 
L 233.781003 -132.017165 
L 228.861254 -136.090163 
L 223.941505 -116.856794 
L 219.021755 -105.748183 
L 214.102006 -108.665282 
L 209.182257 -126.292168 
L 204.262508 -130.468523 
L 199.342759 -128.421874 
L 194.423009 -118.163262 
L 189.50326 -136.109465 
L 184.583511 -129.583767 
L 179.663762 -108.890215 
L 174.744013 -111.127182 
L 169.824263 -113.729928 
L 164.904514 -104.631271 
L 159.984765 -100.295141 
L 155.065016 -95.312409 
L 150.145266 -95.2401 
L 145.225517 -96.987581 
L 140.305768 -94.91596 
L 135.386019 -92.527352 
L 130.46627 -96.24678 
L 125.54652 -92.352833 
L 120.626771 -92.301867 
L 115.707022 -95.50769 
L 110.787273 -99.130426 
z
" id="mf4223a32e1" style="stroke:#1f77b4;stroke-opacity:0.2;"/>
    </defs>
    <g clip-path="url(#p08e3fa204f)">
     <use style="fill:#1f77b4;fill-opacity:0.2;stroke:#1f77b4;stroke-opacity:0.2;" x="0" xlink:href="#mf4223a32e1" y="288"/>
    </g>
   </g>
   <g id="line2d_9">
    <path clip-path="url(#p08e3fa204f)" d="M 110.787273 195.750925 
L 115.707022 198.34075 
L 120.626771 200.339422 
L 125.54652 196.145533 
L 130.46627 197.379114 
L 135.386019 196.321315 
L 140.305768 200.542761 
L 145.225517 196.718797 
L 150.145266 197.535152 
L 155.065016 197.353953 
L 159.984765 192.4836 
L 164.904514 190.030316 
L 169.824263 184.487657 
L 174.744013 186.426785 
L 179.663762 188.128369 
L 184.583511 161.796168 
L 189.50326 151.069208 
L 194.423009 172.172222 
L 199.342759 177.133166 
L 204.262508 172.395439 
L 209.182257 171.815266 
L 214.102006 187.66849 
L 219.021755 189.136335 
L 223.941505 174.064172 
L 228.861254 160.496685 
L 233.781003 163.167812 
L 238.700752 154.290195 
L 243.620502 148.813677 
L 248.540251 131.246847 
L 253.46 115.790674 
L 258.379749 166.864148 
L 263.299498 172.518078 
L 268.219248 178.484415 
L 273.138997 179.544951 
L 278.058746 177.391353 
L 282.978495 179.489774 
L 287.898245 177.456238 
L 292.817994 156.483729 
L 297.737743 176.201349 
L 302.657492 164.688354 
L 307.577241 162.67848 
L 312.496991 116.22008 
L 317.41674 122.935403 
L 322.336489 119.120904 
L 327.256238 133.557715 
L 332.175987 140.641432 
L 337.095737 158.151852 
L 342.015486 173.400761 
L 346.935235 166.376 
L 351.854984 174.943862 
L 356.774734 110.553908 
L 361.694483 132.130278 
L 366.614232 158.473347 
L 371.533981 122.538039 
L 376.45373 168.198533 
L 381.37348 164.938426 
L 386.293229 150.66053 
L 391.212978 186.796298 
L 396.132727 185.563686 
" style="fill:none;stroke:#808080;stroke-linecap:round;stroke-opacity:0.8;stroke-width:0.7;"/>
    <defs>
     <path d="M -0 2.5 
L 2.5 -2.5 
L -2.5 -2.5 
z
" id="ma9bbdf5bc9" style="stroke:#000000;stroke-linejoin:miter;stroke-opacity:0.8;"/>
    </defs>
    <g clip-path="url(#p08e3fa204f)">
     <use style="fill:#808080;fill-opacity:0.8;stroke:#000000;stroke-linejoin:miter;stroke-opacity:0.8;" x="110.787273" xlink:href="#ma9bbdf5bc9" y="195.750925"/>
     <use style="fill:#808080;fill-opacity:0.8;stroke:#000000;stroke-linejoin:miter;stroke-opacity:0.8;" x="115.707022" xlink:href="#ma9bbdf5bc9" y="198.34075"/>
     <use style="fill:#808080;fill-opacity:0.8;stroke:#000000;stroke-linejoin:miter;stroke-opacity:0.8;" x="120.626771" xlink:href="#ma9bbdf5bc9" y="200.339422"/>
     <use style="fill:#808080;fill-opacity:0.8;stroke:#000000;stroke-linejoin:miter;stroke-opacity:0.8;" x="125.54652" xlink:href="#ma9bbdf5bc9" y="196.145533"/>
     <use style="fill:#808080;fill-opacity:0.8;stroke:#000000;stroke-linejoin:miter;stroke-opacity:0.8;" x="130.46627" xlink:href="#ma9bbdf5bc9" y="197.379114"/>
     <use style="fill:#808080;fill-opacity:0.8;stroke:#000000;stroke-linejoin:miter;stroke-opacity:0.8;" x="135.386019" xlink:href="#ma9bbdf5bc9" y="196.321315"/>
     <use style="fill:#808080;fill-opacity:0.8;stroke:#000000;stroke-linejoin:miter;stroke-opacity:0.8;" x="140.305768" xlink:href="#ma9bbdf5bc9" y="200.542761"/>
     <use style="fill:#808080;fill-opacity:0.8;stroke:#000000;stroke-linejoin:miter;stroke-opacity:0.8;" x="145.225517" xlink:href="#ma9bbdf5bc9" y="196.718797"/>
     <use style="fill:#808080;fill-opacity:0.8;stroke:#000000;stroke-linejoin:miter;stroke-opacity:0.8;" x="150.145266" xlink:href="#ma9bbdf5bc9" y="197.535152"/>
     <use style="fill:#808080;fill-opacity:0.8;stroke:#000000;stroke-linejoin:miter;stroke-opacity:0.8;" x="155.065016" xlink:href="#ma9bbdf5bc9" y="197.353953"/>
     <use style="fill:#808080;fill-opacity:0.8;stroke:#000000;stroke-linejoin:miter;stroke-opacity:0.8;" x="159.984765" xlink:href="#ma9bbdf5bc9" y="192.4836"/>
     <use style="fill:#808080;fill-opacity:0.8;stroke:#000000;stroke-linejoin:miter;stroke-opacity:0.8;" x="164.904514" xlink:href="#ma9bbdf5bc9" y="190.030316"/>
     <use style="fill:#808080;fill-opacity:0.8;stroke:#000000;stroke-linejoin:miter;stroke-opacity:0.8;" x="169.824263" xlink:href="#ma9bbdf5bc9" y="184.487657"/>
     <use style="fill:#808080;fill-opacity:0.8;stroke:#000000;stroke-linejoin:miter;stroke-opacity:0.8;" x="174.744013" xlink:href="#ma9bbdf5bc9" y="186.426785"/>
     <use style="fill:#808080;fill-opacity:0.8;stroke:#000000;stroke-linejoin:miter;stroke-opacity:0.8;" x="179.663762" xlink:href="#ma9bbdf5bc9" y="188.128369"/>
     <use style="fill:#808080;fill-opacity:0.8;stroke:#000000;stroke-linejoin:miter;stroke-opacity:0.8;" x="184.583511" xlink:href="#ma9bbdf5bc9" y="161.796168"/>
     <use style="fill:#808080;fill-opacity:0.8;stroke:#000000;stroke-linejoin:miter;stroke-opacity:0.8;" x="189.50326" xlink:href="#ma9bbdf5bc9" y="151.069208"/>
     <use style="fill:#808080;fill-opacity:0.8;stroke:#000000;stroke-linejoin:miter;stroke-opacity:0.8;" x="194.423009" xlink:href="#ma9bbdf5bc9" y="172.172222"/>
     <use style="fill:#808080;fill-opacity:0.8;stroke:#000000;stroke-linejoin:miter;stroke-opacity:0.8;" x="199.342759" xlink:href="#ma9bbdf5bc9" y="177.133166"/>
     <use style="fill:#808080;fill-opacity:0.8;stroke:#000000;stroke-linejoin:miter;stroke-opacity:0.8;" x="204.262508" xlink:href="#ma9bbdf5bc9" y="172.395439"/>
     <use style="fill:#808080;fill-opacity:0.8;stroke:#000000;stroke-linejoin:miter;stroke-opacity:0.8;" x="209.182257" xlink:href="#ma9bbdf5bc9" y="171.815266"/>
     <use style="fill:#808080;fill-opacity:0.8;stroke:#000000;stroke-linejoin:miter;stroke-opacity:0.8;" x="214.102006" xlink:href="#ma9bbdf5bc9" y="187.66849"/>
     <use style="fill:#808080;fill-opacity:0.8;stroke:#000000;stroke-linejoin:miter;stroke-opacity:0.8;" x="219.021755" xlink:href="#ma9bbdf5bc9" y="189.136335"/>
     <use style="fill:#808080;fill-opacity:0.8;stroke:#000000;stroke-linejoin:miter;stroke-opacity:0.8;" x="223.941505" xlink:href="#ma9bbdf5bc9" y="174.064172"/>
     <use style="fill:#808080;fill-opacity:0.8;stroke:#000000;stroke-linejoin:miter;stroke-opacity:0.8;" x="228.861254" xlink:href="#ma9bbdf5bc9" y="160.496685"/>
     <use style="fill:#808080;fill-opacity:0.8;stroke:#000000;stroke-linejoin:miter;stroke-opacity:0.8;" x="233.781003" xlink:href="#ma9bbdf5bc9" y="163.167812"/>
     <use style="fill:#808080;fill-opacity:0.8;stroke:#000000;stroke-linejoin:miter;stroke-opacity:0.8;" x="238.700752" xlink:href="#ma9bbdf5bc9" y="154.290195"/>
     <use style="fill:#808080;fill-opacity:0.8;stroke:#000000;stroke-linejoin:miter;stroke-opacity:0.8;" x="243.620502" xlink:href="#ma9bbdf5bc9" y="148.813677"/>
     <use style="fill:#808080;fill-opacity:0.8;stroke:#000000;stroke-linejoin:miter;stroke-opacity:0.8;" x="248.540251" xlink:href="#ma9bbdf5bc9" y="131.246847"/>
     <use style="fill:#808080;fill-opacity:0.8;stroke:#000000;stroke-linejoin:miter;stroke-opacity:0.8;" x="253.46" xlink:href="#ma9bbdf5bc9" y="115.790674"/>
     <use style="fill:#808080;fill-opacity:0.8;stroke:#000000;stroke-linejoin:miter;stroke-opacity:0.8;" x="258.379749" xlink:href="#ma9bbdf5bc9" y="166.864148"/>
     <use style="fill:#808080;fill-opacity:0.8;stroke:#000000;stroke-linejoin:miter;stroke-opacity:0.8;" x="263.299498" xlink:href="#ma9bbdf5bc9" y="172.518078"/>
     <use style="fill:#808080;fill-opacity:0.8;stroke:#000000;stroke-linejoin:miter;stroke-opacity:0.8;" x="268.219248" xlink:href="#ma9bbdf5bc9" y="178.484415"/>
     <use style="fill:#808080;fill-opacity:0.8;stroke:#000000;stroke-linejoin:miter;stroke-opacity:0.8;" x="273.138997" xlink:href="#ma9bbdf5bc9" y="179.544951"/>
     <use style="fill:#808080;fill-opacity:0.8;stroke:#000000;stroke-linejoin:miter;stroke-opacity:0.8;" x="278.058746" xlink:href="#ma9bbdf5bc9" y="177.391353"/>
     <use style="fill:#808080;fill-opacity:0.8;stroke:#000000;stroke-linejoin:miter;stroke-opacity:0.8;" x="282.978495" xlink:href="#ma9bbdf5bc9" y="179.489774"/>
     <use style="fill:#808080;fill-opacity:0.8;stroke:#000000;stroke-linejoin:miter;stroke-opacity:0.8;" x="287.898245" xlink:href="#ma9bbdf5bc9" y="177.456238"/>
     <use style="fill:#808080;fill-opacity:0.8;stroke:#000000;stroke-linejoin:miter;stroke-opacity:0.8;" x="292.817994" xlink:href="#ma9bbdf5bc9" y="156.483729"/>
     <use style="fill:#808080;fill-opacity:0.8;stroke:#000000;stroke-linejoin:miter;stroke-opacity:0.8;" x="297.737743" xlink:href="#ma9bbdf5bc9" y="176.201349"/>
     <use style="fill:#808080;fill-opacity:0.8;stroke:#000000;stroke-linejoin:miter;stroke-opacity:0.8;" x="302.657492" xlink:href="#ma9bbdf5bc9" y="164.688354"/>
     <use style="fill:#808080;fill-opacity:0.8;stroke:#000000;stroke-linejoin:miter;stroke-opacity:0.8;" x="307.577241" xlink:href="#ma9bbdf5bc9" y="162.67848"/>
     <use style="fill:#808080;fill-opacity:0.8;stroke:#000000;stroke-linejoin:miter;stroke-opacity:0.8;" x="312.496991" xlink:href="#ma9bbdf5bc9" y="116.22008"/>
     <use style="fill:#808080;fill-opacity:0.8;stroke:#000000;stroke-linejoin:miter;stroke-opacity:0.8;" x="317.41674" xlink:href="#ma9bbdf5bc9" y="122.935403"/>
     <use style="fill:#808080;fill-opacity:0.8;stroke:#000000;stroke-linejoin:miter;stroke-opacity:0.8;" x="322.336489" xlink:href="#ma9bbdf5bc9" y="119.120904"/>
     <use style="fill:#808080;fill-opacity:0.8;stroke:#000000;stroke-linejoin:miter;stroke-opacity:0.8;" x="327.256238" xlink:href="#ma9bbdf5bc9" y="133.557715"/>
     <use style="fill:#808080;fill-opacity:0.8;stroke:#000000;stroke-linejoin:miter;stroke-opacity:0.8;" x="332.175987" xlink:href="#ma9bbdf5bc9" y="140.641432"/>
     <use style="fill:#808080;fill-opacity:0.8;stroke:#000000;stroke-linejoin:miter;stroke-opacity:0.8;" x="337.095737" xlink:href="#ma9bbdf5bc9" y="158.151852"/>
     <use style="fill:#808080;fill-opacity:0.8;stroke:#000000;stroke-linejoin:miter;stroke-opacity:0.8;" x="342.015486" xlink:href="#ma9bbdf5bc9" y="173.400761"/>
     <use style="fill:#808080;fill-opacity:0.8;stroke:#000000;stroke-linejoin:miter;stroke-opacity:0.8;" x="346.935235" xlink:href="#ma9bbdf5bc9" y="166.376"/>
     <use style="fill:#808080;fill-opacity:0.8;stroke:#000000;stroke-linejoin:miter;stroke-opacity:0.8;" x="351.854984" xlink:href="#ma9bbdf5bc9" y="174.943862"/>
     <use style="fill:#808080;fill-opacity:0.8;stroke:#000000;stroke-linejoin:miter;stroke-opacity:0.8;" x="356.774734" xlink:href="#ma9bbdf5bc9" y="110.553908"/>
     <use style="fill:#808080;fill-opacity:0.8;stroke:#000000;stroke-linejoin:miter;stroke-opacity:0.8;" x="361.694483" xlink:href="#ma9bbdf5bc9" y="132.130278"/>
     <use style="fill:#808080;fill-opacity:0.8;stroke:#000000;stroke-linejoin:miter;stroke-opacity:0.8;" x="366.614232" xlink:href="#ma9bbdf5bc9" y="158.473347"/>
     <use style="fill:#808080;fill-opacity:0.8;stroke:#000000;stroke-linejoin:miter;stroke-opacity:0.8;" x="371.533981" xlink:href="#ma9bbdf5bc9" y="122.538039"/>
     <use style="fill:#808080;fill-opacity:0.8;stroke:#000000;stroke-linejoin:miter;stroke-opacity:0.8;" x="376.45373" xlink:href="#ma9bbdf5bc9" y="168.198533"/>
     <use style="fill:#808080;fill-opacity:0.8;stroke:#000000;stroke-linejoin:miter;stroke-opacity:0.8;" x="381.37348" xlink:href="#ma9bbdf5bc9" y="164.938426"/>
     <use style="fill:#808080;fill-opacity:0.8;stroke:#000000;stroke-linejoin:miter;stroke-opacity:0.8;" x="386.293229" xlink:href="#ma9bbdf5bc9" y="150.66053"/>
     <use style="fill:#808080;fill-opacity:0.8;stroke:#000000;stroke-linejoin:miter;stroke-opacity:0.8;" x="391.212978" xlink:href="#ma9bbdf5bc9" y="186.796298"/>
     <use style="fill:#808080;fill-opacity:0.8;stroke:#000000;stroke-linejoin:miter;stroke-opacity:0.8;" x="396.132727" xlink:href="#ma9bbdf5bc9" y="185.563686"/>
    </g>
   </g>
   <g id="line2d_10">
    <path clip-path="url(#p08e3fa204f)" d="M 110.787273 195.750925 
L 115.707022 198.34075 
L 120.626771 200.339422 
L 125.54652 196.145533 
L 130.46627 197.379114 
L 135.386019 196.321315 
L 140.305768 200.542761 
L 145.225517 196.718797 
L 150.145266 197.535152 
L 155.065016 197.353953 
L 159.984765 192.4836 
L 164.904514 190.030316 
L 169.824263 184.487657 
L 174.744013 186.426785 
L 179.663762 188.128369 
L 184.583511 161.796168 
L 189.50326 151.069208 
L 194.423009 172.172222 
L 199.342759 177.133166 
L 204.262508 172.395439 
L 209.182257 171.815266 
L 214.102006 187.66849 
L 219.021755 189.136335 
L 223.941505 174.064172 
L 228.861254 160.496685 
L 233.781003 163.167812 
L 238.700752 154.290195 
L 243.620502 148.813677 
L 248.540251 131.246847 
L 253.46 115.790674 
L 258.379749 166.864148 
L 263.299498 172.518078 
L 268.219248 178.484415 
L 273.138997 179.544951 
L 278.058746 177.391353 
L 282.978495 179.489774 
L 287.898245 177.456238 
L 292.817994 156.483729 
L 297.737743 176.201349 
L 302.657492 164.688354 
L 307.577241 162.67848 
L 312.496991 116.22008 
L 317.41674 122.935403 
L 322.336489 119.120904 
L 327.256238 133.557715 
L 332.175987 140.641432 
L 337.095737 158.151852 
L 342.015486 173.400761 
L 346.935235 166.376 
L 351.854984 174.943862 
L 356.774734 110.553908 
L 361.694483 132.130278 
L 366.614232 158.473347 
L 371.533981 122.538039 
L 376.45373 168.198533 
L 381.37348 164.938426 
L 386.293229 150.66053 
L 391.212978 186.796298 
L 396.132727 185.563686 
" style="fill:none;stroke:#808080;stroke-linecap:round;stroke-width:0.7;"/>
   </g>
   <g id="line2d_11">
    <path clip-path="url(#p08e3fa204f)" d="M 110.787273 199.009957 
L 115.707022 201.344899 
L 120.626771 203.288182 
L 125.54652 198.872292 
L 130.46627 200.189426 
L 135.386019 199.901561 
L 140.305768 202.82552 
L 145.225517 199.620964 
L 150.145266 200.457871 
L 155.065016 200.761266 
L 159.984765 196.183771 
L 164.904514 194.439387 
L 169.824263 191.145287 
L 174.744013 192.504655 
L 179.663762 191.911824 
L 184.583511 171.426931 
L 189.50326 161.728943 
L 194.423009 178.890608 
L 199.342759 182.094454 
L 204.262508 177.975104 
L 209.182257 176.104425 
L 214.102006 190.999863 
L 219.021755 192.532098 
L 223.941505 177.924555 
L 228.861254 164.953325 
L 233.781003 167.967739 
L 238.700752 159.761534 
L 243.620502 154.414376 
L 248.540251 138.625467 
L 253.46 122.914023 
L 258.379749 171.304222 
L 263.299498 177.059564 
L 268.219248 182.683186 
L 273.138997 183.462413 
L 278.058746 181.912395 
L 282.978495 185.109166 
L 287.898245 182.051949 
L 292.817994 162.302888 
L 297.737743 180.455964 
L 302.657492 170.230018 
L 307.577241 168.475143 
L 312.496991 122.489368 
L 317.41674 128.708469 
L 322.336489 125.510707 
L 327.256238 138.730582 
L 332.175987 146.297464 
L 337.095737 162.835582 
L 342.015486 181.035787 
L 346.935235 179.824324 
L 351.854984 180.407195 
L 356.774734 134.486013 
L 361.694483 154.626565 
L 366.614232 176.346202 
L 371.533981 138.493059 
L 376.45373 176.878089 
L 381.37348 176.199567 
L 386.293229 163.271838 
L 391.212978 191.746316 
L 396.132727 190.592973 
" style="fill:none;stroke:#808080;stroke-dasharray:1.85,0.8;stroke-dashoffset:0;stroke-width:0.5;"/>
   </g>
   <g id="line2d_12">
    <path clip-path="url(#p08e3fa204f)" d="M 110.787273 192.491893 
L 115.707022 195.336601 
L 120.626771 197.390663 
L 125.54652 193.418775 
L 130.46627 194.568801 
L 135.386019 192.74107 
L 140.305768 198.260001 
L 145.225517 193.81663 
L 150.145266 194.612432 
L 155.065016 193.94664 
L 159.984765 188.783429 
L 164.904514 185.621244 
L 169.824263 177.830027 
L 174.744013 180.348915 
L 179.663762 184.344913 
L 184.583511 152.165406 
L 189.50326 140.409472 
L 194.423009 165.453836 
L 199.342759 172.171877 
L 204.262508 166.815773 
L 209.182257 167.526107 
L 214.102006 184.337117 
L 219.021755 185.740572 
L 223.941505 170.20379 
L 228.861254 156.040045 
L 233.781003 158.367886 
L 238.700752 148.818857 
L 243.620502 143.212979 
L 248.540251 123.868227 
L 253.46 108.667326 
L 258.379749 162.424075 
L 263.299498 167.976593 
L 268.219248 174.285644 
L 273.138997 175.627488 
L 278.058746 172.870312 
L 282.978495 173.870382 
L 287.898245 172.860528 
L 292.817994 150.664569 
L 297.737743 171.946734 
L 302.657492 159.146691 
L 307.577241 156.881817 
L 312.496991 109.950792 
L 317.41674 117.162338 
L 322.336489 112.731102 
L 327.256238 128.384849 
L 332.175987 134.985401 
L 337.095737 153.468122 
L 342.015486 165.765734 
L 346.935235 152.927676 
L 351.854984 169.48053 
L 356.774734 86.621803 
L 361.694483 109.63399 
L 366.614232 140.600492 
L 371.533981 106.583018 
L 376.45373 159.518977 
L 381.37348 153.677286 
L 386.293229 138.049222 
L 391.212978 181.846281 
L 396.132727 180.534399 
" style="fill:none;stroke:#808080;stroke-dasharray:1.85,0.8;stroke-dashoffset:0;stroke-width:0.5;"/>
   </g>
   <g id="line2d_13">
    <path clip-path="url(#p08e3fa204f)" d="M 110.787273 189.279169 
L 115.707022 190.909758 
L 120.626771 192.420827 
L 125.54652 189.943327 
L 130.46627 191.257234 
L 135.386019 192.570998 
L 140.305768 192.59051 
L 145.225517 190.02178 
L 150.145266 187.346665 
L 155.065016 193.49838 
L 159.984765 185.841658 
L 164.904514 182.574874 
L 169.824263 167.728461 
L 174.744013 172.210711 
L 179.663762 174.064181 
L 184.583511 144.653761 
L 189.50326 136.075785 
L 194.423009 162.954393 
L 199.342759 169.50564 
L 204.262508 159.330487 
L 209.182257 162.948683 
L 214.102006 185.898649 
L 219.021755 187.06826 
L 223.941505 176.327188 
L 228.861254 158.509861 
L 233.781003 162.886391 
L 238.700752 154.461447 
L 243.620502 143.063626 
L 248.540251 141.139186 
L 253.46 113.432649 
L 258.379749 159.710617 
L 263.299498 153.215817 
L 268.219248 171.003866 
L 273.138997 168.68956 
L 278.058746 163.758375 
L 282.978495 160.593812 
L 287.898245 163.916689 
L 292.817994 156.790458 
L 297.737743 171.203952 
L 302.657492 150.447066 
L 307.577241 164.205873 
L 312.496991 114.397913 
L 317.41674 135.445286 
L 322.336489 128.411552 
L 327.256238 139.230573 
L 332.175987 148.848239 
L 337.095737 152.743766 
L 342.015486 137.607353 
L 346.935235 140.609407 
L 351.854984 163.600386 
L 356.774734 122.061218 
L 361.694483 127.662679 
L 366.614232 128.750881 
L 371.533981 118.495442 
L 376.45373 138.207839 
L 381.37348 136.49233 
L 386.293229 140.262703 
L 391.212978 163.409251 
L 396.132727 165.030105 
" style="fill:none;stroke:#ff7f0e;stroke-linecap:round;stroke-opacity:0.8;stroke-width:0.7;"/>
    <defs>
     <path d="M 0 -2.5 
L -2.5 2.5 
L 2.5 2.5 
z
" id="m67f29d411f" style="stroke:#000000;stroke-linejoin:miter;stroke-opacity:0.8;"/>
    </defs>
    <g clip-path="url(#p08e3fa204f)">
     <use style="fill:#ff7f0e;fill-opacity:0.8;stroke:#000000;stroke-linejoin:miter;stroke-opacity:0.8;" x="110.787273" xlink:href="#m67f29d411f" y="189.279169"/>
     <use style="fill:#ff7f0e;fill-opacity:0.8;stroke:#000000;stroke-linejoin:miter;stroke-opacity:0.8;" x="115.707022" xlink:href="#m67f29d411f" y="190.909758"/>
     <use style="fill:#ff7f0e;fill-opacity:0.8;stroke:#000000;stroke-linejoin:miter;stroke-opacity:0.8;" x="120.626771" xlink:href="#m67f29d411f" y="192.420827"/>
     <use style="fill:#ff7f0e;fill-opacity:0.8;stroke:#000000;stroke-linejoin:miter;stroke-opacity:0.8;" x="125.54652" xlink:href="#m67f29d411f" y="189.943327"/>
     <use style="fill:#ff7f0e;fill-opacity:0.8;stroke:#000000;stroke-linejoin:miter;stroke-opacity:0.8;" x="130.46627" xlink:href="#m67f29d411f" y="191.257234"/>
     <use style="fill:#ff7f0e;fill-opacity:0.8;stroke:#000000;stroke-linejoin:miter;stroke-opacity:0.8;" x="135.386019" xlink:href="#m67f29d411f" y="192.570998"/>
     <use style="fill:#ff7f0e;fill-opacity:0.8;stroke:#000000;stroke-linejoin:miter;stroke-opacity:0.8;" x="140.305768" xlink:href="#m67f29d411f" y="192.59051"/>
     <use style="fill:#ff7f0e;fill-opacity:0.8;stroke:#000000;stroke-linejoin:miter;stroke-opacity:0.8;" x="145.225517" xlink:href="#m67f29d411f" y="190.02178"/>
     <use style="fill:#ff7f0e;fill-opacity:0.8;stroke:#000000;stroke-linejoin:miter;stroke-opacity:0.8;" x="150.145266" xlink:href="#m67f29d411f" y="187.346665"/>
     <use style="fill:#ff7f0e;fill-opacity:0.8;stroke:#000000;stroke-linejoin:miter;stroke-opacity:0.8;" x="155.065016" xlink:href="#m67f29d411f" y="193.49838"/>
     <use style="fill:#ff7f0e;fill-opacity:0.8;stroke:#000000;stroke-linejoin:miter;stroke-opacity:0.8;" x="159.984765" xlink:href="#m67f29d411f" y="185.841658"/>
     <use style="fill:#ff7f0e;fill-opacity:0.8;stroke:#000000;stroke-linejoin:miter;stroke-opacity:0.8;" x="164.904514" xlink:href="#m67f29d411f" y="182.574874"/>
     <use style="fill:#ff7f0e;fill-opacity:0.8;stroke:#000000;stroke-linejoin:miter;stroke-opacity:0.8;" x="169.824263" xlink:href="#m67f29d411f" y="167.728461"/>
     <use style="fill:#ff7f0e;fill-opacity:0.8;stroke:#000000;stroke-linejoin:miter;stroke-opacity:0.8;" x="174.744013" xlink:href="#m67f29d411f" y="172.210711"/>
     <use style="fill:#ff7f0e;fill-opacity:0.8;stroke:#000000;stroke-linejoin:miter;stroke-opacity:0.8;" x="179.663762" xlink:href="#m67f29d411f" y="174.064181"/>
     <use style="fill:#ff7f0e;fill-opacity:0.8;stroke:#000000;stroke-linejoin:miter;stroke-opacity:0.8;" x="184.583511" xlink:href="#m67f29d411f" y="144.653761"/>
     <use style="fill:#ff7f0e;fill-opacity:0.8;stroke:#000000;stroke-linejoin:miter;stroke-opacity:0.8;" x="189.50326" xlink:href="#m67f29d411f" y="136.075785"/>
     <use style="fill:#ff7f0e;fill-opacity:0.8;stroke:#000000;stroke-linejoin:miter;stroke-opacity:0.8;" x="194.423009" xlink:href="#m67f29d411f" y="162.954393"/>
     <use style="fill:#ff7f0e;fill-opacity:0.8;stroke:#000000;stroke-linejoin:miter;stroke-opacity:0.8;" x="199.342759" xlink:href="#m67f29d411f" y="169.50564"/>
     <use style="fill:#ff7f0e;fill-opacity:0.8;stroke:#000000;stroke-linejoin:miter;stroke-opacity:0.8;" x="204.262508" xlink:href="#m67f29d411f" y="159.330487"/>
     <use style="fill:#ff7f0e;fill-opacity:0.8;stroke:#000000;stroke-linejoin:miter;stroke-opacity:0.8;" x="209.182257" xlink:href="#m67f29d411f" y="162.948683"/>
     <use style="fill:#ff7f0e;fill-opacity:0.8;stroke:#000000;stroke-linejoin:miter;stroke-opacity:0.8;" x="214.102006" xlink:href="#m67f29d411f" y="185.898649"/>
     <use style="fill:#ff7f0e;fill-opacity:0.8;stroke:#000000;stroke-linejoin:miter;stroke-opacity:0.8;" x="219.021755" xlink:href="#m67f29d411f" y="187.06826"/>
     <use style="fill:#ff7f0e;fill-opacity:0.8;stroke:#000000;stroke-linejoin:miter;stroke-opacity:0.8;" x="223.941505" xlink:href="#m67f29d411f" y="176.327188"/>
     <use style="fill:#ff7f0e;fill-opacity:0.8;stroke:#000000;stroke-linejoin:miter;stroke-opacity:0.8;" x="228.861254" xlink:href="#m67f29d411f" y="158.509861"/>
     <use style="fill:#ff7f0e;fill-opacity:0.8;stroke:#000000;stroke-linejoin:miter;stroke-opacity:0.8;" x="233.781003" xlink:href="#m67f29d411f" y="162.886391"/>
     <use style="fill:#ff7f0e;fill-opacity:0.8;stroke:#000000;stroke-linejoin:miter;stroke-opacity:0.8;" x="238.700752" xlink:href="#m67f29d411f" y="154.461447"/>
     <use style="fill:#ff7f0e;fill-opacity:0.8;stroke:#000000;stroke-linejoin:miter;stroke-opacity:0.8;" x="243.620502" xlink:href="#m67f29d411f" y="143.063626"/>
     <use style="fill:#ff7f0e;fill-opacity:0.8;stroke:#000000;stroke-linejoin:miter;stroke-opacity:0.8;" x="248.540251" xlink:href="#m67f29d411f" y="141.139186"/>
     <use style="fill:#ff7f0e;fill-opacity:0.8;stroke:#000000;stroke-linejoin:miter;stroke-opacity:0.8;" x="253.46" xlink:href="#m67f29d411f" y="113.432649"/>
     <use style="fill:#ff7f0e;fill-opacity:0.8;stroke:#000000;stroke-linejoin:miter;stroke-opacity:0.8;" x="258.379749" xlink:href="#m67f29d411f" y="159.710617"/>
     <use style="fill:#ff7f0e;fill-opacity:0.8;stroke:#000000;stroke-linejoin:miter;stroke-opacity:0.8;" x="263.299498" xlink:href="#m67f29d411f" y="153.215817"/>
     <use style="fill:#ff7f0e;fill-opacity:0.8;stroke:#000000;stroke-linejoin:miter;stroke-opacity:0.8;" x="268.219248" xlink:href="#m67f29d411f" y="171.003866"/>
     <use style="fill:#ff7f0e;fill-opacity:0.8;stroke:#000000;stroke-linejoin:miter;stroke-opacity:0.8;" x="273.138997" xlink:href="#m67f29d411f" y="168.68956"/>
     <use style="fill:#ff7f0e;fill-opacity:0.8;stroke:#000000;stroke-linejoin:miter;stroke-opacity:0.8;" x="278.058746" xlink:href="#m67f29d411f" y="163.758375"/>
     <use style="fill:#ff7f0e;fill-opacity:0.8;stroke:#000000;stroke-linejoin:miter;stroke-opacity:0.8;" x="282.978495" xlink:href="#m67f29d411f" y="160.593812"/>
     <use style="fill:#ff7f0e;fill-opacity:0.8;stroke:#000000;stroke-linejoin:miter;stroke-opacity:0.8;" x="287.898245" xlink:href="#m67f29d411f" y="163.916689"/>
     <use style="fill:#ff7f0e;fill-opacity:0.8;stroke:#000000;stroke-linejoin:miter;stroke-opacity:0.8;" x="292.817994" xlink:href="#m67f29d411f" y="156.790458"/>
     <use style="fill:#ff7f0e;fill-opacity:0.8;stroke:#000000;stroke-linejoin:miter;stroke-opacity:0.8;" x="297.737743" xlink:href="#m67f29d411f" y="171.203952"/>
     <use style="fill:#ff7f0e;fill-opacity:0.8;stroke:#000000;stroke-linejoin:miter;stroke-opacity:0.8;" x="302.657492" xlink:href="#m67f29d411f" y="150.447066"/>
     <use style="fill:#ff7f0e;fill-opacity:0.8;stroke:#000000;stroke-linejoin:miter;stroke-opacity:0.8;" x="307.577241" xlink:href="#m67f29d411f" y="164.205873"/>
     <use style="fill:#ff7f0e;fill-opacity:0.8;stroke:#000000;stroke-linejoin:miter;stroke-opacity:0.8;" x="312.496991" xlink:href="#m67f29d411f" y="114.397913"/>
     <use style="fill:#ff7f0e;fill-opacity:0.8;stroke:#000000;stroke-linejoin:miter;stroke-opacity:0.8;" x="317.41674" xlink:href="#m67f29d411f" y="135.445286"/>
     <use style="fill:#ff7f0e;fill-opacity:0.8;stroke:#000000;stroke-linejoin:miter;stroke-opacity:0.8;" x="322.336489" xlink:href="#m67f29d411f" y="128.411552"/>
     <use style="fill:#ff7f0e;fill-opacity:0.8;stroke:#000000;stroke-linejoin:miter;stroke-opacity:0.8;" x="327.256238" xlink:href="#m67f29d411f" y="139.230573"/>
     <use style="fill:#ff7f0e;fill-opacity:0.8;stroke:#000000;stroke-linejoin:miter;stroke-opacity:0.8;" x="332.175987" xlink:href="#m67f29d411f" y="148.848239"/>
     <use style="fill:#ff7f0e;fill-opacity:0.8;stroke:#000000;stroke-linejoin:miter;stroke-opacity:0.8;" x="337.095737" xlink:href="#m67f29d411f" y="152.743766"/>
     <use style="fill:#ff7f0e;fill-opacity:0.8;stroke:#000000;stroke-linejoin:miter;stroke-opacity:0.8;" x="342.015486" xlink:href="#m67f29d411f" y="137.607353"/>
     <use style="fill:#ff7f0e;fill-opacity:0.8;stroke:#000000;stroke-linejoin:miter;stroke-opacity:0.8;" x="346.935235" xlink:href="#m67f29d411f" y="140.609407"/>
     <use style="fill:#ff7f0e;fill-opacity:0.8;stroke:#000000;stroke-linejoin:miter;stroke-opacity:0.8;" x="351.854984" xlink:href="#m67f29d411f" y="163.600386"/>
     <use style="fill:#ff7f0e;fill-opacity:0.8;stroke:#000000;stroke-linejoin:miter;stroke-opacity:0.8;" x="356.774734" xlink:href="#m67f29d411f" y="122.061218"/>
     <use style="fill:#ff7f0e;fill-opacity:0.8;stroke:#000000;stroke-linejoin:miter;stroke-opacity:0.8;" x="361.694483" xlink:href="#m67f29d411f" y="127.662679"/>
     <use style="fill:#ff7f0e;fill-opacity:0.8;stroke:#000000;stroke-linejoin:miter;stroke-opacity:0.8;" x="366.614232" xlink:href="#m67f29d411f" y="128.750881"/>
     <use style="fill:#ff7f0e;fill-opacity:0.8;stroke:#000000;stroke-linejoin:miter;stroke-opacity:0.8;" x="371.533981" xlink:href="#m67f29d411f" y="118.495442"/>
     <use style="fill:#ff7f0e;fill-opacity:0.8;stroke:#000000;stroke-linejoin:miter;stroke-opacity:0.8;" x="376.45373" xlink:href="#m67f29d411f" y="138.207839"/>
     <use style="fill:#ff7f0e;fill-opacity:0.8;stroke:#000000;stroke-linejoin:miter;stroke-opacity:0.8;" x="381.37348" xlink:href="#m67f29d411f" y="136.49233"/>
     <use style="fill:#ff7f0e;fill-opacity:0.8;stroke:#000000;stroke-linejoin:miter;stroke-opacity:0.8;" x="386.293229" xlink:href="#m67f29d411f" y="140.262703"/>
     <use style="fill:#ff7f0e;fill-opacity:0.8;stroke:#000000;stroke-linejoin:miter;stroke-opacity:0.8;" x="391.212978" xlink:href="#m67f29d411f" y="163.409251"/>
     <use style="fill:#ff7f0e;fill-opacity:0.8;stroke:#000000;stroke-linejoin:miter;stroke-opacity:0.8;" x="396.132727" xlink:href="#m67f29d411f" y="165.030105"/>
    </g>
   </g>
   <g id="line2d_14">
    <path clip-path="url(#p08e3fa204f)" d="M 110.787273 189.279169 
L 115.707022 190.909758 
L 120.626771 192.420827 
L 125.54652 189.943327 
L 130.46627 191.257234 
L 135.386019 192.570998 
L 140.305768 192.59051 
L 145.225517 190.02178 
L 150.145266 187.346665 
L 155.065016 193.49838 
L 159.984765 185.841658 
L 164.904514 182.574874 
L 169.824263 167.728461 
L 174.744013 172.210711 
L 179.663762 174.064181 
L 184.583511 144.653761 
L 189.50326 136.075785 
L 194.423009 162.954393 
L 199.342759 169.50564 
L 204.262508 159.330487 
L 209.182257 162.948683 
L 214.102006 185.898649 
L 219.021755 187.06826 
L 223.941505 176.327188 
L 228.861254 158.509861 
L 233.781003 162.886391 
L 238.700752 154.461447 
L 243.620502 143.063626 
L 248.540251 141.139186 
L 253.46 113.432649 
L 258.379749 159.710617 
L 263.299498 153.215817 
L 268.219248 171.003866 
L 273.138997 168.68956 
L 278.058746 163.758375 
L 282.978495 160.593812 
L 287.898245 163.916689 
L 292.817994 156.790458 
L 297.737743 171.203952 
L 302.657492 150.447066 
L 307.577241 164.205873 
L 312.496991 114.397913 
L 317.41674 135.445286 
L 322.336489 128.411552 
L 327.256238 139.230573 
L 332.175987 148.848239 
L 337.095737 152.743766 
L 342.015486 137.607353 
L 346.935235 140.609407 
L 351.854984 163.600386 
L 356.774734 122.061218 
L 361.694483 127.662679 
L 366.614232 128.750881 
L 371.533981 118.495442 
L 376.45373 138.207839 
L 381.37348 136.49233 
L 386.293229 140.262703 
L 391.212978 163.409251 
L 396.132727 165.030105 
" style="fill:none;stroke:#ff7f0e;stroke-linecap:round;stroke-width:0.7;"/>
   </g>
   <g id="line2d_15">
    <path clip-path="url(#p08e3fa204f)" d="M 110.787273 194.836504 
L 115.707022 195.863908 
L 120.626771 196.92839 
L 125.54652 194.483492 
L 130.46627 194.963507 
L 135.386019 196.31436 
L 140.305768 196.197515 
L 145.225517 193.910081 
L 150.145266 191.915573 
L 155.065016 196.635269 
L 159.984765 190.809786 
L 164.904514 188.282627 
L 169.824263 178.068487 
L 174.744013 180.624165 
L 179.663762 180.700344 
L 184.583511 160.970152 
L 189.50326 151.524317 
L 194.423009 173.956005 
L 199.342759 179.657906 
L 204.262508 172.884363 
L 209.182257 171.682892 
L 214.102006 189.739544 
L 219.021755 191.248843 
L 223.941505 180.478887 
L 228.861254 164.933409 
L 233.781003 168.642778 
L 238.700752 160.214329 
L 243.620502 150.735287 
L 248.540251 148.913351 
L 253.46 121.206352 
L 258.379749 166.065047 
L 263.299498 163.19314 
L 268.219248 177.9654 
L 273.138997 175.266208 
L 278.058746 170.869725 
L 282.978495 172.492223 
L 287.898245 171.233962 
L 292.817994 162.513497 
L 297.737743 177.349309 
L 302.657492 159.916435 
L 307.577241 171.298188 
L 312.496991 123.355997 
L 317.41674 141.85226 
L 322.336489 135.197809 
L 327.256238 146.336742 
L 332.175987 154.894553 
L 337.095737 158.172405 
L 342.015486 155.292023 
L 346.935235 157.604514 
L 351.854984 169.354365 
L 356.774734 143.391672 
L 361.694483 150.861384 
L 366.614232 152.45105 
L 371.533981 144.04897 
L 376.45373 156.53078 
L 381.37348 158.563996 
L 386.293229 157.740845 
L 391.212978 175.642753 
L 396.132727 178.375249 
" style="fill:none;stroke:#ff7f0e;stroke-dasharray:1.85,0.8;stroke-dashoffset:0;stroke-width:0.5;"/>
   </g>
   <g id="line2d_16">
    <path clip-path="url(#p08e3fa204f)" d="M 110.787273 183.721834 
L 115.707022 185.955609 
L 120.626771 187.913263 
L 125.54652 185.403163 
L 130.46627 187.550962 
L 135.386019 188.827636 
L 140.305768 188.983505 
L 145.225517 186.133478 
L 150.145266 182.777756 
L 155.065016 190.361492 
L 159.984765 180.87353 
L 164.904514 176.867122 
L 169.824263 157.388435 
L 174.744013 163.797257 
L 179.663762 167.428018 
L 184.583511 128.33737 
L 189.50326 120.627254 
L 194.423009 151.952782 
L 199.342759 159.353374 
L 204.262508 145.776611 
L 209.182257 154.214474 
L 214.102006 182.057754 
L 219.021755 182.887677 
L 223.941505 172.175489 
L 228.861254 152.086312 
L 233.781003 157.130005 
L 238.700752 148.708566 
L 243.620502 135.391965 
L 248.540251 133.365021 
L 253.46 105.658946 
L 258.379749 153.356187 
L 263.299498 143.238494 
L 268.219248 164.042333 
L 273.138997 162.112912 
L 278.058746 156.647024 
L 282.978495 148.6954 
L 287.898245 156.599417 
L 292.817994 151.067418 
L 297.737743 165.058595 
L 302.657492 140.977697 
L 307.577241 157.113557 
L 312.496991 105.439828 
L 317.41674 129.038311 
L 322.336489 121.625294 
L 327.256238 132.124403 
L 332.175987 142.801926 
L 337.095737 147.315128 
L 342.015486 119.922682 
L 346.935235 123.614299 
L 351.854984 157.846408 
L 356.774734 100.730765 
L 361.694483 104.463974 
L 366.614232 105.050711 
L 371.533981 92.941915 
L 376.45373 119.884897 
L 381.37348 114.420664 
L 386.293229 122.78456 
L 391.212978 151.175749 
L 396.132727 151.68496 
" style="fill:none;stroke:#ff7f0e;stroke-dasharray:1.85,0.8;stroke-dashoffset:0;stroke-width:0.5;"/>
   </g>
   <g id="line2d_17">
    <path clip-path="url(#p08e3fa204f)" d="M 110.787273 191.95219 
L 115.707022 195.352931 
L 120.626771 198.462741 
L 125.54652 198.213752 
L 130.46627 194.89167 
L 135.386019 197.980163 
L 140.305768 196.170522 
L 145.225517 194.061059 
L 150.145266 195.874764 
L 155.065016 195.874385 
L 159.984765 191.110984 
L 164.904514 187.438217 
L 169.824263 181.937931 
L 174.744013 182.951699 
L 179.663762 183.828479 
L 184.583511 167.549754 
L 189.50326 161.274503 
L 194.423009 174.668941 
L 199.342759 170.725286 
L 204.262508 169.283829 
L 209.182257 166.191277 
L 214.102006 182.728129 
L 219.021755 185.441779 
L 223.941505 174.977345 
L 228.861254 156.697248 
L 233.781003 160.670877 
L 238.700752 155.911473 
L 243.620502 149.99162 
L 248.540251 131.522052 
L 253.46 119.06241 
L 258.379749 162.561241 
L 263.299498 167.387384 
L 268.219248 169.381532 
L 273.138997 173.199649 
L 278.058746 180.294293 
L 282.978495 172.063325 
L 287.898245 181.756872 
L 292.817994 158.791448 
L 297.737743 161.472893 
L 302.657492 171.784295 
L 307.577241 153.830576 
L 312.496991 116.869457 
L 317.41674 138.272196 
L 322.336489 131.300252 
L 327.256238 148.869292 
L 332.175987 148.883856 
L 337.095737 160.107382 
L 342.015486 173.114543 
L 346.935235 140.666772 
L 351.854984 177.269705 
L 356.774734 63.795419 
L 361.694483 134.640253 
L 366.614232 157.911247 
L 371.533981 88.281579 
L 376.45373 167.195064 
L 381.37348 171.933427 
L 386.293229 121.88847 
L 391.212978 182.666775 
L 396.132727 175.940553 
" style="fill:none;stroke:#1f77b4;stroke-linecap:round;stroke-opacity:0.8;stroke-width:0.7;"/>
    <defs>
     <path d="M 0 2.5 
C 0.663008 2.5 1.29895 2.236584 1.767767 1.767767 
C 2.236584 1.29895 2.5 0.663008 2.5 0 
C 2.5 -0.663008 2.236584 -1.29895 1.767767 -1.767767 
C 1.29895 -2.236584 0.663008 -2.5 0 -2.5 
C -0.663008 -2.5 -1.29895 -2.236584 -1.767767 -1.767767 
C -2.236584 -1.29895 -2.5 -0.663008 -2.5 0 
C -2.5 0.663008 -2.236584 1.29895 -1.767767 1.767767 
C -1.29895 2.236584 -0.663008 2.5 0 2.5 
z
" id="ma7fb11b97b" style="stroke:#000000;stroke-opacity:0.8;"/>
    </defs>
    <g clip-path="url(#p08e3fa204f)">
     <use style="fill:#1f77b4;fill-opacity:0.8;stroke:#000000;stroke-opacity:0.8;" x="110.787273" xlink:href="#ma7fb11b97b" y="191.95219"/>
     <use style="fill:#1f77b4;fill-opacity:0.8;stroke:#000000;stroke-opacity:0.8;" x="115.707022" xlink:href="#ma7fb11b97b" y="195.352931"/>
     <use style="fill:#1f77b4;fill-opacity:0.8;stroke:#000000;stroke-opacity:0.8;" x="120.626771" xlink:href="#ma7fb11b97b" y="198.462741"/>
     <use style="fill:#1f77b4;fill-opacity:0.8;stroke:#000000;stroke-opacity:0.8;" x="125.54652" xlink:href="#ma7fb11b97b" y="198.213752"/>
     <use style="fill:#1f77b4;fill-opacity:0.8;stroke:#000000;stroke-opacity:0.8;" x="130.46627" xlink:href="#ma7fb11b97b" y="194.89167"/>
     <use style="fill:#1f77b4;fill-opacity:0.8;stroke:#000000;stroke-opacity:0.8;" x="135.386019" xlink:href="#ma7fb11b97b" y="197.980163"/>
     <use style="fill:#1f77b4;fill-opacity:0.8;stroke:#000000;stroke-opacity:0.8;" x="140.305768" xlink:href="#ma7fb11b97b" y="196.170522"/>
     <use style="fill:#1f77b4;fill-opacity:0.8;stroke:#000000;stroke-opacity:0.8;" x="145.225517" xlink:href="#ma7fb11b97b" y="194.061059"/>
     <use style="fill:#1f77b4;fill-opacity:0.8;stroke:#000000;stroke-opacity:0.8;" x="150.145266" xlink:href="#ma7fb11b97b" y="195.874764"/>
     <use style="fill:#1f77b4;fill-opacity:0.8;stroke:#000000;stroke-opacity:0.8;" x="155.065016" xlink:href="#ma7fb11b97b" y="195.874385"/>
     <use style="fill:#1f77b4;fill-opacity:0.8;stroke:#000000;stroke-opacity:0.8;" x="159.984765" xlink:href="#ma7fb11b97b" y="191.110984"/>
     <use style="fill:#1f77b4;fill-opacity:0.8;stroke:#000000;stroke-opacity:0.8;" x="164.904514" xlink:href="#ma7fb11b97b" y="187.438217"/>
     <use style="fill:#1f77b4;fill-opacity:0.8;stroke:#000000;stroke-opacity:0.8;" x="169.824263" xlink:href="#ma7fb11b97b" y="181.937931"/>
     <use style="fill:#1f77b4;fill-opacity:0.8;stroke:#000000;stroke-opacity:0.8;" x="174.744013" xlink:href="#ma7fb11b97b" y="182.951699"/>
     <use style="fill:#1f77b4;fill-opacity:0.8;stroke:#000000;stroke-opacity:0.8;" x="179.663762" xlink:href="#ma7fb11b97b" y="183.828479"/>
     <use style="fill:#1f77b4;fill-opacity:0.8;stroke:#000000;stroke-opacity:0.8;" x="184.583511" xlink:href="#ma7fb11b97b" y="167.549754"/>
     <use style="fill:#1f77b4;fill-opacity:0.8;stroke:#000000;stroke-opacity:0.8;" x="189.50326" xlink:href="#ma7fb11b97b" y="161.274503"/>
     <use style="fill:#1f77b4;fill-opacity:0.8;stroke:#000000;stroke-opacity:0.8;" x="194.423009" xlink:href="#ma7fb11b97b" y="174.668941"/>
     <use style="fill:#1f77b4;fill-opacity:0.8;stroke:#000000;stroke-opacity:0.8;" x="199.342759" xlink:href="#ma7fb11b97b" y="170.725286"/>
     <use style="fill:#1f77b4;fill-opacity:0.8;stroke:#000000;stroke-opacity:0.8;" x="204.262508" xlink:href="#ma7fb11b97b" y="169.283829"/>
     <use style="fill:#1f77b4;fill-opacity:0.8;stroke:#000000;stroke-opacity:0.8;" x="209.182257" xlink:href="#ma7fb11b97b" y="166.191277"/>
     <use style="fill:#1f77b4;fill-opacity:0.8;stroke:#000000;stroke-opacity:0.8;" x="214.102006" xlink:href="#ma7fb11b97b" y="182.728129"/>
     <use style="fill:#1f77b4;fill-opacity:0.8;stroke:#000000;stroke-opacity:0.8;" x="219.021755" xlink:href="#ma7fb11b97b" y="185.441779"/>
     <use style="fill:#1f77b4;fill-opacity:0.8;stroke:#000000;stroke-opacity:0.8;" x="223.941505" xlink:href="#ma7fb11b97b" y="174.977345"/>
     <use style="fill:#1f77b4;fill-opacity:0.8;stroke:#000000;stroke-opacity:0.8;" x="228.861254" xlink:href="#ma7fb11b97b" y="156.697248"/>
     <use style="fill:#1f77b4;fill-opacity:0.8;stroke:#000000;stroke-opacity:0.8;" x="233.781003" xlink:href="#ma7fb11b97b" y="160.670877"/>
     <use style="fill:#1f77b4;fill-opacity:0.8;stroke:#000000;stroke-opacity:0.8;" x="238.700752" xlink:href="#ma7fb11b97b" y="155.911473"/>
     <use style="fill:#1f77b4;fill-opacity:0.8;stroke:#000000;stroke-opacity:0.8;" x="243.620502" xlink:href="#ma7fb11b97b" y="149.99162"/>
     <use style="fill:#1f77b4;fill-opacity:0.8;stroke:#000000;stroke-opacity:0.8;" x="248.540251" xlink:href="#ma7fb11b97b" y="131.522052"/>
     <use style="fill:#1f77b4;fill-opacity:0.8;stroke:#000000;stroke-opacity:0.8;" x="253.46" xlink:href="#ma7fb11b97b" y="119.06241"/>
     <use style="fill:#1f77b4;fill-opacity:0.8;stroke:#000000;stroke-opacity:0.8;" x="258.379749" xlink:href="#ma7fb11b97b" y="162.561241"/>
     <use style="fill:#1f77b4;fill-opacity:0.8;stroke:#000000;stroke-opacity:0.8;" x="263.299498" xlink:href="#ma7fb11b97b" y="167.387384"/>
     <use style="fill:#1f77b4;fill-opacity:0.8;stroke:#000000;stroke-opacity:0.8;" x="268.219248" xlink:href="#ma7fb11b97b" y="169.381532"/>
     <use style="fill:#1f77b4;fill-opacity:0.8;stroke:#000000;stroke-opacity:0.8;" x="273.138997" xlink:href="#ma7fb11b97b" y="173.199649"/>
     <use style="fill:#1f77b4;fill-opacity:0.8;stroke:#000000;stroke-opacity:0.8;" x="278.058746" xlink:href="#ma7fb11b97b" y="180.294293"/>
     <use style="fill:#1f77b4;fill-opacity:0.8;stroke:#000000;stroke-opacity:0.8;" x="282.978495" xlink:href="#ma7fb11b97b" y="172.063325"/>
     <use style="fill:#1f77b4;fill-opacity:0.8;stroke:#000000;stroke-opacity:0.8;" x="287.898245" xlink:href="#ma7fb11b97b" y="181.756872"/>
     <use style="fill:#1f77b4;fill-opacity:0.8;stroke:#000000;stroke-opacity:0.8;" x="292.817994" xlink:href="#ma7fb11b97b" y="158.791448"/>
     <use style="fill:#1f77b4;fill-opacity:0.8;stroke:#000000;stroke-opacity:0.8;" x="297.737743" xlink:href="#ma7fb11b97b" y="161.472893"/>
     <use style="fill:#1f77b4;fill-opacity:0.8;stroke:#000000;stroke-opacity:0.8;" x="302.657492" xlink:href="#ma7fb11b97b" y="171.784295"/>
     <use style="fill:#1f77b4;fill-opacity:0.8;stroke:#000000;stroke-opacity:0.8;" x="307.577241" xlink:href="#ma7fb11b97b" y="153.830576"/>
     <use style="fill:#1f77b4;fill-opacity:0.8;stroke:#000000;stroke-opacity:0.8;" x="312.496991" xlink:href="#ma7fb11b97b" y="116.869457"/>
     <use style="fill:#1f77b4;fill-opacity:0.8;stroke:#000000;stroke-opacity:0.8;" x="317.41674" xlink:href="#ma7fb11b97b" y="138.272196"/>
     <use style="fill:#1f77b4;fill-opacity:0.8;stroke:#000000;stroke-opacity:0.8;" x="322.336489" xlink:href="#ma7fb11b97b" y="131.300252"/>
     <use style="fill:#1f77b4;fill-opacity:0.8;stroke:#000000;stroke-opacity:0.8;" x="327.256238" xlink:href="#ma7fb11b97b" y="148.869292"/>
     <use style="fill:#1f77b4;fill-opacity:0.8;stroke:#000000;stroke-opacity:0.8;" x="332.175987" xlink:href="#ma7fb11b97b" y="148.883856"/>
     <use style="fill:#1f77b4;fill-opacity:0.8;stroke:#000000;stroke-opacity:0.8;" x="337.095737" xlink:href="#ma7fb11b97b" y="160.107382"/>
     <use style="fill:#1f77b4;fill-opacity:0.8;stroke:#000000;stroke-opacity:0.8;" x="342.015486" xlink:href="#ma7fb11b97b" y="173.114543"/>
     <use style="fill:#1f77b4;fill-opacity:0.8;stroke:#000000;stroke-opacity:0.8;" x="346.935235" xlink:href="#ma7fb11b97b" y="140.666772"/>
     <use style="fill:#1f77b4;fill-opacity:0.8;stroke:#000000;stroke-opacity:0.8;" x="351.854984" xlink:href="#ma7fb11b97b" y="177.269705"/>
     <use style="fill:#1f77b4;fill-opacity:0.8;stroke:#000000;stroke-opacity:0.8;" x="356.774734" xlink:href="#ma7fb11b97b" y="63.795419"/>
     <use style="fill:#1f77b4;fill-opacity:0.8;stroke:#000000;stroke-opacity:0.8;" x="361.694483" xlink:href="#ma7fb11b97b" y="134.640253"/>
     <use style="fill:#1f77b4;fill-opacity:0.8;stroke:#000000;stroke-opacity:0.8;" x="366.614232" xlink:href="#ma7fb11b97b" y="157.911247"/>
     <use style="fill:#1f77b4;fill-opacity:0.8;stroke:#000000;stroke-opacity:0.8;" x="371.533981" xlink:href="#ma7fb11b97b" y="88.281579"/>
     <use style="fill:#1f77b4;fill-opacity:0.8;stroke:#000000;stroke-opacity:0.8;" x="376.45373" xlink:href="#ma7fb11b97b" y="167.195064"/>
     <use style="fill:#1f77b4;fill-opacity:0.8;stroke:#000000;stroke-opacity:0.8;" x="381.37348" xlink:href="#ma7fb11b97b" y="171.933427"/>
     <use style="fill:#1f77b4;fill-opacity:0.8;stroke:#000000;stroke-opacity:0.8;" x="386.293229" xlink:href="#ma7fb11b97b" y="121.88847"/>
     <use style="fill:#1f77b4;fill-opacity:0.8;stroke:#000000;stroke-opacity:0.8;" x="391.212978" xlink:href="#ma7fb11b97b" y="182.666775"/>
     <use style="fill:#1f77b4;fill-opacity:0.8;stroke:#000000;stroke-opacity:0.8;" x="396.132727" xlink:href="#ma7fb11b97b" y="175.940553"/>
    </g>
   </g>
   <g id="line2d_18">
    <path clip-path="url(#p08e3fa204f)" d="M 110.787273 191.95219 
L 115.707022 195.352931 
L 120.626771 198.462741 
L 125.54652 198.213752 
L 130.46627 194.89167 
L 135.386019 197.980163 
L 140.305768 196.170522 
L 145.225517 194.061059 
L 150.145266 195.874764 
L 155.065016 195.874385 
L 159.984765 191.110984 
L 164.904514 187.438217 
L 169.824263 181.937931 
L 174.744013 182.951699 
L 179.663762 183.828479 
L 184.583511 167.549754 
L 189.50326 161.274503 
L 194.423009 174.668941 
L 199.342759 170.725286 
L 204.262508 169.283829 
L 209.182257 166.191277 
L 214.102006 182.728129 
L 219.021755 185.441779 
L 223.941505 174.977345 
L 228.861254 156.697248 
L 233.781003 160.670877 
L 238.700752 155.911473 
L 243.620502 149.99162 
L 248.540251 131.522052 
L 253.46 119.06241 
L 258.379749 162.561241 
L 263.299498 167.387384 
L 268.219248 169.381532 
L 273.138997 173.199649 
L 278.058746 180.294293 
L 282.978495 172.063325 
L 287.898245 181.756872 
L 292.817994 158.791448 
L 297.737743 161.472893 
L 302.657492 171.784295 
L 307.577241 153.830576 
L 312.496991 116.869457 
L 317.41674 138.272196 
L 322.336489 131.300252 
L 327.256238 148.869292 
L 332.175987 148.883856 
L 337.095737 160.107382 
L 342.015486 173.114543 
L 346.935235 140.666772 
L 351.854984 177.269705 
L 356.774734 63.795419 
L 361.694483 134.640253 
L 366.614232 157.911247 
L 371.533981 88.281579 
L 376.45373 167.195064 
L 381.37348 171.933427 
L 386.293229 121.88847 
L 391.212978 182.666775 
L 396.132727 175.940553 
" style="fill:none;stroke:#1f77b4;stroke-linecap:round;stroke-width:0.7;"/>
   </g>
   <g id="line2d_19">
    <path clip-path="url(#p08e3fa204f)" d="M 110.787273 195.034807 
L 115.707022 198.213553 
L 120.626771 201.227348 
L 125.54652 200.780337 
L 130.46627 198.03012 
L 135.386019 200.487679 
L 140.305768 199.257003 
L 145.225517 197.109699 
L 150.145266 198.989627 
L 155.065016 199.06118 
L 159.984765 194.51711 
L 164.904514 191.507706 
L 169.824263 189.605791 
L 174.744013 189.03058 
L 179.663762 188.547172 
L 184.583511 176.683276 
L 189.50326 170.658472 
L 194.423009 179.501143 
L 199.342759 181.872446 
L 204.262508 181.036182 
L 209.182257 170.674721 
L 214.102006 186.121541 
L 219.021755 188.63174 
L 223.941505 178.811485 
L 228.861254 161.48466 
L 233.781003 165.358919 
L 238.700752 161.205399 
L 243.620502 155.292312 
L 248.540251 138.67972 
L 253.46 125.792213 
L 258.379749 167.312733 
L 263.299498 171.09004 
L 268.219248 175.535387 
L 273.138997 176.451108 
L 278.058746 184.307151 
L 282.978495 176.50827 
L 287.898245 185.967052 
L 292.817994 164.119218 
L 297.737743 165.912045 
L 302.657492 175.437673 
L 307.577241 158.736773 
L 312.496991 123.480814 
L 317.41674 144.40117 
L 322.336489 136.978725 
L 327.256238 154.614531 
L 332.175987 154.569137 
L 337.095737 164.91265 
L 342.015486 178.432125 
L 346.935235 158.202188 
L 351.854984 183.534583 
L 356.774734 97.33902 
L 361.694483 157.376995 
L 366.614232 175.525273 
L 371.533981 110.228596 
L 376.45373 174.47535 
L 381.37348 178.698038 
L 386.293229 140.804588 
L 391.212978 187.815287 
L 396.132727 184.784316 
" style="fill:none;stroke:#1f77b4;stroke-dasharray:1.85,0.8;stroke-dashoffset:0;stroke-width:0.5;"/>
   </g>
   <g id="line2d_20">
    <path clip-path="url(#p08e3fa204f)" d="M 110.787273 188.869574 
L 115.707022 192.49231 
L 120.626771 195.698133 
L 125.54652 195.647167 
L 130.46627 191.75322 
L 135.386019 195.472648 
L 140.305768 193.08404 
L 145.225517 191.012419 
L 150.145266 192.7599 
L 155.065016 192.687591 
L 159.984765 187.704859 
L 164.904514 183.368729 
L 169.824263 174.270072 
L 174.744013 176.872818 
L 179.663762 179.109785 
L 184.583511 158.416233 
L 189.50326 151.890535 
L 194.423009 169.836738 
L 199.342759 159.578126 
L 204.262508 157.531477 
L 209.182257 161.707832 
L 214.102006 179.334718 
L 219.021755 182.251817 
L 223.941505 171.143206 
L 228.861254 151.909837 
L 233.781003 155.982835 
L 238.700752 150.617548 
L 243.620502 144.690928 
L 248.540251 124.364383 
L 253.46 112.332607 
L 258.379749 157.809748 
L 263.299498 163.684729 
L 268.219248 163.227678 
L 273.138997 169.94819 
L 278.058746 176.281436 
L 282.978495 167.618381 
L 287.898245 177.546691 
L 292.817994 153.463678 
L 297.737743 157.033741 
L 302.657492 168.130916 
L 307.577241 148.924378 
L 312.496991 110.258101 
L 317.41674 132.143221 
L 322.336489 125.621779 
L 327.256238 143.124054 
L 332.175987 143.198575 
L 337.095737 155.302114 
L 342.015486 167.796962 
L 346.935235 123.131355 
L 351.854984 171.004828 
L 356.774734 30.251818 
L 361.694483 111.903512 
L 366.614232 140.297221 
L 371.533981 66.334563 
L 376.45373 159.914779 
L 381.37348 165.168815 
L 386.293229 102.972352 
L 391.212978 177.518262 
L 396.132727 167.09679 
" style="fill:none;stroke:#1f77b4;stroke-dasharray:1.85,0.8;stroke-dashoffset:0;stroke-width:0.5;"/>
   </g>
   <g id="patch_3">
    <path d="M 96.52 211.94 
L 96.52 21.6 
" style="fill:none;stroke:#cccccc;stroke-linecap:square;stroke-linejoin:miter;stroke-width:0.8;"/>
   </g>
   <g id="patch_4">
    <path d="M 96.52 211.94 
L 410.4 211.94 
" style="fill:none;stroke:#cccccc;stroke-linecap:square;stroke-linejoin:miter;stroke-width:0.8;"/>
   </g>
   <g id="legend_1">
    <g id="patch_5">
     <path d="M 110.52 123.146875 
L 283.460625 123.146875 
Q 287.460625 123.146875 287.460625 119.146875 
L 287.460625 35.6 
Q 287.460625 31.6 283.460625 31.6 
L 110.52 31.6 
Q 106.52 31.6 106.52 35.6 
L 106.52 119.146875 
Q 106.52 123.146875 110.52 123.146875 
z
" style="fill:#ffffff;opacity:0.8;stroke:#cccccc;stroke-linejoin:miter;"/>
    </g>
    <g id="line2d_21">
     <path d="M 114.52 46.946875 
L 154.52 46.946875 
" style="fill:none;stroke:#808080;stroke-linecap:round;stroke-opacity:0.8;stroke-width:0.7;"/>
    </g>
    <g id="line2d_22">
     <g>
      <use style="fill:#808080;fill-opacity:0.8;stroke:#000000;stroke-linejoin:miter;stroke-opacity:0.8;" x="134.52" xlink:href="#ma9bbdf5bc9" y="46.946875"/>
     </g>
    </g>
    <g id="text_11">
     <!-- Random -->
     <g style="fill:#262626;" transform="translate(170.52 53.946875)scale(0.2 -0.2)">
      <defs>
       <path d="M 2622 2488 
Q 3059 2488 3314 2663 
Q 3569 2838 3569 3294 
Q 3569 3784 3213 3963 
Q 3022 4056 2703 4056 
L 1184 4056 
L 1184 2488 
L 2622 2488 
z
M 563 4591 
L 2688 4591 
Q 3213 4591 3553 4438 
Q 4200 4144 4200 3353 
Q 4200 2941 4029 2678 
Q 3859 2416 3553 2256 
Q 3822 2147 3958 1969 
Q 4094 1791 4109 1391 
L 4131 775 
Q 4141 513 4175 384 
Q 4231 166 4375 103 
L 4375 0 
L 3613 0 
Q 3581 59 3562 153 
Q 3544 247 3531 516 
L 3494 1281 
Q 3472 1731 3159 1884 
Q 2981 1969 2600 1969 
L 1184 1969 
L 1184 0 
L 563 0 
L 563 4591 
z
" id="Helvetica-52" transform="scale(0.015625)"/>
      </defs>
      <use xlink:href="#Helvetica-52"/>
      <use x="72.216797" xlink:href="#Helvetica-61"/>
      <use x="127.832031" xlink:href="#Helvetica-6e"/>
      <use x="183.447266" xlink:href="#Helvetica-64"/>
      <use x="239.0625" xlink:href="#Helvetica-6f"/>
      <use x="294.677734" xlink:href="#Helvetica-6d"/>
     </g>
    </g>
    <g id="line2d_23">
     <path d="M 114.52 75.4625 
L 154.52 75.4625 
" style="fill:none;stroke:#ff7f0e;stroke-linecap:round;stroke-opacity:0.8;stroke-width:0.7;"/>
    </g>
    <g id="line2d_24">
     <g>
      <use style="fill:#ff7f0e;fill-opacity:0.8;stroke:#000000;stroke-linejoin:miter;stroke-opacity:0.8;" x="134.52" xlink:href="#m67f29d411f" y="75.4625"/>
     </g>
    </g>
    <g id="text_12">
     <!-- Bottom 10% -->
     <g style="fill:#262626;" transform="translate(170.52 82.4625)scale(0.2 -0.2)">
      <defs>
       <path d="M 2213 2650 
Q 2606 2650 2825 2759 
Q 3169 2931 3169 3378 
Q 3169 3828 2803 3984 
Q 2597 4072 2191 4072 
L 1081 4072 
L 1081 2650 
L 2213 2650 
z
M 2422 531 
Q 2994 531 3238 863 
Q 3391 1072 3391 1369 
Q 3391 1869 2944 2050 
Q 2706 2147 2316 2147 
L 1081 2147 
L 1081 531 
L 2422 531 
z
M 472 4591 
L 2444 4591 
Q 3250 4591 3591 4109 
Q 3791 3825 3791 3453 
Q 3791 3019 3544 2741 
Q 3416 2594 3175 2472 
Q 3528 2338 3703 2169 
Q 4013 1869 4013 1341 
Q 4013 897 3734 538 
Q 3319 0 2413 0 
L 472 0 
L 472 4591 
z
" id="Helvetica-42" transform="scale(0.015625)"/>
       <path d="M 4363 2175 
Q 4813 2175 5131 1856 
Q 5450 1538 5450 1088 
Q 5450 638 5131 319 
Q 4813 0 4363 0 
Q 3909 0 3590 319 
Q 3272 638 3272 1088 
Q 3272 1538 3590 1856 
Q 3909 2175 4363 2175 
z
M 3909 4456 
L 4256 4456 
L 1753 -119 
L 1406 -119 
L 3909 4456 
z
M 1294 2606 
Q 1563 2606 1752 2795 
Q 1941 2984 1941 3250 
Q 1941 3516 1752 3705 
Q 1563 3894 1294 3894 
Q 1028 3894 839 3706 
Q 650 3519 650 3250 
Q 650 2984 839 2795 
Q 1028 2606 1294 2606 
z
M 1294 4341 
Q 1747 4341 2065 4020 
Q 2384 3700 2384 3250 
Q 2384 2800 2065 2481 
Q 1747 2163 1294 2163 
Q 844 2163 525 2481 
Q 206 2800 206 3250 
Q 206 3700 525 4020 
Q 844 4341 1294 4341 
z
M 4363 444 
Q 4628 444 4817 633 
Q 5006 822 5006 1088 
Q 5006 1353 4817 1542 
Q 4628 1731 4363 1731 
Q 4094 1731 3905 1542 
Q 3716 1353 3716 1088 
Q 3716 822 3905 633 
Q 4094 444 4363 444 
z
" id="Helvetica-25" transform="scale(0.015625)"/>
      </defs>
      <use xlink:href="#Helvetica-42"/>
      <use x="66.699219" xlink:href="#Helvetica-6f"/>
      <use x="122.314453" xlink:href="#Helvetica-74"/>
      <use x="150.097656" xlink:href="#Helvetica-74"/>
      <use x="177.880859" xlink:href="#Helvetica-6f"/>
      <use x="233.496094" xlink:href="#Helvetica-6d"/>
      <use x="316.796875" xlink:href="#Helvetica-20"/>
      <use x="344.580078" xlink:href="#Helvetica-31"/>
      <use x="400.195312" xlink:href="#Helvetica-30"/>
      <use x="455.810547" xlink:href="#Helvetica-25"/>
     </g>
    </g>
    <g id="line2d_25">
     <path d="M 114.52 103.978125 
L 154.52 103.978125 
" style="fill:none;stroke:#1f77b4;stroke-linecap:round;stroke-opacity:0.8;stroke-width:0.7;"/>
    </g>
    <g id="line2d_26">
     <g>
      <use style="fill:#1f77b4;fill-opacity:0.8;stroke:#000000;stroke-opacity:0.8;" x="134.52" xlink:href="#ma7fb11b97b" y="103.978125"/>
     </g>
    </g>
    <g id="text_13">
     <!-- Top 10% -->
     <g style="fill:#262626;" transform="translate(170.52 110.978125)scale(0.2 -0.2)">
      <defs>
       <path d="M 3828 4591 
L 3828 4044 
L 2281 4044 
L 2281 0 
L 1650 0 
L 1650 4044 
L 103 4044 
L 103 4591 
L 3828 4591 
z
" id="Helvetica-54" transform="scale(0.015625)"/>
       <path d="M 1825 378 
Q 2219 378 2480 708 
Q 2741 1038 2741 1694 
Q 2741 2094 2625 2381 
Q 2406 2934 1825 2934 
Q 1241 2934 1025 2350 
Q 909 2038 909 1556 
Q 909 1169 1025 897 
Q 1244 378 1825 378 
z
M 369 3331 
L 916 3331 
L 916 2888 
Q 1084 3116 1284 3241 
Q 1569 3428 1953 3428 
Q 2522 3428 2919 2992 
Q 3316 2556 3316 1747 
Q 3316 653 2744 184 
Q 2381 -113 1900 -113 
Q 1522 -113 1266 53 
Q 1116 147 931 375 
L 931 -1334 
L 369 -1334 
L 369 3331 
z
" id="Helvetica-70" transform="scale(0.015625)"/>
      </defs>
      <use xlink:href="#Helvetica-54"/>
      <use x="61.083984" xlink:href="#Helvetica-6f"/>
      <use x="116.699219" xlink:href="#Helvetica-70"/>
      <use x="172.314453" xlink:href="#Helvetica-20"/>
      <use x="200.097656" xlink:href="#Helvetica-31"/>
      <use x="255.712891" xlink:href="#Helvetica-30"/>
      <use x="311.328125" xlink:href="#Helvetica-25"/>
     </g>
    </g>
   </g>
  </g>
 </g>
 <defs>
  <clipPath id="p08e3fa204f">
   <rect height="190.34" width="313.88" x="96.52" y="21.6"/>
  </clipPath>
 </defs>
</svg>
