<?xml version="1.0" encoding="utf-8" standalone="no"?>
<!DOCTYPE svg PUBLIC "-//W3C//DTD SVG 1.1//EN"
  "http://www.w3.org/Graphics/SVG/1.1/DTD/svg11.dtd">
<svg height="288pt" version="1.1" viewBox="0 0 432 288" width="432pt" xmlns="http://www.w3.org/2000/svg" xmlns:xlink="http://www.w3.org/1999/xlink">
 <metadata>
  <rdf:RDF xmlns:cc="http://creativecommons.org/ns#" xmlns:dc="http://purl.org/dc/elements/1.1/" xmlns:rdf="http://www.w3.org/1999/02/22-rdf-syntax-ns#">
   <cc:Work>
    <dc:type rdf:resource="http://purl.org/dc/dcmitype/StillImage"/>
    <dc:date>2023-01-14T19:23:57.440257</dc:date>
    <dc:format>image/svg+xml</dc:format>
    <dc:creator>
     <cc:Agent>
      <dc:title>Matplotlib v3.4.2, https://matplotlib.org/</dc:title>
     </cc:Agent>
    </dc:creator>
   </cc:Work>
  </rdf:RDF>
 </metadata>
 <defs>
  <style type="text/css">*{stroke-linecap:butt;stroke-linejoin:round;}</style>
 </defs>
 <g id="figure_1">
  <g id="patch_1">
   <path d="M 0 288 
L 432 288 
L 432 0 
L 0 0 
z
" style="fill:#ffffff;"/>
  </g>
  <g id="axes_1">
   <g id="patch_2">
    <path d="M 96.52 211.94 
L 410.4 211.94 
L 410.4 21.6 
L 96.52 21.6 
z
" style="fill:#ffffff;"/>
   </g>
   <g id="PolyCollection_1">
    <defs>
     <path d="M 110.787273 -257.748182 
L 110.787273 -204.16034 
L 116.990435 -130.813496 
L 123.193597 -176.066773 
L 129.396759 -167.769662 
L 135.599921 -126.37495 
L 141.803083 -117.366984 
L 148.006245 -135.271557 
L 154.209407 -160.449556 
L 160.412569 -145.152844 
L 166.615731 -186.357188 
L 172.818893 -150.908579 
L 179.022055 -171.398775 
L 185.225217 -139.36886 
L 191.428379 -122.179554 
L 197.631542 -123.504771 
L 203.834704 -109.679731 
L 210.037866 -117.005181 
L 216.241028 -105.417165 
L 222.44419 -110.531465 
L 228.647352 -106.264644 
L 234.850514 -115.5512 
L 241.053676 -103.653467 
L 247.256838 -110.697723 
L 253.46 -101.536587 
L 259.663162 -99.246786 
L 265.866324 -94.356592 
L 272.069486 -92.408944 
L 278.272648 -91.284963 
L 284.47581 -91.710232 
L 290.678972 -90.847546 
L 296.882134 -91.686671 
L 303.085296 -90.341585 
L 309.288458 -92.108605 
L 315.491621 -92.61107 
L 321.694783 -90.692656 
L 327.897945 -91.079134 
L 334.101107 -89.362567 
L 340.304269 -89.794076 
L 346.507431 -90.48832 
L 352.710593 -94.609441 
L 358.913755 -102.061044 
L 365.116917 -105.563114 
L 371.320079 -101.442461 
L 377.523241 -100.602557 
L 383.726403 -101.568485 
L 389.929565 -100.519121 
L 396.132727 -103.986877 
L 396.132727 -125.136035 
L 396.132727 -125.136035 
L 389.929565 -117.581521 
L 383.726403 -118.512778 
L 377.523241 -117.374956 
L 371.320079 -118.776125 
L 365.116917 -125.979999 
L 358.913755 -120.937719 
L 352.710593 -106.864075 
L 346.507431 -98.394828 
L 340.304269 -96.950365 
L 334.101107 -95.961135 
L 327.897945 -99.511061 
L 321.694783 -98.497433 
L 315.491621 -102.398651 
L 309.288458 -101.652785 
L 303.085296 -98.308487 
L 296.882134 -101.397012 
L 290.678972 -99.678368 
L 284.47581 -101.653577 
L 278.272648 -100.682273 
L 272.069486 -103.258396 
L 265.866324 -107.404733 
L 259.663162 -117.688976 
L 253.46 -122.174142 
L 247.256838 -137.422428 
L 241.053676 -125.458149 
L 234.850514 -146.383343 
L 228.647352 -132.978281 
L 222.44419 -144.084636 
L 216.241028 -132.325806 
L 210.037866 -151.913201 
L 203.834704 -139.43283 
L 197.631542 -160.498685 
L 191.428379 -158.752003 
L 185.225217 -184.567363 
L 179.022055 -223.143621 
L 172.818893 -200.325585 
L 166.615731 -238.150713 
L 160.412569 -189.922552 
L 154.209407 -215.180879 
L 148.006245 -178.541095 
L 141.803083 -147.470341 
L 135.599921 -161.011318 
L 129.396759 -218.106918 
L 123.193597 -227.740695 
L 116.990435 -167.875882 
L 110.787273 -257.748182 
z
" id="mb7826fcd63" style="stroke:#ff8c00;stroke-opacity:0.2;"/>
    </defs>
    <g clip-path="url(#p4f29d367da)">
     <use style="fill:#ff8c00;fill-opacity:0.2;stroke:#ff8c00;stroke-opacity:0.2;" x="0" xlink:href="#mb7826fcd63" y="288"/>
    </g>
   </g>
   <g id="PolyCollection_2">
    <defs>
     <path d="M 110.787273 -146.96709 
L 110.787273 -114.401124 
L 116.990435 -88.900827 
L 123.193597 -94.94984 
L 129.396759 -91.034849 
L 135.599921 -90.406874 
L 141.803083 -90.072919 
L 148.006245 -96.791002 
L 154.209407 -93.732146 
L 160.412569 -93.33852 
L 166.615731 -92.760984 
L 172.818893 -107.507422 
L 179.022055 -96.34113 
L 185.225217 -109.704241 
L 191.428379 -98.841114 
L 197.631542 -110.245416 
L 203.834704 -98.175673 
L 210.037866 -109.923424 
L 216.241028 -96.569509 
L 222.44419 -114.093815 
L 228.647352 -95.520022 
L 234.850514 -99.056495 
L 241.053676 -89.136953 
L 247.256838 -93.461339 
L 253.46 -89.495895 
L 259.663162 -89.913903 
L 265.866324 -87.196975 
L 272.069486 -87.073534 
L 278.272648 -86.091856 
L 284.47581 -86.189461 
L 290.678972 -85.993926 
L 296.882134 -85.913304 
L 303.085296 -85.218596 
L 309.288458 -85.450423 
L 315.491621 -85.29237 
L 321.694783 -85.005343 
L 327.897945 -85.209355 
L 334.101107 -84.711818 
L 340.304269 -84.950407 
L 346.507431 -85.084926 
L 352.710593 -85.899308 
L 358.913755 -86.514465 
L 365.116917 -85.665789 
L 371.320079 -85.678389 
L 377.523241 -86.145242 
L 383.726403 -85.697633 
L 389.929565 -86.445005 
L 396.132727 -87.461022 
L 396.132727 -99.252421 
L 396.132727 -99.252421 
L 389.929565 -95.965579 
L 383.726403 -94.118248 
L 377.523241 -95.100072 
L 371.320079 -94.054264 
L 365.116917 -95.094909 
L 358.913755 -96.583607 
L 352.710593 -93.288447 
L 346.507431 -89.821529 
L 340.304269 -89.198971 
L 334.101107 -88.516182 
L 327.897945 -90.611514 
L 321.694783 -90.002316 
L 315.491621 -91.209082 
L 309.288458 -91.35369 
L 303.085296 -90.009117 
L 296.882134 -92.196184 
L 290.678972 -92.535482 
L 284.47581 -93.125941 
L 278.272648 -92.771775 
L 272.069486 -96.564296 
L 265.866324 -96.883009 
L 259.663162 -104.424609 
L 253.46 -104.284108 
L 247.256838 -113.65228 
L 241.053676 -102.901776 
L 234.850514 -124.243593 
L 228.647352 -117.883511 
L 222.44419 -151.663394 
L 216.241028 -120.519829 
L 210.037866 -144.204515 
L 203.834704 -124.778848 
L 197.631542 -146.789529 
L 191.428379 -125.817391 
L 185.225217 -143.67962 
L 179.022055 -123.214372 
L 172.818893 -140.287271 
L 166.615731 -117.148967 
L 160.412569 -120.087676 
L 154.209407 -118.258809 
L 148.006245 -124.118099 
L 141.803083 -105.529889 
L 135.599921 -108.128101 
L 129.396759 -111.249824 
L 123.193597 -119.42036 
L 116.990435 -109.708691 
L 110.787273 -146.96709 
z
" id="ma69c24a91c" style="stroke:#808080;stroke-opacity:0.2;"/>
    </defs>
    <g clip-path="url(#p4f29d367da)">
     <use style="fill:#808080;fill-opacity:0.2;stroke:#808080;stroke-opacity:0.2;" x="0" xlink:href="#ma69c24a91c" y="288"/>
    </g>
   </g>
   <g id="matplotlib.axis_1">
    <g id="xtick_1">
     <g id="line2d_1">
      <defs>
       <path d="M 0 0 
L 0 10 
" id="m72b3f84704" style="stroke:#000000;stroke-width:0.8;"/>
      </defs>
      <g>
       <use style="stroke:#000000;stroke-width:0.8;" x="110.787273" xlink:href="#m72b3f84704" y="211.94"/>
      </g>
     </g>
     <g id="text_1">
      <!-- 0 -->
      <g transform="translate(105.226335 239.786875)scale(0.2 -0.2)">
       <defs>
        <path d="M 1731 4475 
Q 2600 4475 2988 3759 
Q 3288 3206 3288 2244 
Q 3288 1331 3016 734 
Q 2622 -122 1728 -122 
Q 922 -122 528 578 
Q 200 1163 200 2147 
Q 200 2909 397 3456 
Q 766 4475 1731 4475 
z
M 1725 391 
Q 2163 391 2422 778 
Q 2681 1166 2681 2222 
Q 2681 2984 2493 3476 
Q 2306 3969 1766 3969 
Q 1269 3969 1039 3501 
Q 809 3034 809 2125 
Q 809 1441 956 1025 
Q 1181 391 1725 391 
z
" id="Helvetica-30" transform="scale(0.015625)"/>
       </defs>
       <use xlink:href="#Helvetica-30"/>
      </g>
     </g>
    </g>
    <g id="xtick_2">
     <g id="line2d_2">
      <g>
       <use style="stroke:#000000;stroke-width:0.8;" x="172.818893" xlink:href="#m72b3f84704" y="211.94"/>
      </g>
     </g>
     <g id="text_2">
      <!-- 10 -->
      <g transform="translate(161.697018 239.786875)scale(0.2 -0.2)">
       <defs>
        <path d="M 613 3169 
L 613 3600 
Q 1222 3659 1462 3798 
Q 1703 3938 1822 4456 
L 2266 4456 
L 2266 0 
L 1666 0 
L 1666 3169 
L 613 3169 
z
" id="Helvetica-31" transform="scale(0.015625)"/>
       </defs>
       <use xlink:href="#Helvetica-31"/>
       <use x="55.615234" xlink:href="#Helvetica-30"/>
      </g>
     </g>
    </g>
    <g id="xtick_3">
     <g id="line2d_3">
      <g>
       <use style="stroke:#000000;stroke-width:0.8;" x="234.850514" xlink:href="#m72b3f84704" y="211.94"/>
      </g>
     </g>
     <g id="text_3">
      <!-- 20 -->
      <g transform="translate(223.728639 239.786875)scale(0.2 -0.2)">
       <defs>
        <path d="M 200 0 
Q 231 578 439 1006 
Q 647 1434 1250 1784 
L 1850 2131 
Q 2253 2366 2416 2531 
Q 2672 2791 2672 3125 
Q 2672 3516 2437 3745 
Q 2203 3975 1813 3975 
Q 1234 3975 1013 3538 
Q 894 3303 881 2888 
L 309 2888 
Q 319 3472 525 3841 
Q 891 4491 1816 4491 
Q 2584 4491 2939 4075 
Q 3294 3659 3294 3150 
Q 3294 2613 2916 2231 
Q 2697 2009 2131 1694 
L 1703 1456 
Q 1397 1288 1222 1134 
Q 909 863 828 531 
L 3272 531 
L 3272 0 
L 200 0 
z
" id="Helvetica-32" transform="scale(0.015625)"/>
       </defs>
       <use xlink:href="#Helvetica-32"/>
       <use x="55.615234" xlink:href="#Helvetica-30"/>
      </g>
     </g>
    </g>
    <g id="xtick_4">
     <g id="line2d_4">
      <g>
       <use style="stroke:#000000;stroke-width:0.8;" x="296.882134" xlink:href="#m72b3f84704" y="211.94"/>
      </g>
     </g>
     <g id="text_4">
      <!-- 30 -->
      <g transform="translate(285.760259 239.786875)scale(0.2 -0.2)">
       <defs>
        <path d="M 1663 -122 
Q 869 -122 511 314 
Q 153 750 153 1375 
L 741 1375 
Q 778 941 903 744 
Q 1122 391 1694 391 
Q 2138 391 2406 628 
Q 2675 866 2675 1241 
Q 2675 1703 2392 1887 
Q 2109 2072 1606 2072 
Q 1550 2072 1492 2070 
Q 1434 2069 1375 2066 
L 1375 2563 
Q 1463 2553 1522 2550 
Q 1581 2547 1650 2547 
Q 1966 2547 2169 2647 
Q 2525 2822 2525 3272 
Q 2525 3606 2287 3787 
Q 2050 3969 1734 3969 
Q 1172 3969 956 3594 
Q 838 3388 822 3006 
L 266 3006 
Q 266 3506 466 3856 
Q 809 4481 1675 4481 
Q 2359 4481 2734 4176 
Q 3109 3872 3109 3294 
Q 3109 2881 2888 2625 
Q 2750 2466 2531 2375 
Q 2884 2278 3082 2001 
Q 3281 1725 3281 1325 
Q 3281 684 2859 281 
Q 2438 -122 1663 -122 
z
" id="Helvetica-33" transform="scale(0.015625)"/>
       </defs>
       <use xlink:href="#Helvetica-33"/>
       <use x="55.615234" xlink:href="#Helvetica-30"/>
      </g>
     </g>
    </g>
    <g id="xtick_5">
     <g id="line2d_5">
      <g>
       <use style="stroke:#000000;stroke-width:0.8;" x="358.913755" xlink:href="#m72b3f84704" y="211.94"/>
      </g>
     </g>
     <g id="text_5">
      <!-- 40 -->
      <g transform="translate(347.79188 239.786875)scale(0.2 -0.2)">
       <defs>
        <path d="M 2116 1584 
L 2116 3613 
L 681 1584 
L 2116 1584 
z
M 2125 0 
L 2125 1094 
L 163 1094 
L 163 1644 
L 2213 4488 
L 2688 4488 
L 2688 1584 
L 3347 1584 
L 3347 1094 
L 2688 1094 
L 2688 0 
L 2125 0 
z
" id="Helvetica-34" transform="scale(0.015625)"/>
       </defs>
       <use xlink:href="#Helvetica-34"/>
       <use x="55.615234" xlink:href="#Helvetica-30"/>
      </g>
     </g>
    </g>
    <g id="text_6">
     <!-- Position -->
     <g transform="translate(217.885 262.3025)scale(0.2 -0.2)">
      <defs>
       <path d="M 547 4591 
L 2613 4591 
Q 3225 4591 3600 4245 
Q 3975 3900 3975 3275 
Q 3975 2738 3640 2339 
Q 3306 1941 2613 1941 
L 1169 1941 
L 1169 0 
L 547 0 
L 547 4591 
z
M 3347 3272 
Q 3347 3778 2972 3959 
Q 2766 4056 2406 4056 
L 1169 4056 
L 1169 2466 
L 2406 2466 
Q 2825 2466 3086 2644 
Q 3347 2822 3347 3272 
z
" id="Helvetica-50" transform="scale(0.015625)"/>
       <path d="M 1741 363 
Q 2300 363 2508 786 
Q 2716 1209 2716 1728 
Q 2716 2197 2566 2491 
Q 2328 2953 1747 2953 
Q 1231 2953 997 2559 
Q 763 2166 763 1609 
Q 763 1075 997 719 
Q 1231 363 1741 363 
z
M 1763 3444 
Q 2409 3444 2856 3012 
Q 3303 2581 3303 1744 
Q 3303 934 2909 406 
Q 2516 -122 1688 -122 
Q 997 -122 590 345 
Q 184 813 184 1600 
Q 184 2444 612 2944 
Q 1041 3444 1763 3444 
z
M 1744 3428 
L 1744 3428 
z
" id="Helvetica-6f" transform="scale(0.015625)"/>
       <path d="M 747 1050 
Q 772 769 888 619 
Q 1100 347 1625 347 
Q 1938 347 2175 483 
Q 2413 619 2413 903 
Q 2413 1119 2222 1231 
Q 2100 1300 1741 1391 
L 1294 1503 
Q 866 1609 663 1741 
Q 300 1969 300 2372 
Q 300 2847 642 3140 
Q 984 3434 1563 3434 
Q 2319 3434 2653 2991 
Q 2863 2709 2856 2384 
L 2325 2384 
Q 2309 2575 2191 2731 
Q 1997 2953 1519 2953 
Q 1200 2953 1036 2831 
Q 872 2709 872 2509 
Q 872 2291 1088 2159 
Q 1213 2081 1456 2022 
L 1828 1931 
Q 2434 1784 2641 1647 
Q 2969 1431 2969 969 
Q 2969 522 2630 197 
Q 2291 -128 1597 -128 
Q 850 -128 539 211 
Q 228 550 206 1050 
L 747 1050 
z
M 1578 3428 
L 1578 3428 
z
" id="Helvetica-73" transform="scale(0.015625)"/>
       <path d="M 413 3331 
L 984 3331 
L 984 0 
L 413 0 
L 413 3331 
z
M 413 4591 
L 984 4591 
L 984 3953 
L 413 3953 
L 413 4591 
z
" id="Helvetica-69" transform="scale(0.015625)"/>
       <path d="M 525 4281 
L 1094 4281 
L 1094 3347 
L 1628 3347 
L 1628 2888 
L 1094 2888 
L 1094 703 
Q 1094 528 1213 469 
Q 1278 434 1431 434 
Q 1472 434 1519 436 
Q 1566 438 1628 444 
L 1628 0 
Q 1531 -28 1426 -40 
Q 1322 -53 1200 -53 
Q 806 -53 665 148 
Q 525 350 525 672 
L 525 2888 
L 72 2888 
L 72 3347 
L 525 3347 
L 525 4281 
z
" id="Helvetica-74" transform="scale(0.015625)"/>
       <path d="M 413 3347 
L 947 3347 
L 947 2872 
Q 1184 3166 1450 3294 
Q 1716 3422 2041 3422 
Q 2753 3422 3003 2925 
Q 3141 2653 3141 2147 
L 3141 0 
L 2569 0 
L 2569 2109 
Q 2569 2416 2478 2603 
Q 2328 2916 1934 2916 
Q 1734 2916 1606 2875 
Q 1375 2806 1200 2600 
Q 1059 2434 1017 2257 
Q 975 2081 975 1753 
L 975 0 
L 413 0 
L 413 3347 
z
M 1734 3428 
L 1734 3428 
z
" id="Helvetica-6e" transform="scale(0.015625)"/>
      </defs>
      <use xlink:href="#Helvetica-50"/>
      <use x="66.699219" xlink:href="#Helvetica-6f"/>
      <use x="122.314453" xlink:href="#Helvetica-73"/>
      <use x="172.314453" xlink:href="#Helvetica-69"/>
      <use x="194.53125" xlink:href="#Helvetica-74"/>
      <use x="222.314453" xlink:href="#Helvetica-69"/>
      <use x="244.53125" xlink:href="#Helvetica-6f"/>
      <use x="300.146484" xlink:href="#Helvetica-6e"/>
     </g>
    </g>
   </g>
   <g id="matplotlib.axis_2">
    <g id="ytick_1">
     <g id="line2d_6">
      <defs>
       <path d="M 0 0 
L -10 0 
" id="m15bf2ed224" style="stroke:#000000;stroke-width:0.8;"/>
      </defs>
      <g>
       <use style="stroke:#000000;stroke-width:0.8;" x="96.52" xlink:href="#m15bf2ed224" y="204.453135"/>
      </g>
     </g>
     <g id="text_7">
      <!-- 0.00 -->
      <g transform="translate(44.098125 211.626572)scale(0.2 -0.2)">
       <defs>
        <path d="M 547 681 
L 1200 681 
L 1200 0 
L 547 0 
L 547 681 
z
" id="Helvetica-2e" transform="scale(0.015625)"/>
       </defs>
       <use xlink:href="#Helvetica-30"/>
       <use x="55.615234" xlink:href="#Helvetica-2e"/>
       <use x="83.398438" xlink:href="#Helvetica-30"/>
       <use x="139.013672" xlink:href="#Helvetica-30"/>
      </g>
     </g>
    </g>
    <g id="ytick_2">
     <g id="line2d_7">
      <g>
       <use style="stroke:#000000;stroke-width:0.8;" x="96.52" xlink:href="#m15bf2ed224" y="131.404779"/>
      </g>
     </g>
     <g id="text_8">
      <!-- 0.05 -->
      <g transform="translate(44.098125 138.578217)scale(0.2 -0.2)">
       <defs>
        <path d="M 791 1141 
Q 847 659 1238 475 
Q 1438 381 1700 381 
Q 2200 381 2440 700 
Q 2681 1019 2681 1406 
Q 2681 1875 2395 2131 
Q 2109 2388 1709 2388 
Q 1419 2388 1211 2275 
Q 1003 2163 856 1963 
L 369 1991 
L 709 4400 
L 3034 4400 
L 3034 3856 
L 1131 3856 
L 941 2613 
Q 1097 2731 1238 2791 
Q 1488 2894 1816 2894 
Q 2431 2894 2859 2497 
Q 3288 2100 3288 1491 
Q 3288 856 2895 371 
Q 2503 -113 1644 -113 
Q 1097 -113 676 195 
Q 256 503 206 1141 
L 791 1141 
z
" id="Helvetica-35" transform="scale(0.015625)"/>
       </defs>
       <use xlink:href="#Helvetica-30"/>
       <use x="55.615234" xlink:href="#Helvetica-2e"/>
       <use x="83.398438" xlink:href="#Helvetica-30"/>
       <use x="139.013672" xlink:href="#Helvetica-35"/>
      </g>
     </g>
    </g>
    <g id="ytick_3">
     <g id="line2d_8">
      <g>
       <use style="stroke:#000000;stroke-width:0.8;" x="96.52" xlink:href="#m15bf2ed224" y="58.356424"/>
      </g>
     </g>
     <g id="text_9">
      <!-- 0.10 -->
      <g transform="translate(44.098125 65.529861)scale(0.2 -0.2)">
       <use xlink:href="#Helvetica-30"/>
       <use x="55.615234" xlink:href="#Helvetica-2e"/>
       <use x="83.398438" xlink:href="#Helvetica-31"/>
       <use x="139.013672" xlink:href="#Helvetica-30"/>
      </g>
     </g>
    </g>
    <g id="text_10">
     <!-- Std Dev of Subunit Mismatch -->
     <g transform="translate(35.929375 245.709062)rotate(-90)scale(0.2 -0.2)">
      <defs>
       <path d="M 894 1481 
Q 916 1091 1078 847 
Q 1388 391 2169 391 
Q 2519 391 2806 491 
Q 3363 684 3363 1184 
Q 3363 1559 3128 1719 
Q 2891 1875 2384 1991 
L 1763 2131 
Q 1153 2269 900 2434 
Q 463 2722 463 3294 
Q 463 3913 891 4309 
Q 1319 4706 2103 4706 
Q 2825 4706 3329 4357 
Q 3834 4009 3834 3244 
L 3250 3244 
Q 3203 3613 3050 3809 
Q 2766 4169 2084 4169 
Q 1534 4169 1293 3937 
Q 1053 3706 1053 3400 
Q 1053 3063 1334 2906 
Q 1519 2806 2169 2656 
L 2813 2509 
Q 3278 2403 3531 2219 
Q 3969 1897 3969 1284 
Q 3969 522 3414 194 
Q 2859 -134 2125 -134 
Q 1269 -134 784 303 
Q 300 738 309 1481 
L 894 1481 
z
M 2150 4716 
L 2150 4716 
z
" id="Helvetica-53" transform="scale(0.015625)"/>
       <path d="M 769 1634 
Q 769 1097 997 734 
Q 1225 372 1728 372 
Q 2119 372 2370 708 
Q 2622 1044 2622 1672 
Q 2622 2306 2362 2611 
Q 2103 2916 1722 2916 
Q 1297 2916 1033 2591 
Q 769 2266 769 1634 
z
M 1616 3406 
Q 2000 3406 2259 3244 
Q 2409 3150 2600 2916 
L 2600 4606 
L 3141 4606 
L 3141 0 
L 2634 0 
L 2634 466 
Q 2438 156 2169 18 
Q 1900 -119 1553 -119 
Q 994 -119 584 351 
Q 175 822 175 1603 
Q 175 2334 548 2870 
Q 922 3406 1616 3406 
z
" id="Helvetica-64" transform="scale(0.015625)"/>
       <path id="Helvetica-20" transform="scale(0.015625)"/>
       <path d="M 2250 531 
Q 2566 531 2769 597 
Q 3131 719 3363 1066 
Q 3547 1344 3628 1778 
Q 3675 2038 3675 2259 
Q 3675 3113 3336 3584 
Q 2997 4056 2244 4056 
L 1141 4056 
L 1141 531 
L 2250 531 
z
M 516 4591 
L 2375 4591 
Q 3322 4591 3844 3919 
Q 4309 3313 4309 2366 
Q 4309 1634 4034 1044 
Q 3550 0 2369 0 
L 516 0 
L 516 4591 
z
" id="Helvetica-44" transform="scale(0.015625)"/>
       <path d="M 1806 3422 
Q 2163 3422 2497 3255 
Q 2831 3088 3006 2822 
Q 3175 2569 3231 2231 
Q 3281 2000 3281 1494 
L 828 1494 
Q 844 984 1069 676 
Q 1294 369 1766 369 
Q 2206 369 2469 659 
Q 2619 828 2681 1050 
L 3234 1050 
Q 3213 866 3089 639 
Q 2966 413 2813 269 
Q 2556 19 2178 -69 
Q 1975 -119 1719 -119 
Q 1094 -119 659 336 
Q 225 791 225 1609 
Q 225 2416 662 2919 
Q 1100 3422 1806 3422 
z
M 2703 1941 
Q 2669 2306 2544 2525 
Q 2313 2931 1772 2931 
Q 1384 2931 1121 2651 
Q 859 2372 844 1941 
L 2703 1941 
z
M 1753 3428 
L 1753 3428 
z
" id="Helvetica-65" transform="scale(0.015625)"/>
       <path d="M 688 3347 
L 1581 622 
L 2516 3347 
L 3131 3347 
L 1869 0 
L 1269 0 
L 34 3347 
L 688 3347 
z
" id="Helvetica-76" transform="scale(0.015625)"/>
       <path d="M 553 3856 
Q 566 4206 675 4369 
Q 872 4656 1434 4656 
Q 1488 4656 1544 4653 
Q 1600 4650 1672 4644 
L 1672 4131 
Q 1584 4138 1545 4139 
Q 1506 4141 1472 4141 
Q 1216 4141 1166 4008 
Q 1116 3875 1116 3331 
L 1672 3331 
L 1672 2888 
L 1109 2888 
L 1109 0 
L 553 0 
L 553 2888 
L 88 2888 
L 88 3331 
L 553 3331 
L 553 3856 
z
" id="Helvetica-66" transform="scale(0.015625)"/>
       <path d="M 975 3347 
L 975 1125 
Q 975 869 1056 706 
Q 1206 406 1616 406 
Q 2203 406 2416 931 
Q 2531 1213 2531 1703 
L 2531 3347 
L 3094 3347 
L 3094 0 
L 2563 0 
L 2569 494 
Q 2459 303 2297 172 
Q 1975 -91 1516 -91 
Q 800 -91 541 388 
Q 400 644 400 1072 
L 400 3347 
L 975 3347 
z
M 1747 3428 
L 1747 3428 
z
" id="Helvetica-75" transform="scale(0.015625)"/>
       <path d="M 369 4606 
L 916 4606 
L 916 2941 
Q 1100 3181 1356 3307 
Q 1613 3434 1913 3434 
Q 2538 3434 2927 3004 
Q 3316 2575 3316 1738 
Q 3316 944 2931 419 
Q 2547 -106 1866 -106 
Q 1484 -106 1222 78 
Q 1066 188 888 428 
L 888 0 
L 369 0 
L 369 4606 
z
M 1831 391 
Q 2288 391 2514 753 
Q 2741 1116 2741 1709 
Q 2741 2238 2514 2584 
Q 2288 2931 1847 2931 
Q 1463 2931 1173 2647 
Q 884 2363 884 1709 
Q 884 1238 1003 944 
Q 1225 391 1831 391 
z
" id="Helvetica-62" transform="scale(0.015625)"/>
       <path d="M 472 4591 
L 1363 4591 
L 2681 709 
L 3991 4591 
L 4872 4591 
L 4872 0 
L 4281 0 
L 4281 2709 
Q 4281 2850 4287 3175 
Q 4294 3500 4294 3872 
L 2984 0 
L 2369 0 
L 1050 3872 
L 1050 3731 
Q 1050 3563 1058 3217 
Q 1066 2872 1066 2709 
L 1066 0 
L 472 0 
L 472 4591 
z
" id="Helvetica-4d" transform="scale(0.015625)"/>
       <path d="M 413 3347 
L 969 3347 
L 969 2872 
Q 1169 3119 1331 3231 
Q 1609 3422 1963 3422 
Q 2363 3422 2606 3225 
Q 2744 3113 2856 2894 
Q 3044 3163 3297 3292 
Q 3550 3422 3866 3422 
Q 4541 3422 4784 2934 
Q 4916 2672 4916 2228 
L 4916 0 
L 4331 0 
L 4331 2325 
Q 4331 2659 4164 2784 
Q 3997 2909 3756 2909 
Q 3425 2909 3186 2687 
Q 2947 2466 2947 1947 
L 2947 0 
L 2375 0 
L 2375 2184 
Q 2375 2525 2294 2681 
Q 2166 2916 1816 2916 
Q 1497 2916 1236 2669 
Q 975 2422 975 1775 
L 975 0 
L 413 0 
L 413 3347 
z
" id="Helvetica-6d" transform="scale(0.015625)"/>
       <path d="M 844 891 
Q 844 647 1022 506 
Q 1200 366 1444 366 
Q 1741 366 2019 503 
Q 2488 731 2488 1250 
L 2488 1703 
Q 2384 1638 2221 1594 
Q 2059 1550 1903 1531 
L 1563 1488 
Q 1256 1447 1103 1359 
Q 844 1213 844 891 
z
M 2206 2028 
Q 2400 2053 2466 2191 
Q 2503 2266 2503 2406 
Q 2503 2694 2298 2823 
Q 2094 2953 1713 2953 
Q 1272 2953 1088 2716 
Q 984 2584 953 2325 
L 428 2325 
Q 444 2944 830 3186 
Q 1216 3428 1725 3428 
Q 2316 3428 2684 3203 
Q 3050 2978 3050 2503 
L 3050 575 
Q 3050 488 3086 434 
Q 3122 381 3238 381 
Q 3275 381 3322 386 
Q 3369 391 3422 400 
L 3422 -16 
Q 3291 -53 3222 -62 
Q 3153 -72 3034 -72 
Q 2744 -72 2613 134 
Q 2544 244 2516 444 
Q 2344 219 2022 53 
Q 1700 -113 1313 -113 
Q 847 -113 551 170 
Q 256 453 256 878 
Q 256 1344 547 1600 
Q 838 1856 1309 1916 
L 2206 2028 
z
M 1741 3428 
L 1741 3428 
z
" id="Helvetica-61" transform="scale(0.015625)"/>
       <path d="M 1703 3444 
Q 2269 3444 2623 3169 
Q 2978 2894 3050 2222 
L 2503 2222 
Q 2453 2531 2275 2736 
Q 2097 2941 1703 2941 
Q 1166 2941 934 2416 
Q 784 2075 784 1575 
Q 784 1072 996 728 
Q 1209 384 1666 384 
Q 2016 384 2220 598 
Q 2425 813 2503 1184 
L 3050 1184 
Q 2956 519 2581 211 
Q 2206 -97 1622 -97 
Q 966 -97 575 383 
Q 184 863 184 1581 
Q 184 2463 612 2953 
Q 1041 3444 1703 3444 
z
M 1616 3428 
L 1616 3428 
z
" id="Helvetica-63" transform="scale(0.015625)"/>
       <path d="M 413 4606 
L 975 4606 
L 975 2894 
Q 1175 3147 1334 3250 
Q 1606 3428 2013 3428 
Q 2741 3428 3000 2919 
Q 3141 2641 3141 2147 
L 3141 0 
L 2563 0 
L 2563 2109 
Q 2563 2478 2469 2650 
Q 2316 2925 1894 2925 
Q 1544 2925 1259 2684 
Q 975 2444 975 1775 
L 975 0 
L 413 0 
L 413 4606 
z
" id="Helvetica-68" transform="scale(0.015625)"/>
      </defs>
      <use xlink:href="#Helvetica-53"/>
      <use x="66.699219" xlink:href="#Helvetica-74"/>
      <use x="94.482422" xlink:href="#Helvetica-64"/>
      <use x="150.097656" xlink:href="#Helvetica-20"/>
      <use x="177.880859" xlink:href="#Helvetica-44"/>
      <use x="250.097656" xlink:href="#Helvetica-65"/>
      <use x="305.712891" xlink:href="#Helvetica-76"/>
      <use x="355.712891" xlink:href="#Helvetica-20"/>
      <use x="383.496094" xlink:href="#Helvetica-6f"/>
      <use x="439.111328" xlink:href="#Helvetica-66"/>
      <use x="466.894531" xlink:href="#Helvetica-20"/>
      <use x="494.677734" xlink:href="#Helvetica-53"/>
      <use x="561.376953" xlink:href="#Helvetica-75"/>
      <use x="616.992188" xlink:href="#Helvetica-62"/>
      <use x="672.607422" xlink:href="#Helvetica-75"/>
      <use x="728.222656" xlink:href="#Helvetica-6e"/>
      <use x="783.837891" xlink:href="#Helvetica-69"/>
      <use x="806.054688" xlink:href="#Helvetica-74"/>
      <use x="833.837891" xlink:href="#Helvetica-20"/>
      <use x="861.621094" xlink:href="#Helvetica-4d"/>
      <use x="944.921875" xlink:href="#Helvetica-69"/>
      <use x="967.138672" xlink:href="#Helvetica-73"/>
      <use x="1017.138672" xlink:href="#Helvetica-6d"/>
      <use x="1100.439453" xlink:href="#Helvetica-61"/>
      <use x="1156.054688" xlink:href="#Helvetica-74"/>
      <use x="1183.837891" xlink:href="#Helvetica-63"/>
      <use x="1233.837891" xlink:href="#Helvetica-68"/>
     </g>
    </g>
   </g>
   <g id="line2d_9">
    <path clip-path="url(#p4f29d367da)" d="M 110.787273 57.045739 
L 116.990435 138.655311 
L 123.193597 86.096266 
L 129.396759 95.06171 
L 135.599921 144.306866 
L 141.803083 155.581338 
L 148.006245 131.093674 
L 154.209407 100.184783 
L 160.412569 120.462302 
L 166.615731 75.74605 
L 172.818893 112.382918 
L 179.022055 90.728802 
L 185.225217 126.031889 
L 191.428379 147.534221 
L 197.631542 145.998272 
L 203.834704 163.44372 
L 210.037866 153.540809 
L 216.241028 169.128514 
L 222.44419 160.69195 
L 228.647352 168.378537 
L 234.850514 157.032729 
L 241.053676 173.444192 
L 247.256838 163.939924 
L 253.46 176.144635 
L 259.663162 179.532119 
L 265.866324 187.119337 
L 272.069486 190.16633 
L 278.272648 192.016382 
L 284.47581 191.318096 
L 290.678972 192.737043 
L 296.882134 191.458158 
L 303.085296 193.674964 
L 309.288458 191.119305 
L 315.491621 190.49514 
L 321.694783 193.404955 
L 327.897945 192.704903 
L 334.101107 195.338149 
L 340.304269 194.62778 
L 346.507431 193.558426 
L 352.710593 187.263242 
L 358.913755 176.500618 
L 365.116917 172.228443 
L 371.320079 177.890707 
L 377.523241 179.011243 
L 383.726403 177.959368 
L 389.929565 178.949679 
L 396.132727 173.438544 
" style="fill:none;stroke:#ff8c00;stroke-linecap:square;stroke-opacity:0.8;stroke-width:0.7;"/>
    <defs>
     <path d="M 0 -2.5 
L -2.5 2.5 
L 2.5 2.5 
z
" id="m3075b6594e" style="stroke:#000000;stroke-linejoin:miter;stroke-opacity:0.8;"/>
    </defs>
    <g clip-path="url(#p4f29d367da)">
     <use style="fill:#ff8c00;fill-opacity:0.8;stroke:#000000;stroke-linejoin:miter;stroke-opacity:0.8;" x="110.787273" xlink:href="#m3075b6594e" y="57.045739"/>
     <use style="fill:#ff8c00;fill-opacity:0.8;stroke:#000000;stroke-linejoin:miter;stroke-opacity:0.8;" x="116.990435" xlink:href="#m3075b6594e" y="138.655311"/>
     <use style="fill:#ff8c00;fill-opacity:0.8;stroke:#000000;stroke-linejoin:miter;stroke-opacity:0.8;" x="123.193597" xlink:href="#m3075b6594e" y="86.096266"/>
     <use style="fill:#ff8c00;fill-opacity:0.8;stroke:#000000;stroke-linejoin:miter;stroke-opacity:0.8;" x="129.396759" xlink:href="#m3075b6594e" y="95.06171"/>
     <use style="fill:#ff8c00;fill-opacity:0.8;stroke:#000000;stroke-linejoin:miter;stroke-opacity:0.8;" x="135.599921" xlink:href="#m3075b6594e" y="144.306866"/>
     <use style="fill:#ff8c00;fill-opacity:0.8;stroke:#000000;stroke-linejoin:miter;stroke-opacity:0.8;" x="141.803083" xlink:href="#m3075b6594e" y="155.581338"/>
     <use style="fill:#ff8c00;fill-opacity:0.8;stroke:#000000;stroke-linejoin:miter;stroke-opacity:0.8;" x="148.006245" xlink:href="#m3075b6594e" y="131.093674"/>
     <use style="fill:#ff8c00;fill-opacity:0.8;stroke:#000000;stroke-linejoin:miter;stroke-opacity:0.8;" x="154.209407" xlink:href="#m3075b6594e" y="100.184783"/>
     <use style="fill:#ff8c00;fill-opacity:0.8;stroke:#000000;stroke-linejoin:miter;stroke-opacity:0.8;" x="160.412569" xlink:href="#m3075b6594e" y="120.462302"/>
     <use style="fill:#ff8c00;fill-opacity:0.8;stroke:#000000;stroke-linejoin:miter;stroke-opacity:0.8;" x="166.615731" xlink:href="#m3075b6594e" y="75.74605"/>
     <use style="fill:#ff8c00;fill-opacity:0.8;stroke:#000000;stroke-linejoin:miter;stroke-opacity:0.8;" x="172.818893" xlink:href="#m3075b6594e" y="112.382918"/>
     <use style="fill:#ff8c00;fill-opacity:0.8;stroke:#000000;stroke-linejoin:miter;stroke-opacity:0.8;" x="179.022055" xlink:href="#m3075b6594e" y="90.728802"/>
     <use style="fill:#ff8c00;fill-opacity:0.8;stroke:#000000;stroke-linejoin:miter;stroke-opacity:0.8;" x="185.225217" xlink:href="#m3075b6594e" y="126.031889"/>
     <use style="fill:#ff8c00;fill-opacity:0.8;stroke:#000000;stroke-linejoin:miter;stroke-opacity:0.8;" x="191.428379" xlink:href="#m3075b6594e" y="147.534221"/>
     <use style="fill:#ff8c00;fill-opacity:0.8;stroke:#000000;stroke-linejoin:miter;stroke-opacity:0.8;" x="197.631542" xlink:href="#m3075b6594e" y="145.998272"/>
     <use style="fill:#ff8c00;fill-opacity:0.8;stroke:#000000;stroke-linejoin:miter;stroke-opacity:0.8;" x="203.834704" xlink:href="#m3075b6594e" y="163.44372"/>
     <use style="fill:#ff8c00;fill-opacity:0.8;stroke:#000000;stroke-linejoin:miter;stroke-opacity:0.8;" x="210.037866" xlink:href="#m3075b6594e" y="153.540809"/>
     <use style="fill:#ff8c00;fill-opacity:0.8;stroke:#000000;stroke-linejoin:miter;stroke-opacity:0.8;" x="216.241028" xlink:href="#m3075b6594e" y="169.128514"/>
     <use style="fill:#ff8c00;fill-opacity:0.8;stroke:#000000;stroke-linejoin:miter;stroke-opacity:0.8;" x="222.44419" xlink:href="#m3075b6594e" y="160.69195"/>
     <use style="fill:#ff8c00;fill-opacity:0.8;stroke:#000000;stroke-linejoin:miter;stroke-opacity:0.8;" x="228.647352" xlink:href="#m3075b6594e" y="168.378537"/>
     <use style="fill:#ff8c00;fill-opacity:0.8;stroke:#000000;stroke-linejoin:miter;stroke-opacity:0.8;" x="234.850514" xlink:href="#m3075b6594e" y="157.032729"/>
     <use style="fill:#ff8c00;fill-opacity:0.8;stroke:#000000;stroke-linejoin:miter;stroke-opacity:0.8;" x="241.053676" xlink:href="#m3075b6594e" y="173.444192"/>
     <use style="fill:#ff8c00;fill-opacity:0.8;stroke:#000000;stroke-linejoin:miter;stroke-opacity:0.8;" x="247.256838" xlink:href="#m3075b6594e" y="163.939924"/>
     <use style="fill:#ff8c00;fill-opacity:0.8;stroke:#000000;stroke-linejoin:miter;stroke-opacity:0.8;" x="253.46" xlink:href="#m3075b6594e" y="176.144635"/>
     <use style="fill:#ff8c00;fill-opacity:0.8;stroke:#000000;stroke-linejoin:miter;stroke-opacity:0.8;" x="259.663162" xlink:href="#m3075b6594e" y="179.532119"/>
     <use style="fill:#ff8c00;fill-opacity:0.8;stroke:#000000;stroke-linejoin:miter;stroke-opacity:0.8;" x="265.866324" xlink:href="#m3075b6594e" y="187.119337"/>
     <use style="fill:#ff8c00;fill-opacity:0.8;stroke:#000000;stroke-linejoin:miter;stroke-opacity:0.8;" x="272.069486" xlink:href="#m3075b6594e" y="190.16633"/>
     <use style="fill:#ff8c00;fill-opacity:0.8;stroke:#000000;stroke-linejoin:miter;stroke-opacity:0.8;" x="278.272648" xlink:href="#m3075b6594e" y="192.016382"/>
     <use style="fill:#ff8c00;fill-opacity:0.8;stroke:#000000;stroke-linejoin:miter;stroke-opacity:0.8;" x="284.47581" xlink:href="#m3075b6594e" y="191.318096"/>
     <use style="fill:#ff8c00;fill-opacity:0.8;stroke:#000000;stroke-linejoin:miter;stroke-opacity:0.8;" x="290.678972" xlink:href="#m3075b6594e" y="192.737043"/>
     <use style="fill:#ff8c00;fill-opacity:0.8;stroke:#000000;stroke-linejoin:miter;stroke-opacity:0.8;" x="296.882134" xlink:href="#m3075b6594e" y="191.458158"/>
     <use style="fill:#ff8c00;fill-opacity:0.8;stroke:#000000;stroke-linejoin:miter;stroke-opacity:0.8;" x="303.085296" xlink:href="#m3075b6594e" y="193.674964"/>
     <use style="fill:#ff8c00;fill-opacity:0.8;stroke:#000000;stroke-linejoin:miter;stroke-opacity:0.8;" x="309.288458" xlink:href="#m3075b6594e" y="191.119305"/>
     <use style="fill:#ff8c00;fill-opacity:0.8;stroke:#000000;stroke-linejoin:miter;stroke-opacity:0.8;" x="315.491621" xlink:href="#m3075b6594e" y="190.49514"/>
     <use style="fill:#ff8c00;fill-opacity:0.8;stroke:#000000;stroke-linejoin:miter;stroke-opacity:0.8;" x="321.694783" xlink:href="#m3075b6594e" y="193.404955"/>
     <use style="fill:#ff8c00;fill-opacity:0.8;stroke:#000000;stroke-linejoin:miter;stroke-opacity:0.8;" x="327.897945" xlink:href="#m3075b6594e" y="192.704903"/>
     <use style="fill:#ff8c00;fill-opacity:0.8;stroke:#000000;stroke-linejoin:miter;stroke-opacity:0.8;" x="334.101107" xlink:href="#m3075b6594e" y="195.338149"/>
     <use style="fill:#ff8c00;fill-opacity:0.8;stroke:#000000;stroke-linejoin:miter;stroke-opacity:0.8;" x="340.304269" xlink:href="#m3075b6594e" y="194.62778"/>
     <use style="fill:#ff8c00;fill-opacity:0.8;stroke:#000000;stroke-linejoin:miter;stroke-opacity:0.8;" x="346.507431" xlink:href="#m3075b6594e" y="193.558426"/>
     <use style="fill:#ff8c00;fill-opacity:0.8;stroke:#000000;stroke-linejoin:miter;stroke-opacity:0.8;" x="352.710593" xlink:href="#m3075b6594e" y="187.263242"/>
     <use style="fill:#ff8c00;fill-opacity:0.8;stroke:#000000;stroke-linejoin:miter;stroke-opacity:0.8;" x="358.913755" xlink:href="#m3075b6594e" y="176.500618"/>
     <use style="fill:#ff8c00;fill-opacity:0.8;stroke:#000000;stroke-linejoin:miter;stroke-opacity:0.8;" x="365.116917" xlink:href="#m3075b6594e" y="172.228443"/>
     <use style="fill:#ff8c00;fill-opacity:0.8;stroke:#000000;stroke-linejoin:miter;stroke-opacity:0.8;" x="371.320079" xlink:href="#m3075b6594e" y="177.890707"/>
     <use style="fill:#ff8c00;fill-opacity:0.8;stroke:#000000;stroke-linejoin:miter;stroke-opacity:0.8;" x="377.523241" xlink:href="#m3075b6594e" y="179.011243"/>
     <use style="fill:#ff8c00;fill-opacity:0.8;stroke:#000000;stroke-linejoin:miter;stroke-opacity:0.8;" x="383.726403" xlink:href="#m3075b6594e" y="177.959368"/>
     <use style="fill:#ff8c00;fill-opacity:0.8;stroke:#000000;stroke-linejoin:miter;stroke-opacity:0.8;" x="389.929565" xlink:href="#m3075b6594e" y="178.949679"/>
     <use style="fill:#ff8c00;fill-opacity:0.8;stroke:#000000;stroke-linejoin:miter;stroke-opacity:0.8;" x="396.132727" xlink:href="#m3075b6594e" y="173.438544"/>
    </g>
   </g>
   <g id="line2d_10">
    <path clip-path="url(#p4f29d367da)" d="M 110.787273 57.045739 
L 116.990435 138.655311 
L 123.193597 86.096266 
L 129.396759 95.06171 
L 135.599921 144.306866 
L 141.803083 155.581338 
L 148.006245 131.093674 
L 154.209407 100.184783 
L 160.412569 120.462302 
L 166.615731 75.74605 
L 172.818893 112.382918 
L 179.022055 90.728802 
L 185.225217 126.031889 
L 191.428379 147.534221 
L 197.631542 145.998272 
L 203.834704 163.44372 
L 210.037866 153.540809 
L 216.241028 169.128514 
L 222.44419 160.69195 
L 228.647352 168.378537 
L 234.850514 157.032729 
L 241.053676 173.444192 
L 247.256838 163.939924 
L 253.46 176.144635 
L 259.663162 179.532119 
L 265.866324 187.119337 
L 272.069486 190.16633 
L 278.272648 192.016382 
L 284.47581 191.318096 
L 290.678972 192.737043 
L 296.882134 191.458158 
L 303.085296 193.674964 
L 309.288458 191.119305 
L 315.491621 190.49514 
L 321.694783 193.404955 
L 327.897945 192.704903 
L 334.101107 195.338149 
L 340.304269 194.62778 
L 346.507431 193.558426 
L 352.710593 187.263242 
L 358.913755 176.500618 
L 365.116917 172.228443 
L 371.320079 177.890707 
L 377.523241 179.011243 
L 383.726403 177.959368 
L 389.929565 178.949679 
L 396.132727 173.438544 
" style="fill:none;stroke:#ff8c00;stroke-linecap:square;stroke-width:0.7;"/>
   </g>
   <g id="line2d_11">
    <path clip-path="url(#p4f29d367da)" d="M 110.787273 83.83966 
L 116.990435 157.186504 
L 123.193597 111.933227 
L 129.396759 120.230338 
L 135.599921 161.62505 
L 141.803083 170.633016 
L 148.006245 152.728443 
L 154.209407 127.550444 
L 160.412569 142.847156 
L 166.615731 101.642812 
L 172.818893 137.091421 
L 179.022055 116.601225 
L 185.225217 148.63114 
L 191.428379 165.820446 
L 197.631542 164.495229 
L 203.834704 178.320269 
L 210.037866 170.994819 
L 216.241028 182.582835 
L 222.44419 177.468535 
L 228.647352 181.735356 
L 234.850514 172.4488 
L 241.053676 184.346533 
L 247.256838 177.302277 
L 253.46 186.463413 
L 259.663162 188.753214 
L 265.866324 193.643408 
L 272.069486 195.591056 
L 278.272648 196.715037 
L 284.47581 196.289768 
L 290.678972 197.152454 
L 296.882134 196.313329 
L 303.085296 197.658415 
L 309.288458 195.891395 
L 315.491621 195.38893 
L 321.694783 197.307344 
L 327.897945 196.920866 
L 334.101107 198.637433 
L 340.304269 198.205924 
L 346.507431 197.51168 
L 352.710593 193.390559 
L 358.913755 185.938956 
L 365.116917 182.436886 
L 371.320079 186.557539 
L 377.523241 187.397443 
L 383.726403 186.431515 
L 389.929565 187.480879 
L 396.132727 184.013123 
" style="fill:none;stroke:#ff8c00;stroke-dasharray:1.85,0.8;stroke-dashoffset:0;stroke-width:0.5;"/>
   </g>
   <g id="line2d_12">
    <path clip-path="url(#p4f29d367da)" d="M 110.787273 30.251818 
L 116.990435 120.124118 
L 123.193597 60.259305 
L 129.396759 69.893082 
L 135.599921 126.988682 
L 141.803083 140.529659 
L 148.006245 109.458905 
L 154.209407 72.819121 
L 160.412569 98.077448 
L 166.615731 49.849287 
L 172.818893 87.674415 
L 179.022055 64.856379 
L 185.225217 103.432637 
L 191.428379 129.247997 
L 197.631542 127.501315 
L 203.834704 148.56717 
L 210.037866 136.086799 
L 216.241028 155.674194 
L 222.44419 143.915364 
L 228.647352 155.021719 
L 234.850514 141.616657 
L 241.053676 162.541851 
L 247.256838 150.577572 
L 253.46 165.825858 
L 259.663162 170.311024 
L 265.866324 180.595267 
L 272.069486 184.741604 
L 278.272648 187.317727 
L 284.47581 186.346423 
L 290.678972 188.321632 
L 296.882134 186.602988 
L 303.085296 189.691513 
L 309.288458 186.347215 
L 315.491621 185.601349 
L 321.694783 189.502567 
L 327.897945 188.488939 
L 334.101107 192.038865 
L 340.304269 191.049635 
L 346.507431 189.605172 
L 352.710593 181.135925 
L 358.913755 167.062281 
L 365.116917 162.020001 
L 371.320079 169.223875 
L 377.523241 170.625044 
L 383.726403 169.487222 
L 389.929565 170.418479 
L 396.132727 162.863965 
" style="fill:none;stroke:#ff8c00;stroke-dasharray:1.85,0.8;stroke-dashoffset:0;stroke-width:0.5;"/>
   </g>
   <g id="line2d_13">
    <path clip-path="url(#p4f29d367da)" d="M 110.787273 157.315893 
L 116.990435 188.695241 
L 123.193597 180.8149 
L 129.396759 186.857663 
L 135.599921 188.732512 
L 141.803083 190.198596 
L 148.006245 177.545449 
L 154.209407 182.004523 
L 160.412569 181.286902 
L 166.615731 183.045025 
L 172.818893 164.102654 
L 179.022055 178.222249 
L 185.225217 161.308069 
L 191.428379 175.670747 
L 197.631542 159.482528 
L 203.834704 176.522739 
L 210.037866 160.936031 
L 216.241028 179.455331 
L 222.44419 155.121396 
L 228.647352 181.298234 
L 234.850514 176.349956 
L 241.053676 191.980635 
L 247.256838 184.443191 
L 253.46 191.109998 
L 259.663162 190.830744 
L 265.866324 195.960008 
L 272.069486 196.181085 
L 278.272648 198.568184 
L 284.47581 198.342299 
L 290.678972 198.735296 
L 296.882134 198.945256 
L 303.085296 200.386144 
L 309.288458 199.597943 
L 315.491621 199.749274 
L 321.694783 200.496171 
L 327.897945 200.089565 
L 334.101107 201.386 
L 340.304269 200.925311 
L 346.507431 200.546772 
L 352.710593 198.406122 
L 358.913755 196.450964 
L 365.116917 197.619651 
L 371.320079 198.133673 
L 377.523241 197.377343 
L 383.726403 198.092059 
L 389.929565 196.794708 
L 396.132727 194.643278 
" style="fill:none;stroke:#808080;stroke-linecap:square;stroke-opacity:0.8;stroke-width:0.7;"/>
    <defs>
     <path d="M 0 -2.5 
L -2.5 2.5 
L 2.5 2.5 
z
" id="mbf3c4e379e" style="stroke:#000000;stroke-linejoin:miter;stroke-opacity:0.8;"/>
    </defs>
    <g clip-path="url(#p4f29d367da)">
     <use style="fill:#808080;fill-opacity:0.8;stroke:#000000;stroke-linejoin:miter;stroke-opacity:0.8;" x="110.787273" xlink:href="#mbf3c4e379e" y="157.315893"/>
     <use style="fill:#808080;fill-opacity:0.8;stroke:#000000;stroke-linejoin:miter;stroke-opacity:0.8;" x="116.990435" xlink:href="#mbf3c4e379e" y="188.695241"/>
     <use style="fill:#808080;fill-opacity:0.8;stroke:#000000;stroke-linejoin:miter;stroke-opacity:0.8;" x="123.193597" xlink:href="#mbf3c4e379e" y="180.8149"/>
     <use style="fill:#808080;fill-opacity:0.8;stroke:#000000;stroke-linejoin:miter;stroke-opacity:0.8;" x="129.396759" xlink:href="#mbf3c4e379e" y="186.857663"/>
     <use style="fill:#808080;fill-opacity:0.8;stroke:#000000;stroke-linejoin:miter;stroke-opacity:0.8;" x="135.599921" xlink:href="#mbf3c4e379e" y="188.732512"/>
     <use style="fill:#808080;fill-opacity:0.8;stroke:#000000;stroke-linejoin:miter;stroke-opacity:0.8;" x="141.803083" xlink:href="#mbf3c4e379e" y="190.198596"/>
     <use style="fill:#808080;fill-opacity:0.8;stroke:#000000;stroke-linejoin:miter;stroke-opacity:0.8;" x="148.006245" xlink:href="#mbf3c4e379e" y="177.545449"/>
     <use style="fill:#808080;fill-opacity:0.8;stroke:#000000;stroke-linejoin:miter;stroke-opacity:0.8;" x="154.209407" xlink:href="#mbf3c4e379e" y="182.004523"/>
     <use style="fill:#808080;fill-opacity:0.8;stroke:#000000;stroke-linejoin:miter;stroke-opacity:0.8;" x="160.412569" xlink:href="#mbf3c4e379e" y="181.286902"/>
     <use style="fill:#808080;fill-opacity:0.8;stroke:#000000;stroke-linejoin:miter;stroke-opacity:0.8;" x="166.615731" xlink:href="#mbf3c4e379e" y="183.045025"/>
     <use style="fill:#808080;fill-opacity:0.8;stroke:#000000;stroke-linejoin:miter;stroke-opacity:0.8;" x="172.818893" xlink:href="#mbf3c4e379e" y="164.102654"/>
     <use style="fill:#808080;fill-opacity:0.8;stroke:#000000;stroke-linejoin:miter;stroke-opacity:0.8;" x="179.022055" xlink:href="#mbf3c4e379e" y="178.222249"/>
     <use style="fill:#808080;fill-opacity:0.8;stroke:#000000;stroke-linejoin:miter;stroke-opacity:0.8;" x="185.225217" xlink:href="#mbf3c4e379e" y="161.308069"/>
     <use style="fill:#808080;fill-opacity:0.8;stroke:#000000;stroke-linejoin:miter;stroke-opacity:0.8;" x="191.428379" xlink:href="#mbf3c4e379e" y="175.670747"/>
     <use style="fill:#808080;fill-opacity:0.8;stroke:#000000;stroke-linejoin:miter;stroke-opacity:0.8;" x="197.631542" xlink:href="#mbf3c4e379e" y="159.482528"/>
     <use style="fill:#808080;fill-opacity:0.8;stroke:#000000;stroke-linejoin:miter;stroke-opacity:0.8;" x="203.834704" xlink:href="#mbf3c4e379e" y="176.522739"/>
     <use style="fill:#808080;fill-opacity:0.8;stroke:#000000;stroke-linejoin:miter;stroke-opacity:0.8;" x="210.037866" xlink:href="#mbf3c4e379e" y="160.936031"/>
     <use style="fill:#808080;fill-opacity:0.8;stroke:#000000;stroke-linejoin:miter;stroke-opacity:0.8;" x="216.241028" xlink:href="#mbf3c4e379e" y="179.455331"/>
     <use style="fill:#808080;fill-opacity:0.8;stroke:#000000;stroke-linejoin:miter;stroke-opacity:0.8;" x="222.44419" xlink:href="#mbf3c4e379e" y="155.121396"/>
     <use style="fill:#808080;fill-opacity:0.8;stroke:#000000;stroke-linejoin:miter;stroke-opacity:0.8;" x="228.647352" xlink:href="#mbf3c4e379e" y="181.298234"/>
     <use style="fill:#808080;fill-opacity:0.8;stroke:#000000;stroke-linejoin:miter;stroke-opacity:0.8;" x="234.850514" xlink:href="#mbf3c4e379e" y="176.349956"/>
     <use style="fill:#808080;fill-opacity:0.8;stroke:#000000;stroke-linejoin:miter;stroke-opacity:0.8;" x="241.053676" xlink:href="#mbf3c4e379e" y="191.980635"/>
     <use style="fill:#808080;fill-opacity:0.8;stroke:#000000;stroke-linejoin:miter;stroke-opacity:0.8;" x="247.256838" xlink:href="#mbf3c4e379e" y="184.443191"/>
     <use style="fill:#808080;fill-opacity:0.8;stroke:#000000;stroke-linejoin:miter;stroke-opacity:0.8;" x="253.46" xlink:href="#mbf3c4e379e" y="191.109998"/>
     <use style="fill:#808080;fill-opacity:0.8;stroke:#000000;stroke-linejoin:miter;stroke-opacity:0.8;" x="259.663162" xlink:href="#mbf3c4e379e" y="190.830744"/>
     <use style="fill:#808080;fill-opacity:0.8;stroke:#000000;stroke-linejoin:miter;stroke-opacity:0.8;" x="265.866324" xlink:href="#mbf3c4e379e" y="195.960008"/>
     <use style="fill:#808080;fill-opacity:0.8;stroke:#000000;stroke-linejoin:miter;stroke-opacity:0.8;" x="272.069486" xlink:href="#mbf3c4e379e" y="196.181085"/>
     <use style="fill:#808080;fill-opacity:0.8;stroke:#000000;stroke-linejoin:miter;stroke-opacity:0.8;" x="278.272648" xlink:href="#mbf3c4e379e" y="198.568184"/>
     <use style="fill:#808080;fill-opacity:0.8;stroke:#000000;stroke-linejoin:miter;stroke-opacity:0.8;" x="284.47581" xlink:href="#mbf3c4e379e" y="198.342299"/>
     <use style="fill:#808080;fill-opacity:0.8;stroke:#000000;stroke-linejoin:miter;stroke-opacity:0.8;" x="290.678972" xlink:href="#mbf3c4e379e" y="198.735296"/>
     <use style="fill:#808080;fill-opacity:0.8;stroke:#000000;stroke-linejoin:miter;stroke-opacity:0.8;" x="296.882134" xlink:href="#mbf3c4e379e" y="198.945256"/>
     <use style="fill:#808080;fill-opacity:0.8;stroke:#000000;stroke-linejoin:miter;stroke-opacity:0.8;" x="303.085296" xlink:href="#mbf3c4e379e" y="200.386144"/>
     <use style="fill:#808080;fill-opacity:0.8;stroke:#000000;stroke-linejoin:miter;stroke-opacity:0.8;" x="309.288458" xlink:href="#mbf3c4e379e" y="199.597943"/>
     <use style="fill:#808080;fill-opacity:0.8;stroke:#000000;stroke-linejoin:miter;stroke-opacity:0.8;" x="315.491621" xlink:href="#mbf3c4e379e" y="199.749274"/>
     <use style="fill:#808080;fill-opacity:0.8;stroke:#000000;stroke-linejoin:miter;stroke-opacity:0.8;" x="321.694783" xlink:href="#mbf3c4e379e" y="200.496171"/>
     <use style="fill:#808080;fill-opacity:0.8;stroke:#000000;stroke-linejoin:miter;stroke-opacity:0.8;" x="327.897945" xlink:href="#mbf3c4e379e" y="200.089565"/>
     <use style="fill:#808080;fill-opacity:0.8;stroke:#000000;stroke-linejoin:miter;stroke-opacity:0.8;" x="334.101107" xlink:href="#mbf3c4e379e" y="201.386"/>
     <use style="fill:#808080;fill-opacity:0.8;stroke:#000000;stroke-linejoin:miter;stroke-opacity:0.8;" x="340.304269" xlink:href="#mbf3c4e379e" y="200.925311"/>
     <use style="fill:#808080;fill-opacity:0.8;stroke:#000000;stroke-linejoin:miter;stroke-opacity:0.8;" x="346.507431" xlink:href="#mbf3c4e379e" y="200.546772"/>
     <use style="fill:#808080;fill-opacity:0.8;stroke:#000000;stroke-linejoin:miter;stroke-opacity:0.8;" x="352.710593" xlink:href="#mbf3c4e379e" y="198.406122"/>
     <use style="fill:#808080;fill-opacity:0.8;stroke:#000000;stroke-linejoin:miter;stroke-opacity:0.8;" x="358.913755" xlink:href="#mbf3c4e379e" y="196.450964"/>
     <use style="fill:#808080;fill-opacity:0.8;stroke:#000000;stroke-linejoin:miter;stroke-opacity:0.8;" x="365.116917" xlink:href="#mbf3c4e379e" y="197.619651"/>
     <use style="fill:#808080;fill-opacity:0.8;stroke:#000000;stroke-linejoin:miter;stroke-opacity:0.8;" x="371.320079" xlink:href="#mbf3c4e379e" y="198.133673"/>
     <use style="fill:#808080;fill-opacity:0.8;stroke:#000000;stroke-linejoin:miter;stroke-opacity:0.8;" x="377.523241" xlink:href="#mbf3c4e379e" y="197.377343"/>
     <use style="fill:#808080;fill-opacity:0.8;stroke:#000000;stroke-linejoin:miter;stroke-opacity:0.8;" x="383.726403" xlink:href="#mbf3c4e379e" y="198.092059"/>
     <use style="fill:#808080;fill-opacity:0.8;stroke:#000000;stroke-linejoin:miter;stroke-opacity:0.8;" x="389.929565" xlink:href="#mbf3c4e379e" y="196.794708"/>
     <use style="fill:#808080;fill-opacity:0.8;stroke:#000000;stroke-linejoin:miter;stroke-opacity:0.8;" x="396.132727" xlink:href="#mbf3c4e379e" y="194.643278"/>
    </g>
   </g>
   <g id="line2d_14">
    <path clip-path="url(#p4f29d367da)" d="M 110.787273 157.315893 
L 116.990435 188.695241 
L 123.193597 180.8149 
L 129.396759 186.857663 
L 135.599921 188.732512 
L 141.803083 190.198596 
L 148.006245 177.545449 
L 154.209407 182.004523 
L 160.412569 181.286902 
L 166.615731 183.045025 
L 172.818893 164.102654 
L 179.022055 178.222249 
L 185.225217 161.308069 
L 191.428379 175.670747 
L 197.631542 159.482528 
L 203.834704 176.522739 
L 210.037866 160.936031 
L 216.241028 179.455331 
L 222.44419 155.121396 
L 228.647352 181.298234 
L 234.850514 176.349956 
L 241.053676 191.980635 
L 247.256838 184.443191 
L 253.46 191.109998 
L 259.663162 190.830744 
L 265.866324 195.960008 
L 272.069486 196.181085 
L 278.272648 198.568184 
L 284.47581 198.342299 
L 290.678972 198.735296 
L 296.882134 198.945256 
L 303.085296 200.386144 
L 309.288458 199.597943 
L 315.491621 199.749274 
L 321.694783 200.496171 
L 327.897945 200.089565 
L 334.101107 201.386 
L 340.304269 200.925311 
L 346.507431 200.546772 
L 352.710593 198.406122 
L 358.913755 196.450964 
L 365.116917 197.619651 
L 371.320079 198.133673 
L 377.523241 197.377343 
L 383.726403 198.092059 
L 389.929565 196.794708 
L 396.132727 194.643278 
" style="fill:none;stroke:#808080;stroke-linecap:square;stroke-width:0.7;"/>
   </g>
   <g id="line2d_15">
    <path clip-path="url(#p4f29d367da)" d="M 110.787273 173.598876 
L 116.990435 199.099173 
L 123.193597 193.05016 
L 129.396759 196.965151 
L 135.599921 197.593126 
L 141.803083 197.927081 
L 148.006245 191.208998 
L 154.209407 194.267854 
L 160.412569 194.66148 
L 166.615731 195.239016 
L 172.818893 180.492578 
L 179.022055 191.65887 
L 185.225217 178.295759 
L 191.428379 189.158886 
L 197.631542 177.754584 
L 203.834704 189.824327 
L 210.037866 178.076576 
L 216.241028 191.430491 
L 222.44419 173.906185 
L 228.647352 192.479978 
L 234.850514 188.943505 
L 241.053676 198.863047 
L 247.256838 194.538661 
L 253.46 198.504105 
L 259.663162 198.086097 
L 265.866324 200.803025 
L 272.069486 200.926466 
L 278.272648 201.908144 
L 284.47581 201.810539 
L 290.678972 202.006074 
L 296.882134 202.086696 
L 303.085296 202.781404 
L 309.288458 202.549577 
L 315.491621 202.70763 
L 321.694783 202.994657 
L 327.897945 202.790645 
L 334.101107 203.288182 
L 340.304269 203.049593 
L 346.507431 202.915074 
L 352.710593 202.100692 
L 358.913755 201.485535 
L 365.116917 202.334211 
L 371.320079 202.321611 
L 377.523241 201.854758 
L 383.726403 202.302367 
L 389.929565 201.554995 
L 396.132727 200.538978 
" style="fill:none;stroke:#808080;stroke-dasharray:1.85,0.8;stroke-dashoffset:0;stroke-width:0.5;"/>
   </g>
   <g id="line2d_16">
    <path clip-path="url(#p4f29d367da)" d="M 110.787273 141.03291 
L 116.990435 178.291309 
L 123.193597 168.57964 
L 129.396759 176.750176 
L 135.599921 179.871899 
L 141.803083 182.470111 
L 148.006245 163.881901 
L 154.209407 169.741191 
L 160.412569 167.912324 
L 166.615731 170.851033 
L 172.818893 147.712729 
L 179.022055 164.785628 
L 185.225217 144.32038 
L 191.428379 162.182609 
L 197.631542 141.210471 
L 203.834704 163.221152 
L 210.037866 143.795485 
L 216.241028 167.480171 
L 222.44419 136.336606 
L 228.647352 170.116489 
L 234.850514 163.756407 
L 241.053676 185.098224 
L 247.256838 174.34772 
L 253.46 183.715892 
L 259.663162 183.575391 
L 265.866324 191.116991 
L 272.069486 191.435704 
L 278.272648 195.228225 
L 284.47581 194.874059 
L 290.678972 195.464518 
L 296.882134 195.803816 
L 303.085296 197.990883 
L 309.288458 196.64631 
L 315.491621 196.790918 
L 321.694783 197.997684 
L 327.897945 197.388486 
L 334.101107 199.483818 
L 340.304269 198.801029 
L 346.507431 198.178471 
L 352.710593 194.711553 
L 358.913755 191.416393 
L 365.116917 192.905091 
L 371.320079 193.945736 
L 377.523241 192.899928 
L 383.726403 193.881752 
L 389.929565 192.034421 
L 396.132727 188.747579 
" style="fill:none;stroke:#808080;stroke-dasharray:1.85,0.8;stroke-dashoffset:0;stroke-width:0.5;"/>
   </g>
   <g id="patch_3">
    <path d="M 96.52 211.94 
L 96.52 21.6 
" style="fill:none;stroke:#000000;stroke-linecap:square;stroke-linejoin:miter;stroke-width:0.8;"/>
   </g>
   <g id="patch_4">
    <path d="M 96.52 211.94 
L 410.4 211.94 
" style="fill:none;stroke:#000000;stroke-linecap:square;stroke-linejoin:miter;stroke-width:0.8;"/>
   </g>
   <g id="legend_1">
    <g id="patch_5">
     <path d="M 110.52 94.63125 
L 257.885625 94.63125 
Q 261.885625 94.63125 261.885625 90.63125 
L 261.885625 35.6 
Q 261.885625 31.6 257.885625 31.6 
L 110.52 31.6 
Q 106.52 31.6 106.52 35.6 
L 106.52 90.63125 
Q 106.52 94.63125 110.52 94.63125 
z
" style="fill:#ffffff;opacity:0.8;stroke:#cccccc;stroke-linejoin:miter;"/>
    </g>
    <g id="line2d_17">
     <path d="M 114.52 46.946875 
L 154.52 46.946875 
" style="fill:none;stroke:#ff8c00;stroke-linecap:square;stroke-opacity:0.8;stroke-width:0.7;"/>
    </g>
    <g id="line2d_18">
     <g>
      <use style="fill:#ff8c00;fill-opacity:0.8;stroke:#000000;stroke-linejoin:miter;stroke-opacity:0.8;" x="134.52" xlink:href="#m3075b6594e" y="46.946875"/>
     </g>
    </g>
    <g id="text_11">
     <!-- Class 0.0 -->
     <g transform="translate(170.52 53.946875)scale(0.2 -0.2)">
      <defs>
       <path d="M 2422 4716 
Q 3294 4716 3775 4256 
Q 4256 3797 4309 3213 
L 3703 3213 
Q 3600 3656 3292 3915 
Q 2984 4175 2428 4175 
Q 1750 4175 1333 3698 
Q 916 3222 916 2238 
Q 916 1431 1292 929 
Q 1669 428 2416 428 
Q 3103 428 3463 956 
Q 3653 1234 3747 1688 
L 4353 1688 
Q 4272 963 3816 472 
Q 3269 -119 2341 -119 
Q 1541 -119 997 366 
Q 281 1006 281 2344 
Q 281 3359 819 4009 
Q 1400 4716 2422 4716 
z
M 2297 4716 
L 2297 4716 
z
" id="Helvetica-43" transform="scale(0.015625)"/>
       <path d="M 428 4591 
L 991 4591 
L 991 0 
L 428 0 
L 428 4591 
z
" id="Helvetica-6c" transform="scale(0.015625)"/>
      </defs>
      <use xlink:href="#Helvetica-43"/>
      <use x="72.216797" xlink:href="#Helvetica-6c"/>
      <use x="94.433594" xlink:href="#Helvetica-61"/>
      <use x="150.048828" xlink:href="#Helvetica-73"/>
      <use x="200.048828" xlink:href="#Helvetica-73"/>
      <use x="250.048828" xlink:href="#Helvetica-20"/>
      <use x="277.832031" xlink:href="#Helvetica-30"/>
      <use x="333.447266" xlink:href="#Helvetica-2e"/>
      <use x="361.230469" xlink:href="#Helvetica-30"/>
     </g>
    </g>
    <g id="line2d_19">
     <path d="M 114.52 75.4625 
L 154.52 75.4625 
" style="fill:none;stroke:#808080;stroke-linecap:square;stroke-opacity:0.8;stroke-width:0.7;"/>
    </g>
    <g id="line2d_20">
     <g>
      <use style="fill:#808080;fill-opacity:0.8;stroke:#000000;stroke-linejoin:miter;stroke-opacity:0.8;" x="134.52" xlink:href="#mbf3c4e379e" y="75.4625"/>
     </g>
    </g>
    <g id="text_12">
     <!-- Class 1.0 -->
     <g transform="translate(170.52 82.4625)scale(0.2 -0.2)">
      <use xlink:href="#Helvetica-43"/>
      <use x="72.216797" xlink:href="#Helvetica-6c"/>
      <use x="94.433594" xlink:href="#Helvetica-61"/>
      <use x="150.048828" xlink:href="#Helvetica-73"/>
      <use x="200.048828" xlink:href="#Helvetica-73"/>
      <use x="250.048828" xlink:href="#Helvetica-20"/>
      <use x="277.832031" xlink:href="#Helvetica-31"/>
      <use x="333.447266" xlink:href="#Helvetica-2e"/>
      <use x="361.230469" xlink:href="#Helvetica-30"/>
     </g>
    </g>
   </g>
  </g>
 </g>
 <defs>
  <clipPath id="p4f29d367da">
   <rect height="190.34" width="313.88" x="96.52" y="21.6"/>
  </clipPath>
 </defs>
</svg>
