<?xml version="1.0" encoding="utf-8" standalone="no"?>
<!DOCTYPE svg PUBLIC "-//W3C//DTD SVG 1.1//EN"
  "http://www.w3.org/Graphics/SVG/1.1/DTD/svg11.dtd">
<svg height="288pt" version="1.1" viewBox="0 0 432 288" width="432pt" xmlns="http://www.w3.org/2000/svg" xmlns:xlink="http://www.w3.org/1999/xlink">
 <metadata>
  <rdf:RDF xmlns:cc="http://creativecommons.org/ns#" xmlns:dc="http://purl.org/dc/elements/1.1/" xmlns:rdf="http://www.w3.org/1999/02/22-rdf-syntax-ns#">
   <cc:Work>
    <dc:type rdf:resource="http://purl.org/dc/dcmitype/StillImage"/>
    <dc:date>2023-01-26T13:58:29.256332</dc:date>
    <dc:format>image/svg+xml</dc:format>
    <dc:creator>
     <cc:Agent>
      <dc:title>Matplotlib v3.4.2, https://matplotlib.org/</dc:title>
     </cc:Agent>
    </dc:creator>
   </cc:Work>
  </rdf:RDF>
 </metadata>
 <defs>
  <style type="text/css">*{stroke-linecap:butt;stroke-linejoin:round;}</style>
 </defs>
 <g id="figure_1">
  <g id="patch_1">
   <path d="M 0 288 
L 432 288 
L 432 0 
L 0 0 
z
" style="fill:#ffffff;"/>
  </g>
  <g id="axes_1">
   <g id="patch_2">
    <path d="M 107.65 211.94 
L 410.4 211.94 
L 410.4 21.6 
L 107.65 21.6 
z
" style="fill:#ffffff;"/>
   </g>
   <g id="PolyCollection_1">
    <defs>
     <path d="M 121.411364 -257.748182 
L 121.411364 -197.343779 
L 127.394565 -133.674863 
L 133.377767 -170.100161 
L 139.360968 -161.247199 
L 145.34417 -126.430579 
L 151.327372 -113.441118 
L 157.310573 -135.23573 
L 163.293775 -166.264724 
L 169.276976 -140.609162 
L 175.260178 -181.548296 
L 181.243379 -143.947455 
L 187.226581 -173.001914 
L 193.209783 -138.510739 
L 199.192984 -121.759068 
L 205.176186 -118.495733 
L 211.159387 -109.857253 
L 217.142589 -116.036814 
L 223.125791 -104.104262 
L 229.108992 -107.627621 
L 235.092194 -105.196165 
L 241.075395 -115.647606 
L 247.058597 -102.597476 
L 253.041798 -109.661984 
L 259.025 -100.458711 
L 265.008202 -98.019302 
L 270.991403 -93.001325 
L 276.974605 -90.957568 
L 282.957806 -89.78472 
L 288.941008 -90.235446 
L 294.924209 -89.328535 
L 300.907411 -90.197582 
L 306.890613 -88.781646 
L 312.873814 -90.589048 
L 318.857016 -91.075401 
L 324.840217 -89.09206 
L 330.823419 -89.518349 
L 336.806621 -87.749866 
L 342.789822 -88.196082 
L 348.773024 -88.905985 
L 354.756225 -93.156252 
L 360.739427 -100.757054 
L 366.722628 -104.193761 
L 372.70583 -100.082841 
L 378.689032 -99.264959 
L 384.672233 -100.202332 
L 390.655435 -99.25812 
L 396.638636 -102.905074 
L 396.638636 -127.339853 
L 396.638636 -127.339853 
L 390.655435 -118.796313 
L 384.672233 -119.240568 
L 378.689032 -118.25093 
L 372.70583 -119.529435 
L 366.722628 -126.849736 
L 360.739427 -122.204118 
L 354.756225 -107.347705 
L 348.773024 -98.15232 
L 342.789822 -96.594078 
L 336.806621 -95.445048 
L 330.823419 -99.316028 
L 324.840217 -98.056022 
L 318.857016 -102.292725 
L 312.873814 -101.701205 
L 306.890613 -98.214579 
L 300.907411 -101.838475 
L 294.924209 -99.960687 
L 288.941008 -102.255951 
L 282.957806 -101.135184 
L 276.974605 -104.147038 
L 270.991403 -108.749724 
L 265.008202 -120.311976 
L 259.025 -125.196272 
L 253.041798 -141.398253 
L 247.058597 -128.619149 
L 241.075395 -152.373328 
L 235.092194 -137.773694 
L 229.108992 -147.116005 
L 223.125791 -137.247954 
L 217.142589 -159.090458 
L 211.159387 -146.887318 
L 205.176186 -162.141633 
L 199.192984 -167.388337 
L 193.209783 -194.78912 
L 187.226581 -234.698857 
L 181.243379 -197.709882 
L 175.260178 -241.42777 
L 169.276976 -194.809328 
L 163.293775 -231.69223 
L 157.310573 -186.448235 
L 151.327372 -149.330635 
L 145.34417 -164.837902 
L 139.360968 -216.873308 
L 133.377767 -226.640918 
L 127.394565 -176.990625 
L 121.411364 -257.748182 
z
" id="m4a59525afc" style="stroke:#ff8c00;stroke-opacity:0.2;"/>
    </defs>
    <g clip-path="url(#p9ab701237c)">
     <use style="fill:#ff8c00;fill-opacity:0.2;stroke:#ff8c00;stroke-opacity:0.2;" x="0" xlink:href="#m4a59525afc" y="288"/>
    </g>
   </g>
   <g id="PolyCollection_2">
    <defs>
     <path d="M 121.411364 -160.579793 
L 121.411364 -118.774352 
L 127.394565 -97.550882 
L 133.377767 -104.104928 
L 139.360968 -104.042712 
L 145.34417 -95.669807 
L 151.327372 -94.268033 
L 157.310573 -106.577761 
L 163.293775 -104.461499 
L 169.276976 -104.314565 
L 175.260178 -101.099421 
L 181.243379 -118.542762 
L 187.226581 -108.215895 
L 193.209783 -118.499327 
L 199.192984 -108.671766 
L 205.176186 -120.726499 
L 211.159387 -107.886388 
L 217.142589 -120.092197 
L 223.125791 -105.174428 
L 229.108992 -124.022913 
L 235.092194 -103.598683 
L 241.075395 -108.218506 
L 247.058597 -94.035454 
L 253.041798 -101.19145 
L 259.025 -94.7712 
L 265.008202 -94.984372 
L 270.991403 -90.008986 
L 276.974605 -89.875562 
L 282.957806 -87.415211 
L 288.941008 -87.640688 
L 294.924209 -87.253036 
L 300.907411 -87.054229 
L 306.890613 -85.677519 
L 312.873814 -86.47995 
L 318.857016 -86.334197 
L 324.840217 -85.580715 
L 330.823419 -85.990647 
L 336.806621 -84.711818 
L 342.789822 -85.142536 
L 348.773024 -85.524512 
L 354.756225 -87.654866 
L 360.739427 -89.703598 
L 366.722628 -88.392914 
L 372.70583 -87.916689 
L 378.689032 -88.6737 
L 384.672233 -87.973695 
L 390.655435 -89.281449 
L 396.638636 -91.425246 
L 396.638636 -109.360534 
L 396.638636 -109.360534 
L 390.655435 -103.814123 
L 384.672233 -101.194409 
L 378.689032 -102.435478 
L 372.70583 -101.056336 
L 366.722628 -103.441865 
L 360.739427 -105.232702 
L 354.756225 -98.858412 
L 348.773024 -92.706981 
L 342.789822 -91.584898 
L 336.806621 -90.537044 
L 330.823419 -94.212731 
L 324.840217 -93.187369 
L 318.857016 -95.374815 
L 312.873814 -95.46438 
L 306.890613 -92.967431 
L 300.907411 -96.558838 
L 294.924209 -97.130049 
L 288.941008 -98.143451 
L 282.957806 -97.504793 
L 276.974605 -104.317102 
L 270.991403 -104.691937 
L 265.008202 -116.888403 
L 259.025 -117.167891 
L 253.041798 -131.721459 
L 247.058597 -114.957242 
L 241.075395 -145.332302 
L 235.092194 -136.952303 
L 229.108992 -175.492394 
L 223.125791 -140.952998 
L 217.142589 -168.328339 
L 211.159387 -147.20713 
L 205.176186 -171.536647 
L 199.192984 -148.143603 
L 193.209783 -165.267388 
L 187.226581 -149.045858 
L 181.243379 -165.402585 
L 175.260178 -136.547445 
L 169.276976 -145.126207 
L 163.293775 -145.759482 
L 157.310573 -149.225096 
L 151.327372 -119.763415 
L 145.34417 -129.274376 
L 139.360968 -142.44098 
L 133.377767 -146.214742 
L 127.394565 -130.210362 
L 121.411364 -160.579793 
z
" id="mfe68b91737" style="stroke:#808080;stroke-opacity:0.2;"/>
    </defs>
    <g clip-path="url(#p9ab701237c)">
     <use style="fill:#808080;fill-opacity:0.2;stroke:#808080;stroke-opacity:0.2;" x="0" xlink:href="#mfe68b91737" y="288"/>
    </g>
   </g>
   <g id="matplotlib.axis_1">
    <g id="xtick_1">
     <g id="line2d_1">
      <defs>
       <path d="M 0 0 
L 0 10 
" id="maa53ea962e" style="stroke:#000000;stroke-width:0.8;"/>
      </defs>
      <g>
       <use style="stroke:#000000;stroke-width:0.8;" x="121.411364" xlink:href="#maa53ea962e" y="211.94"/>
      </g>
     </g>
     <g id="text_1">
      <!-- 0 -->
      <g transform="translate(115.850426 239.786875)scale(0.2 -0.2)">
       <defs>
        <path d="M 1731 4475 
Q 2600 4475 2988 3759 
Q 3288 3206 3288 2244 
Q 3288 1331 3016 734 
Q 2622 -122 1728 -122 
Q 922 -122 528 578 
Q 200 1163 200 2147 
Q 200 2909 397 3456 
Q 766 4475 1731 4475 
z
M 1725 391 
Q 2163 391 2422 778 
Q 2681 1166 2681 2222 
Q 2681 2984 2493 3476 
Q 2306 3969 1766 3969 
Q 1269 3969 1039 3501 
Q 809 3034 809 2125 
Q 809 1441 956 1025 
Q 1181 391 1725 391 
z
" id="Helvetica-30" transform="scale(0.015625)"/>
       </defs>
       <use xlink:href="#Helvetica-30"/>
      </g>
     </g>
    </g>
    <g id="xtick_2">
     <g id="line2d_2">
      <g>
       <use style="stroke:#000000;stroke-width:0.8;" x="181.243379" xlink:href="#maa53ea962e" y="211.94"/>
      </g>
     </g>
     <g id="text_2">
      <!-- 10 -->
      <g transform="translate(170.121504 239.786875)scale(0.2 -0.2)">
       <defs>
        <path d="M 613 3169 
L 613 3600 
Q 1222 3659 1462 3798 
Q 1703 3938 1822 4456 
L 2266 4456 
L 2266 0 
L 1666 0 
L 1666 3169 
L 613 3169 
z
" id="Helvetica-31" transform="scale(0.015625)"/>
       </defs>
       <use xlink:href="#Helvetica-31"/>
       <use x="55.615234" xlink:href="#Helvetica-30"/>
      </g>
     </g>
    </g>
    <g id="xtick_3">
     <g id="line2d_3">
      <g>
       <use style="stroke:#000000;stroke-width:0.8;" x="241.075395" xlink:href="#maa53ea962e" y="211.94"/>
      </g>
     </g>
     <g id="text_3">
      <!-- 20 -->
      <g transform="translate(229.95352 239.786875)scale(0.2 -0.2)">
       <defs>
        <path d="M 200 0 
Q 231 578 439 1006 
Q 647 1434 1250 1784 
L 1850 2131 
Q 2253 2366 2416 2531 
Q 2672 2791 2672 3125 
Q 2672 3516 2437 3745 
Q 2203 3975 1813 3975 
Q 1234 3975 1013 3538 
Q 894 3303 881 2888 
L 309 2888 
Q 319 3472 525 3841 
Q 891 4491 1816 4491 
Q 2584 4491 2939 4075 
Q 3294 3659 3294 3150 
Q 3294 2613 2916 2231 
Q 2697 2009 2131 1694 
L 1703 1456 
Q 1397 1288 1222 1134 
Q 909 863 828 531 
L 3272 531 
L 3272 0 
L 200 0 
z
" id="Helvetica-32" transform="scale(0.015625)"/>
       </defs>
       <use xlink:href="#Helvetica-32"/>
       <use x="55.615234" xlink:href="#Helvetica-30"/>
      </g>
     </g>
    </g>
    <g id="xtick_4">
     <g id="line2d_4">
      <g>
       <use style="stroke:#000000;stroke-width:0.8;" x="300.907411" xlink:href="#maa53ea962e" y="211.94"/>
      </g>
     </g>
     <g id="text_4">
      <!-- 30 -->
      <g transform="translate(289.785536 239.786875)scale(0.2 -0.2)">
       <defs>
        <path d="M 1663 -122 
Q 869 -122 511 314 
Q 153 750 153 1375 
L 741 1375 
Q 778 941 903 744 
Q 1122 391 1694 391 
Q 2138 391 2406 628 
Q 2675 866 2675 1241 
Q 2675 1703 2392 1887 
Q 2109 2072 1606 2072 
Q 1550 2072 1492 2070 
Q 1434 2069 1375 2066 
L 1375 2563 
Q 1463 2553 1522 2550 
Q 1581 2547 1650 2547 
Q 1966 2547 2169 2647 
Q 2525 2822 2525 3272 
Q 2525 3606 2287 3787 
Q 2050 3969 1734 3969 
Q 1172 3969 956 3594 
Q 838 3388 822 3006 
L 266 3006 
Q 266 3506 466 3856 
Q 809 4481 1675 4481 
Q 2359 4481 2734 4176 
Q 3109 3872 3109 3294 
Q 3109 2881 2888 2625 
Q 2750 2466 2531 2375 
Q 2884 2278 3082 2001 
Q 3281 1725 3281 1325 
Q 3281 684 2859 281 
Q 2438 -122 1663 -122 
z
" id="Helvetica-33" transform="scale(0.015625)"/>
       </defs>
       <use xlink:href="#Helvetica-33"/>
       <use x="55.615234" xlink:href="#Helvetica-30"/>
      </g>
     </g>
    </g>
    <g id="xtick_5">
     <g id="line2d_5">
      <g>
       <use style="stroke:#000000;stroke-width:0.8;" x="360.739427" xlink:href="#maa53ea962e" y="211.94"/>
      </g>
     </g>
     <g id="text_5">
      <!-- 40 -->
      <g transform="translate(349.617552 239.786875)scale(0.2 -0.2)">
       <defs>
        <path d="M 2116 1584 
L 2116 3613 
L 681 1584 
L 2116 1584 
z
M 2125 0 
L 2125 1094 
L 163 1094 
L 163 1644 
L 2213 4488 
L 2688 4488 
L 2688 1584 
L 3347 1584 
L 3347 1094 
L 2688 1094 
L 2688 0 
L 2125 0 
z
" id="Helvetica-34" transform="scale(0.015625)"/>
       </defs>
       <use xlink:href="#Helvetica-34"/>
       <use x="55.615234" xlink:href="#Helvetica-30"/>
      </g>
     </g>
    </g>
    <g id="text_6">
     <!-- Position -->
     <g transform="translate(223.45 262.3025)scale(0.2 -0.2)">
      <defs>
       <path d="M 547 4591 
L 2613 4591 
Q 3225 4591 3600 4245 
Q 3975 3900 3975 3275 
Q 3975 2738 3640 2339 
Q 3306 1941 2613 1941 
L 1169 1941 
L 1169 0 
L 547 0 
L 547 4591 
z
M 3347 3272 
Q 3347 3778 2972 3959 
Q 2766 4056 2406 4056 
L 1169 4056 
L 1169 2466 
L 2406 2466 
Q 2825 2466 3086 2644 
Q 3347 2822 3347 3272 
z
" id="Helvetica-50" transform="scale(0.015625)"/>
       <path d="M 1741 363 
Q 2300 363 2508 786 
Q 2716 1209 2716 1728 
Q 2716 2197 2566 2491 
Q 2328 2953 1747 2953 
Q 1231 2953 997 2559 
Q 763 2166 763 1609 
Q 763 1075 997 719 
Q 1231 363 1741 363 
z
M 1763 3444 
Q 2409 3444 2856 3012 
Q 3303 2581 3303 1744 
Q 3303 934 2909 406 
Q 2516 -122 1688 -122 
Q 997 -122 590 345 
Q 184 813 184 1600 
Q 184 2444 612 2944 
Q 1041 3444 1763 3444 
z
M 1744 3428 
L 1744 3428 
z
" id="Helvetica-6f" transform="scale(0.015625)"/>
       <path d="M 747 1050 
Q 772 769 888 619 
Q 1100 347 1625 347 
Q 1938 347 2175 483 
Q 2413 619 2413 903 
Q 2413 1119 2222 1231 
Q 2100 1300 1741 1391 
L 1294 1503 
Q 866 1609 663 1741 
Q 300 1969 300 2372 
Q 300 2847 642 3140 
Q 984 3434 1563 3434 
Q 2319 3434 2653 2991 
Q 2863 2709 2856 2384 
L 2325 2384 
Q 2309 2575 2191 2731 
Q 1997 2953 1519 2953 
Q 1200 2953 1036 2831 
Q 872 2709 872 2509 
Q 872 2291 1088 2159 
Q 1213 2081 1456 2022 
L 1828 1931 
Q 2434 1784 2641 1647 
Q 2969 1431 2969 969 
Q 2969 522 2630 197 
Q 2291 -128 1597 -128 
Q 850 -128 539 211 
Q 228 550 206 1050 
L 747 1050 
z
M 1578 3428 
L 1578 3428 
z
" id="Helvetica-73" transform="scale(0.015625)"/>
       <path d="M 413 3331 
L 984 3331 
L 984 0 
L 413 0 
L 413 3331 
z
M 413 4591 
L 984 4591 
L 984 3953 
L 413 3953 
L 413 4591 
z
" id="Helvetica-69" transform="scale(0.015625)"/>
       <path d="M 525 4281 
L 1094 4281 
L 1094 3347 
L 1628 3347 
L 1628 2888 
L 1094 2888 
L 1094 703 
Q 1094 528 1213 469 
Q 1278 434 1431 434 
Q 1472 434 1519 436 
Q 1566 438 1628 444 
L 1628 0 
Q 1531 -28 1426 -40 
Q 1322 -53 1200 -53 
Q 806 -53 665 148 
Q 525 350 525 672 
L 525 2888 
L 72 2888 
L 72 3347 
L 525 3347 
L 525 4281 
z
" id="Helvetica-74" transform="scale(0.015625)"/>
       <path d="M 413 3347 
L 947 3347 
L 947 2872 
Q 1184 3166 1450 3294 
Q 1716 3422 2041 3422 
Q 2753 3422 3003 2925 
Q 3141 2653 3141 2147 
L 3141 0 
L 2569 0 
L 2569 2109 
Q 2569 2416 2478 2603 
Q 2328 2916 1934 2916 
Q 1734 2916 1606 2875 
Q 1375 2806 1200 2600 
Q 1059 2434 1017 2257 
Q 975 2081 975 1753 
L 975 0 
L 413 0 
L 413 3347 
z
M 1734 3428 
L 1734 3428 
z
" id="Helvetica-6e" transform="scale(0.015625)"/>
      </defs>
      <use xlink:href="#Helvetica-50"/>
      <use x="66.699219" xlink:href="#Helvetica-6f"/>
      <use x="122.314453" xlink:href="#Helvetica-73"/>
      <use x="172.314453" xlink:href="#Helvetica-69"/>
      <use x="194.53125" xlink:href="#Helvetica-74"/>
      <use x="222.314453" xlink:href="#Helvetica-69"/>
      <use x="244.53125" xlink:href="#Helvetica-6f"/>
      <use x="300.146484" xlink:href="#Helvetica-6e"/>
     </g>
    </g>
   </g>
   <g id="matplotlib.axis_2">
    <g id="ytick_1">
     <g id="line2d_6">
      <defs>
       <path d="M 0 0 
L -10 0 
" id="m2d6e3b1fc0" style="stroke:#000000;stroke-width:0.8;"/>
      </defs>
      <g>
       <use style="stroke:#000000;stroke-width:0.8;" x="107.65" xlink:href="#m2d6e3b1fc0" y="206.332779"/>
      </g>
     </g>
     <g id="text_7">
      <!-- 0.00 -->
      <g transform="translate(55.228125 213.506216)scale(0.2 -0.2)">
       <defs>
        <path d="M 547 681 
L 1200 681 
L 1200 0 
L 547 0 
L 547 681 
z
" id="Helvetica-2e" transform="scale(0.015625)"/>
       </defs>
       <use xlink:href="#Helvetica-30"/>
       <use x="55.615234" xlink:href="#Helvetica-2e"/>
       <use x="83.398438" xlink:href="#Helvetica-30"/>
       <use x="139.013672" xlink:href="#Helvetica-30"/>
      </g>
     </g>
    </g>
    <g id="ytick_2">
     <g id="line2d_7">
      <g>
       <use style="stroke:#000000;stroke-width:0.8;" x="107.65" xlink:href="#m2d6e3b1fc0" y="121.39656"/>
      </g>
     </g>
     <g id="text_8">
      <!-- 0.05 -->
      <g transform="translate(55.228125 128.569997)scale(0.2 -0.2)">
       <defs>
        <path d="M 791 1141 
Q 847 659 1238 475 
Q 1438 381 1700 381 
Q 2200 381 2440 700 
Q 2681 1019 2681 1406 
Q 2681 1875 2395 2131 
Q 2109 2388 1709 2388 
Q 1419 2388 1211 2275 
Q 1003 2163 856 1963 
L 369 1991 
L 709 4400 
L 3034 4400 
L 3034 3856 
L 1131 3856 
L 941 2613 
Q 1097 2731 1238 2791 
Q 1488 2894 1816 2894 
Q 2431 2894 2859 2497 
Q 3288 2100 3288 1491 
Q 3288 856 2895 371 
Q 2503 -113 1644 -113 
Q 1097 -113 676 195 
Q 256 503 206 1141 
L 791 1141 
z
" id="Helvetica-35" transform="scale(0.015625)"/>
       </defs>
       <use xlink:href="#Helvetica-30"/>
       <use x="55.615234" xlink:href="#Helvetica-2e"/>
       <use x="83.398438" xlink:href="#Helvetica-30"/>
       <use x="139.013672" xlink:href="#Helvetica-35"/>
      </g>
     </g>
    </g>
    <g id="ytick_3">
     <g id="line2d_8">
      <g>
       <use style="stroke:#000000;stroke-width:0.8;" x="107.65" xlink:href="#m2d6e3b1fc0" y="36.460341"/>
      </g>
     </g>
     <g id="text_9">
      <!-- 0.10 -->
      <g transform="translate(55.228125 43.633779)scale(0.2 -0.2)">
       <use xlink:href="#Helvetica-30"/>
       <use x="55.615234" xlink:href="#Helvetica-2e"/>
       <use x="83.398438" xlink:href="#Helvetica-31"/>
       <use x="139.013672" xlink:href="#Helvetica-30"/>
      </g>
     </g>
    </g>
    <g id="text_10">
     <!-- Std Dev of Subunit Mismatch -->
     <g transform="translate(47.059375 245.709062)rotate(-90)scale(0.2 -0.2)">
      <defs>
       <path d="M 894 1481 
Q 916 1091 1078 847 
Q 1388 391 2169 391 
Q 2519 391 2806 491 
Q 3363 684 3363 1184 
Q 3363 1559 3128 1719 
Q 2891 1875 2384 1991 
L 1763 2131 
Q 1153 2269 900 2434 
Q 463 2722 463 3294 
Q 463 3913 891 4309 
Q 1319 4706 2103 4706 
Q 2825 4706 3329 4357 
Q 3834 4009 3834 3244 
L 3250 3244 
Q 3203 3613 3050 3809 
Q 2766 4169 2084 4169 
Q 1534 4169 1293 3937 
Q 1053 3706 1053 3400 
Q 1053 3063 1334 2906 
Q 1519 2806 2169 2656 
L 2813 2509 
Q 3278 2403 3531 2219 
Q 3969 1897 3969 1284 
Q 3969 522 3414 194 
Q 2859 -134 2125 -134 
Q 1269 -134 784 303 
Q 300 738 309 1481 
L 894 1481 
z
M 2150 4716 
L 2150 4716 
z
" id="Helvetica-53" transform="scale(0.015625)"/>
       <path d="M 769 1634 
Q 769 1097 997 734 
Q 1225 372 1728 372 
Q 2119 372 2370 708 
Q 2622 1044 2622 1672 
Q 2622 2306 2362 2611 
Q 2103 2916 1722 2916 
Q 1297 2916 1033 2591 
Q 769 2266 769 1634 
z
M 1616 3406 
Q 2000 3406 2259 3244 
Q 2409 3150 2600 2916 
L 2600 4606 
L 3141 4606 
L 3141 0 
L 2634 0 
L 2634 466 
Q 2438 156 2169 18 
Q 1900 -119 1553 -119 
Q 994 -119 584 351 
Q 175 822 175 1603 
Q 175 2334 548 2870 
Q 922 3406 1616 3406 
z
" id="Helvetica-64" transform="scale(0.015625)"/>
       <path id="Helvetica-20" transform="scale(0.015625)"/>
       <path d="M 2250 531 
Q 2566 531 2769 597 
Q 3131 719 3363 1066 
Q 3547 1344 3628 1778 
Q 3675 2038 3675 2259 
Q 3675 3113 3336 3584 
Q 2997 4056 2244 4056 
L 1141 4056 
L 1141 531 
L 2250 531 
z
M 516 4591 
L 2375 4591 
Q 3322 4591 3844 3919 
Q 4309 3313 4309 2366 
Q 4309 1634 4034 1044 
Q 3550 0 2369 0 
L 516 0 
L 516 4591 
z
" id="Helvetica-44" transform="scale(0.015625)"/>
       <path d="M 1806 3422 
Q 2163 3422 2497 3255 
Q 2831 3088 3006 2822 
Q 3175 2569 3231 2231 
Q 3281 2000 3281 1494 
L 828 1494 
Q 844 984 1069 676 
Q 1294 369 1766 369 
Q 2206 369 2469 659 
Q 2619 828 2681 1050 
L 3234 1050 
Q 3213 866 3089 639 
Q 2966 413 2813 269 
Q 2556 19 2178 -69 
Q 1975 -119 1719 -119 
Q 1094 -119 659 336 
Q 225 791 225 1609 
Q 225 2416 662 2919 
Q 1100 3422 1806 3422 
z
M 2703 1941 
Q 2669 2306 2544 2525 
Q 2313 2931 1772 2931 
Q 1384 2931 1121 2651 
Q 859 2372 844 1941 
L 2703 1941 
z
M 1753 3428 
L 1753 3428 
z
" id="Helvetica-65" transform="scale(0.015625)"/>
       <path d="M 688 3347 
L 1581 622 
L 2516 3347 
L 3131 3347 
L 1869 0 
L 1269 0 
L 34 3347 
L 688 3347 
z
" id="Helvetica-76" transform="scale(0.015625)"/>
       <path d="M 553 3856 
Q 566 4206 675 4369 
Q 872 4656 1434 4656 
Q 1488 4656 1544 4653 
Q 1600 4650 1672 4644 
L 1672 4131 
Q 1584 4138 1545 4139 
Q 1506 4141 1472 4141 
Q 1216 4141 1166 4008 
Q 1116 3875 1116 3331 
L 1672 3331 
L 1672 2888 
L 1109 2888 
L 1109 0 
L 553 0 
L 553 2888 
L 88 2888 
L 88 3331 
L 553 3331 
L 553 3856 
z
" id="Helvetica-66" transform="scale(0.015625)"/>
       <path d="M 975 3347 
L 975 1125 
Q 975 869 1056 706 
Q 1206 406 1616 406 
Q 2203 406 2416 931 
Q 2531 1213 2531 1703 
L 2531 3347 
L 3094 3347 
L 3094 0 
L 2563 0 
L 2569 494 
Q 2459 303 2297 172 
Q 1975 -91 1516 -91 
Q 800 -91 541 388 
Q 400 644 400 1072 
L 400 3347 
L 975 3347 
z
M 1747 3428 
L 1747 3428 
z
" id="Helvetica-75" transform="scale(0.015625)"/>
       <path d="M 369 4606 
L 916 4606 
L 916 2941 
Q 1100 3181 1356 3307 
Q 1613 3434 1913 3434 
Q 2538 3434 2927 3004 
Q 3316 2575 3316 1738 
Q 3316 944 2931 419 
Q 2547 -106 1866 -106 
Q 1484 -106 1222 78 
Q 1066 188 888 428 
L 888 0 
L 369 0 
L 369 4606 
z
M 1831 391 
Q 2288 391 2514 753 
Q 2741 1116 2741 1709 
Q 2741 2238 2514 2584 
Q 2288 2931 1847 2931 
Q 1463 2931 1173 2647 
Q 884 2363 884 1709 
Q 884 1238 1003 944 
Q 1225 391 1831 391 
z
" id="Helvetica-62" transform="scale(0.015625)"/>
       <path d="M 472 4591 
L 1363 4591 
L 2681 709 
L 3991 4591 
L 4872 4591 
L 4872 0 
L 4281 0 
L 4281 2709 
Q 4281 2850 4287 3175 
Q 4294 3500 4294 3872 
L 2984 0 
L 2369 0 
L 1050 3872 
L 1050 3731 
Q 1050 3563 1058 3217 
Q 1066 2872 1066 2709 
L 1066 0 
L 472 0 
L 472 4591 
z
" id="Helvetica-4d" transform="scale(0.015625)"/>
       <path d="M 413 3347 
L 969 3347 
L 969 2872 
Q 1169 3119 1331 3231 
Q 1609 3422 1963 3422 
Q 2363 3422 2606 3225 
Q 2744 3113 2856 2894 
Q 3044 3163 3297 3292 
Q 3550 3422 3866 3422 
Q 4541 3422 4784 2934 
Q 4916 2672 4916 2228 
L 4916 0 
L 4331 0 
L 4331 2325 
Q 4331 2659 4164 2784 
Q 3997 2909 3756 2909 
Q 3425 2909 3186 2687 
Q 2947 2466 2947 1947 
L 2947 0 
L 2375 0 
L 2375 2184 
Q 2375 2525 2294 2681 
Q 2166 2916 1816 2916 
Q 1497 2916 1236 2669 
Q 975 2422 975 1775 
L 975 0 
L 413 0 
L 413 3347 
z
" id="Helvetica-6d" transform="scale(0.015625)"/>
       <path d="M 844 891 
Q 844 647 1022 506 
Q 1200 366 1444 366 
Q 1741 366 2019 503 
Q 2488 731 2488 1250 
L 2488 1703 
Q 2384 1638 2221 1594 
Q 2059 1550 1903 1531 
L 1563 1488 
Q 1256 1447 1103 1359 
Q 844 1213 844 891 
z
M 2206 2028 
Q 2400 2053 2466 2191 
Q 2503 2266 2503 2406 
Q 2503 2694 2298 2823 
Q 2094 2953 1713 2953 
Q 1272 2953 1088 2716 
Q 984 2584 953 2325 
L 428 2325 
Q 444 2944 830 3186 
Q 1216 3428 1725 3428 
Q 2316 3428 2684 3203 
Q 3050 2978 3050 2503 
L 3050 575 
Q 3050 488 3086 434 
Q 3122 381 3238 381 
Q 3275 381 3322 386 
Q 3369 391 3422 400 
L 3422 -16 
Q 3291 -53 3222 -62 
Q 3153 -72 3034 -72 
Q 2744 -72 2613 134 
Q 2544 244 2516 444 
Q 2344 219 2022 53 
Q 1700 -113 1313 -113 
Q 847 -113 551 170 
Q 256 453 256 878 
Q 256 1344 547 1600 
Q 838 1856 1309 1916 
L 2206 2028 
z
M 1741 3428 
L 1741 3428 
z
" id="Helvetica-61" transform="scale(0.015625)"/>
       <path d="M 1703 3444 
Q 2269 3444 2623 3169 
Q 2978 2894 3050 2222 
L 2503 2222 
Q 2453 2531 2275 2736 
Q 2097 2941 1703 2941 
Q 1166 2941 934 2416 
Q 784 2075 784 1575 
Q 784 1072 996 728 
Q 1209 384 1666 384 
Q 2016 384 2220 598 
Q 2425 813 2503 1184 
L 3050 1184 
Q 2956 519 2581 211 
Q 2206 -97 1622 -97 
Q 966 -97 575 383 
Q 184 863 184 1581 
Q 184 2463 612 2953 
Q 1041 3444 1703 3444 
z
M 1616 3428 
L 1616 3428 
z
" id="Helvetica-63" transform="scale(0.015625)"/>
       <path d="M 413 4606 
L 975 4606 
L 975 2894 
Q 1175 3147 1334 3250 
Q 1606 3428 2013 3428 
Q 2741 3428 3000 2919 
Q 3141 2641 3141 2147 
L 3141 0 
L 2563 0 
L 2563 2109 
Q 2563 2478 2469 2650 
Q 2316 2925 1894 2925 
Q 1544 2925 1259 2684 
Q 975 2444 975 1775 
L 975 0 
L 413 0 
L 413 4606 
z
" id="Helvetica-68" transform="scale(0.015625)"/>
      </defs>
      <use xlink:href="#Helvetica-53"/>
      <use x="66.699219" xlink:href="#Helvetica-74"/>
      <use x="94.482422" xlink:href="#Helvetica-64"/>
      <use x="150.097656" xlink:href="#Helvetica-20"/>
      <use x="177.880859" xlink:href="#Helvetica-44"/>
      <use x="250.097656" xlink:href="#Helvetica-65"/>
      <use x="305.712891" xlink:href="#Helvetica-76"/>
      <use x="355.712891" xlink:href="#Helvetica-20"/>
      <use x="383.496094" xlink:href="#Helvetica-6f"/>
      <use x="439.111328" xlink:href="#Helvetica-66"/>
      <use x="466.894531" xlink:href="#Helvetica-20"/>
      <use x="494.677734" xlink:href="#Helvetica-53"/>
      <use x="561.376953" xlink:href="#Helvetica-75"/>
      <use x="616.992188" xlink:href="#Helvetica-62"/>
      <use x="672.607422" xlink:href="#Helvetica-75"/>
      <use x="728.222656" xlink:href="#Helvetica-6e"/>
      <use x="783.837891" xlink:href="#Helvetica-69"/>
      <use x="806.054688" xlink:href="#Helvetica-74"/>
      <use x="833.837891" xlink:href="#Helvetica-20"/>
      <use x="861.621094" xlink:href="#Helvetica-4d"/>
      <use x="944.921875" xlink:href="#Helvetica-69"/>
      <use x="967.138672" xlink:href="#Helvetica-73"/>
      <use x="1017.138672" xlink:href="#Helvetica-6d"/>
      <use x="1100.439453" xlink:href="#Helvetica-61"/>
      <use x="1156.054688" xlink:href="#Helvetica-74"/>
      <use x="1183.837891" xlink:href="#Helvetica-63"/>
      <use x="1233.837891" xlink:href="#Helvetica-68"/>
     </g>
    </g>
   </g>
   <g id="line2d_9">
    <path clip-path="url(#p9ab701237c)" d="M 121.411364 60.454019 
L 127.394565 132.667256 
L 133.377767 89.629461 
L 139.360968 98.939747 
L 145.34417 142.365759 
L 151.327372 156.614124 
L 157.310573 127.158018 
L 163.293775 89.021523 
L 169.276976 120.290755 
L 175.260178 76.511967 
L 181.243379 117.171331 
L 187.226581 84.149615 
L 193.209783 121.35007 
L 199.192984 143.426298 
L 205.176186 147.681317 
L 211.159387 159.627714 
L 217.142589 150.436364 
L 223.125791 167.323892 
L 229.108992 160.628187 
L 235.092194 166.515071 
L 241.075395 153.989533 
L 247.058597 172.391688 
L 253.041798 162.469881 
L 259.025 175.172508 
L 265.008202 178.834361 
L 270.991403 187.124475 
L 276.974605 190.447697 
L 282.957806 192.540048 
L 288.941008 191.754301 
L 294.924209 193.355389 
L 300.907411 191.981971 
L 306.890613 194.501888 
L 312.873814 191.854874 
L 318.857016 191.315937 
L 324.840217 194.425959 
L 330.823419 193.582811 
L 336.806621 196.402543 
L 342.789822 195.60492 
L 348.773024 194.470847 
L 354.756225 187.748022 
L 360.739427 176.519414 
L 366.722628 172.478251 
L 372.70583 178.193862 
L 378.689032 179.242055 
L 384.672233 178.27855 
L 390.655435 178.972784 
L 396.638636 172.877536 
" style="fill:none;stroke:#ff8c00;stroke-linecap:square;stroke-opacity:0.8;stroke-width:0.7;"/>
    <defs>
     <path d="M 0 -2.5 
L -2.5 2.5 
L 2.5 2.5 
z
" id="m04fc07102b" style="stroke:#000000;stroke-linejoin:miter;stroke-opacity:0.8;"/>
    </defs>
    <g clip-path="url(#p9ab701237c)">
     <use style="fill:#ff8c00;fill-opacity:0.8;stroke:#000000;stroke-linejoin:miter;stroke-opacity:0.8;" x="121.411364" xlink:href="#m04fc07102b" y="60.454019"/>
     <use style="fill:#ff8c00;fill-opacity:0.8;stroke:#000000;stroke-linejoin:miter;stroke-opacity:0.8;" x="127.394565" xlink:href="#m04fc07102b" y="132.667256"/>
     <use style="fill:#ff8c00;fill-opacity:0.8;stroke:#000000;stroke-linejoin:miter;stroke-opacity:0.8;" x="133.377767" xlink:href="#m04fc07102b" y="89.629461"/>
     <use style="fill:#ff8c00;fill-opacity:0.8;stroke:#000000;stroke-linejoin:miter;stroke-opacity:0.8;" x="139.360968" xlink:href="#m04fc07102b" y="98.939747"/>
     <use style="fill:#ff8c00;fill-opacity:0.8;stroke:#000000;stroke-linejoin:miter;stroke-opacity:0.8;" x="145.34417" xlink:href="#m04fc07102b" y="142.365759"/>
     <use style="fill:#ff8c00;fill-opacity:0.8;stroke:#000000;stroke-linejoin:miter;stroke-opacity:0.8;" x="151.327372" xlink:href="#m04fc07102b" y="156.614124"/>
     <use style="fill:#ff8c00;fill-opacity:0.8;stroke:#000000;stroke-linejoin:miter;stroke-opacity:0.8;" x="157.310573" xlink:href="#m04fc07102b" y="127.158018"/>
     <use style="fill:#ff8c00;fill-opacity:0.8;stroke:#000000;stroke-linejoin:miter;stroke-opacity:0.8;" x="163.293775" xlink:href="#m04fc07102b" y="89.021523"/>
     <use style="fill:#ff8c00;fill-opacity:0.8;stroke:#000000;stroke-linejoin:miter;stroke-opacity:0.8;" x="169.276976" xlink:href="#m04fc07102b" y="120.290755"/>
     <use style="fill:#ff8c00;fill-opacity:0.8;stroke:#000000;stroke-linejoin:miter;stroke-opacity:0.8;" x="175.260178" xlink:href="#m04fc07102b" y="76.511967"/>
     <use style="fill:#ff8c00;fill-opacity:0.8;stroke:#000000;stroke-linejoin:miter;stroke-opacity:0.8;" x="181.243379" xlink:href="#m04fc07102b" y="117.171331"/>
     <use style="fill:#ff8c00;fill-opacity:0.8;stroke:#000000;stroke-linejoin:miter;stroke-opacity:0.8;" x="187.226581" xlink:href="#m04fc07102b" y="84.149615"/>
     <use style="fill:#ff8c00;fill-opacity:0.8;stroke:#000000;stroke-linejoin:miter;stroke-opacity:0.8;" x="193.209783" xlink:href="#m04fc07102b" y="121.35007"/>
     <use style="fill:#ff8c00;fill-opacity:0.8;stroke:#000000;stroke-linejoin:miter;stroke-opacity:0.8;" x="199.192984" xlink:href="#m04fc07102b" y="143.426298"/>
     <use style="fill:#ff8c00;fill-opacity:0.8;stroke:#000000;stroke-linejoin:miter;stroke-opacity:0.8;" x="205.176186" xlink:href="#m04fc07102b" y="147.681317"/>
     <use style="fill:#ff8c00;fill-opacity:0.8;stroke:#000000;stroke-linejoin:miter;stroke-opacity:0.8;" x="211.159387" xlink:href="#m04fc07102b" y="159.627714"/>
     <use style="fill:#ff8c00;fill-opacity:0.8;stroke:#000000;stroke-linejoin:miter;stroke-opacity:0.8;" x="217.142589" xlink:href="#m04fc07102b" y="150.436364"/>
     <use style="fill:#ff8c00;fill-opacity:0.8;stroke:#000000;stroke-linejoin:miter;stroke-opacity:0.8;" x="223.125791" xlink:href="#m04fc07102b" y="167.323892"/>
     <use style="fill:#ff8c00;fill-opacity:0.8;stroke:#000000;stroke-linejoin:miter;stroke-opacity:0.8;" x="229.108992" xlink:href="#m04fc07102b" y="160.628187"/>
     <use style="fill:#ff8c00;fill-opacity:0.8;stroke:#000000;stroke-linejoin:miter;stroke-opacity:0.8;" x="235.092194" xlink:href="#m04fc07102b" y="166.515071"/>
     <use style="fill:#ff8c00;fill-opacity:0.8;stroke:#000000;stroke-linejoin:miter;stroke-opacity:0.8;" x="241.075395" xlink:href="#m04fc07102b" y="153.989533"/>
     <use style="fill:#ff8c00;fill-opacity:0.8;stroke:#000000;stroke-linejoin:miter;stroke-opacity:0.8;" x="247.058597" xlink:href="#m04fc07102b" y="172.391688"/>
     <use style="fill:#ff8c00;fill-opacity:0.8;stroke:#000000;stroke-linejoin:miter;stroke-opacity:0.8;" x="253.041798" xlink:href="#m04fc07102b" y="162.469881"/>
     <use style="fill:#ff8c00;fill-opacity:0.8;stroke:#000000;stroke-linejoin:miter;stroke-opacity:0.8;" x="259.025" xlink:href="#m04fc07102b" y="175.172508"/>
     <use style="fill:#ff8c00;fill-opacity:0.8;stroke:#000000;stroke-linejoin:miter;stroke-opacity:0.8;" x="265.008202" xlink:href="#m04fc07102b" y="178.834361"/>
     <use style="fill:#ff8c00;fill-opacity:0.8;stroke:#000000;stroke-linejoin:miter;stroke-opacity:0.8;" x="270.991403" xlink:href="#m04fc07102b" y="187.124475"/>
     <use style="fill:#ff8c00;fill-opacity:0.8;stroke:#000000;stroke-linejoin:miter;stroke-opacity:0.8;" x="276.974605" xlink:href="#m04fc07102b" y="190.447697"/>
     <use style="fill:#ff8c00;fill-opacity:0.8;stroke:#000000;stroke-linejoin:miter;stroke-opacity:0.8;" x="282.957806" xlink:href="#m04fc07102b" y="192.540048"/>
     <use style="fill:#ff8c00;fill-opacity:0.8;stroke:#000000;stroke-linejoin:miter;stroke-opacity:0.8;" x="288.941008" xlink:href="#m04fc07102b" y="191.754301"/>
     <use style="fill:#ff8c00;fill-opacity:0.8;stroke:#000000;stroke-linejoin:miter;stroke-opacity:0.8;" x="294.924209" xlink:href="#m04fc07102b" y="193.355389"/>
     <use style="fill:#ff8c00;fill-opacity:0.8;stroke:#000000;stroke-linejoin:miter;stroke-opacity:0.8;" x="300.907411" xlink:href="#m04fc07102b" y="191.981971"/>
     <use style="fill:#ff8c00;fill-opacity:0.8;stroke:#000000;stroke-linejoin:miter;stroke-opacity:0.8;" x="306.890613" xlink:href="#m04fc07102b" y="194.501888"/>
     <use style="fill:#ff8c00;fill-opacity:0.8;stroke:#000000;stroke-linejoin:miter;stroke-opacity:0.8;" x="312.873814" xlink:href="#m04fc07102b" y="191.854874"/>
     <use style="fill:#ff8c00;fill-opacity:0.8;stroke:#000000;stroke-linejoin:miter;stroke-opacity:0.8;" x="318.857016" xlink:href="#m04fc07102b" y="191.315937"/>
     <use style="fill:#ff8c00;fill-opacity:0.8;stroke:#000000;stroke-linejoin:miter;stroke-opacity:0.8;" x="324.840217" xlink:href="#m04fc07102b" y="194.425959"/>
     <use style="fill:#ff8c00;fill-opacity:0.8;stroke:#000000;stroke-linejoin:miter;stroke-opacity:0.8;" x="330.823419" xlink:href="#m04fc07102b" y="193.582811"/>
     <use style="fill:#ff8c00;fill-opacity:0.8;stroke:#000000;stroke-linejoin:miter;stroke-opacity:0.8;" x="336.806621" xlink:href="#m04fc07102b" y="196.402543"/>
     <use style="fill:#ff8c00;fill-opacity:0.8;stroke:#000000;stroke-linejoin:miter;stroke-opacity:0.8;" x="342.789822" xlink:href="#m04fc07102b" y="195.60492"/>
     <use style="fill:#ff8c00;fill-opacity:0.8;stroke:#000000;stroke-linejoin:miter;stroke-opacity:0.8;" x="348.773024" xlink:href="#m04fc07102b" y="194.470847"/>
     <use style="fill:#ff8c00;fill-opacity:0.8;stroke:#000000;stroke-linejoin:miter;stroke-opacity:0.8;" x="354.756225" xlink:href="#m04fc07102b" y="187.748022"/>
     <use style="fill:#ff8c00;fill-opacity:0.8;stroke:#000000;stroke-linejoin:miter;stroke-opacity:0.8;" x="360.739427" xlink:href="#m04fc07102b" y="176.519414"/>
     <use style="fill:#ff8c00;fill-opacity:0.8;stroke:#000000;stroke-linejoin:miter;stroke-opacity:0.8;" x="366.722628" xlink:href="#m04fc07102b" y="172.478251"/>
     <use style="fill:#ff8c00;fill-opacity:0.8;stroke:#000000;stroke-linejoin:miter;stroke-opacity:0.8;" x="372.70583" xlink:href="#m04fc07102b" y="178.193862"/>
     <use style="fill:#ff8c00;fill-opacity:0.8;stroke:#000000;stroke-linejoin:miter;stroke-opacity:0.8;" x="378.689032" xlink:href="#m04fc07102b" y="179.242055"/>
     <use style="fill:#ff8c00;fill-opacity:0.8;stroke:#000000;stroke-linejoin:miter;stroke-opacity:0.8;" x="384.672233" xlink:href="#m04fc07102b" y="178.27855"/>
     <use style="fill:#ff8c00;fill-opacity:0.8;stroke:#000000;stroke-linejoin:miter;stroke-opacity:0.8;" x="390.655435" xlink:href="#m04fc07102b" y="178.972784"/>
     <use style="fill:#ff8c00;fill-opacity:0.8;stroke:#000000;stroke-linejoin:miter;stroke-opacity:0.8;" x="396.638636" xlink:href="#m04fc07102b" y="172.877536"/>
    </g>
   </g>
   <g id="line2d_10">
    <path clip-path="url(#p9ab701237c)" d="M 121.411364 60.454019 
L 127.394565 132.667256 
L 133.377767 89.629461 
L 139.360968 98.939747 
L 145.34417 142.365759 
L 151.327372 156.614124 
L 157.310573 127.158018 
L 163.293775 89.021523 
L 169.276976 120.290755 
L 175.260178 76.511967 
L 181.243379 117.171331 
L 187.226581 84.149615 
L 193.209783 121.35007 
L 199.192984 143.426298 
L 205.176186 147.681317 
L 211.159387 159.627714 
L 217.142589 150.436364 
L 223.125791 167.323892 
L 229.108992 160.628187 
L 235.092194 166.515071 
L 241.075395 153.989533 
L 247.058597 172.391688 
L 253.041798 162.469881 
L 259.025 175.172508 
L 265.008202 178.834361 
L 270.991403 187.124475 
L 276.974605 190.447697 
L 282.957806 192.540048 
L 288.941008 191.754301 
L 294.924209 193.355389 
L 300.907411 191.981971 
L 306.890613 194.501888 
L 312.873814 191.854874 
L 318.857016 191.315937 
L 324.840217 194.425959 
L 330.823419 193.582811 
L 336.806621 196.402543 
L 342.789822 195.60492 
L 348.773024 194.470847 
L 354.756225 187.748022 
L 360.739427 176.519414 
L 366.722628 172.478251 
L 372.70583 178.193862 
L 378.689032 179.242055 
L 384.672233 178.27855 
L 390.655435 178.972784 
L 396.638636 172.877536 
" style="fill:none;stroke:#ff8c00;stroke-linecap:square;stroke-width:0.7;"/>
   </g>
   <g id="line2d_11">
    <path clip-path="url(#p9ab701237c)" d="M 121.411364 90.656221 
L 127.394565 154.325137 
L 133.377767 117.899839 
L 139.360968 126.752801 
L 145.34417 161.569421 
L 151.327372 174.558882 
L 157.310573 152.76427 
L 163.293775 121.735276 
L 169.276976 147.390838 
L 175.260178 106.451704 
L 181.243379 144.052545 
L 187.226581 114.998086 
L 193.209783 149.489261 
L 199.192984 166.240932 
L 205.176186 169.504267 
L 211.159387 178.142747 
L 217.142589 171.963186 
L 223.125791 183.895738 
L 229.108992 180.372379 
L 235.092194 182.803835 
L 241.075395 172.352394 
L 247.058597 185.402524 
L 253.041798 178.338016 
L 259.025 187.541289 
L 265.008202 189.980698 
L 270.991403 194.998675 
L 276.974605 197.042432 
L 282.957806 198.21528 
L 288.941008 197.764554 
L 294.924209 198.671465 
L 300.907411 197.802418 
L 306.890613 199.218354 
L 312.873814 197.410952 
L 318.857016 196.924599 
L 324.840217 198.90794 
L 330.823419 198.481651 
L 336.806621 200.250134 
L 342.789822 199.803918 
L 348.773024 199.094015 
L 354.756225 194.843748 
L 360.739427 187.242946 
L 366.722628 183.806239 
L 372.70583 187.917159 
L 378.689032 188.735041 
L 384.672233 187.797668 
L 390.655435 188.74188 
L 396.638636 185.094926 
" style="fill:none;stroke:#ff8c00;stroke-dasharray:1.85,0.8;stroke-dashoffset:0;stroke-width:0.5;"/>
   </g>
   <g id="line2d_12">
    <path clip-path="url(#p9ab701237c)" d="M 121.411364 30.251818 
L 127.394565 111.009375 
L 133.377767 61.359082 
L 139.360968 71.126692 
L 145.34417 123.162098 
L 151.327372 138.669365 
L 157.310573 101.551765 
L 163.293775 56.30777 
L 169.276976 93.190672 
L 175.260178 46.57223 
L 181.243379 90.290118 
L 187.226581 53.301143 
L 193.209783 93.21088 
L 199.192984 120.611663 
L 205.176186 125.858367 
L 211.159387 141.112682 
L 217.142589 128.909542 
L 223.125791 150.752046 
L 229.108992 140.883995 
L 235.092194 150.226306 
L 241.075395 135.626672 
L 247.058597 159.380851 
L 253.041798 146.601747 
L 259.025 162.803728 
L 265.008202 167.688024 
L 270.991403 179.250276 
L 276.974605 183.852962 
L 282.957806 186.864816 
L 288.941008 185.744049 
L 294.924209 188.039313 
L 300.907411 186.161525 
L 306.890613 189.785421 
L 312.873814 186.298795 
L 318.857016 185.707275 
L 324.840217 189.943978 
L 330.823419 188.683972 
L 336.806621 192.554952 
L 342.789822 191.405922 
L 348.773024 189.84768 
L 354.756225 180.652295 
L 360.739427 165.795882 
L 366.722628 161.150264 
L 372.70583 168.470565 
L 378.689032 169.74907 
L 384.672233 168.759432 
L 390.655435 169.203687 
L 396.638636 160.660147 
" style="fill:none;stroke:#ff8c00;stroke-dasharray:1.85,0.8;stroke-dashoffset:0;stroke-width:0.5;"/>
   </g>
   <g id="line2d_13">
    <path clip-path="url(#p9ab701237c)" d="M 121.411364 148.322928 
L 127.394565 174.119378 
L 133.377767 162.840165 
L 139.360968 164.758154 
L 145.34417 175.527908 
L 151.327372 180.984276 
L 157.310573 160.098572 
L 163.293775 162.889509 
L 169.276976 163.279614 
L 175.260178 169.176567 
L 181.243379 146.027326 
L 187.226581 159.369123 
L 193.209783 146.116642 
L 199.192984 159.592316 
L 205.176186 141.868427 
L 211.159387 160.453241 
L 217.142589 143.789732 
L 223.125791 164.936287 
L 229.108992 138.242346 
L 235.092194 167.724507 
L 241.075395 161.224596 
L 247.058597 183.503652 
L 253.041798 171.543545 
L 259.025 182.030454 
L 265.008202 182.063613 
L 270.991403 190.649538 
L 276.974605 190.903668 
L 282.957806 195.539998 
L 288.941008 195.10793 
L 294.924209 195.808458 
L 300.907411 196.193467 
L 306.890613 198.677525 
L 312.873814 197.027835 
L 318.857016 197.145494 
L 324.840217 198.615958 
L 330.823419 197.898311 
L 336.806621 200.375569 
L 342.789822 199.636283 
L 348.773024 198.884253 
L 354.756225 194.743361 
L 360.739427 190.53185 
L 366.722628 192.08261 
L 372.70583 193.513488 
L 378.689032 192.445411 
L 384.672233 193.415948 
L 390.655435 191.452214 
L 396.638636 187.60711 
" style="fill:none;stroke:#808080;stroke-linecap:square;stroke-opacity:0.8;stroke-width:0.7;"/>
    <defs>
     <path d="M 0 -2.5 
L -2.5 2.5 
L 2.5 2.5 
z
" id="m880425d259" style="stroke:#000000;stroke-linejoin:miter;stroke-opacity:0.8;"/>
    </defs>
    <g clip-path="url(#p9ab701237c)">
     <use style="fill:#808080;fill-opacity:0.8;stroke:#000000;stroke-linejoin:miter;stroke-opacity:0.8;" x="121.411364" xlink:href="#m880425d259" y="148.322928"/>
     <use style="fill:#808080;fill-opacity:0.8;stroke:#000000;stroke-linejoin:miter;stroke-opacity:0.8;" x="127.394565" xlink:href="#m880425d259" y="174.119378"/>
     <use style="fill:#808080;fill-opacity:0.8;stroke:#000000;stroke-linejoin:miter;stroke-opacity:0.8;" x="133.377767" xlink:href="#m880425d259" y="162.840165"/>
     <use style="fill:#808080;fill-opacity:0.8;stroke:#000000;stroke-linejoin:miter;stroke-opacity:0.8;" x="139.360968" xlink:href="#m880425d259" y="164.758154"/>
     <use style="fill:#808080;fill-opacity:0.8;stroke:#000000;stroke-linejoin:miter;stroke-opacity:0.8;" x="145.34417" xlink:href="#m880425d259" y="175.527908"/>
     <use style="fill:#808080;fill-opacity:0.8;stroke:#000000;stroke-linejoin:miter;stroke-opacity:0.8;" x="151.327372" xlink:href="#m880425d259" y="180.984276"/>
     <use style="fill:#808080;fill-opacity:0.8;stroke:#000000;stroke-linejoin:miter;stroke-opacity:0.8;" x="157.310573" xlink:href="#m880425d259" y="160.098572"/>
     <use style="fill:#808080;fill-opacity:0.8;stroke:#000000;stroke-linejoin:miter;stroke-opacity:0.8;" x="163.293775" xlink:href="#m880425d259" y="162.889509"/>
     <use style="fill:#808080;fill-opacity:0.8;stroke:#000000;stroke-linejoin:miter;stroke-opacity:0.8;" x="169.276976" xlink:href="#m880425d259" y="163.279614"/>
     <use style="fill:#808080;fill-opacity:0.8;stroke:#000000;stroke-linejoin:miter;stroke-opacity:0.8;" x="175.260178" xlink:href="#m880425d259" y="169.176567"/>
     <use style="fill:#808080;fill-opacity:0.8;stroke:#000000;stroke-linejoin:miter;stroke-opacity:0.8;" x="181.243379" xlink:href="#m880425d259" y="146.027326"/>
     <use style="fill:#808080;fill-opacity:0.8;stroke:#000000;stroke-linejoin:miter;stroke-opacity:0.8;" x="187.226581" xlink:href="#m880425d259" y="159.369123"/>
     <use style="fill:#808080;fill-opacity:0.8;stroke:#000000;stroke-linejoin:miter;stroke-opacity:0.8;" x="193.209783" xlink:href="#m880425d259" y="146.116642"/>
     <use style="fill:#808080;fill-opacity:0.8;stroke:#000000;stroke-linejoin:miter;stroke-opacity:0.8;" x="199.192984" xlink:href="#m880425d259" y="159.592316"/>
     <use style="fill:#808080;fill-opacity:0.8;stroke:#000000;stroke-linejoin:miter;stroke-opacity:0.8;" x="205.176186" xlink:href="#m880425d259" y="141.868427"/>
     <use style="fill:#808080;fill-opacity:0.8;stroke:#000000;stroke-linejoin:miter;stroke-opacity:0.8;" x="211.159387" xlink:href="#m880425d259" y="160.453241"/>
     <use style="fill:#808080;fill-opacity:0.8;stroke:#000000;stroke-linejoin:miter;stroke-opacity:0.8;" x="217.142589" xlink:href="#m880425d259" y="143.789732"/>
     <use style="fill:#808080;fill-opacity:0.8;stroke:#000000;stroke-linejoin:miter;stroke-opacity:0.8;" x="223.125791" xlink:href="#m880425d259" y="164.936287"/>
     <use style="fill:#808080;fill-opacity:0.8;stroke:#000000;stroke-linejoin:miter;stroke-opacity:0.8;" x="229.108992" xlink:href="#m880425d259" y="138.242346"/>
     <use style="fill:#808080;fill-opacity:0.8;stroke:#000000;stroke-linejoin:miter;stroke-opacity:0.8;" x="235.092194" xlink:href="#m880425d259" y="167.724507"/>
     <use style="fill:#808080;fill-opacity:0.8;stroke:#000000;stroke-linejoin:miter;stroke-opacity:0.8;" x="241.075395" xlink:href="#m880425d259" y="161.224596"/>
     <use style="fill:#808080;fill-opacity:0.8;stroke:#000000;stroke-linejoin:miter;stroke-opacity:0.8;" x="247.058597" xlink:href="#m880425d259" y="183.503652"/>
     <use style="fill:#808080;fill-opacity:0.8;stroke:#000000;stroke-linejoin:miter;stroke-opacity:0.8;" x="253.041798" xlink:href="#m880425d259" y="171.543545"/>
     <use style="fill:#808080;fill-opacity:0.8;stroke:#000000;stroke-linejoin:miter;stroke-opacity:0.8;" x="259.025" xlink:href="#m880425d259" y="182.030454"/>
     <use style="fill:#808080;fill-opacity:0.8;stroke:#000000;stroke-linejoin:miter;stroke-opacity:0.8;" x="265.008202" xlink:href="#m880425d259" y="182.063613"/>
     <use style="fill:#808080;fill-opacity:0.8;stroke:#000000;stroke-linejoin:miter;stroke-opacity:0.8;" x="270.991403" xlink:href="#m880425d259" y="190.649538"/>
     <use style="fill:#808080;fill-opacity:0.8;stroke:#000000;stroke-linejoin:miter;stroke-opacity:0.8;" x="276.974605" xlink:href="#m880425d259" y="190.903668"/>
     <use style="fill:#808080;fill-opacity:0.8;stroke:#000000;stroke-linejoin:miter;stroke-opacity:0.8;" x="282.957806" xlink:href="#m880425d259" y="195.539998"/>
     <use style="fill:#808080;fill-opacity:0.8;stroke:#000000;stroke-linejoin:miter;stroke-opacity:0.8;" x="288.941008" xlink:href="#m880425d259" y="195.10793"/>
     <use style="fill:#808080;fill-opacity:0.8;stroke:#000000;stroke-linejoin:miter;stroke-opacity:0.8;" x="294.924209" xlink:href="#m880425d259" y="195.808458"/>
     <use style="fill:#808080;fill-opacity:0.8;stroke:#000000;stroke-linejoin:miter;stroke-opacity:0.8;" x="300.907411" xlink:href="#m880425d259" y="196.193467"/>
     <use style="fill:#808080;fill-opacity:0.8;stroke:#000000;stroke-linejoin:miter;stroke-opacity:0.8;" x="306.890613" xlink:href="#m880425d259" y="198.677525"/>
     <use style="fill:#808080;fill-opacity:0.8;stroke:#000000;stroke-linejoin:miter;stroke-opacity:0.8;" x="312.873814" xlink:href="#m880425d259" y="197.027835"/>
     <use style="fill:#808080;fill-opacity:0.8;stroke:#000000;stroke-linejoin:miter;stroke-opacity:0.8;" x="318.857016" xlink:href="#m880425d259" y="197.145494"/>
     <use style="fill:#808080;fill-opacity:0.8;stroke:#000000;stroke-linejoin:miter;stroke-opacity:0.8;" x="324.840217" xlink:href="#m880425d259" y="198.615958"/>
     <use style="fill:#808080;fill-opacity:0.8;stroke:#000000;stroke-linejoin:miter;stroke-opacity:0.8;" x="330.823419" xlink:href="#m880425d259" y="197.898311"/>
     <use style="fill:#808080;fill-opacity:0.8;stroke:#000000;stroke-linejoin:miter;stroke-opacity:0.8;" x="336.806621" xlink:href="#m880425d259" y="200.375569"/>
     <use style="fill:#808080;fill-opacity:0.8;stroke:#000000;stroke-linejoin:miter;stroke-opacity:0.8;" x="342.789822" xlink:href="#m880425d259" y="199.636283"/>
     <use style="fill:#808080;fill-opacity:0.8;stroke:#000000;stroke-linejoin:miter;stroke-opacity:0.8;" x="348.773024" xlink:href="#m880425d259" y="198.884253"/>
     <use style="fill:#808080;fill-opacity:0.8;stroke:#000000;stroke-linejoin:miter;stroke-opacity:0.8;" x="354.756225" xlink:href="#m880425d259" y="194.743361"/>
     <use style="fill:#808080;fill-opacity:0.8;stroke:#000000;stroke-linejoin:miter;stroke-opacity:0.8;" x="360.739427" xlink:href="#m880425d259" y="190.53185"/>
     <use style="fill:#808080;fill-opacity:0.8;stroke:#000000;stroke-linejoin:miter;stroke-opacity:0.8;" x="366.722628" xlink:href="#m880425d259" y="192.08261"/>
     <use style="fill:#808080;fill-opacity:0.8;stroke:#000000;stroke-linejoin:miter;stroke-opacity:0.8;" x="372.70583" xlink:href="#m880425d259" y="193.513488"/>
     <use style="fill:#808080;fill-opacity:0.8;stroke:#000000;stroke-linejoin:miter;stroke-opacity:0.8;" x="378.689032" xlink:href="#m880425d259" y="192.445411"/>
     <use style="fill:#808080;fill-opacity:0.8;stroke:#000000;stroke-linejoin:miter;stroke-opacity:0.8;" x="384.672233" xlink:href="#m880425d259" y="193.415948"/>
     <use style="fill:#808080;fill-opacity:0.8;stroke:#000000;stroke-linejoin:miter;stroke-opacity:0.8;" x="390.655435" xlink:href="#m880425d259" y="191.452214"/>
     <use style="fill:#808080;fill-opacity:0.8;stroke:#000000;stroke-linejoin:miter;stroke-opacity:0.8;" x="396.638636" xlink:href="#m880425d259" y="187.60711"/>
    </g>
   </g>
   <g id="line2d_14">
    <path clip-path="url(#p9ab701237c)" d="M 121.411364 148.322928 
L 127.394565 174.119378 
L 133.377767 162.840165 
L 139.360968 164.758154 
L 145.34417 175.527908 
L 151.327372 180.984276 
L 157.310573 160.098572 
L 163.293775 162.889509 
L 169.276976 163.279614 
L 175.260178 169.176567 
L 181.243379 146.027326 
L 187.226581 159.369123 
L 193.209783 146.116642 
L 199.192984 159.592316 
L 205.176186 141.868427 
L 211.159387 160.453241 
L 217.142589 143.789732 
L 223.125791 164.936287 
L 229.108992 138.242346 
L 235.092194 167.724507 
L 241.075395 161.224596 
L 247.058597 183.503652 
L 253.041798 171.543545 
L 259.025 182.030454 
L 265.008202 182.063613 
L 270.991403 190.649538 
L 276.974605 190.903668 
L 282.957806 195.539998 
L 288.941008 195.10793 
L 294.924209 195.808458 
L 300.907411 196.193467 
L 306.890613 198.677525 
L 312.873814 197.027835 
L 318.857016 197.145494 
L 324.840217 198.615958 
L 330.823419 197.898311 
L 336.806621 200.375569 
L 342.789822 199.636283 
L 348.773024 198.884253 
L 354.756225 194.743361 
L 360.739427 190.53185 
L 366.722628 192.08261 
L 372.70583 193.513488 
L 378.689032 192.445411 
L 384.672233 193.415948 
L 390.655435 191.452214 
L 396.638636 187.60711 
" style="fill:none;stroke:#808080;stroke-linecap:square;stroke-width:0.7;"/>
   </g>
   <g id="line2d_15">
    <path clip-path="url(#p9ab701237c)" d="M 121.411364 169.225648 
L 127.394565 190.449118 
L 133.377767 183.895072 
L 139.360968 183.957288 
L 145.34417 192.330193 
L 151.327372 193.731967 
L 157.310573 181.422239 
L 163.293775 183.538501 
L 169.276976 183.685435 
L 175.260178 186.900579 
L 181.243379 169.457238 
L 187.226581 179.784105 
L 193.209783 169.500673 
L 199.192984 179.328234 
L 205.176186 167.273501 
L 211.159387 180.113612 
L 217.142589 167.907803 
L 223.125791 182.825572 
L 229.108992 163.977087 
L 235.092194 184.401317 
L 241.075395 179.781494 
L 247.058597 193.964546 
L 253.041798 186.80855 
L 259.025 193.2288 
L 265.008202 193.015628 
L 270.991403 197.991014 
L 276.974605 198.124438 
L 282.957806 200.584789 
L 288.941008 200.359312 
L 294.924209 200.746964 
L 300.907411 200.945771 
L 306.890613 202.322481 
L 312.873814 201.52005 
L 318.857016 201.665803 
L 324.840217 202.419285 
L 330.823419 202.009353 
L 336.806621 203.288182 
L 342.789822 202.857464 
L 348.773024 202.475488 
L 354.756225 200.345134 
L 360.739427 198.296402 
L 366.722628 199.607086 
L 372.70583 200.083311 
L 378.689032 199.3263 
L 384.672233 200.026305 
L 390.655435 198.718551 
L 396.638636 196.574754 
" style="fill:none;stroke:#808080;stroke-dasharray:1.85,0.8;stroke-dashoffset:0;stroke-width:0.5;"/>
   </g>
   <g id="line2d_16">
    <path clip-path="url(#p9ab701237c)" d="M 121.411364 127.420207 
L 127.394565 157.789638 
L 133.377767 141.785258 
L 139.360968 145.55902 
L 145.34417 158.725624 
L 151.327372 168.236585 
L 157.310573 138.774904 
L 163.293775 142.240518 
L 169.276976 142.873793 
L 175.260178 151.452555 
L 181.243379 122.597415 
L 187.226581 138.954142 
L 193.209783 122.732612 
L 199.192984 139.856397 
L 205.176186 116.463353 
L 211.159387 140.79287 
L 217.142589 119.671661 
L 223.125791 147.047002 
L 229.108992 112.507606 
L 235.092194 151.047697 
L 241.075395 142.667698 
L 247.058597 173.042758 
L 253.041798 156.278541 
L 259.025 170.832109 
L 265.008202 171.111597 
L 270.991403 183.308063 
L 276.974605 183.682898 
L 282.957806 190.495207 
L 288.941008 189.856549 
L 294.924209 190.869951 
L 300.907411 191.441162 
L 306.890613 195.032569 
L 312.873814 192.53562 
L 318.857016 192.625185 
L 324.840217 194.812631 
L 330.823419 193.787269 
L 336.806621 197.462956 
L 342.789822 196.415102 
L 348.773024 195.293019 
L 354.756225 189.141588 
L 360.739427 182.767298 
L 366.722628 184.558135 
L 372.70583 186.943664 
L 378.689032 185.564522 
L 384.672233 186.805591 
L 390.655435 184.185877 
L 396.638636 178.639466 
" style="fill:none;stroke:#808080;stroke-dasharray:1.85,0.8;stroke-dashoffset:0;stroke-width:0.5;"/>
   </g>
   <g id="patch_3">
    <path d="M 107.65 211.94 
L 107.65 21.6 
" style="fill:none;stroke:#000000;stroke-linecap:square;stroke-linejoin:miter;stroke-width:0.8;"/>
   </g>
   <g id="patch_4">
    <path d="M 107.65 211.94 
L 410.4 211.94 
" style="fill:none;stroke:#000000;stroke-linecap:square;stroke-linejoin:miter;stroke-width:0.8;"/>
   </g>
   <g id="legend_1">
    <g id="patch_5">
     <path d="M 121.65 94.63125 
L 269.015625 94.63125 
Q 273.015625 94.63125 273.015625 90.63125 
L 273.015625 35.6 
Q 273.015625 31.6 269.015625 31.6 
L 121.65 31.6 
Q 117.65 31.6 117.65 35.6 
L 117.65 90.63125 
Q 117.65 94.63125 121.65 94.63125 
z
" style="fill:#ffffff;opacity:0.8;stroke:#cccccc;stroke-linejoin:miter;"/>
    </g>
    <g id="line2d_17">
     <path d="M 125.65 46.946875 
L 165.65 46.946875 
" style="fill:none;stroke:#ff8c00;stroke-linecap:square;stroke-opacity:0.8;stroke-width:0.7;"/>
    </g>
    <g id="line2d_18">
     <g>
      <use style="fill:#ff8c00;fill-opacity:0.8;stroke:#000000;stroke-linejoin:miter;stroke-opacity:0.8;" x="145.65" xlink:href="#m04fc07102b" y="46.946875"/>
     </g>
    </g>
    <g id="text_11">
     <!-- Class 0.0 -->
     <g transform="translate(181.65 53.946875)scale(0.2 -0.2)">
      <defs>
       <path d="M 2422 4716 
Q 3294 4716 3775 4256 
Q 4256 3797 4309 3213 
L 3703 3213 
Q 3600 3656 3292 3915 
Q 2984 4175 2428 4175 
Q 1750 4175 1333 3698 
Q 916 3222 916 2238 
Q 916 1431 1292 929 
Q 1669 428 2416 428 
Q 3103 428 3463 956 
Q 3653 1234 3747 1688 
L 4353 1688 
Q 4272 963 3816 472 
Q 3269 -119 2341 -119 
Q 1541 -119 997 366 
Q 281 1006 281 2344 
Q 281 3359 819 4009 
Q 1400 4716 2422 4716 
z
M 2297 4716 
L 2297 4716 
z
" id="Helvetica-43" transform="scale(0.015625)"/>
       <path d="M 428 4591 
L 991 4591 
L 991 0 
L 428 0 
L 428 4591 
z
" id="Helvetica-6c" transform="scale(0.015625)"/>
      </defs>
      <use xlink:href="#Helvetica-43"/>
      <use x="72.216797" xlink:href="#Helvetica-6c"/>
      <use x="94.433594" xlink:href="#Helvetica-61"/>
      <use x="150.048828" xlink:href="#Helvetica-73"/>
      <use x="200.048828" xlink:href="#Helvetica-73"/>
      <use x="250.048828" xlink:href="#Helvetica-20"/>
      <use x="277.832031" xlink:href="#Helvetica-30"/>
      <use x="333.447266" xlink:href="#Helvetica-2e"/>
      <use x="361.230469" xlink:href="#Helvetica-30"/>
     </g>
    </g>
    <g id="line2d_19">
     <path d="M 125.65 75.4625 
L 165.65 75.4625 
" style="fill:none;stroke:#808080;stroke-linecap:square;stroke-opacity:0.8;stroke-width:0.7;"/>
    </g>
    <g id="line2d_20">
     <g>
      <use style="fill:#808080;fill-opacity:0.8;stroke:#000000;stroke-linejoin:miter;stroke-opacity:0.8;" x="145.65" xlink:href="#m880425d259" y="75.4625"/>
     </g>
    </g>
    <g id="text_12">
     <!-- Class 1.0 -->
     <g transform="translate(181.65 82.4625)scale(0.2 -0.2)">
      <use xlink:href="#Helvetica-43"/>
      <use x="72.216797" xlink:href="#Helvetica-6c"/>
      <use x="94.433594" xlink:href="#Helvetica-61"/>
      <use x="150.048828" xlink:href="#Helvetica-73"/>
      <use x="200.048828" xlink:href="#Helvetica-73"/>
      <use x="250.048828" xlink:href="#Helvetica-20"/>
      <use x="277.832031" xlink:href="#Helvetica-31"/>
      <use x="333.447266" xlink:href="#Helvetica-2e"/>
      <use x="361.230469" xlink:href="#Helvetica-30"/>
     </g>
    </g>
   </g>
  </g>
 </g>
 <defs>
  <clipPath id="p9ab701237c">
   <rect height="190.34" width="302.75" x="107.65" y="21.6"/>
  </clipPath>
 </defs>
</svg>
