<?xml version="1.0" encoding="utf-8" standalone="no"?>
<!DOCTYPE svg PUBLIC "-//W3C//DTD SVG 1.1//EN"
  "http://www.w3.org/Graphics/SVG/1.1/DTD/svg11.dtd">
<svg height="288pt" version="1.1" viewBox="0 0 432 288" width="432pt" xmlns="http://www.w3.org/2000/svg" xmlns:xlink="http://www.w3.org/1999/xlink">
 <metadata>
  <rdf:RDF xmlns:cc="http://creativecommons.org/ns#" xmlns:dc="http://purl.org/dc/elements/1.1/" xmlns:rdf="http://www.w3.org/1999/02/22-rdf-syntax-ns#">
   <cc:Work>
    <dc:type rdf:resource="http://purl.org/dc/dcmitype/StillImage"/>
    <dc:date>2022-12-20T02:58:09.066725</dc:date>
    <dc:format>image/svg+xml</dc:format>
    <dc:creator>
     <cc:Agent>
      <dc:title>Matplotlib v3.4.2, https://matplotlib.org/</dc:title>
     </cc:Agent>
    </dc:creator>
   </cc:Work>
  </rdf:RDF>
 </metadata>
 <defs>
  <style type="text/css">*{stroke-linecap:butt;stroke-linejoin:round;}</style>
 </defs>
 <g id="figure_1">
  <g id="patch_1">
   <path d="M 0 288 
L 432 288 
L 432 0 
L 0 0 
z
" style="fill:#ffffff;"/>
  </g>
  <g id="axes_1">
   <g id="patch_2">
    <path d="M 85.39 211.94 
L 410.4 211.94 
L 410.4 21.6 
L 85.39 21.6 
z
" style="fill:#ffffff;"/>
   </g>
   <g id="matplotlib.axis_1">
    <g id="xtick_1">
     <g id="line2d_1">
      <path clip-path="url(#pbfb159fac8)" d="M 100.163182 211.94 
L 100.163182 21.6 
" style="fill:none;stroke:#cccccc;stroke-linecap:round;stroke-width:0.8;"/>
     </g>
     <g id="text_1">
      <!-- 0 -->
      <g style="fill:#262626;" transform="translate(94.602244 239.786875)scale(0.2 -0.2)">
       <defs>
        <path d="M 1731 4475 
Q 2600 4475 2988 3759 
Q 3288 3206 3288 2244 
Q 3288 1331 3016 734 
Q 2622 -122 1728 -122 
Q 922 -122 528 578 
Q 200 1163 200 2147 
Q 200 2909 397 3456 
Q 766 4475 1731 4475 
z
M 1725 391 
Q 2163 391 2422 778 
Q 2681 1166 2681 2222 
Q 2681 2984 2493 3476 
Q 2306 3969 1766 3969 
Q 1269 3969 1039 3501 
Q 809 3034 809 2125 
Q 809 1441 956 1025 
Q 1181 391 1725 391 
z
" id="Helvetica-30" transform="scale(0.015625)"/>
       </defs>
       <use xlink:href="#Helvetica-30"/>
      </g>
     </g>
    </g>
    <g id="xtick_2">
     <g id="line2d_2">
      <path clip-path="url(#pbfb159fac8)" d="M 255.670359 211.94 
L 255.670359 21.6 
" style="fill:none;stroke:#cccccc;stroke-linecap:round;stroke-width:0.8;"/>
     </g>
     <g id="text_2">
      <!-- 10 -->
      <g style="fill:#262626;" transform="translate(244.548484 239.786875)scale(0.2 -0.2)">
       <defs>
        <path d="M 613 3169 
L 613 3600 
Q 1222 3659 1462 3798 
Q 1703 3938 1822 4456 
L 2266 4456 
L 2266 0 
L 1666 0 
L 1666 3169 
L 613 3169 
z
" id="Helvetica-31" transform="scale(0.015625)"/>
       </defs>
       <use xlink:href="#Helvetica-31"/>
       <use x="55.615234" xlink:href="#Helvetica-30"/>
      </g>
     </g>
    </g>
    <g id="text_3">
     <!-- Position -->
     <g style="fill:#262626;" transform="translate(212.32 262.3025)scale(0.2 -0.2)">
      <defs>
       <path d="M 547 4591 
L 2613 4591 
Q 3225 4591 3600 4245 
Q 3975 3900 3975 3275 
Q 3975 2738 3640 2339 
Q 3306 1941 2613 1941 
L 1169 1941 
L 1169 0 
L 547 0 
L 547 4591 
z
M 3347 3272 
Q 3347 3778 2972 3959 
Q 2766 4056 2406 4056 
L 1169 4056 
L 1169 2466 
L 2406 2466 
Q 2825 2466 3086 2644 
Q 3347 2822 3347 3272 
z
" id="Helvetica-50" transform="scale(0.015625)"/>
       <path d="M 1741 363 
Q 2300 363 2508 786 
Q 2716 1209 2716 1728 
Q 2716 2197 2566 2491 
Q 2328 2953 1747 2953 
Q 1231 2953 997 2559 
Q 763 2166 763 1609 
Q 763 1075 997 719 
Q 1231 363 1741 363 
z
M 1763 3444 
Q 2409 3444 2856 3012 
Q 3303 2581 3303 1744 
Q 3303 934 2909 406 
Q 2516 -122 1688 -122 
Q 997 -122 590 345 
Q 184 813 184 1600 
Q 184 2444 612 2944 
Q 1041 3444 1763 3444 
z
M 1744 3428 
L 1744 3428 
z
" id="Helvetica-6f" transform="scale(0.015625)"/>
       <path d="M 747 1050 
Q 772 769 888 619 
Q 1100 347 1625 347 
Q 1938 347 2175 483 
Q 2413 619 2413 903 
Q 2413 1119 2222 1231 
Q 2100 1300 1741 1391 
L 1294 1503 
Q 866 1609 663 1741 
Q 300 1969 300 2372 
Q 300 2847 642 3140 
Q 984 3434 1563 3434 
Q 2319 3434 2653 2991 
Q 2863 2709 2856 2384 
L 2325 2384 
Q 2309 2575 2191 2731 
Q 1997 2953 1519 2953 
Q 1200 2953 1036 2831 
Q 872 2709 872 2509 
Q 872 2291 1088 2159 
Q 1213 2081 1456 2022 
L 1828 1931 
Q 2434 1784 2641 1647 
Q 2969 1431 2969 969 
Q 2969 522 2630 197 
Q 2291 -128 1597 -128 
Q 850 -128 539 211 
Q 228 550 206 1050 
L 747 1050 
z
M 1578 3428 
L 1578 3428 
z
" id="Helvetica-73" transform="scale(0.015625)"/>
       <path d="M 413 3331 
L 984 3331 
L 984 0 
L 413 0 
L 413 3331 
z
M 413 4591 
L 984 4591 
L 984 3953 
L 413 3953 
L 413 4591 
z
" id="Helvetica-69" transform="scale(0.015625)"/>
       <path d="M 525 4281 
L 1094 4281 
L 1094 3347 
L 1628 3347 
L 1628 2888 
L 1094 2888 
L 1094 703 
Q 1094 528 1213 469 
Q 1278 434 1431 434 
Q 1472 434 1519 436 
Q 1566 438 1628 444 
L 1628 0 
Q 1531 -28 1426 -40 
Q 1322 -53 1200 -53 
Q 806 -53 665 148 
Q 525 350 525 672 
L 525 2888 
L 72 2888 
L 72 3347 
L 525 3347 
L 525 4281 
z
" id="Helvetica-74" transform="scale(0.015625)"/>
       <path d="M 413 3347 
L 947 3347 
L 947 2872 
Q 1184 3166 1450 3294 
Q 1716 3422 2041 3422 
Q 2753 3422 3003 2925 
Q 3141 2653 3141 2147 
L 3141 0 
L 2569 0 
L 2569 2109 
Q 2569 2416 2478 2603 
Q 2328 2916 1934 2916 
Q 1734 2916 1606 2875 
Q 1375 2806 1200 2600 
Q 1059 2434 1017 2257 
Q 975 2081 975 1753 
L 975 0 
L 413 0 
L 413 3347 
z
M 1734 3428 
L 1734 3428 
z
" id="Helvetica-6e" transform="scale(0.015625)"/>
      </defs>
      <use xlink:href="#Helvetica-50"/>
      <use x="66.699219" xlink:href="#Helvetica-6f"/>
      <use x="122.314453" xlink:href="#Helvetica-73"/>
      <use x="172.314453" xlink:href="#Helvetica-69"/>
      <use x="194.53125" xlink:href="#Helvetica-74"/>
      <use x="222.314453" xlink:href="#Helvetica-69"/>
      <use x="244.53125" xlink:href="#Helvetica-6f"/>
      <use x="300.146484" xlink:href="#Helvetica-6e"/>
     </g>
    </g>
   </g>
   <g id="matplotlib.axis_2">
    <g id="ytick_1">
     <g id="line2d_3">
      <path clip-path="url(#pbfb159fac8)" d="M 85.39 208.179756 
L 410.4 208.179756 
" style="fill:none;stroke:#cccccc;stroke-linecap:round;stroke-width:0.8;"/>
     </g>
     <g id="text_4">
      <!-- 0.0 -->
      <g style="fill:#262626;" transform="translate(44.09 215.353193)scale(0.2 -0.2)">
       <defs>
        <path d="M 547 681 
L 1200 681 
L 1200 0 
L 547 0 
L 547 681 
z
" id="Helvetica-2e" transform="scale(0.015625)"/>
       </defs>
       <use xlink:href="#Helvetica-30"/>
       <use x="55.615234" xlink:href="#Helvetica-2e"/>
       <use x="83.398438" xlink:href="#Helvetica-30"/>
      </g>
     </g>
    </g>
    <g id="ytick_2">
     <g id="line2d_4">
      <path clip-path="url(#pbfb159fac8)" d="M 85.39 153.225597 
L 410.4 153.225597 
" style="fill:none;stroke:#cccccc;stroke-linecap:round;stroke-width:0.8;"/>
     </g>
     <g id="text_5">
      <!-- 0.2 -->
      <g style="fill:#262626;" transform="translate(44.09 160.399034)scale(0.2 -0.2)">
       <defs>
        <path d="M 200 0 
Q 231 578 439 1006 
Q 647 1434 1250 1784 
L 1850 2131 
Q 2253 2366 2416 2531 
Q 2672 2791 2672 3125 
Q 2672 3516 2437 3745 
Q 2203 3975 1813 3975 
Q 1234 3975 1013 3538 
Q 894 3303 881 2888 
L 309 2888 
Q 319 3472 525 3841 
Q 891 4491 1816 4491 
Q 2584 4491 2939 4075 
Q 3294 3659 3294 3150 
Q 3294 2613 2916 2231 
Q 2697 2009 2131 1694 
L 1703 1456 
Q 1397 1288 1222 1134 
Q 909 863 828 531 
L 3272 531 
L 3272 0 
L 200 0 
z
" id="Helvetica-32" transform="scale(0.015625)"/>
       </defs>
       <use xlink:href="#Helvetica-30"/>
       <use x="55.615234" xlink:href="#Helvetica-2e"/>
       <use x="83.398438" xlink:href="#Helvetica-32"/>
      </g>
     </g>
    </g>
    <g id="ytick_3">
     <g id="line2d_5">
      <path clip-path="url(#pbfb159fac8)" d="M 85.39 98.271438 
L 410.4 98.271438 
" style="fill:none;stroke:#cccccc;stroke-linecap:round;stroke-width:0.8;"/>
     </g>
     <g id="text_6">
      <!-- 0.4 -->
      <g style="fill:#262626;" transform="translate(44.09 105.444876)scale(0.2 -0.2)">
       <defs>
        <path d="M 2116 1584 
L 2116 3613 
L 681 1584 
L 2116 1584 
z
M 2125 0 
L 2125 1094 
L 163 1094 
L 163 1644 
L 2213 4488 
L 2688 4488 
L 2688 1584 
L 3347 1584 
L 3347 1094 
L 2688 1094 
L 2688 0 
L 2125 0 
z
" id="Helvetica-34" transform="scale(0.015625)"/>
       </defs>
       <use xlink:href="#Helvetica-30"/>
       <use x="55.615234" xlink:href="#Helvetica-2e"/>
       <use x="83.398438" xlink:href="#Helvetica-34"/>
      </g>
     </g>
    </g>
    <g id="ytick_4">
     <g id="line2d_6">
      <path clip-path="url(#pbfb159fac8)" d="M 85.39 43.317279 
L 410.4 43.317279 
" style="fill:none;stroke:#cccccc;stroke-linecap:round;stroke-width:0.8;"/>
     </g>
     <g id="text_7">
      <!-- 0.6 -->
      <g style="fill:#262626;" transform="translate(44.09 50.490717)scale(0.2 -0.2)">
       <defs>
        <path d="M 1872 4494 
Q 2622 4494 2917 4105 
Q 3213 3716 3213 3303 
L 2656 3303 
Q 2606 3569 2497 3719 
Q 2294 4000 1881 4000 
Q 1409 4000 1131 3564 
Q 853 3128 822 2316 
Q 1016 2600 1309 2741 
Q 1578 2866 1909 2866 
Q 2472 2866 2890 2506 
Q 3309 2147 3309 1434 
Q 3309 825 2912 354 
Q 2516 -116 1781 -116 
Q 1153 -116 697 361 
Q 241 838 241 1966 
Q 241 2800 444 3381 
Q 834 4494 1872 4494 
z
M 1831 384 
Q 2275 384 2495 682 
Q 2716 981 2716 1388 
Q 2716 1731 2519 2042 
Q 2322 2353 1803 2353 
Q 1441 2353 1167 2112 
Q 894 1872 894 1388 
Q 894 963 1142 673 
Q 1391 384 1831 384 
z
" id="Helvetica-36" transform="scale(0.015625)"/>
       </defs>
       <use xlink:href="#Helvetica-30"/>
       <use x="55.615234" xlink:href="#Helvetica-2e"/>
       <use x="83.398438" xlink:href="#Helvetica-36"/>
      </g>
     </g>
    </g>
    <g id="text_8">
     <!-- Std Dev of Subunit Mismatch -->
     <g style="fill:#262626;" transform="translate(35.92125 245.709062)rotate(-90)scale(0.2 -0.2)">
      <defs>
       <path d="M 894 1481 
Q 916 1091 1078 847 
Q 1388 391 2169 391 
Q 2519 391 2806 491 
Q 3363 684 3363 1184 
Q 3363 1559 3128 1719 
Q 2891 1875 2384 1991 
L 1763 2131 
Q 1153 2269 900 2434 
Q 463 2722 463 3294 
Q 463 3913 891 4309 
Q 1319 4706 2103 4706 
Q 2825 4706 3329 4357 
Q 3834 4009 3834 3244 
L 3250 3244 
Q 3203 3613 3050 3809 
Q 2766 4169 2084 4169 
Q 1534 4169 1293 3937 
Q 1053 3706 1053 3400 
Q 1053 3063 1334 2906 
Q 1519 2806 2169 2656 
L 2813 2509 
Q 3278 2403 3531 2219 
Q 3969 1897 3969 1284 
Q 3969 522 3414 194 
Q 2859 -134 2125 -134 
Q 1269 -134 784 303 
Q 300 738 309 1481 
L 894 1481 
z
M 2150 4716 
L 2150 4716 
z
" id="Helvetica-53" transform="scale(0.015625)"/>
       <path d="M 769 1634 
Q 769 1097 997 734 
Q 1225 372 1728 372 
Q 2119 372 2370 708 
Q 2622 1044 2622 1672 
Q 2622 2306 2362 2611 
Q 2103 2916 1722 2916 
Q 1297 2916 1033 2591 
Q 769 2266 769 1634 
z
M 1616 3406 
Q 2000 3406 2259 3244 
Q 2409 3150 2600 2916 
L 2600 4606 
L 3141 4606 
L 3141 0 
L 2634 0 
L 2634 466 
Q 2438 156 2169 18 
Q 1900 -119 1553 -119 
Q 994 -119 584 351 
Q 175 822 175 1603 
Q 175 2334 548 2870 
Q 922 3406 1616 3406 
z
" id="Helvetica-64" transform="scale(0.015625)"/>
       <path id="Helvetica-20" transform="scale(0.015625)"/>
       <path d="M 2250 531 
Q 2566 531 2769 597 
Q 3131 719 3363 1066 
Q 3547 1344 3628 1778 
Q 3675 2038 3675 2259 
Q 3675 3113 3336 3584 
Q 2997 4056 2244 4056 
L 1141 4056 
L 1141 531 
L 2250 531 
z
M 516 4591 
L 2375 4591 
Q 3322 4591 3844 3919 
Q 4309 3313 4309 2366 
Q 4309 1634 4034 1044 
Q 3550 0 2369 0 
L 516 0 
L 516 4591 
z
" id="Helvetica-44" transform="scale(0.015625)"/>
       <path d="M 1806 3422 
Q 2163 3422 2497 3255 
Q 2831 3088 3006 2822 
Q 3175 2569 3231 2231 
Q 3281 2000 3281 1494 
L 828 1494 
Q 844 984 1069 676 
Q 1294 369 1766 369 
Q 2206 369 2469 659 
Q 2619 828 2681 1050 
L 3234 1050 
Q 3213 866 3089 639 
Q 2966 413 2813 269 
Q 2556 19 2178 -69 
Q 1975 -119 1719 -119 
Q 1094 -119 659 336 
Q 225 791 225 1609 
Q 225 2416 662 2919 
Q 1100 3422 1806 3422 
z
M 2703 1941 
Q 2669 2306 2544 2525 
Q 2313 2931 1772 2931 
Q 1384 2931 1121 2651 
Q 859 2372 844 1941 
L 2703 1941 
z
M 1753 3428 
L 1753 3428 
z
" id="Helvetica-65" transform="scale(0.015625)"/>
       <path d="M 688 3347 
L 1581 622 
L 2516 3347 
L 3131 3347 
L 1869 0 
L 1269 0 
L 34 3347 
L 688 3347 
z
" id="Helvetica-76" transform="scale(0.015625)"/>
       <path d="M 553 3856 
Q 566 4206 675 4369 
Q 872 4656 1434 4656 
Q 1488 4656 1544 4653 
Q 1600 4650 1672 4644 
L 1672 4131 
Q 1584 4138 1545 4139 
Q 1506 4141 1472 4141 
Q 1216 4141 1166 4008 
Q 1116 3875 1116 3331 
L 1672 3331 
L 1672 2888 
L 1109 2888 
L 1109 0 
L 553 0 
L 553 2888 
L 88 2888 
L 88 3331 
L 553 3331 
L 553 3856 
z
" id="Helvetica-66" transform="scale(0.015625)"/>
       <path d="M 975 3347 
L 975 1125 
Q 975 869 1056 706 
Q 1206 406 1616 406 
Q 2203 406 2416 931 
Q 2531 1213 2531 1703 
L 2531 3347 
L 3094 3347 
L 3094 0 
L 2563 0 
L 2569 494 
Q 2459 303 2297 172 
Q 1975 -91 1516 -91 
Q 800 -91 541 388 
Q 400 644 400 1072 
L 400 3347 
L 975 3347 
z
M 1747 3428 
L 1747 3428 
z
" id="Helvetica-75" transform="scale(0.015625)"/>
       <path d="M 369 4606 
L 916 4606 
L 916 2941 
Q 1100 3181 1356 3307 
Q 1613 3434 1913 3434 
Q 2538 3434 2927 3004 
Q 3316 2575 3316 1738 
Q 3316 944 2931 419 
Q 2547 -106 1866 -106 
Q 1484 -106 1222 78 
Q 1066 188 888 428 
L 888 0 
L 369 0 
L 369 4606 
z
M 1831 391 
Q 2288 391 2514 753 
Q 2741 1116 2741 1709 
Q 2741 2238 2514 2584 
Q 2288 2931 1847 2931 
Q 1463 2931 1173 2647 
Q 884 2363 884 1709 
Q 884 1238 1003 944 
Q 1225 391 1831 391 
z
" id="Helvetica-62" transform="scale(0.015625)"/>
       <path d="M 472 4591 
L 1363 4591 
L 2681 709 
L 3991 4591 
L 4872 4591 
L 4872 0 
L 4281 0 
L 4281 2709 
Q 4281 2850 4287 3175 
Q 4294 3500 4294 3872 
L 2984 0 
L 2369 0 
L 1050 3872 
L 1050 3731 
Q 1050 3563 1058 3217 
Q 1066 2872 1066 2709 
L 1066 0 
L 472 0 
L 472 4591 
z
" id="Helvetica-4d" transform="scale(0.015625)"/>
       <path d="M 413 3347 
L 969 3347 
L 969 2872 
Q 1169 3119 1331 3231 
Q 1609 3422 1963 3422 
Q 2363 3422 2606 3225 
Q 2744 3113 2856 2894 
Q 3044 3163 3297 3292 
Q 3550 3422 3866 3422 
Q 4541 3422 4784 2934 
Q 4916 2672 4916 2228 
L 4916 0 
L 4331 0 
L 4331 2325 
Q 4331 2659 4164 2784 
Q 3997 2909 3756 2909 
Q 3425 2909 3186 2687 
Q 2947 2466 2947 1947 
L 2947 0 
L 2375 0 
L 2375 2184 
Q 2375 2525 2294 2681 
Q 2166 2916 1816 2916 
Q 1497 2916 1236 2669 
Q 975 2422 975 1775 
L 975 0 
L 413 0 
L 413 3347 
z
" id="Helvetica-6d" transform="scale(0.015625)"/>
       <path d="M 844 891 
Q 844 647 1022 506 
Q 1200 366 1444 366 
Q 1741 366 2019 503 
Q 2488 731 2488 1250 
L 2488 1703 
Q 2384 1638 2221 1594 
Q 2059 1550 1903 1531 
L 1563 1488 
Q 1256 1447 1103 1359 
Q 844 1213 844 891 
z
M 2206 2028 
Q 2400 2053 2466 2191 
Q 2503 2266 2503 2406 
Q 2503 2694 2298 2823 
Q 2094 2953 1713 2953 
Q 1272 2953 1088 2716 
Q 984 2584 953 2325 
L 428 2325 
Q 444 2944 830 3186 
Q 1216 3428 1725 3428 
Q 2316 3428 2684 3203 
Q 3050 2978 3050 2503 
L 3050 575 
Q 3050 488 3086 434 
Q 3122 381 3238 381 
Q 3275 381 3322 386 
Q 3369 391 3422 400 
L 3422 -16 
Q 3291 -53 3222 -62 
Q 3153 -72 3034 -72 
Q 2744 -72 2613 134 
Q 2544 244 2516 444 
Q 2344 219 2022 53 
Q 1700 -113 1313 -113 
Q 847 -113 551 170 
Q 256 453 256 878 
Q 256 1344 547 1600 
Q 838 1856 1309 1916 
L 2206 2028 
z
M 1741 3428 
L 1741 3428 
z
" id="Helvetica-61" transform="scale(0.015625)"/>
       <path d="M 1703 3444 
Q 2269 3444 2623 3169 
Q 2978 2894 3050 2222 
L 2503 2222 
Q 2453 2531 2275 2736 
Q 2097 2941 1703 2941 
Q 1166 2941 934 2416 
Q 784 2075 784 1575 
Q 784 1072 996 728 
Q 1209 384 1666 384 
Q 2016 384 2220 598 
Q 2425 813 2503 1184 
L 3050 1184 
Q 2956 519 2581 211 
Q 2206 -97 1622 -97 
Q 966 -97 575 383 
Q 184 863 184 1581 
Q 184 2463 612 2953 
Q 1041 3444 1703 3444 
z
M 1616 3428 
L 1616 3428 
z
" id="Helvetica-63" transform="scale(0.015625)"/>
       <path d="M 413 4606 
L 975 4606 
L 975 2894 
Q 1175 3147 1334 3250 
Q 1606 3428 2013 3428 
Q 2741 3428 3000 2919 
Q 3141 2641 3141 2147 
L 3141 0 
L 2563 0 
L 2563 2109 
Q 2563 2478 2469 2650 
Q 2316 2925 1894 2925 
Q 1544 2925 1259 2684 
Q 975 2444 975 1775 
L 975 0 
L 413 0 
L 413 4606 
z
" id="Helvetica-68" transform="scale(0.015625)"/>
      </defs>
      <use xlink:href="#Helvetica-53"/>
      <use x="66.699219" xlink:href="#Helvetica-74"/>
      <use x="94.482422" xlink:href="#Helvetica-64"/>
      <use x="150.097656" xlink:href="#Helvetica-20"/>
      <use x="177.880859" xlink:href="#Helvetica-44"/>
      <use x="250.097656" xlink:href="#Helvetica-65"/>
      <use x="305.712891" xlink:href="#Helvetica-76"/>
      <use x="355.712891" xlink:href="#Helvetica-20"/>
      <use x="383.496094" xlink:href="#Helvetica-6f"/>
      <use x="439.111328" xlink:href="#Helvetica-66"/>
      <use x="466.894531" xlink:href="#Helvetica-20"/>
      <use x="494.677734" xlink:href="#Helvetica-53"/>
      <use x="561.376953" xlink:href="#Helvetica-75"/>
      <use x="616.992188" xlink:href="#Helvetica-62"/>
      <use x="672.607422" xlink:href="#Helvetica-75"/>
      <use x="728.222656" xlink:href="#Helvetica-6e"/>
      <use x="783.837891" xlink:href="#Helvetica-69"/>
      <use x="806.054688" xlink:href="#Helvetica-74"/>
      <use x="833.837891" xlink:href="#Helvetica-20"/>
      <use x="861.621094" xlink:href="#Helvetica-4d"/>
      <use x="944.921875" xlink:href="#Helvetica-69"/>
      <use x="967.138672" xlink:href="#Helvetica-73"/>
      <use x="1017.138672" xlink:href="#Helvetica-6d"/>
      <use x="1100.439453" xlink:href="#Helvetica-61"/>
      <use x="1156.054688" xlink:href="#Helvetica-74"/>
      <use x="1183.837891" xlink:href="#Helvetica-63"/>
      <use x="1233.837891" xlink:href="#Helvetica-68"/>
     </g>
    </g>
   </g>
   <g id="PolyCollection_1">
    <defs>
     <path d="M 100.163182 -121.887613 
L 100.163182 -92.312481 
L 115.7139 -99.251025 
L 131.264617 -93.010983 
L 146.815335 -90.644625 
L 162.366053 -94.862883 
L 177.91677 -99.251025 
L 193.467488 -88.367044 
L 209.018206 -100.244514 
L 224.568923 -88.367044 
L 240.119641 -88.501155 
L 255.670359 -98.735975 
L 271.221077 -88.783207 
L 286.771794 -100.439998 
L 302.322512 -90.235204 
L 317.87323 -94.28624 
L 333.423947 -98.164864 
L 348.974665 -94.635411 
L 364.525383 -92.312481 
L 380.0761 -90.471865 
L 395.626818 -92.312481 
L 395.626818 -121.887613 
L 395.626818 -121.887613 
L 380.0761 -121.850514 
L 364.525383 -121.887613 
L 348.974665 -125.796346 
L 333.423947 -129.576494 
L 317.87323 -124.673025 
L 302.322512 -118.469475 
L 286.771794 -132.796776 
L 271.221077 -117.37104 
L 255.670359 -131.214121 
L 240.119641 -116.1806 
L 224.568923 -115.578465 
L 209.018206 -132.256014 
L 193.467488 -115.578465 
L 177.91677 -134.316771 
L 162.366053 -128.450328 
L 146.815335 -122.414001 
L 131.264617 -126.279304 
L 115.7139 -134.316771 
L 100.163182 -121.887613 
z
" id="m9d5ce20d61" style="stroke:#ff8c00;stroke-opacity:0.2;"/>
    </defs>
    <g clip-path="url(#pbfb159fac8)">
     <use style="fill:#ff8c00;fill-opacity:0.2;stroke:#ff8c00;stroke-opacity:0.2;" x="0" xlink:href="#m9d5ce20d61" y="288"/>
    </g>
   </g>
   <g id="PolyCollection_2">
    <defs>
     <path d="M 100.163182 -243.47252 
L 100.163182 -213.694859 
L 115.7139 -195.025399 
L 131.264617 -210.83759 
L 146.815335 -219.234159 
L 162.366053 -211.650306 
L 177.91677 -218.054627 
L 193.467488 -210.610365 
L 209.018206 -219.395542 
L 224.568923 -192.615359 
L 240.119641 -213.300841 
L 255.670359 -218.110874 
L 271.221077 -208.887116 
L 286.771794 -227.091081 
L 302.322512 -218.770213 
L 317.87323 -204.374603 
L 333.423947 -218.772116 
L 348.974665 -214.712176 
L 364.525383 -219.462754 
L 380.0761 -216.653713 
L 395.626818 -229.091689 
L 395.626818 -257.748182 
L 395.626818 -257.748182 
L 380.0761 -246.877745 
L 364.525383 -240.78734 
L 348.974665 -240.250471 
L 333.423947 -245.561776 
L 317.87323 -233.098057 
L 302.322512 -244.9585 
L 286.771794 -246.427471 
L 271.221077 -235.015811 
L 255.670359 -240.53566 
L 240.119641 -238.649284 
L 224.568923 -229.704465 
L 209.018206 -246.478379 
L 193.467488 -242.267947 
L 177.91677 -247.278997 
L 162.366053 -239.488022 
L 146.815335 -246.175015 
L 131.264617 -238.223067 
L 115.7139 -227.509056 
L 100.163182 -243.47252 
z
" id="mfc5babbabd" style="stroke:#808080;stroke-opacity:0.2;"/>
    </defs>
    <g clip-path="url(#pbfb159fac8)">
     <use style="fill:#808080;fill-opacity:0.2;stroke:#808080;stroke-opacity:0.2;" x="0" xlink:href="#mfc5babbabd" y="288"/>
    </g>
   </g>
   <g id="PolyCollection_3">
    <defs>
     <path d="M 100.163182 -250.719228 
L 100.163182 -226.277943 
L 115.7139 -200.378882 
L 131.264617 -197.503217 
L 146.815335 -211.732131 
L 162.366053 -208.299501 
L 177.91677 -208.928285 
L 193.467488 -217.745886 
L 209.018206 -214.360496 
L 224.568923 -217.541383 
L 240.119641 -205.920802 
L 255.670359 -201.835226 
L 271.221077 -215.382441 
L 286.771794 -207.303163 
L 302.322512 -210.103181 
L 317.87323 -203.572621 
L 333.423947 -199.74172 
L 348.974665 -212.499044 
L 364.525383 -213.146872 
L 380.0761 -222.430807 
L 395.626818 -220.036172 
L 395.626818 -250.256577 
L 395.626818 -250.256577 
L 380.0761 -245.858472 
L 364.525383 -233.3145 
L 348.974665 -249.202203 
L 333.423947 -232.963757 
L 317.87323 -233.298868 
L 302.322512 -240.22335 
L 286.771794 -236.998324 
L 271.221077 -239.304699 
L 255.670359 -230.682316 
L 240.119641 -238.513103 
L 224.568923 -243.712449 
L 209.018206 -246.620531 
L 193.467488 -243.101373 
L 177.91677 -239.794686 
L 162.366053 -234.668575 
L 146.815335 -246.228361 
L 131.264617 -231.123819 
L 115.7139 -234.471803 
L 100.163182 -250.719228 
z
" id="m4e96e1cfc2" style="stroke:#f4a460;stroke-opacity:0.2;"/>
    </defs>
    <g clip-path="url(#pbfb159fac8)">
     <use style="fill:#f4a460;fill-opacity:0.2;stroke:#f4a460;stroke-opacity:0.2;" x="0" xlink:href="#m4e96e1cfc2" y="288"/>
    </g>
   </g>
   <g id="PolyCollection_4">
    <defs>
     <path d="M 100.163182 -125.796346 
L 100.163182 -94.635411 
L 115.7139 -84.711818 
L 131.264617 -90.235204 
L 146.815335 -89.953365 
L 162.366053 -86.797401 
L 177.91677 -90.534289 
L 193.467488 -86.334826 
L 209.018206 -86.627575 
L 224.568923 -86.554617 
L 240.119641 -88.527549 
L 255.670359 -92.475387 
L 271.221077 -84.711818 
L 286.771794 -92.312481 
L 302.322512 -88.368513 
L 317.87323 -88.501155 
L 333.423947 -92.475387 
L 348.974665 -94.862883 
L 364.525383 -100.637988 
L 380.0761 -86.554617 
L 395.626818 -92.638856 
L 395.626818 -125.178939 
L 395.626818 -125.178939 
L 380.0761 -112.631722 
L 364.525383 -133.335031 
L 348.974665 -128.450328 
L 333.423947 -122.460954 
L 317.87323 -116.1806 
L 302.322512 -118.45845 
L 286.771794 -121.887613 
L 271.221077 -108.979105 
L 255.670359 -122.460954 
L 240.119641 -119.035661 
L 224.568923 -112.631722 
L 209.018206 -116.176464 
L 193.467488 -111.379021 
L 177.91677 -119.642882 
L 162.366053 -113.861431 
L 146.815335 -117.278821 
L 131.264617 -118.469475 
L 115.7139 -108.979105 
L 100.163182 -125.796346 
z
" id="m0d107dc189" style="stroke:#556b2f;stroke-opacity:0.2;"/>
    </defs>
    <g clip-path="url(#pbfb159fac8)">
     <use style="fill:#556b2f;fill-opacity:0.2;stroke:#556b2f;stroke-opacity:0.2;" x="0" xlink:href="#m0d107dc189" y="288"/>
    </g>
   </g>
   <g id="line2d_7">
    <path clip-path="url(#pbfb159fac8)" d="M 100.163182 180.899953 
L 115.7139 171.216102 
L 131.264617 178.354856 
L 146.815335 181.470687 
L 162.366053 176.343395 
L 177.91677 171.216102 
L 193.467488 186.027246 
L 209.018206 171.749736 
L 224.568923 186.027246 
L 240.119641 185.659122 
L 255.670359 173.024952 
L 271.221077 184.922876 
L 286.771794 171.381613 
L 302.322512 183.647661 
L 317.87323 178.520368 
L 333.423947 174.129321 
L 348.974665 177.784122 
L 364.525383 180.899953 
L 380.0761 181.83881 
L 395.626818 180.899953 
" style="fill:none;stroke:#ff8c00;stroke-linecap:round;stroke-opacity:0.8;stroke-width:0.7;"/>
    <defs>
     <path d="M 0 -2.5 
L -2.5 2.5 
L 2.5 2.5 
z
" id="m6fc7f35dce" style="stroke:#000000;stroke-linejoin:miter;stroke-opacity:0.8;"/>
    </defs>
    <g clip-path="url(#pbfb159fac8)">
     <use style="fill:#ff8c00;fill-opacity:0.8;stroke:#000000;stroke-linejoin:miter;stroke-opacity:0.8;" x="100.163182" xlink:href="#m6fc7f35dce" y="180.899953"/>
     <use style="fill:#ff8c00;fill-opacity:0.8;stroke:#000000;stroke-linejoin:miter;stroke-opacity:0.8;" x="115.7139" xlink:href="#m6fc7f35dce" y="171.216102"/>
     <use style="fill:#ff8c00;fill-opacity:0.8;stroke:#000000;stroke-linejoin:miter;stroke-opacity:0.8;" x="131.264617" xlink:href="#m6fc7f35dce" y="178.354856"/>
     <use style="fill:#ff8c00;fill-opacity:0.8;stroke:#000000;stroke-linejoin:miter;stroke-opacity:0.8;" x="146.815335" xlink:href="#m6fc7f35dce" y="181.470687"/>
     <use style="fill:#ff8c00;fill-opacity:0.8;stroke:#000000;stroke-linejoin:miter;stroke-opacity:0.8;" x="162.366053" xlink:href="#m6fc7f35dce" y="176.343395"/>
     <use style="fill:#ff8c00;fill-opacity:0.8;stroke:#000000;stroke-linejoin:miter;stroke-opacity:0.8;" x="177.91677" xlink:href="#m6fc7f35dce" y="171.216102"/>
     <use style="fill:#ff8c00;fill-opacity:0.8;stroke:#000000;stroke-linejoin:miter;stroke-opacity:0.8;" x="193.467488" xlink:href="#m6fc7f35dce" y="186.027246"/>
     <use style="fill:#ff8c00;fill-opacity:0.8;stroke:#000000;stroke-linejoin:miter;stroke-opacity:0.8;" x="209.018206" xlink:href="#m6fc7f35dce" y="171.749736"/>
     <use style="fill:#ff8c00;fill-opacity:0.8;stroke:#000000;stroke-linejoin:miter;stroke-opacity:0.8;" x="224.568923" xlink:href="#m6fc7f35dce" y="186.027246"/>
     <use style="fill:#ff8c00;fill-opacity:0.8;stroke:#000000;stroke-linejoin:miter;stroke-opacity:0.8;" x="240.119641" xlink:href="#m6fc7f35dce" y="185.659122"/>
     <use style="fill:#ff8c00;fill-opacity:0.8;stroke:#000000;stroke-linejoin:miter;stroke-opacity:0.8;" x="255.670359" xlink:href="#m6fc7f35dce" y="173.024952"/>
     <use style="fill:#ff8c00;fill-opacity:0.8;stroke:#000000;stroke-linejoin:miter;stroke-opacity:0.8;" x="271.221077" xlink:href="#m6fc7f35dce" y="184.922876"/>
     <use style="fill:#ff8c00;fill-opacity:0.8;stroke:#000000;stroke-linejoin:miter;stroke-opacity:0.8;" x="286.771794" xlink:href="#m6fc7f35dce" y="171.381613"/>
     <use style="fill:#ff8c00;fill-opacity:0.8;stroke:#000000;stroke-linejoin:miter;stroke-opacity:0.8;" x="302.322512" xlink:href="#m6fc7f35dce" y="183.647661"/>
     <use style="fill:#ff8c00;fill-opacity:0.8;stroke:#000000;stroke-linejoin:miter;stroke-opacity:0.8;" x="317.87323" xlink:href="#m6fc7f35dce" y="178.520368"/>
     <use style="fill:#ff8c00;fill-opacity:0.8;stroke:#000000;stroke-linejoin:miter;stroke-opacity:0.8;" x="333.423947" xlink:href="#m6fc7f35dce" y="174.129321"/>
     <use style="fill:#ff8c00;fill-opacity:0.8;stroke:#000000;stroke-linejoin:miter;stroke-opacity:0.8;" x="348.974665" xlink:href="#m6fc7f35dce" y="177.784122"/>
     <use style="fill:#ff8c00;fill-opacity:0.8;stroke:#000000;stroke-linejoin:miter;stroke-opacity:0.8;" x="364.525383" xlink:href="#m6fc7f35dce" y="180.899953"/>
     <use style="fill:#ff8c00;fill-opacity:0.8;stroke:#000000;stroke-linejoin:miter;stroke-opacity:0.8;" x="380.0761" xlink:href="#m6fc7f35dce" y="181.83881"/>
     <use style="fill:#ff8c00;fill-opacity:0.8;stroke:#000000;stroke-linejoin:miter;stroke-opacity:0.8;" x="395.626818" xlink:href="#m6fc7f35dce" y="180.899953"/>
    </g>
   </g>
   <g id="line2d_8">
    <path clip-path="url(#pbfb159fac8)" d="M 100.163182 180.899953 
L 115.7139 171.216102 
L 131.264617 178.354856 
L 146.815335 181.470687 
L 162.366053 176.343395 
L 177.91677 171.216102 
L 193.467488 186.027246 
L 209.018206 171.749736 
L 224.568923 186.027246 
L 240.119641 185.659122 
L 255.670359 173.024952 
L 271.221077 184.922876 
L 286.771794 171.381613 
L 302.322512 183.647661 
L 317.87323 178.520368 
L 333.423947 174.129321 
L 348.974665 177.784122 
L 364.525383 180.899953 
L 380.0761 181.83881 
L 395.626818 180.899953 
" style="fill:none;stroke:#ff8c00;stroke-linecap:round;stroke-width:0.7;"/>
   </g>
   <g id="line2d_9">
    <path clip-path="url(#pbfb159fac8)" d="M 100.163182 195.687519 
L 115.7139 188.748975 
L 131.264617 194.989017 
L 146.815335 197.355375 
L 162.366053 193.137117 
L 177.91677 188.748975 
L 193.467488 199.632956 
L 209.018206 187.755486 
L 224.568923 199.632956 
L 240.119641 199.498845 
L 255.670359 189.264025 
L 271.221077 199.216793 
L 286.771794 187.560002 
L 302.322512 197.764796 
L 317.87323 193.71376 
L 333.423947 189.835136 
L 348.974665 193.364589 
L 364.525383 195.687519 
L 380.0761 197.528135 
L 395.626818 195.687519 
" style="fill:none;stroke:#ff8c00;stroke-dasharray:1.85,0.8;stroke-dashoffset:0;stroke-width:0.5;"/>
   </g>
   <g id="line2d_10">
    <path clip-path="url(#pbfb159fac8)" d="M 100.163182 166.112387 
L 115.7139 153.683229 
L 131.264617 161.720696 
L 146.815335 165.585999 
L 162.366053 159.549672 
L 177.91677 153.683229 
L 193.467488 172.421535 
L 209.018206 155.743986 
L 224.568923 172.421535 
L 240.119641 171.8194 
L 255.670359 156.785879 
L 271.221077 170.62896 
L 286.771794 155.203224 
L 302.322512 169.530525 
L 317.87323 163.326975 
L 333.423947 158.423506 
L 348.974665 162.203654 
L 364.525383 166.112387 
L 380.0761 166.149486 
L 395.626818 166.112387 
" style="fill:none;stroke:#ff8c00;stroke-dasharray:1.85,0.8;stroke-dashoffset:0;stroke-width:0.5;"/>
   </g>
   <g id="line2d_11">
    <path clip-path="url(#pbfb159fac8)" d="M 100.163182 59.416311 
L 115.7139 76.732772 
L 131.264617 63.469671 
L 146.815335 55.295413 
L 162.366053 62.430836 
L 177.91677 55.333188 
L 193.467488 61.560844 
L 209.018206 55.063039 
L 224.568923 76.840088 
L 240.119641 62.024938 
L 255.670359 58.676733 
L 271.221077 66.048536 
L 286.771794 51.240724 
L 302.322512 56.135643 
L 317.87323 69.26367 
L 333.423947 55.833054 
L 348.974665 60.518677 
L 364.525383 57.874953 
L 380.0761 56.234271 
L 395.626818 44.580065 
" style="fill:none;stroke:#808080;stroke-linecap:round;stroke-opacity:0.8;stroke-width:0.7;"/>
    <defs>
     <path d="M 0 -2.5 
L -2.5 2.5 
L 2.5 2.5 
z
" id="m2bfd318dad" style="stroke:#000000;stroke-linejoin:miter;stroke-opacity:0.8;"/>
    </defs>
    <g clip-path="url(#pbfb159fac8)">
     <use style="fill:#808080;fill-opacity:0.8;stroke:#000000;stroke-linejoin:miter;stroke-opacity:0.8;" x="100.163182" xlink:href="#m2bfd318dad" y="59.416311"/>
     <use style="fill:#808080;fill-opacity:0.8;stroke:#000000;stroke-linejoin:miter;stroke-opacity:0.8;" x="115.7139" xlink:href="#m2bfd318dad" y="76.732772"/>
     <use style="fill:#808080;fill-opacity:0.8;stroke:#000000;stroke-linejoin:miter;stroke-opacity:0.8;" x="131.264617" xlink:href="#m2bfd318dad" y="63.469671"/>
     <use style="fill:#808080;fill-opacity:0.8;stroke:#000000;stroke-linejoin:miter;stroke-opacity:0.8;" x="146.815335" xlink:href="#m2bfd318dad" y="55.295413"/>
     <use style="fill:#808080;fill-opacity:0.8;stroke:#000000;stroke-linejoin:miter;stroke-opacity:0.8;" x="162.366053" xlink:href="#m2bfd318dad" y="62.430836"/>
     <use style="fill:#808080;fill-opacity:0.8;stroke:#000000;stroke-linejoin:miter;stroke-opacity:0.8;" x="177.91677" xlink:href="#m2bfd318dad" y="55.333188"/>
     <use style="fill:#808080;fill-opacity:0.8;stroke:#000000;stroke-linejoin:miter;stroke-opacity:0.8;" x="193.467488" xlink:href="#m2bfd318dad" y="61.560844"/>
     <use style="fill:#808080;fill-opacity:0.8;stroke:#000000;stroke-linejoin:miter;stroke-opacity:0.8;" x="209.018206" xlink:href="#m2bfd318dad" y="55.063039"/>
     <use style="fill:#808080;fill-opacity:0.8;stroke:#000000;stroke-linejoin:miter;stroke-opacity:0.8;" x="224.568923" xlink:href="#m2bfd318dad" y="76.840088"/>
     <use style="fill:#808080;fill-opacity:0.8;stroke:#000000;stroke-linejoin:miter;stroke-opacity:0.8;" x="240.119641" xlink:href="#m2bfd318dad" y="62.024938"/>
     <use style="fill:#808080;fill-opacity:0.8;stroke:#000000;stroke-linejoin:miter;stroke-opacity:0.8;" x="255.670359" xlink:href="#m2bfd318dad" y="58.676733"/>
     <use style="fill:#808080;fill-opacity:0.8;stroke:#000000;stroke-linejoin:miter;stroke-opacity:0.8;" x="271.221077" xlink:href="#m2bfd318dad" y="66.048536"/>
     <use style="fill:#808080;fill-opacity:0.8;stroke:#000000;stroke-linejoin:miter;stroke-opacity:0.8;" x="286.771794" xlink:href="#m2bfd318dad" y="51.240724"/>
     <use style="fill:#808080;fill-opacity:0.8;stroke:#000000;stroke-linejoin:miter;stroke-opacity:0.8;" x="302.322512" xlink:href="#m2bfd318dad" y="56.135643"/>
     <use style="fill:#808080;fill-opacity:0.8;stroke:#000000;stroke-linejoin:miter;stroke-opacity:0.8;" x="317.87323" xlink:href="#m2bfd318dad" y="69.26367"/>
     <use style="fill:#808080;fill-opacity:0.8;stroke:#000000;stroke-linejoin:miter;stroke-opacity:0.8;" x="333.423947" xlink:href="#m2bfd318dad" y="55.833054"/>
     <use style="fill:#808080;fill-opacity:0.8;stroke:#000000;stroke-linejoin:miter;stroke-opacity:0.8;" x="348.974665" xlink:href="#m2bfd318dad" y="60.518677"/>
     <use style="fill:#808080;fill-opacity:0.8;stroke:#000000;stroke-linejoin:miter;stroke-opacity:0.8;" x="364.525383" xlink:href="#m2bfd318dad" y="57.874953"/>
     <use style="fill:#808080;fill-opacity:0.8;stroke:#000000;stroke-linejoin:miter;stroke-opacity:0.8;" x="380.0761" xlink:href="#m2bfd318dad" y="56.234271"/>
     <use style="fill:#808080;fill-opacity:0.8;stroke:#000000;stroke-linejoin:miter;stroke-opacity:0.8;" x="395.626818" xlink:href="#m2bfd318dad" y="44.580065"/>
    </g>
   </g>
   <g id="line2d_12">
    <path clip-path="url(#pbfb159fac8)" d="M 100.163182 59.416311 
L 115.7139 76.732772 
L 131.264617 63.469671 
L 146.815335 55.295413 
L 162.366053 62.430836 
L 177.91677 55.333188 
L 193.467488 61.560844 
L 209.018206 55.063039 
L 224.568923 76.840088 
L 240.119641 62.024938 
L 255.670359 58.676733 
L 271.221077 66.048536 
L 286.771794 51.240724 
L 302.322512 56.135643 
L 317.87323 69.26367 
L 333.423947 55.833054 
L 348.974665 60.518677 
L 364.525383 57.874953 
L 380.0761 56.234271 
L 395.626818 44.580065 
" style="fill:none;stroke:#808080;stroke-linecap:round;stroke-width:0.7;"/>
   </g>
   <g id="line2d_13">
    <path clip-path="url(#pbfb159fac8)" d="M 100.163182 74.305141 
L 115.7139 92.974601 
L 131.264617 77.16241 
L 146.815335 68.765841 
L 162.366053 76.349694 
L 177.91677 69.945373 
L 193.467488 77.389635 
L 209.018206 68.604458 
L 224.568923 95.384641 
L 240.119641 74.699159 
L 255.670359 69.889126 
L 271.221077 79.112884 
L 286.771794 60.908919 
L 302.322512 69.229787 
L 317.87323 83.625397 
L 333.423947 69.227884 
L 348.974665 73.287824 
L 364.525383 68.537246 
L 380.0761 71.346287 
L 395.626818 58.908311 
" style="fill:none;stroke:#808080;stroke-dasharray:1.85,0.8;stroke-dashoffset:0;stroke-width:0.5;"/>
   </g>
   <g id="line2d_14">
    <path clip-path="url(#pbfb159fac8)" d="M 100.163182 44.52748 
L 115.7139 60.490944 
L 131.264617 49.776933 
L 146.815335 41.824985 
L 162.366053 48.511978 
L 177.91677 40.721003 
L 193.467488 45.732053 
L 209.018206 41.521621 
L 224.568923 58.295535 
L 240.119641 49.350716 
L 255.670359 47.46434 
L 271.221077 52.984189 
L 286.771794 41.572529 
L 302.322512 43.0415 
L 317.87323 54.901943 
L 333.423947 42.438224 
L 348.974665 47.749529 
L 364.525383 47.21266 
L 380.0761 41.122255 
L 395.626818 30.251818 
" style="fill:none;stroke:#808080;stroke-dasharray:1.85,0.8;stroke-dashoffset:0;stroke-width:0.5;"/>
   </g>
   <g id="line2d_15">
    <path clip-path="url(#pbfb159fac8)" d="M 100.163182 49.501414 
L 115.7139 70.574657 
L 131.264617 73.686482 
L 146.815335 59.019754 
L 162.366053 66.515962 
L 177.91677 63.638514 
L 193.467488 57.57637 
L 209.018206 57.509486 
L 224.568923 57.373084 
L 240.119641 65.783047 
L 255.670359 71.741229 
L 271.221077 60.65643 
L 286.771794 65.849256 
L 302.322512 62.836734 
L 317.87323 69.564256 
L 333.423947 71.647261 
L 348.974665 57.149376 
L 364.525383 64.769314 
L 380.0761 53.855361 
L 395.626818 52.853626 
" style="fill:none;stroke:#f4a460;stroke-linecap:round;stroke-opacity:0.8;stroke-width:0.7;"/>
    <defs>
     <path d="M 0 -2.5 
L -2.5 2.5 
L 2.5 2.5 
z
" id="m09bf0a9eec" style="stroke:#000000;stroke-linejoin:miter;stroke-opacity:0.8;"/>
    </defs>
    <g clip-path="url(#pbfb159fac8)">
     <use style="fill:#f4a460;fill-opacity:0.8;stroke:#000000;stroke-linejoin:miter;stroke-opacity:0.8;" x="100.163182" xlink:href="#m09bf0a9eec" y="49.501414"/>
     <use style="fill:#f4a460;fill-opacity:0.8;stroke:#000000;stroke-linejoin:miter;stroke-opacity:0.8;" x="115.7139" xlink:href="#m09bf0a9eec" y="70.574657"/>
     <use style="fill:#f4a460;fill-opacity:0.8;stroke:#000000;stroke-linejoin:miter;stroke-opacity:0.8;" x="131.264617" xlink:href="#m09bf0a9eec" y="73.686482"/>
     <use style="fill:#f4a460;fill-opacity:0.8;stroke:#000000;stroke-linejoin:miter;stroke-opacity:0.8;" x="146.815335" xlink:href="#m09bf0a9eec" y="59.019754"/>
     <use style="fill:#f4a460;fill-opacity:0.8;stroke:#000000;stroke-linejoin:miter;stroke-opacity:0.8;" x="162.366053" xlink:href="#m09bf0a9eec" y="66.515962"/>
     <use style="fill:#f4a460;fill-opacity:0.8;stroke:#000000;stroke-linejoin:miter;stroke-opacity:0.8;" x="177.91677" xlink:href="#m09bf0a9eec" y="63.638514"/>
     <use style="fill:#f4a460;fill-opacity:0.8;stroke:#000000;stroke-linejoin:miter;stroke-opacity:0.8;" x="193.467488" xlink:href="#m09bf0a9eec" y="57.57637"/>
     <use style="fill:#f4a460;fill-opacity:0.8;stroke:#000000;stroke-linejoin:miter;stroke-opacity:0.8;" x="209.018206" xlink:href="#m09bf0a9eec" y="57.509486"/>
     <use style="fill:#f4a460;fill-opacity:0.8;stroke:#000000;stroke-linejoin:miter;stroke-opacity:0.8;" x="224.568923" xlink:href="#m09bf0a9eec" y="57.373084"/>
     <use style="fill:#f4a460;fill-opacity:0.8;stroke:#000000;stroke-linejoin:miter;stroke-opacity:0.8;" x="240.119641" xlink:href="#m09bf0a9eec" y="65.783047"/>
     <use style="fill:#f4a460;fill-opacity:0.8;stroke:#000000;stroke-linejoin:miter;stroke-opacity:0.8;" x="255.670359" xlink:href="#m09bf0a9eec" y="71.741229"/>
     <use style="fill:#f4a460;fill-opacity:0.8;stroke:#000000;stroke-linejoin:miter;stroke-opacity:0.8;" x="271.221077" xlink:href="#m09bf0a9eec" y="60.65643"/>
     <use style="fill:#f4a460;fill-opacity:0.8;stroke:#000000;stroke-linejoin:miter;stroke-opacity:0.8;" x="286.771794" xlink:href="#m09bf0a9eec" y="65.849256"/>
     <use style="fill:#f4a460;fill-opacity:0.8;stroke:#000000;stroke-linejoin:miter;stroke-opacity:0.8;" x="302.322512" xlink:href="#m09bf0a9eec" y="62.836734"/>
     <use style="fill:#f4a460;fill-opacity:0.8;stroke:#000000;stroke-linejoin:miter;stroke-opacity:0.8;" x="317.87323" xlink:href="#m09bf0a9eec" y="69.564256"/>
     <use style="fill:#f4a460;fill-opacity:0.8;stroke:#000000;stroke-linejoin:miter;stroke-opacity:0.8;" x="333.423947" xlink:href="#m09bf0a9eec" y="71.647261"/>
     <use style="fill:#f4a460;fill-opacity:0.8;stroke:#000000;stroke-linejoin:miter;stroke-opacity:0.8;" x="348.974665" xlink:href="#m09bf0a9eec" y="57.149376"/>
     <use style="fill:#f4a460;fill-opacity:0.8;stroke:#000000;stroke-linejoin:miter;stroke-opacity:0.8;" x="364.525383" xlink:href="#m09bf0a9eec" y="64.769314"/>
     <use style="fill:#f4a460;fill-opacity:0.8;stroke:#000000;stroke-linejoin:miter;stroke-opacity:0.8;" x="380.0761" xlink:href="#m09bf0a9eec" y="53.855361"/>
     <use style="fill:#f4a460;fill-opacity:0.8;stroke:#000000;stroke-linejoin:miter;stroke-opacity:0.8;" x="395.626818" xlink:href="#m09bf0a9eec" y="52.853626"/>
    </g>
   </g>
   <g id="line2d_16">
    <path clip-path="url(#pbfb159fac8)" d="M 100.163182 49.501414 
L 115.7139 70.574657 
L 131.264617 73.686482 
L 146.815335 59.019754 
L 162.366053 66.515962 
L 177.91677 63.638514 
L 193.467488 57.57637 
L 209.018206 57.509486 
L 224.568923 57.373084 
L 240.119641 65.783047 
L 255.670359 71.741229 
L 271.221077 60.65643 
L 286.771794 65.849256 
L 302.322512 62.836734 
L 317.87323 69.564256 
L 333.423947 71.647261 
L 348.974665 57.149376 
L 364.525383 64.769314 
L 380.0761 53.855361 
L 395.626818 52.853626 
" style="fill:none;stroke:#f4a460;stroke-linecap:round;stroke-width:0.7;"/>
   </g>
   <g id="line2d_17">
    <path clip-path="url(#pbfb159fac8)" d="M 100.163182 61.722057 
L 115.7139 87.621118 
L 131.264617 90.496783 
L 146.815335 76.267869 
L 162.366053 79.700499 
L 177.91677 79.071715 
L 193.467488 70.254114 
L 209.018206 73.639504 
L 224.568923 70.458617 
L 240.119641 82.079198 
L 255.670359 86.164774 
L 271.221077 72.617559 
L 286.771794 80.696837 
L 302.322512 77.896819 
L 317.87323 84.427379 
L 333.423947 88.25828 
L 348.974665 75.500956 
L 364.525383 74.853128 
L 380.0761 65.569193 
L 395.626818 67.963828 
" style="fill:none;stroke:#f4a460;stroke-dasharray:1.85,0.8;stroke-dashoffset:0;stroke-width:0.5;"/>
   </g>
   <g id="line2d_18">
    <path clip-path="url(#pbfb159fac8)" d="M 100.163182 37.280772 
L 115.7139 53.528197 
L 131.264617 56.876181 
L 146.815335 41.771639 
L 162.366053 53.331425 
L 177.91677 48.205314 
L 193.467488 44.898627 
L 209.018206 41.379469 
L 224.568923 44.287551 
L 240.119641 49.486897 
L 255.670359 57.317684 
L 271.221077 48.695301 
L 286.771794 51.001676 
L 302.322512 47.77665 
L 317.87323 54.701132 
L 333.423947 55.036243 
L 348.974665 38.797797 
L 364.525383 54.6855 
L 380.0761 42.141528 
L 395.626818 37.743423 
" style="fill:none;stroke:#f4a460;stroke-dasharray:1.85,0.8;stroke-dashoffset:0;stroke-width:0.5;"/>
   </g>
   <g id="line2d_19">
    <path clip-path="url(#pbfb159fac8)" d="M 100.163182 177.784122 
L 115.7139 191.154538 
L 131.264617 183.647661 
L 146.815335 184.383907 
L 162.366053 187.670584 
L 177.91677 182.911415 
L 193.467488 189.143077 
L 209.018206 186.59798 
L 224.568923 188.40683 
L 240.119641 184.218395 
L 255.670359 180.53183 
L 271.221077 191.154538 
L 286.771794 180.899953 
L 302.322512 184.586518 
L 317.87323 185.659122 
L 333.423947 180.53183 
L 348.974665 176.343395 
L 364.525383 171.01349 
L 380.0761 188.40683 
L 395.626818 179.091102 
" style="fill:none;stroke:#556b2f;stroke-linecap:round;stroke-opacity:0.8;stroke-width:0.7;"/>
    <defs>
     <path d="M 0 -2.5 
L -2.5 2.5 
L 2.5 2.5 
z
" id="mbc8b5d54e6" style="stroke:#000000;stroke-linejoin:miter;stroke-opacity:0.8;"/>
    </defs>
    <g clip-path="url(#pbfb159fac8)">
     <use style="fill:#556b2f;fill-opacity:0.8;stroke:#000000;stroke-linejoin:miter;stroke-opacity:0.8;" x="100.163182" xlink:href="#mbc8b5d54e6" y="177.784122"/>
     <use style="fill:#556b2f;fill-opacity:0.8;stroke:#000000;stroke-linejoin:miter;stroke-opacity:0.8;" x="115.7139" xlink:href="#mbc8b5d54e6" y="191.154538"/>
     <use style="fill:#556b2f;fill-opacity:0.8;stroke:#000000;stroke-linejoin:miter;stroke-opacity:0.8;" x="131.264617" xlink:href="#mbc8b5d54e6" y="183.647661"/>
     <use style="fill:#556b2f;fill-opacity:0.8;stroke:#000000;stroke-linejoin:miter;stroke-opacity:0.8;" x="146.815335" xlink:href="#mbc8b5d54e6" y="184.383907"/>
     <use style="fill:#556b2f;fill-opacity:0.8;stroke:#000000;stroke-linejoin:miter;stroke-opacity:0.8;" x="162.366053" xlink:href="#mbc8b5d54e6" y="187.670584"/>
     <use style="fill:#556b2f;fill-opacity:0.8;stroke:#000000;stroke-linejoin:miter;stroke-opacity:0.8;" x="177.91677" xlink:href="#mbc8b5d54e6" y="182.911415"/>
     <use style="fill:#556b2f;fill-opacity:0.8;stroke:#000000;stroke-linejoin:miter;stroke-opacity:0.8;" x="193.467488" xlink:href="#mbc8b5d54e6" y="189.143077"/>
     <use style="fill:#556b2f;fill-opacity:0.8;stroke:#000000;stroke-linejoin:miter;stroke-opacity:0.8;" x="209.018206" xlink:href="#mbc8b5d54e6" y="186.59798"/>
     <use style="fill:#556b2f;fill-opacity:0.8;stroke:#000000;stroke-linejoin:miter;stroke-opacity:0.8;" x="224.568923" xlink:href="#mbc8b5d54e6" y="188.40683"/>
     <use style="fill:#556b2f;fill-opacity:0.8;stroke:#000000;stroke-linejoin:miter;stroke-opacity:0.8;" x="240.119641" xlink:href="#mbc8b5d54e6" y="184.218395"/>
     <use style="fill:#556b2f;fill-opacity:0.8;stroke:#000000;stroke-linejoin:miter;stroke-opacity:0.8;" x="255.670359" xlink:href="#mbc8b5d54e6" y="180.53183"/>
     <use style="fill:#556b2f;fill-opacity:0.8;stroke:#000000;stroke-linejoin:miter;stroke-opacity:0.8;" x="271.221077" xlink:href="#mbc8b5d54e6" y="191.154538"/>
     <use style="fill:#556b2f;fill-opacity:0.8;stroke:#000000;stroke-linejoin:miter;stroke-opacity:0.8;" x="286.771794" xlink:href="#mbc8b5d54e6" y="180.899953"/>
     <use style="fill:#556b2f;fill-opacity:0.8;stroke:#000000;stroke-linejoin:miter;stroke-opacity:0.8;" x="302.322512" xlink:href="#mbc8b5d54e6" y="184.586518"/>
     <use style="fill:#556b2f;fill-opacity:0.8;stroke:#000000;stroke-linejoin:miter;stroke-opacity:0.8;" x="317.87323" xlink:href="#mbc8b5d54e6" y="185.659122"/>
     <use style="fill:#556b2f;fill-opacity:0.8;stroke:#000000;stroke-linejoin:miter;stroke-opacity:0.8;" x="333.423947" xlink:href="#mbc8b5d54e6" y="180.53183"/>
     <use style="fill:#556b2f;fill-opacity:0.8;stroke:#000000;stroke-linejoin:miter;stroke-opacity:0.8;" x="348.974665" xlink:href="#mbc8b5d54e6" y="176.343395"/>
     <use style="fill:#556b2f;fill-opacity:0.8;stroke:#000000;stroke-linejoin:miter;stroke-opacity:0.8;" x="364.525383" xlink:href="#mbc8b5d54e6" y="171.01349"/>
     <use style="fill:#556b2f;fill-opacity:0.8;stroke:#000000;stroke-linejoin:miter;stroke-opacity:0.8;" x="380.0761" xlink:href="#mbc8b5d54e6" y="188.40683"/>
     <use style="fill:#556b2f;fill-opacity:0.8;stroke:#000000;stroke-linejoin:miter;stroke-opacity:0.8;" x="395.626818" xlink:href="#mbc8b5d54e6" y="179.091102"/>
    </g>
   </g>
   <g id="line2d_20">
    <path clip-path="url(#pbfb159fac8)" d="M 100.163182 177.784122 
L 115.7139 191.154538 
L 131.264617 183.647661 
L 146.815335 184.383907 
L 162.366053 187.670584 
L 177.91677 182.911415 
L 193.467488 189.143077 
L 209.018206 186.59798 
L 224.568923 188.40683 
L 240.119641 184.218395 
L 255.670359 180.53183 
L 271.221077 191.154538 
L 286.771794 180.899953 
L 302.322512 184.586518 
L 317.87323 185.659122 
L 333.423947 180.53183 
L 348.974665 176.343395 
L 364.525383 171.01349 
L 380.0761 188.40683 
L 395.626818 179.091102 
" style="fill:none;stroke:#556b2f;stroke-linecap:round;stroke-width:0.7;"/>
   </g>
   <g id="line2d_21">
    <path clip-path="url(#pbfb159fac8)" d="M 100.163182 193.364589 
L 115.7139 203.288182 
L 131.264617 197.764796 
L 146.815335 198.046635 
L 162.366053 201.202599 
L 177.91677 197.465711 
L 193.467488 201.665174 
L 209.018206 201.372425 
L 224.568923 201.445383 
L 240.119641 199.472451 
L 255.670359 195.524613 
L 271.221077 203.288182 
L 286.771794 195.687519 
L 302.322512 199.631487 
L 317.87323 199.498845 
L 333.423947 195.524613 
L 348.974665 193.137117 
L 364.525383 187.362012 
L 380.0761 201.445383 
L 395.626818 195.361144 
" style="fill:none;stroke:#556b2f;stroke-dasharray:1.85,0.8;stroke-dashoffset:0;stroke-width:0.5;"/>
   </g>
   <g id="line2d_22">
    <path clip-path="url(#pbfb159fac8)" d="M 100.163182 162.203654 
L 115.7139 179.020895 
L 131.264617 169.530525 
L 146.815335 170.721179 
L 162.366053 174.138569 
L 177.91677 168.357118 
L 193.467488 176.620979 
L 209.018206 171.823536 
L 224.568923 175.368278 
L 240.119641 168.964339 
L 255.670359 165.539046 
L 271.221077 179.020895 
L 286.771794 166.112387 
L 302.322512 169.54155 
L 317.87323 171.8194 
L 333.423947 165.539046 
L 348.974665 159.549672 
L 364.525383 154.664969 
L 380.0761 175.368278 
L 395.626818 162.821061 
" style="fill:none;stroke:#556b2f;stroke-dasharray:1.85,0.8;stroke-dashoffset:0;stroke-width:0.5;"/>
   </g>
   <g id="patch_3">
    <path d="M 85.39 211.94 
L 85.39 21.6 
" style="fill:none;stroke:#cccccc;stroke-linecap:square;stroke-linejoin:miter;stroke-width:0.8;"/>
   </g>
   <g id="patch_4">
    <path d="M 85.39 211.94 
L 410.4 211.94 
" style="fill:none;stroke:#cccccc;stroke-linecap:square;stroke-linejoin:miter;stroke-width:0.8;"/>
   </g>
   <g id="legend_1">
    <g id="patch_5">
     <path d="M 99.39 151.6625 
L 230.0775 151.6625 
Q 234.0775 151.6625 234.0775 147.6625 
L 234.0775 35.6 
Q 234.0775 31.6 230.0775 31.6 
L 99.39 31.6 
Q 95.39 31.6 95.39 35.6 
L 95.39 147.6625 
Q 95.39 151.6625 99.39 151.6625 
z
" style="fill:#ffffff;opacity:0.8;stroke:#cccccc;stroke-linejoin:miter;"/>
    </g>
    <g id="line2d_23">
     <path d="M 103.39 46.946875 
L 143.39 46.946875 
" style="fill:none;stroke:#ff8c00;stroke-linecap:round;stroke-opacity:0.8;stroke-width:0.7;"/>
    </g>
    <g id="line2d_24">
     <g>
      <use style="fill:#ff8c00;fill-opacity:0.8;stroke:#000000;stroke-linejoin:miter;stroke-opacity:0.8;" x="123.39" xlink:href="#m6fc7f35dce" y="46.946875"/>
     </g>
    </g>
    <g id="text_9">
     <!-- Class d -->
     <g style="fill:#262626;" transform="translate(159.39 53.946875)scale(0.2 -0.2)">
      <defs>
       <path d="M 2422 4716 
Q 3294 4716 3775 4256 
Q 4256 3797 4309 3213 
L 3703 3213 
Q 3600 3656 3292 3915 
Q 2984 4175 2428 4175 
Q 1750 4175 1333 3698 
Q 916 3222 916 2238 
Q 916 1431 1292 929 
Q 1669 428 2416 428 
Q 3103 428 3463 956 
Q 3653 1234 3747 1688 
L 4353 1688 
Q 4272 963 3816 472 
Q 3269 -119 2341 -119 
Q 1541 -119 997 366 
Q 281 1006 281 2344 
Q 281 3359 819 4009 
Q 1400 4716 2422 4716 
z
M 2297 4716 
L 2297 4716 
z
" id="Helvetica-43" transform="scale(0.015625)"/>
       <path d="M 428 4591 
L 991 4591 
L 991 0 
L 428 0 
L 428 4591 
z
" id="Helvetica-6c" transform="scale(0.015625)"/>
      </defs>
      <use xlink:href="#Helvetica-43"/>
      <use x="72.216797" xlink:href="#Helvetica-6c"/>
      <use x="94.433594" xlink:href="#Helvetica-61"/>
      <use x="150.048828" xlink:href="#Helvetica-73"/>
      <use x="200.048828" xlink:href="#Helvetica-73"/>
      <use x="250.048828" xlink:href="#Helvetica-20"/>
      <use x="277.832031" xlink:href="#Helvetica-64"/>
     </g>
    </g>
    <g id="line2d_25">
     <path d="M 103.39 75.4625 
L 143.39 75.4625 
" style="fill:none;stroke:#808080;stroke-linecap:round;stroke-opacity:0.8;stroke-width:0.7;"/>
    </g>
    <g id="line2d_26">
     <g>
      <use style="fill:#808080;fill-opacity:0.8;stroke:#000000;stroke-linejoin:miter;stroke-opacity:0.8;" x="123.39" xlink:href="#m2bfd318dad" y="75.4625"/>
     </g>
    </g>
    <g id="text_10">
     <!-- Class b -->
     <g style="fill:#262626;" transform="translate(159.39 82.4625)scale(0.2 -0.2)">
      <use xlink:href="#Helvetica-43"/>
      <use x="72.216797" xlink:href="#Helvetica-6c"/>
      <use x="94.433594" xlink:href="#Helvetica-61"/>
      <use x="150.048828" xlink:href="#Helvetica-73"/>
      <use x="200.048828" xlink:href="#Helvetica-73"/>
      <use x="250.048828" xlink:href="#Helvetica-20"/>
      <use x="277.832031" xlink:href="#Helvetica-62"/>
     </g>
    </g>
    <g id="line2d_27">
     <path d="M 103.39 103.978125 
L 143.39 103.978125 
" style="fill:none;stroke:#f4a460;stroke-linecap:round;stroke-opacity:0.8;stroke-width:0.7;"/>
    </g>
    <g id="line2d_28">
     <g>
      <use style="fill:#f4a460;fill-opacity:0.8;stroke:#000000;stroke-linejoin:miter;stroke-opacity:0.8;" x="123.39" xlink:href="#m09bf0a9eec" y="103.978125"/>
     </g>
    </g>
    <g id="text_11">
     <!-- Class c -->
     <g style="fill:#262626;" transform="translate(159.39 110.978125)scale(0.2 -0.2)">
      <use xlink:href="#Helvetica-43"/>
      <use x="72.216797" xlink:href="#Helvetica-6c"/>
      <use x="94.433594" xlink:href="#Helvetica-61"/>
      <use x="150.048828" xlink:href="#Helvetica-73"/>
      <use x="200.048828" xlink:href="#Helvetica-73"/>
      <use x="250.048828" xlink:href="#Helvetica-20"/>
      <use x="277.832031" xlink:href="#Helvetica-63"/>
     </g>
    </g>
    <g id="line2d_29">
     <path d="M 103.39 132.49375 
L 143.39 132.49375 
" style="fill:none;stroke:#556b2f;stroke-linecap:round;stroke-opacity:0.8;stroke-width:0.7;"/>
    </g>
    <g id="line2d_30">
     <g>
      <use style="fill:#556b2f;fill-opacity:0.8;stroke:#000000;stroke-linejoin:miter;stroke-opacity:0.8;" x="123.39" xlink:href="#mbc8b5d54e6" y="132.49375"/>
     </g>
    </g>
    <g id="text_12">
     <!-- Class a -->
     <g style="fill:#262626;" transform="translate(159.39 139.49375)scale(0.2 -0.2)">
      <use xlink:href="#Helvetica-43"/>
      <use x="72.216797" xlink:href="#Helvetica-6c"/>
      <use x="94.433594" xlink:href="#Helvetica-61"/>
      <use x="150.048828" xlink:href="#Helvetica-73"/>
      <use x="200.048828" xlink:href="#Helvetica-73"/>
      <use x="250.048828" xlink:href="#Helvetica-20"/>
      <use x="277.832031" xlink:href="#Helvetica-61"/>
     </g>
    </g>
   </g>
  </g>
 </g>
 <defs>
  <clipPath id="pbfb159fac8">
   <rect height="190.34" width="325.01" x="85.39" y="21.6"/>
  </clipPath>
 </defs>
</svg>
