<?xml version="1.0" encoding="utf-8" standalone="no"?>
<!DOCTYPE svg PUBLIC "-//W3C//DTD SVG 1.1//EN"
  "http://www.w3.org/Graphics/SVG/1.1/DTD/svg11.dtd">
<svg height="216pt" version="1.1" viewBox="0 0 306 216" width="306pt" xmlns="http://www.w3.org/2000/svg" xmlns:xlink="http://www.w3.org/1999/xlink">
 <metadata>
  <rdf:RDF xmlns:cc="http://creativecommons.org/ns#" xmlns:dc="http://purl.org/dc/elements/1.1/" xmlns:rdf="http://www.w3.org/1999/02/22-rdf-syntax-ns#">
   <cc:Work>
    <dc:type rdf:resource="http://purl.org/dc/dcmitype/StillImage"/>
    <dc:date>2021-12-20T20:04:05.473321</dc:date>
    <dc:format>image/svg+xml</dc:format>
    <dc:creator>
     <cc:Agent>
      <dc:title>Matplotlib v3.4.2, https://matplotlib.org/</dc:title>
     </cc:Agent>
    </dc:creator>
   </cc:Work>
  </rdf:RDF>
 </metadata>
 <defs>
  <style type="text/css">*{stroke-linecap:butt;stroke-linejoin:round;}</style>
 </defs>
 <g id="figure_1">
  <g id="patch_1">
   <path d="M 0 216 
L 306 216 
L 306 0 
L 0 0 
z
" style="fill:#ffffff;"/>
  </g>
  <g id="axes_1">
   <g id="patch_2">
    <path d="M 94.94 141.64 
L 284.4 141.64 
L 284.4 28.746741 
L 94.94 28.746741 
z
" style="fill:#ffffff;"/>
   </g>
   <g id="line2d_1">
    <path clip-path="url(#pae7d97fef7)" d="M 94.94 28.820479 
L 284.4 28.820479 
" style="fill:none;stroke:#000000;stroke-linecap:round;stroke-width:0.5;"/>
   </g>
   <g id="patch_3">
    <path clip-path="url(#pae7d97fef7)" d="M 100.523163 28.746741 
Q 102.797109 28.746741 104.051431 28.753756 
Q 105.305752 28.760756 105.443962 28.769663 
L 103.863673 28.769663 
Q 103.595077 28.762907 102.791894 28.758957 
Q 101.988711 28.754991 100.53881 28.754991 
Q 98.770765 28.754991 97.683339 28.762266 
Q 96.595913 28.769526 96.595913 28.784532 
Q 96.595913 28.79684 97.576421 28.804496 
Q 98.559538 28.812137 100.507517 28.812137 
Q 102.299032 28.812137 103.237817 28.804084 
Q 103.733287 28.799844 103.978414 28.792921 
L 105.558702 28.792921 
Q 105.347475 28.803977 104.158348 28.811466 
Q 102.731916 28.820479 100.311937 28.820479 
Q 98.225748 28.820479 96.807139 28.813082 
Q 94.94 28.803322 94.94 28.782916 
Q 94.94 28.767436 96.342962 28.757523 
Q 97.858057 28.746741 100.523163 28.746741 
z
M 100.197196 28.746741 
L 100.197196 28.746741 
z
" style="fill:#0000ff;"/>
   </g>
   <g id="patch_4">
    <path clip-path="url(#pae7d97fef7)" d="M 111.700744 28.746741 
Q 113.97469 28.746741 115.229012 28.753756 
Q 116.483333 28.760756 116.621543 28.769663 
L 115.041255 28.769663 
Q 114.772658 28.762907 113.969475 28.758957 
Q 113.166292 28.754991 111.716391 28.754991 
Q 109.948346 28.754991 108.86092 28.762266 
Q 107.773494 28.769526 107.773494 28.784532 
Q 107.773494 28.79684 108.754002 28.804496 
Q 109.737119 28.812137 111.685098 28.812137 
Q 113.476613 28.812137 114.415398 28.804084 
Q 114.910868 28.799844 115.155995 28.792921 
L 116.736283 28.792921 
Q 116.525057 28.803977 115.335929 28.811466 
Q 113.909497 28.820479 111.489518 28.820479 
Q 109.403329 28.820479 107.98472 28.813082 
Q 106.117581 28.803322 106.117581 28.782916 
Q 106.117581 28.767436 107.520543 28.757523 
Q 109.035638 28.746741 111.700744 28.746741 
z
M 111.374777 28.746741 
L 111.374777 28.746741 
z
" style="fill:#0000ff;"/>
   </g>
   <g id="patch_5">
    <path clip-path="url(#pae7d97fef7)" d="M 124.422678 28.790267 
L 122.616176 28.757695 
L 120.695635 28.790267 
L 124.422678 28.790267 
z
M 121.773834 28.746741 
L 123.595886 28.746741 
L 127.913864 28.820479 
L 126.14624 28.820479 
L 124.941042 28.798394 
L 120.23429 28.798394 
L 118.946154 28.820479 
L 117.295162 28.820479 
L 121.773834 28.746741 
z
M 122.608401 28.746741 
L 122.608401 28.746741 
z
" style="fill:#008000;"/>
   </g>
   <g id="patch_6">
    <path clip-path="url(#pae7d97fef7)" d="M 135.600259 28.790267 
L 133.793758 28.757695 
L 131.873216 28.790267 
L 135.600259 28.790267 
z
M 132.951415 28.746741 
L 134.773467 28.746741 
L 139.091445 28.820479 
L 137.323822 28.820479 
L 136.118624 28.798394 
L 131.411872 28.798394 
L 130.123735 28.820479 
L 128.472743 28.820479 
L 132.951415 28.746741 
z
M 133.785982 28.746741 
L 133.785982 28.746741 
z
" style="fill:#008000;"/>
   </g>
   <g id="patch_7">
    <path clip-path="url(#pae7d97fef7)" d="M 145.233488 28.746741 
Q 147.507434 28.746741 148.761755 28.753756 
Q 150.016076 28.760756 150.154286 28.769663 
L 148.573998 28.769663 
Q 148.305401 28.762907 147.502218 28.758957 
Q 146.699036 28.754991 145.249134 28.754991 
Q 143.481089 28.754991 142.393663 28.762266 
Q 141.306237 28.769526 141.306237 28.784532 
Q 141.306237 28.79684 142.286746 28.804496 
Q 143.269862 28.812137 145.217841 28.812137 
Q 147.009356 28.812137 147.948141 28.804084 
Q 148.443611 28.799844 148.688738 28.792921 
L 150.269027 28.792921 
Q 150.0578 28.803977 148.868672 28.811466 
Q 147.44224 28.820479 145.022261 28.820479 
Q 142.936072 28.820479 141.517464 28.813082 
Q 139.650324 28.803322 139.650324 28.782916 
Q 139.650324 28.767436 141.053287 28.757523 
Q 142.568381 28.746741 145.233488 28.746741 
z
M 144.907521 28.746741 
L 144.907521 28.746741 
z
" style="fill:#0000ff;"/>
   </g>
   <g id="patch_8">
    <path clip-path="url(#pae7d97fef7)" d="M 157.955421 28.790267 
L 156.14892 28.757695 
L 154.228378 28.790267 
L 157.955421 28.790267 
z
M 155.306577 28.746741 
L 157.128629 28.746741 
L 161.446608 28.820479 
L 159.678984 28.820479 
L 158.473786 28.798394 
L 153.767034 28.798394 
L 152.478897 28.820479 
L 150.827906 28.820479 
L 155.306577 28.746741 
z
M 156.141144 28.746741 
L 156.141144 28.746741 
z
" style="fill:#008000;"/>
   </g>
   <g id="patch_9">
    <path clip-path="url(#pae7d97fef7)" d="M 169.133002 28.790267 
L 167.326501 28.757695 
L 165.40596 28.790267 
L 169.133002 28.790267 
z
M 166.484158 28.746741 
L 168.30621 28.746741 
L 172.624189 28.820479 
L 170.856565 28.820479 
L 169.651367 28.798394 
L 164.944615 28.798394 
L 163.656478 28.820479 
L 162.005487 28.820479 
L 166.484158 28.746741 
z
M 167.318725 28.746741 
L 167.318725 28.746741 
z
" style="fill:#008000;"/>
   </g>
   <g id="patch_10">
    <path clip-path="url(#pae7d97fef7)" d="M 180.310583 28.790267 
L 178.504082 28.757695 
L 176.583541 28.790267 
L 180.310583 28.790267 
z
M 177.661739 28.746741 
L 179.483791 28.746741 
L 183.80177 28.820479 
L 182.034146 28.820479 
L 180.828948 28.798394 
L 176.122196 28.798394 
L 174.83406 28.820479 
L 173.183068 28.820479 
L 177.661739 28.746741 
z
M 178.496307 28.746741 
L 178.496307 28.746741 
z
" style="fill:#008000;"/>
   </g>
   <g id="patch_11">
    <path clip-path="url(#pae7d97fef7)" d="M 189.837104 28.746847 
Q 191.47523 28.746847 192.670277 28.750658 
Q 194.402083 28.756129 194.78946 28.769847 
L 193.232354 28.769847 
Q 192.946252 28.76218 192.052498 28.758675 
Q 191.158745 28.755169 189.796594 28.755169 
Q 188.183787 28.755169 187.079887 28.76247 
Q 185.975988 28.769755 185.975988 28.784189 
Q 185.975988 28.796657 186.884933 28.804491 
Q 187.796409 28.812325 189.852295 28.812325 
Q 191.427124 28.812325 192.460131 28.806838 
Q 193.493138 28.801336 193.515925 28.789036 
L 189.877614 28.789036 
L 189.877614 28.781186 
L 194.979351 28.781186 
L 194.979351 28.818619 
L 193.966599 28.818619 
L 193.586817 28.809612 
Q 192.789275 28.814901 192.171497 28.816958 
Q 191.133426 28.820479 189.53581 28.820479 
Q 187.472329 28.820479 185.983584 28.812431 
Q 184.360649 28.802326 184.360649 28.784707 
Q 184.360649 28.767134 185.943074 28.756754 
Q 187.44701 28.746847 189.837104 28.746847 
z
M 189.57632 28.746741 
L 189.57632 28.746741 
z
" style="fill:#ffa600;"/>
   </g>
   <g id="patch_12">
    <path clip-path="url(#pae7d97fef7)" d="M 201.014685 28.746847 
Q 202.652811 28.746847 203.847858 28.750658 
Q 205.579664 28.756129 205.967041 28.769847 
L 204.409935 28.769847 
Q 204.123833 28.76218 203.23008 28.758675 
Q 202.336326 28.755169 200.974175 28.755169 
Q 199.361368 28.755169 198.257469 28.76247 
Q 197.153569 28.769755 197.153569 28.784189 
Q 197.153569 28.796657 198.062514 28.804491 
Q 198.97399 28.812325 201.029876 28.812325 
Q 202.604705 28.812325 203.637712 28.806838 
Q 204.670719 28.801336 204.693506 28.789036 
L 201.055195 28.789036 
L 201.055195 28.781186 
L 206.156932 28.781186 
L 206.156932 28.818619 
L 205.14418 28.818619 
L 204.764399 28.809612 
Q 203.966857 28.814901 203.349078 28.816958 
Q 202.311007 28.820479 200.713392 28.820479 
Q 198.64991 28.820479 197.161165 28.812431 
Q 195.53823 28.802326 195.53823 28.784707 
Q 195.53823 28.767134 197.120655 28.756754 
Q 198.624591 28.746847 201.014685 28.746847 
z
M 200.753902 28.746741 
L 200.753902 28.746741 
z
" style="fill:#ffa600;"/>
   </g>
   <g id="patch_13">
    <path clip-path="url(#pae7d97fef7)" d="M 212.192266 28.746847 
Q 213.830392 28.746847 215.025439 28.750658 
Q 216.757245 28.756129 217.144622 28.769847 
L 215.587517 28.769847 
Q 215.301414 28.76218 214.407661 28.758675 
Q 213.513907 28.755169 212.151756 28.755169 
Q 210.538949 28.755169 209.43505 28.76247 
Q 208.33115 28.769755 208.33115 28.784189 
Q 208.33115 28.796657 209.240095 28.804491 
Q 210.151572 28.812325 212.207458 28.812325 
Q 213.782287 28.812325 214.815293 28.806838 
Q 215.8483 28.801336 215.871087 28.789036 
L 212.232776 28.789036 
L 212.232776 28.781186 
L 217.334513 28.781186 
L 217.334513 28.818619 
L 216.321762 28.818619 
L 215.94198 28.809612 
Q 215.144438 28.814901 214.526659 28.816958 
Q 213.488589 28.820479 211.890973 28.820479 
Q 209.827491 28.820479 208.338746 28.812431 
Q 206.715811 28.802326 206.715811 28.784707 
Q 206.715811 28.767134 208.298236 28.756754 
Q 209.802172 28.746847 212.192266 28.746847 
z
M 211.931483 28.746741 
L 211.931483 28.746741 
z
" style="fill:#ffa600;"/>
   </g>
   <g id="patch_14">
    <path clip-path="url(#pae7d97fef7)" d="M 228.512094 28.746741 
L 228.512094 28.755526 
L 224.102126 28.755526 
L 224.102126 28.820479 
L 222.303361 28.820479 
L 222.303361 28.755526 
L 217.893392 28.755526 
L 217.893392 28.746741 
L 228.512094 28.746741 
z
" style="fill:#ff0000;"/>
   </g>
   <g id="patch_15">
    <path clip-path="url(#pae7d97fef7)" d="M 239.689676 28.746741 
L 239.689676 28.755526 
L 235.279707 28.755526 
L 235.279707 28.820479 
L 233.480942 28.820479 
L 233.480942 28.755526 
L 229.070973 28.755526 
L 229.070973 28.746741 
L 239.689676 28.746741 
z
" style="fill:#ff0000;"/>
   </g>
   <g id="patch_16">
    <path clip-path="url(#pae7d97fef7)" d="M 245.72501 28.746847 
Q 247.363136 28.746847 248.558183 28.750658 
Q 250.289988 28.756129 250.677366 28.769847 
L 249.12026 28.769847 
Q 248.834158 28.76218 247.940404 28.758675 
Q 247.046651 28.755169 245.6845 28.755169 
Q 244.071692 28.755169 242.967793 28.76247 
Q 241.863894 28.769755 241.863894 28.784189 
Q 241.863894 28.796657 242.772838 28.804491 
Q 243.684315 28.812325 245.740201 28.812325 
Q 247.31503 28.812325 248.348037 28.806838 
Q 249.381043 28.801336 249.40383 28.789036 
L 245.76552 28.789036 
L 245.76552 28.781186 
L 250.867257 28.781186 
L 250.867257 28.818619 
L 249.854505 28.818619 
L 249.474723 28.809612 
Q 248.677181 28.814901 248.059402 28.816958 
Q 247.021332 28.820479 245.423716 28.820479 
Q 243.360234 28.820479 241.871489 28.812431 
Q 240.248555 28.802326 240.248555 28.784707 
Q 240.248555 28.767134 241.830979 28.756754 
Q 243.334916 28.746847 245.72501 28.746847 
z
M 245.464226 28.746741 
L 245.464226 28.746741 
z
" style="fill:#ffa600;"/>
   </g>
   <g id="patch_17">
    <path clip-path="url(#pae7d97fef7)" d="M 258.553651 28.790267 
L 256.74715 28.757695 
L 254.826609 28.790267 
L 258.553651 28.790267 
z
M 255.904807 28.746741 
L 257.726859 28.746741 
L 262.044838 28.820479 
L 260.277214 28.820479 
L 259.072016 28.798394 
L 254.365264 28.798394 
L 253.077127 28.820479 
L 251.426136 28.820479 
L 255.904807 28.746741 
z
M 256.739374 28.746741 
L 256.739374 28.746741 
z
" style="fill:#008000;"/>
   </g>
   <g id="patch_18">
    <path clip-path="url(#pae7d97fef7)" d="M 268.080172 28.746847 
Q 269.718298 28.746847 270.913345 28.750658 
Q 272.64515 28.756129 273.032528 28.769847 
L 271.475422 28.769847 
Q 271.18932 28.76218 270.295566 28.758675 
Q 269.401813 28.755169 268.039662 28.755169 
Q 266.426855 28.755169 265.322955 28.76247 
Q 264.219056 28.769755 264.219056 28.784189 
Q 264.219056 28.796657 265.128001 28.804491 
Q 266.039477 28.812325 268.095363 28.812325 
Q 269.670192 28.812325 270.703199 28.806838 
Q 271.736206 28.801336 271.758993 28.789036 
L 268.120682 28.789036 
L 268.120682 28.781186 
L 273.222419 28.781186 
L 273.222419 28.818619 
L 272.209667 28.818619 
L 271.829885 28.809612 
Q 271.032343 28.814901 270.414565 28.816958 
Q 269.376494 28.820479 267.778878 28.820479 
Q 265.715397 28.820479 264.226651 28.812431 
Q 262.603717 28.802326 262.603717 28.784707 
Q 262.603717 28.767134 264.186141 28.756754 
Q 265.690078 28.746847 268.080172 28.746847 
z
M 267.819388 28.746741 
L 267.819388 28.746741 
z
" style="fill:#ffa600;"/>
   </g>
   <g id="patch_19">
    <path clip-path="url(#pae7d97fef7)" d="M 279.364461 28.746741 
Q 281.638407 28.746741 282.892728 28.753756 
Q 284.14705 28.760756 284.28526 28.769663 
L 282.704971 28.769663 
Q 282.436375 28.762907 281.633192 28.758957 
Q 280.830009 28.754991 279.380108 28.754991 
Q 277.612063 28.754991 276.524636 28.762266 
Q 275.43721 28.769526 275.43721 28.784532 
Q 275.43721 28.79684 276.417719 28.804496 
Q 277.400836 28.812137 279.348815 28.812137 
Q 281.14033 28.812137 282.079115 28.804084 
Q 282.574585 28.799844 282.819712 28.792921 
L 284.4 28.792921 
Q 284.188773 28.803977 282.999646 28.811466 
Q 281.573214 28.820479 279.153235 28.820479 
Q 277.067046 28.820479 275.648437 28.813082 
Q 273.781298 28.803322 273.781298 28.782916 
Q 273.781298 28.767436 275.18426 28.757523 
Q 276.699355 28.746741 279.364461 28.746741 
z
M 279.038494 28.746741 
L 279.038494 28.746741 
z
" style="fill:#0000ff;"/>
   </g>
   <g id="patch_20">
    <path clip-path="url(#pae7d97fef7)" d="M 102.067515 119.44143 
L 100.261014 136.053496 
L 98.340473 119.44143 
L 102.067515 119.44143 
z
M 99.418672 141.64 
L 101.240724 141.64 
L 105.558702 104.033493 
L 103.791078 104.033493 
L 102.58588 115.296605 
L 97.879128 115.296605 
L 96.590992 104.033493 
L 94.94 104.033493 
L 99.418672 141.64 
z
M 100.253239 141.64 
L 100.253239 141.64 
z
" style="fill:none;opacity:0;"/>
   </g>
   <g id="patch_21">
    <path clip-path="url(#pae7d97fef7)" d="M 100.416455 103.979081 
Q 102.054581 103.979081 103.249628 102.035793 
Q 104.981434 99.245232 105.368811 92.249395 
L 103.811705 92.249395 
Q 103.525603 96.15929 102.63185 97.947115 
Q 101.738096 99.73494 100.375945 99.73494 
Q 98.763138 99.73494 97.659238 96.011601 
Q 96.555339 92.296034 96.555339 84.93486 
Q 96.555339 78.576422 97.464284 74.581022 
Q 98.37576 70.585622 100.431646 70.585622 
Q 102.006475 70.585622 103.039482 73.383957 
Q 104.072489 76.190064 104.095276 82.462998 
L 100.456965 82.462998 
L 100.456965 86.466171 
L 105.558702 86.466171 
L 105.558702 67.37531 
L 104.54595 67.37531 
L 104.166168 71.969243 
Q 103.368626 69.271959 102.750848 68.222584 
Q 101.712777 66.426986 100.115161 66.426986 
Q 98.05168 66.426986 96.562935 70.53121 
Q 94.94 75.684809 94.94 84.670573 
Q 94.94 93.633016 96.522425 98.926532 
Q 98.026361 103.979081 100.416455 103.979081 
z
M 100.155671 104.033493 
L 100.155671 104.033493 
z
" style="fill:none;opacity:0;"/>
   </g>
   <g id="patch_22">
    <path clip-path="url(#pae7d97fef7)" d="M 105.558702 66.426986 
L 105.558702 61.946315 
L 101.148734 61.946315 
L 101.148734 28.820479 
L 99.349968 28.820479 
L 99.349968 61.946315 
L 94.94 61.946315 
L 94.94 66.426986 
L 105.558702 66.426986 
z
" style="fill:none;opacity:0;"/>
   </g>
   <g id="patch_23">
    <path clip-path="url(#pae7d97fef7)" d="M 113.245097 119.44143 
L 111.438595 136.053496 
L 109.518054 119.44143 
L 113.245097 119.44143 
z
M 110.596253 141.64 
L 112.418305 141.64 
L 116.736283 104.033493 
L 114.968659 104.033493 
L 113.763461 115.296605 
L 109.056709 115.296605 
L 107.768573 104.033493 
L 106.117581 104.033493 
L 110.596253 141.64 
z
M 111.43082 141.64 
L 111.43082 141.64 
z
" style="fill:none;opacity:0;"/>
   </g>
   <g id="patch_24">
    <path clip-path="url(#pae7d97fef7)" d="M 111.594036 103.979081 
Q 113.232162 103.979081 114.427209 102.035793 
Q 116.159015 99.245232 116.546392 92.249395 
L 114.989286 92.249395 
Q 114.703184 96.15929 113.809431 97.947115 
Q 112.915677 99.73494 111.553526 99.73494 
Q 109.940719 99.73494 108.83682 96.011601 
Q 107.73292 92.296034 107.73292 84.93486 
Q 107.73292 78.576422 108.641865 74.581022 
Q 109.553341 70.585622 111.609227 70.585622 
Q 113.184056 70.585622 114.217063 73.383957 
Q 115.25007 76.190064 115.272857 82.462998 
L 111.634546 82.462998 
L 111.634546 86.466171 
L 116.736283 86.466171 
L 116.736283 67.37531 
L 115.723531 67.37531 
L 115.34375 71.969243 
Q 114.546208 69.271959 113.928429 68.222584 
Q 112.890358 66.426986 111.292743 66.426986 
Q 109.229261 66.426986 107.740516 70.53121 
Q 106.117581 75.684809 106.117581 84.670573 
Q 106.117581 93.633016 107.700006 98.926532 
Q 109.203942 103.979081 111.594036 103.979081 
z
M 111.333253 104.033493 
L 111.333253 104.033493 
z
" style="fill:none;opacity:0;"/>
   </g>
   <g id="patch_25">
    <path clip-path="url(#pae7d97fef7)" d="M 116.736283 66.426986 
L 116.736283 61.946315 
L 112.326315 61.946315 
L 112.326315 28.820479 
L 110.527549 28.820479 
L 110.527549 61.946315 
L 106.117581 61.946315 
L 106.117581 66.426986 
L 116.736283 66.426986 
z
" style="fill:none;opacity:0;"/>
   </g>
   <g id="patch_26">
    <path clip-path="url(#pae7d97fef7)" d="M 122.878326 141.64 
Q 125.152272 141.64 126.406593 138.062132 
Q 127.660914 134.492041 127.799124 129.949704 
L 126.218836 129.949704 
Q 125.950239 133.395347 125.147056 135.409842 
Q 124.343873 137.432116 122.893972 137.432116 
Q 121.125927 137.432116 120.038501 133.722022 
Q 118.951075 130.019706 118.951075 122.366179 
Q 118.951075 116.089354 119.931584 112.18481 
Q 120.9147 108.288045 122.862679 108.288045 
Q 124.654194 108.288045 125.592979 112.394816 
Q 126.088449 114.557093 126.333576 118.088293 
L 127.913864 118.088293 
Q 127.702638 112.449261 126.51351 108.630276 
Q 125.087078 104.033493 122.667099 104.033493 
Q 120.58091 104.033493 119.162301 107.805811 
Q 117.295162 112.783714 117.295162 123.190644 
Q 117.295162 131.085289 118.698124 136.140972 
Q 120.213219 141.64 122.878326 141.64 
z
M 122.552359 141.64 
L 122.552359 141.64 
z
" style="fill:none;opacity:0;"/>
   </g>
   <g id="patch_27">
    <path clip-path="url(#pae7d97fef7)" d="M 122.771617 103.979081 
Q 124.409743 103.979081 125.60479 102.035793 
Q 127.336596 99.245232 127.723973 92.249395 
L 126.166868 92.249395 
Q 125.880765 96.15929 124.987012 97.947115 
Q 124.093258 99.73494 122.731107 99.73494 
Q 121.1183 99.73494 120.014401 96.011601 
Q 118.910501 92.296034 118.910501 84.93486 
Q 118.910501 78.576422 119.819446 74.581022 
Q 120.730923 70.585622 122.786809 70.585622 
Q 124.361638 70.585622 125.394644 73.383957 
Q 126.427651 76.190064 126.450438 82.462998 
L 122.812127 82.462998 
L 122.812127 86.466171 
L 127.913864 86.466171 
L 127.913864 67.37531 
L 126.901113 67.37531 
L 126.521331 71.969243 
Q 125.723789 69.271959 125.10601 68.222584 
Q 124.06794 66.426986 122.470324 66.426986 
Q 120.406842 66.426986 118.918097 70.53121 
Q 117.295162 75.684809 117.295162 84.670573 
Q 117.295162 93.633016 118.877587 98.926532 
Q 120.381523 103.979081 122.771617 103.979081 
z
M 122.510834 104.033493 
L 122.510834 104.033493 
z
" style="fill:none;opacity:0;"/>
   </g>
   <g id="patch_28">
    <path clip-path="url(#pae7d97fef7)" d="M 127.913864 66.426986 
L 127.913864 61.946315 
L 123.503896 61.946315 
L 123.503896 28.820479 
L 121.705131 28.820479 
L 121.705131 61.946315 
L 117.295162 61.946315 
L 117.295162 66.426986 
L 127.913864 66.426986 
z
" style="fill:none;opacity:0;"/>
   </g>
   <g id="patch_29">
    <path clip-path="url(#pae7d97fef7)" d="M 134.055907 141.64 
Q 136.329853 141.64 137.584174 138.062132 
Q 138.838495 134.492041 138.976705 129.949704 
L 137.396417 129.949704 
Q 137.12782 133.395347 136.324637 135.409842 
Q 135.521454 137.432116 134.071553 137.432116 
Q 132.303508 137.432116 131.216082 133.722022 
Q 130.128656 130.019706 130.128656 122.366179 
Q 130.128656 116.089354 131.109165 112.18481 
Q 132.092281 108.288045 134.04026 108.288045 
Q 135.831775 108.288045 136.77056 112.394816 
Q 137.26603 114.557093 137.511157 118.088293 
L 139.091445 118.088293 
Q 138.880219 112.449261 137.691091 108.630276 
Q 136.264659 104.033493 133.84468 104.033493 
Q 131.758491 104.033493 130.339883 107.805811 
Q 128.472743 112.783714 128.472743 123.190644 
Q 128.472743 131.085289 129.875705 136.140972 
Q 131.3908 141.64 134.055907 141.64 
z
M 133.72994 141.64 
L 133.72994 141.64 
z
" style="fill:none;opacity:0;"/>
   </g>
   <g id="patch_30">
    <path clip-path="url(#pae7d97fef7)" d="M 133.949198 103.979081 
Q 135.587324 103.979081 136.782371 102.035793 
Q 138.514177 99.245232 138.901554 92.249395 
L 137.344449 92.249395 
Q 137.058346 96.15929 136.164593 97.947115 
Q 135.270839 99.73494 133.908688 99.73494 
Q 132.295881 99.73494 131.191982 96.011601 
Q 130.088082 92.296034 130.088082 84.93486 
Q 130.088082 78.576422 130.997027 74.581022 
Q 131.908504 70.585622 133.96439 70.585622 
Q 135.539219 70.585622 136.572225 73.383957 
Q 137.605232 76.190064 137.628019 82.462998 
L 133.989709 82.462998 
L 133.989709 86.466171 
L 139.091445 86.466171 
L 139.091445 67.37531 
L 138.078694 67.37531 
L 137.698912 71.969243 
Q 136.90137 69.271959 136.283591 68.222584 
Q 135.245521 66.426986 133.647905 66.426986 
Q 131.584423 66.426986 130.095678 70.53121 
Q 128.472743 75.684809 128.472743 84.670573 
Q 128.472743 93.633016 130.055168 98.926532 
Q 131.559104 103.979081 133.949198 103.979081 
z
M 133.688415 104.033493 
L 133.688415 104.033493 
z
" style="fill:none;opacity:0;"/>
   </g>
   <g id="patch_31">
    <path clip-path="url(#pae7d97fef7)" d="M 139.091445 66.426986 
L 139.091445 61.946315 
L 134.681477 61.946315 
L 134.681477 28.820479 
L 132.882712 28.820479 
L 132.882712 61.946315 
L 128.472743 61.946315 
L 128.472743 66.426986 
L 139.091445 66.426986 
z
" style="fill:none;opacity:0;"/>
   </g>
   <g id="patch_32">
    <path clip-path="url(#pae7d97fef7)" d="M 146.77784 119.44143 
L 144.971339 136.053496 
L 143.050797 119.44143 
L 146.77784 119.44143 
z
M 144.128996 141.64 
L 145.951048 141.64 
L 150.269027 104.033493 
L 148.501403 104.033493 
L 147.296205 115.296605 
L 142.589453 115.296605 
L 141.301316 104.033493 
L 139.650324 104.033493 
L 144.128996 141.64 
z
M 144.963563 141.64 
L 144.963563 141.64 
z
" style="fill:none;opacity:0;"/>
   </g>
   <g id="patch_33">
    <path clip-path="url(#pae7d97fef7)" d="M 145.12678 103.979081 
Q 146.764906 103.979081 147.959953 102.035793 
Q 149.691758 99.245232 150.079136 92.249395 
L 148.52203 92.249395 
Q 148.235927 96.15929 147.342174 97.947115 
Q 146.448421 99.73494 145.086269 99.73494 
Q 143.473462 99.73494 142.369563 96.011601 
Q 141.265664 92.296034 141.265664 84.93486 
Q 141.265664 78.576422 142.174608 74.581022 
Q 143.086085 70.585622 145.141971 70.585622 
Q 146.7168 70.585622 147.749807 73.383957 
Q 148.782813 76.190064 148.8056 82.462998 
L 145.16729 82.462998 
L 145.16729 86.466171 
L 150.269027 86.466171 
L 150.269027 67.37531 
L 149.256275 67.37531 
L 148.876493 71.969243 
Q 148.078951 69.271959 147.461172 68.222584 
Q 146.423102 66.426986 144.825486 66.426986 
Q 142.762004 66.426986 141.273259 70.53121 
Q 139.650324 75.684809 139.650324 84.670573 
Q 139.650324 93.633016 141.232749 98.926532 
Q 142.736685 103.979081 145.12678 103.979081 
z
M 144.865996 104.033493 
L 144.865996 104.033493 
z
" style="fill:none;opacity:0;"/>
   </g>
   <g id="patch_34">
    <path clip-path="url(#pae7d97fef7)" d="M 150.269027 66.426986 
L 150.269027 61.946315 
L 145.859058 61.946315 
L 145.859058 28.820479 
L 144.060293 28.820479 
L 144.060293 61.946315 
L 139.650324 61.946315 
L 139.650324 66.426986 
L 150.269027 66.426986 
z
" style="fill:none;opacity:0;"/>
   </g>
   <g id="patch_35">
    <path clip-path="url(#pae7d97fef7)" d="M 156.411069 141.64 
Q 158.685015 141.64 159.939336 138.062132 
Q 161.193657 134.492041 161.331867 129.949704 
L 159.751579 129.949704 
Q 159.482982 133.395347 158.679799 135.409842 
Q 157.876617 137.432116 156.426715 137.432116 
Q 154.65867 137.432116 153.571244 133.722022 
Q 152.483818 130.019706 152.483818 122.366179 
Q 152.483818 116.089354 153.464327 112.18481 
Q 154.447444 108.288045 156.395423 108.288045 
Q 158.186937 108.288045 159.125722 112.394816 
Q 159.621192 114.557093 159.866319 118.088293 
L 161.446608 118.088293 
Q 161.235381 112.449261 160.046253 108.630276 
Q 158.619822 104.033493 156.199842 104.033493 
Q 154.113653 104.033493 152.695045 107.805811 
Q 150.827906 112.783714 150.827906 123.190644 
Q 150.827906 131.085289 152.230868 136.140972 
Q 153.745962 141.64 156.411069 141.64 
z
M 156.085102 141.64 
L 156.085102 141.64 
z
" style="fill:none;opacity:0;"/>
   </g>
   <g id="patch_36">
    <path clip-path="url(#pae7d97fef7)" d="M 156.304361 103.979081 
Q 157.942487 103.979081 159.137534 102.035793 
Q 160.869339 99.245232 161.256717 92.249395 
L 159.699611 92.249395 
Q 159.413509 96.15929 158.519755 97.947115 
Q 157.626002 99.73494 156.263851 99.73494 
Q 154.651043 99.73494 153.547144 96.011601 
Q 152.443245 92.296034 152.443245 84.93486 
Q 152.443245 78.576422 153.352189 74.581022 
Q 154.263666 70.585622 156.319552 70.585622 
Q 157.894381 70.585622 158.927388 73.383957 
Q 159.960394 76.190064 159.983181 82.462998 
L 156.344871 82.462998 
L 156.344871 86.466171 
L 161.446608 86.466171 
L 161.446608 67.37531 
L 160.433856 67.37531 
L 160.054074 71.969243 
Q 159.256532 69.271959 158.638753 68.222584 
Q 157.600683 66.426986 156.003067 66.426986 
Q 153.939585 66.426986 152.45084 70.53121 
Q 150.827906 75.684809 150.827906 84.670573 
Q 150.827906 93.633016 152.41033 98.926532 
Q 153.914267 103.979081 156.304361 103.979081 
z
M 156.043577 104.033493 
L 156.043577 104.033493 
z
" style="fill:none;opacity:0;"/>
   </g>
   <g id="patch_37">
    <path clip-path="url(#pae7d97fef7)" d="M 161.446608 66.426986 
L 161.446608 61.946315 
L 157.036639 61.946315 
L 157.036639 28.820479 
L 155.237874 28.820479 
L 155.237874 61.946315 
L 150.827906 61.946315 
L 150.827906 66.426986 
L 161.446608 66.426986 
z
" style="fill:none;opacity:0;"/>
   </g>
   <g id="patch_38">
    <path clip-path="url(#pae7d97fef7)" d="M 167.58865 141.64 
Q 169.862596 141.64 171.116917 138.062132 
Q 172.371238 134.492041 172.509448 129.949704 
L 170.92916 129.949704 
Q 170.660563 133.395347 169.857381 135.409842 
Q 169.054198 137.432116 167.604296 137.432116 
Q 165.836251 137.432116 164.748825 133.722022 
Q 163.661399 130.019706 163.661399 122.366179 
Q 163.661399 116.089354 164.641908 112.18481 
Q 165.625025 108.288045 167.573004 108.288045 
Q 169.364518 108.288045 170.303304 112.394816 
Q 170.798773 114.557093 171.043901 118.088293 
L 172.624189 118.088293 
Q 172.412962 112.449261 171.223834 108.630276 
Q 169.797403 104.033493 167.377423 104.033493 
Q 165.291234 104.033493 163.872626 107.805811 
Q 162.005487 112.783714 162.005487 123.190644 
Q 162.005487 131.085289 163.408449 136.140972 
Q 164.923544 141.64 167.58865 141.64 
z
M 167.262683 141.64 
L 167.262683 141.64 
z
" style="fill:none;opacity:0;"/>
   </g>
   <g id="patch_39">
    <path clip-path="url(#pae7d97fef7)" d="M 167.481942 103.979081 
Q 169.120068 103.979081 170.315115 102.035793 
Q 172.04692 99.245232 172.434298 92.249395 
L 170.877192 92.249395 
Q 170.59109 96.15929 169.697336 97.947115 
Q 168.803583 99.73494 167.441432 99.73494 
Q 165.828625 99.73494 164.724725 96.011601 
Q 163.620826 92.296034 163.620826 84.93486 
Q 163.620826 78.576422 164.52977 74.581022 
Q 165.441247 70.585622 167.497133 70.585622 
Q 169.071962 70.585622 170.104969 73.383957 
Q 171.137976 76.190064 171.160763 82.462998 
L 167.522452 82.462998 
L 167.522452 86.466171 
L 172.624189 86.466171 
L 172.624189 67.37531 
L 171.611437 67.37531 
L 171.231655 71.969243 
Q 170.434113 69.271959 169.816335 68.222584 
Q 168.778264 66.426986 167.180648 66.426986 
Q 165.117166 66.426986 163.628421 70.53121 
Q 162.005487 75.684809 162.005487 84.670573 
Q 162.005487 93.633016 163.587911 98.926532 
Q 165.091848 103.979081 167.481942 103.979081 
z
M 167.221158 104.033493 
L 167.221158 104.033493 
z
" style="fill:none;opacity:0;"/>
   </g>
   <g id="patch_40">
    <path clip-path="url(#pae7d97fef7)" d="M 172.624189 66.426986 
L 172.624189 61.946315 
L 168.21422 61.946315 
L 168.21422 28.820479 
L 166.415455 28.820479 
L 166.415455 61.946315 
L 162.005487 61.946315 
L 162.005487 66.426986 
L 172.624189 66.426986 
z
" style="fill:none;opacity:0;"/>
   </g>
   <g id="patch_41">
    <path clip-path="url(#pae7d97fef7)" d="M 178.766231 141.64 
Q 181.040177 141.64 182.294498 138.062132 
Q 183.548819 134.492041 183.68703 129.949704 
L 182.106741 129.949704 
Q 181.838145 133.395347 181.034962 135.409842 
Q 180.231779 137.432116 178.781878 137.432116 
Q 177.013832 137.432116 175.926406 133.722022 
Q 174.83898 130.019706 174.83898 122.366179 
Q 174.83898 116.089354 175.819489 112.18481 
Q 176.802606 108.288045 178.750585 108.288045 
Q 180.5421 108.288045 181.480885 112.394816 
Q 181.976355 114.557093 182.221482 118.088293 
L 183.80177 118.088293 
Q 183.590543 112.449261 182.401416 108.630276 
Q 180.974984 104.033493 178.555005 104.033493 
Q 176.468816 104.033493 175.050207 107.805811 
Q 173.183068 112.783714 173.183068 123.190644 
Q 173.183068 131.085289 174.58603 136.140972 
Q 176.101125 141.64 178.766231 141.64 
z
M 178.440264 141.64 
L 178.440264 141.64 
z
" style="fill:none;opacity:0;"/>
   </g>
   <g id="patch_42">
    <path clip-path="url(#pae7d97fef7)" d="M 178.659523 103.979081 
Q 180.297649 103.979081 181.492696 102.035793 
Q 183.224501 99.245232 183.611879 92.249395 
L 182.054773 92.249395 
Q 181.768671 96.15929 180.874917 97.947115 
Q 179.981164 99.73494 178.619013 99.73494 
Q 177.006206 99.73494 175.902306 96.011601 
Q 174.798407 92.296034 174.798407 84.93486 
Q 174.798407 78.576422 175.707352 74.581022 
Q 176.618828 70.585622 178.674714 70.585622 
Q 180.249543 70.585622 181.28255 73.383957 
Q 182.315557 76.190064 182.338344 82.462998 
L 178.700033 82.462998 
L 178.700033 86.466171 
L 183.80177 86.466171 
L 183.80177 67.37531 
L 182.789018 67.37531 
L 182.409236 71.969243 
Q 181.611694 69.271959 180.993916 68.222584 
Q 179.955845 66.426986 178.358229 66.426986 
Q 176.294748 66.426986 174.806003 70.53121 
Q 173.183068 75.684809 173.183068 84.670573 
Q 173.183068 93.633016 174.765492 98.926532 
Q 176.269429 103.979081 178.659523 103.979081 
z
M 178.398739 104.033493 
L 178.398739 104.033493 
z
" style="fill:none;opacity:0;"/>
   </g>
   <g id="patch_43">
    <path clip-path="url(#pae7d97fef7)" d="M 183.80177 66.426986 
L 183.80177 61.946315 
L 179.391802 61.946315 
L 179.391802 28.820479 
L 177.593036 28.820479 
L 177.593036 61.946315 
L 173.183068 61.946315 
L 173.183068 66.426986 
L 183.80177 66.426986 
z
" style="fill:none;opacity:0;"/>
   </g>
   <g id="patch_44">
    <path clip-path="url(#pae7d97fef7)" d="M 191.488164 119.44143 
L 189.681663 136.053496 
L 187.761122 119.44143 
L 191.488164 119.44143 
z
M 188.83932 141.64 
L 190.661373 141.64 
L 194.979351 104.033493 
L 193.211727 104.033493 
L 192.006529 115.296605 
L 187.299777 115.296605 
L 186.011641 104.033493 
L 184.360649 104.033493 
L 188.83932 141.64 
z
M 189.673888 141.64 
L 189.673888 141.64 
z
" style="fill:none;opacity:0;"/>
   </g>
   <g id="patch_45">
    <path clip-path="url(#pae7d97fef7)" d="M 189.943812 104.033493 
Q 192.217758 104.033493 193.472079 100.455625 
Q 194.726401 96.885534 194.864611 92.343197 
L 193.284322 92.343197 
Q 193.015726 95.78884 192.212543 97.803335 
Q 191.40936 99.825609 189.959459 99.825609 
Q 188.191414 99.825609 187.103988 96.115515 
Q 186.016561 92.413199 186.016561 84.759672 
Q 186.016561 78.482847 186.99707 74.578303 
Q 187.980187 70.681538 189.928166 70.681538 
Q 191.719681 70.681538 192.658466 74.788309 
Q 193.153936 76.950586 193.399063 80.481786 
L 194.979351 80.481786 
Q 194.768124 74.842754 193.578997 71.023769 
Q 192.152565 66.426986 189.732586 66.426986 
Q 187.646397 66.426986 186.227788 70.199304 
Q 184.360649 75.177207 184.360649 85.584137 
Q 184.360649 93.478781 185.763611 98.534465 
Q 187.278706 104.033493 189.943812 104.033493 
z
M 189.617845 104.033493 
L 189.617845 104.033493 
z
" style="fill:none;opacity:0;"/>
   </g>
   <g id="patch_46">
    <path clip-path="url(#pae7d97fef7)" d="M 194.979351 66.426986 
L 194.979351 61.946315 
L 190.569383 61.946315 
L 190.569383 28.820479 
L 188.770617 28.820479 
L 188.770617 61.946315 
L 184.360649 61.946315 
L 184.360649 66.426986 
L 194.979351 66.426986 
z
" style="fill:none;opacity:0;"/>
   </g>
   <g id="patch_47">
    <path clip-path="url(#pae7d97fef7)" d="M 202.665746 119.44143 
L 200.859244 136.053496 
L 198.938703 119.44143 
L 202.665746 119.44143 
z
M 200.016902 141.64 
L 201.838954 141.64 
L 206.156932 104.033493 
L 204.389308 104.033493 
L 203.18411 115.296605 
L 198.477358 115.296605 
L 197.189222 104.033493 
L 195.53823 104.033493 
L 200.016902 141.64 
z
M 200.851469 141.64 
L 200.851469 141.64 
z
" style="fill:none;opacity:0;"/>
   </g>
   <g id="patch_48">
    <path clip-path="url(#pae7d97fef7)" d="M 201.121393 104.033493 
Q 203.395339 104.033493 204.649661 100.455625 
Q 205.903982 96.885534 206.042192 92.343197 
L 204.461904 92.343197 
Q 204.193307 95.78884 203.390124 97.803335 
Q 202.586941 99.825609 201.13704 99.825609 
Q 199.368995 99.825609 198.281569 96.115515 
Q 197.194143 92.413199 197.194143 84.759672 
Q 197.194143 78.482847 198.174651 74.578303 
Q 199.157768 70.681538 201.105747 70.681538 
Q 202.897262 70.681538 203.836047 74.788309 
Q 204.331517 76.950586 204.576644 80.481786 
L 206.156932 80.481786 
Q 205.945706 74.842754 204.756578 71.023769 
Q 203.330146 66.426986 200.910167 66.426986 
Q 198.823978 66.426986 197.405369 70.199304 
Q 195.53823 75.177207 195.53823 85.584137 
Q 195.53823 93.478781 196.941192 98.534465 
Q 198.456287 104.033493 201.121393 104.033493 
z
M 200.795426 104.033493 
L 200.795426 104.033493 
z
" style="fill:none;opacity:0;"/>
   </g>
   <g id="patch_49">
    <path clip-path="url(#pae7d97fef7)" d="M 206.156932 66.426986 
L 206.156932 61.946315 
L 201.746964 61.946315 
L 201.746964 28.820479 
L 199.948198 28.820479 
L 199.948198 61.946315 
L 195.53823 61.946315 
L 195.53823 66.426986 
L 206.156932 66.426986 
z
" style="fill:none;opacity:0;"/>
   </g>
   <g id="patch_50">
    <path clip-path="url(#pae7d97fef7)" d="M 213.843327 119.44143 
L 212.036825 136.053496 
L 210.116284 119.44143 
L 213.843327 119.44143 
z
M 211.194483 141.64 
L 213.016535 141.64 
L 217.334513 104.033493 
L 215.566889 104.033493 
L 214.361691 115.296605 
L 209.654939 115.296605 
L 208.366803 104.033493 
L 206.715811 104.033493 
L 211.194483 141.64 
z
M 212.02905 141.64 
L 212.02905 141.64 
z
" style="fill:none;opacity:0;"/>
   </g>
   <g id="patch_51">
    <path clip-path="url(#pae7d97fef7)" d="M 212.298975 104.033493 
Q 214.572921 104.033493 215.827242 100.455625 
Q 217.081563 96.885534 217.219773 92.343197 
L 215.639485 92.343197 
Q 215.370888 95.78884 214.567705 97.803335 
Q 213.764522 99.825609 212.314621 99.825609 
Q 210.546576 99.825609 209.45915 96.115515 
Q 208.371724 92.413199 208.371724 84.759672 
Q 208.371724 78.482847 209.352233 74.578303 
Q 210.335349 70.681538 212.283328 70.681538 
Q 214.074843 70.681538 215.013628 74.788309 
Q 215.509098 76.950586 215.754225 80.481786 
L 217.334513 80.481786 
Q 217.123287 74.842754 215.934159 71.023769 
Q 214.507727 66.426986 212.087748 66.426986 
Q 210.001559 66.426986 208.58295 70.199304 
Q 206.715811 75.177207 206.715811 85.584137 
Q 206.715811 93.478781 208.118773 98.534465 
Q 209.633868 104.033493 212.298975 104.033493 
z
M 211.973008 104.033493 
L 211.973008 104.033493 
z
" style="fill:none;opacity:0;"/>
   </g>
   <g id="patch_52">
    <path clip-path="url(#pae7d97fef7)" d="M 217.334513 66.426986 
L 217.334513 61.946315 
L 212.924545 61.946315 
L 212.924545 28.820479 
L 211.12578 28.820479 
L 211.12578 61.946315 
L 206.715811 61.946315 
L 206.715811 66.426986 
L 217.334513 66.426986 
z
" style="fill:none;opacity:0;"/>
   </g>
   <g id="patch_53">
    <path clip-path="url(#pae7d97fef7)" d="M 225.020908 119.44143 
L 223.214407 136.053496 
L 221.293865 119.44143 
L 225.020908 119.44143 
z
M 222.372064 141.64 
L 224.194116 141.64 
L 228.512094 104.033493 
L 226.744471 104.033493 
L 225.539273 115.296605 
L 220.832521 115.296605 
L 219.544384 104.033493 
L 217.893392 104.033493 
L 222.372064 141.64 
z
M 223.206631 141.64 
L 223.206631 141.64 
z
" style="fill:none;opacity:0;"/>
   </g>
   <g id="patch_54">
    <path clip-path="url(#pae7d97fef7)" d="M 223.476556 104.033493 
Q 225.750502 104.033493 227.004823 100.455625 
Q 228.259144 96.885534 228.397354 92.343197 
L 226.817066 92.343197 
Q 226.548469 95.78884 225.745286 97.803335 
Q 224.942103 99.825609 223.492202 99.825609 
Q 221.724157 99.825609 220.636731 96.115515 
Q 219.549305 92.413199 219.549305 84.759672 
Q 219.549305 78.482847 220.529814 74.578303 
Q 221.51293 70.681538 223.460909 70.681538 
Q 225.252424 70.681538 226.191209 74.788309 
Q 226.686679 76.950586 226.931806 80.481786 
L 228.512094 80.481786 
Q 228.300868 74.842754 227.11174 71.023769 
Q 225.685308 66.426986 223.265329 66.426986 
Q 221.17914 66.426986 219.760531 70.199304 
Q 217.893392 75.177207 217.893392 85.584137 
Q 217.893392 93.478781 219.296354 98.534465 
Q 220.811449 104.033493 223.476556 104.033493 
z
M 223.150589 104.033493 
L 223.150589 104.033493 
z
" style="fill:none;opacity:0;"/>
   </g>
   <g id="patch_55">
    <path clip-path="url(#pae7d97fef7)" d="M 223.369847 66.372574 
Q 225.007973 66.372574 226.20302 64.429286 
Q 227.934826 61.638725 228.322203 54.642888 
L 226.765098 54.642888 
Q 226.478995 58.552783 225.585242 60.340608 
Q 224.691488 62.128433 223.329337 62.128433 
Q 221.71653 62.128433 220.612631 58.405094 
Q 219.508731 54.689527 219.508731 47.328353 
Q 219.508731 40.969915 220.417676 36.974515 
Q 221.329153 32.979115 223.385039 32.979115 
Q 224.959868 32.979115 225.992874 35.77745 
Q 227.025881 38.583557 227.048668 44.856491 
L 223.410357 44.856491 
L 223.410357 48.859664 
L 228.512094 48.859664 
L 228.512094 29.768803 
L 227.499343 29.768803 
L 227.119561 34.362736 
Q 226.322019 31.665452 225.70424 30.616077 
Q 224.66617 28.820479 223.068554 28.820479 
Q 221.005072 28.820479 219.516327 32.924703 
Q 217.893392 38.078302 217.893392 47.064066 
Q 217.893392 56.026509 219.475817 61.320025 
Q 220.979753 66.372574 223.369847 66.372574 
z
M 223.109064 66.426986 
L 223.109064 66.426986 
z
" style="fill:none;opacity:0;"/>
   </g>
   <g id="patch_56">
    <path clip-path="url(#pae7d97fef7)" d="M 236.198489 119.44143 
L 234.391988 136.053496 
L 232.471446 119.44143 
L 236.198489 119.44143 
z
M 233.549645 141.64 
L 235.371697 141.64 
L 239.689676 104.033493 
L 237.922052 104.033493 
L 236.716854 115.296605 
L 232.010102 115.296605 
L 230.721965 104.033493 
L 229.070973 104.033493 
L 233.549645 141.64 
z
M 234.384212 141.64 
L 234.384212 141.64 
z
" style="fill:none;opacity:0;"/>
   </g>
   <g id="patch_57">
    <path clip-path="url(#pae7d97fef7)" d="M 234.654137 104.033493 
Q 236.928083 104.033493 238.182404 100.455625 
Q 239.436725 96.885534 239.574935 92.343197 
L 237.994647 92.343197 
Q 237.72605 95.78884 236.922867 97.803335 
Q 236.119685 99.825609 234.669783 99.825609 
Q 232.901738 99.825609 231.814312 96.115515 
Q 230.726886 92.413199 230.726886 84.759672 
Q 230.726886 78.482847 231.707395 74.578303 
Q 232.690511 70.681538 234.63849 70.681538 
Q 236.430005 70.681538 237.36879 74.788309 
Q 237.86426 76.950586 238.109387 80.481786 
L 239.689676 80.481786 
Q 239.478449 74.842754 238.289321 71.023769 
Q 236.862889 66.426986 234.44291 66.426986 
Q 232.356721 66.426986 230.938113 70.199304 
Q 229.070973 75.177207 229.070973 85.584137 
Q 229.070973 93.478781 230.473936 98.534465 
Q 231.98903 104.033493 234.654137 104.033493 
z
M 234.32817 104.033493 
L 234.32817 104.033493 
z
" style="fill:none;opacity:0;"/>
   </g>
   <g id="patch_58">
    <path clip-path="url(#pae7d97fef7)" d="M 234.547429 66.372574 
Q 236.185554 66.372574 237.380602 64.429286 
Q 239.112407 61.638725 239.499785 54.642888 
L 237.942679 54.642888 
Q 237.656576 58.552783 236.762823 60.340608 
Q 235.86907 62.128433 234.506918 62.128433 
Q 232.894111 62.128433 231.790212 58.405094 
Q 230.686312 54.689527 230.686312 47.328353 
Q 230.686312 40.969915 231.595257 36.974515 
Q 232.506734 32.979115 234.56262 32.979115 
Q 236.137449 32.979115 237.170456 35.77745 
Q 238.203462 38.583557 238.226249 44.856491 
L 234.587939 44.856491 
L 234.587939 48.859664 
L 239.689676 48.859664 
L 239.689676 29.768803 
L 238.676924 29.768803 
L 238.297142 34.362736 
Q 237.4996 31.665452 236.881821 30.616077 
Q 235.843751 28.820479 234.246135 28.820479 
Q 232.182653 28.820479 230.693908 32.924703 
Q 229.070973 38.078302 229.070973 47.064066 
Q 229.070973 56.026509 230.653398 61.320025 
Q 232.157334 66.372574 234.547429 66.372574 
z
M 234.286645 66.426986 
L 234.286645 66.426986 
z
" style="fill:none;opacity:0;"/>
   </g>
   <g id="patch_59">
    <path clip-path="url(#pae7d97fef7)" d="M 247.37607 119.44143 
L 245.569569 136.053496 
L 243.649027 119.44143 
L 247.37607 119.44143 
z
M 244.727226 141.64 
L 246.549278 141.64 
L 250.867257 104.033493 
L 249.099633 104.033493 
L 247.894435 115.296605 
L 243.187683 115.296605 
L 241.899546 104.033493 
L 240.248555 104.033493 
L 244.727226 141.64 
z
M 245.561793 141.64 
L 245.561793 141.64 
z
" style="fill:none;opacity:0;"/>
   </g>
   <g id="patch_60">
    <path clip-path="url(#pae7d97fef7)" d="M 245.831718 104.033493 
Q 248.105664 104.033493 249.359985 100.455625 
Q 250.614306 96.885534 250.752516 92.343197 
L 249.172228 92.343197 
Q 248.903631 95.78884 248.100448 97.803335 
Q 247.297266 99.825609 245.847364 99.825609 
Q 244.079319 99.825609 242.991893 96.115515 
Q 241.904467 92.413199 241.904467 84.759672 
Q 241.904467 78.482847 242.884976 74.578303 
Q 243.868093 70.681538 245.816071 70.681538 
Q 247.607586 70.681538 248.546371 74.788309 
Q 249.041841 76.950586 249.286968 80.481786 
L 250.867257 80.481786 
Q 250.65603 74.842754 249.466902 71.023769 
Q 248.040471 66.426986 245.620491 66.426986 
Q 243.534302 66.426986 242.115694 70.199304 
Q 240.248555 75.177207 240.248555 85.584137 
Q 240.248555 93.478781 241.651517 98.534465 
Q 243.166611 104.033493 245.831718 104.033493 
z
M 245.505751 104.033493 
L 245.505751 104.033493 
z
" style="fill:none;opacity:0;"/>
   </g>
   <g id="patch_61">
    <path clip-path="url(#pae7d97fef7)" d="M 250.867257 66.426986 
L 250.867257 61.946315 
L 246.457288 61.946315 
L 246.457288 28.820479 
L 244.658523 28.820479 
L 244.658523 61.946315 
L 240.248555 61.946315 
L 240.248555 66.426986 
L 250.867257 66.426986 
z
" style="fill:none;opacity:0;"/>
   </g>
   <g id="patch_62">
    <path clip-path="url(#pae7d97fef7)" d="M 257.009299 141.64 
Q 259.283245 141.64 260.537566 138.062132 
Q 261.791887 134.492041 261.930097 129.949704 
L 260.349809 129.949704 
Q 260.081212 133.395347 259.27803 135.409842 
Q 258.474847 137.432116 257.024945 137.432116 
Q 255.2569 137.432116 254.169474 133.722022 
Q 253.082048 130.019706 253.082048 122.366179 
Q 253.082048 116.089354 254.062557 112.18481 
Q 255.045674 108.288045 256.993653 108.288045 
Q 258.785167 108.288045 259.723952 112.394816 
Q 260.219422 114.557093 260.46455 118.088293 
L 262.044838 118.088293 
Q 261.833611 112.449261 260.644483 108.630276 
Q 259.218052 104.033493 256.798072 104.033493 
Q 254.711883 104.033493 253.293275 107.805811 
Q 251.426136 112.783714 251.426136 123.190644 
Q 251.426136 131.085289 252.829098 136.140972 
Q 254.344193 141.64 257.009299 141.64 
z
M 256.683332 141.64 
L 256.683332 141.64 
z
" style="fill:none;opacity:0;"/>
   </g>
   <g id="patch_63">
    <path clip-path="url(#pae7d97fef7)" d="M 256.902591 103.979081 
Q 258.540717 103.979081 259.735764 102.035793 
Q 261.467569 99.245232 261.854947 92.249395 
L 260.297841 92.249395 
Q 260.011739 96.15929 259.117985 97.947115 
Q 258.224232 99.73494 256.862081 99.73494 
Q 255.249274 99.73494 254.145374 96.011601 
Q 253.041475 92.296034 253.041475 84.93486 
Q 253.041475 78.576422 253.950419 74.581022 
Q 254.861896 70.585622 256.917782 70.585622 
Q 258.492611 70.585622 259.525618 73.383957 
Q 260.558625 76.190064 260.581411 82.462998 
L 256.943101 82.462998 
L 256.943101 86.466171 
L 262.044838 86.466171 
L 262.044838 67.37531 
L 261.032086 67.37531 
L 260.652304 71.969243 
Q 259.854762 69.271959 259.236984 68.222584 
Q 258.198913 66.426986 256.601297 66.426986 
Q 254.537815 66.426986 253.04907 70.53121 
Q 251.426136 75.684809 251.426136 84.670573 
Q 251.426136 93.633016 253.00856 98.926532 
Q 254.512497 103.979081 256.902591 103.979081 
z
M 256.641807 104.033493 
L 256.641807 104.033493 
z
" style="fill:none;opacity:0;"/>
   </g>
   <g id="patch_64">
    <path clip-path="url(#pae7d97fef7)" d="M 262.044838 66.426986 
L 262.044838 61.946315 
L 257.634869 61.946315 
L 257.634869 28.820479 
L 255.836104 28.820479 
L 255.836104 61.946315 
L 251.426136 61.946315 
L 251.426136 66.426986 
L 262.044838 66.426986 
z
" style="fill:none;opacity:0;"/>
   </g>
   <g id="patch_65">
    <path clip-path="url(#pae7d97fef7)" d="M 269.731232 119.44143 
L 267.924731 136.053496 
L 266.00419 119.44143 
L 269.731232 119.44143 
z
M 267.082388 141.64 
L 268.90444 141.64 
L 273.222419 104.033493 
L 271.454795 104.033493 
L 270.249597 115.296605 
L 265.542845 115.296605 
L 264.254709 104.033493 
L 262.603717 104.033493 
L 267.082388 141.64 
z
M 267.916956 141.64 
L 267.916956 141.64 
z
" style="fill:none;opacity:0;"/>
   </g>
   <g id="patch_66">
    <path clip-path="url(#pae7d97fef7)" d="M 268.18688 104.033493 
Q 270.460826 104.033493 271.715147 100.455625 
Q 272.969468 96.885534 273.107678 92.343197 
L 271.52739 92.343197 
Q 271.258793 95.78884 270.455611 97.803335 
Q 269.652428 99.825609 268.202527 99.825609 
Q 266.434481 99.825609 265.347055 96.115515 
Q 264.259629 92.413199 264.259629 84.759672 
Q 264.259629 78.482847 265.240138 74.578303 
Q 266.223255 70.681538 268.171234 70.681538 
Q 269.962749 70.681538 270.901534 74.788309 
Q 271.397003 76.950586 271.642131 80.481786 
L 273.222419 80.481786 
Q 273.011192 74.842754 271.822065 71.023769 
Q 270.395633 66.426986 267.975654 66.426986 
Q 265.889465 66.426986 264.470856 70.199304 
Q 262.603717 75.177207 262.603717 85.584137 
Q 262.603717 93.478781 264.006679 98.534465 
Q 265.521774 104.033493 268.18688 104.033493 
z
M 267.860913 104.033493 
L 267.860913 104.033493 
z
" style="fill:none;opacity:0;"/>
   </g>
   <g id="patch_67">
    <path clip-path="url(#pae7d97fef7)" d="M 273.222419 66.426986 
L 273.222419 61.946315 
L 268.812451 61.946315 
L 268.812451 28.820479 
L 267.013685 28.820479 
L 267.013685 61.946315 
L 262.603717 61.946315 
L 262.603717 66.426986 
L 273.222419 66.426986 
z
" style="fill:none;opacity:0;"/>
   </g>
   <g id="patch_68">
    <path clip-path="url(#pae7d97fef7)" d="M 280.908813 119.44143 
L 279.102312 136.053496 
L 277.181771 119.44143 
L 280.908813 119.44143 
z
M 278.259969 141.64 
L 280.082022 141.64 
L 284.4 104.033493 
L 282.632376 104.033493 
L 281.427178 115.296605 
L 276.720426 115.296605 
L 275.43229 104.033493 
L 273.781298 104.033493 
L 278.259969 141.64 
z
M 279.094537 141.64 
L 279.094537 141.64 
z
" style="fill:none;opacity:0;"/>
   </g>
   <g id="patch_69">
    <path clip-path="url(#pae7d97fef7)" d="M 279.257753 103.979081 
Q 280.895879 103.979081 282.090926 102.035793 
Q 283.822732 99.245232 284.210109 92.249395 
L 282.653003 92.249395 
Q 282.366901 96.15929 281.473147 97.947115 
Q 280.579394 99.73494 279.217243 99.73494 
Q 277.604436 99.73494 276.500536 96.011601 
Q 275.396637 92.296034 275.396637 84.93486 
Q 275.396637 78.576422 276.305582 74.581022 
Q 277.217058 70.585622 279.272944 70.585622 
Q 280.847773 70.585622 281.88078 73.383957 
Q 282.913787 76.190064 282.936574 82.462998 
L 279.298263 82.462998 
L 279.298263 86.466171 
L 284.4 86.466171 
L 284.4 67.37531 
L 283.387248 67.37531 
L 283.007466 71.969243 
Q 282.209924 69.271959 281.592146 68.222584 
Q 280.554075 66.426986 278.956459 66.426986 
Q 276.892978 66.426986 275.404233 70.53121 
Q 273.781298 75.684809 273.781298 84.670573 
Q 273.781298 93.633016 275.363723 98.926532 
Q 276.867659 103.979081 279.257753 103.979081 
z
M 278.996969 104.033493 
L 278.996969 104.033493 
z
" style="fill:none;opacity:0;"/>
   </g>
   <g id="patch_70">
    <path clip-path="url(#pae7d97fef7)" d="M 284.4 66.426986 
L 284.4 61.946315 
L 279.990032 61.946315 
L 279.990032 28.820479 
L 278.191266 28.820479 
L 278.191266 61.946315 
L 273.781298 61.946315 
L 273.781298 66.426986 
L 284.4 66.426986 
z
" style="fill:none;opacity:0;"/>
   </g>
   <g id="matplotlib.axis_1">
    <g id="xtick_1">
     <g id="line2d_2">
      <path clip-path="url(#pae7d97fef7)" d="M 100.249351 141.64 
L 100.249351 28.746741 
" style="fill:none;stroke:#cccccc;stroke-linecap:round;stroke-width:0.8;"/>
     </g>
     <g id="text_1">
      <!-- 0 -->
      <g style="fill:#262626;" transform="translate(94.688414 162.986875)scale(0.2 -0.2)">
       <defs>
        <path d="M 1731 4475 
Q 2600 4475 2988 3759 
Q 3288 3206 3288 2244 
Q 3288 1331 3016 734 
Q 2622 -122 1728 -122 
Q 922 -122 528 578 
Q 200 1163 200 2147 
Q 200 2909 397 3456 
Q 766 4475 1731 4475 
z
M 1725 391 
Q 2163 391 2422 778 
Q 2681 1166 2681 2222 
Q 2681 2984 2493 3476 
Q 2306 3969 1766 3969 
Q 1269 3969 1039 3501 
Q 809 3034 809 2125 
Q 809 1441 956 1025 
Q 1181 391 1725 391 
z
" id="Helvetica-30" transform="scale(0.015625)"/>
       </defs>
       <use xlink:href="#Helvetica-30"/>
      </g>
     </g>
    </g>
    <g id="xtick_2">
     <g id="line2d_3">
      <path clip-path="url(#pae7d97fef7)" d="M 212.025162 141.64 
L 212.025162 28.746741 
" style="fill:none;stroke:#cccccc;stroke-linecap:round;stroke-width:0.8;"/>
     </g>
     <g id="text_2">
      <!-- 10 -->
      <g style="fill:#262626;" transform="translate(200.903287 162.986875)scale(0.2 -0.2)">
       <defs>
        <path d="M 613 3169 
L 613 3600 
Q 1222 3659 1462 3798 
Q 1703 3938 1822 4456 
L 2266 4456 
L 2266 0 
L 1666 0 
L 1666 3169 
L 613 3169 
z
" id="Helvetica-31" transform="scale(0.015625)"/>
       </defs>
       <use xlink:href="#Helvetica-31"/>
       <use x="55.615234" xlink:href="#Helvetica-30"/>
      </g>
     </g>
    </g>
    <g id="text_3">
     <!-- Position -->
     <g style="fill:#262626;" transform="translate(145.20125 189.089219)scale(0.25 -0.25)">
      <defs>
       <path d="M 547 4591 
L 2613 4591 
Q 3225 4591 3600 4245 
Q 3975 3900 3975 3275 
Q 3975 2738 3640 2339 
Q 3306 1941 2613 1941 
L 1169 1941 
L 1169 0 
L 547 0 
L 547 4591 
z
M 3347 3272 
Q 3347 3778 2972 3959 
Q 2766 4056 2406 4056 
L 1169 4056 
L 1169 2466 
L 2406 2466 
Q 2825 2466 3086 2644 
Q 3347 2822 3347 3272 
z
" id="Helvetica-50" transform="scale(0.015625)"/>
       <path d="M 1741 363 
Q 2300 363 2508 786 
Q 2716 1209 2716 1728 
Q 2716 2197 2566 2491 
Q 2328 2953 1747 2953 
Q 1231 2953 997 2559 
Q 763 2166 763 1609 
Q 763 1075 997 719 
Q 1231 363 1741 363 
z
M 1763 3444 
Q 2409 3444 2856 3012 
Q 3303 2581 3303 1744 
Q 3303 934 2909 406 
Q 2516 -122 1688 -122 
Q 997 -122 590 345 
Q 184 813 184 1600 
Q 184 2444 612 2944 
Q 1041 3444 1763 3444 
z
M 1744 3428 
L 1744 3428 
z
" id="Helvetica-6f" transform="scale(0.015625)"/>
       <path d="M 747 1050 
Q 772 769 888 619 
Q 1100 347 1625 347 
Q 1938 347 2175 483 
Q 2413 619 2413 903 
Q 2413 1119 2222 1231 
Q 2100 1300 1741 1391 
L 1294 1503 
Q 866 1609 663 1741 
Q 300 1969 300 2372 
Q 300 2847 642 3140 
Q 984 3434 1563 3434 
Q 2319 3434 2653 2991 
Q 2863 2709 2856 2384 
L 2325 2384 
Q 2309 2575 2191 2731 
Q 1997 2953 1519 2953 
Q 1200 2953 1036 2831 
Q 872 2709 872 2509 
Q 872 2291 1088 2159 
Q 1213 2081 1456 2022 
L 1828 1931 
Q 2434 1784 2641 1647 
Q 2969 1431 2969 969 
Q 2969 522 2630 197 
Q 2291 -128 1597 -128 
Q 850 -128 539 211 
Q 228 550 206 1050 
L 747 1050 
z
M 1578 3428 
L 1578 3428 
z
" id="Helvetica-73" transform="scale(0.015625)"/>
       <path d="M 413 3331 
L 984 3331 
L 984 0 
L 413 0 
L 413 3331 
z
M 413 4591 
L 984 4591 
L 984 3953 
L 413 3953 
L 413 4591 
z
" id="Helvetica-69" transform="scale(0.015625)"/>
       <path d="M 525 4281 
L 1094 4281 
L 1094 3347 
L 1628 3347 
L 1628 2888 
L 1094 2888 
L 1094 703 
Q 1094 528 1213 469 
Q 1278 434 1431 434 
Q 1472 434 1519 436 
Q 1566 438 1628 444 
L 1628 0 
Q 1531 -28 1426 -40 
Q 1322 -53 1200 -53 
Q 806 -53 665 148 
Q 525 350 525 672 
L 525 2888 
L 72 2888 
L 72 3347 
L 525 3347 
L 525 4281 
z
" id="Helvetica-74" transform="scale(0.015625)"/>
       <path d="M 413 3347 
L 947 3347 
L 947 2872 
Q 1184 3166 1450 3294 
Q 1716 3422 2041 3422 
Q 2753 3422 3003 2925 
Q 3141 2653 3141 2147 
L 3141 0 
L 2569 0 
L 2569 2109 
Q 2569 2416 2478 2603 
Q 2328 2916 1934 2916 
Q 1734 2916 1606 2875 
Q 1375 2806 1200 2600 
Q 1059 2434 1017 2257 
Q 975 2081 975 1753 
L 975 0 
L 413 0 
L 413 3347 
z
M 1734 3428 
L 1734 3428 
z
" id="Helvetica-6e" transform="scale(0.015625)"/>
      </defs>
      <use xlink:href="#Helvetica-50"/>
      <use x="66.699219" xlink:href="#Helvetica-6f"/>
      <use x="122.314453" xlink:href="#Helvetica-73"/>
      <use x="172.314453" xlink:href="#Helvetica-69"/>
      <use x="194.53125" xlink:href="#Helvetica-74"/>
      <use x="222.314453" xlink:href="#Helvetica-69"/>
      <use x="244.53125" xlink:href="#Helvetica-6f"/>
      <use x="300.146484" xlink:href="#Helvetica-6e"/>
     </g>
    </g>
   </g>
   <g id="matplotlib.axis_2">
    <g id="ytick_1">
     <g id="line2d_4">
      <path clip-path="url(#pae7d97fef7)" d="M 94.94 28.820479 
L 284.4 28.820479 
" style="fill:none;stroke:#cccccc;stroke-linecap:round;stroke-width:0.8;"/>
     </g>
     <g id="text_4">
      <!-- 0 -->
      <g style="fill:#262626;" transform="translate(76.818125 35.993916)scale(0.2 -0.2)">
       <use xlink:href="#Helvetica-30"/>
      </g>
     </g>
    </g>
    <g id="ytick_2">
     <g id="line2d_5">
      <path clip-path="url(#pae7d97fef7)" d="M 94.94 28.811262 
L 284.4 28.811262 
" style="fill:none;stroke:#cccccc;stroke-linecap:round;stroke-width:0.8;"/>
     </g>
     <g id="text_5">
      <!-- 0.25 -->
      <g style="fill:#262626;" transform="translate(49.018125 35.984699)scale(0.2 -0.2)">
       <defs>
        <path d="M 547 681 
L 1200 681 
L 1200 0 
L 547 0 
L 547 681 
z
" id="Helvetica-2e" transform="scale(0.015625)"/>
        <path d="M 200 0 
Q 231 578 439 1006 
Q 647 1434 1250 1784 
L 1850 2131 
Q 2253 2366 2416 2531 
Q 2672 2791 2672 3125 
Q 2672 3516 2437 3745 
Q 2203 3975 1813 3975 
Q 1234 3975 1013 3538 
Q 894 3303 881 2888 
L 309 2888 
Q 319 3472 525 3841 
Q 891 4491 1816 4491 
Q 2584 4491 2939 4075 
Q 3294 3659 3294 3150 
Q 3294 2613 2916 2231 
Q 2697 2009 2131 1694 
L 1703 1456 
Q 1397 1288 1222 1134 
Q 909 863 828 531 
L 3272 531 
L 3272 0 
L 200 0 
z
" id="Helvetica-32" transform="scale(0.015625)"/>
        <path d="M 791 1141 
Q 847 659 1238 475 
Q 1438 381 1700 381 
Q 2200 381 2440 700 
Q 2681 1019 2681 1406 
Q 2681 1875 2395 2131 
Q 2109 2388 1709 2388 
Q 1419 2388 1211 2275 
Q 1003 2163 856 1963 
L 369 1991 
L 709 4400 
L 3034 4400 
L 3034 3856 
L 1131 3856 
L 941 2613 
Q 1097 2731 1238 2791 
Q 1488 2894 1816 2894 
Q 2431 2894 2859 2497 
Q 3288 2100 3288 1491 
Q 3288 856 2895 371 
Q 2503 -113 1644 -113 
Q 1097 -113 676 195 
Q 256 503 206 1141 
L 791 1141 
z
" id="Helvetica-35" transform="scale(0.015625)"/>
       </defs>
       <use xlink:href="#Helvetica-30"/>
       <use x="55.615234" xlink:href="#Helvetica-2e"/>
       <use x="83.398438" xlink:href="#Helvetica-32"/>
       <use x="139.013672" xlink:href="#Helvetica-35"/>
      </g>
     </g>
    </g>
    <g id="ytick_3">
     <g id="line2d_6">
      <path clip-path="url(#pae7d97fef7)" d="M 94.94 28.802044 
L 284.4 28.802044 
" style="fill:none;stroke:#cccccc;stroke-linecap:round;stroke-width:0.8;"/>
     </g>
     <g id="text_6">
      <!-- 0.50 -->
      <g style="fill:#262626;" transform="translate(49.018125 35.975482)scale(0.2 -0.2)">
       <use xlink:href="#Helvetica-30"/>
       <use x="55.615234" xlink:href="#Helvetica-2e"/>
       <use x="83.398438" xlink:href="#Helvetica-35"/>
       <use x="139.013672" xlink:href="#Helvetica-30"/>
      </g>
     </g>
    </g>
    <g id="ytick_4">
     <g id="line2d_7">
      <path clip-path="url(#pae7d97fef7)" d="M 94.94 28.792827 
L 284.4 28.792827 
" style="fill:none;stroke:#cccccc;stroke-linecap:round;stroke-width:0.8;"/>
     </g>
     <g id="text_7">
      <!-- 0.75 -->
      <g style="fill:#262626;" transform="translate(49.018125 35.966265)scale(0.2 -0.2)">
       <defs>
        <path d="M 3347 4400 
L 3347 3909 
Q 3131 3700 2773 3181 
Q 2416 2663 2141 2063 
Q 1869 1478 1728 997 
Q 1638 688 1494 0 
L 872 0 
Q 1084 1281 1809 2550 
Q 2238 3294 2709 3834 
L 234 3834 
L 234 4400 
L 3347 4400 
z
" id="Helvetica-37" transform="scale(0.015625)"/>
       </defs>
       <use xlink:href="#Helvetica-30"/>
       <use x="55.615234" xlink:href="#Helvetica-2e"/>
       <use x="83.398438" xlink:href="#Helvetica-37"/>
       <use x="139.013672" xlink:href="#Helvetica-35"/>
      </g>
     </g>
    </g>
    <g id="ytick_5">
     <g id="line2d_8">
      <path clip-path="url(#pae7d97fef7)" d="M 94.94 28.78361 
L 284.4 28.78361 
" style="fill:none;stroke:#cccccc;stroke-linecap:round;stroke-width:0.8;"/>
     </g>
     <g id="text_8">
      <!-- 1.0 -->
      <g style="fill:#262626;" transform="translate(60.14 35.957047)scale(0.2 -0.2)">
       <use xlink:href="#Helvetica-31"/>
       <use x="55.615234" xlink:href="#Helvetica-2e"/>
       <use x="83.398438" xlink:href="#Helvetica-30"/>
      </g>
     </g>
    </g>
    <g id="text_9">
     <!-- Probability -->
     <g style="fill:#262626;" transform="translate(39.65875 143.552745)rotate(-90)scale(0.25 -0.25)">
      <defs>
       <path d="M 428 3347 
L 963 3347 
L 963 2769 
Q 1028 2938 1284 3180 
Q 1541 3422 1875 3422 
Q 1891 3422 1928 3419 
Q 1966 3416 2056 3406 
L 2056 2813 
Q 2006 2822 1964 2825 
Q 1922 2828 1872 2828 
Q 1447 2828 1219 2554 
Q 991 2281 991 1925 
L 991 0 
L 428 0 
L 428 3347 
z
" id="Helvetica-72" transform="scale(0.015625)"/>
       <path d="M 369 4606 
L 916 4606 
L 916 2941 
Q 1100 3181 1356 3307 
Q 1613 3434 1913 3434 
Q 2538 3434 2927 3004 
Q 3316 2575 3316 1738 
Q 3316 944 2931 419 
Q 2547 -106 1866 -106 
Q 1484 -106 1222 78 
Q 1066 188 888 428 
L 888 0 
L 369 0 
L 369 4606 
z
M 1831 391 
Q 2288 391 2514 753 
Q 2741 1116 2741 1709 
Q 2741 2238 2514 2584 
Q 2288 2931 1847 2931 
Q 1463 2931 1173 2647 
Q 884 2363 884 1709 
Q 884 1238 1003 944 
Q 1225 391 1831 391 
z
" id="Helvetica-62" transform="scale(0.015625)"/>
       <path d="M 844 891 
Q 844 647 1022 506 
Q 1200 366 1444 366 
Q 1741 366 2019 503 
Q 2488 731 2488 1250 
L 2488 1703 
Q 2384 1638 2221 1594 
Q 2059 1550 1903 1531 
L 1563 1488 
Q 1256 1447 1103 1359 
Q 844 1213 844 891 
z
M 2206 2028 
Q 2400 2053 2466 2191 
Q 2503 2266 2503 2406 
Q 2503 2694 2298 2823 
Q 2094 2953 1713 2953 
Q 1272 2953 1088 2716 
Q 984 2584 953 2325 
L 428 2325 
Q 444 2944 830 3186 
Q 1216 3428 1725 3428 
Q 2316 3428 2684 3203 
Q 3050 2978 3050 2503 
L 3050 575 
Q 3050 488 3086 434 
Q 3122 381 3238 381 
Q 3275 381 3322 386 
Q 3369 391 3422 400 
L 3422 -16 
Q 3291 -53 3222 -62 
Q 3153 -72 3034 -72 
Q 2744 -72 2613 134 
Q 2544 244 2516 444 
Q 2344 219 2022 53 
Q 1700 -113 1313 -113 
Q 847 -113 551 170 
Q 256 453 256 878 
Q 256 1344 547 1600 
Q 838 1856 1309 1916 
L 2206 2028 
z
M 1741 3428 
L 1741 3428 
z
" id="Helvetica-61" transform="scale(0.015625)"/>
       <path d="M 428 4591 
L 991 4591 
L 991 0 
L 428 0 
L 428 4591 
z
" id="Helvetica-6c" transform="scale(0.015625)"/>
       <path d="M 2503 3347 
L 3125 3347 
Q 3006 3025 2597 1878 
Q 2291 1016 2084 472 
Q 1597 -809 1397 -1090 
Q 1197 -1372 709 -1372 
Q 591 -1372 527 -1362 
Q 463 -1353 369 -1328 
L 369 -816 
Q 516 -856 581 -865 
Q 647 -875 697 -875 
Q 853 -875 926 -823 
Q 1000 -772 1050 -697 
Q 1066 -672 1162 -440 
Q 1259 -209 1303 -97 
L 66 3347 
L 703 3347 
L 1600 622 
L 2503 3347 
z
M 1597 3428 
L 1597 3428 
z
" id="Helvetica-79" transform="scale(0.015625)"/>
      </defs>
      <use xlink:href="#Helvetica-50"/>
      <use x="66.699219" xlink:href="#Helvetica-72"/>
      <use x="100" xlink:href="#Helvetica-6f"/>
      <use x="155.615234" xlink:href="#Helvetica-62"/>
      <use x="211.230469" xlink:href="#Helvetica-61"/>
      <use x="266.845703" xlink:href="#Helvetica-62"/>
      <use x="322.460938" xlink:href="#Helvetica-69"/>
      <use x="344.677734" xlink:href="#Helvetica-6c"/>
      <use x="366.894531" xlink:href="#Helvetica-69"/>
      <use x="389.111328" xlink:href="#Helvetica-74"/>
      <use x="416.894531" xlink:href="#Helvetica-79"/>
     </g>
    </g>
   </g>
   <g id="patch_71">
    <path d="M 94.94 141.64 
L 94.94 28.746741 
" style="fill:none;stroke:#000000;stroke-linecap:square;stroke-linejoin:miter;"/>
   </g>
  </g>
 </g>
 <defs>
  <clipPath id="pae7d97fef7">
   <rect height="112.893259" width="189.46" x="94.94" y="28.746741"/>
  </clipPath>
 </defs>
</svg>
