<?xml version="1.0" encoding="utf-8" standalone="no"?>
<!DOCTYPE svg PUBLIC "-//W3C//DTD SVG 1.1//EN"
  "http://www.w3.org/Graphics/SVG/1.1/DTD/svg11.dtd">
<svg height="216pt" version="1.1" viewBox="0 0 306 216" width="306pt" xmlns="http://www.w3.org/2000/svg" xmlns:xlink="http://www.w3.org/1999/xlink">
 <metadata>
  <rdf:RDF xmlns:cc="http://creativecommons.org/ns#" xmlns:dc="http://purl.org/dc/elements/1.1/" xmlns:rdf="http://www.w3.org/1999/02/22-rdf-syntax-ns#">
   <cc:Work>
    <dc:type rdf:resource="http://purl.org/dc/dcmitype/StillImage"/>
    <dc:date>2021-12-20T20:03:54.326668</dc:date>
    <dc:format>image/svg+xml</dc:format>
    <dc:creator>
     <cc:Agent>
      <dc:title>Matplotlib v3.4.2, https://matplotlib.org/</dc:title>
     </cc:Agent>
    </dc:creator>
   </cc:Work>
  </rdf:RDF>
 </metadata>
 <defs>
  <style type="text/css">*{stroke-linecap:butt;stroke-linejoin:round;}</style>
 </defs>
 <g id="figure_1">
  <g id="patch_1">
   <path d="M 0 216 
L 306 216 
L 306 0 
L 0 0 
z
" style="fill:#ffffff;"/>
  </g>
  <g id="axes_1">
   <g id="patch_2">
    <path d="M 94.94 141.64 
L 284.4 141.64 
L 284.4 28.8 
L 94.94 28.8 
z
" style="fill:#ffffff;"/>
   </g>
   <g id="line2d_1">
    <path clip-path="url(#p6574319c59)" d="M 94.94 78.853094 
L 284.4 78.853094 
" style="fill:none;stroke:#000000;stroke-linecap:round;stroke-width:0.5;"/>
   </g>
   <g id="patch_3">
    <path clip-path="url(#p6574319c59)" d="M 105.558702 76.448795 
L 105.558702 76.735258 
L 101.148734 76.735258 
L 101.148734 78.853094 
L 99.349968 78.853094 
L 99.349968 76.735258 
L 94.94 76.735258 
L 94.94 76.448795 
L 105.558702 76.448795 
z
" style="fill:#ff0000;"/>
   </g>
   <g id="patch_4">
    <path clip-path="url(#p6574319c59)" d="M 102.067515 70.15639 
L 100.261014 63.372234 
L 98.340473 70.15639 
L 102.067515 70.15639 
z
M 99.418672 61.090777 
L 101.240724 61.090777 
L 105.558702 76.448795 
L 103.791078 76.448795 
L 102.58588 71.849083 
L 97.879128 71.849083 
L 96.590992 76.448795 
L 94.94 76.448795 
L 99.418672 61.090777 
z
M 100.253239 61.090777 
L 100.253239 61.090777 
z
" style="fill:#008000;"/>
   </g>
   <g id="patch_5">
    <path clip-path="url(#p6574319c59)" d="M 111.700744 74.121975 
Q 113.97469 74.121975 115.229012 74.572091 
Q 116.483333 75.02123 116.621543 75.592682 
L 115.041255 75.592682 
Q 114.772658 75.1592 113.969475 74.905765 
Q 113.166292 74.651351 111.716391 74.651351 
Q 109.948346 74.651351 108.86092 75.118103 
Q 107.773494 75.583876 107.773494 76.546734 
Q 107.773494 77.336396 108.754002 77.82761 
Q 109.737119 78.317846 111.685098 78.317846 
Q 113.476613 78.317846 114.415398 77.80119 
Q 114.910868 77.529163 115.155995 77.084918 
L 116.736283 77.084918 
Q 116.525057 77.794341 115.335929 78.274792 
Q 113.909497 78.853094 111.489518 78.853094 
Q 109.403329 78.853094 107.98472 78.378514 
Q 106.117581 77.752265 106.117581 76.443012 
Q 106.117581 75.449819 107.520543 74.813785 
Q 109.035638 74.121975 111.700744 74.121975 
z
M 111.374777 74.121975 
L 111.374777 74.121975 
z
" style="fill:#0000ff;"/>
   </g>
   <g id="patch_6">
    <path clip-path="url(#p6574319c59)" d="M 113.245097 66.252831 
L 111.438595 57.768714 
L 109.518054 66.252831 
L 113.245097 66.252831 
z
M 110.596253 54.915574 
L 112.418305 54.915574 
L 116.736283 74.121975 
L 114.968659 74.121975 
L 113.763461 68.369677 
L 109.056709 68.369677 
L 107.768573 74.121975 
L 106.117581 74.121975 
L 110.596253 54.915574 
z
M 111.43082 54.915574 
L 111.43082 54.915574 
z
" style="fill:#008000;"/>
   </g>
   <g id="patch_7">
    <path clip-path="url(#p6574319c59)" d="M 124.422678 74.226211 
L 122.616176 69.237738 
L 120.695635 74.226211 
L 124.422678 74.226211 
z
M 121.773834 67.560154 
L 123.595886 67.560154 
L 127.913864 78.853094 
L 126.14624 78.853094 
L 124.941042 75.47087 
L 120.23429 75.47087 
L 118.946154 78.853094 
L 117.295162 78.853094 
L 121.773834 67.560154 
z
M 122.608401 67.560154 
L 122.608401 67.560154 
z
" style="fill:#008000;"/>
   </g>
   <g id="patch_8">
    <path clip-path="url(#p6574319c59)" d="M 127.913864 56.267215 
L 127.913864 57.612725 
L 123.503896 57.612725 
L 123.503896 67.560154 
L 121.705131 67.560154 
L 121.705131 57.612725 
L 117.295162 57.612725 
L 117.295162 56.267215 
L 127.913864 56.267215 
z
" style="fill:#ff0000;"/>
   </g>
   <g id="patch_9">
    <path clip-path="url(#p6574319c59)" d="M 135.600259 70.98395 
L 133.793758 62.499833 
L 131.873216 70.98395 
L 135.600259 70.98395 
z
M 132.951415 59.646694 
L 134.773467 59.646694 
L 139.091445 78.853094 
L 137.323822 78.853094 
L 136.118624 73.100796 
L 131.411872 73.100796 
L 130.123735 78.853094 
L 128.472743 78.853094 
L 132.951415 59.646694 
z
M 133.785982 59.646694 
L 133.785982 59.646694 
z
" style="fill:#008000;"/>
   </g>
   <g id="patch_10">
    <path clip-path="url(#p6574319c59)" d="M 146.77784 70.98395 
L 144.971339 62.499833 
L 143.050797 70.98395 
L 146.77784 70.98395 
z
M 144.128996 59.646694 
L 145.951048 59.646694 
L 150.269027 78.853094 
L 148.501403 78.853094 
L 147.296205 73.100796 
L 142.589453 73.100796 
L 141.301316 78.853094 
L 139.650324 78.853094 
L 144.128996 59.646694 
z
M 144.963563 59.646694 
L 144.963563 59.646694 
z
" style="fill:#008000;"/>
   </g>
   <g id="patch_11">
    <path clip-path="url(#p6574319c59)" d="M 161.446608 71.867796 
L 161.446608 72.700067 
L 157.036639 72.700067 
L 157.036639 78.853094 
L 155.237874 78.853094 
L 155.237874 72.700067 
L 150.827906 72.700067 
L 150.827906 71.867796 
L 161.446608 71.867796 
z
" style="fill:#ff0000;"/>
   </g>
   <g id="patch_12">
    <path clip-path="url(#p6574319c59)" d="M 157.955421 62.501708 
L 156.14892 52.403662 
L 154.228378 62.501708 
L 157.955421 62.501708 
z
M 155.306577 49.00777 
L 157.128629 49.00777 
L 161.446608 71.867796 
L 159.678984 71.867796 
L 158.473786 65.021241 
L 153.767034 65.021241 
L 152.478897 71.867796 
L 150.827906 71.867796 
L 155.306577 49.00777 
z
M 156.141144 49.00777 
L 156.141144 49.00777 
z
" style="fill:#008000;"/>
   </g>
   <g id="patch_13">
    <path clip-path="url(#p6574319c59)" d="M 167.481942 76.452273 
Q 169.120068 76.452273 170.315115 76.576514 
Q 172.04692 76.754923 172.434298 77.202188 
L 170.877192 77.202188 
Q 170.59109 76.952217 169.697336 76.837915 
Q 168.803583 76.723614 167.441432 76.723614 
Q 165.828625 76.723614 164.724725 76.961659 
Q 163.620826 77.199206 163.620826 77.669829 
Q 163.620826 78.076343 164.52977 78.331781 
Q 165.441247 78.587219 167.497133 78.587219 
Q 169.071962 78.587219 170.104969 78.408313 
Q 171.137976 78.22891 171.160763 77.827862 
L 167.522452 77.827862 
L 167.522452 77.571927 
L 172.624189 77.571927 
L 172.624189 78.792464 
L 171.611437 78.792464 
L 171.231655 78.49876 
Q 170.434113 78.671206 169.816335 78.738296 
Q 168.778264 78.853094 167.180648 78.853094 
Q 165.117166 78.853094 163.628421 78.590698 
Q 162.005487 78.261213 162.005487 77.686725 
Q 162.005487 77.113729 163.587911 76.775298 
Q 165.091848 76.452273 167.481942 76.452273 
z
M 167.221158 76.448795 
L 167.221158 76.448795 
z
" style="fill:#ffa600;"/>
   </g>
   <g id="patch_14">
    <path clip-path="url(#p6574319c59)" d="M 169.133002 70.15639 
L 167.326501 63.372234 
L 165.40596 70.15639 
L 169.133002 70.15639 
z
M 166.484158 61.090777 
L 168.30621 61.090777 
L 172.624189 76.448795 
L 170.856565 76.448795 
L 169.651367 71.849083 
L 164.944615 71.849083 
L 163.656478 76.448795 
L 162.005487 76.448795 
L 166.484158 61.090777 
z
M 167.318725 61.090777 
L 167.318725 61.090777 
z
" style="fill:#008000;"/>
   </g>
   <g id="patch_15">
    <path clip-path="url(#p6574319c59)" d="M 178.766231 69.681859 
Q 181.040177 69.681859 182.294498 70.554407 
Q 183.548819 71.425058 183.68703 72.532814 
L 182.106741 72.532814 
Q 181.838145 71.692513 181.034962 71.20123 
Q 180.231779 70.708051 178.781878 70.708051 
Q 177.013832 70.708051 175.926406 71.612845 
Q 174.83898 72.515742 174.83898 74.382236 
Q 174.83898 75.912988 175.819489 76.865203 
Q 176.802606 77.815521 178.750585 77.815521 
Q 180.5421 77.815521 181.480885 76.813988 
Q 181.976355 76.286666 182.221482 75.425499 
L 183.80177 75.425499 
Q 183.590543 76.80071 182.401416 77.73206 
Q 180.974984 78.853094 178.555005 78.853094 
Q 176.468816 78.853094 175.050207 77.933125 
Q 173.183068 76.719146 173.183068 74.18117 
Q 173.183068 72.255875 174.58603 71.022927 
Q 176.101125 69.681859 178.766231 69.681859 
z
M 178.440264 69.681859 
L 178.440264 69.681859 
z
" style="fill:#0000ff;"/>
   </g>
   <g id="patch_16">
    <path clip-path="url(#p6574319c59)" d="M 180.310583 56.87462 
L 178.504082 43.066496 
L 176.583541 56.87462 
L 180.310583 56.87462 
z
M 177.661739 38.422936 
L 179.483791 38.422936 
L 183.80177 69.681859 
L 182.034146 69.681859 
L 180.828948 60.319842 
L 176.122196 60.319842 
L 174.83406 69.681859 
L 173.183068 69.681859 
L 177.661739 38.422936 
z
M 178.496307 38.422936 
L 178.496307 38.422936 
z
" style="fill:#008000;"/>
   </g>
   <g id="patch_17">
    <path clip-path="url(#p6574319c59)" d="M 191.488164 70.226012 
L 189.681663 60.924724 
L 187.761122 70.226012 
L 191.488164 70.226012 
z
M 188.83932 57.796776 
L 190.661373 57.796776 
L 194.979351 78.853094 
L 193.211727 78.853094 
L 192.006529 72.546747 
L 187.299777 72.546747 
L 186.011641 78.853094 
L 184.360649 78.853094 
L 188.83932 57.796776 
z
M 189.673888 57.796776 
L 189.673888 57.796776 
z
" style="fill:#008000;"/>
   </g>
   <g id="patch_18">
    <path clip-path="url(#p6574319c59)" d="M 202.665746 66.045855 
L 200.859244 52.237731 
L 198.938703 66.045855 
L 202.665746 66.045855 
z
M 200.016902 47.59417 
L 201.838954 47.59417 
L 206.156932 78.853094 
L 204.389308 78.853094 
L 203.18411 69.491077 
L 198.477358 69.491077 
L 197.189222 78.853094 
L 195.53823 78.853094 
L 200.016902 47.59417 
z
M 200.851469 47.59417 
L 200.851469 47.59417 
z
" style="fill:#008000;"/>
   </g>
   <g id="patch_19">
    <path clip-path="url(#p6574319c59)" d="M 212.192266 76.452273 
Q 213.830392 76.452273 215.025439 76.576514 
Q 216.757245 76.754923 217.144622 77.202188 
L 215.587517 77.202188 
Q 215.301414 76.952217 214.407661 76.837915 
Q 213.513907 76.723614 212.151756 76.723614 
Q 210.538949 76.723614 209.43505 76.961659 
Q 208.33115 77.199206 208.33115 77.669829 
Q 208.33115 78.076343 209.240095 78.331781 
Q 210.151572 78.587219 212.207458 78.587219 
Q 213.782287 78.587219 214.815293 78.408313 
Q 215.8483 78.22891 215.871087 77.827862 
L 212.232776 77.827862 
L 212.232776 77.571927 
L 217.334513 77.571927 
L 217.334513 78.792464 
L 216.321762 78.792464 
L 215.94198 78.49876 
Q 215.144438 78.671206 214.526659 78.738296 
Q 213.488589 78.853094 211.890973 78.853094 
Q 209.827491 78.853094 208.338746 78.590698 
Q 206.715811 78.261213 206.715811 77.686725 
Q 206.715811 77.113729 208.298236 76.775298 
Q 209.802172 76.452273 212.192266 76.452273 
z
M 211.931483 76.448795 
L 211.931483 76.448795 
z
" style="fill:#ffa600;"/>
   </g>
   <g id="patch_20">
    <path clip-path="url(#p6574319c59)" d="M 217.334513 67.27756 
L 217.334513 68.370278 
L 212.924545 68.370278 
L 212.924545 76.448795 
L 211.12578 76.448795 
L 211.12578 68.370278 
L 206.715811 68.370278 
L 206.715811 67.27756 
L 217.334513 67.27756 
z
" style="fill:#ff0000;"/>
   </g>
   <g id="patch_21">
    <path clip-path="url(#p6574319c59)" d="M 213.843327 61.806198 
L 212.036825 55.907249 
L 210.116284 61.806198 
L 213.843327 61.806198 
z
M 211.194483 53.92348 
L 213.016535 53.92348 
L 217.334513 67.27756 
L 215.566889 67.27756 
L 214.361691 63.278026 
L 209.654939 63.278026 
L 208.366803 67.27756 
L 206.715811 67.27756 
L 211.194483 53.92348 
z
M 212.02905 53.92348 
L 212.02905 53.92348 
z
" style="fill:#008000;"/>
   </g>
   <g id="patch_22">
    <path clip-path="url(#p6574319c59)" d="M 223.369847 76.452273 
Q 225.007973 76.452273 226.20302 76.576514 
Q 227.934826 76.754923 228.322203 77.202188 
L 226.765098 77.202188 
Q 226.478995 76.952217 225.585242 76.837915 
Q 224.691488 76.723614 223.329337 76.723614 
Q 221.71653 76.723614 220.612631 76.961659 
Q 219.508731 77.199206 219.508731 77.669829 
Q 219.508731 78.076343 220.417676 78.331781 
Q 221.329153 78.587219 223.385039 78.587219 
Q 224.959868 78.587219 225.992874 78.408313 
Q 227.025881 78.22891 227.048668 77.827862 
L 223.410357 77.827862 
L 223.410357 77.571927 
L 228.512094 77.571927 
L 228.512094 78.792464 
L 227.499343 78.792464 
L 227.119561 78.49876 
Q 226.322019 78.671206 225.70424 78.738296 
Q 224.66617 78.853094 223.068554 78.853094 
Q 221.005072 78.853094 219.516327 78.590698 
Q 217.893392 78.261213 217.893392 77.686725 
Q 217.893392 77.113729 219.475817 76.775298 
Q 220.979753 76.452273 223.369847 76.452273 
z
M 223.109064 76.448795 
L 223.109064 76.448795 
z
" style="fill:#ffa600;"/>
   </g>
   <g id="patch_23">
    <path clip-path="url(#p6574319c59)" d="M 223.476556 67.27756 
Q 225.750502 67.27756 227.004823 68.150108 
Q 228.259144 69.020759 228.397354 70.128515 
L 226.817066 70.128515 
Q 226.548469 69.288213 225.745286 68.796931 
Q 224.942103 68.303752 223.492202 68.303752 
Q 221.724157 68.303752 220.636731 69.208546 
Q 219.549305 70.111443 219.549305 71.977936 
Q 219.549305 73.508688 220.529814 74.460904 
Q 221.51293 75.411222 223.460909 75.411222 
Q 225.252424 75.411222 226.191209 74.409689 
Q 226.686679 73.882366 226.931806 73.0212 
L 228.512094 73.0212 
Q 228.300868 74.396411 227.11174 75.327761 
Q 225.685308 76.448795 223.265329 76.448795 
Q 221.17914 76.448795 219.760531 75.528826 
Q 217.893392 74.314847 217.893392 71.776871 
Q 217.893392 69.851576 219.296354 68.618628 
Q 220.811449 67.27756 223.476556 67.27756 
z
M 223.150589 67.27756 
L 223.150589 67.27756 
z
" style="fill:#0000ff;"/>
   </g>
   <g id="patch_24">
    <path clip-path="url(#p6574319c59)" d="M 225.020908 61.806198 
L 223.214407 55.907249 
L 221.293865 61.806198 
L 225.020908 61.806198 
z
M 222.372064 53.92348 
L 224.194116 53.92348 
L 228.512094 67.27756 
L 226.744471 67.27756 
L 225.539273 63.278026 
L 220.832521 63.278026 
L 219.544384 67.27756 
L 217.893392 67.27756 
L 222.372064 53.92348 
z
M 223.206631 53.92348 
L 223.206631 53.92348 
z
" style="fill:#008000;"/>
   </g>
   <g id="patch_25">
    <path clip-path="url(#p6574319c59)" d="M 236.198489 76.914685 
L 234.391988 74.82479 
L 232.471446 76.914685 
L 236.198489 76.914685 
z
M 233.549645 74.121975 
L 235.371697 74.121975 
L 239.689676 78.853094 
L 237.922052 78.853094 
L 236.716854 77.436128 
L 232.010102 77.436128 
L 230.721965 78.853094 
L 229.070973 78.853094 
L 233.549645 74.121975 
z
M 234.384212 74.121975 
L 234.384212 74.121975 
z
" style="fill:#008000;"/>
   </g>
   <g id="patch_26">
    <path clip-path="url(#p6574319c59)" d="M 234.654137 67.136677 
Q 236.928083 67.136677 238.182404 67.801255 
Q 239.436725 68.464389 239.574935 69.308115 
L 237.994647 69.308115 
Q 237.72605 68.668097 236.922867 68.29391 
Q 236.119685 67.918279 234.669783 67.918279 
Q 232.901738 67.918279 231.814312 68.607418 
Q 230.726886 69.295112 230.726886 70.716732 
Q 230.726886 71.882634 231.707395 72.607891 
Q 232.690511 73.331704 234.63849 73.331704 
Q 236.430005 73.331704 237.36879 72.568884 
Q 237.86426 72.167247 238.109387 71.511337 
L 239.689676 71.511337 
Q 239.478449 72.55877 238.289321 73.268136 
Q 236.862889 74.121975 234.44291 74.121975 
Q 232.356721 74.121975 230.938113 73.421278 
Q 229.070973 72.496647 229.070973 70.56359 
Q 229.070973 69.097183 230.473936 68.158105 
Q 231.98903 67.136677 234.654137 67.136677 
z
M 234.32817 67.136677 
L 234.32817 67.136677 
z
" style="fill:#0000ff;"/>
   </g>
   <g id="patch_27">
    <path clip-path="url(#p6574319c59)" d="M 245.831718 65.499014 
Q 248.105664 65.499014 249.359985 66.769516 
Q 250.614306 68.037256 250.752516 69.650241 
L 249.172228 69.650241 
Q 248.903631 68.426692 248.100448 67.711345 
Q 247.297266 66.993235 245.847364 66.993235 
Q 244.079319 66.993235 242.991893 68.31069 
Q 241.904467 69.625383 241.904467 72.343153 
Q 241.904467 74.572055 242.884976 75.958559 
Q 243.868093 77.342301 245.816071 77.342301 
Q 247.607586 77.342301 248.546371 75.883986 
Q 249.041841 75.116161 249.286968 73.862231 
L 250.867257 73.862231 
Q 250.65603 75.864652 249.466902 77.220775 
Q 248.040471 78.853094 245.620491 78.853094 
Q 243.534302 78.853094 242.115694 77.513543 
Q 240.248555 75.745888 240.248555 72.050385 
Q 240.248555 69.246995 241.651517 67.45172 
Q 243.166611 65.499014 245.831718 65.499014 
z
M 245.505751 65.499014 
L 245.505751 65.499014 
z
" style="fill:#0000ff;"/>
   </g>
   <g id="patch_28">
    <path clip-path="url(#p6574319c59)" d="M 247.37607 58.407737 
L 245.569569 50.762278 
L 243.649027 58.407737 
L 247.37607 58.407737 
z
M 244.727226 48.191172 
L 246.549278 48.191172 
L 250.867257 65.499014 
L 249.099633 65.499014 
L 247.894435 60.315332 
L 243.187683 60.315332 
L 241.899546 65.499014 
L 240.248555 65.499014 
L 244.727226 48.191172 
z
M 245.561793 48.191172 
L 245.561793 48.191172 
z
" style="fill:#008000;"/>
   </g>
   <g id="patch_29">
    <path clip-path="url(#p6574319c59)" d="M 256.902591 76.452273 
Q 258.540717 76.452273 259.735764 76.576514 
Q 261.467569 76.754923 261.854947 77.202188 
L 260.297841 77.202188 
Q 260.011739 76.952217 259.117985 76.837915 
Q 258.224232 76.723614 256.862081 76.723614 
Q 255.249274 76.723614 254.145374 76.961659 
Q 253.041475 77.199206 253.041475 77.669829 
Q 253.041475 78.076343 253.950419 78.331781 
Q 254.861896 78.587219 256.917782 78.587219 
Q 258.492611 78.587219 259.525618 78.408313 
Q 260.558625 78.22891 260.581411 77.827862 
L 256.943101 77.827862 
L 256.943101 77.571927 
L 262.044838 77.571927 
L 262.044838 78.792464 
L 261.032086 78.792464 
L 260.652304 78.49876 
Q 259.854762 78.671206 259.236984 78.738296 
Q 258.198913 78.853094 256.601297 78.853094 
Q 254.537815 78.853094 253.04907 78.590698 
Q 251.426136 78.261213 251.426136 77.686725 
Q 251.426136 77.113729 253.00856 76.775298 
Q 254.512497 76.452273 256.902591 76.452273 
z
M 256.641807 76.448795 
L 256.641807 76.448795 
z
" style="fill:#ffa600;"/>
   </g>
   <g id="patch_30">
    <path clip-path="url(#p6574319c59)" d="M 258.553651 68.579651 
L 256.74715 60.095534 
L 254.826609 68.579651 
L 258.553651 68.579651 
z
M 255.904807 57.242394 
L 257.726859 57.242394 
L 262.044838 76.448795 
L 260.277214 76.448795 
L 259.072016 70.696497 
L 254.365264 70.696497 
L 253.077127 76.448795 
L 251.426136 76.448795 
L 255.904807 57.242394 
z
M 256.739374 57.242394 
L 256.739374 57.242394 
z
" style="fill:#008000;"/>
   </g>
   <g id="patch_31">
    <path clip-path="url(#p6574319c59)" d="M 269.731232 73.381732 
L 267.924731 67.482783 
L 266.00419 73.381732 
L 269.731232 73.381732 
z
M 267.082388 65.499014 
L 268.90444 65.499014 
L 273.222419 78.853094 
L 271.454795 78.853094 
L 270.249597 74.85356 
L 265.542845 74.85356 
L 264.254709 78.853094 
L 262.603717 78.853094 
L 267.082388 65.499014 
z
M 267.916956 65.499014 
L 267.916956 65.499014 
z
" style="fill:#008000;"/>
   </g>
   <g id="patch_32">
    <path clip-path="url(#p6574319c59)" d="M 268.18688 46.292614 
Q 270.460826 46.292614 271.715147 48.119903 
Q 272.969468 49.94322 273.107678 52.263083 
L 271.52739 52.263083 
Q 271.258793 50.503324 270.455611 49.474481 
Q 269.652428 48.441665 268.202527 48.441665 
Q 266.434481 48.441665 265.347055 50.336485 
Q 264.259629 52.227332 264.259629 56.136142 
Q 264.259629 59.341843 265.240138 61.335972 
Q 266.223255 63.326129 268.171234 63.326129 
Q 269.962749 63.326129 270.901534 61.228718 
Q 271.397003 60.1244 271.642131 58.320945 
L 273.222419 58.320945 
Q 273.011192 61.200912 271.822065 63.151344 
Q 270.395633 65.499014 267.975654 65.499014 
Q 265.889465 65.499014 264.470856 63.572415 
Q 262.603717 61.0301 262.603717 55.715071 
Q 262.603717 51.683117 264.006679 49.101078 
Q 265.521774 46.292614 268.18688 46.292614 
z
M 267.860913 46.292614 
L 267.860913 46.292614 
z
" style="fill:#0000ff;"/>
   </g>
   <g id="patch_33">
    <path clip-path="url(#p6574319c59)" d="M 279.364461 55.993068 
Q 281.638407 55.993068 282.892728 58.167962 
Q 284.14705 60.338128 284.28526 63.099298 
L 282.704971 63.099298 
Q 282.436375 61.00478 281.633192 59.780221 
Q 280.830009 58.550933 279.380108 58.550933 
Q 277.612063 58.550933 276.524636 60.806203 
Q 275.43721 63.056745 275.43721 67.709127 
Q 275.43721 71.524647 276.417719 73.898118 
Q 277.400836 76.266861 279.348815 76.266861 
Q 281.14033 76.266861 282.079115 73.770461 
Q 282.574585 72.456069 282.819712 70.309543 
L 284.4 70.309543 
Q 284.188773 73.737365 282.999646 76.058828 
Q 281.573214 78.853094 279.153235 78.853094 
Q 277.067046 78.853094 275.648437 76.559999 
Q 273.781298 73.53406 273.781298 67.207956 
Q 273.781298 62.409005 275.18426 59.335786 
Q 276.699355 55.993068 279.364461 55.993068 
z
M 279.038494 55.993068 
L 279.038494 55.993068 
z
" style="fill:#0000ff;"/>
   </g>
   <g id="patch_34">
    <path clip-path="url(#p6574319c59)" d="M 100.523163 81.34021 
Q 102.797109 81.34021 104.051431 81.103587 
Q 105.305752 80.867478 105.443962 80.567069 
L 103.863673 80.567069 
Q 103.595077 80.794948 102.791894 80.928177 
Q 101.988711 81.061921 100.53881 81.061921 
Q 98.770765 81.061921 97.683339 80.816552 
Q 96.595913 80.571699 96.595913 80.065531 
Q 96.595913 79.650411 97.576421 79.392183 
Q 98.559538 79.13447 100.507517 79.13447 
Q 102.299032 79.13447 103.237817 79.406072 
Q 103.733287 79.549075 103.978414 79.782612 
L 105.558702 79.782612 
Q 105.347475 79.409673 104.158348 79.157103 
Q 102.731916 78.853094 100.311937 78.853094 
Q 98.225748 78.853094 96.807139 79.102577 
Q 94.94 79.431792 94.94 80.120057 
Q 94.94 80.642171 96.342962 80.97653 
Q 97.858057 81.34021 100.523163 81.34021 
z
M 100.197196 81.34021 
L 100.197196 81.34021 
z
" style="fill:none;opacity:0;"/>
   </g>
   <g id="patch_35">
    <path clip-path="url(#p6574319c59)" d="M 100.416455 100.844031 
Q 102.054581 100.844031 103.249628 99.834725 
Q 104.981434 98.385363 105.368811 94.751863 
L 103.811705 94.751863 
Q 103.525603 96.782585 102.63185 97.711146 
Q 101.738096 98.639708 100.375945 98.639708 
Q 98.763138 98.639708 97.659238 96.705878 
Q 96.555339 94.776086 96.555339 90.952836 
Q 96.555339 87.650389 97.464284 85.575256 
Q 98.37576 83.500124 100.431646 83.500124 
Q 102.006475 83.500124 103.039482 84.953524 
Q 104.072489 86.410961 104.095276 89.669 
L 100.456965 89.669 
L 100.456965 91.748169 
L 105.558702 91.748169 
L 105.558702 81.832751 
L 104.54595 81.832751 
L 104.166168 84.21875 
Q 103.368626 82.817833 102.750848 82.272808 
Q 101.712777 81.34021 100.115161 81.34021 
Q 98.05168 81.34021 96.562935 83.471863 
Q 94.94 86.148542 94.94 90.815571 
Q 94.94 95.470488 96.522425 98.219836 
Q 98.026361 100.844031 100.416455 100.844031 
z
M 100.155671 100.872292 
L 100.155671 100.872292 
z
" style="fill:none;opacity:0;"/>
   </g>
   <g id="patch_36">
    <path clip-path="url(#p6574319c59)" d="M 111.594036 110.120773 
Q 113.232162 110.120773 114.427209 108.764702 
Q 116.159015 106.817384 116.546392 101.935527 
L 114.989286 101.935527 
Q 114.703184 104.663942 113.809431 105.911528 
Q 112.915677 107.159113 111.553526 107.159113 
Q 109.940719 107.159113 108.83682 104.560881 
Q 107.73292 101.968073 107.73292 96.831275 
Q 107.73292 92.39421 108.641865 89.606128 
Q 109.553341 86.818045 111.609227 86.818045 
Q 113.184056 86.818045 114.217063 88.770788 
Q 115.25007 90.728955 115.272857 95.106353 
L 111.634546 95.106353 
L 111.634546 97.899859 
L 116.736283 97.899859 
L 116.736283 84.577816 
L 115.723531 84.577816 
L 115.34375 87.783568 
Q 114.546208 85.901341 113.928429 85.169063 
Q 112.890358 83.916053 111.292743 83.916053 
Q 109.229261 83.916053 107.740516 86.780075 
Q 106.117581 90.376376 106.117581 96.64685 
Q 106.117581 102.90105 107.700006 106.594988 
Q 109.203942 110.120773 111.594036 110.120773 
z
M 111.333253 110.158743 
L 111.333253 110.158743 
z
" style="fill:none;opacity:0;"/>
   </g>
   <g id="patch_37">
    <path clip-path="url(#p6574319c59)" d="M 116.736283 83.916053 
L 116.736283 83.312821 
L 112.326315 83.312821 
L 112.326315 78.853094 
L 110.527549 78.853094 
L 110.527549 83.312821 
L 106.117581 83.312821 
L 106.117581 83.916053 
L 116.736283 83.916053 
z
" style="fill:none;opacity:0;"/>
   </g>
   <g id="patch_38">
    <path clip-path="url(#p6574319c59)" d="M 122.771617 108.65724 
Q 124.409743 108.65724 125.60479 107.114902 
Q 127.336596 104.900104 127.723973 99.347686 
L 126.166868 99.347686 
Q 125.880765 102.450871 124.987012 103.869822 
Q 124.093258 105.288773 122.731107 105.288773 
Q 121.1183 105.288773 120.014401 102.333653 
Q 118.910501 99.384702 118.910501 93.542324 
Q 118.910501 88.495793 119.819446 85.324745 
Q 120.730923 82.153698 122.786809 82.153698 
Q 124.361638 82.153698 125.394644 84.374665 
Q 126.427651 86.601802 126.450438 91.58047 
L 122.812127 91.58047 
L 122.812127 94.757687 
L 127.913864 94.757687 
L 127.913864 79.605755 
L 126.901113 79.605755 
L 126.521331 83.251843 
Q 125.723789 81.111077 125.10601 80.278214 
Q 124.06794 78.853094 122.470324 78.853094 
Q 120.406842 78.853094 118.918097 82.110512 
Q 117.295162 86.200794 117.295162 93.332566 
Q 117.295162 100.445831 118.877587 104.64716 
Q 120.381523 108.65724 122.771617 108.65724 
z
M 122.510834 108.700426 
L 122.510834 108.700426 
z
" style="fill:none;opacity:0;"/>
   </g>
   <g id="patch_39">
    <path clip-path="url(#p6574319c59)" d="M 134.055907 89.074305 
Q 136.329853 89.074305 137.584174 88.338486 
Q 138.838495 87.604267 138.976705 86.670097 
L 137.396417 86.670097 
Q 137.12782 87.378722 136.324637 87.79302 
Q 135.521454 88.208918 134.071553 88.208918 
Q 132.303508 88.208918 131.216082 87.445906 
Q 130.128656 86.684493 130.128656 85.110481 
Q 130.128656 83.819599 131.109165 83.016597 
Q 132.092281 82.215195 134.04026 82.215195 
Q 135.831775 82.215195 136.77056 83.059786 
Q 137.26603 83.504477 137.511157 84.230698 
L 139.091445 84.230698 
Q 138.880219 83.070984 137.691091 82.285577 
Q 136.264659 81.34021 133.84468 81.34021 
Q 131.758491 81.34021 130.339883 82.116019 
Q 128.472743 83.139767 128.472743 85.280039 
Q 128.472743 86.903639 129.875705 87.943383 
Q 131.3908 89.074305 134.055907 89.074305 
z
M 133.72994 89.074305 
L 133.72994 89.074305 
z
" style="fill:none;opacity:0;"/>
   </g>
   <g id="patch_40">
    <path clip-path="url(#p6574319c59)" d="M 133.949198 81.336612 
Q 135.587324 81.336612 136.782371 81.208092 
Q 138.514177 81.023537 138.901554 80.560866 
L 137.344449 80.560866 
Q 137.058346 80.819448 136.164593 80.937686 
Q 135.270839 81.055924 133.908688 81.055924 
Q 132.295881 81.055924 131.191982 80.80968 
Q 130.088082 80.56395 130.088082 80.077117 
Q 130.088082 79.6566 130.997027 79.392363 
Q 131.908504 79.128126 133.96439 79.128126 
Q 135.539219 79.128126 136.572225 79.313195 
Q 137.605232 79.498778 137.628019 79.91364 
L 133.989709 79.91364 
L 133.989709 80.178391 
L 139.091445 80.178391 
L 139.091445 78.915811 
L 138.078694 78.915811 
L 137.698912 79.219632 
Q 136.90137 79.041247 136.283591 78.971846 
Q 135.245521 78.853094 133.647905 78.853094 
Q 131.584423 78.853094 130.095678 79.124528 
Q 128.472743 79.465362 128.472743 80.059638 
Q 128.472743 80.652372 130.055168 81.00246 
Q 131.559104 81.336612 133.949198 81.336612 
z
M 133.688415 81.34021 
L 133.688415 81.34021 
z
" style="fill:none;opacity:0;"/>
   </g>
   <g id="patch_41">
    <path clip-path="url(#p6574319c59)" d="M 139.091445 102.466714 
L 139.091445 100.87106 
L 134.681477 100.87106 
L 134.681477 89.074305 
L 132.882712 89.074305 
L 132.882712 100.87106 
L 128.472743 100.87106 
L 128.472743 102.466714 
L 139.091445 102.466714 
z
" style="fill:none;opacity:0;"/>
   </g>
   <g id="patch_42">
    <path clip-path="url(#p6574319c59)" d="M 145.12678 105.057814 
Q 146.764906 105.057814 147.959953 103.701742 
Q 149.691758 101.754424 150.079136 96.872568 
L 148.52203 96.872568 
Q 148.235927 99.600983 147.342174 100.848569 
Q 146.448421 102.096154 145.086269 102.096154 
Q 143.473462 102.096154 142.369563 99.497922 
Q 141.265664 96.905114 141.265664 91.768316 
Q 141.265664 87.331251 142.174608 84.543169 
Q 143.086085 81.755086 145.141971 81.755086 
Q 146.7168 81.755086 147.749807 83.707829 
Q 148.782813 85.665995 148.8056 90.043393 
L 145.16729 90.043393 
L 145.16729 92.8369 
L 150.269027 92.8369 
L 150.269027 79.514857 
L 149.256275 79.514857 
L 148.876493 82.720609 
Q 148.078951 80.838382 147.461172 80.106104 
Q 146.423102 78.853094 144.825486 78.853094 
Q 142.762004 78.853094 141.273259 81.717116 
Q 139.650324 85.313417 139.650324 91.58389 
Q 139.650324 97.838091 141.232749 101.532028 
Q 142.736685 105.057814 145.12678 105.057814 
z
M 144.865996 105.095784 
L 144.865996 105.095784 
z
" style="fill:none;opacity:0;"/>
   </g>
   <g id="patch_43">
    <path clip-path="url(#p6574319c59)" d="M 156.411069 86.587188 
Q 158.685015 86.587188 159.939336 85.85137 
Q 161.193657 85.117151 161.331867 84.182981 
L 159.751579 84.182981 
Q 159.482982 84.891606 158.679799 85.305904 
Q 157.876617 85.721802 156.426715 85.721802 
Q 154.65867 85.721802 153.571244 84.95879 
Q 152.483818 84.197377 152.483818 82.623365 
Q 152.483818 81.332483 153.464327 80.529481 
Q 154.447444 79.728078 156.395423 79.728078 
Q 158.186937 79.728078 159.125722 80.57267 
Q 159.621192 81.017361 159.866319 81.743582 
L 161.446608 81.743582 
Q 161.235381 80.583867 160.046253 79.798461 
Q 158.619822 78.853094 156.199842 78.853094 
Q 154.113653 78.853094 152.695045 79.628903 
Q 150.827906 80.65265 150.827906 82.792923 
Q 150.827906 84.416523 152.230868 85.456267 
Q 153.745962 86.587188 156.411069 86.587188 
z
M 156.085102 86.587188 
L 156.085102 86.587188 
z
" style="fill:none;opacity:0;"/>
   </g>
   <g id="patch_44">
    <path clip-path="url(#p6574319c59)" d="M 156.304361 120.179921 
Q 157.942487 120.179921 159.137534 118.441527 
Q 160.869339 115.945192 161.256717 109.686973 
L 159.699611 109.686973 
Q 159.413509 113.184622 158.519755 114.783945 
Q 157.626002 116.383268 156.263851 116.383268 
Q 154.651043 116.383268 153.547144 113.052504 
Q 152.443245 109.728694 152.443245 103.143656 
Q 152.443245 97.45563 153.352189 93.881491 
Q 154.263666 90.307352 156.319552 90.307352 
Q 157.894381 90.307352 158.927388 92.81064 
Q 159.960394 95.320882 159.983181 100.932419 
L 156.344871 100.932419 
L 156.344871 104.513511 
L 161.446608 104.513511 
L 161.446608 87.435525 
L 160.433856 87.435525 
L 160.054074 91.545089 
Q 159.256532 89.132198 158.638753 88.193465 
Q 157.600683 86.587188 156.003067 86.587188 
Q 153.939585 86.587188 152.45084 90.258677 
Q 150.827906 94.868899 150.827906 102.907235 
Q 150.827906 110.924709 152.41033 115.660096 
Q 153.914267 120.179921 156.304361 120.179921 
z
M 156.043577 120.228596 
L 156.043577 120.228596 
z
" style="fill:none;opacity:0;"/>
   </g>
   <g id="patch_45">
    <path clip-path="url(#p6574319c59)" d="M 167.58865 81.34021 
Q 169.862596 81.34021 171.116917 81.103587 
Q 172.371238 80.867478 172.509448 80.567069 
L 170.92916 80.567069 
Q 170.660563 80.794948 169.857381 80.928177 
Q 169.054198 81.061921 167.604296 81.061921 
Q 165.836251 81.061921 164.748825 80.816552 
Q 163.661399 80.571699 163.661399 80.065531 
Q 163.661399 79.650411 164.641908 79.392183 
Q 165.625025 79.13447 167.573004 79.13447 
Q 169.364518 79.13447 170.303304 79.406072 
Q 170.798773 79.549075 171.043901 79.782612 
L 172.624189 79.782612 
Q 172.412962 79.409673 171.223834 79.157103 
Q 169.797403 78.853094 167.377423 78.853094 
Q 165.291234 78.853094 163.872626 79.102577 
Q 162.005487 79.431792 162.005487 80.120057 
Q 162.005487 80.642171 163.408449 80.97653 
Q 164.923544 81.34021 167.58865 81.34021 
z
M 167.262683 81.34021 
L 167.262683 81.34021 
z
" style="fill:none;opacity:0;"/>
   </g>
   <g id="patch_46">
    <path clip-path="url(#p6574319c59)" d="M 172.624189 100.872292 
L 172.624189 98.545119 
L 168.21422 98.545119 
L 168.21422 81.34021 
L 166.415455 81.34021 
L 166.415455 98.545119 
L 162.005487 98.545119 
L 162.005487 100.872292 
L 172.624189 100.872292 
z
" style="fill:none;opacity:0;"/>
   </g>
   <g id="patch_47">
    <path clip-path="url(#p6574319c59)" d="M 178.659523 95.226382 
Q 180.297649 95.226382 181.492696 94.379079 
Q 183.224501 93.162351 183.611879 90.11206 
L 182.054773 90.11206 
Q 181.768671 91.816834 180.874917 92.596353 
Q 179.981164 93.375872 178.619013 93.375872 
Q 177.006206 93.375872 175.902306 91.752439 
Q 174.798407 90.132395 174.798407 86.92281 
Q 174.798407 84.150434 175.707352 82.408378 
Q 176.618828 80.666323 178.674714 80.666323 
Q 180.249543 80.666323 181.28255 81.886439 
Q 182.315557 83.109945 182.338344 85.84504 
L 178.700033 85.84504 
L 178.700033 87.590485 
L 183.80177 87.590485 
L 183.80177 79.266578 
L 182.789018 79.266578 
L 182.409236 81.269603 
Q 181.611694 80.093546 180.993916 79.636002 
Q 179.955845 78.853094 178.358229 78.853094 
Q 176.294748 78.853094 174.806003 80.642598 
Q 173.183068 82.889647 173.183068 86.807577 
Q 173.183068 90.715339 174.765492 93.023394 
Q 176.269429 95.226382 178.659523 95.226382 
z
M 178.398739 95.250107 
L 178.398739 95.250107 
z
" style="fill:none;opacity:0;"/>
   </g>
   <g id="patch_48">
    <path clip-path="url(#p6574319c59)" d="M 183.80177 141.64 
L 183.80177 136.112823 
L 179.391802 136.112823 
L 179.391802 95.250107 
L 177.593036 95.250107 
L 177.593036 136.112823 
L 173.183068 136.112823 
L 173.183068 141.64 
L 183.80177 141.64 
z
" style="fill:none;opacity:0;"/>
   </g>
   <g id="patch_49">
    <path clip-path="url(#p6574319c59)" d="M 189.837104 89.345735 
Q 191.47523 89.345735 192.670277 88.80275 
Q 194.402083 88.023023 194.78946 86.068278 
L 193.232354 86.068278 
Q 192.946252 87.160763 192.052498 87.660309 
Q 191.158745 88.159856 189.796594 88.159856 
Q 188.183787 88.159856 187.079887 87.119496 
Q 185.975988 86.081309 185.975988 84.024482 
Q 185.975988 82.247836 186.884933 81.131459 
Q 187.796409 80.015082 189.852295 80.015082 
Q 191.427124 80.015082 192.460131 80.79698 
Q 193.493138 81.58105 193.515925 83.333805 
L 189.877614 83.333805 
L 189.877614 84.452354 
L 194.979351 84.452354 
L 194.979351 79.11807 
L 193.966599 79.11807 
L 193.586817 80.401687 
Q 192.789275 79.648024 192.171497 79.354812 
Q 191.133426 78.853094 189.53581 78.853094 
Q 187.472329 78.853094 185.983584 79.999878 
Q 184.360649 81.439874 184.360649 83.950636 
Q 184.360649 86.454883 185.943074 87.933974 
Q 187.44701 89.345735 189.837104 89.345735 
z
M 189.57632 89.360938 
L 189.57632 89.360938 
z
" style="fill:none;opacity:0;"/>
   </g>
   <g id="patch_50">
    <path clip-path="url(#p6574319c59)" d="M 194.979351 105.757951 
L 194.979351 103.80431 
L 190.569383 103.80431 
L 190.569383 89.360938 
L 188.770617 89.360938 
L 188.770617 103.80431 
L 184.360649 103.80431 
L 184.360649 105.757951 
L 194.979351 105.757951 
z
" style="fill:none;opacity:0;"/>
   </g>
   <g id="patch_51">
    <path clip-path="url(#p6574319c59)" d="M 201.121393 99.868783 
Q 203.395339 99.868783 204.649661 98.869071 
Q 205.903982 97.871532 206.042192 96.602332 
L 204.461904 96.602332 
Q 204.193307 97.565098 203.390124 98.12798 
Q 202.586941 98.693034 201.13704 98.693034 
Q 199.368995 98.693034 198.281569 97.656376 
Q 197.194143 96.621891 197.194143 94.483377 
Q 197.194143 92.729534 198.174651 91.638543 
Q 199.157768 90.549727 201.105747 90.549727 
Q 202.897262 90.549727 203.836047 91.697222 
Q 204.331517 92.301396 204.576644 93.288069 
L 206.156932 93.288069 
Q 205.945706 91.712435 204.756578 90.645351 
Q 203.330146 89.360938 200.910167 89.360938 
Q 198.823978 89.360938 197.405369 90.414983 
Q 195.53823 91.805887 195.53823 94.713745 
Q 195.53823 96.919632 196.941192 98.332269 
Q 198.456287 99.868783 201.121393 99.868783 
z
M 200.795426 99.868783 
L 200.795426 99.868783 
z
" style="fill:none;opacity:0;"/>
   </g>
   <g id="patch_52">
    <path clip-path="url(#p6574319c59)" d="M 201.014685 122.645242 
Q 202.652811 122.645242 203.847858 121.46658 
Q 205.579664 119.774022 205.967041 115.53084 
L 204.409935 115.53084 
Q 204.123833 117.902307 203.23008 118.986676 
Q 202.336326 120.071045 200.974175 120.071045 
Q 199.361368 120.071045 198.257469 117.812729 
Q 197.153569 115.559128 197.153569 111.094357 
Q 197.153569 107.237776 198.062514 104.814447 
Q 198.97399 102.391119 201.029876 102.391119 
Q 202.604705 102.391119 203.637712 104.088392 
Q 204.670719 105.790379 204.693506 109.595099 
L 201.055195 109.595099 
L 201.055195 112.023142 
L 206.156932 112.023142 
L 206.156932 100.44397 
L 205.14418 100.44397 
L 204.764399 103.230326 
Q 203.966857 101.594344 203.349078 100.957866 
Q 202.311007 99.868783 200.713392 99.868783 
Q 198.64991 99.868783 197.161165 102.358116 
Q 195.53823 105.483927 195.53823 110.934059 
Q 195.53823 116.370047 197.120655 119.580721 
Q 198.624591 122.645242 201.014685 122.645242 
z
M 200.753902 122.678244 
L 200.753902 122.678244 
z
" style="fill:none;opacity:0;"/>
   </g>
   <g id="patch_53">
    <path clip-path="url(#p6574319c59)" d="M 206.156932 89.360938 
L 206.156932 88.108969 
L 201.746964 88.108969 
L 201.746964 78.853094 
L 199.948198 78.853094 
L 199.948198 88.108969 
L 195.53823 88.108969 
L 195.53823 89.360938 
L 206.156932 89.360938 
z
" style="fill:none;opacity:0;"/>
   </g>
   <g id="patch_54">
    <path clip-path="url(#p6574319c59)" d="M 212.298975 112.494501 
Q 214.572921 112.494501 215.827242 109.293871 
Q 217.081563 106.100199 217.219773 102.03679 
L 215.639485 102.03679 
Q 215.370888 105.119136 214.567705 106.92123 
Q 213.764522 108.730282 212.314621 108.730282 
Q 210.546576 108.730282 209.45915 105.411367 
Q 208.371724 102.099411 208.371724 95.252845 
Q 208.371724 89.637826 209.352233 86.144965 
Q 210.335349 82.659061 212.283328 82.659061 
Q 214.074843 82.659061 215.013628 86.332828 
Q 215.509098 88.267122 215.754225 91.426005 
L 217.334513 91.426005 
Q 217.123287 86.381533 215.934159 82.965208 
Q 214.507727 78.853094 212.087748 78.853094 
Q 210.001559 78.853094 208.58295 82.227671 
Q 206.715811 86.680722 206.715811 95.990382 
Q 206.715811 103.052642 208.118773 107.575272 
Q 209.633868 112.494501 212.298975 112.494501 
z
M 211.973008 112.494501 
L 211.973008 112.494501 
z
" style="fill:none;opacity:0;"/>
   </g>
   <g id="patch_55">
    <path clip-path="url(#p6574319c59)" d="M 228.512094 112.494501 
L 228.512094 108.486257 
L 224.102126 108.486257 
L 224.102126 78.853094 
L 222.303361 78.853094 
L 222.303361 108.486257 
L 217.893392 108.486257 
L 217.893392 112.494501 
L 228.512094 112.494501 
z
" style="fill:none;opacity:0;"/>
   </g>
   <g id="patch_56">
    <path clip-path="url(#p6574319c59)" d="M 234.547429 91.832851 
Q 236.185554 91.832851 237.380602 91.289866 
Q 239.112407 90.51014 239.499785 88.555394 
L 237.942679 88.555394 
Q 237.656576 89.64788 236.762823 90.147426 
Q 235.86907 90.646972 234.506918 90.646972 
Q 232.894111 90.646972 231.790212 89.606613 
Q 230.686312 88.568426 230.686312 86.511599 
Q 230.686312 84.734952 231.595257 83.618575 
Q 232.506734 82.502198 234.56262 82.502198 
Q 236.137449 82.502198 237.170456 83.284096 
Q 238.203462 84.068166 238.226249 85.820922 
L 234.587939 85.820922 
L 234.587939 86.939471 
L 239.689676 86.939471 
L 239.689676 81.605187 
L 238.676924 81.605187 
L 238.297142 82.888803 
Q 237.4996 82.13514 236.881821 81.841928 
Q 235.843751 81.34021 234.246135 81.34021 
Q 232.182653 81.34021 230.693908 82.486994 
Q 229.070973 83.92699 229.070973 86.437753 
Q 229.070973 88.941999 230.653398 90.42109 
Q 232.157334 91.832851 234.547429 91.832851 
z
M 234.286645 91.848055 
L 234.286645 91.848055 
z
" style="fill:none;opacity:0;"/>
   </g>
   <g id="patch_57">
    <path clip-path="url(#p6574319c59)" d="M 239.689676 81.34021 
L 239.689676 81.04388 
L 235.279707 81.04388 
L 235.279707 78.853094 
L 233.480942 78.853094 
L 233.480942 81.04388 
L 229.070973 81.04388 
L 229.070973 81.34021 
L 239.689676 81.34021 
z
" style="fill:none;opacity:0;"/>
   </g>
   <g id="patch_58">
    <path clip-path="url(#p6574319c59)" d="M 245.72501 89.345735 
Q 247.363136 89.345735 248.558183 88.80275 
Q 250.289988 88.023023 250.677366 86.068278 
L 249.12026 86.068278 
Q 248.834158 87.160763 247.940404 87.660309 
Q 247.046651 88.159856 245.6845 88.159856 
Q 244.071692 88.159856 242.967793 87.119496 
Q 241.863894 86.081309 241.863894 84.024482 
Q 241.863894 82.247836 242.772838 81.131459 
Q 243.684315 80.015082 245.740201 80.015082 
Q 247.31503 80.015082 248.348037 80.79698 
Q 249.381043 81.58105 249.40383 83.333805 
L 245.76552 83.333805 
L 245.76552 84.452354 
L 250.867257 84.452354 
L 250.867257 79.11807 
L 249.854505 79.11807 
L 249.474723 80.401687 
Q 248.677181 79.648024 248.059402 79.354812 
Q 247.021332 78.853094 245.423716 78.853094 
Q 243.360234 78.853094 241.871489 79.999878 
Q 240.248555 81.439874 240.248555 83.950636 
Q 240.248555 86.454883 241.830979 87.933974 
Q 243.334916 89.345735 245.72501 89.345735 
z
M 245.464226 89.360938 
L 245.464226 89.360938 
z
" style="fill:none;opacity:0;"/>
   </g>
   <g id="patch_59">
    <path clip-path="url(#p6574319c59)" d="M 250.867257 119.20827 
L 250.867257 115.652075 
L 246.457288 115.652075 
L 246.457288 89.360938 
L 244.658523 89.360938 
L 244.658523 115.652075 
L 240.248555 115.652075 
L 240.248555 119.20827 
L 250.867257 119.20827 
z
" style="fill:none;opacity:0;"/>
   </g>
   <g id="patch_60">
    <path clip-path="url(#p6574319c59)" d="M 257.009299 83.916053 
Q 259.283245 83.916053 260.537566 83.434365 
Q 261.791887 82.953724 261.930097 82.34219 
L 260.349809 82.34219 
Q 260.081212 82.806077 259.27803 83.077288 
Q 258.474847 83.349546 257.024945 83.349546 
Q 255.2569 83.349546 254.169474 82.850057 
Q 253.082048 82.351614 253.082048 81.321221 
Q 253.082048 80.476173 254.062557 79.950505 
Q 255.045674 79.425884 256.993653 79.425884 
Q 258.785167 79.425884 259.723952 79.978778 
Q 260.219422 80.269885 260.46455 80.74529 
L 262.044838 80.74529 
Q 261.833611 79.986108 260.644483 79.471958 
Q 259.218052 78.853094 256.798072 78.853094 
Q 254.711883 78.853094 253.293275 79.36096 
Q 251.426136 80.031135 251.426136 81.432219 
Q 251.426136 82.495074 252.829098 83.17572 
Q 254.344193 83.916053 257.009299 83.916053 
z
M 256.683332 83.916053 
L 256.683332 83.916053 
z
" style="fill:none;opacity:0;"/>
   </g>
   <g id="patch_61">
    <path clip-path="url(#p6574319c59)" d="M 262.044838 106.725515 
L 262.044838 104.007855 
L 257.634869 104.007855 
L 257.634869 83.916053 
L 255.836104 83.916053 
L 255.836104 104.007855 
L 251.426136 104.007855 
L 251.426136 106.725515 
L 262.044838 106.725515 
z
" style="fill:none;opacity:0;"/>
   </g>
   <g id="patch_62">
    <path clip-path="url(#p6574319c59)" d="M 268.080172 98.356915 
Q 269.718298 98.356915 270.913345 97.347609 
Q 272.64515 95.898246 273.032528 92.264746 
L 271.475422 92.264746 
Q 271.18932 94.295469 270.295566 95.22403 
Q 269.401813 96.152591 268.039662 96.152591 
Q 266.426855 96.152591 265.322955 94.218762 
Q 264.219056 92.28897 264.219056 88.46572 
Q 264.219056 85.163272 265.128001 83.08814 
Q 266.039477 81.013008 268.095363 81.013008 
Q 269.670192 81.013008 270.703199 82.466408 
Q 271.736206 83.923845 271.758993 87.181883 
L 268.120682 87.181883 
L 268.120682 89.261053 
L 273.222419 89.261053 
L 273.222419 79.345635 
L 272.209667 79.345635 
L 271.829885 81.731633 
Q 271.032343 80.330717 270.414565 79.785692 
Q 269.376494 78.853094 267.778878 78.853094 
Q 265.715397 78.853094 264.226651 80.984747 
Q 262.603717 83.661426 262.603717 88.328454 
Q 262.603717 92.983372 264.186141 95.73272 
Q 265.690078 98.356915 268.080172 98.356915 
z
M 267.819388 98.385175 
L 267.819388 98.385175 
z
" style="fill:none;opacity:0;"/>
   </g>
   <g id="patch_63">
    <path clip-path="url(#p6574319c59)" d="M 273.222419 121.194637 
L 273.222419 118.476977 
L 268.812451 118.476977 
L 268.812451 98.385175 
L 267.013685 98.385175 
L 267.013685 118.476977 
L 262.603717 118.476977 
L 262.603717 121.194637 
L 273.222419 121.194637 
z
" style="fill:none;opacity:0;"/>
   </g>
   <g id="patch_64">
    <path clip-path="url(#p6574319c59)" d="M 280.908813 79.872102 
L 279.102312 80.970745 
L 277.181771 79.872102 
L 280.908813 79.872102 
z
M 278.259969 81.34021 
L 280.082022 81.34021 
L 284.4 78.853094 
L 282.632376 78.853094 
L 281.427178 79.597983 
L 276.720426 79.597983 
L 275.43229 78.853094 
L 273.781298 78.853094 
L 278.259969 81.34021 
z
M 279.094537 81.34021 
L 279.094537 81.34021 
z
" style="fill:none;opacity:0;"/>
   </g>
   <g id="patch_65">
    <path clip-path="url(#p6574319c59)" d="M 279.257753 86.395844 
Q 280.895879 86.395844 282.090926 86.134219 
Q 283.822732 85.758526 284.210109 84.816678 
L 282.653003 84.816678 
Q 282.366901 85.343067 281.473147 85.583761 
Q 280.579394 85.824456 279.217243 85.824456 
Q 277.604436 85.824456 276.500536 85.323183 
Q 275.396637 84.822957 275.396637 83.831923 
Q 275.396637 82.975887 276.305582 82.437987 
Q 277.217058 81.900087 279.272944 81.900087 
Q 280.847773 81.900087 281.88078 82.276826 
Q 282.913787 82.654612 282.936574 83.499136 
L 279.298263 83.499136 
L 279.298263 84.038083 
L 284.4 84.038083 
L 284.4 81.467883 
L 283.387248 81.467883 
L 283.007466 82.086363 
Q 282.209924 81.723228 281.592146 81.581951 
Q 280.554075 81.34021 278.956459 81.34021 
Q 276.892978 81.34021 275.404233 81.892761 
Q 273.781298 82.58659 273.781298 83.796342 
Q 273.781298 85.002955 275.363723 85.71562 
Q 276.867659 86.395844 279.257753 86.395844 
z
M 278.996969 86.403169 
L 278.996969 86.403169 
z
" style="fill:none;opacity:0;"/>
   </g>
   <g id="patch_66">
    <path clip-path="url(#p6574319c59)" d="M 284.4 109.212631 
L 284.4 106.494971 
L 279.990032 106.494971 
L 279.990032 86.403169 
L 278.191266 86.403169 
L 278.191266 106.494971 
L 273.781298 106.494971 
L 273.781298 109.212631 
L 284.4 109.212631 
z
" style="fill:none;opacity:0;"/>
   </g>
   <g id="matplotlib.axis_1">
    <g id="xtick_1">
     <g id="line2d_2">
      <path clip-path="url(#p6574319c59)" d="M 100.249351 141.64 
L 100.249351 28.8 
" style="fill:none;stroke:#cccccc;stroke-linecap:round;stroke-width:0.8;"/>
     </g>
     <g id="text_1">
      <!-- 0 -->
      <g style="fill:#262626;" transform="translate(94.688414 162.986875)scale(0.2 -0.2)">
       <defs>
        <path d="M 1731 4475 
Q 2600 4475 2988 3759 
Q 3288 3206 3288 2244 
Q 3288 1331 3016 734 
Q 2622 -122 1728 -122 
Q 922 -122 528 578 
Q 200 1163 200 2147 
Q 200 2909 397 3456 
Q 766 4475 1731 4475 
z
M 1725 391 
Q 2163 391 2422 778 
Q 2681 1166 2681 2222 
Q 2681 2984 2493 3476 
Q 2306 3969 1766 3969 
Q 1269 3969 1039 3501 
Q 809 3034 809 2125 
Q 809 1441 956 1025 
Q 1181 391 1725 391 
z
" id="Helvetica-30" transform="scale(0.015625)"/>
       </defs>
       <use xlink:href="#Helvetica-30"/>
      </g>
     </g>
    </g>
    <g id="xtick_2">
     <g id="line2d_3">
      <path clip-path="url(#p6574319c59)" d="M 212.025162 141.64 
L 212.025162 28.8 
" style="fill:none;stroke:#cccccc;stroke-linecap:round;stroke-width:0.8;"/>
     </g>
     <g id="text_2">
      <!-- 10 -->
      <g style="fill:#262626;" transform="translate(200.903287 162.986875)scale(0.2 -0.2)">
       <defs>
        <path d="M 613 3169 
L 613 3600 
Q 1222 3659 1462 3798 
Q 1703 3938 1822 4456 
L 2266 4456 
L 2266 0 
L 1666 0 
L 1666 3169 
L 613 3169 
z
" id="Helvetica-31" transform="scale(0.015625)"/>
       </defs>
       <use xlink:href="#Helvetica-31"/>
       <use x="55.615234" xlink:href="#Helvetica-30"/>
      </g>
     </g>
    </g>
    <g id="text_3">
     <!-- Position -->
     <g style="fill:#262626;" transform="translate(145.20125 189.089219)scale(0.25 -0.25)">
      <defs>
       <path d="M 547 4591 
L 2613 4591 
Q 3225 4591 3600 4245 
Q 3975 3900 3975 3275 
Q 3975 2738 3640 2339 
Q 3306 1941 2613 1941 
L 1169 1941 
L 1169 0 
L 547 0 
L 547 4591 
z
M 3347 3272 
Q 3347 3778 2972 3959 
Q 2766 4056 2406 4056 
L 1169 4056 
L 1169 2466 
L 2406 2466 
Q 2825 2466 3086 2644 
Q 3347 2822 3347 3272 
z
" id="Helvetica-50" transform="scale(0.015625)"/>
       <path d="M 1741 363 
Q 2300 363 2508 786 
Q 2716 1209 2716 1728 
Q 2716 2197 2566 2491 
Q 2328 2953 1747 2953 
Q 1231 2953 997 2559 
Q 763 2166 763 1609 
Q 763 1075 997 719 
Q 1231 363 1741 363 
z
M 1763 3444 
Q 2409 3444 2856 3012 
Q 3303 2581 3303 1744 
Q 3303 934 2909 406 
Q 2516 -122 1688 -122 
Q 997 -122 590 345 
Q 184 813 184 1600 
Q 184 2444 612 2944 
Q 1041 3444 1763 3444 
z
M 1744 3428 
L 1744 3428 
z
" id="Helvetica-6f" transform="scale(0.015625)"/>
       <path d="M 747 1050 
Q 772 769 888 619 
Q 1100 347 1625 347 
Q 1938 347 2175 483 
Q 2413 619 2413 903 
Q 2413 1119 2222 1231 
Q 2100 1300 1741 1391 
L 1294 1503 
Q 866 1609 663 1741 
Q 300 1969 300 2372 
Q 300 2847 642 3140 
Q 984 3434 1563 3434 
Q 2319 3434 2653 2991 
Q 2863 2709 2856 2384 
L 2325 2384 
Q 2309 2575 2191 2731 
Q 1997 2953 1519 2953 
Q 1200 2953 1036 2831 
Q 872 2709 872 2509 
Q 872 2291 1088 2159 
Q 1213 2081 1456 2022 
L 1828 1931 
Q 2434 1784 2641 1647 
Q 2969 1431 2969 969 
Q 2969 522 2630 197 
Q 2291 -128 1597 -128 
Q 850 -128 539 211 
Q 228 550 206 1050 
L 747 1050 
z
M 1578 3428 
L 1578 3428 
z
" id="Helvetica-73" transform="scale(0.015625)"/>
       <path d="M 413 3331 
L 984 3331 
L 984 0 
L 413 0 
L 413 3331 
z
M 413 4591 
L 984 4591 
L 984 3953 
L 413 3953 
L 413 4591 
z
" id="Helvetica-69" transform="scale(0.015625)"/>
       <path d="M 525 4281 
L 1094 4281 
L 1094 3347 
L 1628 3347 
L 1628 2888 
L 1094 2888 
L 1094 703 
Q 1094 528 1213 469 
Q 1278 434 1431 434 
Q 1472 434 1519 436 
Q 1566 438 1628 444 
L 1628 0 
Q 1531 -28 1426 -40 
Q 1322 -53 1200 -53 
Q 806 -53 665 148 
Q 525 350 525 672 
L 525 2888 
L 72 2888 
L 72 3347 
L 525 3347 
L 525 4281 
z
" id="Helvetica-74" transform="scale(0.015625)"/>
       <path d="M 413 3347 
L 947 3347 
L 947 2872 
Q 1184 3166 1450 3294 
Q 1716 3422 2041 3422 
Q 2753 3422 3003 2925 
Q 3141 2653 3141 2147 
L 3141 0 
L 2569 0 
L 2569 2109 
Q 2569 2416 2478 2603 
Q 2328 2916 1934 2916 
Q 1734 2916 1606 2875 
Q 1375 2806 1200 2600 
Q 1059 2434 1017 2257 
Q 975 2081 975 1753 
L 975 0 
L 413 0 
L 413 3347 
z
M 1734 3428 
L 1734 3428 
z
" id="Helvetica-6e" transform="scale(0.015625)"/>
      </defs>
      <use xlink:href="#Helvetica-50"/>
      <use x="66.699219" xlink:href="#Helvetica-6f"/>
      <use x="122.314453" xlink:href="#Helvetica-73"/>
      <use x="172.314453" xlink:href="#Helvetica-69"/>
      <use x="194.53125" xlink:href="#Helvetica-74"/>
      <use x="222.314453" xlink:href="#Helvetica-69"/>
      <use x="244.53125" xlink:href="#Helvetica-6f"/>
      <use x="300.146484" xlink:href="#Helvetica-6e"/>
     </g>
    </g>
   </g>
   <g id="matplotlib.axis_2">
    <g id="ytick_1">
     <g id="line2d_4">
      <path clip-path="url(#p6574319c59)" d="M 94.94 78.853094 
L 284.4 78.853094 
" style="fill:none;stroke:#cccccc;stroke-linecap:round;stroke-width:0.8;"/>
     </g>
     <g id="text_4">
      <!-- 0 -->
      <g style="fill:#262626;" transform="translate(76.818125 86.026531)scale(0.2 -0.2)">
       <use xlink:href="#Helvetica-30"/>
      </g>
     </g>
    </g>
    <g id="ytick_2">
     <g id="line2d_5">
      <path clip-path="url(#p6574319c59)" d="M 94.94 66.33982 
L 284.4 66.33982 
" style="fill:none;stroke:#cccccc;stroke-linecap:round;stroke-width:0.8;"/>
     </g>
     <g id="text_5">
      <!-- 0.25 -->
      <g style="fill:#262626;" transform="translate(49.018125 73.513258)scale(0.2 -0.2)">
       <defs>
        <path d="M 547 681 
L 1200 681 
L 1200 0 
L 547 0 
L 547 681 
z
" id="Helvetica-2e" transform="scale(0.015625)"/>
        <path d="M 200 0 
Q 231 578 439 1006 
Q 647 1434 1250 1784 
L 1850 2131 
Q 2253 2366 2416 2531 
Q 2672 2791 2672 3125 
Q 2672 3516 2437 3745 
Q 2203 3975 1813 3975 
Q 1234 3975 1013 3538 
Q 894 3303 881 2888 
L 309 2888 
Q 319 3472 525 3841 
Q 891 4491 1816 4491 
Q 2584 4491 2939 4075 
Q 3294 3659 3294 3150 
Q 3294 2613 2916 2231 
Q 2697 2009 2131 1694 
L 1703 1456 
Q 1397 1288 1222 1134 
Q 909 863 828 531 
L 3272 531 
L 3272 0 
L 200 0 
z
" id="Helvetica-32" transform="scale(0.015625)"/>
        <path d="M 791 1141 
Q 847 659 1238 475 
Q 1438 381 1700 381 
Q 2200 381 2440 700 
Q 2681 1019 2681 1406 
Q 2681 1875 2395 2131 
Q 2109 2388 1709 2388 
Q 1419 2388 1211 2275 
Q 1003 2163 856 1963 
L 369 1991 
L 709 4400 
L 3034 4400 
L 3034 3856 
L 1131 3856 
L 941 2613 
Q 1097 2731 1238 2791 
Q 1488 2894 1816 2894 
Q 2431 2894 2859 2497 
Q 3288 2100 3288 1491 
Q 3288 856 2895 371 
Q 2503 -113 1644 -113 
Q 1097 -113 676 195 
Q 256 503 206 1141 
L 791 1141 
z
" id="Helvetica-35" transform="scale(0.015625)"/>
       </defs>
       <use xlink:href="#Helvetica-30"/>
       <use x="55.615234" xlink:href="#Helvetica-2e"/>
       <use x="83.398438" xlink:href="#Helvetica-32"/>
       <use x="139.013672" xlink:href="#Helvetica-35"/>
      </g>
     </g>
    </g>
    <g id="ytick_3">
     <g id="line2d_6">
      <path clip-path="url(#p6574319c59)" d="M 94.94 53.826547 
L 284.4 53.826547 
" style="fill:none;stroke:#cccccc;stroke-linecap:round;stroke-width:0.8;"/>
     </g>
     <g id="text_6">
      <!-- 0.50 -->
      <g style="fill:#262626;" transform="translate(49.018125 60.999984)scale(0.2 -0.2)">
       <use xlink:href="#Helvetica-30"/>
       <use x="55.615234" xlink:href="#Helvetica-2e"/>
       <use x="83.398438" xlink:href="#Helvetica-35"/>
       <use x="139.013672" xlink:href="#Helvetica-30"/>
      </g>
     </g>
    </g>
    <g id="ytick_4">
     <g id="line2d_7">
      <path clip-path="url(#p6574319c59)" d="M 94.94 41.313273 
L 284.4 41.313273 
" style="fill:none;stroke:#cccccc;stroke-linecap:round;stroke-width:0.8;"/>
     </g>
     <g id="text_7">
      <!-- 0.75 -->
      <g style="fill:#262626;" transform="translate(49.018125 48.486711)scale(0.2 -0.2)">
       <defs>
        <path d="M 3347 4400 
L 3347 3909 
Q 3131 3700 2773 3181 
Q 2416 2663 2141 2063 
Q 1869 1478 1728 997 
Q 1638 688 1494 0 
L 872 0 
Q 1084 1281 1809 2550 
Q 2238 3294 2709 3834 
L 234 3834 
L 234 4400 
L 3347 4400 
z
" id="Helvetica-37" transform="scale(0.015625)"/>
       </defs>
       <use xlink:href="#Helvetica-30"/>
       <use x="55.615234" xlink:href="#Helvetica-2e"/>
       <use x="83.398438" xlink:href="#Helvetica-37"/>
       <use x="139.013672" xlink:href="#Helvetica-35"/>
      </g>
     </g>
    </g>
    <g id="ytick_5">
     <g id="line2d_8">
      <path clip-path="url(#p6574319c59)" d="M 94.94 28.8 
L 284.4 28.8 
" style="fill:none;stroke:#cccccc;stroke-linecap:round;stroke-width:0.8;"/>
     </g>
     <g id="text_8">
      <!-- 1.0 -->
      <g style="fill:#262626;" transform="translate(60.14 35.973437)scale(0.2 -0.2)">
       <use xlink:href="#Helvetica-31"/>
       <use x="55.615234" xlink:href="#Helvetica-2e"/>
       <use x="83.398438" xlink:href="#Helvetica-30"/>
      </g>
     </g>
    </g>
    <g id="text_9">
     <!-- Probability -->
     <g style="fill:#262626;" transform="translate(39.65875 143.579375)rotate(-90)scale(0.25 -0.25)">
      <defs>
       <path d="M 428 3347 
L 963 3347 
L 963 2769 
Q 1028 2938 1284 3180 
Q 1541 3422 1875 3422 
Q 1891 3422 1928 3419 
Q 1966 3416 2056 3406 
L 2056 2813 
Q 2006 2822 1964 2825 
Q 1922 2828 1872 2828 
Q 1447 2828 1219 2554 
Q 991 2281 991 1925 
L 991 0 
L 428 0 
L 428 3347 
z
" id="Helvetica-72" transform="scale(0.015625)"/>
       <path d="M 369 4606 
L 916 4606 
L 916 2941 
Q 1100 3181 1356 3307 
Q 1613 3434 1913 3434 
Q 2538 3434 2927 3004 
Q 3316 2575 3316 1738 
Q 3316 944 2931 419 
Q 2547 -106 1866 -106 
Q 1484 -106 1222 78 
Q 1066 188 888 428 
L 888 0 
L 369 0 
L 369 4606 
z
M 1831 391 
Q 2288 391 2514 753 
Q 2741 1116 2741 1709 
Q 2741 2238 2514 2584 
Q 2288 2931 1847 2931 
Q 1463 2931 1173 2647 
Q 884 2363 884 1709 
Q 884 1238 1003 944 
Q 1225 391 1831 391 
z
" id="Helvetica-62" transform="scale(0.015625)"/>
       <path d="M 844 891 
Q 844 647 1022 506 
Q 1200 366 1444 366 
Q 1741 366 2019 503 
Q 2488 731 2488 1250 
L 2488 1703 
Q 2384 1638 2221 1594 
Q 2059 1550 1903 1531 
L 1563 1488 
Q 1256 1447 1103 1359 
Q 844 1213 844 891 
z
M 2206 2028 
Q 2400 2053 2466 2191 
Q 2503 2266 2503 2406 
Q 2503 2694 2298 2823 
Q 2094 2953 1713 2953 
Q 1272 2953 1088 2716 
Q 984 2584 953 2325 
L 428 2325 
Q 444 2944 830 3186 
Q 1216 3428 1725 3428 
Q 2316 3428 2684 3203 
Q 3050 2978 3050 2503 
L 3050 575 
Q 3050 488 3086 434 
Q 3122 381 3238 381 
Q 3275 381 3322 386 
Q 3369 391 3422 400 
L 3422 -16 
Q 3291 -53 3222 -62 
Q 3153 -72 3034 -72 
Q 2744 -72 2613 134 
Q 2544 244 2516 444 
Q 2344 219 2022 53 
Q 1700 -113 1313 -113 
Q 847 -113 551 170 
Q 256 453 256 878 
Q 256 1344 547 1600 
Q 838 1856 1309 1916 
L 2206 2028 
z
M 1741 3428 
L 1741 3428 
z
" id="Helvetica-61" transform="scale(0.015625)"/>
       <path d="M 428 4591 
L 991 4591 
L 991 0 
L 428 0 
L 428 4591 
z
" id="Helvetica-6c" transform="scale(0.015625)"/>
       <path d="M 2503 3347 
L 3125 3347 
Q 3006 3025 2597 1878 
Q 2291 1016 2084 472 
Q 1597 -809 1397 -1090 
Q 1197 -1372 709 -1372 
Q 591 -1372 527 -1362 
Q 463 -1353 369 -1328 
L 369 -816 
Q 516 -856 581 -865 
Q 647 -875 697 -875 
Q 853 -875 926 -823 
Q 1000 -772 1050 -697 
Q 1066 -672 1162 -440 
Q 1259 -209 1303 -97 
L 66 3347 
L 703 3347 
L 1600 622 
L 2503 3347 
z
M 1597 3428 
L 1597 3428 
z
" id="Helvetica-79" transform="scale(0.015625)"/>
      </defs>
      <use xlink:href="#Helvetica-50"/>
      <use x="66.699219" xlink:href="#Helvetica-72"/>
      <use x="100" xlink:href="#Helvetica-6f"/>
      <use x="155.615234" xlink:href="#Helvetica-62"/>
      <use x="211.230469" xlink:href="#Helvetica-61"/>
      <use x="266.845703" xlink:href="#Helvetica-62"/>
      <use x="322.460938" xlink:href="#Helvetica-69"/>
      <use x="344.677734" xlink:href="#Helvetica-6c"/>
      <use x="366.894531" xlink:href="#Helvetica-69"/>
      <use x="389.111328" xlink:href="#Helvetica-74"/>
      <use x="416.894531" xlink:href="#Helvetica-79"/>
     </g>
    </g>
   </g>
   <g id="patch_67">
    <path d="M 94.94 141.64 
L 94.94 28.8 
" style="fill:none;stroke:#000000;stroke-linecap:square;stroke-linejoin:miter;"/>
   </g>
  </g>
 </g>
 <defs>
  <clipPath id="p6574319c59">
   <rect height="112.84" width="189.46" x="94.94" y="28.8"/>
  </clipPath>
 </defs>
</svg>
