<?xml version="1.0" encoding="utf-8" standalone="no"?>
<!DOCTYPE svg PUBLIC "-//W3C//DTD SVG 1.1//EN"
  "http://www.w3.org/Graphics/SVG/1.1/DTD/svg11.dtd">
<svg height="216pt" version="1.1" viewBox="0 0 306 216" width="306pt" xmlns="http://www.w3.org/2000/svg" xmlns:xlink="http://www.w3.org/1999/xlink">
 <metadata>
  <rdf:RDF xmlns:cc="http://creativecommons.org/ns#" xmlns:dc="http://purl.org/dc/elements/1.1/" xmlns:rdf="http://www.w3.org/1999/02/22-rdf-syntax-ns#">
   <cc:Work>
    <dc:type rdf:resource="http://purl.org/dc/dcmitype/StillImage"/>
    <dc:date>2021-12-20T20:04:04.288486</dc:date>
    <dc:format>image/svg+xml</dc:format>
    <dc:creator>
     <cc:Agent>
      <dc:title>Matplotlib v3.4.2, https://matplotlib.org/</dc:title>
     </cc:Agent>
    </dc:creator>
   </cc:Work>
  </rdf:RDF>
 </metadata>
 <defs>
  <style type="text/css">*{stroke-linecap:butt;stroke-linejoin:round;}</style>
 </defs>
 <g id="figure_1">
  <g id="patch_1">
   <path d="M 0 216 
L 306 216 
L 306 0 
L 0 0 
z
" style="fill:#ffffff;"/>
  </g>
  <g id="axes_1">
   <g id="patch_2">
    <path d="M 94.94 141.64 
L 284.4 141.64 
L 284.4 21.6 
L 94.94 21.6 
z
" style="fill:#ffffff;"/>
   </g>
   <g id="line2d_1">
    <path clip-path="url(#peeb3dd5fa8)" d="M 94.94 47.034479 
L 284.4 47.034479 
" style="fill:none;stroke:#000000;stroke-linecap:round;stroke-width:0.5;"/>
   </g>
   <g id="patch_3">
    <path clip-path="url(#peeb3dd5fa8)" d="M 100.523163 39.823023 
Q 102.797109 39.823023 104.051431 40.509118 
Q 105.305752 41.193722 105.443962 42.064765 
L 103.863673 42.064765 
Q 103.595077 41.404025 102.791894 41.017724 
Q 101.988711 40.629931 100.53881 40.629931 
Q 98.770765 40.629931 97.683339 41.341382 
Q 96.595913 42.051341 96.595913 43.518988 
Q 96.595913 44.722637 97.576421 45.471376 
Q 98.559538 46.218623 100.507517 46.218623 
Q 102.299032 46.218623 103.237817 45.431105 
Q 103.733287 45.016465 103.978414 44.339319 
L 105.558702 44.339319 
Q 105.347475 45.420664 104.158348 46.152996 
Q 102.731916 47.034479 100.311937 47.034479 
Q 98.225748 47.034479 96.807139 46.311097 
Q 94.94 45.356529 94.94 43.360888 
Q 94.94 41.847004 96.342962 40.877522 
Q 97.858057 39.823023 100.523163 39.823023 
z
M 100.197196 39.823023 
L 100.197196 39.823023 
z
" style="fill:#0000ff;"/>
   </g>
   <g id="patch_4">
    <path clip-path="url(#peeb3dd5fa8)" d="M 102.067515 35.76931 
L 100.261014 31.398799 
L 98.340473 35.76931 
L 102.067515 35.76931 
z
M 99.418672 29.929031 
L 101.240724 29.929031 
L 105.558702 39.823023 
L 103.791078 39.823023 
L 102.58588 36.859782 
L 97.879128 36.859782 
L 96.590992 39.823023 
L 94.94 39.823023 
L 99.418672 29.929031 
z
M 100.253239 29.929031 
L 100.253239 29.929031 
z
" style="fill:#008000;"/>
   </g>
   <g id="patch_5">
    <path clip-path="url(#peeb3dd5fa8)" d="M 116.736283 46.558836 
L 116.736283 46.615507 
L 112.326315 46.615507 
L 112.326315 47.034479 
L 110.527549 47.034479 
L 110.527549 46.615507 
L 106.117581 46.615507 
L 106.117581 46.558836 
L 116.736283 46.558836 
z
" style="fill:#ff0000;"/>
   </g>
   <g id="patch_6">
    <path clip-path="url(#peeb3dd5fa8)" d="M 113.245097 44.492522 
L 111.438595 42.264725 
L 109.518054 44.492522 
L 113.245097 44.492522 
z
M 110.596253 41.515536 
L 112.418305 41.515536 
L 116.736283 46.558836 
L 114.968659 46.558836 
L 113.763461 45.048372 
L 109.056709 45.048372 
L 107.768573 46.558836 
L 106.117581 46.558836 
L 110.596253 41.515536 
z
M 111.43082 41.515536 
L 111.43082 41.515536 
z
" style="fill:#008000;"/>
   </g>
   <g id="patch_7">
    <path clip-path="url(#peeb3dd5fa8)" d="M 124.422678 44.786904 
L 122.616176 42.363681 
L 120.695635 44.786904 
L 124.422678 44.786904 
z
M 121.773834 41.548771 
L 123.595886 41.548771 
L 127.913864 47.034479 
L 126.14624 47.034479 
L 124.941042 45.391515 
L 120.23429 45.391515 
L 118.946154 47.034479 
L 117.295162 47.034479 
L 121.773834 41.548771 
z
M 122.608401 41.548771 
L 122.608401 41.548771 
z
" style="fill:#008000;"/>
   </g>
   <g id="patch_8">
    <path clip-path="url(#peeb3dd5fa8)" d="M 133.949198 42.591228 
Q 135.587324 42.591228 136.782371 42.821163 
Q 138.514177 43.151348 138.901554 43.979112 
L 137.344449 43.979112 
Q 137.058346 43.516484 136.164593 43.304945 
Q 135.270839 43.093405 133.908688 43.093405 
Q 132.295881 43.093405 131.191982 43.533959 
Q 130.088082 43.973594 130.088082 44.844585 
Q 130.088082 45.59693 130.997027 46.069675 
Q 131.908504 46.54242 133.96439 46.54242 
Q 135.539219 46.54242 136.572225 46.211315 
Q 137.605232 45.879289 137.628019 45.137061 
L 133.989709 45.137061 
L 133.989709 44.663397 
L 139.091445 44.663397 
L 139.091445 46.922271 
L 138.078694 46.922271 
L 137.698912 46.378707 
Q 136.90137 46.697856 136.283591 46.82202 
Q 135.245521 47.034479 133.647905 47.034479 
Q 131.584423 47.034479 130.095678 46.548858 
Q 128.472743 45.939072 128.472743 44.875856 
Q 128.472743 43.815399 130.055168 43.189058 
Q 131.559104 42.591228 133.949198 42.591228 
z
M 133.688415 42.58479 
L 133.688415 42.58479 
z
" style="fill:#ffa600;"/>
   </g>
   <g id="patch_9">
    <path clip-path="url(#peeb3dd5fa8)" d="M 135.600259 35.442934 
L 133.793758 27.742942 
L 131.873216 35.442934 
L 135.600259 35.442934 
z
M 132.951415 25.153496 
L 134.773467 25.153496 
L 139.091445 42.58479 
L 137.323822 42.58479 
L 136.118624 37.364135 
L 131.411872 37.364135 
L 130.123735 42.58479 
L 128.472743 42.58479 
L 132.951415 25.153496 
z
M 133.785982 25.153496 
L 133.785982 25.153496 
z
" style="fill:#008000;"/>
   </g>
   <g id="patch_10">
    <path clip-path="url(#peeb3dd5fa8)" d="M 145.12678 22.451722 
Q 146.764906 22.451722 147.959953 23.723858 
Q 149.691758 25.550645 150.079136 30.130335 
L 148.52203 30.130335 
Q 148.235927 27.570797 147.342174 26.400432 
Q 146.448421 25.230067 145.086269 25.230067 
Q 143.473462 25.230067 142.369563 27.66748 
Q 141.265664 30.099804 141.265664 34.918655 
Q 141.265664 39.081085 142.174608 41.696596 
Q 143.086085 44.312108 145.141971 44.312108 
Q 146.7168 44.312108 147.749807 42.480232 
Q 148.782813 40.643268 148.8056 36.536812 
L 145.16729 36.536812 
L 145.16729 33.916212 
L 150.269027 33.916212 
L 150.269027 46.413677 
L 149.256275 46.413677 
L 148.876493 43.406347 
Q 148.078951 45.172072 147.461172 45.859026 
Q 146.423102 47.034479 144.825486 47.034479 
Q 142.762004 47.034479 141.273259 44.347728 
Q 139.650324 40.974023 139.650324 35.091666 
Q 139.650324 29.224574 141.232749 25.759276 
Q 142.736685 22.451722 145.12678 22.451722 
z
M 144.865996 22.416102 
L 144.865996 22.416102 
z
" style="fill:#ffa600;"/>
   </g>
   <g id="patch_11">
    <path clip-path="url(#peeb3dd5fa8)" d="M 157.955421 42.53296 
L 156.14892 37.679647 
L 154.228378 42.53296 
L 157.955421 42.53296 
z
M 155.306577 36.047517 
L 157.128629 36.047517 
L 161.446608 47.034479 
L 159.678984 47.034479 
L 158.473786 43.743895 
L 153.767034 43.743895 
L 152.478897 47.034479 
L 150.827906 47.034479 
L 155.306577 36.047517 
z
M 156.141144 36.047517 
L 156.141144 36.047517 
z
" style="fill:#008000;"/>
   </g>
   <g id="patch_12">
    <path clip-path="url(#peeb3dd5fa8)" d="M 167.481942 21.636801 
Q 169.120068 21.636801 170.315115 22.951108 
Q 172.04692 24.838454 172.434298 29.569961 
L 170.877192 29.569961 
Q 170.59109 26.925574 169.697336 25.716411 
Q 168.803583 24.507248 167.441432 24.507248 
Q 165.828625 24.507248 164.724725 27.025462 
Q 163.620826 29.538418 163.620826 34.517014 
Q 163.620826 38.817429 164.52977 41.519645 
Q 165.441247 44.221861 167.497133 44.221861 
Q 169.071962 44.221861 170.104969 42.329258 
Q 171.137976 40.431398 171.160763 36.188814 
L 167.522452 36.188814 
L 167.522452 33.48134 
L 172.624189 33.48134 
L 172.624189 46.393097 
L 171.611437 46.393097 
L 171.231655 43.286074 
Q 170.434113 45.110333 169.816335 45.820059 
Q 168.778264 47.034479 167.180648 47.034479 
Q 165.117166 47.034479 163.628421 44.258662 
Q 162.005487 40.773118 162.005487 34.69576 
Q 162.005487 28.634174 163.587911 25.054 
Q 165.091848 21.636801 167.481942 21.636801 
z
M 167.221158 21.6 
L 167.221158 21.6 
z
" style="fill:#ffa600;"/>
   </g>
   <g id="patch_13">
    <path clip-path="url(#peeb3dd5fa8)" d="M 183.80177 46.90921 
L 183.80177 46.924135 
L 179.391802 46.924135 
L 179.391802 47.034479 
L 177.593036 47.034479 
L 177.593036 46.924135 
L 173.183068 46.924135 
L 173.183068 46.90921 
L 183.80177 46.90921 
z
" style="fill:#ff0000;"/>
   </g>
   <g id="patch_14">
    <path clip-path="url(#peeb3dd5fa8)" d="M 180.310583 45.121978 
L 178.504082 43.195074 
L 176.583541 45.121978 
L 180.310583 45.121978 
z
M 177.661739 42.547072 
L 179.483791 42.547072 
L 183.80177 46.90921 
L 182.034146 46.90921 
L 180.828948 45.602754 
L 176.122196 45.602754 
L 174.83406 46.90921 
L 173.183068 46.90921 
L 177.661739 42.547072 
z
M 178.496307 42.547072 
L 178.496307 42.547072 
z
" style="fill:#008000;"/>
   </g>
   <g id="patch_15">
    <path clip-path="url(#peeb3dd5fa8)" d="M 178.659523 31.272345 
Q 180.297649 31.272345 181.492696 31.855802 
Q 183.224501 32.693647 183.611879 34.794093 
L 182.054773 34.794093 
Q 181.768671 33.620177 180.874917 33.083396 
Q 179.981164 32.546615 178.619013 32.546615 
Q 177.006206 32.546615 175.902306 33.664519 
Q 174.798407 34.78009 174.798407 36.990226 
Q 174.798407 38.899298 175.707352 40.098886 
Q 176.618828 41.298474 178.674714 41.298474 
Q 180.249543 41.298474 181.28255 40.458295 
Q 182.315557 39.615783 182.338344 37.732383 
L 178.700033 37.732383 
L 178.700033 36.530461 
L 183.80177 36.530461 
L 183.80177 42.262345 
L 182.789018 42.262345 
L 182.409236 40.883052 
Q 181.611694 41.692891 180.993916 42.007958 
Q 179.955845 42.547072 178.358229 42.547072 
Q 176.294748 42.547072 174.806003 41.314811 
Q 173.183068 39.767482 173.183068 37.069576 
Q 173.183068 34.378671 174.765492 32.789334 
Q 176.269429 31.272345 178.659523 31.272345 
z
M 178.398739 31.256008 
L 178.398739 31.256008 
z
" style="fill:#ffa600;"/>
   </g>
   <g id="patch_16">
    <path clip-path="url(#peeb3dd5fa8)" d="M 189.837104 24.451994 
Q 191.47523 24.451994 192.670277 25.620617 
Q 194.402083 27.298761 194.78946 31.505807 
L 193.232354 31.505807 
Q 192.946252 29.154536 192.052498 28.079402 
Q 191.158745 27.004268 189.796594 27.004268 
Q 188.183787 27.004268 187.079887 29.243351 
Q 185.975988 31.47776 185.975988 35.904507 
Q 185.975988 39.728244 186.884933 42.130934 
Q 187.796409 44.533625 189.852295 44.533625 
Q 191.427124 44.533625 192.460131 42.850806 
Q 193.493138 41.163314 193.515925 37.390996 
L 189.877614 37.390996 
L 189.877614 34.983631 
L 194.979351 34.983631 
L 194.979351 46.464191 
L 193.966599 46.464191 
L 193.586817 43.701564 
Q 192.789275 45.323614 192.171497 45.954671 
Q 191.133426 47.034479 189.53581 47.034479 
Q 187.472329 47.034479 185.983584 44.566346 
Q 184.360649 41.467156 184.360649 36.063439 
Q 184.360649 30.673747 185.943074 27.490415 
Q 187.44701 24.451994 189.837104 24.451994 
z
M 189.57632 24.419272 
L 189.57632 24.419272 
z
" style="fill:#ffa600;"/>
   </g>
   <g id="patch_17">
    <path clip-path="url(#peeb3dd5fa8)" d="M 201.014685 25.056913 
Q 202.652811 25.056913 203.847858 26.194233 
Q 205.579664 27.827424 205.967041 31.921775 
L 204.409935 31.921775 
Q 204.123833 29.633488 203.23008 28.587153 
Q 202.336326 27.540819 200.974175 27.540819 
Q 199.361368 27.540819 198.257469 29.719924 
Q 197.153569 31.894479 197.153569 36.202646 
Q 197.153569 39.923956 198.062514 42.262286 
Q 198.97399 44.600615 201.029876 44.600615 
Q 202.604705 44.600615 203.637712 42.962875 
Q 204.670719 41.320585 204.693506 37.649317 
L 201.055195 37.649317 
L 201.055195 35.306438 
L 206.156932 35.306438 
L 206.156932 46.479467 
L 205.14418 46.479467 
L 204.764399 43.790844 
Q 203.966857 45.369443 203.349078 45.983596 
Q 202.311007 47.034479 200.713392 47.034479 
Q 198.64991 47.034479 197.161165 44.63246 
Q 195.53823 41.616288 195.53823 36.357322 
Q 195.53823 31.112003 197.120655 28.013944 
Q 198.624591 25.056913 201.014685 25.056913 
z
M 200.753902 25.025068 
L 200.753902 25.025068 
z
" style="fill:#ffa600;"/>
   </g>
   <g id="patch_18">
    <path clip-path="url(#peeb3dd5fa8)" d="M 212.192266 42.115933 
Q 213.830392 42.115933 215.025439 42.370463 
Q 216.757245 42.735969 217.144622 43.652279 
L 215.587517 43.652279 
Q 215.301414 43.140163 214.407661 42.905995 
Q 213.513907 42.671827 212.151756 42.671827 
Q 210.538949 42.671827 209.43505 43.159508 
Q 208.33115 43.64617 208.33115 44.610331 
Q 208.33115 45.443155 209.240095 45.96647 
Q 210.151572 46.489784 212.207458 46.489784 
Q 213.782287 46.489784 214.815293 46.12326 
Q 215.8483 45.755718 215.871087 44.934094 
L 212.232776 44.934094 
L 212.232776 44.409761 
L 217.334513 44.409761 
L 217.334513 46.910269 
L 216.321762 46.910269 
L 215.94198 46.308559 
Q 215.144438 46.661847 214.526659 46.799293 
Q 213.488589 47.034479 211.890973 47.034479 
Q 209.827491 47.034479 208.338746 46.496911 
Q 206.715811 45.821896 206.715811 44.644947 
Q 206.715811 43.471053 208.298236 42.777712 
Q 209.802172 42.115933 212.192266 42.115933 
z
M 211.931483 42.108806 
L 211.931483 42.108806 
z
" style="fill:#ffa600;"/>
   </g>
   <g id="patch_19">
    <path clip-path="url(#peeb3dd5fa8)" d="M 213.843327 37.154713 
L 212.036825 31.813458 
L 210.116284 37.154713 
L 213.843327 37.154713 
z
M 211.194483 30.017237 
L 213.016535 30.017237 
L 217.334513 42.108806 
L 215.566889 42.108806 
L 214.361691 38.487393 
L 209.654939 38.487393 
L 208.366803 42.108806 
L 206.715811 42.108806 
L 211.194483 30.017237 
z
M 212.02905 30.017237 
L 212.02905 30.017237 
z
" style="fill:#008000;"/>
   </g>
   <g id="patch_20">
    <path clip-path="url(#peeb3dd5fa8)" d="M 225.020908 46.216091 
L 223.214407 45.333746 
L 221.293865 46.216091 
L 225.020908 46.216091 
z
M 222.372064 45.03702 
L 224.194116 45.03702 
L 228.512094 47.034479 
L 226.744471 47.034479 
L 225.539273 46.436242 
L 220.832521 46.436242 
L 219.544384 47.034479 
L 217.893392 47.034479 
L 222.372064 45.03702 
z
M 223.206631 45.03702 
L 223.206631 45.03702 
z
" style="fill:#008000;"/>
   </g>
   <g id="patch_21">
    <path clip-path="url(#peeb3dd5fa8)" d="M 223.369847 25.315647 
Q 225.007973 25.315647 226.20302 26.33621 
Q 227.934826 27.80174 228.322203 31.475769 
L 226.765098 31.475769 
Q 226.478995 29.422395 225.585242 28.483476 
Q 224.691488 27.544558 223.329337 27.544558 
Q 221.71653 27.544558 220.612631 29.499958 
Q 219.508731 31.451276 219.508731 35.317171 
Q 219.508731 38.656456 220.417676 40.754735 
Q 221.329153 42.853014 223.385039 42.853014 
Q 224.959868 42.853014 225.992874 41.383402 
Q 227.025881 39.909708 227.048668 36.615328 
L 223.410357 36.615328 
L 223.410357 34.512967 
L 228.512094 34.512967 
L 228.512094 44.538985 
L 227.499343 44.538985 
L 227.119561 42.126372 
Q 226.322019 43.542915 225.70424 44.094019 
Q 224.66617 45.03702 223.068554 45.03702 
Q 221.005072 45.03702 219.516327 42.88159 
Q 217.893392 40.175055 217.893392 35.455968 
Q 217.893392 30.749128 219.475817 27.969112 
Q 220.979753 25.315647 223.369847 25.315647 
z
M 223.109064 25.287071 
L 223.109064 25.287071 
z
" style="fill:#ffa600;"/>
   </g>
   <g id="patch_22">
    <path clip-path="url(#peeb3dd5fa8)" d="M 239.689676 44.576787 
L 239.689676 44.869612 
L 235.279707 44.869612 
L 235.279707 47.034479 
L 233.480942 47.034479 
L 233.480942 44.869612 
L 229.070973 44.869612 
L 229.070973 44.576787 
L 239.689676 44.576787 
z
" style="fill:#ff0000;"/>
   </g>
   <g id="patch_23">
    <path clip-path="url(#peeb3dd5fa8)" d="M 236.198489 37.85255 
L 234.391988 30.602814 
L 232.471446 37.85255 
L 236.198489 37.85255 
z
M 233.549645 28.164787 
L 235.371697 28.164787 
L 239.689676 44.576787 
L 237.922052 44.576787 
L 236.716854 39.661409 
L 232.010102 39.661409 
L 230.721965 44.576787 
L 229.070973 44.576787 
L 233.549645 28.164787 
z
M 234.384212 28.164787 
L 234.384212 28.164787 
z
" style="fill:#008000;"/>
   </g>
   <g id="patch_24">
    <path clip-path="url(#peeb3dd5fa8)" d="M 247.37607 46.516812 
L 245.569569 45.958689 
L 243.649027 46.516812 
L 247.37607 46.516812 
z
M 244.727226 45.770997 
L 246.549278 45.770997 
L 250.867257 47.034479 
L 249.099633 47.034479 
L 247.894435 46.656068 
L 243.187683 46.656068 
L 241.899546 47.034479 
L 240.248555 47.034479 
L 244.727226 45.770997 
z
M 245.561793 45.770997 
L 245.561793 45.770997 
z
" style="fill:#008000;"/>
   </g>
   <g id="patch_25">
    <path clip-path="url(#peeb3dd5fa8)" d="M 250.867257 26.023567 
L 250.867257 28.376397 
L 246.457288 28.376397 
L 246.457288 45.770997 
L 244.658523 45.770997 
L 244.658523 28.376397 
L 240.248555 28.376397 
L 240.248555 26.023567 
L 250.867257 26.023567 
z
" style="fill:#ff0000;"/>
   </g>
   <g id="patch_26">
    <path clip-path="url(#peeb3dd5fa8)" d="M 262.044838 43.093279 
L 262.044838 43.562858 
L 257.634869 43.562858 
L 257.634869 47.034479 
L 255.836104 47.034479 
L 255.836104 43.562858 
L 251.426136 43.562858 
L 251.426136 43.093279 
L 262.044838 43.093279 
z
" style="fill:#ff0000;"/>
   </g>
   <g id="patch_27">
    <path clip-path="url(#peeb3dd5fa8)" d="M 258.553651 37.12933 
L 256.74715 30.699298 
L 254.826609 37.12933 
L 258.553651 37.12933 
z
M 255.904807 28.536931 
L 257.726859 28.536931 
L 262.044838 43.093279 
L 260.277214 43.093279 
L 259.072016 38.733667 
L 254.365264 38.733667 
L 253.077127 43.093279 
L 251.426136 43.093279 
L 255.904807 28.536931 
z
M 256.739374 28.536931 
L 256.739374 28.536931 
z
" style="fill:#008000;"/>
   </g>
   <g id="patch_28">
    <path clip-path="url(#peeb3dd5fa8)" d="M 273.222419 39.243215 
L 273.222419 40.171514 
L 268.812451 40.171514 
L 268.812451 47.034479 
L 267.013685 47.034479 
L 267.013685 40.171514 
L 262.603717 40.171514 
L 262.603717 39.243215 
L 273.222419 39.243215 
z
" style="fill:#ff0000;"/>
   </g>
   <g id="patch_29">
    <path clip-path="url(#peeb3dd5fa8)" d="M 268.18688 22.733901 
Q 270.460826 22.733901 271.715147 24.304591 
Q 272.969468 25.871866 273.107678 27.865959 
L 271.52739 27.865959 
Q 271.258793 26.353317 270.455611 25.46895 
Q 269.652428 24.581169 268.202527 24.581169 
Q 266.434481 24.581169 265.347055 26.209906 
Q 264.259629 27.835228 264.259629 31.195138 
Q 264.259629 33.950674 265.240138 35.664774 
Q 266.223255 37.37546 268.171234 37.37546 
Q 269.962749 37.37546 270.901534 35.572582 
Q 271.397003 34.623339 271.642131 33.073136 
L 273.222419 33.073136 
Q 273.011192 35.54868 271.822065 37.22522 
Q 270.395633 39.243215 267.975654 39.243215 
Q 265.889465 39.243215 264.470856 37.587162 
Q 262.603717 35.401855 262.603717 30.833197 
Q 262.603717 27.367436 264.006679 25.147983 
Q 265.521774 22.733901 268.18688 22.733901 
z
M 267.860913 22.733901 
L 267.860913 22.733901 
z
" style="fill:#0000ff;"/>
   </g>
   <g id="patch_30">
    <path clip-path="url(#peeb3dd5fa8)" d="M 279.364461 41.627781 
Q 281.638407 41.627781 282.892728 42.142172 
Q 284.14705 42.655445 284.28526 43.308498 
L 282.704971 43.308498 
Q 282.436375 42.813117 281.633192 42.523493 
Q 280.830009 42.23275 279.380108 42.23275 
Q 277.612063 42.23275 276.524636 42.766151 
Q 275.43721 43.298434 275.43721 44.398784 
Q 275.43721 45.301205 276.417719 45.862562 
Q 277.400836 46.422801 279.348815 46.422801 
Q 281.14033 46.422801 282.079115 45.83237 
Q 282.574585 45.521498 282.819712 45.013817 
L 284.4 45.013817 
Q 284.188773 45.824542 282.999646 46.373599 
Q 281.573214 47.034479 279.153235 47.034479 
Q 277.067046 47.034479 275.648437 46.492132 
Q 273.781298 45.776458 273.781298 44.28025 
Q 273.781298 43.145235 275.18426 42.418378 
Q 276.699355 41.627781 279.364461 41.627781 
z
M 279.038494 41.627781 
L 279.038494 41.627781 
z
" style="fill:#0000ff;"/>
   </g>
   <g id="patch_31">
    <path clip-path="url(#peeb3dd5fa8)" d="M 284.4 22.570118 
L 284.4 24.840765 
L 279.990032 24.840765 
L 279.990032 41.627781 
L 278.191266 41.627781 
L 278.191266 24.840765 
L 273.781298 24.840765 
L 273.781298 22.570118 
L 284.4 22.570118 
z
" style="fill:#ff0000;"/>
   </g>
   <g id="patch_32">
    <path clip-path="url(#peeb3dd5fa8)" d="M 100.416455 53.074889 
Q 102.054581 53.074889 103.249628 52.762303 
Q 104.981434 52.31343 105.368811 51.188121 
L 103.811705 51.188121 
Q 103.525603 51.817044 102.63185 52.104623 
Q 101.738096 52.392202 100.375945 52.392202 
Q 98.763138 52.392202 97.659238 51.793287 
Q 96.555339 51.195623 96.555339 50.011548 
Q 96.555339 48.988766 97.464284 48.34609 
Q 98.37576 47.703413 100.431646 47.703413 
Q 102.006475 47.703413 103.039482 48.153537 
Q 104.072489 48.604911 104.095276 49.613938 
L 100.456965 49.613938 
L 100.456965 50.257865 
L 105.558702 50.257865 
L 105.558702 47.187021 
L 104.54595 47.187021 
L 104.166168 47.925974 
Q 103.368626 47.492105 102.750848 47.323309 
Q 101.712777 47.034479 100.115161 47.034479 
Q 98.05168 47.034479 96.562935 47.694661 
Q 94.94 48.523639 94.94 49.969036 
Q 94.94 51.410682 96.522425 52.262166 
Q 98.026361 53.074889 100.416455 53.074889 
z
M 100.155671 53.083642 
L 100.155671 53.083642 
z
" style="fill:none;opacity:0;"/>
   </g>
   <g id="patch_33">
    <path clip-path="url(#peeb3dd5fa8)" d="M 105.558702 78.782254 
L 105.558702 75.720363 
L 101.148734 75.720363 
L 101.148734 53.083642 
L 99.349968 53.083642 
L 99.349968 75.720363 
L 94.94 75.720363 
L 94.94 78.782254 
L 105.558702 78.782254 
z
" style="fill:none;opacity:0;"/>
   </g>
   <g id="patch_34">
    <path clip-path="url(#peeb3dd5fa8)" d="M 111.700744 54.088498 
Q 113.97469 54.088498 115.229012 53.43206 
Q 116.483333 52.777049 116.621543 51.943658 
L 115.041255 51.943658 
Q 114.772658 52.575837 113.969475 52.94544 
Q 113.166292 53.31647 111.716391 53.31647 
Q 109.948346 53.31647 108.86092 52.635772 
Q 107.773494 51.956502 107.773494 50.552296 
Q 107.773494 49.400675 108.754002 48.684302 
Q 109.737119 47.969355 111.685098 47.969355 
Q 113.476613 47.969355 114.415398 48.722832 
Q 114.910868 49.119549 115.155995 49.767424 
L 116.736283 49.767424 
Q 116.525057 48.732821 115.335929 48.032145 
Q 113.909497 47.188765 111.489518 47.188765 
Q 109.403329 47.188765 107.98472 47.880879 
Q 106.117581 48.794184 106.117581 50.703562 
Q 106.117581 52.152006 107.520543 53.079581 
Q 109.035638 54.088498 111.700744 54.088498 
z
M 111.374777 54.088498 
L 111.374777 54.088498 
z
" style="fill:none;opacity:0;"/>
   </g>
   <g id="patch_35">
    <path clip-path="url(#peeb3dd5fa8)" d="M 111.594036 47.188542 
Q 113.232162 47.188542 114.427209 47.180569 
Q 116.159015 47.16912 116.546392 47.140419 
L 114.989286 47.140419 
Q 114.703184 47.15646 113.809431 47.163795 
Q 112.915677 47.17113 111.553526 47.17113 
Q 109.940719 47.17113 108.83682 47.155854 
Q 107.73292 47.14061 107.73292 47.11041 
Q 107.73292 47.084324 108.641865 47.067932 
Q 109.553341 47.051541 111.609227 47.051541 
Q 113.184056 47.051541 114.217063 47.063021 
Q 115.25007 47.074534 115.272857 47.100269 
L 111.634546 47.100269 
L 111.634546 47.116693 
L 116.736283 47.116693 
L 116.736283 47.03837 
L 115.723531 47.03837 
L 115.34375 47.057217 
Q 114.546208 47.046151 113.928429 47.041846 
Q 112.890358 47.034479 111.292743 47.034479 
Q 109.229261 47.034479 107.740516 47.051318 
Q 106.117581 47.072461 106.117581 47.109326 
Q 106.117581 47.146096 107.700006 47.167813 
Q 109.203942 47.188542 111.594036 47.188542 
z
M 111.333253 47.188765 
L 111.333253 47.188765 
z
" style="fill:none;opacity:0;"/>
   </g>
   <g id="patch_36">
    <path clip-path="url(#peeb3dd5fa8)" d="M 122.878326 50.86296 
Q 125.152272 50.86296 126.406593 50.669962 
Q 127.660914 50.477384 127.799124 50.232361 
L 126.218836 50.232361 
Q 125.950239 50.418226 125.147056 50.526892 
Q 124.343873 50.635978 122.893972 50.635978 
Q 121.125927 50.635978 120.038501 50.435848 
Q 118.951075 50.236137 118.951075 49.82329 
Q 118.951075 49.484705 119.931584 49.274086 
Q 120.9147 49.063886 122.862679 49.063886 
Q 124.654194 49.063886 125.592979 49.285414 
Q 126.088449 49.402052 126.333576 49.592532 
L 127.913864 49.592532 
Q 127.702638 49.288351 126.51351 49.082347 
Q 125.087078 48.834387 122.667099 48.834387 
Q 120.58091 48.834387 119.162301 49.037873 
Q 117.295162 49.306392 117.295162 49.867763 
Q 117.295162 50.293617 118.698124 50.566331 
Q 120.213219 50.86296 122.878326 50.86296 
z
M 122.552359 50.86296 
L 122.552359 50.86296 
z
" style="fill:none;opacity:0;"/>
   </g>
   <g id="patch_37">
    <path clip-path="url(#peeb3dd5fa8)" d="M 122.771617 48.831782 
Q 124.409743 48.831782 125.60479 48.738774 
Q 127.336596 48.605213 127.723973 48.270381 
L 126.166868 48.270381 
Q 125.880765 48.457515 124.987012 48.543083 
Q 124.093258 48.628651 122.731107 48.628651 
Q 121.1183 48.628651 120.014401 48.450446 
Q 118.910501 48.272613 118.910501 47.920296 
Q 118.910501 47.615971 119.819446 47.424745 
Q 120.730923 47.233518 122.786809 47.233518 
Q 124.361638 47.233518 125.394644 47.367451 
Q 126.427651 47.501756 126.450438 47.801988 
L 122.812127 47.801988 
L 122.812127 47.993587 
L 127.913864 47.993587 
L 127.913864 47.079868 
L 126.901113 47.079868 
L 126.521331 47.299741 
Q 125.723789 47.170644 125.10601 47.12042 
Q 124.06794 47.034479 122.470324 47.034479 
Q 120.406842 47.034479 118.918097 47.230914 
Q 117.295162 47.477574 117.295162 47.907647 
Q 117.295162 48.336603 118.877587 48.589959 
Q 120.381523 48.831782 122.771617 48.831782 
z
M 122.510834 48.834387 
L 122.510834 48.834387 
z
" style="fill:none;opacity:0;"/>
   </g>
   <g id="patch_38">
    <path clip-path="url(#peeb3dd5fa8)" d="M 127.913864 53.530642 
L 127.913864 53.212798 
L 123.503896 53.212798 
L 123.503896 50.86296 
L 121.705131 50.86296 
L 121.705131 53.212798 
L 117.295162 53.212798 
L 117.295162 53.530642 
L 127.913864 53.530642 
z
" style="fill:none;opacity:0;"/>
   </g>
   <g id="patch_39">
    <path clip-path="url(#peeb3dd5fa8)" d="M 134.055907 100.709104 
Q 136.329853 100.709104 137.584174 97.43806 
Q 138.838495 94.174128 138.976705 90.021325 
L 137.396417 90.021325 
Q 137.12782 93.171482 136.324637 95.013221 
Q 135.521454 96.862072 134.071553 96.862072 
Q 132.303508 96.862072 131.216082 93.470142 
Q 130.128656 90.085323 130.128656 83.088135 
Q 130.128656 77.349587 131.109165 73.779883 
Q 132.092281 70.21729 134.04026 70.21729 
Q 135.831775 70.21729 136.77056 73.971879 
Q 137.26603 75.948727 137.511157 79.177104 
L 139.091445 79.177104 
Q 138.880219 74.021656 137.691091 70.530172 
Q 136.264659 66.327592 133.84468 66.327592 
Q 131.758491 66.327592 130.339883 69.77641 
Q 128.472743 74.327427 128.472743 83.841897 
Q 128.472743 91.059525 129.875705 95.681652 
Q 131.3908 100.709104 134.055907 100.709104 
z
M 133.72994 100.709104 
L 133.72994 100.709104 
z
" style="fill:none;opacity:0;"/>
   </g>
   <g id="patch_40">
    <path clip-path="url(#peeb3dd5fa8)" d="M 139.091445 66.327592 
L 139.091445 64.028892 
L 134.681477 64.028892 
L 134.681477 47.034479 
L 132.882712 47.034479 
L 132.882712 64.028892 
L 128.472743 64.028892 
L 128.472743 66.327592 
L 139.091445 66.327592 
z
" style="fill:none;opacity:0;"/>
   </g>
   <g id="patch_41">
    <path clip-path="url(#peeb3dd5fa8)" d="M 146.77784 74.080134 
L 144.971339 84.360772 
L 143.050797 74.080134 
L 146.77784 74.080134 
z
M 144.128996 87.818068 
L 145.951048 87.818068 
L 150.269027 64.54469 
L 148.501403 64.54469 
L 147.296205 71.515044 
L 142.589453 71.515044 
L 141.301316 64.54469 
L 139.650324 64.54469 
L 144.128996 87.818068 
z
M 144.963563 87.818068 
L 144.963563 87.818068 
z
" style="fill:none;opacity:0;"/>
   </g>
   <g id="patch_42">
    <path clip-path="url(#peeb3dd5fa8)" d="M 145.233488 64.54469 
Q 147.507434 64.54469 148.761755 62.878776 
Q 150.016076 61.216483 150.154286 59.101495 
L 148.573998 59.101495 
Q 148.305401 60.705844 147.502218 61.643826 
Q 146.699036 62.58543 145.249134 62.58543 
Q 143.481089 62.58543 142.393663 60.857949 
Q 141.306237 59.134089 141.306237 55.570481 
Q 141.306237 52.647887 142.286746 50.829867 
Q 143.269862 49.015469 145.217841 49.015469 
Q 147.009356 49.015469 147.948141 50.927649 
Q 148.443611 51.934441 148.688738 53.578626 
L 150.269027 53.578626 
Q 150.0578 50.953 148.868672 49.174818 
Q 147.44224 47.034479 145.022261 47.034479 
Q 142.936072 47.034479 141.517464 48.790933 
Q 139.650324 51.108727 139.650324 55.954366 
Q 139.650324 59.630242 141.053287 61.984252 
Q 142.568381 64.54469 145.233488 64.54469 
z
M 144.907521 64.54469 
L 144.907521 64.54469 
z
" style="fill:none;opacity:0;"/>
   </g>
   <g id="patch_43">
    <path clip-path="url(#peeb3dd5fa8)" d="M 150.269027 118.842253 
L 150.269027 115.145841 
L 145.859058 115.145841 
L 145.859058 87.818068 
L 144.060293 87.818068 
L 144.060293 115.145841 
L 139.650324 115.145841 
L 139.650324 118.842253 
L 150.269027 118.842253 
z
" style="fill:none;opacity:0;"/>
   </g>
   <g id="patch_44">
    <path clip-path="url(#peeb3dd5fa8)" d="M 156.411069 51.252853 
Q 158.685015 51.252853 159.939336 50.894917 
Q 161.193657 50.53776 161.331867 50.083337 
L 159.751579 50.083337 
Q 159.482982 50.428045 158.679799 50.629578 
Q 157.876617 50.83189 156.426715 50.83189 
Q 154.65867 50.83189 153.571244 50.460726 
Q 152.483818 50.09034 152.483818 49.324669 
Q 152.483818 48.696725 153.464327 48.306108 
Q 154.447444 47.91627 156.395423 47.91627 
Q 158.186937 47.91627 159.125722 48.327118 
Q 159.621192 48.543435 159.866319 48.896702 
L 161.446608 48.896702 
Q 161.235381 48.332564 160.046253 47.950507 
Q 158.619822 47.490637 156.199842 47.490637 
Q 154.113653 47.490637 152.695045 47.868026 
Q 150.827906 48.366024 150.827906 49.40715 
Q 150.827906 50.196943 152.230868 50.702722 
Q 153.745962 51.252853 156.411069 51.252853 
z
M 156.085102 51.252853 
L 156.085102 51.252853 
z
" style="fill:none;opacity:0;"/>
   </g>
   <g id="patch_45">
    <path clip-path="url(#peeb3dd5fa8)" d="M 156.304361 47.489977 
Q 157.942487 47.489977 159.137534 47.466406 
Q 160.869339 47.432557 161.256717 47.347699 
L 159.699611 47.347699 
Q 159.413509 47.395125 158.519755 47.416811 
Q 157.626002 47.438497 156.263851 47.438497 
Q 154.651043 47.438497 153.547144 47.393334 
Q 152.443245 47.348265 152.443245 47.258976 
Q 152.443245 47.181849 153.352189 47.133386 
Q 154.263666 47.084923 156.319552 47.084923 
Q 157.894381 47.084923 158.927388 47.118866 
Q 159.960394 47.152903 159.983181 47.228992 
L 156.344871 47.228992 
L 156.344871 47.27755 
L 161.446608 47.27755 
L 161.446608 47.045982 
L 160.433856 47.045982 
L 160.054074 47.101706 
Q 159.256532 47.068988 158.638753 47.05626 
Q 157.600683 47.034479 156.003067 47.034479 
Q 153.939585 47.034479 152.45084 47.084263 
Q 150.827906 47.146775 150.827906 47.25577 
Q 150.827906 47.364482 152.41033 47.428691 
Q 153.914267 47.489977 156.304361 47.489977 
z
M 156.043577 47.490637 
L 156.043577 47.490637 
z
" style="fill:none;opacity:0;"/>
   </g>
   <g id="patch_46">
    <path clip-path="url(#peeb3dd5fa8)" d="M 161.446608 64.625635 
L 161.446608 63.032319 
L 157.036639 63.032319 
L 157.036639 51.252853 
L 155.237874 51.252853 
L 155.237874 63.032319 
L 150.827906 63.032319 
L 150.827906 64.625635 
L 161.446608 64.625635 
z
" style="fill:none;opacity:0;"/>
   </g>
   <g id="patch_47">
    <path clip-path="url(#peeb3dd5fa8)" d="M 169.133002 50.739953 
L 167.326501 54.735009 
L 165.40596 50.739953 
L 169.133002 50.739953 
z
M 166.484158 56.078514 
L 168.30621 56.078514 
L 172.624189 47.034479 
L 170.856565 47.034479 
L 169.651367 49.743159 
L 164.944615 49.743159 
L 163.656478 47.034479 
L 162.005487 47.034479 
L 166.484158 56.078514 
z
M 167.318725 56.078514 
L 167.318725 56.078514 
z
" style="fill:none;opacity:0;"/>
   </g>
   <g id="patch_48">
    <path clip-path="url(#peeb3dd5fa8)" d="M 167.58865 141.64 
Q 169.862596 141.64 171.116917 137.569857 
Q 172.371238 133.508562 172.509448 128.34125 
L 170.92916 128.34125 
Q 170.660563 132.260975 169.857381 134.552642 
Q 169.054198 136.853158 167.604296 136.853158 
Q 165.836251 136.853158 164.748825 132.632596 
Q 163.661399 128.420883 163.661399 119.714316 
Q 163.661399 112.573869 164.641908 108.132105 
Q 165.625025 103.699188 167.573004 103.699188 
Q 169.364518 103.699188 170.303304 108.371004 
Q 170.798773 110.830786 171.043901 114.847841 
L 172.624189 114.847841 
Q 172.412962 108.432941 171.223834 104.088506 
Q 169.797403 98.859257 167.377423 98.859257 
Q 165.291234 98.859257 163.872626 103.150603 
Q 162.005487 108.813411 162.005487 120.652219 
Q 162.005487 129.633078 163.408449 135.384367 
Q 164.923544 141.64 167.58865 141.64 
z
M 167.262683 141.64 
L 167.262683 141.64 
z
" style="fill:none;opacity:0;"/>
   </g>
   <g id="patch_49">
    <path clip-path="url(#peeb3dd5fa8)" d="M 172.624189 98.859257 
L 172.624189 93.762096 
L 168.21422 93.762096 
L 168.21422 56.078514 
L 166.415455 56.078514 
L 166.415455 93.762096 
L 162.005487 93.762096 
L 162.005487 98.859257 
L 172.624189 98.859257 
z
" style="fill:none;opacity:0;"/>
   </g>
   <g id="patch_50">
    <path clip-path="url(#peeb3dd5fa8)" d="M 178.766231 90.019609 
Q 181.040177 90.019609 182.294498 85.930021 
Q 183.548819 81.849323 183.68703 76.657324 
L 182.106741 76.657324 
Q 181.838145 80.595775 181.034962 82.898391 
Q 180.231779 85.209898 178.781878 85.209898 
Q 177.013832 85.209898 175.926406 80.969172 
Q 174.83898 76.737337 174.83898 67.989174 
Q 174.83898 60.814614 175.819489 56.351629 
Q 176.802606 51.897533 178.750585 51.897533 
Q 180.5421 51.897533 181.480885 56.59167 
Q 181.976355 59.063203 182.221482 63.099449 
L 183.80177 63.099449 
Q 183.590543 56.653902 182.401416 52.288711 
Q 180.974984 47.034479 178.555005 47.034479 
Q 176.468816 47.034479 175.050207 51.346328 
Q 173.183068 57.03619 173.183068 68.931558 
Q 173.183068 77.955323 174.58603 83.73409 
Q 176.101125 90.019609 178.766231 90.019609 
z
M 178.440264 90.019609 
L 178.440264 90.019609 
z
" style="fill:none;opacity:0;"/>
   </g>
   <g id="patch_51">
    <path clip-path="url(#peeb3dd5fa8)" d="M 191.488164 47.491528 
L 189.681663 47.984296 
L 187.761122 47.491528 
L 191.488164 47.491528 
z
M 188.83932 48.150009 
L 190.661373 48.150009 
L 194.979351 47.034479 
L 193.211727 47.034479 
L 192.006529 47.36858 
L 187.299777 47.36858 
L 186.011641 47.034479 
L 184.360649 47.034479 
L 188.83932 48.150009 
z
M 189.673888 48.150009 
L 189.673888 48.150009 
z
" style="fill:none;opacity:0;"/>
   </g>
   <g id="patch_52">
    <path clip-path="url(#peeb3dd5fa8)" d="M 189.943812 125.265896 
Q 192.217758 125.265896 193.472079 121.194852 
Q 194.726401 117.132659 194.864611 111.964203 
L 193.284322 111.964203 
Q 193.015726 115.884795 192.212543 118.17697 
Q 191.40936 120.477995 189.959459 120.477995 
Q 188.191414 120.477995 187.103988 116.256499 
Q 186.016561 112.043854 186.016561 103.335361 
Q 186.016561 96.193334 186.99707 91.750586 
Q 187.980187 87.316689 189.928166 87.316689 
Q 191.719681 87.316689 192.658466 91.989539 
Q 193.153936 94.449865 193.399063 98.467808 
L 194.979351 98.467808 
Q 194.768124 92.051489 193.578997 87.706093 
Q 192.152565 82.475687 189.732586 82.475687 
Q 187.646397 82.475687 186.227788 86.767983 
Q 184.360649 92.432043 184.360649 104.273471 
Q 184.360649 113.256317 185.763611 119.008879 
Q 187.278706 125.265896 189.943812 125.265896 
z
M 189.617845 125.265896 
L 189.617845 125.265896 
z
" style="fill:none;opacity:0;"/>
   </g>
   <g id="patch_53">
    <path clip-path="url(#peeb3dd5fa8)" d="M 194.979351 82.475687 
L 194.979351 78.385914 
L 190.569383 78.385914 
L 190.569383 48.150009 
L 188.770617 48.150009 
L 188.770617 78.385914 
L 184.360649 78.385914 
L 184.360649 82.475687 
L 194.979351 82.475687 
z
" style="fill:none;opacity:0;"/>
   </g>
   <g id="patch_54">
    <path clip-path="url(#peeb3dd5fa8)" d="M 202.665746 52.897373 
L 200.859244 59.21845 
L 198.938703 52.897373 
L 202.665746 52.897373 
z
M 200.016902 61.344178 
L 201.838954 61.344178 
L 206.156932 47.034479 
L 204.389308 47.034479 
L 203.18411 51.32022 
L 198.477358 51.32022 
L 197.189222 47.034479 
L 195.53823 47.034479 
L 200.016902 61.344178 
z
M 200.851469 61.344178 
L 200.851469 61.344178 
z
" style="fill:none;opacity:0;"/>
   </g>
   <g id="patch_55">
    <path clip-path="url(#peeb3dd5fa8)" d="M 201.121393 78.840148 
Q 203.395339 78.840148 204.649661 77.175588 
Q 205.903982 75.514647 206.042192 73.40138 
L 204.461904 73.40138 
Q 204.193307 75.004423 203.390124 75.941642 
Q 202.586941 76.882481 201.13704 76.882481 
Q 199.368995 76.882481 198.281569 75.156405 
Q 197.194143 73.433947 197.194143 69.873237 
Q 197.194143 66.95302 198.174651 65.136479 
Q 199.157768 63.323556 201.105747 63.323556 
Q 202.897262 63.323556 203.836047 65.234181 
Q 204.331517 66.240154 204.576644 67.883002 
L 206.156932 67.883002 
Q 205.945706 65.259511 204.756578 63.482775 
Q 203.330146 61.344178 200.910167 61.344178 
Q 198.823978 61.344178 197.405369 63.099202 
Q 195.53823 65.415112 195.53823 70.256809 
Q 195.53823 73.929696 196.941192 76.281792 
Q 198.456287 78.840148 201.121393 78.840148 
z
M 200.795426 78.840148 
L 200.795426 78.840148 
z
" style="fill:none;opacity:0;"/>
   </g>
   <g id="patch_56">
    <path clip-path="url(#peeb3dd5fa8)" d="M 206.156932 100.100902 
L 206.156932 97.567765 
L 201.746964 97.567765 
L 201.746964 78.840148 
L 199.948198 78.840148 
L 199.948198 97.567765 
L 195.53823 97.567765 
L 195.53823 100.100902 
L 206.156932 100.100902 
z
" style="fill:none;opacity:0;"/>
   </g>
   <g id="patch_57">
    <path clip-path="url(#peeb3dd5fa8)" d="M 212.298975 54.926626 
Q 214.572921 54.926626 215.827242 54.17577 
Q 217.081563 53.426547 217.219773 52.473287 
L 215.639485 52.473287 
Q 215.370888 53.196393 214.567705 53.619158 
Q 213.764522 54.043554 212.314621 54.043554 
Q 210.546576 54.043554 209.45915 53.26495 
Q 208.371724 52.487977 208.371724 50.881799 
Q 208.371724 49.564537 209.352233 48.745125 
Q 210.335349 47.927345 212.283328 47.927345 
Q 214.074843 47.927345 215.013628 48.789197 
Q 215.509098 49.242975 215.754225 49.984037 
L 217.334513 49.984037 
Q 217.123287 48.800623 215.934159 47.999166 
Q 214.507727 47.034479 212.087748 47.034479 
Q 210.001559 47.034479 208.58295 47.826143 
Q 206.715811 48.870811 206.715811 51.054822 
Q 206.715811 52.711602 208.118773 53.772593 
Q 209.633868 54.926626 212.298975 54.926626 
z
M 211.973008 54.926626 
L 211.973008 54.926626 
z
" style="fill:none;opacity:0;"/>
   </g>
   <g id="patch_58">
    <path clip-path="url(#peeb3dd5fa8)" d="M 217.334513 78.316113 
L 217.334513 75.529345 
L 212.924545 75.529345 
L 212.924545 54.926626 
L 211.12578 54.926626 
L 211.12578 75.529345 
L 206.715811 75.529345 
L 206.715811 78.316113 
L 217.334513 78.316113 
z
" style="fill:none;opacity:0;"/>
   </g>
   <g id="patch_59">
    <path clip-path="url(#peeb3dd5fa8)" d="M 223.476556 70.307857 
Q 225.750502 70.307857 227.004823 68.093637 
Q 228.259144 65.88423 228.397354 63.073134 
L 226.817066 63.073134 
Q 226.548469 65.205524 225.745286 66.452226 
Q 224.942103 67.703742 223.492202 67.703742 
Q 221.724157 67.703742 220.636731 65.407692 
Q 219.549305 63.116455 219.549305 58.37995 
Q 219.549305 54.495438 220.529814 52.07905 
Q 221.51293 49.667476 223.460909 49.667476 
Q 225.252424 49.667476 226.191209 52.209015 
Q 226.686679 53.547174 226.931806 55.732513 
L 228.512094 55.732513 
Q 228.300868 52.24271 227.11174 49.879271 
Q 225.685308 47.034479 223.265329 47.034479 
Q 221.17914 47.034479 219.760531 49.369037 
Q 217.893392 52.449691 217.893392 58.890183 
Q 217.893392 63.775908 219.296354 66.904697 
Q 220.811449 70.307857 223.476556 70.307857 
z
M 223.150589 70.307857 
L 223.150589 70.307857 
z
" style="fill:none;opacity:0;"/>
   </g>
   <g id="patch_60">
    <path clip-path="url(#peeb3dd5fa8)" d="M 228.512094 108.472066 
L 228.512094 103.924947 
L 224.102126 103.924947 
L 224.102126 70.307857 
L 222.303361 70.307857 
L 222.303361 103.924947 
L 217.893392 103.924947 
L 217.893392 108.472066 
L 228.512094 108.472066 
z
" style="fill:none;opacity:0;"/>
   </g>
   <g id="patch_61">
    <path clip-path="url(#peeb3dd5fa8)" d="M 234.654137 94.908816 
Q 236.928083 94.908816 238.182404 91.262724 
Q 239.436725 87.624559 239.574935 82.995607 
L 237.994647 82.995607 
Q 237.72605 86.506952 236.922867 88.55986 
Q 236.119685 90.620695 234.669783 90.620695 
Q 232.901738 90.620695 231.814312 86.839856 
Q 230.726886 83.066944 230.726886 75.267478 
Q 230.726886 68.870964 231.707395 64.891968 
Q 232.690511 60.920899 234.63849 60.920899 
Q 236.430005 60.920899 237.36879 65.105978 
Q 237.86426 67.309486 238.109387 70.90802 
L 239.689676 70.90802 
Q 239.478449 65.161462 238.289321 61.269655 
Q 236.862889 56.58522 234.44291 56.58522 
Q 232.356721 56.58522 230.938113 60.429469 
Q 229.070973 65.502292 229.070973 76.107664 
Q 229.070973 84.152845 230.473936 89.304931 
Q 231.98903 94.908816 234.654137 94.908816 
z
M 234.32817 94.908816 
L 234.32817 94.908816 
z
" style="fill:none;opacity:0;"/>
   </g>
   <g id="patch_62">
    <path clip-path="url(#peeb3dd5fa8)" d="M 234.547429 56.571401 
Q 236.185554 56.571401 237.380602 56.077874 
Q 239.112407 55.369168 239.499785 53.59247 
L 237.942679 53.59247 
Q 237.656576 54.585447 236.762823 55.039492 
Q 235.86907 55.493537 234.506918 55.493537 
Q 232.894111 55.493537 231.790212 54.547939 
Q 230.686312 53.604315 230.686312 51.734833 
Q 230.686312 50.120012 231.595257 49.10532 
Q 232.506734 48.090628 234.56262 48.090628 
Q 236.137449 48.090628 237.170456 48.801307 
Q 238.203462 49.513961 238.226249 51.107067 
L 234.587939 51.107067 
L 234.587939 52.123733 
L 239.689676 52.123733 
L 239.689676 47.275321 
L 238.676924 47.275321 
L 238.297142 48.442019 
Q 237.4996 47.757003 236.881821 47.490499 
Q 235.843751 47.034479 234.246135 47.034479 
Q 232.182653 47.034479 230.693908 48.076809 
Q 229.070973 49.385643 229.070973 51.667714 
Q 229.070973 53.943862 230.653398 55.28823 
Q 232.157334 56.571401 234.547429 56.571401 
z
M 234.286645 56.58522 
L 234.286645 56.58522 
z
" style="fill:none;opacity:0;"/>
   </g>
   <g id="patch_63">
    <path clip-path="url(#peeb3dd5fa8)" d="M 245.831718 103.659371 
Q 248.105664 103.659371 249.359985 100.707201 
Q 250.614306 97.761449 250.752516 94.013477 
L 249.172228 94.013477 
Q 248.903631 96.856544 248.100448 98.518744 
Q 247.297266 100.187362 245.847364 100.187362 
Q 244.079319 100.187362 242.991893 97.12609 
Q 241.904467 94.071236 241.904467 87.75616 
Q 241.904467 82.577027 242.884976 79.355311 
Q 243.868093 76.140013 245.816071 76.140013 
Q 247.607586 76.140013 248.546371 79.528591 
Q 249.041841 81.312728 249.286968 84.226392 
L 250.867257 84.226392 
Q 250.65603 79.573515 249.466902 76.422395 
Q 248.040471 72.629498 245.620491 72.629498 
Q 243.534302 72.629498 242.115694 75.742112 
Q 240.248555 79.849479 240.248555 88.436443 
Q 240.248555 94.95047 241.651517 99.122014 
Q 243.166611 103.659371 245.831718 103.659371 
z
M 245.505751 103.659371 
L 245.505751 103.659371 
z
" style="fill:none;opacity:0;"/>
   </g>
   <g id="patch_64">
    <path clip-path="url(#peeb3dd5fa8)" d="M 245.72501 72.592465 
Q 247.363136 72.592465 248.558183 71.269862 
Q 250.289988 69.370604 250.677366 64.609232 
L 249.12026 64.609232 
Q 248.834158 67.27031 247.940404 68.487105 
Q 247.046651 69.7039 245.6845 69.7039 
Q 244.071692 69.7039 242.967793 67.169792 
Q 241.863894 64.640974 241.863894 59.630953 
Q 241.863894 55.303395 242.772838 52.584123 
Q 243.684315 49.86485 245.740201 49.86485 
Q 247.31503 49.86485 248.348037 51.769399 
Q 249.381043 53.679238 249.40383 57.948602 
L 245.76552 57.948602 
L 245.76552 60.673165 
L 250.867257 60.673165 
L 250.867257 47.67991 
L 249.854505 47.67991 
L 249.474723 50.806544 
Q 248.677181 48.970771 248.059402 48.256565 
Q 247.021332 47.034479 245.423716 47.034479 
Q 243.360234 47.034479 241.871489 49.827818 
Q 240.248555 53.335362 240.248555 59.451079 
Q 240.248555 65.550926 241.830979 69.153697 
Q 243.334916 72.592465 245.72501 72.592465 
z
M 245.464226 72.629498 
L 245.464226 72.629498 
z
" style="fill:none;opacity:0;"/>
   </g>
   <g id="patch_65">
    <path clip-path="url(#peeb3dd5fa8)" d="M 257.009299 59.97086 
Q 259.283245 59.97086 260.537566 58.740098 
Q 261.791887 57.512012 261.930097 55.949479 
L 260.349809 55.949479 
Q 260.081212 57.134756 259.27803 57.827729 
Q 258.474847 58.523377 257.024945 58.523377 
Q 255.2569 58.523377 254.169474 57.24713 
Q 253.082048 55.973559 253.082048 53.340798 
Q 253.082048 51.181613 254.062557 49.838477 
Q 255.045674 48.498016 256.993653 48.498016 
Q 258.785167 48.498016 259.723952 49.910717 
Q 260.219422 50.654526 260.46455 51.869234 
L 262.044838 51.869234 
Q 261.833611 49.929446 260.644483 48.615741 
Q 259.218052 47.034479 256.798072 47.034479 
Q 254.711883 47.034479 253.293275 48.332131 
Q 251.426136 50.044496 251.426136 53.624408 
Q 251.426136 56.340112 252.829098 58.079232 
Q 254.344193 59.97086 257.009299 59.97086 
z
M 256.683332 59.97086 
L 256.683332 59.97086 
z
" style="fill:none;opacity:0;"/>
   </g>
   <g id="patch_66">
    <path clip-path="url(#peeb3dd5fa8)" d="M 256.902591 83.275582 
Q 258.540717 83.275582 259.735764 82.069583 
Q 261.467569 80.337769 261.854947 75.996173 
L 260.297841 75.996173 
Q 260.011739 78.422643 259.117985 79.532162 
Q 258.224232 80.641681 256.862081 80.641681 
Q 255.249274 80.641681 254.145374 78.330987 
Q 253.041475 76.025117 253.041475 71.456793 
Q 253.041475 67.510765 253.950419 65.031232 
Q 254.861896 62.551698 256.917782 62.551698 
Q 258.492611 62.551698 259.525618 64.288336 
Q 260.558625 66.029799 260.581411 69.922763 
L 256.943101 69.922763 
L 256.943101 72.407121 
L 262.044838 72.407121 
L 262.044838 60.559388 
L 261.032086 60.559388 
L 260.652304 63.410369 
Q 259.854762 61.736443 259.236984 61.085203 
Q 258.198913 59.97086 256.601297 59.97086 
Q 254.537815 59.97086 253.04907 62.51793 
Q 251.426136 65.716239 251.426136 71.292778 
Q 251.426136 76.854844 253.00856 80.139985 
Q 254.512497 83.275582 256.902591 83.275582 
z
M 256.641807 83.30935 
L 256.641807 83.30935 
z
" style="fill:none;opacity:0;"/>
   </g>
   <g id="patch_67">
    <path clip-path="url(#peeb3dd5fa8)" d="M 269.731232 57.55803 
L 267.924731 68.903996 
L 266.00419 57.55803 
L 269.731232 57.55803 
z
M 267.082388 72.719553 
L 268.90444 72.719553 
L 273.222419 47.034479 
L 271.454795 47.034479 
L 270.249597 54.727134 
L 265.542845 54.727134 
L 264.254709 47.034479 
L 262.603717 47.034479 
L 267.082388 72.719553 
z
M 267.916956 72.719553 
L 267.916956 72.719553 
z
" style="fill:none;opacity:0;"/>
   </g>
   <g id="patch_68">
    <path clip-path="url(#peeb3dd5fa8)" d="M 268.080172 107.126964 
Q 269.718298 107.126964 270.913345 105.346411 
Q 272.64515 102.789536 273.032528 96.379545 
L 271.475422 96.379545 
Q 271.18932 99.962018 270.295566 101.600127 
Q 269.401813 103.238236 268.039662 103.238236 
Q 266.426855 103.238236 265.322955 99.826696 
Q 264.219056 96.422278 264.219056 89.677542 
Q 264.219056 83.851572 265.128001 80.190754 
Q 266.039477 76.529937 268.095363 76.529937 
Q 269.670192 76.529937 270.703199 79.093933 
Q 271.736206 81.665052 271.758993 87.412678 
L 268.120682 87.412678 
L 268.120682 91.080618 
L 273.222419 91.080618 
L 273.222419 73.588463 
L 272.209667 73.588463 
L 271.829885 77.797691 
Q 271.032343 75.326283 270.414565 74.364784 
Q 269.376494 72.719553 267.778878 72.719553 
Q 265.715397 72.719553 264.226651 76.480081 
Q 262.603717 81.202108 262.603717 89.435387 
Q 262.603717 97.647298 264.186141 102.497526 
Q 265.690078 107.126964 268.080172 107.126964 
z
M 267.819388 107.17682 
L 267.819388 107.17682 
z
" style="fill:none;opacity:0;"/>
   </g>
   <g id="patch_69">
    <path clip-path="url(#peeb3dd5fa8)" d="M 280.908813 93.695101 
L 279.102312 110.553523 
L 277.181771 93.695101 
L 280.908813 93.695101 
z
M 278.259969 116.222874 
L 280.082022 116.222874 
L 284.4 78.058665 
L 282.632376 78.058665 
L 281.427178 89.488808 
L 276.720426 89.488808 
L 275.43229 78.058665 
L 273.781298 78.058665 
L 278.259969 116.222874 
z
M 279.094537 116.222874 
L 279.094537 116.222874 
z
" style="fill:none;opacity:0;"/>
   </g>
   <g id="patch_70">
    <path clip-path="url(#peeb3dd5fa8)" d="M 279.257753 78.013777 
Q 280.895879 78.013777 282.090926 76.410625 
Q 283.822732 74.1085 284.210109 68.337155 
L 282.653003 68.337155 
Q 282.366901 71.562695 281.473147 73.037595 
Q 280.579394 74.512494 279.217243 74.512494 
Q 277.604436 74.512494 276.500536 71.440856 
Q 275.396637 68.375631 275.396637 62.302893 
Q 275.396637 57.057382 276.305582 53.761303 
Q 277.217058 50.465223 279.272944 50.465223 
Q 280.847773 50.465223 281.88078 52.773761 
Q 282.913787 55.088712 282.936574 60.263685 
L 279.298263 60.263685 
L 279.298263 63.566176 
L 284.4 63.566176 
L 284.4 47.816817 
L 283.387248 47.816817 
L 283.007466 51.606667 
Q 282.209924 49.381493 281.592146 48.515791 
Q 280.554075 47.034479 278.956459 47.034479 
Q 276.892978 47.034479 275.404233 50.420335 
Q 273.781298 54.671893 273.781298 62.084865 
Q 273.781298 69.478599 275.363723 73.845583 
Q 276.867659 78.013777 279.257753 78.013777 
z
M 278.996969 78.058665 
L 278.996969 78.058665 
z
" style="fill:none;opacity:0;"/>
   </g>
   <g id="matplotlib.axis_1">
    <g id="xtick_1">
     <g id="line2d_2">
      <path clip-path="url(#peeb3dd5fa8)" d="M 100.249351 141.64 
L 100.249351 21.6 
" style="fill:none;stroke:#cccccc;stroke-linecap:round;stroke-width:0.8;"/>
     </g>
     <g id="text_1">
      <!-- 0 -->
      <g style="fill:#262626;" transform="translate(94.688414 162.986875)scale(0.2 -0.2)">
       <defs>
        <path d="M 1731 4475 
Q 2600 4475 2988 3759 
Q 3288 3206 3288 2244 
Q 3288 1331 3016 734 
Q 2622 -122 1728 -122 
Q 922 -122 528 578 
Q 200 1163 200 2147 
Q 200 2909 397 3456 
Q 766 4475 1731 4475 
z
M 1725 391 
Q 2163 391 2422 778 
Q 2681 1166 2681 2222 
Q 2681 2984 2493 3476 
Q 2306 3969 1766 3969 
Q 1269 3969 1039 3501 
Q 809 3034 809 2125 
Q 809 1441 956 1025 
Q 1181 391 1725 391 
z
" id="Helvetica-30" transform="scale(0.015625)"/>
       </defs>
       <use xlink:href="#Helvetica-30"/>
      </g>
     </g>
    </g>
    <g id="xtick_2">
     <g id="line2d_3">
      <path clip-path="url(#peeb3dd5fa8)" d="M 212.025162 141.64 
L 212.025162 21.6 
" style="fill:none;stroke:#cccccc;stroke-linecap:round;stroke-width:0.8;"/>
     </g>
     <g id="text_2">
      <!-- 10 -->
      <g style="fill:#262626;" transform="translate(200.903287 162.986875)scale(0.2 -0.2)">
       <defs>
        <path d="M 613 3169 
L 613 3600 
Q 1222 3659 1462 3798 
Q 1703 3938 1822 4456 
L 2266 4456 
L 2266 0 
L 1666 0 
L 1666 3169 
L 613 3169 
z
" id="Helvetica-31" transform="scale(0.015625)"/>
       </defs>
       <use xlink:href="#Helvetica-31"/>
       <use x="55.615234" xlink:href="#Helvetica-30"/>
      </g>
     </g>
    </g>
    <g id="text_3">
     <!-- Position -->
     <g style="fill:#262626;" transform="translate(145.20125 189.089219)scale(0.25 -0.25)">
      <defs>
       <path d="M 547 4591 
L 2613 4591 
Q 3225 4591 3600 4245 
Q 3975 3900 3975 3275 
Q 3975 2738 3640 2339 
Q 3306 1941 2613 1941 
L 1169 1941 
L 1169 0 
L 547 0 
L 547 4591 
z
M 3347 3272 
Q 3347 3778 2972 3959 
Q 2766 4056 2406 4056 
L 1169 4056 
L 1169 2466 
L 2406 2466 
Q 2825 2466 3086 2644 
Q 3347 2822 3347 3272 
z
" id="Helvetica-50" transform="scale(0.015625)"/>
       <path d="M 1741 363 
Q 2300 363 2508 786 
Q 2716 1209 2716 1728 
Q 2716 2197 2566 2491 
Q 2328 2953 1747 2953 
Q 1231 2953 997 2559 
Q 763 2166 763 1609 
Q 763 1075 997 719 
Q 1231 363 1741 363 
z
M 1763 3444 
Q 2409 3444 2856 3012 
Q 3303 2581 3303 1744 
Q 3303 934 2909 406 
Q 2516 -122 1688 -122 
Q 997 -122 590 345 
Q 184 813 184 1600 
Q 184 2444 612 2944 
Q 1041 3444 1763 3444 
z
M 1744 3428 
L 1744 3428 
z
" id="Helvetica-6f" transform="scale(0.015625)"/>
       <path d="M 747 1050 
Q 772 769 888 619 
Q 1100 347 1625 347 
Q 1938 347 2175 483 
Q 2413 619 2413 903 
Q 2413 1119 2222 1231 
Q 2100 1300 1741 1391 
L 1294 1503 
Q 866 1609 663 1741 
Q 300 1969 300 2372 
Q 300 2847 642 3140 
Q 984 3434 1563 3434 
Q 2319 3434 2653 2991 
Q 2863 2709 2856 2384 
L 2325 2384 
Q 2309 2575 2191 2731 
Q 1997 2953 1519 2953 
Q 1200 2953 1036 2831 
Q 872 2709 872 2509 
Q 872 2291 1088 2159 
Q 1213 2081 1456 2022 
L 1828 1931 
Q 2434 1784 2641 1647 
Q 2969 1431 2969 969 
Q 2969 522 2630 197 
Q 2291 -128 1597 -128 
Q 850 -128 539 211 
Q 228 550 206 1050 
L 747 1050 
z
M 1578 3428 
L 1578 3428 
z
" id="Helvetica-73" transform="scale(0.015625)"/>
       <path d="M 413 3331 
L 984 3331 
L 984 0 
L 413 0 
L 413 3331 
z
M 413 4591 
L 984 4591 
L 984 3953 
L 413 3953 
L 413 4591 
z
" id="Helvetica-69" transform="scale(0.015625)"/>
       <path d="M 525 4281 
L 1094 4281 
L 1094 3347 
L 1628 3347 
L 1628 2888 
L 1094 2888 
L 1094 703 
Q 1094 528 1213 469 
Q 1278 434 1431 434 
Q 1472 434 1519 436 
Q 1566 438 1628 444 
L 1628 0 
Q 1531 -28 1426 -40 
Q 1322 -53 1200 -53 
Q 806 -53 665 148 
Q 525 350 525 672 
L 525 2888 
L 72 2888 
L 72 3347 
L 525 3347 
L 525 4281 
z
" id="Helvetica-74" transform="scale(0.015625)"/>
       <path d="M 413 3347 
L 947 3347 
L 947 2872 
Q 1184 3166 1450 3294 
Q 1716 3422 2041 3422 
Q 2753 3422 3003 2925 
Q 3141 2653 3141 2147 
L 3141 0 
L 2569 0 
L 2569 2109 
Q 2569 2416 2478 2603 
Q 2328 2916 1934 2916 
Q 1734 2916 1606 2875 
Q 1375 2806 1200 2600 
Q 1059 2434 1017 2257 
Q 975 2081 975 1753 
L 975 0 
L 413 0 
L 413 3347 
z
M 1734 3428 
L 1734 3428 
z
" id="Helvetica-6e" transform="scale(0.015625)"/>
      </defs>
      <use xlink:href="#Helvetica-50"/>
      <use x="66.699219" xlink:href="#Helvetica-6f"/>
      <use x="122.314453" xlink:href="#Helvetica-73"/>
      <use x="172.314453" xlink:href="#Helvetica-69"/>
      <use x="194.53125" xlink:href="#Helvetica-74"/>
      <use x="222.314453" xlink:href="#Helvetica-69"/>
      <use x="244.53125" xlink:href="#Helvetica-6f"/>
      <use x="300.146484" xlink:href="#Helvetica-6e"/>
     </g>
    </g>
   </g>
   <g id="matplotlib.axis_2">
    <g id="ytick_1">
     <g id="line2d_4">
      <path clip-path="url(#peeb3dd5fa8)" d="M 94.94 47.034479 
L 284.4 47.034479 
" style="fill:none;stroke:#cccccc;stroke-linecap:round;stroke-width:0.8;"/>
     </g>
     <g id="text_4">
      <!-- 0 -->
      <g style="fill:#262626;" transform="translate(76.818125 54.207917)scale(0.2 -0.2)">
       <use xlink:href="#Helvetica-30"/>
      </g>
     </g>
    </g>
    <g id="ytick_2">
     <g id="line2d_5">
      <path clip-path="url(#peeb3dd5fa8)" d="M 94.94 43.036035 
L 284.4 43.036035 
" style="fill:none;stroke:#cccccc;stroke-linecap:round;stroke-width:0.8;"/>
     </g>
     <g id="text_5">
      <!-- 0.25 -->
      <g style="fill:#262626;" transform="translate(49.018125 50.209473)scale(0.2 -0.2)">
       <defs>
        <path d="M 547 681 
L 1200 681 
L 1200 0 
L 547 0 
L 547 681 
z
" id="Helvetica-2e" transform="scale(0.015625)"/>
        <path d="M 200 0 
Q 231 578 439 1006 
Q 647 1434 1250 1784 
L 1850 2131 
Q 2253 2366 2416 2531 
Q 2672 2791 2672 3125 
Q 2672 3516 2437 3745 
Q 2203 3975 1813 3975 
Q 1234 3975 1013 3538 
Q 894 3303 881 2888 
L 309 2888 
Q 319 3472 525 3841 
Q 891 4491 1816 4491 
Q 2584 4491 2939 4075 
Q 3294 3659 3294 3150 
Q 3294 2613 2916 2231 
Q 2697 2009 2131 1694 
L 1703 1456 
Q 1397 1288 1222 1134 
Q 909 863 828 531 
L 3272 531 
L 3272 0 
L 200 0 
z
" id="Helvetica-32" transform="scale(0.015625)"/>
        <path d="M 791 1141 
Q 847 659 1238 475 
Q 1438 381 1700 381 
Q 2200 381 2440 700 
Q 2681 1019 2681 1406 
Q 2681 1875 2395 2131 
Q 2109 2388 1709 2388 
Q 1419 2388 1211 2275 
Q 1003 2163 856 1963 
L 369 1991 
L 709 4400 
L 3034 4400 
L 3034 3856 
L 1131 3856 
L 941 2613 
Q 1097 2731 1238 2791 
Q 1488 2894 1816 2894 
Q 2431 2894 2859 2497 
Q 3288 2100 3288 1491 
Q 3288 856 2895 371 
Q 2503 -113 1644 -113 
Q 1097 -113 676 195 
Q 256 503 206 1141 
L 791 1141 
z
" id="Helvetica-35" transform="scale(0.015625)"/>
       </defs>
       <use xlink:href="#Helvetica-30"/>
       <use x="55.615234" xlink:href="#Helvetica-2e"/>
       <use x="83.398438" xlink:href="#Helvetica-32"/>
       <use x="139.013672" xlink:href="#Helvetica-35"/>
      </g>
     </g>
    </g>
    <g id="ytick_3">
     <g id="line2d_6">
      <path clip-path="url(#peeb3dd5fa8)" d="M 94.94 39.037591 
L 284.4 39.037591 
" style="fill:none;stroke:#cccccc;stroke-linecap:round;stroke-width:0.8;"/>
     </g>
     <g id="text_6">
      <!-- 0.50 -->
      <g style="fill:#262626;" transform="translate(49.018125 46.211028)scale(0.2 -0.2)">
       <use xlink:href="#Helvetica-30"/>
       <use x="55.615234" xlink:href="#Helvetica-2e"/>
       <use x="83.398438" xlink:href="#Helvetica-35"/>
       <use x="139.013672" xlink:href="#Helvetica-30"/>
      </g>
     </g>
    </g>
    <g id="ytick_4">
     <g id="line2d_7">
      <path clip-path="url(#peeb3dd5fa8)" d="M 94.94 35.039147 
L 284.4 35.039147 
" style="fill:none;stroke:#cccccc;stroke-linecap:round;stroke-width:0.8;"/>
     </g>
     <g id="text_7">
      <!-- 0.75 -->
      <g style="fill:#262626;" transform="translate(49.018125 42.212584)scale(0.2 -0.2)">
       <defs>
        <path d="M 3347 4400 
L 3347 3909 
Q 3131 3700 2773 3181 
Q 2416 2663 2141 2063 
Q 1869 1478 1728 997 
Q 1638 688 1494 0 
L 872 0 
Q 1084 1281 1809 2550 
Q 2238 3294 2709 3834 
L 234 3834 
L 234 4400 
L 3347 4400 
z
" id="Helvetica-37" transform="scale(0.015625)"/>
       </defs>
       <use xlink:href="#Helvetica-30"/>
       <use x="55.615234" xlink:href="#Helvetica-2e"/>
       <use x="83.398438" xlink:href="#Helvetica-37"/>
       <use x="139.013672" xlink:href="#Helvetica-35"/>
      </g>
     </g>
    </g>
    <g id="ytick_5">
     <g id="line2d_8">
      <path clip-path="url(#peeb3dd5fa8)" d="M 94.94 31.040702 
L 284.4 31.040702 
" style="fill:none;stroke:#cccccc;stroke-linecap:round;stroke-width:0.8;"/>
     </g>
     <g id="text_8">
      <!-- 1.0 -->
      <g style="fill:#262626;" transform="translate(60.14 38.21414)scale(0.2 -0.2)">
       <use xlink:href="#Helvetica-31"/>
       <use x="55.615234" xlink:href="#Helvetica-2e"/>
       <use x="83.398438" xlink:href="#Helvetica-30"/>
      </g>
     </g>
    </g>
    <g id="text_9">
     <!-- Probability -->
     <g style="fill:#262626;" transform="translate(39.65875 139.979375)rotate(-90)scale(0.25 -0.25)">
      <defs>
       <path d="M 428 3347 
L 963 3347 
L 963 2769 
Q 1028 2938 1284 3180 
Q 1541 3422 1875 3422 
Q 1891 3422 1928 3419 
Q 1966 3416 2056 3406 
L 2056 2813 
Q 2006 2822 1964 2825 
Q 1922 2828 1872 2828 
Q 1447 2828 1219 2554 
Q 991 2281 991 1925 
L 991 0 
L 428 0 
L 428 3347 
z
" id="Helvetica-72" transform="scale(0.015625)"/>
       <path d="M 369 4606 
L 916 4606 
L 916 2941 
Q 1100 3181 1356 3307 
Q 1613 3434 1913 3434 
Q 2538 3434 2927 3004 
Q 3316 2575 3316 1738 
Q 3316 944 2931 419 
Q 2547 -106 1866 -106 
Q 1484 -106 1222 78 
Q 1066 188 888 428 
L 888 0 
L 369 0 
L 369 4606 
z
M 1831 391 
Q 2288 391 2514 753 
Q 2741 1116 2741 1709 
Q 2741 2238 2514 2584 
Q 2288 2931 1847 2931 
Q 1463 2931 1173 2647 
Q 884 2363 884 1709 
Q 884 1238 1003 944 
Q 1225 391 1831 391 
z
" id="Helvetica-62" transform="scale(0.015625)"/>
       <path d="M 844 891 
Q 844 647 1022 506 
Q 1200 366 1444 366 
Q 1741 366 2019 503 
Q 2488 731 2488 1250 
L 2488 1703 
Q 2384 1638 2221 1594 
Q 2059 1550 1903 1531 
L 1563 1488 
Q 1256 1447 1103 1359 
Q 844 1213 844 891 
z
M 2206 2028 
Q 2400 2053 2466 2191 
Q 2503 2266 2503 2406 
Q 2503 2694 2298 2823 
Q 2094 2953 1713 2953 
Q 1272 2953 1088 2716 
Q 984 2584 953 2325 
L 428 2325 
Q 444 2944 830 3186 
Q 1216 3428 1725 3428 
Q 2316 3428 2684 3203 
Q 3050 2978 3050 2503 
L 3050 575 
Q 3050 488 3086 434 
Q 3122 381 3238 381 
Q 3275 381 3322 386 
Q 3369 391 3422 400 
L 3422 -16 
Q 3291 -53 3222 -62 
Q 3153 -72 3034 -72 
Q 2744 -72 2613 134 
Q 2544 244 2516 444 
Q 2344 219 2022 53 
Q 1700 -113 1313 -113 
Q 847 -113 551 170 
Q 256 453 256 878 
Q 256 1344 547 1600 
Q 838 1856 1309 1916 
L 2206 2028 
z
M 1741 3428 
L 1741 3428 
z
" id="Helvetica-61" transform="scale(0.015625)"/>
       <path d="M 428 4591 
L 991 4591 
L 991 0 
L 428 0 
L 428 4591 
z
" id="Helvetica-6c" transform="scale(0.015625)"/>
       <path d="M 2503 3347 
L 3125 3347 
Q 3006 3025 2597 1878 
Q 2291 1016 2084 472 
Q 1597 -809 1397 -1090 
Q 1197 -1372 709 -1372 
Q 591 -1372 527 -1362 
Q 463 -1353 369 -1328 
L 369 -816 
Q 516 -856 581 -865 
Q 647 -875 697 -875 
Q 853 -875 926 -823 
Q 1000 -772 1050 -697 
Q 1066 -672 1162 -440 
Q 1259 -209 1303 -97 
L 66 3347 
L 703 3347 
L 1600 622 
L 2503 3347 
z
M 1597 3428 
L 1597 3428 
z
" id="Helvetica-79" transform="scale(0.015625)"/>
      </defs>
      <use xlink:href="#Helvetica-50"/>
      <use x="66.699219" xlink:href="#Helvetica-72"/>
      <use x="100" xlink:href="#Helvetica-6f"/>
      <use x="155.615234" xlink:href="#Helvetica-62"/>
      <use x="211.230469" xlink:href="#Helvetica-61"/>
      <use x="266.845703" xlink:href="#Helvetica-62"/>
      <use x="322.460938" xlink:href="#Helvetica-69"/>
      <use x="344.677734" xlink:href="#Helvetica-6c"/>
      <use x="366.894531" xlink:href="#Helvetica-69"/>
      <use x="389.111328" xlink:href="#Helvetica-74"/>
      <use x="416.894531" xlink:href="#Helvetica-79"/>
     </g>
    </g>
   </g>
   <g id="patch_71">
    <path d="M 94.94 141.64 
L 94.94 21.6 
" style="fill:none;stroke:#000000;stroke-linecap:square;stroke-linejoin:miter;"/>
   </g>
  </g>
 </g>
 <defs>
  <clipPath id="peeb3dd5fa8">
   <rect height="120.04" width="189.46" x="94.94" y="21.6"/>
  </clipPath>
 </defs>
</svg>
