<?xml version="1.0" encoding="utf-8" standalone="no"?>
<!DOCTYPE svg PUBLIC "-//W3C//DTD SVG 1.1//EN"
  "http://www.w3.org/Graphics/SVG/1.1/DTD/svg11.dtd">
<svg height="216pt" version="1.1" viewBox="0 0 306 216" width="306pt" xmlns="http://www.w3.org/2000/svg" xmlns:xlink="http://www.w3.org/1999/xlink">
 <metadata>
  <rdf:RDF xmlns:cc="http://creativecommons.org/ns#" xmlns:dc="http://purl.org/dc/elements/1.1/" xmlns:rdf="http://www.w3.org/1999/02/22-rdf-syntax-ns#">
   <cc:Work>
    <dc:type rdf:resource="http://purl.org/dc/dcmitype/StillImage"/>
    <dc:date>2021-12-20T14:58:23.721362</dc:date>
    <dc:format>image/svg+xml</dc:format>
    <dc:creator>
     <cc:Agent>
      <dc:title>Matplotlib v3.4.2, https://matplotlib.org/</dc:title>
     </cc:Agent>
    </dc:creator>
   </cc:Work>
  </rdf:RDF>
 </metadata>
 <defs>
  <style type="text/css">*{stroke-linecap:butt;stroke-linejoin:round;}</style>
 </defs>
 <g id="figure_1">
  <g id="patch_1">
   <path d="M 0 216 
L 306 216 
L 306 0 
L 0 0 
z
" style="fill:#ffffff;"/>
  </g>
  <g id="axes_1">
   <g id="patch_2">
    <path d="M 94.94 141.64 
L 284.4 141.64 
L 284.4 21.6 
L 94.94 21.6 
z
" style="fill:#ffffff;"/>
   </g>
   <g id="line2d_1">
    <path clip-path="url(#p83af60412a)" d="M 94.94 40.21819 
L 284.4 40.21819 
" style="fill:none;stroke:#000000;stroke-linecap:round;stroke-width:0.5;"/>
   </g>
   <g id="patch_3">
    <path clip-path="url(#p83af60412a)" d="M 100.523163 39.301987 
Q 102.797109 39.301987 104.051431 39.389155 
Q 105.305752 39.476132 105.443962 39.586797 
L 103.863673 39.586797 
Q 103.595077 39.502851 102.791894 39.453772 
Q 101.988711 39.404504 100.53881 39.404504 
Q 98.770765 39.404504 97.683339 39.494892 
Q 96.595913 39.585091 96.595913 39.771553 
Q 96.595913 39.924475 97.576421 40.019601 
Q 98.559538 40.114537 100.507517 40.114537 
Q 102.299032 40.114537 103.237817 40.014484 
Q 103.733287 39.961805 103.978414 39.875775 
L 105.558702 39.875775 
Q 105.347475 40.013158 104.158348 40.106199 
Q 102.731916 40.21819 100.311937 40.21819 
Q 98.225748 40.21819 96.807139 40.126286 
Q 94.94 40.005009 94.94 39.751467 
Q 94.94 39.559131 96.342962 39.43596 
Q 97.858057 39.301987 100.523163 39.301987 
z
M 100.197196 39.301987 
L 100.197196 39.301987 
z
" style="fill:#0000ff;"/>
   </g>
   <g id="patch_4">
    <path clip-path="url(#p83af60412a)" d="M 102.067515 35.734604 
L 100.261014 31.88843 
L 98.340473 35.734604 
L 102.067515 35.734604 
z
M 99.418672 30.594993 
L 101.240724 30.594993 
L 105.558702 39.301987 
L 103.791078 39.301987 
L 102.58588 36.694251 
L 97.879128 36.694251 
L 96.590992 39.301987 
L 94.94 39.301987 
L 99.418672 30.594993 
z
M 100.253239 30.594993 
L 100.253239 30.594993 
z
" style="fill:#008000;"/>
   </g>
   <g id="patch_5">
    <path clip-path="url(#p83af60412a)" d="M 116.736283 40.116308 
L 116.736283 40.128447 
L 112.326315 40.128447 
L 112.326315 40.21819 
L 110.527549 40.21819 
L 110.527549 40.128447 
L 106.117581 40.128447 
L 106.117581 40.116308 
L 116.736283 40.116308 
z
" style="fill:#ff0000;"/>
   </g>
   <g id="patch_6">
    <path clip-path="url(#p83af60412a)" d="M 113.245097 37.93293 
L 111.438595 35.57892 
L 109.518054 37.93293 
L 113.245097 37.93293 
z
M 110.596253 34.787286 
L 112.418305 34.787286 
L 116.736283 40.116308 
L 114.968659 40.116308 
L 113.763461 38.520271 
L 109.056709 38.520271 
L 107.768573 40.116308 
L 106.117581 40.116308 
L 110.596253 34.787286 
z
M 111.43082 34.787286 
L 111.43082 34.787286 
z
" style="fill:#008000;"/>
   </g>
   <g id="patch_7">
    <path clip-path="url(#p83af60412a)" d="M 124.422678 38.279819 
L 122.616176 36.189964 
L 120.695635 38.279819 
L 124.422678 38.279819 
z
M 121.773834 35.487162 
L 123.595886 35.487162 
L 127.913864 40.21819 
L 126.14624 40.21819 
L 124.941042 38.801252 
L 120.23429 38.801252 
L 118.946154 40.21819 
L 117.295162 40.21819 
L 121.773834 35.487162 
z
M 122.608401 35.487162 
L 122.608401 35.487162 
z
" style="fill:#008000;"/>
   </g>
   <g id="patch_8">
    <path clip-path="url(#p83af60412a)" d="M 133.949198 33.781461 
Q 135.587324 33.781461 136.782371 34.114557 
Q 138.514177 34.592881 138.901554 35.792023 
L 137.344449 35.792023 
Q 137.058346 35.121836 136.164593 34.815388 
Q 135.270839 34.508941 133.908688 34.508941 
Q 132.295881 34.508941 131.191982 35.147151 
Q 130.088082 35.784029 130.088082 37.045793 
Q 130.088082 38.13568 130.997027 38.820523 
Q 131.908504 39.505367 133.96439 39.505367 
Q 135.539219 39.505367 136.572225 39.02571 
Q 137.605232 38.544721 137.628019 37.46949 
L 133.989709 37.46949 
L 133.989709 36.783314 
L 139.091445 36.783314 
L 139.091445 40.05564 
L 138.078694 40.05564 
L 137.698912 39.268203 
Q 136.90137 39.730539 136.283591 39.91041 
Q 135.245521 40.21819 133.647905 40.21819 
Q 131.584423 40.21819 130.095678 39.514693 
Q 128.472743 38.631325 128.472743 37.091094 
Q 128.472743 35.554859 130.055168 34.647509 
Q 131.559104 33.781461 133.949198 33.781461 
z
M 133.688415 33.772135 
L 133.688415 33.772135 
z
" style="fill:#ffa600;"/>
   </g>
   <g id="patch_9">
    <path clip-path="url(#p83af60412a)" d="M 135.600259 29.079498 
L 133.793758 24.020132 
L 131.873216 29.079498 
L 135.600259 29.079498 
z
M 132.951415 22.318709 
L 134.773467 22.318709 
L 139.091445 33.772135 
L 137.323822 33.772135 
L 136.118624 30.341845 
L 131.411872 30.341845 
L 130.123735 33.772135 
L 128.472743 33.772135 
L 132.951415 22.318709 
z
M 133.785982 22.318709 
L 133.785982 22.318709 
z
" style="fill:#008000;"/>
   </g>
   <g id="patch_10">
    <path clip-path="url(#p83af60412a)" d="M 145.12678 22.4486 
Q 146.764906 22.4486 147.959953 23.36816 
Q 149.691758 24.688649 150.079136 27.999068 
L 148.52203 27.999068 
Q 148.235927 26.148912 147.342174 25.302916 
Q 146.448421 24.45692 145.086269 24.45692 
Q 143.473462 24.45692 142.369563 26.218798 
Q 141.265664 27.976998 141.265664 31.460294 
Q 141.265664 34.469097 142.174608 36.359713 
Q 143.086085 38.25033 145.141971 38.25033 
Q 146.7168 38.25033 147.749807 36.926163 
Q 148.782813 35.598317 148.8056 32.629975 
L 145.16729 32.629975 
L 145.16729 30.73568 
L 150.269027 30.73568 
L 150.269027 39.769444 
L 149.256275 39.769444 
L 148.876493 37.595603 
Q 148.078951 38.871953 147.461172 39.368516 
Q 146.423102 40.21819 144.825486 40.21819 
Q 142.762004 40.21819 141.273259 38.276078 
Q 139.650324 35.837403 139.650324 31.585354 
Q 139.650324 27.344341 141.232749 24.839457 
Q 142.736685 22.4486 145.12678 22.4486 
z
M 144.865996 22.422852 
L 144.865996 22.422852 
z
" style="fill:#ffa600;"/>
   </g>
   <g id="patch_11">
    <path clip-path="url(#p83af60412a)" d="M 156.304361 38.85685 
Q 157.942487 38.85685 159.137534 38.927299 
Q 160.869339 39.028462 161.256717 39.282075 
L 159.699611 39.282075 
Q 159.413509 39.140334 158.519755 39.075521 
Q 157.626002 39.010709 156.263851 39.010709 
Q 154.651043 39.010709 153.547144 39.145688 
Q 152.443245 39.280385 152.443245 39.547242 
Q 152.443245 39.777748 153.352189 39.92259 
Q 154.263666 40.067431 156.319552 40.067431 
Q 157.894381 40.067431 158.927388 39.965986 
Q 159.960394 39.864259 159.983181 39.636852 
L 156.344871 39.636852 
L 156.344871 39.491729 
L 161.446608 39.491729 
L 161.446608 40.183811 
L 160.433856 40.183811 
L 160.054074 40.017272 
Q 159.256532 40.115054 158.638753 40.153096 
Q 157.600683 40.21819 156.003067 40.21819 
Q 153.939585 40.21819 152.45084 40.069404 
Q 150.827906 39.882575 150.827906 39.556823 
Q 150.827906 39.231916 152.41033 39.040016 
Q 153.914267 38.85685 156.304361 38.85685 
z
M 156.043577 38.854878 
L 156.043577 38.854878 
z
" style="fill:#ffa600;"/>
   </g>
   <g id="patch_12">
    <path clip-path="url(#p83af60412a)" d="M 157.955421 36.195584 
L 156.14892 33.328467 
L 154.228378 36.195584 
L 157.955421 36.195584 
z
M 155.306577 32.364278 
L 157.128629 32.364278 
L 161.446608 38.854878 
L 159.678984 38.854878 
L 158.473786 36.91095 
L 153.767034 36.91095 
L 152.478897 38.854878 
L 150.827906 38.854878 
L 155.306577 32.364278 
z
M 156.141144 32.364278 
L 156.141144 32.364278 
z
" style="fill:#008000;"/>
   </g>
   <g id="patch_13">
    <path clip-path="url(#p83af60412a)" d="M 167.481942 22.617016 
Q 169.120068 22.617016 170.315115 23.527861 
Q 172.04692 24.835835 172.434298 28.114878 
L 170.877192 28.114878 
Q 170.59109 26.282257 169.697336 25.44428 
Q 168.803583 24.606302 167.441432 24.606302 
Q 165.828625 24.606302 164.724725 26.351481 
Q 163.620826 28.093018 163.620826 31.5433 
Q 163.620826 34.523585 164.52977 36.396283 
Q 165.441247 38.268981 167.497133 38.268981 
Q 169.071962 38.268981 170.104969 36.957364 
Q 171.137976 35.642103 171.160763 32.701895 
L 167.522452 32.701895 
L 167.522452 30.825553 
L 172.624189 30.825553 
L 172.624189 39.773698 
L 171.611437 39.773698 
L 171.231655 37.620459 
Q 170.434113 38.884713 169.816335 39.376569 
Q 168.778264 40.21819 167.180648 40.21819 
Q 165.117166 40.21819 163.628421 38.294485 
Q 162.005487 35.878923 162.005487 31.667174 
Q 162.005487 27.466356 163.587911 24.985213 
Q 165.091848 22.617016 167.481942 22.617016 
z
M 167.221158 22.591512 
L 167.221158 22.591512 
z
" style="fill:#ffa600;"/>
   </g>
   <g id="patch_14">
    <path clip-path="url(#p83af60412a)" d="M 180.310583 39.416439 
L 178.504082 38.55203 
L 176.583541 39.416439 
L 180.310583 39.416439 
z
M 177.661739 38.261337 
L 179.483791 38.261337 
L 183.80177 40.21819 
L 182.034146 40.21819 
L 180.828948 39.632114 
L 176.122196 39.632114 
L 174.83406 40.21819 
L 173.183068 40.21819 
L 177.661739 38.261337 
z
M 178.496307 38.261337 
L 178.496307 38.261337 
z
" style="fill:#008000;"/>
   </g>
   <g id="patch_15">
    <path clip-path="url(#p83af60412a)" d="M 178.659523 26.90022 
Q 180.297649 26.90022 181.492696 27.488148 
Q 183.224501 28.332412 183.611879 30.448952 
L 182.054773 30.448952 
Q 181.768671 29.266041 180.874917 28.725148 
Q 179.981164 28.184254 178.619013 28.184254 
Q 177.006206 28.184254 175.902306 29.310724 
Q 174.798407 30.434842 174.798407 32.661912 
Q 174.798407 34.585612 175.707352 35.794392 
Q 176.618828 37.003171 178.674714 37.003171 
Q 180.249543 37.003171 181.28255 36.156555 
Q 182.315557 35.307588 182.338344 33.409757 
L 178.700033 33.409757 
L 178.700033 32.198625 
L 183.80177 32.198625 
L 183.80177 37.974428 
L 182.789018 37.974428 
L 182.409236 36.584567 
Q 181.611694 37.400611 180.993916 37.718092 
Q 179.955845 38.261337 178.358229 38.261337 
Q 176.294748 38.261337 174.806003 37.019633 
Q 173.183068 35.460449 173.183068 32.741871 
Q 173.183068 30.030348 174.765492 28.428832 
Q 176.269429 26.90022 178.659523 26.90022 
z
M 178.398739 26.883758 
L 178.398739 26.883758 
z
" style="fill:#ffa600;"/>
   </g>
   <g id="patch_16">
    <path clip-path="url(#p83af60412a)" d="M 191.488164 39.755169 
L 189.681663 39.255963 
L 187.761122 39.755169 
L 191.488164 39.755169 
z
M 188.83932 39.088084 
L 190.661373 39.088084 
L 194.979351 40.21819 
L 193.211727 40.21819 
L 192.006529 39.879724 
L 187.299777 39.879724 
L 186.011641 40.21819 
L 184.360649 40.21819 
L 188.83932 39.088084 
z
M 189.673888 39.088084 
L 189.673888 39.088084 
z
" style="fill:#008000;"/>
   </g>
   <g id="patch_17">
    <path clip-path="url(#p83af60412a)" d="M 189.837104 23.261917 
Q 191.47523 23.261917 192.670277 24.080908 
Q 194.402083 25.256978 194.78946 28.205342 
L 193.232354 28.205342 
Q 192.946252 26.557534 192.052498 25.804063 
Q 191.158745 25.050592 189.796594 25.050592 
Q 188.183787 25.050592 187.079887 26.619777 
Q 185.975988 28.185686 185.975988 31.288021 
Q 185.975988 33.967757 186.884933 35.651601 
Q 187.796409 37.335445 189.852295 37.335445 
Q 191.427124 37.335445 192.460131 36.156099 
Q 193.493138 34.973477 193.515925 32.329777 
L 189.877614 32.329777 
L 189.877614 30.642657 
L 194.979351 30.642657 
L 194.979351 38.688417 
L 193.966599 38.688417 
L 193.586817 36.752324 
Q 192.789275 37.889082 192.171497 38.331337 
Q 191.133426 39.088084 189.53581 39.088084 
Q 187.472329 39.088084 185.983584 37.358377 
Q 184.360649 35.186415 184.360649 31.399404 
Q 184.360649 27.622221 185.943074 25.391292 
Q 187.44701 23.261917 189.837104 23.261917 
z
M 189.57632 23.238986 
L 189.57632 23.238986 
z
" style="fill:#ffa600;"/>
   </g>
   <g id="patch_18">
    <path clip-path="url(#p83af60412a)" d="M 201.014685 26.267768 
Q 202.652811 26.267768 203.847858 26.98969 
Q 205.579664 28.02637 205.967041 30.62529 
L 204.409935 30.62529 
Q 204.123833 29.172782 203.23008 28.508614 
Q 202.336326 27.844446 200.974175 27.844446 
Q 199.361368 27.844446 198.257469 29.227648 
Q 197.153569 30.607963 197.153569 33.342604 
Q 197.153569 35.704733 198.062514 37.189005 
Q 198.97399 38.673277 201.029876 38.673277 
Q 202.604705 38.673277 203.637712 37.633709 
Q 204.670719 36.591254 204.693506 34.260889 
L 201.055195 34.260889 
L 201.055195 32.77373 
L 206.156932 32.77373 
L 206.156932 39.865892 
L 205.14418 39.865892 
L 204.764399 38.159268 
Q 203.966857 39.161296 203.349078 39.551134 
Q 202.311007 40.21819 200.713392 40.21819 
Q 198.64991 40.21819 197.161165 38.693491 
Q 195.53823 36.778953 195.53823 33.440786 
Q 195.53823 30.111281 197.120655 28.144765 
Q 198.624591 26.267768 201.014685 26.267768 
z
M 200.753902 26.247554 
L 200.753902 26.247554 
z
" style="fill:#ffa600;"/>
   </g>
   <g id="patch_19">
    <path clip-path="url(#p83af60412a)" d="M 212.192266 36.829632 
Q 213.830392 36.829632 215.025439 37.004986 
Q 216.757245 37.256796 217.144622 37.888074 
L 215.587517 37.888074 
Q 215.301414 37.53526 214.407661 37.373933 
Q 213.513907 37.212607 212.151756 37.212607 
Q 210.538949 37.212607 209.43505 37.548587 
Q 208.33115 37.883865 208.33115 38.54811 
Q 208.33115 39.121871 209.240095 39.482401 
Q 210.151572 39.842931 212.207458 39.842931 
Q 213.782287 39.842931 214.815293 39.590419 
Q 215.8483 39.337207 215.871087 38.771161 
L 212.232776 38.771161 
L 212.232776 38.40993 
L 217.334513 38.40993 
L 217.334513 40.132617 
L 216.321762 40.132617 
L 215.94198 39.718078 
Q 215.144438 39.96147 214.526659 40.056162 
Q 213.488589 40.21819 211.890973 40.21819 
Q 209.827491 40.21819 208.338746 39.84784 
Q 206.715811 39.382799 206.715811 38.571958 
Q 206.715811 37.763221 208.298236 37.285554 
Q 209.802172 36.829632 212.192266 36.829632 
z
M 211.931483 36.824722 
L 211.931483 36.824722 
z
" style="fill:#ffa600;"/>
   </g>
   <g id="patch_20">
    <path clip-path="url(#p83af60412a)" d="M 213.843327 33.565252 
L 212.036825 30.051055 
L 210.116284 33.565252 
L 213.843327 33.565252 
z
M 211.194483 28.869259 
L 213.016535 28.869259 
L 217.334513 36.824722 
L 215.566889 36.824722 
L 214.361691 34.442068 
L 209.654939 34.442068 
L 208.366803 36.824722 
L 206.715811 36.824722 
L 211.194483 28.869259 
z
M 212.02905 28.869259 
L 212.02905 28.869259 
z
" style="fill:#008000;"/>
   </g>
   <g id="patch_21">
    <path clip-path="url(#p83af60412a)" d="M 225.020908 38.020778 
L 223.214407 35.651638 
L 221.293865 38.020778 
L 225.020908 38.020778 
z
M 222.372064 34.854915 
L 224.194116 34.854915 
L 228.512094 40.21819 
L 226.744471 40.21819 
L 225.539273 38.611894 
L 220.832521 38.611894 
L 219.544384 40.21819 
L 217.893392 40.21819 
L 222.372064 34.854915 
z
M 223.206631 34.854915 
L 223.206631 34.854915 
z
" style="fill:#008000;"/>
   </g>
   <g id="patch_22">
    <path clip-path="url(#p83af60412a)" d="M 223.369847 23.767748 
Q 225.007973 23.767748 226.20302 24.3415 
Q 227.934826 25.165406 228.322203 27.23091 
L 226.765098 27.23091 
Q 226.478995 26.076523 225.585242 25.548672 
Q 224.691488 25.020821 223.329337 25.020821 
Q 221.71653 25.020821 220.612631 26.120128 
Q 219.508731 27.21714 219.508731 29.390509 
Q 219.508731 31.267823 220.417676 32.447455 
Q 221.329153 33.627088 223.385039 33.627088 
Q 224.959868 33.627088 225.992874 32.800886 
Q 227.025881 31.972389 227.048668 30.120321 
L 223.410357 30.120321 
L 223.410357 28.938393 
L 228.512094 28.938393 
L 228.512094 34.574924 
L 227.499343 34.574924 
L 227.119561 33.218577 
Q 226.322019 34.014943 225.70424 34.324769 
Q 224.66617 34.854915 223.068554 34.854915 
Q 221.005072 34.854915 219.516327 33.643153 
Q 217.893392 32.121565 217.893392 29.46854 
Q 217.893392 26.822399 219.475817 25.259501 
Q 220.979753 23.767748 223.369847 23.767748 
z
M 223.109064 23.751683 
L 223.109064 23.751683 
z
" style="fill:#ffa600;"/>
   </g>
   <g id="patch_23">
    <path clip-path="url(#p83af60412a)" d="M 239.689676 35.009666 
L 239.689676 35.630242 
L 235.279707 35.630242 
L 235.279707 40.21819 
L 233.480942 40.21819 
L 233.480942 35.630242 
L 229.070973 35.630242 
L 229.070973 35.009666 
L 239.689676 35.009666 
z
" style="fill:#ff0000;"/>
   </g>
   <g id="patch_24">
    <path clip-path="url(#p83af60412a)" d="M 236.198489 30.906735 
L 234.391988 26.483161 
L 232.471446 30.906735 
L 236.198489 30.906735 
z
M 233.549645 24.995548 
L 235.371697 24.995548 
L 239.689676 35.009666 
L 237.922052 35.009666 
L 236.716854 32.010448 
L 232.010102 32.010448 
L 230.721965 35.009666 
L 229.070973 35.009666 
L 233.549645 24.995548 
z
M 234.384212 24.995548 
L 234.384212 24.995548 
z
" style="fill:#008000;"/>
   </g>
   <g id="patch_25">
    <path clip-path="url(#p83af60412a)" d="M 250.867257 27.16455 
L 250.867257 28.719841 
L 246.457288 28.719841 
L 246.457288 40.21819 
L 244.658523 40.21819 
L 244.658523 28.719841 
L 240.248555 28.719841 
L 240.248555 27.16455 
L 250.867257 27.16455 
z
" style="fill:#ff0000;"/>
   </g>
   <g id="patch_26">
    <path clip-path="url(#p83af60412a)" d="M 262.044838 39.481794 
L 262.044838 39.569533 
L 257.634869 39.569533 
L 257.634869 40.21819 
L 255.836104 40.21819 
L 255.836104 39.569533 
L 251.426136 39.569533 
L 251.426136 39.481794 
L 262.044838 39.481794 
z
" style="fill:#ff0000;"/>
   </g>
   <g id="patch_27">
    <path clip-path="url(#p83af60412a)" d="M 258.553651 35.973198 
L 256.74715 32.190406 
L 254.826609 35.973198 
L 258.553651 35.973198 
z
M 255.904807 30.918283 
L 257.726859 30.918283 
L 262.044838 39.481794 
L 260.277214 39.481794 
L 259.072016 36.917031 
L 254.365264 36.917031 
L 253.077127 39.481794 
L 251.426136 39.481794 
L 255.904807 30.918283 
z
M 256.739374 30.918283 
L 256.739374 30.918283 
z
" style="fill:#008000;"/>
   </g>
   <g id="patch_28">
    <path clip-path="url(#p83af60412a)" d="M 273.222419 36.432581 
L 273.222419 36.883621 
L 268.812451 36.883621 
L 268.812451 40.21819 
L 267.013685 40.21819 
L 267.013685 36.883621 
L 262.603717 36.883621 
L 262.603717 36.432581 
L 273.222419 36.432581 
z
" style="fill:#ff0000;"/>
   </g>
   <g id="patch_29">
    <path clip-path="url(#p83af60412a)" d="M 268.18688 24.179753 
Q 270.460826 24.179753 271.715147 25.345482 
Q 272.969468 26.508677 273.107678 27.988647 
L 271.52739 27.988647 
Q 271.258793 26.865999 270.455611 26.209642 
Q 269.652428 25.550752 268.202527 25.550752 
Q 266.434481 25.550752 265.347055 26.759562 
Q 264.259629 27.965839 264.259629 30.459486 
Q 264.259629 32.50458 265.240138 33.776745 
Q 266.223255 35.046377 268.171234 35.046377 
Q 269.962749 35.046377 270.901534 33.708322 
Q 271.397003 33.003816 271.642131 31.853292 
L 273.222419 31.853292 
Q 273.011192 33.690583 271.822065 34.934872 
Q 270.395633 36.432581 267.975654 36.432581 
Q 265.889465 36.432581 264.470856 35.203497 
Q 262.603717 33.581612 262.603717 30.190861 
Q 262.603717 27.618654 264.006679 25.971428 
Q 265.521774 24.179753 268.18688 24.179753 
z
M 267.860913 24.179753 
L 267.860913 24.179753 
z
" style="fill:#0000ff;"/>
   </g>
   <g id="patch_30">
    <path clip-path="url(#p83af60412a)" d="M 279.364461 35.159025 
Q 281.638407 35.159025 282.892728 35.640352 
Q 284.14705 36.120633 284.28526 36.731709 
L 282.704971 36.731709 
Q 282.436375 36.26817 281.633192 35.997162 
Q 280.830009 35.725108 279.380108 35.725108 
Q 277.612063 35.725108 276.524636 36.224223 
Q 275.43721 36.722292 275.43721 37.751913 
Q 275.43721 38.596328 276.417719 39.121602 
Q 277.400836 39.64583 279.348815 39.64583 
Q 281.14033 39.64583 282.079115 39.09335 
Q 282.574585 38.802461 282.819712 38.327412 
L 284.4 38.327412 
Q 284.188773 39.086025 282.999646 39.59979 
Q 281.573214 40.21819 279.153235 40.21819 
Q 277.067046 40.21819 275.648437 39.710704 
Q 273.781298 39.041032 273.781298 37.640998 
Q 273.781298 36.57894 275.18426 35.898804 
Q 276.699355 35.159025 279.364461 35.159025 
z
M 279.038494 35.159025 
L 279.038494 35.159025 
z
" style="fill:#0000ff;"/>
   </g>
   <g id="patch_31">
    <path clip-path="url(#p83af60412a)" d="M 284.4 21.6 
L 284.4 23.215506 
L 279.990032 23.215506 
L 279.990032 35.159025 
L 278.191266 35.159025 
L 278.191266 23.215506 
L 273.781298 23.215506 
L 273.781298 21.6 
L 284.4 21.6 
z
" style="fill:#ff0000;"/>
   </g>
   <g id="patch_32">
    <path clip-path="url(#p83af60412a)" d="M 100.416455 42.597037 
Q 102.054581 42.597037 103.249628 42.473934 
Q 104.981434 42.297157 105.368811 41.853986 
L 103.811705 41.853986 
Q 103.525603 42.101669 102.63185 42.214924 
Q 101.738096 42.328179 100.375945 42.328179 
Q 98.763138 42.328179 97.659238 42.092314 
Q 96.555339 41.85694 96.555339 41.390625 
Q 96.555339 40.987831 97.464284 40.734731 
Q 98.37576 40.481631 100.431646 40.481631 
Q 102.006475 40.481631 103.039482 40.6589 
Q 104.072489 40.836661 104.095276 41.234038 
L 100.456965 41.234038 
L 100.456965 41.487631 
L 105.558702 41.487631 
L 105.558702 40.278264 
L 104.54595 40.278264 
L 104.166168 40.56928 
Q 103.368626 40.398413 102.750848 40.331937 
Q 101.712777 40.21819 100.115161 40.21819 
Q 98.05168 40.21819 96.562935 40.478184 
Q 94.94 40.804654 94.94 41.373883 
Q 94.94 41.941635 96.522425 42.276968 
Q 98.026361 42.597037 100.416455 42.597037 
z
M 100.155671 42.600484 
L 100.155671 42.600484 
z
" style="fill:none;opacity:0;"/>
   </g>
   <g id="patch_33">
    <path clip-path="url(#p83af60412a)" d="M 105.558702 60.396811 
L 105.558702 58.276447 
L 101.148734 58.276447 
L 101.148734 42.600484 
L 99.349968 42.600484 
L 99.349968 58.276447 
L 94.94 58.276447 
L 94.94 60.396811 
L 105.558702 60.396811 
z
" style="fill:none;opacity:0;"/>
   </g>
   <g id="patch_34">
    <path clip-path="url(#p83af60412a)" d="M 111.700744 47.704428 
Q 113.97469 47.704428 115.229012 47.184584 
Q 116.483333 46.665871 116.621543 46.005896 
L 115.041255 46.005896 
Q 114.772658 46.506528 113.969475 46.799222 
Q 113.166292 47.093047 111.716391 47.093047 
Q 109.948346 47.093047 108.86092 46.553992 
Q 107.773494 46.016067 107.773494 44.904054 
Q 107.773494 43.992068 108.754002 43.42476 
Q 109.737119 42.858583 111.685098 42.858583 
Q 113.476613 42.858583 114.415398 43.455273 
Q 114.910868 43.769439 115.155995 44.282502 
L 116.736283 44.282502 
Q 116.525057 43.463184 115.335929 42.908307 
Q 113.909497 42.240421 111.489518 42.240421 
Q 109.403329 42.240421 107.98472 42.788517 
Q 106.117581 43.511778 106.117581 45.023844 
Q 106.117581 46.17089 107.520543 46.905451 
Q 109.035638 47.704428 111.700744 47.704428 
z
M 111.374777 47.704428 
L 111.374777 47.704428 
z
" style="fill:none;opacity:0;"/>
   </g>
   <g id="patch_35">
    <path clip-path="url(#p83af60412a)" d="M 111.594036 42.237496 
Q 113.232162 42.237496 114.427209 42.132998 
Q 116.159015 41.98294 116.546392 41.60675 
L 114.989286 41.60675 
Q 114.703184 41.816998 113.809431 41.913136 
Q 112.915677 42.009273 111.553526 42.009273 
Q 109.940719 42.009273 108.83682 41.809057 
Q 107.73292 41.609258 107.73292 41.213422 
Q 107.73292 40.871507 108.641865 40.656661 
Q 109.553341 40.441814 111.609227 40.441814 
Q 113.184056 40.441814 114.217063 40.59229 
Q 115.25007 40.743184 115.272857 41.080502 
L 111.634546 41.080502 
L 111.634546 41.295766 
L 116.736283 41.295766 
L 116.736283 40.269185 
L 115.723531 40.269185 
L 115.34375 40.516216 
Q 114.546208 40.371174 113.928429 40.314746 
Q 112.890358 40.21819 111.292743 40.21819 
Q 109.229261 40.21819 107.740516 40.438888 
Q 106.117581 40.716015 106.117581 41.199211 
Q 106.117581 41.681152 107.700006 41.965803 
Q 109.203942 42.237496 111.594036 42.237496 
z
M 111.333253 42.240421 
L 111.333253 42.240421 
z
" style="fill:none;opacity:0;"/>
   </g>
   <g id="patch_36">
    <path clip-path="url(#p83af60412a)" d="M 122.878326 46.494117 
Q 125.152272 46.494117 126.406593 46.035315 
Q 127.660914 45.577511 127.799124 44.995032 
L 126.218836 44.995032 
Q 125.950239 45.436878 125.147056 45.695204 
Q 124.343873 45.954526 122.893972 45.954526 
Q 121.125927 45.954526 120.038501 45.478769 
Q 118.951075 45.004009 118.951075 44.022573 
Q 118.951075 43.217675 119.931584 42.716983 
Q 120.9147 42.217288 122.862679 42.217288 
Q 124.654194 42.217288 125.592979 42.743913 
Q 126.088449 43.021188 126.333576 43.474005 
L 127.913864 43.474005 
Q 127.702638 42.750894 126.51351 42.261173 
Q 125.087078 41.671713 122.667099 41.671713 
Q 120.58091 41.671713 119.162301 42.15545 
Q 117.295162 42.793782 117.295162 44.128296 
Q 117.295162 45.140652 118.698124 45.788959 
Q 120.213219 46.494117 122.878326 46.494117 
z
M 122.552359 46.494117 
L 122.552359 46.494117 
z
" style="fill:none;opacity:0;"/>
   </g>
   <g id="patch_37">
    <path clip-path="url(#p83af60412a)" d="M 122.771617 40.732314 
Q 124.409743 40.732314 125.60479 40.705708 
Q 127.336596 40.667503 127.723973 40.571723 
L 126.166868 40.571723 
Q 125.880765 40.625253 124.987012 40.64973 
Q 124.093258 40.674207 122.731107 40.674207 
Q 121.1183 40.674207 120.014401 40.623231 
Q 118.910501 40.572362 118.910501 40.47158 
Q 118.910501 40.384527 119.819446 40.329826 
Q 120.730923 40.275126 122.786809 40.275126 
Q 124.361638 40.275126 125.394644 40.313438 
Q 126.427651 40.351856 126.450438 40.437738 
L 122.812127 40.437738 
L 122.812127 40.492545 
L 127.913864 40.492545 
L 127.913864 40.231173 
L 126.901113 40.231173 
L 126.521331 40.294069 
Q 125.723789 40.25714 125.10601 40.242773 
Q 124.06794 40.21819 122.470324 40.21819 
Q 120.406842 40.21819 118.918097 40.274381 
Q 117.295162 40.344938 117.295162 40.467962 
Q 117.295162 40.590666 118.877587 40.663139 
Q 120.381523 40.732314 122.771617 40.732314 
z
M 122.510834 40.733059 
L 122.510834 40.733059 
z
" style="fill:none;opacity:0;"/>
   </g>
   <g id="patch_38">
    <path clip-path="url(#p83af60412a)" d="M 127.913864 41.671713 
L 127.913864 41.559876 
L 123.503896 41.559876 
L 123.503896 40.733059 
L 121.705131 40.733059 
L 121.705131 41.559876 
L 117.295162 41.559876 
L 117.295162 41.671713 
L 127.913864 41.671713 
z
" style="fill:none;opacity:0;"/>
   </g>
   <g id="patch_39">
    <path clip-path="url(#p83af60412a)" d="M 134.055907 105.649836 
Q 136.329853 105.649836 137.584174 101.144939 
Q 138.838495 96.649836 138.976705 90.930575 
L 137.396417 90.930575 
Q 137.12782 95.268987 136.324637 97.80544 
Q 135.521454 100.351686 134.071553 100.351686 
Q 132.303508 100.351686 131.216082 95.680303 
Q 130.128656 91.018714 130.128656 81.382152 
Q 130.128656 73.478996 131.109165 68.562783 
Q 132.092281 63.656362 134.04026 63.656362 
Q 135.831775 63.656362 136.77056 68.827201 
Q 137.26603 71.549725 137.511157 75.995863 
L 139.091445 75.995863 
Q 138.880219 68.895753 137.691091 64.087266 
Q 136.264659 58.299452 133.84468 58.299452 
Q 131.758491 58.299452 130.339883 63.049181 
Q 128.472743 69.316863 128.472743 82.420237 
Q 128.472743 92.36039 129.875705 98.726006 
Q 131.3908 105.649836 134.055907 105.649836 
z
M 133.72994 105.649836 
L 133.72994 105.649836 
z
" style="fill:none;opacity:0;"/>
   </g>
   <g id="patch_40">
    <path clip-path="url(#p83af60412a)" d="M 139.091445 58.299452 
L 139.091445 56.145139 
L 134.681477 56.145139 
L 134.681477 40.21819 
L 132.882712 40.21819 
L 132.882712 56.145139 
L 128.472743 56.145139 
L 128.472743 58.299452 
L 139.091445 58.299452 
z
" style="fill:none;opacity:0;"/>
   </g>
   <g id="patch_41">
    <path clip-path="url(#p83af60412a)" d="M 146.77784 45.953995 
L 144.971339 52.138053 
L 143.050797 45.953995 
L 146.77784 45.953995 
z
M 144.128996 54.217702 
L 145.951048 54.217702 
L 150.269027 40.21819 
L 148.501403 40.21819 
L 147.296205 44.41103 
L 142.589453 44.41103 
L 141.301316 40.21819 
L 139.650324 40.21819 
L 144.128996 54.217702 
z
M 144.963563 54.217702 
L 144.963563 54.217702 
z
" style="fill:none;opacity:0;"/>
   </g>
   <g id="patch_42">
    <path clip-path="url(#p83af60412a)" d="M 145.233488 71.309222 
Q 147.507434 71.309222 148.761755 69.683141 
Q 150.016076 68.060596 150.154286 65.996181 
L 148.573998 65.996181 
Q 148.305401 67.562167 147.502218 68.477721 
Q 146.699036 69.39681 145.249134 69.39681 
Q 143.481089 69.39681 142.393663 67.710635 
Q 141.306237 66.027995 141.306237 62.549597 
Q 141.306237 59.696886 142.286746 57.922337 
Q 143.269862 56.151324 145.217841 56.151324 
Q 147.009356 56.151324 147.948141 58.017781 
Q 148.443611 59.0005 148.688738 60.60537 
L 150.269027 60.60537 
Q 150.0578 58.042526 148.868672 56.306862 
Q 147.44224 54.217702 145.022261 54.217702 
Q 142.936072 54.217702 141.517464 55.932156 
Q 139.650324 58.194529 139.650324 62.924302 
Q 139.650324 66.512284 141.053287 68.810007 
Q 142.568381 71.309222 145.233488 71.309222 
z
M 144.907521 71.309222 
L 144.907521 71.309222 
z
" style="fill:none;opacity:0;"/>
   </g>
   <g id="patch_43">
    <path clip-path="url(#p83af60412a)" d="M 150.269027 115.419154 
L 150.269027 110.163625 
L 145.859058 110.163625 
L 145.859058 71.309222 
L 144.060293 71.309222 
L 144.060293 110.163625 
L 139.650324 110.163625 
L 139.650324 115.419154 
L 150.269027 115.419154 
z
" style="fill:none;opacity:0;"/>
   </g>
   <g id="patch_44">
    <path clip-path="url(#p83af60412a)" d="M 156.411069 43.994645 
Q 158.685015 43.994645 159.939336 43.635354 
Q 161.193657 43.276845 161.331867 42.820702 
L 159.751579 42.820702 
Q 159.482982 43.166714 158.679799 43.369011 
Q 157.876617 43.572088 156.426715 43.572088 
Q 154.65867 43.572088 153.571244 43.199519 
Q 152.483818 42.827732 152.483818 42.059163 
Q 152.483818 41.428842 153.464327 41.036747 
Q 154.447444 40.645433 156.395423 40.645433 
Q 158.186937 40.645433 159.125722 41.057836 
Q 159.621192 41.274972 159.866319 41.629576 
L 161.446608 41.629576 
Q 161.235381 41.063304 160.046253 40.6798 
Q 158.619822 40.21819 156.199842 40.21819 
Q 154.113653 40.21819 152.695045 40.597007 
Q 150.827906 41.096889 150.827906 42.141956 
Q 150.827906 42.934738 152.230868 43.442431 
Q 153.745962 43.994645 156.411069 43.994645 
z
M 156.085102 43.994645 
L 156.085102 43.994645 
z
" style="fill:none;opacity:0;"/>
   </g>
   <g id="patch_45">
    <path clip-path="url(#p83af60412a)" d="M 161.446608 51.920217 
L 161.446608 50.975916 
L 157.036639 50.975916 
L 157.036639 43.994645 
L 155.237874 43.994645 
L 155.237874 50.975916 
L 150.827906 50.975916 
L 150.827906 51.920217 
L 161.446608 51.920217 
z
" style="fill:none;opacity:0;"/>
   </g>
   <g id="patch_46">
    <path clip-path="url(#p83af60412a)" d="M 169.133002 42.183056 
L 167.326501 44.301475 
L 165.40596 42.183056 
L 169.133002 42.183056 
z
M 166.484158 45.013883 
L 168.30621 45.013883 
L 172.624189 40.21819 
L 170.856565 40.21819 
L 169.651367 41.654495 
L 164.944615 41.654495 
L 163.656478 40.21819 
L 162.005487 40.21819 
L 166.484158 45.013883 
z
M 167.318725 45.013883 
L 167.318725 45.013883 
z
" style="fill:none;opacity:0;"/>
   </g>
   <g id="patch_47">
    <path clip-path="url(#p83af60412a)" d="M 167.58865 141.64 
Q 169.862596 141.64 171.116917 136.822532 
Q 172.371238 132.015536 172.509448 125.899446 
L 170.92916 125.899446 
Q 170.660563 130.538878 169.857381 133.251322 
Q 169.054198 135.974239 167.604296 135.974239 
Q 165.836251 135.974239 164.748825 130.978734 
Q 163.661399 125.993701 163.661399 115.688508 
Q 163.661399 107.236994 164.641908 101.97967 
Q 165.625025 96.732819 167.573004 96.732819 
Q 169.364518 96.732819 170.303304 102.262434 
Q 170.798773 105.173861 171.043901 109.928492 
L 172.624189 109.928492 
Q 172.412962 102.335743 171.223834 97.19362 
Q 169.797403 91.004221 167.377423 91.004221 
Q 165.291234 91.004221 163.872626 96.083508 
Q 162.005487 102.786072 162.005487 116.798621 
Q 162.005487 127.428469 163.408449 134.235761 
Q 164.923544 141.64 167.58865 141.64 
z
M 167.262683 141.64 
L 167.262683 141.64 
z
" style="fill:none;opacity:0;"/>
   </g>
   <g id="patch_48">
    <path clip-path="url(#p83af60412a)" d="M 172.624189 91.004221 
L 172.624189 85.524649 
L 168.21422 85.524649 
L 168.21422 45.013883 
L 166.415455 45.013883 
L 166.415455 85.524649 
L 162.005487 85.524649 
L 162.005487 91.004221 
L 172.624189 91.004221 
z
" style="fill:none;opacity:0;"/>
   </g>
   <g id="patch_49">
    <path clip-path="url(#p83af60412a)" d="M 178.766231 96.365918 
Q 181.040177 96.365918 182.294498 91.509156 
Q 183.548819 86.662951 183.68703 80.496975 
L 182.106741 80.496975 
Q 181.838145 85.174248 181.034962 87.908817 
Q 180.231779 90.653943 178.781878 90.653943 
Q 177.013832 90.653943 175.926406 85.617692 
Q 174.83898 80.591998 174.83898 70.202749 
Q 174.83898 61.682299 175.819489 56.382092 
Q 176.802606 51.092444 178.750585 51.092444 
Q 180.5421 51.092444 181.480885 56.667163 
Q 181.976355 59.602337 182.221482 64.395751 
L 183.80177 64.395751 
Q 183.590543 56.741071 182.401416 51.557004 
Q 180.974984 45.31712 178.555005 45.31712 
Q 176.468816 45.31712 175.050207 50.437837 
Q 173.183068 57.195072 173.183068 71.321917 
Q 173.183068 82.038469 174.58603 88.901285 
Q 176.101125 96.365918 178.766231 96.365918 
z
M 178.440264 96.365918 
L 178.440264 96.365918 
z
" style="fill:none;opacity:0;"/>
   </g>
   <g id="patch_50">
    <path clip-path="url(#p83af60412a)" d="M 183.80177 45.31712 
L 183.80177 44.709602 
L 179.391802 44.709602 
L 179.391802 40.21819 
L 177.593036 40.21819 
L 177.593036 44.709602 
L 173.183068 44.709602 
L 173.183068 45.31712 
L 183.80177 45.31712 
z
" style="fill:none;opacity:0;"/>
   </g>
   <g id="patch_51">
    <path clip-path="url(#p83af60412a)" d="M 189.943812 86.511766 
Q 192.217758 86.511766 193.472079 82.107413 
Q 194.726401 77.712635 194.864611 72.121022 
L 193.284322 72.121022 
Q 193.015726 76.362605 192.212543 78.842447 
Q 191.40936 81.331864 189.959459 81.331864 
Q 188.191414 81.331864 187.103988 76.764742 
Q 186.016561 72.207194 186.016561 62.78571 
Q 186.016561 55.058943 186.99707 50.252454 
Q 187.980187 45.45554 189.928166 45.45554 
Q 191.719681 45.45554 192.658466 50.510971 
Q 193.153936 53.172731 193.399063 57.519636 
L 194.979351 57.519636 
Q 194.768124 50.577993 193.578997 45.876826 
Q 192.152565 40.21819 189.732586 40.21819 
Q 187.646397 40.21819 186.227788 44.86191 
Q 184.360649 50.989705 184.360649 63.800626 
Q 184.360649 73.518926 185.763611 79.742467 
Q 187.278706 86.511766 189.943812 86.511766 
z
M 189.617845 86.511766 
L 189.617845 86.511766 
z
" style="fill:none;opacity:0;"/>
   </g>
   <g id="patch_52">
    <path clip-path="url(#p83af60412a)" d="M 194.979351 135.235586 
L 194.979351 129.43033 
L 190.569383 129.43033 
L 190.569383 86.511766 
L 188.770617 86.511766 
L 188.770617 129.43033 
L 184.360649 129.43033 
L 184.360649 135.235586 
L 194.979351 135.235586 
z
" style="fill:none;opacity:0;"/>
   </g>
   <g id="patch_53">
    <path clip-path="url(#p83af60412a)" d="M 202.665746 41.999891 
L 200.859244 43.920831 
L 198.938703 41.999891 
L 202.665746 41.999891 
z
M 200.016902 44.566828 
L 201.838954 44.566828 
L 206.156932 40.21819 
L 204.389308 40.21819 
L 203.18411 41.520603 
L 198.477358 41.520603 
L 197.189222 40.21819 
L 195.53823 40.21819 
L 200.016902 44.566828 
z
M 200.851469 44.566828 
L 200.851469 44.566828 
z
" style="fill:none;opacity:0;"/>
   </g>
   <g id="patch_54">
    <path clip-path="url(#p83af60412a)" d="M 201.121393 54.59879 
Q 203.395339 54.59879 204.649661 53.644353 
Q 205.903982 52.691991 206.042192 51.480271 
L 204.461904 51.480271 
Q 204.193307 52.399435 203.390124 52.936825 
Q 202.586941 53.476289 201.13704 53.476289 
Q 199.368995 53.476289 198.281569 52.48658 
Q 197.194143 51.498945 197.194143 49.45728 
Q 197.194143 47.782865 198.174651 46.741284 
Q 199.157768 45.701778 201.105747 45.701778 
Q 202.897262 45.701778 203.836047 46.797305 
Q 204.331517 47.374117 204.576644 48.316105 
L 206.156932 48.316105 
Q 205.945706 46.811829 204.756578 45.793072 
Q 203.330146 44.566828 200.910167 44.566828 
Q 198.823978 44.566828 197.405369 45.573136 
Q 195.53823 46.901049 195.53823 49.677215 
Q 195.53823 51.783201 196.941192 53.131862 
Q 198.456287 54.59879 201.121393 54.59879 
z
M 200.795426 54.59879 
L 200.795426 54.59879 
z
" style="fill:none;opacity:0;"/>
   </g>
   <g id="patch_55">
    <path clip-path="url(#p83af60412a)" d="M 206.156932 77.206122 
L 206.156932 74.512545 
L 201.746964 74.512545 
L 201.746964 54.59879 
L 199.948198 54.59879 
L 199.948198 74.512545 
L 195.53823 74.512545 
L 195.53823 77.206122 
L 206.156932 77.206122 
z
" style="fill:none;opacity:0;"/>
   </g>
   <g id="patch_56">
    <path clip-path="url(#p83af60412a)" d="M 212.298975 42.778001 
Q 214.572921 42.778001 215.827242 42.534462 
Q 217.081563 42.291452 217.219773 41.982263 
L 215.639485 41.982263 
Q 215.370888 42.216802 214.567705 42.353925 
Q 213.764522 42.491578 212.314621 42.491578 
Q 210.546576 42.491578 209.45915 42.239038 
Q 208.371724 41.987027 208.371724 41.466065 
Q 208.371724 41.038812 209.352233 40.773036 
Q 210.335349 40.50779 212.283328 40.50779 
Q 214.074843 40.50779 215.013628 40.787331 
Q 215.509098 40.934514 215.754225 41.174876 
L 217.334513 41.174876 
Q 217.123287 40.791037 215.934159 40.531085 
Q 214.507727 40.21819 212.087748 40.21819 
Q 210.001559 40.21819 208.58295 40.474965 
Q 206.715811 40.813803 206.715811 41.522185 
Q 206.715811 42.05956 208.118773 42.403692 
Q 209.633868 42.778001 212.298975 42.778001 
z
M 211.973008 42.778001 
L 211.973008 42.778001 
z
" style="fill:none;opacity:0;"/>
   </g>
   <g id="patch_57">
    <path clip-path="url(#p83af60412a)" d="M 217.334513 65.955298 
L 217.334513 63.193813 
L 212.924545 63.193813 
L 212.924545 42.778001 
L 211.12578 42.778001 
L 211.12578 63.193813 
L 206.715811 63.193813 
L 206.715811 65.955298 
L 217.334513 65.955298 
z
" style="fill:none;opacity:0;"/>
   </g>
   <g id="patch_58">
    <path clip-path="url(#p83af60412a)" d="M 223.476556 52.851387 
Q 225.750502 52.851387 227.004823 51.64947 
Q 228.259144 50.450165 228.397354 48.924253 
L 226.817066 48.924253 
Q 226.548469 50.081751 225.745286 50.758483 
Q 224.942103 51.437828 223.492202 51.437828 
Q 221.724157 51.437828 220.636731 50.191492 
Q 219.549305 48.947768 219.549305 46.37671 
Q 219.549305 44.268129 220.529814 42.956471 
Q 221.51293 41.647427 223.460909 41.647427 
Q 225.252424 41.647427 226.191209 43.027019 
Q 226.686679 43.753395 226.931806 44.939635 
L 228.512094 44.939635 
Q 228.300868 43.045309 227.11174 41.762393 
Q 225.685308 40.21819 223.265329 40.21819 
Q 221.17914 40.21819 219.760531 41.485429 
Q 217.893392 43.157662 217.893392 46.653674 
Q 217.893392 49.305731 219.296354 51.004092 
Q 220.811449 52.851387 223.476556 52.851387 
z
M 223.150589 52.851387 
L 223.150589 52.851387 
z
" style="fill:none;opacity:0;"/>
   </g>
   <g id="patch_59">
    <path clip-path="url(#p83af60412a)" d="M 228.512094 94.070391 
L 228.512094 89.159305 
L 224.102126 89.159305 
L 224.102126 52.851387 
L 222.303361 52.851387 
L 222.303361 89.159305 
L 217.893392 89.159305 
L 217.893392 94.070391 
L 228.512094 94.070391 
z
" style="fill:none;opacity:0;"/>
   </g>
   <g id="patch_60">
    <path clip-path="url(#p83af60412a)" d="M 234.654137 87.080022 
Q 236.928083 87.080022 238.182404 83.407173 
Q 239.436725 79.742309 239.574935 75.079389 
L 237.994647 75.079389 
Q 237.72605 78.616501 236.922867 80.684475 
Q 236.119685 82.760433 234.669783 82.760433 
Q 232.901738 82.760433 231.814312 78.951848 
Q 230.726886 75.151249 230.726886 67.294547 
Q 230.726886 60.851093 231.707395 56.842897 
Q 232.690511 52.842686 234.63849 52.842686 
Q 236.430005 52.842686 237.36879 57.058478 
Q 237.86426 59.278156 238.109387 62.903097 
L 239.689676 62.903097 
Q 239.478449 57.114369 238.289321 53.194002 
Q 236.862889 48.47519 234.44291 48.47519 
Q 232.356721 48.47519 230.938113 52.34765 
Q 229.070973 57.4577 229.070973 68.140899 
Q 229.070973 76.245119 230.473936 81.435013 
Q 231.98903 87.080022 234.654137 87.080022 
z
M 234.32817 87.080022 
L 234.32817 87.080022 
z
" style="fill:none;opacity:0;"/>
   </g>
   <g id="patch_61">
    <path clip-path="url(#p83af60412a)" d="M 234.547429 48.463243 
Q 236.185554 48.463243 237.380602 48.036569 
Q 239.112407 47.423865 239.499785 45.887838 
L 237.942679 45.887838 
Q 237.656576 46.746306 236.762823 47.138847 
Q 235.86907 47.531387 234.506918 47.531387 
Q 232.894111 47.531387 231.790212 46.713879 
Q 230.686312 45.898078 230.686312 44.281836 
Q 230.686312 42.885758 231.595257 42.008515 
Q 232.506734 41.131273 234.56262 41.131273 
Q 236.137449 41.131273 237.170456 41.745684 
Q 238.203462 42.361802 238.226249 43.739106 
L 234.587939 43.739106 
L 234.587939 44.618055 
L 239.689676 44.618055 
L 239.689676 40.426407 
L 238.676924 40.426407 
L 238.297142 41.435065 
Q 237.4996 40.842841 236.881821 40.612437 
Q 235.843751 40.21819 234.246135 40.21819 
Q 232.182653 40.21819 230.693908 41.119326 
Q 229.070973 42.250866 229.070973 44.223808 
Q 229.070973 46.19163 230.653398 47.35389 
Q 232.157334 48.463243 234.547429 48.463243 
z
M 234.286645 48.47519 
L 234.286645 48.47519 
z
" style="fill:none;opacity:0;"/>
   </g>
   <g id="patch_62">
    <path clip-path="url(#p83af60412a)" d="M 247.37607 40.735702 
L 245.569569 41.293658 
L 243.649027 40.735702 
L 247.37607 40.735702 
z
M 244.727226 41.481294 
L 246.549278 41.481294 
L 250.867257 40.21819 
L 249.099633 40.21819 
L 247.894435 40.596489 
L 243.187683 40.596489 
L 241.899546 40.21819 
L 240.248555 40.21819 
L 244.727226 41.481294 
z
M 245.561793 41.481294 
L 245.561793 41.481294 
z
" style="fill:none;opacity:0;"/>
   </g>
   <g id="patch_63">
    <path clip-path="url(#p83af60412a)" d="M 245.831718 53.936832 
Q 248.105664 53.936832 249.359985 52.751817 
Q 250.614306 51.569378 250.752516 50.064924 
L 249.172228 50.064924 
Q 248.903631 51.206145 248.100448 51.87336 
Q 247.297266 52.543151 245.847364 52.543151 
Q 244.079319 52.543151 242.991893 51.314342 
Q 241.904467 50.088109 241.904467 47.553208 
Q 241.904467 45.474279 242.884976 44.181068 
Q 243.868093 42.890432 245.816071 42.890432 
Q 247.607586 42.890432 248.546371 44.250623 
Q 249.041841 44.966784 249.286968 46.136342 
L 250.867257 46.136342 
Q 250.65603 44.268656 249.466902 43.003781 
Q 248.040471 41.481294 245.620491 41.481294 
Q 243.534302 41.481294 242.115694 42.730712 
Q 240.248555 44.379429 240.248555 47.826277 
Q 240.248555 50.441038 241.651517 52.115516 
Q 243.166611 53.936832 245.831718 53.936832 
z
M 245.505751 53.936832 
L 245.505751 53.936832 
z
" style="fill:none;opacity:0;"/>
   </g>
   <g id="patch_64">
    <path clip-path="url(#p83af60412a)" d="M 245.72501 73.273067 
Q 247.363136 73.273067 248.558183 72.272434 
Q 250.289988 70.835525 250.677366 67.233246 
L 249.12026 67.233246 
Q 248.834158 69.24652 247.940404 70.167102 
Q 247.046651 71.087685 245.6845 71.087685 
Q 244.071692 71.087685 242.967793 69.170471 
Q 241.863894 67.257261 241.863894 63.466862 
Q 241.863894 60.192791 242.772838 58.135489 
Q 243.684315 56.078187 245.740201 56.078187 
Q 247.31503 56.078187 248.348037 57.519099 
Q 249.381043 58.964013 249.40383 62.194057 
L 245.76552 62.194057 
L 245.76552 64.255361 
L 250.867257 64.255361 
L 250.867257 54.425141 
L 249.854505 54.425141 
L 249.474723 56.790638 
Q 248.677181 55.401759 248.059402 54.861417 
Q 247.021332 53.936832 245.423716 53.936832 
Q 243.360234 53.936832 241.871489 56.050169 
Q 240.248555 58.703848 240.248555 63.330776 
Q 240.248555 67.945696 241.830979 70.671421 
Q 243.334916 73.273067 245.72501 73.273067 
z
M 245.464226 73.301085 
L 245.464226 73.301085 
z
" style="fill:none;opacity:0;"/>
   </g>
   <g id="patch_65">
    <path clip-path="url(#p83af60412a)" d="M 257.009299 41.818222 
Q 259.283245 41.818222 260.537566 41.665995 
Q 261.791887 41.5141 261.930097 41.320839 
L 260.349809 41.320839 
Q 260.081212 41.467439 259.27803 41.553149 
Q 258.474847 41.63919 257.024945 41.63919 
Q 255.2569 41.63919 254.169474 41.481338 
Q 253.082048 41.323817 253.082048 40.998185 
Q 253.082048 40.731127 254.062557 40.565001 
Q 255.045674 40.399207 256.993653 40.399207 
Q 258.785167 40.399207 259.723952 40.573936 
Q 260.219422 40.665934 260.46455 40.816175 
L 262.044838 40.816175 
Q 261.833611 40.576253 260.644483 40.413768 
Q 259.218052 40.21819 256.798072 40.21819 
Q 254.711883 40.21819 253.293275 40.37869 
Q 251.426136 40.590483 251.426136 41.033263 
Q 251.426136 41.369154 252.829098 41.584256 
Q 254.344193 41.818222 257.009299 41.818222 
z
M 256.683332 41.818222 
L 256.683332 41.818222 
z
" style="fill:none;opacity:0;"/>
   </g>
   <g id="patch_66">
    <path clip-path="url(#p83af60412a)" d="M 256.902591 60.392686 
Q 258.540717 60.392686 259.735764 59.431474 
Q 261.467569 58.051174 261.854947 54.59081 
L 260.297841 54.59081 
Q 260.011739 56.524769 259.117985 57.409084 
Q 258.224232 58.293399 256.862081 58.293399 
Q 255.249274 58.293399 254.145374 56.451716 
Q 253.041475 54.613879 253.041475 50.972807 
Q 253.041475 47.82772 253.950419 45.851468 
Q 254.861896 43.875216 256.917782 43.875216 
Q 258.492611 43.875216 259.525618 45.259361 
Q 260.558625 46.647352 260.581411 49.750145 
L 256.943101 49.750145 
L 256.943101 51.730242 
L 262.044838 51.730242 
L 262.044838 42.287293 
L 261.032086 42.287293 
L 260.652304 44.559599 
Q 259.854762 43.225436 259.236984 42.706382 
Q 258.198913 41.818222 256.601297 41.818222 
Q 254.537815 41.818222 253.04907 43.848302 
Q 251.426136 46.397437 251.426136 50.842082 
Q 251.426136 55.275193 253.00856 57.893535 
Q 254.512497 60.392686 256.902591 60.392686 
z
M 256.641807 60.4196 
L 256.641807 60.4196 
z
" style="fill:none;opacity:0;"/>
   </g>
   <g id="patch_67">
    <path clip-path="url(#p83af60412a)" d="M 269.731232 45.924031 
L 267.924731 52.075783 
L 266.00419 45.924031 
L 269.731232 45.924031 
z
M 267.082388 54.144567 
L 268.90444 54.144567 
L 273.222419 40.21819 
L 271.454795 40.21819 
L 270.249597 44.389126 
L 265.542845 44.389126 
L 264.254709 40.21819 
L 262.603717 40.21819 
L 267.082388 54.144567 
z
M 267.916956 54.144567 
L 267.916956 54.144567 
z
" style="fill:none;opacity:0;"/>
   </g>
   <g id="patch_68">
    <path clip-path="url(#p83af60412a)" d="M 268.080172 92.632169 
Q 269.718298 92.632169 270.913345 90.640469 
Q 272.64515 87.780389 273.032528 80.610271 
L 271.475422 80.610271 
Q 271.18932 84.61757 270.295566 86.449934 
Q 269.401813 88.282297 268.039662 88.282297 
Q 266.426855 88.282297 265.322955 84.466201 
Q 264.219056 80.658071 264.219056 73.113514 
Q 264.219056 66.596673 265.128001 62.501739 
Q 266.039477 58.406804 268.095363 58.406804 
Q 269.670192 58.406804 270.703199 61.274852 
Q 271.736206 64.150866 271.758993 70.580072 
L 268.120682 70.580072 
L 268.120682 74.682973 
L 273.222419 74.682973 
L 273.222419 55.116517 
L 272.209667 55.116517 
L 271.829885 59.824895 
Q 271.032343 57.060416 270.414565 55.984898 
Q 269.376494 54.144567 267.778878 54.144567 
Q 265.715397 54.144567 264.226651 58.351037 
Q 262.603717 63.633024 262.603717 72.842643 
Q 262.603717 82.028361 264.186141 87.45375 
Q 265.690078 92.632169 268.080172 92.632169 
z
M 267.819388 92.687937 
L 267.819388 92.687937 
z
" style="fill:none;opacity:0;"/>
   </g>
   <g id="patch_69">
    <path clip-path="url(#p83af60412a)" d="M 280.908813 93.192471 
L 279.102312 110.084253 
L 277.181771 93.192471 
L 280.908813 93.192471 
z
M 278.259969 115.764822 
L 280.082022 115.764822 
L 284.4 77.525094 
L 282.632376 77.525094 
L 281.427178 88.977855 
L 276.720426 88.977855 
L 275.43229 77.525094 
L 273.781298 77.525094 
L 278.259969 115.764822 
z
M 279.094537 115.764822 
L 279.094537 115.764822 
z
" style="fill:none;opacity:0;"/>
   </g>
   <g id="patch_70">
    <path clip-path="url(#p83af60412a)" d="M 279.257753 77.471116 
Q 280.895879 77.471116 282.090926 75.543309 
Q 283.822732 72.77498 284.210109 65.834878 
L 282.653003 65.834878 
Q 282.366901 69.713624 281.473147 71.487205 
Q 280.579394 73.260787 279.217243 73.260787 
Q 277.604436 73.260787 276.500536 69.56711 
Q 275.396637 65.881145 275.396637 58.578616 
Q 275.396637 52.270834 276.305582 48.307265 
Q 277.217058 44.343695 279.272944 44.343695 
Q 280.847773 44.343695 281.88078 47.119736 
Q 282.913787 49.903488 282.936574 56.126446 
L 279.298263 56.126446 
L 279.298263 60.097727 
L 284.4 60.097727 
L 284.4 41.158959 
L 283.387248 41.158959 
L 283.007466 45.716293 
Q 282.209924 43.040498 281.592146 41.999483 
Q 280.554075 40.21819 278.956459 40.21819 
Q 276.892978 40.21819 275.404233 44.289717 
Q 273.781298 49.402258 273.781298 58.316434 
Q 273.781298 67.207476 275.363723 72.45882 
Q 276.867659 77.471116 279.257753 77.471116 
z
M 278.996969 77.525094 
L 278.996969 77.525094 
z
" style="fill:none;opacity:0;"/>
   </g>
   <g id="matplotlib.axis_1">
    <g id="xtick_1">
     <g id="line2d_2">
      <path clip-path="url(#p83af60412a)" d="M 100.249351 141.64 
L 100.249351 21.6 
" style="fill:none;stroke:#cccccc;stroke-linecap:round;stroke-width:0.8;"/>
     </g>
     <g id="text_1">
      <!-- 0 -->
      <g style="fill:#262626;" transform="translate(94.688414 162.986875)scale(0.2 -0.2)">
       <defs>
        <path d="M 1731 4475 
Q 2600 4475 2988 3759 
Q 3288 3206 3288 2244 
Q 3288 1331 3016 734 
Q 2622 -122 1728 -122 
Q 922 -122 528 578 
Q 200 1163 200 2147 
Q 200 2909 397 3456 
Q 766 4475 1731 4475 
z
M 1725 391 
Q 2163 391 2422 778 
Q 2681 1166 2681 2222 
Q 2681 2984 2493 3476 
Q 2306 3969 1766 3969 
Q 1269 3969 1039 3501 
Q 809 3034 809 2125 
Q 809 1441 956 1025 
Q 1181 391 1725 391 
z
" id="Helvetica-30" transform="scale(0.015625)"/>
       </defs>
       <use xlink:href="#Helvetica-30"/>
      </g>
     </g>
    </g>
    <g id="xtick_2">
     <g id="line2d_3">
      <path clip-path="url(#p83af60412a)" d="M 212.025162 141.64 
L 212.025162 21.6 
" style="fill:none;stroke:#cccccc;stroke-linecap:round;stroke-width:0.8;"/>
     </g>
     <g id="text_2">
      <!-- 10 -->
      <g style="fill:#262626;" transform="translate(200.903287 162.986875)scale(0.2 -0.2)">
       <defs>
        <path d="M 613 3169 
L 613 3600 
Q 1222 3659 1462 3798 
Q 1703 3938 1822 4456 
L 2266 4456 
L 2266 0 
L 1666 0 
L 1666 3169 
L 613 3169 
z
" id="Helvetica-31" transform="scale(0.015625)"/>
       </defs>
       <use xlink:href="#Helvetica-31"/>
       <use x="55.615234" xlink:href="#Helvetica-30"/>
      </g>
     </g>
    </g>
    <g id="text_3">
     <!-- Position -->
     <g style="fill:#262626;" transform="translate(145.20125 189.089219)scale(0.25 -0.25)">
      <defs>
       <path d="M 547 4591 
L 2613 4591 
Q 3225 4591 3600 4245 
Q 3975 3900 3975 3275 
Q 3975 2738 3640 2339 
Q 3306 1941 2613 1941 
L 1169 1941 
L 1169 0 
L 547 0 
L 547 4591 
z
M 3347 3272 
Q 3347 3778 2972 3959 
Q 2766 4056 2406 4056 
L 1169 4056 
L 1169 2466 
L 2406 2466 
Q 2825 2466 3086 2644 
Q 3347 2822 3347 3272 
z
" id="Helvetica-50" transform="scale(0.015625)"/>
       <path d="M 1741 363 
Q 2300 363 2508 786 
Q 2716 1209 2716 1728 
Q 2716 2197 2566 2491 
Q 2328 2953 1747 2953 
Q 1231 2953 997 2559 
Q 763 2166 763 1609 
Q 763 1075 997 719 
Q 1231 363 1741 363 
z
M 1763 3444 
Q 2409 3444 2856 3012 
Q 3303 2581 3303 1744 
Q 3303 934 2909 406 
Q 2516 -122 1688 -122 
Q 997 -122 590 345 
Q 184 813 184 1600 
Q 184 2444 612 2944 
Q 1041 3444 1763 3444 
z
M 1744 3428 
L 1744 3428 
z
" id="Helvetica-6f" transform="scale(0.015625)"/>
       <path d="M 747 1050 
Q 772 769 888 619 
Q 1100 347 1625 347 
Q 1938 347 2175 483 
Q 2413 619 2413 903 
Q 2413 1119 2222 1231 
Q 2100 1300 1741 1391 
L 1294 1503 
Q 866 1609 663 1741 
Q 300 1969 300 2372 
Q 300 2847 642 3140 
Q 984 3434 1563 3434 
Q 2319 3434 2653 2991 
Q 2863 2709 2856 2384 
L 2325 2384 
Q 2309 2575 2191 2731 
Q 1997 2953 1519 2953 
Q 1200 2953 1036 2831 
Q 872 2709 872 2509 
Q 872 2291 1088 2159 
Q 1213 2081 1456 2022 
L 1828 1931 
Q 2434 1784 2641 1647 
Q 2969 1431 2969 969 
Q 2969 522 2630 197 
Q 2291 -128 1597 -128 
Q 850 -128 539 211 
Q 228 550 206 1050 
L 747 1050 
z
M 1578 3428 
L 1578 3428 
z
" id="Helvetica-73" transform="scale(0.015625)"/>
       <path d="M 413 3331 
L 984 3331 
L 984 0 
L 413 0 
L 413 3331 
z
M 413 4591 
L 984 4591 
L 984 3953 
L 413 3953 
L 413 4591 
z
" id="Helvetica-69" transform="scale(0.015625)"/>
       <path d="M 525 4281 
L 1094 4281 
L 1094 3347 
L 1628 3347 
L 1628 2888 
L 1094 2888 
L 1094 703 
Q 1094 528 1213 469 
Q 1278 434 1431 434 
Q 1472 434 1519 436 
Q 1566 438 1628 444 
L 1628 0 
Q 1531 -28 1426 -40 
Q 1322 -53 1200 -53 
Q 806 -53 665 148 
Q 525 350 525 672 
L 525 2888 
L 72 2888 
L 72 3347 
L 525 3347 
L 525 4281 
z
" id="Helvetica-74" transform="scale(0.015625)"/>
       <path d="M 413 3347 
L 947 3347 
L 947 2872 
Q 1184 3166 1450 3294 
Q 1716 3422 2041 3422 
Q 2753 3422 3003 2925 
Q 3141 2653 3141 2147 
L 3141 0 
L 2569 0 
L 2569 2109 
Q 2569 2416 2478 2603 
Q 2328 2916 1934 2916 
Q 1734 2916 1606 2875 
Q 1375 2806 1200 2600 
Q 1059 2434 1017 2257 
Q 975 2081 975 1753 
L 975 0 
L 413 0 
L 413 3347 
z
M 1734 3428 
L 1734 3428 
z
" id="Helvetica-6e" transform="scale(0.015625)"/>
      </defs>
      <use xlink:href="#Helvetica-50"/>
      <use x="66.699219" xlink:href="#Helvetica-6f"/>
      <use x="122.314453" xlink:href="#Helvetica-73"/>
      <use x="172.314453" xlink:href="#Helvetica-69"/>
      <use x="194.53125" xlink:href="#Helvetica-74"/>
      <use x="222.314453" xlink:href="#Helvetica-69"/>
      <use x="244.53125" xlink:href="#Helvetica-6f"/>
      <use x="300.146484" xlink:href="#Helvetica-6e"/>
     </g>
    </g>
   </g>
   <g id="matplotlib.axis_2">
    <g id="ytick_1">
     <g id="line2d_4">
      <path clip-path="url(#p83af60412a)" d="M 94.94 40.21819 
L 284.4 40.21819 
" style="fill:none;stroke:#cccccc;stroke-linecap:round;stroke-width:0.8;"/>
     </g>
     <g id="text_4">
      <!-- 0 -->
      <g style="fill:#262626;" transform="translate(76.818125 47.391628)scale(0.2 -0.2)">
       <use xlink:href="#Helvetica-30"/>
      </g>
     </g>
    </g>
    <g id="ytick_2">
     <g id="line2d_5">
      <path clip-path="url(#p83af60412a)" d="M 94.94 37.582165 
L 284.4 37.582165 
" style="fill:none;stroke:#cccccc;stroke-linecap:round;stroke-width:0.8;"/>
     </g>
     <g id="text_5">
      <!-- 0.25 -->
      <g style="fill:#262626;" transform="translate(49.018125 44.755603)scale(0.2 -0.2)">
       <defs>
        <path d="M 547 681 
L 1200 681 
L 1200 0 
L 547 0 
L 547 681 
z
" id="Helvetica-2e" transform="scale(0.015625)"/>
        <path d="M 200 0 
Q 231 578 439 1006 
Q 647 1434 1250 1784 
L 1850 2131 
Q 2253 2366 2416 2531 
Q 2672 2791 2672 3125 
Q 2672 3516 2437 3745 
Q 2203 3975 1813 3975 
Q 1234 3975 1013 3538 
Q 894 3303 881 2888 
L 309 2888 
Q 319 3472 525 3841 
Q 891 4491 1816 4491 
Q 2584 4491 2939 4075 
Q 3294 3659 3294 3150 
Q 3294 2613 2916 2231 
Q 2697 2009 2131 1694 
L 1703 1456 
Q 1397 1288 1222 1134 
Q 909 863 828 531 
L 3272 531 
L 3272 0 
L 200 0 
z
" id="Helvetica-32" transform="scale(0.015625)"/>
        <path d="M 791 1141 
Q 847 659 1238 475 
Q 1438 381 1700 381 
Q 2200 381 2440 700 
Q 2681 1019 2681 1406 
Q 2681 1875 2395 2131 
Q 2109 2388 1709 2388 
Q 1419 2388 1211 2275 
Q 1003 2163 856 1963 
L 369 1991 
L 709 4400 
L 3034 4400 
L 3034 3856 
L 1131 3856 
L 941 2613 
Q 1097 2731 1238 2791 
Q 1488 2894 1816 2894 
Q 2431 2894 2859 2497 
Q 3288 2100 3288 1491 
Q 3288 856 2895 371 
Q 2503 -113 1644 -113 
Q 1097 -113 676 195 
Q 256 503 206 1141 
L 791 1141 
z
" id="Helvetica-35" transform="scale(0.015625)"/>
       </defs>
       <use xlink:href="#Helvetica-30"/>
       <use x="55.615234" xlink:href="#Helvetica-2e"/>
       <use x="83.398438" xlink:href="#Helvetica-32"/>
       <use x="139.013672" xlink:href="#Helvetica-35"/>
      </g>
     </g>
    </g>
    <g id="ytick_3">
     <g id="line2d_6">
      <path clip-path="url(#p83af60412a)" d="M 94.94 34.94614 
L 284.4 34.94614 
" style="fill:none;stroke:#cccccc;stroke-linecap:round;stroke-width:0.8;"/>
     </g>
     <g id="text_6">
      <!-- 0.50 -->
      <g style="fill:#262626;" transform="translate(49.018125 42.119577)scale(0.2 -0.2)">
       <use xlink:href="#Helvetica-30"/>
       <use x="55.615234" xlink:href="#Helvetica-2e"/>
       <use x="83.398438" xlink:href="#Helvetica-35"/>
       <use x="139.013672" xlink:href="#Helvetica-30"/>
      </g>
     </g>
    </g>
    <g id="ytick_4">
     <g id="line2d_7">
      <path clip-path="url(#p83af60412a)" d="M 94.94 32.310115 
L 284.4 32.310115 
" style="fill:none;stroke:#cccccc;stroke-linecap:round;stroke-width:0.8;"/>
     </g>
     <g id="text_7">
      <!-- 0.75 -->
      <g style="fill:#262626;" transform="translate(49.018125 39.483552)scale(0.2 -0.2)">
       <defs>
        <path d="M 3347 4400 
L 3347 3909 
Q 3131 3700 2773 3181 
Q 2416 2663 2141 2063 
Q 1869 1478 1728 997 
Q 1638 688 1494 0 
L 872 0 
Q 1084 1281 1809 2550 
Q 2238 3294 2709 3834 
L 234 3834 
L 234 4400 
L 3347 4400 
z
" id="Helvetica-37" transform="scale(0.015625)"/>
       </defs>
       <use xlink:href="#Helvetica-30"/>
       <use x="55.615234" xlink:href="#Helvetica-2e"/>
       <use x="83.398438" xlink:href="#Helvetica-37"/>
       <use x="139.013672" xlink:href="#Helvetica-35"/>
      </g>
     </g>
    </g>
    <g id="ytick_5">
     <g id="line2d_8">
      <path clip-path="url(#p83af60412a)" d="M 94.94 29.67409 
L 284.4 29.67409 
" style="fill:none;stroke:#cccccc;stroke-linecap:round;stroke-width:0.8;"/>
     </g>
     <g id="text_8">
      <!-- 1.0 -->
      <g style="fill:#262626;" transform="translate(60.14 36.847527)scale(0.2 -0.2)">
       <use xlink:href="#Helvetica-31"/>
       <use x="55.615234" xlink:href="#Helvetica-2e"/>
       <use x="83.398438" xlink:href="#Helvetica-30"/>
      </g>
     </g>
    </g>
    <g id="text_9">
     <!-- Probability -->
     <g style="fill:#262626;" transform="translate(39.65875 139.979375)rotate(-90)scale(0.25 -0.25)">
      <defs>
       <path d="M 428 3347 
L 963 3347 
L 963 2769 
Q 1028 2938 1284 3180 
Q 1541 3422 1875 3422 
Q 1891 3422 1928 3419 
Q 1966 3416 2056 3406 
L 2056 2813 
Q 2006 2822 1964 2825 
Q 1922 2828 1872 2828 
Q 1447 2828 1219 2554 
Q 991 2281 991 1925 
L 991 0 
L 428 0 
L 428 3347 
z
" id="Helvetica-72" transform="scale(0.015625)"/>
       <path d="M 369 4606 
L 916 4606 
L 916 2941 
Q 1100 3181 1356 3307 
Q 1613 3434 1913 3434 
Q 2538 3434 2927 3004 
Q 3316 2575 3316 1738 
Q 3316 944 2931 419 
Q 2547 -106 1866 -106 
Q 1484 -106 1222 78 
Q 1066 188 888 428 
L 888 0 
L 369 0 
L 369 4606 
z
M 1831 391 
Q 2288 391 2514 753 
Q 2741 1116 2741 1709 
Q 2741 2238 2514 2584 
Q 2288 2931 1847 2931 
Q 1463 2931 1173 2647 
Q 884 2363 884 1709 
Q 884 1238 1003 944 
Q 1225 391 1831 391 
z
" id="Helvetica-62" transform="scale(0.015625)"/>
       <path d="M 844 891 
Q 844 647 1022 506 
Q 1200 366 1444 366 
Q 1741 366 2019 503 
Q 2488 731 2488 1250 
L 2488 1703 
Q 2384 1638 2221 1594 
Q 2059 1550 1903 1531 
L 1563 1488 
Q 1256 1447 1103 1359 
Q 844 1213 844 891 
z
M 2206 2028 
Q 2400 2053 2466 2191 
Q 2503 2266 2503 2406 
Q 2503 2694 2298 2823 
Q 2094 2953 1713 2953 
Q 1272 2953 1088 2716 
Q 984 2584 953 2325 
L 428 2325 
Q 444 2944 830 3186 
Q 1216 3428 1725 3428 
Q 2316 3428 2684 3203 
Q 3050 2978 3050 2503 
L 3050 575 
Q 3050 488 3086 434 
Q 3122 381 3238 381 
Q 3275 381 3322 386 
Q 3369 391 3422 400 
L 3422 -16 
Q 3291 -53 3222 -62 
Q 3153 -72 3034 -72 
Q 2744 -72 2613 134 
Q 2544 244 2516 444 
Q 2344 219 2022 53 
Q 1700 -113 1313 -113 
Q 847 -113 551 170 
Q 256 453 256 878 
Q 256 1344 547 1600 
Q 838 1856 1309 1916 
L 2206 2028 
z
M 1741 3428 
L 1741 3428 
z
" id="Helvetica-61" transform="scale(0.015625)"/>
       <path d="M 428 4591 
L 991 4591 
L 991 0 
L 428 0 
L 428 4591 
z
" id="Helvetica-6c" transform="scale(0.015625)"/>
       <path d="M 2503 3347 
L 3125 3347 
Q 3006 3025 2597 1878 
Q 2291 1016 2084 472 
Q 1597 -809 1397 -1090 
Q 1197 -1372 709 -1372 
Q 591 -1372 527 -1362 
Q 463 -1353 369 -1328 
L 369 -816 
Q 516 -856 581 -865 
Q 647 -875 697 -875 
Q 853 -875 926 -823 
Q 1000 -772 1050 -697 
Q 1066 -672 1162 -440 
Q 1259 -209 1303 -97 
L 66 3347 
L 703 3347 
L 1600 622 
L 2503 3347 
z
M 1597 3428 
L 1597 3428 
z
" id="Helvetica-79" transform="scale(0.015625)"/>
      </defs>
      <use xlink:href="#Helvetica-50"/>
      <use x="66.699219" xlink:href="#Helvetica-72"/>
      <use x="100" xlink:href="#Helvetica-6f"/>
      <use x="155.615234" xlink:href="#Helvetica-62"/>
      <use x="211.230469" xlink:href="#Helvetica-61"/>
      <use x="266.845703" xlink:href="#Helvetica-62"/>
      <use x="322.460938" xlink:href="#Helvetica-69"/>
      <use x="344.677734" xlink:href="#Helvetica-6c"/>
      <use x="366.894531" xlink:href="#Helvetica-69"/>
      <use x="389.111328" xlink:href="#Helvetica-74"/>
      <use x="416.894531" xlink:href="#Helvetica-79"/>
     </g>
    </g>
   </g>
   <g id="patch_71">
    <path d="M 94.94 141.64 
L 94.94 21.6 
" style="fill:none;stroke:#000000;stroke-linecap:square;stroke-linejoin:miter;"/>
   </g>
  </g>
 </g>
 <defs>
  <clipPath id="p83af60412a">
   <rect height="120.04" width="189.46" x="94.94" y="21.6"/>
  </clipPath>
 </defs>
</svg>
