<?xml version="1.0" encoding="utf-8" standalone="no"?>
<!DOCTYPE svg PUBLIC "-//W3C//DTD SVG 1.1//EN"
  "http://www.w3.org/Graphics/SVG/1.1/DTD/svg11.dtd">
<svg height="216pt" version="1.1" viewBox="0 0 306 216" width="306pt" xmlns="http://www.w3.org/2000/svg" xmlns:xlink="http://www.w3.org/1999/xlink">
 <metadata>
  <rdf:RDF xmlns:cc="http://creativecommons.org/ns#" xmlns:dc="http://purl.org/dc/elements/1.1/" xmlns:rdf="http://www.w3.org/1999/02/22-rdf-syntax-ns#">
   <cc:Work>
    <dc:type rdf:resource="http://purl.org/dc/dcmitype/StillImage"/>
    <dc:date>2021-12-20T16:11:14.094876</dc:date>
    <dc:format>image/svg+xml</dc:format>
    <dc:creator>
     <cc:Agent>
      <dc:title>Matplotlib v3.4.2, https://matplotlib.org/</dc:title>
     </cc:Agent>
    </dc:creator>
   </cc:Work>
  </rdf:RDF>
 </metadata>
 <defs>
  <style type="text/css">*{stroke-linecap:butt;stroke-linejoin:round;}</style>
 </defs>
 <g id="figure_1">
  <g id="patch_1">
   <path d="M 0 216 
L 306 216 
L 306 0 
L 0 0 
z
" style="fill:#ffffff;"/>
  </g>
  <g id="axes_1">
   <g id="patch_2">
    <path d="M 94.94 141.64 
L 284.4 141.64 
L 284.4 28.8 
L 94.94 28.8 
z
" style="fill:#ffffff;"/>
   </g>
   <g id="line2d_1">
    <path clip-path="url(#p9370a4a777)" d="M 94.94 90.536189 
L 284.4 90.536189 
" style="fill:none;stroke:#000000;stroke-linecap:round;stroke-width:0.5;"/>
   </g>
   <g id="patch_3">
    <path clip-path="url(#p9370a4a777)" d="M 102.067515 76.938915 
L 100.261014 62.279014 
L 98.340473 76.938915 
L 102.067515 76.938915 
z
M 99.418672 57.349009 
L 101.240724 57.349009 
L 105.558702 90.536189 
L 103.791078 90.536189 
L 102.58588 80.596661 
L 97.879128 80.596661 
L 96.590992 90.536189 
L 94.94 90.536189 
L 99.418672 57.349009 
z
M 100.253239 57.349009 
L 100.253239 57.349009 
z
" style="fill:#008000;"/>
   </g>
   <g id="patch_4">
    <path clip-path="url(#p9370a4a777)" d="M 113.245097 77.785329 
L 111.438595 64.037991 
L 109.518054 77.785329 
L 113.245097 77.785329 
z
M 110.596253 59.414872 
L 112.418305 59.414872 
L 116.736283 90.536189 
L 114.968659 90.536189 
L 113.763461 81.215385 
L 109.056709 81.215385 
L 107.768573 90.536189 
L 106.117581 90.536189 
L 110.596253 59.414872 
z
M 111.43082 59.414872 
L 111.43082 59.414872 
z
" style="fill:#008000;"/>
   </g>
   <g id="patch_5">
    <path clip-path="url(#p9370a4a777)" d="M 124.422678 79.246878 
L 122.616176 67.075308 
L 120.695635 79.246878 
L 124.422678 79.246878 
z
M 121.773834 62.982108 
L 123.595886 62.982108 
L 127.913864 90.536189 
L 126.14624 90.536189 
L 124.941042 82.283769 
L 120.23429 82.283769 
L 118.946154 90.536189 
L 117.295162 90.536189 
L 121.773834 62.982108 
z
M 122.608401 62.982108 
L 122.608401 62.982108 
z
" style="fill:#008000;"/>
   </g>
   <g id="patch_6">
    <path clip-path="url(#p9370a4a777)" d="M 135.600259 78.291075 
L 133.793758 65.089005 
L 131.873216 78.291075 
L 135.600259 78.291075 
z
M 132.951415 60.649256 
L 134.773467 60.649256 
L 139.091445 90.536189 
L 137.323822 90.536189 
L 136.118624 81.585082 
L 131.411872 81.585082 
L 130.123735 90.536189 
L 128.472743 90.536189 
L 132.951415 60.649256 
z
M 133.785982 60.649256 
L 133.785982 60.649256 
z
" style="fill:#008000;"/>
   </g>
   <g id="patch_7">
    <path clip-path="url(#p9370a4a777)" d="M 145.233488 81.956606 
Q 147.507434 81.956606 148.761755 82.772864 
Q 150.016076 83.587348 150.154286 84.623641 
L 148.573998 84.623641 
Q 148.305401 83.837549 147.502218 83.37796 
Q 146.699036 82.916596 145.249134 82.916596 
Q 143.481089 82.916596 142.393663 83.763021 
Q 141.306237 84.60767 141.306237 86.353753 
Q 141.306237 87.785754 142.286746 88.67654 
Q 143.269862 89.565552 145.217841 89.565552 
Q 147.009356 89.565552 147.948141 88.628629 
Q 148.443611 88.135325 148.688738 87.329714 
L 150.269027 87.329714 
Q 150.0578 88.616208 148.868672 89.487475 
Q 147.44224 90.536189 145.022261 90.536189 
Q 142.936072 90.536189 141.517464 89.675569 
Q 139.650324 88.539906 139.650324 86.165659 
Q 139.650324 84.364567 141.053287 83.211159 
Q 142.568381 81.956606 145.233488 81.956606 
z
M 144.907521 81.956606 
L 144.907521 81.956606 
z
" style="fill:#0000ff;"/>
   </g>
   <g id="patch_8">
    <path clip-path="url(#p9370a4a777)" d="M 146.77784 71.263481 
L 144.971339 59.73469 
L 143.050797 71.263481 
L 146.77784 71.263481 
z
M 144.128996 55.857651 
L 145.951048 55.857651 
L 150.269027 81.956606 
L 148.501403 81.956606 
L 147.296205 74.139994 
L 142.589453 74.139994 
L 141.301316 81.956606 
L 139.650324 81.956606 
L 144.128996 55.857651 
z
M 144.963563 55.857651 
L 144.963563 55.857651 
z
" style="fill:#008000;"/>
   </g>
   <g id="patch_9">
    <path clip-path="url(#p9370a4a777)" d="M 156.411069 88.70261 
Q 158.685015 88.70261 159.939336 88.877056 
Q 161.193657 89.051123 161.331867 89.272593 
L 159.751579 89.272593 
Q 159.482982 89.104594 158.679799 89.006373 
Q 157.876617 88.907774 156.426715 88.907774 
Q 154.65867 88.907774 153.571244 89.088666 
Q 152.483818 89.26918 152.483818 89.642343 
Q 152.483818 89.948382 153.464327 90.138756 
Q 154.447444 90.32875 156.395423 90.32875 
Q 158.186937 90.32875 159.125722 90.128516 
Q 159.621192 90.02309 159.866319 89.85092 
L 161.446608 89.85092 
Q 161.235381 90.125862 160.046253 90.312064 
Q 158.619822 90.536189 156.199842 90.536189 
Q 154.113653 90.536189 152.695045 90.352262 
Q 150.827906 90.109555 150.827906 89.602145 
Q 150.827906 89.217226 152.230868 88.970726 
Q 153.745962 88.70261 156.411069 88.70261 
z
M 156.085102 88.70261 
L 156.085102 88.70261 
z
" style="fill:#0000ff;"/>
   </g>
   <g id="patch_10">
    <path clip-path="url(#p9370a4a777)" d="M 157.955421 79.730739 
L 156.14892 70.057718 
L 154.228378 79.730739 
L 157.955421 79.730739 
z
M 155.306577 66.804759 
L 157.128629 66.804759 
L 161.446608 88.70261 
L 159.678984 88.70261 
L 158.473786 82.144225 
L 153.767034 82.144225 
L 152.478897 88.70261 
L 150.827906 88.70261 
L 155.306577 66.804759 
z
M 156.141144 66.804759 
L 156.141144 66.804759 
z
" style="fill:#008000;"/>
   </g>
   <g id="patch_11">
    <path clip-path="url(#p9370a4a777)" d="M 167.481942 88.149401 
Q 169.120068 88.149401 170.315115 88.272915 
Q 172.04692 88.450281 172.434298 88.894933 
L 170.877192 88.894933 
Q 170.59109 88.646422 169.697336 88.532789 
Q 168.803583 88.419156 167.441432 88.419156 
Q 165.828625 88.419156 164.724725 88.655809 
Q 163.620826 88.891968 163.620826 89.35984 
Q 163.620826 89.763978 164.52977 90.017924 
Q 165.441247 90.271869 167.497133 90.271869 
Q 169.071962 90.271869 170.104969 90.094008 
Q 171.137976 89.915654 171.160763 89.51695 
L 167.522452 89.51695 
L 167.522452 89.262511 
L 172.624189 89.262511 
L 172.624189 90.475914 
L 171.611437 90.475914 
L 171.231655 90.183927 
Q 170.434113 90.355364 169.816335 90.422062 
Q 168.778264 90.536189 167.180648 90.536189 
Q 165.117166 90.536189 163.628421 90.275327 
Q 162.005487 89.947768 162.005487 89.376638 
Q 162.005487 88.80699 163.587911 88.470538 
Q 165.091848 88.149401 167.481942 88.149401 
z
M 167.221158 88.145942 
L 167.221158 88.145942 
z
" style="fill:#ffa600;"/>
   </g>
   <g id="patch_12">
    <path clip-path="url(#p9370a4a777)" d="M 169.133002 80.703336 
L 167.326501 72.67909 
L 165.40596 80.703336 
L 169.133002 80.703336 
z
M 166.484158 69.980602 
L 168.30621 69.980602 
L 172.624189 88.145942 
L 170.856565 88.145942 
L 169.651367 82.705441 
L 164.944615 82.705441 
L 163.656478 88.145942 
L 162.005487 88.145942 
L 166.484158 69.980602 
z
M 167.318725 69.980602 
L 167.318725 69.980602 
z
" style="fill:#008000;"/>
   </g>
   <g id="patch_13">
    <path clip-path="url(#p9370a4a777)" d="M 178.766231 87.592733 
Q 181.040177 87.592733 182.294498 87.872772 
Q 183.548819 88.152202 183.68703 88.507731 
L 182.106741 88.507731 
Q 181.838145 88.238041 181.034962 88.080366 
Q 180.231779 87.922083 178.781878 87.922083 
Q 177.013832 87.922083 175.926406 88.212472 
Q 174.83898 88.502252 174.83898 89.101292 
Q 174.83898 89.592578 175.819489 89.898187 
Q 176.802606 90.203186 178.750585 90.203186 
Q 180.5421 90.203186 181.480885 89.881749 
Q 181.976355 89.712508 182.221482 89.436122 
L 183.80177 89.436122 
Q 183.590543 89.877488 182.401416 90.1764 
Q 180.974984 90.536189 178.555005 90.536189 
Q 176.468816 90.536189 175.050207 90.24093 
Q 173.183068 89.85131 173.183068 89.036761 
Q 173.183068 88.418849 174.58603 88.023141 
Q 176.101125 87.592733 178.766231 87.592733 
z
M 178.440264 87.592733 
L 178.440264 87.592733 
z
" style="fill:#0000ff;"/>
   </g>
   <g id="patch_14">
    <path clip-path="url(#p9370a4a777)" d="M 180.310583 75.78435 
L 178.504082 63.053143 
L 176.583541 75.78435 
L 180.310583 75.78435 
z
M 177.661739 58.771741 
L 179.483791 58.771741 
L 183.80177 87.592733 
L 182.034146 87.592733 
L 180.828948 78.960874 
L 176.122196 78.960874 
L 174.83406 87.592733 
L 173.183068 87.592733 
L 177.661739 58.771741 
z
M 178.496307 58.771741 
L 178.496307 58.771741 
z
" style="fill:#008000;"/>
   </g>
   <g id="patch_15">
    <path clip-path="url(#p9370a4a777)" d="M 191.488164 79.238309 
L 189.681663 67.0575 
L 187.761122 79.238309 
L 191.488164 79.238309 
z
M 188.83932 62.961193 
L 190.661373 62.961193 
L 194.979351 90.536189 
L 193.211727 90.536189 
L 192.006529 82.277505 
L 187.299777 82.277505 
L 186.011641 90.536189 
L 184.360649 90.536189 
L 188.83932 62.961193 
z
M 189.673888 62.961193 
L 189.673888 62.961193 
z
" style="fill:#008000;"/>
   </g>
   <g id="patch_16">
    <path clip-path="url(#p9370a4a777)" d="M 202.665746 79.582656 
L 200.859244 67.773104 
L 198.938703 79.582656 
L 202.665746 79.582656 
z
M 200.016902 63.801647 
L 201.838954 63.801647 
L 206.156932 90.536189 
L 204.389308 90.536189 
L 203.18411 82.52922 
L 198.477358 82.52922 
L 197.189222 90.536189 
L 195.53823 90.536189 
L 200.016902 63.801647 
z
M 200.851469 63.801647 
L 200.851469 63.801647 
z
" style="fill:#008000;"/>
   </g>
   <g id="patch_17">
    <path clip-path="url(#p9370a4a777)" d="M 212.298975 86.496516 
Q 214.572921 86.496516 215.827242 86.880849 
Q 217.081563 87.264346 217.219773 87.752282 
L 215.639485 87.752282 
Q 215.370888 87.382153 214.567705 87.165756 
Q 213.764522 86.948525 212.314621 86.948525 
Q 210.546576 86.948525 209.45915 87.347061 
Q 208.371724 87.744762 208.371724 88.566901 
Q 208.371724 89.241154 209.352233 89.660578 
Q 210.335349 90.079167 212.283328 90.079167 
Q 214.074843 90.079167 215.013628 89.63802 
Q 215.509098 89.405749 215.754225 89.026429 
L 217.334513 89.026429 
Q 217.123287 89.632171 215.934159 90.042405 
Q 214.507727 90.536189 212.087748 90.536189 
Q 210.001559 90.536189 208.58295 90.130969 
Q 206.715811 89.596244 206.715811 88.478337 
Q 206.715811 87.630298 208.118773 87.087219 
Q 209.633868 86.496516 212.298975 86.496516 
z
M 211.973008 86.496516 
L 211.973008 86.496516 
z
" style="fill:#0000ff;"/>
   </g>
   <g id="patch_18">
    <path clip-path="url(#p9370a4a777)" d="M 213.843327 78.374621 
L 212.036825 69.618 
L 210.116284 78.374621 
L 213.843327 78.374621 
z
M 211.194483 66.673219 
L 213.016535 66.673219 
L 217.334513 86.496516 
L 215.566889 86.496516 
L 214.361691 80.559458 
L 209.654939 80.559458 
L 208.366803 86.496516 
L 206.715811 86.496516 
L 211.194483 66.673219 
z
M 212.02905 66.673219 
L 212.02905 66.673219 
z
" style="fill:#008000;"/>
   </g>
   <g id="patch_19">
    <path clip-path="url(#p9370a4a777)" d="M 223.476556 86.741991 
Q 225.750502 86.741991 227.004823 87.102969 
Q 228.259144 87.463163 228.397354 87.921449 
L 226.817066 87.921449 
Q 226.548469 87.573811 225.745286 87.370564 
Q 224.942103 87.166533 223.492202 87.166533 
Q 221.724157 87.166533 220.636731 87.540852 
Q 219.549305 87.914386 219.549305 88.686567 
Q 219.549305 89.319848 220.529814 89.713786 
Q 221.51293 90.106939 223.460909 90.106939 
Q 225.252424 90.106939 226.191209 89.692598 
Q 226.686679 89.474441 226.931806 89.118171 
L 228.512094 89.118171 
Q 228.300868 89.687105 227.11174 90.07241 
Q 225.685308 90.536189 223.265329 90.536189 
Q 221.17914 90.536189 219.760531 90.155592 
Q 217.893392 89.653361 217.893392 88.603385 
Q 217.893392 87.806878 219.296354 87.296799 
Q 220.811449 86.741991 223.476556 86.741991 
z
M 223.150589 86.741991 
L 223.150589 86.741991 
z
" style="fill:#0000ff;"/>
   </g>
   <g id="patch_20">
    <path clip-path="url(#p9370a4a777)" d="M 225.020908 78.5081 
L 223.214407 69.630731 
L 221.293865 78.5081 
L 225.020908 78.5081 
z
M 222.372064 66.645344 
L 224.194116 66.645344 
L 228.512094 86.741991 
L 226.744471 86.741991 
L 225.539273 80.723065 
L 220.832521 80.723065 
L 219.544384 86.741991 
L 217.893392 86.741991 
L 222.372064 66.645344 
z
M 223.206631 66.645344 
L 223.206631 66.645344 
z
" style="fill:#008000;"/>
   </g>
   <g id="patch_21">
    <path clip-path="url(#p9370a4a777)" d="M 234.654137 89.487836 
Q 236.928083 89.487836 238.182404 89.587576 
Q 239.436725 89.687099 239.574935 89.813725 
L 237.994647 89.813725 
Q 237.72605 89.717671 236.922867 89.661513 
Q 236.119685 89.605139 234.669783 89.605139 
Q 232.901738 89.605139 231.814312 89.708565 
Q 230.726886 89.811774 230.726886 90.025131 
Q 230.726886 90.200109 231.707395 90.308956 
Q 232.690511 90.417585 234.63849 90.417585 
Q 236.430005 90.417585 237.36879 90.303101 
Q 237.86426 90.242824 238.109387 90.144385 
L 239.689676 90.144385 
Q 239.478449 90.301584 238.289321 90.408045 
Q 236.862889 90.536189 234.44291 90.536189 
Q 232.356721 90.536189 230.938113 90.431029 
Q 229.070973 90.29226 229.070973 90.002147 
Q 229.070973 89.782069 230.473936 89.641132 
Q 231.98903 89.487836 234.654137 89.487836 
z
M 234.32817 89.487836 
L 234.32817 89.487836 
z
" style="fill:#0000ff;"/>
   </g>
   <g id="patch_22">
    <path clip-path="url(#p9370a4a777)" d="M 236.198489 80.625716 
L 234.391988 71.071021 
L 232.471446 80.625716 
L 236.198489 80.625716 
z
M 233.549645 67.857855 
L 235.371697 67.857855 
L 239.689676 89.487836 
L 237.922052 89.487836 
L 236.716854 83.009678 
L 232.010102 83.009678 
L 230.721965 89.487836 
L 229.070973 89.487836 
L 233.549645 67.857855 
z
M 234.384212 67.857855 
L 234.384212 67.857855 
z
" style="fill:#008000;"/>
   </g>
   <g id="patch_23">
    <path clip-path="url(#p9370a4a777)" d="M 245.831718 89.741707 
Q 248.105664 89.741707 249.359985 89.817294 
Q 250.614306 89.892716 250.752516 89.988679 
L 249.172228 89.988679 
Q 248.903631 89.915885 248.100448 89.873327 
Q 247.297266 89.830604 245.847364 89.830604 
Q 244.079319 89.830604 242.991893 89.908984 
Q 241.904467 89.9872 241.904467 90.14889 
Q 241.904467 90.281495 242.884976 90.363983 
Q 243.868093 90.446307 245.816071 90.446307 
Q 247.607586 90.446307 248.546371 90.359546 
Q 249.041841 90.313866 249.286968 90.239265 
L 250.867257 90.239265 
Q 250.65603 90.358396 249.466902 90.439077 
Q 248.040471 90.536189 245.620491 90.536189 
Q 243.534302 90.536189 242.115694 90.456494 
Q 240.248555 90.35133 240.248555 90.131472 
Q 240.248555 89.964688 241.651517 89.857881 
Q 243.166611 89.741707 245.831718 89.741707 
z
M 245.505751 89.741707 
L 245.505751 89.741707 
z
" style="fill:#0000ff;"/>
   </g>
   <g id="patch_24">
    <path clip-path="url(#p9370a4a777)" d="M 247.37607 80.952937 
L 245.569569 71.477326 
L 243.649027 80.952937 
L 247.37607 80.952937 
z
M 244.727226 68.290754 
L 246.549278 68.290754 
L 250.867257 89.741707 
L 249.099633 89.741707 
L 247.894435 83.317168 
L 243.187683 83.317168 
L 241.899546 89.741707 
L 240.248555 89.741707 
L 244.727226 68.290754 
z
M 245.561793 68.290754 
L 245.561793 68.290754 
z
" style="fill:#008000;"/>
   </g>
   <g id="patch_25">
    <path clip-path="url(#p9370a4a777)" d="M 257.009299 83.866461 
Q 259.283245 83.866461 260.537566 84.501017 
Q 261.791887 85.134192 261.930097 85.939802 
L 260.349809 85.939802 
Q 260.081212 85.328697 259.27803 84.971415 
Q 258.474847 84.612754 257.024945 84.612754 
Q 255.2569 84.612754 254.169474 85.27076 
Q 253.082048 85.927387 253.082048 87.284783 
Q 253.082048 88.398014 254.062557 89.090507 
Q 255.045674 89.78162 256.993653 89.78162 
Q 258.785167 89.78162 259.723952 89.053261 
Q 260.219422 88.669769 260.46455 88.04349 
L 262.044838 88.04349 
Q 261.833611 89.043605 260.644483 89.720924 
Q 259.218052 90.536189 256.798072 90.536189 
Q 254.711883 90.536189 253.293275 89.867147 
Q 251.426136 88.984288 251.426136 87.138559 
Q 251.426136 85.738399 252.829098 84.841745 
Q 254.344193 83.866461 257.009299 83.866461 
z
M 256.683332 83.866461 
L 256.683332 83.866461 
z
" style="fill:#0000ff;"/>
   </g>
   <g id="patch_26">
    <path clip-path="url(#p9370a4a777)" d="M 258.553651 75.885046 
L 256.74715 67.279883 
L 254.826609 75.885046 
L 258.553651 75.885046 
z
M 255.904807 64.386036 
L 257.726859 64.386036 
L 262.044838 83.866461 
L 260.277214 83.866461 
L 259.072016 78.032093 
L 254.365264 78.032093 
L 253.077127 83.866461 
L 251.426136 83.866461 
L 255.904807 64.386036 
z
M 256.739374 64.386036 
L 256.739374 64.386036 
z
" style="fill:#008000;"/>
   </g>
   <g id="patch_27">
    <path clip-path="url(#p9370a4a777)" d="M 268.18688 77.61227 
Q 270.460826 77.61227 271.715147 78.841846 
Q 272.969468 80.06875 273.107678 81.629778 
L 271.52739 81.629778 
Q 271.258793 80.445642 270.455611 79.753337 
Q 269.652428 79.058359 268.202527 79.058359 
Q 266.434481 79.058359 265.347055 80.333376 
Q 264.259629 81.605721 264.259629 84.235945 
Q 264.259629 86.393051 265.240138 87.734893 
Q 266.223255 89.074062 268.171234 89.074062 
Q 269.962749 89.074062 270.901534 87.662722 
Q 271.397003 86.91963 271.642131 85.706091 
L 273.222419 85.706091 
Q 273.011192 87.644011 271.822065 88.95645 
Q 270.395633 90.536189 267.975654 90.536189 
Q 265.889465 90.536189 264.470856 89.239788 
Q 262.603717 87.529072 262.603717 83.952608 
Q 262.603717 81.239521 264.006679 79.502075 
Q 265.521774 77.61227 268.18688 77.61227 
z
M 267.860913 77.61227 
L 267.860913 77.61227 
z
" style="fill:#0000ff;"/>
   </g>
   <g id="patch_28">
    <path clip-path="url(#p9370a4a777)" d="M 269.731232 67.357333 
L 267.924731 56.300974 
L 266.00419 67.357333 
L 269.731232 67.357333 
z
M 267.082388 52.58281 
L 268.90444 52.58281 
L 273.222419 77.61227 
L 271.454795 77.61227 
L 270.249597 70.115971 
L 265.542845 70.115971 
L 264.254709 77.61227 
L 262.603717 77.61227 
L 267.082388 52.58281 
z
M 267.916956 52.58281 
L 267.916956 52.58281 
z
" style="fill:#008000;"/>
   </g>
   <g id="patch_29">
    <path clip-path="url(#p9370a4a777)" d="M 280.908813 87.329857 
L 279.102312 83.87295 
L 277.181771 87.329857 
L 280.908813 87.329857 
z
M 278.259969 82.71042 
L 280.082022 82.71042 
L 284.4 90.536189 
L 282.632376 90.536189 
L 281.427178 88.192379 
L 276.720426 88.192379 
L 275.43229 90.536189 
L 273.781298 90.536189 
L 278.259969 82.71042 
z
M 279.094537 82.71042 
L 279.094537 82.71042 
z
" style="fill:#008000;"/>
   </g>
   <g id="patch_30">
    <path clip-path="url(#p9370a4a777)" d="M 279.364461 61.618606 
Q 281.638407 61.618606 282.892728 63.625273 
Q 284.14705 65.627578 284.28526 68.175172 
L 282.704971 68.175172 
Q 282.436375 66.242665 281.633192 65.112824 
Q 280.830009 63.978621 279.380108 63.978621 
Q 277.612063 63.978621 276.524636 66.059447 
Q 275.43721 68.135911 275.43721 72.428433 
Q 275.43721 75.948825 276.417719 78.138709 
Q 277.400836 80.324231 279.348815 80.324231 
Q 281.14033 80.324231 282.079115 78.020927 
Q 282.574585 76.808202 282.819712 74.827709 
L 284.4 74.827709 
Q 284.188773 77.99039 282.999646 80.132289 
Q 281.573214 82.71042 279.153235 82.71042 
Q 277.067046 82.71042 275.648437 80.594695 
Q 273.781298 77.802811 273.781298 71.966028 
Q 273.781298 67.538274 275.18426 64.702766 
Q 276.699355 61.618606 279.364461 61.618606 
z
M 279.038494 61.618606 
L 279.038494 61.618606 
z
" style="fill:#0000ff;"/>
   </g>
   <g id="patch_31">
    <path clip-path="url(#p9370a4a777)" d="M 100.523163 134.464818 
Q 102.797109 134.464818 104.051431 132.577343 
Q 105.305752 130.693973 105.443962 128.297701 
L 103.863673 128.297701 
Q 103.595077 130.115421 102.791894 131.178151 
Q 101.988711 132.244984 100.53881 132.244984 
Q 98.770765 132.244984 97.683339 130.287755 
Q 96.595913 128.33463 96.595913 124.297077 
Q 96.595913 120.98579 97.576421 118.925982 
Q 98.559538 116.870276 100.507517 116.870276 
Q 102.299032 116.870276 103.237817 119.036768 
Q 103.733287 120.177459 103.978414 122.040314 
L 105.558702 122.040314 
Q 105.347475 119.065491 104.158348 117.050817 
Q 102.731916 114.625823 100.311937 114.625823 
Q 98.225748 114.625823 96.807139 116.615878 
Q 94.94 119.241929 94.94 124.732016 
Q 94.94 128.896769 96.342962 131.563852 
Q 97.858057 134.464818 100.523163 134.464818 
z
M 100.197196 134.464818 
L 100.197196 134.464818 
z
" style="fill:none;opacity:0;"/>
   </g>
   <g id="patch_32">
    <path clip-path="url(#p9370a4a777)" d="M 100.416455 114.603747 
Q 102.054581 114.603747 103.249628 113.8153 
Q 104.981434 112.683091 105.368811 109.844684 
L 103.811705 109.844684 
Q 103.525603 111.431038 102.63185 112.156409 
Q 101.738096 112.88178 100.375945 112.88178 
Q 98.763138 112.88178 97.659238 111.371116 
Q 96.555339 109.863606 96.555339 106.876971 
Q 96.555339 104.297174 97.464284 102.676128 
Q 98.37576 101.055082 100.431646 101.055082 
Q 102.006475 101.055082 103.039482 102.190445 
Q 104.072489 103.328962 104.095276 105.874067 
L 100.456965 105.874067 
L 100.456965 107.498267 
L 105.558702 107.498267 
L 105.558702 99.752568 
L 104.54595 99.752568 
L 104.166168 101.616456 
Q 103.368626 100.522092 102.750848 100.096331 
Q 101.712777 99.367806 100.115161 99.367806 
Q 98.05168 99.367806 96.562935 101.033005 
Q 94.94 103.123966 94.94 106.769742 
Q 94.94 110.406058 96.522425 112.553786 
Q 98.026361 114.603747 100.416455 114.603747 
z
M 100.155671 114.625823 
L 100.155671 114.625823 
z
" style="fill:none;opacity:0;"/>
   </g>
   <g id="patch_33">
    <path clip-path="url(#p9370a4a777)" d="M 105.558702 99.367806 
L 105.558702 98.315553 
L 101.148734 98.315553 
L 101.148734 90.536189 
L 99.349968 90.536189 
L 99.349968 98.315553 
L 94.94 98.315553 
L 94.94 99.367806 
L 105.558702 99.367806 
z
" style="fill:none;opacity:0;"/>
   </g>
   <g id="patch_34">
    <path clip-path="url(#p9370a4a777)" d="M 111.700744 92.699854 
Q 113.97469 92.699854 115.229012 92.494004 
Q 116.483333 92.288601 116.621543 92.027261 
L 115.041255 92.027261 
Q 114.772658 92.225504 113.969475 92.341406 
Q 113.166292 92.457756 111.716391 92.457756 
Q 109.948346 92.457756 108.86092 92.244299 
Q 107.773494 92.031288 107.773494 91.590948 
Q 107.773494 91.229815 108.754002 91.00517 
Q 109.737119 90.780972 111.685098 90.780972 
Q 113.476613 90.780972 114.415398 91.017252 
Q 114.910868 91.141657 115.155995 91.344823 
L 116.736283 91.344823 
Q 116.525057 91.020385 115.335929 90.800662 
Q 113.909497 90.536189 111.489518 90.536189 
Q 109.403329 90.536189 107.98472 90.753227 
Q 106.117581 91.039627 106.117581 91.638383 
Q 106.117581 92.092596 107.520543 92.383471 
Q 109.035638 92.699854 111.700744 92.699854 
z
M 111.374777 92.699854 
L 111.374777 92.699854 
z
" style="fill:none;opacity:0;"/>
   </g>
   <g id="patch_35">
    <path clip-path="url(#p9370a4a777)" d="M 111.594036 131.911514 
Q 113.232162 131.911514 114.427209 130.717673 
Q 116.159015 129.003319 116.546392 124.705494 
L 114.989286 124.705494 
Q 114.703184 127.1075 113.809431 128.205833 
Q 112.915677 129.304167 111.553526 129.304167 
Q 109.940719 129.304167 108.83682 127.016769 
Q 107.73292 124.734146 107.73292 120.211879 
Q 107.73292 116.305634 108.641865 113.851098 
Q 109.553341 111.396562 111.609227 111.396562 
Q 113.184056 111.396562 114.217063 113.115692 
Q 115.25007 114.839598 115.272857 118.693314 
L 111.634546 118.693314 
L 111.634546 121.152625 
L 116.736283 121.152625 
L 116.736283 109.424338 
L 115.723531 109.424338 
L 115.34375 112.246577 
Q 114.546208 110.589526 113.928429 109.944853 
Q 112.890358 108.841744 111.292743 108.841744 
Q 109.229261 108.841744 107.740516 111.363135 
Q 106.117581 114.529199 106.117581 120.049517 
Q 106.117581 125.555508 107.700006 128.807529 
Q 109.203942 131.911514 111.594036 131.911514 
z
M 111.333253 131.944941 
L 111.333253 131.944941 
z
" style="fill:none;opacity:0;"/>
   </g>
   <g id="patch_36">
    <path clip-path="url(#p9370a4a777)" d="M 116.736283 108.841744 
L 116.736283 106.9185 
L 112.326315 106.9185 
L 112.326315 92.699854 
L 110.527549 92.699854 
L 110.527549 106.9185 
L 106.117581 106.9185 
L 106.117581 108.841744 
L 116.736283 108.841744 
z
" style="fill:none;opacity:0;"/>
   </g>
   <g id="patch_37">
    <path clip-path="url(#p9370a4a777)" d="M 122.878326 94.469445 
Q 125.152272 94.469445 126.406593 94.095237 
Q 127.660914 93.721842 127.799124 93.24676 
L 126.218836 93.24676 
Q 125.950239 93.607139 125.147056 93.817835 
Q 124.343873 94.029344 122.893972 94.029344 
Q 121.125927 94.029344 120.038501 93.641306 
Q 118.951075 93.254081 118.951075 92.453601 
Q 118.951075 91.797109 119.931584 91.388734 
Q 120.9147 90.981172 122.862679 90.981172 
Q 124.654194 90.981172 125.592979 91.410698 
Q 126.088449 91.63685 126.333576 92.006178 
L 127.913864 92.006178 
Q 127.702638 91.416392 126.51351 91.016966 
Q 125.087078 90.536189 122.667099 90.536189 
Q 120.58091 90.536189 119.162301 90.930735 
Q 117.295162 91.451373 117.295162 92.539831 
Q 117.295162 93.36553 118.698124 93.894303 
Q 120.213219 94.469445 122.878326 94.469445 
z
M 122.552359 94.469445 
L 122.552359 94.469445 
z
" style="fill:none;opacity:0;"/>
   </g>
   <g id="patch_38">
    <path clip-path="url(#p9370a4a777)" d="M 122.771617 125.740275 
Q 124.409743 125.740275 125.60479 124.659568 
Q 127.336596 123.107675 127.723973 119.217133 
L 126.166868 119.217133 
Q 125.880765 121.391513 124.987012 122.385763 
Q 124.093258 123.380012 122.731107 123.380012 
Q 121.1183 123.380012 120.014401 121.30938 
Q 118.910501 119.24307 118.910501 115.149355 
Q 118.910501 111.613285 119.819446 109.391353 
Q 120.730923 107.169421 122.786809 107.169421 
Q 124.361638 107.169421 125.394644 108.725638 
Q 126.427651 110.286177 126.450438 113.774697 
L 122.812127 113.774697 
L 122.812127 116.000951 
L 127.913864 116.000951 
L 127.913864 105.384095 
L 126.901113 105.384095 
L 126.521331 107.938884 
Q 125.723789 106.438864 125.10601 105.855283 
Q 124.06794 104.85671 122.470324 104.85671 
Q 120.406842 104.85671 118.918097 107.139161 
Q 117.295162 110.005194 117.295162 115.002379 
Q 117.295162 119.986595 118.877587 122.930439 
Q 120.381523 125.740275 122.771617 125.740275 
z
M 122.510834 125.770534 
L 122.510834 125.770534 
z
" style="fill:none;opacity:0;"/>
   </g>
   <g id="patch_39">
    <path clip-path="url(#p9370a4a777)" d="M 127.913864 104.85671 
L 127.913864 103.619107 
L 123.503896 103.619107 
L 123.503896 94.469445 
L 121.705131 94.469445 
L 121.705131 103.619107 
L 117.295162 103.619107 
L 117.295162 104.85671 
L 127.913864 104.85671 
z
" style="fill:none;opacity:0;"/>
   </g>
   <g id="patch_40">
    <path clip-path="url(#p9370a4a777)" d="M 134.055907 97.283739 
Q 136.329853 97.283739 137.584174 96.64178 
Q 138.838495 96.001216 138.976705 95.186207 
L 137.396417 95.186207 
Q 137.12782 95.804442 136.324637 96.165892 
Q 135.521454 96.528739 134.071553 96.528739 
Q 132.303508 96.528739 131.216082 95.863055 
Q 130.128656 95.198767 130.128656 93.825532 
Q 130.128656 92.699313 131.109165 91.99874 
Q 132.092281 91.299562 134.04026 91.299562 
Q 135.831775 91.299562 136.77056 92.03642 
Q 137.26603 92.424387 137.511157 93.057972 
L 139.091445 93.057972 
Q 138.880219 92.046189 137.691091 91.360967 
Q 136.264659 90.536189 133.84468 90.536189 
Q 131.758491 90.536189 130.339883 91.213037 
Q 128.472743 92.106198 128.472743 93.973462 
Q 128.472743 95.389959 129.875705 96.297075 
Q 131.3908 97.283739 134.055907 97.283739 
z
M 133.72994 97.283739 
L 133.72994 97.283739 
z
" style="fill:none;opacity:0;"/>
   </g>
   <g id="patch_41">
    <path clip-path="url(#p9370a4a777)" d="M 133.949198 128.931516 
Q 135.587324 128.931516 136.782371 128.095631 
Q 138.514177 126.895299 138.901554 123.88611 
L 137.344449 123.88611 
Q 137.058346 125.567912 136.164593 126.336927 
Q 135.270839 127.105942 133.908688 127.105942 
Q 132.295881 127.105942 131.191982 125.504385 
Q 130.088082 123.906171 130.088082 120.739836 
Q 130.088082 118.004818 130.997027 116.286237 
Q 131.908504 114.567656 133.96439 114.567656 
Q 135.539219 114.567656 136.572225 115.771331 
Q 137.605232 116.97835 137.628019 119.676589 
L 133.989709 119.676589 
L 133.989709 121.398514 
L 139.091445 121.398514 
L 139.091445 113.186772 
L 138.078694 113.186772 
L 137.698912 115.162806 
Q 136.90137 114.002597 136.283591 113.551219 
Q 135.245521 112.77886 133.647905 112.77886 
Q 131.584423 112.77886 130.095678 114.544251 
Q 128.472743 116.76102 128.472743 120.626156 
Q 128.472743 124.481261 130.055168 126.758213 
Q 131.559104 128.931516 133.949198 128.931516 
z
M 133.688415 128.954921 
L 133.688415 128.954921 
z
" style="fill:none;opacity:0;"/>
   </g>
   <g id="patch_42">
    <path clip-path="url(#p9370a4a777)" d="M 139.091445 112.77886 
L 139.091445 110.932676 
L 134.681477 110.932676 
L 134.681477 97.283739 
L 132.882712 97.283739 
L 132.882712 110.932676 
L 128.472743 110.932676 
L 128.472743 112.77886 
L 139.091445 112.77886 
z
" style="fill:none;opacity:0;"/>
   </g>
   <g id="patch_43">
    <path clip-path="url(#p9370a4a777)" d="M 145.12678 111.961287 
Q 146.764906 111.961287 147.959953 110.852557 
Q 149.691758 109.260421 150.079136 105.268993 
L 148.52203 105.268993 
Q 148.235927 107.499758 147.342174 108.51979 
Q 146.448421 109.539821 145.086269 109.539821 
Q 143.473462 109.539821 142.369563 107.415494 
Q 141.265664 105.295603 141.265664 101.095734 
Q 141.265664 97.467969 142.174608 95.18842 
Q 143.086085 92.908871 145.141971 92.908871 
Q 146.7168 92.908871 147.749807 94.505443 
Q 148.782813 96.106449 148.8056 99.685429 
L 145.16729 99.685429 
L 145.16729 101.969413 
L 150.269027 101.969413 
L 150.269027 91.077249 
L 149.256275 91.077249 
L 148.876493 93.698287 
Q 148.078951 92.15937 147.461172 91.560656 
Q 146.423102 90.536189 144.825486 90.536189 
Q 142.762004 90.536189 141.273259 92.877827 
Q 139.650324 95.818179 139.650324 100.944946 
Q 139.650324 106.058409 141.232749 109.078589 
Q 142.736685 111.961287 145.12678 111.961287 
z
M 144.865996 111.992332 
L 144.865996 111.992332 
z
" style="fill:none;opacity:0;"/>
   </g>
   <g id="patch_44">
    <path clip-path="url(#p9370a4a777)" d="M 150.269027 134.984772 
L 150.269027 132.245312 
L 145.859058 132.245312 
L 145.859058 111.992332 
L 144.060293 111.992332 
L 144.060293 132.245312 
L 139.650324 132.245312 
L 139.650324 134.984772 
L 150.269027 134.984772 
z
" style="fill:none;opacity:0;"/>
   </g>
   <g id="patch_45">
    <path clip-path="url(#p9370a4a777)" d="M 156.304361 119.994627 
Q 157.942487 119.994627 159.137534 118.857702 
Q 160.869339 117.225077 161.256717 113.132144 
L 159.699611 113.132144 
Q 159.413509 115.419639 158.519755 116.46561 
Q 157.626002 117.511582 156.263851 117.511582 
Q 154.651043 117.511582 153.547144 115.333232 
Q 152.443245 113.159431 152.443245 108.852757 
Q 152.443245 105.132736 153.352189 102.795217 
Q 154.263666 100.457698 156.319552 100.457698 
Q 157.894381 100.457698 158.927388 102.094871 
Q 159.960394 103.736592 159.983181 107.406587 
L 156.344871 107.406587 
L 156.344871 109.748654 
L 161.446608 109.748654 
L 161.446608 98.579497 
L 160.433856 98.579497 
L 160.054074 101.267189 
Q 159.256532 99.689137 158.638753 99.075197 
Q 157.600683 98.024678 156.003067 98.024678 
Q 153.939585 98.024678 152.45084 100.425864 
Q 150.827906 103.440991 150.827906 108.698135 
Q 150.827906 113.941635 152.41033 117.038621 
Q 153.914267 119.994627 156.304361 119.994627 
z
M 156.043577 120.026461 
L 156.043577 120.026461 
z
" style="fill:none;opacity:0;"/>
   </g>
   <g id="patch_46">
    <path clip-path="url(#p9370a4a777)" d="M 161.446608 98.024678 
L 161.446608 97.132453 
L 157.036639 97.132453 
L 157.036639 90.536189 
L 155.237874 90.536189 
L 155.237874 97.132453 
L 150.827906 97.132453 
L 150.827906 98.024678 
L 161.446608 98.024678 
z
" style="fill:none;opacity:0;"/>
   </g>
   <g id="patch_47">
    <path clip-path="url(#p9370a4a777)" d="M 167.58865 91.885925 
Q 169.862596 91.885925 171.116917 91.757512 
Q 172.371238 91.629377 172.509448 91.466348 
L 170.92916 91.466348 
Q 170.660563 91.590016 169.857381 91.662318 
Q 169.054198 91.7349 167.604296 91.7349 
Q 165.836251 91.7349 164.748825 91.601741 
Q 163.661399 91.468861 163.661399 91.194168 
Q 163.661399 90.968886 164.641908 90.828748 
Q 165.625025 90.688889 167.573004 90.688889 
Q 169.364518 90.688889 170.303304 90.836286 
Q 170.798773 90.913892 171.043901 91.04063 
L 172.624189 91.04063 
Q 172.412962 90.83824 171.223834 90.701172 
Q 169.797403 90.536189 167.377423 90.536189 
Q 165.291234 90.536189 163.872626 90.671581 
Q 162.005487 90.850243 162.005487 91.223759 
Q 162.005487 91.507106 163.408449 91.688559 
Q 164.923544 91.885925 167.58865 91.885925 
z
M 167.262683 91.885925 
L 167.262683 91.885925 
z
" style="fill:none;opacity:0;"/>
   </g>
   <g id="patch_48">
    <path clip-path="url(#p9370a4a777)" d="M 172.624189 116.141741 
L 172.624189 113.251754 
L 168.21422 113.251754 
L 168.21422 91.885925 
L 166.415455 91.885925 
L 166.415455 113.251754 
L 162.005487 113.251754 
L 162.005487 116.141741 
L 172.624189 116.141741 
z
" style="fill:none;opacity:0;"/>
   </g>
   <g id="patch_49">
    <path clip-path="url(#p9370a4a777)" d="M 178.659523 104.497738 
Q 180.297649 104.497738 181.492696 103.77524 
Q 183.224501 102.737733 183.611879 100.136741 
L 182.054773 100.136741 
Q 181.768671 101.590406 180.874917 102.255104 
Q 179.981164 102.919802 178.619013 102.919802 
Q 177.006206 102.919802 175.902306 101.535496 
Q 174.798407 100.154081 174.798407 97.417259 
Q 174.798407 95.053246 175.707352 93.56779 
Q 176.618828 92.082335 178.674714 92.082335 
Q 180.249543 92.082335 181.28255 93.122731 
Q 182.315557 94.166018 182.338344 96.498241 
L 178.700033 96.498241 
L 178.700033 97.986587 
L 183.80177 97.986587 
L 183.80177 90.888768 
L 182.789018 90.888768 
L 182.409236 92.596753 
Q 181.611694 91.593926 180.993916 91.203777 
Q 179.955845 90.536189 178.358229 90.536189 
Q 176.294748 90.536189 174.806003 92.062105 
Q 173.183068 93.978169 173.183068 97.318999 
Q 173.183068 100.651159 174.765492 102.619243 
Q 176.269429 104.497738 178.659523 104.497738 
z
M 178.398739 104.517968 
L 178.398739 104.517968 
z
" style="fill:none;opacity:0;"/>
   </g>
   <g id="patch_50">
    <path clip-path="url(#p9370a4a777)" d="M 183.80177 132.596967 
L 183.80177 129.251462 
L 179.391802 129.251462 
L 179.391802 104.517968 
L 177.593036 104.517968 
L 177.593036 129.251462 
L 173.183068 129.251462 
L 173.183068 132.596967 
L 183.80177 132.596967 
z
" style="fill:none;opacity:0;"/>
   </g>
   <g id="patch_51">
    <path clip-path="url(#p9370a4a777)" d="M 189.943812 91.770254 
Q 192.217758 91.770254 193.472079 91.652846 
Q 194.726401 91.535692 194.864611 91.386635 
L 193.284322 91.386635 
Q 193.015726 91.499704 192.212543 91.56581 
Q 191.40936 91.632172 189.959459 91.632172 
Q 188.191414 91.632172 187.103988 91.510424 
Q 186.016561 91.388932 186.016561 91.13778 
Q 186.016561 90.931805 186.99707 90.803676 
Q 187.980187 90.675803 189.928166 90.675803 
Q 191.719681 90.675803 192.658466 90.810568 
Q 193.153936 90.881523 193.399063 90.9974 
L 194.979351 90.9974 
Q 194.768124 90.812354 193.578997 90.687033 
Q 192.152565 90.536189 189.732586 90.536189 
Q 187.646397 90.536189 186.227788 90.659978 
Q 184.360649 90.823329 184.360649 91.164835 
Q 184.360649 91.423899 185.763611 91.589802 
Q 187.278706 91.770254 189.943812 91.770254 
z
M 189.617845 91.770254 
L 189.617845 91.770254 
z
" style="fill:none;opacity:0;"/>
   </g>
   <g id="patch_52">
    <path clip-path="url(#p9370a4a777)" d="M 189.837104 104.245897 
Q 191.47523 104.245897 192.670277 103.600294 
Q 194.402083 102.673207 194.78946 100.349034 
L 193.232354 100.349034 
Q 192.946252 101.647988 192.052498 102.241944 
Q 191.158745 102.835899 189.796594 102.835899 
Q 188.183787 102.835899 187.079887 101.598923 
Q 185.975988 100.364529 185.975988 97.918982 
Q 185.975988 95.806567 186.884933 94.479207 
Q 187.796409 93.151846 189.852295 93.151846 
Q 191.427124 93.151846 192.460131 94.081515 
Q 193.493138 95.013766 193.515925 97.097775 
L 189.877614 97.097775 
L 189.877614 98.427718 
L 194.979351 98.427718 
L 194.979351 92.085309 
L 193.966599 92.085309 
L 193.586817 93.611515 
Q 192.789275 92.715418 192.171497 92.366792 
Q 191.133426 91.770254 189.53581 91.770254 
Q 187.472329 91.770254 185.983584 93.133769 
Q 184.360649 94.845909 184.360649 97.83118 
Q 184.360649 100.808704 185.943074 102.567328 
Q 187.44701 104.245897 189.837104 104.245897 
z
M 189.57632 104.263974 
L 189.57632 104.263974 
z
" style="fill:none;opacity:0;"/>
   </g>
   <g id="patch_53">
    <path clip-path="url(#p9370a4a777)" d="M 194.979351 126.192812 
L 194.979351 123.580075 
L 190.569383 123.580075 
L 190.569383 104.263974 
L 188.770617 104.263974 
L 188.770617 123.580075 
L 184.360649 123.580075 
L 184.360649 126.192812 
L 194.979351 126.192812 
z
" style="fill:none;opacity:0;"/>
   </g>
   <g id="patch_54">
    <path clip-path="url(#p9370a4a777)" d="M 201.121393 92.699854 
Q 203.395339 92.699854 204.649661 92.494004 
Q 205.903982 92.288601 206.042192 92.027261 
L 204.461904 92.027261 
Q 204.193307 92.225504 203.390124 92.341406 
Q 202.586941 92.457756 201.13704 92.457756 
Q 199.368995 92.457756 198.281569 92.244299 
Q 197.194143 92.031288 197.194143 91.590948 
Q 197.194143 91.229815 198.174651 91.00517 
Q 199.157768 90.780972 201.105747 90.780972 
Q 202.897262 90.780972 203.836047 91.017252 
Q 204.331517 91.141657 204.576644 91.344823 
L 206.156932 91.344823 
Q 205.945706 91.020385 204.756578 90.800662 
Q 203.330146 90.536189 200.910167 90.536189 
Q 198.823978 90.536189 197.405369 90.753227 
Q 195.53823 91.039627 195.53823 91.638383 
Q 195.53823 92.092596 196.941192 92.383471 
Q 198.456287 92.699854 201.121393 92.699854 
z
M 200.795426 92.699854 
L 200.795426 92.699854 
z
" style="fill:none;opacity:0;"/>
   </g>
   <g id="patch_55">
    <path clip-path="url(#p9370a4a777)" d="M 201.014685 100.549762 
Q 202.652811 100.549762 203.847858 100.143536 
Q 205.579664 99.560196 205.967041 98.097783 
L 204.409935 98.097783 
Q 204.123833 98.915109 203.23008 99.288837 
Q 202.336326 99.662565 200.974175 99.662565 
Q 199.361368 99.662565 198.257469 98.884236 
Q 197.153569 98.107532 197.153569 96.568749 
Q 197.153569 95.239578 198.062514 94.404378 
Q 198.97399 93.569177 201.029876 93.569177 
Q 202.604705 93.569177 203.637712 94.154143 
Q 204.670719 94.740733 204.693506 96.05203 
L 201.055195 96.05203 
L 201.055195 96.888855 
L 206.156932 96.888855 
L 206.156932 92.898092 
L 205.14418 92.898092 
L 204.764399 93.85841 
Q 203.966857 93.294569 203.349078 93.075207 
Q 202.311007 92.699854 200.713392 92.699854 
Q 198.64991 92.699854 197.161165 93.557803 
Q 195.53823 94.635114 195.53823 96.513502 
Q 195.53823 98.387016 197.120655 99.493575 
Q 198.624591 100.549762 201.014685 100.549762 
z
M 200.753902 100.561136 
L 200.753902 100.561136 
z
" style="fill:none;opacity:0;"/>
   </g>
   <g id="patch_56">
    <path clip-path="url(#p9370a4a777)" d="M 206.156932 125.19197 
L 206.156932 122.257301 
L 201.746964 122.257301 
L 201.746964 100.561136 
L 199.948198 100.561136 
L 199.948198 122.257301 
L 195.53823 122.257301 
L 195.53823 125.19197 
L 206.156932 125.19197 
z
" style="fill:none;opacity:0;"/>
   </g>
   <g id="patch_57">
    <path clip-path="url(#p9370a4a777)" d="M 212.192266 94.344854 
Q 213.830392 94.344854 215.025439 94.147759 
Q 216.757245 93.86473 217.144622 93.155188 
L 215.587517 93.155188 
Q 215.301414 93.551743 214.407661 93.733071 
Q 213.513907 93.914398 212.151756 93.914398 
Q 210.538949 93.914398 209.43505 93.536764 
Q 208.33115 93.159918 208.33115 92.413322 
Q 208.33115 91.768427 209.240095 91.3632 
Q 210.151572 90.957973 212.207458 90.957973 
Q 213.782287 90.957973 214.815293 91.241789 
Q 215.8483 91.526395 215.871087 92.162617 
L 212.232776 92.162617 
L 212.232776 92.568633 
L 217.334513 92.568633 
L 217.334513 90.632372 
L 216.321762 90.632372 
L 215.94198 91.098304 
Q 215.144438 90.824736 214.526659 90.718305 
Q 213.488589 90.536189 211.890973 90.536189 
Q 209.827491 90.536189 208.338746 90.952454 
Q 206.715811 91.47515 206.715811 92.386517 
Q 206.715811 93.29552 208.298236 93.832407 
Q 209.802172 94.344854 212.192266 94.344854 
z
M 211.931483 94.350372 
L 211.931483 94.350372 
z
" style="fill:none;opacity:0;"/>
   </g>
   <g id="patch_58">
    <path clip-path="url(#p9370a4a777)" d="M 217.334513 120.420849 
L 217.334513 117.314652 
L 212.924545 117.314652 
L 212.924545 94.350372 
L 211.12578 94.350372 
L 211.12578 117.314652 
L 206.715811 117.314652 
L 206.715811 120.420849 
L 217.334513 120.420849 
z
" style="fill:none;opacity:0;"/>
   </g>
   <g id="patch_59">
    <path clip-path="url(#p9370a4a777)" d="M 223.369847 92.086465 
Q 225.007973 92.086465 226.20302 92.006239 
Q 227.934826 91.891036 228.322203 91.602224 
L 226.765098 91.602224 
Q 226.478995 91.763638 225.585242 91.837445 
Q 224.691488 91.911252 223.329337 91.911252 
Q 221.71653 91.911252 220.612631 91.757541 
Q 219.508731 91.60415 219.508731 91.300256 
Q 219.508731 91.037758 220.417676 90.872815 
Q 221.329153 90.707871 223.385039 90.707871 
Q 224.959868 90.707871 225.992874 90.823396 
Q 227.025881 90.939242 227.048668 91.198209 
L 223.410357 91.198209 
L 223.410357 91.363473 
L 228.512094 91.363473 
L 228.512094 90.575339 
L 227.499343 90.575339 
L 227.119561 90.764992 
Q 226.322019 90.653639 225.70424 90.610317 
Q 224.66617 90.536189 223.068554 90.536189 
Q 221.005072 90.536189 219.516327 90.705625 
Q 217.893392 90.918383 217.893392 91.289345 
Q 217.893392 91.659345 219.475817 91.877879 
Q 220.979753 92.086465 223.369847 92.086465 
z
M 223.109064 92.088711 
L 223.109064 92.088711 
z
" style="fill:none;opacity:0;"/>
   </g>
   <g id="patch_60">
    <path clip-path="url(#p9370a4a777)" d="M 228.512094 121.268281 
L 228.512094 117.791648 
L 224.102126 117.791648 
L 224.102126 92.088711 
L 222.303361 92.088711 
L 222.303361 117.791648 
L 217.893392 117.791648 
L 217.893392 121.268281 
L 228.512094 121.268281 
z
" style="fill:none;opacity:0;"/>
   </g>
   <g id="patch_61">
    <path clip-path="url(#p9370a4a777)" d="M 234.547429 99.22941 
Q 236.185554 99.22941 237.380602 98.779543 
Q 239.112407 98.133535 239.499785 96.514016 
L 237.942679 96.514016 
Q 237.656576 97.419147 236.762823 97.833024 
Q 235.86907 98.246901 234.506918 98.246901 
Q 232.894111 98.246901 231.790212 97.384957 
Q 230.686312 96.524812 230.686312 94.820718 
Q 230.686312 93.348755 231.595257 92.423829 
Q 232.506734 91.498904 234.56262 91.498904 
Q 236.137449 91.498904 237.170456 92.146711 
Q 238.203462 92.796319 238.226249 94.248488 
L 234.587939 94.248488 
L 234.587939 95.175213 
L 239.689676 95.175213 
L 239.689676 90.755724 
L 238.676924 90.755724 
L 238.297142 91.819208 
Q 237.4996 91.194794 236.881821 90.951866 
Q 235.843751 90.536189 234.246135 90.536189 
Q 232.182653 90.536189 230.693908 91.486307 
Q 229.070973 92.679353 229.070973 94.759536 
Q 229.070973 96.834321 230.653398 98.059757 
Q 232.157334 99.22941 234.547429 99.22941 
z
M 234.286645 99.242006 
L 234.286645 99.242006 
z
" style="fill:none;opacity:0;"/>
   </g>
   <g id="patch_62">
    <path clip-path="url(#p9370a4a777)" d="M 239.689676 118.406923 
L 239.689676 116.123497 
L 235.279707 116.123497 
L 235.279707 99.242006 
L 233.480942 99.242006 
L 233.480942 116.123497 
L 229.070973 116.123497 
L 229.070973 118.406923 
L 239.689676 118.406923 
z
" style="fill:none;opacity:0;"/>
   </g>
   <g id="patch_63">
    <path clip-path="url(#p9370a4a777)" d="M 245.72501 93.193828 
Q 247.363136 93.193828 248.558183 93.056298 
Q 250.289988 92.858804 250.677366 92.363694 
L 249.12026 92.363694 
Q 248.834158 92.640405 247.940404 92.766934 
Q 247.046651 92.893462 245.6845 92.893462 
Q 244.071692 92.893462 242.967793 92.629953 
Q 241.863894 92.366995 241.863894 91.846029 
Q 241.863894 91.39603 242.772838 91.113267 
Q 243.684315 90.830504 245.740201 90.830504 
Q 247.31503 90.830504 248.348037 91.028548 
Q 249.381043 91.227142 249.40383 91.671091 
L 245.76552 91.671091 
L 245.76552 91.954403 
L 250.867257 91.954403 
L 250.867257 90.603304 
L 249.854505 90.603304 
L 249.474723 90.928426 
Q 248.677181 90.737534 248.059402 90.663267 
Q 247.021332 90.536189 245.423716 90.536189 
Q 243.360234 90.536189 241.871489 90.826654 
Q 240.248555 91.191384 240.248555 91.827325 
Q 240.248555 92.461616 241.830979 92.836249 
Q 243.334916 93.193828 245.72501 93.193828 
z
M 245.464226 93.197679 
L 245.464226 93.197679 
z
" style="fill:none;opacity:0;"/>
   </g>
   <g id="patch_64">
    <path clip-path="url(#p9370a4a777)" d="M 250.867257 119.039291 
L 250.867257 115.960362 
L 246.457288 115.960362 
L 246.457288 93.197679 
L 244.658523 93.197679 
L 244.658523 115.960362 
L 240.248555 115.960362 
L 240.248555 119.039291 
L 250.867257 119.039291 
z
" style="fill:none;opacity:0;"/>
   </g>
   <g id="patch_65">
    <path clip-path="url(#p9370a4a777)" d="M 256.902591 90.821246 
Q 258.540717 90.821246 259.735764 90.806494 
Q 261.467569 90.785311 261.854947 90.732206 
L 260.297841 90.732206 
Q 260.011739 90.761886 259.117985 90.775457 
Q 258.224232 90.789029 256.862081 90.789029 
Q 255.249274 90.789029 254.145374 90.760765 
Q 253.041475 90.73256 253.041475 90.676682 
Q 253.041475 90.628415 253.950419 90.598086 
Q 254.861896 90.567757 256.917782 90.567757 
Q 258.492611 90.567757 259.525618 90.588999 
Q 260.558625 90.6103 260.581411 90.657918 
L 256.943101 90.657918 
L 256.943101 90.688306 
L 262.044838 90.688306 
L 262.044838 90.543388 
L 261.032086 90.543388 
L 260.652304 90.57826 
Q 259.854762 90.557785 259.236984 90.549819 
Q 258.198913 90.536189 256.601297 90.536189 
Q 254.537815 90.536189 253.04907 90.567344 
Q 251.426136 90.606465 251.426136 90.674676 
Q 251.426136 90.742709 253.00856 90.782892 
Q 254.512497 90.821246 256.902591 90.821246 
z
M 256.641807 90.821659 
L 256.641807 90.821659 
z
" style="fill:none;opacity:0;"/>
   </g>
   <g id="patch_66">
    <path clip-path="url(#p9370a4a777)" d="M 262.044838 125.045612 
L 262.044838 120.967959 
L 257.634869 120.967959 
L 257.634869 90.821659 
L 255.836104 90.821659 
L 255.836104 120.967959 
L 251.426136 120.967959 
L 251.426136 125.045612 
L 262.044838 125.045612 
z
" style="fill:none;opacity:0;"/>
   </g>
   <g id="patch_67">
    <path clip-path="url(#p9370a4a777)" d="M 268.080172 102.229385 
Q 269.718298 102.229385 270.913345 101.624272 
Q 272.64515 100.75533 273.032528 98.576925 
L 271.475422 98.576925 
Q 271.18932 99.794412 270.295566 100.351115 
Q 269.401813 100.907819 268.039662 100.907819 
Q 266.426855 100.907819 265.322955 99.748423 
Q 264.219056 98.591448 264.219056 96.299281 
Q 264.219056 94.319353 265.128001 93.075242 
Q 266.039477 91.83113 268.095363 91.83113 
Q 269.670192 91.83113 270.703199 92.702492 
Q 271.736206 93.576275 271.758993 95.529578 
L 268.120682 95.529578 
L 268.120682 96.77611 
L 273.222419 96.77611 
L 273.222419 90.831484 
L 272.209667 90.831484 
L 271.829885 92.26197 
Q 271.032343 91.422074 270.414565 91.095313 
Q 269.376494 90.536189 267.778878 90.536189 
Q 265.715397 90.536189 264.226651 91.814187 
Q 262.603717 93.418945 262.603717 96.216986 
Q 262.603717 99.007765 264.186141 100.656092 
Q 265.690078 102.229385 268.080172 102.229385 
z
M 267.819388 102.246328 
L 267.819388 102.246328 
z
" style="fill:none;opacity:0;"/>
   </g>
   <g id="patch_68">
    <path clip-path="url(#p9370a4a777)" d="M 273.222419 141.64 
L 273.222419 136.946395 
L 268.812451 136.946395 
L 268.812451 102.246328 
L 267.013685 102.246328 
L 267.013685 136.946395 
L 262.603717 136.946395 
L 262.603717 141.64 
L 273.222419 141.64 
z
" style="fill:none;opacity:0;"/>
   </g>
   <g id="patch_69">
    <path clip-path="url(#p9370a4a777)" d="M 279.257753 93.841292 
Q 280.895879 93.841292 282.090926 93.670256 
Q 283.822732 93.424648 284.210109 92.808918 
L 282.653003 92.808918 
Q 282.366901 93.153043 281.473147 93.310396 
Q 280.579394 93.467749 279.217243 93.467749 
Q 277.604436 93.467749 276.500536 93.140044 
Q 275.396637 92.813023 275.396637 92.165138 
Q 275.396637 91.605507 276.305582 91.253857 
Q 277.217058 90.902207 279.272944 90.902207 
Q 280.847773 90.902207 281.88078 91.148499 
Q 282.913787 91.395475 282.936574 91.94758 
L 279.298263 91.94758 
L 279.298263 92.299914 
L 284.4 92.299914 
L 284.4 90.619655 
L 283.387248 90.619655 
L 283.007466 91.023984 
Q 282.209924 90.786586 281.592146 90.694227 
Q 280.554075 90.536189 278.956459 90.536189 
Q 276.892978 90.536189 275.404233 90.897418 
Q 273.781298 91.351005 273.781298 92.141877 
Q 273.781298 92.930696 275.363723 93.396598 
Q 276.867659 93.841292 279.257753 93.841292 
z
M 278.996969 93.846081 
L 278.996969 93.846081 
z
" style="fill:none;opacity:0;"/>
   </g>
   <g id="patch_70">
    <path clip-path="url(#p9370a4a777)" d="M 284.4 128.531628 
L 284.4 124.398979 
L 279.990032 124.398979 
L 279.990032 93.846081 
L 278.191266 93.846081 
L 278.191266 124.398979 
L 273.781298 124.398979 
L 273.781298 128.531628 
L 284.4 128.531628 
z
" style="fill:none;opacity:0;"/>
   </g>
   <g id="matplotlib.axis_1">
    <g id="xtick_1">
     <g id="line2d_2">
      <path clip-path="url(#p9370a4a777)" d="M 100.249351 141.64 
L 100.249351 28.8 
" style="fill:none;stroke:#cccccc;stroke-linecap:round;stroke-width:0.8;"/>
     </g>
     <g id="text_1">
      <!-- 0 -->
      <g style="fill:#262626;" transform="translate(94.688414 162.986875)scale(0.2 -0.2)">
       <defs>
        <path d="M 1731 4475 
Q 2600 4475 2988 3759 
Q 3288 3206 3288 2244 
Q 3288 1331 3016 734 
Q 2622 -122 1728 -122 
Q 922 -122 528 578 
Q 200 1163 200 2147 
Q 200 2909 397 3456 
Q 766 4475 1731 4475 
z
M 1725 391 
Q 2163 391 2422 778 
Q 2681 1166 2681 2222 
Q 2681 2984 2493 3476 
Q 2306 3969 1766 3969 
Q 1269 3969 1039 3501 
Q 809 3034 809 2125 
Q 809 1441 956 1025 
Q 1181 391 1725 391 
z
" id="Helvetica-30" transform="scale(0.015625)"/>
       </defs>
       <use xlink:href="#Helvetica-30"/>
      </g>
     </g>
    </g>
    <g id="xtick_2">
     <g id="line2d_3">
      <path clip-path="url(#p9370a4a777)" d="M 212.025162 141.64 
L 212.025162 28.8 
" style="fill:none;stroke:#cccccc;stroke-linecap:round;stroke-width:0.8;"/>
     </g>
     <g id="text_2">
      <!-- 10 -->
      <g style="fill:#262626;" transform="translate(200.903287 162.986875)scale(0.2 -0.2)">
       <defs>
        <path d="M 613 3169 
L 613 3600 
Q 1222 3659 1462 3798 
Q 1703 3938 1822 4456 
L 2266 4456 
L 2266 0 
L 1666 0 
L 1666 3169 
L 613 3169 
z
" id="Helvetica-31" transform="scale(0.015625)"/>
       </defs>
       <use xlink:href="#Helvetica-31"/>
       <use x="55.615234" xlink:href="#Helvetica-30"/>
      </g>
     </g>
    </g>
    <g id="text_3">
     <!-- Position -->
     <g style="fill:#262626;" transform="translate(145.20125 189.089219)scale(0.25 -0.25)">
      <defs>
       <path d="M 547 4591 
L 2613 4591 
Q 3225 4591 3600 4245 
Q 3975 3900 3975 3275 
Q 3975 2738 3640 2339 
Q 3306 1941 2613 1941 
L 1169 1941 
L 1169 0 
L 547 0 
L 547 4591 
z
M 3347 3272 
Q 3347 3778 2972 3959 
Q 2766 4056 2406 4056 
L 1169 4056 
L 1169 2466 
L 2406 2466 
Q 2825 2466 3086 2644 
Q 3347 2822 3347 3272 
z
" id="Helvetica-50" transform="scale(0.015625)"/>
       <path d="M 1741 363 
Q 2300 363 2508 786 
Q 2716 1209 2716 1728 
Q 2716 2197 2566 2491 
Q 2328 2953 1747 2953 
Q 1231 2953 997 2559 
Q 763 2166 763 1609 
Q 763 1075 997 719 
Q 1231 363 1741 363 
z
M 1763 3444 
Q 2409 3444 2856 3012 
Q 3303 2581 3303 1744 
Q 3303 934 2909 406 
Q 2516 -122 1688 -122 
Q 997 -122 590 345 
Q 184 813 184 1600 
Q 184 2444 612 2944 
Q 1041 3444 1763 3444 
z
M 1744 3428 
L 1744 3428 
z
" id="Helvetica-6f" transform="scale(0.015625)"/>
       <path d="M 747 1050 
Q 772 769 888 619 
Q 1100 347 1625 347 
Q 1938 347 2175 483 
Q 2413 619 2413 903 
Q 2413 1119 2222 1231 
Q 2100 1300 1741 1391 
L 1294 1503 
Q 866 1609 663 1741 
Q 300 1969 300 2372 
Q 300 2847 642 3140 
Q 984 3434 1563 3434 
Q 2319 3434 2653 2991 
Q 2863 2709 2856 2384 
L 2325 2384 
Q 2309 2575 2191 2731 
Q 1997 2953 1519 2953 
Q 1200 2953 1036 2831 
Q 872 2709 872 2509 
Q 872 2291 1088 2159 
Q 1213 2081 1456 2022 
L 1828 1931 
Q 2434 1784 2641 1647 
Q 2969 1431 2969 969 
Q 2969 522 2630 197 
Q 2291 -128 1597 -128 
Q 850 -128 539 211 
Q 228 550 206 1050 
L 747 1050 
z
M 1578 3428 
L 1578 3428 
z
" id="Helvetica-73" transform="scale(0.015625)"/>
       <path d="M 413 3331 
L 984 3331 
L 984 0 
L 413 0 
L 413 3331 
z
M 413 4591 
L 984 4591 
L 984 3953 
L 413 3953 
L 413 4591 
z
" id="Helvetica-69" transform="scale(0.015625)"/>
       <path d="M 525 4281 
L 1094 4281 
L 1094 3347 
L 1628 3347 
L 1628 2888 
L 1094 2888 
L 1094 703 
Q 1094 528 1213 469 
Q 1278 434 1431 434 
Q 1472 434 1519 436 
Q 1566 438 1628 444 
L 1628 0 
Q 1531 -28 1426 -40 
Q 1322 -53 1200 -53 
Q 806 -53 665 148 
Q 525 350 525 672 
L 525 2888 
L 72 2888 
L 72 3347 
L 525 3347 
L 525 4281 
z
" id="Helvetica-74" transform="scale(0.015625)"/>
       <path d="M 413 3347 
L 947 3347 
L 947 2872 
Q 1184 3166 1450 3294 
Q 1716 3422 2041 3422 
Q 2753 3422 3003 2925 
Q 3141 2653 3141 2147 
L 3141 0 
L 2569 0 
L 2569 2109 
Q 2569 2416 2478 2603 
Q 2328 2916 1934 2916 
Q 1734 2916 1606 2875 
Q 1375 2806 1200 2600 
Q 1059 2434 1017 2257 
Q 975 2081 975 1753 
L 975 0 
L 413 0 
L 413 3347 
z
M 1734 3428 
L 1734 3428 
z
" id="Helvetica-6e" transform="scale(0.015625)"/>
      </defs>
      <use xlink:href="#Helvetica-50"/>
      <use x="66.699219" xlink:href="#Helvetica-6f"/>
      <use x="122.314453" xlink:href="#Helvetica-73"/>
      <use x="172.314453" xlink:href="#Helvetica-69"/>
      <use x="194.53125" xlink:href="#Helvetica-74"/>
      <use x="222.314453" xlink:href="#Helvetica-69"/>
      <use x="244.53125" xlink:href="#Helvetica-6f"/>
      <use x="300.146484" xlink:href="#Helvetica-6e"/>
     </g>
    </g>
   </g>
   <g id="matplotlib.axis_2">
    <g id="ytick_1">
     <g id="line2d_4">
      <path clip-path="url(#p9370a4a777)" d="M 94.94 90.536189 
L 284.4 90.536189 
" style="fill:none;stroke:#cccccc;stroke-linecap:round;stroke-width:0.8;"/>
     </g>
     <g id="text_4">
      <!-- 0 -->
      <g style="fill:#262626;" transform="translate(76.818125 97.709627)scale(0.2 -0.2)">
       <use xlink:href="#Helvetica-30"/>
      </g>
     </g>
    </g>
    <g id="ytick_2">
     <g id="line2d_5">
      <path clip-path="url(#p9370a4a777)" d="M 94.94 75.102142 
L 284.4 75.102142 
" style="fill:none;stroke:#cccccc;stroke-linecap:round;stroke-width:0.8;"/>
     </g>
     <g id="text_5">
      <!-- 0.25 -->
      <g style="fill:#262626;" transform="translate(49.018125 82.275579)scale(0.2 -0.2)">
       <defs>
        <path d="M 547 681 
L 1200 681 
L 1200 0 
L 547 0 
L 547 681 
z
" id="Helvetica-2e" transform="scale(0.015625)"/>
        <path d="M 200 0 
Q 231 578 439 1006 
Q 647 1434 1250 1784 
L 1850 2131 
Q 2253 2366 2416 2531 
Q 2672 2791 2672 3125 
Q 2672 3516 2437 3745 
Q 2203 3975 1813 3975 
Q 1234 3975 1013 3538 
Q 894 3303 881 2888 
L 309 2888 
Q 319 3472 525 3841 
Q 891 4491 1816 4491 
Q 2584 4491 2939 4075 
Q 3294 3659 3294 3150 
Q 3294 2613 2916 2231 
Q 2697 2009 2131 1694 
L 1703 1456 
Q 1397 1288 1222 1134 
Q 909 863 828 531 
L 3272 531 
L 3272 0 
L 200 0 
z
" id="Helvetica-32" transform="scale(0.015625)"/>
        <path d="M 791 1141 
Q 847 659 1238 475 
Q 1438 381 1700 381 
Q 2200 381 2440 700 
Q 2681 1019 2681 1406 
Q 2681 1875 2395 2131 
Q 2109 2388 1709 2388 
Q 1419 2388 1211 2275 
Q 1003 2163 856 1963 
L 369 1991 
L 709 4400 
L 3034 4400 
L 3034 3856 
L 1131 3856 
L 941 2613 
Q 1097 2731 1238 2791 
Q 1488 2894 1816 2894 
Q 2431 2894 2859 2497 
Q 3288 2100 3288 1491 
Q 3288 856 2895 371 
Q 2503 -113 1644 -113 
Q 1097 -113 676 195 
Q 256 503 206 1141 
L 791 1141 
z
" id="Helvetica-35" transform="scale(0.015625)"/>
       </defs>
       <use xlink:href="#Helvetica-30"/>
       <use x="55.615234" xlink:href="#Helvetica-2e"/>
       <use x="83.398438" xlink:href="#Helvetica-32"/>
       <use x="139.013672" xlink:href="#Helvetica-35"/>
      </g>
     </g>
    </g>
    <g id="ytick_3">
     <g id="line2d_6">
      <path clip-path="url(#p9370a4a777)" d="M 94.94 59.668095 
L 284.4 59.668095 
" style="fill:none;stroke:#cccccc;stroke-linecap:round;stroke-width:0.8;"/>
     </g>
     <g id="text_6">
      <!-- 0.50 -->
      <g style="fill:#262626;" transform="translate(49.018125 66.841532)scale(0.2 -0.2)">
       <use xlink:href="#Helvetica-30"/>
       <use x="55.615234" xlink:href="#Helvetica-2e"/>
       <use x="83.398438" xlink:href="#Helvetica-35"/>
       <use x="139.013672" xlink:href="#Helvetica-30"/>
      </g>
     </g>
    </g>
    <g id="ytick_4">
     <g id="line2d_7">
      <path clip-path="url(#p9370a4a777)" d="M 94.94 44.234047 
L 284.4 44.234047 
" style="fill:none;stroke:#cccccc;stroke-linecap:round;stroke-width:0.8;"/>
     </g>
     <g id="text_7">
      <!-- 0.75 -->
      <g style="fill:#262626;" transform="translate(49.018125 51.407485)scale(0.2 -0.2)">
       <defs>
        <path d="M 3347 4400 
L 3347 3909 
Q 3131 3700 2773 3181 
Q 2416 2663 2141 2063 
Q 1869 1478 1728 997 
Q 1638 688 1494 0 
L 872 0 
Q 1084 1281 1809 2550 
Q 2238 3294 2709 3834 
L 234 3834 
L 234 4400 
L 3347 4400 
z
" id="Helvetica-37" transform="scale(0.015625)"/>
       </defs>
       <use xlink:href="#Helvetica-30"/>
       <use x="55.615234" xlink:href="#Helvetica-2e"/>
       <use x="83.398438" xlink:href="#Helvetica-37"/>
       <use x="139.013672" xlink:href="#Helvetica-35"/>
      </g>
     </g>
    </g>
    <g id="ytick_5">
     <g id="line2d_8">
      <path clip-path="url(#p9370a4a777)" d="M 94.94 28.8 
L 284.4 28.8 
" style="fill:none;stroke:#cccccc;stroke-linecap:round;stroke-width:0.8;"/>
     </g>
     <g id="text_8">
      <!-- 1.0 -->
      <g style="fill:#262626;" transform="translate(60.14 35.973438)scale(0.2 -0.2)">
       <use xlink:href="#Helvetica-31"/>
       <use x="55.615234" xlink:href="#Helvetica-2e"/>
       <use x="83.398438" xlink:href="#Helvetica-30"/>
      </g>
     </g>
    </g>
    <g id="text_9">
     <!-- Probability -->
     <g style="fill:#262626;" transform="translate(39.65875 143.579375)rotate(-90)scale(0.25 -0.25)">
      <defs>
       <path d="M 428 3347 
L 963 3347 
L 963 2769 
Q 1028 2938 1284 3180 
Q 1541 3422 1875 3422 
Q 1891 3422 1928 3419 
Q 1966 3416 2056 3406 
L 2056 2813 
Q 2006 2822 1964 2825 
Q 1922 2828 1872 2828 
Q 1447 2828 1219 2554 
Q 991 2281 991 1925 
L 991 0 
L 428 0 
L 428 3347 
z
" id="Helvetica-72" transform="scale(0.015625)"/>
       <path d="M 369 4606 
L 916 4606 
L 916 2941 
Q 1100 3181 1356 3307 
Q 1613 3434 1913 3434 
Q 2538 3434 2927 3004 
Q 3316 2575 3316 1738 
Q 3316 944 2931 419 
Q 2547 -106 1866 -106 
Q 1484 -106 1222 78 
Q 1066 188 888 428 
L 888 0 
L 369 0 
L 369 4606 
z
M 1831 391 
Q 2288 391 2514 753 
Q 2741 1116 2741 1709 
Q 2741 2238 2514 2584 
Q 2288 2931 1847 2931 
Q 1463 2931 1173 2647 
Q 884 2363 884 1709 
Q 884 1238 1003 944 
Q 1225 391 1831 391 
z
" id="Helvetica-62" transform="scale(0.015625)"/>
       <path d="M 844 891 
Q 844 647 1022 506 
Q 1200 366 1444 366 
Q 1741 366 2019 503 
Q 2488 731 2488 1250 
L 2488 1703 
Q 2384 1638 2221 1594 
Q 2059 1550 1903 1531 
L 1563 1488 
Q 1256 1447 1103 1359 
Q 844 1213 844 891 
z
M 2206 2028 
Q 2400 2053 2466 2191 
Q 2503 2266 2503 2406 
Q 2503 2694 2298 2823 
Q 2094 2953 1713 2953 
Q 1272 2953 1088 2716 
Q 984 2584 953 2325 
L 428 2325 
Q 444 2944 830 3186 
Q 1216 3428 1725 3428 
Q 2316 3428 2684 3203 
Q 3050 2978 3050 2503 
L 3050 575 
Q 3050 488 3086 434 
Q 3122 381 3238 381 
Q 3275 381 3322 386 
Q 3369 391 3422 400 
L 3422 -16 
Q 3291 -53 3222 -62 
Q 3153 -72 3034 -72 
Q 2744 -72 2613 134 
Q 2544 244 2516 444 
Q 2344 219 2022 53 
Q 1700 -113 1313 -113 
Q 847 -113 551 170 
Q 256 453 256 878 
Q 256 1344 547 1600 
Q 838 1856 1309 1916 
L 2206 2028 
z
M 1741 3428 
L 1741 3428 
z
" id="Helvetica-61" transform="scale(0.015625)"/>
       <path d="M 428 4591 
L 991 4591 
L 991 0 
L 428 0 
L 428 4591 
z
" id="Helvetica-6c" transform="scale(0.015625)"/>
       <path d="M 2503 3347 
L 3125 3347 
Q 3006 3025 2597 1878 
Q 2291 1016 2084 472 
Q 1597 -809 1397 -1090 
Q 1197 -1372 709 -1372 
Q 591 -1372 527 -1362 
Q 463 -1353 369 -1328 
L 369 -816 
Q 516 -856 581 -865 
Q 647 -875 697 -875 
Q 853 -875 926 -823 
Q 1000 -772 1050 -697 
Q 1066 -672 1162 -440 
Q 1259 -209 1303 -97 
L 66 3347 
L 703 3347 
L 1600 622 
L 2503 3347 
z
M 1597 3428 
L 1597 3428 
z
" id="Helvetica-79" transform="scale(0.015625)"/>
      </defs>
      <use xlink:href="#Helvetica-50"/>
      <use x="66.699219" xlink:href="#Helvetica-72"/>
      <use x="100" xlink:href="#Helvetica-6f"/>
      <use x="155.615234" xlink:href="#Helvetica-62"/>
      <use x="211.230469" xlink:href="#Helvetica-61"/>
      <use x="266.845703" xlink:href="#Helvetica-62"/>
      <use x="322.460938" xlink:href="#Helvetica-69"/>
      <use x="344.677734" xlink:href="#Helvetica-6c"/>
      <use x="366.894531" xlink:href="#Helvetica-69"/>
      <use x="389.111328" xlink:href="#Helvetica-74"/>
      <use x="416.894531" xlink:href="#Helvetica-79"/>
     </g>
    </g>
   </g>
   <g id="patch_71">
    <path d="M 94.94 141.64 
L 94.94 28.8 
" style="fill:none;stroke:#000000;stroke-linecap:square;stroke-linejoin:miter;"/>
   </g>
  </g>
 </g>
 <defs>
  <clipPath id="p9370a4a777">
   <rect height="112.84" width="189.46" x="94.94" y="28.8"/>
  </clipPath>
 </defs>
</svg>
