<?xml version="1.0" encoding="utf-8" standalone="no"?>
<!DOCTYPE svg PUBLIC "-//W3C//DTD SVG 1.1//EN"
  "http://www.w3.org/Graphics/SVG/1.1/DTD/svg11.dtd">
<svg height="216pt" version="1.1" viewBox="0 0 306 216" width="306pt" xmlns="http://www.w3.org/2000/svg" xmlns:xlink="http://www.w3.org/1999/xlink">
 <metadata>
  <rdf:RDF xmlns:cc="http://creativecommons.org/ns#" xmlns:dc="http://purl.org/dc/elements/1.1/" xmlns:rdf="http://www.w3.org/1999/02/22-rdf-syntax-ns#">
   <cc:Work>
    <dc:type rdf:resource="http://purl.org/dc/dcmitype/StillImage"/>
    <dc:date>2021-12-20T20:04:06.032359</dc:date>
    <dc:format>image/svg+xml</dc:format>
    <dc:creator>
     <cc:Agent>
      <dc:title>Matplotlib v3.4.2, https://matplotlib.org/</dc:title>
     </cc:Agent>
    </dc:creator>
   </cc:Work>
  </rdf:RDF>
 </metadata>
 <defs>
  <style type="text/css">*{stroke-linecap:butt;stroke-linejoin:round;}</style>
 </defs>
 <g id="figure_1">
  <g id="patch_1">
   <path d="M 0 216 
L 306 216 
L 306 0 
L 0 0 
z
" style="fill:#ffffff;"/>
  </g>
  <g id="axes_1">
   <g id="patch_2">
    <path d="M 94.94 141.64 
L 284.4 141.64 
L 284.4 28.746741 
L 94.94 28.746741 
z
" style="fill:#ffffff;"/>
   </g>
   <g id="line2d_1">
    <path clip-path="url(#p3a619d0a8c)" d="M 94.94 28.820479 
L 284.4 28.820479 
" style="fill:none;stroke:#000000;stroke-linecap:round;stroke-width:0.5;"/>
   </g>
   <g id="patch_3">
    <path clip-path="url(#p3a619d0a8c)" d="M 100.523163 28.746741 
Q 102.797109 28.746741 104.051431 28.753756 
Q 105.305752 28.760756 105.443962 28.769663 
L 103.863673 28.769663 
Q 103.595077 28.762907 102.791894 28.758957 
Q 101.988711 28.754991 100.53881 28.754991 
Q 98.770765 28.754991 97.683339 28.762266 
Q 96.595913 28.769526 96.595913 28.784532 
Q 96.595913 28.79684 97.576421 28.804496 
Q 98.559538 28.812137 100.507517 28.812137 
Q 102.299032 28.812137 103.237817 28.804084 
Q 103.733287 28.799844 103.978414 28.792921 
L 105.558702 28.792921 
Q 105.347475 28.803977 104.158348 28.811466 
Q 102.731916 28.820479 100.311937 28.820479 
Q 98.225748 28.820479 96.807139 28.813082 
Q 94.94 28.803322 94.94 28.782916 
Q 94.94 28.767436 96.342962 28.757523 
Q 97.858057 28.746741 100.523163 28.746741 
z
M 100.197196 28.746741 
L 100.197196 28.746741 
z
" style="fill:#0000ff;"/>
   </g>
   <g id="patch_4">
    <path clip-path="url(#p3a619d0a8c)" d="M 111.700744 28.746741 
Q 113.97469 28.746741 115.229012 28.753756 
Q 116.483333 28.760756 116.621543 28.769663 
L 115.041255 28.769663 
Q 114.772658 28.762907 113.969475 28.758957 
Q 113.166292 28.754991 111.716391 28.754991 
Q 109.948346 28.754991 108.86092 28.762266 
Q 107.773494 28.769526 107.773494 28.784532 
Q 107.773494 28.79684 108.754002 28.804496 
Q 109.737119 28.812137 111.685098 28.812137 
Q 113.476613 28.812137 114.415398 28.804084 
Q 114.910868 28.799844 115.155995 28.792921 
L 116.736283 28.792921 
Q 116.525057 28.803977 115.335929 28.811466 
Q 113.909497 28.820479 111.489518 28.820479 
Q 109.403329 28.820479 107.98472 28.813082 
Q 106.117581 28.803322 106.117581 28.782916 
Q 106.117581 28.767436 107.520543 28.757523 
Q 109.035638 28.746741 111.700744 28.746741 
z
M 111.374777 28.746741 
L 111.374777 28.746741 
z
" style="fill:#0000ff;"/>
   </g>
   <g id="patch_5">
    <path clip-path="url(#p3a619d0a8c)" d="M 122.878326 28.746741 
Q 125.152272 28.746741 126.406593 28.753756 
Q 127.660914 28.760756 127.799124 28.769663 
L 126.218836 28.769663 
Q 125.950239 28.762907 125.147056 28.758957 
Q 124.343873 28.754991 122.893972 28.754991 
Q 121.125927 28.754991 120.038501 28.762266 
Q 118.951075 28.769526 118.951075 28.784532 
Q 118.951075 28.79684 119.931584 28.804496 
Q 120.9147 28.812137 122.862679 28.812137 
Q 124.654194 28.812137 125.592979 28.804084 
Q 126.088449 28.799844 126.333576 28.792921 
L 127.913864 28.792921 
Q 127.702638 28.803977 126.51351 28.811466 
Q 125.087078 28.820479 122.667099 28.820479 
Q 120.58091 28.820479 119.162301 28.813082 
Q 117.295162 28.803322 117.295162 28.782916 
Q 117.295162 28.767436 118.698124 28.757523 
Q 120.213219 28.746741 122.878326 28.746741 
z
M 122.552359 28.746741 
L 122.552359 28.746741 
z
" style="fill:#0000ff;"/>
   </g>
   <g id="patch_6">
    <path clip-path="url(#p3a619d0a8c)" d="M 139.091445 28.746741 
L 139.091445 28.755526 
L 134.681477 28.755526 
L 134.681477 28.820479 
L 132.882712 28.820479 
L 132.882712 28.755526 
L 128.472743 28.755526 
L 128.472743 28.746741 
L 139.091445 28.746741 
z
" style="fill:#ff0000;"/>
   </g>
   <g id="patch_7">
    <path clip-path="url(#p3a619d0a8c)" d="M 145.233488 28.746741 
Q 147.507434 28.746741 148.761755 28.753756 
Q 150.016076 28.760756 150.154286 28.769663 
L 148.573998 28.769663 
Q 148.305401 28.762907 147.502218 28.758957 
Q 146.699036 28.754991 145.249134 28.754991 
Q 143.481089 28.754991 142.393663 28.762266 
Q 141.306237 28.769526 141.306237 28.784532 
Q 141.306237 28.79684 142.286746 28.804496 
Q 143.269862 28.812137 145.217841 28.812137 
Q 147.009356 28.812137 147.948141 28.804084 
Q 148.443611 28.799844 148.688738 28.792921 
L 150.269027 28.792921 
Q 150.0578 28.803977 148.868672 28.811466 
Q 147.44224 28.820479 145.022261 28.820479 
Q 142.936072 28.820479 141.517464 28.813082 
Q 139.650324 28.803322 139.650324 28.782916 
Q 139.650324 28.767436 141.053287 28.757523 
Q 142.568381 28.746741 145.233488 28.746741 
z
M 144.907521 28.746741 
L 144.907521 28.746741 
z
" style="fill:#0000ff;"/>
   </g>
   <g id="patch_8">
    <path clip-path="url(#p3a619d0a8c)" d="M 157.955421 28.790267 
L 156.14892 28.757695 
L 154.228378 28.790267 
L 157.955421 28.790267 
z
M 155.306577 28.746741 
L 157.128629 28.746741 
L 161.446608 28.820479 
L 159.678984 28.820479 
L 158.473786 28.798394 
L 153.767034 28.798394 
L 152.478897 28.820479 
L 150.827906 28.820479 
L 155.306577 28.746741 
z
M 156.141144 28.746741 
L 156.141144 28.746741 
z
" style="fill:#008000;"/>
   </g>
   <g id="patch_9">
    <path clip-path="url(#p3a619d0a8c)" d="M 167.481942 28.746847 
Q 169.120068 28.746847 170.315115 28.750658 
Q 172.04692 28.756129 172.434298 28.769847 
L 170.877192 28.769847 
Q 170.59109 28.76218 169.697336 28.758675 
Q 168.803583 28.755169 167.441432 28.755169 
Q 165.828625 28.755169 164.724725 28.76247 
Q 163.620826 28.769755 163.620826 28.784189 
Q 163.620826 28.796657 164.52977 28.804491 
Q 165.441247 28.812325 167.497133 28.812325 
Q 169.071962 28.812325 170.104969 28.806838 
Q 171.137976 28.801336 171.160763 28.789036 
L 167.522452 28.789036 
L 167.522452 28.781186 
L 172.624189 28.781186 
L 172.624189 28.818619 
L 171.611437 28.818619 
L 171.231655 28.809612 
Q 170.434113 28.814901 169.816335 28.816958 
Q 168.778264 28.820479 167.180648 28.820479 
Q 165.117166 28.820479 163.628421 28.812431 
Q 162.005487 28.802326 162.005487 28.784707 
Q 162.005487 28.767134 163.587911 28.756754 
Q 165.091848 28.746847 167.481942 28.746847 
z
M 167.221158 28.746741 
L 167.221158 28.746741 
z
" style="fill:#ffa600;"/>
   </g>
   <g id="patch_10">
    <path clip-path="url(#p3a619d0a8c)" d="M 178.659523 28.746847 
Q 180.297649 28.746847 181.492696 28.750658 
Q 183.224501 28.756129 183.611879 28.769847 
L 182.054773 28.769847 
Q 181.768671 28.76218 180.874917 28.758675 
Q 179.981164 28.755169 178.619013 28.755169 
Q 177.006206 28.755169 175.902306 28.76247 
Q 174.798407 28.769755 174.798407 28.784189 
Q 174.798407 28.796657 175.707352 28.804491 
Q 176.618828 28.812325 178.674714 28.812325 
Q 180.249543 28.812325 181.28255 28.806838 
Q 182.315557 28.801336 182.338344 28.789036 
L 178.700033 28.789036 
L 178.700033 28.781186 
L 183.80177 28.781186 
L 183.80177 28.818619 
L 182.789018 28.818619 
L 182.409236 28.809612 
Q 181.611694 28.814901 180.993916 28.816958 
Q 179.955845 28.820479 178.358229 28.820479 
Q 176.294748 28.820479 174.806003 28.812431 
Q 173.183068 28.802326 173.183068 28.784707 
Q 173.183068 28.767134 174.765492 28.756754 
Q 176.269429 28.746847 178.659523 28.746847 
z
M 178.398739 28.746741 
L 178.398739 28.746741 
z
" style="fill:#ffa600;"/>
   </g>
   <g id="patch_11">
    <path clip-path="url(#p3a619d0a8c)" d="M 191.488164 28.790267 
L 189.681663 28.757695 
L 187.761122 28.790267 
L 191.488164 28.790267 
z
M 188.83932 28.746741 
L 190.661373 28.746741 
L 194.979351 28.820479 
L 193.211727 28.820479 
L 192.006529 28.798394 
L 187.299777 28.798394 
L 186.011641 28.820479 
L 184.360649 28.820479 
L 188.83932 28.746741 
z
M 189.673888 28.746741 
L 189.673888 28.746741 
z
" style="fill:#008000;"/>
   </g>
   <g id="patch_12">
    <path clip-path="url(#p3a619d0a8c)" d="M 202.665746 28.790267 
L 200.859244 28.757695 
L 198.938703 28.790267 
L 202.665746 28.790267 
z
M 200.016902 28.746741 
L 201.838954 28.746741 
L 206.156932 28.820479 
L 204.389308 28.820479 
L 203.18411 28.798394 
L 198.477358 28.798394 
L 197.189222 28.820479 
L 195.53823 28.820479 
L 200.016902 28.746741 
z
M 200.851469 28.746741 
L 200.851469 28.746741 
z
" style="fill:#008000;"/>
   </g>
   <g id="patch_13">
    <path clip-path="url(#p3a619d0a8c)" d="M 212.192266 28.746847 
Q 213.830392 28.746847 215.025439 28.750658 
Q 216.757245 28.756129 217.144622 28.769847 
L 215.587517 28.769847 
Q 215.301414 28.76218 214.407661 28.758675 
Q 213.513907 28.755169 212.151756 28.755169 
Q 210.538949 28.755169 209.43505 28.76247 
Q 208.33115 28.769755 208.33115 28.784189 
Q 208.33115 28.796657 209.240095 28.804491 
Q 210.151572 28.812325 212.207458 28.812325 
Q 213.782287 28.812325 214.815293 28.806838 
Q 215.8483 28.801336 215.871087 28.789036 
L 212.232776 28.789036 
L 212.232776 28.781186 
L 217.334513 28.781186 
L 217.334513 28.818619 
L 216.321762 28.818619 
L 215.94198 28.809612 
Q 215.144438 28.814901 214.526659 28.816958 
Q 213.488589 28.820479 211.890973 28.820479 
Q 209.827491 28.820479 208.338746 28.812431 
Q 206.715811 28.802326 206.715811 28.784707 
Q 206.715811 28.767134 208.298236 28.756754 
Q 209.802172 28.746847 212.192266 28.746847 
z
M 211.931483 28.746741 
L 211.931483 28.746741 
z
" style="fill:#ffa600;"/>
   </g>
   <g id="patch_14">
    <path clip-path="url(#p3a619d0a8c)" d="M 225.020908 28.790267 
L 223.214407 28.757695 
L 221.293865 28.790267 
L 225.020908 28.790267 
z
M 222.372064 28.746741 
L 224.194116 28.746741 
L 228.512094 28.820479 
L 226.744471 28.820479 
L 225.539273 28.798394 
L 220.832521 28.798394 
L 219.544384 28.820479 
L 217.893392 28.820479 
L 222.372064 28.746741 
z
M 223.206631 28.746741 
L 223.206631 28.746741 
z
" style="fill:#008000;"/>
   </g>
   <g id="patch_15">
    <path clip-path="url(#p3a619d0a8c)" d="M 236.198489 28.790267 
L 234.391988 28.757695 
L 232.471446 28.790267 
L 236.198489 28.790267 
z
M 233.549645 28.746741 
L 235.371697 28.746741 
L 239.689676 28.820479 
L 237.922052 28.820479 
L 236.716854 28.798394 
L 232.010102 28.798394 
L 230.721965 28.820479 
L 229.070973 28.820479 
L 233.549645 28.746741 
z
M 234.384212 28.746741 
L 234.384212 28.746741 
z
" style="fill:#008000;"/>
   </g>
   <g id="patch_16">
    <path clip-path="url(#p3a619d0a8c)" d="M 245.72501 28.746847 
Q 247.363136 28.746847 248.558183 28.750658 
Q 250.289988 28.756129 250.677366 28.769847 
L 249.12026 28.769847 
Q 248.834158 28.76218 247.940404 28.758675 
Q 247.046651 28.755169 245.6845 28.755169 
Q 244.071692 28.755169 242.967793 28.76247 
Q 241.863894 28.769755 241.863894 28.784189 
Q 241.863894 28.796657 242.772838 28.804491 
Q 243.684315 28.812325 245.740201 28.812325 
Q 247.31503 28.812325 248.348037 28.806838 
Q 249.381043 28.801336 249.40383 28.789036 
L 245.76552 28.789036 
L 245.76552 28.781186 
L 250.867257 28.781186 
L 250.867257 28.818619 
L 249.854505 28.818619 
L 249.474723 28.809612 
Q 248.677181 28.814901 248.059402 28.816958 
Q 247.021332 28.820479 245.423716 28.820479 
Q 243.360234 28.820479 241.871489 28.812431 
Q 240.248555 28.802326 240.248555 28.784707 
Q 240.248555 28.767134 241.830979 28.756754 
Q 243.334916 28.746847 245.72501 28.746847 
z
M 245.464226 28.746741 
L 245.464226 28.746741 
z
" style="fill:#ffa600;"/>
   </g>
   <g id="patch_17">
    <path clip-path="url(#p3a619d0a8c)" d="M 258.553651 28.790267 
L 256.74715 28.757695 
L 254.826609 28.790267 
L 258.553651 28.790267 
z
M 255.904807 28.746741 
L 257.726859 28.746741 
L 262.044838 28.820479 
L 260.277214 28.820479 
L 259.072016 28.798394 
L 254.365264 28.798394 
L 253.077127 28.820479 
L 251.426136 28.820479 
L 255.904807 28.746741 
z
M 256.739374 28.746741 
L 256.739374 28.746741 
z
" style="fill:#008000;"/>
   </g>
   <g id="patch_18">
    <path clip-path="url(#p3a619d0a8c)" d="M 268.18688 28.746741 
Q 270.460826 28.746741 271.715147 28.753756 
Q 272.969468 28.760756 273.107678 28.769663 
L 271.52739 28.769663 
Q 271.258793 28.762907 270.455611 28.758957 
Q 269.652428 28.754991 268.202527 28.754991 
Q 266.434481 28.754991 265.347055 28.762266 
Q 264.259629 28.769526 264.259629 28.784532 
Q 264.259629 28.79684 265.240138 28.804496 
Q 266.223255 28.812137 268.171234 28.812137 
Q 269.962749 28.812137 270.901534 28.804084 
Q 271.397003 28.799844 271.642131 28.792921 
L 273.222419 28.792921 
Q 273.011192 28.803977 271.822065 28.811466 
Q 270.395633 28.820479 267.975654 28.820479 
Q 265.889465 28.820479 264.470856 28.813082 
Q 262.603717 28.803322 262.603717 28.782916 
Q 262.603717 28.767436 264.006679 28.757523 
Q 265.521774 28.746741 268.18688 28.746741 
z
M 267.860913 28.746741 
L 267.860913 28.746741 
z
" style="fill:#0000ff;"/>
   </g>
   <g id="patch_19">
    <path clip-path="url(#p3a619d0a8c)" d="M 284.4 28.746741 
L 284.4 28.755526 
L 279.990032 28.755526 
L 279.990032 28.820479 
L 278.191266 28.820479 
L 278.191266 28.755526 
L 273.781298 28.755526 
L 273.781298 28.746741 
L 284.4 28.746741 
z
" style="fill:#ff0000;"/>
   </g>
   <g id="patch_20">
    <path clip-path="url(#p3a619d0a8c)" d="M 102.067515 119.44143 
L 100.261014 136.053496 
L 98.340473 119.44143 
L 102.067515 119.44143 
z
M 99.418672 141.64 
L 101.240724 141.64 
L 105.558702 104.033493 
L 103.791078 104.033493 
L 102.58588 115.296605 
L 97.879128 115.296605 
L 96.590992 104.033493 
L 94.94 104.033493 
L 99.418672 141.64 
z
M 100.253239 141.64 
L 100.253239 141.64 
z
" style="fill:none;opacity:0;"/>
   </g>
   <g id="patch_21">
    <path clip-path="url(#p3a619d0a8c)" d="M 100.416455 103.979081 
Q 102.054581 103.979081 103.249628 102.035793 
Q 104.981434 99.245232 105.368811 92.249395 
L 103.811705 92.249395 
Q 103.525603 96.15929 102.63185 97.947115 
Q 101.738096 99.73494 100.375945 99.73494 
Q 98.763138 99.73494 97.659238 96.011601 
Q 96.555339 92.296034 96.555339 84.93486 
Q 96.555339 78.576422 97.464284 74.581022 
Q 98.37576 70.585622 100.431646 70.585622 
Q 102.006475 70.585622 103.039482 73.383957 
Q 104.072489 76.190064 104.095276 82.462998 
L 100.456965 82.462998 
L 100.456965 86.466171 
L 105.558702 86.466171 
L 105.558702 67.37531 
L 104.54595 67.37531 
L 104.166168 71.969243 
Q 103.368626 69.271959 102.750848 68.222584 
Q 101.712777 66.426986 100.115161 66.426986 
Q 98.05168 66.426986 96.562935 70.53121 
Q 94.94 75.684809 94.94 84.670573 
Q 94.94 93.633016 96.522425 98.926532 
Q 98.026361 103.979081 100.416455 103.979081 
z
M 100.155671 104.033493 
L 100.155671 104.033493 
z
" style="fill:none;opacity:0;"/>
   </g>
   <g id="patch_22">
    <path clip-path="url(#p3a619d0a8c)" d="M 105.558702 66.426986 
L 105.558702 61.946315 
L 101.148734 61.946315 
L 101.148734 28.820479 
L 99.349968 28.820479 
L 99.349968 61.946315 
L 94.94 61.946315 
L 94.94 66.426986 
L 105.558702 66.426986 
z
" style="fill:none;opacity:0;"/>
   </g>
   <g id="patch_23">
    <path clip-path="url(#p3a619d0a8c)" d="M 113.245097 119.44143 
L 111.438595 136.053496 
L 109.518054 119.44143 
L 113.245097 119.44143 
z
M 110.596253 141.64 
L 112.418305 141.64 
L 116.736283 104.033493 
L 114.968659 104.033493 
L 113.763461 115.296605 
L 109.056709 115.296605 
L 107.768573 104.033493 
L 106.117581 104.033493 
L 110.596253 141.64 
z
M 111.43082 141.64 
L 111.43082 141.64 
z
" style="fill:none;opacity:0;"/>
   </g>
   <g id="patch_24">
    <path clip-path="url(#p3a619d0a8c)" d="M 111.594036 103.979081 
Q 113.232162 103.979081 114.427209 102.035793 
Q 116.159015 99.245232 116.546392 92.249395 
L 114.989286 92.249395 
Q 114.703184 96.15929 113.809431 97.947115 
Q 112.915677 99.73494 111.553526 99.73494 
Q 109.940719 99.73494 108.83682 96.011601 
Q 107.73292 92.296034 107.73292 84.93486 
Q 107.73292 78.576422 108.641865 74.581022 
Q 109.553341 70.585622 111.609227 70.585622 
Q 113.184056 70.585622 114.217063 73.383957 
Q 115.25007 76.190064 115.272857 82.462998 
L 111.634546 82.462998 
L 111.634546 86.466171 
L 116.736283 86.466171 
L 116.736283 67.37531 
L 115.723531 67.37531 
L 115.34375 71.969243 
Q 114.546208 69.271959 113.928429 68.222584 
Q 112.890358 66.426986 111.292743 66.426986 
Q 109.229261 66.426986 107.740516 70.53121 
Q 106.117581 75.684809 106.117581 84.670573 
Q 106.117581 93.633016 107.700006 98.926532 
Q 109.203942 103.979081 111.594036 103.979081 
z
M 111.333253 104.033493 
L 111.333253 104.033493 
z
" style="fill:none;opacity:0;"/>
   </g>
   <g id="patch_25">
    <path clip-path="url(#p3a619d0a8c)" d="M 116.736283 66.426986 
L 116.736283 61.946315 
L 112.326315 61.946315 
L 112.326315 28.820479 
L 110.527549 28.820479 
L 110.527549 61.946315 
L 106.117581 61.946315 
L 106.117581 66.426986 
L 116.736283 66.426986 
z
" style="fill:none;opacity:0;"/>
   </g>
   <g id="patch_26">
    <path clip-path="url(#p3a619d0a8c)" d="M 124.422678 119.44143 
L 122.616176 136.053496 
L 120.695635 119.44143 
L 124.422678 119.44143 
z
M 121.773834 141.64 
L 123.595886 141.64 
L 127.913864 104.033493 
L 126.14624 104.033493 
L 124.941042 115.296605 
L 120.23429 115.296605 
L 118.946154 104.033493 
L 117.295162 104.033493 
L 121.773834 141.64 
z
M 122.608401 141.64 
L 122.608401 141.64 
z
" style="fill:none;opacity:0;"/>
   </g>
   <g id="patch_27">
    <path clip-path="url(#p3a619d0a8c)" d="M 122.771617 103.979081 
Q 124.409743 103.979081 125.60479 102.035793 
Q 127.336596 99.245232 127.723973 92.249395 
L 126.166868 92.249395 
Q 125.880765 96.15929 124.987012 97.947115 
Q 124.093258 99.73494 122.731107 99.73494 
Q 121.1183 99.73494 120.014401 96.011601 
Q 118.910501 92.296034 118.910501 84.93486 
Q 118.910501 78.576422 119.819446 74.581022 
Q 120.730923 70.585622 122.786809 70.585622 
Q 124.361638 70.585622 125.394644 73.383957 
Q 126.427651 76.190064 126.450438 82.462998 
L 122.812127 82.462998 
L 122.812127 86.466171 
L 127.913864 86.466171 
L 127.913864 67.37531 
L 126.901113 67.37531 
L 126.521331 71.969243 
Q 125.723789 69.271959 125.10601 68.222584 
Q 124.06794 66.426986 122.470324 66.426986 
Q 120.406842 66.426986 118.918097 70.53121 
Q 117.295162 75.684809 117.295162 84.670573 
Q 117.295162 93.633016 118.877587 98.926532 
Q 120.381523 103.979081 122.771617 103.979081 
z
M 122.510834 104.033493 
L 122.510834 104.033493 
z
" style="fill:none;opacity:0;"/>
   </g>
   <g id="patch_28">
    <path clip-path="url(#p3a619d0a8c)" d="M 127.913864 66.426986 
L 127.913864 61.946315 
L 123.503896 61.946315 
L 123.503896 28.820479 
L 121.705131 28.820479 
L 121.705131 61.946315 
L 117.295162 61.946315 
L 117.295162 66.426986 
L 127.913864 66.426986 
z
" style="fill:none;opacity:0;"/>
   </g>
   <g id="patch_29">
    <path clip-path="url(#p3a619d0a8c)" d="M 135.600259 119.44143 
L 133.793758 136.053496 
L 131.873216 119.44143 
L 135.600259 119.44143 
z
M 132.951415 141.64 
L 134.773467 141.64 
L 139.091445 104.033493 
L 137.323822 104.033493 
L 136.118624 115.296605 
L 131.411872 115.296605 
L 130.123735 104.033493 
L 128.472743 104.033493 
L 132.951415 141.64 
z
M 133.785982 141.64 
L 133.785982 141.64 
z
" style="fill:none;opacity:0;"/>
   </g>
   <g id="patch_30">
    <path clip-path="url(#p3a619d0a8c)" d="M 134.055907 104.033493 
Q 136.329853 104.033493 137.584174 100.455625 
Q 138.838495 96.885534 138.976705 92.343197 
L 137.396417 92.343197 
Q 137.12782 95.78884 136.324637 97.803335 
Q 135.521454 99.825609 134.071553 99.825609 
Q 132.303508 99.825609 131.216082 96.115515 
Q 130.128656 92.413199 130.128656 84.759672 
Q 130.128656 78.482847 131.109165 74.578303 
Q 132.092281 70.681538 134.04026 70.681538 
Q 135.831775 70.681538 136.77056 74.788309 
Q 137.26603 76.950586 137.511157 80.481786 
L 139.091445 80.481786 
Q 138.880219 74.842754 137.691091 71.023769 
Q 136.264659 66.426986 133.84468 66.426986 
Q 131.758491 66.426986 130.339883 70.199304 
Q 128.472743 75.177207 128.472743 85.584137 
Q 128.472743 93.478781 129.875705 98.534465 
Q 131.3908 104.033493 134.055907 104.033493 
z
M 133.72994 104.033493 
L 133.72994 104.033493 
z
" style="fill:none;opacity:0;"/>
   </g>
   <g id="patch_31">
    <path clip-path="url(#p3a619d0a8c)" d="M 133.949198 66.372574 
Q 135.587324 66.372574 136.782371 64.429286 
Q 138.514177 61.638725 138.901554 54.642888 
L 137.344449 54.642888 
Q 137.058346 58.552783 136.164593 60.340608 
Q 135.270839 62.128433 133.908688 62.128433 
Q 132.295881 62.128433 131.191982 58.405094 
Q 130.088082 54.689527 130.088082 47.328353 
Q 130.088082 40.969915 130.997027 36.974515 
Q 131.908504 32.979115 133.96439 32.979115 
Q 135.539219 32.979115 136.572225 35.77745 
Q 137.605232 38.583557 137.628019 44.856491 
L 133.989709 44.856491 
L 133.989709 48.859664 
L 139.091445 48.859664 
L 139.091445 29.768803 
L 138.078694 29.768803 
L 137.698912 34.362736 
Q 136.90137 31.665452 136.283591 30.616077 
Q 135.245521 28.820479 133.647905 28.820479 
Q 131.584423 28.820479 130.095678 32.924703 
Q 128.472743 38.078302 128.472743 47.064066 
Q 128.472743 56.026509 130.055168 61.320025 
Q 131.559104 66.372574 133.949198 66.372574 
z
M 133.688415 66.426986 
L 133.688415 66.426986 
z
" style="fill:none;opacity:0;"/>
   </g>
   <g id="patch_32">
    <path clip-path="url(#p3a619d0a8c)" d="M 146.77784 119.44143 
L 144.971339 136.053496 
L 143.050797 119.44143 
L 146.77784 119.44143 
z
M 144.128996 141.64 
L 145.951048 141.64 
L 150.269027 104.033493 
L 148.501403 104.033493 
L 147.296205 115.296605 
L 142.589453 115.296605 
L 141.301316 104.033493 
L 139.650324 104.033493 
L 144.128996 141.64 
z
M 144.963563 141.64 
L 144.963563 141.64 
z
" style="fill:none;opacity:0;"/>
   </g>
   <g id="patch_33">
    <path clip-path="url(#p3a619d0a8c)" d="M 145.12678 103.979081 
Q 146.764906 103.979081 147.959953 102.035793 
Q 149.691758 99.245232 150.079136 92.249395 
L 148.52203 92.249395 
Q 148.235927 96.15929 147.342174 97.947115 
Q 146.448421 99.73494 145.086269 99.73494 
Q 143.473462 99.73494 142.369563 96.011601 
Q 141.265664 92.296034 141.265664 84.93486 
Q 141.265664 78.576422 142.174608 74.581022 
Q 143.086085 70.585622 145.141971 70.585622 
Q 146.7168 70.585622 147.749807 73.383957 
Q 148.782813 76.190064 148.8056 82.462998 
L 145.16729 82.462998 
L 145.16729 86.466171 
L 150.269027 86.466171 
L 150.269027 67.37531 
L 149.256275 67.37531 
L 148.876493 71.969243 
Q 148.078951 69.271959 147.461172 68.222584 
Q 146.423102 66.426986 144.825486 66.426986 
Q 142.762004 66.426986 141.273259 70.53121 
Q 139.650324 75.684809 139.650324 84.670573 
Q 139.650324 93.633016 141.232749 98.926532 
Q 142.736685 103.979081 145.12678 103.979081 
z
M 144.865996 104.033493 
L 144.865996 104.033493 
z
" style="fill:none;opacity:0;"/>
   </g>
   <g id="patch_34">
    <path clip-path="url(#p3a619d0a8c)" d="M 150.269027 66.426986 
L 150.269027 61.946315 
L 145.859058 61.946315 
L 145.859058 28.820479 
L 144.060293 28.820479 
L 144.060293 61.946315 
L 139.650324 61.946315 
L 139.650324 66.426986 
L 150.269027 66.426986 
z
" style="fill:none;opacity:0;"/>
   </g>
   <g id="patch_35">
    <path clip-path="url(#p3a619d0a8c)" d="M 156.411069 141.64 
Q 158.685015 141.64 159.939336 138.062132 
Q 161.193657 134.492041 161.331867 129.949704 
L 159.751579 129.949704 
Q 159.482982 133.395347 158.679799 135.409842 
Q 157.876617 137.432116 156.426715 137.432116 
Q 154.65867 137.432116 153.571244 133.722022 
Q 152.483818 130.019706 152.483818 122.366179 
Q 152.483818 116.089354 153.464327 112.18481 
Q 154.447444 108.288045 156.395423 108.288045 
Q 158.186937 108.288045 159.125722 112.394816 
Q 159.621192 114.557093 159.866319 118.088293 
L 161.446608 118.088293 
Q 161.235381 112.449261 160.046253 108.630276 
Q 158.619822 104.033493 156.199842 104.033493 
Q 154.113653 104.033493 152.695045 107.805811 
Q 150.827906 112.783714 150.827906 123.190644 
Q 150.827906 131.085289 152.230868 136.140972 
Q 153.745962 141.64 156.411069 141.64 
z
M 156.085102 141.64 
L 156.085102 141.64 
z
" style="fill:none;opacity:0;"/>
   </g>
   <g id="patch_36">
    <path clip-path="url(#p3a619d0a8c)" d="M 156.304361 103.979081 
Q 157.942487 103.979081 159.137534 102.035793 
Q 160.869339 99.245232 161.256717 92.249395 
L 159.699611 92.249395 
Q 159.413509 96.15929 158.519755 97.947115 
Q 157.626002 99.73494 156.263851 99.73494 
Q 154.651043 99.73494 153.547144 96.011601 
Q 152.443245 92.296034 152.443245 84.93486 
Q 152.443245 78.576422 153.352189 74.581022 
Q 154.263666 70.585622 156.319552 70.585622 
Q 157.894381 70.585622 158.927388 73.383957 
Q 159.960394 76.190064 159.983181 82.462998 
L 156.344871 82.462998 
L 156.344871 86.466171 
L 161.446608 86.466171 
L 161.446608 67.37531 
L 160.433856 67.37531 
L 160.054074 71.969243 
Q 159.256532 69.271959 158.638753 68.222584 
Q 157.600683 66.426986 156.003067 66.426986 
Q 153.939585 66.426986 152.45084 70.53121 
Q 150.827906 75.684809 150.827906 84.670573 
Q 150.827906 93.633016 152.41033 98.926532 
Q 153.914267 103.979081 156.304361 103.979081 
z
M 156.043577 104.033493 
L 156.043577 104.033493 
z
" style="fill:none;opacity:0;"/>
   </g>
   <g id="patch_37">
    <path clip-path="url(#p3a619d0a8c)" d="M 161.446608 66.426986 
L 161.446608 61.946315 
L 157.036639 61.946315 
L 157.036639 28.820479 
L 155.237874 28.820479 
L 155.237874 61.946315 
L 150.827906 61.946315 
L 150.827906 66.426986 
L 161.446608 66.426986 
z
" style="fill:none;opacity:0;"/>
   </g>
   <g id="patch_38">
    <path clip-path="url(#p3a619d0a8c)" d="M 169.133002 119.44143 
L 167.326501 136.053496 
L 165.40596 119.44143 
L 169.133002 119.44143 
z
M 166.484158 141.64 
L 168.30621 141.64 
L 172.624189 104.033493 
L 170.856565 104.033493 
L 169.651367 115.296605 
L 164.944615 115.296605 
L 163.656478 104.033493 
L 162.005487 104.033493 
L 166.484158 141.64 
z
M 167.318725 141.64 
L 167.318725 141.64 
z
" style="fill:none;opacity:0;"/>
   </g>
   <g id="patch_39">
    <path clip-path="url(#p3a619d0a8c)" d="M 167.58865 104.033493 
Q 169.862596 104.033493 171.116917 100.455625 
Q 172.371238 96.885534 172.509448 92.343197 
L 170.92916 92.343197 
Q 170.660563 95.78884 169.857381 97.803335 
Q 169.054198 99.825609 167.604296 99.825609 
Q 165.836251 99.825609 164.748825 96.115515 
Q 163.661399 92.413199 163.661399 84.759672 
Q 163.661399 78.482847 164.641908 74.578303 
Q 165.625025 70.681538 167.573004 70.681538 
Q 169.364518 70.681538 170.303304 74.788309 
Q 170.798773 76.950586 171.043901 80.481786 
L 172.624189 80.481786 
Q 172.412962 74.842754 171.223834 71.023769 
Q 169.797403 66.426986 167.377423 66.426986 
Q 165.291234 66.426986 163.872626 70.199304 
Q 162.005487 75.177207 162.005487 85.584137 
Q 162.005487 93.478781 163.408449 98.534465 
Q 164.923544 104.033493 167.58865 104.033493 
z
M 167.262683 104.033493 
L 167.262683 104.033493 
z
" style="fill:none;opacity:0;"/>
   </g>
   <g id="patch_40">
    <path clip-path="url(#p3a619d0a8c)" d="M 172.624189 66.426986 
L 172.624189 61.946315 
L 168.21422 61.946315 
L 168.21422 28.820479 
L 166.415455 28.820479 
L 166.415455 61.946315 
L 162.005487 61.946315 
L 162.005487 66.426986 
L 172.624189 66.426986 
z
" style="fill:none;opacity:0;"/>
   </g>
   <g id="patch_41">
    <path clip-path="url(#p3a619d0a8c)" d="M 180.310583 119.44143 
L 178.504082 136.053496 
L 176.583541 119.44143 
L 180.310583 119.44143 
z
M 177.661739 141.64 
L 179.483791 141.64 
L 183.80177 104.033493 
L 182.034146 104.033493 
L 180.828948 115.296605 
L 176.122196 115.296605 
L 174.83406 104.033493 
L 173.183068 104.033493 
L 177.661739 141.64 
z
M 178.496307 141.64 
L 178.496307 141.64 
z
" style="fill:none;opacity:0;"/>
   </g>
   <g id="patch_42">
    <path clip-path="url(#p3a619d0a8c)" d="M 178.766231 104.033493 
Q 181.040177 104.033493 182.294498 100.455625 
Q 183.548819 96.885534 183.68703 92.343197 
L 182.106741 92.343197 
Q 181.838145 95.78884 181.034962 97.803335 
Q 180.231779 99.825609 178.781878 99.825609 
Q 177.013832 99.825609 175.926406 96.115515 
Q 174.83898 92.413199 174.83898 84.759672 
Q 174.83898 78.482847 175.819489 74.578303 
Q 176.802606 70.681538 178.750585 70.681538 
Q 180.5421 70.681538 181.480885 74.788309 
Q 181.976355 76.950586 182.221482 80.481786 
L 183.80177 80.481786 
Q 183.590543 74.842754 182.401416 71.023769 
Q 180.974984 66.426986 178.555005 66.426986 
Q 176.468816 66.426986 175.050207 70.199304 
Q 173.183068 75.177207 173.183068 85.584137 
Q 173.183068 93.478781 174.58603 98.534465 
Q 176.101125 104.033493 178.766231 104.033493 
z
M 178.440264 104.033493 
L 178.440264 104.033493 
z
" style="fill:none;opacity:0;"/>
   </g>
   <g id="patch_43">
    <path clip-path="url(#p3a619d0a8c)" d="M 183.80177 66.426986 
L 183.80177 61.946315 
L 179.391802 61.946315 
L 179.391802 28.820479 
L 177.593036 28.820479 
L 177.593036 61.946315 
L 173.183068 61.946315 
L 173.183068 66.426986 
L 183.80177 66.426986 
z
" style="fill:none;opacity:0;"/>
   </g>
   <g id="patch_44">
    <path clip-path="url(#p3a619d0a8c)" d="M 189.943812 141.64 
Q 192.217758 141.64 193.472079 138.062132 
Q 194.726401 134.492041 194.864611 129.949704 
L 193.284322 129.949704 
Q 193.015726 133.395347 192.212543 135.409842 
Q 191.40936 137.432116 189.959459 137.432116 
Q 188.191414 137.432116 187.103988 133.722022 
Q 186.016561 130.019706 186.016561 122.366179 
Q 186.016561 116.089354 186.99707 112.18481 
Q 187.980187 108.288045 189.928166 108.288045 
Q 191.719681 108.288045 192.658466 112.394816 
Q 193.153936 114.557093 193.399063 118.088293 
L 194.979351 118.088293 
Q 194.768124 112.449261 193.578997 108.630276 
Q 192.152565 104.033493 189.732586 104.033493 
Q 187.646397 104.033493 186.227788 107.805811 
Q 184.360649 112.783714 184.360649 123.190644 
Q 184.360649 131.085289 185.763611 136.140972 
Q 187.278706 141.64 189.943812 141.64 
z
M 189.617845 141.64 
L 189.617845 141.64 
z
" style="fill:none;opacity:0;"/>
   </g>
   <g id="patch_45">
    <path clip-path="url(#p3a619d0a8c)" d="M 189.837104 103.979081 
Q 191.47523 103.979081 192.670277 102.035793 
Q 194.402083 99.245232 194.78946 92.249395 
L 193.232354 92.249395 
Q 192.946252 96.15929 192.052498 97.947115 
Q 191.158745 99.73494 189.796594 99.73494 
Q 188.183787 99.73494 187.079887 96.011601 
Q 185.975988 92.296034 185.975988 84.93486 
Q 185.975988 78.576422 186.884933 74.581022 
Q 187.796409 70.585622 189.852295 70.585622 
Q 191.427124 70.585622 192.460131 73.383957 
Q 193.493138 76.190064 193.515925 82.462998 
L 189.877614 82.462998 
L 189.877614 86.466171 
L 194.979351 86.466171 
L 194.979351 67.37531 
L 193.966599 67.37531 
L 193.586817 71.969243 
Q 192.789275 69.271959 192.171497 68.222584 
Q 191.133426 66.426986 189.53581 66.426986 
Q 187.472329 66.426986 185.983584 70.53121 
Q 184.360649 75.684809 184.360649 84.670573 
Q 184.360649 93.633016 185.943074 98.926532 
Q 187.44701 103.979081 189.837104 103.979081 
z
M 189.57632 104.033493 
L 189.57632 104.033493 
z
" style="fill:none;opacity:0;"/>
   </g>
   <g id="patch_46">
    <path clip-path="url(#p3a619d0a8c)" d="M 194.979351 66.426986 
L 194.979351 61.946315 
L 190.569383 61.946315 
L 190.569383 28.820479 
L 188.770617 28.820479 
L 188.770617 61.946315 
L 184.360649 61.946315 
L 184.360649 66.426986 
L 194.979351 66.426986 
z
" style="fill:none;opacity:0;"/>
   </g>
   <g id="patch_47">
    <path clip-path="url(#p3a619d0a8c)" d="M 201.121393 141.64 
Q 203.395339 141.64 204.649661 138.062132 
Q 205.903982 134.492041 206.042192 129.949704 
L 204.461904 129.949704 
Q 204.193307 133.395347 203.390124 135.409842 
Q 202.586941 137.432116 201.13704 137.432116 
Q 199.368995 137.432116 198.281569 133.722022 
Q 197.194143 130.019706 197.194143 122.366179 
Q 197.194143 116.089354 198.174651 112.18481 
Q 199.157768 108.288045 201.105747 108.288045 
Q 202.897262 108.288045 203.836047 112.394816 
Q 204.331517 114.557093 204.576644 118.088293 
L 206.156932 118.088293 
Q 205.945706 112.449261 204.756578 108.630276 
Q 203.330146 104.033493 200.910167 104.033493 
Q 198.823978 104.033493 197.405369 107.805811 
Q 195.53823 112.783714 195.53823 123.190644 
Q 195.53823 131.085289 196.941192 136.140972 
Q 198.456287 141.64 201.121393 141.64 
z
M 200.795426 141.64 
L 200.795426 141.64 
z
" style="fill:none;opacity:0;"/>
   </g>
   <g id="patch_48">
    <path clip-path="url(#p3a619d0a8c)" d="M 201.014685 103.979081 
Q 202.652811 103.979081 203.847858 102.035793 
Q 205.579664 99.245232 205.967041 92.249395 
L 204.409935 92.249395 
Q 204.123833 96.15929 203.23008 97.947115 
Q 202.336326 99.73494 200.974175 99.73494 
Q 199.361368 99.73494 198.257469 96.011601 
Q 197.153569 92.296034 197.153569 84.93486 
Q 197.153569 78.576422 198.062514 74.581022 
Q 198.97399 70.585622 201.029876 70.585622 
Q 202.604705 70.585622 203.637712 73.383957 
Q 204.670719 76.190064 204.693506 82.462998 
L 201.055195 82.462998 
L 201.055195 86.466171 
L 206.156932 86.466171 
L 206.156932 67.37531 
L 205.14418 67.37531 
L 204.764399 71.969243 
Q 203.966857 69.271959 203.349078 68.222584 
Q 202.311007 66.426986 200.713392 66.426986 
Q 198.64991 66.426986 197.161165 70.53121 
Q 195.53823 75.684809 195.53823 84.670573 
Q 195.53823 93.633016 197.120655 98.926532 
Q 198.624591 103.979081 201.014685 103.979081 
z
M 200.753902 104.033493 
L 200.753902 104.033493 
z
" style="fill:none;opacity:0;"/>
   </g>
   <g id="patch_49">
    <path clip-path="url(#p3a619d0a8c)" d="M 206.156932 66.426986 
L 206.156932 61.946315 
L 201.746964 61.946315 
L 201.746964 28.820479 
L 199.948198 28.820479 
L 199.948198 61.946315 
L 195.53823 61.946315 
L 195.53823 66.426986 
L 206.156932 66.426986 
z
" style="fill:none;opacity:0;"/>
   </g>
   <g id="patch_50">
    <path clip-path="url(#p3a619d0a8c)" d="M 213.843327 119.44143 
L 212.036825 136.053496 
L 210.116284 119.44143 
L 213.843327 119.44143 
z
M 211.194483 141.64 
L 213.016535 141.64 
L 217.334513 104.033493 
L 215.566889 104.033493 
L 214.361691 115.296605 
L 209.654939 115.296605 
L 208.366803 104.033493 
L 206.715811 104.033493 
L 211.194483 141.64 
z
M 212.02905 141.64 
L 212.02905 141.64 
z
" style="fill:none;opacity:0;"/>
   </g>
   <g id="patch_51">
    <path clip-path="url(#p3a619d0a8c)" d="M 212.298975 104.033493 
Q 214.572921 104.033493 215.827242 100.455625 
Q 217.081563 96.885534 217.219773 92.343197 
L 215.639485 92.343197 
Q 215.370888 95.78884 214.567705 97.803335 
Q 213.764522 99.825609 212.314621 99.825609 
Q 210.546576 99.825609 209.45915 96.115515 
Q 208.371724 92.413199 208.371724 84.759672 
Q 208.371724 78.482847 209.352233 74.578303 
Q 210.335349 70.681538 212.283328 70.681538 
Q 214.074843 70.681538 215.013628 74.788309 
Q 215.509098 76.950586 215.754225 80.481786 
L 217.334513 80.481786 
Q 217.123287 74.842754 215.934159 71.023769 
Q 214.507727 66.426986 212.087748 66.426986 
Q 210.001559 66.426986 208.58295 70.199304 
Q 206.715811 75.177207 206.715811 85.584137 
Q 206.715811 93.478781 208.118773 98.534465 
Q 209.633868 104.033493 212.298975 104.033493 
z
M 211.973008 104.033493 
L 211.973008 104.033493 
z
" style="fill:none;opacity:0;"/>
   </g>
   <g id="patch_52">
    <path clip-path="url(#p3a619d0a8c)" d="M 217.334513 66.426986 
L 217.334513 61.946315 
L 212.924545 61.946315 
L 212.924545 28.820479 
L 211.12578 28.820479 
L 211.12578 61.946315 
L 206.715811 61.946315 
L 206.715811 66.426986 
L 217.334513 66.426986 
z
" style="fill:none;opacity:0;"/>
   </g>
   <g id="patch_53">
    <path clip-path="url(#p3a619d0a8c)" d="M 223.476556 141.64 
Q 225.750502 141.64 227.004823 138.062132 
Q 228.259144 134.492041 228.397354 129.949704 
L 226.817066 129.949704 
Q 226.548469 133.395347 225.745286 135.409842 
Q 224.942103 137.432116 223.492202 137.432116 
Q 221.724157 137.432116 220.636731 133.722022 
Q 219.549305 130.019706 219.549305 122.366179 
Q 219.549305 116.089354 220.529814 112.18481 
Q 221.51293 108.288045 223.460909 108.288045 
Q 225.252424 108.288045 226.191209 112.394816 
Q 226.686679 114.557093 226.931806 118.088293 
L 228.512094 118.088293 
Q 228.300868 112.449261 227.11174 108.630276 
Q 225.685308 104.033493 223.265329 104.033493 
Q 221.17914 104.033493 219.760531 107.805811 
Q 217.893392 112.783714 217.893392 123.190644 
Q 217.893392 131.085289 219.296354 136.140972 
Q 220.811449 141.64 223.476556 141.64 
z
M 223.150589 141.64 
L 223.150589 141.64 
z
" style="fill:none;opacity:0;"/>
   </g>
   <g id="patch_54">
    <path clip-path="url(#p3a619d0a8c)" d="M 223.369847 103.979081 
Q 225.007973 103.979081 226.20302 102.035793 
Q 227.934826 99.245232 228.322203 92.249395 
L 226.765098 92.249395 
Q 226.478995 96.15929 225.585242 97.947115 
Q 224.691488 99.73494 223.329337 99.73494 
Q 221.71653 99.73494 220.612631 96.011601 
Q 219.508731 92.296034 219.508731 84.93486 
Q 219.508731 78.576422 220.417676 74.581022 
Q 221.329153 70.585622 223.385039 70.585622 
Q 224.959868 70.585622 225.992874 73.383957 
Q 227.025881 76.190064 227.048668 82.462998 
L 223.410357 82.462998 
L 223.410357 86.466171 
L 228.512094 86.466171 
L 228.512094 67.37531 
L 227.499343 67.37531 
L 227.119561 71.969243 
Q 226.322019 69.271959 225.70424 68.222584 
Q 224.66617 66.426986 223.068554 66.426986 
Q 221.005072 66.426986 219.516327 70.53121 
Q 217.893392 75.684809 217.893392 84.670573 
Q 217.893392 93.633016 219.475817 98.926532 
Q 220.979753 103.979081 223.369847 103.979081 
z
M 223.109064 104.033493 
L 223.109064 104.033493 
z
" style="fill:none;opacity:0;"/>
   </g>
   <g id="patch_55">
    <path clip-path="url(#p3a619d0a8c)" d="M 228.512094 66.426986 
L 228.512094 61.946315 
L 224.102126 61.946315 
L 224.102126 28.820479 
L 222.303361 28.820479 
L 222.303361 61.946315 
L 217.893392 61.946315 
L 217.893392 66.426986 
L 228.512094 66.426986 
z
" style="fill:none;opacity:0;"/>
   </g>
   <g id="patch_56">
    <path clip-path="url(#p3a619d0a8c)" d="M 234.654137 141.64 
Q 236.928083 141.64 238.182404 138.062132 
Q 239.436725 134.492041 239.574935 129.949704 
L 237.994647 129.949704 
Q 237.72605 133.395347 236.922867 135.409842 
Q 236.119685 137.432116 234.669783 137.432116 
Q 232.901738 137.432116 231.814312 133.722022 
Q 230.726886 130.019706 230.726886 122.366179 
Q 230.726886 116.089354 231.707395 112.18481 
Q 232.690511 108.288045 234.63849 108.288045 
Q 236.430005 108.288045 237.36879 112.394816 
Q 237.86426 114.557093 238.109387 118.088293 
L 239.689676 118.088293 
Q 239.478449 112.449261 238.289321 108.630276 
Q 236.862889 104.033493 234.44291 104.033493 
Q 232.356721 104.033493 230.938113 107.805811 
Q 229.070973 112.783714 229.070973 123.190644 
Q 229.070973 131.085289 230.473936 136.140972 
Q 231.98903 141.64 234.654137 141.64 
z
M 234.32817 141.64 
L 234.32817 141.64 
z
" style="fill:none;opacity:0;"/>
   </g>
   <g id="patch_57">
    <path clip-path="url(#p3a619d0a8c)" d="M 234.547429 103.979081 
Q 236.185554 103.979081 237.380602 102.035793 
Q 239.112407 99.245232 239.499785 92.249395 
L 237.942679 92.249395 
Q 237.656576 96.15929 236.762823 97.947115 
Q 235.86907 99.73494 234.506918 99.73494 
Q 232.894111 99.73494 231.790212 96.011601 
Q 230.686312 92.296034 230.686312 84.93486 
Q 230.686312 78.576422 231.595257 74.581022 
Q 232.506734 70.585622 234.56262 70.585622 
Q 236.137449 70.585622 237.170456 73.383957 
Q 238.203462 76.190064 238.226249 82.462998 
L 234.587939 82.462998 
L 234.587939 86.466171 
L 239.689676 86.466171 
L 239.689676 67.37531 
L 238.676924 67.37531 
L 238.297142 71.969243 
Q 237.4996 69.271959 236.881821 68.222584 
Q 235.843751 66.426986 234.246135 66.426986 
Q 232.182653 66.426986 230.693908 70.53121 
Q 229.070973 75.684809 229.070973 84.670573 
Q 229.070973 93.633016 230.653398 98.926532 
Q 232.157334 103.979081 234.547429 103.979081 
z
M 234.286645 104.033493 
L 234.286645 104.033493 
z
" style="fill:none;opacity:0;"/>
   </g>
   <g id="patch_58">
    <path clip-path="url(#p3a619d0a8c)" d="M 239.689676 66.426986 
L 239.689676 61.946315 
L 235.279707 61.946315 
L 235.279707 28.820479 
L 233.480942 28.820479 
L 233.480942 61.946315 
L 229.070973 61.946315 
L 229.070973 66.426986 
L 239.689676 66.426986 
z
" style="fill:none;opacity:0;"/>
   </g>
   <g id="patch_59">
    <path clip-path="url(#p3a619d0a8c)" d="M 247.37607 119.44143 
L 245.569569 136.053496 
L 243.649027 119.44143 
L 247.37607 119.44143 
z
M 244.727226 141.64 
L 246.549278 141.64 
L 250.867257 104.033493 
L 249.099633 104.033493 
L 247.894435 115.296605 
L 243.187683 115.296605 
L 241.899546 104.033493 
L 240.248555 104.033493 
L 244.727226 141.64 
z
M 245.561793 141.64 
L 245.561793 141.64 
z
" style="fill:none;opacity:0;"/>
   </g>
   <g id="patch_60">
    <path clip-path="url(#p3a619d0a8c)" d="M 245.831718 104.033493 
Q 248.105664 104.033493 249.359985 100.455625 
Q 250.614306 96.885534 250.752516 92.343197 
L 249.172228 92.343197 
Q 248.903631 95.78884 248.100448 97.803335 
Q 247.297266 99.825609 245.847364 99.825609 
Q 244.079319 99.825609 242.991893 96.115515 
Q 241.904467 92.413199 241.904467 84.759672 
Q 241.904467 78.482847 242.884976 74.578303 
Q 243.868093 70.681538 245.816071 70.681538 
Q 247.607586 70.681538 248.546371 74.788309 
Q 249.041841 76.950586 249.286968 80.481786 
L 250.867257 80.481786 
Q 250.65603 74.842754 249.466902 71.023769 
Q 248.040471 66.426986 245.620491 66.426986 
Q 243.534302 66.426986 242.115694 70.199304 
Q 240.248555 75.177207 240.248555 85.584137 
Q 240.248555 93.478781 241.651517 98.534465 
Q 243.166611 104.033493 245.831718 104.033493 
z
M 245.505751 104.033493 
L 245.505751 104.033493 
z
" style="fill:none;opacity:0;"/>
   </g>
   <g id="patch_61">
    <path clip-path="url(#p3a619d0a8c)" d="M 250.867257 66.426986 
L 250.867257 61.946315 
L 246.457288 61.946315 
L 246.457288 28.820479 
L 244.658523 28.820479 
L 244.658523 61.946315 
L 240.248555 61.946315 
L 240.248555 66.426986 
L 250.867257 66.426986 
z
" style="fill:none;opacity:0;"/>
   </g>
   <g id="patch_62">
    <path clip-path="url(#p3a619d0a8c)" d="M 257.009299 141.64 
Q 259.283245 141.64 260.537566 138.062132 
Q 261.791887 134.492041 261.930097 129.949704 
L 260.349809 129.949704 
Q 260.081212 133.395347 259.27803 135.409842 
Q 258.474847 137.432116 257.024945 137.432116 
Q 255.2569 137.432116 254.169474 133.722022 
Q 253.082048 130.019706 253.082048 122.366179 
Q 253.082048 116.089354 254.062557 112.18481 
Q 255.045674 108.288045 256.993653 108.288045 
Q 258.785167 108.288045 259.723952 112.394816 
Q 260.219422 114.557093 260.46455 118.088293 
L 262.044838 118.088293 
Q 261.833611 112.449261 260.644483 108.630276 
Q 259.218052 104.033493 256.798072 104.033493 
Q 254.711883 104.033493 253.293275 107.805811 
Q 251.426136 112.783714 251.426136 123.190644 
Q 251.426136 131.085289 252.829098 136.140972 
Q 254.344193 141.64 257.009299 141.64 
z
M 256.683332 141.64 
L 256.683332 141.64 
z
" style="fill:none;opacity:0;"/>
   </g>
   <g id="patch_63">
    <path clip-path="url(#p3a619d0a8c)" d="M 256.902591 103.979081 
Q 258.540717 103.979081 259.735764 102.035793 
Q 261.467569 99.245232 261.854947 92.249395 
L 260.297841 92.249395 
Q 260.011739 96.15929 259.117985 97.947115 
Q 258.224232 99.73494 256.862081 99.73494 
Q 255.249274 99.73494 254.145374 96.011601 
Q 253.041475 92.296034 253.041475 84.93486 
Q 253.041475 78.576422 253.950419 74.581022 
Q 254.861896 70.585622 256.917782 70.585622 
Q 258.492611 70.585622 259.525618 73.383957 
Q 260.558625 76.190064 260.581411 82.462998 
L 256.943101 82.462998 
L 256.943101 86.466171 
L 262.044838 86.466171 
L 262.044838 67.37531 
L 261.032086 67.37531 
L 260.652304 71.969243 
Q 259.854762 69.271959 259.236984 68.222584 
Q 258.198913 66.426986 256.601297 66.426986 
Q 254.537815 66.426986 253.04907 70.53121 
Q 251.426136 75.684809 251.426136 84.670573 
Q 251.426136 93.633016 253.00856 98.926532 
Q 254.512497 103.979081 256.902591 103.979081 
z
M 256.641807 104.033493 
L 256.641807 104.033493 
z
" style="fill:none;opacity:0;"/>
   </g>
   <g id="patch_64">
    <path clip-path="url(#p3a619d0a8c)" d="M 262.044838 66.426986 
L 262.044838 61.946315 
L 257.634869 61.946315 
L 257.634869 28.820479 
L 255.836104 28.820479 
L 255.836104 61.946315 
L 251.426136 61.946315 
L 251.426136 66.426986 
L 262.044838 66.426986 
z
" style="fill:none;opacity:0;"/>
   </g>
   <g id="patch_65">
    <path clip-path="url(#p3a619d0a8c)" d="M 269.731232 119.44143 
L 267.924731 136.053496 
L 266.00419 119.44143 
L 269.731232 119.44143 
z
M 267.082388 141.64 
L 268.90444 141.64 
L 273.222419 104.033493 
L 271.454795 104.033493 
L 270.249597 115.296605 
L 265.542845 115.296605 
L 264.254709 104.033493 
L 262.603717 104.033493 
L 267.082388 141.64 
z
M 267.916956 141.64 
L 267.916956 141.64 
z
" style="fill:none;opacity:0;"/>
   </g>
   <g id="patch_66">
    <path clip-path="url(#p3a619d0a8c)" d="M 268.080172 103.979081 
Q 269.718298 103.979081 270.913345 102.035793 
Q 272.64515 99.245232 273.032528 92.249395 
L 271.475422 92.249395 
Q 271.18932 96.15929 270.295566 97.947115 
Q 269.401813 99.73494 268.039662 99.73494 
Q 266.426855 99.73494 265.322955 96.011601 
Q 264.219056 92.296034 264.219056 84.93486 
Q 264.219056 78.576422 265.128001 74.581022 
Q 266.039477 70.585622 268.095363 70.585622 
Q 269.670192 70.585622 270.703199 73.383957 
Q 271.736206 76.190064 271.758993 82.462998 
L 268.120682 82.462998 
L 268.120682 86.466171 
L 273.222419 86.466171 
L 273.222419 67.37531 
L 272.209667 67.37531 
L 271.829885 71.969243 
Q 271.032343 69.271959 270.414565 68.222584 
Q 269.376494 66.426986 267.778878 66.426986 
Q 265.715397 66.426986 264.226651 70.53121 
Q 262.603717 75.684809 262.603717 84.670573 
Q 262.603717 93.633016 264.186141 98.926532 
Q 265.690078 103.979081 268.080172 103.979081 
z
M 267.819388 104.033493 
L 267.819388 104.033493 
z
" style="fill:none;opacity:0;"/>
   </g>
   <g id="patch_67">
    <path clip-path="url(#p3a619d0a8c)" d="M 273.222419 66.426986 
L 273.222419 61.946315 
L 268.812451 61.946315 
L 268.812451 28.820479 
L 267.013685 28.820479 
L 267.013685 61.946315 
L 262.603717 61.946315 
L 262.603717 66.426986 
L 273.222419 66.426986 
z
" style="fill:none;opacity:0;"/>
   </g>
   <g id="patch_68">
    <path clip-path="url(#p3a619d0a8c)" d="M 280.908813 119.44143 
L 279.102312 136.053496 
L 277.181771 119.44143 
L 280.908813 119.44143 
z
M 278.259969 141.64 
L 280.082022 141.64 
L 284.4 104.033493 
L 282.632376 104.033493 
L 281.427178 115.296605 
L 276.720426 115.296605 
L 275.43229 104.033493 
L 273.781298 104.033493 
L 278.259969 141.64 
z
M 279.094537 141.64 
L 279.094537 141.64 
z
" style="fill:none;opacity:0;"/>
   </g>
   <g id="patch_69">
    <path clip-path="url(#p3a619d0a8c)" d="M 279.364461 104.033493 
Q 281.638407 104.033493 282.892728 100.455625 
Q 284.14705 96.885534 284.28526 92.343197 
L 282.704971 92.343197 
Q 282.436375 95.78884 281.633192 97.803335 
Q 280.830009 99.825609 279.380108 99.825609 
Q 277.612063 99.825609 276.524636 96.115515 
Q 275.43721 92.413199 275.43721 84.759672 
Q 275.43721 78.482847 276.417719 74.578303 
Q 277.400836 70.681538 279.348815 70.681538 
Q 281.14033 70.681538 282.079115 74.788309 
Q 282.574585 76.950586 282.819712 80.481786 
L 284.4 80.481786 
Q 284.188773 74.842754 282.999646 71.023769 
Q 281.573214 66.426986 279.153235 66.426986 
Q 277.067046 66.426986 275.648437 70.199304 
Q 273.781298 75.177207 273.781298 85.584137 
Q 273.781298 93.478781 275.18426 98.534465 
Q 276.699355 104.033493 279.364461 104.033493 
z
M 279.038494 104.033493 
L 279.038494 104.033493 
z
" style="fill:none;opacity:0;"/>
   </g>
   <g id="patch_70">
    <path clip-path="url(#p3a619d0a8c)" d="M 279.257753 66.372574 
Q 280.895879 66.372574 282.090926 64.429286 
Q 283.822732 61.638725 284.210109 54.642888 
L 282.653003 54.642888 
Q 282.366901 58.552783 281.473147 60.340608 
Q 280.579394 62.128433 279.217243 62.128433 
Q 277.604436 62.128433 276.500536 58.405094 
Q 275.396637 54.689527 275.396637 47.328353 
Q 275.396637 40.969915 276.305582 36.974515 
Q 277.217058 32.979115 279.272944 32.979115 
Q 280.847773 32.979115 281.88078 35.77745 
Q 282.913787 38.583557 282.936574 44.856491 
L 279.298263 44.856491 
L 279.298263 48.859664 
L 284.4 48.859664 
L 284.4 29.768803 
L 283.387248 29.768803 
L 283.007466 34.362736 
Q 282.209924 31.665452 281.592146 30.616077 
Q 280.554075 28.820479 278.956459 28.820479 
Q 276.892978 28.820479 275.404233 32.924703 
Q 273.781298 38.078302 273.781298 47.064066 
Q 273.781298 56.026509 275.363723 61.320025 
Q 276.867659 66.372574 279.257753 66.372574 
z
M 278.996969 66.426986 
L 278.996969 66.426986 
z
" style="fill:none;opacity:0;"/>
   </g>
   <g id="matplotlib.axis_1">
    <g id="xtick_1">
     <g id="line2d_2">
      <path clip-path="url(#p3a619d0a8c)" d="M 100.249351 141.64 
L 100.249351 28.746741 
" style="fill:none;stroke:#cccccc;stroke-linecap:round;stroke-width:0.8;"/>
     </g>
     <g id="text_1">
      <!-- 0 -->
      <g style="fill:#262626;" transform="translate(94.688414 162.986875)scale(0.2 -0.2)">
       <defs>
        <path d="M 1731 4475 
Q 2600 4475 2988 3759 
Q 3288 3206 3288 2244 
Q 3288 1331 3016 734 
Q 2622 -122 1728 -122 
Q 922 -122 528 578 
Q 200 1163 200 2147 
Q 200 2909 397 3456 
Q 766 4475 1731 4475 
z
M 1725 391 
Q 2163 391 2422 778 
Q 2681 1166 2681 2222 
Q 2681 2984 2493 3476 
Q 2306 3969 1766 3969 
Q 1269 3969 1039 3501 
Q 809 3034 809 2125 
Q 809 1441 956 1025 
Q 1181 391 1725 391 
z
" id="Helvetica-30" transform="scale(0.015625)"/>
       </defs>
       <use xlink:href="#Helvetica-30"/>
      </g>
     </g>
    </g>
    <g id="xtick_2">
     <g id="line2d_3">
      <path clip-path="url(#p3a619d0a8c)" d="M 212.025162 141.64 
L 212.025162 28.746741 
" style="fill:none;stroke:#cccccc;stroke-linecap:round;stroke-width:0.8;"/>
     </g>
     <g id="text_2">
      <!-- 10 -->
      <g style="fill:#262626;" transform="translate(200.903287 162.986875)scale(0.2 -0.2)">
       <defs>
        <path d="M 613 3169 
L 613 3600 
Q 1222 3659 1462 3798 
Q 1703 3938 1822 4456 
L 2266 4456 
L 2266 0 
L 1666 0 
L 1666 3169 
L 613 3169 
z
" id="Helvetica-31" transform="scale(0.015625)"/>
       </defs>
       <use xlink:href="#Helvetica-31"/>
       <use x="55.615234" xlink:href="#Helvetica-30"/>
      </g>
     </g>
    </g>
    <g id="text_3">
     <!-- Position -->
     <g style="fill:#262626;" transform="translate(145.20125 189.089219)scale(0.25 -0.25)">
      <defs>
       <path d="M 547 4591 
L 2613 4591 
Q 3225 4591 3600 4245 
Q 3975 3900 3975 3275 
Q 3975 2738 3640 2339 
Q 3306 1941 2613 1941 
L 1169 1941 
L 1169 0 
L 547 0 
L 547 4591 
z
M 3347 3272 
Q 3347 3778 2972 3959 
Q 2766 4056 2406 4056 
L 1169 4056 
L 1169 2466 
L 2406 2466 
Q 2825 2466 3086 2644 
Q 3347 2822 3347 3272 
z
" id="Helvetica-50" transform="scale(0.015625)"/>
       <path d="M 1741 363 
Q 2300 363 2508 786 
Q 2716 1209 2716 1728 
Q 2716 2197 2566 2491 
Q 2328 2953 1747 2953 
Q 1231 2953 997 2559 
Q 763 2166 763 1609 
Q 763 1075 997 719 
Q 1231 363 1741 363 
z
M 1763 3444 
Q 2409 3444 2856 3012 
Q 3303 2581 3303 1744 
Q 3303 934 2909 406 
Q 2516 -122 1688 -122 
Q 997 -122 590 345 
Q 184 813 184 1600 
Q 184 2444 612 2944 
Q 1041 3444 1763 3444 
z
M 1744 3428 
L 1744 3428 
z
" id="Helvetica-6f" transform="scale(0.015625)"/>
       <path d="M 747 1050 
Q 772 769 888 619 
Q 1100 347 1625 347 
Q 1938 347 2175 483 
Q 2413 619 2413 903 
Q 2413 1119 2222 1231 
Q 2100 1300 1741 1391 
L 1294 1503 
Q 866 1609 663 1741 
Q 300 1969 300 2372 
Q 300 2847 642 3140 
Q 984 3434 1563 3434 
Q 2319 3434 2653 2991 
Q 2863 2709 2856 2384 
L 2325 2384 
Q 2309 2575 2191 2731 
Q 1997 2953 1519 2953 
Q 1200 2953 1036 2831 
Q 872 2709 872 2509 
Q 872 2291 1088 2159 
Q 1213 2081 1456 2022 
L 1828 1931 
Q 2434 1784 2641 1647 
Q 2969 1431 2969 969 
Q 2969 522 2630 197 
Q 2291 -128 1597 -128 
Q 850 -128 539 211 
Q 228 550 206 1050 
L 747 1050 
z
M 1578 3428 
L 1578 3428 
z
" id="Helvetica-73" transform="scale(0.015625)"/>
       <path d="M 413 3331 
L 984 3331 
L 984 0 
L 413 0 
L 413 3331 
z
M 413 4591 
L 984 4591 
L 984 3953 
L 413 3953 
L 413 4591 
z
" id="Helvetica-69" transform="scale(0.015625)"/>
       <path d="M 525 4281 
L 1094 4281 
L 1094 3347 
L 1628 3347 
L 1628 2888 
L 1094 2888 
L 1094 703 
Q 1094 528 1213 469 
Q 1278 434 1431 434 
Q 1472 434 1519 436 
Q 1566 438 1628 444 
L 1628 0 
Q 1531 -28 1426 -40 
Q 1322 -53 1200 -53 
Q 806 -53 665 148 
Q 525 350 525 672 
L 525 2888 
L 72 2888 
L 72 3347 
L 525 3347 
L 525 4281 
z
" id="Helvetica-74" transform="scale(0.015625)"/>
       <path d="M 413 3347 
L 947 3347 
L 947 2872 
Q 1184 3166 1450 3294 
Q 1716 3422 2041 3422 
Q 2753 3422 3003 2925 
Q 3141 2653 3141 2147 
L 3141 0 
L 2569 0 
L 2569 2109 
Q 2569 2416 2478 2603 
Q 2328 2916 1934 2916 
Q 1734 2916 1606 2875 
Q 1375 2806 1200 2600 
Q 1059 2434 1017 2257 
Q 975 2081 975 1753 
L 975 0 
L 413 0 
L 413 3347 
z
M 1734 3428 
L 1734 3428 
z
" id="Helvetica-6e" transform="scale(0.015625)"/>
      </defs>
      <use xlink:href="#Helvetica-50"/>
      <use x="66.699219" xlink:href="#Helvetica-6f"/>
      <use x="122.314453" xlink:href="#Helvetica-73"/>
      <use x="172.314453" xlink:href="#Helvetica-69"/>
      <use x="194.53125" xlink:href="#Helvetica-74"/>
      <use x="222.314453" xlink:href="#Helvetica-69"/>
      <use x="244.53125" xlink:href="#Helvetica-6f"/>
      <use x="300.146484" xlink:href="#Helvetica-6e"/>
     </g>
    </g>
   </g>
   <g id="matplotlib.axis_2">
    <g id="ytick_1">
     <g id="line2d_4">
      <path clip-path="url(#p3a619d0a8c)" d="M 94.94 28.820479 
L 284.4 28.820479 
" style="fill:none;stroke:#cccccc;stroke-linecap:round;stroke-width:0.8;"/>
     </g>
     <g id="text_4">
      <!-- 0 -->
      <g style="fill:#262626;" transform="translate(76.818125 35.993916)scale(0.2 -0.2)">
       <use xlink:href="#Helvetica-30"/>
      </g>
     </g>
    </g>
    <g id="ytick_2">
     <g id="line2d_5">
      <path clip-path="url(#p3a619d0a8c)" d="M 94.94 28.811262 
L 284.4 28.811262 
" style="fill:none;stroke:#cccccc;stroke-linecap:round;stroke-width:0.8;"/>
     </g>
     <g id="text_5">
      <!-- 0.25 -->
      <g style="fill:#262626;" transform="translate(49.018125 35.984699)scale(0.2 -0.2)">
       <defs>
        <path d="M 547 681 
L 1200 681 
L 1200 0 
L 547 0 
L 547 681 
z
" id="Helvetica-2e" transform="scale(0.015625)"/>
        <path d="M 200 0 
Q 231 578 439 1006 
Q 647 1434 1250 1784 
L 1850 2131 
Q 2253 2366 2416 2531 
Q 2672 2791 2672 3125 
Q 2672 3516 2437 3745 
Q 2203 3975 1813 3975 
Q 1234 3975 1013 3538 
Q 894 3303 881 2888 
L 309 2888 
Q 319 3472 525 3841 
Q 891 4491 1816 4491 
Q 2584 4491 2939 4075 
Q 3294 3659 3294 3150 
Q 3294 2613 2916 2231 
Q 2697 2009 2131 1694 
L 1703 1456 
Q 1397 1288 1222 1134 
Q 909 863 828 531 
L 3272 531 
L 3272 0 
L 200 0 
z
" id="Helvetica-32" transform="scale(0.015625)"/>
        <path d="M 791 1141 
Q 847 659 1238 475 
Q 1438 381 1700 381 
Q 2200 381 2440 700 
Q 2681 1019 2681 1406 
Q 2681 1875 2395 2131 
Q 2109 2388 1709 2388 
Q 1419 2388 1211 2275 
Q 1003 2163 856 1963 
L 369 1991 
L 709 4400 
L 3034 4400 
L 3034 3856 
L 1131 3856 
L 941 2613 
Q 1097 2731 1238 2791 
Q 1488 2894 1816 2894 
Q 2431 2894 2859 2497 
Q 3288 2100 3288 1491 
Q 3288 856 2895 371 
Q 2503 -113 1644 -113 
Q 1097 -113 676 195 
Q 256 503 206 1141 
L 791 1141 
z
" id="Helvetica-35" transform="scale(0.015625)"/>
       </defs>
       <use xlink:href="#Helvetica-30"/>
       <use x="55.615234" xlink:href="#Helvetica-2e"/>
       <use x="83.398438" xlink:href="#Helvetica-32"/>
       <use x="139.013672" xlink:href="#Helvetica-35"/>
      </g>
     </g>
    </g>
    <g id="ytick_3">
     <g id="line2d_6">
      <path clip-path="url(#p3a619d0a8c)" d="M 94.94 28.802044 
L 284.4 28.802044 
" style="fill:none;stroke:#cccccc;stroke-linecap:round;stroke-width:0.8;"/>
     </g>
     <g id="text_6">
      <!-- 0.50 -->
      <g style="fill:#262626;" transform="translate(49.018125 35.975482)scale(0.2 -0.2)">
       <use xlink:href="#Helvetica-30"/>
       <use x="55.615234" xlink:href="#Helvetica-2e"/>
       <use x="83.398438" xlink:href="#Helvetica-35"/>
       <use x="139.013672" xlink:href="#Helvetica-30"/>
      </g>
     </g>
    </g>
    <g id="ytick_4">
     <g id="line2d_7">
      <path clip-path="url(#p3a619d0a8c)" d="M 94.94 28.792827 
L 284.4 28.792827 
" style="fill:none;stroke:#cccccc;stroke-linecap:round;stroke-width:0.8;"/>
     </g>
     <g id="text_7">
      <!-- 0.75 -->
      <g style="fill:#262626;" transform="translate(49.018125 35.966265)scale(0.2 -0.2)">
       <defs>
        <path d="M 3347 4400 
L 3347 3909 
Q 3131 3700 2773 3181 
Q 2416 2663 2141 2063 
Q 1869 1478 1728 997 
Q 1638 688 1494 0 
L 872 0 
Q 1084 1281 1809 2550 
Q 2238 3294 2709 3834 
L 234 3834 
L 234 4400 
L 3347 4400 
z
" id="Helvetica-37" transform="scale(0.015625)"/>
       </defs>
       <use xlink:href="#Helvetica-30"/>
       <use x="55.615234" xlink:href="#Helvetica-2e"/>
       <use x="83.398438" xlink:href="#Helvetica-37"/>
       <use x="139.013672" xlink:href="#Helvetica-35"/>
      </g>
     </g>
    </g>
    <g id="ytick_5">
     <g id="line2d_8">
      <path clip-path="url(#p3a619d0a8c)" d="M 94.94 28.78361 
L 284.4 28.78361 
" style="fill:none;stroke:#cccccc;stroke-linecap:round;stroke-width:0.8;"/>
     </g>
     <g id="text_8">
      <!-- 1.0 -->
      <g style="fill:#262626;" transform="translate(60.14 35.957047)scale(0.2 -0.2)">
       <use xlink:href="#Helvetica-31"/>
       <use x="55.615234" xlink:href="#Helvetica-2e"/>
       <use x="83.398438" xlink:href="#Helvetica-30"/>
      </g>
     </g>
    </g>
    <g id="text_9">
     <!-- Probability -->
     <g style="fill:#262626;" transform="translate(39.65875 143.552745)rotate(-90)scale(0.25 -0.25)">
      <defs>
       <path d="M 428 3347 
L 963 3347 
L 963 2769 
Q 1028 2938 1284 3180 
Q 1541 3422 1875 3422 
Q 1891 3422 1928 3419 
Q 1966 3416 2056 3406 
L 2056 2813 
Q 2006 2822 1964 2825 
Q 1922 2828 1872 2828 
Q 1447 2828 1219 2554 
Q 991 2281 991 1925 
L 991 0 
L 428 0 
L 428 3347 
z
" id="Helvetica-72" transform="scale(0.015625)"/>
       <path d="M 369 4606 
L 916 4606 
L 916 2941 
Q 1100 3181 1356 3307 
Q 1613 3434 1913 3434 
Q 2538 3434 2927 3004 
Q 3316 2575 3316 1738 
Q 3316 944 2931 419 
Q 2547 -106 1866 -106 
Q 1484 -106 1222 78 
Q 1066 188 888 428 
L 888 0 
L 369 0 
L 369 4606 
z
M 1831 391 
Q 2288 391 2514 753 
Q 2741 1116 2741 1709 
Q 2741 2238 2514 2584 
Q 2288 2931 1847 2931 
Q 1463 2931 1173 2647 
Q 884 2363 884 1709 
Q 884 1238 1003 944 
Q 1225 391 1831 391 
z
" id="Helvetica-62" transform="scale(0.015625)"/>
       <path d="M 844 891 
Q 844 647 1022 506 
Q 1200 366 1444 366 
Q 1741 366 2019 503 
Q 2488 731 2488 1250 
L 2488 1703 
Q 2384 1638 2221 1594 
Q 2059 1550 1903 1531 
L 1563 1488 
Q 1256 1447 1103 1359 
Q 844 1213 844 891 
z
M 2206 2028 
Q 2400 2053 2466 2191 
Q 2503 2266 2503 2406 
Q 2503 2694 2298 2823 
Q 2094 2953 1713 2953 
Q 1272 2953 1088 2716 
Q 984 2584 953 2325 
L 428 2325 
Q 444 2944 830 3186 
Q 1216 3428 1725 3428 
Q 2316 3428 2684 3203 
Q 3050 2978 3050 2503 
L 3050 575 
Q 3050 488 3086 434 
Q 3122 381 3238 381 
Q 3275 381 3322 386 
Q 3369 391 3422 400 
L 3422 -16 
Q 3291 -53 3222 -62 
Q 3153 -72 3034 -72 
Q 2744 -72 2613 134 
Q 2544 244 2516 444 
Q 2344 219 2022 53 
Q 1700 -113 1313 -113 
Q 847 -113 551 170 
Q 256 453 256 878 
Q 256 1344 547 1600 
Q 838 1856 1309 1916 
L 2206 2028 
z
M 1741 3428 
L 1741 3428 
z
" id="Helvetica-61" transform="scale(0.015625)"/>
       <path d="M 428 4591 
L 991 4591 
L 991 0 
L 428 0 
L 428 4591 
z
" id="Helvetica-6c" transform="scale(0.015625)"/>
       <path d="M 2503 3347 
L 3125 3347 
Q 3006 3025 2597 1878 
Q 2291 1016 2084 472 
Q 1597 -809 1397 -1090 
Q 1197 -1372 709 -1372 
Q 591 -1372 527 -1362 
Q 463 -1353 369 -1328 
L 369 -816 
Q 516 -856 581 -865 
Q 647 -875 697 -875 
Q 853 -875 926 -823 
Q 1000 -772 1050 -697 
Q 1066 -672 1162 -440 
Q 1259 -209 1303 -97 
L 66 3347 
L 703 3347 
L 1600 622 
L 2503 3347 
z
M 1597 3428 
L 1597 3428 
z
" id="Helvetica-79" transform="scale(0.015625)"/>
      </defs>
      <use xlink:href="#Helvetica-50"/>
      <use x="66.699219" xlink:href="#Helvetica-72"/>
      <use x="100" xlink:href="#Helvetica-6f"/>
      <use x="155.615234" xlink:href="#Helvetica-62"/>
      <use x="211.230469" xlink:href="#Helvetica-61"/>
      <use x="266.845703" xlink:href="#Helvetica-62"/>
      <use x="322.460938" xlink:href="#Helvetica-69"/>
      <use x="344.677734" xlink:href="#Helvetica-6c"/>
      <use x="366.894531" xlink:href="#Helvetica-69"/>
      <use x="389.111328" xlink:href="#Helvetica-74"/>
      <use x="416.894531" xlink:href="#Helvetica-79"/>
     </g>
    </g>
   </g>
   <g id="patch_71">
    <path d="M 94.94 141.64 
L 94.94 28.746741 
" style="fill:none;stroke:#000000;stroke-linecap:square;stroke-linejoin:miter;"/>
   </g>
  </g>
 </g>
 <defs>
  <clipPath id="p3a619d0a8c">
   <rect height="112.893259" width="189.46" x="94.94" y="28.746741"/>
  </clipPath>
 </defs>
</svg>
