<?xml version="1.0" encoding="utf-8" standalone="no"?>
<!DOCTYPE svg PUBLIC "-//W3C//DTD SVG 1.1//EN"
  "http://www.w3.org/Graphics/SVG/1.1/DTD/svg11.dtd">
<svg height="216pt" version="1.1" viewBox="0 0 306 216" width="306pt" xmlns="http://www.w3.org/2000/svg" xmlns:xlink="http://www.w3.org/1999/xlink">
 <metadata>
  <rdf:RDF xmlns:cc="http://creativecommons.org/ns#" xmlns:dc="http://purl.org/dc/elements/1.1/" xmlns:rdf="http://www.w3.org/1999/02/22-rdf-syntax-ns#">
   <cc:Work>
    <dc:type rdf:resource="http://purl.org/dc/dcmitype/StillImage"/>
    <dc:date>2021-12-20T20:03:59.354056</dc:date>
    <dc:format>image/svg+xml</dc:format>
    <dc:creator>
     <cc:Agent>
      <dc:title>Matplotlib v3.4.2, https://matplotlib.org/</dc:title>
     </cc:Agent>
    </dc:creator>
   </cc:Work>
  </rdf:RDF>
 </metadata>
 <defs>
  <style type="text/css">*{stroke-linecap:butt;stroke-linejoin:round;}</style>
 </defs>
 <g id="figure_1">
  <g id="patch_1">
   <path d="M 0 216 
L 306 216 
L 306 0 
L 0 0 
z
" style="fill:#ffffff;"/>
  </g>
  <g id="axes_1">
   <g id="patch_2">
    <path d="M 94.94 141.64 
L 284.4 141.64 
L 284.4 28.8 
L 94.94 28.8 
z
" style="fill:#ffffff;"/>
   </g>
   <g id="line2d_1">
    <path clip-path="url(#pf26e12bc2f)" d="M 94.94 71.749379 
L 284.4 71.749379 
" style="fill:none;stroke:#000000;stroke-linecap:round;stroke-width:0.5;"/>
   </g>
   <g id="patch_3">
    <path clip-path="url(#pf26e12bc2f)" d="M 102.067515 58.678526 
L 100.261014 44.586187 
L 98.340473 58.678526 
L 102.067515 58.678526 
z
M 99.418672 39.847048 
L 101.240724 39.847048 
L 105.558702 71.749379 
L 103.791078 71.749379 
L 102.58588 62.194662 
L 97.879128 62.194662 
L 96.590992 71.749379 
L 94.94 71.749379 
L 99.418672 39.847048 
z
M 100.253239 39.847048 
L 100.253239 39.847048 
z
" style="fill:#008000;"/>
   </g>
   <g id="patch_4">
    <path clip-path="url(#pf26e12bc2f)" d="M 111.594036 69.595589 
Q 113.232162 69.595589 114.427209 69.707046 
Q 116.159015 69.867098 116.546392 70.268342 
L 114.989286 70.268342 
Q 114.703184 70.044091 113.809431 69.941551 
Q 112.915677 69.839011 111.553526 69.839011 
Q 109.940719 69.839011 108.83682 70.052562 
Q 107.73292 70.265667 107.73292 70.687865 
Q 107.73292 71.052552 108.641865 71.281707 
Q 109.553341 71.510862 111.609227 71.510862 
Q 113.184056 71.510862 114.217063 71.350364 
Q 115.25007 71.18942 115.272857 70.829638 
L 111.634546 70.829638 
L 111.634546 70.600037 
L 116.736283 70.600037 
L 116.736283 71.694988 
L 115.723531 71.694988 
L 115.34375 71.431504 
Q 114.546208 71.586206 113.928429 71.646393 
Q 112.890358 71.749379 111.292743 71.749379 
Q 109.229261 71.749379 107.740516 71.513982 
Q 106.117581 71.218399 106.117581 70.703023 
Q 106.117581 70.188985 107.700006 69.885377 
Q 109.203942 69.595589 111.594036 69.595589 
z
M 111.333253 69.592468 
L 111.333253 69.592468 
z
" style="fill:#ffa600;"/>
   </g>
   <g id="patch_5">
    <path clip-path="url(#pf26e12bc2f)" d="M 113.245097 62.246441 
L 111.438595 54.326323 
L 109.518054 62.246441 
L 113.245097 62.246441 
z
M 110.596253 51.662851 
L 112.418305 51.662851 
L 116.736283 69.592468 
L 114.968659 69.592468 
L 113.763461 64.222566 
L 109.056709 64.222566 
L 107.768573 69.592468 
L 106.117581 69.592468 
L 110.596253 51.662851 
z
M 111.43082 51.662851 
L 111.43082 51.662851 
z
" style="fill:#008000;"/>
   </g>
   <g id="patch_6">
    <path clip-path="url(#pf26e12bc2f)" d="M 122.878326 58.605216 
Q 125.152272 58.605216 126.406593 59.855746 
Q 127.660914 61.103558 127.799124 62.691188 
L 126.218836 62.691188 
Q 125.950239 61.486873 125.147056 60.78277 
Q 124.343873 60.075948 122.893972 60.075948 
Q 121.125927 60.075948 120.038501 61.372694 
Q 118.951075 62.666721 118.951075 65.341769 
Q 118.951075 67.535635 119.931584 68.900344 
Q 120.9147 70.262335 122.862679 70.262335 
Q 124.654194 70.262335 125.592979 68.826944 
Q 126.088449 68.071188 126.333576 66.836969 
L 127.913864 66.836969 
Q 127.702638 68.807914 126.51351 70.142719 
Q 125.087078 71.749379 122.667099 71.749379 
Q 120.58091 71.749379 119.162301 70.430885 
Q 117.295162 68.691016 117.295162 65.053603 
Q 117.295162 62.294281 118.698124 60.527227 
Q 120.213219 58.605216 122.878326 58.605216 
z
M 122.552359 58.605216 
L 122.552359 58.605216 
z
" style="fill:#0000ff;"/>
   </g>
   <g id="patch_7">
    <path clip-path="url(#pf26e12bc2f)" d="M 133.949198 65.664224 
Q 135.587324 65.664224 136.782371 65.979125 
Q 138.514177 66.431323 138.901554 67.564969 
L 137.344449 67.564969 
Q 137.058346 66.931387 136.164593 66.641678 
Q 135.270839 66.351968 133.908688 66.351968 
Q 132.295881 66.351968 131.191982 66.955319 
Q 130.088082 67.557411 130.088082 68.750258 
Q 130.088082 69.780615 130.997027 70.428053 
Q 131.908504 71.07549 133.96439 71.07549 
Q 135.539219 71.07549 136.572225 70.622032 
Q 137.605232 70.167314 137.628019 69.150812 
L 133.989709 69.150812 
L 133.989709 68.502115 
L 139.091445 68.502115 
L 139.091445 71.595707 
L 138.078694 71.595707 
L 137.698912 70.85128 
Q 136.90137 71.288363 136.283591 71.45841 
Q 135.245521 71.749379 133.647905 71.749379 
Q 131.584423 71.749379 130.095678 71.084307 
Q 128.472743 70.249189 128.472743 68.793084 
Q 128.472743 67.340759 130.055168 66.482967 
Q 131.559104 65.664224 133.949198 65.664224 
z
M 133.688415 65.655406 
L 133.688415 65.655406 
z
" style="fill:#ffa600;"/>
   </g>
   <g id="patch_8">
    <path clip-path="url(#pf26e12bc2f)" d="M 135.600259 52.076573 
L 133.793758 37.436555 
L 131.873216 52.076573 
L 135.600259 52.076573 
z
M 132.951415 32.513235 
L 134.773467 32.513235 
L 139.091445 65.655406 
L 137.323822 65.655406 
L 136.118624 55.729359 
L 131.411872 55.729359 
L 130.123735 65.655406 
L 128.472743 65.655406 
L 132.951415 32.513235 
z
M 133.785982 32.513235 
L 133.785982 32.513235 
z
" style="fill:#008000;"/>
   </g>
   <g id="patch_9">
    <path clip-path="url(#pf26e12bc2f)" d="M 145.233488 65.650116 
Q 147.507434 65.650116 148.761755 66.230397 
Q 150.016076 66.809417 150.154286 67.546123 
L 148.573998 67.546123 
Q 148.305401 66.987286 147.502218 66.660563 
Q 146.699036 66.332577 145.249134 66.332577 
Q 143.481089 66.332577 142.393663 66.934304 
Q 141.306237 67.534769 141.306237 68.776067 
Q 141.306237 69.794083 142.286746 70.427346 
Q 143.269862 71.059349 145.217841 71.059349 
Q 147.009356 71.059349 147.948141 70.393286 
Q 148.443611 70.042595 148.688738 69.469882 
L 150.269027 69.469882 
Q 150.0578 70.384456 148.868672 71.003843 
Q 147.44224 71.749379 145.022261 71.749379 
Q 142.936072 71.749379 141.517464 71.137561 
Q 139.650324 70.330212 139.650324 68.64235 
Q 139.650324 67.361946 141.053287 66.541983 
Q 142.568381 65.650116 145.233488 65.650116 
z
M 144.907521 65.650116 
L 144.907521 65.650116 
z
" style="fill:#0000ff;"/>
   </g>
   <g id="patch_10">
    <path clip-path="url(#pf26e12bc2f)" d="M 145.12678 39.032542 
Q 146.764906 39.032542 147.959953 40.409978 
Q 149.691758 42.387976 150.079136 47.346746 
L 148.52203 47.346746 
Q 148.235927 44.575344 147.342174 43.308103 
Q 146.448421 42.040862 145.086269 42.040862 
Q 143.473462 42.040862 142.369563 44.68003 
Q 141.265664 47.313687 141.265664 52.531415 
Q 141.265664 57.038386 142.174608 59.870394 
Q 143.086085 62.702403 145.141971 62.702403 
Q 146.7168 62.702403 147.749807 60.718895 
Q 148.782813 58.729877 148.8056 54.283514 
L 145.16729 54.283514 
L 145.16729 51.445995 
L 150.269027 51.445995 
L 150.269027 64.977927 
L 149.256275 64.977927 
L 148.876493 61.721668 
Q 148.078951 63.633549 147.461172 64.377365 
Q 146.423102 65.650116 144.825486 65.650116 
Q 142.762004 65.650116 141.273259 62.740971 
Q 139.650324 59.088011 139.650324 52.718746 
Q 139.650324 46.366011 141.232749 42.613875 
Q 142.736685 39.032542 145.12678 39.032542 
z
M 144.865996 38.993974 
L 144.865996 38.993974 
z
" style="fill:#ffa600;"/>
   </g>
   <g id="patch_11">
    <path clip-path="url(#pf26e12bc2f)" d="M 156.304361 69.584331 
Q 157.942487 69.584331 159.137534 69.69637 
Q 160.869339 69.857259 161.256717 70.2606 
L 159.699611 70.2606 
Q 159.413509 70.035177 158.519755 69.932101 
Q 157.626002 69.829025 156.263851 69.829025 
Q 154.651043 69.829025 153.547144 70.043692 
Q 152.443245 70.257911 152.443245 70.682316 
Q 152.443245 71.048909 153.352189 71.279262 
Q 154.263666 71.509615 156.319552 71.509615 
Q 157.894381 71.509615 158.927388 71.348278 
Q 159.960394 71.186493 159.983181 70.82483 
L 156.344871 70.82483 
L 156.344871 70.594029 
L 161.446608 70.594029 
L 161.446608 71.694704 
L 160.433856 71.694704 
L 160.054074 71.429843 
Q 159.256532 71.585353 158.638753 71.645855 
Q 157.600683 71.749379 156.003067 71.749379 
Q 153.939585 71.749379 152.45084 71.512752 
Q 150.827906 71.215624 150.827906 70.697554 
Q 150.827906 70.180828 152.41033 69.875633 
Q 153.914267 69.584331 156.304361 69.584331 
z
M 156.043577 69.581194 
L 156.043577 69.581194 
z
" style="fill:#ffa600;"/>
   </g>
   <g id="patch_12">
    <path clip-path="url(#pf26e12bc2f)" d="M 157.955421 58.659782 
L 156.14892 46.884862 
L 154.228378 58.659782 
L 157.955421 58.659782 
z
M 155.306577 42.925052 
L 157.128629 42.925052 
L 161.446608 69.581194 
L 159.678984 69.581194 
L 158.473786 61.597705 
L 153.767034 61.597705 
L 152.478897 69.581194 
L 150.827906 69.581194 
L 155.306577 42.925052 
z
M 156.141144 42.925052 
L 156.141144 42.925052 
z
" style="fill:#008000;"/>
   </g>
   <g id="patch_13">
    <path clip-path="url(#pf26e12bc2f)" d="M 169.133002 67.871044 
L 167.326501 63.689618 
L 165.40596 67.871044 
L 169.133002 67.871044 
z
M 166.484158 62.283438 
L 168.30621 62.283438 
L 172.624189 71.749379 
L 170.856565 71.749379 
L 169.651367 68.914339 
L 164.944615 68.914339 
L 163.656478 71.749379 
L 162.005487 71.749379 
L 166.484158 62.283438 
z
M 167.318725 62.283438 
L 167.318725 62.283438 
z
" style="fill:#008000;"/>
   </g>
   <g id="patch_14">
    <path clip-path="url(#pf26e12bc2f)" d="M 167.481942 32.755593 
Q 169.120068 32.755593 170.315115 34.283633 
Q 172.04692 36.477898 172.434298 41.978842 
L 170.877192 41.978842 
Q 170.59109 38.904426 169.697336 37.498629 
Q 168.803583 36.092832 167.441432 36.092832 
Q 165.828625 36.092832 164.724725 39.020557 
Q 163.620826 41.942169 163.620826 47.730385 
Q 163.620826 52.730132 164.52977 55.871782 
Q 165.441247 59.013433 167.497133 59.013433 
Q 169.071962 59.013433 170.104969 56.813055 
Q 171.137976 54.606565 171.160763 49.674052 
L 167.522452 49.674052 
L 167.522452 46.526289 
L 172.624189 46.526289 
L 172.624189 61.537755 
L 171.611437 61.537755 
L 171.231655 57.925468 
Q 170.434113 60.046388 169.816335 60.871529 
Q 168.778264 62.283438 167.180648 62.283438 
Q 165.117166 62.283438 163.628421 59.056218 
Q 162.005487 55.003856 162.005487 47.938198 
Q 162.005487 40.890878 163.587911 36.728497 
Q 165.091848 32.755593 167.481942 32.755593 
z
M 167.221158 32.712808 
L 167.221158 32.712808 
z
" style="fill:#ffa600;"/>
   </g>
   <g id="patch_15">
    <path clip-path="url(#pf26e12bc2f)" d="M 180.310583 66.306696 
L 178.504082 60.438667 
L 176.583541 66.306696 
L 180.310583 66.306696 
z
M 177.661739 58.465297 
L 179.483791 58.465297 
L 183.80177 71.749379 
L 182.034146 71.749379 
L 180.828948 67.770809 
L 176.122196 67.770809 
L 174.83406 71.749379 
L 173.183068 71.749379 
L 177.661739 58.465297 
z
M 178.496307 58.465297 
L 178.496307 58.465297 
z
" style="fill:#008000;"/>
   </g>
   <g id="patch_16">
    <path clip-path="url(#pf26e12bc2f)" d="M 178.659523 30.497763 
Q 180.297649 30.497763 181.492696 31.945058 
Q 183.224501 34.023374 183.611879 39.233637 
L 182.054773 39.233637 
Q 181.768671 36.321679 180.874917 34.990167 
Q 179.981164 33.658656 178.619013 33.658656 
Q 177.006206 33.658656 175.902306 36.431673 
Q 174.798407 39.198902 174.798407 44.681256 
Q 174.798407 49.416806 175.707352 52.392446 
Q 176.618828 55.368085 178.674714 55.368085 
Q 180.249543 55.368085 181.28255 53.283979 
Q 182.315557 51.194085 182.338344 46.522216 
L 178.700033 46.522216 
L 178.700033 43.540788 
L 183.80177 43.540788 
L 183.80177 57.759016 
L 182.789018 57.759016 
L 182.409236 54.33761 
Q 181.611694 56.346456 180.993916 57.127996 
Q 179.955845 58.465297 178.358229 58.465297 
Q 176.294748 58.465297 174.806003 55.408609 
Q 173.183068 51.570382 173.183068 44.878089 
Q 173.183068 38.203163 174.765492 34.26073 
Q 176.269429 30.497763 178.659523 30.497763 
z
M 178.398739 30.457238 
L 178.398739 30.457238 
z
" style="fill:#ffa600;"/>
   </g>
   <g id="patch_17">
    <path clip-path="url(#pf26e12bc2f)" d="M 191.488164 55.310477 
L 189.681663 37.586876 
L 187.761122 55.310477 
L 191.488164 55.310477 
z
M 188.83932 31.626573 
L 190.661373 31.626573 
L 194.979351 71.749379 
L 193.211727 71.749379 
L 192.006529 59.732638 
L 187.299777 59.732638 
L 186.011641 71.749379 
L 184.360649 71.749379 
L 188.83932 31.626573 
z
M 189.673888 31.626573 
L 189.673888 31.626573 
z
" style="fill:#008000;"/>
   </g>
   <g id="patch_18">
    <path clip-path="url(#pf26e12bc2f)" d="M 201.014685 65.699454 
Q 202.652811 65.699454 203.847858 66.012532 
Q 205.579664 66.462113 205.967041 67.589194 
L 204.409935 67.589194 
Q 204.123833 66.959281 203.23008 66.671249 
Q 202.336326 66.383217 200.974175 66.383217 
Q 199.361368 66.383217 198.257469 66.983075 
Q 197.153569 67.581681 197.153569 68.767621 
Q 197.153569 69.792013 198.062514 70.435702 
Q 198.97399 71.079391 201.029876 71.079391 
Q 202.604705 71.079391 203.637712 70.628559 
Q 204.670719 70.176474 204.693506 69.165857 
L 201.055195 69.165857 
L 201.055195 68.520916 
L 206.156932 68.520916 
L 206.156932 71.596597 
L 205.14418 71.596597 
L 204.764399 70.85648 
Q 203.966857 71.291032 203.349078 71.460095 
Q 202.311007 71.749379 200.713392 71.749379 
Q 198.64991 71.749379 197.161165 71.088158 
Q 195.53823 70.257874 195.53823 68.8102 
Q 195.53823 67.366283 197.120655 66.513457 
Q 198.624591 65.699454 201.014685 65.699454 
z
M 200.753902 65.690688 
L 200.753902 65.690688 
z
" style="fill:#ffa600;"/>
   </g>
   <g id="patch_19">
    <path clip-path="url(#pf26e12bc2f)" d="M 202.665746 55.862142 
L 200.859244 45.265497 
L 198.938703 55.862142 
L 202.665746 55.862142 
z
M 200.016902 41.701931 
L 201.838954 41.701931 
L 206.156932 65.690688 
L 204.389308 65.690688 
L 203.18411 58.506078 
L 198.477358 58.506078 
L 197.189222 65.690688 
L 195.53823 65.690688 
L 200.016902 41.701931 
z
M 200.851469 41.701931 
L 200.851469 41.701931 
z
" style="fill:#008000;"/>
   </g>
   <g id="patch_20">
    <path clip-path="url(#pf26e12bc2f)" d="M 213.843327 67.782924 
L 212.036825 63.506491 
L 210.116284 67.782924 
L 213.843327 67.782924 
z
M 211.194483 62.068362 
L 213.016535 62.068362 
L 217.334513 71.749379 
L 215.566889 71.749379 
L 214.361691 68.849924 
L 209.654939 68.849924 
L 208.366803 71.749379 
L 206.715811 71.749379 
L 211.194483 62.068362 
z
M 212.02905 62.068362 
L 212.02905 62.068362 
z
" style="fill:#008000;"/>
   </g>
   <g id="patch_21">
    <path clip-path="url(#pf26e12bc2f)" d="M 212.298975 52.322467 
Q 214.572921 52.322467 215.827242 53.249688 
Q 217.081563 54.174893 217.219773 55.35206 
L 215.639485 55.35206 
Q 215.370888 54.459106 214.567705 53.937041 
Q 213.764522 53.412959 212.314621 53.412959 
Q 210.546576 53.412959 209.45915 54.374447 
Q 208.371724 55.333918 208.371724 57.317364 
Q 208.371724 58.944031 209.352233 59.955911 
Q 210.335349 60.965775 212.283328 60.965775 
Q 214.074843 60.965775 215.013628 59.901487 
Q 215.509098 59.341124 215.754225 58.425997 
L 217.334513 58.425997 
Q 217.123287 59.887378 215.934159 60.877085 
Q 214.507727 62.068362 212.087748 62.068362 
Q 210.001559 62.068362 208.58295 61.090749 
Q 206.715811 59.800703 206.715811 57.1037 
Q 206.715811 55.057768 208.118773 53.747565 
Q 209.633868 52.322467 212.298975 52.322467 
z
M 211.973008 52.322467 
L 211.973008 52.322467 
z
" style="fill:#0000ff;"/>
   </g>
   <g id="patch_22">
    <path clip-path="url(#pf26e12bc2f)" d="M 225.020908 58.171947 
L 223.214407 43.533439 
L 221.293865 58.171947 
L 225.020908 58.171947 
z
M 222.372064 38.610627 
L 224.194116 38.610627 
L 228.512094 71.749379 
L 226.744471 71.749379 
L 225.539273 61.824355 
L 220.832521 61.824355 
L 219.544384 71.749379 
L 217.893392 71.749379 
L 222.372064 38.610627 
z
M 223.206631 38.610627 
L 223.206631 38.610627 
z
" style="fill:#008000;"/>
   </g>
   <g id="patch_23">
    <path clip-path="url(#pf26e12bc2f)" d="M 239.689676 52.053173 
L 239.689676 54.3999 
L 235.279707 54.3999 
L 235.279707 71.749379 
L 233.480942 71.749379 
L 233.480942 54.3999 
L 229.070973 54.3999 
L 229.070973 52.053173 
L 239.689676 52.053173 
z
" style="fill:#ff0000;"/>
   </g>
   <g id="patch_24">
    <path clip-path="url(#pf26e12bc2f)" d="M 236.198489 43.466516 
L 234.391988 34.208813 
L 232.471446 43.466516 
L 236.198489 43.466516 
z
M 233.549645 31.095522 
L 235.371697 31.095522 
L 239.689676 52.053173 
L 237.922052 52.053173 
L 236.716854 45.776377 
L 232.010102 45.776377 
L 230.721965 52.053173 
L 229.070973 52.053173 
L 233.549645 31.095522 
z
M 234.384212 31.095522 
L 234.384212 31.095522 
z
" style="fill:#008000;"/>
   </g>
   <g id="patch_25">
    <path clip-path="url(#pf26e12bc2f)" d="M 250.867257 63.787998 
L 250.867257 64.736566 
L 246.457288 64.736566 
L 246.457288 71.749379 
L 244.658523 71.749379 
L 244.658523 64.736566 
L 240.248555 64.736566 
L 240.248555 63.787998 
L 250.867257 63.787998 
z
" style="fill:#ff0000;"/>
   </g>
   <g id="patch_26">
    <path clip-path="url(#pf26e12bc2f)" d="M 247.37607 57.003879 
L 245.569569 49.68958 
L 243.649027 57.003879 
L 247.37607 57.003879 
z
M 244.727226 47.229841 
L 246.549278 47.229841 
L 250.867257 63.787998 
L 249.099633 63.787998 
L 247.894435 58.828846 
L 243.187683 58.828846 
L 241.899546 63.787998 
L 240.248555 63.787998 
L 244.727226 47.229841 
z
M 245.561793 47.229841 
L 245.561793 47.229841 
z
" style="fill:#008000;"/>
   </g>
   <g id="patch_27">
    <path clip-path="url(#pf26e12bc2f)" d="M 257.009299 55.365742 
Q 259.283245 55.365742 260.537566 56.924475 
Q 261.791887 58.479819 261.930097 60.458732 
L 260.349809 60.458732 
Q 260.081212 58.957605 259.27803 58.07997 
Q 258.474847 57.198947 257.024945 57.198947 
Q 255.2569 57.198947 254.169474 58.815285 
Q 253.082048 60.428235 253.082048 63.762568 
Q 253.082048 66.497127 254.062557 68.198179 
Q 255.045674 69.895842 256.993653 69.895842 
Q 258.785167 69.895842 259.723952 68.106688 
Q 260.219422 67.164672 260.46455 65.62627 
L 262.044838 65.62627 
Q 261.833611 68.082968 260.644483 69.746746 
Q 259.218052 71.749379 256.798072 71.749379 
Q 254.711883 71.749379 253.293275 70.105933 
Q 251.426136 67.937261 251.426136 63.403382 
Q 251.426136 59.964004 252.829098 57.761447 
Q 254.344193 55.365742 257.009299 55.365742 
z
M 256.683332 55.365742 
L 256.683332 55.365742 
z
" style="fill:#0000ff;"/>
   </g>
   <g id="patch_28">
    <path clip-path="url(#pf26e12bc2f)" d="M 258.553651 48.616432 
L 256.74715 41.339664 
L 254.826609 48.616432 
L 258.553651 48.616432 
z
M 255.904807 38.892546 
L 257.726859 38.892546 
L 262.044838 55.365742 
L 260.277214 55.365742 
L 259.072016 50.432036 
L 254.365264 50.432036 
L 253.077127 55.365742 
L 251.426136 55.365742 
L 255.904807 38.892546 
z
M 256.739374 38.892546 
L 256.739374 38.892546 
z
" style="fill:#008000;"/>
   </g>
   <g id="patch_29">
    <path clip-path="url(#pf26e12bc2f)" d="M 268.18688 39.847048 
Q 270.460826 39.847048 271.715147 42.882223 
Q 272.969468 45.9108 273.107678 49.764153 
L 271.52739 49.764153 
Q 271.258793 46.841147 270.455611 45.132212 
Q 269.652428 43.416678 268.202527 43.416678 
Q 266.434481 43.416678 265.347055 46.564022 
Q 264.259629 49.704769 264.259629 56.197405 
Q 264.259629 61.522158 265.240138 64.834458 
Q 266.223255 68.14016 268.171234 68.14016 
Q 269.962749 68.14016 270.901534 64.656306 
Q 271.397003 62.822005 271.642131 59.826419 
L 273.222419 59.826419 
Q 273.011192 64.610119 271.822065 67.849839 
Q 270.395633 71.749379 267.975654 71.749379 
Q 265.889465 71.749379 264.470856 68.549249 
Q 262.603717 64.326396 262.603717 55.497995 
Q 262.603717 48.800815 264.006679 44.51198 
Q 265.521774 39.847048 268.18688 39.847048 
z
M 267.860913 39.847048 
L 267.860913 39.847048 
z
" style="fill:#0000ff;"/>
   </g>
   <g id="patch_30">
    <path clip-path="url(#pf26e12bc2f)" d="M 284.4 58.470008 
L 284.4 60.052194 
L 279.990032 60.052194 
L 279.990032 71.749379 
L 278.191266 71.749379 
L 278.191266 60.052194 
L 273.781298 60.052194 
L 273.781298 58.470008 
L 284.4 58.470008 
z
" style="fill:#ff0000;"/>
   </g>
   <g id="patch_31">
    <path clip-path="url(#pf26e12bc2f)" d="M 279.364461 31.810069 
Q 281.638407 31.810069 282.892728 34.346485 
Q 284.14705 36.877387 284.28526 40.097533 
L 282.704971 40.097533 
Q 282.436375 37.654854 281.633192 36.226741 
Q 280.830009 34.793115 279.380108 34.793115 
Q 277.612063 34.793115 276.524636 37.423268 
Q 275.43721 40.047907 275.43721 45.473632 
Q 275.43721 49.923388 276.417719 52.69139 
Q 277.400836 55.453878 279.348815 55.453878 
Q 281.14033 55.453878 282.079115 52.542514 
Q 282.574585 51.009636 282.819712 48.506304 
L 284.4 48.506304 
Q 284.188773 52.503916 282.999646 55.211264 
Q 281.573214 58.470008 279.153235 58.470008 
Q 277.067046 58.470008 275.648437 55.795743 
Q 273.781298 52.266816 273.781298 44.889154 
Q 273.781298 39.292497 275.18426 35.70843 
Q 276.699355 31.810069 279.364461 31.810069 
z
M 279.038494 31.810069 
L 279.038494 31.810069 
z
" style="fill:#0000ff;"/>
   </g>
   <g id="patch_32">
    <path clip-path="url(#pf26e12bc2f)" d="M 100.523163 92.657824 
Q 102.797109 92.657824 104.051431 91.073156 
Q 105.305752 89.491933 105.443962 87.480093 
L 103.863673 87.480093 
Q 103.595077 89.006198 102.791894 89.898435 
Q 101.988711 90.794117 100.53881 90.794117 
Q 98.770765 90.794117 97.683339 89.150885 
Q 96.595913 87.511098 96.595913 84.121286 
Q 96.595913 81.341227 97.576421 79.611872 
Q 98.559538 77.885962 100.507517 77.885962 
Q 102.299032 77.885962 103.237817 79.704885 
Q 103.733287 80.662576 103.978414 82.226574 
L 105.558702 82.226574 
Q 105.347475 79.729 104.158348 78.037539 
Q 102.731916 76.001585 100.311937 76.001585 
Q 98.225748 76.001585 96.807139 77.672376 
Q 94.94 79.877132 94.94 84.486449 
Q 94.94 87.983053 96.342962 90.222258 
Q 97.858057 92.657824 100.523163 92.657824 
z
M 100.197196 92.657824 
L 100.197196 92.657824 
z
" style="fill:none;opacity:0;"/>
   </g>
   <g id="patch_33">
    <path clip-path="url(#pf26e12bc2f)" d="M 100.416455 75.995432 
Q 102.054581 75.995432 103.249628 75.775703 
Q 104.981434 75.460171 105.368811 74.669145 
L 103.811705 74.669145 
Q 103.525603 75.111241 102.63185 75.313392 
Q 101.738096 75.515543 100.375945 75.515543 
Q 98.763138 75.515543 97.659238 75.094541 
Q 96.555339 74.674418 96.555339 73.842083 
Q 96.555339 73.123128 97.464284 72.671364 
Q 98.37576 72.2196 100.431646 72.2196 
Q 102.006475 72.2196 103.039482 72.536011 
Q 104.072489 72.8533 104.095276 73.562587 
L 100.456965 73.562587 
L 100.456965 74.01523 
L 105.558702 74.01523 
L 105.558702 71.856607 
L 104.54595 71.856607 
L 104.166168 72.376048 
Q 103.368626 72.071063 102.750848 71.952409 
Q 101.712777 71.749379 100.115161 71.749379 
Q 98.05168 71.749379 96.562935 72.213448 
Q 94.94 72.79617 94.94 73.8122 
Q 94.94 74.825592 96.522425 75.424135 
Q 98.026361 75.995432 100.416455 75.995432 
z
M 100.155671 76.001585 
L 100.155671 76.001585 
z
" style="fill:none;opacity:0;"/>
   </g>
   <g id="patch_34">
    <path clip-path="url(#pf26e12bc2f)" d="M 105.558702 121.422042 
L 105.558702 117.994896 
L 101.148734 117.994896 
L 101.148734 92.657824 
L 99.349968 92.657824 
L 99.349968 117.994896 
L 94.94 117.994896 
L 94.94 121.422042 
L 105.558702 121.422042 
z
" style="fill:none;opacity:0;"/>
   </g>
   <g id="patch_35">
    <path clip-path="url(#pf26e12bc2f)" d="M 111.700744 76.032853 
Q 113.97469 76.032853 115.229012 75.625325 
Q 116.483333 75.218683 116.621543 74.7013 
L 115.041255 74.7013 
Q 114.772658 75.093767 113.969475 75.323223 
Q 113.166292 75.553565 111.716391 75.553565 
Q 109.948346 75.553565 108.86092 75.130976 
Q 107.773494 74.709273 107.773494 73.837517 
Q 107.773494 73.122571 108.754002 72.677834 
Q 109.737119 72.233983 111.685098 72.233983 
Q 113.476613 72.233983 114.415398 72.701754 
Q 114.910868 72.948043 115.155995 73.350256 
L 116.736283 73.350256 
Q 116.525057 72.707956 115.335929 72.272964 
Q 113.909497 71.749379 111.489518 71.749379 
Q 109.403329 71.749379 107.98472 72.179055 
Q 106.117581 72.746051 106.117581 73.931426 
Q 106.117581 74.830645 107.520543 75.4065 
Q 109.035638 76.032853 111.700744 76.032853 
z
M 111.374777 76.032853 
L 111.374777 76.032853 
z
" style="fill:none;opacity:0;"/>
   </g>
   <g id="patch_36">
    <path clip-path="url(#pf26e12bc2f)" d="M 116.736283 98.506503 
L 116.736283 95.828854 
L 112.326315 95.828854 
L 112.326315 76.032853 
L 110.527549 76.032853 
L 110.527549 95.828854 
L 106.117581 95.828854 
L 106.117581 98.506503 
L 116.736283 98.506503 
z
" style="fill:none;opacity:0;"/>
   </g>
   <g id="patch_37">
    <path clip-path="url(#pf26e12bc2f)" d="M 124.422678 82.073291 
L 122.616176 86.012077 
L 120.695635 82.073291 
L 124.422678 82.073291 
z
M 121.773834 87.336659 
L 123.595886 87.336659 
L 127.913864 78.420009 
L 126.14624 78.420009 
L 124.941042 81.090537 
L 120.23429 81.090537 
L 118.946154 78.420009 
L 117.295162 78.420009 
L 121.773834 87.336659 
z
M 122.608401 87.336659 
L 122.608401 87.336659 
z
" style="fill:none;opacity:0;"/>
   </g>
   <g id="patch_38">
    <path clip-path="url(#pf26e12bc2f)" d="M 122.771617 78.410552 
Q 124.409743 78.410552 125.60479 78.072797 
Q 127.336596 77.587782 127.723973 76.371867 
L 126.166868 76.371867 
Q 125.880765 77.051428 124.987012 77.362162 
Q 124.093258 77.672896 122.731107 77.672896 
Q 121.1183 77.672896 120.014401 77.025759 
Q 118.910501 76.379973 118.910501 75.100559 
Q 118.910501 73.995427 119.819446 73.301004 
Q 120.730923 72.606581 122.786809 72.606581 
Q 124.361638 72.606581 125.394644 73.092947 
Q 126.427651 73.580665 126.450438 74.670936 
L 122.812127 74.670936 
L 122.812127 75.36671 
L 127.913864 75.36671 
L 127.913864 72.048611 
L 126.901113 72.048611 
L 126.521331 72.847062 
Q 125.723789 72.378259 125.10601 72.195872 
Q 124.06794 71.883787 122.470324 71.883787 
Q 120.406842 71.883787 118.918097 72.597124 
Q 117.295162 73.492848 117.295162 75.054625 
Q 117.295162 76.612348 118.877587 77.53239 
Q 120.381523 78.410552 122.771617 78.410552 
z
M 122.510834 78.420009 
L 122.510834 78.420009 
z
" style="fill:none;opacity:0;"/>
   </g>
   <g id="patch_39">
    <path clip-path="url(#pf26e12bc2f)" d="M 127.913864 71.883787 
L 127.913864 71.867773 
L 123.503896 71.867773 
L 123.503896 71.749379 
L 121.705131 71.749379 
L 121.705131 71.867773 
L 117.295162 71.867773 
L 117.295162 71.883787 
L 127.913864 71.883787 
z
" style="fill:none;opacity:0;"/>
   </g>
   <g id="patch_40">
    <path clip-path="url(#pf26e12bc2f)" d="M 134.055907 141.405451 
Q 136.329853 141.405451 137.584174 136.363067 
Q 138.838495 131.331646 138.976705 124.930012 
L 137.396417 124.930012 
Q 137.12782 129.786046 136.324637 132.625127 
Q 135.521454 135.475169 134.071553 135.475169 
Q 132.303508 135.475169 131.216082 130.246437 
Q 130.128656 125.028667 130.128656 114.242352 
Q 130.128656 105.396258 131.109165 99.893483 
Q 132.092281 94.40167 134.04026 94.40167 
Q 135.831775 94.40167 136.77056 100.189449 
Q 137.26603 103.236802 137.511157 108.213415 
L 139.091445 108.213415 
Q 138.880219 100.266181 137.691091 94.883985 
Q 136.264659 88.405619 133.84468 88.405619 
Q 131.758491 88.405619 130.339883 93.722044 
Q 128.472743 100.737534 128.472743 115.404292 
Q 128.472743 126.53042 129.875705 133.655527 
Q 131.3908 141.405451 134.055907 141.405451 
z
M 133.72994 141.405451 
L 133.72994 141.405451 
z
" style="fill:none;opacity:0;"/>
   </g>
   <g id="patch_41">
    <path clip-path="url(#pf26e12bc2f)" d="M 139.091445 88.405619 
L 139.091445 86.421092 
L 134.681477 86.421092 
L 134.681477 71.749379 
L 132.882712 71.749379 
L 132.882712 86.421092 
L 128.472743 86.421092 
L 128.472743 88.405619 
L 139.091445 88.405619 
z
" style="fill:none;opacity:0;"/>
   </g>
   <g id="patch_42">
    <path clip-path="url(#pf26e12bc2f)" d="M 146.77784 76.415012 
L 144.971339 81.445263 
L 143.050797 76.415012 
L 146.77784 76.415012 
z
M 144.128996 83.136896 
L 145.951048 83.136896 
L 150.269027 71.749379 
L 148.501403 71.749379 
L 147.296205 75.159929 
L 142.589453 75.159929 
L 141.301316 71.749379 
L 139.650324 71.749379 
L 144.128996 83.136896 
z
M 144.963563 83.136896 
L 144.963563 83.136896 
z
" style="fill:none;opacity:0;"/>
   </g>
   <g id="patch_43">
    <path clip-path="url(#pf26e12bc2f)" d="M 150.269027 122.841484 
L 150.269027 118.110835 
L 145.859058 118.110835 
L 145.859058 83.136896 
L 144.060293 83.136896 
L 144.060293 118.110835 
L 139.650324 118.110835 
L 139.650324 122.841484 
L 150.269027 122.841484 
z
" style="fill:none;opacity:0;"/>
   </g>
   <g id="patch_44">
    <path clip-path="url(#pf26e12bc2f)" d="M 156.411069 91.218097 
Q 158.685015 91.218097 159.939336 89.365851 
Q 161.193657 87.517632 161.331867 85.166084 
L 159.751579 85.166084 
Q 159.482982 86.949878 158.679799 87.992773 
Q 157.876617 89.039695 156.426715 89.039695 
Q 154.65867 89.039695 153.571244 87.118996 
Q 152.483818 85.202324 152.483818 81.240128 
Q 152.483818 77.990643 153.464327 75.969279 
Q 154.447444 73.951941 156.395423 73.951941 
Q 158.186937 73.951941 159.125722 76.077998 
Q 159.621192 77.197399 159.866319 79.025485 
L 161.446608 79.025485 
Q 161.235381 76.106184 160.046253 74.129113 
Q 158.619822 71.749379 156.199842 71.749379 
Q 154.113653 71.749379 152.695045 73.702291 
Q 150.827906 76.279329 150.827906 81.66695 
Q 150.827906 85.753971 152.230868 88.371276 
Q 153.745962 91.218097 156.411069 91.218097 
z
M 156.085102 91.218097 
L 156.085102 91.218097 
z
" style="fill:none;opacity:0;"/>
   </g>
   <g id="patch_45">
    <path clip-path="url(#pf26e12bc2f)" d="M 161.446608 113.633048 
L 161.446608 110.962392 
L 157.036639 110.962392 
L 157.036639 91.218097 
L 155.237874 91.218097 
L 155.237874 110.962392 
L 150.827906 110.962392 
L 150.827906 113.633048 
L 161.446608 113.633048 
z
" style="fill:none;opacity:0;"/>
   </g>
   <g id="patch_46">
    <path clip-path="url(#pf26e12bc2f)" d="M 167.58865 100.513597 
Q 169.862596 100.513597 171.116917 97.776981 
Q 172.371238 95.046314 172.509448 91.572001 
L 170.92916 91.572001 
Q 170.660563 94.207481 169.857381 95.748315 
Q 169.054198 97.295098 167.604296 97.295098 
Q 165.836251 97.295098 164.748825 94.457346 
Q 163.661399 91.625543 163.661399 85.771564 
Q 163.661399 80.970587 164.641908 77.984105 
Q 165.625025 75.003573 167.573004 75.003573 
Q 169.364518 75.003573 170.303304 78.144733 
Q 170.798773 79.798601 171.043901 82.499522 
L 172.624189 82.499522 
Q 172.412962 78.186377 171.223834 75.265336 
Q 169.797403 71.749379 167.377423 71.749379 
Q 165.291234 71.749379 163.872626 74.634725 
Q 162.005487 78.442191 162.005487 86.402175 
Q 162.005487 92.440579 163.408449 96.307537 
Q 164.923544 100.513597 167.58865 100.513597 
z
M 167.262683 100.513597 
L 167.262683 100.513597 
z
" style="fill:none;opacity:0;"/>
   </g>
   <g id="patch_47">
    <path clip-path="url(#pf26e12bc2f)" d="M 172.624189 132.714361 
L 172.624189 128.877764 
L 168.21422 128.877764 
L 168.21422 100.513597 
L 166.415455 100.513597 
L 166.415455 128.877764 
L 162.005487 128.877764 
L 162.005487 132.714361 
L 172.624189 132.714361 
z
" style="fill:none;opacity:0;"/>
   </g>
   <g id="patch_48">
    <path clip-path="url(#pf26e12bc2f)" d="M 178.766231 94.164329 
Q 181.040177 94.164329 182.294498 92.03178 
Q 183.548819 89.903866 183.68703 87.196455 
L 182.106741 87.196455 
Q 181.838145 89.250193 181.034962 90.450911 
Q 180.231779 91.656265 178.781878 91.656265 
Q 177.013832 91.656265 175.926406 89.444904 
Q 174.83898 87.238179 174.83898 82.676377 
Q 174.83898 78.935144 175.819489 76.607883 
Q 176.802606 74.285259 178.750585 74.285259 
Q 180.5421 74.285259 181.480885 76.733055 
Q 181.976355 78.021856 182.221482 80.12659 
L 183.80177 80.12659 
Q 183.590543 76.765506 182.401416 74.489242 
Q 180.974984 71.749379 178.555005 71.749379 
Q 176.468816 71.749379 175.050207 73.997828 
Q 173.183068 76.964853 173.183068 83.167791 
Q 173.183068 87.873308 174.58603 90.886693 
Q 176.101125 94.164329 178.766231 94.164329 
z
M 178.440264 94.164329 
L 178.440264 94.164329 
z
" style="fill:none;opacity:0;"/>
   </g>
   <g id="patch_49">
    <path clip-path="url(#pf26e12bc2f)" d="M 183.80177 137.991628 
L 183.80177 132.769774 
L 179.391802 132.769774 
L 179.391802 94.164329 
L 177.593036 94.164329 
L 177.593036 132.769774 
L 173.183068 132.769774 
L 173.183068 137.991628 
L 183.80177 137.991628 
z
" style="fill:none;opacity:0;"/>
   </g>
   <g id="patch_50">
    <path clip-path="url(#pf26e12bc2f)" d="M 189.943812 141.64 
Q 192.217758 141.64 193.472079 138.576432 
Q 194.726401 135.519524 194.864611 131.630124 
L 193.284322 131.630124 
Q 193.015726 134.580474 192.212543 136.305396 
Q 191.40936 138.036978 189.959459 138.036978 
Q 188.191414 138.036978 187.103988 134.860191 
Q 186.016561 131.690064 186.016561 125.136692 
Q 186.016561 119.762128 186.99707 116.418843 
Q 187.980187 113.082218 189.928166 113.082218 
Q 191.719681 113.082218 192.658466 116.598661 
Q 193.153936 118.450122 193.399063 121.473731 
L 194.979351 121.473731 
Q 194.768124 116.645281 193.578997 113.375255 
Q 192.152565 109.439236 189.732586 109.439236 
Q 187.646397 109.439236 186.227788 112.669302 
Q 184.360649 116.931658 184.360649 125.842645 
Q 184.360649 132.602474 185.763611 136.931429 
Q 187.278706 141.64 189.943812 141.64 
z
M 189.617845 141.64 
L 189.617845 141.64 
z
" style="fill:none;opacity:0;"/>
   </g>
   <g id="patch_51">
    <path clip-path="url(#pf26e12bc2f)" d="M 189.837104 80.662104 
Q 191.47523 80.662104 192.670277 80.200878 
Q 194.402083 79.538558 194.78946 77.878146 
L 193.232354 77.878146 
Q 192.946252 78.806132 192.052498 79.230459 
Q 191.158745 79.654787 189.796594 79.654787 
Q 188.183787 79.654787 187.079887 78.771078 
Q 185.975988 77.889215 185.975988 76.142092 
Q 185.975988 74.632962 186.884933 73.684682 
Q 187.796409 72.736402 189.852295 72.736402 
Q 191.427124 72.736402 192.460131 73.400567 
Q 193.493138 74.066577 193.515925 75.555413 
L 189.877614 75.555413 
L 189.877614 76.505538 
L 194.979351 76.505538 
L 194.979351 71.974457 
L 193.966599 71.974457 
L 193.586817 73.064795 
Q 192.789275 72.424613 192.171497 72.175552 
Q 191.133426 71.749379 189.53581 71.749379 
Q 187.472329 71.749379 185.983584 72.723488 
Q 184.360649 73.946658 184.360649 76.079366 
Q 184.360649 78.206538 185.943074 79.462917 
Q 187.44701 80.662104 189.837104 80.662104 
z
M 189.57632 80.675018 
L 189.57632 80.675018 
z
" style="fill:none;opacity:0;"/>
   </g>
   <g id="patch_52">
    <path clip-path="url(#pf26e12bc2f)" d="M 194.979351 109.439236 
L 194.979351 106.01209 
L 190.569383 106.01209 
L 190.569383 80.675018 
L 188.770617 80.675018 
L 188.770617 106.01209 
L 184.360649 106.01209 
L 184.360649 109.439236 
L 194.979351 109.439236 
z
" style="fill:none;opacity:0;"/>
   </g>
   <g id="patch_53">
    <path clip-path="url(#pf26e12bc2f)" d="M 201.121393 91.27407 
Q 203.395339 91.27407 204.649661 89.416499 
Q 205.903982 87.562965 206.042192 85.204657 
L 204.461904 85.204657 
Q 204.193307 86.993579 203.390124 88.039473 
Q 202.586941 89.089404 201.13704 89.089404 
Q 199.368995 89.089404 198.281569 87.163184 
Q 197.194143 85.241001 197.194143 81.267413 
Q 197.194143 78.008587 198.174651 75.981411 
Q 199.157768 73.958274 201.105747 73.958274 
Q 202.897262 73.958274 203.836047 76.090443 
Q 204.331517 77.213062 204.576644 79.046404 
L 206.156932 79.046404 
Q 205.945706 76.11871 204.756578 74.135955 
Q 203.330146 71.749379 200.910167 71.749379 
Q 198.823978 71.749379 197.405369 73.707905 
Q 195.53823 76.292353 195.53823 81.695463 
Q 195.53823 85.794234 196.941192 88.419063 
Q 198.456287 91.27407 201.121393 91.27407 
z
M 200.795426 91.27407 
L 200.795426 91.27407 
z
" style="fill:none;opacity:0;"/>
   </g>
   <g id="patch_54">
    <path clip-path="url(#pf26e12bc2f)" d="M 206.156932 113.837273 
L 206.156932 111.148954 
L 201.746964 111.148954 
L 201.746964 91.27407 
L 199.948198 91.27407 
L 199.948198 111.148954 
L 195.53823 111.148954 
L 195.53823 113.837273 
L 206.156932 113.837273 
z
" style="fill:none;opacity:0;"/>
   </g>
   <g id="patch_55">
    <path clip-path="url(#pf26e12bc2f)" d="M 212.192266 94.781601 
Q 213.830392 94.781601 215.025439 94.184084 
Q 216.757245 93.32605 217.144622 91.174989 
L 215.587517 91.174989 
Q 215.301414 92.377193 214.407661 92.926909 
Q 213.513907 93.476624 212.151756 93.476624 
Q 210.538949 93.476624 209.43505 92.331782 
Q 208.33115 91.18933 208.33115 88.925936 
Q 208.33115 86.970861 209.240095 85.742367 
Q 210.151572 84.513872 212.207458 84.513872 
Q 213.782287 84.513872 214.815293 85.374296 
Q 215.8483 86.237111 215.871087 88.165895 
L 212.232776 88.165895 
L 212.232776 89.396779 
L 217.334513 89.396779 
L 217.334513 83.526774 
L 216.321762 83.526774 
L 215.94198 84.939304 
Q 215.144438 84.109951 214.526659 83.787292 
Q 213.488589 83.235186 211.890973 83.235186 
Q 209.827491 83.235186 208.338746 84.497142 
Q 206.715811 86.081756 206.715811 88.844674 
Q 206.715811 91.600421 208.298236 93.228057 
Q 209.802172 94.781601 212.192266 94.781601 
z
M 211.931483 94.798331 
L 211.931483 94.798331 
z
" style="fill:none;opacity:0;"/>
   </g>
   <g id="patch_56">
    <path clip-path="url(#pf26e12bc2f)" d="M 217.334513 83.235186 
L 217.334513 81.866696 
L 212.924545 81.866696 
L 212.924545 71.749379 
L 211.12578 71.749379 
L 211.12578 81.866696 
L 206.715811 81.866696 
L 206.715811 83.235186 
L 217.334513 83.235186 
z
" style="fill:none;opacity:0;"/>
   </g>
   <g id="patch_57">
    <path clip-path="url(#pf26e12bc2f)" d="M 223.476556 73.778665 
Q 225.750502 73.778665 227.004823 73.5856 
Q 228.259144 73.392954 228.397354 73.147845 
L 226.817066 73.147845 
Q 226.548469 73.333775 225.745286 73.44248 
Q 224.942103 73.551604 223.492202 73.551604 
Q 221.724157 73.551604 220.636731 73.351403 
Q 219.549305 73.151622 219.549305 72.73863 
Q 219.549305 72.399926 220.529814 72.189233 
Q 221.51293 71.978959 223.460909 71.978959 
Q 225.252424 71.978959 226.191209 72.200565 
Q 226.686679 72.317243 226.931806 72.507791 
L 228.512094 72.507791 
Q 228.300868 72.203503 227.11174 71.997426 
Q 225.685308 71.749379 223.265329 71.749379 
Q 221.17914 71.749379 219.760531 71.952937 
Q 217.893392 72.22155 217.893392 72.783119 
Q 217.893392 73.209122 219.296354 73.481932 
Q 220.811449 73.778665 223.476556 73.778665 
z
M 223.150589 73.778665 
L 223.150589 73.778665 
z
" style="fill:none;opacity:0;"/>
   </g>
   <g id="patch_58">
    <path clip-path="url(#pf26e12bc2f)" d="M 223.369847 80.301112 
Q 225.007973 80.301112 226.20302 79.963582 
Q 227.934826 79.478887 228.322203 78.263776 
L 226.765098 78.263776 
Q 226.478995 78.942888 225.585242 79.253417 
Q 224.691488 79.563945 223.329337 79.563945 
Q 221.71653 79.563945 220.612631 78.917236 
Q 219.508731 78.271877 219.508731 76.99331 
Q 219.508731 75.888909 220.417676 75.194945 
Q 221.329153 74.500982 223.385039 74.500982 
Q 224.959868 74.500982 225.992874 74.987026 
Q 227.025881 75.474421 227.048668 76.56397 
L 223.410357 76.56397 
L 223.410357 77.259284 
L 228.512094 77.259284 
L 228.512094 73.943381 
L 227.499343 73.943381 
L 227.119561 74.741304 
Q 226.322019 74.272811 225.70424 74.090544 
Q 224.66617 73.778665 223.068554 73.778665 
Q 221.005072 73.778665 219.516327 74.491531 
Q 217.893392 75.386663 217.893392 76.947405 
Q 217.893392 78.504098 219.475817 79.423532 
Q 220.979753 80.301112 223.369847 80.301112 
z
M 223.109064 80.310563 
L 223.109064 80.310563 
z
" style="fill:none;opacity:0;"/>
   </g>
   <g id="patch_59">
    <path clip-path="url(#pf26e12bc2f)" d="M 228.512094 133.310395 
L 228.512094 126.995669 
L 224.102126 126.995669 
L 224.102126 80.310563 
L 222.303361 80.310563 
L 222.303361 126.995669 
L 217.893392 126.995669 
L 217.893392 133.310395 
L 228.512094 133.310395 
z
" style="fill:none;opacity:0;"/>
   </g>
   <g id="patch_60">
    <path clip-path="url(#pf26e12bc2f)" d="M 234.654137 85.715274 
Q 236.928083 85.715274 238.182404 84.386564 
Q 239.436725 83.060743 239.574935 81.373859 
L 237.994647 81.373859 
Q 237.72605 82.653464 236.922867 83.401586 
Q 236.119685 84.152596 234.669783 84.152596 
Q 232.901738 84.152596 231.814312 82.774781 
Q 230.726886 81.399856 230.726886 78.557572 
Q 230.726886 76.226553 231.707395 74.776526 
Q 232.690511 73.329388 234.63849 73.329388 
Q 236.430005 73.329388 237.36879 74.854516 
Q 237.86426 75.657519 238.109387 76.968898 
L 239.689676 76.968898 
Q 239.478449 74.874735 238.289321 73.456482 
Q 236.862889 71.749379 234.44291 71.749379 
Q 232.356721 71.749379 230.938113 73.150301 
Q 229.070973 74.998941 229.070973 78.863753 
Q 229.070973 81.79558 230.473936 83.673105 
Q 231.98903 85.715274 234.654137 85.715274 
z
M 234.32817 85.715274 
L 234.32817 85.715274 
z
" style="fill:none;opacity:0;"/>
   </g>
   <g id="patch_61">
    <path clip-path="url(#pf26e12bc2f)" d="M 234.547429 138.638421 
Q 236.185554 138.638421 237.380602 135.899695 
Q 239.112407 131.966884 239.499785 122.107469 
L 237.942679 122.107469 
Q 237.656576 127.617787 236.762823 130.137415 
Q 235.86907 132.657043 234.506918 132.657043 
Q 232.894111 132.657043 231.790212 127.409643 
Q 230.686312 122.173199 230.686312 111.798903 
Q 230.686312 102.837791 231.595257 97.206969 
Q 232.506734 91.576148 234.56262 91.576148 
Q 236.137449 91.576148 237.170456 95.519914 
Q 238.203462 99.474635 238.226249 108.315243 
L 234.587939 108.315243 
L 234.587939 113.95702 
L 239.689676 113.95702 
L 239.689676 87.051772 
L 238.676924 87.051772 
L 238.297142 93.526121 
Q 237.4996 89.724769 236.881821 88.245857 
Q 235.843751 85.715274 234.246135 85.715274 
Q 232.182653 85.715274 230.693908 91.499464 
Q 229.070973 98.762566 229.070973 111.426437 
Q 229.070973 124.057442 230.653398 131.517733 
Q 232.157334 138.638421 234.547429 138.638421 
z
M 234.286645 138.715106 
L 234.286645 138.715106 
z
" style="fill:none;opacity:0;"/>
   </g>
   <g id="patch_62">
    <path clip-path="url(#pf26e12bc2f)" d="M 245.831718 78.686924 
Q 248.105664 78.686924 249.359985 78.026888 
Q 250.614306 77.368288 250.752516 76.53033 
L 249.172228 76.53033 
Q 248.903631 77.165973 248.100448 77.537601 
Q 247.297266 77.910665 245.847364 77.910665 
Q 244.079319 77.910665 242.991893 77.226237 
Q 241.904467 76.543244 241.904467 75.131342 
Q 241.904467 73.973411 242.884976 73.253112 
Q 243.868093 72.534247 245.816071 72.534247 
Q 247.607586 72.534247 248.546371 73.291853 
Q 249.041841 73.690744 249.286968 74.34217 
L 250.867257 74.34217 
Q 250.65603 73.301897 249.466902 72.597381 
Q 248.040471 71.749379 245.620491 71.749379 
Q 243.534302 71.749379 242.115694 72.445286 
Q 240.248555 73.363596 240.248555 75.283437 
Q 240.248555 76.73982 241.651517 77.672478 
Q 243.166611 78.686924 245.831718 78.686924 
z
M 245.505751 78.686924 
L 245.505751 78.686924 
z
" style="fill:none;opacity:0;"/>
   </g>
   <g id="patch_63">
    <path clip-path="url(#pf26e12bc2f)" d="M 245.72501 104.164176 
Q 247.363136 104.164176 248.558183 102.845751 
Q 250.289988 100.952492 250.677366 96.20616 
L 249.12026 96.20616 
Q 248.834158 98.858832 247.940404 100.071784 
Q 247.046651 101.284735 245.6845 101.284735 
Q 244.071692 101.284735 242.967793 98.758632 
Q 241.863894 96.237803 241.863894 91.243607 
Q 241.863894 86.929719 242.772838 84.219037 
Q 243.684315 81.508354 245.740201 81.508354 
Q 247.31503 81.508354 248.348037 83.406887 
Q 249.381043 85.310693 249.40383 89.56657 
L 245.76552 89.56657 
L 245.76552 92.282526 
L 250.867257 92.282526 
L 250.867257 79.330315 
L 249.854505 79.330315 
L 249.474723 82.447073 
Q 248.677181 80.617098 248.059402 79.905149 
Q 247.021332 78.686924 245.423716 78.686924 
Q 243.360234 78.686924 241.871489 81.471438 
Q 240.248555 84.967902 240.248555 91.064301 
Q 240.248555 97.144879 241.830979 100.73627 
Q 243.334916 104.164176 245.72501 104.164176 
z
M 245.464226 104.201092 
L 245.464226 104.201092 
z
" style="fill:none;opacity:0;"/>
   </g>
   <g id="patch_64">
    <path clip-path="url(#pf26e12bc2f)" d="M 256.902591 78.276144 
Q 258.540717 78.276144 259.735764 77.93839 
Q 261.467569 77.453375 261.854947 76.237459 
L 260.297841 76.237459 
Q 260.011739 76.917021 259.117985 77.227755 
Q 258.224232 77.538489 256.862081 77.538489 
Q 255.249274 77.538489 254.145374 76.891351 
Q 253.041475 76.245565 253.041475 74.966152 
Q 253.041475 73.861019 253.950419 73.166596 
Q 254.861896 72.472173 256.917782 72.472173 
Q 258.492611 72.472173 259.525618 72.95854 
Q 260.558625 73.446257 260.581411 74.536528 
L 256.943101 74.536528 
L 256.943101 75.232302 
L 262.044838 75.232302 
L 262.044838 71.914203 
L 261.032086 71.914203 
L 260.652304 72.712654 
Q 259.854762 72.243851 259.236984 72.061464 
Q 258.198913 71.749379 256.601297 71.749379 
Q 254.537815 71.749379 253.04907 72.462716 
Q 251.426136 73.358441 251.426136 74.920217 
Q 251.426136 76.47794 253.00856 77.397983 
Q 254.512497 78.276144 256.902591 78.276144 
z
M 256.641807 78.285601 
L 256.641807 78.285601 
z
" style="fill:none;opacity:0;"/>
   </g>
   <g id="patch_65">
    <path clip-path="url(#pf26e12bc2f)" d="M 262.044838 122.120795 
L 262.044838 116.898 
L 257.634869 116.898 
L 257.634869 78.285601 
L 255.836104 78.285601 
L 255.836104 116.898 
L 251.426136 116.898 
L 251.426136 122.120795 
L 262.044838 122.120795 
z
" style="fill:none;opacity:0;"/>
   </g>
   <g id="patch_66">
    <path clip-path="url(#pf26e12bc2f)" d="M 269.731232 73.486447 
L 267.924731 75.359267 
L 266.00419 73.486447 
L 269.731232 73.486447 
z
M 267.082388 75.989082 
L 268.90444 75.989082 
L 273.222419 71.749379 
L 271.454795 71.749379 
L 270.249597 73.019166 
L 265.542845 73.019166 
L 264.254709 71.749379 
L 262.603717 71.749379 
L 267.082388 75.989082 
z
M 267.916956 75.989082 
L 267.916956 75.989082 
z
" style="fill:none;opacity:0;"/>
   </g>
   <g id="patch_67">
    <path clip-path="url(#pf26e12bc2f)" d="M 268.080172 123.17793 
Q 269.718298 123.17793 270.913345 121.325969 
Q 272.64515 118.666552 273.032528 111.999492 
L 271.475422 111.999492 
Q 271.18932 115.725638 270.295566 117.429442 
Q 269.401813 119.133246 268.039662 119.133246 
Q 266.426855 119.133246 265.322955 115.584889 
Q 264.219056 112.043939 264.219056 105.028709 
Q 264.219056 98.969092 265.128001 95.16146 
Q 266.039477 91.353827 268.095363 91.353827 
Q 269.670192 91.353827 270.703199 94.020652 
Q 271.736206 96.694884 271.758993 102.673015 
L 268.120682 102.673015 
L 268.120682 106.488055 
L 273.222419 106.488055 
L 273.222419 88.294387 
L 272.209667 88.294387 
L 271.829885 92.672424 
Q 271.032343 90.101901 270.414565 89.101842 
Q 269.376494 87.39063 267.778878 87.39063 
Q 265.715397 87.39063 264.226651 91.301972 
Q 262.603717 96.213374 262.603717 104.776843 
Q 262.603717 113.318088 264.186141 118.36283 
Q 265.690078 123.17793 268.080172 123.17793 
z
M 267.819388 123.229785 
L 267.819388 123.229785 
z
" style="fill:none;opacity:0;"/>
   </g>
   <g id="patch_68">
    <path clip-path="url(#pf26e12bc2f)" d="M 273.222419 87.39063 
L 273.222419 86.032179 
L 268.812451 86.032179 
L 268.812451 75.989082 
L 267.013685 75.989082 
L 267.013685 86.032179 
L 262.603717 86.032179 
L 262.603717 87.39063 
L 273.222419 87.39063 
z
" style="fill:none;opacity:0;"/>
   </g>
   <g id="patch_69">
    <path clip-path="url(#pf26e12bc2f)" d="M 280.908813 80.933113 
L 279.102312 90.834554 
L 277.181771 80.933113 
L 280.908813 80.933113 
z
M 278.259969 94.164329 
L 280.082022 94.164329 
L 284.4 71.749379 
L 282.632376 71.749379 
L 281.427178 78.462635 
L 276.720426 78.462635 
L 275.43229 71.749379 
L 273.781298 71.749379 
L 278.259969 94.164329 
z
M 279.094537 94.164329 
L 279.094537 94.164329 
z
" style="fill:none;opacity:0;"/>
   </g>
   <g id="patch_70">
    <path clip-path="url(#pf26e12bc2f)" d="M 279.257753 133.81147 
Q 280.895879 133.81147 282.090926 131.759765 
Q 283.822732 128.813517 284.210109 121.427381 
L 282.653003 121.427381 
Q 282.366901 125.55541 281.473147 127.442979 
Q 280.579394 129.330547 279.217243 129.330547 
Q 277.604436 129.330547 276.500536 125.399481 
Q 275.396637 121.476622 275.396637 113.704764 
Q 275.396637 106.991587 276.305582 102.773282 
Q 277.217058 98.554977 279.272944 98.554977 
Q 280.847773 98.554977 281.88078 101.509432 
Q 282.913787 104.472093 282.936574 111.094996 
L 279.298263 111.094996 
L 279.298263 115.321508 
L 284.4 115.321508 
L 284.4 95.165561 
L 283.387248 95.165561 
L 283.007466 100.015791 
Q 282.209924 97.168025 281.592146 96.060104 
Q 280.554075 94.164329 278.956459 94.164329 
Q 276.892978 94.164329 275.404233 98.497529 
Q 273.781298 103.93865 273.781298 113.425732 
Q 273.781298 122.888194 275.363723 128.477038 
Q 276.867659 133.81147 279.257753 133.81147 
z
M 278.996969 133.868918 
L 278.996969 133.868918 
z
" style="fill:none;opacity:0;"/>
   </g>
   <g id="matplotlib.axis_1">
    <g id="xtick_1">
     <g id="line2d_2">
      <path clip-path="url(#pf26e12bc2f)" d="M 100.249351 141.64 
L 100.249351 28.8 
" style="fill:none;stroke:#cccccc;stroke-linecap:round;stroke-width:0.8;"/>
     </g>
     <g id="text_1">
      <!-- 0 -->
      <g style="fill:#262626;" transform="translate(94.688414 162.986875)scale(0.2 -0.2)">
       <defs>
        <path d="M 1731 4475 
Q 2600 4475 2988 3759 
Q 3288 3206 3288 2244 
Q 3288 1331 3016 734 
Q 2622 -122 1728 -122 
Q 922 -122 528 578 
Q 200 1163 200 2147 
Q 200 2909 397 3456 
Q 766 4475 1731 4475 
z
M 1725 391 
Q 2163 391 2422 778 
Q 2681 1166 2681 2222 
Q 2681 2984 2493 3476 
Q 2306 3969 1766 3969 
Q 1269 3969 1039 3501 
Q 809 3034 809 2125 
Q 809 1441 956 1025 
Q 1181 391 1725 391 
z
" id="Helvetica-30" transform="scale(0.015625)"/>
       </defs>
       <use xlink:href="#Helvetica-30"/>
      </g>
     </g>
    </g>
    <g id="xtick_2">
     <g id="line2d_3">
      <path clip-path="url(#pf26e12bc2f)" d="M 212.025162 141.64 
L 212.025162 28.8 
" style="fill:none;stroke:#cccccc;stroke-linecap:round;stroke-width:0.8;"/>
     </g>
     <g id="text_2">
      <!-- 10 -->
      <g style="fill:#262626;" transform="translate(200.903287 162.986875)scale(0.2 -0.2)">
       <defs>
        <path d="M 613 3169 
L 613 3600 
Q 1222 3659 1462 3798 
Q 1703 3938 1822 4456 
L 2266 4456 
L 2266 0 
L 1666 0 
L 1666 3169 
L 613 3169 
z
" id="Helvetica-31" transform="scale(0.015625)"/>
       </defs>
       <use xlink:href="#Helvetica-31"/>
       <use x="55.615234" xlink:href="#Helvetica-30"/>
      </g>
     </g>
    </g>
    <g id="text_3">
     <!-- Position -->
     <g style="fill:#262626;" transform="translate(145.20125 189.089219)scale(0.25 -0.25)">
      <defs>
       <path d="M 547 4591 
L 2613 4591 
Q 3225 4591 3600 4245 
Q 3975 3900 3975 3275 
Q 3975 2738 3640 2339 
Q 3306 1941 2613 1941 
L 1169 1941 
L 1169 0 
L 547 0 
L 547 4591 
z
M 3347 3272 
Q 3347 3778 2972 3959 
Q 2766 4056 2406 4056 
L 1169 4056 
L 1169 2466 
L 2406 2466 
Q 2825 2466 3086 2644 
Q 3347 2822 3347 3272 
z
" id="Helvetica-50" transform="scale(0.015625)"/>
       <path d="M 1741 363 
Q 2300 363 2508 786 
Q 2716 1209 2716 1728 
Q 2716 2197 2566 2491 
Q 2328 2953 1747 2953 
Q 1231 2953 997 2559 
Q 763 2166 763 1609 
Q 763 1075 997 719 
Q 1231 363 1741 363 
z
M 1763 3444 
Q 2409 3444 2856 3012 
Q 3303 2581 3303 1744 
Q 3303 934 2909 406 
Q 2516 -122 1688 -122 
Q 997 -122 590 345 
Q 184 813 184 1600 
Q 184 2444 612 2944 
Q 1041 3444 1763 3444 
z
M 1744 3428 
L 1744 3428 
z
" id="Helvetica-6f" transform="scale(0.015625)"/>
       <path d="M 747 1050 
Q 772 769 888 619 
Q 1100 347 1625 347 
Q 1938 347 2175 483 
Q 2413 619 2413 903 
Q 2413 1119 2222 1231 
Q 2100 1300 1741 1391 
L 1294 1503 
Q 866 1609 663 1741 
Q 300 1969 300 2372 
Q 300 2847 642 3140 
Q 984 3434 1563 3434 
Q 2319 3434 2653 2991 
Q 2863 2709 2856 2384 
L 2325 2384 
Q 2309 2575 2191 2731 
Q 1997 2953 1519 2953 
Q 1200 2953 1036 2831 
Q 872 2709 872 2509 
Q 872 2291 1088 2159 
Q 1213 2081 1456 2022 
L 1828 1931 
Q 2434 1784 2641 1647 
Q 2969 1431 2969 969 
Q 2969 522 2630 197 
Q 2291 -128 1597 -128 
Q 850 -128 539 211 
Q 228 550 206 1050 
L 747 1050 
z
M 1578 3428 
L 1578 3428 
z
" id="Helvetica-73" transform="scale(0.015625)"/>
       <path d="M 413 3331 
L 984 3331 
L 984 0 
L 413 0 
L 413 3331 
z
M 413 4591 
L 984 4591 
L 984 3953 
L 413 3953 
L 413 4591 
z
" id="Helvetica-69" transform="scale(0.015625)"/>
       <path d="M 525 4281 
L 1094 4281 
L 1094 3347 
L 1628 3347 
L 1628 2888 
L 1094 2888 
L 1094 703 
Q 1094 528 1213 469 
Q 1278 434 1431 434 
Q 1472 434 1519 436 
Q 1566 438 1628 444 
L 1628 0 
Q 1531 -28 1426 -40 
Q 1322 -53 1200 -53 
Q 806 -53 665 148 
Q 525 350 525 672 
L 525 2888 
L 72 2888 
L 72 3347 
L 525 3347 
L 525 4281 
z
" id="Helvetica-74" transform="scale(0.015625)"/>
       <path d="M 413 3347 
L 947 3347 
L 947 2872 
Q 1184 3166 1450 3294 
Q 1716 3422 2041 3422 
Q 2753 3422 3003 2925 
Q 3141 2653 3141 2147 
L 3141 0 
L 2569 0 
L 2569 2109 
Q 2569 2416 2478 2603 
Q 2328 2916 1934 2916 
Q 1734 2916 1606 2875 
Q 1375 2806 1200 2600 
Q 1059 2434 1017 2257 
Q 975 2081 975 1753 
L 975 0 
L 413 0 
L 413 3347 
z
M 1734 3428 
L 1734 3428 
z
" id="Helvetica-6e" transform="scale(0.015625)"/>
      </defs>
      <use xlink:href="#Helvetica-50"/>
      <use x="66.699219" xlink:href="#Helvetica-6f"/>
      <use x="122.314453" xlink:href="#Helvetica-73"/>
      <use x="172.314453" xlink:href="#Helvetica-69"/>
      <use x="194.53125" xlink:href="#Helvetica-74"/>
      <use x="222.314453" xlink:href="#Helvetica-69"/>
      <use x="244.53125" xlink:href="#Helvetica-6f"/>
      <use x="300.146484" xlink:href="#Helvetica-6e"/>
     </g>
    </g>
   </g>
   <g id="matplotlib.axis_2">
    <g id="ytick_1">
     <g id="line2d_4">
      <path clip-path="url(#pf26e12bc2f)" d="M 94.94 71.749379 
L 284.4 71.749379 
" style="fill:none;stroke:#cccccc;stroke-linecap:round;stroke-width:0.8;"/>
     </g>
     <g id="text_4">
      <!-- 0 -->
      <g style="fill:#262626;" transform="translate(76.818125 78.922817)scale(0.2 -0.2)">
       <use xlink:href="#Helvetica-30"/>
      </g>
     </g>
    </g>
    <g id="ytick_2">
     <g id="line2d_5">
      <path clip-path="url(#pf26e12bc2f)" d="M 94.94 61.012034 
L 284.4 61.012034 
" style="fill:none;stroke:#cccccc;stroke-linecap:round;stroke-width:0.8;"/>
     </g>
     <g id="text_5">
      <!-- 0.25 -->
      <g style="fill:#262626;" transform="translate(49.018125 68.185472)scale(0.2 -0.2)">
       <defs>
        <path d="M 547 681 
L 1200 681 
L 1200 0 
L 547 0 
L 547 681 
z
" id="Helvetica-2e" transform="scale(0.015625)"/>
        <path d="M 200 0 
Q 231 578 439 1006 
Q 647 1434 1250 1784 
L 1850 2131 
Q 2253 2366 2416 2531 
Q 2672 2791 2672 3125 
Q 2672 3516 2437 3745 
Q 2203 3975 1813 3975 
Q 1234 3975 1013 3538 
Q 894 3303 881 2888 
L 309 2888 
Q 319 3472 525 3841 
Q 891 4491 1816 4491 
Q 2584 4491 2939 4075 
Q 3294 3659 3294 3150 
Q 3294 2613 2916 2231 
Q 2697 2009 2131 1694 
L 1703 1456 
Q 1397 1288 1222 1134 
Q 909 863 828 531 
L 3272 531 
L 3272 0 
L 200 0 
z
" id="Helvetica-32" transform="scale(0.015625)"/>
        <path d="M 791 1141 
Q 847 659 1238 475 
Q 1438 381 1700 381 
Q 2200 381 2440 700 
Q 2681 1019 2681 1406 
Q 2681 1875 2395 2131 
Q 2109 2388 1709 2388 
Q 1419 2388 1211 2275 
Q 1003 2163 856 1963 
L 369 1991 
L 709 4400 
L 3034 4400 
L 3034 3856 
L 1131 3856 
L 941 2613 
Q 1097 2731 1238 2791 
Q 1488 2894 1816 2894 
Q 2431 2894 2859 2497 
Q 3288 2100 3288 1491 
Q 3288 856 2895 371 
Q 2503 -113 1644 -113 
Q 1097 -113 676 195 
Q 256 503 206 1141 
L 791 1141 
z
" id="Helvetica-35" transform="scale(0.015625)"/>
       </defs>
       <use xlink:href="#Helvetica-30"/>
       <use x="55.615234" xlink:href="#Helvetica-2e"/>
       <use x="83.398438" xlink:href="#Helvetica-32"/>
       <use x="139.013672" xlink:href="#Helvetica-35"/>
      </g>
     </g>
    </g>
    <g id="ytick_3">
     <g id="line2d_6">
      <path clip-path="url(#pf26e12bc2f)" d="M 94.94 50.27469 
L 284.4 50.27469 
" style="fill:none;stroke:#cccccc;stroke-linecap:round;stroke-width:0.8;"/>
     </g>
     <g id="text_6">
      <!-- 0.50 -->
      <g style="fill:#262626;" transform="translate(49.018125 57.448127)scale(0.2 -0.2)">
       <use xlink:href="#Helvetica-30"/>
       <use x="55.615234" xlink:href="#Helvetica-2e"/>
       <use x="83.398438" xlink:href="#Helvetica-35"/>
       <use x="139.013672" xlink:href="#Helvetica-30"/>
      </g>
     </g>
    </g>
    <g id="ytick_4">
     <g id="line2d_7">
      <path clip-path="url(#pf26e12bc2f)" d="M 94.94 39.537345 
L 284.4 39.537345 
" style="fill:none;stroke:#cccccc;stroke-linecap:round;stroke-width:0.8;"/>
     </g>
     <g id="text_7">
      <!-- 0.75 -->
      <g style="fill:#262626;" transform="translate(49.018125 46.710782)scale(0.2 -0.2)">
       <defs>
        <path d="M 3347 4400 
L 3347 3909 
Q 3131 3700 2773 3181 
Q 2416 2663 2141 2063 
Q 1869 1478 1728 997 
Q 1638 688 1494 0 
L 872 0 
Q 1084 1281 1809 2550 
Q 2238 3294 2709 3834 
L 234 3834 
L 234 4400 
L 3347 4400 
z
" id="Helvetica-37" transform="scale(0.015625)"/>
       </defs>
       <use xlink:href="#Helvetica-30"/>
       <use x="55.615234" xlink:href="#Helvetica-2e"/>
       <use x="83.398438" xlink:href="#Helvetica-37"/>
       <use x="139.013672" xlink:href="#Helvetica-35"/>
      </g>
     </g>
    </g>
    <g id="ytick_5">
     <g id="line2d_8">
      <path clip-path="url(#pf26e12bc2f)" d="M 94.94 28.8 
L 284.4 28.8 
" style="fill:none;stroke:#cccccc;stroke-linecap:round;stroke-width:0.8;"/>
     </g>
     <g id="text_8">
      <!-- 1.0 -->
      <g style="fill:#262626;" transform="translate(60.14 35.973438)scale(0.2 -0.2)">
       <use xlink:href="#Helvetica-31"/>
       <use x="55.615234" xlink:href="#Helvetica-2e"/>
       <use x="83.398438" xlink:href="#Helvetica-30"/>
      </g>
     </g>
    </g>
    <g id="text_9">
     <!-- Probability -->
     <g style="fill:#262626;" transform="translate(39.65875 143.579375)rotate(-90)scale(0.25 -0.25)">
      <defs>
       <path d="M 428 3347 
L 963 3347 
L 963 2769 
Q 1028 2938 1284 3180 
Q 1541 3422 1875 3422 
Q 1891 3422 1928 3419 
Q 1966 3416 2056 3406 
L 2056 2813 
Q 2006 2822 1964 2825 
Q 1922 2828 1872 2828 
Q 1447 2828 1219 2554 
Q 991 2281 991 1925 
L 991 0 
L 428 0 
L 428 3347 
z
" id="Helvetica-72" transform="scale(0.015625)"/>
       <path d="M 369 4606 
L 916 4606 
L 916 2941 
Q 1100 3181 1356 3307 
Q 1613 3434 1913 3434 
Q 2538 3434 2927 3004 
Q 3316 2575 3316 1738 
Q 3316 944 2931 419 
Q 2547 -106 1866 -106 
Q 1484 -106 1222 78 
Q 1066 188 888 428 
L 888 0 
L 369 0 
L 369 4606 
z
M 1831 391 
Q 2288 391 2514 753 
Q 2741 1116 2741 1709 
Q 2741 2238 2514 2584 
Q 2288 2931 1847 2931 
Q 1463 2931 1173 2647 
Q 884 2363 884 1709 
Q 884 1238 1003 944 
Q 1225 391 1831 391 
z
" id="Helvetica-62" transform="scale(0.015625)"/>
       <path d="M 844 891 
Q 844 647 1022 506 
Q 1200 366 1444 366 
Q 1741 366 2019 503 
Q 2488 731 2488 1250 
L 2488 1703 
Q 2384 1638 2221 1594 
Q 2059 1550 1903 1531 
L 1563 1488 
Q 1256 1447 1103 1359 
Q 844 1213 844 891 
z
M 2206 2028 
Q 2400 2053 2466 2191 
Q 2503 2266 2503 2406 
Q 2503 2694 2298 2823 
Q 2094 2953 1713 2953 
Q 1272 2953 1088 2716 
Q 984 2584 953 2325 
L 428 2325 
Q 444 2944 830 3186 
Q 1216 3428 1725 3428 
Q 2316 3428 2684 3203 
Q 3050 2978 3050 2503 
L 3050 575 
Q 3050 488 3086 434 
Q 3122 381 3238 381 
Q 3275 381 3322 386 
Q 3369 391 3422 400 
L 3422 -16 
Q 3291 -53 3222 -62 
Q 3153 -72 3034 -72 
Q 2744 -72 2613 134 
Q 2544 244 2516 444 
Q 2344 219 2022 53 
Q 1700 -113 1313 -113 
Q 847 -113 551 170 
Q 256 453 256 878 
Q 256 1344 547 1600 
Q 838 1856 1309 1916 
L 2206 2028 
z
M 1741 3428 
L 1741 3428 
z
" id="Helvetica-61" transform="scale(0.015625)"/>
       <path d="M 428 4591 
L 991 4591 
L 991 0 
L 428 0 
L 428 4591 
z
" id="Helvetica-6c" transform="scale(0.015625)"/>
       <path d="M 2503 3347 
L 3125 3347 
Q 3006 3025 2597 1878 
Q 2291 1016 2084 472 
Q 1597 -809 1397 -1090 
Q 1197 -1372 709 -1372 
Q 591 -1372 527 -1362 
Q 463 -1353 369 -1328 
L 369 -816 
Q 516 -856 581 -865 
Q 647 -875 697 -875 
Q 853 -875 926 -823 
Q 1000 -772 1050 -697 
Q 1066 -672 1162 -440 
Q 1259 -209 1303 -97 
L 66 3347 
L 703 3347 
L 1600 622 
L 2503 3347 
z
M 1597 3428 
L 1597 3428 
z
" id="Helvetica-79" transform="scale(0.015625)"/>
      </defs>
      <use xlink:href="#Helvetica-50"/>
      <use x="66.699219" xlink:href="#Helvetica-72"/>
      <use x="100" xlink:href="#Helvetica-6f"/>
      <use x="155.615234" xlink:href="#Helvetica-62"/>
      <use x="211.230469" xlink:href="#Helvetica-61"/>
      <use x="266.845703" xlink:href="#Helvetica-62"/>
      <use x="322.460938" xlink:href="#Helvetica-69"/>
      <use x="344.677734" xlink:href="#Helvetica-6c"/>
      <use x="366.894531" xlink:href="#Helvetica-69"/>
      <use x="389.111328" xlink:href="#Helvetica-74"/>
      <use x="416.894531" xlink:href="#Helvetica-79"/>
     </g>
    </g>
   </g>
   <g id="patch_71">
    <path d="M 94.94 141.64 
L 94.94 28.8 
" style="fill:none;stroke:#000000;stroke-linecap:square;stroke-linejoin:miter;"/>
   </g>
  </g>
 </g>
 <defs>
  <clipPath id="pf26e12bc2f">
   <rect height="112.84" width="189.46" x="94.94" y="28.8"/>
  </clipPath>
 </defs>
</svg>
