<?xml version="1.0" encoding="utf-8" standalone="no"?>
<!DOCTYPE svg PUBLIC "-//W3C//DTD SVG 1.1//EN"
  "http://www.w3.org/Graphics/SVG/1.1/DTD/svg11.dtd">
<svg height="720pt" version="1.1" viewBox="0 0 144 720" width="144pt" xmlns="http://www.w3.org/2000/svg" xmlns:xlink="http://www.w3.org/1999/xlink">
 <metadata>
  <rdf:RDF xmlns:cc="http://creativecommons.org/ns#" xmlns:dc="http://purl.org/dc/elements/1.1/" xmlns:rdf="http://www.w3.org/1999/02/22-rdf-syntax-ns#">
   <cc:Work>
    <dc:type rdf:resource="http://purl.org/dc/dcmitype/StillImage"/>
    <dc:date>2023-01-21T17:26:38.604860</dc:date>
    <dc:format>image/svg+xml</dc:format>
    <dc:creator>
     <cc:Agent>
      <dc:title>Matplotlib v3.4.2, https://matplotlib.org/</dc:title>
     </cc:Agent>
    </dc:creator>
   </cc:Work>
  </rdf:RDF>
 </metadata>
 <defs>
  <style type="text/css">*{stroke-linecap:butt;stroke-linejoin:round;}</style>
 </defs>
 <g id="figure_1">
  <g id="patch_1">
   <path d="M 0 720 
L 144 720 
L 144 0 
L 0 0 
z
" style="fill:#ffffff;"/>
  </g>
  <g id="axes_1">
   <g id="legend_1">
    <g id="patch_2">
     <path d="M -8.353125 619.840625 
L 152.353125 619.840625 
Q 156.353125 619.840625 156.353125 615.840625 
L 156.353125 104.159375 
Q 156.353125 100.159375 152.353125 100.159375 
L -8.353125 100.159375 
Q -12.353125 100.159375 -12.353125 104.159375 
L -12.353125 615.840625 
Q -12.353125 619.840625 -8.353125 619.840625 
z
" style="fill:#ffffff;opacity:0.8;stroke:#cccccc;stroke-linejoin:miter;"/>
    </g>
    <g id="line2d_1">
     <path d="M -1 115.50625 
L 35.646875 115.50625 
" style="fill:none;stroke:#30123b;stroke-linecap:square;stroke-width:1.5;"/>
    </g>
    <g id="line2d_2">
     <defs>
      <path d="M 0 5 
C 1.326016 5 2.597899 4.473168 3.535534 3.535534 
C 4.473168 2.597899 5 1.326016 5 0 
C 5 -1.326016 4.473168 -2.597899 3.535534 -3.535534 
C 2.597899 -4.473168 1.326016 -5 0 -5 
C -1.326016 -5 -2.597899 -4.473168 -3.535534 -3.535534 
C -4.473168 -2.597899 -5 -1.326016 -5 0 
C -5 1.326016 -4.473168 2.597899 -3.535534 3.535534 
C -2.597899 4.473168 -1.326016 5 0 5 
z
" id="mcf0360577e" style="stroke:#30123b;"/>
     </defs>
     <g>
      <use style="fill:#30123b;stroke:#30123b;" x="15.646875" xlink:href="#mcf0360577e" y="115.50625"/>
     </g>
    </g>
    <g id="text_1">
     <!-- a: Fuc -->
     <g transform="translate(51.646875 122.50625)scale(0.2 -0.2)">
      <defs>
       <path d="M 844 891 
Q 844 647 1022 506 
Q 1200 366 1444 366 
Q 1741 366 2019 503 
Q 2488 731 2488 1250 
L 2488 1703 
Q 2384 1638 2221 1594 
Q 2059 1550 1903 1531 
L 1563 1488 
Q 1256 1447 1103 1359 
Q 844 1213 844 891 
z
M 2206 2028 
Q 2400 2053 2466 2191 
Q 2503 2266 2503 2406 
Q 2503 2694 2298 2823 
Q 2094 2953 1713 2953 
Q 1272 2953 1088 2716 
Q 984 2584 953 2325 
L 428 2325 
Q 444 2944 830 3186 
Q 1216 3428 1725 3428 
Q 2316 3428 2684 3203 
Q 3050 2978 3050 2503 
L 3050 575 
Q 3050 488 3086 434 
Q 3122 381 3238 381 
Q 3275 381 3322 386 
Q 3369 391 3422 400 
L 3422 -16 
Q 3291 -53 3222 -62 
Q 3153 -72 3034 -72 
Q 2744 -72 2613 134 
Q 2544 244 2516 444 
Q 2344 219 2022 53 
Q 1700 -113 1313 -113 
Q 847 -113 551 170 
Q 256 453 256 878 
Q 256 1344 547 1600 
Q 838 1856 1309 1916 
L 2206 2028 
z
M 1741 3428 
L 1741 3428 
z
" id="Helvetica-61" transform="scale(0.015625)"/>
       <path d="M 709 3303 
L 1363 3303 
L 1363 2622 
L 709 2622 
L 709 3303 
z
M 709 681 
L 1363 681 
L 1363 0 
L 709 0 
L 709 681 
z
" id="Helvetica-3a" transform="scale(0.015625)"/>
       <path id="Helvetica-20" transform="scale(0.015625)"/>
       <path d="M 547 4591 
L 3731 4591 
L 3731 4028 
L 1169 4028 
L 1169 2634 
L 3422 2634 
L 3422 2088 
L 1169 2088 
L 1169 0 
L 547 0 
L 547 4591 
z
" id="Helvetica-46" transform="scale(0.015625)"/>
       <path d="M 975 3347 
L 975 1125 
Q 975 869 1056 706 
Q 1206 406 1616 406 
Q 2203 406 2416 931 
Q 2531 1213 2531 1703 
L 2531 3347 
L 3094 3347 
L 3094 0 
L 2563 0 
L 2569 494 
Q 2459 303 2297 172 
Q 1975 -91 1516 -91 
Q 800 -91 541 388 
Q 400 644 400 1072 
L 400 3347 
L 975 3347 
z
M 1747 3428 
L 1747 3428 
z
" id="Helvetica-75" transform="scale(0.015625)"/>
       <path d="M 1703 3444 
Q 2269 3444 2623 3169 
Q 2978 2894 3050 2222 
L 2503 2222 
Q 2453 2531 2275 2736 
Q 2097 2941 1703 2941 
Q 1166 2941 934 2416 
Q 784 2075 784 1575 
Q 784 1072 996 728 
Q 1209 384 1666 384 
Q 2016 384 2220 598 
Q 2425 813 2503 1184 
L 3050 1184 
Q 2956 519 2581 211 
Q 2206 -97 1622 -97 
Q 966 -97 575 383 
Q 184 863 184 1581 
Q 184 2463 612 2953 
Q 1041 3444 1703 3444 
z
M 1616 3428 
L 1616 3428 
z
" id="Helvetica-63" transform="scale(0.015625)"/>
      </defs>
      <use xlink:href="#Helvetica-61"/>
      <use x="55.615234" xlink:href="#Helvetica-3a"/>
      <use x="83.398438" xlink:href="#Helvetica-20"/>
      <use x="111.181641" xlink:href="#Helvetica-46"/>
      <use x="172.265625" xlink:href="#Helvetica-75"/>
      <use x="227.880859" xlink:href="#Helvetica-63"/>
     </g>
    </g>
    <g id="line2d_3">
     <path d="M -1 144.021875 
L 35.646875 144.021875 
" style="fill:none;stroke:#3f3e9c;stroke-linecap:square;stroke-width:1.5;"/>
    </g>
    <g id="line2d_4">
     <defs>
      <path d="M 0 5 
C 1.326016 5 2.597899 4.473168 3.535534 3.535534 
C 4.473168 2.597899 5 1.326016 5 0 
C 5 -1.326016 4.473168 -2.597899 3.535534 -3.535534 
C 2.597899 -4.473168 1.326016 -5 0 -5 
C -1.326016 -5 -2.597899 -4.473168 -3.535534 -3.535534 
C -4.473168 -2.597899 -5 -1.326016 -5 0 
C -5 1.326016 -4.473168 2.597899 -3.535534 3.535534 
C -2.597899 4.473168 -1.326016 5 0 5 
z
" id="m2f773d0179" style="stroke:#3f3e9c;"/>
     </defs>
     <g>
      <use style="fill:#3f3e9c;stroke:#3f3e9c;" x="15.646875" xlink:href="#m2f773d0179" y="144.021875"/>
     </g>
    </g>
    <g id="text_2">
     <!-- b: Gal -->
     <g transform="translate(51.646875 151.021875)scale(0.2 -0.2)">
      <defs>
       <path d="M 369 4606 
L 916 4606 
L 916 2941 
Q 1100 3181 1356 3307 
Q 1613 3434 1913 3434 
Q 2538 3434 2927 3004 
Q 3316 2575 3316 1738 
Q 3316 944 2931 419 
Q 2547 -106 1866 -106 
Q 1484 -106 1222 78 
Q 1066 188 888 428 
L 888 0 
L 369 0 
L 369 4606 
z
M 1831 391 
Q 2288 391 2514 753 
Q 2741 1116 2741 1709 
Q 2741 2238 2514 2584 
Q 2288 2931 1847 2931 
Q 1463 2931 1173 2647 
Q 884 2363 884 1709 
Q 884 1238 1003 944 
Q 1225 391 1831 391 
z
" id="Helvetica-62" transform="scale(0.015625)"/>
       <path d="M 2472 4709 
Q 3119 4709 3591 4459 
Q 4275 4100 4428 3200 
L 3813 3200 
Q 3700 3703 3347 3933 
Q 2994 4163 2456 4163 
Q 1819 4163 1383 3684 
Q 947 3206 947 2259 
Q 947 1441 1306 927 
Q 1666 413 2478 413 
Q 3100 413 3508 773 
Q 3916 1134 3925 1941 
L 2488 1941 
L 2488 2456 
L 4503 2456 
L 4503 0 
L 4103 0 
L 3953 591 
Q 3638 244 3394 109 
Q 2984 -122 2353 -122 
Q 1538 -122 950 406 
Q 309 1069 309 2225 
Q 309 3378 934 4059 
Q 1528 4709 2472 4709 
z
M 2369 4716 
L 2369 4716 
z
" id="Helvetica-47" transform="scale(0.015625)"/>
       <path d="M 428 4591 
L 991 4591 
L 991 0 
L 428 0 
L 428 4591 
z
" id="Helvetica-6c" transform="scale(0.015625)"/>
      </defs>
      <use xlink:href="#Helvetica-62"/>
      <use x="55.615234" xlink:href="#Helvetica-3a"/>
      <use x="83.398438" xlink:href="#Helvetica-20"/>
      <use x="111.181641" xlink:href="#Helvetica-47"/>
      <use x="188.964844" xlink:href="#Helvetica-61"/>
      <use x="244.580078" xlink:href="#Helvetica-6c"/>
     </g>
    </g>
    <g id="line2d_5">
     <path d="M -1 172.5375 
L 35.646875 172.5375 
" style="fill:none;stroke:#4666dd;stroke-linecap:square;stroke-width:1.5;"/>
    </g>
    <g id="line2d_6">
     <defs>
      <path d="M 0 5 
C 1.326016 5 2.597899 4.473168 3.535534 3.535534 
C 4.473168 2.597899 5 1.326016 5 0 
C 5 -1.326016 4.473168 -2.597899 3.535534 -3.535534 
C 2.597899 -4.473168 1.326016 -5 0 -5 
C -1.326016 -5 -2.597899 -4.473168 -3.535534 -3.535534 
C -4.473168 -2.597899 -5 -1.326016 -5 0 
C -5 1.326016 -4.473168 2.597899 -3.535534 3.535534 
C -2.597899 4.473168 -1.326016 5 0 5 
z
" id="mda9d920945" style="stroke:#4666dd;"/>
     </defs>
     <g>
      <use style="fill:#4666dd;stroke:#4666dd;" x="15.646875" xlink:href="#mda9d920945" y="172.5375"/>
     </g>
    </g>
    <g id="text_3">
     <!-- c: GalNAc -->
     <g transform="translate(51.646875 179.5375)scale(0.2 -0.2)">
      <defs>
       <path d="M 488 4591 
L 1222 4591 
L 3541 872 
L 3541 4591 
L 4131 4591 
L 4131 0 
L 3434 0 
L 1081 3716 
L 1081 0 
L 488 0 
L 488 4591 
z
M 2269 4591 
L 2269 4591 
z
" id="Helvetica-4e" transform="scale(0.015625)"/>
       <path d="M 2844 1881 
L 2147 3909 
L 1406 1881 
L 2844 1881 
z
M 1822 4591 
L 2525 4591 
L 4191 0 
L 3509 0 
L 3044 1375 
L 1228 1375 
L 731 0 
L 94 0 
L 1822 4591 
z
M 2144 4591 
L 2144 4591 
z
" id="Helvetica-41" transform="scale(0.015625)"/>
      </defs>
      <use xlink:href="#Helvetica-63"/>
      <use x="50" xlink:href="#Helvetica-3a"/>
      <use x="77.783203" xlink:href="#Helvetica-20"/>
      <use x="105.566406" xlink:href="#Helvetica-47"/>
      <use x="183.349609" xlink:href="#Helvetica-61"/>
      <use x="238.964844" xlink:href="#Helvetica-6c"/>
      <use x="261.181641" xlink:href="#Helvetica-4e"/>
      <use x="333.398438" xlink:href="#Helvetica-41"/>
      <use x="400.097656" xlink:href="#Helvetica-63"/>
     </g>
    </g>
    <g id="line2d_7">
     <path d="M -1 201.053125 
L 35.646875 201.053125 
" style="fill:none;stroke:#458cfd;stroke-linecap:square;stroke-width:1.5;"/>
    </g>
    <g id="line2d_8">
     <defs>
      <path d="M 0 5 
C 1.326016 5 2.597899 4.473168 3.535534 3.535534 
C 4.473168 2.597899 5 1.326016 5 0 
C 5 -1.326016 4.473168 -2.597899 3.535534 -3.535534 
C 2.597899 -4.473168 1.326016 -5 0 -5 
C -1.326016 -5 -2.597899 -4.473168 -3.535534 -3.535534 
C -4.473168 -2.597899 -5 -1.326016 -5 0 
C -5 1.326016 -4.473168 2.597899 -3.535534 3.535534 
C -2.597899 4.473168 -1.326016 5 0 5 
z
" id="m7b8aaa65fd" style="stroke:#458cfd;"/>
     </defs>
     <g>
      <use style="fill:#458cfd;stroke:#458cfd;" x="15.646875" xlink:href="#m7b8aaa65fd" y="201.053125"/>
     </g>
    </g>
    <g id="text_4">
     <!-- d: GalOS -->
     <g transform="translate(51.646875 208.053125)scale(0.2 -0.2)">
      <defs>
       <path d="M 769 1634 
Q 769 1097 997 734 
Q 1225 372 1728 372 
Q 2119 372 2370 708 
Q 2622 1044 2622 1672 
Q 2622 2306 2362 2611 
Q 2103 2916 1722 2916 
Q 1297 2916 1033 2591 
Q 769 2266 769 1634 
z
M 1616 3406 
Q 2000 3406 2259 3244 
Q 2409 3150 2600 2916 
L 2600 4606 
L 3141 4606 
L 3141 0 
L 2634 0 
L 2634 466 
Q 2438 156 2169 18 
Q 1900 -119 1553 -119 
Q 994 -119 584 351 
Q 175 822 175 1603 
Q 175 2334 548 2870 
Q 922 3406 1616 3406 
z
" id="Helvetica-64" transform="scale(0.015625)"/>
       <path d="M 2469 4716 
Q 3684 4716 4269 3934 
Q 4725 3325 4725 2375 
Q 4725 1347 4203 666 
Q 3591 -134 2456 -134 
Q 1397 -134 791 566 
Q 250 1241 250 2272 
Q 250 3203 713 3866 
Q 1306 4716 2469 4716 
z
M 2531 422 
Q 3353 422 3720 1011 
Q 4088 1600 4088 2366 
Q 4088 3175 3664 3669 
Q 3241 4163 2506 4163 
Q 1794 4163 1344 3673 
Q 894 3184 894 2231 
Q 894 1469 1280 945 
Q 1666 422 2531 422 
z
M 2488 4716 
L 2488 4716 
z
" id="Helvetica-4f" transform="scale(0.015625)"/>
       <path d="M 894 1481 
Q 916 1091 1078 847 
Q 1388 391 2169 391 
Q 2519 391 2806 491 
Q 3363 684 3363 1184 
Q 3363 1559 3128 1719 
Q 2891 1875 2384 1991 
L 1763 2131 
Q 1153 2269 900 2434 
Q 463 2722 463 3294 
Q 463 3913 891 4309 
Q 1319 4706 2103 4706 
Q 2825 4706 3329 4357 
Q 3834 4009 3834 3244 
L 3250 3244 
Q 3203 3613 3050 3809 
Q 2766 4169 2084 4169 
Q 1534 4169 1293 3937 
Q 1053 3706 1053 3400 
Q 1053 3063 1334 2906 
Q 1519 2806 2169 2656 
L 2813 2509 
Q 3278 2403 3531 2219 
Q 3969 1897 3969 1284 
Q 3969 522 3414 194 
Q 2859 -134 2125 -134 
Q 1269 -134 784 303 
Q 300 738 309 1481 
L 894 1481 
z
M 2150 4716 
L 2150 4716 
z
" id="Helvetica-53" transform="scale(0.015625)"/>
      </defs>
      <use xlink:href="#Helvetica-64"/>
      <use x="55.615234" xlink:href="#Helvetica-3a"/>
      <use x="83.398438" xlink:href="#Helvetica-20"/>
      <use x="111.181641" xlink:href="#Helvetica-47"/>
      <use x="188.964844" xlink:href="#Helvetica-61"/>
      <use x="244.580078" xlink:href="#Helvetica-6c"/>
      <use x="266.796875" xlink:href="#Helvetica-4f"/>
      <use x="344.580078" xlink:href="#Helvetica-53"/>
     </g>
    </g>
    <g id="line2d_9">
     <path d="M -1 229.56875 
L 35.646875 229.56875 
" style="fill:none;stroke:#2fb2f4;stroke-linecap:square;stroke-width:1.5;"/>
    </g>
    <g id="line2d_10">
     <defs>
      <path d="M 0 5 
C 1.326016 5 2.597899 4.473168 3.535534 3.535534 
C 4.473168 2.597899 5 1.326016 5 0 
C 5 -1.326016 4.473168 -2.597899 3.535534 -3.535534 
C 2.597899 -4.473168 1.326016 -5 0 -5 
C -1.326016 -5 -2.597899 -4.473168 -3.535534 -3.535534 
C -4.473168 -2.597899 -5 -1.326016 -5 0 
C -5 1.326016 -4.473168 2.597899 -3.535534 3.535534 
C -2.597899 4.473168 -1.326016 5 0 5 
z
" id="ma61adbc7df" style="stroke:#2fb2f4;"/>
     </defs>
     <g>
      <use style="fill:#2fb2f4;stroke:#2fb2f4;" x="15.646875" xlink:href="#ma61adbc7df" y="229.56875"/>
     </g>
    </g>
    <g id="text_5">
     <!-- e: Glc -->
     <g transform="translate(51.646875 236.56875)scale(0.2 -0.2)">
      <defs>
       <path d="M 1806 3422 
Q 2163 3422 2497 3255 
Q 2831 3088 3006 2822 
Q 3175 2569 3231 2231 
Q 3281 2000 3281 1494 
L 828 1494 
Q 844 984 1069 676 
Q 1294 369 1766 369 
Q 2206 369 2469 659 
Q 2619 828 2681 1050 
L 3234 1050 
Q 3213 866 3089 639 
Q 2966 413 2813 269 
Q 2556 19 2178 -69 
Q 1975 -119 1719 -119 
Q 1094 -119 659 336 
Q 225 791 225 1609 
Q 225 2416 662 2919 
Q 1100 3422 1806 3422 
z
M 2703 1941 
Q 2669 2306 2544 2525 
Q 2313 2931 1772 2931 
Q 1384 2931 1121 2651 
Q 859 2372 844 1941 
L 2703 1941 
z
M 1753 3428 
L 1753 3428 
z
" id="Helvetica-65" transform="scale(0.015625)"/>
      </defs>
      <use xlink:href="#Helvetica-65"/>
      <use x="55.615234" xlink:href="#Helvetica-3a"/>
      <use x="83.398438" xlink:href="#Helvetica-20"/>
      <use x="111.181641" xlink:href="#Helvetica-47"/>
      <use x="188.964844" xlink:href="#Helvetica-6c"/>
      <use x="211.181641" xlink:href="#Helvetica-63"/>
     </g>
    </g>
    <g id="line2d_11">
     <path d="M -1 258.084375 
L 35.646875 258.084375 
" style="fill:none;stroke:#1ad4d0;stroke-linecap:square;stroke-width:1.5;"/>
    </g>
    <g id="line2d_12">
     <defs>
      <path d="M 0 5 
C 1.326016 5 2.597899 4.473168 3.535534 3.535534 
C 4.473168 2.597899 5 1.326016 5 0 
C 5 -1.326016 4.473168 -2.597899 3.535534 -3.535534 
C 2.597899 -4.473168 1.326016 -5 0 -5 
C -1.326016 -5 -2.597899 -4.473168 -3.535534 -3.535534 
C -4.473168 -2.597899 -5 -1.326016 -5 0 
C -5 1.326016 -4.473168 2.597899 -3.535534 3.535534 
C -2.597899 4.473168 -1.326016 5 0 5 
z
" id="mf38e53a783" style="stroke:#1ad4d0;"/>
     </defs>
     <g>
      <use style="fill:#1ad4d0;stroke:#1ad4d0;" x="15.646875" xlink:href="#mf38e53a783" y="258.084375"/>
     </g>
    </g>
    <g id="text_6">
     <!-- f: GlcNAc -->
     <g transform="translate(51.646875 265.084375)scale(0.2 -0.2)">
      <defs>
       <path d="M 553 3856 
Q 566 4206 675 4369 
Q 872 4656 1434 4656 
Q 1488 4656 1544 4653 
Q 1600 4650 1672 4644 
L 1672 4131 
Q 1584 4138 1545 4139 
Q 1506 4141 1472 4141 
Q 1216 4141 1166 4008 
Q 1116 3875 1116 3331 
L 1672 3331 
L 1672 2888 
L 1109 2888 
L 1109 0 
L 553 0 
L 553 2888 
L 88 2888 
L 88 3331 
L 553 3331 
L 553 3856 
z
" id="Helvetica-66" transform="scale(0.015625)"/>
      </defs>
      <use xlink:href="#Helvetica-66"/>
      <use x="27.783203" xlink:href="#Helvetica-3a"/>
      <use x="55.566406" xlink:href="#Helvetica-20"/>
      <use x="83.349609" xlink:href="#Helvetica-47"/>
      <use x="161.132812" xlink:href="#Helvetica-6c"/>
      <use x="183.349609" xlink:href="#Helvetica-63"/>
      <use x="233.349609" xlink:href="#Helvetica-4e"/>
      <use x="305.566406" xlink:href="#Helvetica-41"/>
      <use x="372.265625" xlink:href="#Helvetica-63"/>
     </g>
    </g>
    <g id="line2d_13">
     <path d="M -1 286.6 
L 35.646875 286.6 
" style="fill:none;stroke:#22ebaa;stroke-linecap:square;stroke-width:1.5;"/>
    </g>
    <g id="line2d_14">
     <defs>
      <path d="M 0 5 
C 1.326016 5 2.597899 4.473168 3.535534 3.535534 
C 4.473168 2.597899 5 1.326016 5 0 
C 5 -1.326016 4.473168 -2.597899 3.535534 -3.535534 
C 2.597899 -4.473168 1.326016 -5 0 -5 
C -1.326016 -5 -2.597899 -4.473168 -3.535534 -3.535534 
C -4.473168 -2.597899 -5 -1.326016 -5 0 
C -5 1.326016 -4.473168 2.597899 -3.535534 3.535534 
C -2.597899 4.473168 -1.326016 5 0 5 
z
" id="m6c2f714f96" style="stroke:#22ebaa;"/>
     </defs>
     <g>
      <use style="fill:#22ebaa;stroke:#22ebaa;" x="15.646875" xlink:href="#m6c2f714f96" y="286.6"/>
     </g>
    </g>
    <g id="text_7">
     <!-- g: Man -->
     <g transform="translate(51.646875 293.6)scale(0.2 -0.2)">
      <defs>
       <path d="M 1594 3406 
Q 1988 3406 2281 3213 
Q 2441 3103 2606 2894 
L 2606 3316 
L 3125 3316 
L 3125 272 
Q 3125 -366 2938 -734 
Q 2588 -1416 1616 -1416 
Q 1075 -1416 706 -1173 
Q 338 -931 294 -416 
L 866 -416 
Q 906 -641 1028 -763 
Q 1219 -950 1628 -950 
Q 2275 -950 2475 -494 
Q 2594 -225 2584 466 
Q 2416 209 2178 84 
Q 1941 -41 1550 -41 
Q 1006 -41 598 345 
Q 191 731 191 1622 
Q 191 2463 602 2934 
Q 1013 3406 1594 3406 
z
M 2606 1688 
Q 2606 2309 2350 2609 
Q 2094 2909 1697 2909 
Q 1103 2909 884 2353 
Q 769 2056 769 1575 
Q 769 1009 998 714 
Q 1228 419 1616 419 
Q 2222 419 2469 966 
Q 2606 1275 2606 1688 
z
M 1659 3428 
L 1659 3428 
z
" id="Helvetica-67" transform="scale(0.015625)"/>
       <path d="M 472 4591 
L 1363 4591 
L 2681 709 
L 3991 4591 
L 4872 4591 
L 4872 0 
L 4281 0 
L 4281 2709 
Q 4281 2850 4287 3175 
Q 4294 3500 4294 3872 
L 2984 0 
L 2369 0 
L 1050 3872 
L 1050 3731 
Q 1050 3563 1058 3217 
Q 1066 2872 1066 2709 
L 1066 0 
L 472 0 
L 472 4591 
z
" id="Helvetica-4d" transform="scale(0.015625)"/>
       <path d="M 413 3347 
L 947 3347 
L 947 2872 
Q 1184 3166 1450 3294 
Q 1716 3422 2041 3422 
Q 2753 3422 3003 2925 
Q 3141 2653 3141 2147 
L 3141 0 
L 2569 0 
L 2569 2109 
Q 2569 2416 2478 2603 
Q 2328 2916 1934 2916 
Q 1734 2916 1606 2875 
Q 1375 2806 1200 2600 
Q 1059 2434 1017 2257 
Q 975 2081 975 1753 
L 975 0 
L 413 0 
L 413 3347 
z
M 1734 3428 
L 1734 3428 
z
" id="Helvetica-6e" transform="scale(0.015625)"/>
      </defs>
      <use xlink:href="#Helvetica-67"/>
      <use x="55.615234" xlink:href="#Helvetica-3a"/>
      <use x="83.398438" xlink:href="#Helvetica-20"/>
      <use x="111.181641" xlink:href="#Helvetica-4d"/>
      <use x="194.482422" xlink:href="#Helvetica-61"/>
      <use x="250.097656" xlink:href="#Helvetica-6e"/>
     </g>
    </g>
    <g id="line2d_15">
     <path d="M -1 315.371875 
L 35.646875 315.371875 
" style="fill:none;stroke:#52fa7a;stroke-linecap:square;stroke-width:1.5;"/>
    </g>
    <g id="line2d_16">
     <defs>
      <path d="M 0 5 
C 1.326016 5 2.597899 4.473168 3.535534 3.535534 
C 4.473168 2.597899 5 1.326016 5 0 
C 5 -1.326016 4.473168 -2.597899 3.535534 -3.535534 
C 2.597899 -4.473168 1.326016 -5 0 -5 
C -1.326016 -5 -2.597899 -4.473168 -3.535534 -3.535534 
C -4.473168 -2.597899 -5 -1.326016 -5 0 
C -5 1.326016 -4.473168 2.597899 -3.535534 3.535534 
C -2.597899 4.473168 -1.326016 5 0 5 
z
" id="md5c4ebb885" style="stroke:#52fa7a;"/>
     </defs>
     <g>
      <use style="fill:#52fa7a;stroke:#52fa7a;" x="15.646875" xlink:href="#md5c4ebb885" y="315.371875"/>
     </g>
    </g>
    <g id="text_8">
     <!-- h: NeuNAc -->
     <g transform="translate(51.646875 322.371875)scale(0.2 -0.2)">
      <defs>
       <path d="M 413 4606 
L 975 4606 
L 975 2894 
Q 1175 3147 1334 3250 
Q 1606 3428 2013 3428 
Q 2741 3428 3000 2919 
Q 3141 2641 3141 2147 
L 3141 0 
L 2563 0 
L 2563 2109 
Q 2563 2478 2469 2650 
Q 2316 2925 1894 2925 
Q 1544 2925 1259 2684 
Q 975 2444 975 1775 
L 975 0 
L 413 0 
L 413 4606 
z
" id="Helvetica-68" transform="scale(0.015625)"/>
      </defs>
      <use xlink:href="#Helvetica-68"/>
      <use x="55.615234" xlink:href="#Helvetica-3a"/>
      <use x="83.398438" xlink:href="#Helvetica-20"/>
      <use x="111.181641" xlink:href="#Helvetica-4e"/>
      <use x="183.398438" xlink:href="#Helvetica-65"/>
      <use x="239.013672" xlink:href="#Helvetica-75"/>
      <use x="294.628906" xlink:href="#Helvetica-4e"/>
      <use x="366.845703" xlink:href="#Helvetica-41"/>
      <use x="433.544922" xlink:href="#Helvetica-63"/>
     </g>
    </g>
    <g id="line2d_17">
     <path d="M -1 343.8875 
L 35.646875 343.8875 
" style="fill:none;stroke:#8bff4b;stroke-linecap:square;stroke-width:1.5;"/>
    </g>
    <g id="line2d_18">
     <defs>
      <path d="M 0 5 
C 1.326016 5 2.597899 4.473168 3.535534 3.535534 
C 4.473168 2.597899 5 1.326016 5 0 
C 5 -1.326016 4.473168 -2.597899 3.535534 -3.535534 
C 2.597899 -4.473168 1.326016 -5 0 -5 
C -1.326016 -5 -2.597899 -4.473168 -3.535534 -3.535534 
C -4.473168 -2.597899 -5 -1.326016 -5 0 
C -5 1.326016 -4.473168 2.597899 -3.535534 3.535534 
C -2.597899 4.473168 -1.326016 5 0 5 
z
" id="m078c7d91e2" style="stroke:#8bff4b;"/>
     </defs>
     <g>
      <use style="fill:#8bff4b;stroke:#8bff4b;" x="15.646875" xlink:href="#m078c7d91e2" y="343.8875"/>
     </g>
    </g>
    <g id="text_9">
     <!-- i: a1-2 -->
     <g transform="translate(51.646875 350.8875)scale(0.2 -0.2)">
      <defs>
       <path d="M 413 3331 
L 984 3331 
L 984 0 
L 413 0 
L 413 3331 
z
M 413 4591 
L 984 4591 
L 984 3953 
L 413 3953 
L 413 4591 
z
" id="Helvetica-69" transform="scale(0.015625)"/>
       <path d="M 613 3169 
L 613 3600 
Q 1222 3659 1462 3798 
Q 1703 3938 1822 4456 
L 2266 4456 
L 2266 0 
L 1666 0 
L 1666 3169 
L 613 3169 
z
" id="Helvetica-31" transform="scale(0.015625)"/>
       <path d="M 266 2072 
L 1834 2072 
L 1834 1494 
L 266 1494 
L 266 2072 
z
" id="Helvetica-2d" transform="scale(0.015625)"/>
       <path d="M 200 0 
Q 231 578 439 1006 
Q 647 1434 1250 1784 
L 1850 2131 
Q 2253 2366 2416 2531 
Q 2672 2791 2672 3125 
Q 2672 3516 2437 3745 
Q 2203 3975 1813 3975 
Q 1234 3975 1013 3538 
Q 894 3303 881 2888 
L 309 2888 
Q 319 3472 525 3841 
Q 891 4491 1816 4491 
Q 2584 4491 2939 4075 
Q 3294 3659 3294 3150 
Q 3294 2613 2916 2231 
Q 2697 2009 2131 1694 
L 1703 1456 
Q 1397 1288 1222 1134 
Q 909 863 828 531 
L 3272 531 
L 3272 0 
L 200 0 
z
" id="Helvetica-32" transform="scale(0.015625)"/>
      </defs>
      <use xlink:href="#Helvetica-69"/>
      <use x="22.216797" xlink:href="#Helvetica-3a"/>
      <use x="50" xlink:href="#Helvetica-20"/>
      <use x="77.783203" xlink:href="#Helvetica-61"/>
      <use x="133.398438" xlink:href="#Helvetica-31"/>
      <use x="189.013672" xlink:href="#Helvetica-2d"/>
      <use x="222.314453" xlink:href="#Helvetica-32"/>
     </g>
    </g>
    <g id="line2d_19">
     <path d="M -1 372.403125 
L 35.646875 372.403125 
" style="fill:none;stroke:#b7f735;stroke-linecap:square;stroke-width:1.5;"/>
    </g>
    <g id="line2d_20">
     <defs>
      <path d="M 0 5 
C 1.326016 5 2.597899 4.473168 3.535534 3.535534 
C 4.473168 2.597899 5 1.326016 5 0 
C 5 -1.326016 4.473168 -2.597899 3.535534 -3.535534 
C 2.597899 -4.473168 1.326016 -5 0 -5 
C -1.326016 -5 -2.597899 -4.473168 -3.535534 -3.535534 
C -4.473168 -2.597899 -5 -1.326016 -5 0 
C -5 1.326016 -4.473168 2.597899 -3.535534 3.535534 
C -2.597899 4.473168 -1.326016 5 0 5 
z
" id="mb4b64ef28b" style="stroke:#b7f735;"/>
     </defs>
     <g>
      <use style="fill:#b7f735;stroke:#b7f735;" x="15.646875" xlink:href="#mb4b64ef28b" y="372.403125"/>
     </g>
    </g>
    <g id="text_10">
     <!-- j: a1-3 -->
     <g transform="translate(51.646875 379.403125)scale(0.2 -0.2)">
      <defs>
       <path d="M 975 3941 
L 413 3941 
L 413 4591 
L 975 4591 
L 975 3941 
z
M -119 -847 
Q 259 -834 336 -779 
Q 413 -725 413 -438 
L 413 3331 
L 975 3331 
L 975 -497 
Q 975 -863 856 -1044 
Q 659 -1350 109 -1350 
Q 69 -1350 23 -1347 
Q -22 -1344 -119 -1334 
L -119 -847 
z
" id="Helvetica-6a" transform="scale(0.015625)"/>
       <path d="M 1663 -122 
Q 869 -122 511 314 
Q 153 750 153 1375 
L 741 1375 
Q 778 941 903 744 
Q 1122 391 1694 391 
Q 2138 391 2406 628 
Q 2675 866 2675 1241 
Q 2675 1703 2392 1887 
Q 2109 2072 1606 2072 
Q 1550 2072 1492 2070 
Q 1434 2069 1375 2066 
L 1375 2563 
Q 1463 2553 1522 2550 
Q 1581 2547 1650 2547 
Q 1966 2547 2169 2647 
Q 2525 2822 2525 3272 
Q 2525 3606 2287 3787 
Q 2050 3969 1734 3969 
Q 1172 3969 956 3594 
Q 838 3388 822 3006 
L 266 3006 
Q 266 3506 466 3856 
Q 809 4481 1675 4481 
Q 2359 4481 2734 4176 
Q 3109 3872 3109 3294 
Q 3109 2881 2888 2625 
Q 2750 2466 2531 2375 
Q 2884 2278 3082 2001 
Q 3281 1725 3281 1325 
Q 3281 684 2859 281 
Q 2438 -122 1663 -122 
z
" id="Helvetica-33" transform="scale(0.015625)"/>
      </defs>
      <use xlink:href="#Helvetica-6a"/>
      <use x="22.216797" xlink:href="#Helvetica-3a"/>
      <use x="50" xlink:href="#Helvetica-20"/>
      <use x="77.783203" xlink:href="#Helvetica-61"/>
      <use x="133.398438" xlink:href="#Helvetica-31"/>
      <use x="189.013672" xlink:href="#Helvetica-2d"/>
      <use x="222.314453" xlink:href="#Helvetica-33"/>
     </g>
    </g>
    <g id="line2d_21">
     <path d="M -1 400.96875 
L 35.646875 400.96875 
" style="fill:none;stroke:#dbe236;stroke-linecap:square;stroke-width:1.5;"/>
    </g>
    <g id="line2d_22">
     <defs>
      <path d="M 0 5 
C 1.326016 5 2.597899 4.473168 3.535534 3.535534 
C 4.473168 2.597899 5 1.326016 5 0 
C 5 -1.326016 4.473168 -2.597899 3.535534 -3.535534 
C 2.597899 -4.473168 1.326016 -5 0 -5 
C -1.326016 -5 -2.597899 -4.473168 -3.535534 -3.535534 
C -4.473168 -2.597899 -5 -1.326016 -5 0 
C -5 1.326016 -4.473168 2.597899 -3.535534 3.535534 
C -2.597899 4.473168 -1.326016 5 0 5 
z
" id="me698bcb33d" style="stroke:#dbe236;"/>
     </defs>
     <g>
      <use style="fill:#dbe236;stroke:#dbe236;" x="15.646875" xlink:href="#me698bcb33d" y="400.96875"/>
     </g>
    </g>
    <g id="text_11">
     <!-- k: a1-4 -->
     <g transform="translate(51.646875 407.96875)scale(0.2 -0.2)">
      <defs>
       <path d="M 400 4591 
L 941 4591 
L 941 1925 
L 2384 3347 
L 3103 3347 
L 1822 2094 
L 3175 0 
L 2456 0 
L 1413 1688 
L 941 1256 
L 941 0 
L 400 0 
L 400 4591 
z
" id="Helvetica-6b" transform="scale(0.015625)"/>
       <path d="M 2116 1584 
L 2116 3613 
L 681 1584 
L 2116 1584 
z
M 2125 0 
L 2125 1094 
L 163 1094 
L 163 1644 
L 2213 4488 
L 2688 4488 
L 2688 1584 
L 3347 1584 
L 3347 1094 
L 2688 1094 
L 2688 0 
L 2125 0 
z
" id="Helvetica-34" transform="scale(0.015625)"/>
      </defs>
      <use xlink:href="#Helvetica-6b"/>
      <use x="50" xlink:href="#Helvetica-3a"/>
      <use x="77.783203" xlink:href="#Helvetica-20"/>
      <use x="105.566406" xlink:href="#Helvetica-61"/>
      <use x="161.181641" xlink:href="#Helvetica-31"/>
      <use x="216.796875" xlink:href="#Helvetica-2d"/>
      <use x="250.097656" xlink:href="#Helvetica-34"/>
     </g>
    </g>
    <g id="line2d_23">
     <path d="M -1 429.484375 
L 35.646875 429.484375 
" style="fill:none;stroke:#f5c53a;stroke-linecap:square;stroke-width:1.5;"/>
    </g>
    <g id="line2d_24">
     <defs>
      <path d="M 0 5 
C 1.326016 5 2.597899 4.473168 3.535534 3.535534 
C 4.473168 2.597899 5 1.326016 5 0 
C 5 -1.326016 4.473168 -2.597899 3.535534 -3.535534 
C 2.597899 -4.473168 1.326016 -5 0 -5 
C -1.326016 -5 -2.597899 -4.473168 -3.535534 -3.535534 
C -4.473168 -2.597899 -5 -1.326016 -5 0 
C -5 1.326016 -4.473168 2.597899 -3.535534 3.535534 
C -2.597899 4.473168 -1.326016 5 0 5 
z
" id="mf7f211ba2f" style="stroke:#f5c53a;"/>
     </defs>
     <g>
      <use style="fill:#f5c53a;stroke:#f5c53a;" x="15.646875" xlink:href="#mf7f211ba2f" y="429.484375"/>
     </g>
    </g>
    <g id="text_12">
     <!-- l: a1-6 -->
     <g transform="translate(51.646875 436.484375)scale(0.2 -0.2)">
      <defs>
       <path d="M 1872 4494 
Q 2622 4494 2917 4105 
Q 3213 3716 3213 3303 
L 2656 3303 
Q 2606 3569 2497 3719 
Q 2294 4000 1881 4000 
Q 1409 4000 1131 3564 
Q 853 3128 822 2316 
Q 1016 2600 1309 2741 
Q 1578 2866 1909 2866 
Q 2472 2866 2890 2506 
Q 3309 2147 3309 1434 
Q 3309 825 2912 354 
Q 2516 -116 1781 -116 
Q 1153 -116 697 361 
Q 241 838 241 1966 
Q 241 2800 444 3381 
Q 834 4494 1872 4494 
z
M 1831 384 
Q 2275 384 2495 682 
Q 2716 981 2716 1388 
Q 2716 1731 2519 2042 
Q 2322 2353 1803 2353 
Q 1441 2353 1167 2112 
Q 894 1872 894 1388 
Q 894 963 1142 673 
Q 1391 384 1831 384 
z
" id="Helvetica-36" transform="scale(0.015625)"/>
      </defs>
      <use xlink:href="#Helvetica-6c"/>
      <use x="22.216797" xlink:href="#Helvetica-3a"/>
      <use x="50" xlink:href="#Helvetica-20"/>
      <use x="77.783203" xlink:href="#Helvetica-61"/>
      <use x="133.398438" xlink:href="#Helvetica-31"/>
      <use x="189.013672" xlink:href="#Helvetica-2d"/>
      <use x="222.314453" xlink:href="#Helvetica-36"/>
     </g>
    </g>
    <g id="line2d_25">
     <path d="M -1 458 
L 35.646875 458 
" style="fill:none;stroke:#fea130;stroke-linecap:square;stroke-width:1.5;"/>
    </g>
    <g id="line2d_26">
     <defs>
      <path d="M 0 5 
C 1.326016 5 2.597899 4.473168 3.535534 3.535534 
C 4.473168 2.597899 5 1.326016 5 0 
C 5 -1.326016 4.473168 -2.597899 3.535534 -3.535534 
C 2.597899 -4.473168 1.326016 -5 0 -5 
C -1.326016 -5 -2.597899 -4.473168 -3.535534 -3.535534 
C -4.473168 -2.597899 -5 -1.326016 -5 0 
C -5 1.326016 -4.473168 2.597899 -3.535534 3.535534 
C -2.597899 4.473168 -1.326016 5 0 5 
z
" id="me6cd466828" style="stroke:#fea130;"/>
     </defs>
     <g>
      <use style="fill:#fea130;stroke:#fea130;" x="15.646875" xlink:href="#me6cd466828" y="458"/>
     </g>
    </g>
    <g id="text_13">
     <!-- m: a2-3 -->
     <g transform="translate(51.646875 465)scale(0.2 -0.2)">
      <defs>
       <path d="M 413 3347 
L 969 3347 
L 969 2872 
Q 1169 3119 1331 3231 
Q 1609 3422 1963 3422 
Q 2363 3422 2606 3225 
Q 2744 3113 2856 2894 
Q 3044 3163 3297 3292 
Q 3550 3422 3866 3422 
Q 4541 3422 4784 2934 
Q 4916 2672 4916 2228 
L 4916 0 
L 4331 0 
L 4331 2325 
Q 4331 2659 4164 2784 
Q 3997 2909 3756 2909 
Q 3425 2909 3186 2687 
Q 2947 2466 2947 1947 
L 2947 0 
L 2375 0 
L 2375 2184 
Q 2375 2525 2294 2681 
Q 2166 2916 1816 2916 
Q 1497 2916 1236 2669 
Q 975 2422 975 1775 
L 975 0 
L 413 0 
L 413 3347 
z
" id="Helvetica-6d" transform="scale(0.015625)"/>
      </defs>
      <use xlink:href="#Helvetica-6d"/>
      <use x="83.300781" xlink:href="#Helvetica-3a"/>
      <use x="111.083984" xlink:href="#Helvetica-20"/>
      <use x="138.867188" xlink:href="#Helvetica-61"/>
      <use x="194.482422" xlink:href="#Helvetica-32"/>
      <use x="250.097656" xlink:href="#Helvetica-2d"/>
      <use x="283.398438" xlink:href="#Helvetica-33"/>
     </g>
    </g>
    <g id="line2d_27">
     <path d="M -1 486.515625 
L 35.646875 486.515625 
" style="fill:none;stroke:#f9751d;stroke-linecap:square;stroke-width:1.5;"/>
    </g>
    <g id="line2d_28">
     <defs>
      <path d="M 0 5 
C 1.326016 5 2.597899 4.473168 3.535534 3.535534 
C 4.473168 2.597899 5 1.326016 5 0 
C 5 -1.326016 4.473168 -2.597899 3.535534 -3.535534 
C 2.597899 -4.473168 1.326016 -5 0 -5 
C -1.326016 -5 -2.597899 -4.473168 -3.535534 -3.535534 
C -4.473168 -2.597899 -5 -1.326016 -5 0 
C -5 1.326016 -4.473168 2.597899 -3.535534 3.535534 
C -2.597899 4.473168 -1.326016 5 0 5 
z
" id="m2f265d64fd" style="stroke:#f9751d;"/>
     </defs>
     <g>
      <use style="fill:#f9751d;stroke:#f9751d;" x="15.646875" xlink:href="#m2f265d64fd" y="486.515625"/>
     </g>
    </g>
    <g id="text_14">
     <!-- n: a2-6 -->
     <g transform="translate(51.646875 493.515625)scale(0.2 -0.2)">
      <use xlink:href="#Helvetica-6e"/>
      <use x="55.615234" xlink:href="#Helvetica-3a"/>
      <use x="83.398438" xlink:href="#Helvetica-20"/>
      <use x="111.181641" xlink:href="#Helvetica-61"/>
      <use x="166.796875" xlink:href="#Helvetica-32"/>
      <use x="222.412109" xlink:href="#Helvetica-2d"/>
      <use x="255.712891" xlink:href="#Helvetica-36"/>
     </g>
    </g>
    <g id="line2d_29">
     <path d="M -1 515.03125 
L 35.646875 515.03125 
" style="fill:none;stroke:#e84b0c;stroke-linecap:square;stroke-width:1.5;"/>
    </g>
    <g id="line2d_30">
     <defs>
      <path d="M 0 5 
C 1.326016 5 2.597899 4.473168 3.535534 3.535534 
C 4.473168 2.597899 5 1.326016 5 0 
C 5 -1.326016 4.473168 -2.597899 3.535534 -3.535534 
C 2.597899 -4.473168 1.326016 -5 0 -5 
C -1.326016 -5 -2.597899 -4.473168 -3.535534 -3.535534 
C -4.473168 -2.597899 -5 -1.326016 -5 0 
C -5 1.326016 -4.473168 2.597899 -3.535534 3.535534 
C -2.597899 4.473168 -1.326016 5 0 5 
z
" id="mf853d38403" style="stroke:#e84b0c;"/>
     </defs>
     <g>
      <use style="fill:#e84b0c;stroke:#e84b0c;" x="15.646875" xlink:href="#mf853d38403" y="515.03125"/>
     </g>
    </g>
    <g id="text_15">
     <!-- o: b1-2 -->
     <g transform="translate(51.646875 522.03125)scale(0.2 -0.2)">
      <defs>
       <path d="M 1741 363 
Q 2300 363 2508 786 
Q 2716 1209 2716 1728 
Q 2716 2197 2566 2491 
Q 2328 2953 1747 2953 
Q 1231 2953 997 2559 
Q 763 2166 763 1609 
Q 763 1075 997 719 
Q 1231 363 1741 363 
z
M 1763 3444 
Q 2409 3444 2856 3012 
Q 3303 2581 3303 1744 
Q 3303 934 2909 406 
Q 2516 -122 1688 -122 
Q 997 -122 590 345 
Q 184 813 184 1600 
Q 184 2444 612 2944 
Q 1041 3444 1763 3444 
z
M 1744 3428 
L 1744 3428 
z
" id="Helvetica-6f" transform="scale(0.015625)"/>
      </defs>
      <use xlink:href="#Helvetica-6f"/>
      <use x="55.615234" xlink:href="#Helvetica-3a"/>
      <use x="83.398438" xlink:href="#Helvetica-20"/>
      <use x="111.181641" xlink:href="#Helvetica-62"/>
      <use x="166.796875" xlink:href="#Helvetica-31"/>
      <use x="222.412109" xlink:href="#Helvetica-2d"/>
      <use x="255.712891" xlink:href="#Helvetica-32"/>
     </g>
    </g>
    <g id="line2d_31">
     <path d="M -1 543.59375 
L 35.646875 543.59375 
" style="fill:none;stroke:#ce2d04;stroke-linecap:square;stroke-width:1.5;"/>
    </g>
    <g id="line2d_32">
     <defs>
      <path d="M 0 5 
C 1.326016 5 2.597899 4.473168 3.535534 3.535534 
C 4.473168 2.597899 5 1.326016 5 0 
C 5 -1.326016 4.473168 -2.597899 3.535534 -3.535534 
C 2.597899 -4.473168 1.326016 -5 0 -5 
C -1.326016 -5 -2.597899 -4.473168 -3.535534 -3.535534 
C -4.473168 -2.597899 -5 -1.326016 -5 0 
C -5 1.326016 -4.473168 2.597899 -3.535534 3.535534 
C -2.597899 4.473168 -1.326016 5 0 5 
z
" id="m82465ce9d3" style="stroke:#ce2d04;"/>
     </defs>
     <g>
      <use style="fill:#ce2d04;stroke:#ce2d04;" x="15.646875" xlink:href="#m82465ce9d3" y="543.59375"/>
     </g>
    </g>
    <g id="text_16">
     <!-- p: b1-3 -->
     <g transform="translate(51.646875 550.59375)scale(0.2 -0.2)">
      <defs>
       <path d="M 1825 378 
Q 2219 378 2480 708 
Q 2741 1038 2741 1694 
Q 2741 2094 2625 2381 
Q 2406 2934 1825 2934 
Q 1241 2934 1025 2350 
Q 909 2038 909 1556 
Q 909 1169 1025 897 
Q 1244 378 1825 378 
z
M 369 3331 
L 916 3331 
L 916 2888 
Q 1084 3116 1284 3241 
Q 1569 3428 1953 3428 
Q 2522 3428 2919 2992 
Q 3316 2556 3316 1747 
Q 3316 653 2744 184 
Q 2381 -113 1900 -113 
Q 1522 -113 1266 53 
Q 1116 147 931 375 
L 931 -1334 
L 369 -1334 
L 369 3331 
z
" id="Helvetica-70" transform="scale(0.015625)"/>
      </defs>
      <use xlink:href="#Helvetica-70"/>
      <use x="55.615234" xlink:href="#Helvetica-3a"/>
      <use x="83.398438" xlink:href="#Helvetica-20"/>
      <use x="111.181641" xlink:href="#Helvetica-62"/>
      <use x="166.796875" xlink:href="#Helvetica-31"/>
      <use x="222.412109" xlink:href="#Helvetica-2d"/>
      <use x="255.712891" xlink:href="#Helvetica-33"/>
     </g>
    </g>
    <g id="line2d_33">
     <path d="M -1 572.15625 
L 35.646875 572.15625 
" style="fill:none;stroke:#a91601;stroke-linecap:square;stroke-width:1.5;"/>
    </g>
    <g id="line2d_34">
     <defs>
      <path d="M 0 5 
C 1.326016 5 2.597899 4.473168 3.535534 3.535534 
C 4.473168 2.597899 5 1.326016 5 0 
C 5 -1.326016 4.473168 -2.597899 3.535534 -3.535534 
C 2.597899 -4.473168 1.326016 -5 0 -5 
C -1.326016 -5 -2.597899 -4.473168 -3.535534 -3.535534 
C -4.473168 -2.597899 -5 -1.326016 -5 0 
C -5 1.326016 -4.473168 2.597899 -3.535534 3.535534 
C -2.597899 4.473168 -1.326016 5 0 5 
z
" id="m9c75a7ac21" style="stroke:#a91601;"/>
     </defs>
     <g>
      <use style="fill:#a91601;stroke:#a91601;" x="15.646875" xlink:href="#m9c75a7ac21" y="572.15625"/>
     </g>
    </g>
    <g id="text_17">
     <!-- q: b1-4 -->
     <g transform="translate(51.646875 579.15625)scale(0.2 -0.2)">
      <defs>
       <path d="M 775 1628 
Q 775 1194 897 900 
Q 1113 378 1669 378 
Q 2256 378 2478 928 
Q 2600 1231 2600 1703 
Q 2600 2138 2466 2428 
Q 2238 2925 1663 2925 
Q 1297 2925 1036 2608 
Q 775 2291 775 1628 
z
M 1606 3422 
Q 2022 3422 2306 3213 
Q 2463 3100 2606 2881 
L 2606 3347 
L 3141 3347 
L 3141 -1334 
L 2575 -1334 
L 2575 384 
Q 2434 159 2186 26 
Q 1938 -106 1566 -106 
Q 1031 -106 609 312 
Q 188 731 188 1588 
Q 188 2391 583 2906 
Q 978 3422 1606 3422 
z
" id="Helvetica-71" transform="scale(0.015625)"/>
      </defs>
      <use xlink:href="#Helvetica-71"/>
      <use x="55.615234" xlink:href="#Helvetica-3a"/>
      <use x="83.398438" xlink:href="#Helvetica-20"/>
      <use x="111.181641" xlink:href="#Helvetica-62"/>
      <use x="166.796875" xlink:href="#Helvetica-31"/>
      <use x="222.412109" xlink:href="#Helvetica-2d"/>
      <use x="255.712891" xlink:href="#Helvetica-34"/>
     </g>
    </g>
    <g id="line2d_35">
     <path d="M -1 600.671875 
L 35.646875 600.671875 
" style="fill:none;stroke:#7a0403;stroke-linecap:square;stroke-width:1.5;"/>
    </g>
    <g id="line2d_36">
     <defs>
      <path d="M 0 5 
C 1.326016 5 2.597899 4.473168 3.535534 3.535534 
C 4.473168 2.597899 5 1.326016 5 0 
C 5 -1.326016 4.473168 -2.597899 3.535534 -3.535534 
C 2.597899 -4.473168 1.326016 -5 0 -5 
C -1.326016 -5 -2.597899 -4.473168 -3.535534 -3.535534 
C -4.473168 -2.597899 -5 -1.326016 -5 0 
C -5 1.326016 -4.473168 2.597899 -3.535534 3.535534 
C -2.597899 4.473168 -1.326016 5 0 5 
z
" id="md5fc763997" style="stroke:#7a0403;"/>
     </defs>
     <g>
      <use style="fill:#7a0403;stroke:#7a0403;" x="15.646875" xlink:href="#md5fc763997" y="600.671875"/>
     </g>
    </g>
    <g id="text_18">
     <!-- r: b1-6 -->
     <g transform="translate(51.646875 607.671875)scale(0.2 -0.2)">
      <defs>
       <path d="M 428 3347 
L 963 3347 
L 963 2769 
Q 1028 2938 1284 3180 
Q 1541 3422 1875 3422 
Q 1891 3422 1928 3419 
Q 1966 3416 2056 3406 
L 2056 2813 
Q 2006 2822 1964 2825 
Q 1922 2828 1872 2828 
Q 1447 2828 1219 2554 
Q 991 2281 991 1925 
L 991 0 
L 428 0 
L 428 3347 
z
" id="Helvetica-72" transform="scale(0.015625)"/>
      </defs>
      <use xlink:href="#Helvetica-72"/>
      <use x="33.300781" xlink:href="#Helvetica-3a"/>
      <use x="61.083984" xlink:href="#Helvetica-20"/>
      <use x="88.867188" xlink:href="#Helvetica-62"/>
      <use x="144.482422" xlink:href="#Helvetica-31"/>
      <use x="200.097656" xlink:href="#Helvetica-2d"/>
      <use x="233.398438" xlink:href="#Helvetica-36"/>
     </g>
    </g>
   </g>
  </g>
 </g>
</svg>
