<?xml version="1.0" encoding="utf-8" standalone="no"?>
<!DOCTYPE svg PUBLIC "-//W3C//DTD SVG 1.1//EN"
  "http://www.w3.org/Graphics/SVG/1.1/DTD/svg11.dtd">
<svg height="144pt" version="1.1" viewBox="0 0 144 144" width="144pt" xmlns="http://www.w3.org/2000/svg" xmlns:xlink="http://www.w3.org/1999/xlink">
 <metadata>
  <rdf:RDF xmlns:cc="http://creativecommons.org/ns#" xmlns:dc="http://purl.org/dc/elements/1.1/" xmlns:rdf="http://www.w3.org/1999/02/22-rdf-syntax-ns#">
   <cc:Work>
    <dc:type rdf:resource="http://purl.org/dc/dcmitype/StillImage"/>
    <dc:date>2022-12-21T16:08:52.641538</dc:date>
    <dc:format>image/svg+xml</dc:format>
    <dc:creator>
     <cc:Agent>
      <dc:title>Matplotlib v3.4.2, https://matplotlib.org/</dc:title>
     </cc:Agent>
    </dc:creator>
   </cc:Work>
  </rdf:RDF>
 </metadata>
 <defs>
  <style type="text/css">*{stroke-linecap:butt;stroke-linejoin:round;}</style>
 </defs>
 <g id="figure_1">
  <g id="patch_1">
   <path d="M 0 144 
L 144 144 
L 144 0 
L 0 0 
z
" style="fill:#ffffff;"/>
  </g>
  <g id="axes_1">
   <g id="patch_2">
    <path d="M 18 128.16 
L 129.6 128.16 
L 129.6 17.28 
L 18 17.28 
z
" style="fill:#ffffff;"/>
   </g>
   <g id="matplotlib.axis_1">
    <g id="xtick_1">
     <g id="text_1">
      <!-- Original -->
      <g style="fill:#262626;" transform="translate(51.08125 204.0725)rotate(-90)scale(0.2 -0.2)">
       <defs>
        <path d="M 309 2231 
Q 309 3372 921 4017 
Q 1534 4663 2503 4663 
Q 3138 4663 3647 4359 
Q 4156 4056 4423 3514 
Q 4691 2972 4691 2284 
Q 4691 1588 4409 1038 
Q 4128 488 3612 205 
Q 3097 -78 2500 -78 
Q 1853 -78 1343 234 
Q 834 547 571 1087 
Q 309 1628 309 2231 
z
M 934 2222 
Q 934 1394 1379 917 
Q 1825 441 2497 441 
Q 3181 441 3623 922 
Q 4066 1403 4066 2288 
Q 4066 2847 3877 3264 
Q 3688 3681 3323 3911 
Q 2959 4141 2506 4141 
Q 1863 4141 1398 3698 
Q 934 3256 934 2222 
z
" id="ArialMT-4f" transform="scale(0.015625)"/>
        <path d="M 416 0 
L 416 3319 
L 922 3319 
L 922 2816 
Q 1116 3169 1280 3281 
Q 1444 3394 1641 3394 
Q 1925 3394 2219 3213 
L 2025 2691 
Q 1819 2813 1613 2813 
Q 1428 2813 1281 2702 
Q 1134 2591 1072 2394 
Q 978 2094 978 1738 
L 978 0 
L 416 0 
z
" id="ArialMT-72" transform="scale(0.015625)"/>
        <path d="M 425 3934 
L 425 4581 
L 988 4581 
L 988 3934 
L 425 3934 
z
M 425 0 
L 425 3319 
L 988 3319 
L 988 0 
L 425 0 
z
" id="ArialMT-69" transform="scale(0.015625)"/>
        <path d="M 319 -275 
L 866 -356 
Q 900 -609 1056 -725 
Q 1266 -881 1628 -881 
Q 2019 -881 2231 -725 
Q 2444 -569 2519 -288 
Q 2563 -116 2559 434 
Q 2191 0 1641 0 
Q 956 0 581 494 
Q 206 988 206 1678 
Q 206 2153 378 2554 
Q 550 2956 876 3175 
Q 1203 3394 1644 3394 
Q 2231 3394 2613 2919 
L 2613 3319 
L 3131 3319 
L 3131 450 
Q 3131 -325 2973 -648 
Q 2816 -972 2473 -1159 
Q 2131 -1347 1631 -1347 
Q 1038 -1347 672 -1080 
Q 306 -813 319 -275 
z
M 784 1719 
Q 784 1066 1043 766 
Q 1303 466 1694 466 
Q 2081 466 2343 764 
Q 2606 1063 2606 1700 
Q 2606 2309 2336 2618 
Q 2066 2928 1684 2928 
Q 1309 2928 1046 2623 
Q 784 2319 784 1719 
z
" id="ArialMT-67" transform="scale(0.015625)"/>
        <path d="M 422 0 
L 422 3319 
L 928 3319 
L 928 2847 
Q 1294 3394 1984 3394 
Q 2284 3394 2536 3286 
Q 2788 3178 2913 3003 
Q 3038 2828 3088 2588 
Q 3119 2431 3119 2041 
L 3119 0 
L 2556 0 
L 2556 2019 
Q 2556 2363 2490 2533 
Q 2425 2703 2258 2804 
Q 2091 2906 1866 2906 
Q 1506 2906 1245 2678 
Q 984 2450 984 1813 
L 984 0 
L 422 0 
z
" id="ArialMT-6e" transform="scale(0.015625)"/>
        <path d="M 2588 409 
Q 2275 144 1986 34 
Q 1697 -75 1366 -75 
Q 819 -75 525 192 
Q 231 459 231 875 
Q 231 1119 342 1320 
Q 453 1522 633 1644 
Q 813 1766 1038 1828 
Q 1203 1872 1538 1913 
Q 2219 1994 2541 2106 
Q 2544 2222 2544 2253 
Q 2544 2597 2384 2738 
Q 2169 2928 1744 2928 
Q 1347 2928 1158 2789 
Q 969 2650 878 2297 
L 328 2372 
Q 403 2725 575 2942 
Q 747 3159 1072 3276 
Q 1397 3394 1825 3394 
Q 2250 3394 2515 3294 
Q 2781 3194 2906 3042 
Q 3031 2891 3081 2659 
Q 3109 2516 3109 2141 
L 3109 1391 
Q 3109 606 3145 398 
Q 3181 191 3288 0 
L 2700 0 
Q 2613 175 2588 409 
z
M 2541 1666 
Q 2234 1541 1622 1453 
Q 1275 1403 1131 1340 
Q 988 1278 909 1158 
Q 831 1038 831 891 
Q 831 666 1001 516 
Q 1172 366 1500 366 
Q 1825 366 2078 508 
Q 2331 650 2450 897 
Q 2541 1088 2541 1459 
L 2541 1666 
z
" id="ArialMT-61" transform="scale(0.015625)"/>
        <path d="M 409 0 
L 409 4581 
L 972 4581 
L 972 0 
L 409 0 
z
" id="ArialMT-6c" transform="scale(0.015625)"/>
       </defs>
       <use xlink:href="#ArialMT-4f"/>
       <use x="77.783203" xlink:href="#ArialMT-72"/>
       <use x="111.083984" xlink:href="#ArialMT-69"/>
       <use x="133.300781" xlink:href="#ArialMT-67"/>
       <use x="188.916016" xlink:href="#ArialMT-69"/>
       <use x="211.132812" xlink:href="#ArialMT-6e"/>
       <use x="266.748047" xlink:href="#ArialMT-61"/>
       <use x="322.363281" xlink:href="#ArialMT-6c"/>
      </g>
     </g>
    </g>
    <g id="xtick_2">
     <g id="text_2">
      <!-- Mutated -->
      <g style="fill:#262626;" transform="translate(106.870312 207.419375)rotate(-90)scale(0.2 -0.2)">
       <defs>
        <path d="M 475 0 
L 475 4581 
L 1388 4581 
L 2472 1338 
Q 2622 884 2691 659 
Q 2769 909 2934 1394 
L 4031 4581 
L 4847 4581 
L 4847 0 
L 4263 0 
L 4263 3834 
L 2931 0 
L 2384 0 
L 1059 3900 
L 1059 0 
L 475 0 
z
" id="ArialMT-4d" transform="scale(0.015625)"/>
        <path d="M 2597 0 
L 2597 488 
Q 2209 -75 1544 -75 
Q 1250 -75 995 37 
Q 741 150 617 320 
Q 494 491 444 738 
Q 409 903 409 1263 
L 409 3319 
L 972 3319 
L 972 1478 
Q 972 1038 1006 884 
Q 1059 663 1231 536 
Q 1403 409 1656 409 
Q 1909 409 2131 539 
Q 2353 669 2445 892 
Q 2538 1116 2538 1541 
L 2538 3319 
L 3100 3319 
L 3100 0 
L 2597 0 
z
" id="ArialMT-75" transform="scale(0.015625)"/>
        <path d="M 1650 503 
L 1731 6 
Q 1494 -44 1306 -44 
Q 1000 -44 831 53 
Q 663 150 594 308 
Q 525 466 525 972 
L 525 2881 
L 113 2881 
L 113 3319 
L 525 3319 
L 525 4141 
L 1084 4478 
L 1084 3319 
L 1650 3319 
L 1650 2881 
L 1084 2881 
L 1084 941 
Q 1084 700 1114 631 
Q 1144 563 1211 522 
Q 1278 481 1403 481 
Q 1497 481 1650 503 
z
" id="ArialMT-74" transform="scale(0.015625)"/>
        <path d="M 2694 1069 
L 3275 997 
Q 3138 488 2766 206 
Q 2394 -75 1816 -75 
Q 1088 -75 661 373 
Q 234 822 234 1631 
Q 234 2469 665 2931 
Q 1097 3394 1784 3394 
Q 2450 3394 2872 2941 
Q 3294 2488 3294 1666 
Q 3294 1616 3291 1516 
L 816 1516 
Q 847 969 1125 678 
Q 1403 388 1819 388 
Q 2128 388 2347 550 
Q 2566 713 2694 1069 
z
M 847 1978 
L 2700 1978 
Q 2663 2397 2488 2606 
Q 2219 2931 1791 2931 
Q 1403 2931 1139 2672 
Q 875 2413 847 1978 
z
" id="ArialMT-65" transform="scale(0.015625)"/>
        <path d="M 2575 0 
L 2575 419 
Q 2259 -75 1647 -75 
Q 1250 -75 917 144 
Q 584 363 401 755 
Q 219 1147 219 1656 
Q 219 2153 384 2558 
Q 550 2963 881 3178 
Q 1213 3394 1622 3394 
Q 1922 3394 2156 3267 
Q 2391 3141 2538 2938 
L 2538 4581 
L 3097 4581 
L 3097 0 
L 2575 0 
z
M 797 1656 
Q 797 1019 1065 703 
Q 1334 388 1700 388 
Q 2069 388 2326 689 
Q 2584 991 2584 1609 
Q 2584 2291 2321 2609 
Q 2059 2928 1675 2928 
Q 1300 2928 1048 2622 
Q 797 2316 797 1656 
z
" id="ArialMT-64" transform="scale(0.015625)"/>
       </defs>
       <use xlink:href="#ArialMT-4d"/>
       <use x="83.300781" xlink:href="#ArialMT-75"/>
       <use x="138.916016" xlink:href="#ArialMT-74"/>
       <use x="166.699219" xlink:href="#ArialMT-61"/>
       <use x="222.314453" xlink:href="#ArialMT-74"/>
       <use x="250.097656" xlink:href="#ArialMT-65"/>
       <use x="305.712891" xlink:href="#ArialMT-64"/>
      </g>
     </g>
    </g>
    <g id="text_3">
     <!-- Method -->
     <g style="fill:#262626;" transform="translate(40.448437 225.735)scale(0.2 -0.2)">
      <defs>
       <path d="M 422 0 
L 422 4581 
L 984 4581 
L 984 2938 
Q 1378 3394 1978 3394 
Q 2347 3394 2619 3248 
Q 2891 3103 3008 2847 
Q 3125 2591 3125 2103 
L 3125 0 
L 2563 0 
L 2563 2103 
Q 2563 2525 2380 2717 
Q 2197 2909 1863 2909 
Q 1613 2909 1392 2779 
Q 1172 2650 1078 2428 
Q 984 2206 984 1816 
L 984 0 
L 422 0 
z
" id="ArialMT-68" transform="scale(0.015625)"/>
       <path d="M 213 1659 
Q 213 2581 725 3025 
Q 1153 3394 1769 3394 
Q 2453 3394 2887 2945 
Q 3322 2497 3322 1706 
Q 3322 1066 3130 698 
Q 2938 331 2570 128 
Q 2203 -75 1769 -75 
Q 1072 -75 642 372 
Q 213 819 213 1659 
z
M 791 1659 
Q 791 1022 1069 705 
Q 1347 388 1769 388 
Q 2188 388 2466 706 
Q 2744 1025 2744 1678 
Q 2744 2294 2464 2611 
Q 2184 2928 1769 2928 
Q 1347 2928 1069 2612 
Q 791 2297 791 1659 
z
" id="ArialMT-6f" transform="scale(0.015625)"/>
      </defs>
      <use xlink:href="#ArialMT-4d"/>
      <use x="83.300781" xlink:href="#ArialMT-65"/>
      <use x="138.916016" xlink:href="#ArialMT-74"/>
      <use x="166.699219" xlink:href="#ArialMT-68"/>
      <use x="222.314453" xlink:href="#ArialMT-6f"/>
      <use x="277.929688" xlink:href="#ArialMT-64"/>
     </g>
    </g>
   </g>
   <g id="matplotlib.axis_2">
    <g id="ytick_1">
     <g id="text_4">
      <!-- 0.0 -->
      <g style="fill:#262626;" transform="translate(-16.8 116.624112)scale(0.2 -0.2)">
       <defs>
        <path d="M 266 2259 
Q 266 3072 433 3567 
Q 600 4063 929 4331 
Q 1259 4600 1759 4600 
Q 2128 4600 2406 4451 
Q 2684 4303 2865 4023 
Q 3047 3744 3150 3342 
Q 3253 2941 3253 2259 
Q 3253 1453 3087 958 
Q 2922 463 2592 192 
Q 2263 -78 1759 -78 
Q 1097 -78 719 397 
Q 266 969 266 2259 
z
M 844 2259 
Q 844 1131 1108 757 
Q 1372 384 1759 384 
Q 2147 384 2411 759 
Q 2675 1134 2675 2259 
Q 2675 3391 2411 3762 
Q 2147 4134 1753 4134 
Q 1366 4134 1134 3806 
Q 844 3388 844 2259 
z
" id="ArialMT-30" transform="scale(0.015625)"/>
        <path d="M 581 0 
L 581 641 
L 1222 641 
L 1222 0 
L 581 0 
z
" id="ArialMT-2e" transform="scale(0.015625)"/>
       </defs>
       <use xlink:href="#ArialMT-30"/>
       <use x="55.615234" xlink:href="#ArialMT-2e"/>
       <use x="83.398438" xlink:href="#ArialMT-30"/>
      </g>
     </g>
    </g>
    <g id="ytick_2">
     <g id="text_5">
      <!-- 2.5 -->
      <g style="fill:#262626;" transform="translate(-16.8 55.38028)scale(0.2 -0.2)">
       <defs>
        <path d="M 3222 541 
L 3222 0 
L 194 0 
Q 188 203 259 391 
Q 375 700 629 1000 
Q 884 1300 1366 1694 
Q 2113 2306 2375 2664 
Q 2638 3022 2638 3341 
Q 2638 3675 2398 3904 
Q 2159 4134 1775 4134 
Q 1369 4134 1125 3890 
Q 881 3647 878 3216 
L 300 3275 
Q 359 3922 746 4261 
Q 1134 4600 1788 4600 
Q 2447 4600 2831 4234 
Q 3216 3869 3216 3328 
Q 3216 3053 3103 2787 
Q 2991 2522 2730 2228 
Q 2469 1934 1863 1422 
Q 1356 997 1212 845 
Q 1069 694 975 541 
L 3222 541 
z
" id="ArialMT-32" transform="scale(0.015625)"/>
        <path d="M 266 1200 
L 856 1250 
Q 922 819 1161 601 
Q 1400 384 1738 384 
Q 2144 384 2425 690 
Q 2706 997 2706 1503 
Q 2706 1984 2436 2262 
Q 2166 2541 1728 2541 
Q 1456 2541 1237 2417 
Q 1019 2294 894 2097 
L 366 2166 
L 809 4519 
L 3088 4519 
L 3088 3981 
L 1259 3981 
L 1013 2750 
Q 1425 3038 1878 3038 
Q 2478 3038 2890 2622 
Q 3303 2206 3303 1553 
Q 3303 931 2941 478 
Q 2500 -78 1738 -78 
Q 1113 -78 717 272 
Q 322 622 266 1200 
z
" id="ArialMT-35" transform="scale(0.015625)"/>
       </defs>
       <use xlink:href="#ArialMT-32"/>
       <use x="55.615234" xlink:href="#ArialMT-2e"/>
       <use x="83.398438" xlink:href="#ArialMT-35"/>
      </g>
     </g>
    </g>
    <g id="text_6">
     <!-- Predictions -->
     <g style="fill:#262626;" transform="translate(-24.775 122.185625)rotate(-90)scale(0.2 -0.2)">
      <defs>
       <path d="M 494 0 
L 494 4581 
L 2222 4581 
Q 2678 4581 2919 4538 
Q 3256 4481 3484 4323 
Q 3713 4166 3852 3881 
Q 3991 3597 3991 3256 
Q 3991 2672 3619 2267 
Q 3247 1863 2275 1863 
L 1100 1863 
L 1100 0 
L 494 0 
z
M 1100 2403 
L 2284 2403 
Q 2872 2403 3119 2622 
Q 3366 2841 3366 3238 
Q 3366 3525 3220 3729 
Q 3075 3934 2838 4000 
Q 2684 4041 2272 4041 
L 1100 4041 
L 1100 2403 
z
" id="ArialMT-50" transform="scale(0.015625)"/>
       <path d="M 2588 1216 
L 3141 1144 
Q 3050 572 2676 248 
Q 2303 -75 1759 -75 
Q 1078 -75 664 370 
Q 250 816 250 1647 
Q 250 2184 428 2587 
Q 606 2991 970 3192 
Q 1334 3394 1763 3394 
Q 2303 3394 2647 3120 
Q 2991 2847 3088 2344 
L 2541 2259 
Q 2463 2594 2264 2762 
Q 2066 2931 1784 2931 
Q 1359 2931 1093 2626 
Q 828 2322 828 1663 
Q 828 994 1084 691 
Q 1341 388 1753 388 
Q 2084 388 2306 591 
Q 2528 794 2588 1216 
z
" id="ArialMT-63" transform="scale(0.015625)"/>
       <path d="M 197 991 
L 753 1078 
Q 800 744 1014 566 
Q 1228 388 1613 388 
Q 2000 388 2187 545 
Q 2375 703 2375 916 
Q 2375 1106 2209 1216 
Q 2094 1291 1634 1406 
Q 1016 1563 777 1677 
Q 538 1791 414 1992 
Q 291 2194 291 2438 
Q 291 2659 392 2848 
Q 494 3038 669 3163 
Q 800 3259 1026 3326 
Q 1253 3394 1513 3394 
Q 1903 3394 2198 3281 
Q 2494 3169 2634 2976 
Q 2775 2784 2828 2463 
L 2278 2388 
Q 2241 2644 2061 2787 
Q 1881 2931 1553 2931 
Q 1166 2931 1000 2803 
Q 834 2675 834 2503 
Q 834 2394 903 2306 
Q 972 2216 1119 2156 
Q 1203 2125 1616 2013 
Q 2213 1853 2448 1751 
Q 2684 1650 2818 1456 
Q 2953 1263 2953 975 
Q 2953 694 2789 445 
Q 2625 197 2315 61 
Q 2006 -75 1616 -75 
Q 969 -75 630 194 
Q 291 463 197 991 
z
" id="ArialMT-73" transform="scale(0.015625)"/>
      </defs>
      <use xlink:href="#ArialMT-50"/>
      <use x="66.699219" xlink:href="#ArialMT-72"/>
      <use x="100" xlink:href="#ArialMT-65"/>
      <use x="155.615234" xlink:href="#ArialMT-64"/>
      <use x="211.230469" xlink:href="#ArialMT-69"/>
      <use x="233.447266" xlink:href="#ArialMT-63"/>
      <use x="283.447266" xlink:href="#ArialMT-74"/>
      <use x="311.230469" xlink:href="#ArialMT-69"/>
      <use x="333.447266" xlink:href="#ArialMT-6f"/>
      <use x="389.0625" xlink:href="#ArialMT-6e"/>
      <use x="444.677734" xlink:href="#ArialMT-73"/>
     </g>
    </g>
   </g>
   <g id="PolyCollection_1">
    <defs>
     <path d="M 46.030306 -20.88 
L 45.769694 -20.88 
L 45.726349 -21.898182 
L 45.673675 -22.916364 
L 45.611512 -23.934545 
L 45.540365 -24.952727 
L 45.461531 -25.970909 
L 45.377175 -26.989091 
L 45.290298 -28.007273 
L 45.204615 -29.025455 
L 45.124317 -30.043636 
L 45.053745 -31.061818 
L 44.996993 -32.08 
L 44.95751 -33.098182 
L 44.937729 -34.116364 
L 44.938784 -35.134545 
L 44.960359 -36.152727 
L 45.000676 -37.170909 
L 45.056639 -38.189091 
L 45.124093 -39.207273 
L 45.198174 -40.225455 
L 45.273698 -41.243636 
L 45.345544 -42.261818 
L 45.408994 -43.28 
L 45.460006 -44.298182 
L 45.495418 -45.316364 
L 45.513082 -46.334545 
L 45.511938 -47.352727 
L 45.492053 -48.370909 
L 45.454612 -49.389091 
L 45.401879 -50.407273 
L 45.337112 -51.425455 
L 45.264408 -52.443636 
L 45.188485 -53.461818 
L 45.114378 -54.48 
L 45.047055 -55.498182 
L 44.990988 -56.516364 
L 44.949688 -57.534545 
L 44.925269 -58.552727 
L 44.918049 -59.570909 
L 44.926258 -60.589091 
L 44.945839 -61.607273 
L 44.970381 -62.625455 
L 44.991158 -63.643636 
L 44.9973 -64.661818 
L 44.97607 -65.68 
L 44.913296 -66.698182 
L 44.793969 -67.716364 
L 44.603058 -68.734545 
L 44.326582 -69.752727 
L 43.952931 -70.770909 
L 43.474414 -71.789091 
L 42.888897 -72.807273 
L 42.201373 -73.825455 
L 41.425193 -74.843636 
L 40.582696 -75.861818 
L 39.704982 -76.88 
L 38.830644 -77.898182 
L 38.003432 -78.916364 
L 37.268964 -79.934545 
L 36.670806 -80.952727 
L 36.246361 -81.970909 
L 36.023108 -82.989091 
L 36.015714 -84.007273 
L 36.224439 -85.025455 
L 36.635061 -86.043636 
L 37.220354 -87.061818 
L 37.942863 -88.08 
L 38.758603 -89.098182 
L 39.621138 -90.116364 
L 40.485528 -91.134545 
L 41.311688 -92.152727 
L 42.066843 -93.170909 
L 42.726944 -94.189091 
L 43.277084 -95.207273 
L 43.71107 -96.225455 
L 44.030384 -97.243636 
L 44.242805 -98.261818 
L 44.360903 -99.28 
L 44.400566 -100.298182 
L 44.379658 -101.316364 
L 44.316828 -102.334545 
L 44.230464 -103.352727 
L 44.13778 -104.370909 
L 44.053998 -105.389091 
L 43.99167 -106.407273 
L 43.960142 -107.425455 
L 43.965233 -108.443636 
L 44.009153 -109.461818 
L 44.090693 -110.48 
L 44.205682 -111.498182 
L 44.347665 -112.516364 
L 44.50872 -113.534545 
L 44.680334 -114.552727 
L 44.854219 -115.570909 
L 45.022998 -116.589091 
L 45.180698 -117.607273 
L 45.32301 -118.625455 
L 45.447343 -119.643636 
L 45.552695 -120.661818 
L 45.639387 -121.68 
L 46.160613 -121.68 
L 46.160613 -121.68 
L 46.247305 -120.661818 
L 46.352657 -119.643636 
L 46.47699 -118.625455 
L 46.619302 -117.607273 
L 46.777002 -116.589091 
L 46.945781 -115.570909 
L 47.119666 -114.552727 
L 47.29128 -113.534545 
L 47.452335 -112.516364 
L 47.594318 -111.498182 
L 47.709307 -110.48 
L 47.790847 -109.461818 
L 47.834767 -108.443636 
L 47.839858 -107.425455 
L 47.80833 -106.407273 
L 47.746002 -105.389091 
L 47.66222 -104.370909 
L 47.569536 -103.352727 
L 47.483172 -102.334545 
L 47.420342 -101.316364 
L 47.399434 -100.298182 
L 47.439097 -99.28 
L 47.557195 -98.261818 
L 47.769616 -97.243636 
L 48.08893 -96.225455 
L 48.522916 -95.207273 
L 49.073056 -94.189091 
L 49.733157 -93.170909 
L 50.488312 -92.152727 
L 51.314472 -91.134545 
L 52.178862 -90.116364 
L 53.041397 -89.098182 
L 53.857137 -88.08 
L 54.579646 -87.061818 
L 55.164939 -86.043636 
L 55.575561 -85.025455 
L 55.784286 -84.007273 
L 55.776892 -82.989091 
L 55.553639 -81.970909 
L 55.129194 -80.952727 
L 54.531036 -79.934545 
L 53.796568 -78.916364 
L 52.969356 -77.898182 
L 52.095018 -76.88 
L 51.217304 -75.861818 
L 50.374807 -74.843636 
L 49.598627 -73.825455 
L 48.911103 -72.807273 
L 48.325586 -71.789091 
L 47.847069 -70.770909 
L 47.473418 -69.752727 
L 47.196942 -68.734545 
L 47.006031 -67.716364 
L 46.886704 -66.698182 
L 46.82393 -65.68 
L 46.8027 -64.661818 
L 46.808842 -63.643636 
L 46.829619 -62.625455 
L 46.854161 -61.607273 
L 46.873742 -60.589091 
L 46.881951 -59.570909 
L 46.874731 -58.552727 
L 46.850312 -57.534545 
L 46.809012 -56.516364 
L 46.752945 -55.498182 
L 46.685622 -54.48 
L 46.611515 -53.461818 
L 46.535592 -52.443636 
L 46.462888 -51.425455 
L 46.398121 -50.407273 
L 46.345388 -49.389091 
L 46.307947 -48.370909 
L 46.288062 -47.352727 
L 46.286918 -46.334545 
L 46.304582 -45.316364 
L 46.339994 -44.298182 
L 46.391006 -43.28 
L 46.454456 -42.261818 
L 46.526302 -41.243636 
L 46.601826 -40.225455 
L 46.675907 -39.207273 
L 46.743361 -38.189091 
L 46.799324 -37.170909 
L 46.839641 -36.152727 
L 46.861216 -35.134545 
L 46.862271 -34.116364 
L 46.84249 -33.098182 
L 46.803007 -32.08 
L 46.746255 -31.061818 
L 46.675683 -30.043636 
L 46.595385 -29.025455 
L 46.509702 -28.007273 
L 46.422825 -26.989091 
L 46.338469 -25.970909 
L 46.259635 -24.952727 
L 46.188488 -23.934545 
L 46.126325 -22.916364 
L 46.073651 -21.898182 
L 46.030306 -20.88 
z
" id="m0045e02886" style="stroke:#262626;stroke-width:0.75;"/>
    </defs>
    <g clip-path="url(#p194cb1c420)">
     <use style="fill:#7f9dd2;stroke:#262626;stroke-width:0.75;" x="0" xlink:href="#m0045e02886" y="144"/>
    </g>
   </g>
   <g id="PolyCollection_2">
    <defs>
     <path d="M 102.243942 -31.090344 
L 101.156058 -31.090344 
L 100.450108 -31.902256 
L 99.400627 -32.714168 
L 98.313399 -33.52608 
L 97.706662 -34.337993 
L 97.930136 -35.149905 
L 98.850736 -35.961817 
L 99.97592 -36.773729 
L 100.864783 -37.585642 
L 101.376064 -38.397554 
L 101.599414 -39.209466 
L 101.674995 -40.021378 
L 101.695023 -40.833291 
L 101.699207 -41.645203 
L 101.699899 -42.457115 
L 101.69999 -43.269027 
L 101.699999 -44.08094 
L 101.7 -44.892852 
L 101.7 -45.704764 
L 101.7 -46.516676 
L 101.7 -47.328589 
L 101.7 -48.140501 
L 101.7 -48.952413 
L 101.699995 -49.764325 
L 101.699948 -50.576238 
L 101.69953 -51.38815 
L 101.696589 -52.200062 
L 101.680176 -53.011974 
L 101.607757 -53.823887 
L 101.356368 -54.635799 
L 100.675129 -55.447711 
L 99.25284 -56.259623 
L 97.021863 -57.071536 
L 94.540197 -57.883448 
L 92.927028 -58.69536 
L 93.09383 -59.507272 
L 94.940872 -60.319185 
L 97.45 -61.131097 
L 99.560538 -61.943009 
L 100.837741 -62.754921 
L 101.42178 -63.566834 
L 101.628128 -64.378746 
L 101.685136 -65.190658 
L 101.697539 -66.00257 
L 101.699674 -66.814483 
L 101.699965 -67.626395 
L 101.699997 -68.438307 
L 101.7 -69.250219 
L 101.7 -70.062132 
L 101.7 -70.874044 
L 101.7 -71.685956 
L 101.7 -72.497868 
L 101.7 -73.309781 
L 101.699994 -74.121693 
L 101.699926 -74.933605 
L 101.699303 -75.745517 
L 101.694738 -76.55743 
L 101.668223 -77.369342 
L 101.546351 -78.181254 
L 101.105212 -78.993166 
L 99.856636 -79.805079 
L 97.126192 -80.616991 
L 92.614222 -81.428903 
L 87.250133 -82.240815 
L 83.30147 -83.052728 
L 82.944876 -83.86464 
L 86.393557 -84.676552 
L 91.698938 -85.488464 
L 96.468388 -86.300377 
L 99.509 -87.112289 
L 100.965373 -87.924201 
L 101.502799 -88.736113 
L 101.657619 -89.548026 
L 101.692708 -90.359938 
L 101.698996 -91.17185 
L 101.699889 -91.983762 
L 101.69999 -92.795675 
L 101.699999 -93.607587 
L 101.7 -94.419499 
L 101.7 -95.231411 
L 101.7 -96.043324 
L 101.7 -96.855236 
L 101.7 -97.667148 
L 101.699995 -98.47906 
L 101.699942 -99.290973 
L 101.699435 -100.102885 
L 101.695568 -100.914797 
L 101.672184 -101.726709 
L 101.560238 -102.538622 
L 101.137795 -103.350534 
L 99.889421 -104.162446 
L 97.031711 -104.974358 
L 92.063584 -105.786271 
L 85.77458 -106.598183 
L 80.629066 -107.410095 
L 79.38 -108.222007 
L 82.771242 -109.03392 
L 88.848092 -109.845832 
L 94.713968 -110.657744 
L 98.659737 -111.469656 
L 104.740263 -111.469656 
L 104.740263 -111.469656 
L 108.686032 -110.657744 
L 114.551908 -109.845832 
L 120.628758 -109.03392 
L 124.02 -108.222007 
L 122.770934 -107.410095 
L 117.62542 -106.598183 
L 111.336416 -105.786271 
L 106.368289 -104.974358 
L 103.510579 -104.162446 
L 102.262205 -103.350534 
L 101.839762 -102.538622 
L 101.727816 -101.726709 
L 101.704432 -100.914797 
L 101.700565 -100.102885 
L 101.700058 -99.290973 
L 101.700005 -98.47906 
L 101.7 -97.667148 
L 101.7 -96.855236 
L 101.7 -96.043324 
L 101.7 -95.231411 
L 101.7 -94.419499 
L 101.700001 -93.607587 
L 101.70001 -92.795675 
L 101.700111 -91.983762 
L 101.701004 -91.17185 
L 101.707292 -90.359938 
L 101.742381 -89.548026 
L 101.897201 -88.736113 
L 102.434627 -87.924201 
L 103.891 -87.112289 
L 106.931612 -86.300377 
L 111.701062 -85.488464 
L 117.006443 -84.676552 
L 120.455124 -83.86464 
L 120.09853 -83.052728 
L 116.149867 -82.240815 
L 110.785778 -81.428903 
L 106.273808 -80.616991 
L 103.543364 -79.805079 
L 102.294788 -78.993166 
L 101.853649 -78.181254 
L 101.731777 -77.369342 
L 101.705262 -76.55743 
L 101.700697 -75.745517 
L 101.700074 -74.933605 
L 101.700006 -74.121693 
L 101.7 -73.309781 
L 101.7 -72.497868 
L 101.7 -71.685956 
L 101.7 -70.874044 
L 101.7 -70.062132 
L 101.7 -69.250219 
L 101.700003 -68.438307 
L 101.700035 -67.626395 
L 101.700326 -66.814483 
L 101.702461 -66.00257 
L 101.714864 -65.190658 
L 101.771872 -64.378746 
L 101.97822 -63.566834 
L 102.562259 -62.754921 
L 103.839462 -61.943009 
L 105.95 -61.131097 
L 108.459128 -60.319185 
L 110.30617 -59.507272 
L 110.472972 -58.69536 
L 108.859803 -57.883448 
L 106.378137 -57.071536 
L 104.14716 -56.259623 
L 102.724871 -55.447711 
L 102.043632 -54.635799 
L 101.792243 -53.823887 
L 101.719824 -53.011974 
L 101.703411 -52.200062 
L 101.70047 -51.38815 
L 101.700052 -50.576238 
L 101.700005 -49.764325 
L 101.7 -48.952413 
L 101.7 -48.140501 
L 101.7 -47.328589 
L 101.7 -46.516676 
L 101.7 -45.704764 
L 101.7 -44.892852 
L 101.700001 -44.08094 
L 101.70001 -43.269027 
L 101.700101 -42.457115 
L 101.700793 -41.645203 
L 101.704977 -40.833291 
L 101.725005 -40.021378 
L 101.800586 -39.209466 
L 102.023936 -38.397554 
L 102.535217 -37.585642 
L 103.42408 -36.773729 
L 104.549264 -35.961817 
L 105.469864 -35.149905 
L 105.693338 -34.337993 
L 105.086601 -33.52608 
L 103.999373 -32.714168 
L 102.949892 -31.902256 
L 102.243942 -31.090344 
z
" id="maf07f29821" style="stroke:#262626;stroke-width:0.75;"/>
    </defs>
    <g clip-path="url(#p194cb1c420)">
     <use style="fill:#1a1a66;stroke:#262626;stroke-width:0.75;" x="0" xlink:href="#maf07f29821" y="144"/>
    </g>
   </g>
   <g id="line2d_1">
    <path clip-path="url(#p194cb1c420)" d="M 45.9 60.471234 
L 45.9 60.471234 
" style="fill:none;stroke:#262626;stroke-linecap:round;stroke-width:0.75;"/>
   </g>
   <g id="line2d_2">
    <path clip-path="url(#p194cb1c420)" d="M 45.9 60.471234 
L 45.9 60.471234 
" style="fill:none;stroke:#262626;stroke-linecap:round;stroke-width:2.25;"/>
   </g>
   <g id="line2d_3">
    <path clip-path="url(#p194cb1c420)" d="M 101.7 84.968766 
L 101.7 35.973701 
" style="fill:none;stroke:#262626;stroke-linecap:round;stroke-width:0.75;"/>
   </g>
   <g id="line2d_4">
    <path clip-path="url(#p194cb1c420)" d="M 101.7 60.471234 
L 101.7 35.973701 
" style="fill:none;stroke:#262626;stroke-linecap:round;stroke-width:2.25;"/>
   </g>
   <g id="patch_3">
    <path d="M 18 128.16 
L 18 17.28 
" style="fill:none;stroke:#262626;stroke-linecap:square;stroke-linejoin:miter;stroke-width:0.8;"/>
   </g>
   <g id="patch_4">
    <path d="M 18 128.16 
L 129.6 128.16 
" style="fill:none;stroke:#262626;stroke-linecap:square;stroke-linejoin:miter;stroke-width:0.8;"/>
   </g>
   <g id="PathCollection_1">
    <defs>
     <path d="M 0 0.75 
C 0.198902 0.75 0.389685 0.670975 0.53033 0.53033 
C 0.670975 0.389685 0.75 0.198902 0.75 0 
C 0.75 -0.198902 0.670975 -0.389685 0.53033 -0.53033 
C 0.389685 -0.670975 0.198902 -0.75 0 -0.75 
C -0.198902 -0.75 -0.389685 -0.670975 -0.53033 -0.53033 
C -0.670975 -0.389685 -0.75 -0.198902 -0.75 0 
C -0.75 0.198902 -0.670975 0.389685 -0.53033 0.53033 
C -0.389685 0.670975 -0.198902 0.75 0 0.75 
z
" id="mf50deff906" style="stroke:#262626;"/>
    </defs>
    <g clip-path="url(#p194cb1c420)">
     <use style="fill:#ffffff;stroke:#262626;" x="45.9" xlink:href="#mf50deff906" y="60.471234"/>
    </g>
   </g>
   <g id="PathCollection_2">
    <g clip-path="url(#p194cb1c420)">
     <use style="fill:#ffffff;stroke:#262626;" x="101.7" xlink:href="#mf50deff906" y="60.471234"/>
    </g>
   </g>
   <g id="text_7">
    <!-- Classc -->
    <g style="fill:#262626;" transform="translate(37.794375 11.28)scale(0.24 -0.24)">
     <defs>
      <path d="M 3763 1606 
L 4369 1453 
Q 4178 706 3683 314 
Q 3188 -78 2472 -78 
Q 1731 -78 1267 223 
Q 803 525 561 1097 
Q 319 1669 319 2325 
Q 319 3041 592 3573 
Q 866 4106 1370 4382 
Q 1875 4659 2481 4659 
Q 3169 4659 3637 4309 
Q 4106 3959 4291 3325 
L 3694 3184 
Q 3534 3684 3231 3912 
Q 2928 4141 2469 4141 
Q 1941 4141 1586 3887 
Q 1231 3634 1087 3207 
Q 944 2781 944 2328 
Q 944 1744 1114 1308 
Q 1284 872 1643 656 
Q 2003 441 2422 441 
Q 2931 441 3284 734 
Q 3638 1028 3763 1606 
z
" id="ArialMT-43" transform="scale(0.015625)"/>
     </defs>
     <use xlink:href="#ArialMT-43"/>
     <use x="72.216797" xlink:href="#ArialMT-6c"/>
     <use x="94.433594" xlink:href="#ArialMT-61"/>
     <use x="150.048828" xlink:href="#ArialMT-73"/>
     <use x="200.048828" xlink:href="#ArialMT-73"/>
     <use x="250.048828" xlink:href="#ArialMT-63"/>
    </g>
   </g>
  </g>
 </g>
 <defs>
  <clipPath id="p194cb1c420">
   <rect height="110.88" width="111.6" x="18" y="17.28"/>
  </clipPath>
 </defs>
</svg>
