<?xml version="1.0" encoding="utf-8" standalone="no"?>
<!DOCTYPE svg PUBLIC "-//W3C//DTD SVG 1.1//EN"
  "http://www.w3.org/Graphics/SVG/1.1/DTD/svg11.dtd">
<svg height="216pt" version="1.1" viewBox="0 0 306 216" width="306pt" xmlns="http://www.w3.org/2000/svg" xmlns:xlink="http://www.w3.org/1999/xlink">
 <metadata>
  <rdf:RDF xmlns:cc="http://creativecommons.org/ns#" xmlns:dc="http://purl.org/dc/elements/1.1/" xmlns:rdf="http://www.w3.org/1999/02/22-rdf-syntax-ns#">
   <cc:Work>
    <dc:type rdf:resource="http://purl.org/dc/dcmitype/StillImage"/>
    <dc:date>2021-12-20T14:04:21.935296</dc:date>
    <dc:format>image/svg+xml</dc:format>
    <dc:creator>
     <cc:Agent>
      <dc:title>Matplotlib v3.4.2, https://matplotlib.org/</dc:title>
     </cc:Agent>
    </dc:creator>
   </cc:Work>
  </rdf:RDF>
 </metadata>
 <defs>
  <style type="text/css">*{stroke-linecap:butt;stroke-linejoin:round;}</style>
 </defs>
 <g id="figure_1">
  <g id="patch_1">
   <path d="M 0 216 
L 306 216 
L 306 0 
L 0 0 
z
" style="fill:#ffffff;"/>
  </g>
  <g id="axes_1">
   <g id="patch_2">
    <path d="M 50.64 139.94 
L 193.776652 139.94 
L 193.776652 21.6 
L 50.64 21.6 
z
" style="fill:#ffffff;"/>
   </g>
   <g id="matplotlib.axis_1">
    <g id="xtick_1">
     <g id="text_1">
      <!-- 0 -->
      <g style="fill:#262626;" transform="translate(45.079063 167.786875)scale(0.2 -0.2)">
       <defs>
        <path d="M 1731 4475 
Q 2600 4475 2988 3759 
Q 3288 3206 3288 2244 
Q 3288 1331 3016 734 
Q 2622 -122 1728 -122 
Q 922 -122 528 578 
Q 200 1163 200 2147 
Q 200 2909 397 3456 
Q 766 4475 1731 4475 
z
M 1725 391 
Q 2163 391 2422 778 
Q 2681 1166 2681 2222 
Q 2681 2984 2493 3476 
Q 2306 3969 1766 3969 
Q 1269 3969 1039 3501 
Q 809 3034 809 2125 
Q 809 1441 956 1025 
Q 1181 391 1725 391 
z
" id="Helvetica-30" transform="scale(0.015625)"/>
       </defs>
       <use xlink:href="#Helvetica-30"/>
      </g>
     </g>
    </g>
    <g id="xtick_2">
     <g id="text_2">
      <!-- 10 -->
      <g style="fill:#262626;" transform="translate(123.716156 167.786875)scale(0.2 -0.2)">
       <defs>
        <path d="M 613 3169 
L 613 3600 
Q 1222 3659 1462 3798 
Q 1703 3938 1822 4456 
L 2266 4456 
L 2266 0 
L 1666 0 
L 1666 3169 
L 613 3169 
z
" id="Helvetica-31" transform="scale(0.015625)"/>
       </defs>
       <use xlink:href="#Helvetica-31"/>
       <use x="55.615234" xlink:href="#Helvetica-30"/>
      </g>
     </g>
    </g>
    <g id="text_3">
     <!-- Position -->
     <g style="fill:#262626;" transform="translate(86.633326 190.3025)scale(0.2 -0.2)">
      <defs>
       <path d="M 547 4591 
L 2613 4591 
Q 3225 4591 3600 4245 
Q 3975 3900 3975 3275 
Q 3975 2738 3640 2339 
Q 3306 1941 2613 1941 
L 1169 1941 
L 1169 0 
L 547 0 
L 547 4591 
z
M 3347 3272 
Q 3347 3778 2972 3959 
Q 2766 4056 2406 4056 
L 1169 4056 
L 1169 2466 
L 2406 2466 
Q 2825 2466 3086 2644 
Q 3347 2822 3347 3272 
z
" id="Helvetica-50" transform="scale(0.015625)"/>
       <path d="M 1741 363 
Q 2300 363 2508 786 
Q 2716 1209 2716 1728 
Q 2716 2197 2566 2491 
Q 2328 2953 1747 2953 
Q 1231 2953 997 2559 
Q 763 2166 763 1609 
Q 763 1075 997 719 
Q 1231 363 1741 363 
z
M 1763 3444 
Q 2409 3444 2856 3012 
Q 3303 2581 3303 1744 
Q 3303 934 2909 406 
Q 2516 -122 1688 -122 
Q 997 -122 590 345 
Q 184 813 184 1600 
Q 184 2444 612 2944 
Q 1041 3444 1763 3444 
z
M 1744 3428 
L 1744 3428 
z
" id="Helvetica-6f" transform="scale(0.015625)"/>
       <path d="M 747 1050 
Q 772 769 888 619 
Q 1100 347 1625 347 
Q 1938 347 2175 483 
Q 2413 619 2413 903 
Q 2413 1119 2222 1231 
Q 2100 1300 1741 1391 
L 1294 1503 
Q 866 1609 663 1741 
Q 300 1969 300 2372 
Q 300 2847 642 3140 
Q 984 3434 1563 3434 
Q 2319 3434 2653 2991 
Q 2863 2709 2856 2384 
L 2325 2384 
Q 2309 2575 2191 2731 
Q 1997 2953 1519 2953 
Q 1200 2953 1036 2831 
Q 872 2709 872 2509 
Q 872 2291 1088 2159 
Q 1213 2081 1456 2022 
L 1828 1931 
Q 2434 1784 2641 1647 
Q 2969 1431 2969 969 
Q 2969 522 2630 197 
Q 2291 -128 1597 -128 
Q 850 -128 539 211 
Q 228 550 206 1050 
L 747 1050 
z
M 1578 3428 
L 1578 3428 
z
" id="Helvetica-73" transform="scale(0.015625)"/>
       <path d="M 413 3331 
L 984 3331 
L 984 0 
L 413 0 
L 413 3331 
z
M 413 4591 
L 984 4591 
L 984 3953 
L 413 3953 
L 413 4591 
z
" id="Helvetica-69" transform="scale(0.015625)"/>
       <path d="M 525 4281 
L 1094 4281 
L 1094 3347 
L 1628 3347 
L 1628 2888 
L 1094 2888 
L 1094 703 
Q 1094 528 1213 469 
Q 1278 434 1431 434 
Q 1472 434 1519 436 
Q 1566 438 1628 444 
L 1628 0 
Q 1531 -28 1426 -40 
Q 1322 -53 1200 -53 
Q 806 -53 665 148 
Q 525 350 525 672 
L 525 2888 
L 72 2888 
L 72 3347 
L 525 3347 
L 525 4281 
z
" id="Helvetica-74" transform="scale(0.015625)"/>
       <path d="M 413 3347 
L 947 3347 
L 947 2872 
Q 1184 3166 1450 3294 
Q 1716 3422 2041 3422 
Q 2753 3422 3003 2925 
Q 3141 2653 3141 2147 
L 3141 0 
L 2569 0 
L 2569 2109 
Q 2569 2416 2478 2603 
Q 2328 2916 1934 2916 
Q 1734 2916 1606 2875 
Q 1375 2806 1200 2600 
Q 1059 2434 1017 2257 
Q 975 2081 975 1753 
L 975 0 
L 413 0 
L 413 3347 
z
M 1734 3428 
L 1734 3428 
z
" id="Helvetica-6e" transform="scale(0.015625)"/>
      </defs>
      <use xlink:href="#Helvetica-50"/>
      <use x="66.699219" xlink:href="#Helvetica-6f"/>
      <use x="122.314453" xlink:href="#Helvetica-73"/>
      <use x="172.314453" xlink:href="#Helvetica-69"/>
      <use x="194.53125" xlink:href="#Helvetica-74"/>
      <use x="222.314453" xlink:href="#Helvetica-69"/>
      <use x="244.53125" xlink:href="#Helvetica-6f"/>
      <use x="300.146484" xlink:href="#Helvetica-6e"/>
     </g>
    </g>
   </g>
   <g id="matplotlib.axis_2">
    <g id="ytick_1">
     <g id="text_4">
      <!-- A -->
      <g style="fill:#262626;" transform="translate(23.799375 43.565937)scale(0.2 -0.2)">
       <defs>
        <path d="M 2844 1881 
L 2147 3909 
L 1406 1881 
L 2844 1881 
z
M 1822 4591 
L 2525 4591 
L 4191 0 
L 3509 0 
L 3044 1375 
L 1228 1375 
L 731 0 
L 94 0 
L 1822 4591 
z
M 2144 4591 
L 2144 4591 
z
" id="Helvetica-41" transform="scale(0.015625)"/>
       </defs>
       <use xlink:href="#Helvetica-41"/>
      </g>
     </g>
    </g>
    <g id="ytick_2">
     <g id="text_5">
      <!-- T -->
      <g style="fill:#262626;" transform="translate(24.924375 73.150937)scale(0.2 -0.2)">
       <defs>
        <path d="M 3828 4591 
L 3828 4044 
L 2281 4044 
L 2281 0 
L 1650 0 
L 1650 4044 
L 103 4044 
L 103 4591 
L 3828 4591 
z
" id="Helvetica-54" transform="scale(0.015625)"/>
       </defs>
       <use xlink:href="#Helvetica-54"/>
      </g>
     </g>
    </g>
    <g id="ytick_3">
     <g id="text_6">
      <!-- C -->
      <g style="fill:#262626;" transform="translate(22.69625 102.735937)scale(0.2 -0.2)">
       <defs>
        <path d="M 2422 4716 
Q 3294 4716 3775 4256 
Q 4256 3797 4309 3213 
L 3703 3213 
Q 3600 3656 3292 3915 
Q 2984 4175 2428 4175 
Q 1750 4175 1333 3698 
Q 916 3222 916 2238 
Q 916 1431 1292 929 
Q 1669 428 2416 428 
Q 3103 428 3463 956 
Q 3653 1234 3747 1688 
L 4353 1688 
Q 4272 963 3816 472 
Q 3269 -119 2341 -119 
Q 1541 -119 997 366 
Q 281 1006 281 2344 
Q 281 3359 819 4009 
Q 1400 4716 2422 4716 
z
M 2297 4716 
L 2297 4716 
z
" id="Helvetica-43" transform="scale(0.015625)"/>
       </defs>
       <use xlink:href="#Helvetica-43"/>
      </g>
     </g>
    </g>
    <g id="ytick_4">
     <g id="text_7">
      <!-- G -->
      <g style="fill:#262626;" transform="translate(21.58375 132.320937)scale(0.2 -0.2)">
       <defs>
        <path d="M 2472 4709 
Q 3119 4709 3591 4459 
Q 4275 4100 4428 3200 
L 3813 3200 
Q 3700 3703 3347 3933 
Q 2994 4163 2456 4163 
Q 1819 4163 1383 3684 
Q 947 3206 947 2259 
Q 947 1441 1306 927 
Q 1666 413 2478 413 
Q 3100 413 3508 773 
Q 3916 1134 3925 1941 
L 2488 1941 
L 2488 2456 
L 4503 2456 
L 4503 0 
L 4103 0 
L 3953 591 
Q 3638 244 3394 109 
Q 2984 -122 2353 -122 
Q 1538 -122 950 406 
Q 309 1069 309 2225 
Q 309 3378 934 4059 
Q 1528 4709 2472 4709 
z
M 2369 4716 
L 2369 4716 
z
" id="Helvetica-47" transform="scale(0.015625)"/>
       </defs>
       <use xlink:href="#Helvetica-47"/>
      </g>
     </g>
    </g>
   </g>
   <g id="QuadMesh_1">
    <path clip-path="url(#p5a7e653852)" d="M 50.64 21.6 
L 59.059803 21.6 
L 59.059803 51.185 
L 50.64 51.185 
L 50.64 21.6 
" style="fill:#e8e4f0;"/>
    <path clip-path="url(#p5a7e653852)" d="M 59.059803 21.6 
L 67.479606 21.6 
L 67.479606 51.185 
L 59.059803 51.185 
L 59.059803 21.6 
" style="fill:#f8f1f8;"/>
    <path clip-path="url(#p5a7e653852)" d="M 67.479606 21.6 
L 75.899409 21.6 
L 75.899409 51.185 
L 67.479606 51.185 
L 67.479606 21.6 
" style="fill:#c4cbe3;"/>
    <path clip-path="url(#p5a7e653852)" d="M 75.899409 21.6 
L 84.319212 21.6 
L 84.319212 51.185 
L 75.899409 51.185 
L 75.899409 21.6 
" style="fill:#c4cbe3;"/>
    <path clip-path="url(#p5a7e653852)" d="M 84.319212 21.6 
L 92.739015 21.6 
L 92.739015 51.185 
L 84.319212 51.185 
L 84.319212 21.6 
" style="fill:#b4c4df;"/>
    <path clip-path="url(#p5a7e653852)" d="M 92.739015 21.6 
L 101.158819 21.6 
L 101.158819 51.185 
L 92.739015 51.185 
L 92.739015 21.6 
" style="fill:#b4c4df;"/>
    <path clip-path="url(#p5a7e653852)" d="M 101.158819 21.6 
L 109.578622 21.6 
L 109.578622 51.185 
L 101.158819 51.185 
L 101.158819 21.6 
" style="fill:#d3d4e7;"/>
    <path clip-path="url(#p5a7e653852)" d="M 109.578622 21.6 
L 117.998425 21.6 
L 117.998425 51.185 
L 109.578622 51.185 
L 109.578622 21.6 
" style="fill:#dedcec;"/>
    <path clip-path="url(#p5a7e653852)" d="M 117.998425 21.6 
L 126.418228 21.6 
L 126.418228 51.185 
L 117.998425 51.185 
L 117.998425 21.6 
" style="fill:#a4bcda;"/>
    <path clip-path="url(#p5a7e653852)" d="M 126.418228 21.6 
L 134.838031 21.6 
L 134.838031 51.185 
L 126.418228 51.185 
L 126.418228 21.6 
" style="fill:#91b5d6;"/>
    <path clip-path="url(#p5a7e653852)" d="M 134.838031 21.6 
L 143.257834 21.6 
L 143.257834 51.185 
L 134.838031 51.185 
L 134.838031 21.6 
" style="fill:#7eadd1;"/>
    <path clip-path="url(#p5a7e653852)" d="M 143.257834 21.6 
L 151.677637 21.6 
L 151.677637 51.185 
L 143.257834 51.185 
L 143.257834 21.6 
" style="fill:#7eadd1;"/>
    <path clip-path="url(#p5a7e653852)" d="M 151.677637 21.6 
L 160.09744 21.6 
L 160.09744 51.185 
L 151.677637 51.185 
L 151.677637 21.6 
" style="fill:#c4cbe3;"/>
    <path clip-path="url(#p5a7e653852)" d="M 160.09744 21.6 
L 168.517243 21.6 
L 168.517243 51.185 
L 160.09744 51.185 
L 160.09744 21.6 
" style="fill:#7eadd1;"/>
    <path clip-path="url(#p5a7e653852)" d="M 168.517243 21.6 
L 176.937046 21.6 
L 176.937046 51.185 
L 168.517243 51.185 
L 168.517243 21.6 
" style="fill:#91b5d6;"/>
    <path clip-path="url(#p5a7e653852)" d="M 176.937046 21.6 
L 185.356849 21.6 
L 185.356849 51.185 
L 176.937046 51.185 
L 176.937046 21.6 
" style="fill:#f8f1f8;"/>
    <path clip-path="url(#p5a7e653852)" d="M 185.356849 21.6 
L 193.776652 21.6 
L 193.776652 51.185 
L 185.356849 51.185 
L 185.356849 21.6 
" style="fill:#b4c4df;"/>
    <path clip-path="url(#p5a7e653852)" d="M 50.64 51.185 
L 59.059803 51.185 
L 59.059803 80.77 
L 50.64 80.77 
L 50.64 51.185 
" style="fill:#dedcec;"/>
    <path clip-path="url(#p5a7e653852)" d="M 59.059803 51.185 
L 67.479606 51.185 
L 67.479606 80.77 
L 59.059803 80.77 
L 59.059803 51.185 
" style="fill:#056dac;"/>
    <path clip-path="url(#p5a7e653852)" d="M 67.479606 51.185 
L 75.899409 51.185 
L 75.899409 80.77 
L 67.479606 80.77 
L 67.479606 51.185 
" style="fill:#a4bcda;"/>
    <path clip-path="url(#p5a7e653852)" d="M 75.899409 51.185 
L 84.319212 51.185 
L 84.319212 80.77 
L 75.899409 80.77 
L 75.899409 51.185 
" style="fill:#f8f1f8;"/>
    <path clip-path="url(#p5a7e653852)" d="M 84.319212 51.185 
L 92.739015 51.185 
L 92.739015 80.77 
L 84.319212 80.77 
L 84.319212 51.185 
" style="fill:#3991c1;"/>
    <path clip-path="url(#p5a7e653852)" d="M 92.739015 51.185 
L 101.158819 51.185 
L 101.158819 80.77 
L 92.739015 80.77 
L 92.739015 51.185 
" style="fill:#d3d4e7;"/>
    <path clip-path="url(#p5a7e653852)" d="M 101.158819 51.185 
L 109.578622 51.185 
L 109.578622 80.77 
L 101.158819 80.77 
L 101.158819 51.185 
" style="fill:#f1ebf4;"/>
    <path clip-path="url(#p5a7e653852)" d="M 109.578622 51.185 
L 117.998425 51.185 
L 117.998425 80.77 
L 109.578622 80.77 
L 109.578622 51.185 
" style="fill:#b4c4df;"/>
    <path clip-path="url(#p5a7e653852)" d="M 117.998425 51.185 
L 126.418228 51.185 
L 126.418228 80.77 
L 117.998425 80.77 
L 117.998425 51.185 
" style="fill:#03456c;"/>
    <path clip-path="url(#p5a7e653852)" d="M 126.418228 51.185 
L 134.838031 51.185 
L 134.838031 80.77 
L 126.418228 80.77 
L 126.418228 51.185 
" style="fill:#1379b5;"/>
    <path clip-path="url(#p5a7e653852)" d="M 134.838031 51.185 
L 143.257834 51.185 
L 143.257834 80.77 
L 134.838031 80.77 
L 134.838031 51.185 
" style="fill:#e8e4f0;"/>
    <path clip-path="url(#p5a7e653852)" d="M 143.257834 51.185 
L 151.677637 51.185 
L 151.677637 80.77 
L 143.257834 80.77 
L 143.257834 51.185 
" style="fill:#045280;"/>
    <path clip-path="url(#p5a7e653852)" d="M 151.677637 51.185 
L 160.09744 51.185 
L 160.09744 80.77 
L 151.677637 80.77 
L 151.677637 51.185 
" style="fill:#91b5d6;"/>
    <path clip-path="url(#p5a7e653852)" d="M 160.09744 51.185 
L 168.517243 51.185 
L 168.517243 80.77 
L 160.09744 80.77 
L 160.09744 51.185 
" style="fill:#dedcec;"/>
    <path clip-path="url(#p5a7e653852)" d="M 168.517243 51.185 
L 176.937046 51.185 
L 176.937046 80.77 
L 168.517243 80.77 
L 168.517243 51.185 
" style="fill:#a4bcda;"/>
    <path clip-path="url(#p5a7e653852)" d="M 176.937046 51.185 
L 185.356849 51.185 
L 185.356849 80.77 
L 176.937046 80.77 
L 176.937046 51.185 
" style="fill:#7eadd1;"/>
    <path clip-path="url(#p5a7e653852)" d="M 185.356849 51.185 
L 193.776652 51.185 
L 193.776652 80.77 
L 185.356849 80.77 
L 185.356849 51.185 
" style="fill:#d3d4e7;"/>
    <path clip-path="url(#p5a7e653852)" d="M 50.64 80.77 
L 59.059803 80.77 
L 59.059803 110.355 
L 50.64 110.355 
L 50.64 80.77 
" style="fill:#67a4cc;"/>
    <path clip-path="url(#p5a7e653852)" d="M 59.059803 80.77 
L 67.479606 80.77 
L 67.479606 110.355 
L 59.059803 110.355 
L 59.059803 80.77 
" style="fill:#d3d4e7;"/>
    <path clip-path="url(#p5a7e653852)" d="M 67.479606 80.77 
L 75.899409 80.77 
L 75.899409 110.355 
L 67.479606 110.355 
L 67.479606 80.77 
" style="fill:#e8e4f0;"/>
    <path clip-path="url(#p5a7e653852)" d="M 75.899409 80.77 
L 84.319212 80.77 
L 84.319212 110.355 
L 75.899409 110.355 
L 75.899409 80.77 
" style="fill:#2685bb;"/>
    <path clip-path="url(#p5a7e653852)" d="M 84.319212 80.77 
L 92.739015 80.77 
L 92.739015 110.355 
L 84.319212 110.355 
L 84.319212 80.77 
" style="fill:#c4cbe3;"/>
    <path clip-path="url(#p5a7e653852)" d="M 92.739015 80.77 
L 101.158819 80.77 
L 101.158819 110.355 
L 92.739015 110.355 
L 92.739015 80.77 
" style="fill:#f8f1f8;"/>
    <path clip-path="url(#p5a7e653852)" d="M 101.158819 80.77 
L 109.578622 80.77 
L 109.578622 110.355 
L 101.158819 110.355 
L 101.158819 80.77 
" style="fill:#7eadd1;"/>
    <path clip-path="url(#p5a7e653852)" d="M 109.578622 80.77 
L 117.998425 80.77 
L 117.998425 110.355 
L 109.578622 110.355 
L 109.578622 80.77 
" style="fill:#3991c1;"/>
    <path clip-path="url(#p5a7e653852)" d="M 117.998425 80.77 
L 126.418228 80.77 
L 126.418228 110.355 
L 117.998425 110.355 
L 117.998425 80.77 
" style="fill:#1379b5;"/>
    <path clip-path="url(#p5a7e653852)" d="M 126.418228 80.77 
L 134.838031 80.77 
L 134.838031 110.355 
L 126.418228 110.355 
L 126.418228 80.77 
" style="fill:#045d92;"/>
    <path clip-path="url(#p5a7e653852)" d="M 134.838031 80.77 
L 143.257834 80.77 
L 143.257834 110.355 
L 134.838031 110.355 
L 134.838031 80.77 
" style="fill:#2685bb;"/>
    <path clip-path="url(#p5a7e653852)" d="M 143.257834 80.77 
L 151.677637 80.77 
L 151.677637 110.355 
L 143.257834 110.355 
L 143.257834 80.77 
" style="fill:#c4cbe3;"/>
    <path clip-path="url(#p5a7e653852)" d="M 151.677637 80.77 
L 160.09744 80.77 
L 160.09744 110.355 
L 151.677637 110.355 
L 151.677637 80.77 
" style="fill:#c4cbe3;"/>
    <path clip-path="url(#p5a7e653852)" d="M 160.09744 80.77 
L 168.517243 80.77 
L 168.517243 110.355 
L 160.09744 110.355 
L 160.09744 80.77 
" style="fill:#c4cbe3;"/>
    <path clip-path="url(#p5a7e653852)" d="M 168.517243 80.77 
L 176.937046 80.77 
L 176.937046 110.355 
L 168.517243 110.355 
L 168.517243 80.77 
" style="fill:#67a4cc;"/>
    <path clip-path="url(#p5a7e653852)" d="M 176.937046 80.77 
L 185.356849 80.77 
L 185.356849 110.355 
L 176.937046 110.355 
L 176.937046 80.77 
" style="fill:#dedcec;"/>
    <path clip-path="url(#p5a7e653852)" d="M 185.356849 80.77 
L 193.776652 80.77 
L 193.776652 110.355 
L 185.356849 110.355 
L 185.356849 80.77 
" style="fill:#dedcec;"/>
    <path clip-path="url(#p5a7e653852)" d="M 50.64 110.355 
L 59.059803 110.355 
L 59.059803 139.94 
L 50.64 139.94 
L 50.64 110.355 
" style="fill:#e8e4f0;"/>
    <path clip-path="url(#p5a7e653852)" d="M 59.059803 110.355 
L 67.479606 110.355 
L 67.479606 139.94 
L 59.059803 139.94 
L 59.059803 110.355 
" style="fill:#f8f1f8;"/>
    <path clip-path="url(#p5a7e653852)" d="M 67.479606 110.355 
L 75.899409 110.355 
L 75.899409 139.94 
L 67.479606 139.94 
L 67.479606 110.355 
" style="fill:#e8e4f0;"/>
    <path clip-path="url(#p5a7e653852)" d="M 75.899409 110.355 
L 84.319212 110.355 
L 84.319212 139.94 
L 75.899409 139.94 
L 75.899409 110.355 
" style="fill:#f1ebf4;"/>
    <path clip-path="url(#p5a7e653852)" d="M 84.319212 110.355 
L 92.739015 110.355 
L 92.739015 139.94 
L 84.319212 139.94 
L 84.319212 110.355 
" style="fill:#e8e4f0;"/>
    <path clip-path="url(#p5a7e653852)" d="M 92.739015 110.355 
L 101.158819 110.355 
L 101.158819 139.94 
L 92.739015 139.94 
L 92.739015 110.355 
" style="fill:#d3d4e7;"/>
    <path clip-path="url(#p5a7e653852)" d="M 101.158819 110.355 
L 109.578622 110.355 
L 109.578622 139.94 
L 101.158819 139.94 
L 101.158819 110.355 
" style="fill:#f1ebf4;"/>
    <path clip-path="url(#p5a7e653852)" d="M 109.578622 110.355 
L 117.998425 110.355 
L 117.998425 139.94 
L 109.578622 139.94 
L 109.578622 110.355 
" style="fill:#d3d4e7;"/>
    <path clip-path="url(#p5a7e653852)" d="M 117.998425 110.355 
L 126.418228 110.355 
L 126.418228 139.94 
L 117.998425 139.94 
L 117.998425 110.355 
" style="fill:#b4c4df;"/>
    <path clip-path="url(#p5a7e653852)" d="M 126.418228 110.355 
L 134.838031 110.355 
L 134.838031 139.94 
L 126.418228 139.94 
L 126.418228 110.355 
" style="fill:#f1ebf4;"/>
    <path clip-path="url(#p5a7e653852)" d="M 134.838031 110.355 
L 143.257834 110.355 
L 143.257834 139.94 
L 134.838031 139.94 
L 134.838031 110.355 
" style="fill:#67a4cc;"/>
    <path clip-path="url(#p5a7e653852)" d="M 143.257834 110.355 
L 151.677637 110.355 
L 151.677637 139.94 
L 143.257834 139.94 
L 143.257834 110.355 
" style="fill:#e8e4f0;"/>
    <path clip-path="url(#p5a7e653852)" d="M 151.677637 110.355 
L 160.09744 110.355 
L 160.09744 139.94 
L 151.677637 139.94 
L 151.677637 110.355 
" style="fill:#d3d4e7;"/>
    <path clip-path="url(#p5a7e653852)" d="M 160.09744 110.355 
L 168.517243 110.355 
L 168.517243 139.94 
L 160.09744 139.94 
L 160.09744 110.355 
" style="fill:#509ac6;"/>
    <path clip-path="url(#p5a7e653852)" d="M 168.517243 110.355 
L 176.937046 110.355 
L 176.937046 139.94 
L 168.517243 139.94 
L 168.517243 110.355 
" style="fill:#1379b5;"/>
    <path clip-path="url(#p5a7e653852)" d="M 176.937046 110.355 
L 185.356849 110.355 
L 185.356849 139.94 
L 176.937046 139.94 
L 176.937046 110.355 
" style="fill:#91b5d6;"/>
    <path clip-path="url(#p5a7e653852)" d="M 185.356849 110.355 
L 193.776652 110.355 
L 193.776652 139.94 
L 185.356849 139.94 
L 185.356849 110.355 
" style="fill:#c4cbe3;"/>
   </g>
  </g>
  <g id="axes_2">
   <g id="patch_3">
    <path d="M 199.251825 139.94 
L 205.168825 139.94 
L 205.168825 21.6 
L 199.251825 21.6 
z
" style="fill:#ffffff;"/>
   </g>
   <g id="patch_4">
    <path clip-path="url(#p7b1c0b5a10)" d="M 199.251825 139.94 
L 199.251825 134.023 
L 199.251825 27.517 
L 199.251825 21.6 
L 205.168825 21.6 
L 205.168825 27.517 
L 205.168825 134.023 
L 205.168825 139.94 
L 205.168825 139.94 
z
" style="fill:#ffffff;stroke:#ffffff;stroke-linejoin:miter;stroke-width:0.01;"/>
   </g>
   <g id="matplotlib.axis_3"/>
   <g id="matplotlib.axis_4">
    <g id="ytick_5">
     <g id="line2d_1">
      <defs>
       <path d="M 0 0 
L 10 0 
" id="m46296b8df1" style="stroke:#262626;stroke-width:0.8;"/>
      </defs>
      <g>
       <use style="fill:#262626;stroke:#262626;stroke-width:0.8;" x="205.168825" xlink:href="#m46296b8df1" y="118.510487"/>
      </g>
     </g>
     <g id="text_8">
      <!-- 0.025 -->
      <g style="fill:#262626;" transform="translate(218.668825 123.890565)scale(0.15 -0.15)">
       <defs>
        <path d="M 547 681 
L 1200 681 
L 1200 0 
L 547 0 
L 547 681 
z
" id="Helvetica-2e" transform="scale(0.015625)"/>
        <path d="M 200 0 
Q 231 578 439 1006 
Q 647 1434 1250 1784 
L 1850 2131 
Q 2253 2366 2416 2531 
Q 2672 2791 2672 3125 
Q 2672 3516 2437 3745 
Q 2203 3975 1813 3975 
Q 1234 3975 1013 3538 
Q 894 3303 881 2888 
L 309 2888 
Q 319 3472 525 3841 
Q 891 4491 1816 4491 
Q 2584 4491 2939 4075 
Q 3294 3659 3294 3150 
Q 3294 2613 2916 2231 
Q 2697 2009 2131 1694 
L 1703 1456 
Q 1397 1288 1222 1134 
Q 909 863 828 531 
L 3272 531 
L 3272 0 
L 200 0 
z
" id="Helvetica-32" transform="scale(0.015625)"/>
        <path d="M 791 1141 
Q 847 659 1238 475 
Q 1438 381 1700 381 
Q 2200 381 2440 700 
Q 2681 1019 2681 1406 
Q 2681 1875 2395 2131 
Q 2109 2388 1709 2388 
Q 1419 2388 1211 2275 
Q 1003 2163 856 1963 
L 369 1991 
L 709 4400 
L 3034 4400 
L 3034 3856 
L 1131 3856 
L 941 2613 
Q 1097 2731 1238 2791 
Q 1488 2894 1816 2894 
Q 2431 2894 2859 2497 
Q 3288 2100 3288 1491 
Q 3288 856 2895 371 
Q 2503 -113 1644 -113 
Q 1097 -113 676 195 
Q 256 503 206 1141 
L 791 1141 
z
" id="Helvetica-35" transform="scale(0.015625)"/>
       </defs>
       <use xlink:href="#Helvetica-30"/>
       <use x="55.615234" xlink:href="#Helvetica-2e"/>
       <use x="83.398438" xlink:href="#Helvetica-30"/>
       <use x="139.013672" xlink:href="#Helvetica-32"/>
       <use x="194.628906" xlink:href="#Helvetica-35"/>
      </g>
     </g>
    </g>
    <g id="ytick_6">
     <g id="line2d_2">
      <g>
       <use style="fill:#262626;stroke:#262626;stroke-width:0.8;" x="205.168825" xlink:href="#m46296b8df1" y="82.867179"/>
      </g>
     </g>
     <g id="text_9">
      <!-- 0.050 -->
      <g style="fill:#262626;" transform="translate(218.668825 88.247257)scale(0.15 -0.15)">
       <use xlink:href="#Helvetica-30"/>
       <use x="55.615234" xlink:href="#Helvetica-2e"/>
       <use x="83.398438" xlink:href="#Helvetica-30"/>
       <use x="139.013672" xlink:href="#Helvetica-35"/>
       <use x="194.628906" xlink:href="#Helvetica-30"/>
      </g>
     </g>
    </g>
    <g id="ytick_7">
     <g id="line2d_3">
      <g>
       <use style="fill:#262626;stroke:#262626;stroke-width:0.8;" x="205.168825" xlink:href="#m46296b8df1" y="47.22387"/>
      </g>
     </g>
     <g id="text_10">
      <!-- 0.075 -->
      <g style="fill:#262626;" transform="translate(218.668825 52.603948)scale(0.15 -0.15)">
       <defs>
        <path d="M 3347 4400 
L 3347 3909 
Q 3131 3700 2773 3181 
Q 2416 2663 2141 2063 
Q 1869 1478 1728 997 
Q 1638 688 1494 0 
L 872 0 
Q 1084 1281 1809 2550 
Q 2238 3294 2709 3834 
L 234 3834 
L 234 4400 
L 3347 4400 
z
" id="Helvetica-37" transform="scale(0.015625)"/>
       </defs>
       <use xlink:href="#Helvetica-30"/>
       <use x="55.615234" xlink:href="#Helvetica-2e"/>
       <use x="83.398438" xlink:href="#Helvetica-30"/>
       <use x="139.013672" xlink:href="#Helvetica-37"/>
       <use x="194.628906" xlink:href="#Helvetica-35"/>
      </g>
     </g>
    </g>
    <g id="text_11">
     <!-- Normalized Saliency -->
     <g style="fill:#262626;" transform="translate(271.464137 -10.37375)rotate(-270)scale(0.2 -0.2)">
      <defs>
       <path d="M 488 4591 
L 1222 4591 
L 3541 872 
L 3541 4591 
L 4131 4591 
L 4131 0 
L 3434 0 
L 1081 3716 
L 1081 0 
L 488 0 
L 488 4591 
z
M 2269 4591 
L 2269 4591 
z
" id="Helvetica-4e" transform="scale(0.015625)"/>
       <path d="M 428 3347 
L 963 3347 
L 963 2769 
Q 1028 2938 1284 3180 
Q 1541 3422 1875 3422 
Q 1891 3422 1928 3419 
Q 1966 3416 2056 3406 
L 2056 2813 
Q 2006 2822 1964 2825 
Q 1922 2828 1872 2828 
Q 1447 2828 1219 2554 
Q 991 2281 991 1925 
L 991 0 
L 428 0 
L 428 3347 
z
" id="Helvetica-72" transform="scale(0.015625)"/>
       <path d="M 413 3347 
L 969 3347 
L 969 2872 
Q 1169 3119 1331 3231 
Q 1609 3422 1963 3422 
Q 2363 3422 2606 3225 
Q 2744 3113 2856 2894 
Q 3044 3163 3297 3292 
Q 3550 3422 3866 3422 
Q 4541 3422 4784 2934 
Q 4916 2672 4916 2228 
L 4916 0 
L 4331 0 
L 4331 2325 
Q 4331 2659 4164 2784 
Q 3997 2909 3756 2909 
Q 3425 2909 3186 2687 
Q 2947 2466 2947 1947 
L 2947 0 
L 2375 0 
L 2375 2184 
Q 2375 2525 2294 2681 
Q 2166 2916 1816 2916 
Q 1497 2916 1236 2669 
Q 975 2422 975 1775 
L 975 0 
L 413 0 
L 413 3347 
z
" id="Helvetica-6d" transform="scale(0.015625)"/>
       <path d="M 844 891 
Q 844 647 1022 506 
Q 1200 366 1444 366 
Q 1741 366 2019 503 
Q 2488 731 2488 1250 
L 2488 1703 
Q 2384 1638 2221 1594 
Q 2059 1550 1903 1531 
L 1563 1488 
Q 1256 1447 1103 1359 
Q 844 1213 844 891 
z
M 2206 2028 
Q 2400 2053 2466 2191 
Q 2503 2266 2503 2406 
Q 2503 2694 2298 2823 
Q 2094 2953 1713 2953 
Q 1272 2953 1088 2716 
Q 984 2584 953 2325 
L 428 2325 
Q 444 2944 830 3186 
Q 1216 3428 1725 3428 
Q 2316 3428 2684 3203 
Q 3050 2978 3050 2503 
L 3050 575 
Q 3050 488 3086 434 
Q 3122 381 3238 381 
Q 3275 381 3322 386 
Q 3369 391 3422 400 
L 3422 -16 
Q 3291 -53 3222 -62 
Q 3153 -72 3034 -72 
Q 2744 -72 2613 134 
Q 2544 244 2516 444 
Q 2344 219 2022 53 
Q 1700 -113 1313 -113 
Q 847 -113 551 170 
Q 256 453 256 878 
Q 256 1344 547 1600 
Q 838 1856 1309 1916 
L 2206 2028 
z
M 1741 3428 
L 1741 3428 
z
" id="Helvetica-61" transform="scale(0.015625)"/>
       <path d="M 428 4591 
L 991 4591 
L 991 0 
L 428 0 
L 428 4591 
z
" id="Helvetica-6c" transform="scale(0.015625)"/>
       <path d="M 163 444 
L 2147 2844 
L 309 2844 
L 309 3347 
L 2903 3347 
L 2903 2888 
L 931 503 
L 2963 503 
L 2963 0 
L 163 0 
L 163 444 
z
M 1609 3428 
L 1609 3428 
z
" id="Helvetica-7a" transform="scale(0.015625)"/>
       <path d="M 1806 3422 
Q 2163 3422 2497 3255 
Q 2831 3088 3006 2822 
Q 3175 2569 3231 2231 
Q 3281 2000 3281 1494 
L 828 1494 
Q 844 984 1069 676 
Q 1294 369 1766 369 
Q 2206 369 2469 659 
Q 2619 828 2681 1050 
L 3234 1050 
Q 3213 866 3089 639 
Q 2966 413 2813 269 
Q 2556 19 2178 -69 
Q 1975 -119 1719 -119 
Q 1094 -119 659 336 
Q 225 791 225 1609 
Q 225 2416 662 2919 
Q 1100 3422 1806 3422 
z
M 2703 1941 
Q 2669 2306 2544 2525 
Q 2313 2931 1772 2931 
Q 1384 2931 1121 2651 
Q 859 2372 844 1941 
L 2703 1941 
z
M 1753 3428 
L 1753 3428 
z
" id="Helvetica-65" transform="scale(0.015625)"/>
       <path d="M 769 1634 
Q 769 1097 997 734 
Q 1225 372 1728 372 
Q 2119 372 2370 708 
Q 2622 1044 2622 1672 
Q 2622 2306 2362 2611 
Q 2103 2916 1722 2916 
Q 1297 2916 1033 2591 
Q 769 2266 769 1634 
z
M 1616 3406 
Q 2000 3406 2259 3244 
Q 2409 3150 2600 2916 
L 2600 4606 
L 3141 4606 
L 3141 0 
L 2634 0 
L 2634 466 
Q 2438 156 2169 18 
Q 1900 -119 1553 -119 
Q 994 -119 584 351 
Q 175 822 175 1603 
Q 175 2334 548 2870 
Q 922 3406 1616 3406 
z
" id="Helvetica-64" transform="scale(0.015625)"/>
       <path id="Helvetica-20" transform="scale(0.015625)"/>
       <path d="M 894 1481 
Q 916 1091 1078 847 
Q 1388 391 2169 391 
Q 2519 391 2806 491 
Q 3363 684 3363 1184 
Q 3363 1559 3128 1719 
Q 2891 1875 2384 1991 
L 1763 2131 
Q 1153 2269 900 2434 
Q 463 2722 463 3294 
Q 463 3913 891 4309 
Q 1319 4706 2103 4706 
Q 2825 4706 3329 4357 
Q 3834 4009 3834 3244 
L 3250 3244 
Q 3203 3613 3050 3809 
Q 2766 4169 2084 4169 
Q 1534 4169 1293 3937 
Q 1053 3706 1053 3400 
Q 1053 3063 1334 2906 
Q 1519 2806 2169 2656 
L 2813 2509 
Q 3278 2403 3531 2219 
Q 3969 1897 3969 1284 
Q 3969 522 3414 194 
Q 2859 -134 2125 -134 
Q 1269 -134 784 303 
Q 300 738 309 1481 
L 894 1481 
z
M 2150 4716 
L 2150 4716 
z
" id="Helvetica-53" transform="scale(0.015625)"/>
       <path d="M 1703 3444 
Q 2269 3444 2623 3169 
Q 2978 2894 3050 2222 
L 2503 2222 
Q 2453 2531 2275 2736 
Q 2097 2941 1703 2941 
Q 1166 2941 934 2416 
Q 784 2075 784 1575 
Q 784 1072 996 728 
Q 1209 384 1666 384 
Q 2016 384 2220 598 
Q 2425 813 2503 1184 
L 3050 1184 
Q 2956 519 2581 211 
Q 2206 -97 1622 -97 
Q 966 -97 575 383 
Q 184 863 184 1581 
Q 184 2463 612 2953 
Q 1041 3444 1703 3444 
z
M 1616 3428 
L 1616 3428 
z
" id="Helvetica-63" transform="scale(0.015625)"/>
       <path d="M 2503 3347 
L 3125 3347 
Q 3006 3025 2597 1878 
Q 2291 1016 2084 472 
Q 1597 -809 1397 -1090 
Q 1197 -1372 709 -1372 
Q 591 -1372 527 -1362 
Q 463 -1353 369 -1328 
L 369 -816 
Q 516 -856 581 -865 
Q 647 -875 697 -875 
Q 853 -875 926 -823 
Q 1000 -772 1050 -697 
Q 1066 -672 1162 -440 
Q 1259 -209 1303 -97 
L 66 3347 
L 703 3347 
L 1600 622 
L 2503 3347 
z
M 1597 3428 
L 1597 3428 
z
" id="Helvetica-79" transform="scale(0.015625)"/>
      </defs>
      <use xlink:href="#Helvetica-4e"/>
      <use x="72.216797" xlink:href="#Helvetica-6f"/>
      <use x="127.832031" xlink:href="#Helvetica-72"/>
      <use x="161.132812" xlink:href="#Helvetica-6d"/>
      <use x="244.433594" xlink:href="#Helvetica-61"/>
      <use x="300.048828" xlink:href="#Helvetica-6c"/>
      <use x="322.265625" xlink:href="#Helvetica-69"/>
      <use x="344.482422" xlink:href="#Helvetica-7a"/>
      <use x="394.482422" xlink:href="#Helvetica-65"/>
      <use x="450.097656" xlink:href="#Helvetica-64"/>
      <use x="505.712891" xlink:href="#Helvetica-20"/>
      <use x="533.496094" xlink:href="#Helvetica-53"/>
      <use x="600.195312" xlink:href="#Helvetica-61"/>
      <use x="655.810547" xlink:href="#Helvetica-6c"/>
      <use x="678.027344" xlink:href="#Helvetica-69"/>
      <use x="700.244141" xlink:href="#Helvetica-65"/>
      <use x="755.859375" xlink:href="#Helvetica-6e"/>
      <use x="811.474609" xlink:href="#Helvetica-63"/>
      <use x="861.474609" xlink:href="#Helvetica-79"/>
     </g>
    </g>
   </g>
   <g id="QuadMesh_2">
    <path clip-path="url(#p7b1c0b5a10)" d="M 199.251825 139.94 
L 205.168825 139.94 
L 205.168825 134.023 
L 199.251825 134.023 
L 199.251825 139.94 
" style="fill:#f8f1f8;"/>
    <path clip-path="url(#p7b1c0b5a10)" d="M 199.251825 134.023 
L 205.168825 134.023 
L 205.168825 128.106 
L 199.251825 128.106 
L 199.251825 134.023 
" style="fill:#f1ebf4;"/>
    <path clip-path="url(#p7b1c0b5a10)" d="M 199.251825 128.106 
L 205.168825 128.106 
L 205.168825 122.189 
L 199.251825 122.189 
L 199.251825 128.106 
" style="fill:#e8e4f0;"/>
    <path clip-path="url(#p7b1c0b5a10)" d="M 199.251825 122.189 
L 205.168825 122.189 
L 205.168825 116.272 
L 199.251825 116.272 
L 199.251825 122.189 
" style="fill:#dedcec;"/>
    <path clip-path="url(#p7b1c0b5a10)" d="M 199.251825 116.272 
L 205.168825 116.272 
L 205.168825 110.355 
L 199.251825 110.355 
L 199.251825 116.272 
" style="fill:#d3d4e7;"/>
    <path clip-path="url(#p7b1c0b5a10)" d="M 199.251825 110.355 
L 205.168825 110.355 
L 205.168825 104.438 
L 199.251825 104.438 
L 199.251825 110.355 
" style="fill:#c4cbe3;"/>
    <path clip-path="url(#p7b1c0b5a10)" d="M 199.251825 104.438 
L 205.168825 104.438 
L 205.168825 98.521 
L 199.251825 98.521 
L 199.251825 104.438 
" style="fill:#b4c4df;"/>
    <path clip-path="url(#p7b1c0b5a10)" d="M 199.251825 98.521 
L 205.168825 98.521 
L 205.168825 92.604 
L 199.251825 92.604 
L 199.251825 98.521 
" style="fill:#a4bcda;"/>
    <path clip-path="url(#p7b1c0b5a10)" d="M 199.251825 92.604 
L 205.168825 92.604 
L 205.168825 86.687 
L 199.251825 86.687 
L 199.251825 92.604 
" style="fill:#91b5d6;"/>
    <path clip-path="url(#p7b1c0b5a10)" d="M 199.251825 86.687 
L 205.168825 86.687 
L 205.168825 80.77 
L 199.251825 80.77 
L 199.251825 86.687 
" style="fill:#7eadd1;"/>
    <path clip-path="url(#p7b1c0b5a10)" d="M 199.251825 80.77 
L 205.168825 80.77 
L 205.168825 74.853 
L 199.251825 74.853 
L 199.251825 80.77 
" style="fill:#67a4cc;"/>
    <path clip-path="url(#p7b1c0b5a10)" d="M 199.251825 74.853 
L 205.168825 74.853 
L 205.168825 68.936 
L 199.251825 68.936 
L 199.251825 74.853 
" style="fill:#509ac6;"/>
    <path clip-path="url(#p7b1c0b5a10)" d="M 199.251825 68.936 
L 205.168825 68.936 
L 205.168825 63.019 
L 199.251825 63.019 
L 199.251825 68.936 
" style="fill:#3991c1;"/>
    <path clip-path="url(#p7b1c0b5a10)" d="M 199.251825 63.019 
L 205.168825 63.019 
L 205.168825 57.102 
L 199.251825 57.102 
L 199.251825 63.019 
" style="fill:#2685bb;"/>
    <path clip-path="url(#p7b1c0b5a10)" d="M 199.251825 57.102 
L 205.168825 57.102 
L 205.168825 51.185 
L 199.251825 51.185 
L 199.251825 57.102 
" style="fill:#1379b5;"/>
    <path clip-path="url(#p7b1c0b5a10)" d="M 199.251825 51.185 
L 205.168825 51.185 
L 205.168825 45.268 
L 199.251825 45.268 
L 199.251825 51.185 
" style="fill:#056dac;"/>
    <path clip-path="url(#p7b1c0b5a10)" d="M 199.251825 45.268 
L 205.168825 45.268 
L 205.168825 39.351 
L 199.251825 39.351 
L 199.251825 45.268 
" style="fill:#05659f;"/>
    <path clip-path="url(#p7b1c0b5a10)" d="M 199.251825 39.351 
L 205.168825 39.351 
L 205.168825 33.434 
L 199.251825 33.434 
L 199.251825 39.351 
" style="fill:#045d92;"/>
    <path clip-path="url(#p7b1c0b5a10)" d="M 199.251825 33.434 
L 205.168825 33.434 
L 205.168825 27.517 
L 199.251825 27.517 
L 199.251825 33.434 
" style="fill:#045280;"/>
    <path clip-path="url(#p7b1c0b5a10)" d="M 199.251825 27.517 
L 205.168825 27.517 
L 205.168825 21.6 
L 199.251825 21.6 
L 199.251825 27.517 
" style="fill:#03456c;"/>
   </g>
   <g id="LineCollection_1"/>
   <g id="patch_5">
    <path d="M 199.251825 139.94 
L 199.251825 134.023 
L 199.251825 27.517 
L 199.251825 21.6 
L 205.168825 21.6 
L 205.168825 27.517 
L 205.168825 134.023 
L 205.168825 139.94 
z
" style="fill:none;"/>
   </g>
  </g>
 </g>
 <defs>
  <clipPath id="p5a7e653852">
   <rect height="118.34" width="143.136652" x="50.64" y="21.6"/>
  </clipPath>
  <clipPath id="p7b1c0b5a10">
   <rect height="118.34" width="5.917" x="199.251825" y="21.6"/>
  </clipPath>
 </defs>
</svg>
