<?xml version="1.0" encoding="utf-8" standalone="no"?>
<!DOCTYPE svg PUBLIC "-//W3C//DTD SVG 1.1//EN"
  "http://www.w3.org/Graphics/SVG/1.1/DTD/svg11.dtd">
<svg height="216pt" version="1.1" viewBox="0 0 306 216" width="306pt" xmlns="http://www.w3.org/2000/svg" xmlns:xlink="http://www.w3.org/1999/xlink">
 <metadata>
  <rdf:RDF xmlns:cc="http://creativecommons.org/ns#" xmlns:dc="http://purl.org/dc/elements/1.1/" xmlns:rdf="http://www.w3.org/1999/02/22-rdf-syntax-ns#">
   <cc:Work>
    <dc:type rdf:resource="http://purl.org/dc/dcmitype/StillImage"/>
    <dc:date>2021-12-20T14:04:22.507708</dc:date>
    <dc:format>image/svg+xml</dc:format>
    <dc:creator>
     <cc:Agent>
      <dc:title>Matplotlib v3.4.2, https://matplotlib.org/</dc:title>
     </cc:Agent>
    </dc:creator>
   </cc:Work>
  </rdf:RDF>
 </metadata>
 <defs>
  <style type="text/css">*{stroke-linecap:butt;stroke-linejoin:round;}</style>
 </defs>
 <g id="figure_1">
  <g id="patch_1">
   <path d="M 0 216 
L 306 216 
L 306 0 
L 0 0 
z
" style="fill:#ffffff;"/>
  </g>
  <g id="axes_1">
   <g id="patch_2">
    <path d="M 106.73 141.64 
L 284.4 141.64 
L 284.4 21.6 
L 106.73 21.6 
z
" style="fill:#ffffff;"/>
   </g>
   <g id="line2d_1">
    <path clip-path="url(#pf4bdf32bd5)" d="M 106.73 80.836939 
L 284.4 80.836939 
" style="fill:none;stroke:#000000;stroke-linecap:round;stroke-width:0.5;"/>
   </g>
   <g id="patch_3">
    <path clip-path="url(#pf4bdf32bd5)" d="M 111.965726 48.116362 
Q 114.098165 48.116362 115.274431 51.229384 
Q 116.450696 54.33564 116.580305 58.287825 
L 115.098358 58.287825 
Q 114.846476 55.289849 114.093275 53.537082 
Q 113.340073 51.777547 111.980399 51.777547 
Q 110.322378 51.777547 109.302622 55.005617 
Q 108.282866 58.226918 108.282866 64.88608 
Q 108.282866 70.347405 109.202358 73.74466 
Q 110.124296 77.135148 111.951053 77.135148 
Q 113.631083 77.135148 114.511448 73.56194 
Q 114.976085 71.680591 115.205958 68.608173 
L 116.687906 68.608173 
Q 116.489823 73.514567 115.374695 76.837381 
Q 114.037029 80.836939 111.767644 80.836939 
Q 109.811277 80.836939 108.480948 77.55473 
Q 106.73 73.223567 106.73 64.168732 
Q 106.73 57.299779 108.045656 52.900942 
Q 109.466468 48.116362 111.965726 48.116362 
z
M 111.660044 48.116362 
L 111.660044 48.116362 
z
" style="fill:#0000ff;"/>
   </g>
   <g id="patch_4">
    <path clip-path="url(#pf4bdf32bd5)" d="M 127.169912 25.257304 
L 127.169912 31.879404 
L 123.034373 31.879404 
L 123.034373 80.836939 
L 121.347544 80.836939 
L 121.347544 31.879404 
L 117.212006 31.879404 
L 117.212006 25.257304 
L 127.169912 25.257304 
z
" style="fill:#ff0000;"/>
   </g>
   <g id="patch_5">
    <path clip-path="url(#pf4bdf32bd5)" d="M 134.377986 78.665149 
L 132.683902 76.323635 
L 130.882875 78.665149 
L 134.377986 78.665149 
z
M 131.893978 75.536202 
L 133.602645 75.536202 
L 137.651917 80.836939 
L 135.994292 80.836939 
L 134.864093 79.249373 
L 130.45024 79.249373 
L 129.242263 80.836939 
L 127.694012 80.836939 
L 131.893978 75.536202 
z
M 132.67661 75.536202 
L 132.67661 75.536202 
z
" style="fill:#008000;"/>
   </g>
   <g id="patch_6">
    <path clip-path="url(#pf4bdf32bd5)" d="M 137.651917 59.306709 
L 137.651917 61.240391 
L 133.516379 61.240391 
L 133.516379 75.536202 
L 131.82955 75.536202 
L 131.82955 61.240391 
L 127.694012 61.240391 
L 127.694012 59.306709 
L 137.651917 59.306709 
z
" style="fill:#ff0000;"/>
   </g>
   <g id="patch_7">
    <path clip-path="url(#pf4bdf32bd5)" d="M 144.859991 80.450139 
L 143.165908 80.033112 
L 141.364881 80.450139 
L 144.859991 80.450139 
z
M 142.375984 79.892869 
L 144.08465 79.892869 
L 148.133923 80.836939 
L 146.476298 80.836939 
L 145.346099 80.554191 
L 140.932245 80.554191 
L 139.724269 80.836939 
L 138.176018 80.836939 
L 142.375984 79.892869 
z
M 143.158616 79.892869 
L 143.158616 79.892869 
z
" style="fill:#008000;"/>
   </g>
   <g id="patch_8">
    <path clip-path="url(#pf4bdf32bd5)" d="M 143.411744 32.454851 
Q 145.544183 32.454851 146.720448 36.968085 
Q 147.896714 41.471508 148.026323 47.201354 
L 146.544376 47.201354 
Q 146.292493 42.854913 145.539292 40.313765 
Q 144.786091 37.762807 143.426416 37.762807 
Q 141.768396 37.762807 140.74864 42.442835 
Q 139.728884 47.113051 139.728884 56.767448 
Q 139.728884 64.685231 140.648376 69.610544 
Q 141.570314 74.526044 143.397071 74.526044 
Q 145.077101 74.526044 145.957466 69.345636 
Q 146.422103 66.618073 146.651976 62.163707 
L 148.133923 62.163707 
Q 147.935841 69.276957 146.820712 74.094344 
Q 145.483047 79.892869 143.213661 79.892869 
Q 141.257295 79.892869 139.926966 75.13435 
Q 138.176018 68.855067 138.176018 55.727442 
Q 138.176018 45.768892 139.491674 39.391496 
Q 140.912485 32.454851 143.411744 32.454851 
z
M 143.106061 32.454851 
L 143.106061 32.454851 
z
" style="fill:#0000ff;"/>
   </g>
   <g id="patch_9">
    <path clip-path="url(#pf4bdf32bd5)" d="M 155.341997 80.511781 
L 153.647914 80.161213 
L 151.846887 80.511781 
L 155.341997 80.511781 
z
M 152.85799 80.04332 
L 154.566656 80.04332 
L 158.615929 80.836939 
L 156.958304 80.836939 
L 155.828105 80.59925 
L 151.414251 80.59925 
L 150.206275 80.836939 
L 148.658024 80.836939 
L 152.85799 80.04332 
z
M 153.640622 80.04332 
L 153.640622 80.04332 
z
" style="fill:#008000;"/>
   </g>
   <g id="patch_10">
    <path clip-path="url(#pf4bdf32bd5)" d="M 158.615929 48.503648 
L 158.615929 52.261479 
L 154.480391 52.261479 
L 154.480391 80.04332 
L 152.793562 80.04332 
L 152.793562 52.261479 
L 148.658024 52.261479 
L 148.658024 48.503648 
L 158.615929 48.503648 
z
" style="fill:#ff0000;"/>
   </g>
   <g id="patch_11">
    <path clip-path="url(#pf4bdf32bd5)" d="M 169.097935 77.891455 
L 169.097935 78.242398 
L 164.962397 78.242398 
L 164.962397 80.836939 
L 163.275568 80.836939 
L 163.275568 78.242398 
L 159.140029 78.242398 
L 159.140029 77.891455 
L 169.097935 77.891455 
z
" style="fill:#ff0000;"/>
   </g>
   <g id="patch_12">
    <path clip-path="url(#pf4bdf32bd5)" d="M 164.275688 73.431871 
Q 165.811874 73.431871 166.932554 73.662651 
Q 168.55659 73.99405 168.919861 74.824856 
L 167.459653 74.824856 
Q 167.191355 74.360528 166.353219 74.148211 
Q 165.515084 73.935894 164.237698 73.935894 
Q 162.725255 73.935894 161.690051 74.378067 
Q 160.654847 74.819318 160.654847 75.693511 
Q 160.654847 76.448621 161.507228 76.923104 
Q 162.361984 77.397587 164.289933 77.397587 
Q 165.766762 77.397587 166.735485 77.065264 
Q 167.704208 76.732019 167.725577 75.987062 
L 164.313677 75.987062 
L 164.313677 75.511656 
L 169.097935 75.511656 
L 169.097935 77.778835 
L 168.148206 77.778835 
L 167.792058 77.233272 
Q 167.044147 77.553594 166.464812 77.678215 
Q 165.49134 77.891455 163.993143 77.891455 
Q 162.058071 77.891455 160.66197 77.404049 
Q 159.140029 76.792021 159.140029 75.724897 
Q 159.140029 74.660541 160.623981 74.031898 
Q 162.034328 73.431871 164.275688 73.431871 
z
M 164.031132 73.425409 
L 164.031132 73.425409 
z
" style="fill:#ffa600;"/>
   </g>
   <g id="patch_13">
    <path clip-path="url(#pf4bdf32bd5)" d="M 165.824003 68.347667 
L 164.12992 62.873099 
L 162.328893 68.347667 
L 165.824003 68.347667 
z
M 163.339996 61.032046 
L 165.048662 61.032046 
L 169.097935 73.425409 
L 167.44031 73.425409 
L 166.31011 69.713609 
L 161.896257 69.713609 
L 160.688281 73.425409 
L 159.140029 73.425409 
L 163.339996 61.032046 
z
M 164.122628 61.032046 
L 164.122628 61.032046 
z
" style="fill:#008000;"/>
   </g>
   <g id="patch_14">
    <path clip-path="url(#pf4bdf32bd5)" d="M 174.857761 51.682297 
Q 176.990201 51.682297 178.166466 54.456058 
Q 179.342732 57.22379 179.472341 60.74526 
L 177.990393 60.74526 
Q 177.738511 58.074008 176.98531 56.51226 
Q 176.232109 54.944482 174.872434 54.944482 
Q 173.214413 54.944482 172.194657 57.820751 
Q 171.174901 60.690991 171.174901 66.624428 
Q 171.174901 71.49057 172.094394 74.517587 
Q 173.016331 77.538575 174.843089 77.538575 
Q 176.523118 77.538575 177.403483 74.354779 
Q 177.86812 72.678463 178.097993 69.940881 
L 179.579941 69.940881 
Q 179.381859 74.31257 178.26673 77.273258 
Q 176.929064 80.836939 174.659679 80.836939 
Q 172.703313 80.836939 171.372983 77.91243 
Q 169.622035 74.053284 169.622035 65.985257 
Q 169.622035 59.864893 170.937692 55.945448 
Q 172.358503 51.682297 174.857761 51.682297 
z
M 174.552079 51.682297 
L 174.552079 51.682297 
z
" style="fill:#0000ff;"/>
   </g>
   <g id="patch_15">
    <path clip-path="url(#pf4bdf32bd5)" d="M 185.339767 46.364286 
Q 187.472207 46.364286 188.648472 49.644 
Q 189.824737 52.916585 189.954347 57.080397 
L 188.472399 57.080397 
Q 188.220517 53.921889 187.467316 52.075267 
Q 186.714115 50.221515 185.35444 50.221515 
Q 183.696419 50.221515 182.676663 53.622437 
Q 181.656907 57.016228 181.656907 64.031966 
Q 181.656907 69.785726 182.576399 73.364893 
Q 183.498337 76.93693 185.325094 76.93693 
Q 187.005124 76.93693 187.885489 73.172388 
Q 188.350126 71.1903 188.579999 67.953364 
L 190.061947 67.953364 
Q 189.863865 73.122479 188.748736 76.623218 
Q 187.41107 80.836939 185.141685 80.836939 
Q 183.185319 80.836939 181.854989 77.378979 
Q 180.104041 72.815897 180.104041 63.276206 
Q 180.104041 56.039444 181.419698 51.405065 
Q 182.840509 46.364286 185.339767 46.364286 
z
M 185.034085 46.364286 
L 185.034085 46.364286 
z
" style="fill:#0000ff;"/>
   </g>
   <g id="patch_16">
    <path clip-path="url(#pf4bdf32bd5)" d="M 195.821773 65.854956 
Q 197.954213 65.854956 199.130478 67.280336 
Q 200.306743 68.702617 200.436353 70.51223 
L 198.954405 70.51223 
Q 198.702523 69.139527 197.949322 68.336976 
Q 197.196121 67.531326 195.836446 67.531326 
Q 194.178425 67.531326 193.158669 69.009383 
Q 192.138913 70.484342 192.138913 73.533416 
Q 192.138913 76.034028 193.058405 77.589551 
Q 193.980343 79.141976 195.8071 79.141976 
Q 197.48713 79.141976 198.367495 77.505888 
Q 198.832132 76.644462 199.062005 75.237674 
L 200.543953 75.237674 
Q 200.345871 77.484197 199.230742 79.005635 
Q 197.893076 80.836939 195.623691 80.836939 
Q 193.667324 80.836939 192.336995 79.334092 
Q 190.586047 77.350955 190.586047 73.204958 
Q 190.586047 70.059827 191.901704 68.045703 
Q 193.322515 65.854956 195.821773 65.854956 
z
M 195.516091 65.854956 
L 195.516091 65.854956 
z
" style="fill:#0000ff;"/>
   </g>
   <g id="patch_17">
    <path clip-path="url(#pf4bdf32bd5)" d="M 200.543953 23.789015 
L 200.543953 28.80101 
L 196.408415 28.80101 
L 196.408415 65.854956 
L 194.721585 65.854956 
L 194.721585 28.80101 
L 190.586047 28.80101 
L 190.586047 23.789015 
L 200.543953 23.789015 
z
" style="fill:#ff0000;"/>
   </g>
   <g id="patch_18">
    <path clip-path="url(#pf4bdf32bd5)" d="M 211.025959 57.036242 
L 211.025959 59.872003 
L 206.89042 59.872003 
L 206.89042 80.836939 
L 205.203591 80.836939 
L 205.203591 59.872003 
L 201.068053 59.872003 
L 201.068053 57.036242 
L 211.025959 57.036242 
z
" style="fill:#ff0000;"/>
   </g>
   <g id="patch_19">
    <path clip-path="url(#pf4bdf32bd5)" d="M 206.303779 21.6 
Q 208.436219 21.6 209.612484 24.97139 
Q 210.788749 28.335451 210.918359 32.615651 
L 209.436411 32.615651 
Q 209.184529 29.368855 208.431328 27.470616 
Q 207.678126 25.565048 206.318452 25.565048 
Q 204.660431 25.565048 203.640675 29.061033 
Q 202.620919 32.549689 202.620919 39.761532 
Q 202.620919 45.676123 203.540411 49.355336 
Q 204.462349 53.027219 206.289106 53.027219 
Q 207.969136 53.027219 208.849501 49.15745 
Q 209.314138 47.119957 209.544011 43.792542 
L 211.025959 43.792542 
Q 210.827877 49.106146 209.712748 52.704738 
Q 208.375082 57.036242 206.105697 57.036242 
Q 204.14933 57.036242 202.819001 53.481624 
Q 201.068053 48.790994 201.068053 38.984646 
Q 201.068053 31.545601 202.38371 26.78168 
Q 203.804521 21.6 206.303779 21.6 
z
M 205.998097 21.6 
L 205.998097 21.6 
z
" style="fill:#0000ff;"/>
   </g>
   <g id="patch_20">
    <path clip-path="url(#pf4bdf32bd5)" d="M 218.234033 79.868793 
L 216.539949 78.824988 
L 214.738922 79.868793 
L 218.234033 79.868793 
z
M 215.750025 78.473965 
L 217.458692 78.473965 
L 221.507965 80.836939 
L 219.850339 80.836939 
L 218.72014 80.12923 
L 214.306287 80.12923 
L 213.09831 80.836939 
L 211.550059 80.836939 
L 215.750025 78.473965 
z
M 216.532658 78.473965 
L 216.532658 78.473965 
z
" style="fill:#008000;"/>
   </g>
   <g id="patch_21">
    <path clip-path="url(#pf4bdf32bd5)" d="M 216.685717 70.301496 
Q 218.221903 70.301496 219.342583 70.724414 
Q 220.966619 71.331725 221.32989 72.85423 
L 219.869683 72.85423 
Q 219.601384 72.003319 218.763249 71.614234 
Q 217.925113 71.225149 216.647728 71.225149 
Q 215.135285 71.225149 214.100081 72.03546 
Q 213.064876 72.84408 213.064876 74.446093 
Q 213.064876 75.829881 213.917258 76.6994 
Q 214.772014 77.56892 216.699963 77.56892 
Q 218.176791 77.56892 219.145514 76.959918 
Q 220.114238 76.349224 220.135607 74.984045 
L 216.723706 74.984045 
L 216.723706 74.112834 
L 221.507965 74.112834 
L 221.507965 78.267581 
L 220.558236 78.267581 
L 220.202088 77.267802 
Q 219.454176 77.854813 218.874842 78.083188 
Q 217.90137 78.473965 216.403173 78.473965 
Q 214.4681 78.473965 213.071999 77.580762 
Q 211.550059 76.459183 211.550059 74.50361 
Q 211.550059 72.553112 213.03401 71.401083 
Q 214.444357 70.301496 216.685717 70.301496 
z
M 216.441162 70.289655 
L 216.441162 70.289655 
z
" style="fill:#ffa600;"/>
   </g>
   <g id="patch_22">
    <path clip-path="url(#pf4bdf32bd5)" d="M 216.785785 45.209406 
Q 218.918224 45.209406 220.09449 47.595531 
Q 221.270755 49.976469 221.400364 53.00581 
L 219.918417 53.00581 
Q 219.666535 50.707868 218.913333 49.364376 
Q 218.160132 48.015696 216.800458 48.015696 
Q 215.142437 48.015696 214.122681 50.490004 
Q 213.102925 52.959125 213.102925 58.063358 
Q 213.102925 62.249451 214.022417 64.853439 
Q 214.944355 67.452241 216.771112 67.452241 
Q 218.451142 67.452241 219.331507 64.713384 
Q 219.796144 63.271335 220.026017 60.916333 
L 221.507965 60.916333 
Q 221.309882 64.677074 220.194754 67.224003 
Q 218.857088 70.289655 216.587703 70.289655 
Q 214.631336 70.289655 213.301007 67.773849 
Q 211.550059 64.454023 211.550059 57.513511 
Q 211.550059 52.248475 212.865715 48.876776 
Q 214.286527 45.209406 216.785785 45.209406 
z
M 216.480103 45.209406 
L 216.480103 45.209406 
z
" style="fill:#0000ff;"/>
   </g>
   <g id="patch_23">
    <path clip-path="url(#pf4bdf32bd5)" d="M 228.716039 79.400835 
L 227.021955 77.852501 
L 225.220928 79.400835 
L 228.716039 79.400835 
z
M 226.232031 77.331808 
L 227.940698 77.331808 
L 231.989971 80.836939 
L 230.332345 80.836939 
L 229.202146 79.787155 
L 224.788293 79.787155 
L 223.580316 80.836939 
L 222.032065 80.836939 
L 226.232031 77.331808 
z
M 227.014664 77.331808 
L 227.014664 77.331808 
z
" style="fill:#008000;"/>
   </g>
   <g id="patch_24">
    <path clip-path="url(#pf4bdf32bd5)" d="M 231.989971 25.426122 
L 231.989971 31.610485 
L 227.854432 31.610485 
L 227.854432 77.331808 
L 226.167603 77.331808 
L 226.167603 31.610485 
L 222.032065 31.610485 
L 222.032065 25.426122 
L 231.989971 25.426122 
z
" style="fill:#ff0000;"/>
   </g>
   <g id="patch_25">
    <path clip-path="url(#pf4bdf32bd5)" d="M 242.471976 65.246744 
L 242.471976 67.104256 
L 238.336438 67.104256 
L 238.336438 80.836939 
L 236.649609 80.836939 
L 236.649609 67.104256 
L 232.514071 67.104256 
L 232.514071 65.246744 
L 242.471976 65.246744 
z
" style="fill:#ff0000;"/>
   </g>
   <g id="patch_26">
    <path clip-path="url(#pf4bdf32bd5)" d="M 249.68005 75.056682 
L 247.985967 68.824699 
L 246.18494 75.056682 
L 249.68005 75.056682 
z
M 247.196043 66.728933 
L 248.904709 66.728933 
L 252.953982 80.836939 
L 251.296357 80.836939 
L 250.166158 76.611605 
L 245.752304 76.611605 
L 244.544328 80.836939 
L 242.996077 80.836939 
L 247.196043 66.728933 
z
M 247.978675 66.728933 
L 247.978675 66.728933 
z
" style="fill:#008000;"/>
   </g>
   <g id="patch_27">
    <path clip-path="url(#pf4bdf32bd5)" d="M 248.131735 43.386805 
Q 249.667921 43.386805 250.788601 44.59474 
Q 252.412637 46.329334 252.775908 50.677898 
L 251.3157 50.677898 
Q 251.047402 48.247534 250.209266 47.136234 
Q 249.371131 46.024934 248.093746 46.024934 
Q 246.581303 46.024934 245.546098 48.339337 
Q 244.510894 50.648908 244.510894 55.224564 
Q 244.510894 59.176926 245.363276 61.66044 
Q 246.218031 64.143953 248.145981 64.143953 
Q 249.622809 64.143953 250.591532 62.404527 
Q 251.560255 60.66027 251.581624 56.761057 
L 248.169724 56.761057 
L 248.169724 54.272712 
L 252.953982 54.272712 
L 252.953982 66.139461 
L 252.004254 66.139461 
L 251.648105 63.283904 
Q 250.900194 64.960517 250.320859 65.612801 
Q 249.347387 66.728933 247.84919 66.728933 
Q 245.914118 66.728933 244.518017 64.177775 
Q 242.996077 60.974333 242.996077 55.388843 
Q 242.996077 49.817849 244.480028 46.527435 
Q 245.890375 43.386805 248.131735 43.386805 
z
M 247.88718 43.352983 
L 247.88718 43.352983 
z
" style="fill:#ffa600;"/>
   </g>
   <g id="patch_28">
    <path clip-path="url(#pf4bdf32bd5)" d="M 258.613741 55.322001 
Q 260.149927 55.322001 261.270607 56.642376 
Q 262.894643 58.538436 263.257914 63.291788 
L 261.797706 63.291788 
Q 261.529408 60.635192 260.691272 59.420446 
Q 259.853137 58.205701 258.575751 58.205701 
Q 257.063309 58.205701 256.028104 60.735541 
Q 254.9929 63.260099 254.9929 68.261681 
Q 254.9929 72.58195 255.845281 75.296643 
Q 256.700037 78.011335 258.627987 78.011335 
Q 260.104815 78.011335 261.073538 76.109994 
Q 262.042261 74.203372 262.06363 69.941199 
L 258.65173 69.941199 
L 258.65173 67.221225 
L 263.435988 67.221225 
L 263.435988 80.192595 
L 262.486259 80.192595 
L 262.130111 77.071227 
Q 261.3822 78.903909 260.802865 79.616911 
Q 259.829393 80.836939 258.331196 80.836939 
Q 256.396124 80.836939 255.000023 78.048305 
Q 253.478083 74.546669 253.478083 68.441252 
Q 253.478083 62.35168 254.962034 58.754977 
Q 256.372381 55.322001 258.613741 55.322001 
z
M 258.369185 55.28503 
L 258.369185 55.28503 
z
" style="fill:#ffa600;"/>
   </g>
   <g id="patch_29">
    <path clip-path="url(#pf4bdf32bd5)" d="M 269.095747 63.305655 
Q 270.631933 63.305655 271.752613 64.212884 
Q 273.376649 65.515664 273.73992 68.781687 
L 272.279712 68.781687 
Q 272.011414 66.956343 271.173278 66.121693 
Q 270.335143 65.287042 269.057757 65.287042 
Q 267.545314 65.287042 266.51011 67.025292 
Q 265.474906 68.759913 265.474906 72.196495 
Q 265.474906 75.164946 266.327287 77.030208 
Q 267.182043 78.89547 269.109992 78.89547 
Q 270.586821 78.89547 271.555544 77.589061 
Q 272.524267 76.279023 272.545636 73.350489 
L 269.133736 73.350489 
L 269.133736 71.481599 
L 273.917994 71.481599 
L 273.917994 80.394211 
L 272.968265 80.394211 
L 272.612117 78.249523 
Q 271.864206 79.508756 271.284871 79.998659 
Q 270.311399 80.836939 268.813202 80.836939 
Q 266.87813 80.836939 265.482029 78.920872 
Q 263.960088 76.514902 263.960088 72.319878 
Q 263.960088 68.13574 265.44404 65.66445 
Q 266.854387 63.305655 269.095747 63.305655 
z
M 268.851191 63.280253 
L 268.851191 63.280253 
z
" style="fill:#ffa600;"/>
   </g>
   <g id="patch_30">
    <path clip-path="url(#pf4bdf32bd5)" d="M 273.917994 41.480061 
L 273.917994 44.07747 
L 269.782456 44.07747 
L 269.782456 63.280253 
L 268.095627 63.280253 
L 268.095627 44.07747 
L 263.960088 44.07747 
L 263.960088 41.480061 
L 273.917994 41.480061 
z
" style="fill:#ff0000;"/>
   </g>
   <g id="patch_31">
    <path clip-path="url(#pf4bdf32bd5)" d="M 279.577752 76.560486 
Q 281.113939 76.560486 282.234619 76.781789 
Q 283.858655 77.099579 284.221926 77.896269 
L 282.761718 77.896269 
Q 282.49342 77.451008 281.655284 77.24741 
Q 280.817148 77.043811 279.539763 77.043811 
Q 278.02732 77.043811 276.992116 77.467827 
Q 275.956912 77.890958 275.956912 78.729252 
Q 275.956912 79.453354 276.809293 79.908353 
Q 277.664049 80.363351 279.591998 80.363351 
Q 281.068827 80.363351 282.03755 80.044675 
Q 283.006273 79.725114 283.027642 79.010749 
L 279.615742 79.010749 
L 279.615742 78.554866 
L 284.4 78.554866 
L 284.4 80.728943 
L 283.450271 80.728943 
L 283.094123 80.205783 
Q 282.346212 80.512951 281.766877 80.632455 
Q 280.793405 80.836939 279.295208 80.836939 
Q 277.360136 80.836939 275.964035 80.369547 
Q 274.442094 79.782653 274.442094 78.759349 
Q 274.442094 77.738701 275.926046 77.135873 
Q 277.336393 76.560486 279.577752 76.560486 
z
M 279.333197 76.55429 
L 279.333197 76.55429 
z
" style="fill:#ffa600;"/>
   </g>
   <g id="patch_32">
    <path clip-path="url(#pf4bdf32bd5)" d="M 281.126068 74.063925 
L 279.431985 71.378938 
L 277.630958 74.063925 
L 281.126068 74.063925 
z
M 278.64206 70.475998 
L 280.350727 70.475998 
L 284.4 76.55429 
L 282.742375 76.55429 
L 281.612175 74.733847 
L 277.198322 74.733847 
L 275.990346 76.55429 
L 274.442094 76.55429 
L 278.64206 70.475998 
z
M 279.424693 70.475998 
L 279.424693 70.475998 
z
" style="fill:#008000;"/>
   </g>
   <g id="patch_33">
    <path clip-path="url(#pf4bdf32bd5)" d="M 113.413974 94.228488 
L 111.71989 99.240619 
L 109.918863 94.228488 
L 113.413974 94.228488 
z
M 110.929966 100.926158 
L 112.638633 100.926158 
L 116.687906 89.579662 
L 115.03028 89.579662 
L 113.900081 92.977927 
L 109.486228 92.977927 
L 108.278251 89.579662 
L 106.73 89.579662 
L 110.929966 100.926158 
z
M 111.712599 100.926158 
L 111.712599 100.926158 
z
" style="fill:none;opacity:0;"/>
   </g>
   <g id="patch_34">
    <path clip-path="url(#pf4bdf32bd5)" d="M 111.865658 114.059326 
Q 113.401844 114.059326 114.522524 113.379696 
Q 116.14656 112.403747 116.509831 109.95708 
L 115.049624 109.95708 
Q 114.781325 111.324495 113.94319 111.949755 
Q 113.105054 112.575014 111.827669 112.575014 
Q 110.315226 112.575014 109.280022 111.272843 
Q 108.244817 109.973391 108.244817 107.398953 
Q 108.244817 105.175204 109.097199 103.777885 
Q 109.951955 102.380566 111.879904 102.380566 
Q 113.356732 102.380566 114.325455 103.359233 
Q 115.294179 104.340619 115.315548 106.534464 
L 111.903647 106.534464 
L 111.903647 107.934501 
L 116.687906 107.934501 
L 116.687906 101.257817 
L 115.738177 101.257817 
L 115.382029 102.864462 
Q 114.634117 101.921136 114.054783 101.554136 
Q 113.081311 100.926158 111.583114 100.926158 
Q 109.648041 100.926158 108.25194 102.361536 
Q 106.73 104.163915 106.73 107.306523 
Q 106.73 110.440976 108.213951 112.292288 
Q 109.624298 114.059326 111.865658 114.059326 
z
M 111.621103 114.078355 
L 111.621103 114.078355 
z
" style="fill:none;opacity:0;"/>
   </g>
   <g id="patch_35">
    <path clip-path="url(#pf4bdf32bd5)" d="M 116.687906 89.579662 
L 116.687906 88.538 
L 112.552367 88.538 
L 112.552367 80.836939 
L 110.865538 80.836939 
L 110.865538 88.538 
L 106.73 88.538 
L 106.73 89.579662 
L 116.687906 89.579662 
z
" style="fill:none;opacity:0;"/>
   </g>
   <g id="patch_36">
    <path clip-path="url(#pf4bdf32bd5)" d="M 123.89598 95.19261 
L 122.201896 106.861734 
L 120.400869 95.19261 
L 123.89598 95.19261 
z
M 121.411972 110.785966 
L 123.120639 110.785966 
L 127.169912 84.369325 
L 125.512286 84.369325 
L 124.382087 92.281083 
L 119.968234 92.281083 
L 118.760257 84.369325 
L 117.212006 84.369325 
L 121.411972 110.785966 
z
M 122.194605 110.785966 
L 122.194605 110.785966 
z
" style="fill:none;opacity:0;"/>
   </g>
   <g id="patch_37">
    <path clip-path="url(#pf4bdf32bd5)" d="M 122.447732 84.369325 
Q 124.580171 84.369325 125.756437 84.033255 
Q 126.932702 83.697916 127.062311 83.271253 
L 125.580364 83.271253 
Q 125.328482 83.594903 124.57528 83.784125 
Q 123.822079 83.974077 122.462405 83.974077 
Q 120.804384 83.974077 119.784628 83.625588 
Q 118.764872 83.277828 118.764872 82.558931 
Q 118.764872 81.969348 119.684364 81.602593 
Q 120.606302 81.236569 122.433059 81.236569 
Q 124.113089 81.236569 124.993454 81.622319 
Q 125.458091 81.825422 125.687964 82.157109 
L 127.169912 82.157109 
Q 126.971829 81.627433 125.8567 81.268715 
Q 124.519035 80.836939 122.24965 80.836939 
Q 120.293283 80.836939 118.962954 81.191273 
Q 117.212006 81.658848 117.212006 82.636373 
Q 117.212006 83.377919 118.527662 83.8528 
Q 119.948474 84.369325 122.447732 84.369325 
z
M 122.14205 84.369325 
L 122.14205 84.369325 
z
" style="fill:none;opacity:0;"/>
   </g>
   <g id="patch_38">
    <path clip-path="url(#pf4bdf32bd5)" d="M 122.347664 138.013541 
Q 123.88385 138.013541 125.00453 136.604538 
Q 126.628566 134.58121 126.991837 129.508799 
L 125.531629 129.508799 
Q 125.263331 132.343713 124.425196 133.639996 
Q 123.58706 134.936278 122.309675 134.936278 
Q 120.797232 134.936278 119.762028 132.236628 
Q 118.726823 129.542615 118.726823 124.205311 
Q 118.726823 119.595053 119.579205 116.698143 
Q 120.433961 113.801232 122.36191 113.801232 
Q 123.838738 113.801232 124.807461 115.830197 
Q 125.776185 117.864797 125.797554 122.413059 
L 122.385653 122.413059 
L 122.385653 125.315605 
L 127.169912 125.315605 
L 127.169912 111.473559 
L 126.220183 111.473559 
L 125.864035 114.804442 
Q 125.116123 112.848746 124.536789 112.087884 
Q 123.563317 110.785966 122.06512 110.785966 
Q 120.130047 110.785966 118.733946 113.76178 
Q 117.212006 117.498456 117.212006 124.013686 
Q 117.212006 130.512009 118.695957 134.350133 
Q 120.106304 138.013541 122.347664 138.013541 
z
M 122.103109 138.052993 
L 122.103109 138.052993 
z
" style="fill:none;opacity:0;"/>
   </g>
   <g id="patch_39">
    <path clip-path="url(#pf4bdf32bd5)" d="M 132.929738 90.35058 
Q 135.062177 90.35058 136.238443 89.445456 
Q 137.414708 88.542299 137.544317 87.393185 
L 136.06237 87.393185 
Q 135.810487 88.264859 135.057286 88.774483 
Q 134.304085 89.286075 132.94441 89.286075 
Q 131.28639 89.286075 130.266634 88.347501 
Q 129.246878 87.410894 129.246878 85.474716 
Q 129.246878 83.886813 130.16637 82.899047 
Q 131.088308 81.913249 132.915065 81.913249 
Q 134.595095 81.913249 135.47546 82.952174 
Q 135.940097 83.499184 136.16997 84.392502 
L 137.651917 84.392502 
Q 137.453835 82.965948 136.338706 81.999826 
Q 135.001041 80.836939 132.731656 80.836939 
Q 130.775289 80.836939 129.44496 81.791254 
Q 127.694012 83.050557 127.694012 85.683288 
Q 127.694012 87.680464 129.009668 88.959443 
Q 130.430479 90.35058 132.929738 90.35058 
z
M 132.624055 90.35058 
L 132.624055 90.35058 
z
" style="fill:none;opacity:0;"/>
   </g>
   <g id="patch_40">
    <path clip-path="url(#pf4bdf32bd5)" d="M 132.82967 102.539588 
Q 134.365856 102.539588 135.486536 101.908818 
Q 137.110572 101.003032 137.473843 98.732258 
L 136.013635 98.732258 
Q 135.745337 100.001368 134.907201 100.581677 
Q 134.069066 101.161986 132.791681 101.161986 
Q 131.279238 101.161986 130.244033 99.95343 
Q 129.208829 98.747396 129.208829 96.358038 
Q 129.208829 94.294157 130.061211 92.997293 
Q 130.915966 91.700429 132.843916 91.700429 
Q 134.320744 91.700429 135.289467 92.608738 
Q 136.258191 93.519571 136.279559 95.555698 
L 132.867659 95.555698 
L 132.867659 96.855085 
L 137.651917 96.855085 
L 137.651917 90.658396 
L 136.702189 90.658396 
L 136.34604 92.149537 
Q 135.598129 91.274028 135.018795 90.933412 
Q 134.045323 90.35058 132.547126 90.35058 
Q 130.612053 90.35058 129.215952 91.682767 
Q 127.694012 93.35557 127.694012 96.272253 
Q 127.694012 99.181366 129.177963 100.899585 
Q 130.58831 102.539588 132.82967 102.539588 
z
M 132.585115 102.55725 
L 132.585115 102.55725 
z
" style="fill:none;opacity:0;"/>
   </g>
   <g id="patch_41">
    <path clip-path="url(#pf4bdf32bd5)" d="M 143.311676 101.194255 
Q 144.847862 101.194255 145.968542 100.140782 
Q 147.592578 98.627995 147.955849 94.835491 
L 146.495641 94.835491 
Q 146.227343 96.955079 145.389207 97.924274 
Q 144.551072 98.89347 143.273687 98.89347 
Q 141.761244 98.89347 140.726039 96.875015 
Q 139.690835 94.860774 139.690835 90.870218 
Q 139.690835 87.423253 140.543217 85.257312 
Q 141.397972 83.091371 143.325922 83.091371 
Q 144.80275 83.091371 145.771473 84.608373 
Q 146.740196 86.129588 146.761565 89.5302 
L 143.349665 89.5302 
L 143.349665 91.700355 
L 148.133923 91.700355 
L 148.133923 81.351033 
L 147.184195 81.351033 
L 146.828046 83.841444 
Q 146.080135 82.379223 145.5008 81.810348 
Q 144.527328 80.836939 143.029131 80.836939 
Q 141.094059 80.836939 139.697958 83.061874 
Q 138.176018 85.855685 138.176018 90.726945 
Q 138.176018 95.585564 139.659969 98.455225 
Q 141.070316 101.194255 143.311676 101.194255 
z
M 143.067121 101.223753 
L 143.067121 101.223753 
z
" style="fill:none;opacity:0;"/>
   </g>
   <g id="patch_42">
    <path clip-path="url(#pf4bdf32bd5)" d="M 148.133923 130.485527 
L 148.133923 126.999099 
L 143.998385 126.999099 
L 143.998385 101.223753 
L 142.311556 101.223753 
L 142.311556 126.999099 
L 138.176018 126.999099 
L 138.176018 130.485527 
L 148.133923 130.485527 
z
" style="fill:none;opacity:0;"/>
   </g>
   <g id="patch_43">
    <path clip-path="url(#pf4bdf32bd5)" d="M 153.89375 90.287677 
Q 156.026189 90.287677 157.202454 89.388537 
Q 158.37872 88.491352 158.508329 87.349836 
L 157.026381 87.349836 
Q 156.774499 88.215747 156.021298 88.722001 
Q 155.268097 89.230211 153.908422 89.230211 
Q 152.250402 89.230211 151.230646 88.297842 
Q 150.21089 87.367428 150.21089 85.444051 
Q 150.21089 83.866648 151.130382 82.885413 
Q 152.05232 81.906133 153.879077 81.906133 
Q 155.559107 81.906133 156.439471 82.938189 
Q 156.904108 83.481582 157.133982 84.368993 
L 158.615929 84.368993 
Q 158.417847 82.951871 157.302718 81.992137 
Q 155.965053 80.836939 153.695667 80.836939 
Q 151.739301 80.836939 150.408972 81.784944 
Q 148.658024 83.035921 148.658024 85.651244 
Q 148.658024 87.635215 149.97368 88.905739 
Q 151.394491 90.287677 153.89375 90.287677 
z
M 153.588067 90.287677 
L 153.588067 90.287677 
z
" style="fill:none;opacity:0;"/>
   </g>
   <g id="patch_44">
    <path clip-path="url(#pf4bdf32bd5)" d="M 153.793682 113.722782 
Q 155.329868 113.722782 156.450548 112.510036 
Q 158.074584 110.768532 158.437855 106.402647 
L 156.977647 106.402647 
Q 156.709349 108.842692 155.871213 109.958418 
Q 155.033078 111.074144 153.755692 111.074144 
Q 152.24325 111.074144 151.208045 108.750523 
Q 150.172841 106.431752 150.172841 101.83787 
Q 150.172841 97.869765 151.025222 95.376359 
Q 151.879978 92.882953 153.807928 92.882953 
Q 155.284756 92.882953 156.253479 94.629308 
Q 157.222202 96.380513 157.243571 100.295257 
L 153.831671 100.295257 
L 153.831671 102.793514 
L 158.615929 102.793514 
L 158.615929 90.879497 
L 157.6662 90.879497 
L 157.310052 93.746429 
Q 156.562141 92.063137 155.982806 91.408254 
Q 155.009334 90.287677 153.511137 90.287677 
Q 151.576065 90.287677 150.179964 92.848997 
Q 148.658024 96.065199 148.658024 101.672937 
Q 148.658024 107.266122 150.141975 110.569642 
Q 151.552322 113.722782 153.793682 113.722782 
z
M 153.549126 113.756739 
L 153.549126 113.756739 
z
" style="fill:none;opacity:0;"/>
   </g>
   <g id="patch_45">
    <path clip-path="url(#pf4bdf32bd5)" d="M 164.375755 100.849755 
Q 166.508195 100.849755 167.68446 98.945744 
Q 168.860726 97.045871 168.990335 94.628604 
L 167.508387 94.628604 
Q 167.256505 96.46225 166.503304 97.534292 
Q 165.750103 98.610472 164.390428 98.610472 
Q 162.732408 98.610472 161.712651 96.636095 
Q 160.692895 94.665857 160.692895 90.592928 
Q 160.692895 87.252629 161.612388 85.174773 
Q 162.534325 83.101057 164.361083 83.101057 
Q 166.041112 83.101057 166.921477 85.286531 
Q 167.386114 86.437216 167.615987 88.316392 
L 169.097935 88.316392 
Q 168.899853 85.315505 167.784724 83.283179 
Q 166.447058 80.836939 164.177673 80.836939 
Q 162.221307 80.836939 160.890978 82.844429 
Q 159.140029 85.493488 159.140029 91.031678 
Q 159.140029 95.232921 160.455686 97.923372 
Q 161.876497 100.849755 164.375755 100.849755 
z
M 164.070073 100.849755 
L 164.070073 100.849755 
z
" style="fill:none;opacity:0;"/>
   </g>
   <g id="patch_46">
    <path clip-path="url(#pf4bdf32bd5)" d="M 176.306009 80.895344 
L 174.611926 80.958314 
L 172.810899 80.895344 
L 176.306009 80.895344 
z
M 173.822001 80.97949 
L 175.530668 80.97949 
L 179.579941 80.836939 
L 177.922316 80.836939 
L 176.792116 80.879633 
L 172.378263 80.879633 
L 171.170287 80.836939 
L 169.622035 80.836939 
L 173.822001 80.97949 
z
M 174.604634 80.97949 
L 174.604634 80.97949 
z
" style="fill:none;opacity:0;"/>
   </g>
   <g id="patch_47">
    <path clip-path="url(#pf4bdf32bd5)" d="M 174.757693 93.499531 
Q 176.29388 93.499531 177.41456 92.85163 
Q 179.038596 91.921244 179.401867 89.5888 
L 177.941659 89.5888 
Q 177.673361 90.892377 176.835225 91.488446 
Q 175.997089 92.084515 174.719704 92.084515 
Q 173.207261 92.084515 172.172057 90.843137 
Q 171.136853 89.60435 171.136853 87.1501 
Q 171.136853 85.030168 171.989234 83.698083 
Q 172.84399 82.365998 174.771939 82.365998 
Q 176.248768 82.365998 177.217491 83.298976 
Q 178.186214 84.234545 178.207583 86.32597 
L 174.795683 86.32597 
L 174.795683 87.660646 
L 179.579941 87.660646 
L 179.579941 81.295666 
L 178.630212 81.295666 
L 178.274064 82.827304 
Q 177.526153 81.928017 176.946818 81.578151 
Q 175.973346 80.97949 174.475149 80.97949 
Q 172.540077 80.97949 171.143976 82.347857 
Q 169.622035 84.066091 169.622035 87.061986 
Q 169.622035 90.050106 171.105987 91.814988 
Q 172.516334 93.499531 174.757693 93.499531 
z
M 174.513138 93.517673 
L 174.513138 93.517673 
z
" style="fill:none;opacity:0;"/>
   </g>
   <g id="patch_48">
    <path clip-path="url(#pf4bdf32bd5)" d="M 179.579941 110.456011 
L 179.579941 108.437873 
L 175.444403 108.437873 
L 175.444403 93.517673 
L 173.757574 93.517673 
L 173.757574 108.437873 
L 169.622035 108.437873 
L 169.622035 110.456011 
L 179.579941 110.456011 
z
" style="fill:none;opacity:0;"/>
   </g>
   <g id="patch_49">
    <path clip-path="url(#pf4bdf32bd5)" d="M 186.788015 104.547292 
L 185.093932 113.068494 
L 183.292904 104.547292 
L 186.788015 104.547292 
z
M 184.304007 115.934105 
L 186.012674 115.934105 
L 190.061947 96.643751 
L 188.404321 96.643751 
L 187.274122 102.421193 
L 182.860269 102.421193 
L 181.652293 96.643751 
L 180.104041 96.643751 
L 184.304007 115.934105 
z
M 185.08664 115.934105 
L 185.08664 115.934105 
z
" style="fill:none;opacity:0;"/>
   </g>
   <g id="patch_50">
    <path clip-path="url(#pf4bdf32bd5)" d="M 185.239699 96.624867 
Q 186.775886 96.624867 187.896565 95.950456 
Q 189.520602 94.982002 189.883873 92.554123 
L 188.423665 92.554123 
Q 188.155367 93.911038 187.317231 94.531496 
Q 186.479095 95.151954 185.20171 95.151954 
Q 183.689267 95.151954 182.654063 93.859782 
Q 181.618859 92.570309 181.618859 90.01564 
Q 181.618859 87.808967 182.47124 86.422378 
Q 183.325996 85.035789 185.253945 85.035789 
Q 186.730773 85.035789 187.699497 86.006941 
Q 188.66822 86.980791 188.689589 89.157789 
L 185.277688 89.157789 
L 185.277688 90.547076 
L 190.061947 90.547076 
L 190.061947 83.921663 
L 189.112218 83.921663 
L 188.75607 85.51597 
Q 188.008159 84.579888 187.428824 84.215706 
Q 186.455352 83.59255 184.957155 83.59255 
Q 183.022083 83.59255 181.625982 85.016906 
Q 180.104041 86.805444 180.104041 89.92392 
Q 180.104041 93.034303 181.587992 94.871399 
Q 182.99834 96.624867 185.239699 96.624867 
z
M 184.995144 96.643751 
L 184.995144 96.643751 
z
" style="fill:none;opacity:0;"/>
   </g>
   <g id="patch_51">
    <path clip-path="url(#pf4bdf32bd5)" d="M 190.061947 83.59255 
L 190.061947 83.264229 
L 185.926409 83.264229 
L 185.926409 80.836939 
L 184.23958 80.836939 
L 184.23958 83.264229 
L 180.104041 83.264229 
L 180.104041 83.59255 
L 190.061947 83.59255 
z
" style="fill:none;opacity:0;"/>
   </g>
   <g id="patch_52">
    <path clip-path="url(#pf4bdf32bd5)" d="M 197.270021 91.645596 
L 195.575937 103.298949 
L 193.77491 91.645596 
L 197.270021 91.645596 
z
M 194.786013 107.217878 
L 196.49468 107.217878 
L 200.543953 80.836939 
L 198.886327 80.836939 
L 197.756128 88.738004 
L 193.342275 88.738004 
L 192.134299 80.836939 
L 190.586047 80.836939 
L 194.786013 107.217878 
z
M 195.568646 107.217878 
L 195.568646 107.217878 
z
" style="fill:none;opacity:0;"/>
   </g>
   <g id="patch_53">
    <path clip-path="url(#pf4bdf32bd5)" d="M 195.721705 139.16928 
Q 197.257891 139.16928 198.378571 137.515823 
Q 200.002607 135.141459 200.365879 129.189014 
L 198.905671 129.189014 
Q 198.637372 132.515769 197.799237 134.03695 
Q 196.961101 135.55813 195.683716 135.55813 
Q 194.171273 135.55813 193.136069 132.390106 
Q 192.100865 129.228697 192.100865 122.965402 
Q 192.100865 117.555291 192.953246 114.155783 
Q 193.808002 110.756275 195.735951 110.756275 
Q 197.212779 110.756275 198.181503 113.137253 
Q 199.150226 115.524845 199.171595 120.862204 
L 195.759694 120.862204 
L 195.759694 124.268326 
L 200.543953 124.268326 
L 200.543953 108.024765 
L 199.594224 108.024765 
L 199.238076 111.933537 
Q 198.490164 109.638539 197.91083 108.745672 
Q 196.937358 107.217878 195.439161 107.217878 
Q 193.504089 107.217878 192.107987 110.709979 
Q 190.586047 115.094947 190.586047 122.740532 
Q 190.586047 130.366275 192.069998 134.870292 
Q 193.480345 139.16928 195.721705 139.16928 
z
M 195.47715 139.215577 
L 195.47715 139.215577 
z
" style="fill:none;opacity:0;"/>
   </g>
   <g id="patch_54">
    <path clip-path="url(#pf4bdf32bd5)" d="M 207.752027 85.504139 
L 206.057943 90.53608 
L 204.256916 85.504139 
L 207.752027 85.504139 
z
M 205.268019 92.228282 
L 206.976686 92.228282 
L 211.025959 80.836939 
L 209.368333 80.836939 
L 208.238134 84.248635 
L 203.824281 84.248635 
L 202.616304 80.836939 
L 201.068053 80.836939 
L 205.268019 92.228282 
z
M 206.050652 92.228282 
L 206.050652 92.228282 
z
" style="fill:none;opacity:0;"/>
   </g>
   <g id="patch_55">
    <path clip-path="url(#pf4bdf32bd5)" d="M 206.203711 141.568507 
Q 207.739897 141.568507 208.860577 139.015194 
Q 210.484613 135.348636 210.847885 126.156708 
L 209.387677 126.156708 
Q 209.119378 131.293975 208.281243 133.643023 
Q 207.443107 135.992071 206.165722 135.992071 
Q 204.653279 135.992071 203.618075 131.099923 
Q 202.58287 126.217988 202.58287 116.546037 
Q 202.58287 108.191596 203.435252 102.941984 
Q 204.290008 97.692372 206.217957 97.692372 
Q 207.694785 97.692372 208.663509 101.369143 
Q 209.632232 105.056127 209.653601 113.298223 
L 206.2417 113.298223 
L 206.2417 118.558048 
L 211.025959 118.558048 
L 211.025959 93.474299 
L 210.07623 93.474299 
L 209.720082 99.510331 
Q 208.97217 95.966332 208.392836 94.587543 
Q 207.419364 92.228282 205.921167 92.228282 
Q 203.986095 92.228282 202.589993 97.620879 
Q 201.068053 104.392266 201.068053 116.198787 
Q 201.068053 127.974667 202.552004 134.929893 
Q 203.962351 141.568507 206.203711 141.568507 
z
M 205.959156 141.64 
L 205.959156 141.64 
z
" style="fill:none;opacity:0;"/>
   </g>
   <g id="patch_56">
    <path clip-path="url(#pf4bdf32bd5)" d="M 221.507965 117.185319 
L 221.507965 112.854549 
L 217.372426 112.854549 
L 217.372426 80.836939 
L 215.685597 80.836939 
L 215.685597 112.854549 
L 211.550059 112.854549 
L 211.550059 117.185319 
L 221.507965 117.185319 
z
" style="fill:none;opacity:0;"/>
   </g>
   <g id="patch_57">
    <path clip-path="url(#pf4bdf32bd5)" d="M 227.267791 101.490455 
Q 229.40023 101.490455 230.576496 99.525488 
Q 231.752761 97.564792 231.88237 95.070137 
L 230.400423 95.070137 
Q 230.148541 96.962487 229.395339 98.068849 
Q 228.642138 99.179482 227.282464 99.179482 
Q 225.624443 99.179482 224.604687 97.141897 
Q 223.584931 95.108582 223.584931 90.905261 
Q 223.584931 87.458024 224.504423 85.313647 
Q 225.426361 83.173541 227.253118 83.173541 
Q 228.933148 83.173541 229.813513 85.428982 
Q 230.27815 86.616506 230.508023 88.555843 
L 231.989971 88.555843 
Q 231.791888 85.458884 230.676759 83.361495 
Q 229.339094 80.836939 227.069709 80.836939 
Q 225.113342 80.836939 223.783013 82.908698 
Q 222.032065 85.642565 222.032065 91.358058 
Q 222.032065 95.693801 223.347721 98.470385 
Q 224.768533 101.490455 227.267791 101.490455 
z
M 226.962109 101.490455 
L 226.962109 101.490455 
z
" style="fill:none;opacity:0;"/>
   </g>
   <g id="patch_58">
    <path clip-path="url(#pf4bdf32bd5)" d="M 227.167723 137.795833 
Q 228.703909 137.795833 229.824589 135.917062 
Q 231.448625 133.219146 231.811896 126.455569 
L 230.351688 126.455569 
Q 230.08339 130.235657 229.245255 131.964127 
Q 228.407119 133.692596 227.129734 133.692596 
Q 225.617291 133.692596 224.582087 130.09287 
Q 223.546882 126.50066 223.546882 119.383874 
Q 223.546882 113.236534 224.399264 109.37378 
Q 225.25402 105.511026 227.181969 105.511026 
Q 228.658797 105.511026 229.62752 108.216457 
Q 230.596244 110.929402 230.617613 116.994076 
L 227.205712 116.994076 
L 227.205712 120.864345 
L 231.989971 120.864345 
L 231.989971 102.407295 
L 231.040242 102.407295 
L 230.684094 106.848711 
Q 229.936182 104.240976 229.356848 103.22644 
Q 228.383376 101.490455 226.885179 101.490455 
Q 224.950106 101.490455 223.554005 105.45842 
Q 222.032065 110.440922 222.032065 119.128361 
Q 222.032065 127.793254 223.516016 132.911027 
Q 224.926363 137.795833 227.167723 137.795833 
z
M 226.923168 137.848439 
L 226.923168 137.848439 
z
" style="fill:none;opacity:0;"/>
   </g>
   <g id="patch_59">
    <path clip-path="url(#pf4bdf32bd5)" d="M 239.198045 81.70462 
L 237.503961 82.64011 
L 235.702934 81.70462 
L 239.198045 81.70462 
z
M 236.714037 82.954708 
L 238.422704 82.954708 
L 242.471976 80.836939 
L 240.814351 80.836939 
L 239.684152 81.471208 
L 235.270299 81.471208 
L 234.062322 80.836939 
L 232.514071 80.836939 
L 236.714037 82.954708 
z
M 237.496669 82.954708 
L 237.496669 82.954708 
z
" style="fill:none;opacity:0;"/>
   </g>
   <g id="patch_60">
    <path clip-path="url(#pf4bdf32bd5)" d="M 237.749797 88.473675 
Q 239.882236 88.473675 241.058502 87.948603 
Q 242.234767 87.424672 242.364376 86.758058 
L 240.882429 86.758058 
Q 240.630546 87.263726 239.877345 87.559364 
Q 239.124144 87.856144 237.764469 87.856144 
Q 236.106449 87.856144 235.086693 87.311667 
Q 234.066937 86.768331 234.066937 85.645133 
Q 234.066937 84.723973 234.986429 84.15096 
Q 235.908367 83.579087 237.735124 83.579087 
Q 239.415154 83.579087 240.295519 84.181779 
Q 240.760156 84.499105 240.990029 85.017329 
L 242.471976 85.017329 
Q 242.273894 84.189769 241.158765 83.629312 
Q 239.8211 82.954708 237.551715 82.954708 
Q 235.595348 82.954708 234.265019 83.508317 
Q 232.514071 84.238852 232.514071 85.766128 
Q 232.514071 86.924712 233.829727 87.666662 
Q 235.250538 88.473675 237.749797 88.473675 
z
M 237.444114 88.473675 
L 237.444114 88.473675 
z
" style="fill:none;opacity:0;"/>
   </g>
   <g id="patch_61">
    <path clip-path="url(#pf4bdf32bd5)" d="M 237.649729 96.538478 
Q 239.185915 96.538478 240.306595 96.121131 
Q 241.930631 95.521822 242.293902 94.019375 
L 240.833694 94.019375 
Q 240.565396 94.859076 239.72726 95.243034 
Q 238.889125 95.626993 237.61174 95.626993 
Q 236.099297 95.626993 235.064092 94.827357 
Q 234.028888 94.029391 234.028888 92.448483 
Q 234.028888 91.082925 234.88127 90.224861 
Q 235.736025 89.366797 237.663975 89.366797 
Q 239.140803 89.366797 240.109526 89.967775 
Q 241.07825 90.570424 241.099618 91.917618 
L 237.687718 91.917618 
L 237.687718 92.777352 
L 242.471976 92.777352 
L 242.471976 88.67734 
L 241.522248 88.67734 
L 241.166099 89.663947 
Q 240.418188 89.08467 239.838854 88.859303 
Q 238.865382 88.473675 237.367185 88.473675 
Q 235.432112 88.473675 234.036011 89.355111 
Q 232.514071 90.461914 232.514071 92.391724 
Q 232.514071 94.316525 233.998022 95.453377 
Q 235.408369 96.538478 237.649729 96.538478 
z
M 237.405174 96.550163 
L 237.405174 96.550163 
z
" style="fill:none;opacity:0;"/>
   </g>
   <g id="patch_62">
    <path clip-path="url(#pf4bdf32bd5)" d="M 248.231803 93.983114 
Q 250.364242 93.983114 251.540507 92.732392 
Q 252.716773 91.484389 252.846382 89.896516 
L 251.364435 89.896516 
Q 251.112552 91.101016 250.359351 91.805226 
Q 249.60615 92.512156 248.246475 92.512156 
Q 246.588455 92.512156 245.568699 91.215212 
Q 244.548943 89.920987 244.548943 87.245529 
Q 244.548943 85.051328 245.468435 83.686409 
Q 246.390373 82.32421 248.21713 82.32421 
Q 249.89716 82.32421 250.777525 83.759821 
Q 251.242162 84.515693 251.472035 85.750101 
L 252.953982 85.750101 
Q 252.7559 83.778854 251.640771 82.443844 
Q 250.303106 80.836939 248.03372 80.836939 
Q 246.077354 80.836939 244.747025 82.155635 
Q 242.996077 83.895769 242.996077 87.533739 
Q 242.996077 90.293484 244.311733 92.060809 
Q 245.732544 93.983114 248.231803 93.983114 
z
M 247.92612 93.983114 
L 247.92612 93.983114 
z
" style="fill:none;opacity:0;"/>
   </g>
   <g id="patch_63">
    <path clip-path="url(#pf4bdf32bd5)" d="M 252.953982 118.87073 
L 252.953982 115.905466 
L 248.818444 115.905466 
L 248.818444 93.983114 
L 247.131615 93.983114 
L 247.131615 115.905466 
L 242.996077 115.905466 
L 242.996077 118.87073 
L 252.953982 118.87073 
z
" style="fill:none;opacity:0;"/>
   </g>
   <g id="patch_64">
    <path clip-path="url(#pf4bdf32bd5)" d="M 260.162056 85.457894 
L 258.467973 89.33151 
L 256.666946 85.457894 
L 260.162056 85.457894 
z
M 257.678049 90.634175 
L 259.386715 90.634175 
L 263.435988 81.865059 
L 261.778363 81.865059 
L 260.648164 84.4914 
L 256.23431 84.4914 
L 255.026334 81.865059 
L 253.478083 81.865059 
L 257.678049 90.634175 
z
M 258.460681 90.634175 
L 258.460681 90.634175 
z
" style="fill:none;opacity:0;"/>
   </g>
   <g id="patch_65">
    <path clip-path="url(#pf4bdf32bd5)" d="M 258.713809 81.865059 
Q 260.846248 81.865059 262.022513 81.767244 
Q 263.198779 81.669641 263.328388 81.545459 
L 261.84644 81.545459 
Q 261.594558 81.639659 260.841357 81.694733 
Q 260.088156 81.75002 258.728481 81.75002 
Q 257.070461 81.75002 256.050705 81.64859 
Q 255.030949 81.547373 255.030949 81.338134 
Q 255.030949 81.166532 255.950441 81.059786 
Q 256.872379 80.953253 258.699136 80.953253 
Q 260.379166 80.953253 261.25953 81.065528 
Q 261.724167 81.124642 261.954041 81.221181 
L 263.435988 81.221181 
Q 263.237906 81.067016 262.122777 80.962609 
Q 260.785112 80.836939 258.515726 80.836939 
Q 256.55936 80.836939 255.229031 80.940069 
Q 253.478083 81.07616 253.478083 81.360674 
Q 253.478083 81.576505 254.793739 81.714721 
Q 256.21455 81.865059 258.713809 81.865059 
z
M 258.408126 81.865059 
L 258.408126 81.865059 
z
" style="fill:none;opacity:0;"/>
   </g>
   <g id="patch_66">
    <path clip-path="url(#pf4bdf32bd5)" d="M 263.435988 106.744107 
L 263.435988 104.824671 
L 259.30045 104.824671 
L 259.30045 90.634175 
L 257.613621 90.634175 
L 257.613621 104.824671 
L 253.478083 104.824671 
L 253.478083 106.744107 
L 263.435988 106.744107 
z
" style="fill:none;opacity:0;"/>
   </g>
   <g id="patch_67">
    <path clip-path="url(#pf4bdf32bd5)" d="M 270.644062 103.193586 
L 268.949979 116.3908 
L 267.148952 103.193586 
L 270.644062 103.193586 
z
M 268.160055 120.828916 
L 269.868721 120.828916 
L 273.917994 90.952976 
L 272.260369 90.952976 
L 271.130169 99.90079 
L 266.716316 99.90079 
L 265.50834 90.952976 
L 263.960088 90.952976 
L 268.160055 120.828916 
z
M 268.942687 120.828916 
L 268.942687 120.828916 
z
" style="fill:none;opacity:0;"/>
   </g>
   <g id="patch_68">
    <path clip-path="url(#pf4bdf32bd5)" d="M 269.195814 90.952976 
Q 271.328254 90.952976 272.504519 89.99054 
Q 273.680785 89.030196 273.810394 87.808321 
L 272.328446 87.808321 
Q 272.076564 88.735189 271.323363 89.277082 
Q 270.570162 89.821067 269.210487 89.821067 
Q 267.552467 89.821067 266.53271 88.823063 
Q 265.512954 87.827152 265.512954 85.768376 
Q 265.512954 84.079929 266.432447 83.029618 
Q 267.354384 81.9814 269.181142 81.9814 
Q 270.861171 81.9814 271.741536 83.086109 
Q 272.206173 83.667755 272.436046 84.617637 
L 273.917994 84.617637 
Q 273.719912 83.100755 272.604783 82.073459 
Q 271.267117 80.836939 268.997732 80.836939 
Q 267.041366 80.836939 265.711037 81.851681 
Q 263.960088 83.190722 263.960088 85.990155 
Q 263.960088 88.11379 265.275745 89.473754 
Q 266.696556 90.952976 269.195814 90.952976 
z
M 268.890132 90.952976 
L 268.890132 90.952976 
z
" style="fill:none;opacity:0;"/>
   </g>
   <g id="patch_69">
    <path clip-path="url(#pf4bdf32bd5)" d="M 279.67782 91.244096 
Q 281.81026 91.244096 282.986525 90.449375 
Q 284.162791 89.656381 284.2924 88.647431 
L 282.810452 88.647431 
Q 282.55857 89.412782 281.805369 89.860244 
Q 281.052168 90.309435 279.692493 90.309435 
Q 278.034472 90.309435 277.014716 89.485343 
Q 275.99496 88.66298 275.99496 86.962967 
Q 275.99496 85.568749 276.914453 84.701466 
Q 277.83639 83.835911 279.663148 83.835911 
Q 281.343177 83.835911 282.223542 84.748113 
Q 282.688179 85.228401 282.918052 86.012757 
L 284.4 86.012757 
Q 284.201918 84.760207 283.086789 83.911928 
Q 281.749123 82.890884 279.479738 82.890884 
Q 277.523372 82.890884 276.193042 83.728797 
Q 274.442094 84.834496 274.442094 87.146098 
Q 274.442094 88.899668 275.757751 90.022644 
Q 277.178562 91.244096 279.67782 91.244096 
z
M 279.372138 91.244096 
L 279.372138 91.244096 
z
" style="fill:none;opacity:0;"/>
   </g>
   <g id="patch_70">
    <path clip-path="url(#pf4bdf32bd5)" d="M 284.4 82.890884 
L 284.4 82.646164 
L 280.264462 82.646164 
L 280.264462 80.836939 
L 278.577633 80.836939 
L 278.577633 82.646164 
L 274.442094 82.646164 
L 274.442094 82.890884 
L 284.4 82.890884 
z
" style="fill:none;opacity:0;"/>
   </g>
   <g id="matplotlib.axis_1">
    <g id="xtick_1">
     <g id="line2d_2">
      <path clip-path="url(#pf4bdf32bd5)" d="M 111.708953 141.64 
L 111.708953 21.6 
" style="fill:none;stroke:#cccccc;stroke-linecap:round;stroke-width:0.8;"/>
     </g>
     <g id="text_1">
      <!-- 0 -->
      <g style="fill:#262626;" transform="translate(106.148015 162.986875)scale(0.2 -0.2)">
       <defs>
        <path d="M 1731 4475 
Q 2600 4475 2988 3759 
Q 3288 3206 3288 2244 
Q 3288 1331 3016 734 
Q 2622 -122 1728 -122 
Q 922 -122 528 578 
Q 200 1163 200 2147 
Q 200 2909 397 3456 
Q 766 4475 1731 4475 
z
M 1725 391 
Q 2163 391 2422 778 
Q 2681 1166 2681 2222 
Q 2681 2984 2493 3476 
Q 2306 3969 1766 3969 
Q 1269 3969 1039 3501 
Q 809 3034 809 2125 
Q 809 1441 956 1025 
Q 1181 391 1725 391 
z
" id="Helvetica-30" transform="scale(0.015625)"/>
       </defs>
       <use xlink:href="#Helvetica-30"/>
      </g>
     </g>
    </g>
    <g id="xtick_2">
     <g id="line2d_3">
      <path clip-path="url(#pf4bdf32bd5)" d="M 216.529012 141.64 
L 216.529012 21.6 
" style="fill:none;stroke:#cccccc;stroke-linecap:round;stroke-width:0.8;"/>
     </g>
     <g id="text_2">
      <!-- 10 -->
      <g style="fill:#262626;" transform="translate(205.407137 162.986875)scale(0.2 -0.2)">
       <defs>
        <path d="M 613 3169 
L 613 3600 
Q 1222 3659 1462 3798 
Q 1703 3938 1822 4456 
L 2266 4456 
L 2266 0 
L 1666 0 
L 1666 3169 
L 613 3169 
z
" id="Helvetica-31" transform="scale(0.015625)"/>
       </defs>
       <use xlink:href="#Helvetica-31"/>
       <use x="55.615234" xlink:href="#Helvetica-30"/>
      </g>
     </g>
    </g>
    <g id="text_3">
     <!-- Position -->
     <g style="fill:#262626;" transform="translate(151.09625 189.089219)scale(0.25 -0.25)">
      <defs>
       <path d="M 547 4591 
L 2613 4591 
Q 3225 4591 3600 4245 
Q 3975 3900 3975 3275 
Q 3975 2738 3640 2339 
Q 3306 1941 2613 1941 
L 1169 1941 
L 1169 0 
L 547 0 
L 547 4591 
z
M 3347 3272 
Q 3347 3778 2972 3959 
Q 2766 4056 2406 4056 
L 1169 4056 
L 1169 2466 
L 2406 2466 
Q 2825 2466 3086 2644 
Q 3347 2822 3347 3272 
z
" id="Helvetica-50" transform="scale(0.015625)"/>
       <path d="M 1741 363 
Q 2300 363 2508 786 
Q 2716 1209 2716 1728 
Q 2716 2197 2566 2491 
Q 2328 2953 1747 2953 
Q 1231 2953 997 2559 
Q 763 2166 763 1609 
Q 763 1075 997 719 
Q 1231 363 1741 363 
z
M 1763 3444 
Q 2409 3444 2856 3012 
Q 3303 2581 3303 1744 
Q 3303 934 2909 406 
Q 2516 -122 1688 -122 
Q 997 -122 590 345 
Q 184 813 184 1600 
Q 184 2444 612 2944 
Q 1041 3444 1763 3444 
z
M 1744 3428 
L 1744 3428 
z
" id="Helvetica-6f" transform="scale(0.015625)"/>
       <path d="M 747 1050 
Q 772 769 888 619 
Q 1100 347 1625 347 
Q 1938 347 2175 483 
Q 2413 619 2413 903 
Q 2413 1119 2222 1231 
Q 2100 1300 1741 1391 
L 1294 1503 
Q 866 1609 663 1741 
Q 300 1969 300 2372 
Q 300 2847 642 3140 
Q 984 3434 1563 3434 
Q 2319 3434 2653 2991 
Q 2863 2709 2856 2384 
L 2325 2384 
Q 2309 2575 2191 2731 
Q 1997 2953 1519 2953 
Q 1200 2953 1036 2831 
Q 872 2709 872 2509 
Q 872 2291 1088 2159 
Q 1213 2081 1456 2022 
L 1828 1931 
Q 2434 1784 2641 1647 
Q 2969 1431 2969 969 
Q 2969 522 2630 197 
Q 2291 -128 1597 -128 
Q 850 -128 539 211 
Q 228 550 206 1050 
L 747 1050 
z
M 1578 3428 
L 1578 3428 
z
" id="Helvetica-73" transform="scale(0.015625)"/>
       <path d="M 413 3331 
L 984 3331 
L 984 0 
L 413 0 
L 413 3331 
z
M 413 4591 
L 984 4591 
L 984 3953 
L 413 3953 
L 413 4591 
z
" id="Helvetica-69" transform="scale(0.015625)"/>
       <path d="M 525 4281 
L 1094 4281 
L 1094 3347 
L 1628 3347 
L 1628 2888 
L 1094 2888 
L 1094 703 
Q 1094 528 1213 469 
Q 1278 434 1431 434 
Q 1472 434 1519 436 
Q 1566 438 1628 444 
L 1628 0 
Q 1531 -28 1426 -40 
Q 1322 -53 1200 -53 
Q 806 -53 665 148 
Q 525 350 525 672 
L 525 2888 
L 72 2888 
L 72 3347 
L 525 3347 
L 525 4281 
z
" id="Helvetica-74" transform="scale(0.015625)"/>
       <path d="M 413 3347 
L 947 3347 
L 947 2872 
Q 1184 3166 1450 3294 
Q 1716 3422 2041 3422 
Q 2753 3422 3003 2925 
Q 3141 2653 3141 2147 
L 3141 0 
L 2569 0 
L 2569 2109 
Q 2569 2416 2478 2603 
Q 2328 2916 1934 2916 
Q 1734 2916 1606 2875 
Q 1375 2806 1200 2600 
Q 1059 2434 1017 2257 
Q 975 2081 975 1753 
L 975 0 
L 413 0 
L 413 3347 
z
M 1734 3428 
L 1734 3428 
z
" id="Helvetica-6e" transform="scale(0.015625)"/>
      </defs>
      <use xlink:href="#Helvetica-50"/>
      <use x="66.699219" xlink:href="#Helvetica-6f"/>
      <use x="122.314453" xlink:href="#Helvetica-73"/>
      <use x="172.314453" xlink:href="#Helvetica-69"/>
      <use x="194.53125" xlink:href="#Helvetica-74"/>
      <use x="222.314453" xlink:href="#Helvetica-69"/>
      <use x="244.53125" xlink:href="#Helvetica-6f"/>
      <use x="300.146484" xlink:href="#Helvetica-6e"/>
     </g>
    </g>
   </g>
   <g id="matplotlib.axis_2">
    <g id="ytick_1">
     <g id="line2d_4">
      <path clip-path="url(#pf4bdf32bd5)" d="M 106.73 129.283964 
L 284.4 129.283964 
" style="fill:none;stroke:#cccccc;stroke-linecap:round;stroke-width:0.8;"/>
     </g>
     <g id="text_4">
      <!-- 0.05 -->
      <g style="fill:#262626;" transform="translate(49.126875 136.457402)scale(0.2 -0.2)">
       <defs>
        <path d="M 3547 1894 
L 3547 1369 
L 288 1369 
L 288 1894 
L 3547 1894 
z
" id="Helvetica-2212" transform="scale(0.015625)"/>
        <path d="M 547 681 
L 1200 681 
L 1200 0 
L 547 0 
L 547 681 
z
" id="Helvetica-2e" transform="scale(0.015625)"/>
        <path d="M 791 1141 
Q 847 659 1238 475 
Q 1438 381 1700 381 
Q 2200 381 2440 700 
Q 2681 1019 2681 1406 
Q 2681 1875 2395 2131 
Q 2109 2388 1709 2388 
Q 1419 2388 1211 2275 
Q 1003 2163 856 1963 
L 369 1991 
L 709 4400 
L 3034 4400 
L 3034 3856 
L 1131 3856 
L 941 2613 
Q 1097 2731 1238 2791 
Q 1488 2894 1816 2894 
Q 2431 2894 2859 2497 
Q 3288 2100 3288 1491 
Q 3288 856 2895 371 
Q 2503 -113 1644 -113 
Q 1097 -113 676 195 
Q 256 503 206 1141 
L 791 1141 
z
" id="Helvetica-35" transform="scale(0.015625)"/>
       </defs>
       <use xlink:href="#Helvetica-2212"/>
       <use x="58.398438" xlink:href="#Helvetica-30"/>
       <use x="114.013672" xlink:href="#Helvetica-2e"/>
       <use x="141.796875" xlink:href="#Helvetica-30"/>
       <use x="197.412109" xlink:href="#Helvetica-35"/>
      </g>
     </g>
    </g>
    <g id="ytick_2">
     <g id="line2d_5">
      <path clip-path="url(#pf4bdf32bd5)" d="M 106.73 80.836939 
L 284.4 80.836939 
" style="fill:none;stroke:#cccccc;stroke-linecap:round;stroke-width:0.8;"/>
     </g>
     <g id="text_5">
      <!-- 0.00 -->
      <g style="fill:#262626;" transform="translate(60.808125 88.010376)scale(0.2 -0.2)">
       <use xlink:href="#Helvetica-30"/>
       <use x="55.615234" xlink:href="#Helvetica-2e"/>
       <use x="83.398438" xlink:href="#Helvetica-30"/>
       <use x="139.013672" xlink:href="#Helvetica-30"/>
      </g>
     </g>
    </g>
    <g id="ytick_3">
     <g id="line2d_6">
      <path clip-path="url(#pf4bdf32bd5)" d="M 106.73 32.389913 
L 284.4 32.389913 
" style="fill:none;stroke:#cccccc;stroke-linecap:round;stroke-width:0.8;"/>
     </g>
     <g id="text_6">
      <!-- 0.05 -->
      <g style="fill:#262626;" transform="translate(60.808125 39.56335)scale(0.2 -0.2)">
       <use xlink:href="#Helvetica-30"/>
       <use x="55.615234" xlink:href="#Helvetica-2e"/>
       <use x="83.398438" xlink:href="#Helvetica-30"/>
       <use x="139.013672" xlink:href="#Helvetica-35"/>
      </g>
     </g>
    </g>
    <g id="text_7">
     <!-- Weight -->
     <g style="fill:#262626;" transform="translate(39.595625 120.522344)rotate(-90)scale(0.25 -0.25)">
      <defs>
       <path d="M 791 4591 
L 1656 856 
L 2694 4591 
L 3369 4591 
L 4406 856 
L 5272 4591 
L 5953 4591 
L 4747 0 
L 4094 0 
L 3034 3806 
L 1969 0 
L 1316 0 
L 116 4591 
L 791 4591 
z
" id="Helvetica-57" transform="scale(0.015625)"/>
       <path d="M 1806 3422 
Q 2163 3422 2497 3255 
Q 2831 3088 3006 2822 
Q 3175 2569 3231 2231 
Q 3281 2000 3281 1494 
L 828 1494 
Q 844 984 1069 676 
Q 1294 369 1766 369 
Q 2206 369 2469 659 
Q 2619 828 2681 1050 
L 3234 1050 
Q 3213 866 3089 639 
Q 2966 413 2813 269 
Q 2556 19 2178 -69 
Q 1975 -119 1719 -119 
Q 1094 -119 659 336 
Q 225 791 225 1609 
Q 225 2416 662 2919 
Q 1100 3422 1806 3422 
z
M 2703 1941 
Q 2669 2306 2544 2525 
Q 2313 2931 1772 2931 
Q 1384 2931 1121 2651 
Q 859 2372 844 1941 
L 2703 1941 
z
M 1753 3428 
L 1753 3428 
z
" id="Helvetica-65" transform="scale(0.015625)"/>
       <path d="M 1594 3406 
Q 1988 3406 2281 3213 
Q 2441 3103 2606 2894 
L 2606 3316 
L 3125 3316 
L 3125 272 
Q 3125 -366 2938 -734 
Q 2588 -1416 1616 -1416 
Q 1075 -1416 706 -1173 
Q 338 -931 294 -416 
L 866 -416 
Q 906 -641 1028 -763 
Q 1219 -950 1628 -950 
Q 2275 -950 2475 -494 
Q 2594 -225 2584 466 
Q 2416 209 2178 84 
Q 1941 -41 1550 -41 
Q 1006 -41 598 345 
Q 191 731 191 1622 
Q 191 2463 602 2934 
Q 1013 3406 1594 3406 
z
M 2606 1688 
Q 2606 2309 2350 2609 
Q 2094 2909 1697 2909 
Q 1103 2909 884 2353 
Q 769 2056 769 1575 
Q 769 1009 998 714 
Q 1228 419 1616 419 
Q 2222 419 2469 966 
Q 2606 1275 2606 1688 
z
M 1659 3428 
L 1659 3428 
z
" id="Helvetica-67" transform="scale(0.015625)"/>
       <path d="M 413 4606 
L 975 4606 
L 975 2894 
Q 1175 3147 1334 3250 
Q 1606 3428 2013 3428 
Q 2741 3428 3000 2919 
Q 3141 2641 3141 2147 
L 3141 0 
L 2563 0 
L 2563 2109 
Q 2563 2478 2469 2650 
Q 2316 2925 1894 2925 
Q 1544 2925 1259 2684 
Q 975 2444 975 1775 
L 975 0 
L 413 0 
L 413 4606 
z
" id="Helvetica-68" transform="scale(0.015625)"/>
      </defs>
      <use xlink:href="#Helvetica-57"/>
      <use x="94.384766" xlink:href="#Helvetica-65"/>
      <use x="150" xlink:href="#Helvetica-69"/>
      <use x="172.216797" xlink:href="#Helvetica-67"/>
      <use x="227.832031" xlink:href="#Helvetica-68"/>
      <use x="283.447266" xlink:href="#Helvetica-74"/>
     </g>
    </g>
   </g>
   <g id="patch_71">
    <path d="M 106.73 141.64 
L 106.73 21.6 
" style="fill:none;stroke:#000000;stroke-linecap:square;stroke-linejoin:miter;"/>
   </g>
  </g>
 </g>
 <defs>
  <clipPath id="pf4bdf32bd5">
   <rect height="120.04" width="177.67" x="106.73" y="21.6"/>
  </clipPath>
 </defs>
</svg>
