<?xml version="1.0" encoding="utf-8" standalone="no"?>
<!DOCTYPE svg PUBLIC "-//W3C//DTD SVG 1.1//EN"
  "http://www.w3.org/Graphics/SVG/1.1/DTD/svg11.dtd">
<svg height="288pt" version="1.1" viewBox="0 0 432 288" width="432pt" xmlns="http://www.w3.org/2000/svg" xmlns:xlink="http://www.w3.org/1999/xlink">
 <metadata>
  <rdf:RDF xmlns:cc="http://creativecommons.org/ns#" xmlns:dc="http://purl.org/dc/elements/1.1/" xmlns:rdf="http://www.w3.org/1999/02/22-rdf-syntax-ns#">
   <cc:Work>
    <dc:type rdf:resource="http://purl.org/dc/dcmitype/StillImage"/>
    <dc:date>2021-12-20T14:11:11.047302</dc:date>
    <dc:format>image/svg+xml</dc:format>
    <dc:creator>
     <cc:Agent>
      <dc:title>Matplotlib v3.4.2, https://matplotlib.org/</dc:title>
     </cc:Agent>
    </dc:creator>
   </cc:Work>
  </rdf:RDF>
 </metadata>
 <defs>
  <style type="text/css">*{stroke-linecap:butt;stroke-linejoin:round;}</style>
 </defs>
 <g id="figure_1">
  <g id="patch_1">
   <path d="M 0 288 
L 432 288 
L 432 0 
L 0 0 
z
" style="fill:#ffffff;"/>
  </g>
  <g id="axes_1">
   <g id="patch_2">
    <path d="M 96.76 211.94 
L 410.4 211.94 
L 410.4 21.6 
L 96.76 21.6 
z
" style="fill:#ffffff;"/>
   </g>
   <g id="matplotlib.axis_1">
    <g id="xtick_1">
     <g id="line2d_1">
      <path clip-path="url(#p9e81418603)" d="M 111.016364 211.94 
L 111.016364 21.6 
" style="fill:none;stroke:#cccccc;stroke-linecap:round;stroke-width:0.8;"/>
     </g>
     <g id="text_1">
      <!-- 0 -->
      <g style="fill:#262626;" transform="translate(105.455426 239.786875)scale(0.2 -0.2)">
       <defs>
        <path d="M 1731 4475 
Q 2600 4475 2988 3759 
Q 3288 3206 3288 2244 
Q 3288 1331 3016 734 
Q 2622 -122 1728 -122 
Q 922 -122 528 578 
Q 200 1163 200 2147 
Q 200 2909 397 3456 
Q 766 4475 1731 4475 
z
M 1725 391 
Q 2163 391 2422 778 
Q 2681 1166 2681 2222 
Q 2681 2984 2493 3476 
Q 2306 3969 1766 3969 
Q 1269 3969 1039 3501 
Q 809 3034 809 2125 
Q 809 1441 956 1025 
Q 1181 391 1725 391 
z
" id="Helvetica-30" transform="scale(0.015625)"/>
       </defs>
       <use xlink:href="#Helvetica-30"/>
      </g>
     </g>
    </g>
    <g id="xtick_2">
     <g id="line2d_2">
      <path clip-path="url(#p9e81418603)" d="M 289.220909 211.94 
L 289.220909 21.6 
" style="fill:none;stroke:#cccccc;stroke-linecap:round;stroke-width:0.8;"/>
     </g>
     <g id="text_2">
      <!-- 10 -->
      <g style="fill:#262626;" transform="translate(278.099034 239.786875)scale(0.2 -0.2)">
       <defs>
        <path d="M 613 3169 
L 613 3600 
Q 1222 3659 1462 3798 
Q 1703 3938 1822 4456 
L 2266 4456 
L 2266 0 
L 1666 0 
L 1666 3169 
L 613 3169 
z
" id="Helvetica-31" transform="scale(0.015625)"/>
       </defs>
       <use xlink:href="#Helvetica-31"/>
       <use x="55.615234" xlink:href="#Helvetica-30"/>
      </g>
     </g>
    </g>
    <g id="text_3">
     <!-- Position -->
     <g style="fill:#262626;" transform="translate(218.005 262.3025)scale(0.2 -0.2)">
      <defs>
       <path d="M 547 4591 
L 2613 4591 
Q 3225 4591 3600 4245 
Q 3975 3900 3975 3275 
Q 3975 2738 3640 2339 
Q 3306 1941 2613 1941 
L 1169 1941 
L 1169 0 
L 547 0 
L 547 4591 
z
M 3347 3272 
Q 3347 3778 2972 3959 
Q 2766 4056 2406 4056 
L 1169 4056 
L 1169 2466 
L 2406 2466 
Q 2825 2466 3086 2644 
Q 3347 2822 3347 3272 
z
" id="Helvetica-50" transform="scale(0.015625)"/>
       <path d="M 1741 363 
Q 2300 363 2508 786 
Q 2716 1209 2716 1728 
Q 2716 2197 2566 2491 
Q 2328 2953 1747 2953 
Q 1231 2953 997 2559 
Q 763 2166 763 1609 
Q 763 1075 997 719 
Q 1231 363 1741 363 
z
M 1763 3444 
Q 2409 3444 2856 3012 
Q 3303 2581 3303 1744 
Q 3303 934 2909 406 
Q 2516 -122 1688 -122 
Q 997 -122 590 345 
Q 184 813 184 1600 
Q 184 2444 612 2944 
Q 1041 3444 1763 3444 
z
M 1744 3428 
L 1744 3428 
z
" id="Helvetica-6f" transform="scale(0.015625)"/>
       <path d="M 747 1050 
Q 772 769 888 619 
Q 1100 347 1625 347 
Q 1938 347 2175 483 
Q 2413 619 2413 903 
Q 2413 1119 2222 1231 
Q 2100 1300 1741 1391 
L 1294 1503 
Q 866 1609 663 1741 
Q 300 1969 300 2372 
Q 300 2847 642 3140 
Q 984 3434 1563 3434 
Q 2319 3434 2653 2991 
Q 2863 2709 2856 2384 
L 2325 2384 
Q 2309 2575 2191 2731 
Q 1997 2953 1519 2953 
Q 1200 2953 1036 2831 
Q 872 2709 872 2509 
Q 872 2291 1088 2159 
Q 1213 2081 1456 2022 
L 1828 1931 
Q 2434 1784 2641 1647 
Q 2969 1431 2969 969 
Q 2969 522 2630 197 
Q 2291 -128 1597 -128 
Q 850 -128 539 211 
Q 228 550 206 1050 
L 747 1050 
z
M 1578 3428 
L 1578 3428 
z
" id="Helvetica-73" transform="scale(0.015625)"/>
       <path d="M 413 3331 
L 984 3331 
L 984 0 
L 413 0 
L 413 3331 
z
M 413 4591 
L 984 4591 
L 984 3953 
L 413 3953 
L 413 4591 
z
" id="Helvetica-69" transform="scale(0.015625)"/>
       <path d="M 525 4281 
L 1094 4281 
L 1094 3347 
L 1628 3347 
L 1628 2888 
L 1094 2888 
L 1094 703 
Q 1094 528 1213 469 
Q 1278 434 1431 434 
Q 1472 434 1519 436 
Q 1566 438 1628 444 
L 1628 0 
Q 1531 -28 1426 -40 
Q 1322 -53 1200 -53 
Q 806 -53 665 148 
Q 525 350 525 672 
L 525 2888 
L 72 2888 
L 72 3347 
L 525 3347 
L 525 4281 
z
" id="Helvetica-74" transform="scale(0.015625)"/>
       <path d="M 413 3347 
L 947 3347 
L 947 2872 
Q 1184 3166 1450 3294 
Q 1716 3422 2041 3422 
Q 2753 3422 3003 2925 
Q 3141 2653 3141 2147 
L 3141 0 
L 2569 0 
L 2569 2109 
Q 2569 2416 2478 2603 
Q 2328 2916 1934 2916 
Q 1734 2916 1606 2875 
Q 1375 2806 1200 2600 
Q 1059 2434 1017 2257 
Q 975 2081 975 1753 
L 975 0 
L 413 0 
L 413 3347 
z
M 1734 3428 
L 1734 3428 
z
" id="Helvetica-6e" transform="scale(0.015625)"/>
      </defs>
      <use xlink:href="#Helvetica-50"/>
      <use x="66.699219" xlink:href="#Helvetica-6f"/>
      <use x="122.314453" xlink:href="#Helvetica-73"/>
      <use x="172.314453" xlink:href="#Helvetica-69"/>
      <use x="194.53125" xlink:href="#Helvetica-74"/>
      <use x="222.314453" xlink:href="#Helvetica-69"/>
      <use x="244.53125" xlink:href="#Helvetica-6f"/>
      <use x="300.146484" xlink:href="#Helvetica-6e"/>
     </g>
    </g>
   </g>
   <g id="matplotlib.axis_2">
    <g id="ytick_1">
     <g id="line2d_3">
      <path clip-path="url(#p9e81418603)" d="M 96.76 205.039382 
L 410.4 205.039382 
" style="fill:none;stroke:#cccccc;stroke-linecap:round;stroke-width:0.8;"/>
     </g>
     <g id="text_4">
      <!-- 0.0 -->
      <g style="fill:#262626;" transform="translate(55.46 212.212819)scale(0.2 -0.2)">
       <defs>
        <path d="M 547 681 
L 1200 681 
L 1200 0 
L 547 0 
L 547 681 
z
" id="Helvetica-2e" transform="scale(0.015625)"/>
       </defs>
       <use xlink:href="#Helvetica-30"/>
       <use x="55.615234" xlink:href="#Helvetica-2e"/>
       <use x="83.398438" xlink:href="#Helvetica-30"/>
      </g>
     </g>
    </g>
    <g id="ytick_2">
     <g id="line2d_4">
      <path clip-path="url(#p9e81418603)" d="M 96.76 125.716416 
L 410.4 125.716416 
" style="fill:none;stroke:#cccccc;stroke-linecap:round;stroke-width:0.8;"/>
     </g>
     <g id="text_5">
      <!-- 0.1 -->
      <g style="fill:#262626;" transform="translate(55.46 132.889854)scale(0.2 -0.2)">
       <use xlink:href="#Helvetica-30"/>
       <use x="55.615234" xlink:href="#Helvetica-2e"/>
       <use x="83.398438" xlink:href="#Helvetica-31"/>
      </g>
     </g>
    </g>
    <g id="ytick_3">
     <g id="line2d_5">
      <path clip-path="url(#p9e81418603)" d="M 96.76 46.393451 
L 410.4 46.393451 
" style="fill:none;stroke:#cccccc;stroke-linecap:round;stroke-width:0.8;"/>
     </g>
     <g id="text_6">
      <!-- 0.2 -->
      <g style="fill:#262626;" transform="translate(55.46 53.566889)scale(0.2 -0.2)">
       <defs>
        <path d="M 200 0 
Q 231 578 439 1006 
Q 647 1434 1250 1784 
L 1850 2131 
Q 2253 2366 2416 2531 
Q 2672 2791 2672 3125 
Q 2672 3516 2437 3745 
Q 2203 3975 1813 3975 
Q 1234 3975 1013 3538 
Q 894 3303 881 2888 
L 309 2888 
Q 319 3472 525 3841 
Q 891 4491 1816 4491 
Q 2584 4491 2939 4075 
Q 3294 3659 3294 3150 
Q 3294 2613 2916 2231 
Q 2697 2009 2131 1694 
L 1703 1456 
Q 1397 1288 1222 1134 
Q 909 863 828 531 
L 3272 531 
L 3272 0 
L 200 0 
z
" id="Helvetica-32" transform="scale(0.015625)"/>
       </defs>
       <use xlink:href="#Helvetica-30"/>
       <use x="55.615234" xlink:href="#Helvetica-2e"/>
       <use x="83.398438" xlink:href="#Helvetica-32"/>
      </g>
     </g>
    </g>
    <g id="text_7">
     <!-- Std Dev of 1bp Mismatch -->
     <g style="fill:#262626;" transform="translate(47.29125 228.477812)rotate(-90)scale(0.2 -0.2)">
      <defs>
       <path d="M 894 1481 
Q 916 1091 1078 847 
Q 1388 391 2169 391 
Q 2519 391 2806 491 
Q 3363 684 3363 1184 
Q 3363 1559 3128 1719 
Q 2891 1875 2384 1991 
L 1763 2131 
Q 1153 2269 900 2434 
Q 463 2722 463 3294 
Q 463 3913 891 4309 
Q 1319 4706 2103 4706 
Q 2825 4706 3329 4357 
Q 3834 4009 3834 3244 
L 3250 3244 
Q 3203 3613 3050 3809 
Q 2766 4169 2084 4169 
Q 1534 4169 1293 3937 
Q 1053 3706 1053 3400 
Q 1053 3063 1334 2906 
Q 1519 2806 2169 2656 
L 2813 2509 
Q 3278 2403 3531 2219 
Q 3969 1897 3969 1284 
Q 3969 522 3414 194 
Q 2859 -134 2125 -134 
Q 1269 -134 784 303 
Q 300 738 309 1481 
L 894 1481 
z
M 2150 4716 
L 2150 4716 
z
" id="Helvetica-53" transform="scale(0.015625)"/>
       <path d="M 769 1634 
Q 769 1097 997 734 
Q 1225 372 1728 372 
Q 2119 372 2370 708 
Q 2622 1044 2622 1672 
Q 2622 2306 2362 2611 
Q 2103 2916 1722 2916 
Q 1297 2916 1033 2591 
Q 769 2266 769 1634 
z
M 1616 3406 
Q 2000 3406 2259 3244 
Q 2409 3150 2600 2916 
L 2600 4606 
L 3141 4606 
L 3141 0 
L 2634 0 
L 2634 466 
Q 2438 156 2169 18 
Q 1900 -119 1553 -119 
Q 994 -119 584 351 
Q 175 822 175 1603 
Q 175 2334 548 2870 
Q 922 3406 1616 3406 
z
" id="Helvetica-64" transform="scale(0.015625)"/>
       <path id="Helvetica-20" transform="scale(0.015625)"/>
       <path d="M 2250 531 
Q 2566 531 2769 597 
Q 3131 719 3363 1066 
Q 3547 1344 3628 1778 
Q 3675 2038 3675 2259 
Q 3675 3113 3336 3584 
Q 2997 4056 2244 4056 
L 1141 4056 
L 1141 531 
L 2250 531 
z
M 516 4591 
L 2375 4591 
Q 3322 4591 3844 3919 
Q 4309 3313 4309 2366 
Q 4309 1634 4034 1044 
Q 3550 0 2369 0 
L 516 0 
L 516 4591 
z
" id="Helvetica-44" transform="scale(0.015625)"/>
       <path d="M 1806 3422 
Q 2163 3422 2497 3255 
Q 2831 3088 3006 2822 
Q 3175 2569 3231 2231 
Q 3281 2000 3281 1494 
L 828 1494 
Q 844 984 1069 676 
Q 1294 369 1766 369 
Q 2206 369 2469 659 
Q 2619 828 2681 1050 
L 3234 1050 
Q 3213 866 3089 639 
Q 2966 413 2813 269 
Q 2556 19 2178 -69 
Q 1975 -119 1719 -119 
Q 1094 -119 659 336 
Q 225 791 225 1609 
Q 225 2416 662 2919 
Q 1100 3422 1806 3422 
z
M 2703 1941 
Q 2669 2306 2544 2525 
Q 2313 2931 1772 2931 
Q 1384 2931 1121 2651 
Q 859 2372 844 1941 
L 2703 1941 
z
M 1753 3428 
L 1753 3428 
z
" id="Helvetica-65" transform="scale(0.015625)"/>
       <path d="M 688 3347 
L 1581 622 
L 2516 3347 
L 3131 3347 
L 1869 0 
L 1269 0 
L 34 3347 
L 688 3347 
z
" id="Helvetica-76" transform="scale(0.015625)"/>
       <path d="M 553 3856 
Q 566 4206 675 4369 
Q 872 4656 1434 4656 
Q 1488 4656 1544 4653 
Q 1600 4650 1672 4644 
L 1672 4131 
Q 1584 4138 1545 4139 
Q 1506 4141 1472 4141 
Q 1216 4141 1166 4008 
Q 1116 3875 1116 3331 
L 1672 3331 
L 1672 2888 
L 1109 2888 
L 1109 0 
L 553 0 
L 553 2888 
L 88 2888 
L 88 3331 
L 553 3331 
L 553 3856 
z
" id="Helvetica-66" transform="scale(0.015625)"/>
       <path d="M 369 4606 
L 916 4606 
L 916 2941 
Q 1100 3181 1356 3307 
Q 1613 3434 1913 3434 
Q 2538 3434 2927 3004 
Q 3316 2575 3316 1738 
Q 3316 944 2931 419 
Q 2547 -106 1866 -106 
Q 1484 -106 1222 78 
Q 1066 188 888 428 
L 888 0 
L 369 0 
L 369 4606 
z
M 1831 391 
Q 2288 391 2514 753 
Q 2741 1116 2741 1709 
Q 2741 2238 2514 2584 
Q 2288 2931 1847 2931 
Q 1463 2931 1173 2647 
Q 884 2363 884 1709 
Q 884 1238 1003 944 
Q 1225 391 1831 391 
z
" id="Helvetica-62" transform="scale(0.015625)"/>
       <path d="M 1825 378 
Q 2219 378 2480 708 
Q 2741 1038 2741 1694 
Q 2741 2094 2625 2381 
Q 2406 2934 1825 2934 
Q 1241 2934 1025 2350 
Q 909 2038 909 1556 
Q 909 1169 1025 897 
Q 1244 378 1825 378 
z
M 369 3331 
L 916 3331 
L 916 2888 
Q 1084 3116 1284 3241 
Q 1569 3428 1953 3428 
Q 2522 3428 2919 2992 
Q 3316 2556 3316 1747 
Q 3316 653 2744 184 
Q 2381 -113 1900 -113 
Q 1522 -113 1266 53 
Q 1116 147 931 375 
L 931 -1334 
L 369 -1334 
L 369 3331 
z
" id="Helvetica-70" transform="scale(0.015625)"/>
       <path d="M 472 4591 
L 1363 4591 
L 2681 709 
L 3991 4591 
L 4872 4591 
L 4872 0 
L 4281 0 
L 4281 2709 
Q 4281 2850 4287 3175 
Q 4294 3500 4294 3872 
L 2984 0 
L 2369 0 
L 1050 3872 
L 1050 3731 
Q 1050 3563 1058 3217 
Q 1066 2872 1066 2709 
L 1066 0 
L 472 0 
L 472 4591 
z
" id="Helvetica-4d" transform="scale(0.015625)"/>
       <path d="M 413 3347 
L 969 3347 
L 969 2872 
Q 1169 3119 1331 3231 
Q 1609 3422 1963 3422 
Q 2363 3422 2606 3225 
Q 2744 3113 2856 2894 
Q 3044 3163 3297 3292 
Q 3550 3422 3866 3422 
Q 4541 3422 4784 2934 
Q 4916 2672 4916 2228 
L 4916 0 
L 4331 0 
L 4331 2325 
Q 4331 2659 4164 2784 
Q 3997 2909 3756 2909 
Q 3425 2909 3186 2687 
Q 2947 2466 2947 1947 
L 2947 0 
L 2375 0 
L 2375 2184 
Q 2375 2525 2294 2681 
Q 2166 2916 1816 2916 
Q 1497 2916 1236 2669 
Q 975 2422 975 1775 
L 975 0 
L 413 0 
L 413 3347 
z
" id="Helvetica-6d" transform="scale(0.015625)"/>
       <path d="M 844 891 
Q 844 647 1022 506 
Q 1200 366 1444 366 
Q 1741 366 2019 503 
Q 2488 731 2488 1250 
L 2488 1703 
Q 2384 1638 2221 1594 
Q 2059 1550 1903 1531 
L 1563 1488 
Q 1256 1447 1103 1359 
Q 844 1213 844 891 
z
M 2206 2028 
Q 2400 2053 2466 2191 
Q 2503 2266 2503 2406 
Q 2503 2694 2298 2823 
Q 2094 2953 1713 2953 
Q 1272 2953 1088 2716 
Q 984 2584 953 2325 
L 428 2325 
Q 444 2944 830 3186 
Q 1216 3428 1725 3428 
Q 2316 3428 2684 3203 
Q 3050 2978 3050 2503 
L 3050 575 
Q 3050 488 3086 434 
Q 3122 381 3238 381 
Q 3275 381 3322 386 
Q 3369 391 3422 400 
L 3422 -16 
Q 3291 -53 3222 -62 
Q 3153 -72 3034 -72 
Q 2744 -72 2613 134 
Q 2544 244 2516 444 
Q 2344 219 2022 53 
Q 1700 -113 1313 -113 
Q 847 -113 551 170 
Q 256 453 256 878 
Q 256 1344 547 1600 
Q 838 1856 1309 1916 
L 2206 2028 
z
M 1741 3428 
L 1741 3428 
z
" id="Helvetica-61" transform="scale(0.015625)"/>
       <path d="M 1703 3444 
Q 2269 3444 2623 3169 
Q 2978 2894 3050 2222 
L 2503 2222 
Q 2453 2531 2275 2736 
Q 2097 2941 1703 2941 
Q 1166 2941 934 2416 
Q 784 2075 784 1575 
Q 784 1072 996 728 
Q 1209 384 1666 384 
Q 2016 384 2220 598 
Q 2425 813 2503 1184 
L 3050 1184 
Q 2956 519 2581 211 
Q 2206 -97 1622 -97 
Q 966 -97 575 383 
Q 184 863 184 1581 
Q 184 2463 612 2953 
Q 1041 3444 1703 3444 
z
M 1616 3428 
L 1616 3428 
z
" id="Helvetica-63" transform="scale(0.015625)"/>
       <path d="M 413 4606 
L 975 4606 
L 975 2894 
Q 1175 3147 1334 3250 
Q 1606 3428 2013 3428 
Q 2741 3428 3000 2919 
Q 3141 2641 3141 2147 
L 3141 0 
L 2563 0 
L 2563 2109 
Q 2563 2478 2469 2650 
Q 2316 2925 1894 2925 
Q 1544 2925 1259 2684 
Q 975 2444 975 1775 
L 975 0 
L 413 0 
L 413 4606 
z
" id="Helvetica-68" transform="scale(0.015625)"/>
      </defs>
      <use xlink:href="#Helvetica-53"/>
      <use x="66.699219" xlink:href="#Helvetica-74"/>
      <use x="94.482422" xlink:href="#Helvetica-64"/>
      <use x="150.097656" xlink:href="#Helvetica-20"/>
      <use x="177.880859" xlink:href="#Helvetica-44"/>
      <use x="250.097656" xlink:href="#Helvetica-65"/>
      <use x="305.712891" xlink:href="#Helvetica-76"/>
      <use x="355.712891" xlink:href="#Helvetica-20"/>
      <use x="383.496094" xlink:href="#Helvetica-6f"/>
      <use x="439.111328" xlink:href="#Helvetica-66"/>
      <use x="466.894531" xlink:href="#Helvetica-20"/>
      <use x="494.677734" xlink:href="#Helvetica-31"/>
      <use x="550.292969" xlink:href="#Helvetica-62"/>
      <use x="605.908203" xlink:href="#Helvetica-70"/>
      <use x="661.523438" xlink:href="#Helvetica-20"/>
      <use x="689.306641" xlink:href="#Helvetica-4d"/>
      <use x="772.607422" xlink:href="#Helvetica-69"/>
      <use x="794.824219" xlink:href="#Helvetica-73"/>
      <use x="844.824219" xlink:href="#Helvetica-6d"/>
      <use x="928.125" xlink:href="#Helvetica-61"/>
      <use x="983.740234" xlink:href="#Helvetica-74"/>
      <use x="1011.523438" xlink:href="#Helvetica-63"/>
      <use x="1061.523438" xlink:href="#Helvetica-68"/>
     </g>
    </g>
   </g>
   <g id="PolyCollection_1">
    <defs>
     <path d="M 111.016364 -170.296667 
L 111.016364 -143.779483 
L 128.836818 -176.59457 
L 146.657273 -172.545401 
L 164.477727 -182.124859 
L 182.298182 -194.255397 
L 200.118636 -178.42666 
L 217.939091 -159.847999 
L 235.759545 -182.734008 
L 253.58 -187.881961 
L 271.400455 -171.797386 
L 289.220909 -179.278452 
L 307.041364 -159.164872 
L 324.861818 -162.871672 
L 342.682273 -168.951491 
L 360.502727 -190.950793 
L 378.323182 -162.920168 
L 396.143636 -222.09969 
L 396.143636 -257.748182 
L 396.143636 -257.748182 
L 378.323182 -193.855866 
L 360.502727 -224.74839 
L 342.682273 -201.905802 
L 324.861818 -194.420421 
L 307.041364 -189.271729 
L 289.220909 -216.818065 
L 271.400455 -204.649261 
L 253.58 -221.451584 
L 235.759545 -221.382267 
L 217.939091 -190.137454 
L 200.118636 -215.194787 
L 182.298182 -232.343069 
L 164.477727 -218.386665 
L 146.657273 -208.585427 
L 128.836818 -212.159718 
L 111.016364 -170.296667 
z
" id="m9f9418726a" style="stroke:#ff8c00;stroke-opacity:0.2;"/>
    </defs>
    <g clip-path="url(#p9e81418603)">
     <use style="fill:#ff8c00;fill-opacity:0.2;stroke:#ff8c00;stroke-opacity:0.2;" x="0" xlink:href="#m9f9418726a" y="288"/>
    </g>
   </g>
   <g id="PolyCollection_2">
    <defs>
     <path d="M 111.016364 -88.074186 
L 111.016364 -84.711818 
L 128.836818 -86.407958 
L 146.657273 -85.817662 
L 164.477727 -84.750607 
L 182.298182 -86.951578 
L 200.118636 -88.108323 
L 217.939091 -91.415336 
L 235.759545 -87.956753 
L 253.58 -88.226041 
L 271.400455 -89.280183 
L 289.220909 -84.793653 
L 307.041364 -86.090146 
L 324.861818 -84.787787 
L 342.682273 -85.18349 
L 360.502727 -85.369045 
L 378.323182 -85.978649 
L 396.143636 -86.851714 
L 396.143636 -94.14002 
L 396.143636 -94.14002 
L 378.323182 -94.265745 
L 360.502727 -89.050057 
L 342.682273 -88.685923 
L 324.861818 -87.712516 
L 307.041364 -90.363126 
L 289.220909 -90.645137 
L 271.400455 -96.607051 
L 253.58 -102.582678 
L 235.759545 -101.057347 
L 217.939091 -105.766281 
L 200.118636 -104.663658 
L 182.298182 -94.490197 
L 164.477727 -92.54526 
L 146.657273 -94.79637 
L 128.836818 -94.418931 
L 111.016364 -88.074186 
z
" id="m95ee66b099" style="stroke:#808080;stroke-opacity:0.2;"/>
    </defs>
    <g clip-path="url(#p9e81418603)">
     <use style="fill:#808080;fill-opacity:0.2;stroke:#808080;stroke-opacity:0.2;" x="0" xlink:href="#m95ee66b099" y="288"/>
    </g>
   </g>
   <g id="PolyCollection_3">
    <defs>
     <path d="M 111.016364 -165.786294 
L 111.016364 -140.708892 
L 128.836818 -143.378905 
L 146.657273 -142.825271 
L 164.477727 -154.202528 
L 182.298182 -164.809087 
L 200.118636 -157.45063 
L 217.939091 -155.664555 
L 235.759545 -155.538226 
L 253.58 -153.809947 
L 271.400455 -153.36006 
L 289.220909 -161.214358 
L 307.041364 -155.55186 
L 324.861818 -137.410919 
L 342.682273 -144.247586 
L 360.502727 -148.487516 
L 378.323182 -144.525553 
L 396.143636 -155.407275 
L 396.143636 -194.107587 
L 396.143636 -194.107587 
L 378.323182 -177.491318 
L 360.502727 -178.55058 
L 342.682273 -173.235387 
L 324.861818 -164.2417 
L 307.041364 -187.532725 
L 289.220909 -198.160975 
L 271.400455 -186.420463 
L 253.58 -186.883513 
L 235.759545 -189.723479 
L 217.939091 -185.989968 
L 200.118636 -191.868992 
L 182.298182 -202.113733 
L 164.477727 -186.175534 
L 146.657273 -172.170924 
L 128.836818 -174.306696 
L 111.016364 -165.786294 
z
" id="m82fe0e8400" style="stroke:#f4a460;stroke-opacity:0.2;"/>
    </defs>
    <g clip-path="url(#p9e81418603)">
     <use style="fill:#f4a460;fill-opacity:0.2;stroke:#f4a460;stroke-opacity:0.2;" x="0" xlink:href="#m82fe0e8400" y="288"/>
    </g>
   </g>
   <g id="PolyCollection_4">
    <defs>
     <path d="M 111.016364 -110.005625 
L 111.016364 -96.494986 
L 128.836818 -99.416118 
L 146.657273 -102.738323 
L 164.477727 -102.734554 
L 182.298182 -105.941317 
L 200.118636 -122.858771 
L 217.939091 -116.035712 
L 235.759545 -111.045668 
L 253.58 -105.940598 
L 271.400455 -99.314703 
L 289.220909 -103.485047 
L 307.041364 -97.498976 
L 324.861818 -97.826763 
L 342.682273 -98.23273 
L 360.502727 -99.753434 
L 378.323182 -95.748029 
L 396.143636 -108.248849 
L 396.143636 -133.002733 
L 396.143636 -133.002733 
L 378.323182 -113.350549 
L 360.502727 -122.053316 
L 342.682273 -115.07275 
L 324.861818 -116.443219 
L 307.041364 -109.803138 
L 289.220909 -125.524908 
L 271.400455 -116.971381 
L 253.58 -130.594016 
L 235.759545 -137.277124 
L 217.939091 -147.73436 
L 200.118636 -157.667978 
L 182.298182 -135.235573 
L 164.477727 -129.245269 
L 146.657273 -128.476526 
L 128.836818 -121.113249 
L 111.016364 -110.005625 
z
" id="mb32ae99585" style="stroke:#556b2f;stroke-opacity:0.2;"/>
    </defs>
    <g clip-path="url(#p9e81418603)">
     <use style="fill:#556b2f;fill-opacity:0.2;stroke:#556b2f;stroke-opacity:0.2;" x="0" xlink:href="#mb32ae99585" y="288"/>
    </g>
   </g>
   <g id="line2d_6">
    <path clip-path="url(#p9e81418603)" d="M 111.016364 130.961925 
L 128.836818 93.622856 
L 146.657273 97.434586 
L 164.477727 87.744238 
L 182.298182 74.700767 
L 200.118636 91.189276 
L 217.939091 113.007274 
L 235.759545 85.941863 
L 253.58 83.333228 
L 271.400455 99.776676 
L 289.220909 89.951742 
L 307.041364 113.781699 
L 324.861818 109.353953 
L 342.682273 102.571354 
L 360.502727 80.150409 
L 378.323182 109.611983 
L 396.143636 48.076064 
" style="fill:none;stroke:#ff8c00;stroke-linecap:round;stroke-opacity:0.8;stroke-width:0.7;"/>
    <defs>
     <path d="M 0 -2.5 
L -2.5 2.5 
L 2.5 2.5 
z
" id="m28269ba831" style="stroke:#000000;stroke-linejoin:miter;stroke-opacity:0.8;"/>
    </defs>
    <g clip-path="url(#p9e81418603)">
     <use style="fill:#ff8c00;fill-opacity:0.8;stroke:#000000;stroke-linejoin:miter;stroke-opacity:0.8;" x="111.016364" xlink:href="#m28269ba831" y="130.961925"/>
     <use style="fill:#ff8c00;fill-opacity:0.8;stroke:#000000;stroke-linejoin:miter;stroke-opacity:0.8;" x="128.836818" xlink:href="#m28269ba831" y="93.622856"/>
     <use style="fill:#ff8c00;fill-opacity:0.8;stroke:#000000;stroke-linejoin:miter;stroke-opacity:0.8;" x="146.657273" xlink:href="#m28269ba831" y="97.434586"/>
     <use style="fill:#ff8c00;fill-opacity:0.8;stroke:#000000;stroke-linejoin:miter;stroke-opacity:0.8;" x="164.477727" xlink:href="#m28269ba831" y="87.744238"/>
     <use style="fill:#ff8c00;fill-opacity:0.8;stroke:#000000;stroke-linejoin:miter;stroke-opacity:0.8;" x="182.298182" xlink:href="#m28269ba831" y="74.700767"/>
     <use style="fill:#ff8c00;fill-opacity:0.8;stroke:#000000;stroke-linejoin:miter;stroke-opacity:0.8;" x="200.118636" xlink:href="#m28269ba831" y="91.189276"/>
     <use style="fill:#ff8c00;fill-opacity:0.8;stroke:#000000;stroke-linejoin:miter;stroke-opacity:0.8;" x="217.939091" xlink:href="#m28269ba831" y="113.007274"/>
     <use style="fill:#ff8c00;fill-opacity:0.8;stroke:#000000;stroke-linejoin:miter;stroke-opacity:0.8;" x="235.759545" xlink:href="#m28269ba831" y="85.941863"/>
     <use style="fill:#ff8c00;fill-opacity:0.8;stroke:#000000;stroke-linejoin:miter;stroke-opacity:0.8;" x="253.58" xlink:href="#m28269ba831" y="83.333228"/>
     <use style="fill:#ff8c00;fill-opacity:0.8;stroke:#000000;stroke-linejoin:miter;stroke-opacity:0.8;" x="271.400455" xlink:href="#m28269ba831" y="99.776676"/>
     <use style="fill:#ff8c00;fill-opacity:0.8;stroke:#000000;stroke-linejoin:miter;stroke-opacity:0.8;" x="289.220909" xlink:href="#m28269ba831" y="89.951742"/>
     <use style="fill:#ff8c00;fill-opacity:0.8;stroke:#000000;stroke-linejoin:miter;stroke-opacity:0.8;" x="307.041364" xlink:href="#m28269ba831" y="113.781699"/>
     <use style="fill:#ff8c00;fill-opacity:0.8;stroke:#000000;stroke-linejoin:miter;stroke-opacity:0.8;" x="324.861818" xlink:href="#m28269ba831" y="109.353953"/>
     <use style="fill:#ff8c00;fill-opacity:0.8;stroke:#000000;stroke-linejoin:miter;stroke-opacity:0.8;" x="342.682273" xlink:href="#m28269ba831" y="102.571354"/>
     <use style="fill:#ff8c00;fill-opacity:0.8;stroke:#000000;stroke-linejoin:miter;stroke-opacity:0.8;" x="360.502727" xlink:href="#m28269ba831" y="80.150409"/>
     <use style="fill:#ff8c00;fill-opacity:0.8;stroke:#000000;stroke-linejoin:miter;stroke-opacity:0.8;" x="378.323182" xlink:href="#m28269ba831" y="109.611983"/>
     <use style="fill:#ff8c00;fill-opacity:0.8;stroke:#000000;stroke-linejoin:miter;stroke-opacity:0.8;" x="396.143636" xlink:href="#m28269ba831" y="48.076064"/>
    </g>
   </g>
   <g id="line2d_7">
    <path clip-path="url(#p9e81418603)" d="M 111.016364 130.961925 
L 128.836818 93.622856 
L 146.657273 97.434586 
L 164.477727 87.744238 
L 182.298182 74.700767 
L 200.118636 91.189276 
L 217.939091 113.007274 
L 235.759545 85.941863 
L 253.58 83.333228 
L 271.400455 99.776676 
L 289.220909 89.951742 
L 307.041364 113.781699 
L 324.861818 109.353953 
L 342.682273 102.571354 
L 360.502727 80.150409 
L 378.323182 109.611983 
L 396.143636 48.076064 
" style="fill:none;stroke:#ff8c00;stroke-linecap:round;stroke-width:0.7;"/>
   </g>
   <g id="line2d_8">
    <path clip-path="url(#p9e81418603)" d="M 111.016364 144.220517 
L 128.836818 111.40543 
L 146.657273 115.454599 
L 164.477727 105.875141 
L 182.298182 93.744603 
L 200.118636 109.57334 
L 217.939091 128.152001 
L 235.759545 105.265992 
L 253.58 100.118039 
L 271.400455 116.202614 
L 289.220909 108.721548 
L 307.041364 128.835128 
L 324.861818 125.128328 
L 342.682273 119.048509 
L 360.502727 97.049207 
L 378.323182 125.079832 
L 396.143636 65.90031 
" style="fill:none;stroke:#ff8c00;stroke-dasharray:1.85,0.8;stroke-dashoffset:0;stroke-width:0.5;"/>
   </g>
   <g id="line2d_9">
    <path clip-path="url(#p9e81418603)" d="M 111.016364 117.703333 
L 128.836818 75.840282 
L 146.657273 79.414573 
L 164.477727 69.613335 
L 182.298182 55.656931 
L 200.118636 72.805213 
L 217.939091 97.862546 
L 235.759545 66.617733 
L 253.58 66.548416 
L 271.400455 83.350739 
L 289.220909 71.181935 
L 307.041364 98.728271 
L 324.861818 93.579579 
L 342.682273 86.094198 
L 360.502727 63.25161 
L 378.323182 94.144134 
L 396.143636 30.251818 
" style="fill:none;stroke:#ff8c00;stroke-dasharray:1.85,0.8;stroke-dashoffset:0;stroke-width:0.5;"/>
   </g>
   <g id="line2d_10">
    <path clip-path="url(#p9e81418603)" d="M 111.016364 201.606998 
L 128.836818 197.586556 
L 146.657273 197.692984 
L 164.477727 199.352066 
L 182.298182 197.279113 
L 200.118636 191.614009 
L 217.939091 189.409191 
L 235.759545 193.49295 
L 253.58 192.595641 
L 271.400455 195.056383 
L 289.220909 200.280605 
L 307.041364 199.773364 
L 324.861818 201.749848 
L 342.682273 201.065294 
L 360.502727 200.790449 
L 378.323182 197.877803 
L 396.143636 197.504133 
" style="fill:none;stroke:#808080;stroke-linecap:round;stroke-opacity:0.8;stroke-width:0.7;"/>
    <defs>
     <path d="M 0 -2.5 
L -2.5 2.5 
L 2.5 2.5 
z
" id="ma3180fc662" style="stroke:#000000;stroke-linejoin:miter;stroke-opacity:0.8;"/>
    </defs>
    <g clip-path="url(#p9e81418603)">
     <use style="fill:#808080;fill-opacity:0.8;stroke:#000000;stroke-linejoin:miter;stroke-opacity:0.8;" x="111.016364" xlink:href="#ma3180fc662" y="201.606998"/>
     <use style="fill:#808080;fill-opacity:0.8;stroke:#000000;stroke-linejoin:miter;stroke-opacity:0.8;" x="128.836818" xlink:href="#ma3180fc662" y="197.586556"/>
     <use style="fill:#808080;fill-opacity:0.8;stroke:#000000;stroke-linejoin:miter;stroke-opacity:0.8;" x="146.657273" xlink:href="#ma3180fc662" y="197.692984"/>
     <use style="fill:#808080;fill-opacity:0.8;stroke:#000000;stroke-linejoin:miter;stroke-opacity:0.8;" x="164.477727" xlink:href="#ma3180fc662" y="199.352066"/>
     <use style="fill:#808080;fill-opacity:0.8;stroke:#000000;stroke-linejoin:miter;stroke-opacity:0.8;" x="182.298182" xlink:href="#ma3180fc662" y="197.279113"/>
     <use style="fill:#808080;fill-opacity:0.8;stroke:#000000;stroke-linejoin:miter;stroke-opacity:0.8;" x="200.118636" xlink:href="#ma3180fc662" y="191.614009"/>
     <use style="fill:#808080;fill-opacity:0.8;stroke:#000000;stroke-linejoin:miter;stroke-opacity:0.8;" x="217.939091" xlink:href="#ma3180fc662" y="189.409191"/>
     <use style="fill:#808080;fill-opacity:0.8;stroke:#000000;stroke-linejoin:miter;stroke-opacity:0.8;" x="235.759545" xlink:href="#ma3180fc662" y="193.49295"/>
     <use style="fill:#808080;fill-opacity:0.8;stroke:#000000;stroke-linejoin:miter;stroke-opacity:0.8;" x="253.58" xlink:href="#ma3180fc662" y="192.595641"/>
     <use style="fill:#808080;fill-opacity:0.8;stroke:#000000;stroke-linejoin:miter;stroke-opacity:0.8;" x="271.400455" xlink:href="#ma3180fc662" y="195.056383"/>
     <use style="fill:#808080;fill-opacity:0.8;stroke:#000000;stroke-linejoin:miter;stroke-opacity:0.8;" x="289.220909" xlink:href="#ma3180fc662" y="200.280605"/>
     <use style="fill:#808080;fill-opacity:0.8;stroke:#000000;stroke-linejoin:miter;stroke-opacity:0.8;" x="307.041364" xlink:href="#ma3180fc662" y="199.773364"/>
     <use style="fill:#808080;fill-opacity:0.8;stroke:#000000;stroke-linejoin:miter;stroke-opacity:0.8;" x="324.861818" xlink:href="#ma3180fc662" y="201.749848"/>
     <use style="fill:#808080;fill-opacity:0.8;stroke:#000000;stroke-linejoin:miter;stroke-opacity:0.8;" x="342.682273" xlink:href="#ma3180fc662" y="201.065294"/>
     <use style="fill:#808080;fill-opacity:0.8;stroke:#000000;stroke-linejoin:miter;stroke-opacity:0.8;" x="360.502727" xlink:href="#ma3180fc662" y="200.790449"/>
     <use style="fill:#808080;fill-opacity:0.8;stroke:#000000;stroke-linejoin:miter;stroke-opacity:0.8;" x="378.323182" xlink:href="#ma3180fc662" y="197.877803"/>
     <use style="fill:#808080;fill-opacity:0.8;stroke:#000000;stroke-linejoin:miter;stroke-opacity:0.8;" x="396.143636" xlink:href="#ma3180fc662" y="197.504133"/>
    </g>
   </g>
   <g id="line2d_11">
    <path clip-path="url(#p9e81418603)" d="M 111.016364 201.606998 
L 128.836818 197.586556 
L 146.657273 197.692984 
L 164.477727 199.352066 
L 182.298182 197.279113 
L 200.118636 191.614009 
L 217.939091 189.409191 
L 235.759545 193.49295 
L 253.58 192.595641 
L 271.400455 195.056383 
L 289.220909 200.280605 
L 307.041364 199.773364 
L 324.861818 201.749848 
L 342.682273 201.065294 
L 360.502727 200.790449 
L 378.323182 197.877803 
L 396.143636 197.504133 
" style="fill:none;stroke:#808080;stroke-linecap:round;stroke-width:0.7;"/>
   </g>
   <g id="line2d_12">
    <path clip-path="url(#p9e81418603)" d="M 111.016364 203.288182 
L 128.836818 201.592042 
L 146.657273 202.182338 
L 164.477727 203.249393 
L 182.298182 201.048422 
L 200.118636 199.891677 
L 217.939091 196.584664 
L 235.759545 200.043247 
L 253.58 199.773959 
L 271.400455 198.719817 
L 289.220909 203.206347 
L 307.041364 201.909854 
L 324.861818 203.212213 
L 342.682273 202.81651 
L 360.502727 202.630955 
L 378.323182 202.021351 
L 396.143636 201.148286 
" style="fill:none;stroke:#808080;stroke-dasharray:1.85,0.8;stroke-dashoffset:0;stroke-width:0.5;"/>
   </g>
   <g id="line2d_13">
    <path clip-path="url(#p9e81418603)" d="M 111.016364 199.925814 
L 128.836818 193.581069 
L 146.657273 193.20363 
L 164.477727 195.45474 
L 182.298182 193.509803 
L 200.118636 183.336342 
L 217.939091 182.233719 
L 235.759545 186.942653 
L 253.58 185.417322 
L 271.400455 191.392949 
L 289.220909 197.354863 
L 307.041364 197.636874 
L 324.861818 200.287484 
L 342.682273 199.314077 
L 360.502727 198.949943 
L 378.323182 193.734255 
L 396.143636 193.85998 
" style="fill:none;stroke:#808080;stroke-dasharray:1.85,0.8;stroke-dashoffset:0;stroke-width:0.5;"/>
   </g>
   <g id="line2d_14">
    <path clip-path="url(#p9e81418603)" d="M 111.016364 134.752407 
L 128.836818 129.157199 
L 146.657273 130.501903 
L 164.477727 117.810969 
L 182.298182 104.53859 
L 200.118636 113.340189 
L 217.939091 117.172739 
L 235.759545 115.369148 
L 253.58 117.65327 
L 271.400455 118.109739 
L 289.220909 108.312334 
L 307.041364 116.457708 
L 324.861818 137.173691 
L 342.682273 129.258513 
L 360.502727 124.480952 
L 378.323182 126.991564 
L 396.143636 113.242569 
" style="fill:none;stroke:#f4a460;stroke-linecap:round;stroke-opacity:0.8;stroke-width:0.7;"/>
    <defs>
     <path d="M 0 -2.5 
L -2.5 2.5 
L 2.5 2.5 
z
" id="m00a58433ec" style="stroke:#000000;stroke-linejoin:miter;stroke-opacity:0.8;"/>
    </defs>
    <g clip-path="url(#p9e81418603)">
     <use style="fill:#f4a460;fill-opacity:0.8;stroke:#000000;stroke-linejoin:miter;stroke-opacity:0.8;" x="111.016364" xlink:href="#m00a58433ec" y="134.752407"/>
     <use style="fill:#f4a460;fill-opacity:0.8;stroke:#000000;stroke-linejoin:miter;stroke-opacity:0.8;" x="128.836818" xlink:href="#m00a58433ec" y="129.157199"/>
     <use style="fill:#f4a460;fill-opacity:0.8;stroke:#000000;stroke-linejoin:miter;stroke-opacity:0.8;" x="146.657273" xlink:href="#m00a58433ec" y="130.501903"/>
     <use style="fill:#f4a460;fill-opacity:0.8;stroke:#000000;stroke-linejoin:miter;stroke-opacity:0.8;" x="164.477727" xlink:href="#m00a58433ec" y="117.810969"/>
     <use style="fill:#f4a460;fill-opacity:0.8;stroke:#000000;stroke-linejoin:miter;stroke-opacity:0.8;" x="182.298182" xlink:href="#m00a58433ec" y="104.53859"/>
     <use style="fill:#f4a460;fill-opacity:0.8;stroke:#000000;stroke-linejoin:miter;stroke-opacity:0.8;" x="200.118636" xlink:href="#m00a58433ec" y="113.340189"/>
     <use style="fill:#f4a460;fill-opacity:0.8;stroke:#000000;stroke-linejoin:miter;stroke-opacity:0.8;" x="217.939091" xlink:href="#m00a58433ec" y="117.172739"/>
     <use style="fill:#f4a460;fill-opacity:0.8;stroke:#000000;stroke-linejoin:miter;stroke-opacity:0.8;" x="235.759545" xlink:href="#m00a58433ec" y="115.369148"/>
     <use style="fill:#f4a460;fill-opacity:0.8;stroke:#000000;stroke-linejoin:miter;stroke-opacity:0.8;" x="253.58" xlink:href="#m00a58433ec" y="117.65327"/>
     <use style="fill:#f4a460;fill-opacity:0.8;stroke:#000000;stroke-linejoin:miter;stroke-opacity:0.8;" x="271.400455" xlink:href="#m00a58433ec" y="118.109739"/>
     <use style="fill:#f4a460;fill-opacity:0.8;stroke:#000000;stroke-linejoin:miter;stroke-opacity:0.8;" x="289.220909" xlink:href="#m00a58433ec" y="108.312334"/>
     <use style="fill:#f4a460;fill-opacity:0.8;stroke:#000000;stroke-linejoin:miter;stroke-opacity:0.8;" x="307.041364" xlink:href="#m00a58433ec" y="116.457708"/>
     <use style="fill:#f4a460;fill-opacity:0.8;stroke:#000000;stroke-linejoin:miter;stroke-opacity:0.8;" x="324.861818" xlink:href="#m00a58433ec" y="137.173691"/>
     <use style="fill:#f4a460;fill-opacity:0.8;stroke:#000000;stroke-linejoin:miter;stroke-opacity:0.8;" x="342.682273" xlink:href="#m00a58433ec" y="129.258513"/>
     <use style="fill:#f4a460;fill-opacity:0.8;stroke:#000000;stroke-linejoin:miter;stroke-opacity:0.8;" x="360.502727" xlink:href="#m00a58433ec" y="124.480952"/>
     <use style="fill:#f4a460;fill-opacity:0.8;stroke:#000000;stroke-linejoin:miter;stroke-opacity:0.8;" x="378.323182" xlink:href="#m00a58433ec" y="126.991564"/>
     <use style="fill:#f4a460;fill-opacity:0.8;stroke:#000000;stroke-linejoin:miter;stroke-opacity:0.8;" x="396.143636" xlink:href="#m00a58433ec" y="113.242569"/>
    </g>
   </g>
   <g id="line2d_15">
    <path clip-path="url(#p9e81418603)" d="M 111.016364 134.752407 
L 128.836818 129.157199 
L 146.657273 130.501903 
L 164.477727 117.810969 
L 182.298182 104.53859 
L 200.118636 113.340189 
L 217.939091 117.172739 
L 235.759545 115.369148 
L 253.58 117.65327 
L 271.400455 118.109739 
L 289.220909 108.312334 
L 307.041364 116.457708 
L 324.861818 137.173691 
L 342.682273 129.258513 
L 360.502727 124.480952 
L 378.323182 126.991564 
L 396.143636 113.242569 
" style="fill:none;stroke:#f4a460;stroke-linecap:round;stroke-width:0.7;"/>
   </g>
   <g id="line2d_16">
    <path clip-path="url(#p9e81418603)" d="M 111.016364 147.291108 
L 128.836818 144.621095 
L 146.657273 145.174729 
L 164.477727 133.797472 
L 182.298182 123.190913 
L 200.118636 130.54937 
L 217.939091 132.335445 
L 235.759545 132.461774 
L 253.58 134.190053 
L 271.400455 134.63994 
L 289.220909 126.785642 
L 307.041364 132.44814 
L 324.861818 150.589081 
L 342.682273 143.752414 
L 360.502727 139.512484 
L 378.323182 143.474447 
L 396.143636 132.592725 
" style="fill:none;stroke:#f4a460;stroke-dasharray:1.85,0.8;stroke-dashoffset:0;stroke-width:0.5;"/>
   </g>
   <g id="line2d_17">
    <path clip-path="url(#p9e81418603)" d="M 111.016364 122.213706 
L 128.836818 113.693304 
L 146.657273 115.829076 
L 164.477727 101.824466 
L 182.298182 85.886267 
L 200.118636 96.131008 
L 217.939091 102.010032 
L 235.759545 98.276521 
L 253.58 101.116487 
L 271.400455 101.579537 
L 289.220909 89.839025 
L 307.041364 100.467275 
L 324.861818 123.7583 
L 342.682273 114.764613 
L 360.502727 109.44942 
L 378.323182 110.508682 
L 396.143636 93.892413 
" style="fill:none;stroke:#f4a460;stroke-dasharray:1.85,0.8;stroke-dashoffset:0;stroke-width:0.5;"/>
   </g>
   <g id="line2d_18">
    <path clip-path="url(#p9e81418603)" d="M 111.016364 184.749695 
L 128.836818 177.735317 
L 146.657273 172.392576 
L 164.477727 172.010088 
L 182.298182 167.411555 
L 200.118636 147.736625 
L 217.939091 156.114964 
L 235.759545 163.838604 
L 253.58 169.732693 
L 271.400455 179.856958 
L 289.220909 173.495023 
L 307.041364 184.348943 
L 324.861818 180.865009 
L 342.682273 181.34726 
L 360.502727 177.096625 
L 378.323182 183.450711 
L 396.143636 167.374209 
" style="fill:none;stroke:#556b2f;stroke-linecap:round;stroke-opacity:0.8;stroke-width:0.7;"/>
    <defs>
     <path d="M 0 -2.5 
L -2.5 2.5 
L 2.5 2.5 
z
" id="m0ac4fa4df8" style="stroke:#000000;stroke-linejoin:miter;stroke-opacity:0.8;"/>
    </defs>
    <g clip-path="url(#p9e81418603)">
     <use style="fill:#556b2f;fill-opacity:0.8;stroke:#000000;stroke-linejoin:miter;stroke-opacity:0.8;" x="111.016364" xlink:href="#m0ac4fa4df8" y="184.749695"/>
     <use style="fill:#556b2f;fill-opacity:0.8;stroke:#000000;stroke-linejoin:miter;stroke-opacity:0.8;" x="128.836818" xlink:href="#m0ac4fa4df8" y="177.735317"/>
     <use style="fill:#556b2f;fill-opacity:0.8;stroke:#000000;stroke-linejoin:miter;stroke-opacity:0.8;" x="146.657273" xlink:href="#m0ac4fa4df8" y="172.392576"/>
     <use style="fill:#556b2f;fill-opacity:0.8;stroke:#000000;stroke-linejoin:miter;stroke-opacity:0.8;" x="164.477727" xlink:href="#m0ac4fa4df8" y="172.010088"/>
     <use style="fill:#556b2f;fill-opacity:0.8;stroke:#000000;stroke-linejoin:miter;stroke-opacity:0.8;" x="182.298182" xlink:href="#m0ac4fa4df8" y="167.411555"/>
     <use style="fill:#556b2f;fill-opacity:0.8;stroke:#000000;stroke-linejoin:miter;stroke-opacity:0.8;" x="200.118636" xlink:href="#m0ac4fa4df8" y="147.736625"/>
     <use style="fill:#556b2f;fill-opacity:0.8;stroke:#000000;stroke-linejoin:miter;stroke-opacity:0.8;" x="217.939091" xlink:href="#m0ac4fa4df8" y="156.114964"/>
     <use style="fill:#556b2f;fill-opacity:0.8;stroke:#000000;stroke-linejoin:miter;stroke-opacity:0.8;" x="235.759545" xlink:href="#m0ac4fa4df8" y="163.838604"/>
     <use style="fill:#556b2f;fill-opacity:0.8;stroke:#000000;stroke-linejoin:miter;stroke-opacity:0.8;" x="253.58" xlink:href="#m0ac4fa4df8" y="169.732693"/>
     <use style="fill:#556b2f;fill-opacity:0.8;stroke:#000000;stroke-linejoin:miter;stroke-opacity:0.8;" x="271.400455" xlink:href="#m0ac4fa4df8" y="179.856958"/>
     <use style="fill:#556b2f;fill-opacity:0.8;stroke:#000000;stroke-linejoin:miter;stroke-opacity:0.8;" x="289.220909" xlink:href="#m0ac4fa4df8" y="173.495023"/>
     <use style="fill:#556b2f;fill-opacity:0.8;stroke:#000000;stroke-linejoin:miter;stroke-opacity:0.8;" x="307.041364" xlink:href="#m0ac4fa4df8" y="184.348943"/>
     <use style="fill:#556b2f;fill-opacity:0.8;stroke:#000000;stroke-linejoin:miter;stroke-opacity:0.8;" x="324.861818" xlink:href="#m0ac4fa4df8" y="180.865009"/>
     <use style="fill:#556b2f;fill-opacity:0.8;stroke:#000000;stroke-linejoin:miter;stroke-opacity:0.8;" x="342.682273" xlink:href="#m0ac4fa4df8" y="181.34726"/>
     <use style="fill:#556b2f;fill-opacity:0.8;stroke:#000000;stroke-linejoin:miter;stroke-opacity:0.8;" x="360.502727" xlink:href="#m0ac4fa4df8" y="177.096625"/>
     <use style="fill:#556b2f;fill-opacity:0.8;stroke:#000000;stroke-linejoin:miter;stroke-opacity:0.8;" x="378.323182" xlink:href="#m0ac4fa4df8" y="183.450711"/>
     <use style="fill:#556b2f;fill-opacity:0.8;stroke:#000000;stroke-linejoin:miter;stroke-opacity:0.8;" x="396.143636" xlink:href="#m0ac4fa4df8" y="167.374209"/>
    </g>
   </g>
   <g id="line2d_19">
    <path clip-path="url(#p9e81418603)" d="M 111.016364 184.749695 
L 128.836818 177.735317 
L 146.657273 172.392576 
L 164.477727 172.010088 
L 182.298182 167.411555 
L 200.118636 147.736625 
L 217.939091 156.114964 
L 235.759545 163.838604 
L 253.58 169.732693 
L 271.400455 179.856958 
L 289.220909 173.495023 
L 307.041364 184.348943 
L 324.861818 180.865009 
L 342.682273 181.34726 
L 360.502727 177.096625 
L 378.323182 183.450711 
L 396.143636 167.374209 
" style="fill:none;stroke:#556b2f;stroke-linecap:round;stroke-width:0.7;"/>
   </g>
   <g id="line2d_20">
    <path clip-path="url(#p9e81418603)" d="M 111.016364 191.505014 
L 128.836818 188.583882 
L 146.657273 185.261677 
L 164.477727 185.265446 
L 182.298182 182.058683 
L 200.118636 165.141229 
L 217.939091 171.964288 
L 235.759545 176.954332 
L 253.58 182.059402 
L 271.400455 188.685297 
L 289.220909 184.514953 
L 307.041364 190.501024 
L 324.861818 190.173237 
L 342.682273 189.76727 
L 360.502727 188.246566 
L 378.323182 192.251971 
L 396.143636 179.751151 
" style="fill:none;stroke:#556b2f;stroke-dasharray:1.85,0.8;stroke-dashoffset:0;stroke-width:0.5;"/>
   </g>
   <g id="line2d_21">
    <path clip-path="url(#p9e81418603)" d="M 111.016364 177.994375 
L 128.836818 166.886751 
L 146.657273 159.523474 
L 164.477727 158.754731 
L 182.298182 152.764427 
L 200.118636 130.332022 
L 217.939091 140.26564 
L 235.759545 150.722876 
L 253.58 157.405984 
L 271.400455 171.028619 
L 289.220909 162.475092 
L 307.041364 178.196862 
L 324.861818 171.556781 
L 342.682273 172.92725 
L 360.502727 165.946684 
L 378.323182 174.649451 
L 396.143636 154.997267 
" style="fill:none;stroke:#556b2f;stroke-dasharray:1.85,0.8;stroke-dashoffset:0;stroke-width:0.5;"/>
   </g>
   <g id="patch_3">
    <path d="M 96.76 211.94 
L 96.76 21.6 
" style="fill:none;stroke:#cccccc;stroke-linecap:square;stroke-linejoin:miter;stroke-width:0.8;"/>
   </g>
   <g id="patch_4">
    <path d="M 96.76 211.94 
L 410.4 211.94 
" style="fill:none;stroke:#cccccc;stroke-linecap:square;stroke-linejoin:miter;stroke-width:0.8;"/>
   </g>
   <g id="legend_1">
    <g id="patch_5">
     <path d="M 110.76 151.6625 
L 241.4475 151.6625 
Q 245.4475 151.6625 245.4475 147.6625 
L 245.4475 35.6 
Q 245.4475 31.6 241.4475 31.6 
L 110.76 31.6 
Q 106.76 31.6 106.76 35.6 
L 106.76 147.6625 
Q 106.76 151.6625 110.76 151.6625 
z
" style="fill:#ffffff;opacity:0.8;stroke:#cccccc;stroke-linejoin:miter;"/>
    </g>
    <g id="line2d_22">
     <path d="M 114.76 46.946875 
L 154.76 46.946875 
" style="fill:none;stroke:#ff8c00;stroke-linecap:round;stroke-opacity:0.8;stroke-width:0.7;"/>
    </g>
    <g id="line2d_23">
     <g>
      <use style="fill:#ff8c00;fill-opacity:0.8;stroke:#000000;stroke-linejoin:miter;stroke-opacity:0.8;" x="134.76" xlink:href="#m28269ba831" y="46.946875"/>
     </g>
    </g>
    <g id="text_8">
     <!-- Class a -->
     <g style="fill:#262626;" transform="translate(170.76 53.946875)scale(0.2 -0.2)">
      <defs>
       <path d="M 2422 4716 
Q 3294 4716 3775 4256 
Q 4256 3797 4309 3213 
L 3703 3213 
Q 3600 3656 3292 3915 
Q 2984 4175 2428 4175 
Q 1750 4175 1333 3698 
Q 916 3222 916 2238 
Q 916 1431 1292 929 
Q 1669 428 2416 428 
Q 3103 428 3463 956 
Q 3653 1234 3747 1688 
L 4353 1688 
Q 4272 963 3816 472 
Q 3269 -119 2341 -119 
Q 1541 -119 997 366 
Q 281 1006 281 2344 
Q 281 3359 819 4009 
Q 1400 4716 2422 4716 
z
M 2297 4716 
L 2297 4716 
z
" id="Helvetica-43" transform="scale(0.015625)"/>
       <path d="M 428 4591 
L 991 4591 
L 991 0 
L 428 0 
L 428 4591 
z
" id="Helvetica-6c" transform="scale(0.015625)"/>
      </defs>
      <use xlink:href="#Helvetica-43"/>
      <use x="72.216797" xlink:href="#Helvetica-6c"/>
      <use x="94.433594" xlink:href="#Helvetica-61"/>
      <use x="150.048828" xlink:href="#Helvetica-73"/>
      <use x="200.048828" xlink:href="#Helvetica-73"/>
      <use x="250.048828" xlink:href="#Helvetica-20"/>
      <use x="277.832031" xlink:href="#Helvetica-61"/>
     </g>
    </g>
    <g id="line2d_24">
     <path d="M 114.76 75.4625 
L 154.76 75.4625 
" style="fill:none;stroke:#808080;stroke-linecap:round;stroke-opacity:0.8;stroke-width:0.7;"/>
    </g>
    <g id="line2d_25">
     <g>
      <use style="fill:#808080;fill-opacity:0.8;stroke:#000000;stroke-linejoin:miter;stroke-opacity:0.8;" x="134.76" xlink:href="#ma3180fc662" y="75.4625"/>
     </g>
    </g>
    <g id="text_9">
     <!-- Class d -->
     <g style="fill:#262626;" transform="translate(170.76 82.4625)scale(0.2 -0.2)">
      <use xlink:href="#Helvetica-43"/>
      <use x="72.216797" xlink:href="#Helvetica-6c"/>
      <use x="94.433594" xlink:href="#Helvetica-61"/>
      <use x="150.048828" xlink:href="#Helvetica-73"/>
      <use x="200.048828" xlink:href="#Helvetica-73"/>
      <use x="250.048828" xlink:href="#Helvetica-20"/>
      <use x="277.832031" xlink:href="#Helvetica-64"/>
     </g>
    </g>
    <g id="line2d_26">
     <path d="M 114.76 103.978125 
L 154.76 103.978125 
" style="fill:none;stroke:#f4a460;stroke-linecap:round;stroke-opacity:0.8;stroke-width:0.7;"/>
    </g>
    <g id="line2d_27">
     <g>
      <use style="fill:#f4a460;fill-opacity:0.8;stroke:#000000;stroke-linejoin:miter;stroke-opacity:0.8;" x="134.76" xlink:href="#m00a58433ec" y="103.978125"/>
     </g>
    </g>
    <g id="text_10">
     <!-- Class b -->
     <g style="fill:#262626;" transform="translate(170.76 110.978125)scale(0.2 -0.2)">
      <use xlink:href="#Helvetica-43"/>
      <use x="72.216797" xlink:href="#Helvetica-6c"/>
      <use x="94.433594" xlink:href="#Helvetica-61"/>
      <use x="150.048828" xlink:href="#Helvetica-73"/>
      <use x="200.048828" xlink:href="#Helvetica-73"/>
      <use x="250.048828" xlink:href="#Helvetica-20"/>
      <use x="277.832031" xlink:href="#Helvetica-62"/>
     </g>
    </g>
    <g id="line2d_28">
     <path d="M 114.76 132.49375 
L 154.76 132.49375 
" style="fill:none;stroke:#556b2f;stroke-linecap:round;stroke-opacity:0.8;stroke-width:0.7;"/>
    </g>
    <g id="line2d_29">
     <g>
      <use style="fill:#556b2f;fill-opacity:0.8;stroke:#000000;stroke-linejoin:miter;stroke-opacity:0.8;" x="134.76" xlink:href="#m0ac4fa4df8" y="132.49375"/>
     </g>
    </g>
    <g id="text_11">
     <!-- Class c -->
     <g style="fill:#262626;" transform="translate(170.76 139.49375)scale(0.2 -0.2)">
      <use xlink:href="#Helvetica-43"/>
      <use x="72.216797" xlink:href="#Helvetica-6c"/>
      <use x="94.433594" xlink:href="#Helvetica-61"/>
      <use x="150.048828" xlink:href="#Helvetica-73"/>
      <use x="200.048828" xlink:href="#Helvetica-73"/>
      <use x="250.048828" xlink:href="#Helvetica-20"/>
      <use x="277.832031" xlink:href="#Helvetica-63"/>
     </g>
    </g>
   </g>
  </g>
 </g>
 <defs>
  <clipPath id="p9e81418603">
   <rect height="190.34" width="313.64" x="96.76" y="21.6"/>
  </clipPath>
 </defs>
</svg>
