<?xml version="1.0" encoding="utf-8" standalone="no"?>
<!DOCTYPE svg PUBLIC "-//W3C//DTD SVG 1.1//EN"
  "http://www.w3.org/Graphics/SVG/1.1/DTD/svg11.dtd">
<svg height="216pt" version="1.1" viewBox="0 0 360 216" width="360pt" xmlns="http://www.w3.org/2000/svg" xmlns:xlink="http://www.w3.org/1999/xlink">
 <metadata>
  <rdf:RDF xmlns:cc="http://creativecommons.org/ns#" xmlns:dc="http://purl.org/dc/elements/1.1/" xmlns:rdf="http://www.w3.org/1999/02/22-rdf-syntax-ns#">
   <cc:Work>
    <dc:type rdf:resource="http://purl.org/dc/dcmitype/StillImage"/>
    <dc:date>2022-04-07T13:01:21.927502</dc:date>
    <dc:format>image/svg+xml</dc:format>
    <dc:creator>
     <cc:Agent>
      <dc:title>Matplotlib v3.4.2, https://matplotlib.org/</dc:title>
     </cc:Agent>
    </dc:creator>
   </cc:Work>
  </rdf:RDF>
 </metadata>
 <defs>
  <style type="text/css">*{stroke-linecap:butt;stroke-linejoin:round;}</style>
 </defs>
 <g id="figure_1">
  <g id="patch_1">
   <path d="M 0 216 
L 360 216 
L 360 0 
L 0 0 
z
" style="fill:#ffffff;"/>
  </g>
  <g id="axes_1">
   <g id="patch_2">
    <path d="M 94.94 141.64 
L 338.4 141.64 
L 338.4 28.8 
L 94.94 28.8 
z
" style="fill:#ffffff;"/>
   </g>
   <g id="line2d_1">
    <path clip-path="url(#pb478c47eb5)" d="M 94.94 141.64 
L 338.4 141.64 
" style="fill:none;stroke:#000000;stroke-linecap:round;stroke-width:0.5;"/>
   </g>
   <g id="patch_3">
    <path clip-path="url(#pb478c47eb5)" d="M 101.035611 129.102222 
Q 103.518269 129.102222 104.887718 130.295061 
Q 106.257166 131.485308 106.408062 132.999695 
L 104.682728 132.999695 
Q 104.389478 131.850939 103.512575 131.179318 
Q 102.635673 130.505105 101.052693 130.505105 
Q 99.122369 130.505105 97.935134 131.742027 
Q 96.747899 132.976357 96.747899 135.527995 
Q 96.747899 137.62065 97.818404 138.922401 
Q 98.891755 140.221559 101.018528 140.221559 
Q 102.974476 140.221559 103.999427 138.852387 
Q 104.540373 138.131497 104.807999 136.954216 
L 106.533333 136.954216 
Q 106.302719 138.834235 105.004448 140.107461 
Q 103.447092 141.64 100.804997 141.64 
Q 98.527328 141.64 96.978513 140.382333 
Q 94.94 138.72273 94.94 135.253124 
Q 94.94 132.621098 96.471732 130.935564 
Q 98.125889 129.102222 101.035611 129.102222 
z
M 100.679725 129.102222 
L 100.679725 129.102222 
z
" style="fill:#0000ff;"/>
   </g>
   <g id="patch_4">
    <path clip-path="url(#pb478c47eb5)" d="M 100.919108 116.582585 
Q 102.707589 116.582585 104.012322 117.230465 
Q 105.903081 118.160821 106.326013 120.49319 
L 104.62599 120.49319 
Q 104.313627 119.189655 103.337841 118.593605 
Q 102.362055 117.997555 100.87488 117.997555 
Q 99.114042 117.997555 97.908822 119.238894 
Q 96.703602 120.477641 96.703602 122.931811 
Q 96.703602 125.051675 97.695974 126.383717 
Q 98.69111 127.715759 100.935694 127.715759 
Q 102.655068 127.715759 103.782888 126.782811 
Q 104.910709 125.847272 104.935587 123.755915 
L 100.963337 123.755915 
L 100.963337 122.421282 
L 106.533333 122.421282 
L 106.533333 128.786057 
L 105.427627 128.786057 
L 105.012987 127.254468 
Q 104.142243 128.153726 103.467762 128.503581 
Q 102.334413 129.102222 100.590161 129.102222 
Q 98.337283 129.102222 96.711895 127.733899 
Q 94.94 126.015721 94.94 123.019923 
Q 94.94 120.031899 96.667667 118.267074 
Q 98.309641 116.582585 100.919108 116.582585 
z
M 100.634389 116.564444 
L 100.634389 116.564444 
z
" style="fill:#ffa600;"/>
   </g>
   <g id="patch_5">
    <path clip-path="url(#pb478c47eb5)" d="M 106.533333 104.026667 
L 106.533333 105.520495 
L 101.718599 105.520495 
L 101.718599 116.564444 
L 99.754735 116.564444 
L 99.754735 105.520495 
L 94.94 105.520495 
L 94.94 104.026667 
L 106.533333 104.026667 
z
" style="fill:#ff0000;"/>
   </g>
   <g id="patch_6">
    <path clip-path="url(#pb478c47eb5)" d="M 102.72171 73.205199 
L 100.7494 39.975035 
L 98.652583 73.205199 
L 102.72171 73.205199 
z
M 99.829744 28.8 
L 101.819032 28.8 
L 106.533333 104.026667 
L 104.603469 104.026667 
L 103.287653 81.496354 
L 98.148894 81.496354 
L 96.742527 104.026667 
L 94.94 104.026667 
L 99.829744 28.8 
z
M 100.740911 28.8 
L 100.740911 28.8 
z
" style="fill:#008000;"/>
   </g>
   <g id="patch_7">
    <path clip-path="url(#pb478c47eb5)" d="M 113.239119 129.102222 
Q 115.721778 129.102222 117.091227 130.295061 
Q 118.460675 131.485308 118.61157 132.999695 
L 116.886236 132.999695 
Q 116.592987 131.850939 115.716084 131.179318 
Q 114.839182 130.505105 113.256202 130.505105 
Q 111.325878 130.505105 110.138643 131.742027 
Q 108.951408 132.976357 108.951408 135.527995 
Q 108.951408 137.62065 110.021913 138.922401 
Q 111.095264 140.221559 113.222037 140.221559 
Q 115.177985 140.221559 116.202936 138.852387 
Q 116.743882 138.131497 117.011508 136.954216 
L 118.736842 136.954216 
Q 118.506228 138.834235 117.207957 140.107461 
Q 115.650601 141.64 113.008505 141.64 
Q 110.730837 141.64 109.182022 140.382333 
Q 107.143509 138.72273 107.143509 135.253124 
Q 107.143509 132.621098 108.675241 130.935564 
Q 110.329398 129.102222 113.239119 129.102222 
z
M 112.883234 129.102222 
L 112.883234 129.102222 
z
" style="fill:#0000ff;"/>
   </g>
   <g id="patch_8">
    <path clip-path="url(#pb478c47eb5)" d="M 113.122617 116.582585 
Q 114.911097 116.582585 116.215831 117.230465 
Q 118.106589 118.160821 118.529522 120.49319 
L 116.829498 120.49319 
Q 116.517136 119.189655 115.54135 118.593605 
Q 114.565564 117.997555 113.078389 117.997555 
Q 111.317551 117.997555 110.112331 119.238894 
Q 108.907111 120.477641 108.907111 122.931811 
Q 108.907111 125.051675 109.899482 126.383717 
Q 110.894618 127.715759 113.139203 127.715759 
Q 114.858576 127.715759 115.986397 126.782811 
Q 117.114218 125.847272 117.139096 123.755915 
L 113.166845 123.755915 
L 113.166845 122.421282 
L 118.736842 122.421282 
L 118.736842 128.786057 
L 117.631136 128.786057 
L 117.216496 127.254468 
Q 116.345752 128.153726 115.671271 128.503581 
Q 114.537921 129.102222 112.793669 129.102222 
Q 110.540792 129.102222 108.915404 127.733899 
Q 107.143509 126.015721 107.143509 123.019923 
Q 107.143509 120.031899 108.871175 118.267074 
Q 110.51315 116.582585 113.122617 116.582585 
z
M 112.837898 116.564444 
L 112.837898 116.564444 
z
" style="fill:#ffa600;"/>
   </g>
   <g id="patch_9">
    <path clip-path="url(#pb478c47eb5)" d="M 118.736842 104.026667 
L 118.736842 105.520495 
L 113.922107 105.520495 
L 113.922107 116.564444 
L 111.958243 116.564444 
L 111.958243 105.520495 
L 107.143509 105.520495 
L 107.143509 104.026667 
L 118.736842 104.026667 
z
" style="fill:#ff0000;"/>
   </g>
   <g id="patch_10">
    <path clip-path="url(#pb478c47eb5)" d="M 114.925219 73.205199 
L 112.952909 39.975035 
L 110.856092 73.205199 
L 114.925219 73.205199 
z
M 112.033252 28.8 
L 114.022541 28.8 
L 118.736842 104.026667 
L 116.806978 104.026667 
L 115.491162 81.496354 
L 110.352403 81.496354 
L 108.946036 104.026667 
L 107.143509 104.026667 
L 112.033252 28.8 
z
M 112.94442 28.8 
L 112.94442 28.8 
z
" style="fill:#008000;"/>
   </g>
   <g id="patch_11">
    <path clip-path="url(#pb478c47eb5)" d="M 125.442628 129.102222 
Q 127.925287 129.102222 129.294735 130.295061 
Q 130.664184 131.485308 130.815079 132.999695 
L 129.089745 132.999695 
Q 128.796495 131.850939 127.919593 131.179318 
Q 127.04269 130.505105 125.459711 130.505105 
Q 123.529387 130.505105 122.342152 131.742027 
Q 121.154917 132.976357 121.154917 135.527995 
Q 121.154917 137.62065 122.225421 138.922401 
Q 123.298773 140.221559 125.425546 140.221559 
Q 127.381494 140.221559 128.406445 138.852387 
Q 128.947391 138.131497 129.215017 136.954216 
L 130.940351 136.954216 
Q 130.709737 138.834235 129.411466 140.107461 
Q 127.85411 141.64 125.212014 141.64 
Q 122.934346 141.64 121.385531 140.382333 
Q 119.347018 138.72273 119.347018 135.253124 
Q 119.347018 132.621098 120.87875 130.935564 
Q 122.532907 129.102222 125.442628 129.102222 
z
M 125.086742 129.102222 
L 125.086742 129.102222 
z
" style="fill:#0000ff;"/>
   </g>
   <g id="patch_12">
    <path clip-path="url(#pb478c47eb5)" d="M 125.326126 116.582585 
Q 127.114606 116.582585 128.41934 117.230465 
Q 130.310098 118.160821 130.733031 120.49319 
L 129.033007 120.49319 
Q 128.720645 119.189655 127.744859 118.593605 
Q 126.769073 117.997555 125.281898 117.997555 
Q 123.52106 117.997555 122.31584 119.238894 
Q 121.11062 120.477641 121.11062 122.931811 
Q 121.11062 125.051675 122.102991 126.383717 
Q 123.098127 127.715759 125.342711 127.715759 
Q 127.062085 127.715759 128.189906 126.782811 
Q 129.317726 125.847272 129.342605 123.755915 
L 125.370354 123.755915 
L 125.370354 122.421282 
L 130.940351 122.421282 
L 130.940351 128.786057 
L 129.834644 128.786057 
L 129.420004 127.254468 
Q 128.54926 128.153726 127.874779 128.503581 
Q 126.74143 129.102222 124.997178 129.102222 
Q 122.744301 129.102222 121.118912 127.733899 
Q 119.347018 126.015721 119.347018 123.019923 
Q 119.347018 120.031899 121.074684 118.267074 
Q 122.716658 116.582585 125.326126 116.582585 
z
M 125.041406 116.564444 
L 125.041406 116.564444 
z
" style="fill:#ffa600;"/>
   </g>
   <g id="patch_13">
    <path clip-path="url(#pb478c47eb5)" d="M 130.940351 104.026667 
L 130.940351 105.520495 
L 126.125616 105.520495 
L 126.125616 116.564444 
L 124.161752 116.564444 
L 124.161752 105.520495 
L 119.347018 105.520495 
L 119.347018 104.026667 
L 130.940351 104.026667 
z
" style="fill:#ff0000;"/>
   </g>
   <g id="patch_14">
    <path clip-path="url(#pb478c47eb5)" d="M 127.128728 73.205199 
L 125.156418 39.975035 
L 123.059601 73.205199 
L 127.128728 73.205199 
z
M 124.236761 28.8 
L 126.226049 28.8 
L 130.940351 104.026667 
L 129.010487 104.026667 
L 127.69467 81.496354 
L 122.555912 81.496354 
L 121.149545 104.026667 
L 119.347018 104.026667 
L 124.236761 28.8 
z
M 125.147929 28.8 
L 125.147929 28.8 
z
" style="fill:#008000;"/>
   </g>
   <g id="patch_15">
    <path clip-path="url(#pb478c47eb5)" d="M 139.332237 136.503089 
L 137.359927 130.964728 
L 135.26311 136.503089 
L 139.332237 136.503089 
z
M 136.44027 129.102222 
L 138.429558 129.102222 
L 143.14386 141.64 
L 141.213996 141.64 
L 139.898179 137.884948 
L 134.759421 137.884948 
L 133.353053 141.64 
L 131.550526 141.64 
L 136.44027 129.102222 
z
M 137.351438 129.102222 
L 137.351438 129.102222 
z
" style="fill:#008000;"/>
   </g>
   <g id="patch_16">
    <path clip-path="url(#pb478c47eb5)" d="M 137.646137 116.564444 
Q 140.128796 116.564444 141.498244 117.757284 
Q 142.867692 118.94753 143.018588 120.461917 
L 141.293254 120.461917 
Q 141.000004 119.313161 140.123102 118.641541 
Q 139.246199 117.967327 137.66322 117.967327 
Q 135.732895 117.967327 134.545661 119.20425 
Q 133.358426 120.438579 133.358426 122.990218 
Q 133.358426 125.082873 134.42893 126.384623 
Q 135.502281 127.683781 137.629054 127.683781 
Q 139.585002 127.683781 140.609953 126.314609 
Q 141.1509 125.593719 141.418526 124.416438 
L 143.14386 124.416438 
Q 142.913246 126.296457 141.614975 127.569683 
Q 140.057619 129.102222 137.415523 129.102222 
Q 135.137854 129.102222 133.58904 127.844555 
Q 131.550526 126.184952 131.550526 122.715346 
Q 131.550526 120.08332 133.082258 118.397787 
Q 134.736415 116.564444 137.646137 116.564444 
z
M 137.290251 116.564444 
L 137.290251 116.564444 
z
" style="fill:#0000ff;"/>
   </g>
   <g id="patch_17">
    <path clip-path="url(#pb478c47eb5)" d="M 143.14386 104.026667 
L 143.14386 105.520495 
L 138.329125 105.520495 
L 138.329125 116.564444 
L 136.365261 116.564444 
L 136.365261 105.520495 
L 131.550526 105.520495 
L 131.550526 104.026667 
L 143.14386 104.026667 
z
" style="fill:#ff0000;"/>
   </g>
   <g id="patch_18">
    <path clip-path="url(#pb478c47eb5)" d="M 137.529635 28.908844 
Q 139.318115 28.908844 140.622849 32.796125 
Q 142.513607 38.378261 142.93654 52.372473 
L 141.236516 52.372473 
Q 140.924154 44.551264 139.948368 40.974965 
Q 138.972582 37.398666 137.485406 37.398666 
Q 135.724569 37.398666 134.519348 44.846697 
Q 133.314128 52.279179 133.314128 67.0042 
Q 133.314128 79.723384 134.3065 87.715635 
Q 135.301636 95.707885 137.54622 95.707885 
Q 139.265594 95.707885 140.393415 90.1102 
Q 141.521235 84.496966 141.546114 71.948822 
L 137.573863 71.948822 
L 137.573863 63.941022 
L 143.14386 63.941022 
L 143.14386 102.129673 
L 142.038153 102.129673 
L 141.623513 92.940141 
Q 140.752769 98.335687 140.078288 100.434819 
Q 138.944939 104.026667 137.200687 104.026667 
Q 134.94781 104.026667 133.322421 95.816729 
Q 131.550526 85.507659 131.550526 67.53287 
Q 131.550526 49.604729 133.278193 39.015775 
Q 134.920167 28.908844 137.529635 28.908844 
z
M 137.244915 28.8 
L 137.244915 28.8 
z
" style="fill:#ffa600;"/>
   </g>
   <g id="patch_19">
    <path clip-path="url(#pb478c47eb5)" d="M 151.535745 136.503089 
L 149.563435 130.964728 
L 147.466618 136.503089 
L 151.535745 136.503089 
z
M 148.643779 129.102222 
L 150.633067 129.102222 
L 155.347368 141.64 
L 153.417504 141.64 
L 152.101688 137.884948 
L 146.962929 137.884948 
L 145.556562 141.64 
L 143.754035 141.64 
L 148.643779 129.102222 
z
M 149.554946 129.102222 
L 149.554946 129.102222 
z
" style="fill:#008000;"/>
   </g>
   <g id="patch_20">
    <path clip-path="url(#pb478c47eb5)" d="M 149.849646 116.564444 
Q 152.332305 116.564444 153.701753 117.757284 
Q 155.071201 118.94753 155.222097 120.461917 
L 153.496763 120.461917 
Q 153.203513 119.313161 152.32661 118.641541 
Q 151.449708 117.967327 149.866728 117.967327 
Q 147.936404 117.967327 146.749169 119.20425 
Q 145.561935 120.438579 145.561935 122.990218 
Q 145.561935 125.082873 146.632439 126.384623 
Q 147.70579 127.683781 149.832563 127.683781 
Q 151.788511 127.683781 152.813462 126.314609 
Q 153.354408 125.593719 153.622034 124.416438 
L 155.347368 124.416438 
Q 155.116754 126.296457 153.818483 127.569683 
Q 152.261127 129.102222 149.619032 129.102222 
Q 147.341363 129.102222 145.792549 127.844555 
Q 143.754035 126.184952 143.754035 122.715346 
Q 143.754035 120.08332 145.285767 118.397787 
Q 146.939924 116.564444 149.849646 116.564444 
z
M 149.49376 116.564444 
L 149.49376 116.564444 
z
" style="fill:#0000ff;"/>
   </g>
   <g id="patch_21">
    <path clip-path="url(#pb478c47eb5)" d="M 149.733143 104.044807 
Q 151.521624 104.044807 152.826357 104.692688 
Q 154.717116 105.623043 155.140048 107.955412 
L 153.440025 107.955412 
Q 153.127662 106.651877 152.151876 106.055827 
Q 151.17609 105.459778 149.688915 105.459778 
Q 147.928077 105.459778 146.722857 106.701116 
Q 145.517637 107.939863 145.517637 110.394033 
Q 145.517637 112.513897 146.510009 113.845939 
Q 147.505145 115.177981 149.749729 115.177981 
Q 151.469103 115.177981 152.596923 114.245033 
Q 153.724744 113.309494 153.749622 111.218137 
L 149.777372 111.218137 
L 149.777372 109.883504 
L 155.347368 109.883504 
L 155.347368 116.248279 
L 154.241662 116.248279 
L 153.827022 114.71669 
Q 152.956278 115.615948 152.281797 115.965803 
Q 151.148448 116.564444 149.404196 116.564444 
Q 147.151319 116.564444 145.52593 115.196121 
Q 143.754035 113.477943 143.754035 110.482145 
Q 143.754035 107.494122 145.481702 105.729296 
Q 147.123676 104.044807 149.733143 104.044807 
z
M 149.448424 104.026667 
L 149.448424 104.026667 
z
" style="fill:#ffa600;"/>
   </g>
   <g id="patch_22">
    <path clip-path="url(#pb478c47eb5)" d="M 155.347368 28.8 
L 155.347368 37.762968 
L 150.532634 37.762968 
L 150.532634 104.026667 
L 148.56877 104.026667 
L 148.56877 37.762968 
L 143.754035 37.762968 
L 143.754035 28.8 
L 155.347368 28.8 
z
" style="fill:#ff0000;"/>
   </g>
   <g id="patch_23">
    <path clip-path="url(#pb478c47eb5)" d="M 163.739254 136.503089 
L 161.766944 130.964728 
L 159.670127 136.503089 
L 163.739254 136.503089 
z
M 160.847288 129.102222 
L 162.836576 129.102222 
L 167.550877 141.64 
L 165.621013 141.64 
L 164.305197 137.884948 
L 159.166438 137.884948 
L 157.760071 141.64 
L 155.957544 141.64 
L 160.847288 129.102222 
z
M 161.758455 129.102222 
L 161.758455 129.102222 
z
" style="fill:#008000;"/>
   </g>
   <g id="patch_24">
    <path clip-path="url(#pb478c47eb5)" d="M 162.053155 116.564444 
Q 164.535813 116.564444 165.905262 117.757284 
Q 167.27471 118.94753 167.425605 120.461917 
L 165.700271 120.461917 
Q 165.407022 119.313161 164.530119 118.641541 
Q 163.653217 117.967327 162.070237 117.967327 
Q 160.139913 117.967327 158.952678 119.20425 
Q 157.765443 120.438579 157.765443 122.990218 
Q 157.765443 125.082873 158.835948 126.384623 
Q 159.909299 127.683781 162.036072 127.683781 
Q 163.99202 127.683781 165.016971 126.314609 
Q 165.557917 125.593719 165.825543 124.416438 
L 167.550877 124.416438 
Q 167.320263 126.296457 166.021992 127.569683 
Q 164.464636 129.102222 161.822541 129.102222 
Q 159.544872 129.102222 157.996057 127.844555 
Q 155.957544 126.184952 155.957544 122.715346 
Q 155.957544 120.08332 157.489276 118.397787 
Q 159.143433 116.564444 162.053155 116.564444 
z
M 161.697269 116.564444 
L 161.697269 116.564444 
z
" style="fill:#0000ff;"/>
   </g>
   <g id="patch_25">
    <path clip-path="url(#pb478c47eb5)" d="M 161.936652 104.044807 
Q 163.725132 104.044807 165.029866 104.692688 
Q 166.920624 105.623043 167.343557 107.955412 
L 165.643533 107.955412 
Q 165.331171 106.651877 164.355385 106.055827 
Q 163.379599 105.459778 161.892424 105.459778 
Q 160.131586 105.459778 158.926366 106.701116 
Q 157.721146 107.939863 157.721146 110.394033 
Q 157.721146 112.513897 158.713517 113.845939 
Q 159.708653 115.177981 161.953238 115.177981 
Q 163.672611 115.177981 164.800432 114.245033 
Q 165.928253 113.309494 165.953131 111.218137 
L 161.98088 111.218137 
L 161.98088 109.883504 
L 167.550877 109.883504 
L 167.550877 116.248279 
L 166.445171 116.248279 
L 166.030531 114.71669 
Q 165.159787 115.615948 164.485306 115.965803 
Q 163.351957 116.564444 161.607704 116.564444 
Q 159.354827 116.564444 157.729439 115.196121 
Q 155.957544 113.477943 155.957544 110.482145 
Q 155.957544 107.494122 157.68521 105.729296 
Q 159.327185 104.044807 161.936652 104.044807 
z
M 161.651933 104.026667 
L 161.651933 104.026667 
z
" style="fill:#ffa600;"/>
   </g>
   <g id="patch_26">
    <path clip-path="url(#pb478c47eb5)" d="M 167.550877 28.8 
L 167.550877 37.762968 
L 162.736143 37.762968 
L 162.736143 104.026667 
L 160.772279 104.026667 
L 160.772279 37.762968 
L 155.957544 37.762968 
L 155.957544 28.8 
L 167.550877 28.8 
z
" style="fill:#ff0000;"/>
   </g>
   <g id="patch_27">
    <path clip-path="url(#pb478c47eb5)" d="M 175.942763 136.503089 
L 173.970453 130.964728 
L 171.873636 136.503089 
L 175.942763 136.503089 
z
M 173.050796 129.102222 
L 175.040084 129.102222 
L 179.754386 141.64 
L 177.824522 141.64 
L 176.508705 137.884948 
L 171.369947 137.884948 
L 169.96358 141.64 
L 168.161053 141.64 
L 173.050796 129.102222 
z
M 173.961964 129.102222 
L 173.961964 129.102222 
z
" style="fill:#008000;"/>
   </g>
   <g id="patch_28">
    <path clip-path="url(#pb478c47eb5)" d="M 174.140161 116.582585 
Q 175.928641 116.582585 177.233375 117.230465 
Q 179.124133 118.160821 179.547066 120.49319 
L 177.847042 120.49319 
Q 177.53468 119.189655 176.558894 118.593605 
Q 175.583108 117.997555 174.095933 117.997555 
Q 172.335095 117.997555 171.129875 119.238894 
Q 169.924655 120.477641 169.924655 122.931811 
Q 169.924655 125.051675 170.917026 126.383717 
Q 171.912162 127.715759 174.156746 127.715759 
Q 175.87612 127.715759 177.003941 126.782811 
Q 178.131762 125.847272 178.15664 123.755915 
L 174.184389 123.755915 
L 174.184389 122.421282 
L 179.754386 122.421282 
L 179.754386 128.786057 
L 178.648679 128.786057 
L 178.234039 127.254468 
Q 177.363296 128.153726 176.688815 128.503581 
Q 175.555465 129.102222 173.811213 129.102222 
Q 171.558336 129.102222 169.932947 127.733899 
Q 168.161053 126.015721 168.161053 123.019923 
Q 168.161053 120.031899 169.888719 118.267074 
Q 171.530693 116.582585 174.140161 116.582585 
z
M 173.855441 116.564444 
L 173.855441 116.564444 
z
" style="fill:#ffa600;"/>
   </g>
   <g id="patch_29">
    <path clip-path="url(#pb478c47eb5)" d="M 179.754386 104.026667 
L 179.754386 105.520495 
L 174.939651 105.520495 
L 174.939651 116.564444 
L 172.975787 116.564444 
L 172.975787 105.520495 
L 168.161053 105.520495 
L 168.161053 104.026667 
L 179.754386 104.026667 
z
" style="fill:#ff0000;"/>
   </g>
   <g id="patch_30">
    <path clip-path="url(#pb478c47eb5)" d="M 174.256663 28.8 
Q 176.739322 28.8 178.10877 35.957036 
Q 179.478219 43.098512 179.629114 52.184836 
L 177.90378 52.184836 
Q 177.61053 45.292299 176.733628 41.262577 
Q 175.856726 37.217296 174.273746 37.217296 
Q 172.343422 37.217296 171.156187 44.638831 
Q 169.968952 52.044807 169.968952 67.354639 
Q 169.968952 79.910569 171.039456 87.721073 
Q 172.112808 95.516018 174.239581 95.516018 
Q 176.195529 95.516018 177.22048 87.300986 
Q 177.761426 82.975647 178.029052 75.911964 
L 179.754386 75.911964 
Q 179.523772 87.192074 178.225501 94.831432 
Q 176.668145 104.026667 174.026049 104.026667 
Q 171.748381 104.026667 170.199566 96.480662 
Q 168.161053 86.523047 168.161053 65.705409 
Q 168.161053 49.913255 169.692785 39.800052 
Q 171.346942 28.8 174.256663 28.8 
z
M 173.900778 28.8 
L 173.900778 28.8 
z
" style="fill:#0000ff;"/>
   </g>
   <g id="patch_31">
    <path clip-path="url(#pb478c47eb5)" d="M 188.146272 136.503089 
L 186.173962 130.964728 
L 184.077145 136.503089 
L 188.146272 136.503089 
z
M 185.254305 129.102222 
L 187.243593 129.102222 
L 191.957895 141.64 
L 190.028031 141.64 
L 188.712214 137.884948 
L 183.573456 137.884948 
L 182.167088 141.64 
L 180.364561 141.64 
L 185.254305 129.102222 
z
M 186.165473 129.102222 
L 186.165473 129.102222 
z
" style="fill:#008000;"/>
   </g>
   <g id="patch_32">
    <path clip-path="url(#pb478c47eb5)" d="M 186.460172 116.564444 
Q 188.942831 116.564444 190.312279 117.757284 
Q 191.681727 118.94753 191.832623 120.461917 
L 190.107289 120.461917 
Q 189.814039 119.313161 188.937137 118.641541 
Q 188.060234 117.967327 186.477255 117.967327 
Q 184.54693 117.967327 183.359696 119.20425 
Q 182.172461 120.438579 182.172461 122.990218 
Q 182.172461 125.082873 183.242965 126.384623 
Q 184.316316 127.683781 186.44309 127.683781 
Q 188.399038 127.683781 189.423988 126.314609 
Q 189.964935 125.593719 190.232561 124.416438 
L 191.957895 124.416438 
Q 191.727281 126.296457 190.42901 127.569683 
Q 188.871654 129.102222 186.229558 129.102222 
Q 183.951889 129.102222 182.403075 127.844555 
Q 180.364561 126.184952 180.364561 122.715346 
Q 180.364561 120.08332 181.896294 118.397787 
Q 183.55045 116.564444 186.460172 116.564444 
z
M 186.104286 116.564444 
L 186.104286 116.564444 
z
" style="fill:#0000ff;"/>
   </g>
   <g id="patch_33">
    <path clip-path="url(#pb478c47eb5)" d="M 191.957895 104.026667 
L 191.957895 105.520495 
L 187.14316 105.520495 
L 187.14316 116.564444 
L 185.179296 116.564444 
L 185.179296 105.520495 
L 180.364561 105.520495 
L 180.364561 104.026667 
L 191.957895 104.026667 
z
" style="fill:#ff0000;"/>
   </g>
   <g id="patch_34">
    <path clip-path="url(#pb478c47eb5)" d="M 186.34367 28.908844 
Q 188.13215 28.908844 189.436884 32.796125 
Q 191.327642 38.378261 191.750575 52.372473 
L 190.050551 52.372473 
Q 189.738189 44.551264 188.762403 40.974965 
Q 187.786617 37.398666 186.299441 37.398666 
Q 184.538604 37.398666 183.333384 44.846697 
Q 182.128163 52.279179 182.128163 67.0042 
Q 182.128163 79.723384 183.120535 87.715635 
Q 184.115671 95.707885 186.360255 95.707885 
Q 188.079629 95.707885 189.20745 90.1102 
Q 190.33527 84.496966 190.360149 71.948822 
L 186.387898 71.948822 
L 186.387898 63.941022 
L 191.957895 63.941022 
L 191.957895 102.129673 
L 190.852188 102.129673 
L 190.437548 92.940141 
Q 189.566804 98.335687 188.892323 100.434819 
Q 187.758974 104.026667 186.014722 104.026667 
Q 183.761845 104.026667 182.136456 95.816729 
Q 180.364561 85.507659 180.364561 67.53287 
Q 180.364561 49.604729 182.092228 39.015775 
Q 183.734202 28.908844 186.34367 28.908844 
z
M 186.05895 28.8 
L 186.05895 28.8 
z
" style="fill:#ffa600;"/>
   </g>
   <g id="patch_35">
    <path clip-path="url(#pb478c47eb5)" d="M 198.663681 129.102222 
Q 201.14634 129.102222 202.515788 130.295061 
Q 203.885236 131.485308 204.036132 132.999695 
L 202.310798 132.999695 
Q 202.017548 131.850939 201.140645 131.179318 
Q 200.263743 130.505105 198.680763 130.505105 
Q 196.750439 130.505105 195.563204 131.742027 
Q 194.37597 132.976357 194.37597 135.527995 
Q 194.37597 137.62065 195.446474 138.922401 
Q 196.519825 140.221559 198.646598 140.221559 
Q 200.602546 140.221559 201.627497 138.852387 
Q 202.168443 138.131497 202.43607 136.954216 
L 204.161404 136.954216 
Q 203.93079 138.834235 202.632518 140.107461 
Q 201.075163 141.64 198.433067 141.64 
Q 196.155398 141.64 194.606584 140.382333 
Q 192.56807 138.72273 192.56807 135.253124 
Q 192.56807 132.621098 194.099802 130.935564 
Q 195.753959 129.102222 198.663681 129.102222 
z
M 198.307795 129.102222 
L 198.307795 129.102222 
z
" style="fill:#0000ff;"/>
   </g>
   <g id="patch_36">
    <path clip-path="url(#pb478c47eb5)" d="M 198.547178 116.582585 
Q 200.335659 116.582585 201.640393 117.230465 
Q 203.531151 118.160821 203.954084 120.49319 
L 202.25406 120.49319 
Q 201.941698 119.189655 200.965912 118.593605 
Q 199.990125 117.997555 198.50295 117.997555 
Q 196.742112 117.997555 195.536892 119.238894 
Q 194.331672 120.477641 194.331672 122.931811 
Q 194.331672 125.051675 195.324044 126.383717 
Q 196.31918 127.715759 198.563764 127.715759 
Q 200.283138 127.715759 201.410958 126.782811 
Q 202.538779 125.847272 202.563658 123.755915 
L 198.591407 123.755915 
L 198.591407 122.421282 
L 204.161404 122.421282 
L 204.161404 128.786057 
L 203.055697 128.786057 
L 202.641057 127.254468 
Q 201.770313 128.153726 201.095832 128.503581 
Q 199.962483 129.102222 198.218231 129.102222 
Q 195.965354 129.102222 194.339965 127.733899 
Q 192.56807 126.015721 192.56807 123.019923 
Q 192.56807 120.031899 194.295737 118.267074 
Q 195.937711 116.582585 198.547178 116.582585 
z
M 198.262459 116.564444 
L 198.262459 116.564444 
z
" style="fill:#ffa600;"/>
   </g>
   <g id="patch_37">
    <path clip-path="url(#pb478c47eb5)" d="M 204.161404 104.026667 
L 204.161404 105.520495 
L 199.346669 105.520495 
L 199.346669 116.564444 
L 197.382805 116.564444 
L 197.382805 105.520495 
L 192.56807 105.520495 
L 192.56807 104.026667 
L 204.161404 104.026667 
z
" style="fill:#ff0000;"/>
   </g>
   <g id="patch_38">
    <path clip-path="url(#pb478c47eb5)" d="M 200.34978 73.205199 
L 198.377471 39.975035 
L 196.280653 73.205199 
L 200.34978 73.205199 
z
M 197.457814 28.8 
L 199.447102 28.8 
L 204.161404 104.026667 
L 202.231539 104.026667 
L 200.915723 81.496354 
L 195.776964 81.496354 
L 194.370597 104.026667 
L 192.56807 104.026667 
L 197.457814 28.8 
z
M 198.368981 28.8 
L 198.368981 28.8 
z
" style="fill:#008000;"/>
   </g>
   <g id="patch_39">
    <path clip-path="url(#pb478c47eb5)" d="M 210.86719 129.102222 
Q 213.349848 129.102222 214.719297 130.295061 
Q 216.088745 131.485308 216.239641 132.999695 
L 214.514307 132.999695 
Q 214.221057 131.850939 213.344154 131.179318 
Q 212.467252 130.505105 210.884272 130.505105 
Q 208.953948 130.505105 207.766713 131.742027 
Q 206.579478 132.976357 206.579478 135.527995 
Q 206.579478 137.62065 207.649983 138.922401 
Q 208.723334 140.221559 210.850107 140.221559 
Q 212.806055 140.221559 213.831006 138.852387 
Q 214.371952 138.131497 214.639578 136.954216 
L 216.364912 136.954216 
Q 216.134298 138.834235 214.836027 140.107461 
Q 213.278671 141.64 210.636576 141.64 
Q 208.358907 141.64 206.810092 140.382333 
Q 204.771579 138.72273 204.771579 135.253124 
Q 204.771579 132.621098 206.303311 130.935564 
Q 207.957468 129.102222 210.86719 129.102222 
z
M 210.511304 129.102222 
L 210.511304 129.102222 
z
" style="fill:#0000ff;"/>
   </g>
   <g id="patch_40">
    <path clip-path="url(#pb478c47eb5)" d="M 210.750687 116.582585 
Q 212.539168 116.582585 213.843901 117.230465 
Q 215.73466 118.160821 216.157592 120.49319 
L 214.457568 120.49319 
Q 214.145206 119.189655 213.16942 118.593605 
Q 212.193634 117.997555 210.706459 117.997555 
Q 208.945621 117.997555 207.740401 119.238894 
Q 206.535181 120.477641 206.535181 122.931811 
Q 206.535181 125.051675 207.527553 126.383717 
Q 208.522688 127.715759 210.767273 127.715759 
Q 212.486647 127.715759 213.614467 126.782811 
Q 214.742288 125.847272 214.767166 123.755915 
L 210.794915 123.755915 
L 210.794915 122.421282 
L 216.364912 122.421282 
L 216.364912 128.786057 
L 215.259206 128.786057 
L 214.844566 127.254468 
Q 213.973822 128.153726 213.299341 128.503581 
Q 212.165992 129.102222 210.421739 129.102222 
Q 208.168862 129.102222 206.543474 127.733899 
Q 204.771579 126.015721 204.771579 123.019923 
Q 204.771579 120.031899 206.499245 118.267074 
Q 208.14122 116.582585 210.750687 116.582585 
z
M 210.465968 116.564444 
L 210.465968 116.564444 
z
" style="fill:#ffa600;"/>
   </g>
   <g id="patch_41">
    <path clip-path="url(#pb478c47eb5)" d="M 216.364912 104.026667 
L 216.364912 105.520495 
L 211.550178 105.520495 
L 211.550178 116.564444 
L 209.586314 116.564444 
L 209.586314 105.520495 
L 204.771579 105.520495 
L 204.771579 104.026667 
L 216.364912 104.026667 
z
" style="fill:#ff0000;"/>
   </g>
   <g id="patch_42">
    <path clip-path="url(#pb478c47eb5)" d="M 212.553289 73.205199 
L 210.580979 39.975035 
L 208.484162 73.205199 
L 212.553289 73.205199 
z
M 209.661323 28.8 
L 211.650611 28.8 
L 216.364912 104.026667 
L 214.435048 104.026667 
L 213.119232 81.496354 
L 207.980473 81.496354 
L 206.574106 104.026667 
L 204.771579 104.026667 
L 209.661323 28.8 
z
M 210.57249 28.8 
L 210.57249 28.8 
z
" style="fill:#008000;"/>
   </g>
   <g id="patch_43">
    <path clip-path="url(#pb478c47eb5)" d="M 223.070698 129.102222 
Q 225.553357 129.102222 226.922805 130.295061 
Q 228.292254 131.485308 228.443149 132.999695 
L 226.717815 132.999695 
Q 226.424565 131.850939 225.547663 131.179318 
Q 224.670761 130.505105 223.087781 130.505105 
Q 221.157457 130.505105 219.970222 131.742027 
Q 218.782987 132.976357 218.782987 135.527995 
Q 218.782987 137.62065 219.853491 138.922401 
Q 220.926843 140.221559 223.053616 140.221559 
Q 225.009564 140.221559 226.034515 138.852387 
Q 226.575461 138.131497 226.843087 136.954216 
L 228.568421 136.954216 
Q 228.337807 138.834235 227.039536 140.107461 
Q 225.48218 141.64 222.840084 141.64 
Q 220.562416 141.64 219.013601 140.382333 
Q 216.975088 138.72273 216.975088 135.253124 
Q 216.975088 132.621098 218.50682 130.935564 
Q 220.160977 129.102222 223.070698 129.102222 
z
M 222.714813 129.102222 
L 222.714813 129.102222 
z
" style="fill:#0000ff;"/>
   </g>
   <g id="patch_44">
    <path clip-path="url(#pb478c47eb5)" d="M 222.954196 116.582585 
Q 224.742676 116.582585 226.04741 117.230465 
Q 227.938168 118.160821 228.361101 120.49319 
L 226.661077 120.49319 
Q 226.348715 119.189655 225.372929 118.593605 
Q 224.397143 117.997555 222.909968 117.997555 
Q 221.14913 117.997555 219.94391 119.238894 
Q 218.73869 120.477641 218.73869 122.931811 
Q 218.73869 125.051675 219.731061 126.383717 
Q 220.726197 127.715759 222.970782 127.715759 
Q 224.690155 127.715759 225.817976 126.782811 
Q 226.945797 125.847272 226.970675 123.755915 
L 222.998424 123.755915 
L 222.998424 122.421282 
L 228.568421 122.421282 
L 228.568421 128.786057 
L 227.462714 128.786057 
L 227.048075 127.254468 
Q 226.177331 128.153726 225.50285 128.503581 
Q 224.3695 129.102222 222.625248 129.102222 
Q 220.372371 129.102222 218.746982 127.733899 
Q 216.975088 126.015721 216.975088 123.019923 
Q 216.975088 120.031899 218.702754 118.267074 
Q 220.344728 116.582585 222.954196 116.582585 
z
M 222.669477 116.564444 
L 222.669477 116.564444 
z
" style="fill:#ffa600;"/>
   </g>
   <g id="patch_45">
    <path clip-path="url(#pb478c47eb5)" d="M 228.568421 104.026667 
L 228.568421 105.520495 
L 223.753686 105.520495 
L 223.753686 116.564444 
L 221.789822 116.564444 
L 221.789822 105.520495 
L 216.975088 105.520495 
L 216.975088 104.026667 
L 228.568421 104.026667 
z
" style="fill:#ff0000;"/>
   </g>
   <g id="patch_46">
    <path clip-path="url(#pb478c47eb5)" d="M 224.756798 73.205199 
L 222.784488 39.975035 
L 220.687671 73.205199 
L 224.756798 73.205199 
z
M 221.864831 28.8 
L 223.85412 28.8 
L 228.568421 104.026667 
L 226.638557 104.026667 
L 225.32274 81.496354 
L 220.183982 81.496354 
L 218.777615 104.026667 
L 216.975088 104.026667 
L 221.864831 28.8 
z
M 222.775999 28.8 
L 222.775999 28.8 
z
" style="fill:#008000;"/>
   </g>
   <g id="patch_47">
    <path clip-path="url(#pb478c47eb5)" d="M 235.274207 129.102222 
Q 237.756866 129.102222 239.126314 130.295061 
Q 240.495763 131.485308 240.646658 132.999695 
L 238.921324 132.999695 
Q 238.628074 131.850939 237.751172 131.179318 
Q 236.874269 130.505105 235.29129 130.505105 
Q 233.360966 130.505105 232.173731 131.742027 
Q 230.986496 132.976357 230.986496 135.527995 
Q 230.986496 137.62065 232.057 138.922401 
Q 233.130352 140.221559 235.257125 140.221559 
Q 237.213073 140.221559 238.238023 138.852387 
Q 238.77897 138.131497 239.046596 136.954216 
L 240.77193 136.954216 
Q 240.541316 138.834235 239.243045 140.107461 
Q 237.685689 141.64 235.043593 141.64 
Q 232.765925 141.64 231.21711 140.382333 
Q 229.178596 138.72273 229.178596 135.253124 
Q 229.178596 132.621098 230.710329 130.935564 
Q 232.364485 129.102222 235.274207 129.102222 
z
M 234.918321 129.102222 
L 234.918321 129.102222 
z
" style="fill:#0000ff;"/>
   </g>
   <g id="patch_48">
    <path clip-path="url(#pb478c47eb5)" d="M 235.157705 116.582585 
Q 236.946185 116.582585 238.250919 117.230465 
Q 240.141677 118.160821 240.56461 120.49319 
L 238.864586 120.49319 
Q 238.552224 119.189655 237.576438 118.593605 
Q 236.600652 117.997555 235.113476 117.997555 
Q 233.352639 117.997555 232.147419 119.238894 
Q 230.942198 120.477641 230.942198 122.931811 
Q 230.942198 125.051675 231.93457 126.383717 
Q 232.929706 127.715759 235.17429 127.715759 
Q 236.893664 127.715759 238.021485 126.782811 
Q 239.149305 125.847272 239.174184 123.755915 
L 235.201933 123.755915 
L 235.201933 122.421282 
L 240.77193 122.421282 
L 240.77193 128.786057 
L 239.666223 128.786057 
L 239.251583 127.254468 
Q 238.380839 128.153726 237.706358 128.503581 
Q 236.573009 129.102222 234.828757 129.102222 
Q 232.57588 129.102222 230.950491 127.733899 
Q 229.178596 126.015721 229.178596 123.019923 
Q 229.178596 120.031899 230.906263 118.267074 
Q 232.548237 116.582585 235.157705 116.582585 
z
M 234.872985 116.564444 
L 234.872985 116.564444 
z
" style="fill:#ffa600;"/>
   </g>
   <g id="patch_49">
    <path clip-path="url(#pb478c47eb5)" d="M 240.77193 104.026667 
L 240.77193 105.520495 
L 235.957195 105.520495 
L 235.957195 116.564444 
L 233.993331 116.564444 
L 233.993331 105.520495 
L 229.178596 105.520495 
L 229.178596 104.026667 
L 240.77193 104.026667 
z
" style="fill:#ff0000;"/>
   </g>
   <g id="patch_50">
    <path clip-path="url(#pb478c47eb5)" d="M 236.960307 73.205199 
L 234.987997 39.975035 
L 232.89118 73.205199 
L 236.960307 73.205199 
z
M 234.06834 28.8 
L 236.057628 28.8 
L 240.77193 104.026667 
L 238.842066 104.026667 
L 237.526249 81.496354 
L 232.387491 81.496354 
L 230.981124 104.026667 
L 229.178596 104.026667 
L 234.06834 28.8 
z
M 234.979508 28.8 
L 234.979508 28.8 
z
" style="fill:#008000;"/>
   </g>
   <g id="patch_51">
    <path clip-path="url(#pb478c47eb5)" d="M 249.163815 136.503089 
L 247.191506 130.964728 
L 245.094688 136.503089 
L 249.163815 136.503089 
z
M 246.271849 129.102222 
L 248.261137 129.102222 
L 252.975439 141.64 
L 251.045574 141.64 
L 249.729758 137.884948 
L 244.591 137.884948 
L 243.184632 141.64 
L 241.382105 141.64 
L 246.271849 129.102222 
z
M 247.183016 129.102222 
L 247.183016 129.102222 
z
" style="fill:#008000;"/>
   </g>
   <g id="patch_52">
    <path clip-path="url(#pb478c47eb5)" d="M 247.477716 116.564444 
Q 249.960375 116.564444 251.329823 117.757284 
Q 252.699271 118.94753 252.850167 120.461917 
L 251.124833 120.461917 
Q 250.831583 119.313161 249.954681 118.641541 
Q 249.077778 117.967327 247.494798 117.967327 
Q 245.564474 117.967327 244.37724 119.20425 
Q 243.190005 120.438579 243.190005 122.990218 
Q 243.190005 125.082873 244.260509 126.384623 
Q 245.33386 127.683781 247.460633 127.683781 
Q 249.416581 127.683781 250.441532 126.314609 
Q 250.982479 125.593719 251.250105 124.416438 
L 252.975439 124.416438 
Q 252.744825 126.296457 251.446554 127.569683 
Q 249.889198 129.102222 247.247102 129.102222 
Q 244.969433 129.102222 243.420619 127.844555 
Q 241.382105 126.184952 241.382105 122.715346 
Q 241.382105 120.08332 242.913837 118.397787 
Q 244.567994 116.564444 247.477716 116.564444 
z
M 247.12183 116.564444 
L 247.12183 116.564444 
z
" style="fill:#0000ff;"/>
   </g>
   <g id="patch_53">
    <path clip-path="url(#pb478c47eb5)" d="M 252.975439 104.026667 
L 252.975439 105.520495 
L 248.160704 105.520495 
L 248.160704 116.564444 
L 246.19684 116.564444 
L 246.19684 105.520495 
L 241.382105 105.520495 
L 241.382105 104.026667 
L 252.975439 104.026667 
z
" style="fill:#ff0000;"/>
   </g>
   <g id="patch_54">
    <path clip-path="url(#pb478c47eb5)" d="M 247.361214 28.908844 
Q 249.149694 28.908844 250.454428 32.796125 
Q 252.345186 38.378261 252.768119 52.372473 
L 251.068095 52.372473 
Q 250.755733 44.551264 249.779947 40.974965 
Q 248.804161 37.398666 247.316985 37.398666 
Q 245.556148 37.398666 244.350927 44.846697 
Q 243.145707 52.279179 243.145707 67.0042 
Q 243.145707 79.723384 244.138079 87.715635 
Q 245.133215 95.707885 247.377799 95.707885 
Q 249.097173 95.707885 250.224994 90.1102 
Q 251.352814 84.496966 251.377693 71.948822 
L 247.405442 71.948822 
L 247.405442 63.941022 
L 252.975439 63.941022 
L 252.975439 102.129673 
L 251.869732 102.129673 
L 251.455092 92.940141 
Q 250.584348 98.335687 249.909867 100.434819 
Q 248.776518 104.026667 247.032266 104.026667 
Q 244.779389 104.026667 243.154 95.816729 
Q 241.382105 85.507659 241.382105 67.53287 
Q 241.382105 49.604729 243.109772 39.015775 
Q 244.751746 28.908844 247.361214 28.908844 
z
M 247.076494 28.8 
L 247.076494 28.8 
z
" style="fill:#ffa600;"/>
   </g>
   <g id="patch_55">
    <path clip-path="url(#pb478c47eb5)" d="M 259.681225 129.102222 
Q 262.163884 129.102222 263.533332 130.295061 
Q 264.90278 131.485308 265.053676 132.999695 
L 263.328342 132.999695 
Q 263.035092 131.850939 262.158189 131.179318 
Q 261.281287 130.505105 259.698307 130.505105 
Q 257.767983 130.505105 256.580748 131.742027 
Q 255.393514 132.976357 255.393514 135.527995 
Q 255.393514 137.62065 256.464018 138.922401 
Q 257.537369 140.221559 259.664142 140.221559 
Q 261.62009 140.221559 262.645041 138.852387 
Q 263.185987 138.131497 263.453613 136.954216 
L 265.178947 136.954216 
Q 264.948333 138.834235 263.650062 140.107461 
Q 262.092706 141.64 259.450611 141.64 
Q 257.172942 141.64 255.624127 140.382333 
Q 253.585614 138.72273 253.585614 135.253124 
Q 253.585614 132.621098 255.117346 130.935564 
Q 256.771503 129.102222 259.681225 129.102222 
z
M 259.325339 129.102222 
L 259.325339 129.102222 
z
" style="fill:#0000ff;"/>
   </g>
   <g id="patch_56">
    <path clip-path="url(#pb478c47eb5)" d="M 259.564722 116.582585 
Q 261.353203 116.582585 262.657936 117.230465 
Q 264.548695 118.160821 264.971627 120.49319 
L 263.271604 120.49319 
Q 262.959241 119.189655 261.983455 118.593605 
Q 261.007669 117.997555 259.520494 117.997555 
Q 257.759656 117.997555 256.554436 119.238894 
Q 255.349216 120.477641 255.349216 122.931811 
Q 255.349216 125.051675 256.341588 126.383717 
Q 257.336724 127.715759 259.581308 127.715759 
Q 261.300682 127.715759 262.428502 126.782811 
Q 263.556323 125.847272 263.581201 123.755915 
L 259.608951 123.755915 
L 259.608951 122.421282 
L 265.178947 122.421282 
L 265.178947 128.786057 
L 264.073241 128.786057 
L 263.658601 127.254468 
Q 262.787857 128.153726 262.113376 128.503581 
Q 260.980027 129.102222 259.235775 129.102222 
Q 256.982897 129.102222 255.357509 127.733899 
Q 253.585614 126.015721 253.585614 123.019923 
Q 253.585614 120.031899 255.313281 118.267074 
Q 256.955255 116.582585 259.564722 116.582585 
z
M 259.280003 116.564444 
L 259.280003 116.564444 
z
" style="fill:#ffa600;"/>
   </g>
   <g id="patch_57">
    <path clip-path="url(#pb478c47eb5)" d="M 265.178947 104.026667 
L 265.178947 105.520495 
L 260.364213 105.520495 
L 260.364213 116.564444 
L 258.400349 116.564444 
L 258.400349 105.520495 
L 253.585614 105.520495 
L 253.585614 104.026667 
L 265.178947 104.026667 
z
" style="fill:#ff0000;"/>
   </g>
   <g id="patch_58">
    <path clip-path="url(#pb478c47eb5)" d="M 261.367324 73.205199 
L 259.395014 39.975035 
L 257.298197 73.205199 
L 261.367324 73.205199 
z
M 258.475358 28.8 
L 260.464646 28.8 
L 265.178947 104.026667 
L 263.249083 104.026667 
L 261.933267 81.496354 
L 256.794508 81.496354 
L 255.388141 104.026667 
L 253.585614 104.026667 
L 258.475358 28.8 
z
M 259.386525 28.8 
L 259.386525 28.8 
z
" style="fill:#008000;"/>
   </g>
   <g id="patch_59">
    <path clip-path="url(#pb478c47eb5)" d="M 273.570833 136.503089 
L 271.598523 130.964728 
L 269.501706 136.503089 
L 273.570833 136.503089 
z
M 270.678867 129.102222 
L 272.668155 129.102222 
L 277.382456 141.64 
L 275.452592 141.64 
L 274.136776 137.884948 
L 268.998017 137.884948 
L 267.59165 141.64 
L 265.789123 141.64 
L 270.678867 129.102222 
z
M 271.590034 129.102222 
L 271.590034 129.102222 
z
" style="fill:#008000;"/>
   </g>
   <g id="patch_60">
    <path clip-path="url(#pb478c47eb5)" d="M 271.768231 116.582585 
Q 273.556711 116.582585 274.861445 117.230465 
Q 276.752203 118.160821 277.175136 120.49319 
L 275.475112 120.49319 
Q 275.16275 119.189655 274.186964 118.593605 
Q 273.211178 117.997555 271.724003 117.997555 
Q 269.963165 117.997555 268.757945 119.238894 
Q 267.552725 120.477641 267.552725 122.931811 
Q 267.552725 125.051675 268.545096 126.383717 
Q 269.540232 127.715759 271.784817 127.715759 
Q 273.50419 127.715759 274.632011 126.782811 
Q 275.759832 125.847272 275.78471 123.755915 
L 271.812459 123.755915 
L 271.812459 122.421282 
L 277.382456 122.421282 
L 277.382456 128.786057 
L 276.27675 128.786057 
L 275.86211 127.254468 
Q 274.991366 128.153726 274.316885 128.503581 
Q 273.183535 129.102222 271.439283 129.102222 
Q 269.186406 129.102222 267.561018 127.733899 
Q 265.789123 126.015721 265.789123 123.019923 
Q 265.789123 120.031899 267.516789 118.267074 
Q 269.158764 116.582585 271.768231 116.582585 
z
M 271.483512 116.564444 
L 271.483512 116.564444 
z
" style="fill:#ffa600;"/>
   </g>
   <g id="patch_61">
    <path clip-path="url(#pb478c47eb5)" d="M 277.382456 104.026667 
L 277.382456 105.520495 
L 272.567721 105.520495 
L 272.567721 116.564444 
L 270.603857 116.564444 
L 270.603857 105.520495 
L 265.789123 105.520495 
L 265.789123 104.026667 
L 277.382456 104.026667 
z
" style="fill:#ff0000;"/>
   </g>
   <g id="patch_62">
    <path clip-path="url(#pb478c47eb5)" d="M 271.884733 28.8 
Q 274.367392 28.8 275.736841 35.957036 
Q 277.106289 43.098512 277.257184 52.184836 
L 275.53185 52.184836 
Q 275.238601 45.292299 274.361698 41.262577 
Q 273.484796 37.217296 271.901816 37.217296 
Q 269.971492 37.217296 268.784257 44.638831 
Q 267.597022 52.044807 267.597022 67.354639 
Q 267.597022 79.910569 268.667527 87.721073 
Q 269.740878 95.516018 271.867651 95.516018 
Q 273.823599 95.516018 274.84855 87.300986 
Q 275.389496 82.975647 275.657122 75.911964 
L 277.382456 75.911964 
Q 277.151842 87.192074 275.853571 94.831432 
Q 274.296215 104.026667 271.65412 104.026667 
Q 269.376451 104.026667 267.827636 96.480662 
Q 265.789123 86.523047 265.789123 65.705409 
Q 265.789123 49.913255 267.320855 39.800052 
Q 268.975012 28.8 271.884733 28.8 
z
M 271.528848 28.8 
L 271.528848 28.8 
z
" style="fill:#0000ff;"/>
   </g>
   <g id="patch_63">
    <path clip-path="url(#pb478c47eb5)" d="M 284.088242 129.102222 
Q 286.570901 129.102222 287.940349 130.295061 
Q 289.309798 131.485308 289.460693 132.999695 
L 287.735359 132.999695 
Q 287.442109 131.850939 286.565207 131.179318 
Q 285.688304 130.505105 284.105325 130.505105 
Q 282.175001 130.505105 280.987766 131.742027 
Q 279.800531 132.976357 279.800531 135.527995 
Q 279.800531 137.62065 280.871035 138.922401 
Q 281.944387 140.221559 284.07116 140.221559 
Q 286.027108 140.221559 287.052059 138.852387 
Q 287.593005 138.131497 287.860631 136.954216 
L 289.585965 136.954216 
Q 289.355351 138.834235 288.05708 140.107461 
Q 286.499724 141.64 283.857628 141.64 
Q 281.57996 141.64 280.031145 140.382333 
Q 277.992632 138.72273 277.992632 135.253124 
Q 277.992632 132.621098 279.524364 130.935564 
Q 281.178521 129.102222 284.088242 129.102222 
z
M 283.732357 129.102222 
L 283.732357 129.102222 
z
" style="fill:#0000ff;"/>
   </g>
   <g id="patch_64">
    <path clip-path="url(#pb478c47eb5)" d="M 283.97174 116.582585 
Q 285.76022 116.582585 287.064954 117.230465 
Q 288.955712 118.160821 289.378645 120.49319 
L 287.678621 120.49319 
Q 287.366259 119.189655 286.390473 118.593605 
Q 285.414687 117.997555 283.927512 117.997555 
Q 282.166674 117.997555 280.961454 119.238894 
Q 279.756234 120.477641 279.756234 122.931811 
Q 279.756234 125.051675 280.748605 126.383717 
Q 281.743741 127.715759 283.988325 127.715759 
Q 285.707699 127.715759 286.83552 126.782811 
Q 287.963341 125.847272 287.988219 123.755915 
L 284.015968 123.755915 
L 284.015968 122.421282 
L 289.585965 122.421282 
L 289.585965 128.786057 
L 288.480258 128.786057 
L 288.065618 127.254468 
Q 287.194874 128.153726 286.520393 128.503581 
Q 285.387044 129.102222 283.642792 129.102222 
Q 281.389915 129.102222 279.764526 127.733899 
Q 277.992632 126.015721 277.992632 123.019923 
Q 277.992632 120.031899 279.720298 118.267074 
Q 281.362272 116.582585 283.97174 116.582585 
z
M 283.68702 116.564444 
L 283.68702 116.564444 
z
" style="fill:#ffa600;"/>
   </g>
   <g id="patch_65">
    <path clip-path="url(#pb478c47eb5)" d="M 289.585965 104.026667 
L 289.585965 105.520495 
L 284.77123 105.520495 
L 284.77123 116.564444 
L 282.807366 116.564444 
L 282.807366 105.520495 
L 277.992632 105.520495 
L 277.992632 104.026667 
L 289.585965 104.026667 
z
" style="fill:#ff0000;"/>
   </g>
   <g id="patch_66">
    <path clip-path="url(#pb478c47eb5)" d="M 285.774342 73.205199 
L 283.802032 39.975035 
L 281.705215 73.205199 
L 285.774342 73.205199 
z
M 282.882375 28.8 
L 284.871663 28.8 
L 289.585965 104.026667 
L 287.656101 104.026667 
L 286.340284 81.496354 
L 281.201526 81.496354 
L 279.795159 104.026667 
L 277.992632 104.026667 
L 282.882375 28.8 
z
M 283.793543 28.8 
L 283.793543 28.8 
z
" style="fill:#008000;"/>
   </g>
   <g id="patch_67">
    <path clip-path="url(#pb478c47eb5)" d="M 296.291751 129.102222 
Q 298.77441 129.102222 300.143858 130.295061 
Q 301.513306 131.485308 301.664202 132.999695 
L 299.938868 132.999695 
Q 299.645618 131.850939 298.768716 131.179318 
Q 297.891813 130.505105 296.308834 130.505105 
Q 294.378509 130.505105 293.191275 131.742027 
Q 292.00404 132.976357 292.00404 135.527995 
Q 292.00404 137.62065 293.074544 138.922401 
Q 294.147895 140.221559 296.274669 140.221559 
Q 298.230616 140.221559 299.255567 138.852387 
Q 299.796514 138.131497 300.06414 136.954216 
L 301.789474 136.954216 
Q 301.55886 138.834235 300.260589 140.107461 
Q 298.703233 141.64 296.061137 141.64 
Q 293.783468 141.64 292.234654 140.382333 
Q 290.19614 138.72273 290.19614 135.253124 
Q 290.19614 132.621098 291.727873 130.935564 
Q 293.382029 129.102222 296.291751 129.102222 
z
M 295.935865 129.102222 
L 295.935865 129.102222 
z
" style="fill:#0000ff;"/>
   </g>
   <g id="patch_68">
    <path clip-path="url(#pb478c47eb5)" d="M 296.175249 116.582585 
Q 297.963729 116.582585 299.268463 117.230465 
Q 301.159221 118.160821 301.582154 120.49319 
L 299.88213 120.49319 
Q 299.569768 119.189655 298.593982 118.593605 
Q 297.618196 117.997555 296.13102 117.997555 
Q 294.370183 117.997555 293.164962 119.238894 
Q 291.959742 120.477641 291.959742 122.931811 
Q 291.959742 125.051675 292.952114 126.383717 
Q 293.94725 127.715759 296.191834 127.715759 
Q 297.911208 127.715759 299.039029 126.782811 
Q 300.166849 125.847272 300.191728 123.755915 
L 296.219477 123.755915 
L 296.219477 122.421282 
L 301.789474 122.421282 
L 301.789474 128.786057 
L 300.683767 128.786057 
L 300.269127 127.254468 
Q 299.398383 128.153726 298.723902 128.503581 
Q 297.590553 129.102222 295.846301 129.102222 
Q 293.593424 129.102222 291.968035 127.733899 
Q 290.19614 126.015721 290.19614 123.019923 
Q 290.19614 120.031899 291.923807 118.267074 
Q 293.565781 116.582585 296.175249 116.582585 
z
M 295.890529 116.564444 
L 295.890529 116.564444 
z
" style="fill:#ffa600;"/>
   </g>
   <g id="patch_69">
    <path clip-path="url(#pb478c47eb5)" d="M 301.789474 104.026667 
L 301.789474 105.520495 
L 296.974739 105.520495 
L 296.974739 116.564444 
L 295.010875 116.564444 
L 295.010875 105.520495 
L 290.19614 105.520495 
L 290.19614 104.026667 
L 301.789474 104.026667 
z
" style="fill:#ff0000;"/>
   </g>
   <g id="patch_70">
    <path clip-path="url(#pb478c47eb5)" d="M 297.977851 73.205199 
L 296.005541 39.975035 
L 293.908724 73.205199 
L 297.977851 73.205199 
z
M 295.085884 28.8 
L 297.075172 28.8 
L 301.789474 104.026667 
L 299.85961 104.026667 
L 298.543793 81.496354 
L 293.405035 81.496354 
L 291.998667 104.026667 
L 290.19614 104.026667 
L 295.085884 28.8 
z
M 295.997052 28.8 
L 295.997052 28.8 
z
" style="fill:#008000;"/>
   </g>
   <g id="patch_71">
    <path clip-path="url(#pb478c47eb5)" d="M 310.181359 136.503089 
L 308.209049 130.964728 
L 306.112232 136.503089 
L 310.181359 136.503089 
z
M 307.289393 129.102222 
L 309.278681 129.102222 
L 313.992982 141.64 
L 312.063118 141.64 
L 310.747302 137.884948 
L 305.608543 137.884948 
L 304.202176 141.64 
L 302.399649 141.64 
L 307.289393 129.102222 
z
M 308.20056 129.102222 
L 308.20056 129.102222 
z
" style="fill:#008000;"/>
   </g>
   <g id="patch_72">
    <path clip-path="url(#pb478c47eb5)" d="M 308.378757 116.582585 
Q 310.167238 116.582585 311.471971 117.230465 
Q 313.36273 118.160821 313.785662 120.49319 
L 312.085639 120.49319 
Q 311.773277 119.189655 310.79749 118.593605 
Q 309.821704 117.997555 308.334529 117.997555 
Q 306.573691 117.997555 305.368471 119.238894 
Q 304.163251 120.477641 304.163251 122.931811 
Q 304.163251 125.051675 305.155623 126.383717 
Q 306.150759 127.715759 308.395343 127.715759 
Q 310.114717 127.715759 311.242537 126.782811 
Q 312.370358 125.847272 312.395236 123.755915 
L 308.422986 123.755915 
L 308.422986 122.421282 
L 313.992982 122.421282 
L 313.992982 128.786057 
L 312.887276 128.786057 
L 312.472636 127.254468 
Q 311.601892 128.153726 310.927411 128.503581 
Q 309.794062 129.102222 308.04981 129.102222 
Q 305.796933 129.102222 304.171544 127.733899 
Q 302.399649 126.015721 302.399649 123.019923 
Q 302.399649 120.031899 304.127316 118.267074 
Q 305.76929 116.582585 308.378757 116.582585 
z
M 308.094038 116.564444 
L 308.094038 116.564444 
z
" style="fill:#ffa600;"/>
   </g>
   <g id="patch_73">
    <path clip-path="url(#pb478c47eb5)" d="M 313.992982 104.026667 
L 313.992982 105.520495 
L 309.178248 105.520495 
L 309.178248 116.564444 
L 307.214384 116.564444 
L 307.214384 105.520495 
L 302.399649 105.520495 
L 302.399649 104.026667 
L 313.992982 104.026667 
z
" style="fill:#ff0000;"/>
   </g>
   <g id="patch_74">
    <path clip-path="url(#pb478c47eb5)" d="M 308.49526 28.8 
Q 310.977919 28.8 312.347367 35.957036 
Q 313.716815 43.098512 313.867711 52.184836 
L 312.142377 52.184836 
Q 311.849127 45.292299 310.972224 41.262577 
Q 310.095322 37.217296 308.512342 37.217296 
Q 306.582018 37.217296 305.394783 44.638831 
Q 304.207549 52.044807 304.207549 67.354639 
Q 304.207549 79.910569 305.278053 87.721073 
Q 306.351404 95.516018 308.478177 95.516018 
Q 310.434125 95.516018 311.459076 87.300986 
Q 312.000022 82.975647 312.267648 75.911964 
L 313.992982 75.911964 
Q 313.762369 87.192074 312.464097 94.831432 
Q 310.906741 104.026667 308.264646 104.026667 
Q 305.986977 104.026667 304.438163 96.480662 
Q 302.399649 86.523047 302.399649 65.705409 
Q 302.399649 49.913255 303.931381 39.800052 
Q 305.585538 28.8 308.49526 28.8 
z
M 308.139374 28.8 
L 308.139374 28.8 
z
" style="fill:#0000ff;"/>
   </g>
   <g id="patch_75">
    <path clip-path="url(#pb478c47eb5)" d="M 322.384868 136.503089 
L 320.412558 130.964728 
L 318.315741 136.503089 
L 322.384868 136.503089 
z
M 319.492902 129.102222 
L 321.48219 129.102222 
L 326.196491 141.64 
L 324.266627 141.64 
L 322.950811 137.884948 
L 317.812052 137.884948 
L 316.405685 141.64 
L 314.603158 141.64 
L 319.492902 129.102222 
z
M 320.404069 129.102222 
L 320.404069 129.102222 
z
" style="fill:#008000;"/>
   </g>
   <g id="patch_76">
    <path clip-path="url(#pb478c47eb5)" d="M 320.698769 116.564444 
Q 323.181427 116.564444 324.550876 117.757284 
Q 325.920324 118.94753 326.071219 120.461917 
L 324.345885 120.461917 
Q 324.052636 119.313161 323.175733 118.641541 
Q 322.298831 117.967327 320.715851 117.967327 
Q 318.785527 117.967327 317.598292 119.20425 
Q 316.411057 120.438579 316.411057 122.990218 
Q 316.411057 125.082873 317.481562 126.384623 
Q 318.554913 127.683781 320.681686 127.683781 
Q 322.637634 127.683781 323.662585 126.314609 
Q 324.203531 125.593719 324.471157 124.416438 
L 326.196491 124.416438 
Q 325.965877 126.296457 324.667606 127.569683 
Q 323.11025 129.102222 320.468155 129.102222 
Q 318.190486 129.102222 316.641671 127.844555 
Q 314.603158 126.184952 314.603158 122.715346 
Q 314.603158 120.08332 316.13489 118.397787 
Q 317.789047 116.564444 320.698769 116.564444 
z
M 320.342883 116.564444 
L 320.342883 116.564444 
z
" style="fill:#0000ff;"/>
   </g>
   <g id="patch_77">
    <path clip-path="url(#pb478c47eb5)" d="M 320.582266 104.044807 
Q 322.370747 104.044807 323.67548 104.692688 
Q 325.566238 105.623043 325.989171 107.955412 
L 324.289147 107.955412 
Q 323.976785 106.651877 323.000999 106.055827 
Q 322.025213 105.459778 320.538038 105.459778 
Q 318.7772 105.459778 317.57198 106.701116 
Q 316.36676 107.939863 316.36676 110.394033 
Q 316.36676 112.513897 317.359132 113.845939 
Q 318.354267 115.177981 320.598852 115.177981 
Q 322.318225 115.177981 323.446046 114.245033 
Q 324.573867 113.309494 324.598745 111.218137 
L 320.626494 111.218137 
L 320.626494 109.883504 
L 326.196491 109.883504 
L 326.196491 116.248279 
L 325.090785 116.248279 
L 324.676145 114.71669 
Q 323.805401 115.615948 323.13092 115.965803 
Q 321.997571 116.564444 320.253318 116.564444 
Q 318.000441 116.564444 316.375053 115.196121 
Q 314.603158 113.477943 314.603158 110.482145 
Q 314.603158 107.494122 316.330824 105.729296 
Q 317.972799 104.044807 320.582266 104.044807 
z
M 320.297547 104.026667 
L 320.297547 104.026667 
z
" style="fill:#ffa600;"/>
   </g>
   <g id="patch_78">
    <path clip-path="url(#pb478c47eb5)" d="M 326.196491 28.8 
L 326.196491 37.762968 
L 321.381757 37.762968 
L 321.381757 104.026667 
L 319.417893 104.026667 
L 319.417893 37.762968 
L 314.603158 37.762968 
L 314.603158 28.8 
L 326.196491 28.8 
z
" style="fill:#ff0000;"/>
   </g>
   <g id="patch_79">
    <path clip-path="url(#pb478c47eb5)" d="M 334.588377 136.503089 
L 332.616067 130.964728 
L 330.51925 136.503089 
L 334.588377 136.503089 
z
M 331.69641 129.102222 
L 333.685698 129.102222 
L 338.4 141.64 
L 336.470136 141.64 
L 335.154319 137.884948 
L 330.015561 137.884948 
L 328.609194 141.64 
L 326.806667 141.64 
L 331.69641 129.102222 
z
M 332.607578 129.102222 
L 332.607578 129.102222 
z
" style="fill:#008000;"/>
   </g>
   <g id="patch_80">
    <path clip-path="url(#pb478c47eb5)" d="M 332.902277 116.564444 
Q 335.384936 116.564444 336.754384 117.757284 
Q 338.123833 118.94753 338.274728 120.461917 
L 336.549394 120.461917 
Q 336.256144 119.313161 335.379242 118.641541 
Q 334.50234 117.967327 332.91936 117.967327 
Q 330.989036 117.967327 329.801801 119.20425 
Q 328.614566 120.438579 328.614566 122.990218 
Q 328.614566 125.082873 329.68507 126.384623 
Q 330.758422 127.683781 332.885195 127.683781 
Q 334.841143 127.683781 335.866094 126.314609 
Q 336.40704 125.593719 336.674666 124.416438 
L 338.4 124.416438 
Q 338.169386 126.296457 336.871115 127.569683 
Q 335.313759 129.102222 332.671663 129.102222 
Q 330.393995 129.102222 328.84518 127.844555 
Q 326.806667 126.184952 326.806667 122.715346 
Q 326.806667 120.08332 328.338399 118.397787 
Q 329.992556 116.564444 332.902277 116.564444 
z
M 332.546392 116.564444 
L 332.546392 116.564444 
z
" style="fill:#0000ff;"/>
   </g>
   <g id="patch_81">
    <path clip-path="url(#pb478c47eb5)" d="M 332.785775 104.044807 
Q 334.574255 104.044807 335.878989 104.692688 
Q 337.769747 105.623043 338.19268 107.955412 
L 336.492656 107.955412 
Q 336.180294 106.651877 335.204508 106.055827 
Q 334.228722 105.459778 332.741547 105.459778 
Q 330.980709 105.459778 329.775489 106.701116 
Q 328.570269 107.939863 328.570269 110.394033 
Q 328.570269 112.513897 329.56264 113.845939 
Q 330.557776 115.177981 332.802361 115.177981 
Q 334.521734 115.177981 335.649555 114.245033 
Q 336.777376 113.309494 336.802254 111.218137 
L 332.830003 111.218137 
L 332.830003 109.883504 
L 338.4 109.883504 
L 338.4 116.248279 
L 337.294293 116.248279 
L 336.879653 114.71669 
Q 336.00891 115.615948 335.334429 115.965803 
Q 334.201079 116.564444 332.456827 116.564444 
Q 330.20395 116.564444 328.578561 115.196121 
Q 326.806667 113.477943 326.806667 110.482145 
Q 326.806667 107.494122 328.534333 105.729296 
Q 330.176307 104.044807 332.785775 104.044807 
z
M 332.501055 104.026667 
L 332.501055 104.026667 
z
" style="fill:#ffa600;"/>
   </g>
   <g id="patch_82">
    <path clip-path="url(#pb478c47eb5)" d="M 338.4 28.8 
L 338.4 37.762968 
L 333.585265 37.762968 
L 333.585265 104.026667 
L 331.621401 104.026667 
L 331.621401 37.762968 
L 326.806667 37.762968 
L 326.806667 28.8 
L 338.4 28.8 
z
" style="fill:#ff0000;"/>
   </g>
   <g id="matplotlib.axis_1">
    <g id="xtick_1">
     <g id="line2d_2">
      <path clip-path="url(#pb478c47eb5)" d="M 100.736667 141.64 
L 100.736667 28.8 
" style="fill:none;stroke:#cccccc;stroke-linecap:round;stroke-width:0.8;"/>
     </g>
     <g id="text_1">
      <!-- 0 -->
      <g style="fill:#262626;" transform="translate(95.175729 162.986875)scale(0.2 -0.2)">
       <defs>
        <path d="M 1731 4475 
Q 2600 4475 2988 3759 
Q 3288 3206 3288 2244 
Q 3288 1331 3016 734 
Q 2622 -122 1728 -122 
Q 922 -122 528 578 
Q 200 1163 200 2147 
Q 200 2909 397 3456 
Q 766 4475 1731 4475 
z
M 1725 391 
Q 2163 391 2422 778 
Q 2681 1166 2681 2222 
Q 2681 2984 2493 3476 
Q 2306 3969 1766 3969 
Q 1269 3969 1039 3501 
Q 809 3034 809 2125 
Q 809 1441 956 1025 
Q 1181 391 1725 391 
z
" id="Helvetica-30" transform="scale(0.015625)"/>
       </defs>
       <use xlink:href="#Helvetica-30"/>
      </g>
     </g>
    </g>
    <g id="xtick_2">
     <g id="line2d_3">
      <path clip-path="url(#pb478c47eb5)" d="M 222.771754 141.64 
L 222.771754 28.8 
" style="fill:none;stroke:#cccccc;stroke-linecap:round;stroke-width:0.8;"/>
     </g>
     <g id="text_2">
      <!-- 10 -->
      <g style="fill:#262626;" transform="translate(211.649879 162.986875)scale(0.2 -0.2)">
       <defs>
        <path d="M 613 3169 
L 613 3600 
Q 1222 3659 1462 3798 
Q 1703 3938 1822 4456 
L 2266 4456 
L 2266 0 
L 1666 0 
L 1666 3169 
L 613 3169 
z
" id="Helvetica-31" transform="scale(0.015625)"/>
       </defs>
       <use xlink:href="#Helvetica-31"/>
       <use x="55.615234" xlink:href="#Helvetica-30"/>
      </g>
     </g>
    </g>
    <g id="text_3">
     <!-- Position -->
     <g style="fill:#262626;" transform="translate(172.20125 189.089219)scale(0.25 -0.25)">
      <defs>
       <path d="M 547 4591 
L 2613 4591 
Q 3225 4591 3600 4245 
Q 3975 3900 3975 3275 
Q 3975 2738 3640 2339 
Q 3306 1941 2613 1941 
L 1169 1941 
L 1169 0 
L 547 0 
L 547 4591 
z
M 3347 3272 
Q 3347 3778 2972 3959 
Q 2766 4056 2406 4056 
L 1169 4056 
L 1169 2466 
L 2406 2466 
Q 2825 2466 3086 2644 
Q 3347 2822 3347 3272 
z
" id="Helvetica-50" transform="scale(0.015625)"/>
       <path d="M 1741 363 
Q 2300 363 2508 786 
Q 2716 1209 2716 1728 
Q 2716 2197 2566 2491 
Q 2328 2953 1747 2953 
Q 1231 2953 997 2559 
Q 763 2166 763 1609 
Q 763 1075 997 719 
Q 1231 363 1741 363 
z
M 1763 3444 
Q 2409 3444 2856 3012 
Q 3303 2581 3303 1744 
Q 3303 934 2909 406 
Q 2516 -122 1688 -122 
Q 997 -122 590 345 
Q 184 813 184 1600 
Q 184 2444 612 2944 
Q 1041 3444 1763 3444 
z
M 1744 3428 
L 1744 3428 
z
" id="Helvetica-6f" transform="scale(0.015625)"/>
       <path d="M 747 1050 
Q 772 769 888 619 
Q 1100 347 1625 347 
Q 1938 347 2175 483 
Q 2413 619 2413 903 
Q 2413 1119 2222 1231 
Q 2100 1300 1741 1391 
L 1294 1503 
Q 866 1609 663 1741 
Q 300 1969 300 2372 
Q 300 2847 642 3140 
Q 984 3434 1563 3434 
Q 2319 3434 2653 2991 
Q 2863 2709 2856 2384 
L 2325 2384 
Q 2309 2575 2191 2731 
Q 1997 2953 1519 2953 
Q 1200 2953 1036 2831 
Q 872 2709 872 2509 
Q 872 2291 1088 2159 
Q 1213 2081 1456 2022 
L 1828 1931 
Q 2434 1784 2641 1647 
Q 2969 1431 2969 969 
Q 2969 522 2630 197 
Q 2291 -128 1597 -128 
Q 850 -128 539 211 
Q 228 550 206 1050 
L 747 1050 
z
M 1578 3428 
L 1578 3428 
z
" id="Helvetica-73" transform="scale(0.015625)"/>
       <path d="M 413 3331 
L 984 3331 
L 984 0 
L 413 0 
L 413 3331 
z
M 413 4591 
L 984 4591 
L 984 3953 
L 413 3953 
L 413 4591 
z
" id="Helvetica-69" transform="scale(0.015625)"/>
       <path d="M 525 4281 
L 1094 4281 
L 1094 3347 
L 1628 3347 
L 1628 2888 
L 1094 2888 
L 1094 703 
Q 1094 528 1213 469 
Q 1278 434 1431 434 
Q 1472 434 1519 436 
Q 1566 438 1628 444 
L 1628 0 
Q 1531 -28 1426 -40 
Q 1322 -53 1200 -53 
Q 806 -53 665 148 
Q 525 350 525 672 
L 525 2888 
L 72 2888 
L 72 3347 
L 525 3347 
L 525 4281 
z
" id="Helvetica-74" transform="scale(0.015625)"/>
       <path d="M 413 3347 
L 947 3347 
L 947 2872 
Q 1184 3166 1450 3294 
Q 1716 3422 2041 3422 
Q 2753 3422 3003 2925 
Q 3141 2653 3141 2147 
L 3141 0 
L 2569 0 
L 2569 2109 
Q 2569 2416 2478 2603 
Q 2328 2916 1934 2916 
Q 1734 2916 1606 2875 
Q 1375 2806 1200 2600 
Q 1059 2434 1017 2257 
Q 975 2081 975 1753 
L 975 0 
L 413 0 
L 413 3347 
z
M 1734 3428 
L 1734 3428 
z
" id="Helvetica-6e" transform="scale(0.015625)"/>
      </defs>
      <use xlink:href="#Helvetica-50"/>
      <use x="66.699219" xlink:href="#Helvetica-6f"/>
      <use x="122.314453" xlink:href="#Helvetica-73"/>
      <use x="172.314453" xlink:href="#Helvetica-69"/>
      <use x="194.53125" xlink:href="#Helvetica-74"/>
      <use x="222.314453" xlink:href="#Helvetica-69"/>
      <use x="244.53125" xlink:href="#Helvetica-6f"/>
      <use x="300.146484" xlink:href="#Helvetica-6e"/>
     </g>
    </g>
   </g>
   <g id="matplotlib.axis_2">
    <g id="ytick_1">
     <g id="line2d_4">
      <path clip-path="url(#pb478c47eb5)" d="M 94.94 141.64 
L 338.4 141.64 
" style="fill:none;stroke:#cccccc;stroke-linecap:round;stroke-width:0.8;"/>
     </g>
     <g id="text_4">
      <!-- 0 -->
      <g style="fill:#262626;" transform="translate(76.818125 148.813438)scale(0.2 -0.2)">
       <use xlink:href="#Helvetica-30"/>
      </g>
     </g>
    </g>
    <g id="ytick_2">
     <g id="line2d_5">
      <path clip-path="url(#pb478c47eb5)" d="M 94.94 113.43 
L 338.4 113.43 
" style="fill:none;stroke:#cccccc;stroke-linecap:round;stroke-width:0.8;"/>
     </g>
     <g id="text_5">
      <!-- 0.25 -->
      <g style="fill:#262626;" transform="translate(49.018125 120.603437)scale(0.2 -0.2)">
       <defs>
        <path d="M 547 681 
L 1200 681 
L 1200 0 
L 547 0 
L 547 681 
z
" id="Helvetica-2e" transform="scale(0.015625)"/>
        <path d="M 200 0 
Q 231 578 439 1006 
Q 647 1434 1250 1784 
L 1850 2131 
Q 2253 2366 2416 2531 
Q 2672 2791 2672 3125 
Q 2672 3516 2437 3745 
Q 2203 3975 1813 3975 
Q 1234 3975 1013 3538 
Q 894 3303 881 2888 
L 309 2888 
Q 319 3472 525 3841 
Q 891 4491 1816 4491 
Q 2584 4491 2939 4075 
Q 3294 3659 3294 3150 
Q 3294 2613 2916 2231 
Q 2697 2009 2131 1694 
L 1703 1456 
Q 1397 1288 1222 1134 
Q 909 863 828 531 
L 3272 531 
L 3272 0 
L 200 0 
z
" id="Helvetica-32" transform="scale(0.015625)"/>
        <path d="M 791 1141 
Q 847 659 1238 475 
Q 1438 381 1700 381 
Q 2200 381 2440 700 
Q 2681 1019 2681 1406 
Q 2681 1875 2395 2131 
Q 2109 2388 1709 2388 
Q 1419 2388 1211 2275 
Q 1003 2163 856 1963 
L 369 1991 
L 709 4400 
L 3034 4400 
L 3034 3856 
L 1131 3856 
L 941 2613 
Q 1097 2731 1238 2791 
Q 1488 2894 1816 2894 
Q 2431 2894 2859 2497 
Q 3288 2100 3288 1491 
Q 3288 856 2895 371 
Q 2503 -113 1644 -113 
Q 1097 -113 676 195 
Q 256 503 206 1141 
L 791 1141 
z
" id="Helvetica-35" transform="scale(0.015625)"/>
       </defs>
       <use xlink:href="#Helvetica-30"/>
       <use x="55.615234" xlink:href="#Helvetica-2e"/>
       <use x="83.398438" xlink:href="#Helvetica-32"/>
       <use x="139.013672" xlink:href="#Helvetica-35"/>
      </g>
     </g>
    </g>
    <g id="ytick_3">
     <g id="line2d_6">
      <path clip-path="url(#pb478c47eb5)" d="M 94.94 85.22 
L 338.4 85.22 
" style="fill:none;stroke:#cccccc;stroke-linecap:round;stroke-width:0.8;"/>
     </g>
     <g id="text_6">
      <!-- 0.50 -->
      <g style="fill:#262626;" transform="translate(49.018125 92.393438)scale(0.2 -0.2)">
       <use xlink:href="#Helvetica-30"/>
       <use x="55.615234" xlink:href="#Helvetica-2e"/>
       <use x="83.398438" xlink:href="#Helvetica-35"/>
       <use x="139.013672" xlink:href="#Helvetica-30"/>
      </g>
     </g>
    </g>
    <g id="ytick_4">
     <g id="line2d_7">
      <path clip-path="url(#pb478c47eb5)" d="M 94.94 57.01 
L 338.4 57.01 
" style="fill:none;stroke:#cccccc;stroke-linecap:round;stroke-width:0.8;"/>
     </g>
     <g id="text_7">
      <!-- 0.75 -->
      <g style="fill:#262626;" transform="translate(49.018125 64.183437)scale(0.2 -0.2)">
       <defs>
        <path d="M 3347 4400 
L 3347 3909 
Q 3131 3700 2773 3181 
Q 2416 2663 2141 2063 
Q 1869 1478 1728 997 
Q 1638 688 1494 0 
L 872 0 
Q 1084 1281 1809 2550 
Q 2238 3294 2709 3834 
L 234 3834 
L 234 4400 
L 3347 4400 
z
" id="Helvetica-37" transform="scale(0.015625)"/>
       </defs>
       <use xlink:href="#Helvetica-30"/>
       <use x="55.615234" xlink:href="#Helvetica-2e"/>
       <use x="83.398438" xlink:href="#Helvetica-37"/>
       <use x="139.013672" xlink:href="#Helvetica-35"/>
      </g>
     </g>
    </g>
    <g id="ytick_5">
     <g id="line2d_8">
      <path clip-path="url(#pb478c47eb5)" d="M 94.94 28.8 
L 338.4 28.8 
" style="fill:none;stroke:#cccccc;stroke-linecap:round;stroke-width:0.8;"/>
     </g>
     <g id="text_8">
      <!-- 1.0 -->
      <g style="fill:#262626;" transform="translate(60.14 35.973437)scale(0.2 -0.2)">
       <use xlink:href="#Helvetica-31"/>
       <use x="55.615234" xlink:href="#Helvetica-2e"/>
       <use x="83.398438" xlink:href="#Helvetica-30"/>
      </g>
     </g>
    </g>
    <g id="text_9">
     <!-- Probability -->
     <g style="fill:#262626;" transform="translate(39.65875 143.579375)rotate(-90)scale(0.25 -0.25)">
      <defs>
       <path d="M 428 3347 
L 963 3347 
L 963 2769 
Q 1028 2938 1284 3180 
Q 1541 3422 1875 3422 
Q 1891 3422 1928 3419 
Q 1966 3416 2056 3406 
L 2056 2813 
Q 2006 2822 1964 2825 
Q 1922 2828 1872 2828 
Q 1447 2828 1219 2554 
Q 991 2281 991 1925 
L 991 0 
L 428 0 
L 428 3347 
z
" id="Helvetica-72" transform="scale(0.015625)"/>
       <path d="M 369 4606 
L 916 4606 
L 916 2941 
Q 1100 3181 1356 3307 
Q 1613 3434 1913 3434 
Q 2538 3434 2927 3004 
Q 3316 2575 3316 1738 
Q 3316 944 2931 419 
Q 2547 -106 1866 -106 
Q 1484 -106 1222 78 
Q 1066 188 888 428 
L 888 0 
L 369 0 
L 369 4606 
z
M 1831 391 
Q 2288 391 2514 753 
Q 2741 1116 2741 1709 
Q 2741 2238 2514 2584 
Q 2288 2931 1847 2931 
Q 1463 2931 1173 2647 
Q 884 2363 884 1709 
Q 884 1238 1003 944 
Q 1225 391 1831 391 
z
" id="Helvetica-62" transform="scale(0.015625)"/>
       <path d="M 844 891 
Q 844 647 1022 506 
Q 1200 366 1444 366 
Q 1741 366 2019 503 
Q 2488 731 2488 1250 
L 2488 1703 
Q 2384 1638 2221 1594 
Q 2059 1550 1903 1531 
L 1563 1488 
Q 1256 1447 1103 1359 
Q 844 1213 844 891 
z
M 2206 2028 
Q 2400 2053 2466 2191 
Q 2503 2266 2503 2406 
Q 2503 2694 2298 2823 
Q 2094 2953 1713 2953 
Q 1272 2953 1088 2716 
Q 984 2584 953 2325 
L 428 2325 
Q 444 2944 830 3186 
Q 1216 3428 1725 3428 
Q 2316 3428 2684 3203 
Q 3050 2978 3050 2503 
L 3050 575 
Q 3050 488 3086 434 
Q 3122 381 3238 381 
Q 3275 381 3322 386 
Q 3369 391 3422 400 
L 3422 -16 
Q 3291 -53 3222 -62 
Q 3153 -72 3034 -72 
Q 2744 -72 2613 134 
Q 2544 244 2516 444 
Q 2344 219 2022 53 
Q 1700 -113 1313 -113 
Q 847 -113 551 170 
Q 256 453 256 878 
Q 256 1344 547 1600 
Q 838 1856 1309 1916 
L 2206 2028 
z
M 1741 3428 
L 1741 3428 
z
" id="Helvetica-61" transform="scale(0.015625)"/>
       <path d="M 428 4591 
L 991 4591 
L 991 0 
L 428 0 
L 428 4591 
z
" id="Helvetica-6c" transform="scale(0.015625)"/>
       <path d="M 2503 3347 
L 3125 3347 
Q 3006 3025 2597 1878 
Q 2291 1016 2084 472 
Q 1597 -809 1397 -1090 
Q 1197 -1372 709 -1372 
Q 591 -1372 527 -1362 
Q 463 -1353 369 -1328 
L 369 -816 
Q 516 -856 581 -865 
Q 647 -875 697 -875 
Q 853 -875 926 -823 
Q 1000 -772 1050 -697 
Q 1066 -672 1162 -440 
Q 1259 -209 1303 -97 
L 66 3347 
L 703 3347 
L 1600 622 
L 2503 3347 
z
M 1597 3428 
L 1597 3428 
z
" id="Helvetica-79" transform="scale(0.015625)"/>
      </defs>
      <use xlink:href="#Helvetica-50"/>
      <use x="66.699219" xlink:href="#Helvetica-72"/>
      <use x="100" xlink:href="#Helvetica-6f"/>
      <use x="155.615234" xlink:href="#Helvetica-62"/>
      <use x="211.230469" xlink:href="#Helvetica-61"/>
      <use x="266.845703" xlink:href="#Helvetica-62"/>
      <use x="322.460938" xlink:href="#Helvetica-69"/>
      <use x="344.677734" xlink:href="#Helvetica-6c"/>
      <use x="366.894531" xlink:href="#Helvetica-69"/>
      <use x="389.111328" xlink:href="#Helvetica-74"/>
      <use x="416.894531" xlink:href="#Helvetica-79"/>
     </g>
    </g>
   </g>
   <g id="patch_83">
    <path d="M 94.94 141.64 
L 94.94 28.8 
" style="fill:none;stroke:#000000;stroke-linecap:square;stroke-linejoin:miter;"/>
   </g>
  </g>
 </g>
 <defs>
  <clipPath id="pb478c47eb5">
   <rect height="112.84" width="243.46" x="94.94" y="28.8"/>
  </clipPath>
 </defs>
</svg>
