<?xml version="1.0" encoding="utf-8" standalone="no"?>
<!DOCTYPE svg PUBLIC "-//W3C//DTD SVG 1.1//EN"
  "http://www.w3.org/Graphics/SVG/1.1/DTD/svg11.dtd">
<svg height="288pt" version="1.1" viewBox="0 0 432 288" width="432pt" xmlns="http://www.w3.org/2000/svg" xmlns:xlink="http://www.w3.org/1999/xlink">
 <metadata>
  <rdf:RDF xmlns:cc="http://creativecommons.org/ns#" xmlns:dc="http://purl.org/dc/elements/1.1/" xmlns:rdf="http://www.w3.org/1999/02/22-rdf-syntax-ns#">
   <cc:Work>
    <dc:type rdf:resource="http://purl.org/dc/dcmitype/StillImage"/>
    <dc:date>2022-01-21T00:39:25.211269</dc:date>
    <dc:format>image/svg+xml</dc:format>
    <dc:creator>
     <cc:Agent>
      <dc:title>Matplotlib v3.4.2, https://matplotlib.org/</dc:title>
     </cc:Agent>
    </dc:creator>
   </cc:Work>
  </rdf:RDF>
 </metadata>
 <defs>
  <style type="text/css">*{stroke-linecap:butt;stroke-linejoin:round;}</style>
 </defs>
 <g id="figure_1">
  <g id="patch_1">
   <path d="M 0 288 
L 432 288 
L 432 0 
L 0 0 
z
" style="fill:#ffffff;"/>
  </g>
  <g id="axes_1">
   <g id="patch_2">
    <path d="M 96.52 211.94 
L 410.4 211.94 
L 410.4 21.6 
L 96.52 21.6 
z
" style="fill:#ffffff;"/>
   </g>
   <g id="matplotlib.axis_1">
    <g id="xtick_1">
     <g id="line2d_1">
      <path clip-path="url(#pf78c1053b8)" d="M 110.787273 211.94 
L 110.787273 21.6 
" style="fill:none;stroke:#cccccc;stroke-linecap:round;stroke-width:0.8;"/>
     </g>
     <g id="text_1">
      <!-- 0 -->
      <g style="fill:#262626;" transform="translate(105.226335 239.786875)scale(0.2 -0.2)">
       <defs>
        <path d="M 1731 4475 
Q 2600 4475 2988 3759 
Q 3288 3206 3288 2244 
Q 3288 1331 3016 734 
Q 2622 -122 1728 -122 
Q 922 -122 528 578 
Q 200 1163 200 2147 
Q 200 2909 397 3456 
Q 766 4475 1731 4475 
z
M 1725 391 
Q 2163 391 2422 778 
Q 2681 1166 2681 2222 
Q 2681 2984 2493 3476 
Q 2306 3969 1766 3969 
Q 1269 3969 1039 3501 
Q 809 3034 809 2125 
Q 809 1441 956 1025 
Q 1181 391 1725 391 
z
" id="Helvetica-30" transform="scale(0.015625)"/>
       </defs>
       <use xlink:href="#Helvetica-30"/>
      </g>
     </g>
    </g>
    <g id="xtick_2">
     <g id="line2d_2">
      <path clip-path="url(#pf78c1053b8)" d="M 159.984765 211.94 
L 159.984765 21.6 
" style="fill:none;stroke:#cccccc;stroke-linecap:round;stroke-width:0.8;"/>
     </g>
     <g id="text_2">
      <!-- 10 -->
      <g style="fill:#262626;" transform="translate(148.86289 239.786875)scale(0.2 -0.2)">
       <defs>
        <path d="M 613 3169 
L 613 3600 
Q 1222 3659 1462 3798 
Q 1703 3938 1822 4456 
L 2266 4456 
L 2266 0 
L 1666 0 
L 1666 3169 
L 613 3169 
z
" id="Helvetica-31" transform="scale(0.015625)"/>
       </defs>
       <use xlink:href="#Helvetica-31"/>
       <use x="55.615234" xlink:href="#Helvetica-30"/>
      </g>
     </g>
    </g>
    <g id="xtick_3">
     <g id="line2d_3">
      <path clip-path="url(#pf78c1053b8)" d="M 209.182257 211.94 
L 209.182257 21.6 
" style="fill:none;stroke:#cccccc;stroke-linecap:round;stroke-width:0.8;"/>
     </g>
     <g id="text_3">
      <!-- 20 -->
      <g style="fill:#262626;" transform="translate(198.060382 239.786875)scale(0.2 -0.2)">
       <defs>
        <path d="M 200 0 
Q 231 578 439 1006 
Q 647 1434 1250 1784 
L 1850 2131 
Q 2253 2366 2416 2531 
Q 2672 2791 2672 3125 
Q 2672 3516 2437 3745 
Q 2203 3975 1813 3975 
Q 1234 3975 1013 3538 
Q 894 3303 881 2888 
L 309 2888 
Q 319 3472 525 3841 
Q 891 4491 1816 4491 
Q 2584 4491 2939 4075 
Q 3294 3659 3294 3150 
Q 3294 2613 2916 2231 
Q 2697 2009 2131 1694 
L 1703 1456 
Q 1397 1288 1222 1134 
Q 909 863 828 531 
L 3272 531 
L 3272 0 
L 200 0 
z
" id="Helvetica-32" transform="scale(0.015625)"/>
       </defs>
       <use xlink:href="#Helvetica-32"/>
       <use x="55.615234" xlink:href="#Helvetica-30"/>
      </g>
     </g>
    </g>
    <g id="xtick_4">
     <g id="line2d_4">
      <path clip-path="url(#pf78c1053b8)" d="M 258.379749 211.94 
L 258.379749 21.6 
" style="fill:none;stroke:#cccccc;stroke-linecap:round;stroke-width:0.8;"/>
     </g>
     <g id="text_4">
      <!-- 30 -->
      <g style="fill:#262626;" transform="translate(247.257874 239.786875)scale(0.2 -0.2)">
       <defs>
        <path d="M 1663 -122 
Q 869 -122 511 314 
Q 153 750 153 1375 
L 741 1375 
Q 778 941 903 744 
Q 1122 391 1694 391 
Q 2138 391 2406 628 
Q 2675 866 2675 1241 
Q 2675 1703 2392 1887 
Q 2109 2072 1606 2072 
Q 1550 2072 1492 2070 
Q 1434 2069 1375 2066 
L 1375 2563 
Q 1463 2553 1522 2550 
Q 1581 2547 1650 2547 
Q 1966 2547 2169 2647 
Q 2525 2822 2525 3272 
Q 2525 3606 2287 3787 
Q 2050 3969 1734 3969 
Q 1172 3969 956 3594 
Q 838 3388 822 3006 
L 266 3006 
Q 266 3506 466 3856 
Q 809 4481 1675 4481 
Q 2359 4481 2734 4176 
Q 3109 3872 3109 3294 
Q 3109 2881 2888 2625 
Q 2750 2466 2531 2375 
Q 2884 2278 3082 2001 
Q 3281 1725 3281 1325 
Q 3281 684 2859 281 
Q 2438 -122 1663 -122 
z
" id="Helvetica-33" transform="scale(0.015625)"/>
       </defs>
       <use xlink:href="#Helvetica-33"/>
       <use x="55.615234" xlink:href="#Helvetica-30"/>
      </g>
     </g>
    </g>
    <g id="xtick_5">
     <g id="line2d_5">
      <path clip-path="url(#pf78c1053b8)" d="M 307.577241 211.94 
L 307.577241 21.6 
" style="fill:none;stroke:#cccccc;stroke-linecap:round;stroke-width:0.8;"/>
     </g>
     <g id="text_5">
      <!-- 40 -->
      <g style="fill:#262626;" transform="translate(296.455366 239.786875)scale(0.2 -0.2)">
       <defs>
        <path d="M 2116 1584 
L 2116 3613 
L 681 1584 
L 2116 1584 
z
M 2125 0 
L 2125 1094 
L 163 1094 
L 163 1644 
L 2213 4488 
L 2688 4488 
L 2688 1584 
L 3347 1584 
L 3347 1094 
L 2688 1094 
L 2688 0 
L 2125 0 
z
" id="Helvetica-34" transform="scale(0.015625)"/>
       </defs>
       <use xlink:href="#Helvetica-34"/>
       <use x="55.615234" xlink:href="#Helvetica-30"/>
      </g>
     </g>
    </g>
    <g id="xtick_6">
     <g id="line2d_6">
      <path clip-path="url(#pf78c1053b8)" d="M 356.774734 211.94 
L 356.774734 21.6 
" style="fill:none;stroke:#cccccc;stroke-linecap:round;stroke-width:0.8;"/>
     </g>
     <g id="text_6">
      <!-- 50 -->
      <g style="fill:#262626;" transform="translate(345.652859 239.786875)scale(0.2 -0.2)">
       <defs>
        <path d="M 791 1141 
Q 847 659 1238 475 
Q 1438 381 1700 381 
Q 2200 381 2440 700 
Q 2681 1019 2681 1406 
Q 2681 1875 2395 2131 
Q 2109 2388 1709 2388 
Q 1419 2388 1211 2275 
Q 1003 2163 856 1963 
L 369 1991 
L 709 4400 
L 3034 4400 
L 3034 3856 
L 1131 3856 
L 941 2613 
Q 1097 2731 1238 2791 
Q 1488 2894 1816 2894 
Q 2431 2894 2859 2497 
Q 3288 2100 3288 1491 
Q 3288 856 2895 371 
Q 2503 -113 1644 -113 
Q 1097 -113 676 195 
Q 256 503 206 1141 
L 791 1141 
z
" id="Helvetica-35" transform="scale(0.015625)"/>
       </defs>
       <use xlink:href="#Helvetica-35"/>
       <use x="55.615234" xlink:href="#Helvetica-30"/>
      </g>
     </g>
    </g>
    <g id="text_7">
     <!-- Position -->
     <g style="fill:#262626;" transform="translate(217.885 262.3025)scale(0.2 -0.2)">
      <defs>
       <path d="M 547 4591 
L 2613 4591 
Q 3225 4591 3600 4245 
Q 3975 3900 3975 3275 
Q 3975 2738 3640 2339 
Q 3306 1941 2613 1941 
L 1169 1941 
L 1169 0 
L 547 0 
L 547 4591 
z
M 3347 3272 
Q 3347 3778 2972 3959 
Q 2766 4056 2406 4056 
L 1169 4056 
L 1169 2466 
L 2406 2466 
Q 2825 2466 3086 2644 
Q 3347 2822 3347 3272 
z
" id="Helvetica-50" transform="scale(0.015625)"/>
       <path d="M 1741 363 
Q 2300 363 2508 786 
Q 2716 1209 2716 1728 
Q 2716 2197 2566 2491 
Q 2328 2953 1747 2953 
Q 1231 2953 997 2559 
Q 763 2166 763 1609 
Q 763 1075 997 719 
Q 1231 363 1741 363 
z
M 1763 3444 
Q 2409 3444 2856 3012 
Q 3303 2581 3303 1744 
Q 3303 934 2909 406 
Q 2516 -122 1688 -122 
Q 997 -122 590 345 
Q 184 813 184 1600 
Q 184 2444 612 2944 
Q 1041 3444 1763 3444 
z
M 1744 3428 
L 1744 3428 
z
" id="Helvetica-6f" transform="scale(0.015625)"/>
       <path d="M 747 1050 
Q 772 769 888 619 
Q 1100 347 1625 347 
Q 1938 347 2175 483 
Q 2413 619 2413 903 
Q 2413 1119 2222 1231 
Q 2100 1300 1741 1391 
L 1294 1503 
Q 866 1609 663 1741 
Q 300 1969 300 2372 
Q 300 2847 642 3140 
Q 984 3434 1563 3434 
Q 2319 3434 2653 2991 
Q 2863 2709 2856 2384 
L 2325 2384 
Q 2309 2575 2191 2731 
Q 1997 2953 1519 2953 
Q 1200 2953 1036 2831 
Q 872 2709 872 2509 
Q 872 2291 1088 2159 
Q 1213 2081 1456 2022 
L 1828 1931 
Q 2434 1784 2641 1647 
Q 2969 1431 2969 969 
Q 2969 522 2630 197 
Q 2291 -128 1597 -128 
Q 850 -128 539 211 
Q 228 550 206 1050 
L 747 1050 
z
M 1578 3428 
L 1578 3428 
z
" id="Helvetica-73" transform="scale(0.015625)"/>
       <path d="M 413 3331 
L 984 3331 
L 984 0 
L 413 0 
L 413 3331 
z
M 413 4591 
L 984 4591 
L 984 3953 
L 413 3953 
L 413 4591 
z
" id="Helvetica-69" transform="scale(0.015625)"/>
       <path d="M 525 4281 
L 1094 4281 
L 1094 3347 
L 1628 3347 
L 1628 2888 
L 1094 2888 
L 1094 703 
Q 1094 528 1213 469 
Q 1278 434 1431 434 
Q 1472 434 1519 436 
Q 1566 438 1628 444 
L 1628 0 
Q 1531 -28 1426 -40 
Q 1322 -53 1200 -53 
Q 806 -53 665 148 
Q 525 350 525 672 
L 525 2888 
L 72 2888 
L 72 3347 
L 525 3347 
L 525 4281 
z
" id="Helvetica-74" transform="scale(0.015625)"/>
       <path d="M 413 3347 
L 947 3347 
L 947 2872 
Q 1184 3166 1450 3294 
Q 1716 3422 2041 3422 
Q 2753 3422 3003 2925 
Q 3141 2653 3141 2147 
L 3141 0 
L 2569 0 
L 2569 2109 
Q 2569 2416 2478 2603 
Q 2328 2916 1934 2916 
Q 1734 2916 1606 2875 
Q 1375 2806 1200 2600 
Q 1059 2434 1017 2257 
Q 975 2081 975 1753 
L 975 0 
L 413 0 
L 413 3347 
z
M 1734 3428 
L 1734 3428 
z
" id="Helvetica-6e" transform="scale(0.015625)"/>
      </defs>
      <use xlink:href="#Helvetica-50"/>
      <use x="66.699219" xlink:href="#Helvetica-6f"/>
      <use x="122.314453" xlink:href="#Helvetica-73"/>
      <use x="172.314453" xlink:href="#Helvetica-69"/>
      <use x="194.53125" xlink:href="#Helvetica-74"/>
      <use x="222.314453" xlink:href="#Helvetica-69"/>
      <use x="244.53125" xlink:href="#Helvetica-6f"/>
      <use x="300.146484" xlink:href="#Helvetica-6e"/>
     </g>
    </g>
   </g>
   <g id="matplotlib.axis_2">
    <g id="ytick_1">
     <g id="line2d_7">
      <path clip-path="url(#pf78c1053b8)" d="M 96.52 203.288182 
L 410.4 203.288182 
" style="fill:none;stroke:#cccccc;stroke-linecap:round;stroke-width:0.8;"/>
     </g>
     <g id="text_8">
      <!-- 0.00 -->
      <g style="fill:#262626;" transform="translate(44.098125 210.461619)scale(0.2 -0.2)">
       <defs>
        <path d="M 547 681 
L 1200 681 
L 1200 0 
L 547 0 
L 547 681 
z
" id="Helvetica-2e" transform="scale(0.015625)"/>
       </defs>
       <use xlink:href="#Helvetica-30"/>
       <use x="55.615234" xlink:href="#Helvetica-2e"/>
       <use x="83.398438" xlink:href="#Helvetica-30"/>
       <use x="139.013672" xlink:href="#Helvetica-30"/>
      </g>
     </g>
    </g>
    <g id="ytick_2">
     <g id="line2d_8">
      <path clip-path="url(#pf78c1053b8)" d="M 96.52 151.447846 
L 410.4 151.447846 
" style="fill:none;stroke:#cccccc;stroke-linecap:round;stroke-width:0.8;"/>
     </g>
     <g id="text_9">
      <!-- 0.05 -->
      <g style="fill:#262626;" transform="translate(44.098125 158.621283)scale(0.2 -0.2)">
       <use xlink:href="#Helvetica-30"/>
       <use x="55.615234" xlink:href="#Helvetica-2e"/>
       <use x="83.398438" xlink:href="#Helvetica-30"/>
       <use x="139.013672" xlink:href="#Helvetica-35"/>
      </g>
     </g>
    </g>
    <g id="ytick_3">
     <g id="line2d_9">
      <path clip-path="url(#pf78c1053b8)" d="M 96.52 99.60751 
L 410.4 99.60751 
" style="fill:none;stroke:#cccccc;stroke-linecap:round;stroke-width:0.8;"/>
     </g>
     <g id="text_10">
      <!-- 0.10 -->
      <g style="fill:#262626;" transform="translate(44.098125 106.780947)scale(0.2 -0.2)">
       <use xlink:href="#Helvetica-30"/>
       <use x="55.615234" xlink:href="#Helvetica-2e"/>
       <use x="83.398438" xlink:href="#Helvetica-31"/>
       <use x="139.013672" xlink:href="#Helvetica-30"/>
      </g>
     </g>
    </g>
    <g id="ytick_4">
     <g id="line2d_10">
      <path clip-path="url(#pf78c1053b8)" d="M 96.52 47.767174 
L 410.4 47.767174 
" style="fill:none;stroke:#cccccc;stroke-linecap:round;stroke-width:0.8;"/>
     </g>
     <g id="text_11">
      <!-- 0.15 -->
      <g style="fill:#262626;" transform="translate(44.098125 54.940611)scale(0.2 -0.2)">
       <use xlink:href="#Helvetica-30"/>
       <use x="55.615234" xlink:href="#Helvetica-2e"/>
       <use x="83.398438" xlink:href="#Helvetica-31"/>
       <use x="139.013672" xlink:href="#Helvetica-35"/>
      </g>
     </g>
    </g>
    <g id="text_12">
     <!-- Std Dev of 1 Monomer Mismatch -->
     <g style="fill:#262626;" transform="translate(35.929375 262.366875)rotate(-90)scale(0.2 -0.2)">
      <defs>
       <path d="M 894 1481 
Q 916 1091 1078 847 
Q 1388 391 2169 391 
Q 2519 391 2806 491 
Q 3363 684 3363 1184 
Q 3363 1559 3128 1719 
Q 2891 1875 2384 1991 
L 1763 2131 
Q 1153 2269 900 2434 
Q 463 2722 463 3294 
Q 463 3913 891 4309 
Q 1319 4706 2103 4706 
Q 2825 4706 3329 4357 
Q 3834 4009 3834 3244 
L 3250 3244 
Q 3203 3613 3050 3809 
Q 2766 4169 2084 4169 
Q 1534 4169 1293 3937 
Q 1053 3706 1053 3400 
Q 1053 3063 1334 2906 
Q 1519 2806 2169 2656 
L 2813 2509 
Q 3278 2403 3531 2219 
Q 3969 1897 3969 1284 
Q 3969 522 3414 194 
Q 2859 -134 2125 -134 
Q 1269 -134 784 303 
Q 300 738 309 1481 
L 894 1481 
z
M 2150 4716 
L 2150 4716 
z
" id="Helvetica-53" transform="scale(0.015625)"/>
       <path d="M 769 1634 
Q 769 1097 997 734 
Q 1225 372 1728 372 
Q 2119 372 2370 708 
Q 2622 1044 2622 1672 
Q 2622 2306 2362 2611 
Q 2103 2916 1722 2916 
Q 1297 2916 1033 2591 
Q 769 2266 769 1634 
z
M 1616 3406 
Q 2000 3406 2259 3244 
Q 2409 3150 2600 2916 
L 2600 4606 
L 3141 4606 
L 3141 0 
L 2634 0 
L 2634 466 
Q 2438 156 2169 18 
Q 1900 -119 1553 -119 
Q 994 -119 584 351 
Q 175 822 175 1603 
Q 175 2334 548 2870 
Q 922 3406 1616 3406 
z
" id="Helvetica-64" transform="scale(0.015625)"/>
       <path id="Helvetica-20" transform="scale(0.015625)"/>
       <path d="M 2250 531 
Q 2566 531 2769 597 
Q 3131 719 3363 1066 
Q 3547 1344 3628 1778 
Q 3675 2038 3675 2259 
Q 3675 3113 3336 3584 
Q 2997 4056 2244 4056 
L 1141 4056 
L 1141 531 
L 2250 531 
z
M 516 4591 
L 2375 4591 
Q 3322 4591 3844 3919 
Q 4309 3313 4309 2366 
Q 4309 1634 4034 1044 
Q 3550 0 2369 0 
L 516 0 
L 516 4591 
z
" id="Helvetica-44" transform="scale(0.015625)"/>
       <path d="M 1806 3422 
Q 2163 3422 2497 3255 
Q 2831 3088 3006 2822 
Q 3175 2569 3231 2231 
Q 3281 2000 3281 1494 
L 828 1494 
Q 844 984 1069 676 
Q 1294 369 1766 369 
Q 2206 369 2469 659 
Q 2619 828 2681 1050 
L 3234 1050 
Q 3213 866 3089 639 
Q 2966 413 2813 269 
Q 2556 19 2178 -69 
Q 1975 -119 1719 -119 
Q 1094 -119 659 336 
Q 225 791 225 1609 
Q 225 2416 662 2919 
Q 1100 3422 1806 3422 
z
M 2703 1941 
Q 2669 2306 2544 2525 
Q 2313 2931 1772 2931 
Q 1384 2931 1121 2651 
Q 859 2372 844 1941 
L 2703 1941 
z
M 1753 3428 
L 1753 3428 
z
" id="Helvetica-65" transform="scale(0.015625)"/>
       <path d="M 688 3347 
L 1581 622 
L 2516 3347 
L 3131 3347 
L 1869 0 
L 1269 0 
L 34 3347 
L 688 3347 
z
" id="Helvetica-76" transform="scale(0.015625)"/>
       <path d="M 553 3856 
Q 566 4206 675 4369 
Q 872 4656 1434 4656 
Q 1488 4656 1544 4653 
Q 1600 4650 1672 4644 
L 1672 4131 
Q 1584 4138 1545 4139 
Q 1506 4141 1472 4141 
Q 1216 4141 1166 4008 
Q 1116 3875 1116 3331 
L 1672 3331 
L 1672 2888 
L 1109 2888 
L 1109 0 
L 553 0 
L 553 2888 
L 88 2888 
L 88 3331 
L 553 3331 
L 553 3856 
z
" id="Helvetica-66" transform="scale(0.015625)"/>
       <path d="M 472 4591 
L 1363 4591 
L 2681 709 
L 3991 4591 
L 4872 4591 
L 4872 0 
L 4281 0 
L 4281 2709 
Q 4281 2850 4287 3175 
Q 4294 3500 4294 3872 
L 2984 0 
L 2369 0 
L 1050 3872 
L 1050 3731 
Q 1050 3563 1058 3217 
Q 1066 2872 1066 2709 
L 1066 0 
L 472 0 
L 472 4591 
z
" id="Helvetica-4d" transform="scale(0.015625)"/>
       <path d="M 413 3347 
L 969 3347 
L 969 2872 
Q 1169 3119 1331 3231 
Q 1609 3422 1963 3422 
Q 2363 3422 2606 3225 
Q 2744 3113 2856 2894 
Q 3044 3163 3297 3292 
Q 3550 3422 3866 3422 
Q 4541 3422 4784 2934 
Q 4916 2672 4916 2228 
L 4916 0 
L 4331 0 
L 4331 2325 
Q 4331 2659 4164 2784 
Q 3997 2909 3756 2909 
Q 3425 2909 3186 2687 
Q 2947 2466 2947 1947 
L 2947 0 
L 2375 0 
L 2375 2184 
Q 2375 2525 2294 2681 
Q 2166 2916 1816 2916 
Q 1497 2916 1236 2669 
Q 975 2422 975 1775 
L 975 0 
L 413 0 
L 413 3347 
z
" id="Helvetica-6d" transform="scale(0.015625)"/>
       <path d="M 428 3347 
L 963 3347 
L 963 2769 
Q 1028 2938 1284 3180 
Q 1541 3422 1875 3422 
Q 1891 3422 1928 3419 
Q 1966 3416 2056 3406 
L 2056 2813 
Q 2006 2822 1964 2825 
Q 1922 2828 1872 2828 
Q 1447 2828 1219 2554 
Q 991 2281 991 1925 
L 991 0 
L 428 0 
L 428 3347 
z
" id="Helvetica-72" transform="scale(0.015625)"/>
       <path d="M 844 891 
Q 844 647 1022 506 
Q 1200 366 1444 366 
Q 1741 366 2019 503 
Q 2488 731 2488 1250 
L 2488 1703 
Q 2384 1638 2221 1594 
Q 2059 1550 1903 1531 
L 1563 1488 
Q 1256 1447 1103 1359 
Q 844 1213 844 891 
z
M 2206 2028 
Q 2400 2053 2466 2191 
Q 2503 2266 2503 2406 
Q 2503 2694 2298 2823 
Q 2094 2953 1713 2953 
Q 1272 2953 1088 2716 
Q 984 2584 953 2325 
L 428 2325 
Q 444 2944 830 3186 
Q 1216 3428 1725 3428 
Q 2316 3428 2684 3203 
Q 3050 2978 3050 2503 
L 3050 575 
Q 3050 488 3086 434 
Q 3122 381 3238 381 
Q 3275 381 3322 386 
Q 3369 391 3422 400 
L 3422 -16 
Q 3291 -53 3222 -62 
Q 3153 -72 3034 -72 
Q 2744 -72 2613 134 
Q 2544 244 2516 444 
Q 2344 219 2022 53 
Q 1700 -113 1313 -113 
Q 847 -113 551 170 
Q 256 453 256 878 
Q 256 1344 547 1600 
Q 838 1856 1309 1916 
L 2206 2028 
z
M 1741 3428 
L 1741 3428 
z
" id="Helvetica-61" transform="scale(0.015625)"/>
       <path d="M 1703 3444 
Q 2269 3444 2623 3169 
Q 2978 2894 3050 2222 
L 2503 2222 
Q 2453 2531 2275 2736 
Q 2097 2941 1703 2941 
Q 1166 2941 934 2416 
Q 784 2075 784 1575 
Q 784 1072 996 728 
Q 1209 384 1666 384 
Q 2016 384 2220 598 
Q 2425 813 2503 1184 
L 3050 1184 
Q 2956 519 2581 211 
Q 2206 -97 1622 -97 
Q 966 -97 575 383 
Q 184 863 184 1581 
Q 184 2463 612 2953 
Q 1041 3444 1703 3444 
z
M 1616 3428 
L 1616 3428 
z
" id="Helvetica-63" transform="scale(0.015625)"/>
       <path d="M 413 4606 
L 975 4606 
L 975 2894 
Q 1175 3147 1334 3250 
Q 1606 3428 2013 3428 
Q 2741 3428 3000 2919 
Q 3141 2641 3141 2147 
L 3141 0 
L 2563 0 
L 2563 2109 
Q 2563 2478 2469 2650 
Q 2316 2925 1894 2925 
Q 1544 2925 1259 2684 
Q 975 2444 975 1775 
L 975 0 
L 413 0 
L 413 4606 
z
" id="Helvetica-68" transform="scale(0.015625)"/>
      </defs>
      <use xlink:href="#Helvetica-53"/>
      <use x="66.699219" xlink:href="#Helvetica-74"/>
      <use x="94.482422" xlink:href="#Helvetica-64"/>
      <use x="150.097656" xlink:href="#Helvetica-20"/>
      <use x="177.880859" xlink:href="#Helvetica-44"/>
      <use x="250.097656" xlink:href="#Helvetica-65"/>
      <use x="305.712891" xlink:href="#Helvetica-76"/>
      <use x="355.712891" xlink:href="#Helvetica-20"/>
      <use x="383.496094" xlink:href="#Helvetica-6f"/>
      <use x="439.111328" xlink:href="#Helvetica-66"/>
      <use x="466.894531" xlink:href="#Helvetica-20"/>
      <use x="494.677734" xlink:href="#Helvetica-31"/>
      <use x="550.292969" xlink:href="#Helvetica-20"/>
      <use x="578.076172" xlink:href="#Helvetica-4d"/>
      <use x="661.376953" xlink:href="#Helvetica-6f"/>
      <use x="716.992188" xlink:href="#Helvetica-6e"/>
      <use x="772.607422" xlink:href="#Helvetica-6f"/>
      <use x="828.222656" xlink:href="#Helvetica-6d"/>
      <use x="911.523438" xlink:href="#Helvetica-65"/>
      <use x="967.138672" xlink:href="#Helvetica-72"/>
      <use x="1000.439453" xlink:href="#Helvetica-20"/>
      <use x="1028.222656" xlink:href="#Helvetica-4d"/>
      <use x="1111.523438" xlink:href="#Helvetica-69"/>
      <use x="1133.740234" xlink:href="#Helvetica-73"/>
      <use x="1183.740234" xlink:href="#Helvetica-6d"/>
      <use x="1267.041016" xlink:href="#Helvetica-61"/>
      <use x="1322.65625" xlink:href="#Helvetica-74"/>
      <use x="1350.439453" xlink:href="#Helvetica-63"/>
      <use x="1400.439453" xlink:href="#Helvetica-68"/>
     </g>
    </g>
   </g>
   <g id="PolyCollection_1">
    <defs>
     <path d="M 110.787273 -94.148371 
L 110.787273 -89.574094 
L 115.707022 -89.890344 
L 120.626771 -90.902811 
L 125.54652 -88.780338 
L 130.46627 -88.331781 
L 135.386019 -88.522465 
L 140.305768 -89.029793 
L 145.225517 -89.158333 
L 150.145266 -89.370703 
L 155.065016 -90.98583 
L 159.984765 -90.260407 
L 164.904514 -92.858411 
L 169.824263 -93.938299 
L 174.744013 -91.497395 
L 179.663762 -129.315085 
L 184.583511 -112.042664 
L 189.50326 -99.533857 
L 194.423009 -128.229998 
L 199.342759 -105.30448 
L 204.262508 -105.152909 
L 209.182257 -115.418527 
L 214.102006 -91.172329 
L 219.021755 -90.701278 
L 223.941505 -112.600155 
L 228.861254 -193.112594 
L 233.781003 -176.921624 
L 238.700752 -166.668827 
L 243.620502 -185.777047 
L 248.540251 -186.149684 
L 253.46 -218.459867 
L 258.379749 -84.711818 
L 263.299498 -84.711818 
L 268.219248 -84.711818 
L 273.138997 -84.711818 
L 278.058746 -84.711818 
L 282.978495 -84.711818 
L 287.898245 -84.711818 
L 292.817994 -84.711818 
L 297.737743 -84.711818 
L 302.657492 -84.711818 
L 307.577241 -84.711818 
L 312.496991 -177.369135 
L 317.41674 -196.979575 
L 322.336489 -145.751028 
L 327.256238 -149.868587 
L 332.175987 -104.804171 
L 337.095737 -88.135593 
L 342.015486 -84.711818 
L 346.935235 -84.711818 
L 351.854984 -84.711818 
L 356.774734 -186.221473 
L 361.694483 -109.380568 
L 366.614232 -103.076456 
L 371.533981 -187.083026 
L 376.45373 -137.594979 
L 381.37348 -103.92031 
L 386.293229 -122.6745 
L 391.212978 -93.993022 
L 396.132727 -91.81805 
L 396.132727 -97.750674 
L 396.132727 -97.750674 
L 391.212978 -106.660414 
L 386.293229 -131.762281 
L 381.37348 -120.330892 
L 376.45373 -162.772181 
L 371.533981 -210.950306 
L 366.614232 -118.578902 
L 361.694483 -130.640897 
L 356.774734 -209.536299 
L 351.854984 -84.711818 
L 346.935235 -84.711818 
L 342.015486 -84.711818 
L 337.095737 -91.775009 
L 332.175987 -114.093118 
L 327.256238 -167.116764 
L 322.336489 -169.293656 
L 317.41674 -233.498985 
L 312.496991 -201.094471 
L 307.577241 -84.711818 
L 302.657492 -84.711818 
L 297.737743 -84.711818 
L 292.817994 -84.711818 
L 287.898245 -84.711818 
L 282.978495 -84.711818 
L 278.058746 -84.711818 
L 273.138997 -84.711818 
L 268.219248 -84.711818 
L 263.299498 -84.711818 
L 258.379749 -84.711818 
L 253.46 -257.748182 
L 248.540251 -213.111017 
L 243.620502 -217.847197 
L 238.700752 -196.363542 
L 233.781003 -207.767985 
L 228.861254 -218.171685 
L 223.941505 -118.622631 
L 219.021755 -94.579328 
L 214.102006 -95.72451 
L 209.182257 -139.57733 
L 204.262508 -114.777752 
L 199.342759 -114.278958 
L 194.423009 -163.085394 
L 189.50326 -110.550011 
L 184.583511 -124.843916 
L 179.663762 -155.77477 
L 174.744013 -98.570195 
L 169.824263 -99.286233 
L 164.904514 -97.534086 
L 159.984765 -94.602884 
L 155.065016 -95.335931 
L 150.145266 -93.370531 
L 145.225517 -92.767108 
L 140.305768 -92.986186 
L 135.386019 -92.461814 
L 130.46627 -93.136238 
L 125.54652 -92.672985 
L 120.626771 -95.544338 
L 115.707022 -93.778144 
L 110.787273 -94.148371 
z
" id="m5377cb5b8a" style="stroke:#808080;stroke-opacity:0.2;"/>
    </defs>
    <g clip-path="url(#pf78c1053b8)">
     <use style="fill:#808080;fill-opacity:0.2;stroke:#808080;stroke-opacity:0.2;" x="0" xlink:href="#m5377cb5b8a" y="288"/>
    </g>
   </g>
   <g id="PolyCollection_2">
    <defs>
     <path d="M 110.787273 -92.900982 
L 110.787273 -88.847223 
L 115.707022 -89.643797 
L 120.626771 -87.866594 
L 125.54652 -88.356204 
L 130.46627 -88.974088 
L 135.386019 -88.291833 
L 140.305768 -88.449574 
L 145.225517 -88.216187 
L 150.145266 -88.597967 
L 155.065016 -88.426033 
L 159.984765 -89.137892 
L 164.904514 -90.132507 
L 169.824263 -94.90644 
L 174.744013 -91.08444 
L 179.663762 -108.945733 
L 184.583511 -104.151653 
L 189.50326 -94.020032 
L 194.423009 -114.940329 
L 199.342759 -102.660495 
L 204.262508 -102.224349 
L 209.182257 -114.272305 
L 214.102006 -90.651866 
L 219.021755 -89.993666 
L 223.941505 -103.912597 
L 228.861254 -150.944932 
L 233.781003 -132.802248 
L 238.700752 -134.570796 
L 243.620502 -148.273749 
L 248.540251 -148.043454 
L 253.46 -171.203508 
L 258.379749 -84.711818 
L 263.299498 -84.711818 
L 268.219248 -84.711818 
L 273.138997 -84.711818 
L 278.058746 -84.711818 
L 282.978495 -84.711818 
L 287.898245 -84.711818 
L 292.817994 -84.711818 
L 297.737743 -84.711818 
L 302.657492 -84.711818 
L 307.577241 -84.711818 
L 312.496991 -150.327293 
L 317.41674 -153.792271 
L 322.336489 -124.90226 
L 327.256238 -133.737618 
L 332.175987 -98.018721 
L 337.095737 -86.817844 
L 342.015486 -84.711818 
L 346.935235 -84.711818 
L 351.854984 -84.711818 
L 356.774734 -159.189077 
L 361.694483 -107.953118 
L 366.614232 -103.712023 
L 371.533981 -155.039003 
L 376.45373 -129.298887 
L 381.37348 -101.543962 
L 386.293229 -116.482615 
L 391.212978 -94.927988 
L 396.132727 -92.646433 
L 396.132727 -121.488422 
L 396.132727 -121.488422 
L 391.212978 -119.149071 
L 386.293229 -123.86963 
L 381.37348 -112.438064 
L 376.45373 -144.714588 
L 371.533981 -181.658359 
L 366.614232 -137.583524 
L 361.694483 -143.457657 
L 356.774734 -187.104032 
L 351.854984 -84.711818 
L 346.935235 -84.711818 
L 342.015486 -84.711818 
L 337.095737 -89.760163 
L 332.175987 -104.577773 
L 327.256238 -153.859634 
L 322.336489 -140.464212 
L 317.41674 -181.344334 
L 312.496991 -170.091007 
L 307.577241 -84.711818 
L 302.657492 -84.711818 
L 297.737743 -84.711818 
L 292.817994 -84.711818 
L 287.898245 -84.711818 
L 282.978495 -84.711818 
L 278.058746 -84.711818 
L 273.138997 -84.711818 
L 268.219248 -84.711818 
L 263.299498 -84.711818 
L 258.379749 -84.711818 
L 253.46 -204.028107 
L 248.540251 -173.250545 
L 243.620502 -176.818165 
L 238.700752 -156.056325 
L 233.781003 -155.201175 
L 228.861254 -174.543595 
L 223.941505 -109.579325 
L 219.021755 -92.883597 
L 214.102006 -94.545469 
L 209.182257 -159.968215 
L 204.262508 -117.173867 
L 199.342759 -121.096261 
L 194.423009 -139.851376 
L 189.50326 -100.32028 
L 184.583511 -113.286028 
L 179.663762 -142.294438 
L 174.744013 -99.728894 
L 169.824263 -103.361613 
L 164.904514 -93.357678 
L 159.984765 -92.158676 
L 155.065016 -91.525813 
L 150.145266 -91.642621 
L 145.225517 -91.048592 
L 140.305768 -91.358311 
L 135.386019 -91.259222 
L 130.46627 -92.615236 
L 125.54652 -91.729234 
L 120.626771 -90.710218 
L 115.707022 -92.808391 
L 110.787273 -92.900982 
z
" id="mdadec539ae" style="stroke:#ff7f0e;stroke-opacity:0.2;"/>
    </defs>
    <g clip-path="url(#pf78c1053b8)">
     <use style="fill:#ff7f0e;fill-opacity:0.2;stroke:#ff7f0e;stroke-opacity:0.2;" x="0" xlink:href="#mdadec539ae" y="288"/>
    </g>
   </g>
   <g id="PolyCollection_3">
    <defs>
     <path d="M 110.787273 -92.511563 
L 110.787273 -88.975142 
L 115.707022 -89.494919 
L 120.626771 -89.409264 
L 125.54652 -89.213805 
L 130.46627 -88.551946 
L 135.386019 -88.075506 
L 140.305768 -89.487682 
L 145.225517 -89.396247 
L 150.145266 -88.173195 
L 155.065016 -88.984409 
L 159.984765 -87.783558 
L 164.904514 -90.180671 
L 169.824263 -94.663289 
L 174.744013 -91.109576 
L 179.663762 -150.785137 
L 184.583511 -111.16335 
L 189.50326 -95.674405 
L 194.423009 -186.947744 
L 199.342759 -104.49068 
L 204.262508 -102.291169 
L 209.182257 -166.847013 
L 214.102006 -91.763635 
L 219.021755 -91.396305 
L 223.941505 -108.83169 
L 228.861254 -161.278382 
L 233.781003 -147.229539 
L 238.700752 -142.99367 
L 243.620502 -167.145092 
L 248.540251 -165.389174 
L 253.46 -204.094301 
L 258.379749 -84.711818 
L 263.299498 -84.711818 
L 268.219248 -84.711818 
L 273.138997 -84.711818 
L 278.058746 -84.711818 
L 282.978495 -84.711818 
L 287.898245 -84.711818 
L 292.817994 -84.711818 
L 297.737743 -84.711818 
L 302.657492 -84.711818 
L 307.577241 -84.711818 
L 312.496991 -148.969369 
L 317.41674 -135.103596 
L 322.336489 -119.582243 
L 327.256238 -119.374181 
L 332.175987 -95.676864 
L 337.095737 -88.847818 
L 342.015486 -84.711818 
L 346.935235 -84.711818 
L 351.854984 -84.711818 
L 356.774734 -140.894965 
L 361.694483 -104.854959 
L 366.614232 -102.904618 
L 371.533981 -145.209816 
L 376.45373 -114.943327 
L 381.37348 -102.099971 
L 386.293229 -107.558568 
L 391.212978 -93.840171 
L 396.132727 -99.274207 
L 396.132727 -124.424844 
L 396.132727 -124.424844 
L 391.212978 -119.49635 
L 386.293229 -116.09967 
L 381.37348 -124.825966 
L 376.45373 -135.320108 
L 371.533981 -165.600938 
L 366.614232 -133.782607 
L 361.694483 -131.214091 
L 356.774734 -158.648792 
L 351.854984 -84.711818 
L 346.935235 -84.711818 
L 342.015486 -84.711818 
L 337.095737 -92.152018 
L 332.175987 -102.02171 
L 327.256238 -138.430185 
L 322.336489 -138.425788 
L 317.41674 -163.721616 
L 312.496991 -174.803415 
L 307.577241 -84.711818 
L 302.657492 -84.711818 
L 297.737743 -84.711818 
L 292.817994 -84.711818 
L 287.898245 -84.711818 
L 282.978495 -84.711818 
L 278.058746 -84.711818 
L 273.138997 -84.711818 
L 268.219248 -84.711818 
L 263.299498 -84.711818 
L 258.379749 -84.711818 
L 253.46 -235.294025 
L 248.540251 -192.61072 
L 243.620502 -198.356146 
L 238.700752 -171.063736 
L 233.781003 -177.287977 
L 228.861254 -193.046399 
L 223.941505 -112.83259 
L 219.021755 -95.242237 
L 214.102006 -96.176627 
L 209.182257 -225.680881 
L 204.262508 -112.783342 
L 199.342759 -116.453938 
L 194.423009 -257.570724 
L 189.50326 -103.224214 
L 184.583511 -129.857661 
L 179.663762 -200.995716 
L 174.744013 -98.552259 
L 169.824263 -106.583745 
L 164.904514 -93.587667 
L 159.984765 -90.480615 
L 155.065016 -91.913424 
L 150.145266 -91.811483 
L 145.225517 -93.542501 
L 140.305768 -92.742878 
L 135.386019 -90.898404 
L 130.46627 -91.583815 
L 125.54652 -92.601438 
L 120.626771 -92.726569 
L 115.707022 -93.772162 
L 110.787273 -92.511563 
z
" id="m510feae21b" style="stroke:#1f77b4;stroke-opacity:0.2;"/>
    </defs>
    <g clip-path="url(#pf78c1053b8)">
     <use style="fill:#1f77b4;fill-opacity:0.2;stroke:#1f77b4;stroke-opacity:0.2;" x="0" xlink:href="#m510feae21b" y="288"/>
    </g>
   </g>
   <g id="line2d_11">
    <path clip-path="url(#pf78c1053b8)" d="M 110.787273 196.138768 
L 115.707022 196.165756 
L 120.626771 194.776425 
L 125.54652 197.273338 
L 130.46627 197.26599 
L 135.386019 197.507861 
L 140.305768 196.99201 
L 145.225517 197.037279 
L 150.145266 196.629383 
L 155.065016 194.839119 
L 159.984765 195.568355 
L 164.904514 192.803751 
L 169.824263 191.387734 
L 174.744013 192.966205 
L 179.663762 145.455073 
L 184.583511 169.55671 
L 189.50326 182.958066 
L 194.423009 142.342304 
L 199.342759 178.208281 
L 204.262508 178.034669 
L 209.182257 160.502071 
L 214.102006 194.55158 
L 219.021755 195.359697 
L 223.941505 172.388607 
L 228.861254 82.357861 
L 233.781003 95.655196 
L 238.700752 106.483815 
L 243.620502 86.187878 
L 248.540251 88.36965 
L 253.46 49.895975 
L 258.379749 203.288182 
L 263.299498 203.288182 
L 268.219248 203.288182 
L 273.138997 203.288182 
L 278.058746 203.288182 
L 282.978495 203.288182 
L 287.898245 203.288182 
L 292.817994 203.288182 
L 297.737743 203.288182 
L 302.657492 203.288182 
L 307.577241 203.288182 
L 312.496991 98.768197 
L 317.41674 72.76072 
L 322.336489 130.477658 
L 327.256238 129.507324 
L 332.175987 178.551356 
L 337.095737 198.044699 
L 342.015486 203.288182 
L 346.935235 203.288182 
L 351.854984 203.288182 
L 356.774734 90.121114 
L 361.694483 167.989268 
L 366.614232 177.172321 
L 371.533981 88.983334 
L 376.45373 137.81642 
L 381.37348 175.874399 
L 386.293229 160.781609 
L 391.212978 187.673282 
L 396.132727 193.215638 
" style="fill:none;stroke:#808080;stroke-linecap:round;stroke-opacity:0.8;stroke-width:0.7;"/>
    <defs>
     <path d="M -0 2.5 
L 2.5 -2.5 
L -2.5 -2.5 
z
" id="m7f9a2eb8d8" style="stroke:#000000;stroke-linejoin:miter;stroke-opacity:0.8;"/>
    </defs>
    <g clip-path="url(#pf78c1053b8)">
     <use style="fill:#808080;fill-opacity:0.8;stroke:#000000;stroke-linejoin:miter;stroke-opacity:0.8;" x="110.787273" xlink:href="#m7f9a2eb8d8" y="196.138768"/>
     <use style="fill:#808080;fill-opacity:0.8;stroke:#000000;stroke-linejoin:miter;stroke-opacity:0.8;" x="115.707022" xlink:href="#m7f9a2eb8d8" y="196.165756"/>
     <use style="fill:#808080;fill-opacity:0.8;stroke:#000000;stroke-linejoin:miter;stroke-opacity:0.8;" x="120.626771" xlink:href="#m7f9a2eb8d8" y="194.776425"/>
     <use style="fill:#808080;fill-opacity:0.8;stroke:#000000;stroke-linejoin:miter;stroke-opacity:0.8;" x="125.54652" xlink:href="#m7f9a2eb8d8" y="197.273338"/>
     <use style="fill:#808080;fill-opacity:0.8;stroke:#000000;stroke-linejoin:miter;stroke-opacity:0.8;" x="130.46627" xlink:href="#m7f9a2eb8d8" y="197.26599"/>
     <use style="fill:#808080;fill-opacity:0.8;stroke:#000000;stroke-linejoin:miter;stroke-opacity:0.8;" x="135.386019" xlink:href="#m7f9a2eb8d8" y="197.507861"/>
     <use style="fill:#808080;fill-opacity:0.8;stroke:#000000;stroke-linejoin:miter;stroke-opacity:0.8;" x="140.305768" xlink:href="#m7f9a2eb8d8" y="196.99201"/>
     <use style="fill:#808080;fill-opacity:0.8;stroke:#000000;stroke-linejoin:miter;stroke-opacity:0.8;" x="145.225517" xlink:href="#m7f9a2eb8d8" y="197.037279"/>
     <use style="fill:#808080;fill-opacity:0.8;stroke:#000000;stroke-linejoin:miter;stroke-opacity:0.8;" x="150.145266" xlink:href="#m7f9a2eb8d8" y="196.629383"/>
     <use style="fill:#808080;fill-opacity:0.8;stroke:#000000;stroke-linejoin:miter;stroke-opacity:0.8;" x="155.065016" xlink:href="#m7f9a2eb8d8" y="194.839119"/>
     <use style="fill:#808080;fill-opacity:0.8;stroke:#000000;stroke-linejoin:miter;stroke-opacity:0.8;" x="159.984765" xlink:href="#m7f9a2eb8d8" y="195.568355"/>
     <use style="fill:#808080;fill-opacity:0.8;stroke:#000000;stroke-linejoin:miter;stroke-opacity:0.8;" x="164.904514" xlink:href="#m7f9a2eb8d8" y="192.803751"/>
     <use style="fill:#808080;fill-opacity:0.8;stroke:#000000;stroke-linejoin:miter;stroke-opacity:0.8;" x="169.824263" xlink:href="#m7f9a2eb8d8" y="191.387734"/>
     <use style="fill:#808080;fill-opacity:0.8;stroke:#000000;stroke-linejoin:miter;stroke-opacity:0.8;" x="174.744013" xlink:href="#m7f9a2eb8d8" y="192.966205"/>
     <use style="fill:#808080;fill-opacity:0.8;stroke:#000000;stroke-linejoin:miter;stroke-opacity:0.8;" x="179.663762" xlink:href="#m7f9a2eb8d8" y="145.455073"/>
     <use style="fill:#808080;fill-opacity:0.8;stroke:#000000;stroke-linejoin:miter;stroke-opacity:0.8;" x="184.583511" xlink:href="#m7f9a2eb8d8" y="169.55671"/>
     <use style="fill:#808080;fill-opacity:0.8;stroke:#000000;stroke-linejoin:miter;stroke-opacity:0.8;" x="189.50326" xlink:href="#m7f9a2eb8d8" y="182.958066"/>
     <use style="fill:#808080;fill-opacity:0.8;stroke:#000000;stroke-linejoin:miter;stroke-opacity:0.8;" x="194.423009" xlink:href="#m7f9a2eb8d8" y="142.342304"/>
     <use style="fill:#808080;fill-opacity:0.8;stroke:#000000;stroke-linejoin:miter;stroke-opacity:0.8;" x="199.342759" xlink:href="#m7f9a2eb8d8" y="178.208281"/>
     <use style="fill:#808080;fill-opacity:0.8;stroke:#000000;stroke-linejoin:miter;stroke-opacity:0.8;" x="204.262508" xlink:href="#m7f9a2eb8d8" y="178.034669"/>
     <use style="fill:#808080;fill-opacity:0.8;stroke:#000000;stroke-linejoin:miter;stroke-opacity:0.8;" x="209.182257" xlink:href="#m7f9a2eb8d8" y="160.502071"/>
     <use style="fill:#808080;fill-opacity:0.8;stroke:#000000;stroke-linejoin:miter;stroke-opacity:0.8;" x="214.102006" xlink:href="#m7f9a2eb8d8" y="194.55158"/>
     <use style="fill:#808080;fill-opacity:0.8;stroke:#000000;stroke-linejoin:miter;stroke-opacity:0.8;" x="219.021755" xlink:href="#m7f9a2eb8d8" y="195.359697"/>
     <use style="fill:#808080;fill-opacity:0.8;stroke:#000000;stroke-linejoin:miter;stroke-opacity:0.8;" x="223.941505" xlink:href="#m7f9a2eb8d8" y="172.388607"/>
     <use style="fill:#808080;fill-opacity:0.8;stroke:#000000;stroke-linejoin:miter;stroke-opacity:0.8;" x="228.861254" xlink:href="#m7f9a2eb8d8" y="82.357861"/>
     <use style="fill:#808080;fill-opacity:0.8;stroke:#000000;stroke-linejoin:miter;stroke-opacity:0.8;" x="233.781003" xlink:href="#m7f9a2eb8d8" y="95.655196"/>
     <use style="fill:#808080;fill-opacity:0.8;stroke:#000000;stroke-linejoin:miter;stroke-opacity:0.8;" x="238.700752" xlink:href="#m7f9a2eb8d8" y="106.483815"/>
     <use style="fill:#808080;fill-opacity:0.8;stroke:#000000;stroke-linejoin:miter;stroke-opacity:0.8;" x="243.620502" xlink:href="#m7f9a2eb8d8" y="86.187878"/>
     <use style="fill:#808080;fill-opacity:0.8;stroke:#000000;stroke-linejoin:miter;stroke-opacity:0.8;" x="248.540251" xlink:href="#m7f9a2eb8d8" y="88.36965"/>
     <use style="fill:#808080;fill-opacity:0.8;stroke:#000000;stroke-linejoin:miter;stroke-opacity:0.8;" x="253.46" xlink:href="#m7f9a2eb8d8" y="49.895975"/>
     <use style="fill:#808080;fill-opacity:0.8;stroke:#000000;stroke-linejoin:miter;stroke-opacity:0.8;" x="258.379749" xlink:href="#m7f9a2eb8d8" y="203.288182"/>
     <use style="fill:#808080;fill-opacity:0.8;stroke:#000000;stroke-linejoin:miter;stroke-opacity:0.8;" x="263.299498" xlink:href="#m7f9a2eb8d8" y="203.288182"/>
     <use style="fill:#808080;fill-opacity:0.8;stroke:#000000;stroke-linejoin:miter;stroke-opacity:0.8;" x="268.219248" xlink:href="#m7f9a2eb8d8" y="203.288182"/>
     <use style="fill:#808080;fill-opacity:0.8;stroke:#000000;stroke-linejoin:miter;stroke-opacity:0.8;" x="273.138997" xlink:href="#m7f9a2eb8d8" y="203.288182"/>
     <use style="fill:#808080;fill-opacity:0.8;stroke:#000000;stroke-linejoin:miter;stroke-opacity:0.8;" x="278.058746" xlink:href="#m7f9a2eb8d8" y="203.288182"/>
     <use style="fill:#808080;fill-opacity:0.8;stroke:#000000;stroke-linejoin:miter;stroke-opacity:0.8;" x="282.978495" xlink:href="#m7f9a2eb8d8" y="203.288182"/>
     <use style="fill:#808080;fill-opacity:0.8;stroke:#000000;stroke-linejoin:miter;stroke-opacity:0.8;" x="287.898245" xlink:href="#m7f9a2eb8d8" y="203.288182"/>
     <use style="fill:#808080;fill-opacity:0.8;stroke:#000000;stroke-linejoin:miter;stroke-opacity:0.8;" x="292.817994" xlink:href="#m7f9a2eb8d8" y="203.288182"/>
     <use style="fill:#808080;fill-opacity:0.8;stroke:#000000;stroke-linejoin:miter;stroke-opacity:0.8;" x="297.737743" xlink:href="#m7f9a2eb8d8" y="203.288182"/>
     <use style="fill:#808080;fill-opacity:0.8;stroke:#000000;stroke-linejoin:miter;stroke-opacity:0.8;" x="302.657492" xlink:href="#m7f9a2eb8d8" y="203.288182"/>
     <use style="fill:#808080;fill-opacity:0.8;stroke:#000000;stroke-linejoin:miter;stroke-opacity:0.8;" x="307.577241" xlink:href="#m7f9a2eb8d8" y="203.288182"/>
     <use style="fill:#808080;fill-opacity:0.8;stroke:#000000;stroke-linejoin:miter;stroke-opacity:0.8;" x="312.496991" xlink:href="#m7f9a2eb8d8" y="98.768197"/>
     <use style="fill:#808080;fill-opacity:0.8;stroke:#000000;stroke-linejoin:miter;stroke-opacity:0.8;" x="317.41674" xlink:href="#m7f9a2eb8d8" y="72.76072"/>
     <use style="fill:#808080;fill-opacity:0.8;stroke:#000000;stroke-linejoin:miter;stroke-opacity:0.8;" x="322.336489" xlink:href="#m7f9a2eb8d8" y="130.477658"/>
     <use style="fill:#808080;fill-opacity:0.8;stroke:#000000;stroke-linejoin:miter;stroke-opacity:0.8;" x="327.256238" xlink:href="#m7f9a2eb8d8" y="129.507324"/>
     <use style="fill:#808080;fill-opacity:0.8;stroke:#000000;stroke-linejoin:miter;stroke-opacity:0.8;" x="332.175987" xlink:href="#m7f9a2eb8d8" y="178.551356"/>
     <use style="fill:#808080;fill-opacity:0.8;stroke:#000000;stroke-linejoin:miter;stroke-opacity:0.8;" x="337.095737" xlink:href="#m7f9a2eb8d8" y="198.044699"/>
     <use style="fill:#808080;fill-opacity:0.8;stroke:#000000;stroke-linejoin:miter;stroke-opacity:0.8;" x="342.015486" xlink:href="#m7f9a2eb8d8" y="203.288182"/>
     <use style="fill:#808080;fill-opacity:0.8;stroke:#000000;stroke-linejoin:miter;stroke-opacity:0.8;" x="346.935235" xlink:href="#m7f9a2eb8d8" y="203.288182"/>
     <use style="fill:#808080;fill-opacity:0.8;stroke:#000000;stroke-linejoin:miter;stroke-opacity:0.8;" x="351.854984" xlink:href="#m7f9a2eb8d8" y="203.288182"/>
     <use style="fill:#808080;fill-opacity:0.8;stroke:#000000;stroke-linejoin:miter;stroke-opacity:0.8;" x="356.774734" xlink:href="#m7f9a2eb8d8" y="90.121114"/>
     <use style="fill:#808080;fill-opacity:0.8;stroke:#000000;stroke-linejoin:miter;stroke-opacity:0.8;" x="361.694483" xlink:href="#m7f9a2eb8d8" y="167.989268"/>
     <use style="fill:#808080;fill-opacity:0.8;stroke:#000000;stroke-linejoin:miter;stroke-opacity:0.8;" x="366.614232" xlink:href="#m7f9a2eb8d8" y="177.172321"/>
     <use style="fill:#808080;fill-opacity:0.8;stroke:#000000;stroke-linejoin:miter;stroke-opacity:0.8;" x="371.533981" xlink:href="#m7f9a2eb8d8" y="88.983334"/>
     <use style="fill:#808080;fill-opacity:0.8;stroke:#000000;stroke-linejoin:miter;stroke-opacity:0.8;" x="376.45373" xlink:href="#m7f9a2eb8d8" y="137.81642"/>
     <use style="fill:#808080;fill-opacity:0.8;stroke:#000000;stroke-linejoin:miter;stroke-opacity:0.8;" x="381.37348" xlink:href="#m7f9a2eb8d8" y="175.874399"/>
     <use style="fill:#808080;fill-opacity:0.8;stroke:#000000;stroke-linejoin:miter;stroke-opacity:0.8;" x="386.293229" xlink:href="#m7f9a2eb8d8" y="160.781609"/>
     <use style="fill:#808080;fill-opacity:0.8;stroke:#000000;stroke-linejoin:miter;stroke-opacity:0.8;" x="391.212978" xlink:href="#m7f9a2eb8d8" y="187.673282"/>
     <use style="fill:#808080;fill-opacity:0.8;stroke:#000000;stroke-linejoin:miter;stroke-opacity:0.8;" x="396.132727" xlink:href="#m7f9a2eb8d8" y="193.215638"/>
    </g>
   </g>
   <g id="line2d_12">
    <path clip-path="url(#pf78c1053b8)" d="M 110.787273 196.138768 
L 115.707022 196.165756 
L 120.626771 194.776425 
L 125.54652 197.273338 
L 130.46627 197.26599 
L 135.386019 197.507861 
L 140.305768 196.99201 
L 145.225517 197.037279 
L 150.145266 196.629383 
L 155.065016 194.839119 
L 159.984765 195.568355 
L 164.904514 192.803751 
L 169.824263 191.387734 
L 174.744013 192.966205 
L 179.663762 145.455073 
L 184.583511 169.55671 
L 189.50326 182.958066 
L 194.423009 142.342304 
L 199.342759 178.208281 
L 204.262508 178.034669 
L 209.182257 160.502071 
L 214.102006 194.55158 
L 219.021755 195.359697 
L 223.941505 172.388607 
L 228.861254 82.357861 
L 233.781003 95.655196 
L 238.700752 106.483815 
L 243.620502 86.187878 
L 248.540251 88.36965 
L 253.46 49.895975 
L 258.379749 203.288182 
L 263.299498 203.288182 
L 268.219248 203.288182 
L 273.138997 203.288182 
L 278.058746 203.288182 
L 282.978495 203.288182 
L 287.898245 203.288182 
L 292.817994 203.288182 
L 297.737743 203.288182 
L 302.657492 203.288182 
L 307.577241 203.288182 
L 312.496991 98.768197 
L 317.41674 72.76072 
L 322.336489 130.477658 
L 327.256238 129.507324 
L 332.175987 178.551356 
L 337.095737 198.044699 
L 342.015486 203.288182 
L 346.935235 203.288182 
L 351.854984 203.288182 
L 356.774734 90.121114 
L 361.694483 167.989268 
L 366.614232 177.172321 
L 371.533981 88.983334 
L 376.45373 137.81642 
L 381.37348 175.874399 
L 386.293229 160.781609 
L 391.212978 187.673282 
L 396.132727 193.215638 
" style="fill:none;stroke:#808080;stroke-linecap:round;stroke-width:0.7;"/>
   </g>
   <g id="line2d_13">
    <path clip-path="url(#pf78c1053b8)" d="M 110.787273 198.425906 
L 115.707022 198.109656 
L 120.626771 197.097189 
L 125.54652 199.219662 
L 130.46627 199.668219 
L 135.386019 199.477535 
L 140.305768 198.970207 
L 145.225517 198.841667 
L 150.145266 198.629297 
L 155.065016 197.01417 
L 159.984765 197.739593 
L 164.904514 195.141589 
L 169.824263 194.061701 
L 174.744013 196.502605 
L 179.663762 158.684915 
L 184.583511 175.957336 
L 189.50326 188.466143 
L 194.423009 159.770002 
L 199.342759 182.69552 
L 204.262508 182.847091 
L 209.182257 172.581473 
L 214.102006 196.827671 
L 219.021755 197.298722 
L 223.941505 175.399845 
L 228.861254 94.887406 
L 233.781003 111.078376 
L 238.700752 121.331173 
L 243.620502 102.222953 
L 248.540251 101.850316 
L 253.46 69.540133 
L 258.379749 203.288182 
L 263.299498 203.288182 
L 268.219248 203.288182 
L 273.138997 203.288182 
L 278.058746 203.288182 
L 282.978495 203.288182 
L 287.898245 203.288182 
L 292.817994 203.288182 
L 297.737743 203.288182 
L 302.657492 203.288182 
L 307.577241 203.288182 
L 312.496991 110.630865 
L 317.41674 91.020425 
L 322.336489 142.248972 
L 327.256238 138.131413 
L 332.175987 183.195829 
L 337.095737 199.864407 
L 342.015486 203.288182 
L 346.935235 203.288182 
L 351.854984 203.288182 
L 356.774734 101.778527 
L 361.694483 178.619432 
L 366.614232 184.923544 
L 371.533981 100.916974 
L 376.45373 150.405021 
L 381.37348 184.07969 
L 386.293229 165.3255 
L 391.212978 194.006978 
L 396.132727 196.18195 
" style="fill:none;stroke:#808080;stroke-dasharray:1.85,0.8;stroke-dashoffset:0;stroke-width:0.5;"/>
   </g>
   <g id="line2d_14">
    <path clip-path="url(#pf78c1053b8)" d="M 110.787273 193.851629 
L 115.707022 194.221856 
L 120.626771 192.455662 
L 125.54652 195.327015 
L 130.46627 194.863762 
L 135.386019 195.538186 
L 140.305768 195.013814 
L 145.225517 195.232892 
L 150.145266 194.629469 
L 155.065016 192.664069 
L 159.984765 193.397116 
L 164.904514 190.465914 
L 169.824263 188.713767 
L 174.744013 189.429805 
L 179.663762 132.22523 
L 184.583511 163.156084 
L 189.50326 177.449989 
L 194.423009 124.914606 
L 199.342759 173.721042 
L 204.262508 173.222248 
L 209.182257 148.42267 
L 214.102006 192.27549 
L 219.021755 193.420672 
L 223.941505 169.377369 
L 228.861254 69.828315 
L 233.781003 80.232015 
L 238.700752 91.636458 
L 243.620502 70.152803 
L 248.540251 74.888983 
L 253.46 30.251818 
L 258.379749 203.288182 
L 263.299498 203.288182 
L 268.219248 203.288182 
L 273.138997 203.288182 
L 278.058746 203.288182 
L 282.978495 203.288182 
L 287.898245 203.288182 
L 292.817994 203.288182 
L 297.737743 203.288182 
L 302.657492 203.288182 
L 307.577241 203.288182 
L 312.496991 86.905529 
L 317.41674 54.501015 
L 322.336489 118.706344 
L 327.256238 120.883236 
L 332.175987 173.906882 
L 337.095737 196.224991 
L 342.015486 203.288182 
L 346.935235 203.288182 
L 351.854984 203.288182 
L 356.774734 78.463701 
L 361.694483 157.359103 
L 366.614232 169.421098 
L 371.533981 77.049694 
L 376.45373 125.227819 
L 381.37348 167.669108 
L 386.293229 156.237719 
L 391.212978 181.339586 
L 396.132727 190.249326 
" style="fill:none;stroke:#808080;stroke-dasharray:1.85,0.8;stroke-dashoffset:0;stroke-width:0.5;"/>
   </g>
   <g id="line2d_15">
    <path clip-path="url(#pf78c1053b8)" d="M 110.787273 197.125898 
L 115.707022 196.773906 
L 120.626771 198.711594 
L 125.54652 197.957281 
L 130.46627 197.205338 
L 135.386019 198.224473 
L 140.305768 198.096058 
L 145.225517 198.36761 
L 150.145266 197.879706 
L 155.065016 198.024077 
L 159.984765 197.351716 
L 164.904514 196.254907 
L 169.824263 188.865974 
L 174.744013 192.593333 
L 179.663762 162.379914 
L 184.583511 179.281159 
L 189.50326 190.829844 
L 194.423009 160.604147 
L 199.342759 176.121622 
L 204.262508 178.300892 
L 209.182257 150.87974 
L 214.102006 195.401333 
L 219.021755 196.561369 
L 223.941505 181.254039 
L 228.861254 125.255736 
L 233.781003 143.998289 
L 238.700752 142.68644 
L 243.620502 125.454043 
L 248.540251 127.353 
L 253.46 100.384193 
L 258.379749 203.288182 
L 263.299498 203.288182 
L 268.219248 203.288182 
L 273.138997 203.288182 
L 278.058746 203.288182 
L 282.978495 203.288182 
L 287.898245 203.288182 
L 292.817994 203.288182 
L 297.737743 203.288182 
L 302.657492 203.288182 
L 307.577241 203.288182 
L 312.496991 127.79085 
L 317.41674 120.431697 
L 322.336489 155.316764 
L 327.256238 144.201374 
L 332.175987 186.701753 
L 337.095737 199.710997 
L 342.015486 203.288182 
L 346.935235 203.288182 
L 351.854984 203.288182 
L 356.774734 114.853445 
L 361.694483 162.294613 
L 366.614232 167.352227 
L 371.533981 119.651319 
L 376.45373 150.993263 
L 381.37348 181.008987 
L 386.293229 167.823877 
L 391.212978 180.96147 
L 396.132727 180.932573 
" style="fill:none;stroke:#ff7f0e;stroke-linecap:round;stroke-opacity:0.8;stroke-width:0.7;"/>
    <defs>
     <path d="M 0 -2.5 
L -2.5 2.5 
L 2.5 2.5 
z
" id="m0ff04a53c7" style="stroke:#000000;stroke-linejoin:miter;stroke-opacity:0.8;"/>
    </defs>
    <g clip-path="url(#pf78c1053b8)">
     <use style="fill:#ff7f0e;fill-opacity:0.8;stroke:#000000;stroke-linejoin:miter;stroke-opacity:0.8;" x="110.787273" xlink:href="#m0ff04a53c7" y="197.125898"/>
     <use style="fill:#ff7f0e;fill-opacity:0.8;stroke:#000000;stroke-linejoin:miter;stroke-opacity:0.8;" x="115.707022" xlink:href="#m0ff04a53c7" y="196.773906"/>
     <use style="fill:#ff7f0e;fill-opacity:0.8;stroke:#000000;stroke-linejoin:miter;stroke-opacity:0.8;" x="120.626771" xlink:href="#m0ff04a53c7" y="198.711594"/>
     <use style="fill:#ff7f0e;fill-opacity:0.8;stroke:#000000;stroke-linejoin:miter;stroke-opacity:0.8;" x="125.54652" xlink:href="#m0ff04a53c7" y="197.957281"/>
     <use style="fill:#ff7f0e;fill-opacity:0.8;stroke:#000000;stroke-linejoin:miter;stroke-opacity:0.8;" x="130.46627" xlink:href="#m0ff04a53c7" y="197.205338"/>
     <use style="fill:#ff7f0e;fill-opacity:0.8;stroke:#000000;stroke-linejoin:miter;stroke-opacity:0.8;" x="135.386019" xlink:href="#m0ff04a53c7" y="198.224473"/>
     <use style="fill:#ff7f0e;fill-opacity:0.8;stroke:#000000;stroke-linejoin:miter;stroke-opacity:0.8;" x="140.305768" xlink:href="#m0ff04a53c7" y="198.096058"/>
     <use style="fill:#ff7f0e;fill-opacity:0.8;stroke:#000000;stroke-linejoin:miter;stroke-opacity:0.8;" x="145.225517" xlink:href="#m0ff04a53c7" y="198.36761"/>
     <use style="fill:#ff7f0e;fill-opacity:0.8;stroke:#000000;stroke-linejoin:miter;stroke-opacity:0.8;" x="150.145266" xlink:href="#m0ff04a53c7" y="197.879706"/>
     <use style="fill:#ff7f0e;fill-opacity:0.8;stroke:#000000;stroke-linejoin:miter;stroke-opacity:0.8;" x="155.065016" xlink:href="#m0ff04a53c7" y="198.024077"/>
     <use style="fill:#ff7f0e;fill-opacity:0.8;stroke:#000000;stroke-linejoin:miter;stroke-opacity:0.8;" x="159.984765" xlink:href="#m0ff04a53c7" y="197.351716"/>
     <use style="fill:#ff7f0e;fill-opacity:0.8;stroke:#000000;stroke-linejoin:miter;stroke-opacity:0.8;" x="164.904514" xlink:href="#m0ff04a53c7" y="196.254907"/>
     <use style="fill:#ff7f0e;fill-opacity:0.8;stroke:#000000;stroke-linejoin:miter;stroke-opacity:0.8;" x="169.824263" xlink:href="#m0ff04a53c7" y="188.865974"/>
     <use style="fill:#ff7f0e;fill-opacity:0.8;stroke:#000000;stroke-linejoin:miter;stroke-opacity:0.8;" x="174.744013" xlink:href="#m0ff04a53c7" y="192.593333"/>
     <use style="fill:#ff7f0e;fill-opacity:0.8;stroke:#000000;stroke-linejoin:miter;stroke-opacity:0.8;" x="179.663762" xlink:href="#m0ff04a53c7" y="162.379914"/>
     <use style="fill:#ff7f0e;fill-opacity:0.8;stroke:#000000;stroke-linejoin:miter;stroke-opacity:0.8;" x="184.583511" xlink:href="#m0ff04a53c7" y="179.281159"/>
     <use style="fill:#ff7f0e;fill-opacity:0.8;stroke:#000000;stroke-linejoin:miter;stroke-opacity:0.8;" x="189.50326" xlink:href="#m0ff04a53c7" y="190.829844"/>
     <use style="fill:#ff7f0e;fill-opacity:0.8;stroke:#000000;stroke-linejoin:miter;stroke-opacity:0.8;" x="194.423009" xlink:href="#m0ff04a53c7" y="160.604147"/>
     <use style="fill:#ff7f0e;fill-opacity:0.8;stroke:#000000;stroke-linejoin:miter;stroke-opacity:0.8;" x="199.342759" xlink:href="#m0ff04a53c7" y="176.121622"/>
     <use style="fill:#ff7f0e;fill-opacity:0.8;stroke:#000000;stroke-linejoin:miter;stroke-opacity:0.8;" x="204.262508" xlink:href="#m0ff04a53c7" y="178.300892"/>
     <use style="fill:#ff7f0e;fill-opacity:0.8;stroke:#000000;stroke-linejoin:miter;stroke-opacity:0.8;" x="209.182257" xlink:href="#m0ff04a53c7" y="150.87974"/>
     <use style="fill:#ff7f0e;fill-opacity:0.8;stroke:#000000;stroke-linejoin:miter;stroke-opacity:0.8;" x="214.102006" xlink:href="#m0ff04a53c7" y="195.401333"/>
     <use style="fill:#ff7f0e;fill-opacity:0.8;stroke:#000000;stroke-linejoin:miter;stroke-opacity:0.8;" x="219.021755" xlink:href="#m0ff04a53c7" y="196.561369"/>
     <use style="fill:#ff7f0e;fill-opacity:0.8;stroke:#000000;stroke-linejoin:miter;stroke-opacity:0.8;" x="223.941505" xlink:href="#m0ff04a53c7" y="181.254039"/>
     <use style="fill:#ff7f0e;fill-opacity:0.8;stroke:#000000;stroke-linejoin:miter;stroke-opacity:0.8;" x="228.861254" xlink:href="#m0ff04a53c7" y="125.255736"/>
     <use style="fill:#ff7f0e;fill-opacity:0.8;stroke:#000000;stroke-linejoin:miter;stroke-opacity:0.8;" x="233.781003" xlink:href="#m0ff04a53c7" y="143.998289"/>
     <use style="fill:#ff7f0e;fill-opacity:0.8;stroke:#000000;stroke-linejoin:miter;stroke-opacity:0.8;" x="238.700752" xlink:href="#m0ff04a53c7" y="142.68644"/>
     <use style="fill:#ff7f0e;fill-opacity:0.8;stroke:#000000;stroke-linejoin:miter;stroke-opacity:0.8;" x="243.620502" xlink:href="#m0ff04a53c7" y="125.454043"/>
     <use style="fill:#ff7f0e;fill-opacity:0.8;stroke:#000000;stroke-linejoin:miter;stroke-opacity:0.8;" x="248.540251" xlink:href="#m0ff04a53c7" y="127.353"/>
     <use style="fill:#ff7f0e;fill-opacity:0.8;stroke:#000000;stroke-linejoin:miter;stroke-opacity:0.8;" x="253.46" xlink:href="#m0ff04a53c7" y="100.384193"/>
     <use style="fill:#ff7f0e;fill-opacity:0.8;stroke:#000000;stroke-linejoin:miter;stroke-opacity:0.8;" x="258.379749" xlink:href="#m0ff04a53c7" y="203.288182"/>
     <use style="fill:#ff7f0e;fill-opacity:0.8;stroke:#000000;stroke-linejoin:miter;stroke-opacity:0.8;" x="263.299498" xlink:href="#m0ff04a53c7" y="203.288182"/>
     <use style="fill:#ff7f0e;fill-opacity:0.8;stroke:#000000;stroke-linejoin:miter;stroke-opacity:0.8;" x="268.219248" xlink:href="#m0ff04a53c7" y="203.288182"/>
     <use style="fill:#ff7f0e;fill-opacity:0.8;stroke:#000000;stroke-linejoin:miter;stroke-opacity:0.8;" x="273.138997" xlink:href="#m0ff04a53c7" y="203.288182"/>
     <use style="fill:#ff7f0e;fill-opacity:0.8;stroke:#000000;stroke-linejoin:miter;stroke-opacity:0.8;" x="278.058746" xlink:href="#m0ff04a53c7" y="203.288182"/>
     <use style="fill:#ff7f0e;fill-opacity:0.8;stroke:#000000;stroke-linejoin:miter;stroke-opacity:0.8;" x="282.978495" xlink:href="#m0ff04a53c7" y="203.288182"/>
     <use style="fill:#ff7f0e;fill-opacity:0.8;stroke:#000000;stroke-linejoin:miter;stroke-opacity:0.8;" x="287.898245" xlink:href="#m0ff04a53c7" y="203.288182"/>
     <use style="fill:#ff7f0e;fill-opacity:0.8;stroke:#000000;stroke-linejoin:miter;stroke-opacity:0.8;" x="292.817994" xlink:href="#m0ff04a53c7" y="203.288182"/>
     <use style="fill:#ff7f0e;fill-opacity:0.8;stroke:#000000;stroke-linejoin:miter;stroke-opacity:0.8;" x="297.737743" xlink:href="#m0ff04a53c7" y="203.288182"/>
     <use style="fill:#ff7f0e;fill-opacity:0.8;stroke:#000000;stroke-linejoin:miter;stroke-opacity:0.8;" x="302.657492" xlink:href="#m0ff04a53c7" y="203.288182"/>
     <use style="fill:#ff7f0e;fill-opacity:0.8;stroke:#000000;stroke-linejoin:miter;stroke-opacity:0.8;" x="307.577241" xlink:href="#m0ff04a53c7" y="203.288182"/>
     <use style="fill:#ff7f0e;fill-opacity:0.8;stroke:#000000;stroke-linejoin:miter;stroke-opacity:0.8;" x="312.496991" xlink:href="#m0ff04a53c7" y="127.79085"/>
     <use style="fill:#ff7f0e;fill-opacity:0.8;stroke:#000000;stroke-linejoin:miter;stroke-opacity:0.8;" x="317.41674" xlink:href="#m0ff04a53c7" y="120.431697"/>
     <use style="fill:#ff7f0e;fill-opacity:0.8;stroke:#000000;stroke-linejoin:miter;stroke-opacity:0.8;" x="322.336489" xlink:href="#m0ff04a53c7" y="155.316764"/>
     <use style="fill:#ff7f0e;fill-opacity:0.8;stroke:#000000;stroke-linejoin:miter;stroke-opacity:0.8;" x="327.256238" xlink:href="#m0ff04a53c7" y="144.201374"/>
     <use style="fill:#ff7f0e;fill-opacity:0.8;stroke:#000000;stroke-linejoin:miter;stroke-opacity:0.8;" x="332.175987" xlink:href="#m0ff04a53c7" y="186.701753"/>
     <use style="fill:#ff7f0e;fill-opacity:0.8;stroke:#000000;stroke-linejoin:miter;stroke-opacity:0.8;" x="337.095737" xlink:href="#m0ff04a53c7" y="199.710997"/>
     <use style="fill:#ff7f0e;fill-opacity:0.8;stroke:#000000;stroke-linejoin:miter;stroke-opacity:0.8;" x="342.015486" xlink:href="#m0ff04a53c7" y="203.288182"/>
     <use style="fill:#ff7f0e;fill-opacity:0.8;stroke:#000000;stroke-linejoin:miter;stroke-opacity:0.8;" x="346.935235" xlink:href="#m0ff04a53c7" y="203.288182"/>
     <use style="fill:#ff7f0e;fill-opacity:0.8;stroke:#000000;stroke-linejoin:miter;stroke-opacity:0.8;" x="351.854984" xlink:href="#m0ff04a53c7" y="203.288182"/>
     <use style="fill:#ff7f0e;fill-opacity:0.8;stroke:#000000;stroke-linejoin:miter;stroke-opacity:0.8;" x="356.774734" xlink:href="#m0ff04a53c7" y="114.853445"/>
     <use style="fill:#ff7f0e;fill-opacity:0.8;stroke:#000000;stroke-linejoin:miter;stroke-opacity:0.8;" x="361.694483" xlink:href="#m0ff04a53c7" y="162.294613"/>
     <use style="fill:#ff7f0e;fill-opacity:0.8;stroke:#000000;stroke-linejoin:miter;stroke-opacity:0.8;" x="366.614232" xlink:href="#m0ff04a53c7" y="167.352227"/>
     <use style="fill:#ff7f0e;fill-opacity:0.8;stroke:#000000;stroke-linejoin:miter;stroke-opacity:0.8;" x="371.533981" xlink:href="#m0ff04a53c7" y="119.651319"/>
     <use style="fill:#ff7f0e;fill-opacity:0.8;stroke:#000000;stroke-linejoin:miter;stroke-opacity:0.8;" x="376.45373" xlink:href="#m0ff04a53c7" y="150.993263"/>
     <use style="fill:#ff7f0e;fill-opacity:0.8;stroke:#000000;stroke-linejoin:miter;stroke-opacity:0.8;" x="381.37348" xlink:href="#m0ff04a53c7" y="181.008987"/>
     <use style="fill:#ff7f0e;fill-opacity:0.8;stroke:#000000;stroke-linejoin:miter;stroke-opacity:0.8;" x="386.293229" xlink:href="#m0ff04a53c7" y="167.823877"/>
     <use style="fill:#ff7f0e;fill-opacity:0.8;stroke:#000000;stroke-linejoin:miter;stroke-opacity:0.8;" x="391.212978" xlink:href="#m0ff04a53c7" y="180.96147"/>
     <use style="fill:#ff7f0e;fill-opacity:0.8;stroke:#000000;stroke-linejoin:miter;stroke-opacity:0.8;" x="396.132727" xlink:href="#m0ff04a53c7" y="180.932573"/>
    </g>
   </g>
   <g id="line2d_16">
    <path clip-path="url(#pf78c1053b8)" d="M 110.787273 197.125898 
L 115.707022 196.773906 
L 120.626771 198.711594 
L 125.54652 197.957281 
L 130.46627 197.205338 
L 135.386019 198.224473 
L 140.305768 198.096058 
L 145.225517 198.36761 
L 150.145266 197.879706 
L 155.065016 198.024077 
L 159.984765 197.351716 
L 164.904514 196.254907 
L 169.824263 188.865974 
L 174.744013 192.593333 
L 179.663762 162.379914 
L 184.583511 179.281159 
L 189.50326 190.829844 
L 194.423009 160.604147 
L 199.342759 176.121622 
L 204.262508 178.300892 
L 209.182257 150.87974 
L 214.102006 195.401333 
L 219.021755 196.561369 
L 223.941505 181.254039 
L 228.861254 125.255736 
L 233.781003 143.998289 
L 238.700752 142.68644 
L 243.620502 125.454043 
L 248.540251 127.353 
L 253.46 100.384193 
L 258.379749 203.288182 
L 263.299498 203.288182 
L 268.219248 203.288182 
L 273.138997 203.288182 
L 278.058746 203.288182 
L 282.978495 203.288182 
L 287.898245 203.288182 
L 292.817994 203.288182 
L 297.737743 203.288182 
L 302.657492 203.288182 
L 307.577241 203.288182 
L 312.496991 127.79085 
L 317.41674 120.431697 
L 322.336489 155.316764 
L 327.256238 144.201374 
L 332.175987 186.701753 
L 337.095737 199.710997 
L 342.015486 203.288182 
L 346.935235 203.288182 
L 351.854984 203.288182 
L 356.774734 114.853445 
L 361.694483 162.294613 
L 366.614232 167.352227 
L 371.533981 119.651319 
L 376.45373 150.993263 
L 381.37348 181.008987 
L 386.293229 167.823877 
L 391.212978 180.96147 
L 396.132727 180.932573 
" style="fill:none;stroke:#ff7f0e;stroke-linecap:round;stroke-width:0.7;"/>
   </g>
   <g id="line2d_17">
    <path clip-path="url(#pf78c1053b8)" d="M 110.787273 199.152777 
L 115.707022 198.356203 
L 120.626771 200.133406 
L 125.54652 199.643796 
L 130.46627 199.025912 
L 135.386019 199.708167 
L 140.305768 199.550426 
L 145.225517 199.783813 
L 150.145266 199.402033 
L 155.065016 199.573967 
L 159.984765 198.862108 
L 164.904514 197.867493 
L 169.824263 193.09356 
L 174.744013 196.91556 
L 179.663762 179.054267 
L 184.583511 183.848347 
L 189.50326 193.979968 
L 194.423009 173.059671 
L 199.342759 185.339505 
L 204.262508 185.775651 
L 209.182257 173.727695 
L 214.102006 197.348134 
L 219.021755 198.006334 
L 223.941505 184.087403 
L 228.861254 137.055068 
L 233.781003 155.197752 
L 238.700752 153.429204 
L 243.620502 139.726251 
L 248.540251 139.956546 
L 253.46 116.796492 
L 258.379749 203.288182 
L 263.299498 203.288182 
L 268.219248 203.288182 
L 273.138997 203.288182 
L 278.058746 203.288182 
L 282.978495 203.288182 
L 287.898245 203.288182 
L 292.817994 203.288182 
L 297.737743 203.288182 
L 302.657492 203.288182 
L 307.577241 203.288182 
L 312.496991 137.672707 
L 317.41674 134.207729 
L 322.336489 163.09774 
L 327.256238 154.262382 
L 332.175987 189.981279 
L 337.095737 201.182156 
L 342.015486 203.288182 
L 346.935235 203.288182 
L 351.854984 203.288182 
L 356.774734 128.810923 
L 361.694483 180.046882 
L 366.614232 184.287977 
L 371.533981 132.960997 
L 376.45373 158.701113 
L 381.37348 186.456038 
L 386.293229 171.517385 
L 391.212978 193.072012 
L 396.132727 195.353567 
" style="fill:none;stroke:#ff7f0e;stroke-dasharray:1.85,0.8;stroke-dashoffset:0;stroke-width:0.5;"/>
   </g>
   <g id="line2d_18">
    <path clip-path="url(#pf78c1053b8)" d="M 110.787273 195.099018 
L 115.707022 195.191609 
L 120.626771 197.289782 
L 125.54652 196.270766 
L 130.46627 195.384764 
L 135.386019 196.740778 
L 140.305768 196.641689 
L 145.225517 196.951408 
L 150.145266 196.357379 
L 155.065016 196.474187 
L 159.984765 195.841324 
L 164.904514 194.642322 
L 169.824263 184.638387 
L 174.744013 188.271106 
L 179.663762 145.705562 
L 184.583511 174.713972 
L 189.50326 187.67972 
L 194.423009 148.148624 
L 199.342759 166.903739 
L 204.262508 170.826133 
L 209.182257 128.031785 
L 214.102006 193.454531 
L 219.021755 195.116403 
L 223.941505 178.420675 
L 228.861254 113.456405 
L 233.781003 132.798825 
L 238.700752 131.943675 
L 243.620502 111.181835 
L 248.540251 114.749455 
L 253.46 83.971893 
L 258.379749 203.288182 
L 263.299498 203.288182 
L 268.219248 203.288182 
L 273.138997 203.288182 
L 278.058746 203.288182 
L 282.978495 203.288182 
L 287.898245 203.288182 
L 292.817994 203.288182 
L 297.737743 203.288182 
L 302.657492 203.288182 
L 307.577241 203.288182 
L 312.496991 117.908993 
L 317.41674 106.655666 
L 322.336489 147.535788 
L 327.256238 134.140366 
L 332.175987 183.422227 
L 337.095737 198.239837 
L 342.015486 203.288182 
L 346.935235 203.288182 
L 351.854984 203.288182 
L 356.774734 100.895968 
L 361.694483 144.542343 
L 366.614232 150.416476 
L 371.533981 106.341641 
L 376.45373 143.285412 
L 381.37348 175.561936 
L 386.293229 164.13037 
L 391.212978 168.850929 
L 396.132727 166.511578 
" style="fill:none;stroke:#ff7f0e;stroke-dasharray:1.85,0.8;stroke-dashoffset:0;stroke-width:0.5;"/>
   </g>
   <g id="line2d_19">
    <path clip-path="url(#pf78c1053b8)" d="M 110.787273 197.256647 
L 115.707022 196.366459 
L 120.626771 196.932083 
L 125.54652 197.092379 
L 130.46627 197.93212 
L 135.386019 198.513045 
L 140.305768 196.88472 
L 145.225517 196.530626 
L 150.145266 198.007661 
L 155.065016 197.551084 
L 159.984765 198.867913 
L 164.904514 196.115831 
L 169.824263 187.376483 
L 174.744013 193.169083 
L 179.663762 112.109573 
L 184.583511 167.489494 
L 189.50326 188.550691 
L 194.423009 65.740766 
L 199.342759 177.527691 
L 204.262508 180.462744 
L 209.182257 91.736053 
L 214.102006 194.029869 
L 219.021755 194.680729 
L 223.941505 177.16786 
L 228.861254 110.837609 
L 233.781003 125.741242 
L 238.700752 130.971297 
L 243.620502 105.249381 
L 248.540251 109.000053 
L 253.46 68.305837 
L 258.379749 203.288182 
L 263.299498 203.288182 
L 268.219248 203.288182 
L 273.138997 203.288182 
L 278.058746 203.288182 
L 282.978495 203.288182 
L 287.898245 203.288182 
L 292.817994 203.288182 
L 297.737743 203.288182 
L 302.657492 203.288182 
L 307.577241 203.288182 
L 312.496991 126.113608 
L 317.41674 138.587394 
L 322.336489 158.995985 
L 327.256238 159.097817 
L 332.175987 189.150713 
L 337.095737 197.500082 
L 342.015486 203.288182 
L 346.935235 203.288182 
L 351.854984 203.288182 
L 356.774734 138.228122 
L 361.694483 169.965475 
L 366.614232 169.656388 
L 371.533981 132.594623 
L 376.45373 162.868283 
L 381.37348 174.537031 
L 386.293229 176.170881 
L 391.212978 181.33174 
L 396.132727 176.150475 
" style="fill:none;stroke:#1f77b4;stroke-linecap:round;stroke-opacity:0.8;stroke-width:0.7;"/>
    <defs>
     <path d="M 0 2.5 
C 0.663008 2.5 1.29895 2.236584 1.767767 1.767767 
C 2.236584 1.29895 2.5 0.663008 2.5 0 
C 2.5 -0.663008 2.236584 -1.29895 1.767767 -1.767767 
C 1.29895 -2.236584 0.663008 -2.5 0 -2.5 
C -0.663008 -2.5 -1.29895 -2.236584 -1.767767 -1.767767 
C -2.236584 -1.29895 -2.5 -0.663008 -2.5 0 
C -2.5 0.663008 -2.236584 1.29895 -1.767767 1.767767 
C -1.29895 2.236584 -0.663008 2.5 0 2.5 
z
" id="m6b282516b3" style="stroke:#000000;stroke-opacity:0.8;"/>
    </defs>
    <g clip-path="url(#pf78c1053b8)">
     <use style="fill:#1f77b4;fill-opacity:0.8;stroke:#000000;stroke-opacity:0.8;" x="110.787273" xlink:href="#m6b282516b3" y="197.256647"/>
     <use style="fill:#1f77b4;fill-opacity:0.8;stroke:#000000;stroke-opacity:0.8;" x="115.707022" xlink:href="#m6b282516b3" y="196.366459"/>
     <use style="fill:#1f77b4;fill-opacity:0.8;stroke:#000000;stroke-opacity:0.8;" x="120.626771" xlink:href="#m6b282516b3" y="196.932083"/>
     <use style="fill:#1f77b4;fill-opacity:0.8;stroke:#000000;stroke-opacity:0.8;" x="125.54652" xlink:href="#m6b282516b3" y="197.092379"/>
     <use style="fill:#1f77b4;fill-opacity:0.8;stroke:#000000;stroke-opacity:0.8;" x="130.46627" xlink:href="#m6b282516b3" y="197.93212"/>
     <use style="fill:#1f77b4;fill-opacity:0.8;stroke:#000000;stroke-opacity:0.8;" x="135.386019" xlink:href="#m6b282516b3" y="198.513045"/>
     <use style="fill:#1f77b4;fill-opacity:0.8;stroke:#000000;stroke-opacity:0.8;" x="140.305768" xlink:href="#m6b282516b3" y="196.88472"/>
     <use style="fill:#1f77b4;fill-opacity:0.8;stroke:#000000;stroke-opacity:0.8;" x="145.225517" xlink:href="#m6b282516b3" y="196.530626"/>
     <use style="fill:#1f77b4;fill-opacity:0.8;stroke:#000000;stroke-opacity:0.8;" x="150.145266" xlink:href="#m6b282516b3" y="198.007661"/>
     <use style="fill:#1f77b4;fill-opacity:0.8;stroke:#000000;stroke-opacity:0.8;" x="155.065016" xlink:href="#m6b282516b3" y="197.551084"/>
     <use style="fill:#1f77b4;fill-opacity:0.8;stroke:#000000;stroke-opacity:0.8;" x="159.984765" xlink:href="#m6b282516b3" y="198.867913"/>
     <use style="fill:#1f77b4;fill-opacity:0.8;stroke:#000000;stroke-opacity:0.8;" x="164.904514" xlink:href="#m6b282516b3" y="196.115831"/>
     <use style="fill:#1f77b4;fill-opacity:0.8;stroke:#000000;stroke-opacity:0.8;" x="169.824263" xlink:href="#m6b282516b3" y="187.376483"/>
     <use style="fill:#1f77b4;fill-opacity:0.8;stroke:#000000;stroke-opacity:0.8;" x="174.744013" xlink:href="#m6b282516b3" y="193.169083"/>
     <use style="fill:#1f77b4;fill-opacity:0.8;stroke:#000000;stroke-opacity:0.8;" x="179.663762" xlink:href="#m6b282516b3" y="112.109573"/>
     <use style="fill:#1f77b4;fill-opacity:0.8;stroke:#000000;stroke-opacity:0.8;" x="184.583511" xlink:href="#m6b282516b3" y="167.489494"/>
     <use style="fill:#1f77b4;fill-opacity:0.8;stroke:#000000;stroke-opacity:0.8;" x="189.50326" xlink:href="#m6b282516b3" y="188.550691"/>
     <use style="fill:#1f77b4;fill-opacity:0.8;stroke:#000000;stroke-opacity:0.8;" x="194.423009" xlink:href="#m6b282516b3" y="65.740766"/>
     <use style="fill:#1f77b4;fill-opacity:0.8;stroke:#000000;stroke-opacity:0.8;" x="199.342759" xlink:href="#m6b282516b3" y="177.527691"/>
     <use style="fill:#1f77b4;fill-opacity:0.8;stroke:#000000;stroke-opacity:0.8;" x="204.262508" xlink:href="#m6b282516b3" y="180.462744"/>
     <use style="fill:#1f77b4;fill-opacity:0.8;stroke:#000000;stroke-opacity:0.8;" x="209.182257" xlink:href="#m6b282516b3" y="91.736053"/>
     <use style="fill:#1f77b4;fill-opacity:0.8;stroke:#000000;stroke-opacity:0.8;" x="214.102006" xlink:href="#m6b282516b3" y="194.029869"/>
     <use style="fill:#1f77b4;fill-opacity:0.8;stroke:#000000;stroke-opacity:0.8;" x="219.021755" xlink:href="#m6b282516b3" y="194.680729"/>
     <use style="fill:#1f77b4;fill-opacity:0.8;stroke:#000000;stroke-opacity:0.8;" x="223.941505" xlink:href="#m6b282516b3" y="177.16786"/>
     <use style="fill:#1f77b4;fill-opacity:0.8;stroke:#000000;stroke-opacity:0.8;" x="228.861254" xlink:href="#m6b282516b3" y="110.837609"/>
     <use style="fill:#1f77b4;fill-opacity:0.8;stroke:#000000;stroke-opacity:0.8;" x="233.781003" xlink:href="#m6b282516b3" y="125.741242"/>
     <use style="fill:#1f77b4;fill-opacity:0.8;stroke:#000000;stroke-opacity:0.8;" x="238.700752" xlink:href="#m6b282516b3" y="130.971297"/>
     <use style="fill:#1f77b4;fill-opacity:0.8;stroke:#000000;stroke-opacity:0.8;" x="243.620502" xlink:href="#m6b282516b3" y="105.249381"/>
     <use style="fill:#1f77b4;fill-opacity:0.8;stroke:#000000;stroke-opacity:0.8;" x="248.540251" xlink:href="#m6b282516b3" y="109.000053"/>
     <use style="fill:#1f77b4;fill-opacity:0.8;stroke:#000000;stroke-opacity:0.8;" x="253.46" xlink:href="#m6b282516b3" y="68.305837"/>
     <use style="fill:#1f77b4;fill-opacity:0.8;stroke:#000000;stroke-opacity:0.8;" x="258.379749" xlink:href="#m6b282516b3" y="203.288182"/>
     <use style="fill:#1f77b4;fill-opacity:0.8;stroke:#000000;stroke-opacity:0.8;" x="263.299498" xlink:href="#m6b282516b3" y="203.288182"/>
     <use style="fill:#1f77b4;fill-opacity:0.8;stroke:#000000;stroke-opacity:0.8;" x="268.219248" xlink:href="#m6b282516b3" y="203.288182"/>
     <use style="fill:#1f77b4;fill-opacity:0.8;stroke:#000000;stroke-opacity:0.8;" x="273.138997" xlink:href="#m6b282516b3" y="203.288182"/>
     <use style="fill:#1f77b4;fill-opacity:0.8;stroke:#000000;stroke-opacity:0.8;" x="278.058746" xlink:href="#m6b282516b3" y="203.288182"/>
     <use style="fill:#1f77b4;fill-opacity:0.8;stroke:#000000;stroke-opacity:0.8;" x="282.978495" xlink:href="#m6b282516b3" y="203.288182"/>
     <use style="fill:#1f77b4;fill-opacity:0.8;stroke:#000000;stroke-opacity:0.8;" x="287.898245" xlink:href="#m6b282516b3" y="203.288182"/>
     <use style="fill:#1f77b4;fill-opacity:0.8;stroke:#000000;stroke-opacity:0.8;" x="292.817994" xlink:href="#m6b282516b3" y="203.288182"/>
     <use style="fill:#1f77b4;fill-opacity:0.8;stroke:#000000;stroke-opacity:0.8;" x="297.737743" xlink:href="#m6b282516b3" y="203.288182"/>
     <use style="fill:#1f77b4;fill-opacity:0.8;stroke:#000000;stroke-opacity:0.8;" x="302.657492" xlink:href="#m6b282516b3" y="203.288182"/>
     <use style="fill:#1f77b4;fill-opacity:0.8;stroke:#000000;stroke-opacity:0.8;" x="307.577241" xlink:href="#m6b282516b3" y="203.288182"/>
     <use style="fill:#1f77b4;fill-opacity:0.8;stroke:#000000;stroke-opacity:0.8;" x="312.496991" xlink:href="#m6b282516b3" y="126.113608"/>
     <use style="fill:#1f77b4;fill-opacity:0.8;stroke:#000000;stroke-opacity:0.8;" x="317.41674" xlink:href="#m6b282516b3" y="138.587394"/>
     <use style="fill:#1f77b4;fill-opacity:0.8;stroke:#000000;stroke-opacity:0.8;" x="322.336489" xlink:href="#m6b282516b3" y="158.995985"/>
     <use style="fill:#1f77b4;fill-opacity:0.8;stroke:#000000;stroke-opacity:0.8;" x="327.256238" xlink:href="#m6b282516b3" y="159.097817"/>
     <use style="fill:#1f77b4;fill-opacity:0.8;stroke:#000000;stroke-opacity:0.8;" x="332.175987" xlink:href="#m6b282516b3" y="189.150713"/>
     <use style="fill:#1f77b4;fill-opacity:0.8;stroke:#000000;stroke-opacity:0.8;" x="337.095737" xlink:href="#m6b282516b3" y="197.500082"/>
     <use style="fill:#1f77b4;fill-opacity:0.8;stroke:#000000;stroke-opacity:0.8;" x="342.015486" xlink:href="#m6b282516b3" y="203.288182"/>
     <use style="fill:#1f77b4;fill-opacity:0.8;stroke:#000000;stroke-opacity:0.8;" x="346.935235" xlink:href="#m6b282516b3" y="203.288182"/>
     <use style="fill:#1f77b4;fill-opacity:0.8;stroke:#000000;stroke-opacity:0.8;" x="351.854984" xlink:href="#m6b282516b3" y="203.288182"/>
     <use style="fill:#1f77b4;fill-opacity:0.8;stroke:#000000;stroke-opacity:0.8;" x="356.774734" xlink:href="#m6b282516b3" y="138.228122"/>
     <use style="fill:#1f77b4;fill-opacity:0.8;stroke:#000000;stroke-opacity:0.8;" x="361.694483" xlink:href="#m6b282516b3" y="169.965475"/>
     <use style="fill:#1f77b4;fill-opacity:0.8;stroke:#000000;stroke-opacity:0.8;" x="366.614232" xlink:href="#m6b282516b3" y="169.656388"/>
     <use style="fill:#1f77b4;fill-opacity:0.8;stroke:#000000;stroke-opacity:0.8;" x="371.533981" xlink:href="#m6b282516b3" y="132.594623"/>
     <use style="fill:#1f77b4;fill-opacity:0.8;stroke:#000000;stroke-opacity:0.8;" x="376.45373" xlink:href="#m6b282516b3" y="162.868283"/>
     <use style="fill:#1f77b4;fill-opacity:0.8;stroke:#000000;stroke-opacity:0.8;" x="381.37348" xlink:href="#m6b282516b3" y="174.537031"/>
     <use style="fill:#1f77b4;fill-opacity:0.8;stroke:#000000;stroke-opacity:0.8;" x="386.293229" xlink:href="#m6b282516b3" y="176.170881"/>
     <use style="fill:#1f77b4;fill-opacity:0.8;stroke:#000000;stroke-opacity:0.8;" x="391.212978" xlink:href="#m6b282516b3" y="181.33174"/>
     <use style="fill:#1f77b4;fill-opacity:0.8;stroke:#000000;stroke-opacity:0.8;" x="396.132727" xlink:href="#m6b282516b3" y="176.150475"/>
    </g>
   </g>
   <g id="line2d_20">
    <path clip-path="url(#pf78c1053b8)" d="M 110.787273 197.256647 
L 115.707022 196.366459 
L 120.626771 196.932083 
L 125.54652 197.092379 
L 130.46627 197.93212 
L 135.386019 198.513045 
L 140.305768 196.88472 
L 145.225517 196.530626 
L 150.145266 198.007661 
L 155.065016 197.551084 
L 159.984765 198.867913 
L 164.904514 196.115831 
L 169.824263 187.376483 
L 174.744013 193.169083 
L 179.663762 112.109573 
L 184.583511 167.489494 
L 189.50326 188.550691 
L 194.423009 65.740766 
L 199.342759 177.527691 
L 204.262508 180.462744 
L 209.182257 91.736053 
L 214.102006 194.029869 
L 219.021755 194.680729 
L 223.941505 177.16786 
L 228.861254 110.837609 
L 233.781003 125.741242 
L 238.700752 130.971297 
L 243.620502 105.249381 
L 248.540251 109.000053 
L 253.46 68.305837 
L 258.379749 203.288182 
L 263.299498 203.288182 
L 268.219248 203.288182 
L 273.138997 203.288182 
L 278.058746 203.288182 
L 282.978495 203.288182 
L 287.898245 203.288182 
L 292.817994 203.288182 
L 297.737743 203.288182 
L 302.657492 203.288182 
L 307.577241 203.288182 
L 312.496991 126.113608 
L 317.41674 138.587394 
L 322.336489 158.995985 
L 327.256238 159.097817 
L 332.175987 189.150713 
L 337.095737 197.500082 
L 342.015486 203.288182 
L 346.935235 203.288182 
L 351.854984 203.288182 
L 356.774734 138.228122 
L 361.694483 169.965475 
L 366.614232 169.656388 
L 371.533981 132.594623 
L 376.45373 162.868283 
L 381.37348 174.537031 
L 386.293229 176.170881 
L 391.212978 181.33174 
L 396.132727 176.150475 
" style="fill:none;stroke:#1f77b4;stroke-linecap:round;stroke-width:0.7;"/>
   </g>
   <g id="line2d_21">
    <path clip-path="url(#pf78c1053b8)" d="M 110.787273 199.024858 
L 115.707022 198.505081 
L 120.626771 198.590736 
L 125.54652 198.786195 
L 130.46627 199.448054 
L 135.386019 199.924494 
L 140.305768 198.512318 
L 145.225517 198.603753 
L 150.145266 199.826805 
L 155.065016 199.015591 
L 159.984765 200.216442 
L 164.904514 197.819329 
L 169.824263 193.336711 
L 174.744013 196.890424 
L 179.663762 137.214863 
L 184.583511 176.83665 
L 189.50326 192.325595 
L 194.423009 101.052256 
L 199.342759 183.50932 
L 204.262508 185.708831 
L 209.182257 121.152987 
L 214.102006 196.236365 
L 219.021755 196.603695 
L 223.941505 179.16831 
L 228.861254 126.721618 
L 233.781003 140.770461 
L 238.700752 145.00633 
L 243.620502 120.854908 
L 248.540251 122.610826 
L 253.46 83.905699 
L 258.379749 203.288182 
L 263.299498 203.288182 
L 268.219248 203.288182 
L 273.138997 203.288182 
L 278.058746 203.288182 
L 282.978495 203.288182 
L 287.898245 203.288182 
L 292.817994 203.288182 
L 297.737743 203.288182 
L 302.657492 203.288182 
L 307.577241 203.288182 
L 312.496991 139.030631 
L 317.41674 152.896404 
L 322.336489 168.417757 
L 327.256238 168.625819 
L 332.175987 192.323136 
L 337.095737 199.152182 
L 342.015486 203.288182 
L 346.935235 203.288182 
L 351.854984 203.288182 
L 356.774734 147.105035 
L 361.694483 183.145041 
L 366.614232 185.095382 
L 371.533981 142.790184 
L 376.45373 173.056673 
L 381.37348 185.900029 
L 386.293229 180.441432 
L 391.212978 194.159829 
L 396.132727 188.725793 
" style="fill:none;stroke:#1f77b4;stroke-dasharray:1.85,0.8;stroke-dashoffset:0;stroke-width:0.5;"/>
   </g>
   <g id="line2d_22">
    <path clip-path="url(#pf78c1053b8)" d="M 110.787273 195.488437 
L 115.707022 194.227838 
L 120.626771 195.273431 
L 125.54652 195.398562 
L 130.46627 196.416185 
L 135.386019 197.101596 
L 140.305768 195.257122 
L 145.225517 194.457499 
L 150.145266 196.188517 
L 155.065016 196.086576 
L 159.984765 197.519385 
L 164.904514 194.412333 
L 169.824263 181.416255 
L 174.744013 189.447741 
L 179.663762 87.004284 
L 184.583511 158.142339 
L 189.50326 184.775786 
L 194.423009 30.429276 
L 199.342759 171.546062 
L 204.262508 175.216658 
L 209.182257 62.319119 
L 214.102006 191.823373 
L 219.021755 192.757763 
L 223.941505 175.16741 
L 228.861254 94.953601 
L 233.781003 110.712023 
L 238.700752 116.936264 
L 243.620502 89.643854 
L 248.540251 95.38928 
L 253.46 52.705975 
L 258.379749 203.288182 
L 263.299498 203.288182 
L 268.219248 203.288182 
L 273.138997 203.288182 
L 278.058746 203.288182 
L 282.978495 203.288182 
L 287.898245 203.288182 
L 292.817994 203.288182 
L 297.737743 203.288182 
L 302.657492 203.288182 
L 307.577241 203.288182 
L 312.496991 113.196585 
L 317.41674 124.278384 
L 322.336489 149.574212 
L 327.256238 149.569815 
L 332.175987 185.97829 
L 337.095737 195.847982 
L 342.015486 203.288182 
L 346.935235 203.288182 
L 351.854984 203.288182 
L 356.774734 129.351208 
L 361.694483 156.785909 
L 366.614232 154.217393 
L 371.533981 122.399062 
L 376.45373 152.679892 
L 381.37348 163.174034 
L 386.293229 171.90033 
L 391.212978 168.50365 
L 396.132727 163.575156 
" style="fill:none;stroke:#1f77b4;stroke-dasharray:1.85,0.8;stroke-dashoffset:0;stroke-width:0.5;"/>
   </g>
   <g id="patch_3">
    <path d="M 96.52 211.94 
L 96.52 21.6 
" style="fill:none;stroke:#cccccc;stroke-linecap:square;stroke-linejoin:miter;stroke-width:0.8;"/>
   </g>
   <g id="patch_4">
    <path d="M 96.52 211.94 
L 410.4 211.94 
" style="fill:none;stroke:#cccccc;stroke-linecap:square;stroke-linejoin:miter;stroke-width:0.8;"/>
   </g>
   <g id="legend_1">
    <g id="patch_5">
     <path d="M 110.52 123.146875 
L 283.460625 123.146875 
Q 287.460625 123.146875 287.460625 119.146875 
L 287.460625 35.6 
Q 287.460625 31.6 283.460625 31.6 
L 110.52 31.6 
Q 106.52 31.6 106.52 35.6 
L 106.52 119.146875 
Q 106.52 123.146875 110.52 123.146875 
z
" style="fill:#ffffff;opacity:0.8;stroke:#cccccc;stroke-linejoin:miter;"/>
    </g>
    <g id="line2d_23">
     <path d="M 114.52 46.946875 
L 154.52 46.946875 
" style="fill:none;stroke:#808080;stroke-linecap:round;stroke-opacity:0.8;stroke-width:0.7;"/>
    </g>
    <g id="line2d_24">
     <g>
      <use style="fill:#808080;fill-opacity:0.8;stroke:#000000;stroke-linejoin:miter;stroke-opacity:0.8;" x="134.52" xlink:href="#m7f9a2eb8d8" y="46.946875"/>
     </g>
    </g>
    <g id="text_13">
     <!-- Random -->
     <g style="fill:#262626;" transform="translate(170.52 53.946875)scale(0.2 -0.2)">
      <defs>
       <path d="M 2622 2488 
Q 3059 2488 3314 2663 
Q 3569 2838 3569 3294 
Q 3569 3784 3213 3963 
Q 3022 4056 2703 4056 
L 1184 4056 
L 1184 2488 
L 2622 2488 
z
M 563 4591 
L 2688 4591 
Q 3213 4591 3553 4438 
Q 4200 4144 4200 3353 
Q 4200 2941 4029 2678 
Q 3859 2416 3553 2256 
Q 3822 2147 3958 1969 
Q 4094 1791 4109 1391 
L 4131 775 
Q 4141 513 4175 384 
Q 4231 166 4375 103 
L 4375 0 
L 3613 0 
Q 3581 59 3562 153 
Q 3544 247 3531 516 
L 3494 1281 
Q 3472 1731 3159 1884 
Q 2981 1969 2600 1969 
L 1184 1969 
L 1184 0 
L 563 0 
L 563 4591 
z
" id="Helvetica-52" transform="scale(0.015625)"/>
      </defs>
      <use xlink:href="#Helvetica-52"/>
      <use x="72.216797" xlink:href="#Helvetica-61"/>
      <use x="127.832031" xlink:href="#Helvetica-6e"/>
      <use x="183.447266" xlink:href="#Helvetica-64"/>
      <use x="239.0625" xlink:href="#Helvetica-6f"/>
      <use x="294.677734" xlink:href="#Helvetica-6d"/>
     </g>
    </g>
    <g id="line2d_25">
     <path d="M 114.52 75.4625 
L 154.52 75.4625 
" style="fill:none;stroke:#ff7f0e;stroke-linecap:round;stroke-opacity:0.8;stroke-width:0.7;"/>
    </g>
    <g id="line2d_26">
     <g>
      <use style="fill:#ff7f0e;fill-opacity:0.8;stroke:#000000;stroke-linejoin:miter;stroke-opacity:0.8;" x="134.52" xlink:href="#m0ff04a53c7" y="75.4625"/>
     </g>
    </g>
    <g id="text_14">
     <!-- Bottom 10% -->
     <g style="fill:#262626;" transform="translate(170.52 82.4625)scale(0.2 -0.2)">
      <defs>
       <path d="M 2213 2650 
Q 2606 2650 2825 2759 
Q 3169 2931 3169 3378 
Q 3169 3828 2803 3984 
Q 2597 4072 2191 4072 
L 1081 4072 
L 1081 2650 
L 2213 2650 
z
M 2422 531 
Q 2994 531 3238 863 
Q 3391 1072 3391 1369 
Q 3391 1869 2944 2050 
Q 2706 2147 2316 2147 
L 1081 2147 
L 1081 531 
L 2422 531 
z
M 472 4591 
L 2444 4591 
Q 3250 4591 3591 4109 
Q 3791 3825 3791 3453 
Q 3791 3019 3544 2741 
Q 3416 2594 3175 2472 
Q 3528 2338 3703 2169 
Q 4013 1869 4013 1341 
Q 4013 897 3734 538 
Q 3319 0 2413 0 
L 472 0 
L 472 4591 
z
" id="Helvetica-42" transform="scale(0.015625)"/>
       <path d="M 4363 2175 
Q 4813 2175 5131 1856 
Q 5450 1538 5450 1088 
Q 5450 638 5131 319 
Q 4813 0 4363 0 
Q 3909 0 3590 319 
Q 3272 638 3272 1088 
Q 3272 1538 3590 1856 
Q 3909 2175 4363 2175 
z
M 3909 4456 
L 4256 4456 
L 1753 -119 
L 1406 -119 
L 3909 4456 
z
M 1294 2606 
Q 1563 2606 1752 2795 
Q 1941 2984 1941 3250 
Q 1941 3516 1752 3705 
Q 1563 3894 1294 3894 
Q 1028 3894 839 3706 
Q 650 3519 650 3250 
Q 650 2984 839 2795 
Q 1028 2606 1294 2606 
z
M 1294 4341 
Q 1747 4341 2065 4020 
Q 2384 3700 2384 3250 
Q 2384 2800 2065 2481 
Q 1747 2163 1294 2163 
Q 844 2163 525 2481 
Q 206 2800 206 3250 
Q 206 3700 525 4020 
Q 844 4341 1294 4341 
z
M 4363 444 
Q 4628 444 4817 633 
Q 5006 822 5006 1088 
Q 5006 1353 4817 1542 
Q 4628 1731 4363 1731 
Q 4094 1731 3905 1542 
Q 3716 1353 3716 1088 
Q 3716 822 3905 633 
Q 4094 444 4363 444 
z
" id="Helvetica-25" transform="scale(0.015625)"/>
      </defs>
      <use xlink:href="#Helvetica-42"/>
      <use x="66.699219" xlink:href="#Helvetica-6f"/>
      <use x="122.314453" xlink:href="#Helvetica-74"/>
      <use x="150.097656" xlink:href="#Helvetica-74"/>
      <use x="177.880859" xlink:href="#Helvetica-6f"/>
      <use x="233.496094" xlink:href="#Helvetica-6d"/>
      <use x="316.796875" xlink:href="#Helvetica-20"/>
      <use x="344.580078" xlink:href="#Helvetica-31"/>
      <use x="400.195312" xlink:href="#Helvetica-30"/>
      <use x="455.810547" xlink:href="#Helvetica-25"/>
     </g>
    </g>
    <g id="line2d_27">
     <path d="M 114.52 103.978125 
L 154.52 103.978125 
" style="fill:none;stroke:#1f77b4;stroke-linecap:round;stroke-opacity:0.8;stroke-width:0.7;"/>
    </g>
    <g id="line2d_28">
     <g>
      <use style="fill:#1f77b4;fill-opacity:0.8;stroke:#000000;stroke-opacity:0.8;" x="134.52" xlink:href="#m6b282516b3" y="103.978125"/>
     </g>
    </g>
    <g id="text_15">
     <!-- Top 10% -->
     <g style="fill:#262626;" transform="translate(170.52 110.978125)scale(0.2 -0.2)">
      <defs>
       <path d="M 3828 4591 
L 3828 4044 
L 2281 4044 
L 2281 0 
L 1650 0 
L 1650 4044 
L 103 4044 
L 103 4591 
L 3828 4591 
z
" id="Helvetica-54" transform="scale(0.015625)"/>
       <path d="M 1825 378 
Q 2219 378 2480 708 
Q 2741 1038 2741 1694 
Q 2741 2094 2625 2381 
Q 2406 2934 1825 2934 
Q 1241 2934 1025 2350 
Q 909 2038 909 1556 
Q 909 1169 1025 897 
Q 1244 378 1825 378 
z
M 369 3331 
L 916 3331 
L 916 2888 
Q 1084 3116 1284 3241 
Q 1569 3428 1953 3428 
Q 2522 3428 2919 2992 
Q 3316 2556 3316 1747 
Q 3316 653 2744 184 
Q 2381 -113 1900 -113 
Q 1522 -113 1266 53 
Q 1116 147 931 375 
L 931 -1334 
L 369 -1334 
L 369 3331 
z
" id="Helvetica-70" transform="scale(0.015625)"/>
      </defs>
      <use xlink:href="#Helvetica-54"/>
      <use x="61.083984" xlink:href="#Helvetica-6f"/>
      <use x="116.699219" xlink:href="#Helvetica-70"/>
      <use x="172.314453" xlink:href="#Helvetica-20"/>
      <use x="200.097656" xlink:href="#Helvetica-31"/>
      <use x="255.712891" xlink:href="#Helvetica-30"/>
      <use x="311.328125" xlink:href="#Helvetica-25"/>
     </g>
    </g>
   </g>
  </g>
 </g>
 <defs>
  <clipPath id="pf78c1053b8">
   <rect height="190.34" width="313.88" x="96.52" y="21.6"/>
  </clipPath>
 </defs>
</svg>
