<?xml version="1.0" encoding="utf-8" standalone="no"?>
<!DOCTYPE svg PUBLIC "-//W3C//DTD SVG 1.1//EN"
  "http://www.w3.org/Graphics/SVG/1.1/DTD/svg11.dtd">
<svg height="288pt" version="1.1" viewBox="0 0 432 288" width="432pt" xmlns="http://www.w3.org/2000/svg" xmlns:xlink="http://www.w3.org/1999/xlink">
 <metadata>
  <rdf:RDF xmlns:cc="http://creativecommons.org/ns#" xmlns:dc="http://purl.org/dc/elements/1.1/" xmlns:rdf="http://www.w3.org/1999/02/22-rdf-syntax-ns#">
   <cc:Work>
    <dc:type rdf:resource="http://purl.org/dc/dcmitype/StillImage"/>
    <dc:date>2022-12-30T21:56:58.618621</dc:date>
    <dc:format>image/svg+xml</dc:format>
    <dc:creator>
     <cc:Agent>
      <dc:title>Matplotlib v3.4.2, https://matplotlib.org/</dc:title>
     </cc:Agent>
    </dc:creator>
   </cc:Work>
  </rdf:RDF>
 </metadata>
 <defs>
  <style type="text/css">*{stroke-linecap:butt;stroke-linejoin:round;}</style>
 </defs>
 <g id="figure_1">
  <g id="patch_1">
   <path d="M 0 288 
L 432 288 
L 432 0 
L 0 0 
z
" style="fill:#ffffff;"/>
  </g>
  <g id="axes_1">
   <g id="patch_2">
    <path d="M 96.52 211.94 
L 410.4 211.94 
L 410.4 21.6 
L 96.52 21.6 
z
" style="fill:#ffffff;"/>
   </g>
   <g id="matplotlib.axis_1">
    <g id="xtick_1">
     <g id="line2d_1">
      <path clip-path="url(#pc2e1ca943f)" d="M 110.787273 211.94 
L 110.787273 21.6 
" style="fill:none;stroke:#cccccc;stroke-linecap:round;stroke-width:0.8;"/>
     </g>
     <g id="text_1">
      <!-- 0 -->
      <g style="fill:#262626;" transform="translate(105.226335 239.786875)scale(0.2 -0.2)">
       <defs>
        <path d="M 1731 4475 
Q 2600 4475 2988 3759 
Q 3288 3206 3288 2244 
Q 3288 1331 3016 734 
Q 2622 -122 1728 -122 
Q 922 -122 528 578 
Q 200 1163 200 2147 
Q 200 2909 397 3456 
Q 766 4475 1731 4475 
z
M 1725 391 
Q 2163 391 2422 778 
Q 2681 1166 2681 2222 
Q 2681 2984 2493 3476 
Q 2306 3969 1766 3969 
Q 1269 3969 1039 3501 
Q 809 3034 809 2125 
Q 809 1441 956 1025 
Q 1181 391 1725 391 
z
" id="Helvetica-30" transform="scale(0.015625)"/>
       </defs>
       <use xlink:href="#Helvetica-30"/>
      </g>
     </g>
    </g>
    <g id="xtick_2">
     <g id="line2d_2">
      <path clip-path="url(#pc2e1ca943f)" d="M 159.984765 211.94 
L 159.984765 21.6 
" style="fill:none;stroke:#cccccc;stroke-linecap:round;stroke-width:0.8;"/>
     </g>
     <g id="text_2">
      <!-- 10 -->
      <g style="fill:#262626;" transform="translate(148.86289 239.786875)scale(0.2 -0.2)">
       <defs>
        <path d="M 613 3169 
L 613 3600 
Q 1222 3659 1462 3798 
Q 1703 3938 1822 4456 
L 2266 4456 
L 2266 0 
L 1666 0 
L 1666 3169 
L 613 3169 
z
" id="Helvetica-31" transform="scale(0.015625)"/>
       </defs>
       <use xlink:href="#Helvetica-31"/>
       <use x="55.615234" xlink:href="#Helvetica-30"/>
      </g>
     </g>
    </g>
    <g id="xtick_3">
     <g id="line2d_3">
      <path clip-path="url(#pc2e1ca943f)" d="M 209.182257 211.94 
L 209.182257 21.6 
" style="fill:none;stroke:#cccccc;stroke-linecap:round;stroke-width:0.8;"/>
     </g>
     <g id="text_3">
      <!-- 20 -->
      <g style="fill:#262626;" transform="translate(198.060382 239.786875)scale(0.2 -0.2)">
       <defs>
        <path d="M 200 0 
Q 231 578 439 1006 
Q 647 1434 1250 1784 
L 1850 2131 
Q 2253 2366 2416 2531 
Q 2672 2791 2672 3125 
Q 2672 3516 2437 3745 
Q 2203 3975 1813 3975 
Q 1234 3975 1013 3538 
Q 894 3303 881 2888 
L 309 2888 
Q 319 3472 525 3841 
Q 891 4491 1816 4491 
Q 2584 4491 2939 4075 
Q 3294 3659 3294 3150 
Q 3294 2613 2916 2231 
Q 2697 2009 2131 1694 
L 1703 1456 
Q 1397 1288 1222 1134 
Q 909 863 828 531 
L 3272 531 
L 3272 0 
L 200 0 
z
" id="Helvetica-32" transform="scale(0.015625)"/>
       </defs>
       <use xlink:href="#Helvetica-32"/>
       <use x="55.615234" xlink:href="#Helvetica-30"/>
      </g>
     </g>
    </g>
    <g id="xtick_4">
     <g id="line2d_4">
      <path clip-path="url(#pc2e1ca943f)" d="M 258.379749 211.94 
L 258.379749 21.6 
" style="fill:none;stroke:#cccccc;stroke-linecap:round;stroke-width:0.8;"/>
     </g>
     <g id="text_4">
      <!-- 30 -->
      <g style="fill:#262626;" transform="translate(247.257874 239.786875)scale(0.2 -0.2)">
       <defs>
        <path d="M 1663 -122 
Q 869 -122 511 314 
Q 153 750 153 1375 
L 741 1375 
Q 778 941 903 744 
Q 1122 391 1694 391 
Q 2138 391 2406 628 
Q 2675 866 2675 1241 
Q 2675 1703 2392 1887 
Q 2109 2072 1606 2072 
Q 1550 2072 1492 2070 
Q 1434 2069 1375 2066 
L 1375 2563 
Q 1463 2553 1522 2550 
Q 1581 2547 1650 2547 
Q 1966 2547 2169 2647 
Q 2525 2822 2525 3272 
Q 2525 3606 2287 3787 
Q 2050 3969 1734 3969 
Q 1172 3969 956 3594 
Q 838 3388 822 3006 
L 266 3006 
Q 266 3506 466 3856 
Q 809 4481 1675 4481 
Q 2359 4481 2734 4176 
Q 3109 3872 3109 3294 
Q 3109 2881 2888 2625 
Q 2750 2466 2531 2375 
Q 2884 2278 3082 2001 
Q 3281 1725 3281 1325 
Q 3281 684 2859 281 
Q 2438 -122 1663 -122 
z
" id="Helvetica-33" transform="scale(0.015625)"/>
       </defs>
       <use xlink:href="#Helvetica-33"/>
       <use x="55.615234" xlink:href="#Helvetica-30"/>
      </g>
     </g>
    </g>
    <g id="xtick_5">
     <g id="line2d_5">
      <path clip-path="url(#pc2e1ca943f)" d="M 307.577241 211.94 
L 307.577241 21.6 
" style="fill:none;stroke:#cccccc;stroke-linecap:round;stroke-width:0.8;"/>
     </g>
     <g id="text_5">
      <!-- 40 -->
      <g style="fill:#262626;" transform="translate(296.455366 239.786875)scale(0.2 -0.2)">
       <defs>
        <path d="M 2116 1584 
L 2116 3613 
L 681 1584 
L 2116 1584 
z
M 2125 0 
L 2125 1094 
L 163 1094 
L 163 1644 
L 2213 4488 
L 2688 4488 
L 2688 1584 
L 3347 1584 
L 3347 1094 
L 2688 1094 
L 2688 0 
L 2125 0 
z
" id="Helvetica-34" transform="scale(0.015625)"/>
       </defs>
       <use xlink:href="#Helvetica-34"/>
       <use x="55.615234" xlink:href="#Helvetica-30"/>
      </g>
     </g>
    </g>
    <g id="xtick_6">
     <g id="line2d_6">
      <path clip-path="url(#pc2e1ca943f)" d="M 356.774734 211.94 
L 356.774734 21.6 
" style="fill:none;stroke:#cccccc;stroke-linecap:round;stroke-width:0.8;"/>
     </g>
     <g id="text_6">
      <!-- 50 -->
      <g style="fill:#262626;" transform="translate(345.652859 239.786875)scale(0.2 -0.2)">
       <defs>
        <path d="M 791 1141 
Q 847 659 1238 475 
Q 1438 381 1700 381 
Q 2200 381 2440 700 
Q 2681 1019 2681 1406 
Q 2681 1875 2395 2131 
Q 2109 2388 1709 2388 
Q 1419 2388 1211 2275 
Q 1003 2163 856 1963 
L 369 1991 
L 709 4400 
L 3034 4400 
L 3034 3856 
L 1131 3856 
L 941 2613 
Q 1097 2731 1238 2791 
Q 1488 2894 1816 2894 
Q 2431 2894 2859 2497 
Q 3288 2100 3288 1491 
Q 3288 856 2895 371 
Q 2503 -113 1644 -113 
Q 1097 -113 676 195 
Q 256 503 206 1141 
L 791 1141 
z
" id="Helvetica-35" transform="scale(0.015625)"/>
       </defs>
       <use xlink:href="#Helvetica-35"/>
       <use x="55.615234" xlink:href="#Helvetica-30"/>
      </g>
     </g>
    </g>
    <g id="text_7">
     <!-- Position -->
     <g style="fill:#262626;" transform="translate(217.885 262.3025)scale(0.2 -0.2)">
      <defs>
       <path d="M 547 4591 
L 2613 4591 
Q 3225 4591 3600 4245 
Q 3975 3900 3975 3275 
Q 3975 2738 3640 2339 
Q 3306 1941 2613 1941 
L 1169 1941 
L 1169 0 
L 547 0 
L 547 4591 
z
M 3347 3272 
Q 3347 3778 2972 3959 
Q 2766 4056 2406 4056 
L 1169 4056 
L 1169 2466 
L 2406 2466 
Q 2825 2466 3086 2644 
Q 3347 2822 3347 3272 
z
" id="Helvetica-50" transform="scale(0.015625)"/>
       <path d="M 1741 363 
Q 2300 363 2508 786 
Q 2716 1209 2716 1728 
Q 2716 2197 2566 2491 
Q 2328 2953 1747 2953 
Q 1231 2953 997 2559 
Q 763 2166 763 1609 
Q 763 1075 997 719 
Q 1231 363 1741 363 
z
M 1763 3444 
Q 2409 3444 2856 3012 
Q 3303 2581 3303 1744 
Q 3303 934 2909 406 
Q 2516 -122 1688 -122 
Q 997 -122 590 345 
Q 184 813 184 1600 
Q 184 2444 612 2944 
Q 1041 3444 1763 3444 
z
M 1744 3428 
L 1744 3428 
z
" id="Helvetica-6f" transform="scale(0.015625)"/>
       <path d="M 747 1050 
Q 772 769 888 619 
Q 1100 347 1625 347 
Q 1938 347 2175 483 
Q 2413 619 2413 903 
Q 2413 1119 2222 1231 
Q 2100 1300 1741 1391 
L 1294 1503 
Q 866 1609 663 1741 
Q 300 1969 300 2372 
Q 300 2847 642 3140 
Q 984 3434 1563 3434 
Q 2319 3434 2653 2991 
Q 2863 2709 2856 2384 
L 2325 2384 
Q 2309 2575 2191 2731 
Q 1997 2953 1519 2953 
Q 1200 2953 1036 2831 
Q 872 2709 872 2509 
Q 872 2291 1088 2159 
Q 1213 2081 1456 2022 
L 1828 1931 
Q 2434 1784 2641 1647 
Q 2969 1431 2969 969 
Q 2969 522 2630 197 
Q 2291 -128 1597 -128 
Q 850 -128 539 211 
Q 228 550 206 1050 
L 747 1050 
z
M 1578 3428 
L 1578 3428 
z
" id="Helvetica-73" transform="scale(0.015625)"/>
       <path d="M 413 3331 
L 984 3331 
L 984 0 
L 413 0 
L 413 3331 
z
M 413 4591 
L 984 4591 
L 984 3953 
L 413 3953 
L 413 4591 
z
" id="Helvetica-69" transform="scale(0.015625)"/>
       <path d="M 525 4281 
L 1094 4281 
L 1094 3347 
L 1628 3347 
L 1628 2888 
L 1094 2888 
L 1094 703 
Q 1094 528 1213 469 
Q 1278 434 1431 434 
Q 1472 434 1519 436 
Q 1566 438 1628 444 
L 1628 0 
Q 1531 -28 1426 -40 
Q 1322 -53 1200 -53 
Q 806 -53 665 148 
Q 525 350 525 672 
L 525 2888 
L 72 2888 
L 72 3347 
L 525 3347 
L 525 4281 
z
" id="Helvetica-74" transform="scale(0.015625)"/>
       <path d="M 413 3347 
L 947 3347 
L 947 2872 
Q 1184 3166 1450 3294 
Q 1716 3422 2041 3422 
Q 2753 3422 3003 2925 
Q 3141 2653 3141 2147 
L 3141 0 
L 2569 0 
L 2569 2109 
Q 2569 2416 2478 2603 
Q 2328 2916 1934 2916 
Q 1734 2916 1606 2875 
Q 1375 2806 1200 2600 
Q 1059 2434 1017 2257 
Q 975 2081 975 1753 
L 975 0 
L 413 0 
L 413 3347 
z
M 1734 3428 
L 1734 3428 
z
" id="Helvetica-6e" transform="scale(0.015625)"/>
      </defs>
      <use xlink:href="#Helvetica-50"/>
      <use x="66.699219" xlink:href="#Helvetica-6f"/>
      <use x="122.314453" xlink:href="#Helvetica-73"/>
      <use x="172.314453" xlink:href="#Helvetica-69"/>
      <use x="194.53125" xlink:href="#Helvetica-74"/>
      <use x="222.314453" xlink:href="#Helvetica-69"/>
      <use x="244.53125" xlink:href="#Helvetica-6f"/>
      <use x="300.146484" xlink:href="#Helvetica-6e"/>
     </g>
    </g>
   </g>
   <g id="matplotlib.axis_2">
    <g id="ytick_1">
     <g id="line2d_7">
      <path clip-path="url(#pc2e1ca943f)" d="M 96.52 203.288182 
L 410.4 203.288182 
" style="fill:none;stroke:#cccccc;stroke-linecap:round;stroke-width:0.8;"/>
     </g>
     <g id="text_8">
      <!-- 0.0 -->
      <g style="fill:#262626;" transform="translate(55.22 210.461619)scale(0.2 -0.2)">
       <defs>
        <path d="M 547 681 
L 1200 681 
L 1200 0 
L 547 0 
L 547 681 
z
" id="Helvetica-2e" transform="scale(0.015625)"/>
       </defs>
       <use xlink:href="#Helvetica-30"/>
       <use x="55.615234" xlink:href="#Helvetica-2e"/>
       <use x="83.398438" xlink:href="#Helvetica-30"/>
      </g>
     </g>
    </g>
    <g id="ytick_2">
     <g id="line2d_8">
      <path clip-path="url(#pc2e1ca943f)" d="M 96.52 121.072187 
L 410.4 121.072187 
" style="fill:none;stroke:#cccccc;stroke-linecap:round;stroke-width:0.8;"/>
     </g>
     <g id="text_9">
      <!-- 0.1 -->
      <g style="fill:#262626;" transform="translate(55.22 128.245624)scale(0.2 -0.2)">
       <use xlink:href="#Helvetica-30"/>
       <use x="55.615234" xlink:href="#Helvetica-2e"/>
       <use x="83.398438" xlink:href="#Helvetica-31"/>
      </g>
     </g>
    </g>
    <g id="ytick_3">
     <g id="line2d_9">
      <path clip-path="url(#pc2e1ca943f)" d="M 96.52 38.856192 
L 410.4 38.856192 
" style="fill:none;stroke:#cccccc;stroke-linecap:round;stroke-width:0.8;"/>
     </g>
     <g id="text_10">
      <!-- 0.2 -->
      <g style="fill:#262626;" transform="translate(55.22 46.02963)scale(0.2 -0.2)">
       <use xlink:href="#Helvetica-30"/>
       <use x="55.615234" xlink:href="#Helvetica-2e"/>
       <use x="83.398438" xlink:href="#Helvetica-32"/>
      </g>
     </g>
    </g>
    <g id="text_11">
     <!-- Std Dev of Subunit Mismatch -->
     <g style="fill:#262626;" transform="translate(47.05125 245.709062)rotate(-90)scale(0.2 -0.2)">
      <defs>
       <path d="M 894 1481 
Q 916 1091 1078 847 
Q 1388 391 2169 391 
Q 2519 391 2806 491 
Q 3363 684 3363 1184 
Q 3363 1559 3128 1719 
Q 2891 1875 2384 1991 
L 1763 2131 
Q 1153 2269 900 2434 
Q 463 2722 463 3294 
Q 463 3913 891 4309 
Q 1319 4706 2103 4706 
Q 2825 4706 3329 4357 
Q 3834 4009 3834 3244 
L 3250 3244 
Q 3203 3613 3050 3809 
Q 2766 4169 2084 4169 
Q 1534 4169 1293 3937 
Q 1053 3706 1053 3400 
Q 1053 3063 1334 2906 
Q 1519 2806 2169 2656 
L 2813 2509 
Q 3278 2403 3531 2219 
Q 3969 1897 3969 1284 
Q 3969 522 3414 194 
Q 2859 -134 2125 -134 
Q 1269 -134 784 303 
Q 300 738 309 1481 
L 894 1481 
z
M 2150 4716 
L 2150 4716 
z
" id="Helvetica-53" transform="scale(0.015625)"/>
       <path d="M 769 1634 
Q 769 1097 997 734 
Q 1225 372 1728 372 
Q 2119 372 2370 708 
Q 2622 1044 2622 1672 
Q 2622 2306 2362 2611 
Q 2103 2916 1722 2916 
Q 1297 2916 1033 2591 
Q 769 2266 769 1634 
z
M 1616 3406 
Q 2000 3406 2259 3244 
Q 2409 3150 2600 2916 
L 2600 4606 
L 3141 4606 
L 3141 0 
L 2634 0 
L 2634 466 
Q 2438 156 2169 18 
Q 1900 -119 1553 -119 
Q 994 -119 584 351 
Q 175 822 175 1603 
Q 175 2334 548 2870 
Q 922 3406 1616 3406 
z
" id="Helvetica-64" transform="scale(0.015625)"/>
       <path id="Helvetica-20" transform="scale(0.015625)"/>
       <path d="M 2250 531 
Q 2566 531 2769 597 
Q 3131 719 3363 1066 
Q 3547 1344 3628 1778 
Q 3675 2038 3675 2259 
Q 3675 3113 3336 3584 
Q 2997 4056 2244 4056 
L 1141 4056 
L 1141 531 
L 2250 531 
z
M 516 4591 
L 2375 4591 
Q 3322 4591 3844 3919 
Q 4309 3313 4309 2366 
Q 4309 1634 4034 1044 
Q 3550 0 2369 0 
L 516 0 
L 516 4591 
z
" id="Helvetica-44" transform="scale(0.015625)"/>
       <path d="M 1806 3422 
Q 2163 3422 2497 3255 
Q 2831 3088 3006 2822 
Q 3175 2569 3231 2231 
Q 3281 2000 3281 1494 
L 828 1494 
Q 844 984 1069 676 
Q 1294 369 1766 369 
Q 2206 369 2469 659 
Q 2619 828 2681 1050 
L 3234 1050 
Q 3213 866 3089 639 
Q 2966 413 2813 269 
Q 2556 19 2178 -69 
Q 1975 -119 1719 -119 
Q 1094 -119 659 336 
Q 225 791 225 1609 
Q 225 2416 662 2919 
Q 1100 3422 1806 3422 
z
M 2703 1941 
Q 2669 2306 2544 2525 
Q 2313 2931 1772 2931 
Q 1384 2931 1121 2651 
Q 859 2372 844 1941 
L 2703 1941 
z
M 1753 3428 
L 1753 3428 
z
" id="Helvetica-65" transform="scale(0.015625)"/>
       <path d="M 688 3347 
L 1581 622 
L 2516 3347 
L 3131 3347 
L 1869 0 
L 1269 0 
L 34 3347 
L 688 3347 
z
" id="Helvetica-76" transform="scale(0.015625)"/>
       <path d="M 553 3856 
Q 566 4206 675 4369 
Q 872 4656 1434 4656 
Q 1488 4656 1544 4653 
Q 1600 4650 1672 4644 
L 1672 4131 
Q 1584 4138 1545 4139 
Q 1506 4141 1472 4141 
Q 1216 4141 1166 4008 
Q 1116 3875 1116 3331 
L 1672 3331 
L 1672 2888 
L 1109 2888 
L 1109 0 
L 553 0 
L 553 2888 
L 88 2888 
L 88 3331 
L 553 3331 
L 553 3856 
z
" id="Helvetica-66" transform="scale(0.015625)"/>
       <path d="M 975 3347 
L 975 1125 
Q 975 869 1056 706 
Q 1206 406 1616 406 
Q 2203 406 2416 931 
Q 2531 1213 2531 1703 
L 2531 3347 
L 3094 3347 
L 3094 0 
L 2563 0 
L 2569 494 
Q 2459 303 2297 172 
Q 1975 -91 1516 -91 
Q 800 -91 541 388 
Q 400 644 400 1072 
L 400 3347 
L 975 3347 
z
M 1747 3428 
L 1747 3428 
z
" id="Helvetica-75" transform="scale(0.015625)"/>
       <path d="M 369 4606 
L 916 4606 
L 916 2941 
Q 1100 3181 1356 3307 
Q 1613 3434 1913 3434 
Q 2538 3434 2927 3004 
Q 3316 2575 3316 1738 
Q 3316 944 2931 419 
Q 2547 -106 1866 -106 
Q 1484 -106 1222 78 
Q 1066 188 888 428 
L 888 0 
L 369 0 
L 369 4606 
z
M 1831 391 
Q 2288 391 2514 753 
Q 2741 1116 2741 1709 
Q 2741 2238 2514 2584 
Q 2288 2931 1847 2931 
Q 1463 2931 1173 2647 
Q 884 2363 884 1709 
Q 884 1238 1003 944 
Q 1225 391 1831 391 
z
" id="Helvetica-62" transform="scale(0.015625)"/>
       <path d="M 472 4591 
L 1363 4591 
L 2681 709 
L 3991 4591 
L 4872 4591 
L 4872 0 
L 4281 0 
L 4281 2709 
Q 4281 2850 4287 3175 
Q 4294 3500 4294 3872 
L 2984 0 
L 2369 0 
L 1050 3872 
L 1050 3731 
Q 1050 3563 1058 3217 
Q 1066 2872 1066 2709 
L 1066 0 
L 472 0 
L 472 4591 
z
" id="Helvetica-4d" transform="scale(0.015625)"/>
       <path d="M 413 3347 
L 969 3347 
L 969 2872 
Q 1169 3119 1331 3231 
Q 1609 3422 1963 3422 
Q 2363 3422 2606 3225 
Q 2744 3113 2856 2894 
Q 3044 3163 3297 3292 
Q 3550 3422 3866 3422 
Q 4541 3422 4784 2934 
Q 4916 2672 4916 2228 
L 4916 0 
L 4331 0 
L 4331 2325 
Q 4331 2659 4164 2784 
Q 3997 2909 3756 2909 
Q 3425 2909 3186 2687 
Q 2947 2466 2947 1947 
L 2947 0 
L 2375 0 
L 2375 2184 
Q 2375 2525 2294 2681 
Q 2166 2916 1816 2916 
Q 1497 2916 1236 2669 
Q 975 2422 975 1775 
L 975 0 
L 413 0 
L 413 3347 
z
" id="Helvetica-6d" transform="scale(0.015625)"/>
       <path d="M 844 891 
Q 844 647 1022 506 
Q 1200 366 1444 366 
Q 1741 366 2019 503 
Q 2488 731 2488 1250 
L 2488 1703 
Q 2384 1638 2221 1594 
Q 2059 1550 1903 1531 
L 1563 1488 
Q 1256 1447 1103 1359 
Q 844 1213 844 891 
z
M 2206 2028 
Q 2400 2053 2466 2191 
Q 2503 2266 2503 2406 
Q 2503 2694 2298 2823 
Q 2094 2953 1713 2953 
Q 1272 2953 1088 2716 
Q 984 2584 953 2325 
L 428 2325 
Q 444 2944 830 3186 
Q 1216 3428 1725 3428 
Q 2316 3428 2684 3203 
Q 3050 2978 3050 2503 
L 3050 575 
Q 3050 488 3086 434 
Q 3122 381 3238 381 
Q 3275 381 3322 386 
Q 3369 391 3422 400 
L 3422 -16 
Q 3291 -53 3222 -62 
Q 3153 -72 3034 -72 
Q 2744 -72 2613 134 
Q 2544 244 2516 444 
Q 2344 219 2022 53 
Q 1700 -113 1313 -113 
Q 847 -113 551 170 
Q 256 453 256 878 
Q 256 1344 547 1600 
Q 838 1856 1309 1916 
L 2206 2028 
z
M 1741 3428 
L 1741 3428 
z
" id="Helvetica-61" transform="scale(0.015625)"/>
       <path d="M 1703 3444 
Q 2269 3444 2623 3169 
Q 2978 2894 3050 2222 
L 2503 2222 
Q 2453 2531 2275 2736 
Q 2097 2941 1703 2941 
Q 1166 2941 934 2416 
Q 784 2075 784 1575 
Q 784 1072 996 728 
Q 1209 384 1666 384 
Q 2016 384 2220 598 
Q 2425 813 2503 1184 
L 3050 1184 
Q 2956 519 2581 211 
Q 2206 -97 1622 -97 
Q 966 -97 575 383 
Q 184 863 184 1581 
Q 184 2463 612 2953 
Q 1041 3444 1703 3444 
z
M 1616 3428 
L 1616 3428 
z
" id="Helvetica-63" transform="scale(0.015625)"/>
       <path d="M 413 4606 
L 975 4606 
L 975 2894 
Q 1175 3147 1334 3250 
Q 1606 3428 2013 3428 
Q 2741 3428 3000 2919 
Q 3141 2641 3141 2147 
L 3141 0 
L 2563 0 
L 2563 2109 
Q 2563 2478 2469 2650 
Q 2316 2925 1894 2925 
Q 1544 2925 1259 2684 
Q 975 2444 975 1775 
L 975 0 
L 413 0 
L 413 4606 
z
" id="Helvetica-68" transform="scale(0.015625)"/>
      </defs>
      <use xlink:href="#Helvetica-53"/>
      <use x="66.699219" xlink:href="#Helvetica-74"/>
      <use x="94.482422" xlink:href="#Helvetica-64"/>
      <use x="150.097656" xlink:href="#Helvetica-20"/>
      <use x="177.880859" xlink:href="#Helvetica-44"/>
      <use x="250.097656" xlink:href="#Helvetica-65"/>
      <use x="305.712891" xlink:href="#Helvetica-76"/>
      <use x="355.712891" xlink:href="#Helvetica-20"/>
      <use x="383.496094" xlink:href="#Helvetica-6f"/>
      <use x="439.111328" xlink:href="#Helvetica-66"/>
      <use x="466.894531" xlink:href="#Helvetica-20"/>
      <use x="494.677734" xlink:href="#Helvetica-53"/>
      <use x="561.376953" xlink:href="#Helvetica-75"/>
      <use x="616.992188" xlink:href="#Helvetica-62"/>
      <use x="672.607422" xlink:href="#Helvetica-75"/>
      <use x="728.222656" xlink:href="#Helvetica-6e"/>
      <use x="783.837891" xlink:href="#Helvetica-69"/>
      <use x="806.054688" xlink:href="#Helvetica-74"/>
      <use x="833.837891" xlink:href="#Helvetica-20"/>
      <use x="861.621094" xlink:href="#Helvetica-4d"/>
      <use x="944.921875" xlink:href="#Helvetica-69"/>
      <use x="967.138672" xlink:href="#Helvetica-73"/>
      <use x="1017.138672" xlink:href="#Helvetica-6d"/>
      <use x="1100.439453" xlink:href="#Helvetica-61"/>
      <use x="1156.054688" xlink:href="#Helvetica-74"/>
      <use x="1183.837891" xlink:href="#Helvetica-63"/>
      <use x="1233.837891" xlink:href="#Helvetica-68"/>
     </g>
    </g>
   </g>
   <g id="PolyCollection_1">
    <defs>
     <path d="M 110.787273 -93.138209 
L 110.787273 -89.080187 
L 115.707022 -88.515789 
L 120.626771 -87.986409 
L 125.54652 -87.996335 
L 130.46627 -87.644548 
L 135.386019 -88.630556 
L 140.305768 -87.917796 
L 145.225517 -86.620579 
L 150.145266 -87.467028 
L 155.065016 -87.891233 
L 159.984765 -87.056553 
L 164.904514 -87.749989 
L 169.824263 -90.429242 
L 174.744013 -88.733699 
L 179.663762 -110.117206 
L 184.583511 -105.273271 
L 189.50326 -95.8817 
L 194.423009 -107.636671 
L 199.342759 -96.026868 
L 204.262508 -101.697534 
L 209.182257 -104.336085 
L 214.102006 -88.702655 
L 219.021755 -89.204028 
L 223.941505 -106.117115 
L 228.861254 -169.888587 
L 233.781003 -149.432361 
L 238.700752 -147.684269 
L 243.620502 -168.000118 
L 248.540251 -164.117591 
L 253.46 -167.078513 
L 258.379749 -84.711818 
L 263.299498 -84.711818 
L 268.219248 -84.711818 
L 273.138997 -84.711818 
L 278.058746 -84.711818 
L 282.978495 -84.711818 
L 287.898245 -84.711818 
L 292.817994 -84.711818 
L 297.737743 -84.711818 
L 302.657492 -84.711818 
L 307.577241 -84.711818 
L 312.496991 -147.185503 
L 317.41674 -181.431247 
L 322.336489 -147.277479 
L 327.256238 -137.819178 
L 332.175987 -99.468753 
L 337.095737 -87.211556 
L 342.015486 -84.711818 
L 346.935235 -84.711818 
L 351.854984 -84.711818 
L 356.774734 -156.910154 
L 361.694483 -100.01862 
L 366.614232 -95.916504 
L 371.533981 -150.922215 
L 376.45373 -122.866046 
L 381.37348 -97.377984 
L 386.293229 -109.725071 
L 391.212978 -91.388908 
L 396.132727 -88.140395 
L 396.132727 -112.620332 
L 396.132727 -112.620332 
L 391.212978 -98.42619 
L 386.293229 -119.362833 
L 381.37348 -104.416983 
L 376.45373 -133.647954 
L 371.533981 -175.176462 
L 366.614232 -104.48615 
L 361.694483 -109.308384 
L 356.774734 -177.901702 
L 351.854984 -84.711818 
L 346.935235 -84.711818 
L 342.015486 -84.711818 
L 337.095737 -91.509481 
L 332.175987 -106.603333 
L 327.256238 -157.527957 
L 322.336489 -176.416628 
L 317.41674 -222.214301 
L 312.496991 -174.900067 
L 307.577241 -84.711818 
L 302.657492 -84.711818 
L 297.737743 -84.711818 
L 292.817994 -84.711818 
L 287.898245 -84.711818 
L 282.978495 -84.711818 
L 278.058746 -84.711818 
L 273.138997 -84.711818 
L 268.219248 -84.711818 
L 263.299498 -84.711818 
L 258.379749 -84.711818 
L 253.46 -194.245127 
L 248.540251 -199.395955 
L 243.620502 -199.756371 
L 238.700752 -183.069866 
L 233.781003 -180.490251 
L 228.861254 -199.980831 
L 223.941505 -111.98861 
L 219.021755 -93.627759 
L 214.102006 -93.515912 
L 209.182257 -119.532611 
L 204.262508 -113.879235 
L 199.342759 -105.294974 
L 194.423009 -127.464568 
L 189.50326 -105.129877 
L 184.583511 -117.265838 
L 179.663762 -150.017122 
L 174.744013 -93.94703 
L 169.824263 -96.003661 
L 164.904514 -91.241937 
L 159.984765 -90.941998 
L 155.065016 -91.938512 
L 150.145266 -91.611293 
L 145.225517 -89.955375 
L 140.305768 -91.969728 
L 135.386019 -92.916806 
L 130.46627 -92.292441 
L 125.54652 -92.094707 
L 120.626771 -91.844127 
L 115.707022 -92.709241 
L 110.787273 -93.138209 
z
" id="m0549166e91" style="stroke:#808080;stroke-opacity:0.2;"/>
    </defs>
    <g clip-path="url(#pc2e1ca943f)">
     <use style="fill:#808080;fill-opacity:0.2;stroke:#808080;stroke-opacity:0.2;" x="0" xlink:href="#m0549166e91" y="288"/>
    </g>
   </g>
   <g id="PolyCollection_2">
    <defs>
     <path d="M 110.787273 -89.710732 
L 110.787273 -86.582255 
L 115.707022 -85.94736 
L 120.626771 -87.721296 
L 125.54652 -86.025046 
L 130.46627 -86.884031 
L 135.386019 -87.319531 
L 140.305768 -85.613479 
L 145.225517 -86.995911 
L 150.145266 -87.254334 
L 155.065016 -87.537548 
L 159.984765 -87.335042 
L 164.904514 -87.890387 
L 169.824263 -90.48191 
L 174.744013 -87.171112 
L 179.663762 -103.150092 
L 184.583511 -104.715332 
L 189.50326 -91.960719 
L 194.423009 -101.312755 
L 199.342759 -93.653604 
L 204.262508 -93.456733 
L 209.182257 -99.708974 
L 214.102006 -87.058732 
L 219.021755 -88.280199 
L 223.941505 -100.133326 
L 228.861254 -126.065592 
L 233.781003 -118.701201 
L 238.700752 -121.00327 
L 243.620502 -117.873753 
L 248.540251 -129.262904 
L 253.46 -141.277286 
L 258.379749 -84.711818 
L 263.299498 -84.711818 
L 268.219248 -84.711818 
L 273.138997 -84.711818 
L 278.058746 -84.711818 
L 282.978495 -84.711818 
L 287.898245 -84.711818 
L 292.817994 -84.711818 
L 297.737743 -84.711818 
L 302.657492 -84.711818 
L 307.577241 -84.711818 
L 312.496991 -129.101054 
L 317.41674 -129.349045 
L 322.336489 -108.469735 
L 327.256238 -116.190735 
L 332.175987 -94.16673 
L 337.095737 -85.95724 
L 342.015486 -84.711818 
L 346.935235 -84.711818 
L 351.854984 -84.711818 
L 356.774734 -136.042056 
L 361.694483 -100.545996 
L 366.614232 -97.278217 
L 371.533981 -132.320657 
L 376.45373 -113.668818 
L 381.37348 -95.525981 
L 386.293229 -107.377659 
L 391.212978 -90.331223 
L 396.132727 -88.856671 
L 396.132727 -101.837033 
L 396.132727 -101.837033 
L 391.212978 -104.445032 
L 386.293229 -114.883406 
L 381.37348 -108.496652 
L 376.45373 -141.139988 
L 371.533981 -161.257168 
L 366.614232 -111.402019 
L 361.694483 -114.708187 
L 356.774734 -161.72813 
L 351.854984 -84.711818 
L 346.935235 -84.711818 
L 342.015486 -84.711818 
L 337.095737 -89.116812 
L 332.175987 -100.581929 
L 327.256238 -135.453775 
L 322.336489 -130.702425 
L 317.41674 -153.743038 
L 312.496991 -150.688876 
L 307.577241 -84.711818 
L 302.657492 -84.711818 
L 297.737743 -84.711818 
L 292.817994 -84.711818 
L 287.898245 -84.711818 
L 282.978495 -84.711818 
L 278.058746 -84.711818 
L 273.138997 -84.711818 
L 268.219248 -84.711818 
L 263.299498 -84.711818 
L 258.379749 -84.711818 
L 253.46 -170.80946 
L 248.540251 -158.655666 
L 243.620502 -140.496018 
L 238.700752 -144.182193 
L 233.781003 -149.084631 
L 228.861254 -154.674932 
L 223.941505 -105.657125 
L 219.021755 -91.385199 
L 214.102006 -92.944745 
L 209.182257 -128.9446 
L 204.262508 -107.105568 
L 199.342759 -105.187298 
L 194.423009 -143.508291 
L 189.50326 -100.75123 
L 184.583511 -128.349062 
L 179.663762 -128.448818 
L 174.744013 -92.325781 
L 169.824263 -101.683376 
L 164.904514 -92.045507 
L 159.984765 -90.598726 
L 155.065016 -90.437664 
L 150.145266 -90.631974 
L 145.225517 -90.963068 
L 140.305768 -88.499778 
L 135.386019 -90.687667 
L 130.46627 -90.331725 
L 125.54652 -89.15314 
L 120.626771 -90.667083 
L 115.707022 -88.250267 
L 110.787273 -89.710732 
z
" id="m5e644d897a" style="stroke:#ff7f0e;stroke-opacity:0.2;"/>
    </defs>
    <g clip-path="url(#pc2e1ca943f)">
     <use style="fill:#ff7f0e;fill-opacity:0.2;stroke:#ff7f0e;stroke-opacity:0.2;" x="0" xlink:href="#m5e644d897a" y="288"/>
    </g>
   </g>
   <g id="PolyCollection_3">
    <defs>
     <path d="M 110.787273 -91.932717 
L 110.787273 -87.053222 
L 115.707022 -86.429278 
L 120.626771 -87.023197 
L 125.54652 -86.744469 
L 130.46627 -87.926623 
L 135.386019 -88.600819 
L 140.305768 -87.592428 
L 145.225517 -86.678572 
L 150.145266 -86.750693 
L 155.065016 -86.845425 
L 159.984765 -87.503345 
L 164.904514 -87.465386 
L 169.824263 -88.930039 
L 174.744013 -88.078846 
L 179.663762 -137.448751 
L 184.583511 -99.644318 
L 189.50326 -96.264818 
L 194.423009 -168.264281 
L 199.342759 -96.309484 
L 204.262508 -95.152236 
L 209.182257 -143.185888 
L 214.102006 -88.286118 
L 219.021755 -88.630131 
L 223.941505 -102.525053 
L 228.861254 -128.902814 
L 233.781003 -121.304342 
L 238.700752 -116.402701 
L 243.620502 -139.773472 
L 248.540251 -145.042016 
L 253.46 -168.476338 
L 258.379749 -84.711818 
L 263.299498 -84.711818 
L 268.219248 -84.711818 
L 273.138997 -84.711818 
L 278.058746 -84.711818 
L 282.978495 -84.711818 
L 287.898245 -84.711818 
L 292.817994 -84.711818 
L 297.737743 -84.711818 
L 302.657492 -84.711818 
L 307.577241 -84.711818 
L 312.496991 -137.946855 
L 317.41674 -119.439004 
L 322.336489 -106.427055 
L 327.256238 -111.20057 
L 332.175987 -94.612398 
L 337.095737 -86.81234 
L 342.015486 -84.711818 
L 346.935235 -84.711818 
L 351.854984 -84.711818 
L 356.774734 -116.76574 
L 361.694483 -97.470234 
L 366.614232 -96.075082 
L 371.533981 -126.205181 
L 376.45373 -106.667887 
L 381.37348 -92.753043 
L 386.293229 -95.832506 
L 391.212978 -90.997458 
L 396.132727 -90.000512 
L 396.132727 -125.383657 
L 396.132727 -125.383657 
L 391.212978 -129.996852 
L 386.293229 -105.985869 
L 381.37348 -116.058089 
L 376.45373 -117.765858 
L 371.533981 -145.203025 
L 366.614232 -141.365854 
L 361.694483 -135.016774 
L 356.774734 -138.992794 
L 351.854984 -84.711818 
L 346.935235 -84.711818 
L 342.015486 -84.711818 
L 337.095737 -90.523328 
L 332.175987 -102.261714 
L 327.256238 -133.294922 
L 322.336489 -136.81111 
L 317.41674 -144.49705 
L 312.496991 -171.824108 
L 307.577241 -84.711818 
L 302.657492 -84.711818 
L 297.737743 -84.711818 
L 292.817994 -84.711818 
L 287.898245 -84.711818 
L 282.978495 -84.711818 
L 278.058746 -84.711818 
L 273.138997 -84.711818 
L 268.219248 -84.711818 
L 263.299498 -84.711818 
L 258.379749 -84.711818 
L 253.46 -212.51406 
L 248.540251 -181.173328 
L 243.620502 -169.884426 
L 238.700752 -144.640092 
L 233.781003 -154.406681 
L 228.861254 -167.296196 
L 223.941505 -108.360988 
L 219.021755 -93.201818 
L 214.102006 -95.60235 
L 209.182257 -207.651446 
L 204.262508 -113.311401 
L 199.342759 -104.132365 
L 194.423009 -257.748182 
L 189.50326 -105.496233 
L 184.583511 -124.891175 
L 179.663762 -211.234229 
L 174.744013 -99.255883 
L 169.824263 -97.329892 
L 164.904514 -91.964529 
L 159.984765 -91.542254 
L 155.065016 -91.326398 
L 150.145266 -90.941297 
L 145.225517 -90.452825 
L 140.305768 -92.245364 
L 135.386019 -93.534122 
L 130.46627 -92.153875 
L 125.54652 -91.48618 
L 120.626771 -90.621272 
L 115.707022 -90.617756 
L 110.787273 -91.932717 
z
" id="mc06383a367" style="stroke:#1f77b4;stroke-opacity:0.2;"/>
    </defs>
    <g clip-path="url(#pc2e1ca943f)">
     <use style="fill:#1f77b4;fill-opacity:0.2;stroke:#1f77b4;stroke-opacity:0.2;" x="0" xlink:href="#mc06383a367" y="288"/>
    </g>
   </g>
   <g id="line2d_10">
    <path clip-path="url(#pc2e1ca943f)" d="M 110.787273 196.890802 
L 115.707022 197.387485 
L 120.626771 198.084732 
L 125.54652 197.954479 
L 130.46627 198.031505 
L 135.386019 197.226319 
L 140.305768 198.056238 
L 145.225517 199.712023 
L 150.145266 198.46084 
L 155.065016 198.085127 
L 159.984765 199.000725 
L 164.904514 198.504037 
L 169.824263 194.783548 
L 174.744013 196.659635 
L 179.663762 157.932836 
L 184.583511 176.730445 
L 189.50326 187.494212 
L 194.423009 170.449381 
L 199.342759 187.339079 
L 204.262508 180.211616 
L 209.182257 176.065652 
L 214.102006 196.890716 
L 219.021755 196.584106 
L 223.941505 178.947137 
L 228.861254 103.065291 
L 233.781003 123.038694 
L 238.700752 122.622933 
L 243.620502 104.121755 
L 248.540251 106.243227 
L 253.46 107.33818 
L 258.379749 203.288182 
L 263.299498 203.288182 
L 268.219248 203.288182 
L 273.138997 203.288182 
L 278.058746 203.288182 
L 282.978495 203.288182 
L 287.898245 203.288182 
L 292.817994 203.288182 
L 297.737743 203.288182 
L 302.657492 203.288182 
L 307.577241 203.288182 
L 312.496991 126.957215 
L 317.41674 86.177226 
L 322.336489 126.152946 
L 327.256238 140.326433 
L 332.175987 184.963957 
L 337.095737 198.639482 
L 342.015486 203.288182 
L 346.935235 203.288182 
L 351.854984 203.288182 
L 356.774734 120.594072 
L 361.694483 183.336498 
L 366.614232 187.798673 
L 371.533981 124.950662 
L 376.45373 159.743 
L 381.37348 187.102517 
L 386.293229 173.456048 
L 391.212978 193.092451 
L 396.132727 187.619637 
" style="fill:none;stroke:#808080;stroke-linecap:round;stroke-opacity:0.8;stroke-width:0.7;"/>
    <defs>
     <path d="M -0 2.5 
L 2.5 -2.5 
L -2.5 -2.5 
z
" id="mf6a02cbfcd" style="stroke:#000000;stroke-linejoin:miter;stroke-opacity:0.8;"/>
    </defs>
    <g clip-path="url(#pc2e1ca943f)">
     <use style="fill:#808080;fill-opacity:0.8;stroke:#000000;stroke-linejoin:miter;stroke-opacity:0.8;" x="110.787273" xlink:href="#mf6a02cbfcd" y="196.890802"/>
     <use style="fill:#808080;fill-opacity:0.8;stroke:#000000;stroke-linejoin:miter;stroke-opacity:0.8;" x="115.707022" xlink:href="#mf6a02cbfcd" y="197.387485"/>
     <use style="fill:#808080;fill-opacity:0.8;stroke:#000000;stroke-linejoin:miter;stroke-opacity:0.8;" x="120.626771" xlink:href="#mf6a02cbfcd" y="198.084732"/>
     <use style="fill:#808080;fill-opacity:0.8;stroke:#000000;stroke-linejoin:miter;stroke-opacity:0.8;" x="125.54652" xlink:href="#mf6a02cbfcd" y="197.954479"/>
     <use style="fill:#808080;fill-opacity:0.8;stroke:#000000;stroke-linejoin:miter;stroke-opacity:0.8;" x="130.46627" xlink:href="#mf6a02cbfcd" y="198.031505"/>
     <use style="fill:#808080;fill-opacity:0.8;stroke:#000000;stroke-linejoin:miter;stroke-opacity:0.8;" x="135.386019" xlink:href="#mf6a02cbfcd" y="197.226319"/>
     <use style="fill:#808080;fill-opacity:0.8;stroke:#000000;stroke-linejoin:miter;stroke-opacity:0.8;" x="140.305768" xlink:href="#mf6a02cbfcd" y="198.056238"/>
     <use style="fill:#808080;fill-opacity:0.8;stroke:#000000;stroke-linejoin:miter;stroke-opacity:0.8;" x="145.225517" xlink:href="#mf6a02cbfcd" y="199.712023"/>
     <use style="fill:#808080;fill-opacity:0.8;stroke:#000000;stroke-linejoin:miter;stroke-opacity:0.8;" x="150.145266" xlink:href="#mf6a02cbfcd" y="198.46084"/>
     <use style="fill:#808080;fill-opacity:0.8;stroke:#000000;stroke-linejoin:miter;stroke-opacity:0.8;" x="155.065016" xlink:href="#mf6a02cbfcd" y="198.085127"/>
     <use style="fill:#808080;fill-opacity:0.8;stroke:#000000;stroke-linejoin:miter;stroke-opacity:0.8;" x="159.984765" xlink:href="#mf6a02cbfcd" y="199.000725"/>
     <use style="fill:#808080;fill-opacity:0.8;stroke:#000000;stroke-linejoin:miter;stroke-opacity:0.8;" x="164.904514" xlink:href="#mf6a02cbfcd" y="198.504037"/>
     <use style="fill:#808080;fill-opacity:0.8;stroke:#000000;stroke-linejoin:miter;stroke-opacity:0.8;" x="169.824263" xlink:href="#mf6a02cbfcd" y="194.783548"/>
     <use style="fill:#808080;fill-opacity:0.8;stroke:#000000;stroke-linejoin:miter;stroke-opacity:0.8;" x="174.744013" xlink:href="#mf6a02cbfcd" y="196.659635"/>
     <use style="fill:#808080;fill-opacity:0.8;stroke:#000000;stroke-linejoin:miter;stroke-opacity:0.8;" x="179.663762" xlink:href="#mf6a02cbfcd" y="157.932836"/>
     <use style="fill:#808080;fill-opacity:0.8;stroke:#000000;stroke-linejoin:miter;stroke-opacity:0.8;" x="184.583511" xlink:href="#mf6a02cbfcd" y="176.730445"/>
     <use style="fill:#808080;fill-opacity:0.8;stroke:#000000;stroke-linejoin:miter;stroke-opacity:0.8;" x="189.50326" xlink:href="#mf6a02cbfcd" y="187.494212"/>
     <use style="fill:#808080;fill-opacity:0.8;stroke:#000000;stroke-linejoin:miter;stroke-opacity:0.8;" x="194.423009" xlink:href="#mf6a02cbfcd" y="170.449381"/>
     <use style="fill:#808080;fill-opacity:0.8;stroke:#000000;stroke-linejoin:miter;stroke-opacity:0.8;" x="199.342759" xlink:href="#mf6a02cbfcd" y="187.339079"/>
     <use style="fill:#808080;fill-opacity:0.8;stroke:#000000;stroke-linejoin:miter;stroke-opacity:0.8;" x="204.262508" xlink:href="#mf6a02cbfcd" y="180.211616"/>
     <use style="fill:#808080;fill-opacity:0.8;stroke:#000000;stroke-linejoin:miter;stroke-opacity:0.8;" x="209.182257" xlink:href="#mf6a02cbfcd" y="176.065652"/>
     <use style="fill:#808080;fill-opacity:0.8;stroke:#000000;stroke-linejoin:miter;stroke-opacity:0.8;" x="214.102006" xlink:href="#mf6a02cbfcd" y="196.890716"/>
     <use style="fill:#808080;fill-opacity:0.8;stroke:#000000;stroke-linejoin:miter;stroke-opacity:0.8;" x="219.021755" xlink:href="#mf6a02cbfcd" y="196.584106"/>
     <use style="fill:#808080;fill-opacity:0.8;stroke:#000000;stroke-linejoin:miter;stroke-opacity:0.8;" x="223.941505" xlink:href="#mf6a02cbfcd" y="178.947137"/>
     <use style="fill:#808080;fill-opacity:0.8;stroke:#000000;stroke-linejoin:miter;stroke-opacity:0.8;" x="228.861254" xlink:href="#mf6a02cbfcd" y="103.065291"/>
     <use style="fill:#808080;fill-opacity:0.8;stroke:#000000;stroke-linejoin:miter;stroke-opacity:0.8;" x="233.781003" xlink:href="#mf6a02cbfcd" y="123.038694"/>
     <use style="fill:#808080;fill-opacity:0.8;stroke:#000000;stroke-linejoin:miter;stroke-opacity:0.8;" x="238.700752" xlink:href="#mf6a02cbfcd" y="122.622933"/>
     <use style="fill:#808080;fill-opacity:0.8;stroke:#000000;stroke-linejoin:miter;stroke-opacity:0.8;" x="243.620502" xlink:href="#mf6a02cbfcd" y="104.121755"/>
     <use style="fill:#808080;fill-opacity:0.8;stroke:#000000;stroke-linejoin:miter;stroke-opacity:0.8;" x="248.540251" xlink:href="#mf6a02cbfcd" y="106.243227"/>
     <use style="fill:#808080;fill-opacity:0.8;stroke:#000000;stroke-linejoin:miter;stroke-opacity:0.8;" x="253.46" xlink:href="#mf6a02cbfcd" y="107.33818"/>
     <use style="fill:#808080;fill-opacity:0.8;stroke:#000000;stroke-linejoin:miter;stroke-opacity:0.8;" x="258.379749" xlink:href="#mf6a02cbfcd" y="203.288182"/>
     <use style="fill:#808080;fill-opacity:0.8;stroke:#000000;stroke-linejoin:miter;stroke-opacity:0.8;" x="263.299498" xlink:href="#mf6a02cbfcd" y="203.288182"/>
     <use style="fill:#808080;fill-opacity:0.8;stroke:#000000;stroke-linejoin:miter;stroke-opacity:0.8;" x="268.219248" xlink:href="#mf6a02cbfcd" y="203.288182"/>
     <use style="fill:#808080;fill-opacity:0.8;stroke:#000000;stroke-linejoin:miter;stroke-opacity:0.8;" x="273.138997" xlink:href="#mf6a02cbfcd" y="203.288182"/>
     <use style="fill:#808080;fill-opacity:0.8;stroke:#000000;stroke-linejoin:miter;stroke-opacity:0.8;" x="278.058746" xlink:href="#mf6a02cbfcd" y="203.288182"/>
     <use style="fill:#808080;fill-opacity:0.8;stroke:#000000;stroke-linejoin:miter;stroke-opacity:0.8;" x="282.978495" xlink:href="#mf6a02cbfcd" y="203.288182"/>
     <use style="fill:#808080;fill-opacity:0.8;stroke:#000000;stroke-linejoin:miter;stroke-opacity:0.8;" x="287.898245" xlink:href="#mf6a02cbfcd" y="203.288182"/>
     <use style="fill:#808080;fill-opacity:0.8;stroke:#000000;stroke-linejoin:miter;stroke-opacity:0.8;" x="292.817994" xlink:href="#mf6a02cbfcd" y="203.288182"/>
     <use style="fill:#808080;fill-opacity:0.8;stroke:#000000;stroke-linejoin:miter;stroke-opacity:0.8;" x="297.737743" xlink:href="#mf6a02cbfcd" y="203.288182"/>
     <use style="fill:#808080;fill-opacity:0.8;stroke:#000000;stroke-linejoin:miter;stroke-opacity:0.8;" x="302.657492" xlink:href="#mf6a02cbfcd" y="203.288182"/>
     <use style="fill:#808080;fill-opacity:0.8;stroke:#000000;stroke-linejoin:miter;stroke-opacity:0.8;" x="307.577241" xlink:href="#mf6a02cbfcd" y="203.288182"/>
     <use style="fill:#808080;fill-opacity:0.8;stroke:#000000;stroke-linejoin:miter;stroke-opacity:0.8;" x="312.496991" xlink:href="#mf6a02cbfcd" y="126.957215"/>
     <use style="fill:#808080;fill-opacity:0.8;stroke:#000000;stroke-linejoin:miter;stroke-opacity:0.8;" x="317.41674" xlink:href="#mf6a02cbfcd" y="86.177226"/>
     <use style="fill:#808080;fill-opacity:0.8;stroke:#000000;stroke-linejoin:miter;stroke-opacity:0.8;" x="322.336489" xlink:href="#mf6a02cbfcd" y="126.152946"/>
     <use style="fill:#808080;fill-opacity:0.8;stroke:#000000;stroke-linejoin:miter;stroke-opacity:0.8;" x="327.256238" xlink:href="#mf6a02cbfcd" y="140.326433"/>
     <use style="fill:#808080;fill-opacity:0.8;stroke:#000000;stroke-linejoin:miter;stroke-opacity:0.8;" x="332.175987" xlink:href="#mf6a02cbfcd" y="184.963957"/>
     <use style="fill:#808080;fill-opacity:0.8;stroke:#000000;stroke-linejoin:miter;stroke-opacity:0.8;" x="337.095737" xlink:href="#mf6a02cbfcd" y="198.639482"/>
     <use style="fill:#808080;fill-opacity:0.8;stroke:#000000;stroke-linejoin:miter;stroke-opacity:0.8;" x="342.015486" xlink:href="#mf6a02cbfcd" y="203.288182"/>
     <use style="fill:#808080;fill-opacity:0.8;stroke:#000000;stroke-linejoin:miter;stroke-opacity:0.8;" x="346.935235" xlink:href="#mf6a02cbfcd" y="203.288182"/>
     <use style="fill:#808080;fill-opacity:0.8;stroke:#000000;stroke-linejoin:miter;stroke-opacity:0.8;" x="351.854984" xlink:href="#mf6a02cbfcd" y="203.288182"/>
     <use style="fill:#808080;fill-opacity:0.8;stroke:#000000;stroke-linejoin:miter;stroke-opacity:0.8;" x="356.774734" xlink:href="#mf6a02cbfcd" y="120.594072"/>
     <use style="fill:#808080;fill-opacity:0.8;stroke:#000000;stroke-linejoin:miter;stroke-opacity:0.8;" x="361.694483" xlink:href="#mf6a02cbfcd" y="183.336498"/>
     <use style="fill:#808080;fill-opacity:0.8;stroke:#000000;stroke-linejoin:miter;stroke-opacity:0.8;" x="366.614232" xlink:href="#mf6a02cbfcd" y="187.798673"/>
     <use style="fill:#808080;fill-opacity:0.8;stroke:#000000;stroke-linejoin:miter;stroke-opacity:0.8;" x="371.533981" xlink:href="#mf6a02cbfcd" y="124.950662"/>
     <use style="fill:#808080;fill-opacity:0.8;stroke:#000000;stroke-linejoin:miter;stroke-opacity:0.8;" x="376.45373" xlink:href="#mf6a02cbfcd" y="159.743"/>
     <use style="fill:#808080;fill-opacity:0.8;stroke:#000000;stroke-linejoin:miter;stroke-opacity:0.8;" x="381.37348" xlink:href="#mf6a02cbfcd" y="187.102517"/>
     <use style="fill:#808080;fill-opacity:0.8;stroke:#000000;stroke-linejoin:miter;stroke-opacity:0.8;" x="386.293229" xlink:href="#mf6a02cbfcd" y="173.456048"/>
     <use style="fill:#808080;fill-opacity:0.8;stroke:#000000;stroke-linejoin:miter;stroke-opacity:0.8;" x="391.212978" xlink:href="#mf6a02cbfcd" y="193.092451"/>
     <use style="fill:#808080;fill-opacity:0.8;stroke:#000000;stroke-linejoin:miter;stroke-opacity:0.8;" x="396.132727" xlink:href="#mf6a02cbfcd" y="187.619637"/>
    </g>
   </g>
   <g id="line2d_11">
    <path clip-path="url(#pc2e1ca943f)" d="M 110.787273 196.890802 
L 115.707022 197.387485 
L 120.626771 198.084732 
L 125.54652 197.954479 
L 130.46627 198.031505 
L 135.386019 197.226319 
L 140.305768 198.056238 
L 145.225517 199.712023 
L 150.145266 198.46084 
L 155.065016 198.085127 
L 159.984765 199.000725 
L 164.904514 198.504037 
L 169.824263 194.783548 
L 174.744013 196.659635 
L 179.663762 157.932836 
L 184.583511 176.730445 
L 189.50326 187.494212 
L 194.423009 170.449381 
L 199.342759 187.339079 
L 204.262508 180.211616 
L 209.182257 176.065652 
L 214.102006 196.890716 
L 219.021755 196.584106 
L 223.941505 178.947137 
L 228.861254 103.065291 
L 233.781003 123.038694 
L 238.700752 122.622933 
L 243.620502 104.121755 
L 248.540251 106.243227 
L 253.46 107.33818 
L 258.379749 203.288182 
L 263.299498 203.288182 
L 268.219248 203.288182 
L 273.138997 203.288182 
L 278.058746 203.288182 
L 282.978495 203.288182 
L 287.898245 203.288182 
L 292.817994 203.288182 
L 297.737743 203.288182 
L 302.657492 203.288182 
L 307.577241 203.288182 
L 312.496991 126.957215 
L 317.41674 86.177226 
L 322.336489 126.152946 
L 327.256238 140.326433 
L 332.175987 184.963957 
L 337.095737 198.639482 
L 342.015486 203.288182 
L 346.935235 203.288182 
L 351.854984 203.288182 
L 356.774734 120.594072 
L 361.694483 183.336498 
L 366.614232 187.798673 
L 371.533981 124.950662 
L 376.45373 159.743 
L 381.37348 187.102517 
L 386.293229 173.456048 
L 391.212978 193.092451 
L 396.132727 187.619637 
" style="fill:none;stroke:#808080;stroke-linecap:round;stroke-width:0.7;"/>
   </g>
   <g id="line2d_12">
    <path clip-path="url(#pc2e1ca943f)" d="M 110.787273 198.919813 
L 115.707022 199.484211 
L 120.626771 200.013591 
L 125.54652 200.003665 
L 130.46627 200.355452 
L 135.386019 199.369444 
L 140.305768 200.082204 
L 145.225517 201.379421 
L 150.145266 200.532972 
L 155.065016 200.108767 
L 159.984765 200.943447 
L 164.904514 200.250011 
L 169.824263 197.570758 
L 174.744013 199.266301 
L 179.663762 177.882794 
L 184.583511 182.726729 
L 189.50326 192.1183 
L 194.423009 180.363329 
L 199.342759 191.973132 
L 204.262508 186.302466 
L 209.182257 183.663915 
L 214.102006 199.297345 
L 219.021755 198.795972 
L 223.941505 181.882885 
L 228.861254 118.111413 
L 233.781003 138.567639 
L 238.700752 140.315731 
L 243.620502 119.999882 
L 248.540251 123.882409 
L 253.46 120.921487 
L 258.379749 203.288182 
L 263.299498 203.288182 
L 268.219248 203.288182 
L 273.138997 203.288182 
L 278.058746 203.288182 
L 282.978495 203.288182 
L 287.898245 203.288182 
L 292.817994 203.288182 
L 297.737743 203.288182 
L 302.657492 203.288182 
L 307.577241 203.288182 
L 312.496991 140.814497 
L 317.41674 106.568753 
L 322.336489 140.722521 
L 327.256238 150.180822 
L 332.175987 188.531247 
L 337.095737 200.788444 
L 342.015486 203.288182 
L 346.935235 203.288182 
L 351.854984 203.288182 
L 356.774734 131.089846 
L 361.694483 187.98138 
L 366.614232 192.083496 
L 371.533981 137.077785 
L 376.45373 165.133954 
L 381.37348 190.622016 
L 386.293229 178.274929 
L 391.212978 196.611092 
L 396.132727 199.859605 
" style="fill:none;stroke:#808080;stroke-dasharray:1.85,0.8;stroke-dashoffset:0;stroke-width:0.5;"/>
   </g>
   <g id="line2d_13">
    <path clip-path="url(#pc2e1ca943f)" d="M 110.787273 194.861791 
L 115.707022 195.290759 
L 120.626771 196.155873 
L 125.54652 195.905293 
L 130.46627 195.707559 
L 135.386019 195.083194 
L 140.305768 196.030272 
L 145.225517 198.044625 
L 150.145266 196.388707 
L 155.065016 196.061488 
L 159.984765 197.058002 
L 164.904514 196.758063 
L 169.824263 191.996339 
L 174.744013 194.05297 
L 179.663762 137.982878 
L 184.583511 170.734162 
L 189.50326 182.870123 
L 194.423009 160.535432 
L 199.342759 182.705026 
L 204.262508 174.120765 
L 209.182257 168.467389 
L 214.102006 194.484088 
L 219.021755 194.372241 
L 223.941505 176.01139 
L 228.861254 88.019169 
L 233.781003 107.509749 
L 238.700752 104.930134 
L 243.620502 88.243629 
L 248.540251 88.604045 
L 253.46 93.754873 
L 258.379749 203.288182 
L 263.299498 203.288182 
L 268.219248 203.288182 
L 273.138997 203.288182 
L 278.058746 203.288182 
L 282.978495 203.288182 
L 287.898245 203.288182 
L 292.817994 203.288182 
L 297.737743 203.288182 
L 302.657492 203.288182 
L 307.577241 203.288182 
L 312.496991 113.099933 
L 317.41674 65.785699 
L 322.336489 111.583372 
L 327.256238 130.472043 
L 332.175987 181.396667 
L 337.095737 196.490519 
L 342.015486 203.288182 
L 346.935235 203.288182 
L 351.854984 203.288182 
L 356.774734 110.098298 
L 361.694483 178.691616 
L 366.614232 183.51385 
L 371.533981 112.823538 
L 376.45373 154.352046 
L 381.37348 183.583017 
L 386.293229 168.637167 
L 391.212978 189.57381 
L 396.132727 175.379668 
" style="fill:none;stroke:#808080;stroke-dasharray:1.85,0.8;stroke-dashoffset:0;stroke-width:0.5;"/>
   </g>
   <g id="line2d_14">
    <path clip-path="url(#pc2e1ca943f)" d="M 110.787273 199.853506 
L 115.707022 200.901187 
L 120.626771 198.80581 
L 125.54652 200.410907 
L 130.46627 199.392122 
L 135.386019 198.996401 
L 140.305768 200.943371 
L 145.225517 199.02051 
L 150.145266 199.056846 
L 155.065016 199.012394 
L 159.984765 199.033116 
L 164.904514 198.032053 
L 169.824263 191.917357 
L 174.744013 198.251554 
L 179.663762 172.200545 
L 184.583511 171.467803 
L 189.50326 191.644026 
L 194.423009 165.589477 
L 199.342759 188.579549 
L 204.262508 187.718849 
L 209.182257 173.673213 
L 214.102006 197.998262 
L 219.021755 198.167301 
L 223.941505 185.104775 
L 228.861254 147.629738 
L 233.781003 154.107084 
L 238.700752 155.407268 
L 243.620502 158.815114 
L 248.540251 144.040715 
L 253.46 131.956627 
L 258.379749 203.288182 
L 263.299498 203.288182 
L 268.219248 203.288182 
L 273.138997 203.288182 
L 278.058746 203.288182 
L 282.978495 203.288182 
L 287.898245 203.288182 
L 292.817994 203.288182 
L 297.737743 203.288182 
L 302.657492 203.288182 
L 307.577241 203.288182 
L 312.496991 148.105035 
L 317.41674 146.453958 
L 322.336489 168.41392 
L 327.256238 162.177745 
L 332.175987 190.62567 
L 337.095737 200.462974 
L 342.015486 203.288182 
L 346.935235 203.288182 
L 351.854984 203.288182 
L 356.774734 139.114907 
L 361.694483 180.372908 
L 366.614232 183.659882 
L 371.533981 141.211087 
L 376.45373 160.595597 
L 381.37348 185.988683 
L 386.293229 176.869467 
L 391.212978 190.611872 
L 396.132727 192.653148 
" style="fill:none;stroke:#ff7f0e;stroke-linecap:round;stroke-opacity:0.8;stroke-width:0.7;"/>
    <defs>
     <path d="M 0 -2.5 
L -2.5 2.5 
L 2.5 2.5 
z
" id="m4bd449cdee" style="stroke:#000000;stroke-linejoin:miter;stroke-opacity:0.8;"/>
    </defs>
    <g clip-path="url(#pc2e1ca943f)">
     <use style="fill:#ff7f0e;fill-opacity:0.8;stroke:#000000;stroke-linejoin:miter;stroke-opacity:0.8;" x="110.787273" xlink:href="#m4bd449cdee" y="199.853506"/>
     <use style="fill:#ff7f0e;fill-opacity:0.8;stroke:#000000;stroke-linejoin:miter;stroke-opacity:0.8;" x="115.707022" xlink:href="#m4bd449cdee" y="200.901187"/>
     <use style="fill:#ff7f0e;fill-opacity:0.8;stroke:#000000;stroke-linejoin:miter;stroke-opacity:0.8;" x="120.626771" xlink:href="#m4bd449cdee" y="198.80581"/>
     <use style="fill:#ff7f0e;fill-opacity:0.8;stroke:#000000;stroke-linejoin:miter;stroke-opacity:0.8;" x="125.54652" xlink:href="#m4bd449cdee" y="200.410907"/>
     <use style="fill:#ff7f0e;fill-opacity:0.8;stroke:#000000;stroke-linejoin:miter;stroke-opacity:0.8;" x="130.46627" xlink:href="#m4bd449cdee" y="199.392122"/>
     <use style="fill:#ff7f0e;fill-opacity:0.8;stroke:#000000;stroke-linejoin:miter;stroke-opacity:0.8;" x="135.386019" xlink:href="#m4bd449cdee" y="198.996401"/>
     <use style="fill:#ff7f0e;fill-opacity:0.8;stroke:#000000;stroke-linejoin:miter;stroke-opacity:0.8;" x="140.305768" xlink:href="#m4bd449cdee" y="200.943371"/>
     <use style="fill:#ff7f0e;fill-opacity:0.8;stroke:#000000;stroke-linejoin:miter;stroke-opacity:0.8;" x="145.225517" xlink:href="#m4bd449cdee" y="199.02051"/>
     <use style="fill:#ff7f0e;fill-opacity:0.8;stroke:#000000;stroke-linejoin:miter;stroke-opacity:0.8;" x="150.145266" xlink:href="#m4bd449cdee" y="199.056846"/>
     <use style="fill:#ff7f0e;fill-opacity:0.8;stroke:#000000;stroke-linejoin:miter;stroke-opacity:0.8;" x="155.065016" xlink:href="#m4bd449cdee" y="199.012394"/>
     <use style="fill:#ff7f0e;fill-opacity:0.8;stroke:#000000;stroke-linejoin:miter;stroke-opacity:0.8;" x="159.984765" xlink:href="#m4bd449cdee" y="199.033116"/>
     <use style="fill:#ff7f0e;fill-opacity:0.8;stroke:#000000;stroke-linejoin:miter;stroke-opacity:0.8;" x="164.904514" xlink:href="#m4bd449cdee" y="198.032053"/>
     <use style="fill:#ff7f0e;fill-opacity:0.8;stroke:#000000;stroke-linejoin:miter;stroke-opacity:0.8;" x="169.824263" xlink:href="#m4bd449cdee" y="191.917357"/>
     <use style="fill:#ff7f0e;fill-opacity:0.8;stroke:#000000;stroke-linejoin:miter;stroke-opacity:0.8;" x="174.744013" xlink:href="#m4bd449cdee" y="198.251554"/>
     <use style="fill:#ff7f0e;fill-opacity:0.8;stroke:#000000;stroke-linejoin:miter;stroke-opacity:0.8;" x="179.663762" xlink:href="#m4bd449cdee" y="172.200545"/>
     <use style="fill:#ff7f0e;fill-opacity:0.8;stroke:#000000;stroke-linejoin:miter;stroke-opacity:0.8;" x="184.583511" xlink:href="#m4bd449cdee" y="171.467803"/>
     <use style="fill:#ff7f0e;fill-opacity:0.8;stroke:#000000;stroke-linejoin:miter;stroke-opacity:0.8;" x="189.50326" xlink:href="#m4bd449cdee" y="191.644026"/>
     <use style="fill:#ff7f0e;fill-opacity:0.8;stroke:#000000;stroke-linejoin:miter;stroke-opacity:0.8;" x="194.423009" xlink:href="#m4bd449cdee" y="165.589477"/>
     <use style="fill:#ff7f0e;fill-opacity:0.8;stroke:#000000;stroke-linejoin:miter;stroke-opacity:0.8;" x="199.342759" xlink:href="#m4bd449cdee" y="188.579549"/>
     <use style="fill:#ff7f0e;fill-opacity:0.8;stroke:#000000;stroke-linejoin:miter;stroke-opacity:0.8;" x="204.262508" xlink:href="#m4bd449cdee" y="187.718849"/>
     <use style="fill:#ff7f0e;fill-opacity:0.8;stroke:#000000;stroke-linejoin:miter;stroke-opacity:0.8;" x="209.182257" xlink:href="#m4bd449cdee" y="173.673213"/>
     <use style="fill:#ff7f0e;fill-opacity:0.8;stroke:#000000;stroke-linejoin:miter;stroke-opacity:0.8;" x="214.102006" xlink:href="#m4bd449cdee" y="197.998262"/>
     <use style="fill:#ff7f0e;fill-opacity:0.8;stroke:#000000;stroke-linejoin:miter;stroke-opacity:0.8;" x="219.021755" xlink:href="#m4bd449cdee" y="198.167301"/>
     <use style="fill:#ff7f0e;fill-opacity:0.8;stroke:#000000;stroke-linejoin:miter;stroke-opacity:0.8;" x="223.941505" xlink:href="#m4bd449cdee" y="185.104775"/>
     <use style="fill:#ff7f0e;fill-opacity:0.8;stroke:#000000;stroke-linejoin:miter;stroke-opacity:0.8;" x="228.861254" xlink:href="#m4bd449cdee" y="147.629738"/>
     <use style="fill:#ff7f0e;fill-opacity:0.8;stroke:#000000;stroke-linejoin:miter;stroke-opacity:0.8;" x="233.781003" xlink:href="#m4bd449cdee" y="154.107084"/>
     <use style="fill:#ff7f0e;fill-opacity:0.8;stroke:#000000;stroke-linejoin:miter;stroke-opacity:0.8;" x="238.700752" xlink:href="#m4bd449cdee" y="155.407268"/>
     <use style="fill:#ff7f0e;fill-opacity:0.8;stroke:#000000;stroke-linejoin:miter;stroke-opacity:0.8;" x="243.620502" xlink:href="#m4bd449cdee" y="158.815114"/>
     <use style="fill:#ff7f0e;fill-opacity:0.8;stroke:#000000;stroke-linejoin:miter;stroke-opacity:0.8;" x="248.540251" xlink:href="#m4bd449cdee" y="144.040715"/>
     <use style="fill:#ff7f0e;fill-opacity:0.8;stroke:#000000;stroke-linejoin:miter;stroke-opacity:0.8;" x="253.46" xlink:href="#m4bd449cdee" y="131.956627"/>
     <use style="fill:#ff7f0e;fill-opacity:0.8;stroke:#000000;stroke-linejoin:miter;stroke-opacity:0.8;" x="258.379749" xlink:href="#m4bd449cdee" y="203.288182"/>
     <use style="fill:#ff7f0e;fill-opacity:0.8;stroke:#000000;stroke-linejoin:miter;stroke-opacity:0.8;" x="263.299498" xlink:href="#m4bd449cdee" y="203.288182"/>
     <use style="fill:#ff7f0e;fill-opacity:0.8;stroke:#000000;stroke-linejoin:miter;stroke-opacity:0.8;" x="268.219248" xlink:href="#m4bd449cdee" y="203.288182"/>
     <use style="fill:#ff7f0e;fill-opacity:0.8;stroke:#000000;stroke-linejoin:miter;stroke-opacity:0.8;" x="273.138997" xlink:href="#m4bd449cdee" y="203.288182"/>
     <use style="fill:#ff7f0e;fill-opacity:0.8;stroke:#000000;stroke-linejoin:miter;stroke-opacity:0.8;" x="278.058746" xlink:href="#m4bd449cdee" y="203.288182"/>
     <use style="fill:#ff7f0e;fill-opacity:0.8;stroke:#000000;stroke-linejoin:miter;stroke-opacity:0.8;" x="282.978495" xlink:href="#m4bd449cdee" y="203.288182"/>
     <use style="fill:#ff7f0e;fill-opacity:0.8;stroke:#000000;stroke-linejoin:miter;stroke-opacity:0.8;" x="287.898245" xlink:href="#m4bd449cdee" y="203.288182"/>
     <use style="fill:#ff7f0e;fill-opacity:0.8;stroke:#000000;stroke-linejoin:miter;stroke-opacity:0.8;" x="292.817994" xlink:href="#m4bd449cdee" y="203.288182"/>
     <use style="fill:#ff7f0e;fill-opacity:0.8;stroke:#000000;stroke-linejoin:miter;stroke-opacity:0.8;" x="297.737743" xlink:href="#m4bd449cdee" y="203.288182"/>
     <use style="fill:#ff7f0e;fill-opacity:0.8;stroke:#000000;stroke-linejoin:miter;stroke-opacity:0.8;" x="302.657492" xlink:href="#m4bd449cdee" y="203.288182"/>
     <use style="fill:#ff7f0e;fill-opacity:0.8;stroke:#000000;stroke-linejoin:miter;stroke-opacity:0.8;" x="307.577241" xlink:href="#m4bd449cdee" y="203.288182"/>
     <use style="fill:#ff7f0e;fill-opacity:0.8;stroke:#000000;stroke-linejoin:miter;stroke-opacity:0.8;" x="312.496991" xlink:href="#m4bd449cdee" y="148.105035"/>
     <use style="fill:#ff7f0e;fill-opacity:0.8;stroke:#000000;stroke-linejoin:miter;stroke-opacity:0.8;" x="317.41674" xlink:href="#m4bd449cdee" y="146.453958"/>
     <use style="fill:#ff7f0e;fill-opacity:0.8;stroke:#000000;stroke-linejoin:miter;stroke-opacity:0.8;" x="322.336489" xlink:href="#m4bd449cdee" y="168.41392"/>
     <use style="fill:#ff7f0e;fill-opacity:0.8;stroke:#000000;stroke-linejoin:miter;stroke-opacity:0.8;" x="327.256238" xlink:href="#m4bd449cdee" y="162.177745"/>
     <use style="fill:#ff7f0e;fill-opacity:0.8;stroke:#000000;stroke-linejoin:miter;stroke-opacity:0.8;" x="332.175987" xlink:href="#m4bd449cdee" y="190.62567"/>
     <use style="fill:#ff7f0e;fill-opacity:0.8;stroke:#000000;stroke-linejoin:miter;stroke-opacity:0.8;" x="337.095737" xlink:href="#m4bd449cdee" y="200.462974"/>
     <use style="fill:#ff7f0e;fill-opacity:0.8;stroke:#000000;stroke-linejoin:miter;stroke-opacity:0.8;" x="342.015486" xlink:href="#m4bd449cdee" y="203.288182"/>
     <use style="fill:#ff7f0e;fill-opacity:0.8;stroke:#000000;stroke-linejoin:miter;stroke-opacity:0.8;" x="346.935235" xlink:href="#m4bd449cdee" y="203.288182"/>
     <use style="fill:#ff7f0e;fill-opacity:0.8;stroke:#000000;stroke-linejoin:miter;stroke-opacity:0.8;" x="351.854984" xlink:href="#m4bd449cdee" y="203.288182"/>
     <use style="fill:#ff7f0e;fill-opacity:0.8;stroke:#000000;stroke-linejoin:miter;stroke-opacity:0.8;" x="356.774734" xlink:href="#m4bd449cdee" y="139.114907"/>
     <use style="fill:#ff7f0e;fill-opacity:0.8;stroke:#000000;stroke-linejoin:miter;stroke-opacity:0.8;" x="361.694483" xlink:href="#m4bd449cdee" y="180.372908"/>
     <use style="fill:#ff7f0e;fill-opacity:0.8;stroke:#000000;stroke-linejoin:miter;stroke-opacity:0.8;" x="366.614232" xlink:href="#m4bd449cdee" y="183.659882"/>
     <use style="fill:#ff7f0e;fill-opacity:0.8;stroke:#000000;stroke-linejoin:miter;stroke-opacity:0.8;" x="371.533981" xlink:href="#m4bd449cdee" y="141.211087"/>
     <use style="fill:#ff7f0e;fill-opacity:0.8;stroke:#000000;stroke-linejoin:miter;stroke-opacity:0.8;" x="376.45373" xlink:href="#m4bd449cdee" y="160.595597"/>
     <use style="fill:#ff7f0e;fill-opacity:0.8;stroke:#000000;stroke-linejoin:miter;stroke-opacity:0.8;" x="381.37348" xlink:href="#m4bd449cdee" y="185.988683"/>
     <use style="fill:#ff7f0e;fill-opacity:0.8;stroke:#000000;stroke-linejoin:miter;stroke-opacity:0.8;" x="386.293229" xlink:href="#m4bd449cdee" y="176.869467"/>
     <use style="fill:#ff7f0e;fill-opacity:0.8;stroke:#000000;stroke-linejoin:miter;stroke-opacity:0.8;" x="391.212978" xlink:href="#m4bd449cdee" y="190.611872"/>
     <use style="fill:#ff7f0e;fill-opacity:0.8;stroke:#000000;stroke-linejoin:miter;stroke-opacity:0.8;" x="396.132727" xlink:href="#m4bd449cdee" y="192.653148"/>
    </g>
   </g>
   <g id="line2d_15">
    <path clip-path="url(#pc2e1ca943f)" d="M 110.787273 199.853506 
L 115.707022 200.901187 
L 120.626771 198.80581 
L 125.54652 200.410907 
L 130.46627 199.392122 
L 135.386019 198.996401 
L 140.305768 200.943371 
L 145.225517 199.02051 
L 150.145266 199.056846 
L 155.065016 199.012394 
L 159.984765 199.033116 
L 164.904514 198.032053 
L 169.824263 191.917357 
L 174.744013 198.251554 
L 179.663762 172.200545 
L 184.583511 171.467803 
L 189.50326 191.644026 
L 194.423009 165.589477 
L 199.342759 188.579549 
L 204.262508 187.718849 
L 209.182257 173.673213 
L 214.102006 197.998262 
L 219.021755 198.167301 
L 223.941505 185.104775 
L 228.861254 147.629738 
L 233.781003 154.107084 
L 238.700752 155.407268 
L 243.620502 158.815114 
L 248.540251 144.040715 
L 253.46 131.956627 
L 258.379749 203.288182 
L 263.299498 203.288182 
L 268.219248 203.288182 
L 273.138997 203.288182 
L 278.058746 203.288182 
L 282.978495 203.288182 
L 287.898245 203.288182 
L 292.817994 203.288182 
L 297.737743 203.288182 
L 302.657492 203.288182 
L 307.577241 203.288182 
L 312.496991 148.105035 
L 317.41674 146.453958 
L 322.336489 168.41392 
L 327.256238 162.177745 
L 332.175987 190.62567 
L 337.095737 200.462974 
L 342.015486 203.288182 
L 346.935235 203.288182 
L 351.854984 203.288182 
L 356.774734 139.114907 
L 361.694483 180.372908 
L 366.614232 183.659882 
L 371.533981 141.211087 
L 376.45373 160.595597 
L 381.37348 185.988683 
L 386.293229 176.869467 
L 391.212978 190.611872 
L 396.132727 192.653148 
" style="fill:none;stroke:#ff7f0e;stroke-linecap:round;stroke-width:0.7;"/>
   </g>
   <g id="line2d_16">
    <path clip-path="url(#pc2e1ca943f)" d="M 110.787273 201.417745 
L 115.707022 202.05264 
L 120.626771 200.278704 
L 125.54652 201.974954 
L 130.46627 201.115969 
L 135.386019 200.680469 
L 140.305768 202.386521 
L 145.225517 201.004089 
L 150.145266 200.745666 
L 155.065016 200.462452 
L 159.984765 200.664958 
L 164.904514 200.109613 
L 169.824263 197.51809 
L 174.744013 200.828888 
L 179.663762 184.849908 
L 184.583511 183.284668 
L 189.50326 196.039281 
L 194.423009 186.687245 
L 199.342759 194.346396 
L 204.262508 194.543267 
L 209.182257 188.291026 
L 214.102006 200.941268 
L 219.021755 199.719801 
L 223.941505 187.866674 
L 228.861254 161.934408 
L 233.781003 169.298799 
L 238.700752 166.99673 
L 243.620502 170.126247 
L 248.540251 158.737096 
L 253.46 146.722714 
L 258.379749 203.288182 
L 263.299498 203.288182 
L 268.219248 203.288182 
L 273.138997 203.288182 
L 278.058746 203.288182 
L 282.978495 203.288182 
L 287.898245 203.288182 
L 292.817994 203.288182 
L 297.737743 203.288182 
L 302.657492 203.288182 
L 307.577241 203.288182 
L 312.496991 158.898946 
L 317.41674 158.650955 
L 322.336489 179.530265 
L 327.256238 171.809265 
L 332.175987 193.83327 
L 337.095737 202.04276 
L 342.015486 203.288182 
L 346.935235 203.288182 
L 351.854984 203.288182 
L 356.774734 151.957944 
L 361.694483 187.454004 
L 366.614232 190.721783 
L 371.533981 155.679343 
L 376.45373 174.331182 
L 381.37348 192.474019 
L 386.293229 180.622341 
L 391.212978 197.668777 
L 396.132727 199.143329 
" style="fill:none;stroke:#ff7f0e;stroke-dasharray:1.85,0.8;stroke-dashoffset:0;stroke-width:0.5;"/>
   </g>
   <g id="line2d_17">
    <path clip-path="url(#pc2e1ca943f)" d="M 110.787273 198.289268 
L 115.707022 199.749733 
L 120.626771 197.332917 
L 125.54652 198.84686 
L 130.46627 197.668275 
L 135.386019 197.312333 
L 140.305768 199.500222 
L 145.225517 197.036932 
L 150.145266 197.368026 
L 155.065016 197.562336 
L 159.984765 197.401274 
L 164.904514 195.954493 
L 169.824263 186.316624 
L 174.744013 195.674219 
L 179.663762 159.551182 
L 184.583511 159.650938 
L 189.50326 187.24877 
L 194.423009 144.491709 
L 199.342759 182.812702 
L 204.262508 180.894432 
L 209.182257 159.0554 
L 214.102006 195.055255 
L 219.021755 196.614801 
L 223.941505 182.342875 
L 228.861254 133.325068 
L 233.781003 138.915369 
L 238.700752 143.817807 
L 243.620502 147.503982 
L 248.540251 129.344334 
L 253.46 117.19054 
L 258.379749 203.288182 
L 263.299498 203.288182 
L 268.219248 203.288182 
L 273.138997 203.288182 
L 278.058746 203.288182 
L 282.978495 203.288182 
L 287.898245 203.288182 
L 292.817994 203.288182 
L 297.737743 203.288182 
L 302.657492 203.288182 
L 307.577241 203.288182 
L 312.496991 137.311124 
L 317.41674 134.256962 
L 322.336489 157.297575 
L 327.256238 152.546225 
L 332.175987 187.418071 
L 337.095737 198.883188 
L 342.015486 203.288182 
L 346.935235 203.288182 
L 351.854984 203.288182 
L 356.774734 126.27187 
L 361.694483 173.291813 
L 366.614232 176.597981 
L 371.533981 126.742832 
L 376.45373 146.860012 
L 381.37348 179.503348 
L 386.293229 173.116594 
L 391.212978 183.554968 
L 396.132727 186.162967 
" style="fill:none;stroke:#ff7f0e;stroke-dasharray:1.85,0.8;stroke-dashoffset:0;stroke-width:0.5;"/>
   </g>
   <g id="line2d_18">
    <path clip-path="url(#pc2e1ca943f)" d="M 110.787273 198.50703 
L 115.707022 199.476483 
L 120.626771 199.177765 
L 125.54652 198.884676 
L 130.46627 197.959751 
L 135.386019 196.93253 
L 140.305768 198.081104 
L 145.225517 199.434301 
L 150.145266 199.154005 
L 155.065016 198.914089 
L 159.984765 198.477201 
L 164.904514 198.285043 
L 169.824263 194.870034 
L 174.744013 194.332636 
L 179.663762 113.65851 
L 184.583511 175.732254 
L 189.50326 187.119474 
L 194.423009 74.993769 
L 199.342759 187.779075 
L 204.262508 183.768182 
L 209.182257 112.581333 
L 214.102006 196.055766 
L 219.021755 197.084025 
L 223.941505 182.556979 
L 228.861254 139.900495 
L 233.781003 150.144488 
L 238.700752 157.478604 
L 243.620502 133.171051 
L 248.540251 124.892328 
L 253.46 97.504801 
L 258.379749 203.288182 
L 263.299498 203.288182 
L 268.219248 203.288182 
L 273.138997 203.288182 
L 278.058746 203.288182 
L 282.978495 203.288182 
L 287.898245 203.288182 
L 292.817994 203.288182 
L 297.737743 203.288182 
L 302.657492 203.288182 
L 307.577241 203.288182 
L 312.496991 133.114518 
L 317.41674 156.031973 
L 322.336489 166.380918 
L 327.256238 165.752254 
L 332.175987 189.562944 
L 337.095737 199.332166 
L 342.015486 203.288182 
L 346.935235 203.288182 
L 351.854984 203.288182 
L 356.774734 160.120733 
L 361.694483 171.756496 
L 366.614232 169.279532 
L 371.533981 152.295897 
L 376.45373 175.783127 
L 381.37348 183.594434 
L 386.293229 187.090812 
L 391.212978 177.502845 
L 396.132727 180.307916 
" style="fill:none;stroke:#1f77b4;stroke-linecap:round;stroke-opacity:0.8;stroke-width:0.7;"/>
    <defs>
     <path d="M 0 2.5 
C 0.663008 2.5 1.29895 2.236584 1.767767 1.767767 
C 2.236584 1.29895 2.5 0.663008 2.5 0 
C 2.5 -0.663008 2.236584 -1.29895 1.767767 -1.767767 
C 1.29895 -2.236584 0.663008 -2.5 0 -2.5 
C -0.663008 -2.5 -1.29895 -2.236584 -1.767767 -1.767767 
C -2.236584 -1.29895 -2.5 -0.663008 -2.5 0 
C -2.5 0.663008 -2.236584 1.29895 -1.767767 1.767767 
C -1.29895 2.236584 -0.663008 2.5 0 2.5 
z
" id="m0918ceab88" style="stroke:#000000;stroke-opacity:0.8;"/>
    </defs>
    <g clip-path="url(#pc2e1ca943f)">
     <use style="fill:#1f77b4;fill-opacity:0.8;stroke:#000000;stroke-opacity:0.8;" x="110.787273" xlink:href="#m0918ceab88" y="198.50703"/>
     <use style="fill:#1f77b4;fill-opacity:0.8;stroke:#000000;stroke-opacity:0.8;" x="115.707022" xlink:href="#m0918ceab88" y="199.476483"/>
     <use style="fill:#1f77b4;fill-opacity:0.8;stroke:#000000;stroke-opacity:0.8;" x="120.626771" xlink:href="#m0918ceab88" y="199.177765"/>
     <use style="fill:#1f77b4;fill-opacity:0.8;stroke:#000000;stroke-opacity:0.8;" x="125.54652" xlink:href="#m0918ceab88" y="198.884676"/>
     <use style="fill:#1f77b4;fill-opacity:0.8;stroke:#000000;stroke-opacity:0.8;" x="130.46627" xlink:href="#m0918ceab88" y="197.959751"/>
     <use style="fill:#1f77b4;fill-opacity:0.8;stroke:#000000;stroke-opacity:0.8;" x="135.386019" xlink:href="#m0918ceab88" y="196.93253"/>
     <use style="fill:#1f77b4;fill-opacity:0.8;stroke:#000000;stroke-opacity:0.8;" x="140.305768" xlink:href="#m0918ceab88" y="198.081104"/>
     <use style="fill:#1f77b4;fill-opacity:0.8;stroke:#000000;stroke-opacity:0.8;" x="145.225517" xlink:href="#m0918ceab88" y="199.434301"/>
     <use style="fill:#1f77b4;fill-opacity:0.8;stroke:#000000;stroke-opacity:0.8;" x="150.145266" xlink:href="#m0918ceab88" y="199.154005"/>
     <use style="fill:#1f77b4;fill-opacity:0.8;stroke:#000000;stroke-opacity:0.8;" x="155.065016" xlink:href="#m0918ceab88" y="198.914089"/>
     <use style="fill:#1f77b4;fill-opacity:0.8;stroke:#000000;stroke-opacity:0.8;" x="159.984765" xlink:href="#m0918ceab88" y="198.477201"/>
     <use style="fill:#1f77b4;fill-opacity:0.8;stroke:#000000;stroke-opacity:0.8;" x="164.904514" xlink:href="#m0918ceab88" y="198.285043"/>
     <use style="fill:#1f77b4;fill-opacity:0.8;stroke:#000000;stroke-opacity:0.8;" x="169.824263" xlink:href="#m0918ceab88" y="194.870034"/>
     <use style="fill:#1f77b4;fill-opacity:0.8;stroke:#000000;stroke-opacity:0.8;" x="174.744013" xlink:href="#m0918ceab88" y="194.332636"/>
     <use style="fill:#1f77b4;fill-opacity:0.8;stroke:#000000;stroke-opacity:0.8;" x="179.663762" xlink:href="#m0918ceab88" y="113.65851"/>
     <use style="fill:#1f77b4;fill-opacity:0.8;stroke:#000000;stroke-opacity:0.8;" x="184.583511" xlink:href="#m0918ceab88" y="175.732254"/>
     <use style="fill:#1f77b4;fill-opacity:0.8;stroke:#000000;stroke-opacity:0.8;" x="189.50326" xlink:href="#m0918ceab88" y="187.119474"/>
     <use style="fill:#1f77b4;fill-opacity:0.8;stroke:#000000;stroke-opacity:0.8;" x="194.423009" xlink:href="#m0918ceab88" y="74.993769"/>
     <use style="fill:#1f77b4;fill-opacity:0.8;stroke:#000000;stroke-opacity:0.8;" x="199.342759" xlink:href="#m0918ceab88" y="187.779075"/>
     <use style="fill:#1f77b4;fill-opacity:0.8;stroke:#000000;stroke-opacity:0.8;" x="204.262508" xlink:href="#m0918ceab88" y="183.768182"/>
     <use style="fill:#1f77b4;fill-opacity:0.8;stroke:#000000;stroke-opacity:0.8;" x="209.182257" xlink:href="#m0918ceab88" y="112.581333"/>
     <use style="fill:#1f77b4;fill-opacity:0.8;stroke:#000000;stroke-opacity:0.8;" x="214.102006" xlink:href="#m0918ceab88" y="196.055766"/>
     <use style="fill:#1f77b4;fill-opacity:0.8;stroke:#000000;stroke-opacity:0.8;" x="219.021755" xlink:href="#m0918ceab88" y="197.084025"/>
     <use style="fill:#1f77b4;fill-opacity:0.8;stroke:#000000;stroke-opacity:0.8;" x="223.941505" xlink:href="#m0918ceab88" y="182.556979"/>
     <use style="fill:#1f77b4;fill-opacity:0.8;stroke:#000000;stroke-opacity:0.8;" x="228.861254" xlink:href="#m0918ceab88" y="139.900495"/>
     <use style="fill:#1f77b4;fill-opacity:0.8;stroke:#000000;stroke-opacity:0.8;" x="233.781003" xlink:href="#m0918ceab88" y="150.144488"/>
     <use style="fill:#1f77b4;fill-opacity:0.8;stroke:#000000;stroke-opacity:0.8;" x="238.700752" xlink:href="#m0918ceab88" y="157.478604"/>
     <use style="fill:#1f77b4;fill-opacity:0.8;stroke:#000000;stroke-opacity:0.8;" x="243.620502" xlink:href="#m0918ceab88" y="133.171051"/>
     <use style="fill:#1f77b4;fill-opacity:0.8;stroke:#000000;stroke-opacity:0.8;" x="248.540251" xlink:href="#m0918ceab88" y="124.892328"/>
     <use style="fill:#1f77b4;fill-opacity:0.8;stroke:#000000;stroke-opacity:0.8;" x="253.46" xlink:href="#m0918ceab88" y="97.504801"/>
     <use style="fill:#1f77b4;fill-opacity:0.8;stroke:#000000;stroke-opacity:0.8;" x="258.379749" xlink:href="#m0918ceab88" y="203.288182"/>
     <use style="fill:#1f77b4;fill-opacity:0.8;stroke:#000000;stroke-opacity:0.8;" x="263.299498" xlink:href="#m0918ceab88" y="203.288182"/>
     <use style="fill:#1f77b4;fill-opacity:0.8;stroke:#000000;stroke-opacity:0.8;" x="268.219248" xlink:href="#m0918ceab88" y="203.288182"/>
     <use style="fill:#1f77b4;fill-opacity:0.8;stroke:#000000;stroke-opacity:0.8;" x="273.138997" xlink:href="#m0918ceab88" y="203.288182"/>
     <use style="fill:#1f77b4;fill-opacity:0.8;stroke:#000000;stroke-opacity:0.8;" x="278.058746" xlink:href="#m0918ceab88" y="203.288182"/>
     <use style="fill:#1f77b4;fill-opacity:0.8;stroke:#000000;stroke-opacity:0.8;" x="282.978495" xlink:href="#m0918ceab88" y="203.288182"/>
     <use style="fill:#1f77b4;fill-opacity:0.8;stroke:#000000;stroke-opacity:0.8;" x="287.898245" xlink:href="#m0918ceab88" y="203.288182"/>
     <use style="fill:#1f77b4;fill-opacity:0.8;stroke:#000000;stroke-opacity:0.8;" x="292.817994" xlink:href="#m0918ceab88" y="203.288182"/>
     <use style="fill:#1f77b4;fill-opacity:0.8;stroke:#000000;stroke-opacity:0.8;" x="297.737743" xlink:href="#m0918ceab88" y="203.288182"/>
     <use style="fill:#1f77b4;fill-opacity:0.8;stroke:#000000;stroke-opacity:0.8;" x="302.657492" xlink:href="#m0918ceab88" y="203.288182"/>
     <use style="fill:#1f77b4;fill-opacity:0.8;stroke:#000000;stroke-opacity:0.8;" x="307.577241" xlink:href="#m0918ceab88" y="203.288182"/>
     <use style="fill:#1f77b4;fill-opacity:0.8;stroke:#000000;stroke-opacity:0.8;" x="312.496991" xlink:href="#m0918ceab88" y="133.114518"/>
     <use style="fill:#1f77b4;fill-opacity:0.8;stroke:#000000;stroke-opacity:0.8;" x="317.41674" xlink:href="#m0918ceab88" y="156.031973"/>
     <use style="fill:#1f77b4;fill-opacity:0.8;stroke:#000000;stroke-opacity:0.8;" x="322.336489" xlink:href="#m0918ceab88" y="166.380918"/>
     <use style="fill:#1f77b4;fill-opacity:0.8;stroke:#000000;stroke-opacity:0.8;" x="327.256238" xlink:href="#m0918ceab88" y="165.752254"/>
     <use style="fill:#1f77b4;fill-opacity:0.8;stroke:#000000;stroke-opacity:0.8;" x="332.175987" xlink:href="#m0918ceab88" y="189.562944"/>
     <use style="fill:#1f77b4;fill-opacity:0.8;stroke:#000000;stroke-opacity:0.8;" x="337.095737" xlink:href="#m0918ceab88" y="199.332166"/>
     <use style="fill:#1f77b4;fill-opacity:0.8;stroke:#000000;stroke-opacity:0.8;" x="342.015486" xlink:href="#m0918ceab88" y="203.288182"/>
     <use style="fill:#1f77b4;fill-opacity:0.8;stroke:#000000;stroke-opacity:0.8;" x="346.935235" xlink:href="#m0918ceab88" y="203.288182"/>
     <use style="fill:#1f77b4;fill-opacity:0.8;stroke:#000000;stroke-opacity:0.8;" x="351.854984" xlink:href="#m0918ceab88" y="203.288182"/>
     <use style="fill:#1f77b4;fill-opacity:0.8;stroke:#000000;stroke-opacity:0.8;" x="356.774734" xlink:href="#m0918ceab88" y="160.120733"/>
     <use style="fill:#1f77b4;fill-opacity:0.8;stroke:#000000;stroke-opacity:0.8;" x="361.694483" xlink:href="#m0918ceab88" y="171.756496"/>
     <use style="fill:#1f77b4;fill-opacity:0.8;stroke:#000000;stroke-opacity:0.8;" x="366.614232" xlink:href="#m0918ceab88" y="169.279532"/>
     <use style="fill:#1f77b4;fill-opacity:0.8;stroke:#000000;stroke-opacity:0.8;" x="371.533981" xlink:href="#m0918ceab88" y="152.295897"/>
     <use style="fill:#1f77b4;fill-opacity:0.8;stroke:#000000;stroke-opacity:0.8;" x="376.45373" xlink:href="#m0918ceab88" y="175.783127"/>
     <use style="fill:#1f77b4;fill-opacity:0.8;stroke:#000000;stroke-opacity:0.8;" x="381.37348" xlink:href="#m0918ceab88" y="183.594434"/>
     <use style="fill:#1f77b4;fill-opacity:0.8;stroke:#000000;stroke-opacity:0.8;" x="386.293229" xlink:href="#m0918ceab88" y="187.090812"/>
     <use style="fill:#1f77b4;fill-opacity:0.8;stroke:#000000;stroke-opacity:0.8;" x="391.212978" xlink:href="#m0918ceab88" y="177.502845"/>
     <use style="fill:#1f77b4;fill-opacity:0.8;stroke:#000000;stroke-opacity:0.8;" x="396.132727" xlink:href="#m0918ceab88" y="180.307916"/>
    </g>
   </g>
   <g id="line2d_19">
    <path clip-path="url(#pc2e1ca943f)" d="M 110.787273 198.50703 
L 115.707022 199.476483 
L 120.626771 199.177765 
L 125.54652 198.884676 
L 130.46627 197.959751 
L 135.386019 196.93253 
L 140.305768 198.081104 
L 145.225517 199.434301 
L 150.145266 199.154005 
L 155.065016 198.914089 
L 159.984765 198.477201 
L 164.904514 198.285043 
L 169.824263 194.870034 
L 174.744013 194.332636 
L 179.663762 113.65851 
L 184.583511 175.732254 
L 189.50326 187.119474 
L 194.423009 74.993769 
L 199.342759 187.779075 
L 204.262508 183.768182 
L 209.182257 112.581333 
L 214.102006 196.055766 
L 219.021755 197.084025 
L 223.941505 182.556979 
L 228.861254 139.900495 
L 233.781003 150.144488 
L 238.700752 157.478604 
L 243.620502 133.171051 
L 248.540251 124.892328 
L 253.46 97.504801 
L 258.379749 203.288182 
L 263.299498 203.288182 
L 268.219248 203.288182 
L 273.138997 203.288182 
L 278.058746 203.288182 
L 282.978495 203.288182 
L 287.898245 203.288182 
L 292.817994 203.288182 
L 297.737743 203.288182 
L 302.657492 203.288182 
L 307.577241 203.288182 
L 312.496991 133.114518 
L 317.41674 156.031973 
L 322.336489 166.380918 
L 327.256238 165.752254 
L 332.175987 189.562944 
L 337.095737 199.332166 
L 342.015486 203.288182 
L 346.935235 203.288182 
L 351.854984 203.288182 
L 356.774734 160.120733 
L 361.694483 171.756496 
L 366.614232 169.279532 
L 371.533981 152.295897 
L 376.45373 175.783127 
L 381.37348 183.594434 
L 386.293229 187.090812 
L 391.212978 177.502845 
L 396.132727 180.307916 
" style="fill:none;stroke:#1f77b4;stroke-linecap:round;stroke-width:0.7;"/>
   </g>
   <g id="line2d_20">
    <path clip-path="url(#pc2e1ca943f)" d="M 110.787273 200.946778 
L 115.707022 201.570722 
L 120.626771 200.976803 
L 125.54652 201.255531 
L 130.46627 200.073377 
L 135.386019 199.399181 
L 140.305768 200.407572 
L 145.225517 201.321428 
L 150.145266 201.249307 
L 155.065016 201.154575 
L 159.984765 200.496655 
L 164.904514 200.534614 
L 169.824263 199.069961 
L 174.744013 199.921154 
L 179.663762 150.551249 
L 184.583511 188.355682 
L 189.50326 191.735182 
L 194.423009 119.735719 
L 199.342759 191.690516 
L 204.262508 192.847764 
L 209.182257 144.814112 
L 214.102006 199.713882 
L 219.021755 199.369869 
L 223.941505 185.474947 
L 228.861254 159.097186 
L 233.781003 166.695658 
L 238.700752 171.597299 
L 243.620502 148.226528 
L 248.540251 142.957984 
L 253.46 119.523662 
L 258.379749 203.288182 
L 263.299498 203.288182 
L 268.219248 203.288182 
L 273.138997 203.288182 
L 278.058746 203.288182 
L 282.978495 203.288182 
L 287.898245 203.288182 
L 292.817994 203.288182 
L 297.737743 203.288182 
L 302.657492 203.288182 
L 307.577241 203.288182 
L 312.496991 150.053145 
L 317.41674 168.560996 
L 322.336489 181.572945 
L 327.256238 176.79943 
L 332.175987 193.387602 
L 337.095737 201.18766 
L 342.015486 203.288182 
L 346.935235 203.288182 
L 351.854984 203.288182 
L 356.774734 171.23426 
L 361.694483 190.529766 
L 366.614232 191.924918 
L 371.533981 161.794819 
L 376.45373 181.332113 
L 381.37348 195.246957 
L 386.293229 192.167494 
L 391.212978 197.002542 
L 396.132727 197.999488 
" style="fill:none;stroke:#1f77b4;stroke-dasharray:1.85,0.8;stroke-dashoffset:0;stroke-width:0.5;"/>
   </g>
   <g id="line2d_21">
    <path clip-path="url(#pc2e1ca943f)" d="M 110.787273 196.067283 
L 115.707022 197.382244 
L 120.626771 197.378728 
L 125.54652 196.51382 
L 130.46627 195.846125 
L 135.386019 194.465878 
L 140.305768 195.754636 
L 145.225517 197.547175 
L 150.145266 197.058703 
L 155.065016 196.673602 
L 159.984765 196.457746 
L 164.904514 196.035471 
L 169.824263 190.670108 
L 174.744013 188.744117 
L 179.663762 76.765771 
L 184.583511 163.108825 
L 189.50326 182.503767 
L 194.423009 30.251818 
L 199.342759 183.867635 
L 204.262508 174.688599 
L 209.182257 80.348554 
L 214.102006 192.39765 
L 219.021755 194.798182 
L 223.941505 179.639012 
L 228.861254 120.703804 
L 233.781003 133.593319 
L 238.700752 143.359908 
L 243.620502 118.115574 
L 248.540251 106.826672 
L 253.46 75.48594 
L 258.379749 203.288182 
L 263.299498 203.288182 
L 268.219248 203.288182 
L 273.138997 203.288182 
L 278.058746 203.288182 
L 282.978495 203.288182 
L 287.898245 203.288182 
L 292.817994 203.288182 
L 297.737743 203.288182 
L 302.657492 203.288182 
L 307.577241 203.288182 
L 312.496991 116.175892 
L 317.41674 143.50295 
L 322.336489 151.18889 
L 327.256238 154.705078 
L 332.175987 185.738286 
L 337.095737 197.476672 
L 342.015486 203.288182 
L 346.935235 203.288182 
L 351.854984 203.288182 
L 356.774734 149.007206 
L 361.694483 152.983226 
L 366.614232 146.634146 
L 371.533981 142.796975 
L 376.45373 170.234142 
L 381.37348 171.941911 
L 386.293229 182.014131 
L 391.212978 158.003148 
L 396.132727 162.616343 
" style="fill:none;stroke:#1f77b4;stroke-dasharray:1.85,0.8;stroke-dashoffset:0;stroke-width:0.5;"/>
   </g>
   <g id="patch_3">
    <path d="M 96.52 211.94 
L 96.52 21.6 
" style="fill:none;stroke:#cccccc;stroke-linecap:square;stroke-linejoin:miter;stroke-width:0.8;"/>
   </g>
   <g id="patch_4">
    <path d="M 96.52 211.94 
L 410.4 211.94 
" style="fill:none;stroke:#cccccc;stroke-linecap:square;stroke-linejoin:miter;stroke-width:0.8;"/>
   </g>
   <g id="legend_1">
    <g id="patch_5">
     <path d="M 110.52 123.146875 
L 283.460625 123.146875 
Q 287.460625 123.146875 287.460625 119.146875 
L 287.460625 35.6 
Q 287.460625 31.6 283.460625 31.6 
L 110.52 31.6 
Q 106.52 31.6 106.52 35.6 
L 106.52 119.146875 
Q 106.52 123.146875 110.52 123.146875 
z
" style="fill:#ffffff;opacity:0.8;stroke:#cccccc;stroke-linejoin:miter;"/>
    </g>
    <g id="line2d_22">
     <path d="M 114.52 46.946875 
L 154.52 46.946875 
" style="fill:none;stroke:#808080;stroke-linecap:round;stroke-opacity:0.8;stroke-width:0.7;"/>
    </g>
    <g id="line2d_23">
     <g>
      <use style="fill:#808080;fill-opacity:0.8;stroke:#000000;stroke-linejoin:miter;stroke-opacity:0.8;" x="134.52" xlink:href="#mf6a02cbfcd" y="46.946875"/>
     </g>
    </g>
    <g id="text_12">
     <!-- Random -->
     <g style="fill:#262626;" transform="translate(170.52 53.946875)scale(0.2 -0.2)">
      <defs>
       <path d="M 2622 2488 
Q 3059 2488 3314 2663 
Q 3569 2838 3569 3294 
Q 3569 3784 3213 3963 
Q 3022 4056 2703 4056 
L 1184 4056 
L 1184 2488 
L 2622 2488 
z
M 563 4591 
L 2688 4591 
Q 3213 4591 3553 4438 
Q 4200 4144 4200 3353 
Q 4200 2941 4029 2678 
Q 3859 2416 3553 2256 
Q 3822 2147 3958 1969 
Q 4094 1791 4109 1391 
L 4131 775 
Q 4141 513 4175 384 
Q 4231 166 4375 103 
L 4375 0 
L 3613 0 
Q 3581 59 3562 153 
Q 3544 247 3531 516 
L 3494 1281 
Q 3472 1731 3159 1884 
Q 2981 1969 2600 1969 
L 1184 1969 
L 1184 0 
L 563 0 
L 563 4591 
z
" id="Helvetica-52" transform="scale(0.015625)"/>
      </defs>
      <use xlink:href="#Helvetica-52"/>
      <use x="72.216797" xlink:href="#Helvetica-61"/>
      <use x="127.832031" xlink:href="#Helvetica-6e"/>
      <use x="183.447266" xlink:href="#Helvetica-64"/>
      <use x="239.0625" xlink:href="#Helvetica-6f"/>
      <use x="294.677734" xlink:href="#Helvetica-6d"/>
     </g>
    </g>
    <g id="line2d_24">
     <path d="M 114.52 75.4625 
L 154.52 75.4625 
" style="fill:none;stroke:#ff7f0e;stroke-linecap:round;stroke-opacity:0.8;stroke-width:0.7;"/>
    </g>
    <g id="line2d_25">
     <g>
      <use style="fill:#ff7f0e;fill-opacity:0.8;stroke:#000000;stroke-linejoin:miter;stroke-opacity:0.8;" x="134.52" xlink:href="#m4bd449cdee" y="75.4625"/>
     </g>
    </g>
    <g id="text_13">
     <!-- Bottom 10% -->
     <g style="fill:#262626;" transform="translate(170.52 82.4625)scale(0.2 -0.2)">
      <defs>
       <path d="M 2213 2650 
Q 2606 2650 2825 2759 
Q 3169 2931 3169 3378 
Q 3169 3828 2803 3984 
Q 2597 4072 2191 4072 
L 1081 4072 
L 1081 2650 
L 2213 2650 
z
M 2422 531 
Q 2994 531 3238 863 
Q 3391 1072 3391 1369 
Q 3391 1869 2944 2050 
Q 2706 2147 2316 2147 
L 1081 2147 
L 1081 531 
L 2422 531 
z
M 472 4591 
L 2444 4591 
Q 3250 4591 3591 4109 
Q 3791 3825 3791 3453 
Q 3791 3019 3544 2741 
Q 3416 2594 3175 2472 
Q 3528 2338 3703 2169 
Q 4013 1869 4013 1341 
Q 4013 897 3734 538 
Q 3319 0 2413 0 
L 472 0 
L 472 4591 
z
" id="Helvetica-42" transform="scale(0.015625)"/>
       <path d="M 4363 2175 
Q 4813 2175 5131 1856 
Q 5450 1538 5450 1088 
Q 5450 638 5131 319 
Q 4813 0 4363 0 
Q 3909 0 3590 319 
Q 3272 638 3272 1088 
Q 3272 1538 3590 1856 
Q 3909 2175 4363 2175 
z
M 3909 4456 
L 4256 4456 
L 1753 -119 
L 1406 -119 
L 3909 4456 
z
M 1294 2606 
Q 1563 2606 1752 2795 
Q 1941 2984 1941 3250 
Q 1941 3516 1752 3705 
Q 1563 3894 1294 3894 
Q 1028 3894 839 3706 
Q 650 3519 650 3250 
Q 650 2984 839 2795 
Q 1028 2606 1294 2606 
z
M 1294 4341 
Q 1747 4341 2065 4020 
Q 2384 3700 2384 3250 
Q 2384 2800 2065 2481 
Q 1747 2163 1294 2163 
Q 844 2163 525 2481 
Q 206 2800 206 3250 
Q 206 3700 525 4020 
Q 844 4341 1294 4341 
z
M 4363 444 
Q 4628 444 4817 633 
Q 5006 822 5006 1088 
Q 5006 1353 4817 1542 
Q 4628 1731 4363 1731 
Q 4094 1731 3905 1542 
Q 3716 1353 3716 1088 
Q 3716 822 3905 633 
Q 4094 444 4363 444 
z
" id="Helvetica-25" transform="scale(0.015625)"/>
      </defs>
      <use xlink:href="#Helvetica-42"/>
      <use x="66.699219" xlink:href="#Helvetica-6f"/>
      <use x="122.314453" xlink:href="#Helvetica-74"/>
      <use x="150.097656" xlink:href="#Helvetica-74"/>
      <use x="177.880859" xlink:href="#Helvetica-6f"/>
      <use x="233.496094" xlink:href="#Helvetica-6d"/>
      <use x="316.796875" xlink:href="#Helvetica-20"/>
      <use x="344.580078" xlink:href="#Helvetica-31"/>
      <use x="400.195312" xlink:href="#Helvetica-30"/>
      <use x="455.810547" xlink:href="#Helvetica-25"/>
     </g>
    </g>
    <g id="line2d_26">
     <path d="M 114.52 103.978125 
L 154.52 103.978125 
" style="fill:none;stroke:#1f77b4;stroke-linecap:round;stroke-opacity:0.8;stroke-width:0.7;"/>
    </g>
    <g id="line2d_27">
     <g>
      <use style="fill:#1f77b4;fill-opacity:0.8;stroke:#000000;stroke-opacity:0.8;" x="134.52" xlink:href="#m0918ceab88" y="103.978125"/>
     </g>
    </g>
    <g id="text_14">
     <!-- Top 10% -->
     <g style="fill:#262626;" transform="translate(170.52 110.978125)scale(0.2 -0.2)">
      <defs>
       <path d="M 3828 4591 
L 3828 4044 
L 2281 4044 
L 2281 0 
L 1650 0 
L 1650 4044 
L 103 4044 
L 103 4591 
L 3828 4591 
z
" id="Helvetica-54" transform="scale(0.015625)"/>
       <path d="M 1825 378 
Q 2219 378 2480 708 
Q 2741 1038 2741 1694 
Q 2741 2094 2625 2381 
Q 2406 2934 1825 2934 
Q 1241 2934 1025 2350 
Q 909 2038 909 1556 
Q 909 1169 1025 897 
Q 1244 378 1825 378 
z
M 369 3331 
L 916 3331 
L 916 2888 
Q 1084 3116 1284 3241 
Q 1569 3428 1953 3428 
Q 2522 3428 2919 2992 
Q 3316 2556 3316 1747 
Q 3316 653 2744 184 
Q 2381 -113 1900 -113 
Q 1522 -113 1266 53 
Q 1116 147 931 375 
L 931 -1334 
L 369 -1334 
L 369 3331 
z
" id="Helvetica-70" transform="scale(0.015625)"/>
      </defs>
      <use xlink:href="#Helvetica-54"/>
      <use x="61.083984" xlink:href="#Helvetica-6f"/>
      <use x="116.699219" xlink:href="#Helvetica-70"/>
      <use x="172.314453" xlink:href="#Helvetica-20"/>
      <use x="200.097656" xlink:href="#Helvetica-31"/>
      <use x="255.712891" xlink:href="#Helvetica-30"/>
      <use x="311.328125" xlink:href="#Helvetica-25"/>
     </g>
    </g>
   </g>
  </g>
 </g>
 <defs>
  <clipPath id="pc2e1ca943f">
   <rect height="190.34" width="313.88" x="96.52" y="21.6"/>
  </clipPath>
 </defs>
</svg>
