<?xml version="1.0" encoding="utf-8" standalone="no"?>
<!DOCTYPE svg PUBLIC "-//W3C//DTD SVG 1.1//EN"
  "http://www.w3.org/Graphics/SVG/1.1/DTD/svg11.dtd">
<svg height="144pt" version="1.1" viewBox="0 0 144 144" width="144pt" xmlns="http://www.w3.org/2000/svg" xmlns:xlink="http://www.w3.org/1999/xlink">
 <metadata>
  <rdf:RDF xmlns:cc="http://creativecommons.org/ns#" xmlns:dc="http://purl.org/dc/elements/1.1/" xmlns:rdf="http://www.w3.org/1999/02/22-rdf-syntax-ns#">
   <cc:Work>
    <dc:type rdf:resource="http://purl.org/dc/dcmitype/StillImage"/>
    <dc:date>2023-01-22T01:49:34.257276</dc:date>
    <dc:format>image/svg+xml</dc:format>
    <dc:creator>
     <cc:Agent>
      <dc:title>Matplotlib v3.4.2, https://matplotlib.org/</dc:title>
     </cc:Agent>
    </dc:creator>
   </cc:Work>
  </rdf:RDF>
 </metadata>
 <defs>
  <style type="text/css">*{stroke-linecap:butt;stroke-linejoin:round;}</style>
 </defs>
 <g id="figure_1">
  <g id="patch_1">
   <path d="M 0 144 
L 144 144 
L 144 0 
L 0 0 
z
" style="fill:#ffffff;"/>
  </g>
  <g id="axes_1">
   <g id="patch_2">
    <path d="M 18 128.16 
L 129.6 128.16 
L 129.6 17.28 
L 18 17.28 
z
" style="fill:#ffffff;"/>
   </g>
   <g id="matplotlib.axis_1">
    <g id="xtick_1">
     <g id="text_1">
      <!-- Original -->
      <g style="fill:#262626;" transform="translate(41.78125 204.0725)rotate(-90)scale(0.2 -0.2)">
       <defs>
        <path d="M 309 2231 
Q 309 3372 921 4017 
Q 1534 4663 2503 4663 
Q 3138 4663 3647 4359 
Q 4156 4056 4423 3514 
Q 4691 2972 4691 2284 
Q 4691 1588 4409 1038 
Q 4128 488 3612 205 
Q 3097 -78 2500 -78 
Q 1853 -78 1343 234 
Q 834 547 571 1087 
Q 309 1628 309 2231 
z
M 934 2222 
Q 934 1394 1379 917 
Q 1825 441 2497 441 
Q 3181 441 3623 922 
Q 4066 1403 4066 2288 
Q 4066 2847 3877 3264 
Q 3688 3681 3323 3911 
Q 2959 4141 2506 4141 
Q 1863 4141 1398 3698 
Q 934 3256 934 2222 
z
" id="ArialMT-4f" transform="scale(0.015625)"/>
        <path d="M 416 0 
L 416 3319 
L 922 3319 
L 922 2816 
Q 1116 3169 1280 3281 
Q 1444 3394 1641 3394 
Q 1925 3394 2219 3213 
L 2025 2691 
Q 1819 2813 1613 2813 
Q 1428 2813 1281 2702 
Q 1134 2591 1072 2394 
Q 978 2094 978 1738 
L 978 0 
L 416 0 
z
" id="ArialMT-72" transform="scale(0.015625)"/>
        <path d="M 425 3934 
L 425 4581 
L 988 4581 
L 988 3934 
L 425 3934 
z
M 425 0 
L 425 3319 
L 988 3319 
L 988 0 
L 425 0 
z
" id="ArialMT-69" transform="scale(0.015625)"/>
        <path d="M 319 -275 
L 866 -356 
Q 900 -609 1056 -725 
Q 1266 -881 1628 -881 
Q 2019 -881 2231 -725 
Q 2444 -569 2519 -288 
Q 2563 -116 2559 434 
Q 2191 0 1641 0 
Q 956 0 581 494 
Q 206 988 206 1678 
Q 206 2153 378 2554 
Q 550 2956 876 3175 
Q 1203 3394 1644 3394 
Q 2231 3394 2613 2919 
L 2613 3319 
L 3131 3319 
L 3131 450 
Q 3131 -325 2973 -648 
Q 2816 -972 2473 -1159 
Q 2131 -1347 1631 -1347 
Q 1038 -1347 672 -1080 
Q 306 -813 319 -275 
z
M 784 1719 
Q 784 1066 1043 766 
Q 1303 466 1694 466 
Q 2081 466 2343 764 
Q 2606 1063 2606 1700 
Q 2606 2309 2336 2618 
Q 2066 2928 1684 2928 
Q 1309 2928 1046 2623 
Q 784 2319 784 1719 
z
" id="ArialMT-67" transform="scale(0.015625)"/>
        <path d="M 422 0 
L 422 3319 
L 928 3319 
L 928 2847 
Q 1294 3394 1984 3394 
Q 2284 3394 2536 3286 
Q 2788 3178 2913 3003 
Q 3038 2828 3088 2588 
Q 3119 2431 3119 2041 
L 3119 0 
L 2556 0 
L 2556 2019 
Q 2556 2363 2490 2533 
Q 2425 2703 2258 2804 
Q 2091 2906 1866 2906 
Q 1506 2906 1245 2678 
Q 984 2450 984 1813 
L 984 0 
L 422 0 
z
" id="ArialMT-6e" transform="scale(0.015625)"/>
        <path d="M 2588 409 
Q 2275 144 1986 34 
Q 1697 -75 1366 -75 
Q 819 -75 525 192 
Q 231 459 231 875 
Q 231 1119 342 1320 
Q 453 1522 633 1644 
Q 813 1766 1038 1828 
Q 1203 1872 1538 1913 
Q 2219 1994 2541 2106 
Q 2544 2222 2544 2253 
Q 2544 2597 2384 2738 
Q 2169 2928 1744 2928 
Q 1347 2928 1158 2789 
Q 969 2650 878 2297 
L 328 2372 
Q 403 2725 575 2942 
Q 747 3159 1072 3276 
Q 1397 3394 1825 3394 
Q 2250 3394 2515 3294 
Q 2781 3194 2906 3042 
Q 3031 2891 3081 2659 
Q 3109 2516 3109 2141 
L 3109 1391 
Q 3109 606 3145 398 
Q 3181 191 3288 0 
L 2700 0 
Q 2613 175 2588 409 
z
M 2541 1666 
Q 2234 1541 1622 1453 
Q 1275 1403 1131 1340 
Q 988 1278 909 1158 
Q 831 1038 831 891 
Q 831 666 1001 516 
Q 1172 366 1500 366 
Q 1825 366 2078 508 
Q 2331 650 2450 897 
Q 2541 1088 2541 1459 
L 2541 1666 
z
" id="ArialMT-61" transform="scale(0.015625)"/>
        <path d="M 409 0 
L 409 4581 
L 972 4581 
L 972 0 
L 409 0 
z
" id="ArialMT-6c" transform="scale(0.015625)"/>
       </defs>
       <use xlink:href="#ArialMT-4f"/>
       <use x="77.783203" xlink:href="#ArialMT-72"/>
       <use x="111.083984" xlink:href="#ArialMT-69"/>
       <use x="133.300781" xlink:href="#ArialMT-67"/>
       <use x="188.916016" xlink:href="#ArialMT-69"/>
       <use x="211.132812" xlink:href="#ArialMT-6e"/>
       <use x="266.748047" xlink:href="#ArialMT-61"/>
       <use x="322.363281" xlink:href="#ArialMT-6c"/>
      </g>
     </g>
    </g>
    <g id="xtick_2">
     <g id="text_2">
      <!-- Mutated -->
      <g style="fill:#262626;" transform="translate(78.970312 207.419375)rotate(-90)scale(0.2 -0.2)">
       <defs>
        <path d="M 475 0 
L 475 4581 
L 1388 4581 
L 2472 1338 
Q 2622 884 2691 659 
Q 2769 909 2934 1394 
L 4031 4581 
L 4847 4581 
L 4847 0 
L 4263 0 
L 4263 3834 
L 2931 0 
L 2384 0 
L 1059 3900 
L 1059 0 
L 475 0 
z
" id="ArialMT-4d" transform="scale(0.015625)"/>
        <path d="M 2597 0 
L 2597 488 
Q 2209 -75 1544 -75 
Q 1250 -75 995 37 
Q 741 150 617 320 
Q 494 491 444 738 
Q 409 903 409 1263 
L 409 3319 
L 972 3319 
L 972 1478 
Q 972 1038 1006 884 
Q 1059 663 1231 536 
Q 1403 409 1656 409 
Q 1909 409 2131 539 
Q 2353 669 2445 892 
Q 2538 1116 2538 1541 
L 2538 3319 
L 3100 3319 
L 3100 0 
L 2597 0 
z
" id="ArialMT-75" transform="scale(0.015625)"/>
        <path d="M 1650 503 
L 1731 6 
Q 1494 -44 1306 -44 
Q 1000 -44 831 53 
Q 663 150 594 308 
Q 525 466 525 972 
L 525 2881 
L 113 2881 
L 113 3319 
L 525 3319 
L 525 4141 
L 1084 4478 
L 1084 3319 
L 1650 3319 
L 1650 2881 
L 1084 2881 
L 1084 941 
Q 1084 700 1114 631 
Q 1144 563 1211 522 
Q 1278 481 1403 481 
Q 1497 481 1650 503 
z
" id="ArialMT-74" transform="scale(0.015625)"/>
        <path d="M 2694 1069 
L 3275 997 
Q 3138 488 2766 206 
Q 2394 -75 1816 -75 
Q 1088 -75 661 373 
Q 234 822 234 1631 
Q 234 2469 665 2931 
Q 1097 3394 1784 3394 
Q 2450 3394 2872 2941 
Q 3294 2488 3294 1666 
Q 3294 1616 3291 1516 
L 816 1516 
Q 847 969 1125 678 
Q 1403 388 1819 388 
Q 2128 388 2347 550 
Q 2566 713 2694 1069 
z
M 847 1978 
L 2700 1978 
Q 2663 2397 2488 2606 
Q 2219 2931 1791 2931 
Q 1403 2931 1139 2672 
Q 875 2413 847 1978 
z
" id="ArialMT-65" transform="scale(0.015625)"/>
        <path d="M 2575 0 
L 2575 419 
Q 2259 -75 1647 -75 
Q 1250 -75 917 144 
Q 584 363 401 755 
Q 219 1147 219 1656 
Q 219 2153 384 2558 
Q 550 2963 881 3178 
Q 1213 3394 1622 3394 
Q 1922 3394 2156 3267 
Q 2391 3141 2538 2938 
L 2538 4581 
L 3097 4581 
L 3097 0 
L 2575 0 
z
M 797 1656 
Q 797 1019 1065 703 
Q 1334 388 1700 388 
Q 2069 388 2326 689 
Q 2584 991 2584 1609 
Q 2584 2291 2321 2609 
Q 2059 2928 1675 2928 
Q 1300 2928 1048 2622 
Q 797 2316 797 1656 
z
" id="ArialMT-64" transform="scale(0.015625)"/>
       </defs>
       <use xlink:href="#ArialMT-4d"/>
       <use x="83.300781" xlink:href="#ArialMT-75"/>
       <use x="138.916016" xlink:href="#ArialMT-74"/>
       <use x="166.699219" xlink:href="#ArialMT-61"/>
       <use x="222.314453" xlink:href="#ArialMT-74"/>
       <use x="250.097656" xlink:href="#ArialMT-65"/>
       <use x="305.712891" xlink:href="#ArialMT-64"/>
      </g>
     </g>
    </g>
    <g id="xtick_3">
     <g id="text_3">
      <!-- STORM -->
      <g style="fill:#262626;" transform="translate(116.170312 207.025625)rotate(-90)scale(0.2 -0.2)">
       <defs>
        <path d="M 288 1472 
L 859 1522 
Q 900 1178 1048 958 
Q 1197 738 1509 602 
Q 1822 466 2213 466 
Q 2559 466 2825 569 
Q 3091 672 3220 851 
Q 3350 1031 3350 1244 
Q 3350 1459 3225 1620 
Q 3100 1781 2813 1891 
Q 2628 1963 1997 2114 
Q 1366 2266 1113 2400 
Q 784 2572 623 2826 
Q 463 3081 463 3397 
Q 463 3744 659 4045 
Q 856 4347 1234 4503 
Q 1613 4659 2075 4659 
Q 2584 4659 2973 4495 
Q 3363 4331 3572 4012 
Q 3781 3694 3797 3291 
L 3216 3247 
Q 3169 3681 2898 3903 
Q 2628 4125 2100 4125 
Q 1550 4125 1298 3923 
Q 1047 3722 1047 3438 
Q 1047 3191 1225 3031 
Q 1400 2872 2139 2705 
Q 2878 2538 3153 2413 
Q 3553 2228 3743 1945 
Q 3934 1663 3934 1294 
Q 3934 928 3725 604 
Q 3516 281 3123 101 
Q 2731 -78 2241 -78 
Q 1619 -78 1198 103 
Q 778 284 539 648 
Q 300 1013 288 1472 
z
" id="ArialMT-53" transform="scale(0.015625)"/>
        <path d="M 1659 0 
L 1659 4041 
L 150 4041 
L 150 4581 
L 3781 4581 
L 3781 4041 
L 2266 4041 
L 2266 0 
L 1659 0 
z
" id="ArialMT-54" transform="scale(0.015625)"/>
        <path d="M 503 0 
L 503 4581 
L 2534 4581 
Q 3147 4581 3465 4457 
Q 3784 4334 3975 4021 
Q 4166 3709 4166 3331 
Q 4166 2844 3850 2509 
Q 3534 2175 2875 2084 
Q 3116 1969 3241 1856 
Q 3506 1613 3744 1247 
L 4541 0 
L 3778 0 
L 3172 953 
Q 2906 1366 2734 1584 
Q 2563 1803 2427 1890 
Q 2291 1978 2150 2013 
Q 2047 2034 1813 2034 
L 1109 2034 
L 1109 0 
L 503 0 
z
M 1109 2559 
L 2413 2559 
Q 2828 2559 3062 2645 
Q 3297 2731 3419 2920 
Q 3541 3109 3541 3331 
Q 3541 3656 3305 3865 
Q 3069 4075 2559 4075 
L 1109 4075 
L 1109 2559 
z
" id="ArialMT-52" transform="scale(0.015625)"/>
       </defs>
       <use xlink:href="#ArialMT-53"/>
       <use x="66.699219" xlink:href="#ArialMT-54"/>
       <use x="126.033203" xlink:href="#ArialMT-4f"/>
       <use x="203.816406" xlink:href="#ArialMT-52"/>
       <use x="276.033203" xlink:href="#ArialMT-4d"/>
      </g>
     </g>
    </g>
    <g id="text_4">
     <!-- Method -->
     <g style="fill:#262626;" transform="translate(40.448437 225.735)scale(0.2 -0.2)">
      <defs>
       <path d="M 422 0 
L 422 4581 
L 984 4581 
L 984 2938 
Q 1378 3394 1978 3394 
Q 2347 3394 2619 3248 
Q 2891 3103 3008 2847 
Q 3125 2591 3125 2103 
L 3125 0 
L 2563 0 
L 2563 2103 
Q 2563 2525 2380 2717 
Q 2197 2909 1863 2909 
Q 1613 2909 1392 2779 
Q 1172 2650 1078 2428 
Q 984 2206 984 1816 
L 984 0 
L 422 0 
z
" id="ArialMT-68" transform="scale(0.015625)"/>
       <path d="M 213 1659 
Q 213 2581 725 3025 
Q 1153 3394 1769 3394 
Q 2453 3394 2887 2945 
Q 3322 2497 3322 1706 
Q 3322 1066 3130 698 
Q 2938 331 2570 128 
Q 2203 -75 1769 -75 
Q 1072 -75 642 372 
Q 213 819 213 1659 
z
M 791 1659 
Q 791 1022 1069 705 
Q 1347 388 1769 388 
Q 2188 388 2466 706 
Q 2744 1025 2744 1678 
Q 2744 2294 2464 2611 
Q 2184 2928 1769 2928 
Q 1347 2928 1069 2612 
Q 791 2297 791 1659 
z
" id="ArialMT-6f" transform="scale(0.015625)"/>
      </defs>
      <use xlink:href="#ArialMT-4d"/>
      <use x="83.300781" xlink:href="#ArialMT-65"/>
      <use x="138.916016" xlink:href="#ArialMT-74"/>
      <use x="166.699219" xlink:href="#ArialMT-68"/>
      <use x="222.314453" xlink:href="#ArialMT-6f"/>
      <use x="277.929688" xlink:href="#ArialMT-64"/>
     </g>
    </g>
   </g>
   <g id="matplotlib.axis_2">
    <g id="ytick_1">
     <g id="text_5">
      <!-- −2 -->
      <g style="fill:#262626;" transform="translate(-11.803125 132.105698)scale(0.2 -0.2)">
       <defs>
        <path d="M 3381 1997 
L 356 1997 
L 356 2522 
L 3381 2522 
L 3381 1997 
z
" id="ArialMT-2212" transform="scale(0.015625)"/>
        <path d="M 3222 541 
L 3222 0 
L 194 0 
Q 188 203 259 391 
Q 375 700 629 1000 
Q 884 1300 1366 1694 
Q 2113 2306 2375 2664 
Q 2638 3022 2638 3341 
Q 2638 3675 2398 3904 
Q 2159 4134 1775 4134 
Q 1369 4134 1125 3890 
Q 881 3647 878 3216 
L 300 3275 
Q 359 3922 746 4261 
Q 1134 4600 1788 4600 
Q 2447 4600 2831 4234 
Q 3216 3869 3216 3328 
Q 3216 3053 3103 2787 
Q 2991 2522 2730 2228 
Q 2469 1934 1863 1422 
Q 1356 997 1212 845 
Q 1069 694 975 541 
L 3222 541 
z
" id="ArialMT-32" transform="scale(0.015625)"/>
       </defs>
       <use xlink:href="#ArialMT-2212"/>
       <use x="58.398438" xlink:href="#ArialMT-32"/>
      </g>
     </g>
    </g>
    <g id="ytick_2">
     <g id="text_6">
      <!-- 0 -->
      <g style="fill:#262626;" transform="translate(-0.121875 73.982072)scale(0.2 -0.2)">
       <defs>
        <path d="M 266 2259 
Q 266 3072 433 3567 
Q 600 4063 929 4331 
Q 1259 4600 1759 4600 
Q 2128 4600 2406 4451 
Q 2684 4303 2865 4023 
Q 3047 3744 3150 3342 
Q 3253 2941 3253 2259 
Q 3253 1453 3087 958 
Q 2922 463 2592 192 
Q 2263 -78 1759 -78 
Q 1097 -78 719 397 
Q 266 969 266 2259 
z
M 844 2259 
Q 844 1131 1108 757 
Q 1372 384 1759 384 
Q 2147 384 2411 759 
Q 2675 1134 2675 2259 
Q 2675 3391 2411 3762 
Q 2147 4134 1753 4134 
Q 1366 4134 1134 3806 
Q 844 3388 844 2259 
z
" id="ArialMT-30" transform="scale(0.015625)"/>
       </defs>
       <use xlink:href="#ArialMT-30"/>
      </g>
     </g>
    </g>
    <g id="text_7">
     <!-- Predictions -->
     <g style="fill:#262626;" transform="translate(-19.778125 122.185625)rotate(-90)scale(0.2 -0.2)">
      <defs>
       <path d="M 494 0 
L 494 4581 
L 2222 4581 
Q 2678 4581 2919 4538 
Q 3256 4481 3484 4323 
Q 3713 4166 3852 3881 
Q 3991 3597 3991 3256 
Q 3991 2672 3619 2267 
Q 3247 1863 2275 1863 
L 1100 1863 
L 1100 0 
L 494 0 
z
M 1100 2403 
L 2284 2403 
Q 2872 2403 3119 2622 
Q 3366 2841 3366 3238 
Q 3366 3525 3220 3729 
Q 3075 3934 2838 4000 
Q 2684 4041 2272 4041 
L 1100 4041 
L 1100 2403 
z
" id="ArialMT-50" transform="scale(0.015625)"/>
       <path d="M 2588 1216 
L 3141 1144 
Q 3050 572 2676 248 
Q 2303 -75 1759 -75 
Q 1078 -75 664 370 
Q 250 816 250 1647 
Q 250 2184 428 2587 
Q 606 2991 970 3192 
Q 1334 3394 1763 3394 
Q 2303 3394 2647 3120 
Q 2991 2847 3088 2344 
L 2541 2259 
Q 2463 2594 2264 2762 
Q 2066 2931 1784 2931 
Q 1359 2931 1093 2626 
Q 828 2322 828 1663 
Q 828 994 1084 691 
Q 1341 388 1753 388 
Q 2084 388 2306 591 
Q 2528 794 2588 1216 
z
" id="ArialMT-63" transform="scale(0.015625)"/>
       <path d="M 197 991 
L 753 1078 
Q 800 744 1014 566 
Q 1228 388 1613 388 
Q 2000 388 2187 545 
Q 2375 703 2375 916 
Q 2375 1106 2209 1216 
Q 2094 1291 1634 1406 
Q 1016 1563 777 1677 
Q 538 1791 414 1992 
Q 291 2194 291 2438 
Q 291 2659 392 2848 
Q 494 3038 669 3163 
Q 800 3259 1026 3326 
Q 1253 3394 1513 3394 
Q 1903 3394 2198 3281 
Q 2494 3169 2634 2976 
Q 2775 2784 2828 2463 
L 2278 2388 
Q 2241 2644 2061 2787 
Q 1881 2931 1553 2931 
Q 1166 2931 1000 2803 
Q 834 2675 834 2503 
Q 834 2394 903 2306 
Q 972 2216 1119 2156 
Q 1203 2125 1616 2013 
Q 2213 1853 2448 1751 
Q 2684 1650 2818 1456 
Q 2953 1263 2953 975 
Q 2953 694 2789 445 
Q 2625 197 2315 61 
Q 2006 -75 1616 -75 
Q 969 -75 630 194 
Q 291 463 197 991 
z
" id="ArialMT-73" transform="scale(0.015625)"/>
      </defs>
      <use xlink:href="#ArialMT-50"/>
      <use x="66.699219" xlink:href="#ArialMT-72"/>
      <use x="100" xlink:href="#ArialMT-65"/>
      <use x="155.615234" xlink:href="#ArialMT-64"/>
      <use x="211.230469" xlink:href="#ArialMT-69"/>
      <use x="233.447266" xlink:href="#ArialMT-63"/>
      <use x="283.447266" xlink:href="#ArialMT-74"/>
      <use x="311.230469" xlink:href="#ArialMT-69"/>
      <use x="333.447266" xlink:href="#ArialMT-6f"/>
      <use x="389.0625" xlink:href="#ArialMT-6e"/>
      <use x="444.677734" xlink:href="#ArialMT-73"/>
     </g>
    </g>
   </g>
   <g id="PolyCollection_1">
    <defs>
     <path d="M 36.653953 -37.527679 
L 36.546047 -37.527679 
L 36.5237 -38.29741 
L 36.494697 -39.067142 
L 36.458016 -39.836873 
L 36.412721 -40.606605 
L 36.357986 -41.376337 
L 36.293081 -42.146068 
L 36.217325 -42.9158 
L 36.130018 -43.685531 
L 36.030365 -44.455263 
L 35.917442 -45.224994 
L 35.790198 -45.994726 
L 35.647528 -46.764458 
L 35.488378 -47.534189 
L 35.311863 -48.303921 
L 35.11734 -49.073652 
L 34.90438 -49.843384 
L 34.672643 -50.613116 
L 34.421639 -51.382847 
L 34.150464 -52.152579 
L 33.857587 -52.92231 
L 33.540785 -53.692042 
L 33.197293 -54.461774 
L 32.8242 -55.231505 
L 32.419013 -56.001237 
L 31.980311 -56.770968 
L 31.508323 -57.5407 
L 31.005315 -58.310432 
L 30.475665 -59.080163 
L 29.925615 -59.849895 
L 29.362723 -60.619626 
L 28.795133 -61.389358 
L 28.230774 -62.15909 
L 27.676651 -62.928821 
L 27.138329 -63.698553 
L 26.619688 -64.468284 
L 26.122975 -65.238016 
L 25.64911 -66.007748 
L 25.198192 -66.777479 
L 24.770077 -67.547211 
L 24.364922 -68.316942 
L 23.983603 -69.086674 
L 23.627927 -69.856405 
L 23.300645 -70.626137 
L 23.005305 -71.395869 
L 22.74605 -72.1656 
L 22.527438 -72.935332 
L 22.35438 -73.705063 
L 22.232172 -74.474795 
L 22.166584 -75.244527 
L 22.163878 -76.014258 
L 22.230643 -76.78399 
L 22.373357 -77.553721 
L 22.597698 -78.323453 
L 22.907687 -79.093185 
L 23.304833 -79.862916 
L 23.787463 -80.632648 
L 24.35037 -81.402379 
L 24.98486 -82.172111 
L 25.679137 -82.941843 
L 26.418963 -83.711574 
L 27.188424 -84.481306 
L 27.970731 -85.251037 
L 28.748967 -86.020769 
L 29.506791 -86.790501 
L 30.229092 -87.560232 
L 30.902637 -88.329964 
L 31.51669 -89.099695 
L 32.063549 -89.869427 
L 32.538943 -90.639158 
L 32.9422 -91.40889 
L 33.276129 -92.178622 
L 33.546613 -92.948353 
L 33.761945 -93.718085 
L 33.931978 -94.487816 
L 34.067222 -95.257548 
L 34.177958 -96.02728 
L 34.273512 -96.797011 
L 34.361729 -97.566743 
L 34.448696 -98.336474 
L 34.538707 -99.106206 
L 34.634432 -99.875938 
L 34.73721 -100.645669 
L 34.8474 -101.415401 
L 34.96469 -102.185132 
L 35.088323 -102.954864 
L 35.217219 -103.724596 
L 35.349988 -104.494327 
L 35.484911 -105.264059 
L 35.619918 -106.03379 
L 35.752623 -106.803522 
L 35.88045 -107.573254 
L 36.000821 -108.342985 
L 36.111401 -109.112717 
L 36.210331 -109.882448 
L 36.2964 -110.65218 
L 36.36914 -111.421912 
L 36.42881 -112.191643 
L 36.476294 -112.961375 
L 36.512938 -113.731106 
L 36.687062 -113.731106 
L 36.687062 -113.731106 
L 36.723706 -112.961375 
L 36.77119 -112.191643 
L 36.83086 -111.421912 
L 36.9036 -110.65218 
L 36.989669 -109.882448 
L 37.088599 -109.112717 
L 37.199179 -108.342985 
L 37.31955 -107.573254 
L 37.447377 -106.803522 
L 37.580082 -106.03379 
L 37.715089 -105.264059 
L 37.850012 -104.494327 
L 37.982781 -103.724596 
L 38.111677 -102.954864 
L 38.23531 -102.185132 
L 38.3526 -101.415401 
L 38.46279 -100.645669 
L 38.565568 -99.875938 
L 38.661293 -99.106206 
L 38.751304 -98.336474 
L 38.838271 -97.566743 
L 38.926488 -96.797011 
L 39.022042 -96.02728 
L 39.132778 -95.257548 
L 39.268022 -94.487816 
L 39.438055 -93.718085 
L 39.653387 -92.948353 
L 39.923871 -92.178622 
L 40.2578 -91.40889 
L 40.661057 -90.639158 
L 41.136451 -89.869427 
L 41.68331 -89.099695 
L 42.297363 -88.329964 
L 42.970908 -87.560232 
L 43.693209 -86.790501 
L 44.451033 -86.020769 
L 45.229269 -85.251037 
L 46.011576 -84.481306 
L 46.781037 -83.711574 
L 47.520863 -82.941843 
L 48.21514 -82.172111 
L 48.84963 -81.402379 
L 49.412537 -80.632648 
L 49.895167 -79.862916 
L 50.292313 -79.093185 
L 50.602302 -78.323453 
L 50.826643 -77.553721 
L 50.969357 -76.78399 
L 51.036122 -76.014258 
L 51.033416 -75.244527 
L 50.967828 -74.474795 
L 50.84562 -73.705063 
L 50.672562 -72.935332 
L 50.45395 -72.1656 
L 50.194695 -71.395869 
L 49.899355 -70.626137 
L 49.572073 -69.856405 
L 49.216397 -69.086674 
L 48.835078 -68.316942 
L 48.429923 -67.547211 
L 48.001808 -66.777479 
L 47.55089 -66.007748 
L 47.077025 -65.238016 
L 46.580312 -64.468284 
L 46.061671 -63.698553 
L 45.523349 -62.928821 
L 44.969226 -62.15909 
L 44.404867 -61.389358 
L 43.837277 -60.619626 
L 43.274385 -59.849895 
L 42.724335 -59.080163 
L 42.194685 -58.310432 
L 41.691677 -57.5407 
L 41.219689 -56.770968 
L 40.780987 -56.001237 
L 40.3758 -55.231505 
L 40.002707 -54.461774 
L 39.659215 -53.692042 
L 39.342413 -52.92231 
L 39.049536 -52.152579 
L 38.778361 -51.382847 
L 38.527357 -50.613116 
L 38.29562 -49.843384 
L 38.08266 -49.073652 
L 37.888137 -48.303921 
L 37.711622 -47.534189 
L 37.552472 -46.764458 
L 37.409802 -45.994726 
L 37.282558 -45.224994 
L 37.169635 -44.455263 
L 37.069982 -43.685531 
L 36.982675 -42.9158 
L 36.906919 -42.146068 
L 36.842014 -41.376337 
L 36.787279 -40.606605 
L 36.741984 -39.836873 
L 36.705303 -39.067142 
L 36.6763 -38.29741 
L 36.653953 -37.527679 
z
" id="m337bb7b3a8" style="stroke:#262626;stroke-width:0.75;"/>
    </defs>
    <g clip-path="url(#pca6f46a789)">
     <use style="fill:#7f9dd2;stroke:#262626;stroke-width:0.75;" x="0" xlink:href="#m337bb7b3a8" y="144"/>
    </g>
   </g>
   <g id="PolyCollection_2">
    <defs>
     <path d="M 73.800426 -20.88 
L 73.799574 -20.88 
L 73.798587 -21.898182 
L 73.797267 -22.916364 
L 73.796915 -23.934545 
L 73.797967 -24.952727 
L 73.799217 -25.970909 
L 73.7998 -26.989091 
L 73.799792 -28.007273 
L 73.79918 -29.025455 
L 73.797834 -30.043636 
L 73.796237 -31.061818 
L 73.794285 -32.08 
L 73.789503 -33.098182 
L 73.779559 -34.116364 
L 73.765357 -35.134545 
L 73.750694 -36.152727 
L 73.738181 -37.170909 
L 73.72442 -38.189091 
L 73.706015 -39.207273 
L 73.684358 -40.225455 
L 73.655659 -41.243636 
L 73.612011 -42.261818 
L 73.554582 -43.28 
L 73.49009 -44.298182 
L 73.417408 -45.316364 
L 73.321839 -46.334545 
L 73.181396 -47.352727 
L 72.990377 -48.370909 
L 72.765803 -49.389091 
L 72.513349 -50.407273 
L 72.20397 -51.425455 
L 71.816151 -52.443636 
L 71.383682 -53.461818 
L 70.944953 -54.48 
L 70.470759 -55.498182 
L 69.895204 -56.516364 
L 69.215494 -57.534545 
L 68.530065 -58.552727 
L 67.909421 -59.570909 
L 67.275279 -60.589091 
L 66.534227 -61.607273 
L 65.727586 -62.625455 
L 64.90505 -63.643636 
L 64.030432 -64.661818 
L 63.133837 -65.68 
L 62.330522 -66.698182 
L 61.656272 -67.716364 
L 61.078386 -68.734545 
L 60.573207 -69.752727 
L 60.090897 -70.770909 
L 59.629856 -71.789091 
L 59.277588 -72.807273 
L 59.069205 -73.825455 
L 58.979725 -74.843636 
L 58.954609 -75.861818 
L 58.92 -76.88 
L 58.997105 -77.898182 
L 59.40884 -78.916364 
L 60.107363 -79.934545 
L 60.874899 -80.952727 
L 61.619361 -81.970909 
L 62.406004 -82.989091 
L 63.337702 -84.007273 
L 64.378268 -85.025455 
L 65.360992 -86.043636 
L 66.209111 -87.061818 
L 67.007 -88.08 
L 67.850682 -89.098182 
L 68.68736 -90.116364 
L 69.372356 -91.134545 
L 69.866733 -92.152727 
L 70.25523 -93.170909 
L 70.616041 -94.189091 
L 70.975154 -95.207273 
L 71.317681 -96.225455 
L 71.609668 -97.243636 
L 71.855052 -98.261818 
L 72.078373 -99.28 
L 72.258748 -100.298182 
L 72.368898 -101.316364 
L 72.446559 -102.334545 
L 72.555656 -103.352727 
L 72.721661 -104.370909 
L 72.924122 -105.389091 
L 73.124311 -106.407273 
L 73.296416 -107.425455 
L 73.427171 -108.443636 
L 73.516976 -109.461818 
L 73.582962 -110.48 
L 73.637358 -111.498182 
L 73.678906 -112.516364 
L 73.710463 -113.534545 
L 73.739031 -114.552727 
L 73.763466 -115.570909 
L 73.779842 -116.589091 
L 73.788902 -117.607273 
L 73.793596 -118.625455 
L 73.79643 -119.643636 
L 73.798453 -120.661818 
L 73.799561 -121.68 
L 73.800439 -121.68 
L 73.800439 -121.68 
L 73.801547 -120.661818 
L 73.80357 -119.643636 
L 73.806404 -118.625455 
L 73.811098 -117.607273 
L 73.820158 -116.589091 
L 73.836534 -115.570909 
L 73.860969 -114.552727 
L 73.889537 -113.534545 
L 73.921094 -112.516364 
L 73.962642 -111.498182 
L 74.017038 -110.48 
L 74.083024 -109.461818 
L 74.172829 -108.443636 
L 74.303584 -107.425455 
L 74.475689 -106.407273 
L 74.675878 -105.389091 
L 74.878339 -104.370909 
L 75.044344 -103.352727 
L 75.153441 -102.334545 
L 75.231102 -101.316364 
L 75.341252 -100.298182 
L 75.521627 -99.28 
L 75.744948 -98.261818 
L 75.990332 -97.243636 
L 76.282319 -96.225455 
L 76.624846 -95.207273 
L 76.983959 -94.189091 
L 77.34477 -93.170909 
L 77.733267 -92.152727 
L 78.227644 -91.134545 
L 78.91264 -90.116364 
L 79.749318 -89.098182 
L 80.593 -88.08 
L 81.390889 -87.061818 
L 82.239008 -86.043636 
L 83.221732 -85.025455 
L 84.262298 -84.007273 
L 85.193996 -82.989091 
L 85.980639 -81.970909 
L 86.725101 -80.952727 
L 87.492637 -79.934545 
L 88.19116 -78.916364 
L 88.602895 -77.898182 
L 88.68 -76.88 
L 88.645391 -75.861818 
L 88.620275 -74.843636 
L 88.530795 -73.825455 
L 88.322412 -72.807273 
L 87.970144 -71.789091 
L 87.509103 -70.770909 
L 87.026793 -69.752727 
L 86.521614 -68.734545 
L 85.943728 -67.716364 
L 85.269478 -66.698182 
L 84.466163 -65.68 
L 83.569568 -64.661818 
L 82.69495 -63.643636 
L 81.872414 -62.625455 
L 81.065773 -61.607273 
L 80.324721 -60.589091 
L 79.690579 -59.570909 
L 79.069935 -58.552727 
L 78.384506 -57.534545 
L 77.704796 -56.516364 
L 77.129241 -55.498182 
L 76.655047 -54.48 
L 76.216318 -53.461818 
L 75.783849 -52.443636 
L 75.39603 -51.425455 
L 75.086651 -50.407273 
L 74.834197 -49.389091 
L 74.609623 -48.370909 
L 74.418604 -47.352727 
L 74.278161 -46.334545 
L 74.182592 -45.316364 
L 74.10991 -44.298182 
L 74.045418 -43.28 
L 73.987989 -42.261818 
L 73.944341 -41.243636 
L 73.915642 -40.225455 
L 73.893985 -39.207273 
L 73.87558 -38.189091 
L 73.861819 -37.170909 
L 73.849306 -36.152727 
L 73.834643 -35.134545 
L 73.820441 -34.116364 
L 73.810497 -33.098182 
L 73.805715 -32.08 
L 73.803763 -31.061818 
L 73.802166 -30.043636 
L 73.80082 -29.025455 
L 73.800208 -28.007273 
L 73.8002 -26.989091 
L 73.800783 -25.970909 
L 73.802033 -24.952727 
L 73.803085 -23.934545 
L 73.802733 -22.916364 
L 73.801413 -21.898182 
L 73.800426 -20.88 
z
" id="m33646c0e4f" style="stroke:#262626;stroke-width:0.75;"/>
    </defs>
    <g clip-path="url(#pca6f46a789)">
     <use style="fill:#1a1a66;stroke:#262626;stroke-width:0.75;" x="0" xlink:href="#m33646c0e4f" y="144"/>
    </g>
   </g>
   <g id="line2d_1">
    <path clip-path="url(#pca6f46a789)" d="M 36.6 97.46605 
L 36.6 44.920562 
" style="fill:none;stroke:#262626;stroke-linecap:round;stroke-width:0.75;"/>
   </g>
   <g id="line2d_2">
    <path clip-path="url(#pca6f46a789)" d="M 36.6 77.405392 
L 36.6 63.643084 
" style="fill:none;stroke:#262626;stroke-linecap:round;stroke-width:2.25;"/>
   </g>
   <g id="line2d_3">
    <path clip-path="url(#pca6f46a789)" d="M 73.8 99.012447 
L 73.8 39.22407 
" style="fill:none;stroke:#262626;stroke-linecap:round;stroke-width:0.75;"/>
   </g>
   <g id="line2d_4">
    <path clip-path="url(#pca6f46a789)" d="M 73.8 76.594764 
L 73.8 61.645435 
" style="fill:none;stroke:#262626;stroke-linecap:round;stroke-width:2.25;"/>
   </g>
   <g id="line2d_5">
    <path clip-path="url(#pca6f46a789)" d="M 96.12 59.889648 
L 125.88 59.889648 
" style="fill:none;stroke:#262626;stroke-linecap:round;stroke-width:0.75;"/>
   </g>
   <g id="patch_3">
    <path d="M 18 128.16 
L 18 17.28 
" style="fill:none;stroke:#262626;stroke-linecap:square;stroke-linejoin:miter;stroke-width:0.8;"/>
   </g>
   <g id="patch_4">
    <path d="M 18 128.16 
L 129.6 128.16 
" style="fill:none;stroke:#262626;stroke-linecap:square;stroke-linejoin:miter;stroke-width:0.8;"/>
   </g>
   <g id="PathCollection_1">
    <defs>
     <path d="M 0 0.75 
C 0.198902 0.75 0.389685 0.670975 0.53033 0.53033 
C 0.670975 0.389685 0.75 0.198902 0.75 0 
C 0.75 -0.198902 0.670975 -0.389685 0.53033 -0.53033 
C 0.389685 -0.670975 0.198902 -0.75 0 -0.75 
C -0.198902 -0.75 -0.389685 -0.670975 -0.53033 -0.53033 
C -0.670975 -0.389685 -0.75 -0.198902 -0.75 0 
C -0.75 0.198902 -0.670975 0.389685 -0.53033 0.53033 
C -0.389685 0.670975 -0.198902 0.75 0 0.75 
z
" id="m876fbd8972" style="stroke:#262626;"/>
    </defs>
    <g clip-path="url(#pca6f46a789)">
     <use style="fill:#ffffff;stroke:#262626;" x="36.6" xlink:href="#m876fbd8972" y="69.798566"/>
    </g>
   </g>
   <g id="PathCollection_2">
    <g clip-path="url(#pca6f46a789)">
     <use style="fill:#ffffff;stroke:#262626;" x="73.8" xlink:href="#m876fbd8972" y="69.027227"/>
    </g>
   </g>
   <g id="text_8">
    <!-- Random -->
    <g style="fill:#262626;" transform="translate(28.445625 11.28)scale(0.24 -0.24)">
     <defs>
      <path d="M 422 0 
L 422 3319 
L 925 3319 
L 925 2853 
Q 1081 3097 1340 3245 
Q 1600 3394 1931 3394 
Q 2300 3394 2536 3241 
Q 2772 3088 2869 2813 
Q 3263 3394 3894 3394 
Q 4388 3394 4653 3120 
Q 4919 2847 4919 2278 
L 4919 0 
L 4359 0 
L 4359 2091 
Q 4359 2428 4304 2576 
Q 4250 2725 4106 2815 
Q 3963 2906 3769 2906 
Q 3419 2906 3187 2673 
Q 2956 2441 2956 1928 
L 2956 0 
L 2394 0 
L 2394 2156 
Q 2394 2531 2256 2718 
Q 2119 2906 1806 2906 
Q 1569 2906 1367 2781 
Q 1166 2656 1075 2415 
Q 984 2175 984 1722 
L 984 0 
L 422 0 
z
" id="ArialMT-6d" transform="scale(0.015625)"/>
     </defs>
     <use xlink:href="#ArialMT-52"/>
     <use x="72.216797" xlink:href="#ArialMT-61"/>
     <use x="127.832031" xlink:href="#ArialMT-6e"/>
     <use x="183.447266" xlink:href="#ArialMT-64"/>
     <use x="239.0625" xlink:href="#ArialMT-6f"/>
     <use x="294.677734" xlink:href="#ArialMT-6d"/>
    </g>
   </g>
  </g>
 </g>
 <defs>
  <clipPath id="pca6f46a789">
   <rect height="110.88" width="111.6" x="18" y="17.28"/>
  </clipPath>
 </defs>
</svg>
