<?xml version="1.0" encoding="utf-8" standalone="no"?>
<!DOCTYPE svg PUBLIC "-//W3C//DTD SVG 1.1//EN"
  "http://www.w3.org/Graphics/SVG/1.1/DTD/svg11.dtd">
<svg height="216pt" version="1.1" viewBox="0 0 306 216" width="306pt" xmlns="http://www.w3.org/2000/svg" xmlns:xlink="http://www.w3.org/1999/xlink">
 <metadata>
  <rdf:RDF xmlns:cc="http://creativecommons.org/ns#" xmlns:dc="http://purl.org/dc/elements/1.1/" xmlns:rdf="http://www.w3.org/1999/02/22-rdf-syntax-ns#">
   <cc:Work>
    <dc:type rdf:resource="http://purl.org/dc/dcmitype/StillImage"/>
    <dc:date>2022-03-08T15:46:21.762770</dc:date>
    <dc:format>image/svg+xml</dc:format>
    <dc:creator>
     <cc:Agent>
      <dc:title>Matplotlib v3.4.2, https://matplotlib.org/</dc:title>
     </cc:Agent>
    </dc:creator>
   </cc:Work>
  </rdf:RDF>
 </metadata>
 <defs>
  <style type="text/css">*{stroke-linecap:butt;stroke-linejoin:round;}</style>
 </defs>
 <g id="figure_1">
  <g id="patch_1">
   <path d="M 0 216 
L 306 216 
L 306 0 
L 0 0 
z
" style="fill:#ffffff;"/>
  </g>
  <g id="axes_1">
   <g id="patch_2">
    <path d="M 94.94 141.64 
L 284.4 141.64 
L 284.4 28.8 
L 94.94 28.8 
z
" style="fill:#ffffff;"/>
   </g>
   <g id="line2d_1">
    <path clip-path="url(#peca7444b2c)" d="M 94.94 141.64 
L 284.4 141.64 
" style="fill:none;stroke:#000000;stroke-linecap:round;stroke-width:0.5;"/>
   </g>
   <g id="patch_3">
    <path clip-path="url(#peca7444b2c)" d="M 100.523163 119.574256 
Q 102.797109 119.574256 104.051431 121.673583 
Q 105.305752 123.768345 105.443962 126.433576 
L 103.863673 126.433576 
Q 103.595077 124.411834 102.791894 123.229822 
Q 101.988711 122.043247 100.53881 122.043247 
Q 98.770765 122.043247 97.683339 124.220157 
Q 96.595913 126.392503 96.595913 130.883235 
Q 96.595913 134.566184 97.576421 136.857187 
Q 98.559538 139.143627 100.507517 139.143627 
Q 102.299032 139.143627 103.237817 136.733966 
Q 103.733287 135.465243 103.978414 133.393299 
L 105.558702 133.393299 
Q 105.347475 136.70202 104.158348 138.942822 
Q 102.731916 141.64 100.311937 141.64 
Q 98.225748 141.64 96.807139 139.42658 
Q 94.94 136.505778 94.94 130.399477 
Q 94.94 125.767269 96.342962 122.800829 
Q 97.858057 119.574256 100.523163 119.574256 
z
M 100.197196 119.574256 
L 100.197196 119.574256 
z
" style="fill:#0000ff;"/>
   </g>
   <g id="patch_4">
    <path clip-path="url(#peca7444b2c)" d="M 100.416455 94.799996 
Q 102.054581 94.799996 103.249628 96.082042 
Q 104.981434 97.923061 105.368811 102.538427 
L 103.811705 102.538427 
Q 103.525603 99.95895 102.63185 98.779467 
Q 101.738096 97.599985 100.375945 97.599985 
Q 98.763138 97.599985 97.659238 100.056385 
Q 96.555339 102.507658 96.555339 107.364049 
Q 96.555339 111.558904 97.464284 114.194791 
Q 98.37576 116.830678 100.431646 116.830678 
Q 102.006475 116.830678 103.039482 114.984531 
Q 104.072489 113.133256 104.095276 108.994811 
L 100.456965 108.994811 
L 100.456965 106.353796 
L 105.558702 106.353796 
L 105.558702 118.948618 
L 104.54595 118.948618 
L 104.166168 115.917861 
Q 103.368626 117.697341 102.750848 118.389646 
Q 101.712777 119.574256 100.115161 119.574256 
Q 98.05168 119.574256 96.562935 116.866575 
Q 94.94 113.466588 94.94 107.538407 
Q 94.94 101.62561 96.522425 98.133316 
Q 98.026361 94.799996 100.416455 94.799996 
z
M 100.155671 94.764099 
L 100.155671 94.764099 
z
" style="fill:#ffa600;"/>
   </g>
   <g id="patch_5">
    <path clip-path="url(#peca7444b2c)" d="M 105.558702 64.960007 
L 105.558702 68.51105 
L 101.148734 68.51105 
L 101.148734 94.764099 
L 99.349968 94.764099 
L 99.349968 68.51105 
L 94.94 68.51105 
L 94.94 64.960007 
L 105.558702 64.960007 
z
" style="fill:#ff0000;"/>
   </g>
   <g id="patch_6">
    <path clip-path="url(#peca7444b2c)" d="M 102.067515 50.144722 
L 100.261014 34.171624 
L 98.340473 50.144722 
L 102.067515 50.144722 
z
M 99.418672 28.8 
L 101.240724 28.8 
L 105.558702 64.960007 
L 103.791078 64.960007 
L 102.58588 54.130121 
L 97.879128 54.130121 
L 96.590992 64.960007 
L 94.94 64.960007 
L 99.418672 28.8 
z
M 100.253239 28.8 
L 100.253239 28.8 
z
" style="fill:#008000;"/>
   </g>
   <g id="patch_7">
    <path clip-path="url(#peca7444b2c)" d="M 111.594036 127.415017 
Q 113.232162 127.415017 114.427209 128.151147 
Q 116.159015 129.20823 116.546392 131.8583 
L 114.989286 131.8583 
Q 114.703184 130.377205 113.809431 129.699965 
Q 112.915677 129.022725 111.553526 129.022725 
Q 109.940719 129.022725 108.83682 130.433151 
Q 107.73292 131.840632 107.73292 134.629094 
Q 107.73292 137.037713 108.641865 138.551197 
Q 109.553341 140.064681 111.609227 140.064681 
Q 113.184056 140.064681 114.217063 139.004653 
Q 115.25007 137.941681 115.272857 135.565452 
L 111.634546 135.565452 
L 111.634546 134.049024 
L 116.736283 134.049024 
L 116.736283 141.280768 
L 115.723531 141.280768 
L 115.34375 139.540556 
Q 114.546208 140.562305 113.928429 140.959816 
Q 112.890358 141.64 111.292743 141.64 
Q 109.229261 141.64 107.740516 140.085293 
Q 106.117581 138.133075 106.117581 134.729208 
Q 106.117581 131.334175 107.700006 129.328956 
Q 109.203942 127.415017 111.594036 127.415017 
z
M 111.333253 127.394405 
L 111.333253 127.394405 
z
" style="fill:#ffa600;"/>
   </g>
   <g id="patch_8">
    <path clip-path="url(#peca7444b2c)" d="M 116.736283 98.743704 
L 116.736283 102.157325 
L 112.326315 102.157325 
L 112.326315 127.394405 
L 110.527549 127.394405 
L 110.527549 102.157325 
L 106.117581 102.157325 
L 106.117581 98.743704 
L 116.736283 98.743704 
z
" style="fill:#ff0000;"/>
   </g>
   <g id="patch_9">
    <path clip-path="url(#peca7444b2c)" d="M 111.700744 65.912986 
Q 113.97469 65.912986 115.229012 69.036487 
Q 116.483333 72.153199 116.621543 76.118688 
L 115.041255 76.118688 
Q 114.772658 73.11062 113.969475 71.351953 
Q 113.166292 69.586495 111.716391 69.586495 
Q 109.948346 69.586495 108.86092 72.82543 
Q 107.773494 76.057576 107.773494 82.739153 
Q 107.773494 88.218861 108.754002 91.627552 
Q 109.737119 95.029453 111.685098 95.029453 
Q 113.476613 95.029453 114.415398 91.444216 
Q 114.910868 89.556535 115.155995 86.473774 
L 116.736283 86.473774 
Q 116.525057 91.396685 115.335929 94.730683 
Q 113.909497 98.743704 111.489518 98.743704 
Q 109.403329 98.743704 107.98472 95.450447 
Q 106.117581 91.104705 106.117581 82.01939 
Q 106.117581 75.127315 107.520543 70.713672 
Q 109.035638 65.912986 111.700744 65.912986 
z
M 111.374777 65.912986 
L 111.374777 65.912986 
z
" style="fill:#0000ff;"/>
   </g>
   <g id="patch_10">
    <path clip-path="url(#peca7444b2c)" d="M 113.245097 50.707251 
L 111.438595 34.31319 
L 109.518054 50.707251 
L 113.245097 50.707251 
z
M 110.596253 28.8 
L 112.418305 28.8 
L 116.736283 65.912986 
L 114.968659 65.912986 
L 113.763461 54.797683 
L 109.056709 54.797683 
L 107.768573 65.912986 
L 106.117581 65.912986 
L 110.596253 28.8 
z
M 111.43082 28.8 
L 111.43082 28.8 
z
" style="fill:#008000;"/>
   </g>
   <g id="patch_11">
    <path clip-path="url(#peca7444b2c)" d="M 122.771617 126.018248 
Q 124.409743 126.018248 125.60479 126.82666 
Q 127.336596 127.98754 127.723973 130.897823 
L 126.166868 130.897823 
Q 125.880765 129.271298 124.987012 128.527559 
Q 124.093258 127.78382 122.731107 127.78382 
Q 121.1183 127.78382 120.014401 129.332737 
Q 118.910501 130.878421 118.910501 133.940685 
Q 118.910501 136.585809 119.819446 138.247904 
Q 120.730923 139.909999 122.786809 139.909999 
Q 124.361638 139.909999 125.394644 138.745885 
Q 126.427651 137.578539 126.450438 134.968985 
L 122.812127 134.968985 
L 122.812127 133.303656 
L 127.913864 133.303656 
L 127.913864 141.245495 
L 126.901113 141.245495 
L 126.521331 139.334409 
Q 125.723789 140.456485 125.10601 140.893027 
Q 124.06794 141.64 122.470324 141.64 
Q 120.406842 141.64 118.918097 139.932634 
Q 117.295162 137.788726 117.295162 134.050629 
Q 117.295162 130.322233 118.877587 128.120119 
Q 120.381523 126.018248 122.771617 126.018248 
z
M 122.510834 125.995613 
L 122.510834 125.995613 
z
" style="fill:#ffa600;"/>
   </g>
   <g id="patch_12">
    <path clip-path="url(#peca7444b2c)" d="M 127.913864 99.50036 
L 127.913864 102.657168 
L 123.503896 102.657168 
L 123.503896 125.995613 
L 121.705131 125.995613 
L 121.705131 102.657168 
L 117.295162 102.657168 
L 117.295162 99.50036 
L 127.913864 99.50036 
z
" style="fill:#ff0000;"/>
   </g>
   <g id="patch_13">
    <path clip-path="url(#peca7444b2c)" d="M 124.422678 85.160988 
L 122.616176 69.700994 
L 120.695635 85.160988 
L 124.422678 85.160988 
z
M 121.773834 64.501923 
L 123.595886 64.501923 
L 127.913864 99.50036 
L 126.14624 99.50036 
L 124.941042 89.018363 
L 120.23429 89.018363 
L 118.946154 99.50036 
L 117.295162 99.50036 
L 121.773834 64.501923 
z
M 122.608401 64.501923 
L 122.608401 64.501923 
z
" style="fill:#008000;"/>
   </g>
   <g id="patch_14">
    <path clip-path="url(#peca7444b2c)" d="M 122.878326 28.8 
Q 125.152272 28.8 126.406593 32.196667 
Q 127.660914 35.58595 127.799124 39.89824 
L 126.218836 39.89824 
Q 125.950239 36.627102 125.147056 34.714631 
Q 124.343873 32.794776 122.893972 32.794776 
Q 121.125927 32.794776 120.038501 36.316972 
Q 118.951075 39.831784 118.951075 47.097697 
Q 118.951075 53.056632 119.931584 56.76343 
Q 120.9147 60.462843 122.862679 60.462843 
Q 124.654194 60.462843 125.592979 56.56406 
Q 126.088449 54.511292 126.333576 51.158929 
L 127.913864 51.158929 
Q 127.702638 56.512372 126.51351 60.137945 
Q 125.087078 64.501923 122.667099 64.501923 
Q 120.58091 64.501923 119.162301 60.920655 
Q 117.295162 56.194857 117.295162 46.314987 
Q 117.295162 38.820167 118.698124 34.020529 
Q 120.213219 28.8 122.878326 28.8 
z
M 122.552359 28.8 
L 122.552359 28.8 
z
" style="fill:#0000ff;"/>
   </g>
   <g id="patch_15">
    <path clip-path="url(#peca7444b2c)" d="M 133.949198 123.457506 
Q 135.587324 123.457506 136.782371 124.398434 
Q 138.514177 125.749607 138.901554 129.136948 
L 137.344449 129.136948 
Q 137.058346 127.243801 136.164593 126.378147 
Q 135.270839 125.512493 133.908688 125.512493 
Q 132.295881 125.512493 131.191982 127.315311 
Q 130.088082 129.114366 130.088082 132.678601 
Q 130.088082 135.757318 130.997027 137.691866 
Q 131.908504 139.626414 133.96439 139.626414 
Q 135.539219 139.626414 136.572225 138.271478 
Q 137.605232 136.912777 137.628019 133.875462 
L 133.989709 133.875462 
L 133.989709 131.93715 
L 139.091445 131.93715 
L 139.091445 141.180827 
L 138.078694 141.180827 
L 137.698912 138.956473 
Q 136.90137 140.262481 136.283591 140.770582 
Q 135.245521 141.64 133.647905 141.64 
Q 131.584423 141.64 130.095678 139.65276 
Q 128.472743 137.157419 128.472743 132.806567 
Q 128.472743 128.467007 130.055168 125.903919 
Q 131.559104 123.457506 133.949198 123.457506 
z
M 133.688415 123.43116 
L 133.688415 123.43116 
z
" style="fill:#ffa600;"/>
   </g>
   <g id="patch_16">
    <path clip-path="url(#peca7444b2c)" d="M 139.091445 99.52081 
L 139.091445 102.369637 
L 134.681477 102.369637 
L 134.681477 123.43116 
L 132.882712 123.43116 
L 132.882712 102.369637 
L 128.472743 102.369637 
L 128.472743 99.52081 
L 139.091445 99.52081 
z
" style="fill:#ff0000;"/>
   </g>
   <g id="patch_17">
    <path clip-path="url(#peca7444b2c)" d="M 134.055907 65.499892 
Q 136.329853 65.499892 137.584174 68.736629 
Q 138.838495 71.966329 138.976705 76.075578 
L 137.396417 76.075578 
Q 137.12782 72.958459 136.324637 71.136036 
Q 135.521454 69.306576 134.071553 69.306576 
Q 132.303508 69.306576 131.216082 72.662931 
Q 130.128656 76.01225 130.128656 82.936052 
Q 130.128656 88.614415 131.109165 92.14668 
Q 132.092281 95.671908 134.04026 95.671908 
Q 135.831775 95.671908 136.77056 91.956697 
Q 137.26603 90.000582 137.511157 86.806064 
L 139.091445 86.806064 
Q 138.880219 91.907443 137.691091 95.362307 
Q 136.264659 99.52081 133.84468 99.52081 
Q 131.758491 99.52081 130.339883 96.108164 
Q 128.472743 91.604878 128.472743 82.190196 
Q 128.472743 75.048266 129.875705 70.474616 
Q 131.3908 65.499892 134.055907 65.499892 
z
M 133.72994 65.499892 
L 133.72994 65.499892 
z
" style="fill:#0000ff;"/>
   </g>
   <g id="patch_18">
    <path clip-path="url(#peca7444b2c)" d="M 135.600259 50.463408 
L 133.793758 34.251825 
L 131.873216 50.463408 
L 135.600259 50.463408 
z
M 132.951415 28.8 
L 134.773467 28.8 
L 139.091445 65.499892 
L 137.323822 65.499892 
L 136.118624 54.50831 
L 131.411872 54.50831 
L 130.123735 65.499892 
L 128.472743 65.499892 
L 132.951415 28.8 
z
M 133.785982 28.8 
L 133.785982 28.8 
z
" style="fill:#008000;"/>
   </g>
   <g id="patch_19">
    <path clip-path="url(#peca7444b2c)" d="M 145.12678 126.234707 
Q 146.764906 126.234707 147.959953 127.031917 
Q 149.691758 128.176711 150.079136 131.046668 
L 148.52203 131.046668 
Q 148.235927 129.442681 147.342174 128.709248 
Q 146.448421 127.975814 145.086269 127.975814 
Q 143.473462 127.975814 142.369563 129.503269 
Q 141.265664 131.027535 141.265664 134.047368 
Q 141.265664 136.655841 142.174608 138.294905 
Q 143.086085 139.93397 145.141971 139.93397 
Q 146.7168 139.93397 147.749807 138.785987 
Q 148.782813 137.634815 148.8056 135.06142 
L 145.16729 135.06142 
L 145.16729 133.419167 
L 150.269027 133.419167 
L 150.269027 141.250961 
L 149.256275 141.250961 
L 148.876493 139.366356 
Q 148.078951 140.472884 147.461172 140.903378 
Q 146.423102 141.64 144.825486 141.64 
Q 142.762004 141.64 141.273259 139.956292 
Q 139.650324 137.84209 139.650324 134.155789 
Q 139.650324 130.479055 141.232749 128.307454 
Q 142.736685 126.234707 145.12678 126.234707 
z
M 144.865996 126.212385 
L 144.865996 126.212385 
z
" style="fill:#ffa600;"/>
   </g>
   <g id="patch_20">
    <path clip-path="url(#peca7444b2c)" d="M 150.269027 100.502419 
L 150.269027 103.565663 
L 145.859058 103.565663 
L 145.859058 126.212385 
L 144.060293 126.212385 
L 144.060293 103.565663 
L 139.650324 103.565663 
L 139.650324 100.502419 
L 150.269027 100.502419 
z
" style="fill:#ff0000;"/>
   </g>
   <g id="patch_21">
    <path clip-path="url(#peca7444b2c)" d="M 145.233488 65.344471 
Q 147.507434 65.344471 148.761755 68.689384 
Q 150.016076 72.027026 150.154286 76.273612 
L 148.573998 76.273612 
Q 148.305401 73.052315 147.502218 71.168983 
Q 146.699036 69.27838 145.249134 69.27838 
Q 143.481089 69.27838 142.393663 72.746909 
Q 141.306237 76.208168 141.306237 83.363374 
Q 141.306237 89.231515 142.286746 92.881834 
Q 143.269862 96.524881 145.217841 96.524881 
Q 147.009356 96.524881 147.948141 92.685502 
Q 148.443611 90.664011 148.688738 87.362727 
L 150.269027 87.362727 
Q 150.0578 92.634601 148.868672 96.204933 
Q 147.44224 100.502419 145.022261 100.502419 
Q 142.936072 100.502419 141.517464 96.975717 
Q 139.650324 92.321924 139.650324 82.592589 
Q 139.650324 75.211965 141.053287 70.485457 
Q 142.568381 65.344471 145.233488 65.344471 
z
M 144.907521 65.344471 
L 144.907521 65.344471 
z
" style="fill:#0000ff;"/>
   </g>
   <g id="patch_22">
    <path clip-path="url(#peca7444b2c)" d="M 146.77784 50.371665 
L 144.971339 34.228736 
L 143.050797 50.371665 
L 146.77784 50.371665 
z
M 144.128996 28.8 
L 145.951048 28.8 
L 150.269027 65.344471 
L 148.501403 65.344471 
L 147.296205 54.399437 
L 142.589453 54.399437 
L 141.301316 65.344471 
L 139.650324 65.344471 
L 144.128996 28.8 
z
M 144.963563 28.8 
L 144.963563 28.8 
z
" style="fill:#008000;"/>
   </g>
   <g id="patch_23">
    <path clip-path="url(#peca7444b2c)" d="M 156.304361 125.728276 
Q 157.942487 125.728276 159.137534 126.551694 
Q 160.869339 127.734121 161.256717 130.698425 
L 159.699611 130.698425 
Q 159.413509 129.041709 158.519755 128.284165 
Q 157.626002 127.52662 156.263851 127.52662 
Q 154.651043 127.52662 153.547144 129.104289 
Q 152.443245 130.678663 152.443245 133.79777 
Q 152.443245 136.491992 153.352189 138.184939 
Q 154.263666 139.877886 156.319552 139.877886 
Q 157.894381 139.877886 158.927388 138.692165 
Q 159.960394 137.503149 159.983181 134.845157 
L 156.344871 134.845157 
L 156.344871 133.148916 
L 161.446608 133.148916 
L 161.446608 141.238172 
L 160.433856 141.238172 
L 160.054074 139.291613 
Q 159.256532 140.434516 158.638753 140.879162 
Q 157.600683 141.64 156.003067 141.64 
Q 153.939585 141.64 152.45084 139.900942 
Q 150.827906 137.717238 150.827906 133.909754 
Q 150.827906 130.112152 152.41033 127.869162 
Q 153.914267 125.728276 156.304361 125.728276 
z
M 156.043577 125.70522 
L 156.043577 125.70522 
z
" style="fill:#ffa600;"/>
   </g>
   <g id="patch_24">
    <path clip-path="url(#peca7444b2c)" d="M 161.446608 98.052488 
L 161.446608 101.347204 
L 157.036639 101.347204 
L 157.036639 125.70522 
L 155.237874 125.70522 
L 155.237874 101.347204 
L 150.827906 101.347204 
L 150.827906 98.052488 
L 161.446608 98.052488 
z
" style="fill:#ff0000;"/>
   </g>
   <g id="patch_25">
    <path clip-path="url(#peca7444b2c)" d="M 156.411069 63.720726 
Q 158.685015 63.720726 159.939336 66.987037 
Q 161.193657 70.246246 161.331867 74.39304 
L 159.751579 74.39304 
Q 159.482982 71.247441 158.679799 69.408367 
Q 157.876617 67.562191 156.426715 67.562191 
Q 154.65867 67.562191 153.571244 70.949213 
Q 152.483818 74.329134 152.483818 81.316198 
Q 152.483818 87.046442 153.464327 90.610981 
Q 154.447444 94.168419 156.395423 94.168419 
Q 158.186937 94.168419 159.125722 90.419262 
Q 159.621192 88.445275 159.866319 85.221569 
L 161.446608 85.221569 
Q 161.235381 90.369558 160.046253 93.855989 
Q 158.619822 98.052488 156.199842 98.052488 
Q 154.113653 98.052488 152.695045 94.60866 
Q 150.827906 90.064229 150.827906 80.563526 
Q 150.827906 73.356342 152.230868 68.740903 
Q 153.745962 63.720726 156.411069 63.720726 
z
M 156.085102 63.720726 
L 156.085102 63.720726 
z
" style="fill:#0000ff;"/>
   </g>
   <g id="patch_26">
    <path clip-path="url(#peca7444b2c)" d="M 157.955421 49.413193 
L 156.14892 33.987527 
L 154.228378 49.413193 
L 157.955421 49.413193 
z
M 155.306577 28.8 
L 157.128629 28.8 
L 161.446608 63.720726 
L 159.678984 63.720726 
L 158.473786 53.262003 
L 153.767034 53.262003 
L 152.478897 63.720726 
L 150.827906 63.720726 
L 155.306577 28.8 
z
M 156.141144 28.8 
L 156.141144 28.8 
z
" style="fill:#008000;"/>
   </g>
   <g id="patch_27">
    <path clip-path="url(#peca7444b2c)" d="M 167.481942 123.130777 
Q 169.120068 123.130777 170.315115 124.088613 
Q 172.04692 125.464065 172.434298 128.912275 
L 170.877192 128.912275 
Q 170.59109 126.985109 169.697336 126.1039 
Q 168.803583 125.222691 167.441432 125.222691 
Q 165.828625 125.222691 164.724725 127.057904 
Q 163.620826 128.889287 163.620826 132.51757 
Q 163.620826 135.651609 164.52977 137.62092 
Q 165.441247 139.590231 167.497133 139.590231 
Q 169.071962 139.590231 170.104969 138.210947 
Q 171.137976 136.827832 171.160763 133.735937 
L 167.522452 133.735937 
L 167.522452 131.762795 
L 172.624189 131.762795 
L 172.624189 141.172576 
L 171.611437 141.172576 
L 171.231655 138.908252 
Q 170.434113 140.237728 169.816335 140.75496 
Q 168.778264 141.64 167.180648 141.64 
Q 165.117166 141.64 163.628421 139.61705 
Q 162.005487 137.076869 162.005487 132.647835 
Q 162.005487 128.230296 163.587911 125.62115 
Q 165.091848 123.130777 167.481942 123.130777 
z
M 167.221158 123.103957 
L 167.221158 123.103957 
z
" style="fill:#ffa600;"/>
   </g>
   <g id="patch_28">
    <path clip-path="url(#peca7444b2c)" d="M 172.624189 98.948205 
L 172.624189 101.82627 
L 168.21422 101.82627 
L 168.21422 123.103957 
L 166.415455 123.103957 
L 166.415455 101.82627 
L 162.005487 101.82627 
L 162.005487 98.948205 
L 172.624189 98.948205 
z
" style="fill:#ff0000;"/>
   </g>
   <g id="patch_29">
    <path clip-path="url(#peca7444b2c)" d="M 169.133002 84.938955 
L 167.326501 69.834883 
L 165.40596 84.938955 
L 169.133002 84.938955 
z
M 166.484158 64.755505 
L 168.30621 64.755505 
L 172.624189 98.948205 
L 170.856565 98.948205 
L 169.651367 88.707525 
L 164.944615 88.707525 
L 163.656478 98.948205 
L 162.005487 98.948205 
L 166.484158 64.755505 
z
M 167.318725 64.755505 
L 167.318725 64.755505 
z
" style="fill:#008000;"/>
   </g>
   <g id="patch_30">
    <path clip-path="url(#peca7444b2c)" d="M 167.58865 28.8 
Q 169.862596 28.8 171.116917 32.220793 
Q 172.371238 35.634149 172.509448 39.977068 
L 170.92916 39.977068 
Q 170.660563 36.682696 169.857381 34.756641 
Q 169.054198 32.82315 167.604296 32.82315 
Q 165.836251 32.82315 164.748825 36.370363 
Q 163.661399 39.91014 163.661399 47.227661 
Q 163.661399 53.228921 164.641908 56.962047 
Q 165.625025 60.687737 167.573004 60.687737 
Q 169.364518 60.687737 170.303304 56.761262 
Q 170.798773 54.693913 171.043901 51.31774 
L 172.624189 51.31774 
Q 172.412962 56.709206 171.223834 60.360531 
Q 169.797403 64.755505 167.377423 64.755505 
Q 165.291234 64.755505 163.872626 61.1488 
Q 162.005487 56.389436 162.005487 46.439392 
Q 162.005487 38.891338 163.408449 34.05761 
Q 164.923544 28.8 167.58865 28.8 
z
M 167.262683 28.8 
L 167.262683 28.8 
z
" style="fill:#0000ff;"/>
   </g>
   <g id="patch_31">
    <path clip-path="url(#peca7444b2c)" d="M 178.659523 125.667014 
Q 180.297649 125.667014 181.492696 126.493602 
Q 183.224501 127.680582 183.611879 130.656299 
L 182.054773 130.656299 
Q 181.768671 128.993204 180.874917 128.232743 
Q 179.981164 127.472282 178.619013 127.472282 
Q 177.006206 127.472282 175.902306 129.056025 
Q 174.798407 130.636461 174.798407 133.767576 
Q 174.798407 136.472172 175.707352 138.171637 
Q 176.618828 139.871102 178.674714 139.871102 
Q 180.249543 139.871102 181.28255 138.680815 
Q 182.315557 137.487222 182.338344 134.818996 
L 178.700033 134.818996 
L 178.700033 133.116225 
L 183.80177 133.116225 
L 183.80177 141.236625 
L 182.789018 141.236625 
L 182.409236 139.282571 
Q 181.611694 140.429875 180.993916 140.876233 
Q 179.955845 141.64 178.358229 141.64 
Q 176.294748 141.64 174.806003 139.894246 
Q 173.183068 137.702135 173.183068 133.879992 
Q 173.183068 130.067768 174.765492 127.816143 
Q 176.269429 125.667014 178.659523 125.667014 
z
M 178.398739 125.64387 
L 178.398739 125.64387 
z
" style="fill:#ffa600;"/>
   </g>
   <g id="patch_32">
    <path clip-path="url(#peca7444b2c)" d="M 183.80177 102.056633 
L 183.80177 104.866961 
L 179.391802 104.866961 
L 179.391802 125.64387 
L 177.593036 125.64387 
L 177.593036 104.866961 
L 173.183068 104.866961 
L 173.183068 102.056633 
L 183.80177 102.056633 
z
" style="fill:#ff0000;"/>
   </g>
   <g id="patch_33">
    <path clip-path="url(#peca7444b2c)" d="M 180.310583 87.430707 
L 178.504082 71.661767 
L 176.583541 87.430707 
L 180.310583 87.430707 
z
M 177.661739 66.3588 
L 179.483791 66.3588 
L 183.80177 102.056633 
L 182.034146 102.056633 
L 180.828948 91.365167 
L 176.122196 91.365167 
L 174.83406 102.056633 
L 173.183068 102.056633 
L 177.661739 66.3588 
z
M 178.496307 66.3588 
L 178.496307 66.3588 
z
" style="fill:#008000;"/>
   </g>
   <g id="patch_34">
    <path clip-path="url(#peca7444b2c)" d="M 178.766231 28.8 
Q 181.040177 28.8 182.294498 32.373329 
Q 183.548819 35.938891 183.68703 40.475465 
L 182.106741 40.475465 
Q 181.838145 37.034194 181.034962 35.022254 
Q 180.231779 33.002546 178.781878 33.002546 
Q 177.013832 33.002546 175.926406 36.707933 
Q 174.83898 40.405553 174.83898 48.04937 
Q 174.83898 54.318233 175.819489 58.217823 
Q 176.802606 62.109645 178.750585 62.109645 
Q 180.5421 62.109645 181.480885 58.008084 
Q 181.976355 55.84855 182.221482 52.321829 
L 183.80177 52.321829 
Q 183.590543 57.953707 182.401416 61.767848 
Q 180.974984 66.3588 178.555005 66.3588 
Q 176.468816 66.3588 175.050207 62.591267 
Q 173.183068 57.619679 173.183068 47.225951 
Q 173.183068 39.341322 174.58603 34.292052 
Q 176.101125 28.8 178.766231 28.8 
z
M 178.440264 28.8 
L 178.440264 28.8 
z
" style="fill:#0000ff;"/>
   </g>
   <g id="patch_35">
    <path clip-path="url(#peca7444b2c)" d="M 189.837104 123.608619 
Q 191.47523 123.608619 192.670277 124.541727 
Q 194.402083 125.88167 194.78946 129.240859 
L 193.232354 129.240859 
Q 192.946252 127.363446 192.052498 126.504986 
Q 191.158745 125.646527 189.796594 125.646527 
Q 188.183787 125.646527 187.079887 127.434362 
Q 185.975988 129.218465 185.975988 132.753078 
Q 185.975988 135.806208 186.884933 137.724678 
Q 187.796409 139.643149 189.852295 139.643149 
Q 191.427124 139.643149 192.460131 138.299473 
Q 193.493138 136.952065 193.515925 133.939992 
L 189.877614 133.939992 
L 189.877614 132.017789 
L 194.979351 132.017789 
L 194.979351 141.184643 
L 193.966599 141.184643 
L 193.586817 138.978776 
Q 192.789275 140.27393 192.171497 140.777808 
Q 191.133426 141.64 189.53581 141.64 
Q 187.472329 141.64 185.983584 139.669276 
Q 184.360649 137.194673 184.360649 132.879981 
Q 184.360649 128.576486 185.943074 126.0347 
Q 187.44701 123.608619 189.837104 123.608619 
z
M 189.57632 123.582492 
L 189.57632 123.582492 
z
" style="fill:#ffa600;"/>
   </g>
   <g id="patch_36">
    <path clip-path="url(#peca7444b2c)" d="M 194.979351 97.745735 
L 194.979351 100.824085 
L 190.569383 100.824085 
L 190.569383 123.582492 
L 188.770617 123.582492 
L 188.770617 100.824085 
L 184.360649 100.824085 
L 184.360649 97.745735 
L 194.979351 97.745735 
z
" style="fill:#ff0000;"/>
   </g>
   <g id="patch_37">
    <path clip-path="url(#peca7444b2c)" d="M 191.488164 83.944277 
L 189.681663 69.064237 
L 187.761122 83.944277 
L 191.488164 83.944277 
z
M 188.83932 64.060199 
L 190.661373 64.060199 
L 194.979351 97.745735 
L 193.211727 97.745735 
L 192.006529 87.65695 
L 187.299777 87.65695 
L 186.011641 97.745735 
L 184.360649 97.745735 
L 188.83932 64.060199 
z
M 189.673888 64.060199 
L 189.673888 64.060199 
z
" style="fill:#008000;"/>
   </g>
   <g id="patch_38">
    <path clip-path="url(#peca7444b2c)" d="M 189.943812 28.8 
Q 192.217758 28.8 193.472079 32.154642 
Q 194.726401 35.50199 194.864611 39.760927 
L 193.284322 39.760927 
Q 193.015726 36.530261 192.212543 34.641452 
Q 191.40936 32.74535 189.959459 32.74535 
Q 188.191414 32.74535 187.103988 36.223968 
Q 186.016561 39.695292 186.016561 46.871308 
Q 186.016561 52.756516 186.99707 56.417451 
Q 187.980187 60.071093 189.928166 60.071093 
Q 191.719681 60.071093 192.658466 56.220548 
Q 193.153936 54.193178 193.399063 50.882292 
L 194.979351 50.882292 
Q 194.768124 56.169499 193.578997 59.750214 
Q 192.152565 64.060199 189.732586 64.060199 
Q 187.646397 64.060199 186.227788 60.52324 
Q 184.360649 55.855913 184.360649 46.098282 
Q 184.360649 38.696192 185.763611 33.955938 
Q 187.278706 28.8 189.943812 28.8 
z
M 189.617845 28.8 
L 189.617845 28.8 
z
" style="fill:#0000ff;"/>
   </g>
   <g id="patch_39">
    <path clip-path="url(#peca7444b2c)" d="M 201.014685 122.338458 
Q 202.652811 122.338458 203.847858 123.337296 
Q 205.579664 124.771627 205.967041 128.367443 
L 204.409935 128.367443 
Q 204.123833 126.357781 203.23008 125.43885 
Q 202.336326 124.51992 200.974175 124.51992 
Q 199.361368 124.51992 198.257469 126.433693 
Q 197.153569 128.343471 197.153569 132.127069 
Q 197.153569 135.395266 198.062514 137.448876 
Q 198.97399 139.502487 201.029876 139.502487 
Q 202.604705 139.502487 203.637712 138.064161 
Q 204.670719 136.621839 204.693506 133.39759 
L 201.055195 133.39759 
L 201.055195 131.339984 
L 206.156932 131.339984 
L 206.156932 141.152567 
L 205.14418 141.152567 
L 204.764399 138.791315 
Q 203.966857 140.177701 203.349078 140.717074 
Q 202.311007 141.64 200.713392 141.64 
Q 198.64991 141.64 197.161165 139.530455 
Q 195.53823 136.881537 195.53823 132.26291 
Q 195.53823 127.65627 197.120655 124.935436 
Q 198.624591 122.338458 201.014685 122.338458 
z
M 200.753902 122.31049 
L 200.753902 122.31049 
z
" style="fill:#ffa600;"/>
   </g>
   <g id="patch_40">
    <path clip-path="url(#peca7444b2c)" d="M 206.156932 99.287678 
L 206.156932 102.030758 
L 201.746964 102.030758 
L 201.746964 122.31049 
L 199.948198 122.31049 
L 199.948198 102.030758 
L 195.53823 102.030758 
L 195.53823 99.287678 
L 206.156932 99.287678 
z
" style="fill:#ff0000;"/>
   </g>
   <g id="patch_41">
    <path clip-path="url(#peca7444b2c)" d="M 202.665746 85.479518 
L 200.859244 70.59225 
L 198.938703 85.479518 
L 202.665746 85.479518 
z
M 200.016902 65.585783 
L 201.838954 65.585783 
L 206.156932 99.287678 
L 204.389308 99.287678 
L 203.18411 89.193994 
L 198.477358 89.193994 
L 197.189222 99.287678 
L 195.53823 99.287678 
L 200.016902 65.585783 
z
M 200.851469 65.585783 
L 200.851469 65.585783 
z
" style="fill:#008000;"/>
   </g>
   <g id="patch_42">
    <path clip-path="url(#peca7444b2c)" d="M 201.121393 28.8 
Q 203.395339 28.8 204.649661 32.299785 
Q 205.903982 35.791962 206.042192 40.235167 
L 204.461904 40.235167 
Q 204.193307 36.864722 203.390124 34.894191 
Q 202.586941 32.916051 201.13704 32.916051 
Q 199.368995 32.916051 198.281569 36.545176 
Q 197.194143 40.166693 197.194143 47.653189 
Q 197.194143 53.793029 198.174651 57.61236 
Q 199.157768 61.424082 201.105747 61.424082 
Q 202.897262 61.424082 203.836047 57.406938 
Q 204.331517 55.29185 204.576644 51.837715 
L 206.156932 51.837715 
Q 205.945706 57.35368 204.756578 61.08932 
Q 203.330146 65.585783 200.910167 65.585783 
Q 198.823978 65.585783 197.405369 61.895792 
Q 195.53823 57.026526 195.53823 46.846717 
Q 195.53823 39.124365 196.941192 34.179017 
Q 198.456287 28.8 201.121393 28.8 
z
M 200.795426 28.8 
L 200.795426 28.8 
z
" style="fill:#0000ff;"/>
   </g>
   <g id="patch_43">
    <path clip-path="url(#peca7444b2c)" d="M 212.192266 120.525109 
Q 213.830392 120.525109 215.025439 121.617786 
Q 216.757245 123.186871 217.144622 127.120508 
L 215.587517 127.120508 
Q 215.301414 124.922042 214.407661 123.916779 
Q 213.513907 122.911516 212.151756 122.911516 
Q 210.538949 122.911516 209.43505 125.005085 
Q 208.33115 127.094284 208.33115 131.233344 
Q 208.33115 134.808583 209.240095 137.055127 
Q 210.151572 139.301671 212.207458 139.301671 
Q 213.782287 139.301671 214.815293 137.728216 
Q 215.8483 136.150391 215.871087 132.623229 
L 212.232776 132.623229 
L 212.232776 130.372315 
L 217.334513 130.372315 
L 217.334513 141.106774 
L 216.321762 141.106774 
L 215.94198 138.523685 
Q 215.144438 140.040321 214.526659 140.630366 
Q 213.488589 141.64 211.890973 141.64 
Q 209.827491 141.64 208.338746 139.332266 
Q 206.715811 136.434487 206.715811 131.381948 
Q 206.715811 126.342522 208.298236 123.36607 
Q 209.802172 120.525109 212.192266 120.525109 
z
M 211.931483 120.494514 
L 211.931483 120.494514 
z
" style="fill:#ffa600;"/>
   </g>
   <g id="patch_44">
    <path clip-path="url(#peca7444b2c)" d="M 217.334513 98.821414 
L 217.334513 101.403681 
L 212.924545 101.403681 
L 212.924545 120.494514 
L 211.12578 120.494514 
L 211.12578 101.403681 
L 206.715811 101.403681 
L 206.715811 98.821414 
L 217.334513 98.821414 
z
" style="fill:#ff0000;"/>
   </g>
   <g id="patch_45">
    <path clip-path="url(#peca7444b2c)" d="M 213.843327 85.095365 
L 212.036825 70.296627 
L 210.116284 85.095365 
L 213.843327 85.095365 
z
M 211.194483 65.31993 
L 213.016535 65.31993 
L 217.334513 98.821414 
L 215.566889 98.821414 
L 214.361691 88.787753 
L 209.654939 88.787753 
L 208.366803 98.821414 
L 206.715811 98.821414 
L 211.194483 65.31993 
z
M 212.02905 65.31993 
L 212.02905 65.31993 
z
" style="fill:#008000;"/>
   </g>
   <g id="patch_46">
    <path clip-path="url(#peca7444b2c)" d="M 212.298975 28.8 
Q 214.572921 28.8 215.827242 32.274492 
Q 217.081563 35.74143 217.219773 40.152524 
L 215.639485 40.152524 
Q 215.370888 36.806438 214.567705 34.850148 
Q 213.764522 32.886305 212.314621 32.886305 
Q 210.546576 32.886305 209.45915 36.489201 
Q 208.371724 40.084545 208.371724 47.516936 
Q 208.371724 53.612404 209.352233 57.404132 
Q 210.335349 61.188306 212.283328 61.188306 
Q 214.074843 61.188306 215.013628 57.200194 
Q 215.509098 55.100392 215.754225 51.67122 
L 217.334513 51.67122 
Q 217.123287 57.147321 215.934159 60.855964 
Q 214.507727 65.31993 212.087748 65.31993 
Q 210.001559 65.31993 208.58295 61.656608 
Q 206.715811 56.822532 206.715811 46.716293 
Q 206.715811 39.049751 208.118773 34.140143 
Q 209.633868 28.8 212.298975 28.8 
z
M 211.973008 28.8 
L 211.973008 28.8 
z
" style="fill:#0000ff;"/>
   </g>
   <g id="patch_47">
    <path clip-path="url(#peca7444b2c)" d="M 228.512094 116.703051 
L 228.512094 119.674193 
L 224.102126 119.674193 
L 224.102126 141.64 
L 222.303361 141.64 
L 222.303361 119.674193 
L 217.893392 119.674193 
L 217.893392 116.703051 
L 228.512094 116.703051 
z
" style="fill:#ff0000;"/>
   </g>
   <g id="patch_48">
    <path clip-path="url(#peca7444b2c)" d="M 223.369847 89.972498 
Q 225.007973 89.972498 226.20302 91.355781 
Q 227.934826 93.342175 228.322203 98.321992 
L 226.765098 98.321992 
Q 226.478995 95.538827 225.585242 94.266207 
Q 224.691488 92.993587 223.329337 92.993587 
Q 221.71653 92.993587 220.612631 95.643957 
Q 219.508731 98.288793 219.508731 103.528668 
Q 219.508731 108.054768 220.417676 110.898797 
Q 221.329153 113.742826 223.385039 113.742826 
Q 224.959868 113.742826 225.992874 111.7509 
Q 227.025881 109.753439 227.048668 105.288203 
L 223.410357 105.288203 
L 223.410357 102.438641 
L 228.512094 102.438641 
L 228.512094 116.028009 
L 227.499343 116.028009 
L 227.119561 112.757929 
Q 226.322019 114.677925 225.70424 115.424898 
Q 224.66617 116.703051 223.068554 116.703051 
Q 221.005072 116.703051 219.516327 113.781558 
Q 217.893392 110.113093 217.893392 103.716794 
Q 217.893392 97.337095 219.475817 93.569033 
Q 220.979753 89.972498 223.369847 89.972498 
z
M 223.109064 89.933766 
L 223.109064 89.933766 
z
" style="fill:#ffa600;"/>
   </g>
   <g id="patch_49">
    <path clip-path="url(#peca7444b2c)" d="M 225.020908 77.774541 
L 223.214407 64.665074 
L 221.293865 77.774541 
L 225.020908 77.774541 
z
M 222.372064 60.256466 
L 224.194116 60.256466 
L 228.512094 89.933766 
L 226.744471 89.933766 
L 225.539273 81.045444 
L 220.832521 81.045444 
L 219.544384 89.933766 
L 217.893392 89.933766 
L 222.372064 60.256466 
z
M 223.206631 60.256466 
L 223.206631 60.256466 
z
" style="fill:#008000;"/>
   </g>
   <g id="patch_50">
    <path clip-path="url(#peca7444b2c)" d="M 223.476556 28.8 
Q 225.750502 28.8 227.004823 31.792756 
Q 228.259144 34.779006 228.397354 38.578504 
L 226.817066 38.578504 
Q 226.548469 35.69635 225.745286 34.011299 
Q 224.942103 32.319741 223.492202 32.319741 
Q 221.724157 32.319741 220.636731 35.423099 
Q 219.549305 38.51995 219.549305 44.921845 
Q 219.549305 50.17218 220.529814 53.438188 
Q 221.51293 56.697689 223.460909 56.697689 
Q 225.252424 56.697689 226.191209 53.262526 
Q 226.686679 51.45386 226.931806 48.50014 
L 228.512094 48.50014 
Q 228.300868 53.216984 227.11174 56.411425 
Q 225.685308 60.256466 223.265329 60.256466 
Q 221.17914 60.256466 219.760531 57.10106 
Q 217.893392 52.937226 217.893392 44.23221 
Q 217.893392 37.62863 219.296354 33.399736 
Q 220.811449 28.8 223.476556 28.8 
z
M 223.150589 28.8 
L 223.150589 28.8 
z
" style="fill:#0000ff;"/>
   </g>
   <g id="patch_51">
    <path clip-path="url(#peca7444b2c)" d="M 239.689676 120.911698 
L 239.689676 123.381396 
L 235.279707 123.381396 
L 235.279707 141.64 
L 233.480942 141.64 
L 233.480942 123.381396 
L 229.070973 123.381396 
L 229.070973 120.911698 
L 239.689676 120.911698 
z
" style="fill:#ff0000;"/>
   </g>
   <g id="patch_52">
    <path clip-path="url(#peca7444b2c)" d="M 234.547429 90.329822 
Q 236.185554 90.329822 237.380602 91.912407 
Q 239.112407 94.184999 239.499785 99.882306 
L 237.942679 99.882306 
Q 237.656576 96.698145 236.762823 95.242166 
Q 235.86907 93.786188 234.506918 93.786188 
Q 232.894111 93.786188 231.790212 96.818421 
Q 230.686312 99.844324 230.686312 105.839157 
Q 230.686312 111.017375 231.595257 114.271171 
Q 232.506734 117.524966 234.56262 117.524966 
Q 236.137449 117.524966 237.170456 115.246043 
Q 238.203462 112.96079 238.226249 107.852205 
L 234.587939 107.852205 
L 234.587939 104.59208 
L 239.689676 104.59208 
L 239.689676 120.139397 
L 238.676924 120.139397 
L 238.297142 116.398165 
Q 237.4996 118.594793 236.881821 119.449389 
Q 235.843751 120.911698 234.246135 120.911698 
Q 232.182653 120.911698 230.693908 117.569278 
Q 229.070973 113.372262 229.070973 106.054388 
Q 229.070973 98.755505 230.653398 94.444543 
Q 232.157334 90.329822 234.547429 90.329822 
z
M 234.286645 90.285509 
L 234.286645 90.285509 
z
" style="fill:#ffa600;"/>
   </g>
   <g id="patch_53">
    <path clip-path="url(#peca7444b2c)" d="M 234.654137 59.54889 
Q 236.928083 59.54889 238.182404 62.47316 
Q 239.436725 65.391072 239.574935 69.103624 
L 237.994647 69.103624 
Q 237.72605 66.287425 236.922867 64.640934 
Q 236.119685 62.988085 234.669783 62.988085 
Q 232.901738 62.988085 231.814312 66.020426 
Q 230.726886 69.04641 230.726886 75.301805 
Q 230.726886 80.431991 231.707395 83.62326 
Q 232.690511 86.808171 234.63849 86.808171 
Q 236.430005 86.808171 237.36879 83.451618 
Q 237.86426 81.684342 238.109387 78.798214 
L 239.689676 78.798214 
Q 239.478449 83.407118 238.289321 86.528458 
Q 236.862889 90.285509 234.44291 90.285509 
Q 232.356721 90.285509 230.938113 87.202312 
Q 229.070973 83.133762 229.070973 74.627951 
Q 229.070973 68.175486 230.473936 64.043365 
Q 231.98903 59.54889 234.654137 59.54889 
z
M 234.32817 59.54889 
L 234.32817 59.54889 
z
" style="fill:#0000ff;"/>
   </g>
   <g id="patch_54">
    <path clip-path="url(#peca7444b2c)" d="M 236.198489 46.950619 
L 234.391988 33.367794 
L 232.471446 46.950619 
L 236.198489 46.950619 
z
M 233.549645 28.8 
L 235.371697 28.8 
L 239.689676 59.54889 
L 237.922052 59.54889 
L 236.716854 50.339627 
L 232.010102 50.339627 
L 230.721965 59.54889 
L 229.070973 59.54889 
L 233.549645 28.8 
z
M 234.384212 28.8 
L 234.384212 28.8 
z
" style="fill:#008000;"/>
   </g>
   <g id="patch_55">
    <path clip-path="url(#peca7444b2c)" d="M 250.867257 120.907608 
L 250.867257 123.377793 
L 246.457288 123.377793 
L 246.457288 141.64 
L 244.658523 141.64 
L 244.658523 123.377793 
L 240.248555 123.377793 
L 240.248555 120.907608 
L 250.867257 120.907608 
z
" style="fill:#ff0000;"/>
   </g>
   <g id="patch_56">
    <path clip-path="url(#peca7444b2c)" d="M 245.831718 92.408238 
Q 248.105664 92.408238 249.359985 95.119657 
Q 250.614306 97.825181 250.752516 101.267504 
L 249.172228 101.267504 
Q 248.903631 98.65629 248.100448 97.129644 
Q 247.297266 95.597102 245.847364 95.597102 
Q 244.079319 95.597102 242.991893 98.408726 
Q 241.904467 101.214455 241.904467 107.014534 
Q 241.904467 111.771305 242.884976 114.730289 
Q 243.868093 117.683377 245.816071 117.683377 
Q 247.607586 117.683377 248.546371 114.57114 
Q 249.041841 112.9325 249.286968 110.256447 
L 250.867257 110.256447 
Q 250.65603 114.529879 249.466902 117.424024 
Q 248.040471 120.907608 245.620491 120.907608 
Q 243.534302 120.907608 242.115694 118.04883 
Q 240.248555 114.276421 240.248555 106.389728 
Q 240.248555 100.406924 241.651517 96.575571 
Q 243.166611 92.408238 245.831718 92.408238 
z
M 245.505751 92.408238 
L 245.505751 92.408238 
z
" style="fill:#0000ff;"/>
   </g>
   <g id="patch_57">
    <path clip-path="url(#peca7444b2c)" d="M 245.72501 61.050379 
Q 247.363136 61.050379 248.558183 62.673121 
Q 250.289988 65.003378 250.677366 70.845248 
L 249.12026 70.845248 
Q 248.834158 67.580292 247.940404 66.087369 
Q 247.046651 64.594447 245.6845 64.594447 
Q 244.071692 64.594447 242.967793 67.70362 
Q 241.863894 70.806302 241.863894 76.953247 
Q 241.863894 82.262858 242.772838 85.599214 
Q 243.684315 88.935571 245.740201 88.935571 
Q 247.31503 88.935571 248.348037 86.598823 
Q 249.381043 84.255584 249.40383 79.017374 
L 245.76552 79.017374 
L 245.76552 75.674527 
L 250.867257 75.674527 
L 250.867257 91.61634 
L 249.854505 91.61634 
L 249.474723 87.780179 
Q 248.677181 90.032544 248.059402 90.908825 
Q 247.021332 92.408238 245.423716 92.408238 
Q 243.360234 92.408238 241.871489 88.981008 
Q 240.248555 84.677497 240.248555 77.17394 
Q 240.248555 69.689856 241.830979 65.269507 
Q 243.334916 61.050379 245.72501 61.050379 
z
M 245.464226 61.004943 
L 245.464226 61.004943 
z
" style="fill:#ffa600;"/>
   </g>
   <g id="patch_58">
    <path clip-path="url(#peca7444b2c)" d="M 247.37607 47.810105 
L 245.569569 33.584093 
L 243.649027 47.810105 
L 247.37607 47.810105 
z
M 244.727226 28.8 
L 246.549278 28.8 
L 250.867257 61.004943 
L 249.099633 61.004943 
L 247.894435 51.359594 
L 243.187683 51.359594 
L 241.899546 61.004943 
L 240.248555 61.004943 
L 244.727226 28.8 
z
M 245.561793 28.8 
L 245.561793 28.8 
z
" style="fill:#008000;"/>
   </g>
   <g id="patch_59">
    <path clip-path="url(#peca7444b2c)" d="M 257.009299 117.954602 
Q 259.283245 117.954602 260.537566 120.208022 
Q 261.791887 122.456542 261.930097 125.317405 
L 260.349809 125.317405 
Q 260.081212 123.147264 259.27803 121.878491 
Q 258.474847 120.604819 257.024945 120.604819 
Q 255.2569 120.604819 254.169474 122.941517 
Q 253.082048 125.273317 253.082048 130.093675 
Q 253.082048 134.046956 254.062557 136.506123 
Q 255.045674 138.96039 256.993653 138.96039 
Q 258.785167 138.96039 259.723952 136.373857 
Q 260.219422 135.012008 260.46455 132.787981 
L 262.044838 132.787981 
Q 261.833611 136.339566 260.644483 138.744846 
Q 259.218052 141.64 256.798072 141.64 
Q 254.711883 141.64 253.293275 139.264112 
Q 251.426136 136.12892 251.426136 129.574409 
Q 251.426136 124.60219 252.829098 121.41801 
Q 254.344193 117.954602 257.009299 117.954602 
z
M 256.683332 117.954602 
L 256.683332 117.954602 
z
" style="fill:#0000ff;"/>
   </g>
   <g id="patch_60">
    <path clip-path="url(#peca7444b2c)" d="M 258.553651 108.004013 
L 256.74715 97.275785 
L 254.826609 108.004013 
L 258.553651 108.004013 
z
M 255.904807 93.667969 
L 257.726859 93.667969 
L 262.044838 117.954602 
L 260.277214 117.954602 
L 259.072016 110.680779 
L 254.365264 110.680779 
L 253.077127 117.954602 
L 251.426136 117.954602 
L 255.904807 93.667969 
z
M 256.739374 93.667969 
L 256.739374 93.667969 
z
" style="fill:#008000;"/>
   </g>
   <g id="patch_61">
    <path clip-path="url(#peca7444b2c)" d="M 262.044838 63.663466 
L 262.044838 67.238387 
L 257.634869 67.238387 
L 257.634869 93.667969 
L 255.836104 93.667969 
L 255.836104 67.238387 
L 251.426136 67.238387 
L 251.426136 63.663466 
L 262.044838 63.663466 
z
" style="fill:#ff0000;"/>
   </g>
   <g id="patch_62">
    <path clip-path="url(#peca7444b2c)" d="M 256.902591 28.850443 
Q 258.540717 28.850443 259.735764 30.651987 
Q 261.467569 33.239003 261.854947 39.724559 
L 260.297841 39.724559 
Q 260.011739 36.099853 259.117985 34.442434 
Q 258.224232 32.785014 256.862081 32.785014 
Q 255.249274 32.785014 254.145374 36.236771 
Q 253.041475 39.681322 253.041475 46.505568 
Q 253.041475 52.400217 253.950419 56.10419 
Q 254.861896 59.808163 256.917782 59.808163 
Q 258.492611 59.808163 259.525618 57.213941 
Q 260.558625 54.612512 260.581411 48.797131 
L 256.943101 48.797131 
L 256.943101 45.085951 
L 262.044838 45.085951 
L 262.044838 62.784313 
L 261.032086 62.784313 
L 260.652304 58.525464 
Q 259.854762 61.026006 259.236984 61.99884 
Q 258.198913 63.663466 256.601297 63.663466 
Q 254.537815 63.663466 253.04907 59.858606 
Q 251.426136 55.080914 251.426136 46.750577 
Q 251.426136 38.44186 253.00856 33.534456 
Q 254.512497 28.850443 256.902591 28.850443 
z
M 256.641807 28.8 
L 256.641807 28.8 
z
" style="fill:#ffa600;"/>
   </g>
   <g id="patch_63">
    <path clip-path="url(#peca7444b2c)" d="M 268.18688 122.093719 
Q 270.460826 122.093719 271.715147 123.953344 
Q 272.969468 125.808927 273.107678 128.169843 
L 271.52739 128.169843 
Q 271.258793 126.378943 270.455611 125.331893 
Q 269.652428 124.2808 268.202527 124.2808 
Q 266.434481 124.2808 265.347055 126.209151 
Q 264.259629 128.133459 264.259629 132.11144 
Q 264.259629 135.37387 265.240138 137.403288 
Q 266.223255 139.428663 268.171234 139.428663 
Q 269.962749 139.428663 270.901534 137.294136 
Q 271.397003 136.170275 271.642131 134.334906 
L 273.222419 134.334906 
Q 273.011192 137.265837 271.822065 139.250785 
Q 270.395633 141.64 267.975654 141.64 
Q 265.889465 141.64 264.470856 139.679308 
Q 262.603717 137.092003 262.603717 131.682918 
Q 262.603717 127.579614 264.006679 124.951882 
Q 265.521774 122.093719 268.18688 122.093719 
z
M 267.860913 122.093719 
L 267.860913 122.093719 
z
" style="fill:#0000ff;"/>
   </g>
   <g id="patch_64">
    <path clip-path="url(#peca7444b2c)" d="M 269.731232 110.405379 
L 267.924731 97.803596 
L 266.00419 110.405379 
L 269.731232 110.405379 
z
M 267.082388 93.565718 
L 268.90444 93.565718 
L 273.222419 122.093719 
L 271.454795 122.093719 
L 270.249597 113.54961 
L 265.542845 113.54961 
L 264.254709 122.093719 
L 262.603717 122.093719 
L 267.082388 93.565718 
z
M 267.916956 93.565718 
L 267.916956 93.565718 
z
" style="fill:#008000;"/>
   </g>
   <g id="patch_65">
    <path clip-path="url(#peca7444b2c)" d="M 273.222419 62.383285 
L 273.222419 66.098552 
L 268.812451 66.098552 
L 268.812451 93.565718 
L 267.013685 93.565718 
L 267.013685 66.098552 
L 262.603717 66.098552 
L 262.603717 62.383285 
L 273.222419 62.383285 
z
" style="fill:#ff0000;"/>
   </g>
   <g id="patch_66">
    <path clip-path="url(#peca7444b2c)" d="M 268.080172 28.848591 
Q 269.718298 28.848591 270.913345 30.583982 
Q 272.64515 33.076003 273.032528 39.32341 
L 271.475422 39.32341 
Q 271.18932 35.831804 270.295566 34.235244 
Q 269.401813 32.638685 268.039662 32.638685 
Q 266.426855 32.638685 265.322955 35.963694 
Q 264.219056 39.281761 264.219056 45.855422 
Q 264.219056 51.533621 265.128001 55.101584 
Q 266.039477 58.669548 268.095363 58.669548 
Q 269.670192 58.669548 270.703199 56.170585 
Q 271.736206 53.664681 271.758993 48.062839 
L 268.120682 48.062839 
L 268.120682 44.487934 
L 273.222419 44.487934 
L 273.222419 61.536414 
L 272.209667 61.536414 
L 271.829885 57.43395 
Q 271.032343 59.842672 270.414565 60.779783 
Q 269.376494 62.383285 267.778878 62.383285 
Q 265.715397 62.383285 264.226651 58.718139 
Q 262.603717 54.115882 262.603717 46.091435 
Q 262.603717 38.087812 264.186141 33.360607 
Q 265.690078 28.848591 268.080172 28.848591 
z
M 267.819388 28.8 
L 267.819388 28.8 
z
" style="fill:#ffa600;"/>
   </g>
   <g id="patch_67">
    <path clip-path="url(#peca7444b2c)" d="M 284.4 131.001817 
L 284.4 132.269315 
L 279.990032 132.269315 
L 279.990032 141.64 
L 278.191266 141.64 
L 278.191266 132.269315 
L 273.781298 132.269315 
L 273.781298 131.001817 
L 284.4 131.001817 
z
" style="fill:#ff0000;"/>
   </g>
   <g id="patch_68">
    <path clip-path="url(#peca7444b2c)" d="M 279.364461 113.893197 
Q 281.638407 113.893197 282.892728 115.520904 
Q 284.14705 117.145073 284.28526 119.211554 
L 282.704971 119.211554 
Q 282.436375 117.644001 281.633192 116.727531 
Q 280.830009 115.807522 279.380108 115.807522 
Q 277.612063 115.807522 276.524636 117.495384 
Q 275.43721 119.179707 275.43721 122.661586 
Q 275.43721 125.51715 276.417719 127.293475 
Q 277.400836 129.06626 279.348815 129.06626 
Q 281.14033 129.06626 282.079115 127.197935 
Q 282.574585 126.214234 282.819712 124.607757 
L 284.4 124.607757 
Q 284.188773 127.173166 282.999646 128.910567 
Q 281.573214 131.001817 279.153235 131.001817 
Q 277.067046 131.001817 275.648437 129.285647 
Q 273.781298 127.021011 273.781298 122.286505 
Q 273.781298 118.694933 275.18426 116.394912 
Q 276.699355 113.893197 279.364461 113.893197 
z
M 279.038494 113.893197 
L 279.038494 113.893197 
z
" style="fill:#0000ff;"/>
   </g>
   <g id="patch_69">
    <path clip-path="url(#peca7444b2c)" d="M 279.257753 89.645787 
Q 280.895879 89.645787 282.090926 90.90057 
Q 283.822732 92.702437 284.210109 97.219652 
L 282.653003 97.219652 
Q 282.366901 94.695031 281.473147 93.540631 
Q 280.579394 92.386232 279.217243 92.386232 
Q 277.604436 92.386232 276.500536 94.790394 
Q 275.396637 97.189537 275.396637 101.942652 
Q 275.396637 106.048299 276.305582 108.628131 
Q 277.217058 111.207963 279.272944 111.207963 
Q 280.847773 111.207963 281.88078 109.401077 
Q 282.913787 107.589171 282.936574 103.538735 
L 279.298263 103.538735 
L 279.298263 100.953884 
L 284.4 100.953884 
L 284.4 113.280863 
L 283.387248 113.280863 
L 283.007466 110.314558 
Q 282.209924 112.056196 281.592146 112.733778 
Q 280.554075 113.893197 278.956459 113.893197 
Q 276.892978 113.893197 275.404233 111.243097 
Q 273.781298 107.915415 273.781298 102.113302 
Q 273.781298 96.326247 275.363723 92.908221 
Q 276.867659 89.645787 279.257753 89.645787 
z
M 278.996969 89.610654 
L 278.996969 89.610654 
z
" style="fill:#ffa600;"/>
   </g>
   <g id="patch_70">
    <path clip-path="url(#peca7444b2c)" d="M 280.908813 64.695637 
L 279.102312 37.833515 
L 277.181771 64.695637 
L 280.908813 64.695637 
z
M 278.259969 28.8 
L 280.082022 28.8 
L 284.4 89.610654 
L 282.632376 89.610654 
L 281.427178 71.397922 
L 276.720426 71.397922 
L 275.43229 89.610654 
L 273.781298 89.610654 
L 278.259969 28.8 
z
M 279.094537 28.8 
L 279.094537 28.8 
z
" style="fill:#008000;"/>
   </g>
   <g id="matplotlib.axis_1">
    <g id="xtick_1">
     <g id="line2d_2">
      <path clip-path="url(#peca7444b2c)" d="M 100.249351 141.64 
L 100.249351 28.8 
" style="fill:none;stroke:#cccccc;stroke-linecap:round;stroke-width:0.8;"/>
     </g>
     <g id="text_1">
      <!-- 0 -->
      <g style="fill:#262626;" transform="translate(94.688414 162.986875)scale(0.2 -0.2)">
       <defs>
        <path d="M 1731 4475 
Q 2600 4475 2988 3759 
Q 3288 3206 3288 2244 
Q 3288 1331 3016 734 
Q 2622 -122 1728 -122 
Q 922 -122 528 578 
Q 200 1163 200 2147 
Q 200 2909 397 3456 
Q 766 4475 1731 4475 
z
M 1725 391 
Q 2163 391 2422 778 
Q 2681 1166 2681 2222 
Q 2681 2984 2493 3476 
Q 2306 3969 1766 3969 
Q 1269 3969 1039 3501 
Q 809 3034 809 2125 
Q 809 1441 956 1025 
Q 1181 391 1725 391 
z
" id="Helvetica-30" transform="scale(0.015625)"/>
       </defs>
       <use xlink:href="#Helvetica-30"/>
      </g>
     </g>
    </g>
    <g id="xtick_2">
     <g id="line2d_3">
      <path clip-path="url(#peca7444b2c)" d="M 212.025162 141.64 
L 212.025162 28.8 
" style="fill:none;stroke:#cccccc;stroke-linecap:round;stroke-width:0.8;"/>
     </g>
     <g id="text_2">
      <!-- 10 -->
      <g style="fill:#262626;" transform="translate(200.903287 162.986875)scale(0.2 -0.2)">
       <defs>
        <path d="M 613 3169 
L 613 3600 
Q 1222 3659 1462 3798 
Q 1703 3938 1822 4456 
L 2266 4456 
L 2266 0 
L 1666 0 
L 1666 3169 
L 613 3169 
z
" id="Helvetica-31" transform="scale(0.015625)"/>
       </defs>
       <use xlink:href="#Helvetica-31"/>
       <use x="55.615234" xlink:href="#Helvetica-30"/>
      </g>
     </g>
    </g>
    <g id="text_3">
     <!-- Position -->
     <g style="fill:#262626;" transform="translate(145.20125 189.089219)scale(0.25 -0.25)">
      <defs>
       <path d="M 547 4591 
L 2613 4591 
Q 3225 4591 3600 4245 
Q 3975 3900 3975 3275 
Q 3975 2738 3640 2339 
Q 3306 1941 2613 1941 
L 1169 1941 
L 1169 0 
L 547 0 
L 547 4591 
z
M 3347 3272 
Q 3347 3778 2972 3959 
Q 2766 4056 2406 4056 
L 1169 4056 
L 1169 2466 
L 2406 2466 
Q 2825 2466 3086 2644 
Q 3347 2822 3347 3272 
z
" id="Helvetica-50" transform="scale(0.015625)"/>
       <path d="M 1741 363 
Q 2300 363 2508 786 
Q 2716 1209 2716 1728 
Q 2716 2197 2566 2491 
Q 2328 2953 1747 2953 
Q 1231 2953 997 2559 
Q 763 2166 763 1609 
Q 763 1075 997 719 
Q 1231 363 1741 363 
z
M 1763 3444 
Q 2409 3444 2856 3012 
Q 3303 2581 3303 1744 
Q 3303 934 2909 406 
Q 2516 -122 1688 -122 
Q 997 -122 590 345 
Q 184 813 184 1600 
Q 184 2444 612 2944 
Q 1041 3444 1763 3444 
z
M 1744 3428 
L 1744 3428 
z
" id="Helvetica-6f" transform="scale(0.015625)"/>
       <path d="M 747 1050 
Q 772 769 888 619 
Q 1100 347 1625 347 
Q 1938 347 2175 483 
Q 2413 619 2413 903 
Q 2413 1119 2222 1231 
Q 2100 1300 1741 1391 
L 1294 1503 
Q 866 1609 663 1741 
Q 300 1969 300 2372 
Q 300 2847 642 3140 
Q 984 3434 1563 3434 
Q 2319 3434 2653 2991 
Q 2863 2709 2856 2384 
L 2325 2384 
Q 2309 2575 2191 2731 
Q 1997 2953 1519 2953 
Q 1200 2953 1036 2831 
Q 872 2709 872 2509 
Q 872 2291 1088 2159 
Q 1213 2081 1456 2022 
L 1828 1931 
Q 2434 1784 2641 1647 
Q 2969 1431 2969 969 
Q 2969 522 2630 197 
Q 2291 -128 1597 -128 
Q 850 -128 539 211 
Q 228 550 206 1050 
L 747 1050 
z
M 1578 3428 
L 1578 3428 
z
" id="Helvetica-73" transform="scale(0.015625)"/>
       <path d="M 413 3331 
L 984 3331 
L 984 0 
L 413 0 
L 413 3331 
z
M 413 4591 
L 984 4591 
L 984 3953 
L 413 3953 
L 413 4591 
z
" id="Helvetica-69" transform="scale(0.015625)"/>
       <path d="M 525 4281 
L 1094 4281 
L 1094 3347 
L 1628 3347 
L 1628 2888 
L 1094 2888 
L 1094 703 
Q 1094 528 1213 469 
Q 1278 434 1431 434 
Q 1472 434 1519 436 
Q 1566 438 1628 444 
L 1628 0 
Q 1531 -28 1426 -40 
Q 1322 -53 1200 -53 
Q 806 -53 665 148 
Q 525 350 525 672 
L 525 2888 
L 72 2888 
L 72 3347 
L 525 3347 
L 525 4281 
z
" id="Helvetica-74" transform="scale(0.015625)"/>
       <path d="M 413 3347 
L 947 3347 
L 947 2872 
Q 1184 3166 1450 3294 
Q 1716 3422 2041 3422 
Q 2753 3422 3003 2925 
Q 3141 2653 3141 2147 
L 3141 0 
L 2569 0 
L 2569 2109 
Q 2569 2416 2478 2603 
Q 2328 2916 1934 2916 
Q 1734 2916 1606 2875 
Q 1375 2806 1200 2600 
Q 1059 2434 1017 2257 
Q 975 2081 975 1753 
L 975 0 
L 413 0 
L 413 3347 
z
M 1734 3428 
L 1734 3428 
z
" id="Helvetica-6e" transform="scale(0.015625)"/>
      </defs>
      <use xlink:href="#Helvetica-50"/>
      <use x="66.699219" xlink:href="#Helvetica-6f"/>
      <use x="122.314453" xlink:href="#Helvetica-73"/>
      <use x="172.314453" xlink:href="#Helvetica-69"/>
      <use x="194.53125" xlink:href="#Helvetica-74"/>
      <use x="222.314453" xlink:href="#Helvetica-69"/>
      <use x="244.53125" xlink:href="#Helvetica-6f"/>
      <use x="300.146484" xlink:href="#Helvetica-6e"/>
     </g>
    </g>
   </g>
   <g id="matplotlib.axis_2">
    <g id="ytick_1">
     <g id="line2d_4">
      <path clip-path="url(#peca7444b2c)" d="M 94.94 141.64 
L 284.4 141.64 
" style="fill:none;stroke:#cccccc;stroke-linecap:round;stroke-width:0.8;"/>
     </g>
     <g id="text_4">
      <!-- 0 -->
      <g style="fill:#262626;" transform="translate(76.818125 148.813438)scale(0.2 -0.2)">
       <use xlink:href="#Helvetica-30"/>
      </g>
     </g>
    </g>
    <g id="ytick_2">
     <g id="line2d_5">
      <path clip-path="url(#peca7444b2c)" d="M 94.94 113.43 
L 284.4 113.43 
" style="fill:none;stroke:#cccccc;stroke-linecap:round;stroke-width:0.8;"/>
     </g>
     <g id="text_5">
      <!-- 0.25 -->
      <g style="fill:#262626;" transform="translate(49.018125 120.603438)scale(0.2 -0.2)">
       <defs>
        <path d="M 547 681 
L 1200 681 
L 1200 0 
L 547 0 
L 547 681 
z
" id="Helvetica-2e" transform="scale(0.015625)"/>
        <path d="M 200 0 
Q 231 578 439 1006 
Q 647 1434 1250 1784 
L 1850 2131 
Q 2253 2366 2416 2531 
Q 2672 2791 2672 3125 
Q 2672 3516 2437 3745 
Q 2203 3975 1813 3975 
Q 1234 3975 1013 3538 
Q 894 3303 881 2888 
L 309 2888 
Q 319 3472 525 3841 
Q 891 4491 1816 4491 
Q 2584 4491 2939 4075 
Q 3294 3659 3294 3150 
Q 3294 2613 2916 2231 
Q 2697 2009 2131 1694 
L 1703 1456 
Q 1397 1288 1222 1134 
Q 909 863 828 531 
L 3272 531 
L 3272 0 
L 200 0 
z
" id="Helvetica-32" transform="scale(0.015625)"/>
        <path d="M 791 1141 
Q 847 659 1238 475 
Q 1438 381 1700 381 
Q 2200 381 2440 700 
Q 2681 1019 2681 1406 
Q 2681 1875 2395 2131 
Q 2109 2388 1709 2388 
Q 1419 2388 1211 2275 
Q 1003 2163 856 1963 
L 369 1991 
L 709 4400 
L 3034 4400 
L 3034 3856 
L 1131 3856 
L 941 2613 
Q 1097 2731 1238 2791 
Q 1488 2894 1816 2894 
Q 2431 2894 2859 2497 
Q 3288 2100 3288 1491 
Q 3288 856 2895 371 
Q 2503 -113 1644 -113 
Q 1097 -113 676 195 
Q 256 503 206 1141 
L 791 1141 
z
" id="Helvetica-35" transform="scale(0.015625)"/>
       </defs>
       <use xlink:href="#Helvetica-30"/>
       <use x="55.615234" xlink:href="#Helvetica-2e"/>
       <use x="83.398438" xlink:href="#Helvetica-32"/>
       <use x="139.013672" xlink:href="#Helvetica-35"/>
      </g>
     </g>
    </g>
    <g id="ytick_3">
     <g id="line2d_6">
      <path clip-path="url(#peca7444b2c)" d="M 94.94 85.22 
L 284.4 85.22 
" style="fill:none;stroke:#cccccc;stroke-linecap:round;stroke-width:0.8;"/>
     </g>
     <g id="text_6">
      <!-- 0.50 -->
      <g style="fill:#262626;" transform="translate(49.018125 92.393438)scale(0.2 -0.2)">
       <use xlink:href="#Helvetica-30"/>
       <use x="55.615234" xlink:href="#Helvetica-2e"/>
       <use x="83.398438" xlink:href="#Helvetica-35"/>
       <use x="139.013672" xlink:href="#Helvetica-30"/>
      </g>
     </g>
    </g>
    <g id="ytick_4">
     <g id="line2d_7">
      <path clip-path="url(#peca7444b2c)" d="M 94.94 57.01 
L 284.4 57.01 
" style="fill:none;stroke:#cccccc;stroke-linecap:round;stroke-width:0.8;"/>
     </g>
     <g id="text_7">
      <!-- 0.75 -->
      <g style="fill:#262626;" transform="translate(49.018125 64.183437)scale(0.2 -0.2)">
       <defs>
        <path d="M 3347 4400 
L 3347 3909 
Q 3131 3700 2773 3181 
Q 2416 2663 2141 2063 
Q 1869 1478 1728 997 
Q 1638 688 1494 0 
L 872 0 
Q 1084 1281 1809 2550 
Q 2238 3294 2709 3834 
L 234 3834 
L 234 4400 
L 3347 4400 
z
" id="Helvetica-37" transform="scale(0.015625)"/>
       </defs>
       <use xlink:href="#Helvetica-30"/>
       <use x="55.615234" xlink:href="#Helvetica-2e"/>
       <use x="83.398438" xlink:href="#Helvetica-37"/>
       <use x="139.013672" xlink:href="#Helvetica-35"/>
      </g>
     </g>
    </g>
    <g id="ytick_5">
     <g id="line2d_8">
      <path clip-path="url(#peca7444b2c)" d="M 94.94 28.8 
L 284.4 28.8 
" style="fill:none;stroke:#cccccc;stroke-linecap:round;stroke-width:0.8;"/>
     </g>
     <g id="text_8">
      <!-- 1.0 -->
      <g style="fill:#262626;" transform="translate(60.14 35.973438)scale(0.2 -0.2)">
       <use xlink:href="#Helvetica-31"/>
       <use x="55.615234" xlink:href="#Helvetica-2e"/>
       <use x="83.398438" xlink:href="#Helvetica-30"/>
      </g>
     </g>
    </g>
    <g id="text_9">
     <!-- Probability -->
     <g style="fill:#262626;" transform="translate(39.65875 143.579375)rotate(-90)scale(0.25 -0.25)">
      <defs>
       <path d="M 428 3347 
L 963 3347 
L 963 2769 
Q 1028 2938 1284 3180 
Q 1541 3422 1875 3422 
Q 1891 3422 1928 3419 
Q 1966 3416 2056 3406 
L 2056 2813 
Q 2006 2822 1964 2825 
Q 1922 2828 1872 2828 
Q 1447 2828 1219 2554 
Q 991 2281 991 1925 
L 991 0 
L 428 0 
L 428 3347 
z
" id="Helvetica-72" transform="scale(0.015625)"/>
       <path d="M 369 4606 
L 916 4606 
L 916 2941 
Q 1100 3181 1356 3307 
Q 1613 3434 1913 3434 
Q 2538 3434 2927 3004 
Q 3316 2575 3316 1738 
Q 3316 944 2931 419 
Q 2547 -106 1866 -106 
Q 1484 -106 1222 78 
Q 1066 188 888 428 
L 888 0 
L 369 0 
L 369 4606 
z
M 1831 391 
Q 2288 391 2514 753 
Q 2741 1116 2741 1709 
Q 2741 2238 2514 2584 
Q 2288 2931 1847 2931 
Q 1463 2931 1173 2647 
Q 884 2363 884 1709 
Q 884 1238 1003 944 
Q 1225 391 1831 391 
z
" id="Helvetica-62" transform="scale(0.015625)"/>
       <path d="M 844 891 
Q 844 647 1022 506 
Q 1200 366 1444 366 
Q 1741 366 2019 503 
Q 2488 731 2488 1250 
L 2488 1703 
Q 2384 1638 2221 1594 
Q 2059 1550 1903 1531 
L 1563 1488 
Q 1256 1447 1103 1359 
Q 844 1213 844 891 
z
M 2206 2028 
Q 2400 2053 2466 2191 
Q 2503 2266 2503 2406 
Q 2503 2694 2298 2823 
Q 2094 2953 1713 2953 
Q 1272 2953 1088 2716 
Q 984 2584 953 2325 
L 428 2325 
Q 444 2944 830 3186 
Q 1216 3428 1725 3428 
Q 2316 3428 2684 3203 
Q 3050 2978 3050 2503 
L 3050 575 
Q 3050 488 3086 434 
Q 3122 381 3238 381 
Q 3275 381 3322 386 
Q 3369 391 3422 400 
L 3422 -16 
Q 3291 -53 3222 -62 
Q 3153 -72 3034 -72 
Q 2744 -72 2613 134 
Q 2544 244 2516 444 
Q 2344 219 2022 53 
Q 1700 -113 1313 -113 
Q 847 -113 551 170 
Q 256 453 256 878 
Q 256 1344 547 1600 
Q 838 1856 1309 1916 
L 2206 2028 
z
M 1741 3428 
L 1741 3428 
z
" id="Helvetica-61" transform="scale(0.015625)"/>
       <path d="M 428 4591 
L 991 4591 
L 991 0 
L 428 0 
L 428 4591 
z
" id="Helvetica-6c" transform="scale(0.015625)"/>
       <path d="M 2503 3347 
L 3125 3347 
Q 3006 3025 2597 1878 
Q 2291 1016 2084 472 
Q 1597 -809 1397 -1090 
Q 1197 -1372 709 -1372 
Q 591 -1372 527 -1362 
Q 463 -1353 369 -1328 
L 369 -816 
Q 516 -856 581 -865 
Q 647 -875 697 -875 
Q 853 -875 926 -823 
Q 1000 -772 1050 -697 
Q 1066 -672 1162 -440 
Q 1259 -209 1303 -97 
L 66 3347 
L 703 3347 
L 1600 622 
L 2503 3347 
z
M 1597 3428 
L 1597 3428 
z
" id="Helvetica-79" transform="scale(0.015625)"/>
      </defs>
      <use xlink:href="#Helvetica-50"/>
      <use x="66.699219" xlink:href="#Helvetica-72"/>
      <use x="100" xlink:href="#Helvetica-6f"/>
      <use x="155.615234" xlink:href="#Helvetica-62"/>
      <use x="211.230469" xlink:href="#Helvetica-61"/>
      <use x="266.845703" xlink:href="#Helvetica-62"/>
      <use x="322.460938" xlink:href="#Helvetica-69"/>
      <use x="344.677734" xlink:href="#Helvetica-6c"/>
      <use x="366.894531" xlink:href="#Helvetica-69"/>
      <use x="389.111328" xlink:href="#Helvetica-74"/>
      <use x="416.894531" xlink:href="#Helvetica-79"/>
     </g>
    </g>
   </g>
   <g id="patch_71">
    <path d="M 94.94 141.64 
L 94.94 28.8 
" style="fill:none;stroke:#000000;stroke-linecap:square;stroke-linejoin:miter;"/>
   </g>
  </g>
 </g>
 <defs>
  <clipPath id="peca7444b2c">
   <rect height="112.84" width="189.46" x="94.94" y="28.8"/>
  </clipPath>
 </defs>
</svg>
