<?xml version="1.0" encoding="utf-8" standalone="no"?>
<!DOCTYPE svg PUBLIC "-//W3C//DTD SVG 1.1//EN"
  "http://www.w3.org/Graphics/SVG/1.1/DTD/svg11.dtd">
<svg height="216pt" version="1.1" viewBox="0 0 360 216" width="360pt" xmlns="http://www.w3.org/2000/svg" xmlns:xlink="http://www.w3.org/1999/xlink">
 <metadata>
  <rdf:RDF xmlns:cc="http://creativecommons.org/ns#" xmlns:dc="http://purl.org/dc/elements/1.1/" xmlns:rdf="http://www.w3.org/1999/02/22-rdf-syntax-ns#">
   <cc:Work>
    <dc:type rdf:resource="http://purl.org/dc/dcmitype/StillImage"/>
    <dc:date>2022-12-15T19:12:20.585734</dc:date>
    <dc:format>image/svg+xml</dc:format>
    <dc:creator>
     <cc:Agent>
      <dc:title>Matplotlib v3.4.2, https://matplotlib.org/</dc:title>
     </cc:Agent>
    </dc:creator>
   </cc:Work>
  </rdf:RDF>
 </metadata>
 <defs>
  <style type="text/css">*{stroke-linecap:butt;stroke-linejoin:round;}</style>
 </defs>
 <g id="figure_1">
  <g id="patch_1">
   <path d="M 0 216 
L 360 216 
L 360 0 
L 0 0 
z
" style="fill:#ffffff;"/>
  </g>
  <g id="axes_1">
   <g id="patch_2">
    <path d="M 94.94 141.64 
L 338.4 141.64 
L 338.4 28.8 
L 94.94 28.8 
z
" style="fill:#ffffff;"/>
   </g>
   <g id="line2d_1">
    <path clip-path="url(#pa8e3c17089)" d="M 94.94 141.64 
L 338.4 141.64 
" style="fill:none;stroke:#000000;stroke-linecap:round;stroke-width:0.5;"/>
   </g>
   <g id="patch_3">
    <path clip-path="url(#pa8e3c17089)" d="M 100.919108 120.836153 
Q 102.707589 120.836153 104.012322 121.912734 
Q 105.903081 123.458704 106.326013 127.334395 
L 104.62599 127.334395 
Q 104.313627 125.168314 103.337841 124.17786 
Q 102.362055 123.187406 100.87488 123.187406 
Q 99.114042 123.187406 97.908822 125.250135 
Q 96.703602 127.308557 96.703602 131.386645 
Q 96.703602 134.909217 97.695974 137.122667 
Q 98.69111 139.336117 100.935694 139.336117 
Q 102.655068 139.336117 103.782888 137.785841 
Q 104.910709 136.231258 104.935587 132.756056 
L 100.963337 132.756056 
L 100.963337 130.538299 
L 106.533333 130.538299 
L 106.533333 141.114629 
L 105.427627 141.114629 
L 105.012987 138.569592 
Q 104.142243 140.063886 103.467762 140.645239 
Q 102.334413 141.64 100.590161 141.64 
Q 98.337283 141.64 96.711895 139.366261 
Q 94.94 136.511169 94.94 131.53306 
Q 94.94 126.567869 96.667667 123.635263 
Q 98.309641 120.836153 100.919108 120.836153 
z
M 100.634389 120.806009 
L 100.634389 120.806009 
z
" style="fill:#ffa600;"/>
   </g>
   <g id="patch_4">
    <path clip-path="url(#pa8e3c17089)" d="M 101.035611 95.757156 
Q 103.518269 95.757156 104.887718 98.140294 
Q 106.257166 100.518251 106.408062 103.543801 
L 104.682728 103.543801 
Q 104.389478 101.248735 103.512575 99.906925 
Q 102.635673 98.559934 101.052693 98.559934 
Q 99.122369 98.559934 97.935134 101.031144 
Q 96.747899 103.497174 96.747899 108.595017 
Q 96.747899 112.77587 97.818404 115.376599 
Q 98.891755 117.972147 101.018528 117.972147 
Q 102.974476 117.972147 103.999427 115.236719 
Q 104.540373 113.796475 104.807999 111.444421 
L 106.533333 111.444421 
Q 106.302719 115.200454 105.004448 117.744195 
Q 103.447092 120.806009 100.804997 120.806009 
Q 98.527328 120.806009 96.978513 118.293353 
Q 94.94 114.977682 94.94 108.045859 
Q 94.94 102.787413 96.471732 99.419936 
Q 98.125889 95.757156 101.035611 95.757156 
z
M 100.679725 95.757156 
L 100.679725 95.757156 
z
" style="fill:#0000ff;"/>
   </g>
   <g id="patch_5">
    <path clip-path="url(#pa8e3c17089)" d="M 106.533333 64.386009 
L 106.533333 68.123761 
L 101.718599 68.123761 
L 101.718599 95.757156 
L 99.754735 95.757156 
L 99.754735 68.123761 
L 94.94 68.123761 
L 94.94 64.386009 
L 106.533333 64.386009 
z
" style="fill:#ff0000;"/>
   </g>
   <g id="patch_6">
    <path clip-path="url(#pa8e3c17089)" d="M 102.72171 49.8059 
L 100.7494 34.086356 
L 98.652583 49.8059 
L 102.72171 49.8059 
z
M 99.829744 28.8 
L 101.819032 28.8 
L 106.533333 64.386009 
L 104.603469 64.386009 
L 103.287653 53.728034 
L 98.148894 53.728034 
L 96.742527 64.386009 
L 94.94 64.386009 
L 99.829744 28.8 
z
M 100.740911 28.8 
L 100.740911 28.8 
z
" style="fill:#008000;"/>
   </g>
   <g id="patch_7">
    <path clip-path="url(#pa8e3c17089)" d="M 114.925219 131.80884 
L 112.952909 121.209376 
L 110.856092 131.80884 
L 114.925219 131.80884 
z
M 112.033252 117.644862 
L 114.022541 117.644862 
L 118.736842 141.64 
L 116.806978 141.64 
L 115.491162 134.45348 
L 110.352403 134.45348 
L 108.946036 141.64 
L 107.143509 141.64 
L 112.033252 117.644862 
z
M 112.94442 117.644862 
L 112.94442 117.644862 
z
" style="fill:#008000;"/>
   </g>
   <g id="patch_8">
    <path clip-path="url(#pa8e3c17089)" d="M 118.736842 92.596009 
L 118.736842 95.580484 
L 113.922107 95.580484 
L 113.922107 117.644862 
L 111.958243 117.644862 
L 111.958243 95.580484 
L 107.143509 95.580484 
L 107.143509 92.596009 
L 118.736842 92.596009 
z
" style="fill:#ff0000;"/>
   </g>
   <g id="patch_9">
    <path clip-path="url(#pa8e3c17089)" d="M 113.122617 65.479017 
Q 114.911097 65.479017 116.215831 66.882297 
Q 118.106589 68.897408 118.529522 73.949218 
L 116.829498 73.949218 
Q 116.517136 71.125817 115.54135 69.834799 
Q 114.565564 68.543781 113.078389 68.543781 
Q 111.317551 68.543781 110.112331 71.232467 
Q 108.907111 73.915539 108.907111 79.231166 
Q 108.907111 83.822699 109.899482 86.707844 
Q 110.894618 89.592989 113.139203 89.592989 
Q 114.858576 89.592989 115.986397 87.572265 
Q 117.114218 85.545928 117.139096 81.016138 
L 113.166845 81.016138 
L 113.166845 78.125381 
L 118.736842 78.125381 
L 118.736842 91.911208 
L 117.631136 91.911208 
L 117.216496 88.593853 
Q 116.345752 90.541607 115.671271 91.299378 
Q 114.537921 92.596009 112.793669 92.596009 
Q 110.540792 92.596009 108.915404 89.632281 
Q 107.143509 85.910781 107.143509 79.422012 
Q 107.143509 72.950082 108.871175 69.127546 
Q 110.51315 65.479017 113.122617 65.479017 
z
M 112.837898 65.439725 
L 112.837898 65.439725 
z
" style="fill:#ffa600;"/>
   </g>
   <g id="patch_10">
    <path clip-path="url(#pa8e3c17089)" d="M 113.239119 28.8 
Q 115.721778 28.8 117.091227 32.285889 
Q 118.460675 35.7642 118.61157 40.189763 
L 116.886236 40.189763 
Q 116.592987 36.832701 115.716084 34.869994 
Q 114.839182 32.899709 113.256202 32.899709 
Q 111.325878 32.899709 110.138643 36.514424 
Q 108.951408 40.121561 108.951408 47.578333 
Q 108.951408 53.693794 110.021913 57.49796 
Q 111.095264 61.294548 113.222037 61.294548 
Q 115.177985 61.294548 116.202936 57.293354 
Q 116.743882 55.186664 117.011508 51.746243 
L 118.736842 51.746243 
Q 118.506228 57.240308 117.207957 60.961115 
Q 115.650601 65.439725 113.008505 65.439725 
Q 110.730837 65.439725 109.182022 61.764385 
Q 107.143509 56.914453 107.143509 46.775062 
Q 107.143509 39.083373 108.675241 34.15766 
Q 110.329398 28.8 113.239119 28.8 
z
M 112.883234 28.8 
L 112.883234 28.8 
z
" style="fill:#0000ff;"/>
   </g>
   <g id="patch_11">
    <path clip-path="url(#pa8e3c17089)" d="M 125.326126 119.783962 
Q 127.114606 119.783962 128.41934 120.914993 
Q 130.310098 122.539153 130.733031 126.610864 
L 129.033007 126.610864 
Q 128.720645 124.33523 127.744859 123.294682 
Q 126.769073 122.254134 125.281898 122.254134 
Q 123.52106 122.254134 122.31584 124.421188 
Q 121.11062 126.583719 121.11062 130.868063 
Q 121.11062 134.568796 122.102991 136.894195 
Q 123.098127 139.219594 125.342711 139.219594 
Q 127.062085 139.219594 128.189906 137.59091 
Q 129.317726 135.957702 129.342605 132.306735 
L 125.370354 132.306735 
L 125.370354 129.976811 
L 130.940351 129.976811 
L 130.940351 141.088057 
L 129.834644 141.088057 
L 129.420004 138.4143 
Q 128.54926 139.984171 127.874779 140.594928 
Q 126.74143 141.64 124.997178 141.64 
Q 122.744301 141.64 121.118912 139.251263 
Q 119.347018 136.25177 119.347018 131.021884 
Q 119.347018 125.80557 121.074684 122.724642 
Q 122.716658 119.783962 125.326126 119.783962 
z
M 125.041406 119.752294 
L 125.041406 119.752294 
z
" style="fill:#ffa600;"/>
   </g>
   <g id="patch_12">
    <path clip-path="url(#pa8e3c17089)" d="M 127.128728 109.057688 
L 125.156418 97.527301 
L 123.059601 109.057688 
L 127.128728 109.057688 
z
M 124.236761 93.649725 
L 126.226049 93.649725 
L 130.940351 119.752294 
L 129.010487 119.752294 
L 127.69467 111.9346 
L 122.555912 111.9346 
L 121.149545 119.752294 
L 119.347018 119.752294 
L 124.236761 93.649725 
z
M 125.147929 93.649725 
L 125.147929 93.649725 
z
" style="fill:#008000;"/>
   </g>
   <g id="patch_13">
    <path clip-path="url(#pa8e3c17089)" d="M 130.940351 65.439725 
L 130.940351 68.800838 
L 126.125616 68.800838 
L 126.125616 93.649725 
L 124.161752 93.649725 
L 124.161752 68.800838 
L 119.347018 68.800838 
L 119.347018 65.439725 
L 130.940351 65.439725 
z
" style="fill:#ff0000;"/>
   </g>
   <g id="patch_14">
    <path clip-path="url(#pa8e3c17089)" d="M 125.442628 28.8 
Q 127.925287 28.8 129.294735 32.285889 
Q 130.664184 35.7642 130.815079 40.189763 
L 129.089745 40.189763 
Q 128.796495 36.832701 127.919593 34.869994 
Q 127.04269 32.899709 125.459711 32.899709 
Q 123.529387 32.899709 122.342152 36.514424 
Q 121.154917 40.121561 121.154917 47.578333 
Q 121.154917 53.693794 122.225421 57.49796 
Q 123.298773 61.294548 125.425546 61.294548 
Q 127.381494 61.294548 128.406445 57.293354 
Q 128.947391 55.186664 129.215017 51.746243 
L 130.940351 51.746243 
Q 130.709737 57.240308 129.411466 60.961115 
Q 127.85411 65.439725 125.212014 65.439725 
Q 122.934346 65.439725 121.385531 61.764385 
Q 119.347018 56.914453 119.347018 46.775062 
Q 119.347018 39.083373 120.87875 34.15766 
Q 122.532907 28.8 125.442628 28.8 
z
M 125.086742 28.8 
L 125.086742 28.8 
z
" style="fill:#0000ff;"/>
   </g>
   <g id="patch_15">
    <path clip-path="url(#pa8e3c17089)" d="M 139.332237 131.377118 
L 137.359927 120.312192 
L 135.26311 131.377118 
L 139.332237 131.377118 
z
M 136.44027 116.591147 
L 138.429558 116.591147 
L 143.14386 141.64 
L 141.213996 141.64 
L 139.898179 134.137893 
L 134.759421 134.137893 
L 133.353053 141.64 
L 131.550526 141.64 
L 136.44027 116.591147 
z
M 137.351438 116.591147 
L 137.351438 116.591147 
z
" style="fill:#008000;"/>
   </g>
   <g id="patch_16">
    <path clip-path="url(#pa8e3c17089)" d="M 137.529635 89.474154 
Q 139.318115 89.474154 140.622849 90.877435 
Q 142.513607 92.892546 142.93654 97.944355 
L 141.236516 97.944355 
Q 140.924154 95.120955 139.948368 93.829937 
Q 138.972582 92.538919 137.485406 92.538919 
Q 135.724569 92.538919 134.519348 95.227604 
Q 133.314128 97.910677 133.314128 103.226303 
Q 133.314128 107.817837 134.3065 110.702982 
Q 135.301636 113.588127 137.54622 113.588127 
Q 139.265594 113.588127 140.393415 111.567403 
Q 141.521235 109.541066 141.546114 105.011276 
L 137.573863 105.011276 
L 137.573863 102.120518 
L 143.14386 102.120518 
L 143.14386 115.906346 
L 142.038153 115.906346 
L 141.623513 112.588991 
Q 140.752769 114.536744 140.078288 115.294516 
Q 138.944939 116.591147 137.200687 116.591147 
Q 134.94781 116.591147 133.322421 113.627418 
Q 131.550526 109.905918 131.550526 103.417149 
Q 131.550526 96.94522 133.278193 93.122684 
Q 134.920167 89.474154 137.529635 89.474154 
z
M 137.244915 89.434862 
L 137.244915 89.434862 
z
" style="fill:#ffa600;"/>
   </g>
   <g id="patch_17">
    <path clip-path="url(#pa8e3c17089)" d="M 137.646137 59.117431 
Q 140.128796 59.117431 141.498244 62.00182 
Q 142.867692 64.879938 143.018588 68.541857 
L 141.293254 68.541857 
Q 141.000004 65.764066 140.123102 64.140029 
Q 139.246199 62.509723 137.66322 62.509723 
Q 135.732895 62.509723 134.545661 65.500708 
Q 133.358426 68.485423 133.358426 74.655507 
Q 133.358426 79.715727 134.42893 82.863473 
Q 135.502281 86.004948 137.629054 86.004948 
Q 139.585002 86.004948 140.609953 82.694172 
Q 141.1509 80.950998 141.418526 78.104232 
L 143.14386 78.104232 
Q 142.913246 82.650279 141.614975 85.72905 
Q 140.057619 89.434862 137.415523 89.434862 
Q 135.137854 89.434862 133.58904 86.393714 
Q 131.550526 82.380651 131.550526 73.990843 
Q 131.550526 67.626377 133.082258 63.550611 
Q 134.736415 59.117431 137.646137 59.117431 
z
M 137.290251 59.117431 
L 137.290251 59.117431 
z
" style="fill:#0000ff;"/>
   </g>
   <g id="patch_18">
    <path clip-path="url(#pa8e3c17089)" d="M 143.14386 28.8 
L 143.14386 32.412205 
L 138.329125 32.412205 
L 138.329125 59.117431 
L 136.365261 59.117431 
L 136.365261 32.412205 
L 131.550526 32.412205 
L 131.550526 28.8 
L 143.14386 28.8 
z
" style="fill:#ff0000;"/>
   </g>
   <g id="patch_19">
    <path clip-path="url(#pa8e3c17089)" d="M 155.347368 117.644862 
L 155.347368 120.503791 
L 150.532634 120.503791 
L 150.532634 141.64 
L 148.56877 141.64 
L 148.56877 120.503791 
L 143.754035 120.503791 
L 143.754035 117.644862 
L 155.347368 117.644862 
z
" style="fill:#ff0000;"/>
   </g>
   <g id="patch_20">
    <path clip-path="url(#pa8e3c17089)" d="M 151.535745 106.950257 
L 149.563435 95.41987 
L 147.466618 106.950257 
L 151.535745 106.950257 
z
M 148.643779 91.542294 
L 150.633067 91.542294 
L 155.347368 117.644862 
L 153.417504 117.644862 
L 152.101688 109.827169 
L 146.962929 109.827169 
L 145.556562 117.644862 
L 143.754035 117.644862 
L 148.643779 91.542294 
z
M 149.554946 91.542294 
L 149.554946 91.542294 
z
" style="fill:#008000;"/>
   </g>
   <g id="patch_21">
    <path clip-path="url(#pa8e3c17089)" d="M 149.849646 61.224862 
Q 152.332305 61.224862 153.701753 64.109251 
Q 155.071201 66.987369 155.222097 70.649288 
L 153.496763 70.649288 
Q 153.203513 67.871497 152.32661 66.247461 
Q 151.449708 64.617154 149.866728 64.617154 
Q 147.936404 64.617154 146.749169 67.60814 
Q 145.561935 70.592855 145.561935 76.762938 
Q 145.561935 81.823158 146.632439 84.970904 
Q 147.70579 88.112379 149.832563 88.112379 
Q 151.788511 88.112379 152.813462 84.801603 
Q 153.354408 83.058429 153.622034 80.211663 
L 155.347368 80.211663 
Q 155.116754 84.75771 153.818483 87.836481 
Q 152.261127 91.542294 149.619032 91.542294 
Q 147.341363 91.542294 145.792549 88.501145 
Q 143.754035 84.488083 143.754035 76.098274 
Q 143.754035 69.733808 145.285767 65.658042 
Q 146.939924 61.224862 149.849646 61.224862 
z
M 149.49376 61.224862 
L 149.49376 61.224862 
z
" style="fill:#0000ff;"/>
   </g>
   <g id="patch_22">
    <path clip-path="url(#pa8e3c17089)" d="M 149.733143 28.846915 
Q 151.521624 28.846915 152.826357 30.522445 
Q 154.717116 32.928507 155.140048 38.960416 
L 153.440025 38.960416 
Q 153.127662 35.589249 152.151876 34.047761 
Q 151.17609 32.506273 149.688915 32.506273 
Q 147.928077 32.506273 146.722857 35.716589 
Q 145.517637 38.920203 145.517637 45.267112 
Q 145.517637 50.749447 146.510009 54.194337 
Q 147.505145 57.639228 149.749729 57.639228 
Q 151.469103 57.639228 152.596923 55.226464 
Q 153.724744 52.806998 153.749622 47.398386 
L 149.777372 47.398386 
L 149.777372 43.946794 
L 155.347368 43.946794 
L 155.347368 60.407204 
L 154.241662 60.407204 
L 153.827022 56.44625 
Q 152.956278 58.771886 152.281797 59.676672 
Q 151.148448 61.224862 149.404196 61.224862 
Q 147.151319 61.224862 145.52593 57.686142 
Q 143.754035 53.242636 143.754035 45.494984 
Q 143.754035 37.767438 145.481702 33.203294 
Q 147.123676 28.846915 149.733143 28.846915 
z
M 149.448424 28.8 
L 149.448424 28.8 
z
" style="fill:#ffa600;"/>
   </g>
   <g id="patch_23">
    <path clip-path="url(#pa8e3c17089)" d="M 163.739254 131.377118 
L 161.766944 120.312192 
L 159.670127 131.377118 
L 163.739254 131.377118 
z
M 160.847288 116.591147 
L 162.836576 116.591147 
L 167.550877 141.64 
L 165.621013 141.64 
L 164.305197 134.137893 
L 159.166438 134.137893 
L 157.760071 141.64 
L 155.957544 141.64 
L 160.847288 116.591147 
z
M 161.758455 116.591147 
L 161.758455 116.591147 
z
" style="fill:#008000;"/>
   </g>
   <g id="patch_24">
    <path clip-path="url(#pa8e3c17089)" d="M 162.053155 91.542294 
Q 164.535813 91.542294 165.905262 93.925432 
Q 167.27471 96.303389 167.425605 99.328938 
L 165.700271 99.328938 
Q 165.407022 97.033873 164.530119 95.692062 
Q 163.653217 94.345071 162.070237 94.345071 
Q 160.139913 94.345071 158.952678 96.816282 
Q 157.765443 99.282312 157.765443 104.380155 
Q 157.765443 108.561008 158.835948 111.161737 
Q 159.909299 113.757285 162.036072 113.757285 
Q 163.99202 113.757285 165.016971 111.021857 
Q 165.557917 109.581612 165.825543 107.229559 
L 167.550877 107.229559 
Q 167.320263 110.985592 166.021992 113.529332 
Q 164.464636 116.591147 161.822541 116.591147 
Q 159.544872 116.591147 157.996057 114.07849 
Q 155.957544 110.76282 155.957544 103.830997 
Q 155.957544 98.572551 157.489276 95.205073 
Q 159.143433 91.542294 162.053155 91.542294 
z
M 161.697269 91.542294 
L 161.697269 91.542294 
z
" style="fill:#0000ff;"/>
   </g>
   <g id="patch_25">
    <path clip-path="url(#pa8e3c17089)" d="M 167.550877 62.278578 
L 167.550877 65.765237 
L 162.736143 65.765237 
L 162.736143 91.542294 
L 160.772279 91.542294 
L 160.772279 65.765237 
L 155.957544 65.765237 
L 155.957544 62.278578 
L 167.550877 62.278578 
z
" style="fill:#ff0000;"/>
   </g>
   <g id="patch_26">
    <path clip-path="url(#pa8e3c17089)" d="M 161.936652 28.848439 
Q 163.725132 28.848439 165.029866 30.57842 
Q 166.920624 33.062671 167.343557 39.2906 
L 165.643533 39.2906 
Q 165.331171 35.80988 164.355385 34.218298 
Q 163.379599 32.626716 161.892424 32.626716 
Q 160.131586 32.626716 158.926366 35.941359 
Q 157.721146 39.249081 157.721146 45.802246 
Q 157.721146 51.462741 158.713517 55.019581 
Q 159.708653 58.57642 161.953238 58.57642 
Q 163.672611 58.57642 164.800432 56.085249 
Q 165.928253 53.587157 165.953131 48.002781 
L 161.98088 48.002781 
L 161.98088 44.439022 
L 167.550877 44.439022 
L 167.550877 61.434348 
L 166.445171 61.434348 
L 166.030531 57.344674 
Q 165.159787 59.745887 164.485306 60.680076 
Q 163.351957 62.278578 161.607704 62.278578 
Q 159.354827 62.278578 157.729439 58.62486 
Q 155.957544 54.036952 155.957544 46.037523 
Q 155.957544 38.058854 157.68521 33.346388 
Q 159.327185 28.848439 161.936652 28.848439 
z
M 161.651933 28.8 
L 161.651933 28.8 
z
" style="fill:#ffa600;"/>
   </g>
   <g id="patch_27">
    <path clip-path="url(#pa8e3c17089)" d="M 179.754386 116.591147 
L 179.754386 119.575621 
L 174.939651 119.575621 
L 174.939651 141.64 
L 172.975787 141.64 
L 172.975787 119.575621 
L 168.161053 119.575621 
L 168.161053 116.591147 
L 179.754386 116.591147 
z
" style="fill:#ff0000;"/>
   </g>
   <g id="patch_28">
    <path clip-path="url(#pa8e3c17089)" d="M 174.256663 90.488578 
Q 176.739322 90.488578 178.10877 92.971966 
Q 179.478219 95.449956 179.629114 98.602779 
L 177.90378 98.602779 
Q 177.61053 96.211168 176.733628 94.812913 
Q 175.856726 93.409258 174.273746 93.409258 
Q 172.343422 93.409258 171.156187 95.984424 
Q 169.968952 98.554191 169.968952 103.866482 
Q 169.968952 108.223208 171.039456 110.933341 
Q 172.112808 113.638074 174.239581 113.638074 
Q 176.195529 113.638074 177.22048 110.787577 
Q 177.761426 109.286746 178.029052 106.83575 
L 179.754386 106.83575 
Q 179.523772 110.749786 178.225501 113.400533 
Q 176.668145 116.591147 174.026049 116.591147 
Q 171.748381 116.591147 170.199566 113.972792 
Q 168.161053 110.517643 168.161053 103.294223 
Q 168.161053 97.814573 169.692785 94.305438 
Q 171.346942 90.488578 174.256663 90.488578 
z
M 173.900778 90.488578 
L 173.900778 90.488578 
z
" style="fill:#0000ff;"/>
   </g>
   <g id="patch_29">
    <path clip-path="url(#pa8e3c17089)" d="M 174.140161 60.215012 
Q 175.928641 60.215012 177.233375 61.781643 
Q 179.124133 64.031324 179.547066 69.671193 
L 177.847042 69.671193 
Q 177.53468 66.519133 176.558894 65.077833 
Q 175.583108 63.636533 174.095933 63.636533 
Q 172.335095 63.636533 171.129875 66.638197 
Q 169.924655 69.633594 169.924655 75.56799 
Q 169.924655 80.694005 170.917026 83.914997 
Q 171.912162 87.135989 174.156746 87.135989 
Q 175.87612 87.135989 177.003941 84.880041 
Q 178.131762 82.617827 178.15664 77.560744 
L 174.184389 77.560744 
L 174.184389 74.333485 
L 179.754386 74.333485 
L 179.754386 89.724062 
L 178.648679 89.724062 
L 178.234039 86.020548 
Q 177.363296 88.195031 176.688815 89.041012 
Q 175.555465 90.488578 173.811213 90.488578 
Q 171.558336 90.488578 169.932947 87.179855 
Q 168.161053 83.025151 168.161053 75.781052 
Q 168.161053 68.555753 169.888719 64.288251 
Q 171.530693 60.215012 174.140161 60.215012 
z
M 173.855441 60.171147 
L 173.855441 60.171147 
z
" style="fill:#ffa600;"/>
   </g>
   <g id="patch_30">
    <path clip-path="url(#pa8e3c17089)" d="M 175.942763 47.317928 
L 173.970453 33.460231 
L 171.873636 47.317928 
L 175.942763 47.317928 
z
M 173.050796 28.8 
L 175.040084 28.8 
L 179.754386 60.171147 
L 177.824522 60.171147 
L 176.508705 50.775519 
L 171.369947 50.775519 
L 169.96358 60.171147 
L 168.161053 60.171147 
L 173.050796 28.8 
z
M 173.961964 28.8 
L 173.961964 28.8 
z
" style="fill:#008000;"/>
   </g>
   <g id="patch_31">
    <path clip-path="url(#pa8e3c17089)" d="M 188.146272 130.513672 
L 186.173962 118.517823 
L 184.077145 130.513672 
L 188.146272 130.513672 
z
M 185.254305 114.483716 
L 187.243593 114.483716 
L 191.957895 141.64 
L 190.028031 141.64 
L 188.712214 133.506719 
L 183.573456 133.506719 
L 182.167088 141.64 
L 180.364561 141.64 
L 185.254305 114.483716 
z
M 186.165473 114.483716 
L 186.165473 114.483716 
z
" style="fill:#008000;"/>
   </g>
   <g id="patch_32">
    <path clip-path="url(#pa8e3c17089)" d="M 186.34367 87.366723 
Q 188.13215 87.366723 189.436884 88.770004 
Q 191.327642 90.785114 191.750575 95.836924 
L 190.050551 95.836924 
Q 189.738189 93.013524 188.762403 91.722506 
Q 187.786617 90.431488 186.299441 90.431488 
Q 184.538604 90.431488 183.333384 93.120173 
Q 182.128163 95.803245 182.128163 101.118872 
Q 182.128163 105.710406 183.120535 108.595551 
Q 184.115671 111.480695 186.360255 111.480695 
Q 188.079629 111.480695 189.20745 109.459971 
Q 190.33527 107.433634 190.360149 102.903845 
L 186.387898 102.903845 
L 186.387898 100.013087 
L 191.957895 100.013087 
L 191.957895 113.798915 
L 190.852188 113.798915 
L 190.437548 110.48156 
Q 189.566804 112.429313 188.892323 113.187084 
Q 187.758974 114.483716 186.014722 114.483716 
Q 183.761845 114.483716 182.136456 111.519987 
Q 180.364561 107.798487 180.364561 101.309718 
Q 180.364561 94.837788 182.092228 91.015252 
Q 183.734202 87.366723 186.34367 87.366723 
z
M 186.05895 87.327431 
L 186.05895 87.327431 
z
" style="fill:#ffa600;"/>
   </g>
   <g id="patch_33">
    <path clip-path="url(#pa8e3c17089)" d="M 191.957895 60.171147 
L 191.957895 63.406714 
L 187.14316 63.406714 
L 187.14316 87.327431 
L 185.179296 87.327431 
L 185.179296 63.406714 
L 180.364561 63.406714 
L 180.364561 60.171147 
L 191.957895 60.171147 
z
" style="fill:#ff0000;"/>
   </g>
   <g id="patch_34">
    <path clip-path="url(#pa8e3c17089)" d="M 186.460172 28.8 
Q 188.942831 28.8 190.312279 31.784639 
Q 191.681727 34.762789 191.832623 38.551982 
L 190.107289 38.551982 
Q 189.814039 35.677645 188.937137 33.997164 
Q 188.060234 32.310195 186.477255 32.310195 
Q 184.54693 32.310195 183.359696 35.405135 
Q 182.172461 38.493587 182.172461 44.878118 
Q 182.172461 50.114212 183.242965 53.371362 
Q 184.316316 56.622022 186.44309 56.622022 
Q 188.399038 56.622022 189.423988 53.196176 
Q 189.964935 51.392416 190.232561 48.446708 
L 191.957895 48.446708 
Q 191.727281 53.150758 190.42901 56.336535 
Q 188.871654 60.171147 186.229558 60.171147 
Q 183.951889 60.171147 182.403075 57.0243 
Q 180.364561 52.871759 180.364561 44.190354 
Q 180.364561 37.604684 181.896294 33.38726 
Q 183.55045 28.8 186.460172 28.8 
z
M 186.104286 28.8 
L 186.104286 28.8 
z
" style="fill:#0000ff;"/>
   </g>
   <g id="patch_35">
    <path clip-path="url(#pa8e3c17089)" d="M 198.663681 115.537431 
Q 201.14634 115.537431 202.515788 118.020819 
Q 203.885236 120.498809 204.036132 123.651632 
L 202.310798 123.651632 
Q 202.017548 121.260021 201.140645 119.861766 
Q 200.263743 118.458112 198.680763 118.458112 
Q 196.750439 118.458112 195.563204 121.033277 
Q 194.37597 123.603044 194.37597 128.915335 
Q 194.37597 133.272062 195.446474 135.982194 
Q 196.519825 138.686928 198.646598 138.686928 
Q 200.602546 138.686928 201.627497 135.83643 
Q 202.168443 134.3356 202.43607 131.884604 
L 204.161404 131.884604 
Q 203.93079 135.798639 202.632518 138.449386 
Q 201.075163 141.64 198.433067 141.64 
Q 196.155398 141.64 194.606584 139.021645 
Q 192.56807 135.566496 192.56807 128.343076 
Q 192.56807 122.863426 194.099802 119.354291 
Q 195.753959 115.537431 198.663681 115.537431 
z
M 198.307795 115.537431 
L 198.307795 115.537431 
z
" style="fill:#0000ff;"/>
   </g>
   <g id="patch_36">
    <path clip-path="url(#pa8e3c17089)" d="M 204.161404 88.381147 
L 204.161404 91.616714 
L 199.346669 91.616714 
L 199.346669 115.537431 
L 197.382805 115.537431 
L 197.382805 91.616714 
L 192.56807 91.616714 
L 192.56807 88.381147 
L 204.161404 88.381147 
z
" style="fill:#ff0000;"/>
   </g>
   <g id="patch_37">
    <path clip-path="url(#pa8e3c17089)" d="M 198.547178 60.211963 
Q 200.335659 60.211963 201.640393 61.669694 
Q 203.531151 63.762995 203.954084 69.010824 
L 202.25406 69.010824 
Q 201.941698 66.077871 200.965912 64.736759 
Q 199.990125 63.395647 198.50295 63.395647 
Q 196.742112 63.395647 195.536892 66.188658 
Q 194.331672 68.975839 194.331672 74.497722 
Q 194.331672 79.267416 195.324044 82.26451 
Q 196.31918 85.261604 198.563764 85.261604 
Q 200.283138 85.261604 201.410958 83.162472 
Q 202.538779 81.057509 202.563658 76.351955 
L 198.591407 76.351955 
L 198.591407 73.34903 
L 204.161404 73.34903 
L 204.161404 87.669774 
L 203.055697 87.669774 
L 202.641057 84.223699 
Q 201.770313 86.247029 201.095832 87.034204 
Q 199.962483 88.381147 198.218231 88.381147 
Q 195.965354 88.381147 194.339965 85.30242 
Q 192.56807 81.436519 192.56807 74.695973 
Q 192.56807 67.97292 194.295737 64.002062 
Q 195.937711 60.211963 198.547178 60.211963 
z
M 198.262459 60.171147 
L 198.262459 60.171147 
z
" style="fill:#ffa600;"/>
   </g>
   <g id="patch_38">
    <path clip-path="url(#pa8e3c17089)" d="M 200.34978 47.317928 
L 198.377471 33.460231 
L 196.280653 47.317928 
L 200.34978 47.317928 
z
M 197.457814 28.8 
L 199.447102 28.8 
L 204.161404 60.171147 
L 202.231539 60.171147 
L 200.915723 50.775519 
L 195.776964 50.775519 
L 194.370597 60.171147 
L 192.56807 60.171147 
L 197.457814 28.8 
z
M 198.368981 28.8 
L 198.368981 28.8 
z
" style="fill:#008000;"/>
   </g>
   <g id="patch_39">
    <path clip-path="url(#pa8e3c17089)" d="M 210.86719 118.698578 
Q 213.349848 118.698578 214.719297 120.881216 
Q 216.088745 123.059109 216.239641 125.83011 
L 214.514307 125.83011 
Q 214.221057 123.728135 213.344154 122.499215 
Q 212.467252 121.26555 210.884272 121.26555 
Q 208.953948 121.26555 207.766713 123.52885 
Q 206.579478 125.787406 206.579478 130.456353 
Q 206.579478 134.285459 207.649983 136.667382 
Q 208.723334 139.044559 210.850107 139.044559 
Q 212.806055 139.044559 213.831006 136.53927 
Q 214.371952 135.220198 214.639578 133.066029 
L 216.364912 133.066029 
Q 216.134298 136.506056 214.836027 138.835785 
Q 213.278671 141.64 210.636576 141.64 
Q 208.358907 141.64 206.810092 139.338741 
Q 204.771579 136.302027 204.771579 129.953398 
Q 204.771579 125.13736 206.303311 122.053197 
Q 207.957468 118.698578 210.86719 118.698578 
z
M 210.511304 118.698578 
L 210.511304 118.698578 
z
" style="fill:#0000ff;"/>
   </g>
   <g id="patch_40">
    <path clip-path="url(#pa8e3c17089)" d="M 210.750687 91.581585 
Q 212.539168 91.581585 213.843901 92.984866 
Q 215.73466 94.999977 216.157592 100.051787 
L 214.457568 100.051787 
Q 214.145206 97.228386 213.16942 95.937368 
Q 212.193634 94.64635 210.706459 94.64635 
Q 208.945621 94.64635 207.740401 97.335036 
Q 206.535181 100.018108 206.535181 105.333734 
Q 206.535181 109.925268 207.527553 112.810413 
Q 208.522688 115.695558 210.767273 115.695558 
Q 212.486647 115.695558 213.614467 113.674834 
Q 214.742288 111.648497 214.767166 107.118707 
L 210.794915 107.118707 
L 210.794915 104.227949 
L 216.364912 104.227949 
L 216.364912 118.013777 
L 215.259206 118.013777 
L 214.844566 114.696422 
Q 213.973822 116.644175 213.299341 117.401947 
Q 212.165992 118.698578 210.421739 118.698578 
Q 208.168862 118.698578 206.543474 115.73485 
Q 204.771579 112.01335 204.771579 105.524581 
Q 204.771579 99.052651 206.499245 95.230115 
Q 208.14122 91.581585 210.750687 91.581585 
z
M 210.465968 91.542294 
L 210.465968 91.542294 
z
" style="fill:#ffa600;"/>
   </g>
   <g id="patch_41">
    <path clip-path="url(#pa8e3c17089)" d="M 216.364912 61.224862 
L 216.364912 64.837068 
L 211.550178 64.837068 
L 211.550178 91.542294 
L 209.586314 91.542294 
L 209.586314 64.837068 
L 204.771579 64.837068 
L 204.771579 61.224862 
L 216.364912 61.224862 
z
" style="fill:#ff0000;"/>
   </g>
   <g id="patch_42">
    <path clip-path="url(#pa8e3c17089)" d="M 212.553289 47.939921 
L 210.580979 33.616762 
L 208.484162 47.939921 
L 212.553289 47.939921 
z
M 209.661323 28.8 
L 211.650611 28.8 
L 216.364912 61.224862 
L 214.435048 61.224862 
L 213.119232 51.513648 
L 207.980473 51.513648 
L 206.574106 61.224862 
L 204.771579 61.224862 
L 209.661323 28.8 
z
M 210.57249 28.8 
L 210.57249 28.8 
z
" style="fill:#008000;"/>
   </g>
   <g id="patch_43">
    <path clip-path="url(#pa8e3c17089)" d="M 222.954196 117.67958 
Q 224.742676 117.67958 226.04741 118.919511 
Q 227.938168 120.700051 228.361101 125.163802 
L 226.661077 125.163802 
Q 226.348715 122.669061 225.372929 121.528325 
Q 224.397143 120.387589 222.909968 120.387589 
Q 221.14913 120.387589 219.94391 122.763296 
Q 218.73869 125.134043 218.73869 129.830901 
Q 218.73869 133.887954 219.731061 136.437251 
Q 220.726197 138.986548 222.970782 138.986548 
Q 224.690155 138.986548 225.817976 137.201048 
Q 226.945797 135.410588 226.970675 131.408092 
L 222.998424 131.408092 
L 222.998424 128.853835 
L 228.568421 128.853835 
L 228.568421 141.034914 
L 227.462714 141.034914 
L 227.048075 138.103718 
Q 226.177331 139.824742 225.50285 140.494304 
Q 224.3695 141.64 222.625248 141.64 
Q 220.372371 141.64 218.746982 139.021267 
Q 216.975088 135.73297 216.975088 129.999531 
Q 216.975088 124.280971 218.702754 120.9034 
Q 220.344728 117.67958 222.954196 117.67958 
z
M 222.669477 117.644862 
L 222.669477 117.644862 
z
" style="fill:#ffa600;"/>
   </g>
   <g id="patch_44">
    <path clip-path="url(#pa8e3c17089)" d="M 224.756798 105.655089 
L 222.784488 92.728316 
L 220.687671 105.655089 
L 224.756798 105.655089 
z
M 221.864831 88.381147 
L 223.85412 88.381147 
L 228.568421 117.644862 
L 226.638557 117.644862 
L 225.32274 108.880408 
L 220.183982 108.880408 
L 218.777615 117.644862 
L 216.975088 117.644862 
L 221.864831 88.381147 
z
M 222.775999 88.381147 
L 222.775999 88.381147 
z
" style="fill:#008000;"/>
   </g>
   <g id="patch_45">
    <path clip-path="url(#pa8e3c17089)" d="M 228.568421 59.117431 
L 228.568421 62.60409 
L 223.753686 62.60409 
L 223.753686 88.381147 
L 221.789822 88.381147 
L 221.789822 62.60409 
L 216.975088 62.60409 
L 216.975088 59.117431 
L 228.568421 59.117431 
z
" style="fill:#ff0000;"/>
   </g>
   <g id="patch_46">
    <path clip-path="url(#pa8e3c17089)" d="M 223.070698 28.8 
Q 225.553357 28.8 226.922805 31.684388 
Q 228.292254 34.562507 228.443149 38.224426 
L 226.717815 38.224426 
Q 226.424565 35.446634 225.547663 33.822598 
Q 224.670761 32.192292 223.087781 32.192292 
Q 221.157457 32.192292 219.970222 35.183277 
Q 218.782987 38.167992 218.782987 44.338075 
Q 218.782987 49.398296 219.853491 52.546042 
Q 220.926843 55.687517 223.053616 55.687517 
Q 225.009564 55.687517 226.034515 52.376741 
Q 226.575461 50.633567 226.843087 47.786801 
L 228.568421 47.786801 
Q 228.337807 52.332848 227.039536 55.411619 
Q 225.48218 59.117431 222.840084 59.117431 
Q 220.562416 59.117431 219.013601 56.076282 
Q 216.975088 52.06322 216.975088 43.673412 
Q 216.975088 37.308946 218.50682 33.23318 
Q 220.160977 28.8 223.070698 28.8 
z
M 222.714813 28.8 
L 222.714813 28.8 
z
" style="fill:#0000ff;"/>
   </g>
   <g id="patch_47">
    <path clip-path="url(#pa8e3c17089)" d="M 236.960307 132.240563 
L 234.987997 122.106561 
L 232.89118 132.240563 
L 236.960307 132.240563 
z
M 234.06834 118.698578 
L 236.057628 118.698578 
L 240.77193 141.64 
L 238.842066 141.64 
L 237.526249 134.769067 
L 232.387491 134.769067 
L 230.981124 141.64 
L 229.178596 141.64 
L 234.06834 118.698578 
z
M 234.979508 118.698578 
L 234.979508 118.698578 
z
" style="fill:#008000;"/>
   </g>
   <g id="patch_48">
    <path clip-path="url(#pa8e3c17089)" d="M 235.274207 94.70344 
Q 237.756866 94.70344 239.126314 96.986328 
Q 240.495763 99.264253 240.646658 102.162529 
L 238.921324 102.162529 
Q 238.628074 99.964008 237.751172 98.678643 
Q 236.874269 97.388315 235.29129 97.388315 
Q 233.360966 97.388315 232.173731 99.755571 
Q 230.986496 102.117863 230.986496 107.001259 
Q 230.986496 111.006238 232.057 113.497564 
Q 233.130352 115.983926 235.257125 115.983926 
Q 237.213073 115.983926 238.238023 113.363568 
Q 238.77897 111.98391 239.046596 109.730799 
L 240.77193 109.730799 
Q 240.541316 113.328828 239.243045 115.765563 
Q 237.685689 118.698578 235.043593 118.698578 
Q 232.765925 118.698578 231.21711 116.29162 
Q 229.178596 113.115428 229.178596 106.475202 
Q 229.178596 101.43796 230.710329 98.21214 
Q 232.364485 94.70344 235.274207 94.70344 
z
M 234.918321 94.70344 
L 234.918321 94.70344 
z
" style="fill:#0000ff;"/>
   </g>
   <g id="patch_49">
    <path clip-path="url(#pa8e3c17089)" d="M 235.157705 62.325493 
Q 236.946185 62.325493 238.250919 64.001023 
Q 240.141677 66.407085 240.56461 72.438994 
L 238.864586 72.438994 
Q 238.552224 69.067827 237.576438 67.526339 
Q 236.600652 65.984851 235.113476 65.984851 
Q 233.352639 65.984851 232.147419 69.195167 
Q 230.942198 72.398781 230.942198 78.74569 
Q 230.942198 84.228025 231.93457 87.672915 
Q 232.929706 91.117806 235.17429 91.117806 
Q 236.893664 91.117806 238.021485 88.705042 
Q 239.149305 86.285576 239.174184 80.876964 
L 235.201933 80.876964 
L 235.201933 77.425372 
L 240.77193 77.425372 
L 240.77193 93.885782 
L 239.666223 93.885782 
L 239.251583 89.924828 
Q 238.380839 92.250464 237.706358 93.15525 
Q 236.573009 94.70344 234.828757 94.70344 
Q 232.57588 94.70344 230.950491 91.16472 
Q 229.178596 86.721214 229.178596 78.973562 
Q 229.178596 71.246016 230.906263 66.681872 
Q 232.548237 62.325493 235.157705 62.325493 
z
M 234.872985 62.278578 
L 234.872985 62.278578 
z
" style="fill:#ffa600;"/>
   </g>
   <g id="patch_50">
    <path clip-path="url(#pa8e3c17089)" d="M 240.77193 28.8 
L 240.77193 32.788844 
L 235.957195 32.788844 
L 235.957195 62.278578 
L 233.993331 62.278578 
L 233.993331 32.788844 
L 229.178596 32.788844 
L 229.178596 28.8 
L 240.77193 28.8 
z
" style="fill:#ff0000;"/>
   </g>
   <g id="patch_51">
    <path clip-path="url(#pa8e3c17089)" d="M 249.163815 132.672286 
L 247.191506 123.003746 
L 245.094688 132.672286 
L 249.163815 132.672286 
z
M 246.271849 119.752294 
L 248.261137 119.752294 
L 252.975439 141.64 
L 251.045574 141.64 
L 249.729758 135.084653 
L 244.591 135.084653 
L 243.184632 141.64 
L 241.382105 141.64 
L 246.271849 119.752294 
z
M 247.183016 119.752294 
L 247.183016 119.752294 
z
" style="fill:#008000;"/>
   </g>
   <g id="patch_52">
    <path clip-path="url(#pa8e3c17089)" d="M 247.361214 97.896256 
Q 249.149694 97.896256 250.454428 99.027287 
Q 252.345186 100.651447 252.768119 104.723157 
L 251.068095 104.723157 
Q 250.755733 102.447524 249.779947 101.406975 
Q 248.804161 100.366427 247.316985 100.366427 
Q 245.556148 100.366427 244.350927 102.533482 
Q 243.145707 104.696013 243.145707 108.980357 
Q 243.145707 112.68109 244.138079 115.006489 
Q 245.133215 117.331888 247.377799 117.331888 
Q 249.097173 117.331888 250.224994 115.703204 
Q 251.352814 114.069995 251.377693 110.419028 
L 247.405442 110.419028 
L 247.405442 108.089105 
L 252.975439 108.089105 
L 252.975439 119.200351 
L 251.869732 119.200351 
L 251.455092 116.526594 
Q 250.584348 118.096465 249.909867 118.707221 
Q 248.776518 119.752294 247.032266 119.752294 
Q 244.779389 119.752294 243.154 117.363557 
Q 241.382105 114.364063 241.382105 109.134177 
Q 241.382105 103.917864 243.109772 100.836936 
Q 244.751746 97.896256 247.361214 97.896256 
z
M 247.076494 97.864587 
L 247.076494 97.864587 
z
" style="fill:#ffa600;"/>
   </g>
   <g id="patch_53">
    <path clip-path="url(#pa8e3c17089)" d="M 252.975439 65.439725 
L 252.975439 69.303022 
L 248.160704 69.303022 
L 248.160704 97.864587 
L 246.19684 97.864587 
L 246.19684 69.303022 
L 241.382105 69.303022 
L 241.382105 65.439725 
L 252.975439 65.439725 
z
" style="fill:#ff0000;"/>
   </g>
   <g id="patch_54">
    <path clip-path="url(#pa8e3c17089)" d="M 247.477716 28.8 
Q 249.960375 28.8 251.329823 32.285889 
Q 252.699271 35.7642 252.850167 40.189763 
L 251.124833 40.189763 
Q 250.831583 36.832701 249.954681 34.869994 
Q 249.077778 32.899709 247.494798 32.899709 
Q 245.564474 32.899709 244.37724 36.514424 
Q 243.190005 40.121561 243.190005 47.578333 
Q 243.190005 53.693794 244.260509 57.49796 
Q 245.33386 61.294548 247.460633 61.294548 
Q 249.416581 61.294548 250.441532 57.293354 
Q 250.982479 55.186664 251.250105 51.746243 
L 252.975439 51.746243 
Q 252.744825 57.240308 251.446554 60.961115 
Q 249.889198 65.439725 247.247102 65.439725 
Q 244.969433 65.439725 243.420619 61.764385 
Q 241.382105 56.914453 241.382105 46.775062 
Q 241.382105 39.083373 242.913837 34.15766 
Q 244.567994 28.8 247.477716 28.8 
z
M 247.12183 28.8 
L 247.12183 28.8 
z
" style="fill:#0000ff;"/>
   </g>
   <g id="patch_55">
    <path clip-path="url(#pa8e3c17089)" d="M 259.681225 118.698578 
Q 262.163884 118.698578 263.533332 120.881216 
Q 264.90278 123.059109 265.053676 125.83011 
L 263.328342 125.83011 
Q 263.035092 123.728135 262.158189 122.499215 
Q 261.281287 121.26555 259.698307 121.26555 
Q 257.767983 121.26555 256.580748 123.52885 
Q 255.393514 125.787406 255.393514 130.456353 
Q 255.393514 134.285459 256.464018 136.667382 
Q 257.537369 139.044559 259.664142 139.044559 
Q 261.62009 139.044559 262.645041 136.53927 
Q 263.185987 135.220198 263.453613 133.066029 
L 265.178947 133.066029 
Q 264.948333 136.506056 263.650062 138.835785 
Q 262.092706 141.64 259.450611 141.64 
Q 257.172942 141.64 255.624127 139.338741 
Q 253.585614 136.302027 253.585614 129.953398 
Q 253.585614 125.13736 255.117346 122.053197 
Q 256.771503 118.698578 259.681225 118.698578 
z
M 259.325339 118.698578 
L 259.325339 118.698578 
z
" style="fill:#0000ff;"/>
   </g>
   <g id="patch_56">
    <path clip-path="url(#pa8e3c17089)" d="M 259.564722 90.529394 
Q 261.353203 90.529394 262.657936 91.987125 
Q 264.548695 94.080426 264.971627 99.328256 
L 263.271604 99.328256 
Q 262.959241 96.395302 261.983455 95.05419 
Q 261.007669 93.713078 259.520494 93.713078 
Q 257.759656 93.713078 256.554436 96.506089 
Q 255.349216 99.29327 255.349216 104.815153 
Q 255.349216 109.584847 256.341588 112.581941 
Q 257.336724 115.579035 259.581308 115.579035 
Q 261.300682 115.579035 262.428502 113.479903 
Q 263.556323 111.37494 263.581201 106.669386 
L 259.608951 106.669386 
L 259.608951 103.666461 
L 265.178947 103.666461 
L 265.178947 117.987206 
L 264.073241 117.987206 
L 263.658601 114.541131 
Q 262.787857 116.564461 262.113376 117.351635 
Q 260.980027 118.698578 259.235775 118.698578 
Q 256.982897 118.698578 255.357509 115.619851 
Q 253.585614 111.75395 253.585614 105.013404 
Q 253.585614 98.290351 255.313281 94.319494 
Q 256.955255 90.529394 259.564722 90.529394 
z
M 259.280003 90.488578 
L 259.280003 90.488578 
z
" style="fill:#ffa600;"/>
   </g>
   <g id="patch_57">
    <path clip-path="url(#pa8e3c17089)" d="M 261.367324 78.067082 
L 259.395014 64.674847 
L 257.298197 78.067082 
L 261.367324 78.067082 
z
M 258.475358 60.171147 
L 260.464646 60.171147 
L 265.178947 90.488578 
L 263.249083 90.488578 
L 261.933267 81.408537 
L 256.794508 81.408537 
L 255.388141 90.488578 
L 253.585614 90.488578 
L 258.475358 60.171147 
z
M 259.386525 60.171147 
L 259.386525 60.171147 
z
" style="fill:#008000;"/>
   </g>
   <g id="patch_58">
    <path clip-path="url(#pa8e3c17089)" d="M 265.178947 28.8 
L 265.178947 32.537752 
L 260.364213 32.537752 
L 260.364213 60.171147 
L 258.400349 60.171147 
L 258.400349 32.537752 
L 253.585614 32.537752 
L 253.585614 28.8 
L 265.178947 28.8 
z
" style="fill:#ff0000;"/>
   </g>
   <g id="patch_59">
    <path clip-path="url(#pa8e3c17089)" d="M 277.382456 117.644862 
L 277.382456 120.503791 
L 272.567721 120.503791 
L 272.567721 141.64 
L 270.603857 141.64 
L 270.603857 120.503791 
L 265.789123 120.503791 
L 265.789123 117.644862 
L 277.382456 117.644862 
z
" style="fill:#ff0000;"/>
   </g>
   <g id="patch_60">
    <path clip-path="url(#pa8e3c17089)" d="M 273.570833 106.950257 
L 271.598523 95.41987 
L 269.501706 106.950257 
L 273.570833 106.950257 
z
M 270.678867 91.542294 
L 272.668155 91.542294 
L 277.382456 117.644862 
L 275.452592 117.644862 
L 274.136776 109.827169 
L 268.998017 109.827169 
L 267.59165 117.644862 
L 265.789123 117.644862 
L 270.678867 91.542294 
z
M 271.590034 91.542294 
L 271.590034 91.542294 
z
" style="fill:#008000;"/>
   </g>
   <g id="patch_61">
    <path clip-path="url(#pa8e3c17089)" d="M 271.884733 62.278578 
Q 274.367392 62.278578 275.736841 65.062716 
Q 277.106289 67.840802 277.257184 71.375448 
L 275.53185 71.375448 
Q 275.238601 68.694201 274.361698 67.12661 
Q 273.484796 65.552967 271.901816 65.552967 
Q 269.971492 65.552967 268.784257 68.439997 
Q 267.597022 71.320975 267.597022 77.276611 
Q 267.597022 82.160958 268.667527 85.1993 
Q 269.740878 88.23159 271.867651 88.23159 
Q 273.823599 88.23159 274.84855 85.035883 
Q 275.389496 83.353295 275.657122 80.605472 
L 277.382456 80.605472 
Q 277.151842 84.993516 275.853571 87.965281 
Q 274.296215 91.542294 271.65412 91.542294 
Q 269.376451 91.542294 267.827636 88.606843 
Q 265.789123 84.733259 265.789123 76.635048 
Q 265.789123 70.491786 267.320855 66.557678 
Q 268.975012 62.278578 271.884733 62.278578 
z
M 271.528848 62.278578 
L 271.528848 62.278578 
z
" style="fill:#0000ff;"/>
   </g>
   <g id="patch_62">
    <path clip-path="url(#pa8e3c17089)" d="M 271.768231 28.848439 
Q 273.556711 28.848439 274.861445 30.57842 
Q 276.752203 33.062671 277.175136 39.2906 
L 275.475112 39.2906 
Q 275.16275 35.80988 274.186964 34.218298 
Q 273.211178 32.626716 271.724003 32.626716 
Q 269.963165 32.626716 268.757945 35.941359 
Q 267.552725 39.249081 267.552725 45.802246 
Q 267.552725 51.462741 268.545096 55.019581 
Q 269.540232 58.57642 271.784817 58.57642 
Q 273.50419 58.57642 274.632011 56.085249 
Q 275.759832 53.587157 275.78471 48.002781 
L 271.812459 48.002781 
L 271.812459 44.439022 
L 277.382456 44.439022 
L 277.382456 61.434348 
L 276.27675 61.434348 
L 275.86211 57.344674 
Q 274.991366 59.745887 274.316885 60.680076 
Q 273.183535 62.278578 271.439283 62.278578 
Q 269.186406 62.278578 267.561018 58.62486 
Q 265.789123 54.036952 265.789123 46.037523 
Q 265.789123 38.058854 267.516789 33.346388 
Q 269.158764 28.848439 271.768231 28.848439 
z
M 271.483512 28.8 
L 271.483512 28.8 
z
" style="fill:#ffa600;"/>
   </g>
   <g id="patch_63">
    <path clip-path="url(#pa8e3c17089)" d="M 283.97174 118.731771 
Q 285.76022 118.731771 287.064954 119.917252 
Q 288.955712 121.619602 289.378645 125.887333 
L 287.678621 125.887333 
Q 287.366259 123.502146 286.390473 122.411503 
Q 285.414687 121.320861 283.927512 121.320861 
Q 282.166674 121.320861 280.961454 123.592242 
Q 279.756234 125.858881 279.756234 130.349482 
Q 279.756234 134.228375 280.748605 136.665723 
Q 281.743741 139.103071 283.988325 139.103071 
Q 285.707699 139.103071 286.83552 137.395979 
Q 287.963341 135.684145 287.988219 131.857413 
L 284.015968 131.857413 
L 284.015968 129.415323 
L 289.585965 129.415323 
L 289.585965 141.061485 
L 288.480258 141.061485 
L 288.065618 138.259009 
Q 287.194874 139.904456 286.520393 140.544616 
Q 285.387044 141.64 283.642792 141.64 
Q 281.389915 141.64 279.764526 139.136265 
Q 277.992632 135.99237 277.992632 130.510707 
Q 277.992632 125.043271 279.720298 121.814021 
Q 281.362272 118.731771 283.97174 118.731771 
z
M 283.68702 118.698578 
L 283.68702 118.698578 
z
" style="fill:#ffa600;"/>
   </g>
   <g id="patch_64">
    <path clip-path="url(#pa8e3c17089)" d="M 284.088242 91.542294 
Q 286.570901 91.542294 287.940349 94.125932 
Q 289.309798 96.703953 289.460693 99.984051 
L 287.735359 99.984051 
Q 287.442109 97.495895 286.565207 96.041194 
Q 285.688304 94.580877 284.105325 94.580877 
Q 282.175001 94.580877 280.987766 97.259997 
Q 279.800531 99.933501 279.800531 105.46024 
Q 279.800531 109.99284 280.871035 112.812376 
Q 281.944387 115.626295 284.07116 115.626295 
Q 286.027108 115.626295 287.052059 112.660728 
Q 287.593005 111.099312 287.860631 108.549373 
L 289.585965 108.549373 
Q 289.355351 112.621412 288.05708 115.379165 
Q 286.499724 118.698578 283.857628 118.698578 
Q 281.57996 118.698578 280.031145 115.974525 
Q 277.992632 112.379898 277.992632 104.86488 
Q 277.992632 99.164026 279.524364 95.513233 
Q 281.178521 91.542294 284.088242 91.542294 
z
M 283.732357 91.542294 
L 283.732357 91.542294 
z
" style="fill:#0000ff;"/>
   </g>
   <g id="patch_65">
    <path clip-path="url(#pa8e3c17089)" d="M 285.774342 79.55252 
L 283.802032 66.625747 
L 281.705215 79.55252 
L 285.774342 79.55252 
z
M 282.882375 62.278578 
L 284.871663 62.278578 
L 289.585965 91.542294 
L 287.656101 91.542294 
L 286.340284 82.777839 
L 281.201526 82.777839 
L 279.795159 91.542294 
L 277.992632 91.542294 
L 282.882375 62.278578 
z
M 283.793543 62.278578 
L 283.793543 62.278578 
z
" style="fill:#008000;"/>
   </g>
   <g id="patch_66">
    <path clip-path="url(#pa8e3c17089)" d="M 289.585965 28.8 
L 289.585965 32.788844 
L 284.77123 32.788844 
L 284.77123 62.278578 
L 282.807366 62.278578 
L 282.807366 32.788844 
L 277.992632 32.788844 
L 277.992632 28.8 
L 289.585965 28.8 
z
" style="fill:#ff0000;"/>
   </g>
   <g id="patch_67">
    <path clip-path="url(#pa8e3c17089)" d="M 296.291751 119.752294 
Q 298.77441 119.752294 300.143858 121.834681 
Q 301.513306 123.912542 301.664202 126.556269 
L 299.938868 126.556269 
Q 299.645618 124.550839 298.768716 123.378364 
Q 297.891813 122.201363 296.308834 122.201363 
Q 294.378509 122.201363 293.191275 124.360708 
Q 292.00404 126.515527 292.00404 130.970026 
Q 292.00404 134.623259 293.074544 136.895777 
Q 294.147895 139.163769 296.274669 139.163769 
Q 298.230616 139.163769 299.255567 136.77355 
Q 299.796514 135.515064 300.06414 133.459838 
L 301.789474 133.459838 
Q 301.55886 136.741862 300.260589 138.964584 
Q 298.703233 141.64 296.061137 141.64 
Q 293.783468 141.64 292.234654 139.444439 
Q 290.19614 136.547204 290.19614 130.490171 
Q 290.19614 125.895338 291.727873 122.952833 
Q 293.382029 119.752294 296.291751 119.752294 
z
M 295.935865 119.752294 
L 295.935865 119.752294 
z
" style="fill:#0000ff;"/>
   </g>
   <g id="patch_68">
    <path clip-path="url(#pa8e3c17089)" d="M 301.789474 91.542294 
L 301.789474 94.903407 
L 296.974739 94.903407 
L 296.974739 119.752294 
L 295.010875 119.752294 
L 295.010875 94.903407 
L 290.19614 94.903407 
L 290.19614 91.542294 
L 301.789474 91.542294 
z
" style="fill:#ff0000;"/>
   </g>
   <g id="patch_69">
    <path clip-path="url(#pa8e3c17089)" d="M 297.977851 79.120798 
L 296.005541 65.728563 
L 293.908724 79.120798 
L 297.977851 79.120798 
z
M 295.085884 61.224862 
L 297.075172 61.224862 
L 301.789474 91.542294 
L 299.85961 91.542294 
L 298.543793 82.462253 
L 293.405035 82.462253 
L 291.998667 91.542294 
L 290.19614 91.542294 
L 295.085884 61.224862 
z
M 295.997052 61.224862 
L 295.997052 61.224862 
z
" style="fill:#008000;"/>
   </g>
   <g id="patch_70">
    <path clip-path="url(#pa8e3c17089)" d="M 296.175249 28.846915 
Q 297.963729 28.846915 299.268463 30.522445 
Q 301.159221 32.928507 301.582154 38.960416 
L 299.88213 38.960416 
Q 299.569768 35.589249 298.593982 34.047761 
Q 297.618196 32.506273 296.13102 32.506273 
Q 294.370183 32.506273 293.164962 35.716589 
Q 291.959742 38.920203 291.959742 45.267112 
Q 291.959742 50.749447 292.952114 54.194337 
Q 293.94725 57.639228 296.191834 57.639228 
Q 297.911208 57.639228 299.039029 55.226464 
Q 300.166849 52.806998 300.191728 47.398386 
L 296.219477 47.398386 
L 296.219477 43.946794 
L 301.789474 43.946794 
L 301.789474 60.407204 
L 300.683767 60.407204 
L 300.269127 56.44625 
Q 299.398383 58.771886 298.723902 59.676672 
Q 297.590553 61.224862 295.846301 61.224862 
Q 293.593424 61.224862 291.968035 57.686142 
Q 290.19614 53.242636 290.19614 45.494984 
Q 290.19614 37.767438 291.923807 33.203294 
Q 293.565781 28.846915 296.175249 28.846915 
z
M 295.890529 28.8 
L 295.890529 28.8 
z
" style="fill:#ffa600;"/>
   </g>
   <g id="patch_71">
    <path clip-path="url(#pa8e3c17089)" d="M 310.181359 132.672286 
L 308.209049 123.003746 
L 306.112232 132.672286 
L 310.181359 132.672286 
z
M 307.289393 119.752294 
L 309.278681 119.752294 
L 313.992982 141.64 
L 312.063118 141.64 
L 310.747302 135.084653 
L 305.608543 135.084653 
L 304.202176 141.64 
L 302.399649 141.64 
L 307.289393 119.752294 
z
M 308.20056 119.752294 
L 308.20056 119.752294 
z
" style="fill:#008000;"/>
   </g>
   <g id="patch_72">
    <path clip-path="url(#pa8e3c17089)" d="M 308.378757 94.739683 
Q 310.167238 94.739683 311.471971 96.034064 
Q 313.36273 97.892794 313.785662 102.552564 
L 312.085639 102.552564 
Q 311.773277 99.948271 310.79749 98.75744 
Q 309.821704 97.56661 308.334529 97.56661 
Q 306.573691 97.56661 305.368471 100.046643 
Q 304.163251 102.521499 304.163251 107.424613 
Q 304.163251 111.659826 305.155623 114.321073 
Q 306.150759 116.982319 308.395343 116.982319 
Q 310.114717 116.982319 311.242537 115.118411 
Q 312.370358 113.249325 312.395236 109.071065 
L 308.422986 109.071065 
L 308.422986 106.404641 
L 313.992982 106.404641 
L 313.992982 119.120636 
L 312.887276 119.120636 
L 312.472636 116.06072 
Q 311.601892 117.85732 310.927411 118.556286 
Q 309.794062 119.752294 308.04981 119.752294 
Q 305.796933 119.752294 304.171544 117.018562 
Q 302.399649 113.585864 302.399649 107.600649 
Q 302.399649 101.630965 304.127316 98.105073 
Q 305.76929 94.739683 308.378757 94.739683 
z
M 308.094038 94.70344 
L 308.094038 94.70344 
z
" style="fill:#ffa600;"/>
   </g>
   <g id="patch_73">
    <path clip-path="url(#pa8e3c17089)" d="M 313.992982 62.278578 
L 313.992982 66.141876 
L 309.178248 66.141876 
L 309.178248 94.70344 
L 307.214384 94.70344 
L 307.214384 66.141876 
L 302.399649 66.141876 
L 302.399649 62.278578 
L 313.992982 62.278578 
z
" style="fill:#ff0000;"/>
   </g>
   <g id="patch_74">
    <path clip-path="url(#pa8e3c17089)" d="M 308.49526 28.8 
Q 310.977919 28.8 312.347367 31.985139 
Q 313.716815 35.163353 313.867711 39.207095 
L 312.142377 39.207095 
Q 311.849127 36.139668 310.972224 34.346296 
Q 310.095322 32.546 308.512342 32.546 
Q 306.582018 32.546 305.394783 35.848851 
Q 304.207549 39.144777 304.207549 45.958204 
Q 304.207549 51.546045 305.278053 55.022001 
Q 306.351404 58.491033 308.478177 58.491033 
Q 310.434125 58.491033 311.459076 54.835047 
Q 312.000022 52.910116 312.267648 49.766522 
L 313.992982 49.766522 
Q 313.762369 54.786578 312.464097 58.186367 
Q 310.906741 62.278578 308.264646 62.278578 
Q 305.986977 62.278578 304.438163 58.920334 
Q 302.399649 54.488836 302.399649 45.224237 
Q 302.399649 38.196159 303.931381 33.69542 
Q 305.585538 28.8 308.49526 28.8 
z
M 308.139374 28.8 
L 308.139374 28.8 
z
" style="fill:#0000ff;"/>
   </g>
   <g id="patch_75">
    <path clip-path="url(#pa8e3c17089)" d="M 326.196491 118.698578 
L 326.196491 121.43196 
L 321.381757 121.43196 
L 321.381757 141.64 
L 319.417893 141.64 
L 319.417893 121.43196 
L 314.603158 121.43196 
L 314.603158 118.698578 
L 326.196491 118.698578 
z
" style="fill:#ff0000;"/>
   </g>
   <g id="patch_76">
    <path clip-path="url(#pa8e3c17089)" d="M 320.698769 92.596009 
Q 323.181427 92.596009 324.550876 95.079397 
Q 325.920324 97.557387 326.071219 100.71021 
L 324.345885 100.71021 
Q 324.052636 98.318599 323.175733 96.920344 
Q 322.298831 95.51669 320.715851 95.51669 
Q 318.785527 95.51669 317.598292 98.091855 
Q 316.411057 100.661622 316.411057 105.973913 
Q 316.411057 110.33064 317.481562 113.040772 
Q 318.554913 115.745506 320.681686 115.745506 
Q 322.637634 115.745506 323.662585 112.895008 
Q 324.203531 111.394178 324.471157 108.943182 
L 326.196491 108.943182 
Q 325.965877 112.857217 324.667606 115.507964 
Q 323.11025 118.698578 320.468155 118.698578 
Q 318.190486 118.698578 316.641671 116.080223 
Q 314.603158 112.625074 314.603158 105.401654 
Q 314.603158 99.922004 316.13489 96.412869 
Q 317.789047 92.596009 320.698769 92.596009 
z
M 320.342883 92.596009 
L 320.342883 92.596009 
z
" style="fill:#0000ff;"/>
   </g>
   <g id="patch_77">
    <path clip-path="url(#pa8e3c17089)" d="M 322.384868 80.606236 
L 320.412558 67.679463 
L 318.315741 80.606236 
L 322.384868 80.606236 
z
M 319.492902 63.332294 
L 321.48219 63.332294 
L 326.196491 92.596009 
L 324.266627 92.596009 
L 322.950811 83.831555 
L 317.812052 83.831555 
L 316.405685 92.596009 
L 314.603158 92.596009 
L 319.492902 63.332294 
z
M 320.404069 63.332294 
L 320.404069 63.332294 
z
" style="fill:#008000;"/>
   </g>
   <g id="patch_78">
    <path clip-path="url(#pa8e3c17089)" d="M 320.582266 28.849964 
Q 322.370747 28.849964 323.67548 30.634394 
Q 325.566238 33.196836 325.989171 39.620785 
L 324.289147 39.620785 
Q 323.976785 36.030511 323.000999 34.388835 
Q 322.025213 32.74716 320.538038 32.74716 
Q 318.7772 32.74716 317.57198 36.166128 
Q 316.36676 39.577959 316.36676 46.33738 
Q 316.36676 52.176036 317.359132 55.844824 
Q 318.354267 59.513613 320.598852 59.513613 
Q 322.318225 59.513613 323.446046 56.944033 
Q 324.573867 54.367316 324.598745 48.607175 
L 320.626494 48.607175 
L 320.626494 44.931249 
L 326.196491 44.931249 
L 326.196491 62.461492 
L 325.090785 62.461492 
L 324.676145 58.243099 
Q 323.805401 60.719888 323.13092 61.68348 
Q 321.997571 63.332294 320.253318 63.332294 
Q 318.000441 63.332294 316.375053 59.563577 
Q 314.603158 54.831268 314.603158 46.580063 
Q 314.603158 38.350271 316.330824 33.489483 
Q 317.972799 28.849964 320.582266 28.849964 
z
M 320.297547 28.8 
L 320.297547 28.8 
z
" style="fill:#ffa600;"/>
   </g>
   <g id="patch_79">
    <path clip-path="url(#pa8e3c17089)" d="M 332.902277 118.698578 
Q 335.384936 118.698578 336.754384 120.881216 
Q 338.123833 123.059109 338.274728 125.83011 
L 336.549394 125.83011 
Q 336.256144 123.728135 335.379242 122.499215 
Q 334.50234 121.26555 332.91936 121.26555 
Q 330.989036 121.26555 329.801801 123.52885 
Q 328.614566 125.787406 328.614566 130.456353 
Q 328.614566 134.285459 329.68507 136.667382 
Q 330.758422 139.044559 332.885195 139.044559 
Q 334.841143 139.044559 335.866094 136.53927 
Q 336.40704 135.220198 336.674666 133.066029 
L 338.4 133.066029 
Q 338.169386 136.506056 336.871115 138.835785 
Q 335.313759 141.64 332.671663 141.64 
Q 330.393995 141.64 328.84518 139.338741 
Q 326.806667 136.302027 326.806667 129.953398 
Q 326.806667 125.13736 328.338399 122.053197 
Q 329.992556 118.698578 332.902277 118.698578 
z
M 332.546392 118.698578 
L 332.546392 118.698578 
z
" style="fill:#0000ff;"/>
   </g>
   <g id="patch_80">
    <path clip-path="url(#pa8e3c17089)" d="M 334.588377 108.003973 
L 332.616067 96.473585 
L 330.51925 108.003973 
L 334.588377 108.003973 
z
M 331.69641 92.596009 
L 333.685698 92.596009 
L 338.4 118.698578 
L 336.470136 118.698578 
L 335.154319 110.880884 
L 330.015561 110.880884 
L 328.609194 118.698578 
L 326.806667 118.698578 
L 331.69641 92.596009 
z
M 332.607578 92.596009 
L 332.607578 92.596009 
z
" style="fill:#008000;"/>
   </g>
   <g id="patch_81">
    <path clip-path="url(#pa8e3c17089)" d="M 332.785775 66.531208 
Q 334.574255 66.531208 335.878989 67.880038 
Q 337.769747 69.816959 338.19268 74.672749 
L 336.492656 74.672749 
Q 336.180294 71.958902 335.204508 70.717978 
Q 334.228722 69.477054 332.741547 69.477054 
Q 330.980709 69.477054 329.775489 72.061413 
Q 328.570269 74.640377 328.570269 79.749747 
Q 328.570269 84.163121 329.56264 86.936316 
Q 330.557776 89.709512 332.802361 89.709512 
Q 334.521734 89.709512 335.649555 87.767196 
Q 336.777376 85.819484 336.802254 81.465459 
L 332.830003 81.465459 
L 332.830003 78.686869 
L 338.4 78.686869 
L 338.4 91.93778 
L 337.294293 91.93778 
L 336.879653 88.749144 
Q 336.00891 90.621321 335.334429 91.34969 
Q 334.201079 92.596009 332.456827 92.596009 
Q 330.20395 92.596009 328.578561 89.747279 
Q 326.806667 86.17018 326.806667 79.933188 
Q 326.806667 73.712381 328.534333 70.038167 
Q 330.176307 66.531208 332.785775 66.531208 
z
M 332.501055 66.49344 
L 332.501055 66.49344 
z
" style="fill:#ffa600;"/>
   </g>
   <g id="patch_82">
    <path clip-path="url(#pa8e3c17089)" d="M 338.4 28.8 
L 338.4 33.291029 
L 333.585265 33.291029 
L 333.585265 66.49344 
L 331.621401 66.49344 
L 331.621401 33.291029 
L 326.806667 33.291029 
L 326.806667 28.8 
L 338.4 28.8 
z
" style="fill:#ff0000;"/>
   </g>
   <g id="matplotlib.axis_1">
    <g id="xtick_1">
     <g id="text_1">
      <!-- 0 -->
      <g style="fill:#262626;" transform="translate(95.175729 162.986875)scale(0.2 -0.2)">
       <defs>
        <path d="M 1731 4475 
Q 2600 4475 2988 3759 
Q 3288 3206 3288 2244 
Q 3288 1331 3016 734 
Q 2622 -122 1728 -122 
Q 922 -122 528 578 
Q 200 1163 200 2147 
Q 200 2909 397 3456 
Q 766 4475 1731 4475 
z
M 1725 391 
Q 2163 391 2422 778 
Q 2681 1166 2681 2222 
Q 2681 2984 2493 3476 
Q 2306 3969 1766 3969 
Q 1269 3969 1039 3501 
Q 809 3034 809 2125 
Q 809 1441 956 1025 
Q 1181 391 1725 391 
z
" id="Helvetica-30" transform="scale(0.015625)"/>
       </defs>
       <use xlink:href="#Helvetica-30"/>
      </g>
     </g>
    </g>
    <g id="xtick_2">
     <g id="text_2">
      <!-- 10 -->
      <g style="fill:#262626;" transform="translate(211.649879 162.986875)scale(0.2 -0.2)">
       <defs>
        <path d="M 613 3169 
L 613 3600 
Q 1222 3659 1462 3798 
Q 1703 3938 1822 4456 
L 2266 4456 
L 2266 0 
L 1666 0 
L 1666 3169 
L 613 3169 
z
" id="Helvetica-31" transform="scale(0.015625)"/>
       </defs>
       <use xlink:href="#Helvetica-31"/>
       <use x="55.615234" xlink:href="#Helvetica-30"/>
      </g>
     </g>
    </g>
    <g id="text_3">
     <!-- Position -->
     <g style="fill:#262626;" transform="translate(172.20125 189.089219)scale(0.25 -0.25)">
      <defs>
       <path d="M 547 4591 
L 2613 4591 
Q 3225 4591 3600 4245 
Q 3975 3900 3975 3275 
Q 3975 2738 3640 2339 
Q 3306 1941 2613 1941 
L 1169 1941 
L 1169 0 
L 547 0 
L 547 4591 
z
M 3347 3272 
Q 3347 3778 2972 3959 
Q 2766 4056 2406 4056 
L 1169 4056 
L 1169 2466 
L 2406 2466 
Q 2825 2466 3086 2644 
Q 3347 2822 3347 3272 
z
" id="Helvetica-50" transform="scale(0.015625)"/>
       <path d="M 1741 363 
Q 2300 363 2508 786 
Q 2716 1209 2716 1728 
Q 2716 2197 2566 2491 
Q 2328 2953 1747 2953 
Q 1231 2953 997 2559 
Q 763 2166 763 1609 
Q 763 1075 997 719 
Q 1231 363 1741 363 
z
M 1763 3444 
Q 2409 3444 2856 3012 
Q 3303 2581 3303 1744 
Q 3303 934 2909 406 
Q 2516 -122 1688 -122 
Q 997 -122 590 345 
Q 184 813 184 1600 
Q 184 2444 612 2944 
Q 1041 3444 1763 3444 
z
M 1744 3428 
L 1744 3428 
z
" id="Helvetica-6f" transform="scale(0.015625)"/>
       <path d="M 747 1050 
Q 772 769 888 619 
Q 1100 347 1625 347 
Q 1938 347 2175 483 
Q 2413 619 2413 903 
Q 2413 1119 2222 1231 
Q 2100 1300 1741 1391 
L 1294 1503 
Q 866 1609 663 1741 
Q 300 1969 300 2372 
Q 300 2847 642 3140 
Q 984 3434 1563 3434 
Q 2319 3434 2653 2991 
Q 2863 2709 2856 2384 
L 2325 2384 
Q 2309 2575 2191 2731 
Q 1997 2953 1519 2953 
Q 1200 2953 1036 2831 
Q 872 2709 872 2509 
Q 872 2291 1088 2159 
Q 1213 2081 1456 2022 
L 1828 1931 
Q 2434 1784 2641 1647 
Q 2969 1431 2969 969 
Q 2969 522 2630 197 
Q 2291 -128 1597 -128 
Q 850 -128 539 211 
Q 228 550 206 1050 
L 747 1050 
z
M 1578 3428 
L 1578 3428 
z
" id="Helvetica-73" transform="scale(0.015625)"/>
       <path d="M 413 3331 
L 984 3331 
L 984 0 
L 413 0 
L 413 3331 
z
M 413 4591 
L 984 4591 
L 984 3953 
L 413 3953 
L 413 4591 
z
" id="Helvetica-69" transform="scale(0.015625)"/>
       <path d="M 525 4281 
L 1094 4281 
L 1094 3347 
L 1628 3347 
L 1628 2888 
L 1094 2888 
L 1094 703 
Q 1094 528 1213 469 
Q 1278 434 1431 434 
Q 1472 434 1519 436 
Q 1566 438 1628 444 
L 1628 0 
Q 1531 -28 1426 -40 
Q 1322 -53 1200 -53 
Q 806 -53 665 148 
Q 525 350 525 672 
L 525 2888 
L 72 2888 
L 72 3347 
L 525 3347 
L 525 4281 
z
" id="Helvetica-74" transform="scale(0.015625)"/>
       <path d="M 413 3347 
L 947 3347 
L 947 2872 
Q 1184 3166 1450 3294 
Q 1716 3422 2041 3422 
Q 2753 3422 3003 2925 
Q 3141 2653 3141 2147 
L 3141 0 
L 2569 0 
L 2569 2109 
Q 2569 2416 2478 2603 
Q 2328 2916 1934 2916 
Q 1734 2916 1606 2875 
Q 1375 2806 1200 2600 
Q 1059 2434 1017 2257 
Q 975 2081 975 1753 
L 975 0 
L 413 0 
L 413 3347 
z
M 1734 3428 
L 1734 3428 
z
" id="Helvetica-6e" transform="scale(0.015625)"/>
      </defs>
      <use xlink:href="#Helvetica-50"/>
      <use x="66.699219" xlink:href="#Helvetica-6f"/>
      <use x="122.314453" xlink:href="#Helvetica-73"/>
      <use x="172.314453" xlink:href="#Helvetica-69"/>
      <use x="194.53125" xlink:href="#Helvetica-74"/>
      <use x="222.314453" xlink:href="#Helvetica-69"/>
      <use x="244.53125" xlink:href="#Helvetica-6f"/>
      <use x="300.146484" xlink:href="#Helvetica-6e"/>
     </g>
    </g>
   </g>
   <g id="matplotlib.axis_2">
    <g id="ytick_1">
     <g id="text_4">
      <!-- 0 -->
      <g style="fill:#262626;" transform="translate(76.818125 148.813438)scale(0.2 -0.2)">
       <use xlink:href="#Helvetica-30"/>
      </g>
     </g>
    </g>
    <g id="ytick_2">
     <g id="text_5">
      <!-- 0.25 -->
      <g style="fill:#262626;" transform="translate(49.018125 120.603437)scale(0.2 -0.2)">
       <defs>
        <path d="M 547 681 
L 1200 681 
L 1200 0 
L 547 0 
L 547 681 
z
" id="Helvetica-2e" transform="scale(0.015625)"/>
        <path d="M 200 0 
Q 231 578 439 1006 
Q 647 1434 1250 1784 
L 1850 2131 
Q 2253 2366 2416 2531 
Q 2672 2791 2672 3125 
Q 2672 3516 2437 3745 
Q 2203 3975 1813 3975 
Q 1234 3975 1013 3538 
Q 894 3303 881 2888 
L 309 2888 
Q 319 3472 525 3841 
Q 891 4491 1816 4491 
Q 2584 4491 2939 4075 
Q 3294 3659 3294 3150 
Q 3294 2613 2916 2231 
Q 2697 2009 2131 1694 
L 1703 1456 
Q 1397 1288 1222 1134 
Q 909 863 828 531 
L 3272 531 
L 3272 0 
L 200 0 
z
" id="Helvetica-32" transform="scale(0.015625)"/>
        <path d="M 791 1141 
Q 847 659 1238 475 
Q 1438 381 1700 381 
Q 2200 381 2440 700 
Q 2681 1019 2681 1406 
Q 2681 1875 2395 2131 
Q 2109 2388 1709 2388 
Q 1419 2388 1211 2275 
Q 1003 2163 856 1963 
L 369 1991 
L 709 4400 
L 3034 4400 
L 3034 3856 
L 1131 3856 
L 941 2613 
Q 1097 2731 1238 2791 
Q 1488 2894 1816 2894 
Q 2431 2894 2859 2497 
Q 3288 2100 3288 1491 
Q 3288 856 2895 371 
Q 2503 -113 1644 -113 
Q 1097 -113 676 195 
Q 256 503 206 1141 
L 791 1141 
z
" id="Helvetica-35" transform="scale(0.015625)"/>
       </defs>
       <use xlink:href="#Helvetica-30"/>
       <use x="55.615234" xlink:href="#Helvetica-2e"/>
       <use x="83.398438" xlink:href="#Helvetica-32"/>
       <use x="139.013672" xlink:href="#Helvetica-35"/>
      </g>
     </g>
    </g>
    <g id="ytick_3">
     <g id="text_6">
      <!-- 0.50 -->
      <g style="fill:#262626;" transform="translate(49.018125 92.393438)scale(0.2 -0.2)">
       <use xlink:href="#Helvetica-30"/>
       <use x="55.615234" xlink:href="#Helvetica-2e"/>
       <use x="83.398438" xlink:href="#Helvetica-35"/>
       <use x="139.013672" xlink:href="#Helvetica-30"/>
      </g>
     </g>
    </g>
    <g id="ytick_4">
     <g id="text_7">
      <!-- 0.75 -->
      <g style="fill:#262626;" transform="translate(49.018125 64.183437)scale(0.2 -0.2)">
       <defs>
        <path d="M 3347 4400 
L 3347 3909 
Q 3131 3700 2773 3181 
Q 2416 2663 2141 2063 
Q 1869 1478 1728 997 
Q 1638 688 1494 0 
L 872 0 
Q 1084 1281 1809 2550 
Q 2238 3294 2709 3834 
L 234 3834 
L 234 4400 
L 3347 4400 
z
" id="Helvetica-37" transform="scale(0.015625)"/>
       </defs>
       <use xlink:href="#Helvetica-30"/>
       <use x="55.615234" xlink:href="#Helvetica-2e"/>
       <use x="83.398438" xlink:href="#Helvetica-37"/>
       <use x="139.013672" xlink:href="#Helvetica-35"/>
      </g>
     </g>
    </g>
    <g id="ytick_5">
     <g id="text_8">
      <!-- 1.0 -->
      <g style="fill:#262626;" transform="translate(60.14 35.973437)scale(0.2 -0.2)">
       <use xlink:href="#Helvetica-31"/>
       <use x="55.615234" xlink:href="#Helvetica-2e"/>
       <use x="83.398438" xlink:href="#Helvetica-30"/>
      </g>
     </g>
    </g>
    <g id="text_9">
     <!-- Probability -->
     <g style="fill:#262626;" transform="translate(39.65875 143.579375)rotate(-90)scale(0.25 -0.25)">
      <defs>
       <path d="M 428 3347 
L 963 3347 
L 963 2769 
Q 1028 2938 1284 3180 
Q 1541 3422 1875 3422 
Q 1891 3422 1928 3419 
Q 1966 3416 2056 3406 
L 2056 2813 
Q 2006 2822 1964 2825 
Q 1922 2828 1872 2828 
Q 1447 2828 1219 2554 
Q 991 2281 991 1925 
L 991 0 
L 428 0 
L 428 3347 
z
" id="Helvetica-72" transform="scale(0.015625)"/>
       <path d="M 369 4606 
L 916 4606 
L 916 2941 
Q 1100 3181 1356 3307 
Q 1613 3434 1913 3434 
Q 2538 3434 2927 3004 
Q 3316 2575 3316 1738 
Q 3316 944 2931 419 
Q 2547 -106 1866 -106 
Q 1484 -106 1222 78 
Q 1066 188 888 428 
L 888 0 
L 369 0 
L 369 4606 
z
M 1831 391 
Q 2288 391 2514 753 
Q 2741 1116 2741 1709 
Q 2741 2238 2514 2584 
Q 2288 2931 1847 2931 
Q 1463 2931 1173 2647 
Q 884 2363 884 1709 
Q 884 1238 1003 944 
Q 1225 391 1831 391 
z
" id="Helvetica-62" transform="scale(0.015625)"/>
       <path d="M 844 891 
Q 844 647 1022 506 
Q 1200 366 1444 366 
Q 1741 366 2019 503 
Q 2488 731 2488 1250 
L 2488 1703 
Q 2384 1638 2221 1594 
Q 2059 1550 1903 1531 
L 1563 1488 
Q 1256 1447 1103 1359 
Q 844 1213 844 891 
z
M 2206 2028 
Q 2400 2053 2466 2191 
Q 2503 2266 2503 2406 
Q 2503 2694 2298 2823 
Q 2094 2953 1713 2953 
Q 1272 2953 1088 2716 
Q 984 2584 953 2325 
L 428 2325 
Q 444 2944 830 3186 
Q 1216 3428 1725 3428 
Q 2316 3428 2684 3203 
Q 3050 2978 3050 2503 
L 3050 575 
Q 3050 488 3086 434 
Q 3122 381 3238 381 
Q 3275 381 3322 386 
Q 3369 391 3422 400 
L 3422 -16 
Q 3291 -53 3222 -62 
Q 3153 -72 3034 -72 
Q 2744 -72 2613 134 
Q 2544 244 2516 444 
Q 2344 219 2022 53 
Q 1700 -113 1313 -113 
Q 847 -113 551 170 
Q 256 453 256 878 
Q 256 1344 547 1600 
Q 838 1856 1309 1916 
L 2206 2028 
z
M 1741 3428 
L 1741 3428 
z
" id="Helvetica-61" transform="scale(0.015625)"/>
       <path d="M 428 4591 
L 991 4591 
L 991 0 
L 428 0 
L 428 4591 
z
" id="Helvetica-6c" transform="scale(0.015625)"/>
       <path d="M 2503 3347 
L 3125 3347 
Q 3006 3025 2597 1878 
Q 2291 1016 2084 472 
Q 1597 -809 1397 -1090 
Q 1197 -1372 709 -1372 
Q 591 -1372 527 -1362 
Q 463 -1353 369 -1328 
L 369 -816 
Q 516 -856 581 -865 
Q 647 -875 697 -875 
Q 853 -875 926 -823 
Q 1000 -772 1050 -697 
Q 1066 -672 1162 -440 
Q 1259 -209 1303 -97 
L 66 3347 
L 703 3347 
L 1600 622 
L 2503 3347 
z
M 1597 3428 
L 1597 3428 
z
" id="Helvetica-79" transform="scale(0.015625)"/>
      </defs>
      <use xlink:href="#Helvetica-50"/>
      <use x="66.699219" xlink:href="#Helvetica-72"/>
      <use x="100" xlink:href="#Helvetica-6f"/>
      <use x="155.615234" xlink:href="#Helvetica-62"/>
      <use x="211.230469" xlink:href="#Helvetica-61"/>
      <use x="266.845703" xlink:href="#Helvetica-62"/>
      <use x="322.460938" xlink:href="#Helvetica-69"/>
      <use x="344.677734" xlink:href="#Helvetica-6c"/>
      <use x="366.894531" xlink:href="#Helvetica-69"/>
      <use x="389.111328" xlink:href="#Helvetica-74"/>
      <use x="416.894531" xlink:href="#Helvetica-79"/>
     </g>
    </g>
   </g>
   <g id="patch_83">
    <path d="M 94.94 141.64 
L 94.94 28.8 
" style="fill:none;stroke:#000000;stroke-linecap:square;stroke-linejoin:miter;"/>
   </g>
  </g>
 </g>
 <defs>
  <clipPath id="pa8e3c17089">
   <rect height="112.84" width="243.46" x="94.94" y="28.8"/>
  </clipPath>
 </defs>
</svg>
